<svg xmlns="http://www.w3.org/2000/svg" width="820" height="320" viewBox="0 0 820 320">
<rect width="100%" height="100%" fill="#ffffff"/>
<text x="54" y="28" font-family="Arial" font-size="18" font-weight="700">Downrange/Crossrange</text>
<line x1="54" y1="266" x2="766" y2="266" stroke="#1f2933"/>
<line x1="54" y1="54" x2="54" y2="266" stroke="#1f2933"/>
<text x="54" y="306" font-family="Arial" font-size="12">downrange (m)</text>
<text x="596" y="306" font-family="Arial" font-size="12">crossrange (m)</text>
<text x="58" y="68" font-family="Arial" font-size="11">-6.14</text>
<text x="58" y="260" font-family="Arial" font-size="11">-182</text>
<polyline fill="none" stroke="#0f62fe" stroke-width="2.2" points="54.0,264.1 59.5,264.0 65.0,263.9 70.5,263.7 75.9,263.6 81.4,263.5 86.9,263.3 92.3,263.2 97.8,263.1 103.2,262.9 108.7,262.8 114.1,262.6 119.6,262.5 125.0,262.4 130.4,262.2 135.9,262.1 141.3,261.9 146.8,261.8 152.2,261.7 157.7,261.6 163.1,261.5 168.5,261.4 174.0,261.3 179.4,261.2 184.8,261.1 190.2,261.0 195.7,260.9 201.1,260.9 206.5,260.8 211.9,260.7 217.3,260.7 222.7,260.7 228.1,260.7 233.4,260.6 238.8,260.6 244.2,260.6 249.6,260.7 254.9,260.7 260.3,260.7 265.7,260.7 271.0,260.8 276.4,260.8 281.7,260.9 287.1,261.0 292.5,261.0 297.8,261.1 303.2,261.2 308.5,261.3 313.9,261.4 319.2,261.5 324.6,261.6 329.9,261.7 335.3,261.8 340.6,262.0 346.0,262.1 351.3,262.2 356.7,262.3 362.0,262.5 367.4,262.6 372.7,262.7 378.1,262.9 383.5,263.0 388.8,263.1 394.2,263.3 399.5,263.4 404.9,263.5 410.3,263.7 415.6,263.8 421.0,263.9 426.4,264.0 431.8,264.2 437.2,264.3 442.6,264.4 448.0,264.5 453.4,264.6 458.8,264.7 464.2,264.8 469.6,264.9 475.0,265.0 480.5,265.1 485.9,265.2 491.3,265.3 496.8,265.4 502.2,265.5 507.7,265.5 513.1,265.6 518.6,265.7 524.1,265.7 529.6,265.8 535.0,265.8 540.5,265.9 546.0,265.9 551.5,266.0 557.1,266.0 562.6,266.0 568.1,266.0 573.6,266.0 579.1,266.0 584.7,266.0 590.2,265.9 595.8,265.9 601.3,265.8 606.8,265.7 612.4,265.7 617.9,265.5 623.4,265.4 629.0,265.3 634.4,265.1 639.9,264.9 645.3,264.6 650.7,264.3 656.0,263.9 661.1,263.5 666.2,263.1 671.2,262.6 676.1,262.1 680.8,261.5 685.4,260.9 689.9,260.2 694.3,259.5 698.5,258.8 702.5,258.1 706.4,257.3 710.2,256.5 713.9,255.7 717.4,254.9 720.7,254.1 723.9,253.2 727.0,252.3 730.0,251.4 732.8,250.5 735.5,249.6 738.1,248.7 740.6,247.7 742.9,246.8 745.1,245.8 747.2,244.9 749.2,243.9 751.0,243.0 752.8,242.0 754.4,241.0 755.9,240.0 757.3,239.1 758.6,238.1 759.8,237.1 760.9,236.1 761.8,235.2 762.7,234.2 763.4,233.2 764.1,232.2 764.6,231.3 765.1,230.3 765.5,229.4 765.7,228.4 765.9,227.5 766.0,226.6 766.0,225.6 765.9,224.7 765.8,223.8 765.5,222.9 765.2,222.0 764.8,221.1 764.4,220.3 763.9,219.4 763.3,218.5 762.7,217.7 762.0,216.9 761.3,216.0 760.5,215.2 759.7,214.4 758.8,213.6 757.9,212.9 756.9,212.1 755.9,211.3 754.9,210.6 753.8,209.9 752.7,209.2 751.6,208.5 750.4,207.8 749.2,207.1 747.9,206.4 746.6,205.8 745.3,205.2 744.0,204.5 742.6,203.9 741.2,203.3 739.7,202.8 738.2,202.2 736.7,201.6 735.2,201.1 733.7,200.5 732.1,200.0 730.5,199.5 728.8,199.0 727.2,198.5 725.5,198.0 723.8,197.5 722.1,197.1 720.3,196.6 718.5,196.2 716.8,195.7 715.0,195.3 713.1,194.9 711.3,194.4 709.4,194.0 707.6,193.6 705.7,193.2 703.8,192.8 701.9,192.5 699.9,192.1 698.0,191.7 696.0,191.3 694.0,191.0 692.1,190.6 690.1,190.2 688.1,189.9 686.0,189.5 684.0,189.2 681.9,188.8 679.9,188.5 677.8,188.1 675.7,187.8 673.7,187.4 671.6,187.1 669.4,186.7 667.3,186.4 665.2,186.0 663.0,185.7 660.9,185.3 658.7,185.0 656.6,184.7 654.4,184.3 652.2,184.0 650.0,183.6 647.8,183.3 645.5,183.0 643.3,182.7 641.1,182.3 638.8,182.0 636.6,181.7 634.3,181.4 632.0,181.0 629.7,180.7 627.4,180.4 625.1,180.1 622.8,179.8 620.5,179.5 618.1,179.2 615.8,178.9 613.4,178.7 611.0,178.4 608.6,178.1 606.3,177.8 603.8,177.6 601.4,177.3 599.0,177.0 596.6,176.8 594.1,176.5 591.7,176.3 589.2,176.1 586.7,175.8 584.2,175.6 581.7,175.4 579.2,175.1 576.7,174.9 574.2,174.7 571.6,174.5 569.1,174.2 566.5,174.0 564.0,173.8 561.4,173.6 558.8,173.4 556.2,173.1 553.6,172.9 551.0,172.7 548.4,172.5 545.8,172.2 543.1,172.0 540.5,171.8 537.9,171.5 535.2,171.3 532.6,171.1 529.9,170.8 527.2,170.6 524.6,170.3 521.9,170.1 519.2,169.8 516.5,169.5 513.9,169.3 511.2,169.0 508.5,168.7 505.8,168.4 503.1,168.1 500.4,167.8 497.7,167.5 495.0,167.2 492.3,166.9 489.6,166.6 486.9,166.2 484.1,165.9 481.4,165.5 478.7,165.2 476.0,164.8 473.3,164.5 470.5,164.1 467.8,163.7 465.1,163.3 462.3,162.9 459.6,162.5 456.9,162.0 454.2,161.6 451.4,161.2 448.7,160.7 446.0,160.3 443.3,159.8 440.6,159.3 437.9,158.8 435.2,158.3 432.5,157.8 429.8,157.3 427.2,156.8 424.5,156.2 421.9,155.7 419.2,155.1 416.6,154.6 414.0,154.0 411.5,153.4 408.9,152.8 406.4,152.2 403.9,151.6 401.4,151.0 398.9,150.3 396.4,149.7 394.0,149.0 391.6,148.4 389.3,147.7 386.9,147.0 384.6,146.4 382.4,145.7 380.1,145.0 377.9,144.3 375.7,143.5 373.6,142.8 371.5,142.1 369.4,141.4 367.4,140.6 365.4,139.9 363.4,139.1 361.5,138.3 359.6,137.6 357.8,136.8 356.0,136.0 354.3,135.2 352.6,134.4 350.9,133.6 349.3,132.8 347.7,131.9 346.2,131.1 344.7,130.3 343.3,129.5 341.9,128.6 340.6,127.8 339.3,127.0 338.1,126.1 336.9,125.3 335.8,124.4 334.7,123.6 333.7,122.8 332.7,121.9 331.8,121.1 330.9,120.3 330.1,119.4 329.3,118.6 328.5,117.8 327.8,117.0 327.2,116.2 326.5,115.4 326.0,114.6 325.4,113.8 325.0,113.0 324.5,112.2 324.1,111.5 323.7,110.7 323.4,110.0 323.1,109.3 322.8,108.5 322.6,107.8 322.4,107.1 322.3,106.5 322.1,105.8 322.0,105.1 321.9,104.5 321.9,103.9 321.8,103.3 321.8,102.7 321.8,102.1 321.8,101.6 321.8,101.0 321.9,100.5 322.0,100.0 322.0,99.5 322.1,99.1 322.2,98.6 322.4,98.2 322.5,97.8 322.6,97.4 322.7,97.0 322.9,96.6 323.0,96.2 323.2,95.9 323.3,95.6 323.5,95.3 323.6,95.0 323.8,94.7 324.0,94.4 324.1,94.2 324.3,93.9 324.4,93.7 324.6,93.5 324.7,93.3 324.8,93.1 324.9,92.9 325.1,92.8 325.2,92.6 325.3,92.4 325.3,92.3 325.4,92.2 325.5,92.1 325.5,92.0 325.5,91.8 325.5,91.8 325.5,91.7 325.5,91.6 325.4,91.5 325.3,91.4 325.2,91.4 325.1,91.3 325.0,91.2 324.8,91.2 324.6,91.1 324.4,91.1 324.1,91.0 323.8,91.0 323.5,91.0 323.2,90.9 322.8,90.9 322.4,90.9 322.0,90.8 321.5,90.8 321.0,90.8 320.5,90.7 320.0,90.7 319.4,90.7 318.8,90.6 318.1,90.6 317.4,90.6 316.7,90.5 316.0,90.5 315.2,90.5 314.3,90.4 313.5,90.4 312.6,90.3 311.7,90.2 310.7,90.2 309.7,90.1 308.7,90.0 307.7,89.9 306.6,89.8 305.5,89.7 304.4,89.6 303.3,89.4 302.1,89.3 300.9,89.1 299.8,88.9 298.5,88.8 297.3,88.6 296.1,88.4 294.9,88.1 293.6,87.9 292.4,87.7 291.1,87.4 289.8,87.2 288.6,86.9 287.3,86.6 286.0,86.3 284.7,86.0 283.4,85.7 282.1,85.3 280.8,85.0 279.6,84.6 278.3,84.2 277.0,83.8 275.8,83.4 274.5,83.0 273.3,82.6 272.0,82.2 270.8,81.7 269.6,81.2 268.4,80.8 267.3,80.3 266.1,79.8 265.0,79.3 263.9,78.7 262.8,78.2 261.7,77.6 260.7,77.1 259.7,76.5 258.8,75.9 257.8,75.3 257.0,74.7 256.1,74.1 255.3,73.5 254.5,72.9 253.8,72.3 253.1,71.6 252.5,71.0 251.9,70.4 251.3,69.7 250.8,69.1 250.3,68.5 249.8,67.9 249.4,67.2 249.1,66.6 248.7,66.0 248.4,65.4 248.2,64.8 247.9,64.2 247.7,63.6 247.6,63.0 247.4,62.4 247.3,61.8 247.2,61.2 247.2,60.7 247.2,60.1 247.2,59.6 247.2,59.1 247.3,58.5 247.3,58.0 247.4,57.5 247.5,57.0 247.6,56.6 247.8,56.1 248.0,55.7 248.1,55.2 248.3,54.8 248.5,54.4 248.7,54.0"/>
<line x1="606" y1="42" x2="628" y2="42" stroke="#0f62fe" stroke-width="2.2"/>
<text x="634" y="46" font-family="Arial" font-size="12">y_m</text>
</svg>