<svg xmlns="http://www.w3.org/2000/svg" width="820" height="320" viewBox="0 0 820 320">
<rect width="100%" height="100%" fill="#ffffff"/>
<text x="54" y="28" font-family="Arial" font-size="18" font-weight="700">Body Rates</text>
<line x1="54" y1="266" x2="766" y2="266" stroke="#1f2933"/>
<line x1="54" y1="54" x2="54" y2="266" stroke="#1f2933"/>
<text x="54" y="306" font-family="Arial" font-size="12">time (s)</text>
<text x="596" y="306" font-family="Arial" font-size="12">rate (deg/s)</text>
<text x="58" y="68" font-family="Arial" font-size="11">64.3</text>
<text x="58" y="260" font-family="Arial" font-size="11">-110</text>
<polyline fill="none" stroke="#0f62fe" stroke-width="2.2" points="54.0,132.0 55.3,78.6 56.6,132.0 57.9,81.6 59.2,135.0 60.5,120.4 61.8,171.0 63.1,117.6 64.4,157.3 65.7,103.9 67.0,157.3 68.3,109.6 69.6,163.0 71.0,109.6 72.3,163.0 73.6,125.5 74.9,178.9 76.2,125.5 77.5,178.9 78.8,125.5 80.1,178.9 81.4,129.8 82.7,183.2 84.0,144.4 85.3,131.0 86.6,184.4 87.9,133.0 89.2,186.4 90.5,136.4 91.8,189.8 93.1,144.5 94.4,197.9 95.7,144.5 97.0,197.9 98.3,144.5 99.6,197.9 100.9,144.5 102.2,197.9 103.6,144.5 104.9,197.9 106.2,144.5 107.5,197.9 108.8,144.5 110.1,197.9 111.4,144.5 112.7,197.9 114.0,144.5 115.3,197.9 116.6,144.5 117.9,197.9 119.2,144.5 120.5,197.9 121.8,144.5 123.1,197.9 124.4,144.5 125.7,197.9 127.0,144.5 128.3,197.9 129.6,144.5 130.9,197.9 132.2,144.5 133.5,197.9 134.8,144.5 136.2,197.9 137.5,144.5 138.8,197.9 140.1,144.5 141.4,197.9 142.7,144.5 144.0,197.9 145.3,144.5 146.6,197.9 147.9,144.5 149.2,197.9 150.5,144.5 151.8,197.9 153.1,144.5 154.4,197.9 155.7,144.5 157.0,197.9 158.3,144.5 159.6,197.9 160.9,144.5 162.2,197.9 163.5,144.5 164.8,197.9 166.1,144.5 167.5,197.9 168.8,144.5 170.1,197.9 171.4,144.5 172.7,197.9 174.0,144.5 175.3,197.9 176.6,144.5 177.9,197.9 179.2,144.5 180.5,197.9 181.8,144.5 183.1,197.9 184.4,144.5 185.7,197.9 187.0,144.5 188.3,197.9 189.6,144.5 190.9,197.9 192.2,144.5 193.5,197.9 194.8,144.5 196.1,197.9 197.4,144.5 198.7,197.9 200.1,144.5 201.4,197.9 202.7,144.5 204.0,190.9 205.3,137.5 206.6,188.7 207.9,135.2 209.2,173.9 210.5,120.5 211.8,171.5 213.1,118.0 214.4,163.6 215.7,110.1 217.0,151.9 218.3,165.2 219.6,111.7 220.9,165.2 222.2,111.7 223.5,160.8 224.8,107.4 226.1,155.8 227.4,123.4 228.7,172.3 230.0,122.3 231.3,167.2 232.7,120.9 234.0,164.6 235.3,118.1 236.6,159.4 237.9,115.1 239.2,157.3 240.5,111.0 241.8,153.3 243.1,126.5 244.4,169.1 245.7,125.6 247.0,165.5 248.3,123.9 249.6,162.0 250.9,121.6 252.2,159.9 253.5,119.9 254.8,156.3 256.1,117.9 257.4,154.4 258.7,116.2 260.0,151.2 261.3,130.3 262.6,164.5 263.9,130.0 265.3,163.3 266.6,129.3 267.9,161.0 269.2,128.3 270.5,159.4 271.8,127.0 273.1,156.7 274.4,125.2 275.7,153.6 277.0,123.0 278.3,151.1 279.6,120.0 280.9,147.2 282.2,116.4 283.5,142.7 284.8,112.3 286.1,138.4 287.4,108.5 288.7,134.8 290.0,106.4 291.3,133.2 292.6,116.2 293.9,144.9 295.2,120.3 296.5,147.7 297.9,123.5 299.2,147.4 300.5,122.7 301.8,143.5 303.1,118.5 304.4,142.8 305.7,119.4 307.0,143.4 308.3,120.9 309.6,141.7 310.9,119.4 312.2,142.7 313.5,121.5 314.8,137.8 316.1,115.6 317.4,138.0 318.7,117.1 320.0,139.6 321.3,119.0 322.6,142.5 323.9,125.0 325.2,140.2 326.5,118.7 327.8,139.5 329.2,117.3 330.5,139.0 331.8,119.8 333.1,146.1 334.4,129.9 335.7,136.3 337.0,111.1 338.3,129.8 339.6,120.7 340.9,145.4 342.2,128.2 343.5,145.4 344.8,125.0 346.1,145.3 347.4,121.4 348.7,139.1 350.0,116.6 351.3,137.9 352.6,119.2 353.9,140.3 355.2,119.5 356.5,135.8 357.8,112.1 359.1,128.3 360.4,125.2 361.8,135.6 363.1,115.8 364.4,133.1 365.7,112.1 367.0,125.8 368.3,114.6 369.6,131.2 370.9,112.3 372.2,130.0 373.5,114.1 374.8,132.1 376.1,114.8 377.4,129.6 378.7,109.4 380.0,122.9 381.3,103.2 382.6,116.8 383.9,108.2 385.2,123.1 386.5,105.6 387.8,121.6 389.1,105.3 390.4,122.3 391.7,106.8 393.0,119.4 394.4,102.7 395.7,119.8 397.0,104.0 398.3,118.1 399.6,101.1 400.9,117.8 402.2,101.0 403.5,117.9 404.8,100.7 406.1,117.8 407.4,100.3 408.7,117.7 410.0,99.9 411.3,117.6 412.6,99.6 413.9,117.5 415.2,99.1 416.5,117.4 417.8,98.6 419.1,117.1 420.4,97.8 421.7,116.7 423.0,97.0 424.3,116.1 425.6,96.1 427.0,115.4 428.3,95.2 429.6,114.7 430.9,94.3 432.2,114.0 433.5,93.6 434.8,113.3 436.1,92.9 437.4,112.6 438.7,92.4 440.0,112.0 441.3,92.0 442.6,111.3 443.9,91.6 445.2,110.7 446.5,91.4 447.8,110.2 449.1,92.4 450.4,111.2 451.7,92.8 453.0,111.1 454.3,93.1 455.6,111.0 456.9,93.3 458.2,111.1 459.6,93.7 460.9,111.3 462.2,94.2 463.5,111.7 464.8,94.7 466.1,112.2 467.4,95.3 468.7,112.8 470.0,95.7 471.3,113.3 472.6,96.1 473.9,113.7 475.2,96.3 476.5,114.0 477.8,96.3 479.1,114.1 480.4,96.1 481.7,114.1 483.0,95.9 484.3,114.0 485.6,95.7 486.9,113.8 488.2,95.4 489.5,113.5 490.8,95.1 492.2,113.1 493.5,94.7 494.8,112.6 496.1,94.3 497.4,111.9 498.7,93.8 500.0,111.3 501.3,93.3 502.6,110.5 503.9,92.8 505.2,109.8 506.5,93.9 507.8,111.2 509.1,94.1 510.4,110.9 511.7,93.9 513.0,110.6 514.3,93.8 515.6,110.5 516.9,93.8 518.2,110.6 519.5,94.2 520.8,111.0 522.1,94.8 523.5,111.9 524.8,95.8 526.1,113.0 527.4,97.0 528.7,114.5 530.0,98.4 531.3,116.0 532.6,99.7 533.9,117.4 535.2,100.9 536.5,118.6 537.8,101.8 539.1,119.6 540.4,102.5 541.7,118.9 543.0,101.7 544.3,120.7 545.6,104.3 546.9,117.8 548.2,100.0 549.5,119.9 550.8,103.6 552.1,124.6 553.4,108.6 554.7,113.7 556.1,100.1 557.4,121.8 558.7,104.8 560.0,126.1 561.3,108.7 562.6,120.6 563.9,100.5 565.2,120.7 566.5,101.9 567.8,122.1 569.1,103.1 570.4,123.0 571.7,103.8 573.0,123.3 574.3,103.9 575.6,122.8 576.9,103.2 578.2,121.6 579.5,101.9 580.8,119.6 582.1,99.7 583.4,116.7 584.7,96.8 586.0,113.2 587.3,103.3 588.7,121.9 590.0,103.2 591.3,119.5 592.6,100.4 593.9,116.3 595.2,97.1 596.5,112.7 597.8,96.9 599.1,113.4 600.4,94.6 601.7,110.5 603.0,99.6 604.3,118.0 605.6,100.1 606.9,117.2 608.2,99.0 609.5,116.4 610.8,98.1 612.1,115.8 613.4,97.4 614.7,115.4 616.0,97.0 617.3,115.2 618.6,96.7 619.9,114.9 621.3,96.4 622.6,114.6 623.9,96.1 625.2,114.0 626.5,95.5 627.8,112.9 629.1,94.5 630.4,111.3 631.7,92.9 633.0,109.0 634.3,97.2 635.6,114.3 636.9,97.0 638.2,112.1 639.5,95.0 640.8,109.4 642.1,92.8 643.4,106.9 644.7,98.3 646.0,114.4 647.3,100.4 648.6,112.1 649.9,97.6 651.2,111.7 652.5,98.5 653.9,113.0 655.2,100.5 656.5,114.4 657.8,102.1 659.1,112.6 660.4,99.0 661.7,113.4 663.0,100.7 664.3,115.3 665.6,102.3 666.9,115.5 668.2,101.5 669.5,115.8 670.8,101.6 672.1,116.1 673.4,101.5 674.7,116.1 676.0,101.0 677.3,115.9 678.6,100.5 679.9,115.6 681.2,100.0 682.5,115.2 683.8,99.4 685.2,114.8 686.5,98.8 687.8,114.3 689.1,98.1 690.4,113.6 691.7,97.1 693.0,112.6 694.3,95.9 695.6,111.3 696.9,94.4 698.2,109.7 699.5,93.8 700.8,109.4 702.1,93.6 703.4,109.2 704.7,93.0 706.0,108.5 707.3,94.0 708.6,110.0 709.9,93.7 711.2,109.4 712.5,93.5 713.8,109.5 715.1,94.2 716.4,110.7 717.8,96.2 719.1,113.2 720.4,99.3 721.7,116.8 723.0,103.2 724.3,113.2 725.6,97.2 726.9,113.6 728.2,98.9 729.5,115.4 730.8,100.4 732.1,116.7 733.4,101.5 734.7,118.0 736.0,103.1 737.3,118.7 738.6,103.7 739.9,118.7 741.2,103.5 742.5,120.6 743.8,105.8 745.1,116.2 746.4,99.2 747.7,115.8 749.0,100.2 750.4,117.1 751.7,101.3 753.0,118.0 754.3,101.8 755.6,118.2 756.9,101.7 758.2,117.6 759.5,100.8 760.8,116.2 762.1,99.0 763.4,113.8 764.7,96.3 766.0,110.3"/>
<line x1="606" y1="42" x2="628" y2="42" stroke="#0f62fe" stroke-width="2.2"/>
<text x="634" y="46" font-family="Arial" font-size="12">p_dps</text>
<polyline fill="none" stroke="#24a148" stroke-width="2.2" points="54.0,132.0 55.3,139.1 56.6,122.4 57.9,125.6 59.2,135.2 60.5,129.0 61.8,125.9 63.1,124.9 64.4,125.4 65.7,128.6 67.0,131.9 68.3,128.8 69.6,126.7 71.0,128.8 72.3,132.0 73.6,128.5 74.9,129.1 76.2,130.3 77.5,129.3 78.8,130.3 80.1,129.9 81.4,131.1 82.7,130.2 84.0,129.7 85.3,133.0 86.6,131.4 87.9,128.8 89.2,133.7 90.5,133.4 91.8,130.4 93.1,134.0 94.4,135.0 95.7,137.9 97.0,136.4 98.3,138.0 99.6,135.6 100.9,136.9 102.2,135.4 103.6,137.3 104.9,135.9 106.2,137.5 107.5,135.7 108.8,136.9 110.1,135.0 111.4,136.1 112.7,134.3 114.0,135.4 115.3,133.6 116.6,134.6 117.9,132.8 119.2,133.6 120.5,131.9 121.8,132.6 123.1,131.0 124.4,131.7 125.7,130.2 127.0,130.9 128.3,129.5 129.6,130.3 130.9,129.0 132.2,129.9 133.5,128.8 134.8,129.8 136.2,128.8 137.5,130.0 138.8,129.2 140.1,130.5 141.4,130.0 142.7,131.4 144.0,131.1 145.3,132.7 146.6,132.5 147.9,134.4 149.2,134.4 150.5,136.4 151.8,136.5 153.1,138.7 154.4,138.9 155.7,141.3 157.0,141.6 158.3,144.0 159.6,144.4 160.9,147.0 162.2,147.4 163.5,150.0 164.8,150.4 166.1,153.1 167.5,153.5 168.8,156.2 170.1,156.6 171.4,159.2 172.7,159.6 174.0,162.2 175.3,162.6 176.6,165.1 177.9,165.5 179.2,168.1 180.5,168.5 181.8,171.1 183.1,171.6 184.4,174.2 185.7,175.0 187.0,177.8 188.3,178.8 189.6,188.8 190.9,190.2 192.2,217.6 193.5,215.1 194.8,234.2 196.1,218.1 197.4,221.5 198.7,214.5 200.1,217.1 201.4,213.0 202.7,212.4 204.0,209.7 205.3,206.8 206.6,203.3 207.9,201.1 209.2,198.1 210.5,195.7 211.8,192.6 213.1,191.2 214.4,188.5 215.7,186.7 217.0,184.1 218.3,182.7 219.6,182.0 220.9,180.4 222.2,179.9 223.5,178.7 224.8,178.5 226.1,177.8 227.4,177.9 228.7,177.6 230.0,177.9 231.3,177.7 232.7,177.8 234.0,177.6 235.3,177.9 236.6,177.6 237.9,177.6 239.2,177.3 240.5,177.3 241.8,176.9 243.1,176.7 244.4,176.1 245.7,176.1 247.0,175.7 248.3,175.6 249.6,175.3 250.9,175.3 252.2,175.1 253.5,175.2 254.8,174.9 256.1,175.0 257.4,174.8 258.7,174.9 260.0,174.7 261.3,174.7 262.6,174.7 263.9,174.7 265.3,174.6 266.6,174.7 267.9,174.6 269.2,174.6 270.5,174.4 271.8,174.5 273.1,174.3 274.4,174.3 275.7,174.2 277.0,174.2 278.3,174.0 279.6,174.1 280.9,173.9 282.2,174.0 283.5,173.8 284.8,173.8 286.1,173.7 287.4,173.7 288.7,173.6 290.0,173.6 291.3,173.6 292.6,173.6 293.9,173.0 295.2,171.2 296.5,169.1 297.9,167.1 299.2,165.4 300.5,164.0 301.8,162.6 303.1,161.3 304.4,159.6 305.7,158.2 307.0,156.6 308.3,155.3 309.6,154.0 310.9,152.9 312.2,151.6 313.5,150.6 314.8,149.6 316.1,148.6 317.4,147.6 318.7,146.8 320.0,145.8 321.3,145.1 322.6,144.5 323.9,144.0 325.2,143.5 326.5,142.9 327.8,141.9 329.2,141.2 330.5,140.6 331.8,140.6 333.1,141.2 334.4,140.7 335.7,140.1 337.0,139.4 338.3,138.3 339.6,137.9 340.9,138.1 342.2,138.4 343.5,138.7 344.8,138.2 346.1,137.5 347.4,137.1 348.7,136.3 350.0,136.2 351.3,136.7 352.6,136.8 353.9,136.9 355.2,136.4 356.5,135.5 357.8,135.0 359.1,134.7 360.4,135.5 361.8,136.4 363.1,136.6 364.4,136.3 365.7,135.4 367.0,134.1 368.3,133.7 369.6,133.4 370.9,134.1 372.2,136.1 373.5,137.4 374.8,138.1 376.1,137.3 377.4,135.7 378.7,134.0 380.0,133.0 381.3,132.7 382.6,132.6 383.9,132.8 385.2,133.3 386.5,134.2 387.8,135.3 389.1,136.4 390.4,137.6 391.7,138.4 393.0,139.0 394.4,139.1 395.7,139.0 397.0,138.5 398.3,137.9 399.6,137.1 400.9,136.2 402.2,135.3 403.5,134.5 404.8,133.8 406.1,133.1 407.4,132.7 408.7,132.2 410.0,131.9 411.3,131.6 412.6,131.4 413.9,131.1 415.2,131.0 416.5,130.8 417.8,130.8 419.1,130.6 420.4,130.8 421.7,130.8 423.0,131.2 424.3,131.5 425.6,132.1 427.0,132.8 428.3,133.7 429.6,134.7 430.9,135.9 432.2,137.2 433.5,138.7 434.8,140.2 436.1,141.9 437.4,143.7 438.7,145.5 440.0,147.5 441.3,149.6 442.6,151.7 443.9,153.9 445.2,156.3 446.5,158.5 447.8,161.0 449.1,163.3 450.4,165.7 451.7,167.3 453.0,168.8 454.3,169.8 455.6,170.8 456.9,171.3 458.2,172.0 459.6,172.3 460.9,172.7 462.2,172.8 463.5,173.1 464.8,173.1 466.1,173.3 467.4,173.2 468.7,173.4 470.0,173.3 471.3,173.4 472.6,173.2 473.9,173.3 475.2,173.2 476.5,173.2 477.8,173.1 479.1,173.1 480.4,173.0 481.7,173.0 483.0,172.9 484.3,173.0 485.6,172.9 486.9,173.0 488.2,172.9 489.5,173.0 490.8,172.9 492.2,173.0 493.5,173.0 494.8,173.1 496.1,173.0 497.4,173.2 498.7,173.1 500.0,173.3 501.3,173.2 502.6,173.5 503.9,173.4 505.2,173.6 506.5,173.6 507.8,173.8 509.1,173.8 510.4,174.0 511.7,173.9 513.0,174.2 514.3,174.1 515.6,174.4 516.9,174.2 518.2,174.5 519.5,174.4 520.8,174.6 522.1,174.4 523.5,174.6 524.8,174.4 526.1,174.5 527.4,174.3 528.7,174.3 530.0,174.0 531.3,174.0 532.6,173.7 533.9,173.6 535.2,173.3 536.5,173.2 537.8,173.0 539.1,172.8 540.4,172.6 541.7,172.6 543.0,172.5 544.3,172.6 545.6,172.5 546.9,172.6 548.2,172.5 549.5,172.7 550.8,172.7 552.1,172.8 553.4,172.7 554.7,172.8 556.1,172.9 557.4,173.1 558.7,172.9 560.0,173.0 561.3,172.9 562.6,173.0 563.9,172.9 565.2,173.0 566.5,172.9 567.8,173.1 569.1,173.0 570.4,173.1 571.7,172.9 573.0,173.0 574.3,172.9 575.6,173.0 576.9,172.9 578.2,173.0 579.5,172.8 580.8,173.0 582.1,172.9 583.4,173.0 584.7,172.9 586.0,173.1 587.3,173.0 588.7,173.1 590.0,172.9 591.3,173.0 592.6,172.9 593.9,173.0 595.2,172.9 596.5,173.1 597.8,173.0 599.1,173.2 600.4,173.1 601.7,173.1 603.0,172.7 604.3,172.3 605.6,171.6 606.9,171.1 608.2,170.4 609.5,170.0 610.8,169.5 612.1,169.2 613.4,168.8 614.7,168.7 616.0,168.4 617.3,168.4 618.6,168.2 619.9,168.3 621.3,168.2 622.6,168.3 623.9,168.4 625.2,168.6 626.5,168.8 627.8,169.2 629.1,169.5 630.4,170.0 631.7,170.4 633.0,171.1 634.3,171.5 635.6,172.1 636.9,172.2 638.2,172.7 639.5,172.8 640.8,173.3 642.1,173.4 643.4,174.1 644.7,174.2 646.0,174.7 647.3,174.6 648.6,175.1 649.9,175.0 651.2,175.6 652.5,175.5 653.9,175.9 655.2,175.7 656.5,175.9 657.8,175.6 659.1,175.6 660.4,175.3 661.7,175.4 663.0,175.0 664.3,174.9 665.6,174.4 666.9,174.3 668.2,173.9 669.5,173.7 670.8,173.3 672.1,173.1 673.4,172.8 674.7,172.7 676.0,172.5 677.3,172.4 678.6,172.2 679.9,172.2 681.2,172.1 682.5,172.1 683.8,172.0 685.2,172.1 686.5,172.0 687.8,172.1 689.1,172.1 690.4,172.2 691.7,172.2 693.0,172.4 694.3,172.4 695.6,172.6 696.9,172.6 698.2,172.9 699.5,173.0 700.8,173.4 702.1,173.4 703.4,173.9 704.7,173.9 706.0,174.5 707.3,174.5 708.6,175.1 709.9,175.1 711.2,175.7 712.5,175.6 713.8,176.2 715.1,176.1 716.4,176.6 717.8,176.4 719.1,176.7 720.4,176.3 721.7,176.3 723.0,175.8 724.3,175.6 725.6,175.2 726.9,175.0 728.2,174.5 729.5,174.3 730.8,173.8 732.1,173.5 733.4,173.1 734.7,172.9 736.0,172.6 737.3,172.5 738.6,172.4 739.9,172.4 741.2,172.2 742.5,172.3 743.8,172.2 745.1,172.3 746.4,172.2 747.7,172.4 749.0,172.4 750.4,172.2 751.7,171.6 753.0,171.1 754.3,170.4 755.6,169.9 756.9,169.3 758.2,169.0 759.5,168.6 760.8,168.4 762.1,168.2 763.4,168.3 764.7,168.4 766.0,168.7"/>
<line x1="606" y1="60" x2="628" y2="60" stroke="#24a148" stroke-width="2.2"/>
<text x="634" y="64" font-family="Arial" font-size="12">q_dps</text>
<polyline fill="none" stroke="#da1e28" stroke-width="2.2" points="54.0,132.0 55.3,185.5 56.6,238.9 57.9,266.0 59.2,212.6 60.5,159.1 61.8,105.7 63.1,93.6 64.4,147.1 65.7,200.5 67.0,178.7 68.3,125.2 69.6,143.2 71.0,196.6 72.3,143.2 73.6,156.4 74.9,178.7 76.2,125.3 77.5,134.7 78.8,187.0 80.1,133.5 81.4,149.6 82.7,176.6 84.0,123.2 85.3,134.1 86.6,178.9 87.9,125.5 89.2,142.2 90.5,151.8 91.8,141.5 93.1,129.2 94.4,120.7 95.7,117.4 97.0,119.6 98.3,123.2 99.6,126.6 100.9,127.6 102.2,127.8 103.6,127.0 104.9,127.2 106.2,127.5 107.5,128.7 108.8,129.6 110.1,130.8 111.4,131.3 112.7,132.1 114.0,132.5 115.3,133.3 116.6,133.7 117.9,134.5 119.2,134.8 120.5,135.6 121.8,135.6 123.1,136.3 124.4,136.2 125.7,136.7 127.0,136.4 128.3,136.8 129.6,136.4 130.9,136.7 132.2,136.1 133.5,136.2 134.8,135.5 136.2,135.5 137.5,134.6 138.8,134.6 140.1,133.6 141.4,133.5 142.7,132.5 144.0,132.3 145.3,131.2 146.6,131.0 147.9,130.0 149.2,129.8 150.5,128.8 151.8,128.6 153.1,127.7 154.4,127.5 155.7,126.8 157.0,126.7 158.3,126.1 159.6,126.0 160.9,125.6 162.2,125.6 163.5,125.4 164.8,125.4 166.1,125.4 167.5,125.5 168.8,125.7 170.1,125.8 171.4,126.1 172.7,126.3 174.0,126.8 175.3,127.0 176.6,127.5 177.9,127.8 179.2,128.3 180.5,128.6 181.8,129.1 183.1,129.3 184.4,129.7 185.7,129.8 187.0,130.1 188.3,123.3 189.6,129.2 190.9,98.7 192.2,129.0 193.5,83.8 194.8,137.3 196.1,100.9 197.4,132.7 198.7,84.4 200.1,137.9 201.4,99.4 202.7,88.2 204.0,132.4 205.3,90.0 206.6,101.9 207.9,59.1 209.2,112.5 210.5,95.3 211.8,68.9 213.1,122.0 214.4,102.7 215.7,54.0 217.0,99.3 218.3,85.1 219.6,116.2 220.9,92.5 222.2,96.9 223.5,92.3 224.8,103.3 226.1,82.0 227.4,116.6 228.7,100.1 230.0,89.4 231.3,116.5 232.7,93.9 234.0,106.8 235.3,84.6 236.6,117.9 237.9,101.7 239.2,97.1 240.5,109.0 241.8,89.5 243.1,119.4 244.4,104.5 245.7,97.5 247.0,114.5 248.3,90.2 249.6,117.2 250.9,99.3 252.2,113.0 253.5,91.8 254.8,119.3 256.1,102.7 257.4,110.4 258.7,100.1 260.0,117.6 261.3,96.9 262.6,119.8 263.9,101.4 265.3,115.5 266.6,97.0 267.9,120.0 269.2,103.9 270.5,113.7 271.8,102.5 273.1,117.9 274.4,99.7 275.7,122.1 277.0,109.1 278.3,112.1 279.6,110.6 280.9,114.6 282.2,110.6 283.5,117.6 284.8,115.6 286.1,119.2 287.4,123.8 288.7,132.4 290.0,138.3 291.3,145.1 292.6,147.3 293.9,148.0 295.2,142.9 296.5,137.9 297.9,129.4 299.2,123.0 300.5,115.1 301.8,111.2 303.1,114.6 304.4,113.1 305.7,112.5 307.0,114.0 308.3,111.0 309.6,113.8 310.9,110.2 312.2,113.2 313.5,109.4 314.8,112.2 316.1,109.1 317.4,111.7 318.7,108.4 320.0,111.0 321.3,130.5 322.6,163.0 323.9,154.4 325.2,119.9 326.5,87.0 327.8,87.8 329.2,109.9 330.5,148.3 331.8,190.3 333.1,189.8 334.4,154.6 335.7,101.9 337.0,86.0 338.3,103.1 339.6,139.3 340.9,185.9 342.2,187.5 343.5,159.4 344.8,111.7 346.1,80.5 347.4,84.2 348.7,116.5 350.0,162.4 351.3,177.6 352.6,162.7 353.9,131.1 355.2,89.1 356.5,88.3 357.8,115.2 359.1,162.0 360.4,183.5 361.8,177.3 363.1,150.8 364.4,115.6 365.7,94.1 367.0,107.6 368.3,112.2 369.6,141.9 370.9,184.2 372.2,197.1 373.5,184.5 374.8,156.6 376.1,123.8 377.4,102.9 378.7,111.3 380.0,117.2 381.3,118.1 382.6,124.0 383.9,132.3 385.2,142.3 386.5,150.5 387.8,158.3 389.1,162.5 390.4,165.2 391.7,164.1 393.0,161.8 394.4,157.1 395.7,152.8 397.0,147.0 398.3,142.2 399.6,137.0 400.9,133.7 402.2,130.1 403.5,128.5 404.8,126.3 406.1,125.8 407.4,124.5 408.7,124.7 410.0,123.8 411.3,124.3 412.6,123.5 413.9,124.2 415.2,123.7 416.5,124.7 417.8,124.4 419.1,125.8 420.4,126.1 421.7,128.1 423.0,128.9 424.3,131.4 425.6,132.7 427.0,135.6 428.3,137.2 429.6,140.5 430.9,142.3 432.2,145.7 433.5,147.6 434.8,150.9 436.1,152.8 437.4,156.1 438.7,158.0 440.0,161.2 441.3,163.0 442.6,166.0 443.9,167.8 445.2,170.6 446.5,172.2 447.8,174.8 449.1,176.2 450.4,178.2 451.7,179.1 453.0,180.6 454.3,181.0 455.6,182.1 456.9,182.1 458.2,182.6 459.6,182.2 460.9,182.2 462.2,181.3 463.5,180.7 464.8,179.3 466.1,178.2 467.4,176.3 468.7,175.0 470.0,172.9 471.3,171.4 472.6,169.3 473.9,168.0 475.2,166.1 476.5,165.2 477.8,163.7 479.1,163.2 480.4,162.1 481.7,162.0 483.0,161.4 484.3,161.8 485.6,161.6 486.9,162.4 488.2,162.5 489.5,163.7 490.8,164.3 492.2,165.8 493.5,166.8 494.8,168.7 496.1,170.0 497.4,172.3 498.7,173.9 500.0,176.6 501.3,178.5 502.6,181.4 503.9,183.6 505.2,186.7 506.5,189.0 507.8,192.0 509.1,193.8 510.4,196.4 511.7,197.8 513.0,199.9 514.3,200.8 515.6,202.4 516.9,202.6 518.2,203.5 519.5,202.9 520.8,202.6 522.1,200.9 523.5,199.5 524.8,196.5 526.1,193.8 527.4,189.6 528.7,185.9 530.0,180.8 531.3,176.4 532.6,170.9 533.9,166.4 535.2,160.9 536.5,156.7 537.8,151.7 539.1,151.1 540.4,154.3 541.7,157.2 543.0,158.7 544.3,161.4 545.6,163.0 546.9,165.6 548.2,167.4 549.5,170.3 550.8,172.0 552.1,174.8 553.4,173.3 554.7,172.5 556.1,171.6 557.4,171.6 558.7,169.8 560.0,170.3 561.3,168.3 562.6,168.9 563.9,167.5 565.2,168.5 566.5,166.9 567.8,168.1 569.1,166.5 570.4,168.0 571.7,166.5 573.0,168.0 574.3,166.7 575.6,168.3 576.9,167.2 578.2,169.0 579.5,168.0 580.8,169.9 582.1,169.1 583.4,171.1 584.7,170.6 586.0,172.6 587.3,172.3 588.7,173.7 590.0,173.2 591.3,174.9 592.6,174.5 593.9,176.2 595.2,175.9 596.5,177.6 597.8,177.4 599.1,178.8 600.4,178.5 601.7,180.0 603.0,179.7 604.3,180.7 605.6,179.9 606.9,181.1 608.2,180.2 609.5,181.4 610.8,180.5 612.1,181.6 613.4,180.6 614.7,181.8 616.0,180.6 617.3,181.9 618.6,180.7 619.9,182.0 621.3,180.8 622.6,182.1 623.9,181.1 625.2,182.4 626.5,181.5 627.8,182.9 629.1,182.2 630.4,183.6 631.7,183.1 633.0,184.6 634.3,185.3 635.6,188.9 636.9,192.9 638.2,199.4 639.5,205.9 640.8,214.1 642.1,221.9 643.4,230.7 644.7,238.6 646.0,246.1 647.3,251.0 648.6,255.0 649.9,256.8 651.2,258.0 652.5,256.9 653.9,255.1 655.2,250.9 656.5,245.9 657.8,238.8 659.1,231.3 660.4,222.7 661.7,214.6 663.0,205.9 664.3,198.2 665.6,190.2 666.9,183.5 668.2,176.9 669.5,172.0 670.8,167.3 672.1,164.3 673.4,161.3 674.7,159.9 676.0,158.3 677.3,158.0 678.6,157.3 679.9,157.9 681.2,157.8 682.5,158.9 683.8,159.2 685.2,160.8 686.5,161.5 687.8,163.5 689.1,164.8 690.4,167.5 691.7,169.4 693.0,172.8 694.3,175.6 695.6,180.1 696.9,183.9 698.2,189.5 699.5,194.5 700.8,201.1 702.1,207.0 703.4,214.2 704.7,220.5 706.0,227.9 707.3,234.0 708.6,240.8 709.9,245.6 711.2,250.7 712.5,253.5 713.8,256.1 715.1,255.9 716.4,255.1 717.8,251.2 719.1,246.3 720.4,238.3 721.7,229.6 723.0,218.2 724.3,206.6 725.6,194.2 726.9,183.5 728.2,172.7 729.5,163.9 730.8,155.1 732.1,153.5 733.4,156.2 734.7,158.7 736.0,159.5 737.3,161.4 738.6,162.6 739.9,164.7 741.2,165.9 742.5,168.2 743.8,169.5 745.1,171.9 746.4,173.7 747.7,176.8 749.0,174.6 750.4,175.2 751.7,174.5 753.0,175.2 754.3,174.4 755.6,175.3 756.9,174.7 758.2,175.8 759.5,175.3 760.8,176.6 762.1,176.4 763.4,177.8 764.7,177.8 766.0,179.5"/>
<line x1="606" y1="78" x2="628" y2="78" stroke="#da1e28" stroke-width="2.2"/>
<text x="634" y="82" font-family="Arial" font-size="12">r_dps</text>
</svg>