<svg xmlns="http://www.w3.org/2000/svg" width="820" height="320" viewBox="0 0 820 320">
<rect width="100%" height="100%" fill="#ffffff"/>
<text x="54" y="28" font-family="Arial" font-size="18" font-weight="700">Dynamic Pressure</text>
<line x1="54" y1="266" x2="766" y2="266" stroke="#1f2933"/>
<line x1="54" y1="54" x2="54" y2="266" stroke="#1f2933"/>
<text x="54" y="306" font-family="Arial" font-size="12">time (s)</text>
<text x="596" y="306" font-family="Arial" font-size="12">qbar (Pa)</text>
<text x="58" y="68" font-family="Arial" font-size="11">1.36e+03</text>
<text x="58" y="260" font-family="Arial" font-size="11">328</text>
<polyline fill="none" stroke="#0f62fe" stroke-width="2.2" points="54.0,86.9 55.3,89.9 56.6,92.2 57.9,93.6 59.2,94.3 60.5,94.9 61.8,95.3 63.1,95.7 64.4,95.9 65.7,96.0 67.0,96.0 68.3,95.9 69.6,95.9 71.0,95.7 72.3,95.5 73.6,95.3 74.9,95.1 76.2,94.9 77.5,94.6 78.8,94.2 80.1,93.9 81.4,93.6 82.7,93.2 84.0,92.9 85.3,92.5 86.6,92.0 87.9,91.8 89.2,91.3 90.5,90.8 91.8,90.5 93.1,90.1 94.4,89.7 95.7,89.2 97.0,88.7 98.3,88.2 99.6,87.7 100.9,87.1 102.2,86.7 103.6,86.1 104.9,85.7 106.2,85.2 107.5,84.8 108.8,84.4 110.1,84.1 111.4,83.7 112.7,83.5 114.0,83.2 115.3,83.0 116.6,82.7 117.9,82.6 119.2,82.4 120.5,82.2 121.8,82.1 123.1,81.9 124.4,81.7 125.7,81.6 127.0,81.4 128.3,81.2 129.6,81.0 130.9,80.8 132.2,80.4 133.5,80.2 134.8,79.8 136.2,79.4 137.5,79.0 138.8,78.5 140.1,78.0 141.4,77.5 142.7,77.0 144.0,76.5 145.3,75.8 146.6,75.3 147.9,74.7 149.2,74.1 150.5,73.5 151.8,72.9 153.1,72.3 154.4,71.8 155.7,71.2 157.0,70.6 158.3,70.1 159.6,69.6 160.9,69.0 162.2,68.5 163.5,68.0 164.8,67.5 166.1,67.0 167.5,66.5 168.8,65.9 170.1,65.4 171.4,64.8 172.7,64.3 174.0,63.6 175.3,63.0 176.6,62.3 177.9,61.7 179.2,60.9 180.5,60.2 181.8,59.4 183.1,58.6 184.4,57.8 185.7,57.1 187.0,56.3 188.3,55.6 189.6,54.9 190.9,54.6 192.2,54.0 193.5,54.4 194.8,54.8 196.1,56.5 197.4,58.4 198.7,61.4 200.1,64.5 201.4,68.5 202.7,72.8 204.0,77.4 205.3,82.5 206.6,87.7 207.9,93.1 209.2,98.4 210.5,103.8 211.8,109.4 213.1,114.8 214.4,120.3 215.7,125.7 217.0,131.0 218.3,136.0 219.6,140.7 220.9,145.0 222.2,149.0 223.5,152.7 224.8,155.9 226.1,158.8 227.4,161.4 228.7,163.7 230.0,165.7 231.3,167.4 232.7,168.9 234.0,170.3 235.3,171.4 236.6,172.5 237.9,173.4 239.2,174.3 240.5,175.1 241.8,176.0 243.1,176.9 244.4,177.8 245.7,178.8 247.0,179.8 248.3,180.8 249.6,182.0 250.9,183.1 252.2,184.4 253.5,185.7 254.8,187.1 256.1,188.5 257.4,189.9 258.7,191.4 260.0,193.0 261.3,194.5 262.6,196.1 263.9,197.6 265.3,199.1 266.6,200.6 267.9,202.1 269.2,203.4 270.5,204.8 271.8,206.0 273.1,207.2 274.4,208.3 275.7,209.3 277.0,210.3 278.3,211.2 279.6,212.0 280.9,212.8 282.2,213.4 283.5,214.0 284.8,214.6 286.1,215.3 287.4,216.1 288.7,216.9 290.0,217.8 291.3,218.7 292.6,219.6 293.9,220.6 295.2,221.6 296.5,222.6 297.9,223.5 299.2,224.5 300.5,225.5 301.8,226.5 303.1,227.5 304.4,228.4 305.7,229.3 307.0,230.2 308.3,231.0 309.6,231.8 310.9,232.6 312.2,233.2 313.5,233.8 314.8,234.3 316.1,234.8 317.4,235.2 318.7,235.5 320.0,235.7 321.3,235.9 322.6,236.1 323.9,236.1 325.2,236.1 326.5,236.0 327.8,236.0 329.2,235.9 330.5,235.9 331.8,235.8 333.1,235.8 334.4,235.7 335.7,235.7 337.0,235.8 338.3,235.9 339.6,236.0 340.9,236.3 342.2,236.5 343.5,236.9 344.8,237.3 346.1,237.7 347.4,238.3 348.7,238.9 350.0,239.5 351.3,240.2 352.6,240.9 353.9,241.6 355.2,242.4 356.5,243.2 357.8,244.0 359.1,244.8 360.4,245.6 361.8,246.4 363.1,247.1 364.4,247.8 365.7,248.5 367.0,249.2 368.3,249.8 369.6,250.5 370.9,251.1 372.2,251.6 373.5,252.0 374.8,252.3 376.1,252.6 377.4,252.9 378.7,253.2 380.0,253.5 381.3,253.7 382.6,253.9 383.9,254.0 385.2,254.2 386.5,254.3 387.8,254.3 389.1,254.3 390.4,254.3 391.7,254.2 393.0,254.1 394.4,254.0 395.7,253.8 397.0,253.5 398.3,253.3 399.6,252.9 400.9,252.6 402.2,252.2 403.5,251.8 404.8,251.4 406.1,250.9 407.4,250.4 408.7,249.8 410.0,249.3 411.3,248.7 412.6,248.0 413.9,247.4 415.2,246.8 416.5,246.1 417.8,245.5 419.1,244.9 420.4,244.3 421.7,243.7 423.0,243.2 424.3,242.8 425.6,242.3 427.0,242.0 428.3,241.7 429.6,241.5 430.9,241.3 432.2,241.3 433.5,241.3 434.8,241.4 436.1,241.6 437.4,241.9 438.7,242.2 440.0,242.6 441.3,243.1 442.6,243.6 443.9,244.2 445.2,244.8 446.5,245.5 447.8,246.1 449.1,246.8 450.4,247.4 451.7,248.1 453.0,248.7 454.3,249.2 455.6,249.8 456.9,250.3 458.2,250.7 459.6,251.0 460.9,251.3 462.2,251.6 463.5,251.7 464.8,251.8 466.1,251.8 467.4,251.7 468.7,251.5 470.0,251.3 471.3,251.0 472.6,250.7 473.9,250.4 475.2,250.0 476.5,249.7 477.8,249.4 479.1,249.1 480.4,248.8 481.7,248.5 483.0,248.3 484.3,248.1 485.6,248.1 486.9,248.0 488.2,248.1 489.5,248.1 490.8,248.3 492.2,248.4 493.5,248.6 494.8,248.9 496.1,249.2 497.4,249.5 498.7,249.8 500.0,250.1 501.3,250.5 502.6,250.9 503.9,251.2 505.2,251.6 506.5,251.9 507.8,252.3 509.1,252.6 510.4,252.8 511.7,253.1 513.0,253.3 514.3,253.5 515.6,253.6 516.9,253.7 518.2,253.8 519.5,253.8 520.8,253.8 522.1,253.7 523.5,253.7 524.8,253.5 526.1,253.4 527.4,253.2 528.7,253.0 530.0,252.7 531.3,252.4 532.6,252.1 533.9,251.8 535.2,251.5 536.5,251.1 537.8,250.8 539.1,250.4 540.4,250.0 541.7,249.6 543.0,249.2 544.3,248.8 545.6,248.4 546.9,247.9 548.2,247.5 549.5,247.0 550.8,246.6 552.1,246.1 553.4,245.6 554.7,245.2 556.1,244.7 557.4,244.3 558.7,244.0 560.0,243.7 561.3,243.4 562.6,243.2 563.9,243.0 565.2,242.9 566.5,242.9 567.8,242.9 569.1,243.1 570.4,243.2 571.7,243.5 573.0,243.8 574.3,244.1 575.6,244.5 576.9,245.0 578.2,245.4 579.5,245.9 580.8,246.5 582.1,247.0 583.4,247.5 584.7,248.0 586.0,248.5 587.3,249.0 588.7,249.4 590.0,249.8 591.3,250.1 592.6,250.4 593.9,250.6 595.2,250.7 596.5,250.8 597.8,250.8 599.1,250.8 600.4,250.6 601.7,250.5 603.0,250.3 604.3,250.0 605.6,249.7 606.9,249.4 608.2,249.0 609.5,248.7 610.8,248.4 612.1,248.1 613.4,247.8 614.7,247.6 616.0,247.4 617.3,247.3 618.6,247.3 619.9,247.3 621.3,247.5 622.6,247.7 623.9,248.0 625.2,248.4 626.5,248.9 627.8,249.5 629.1,250.1 630.4,250.9 631.7,251.7 633.0,252.6 634.3,253.5 635.6,254.5 636.9,255.5 638.2,256.5 639.5,257.6 640.8,258.6 642.1,259.6 643.4,260.6 644.7,261.6 646.0,262.4 647.3,263.2 648.6,263.9 649.9,264.5 651.2,265.1 652.5,265.5 653.9,265.7 655.2,265.9 656.5,266.0 657.8,266.0 659.1,265.8 660.4,265.6 661.7,265.3 663.0,265.0 664.3,264.6 665.6,264.1 666.9,263.6 668.2,263.1 669.5,262.5 670.8,262.0 672.1,261.5 673.4,260.9 674.7,260.4 676.0,259.9 677.3,259.4 678.6,259.0 679.9,258.5 681.2,258.1 682.5,257.8 683.8,257.4 685.2,257.1 686.5,256.8 687.8,256.5 689.1,256.3 690.4,256.1 691.7,255.9 693.0,255.7 694.3,255.6 695.6,255.5 696.9,255.5 698.2,255.4 699.5,255.4 700.8,255.5 702.1,255.5 703.4,255.7 704.7,255.8 706.0,255.9 707.3,256.1 708.6,256.3 709.9,256.5 711.2,256.7 712.5,256.9 713.8,257.1 715.1,257.3 716.4,257.5 717.8,257.6 719.1,257.7 720.4,257.8 721.7,257.8 723.0,257.8 724.3,257.8 725.6,257.8 726.9,257.7 728.2,257.7 729.5,257.6 730.8,257.5 732.1,257.3 733.4,257.2 734.7,257.1 736.0,256.9 737.3,256.7 738.6,256.5 739.9,256.3 741.2,256.1 742.5,255.9 743.8,255.7 745.1,255.5 746.4,255.3 747.7,255.2 749.0,255.0 750.4,255.0 751.7,254.9 753.0,254.9 754.3,254.9 755.6,255.0 756.9,255.2 758.2,255.3 759.5,255.6 760.8,255.8 762.1,256.2 763.4,256.5 764.7,256.9 766.0,257.3"/>
<line x1="606" y1="42" x2="628" y2="42" stroke="#0f62fe" stroke-width="2.2"/>
<text x="634" y="46" font-family="Arial" font-size="12">qbar_pa</text>
</svg>