<svg xmlns="http://www.w3.org/2000/svg" width="820" height="320" viewBox="0 0 820 320">
<rect width="100%" height="100%" fill="#ffffff"/>
<text x="54" y="28" font-family="Arial" font-size="18" font-weight="700">Load Factor</text>
<line x1="54" y1="266" x2="766" y2="266" stroke="#1f2933"/>
<line x1="54" y1="54" x2="54" y2="266" stroke="#1f2933"/>
<text x="54" y="306" font-family="Arial" font-size="12">time (s)</text>
<text x="596" y="306" font-family="Arial" font-size="12">g</text>
<text x="58" y="68" font-family="Arial" font-size="11">3.25</text>
<text x="58" y="260" font-family="Arial" font-size="11">0.602</text>
<polyline fill="none" stroke="#0f62fe" stroke-width="2.2" points="54.0,199.6 55.3,207.3 56.6,245.1 57.9,266.0 59.2,246.9 60.5,251.1 61.8,254.9 63.1,255.1 64.4,254.3 65.7,260.4 67.0,252.6 68.3,253.5 69.6,257.3 71.0,255.6 72.3,251.1 73.6,254.1 74.9,251.4 76.2,252.0 77.5,258.1 78.8,248.1 80.1,256.7 81.4,253.9 82.7,248.1 84.0,257.5 85.3,254.9 86.6,246.9 87.9,257.9 89.2,257.6 90.5,250.0 91.8,257.2 93.1,254.1 94.4,259.6 95.7,256.2 97.0,261.8 98.3,257.7 99.6,262.7 100.9,258.9 102.2,263.4 103.6,259.7 104.9,263.8 106.2,259.9 107.5,263.9 108.8,260.0 110.1,263.9 111.4,259.9 112.7,263.7 114.0,259.6 115.3,263.3 116.6,259.0 117.9,262.7 119.2,258.2 120.5,262.0 121.8,257.4 123.1,261.1 124.4,256.4 125.7,260.2 127.0,255.3 128.3,259.2 129.6,254.3 130.9,258.2 132.2,253.3 133.5,257.3 134.8,252.5 136.2,256.6 137.5,251.8 138.8,256.0 140.1,251.3 141.4,255.6 142.7,251.1 144.0,255.5 145.3,251.1 146.6,255.6 147.9,251.3 149.2,255.9 150.5,251.7 151.8,256.3 153.1,252.3 154.4,256.9 155.7,253.0 157.0,257.5 158.3,253.8 159.6,258.1 160.9,254.5 162.2,258.7 163.5,255.0 164.8,259.1 166.1,255.4 167.5,259.3 168.8,255.5 170.1,259.2 171.4,255.2 172.7,258.8 174.0,254.3 175.3,257.7 176.6,252.7 177.9,255.8 179.2,250.0 180.5,252.8 181.8,245.8 183.1,248.1 184.4,239.7 185.7,241.2 187.0,230.1 188.3,236.4 189.6,211.6 190.9,229.3 192.2,169.1 193.5,172.1 194.8,99.6 196.1,103.8 197.4,77.6 198.7,83.2 200.1,63.3 201.4,63.0 202.7,56.8 204.0,54.0 205.3,55.2 206.6,56.6 207.9,61.5 209.2,63.0 210.5,64.6 211.8,71.5 213.1,72.7 214.4,76.6 215.7,82.8 217.0,87.2 218.3,92.9 219.6,96.4 220.9,101.9 222.2,106.0 223.5,110.8 224.8,114.3 226.1,118.4 227.4,121.5 228.7,124.6 230.0,127.1 231.3,129.4 232.7,131.4 234.0,132.9 235.3,134.1 236.6,135.4 237.9,136.3 239.2,136.7 240.5,137.7 241.8,137.2 243.1,138.4 244.4,140.0 245.7,141.1 247.0,143.6 248.3,144.4 249.6,147.3 250.9,148.6 252.2,151.6 253.5,152.7 254.8,156.2 256.1,158.0 257.4,161.2 258.7,162.8 260.0,166.7 261.3,168.0 262.6,172.2 263.9,173.9 265.3,177.7 266.6,178.8 267.9,182.7 269.2,184.1 270.5,187.2 271.8,188.0 273.1,191.3 274.4,190.7 275.7,190.4 277.0,189.3 278.3,189.3 279.6,188.6 280.9,188.6 282.2,187.2 283.5,187.2 284.8,186.2 286.1,185.8 287.4,185.2 288.7,185.4 290.0,185.4 291.3,186.2 292.6,186.6 293.9,187.3 295.2,187.9 296.5,189.0 297.9,189.7 299.2,190.7 300.5,191.2 301.8,191.6 303.1,192.4 304.4,193.2 305.7,193.9 307.0,195.0 308.3,195.6 309.6,196.8 310.9,197.2 312.2,198.4 313.5,198.8 314.8,199.8 316.1,200.1 317.4,201.0 318.7,201.3 320.0,201.1 321.3,200.8 322.6,203.2 323.9,204.4 325.2,204.6 326.5,204.1 327.8,203.6 329.2,203.0 330.5,203.2 331.8,205.0 333.1,205.6 334.4,205.3 335.7,205.6 337.0,205.6 338.3,205.5 339.6,205.6 340.9,207.2 342.2,207.5 343.5,207.2 344.8,207.8 346.1,208.7 347.4,209.1 348.7,209.5 350.0,210.9 351.3,211.9 352.6,212.5 353.9,213.0 355.2,213.9 356.5,214.2 357.8,214.1 359.1,215.8 360.4,217.5 361.8,218.5 363.1,219.2 364.4,219.5 365.7,219.1 367.0,219.9 368.3,219.0 369.6,218.7 370.9,221.1 372.2,223.0 373.5,224.0 374.8,224.3 376.1,223.9 377.4,222.7 378.7,222.8 380.0,223.3 381.3,222.9 382.6,222.7 383.9,222.6 385.2,222.9 386.5,223.1 387.8,223.8 389.1,224.1 390.4,224.8 391.7,225.1 393.0,225.5 394.4,225.5 395.7,225.7 397.0,225.6 398.3,225.6 399.6,225.3 400.9,225.2 402.2,224.8 403.5,224.6 404.8,224.1 406.1,223.9 407.4,223.4 408.7,223.1 410.0,222.5 411.3,222.2 412.6,221.6 413.9,221.2 415.2,220.5 416.5,220.1 417.8,219.4 419.1,219.1 420.4,218.4 421.7,218.2 423.0,217.6 424.3,217.4 425.6,217.0 427.0,216.9 428.3,216.6 429.6,216.7 430.9,216.6 432.2,216.9 433.5,216.9 434.8,217.3 436.1,217.5 437.4,218.1 438.7,218.4 440.0,219.1 441.3,219.6 442.6,220.4 443.9,221.0 445.2,221.9 446.5,222.5 447.8,223.5 449.1,224.0 450.4,224.8 451.7,225.4 453.0,226.2 454.3,226.7 455.6,227.5 456.9,228.1 458.2,228.8 459.6,229.3 460.9,230.0 462.2,230.4 463.5,231.0 464.8,231.7 466.1,232.3 467.4,232.8 468.7,233.2 470.0,233.1 471.3,233.0 472.6,232.5 473.9,232.4 475.2,231.9 476.5,231.8 477.8,231.3 479.1,231.3 480.4,230.8 481.7,230.0 483.0,229.1 484.3,228.1 485.6,227.4 486.9,227.0 488.2,226.4 489.5,226.0 490.8,225.4 492.2,225.1 493.5,224.5 494.8,224.2 496.1,223.7 497.4,223.4 498.7,222.9 500.0,222.7 501.3,222.2 502.6,222.1 503.9,221.7 505.2,221.6 506.5,221.3 507.8,221.3 509.1,221.0 510.4,221.1 511.7,220.9 513.0,221.0 514.3,220.9 515.6,221.0 516.9,221.0 518.2,221.2 519.5,221.2 520.8,221.5 522.1,221.5 523.5,221.8 524.8,221.8 526.1,222.1 527.4,222.1 528.7,222.3 530.0,222.2 531.3,222.2 532.6,222.0 533.9,221.9 535.2,221.5 536.5,221.3 537.8,220.6 539.1,219.9 540.4,219.4 541.7,219.1 543.0,218.6 544.3,218.2 545.6,217.7 546.9,217.2 548.2,216.6 549.5,216.1 550.8,215.4 552.1,215.0 553.4,214.3 554.7,213.5 556.1,212.6 557.4,211.9 558.7,211.0 560.0,210.2 561.3,209.4 562.6,208.6 563.9,207.9 565.2,207.2 566.5,206.6 567.8,206.1 569.1,205.6 570.4,205.3 571.7,205.0 573.0,204.9 574.3,204.8 575.6,204.8 576.9,204.8 578.2,205.0 579.5,205.1 580.8,205.5 582.1,205.7 583.4,206.1 584.7,206.3 586.0,206.7 587.3,207.0 588.7,207.5 590.0,207.7 591.3,208.1 592.6,208.3 593.9,208.6 595.2,208.6 596.5,208.9 597.8,208.8 599.1,209.0 600.4,208.7 601.7,208.7 603.0,208.4 604.3,208.5 605.6,208.2 606.9,208.2 608.2,207.9 609.5,208.0 610.8,207.6 612.1,207.7 613.4,207.3 614.7,207.5 616.0,207.2 617.3,207.4 618.6,207.1 619.9,207.5 621.3,207.3 622.6,207.8 623.9,207.7 625.2,208.3 626.5,208.3 627.8,209.0 629.1,209.2 630.4,209.9 631.7,210.2 633.0,210.9 634.3,211.1 635.6,211.8 636.9,212.2 638.2,212.9 639.5,213.4 640.8,214.3 642.1,214.9 643.4,216.0 644.7,217.0 646.0,218.4 647.3,219.6 648.6,221.1 649.9,222.3 651.2,223.8 652.5,224.9 653.9,226.3 655.2,227.4 656.5,228.5 657.8,229.3 659.1,230.1 660.4,230.5 661.7,230.9 663.0,230.9 664.3,231.0 665.6,230.7 666.9,230.4 668.2,229.8 669.5,229.3 670.8,228.4 672.1,227.7 673.4,226.8 674.7,226.0 676.0,224.9 677.3,224.1 678.6,222.9 679.9,222.1 681.2,220.9 682.5,220.0 683.8,218.9 685.2,218.0 686.5,216.8 687.8,216.0 689.1,214.9 690.4,214.0 691.7,212.9 693.0,212.2 694.3,211.1 695.6,210.5 696.9,209.5 698.2,209.0 699.5,208.2 700.8,207.8 702.1,207.2 703.4,207.1 704.7,206.7 706.0,206.8 707.3,206.7 708.6,207.2 709.9,207.4 711.2,208.2 712.5,208.7 713.8,209.7 715.1,210.5 716.4,211.7 717.8,212.7 719.1,213.9 720.4,214.8 721.7,215.8 723.0,216.5 724.3,217.1 725.6,217.3 726.9,217.6 728.2,217.6 729.5,217.6 730.8,217.1 732.1,216.7 733.4,216.4 734.7,216.4 736.0,216.0 737.3,215.8 738.6,215.4 739.9,215.2 741.2,214.7 742.5,214.4 743.8,213.9 745.1,213.5 746.4,213.0 747.7,212.8 749.0,212.1 750.4,211.7 751.7,211.2 753.0,210.9 754.3,210.5 755.6,210.5 756.9,210.2 758.2,210.2 759.5,210.1 760.8,210.3 762.1,210.2 763.4,210.5 764.7,210.5 766.0,210.9"/>
<line x1="606" y1="42" x2="628" y2="42" stroke="#0f62fe" stroke-width="2.2"/>
<text x="634" y="46" font-family="Arial" font-size="12">load_factor_g</text>
</svg>