<svg xmlns="http://www.w3.org/2000/svg" width="820" height="320" viewBox="0 0 820 320">
<rect width="100%" height="100%" fill="#ffffff"/>
<text x="54" y="28" font-family="Arial" font-size="18" font-weight="700">Qbar/Load Envelope</text>
<line x1="54" y1="266" x2="766" y2="266" stroke="#1f2933"/>
<line x1="54" y1="54" x2="54" y2="266" stroke="#1f2933"/>
<text x="54" y="306" font-family="Arial" font-size="12">qbar (Pa)</text>
<text x="596" y="306" font-family="Arial" font-size="12">load factor (g)</text>
<text x="58" y="68" font-family="Arial" font-size="11">3.25</text>
<text x="58" y="260" font-family="Arial" font-size="11">0.602</text>
<polyline fill="none" stroke="#0f62fe" stroke-width="2.2" points="655.6,199.6 645.4,207.3 637.7,245.1 633.1,266.0 630.6,246.9 628.6,251.1 627.1,254.9 626.1,255.1 625.4,254.3 624.9,260.4 625.0,252.6 625.1,253.5 625.4,257.3 626.1,255.6 626.6,251.1 627.3,254.1 628.1,251.4 628.8,252.0 629.7,258.1 631.1,248.1 631.8,256.7 633.2,253.9 634.5,248.1 635.3,257.5 636.7,254.9 638.3,246.9 639.2,257.9 640.7,257.6 642.3,250.0 643.4,257.2 644.9,254.1 646.1,259.6 647.8,256.2 649.4,261.8 651.2,257.7 652.9,262.7 654.7,258.9 656.3,263.4 658.1,259.7 659.5,263.8 661.2,259.9 662.5,263.9 663.9,260.0 665.0,263.9 666.2,259.9 667.0,263.7 668.0,259.6 668.7,263.3 669.5,259.0 670.1,262.7 670.7,258.2 671.2,262.0 671.8,257.4 672.2,261.1 672.8,256.4 673.3,260.2 674.0,255.3 674.5,259.2 675.4,254.3 676.2,258.2 677.2,253.3 678.2,257.3 679.5,252.5 680.7,256.6 682.2,251.8 683.6,256.0 685.3,251.3 686.9,255.6 688.8,251.1 690.6,255.5 692.6,251.1 694.5,255.6 696.6,251.3 698.5,255.9 700.6,251.7 702.5,256.3 704.6,252.3 706.4,256.9 708.4,253.0 710.1,257.5 712.1,253.8 713.7,258.1 715.6,254.5 717.2,258.7 719.0,255.0 720.6,259.1 722.4,255.4 724.0,259.3 725.9,255.5 727.6,259.2 729.6,255.2 731.5,258.8 733.6,254.3 735.7,257.7 738.0,252.7 740.3,255.8 742.8,250.0 745.2,252.8 747.9,245.8 750.4,248.1 753.2,239.7 755.7,241.2 758.3,230.1 760.5,236.4 763.0,211.6 764.1,229.3 766.0,169.1 764.6,172.1 763.4,99.6 757.5,103.8 751.3,77.6 741.1,83.2 730.8,63.3 717.2,63.0 702.8,56.8 687.3,54.0 670.4,55.2 652.8,56.6 634.8,61.5 617.0,63.0 598.7,64.6 580.0,71.5 561.9,72.7 543.4,76.6 525.2,82.8 507.6,87.2 490.6,92.9 474.9,96.4 460.2,101.9 446.8,106.0 434.6,110.8 423.7,114.3 413.9,118.4 405.3,121.5 397.6,124.6 390.9,127.1 385.1,129.4 380.0,131.4 375.6,132.9 371.7,134.1 368.2,135.4 365.0,136.3 362.0,136.7 359.1,137.7 356.3,137.2 353.3,138.4 350.2,140.0 347.0,141.1 343.6,143.6 340.1,144.4 336.3,147.3 332.3,148.6 328.1,151.6 323.8,152.7 319.1,156.2 314.4,158.0 309.4,161.2 304.4,162.8 299.2,166.7 294.1,168.0 288.8,172.2 283.7,173.9 278.6,177.7 273.7,178.8 268.8,182.7 264.2,184.1 259.7,187.2 255.5,188.0 251.5,191.3 247.9,190.7 244.3,190.4 241.0,189.3 237.9,189.3 235.2,188.6 232.8,188.6 230.8,187.2 228.8,187.2 226.6,186.2 224.2,185.8 221.6,185.2 218.8,185.4 215.9,185.4 212.8,186.2 209.7,186.6 206.5,187.3 203.2,187.9 199.9,189.0 196.6,189.7 193.3,190.7 190.0,191.2 186.7,191.6 183.5,192.4 180.3,193.2 177.2,193.9 174.2,195.0 171.4,195.6 168.7,196.8 166.3,197.2 164.1,198.4 162.1,198.8 160.4,199.8 158.9,200.1 157.6,201.0 156.6,201.3 155.7,201.1 155.1,200.8 154.6,203.2 154.4,204.4 154.5,204.6 154.7,204.1 154.9,203.6 155.0,203.0 155.1,203.2 155.3,205.0 155.5,205.6 155.6,205.3 155.7,205.6 155.5,205.6 155.1,205.5 154.6,205.6 153.8,207.2 153.0,207.5 151.8,207.2 150.5,207.8 148.9,208.7 147.1,209.1 145.1,209.5 143.0,210.9 140.7,211.9 138.3,212.5 135.8,213.0 133.3,213.9 130.6,214.2 127.9,214.1 125.1,215.8 122.4,217.5 119.8,218.5 117.4,219.2 115.0,219.5 112.7,219.1 110.5,219.9 108.3,219.0 106.2,218.7 104.2,221.1 102.5,223.0 101.0,224.0 99.9,224.3 98.8,223.9 97.9,222.7 97.0,222.8 96.1,223.3 95.4,222.9 94.8,222.7 94.2,222.6 93.8,222.9 93.4,223.1 93.2,223.8 93.1,224.1 93.2,224.8 93.5,225.1 93.9,225.5 94.4,225.5 95.1,225.7 95.9,225.6 96.8,225.6 97.8,225.3 99.0,225.2 100.3,224.8 101.6,224.6 103.1,224.1 104.7,223.9 106.5,223.4 108.3,223.1 110.2,222.5 112.2,222.2 114.3,221.6 116.4,221.2 118.6,220.5 120.7,220.1 122.8,219.4 124.9,219.1 126.9,218.4 128.7,218.2 130.5,217.6 132.1,217.4 133.5,217.0 134.7,216.9 135.6,216.6 136.3,216.7 136.8,216.6 137.0,216.9 136.9,216.9 136.5,217.3 135.9,217.5 135.0,218.1 133.8,218.4 132.5,219.1 130.9,219.6 129.1,220.4 127.2,221.0 125.1,221.9 123.0,222.5 120.8,223.5 118.6,224.0 116.4,224.8 114.3,225.4 112.2,226.2 110.3,226.7 108.5,227.5 106.8,228.1 105.4,228.8 104.2,229.3 103.3,230.0 102.5,230.4 102.0,231.0 101.8,231.7 101.8,232.3 102.1,232.8 102.7,233.2 103.4,233.1 104.3,233.0 105.3,232.5 106.4,232.4 107.6,231.9 108.7,231.8 109.9,231.3 110.9,231.3 111.9,230.8 112.8,230.0 113.5,229.1 114.0,228.1 114.2,227.4 114.3,227.0 114.2,226.4 114.0,226.0 113.6,225.4 113.0,225.1 112.4,224.5 111.5,224.2 110.6,223.7 109.5,223.4 108.4,222.9 107.3,222.7 106.0,222.2 104.8,222.1 103.6,221.7 102.4,221.6 101.2,221.3 100.1,221.3 99.1,221.0 98.2,221.1 97.4,220.9 96.7,221.0 96.1,220.9 95.6,221.0 95.2,221.0 95.0,221.2 94.9,221.2 95.0,221.5 95.1,221.5 95.4,221.8 95.9,221.8 96.4,222.1 97.0,222.1 97.8,222.3 98.6,222.2 99.5,222.2 100.5,222.0 101.6,221.9 102.7,221.5 103.9,221.3 105.1,220.6 106.4,219.9 107.6,219.4 108.9,219.1 110.3,218.6 111.7,218.2 113.1,217.7 114.6,217.2 116.2,216.6 117.7,216.1 119.3,215.4 120.9,215.0 122.4,214.3 123.9,213.5 125.4,212.6 126.7,211.9 127.9,211.0 129.0,210.2 129.9,209.4 130.6,208.6 131.2,207.9 131.5,207.2 131.6,206.6 131.4,206.1 131.1,205.6 130.5,205.3 129.7,205.0 128.7,204.9 127.5,204.8 126.2,204.8 124.7,204.8 123.1,205.0 121.4,205.1 119.6,205.5 117.8,205.7 116.1,206.1 114.3,206.3 112.6,206.7 111.1,207.0 109.6,207.5 108.4,207.7 107.3,208.1 106.4,208.3 105.7,208.6 105.2,208.6 105.0,208.9 105.0,208.8 105.1,209.0 105.6,208.7 106.1,208.7 106.9,208.4 107.7,208.5 108.7,208.2 109.8,208.2 110.9,207.9 112.0,208.0 113.1,207.6 114.2,207.7 115.1,207.3 115.8,207.5 116.4,207.2 116.7,207.4 116.9,207.1 116.7,207.5 116.3,207.3 115.5,207.8 114.5,207.7 113.1,208.3 111.4,208.3 109.5,209.0 107.2,209.2 104.7,209.9 102.0,210.2 99.1,210.9 95.9,211.1 92.6,211.8 89.3,212.2 85.8,212.9 82.3,213.4 78.8,214.3 75.4,214.9 72.0,216.0 68.9,217.0 66.0,218.4 63.3,219.6 60.9,221.1 58.9,222.3 57.2,223.8 55.8,224.9 54.8,226.3 54.2,227.4 54.0,228.5 54.1,229.3 54.5,230.1 55.3,230.5 56.2,230.9 57.4,230.9 58.8,231.0 60.4,230.7 62.0,230.4 63.8,229.8 65.6,229.3 67.4,228.4 69.2,227.7 71.0,226.8 72.8,226.0 74.4,224.9 76.1,224.1 77.6,222.9 79.1,222.1 80.4,220.9 81.7,220.0 82.9,218.9 84.0,218.0 85.0,216.8 85.9,216.0 86.7,214.9 87.4,214.0 88.0,212.9 88.5,212.2 88.9,211.1 89.2,210.5 89.4,209.5 89.5,209.0 89.5,208.2 89.3,207.8 89.1,207.2 88.8,207.1 88.3,206.7 87.8,206.8 87.2,206.7 86.6,207.2 85.9,207.4 85.2,208.2 84.5,208.7 83.8,209.7 83.2,210.5 82.7,211.7 82.2,212.7 81.8,213.9 81.6,214.8 81.4,215.8 81.4,216.5 81.4,217.1 81.6,217.3 81.8,217.6 82.0,217.6 82.3,217.6 82.7,217.1 83.1,216.7 83.5,216.4 84.0,216.4 84.5,216.0 85.1,215.8 85.8,215.4 86.4,215.2 87.1,214.7 87.8,214.4 88.5,213.9 89.2,213.5 89.8,213.0 90.3,212.8 90.8,212.1 91.1,211.7 91.3,211.2 91.3,210.9 91.2,210.5 90.9,210.5 90.4,210.2 89.8,210.2 89.0,210.1 88.1,210.3 87.1,210.2 85.9,210.5 84.6,210.5 83.3,210.9"/>
<line x1="606" y1="42" x2="628" y2="42" stroke="#0f62fe" stroke-width="2.2"/>
<text x="634" y="46" font-family="Arial" font-size="12">load_factor_g</text>
</svg>