<svg xmlns="http://www.w3.org/2000/svg" width="820" height="320" viewBox="0 0 820 320">
<rect width="100%" height="100%" fill="#ffffff"/>
<text x="54" y="28" font-family="Arial" font-size="18" font-weight="700">Velocity Z</text>
<line x1="54" y1="266" x2="766" y2="266" stroke="#1f2933"/>
<line x1="54" y1="54" x2="54" y2="266" stroke="#1f2933"/>
<text x="54" y="306" font-family="Arial" font-size="12">time (s)</text>
<text x="596" y="306" font-family="Arial" font-size="12">vz (m/s)</text>
<text x="58" y="68" font-family="Arial" font-size="11">32.7</text>
<text x="58" y="260" font-family="Arial" font-size="11">2</text>
<polyline fill="none" stroke="#0f62fe" stroke-width="2.2" points="54.0,224.6 55.2,226.2 56.4,227.7 57.6,229.1 58.7,230.3 59.9,231.5 61.1,232.7 62.3,233.8 63.5,234.9 64.7,235.9 65.9,236.8 67.1,237.8 68.2,238.7 69.4,239.5 70.6,240.3 71.8,241.2 73.0,241.9 74.2,242.7 75.4,243.5 76.5,244.2 77.7,244.9 78.9,245.6 80.1,246.3 81.3,247.0 82.5,247.7 83.7,248.3 84.9,248.9 86.0,249.6 87.2,250.2 88.4,250.8 89.6,251.4 90.8,252.0 92.0,252.5 93.2,253.1 94.3,253.6 95.5,254.2 96.7,254.7 97.9,255.2 99.1,255.7 100.3,256.2 101.5,256.7 102.7,257.1 103.8,257.6 105.0,258.0 106.2,258.4 107.4,258.9 108.6,259.3 109.8,259.7 111.0,260.1 112.1,260.4 113.3,260.8 114.5,261.1 115.7,261.5 116.9,261.8 118.1,262.1 119.3,262.4 120.5,262.7 121.6,263.0 122.8,263.2 124.0,263.5 125.2,263.7 126.4,263.9 127.6,264.2 128.8,264.4 129.9,264.6 131.1,264.7 132.3,264.9 133.5,265.1 134.7,265.2 135.9,265.3 137.1,265.5 138.3,265.6 139.4,265.7 140.6,265.7 141.8,265.8 143.0,265.9 144.2,265.9 145.4,266.0 146.6,266.0 147.7,266.0 148.9,266.0 150.1,266.0 151.3,266.0 152.5,265.9 153.7,265.9 154.9,265.8 156.1,265.8 157.2,265.7 158.4,265.5 159.6,265.4 160.8,265.3 162.0,265.1 163.2,264.9 164.4,264.7 165.5,264.5 166.7,264.3 167.9,264.0 169.1,263.8 170.3,263.5 171.5,263.2 172.7,262.8 173.9,262.5 175.0,262.1 176.2,261.8 177.4,261.4 178.6,260.9 179.8,260.5 181.0,260.1 182.2,259.6 183.3,259.1 184.5,258.6 185.7,258.1 186.9,257.5 188.1,257.0 189.3,256.4 190.5,255.8 191.7,255.2 192.8,254.6 194.0,254.0 195.2,253.3 196.4,252.7 197.6,252.0 198.8,251.3 200.0,250.6 201.1,249.9 202.3,249.2 203.5,248.4 204.7,247.6 205.9,246.9 207.1,246.1 208.3,245.3 209.5,244.5 210.6,243.7 211.8,242.8 213.0,242.0 214.2,241.1 215.4,240.3 216.6,239.4 217.8,238.5 218.9,237.6 220.1,236.7 221.3,235.8 222.5,234.8 223.7,233.9 224.9,233.0 226.1,232.0 227.3,231.0 228.4,230.1 229.6,229.1 230.8,228.1 232.0,227.1 233.2,226.1 234.4,225.1 235.6,224.1 236.7,223.1 237.9,222.1 239.1,221.0 240.3,220.0 241.5,219.0 242.7,217.9 243.9,216.9 245.1,215.8 246.2,214.8 247.4,213.7 248.6,212.7 249.8,211.6 251.0,210.5 252.2,209.4 253.4,208.4 254.5,207.3 255.7,206.2 256.9,205.1 258.1,204.1 259.3,203.0 260.5,201.9 261.7,200.8 262.9,199.7 264.0,198.6 265.2,197.6 266.4,196.5 267.6,195.4 268.8,194.3 270.0,193.2 271.2,192.1 272.3,191.1 273.5,190.0 274.7,188.9 275.9,187.8 277.1,186.8 278.3,185.7 279.5,184.6 280.7,183.5 281.8,182.5 283.0,181.4 284.2,180.3 285.4,179.4 286.6,178.0 287.8,177.4 289.0,176.3 290.1,175.9 291.3,174.6 292.5,173.9 293.7,172.3 294.9,171.4 296.1,169.7 297.3,169.0 298.5,167.4 299.6,166.8 300.8,165.4 302.0,165.0 303.2,163.7 304.4,163.3 305.6,162.2 306.8,161.9 307.9,160.8 309.1,160.6 310.3,159.4 311.5,159.0 312.7,157.8 313.9,157.4 315.1,156.0 316.3,155.6 317.4,154.2 318.6,153.6 319.8,152.2 321.0,151.6 322.2,150.0 323.4,149.4 324.6,147.8 325.7,147.1 326.9,145.5 328.1,144.7 329.3,143.0 330.5,142.3 331.7,140.5 332.9,139.7 334.1,137.9 335.2,137.1 336.4,135.3 337.6,134.3 338.8,132.5 340.0,131.5 341.2,129.6 342.4,128.6 343.5,126.7 344.7,125.7 345.9,123.9 347.1,123.0 348.3,121.2 349.5,120.4 350.7,118.7 351.9,117.9 353.0,116.2 354.2,115.5 355.4,113.9 356.6,113.2 357.8,111.6 359.0,111.0 360.2,109.4 361.3,108.9 362.5,107.3 363.7,106.8 364.9,105.2 366.1,104.7 367.3,103.2 368.5,102.8 369.7,101.3 370.8,100.9 372.0,99.4 373.2,99.0 374.4,97.5 375.6,97.1 376.8,95.7 378.0,95.3 379.1,93.9 380.3,93.6 381.5,92.1 382.7,91.8 383.9,90.4 385.1,90.1 386.3,88.7 387.5,88.5 388.6,87.1 389.8,86.8 391.0,85.4 392.2,85.2 393.4,83.8 394.6,83.6 395.8,82.2 396.9,82.0 398.1,80.6 399.3,80.4 400.5,79.1 401.7,78.9 402.9,77.5 404.1,77.3 405.3,76.0 406.4,75.8 407.6,74.5 408.8,74.3 410.0,73.0 411.2,72.8 412.4,71.5 413.6,71.3 414.7,70.0 415.9,69.9 417.1,68.5 418.3,68.4 419.5,67.1 420.7,67.0 421.9,65.7 423.1,65.6 424.2,64.4 425.4,64.4 426.6,63.2 427.8,63.3 429.0,62.1 430.2,62.3 431.4,61.2 432.5,61.4 433.7,60.3 434.9,60.5 436.1,59.5 437.3,59.8 438.5,58.8 439.7,59.1 440.9,58.2 442.0,58.5 443.2,57.6 444.4,58.0 445.6,57.1 446.8,57.5 448.0,56.6 449.2,57.1 450.3,56.2 451.5,56.7 452.7,55.8 453.9,56.3 455.1,55.5 456.3,56.0 457.5,55.2 458.7,55.8 459.8,55.0 461.0,55.5 462.2,54.8 463.4,55.3 464.6,54.6 465.8,55.2 467.0,54.4 468.1,55.0 469.3,54.3 470.5,54.9 471.7,54.2 472.9,54.8 474.1,54.1 475.3,54.8 476.5,54.0 477.6,54.7 478.8,54.0 480.0,54.7 481.2,54.0 482.4,54.7 483.6,54.0 484.8,54.7 485.9,54.0 487.1,54.8 488.3,54.1 489.5,54.8 490.7,54.1 491.9,54.9 493.1,54.2 494.3,55.0 495.4,54.3 496.6,55.1 497.8,54.4 499.0,55.2 500.2,54.5 501.4,55.3 502.6,54.6 503.7,55.4 504.9,54.7 506.1,55.6 507.3,54.9 508.5,55.7 509.7,55.1 510.9,55.9 512.1,55.2 513.2,56.1 514.4,55.4 515.6,56.3 516.8,55.6 518.0,56.5 519.2,55.8 520.4,56.7 521.5,56.0 522.7,56.9 523.9,56.3 525.1,57.2 526.3,56.5 527.5,57.4 528.7,56.8 529.9,57.7 531.0,57.0 532.2,57.9 533.4,57.3 534.6,58.2 535.8,57.6 537.0,58.5 538.2,57.8 539.3,58.8 540.5,58.1 541.7,59.1 542.9,58.4 544.1,59.4 545.3,58.7 546.5,59.7 547.7,59.1 548.8,60.0 550.0,59.4 551.2,60.4 552.4,59.7 553.6,60.7 554.8,60.1 556.0,61.1 557.1,60.4 558.3,61.4 559.5,60.8 560.7,61.8 561.9,61.1 563.1,62.2 564.3,61.5 565.5,62.6 566.6,61.9 567.8,62.9 569.0,62.3 570.2,64.0 571.4,64.0 572.6,65.7 573.8,65.7 574.9,67.4 576.1,67.5 577.3,69.1 578.5,69.2 579.7,70.9 580.9,70.9 582.1,72.6 583.3,72.7 584.4,74.3 585.6,74.4 586.8,76.1 588.0,76.2 589.2,77.8 590.4,77.9 591.6,79.5 592.7,79.6 593.9,81.2 595.1,81.3 596.3,82.9 597.5,83.0 598.7,84.6 599.9,84.7 601.1,86.3 602.2,86.4 603.4,88.0 604.6,88.1 605.8,89.7 607.0,89.8 608.2,91.4 609.4,91.5 610.5,93.0 611.7,93.2 612.9,94.7 614.1,94.8 615.3,96.3 616.5,96.4 617.7,98.0 618.9,98.1 620.0,99.6 621.2,99.7 622.4,101.2 623.6,101.3 624.8,102.8 626.0,102.9 627.2,104.4 628.3,104.5 629.5,106.0 630.7,106.1 631.9,107.6 633.1,107.7 634.3,109.1 635.5,109.3 636.7,110.7 637.8,110.8 639.0,112.2 640.2,112.4 641.4,113.8 642.6,113.9 643.8,115.3 645.0,115.4 646.1,116.8 647.3,116.9 648.5,118.3 649.7,118.5 650.9,119.8 652.1,120.0 653.3,121.3 654.5,121.4 655.6,122.8 656.8,122.9 658.0,124.3 659.2,124.4 660.4,125.8 661.6,125.9 662.8,127.2 663.9,127.3 665.1,128.7 666.3,128.8 667.5,130.1 668.7,130.2 669.9,131.5 671.1,131.6 672.3,132.9 673.4,133.1 674.6,134.4 675.8,134.5 677.0,135.8 678.2,135.9 679.4,137.2 680.6,137.3 681.7,138.5 682.9,138.7 684.1,139.9 685.3,140.0 686.5,141.3 687.7,141.4 688.9,142.7 690.1,142.8 691.2,144.0 692.4,144.1 693.6,145.4 694.8,145.5 696.0,146.7 697.2,146.8 698.4,148.0 699.5,148.1 700.7,149.4 701.9,149.5 703.1,150.7 704.3,150.8 705.5,152.0 706.7,152.1 707.9,153.3 709.0,153.4 710.2,154.6 711.4,154.7 712.6,155.9 713.8,156.0 715.0,157.2 716.2,157.3 717.3,158.4 718.5,158.5 719.7,159.7 720.9,159.8 722.1,161.0 723.3,161.1 724.5,162.2 725.7,162.3 726.8,163.5 728.0,163.6 729.2,164.7 730.4,164.8 731.6,165.9 732.8,166.1 734.0,167.2 735.1,167.3 736.3,168.4 737.5,168.5 738.7,169.7 739.9,169.8 741.1,170.9 742.3,171.0 743.5,172.1 744.6,172.3 745.8,173.4 747.0,173.5 748.2,174.6 749.4,174.7 750.6,175.8 751.8,176.0 752.9,177.1 754.1,177.2 755.3,178.3 756.5,178.4 757.7,179.5 758.9,179.7 760.1,180.8 761.3,180.9 762.4,182.0 763.6,182.1 764.8,183.2 766.0,183.3"/>
<line x1="606" y1="42" x2="628" y2="42" stroke="#0f62fe" stroke-width="2.2"/>
<text x="634" y="46" font-family="Arial" font-size="12">vz_mps</text>
</svg>