<svg xmlns="http://www.w3.org/2000/svg" width="820" height="320" viewBox="0 0 820 320">
<rect width="100%" height="100%" fill="#ffffff"/>
<text x="54" y="28" font-family="Arial" font-size="18" font-weight="700">Alpha/Beta</text>
<line x1="54" y1="266" x2="766" y2="266" stroke="#1f2933"/>
<line x1="54" y1="54" x2="54" y2="266" stroke="#1f2933"/>
<text x="54" y="306" font-family="Arial" font-size="12">time (s)</text>
<text x="596" y="306" font-family="Arial" font-size="12">angle (deg)</text>
<text x="58" y="68" font-family="Arial" font-size="11">4.75</text>
<text x="58" y="260" font-family="Arial" font-size="11">0</text>
<polyline fill="none" stroke="#0f62fe" stroke-width="2.2" points="54.0,238.2 55.2,217.9 56.4,193.3 57.6,172.5 58.7,157.9 59.9,147.3 61.1,138.2 62.3,129.2 63.5,120.9 64.7,113.5 65.9,107.4 67.1,102.2 68.2,97.6 69.4,93.5 70.6,89.8 71.8,86.5 73.0,83.6 74.2,81.1 75.4,78.8 76.5,76.7 77.7,74.8 78.9,73.1 80.1,71.5 81.3,70.1 82.5,68.8 83.7,67.6 84.9,66.5 86.0,65.5 87.2,64.6 88.4,63.7 89.6,62.9 90.8,62.1 92.0,61.4 93.2,60.8 94.3,60.2 95.5,59.6 96.7,59.1 97.9,58.6 99.1,58.1 100.3,57.7 101.5,57.3 102.7,56.9 103.8,56.5 105.0,56.2 106.2,55.9 107.4,55.6 108.6,55.4 109.8,55.2 111.0,55.0 112.1,54.8 113.3,54.6 114.5,54.5 115.7,54.3 116.9,54.2 118.1,54.2 119.3,54.1 120.5,54.0 121.6,54.0 122.8,54.0 124.0,54.0 125.2,54.0 126.4,54.1 127.6,54.1 128.8,54.2 129.9,54.3 131.1,54.4 132.3,54.5 133.5,54.6 134.7,54.8 135.9,54.9 137.1,55.1 138.3,55.3 139.4,55.5 140.6,55.7 141.8,55.9 143.0,56.2 144.2,56.4 145.4,56.7 146.6,57.0 147.7,57.3 148.9,57.6 150.1,57.9 151.3,58.1 152.5,58.1 153.7,58.1 154.9,58.1 156.1,58.0 157.2,57.8 158.4,57.6 159.6,57.4 160.8,57.2 162.0,57.0 163.2,56.8 164.4,56.6 165.5,56.4 166.7,56.1 167.9,55.9 169.1,55.8 170.3,55.6 171.5,55.4 172.7,55.3 173.9,55.2 175.0,55.1 176.2,55.0 177.4,54.9 178.6,54.9 179.8,54.8 181.0,54.8 182.2,54.9 183.3,54.9 184.5,55.0 185.7,55.1 186.9,55.2 188.1,55.3 189.3,55.4 190.5,55.6 191.7,55.8 192.8,56.0 194.0,56.3 195.2,56.5 196.4,56.8 197.6,57.1 198.8,57.4 200.0,57.8 201.1,58.1 202.3,58.5 203.5,58.9 204.7,59.3 205.9,59.8 207.1,60.2 208.3,60.7 209.5,61.2 210.6,61.7 211.8,62.2 213.0,62.8 214.2,63.4 215.4,63.9 216.6,64.5 217.8,65.1 218.9,65.8 220.1,66.4 221.3,67.1 222.5,67.7 223.7,68.4 224.9,69.1 226.1,69.8 227.3,70.6 228.4,71.3 229.6,72.0 230.8,72.8 232.0,73.6 233.2,74.4 234.4,75.2 235.6,76.0 236.7,76.8 237.9,77.6 239.1,78.5 240.3,79.3 241.5,80.2 242.7,81.0 243.9,81.9 245.1,82.8 246.2,83.7 247.4,84.6 248.6,85.5 249.8,86.4 251.0,87.3 252.2,88.3 253.4,89.2 254.5,90.1 255.7,91.1 256.9,92.0 258.1,93.0 259.3,93.9 260.5,94.9 261.7,95.9 262.9,96.8 264.0,97.8 265.2,98.8 266.4,99.8 267.6,100.7 268.8,101.7 270.0,102.7 271.2,103.7 272.3,104.7 273.5,105.7 274.7,106.7 275.9,107.7 277.1,108.7 278.3,109.6 279.5,110.8 280.7,111.3 281.8,113.4 283.0,111.8 284.2,119.1 285.4,104.9 286.6,136.0 287.8,121.1 289.0,139.9 290.1,113.2 291.3,128.1 292.5,102.0 293.7,122.0 294.9,102.6 296.1,128.9 297.3,110.1 298.5,137.0 299.6,117.9 300.8,144.5 302.0,125.1 303.2,151.4 304.4,131.8 305.6,156.2 306.8,134.6 307.9,156.5 309.1,132.5 310.3,154.3 311.5,130.3 312.7,152.2 313.9,128.3 315.1,150.3 316.3,126.5 317.4,148.7 318.6,125.0 319.8,147.3 321.0,123.7 322.2,146.1 323.4,122.6 324.6,145.1 325.7,121.7 326.9,144.3 328.1,120.9 329.3,143.6 330.5,120.3 331.7,143.0 332.9,119.8 334.1,142.6 335.2,119.5 336.4,142.3 337.6,119.3 338.8,142.2 340.0,119.3 341.2,142.3 342.4,121.2 343.5,146.1 344.7,124.9 345.9,149.6 347.1,128.3 348.3,152.9 349.5,131.4 350.7,155.9 351.9,134.4 353.0,158.8 354.2,137.1 355.4,161.4 356.6,139.6 357.8,163.9 359.0,142.0 360.2,166.2 361.3,144.3 362.5,168.3 363.7,146.4 364.9,170.4 366.1,148.4 367.3,172.4 368.5,150.3 369.7,174.2 370.8,152.1 372.0,176.0 373.2,153.8 374.4,177.6 375.6,155.4 376.8,179.2 378.0,156.9 379.1,180.7 380.3,158.4 381.5,182.2 382.7,159.9 383.9,183.6 385.1,161.2 386.3,185.0 387.5,162.5 388.6,186.3 389.8,163.8 391.0,187.5 392.2,165.0 393.4,188.7 394.6,166.2 395.8,189.9 396.9,167.4 398.1,191.0 399.3,168.5 400.5,192.1 401.7,169.6 402.9,193.2 404.1,170.6 405.3,194.2 406.4,171.6 407.6,195.2 408.8,172.6 410.0,196.2 411.2,173.6 412.4,197.2 413.6,174.6 414.7,198.2 415.9,175.5 417.1,199.1 418.3,176.4 419.5,200.0 420.7,178.2 421.9,202.5 423.1,180.6 424.2,204.8 425.4,182.7 426.6,206.9 427.8,184.7 429.0,208.8 430.2,186.6 431.4,210.6 432.5,188.2 433.7,212.2 434.9,189.8 436.1,213.6 437.3,191.2 438.5,215.0 439.7,192.5 440.9,216.3 442.0,193.7 443.2,217.4 444.4,194.8 445.6,218.5 446.8,195.8 448.0,219.5 449.2,196.8 450.3,220.4 451.5,197.7 452.7,221.2 453.9,198.5 455.1,222.0 456.3,199.2 457.5,222.8 458.7,199.9 459.8,223.5 461.0,200.6 462.2,224.1 463.4,201.2 464.6,224.7 465.8,201.8 467.0,225.3 468.1,202.4 469.3,225.9 470.5,202.9 471.7,226.4 472.9,203.4 474.1,226.9 475.3,203.9 476.5,227.3 477.6,204.3 478.8,227.8 480.0,204.8 481.2,228.2 482.4,205.2 483.6,228.6 484.8,205.5 485.9,229.0 487.1,205.9 488.3,229.3 489.5,206.3 490.7,229.7 491.9,206.6 493.1,230.0 494.3,207.0 495.4,230.4 496.6,207.3 497.8,230.7 499.0,207.6 500.2,231.0 501.4,207.9 502.6,231.3 503.7,208.2 504.9,231.6 506.1,208.5 507.3,231.8 508.5,208.7 509.7,232.1 510.9,209.0 512.1,232.4 513.2,209.3 514.4,232.6 515.6,209.5 516.8,232.9 518.0,209.8 519.2,233.1 520.4,210.0 521.5,233.4 522.7,210.2 523.9,233.6 525.1,210.5 526.3,233.9 527.5,210.7 528.7,234.1 529.9,210.9 531.0,234.3 532.2,211.1 533.4,234.5 534.6,211.3 535.8,234.7 537.0,211.5 538.2,234.9 539.3,211.8 540.5,235.1 541.7,212.0 542.9,235.3 544.1,212.1 545.3,235.5 546.5,212.3 547.7,235.7 548.8,212.5 550.0,235.9 551.2,212.7 552.4,236.1 553.6,212.9 554.8,236.3 556.0,213.1 557.1,236.5 558.3,213.3 559.5,236.7 560.7,213.4 561.9,236.8 563.1,213.6 564.3,237.0 565.5,213.8 566.6,237.2 567.8,213.9 569.0,237.4 570.2,214.0 571.4,237.3 572.6,213.9 573.8,237.2 574.9,213.8 576.1,237.0 577.3,213.7 578.5,236.9 579.7,213.5 580.9,236.7 582.1,213.3 583.3,236.5 584.4,213.1 585.6,236.3 586.8,212.9 588.0,236.0 589.2,212.7 590.4,235.8 591.6,212.4 592.7,235.5 593.9,212.1 595.1,235.2 596.3,211.9 597.5,235.0 598.7,211.6 599.9,234.7 601.1,211.3 602.2,234.4 603.4,211.0 604.6,234.0 605.8,210.7 607.0,233.7 608.2,210.3 609.4,233.4 610.5,210.0 611.7,233.1 612.9,209.7 614.1,232.7 615.3,209.4 616.5,232.4 617.7,209.0 618.9,232.1 620.0,208.7 621.2,231.7 622.4,208.4 623.6,231.4 624.8,208.0 626.0,231.0 627.2,207.7 628.3,230.7 629.5,207.3 630.7,230.3 631.9,207.0 633.1,230.0 634.3,206.6 635.5,229.6 636.7,206.3 637.8,229.2 639.0,205.9 640.2,228.9 641.4,205.5 642.6,228.5 643.8,205.2 645.0,228.1 646.1,204.8 647.3,227.8 648.5,204.4 649.7,227.4 650.9,204.1 652.1,227.0 653.3,203.7 654.5,226.6 655.6,203.3 656.8,226.3 658.0,203.0 659.2,225.9 660.4,202.6 661.6,225.5 662.8,202.2 663.9,225.1 665.1,201.8 666.3,224.7 667.5,201.4 668.7,224.4 669.9,201.1 671.1,224.0 672.3,200.7 673.4,223.6 674.6,200.3 675.8,223.2 677.0,199.9 678.2,222.8 679.4,199.5 680.6,222.4 681.7,199.1 682.9,222.0 684.1,198.7 685.3,221.6 686.5,198.4 687.7,221.2 688.9,198.0 690.1,220.9 691.2,197.6 692.4,220.5 693.6,197.2 694.8,220.1 696.0,196.8 697.2,219.7 698.4,196.4 699.5,219.3 700.7,196.0 701.9,218.9 703.1,195.6 704.3,218.5 705.5,195.2 706.7,218.0 707.9,194.8 709.0,217.6 710.2,194.4 711.4,217.2 712.6,194.0 713.8,216.8 715.0,193.6 716.2,216.4 717.3,193.2 718.5,216.0 719.7,192.8 720.9,215.6 722.1,192.4 723.3,215.2 724.5,192.0 725.7,214.8 726.8,191.5 728.0,214.4 729.2,191.1 730.4,213.9 731.6,190.7 732.8,213.5 734.0,190.3 735.1,213.1 736.3,189.8 737.5,212.6 738.7,189.4 739.9,212.1 741.1,188.9 742.3,211.7 743.5,188.4 744.6,211.2 745.8,187.9 747.0,210.7 748.2,187.4 749.4,210.1 750.6,186.9 751.8,209.6 752.9,186.4 754.1,209.1 755.3,185.8 756.5,208.6 757.7,185.3 758.9,208.0 760.1,184.7 761.3,207.5 762.4,184.2 763.6,206.9 764.8,183.6 766.0,206.3"/>
<line x1="606" y1="42" x2="628" y2="42" stroke="#0f62fe" stroke-width="2.2"/>
<text x="634" y="46" font-family="Arial" font-size="12">alpha_deg</text>
<polyline fill="none" stroke="#24a148" stroke-width="2.2" points="54.0,266.0 55.2,266.0 56.4,266.0 57.6,266.0 58.7,266.0 59.9,266.0 61.1,266.0 62.3,266.0 63.5,266.0 64.7,266.0 65.9,266.0 67.1,266.0 68.2,266.0 69.4,266.0 70.6,266.0 71.8,266.0 73.0,266.0 74.2,266.0 75.4,266.0 76.5,266.0 77.7,266.0 78.9,266.0 80.1,266.0 81.3,266.0 82.5,266.0 83.7,266.0 84.9,266.0 86.0,266.0 87.2,266.0 88.4,266.0 89.6,266.0 90.8,266.0 92.0,266.0 93.2,266.0 94.3,266.0 95.5,266.0 96.7,266.0 97.9,266.0 99.1,266.0 100.3,266.0 101.5,266.0 102.7,266.0 103.8,266.0 105.0,266.0 106.2,266.0 107.4,266.0 108.6,266.0 109.8,266.0 111.0,266.0 112.1,266.0 113.3,266.0 114.5,266.0 115.7,266.0 116.9,266.0 118.1,266.0 119.3,266.0 120.5,266.0 121.6,266.0 122.8,266.0 124.0,266.0 125.2,266.0 126.4,266.0 127.6,266.0 128.8,266.0 129.9,266.0 131.1,266.0 132.3,266.0 133.5,266.0 134.7,266.0 135.9,266.0 137.1,266.0 138.3,266.0 139.4,266.0 140.6,266.0 141.8,266.0 143.0,266.0 144.2,266.0 145.4,266.0 146.6,266.0 147.7,266.0 148.9,266.0 150.1,266.0 151.3,266.0 152.5,266.0 153.7,266.0 154.9,266.0 156.1,266.0 157.2,266.0 158.4,266.0 159.6,266.0 160.8,266.0 162.0,266.0 163.2,266.0 164.4,266.0 165.5,266.0 166.7,266.0 167.9,266.0 169.1,266.0 170.3,266.0 171.5,266.0 172.7,266.0 173.9,266.0 175.0,266.0 176.2,266.0 177.4,266.0 178.6,266.0 179.8,266.0 181.0,266.0 182.2,266.0 183.3,266.0 184.5,266.0 185.7,266.0 186.9,266.0 188.1,266.0 189.3,266.0 190.5,266.0 191.7,266.0 192.8,266.0 194.0,266.0 195.2,266.0 196.4,266.0 197.6,266.0 198.8,266.0 200.0,266.0 201.1,266.0 202.3,266.0 203.5,266.0 204.7,266.0 205.9,266.0 207.1,266.0 208.3,266.0 209.5,266.0 210.6,266.0 211.8,266.0 213.0,266.0 214.2,266.0 215.4,266.0 216.6,266.0 217.8,266.0 218.9,266.0 220.1,266.0 221.3,266.0 222.5,266.0 223.7,266.0 224.9,266.0 226.1,266.0 227.3,266.0 228.4,266.0 229.6,266.0 230.8,266.0 232.0,266.0 233.2,266.0 234.4,266.0 235.6,266.0 236.7,266.0 237.9,266.0 239.1,266.0 240.3,266.0 241.5,266.0 242.7,266.0 243.9,266.0 245.1,266.0 246.2,266.0 247.4,266.0 248.6,266.0 249.8,266.0 251.0,266.0 252.2,266.0 253.4,266.0 254.5,266.0 255.7,266.0 256.9,266.0 258.1,266.0 259.3,266.0 260.5,266.0 261.7,266.0 262.9,266.0 264.0,266.0 265.2,266.0 266.4,266.0 267.6,266.0 268.8,266.0 270.0,266.0 271.2,266.0 272.3,266.0 273.5,266.0 274.7,266.0 275.9,266.0 277.1,266.0 278.3,266.0 279.5,266.0 280.7,266.0 281.8,266.0 283.0,266.0 284.2,266.0 285.4,266.0 286.6,266.0 287.8,266.0 289.0,266.0 290.1,266.0 291.3,266.0 292.5,266.0 293.7,266.0 294.9,266.0 296.1,266.0 297.3,266.0 298.5,266.0 299.6,266.0 300.8,266.0 302.0,266.0 303.2,266.0 304.4,266.0 305.6,266.0 306.8,266.0 307.9,266.0 309.1,266.0 310.3,266.0 311.5,266.0 312.7,266.0 313.9,266.0 315.1,266.0 316.3,266.0 317.4,266.0 318.6,266.0 319.8,266.0 321.0,266.0 322.2,266.0 323.4,266.0 324.6,266.0 325.7,266.0 326.9,266.0 328.1,266.0 329.3,266.0 330.5,266.0 331.7,266.0 332.9,266.0 334.1,266.0 335.2,266.0 336.4,266.0 337.6,266.0 338.8,266.0 340.0,266.0 341.2,266.0 342.4,266.0 343.5,266.0 344.7,266.0 345.9,266.0 347.1,266.0 348.3,266.0 349.5,266.0 350.7,266.0 351.9,266.0 353.0,266.0 354.2,266.0 355.4,266.0 356.6,266.0 357.8,266.0 359.0,266.0 360.2,266.0 361.3,266.0 362.5,266.0 363.7,266.0 364.9,266.0 366.1,266.0 367.3,266.0 368.5,266.0 369.7,266.0 370.8,266.0 372.0,266.0 373.2,266.0 374.4,266.0 375.6,266.0 376.8,266.0 378.0,266.0 379.1,266.0 380.3,266.0 381.5,266.0 382.7,266.0 383.9,266.0 385.1,266.0 386.3,266.0 387.5,266.0 388.6,266.0 389.8,266.0 391.0,266.0 392.2,266.0 393.4,266.0 394.6,266.0 395.8,266.0 396.9,266.0 398.1,266.0 399.3,266.0 400.5,266.0 401.7,266.0 402.9,266.0 404.1,266.0 405.3,266.0 406.4,266.0 407.6,266.0 408.8,266.0 410.0,266.0 411.2,266.0 412.4,266.0 413.6,266.0 414.7,266.0 415.9,266.0 417.1,266.0 418.3,266.0 419.5,266.0 420.7,266.0 421.9,266.0 423.1,266.0 424.2,266.0 425.4,266.0 426.6,266.0 427.8,266.0 429.0,266.0 430.2,266.0 431.4,266.0 432.5,266.0 433.7,266.0 434.9,266.0 436.1,266.0 437.3,266.0 438.5,266.0 439.7,266.0 440.9,266.0 442.0,266.0 443.2,266.0 444.4,266.0 445.6,266.0 446.8,266.0 448.0,266.0 449.2,266.0 450.3,266.0 451.5,266.0 452.7,266.0 453.9,266.0 455.1,266.0 456.3,266.0 457.5,266.0 458.7,266.0 459.8,266.0 461.0,266.0 462.2,266.0 463.4,266.0 464.6,266.0 465.8,266.0 467.0,266.0 468.1,266.0 469.3,266.0 470.5,266.0 471.7,266.0 472.9,266.0 474.1,266.0 475.3,266.0 476.5,266.0 477.6,266.0 478.8,266.0 480.0,266.0 481.2,266.0 482.4,266.0 483.6,266.0 484.8,266.0 485.9,266.0 487.1,266.0 488.3,266.0 489.5,266.0 490.7,266.0 491.9,266.0 493.1,266.0 494.3,266.0 495.4,266.0 496.6,266.0 497.8,266.0 499.0,266.0 500.2,266.0 501.4,266.0 502.6,266.0 503.7,266.0 504.9,266.0 506.1,266.0 507.3,266.0 508.5,266.0 509.7,266.0 510.9,266.0 512.1,266.0 513.2,266.0 514.4,266.0 515.6,266.0 516.8,266.0 518.0,266.0 519.2,266.0 520.4,266.0 521.5,266.0 522.7,266.0 523.9,266.0 525.1,266.0 526.3,266.0 527.5,266.0 528.7,266.0 529.9,266.0 531.0,266.0 532.2,266.0 533.4,266.0 534.6,266.0 535.8,266.0 537.0,266.0 538.2,266.0 539.3,266.0 540.5,266.0 541.7,266.0 542.9,266.0 544.1,266.0 545.3,266.0 546.5,266.0 547.7,266.0 548.8,266.0 550.0,266.0 551.2,266.0 552.4,266.0 553.6,266.0 554.8,266.0 556.0,266.0 557.1,266.0 558.3,266.0 559.5,266.0 560.7,266.0 561.9,266.0 563.1,266.0 564.3,266.0 565.5,266.0 566.6,266.0 567.8,266.0 569.0,266.0 570.2,266.0 571.4,266.0 572.6,266.0 573.8,266.0 574.9,266.0 576.1,266.0 577.3,266.0 578.5,266.0 579.7,266.0 580.9,266.0 582.1,266.0 583.3,266.0 584.4,266.0 585.6,266.0 586.8,266.0 588.0,266.0 589.2,266.0 590.4,266.0 591.6,266.0 592.7,266.0 593.9,266.0 595.1,266.0 596.3,266.0 597.5,266.0 598.7,266.0 599.9,266.0 601.1,266.0 602.2,266.0 603.4,266.0 604.6,266.0 605.8,266.0 607.0,266.0 608.2,266.0 609.4,266.0 610.5,266.0 611.7,266.0 612.9,266.0 614.1,266.0 615.3,266.0 616.5,266.0 617.7,266.0 618.9,266.0 620.0,266.0 621.2,266.0 622.4,266.0 623.6,266.0 624.8,266.0 626.0,266.0 627.2,266.0 628.3,266.0 629.5,266.0 630.7,266.0 631.9,266.0 633.1,266.0 634.3,266.0 635.5,266.0 636.7,266.0 637.8,266.0 639.0,266.0 640.2,266.0 641.4,266.0 642.6,266.0 643.8,266.0 645.0,266.0 646.1,266.0 647.3,266.0 648.5,266.0 649.7,266.0 650.9,266.0 652.1,266.0 653.3,266.0 654.5,266.0 655.6,266.0 656.8,266.0 658.0,266.0 659.2,266.0 660.4,266.0 661.6,266.0 662.8,266.0 663.9,266.0 665.1,266.0 666.3,266.0 667.5,266.0 668.7,266.0 669.9,266.0 671.1,266.0 672.3,266.0 673.4,266.0 674.6,266.0 675.8,266.0 677.0,266.0 678.2,266.0 679.4,266.0 680.6,266.0 681.7,266.0 682.9,266.0 684.1,266.0 685.3,266.0 686.5,266.0 687.7,266.0 688.9,266.0 690.1,266.0 691.2,266.0 692.4,266.0 693.6,266.0 694.8,266.0 696.0,266.0 697.2,266.0 698.4,266.0 699.5,266.0 700.7,266.0 701.9,266.0 703.1,266.0 704.3,266.0 705.5,266.0 706.7,266.0 707.9,266.0 709.0,266.0 710.2,266.0 711.4,266.0 712.6,266.0 713.8,266.0 715.0,266.0 716.2,266.0 717.3,266.0 718.5,266.0 719.7,266.0 720.9,266.0 722.1,266.0 723.3,266.0 724.5,266.0 725.7,266.0 726.8,266.0 728.0,266.0 729.2,266.0 730.4,266.0 731.6,266.0 732.8,266.0 734.0,266.0 735.1,266.0 736.3,266.0 737.5,266.0 738.7,266.0 739.9,266.0 741.1,266.0 742.3,266.0 743.5,266.0 744.6,266.0 745.8,266.0 747.0,266.0 748.2,266.0 749.4,266.0 750.6,266.0 751.8,266.0 752.9,266.0 754.1,266.0 755.3,266.0 756.5,266.0 757.7,266.0 758.9,266.0 760.1,266.0 761.3,266.0 762.4,266.0 763.6,266.0 764.8,266.0 766.0,266.0"/>
<line x1="606" y1="60" x2="628" y2="60" stroke="#24a148" stroke-width="2.2"/>
<text x="634" y="64" font-family="Arial" font-size="12">beta_deg</text>
</svg>