<svg xmlns="http://www.w3.org/2000/svg" width="820" height="320" viewBox="0 0 820 320">
<rect width="100%" height="100%" fill="#ffffff"/>
<text x="54" y="28" font-family="Arial" font-size="18" font-weight="700">Mach Number</text>
<line x1="54" y1="266" x2="766" y2="266" stroke="#1f2933"/>
<line x1="54" y1="54" x2="54" y2="266" stroke="#1f2933"/>
<text x="54" y="306" font-family="Arial" font-size="12">time (s)</text>
<text x="596" y="306" font-family="Arial" font-size="12">Mach</text>
<text x="58" y="68" font-family="Arial" font-size="11">0.779</text>
<text x="58" y="260" font-family="Arial" font-size="11">0.251</text>
<polyline fill="none" stroke="#0f62fe" stroke-width="2.2" points="54.0,266.0 55.2,265.4 56.4,264.8 57.6,264.3 58.7,263.7 59.9,263.0 61.1,262.4 62.3,261.8 63.5,261.2 64.7,260.5 65.9,259.8 67.1,259.2 68.2,258.5 69.4,257.8 70.6,257.1 71.8,256.4 73.0,255.7 74.2,255.0 75.4,254.3 76.5,253.6 77.7,252.9 78.9,252.2 80.1,251.5 81.3,250.8 82.5,250.1 83.7,249.4 84.9,248.7 86.0,248.0 87.2,247.3 88.4,246.6 89.6,245.9 90.8,245.2 92.0,244.5 93.2,243.8 94.3,243.1 95.5,242.4 96.7,241.8 97.9,241.1 99.1,240.4 100.3,239.7 101.5,239.0 102.7,238.3 103.8,237.6 105.0,237.0 106.2,236.3 107.4,235.6 108.6,234.9 109.8,234.2 111.0,233.5 112.1,232.9 113.3,232.2 114.5,231.5 115.7,230.8 116.9,230.2 118.1,229.5 119.3,228.8 120.5,228.1 121.6,227.5 122.8,226.8 124.0,226.1 125.2,225.5 126.4,224.8 127.6,224.1 128.8,223.5 129.9,222.8 131.1,222.1 132.3,221.5 133.5,220.8 134.7,220.1 135.9,219.5 137.1,218.8 138.3,218.2 139.4,217.5 140.6,216.9 141.8,216.2 143.0,215.5 144.2,214.9 145.4,214.2 146.6,213.6 147.7,212.9 148.9,212.3 150.1,211.6 151.3,211.0 152.5,210.4 153.7,209.7 154.9,209.1 156.1,208.4 157.2,207.8 158.4,207.1 159.6,206.5 160.8,205.9 162.0,205.2 163.2,204.6 164.4,204.0 165.5,203.3 166.7,202.7 167.9,202.1 169.1,201.5 170.3,200.8 171.5,200.2 172.7,199.6 173.9,199.0 175.0,198.3 176.2,197.7 177.4,197.1 178.6,196.5 179.8,195.9 181.0,195.3 182.2,194.7 183.3,194.0 184.5,193.4 185.7,192.8 186.9,192.2 188.1,191.6 189.3,191.0 190.5,190.4 191.7,189.8 192.8,189.2 194.0,188.6 195.2,188.0 196.4,187.4 197.6,186.8 198.8,186.3 200.0,185.7 201.1,185.1 202.3,184.5 203.5,183.9 204.7,183.3 205.9,182.7 207.1,182.2 208.3,181.6 209.5,181.0 210.6,180.4 211.8,179.8 213.0,179.3 214.2,178.7 215.4,178.1 216.6,177.6 217.8,177.0 218.9,176.4 220.1,175.9 221.3,175.3 222.5,174.7 223.7,174.2 224.9,173.6 226.1,173.0 227.3,172.5 228.4,171.9 229.6,171.4 230.8,170.8 232.0,170.2 233.2,169.7 234.4,169.1 235.6,168.6 236.7,168.0 237.9,167.5 239.1,166.9 240.3,166.4 241.5,165.8 242.7,165.3 243.9,164.7 245.1,164.2 246.2,163.6 247.4,163.1 248.6,162.6 249.8,162.0 251.0,161.5 252.2,160.9 253.4,160.4 254.5,159.9 255.7,159.3 256.9,158.8 258.1,158.2 259.3,157.7 260.5,157.2 261.7,156.6 262.9,156.1 264.0,155.6 265.2,155.1 266.4,154.5 267.6,154.0 268.8,153.5 270.0,152.9 271.2,152.4 272.3,151.9 273.5,151.4 274.7,150.8 275.9,150.3 277.1,149.8 278.3,149.3 279.5,148.8 280.7,148.2 281.8,147.7 283.0,147.2 284.2,146.7 285.4,146.2 286.6,145.7 287.8,145.1 289.0,144.6 290.1,144.1 291.3,143.6 292.5,143.0 293.7,142.6 294.9,142.0 296.1,141.5 297.3,141.0 298.5,140.5 299.6,140.0 300.8,139.5 302.0,139.0 303.2,138.5 304.4,138.0 305.6,137.5 306.8,136.9 307.9,136.4 309.1,135.9 310.3,135.4 311.5,134.9 312.7,134.4 313.9,133.9 315.1,133.4 316.3,132.9 317.4,132.4 318.6,131.9 319.8,131.4 321.0,130.9 322.2,130.4 323.4,129.9 324.6,129.5 325.7,129.0 326.9,128.5 328.1,128.0 329.3,127.5 330.5,127.1 331.7,126.6 332.9,126.1 334.1,125.7 335.2,125.2 336.4,124.7 337.6,124.2 338.8,123.8 340.0,123.3 341.2,122.9 342.4,122.4 343.5,122.0 344.7,121.5 345.9,121.1 347.1,120.6 348.3,120.2 349.5,119.7 350.7,119.2 351.9,118.8 353.0,118.3 354.2,117.9 355.4,117.4 356.6,117.0 357.8,116.5 359.0,116.1 360.2,115.6 361.3,115.1 362.5,114.7 363.7,114.2 364.9,113.8 366.1,113.3 367.3,112.9 368.5,112.4 369.7,112.0 370.8,111.6 372.0,111.1 373.2,110.7 374.4,110.2 375.6,109.8 376.8,109.4 378.0,108.9 379.1,108.5 380.3,108.0 381.5,107.6 382.7,107.2 383.9,106.7 385.1,106.3 386.3,105.9 387.5,105.4 388.6,105.0 389.8,104.6 391.0,104.2 392.2,103.7 393.4,103.3 394.6,102.9 395.8,102.5 396.9,102.0 398.1,101.6 399.3,101.2 400.5,100.8 401.7,100.4 402.9,100.0 404.1,99.5 405.3,99.2 406.4,98.7 407.6,98.3 408.8,97.9 410.0,97.5 411.2,97.1 412.4,96.7 413.6,96.3 414.7,95.9 415.9,95.5 417.1,95.1 418.3,94.7 419.5,94.3 420.7,93.9 421.9,93.6 423.1,93.2 424.2,92.8 425.4,92.4 426.6,92.0 427.8,91.6 429.0,91.2 430.2,90.8 431.4,90.4 432.5,90.0 433.7,89.7 434.9,89.3 436.1,88.9 437.3,88.5 438.5,88.1 439.7,87.7 440.9,87.4 442.0,87.0 443.2,86.6 444.4,86.2 445.6,85.9 446.8,85.5 448.0,85.1 449.2,84.7 450.3,84.4 451.5,84.0 452.7,83.6 453.9,83.3 455.1,82.9 456.3,82.5 457.5,82.2 458.7,81.8 459.8,81.5 461.0,81.1 462.2,80.7 463.4,80.4 464.6,80.0 465.8,79.7 467.0,79.3 468.1,79.0 469.3,78.6 470.5,78.3 471.7,77.9 472.9,77.6 474.1,77.2 475.3,76.9 476.5,76.5 477.6,76.2 478.8,75.9 480.0,75.5 481.2,75.2 482.4,74.8 483.6,74.5 484.8,74.2 485.9,73.9 487.1,73.5 488.3,73.2 489.5,72.9 490.7,72.5 491.9,72.2 493.1,71.9 494.3,71.6 495.4,71.3 496.6,70.9 497.8,70.6 499.0,70.3 500.2,70.0 501.4,69.7 502.6,69.4 503.7,69.0 504.9,68.7 506.1,68.4 507.3,68.1 508.5,67.8 509.7,67.5 510.9,67.2 512.1,66.9 513.2,66.6 514.4,66.3 515.6,66.0 516.8,65.7 518.0,65.4 519.2,65.1 520.4,64.8 521.5,64.5 522.7,64.2 523.9,64.0 525.1,63.7 526.3,63.4 527.5,63.1 528.7,62.8 529.9,62.5 531.0,62.3 532.2,62.0 533.4,61.7 534.6,61.4 535.8,61.2 537.0,60.9 538.2,60.6 539.3,60.3 540.5,60.1 541.7,59.8 542.9,59.5 544.1,59.3 545.3,59.0 546.5,58.7 547.7,58.5 548.8,58.2 550.0,58.0 551.2,57.7 552.4,57.5 553.6,57.2 554.8,56.9 556.0,56.7 557.1,56.4 558.3,56.2 559.5,55.9 560.7,55.7 561.9,55.5 563.1,55.2 564.3,55.0 565.5,54.7 566.6,54.5 567.8,54.2 569.0,54.0 570.2,54.6 571.4,55.2 572.6,55.8 573.8,56.4 574.9,56.9 576.1,57.5 577.3,58.1 578.5,58.7 579.7,59.3 580.9,59.8 582.1,60.4 583.3,61.0 584.4,61.5 585.6,62.1 586.8,62.6 588.0,63.2 589.2,63.8 590.4,64.3 591.6,64.9 592.7,65.4 593.9,66.0 595.1,66.5 596.3,67.0 597.5,67.6 598.7,68.1 599.9,68.7 601.1,69.2 602.2,69.7 603.4,70.2 604.6,70.8 605.8,71.3 607.0,71.8 608.2,72.3 609.4,72.8 610.5,73.3 611.7,73.9 612.9,74.4 614.1,74.9 615.3,75.4 616.5,75.9 617.7,76.4 618.9,76.9 620.0,77.4 621.2,77.9 622.4,78.4 623.6,78.9 624.8,79.3 626.0,79.8 627.2,80.3 628.3,80.8 629.5,81.3 630.7,81.8 631.9,82.2 633.1,82.7 634.3,83.2 635.5,83.7 636.7,84.1 637.8,84.6 639.0,85.0 640.2,85.5 641.4,86.0 642.6,86.5 643.8,86.9 645.0,87.4 646.1,87.8 647.3,88.3 648.5,88.7 649.7,89.2 650.9,89.6 652.1,90.1 653.3,90.5 654.5,91.0 655.6,91.4 656.8,91.8 658.0,92.3 659.2,92.7 660.4,93.1 661.6,93.6 662.8,94.0 663.9,94.5 665.1,94.9 666.3,95.3 667.5,95.7 668.7,96.2 669.9,96.6 671.1,97.0 672.3,97.4 673.4,97.8 674.6,98.2 675.8,98.7 677.0,99.1 678.2,99.5 679.4,99.9 680.6,100.3 681.7,100.7 682.9,101.1 684.1,101.5 685.3,102.0 686.5,102.3 687.7,102.8 688.9,103.1 690.1,103.6 691.2,103.9 692.4,104.3 693.6,104.7 694.8,105.1 696.0,105.5 697.2,105.9 698.4,106.3 699.5,106.7 700.7,107.1 701.9,107.5 703.1,107.8 704.3,108.2 705.5,108.6 706.7,109.0 707.9,109.4 709.0,109.7 710.2,110.1 711.4,110.5 712.6,110.9 713.8,111.2 715.0,111.6 716.2,112.0 717.3,112.3 718.5,112.7 719.7,113.1 720.9,113.4 722.1,113.8 723.3,114.2 724.5,114.5 725.7,114.9 726.8,115.2 728.0,115.6 729.2,116.0 730.4,116.3 731.6,116.7 732.8,117.0 734.0,117.4 735.1,117.7 736.3,118.1 737.5,118.4 738.7,118.8 739.9,119.1 741.1,119.5 742.3,119.8 743.5,120.2 744.6,120.5 745.8,120.8 747.0,121.2 748.2,121.5 749.4,121.9 750.6,122.2 751.8,122.5 752.9,122.9 754.1,123.2 755.3,123.5 756.5,123.9 757.7,124.2 758.9,124.5 760.1,124.8 761.3,125.2 762.4,125.5 763.6,125.8 764.8,126.2 766.0,126.5"/>
<line x1="606" y1="42" x2="628" y2="42" stroke="#0f62fe" stroke-width="2.2"/>
<text x="634" y="46" font-family="Arial" font-size="12">mach</text>
</svg>