<svg xmlns="http://www.w3.org/2000/svg" width="820" height="320" viewBox="0 0 820 320">
<rect width="100%" height="100%" fill="#ffffff"/>
<text x="54" y="28" font-family="Arial" font-size="18" font-weight="700">GPS Altitude vs Truth</text>
<line x1="54" y1="266" x2="766" y2="266" stroke="#1f2933"/>
<line x1="54" y1="54" x2="54" y2="266" stroke="#1f2933"/>
<text x="54" y="306" font-family="Arial" font-size="12">time (s)</text>
<text x="596" y="306" font-family="Arial" font-size="12">altitude (m)</text>
<text x="58" y="68" font-family="Arial" font-size="11">362</text>
<text x="58" y="260" font-family="Arial" font-size="11">18.5</text>
<polyline fill="none" stroke="#0f62fe" stroke-width="2.2" points="54.0,265.1 55.2,264.9 56.4,264.8 57.6,264.7 58.7,264.5 59.9,264.4 61.1,264.3 62.3,264.2 63.5,264.0 64.7,263.9 65.9,263.8 67.1,263.7 68.2,263.6 69.4,263.5 70.6,263.4 71.8,263.3 73.0,263.2 74.2,263.1 75.4,263.0 76.5,262.9 77.7,262.8 78.9,262.7 80.1,262.6 81.3,262.5 82.5,262.4 83.7,262.3 84.9,262.3 86.0,262.2 87.2,262.1 88.4,262.0 89.6,261.9 90.8,261.9 92.0,261.8 93.2,261.7 94.3,261.6 95.5,261.6 96.7,261.5 97.9,261.4 99.1,261.4 100.3,261.3 101.5,261.3 102.7,261.2 103.8,261.1 105.0,261.1 106.2,261.0 107.4,261.0 108.6,260.9 109.8,260.9 111.0,260.8 112.1,260.8 113.3,260.7 114.5,260.6 115.7,260.6 116.9,260.6 118.1,260.5 119.3,260.5 120.5,260.4 121.6,260.4 122.8,260.3 124.0,260.3 125.2,260.2 126.4,260.2 127.6,260.2 128.8,260.1 129.9,260.1 131.1,260.0 132.3,260.0 133.5,259.9 134.7,259.9 135.9,259.9 137.1,259.8 138.3,259.8 139.4,259.8 140.6,259.7 141.8,259.7 143.0,259.6 144.2,259.6 145.4,259.6 146.6,259.5 147.7,259.5 148.9,259.5 150.1,259.4 151.3,259.4 152.5,259.3 153.7,259.3 154.9,259.3 156.1,259.2 157.2,259.2 158.4,259.2 159.6,259.1 160.8,259.1 162.0,259.0 163.2,259.0 164.4,259.0 165.5,258.9 166.7,258.9 167.9,258.8 169.1,258.8 170.3,258.8 171.5,258.7 172.7,258.7 173.9,258.6 175.0,258.6 176.2,258.5 177.4,258.5 178.6,258.4 179.8,258.4 181.0,258.3 182.2,258.3 183.3,258.2 184.5,258.1 185.7,258.1 186.9,258.0 188.1,258.0 189.3,257.9 190.5,257.8 191.7,257.8 192.8,257.7 194.0,257.6 195.2,257.6 196.4,257.5 197.6,257.4 198.8,257.3 200.0,257.3 201.1,257.2 202.3,257.1 203.5,257.0 204.7,256.9 205.9,256.8 207.1,256.8 208.3,256.7 209.5,256.6 210.6,256.5 211.8,256.4 213.0,256.3 214.2,256.2 215.4,256.1 216.6,256.0 217.8,255.8 218.9,255.7 220.1,255.6 221.3,255.5 222.5,255.4 223.7,255.3 224.9,255.1 226.1,255.0 227.3,254.9 228.4,254.7 229.6,254.6 230.8,254.5 232.0,254.3 233.2,254.2 234.4,254.0 235.6,253.9 236.7,253.7 237.9,253.6 239.1,253.4 240.3,253.3 241.5,253.1 242.7,252.9 243.9,252.8 245.1,252.6 246.2,252.4 247.4,252.2 248.6,252.1 249.8,251.9 251.0,251.7 252.2,251.5 253.4,251.3 254.5,251.1 255.7,250.9 256.9,250.7 258.1,250.5 259.3,250.3 260.5,250.1 261.7,249.9 262.9,249.7 264.0,249.5 265.2,249.2 266.4,249.0 267.6,248.8 268.8,248.6 270.0,248.3 271.2,248.1 272.3,247.9 273.5,247.6 274.7,247.4 275.9,247.1 277.1,246.9 278.3,246.6 279.5,246.4 280.7,246.1 281.8,245.8 283.0,245.6 284.2,245.3 285.4,245.0 286.6,244.8 287.8,244.5 289.0,244.2 290.1,243.9 291.3,243.7 292.5,243.4 293.7,243.1 294.9,242.8 296.1,242.5 297.3,242.2 298.5,241.9 299.6,241.6 300.8,241.3 302.0,241.0 303.2,240.7 304.4,240.4 305.6,240.1 306.8,239.7 307.9,239.4 309.1,239.1 310.3,238.8 311.5,238.5 312.7,238.1 313.9,237.8 315.1,237.5 316.3,237.1 317.4,236.8 318.6,236.5 319.8,236.1 321.0,235.8 322.2,235.4 323.4,235.1 324.6,234.7 325.7,234.4 326.9,234.0 328.1,233.6 329.3,233.3 330.5,232.9 331.7,232.5 332.9,232.2 334.1,231.8 335.2,231.4 336.4,231.0 337.6,230.6 338.8,230.2 340.0,229.8 341.2,229.4 342.4,229.0 343.5,228.6 344.7,228.2 345.9,227.8 347.1,227.4 348.3,226.9 349.5,226.5 350.7,226.1 351.9,225.6 353.0,225.2 354.2,224.8 355.4,224.3 356.6,223.9 357.8,223.4 359.0,223.0 360.2,222.5 361.3,222.1 362.5,221.6 363.7,221.1 364.9,220.7 366.1,220.2 367.3,219.7 368.5,219.2 369.7,218.8 370.8,218.3 372.0,217.8 373.2,217.3 374.4,216.8 375.6,216.3 376.8,215.9 378.0,215.4 379.1,214.9 380.3,214.4 381.5,213.9 382.7,213.4 383.9,212.8 385.1,212.3 386.3,211.8 387.5,211.3 388.6,210.8 389.8,210.3 391.0,209.8 392.2,209.2 393.4,208.7 394.6,208.2 395.8,207.7 396.9,207.1 398.1,206.6 399.3,206.1 400.5,205.5 401.7,205.0 402.9,204.4 404.1,203.9 405.3,203.4 406.4,202.8 407.6,202.3 408.8,201.7 410.0,201.1 411.2,200.6 412.4,200.0 413.6,199.5 414.7,198.9 415.9,198.4 417.1,197.8 418.3,197.2 419.5,196.7 420.7,196.1 421.9,195.5 423.1,194.9 424.2,194.4 425.4,193.8 426.6,193.2 427.8,192.6 429.0,192.0 430.2,191.5 431.4,190.9 432.5,190.3 433.7,189.7 434.9,189.1 436.1,188.5 437.3,187.9 438.5,187.3 439.7,186.7 440.9,186.1 442.0,185.6 443.2,185.0 444.4,184.4 445.6,183.8 446.8,183.2 448.0,182.6 449.2,182.0 450.3,181.4 451.5,180.8 452.7,180.2 453.9,179.6 455.1,179.0 456.3,178.4 457.5,177.8 458.7,177.2 459.8,176.6 461.0,176.0 462.2,175.4 463.4,174.8 464.6,174.2 465.8,173.6 467.0,173.0 468.1,172.4 469.3,171.8 470.5,171.2 471.7,170.5 472.9,169.9 474.1,169.3 475.3,168.7 476.5,168.1 477.6,167.5 478.8,166.9 480.0,166.3 481.2,165.7 482.4,165.1 483.6,164.5 484.8,163.9 485.9,163.3 487.1,162.7 488.3,162.1 489.5,161.5 490.7,160.9 491.9,160.3 493.1,159.7 494.3,159.1 495.4,158.5 496.6,157.9 497.8,157.3 499.0,156.7 500.2,156.1 501.4,155.5 502.6,154.9 503.7,154.3 504.9,153.6 506.1,153.0 507.3,152.4 508.5,151.8 509.7,151.2 510.9,150.6 512.1,150.0 513.2,149.4 514.4,148.8 515.6,148.2 516.8,147.6 518.0,147.0 519.2,146.4 520.4,145.8 521.5,145.2 522.7,144.6 523.9,144.0 525.1,143.5 526.3,142.9 527.5,142.3 528.7,141.7 529.9,141.1 531.0,140.5 532.2,139.9 533.4,139.3 534.6,138.7 535.8,138.1 537.0,137.5 538.2,136.9 539.3,136.3 540.5,135.7 541.7,135.1 542.9,134.5 544.1,133.9 545.3,133.3 546.5,132.8 547.7,132.2 548.8,131.6 550.0,131.0 551.2,130.4 552.4,129.8 553.6,129.2 554.8,128.6 556.0,128.0 557.1,127.5 558.3,126.9 559.5,126.3 560.7,125.7 561.9,125.1 563.1,124.5 564.3,123.9 565.5,123.4 566.6,122.8 567.8,122.2 569.0,121.6 570.2,121.0 571.4,120.5 572.6,119.9 573.8,119.3 574.9,118.7 576.1,118.2 577.3,117.6 578.5,117.0 579.7,116.5 580.9,115.9 582.1,115.4 583.3,114.8 584.4,114.3 585.6,113.7 586.8,113.2 588.0,112.6 589.2,112.1 590.4,111.5 591.6,111.0 592.7,110.5 593.9,109.9 595.1,109.4 596.3,108.9 597.5,108.4 598.7,107.8 599.9,107.3 601.1,106.8 602.2,106.3 603.4,105.8 604.6,105.2 605.8,104.7 607.0,104.2 608.2,103.7 609.4,103.2 610.5,102.7 611.7,102.2 612.9,101.7 614.1,101.2 615.3,100.7 616.5,100.2 617.7,99.8 618.9,99.3 620.0,98.8 621.2,98.3 622.4,97.8 623.6,97.3 624.8,96.9 626.0,96.4 627.2,95.9 628.3,95.5 629.5,95.0 630.7,94.5 631.9,94.1 633.1,93.6 634.3,93.1 635.5,92.7 636.7,92.2 637.8,91.8 639.0,91.3 640.2,90.9 641.4,90.4 642.6,90.0 643.8,89.6 645.0,89.1 646.1,88.7 647.3,88.2 648.5,87.8 649.7,87.4 650.9,86.9 652.1,86.5 653.3,86.1 654.5,85.7 655.6,85.2 656.8,84.8 658.0,84.4 659.2,84.0 660.4,83.6 661.6,83.2 662.8,82.8 663.9,82.4 665.1,81.9 666.3,81.5 667.5,81.1 668.7,80.7 669.9,80.3 671.1,79.9 672.3,79.6 673.4,79.2 674.6,78.8 675.8,78.4 677.0,78.0 678.2,77.6 679.4,77.2 680.6,76.8 681.7,76.5 682.9,76.1 684.1,75.7 685.3,75.3 686.5,75.0 687.7,74.6 688.9,74.2 690.1,73.9 691.2,73.5 692.4,73.1 693.6,72.8 694.8,72.4 696.0,72.1 697.2,71.7 698.4,71.3 699.5,71.0 700.7,70.6 701.9,70.3 703.1,70.0 704.3,69.6 705.5,69.3 706.7,68.9 707.9,68.6 709.0,68.2 710.2,67.9 711.4,67.6 712.6,67.2 713.8,66.9 715.0,66.6 716.2,66.3 717.3,65.9 718.5,65.6 719.7,65.3 720.9,65.0 722.1,64.6 723.3,64.3 724.5,64.0 725.7,63.7 726.8,63.4 728.0,63.1 729.2,62.8 730.4,62.5 731.6,62.1 732.8,61.8 734.0,61.5 735.1,61.2 736.3,60.9 737.5,60.6 738.7,60.3 739.9,60.1 741.1,59.8 742.3,59.5 743.5,59.2 744.6,58.9 745.8,58.6 747.0,58.3 748.2,58.0 749.4,57.8 750.6,57.5 751.8,57.2 752.9,56.9 754.1,56.7 755.3,56.4 756.5,56.1 757.7,55.8 758.9,55.6 760.1,55.3 761.3,55.0 762.4,54.8 763.6,54.5 764.8,54.3 766.0,54.0"/>
<line x1="606" y1="42" x2="628" y2="42" stroke="#0f62fe" stroke-width="2.2"/>
<text x="634" y="46" font-family="Arial" font-size="12">altitude_m</text>
<polyline fill="none" stroke="#24a148" stroke-width="2.2" points="54.0,266.0 55.2,266.0 56.4,266.0 57.6,266.0 58.7,266.0 59.9,266.0 61.1,266.0 62.3,265.3 63.5,265.3 64.7,265.3 65.9,265.3 67.1,265.3 68.2,265.3 69.4,265.3 70.6,264.7 71.8,264.7 73.0,264.7 74.2,264.7 75.4,264.7 76.5,264.7 77.7,264.7 78.9,262.8 80.1,262.8 81.3,262.8 82.5,262.8 83.7,262.8 84.9,262.8 86.0,262.8 87.2,263.5 88.4,263.5 89.6,263.5 90.8,263.5 92.0,263.5 93.2,263.5 94.3,263.5 95.5,262.9 96.7,262.9 97.9,262.9 99.1,262.9 100.3,262.9 101.5,262.9 102.7,262.9 103.8,262.2 105.0,262.2 106.2,262.2 107.4,262.2 108.6,262.2 109.8,262.2 111.0,262.2 112.1,261.2 113.3,261.2 114.5,261.2 115.7,261.2 116.9,261.2 118.1,261.2 119.3,261.2 120.5,260.2 121.6,260.2 122.8,260.2 124.0,260.2 125.2,260.2 126.4,260.2 127.6,260.2 128.8,260.0 129.9,260.0 131.1,260.0 132.3,260.0 133.5,260.0 134.7,260.0 135.9,260.0 137.1,259.9 138.3,259.9 139.4,259.9 140.6,259.9 141.8,259.9 143.0,259.9 144.2,259.9 145.4,259.2 146.6,259.2 147.7,259.2 148.9,259.2 150.1,259.2 151.3,259.2 152.5,259.2 153.7,259.7 154.9,259.7 156.1,259.7 157.2,259.7 158.4,259.7 159.6,259.7 160.8,259.7 162.0,259.1 163.2,259.1 164.4,259.1 165.5,259.1 166.7,259.1 167.9,259.1 169.1,259.1 170.3,259.6 171.5,259.6 172.7,259.6 173.9,259.6 175.0,259.6 176.2,259.6 177.4,259.6 178.6,259.5 179.8,259.5 181.0,259.5 182.2,259.5 183.3,259.5 184.5,259.5 185.7,259.5 186.9,258.8 188.1,258.8 189.3,258.8 190.5,258.8 191.7,258.8 192.8,258.8 194.0,258.8 195.2,257.4 196.4,257.4 197.6,257.4 198.8,257.4 200.0,257.4 201.1,257.4 202.3,257.4 203.5,257.8 204.7,257.8 205.9,257.8 207.1,257.8 208.3,257.8 209.5,257.8 210.6,257.8 211.8,255.1 213.0,255.1 214.2,255.1 215.4,255.1 216.6,255.1 217.8,255.1 218.9,255.1 220.1,256.1 221.3,256.1 222.5,256.1 223.7,256.1 224.9,256.1 226.1,256.1 227.3,256.1 228.4,253.9 229.6,253.9 230.8,253.9 232.0,253.9 233.2,253.9 234.4,253.9 235.6,253.9 236.7,254.1 237.9,254.1 239.1,254.1 240.3,254.1 241.5,254.1 242.7,254.1 243.9,254.1 245.1,251.8 246.2,251.8 247.4,251.8 248.6,251.8 249.8,251.8 251.0,251.8 252.2,251.8 253.4,251.2 254.5,251.2 255.7,251.2 256.9,251.2 258.1,251.2 259.3,251.2 260.5,251.2 261.7,249.5 262.9,249.5 264.0,249.5 265.2,249.5 266.4,249.5 267.6,249.5 268.8,249.5 270.0,247.8 271.2,247.8 272.3,247.8 273.5,247.8 274.7,247.8 275.9,247.8 277.1,247.8 278.3,246.0 279.5,246.0 280.7,246.0 281.8,246.0 283.0,246.0 284.2,246.0 285.4,246.0 286.6,243.6 287.8,243.6 289.0,243.6 290.1,243.6 291.3,243.6 292.5,243.6 293.7,243.6 294.9,242.3 296.1,242.3 297.3,242.3 298.5,242.3 299.6,242.3 300.8,242.3 302.0,242.3 303.2,239.5 304.4,239.5 305.6,239.5 306.8,239.5 307.9,239.5 309.1,239.5 310.3,239.5 311.5,237.3 312.7,237.3 313.9,237.3 315.1,237.3 316.3,237.3 317.4,237.3 318.6,237.3 319.8,235.4 321.0,235.4 322.2,235.4 323.4,235.4 324.6,235.4 325.7,235.4 326.9,235.4 328.1,234.6 329.3,234.6 330.5,234.6 331.7,234.6 332.9,234.6 334.1,234.6 335.2,234.6 336.4,230.2 337.6,230.2 338.8,230.2 340.0,230.2 341.2,230.2 342.4,230.2 343.5,230.2 344.7,227.7 345.9,227.7 347.1,227.7 348.3,227.7 349.5,227.7 350.7,227.7 351.9,227.7 353.0,225.4 354.2,225.4 355.4,225.4 356.6,225.4 357.8,225.4 359.0,225.4 360.2,225.4 361.3,222.1 362.5,222.1 363.7,222.1 364.9,222.1 366.1,222.1 367.3,222.1 368.5,222.1 369.7,219.5 370.8,219.5 372.0,219.5 373.2,219.5 374.4,219.5 375.6,219.5 376.8,219.5 378.0,215.3 379.1,215.3 380.3,215.3 381.5,215.3 382.7,215.3 383.9,215.3 385.1,215.3 386.3,211.8 387.5,211.8 388.6,211.8 389.8,211.8 391.0,211.8 392.2,211.8 393.4,211.8 394.6,208.3 395.8,208.3 396.9,208.3 398.1,208.3 399.3,208.3 400.5,208.3 401.7,208.3 402.9,203.4 404.1,203.4 405.3,203.4 406.4,203.4 407.6,203.4 408.8,203.4 410.0,203.4 411.2,200.7 412.4,200.7 413.6,200.7 414.7,200.7 415.9,200.7 417.1,200.7 418.3,200.7 419.5,195.9 420.7,195.9 421.9,195.9 423.1,195.9 424.2,195.9 425.4,195.9 426.6,195.9 427.8,193.1 429.0,193.1 430.2,193.1 431.4,193.1 432.5,193.1 433.7,193.1 434.9,193.1 436.1,188.0 437.3,188.0 438.5,188.0 439.7,188.0 440.9,188.0 442.0,188.0 443.2,188.0 444.4,183.9 445.6,183.9 446.8,183.9 448.0,183.9 449.2,183.9 450.3,183.9 451.5,183.9 452.7,181.9 453.9,181.9 455.1,181.9 456.3,181.9 457.5,181.9 458.7,181.9 459.8,181.9 461.0,175.0 462.2,175.0 463.4,175.0 464.6,175.0 465.8,175.0 467.0,175.0 468.1,175.0 469.3,172.8 470.5,172.8 471.7,172.8 472.9,172.8 474.1,172.8 475.3,172.8 476.5,172.8 477.6,167.8 478.8,167.8 480.0,167.8 481.2,167.8 482.4,167.8 483.6,167.8 484.8,167.8 485.9,162.8 487.1,162.8 488.3,162.8 489.5,162.8 490.7,162.8 491.9,162.8 493.1,162.8 494.3,157.4 495.4,157.4 496.6,157.4 497.8,157.4 499.0,157.4 500.2,157.4 501.4,157.4 502.6,153.5 503.7,153.5 504.9,153.5 506.1,153.5 507.3,153.5 508.5,153.5 509.7,153.5 510.9,150.6 512.1,150.6 513.2,150.6 514.4,150.6 515.6,150.6 516.8,150.6 518.0,150.6 519.2,147.0 520.4,147.0 521.5,147.0 522.7,147.0 523.9,147.0 525.1,147.0 526.3,147.0 527.5,142.2 528.7,142.2 529.9,142.2 531.0,142.2 532.2,142.2 533.4,142.2 534.6,142.2 535.8,137.7 537.0,137.7 538.2,137.7 539.3,137.7 540.5,137.7 541.7,137.7 542.9,137.7 544.1,132.7 545.3,132.7 546.5,132.7 547.7,132.7 548.8,132.7 550.0,132.7 551.2,132.7 552.4,129.7 553.6,129.7 554.8,129.7 556.0,129.7 557.1,129.7 558.3,129.7 559.5,129.7 560.7,125.6 561.9,125.6 563.1,125.6 564.3,125.6 565.5,125.6 566.6,125.6 567.8,125.6 569.0,121.7 570.2,121.7 571.4,121.7 572.6,121.7 573.8,121.7 574.9,121.7 576.1,121.7 577.3,118.3 578.5,118.3 579.7,118.3 580.9,118.3 582.1,118.3 583.3,118.3 584.4,118.3 585.6,114.2 586.8,114.2 588.0,114.2 589.2,114.2 590.4,114.2 591.6,114.2 592.7,114.2 593.9,111.9 595.1,111.9 596.3,111.9 597.5,111.9 598.7,111.9 599.9,111.9 601.1,111.9 602.2,107.4 603.4,107.4 604.6,107.4 605.8,107.4 607.0,107.4 608.2,107.4 609.4,107.4 610.5,102.6 611.7,102.6 612.9,102.6 614.1,102.6 615.3,102.6 616.5,102.6 617.7,102.6 618.9,100.3 620.0,100.3 621.2,100.3 622.4,100.3 623.6,100.3 624.8,100.3 626.0,100.3 627.2,94.9 628.3,94.9 629.5,94.9 630.7,94.9 631.9,94.9 633.1,94.9 634.3,94.9 635.5,92.9 636.7,92.9 637.8,92.9 639.0,92.9 640.2,92.9 641.4,92.9 642.6,92.9 643.8,89.0 645.0,89.0 646.1,89.0 647.3,89.0 648.5,89.0 649.7,89.0 650.9,89.0 652.1,86.6 653.3,86.6 654.5,86.6 655.6,86.6 656.8,86.6 658.0,86.6 659.2,86.6 660.4,84.0 661.6,84.0 662.8,84.0 663.9,84.0 665.1,84.0 666.3,84.0 667.5,84.0 668.7,80.1 669.9,80.1 671.1,80.1 672.3,80.1 673.4,80.1 674.6,80.1 675.8,80.1 677.0,78.0 678.2,78.0 679.4,78.0 680.6,78.0 681.7,78.0 682.9,78.0 684.1,78.0 685.3,76.0 686.5,76.0 687.7,76.0 688.9,76.0 690.1,76.0 691.2,76.0 692.4,76.0 693.6,73.4 694.8,73.4 696.0,73.4 697.2,73.4 698.4,73.4 699.5,73.4 700.7,73.4 701.9,70.6 703.1,70.6 704.3,70.6 705.5,70.6 706.7,70.6 707.9,70.6 709.0,70.6 710.2,66.8 711.4,66.8 712.6,66.8 713.8,66.8 715.0,66.8 716.2,66.8 717.3,66.8 718.5,65.3 719.7,65.3 720.9,65.3 722.1,65.3 723.3,65.3 724.5,65.3 725.7,65.3 726.8,65.2 728.0,65.2 729.2,65.2 730.4,65.2 731.6,65.2 732.8,65.2 734.0,65.2 735.1,60.8 736.3,60.8 737.5,60.8 738.7,60.8 739.9,60.8 741.1,60.8 742.3,60.8 743.5,59.6 744.6,59.6 745.8,59.6 747.0,59.6 748.2,59.6 749.4,59.6 750.6,59.6 751.8,57.2 752.9,57.2 754.1,57.2 755.3,57.2 756.5,57.2 757.7,57.2 758.9,57.2 760.1,56.2 761.3,56.2 762.4,56.2 763.6,56.2 764.8,56.2 766.0,56.2"/>
<line x1="606" y1="60" x2="628" y2="60" stroke="#24a148" stroke-width="2.2"/>
<text x="634" y="64" font-family="Arial" font-size="12">gps_z_m</text>
</svg>