<svg xmlns="http://www.w3.org/2000/svg" width="820" height="320" viewBox="0 0 820 320">
<rect width="100%" height="100%" fill="#ffffff"/>
<text x="54" y="28" font-family="Arial" font-size="18" font-weight="700">Pitch Command Tracking</text>
<line x1="54" y1="266" x2="766" y2="266" stroke="#1f2933"/>
<line x1="54" y1="54" x2="54" y2="266" stroke="#1f2933"/>
<text x="54" y="306" font-family="Arial" font-size="12">time (s)</text>
<text x="596" y="306" font-family="Arial" font-size="12">pitch (deg)</text>
<text x="58" y="68" font-family="Arial" font-size="11">13</text>
<text x="58" y="260" font-family="Arial" font-size="11">5.29</text>
<polyline fill="none" stroke="#0f62fe" stroke-width="2.2" points="54.0,54.0 55.2,54.4 56.4,54.8 57.6,55.2 58.7,55.6 59.9,56.1 61.1,56.5 62.3,56.9 63.5,57.3 64.7,57.7 65.9,58.1 67.1,58.5 68.2,58.9 69.4,59.4 70.6,59.8 71.8,60.2 73.0,60.6 74.2,61.0 75.4,61.4 76.5,61.8 77.7,62.2 78.9,62.7 80.1,63.1 81.3,63.5 82.5,63.9 83.7,64.3 84.9,64.7 86.0,65.1 87.2,65.5 88.4,66.0 89.6,66.4 90.8,66.8 92.0,67.2 93.2,67.6 94.3,68.0 95.5,68.4 96.7,68.8 97.9,69.3 99.1,69.7 100.3,70.1 101.5,70.5 102.7,70.9 103.8,71.3 105.0,71.7 106.2,72.1 107.4,72.6 108.6,73.0 109.8,73.4 111.0,73.8 112.1,74.2 113.3,74.6 114.5,75.0 115.7,75.4 116.9,75.9 118.1,76.3 119.3,76.7 120.5,77.1 121.6,77.5 122.8,77.9 124.0,78.3 125.2,78.7 126.4,79.2 127.6,79.6 128.8,80.0 129.9,80.4 131.1,80.8 132.3,81.2 133.5,81.6 134.7,82.0 135.9,82.4 137.1,82.9 138.3,83.3 139.4,83.7 140.6,84.1 141.8,84.5 143.0,84.9 144.2,85.3 145.4,85.7 146.6,86.2 147.7,86.6 148.9,87.0 150.1,87.4 151.3,87.8 152.5,88.2 153.7,88.6 154.9,89.0 156.1,89.5 157.2,89.9 158.4,90.3 159.6,90.7 160.8,91.1 162.0,91.5 163.2,91.9 164.4,92.3 165.5,92.8 166.7,93.2 167.9,93.6 169.1,94.0 170.3,94.4 171.5,94.8 172.7,95.2 173.9,95.6 175.0,96.1 176.2,96.5 177.4,96.9 178.6,97.3 179.8,97.7 181.0,98.1 182.2,98.5 183.3,98.9 184.5,99.4 185.7,99.8 186.9,100.2 188.1,100.6 189.3,101.0 190.5,101.4 191.7,101.8 192.8,102.2 194.0,102.7 195.2,103.1 196.4,103.5 197.6,103.9 198.8,104.3 200.0,104.7 201.1,105.1 202.3,105.5 203.5,105.9 204.7,106.4 205.9,106.8 207.1,107.2 208.3,107.6 209.5,108.0 210.6,108.4 211.8,108.8 213.0,109.2 214.2,109.7 215.4,110.1 216.6,110.5 217.8,110.9 218.9,111.3 220.1,111.7 221.3,112.1 222.5,112.5 223.7,113.0 224.9,113.4 226.1,113.8 227.3,114.2 228.4,114.6 229.6,115.0 230.8,115.4 232.0,115.8 233.2,116.3 234.4,116.7 235.6,117.1 236.7,117.5 237.9,117.9 239.1,118.3 240.3,118.7 241.5,119.1 242.7,119.6 243.9,120.0 245.1,120.4 246.2,120.8 247.4,121.2 248.6,121.6 249.8,122.0 251.0,122.4 252.2,122.9 253.4,123.3 254.5,123.7 255.7,124.1 256.9,124.5 258.1,124.9 259.3,125.3 260.5,125.7 261.7,126.2 262.9,126.6 264.0,127.0 265.2,127.4 266.4,127.8 267.6,128.2 268.8,128.6 270.0,129.0 271.2,129.5 272.3,129.9 273.5,130.3 274.7,130.7 275.9,131.1 277.1,131.5 278.3,131.9 279.5,132.3 280.7,132.7 281.8,133.2 283.0,133.6 284.2,134.0 285.4,134.4 286.6,134.8 287.8,135.2 289.0,135.6 290.1,136.0 291.3,136.5 292.5,136.8 293.7,137.1 294.9,137.4 296.1,137.7 297.3,138.0 298.5,138.3 299.6,138.6 300.8,138.9 302.0,139.2 303.2,139.6 304.4,139.9 305.6,140.2 306.8,140.5 307.9,140.8 309.1,141.1 310.3,141.4 311.5,141.7 312.7,142.0 313.9,142.3 315.1,142.6 316.3,143.0 317.4,143.3 318.6,143.6 319.8,143.9 321.0,144.2 322.2,144.5 323.4,144.8 324.6,145.1 325.7,145.4 326.9,145.7 328.1,146.0 329.3,146.4 330.5,146.7 331.7,147.0 332.9,147.3 334.1,147.6 335.2,147.9 336.4,148.2 337.6,148.5 338.8,148.8 340.0,149.1 341.2,149.4 342.4,149.8 343.5,150.1 344.7,150.4 345.9,150.7 347.1,151.0 348.3,151.3 349.5,151.6 350.7,151.9 351.9,152.2 353.0,152.5 354.2,152.8 355.4,153.2 356.6,153.5 357.8,153.8 359.0,154.1 360.2,154.4 361.3,154.7 362.5,155.0 363.7,155.3 364.9,155.6 366.1,155.9 367.3,156.3 368.5,156.6 369.7,156.9 370.8,157.2 372.0,157.5 373.2,157.8 374.4,158.1 375.6,158.4 376.8,158.7 378.0,159.0 379.1,159.3 380.3,159.7 381.5,160.0 382.7,160.3 383.9,160.6 385.1,160.9 386.3,161.2 387.5,161.5 388.6,161.8 389.8,162.1 391.0,162.4 392.2,162.7 393.4,163.1 394.6,163.4 395.8,163.7 396.9,164.0 398.1,164.3 399.3,164.6 400.5,164.9 401.7,165.2 402.9,165.5 404.1,165.8 405.3,166.1 406.4,166.5 407.6,166.8 408.8,167.1 410.0,167.4 411.2,167.7 412.4,168.0 413.6,168.3 414.7,168.6 415.9,168.9 417.1,169.2 418.3,169.5 419.5,169.9 420.7,170.2 421.9,170.5 423.1,170.8 424.2,171.1 425.4,171.4 426.6,171.7 427.8,172.0 429.0,172.3 430.2,172.6 431.4,172.9 432.5,173.3 433.7,173.6 434.9,173.9 436.1,174.2 437.3,174.5 438.5,174.8 439.7,175.1 440.9,175.4 442.0,175.7 443.2,176.0 444.4,176.3 445.6,176.7 446.8,177.0 448.0,177.3 449.2,177.6 450.3,177.9 451.5,178.2 452.7,178.5 453.9,178.8 455.1,179.1 456.3,179.4 457.5,179.8 458.7,180.1 459.8,180.4 461.0,180.7 462.2,181.0 463.4,181.3 464.6,181.6 465.8,181.9 467.0,182.2 468.1,182.5 469.3,182.8 470.5,183.2 471.7,183.5 472.9,183.8 474.1,184.1 475.3,184.4 476.5,184.7 477.6,185.0 478.8,185.3 480.0,185.6 481.2,185.9 482.4,186.2 483.6,186.6 484.8,186.9 485.9,187.2 487.1,187.5 488.3,187.8 489.5,188.1 490.7,188.4 491.9,188.7 493.1,189.0 494.3,189.3 495.4,189.6 496.6,190.0 497.8,190.3 499.0,190.6 500.2,190.9 501.4,191.2 502.6,191.5 503.7,191.8 504.9,192.1 506.1,192.4 507.3,192.7 508.5,193.0 509.7,193.4 510.9,193.7 512.1,194.0 513.2,194.3 514.4,194.6 515.6,194.9 516.8,195.2 518.0,195.5 519.2,195.8 520.4,196.1 521.5,196.4 522.7,196.8 523.9,197.1 525.1,197.4 526.3,197.7 527.5,198.0 528.7,198.3 529.9,198.6 531.0,198.9 532.2,199.2 533.4,199.5 534.6,199.9 535.8,200.2 537.0,200.5 538.2,200.8 539.3,201.1 540.5,201.4 541.7,201.7 542.9,202.0 544.1,202.3 545.3,202.6 546.5,202.9 547.7,203.3 548.8,203.6 550.0,203.9 551.2,204.2 552.4,204.5 553.6,204.8 554.8,205.1 556.0,205.4 557.1,205.7 558.3,206.0 559.5,206.3 560.7,206.7 561.9,207.0 563.1,207.3 564.3,207.6 565.5,207.9 566.6,208.2 567.8,208.5 569.0,208.8 570.2,209.1 571.4,209.4 572.6,209.7 573.8,210.1 574.9,210.4 576.1,210.7 577.3,211.0 578.5,211.3 579.7,211.6 580.9,211.9 582.1,212.2 583.3,212.5 584.4,212.8 585.6,213.1 586.8,213.5 588.0,213.8 589.2,214.1 590.4,214.4 591.6,214.7 592.7,215.0 593.9,215.3 595.1,215.6 596.3,215.9 597.5,216.2 598.7,216.5 599.9,216.9 601.1,217.2 602.2,217.5 603.4,217.8 604.6,218.1 605.8,218.4 607.0,218.7 608.2,218.9 609.4,218.9 610.5,218.9 611.7,218.9 612.9,218.9 614.1,218.9 615.3,218.9 616.5,218.9 617.7,218.9 618.9,218.9 620.0,218.9 621.2,218.9 622.4,218.9 623.6,218.9 624.8,218.9 626.0,218.9 627.2,218.9 628.3,218.9 629.5,218.9 630.7,218.9 631.9,218.9 633.1,218.9 634.3,218.9 635.5,218.9 636.7,218.9 637.8,218.9 639.0,218.9 640.2,218.9 641.4,218.9 642.6,218.9 643.8,218.9 645.0,218.9 646.1,218.9 647.3,218.9 648.5,218.9 649.7,218.9 650.9,218.9 652.1,218.9 653.3,218.9 654.5,218.9 655.6,218.9 656.8,218.9 658.0,218.9 659.2,218.9 660.4,218.9 661.6,218.9 662.8,218.9 663.9,218.9 665.1,218.9 666.3,218.9 667.5,218.9 668.7,218.9 669.9,218.9 671.1,218.9 672.3,218.9 673.4,218.9 674.6,218.9 675.8,218.9 677.0,218.9 678.2,218.9 679.4,218.9 680.6,218.9 681.7,218.9 682.9,218.9 684.1,218.9 685.3,218.9 686.5,218.9 687.7,218.9 688.9,218.9 690.1,218.9 691.2,218.9 692.4,218.9 693.6,218.9 694.8,218.9 696.0,218.9 697.2,218.9 698.4,218.9 699.5,218.9 700.7,218.9 701.9,218.9 703.1,218.9 704.3,218.9 705.5,218.9 706.7,218.9 707.9,218.9 709.0,218.9 710.2,218.9 711.4,218.9 712.6,218.9 713.8,218.9 715.0,218.9 716.2,218.9 717.3,218.9 718.5,218.9 719.7,218.9 720.9,218.9 722.1,218.9 723.3,218.9 724.5,218.9 725.7,218.9 726.8,218.9 728.0,218.9 729.2,218.9 730.4,218.9 731.6,218.9 732.8,218.9 734.0,218.9 735.1,218.9 736.3,218.9 737.5,218.9 738.7,218.9 739.9,218.9 741.1,218.9 742.3,218.9 743.5,218.9 744.6,218.9 745.8,218.9 747.0,218.9 748.2,218.9 749.4,218.9 750.6,218.9 751.8,218.9 752.9,218.9 754.1,218.9 755.3,218.9 756.5,218.9 757.7,218.9 758.9,218.9 760.1,218.9 761.3,218.9 762.4,218.9 763.6,218.9 764.8,218.9 766.0,218.9"/>
<line x1="606" y1="42" x2="628" y2="42" stroke="#0f62fe" stroke-width="2.2"/>
<text x="634" y="46" font-family="Arial" font-size="12">pitch_command_deg</text>
<polyline fill="none" stroke="#24a148" stroke-width="2.2" points="54.0,246.4 55.2,239.1 56.4,228.8 57.6,220.4 58.7,215.5 59.9,212.9 61.1,211.0 62.3,209.1 63.5,207.3 64.7,206.1 65.9,205.5 67.1,205.2 68.2,205.3 69.4,205.6 70.6,206.0 71.8,206.6 73.0,207.3 74.2,208.1 75.4,209.1 76.5,210.1 77.7,211.2 78.9,212.3 80.1,213.4 81.3,214.6 82.5,215.8 83.7,217.0 84.9,218.2 86.0,219.4 87.2,220.6 88.4,221.8 89.6,223.0 90.8,224.2 92.0,225.4 93.2,226.5 94.3,227.7 95.5,228.8 96.7,229.9 97.9,231.0 99.1,232.0 100.3,233.1 101.5,234.1 102.7,235.1 103.8,236.1 105.0,237.1 106.2,238.0 107.4,238.9 108.6,239.8 109.8,240.7 111.0,241.6 112.1,242.4 113.3,243.2 114.5,244.0 115.7,244.8 116.9,245.5 118.1,246.3 119.3,247.0 120.5,247.7 121.6,248.3 122.8,249.0 124.0,249.6 125.2,250.3 126.4,250.9 127.6,251.4 128.8,252.0 129.9,252.5 131.1,253.1 132.3,253.6 133.5,254.1 134.7,254.5 135.9,255.0 137.1,255.5 138.3,255.9 139.4,256.3 140.6,256.7 141.8,257.1 143.0,257.4 144.2,257.8 145.4,258.1 146.6,258.4 147.7,258.7 148.9,259.0 150.1,259.3 151.3,259.5 152.5,259.6 153.7,259.6 154.9,259.5 156.1,259.4 157.2,259.3 158.4,259.1 159.6,258.9 160.8,258.6 162.0,258.3 163.2,257.9 164.4,257.6 165.5,257.2 166.7,256.8 167.9,256.3 169.1,255.9 170.3,255.4 171.5,254.9 172.7,254.4 173.9,253.8 175.0,253.3 176.2,252.7 177.4,252.2 178.6,251.6 179.8,251.0 181.0,250.4 182.2,249.8 183.3,249.2 184.5,248.5 185.7,247.9 186.9,247.3 188.1,246.6 189.3,246.0 190.5,245.3 191.7,244.6 192.8,243.9 194.0,243.3 195.2,242.6 196.4,241.9 197.6,241.2 198.8,240.5 200.0,239.8 201.1,239.1 202.3,238.4 203.5,237.7 204.7,237.0 205.9,236.2 207.1,235.5 208.3,234.8 209.5,234.1 210.6,233.4 211.8,232.7 213.0,232.0 214.2,231.2 215.4,230.5 216.6,229.8 217.8,229.1 218.9,228.4 220.1,227.7 221.3,227.0 222.5,226.3 223.7,225.6 224.9,224.9 226.1,224.2 227.3,223.5 228.4,222.8 229.6,222.1 230.8,221.4 232.0,220.7 233.2,220.0 234.4,219.4 235.6,218.7 236.7,218.0 237.9,217.4 239.1,216.7 240.3,216.1 241.5,215.4 242.7,214.8 243.9,214.1 245.1,213.5 246.2,212.9 247.4,212.3 248.6,211.6 249.8,211.0 251.0,210.4 252.2,209.8 253.4,209.3 254.5,208.7 255.7,208.1 256.9,207.5 258.1,207.0 259.3,206.4 260.5,205.9 261.7,205.3 262.9,204.8 264.0,204.2 265.2,203.7 266.4,203.2 267.6,202.7 268.8,202.2 270.0,201.7 271.2,201.2 272.3,200.7 273.5,200.3 274.7,199.8 275.9,199.3 277.1,198.9 278.3,198.4 279.5,198.1 280.7,197.4 281.8,197.6 283.0,195.6 284.2,199.0 285.4,189.5 286.6,207.2 287.8,197.6 289.0,208.2 290.1,191.5 291.3,199.4 292.5,182.8 293.7,193.4 294.9,180.6 296.1,195.1 297.3,183.0 298.5,198.0 299.6,185.8 300.8,200.8 302.0,188.6 303.2,203.6 304.4,191.4 305.6,205.4 306.8,192.2 307.9,204.6 309.1,189.9 310.3,202.2 311.5,187.3 312.7,199.6 313.9,184.7 315.1,197.1 316.3,182.2 317.4,194.5 318.6,179.6 319.8,192.0 321.0,177.1 322.2,189.4 323.4,174.5 324.6,186.8 325.7,171.9 326.9,184.3 328.1,169.4 329.3,181.7 330.5,166.8 331.7,179.2 332.9,164.3 334.1,176.6 335.2,161.7 336.4,174.0 337.6,159.2 338.8,171.5 340.0,156.6 341.2,168.9 342.4,155.2 343.5,168.6 344.7,154.9 345.9,168.4 347.1,154.6 348.3,168.1 349.5,154.3 350.7,167.8 351.9,154.0 353.0,167.5 354.2,153.8 355.4,167.2 356.6,153.5 357.8,166.9 359.0,153.2 360.2,166.7 361.3,152.9 362.5,166.4 363.7,152.6 364.9,166.1 366.1,152.3 367.3,165.8 368.5,152.1 369.7,165.5 370.8,151.8 372.0,165.2 373.2,151.5 374.4,164.9 375.6,151.2 376.8,164.7 378.0,150.9 379.1,164.4 380.3,150.6 381.5,164.1 382.7,150.3 383.9,163.8 385.1,150.1 386.3,163.5 387.5,149.8 388.6,163.2 389.8,149.5 391.0,163.0 392.2,149.2 393.4,162.7 394.6,148.9 395.8,162.4 396.9,148.6 398.1,162.1 399.3,148.4 400.5,161.8 401.7,148.1 402.9,161.5 404.1,147.8 405.3,161.3 406.4,147.5 407.6,161.0 408.8,147.2 410.0,160.7 411.2,146.9 412.4,160.4 413.6,146.7 414.7,160.1 415.9,146.4 417.1,159.8 418.3,146.1 419.5,159.5 420.7,146.3 421.9,160.3 423.1,147.0 424.2,161.0 425.4,147.8 426.6,161.7 427.8,148.5 429.0,162.5 430.2,149.2 431.4,163.2 432.5,150.0 433.7,163.9 434.9,150.7 436.1,164.7 437.3,151.4 438.5,165.4 439.7,152.1 440.9,166.1 442.0,152.9 443.2,166.8 444.4,153.6 445.6,167.6 446.8,154.3 448.0,168.3 449.2,155.1 450.3,169.0 451.5,155.8 452.7,169.8 453.9,156.5 455.1,170.5 456.3,157.2 457.5,171.2 458.7,158.0 459.8,171.9 461.0,158.7 462.2,172.7 463.4,159.4 464.6,173.4 465.8,160.2 467.0,174.1 468.1,160.9 469.3,174.9 470.5,161.6 471.7,175.6 472.9,162.3 474.1,176.3 475.3,163.1 476.5,177.0 477.6,163.8 478.8,177.8 480.0,164.5 481.2,178.5 482.4,165.3 483.6,179.2 484.8,166.0 485.9,180.0 487.1,166.7 488.3,180.7 489.5,167.5 490.7,181.4 491.9,168.2 493.1,182.2 494.3,168.9 495.4,182.9 496.6,169.6 497.8,183.6 499.0,170.4 500.2,184.3 501.4,171.1 502.6,185.1 503.7,171.8 504.9,185.8 506.1,172.6 507.3,186.5 508.5,173.3 509.7,187.3 510.9,174.0 512.1,188.0 513.2,174.7 514.4,188.7 515.6,175.5 516.8,189.4 518.0,176.2 519.2,190.2 520.4,176.9 521.5,190.9 522.7,177.7 523.9,191.6 525.1,178.4 526.3,192.4 527.5,179.1 528.7,193.1 529.9,179.8 531.0,193.8 532.2,180.6 533.4,194.5 534.6,181.3 535.8,195.3 537.0,182.0 538.2,196.0 539.3,182.8 540.5,196.7 541.7,183.5 542.9,197.5 544.1,184.2 545.3,198.2 546.5,185.0 547.7,198.9 548.8,185.7 550.0,199.6 551.2,186.4 552.4,200.4 553.6,187.1 554.8,201.1 556.0,187.9 557.1,201.8 558.3,188.6 559.5,202.6 560.7,189.3 561.9,203.3 563.1,190.1 564.3,204.0 565.5,190.8 566.6,204.8 567.8,191.5 569.0,205.5 570.2,192.2 571.4,206.2 572.6,193.0 573.8,206.9 574.9,193.7 576.1,207.7 577.3,194.4 578.5,208.4 579.7,195.2 580.9,209.1 582.1,195.9 583.3,209.9 584.4,196.6 585.6,210.6 586.8,197.3 588.0,211.3 589.2,198.1 590.4,212.0 591.6,198.8 592.7,212.8 593.9,199.5 595.1,213.5 596.3,200.3 597.5,214.2 598.7,201.0 599.9,215.0 601.1,201.7 602.2,215.7 603.4,202.4 604.6,216.4 605.8,203.2 607.0,217.1 608.2,203.9 609.4,217.9 610.5,204.6 611.7,218.6 612.9,205.4 614.1,219.3 615.3,206.1 616.5,220.1 617.7,206.8 618.9,220.8 620.0,207.6 621.2,221.5 622.4,208.3 623.6,222.3 624.8,209.0 626.0,223.0 627.2,209.7 628.3,223.7 629.5,210.5 630.7,224.4 631.9,211.2 633.1,225.2 634.3,211.9 635.5,225.9 636.7,212.7 637.8,226.6 639.0,213.4 640.2,227.4 641.4,214.1 642.6,228.1 643.8,214.8 645.0,228.8 646.1,215.6 647.3,229.5 648.5,216.3 649.7,230.3 650.9,217.0 652.1,231.0 653.3,217.8 654.5,231.7 655.6,218.5 656.8,232.5 658.0,219.2 659.2,233.2 660.4,219.9 661.6,233.9 662.8,220.7 663.9,234.6 665.1,221.4 666.3,235.4 667.5,222.1 668.7,236.1 669.9,222.9 671.1,236.8 672.3,223.6 673.4,237.6 674.6,224.3 675.8,238.3 677.0,225.1 678.2,239.0 679.4,225.8 680.6,239.8 681.7,226.5 682.9,240.5 684.1,227.2 685.3,241.2 686.5,228.0 687.7,241.9 688.9,228.7 690.1,242.7 691.2,229.4 692.4,243.4 693.6,230.2 694.8,244.1 696.0,230.9 697.2,244.9 698.4,231.6 699.5,245.6 700.7,232.3 701.9,246.3 703.1,233.1 704.3,247.0 705.5,233.8 706.7,247.8 707.9,234.5 709.0,248.5 710.2,235.3 711.4,249.2 712.6,236.0 713.8,250.0 715.0,236.7 716.2,250.7 717.3,237.4 718.5,251.4 719.7,238.2 720.9,252.1 722.1,238.9 723.3,252.9 724.5,239.6 725.7,253.6 726.8,240.4 728.0,254.3 729.2,241.1 730.4,255.1 731.6,241.8 732.8,255.8 734.0,242.6 735.1,256.5 736.3,243.3 737.5,257.3 738.7,244.0 739.9,258.0 741.1,244.7 742.3,258.7 743.5,245.5 744.6,259.4 745.8,246.2 747.0,260.2 748.2,246.9 749.4,260.9 750.6,247.7 751.8,261.6 752.9,248.4 754.1,262.4 755.3,249.1 756.5,263.1 757.7,249.8 758.9,263.8 760.1,250.6 761.3,264.5 762.4,251.3 763.6,265.3 764.8,252.0 766.0,266.0"/>
<line x1="606" y1="60" x2="628" y2="60" stroke="#24a148" stroke-width="2.2"/>
<text x="634" y="64" font-family="Arial" font-size="12">pitch_deg</text>
</svg>