<svg xmlns="http://www.w3.org/2000/svg" width="820" height="320" viewBox="0 0 820 320">
<rect width="100%" height="100%" fill="#ffffff"/>
<text x="54" y="28" font-family="Arial" font-size="18" font-weight="700">GPS Altitude vs Truth</text>
<line x1="54" y1="266" x2="766" y2="266" stroke="#1f2933"/>
<line x1="54" y1="54" x2="54" y2="266" stroke="#1f2933"/>
<text x="54" y="306" font-family="Arial" font-size="12">time (s)</text>
<text x="596" y="306" font-family="Arial" font-size="12">altitude (m)</text>
<text x="58" y="68" font-family="Arial" font-size="11">376</text>
<text x="58" y="260" font-family="Arial" font-size="11">19.1</text>
<polyline fill="none" stroke="#0f62fe" stroke-width="2.2" points="54.0,265.5 55.2,265.3 56.4,265.2 57.6,265.1 58.7,264.9 59.9,264.8 61.1,264.7 62.3,264.6 63.5,264.5 64.7,264.4 65.9,264.2 67.1,264.1 68.2,264.0 69.4,263.9 70.6,263.8 71.8,263.7 73.0,263.6 74.2,263.5 75.4,263.4 76.5,263.3 77.7,263.2 78.9,263.2 80.1,263.1 81.3,263.0 82.5,262.9 83.7,262.8 84.9,262.7 86.0,262.7 87.2,262.6 88.4,262.5 89.6,262.4 90.8,262.4 92.0,262.3 93.2,262.2 94.3,262.2 95.5,262.1 96.7,262.0 97.9,262.0 99.1,261.9 100.3,261.8 101.5,261.8 102.7,261.7 103.8,261.7 105.0,261.6 106.2,261.5 107.4,261.5 108.6,261.4 109.8,261.4 111.0,261.3 112.1,261.3 113.3,261.2 114.5,261.2 115.7,261.1 116.9,261.1 118.1,261.0 119.3,261.0 120.5,260.9 121.6,260.9 122.8,260.9 124.0,260.8 125.2,260.8 126.4,260.7 127.6,260.7 128.8,260.6 129.9,260.6 131.1,260.6 132.3,260.5 133.5,260.5 134.7,260.5 135.9,260.4 137.1,260.4 138.3,260.3 139.4,260.3 140.6,260.3 141.8,260.2 143.0,260.2 144.2,260.1 145.4,260.1 146.6,260.1 147.7,260.0 148.9,260.0 150.1,260.0 151.3,259.9 152.5,259.9 153.7,259.8 154.9,259.8 156.1,259.8 157.2,259.7 158.4,259.7 159.6,259.7 160.8,259.6 162.0,259.6 163.2,259.5 164.4,259.5 165.5,259.5 166.7,259.4 167.9,259.4 169.1,259.3 170.3,259.3 171.5,259.2 172.7,259.2 173.9,259.1 175.0,259.1 176.2,259.0 177.4,259.0 178.6,258.9 179.8,258.9 181.0,258.8 182.2,258.8 183.3,258.7 184.5,258.7 185.7,258.6 186.9,258.6 188.1,258.5 189.3,258.4 190.5,258.4 191.7,258.3 192.8,258.2 194.0,258.2 195.2,258.1 196.4,258.0 197.6,257.9 198.8,257.9 200.0,257.8 201.1,257.7 202.3,257.6 203.5,257.5 204.7,257.5 205.9,257.4 207.1,257.3 208.3,257.2 209.5,257.1 210.6,257.0 211.8,256.9 213.0,256.8 214.2,256.7 215.4,256.6 216.6,256.5 217.8,256.4 218.9,256.2 220.1,256.1 221.3,256.0 222.5,255.9 223.7,255.8 224.9,255.7 226.1,255.5 227.3,255.4 228.4,255.3 229.6,255.1 230.8,255.0 232.0,254.8 233.2,254.7 234.4,254.6 235.6,254.4 236.7,254.3 237.9,254.1 239.1,254.0 240.3,253.8 241.5,253.6 242.7,253.5 243.9,253.3 245.1,253.1 246.2,253.0 247.4,252.8 248.6,252.6 249.8,252.4 251.0,252.2 252.2,252.1 253.4,251.9 254.5,251.7 255.7,251.5 256.9,251.3 258.1,251.1 259.3,250.9 260.5,250.7 261.7,250.5 262.9,250.3 264.0,250.0 265.2,249.8 266.4,249.6 267.6,249.4 268.8,249.2 270.0,248.9 271.2,248.7 272.3,248.5 273.5,248.2 274.7,248.0 275.9,247.7 277.1,247.5 278.3,247.3 279.5,247.0 280.7,246.7 281.8,246.5 283.0,246.2 284.2,246.0 285.4,245.7 286.6,245.4 287.8,245.2 289.0,244.9 290.1,244.6 291.3,244.3 292.5,244.1 293.7,243.8 294.9,243.5 296.1,243.2 297.3,242.9 298.5,242.6 299.6,242.3 300.8,242.0 302.0,241.7 303.2,241.4 304.4,241.1 305.6,240.8 306.8,240.5 307.9,240.2 309.1,239.9 310.3,239.5 311.5,239.2 312.7,238.9 313.9,238.6 315.1,238.2 316.3,237.9 317.4,237.6 318.6,237.2 319.8,236.9 321.0,236.6 322.2,236.2 323.4,235.9 324.6,235.5 325.7,235.2 326.9,234.8 328.1,234.5 329.3,234.1 330.5,233.7 331.7,233.4 332.9,233.0 334.1,232.6 335.2,232.2 336.4,231.8 337.6,231.4 338.8,231.0 340.0,230.7 341.2,230.3 342.4,229.9 343.5,229.5 344.7,229.0 345.9,228.6 347.1,228.2 348.3,227.8 349.5,227.4 350.7,227.0 351.9,226.5 353.0,226.1 354.2,225.7 355.4,225.2 356.6,224.8 357.8,224.4 359.0,223.9 360.2,223.5 361.3,223.0 362.5,222.6 363.7,222.1 364.9,221.7 366.1,221.2 367.3,220.7 368.5,220.3 369.7,219.8 370.8,219.3 372.0,218.9 373.2,218.4 374.4,217.9 375.6,217.4 376.8,217.0 378.0,216.5 379.1,216.0 380.3,215.5 381.5,215.0 382.7,214.5 383.9,214.0 385.1,213.5 386.3,213.0 387.5,212.5 388.6,212.0 389.8,211.5 391.0,211.0 392.2,210.4 393.4,209.9 394.6,209.4 395.8,208.9 396.9,208.4 398.1,207.8 399.3,207.3 400.5,206.8 401.7,206.2 402.9,205.7 404.1,205.2 405.3,204.6 406.4,204.1 407.6,203.6 408.8,203.0 410.0,202.5 411.2,201.9 412.4,201.4 413.6,200.9 414.7,200.3 415.9,199.8 417.1,199.2 418.3,198.7 419.5,198.1 420.7,197.6 421.9,197.0 423.1,196.5 424.2,195.9 425.4,195.4 426.6,194.8 427.8,194.3 429.0,193.7 430.2,193.1 431.4,192.6 432.5,192.0 433.7,191.5 434.9,190.9 436.1,190.3 437.3,189.8 438.5,189.2 439.7,188.7 440.9,188.1 442.0,187.5 443.2,187.0 444.4,186.4 445.6,185.8 446.8,185.3 448.0,184.7 449.2,184.1 450.3,183.6 451.5,183.0 452.7,182.4 453.9,181.9 455.1,181.3 456.3,180.7 457.5,180.2 458.7,179.6 459.8,179.0 461.0,178.4 462.2,177.9 463.4,177.3 464.6,176.7 465.8,176.1 467.0,175.6 468.1,175.0 469.3,174.4 470.5,173.8 471.7,173.3 472.9,172.7 474.1,172.1 475.3,171.5 476.5,171.0 477.6,170.4 478.8,169.8 480.0,169.2 481.2,168.6 482.4,168.1 483.6,167.5 484.8,166.9 485.9,166.3 487.1,165.7 488.3,165.2 489.5,164.6 490.7,164.0 491.9,163.4 493.1,162.8 494.3,162.3 495.4,161.7 496.6,161.1 497.8,160.5 499.0,159.9 500.2,159.3 501.4,158.8 502.6,158.2 503.7,157.6 504.9,157.0 506.1,156.4 507.3,155.8 508.5,155.3 509.7,154.7 510.9,154.1 512.1,153.5 513.2,152.9 514.4,152.3 515.6,151.8 516.8,151.2 518.0,150.6 519.2,150.0 520.4,149.4 521.5,148.8 522.7,148.2 523.9,147.7 525.1,147.1 526.3,146.5 527.5,145.9 528.7,145.3 529.9,144.7 531.0,144.1 532.2,143.5 533.4,143.0 534.6,142.4 535.8,141.8 537.0,141.2 538.2,140.6 539.3,140.0 540.5,139.4 541.7,138.8 542.9,138.3 544.1,137.7 545.3,137.1 546.5,136.5 547.7,135.9 548.8,135.3 550.0,134.7 551.2,134.2 552.4,133.6 553.6,133.0 554.8,132.4 556.0,131.8 557.1,131.2 558.3,130.6 559.5,130.0 560.7,129.5 561.9,128.9 563.1,128.3 564.3,127.7 565.5,127.1 566.6,126.5 567.8,125.9 569.0,125.3 570.2,124.8 571.4,124.2 572.6,123.6 573.8,123.0 574.9,122.4 576.1,121.9 577.3,121.3 578.5,120.7 579.7,120.1 580.9,119.6 582.1,119.0 583.3,118.4 584.4,117.9 585.6,117.3 586.8,116.8 588.0,116.2 589.2,115.7 590.4,115.1 591.6,114.6 592.7,114.0 593.9,113.5 595.1,112.9 596.3,112.4 597.5,111.8 598.7,111.3 599.9,110.8 601.1,110.2 602.2,109.7 603.4,109.2 604.6,108.6 605.8,108.1 607.0,107.6 608.2,107.0 609.4,106.5 610.5,106.0 611.7,105.5 612.9,105.0 614.1,104.5 615.3,103.9 616.5,103.4 617.7,102.9 618.9,102.4 620.0,101.9 621.2,101.4 622.4,100.9 623.6,100.4 624.8,99.9 626.0,99.4 627.2,98.9 628.3,98.4 629.5,97.9 630.7,97.4 631.9,97.0 633.1,96.5 634.3,96.0 635.5,95.5 636.7,95.0 637.8,94.5 639.0,94.1 640.2,93.6 641.4,93.1 642.6,92.6 643.8,92.2 645.0,91.7 646.1,91.2 647.3,90.8 648.5,90.3 649.7,89.9 650.9,89.4 652.1,88.9 653.3,88.5 654.5,88.0 655.6,87.6 656.8,87.1 658.0,86.7 659.2,86.2 660.4,85.8 661.6,85.3 662.8,84.9 663.9,84.5 665.1,84.0 666.3,83.6 667.5,83.1 668.7,82.7 669.9,82.3 671.1,81.8 672.3,81.4 673.4,81.0 674.6,80.6 675.8,80.1 677.0,79.7 678.2,79.3 679.4,78.9 680.6,78.5 681.7,78.0 682.9,77.6 684.1,77.2 685.3,76.8 686.5,76.4 687.7,76.0 688.9,75.6 690.1,75.2 691.2,74.8 692.4,74.4 693.6,74.0 694.8,73.6 696.0,73.2 697.2,72.8 698.4,72.4 699.5,72.0 700.7,71.6 701.9,71.2 703.1,70.9 704.3,70.5 705.5,70.1 706.7,69.7 707.9,69.4 709.0,69.0 710.2,68.6 711.4,68.2 712.6,67.9 713.8,67.5 715.0,67.2 716.2,66.8 717.3,66.4 718.5,66.1 719.7,65.7 720.9,65.4 722.1,65.0 723.3,64.7 724.5,64.4 725.7,64.0 726.8,63.7 728.0,63.3 729.2,63.0 730.4,62.7 731.6,62.4 732.8,62.0 734.0,61.7 735.1,61.4 736.3,61.1 737.5,60.8 738.7,60.4 739.9,60.1 741.1,59.8 742.3,59.5 743.5,59.2 744.6,58.9 745.8,58.6 747.0,58.3 748.2,58.0 749.4,57.8 750.6,57.5 751.8,57.2 752.9,56.9 754.1,56.6 755.3,56.4 756.5,56.1 757.7,55.8 758.9,55.6 760.1,55.3 761.3,55.0 762.4,54.8 763.6,54.5 764.8,54.3 766.0,54.0"/>
<line x1="606" y1="42" x2="628" y2="42" stroke="#0f62fe" stroke-width="2.2"/>
<text x="634" y="46" font-family="Arial" font-size="12">altitude_m</text>
<polyline fill="none" stroke="#24a148" stroke-width="2.2" points="54.0,264.8 55.2,264.8 56.4,264.8 57.6,264.8 58.7,264.8 59.9,264.8 61.1,264.8 62.3,266.0 63.5,266.0 64.7,266.0 65.9,266.0 67.1,266.0 68.2,266.0 69.4,266.0 70.6,264.1 71.8,264.1 73.0,264.1 74.2,264.1 75.4,264.1 76.5,264.1 77.7,264.1 78.9,263.8 80.1,263.8 81.3,263.8 82.5,263.8 83.7,263.8 84.9,263.8 86.0,263.8 87.2,263.3 88.4,263.3 89.6,263.3 90.8,263.3 92.0,263.3 93.2,263.3 94.3,263.3 95.5,261.3 96.7,261.3 97.9,261.3 99.1,261.3 100.3,261.3 101.5,261.3 102.7,261.3 103.8,261.8 105.0,261.8 106.2,261.8 107.4,261.8 108.6,261.8 109.8,261.8 111.0,261.8 112.1,260.2 113.3,260.2 114.5,260.2 115.7,260.2 116.9,260.2 118.1,260.2 119.3,260.2 120.5,261.2 121.6,261.2 122.8,261.2 124.0,261.2 125.2,261.2 126.4,261.2 127.6,261.2 128.8,260.8 129.9,260.8 131.1,260.8 132.3,260.8 133.5,260.8 134.7,260.8 135.9,260.8 137.1,259.8 138.3,259.8 139.4,259.8 140.6,259.8 141.8,259.8 143.0,259.8 144.2,259.8 145.4,261.1 146.6,261.1 147.7,261.1 148.9,261.1 150.1,261.1 151.3,261.1 152.5,261.1 153.7,262.0 154.9,262.0 156.1,262.0 157.2,262.0 158.4,262.0 159.6,262.0 160.8,262.0 162.0,260.2 163.2,260.2 164.4,260.2 165.5,260.2 166.7,260.2 167.9,260.2 169.1,260.2 170.3,258.7 171.5,258.7 172.7,258.7 173.9,258.7 175.0,258.7 176.2,258.7 177.4,258.7 178.6,259.1 179.8,259.1 181.0,259.1 182.2,259.1 183.3,259.1 184.5,259.1 185.7,259.1 186.9,257.3 188.1,257.3 189.3,257.3 190.5,257.3 191.7,257.3 192.8,257.3 194.0,257.3 195.2,257.3 196.4,257.3 197.6,257.3 198.8,257.3 200.0,257.3 201.1,257.3 202.3,257.3 203.5,257.8 204.7,257.8 205.9,257.8 207.1,257.8 208.3,257.8 209.5,257.8 210.6,257.8 211.8,256.0 213.0,256.0 214.2,256.0 215.4,256.0 216.6,256.0 217.8,256.0 218.9,256.0 220.1,255.8 221.3,255.8 222.5,255.8 223.7,255.8 224.9,255.8 226.1,255.8 227.3,255.8 228.4,255.3 229.6,255.3 230.8,255.3 232.0,255.3 233.2,255.3 234.4,255.3 235.6,255.3 236.7,254.8 237.9,254.8 239.1,254.8 240.3,254.8 241.5,254.8 242.7,254.8 243.9,254.8 245.1,253.6 246.2,253.6 247.4,253.6 248.6,253.6 249.8,253.6 251.0,253.6 252.2,253.6 253.4,252.4 254.5,252.4 255.7,252.4 256.9,252.4 258.1,252.4 259.3,252.4 260.5,252.4 261.7,248.9 262.9,248.9 264.0,248.9 265.2,248.9 266.4,248.9 267.6,248.9 268.8,248.9 270.0,248.7 271.2,248.7 272.3,248.7 273.5,248.7 274.7,248.7 275.9,248.7 277.1,248.7 278.3,247.5 279.5,247.5 280.7,247.5 281.8,247.5 283.0,247.5 284.2,247.5 285.4,247.5 286.6,246.0 287.8,246.0 289.0,246.0 290.1,246.0 291.3,246.0 292.5,246.0 293.7,246.0 294.9,243.3 296.1,243.3 297.3,243.3 298.5,243.3 299.6,243.3 300.8,243.3 302.0,243.3 303.2,241.3 304.4,241.3 305.6,241.3 306.8,241.3 307.9,241.3 309.1,241.3 310.3,241.3 311.5,238.6 312.7,238.6 313.9,238.6 315.1,238.6 316.3,238.6 317.4,238.6 318.6,238.6 319.8,237.2 321.0,237.2 322.2,237.2 323.4,237.2 324.6,237.2 325.7,237.2 326.9,237.2 328.1,235.2 329.3,235.2 330.5,235.2 331.7,235.2 332.9,235.2 334.1,235.2 335.2,235.2 336.4,231.9 337.6,231.9 338.8,231.9 340.0,231.9 341.2,231.9 342.4,231.9 343.5,231.9 344.7,229.2 345.9,229.2 347.1,229.2 348.3,229.2 349.5,229.2 350.7,229.2 351.9,229.2 353.0,226.4 354.2,226.4 355.4,226.4 356.6,226.4 357.8,226.4 359.0,226.4 360.2,226.4 361.3,224.6 362.5,224.6 363.7,224.6 364.9,224.6 366.1,224.6 367.3,224.6 368.5,224.6 369.7,219.1 370.8,219.1 372.0,219.1 373.2,219.1 374.4,219.1 375.6,219.1 376.8,219.1 378.0,216.7 379.1,216.7 380.3,216.7 381.5,216.7 382.7,216.7 383.9,216.7 385.1,216.7 386.3,212.7 387.5,212.7 388.6,212.7 389.8,212.7 391.0,212.7 392.2,212.7 393.4,212.7 394.6,208.8 395.8,208.8 396.9,208.8 398.1,208.8 399.3,208.8 400.5,208.8 401.7,208.8 402.9,206.4 404.1,206.4 405.3,206.4 406.4,206.4 407.6,206.4 408.8,206.4 410.0,206.4 411.2,202.4 412.4,202.4 413.6,202.4 414.7,202.4 415.9,202.4 417.1,202.4 418.3,202.4 419.5,198.2 420.7,198.2 421.9,198.2 423.1,198.2 424.2,198.2 425.4,198.2 426.6,198.2 427.8,193.3 429.0,193.3 430.2,193.3 431.4,193.3 432.5,193.3 433.7,193.3 434.9,193.3 436.1,191.8 437.3,191.8 438.5,191.8 439.7,191.8 440.9,191.8 442.0,191.8 443.2,191.8 444.4,187.6 445.6,187.6 446.8,187.6 448.0,187.6 449.2,187.6 450.3,187.6 451.5,187.6 452.7,182.1 453.9,182.1 455.1,182.1 456.3,182.1 457.5,182.1 458.7,182.1 459.8,182.1 461.0,177.9 462.2,177.9 463.4,177.9 464.6,177.9 465.8,177.9 467.0,177.9 468.1,177.9 469.3,174.5 470.5,174.5 471.7,174.5 472.9,174.5 474.1,174.5 475.3,174.5 476.5,174.5 477.6,170.9 478.8,170.9 480.0,170.9 481.2,170.9 482.4,170.9 483.6,170.9 484.8,170.9 485.9,165.1 487.1,165.1 488.3,165.1 489.5,165.1 490.7,165.1 491.9,165.1 493.1,165.1 494.3,161.5 495.4,161.5 496.6,161.5 497.8,161.5 499.0,161.5 500.2,161.5 501.4,161.5 502.6,157.9 503.7,157.9 504.9,157.9 506.1,157.9 507.3,157.9 508.5,157.9 509.7,157.9 510.9,155.2 512.1,155.2 513.2,155.2 514.4,155.2 515.6,155.2 516.8,155.2 518.0,155.2 519.2,150.8 520.4,150.8 521.5,150.8 522.7,150.8 523.9,150.8 525.1,150.8 526.3,150.8 527.5,146.1 528.7,146.1 529.9,146.1 531.0,146.1 532.2,146.1 533.4,146.1 534.6,146.1 535.8,142.6 537.0,142.6 538.2,142.6 539.3,142.6 540.5,142.6 541.7,142.6 542.9,142.6 544.1,138.1 545.3,138.1 546.5,138.1 547.7,138.1 548.8,138.1 550.0,138.1 551.2,138.1 552.4,133.1 553.6,133.1 554.8,133.1 556.0,133.1 557.1,133.1 558.3,133.1 559.5,133.1 560.7,129.3 561.9,129.3 563.1,129.3 564.3,129.3 565.5,129.3 566.6,129.3 567.8,129.3 569.0,125.0 570.2,125.0 571.4,125.0 572.6,125.0 573.8,125.0 574.9,125.0 576.1,125.0 577.3,120.9 578.5,120.9 579.7,120.9 580.9,120.9 582.1,120.9 583.3,120.9 584.4,120.9 585.6,119.3 586.8,119.3 588.0,119.3 589.2,119.3 590.4,119.3 591.6,119.3 592.7,119.3 593.9,113.1 595.1,113.1 596.3,113.1 597.5,113.1 598.7,113.1 599.9,113.1 601.1,113.1 602.2,109.3 603.4,109.3 604.6,109.3 605.8,109.3 607.0,109.3 608.2,109.3 609.4,109.3 610.5,105.6 611.7,105.6 612.9,105.6 614.1,105.6 615.3,105.6 616.5,105.6 617.7,105.6 618.9,102.9 620.0,102.9 621.2,102.9 622.4,102.9 623.6,102.9 624.8,102.9 626.0,102.9 627.2,98.3 628.3,98.3 629.5,98.3 630.7,98.3 631.9,98.3 633.1,98.3 634.3,98.3 635.5,97.3 636.7,97.3 637.8,97.3 639.0,97.3 640.2,97.3 641.4,97.3 642.6,97.3 643.8,91.2 645.0,91.2 646.1,91.2 647.3,91.2 648.5,91.2 649.7,91.2 650.9,91.2 652.1,88.6 653.3,88.6 654.5,88.6 655.6,88.6 656.8,88.6 658.0,88.6 659.2,88.6 660.4,85.6 661.6,85.6 662.8,85.6 663.9,85.6 665.1,85.6 666.3,85.6 667.5,85.6 668.7,82.0 669.9,82.0 671.1,82.0 672.3,82.0 673.4,82.0 674.6,82.0 675.8,82.0 677.0,79.4 678.2,79.4 679.4,79.4 680.6,79.4 681.7,79.4 682.9,79.4 684.1,79.4 685.3,77.0 686.5,77.0 687.7,77.0 688.9,77.0 690.1,77.0 691.2,77.0 692.4,77.0 693.6,73.5 694.8,73.5 696.0,73.5 697.2,73.5 698.4,73.5 699.5,73.5 700.7,73.5 701.9,72.6 703.1,72.6 704.3,72.6 705.5,72.6 706.7,72.6 707.9,72.6 709.0,72.6 710.2,68.6 711.4,68.6 712.6,68.6 713.8,68.6 715.0,68.6 716.2,68.6 717.3,68.6 718.5,65.5 719.7,65.5 720.9,65.5 722.1,65.5 723.3,65.5 724.5,65.5 725.7,65.5 726.8,63.2 728.0,63.2 729.2,63.2 730.4,63.2 731.6,63.2 732.8,63.2 734.0,63.2 735.1,61.4 736.3,61.4 737.5,61.4 738.7,61.4 739.9,61.4 741.1,61.4 742.3,61.4 743.5,59.0 744.6,59.0 745.8,59.0 747.0,59.0 748.2,59.0 749.4,59.0 750.6,59.0 751.8,56.8 752.9,56.8 754.1,56.8 755.3,56.8 756.5,56.8 757.7,56.8 758.9,56.8 760.1,54.8 761.3,54.8 762.4,54.8 763.6,54.8 764.8,54.8 766.0,54.8"/>
<line x1="606" y1="60" x2="628" y2="60" stroke="#24a148" stroke-width="2.2"/>
<text x="634" y="64" font-family="Arial" font-size="12">gps_z_m</text>
</svg>