<svg xmlns="http://www.w3.org/2000/svg" width="820" height="320" viewBox="0 0 820 320">
<rect width="100%" height="100%" fill="#ffffff"/>
<text x="54" y="28" font-family="Arial" font-size="18" font-weight="700">Downrange/Crossrange</text>
<line x1="54" y1="266" x2="766" y2="266" stroke="#1f2933"/>
<line x1="54" y1="54" x2="54" y2="266" stroke="#1f2933"/>
<text x="54" y="306" font-family="Arial" font-size="12">downrange (m)</text>
<text x="596" y="306" font-family="Arial" font-size="12">crossrange (m)</text>
<text x="58" y="68" font-family="Arial" font-size="11">0.171</text>
<text x="58" y="260" font-family="Arial" font-size="11">-244</text>
<polyline fill="none" stroke="#0f62fe" stroke-width="2.2" points="54.0,54.1 55.3,54.1 56.7,54.1 58.0,54.1 59.3,54.1 60.7,54.1 62.1,54.1 63.4,54.1 64.8,54.1 66.2,54.1 67.6,54.1 69.0,54.1 70.4,54.1 71.9,54.1 73.3,54.1 74.8,54.1 76.2,54.1 77.7,54.1 79.2,54.1 80.6,54.1 82.1,54.1 83.6,54.1 85.2,54.1 86.7,54.1 88.2,54.1 89.7,54.1 91.3,54.1 92.9,54.1 94.4,54.1 96.0,54.1 97.6,54.1 99.2,54.1 100.8,54.1 102.4,54.1 104.0,54.1 105.7,54.1 107.3,54.1 109.0,54.1 110.6,54.1 112.3,54.1 114.0,54.1 115.6,54.1 117.3,54.1 119.0,54.1 120.8,54.1 122.5,54.1 124.2,54.1 126.0,54.1 127.7,54.1 129.5,54.1 131.2,54.1 133.0,54.1 134.8,54.1 136.6,54.1 138.4,54.1 140.2,54.1 142.0,54.1 143.9,54.1 145.7,54.1 147.6,54.1 149.4,54.1 151.3,54.1 153.1,54.1 155.0,54.1 156.9,54.1 158.8,54.1 160.7,54.1 162.7,54.1 164.6,54.1 166.5,54.1 168.5,54.1 170.4,54.1 172.4,54.1 174.3,54.1 176.3,54.1 178.3,54.1 180.3,54.1 182.3,54.0 184.3,54.0 186.3,54.0 188.4,54.0 190.4,54.0 192.5,54.0 194.5,54.0 196.6,54.0 198.7,54.0 200.7,54.0 202.8,54.0 204.9,54.0 207.0,54.0 209.1,54.0 211.3,54.0 213.4,54.0 215.5,54.0 217.7,54.0 219.8,54.0 222.0,54.0 224.2,54.0 226.4,54.0 228.6,54.0 230.8,54.0 233.0,54.0 235.2,54.0 237.4,54.0 239.6,54.0 241.9,54.0 244.1,54.0 246.4,54.0 248.6,54.0 250.9,54.0 253.2,54.0 255.5,54.0 257.8,54.0 260.1,54.0 262.4,54.0 264.7,54.0 267.0,54.0 269.4,54.0 271.7,54.0 274.0,54.0 276.4,54.0 278.8,54.0 281.1,54.0 283.5,54.0 285.9,54.0 288.3,54.0 290.7,54.0 293.1,54.0 295.5,54.1 298.0,54.1 300.4,54.1 302.8,54.1 305.3,54.1 307.8,54.1 310.2,54.1 312.7,54.1 315.2,54.1 317.7,54.1 320.2,54.2 322.7,54.2 325.2,54.2 327.7,54.2 330.2,54.2 332.7,54.2 335.3,54.3 337.8,54.3 340.4,54.3 342.9,54.3 345.5,54.3 348.1,54.4 350.7,54.4 353.3,54.4 355.9,54.5 358.5,54.5 361.1,54.5 363.7,54.6 366.3,54.6 369.0,54.7 371.6,54.7 374.2,54.8 376.9,54.8 379.6,54.9 382.2,54.9 384.9,55.0 387.6,55.1 390.3,55.1 393.0,55.2 395.7,55.3 398.4,55.4 401.1,55.5 403.8,55.6 406.6,55.7 409.3,55.8 412.0,55.9 414.8,56.0 417.5,56.2 420.3,56.3 423.1,56.4 425.8,56.6 428.6,56.8 431.4,56.9 434.2,57.1 437.0,57.3 439.8,57.5 442.6,57.7 445.4,58.0 448.3,58.2 451.1,58.4 453.9,58.7 456.8,59.0 459.6,59.3 462.5,59.6 465.3,59.9 468.2,60.3 471.0,60.7 473.9,61.0 476.8,61.5 479.6,61.9 482.5,62.4 485.4,62.8 488.2,63.4 491.1,63.9 494.0,64.5 496.9,65.1 499.7,65.7 502.6,66.4 505.5,67.1 508.3,67.8 511.2,68.6 514.0,69.4 516.9,70.2 519.8,71.1 522.6,72.0 525.4,72.9 528.3,73.8 531.1,74.8 533.9,75.9 536.8,76.9 539.6,78.0 542.4,79.2 545.2,80.3 547.9,81.5 550.7,82.8 553.5,84.1 556.2,85.4 559.0,86.7 561.7,88.1 564.4,89.5 567.1,91.0 569.8,92.5 572.4,94.0 575.1,95.6 577.7,97.2 580.3,98.8 582.9,100.4 585.5,102.1 588.1,103.8 590.6,105.6 593.2,107.4 595.7,109.1 598.2,111.0 600.6,112.8 603.1,114.6 605.5,116.5 608.0,118.4 610.4,120.3 612.7,122.2 615.1,124.1 617.5,126.1 619.8,128.1 622.1,130.0 624.4,132.0 626.7,134.0 629.0,136.0 631.2,138.0 633.4,140.1 635.6,142.1 637.8,144.1 640.0,146.2 642.1,148.3 644.2,150.3 646.3,152.4 648.4,154.5 650.5,156.5 652.5,158.6 654.6,160.7 656.6,162.8 658.6,164.9 660.5,166.9 662.5,169.0 664.4,171.1 666.3,173.1 668.2,175.2 670.1,177.3 672.0,179.3 673.8,181.3 675.6,183.4 677.5,185.4 679.2,187.4 681.0,189.4 682.8,191.3 684.5,193.3 686.3,195.2 688.0,197.2 689.7,199.1 691.4,200.9 693.1,202.8 694.8,204.6 696.5,206.4 698.1,208.2 699.8,210.0 701.4,211.7 703.1,213.4 704.8,215.1 706.4,216.8 708.1,218.4 709.8,220.0 711.4,221.6 713.1,223.2 714.8,224.8 716.5,226.4 718.2,227.9 719.9,229.5 721.6,231.0 723.4,232.6 725.1,234.1 726.8,235.6 728.5,237.1 730.3,238.6 732.0,240.0 733.7,241.5 735.5,242.9 737.2,244.3 738.9,245.7 740.6,247.1 742.4,248.5 744.1,249.8 745.8,251.1 747.5,252.5 749.2,253.8 750.9,255.0 752.6,256.3 754.3,257.6 756.0,258.8 757.7,260.0 759.4,261.3 761.0,262.5 762.7,263.7 764.4,264.8 766.0,266.0"/>
<line x1="606" y1="42" x2="628" y2="42" stroke="#0f62fe" stroke-width="2.2"/>
<text x="634" y="46" font-family="Arial" font-size="12">y_m</text>
</svg>