<svg xmlns="http://www.w3.org/2000/svg" width="820" height="320" viewBox="0 0 820 320">
<rect width="100%" height="100%" fill="#ffffff"/>
<text x="54" y="28" font-family="Arial" font-size="18" font-weight="700">Crossrange Position</text>
<line x1="54" y1="266" x2="766" y2="266" stroke="#1f2933"/>
<line x1="54" y1="54" x2="54" y2="266" stroke="#1f2933"/>
<text x="54" y="306" font-family="Arial" font-size="12">time (s)</text>
<text x="596" y="306" font-family="Arial" font-size="12">y (m)</text>
<text x="58" y="68" font-family="Arial" font-size="11">0.171</text>
<text x="58" y="260" font-family="Arial" font-size="11">-244</text>
<polyline fill="none" stroke="#0f62fe" stroke-width="2.2" points="54.0,54.1 56.2,54.1 58.3,54.1 60.5,54.1 62.7,54.1 64.8,54.1 67.0,54.1 69.1,54.1 71.3,54.1 73.5,54.1 75.6,54.1 77.8,54.1 80.0,54.1 82.1,54.1 84.3,54.1 86.5,54.1 88.6,54.1 90.8,54.1 93.0,54.1 95.1,54.1 97.3,54.1 99.4,54.1 101.6,54.1 103.8,54.1 105.9,54.1 108.1,54.1 110.3,54.1 112.4,54.1 114.6,54.1 116.8,54.1 118.9,54.1 121.1,54.1 123.3,54.1 125.4,54.1 127.6,54.1 129.7,54.1 131.9,54.1 134.1,54.1 136.2,54.1 138.4,54.1 140.6,54.1 142.7,54.1 144.9,54.1 147.1,54.1 149.2,54.1 151.4,54.1 153.6,54.1 155.7,54.1 157.9,54.1 160.0,54.1 162.2,54.1 164.4,54.1 166.5,54.1 168.7,54.1 170.9,54.1 173.0,54.1 175.2,54.1 177.4,54.1 179.5,54.1 181.7,54.1 183.8,54.1 186.0,54.1 188.2,54.1 190.3,54.1 192.5,54.1 194.7,54.1 196.8,54.1 199.0,54.1 201.2,54.1 203.3,54.1 205.5,54.1 207.7,54.1 209.8,54.1 212.0,54.1 214.1,54.1 216.3,54.1 218.5,54.1 220.6,54.0 222.8,54.0 225.0,54.0 227.1,54.0 229.3,54.0 231.5,54.0 233.6,54.0 235.8,54.0 238.0,54.0 240.1,54.0 242.3,54.0 244.4,54.0 246.6,54.0 248.8,54.0 250.9,54.0 253.1,54.0 255.3,54.0 257.4,54.0 259.6,54.0 261.8,54.0 263.9,54.0 266.1,54.0 268.2,54.0 270.4,54.0 272.6,54.0 274.7,54.0 276.9,54.0 279.1,54.0 281.2,54.0 283.4,54.0 285.6,54.0 287.7,54.0 289.9,54.0 292.1,54.0 294.2,54.0 296.4,54.0 298.5,54.0 300.7,54.0 302.9,54.0 305.0,54.0 307.2,54.0 309.4,54.0 311.5,54.0 313.7,54.0 315.9,54.0 318.0,54.0 320.2,54.0 322.4,54.0 324.5,54.0 326.7,54.0 328.8,54.0 331.0,54.1 333.2,54.1 335.3,54.1 337.5,54.1 339.7,54.1 341.8,54.1 344.0,54.1 346.2,54.1 348.3,54.1 350.5,54.1 352.7,54.2 354.8,54.2 357.0,54.2 359.1,54.2 361.3,54.2 363.5,54.2 365.6,54.3 367.8,54.3 370.0,54.3 372.1,54.3 374.3,54.3 376.5,54.4 378.6,54.4 380.8,54.4 382.9,54.5 385.1,54.5 387.3,54.5 389.4,54.6 391.6,54.6 393.8,54.7 395.9,54.7 398.1,54.8 400.3,54.8 402.4,54.9 404.6,54.9 406.8,55.0 408.9,55.1 411.1,55.1 413.2,55.2 415.4,55.3 417.6,55.4 419.7,55.5 421.9,55.6 424.1,55.7 426.2,55.8 428.4,55.9 430.6,56.0 432.7,56.2 434.9,56.3 437.1,56.4 439.2,56.6 441.4,56.8 443.5,56.9 445.7,57.1 447.9,57.3 450.0,57.5 452.2,57.7 454.4,58.0 456.5,58.2 458.7,58.4 460.9,58.7 463.0,59.0 465.2,59.3 467.3,59.6 469.5,59.9 471.7,60.3 473.8,60.7 476.0,61.0 478.2,61.5 480.3,61.9 482.5,62.4 484.7,62.8 486.8,63.4 489.0,63.9 491.2,64.5 493.3,65.1 495.5,65.7 497.6,66.4 499.8,67.1 502.0,67.8 504.1,68.6 506.3,69.4 508.5,70.2 510.6,71.1 512.8,72.0 515.0,72.9 517.1,73.8 519.3,74.8 521.5,75.9 523.6,76.9 525.8,78.0 527.9,79.2 530.1,80.3 532.3,81.5 534.4,82.8 536.6,84.1 538.8,85.4 540.9,86.7 543.1,88.1 545.3,89.5 547.4,91.0 549.6,92.5 551.8,94.0 553.9,95.6 556.1,97.2 558.2,98.8 560.4,100.4 562.6,102.1 564.7,103.8 566.9,105.6 569.1,107.4 571.2,109.1 573.4,111.0 575.6,112.8 577.7,114.6 579.9,116.5 582.0,118.4 584.2,120.3 586.4,122.2 588.5,124.1 590.7,126.1 592.9,128.1 595.0,130.0 597.2,132.0 599.4,134.0 601.5,136.0 603.7,138.0 605.9,140.1 608.0,142.1 610.2,144.1 612.3,146.2 614.5,148.3 616.7,150.3 618.8,152.4 621.0,154.5 623.2,156.5 625.3,158.6 627.5,160.7 629.7,162.8 631.8,164.9 634.0,166.9 636.2,169.0 638.3,171.1 640.5,173.1 642.6,175.2 644.8,177.3 647.0,179.3 649.1,181.3 651.3,183.4 653.5,185.4 655.6,187.4 657.8,189.4 660.0,191.3 662.1,193.3 664.3,195.2 666.4,197.2 668.6,199.1 670.8,200.9 672.9,202.8 675.1,204.6 677.3,206.4 679.4,208.2 681.6,210.0 683.8,211.7 685.9,213.4 688.1,215.1 690.3,216.8 692.4,218.4 694.6,220.0 696.7,221.6 698.9,223.2 701.1,224.8 703.2,226.4 705.4,227.9 707.6,229.5 709.7,231.0 711.9,232.6 714.1,234.1 716.2,235.6 718.4,237.1 720.6,238.6 722.7,240.0 724.9,241.5 727.0,242.9 729.2,244.3 731.4,245.7 733.5,247.1 735.7,248.5 737.9,249.8 740.0,251.1 742.2,252.5 744.4,253.8 746.5,255.0 748.7,256.3 750.9,257.6 753.0,258.8 755.2,260.0 757.3,261.3 759.5,262.5 761.7,263.7 763.8,264.8 766.0,266.0"/>
<line x1="606" y1="42" x2="628" y2="42" stroke="#0f62fe" stroke-width="2.2"/>
<text x="634" y="46" font-family="Arial" font-size="12">y_m</text>
</svg>