<svg xmlns="http://www.w3.org/2000/svg" width="820" height="320" viewBox="0 0 820 320">
<rect width="100%" height="100%" fill="#ffffff"/>
<text x="54" y="28" font-family="Arial" font-size="18" font-weight="700">Velocity X</text>
<line x1="54" y1="266" x2="766" y2="266" stroke="#1f2933"/>
<line x1="54" y1="54" x2="54" y2="266" stroke="#1f2933"/>
<text x="54" y="306" font-family="Arial" font-size="12">time (s)</text>
<text x="596" y="306" font-family="Arial" font-size="12">vx (m/s)</text>
<text x="58" y="68" font-family="Arial" font-size="11">185</text>
<text x="58" y="260" font-family="Arial" font-size="11">85</text>
<polyline fill="none" stroke="#0f62fe" stroke-width="2.2" points="54.0,266.0 56.2,264.9 58.3,263.8 60.5,262.7 62.7,261.6 64.8,260.5 67.0,259.3 69.1,258.2 71.3,257.0 73.5,255.8 75.6,254.6 77.8,253.3 80.0,252.1 82.1,250.8 84.3,249.5 86.5,248.2 88.6,246.9 90.8,245.7 93.0,244.4 95.1,243.1 97.3,241.8 99.4,240.6 101.6,239.3 103.8,238.0 105.9,236.7 108.1,235.5 110.3,234.2 112.4,233.0 114.6,231.7 116.8,230.4 118.9,229.2 121.1,227.9 123.3,226.7 125.4,225.4 127.6,224.2 129.7,222.9 131.9,221.7 134.1,220.4 136.2,219.2 138.4,218.0 140.6,216.7 142.7,215.5 144.9,214.3 147.1,213.0 149.2,211.8 151.4,210.6 153.6,209.3 155.7,208.1 157.9,206.9 160.0,205.7 162.2,204.4 164.4,203.2 166.5,202.0 168.7,200.8 170.9,199.6 173.0,198.4 175.2,197.1 177.4,195.9 179.5,194.7 181.7,193.5 183.8,192.3 186.0,191.1 188.2,189.9 190.3,188.7 192.5,187.5 194.7,186.3 196.8,185.1 199.0,184.0 201.2,182.8 203.3,181.6 205.5,180.4 207.7,179.2 209.8,178.0 212.0,176.9 214.1,175.7 216.3,174.5 218.5,173.3 220.6,172.2 222.8,171.0 225.0,169.8 227.1,168.7 229.3,167.5 231.5,166.3 233.6,165.2 235.8,164.0 238.0,162.9 240.1,161.7 242.3,160.5 244.4,159.4 246.6,158.3 248.8,157.1 250.9,156.0 253.1,154.8 255.3,153.7 257.4,152.6 259.6,151.4 261.8,150.3 263.9,149.2 266.1,148.0 268.2,146.9 270.4,145.8 272.6,144.7 274.7,143.6 276.9,142.5 279.1,141.4 281.2,140.3 283.4,139.2 285.6,138.1 287.7,137.0 289.9,135.9 292.1,134.8 294.2,133.7 296.4,132.6 298.5,131.5 300.7,130.4 302.9,129.4 305.0,128.3 307.2,127.2 309.4,126.1 311.5,125.1 313.7,124.0 315.9,122.9 318.0,121.9 320.2,120.8 322.4,119.8 324.5,118.7 326.7,117.7 328.8,116.6 331.0,115.6 333.2,114.5 335.3,113.5 337.5,112.5 339.7,111.4 341.8,110.4 344.0,109.4 346.2,108.3 348.3,107.3 350.5,106.3 352.7,105.3 354.8,104.2 357.0,103.2 359.1,102.2 361.3,101.2 363.5,100.2 365.6,99.2 367.8,98.2 370.0,97.2 372.1,96.2 374.3,95.2 376.5,94.2 378.6,93.2 380.8,92.2 382.9,91.3 385.1,90.3 387.3,89.3 389.4,88.3 391.6,87.4 393.8,86.4 395.9,85.4 398.1,84.5 400.3,83.5 402.4,82.6 404.6,81.6 406.8,80.7 408.9,79.8 411.1,78.8 413.2,77.9 415.4,76.9 417.6,76.0 419.7,75.1 421.9,74.2 424.1,73.3 426.2,72.4 428.4,71.4 430.6,70.6 432.7,69.7 434.9,68.8 437.1,67.9 439.2,67.0 441.4,66.1 443.5,65.3 445.7,64.4 447.9,63.6 450.0,62.7 452.2,61.9 454.4,61.1 456.5,60.4 458.7,59.6 460.9,59.0 463.0,58.2 465.2,57.6 467.3,57.0 469.5,56.5 471.7,55.9 473.8,55.5 476.0,55.1 478.2,54.7 480.3,54.4 482.5,54.2 484.7,54.1 486.8,54.1 489.0,54.0 491.2,54.1 493.3,54.1 495.5,54.3 497.6,54.4 499.8,54.6 502.0,54.8 504.1,55.2 506.3,55.6 508.5,56.1 510.6,56.5 512.8,57.2 515.0,57.8 517.1,58.6 519.3,59.3 521.5,60.3 523.6,61.2 525.8,62.3 527.9,63.4 530.1,64.6 532.3,65.9 534.4,67.3 536.6,68.8 538.8,70.4 540.9,72.0 543.1,73.8 545.3,75.7 547.4,77.7 549.6,79.8 551.8,82.0 553.9,84.3 556.1,86.7 558.2,89.1 560.4,91.4 562.6,93.8 564.7,96.2 566.9,98.5 569.1,100.9 571.2,103.3 573.4,105.6 575.6,108.0 577.7,110.3 579.9,112.6 582.0,115.0 584.2,117.3 586.4,119.8 588.5,122.2 590.7,124.7 592.9,127.2 595.0,129.7 597.2,132.3 599.4,134.8 601.5,137.4 603.7,140.0 605.9,142.7 608.0,145.3 610.2,147.9 612.3,150.6 614.5,153.2 616.7,155.9 618.8,158.5 621.0,161.2 623.2,163.8 625.3,166.4 627.5,169.0 629.7,171.7 631.8,174.2 634.0,176.8 636.2,179.4 638.3,181.9 640.5,184.4 642.6,186.9 644.8,189.3 647.0,191.7 649.1,194.0 651.3,196.3 653.5,198.6 655.6,200.7 657.8,202.8 660.0,204.9 662.1,206.8 664.3,208.7 666.4,210.5 668.6,212.2 670.8,213.8 672.9,215.2 675.1,216.4 677.3,217.5 679.4,218.3 681.6,218.8 683.8,219.2 685.9,219.3 688.1,219.2 690.3,218.9 692.4,218.5 694.6,217.9 696.7,217.2 698.9,216.4 701.1,215.3 703.2,214.3 705.4,213.2 707.6,212.2 709.7,211.3 711.9,210.6 714.1,210.1 716.2,209.9 718.4,209.9 720.6,209.9 722.7,209.9 724.9,209.8 727.0,209.8 729.2,209.9 731.4,210.0 733.5,210.1 735.7,210.4 737.9,210.7 740.0,211.1 742.2,211.6 744.4,212.1 746.5,212.8 748.7,213.5 750.9,214.3 753.0,215.1 755.2,216.0 757.3,217.1 759.5,218.1 761.7,219.3 763.8,220.5 766.0,221.8"/>
<line x1="606" y1="42" x2="628" y2="42" stroke="#0f62fe" stroke-width="2.2"/>
<text x="634" y="46" font-family="Arial" font-size="12">vx_mps</text>
</svg>