<svg xmlns="http://www.w3.org/2000/svg" width="820" height="320" viewBox="0 0 820 320">
<rect width="100%" height="100%" fill="#ffffff"/>
<text x="54" y="28" font-family="Arial" font-size="18" font-weight="700">Control Surfaces</text>
<line x1="54" y1="266" x2="766" y2="266" stroke="#1f2933"/>
<line x1="54" y1="54" x2="54" y2="266" stroke="#1f2933"/>
<text x="54" y="306" font-family="Arial" font-size="12">time (s)</text>
<text x="596" y="306" font-family="Arial" font-size="12">deflection (deg)</text>
<text x="58" y="68" font-family="Arial" font-size="11">12.3</text>
<text x="58" y="260" font-family="Arial" font-size="11">-22</text>
<polyline fill="none" stroke="#0f62fe" stroke-width="2.2" points="54.0,146.8 56.2,138.7 58.3,132.8 60.5,135.2 62.7,140.1 64.8,142.4 67.0,142.6 69.1,142.8 71.3,143.9 73.5,145.1 75.6,145.9 77.8,146.5 80.0,147.0 82.1,147.6 84.3,148.1 86.5,148.6 88.6,149.0 90.8,149.4 93.0,149.7 95.1,150.0 97.3,150.3 99.4,150.6 101.6,150.8 103.8,151.1 105.9,151.3 108.1,151.5 110.3,151.6 112.4,151.8 114.6,151.9 116.8,152.1 118.9,152.2 121.1,152.3 123.3,152.4 125.4,152.5 127.6,152.6 129.7,152.7 131.9,152.8 134.1,152.9 136.2,152.9 138.4,153.0 140.6,153.0 142.7,153.1 144.9,153.2 147.1,153.2 149.2,153.3 151.4,153.3 153.6,153.3 155.7,153.4 157.9,153.4 160.0,153.4 162.2,153.5 164.4,153.5 166.5,153.5 168.7,153.5 170.9,153.5 173.0,153.6 175.2,153.6 177.4,153.6 179.5,153.6 181.7,153.6 183.8,153.6 186.0,153.6 188.2,153.6 190.3,153.6 192.5,153.6 194.7,153.6 196.8,153.6 199.0,153.6 201.2,153.6 203.3,153.6 205.5,153.6 207.7,153.5 209.8,153.5 212.0,153.5 214.1,153.5 216.3,153.5 218.5,153.5 220.6,153.4 222.8,153.4 225.0,153.4 227.1,153.4 229.3,153.4 231.5,153.3 233.6,153.4 235.8,153.4 238.0,153.4 240.1,153.4 242.3,153.4 244.4,153.4 246.6,153.4 248.8,153.5 250.9,153.5 253.1,153.5 255.3,153.6 257.4,153.6 259.6,153.6 261.8,153.6 263.9,153.7 266.1,153.7 268.2,153.7 270.4,153.7 272.6,153.7 274.7,153.8 276.9,153.8 279.1,153.8 281.2,153.8 283.4,153.8 285.6,153.8 287.7,153.8 289.9,153.8 292.1,153.8 294.2,153.8 296.4,153.8 298.5,153.8 300.7,153.8 302.9,153.8 305.0,153.8 307.2,153.8 309.4,153.8 311.5,153.8 313.7,153.8 315.9,153.8 318.0,153.7 320.2,153.7 322.4,153.6 324.5,153.8 326.7,153.4 328.8,154.0 331.0,152.7 333.2,155.1 335.3,150.3 337.5,159.6 339.7,142.9 341.8,159.6 344.0,151.4 346.2,151.8 348.3,154.2 350.5,148.7 352.7,160.8 354.8,144.1 357.0,160.8 359.1,144.1 361.3,160.8 363.5,144.1 365.6,160.8 367.8,144.1 370.0,160.8 372.1,144.1 374.3,160.8 376.5,144.1 378.6,160.8 380.8,144.1 382.9,160.8 385.1,144.1 387.3,160.8 389.4,144.1 391.6,160.8 393.8,144.1 395.9,160.8 398.1,144.1 400.3,160.8 402.4,144.1 404.6,160.8 406.8,144.1 408.9,160.8 411.1,144.1 413.2,160.8 415.4,144.1 417.6,160.8 419.7,144.1 421.9,160.8 424.1,144.1 426.2,160.8 428.4,144.1 430.6,160.8 432.7,144.1 434.9,160.8 437.1,144.7 439.2,161.4 441.4,144.7 443.5,161.4 445.7,147.8 447.9,164.5 450.0,147.8 452.2,164.5 454.4,149.9 456.5,166.6 458.7,153.5 460.9,170.2 463.0,153.5 465.2,170.2 467.3,160.1 469.5,176.8 471.7,160.1 473.8,176.8 476.0,168.3 478.2,184.8 480.3,168.1 482.5,184.8 484.7,174.0 486.8,190.6 489.0,174.6 491.2,191.3 493.3,176.4 495.5,193.1 497.6,178.0 499.8,194.7 502.0,178.5 504.1,195.1 506.3,182.3 508.5,196.3 510.6,182.4 512.8,199.1 515.0,184.4 517.1,199.9 519.3,187.7 521.5,199.6 523.6,192.5 525.8,198.8 527.9,197.2 530.1,199.2 532.3,200.5 534.4,201.3 536.6,202.9 538.8,204.2 540.9,205.6 543.1,207.1 545.3,208.7 547.4,210.3 549.6,212.1 551.8,213.9 553.9,215.8 556.1,217.2 558.2,217.1 560.4,217.3 562.6,218.0 564.7,218.0 566.9,216.3 569.1,216.1 571.2,216.6 573.4,216.6 575.6,216.4 577.7,216.3 579.9,216.3 582.0,216.3 584.2,216.3 586.4,216.2 588.5,216.2 590.7,216.1 592.9,216.1 595.0,216.0 597.2,216.0 599.4,215.9 601.5,215.8 603.7,215.8 605.9,215.7 608.0,215.7 610.2,215.6 612.3,215.6 614.5,215.5 616.7,215.4 618.8,215.4 621.0,215.3 623.2,215.3 625.3,215.2 627.5,215.1 629.7,215.0 631.8,215.0 634.0,214.9 636.2,214.8 638.3,214.7 640.5,214.7 642.6,214.6 644.8,214.5 647.0,214.4 649.1,214.3 651.3,214.2 653.5,214.1 655.6,213.9 657.8,213.8 660.0,213.7 662.1,213.6 664.3,213.2 666.4,196.6 668.6,186.1 670.8,187.6 672.9,190.2 675.1,186.2 677.3,181.4 679.4,179.4 681.6,179.3 683.8,180.5 685.9,184.4 688.1,189.2 690.3,195.8 692.4,205.2 694.6,218.7 696.7,235.4 698.9,252.0 701.1,260.4 703.2,263.8 705.4,258.2 707.6,243.8 709.7,227.1 711.9,210.4 714.1,195.8 716.2,200.6 718.4,212.1 720.6,217.7 722.7,217.3 724.9,215.2 727.0,214.1 729.2,214.0 731.4,214.3 733.5,214.5 735.7,214.4 737.9,214.3 740.0,214.2 742.2,214.2 744.4,214.2 746.5,214.2 748.7,214.2 750.9,214.2 753.0,214.2 755.2,214.2 757.3,214.2 759.5,214.1 761.7,214.1 763.8,214.1 766.0,214.1"/>
<line x1="606" y1="42" x2="628" y2="42" stroke="#0f62fe" stroke-width="2.2"/>
<text x="634" y="46" font-family="Arial" font-size="12">elevator_deg</text>
<polyline fill="none" stroke="#24a148" stroke-width="2.2" points="54.0,130.2 56.2,130.2 58.3,130.2 60.5,130.2 62.7,130.2 64.8,130.2 67.0,130.2 69.1,130.2 71.3,130.2 73.5,130.2 75.6,130.2 77.8,130.2 80.0,130.2 82.1,130.2 84.3,130.2 86.5,130.2 88.6,130.2 90.8,130.2 93.0,130.2 95.1,130.2 97.3,130.2 99.4,130.2 101.6,130.2 103.8,130.2 105.9,130.2 108.1,130.2 110.3,130.4 112.4,130.3 114.6,130.4 116.8,130.3 118.9,130.2 121.1,130.2 123.3,130.4 125.4,130.3 127.6,130.2 129.7,130.2 131.9,130.4 134.1,130.3 136.2,130.2 138.4,130.2 140.6,130.2 142.7,130.2 144.9,130.4 147.1,130.3 149.2,130.2 151.4,130.2 153.6,130.2 155.7,130.2 157.9,130.2 160.0,130.4 162.2,130.3 164.4,130.2 166.5,130.2 168.7,130.2 170.9,130.2 173.0,130.2 175.2,130.2 177.4,130.4 179.5,130.3 181.7,130.2 183.8,130.2 186.0,130.2 188.2,130.2 190.3,130.2 192.5,130.2 194.7,130.2 196.8,130.2 199.0,130.2 201.2,130.2 203.3,130.2 205.5,130.2 207.7,130.2 209.8,130.2 212.0,130.2 214.1,130.2 216.3,130.2 218.5,130.2 220.6,130.2 222.8,130.2 225.0,130.2 227.1,130.2 229.3,130.2 231.5,130.2 233.6,130.2 235.8,130.2 238.0,130.2 240.1,130.2 242.3,130.2 244.4,130.2 246.6,130.2 248.8,130.2 250.9,130.2 253.1,130.2 255.3,129.9 257.4,130.1 259.6,129.9 261.8,129.8 263.9,130.0 266.1,129.9 268.2,129.8 270.4,130.0 272.6,129.9 274.7,129.8 276.9,129.8 279.1,130.0 281.2,129.9 283.4,129.8 285.6,129.8 287.7,130.0 289.9,129.8 292.1,129.8 294.2,129.8 296.4,129.8 298.5,129.8 300.7,129.8 302.9,129.8 305.0,129.7 307.2,129.7 309.4,129.7 311.5,129.6 313.7,129.6 315.9,129.6 318.0,129.5 320.2,129.5 322.4,129.5 324.5,129.4 326.7,129.4 328.8,129.3 331.0,129.3 333.2,129.2 335.3,129.2 337.5,129.1 339.7,129.0 341.8,129.0 344.0,128.9 346.2,128.8 348.3,128.7 350.5,128.6 352.7,128.5 354.8,128.4 357.0,128.3 359.1,128.1 361.3,128.1 363.5,127.9 365.6,127.8 367.8,127.6 370.0,127.5 372.1,127.2 374.3,127.1 376.5,126.8 378.6,126.7 380.8,126.4 382.9,126.3 385.1,125.9 387.3,125.7 389.4,125.3 391.6,125.2 393.8,124.7 395.9,124.5 398.1,124.0 400.3,123.8 402.4,123.2 404.6,122.9 406.8,122.2 408.9,121.9 411.1,121.2 413.2,123.6 415.4,126.3 417.6,127.5 419.7,127.3 421.9,126.7 424.1,126.0 426.2,125.5 428.4,125.3 430.6,125.1 432.7,124.8 434.9,124.6 437.1,124.2 439.2,123.9 441.4,123.5 443.5,123.2 445.7,122.8 447.9,122.4 450.0,121.9 452.2,121.5 454.4,121.0 456.5,120.5 458.7,119.8 460.9,119.2 463.0,118.5 465.2,117.9 467.3,117.2 469.5,116.5 471.7,115.6 473.8,114.8 476.0,113.8 478.2,112.9 480.3,111.8 482.5,110.9 484.7,110.0 486.8,109.3 489.0,108.6 491.2,108.2 493.3,107.9 495.5,107.6 497.6,107.4 499.8,107.2 502.0,107.0 504.1,106.9 506.3,106.8 508.5,106.8 510.6,106.7 512.8,106.7 515.0,106.7 517.1,106.7 519.3,106.7 521.5,106.8 523.6,106.8 525.8,106.9 527.9,106.9 530.1,107.0 532.3,107.0 534.4,107.1 536.6,107.2 538.8,107.3 540.9,107.4 543.1,107.5 545.3,107.6 547.4,107.7 549.6,107.8 551.8,108.0 553.9,108.1 556.1,108.3 558.2,108.4 560.4,108.6 562.6,108.9 564.7,109.1 566.9,109.4 569.1,109.8 571.2,110.1 573.4,110.5 575.6,111.0 577.7,111.4 579.9,111.9 582.0,112.5 584.2,113.0 586.4,113.6 588.5,114.2 590.7,114.8 592.9,115.5 595.0,116.2 597.2,116.9 599.4,117.7 601.5,118.5 603.7,119.4 605.9,120.3 608.0,121.2 610.2,122.2 612.3,123.3 614.5,124.4 616.7,125.6 618.8,126.8 621.0,128.1 623.2,129.3 625.3,131.0 627.5,132.6 629.7,134.3 631.8,136.1 634.0,137.9 636.2,139.9 638.3,142.0 640.5,144.3 642.6,146.7 644.8,149.3 647.0,152.0 649.1,154.9 651.3,157.9 653.5,161.2 655.6,164.6 657.8,181.2 660.0,197.9 662.1,214.6 664.3,231.2 666.4,247.9 668.6,250.9 670.8,234.2 672.9,217.6 675.1,200.9 677.3,184.2 679.4,167.5 681.6,150.9 683.8,136.2 685.9,129.3 688.1,125.1 690.3,121.4 692.4,117.8 694.6,114.8 696.7,113.0 698.9,112.6 701.1,113.8 703.2,116.4 705.4,120.1 707.6,124.3 709.7,128.6 711.9,132.5 714.1,135.7 716.2,137.8 718.4,138.6 720.6,137.8 722.7,135.7 724.9,132.7 727.0,129.3 729.2,125.9 731.4,123.0 733.5,120.8 735.7,119.4 737.9,118.8 740.0,118.7 742.2,119.0 744.4,119.3 746.5,119.7 748.7,119.9 750.9,120.1 753.0,120.1 755.2,120.0 757.3,119.9 759.5,119.7 761.7,119.4 763.8,119.1 766.0,118.8"/>
<line x1="606" y1="60" x2="628" y2="60" stroke="#24a148" stroke-width="2.2"/>
<text x="634" y="64" font-family="Arial" font-size="12">aileron_deg</text>
<polyline fill="none" stroke="#da1e28" stroke-width="2.2" points="54.0,130.2 56.2,130.2 58.3,130.2 60.5,130.2 62.7,130.2 64.8,130.2 67.0,130.2 69.1,130.2 71.3,130.2 73.5,130.2 75.6,130.2 77.8,130.2 80.0,130.2 82.1,130.2 84.3,130.2 86.5,130.2 88.6,130.2 90.8,130.2 93.0,130.2 95.1,130.2 97.3,130.4 99.4,130.5 101.6,130.6 103.8,130.6 105.9,130.6 108.1,130.6 110.3,130.6 112.4,130.6 114.6,130.6 116.8,130.6 118.9,130.6 121.1,130.6 123.3,130.6 125.4,130.6 127.6,130.6 129.7,130.6 131.9,130.6 134.1,130.6 136.2,130.6 138.4,130.5 140.6,130.5 142.7,130.5 144.9,130.5 147.1,130.5 149.2,130.3 151.4,130.5 153.6,130.5 155.7,130.5 157.9,130.5 160.0,130.5 162.2,130.5 164.4,130.5 166.5,130.3 168.7,130.5 170.9,130.5 173.0,130.5 175.2,130.5 177.4,130.5 179.5,130.5 181.7,130.3 183.8,130.5 186.0,130.5 188.2,130.5 190.3,130.5 192.5,130.5 194.7,130.3 196.8,130.5 199.0,130.5 201.2,130.5 203.3,130.5 205.5,130.3 207.7,130.4 209.8,130.5 212.0,130.5 214.1,130.3 216.3,130.4 218.5,130.5 220.6,130.5 222.8,130.3 225.0,130.4 227.1,130.3 229.3,130.4 231.5,130.5 233.6,130.3 235.8,130.2 238.0,130.4 240.1,130.3 242.3,130.4 244.4,130.3 246.6,130.2 248.8,130.2 250.9,130.2 253.1,130.2 255.3,130.2 257.4,130.2 259.6,130.2 261.8,130.2 263.9,130.2 266.1,130.2 268.2,130.2 270.4,130.2 272.6,130.2 274.7,130.2 276.9,130.2 279.1,130.2 281.2,130.2 283.4,130.2 285.6,130.2 287.7,130.2 289.9,130.2 292.1,130.2 294.2,130.2 296.4,130.2 298.5,130.2 300.7,130.2 302.9,130.2 305.0,130.2 307.2,130.2 309.4,130.2 311.5,130.2 313.7,130.2 315.9,130.2 318.0,130.2 320.2,130.2 322.4,130.2 324.5,129.9 326.7,129.8 328.8,129.8 331.0,129.8 333.2,130.0 335.3,129.8 337.5,130.0 339.7,129.5 341.8,129.9 344.0,129.6 346.2,129.4 348.3,129.4 350.5,129.2 352.7,129.4 354.8,128.7 357.0,129.2 359.1,128.6 361.3,129.2 363.5,128.4 365.6,129.0 367.8,128.0 370.0,128.5 372.1,127.4 374.3,128.1 376.5,127.0 378.6,127.9 380.8,126.7 382.9,127.6 385.1,126.2 387.3,127.1 389.4,125.5 391.6,126.5 393.8,124.7 395.9,126.0 398.1,124.0 400.3,125.4 402.4,123.1 404.6,124.8 406.8,122.1 408.9,123.9 411.1,120.9 413.2,123.1 415.4,119.7 417.6,122.2 419.7,118.4 421.9,121.1 424.1,116.8 426.2,119.7 428.4,114.9 430.6,118.1 432.7,112.8 434.9,116.3 437.1,110.7 439.2,114.0 441.4,107.6 443.5,111.7 445.7,105.5 447.9,107.9 450.0,100.0 452.2,104.2 454.4,98.1 456.5,103.2 458.7,95.3 460.9,97.4 463.0,87.9 465.2,92.2 467.3,85.5 469.5,87.8 471.7,77.3 473.8,81.4 476.0,76.2 478.2,75.6 480.3,74.2 482.5,72.6 484.7,70.8 486.8,68.6 489.0,66.7 491.2,64.7 493.3,63.3 495.5,62.1 497.6,61.3 499.8,60.6 502.0,60.2 504.1,59.6 506.3,59.4 508.5,59.0 510.6,58.9 512.8,58.7 515.0,58.7 517.1,58.6 519.3,58.7 521.5,58.7 523.6,58.9 525.8,58.9 527.9,59.1 530.1,59.3 532.3,59.4 534.4,59.7 536.6,59.9 538.8,60.1 540.9,60.4 543.1,60.7 545.3,60.9 547.4,61.3 549.6,61.6 551.8,61.9 553.9,62.3 556.1,62.7 558.2,63.1 560.4,63.5 562.6,64.0 564.7,64.5 566.9,65.1 569.1,65.9 571.2,66.8 573.4,68.0 575.6,69.2 577.7,70.6 579.9,72.0 582.0,73.5 584.2,75.1 586.4,76.8 588.5,78.6 590.7,80.4 592.9,82.3 595.0,84.3 597.2,86.5 599.4,88.7 601.5,91.0 603.7,93.4 605.9,96.0 608.0,98.7 610.2,101.6 612.3,104.6 614.5,107.7 616.7,111.0 618.8,114.6 621.0,118.3 623.2,122.2 625.3,126.4 627.5,130.8 629.7,135.5 631.8,140.5 634.0,145.8 636.2,151.4 638.3,157.3 640.5,163.6 642.6,170.3 644.8,177.4 647.0,184.9 649.1,192.9 651.3,201.4 653.5,210.3 655.6,219.6 657.8,229.5 660.0,246.2 662.1,251.6 664.3,260.3 666.4,263.7 668.6,265.1 670.8,265.6 672.9,265.9 675.1,265.9 677.3,266.0 679.4,266.0 681.6,266.0 683.8,266.0 685.9,250.2 688.1,233.6 690.3,216.9 692.4,200.2 694.6,183.6 696.7,166.9 698.9,150.2 701.1,133.5 703.2,116.9 705.4,100.2 707.6,83.5 709.7,66.9 711.9,54.0 714.1,70.7 716.2,87.3 718.4,104.0 720.6,120.7 722.7,137.4 724.9,154.0 727.0,170.1 729.2,163.8 731.4,148.2 733.5,131.8 735.7,118.5 737.9,109.6 740.0,104.6 742.2,102.6 744.4,102.5 746.5,103.2 748.7,104.1 750.9,104.8 753.0,105.1 755.2,104.8 757.3,104.0 759.5,102.7 761.7,100.8 763.8,98.2 766.0,94.8"/>
<line x1="606" y1="78" x2="628" y2="78" stroke="#da1e28" stroke-width="2.2"/>
<text x="634" y="82" font-family="Arial" font-size="12">rudder_deg</text>
</svg>