<svg xmlns="http://www.w3.org/2000/svg" width="820" height="320" viewBox="0 0 820 320">
<rect width="100%" height="100%" fill="#ffffff"/>
<text x="54" y="28" font-family="Arial" font-size="18" font-weight="700">Actuator Saturation</text>
<line x1="54" y1="266" x2="766" y2="266" stroke="#1f2933"/>
<line x1="54" y1="54" x2="54" y2="266" stroke="#1f2933"/>
<text x="54" y="306" font-family="Arial" font-size="12">time (s)</text>
<text x="596" y="306" font-family="Arial" font-size="12">flag</text>
<text x="58" y="68" font-family="Arial" font-size="11">1</text>
<text x="58" y="260" font-family="Arial" font-size="11">0</text>
<polyline fill="none" stroke="#0f62fe" stroke-width="2.2" points="54.0,266.0 56.2,266.0 58.3,266.0 60.5,266.0 62.7,266.0 64.8,266.0 67.0,266.0 69.1,266.0 71.3,266.0 73.5,266.0 75.6,266.0 77.8,266.0 80.0,266.0 82.1,266.0 84.3,266.0 86.5,266.0 88.6,266.0 90.8,266.0 93.0,266.0 95.1,266.0 97.3,266.0 99.4,266.0 101.6,266.0 103.8,266.0 105.9,266.0 108.1,266.0 110.3,266.0 112.4,266.0 114.6,266.0 116.8,266.0 118.9,266.0 121.1,266.0 123.3,266.0 125.4,266.0 127.6,266.0 129.7,266.0 131.9,266.0 134.1,266.0 136.2,266.0 138.4,266.0 140.6,266.0 142.7,266.0 144.9,266.0 147.1,266.0 149.2,266.0 151.4,266.0 153.6,266.0 155.7,266.0 157.9,266.0 160.0,266.0 162.2,266.0 164.4,266.0 166.5,266.0 168.7,266.0 170.9,266.0 173.0,266.0 175.2,266.0 177.4,266.0 179.5,266.0 181.7,266.0 183.8,266.0 186.0,266.0 188.2,266.0 190.3,266.0 192.5,266.0 194.7,266.0 196.8,266.0 199.0,266.0 201.2,266.0 203.3,266.0 205.5,266.0 207.7,266.0 209.8,266.0 212.0,266.0 214.1,266.0 216.3,266.0 218.5,266.0 220.6,266.0 222.8,266.0 225.0,266.0 227.1,266.0 229.3,266.0 231.5,266.0 233.6,266.0 235.8,266.0 238.0,266.0 240.1,266.0 242.3,266.0 244.4,266.0 246.6,266.0 248.8,266.0 250.9,266.0 253.1,266.0 255.3,266.0 257.4,266.0 259.6,266.0 261.8,266.0 263.9,266.0 266.1,266.0 268.2,266.0 270.4,266.0 272.6,266.0 274.7,266.0 276.9,266.0 279.1,266.0 281.2,266.0 283.4,266.0 285.6,266.0 287.7,266.0 289.9,266.0 292.1,266.0 294.2,266.0 296.4,266.0 298.5,266.0 300.7,266.0 302.9,266.0 305.0,266.0 307.2,266.0 309.4,266.0 311.5,266.0 313.7,266.0 315.9,266.0 318.0,266.0 320.2,266.0 322.4,266.0 324.5,266.0 326.7,266.0 328.8,266.0 331.0,266.0 333.2,266.0 335.3,266.0 337.5,266.0 339.7,266.0 341.8,266.0 344.0,266.0 346.2,266.0 348.3,266.0 350.5,266.0 352.7,266.0 354.8,266.0 357.0,266.0 359.1,266.0 361.3,266.0 363.5,266.0 365.6,266.0 367.8,266.0 370.0,266.0 372.1,266.0 374.3,266.0 376.5,266.0 378.6,266.0 380.8,266.0 382.9,266.0 385.1,266.0 387.3,266.0 389.4,266.0 391.6,266.0 393.8,266.0 395.9,266.0 398.1,266.0 400.3,266.0 402.4,266.0 404.6,266.0 406.8,266.0 408.9,266.0 411.1,266.0 413.2,266.0 415.4,266.0 417.6,266.0 419.7,266.0 421.9,266.0 424.1,266.0 426.2,266.0 428.4,266.0 430.6,266.0 432.7,266.0 434.9,266.0 437.1,266.0 439.2,266.0 441.4,266.0 443.5,266.0 445.7,266.0 447.9,266.0 450.0,266.0 452.2,266.0 454.4,266.0 456.5,266.0 458.7,266.0 460.9,266.0 463.0,266.0 465.2,266.0 467.3,266.0 469.5,266.0 471.7,266.0 473.8,266.0 476.0,266.0 478.2,266.0 480.3,266.0 482.5,266.0 484.7,266.0 486.8,266.0 489.0,266.0 491.2,266.0 493.3,266.0 495.5,266.0 497.6,266.0 499.8,266.0 502.0,266.0 504.1,266.0 506.3,266.0 508.5,266.0 510.6,266.0 512.8,266.0 515.0,266.0 517.1,266.0 519.3,266.0 521.5,266.0 523.6,266.0 525.8,266.0 527.9,266.0 530.1,266.0 532.3,266.0 534.4,266.0 536.6,266.0 538.8,266.0 540.9,266.0 543.1,266.0 545.3,266.0 547.4,266.0 549.6,266.0 551.8,266.0 553.9,266.0 556.1,266.0 558.2,266.0 560.4,266.0 562.6,266.0 564.7,266.0 566.9,266.0 569.1,266.0 571.2,266.0 573.4,266.0 575.6,266.0 577.7,266.0 579.9,266.0 582.0,266.0 584.2,266.0 586.4,266.0 588.5,266.0 590.7,266.0 592.9,266.0 595.0,266.0 597.2,266.0 599.4,266.0 601.5,266.0 603.7,266.0 605.9,266.0 608.0,266.0 610.2,266.0 612.3,266.0 614.5,266.0 616.7,266.0 618.8,266.0 621.0,266.0 623.2,266.0 625.3,266.0 627.5,266.0 629.7,266.0 631.8,266.0 634.0,266.0 636.2,266.0 638.3,266.0 640.5,266.0 642.6,266.0 644.8,266.0 647.0,266.0 649.1,266.0 651.3,266.0 653.5,266.0 655.6,266.0 657.8,266.0 660.0,266.0 662.1,266.0 664.3,266.0 666.4,266.0 668.6,266.0 670.8,266.0 672.9,266.0 675.1,266.0 677.3,266.0 679.4,266.0 681.6,266.0 683.8,266.0 685.9,266.0 688.1,266.0 690.3,266.0 692.4,266.0 694.6,266.0 696.7,266.0 698.9,54.0 701.1,54.0 703.2,54.0 705.4,266.0 707.6,266.0 709.7,266.0 711.9,266.0 714.1,266.0 716.2,266.0 718.4,266.0 720.6,266.0 722.7,266.0 724.9,266.0 727.0,266.0 729.2,266.0 731.4,266.0 733.5,266.0 735.7,266.0 737.9,266.0 740.0,266.0 742.2,266.0 744.4,266.0 746.5,266.0 748.7,266.0 750.9,266.0 753.0,266.0 755.2,266.0 757.3,266.0 759.5,266.0 761.7,266.0 763.8,266.0 766.0,266.0"/>
<line x1="606" y1="42" x2="628" y2="42" stroke="#0f62fe" stroke-width="2.2"/>
<text x="634" y="46" font-family="Arial" font-size="12">elevator_saturated</text>
<polyline fill="none" stroke="#24a148" stroke-width="2.2" points="54.0,266.0 56.2,266.0 58.3,266.0 60.5,266.0 62.7,266.0 64.8,266.0 67.0,266.0 69.1,266.0 71.3,266.0 73.5,266.0 75.6,266.0 77.8,266.0 80.0,266.0 82.1,266.0 84.3,266.0 86.5,266.0 88.6,266.0 90.8,266.0 93.0,266.0 95.1,266.0 97.3,266.0 99.4,266.0 101.6,266.0 103.8,266.0 105.9,266.0 108.1,266.0 110.3,266.0 112.4,266.0 114.6,266.0 116.8,266.0 118.9,266.0 121.1,266.0 123.3,266.0 125.4,266.0 127.6,266.0 129.7,266.0 131.9,266.0 134.1,266.0 136.2,266.0 138.4,266.0 140.6,266.0 142.7,266.0 144.9,266.0 147.1,266.0 149.2,266.0 151.4,266.0 153.6,266.0 155.7,266.0 157.9,266.0 160.0,266.0 162.2,266.0 164.4,266.0 166.5,266.0 168.7,266.0 170.9,266.0 173.0,266.0 175.2,266.0 177.4,266.0 179.5,266.0 181.7,266.0 183.8,266.0 186.0,266.0 188.2,266.0 190.3,266.0 192.5,266.0 194.7,266.0 196.8,266.0 199.0,266.0 201.2,266.0 203.3,266.0 205.5,266.0 207.7,266.0 209.8,266.0 212.0,266.0 214.1,266.0 216.3,266.0 218.5,266.0 220.6,266.0 222.8,266.0 225.0,266.0 227.1,266.0 229.3,266.0 231.5,266.0 233.6,266.0 235.8,266.0 238.0,266.0 240.1,266.0 242.3,266.0 244.4,266.0 246.6,266.0 248.8,266.0 250.9,266.0 253.1,266.0 255.3,266.0 257.4,266.0 259.6,266.0 261.8,266.0 263.9,266.0 266.1,266.0 268.2,266.0 270.4,266.0 272.6,266.0 274.7,266.0 276.9,266.0 279.1,266.0 281.2,266.0 283.4,266.0 285.6,266.0 287.7,266.0 289.9,266.0 292.1,266.0 294.2,266.0 296.4,266.0 298.5,266.0 300.7,266.0 302.9,266.0 305.0,266.0 307.2,266.0 309.4,266.0 311.5,266.0 313.7,266.0 315.9,266.0 318.0,266.0 320.2,266.0 322.4,266.0 324.5,266.0 326.7,266.0 328.8,266.0 331.0,266.0 333.2,266.0 335.3,266.0 337.5,266.0 339.7,266.0 341.8,266.0 344.0,266.0 346.2,266.0 348.3,266.0 350.5,266.0 352.7,266.0 354.8,266.0 357.0,266.0 359.1,266.0 361.3,266.0 363.5,266.0 365.6,266.0 367.8,266.0 370.0,266.0 372.1,266.0 374.3,266.0 376.5,266.0 378.6,266.0 380.8,266.0 382.9,266.0 385.1,266.0 387.3,266.0 389.4,266.0 391.6,266.0 393.8,266.0 395.9,266.0 398.1,266.0 400.3,266.0 402.4,266.0 404.6,266.0 406.8,266.0 408.9,266.0 411.1,266.0 413.2,266.0 415.4,266.0 417.6,266.0 419.7,266.0 421.9,266.0 424.1,266.0 426.2,266.0 428.4,266.0 430.6,266.0 432.7,266.0 434.9,266.0 437.1,266.0 439.2,266.0 441.4,266.0 443.5,266.0 445.7,266.0 447.9,266.0 450.0,266.0 452.2,266.0 454.4,266.0 456.5,266.0 458.7,266.0 460.9,266.0 463.0,266.0 465.2,266.0 467.3,266.0 469.5,266.0 471.7,266.0 473.8,266.0 476.0,266.0 478.2,266.0 480.3,266.0 482.5,266.0 484.7,266.0 486.8,266.0 489.0,266.0 491.2,266.0 493.3,266.0 495.5,266.0 497.6,266.0 499.8,266.0 502.0,266.0 504.1,266.0 506.3,266.0 508.5,266.0 510.6,266.0 512.8,266.0 515.0,266.0 517.1,266.0 519.3,266.0 521.5,266.0 523.6,266.0 525.8,266.0 527.9,266.0 530.1,266.0 532.3,266.0 534.4,266.0 536.6,266.0 538.8,266.0 540.9,266.0 543.1,266.0 545.3,266.0 547.4,266.0 549.6,266.0 551.8,266.0 553.9,266.0 556.1,266.0 558.2,266.0 560.4,266.0 562.6,266.0 564.7,266.0 566.9,266.0 569.1,266.0 571.2,266.0 573.4,266.0 575.6,266.0 577.7,266.0 579.9,266.0 582.0,266.0 584.2,266.0 586.4,266.0 588.5,266.0 590.7,266.0 592.9,266.0 595.0,266.0 597.2,266.0 599.4,266.0 601.5,266.0 603.7,266.0 605.9,266.0 608.0,266.0 610.2,266.0 612.3,266.0 614.5,266.0 616.7,266.0 618.8,266.0 621.0,266.0 623.2,266.0 625.3,266.0 627.5,266.0 629.7,266.0 631.8,266.0 634.0,266.0 636.2,266.0 638.3,266.0 640.5,266.0 642.6,266.0 644.8,266.0 647.0,266.0 649.1,266.0 651.3,266.0 653.5,266.0 655.6,266.0 657.8,54.0 660.0,54.0 662.1,54.0 664.3,54.0 666.4,54.0 668.6,266.0 670.8,266.0 672.9,266.0 675.1,266.0 677.3,266.0 679.4,266.0 681.6,266.0 683.8,266.0 685.9,266.0 688.1,266.0 690.3,266.0 692.4,266.0 694.6,266.0 696.7,266.0 698.9,266.0 701.1,266.0 703.2,266.0 705.4,266.0 707.6,266.0 709.7,266.0 711.9,266.0 714.1,266.0 716.2,266.0 718.4,266.0 720.6,266.0 722.7,266.0 724.9,266.0 727.0,266.0 729.2,266.0 731.4,266.0 733.5,266.0 735.7,266.0 737.9,266.0 740.0,266.0 742.2,266.0 744.4,266.0 746.5,266.0 748.7,266.0 750.9,266.0 753.0,266.0 755.2,266.0 757.3,266.0 759.5,266.0 761.7,266.0 763.8,266.0 766.0,266.0"/>
<line x1="606" y1="60" x2="628" y2="60" stroke="#24a148" stroke-width="2.2"/>
<text x="634" y="64" font-family="Arial" font-size="12">aileron_saturated</text>
<polyline fill="none" stroke="#da1e28" stroke-width="2.2" points="54.0,266.0 56.2,266.0 58.3,266.0 60.5,266.0 62.7,266.0 64.8,266.0 67.0,266.0 69.1,266.0 71.3,266.0 73.5,266.0 75.6,266.0 77.8,266.0 80.0,266.0 82.1,266.0 84.3,266.0 86.5,266.0 88.6,266.0 90.8,266.0 93.0,266.0 95.1,266.0 97.3,266.0 99.4,266.0 101.6,266.0 103.8,266.0 105.9,266.0 108.1,266.0 110.3,266.0 112.4,266.0 114.6,266.0 116.8,266.0 118.9,266.0 121.1,266.0 123.3,266.0 125.4,266.0 127.6,266.0 129.7,266.0 131.9,266.0 134.1,266.0 136.2,266.0 138.4,266.0 140.6,266.0 142.7,266.0 144.9,266.0 147.1,266.0 149.2,266.0 151.4,266.0 153.6,266.0 155.7,266.0 157.9,266.0 160.0,266.0 162.2,266.0 164.4,266.0 166.5,266.0 168.7,266.0 170.9,266.0 173.0,266.0 175.2,266.0 177.4,266.0 179.5,266.0 181.7,266.0 183.8,266.0 186.0,266.0 188.2,266.0 190.3,266.0 192.5,266.0 194.7,266.0 196.8,266.0 199.0,266.0 201.2,266.0 203.3,266.0 205.5,266.0 207.7,266.0 209.8,266.0 212.0,266.0 214.1,266.0 216.3,266.0 218.5,266.0 220.6,266.0 222.8,266.0 225.0,266.0 227.1,266.0 229.3,266.0 231.5,266.0 233.6,266.0 235.8,266.0 238.0,266.0 240.1,266.0 242.3,266.0 244.4,266.0 246.6,266.0 248.8,266.0 250.9,266.0 253.1,266.0 255.3,266.0 257.4,266.0 259.6,266.0 261.8,266.0 263.9,266.0 266.1,266.0 268.2,266.0 270.4,266.0 272.6,266.0 274.7,266.0 276.9,266.0 279.1,266.0 281.2,266.0 283.4,266.0 285.6,266.0 287.7,266.0 289.9,266.0 292.1,266.0 294.2,266.0 296.4,266.0 298.5,266.0 300.7,266.0 302.9,266.0 305.0,266.0 307.2,266.0 309.4,266.0 311.5,266.0 313.7,266.0 315.9,266.0 318.0,266.0 320.2,266.0 322.4,266.0 324.5,266.0 326.7,266.0 328.8,266.0 331.0,266.0 333.2,266.0 335.3,266.0 337.5,266.0 339.7,266.0 341.8,266.0 344.0,266.0 346.2,266.0 348.3,266.0 350.5,266.0 352.7,266.0 354.8,266.0 357.0,266.0 359.1,266.0 361.3,266.0 363.5,266.0 365.6,266.0 367.8,266.0 370.0,266.0 372.1,266.0 374.3,266.0 376.5,266.0 378.6,266.0 380.8,266.0 382.9,266.0 385.1,266.0 387.3,266.0 389.4,266.0 391.6,266.0 393.8,266.0 395.9,266.0 398.1,266.0 400.3,266.0 402.4,266.0 404.6,266.0 406.8,266.0 408.9,266.0 411.1,266.0 413.2,266.0 415.4,266.0 417.6,266.0 419.7,266.0 421.9,266.0 424.1,266.0 426.2,266.0 428.4,266.0 430.6,266.0 432.7,266.0 434.9,266.0 437.1,266.0 439.2,266.0 441.4,266.0 443.5,266.0 445.7,266.0 447.9,266.0 450.0,266.0 452.2,266.0 454.4,266.0 456.5,266.0 458.7,266.0 460.9,266.0 463.0,266.0 465.2,266.0 467.3,266.0 469.5,266.0 471.7,266.0 473.8,266.0 476.0,266.0 478.2,266.0 480.3,266.0 482.5,266.0 484.7,266.0 486.8,266.0 489.0,266.0 491.2,266.0 493.3,266.0 495.5,266.0 497.6,266.0 499.8,266.0 502.0,266.0 504.1,266.0 506.3,266.0 508.5,266.0 510.6,266.0 512.8,266.0 515.0,266.0 517.1,266.0 519.3,266.0 521.5,266.0 523.6,266.0 525.8,266.0 527.9,266.0 530.1,266.0 532.3,266.0 534.4,266.0 536.6,266.0 538.8,266.0 540.9,266.0 543.1,266.0 545.3,266.0 547.4,266.0 549.6,266.0 551.8,266.0 553.9,266.0 556.1,266.0 558.2,266.0 560.4,266.0 562.6,266.0 564.7,266.0 566.9,266.0 569.1,266.0 571.2,266.0 573.4,266.0 575.6,266.0 577.7,266.0 579.9,266.0 582.0,266.0 584.2,266.0 586.4,266.0 588.5,266.0 590.7,266.0 592.9,266.0 595.0,266.0 597.2,266.0 599.4,266.0 601.5,266.0 603.7,266.0 605.9,266.0 608.0,266.0 610.2,266.0 612.3,266.0 614.5,266.0 616.7,266.0 618.8,266.0 621.0,266.0 623.2,266.0 625.3,266.0 627.5,266.0 629.7,266.0 631.8,266.0 634.0,266.0 636.2,266.0 638.3,266.0 640.5,266.0 642.6,266.0 644.8,266.0 647.0,266.0 649.1,266.0 651.3,266.0 653.5,266.0 655.6,266.0 657.8,266.0 660.0,54.0 662.1,266.0 664.3,54.0 666.4,54.0 668.6,54.0 670.8,54.0 672.9,54.0 675.1,54.0 677.3,54.0 679.4,54.0 681.6,54.0 683.8,54.0 685.9,266.0 688.1,266.0 690.3,266.0 692.4,266.0 694.6,266.0 696.7,266.0 698.9,54.0 701.1,54.0 703.2,54.0 705.4,54.0 707.6,54.0 709.7,266.0 711.9,266.0 714.1,266.0 716.2,266.0 718.4,266.0 720.6,266.0 722.7,266.0 724.9,266.0 727.0,266.0 729.2,266.0 731.4,266.0 733.5,266.0 735.7,266.0 737.9,266.0 740.0,266.0 742.2,266.0 744.4,266.0 746.5,266.0 748.7,266.0 750.9,266.0 753.0,266.0 755.2,266.0 757.3,266.0 759.5,266.0 761.7,266.0 763.8,266.0 766.0,266.0"/>
<line x1="606" y1="78" x2="628" y2="78" stroke="#da1e28" stroke-width="2.2"/>
<text x="634" y="82" font-family="Arial" font-size="12">rudder_saturated</text>
</svg>