<svg xmlns="http://www.w3.org/2000/svg" width="820" height="320" viewBox="0 0 820 320">
<rect width="100%" height="100%" fill="#ffffff"/>
<text x="54" y="28" font-family="Arial" font-size="18" font-weight="700">GPS Altitude vs Truth</text>
<line x1="54" y1="266" x2="766" y2="266" stroke="#1f2933"/>
<line x1="54" y1="54" x2="54" y2="266" stroke="#1f2933"/>
<text x="54" y="306" font-family="Arial" font-size="12">time (s)</text>
<text x="596" y="306" font-family="Arial" font-size="12">altitude (m)</text>
<text x="58" y="68" font-family="Arial" font-size="11">72.6</text>
<text x="58" y="260" font-family="Arial" font-size="11">-0.117</text>
<polyline fill="none" stroke="#0f62fe" stroke-width="2.2" points="54.0,207.3 56.2,206.6 58.3,206.0 60.5,205.3 62.7,204.7 64.8,204.1 67.0,203.5 69.1,202.9 71.3,202.4 73.5,201.8 75.6,201.3 77.8,200.7 80.0,200.2 82.1,199.7 84.3,199.2 86.5,198.7 88.6,198.3 90.8,197.8 93.0,197.3 95.1,196.9 97.3,196.5 99.4,196.0 101.6,195.6 103.8,195.2 105.9,194.8 108.1,194.4 110.3,194.0 112.4,193.7 114.6,193.3 116.8,192.9 118.9,192.6 121.1,192.2 123.3,191.9 125.4,191.6 127.6,191.2 129.7,190.9 131.9,190.6 134.1,190.3 136.2,190.0 138.4,189.7 140.6,189.4 142.7,189.1 144.9,188.8 147.1,188.5 149.2,188.3 151.4,188.0 153.6,187.7 155.7,187.5 157.9,187.2 160.0,187.0 162.2,186.8 164.4,186.5 166.5,186.3 168.7,186.0 170.9,185.8 173.0,185.6 175.2,185.4 177.4,185.2 179.5,184.9 181.7,184.7 183.8,184.5 186.0,184.3 188.2,184.1 190.3,183.9 192.5,183.7 194.7,183.5 196.8,183.3 199.0,183.1 201.2,182.9 203.3,182.7 205.5,182.5 207.7,182.3 209.8,182.2 212.0,182.0 214.1,181.8 216.3,181.6 218.5,181.4 220.6,181.2 222.8,181.0 225.0,180.8 227.1,180.7 229.3,180.5 231.5,180.3 233.6,180.1 235.8,179.9 238.0,179.7 240.1,179.5 242.3,179.3 244.4,179.1 246.6,178.9 248.8,178.7 250.9,178.5 253.1,178.3 255.3,178.1 257.4,177.9 259.6,177.7 261.8,177.5 263.9,177.3 266.1,177.1 268.2,176.8 270.4,176.6 272.6,176.4 274.7,176.1 276.9,175.9 279.1,175.7 281.2,175.4 283.4,175.1 285.6,174.9 287.7,174.6 289.9,174.3 292.1,174.1 294.2,173.8 296.4,173.5 298.5,173.2 300.7,172.9 302.9,172.5 305.0,172.2 307.2,171.9 309.4,171.6 311.5,171.2 313.7,170.9 315.9,170.5 318.0,170.1 320.2,169.7 322.4,169.3 324.5,168.9 326.7,168.5 328.8,168.1 331.0,167.7 333.2,167.3 335.3,166.8 337.5,166.4 339.7,165.9 341.8,165.4 344.0,164.9 346.2,164.4 348.3,163.9 350.5,163.4 352.7,162.9 354.8,162.3 357.0,161.8 359.1,161.2 361.3,160.7 363.5,160.1 365.6,159.5 367.8,158.9 370.0,158.3 372.1,157.7 374.3,157.0 376.5,156.4 378.6,155.7 380.8,155.0 382.9,154.3 385.1,153.6 387.3,152.9 389.4,152.2 391.6,151.5 393.8,150.7 395.9,150.0 398.1,149.2 400.3,148.4 402.4,147.6 404.6,146.8 406.8,145.9 408.9,145.1 411.1,144.2 413.2,143.4 415.4,142.5 417.6,141.6 419.7,140.7 421.9,139.8 424.1,138.8 426.2,137.9 428.4,136.9 430.6,135.9 432.7,135.0 434.9,134.0 437.1,133.0 439.2,132.0 441.4,131.0 443.5,129.9 445.7,128.9 447.9,127.9 450.0,126.8 452.2,125.7 454.4,124.7 456.5,123.6 458.7,122.5 460.9,121.4 463.0,120.3 465.2,119.1 467.3,118.0 469.5,116.8 471.7,115.6 473.8,114.4 476.0,113.2 478.2,112.0 480.3,110.8 482.5,109.5 484.7,108.3 486.8,107.0 489.0,105.7 491.2,104.4 493.3,103.0 495.5,101.7 497.6,100.3 499.8,99.0 502.0,97.6 504.1,96.2 506.3,94.8 508.5,93.5 510.6,92.1 512.8,90.7 515.0,89.3 517.1,87.9 519.3,86.5 521.5,85.1 523.6,83.8 525.8,82.4 527.9,81.1 530.1,79.7 532.3,78.4 534.4,77.1 536.6,75.8 538.8,74.5 540.9,73.2 543.1,72.0 545.3,70.8 547.4,69.6 549.6,68.5 551.8,67.4 553.9,66.3 556.1,65.2 558.2,64.2 560.4,63.3 562.6,62.3 564.7,61.5 566.9,60.6 569.1,59.8 571.2,59.1 573.4,58.4 575.6,57.8 577.7,57.2 579.9,56.6 582.0,56.1 584.2,55.7 586.4,55.3 588.5,55.0 590.7,54.7 592.9,54.5 595.0,54.4 597.2,54.3 599.4,54.2 601.5,54.3 603.7,54.4 605.9,54.5 608.0,54.7 610.2,55.0 612.3,55.4 614.5,55.8 616.7,56.3 618.8,56.9 621.0,57.5 623.2,58.2 625.3,59.0 627.5,59.9 629.7,60.8 631.8,61.8 634.0,62.9 636.2,64.0 638.3,65.3 640.5,66.6 642.6,68.0 644.8,69.4 647.0,71.0 649.1,72.6 651.3,74.3 653.5,76.1 655.6,78.0 657.8,79.9 660.0,81.9 662.1,84.0 664.3,86.2 666.4,88.5 668.6,90.8 670.8,93.2 672.9,95.6 675.1,98.2 677.3,100.8 679.4,103.5 681.6,106.2 683.8,109.0 685.9,111.8 688.1,114.7 690.3,117.6 692.4,120.6 694.6,123.7 696.7,126.8 698.9,129.9 701.1,133.1 703.2,136.4 705.4,139.7 707.6,143.1 709.7,146.6 711.9,150.2 714.1,153.8 716.2,157.6 718.4,161.4 720.6,165.4 722.7,169.4 724.9,173.5 727.0,177.7 729.2,181.9 731.4,186.3 733.5,190.7 735.7,195.2 737.9,199.8 740.0,204.4 742.2,209.1 744.4,213.9 746.5,218.8 748.7,223.7 750.9,228.7 753.0,233.8 755.2,239.0 757.3,244.2 759.5,249.6 761.7,255.0 763.8,260.4 766.0,266.0"/>
<line x1="606" y1="42" x2="628" y2="42" stroke="#0f62fe" stroke-width="2.2"/>
<text x="634" y="46" font-family="Arial" font-size="12">altitude_m</text>
<polyline fill="none" stroke="#24a148" stroke-width="2.2" points="54.0,203.9 56.2,203.9 58.3,203.9 60.5,203.9 62.7,203.9 64.8,203.9 67.0,203.9 69.1,199.9 71.3,199.9 73.5,199.9 75.6,199.9 77.8,199.9 80.0,199.9 82.1,199.9 84.3,198.3 86.5,198.3 88.6,198.3 90.8,198.3 93.0,198.3 95.1,198.3 97.3,198.3 99.4,194.7 101.6,194.7 103.8,194.7 105.9,194.7 108.1,194.7 110.3,194.7 112.4,194.7 114.6,193.0 116.8,193.0 118.9,193.0 121.1,193.0 123.3,193.0 125.4,193.0 127.6,193.0 129.7,192.5 131.9,192.5 134.1,192.5 136.2,192.5 138.4,192.5 140.6,192.5 142.7,192.5 144.9,183.2 147.1,183.2 149.2,183.2 151.4,183.2 153.6,183.2 155.7,183.2 157.9,183.2 160.0,187.6 162.2,187.6 164.4,187.6 166.5,187.6 168.7,187.6 170.9,187.6 173.0,187.6 175.2,190.7 177.4,190.7 179.5,190.7 181.7,190.7 183.8,190.7 186.0,190.7 188.2,190.7 190.3,183.0 192.5,183.0 194.7,183.0 196.8,183.0 199.0,183.0 201.2,183.0 203.3,183.0 205.5,184.9 207.7,184.9 209.8,184.9 212.0,184.9 214.1,184.9 216.3,184.9 218.5,184.9 220.6,180.1 222.8,180.1 225.0,180.1 227.1,180.1 229.3,180.1 231.5,180.1 233.6,180.1 235.8,179.8 238.0,179.8 240.1,179.8 242.3,179.8 244.4,179.8 246.6,179.8 248.8,179.8 250.9,171.3 253.1,171.3 255.3,171.3 257.4,171.3 259.6,171.3 261.8,171.3 263.9,171.3 266.1,176.8 268.2,176.8 270.4,176.8 272.6,176.8 274.7,176.8 276.9,176.8 279.1,176.8 281.2,171.9 283.4,171.9 285.6,171.9 287.7,171.9 289.9,171.9 292.1,171.9 294.2,171.9 296.4,175.9 298.5,175.9 300.7,175.9 302.9,175.9 305.0,175.9 307.2,175.9 309.4,175.9 311.5,172.7 313.7,172.7 315.9,172.7 318.0,172.7 320.2,172.7 322.4,172.7 324.5,172.7 326.7,166.1 328.8,166.1 331.0,166.1 333.2,166.1 335.3,166.1 337.5,166.1 339.7,166.1 341.8,161.7 344.0,161.7 346.2,161.7 348.3,161.7 350.5,161.7 352.7,161.7 354.8,161.7 357.0,166.0 359.1,166.0 361.3,166.0 363.5,166.0 365.6,166.0 367.8,166.0 370.0,166.0 372.1,154.9 374.3,154.9 376.5,154.9 378.6,154.9 380.8,154.9 382.9,154.9 385.1,154.9 387.3,155.2 389.4,155.2 391.6,155.2 393.8,155.2 395.9,155.2 398.1,155.2 400.3,155.2 402.4,149.9 404.6,149.9 406.8,149.9 408.9,149.9 411.1,149.9 413.2,149.9 415.4,149.9 417.6,145.1 419.7,145.1 421.9,145.1 424.1,145.1 426.2,145.1 428.4,145.1 430.6,145.1 432.7,142.1 434.9,142.1 437.1,142.1 439.2,142.1 441.4,142.1 443.5,142.1 445.7,142.1 447.9,124.0 450.0,124.0 452.2,124.0 454.4,124.0 456.5,124.0 458.7,124.0 460.9,124.0 463.0,122.0 465.2,122.0 467.3,122.0 469.5,122.0 471.7,122.0 473.8,122.0 476.0,122.0 478.2,112.5 480.3,112.5 482.5,112.5 484.7,112.5 486.8,112.5 489.0,112.5 491.2,112.5 493.3,104.6 495.5,104.6 497.6,104.6 499.8,104.6 502.0,104.6 504.1,104.6 506.3,104.6 508.5,95.4 510.6,95.4 512.8,95.4 515.0,95.4 517.1,95.4 519.3,95.4 521.5,95.4 523.6,84.6 525.8,84.6 527.9,84.6 530.1,84.6 532.3,84.6 534.4,84.6 536.6,84.6 538.8,72.7 540.9,72.7 543.1,72.7 545.3,72.7 547.4,72.7 549.6,72.7 551.8,72.7 553.9,66.8 556.1,66.8 558.2,66.8 560.4,66.8 562.6,66.8 564.7,66.8 566.9,66.8 569.1,55.3 571.2,55.3 573.4,55.3 575.6,55.3 577.7,55.3 579.9,55.3 582.0,55.3 584.2,54.0 586.4,54.0 588.5,54.0 590.7,54.0 592.9,54.0 595.0,54.0 597.2,54.0 599.4,55.7 601.5,55.7 603.7,55.7 605.9,55.7 608.0,55.7 610.2,55.7 612.3,55.7 614.5,54.9 616.7,54.9 618.8,54.9 621.0,54.9 623.2,54.9 625.3,54.9 627.5,54.9 629.7,54.2 631.8,54.2 634.0,54.2 636.2,54.2 638.3,54.2 640.5,54.2 642.6,54.2 644.8,69.9 647.0,69.9 649.1,69.9 651.3,69.9 653.5,69.9 655.6,69.9 657.8,69.9 660.0,81.0 662.1,81.0 664.3,81.0 666.4,81.0 668.6,81.0 670.8,81.0 672.9,81.0 675.1,99.0 677.3,99.0 679.4,99.0 681.6,99.0 683.8,99.0 685.9,99.0 688.1,99.0 690.3,115.7 692.4,115.7 694.6,115.7 696.7,115.7 698.9,115.7 701.1,115.7 703.2,115.7 705.4,132.3 707.6,132.3 709.7,132.3 711.9,132.3 714.1,132.3 716.2,132.3 718.4,132.3 720.6,168.0 722.7,168.0 724.9,168.0 727.0,168.0 729.2,168.0 731.4,168.0 733.5,168.0 735.7,193.9 737.9,193.9 740.0,193.9 742.2,193.9 744.4,193.9 746.5,193.9 748.7,193.9 750.9,227.7 753.0,227.7 755.2,227.7 757.3,227.7 759.5,227.7 761.7,227.7 763.8,227.7 766.0,264.4"/>
<line x1="606" y1="60" x2="628" y2="60" stroke="#24a148" stroke-width="2.2"/>
<text x="634" y="64" font-family="Arial" font-size="12">gps_z_m</text>
</svg>