<svg xmlns="http://www.w3.org/2000/svg" width="820" height="320" viewBox="0 0 820 320">
<rect width="100%" height="100%" fill="#ffffff"/>
<text x="54" y="28" font-family="Arial" font-size="18" font-weight="700">Barometer vs Truth</text>
<line x1="54" y1="266" x2="766" y2="266" stroke="#1f2933"/>
<line x1="54" y1="54" x2="54" y2="266" stroke="#1f2933"/>
<text x="54" y="306" font-family="Arial" font-size="12">time (s)</text>
<text x="596" y="306" font-family="Arial" font-size="12">altitude (m)</text>
<text x="58" y="68" font-family="Arial" font-size="11">74</text>
<text x="58" y="260" font-family="Arial" font-size="11">-0.117</text>
<polyline fill="none" stroke="#0f62fe" stroke-width="2.2" points="54.0,208.5 56.2,207.8 58.3,207.2 60.5,206.5 62.7,205.9 64.8,205.3 67.0,204.7 69.1,204.2 71.3,203.6 73.5,203.1 75.6,202.5 77.8,202.0 80.0,201.5 82.1,201.0 84.3,200.5 86.5,200.1 88.6,199.6 90.8,199.1 93.0,198.7 95.1,198.3 97.3,197.8 99.4,197.4 101.6,197.0 103.8,196.6 105.9,196.2 108.1,195.8 110.3,195.4 112.4,195.1 114.6,194.7 116.8,194.4 118.9,194.0 121.1,193.7 123.3,193.3 125.4,193.0 127.6,192.7 129.7,192.4 131.9,192.1 134.1,191.8 136.2,191.5 138.4,191.2 140.6,190.9 142.7,190.6 144.9,190.3 147.1,190.1 149.2,189.8 151.4,189.5 153.6,189.3 155.7,189.0 157.9,188.8 160.0,188.5 162.2,188.3 164.4,188.1 166.5,187.8 168.7,187.6 170.9,187.4 173.0,187.2 175.2,186.9 177.4,186.7 179.5,186.5 181.7,186.3 183.8,186.1 186.0,185.9 188.2,185.7 190.3,185.5 192.5,185.3 194.7,185.1 196.8,184.9 199.0,184.7 201.2,184.5 203.3,184.4 205.5,184.2 207.7,184.0 209.8,183.8 212.0,183.6 214.1,183.4 216.3,183.2 218.5,183.1 220.6,182.9 222.8,182.7 225.0,182.5 227.1,182.3 229.3,182.1 231.5,182.0 233.6,181.8 235.8,181.6 238.0,181.4 240.1,181.2 242.3,181.0 244.4,180.8 246.6,180.6 248.8,180.4 250.9,180.3 253.1,180.1 255.3,179.9 257.4,179.7 259.6,179.4 261.8,179.2 263.9,179.0 266.1,178.8 268.2,178.6 270.4,178.4 272.6,178.1 274.7,177.9 276.9,177.7 279.1,177.4 281.2,177.2 283.4,176.9 285.6,176.7 287.7,176.4 289.9,176.1 292.1,175.9 294.2,175.6 296.4,175.3 298.5,175.0 300.7,174.7 302.9,174.4 305.0,174.1 307.2,173.7 309.4,173.4 311.5,173.1 313.7,172.7 315.9,172.4 318.0,172.0 320.2,171.6 322.4,171.2 324.5,170.8 326.7,170.4 328.8,170.0 331.0,169.6 333.2,169.2 335.3,168.7 337.5,168.3 339.7,167.8 341.8,167.4 344.0,166.9 346.2,166.4 348.3,165.9 350.5,165.4 352.7,164.9 354.8,164.4 357.0,163.8 359.1,163.3 361.3,162.7 363.5,162.2 365.6,161.6 367.8,161.0 370.0,160.4 372.1,159.8 374.3,159.1 376.5,158.5 378.6,157.9 380.8,157.2 382.9,156.5 385.1,155.8 387.3,155.1 389.4,154.4 391.6,153.7 393.8,153.0 395.9,152.2 398.1,151.5 400.3,150.7 402.4,149.9 404.6,149.1 406.8,148.3 408.9,147.5 411.1,146.6 413.2,145.8 415.4,144.9 417.6,144.0 419.7,143.1 421.9,142.2 424.1,141.3 426.2,140.4 428.4,139.4 430.6,138.5 432.7,137.5 434.9,136.6 437.1,135.6 439.2,134.6 441.4,133.6 443.5,132.6 445.7,131.6 447.9,130.5 450.0,129.5 452.2,128.5 454.4,127.4 456.5,126.4 458.7,125.3 460.9,124.2 463.0,123.1 465.2,122.0 467.3,120.9 469.5,119.7 471.7,118.6 473.8,117.4 476.0,116.2 478.2,115.0 480.3,113.8 482.5,112.6 484.7,111.3 486.8,110.1 489.0,108.8 491.2,107.5 493.3,106.2 495.5,104.9 497.6,103.6 499.8,102.2 502.0,100.9 504.1,99.5 506.3,98.2 508.5,96.8 510.6,95.5 512.8,94.1 515.0,92.7 517.1,91.4 519.3,90.0 521.5,88.7 523.6,87.3 525.8,86.0 527.9,84.7 530.1,83.3 532.3,82.0 534.4,80.8 536.6,79.5 538.8,78.2 540.9,77.0 543.1,75.8 545.3,74.6 547.4,73.5 549.6,72.3 551.8,71.2 553.9,70.2 556.1,69.2 558.2,68.2 560.4,67.2 562.6,66.3 564.7,65.5 566.9,64.6 569.1,63.9 571.2,63.1 573.4,62.5 575.6,61.8 577.7,61.2 579.9,60.7 582.0,60.2 584.2,59.8 586.4,59.4 588.5,59.1 590.7,58.8 592.9,58.6 595.0,58.5 597.2,58.4 599.4,58.4 601.5,58.4 603.7,58.5 605.9,58.7 608.0,58.9 610.2,59.2 612.3,59.5 614.5,59.9 616.7,60.4 618.8,61.0 621.0,61.6 623.2,62.3 625.3,63.1 627.5,63.9 629.7,64.8 631.8,65.8 634.0,66.8 636.2,68.0 638.3,69.2 640.5,70.5 642.6,71.8 644.8,73.3 647.0,74.8 649.1,76.4 651.3,78.1 653.5,79.8 655.6,81.6 657.8,83.5 660.0,85.5 662.1,87.6 664.3,89.7 666.4,91.9 668.6,94.2 670.8,96.6 672.9,99.0 675.1,101.5 677.3,104.0 679.4,106.6 681.6,109.3 683.8,112.0 685.9,114.8 688.1,117.7 690.3,120.5 692.4,123.5 694.6,126.4 696.7,129.5 698.9,132.6 701.1,135.7 703.2,138.9 705.4,142.2 707.6,145.5 709.7,148.9 711.9,152.4 714.1,156.0 716.2,159.7 718.4,163.5 720.6,167.3 722.7,171.3 724.9,175.3 727.0,179.4 729.2,183.6 731.4,187.8 733.5,192.2 735.7,196.6 737.9,201.0 740.0,205.6 742.2,210.2 744.4,214.9 746.5,219.7 748.7,224.5 750.9,229.5 753.0,234.5 755.2,239.5 757.3,244.7 759.5,249.9 761.7,255.2 763.8,260.6 766.0,266.0"/>
<line x1="606" y1="42" x2="628" y2="42" stroke="#0f62fe" stroke-width="2.2"/>
<text x="634" y="46" font-family="Arial" font-size="12">altitude_m</text>
<polyline fill="none" stroke="#24a148" stroke-width="2.2" points="54.0,206.3 56.2,206.3 58.3,207.0 60.5,207.0 62.7,206.1 64.8,206.1 67.0,208.2 69.1,208.2 71.3,202.2 73.5,202.2 75.6,202.5 77.8,202.5 80.0,199.9 82.1,199.9 84.3,199.4 86.5,199.4 88.6,195.6 90.8,195.6 93.0,198.2 95.1,198.2 97.3,197.2 99.4,197.2 101.6,197.2 103.8,197.2 105.9,198.3 108.1,198.3 110.3,198.4 112.4,198.4 114.6,191.4 116.8,191.4 118.9,194.0 121.1,194.0 123.3,194.1 125.4,194.1 127.6,193.2 129.7,193.2 131.9,190.9 134.1,190.9 136.2,189.4 138.4,189.4 140.6,188.9 142.7,188.9 144.9,192.4 147.1,192.4 149.2,190.2 151.4,190.2 153.6,189.7 155.7,189.7 157.9,187.9 160.0,187.9 162.2,188.6 164.4,188.6 166.5,187.9 168.7,187.9 170.9,185.9 173.0,185.9 175.2,185.2 177.4,185.2 179.5,186.6 181.7,186.6 183.8,185.2 186.0,185.2 188.2,184.9 190.3,184.9 192.5,187.8 194.7,187.8 196.8,182.8 199.0,182.8 201.2,187.6 203.3,187.6 205.5,183.0 207.7,183.0 209.8,183.0 212.0,183.0 214.1,183.3 216.3,183.3 218.5,181.3 220.6,181.3 222.8,182.5 225.0,182.5 227.1,178.8 229.3,178.8 231.5,183.5 233.6,183.5 235.8,180.9 238.0,180.9 240.1,181.7 242.3,181.7 244.4,181.9 246.6,181.9 248.8,179.1 250.9,179.1 253.1,180.4 255.3,180.4 257.4,178.7 259.6,178.7 261.8,180.3 263.9,180.3 266.1,174.3 268.2,174.3 270.4,176.3 272.6,176.3 274.7,177.8 276.9,177.8 279.1,178.8 281.2,178.8 283.4,174.8 285.6,174.8 287.7,175.7 289.9,175.7 292.1,176.5 294.2,176.5 296.4,172.8 298.5,172.8 300.7,172.8 302.9,172.8 305.0,169.6 307.2,169.6 309.4,173.6 311.5,173.6 313.7,171.0 315.9,171.0 318.0,171.5 320.2,171.5 322.4,169.6 324.5,169.6 326.7,168.1 328.8,168.1 331.0,172.4 333.2,172.4 335.3,169.5 337.5,169.5 339.7,170.2 341.8,170.2 344.0,165.1 346.2,165.1 348.3,163.7 350.5,163.7 352.7,168.6 354.8,168.6 357.0,163.6 359.1,163.6 361.3,162.9 363.5,162.9 365.6,159.6 367.8,159.6 370.0,160.3 372.1,160.3 374.3,158.1 376.5,158.1 378.6,156.2 380.8,156.2 382.9,157.1 385.1,157.1 387.3,157.4 389.4,157.4 391.6,155.3 393.8,155.3 395.9,149.4 398.1,149.4 400.3,149.5 402.4,149.5 404.6,149.7 406.8,149.7 408.9,148.1 411.1,148.1 413.2,145.6 415.4,145.6 417.6,143.2 419.7,143.2 421.9,143.6 424.1,143.6 426.2,140.0 428.4,140.0 430.6,137.2 432.7,137.2 434.9,134.2 437.1,134.2 439.2,132.9 441.4,132.9 443.5,131.9 445.7,131.9 447.9,133.0 450.0,133.0 452.2,127.7 454.4,127.7 456.5,120.6 458.7,120.6 460.9,123.5 463.0,123.5 465.2,121.8 467.3,121.8 469.5,121.0 471.7,121.0 473.8,121.1 476.0,121.1 478.2,115.1 480.3,115.1 482.5,109.7 484.7,109.7 486.8,106.9 489.0,106.9 491.2,104.6 493.3,104.6 495.5,107.1 497.6,107.1 499.8,104.1 502.0,104.1 504.1,99.1 506.3,99.1 508.5,96.8 510.6,96.8 512.8,94.4 515.0,94.4 517.1,91.7 519.3,91.7 521.5,90.3 523.6,90.3 525.8,87.8 527.9,87.8 530.1,80.1 532.3,80.1 534.4,79.0 536.6,79.0 538.8,80.1 540.9,80.1 543.1,76.1 545.3,76.1 547.4,72.7 549.6,72.7 551.8,71.4 553.9,71.4 556.1,68.0 558.2,68.0 560.4,70.2 562.6,70.2 564.7,66.8 566.9,66.8 569.1,63.4 571.2,63.4 573.4,61.4 575.6,61.4 577.7,60.6 579.9,60.6 582.0,59.3 584.2,59.3 586.4,60.3 588.5,60.3 590.7,58.9 592.9,58.9 595.0,61.0 597.2,61.0 599.4,55.6 601.5,55.6 603.7,54.0 605.9,54.0 608.0,58.5 610.2,58.5 612.3,61.0 614.5,61.0 616.7,59.0 618.8,59.0 621.0,62.9 623.2,62.9 625.3,61.5 627.5,61.5 629.7,64.1 631.8,64.1 634.0,67.3 636.2,67.3 638.3,68.8 640.5,68.8 642.6,71.2 644.8,71.2 647.0,75.2 649.1,75.2 651.3,76.8 653.5,76.8 655.6,82.4 657.8,82.4 660.0,81.5 662.1,81.5 664.3,89.3 666.4,89.3 668.6,92.7 670.8,92.7 672.9,95.6 675.1,95.6 677.3,104.9 679.4,104.9 681.6,108.6 683.8,108.6 685.9,115.5 688.1,115.5 690.3,117.8 692.4,117.8 694.6,127.2 696.7,127.2 698.9,130.9 701.1,130.9 703.2,137.6 705.4,137.6 707.6,143.6 709.7,143.6 711.9,149.8 714.1,149.8 716.2,158.5 718.4,158.5 720.6,167.9 722.7,167.9 724.9,177.3 727.0,177.3 729.2,182.3 731.4,182.3 733.5,193.9 735.7,193.9 737.9,202.5 740.0,202.5 742.2,207.8 744.4,207.8 746.5,218.7 748.7,218.7 750.9,228.8 753.0,228.8 755.2,239.9 757.3,239.9 759.5,249.0 761.7,249.0 763.8,261.9 766.0,261.9"/>
<line x1="606" y1="60" x2="628" y2="60" stroke="#24a148" stroke-width="2.2"/>
<text x="634" y="64" font-family="Arial" font-size="12">baro_alt_m</text>
</svg>