<svg xmlns="http://www.w3.org/2000/svg" width="760" height="280" viewBox="0 0 760 280">
<rect width="100%" height="100%" fill="#ffffff"/>
<text x="45" y="28" font-family="Arial" font-size="18" font-weight="700">Elevator</text>
<line x1="45" y1="235" x2="715" y2="235" stroke="#222"/>
<line x1="45" y1="45" x2="45" y2="235" stroke="#222"/>
<polyline fill="none" stroke="#0f62fe" stroke-width="2.5" points="45.0,61.4 46.0,99.4 47.0,132.3 48.0,94.3 49.0,57.3 50.0,95.3 51.0,93.4 52.0,86.0 53.0,90.5 54.1,87.6 55.1,89.2 56.1,87.7 57.1,88.2 58.1,87.3 59.1,87.3 60.1,86.6 61.1,86.4 62.1,85.8 63.1,85.6 64.1,85.0 65.1,84.7 66.1,84.2 67.1,83.9 68.1,83.4 69.1,83.1 70.2,82.6 71.2,82.4 72.2,81.9 73.2,81.6 74.2,81.1 75.2,81.0 76.2,80.4 77.2,80.4 78.2,79.7 79.2,79.8 80.2,79.0 81.2,79.4 82.2,78.1 83.2,79.1 84.2,77.0 85.2,79.4 86.2,75.1 87.3,80.9 88.3,71.2 89.3,85.8 90.3,61.6 91.3,99.5 92.3,61.6 93.3,87.8 94.3,55.4 95.3,93.4 96.3,55.4 97.3,93.4 98.3,55.4 99.3,93.4 100.3,55.4 101.3,93.4 102.3,55.4 103.3,93.4 104.4,55.4 105.4,93.4 106.4,55.4 107.4,93.4 108.4,55.4 109.4,93.4 110.4,55.4 111.4,93.4 112.4,55.4 113.4,93.4 114.4,55.4 115.4,93.4 116.4,55.4 117.4,93.4 118.4,55.4 119.4,93.0 120.5,55.0 121.5,91.4 122.5,53.4 123.5,91.4 124.5,53.4 125.5,90.7 126.5,52.7 127.5,89.7 128.5,51.7 129.5,88.8 130.5,50.8 131.5,88.2 132.5,50.2 133.5,87.4 134.5,49.4 135.5,87.1 136.5,49.1 137.6,86.5 138.6,48.5 139.6,85.9 140.6,48.0 141.6,85.4 142.6,47.4 143.6,84.9 144.6,46.9 145.6,84.4 146.6,46.4 147.6,83.9 148.6,45.9 149.6,83.9 150.6,45.9 151.6,83.9 152.6,45.9 153.6,83.5 154.7,45.5 155.7,83.0 156.7,45.0 157.7,83.0 158.7,45.0 159.7,83.0 160.7,45.0 161.7,83.0 162.7,45.0 163.7,83.0 164.7,45.0 165.7,83.0 166.7,45.0 167.7,83.0 168.7,45.0 169.7,83.0 170.8,45.0 171.8,83.0 172.8,45.0 173.8,83.0 174.8,45.0 175.8,83.0 176.8,45.0 177.8,83.0 178.8,45.0 179.8,83.0 180.8,45.0 181.8,83.0 182.8,45.0 183.8,83.0 184.8,45.0 185.8,83.0 186.8,45.0 187.9,83.0 188.9,45.0 189.9,83.0 190.9,45.0 191.9,83.0 192.9,45.0 193.9,83.0 194.9,45.0 195.9,83.0 196.9,45.0 197.9,83.0 198.9,45.0 199.9,83.0 200.9,45.0 201.9,83.0 202.9,45.0 203.9,83.0 205.0,45.0 206.0,83.0 207.0,45.0 208.0,83.0 209.0,45.0 210.0,83.0 211.0,45.0 212.0,83.0 213.0,45.0 214.0,83.0 215.0,45.0 216.0,83.0 217.0,45.0 218.0,83.0 219.0,45.0 220.0,83.0 221.1,45.0 222.1,83.0 223.1,45.0 224.1,83.0 225.1,45.1 226.1,83.1 227.1,47.3 228.1,85.3 229.1,49.5 230.1,87.5 231.1,52.0 232.1,90.0 233.1,54.5 234.1,92.4 235.1,56.9 236.1,94.8 237.1,59.2 238.2,97.1 239.2,61.3 240.2,99.3 241.2,63.3 242.2,101.3 243.2,65.2 244.2,103.2 245.2,66.9 246.2,104.9 247.2,68.4 248.2,106.4 249.2,68.4 250.2,106.4 251.2,68.4 252.2,106.4 253.2,68.4 254.2,106.4 255.3,68.4 256.3,106.4 257.3,68.4 258.3,106.4 259.3,68.4 260.3,106.4 261.3,68.4 262.3,106.4 263.3,68.4 264.3,106.4 265.3,68.4 266.3,106.4 267.3,68.4 268.3,106.4 269.3,68.4 270.3,106.4 271.4,68.4 272.4,106.4 273.4,68.4 274.4,106.4 275.4,68.4 276.4,106.4 277.4,68.4 278.4,106.4 279.4,68.4 280.4,106.4 281.4,68.4 282.4,106.4 283.4,70.7 284.4,108.7 285.4,74.4 286.4,112.4 287.4,78.3 288.5,116.2 289.5,82.1 290.5,120.1 291.5,86.1 292.5,124.0 293.5,90.0 294.5,128.0 295.5,94.1 296.5,132.1 297.5,98.2 298.5,136.2 299.5,102.4 300.5,140.3 301.5,106.6 302.5,144.6 303.5,110.9 304.5,148.8 305.6,115.2 306.6,153.2 307.6,119.5 308.6,157.5 309.6,123.9 310.6,161.9 311.6,128.3 312.6,166.3 313.6,132.7 314.6,170.7 315.6,137.1 316.6,175.1 317.6,141.5 318.6,179.5 319.6,145.8 320.6,183.8 321.7,150.1 322.7,188.1 323.7,154.3 324.7,192.3 325.7,158.5 326.7,196.4 327.7,162.5 328.7,200.5 329.7,166.4 330.7,204.3 331.7,170.1 332.7,208.0 333.7,173.6 334.7,211.5 335.7,176.8 336.7,214.8 337.7,179.8 338.8,217.8 339.8,182.4 340.8,220.4 341.8,184.4 342.8,222.4 343.8,185.4 344.8,223.4 345.8,185.4 346.8,223.4 347.8,185.4 348.8,223.4 349.8,185.4 350.8,223.4 351.8,185.4 352.8,223.4 353.8,185.4 354.8,223.4 355.9,185.4 356.9,223.4 357.9,185.4 358.9,223.4 359.9,188.2 360.9,226.2 361.9,191.3 362.9,229.3 363.9,194.4 364.9,232.3 365.9,197.3 366.9,235.0 367.9,200.2 368.9,235.0 369.9,203.0 370.9,235.0 372.0,205.7 373.0,235.0 374.0,201.6 375.0,235.0 376.0,202.5 377.0,235.0 378.0,203.5 379.0,235.0 380.0,204.5 381.0,235.0 382.0,205.6 383.0,235.0 384.0,206.6 385.0,235.0 386.0,207.6 387.0,235.0 388.0,208.7 389.1,235.0 390.1,209.7 391.1,235.0 392.1,210.8 393.1,235.0 394.1,211.9 395.1,235.0 396.1,213.0 397.1,235.0 398.1,208.8 399.1,235.0 400.1,208.9 401.1,235.0 402.1,209.3 403.1,235.0 404.1,209.8 405.2,235.0 406.2,210.4 407.2,235.0 408.2,219.7 409.2,235.0 410.2,223.4 411.2,235.0 412.2,226.7 413.2,235.0 414.2,230.8 415.2,235.0 416.2,235.0 417.2,235.0 418.2,235.0 419.2,235.0 420.2,235.0 421.2,235.0 422.3,235.0 423.3,235.0 424.3,235.0 425.3,235.0 426.3,235.0 427.3,235.0 428.3,235.0 429.3,235.0 430.3,235.0 431.3,235.0 432.3,235.0 433.3,235.0 434.3,235.0 435.3,235.0 436.3,235.0 437.3,235.0 438.3,235.0 439.4,235.0 440.4,235.0 441.4,235.0 442.4,235.0 443.4,235.0 444.4,235.0 445.4,235.0 446.4,235.0 447.4,235.0 448.4,235.0 449.4,235.0 450.4,235.0 451.4,235.0 452.4,235.0 453.4,235.0 454.4,235.0 455.5,235.0 456.5,235.0 457.5,235.0 458.5,235.0 459.5,235.0 460.5,235.0 461.5,235.0 462.5,235.0 463.5,235.0 464.5,235.0 465.5,235.0 466.5,235.0 467.5,235.0 468.5,235.0 469.5,235.0 470.5,235.0 471.5,235.0 472.6,235.0 473.6,235.0 474.6,235.0 475.6,235.0 476.6,235.0 477.6,235.0 478.6,235.0 479.6,232.3 480.6,235.0 481.6,197.0 482.6,226.6 483.6,235.0 484.6,197.0 485.6,217.9 486.6,180.0 487.6,165.7 488.6,127.7 489.7,165.7 490.7,127.7 491.7,146.2 492.7,184.2 493.7,166.5 494.7,204.5 495.7,207.1 496.7,169.1 497.7,207.1 498.7,169.1 499.7,207.1 500.7,169.1 501.7,207.1 502.7,169.1 503.7,207.1 504.7,191.4 505.8,229.4 506.8,210.5 507.8,235.0 508.8,229.8 509.8,235.0 510.8,235.0 511.8,235.0 512.8,235.0 513.8,235.0 514.8,235.0 515.8,235.0 516.8,235.0 517.8,235.0 518.8,235.0 519.8,235.0 520.8,235.0 521.8,235.0 522.9,235.0 523.9,235.0 524.9,235.0 525.9,235.0 526.9,235.0 527.9,235.0 528.9,235.0 529.9,235.0 530.9,235.0 531.9,235.0 532.9,235.0 533.9,235.0 534.9,235.0 535.9,235.0 536.9,235.0 537.9,235.0 538.9,235.0 540.0,235.0 541.0,235.0 542.0,235.0 543.0,235.0 544.0,235.0 545.0,235.0 546.0,235.0 547.0,235.0 548.0,235.0 549.0,235.0 550.0,235.0 551.0,235.0 552.0,235.0 553.0,235.0 554.0,235.0 555.0,235.0 556.1,235.0 557.1,235.0 558.1,235.0 559.1,235.0 560.1,235.0 561.1,235.0 562.1,235.0 563.1,235.0 564.1,235.0 565.1,235.0 566.1,235.0 567.1,235.0 568.1,235.0 569.1,235.0 570.1,235.0 571.1,235.0 572.1,235.0 573.2,235.0 574.2,235.0 575.2,235.0 576.2,235.0 577.2,235.0 578.2,235.0 579.2,235.0 580.2,235.0 581.2,235.0 582.2,235.0 583.2,235.0 584.2,235.0 585.2,235.0 586.2,235.0 587.2,235.0 588.2,235.0 589.2,235.0 590.3,235.0 591.3,235.0 592.3,235.0 593.3,235.0 594.3,235.0 595.3,235.0 596.3,235.0 597.3,235.0 598.3,235.0 599.3,235.0 600.3,235.0 601.3,235.0 602.3,235.0 603.3,235.0 604.3,235.0 605.3,235.0 606.4,235.0 607.4,235.0 608.4,235.0 609.4,235.0 610.4,235.0 611.4,235.0 612.4,235.0 613.4,235.0 614.4,197.0 615.4,202.6 616.4,164.7 617.4,202.6 618.4,164.7 619.4,145.5 620.4,183.4 621.4,145.5 622.4,183.4 623.5,210.4 624.5,172.4 625.5,179.1 626.5,217.1 627.5,179.1 628.5,217.1 629.5,235.0 630.5,197.0 631.5,235.0 632.5,197.0 633.5,189.7 634.5,180.7 635.5,184.7 636.5,206.0 637.5,214.9 638.5,176.9 639.5,201.5 640.6,163.5 641.6,201.5 642.6,163.5 643.6,201.5 644.6,163.5 645.6,201.5 646.6,163.5 647.6,201.5 648.6,163.5 649.6,201.5 650.6,163.5 651.6,201.5 652.6,163.5 653.6,201.5 654.6,163.5 655.6,201.5 656.7,163.5 657.7,201.5 658.7,163.5 659.7,201.5 660.7,163.5 661.7,201.5 662.7,163.5 663.7,201.5 664.7,163.5 665.7,201.5 666.7,163.5 667.7,201.5 668.7,163.5 669.7,201.5 670.7,163.5 671.7,201.5 672.7,163.5 673.8,201.5 674.8,163.5 675.8,201.5 676.8,163.5 677.8,201.5 678.8,163.5 679.8,201.5 680.8,163.5 681.8,201.5 682.8,163.5 683.8,201.5 684.8,163.5 685.8,201.5 686.8,163.5 687.8,201.5 688.8,163.5 689.8,201.5 690.9,163.5 691.9,201.5 692.9,163.5 693.9,201.5 694.9,163.5 695.9,201.5 696.9,165.9 697.9,203.9 698.9,168.5 699.9,206.4 700.9,171.0 701.9,209.0 702.9,173.5 703.9,211.5 704.9,176.1 705.9,214.1 707.0,178.6 708.0,216.6 709.0,181.2 710.0,219.1 711.0,183.7 712.0,221.7 713.0,186.3 714.0,224.2 715.0,188.8"/>
<text x="45" y="268" font-family="Arial" font-size="12">time (s)</text>
<text x="605" y="268" font-family="Arial" font-size="12">elevator_deg</text>
<text x="49" y="59" font-family="Arial" font-size="11">-2.04</text>
<text x="49" y="229" font-family="Arial" font-size="11">-20.05</text>
</svg>