<svg xmlns="http://www.w3.org/2000/svg" width="820" height="320" viewBox="0 0 820 320">
<rect width="100%" height="100%" fill="#ffffff"/>
<text x="54" y="28" font-family="Arial" font-size="18" font-weight="700">Altitude</text>
<line x1="54" y1="266" x2="766" y2="266" stroke="#1f2933"/>
<line x1="54" y1="54" x2="54" y2="266" stroke="#1f2933"/>
<text x="54" y="306" font-family="Arial" font-size="12">time (s)</text>
<text x="596" y="306" font-family="Arial" font-size="12">altitude (m)</text>
<text x="58" y="68" font-family="Arial" font-size="11">376</text>
<text x="58" y="260" font-family="Arial" font-size="11">20</text>
<polyline fill="none" stroke="#0f62fe" stroke-width="2.2" points="54.0,266.0 55.2,265.9 56.4,265.7 57.6,265.6 58.7,265.5 59.9,265.3 61.1,265.2 62.3,265.1 63.5,265.0 64.7,264.9 65.9,264.8 67.1,264.6 68.2,264.5 69.4,264.4 70.6,264.3 71.8,264.2 73.0,264.1 74.2,264.0 75.4,263.9 76.5,263.9 77.7,263.8 78.9,263.7 80.1,263.6 81.3,263.5 82.5,263.4 83.7,263.3 84.9,263.3 86.0,263.2 87.2,263.1 88.4,263.0 89.6,263.0 90.8,262.9 92.0,262.8 93.2,262.7 94.3,262.7 95.5,262.6 96.7,262.5 97.9,262.5 99.1,262.4 100.3,262.3 101.5,262.3 102.7,262.2 103.8,262.2 105.0,262.1 106.2,262.1 107.4,262.0 108.6,261.9 109.8,261.9 111.0,261.8 112.1,261.8 113.3,261.7 114.5,261.7 115.7,261.6 116.9,261.6 118.1,261.6 119.3,261.5 120.5,261.5 121.6,261.4 122.8,261.4 124.0,261.3 125.2,261.3 126.4,261.2 127.6,261.2 128.8,261.2 129.9,261.1 131.1,261.1 132.3,261.0 133.5,261.0 134.7,261.0 135.9,260.9 137.1,260.9 138.3,260.8 139.4,260.8 140.6,260.8 141.8,260.7 143.0,260.7 144.2,260.7 145.4,260.6 146.6,260.6 147.7,260.5 148.9,260.5 150.1,260.5 151.3,260.4 152.5,260.4 153.7,260.4 154.9,260.3 156.1,260.3 157.2,260.2 158.4,260.2 159.6,260.2 160.8,260.1 162.0,260.1 163.2,260.0 164.4,260.0 165.5,260.0 166.7,259.9 167.9,259.9 169.1,259.8 170.3,259.8 171.5,259.7 172.7,259.7 173.9,259.7 175.0,259.6 176.2,259.6 177.4,259.5 178.6,259.5 179.8,259.4 181.0,259.3 182.2,259.3 183.3,259.2 184.5,259.2 185.7,259.1 186.9,259.1 188.1,259.0 189.3,258.9 190.5,258.9 191.7,258.8 192.8,258.7 194.0,258.7 195.2,258.6 196.4,258.5 197.6,258.4 198.8,258.4 200.0,258.3 201.1,258.2 202.3,258.1 203.5,258.0 204.7,258.0 205.9,257.9 207.1,257.8 208.3,257.7 209.5,257.6 210.6,257.5 211.8,257.4 213.0,257.3 214.2,257.2 215.4,257.1 216.6,257.0 217.8,256.9 218.9,256.8 220.1,256.6 221.3,256.5 222.5,256.4 223.7,256.3 224.9,256.1 226.1,256.0 227.3,255.9 228.4,255.8 229.6,255.6 230.8,255.5 232.0,255.3 233.2,255.2 234.4,255.1 235.6,254.9 236.7,254.8 237.9,254.6 239.1,254.4 240.3,254.3 241.5,254.1 242.7,254.0 243.9,253.8 245.1,253.6 246.2,253.5 247.4,253.3 248.6,253.1 249.8,252.9 251.0,252.7 252.2,252.5 253.4,252.4 254.5,252.2 255.7,252.0 256.9,251.8 258.1,251.6 259.3,251.4 260.5,251.2 261.7,251.0 262.9,250.7 264.0,250.5 265.2,250.3 266.4,250.1 267.6,249.9 268.8,249.6 270.0,249.4 271.2,249.2 272.3,248.9 273.5,248.7 274.7,248.5 275.9,248.2 277.1,248.0 278.3,247.7 279.5,247.5 280.7,247.2 281.8,247.0 283.0,246.7 284.2,246.4 285.4,246.2 286.6,245.9 287.8,245.6 289.0,245.4 290.1,245.1 291.3,244.8 292.5,244.5 293.7,244.2 294.9,244.0 296.1,243.7 297.3,243.4 298.5,243.1 299.6,242.8 300.8,242.5 302.0,242.2 303.2,241.9 304.4,241.6 305.6,241.3 306.8,241.0 307.9,240.6 309.1,240.3 310.3,240.0 311.5,239.7 312.7,239.3 313.9,239.0 315.1,238.7 316.3,238.4 317.4,238.0 318.6,237.7 319.8,237.4 321.0,237.0 322.2,236.7 323.4,236.3 324.6,236.0 325.7,235.6 326.9,235.3 328.1,234.9 329.3,234.5 330.5,234.2 331.7,233.8 332.9,233.4 334.1,233.0 335.2,232.7 336.4,232.3 337.6,231.9 338.8,231.5 340.0,231.1 341.2,230.7 342.4,230.3 343.5,229.9 344.7,229.5 345.9,229.1 347.1,228.7 348.3,228.2 349.5,227.8 350.7,227.4 351.9,227.0 353.0,226.5 354.2,226.1 355.4,225.7 356.6,225.2 357.8,224.8 359.0,224.3 360.2,223.9 361.3,223.4 362.5,223.0 363.7,222.5 364.9,222.1 366.1,221.6 367.3,221.2 368.5,220.7 369.7,220.2 370.8,219.8 372.0,219.3 373.2,218.8 374.4,218.3 375.6,217.8 376.8,217.4 378.0,216.9 379.1,216.4 380.3,215.9 381.5,215.4 382.7,214.9 383.9,214.4 385.1,213.9 386.3,213.4 387.5,212.9 388.6,212.4 389.8,211.9 391.0,211.3 392.2,210.8 393.4,210.3 394.6,209.8 395.8,209.3 396.9,208.7 398.1,208.2 399.3,207.7 400.5,207.2 401.7,206.6 402.9,206.1 404.1,205.6 405.3,205.0 406.4,204.5 407.6,203.9 408.8,203.4 410.0,202.9 411.2,202.3 412.4,201.8 413.6,201.2 414.7,200.7 415.9,200.1 417.1,199.6 418.3,199.0 419.5,198.5 420.7,197.9 421.9,197.4 423.1,196.8 424.2,196.3 425.4,195.7 426.6,195.2 427.8,194.6 429.0,194.0 430.2,193.5 431.4,192.9 432.5,192.4 433.7,191.8 434.9,191.2 436.1,190.7 437.3,190.1 438.5,189.6 439.7,189.0 440.9,188.4 442.0,187.9 443.2,187.3 444.4,186.7 445.6,186.2 446.8,185.6 448.0,185.0 449.2,184.5 450.3,183.9 451.5,183.3 452.7,182.7 453.9,182.2 455.1,181.6 456.3,181.0 457.5,180.5 458.7,179.9 459.8,179.3 461.0,178.7 462.2,178.2 463.4,177.6 464.6,177.0 465.8,176.4 467.0,175.9 468.1,175.3 469.3,174.7 470.5,174.1 471.7,173.6 472.9,173.0 474.1,172.4 475.3,171.8 476.5,171.2 477.6,170.7 478.8,170.1 480.0,169.5 481.2,168.9 482.4,168.3 483.6,167.8 484.8,167.2 485.9,166.6 487.1,166.0 488.3,165.4 489.5,164.9 490.7,164.3 491.9,163.7 493.1,163.1 494.3,162.5 495.4,161.9 496.6,161.4 497.8,160.8 499.0,160.2 500.2,159.6 501.4,159.0 502.6,158.4 503.7,157.9 504.9,157.3 506.1,156.7 507.3,156.1 508.5,155.5 509.7,154.9 510.9,154.3 512.1,153.8 513.2,153.2 514.4,152.6 515.6,152.0 516.8,151.4 518.0,150.8 519.2,150.2 520.4,149.6 521.5,149.1 522.7,148.5 523.9,147.9 525.1,147.3 526.3,146.7 527.5,146.1 528.7,145.5 529.9,144.9 531.0,144.4 532.2,143.8 533.4,143.2 534.6,142.6 535.8,142.0 537.0,141.4 538.2,140.8 539.3,140.2 540.5,139.6 541.7,139.1 542.9,138.5 544.1,137.9 545.3,137.3 546.5,136.7 547.7,136.1 548.8,135.5 550.0,134.9 551.2,134.4 552.4,133.8 553.6,133.2 554.8,132.6 556.0,132.0 557.1,131.4 558.3,130.8 559.5,130.2 560.7,129.6 561.9,129.1 563.1,128.5 564.3,127.9 565.5,127.3 566.6,126.7 567.8,126.1 569.0,125.5 570.2,124.9 571.4,124.3 572.6,123.8 573.8,123.2 574.9,122.6 576.1,122.0 577.3,121.5 578.5,120.9 579.7,120.3 580.9,119.7 582.1,119.2 583.3,118.6 584.4,118.0 585.6,117.5 586.8,116.9 588.0,116.4 589.2,115.8 590.4,115.3 591.6,114.7 592.7,114.2 593.9,113.6 595.1,113.1 596.3,112.5 597.5,112.0 598.7,111.4 599.9,110.9 601.1,110.4 602.2,109.8 603.4,109.3 604.6,108.8 605.8,108.2 607.0,107.7 608.2,107.2 609.4,106.7 610.5,106.1 611.7,105.6 612.9,105.1 614.1,104.6 615.3,104.1 616.5,103.6 617.7,103.0 618.9,102.5 620.0,102.0 621.2,101.5 622.4,101.0 623.6,100.5 624.8,100.0 626.0,99.5 627.2,99.0 628.3,98.5 629.5,98.0 630.7,97.5 631.9,97.1 633.1,96.6 634.3,96.1 635.5,95.6 636.7,95.1 637.8,94.6 639.0,94.2 640.2,93.7 641.4,93.2 642.6,92.7 643.8,92.3 645.0,91.8 646.1,91.3 647.3,90.9 648.5,90.4 649.7,89.9 650.9,89.5 652.1,89.0 653.3,88.6 654.5,88.1 655.6,87.7 656.8,87.2 658.0,86.8 659.2,86.3 660.4,85.9 661.6,85.4 662.8,85.0 663.9,84.5 665.1,84.1 666.3,83.6 667.5,83.2 668.7,82.8 669.9,82.3 671.1,81.9 672.3,81.5 673.4,81.1 674.6,80.6 675.8,80.2 677.0,79.8 678.2,79.4 679.4,78.9 680.6,78.5 681.7,78.1 682.9,77.7 684.1,77.3 685.3,76.9 686.5,76.4 687.7,76.0 688.9,75.6 690.1,75.2 691.2,74.8 692.4,74.4 693.6,74.0 694.8,73.6 696.0,73.2 697.2,72.8 698.4,72.4 699.5,72.1 700.7,71.7 701.9,71.3 703.1,70.9 704.3,70.5 705.5,70.1 706.7,69.8 707.9,69.4 709.0,69.0 710.2,68.6 711.4,68.3 712.6,67.9 713.8,67.5 715.0,67.2 716.2,66.8 717.3,66.5 718.5,66.1 719.7,65.8 720.9,65.4 722.1,65.1 723.3,64.7 724.5,64.4 725.7,64.0 726.8,63.7 728.0,63.4 729.2,63.0 730.4,62.7 731.6,62.4 732.8,62.0 734.0,61.7 735.1,61.4 736.3,61.1 737.5,60.8 738.7,60.5 739.9,60.1 741.1,59.8 742.3,59.5 743.5,59.2 744.6,58.9 745.8,58.6 747.0,58.3 748.2,58.1 749.4,57.8 750.6,57.5 751.8,57.2 752.9,56.9 754.1,56.6 755.3,56.4 756.5,56.1 757.7,55.8 758.9,55.6 760.1,55.3 761.3,55.0 762.4,54.8 763.6,54.5 764.8,54.3 766.0,54.0"/>
<line x1="606" y1="42" x2="628" y2="42" stroke="#0f62fe" stroke-width="2.2"/>
<text x="634" y="46" font-family="Arial" font-size="12">altitude_m</text>
</svg>