<svg xmlns="http://www.w3.org/2000/svg" width="820" height="320" viewBox="0 0 820 320">
<rect width="100%" height="100%" fill="#ffffff"/>
<text x="54" y="28" font-family="Arial" font-size="18" font-weight="700">Velocity X</text>
<line x1="54" y1="266" x2="766" y2="266" stroke="#1f2933"/>
<line x1="54" y1="54" x2="54" y2="266" stroke="#1f2933"/>
<text x="54" y="306" font-family="Arial" font-size="12">time (s)</text>
<text x="596" y="306" font-family="Arial" font-size="12">vx (m/s)</text>
<text x="58" y="68" font-family="Arial" font-size="11">111</text>
<text x="58" y="260" font-family="Arial" font-size="11">7.06</text>
<polyline fill="none" stroke="#0f62fe" stroke-width="2.2" points="54.0,109.2 55.1,108.3 56.1,107.3 57.2,106.3 58.3,105.3 59.3,104.3 60.4,103.3 61.5,102.3 62.6,101.2 63.6,100.2 64.7,99.1 65.8,98.0 66.8,97.0 67.9,95.9 69.0,94.7 70.0,93.6 71.1,92.5 72.2,91.5 73.2,90.4 74.3,89.3 75.4,88.3 76.5,87.3 77.5,86.3 78.6,85.3 79.7,84.3 80.7,83.4 81.8,82.4 82.9,81.5 83.9,80.6 85.0,79.7 86.1,78.8 87.1,77.9 88.2,77.0 89.3,76.1 90.3,75.2 91.4,74.2 92.5,73.3 93.6,72.3 94.6,71.4 95.7,70.4 96.8,69.3 97.8,68.3 98.9,67.2 100.0,66.1 101.0,64.9 102.1,63.8 103.2,62.6 104.2,61.5 105.3,60.3 106.4,59.2 107.5,58.1 108.5,57.0 109.6,56.0 110.7,55.2 111.7,54.6 112.8,54.3 113.9,54.1 114.9,54.0 116.0,54.1 117.1,54.4 118.1,54.8 119.2,55.3 120.3,55.8 121.4,56.4 122.4,56.6 123.5,57.0 124.6,57.6 125.6,58.2 126.7,58.7 127.8,59.1 128.8,59.3 129.9,59.2 131.0,59.0 132.0,58.7 133.1,58.4 134.2,58.2 135.2,58.1 136.3,58.2 137.4,58.4 138.5,58.8 139.5,59.3 140.6,59.8 141.7,60.2 142.7,60.6 143.8,60.8 144.9,60.9 145.9,61.0 147.0,61.0 148.1,60.9 149.1,60.9 150.2,61.0 151.3,61.1 152.4,61.3 153.4,61.5 154.5,61.7 155.6,61.8 156.6,61.9 157.7,61.8 158.8,61.7 159.8,61.5 160.9,61.3 162.0,61.3 163.0,61.3 164.1,61.6 165.2,62.0 166.3,62.6 167.3,63.1 168.4,63.6 169.5,64.0 170.5,64.3 171.6,64.3 172.7,64.1 173.7,63.8 174.8,63.3 175.9,62.9 176.9,62.5 178.0,62.4 179.1,62.7 180.2,63.3 181.2,64.3 182.3,65.4 183.4,66.4 184.4,67.4 185.5,68.1 186.6,68.5 187.6,68.7 188.7,68.5 189.8,68.0 190.8,67.0 191.9,66.2 193.0,65.8 194.0,65.8 195.1,66.2 196.2,67.1 197.3,68.3 198.3,69.7 199.4,71.1 200.5,72.4 201.5,73.5 202.6,74.3 203.7,74.7 204.7,74.6 205.8,74.2 206.9,73.2 207.9,72.3 209.0,72.1 210.1,72.3 211.2,73.0 212.2,74.1 213.3,75.4 214.4,76.8 215.4,78.5 216.5,80.1 217.6,81.8 218.6,83.4 219.7,84.8 220.8,85.9 221.8,86.6 222.9,86.7 224.0,86.5 225.1,86.0 226.1,85.1 227.2,84.8 228.3,85.0 229.3,85.7 230.4,86.7 231.5,88.2 232.5,89.8 233.6,91.5 234.7,93.2 235.7,95.0 236.8,96.8 237.9,98.6 238.9,100.3 240.0,102.0 241.1,103.7 242.2,105.3 243.2,106.7 244.3,107.8 245.4,108.6 246.4,109.2 247.5,109.5 248.6,109.6 249.6,109.1 250.7,108.8 251.8,108.6 252.8,108.5 253.9,108.7 255.0,109.1 256.1,109.9 257.1,111.0 258.2,112.4 259.3,113.9 260.3,115.6 261.4,117.0 262.5,118.6 263.5,120.2 264.6,121.7 265.7,123.3 266.7,124.9 267.8,126.2 268.9,127.2 270.0,127.7 271.0,127.9 272.1,127.9 273.2,127.6 274.2,127.1 275.3,126.7 276.4,126.5 277.4,126.6 278.5,127.1 279.6,127.9 280.6,128.9 281.7,129.9 282.8,131.2 283.8,132.5 284.9,134.0 286.0,135.5 287.1,137.1 288.1,138.6 289.2,140.1 290.3,141.4 291.3,142.6 292.4,143.6 293.5,144.3 294.5,144.7 295.6,144.8 296.7,144.6 297.7,144.2 298.8,143.7 299.9,143.2 301.0,142.8 302.0,142.1 303.1,141.8 304.2,141.7 305.2,141.8 306.3,142.2 307.4,142.7 308.4,143.3 309.5,144.2 310.6,145.3 311.6,146.5 312.7,147.5 313.8,148.8 314.9,150.1 315.9,151.3 317.0,152.5 318.1,153.7 319.1,154.8 320.2,155.9 321.3,156.9 322.3,157.7 323.4,158.0 324.5,158.1 325.5,158.1 326.6,157.7 327.7,157.1 328.8,156.3 329.8,155.5 330.9,154.7 332.0,153.9 333.0,153.4 334.1,153.1 335.2,153.0 336.2,152.9 337.3,153.0 338.4,153.0 339.4,153.2 340.5,153.3 341.6,153.4 342.6,153.4 343.7,153.2 344.8,152.7 345.9,152.2 346.9,151.5 348.0,150.7 349.1,149.8 350.1,149.0 351.2,148.3 352.3,147.6 353.3,147.0 354.4,146.3 355.5,146.2 356.5,146.1 357.6,146.3 358.7,146.5 359.8,146.9 360.8,147.5 361.9,148.2 363.0,149.1 364.0,150.1 365.1,151.1 366.2,152.1 367.2,153.0 368.3,154.2 369.4,155.4 370.4,156.6 371.5,157.7 372.6,158.9 373.7,160.1 374.7,161.3 375.8,162.5 376.9,163.7 377.9,164.9 379.0,166.1 380.1,167.1 381.1,167.9 382.2,168.5 383.3,168.8 384.3,168.9 385.4,168.6 386.5,168.1 387.5,167.4 388.6,166.8 389.7,166.3 390.8,166.0 391.8,165.9 392.9,166.2 394.0,166.9 395.0,167.8 396.1,169.0 397.2,170.3 398.2,171.6 399.3,173.1 400.4,174.5 401.4,175.8 402.5,176.9 403.6,177.8 404.7,178.3 405.7,178.6 406.8,178.6 407.9,178.3 408.9,177.8 410.0,177.2 411.1,176.5 412.1,176.0 413.2,175.5 414.3,175.2 415.3,175.3 416.4,175.8 417.5,176.5 418.6,177.4 419.6,178.5 420.7,179.7 421.8,181.0 422.8,182.3 423.9,183.6 425.0,184.9 426.0,186.2 427.1,187.4 428.2,188.5 429.2,189.6 430.3,190.5 431.4,191.4 432.5,192.1 433.5,192.5 434.6,192.9 435.7,193.2 436.7,193.2 437.8,193.0 438.9,192.7 439.9,192.2 441.0,191.7 442.1,191.2 443.1,190.7 444.2,190.1 445.3,189.9 446.3,189.8 447.4,189.9 448.5,190.2 449.6,190.6 450.6,191.2 451.7,192.0 452.8,192.9 453.8,193.8 454.9,194.8 456.0,196.0 457.0,197.3 458.1,198.6 459.2,199.9 460.2,201.1 461.3,202.4 462.4,203.6 463.5,204.8 464.5,205.9 465.6,207.0 466.7,208.0 467.7,208.9 468.8,209.6 469.9,210.4 470.9,211.2 472.0,212.0 473.1,212.6 474.1,213.2 475.2,213.7 476.3,214.3 477.4,214.8 478.4,215.3 479.5,215.6 480.6,216.0 481.6,216.4 482.7,216.9 483.8,217.4 484.8,217.9 485.9,218.6 487.0,219.4 488.0,220.4 489.1,221.5 490.2,222.4 491.2,223.5 492.3,224.7 493.4,226.1 494.5,227.4 495.5,228.8 496.6,230.1 497.7,231.5 498.7,232.9 499.8,234.2 500.9,235.6 501.9,236.9 503.0,238.1 504.1,239.2 505.1,240.2 506.2,241.0 507.3,241.7 508.4,242.3 509.4,242.8 510.5,243.3 511.6,243.6 512.6,243.9 513.7,244.2 514.8,244.6 515.8,244.9 516.9,245.2 518.0,245.5 519.0,245.7 520.1,245.7 521.2,245.7 522.3,245.8 523.3,245.9 524.4,246.0 525.5,246.0 526.5,246.1 527.6,246.3 528.7,246.5 529.7,246.9 530.8,246.7 531.9,246.7 532.9,246.8 534.0,247.0 535.1,247.3 536.2,247.5 537.2,247.8 538.3,248.0 539.4,248.3 540.4,248.8 541.5,249.1 542.6,249.1 543.6,248.8 544.7,248.6 545.8,248.4 546.8,248.4 547.9,248.4 549.0,248.5 550.0,248.7 551.1,248.9 552.2,249.2 553.3,249.4 554.3,249.5 555.4,249.6 556.5,249.9 557.5,250.2 558.6,250.6 559.7,250.5 560.7,250.5 561.8,250.4 562.9,250.3 563.9,250.1 565.0,250.0 566.1,249.8 567.2,249.8 568.2,249.8 569.3,249.8 570.4,249.9 571.4,250.0 572.5,250.2 573.6,250.3 574.6,250.5 575.7,250.8 576.8,251.1 577.8,251.1 578.9,251.1 580.0,251.2 581.1,251.2 582.1,251.3 583.2,251.3 584.3,251.3 585.3,251.3 586.4,251.3 587.5,251.4 588.5,251.4 589.6,251.4 590.7,251.4 591.7,251.4 592.8,251.5 593.9,251.5 594.9,251.5 596.0,251.5 597.1,251.5 598.2,251.4 599.2,251.3 600.3,251.1 601.4,251.2 602.4,251.2 603.5,251.1 604.6,251.1 605.6,251.2 606.7,251.3 607.8,251.4 608.8,251.5 609.9,251.4 611.0,251.3 612.1,251.6 613.1,251.8 614.2,252.0 615.3,252.0 616.3,252.1 617.4,252.2 618.5,252.4 619.5,252.5 620.6,252.7 621.7,252.7 622.7,253.2 623.8,253.6 624.9,254.0 626.0,254.3 627.0,254.6 628.1,254.9 629.2,255.0 630.2,255.0 631.3,255.0 632.4,255.1 633.4,255.2 634.5,255.2 635.6,255.4 636.6,255.6 637.7,255.8 638.8,255.9 639.8,255.9 640.9,255.7 642.0,256.0 643.1,256.1 644.1,256.2 645.2,256.3 646.3,256.4 647.3,256.6 648.4,256.7 649.5,256.8 650.5,256.8 651.6,257.0 652.7,257.3 653.7,257.4 654.8,257.4 655.9,257.5 657.0,257.7 658.0,258.0 659.1,258.2 660.2,258.2 661.2,258.6 662.3,258.8 663.4,258.9 664.4,258.9 665.5,258.8 666.6,258.7 667.6,258.6 668.7,258.5 669.8,258.3 670.9,258.0 671.9,257.7 673.0,257.9 674.1,257.9 675.1,257.9 676.2,257.9 677.3,257.9 678.3,257.9 679.4,258.0 680.5,258.2 681.5,258.3 682.6,258.4 683.7,258.4 684.8,258.5 685.8,258.8 686.9,259.1 688.0,259.3 689.0,259.5 690.1,259.7 691.2,259.8 692.2,259.8 693.3,259.9 694.4,259.9 695.4,260.1 696.5,260.3 697.6,260.6 698.6,261.0 699.7,260.8 700.8,260.7 701.9,260.6 702.9,260.9 704.0,261.0 705.1,261.1 706.1,261.1 707.2,261.0 708.3,261.0 709.3,260.9 710.4,261.0 711.5,261.0 712.5,261.0 713.6,261.0 714.7,261.1 715.8,261.2 716.8,261.3 717.9,261.4 719.0,261.6 720.0,261.7 721.1,261.8 722.2,261.8 723.2,261.9 724.3,262.0 725.4,262.2 726.4,262.4 727.5,262.7 728.6,262.5 729.7,262.3 730.7,262.2 731.8,262.0 732.9,261.8 733.9,261.6 735.0,261.4 736.1,261.3 737.1,261.1 738.2,261.0 739.3,261.0 740.3,261.1 741.4,261.4 742.5,261.6 743.5,261.7 744.6,261.8 745.7,261.9 746.8,262.1 747.8,262.3 748.9,262.3 750.0,262.4 751.0,262.6 752.1,262.9 753.2,263.2 754.2,263.5 755.3,263.8 756.4,264.1 757.4,264.5 758.5,265.0 759.6,265.0 760.7,265.0 761.7,265.2 762.8,265.4 763.9,265.7 764.9,265.9 766.0,266.0"/>
<line x1="606" y1="42" x2="628" y2="42" stroke="#0f62fe" stroke-width="2.2"/>
<text x="634" y="46" font-family="Arial" font-size="12">vx_mps</text>
</svg>