<svg xmlns="http://www.w3.org/2000/svg" width="820" height="320" viewBox="0 0 820 320">
<rect width="100%" height="100%" fill="#ffffff"/>
<text x="54" y="28" font-family="Arial" font-size="18" font-weight="700">Euler Angles</text>
<line x1="54" y1="266" x2="766" y2="266" stroke="#1f2933"/>
<line x1="54" y1="54" x2="54" y2="266" stroke="#1f2933"/>
<text x="54" y="306" font-family="Arial" font-size="12">time (s)</text>
<text x="596" y="306" font-family="Arial" font-size="12">angle (deg)</text>
<text x="58" y="68" font-family="Arial" font-size="11">180</text>
<text x="58" y="260" font-family="Arial" font-size="11">-179</text>
<polyline fill="none" stroke="#0f62fe" stroke-width="2.2" points="54.0,160.1 55.1,160.1 56.1,160.0 57.2,159.9 58.3,159.7 59.3,159.5 60.4,159.3 61.5,159.0 62.6,158.6 63.6,158.3 64.7,157.9 65.8,157.4 66.8,156.9 67.9,156.4 69.0,155.8 70.0,155.2 71.1,154.5 72.2,153.9 73.2,153.2 74.3,152.4 75.4,151.7 76.5,150.9 77.5,150.1 78.6,149.3 79.7,148.4 80.7,147.5 81.8,146.6 82.9,145.6 83.9,144.5 85.0,143.4 86.1,142.2 87.1,141.0 88.2,139.6 89.3,138.1 90.3,136.5 91.4,134.8 92.5,132.9 93.6,130.9 94.6,128.7 95.7,126.4 96.8,123.9 97.8,121.2 98.9,118.3 100.0,115.2 101.0,111.8 102.1,108.2 103.2,104.4 104.2,100.2 105.3,95.8 106.4,91.1 107.5,86.1 108.5,81.0 109.6,75.7 110.7,70.3 111.7,64.9 112.8,59.2 113.9,265.7 114.9,258.8 116.0,250.5 117.1,239.8 118.1,225.8 119.2,208.6 120.3,191.1 121.4,176.3 122.4,164.4 123.5,154.3 124.6,145.2 125.6,136.4 126.7,126.9 127.8,115.7 128.8,101.8 129.9,85.4 131.0,68.7 132.0,54.0 133.1,254.7 134.2,244.8 135.2,235.9 136.3,226.4 137.4,213.1 138.5,189.6 139.5,161.4 140.6,144.5 141.7,134.1 142.7,125.3 143.8,115.6 144.9,102.9 145.9,85.2 147.0,64.1 148.1,258.9 149.1,246.0 150.2,235.9 151.3,227.0 152.4,217.6 153.4,205.7 154.5,188.5 155.6,167.4 156.6,150.4 157.7,138.9 158.8,129.9 159.8,120.9 160.9,109.8 162.0,93.7 163.0,71.2 164.1,262.1 165.2,246.7 166.3,235.7 167.3,226.4 168.4,217.3 169.5,206.3 170.5,191.7 171.6,174.1 172.7,158.4 173.7,147.1 174.8,138.5 175.9,130.7 176.9,121.2 178.0,105.4 179.1,73.1 180.2,256.1 181.2,241.5 182.3,232.3 183.4,224.5 184.4,216.4 185.5,206.3 186.6,193.1 187.6,177.7 188.7,164.4 189.8,155.0 190.8,148.5 191.9,143.8 193.0,140.4 194.0,139.2 195.1,150.9 196.2,219.4 197.3,222.8 198.3,220.9 199.4,217.8 200.5,213.6 201.5,208.1 202.6,200.7 203.7,191.5 204.7,181.7 205.8,173.2 206.9,167.2 207.9,163.7 209.0,162.3 210.1,163.3 211.2,166.8 212.2,172.9 213.3,180.5 214.4,187.8 215.4,193.6 216.5,197.6 217.6,200.2 218.6,201.5 219.7,201.6 220.8,200.4 221.8,197.7 222.9,193.8 224.0,189.1 225.1,184.6 226.1,181.1 227.2,179.4 228.3,179.4 229.3,180.8 230.4,183.4 231.5,186.7 232.5,190.6 233.6,194.7 234.7,199.1 235.7,203.4 236.8,207.8 237.9,212.2 238.9,216.3 240.0,220.2 241.1,223.5 242.2,225.9 243.2,226.6 244.3,224.0 245.4,216.5 246.4,204.9 247.5,196.1 248.6,192.8 249.6,193.0 250.7,195.7 251.8,199.8 252.8,205.0 253.9,211.2 255.0,218.2 256.1,225.9 257.1,234.3 258.2,243.0 259.3,251.7 260.3,260.3 261.4,56.0 262.5,63.9 263.5,71.3 264.6,78.3 265.7,85.3 266.7,93.3 267.8,107.2 268.9,144.4 270.0,176.5 271.0,188.5 272.1,195.6 273.2,201.3 274.2,206.7 275.3,212.8 276.4,220.2 277.4,230.2 278.5,244.5 279.6,263.7 280.6,70.0 281.7,84.4 282.8,94.9 283.8,103.1 284.9,110.1 286.0,116.7 287.1,123.3 288.1,130.5 289.2,138.5 290.3,147.6 291.3,157.7 292.4,168.3 293.5,178.6 294.5,187.7 295.6,195.5 296.7,202.4 297.7,208.5 298.8,214.2 299.9,219.6 301.0,224.5 302.0,229.7 303.1,235.4 304.2,242.0 305.2,251.1 306.3,126.9 307.4,148.4 308.4,156.5 309.5,163.7 310.6,170.9 311.6,178.3 312.7,185.4 313.8,192.4 314.9,199.6 315.9,207.0 317.0,214.7 318.1,222.8 319.1,231.2 320.2,239.9 321.3,248.8 322.3,258.1 323.4,54.9 324.5,64.4 325.5,73.7 326.6,82.6 327.7,90.9 328.8,98.7 329.8,105.9 330.9,112.6 332.0,119.2 333.0,126.2 334.1,134.2 335.2,143.5 336.2,154.2 337.3,166.0 338.4,178.1 339.4,189.4 340.5,199.1 341.6,207.0 342.6,213.6 343.7,219.4 344.8,225.7 345.9,232.2 346.9,238.9 348.0,245.9 349.1,253.1 350.1,260.6 351.2,55.8 352.3,64.0 353.3,72.3 354.4,80.7 355.5,89.2 356.5,97.6 357.6,106.0 358.7,114.2 359.8,122.3 360.8,130.2 361.9,138.1 363.0,146.0 364.0,154.0 365.1,161.9 366.2,170.0 367.2,178.2 368.3,186.5 369.4,194.9 370.4,203.2 371.5,211.4 372.6,219.4 373.7,227.3 374.7,234.9 375.8,242.4 376.9,249.9 377.9,257.3 379.0,264.5 380.1,59.4 381.1,71.8 382.2,162.9 383.3,175.4 384.3,182.3 385.4,188.7 386.5,195.4 387.5,202.6 388.6,210.4 389.7,219.0 390.8,228.5 391.8,238.9 392.9,250.0 394.0,261.4 395.0,59.4 396.1,69.0 397.2,77.4 398.2,84.7 399.3,91.1 400.4,97.0 401.4,102.5 402.5,108.2 403.6,114.4 404.7,210.8 405.7,228.4 406.8,234.7 407.9,241.0 408.9,247.6 410.0,254.7 411.1,262.2 412.1,57.8 413.2,66.9 414.3,77.1 415.3,88.3 416.4,99.9 417.5,111.3 418.6,121.9 419.6,131.6 420.7,140.8 421.8,149.6 422.8,158.2 423.9,166.7 425.0,175.3 426.0,183.8 427.1,192.5 428.2,201.3 429.2,210.5 430.3,220.8 431.4,233.4 432.5,251.9 433.5,67.6 434.6,94.6 435.7,111.8 436.7,123.8 437.8,133.7 438.9,142.8 439.9,151.4 441.0,159.9 442.1,168.4 443.1,177.2 444.2,186.4 445.3,196.2 446.3,206.3 447.4,216.6 448.5,227.1 449.6,237.6 450.6,248.1 451.7,258.4 452.8,55.7 453.8,65.5 454.9,75.0 456.0,84.3 457.0,93.2 458.1,102.0 459.2,110.6 460.2,119.0 461.3,127.5 462.4,136.1 463.5,144.8 464.5,153.5 465.6,162.3 466.7,171.1 467.7,179.9 468.8,188.6 469.9,197.3 470.9,205.9 472.0,214.5 473.1,223.2 474.1,231.8 475.2,240.3 476.3,248.7 477.4,257.1 478.4,265.9 479.5,63.1 480.6,76.3 481.6,99.4 482.7,137.2 483.8,162.5 484.8,176.8 485.9,187.5 487.0,196.8 488.0,205.4 489.1,213.7 490.2,221.8 491.2,229.8 492.3,238.0 493.4,246.4 494.5,255.1 495.5,264.0 496.6,60.3 497.7,69.5 498.7,78.6 499.8,87.6 500.9,96.4 501.9,104.9 503.0,113.0 504.1,120.8 505.1,128.4 506.2,135.8 507.3,143.2 508.4,150.7 509.4,158.3 510.5,165.9 511.6,173.2 512.6,180.1 513.7,186.3 514.8,191.7 515.8,195.9 516.9,198.3 518.0,197.9 519.0,194.6 520.1,190.3 521.2,188.4 522.3,189.3 523.3,192.4 524.4,196.8 525.5,202.1 526.5,208.2 527.6,214.9 528.7,221.9 529.7,229.3 530.8,236.0 531.9,242.3 532.9,248.2 534.0,253.4 535.1,257.9 536.2,260.7 537.2,260.0 538.3,249.7 539.4,224.2 540.4,209.9 541.5,207.8 542.6,210.3 543.6,214.8 544.7,220.5 545.8,227.3 546.8,235.0 547.9,243.8 549.0,253.5 550.0,263.7 551.1,61.1 552.2,70.5 553.3,79.1 554.3,86.6 555.4,93.3 556.5,99.5 557.5,105.9 558.6,114.6 559.7,148.2 560.7,214.5 561.8,224.7 562.9,232.0 563.9,238.9 565.0,246.1 566.1,253.8 567.2,262.3 568.2,58.5 569.3,67.9 570.4,77.4 571.4,86.8 572.5,96.1 573.6,105.0 574.6,113.8 575.7,122.5 576.8,131.3 577.8,140.2 578.9,149.2 580.0,158.6 581.1,168.0 582.1,177.4 583.2,186.7 584.3,195.9 585.3,205.0 586.4,214.2 587.5,223.5 588.5,233.0 589.6,242.3 590.7,251.5 591.7,260.7 592.8,57.3 593.9,66.5 594.9,75.8 596.0,85.1 597.1,94.4 598.2,103.8 599.2,113.1 600.3,122.6 601.4,131.9 602.4,140.9 603.5,149.7 604.6,158.2 605.6,166.4 606.7,174.4 607.8,182.2 608.8,190.0 609.9,197.7 611.0,205.4 612.1,213.3 613.1,221.5 614.2,229.8 615.3,238.1 616.3,246.4 617.4,254.9 618.5,264.4 619.5,64.7 620.6,94.4 621.7,142.3 622.7,161.6 623.8,171.8 624.9,179.5 626.0,186.4 627.0,193.4 628.1,200.8 629.2,208.8 630.2,217.5 631.3,227.1 632.4,237.4 633.4,248.3 634.5,259.5 635.6,57.6 636.6,67.4 637.7,76.1 638.8,83.9 639.8,90.8 640.9,97.3 642.0,103.8 643.1,111.4 644.1,123.2 645.2,148.2 646.3,181.0 647.3,197.7 648.4,207.0 649.5,214.2 650.5,220.8 651.6,227.7 652.7,235.2 653.7,243.6 654.8,253.3 655.9,264.3 657.0,63.5 658.0,75.4 659.1,86.8 660.2,97.3 661.2,107.0 662.3,115.9 663.4,124.4 664.4,132.8 665.5,141.7 666.6,151.3 667.6,161.6 668.7,172.5 669.8,183.6 670.9,194.3 671.9,204.2 673.0,214.0 674.1,223.8 675.1,233.5 676.2,243.1 677.3,252.5 678.3,261.8 679.4,58.3 680.5,67.3 681.5,76.2 682.6,85.3 683.7,95.1 684.8,105.8 685.8,117.2 686.9,129.1 688.0,140.9 689.0,152.2 690.1,162.6 691.2,172.0 692.2,180.4 693.3,188.2 694.4,195.6 695.4,202.9 696.5,210.4 697.6,218.7 698.6,228.2 699.7,240.0 700.8,256.3 701.9,67.1 702.9,94.2 704.0,115.3 705.1,130.2 706.1,141.9 707.2,151.9 708.3,160.9 709.3,169.4 710.4,177.7 711.5,186.5 712.5,195.8 713.6,205.8 714.7,216.4 715.8,227.6 716.8,239.0 717.9,250.5 719.0,261.7 720.0,59.8 721.1,69.9 722.2,79.1 723.2,87.8 724.3,95.9 725.4,103.9 726.4,111.9 727.5,120.2 728.6,130.2 729.7,143.2 730.7,158.6 731.8,173.9 732.9,186.4 733.9,196.4 735.0,204.8 736.1,212.6 737.1,220.5 738.2,228.9 739.3,238.3 740.3,249.4 741.4,262.4 742.5,63.7 743.5,77.3 744.6,89.3 745.7,99.7 746.8,109.0 747.8,117.6 748.9,126.2 750.0,135.4 751.0,146.2 752.1,159.1 753.2,173.4 754.2,187.6 755.3,200.2 756.4,210.8 757.4,219.7 758.5,227.5 759.6,235.3 760.7,243.1 761.7,251.0 762.8,259.1 763.9,54.8 764.9,63.6 766.0,72.6"/>
<line x1="606" y1="42" x2="628" y2="42" stroke="#0f62fe" stroke-width="2.2"/>
<text x="634" y="46" font-family="Arial" font-size="12">roll_deg</text>
<polyline fill="none" stroke="#24a148" stroke-width="2.2" points="54.0,154.8 55.1,154.6 56.1,154.3 57.2,153.9 58.3,153.7 59.3,153.5 60.4,153.4 61.5,153.3 62.6,153.3 63.6,153.2 64.7,153.1 65.8,153.1 66.8,153.1 67.9,153.1 69.0,153.1 70.0,153.1 71.1,153.1 72.2,153.2 73.2,153.2 74.3,153.3 75.4,153.4 76.5,153.5 77.5,153.5 78.6,153.6 79.7,153.8 80.7,153.9 81.8,154.0 82.9,154.1 83.9,154.2 85.0,154.3 86.1,154.4 87.1,154.5 88.2,154.6 89.3,154.6 90.3,154.7 91.4,154.7 92.5,154.7 93.6,154.7 94.6,154.6 95.7,154.5 96.8,154.4 97.8,154.3 98.9,154.1 100.0,153.9 101.0,153.8 102.1,153.6 103.2,153.6 104.2,153.6 105.3,153.9 106.4,154.5 107.5,155.7 108.5,157.4 109.6,159.8 110.7,163.0 111.7,166.8 112.8,171.2 113.9,176.0 114.9,181.1 116.0,186.2 117.1,190.8 118.1,194.2 119.2,195.5 120.3,193.9 121.4,190.1 122.4,184.6 123.5,177.8 124.6,169.8 125.6,161.2 126.7,152.6 127.8,144.8 128.8,139.0 129.9,136.5 131.0,137.9 132.0,142.7 133.1,149.9 134.2,158.9 135.2,169.0 136.3,179.8 137.4,189.9 138.5,196.2 139.5,193.2 140.6,183.2 141.7,171.2 142.7,159.1 143.8,147.7 144.9,138.1 145.9,132.1 147.0,131.8 148.1,137.1 149.1,145.3 150.2,154.8 151.3,164.7 152.4,174.5 153.4,183.4 154.5,189.2 155.6,188.9 156.6,182.2 157.7,172.1 158.8,160.7 159.8,149.3 160.9,138.7 162.0,130.7 163.0,127.7 164.1,131.3 165.2,138.9 166.3,148.3 167.3,158.4 168.4,168.3 169.5,177.2 170.5,183.2 171.6,183.9 172.7,178.7 173.7,169.5 174.8,158.1 175.9,146.0 176.9,134.1 178.0,123.7 179.1,119.0 180.2,124.6 181.2,134.3 182.3,145.0 183.4,155.8 184.4,166.0 185.5,174.7 186.6,180.2 187.6,180.5 188.7,175.2 189.8,165.9 190.8,155.2 191.9,144.0 193.0,132.9 194.0,121.9 195.1,111.4 196.2,114.7 197.3,125.1 198.3,135.5 199.4,145.7 200.5,155.3 201.5,163.8 202.6,170.5 203.7,174.2 204.7,174.1 205.8,170.6 206.9,164.5 207.9,157.5 209.0,150.3 210.1,143.6 211.2,138.1 212.2,134.7 213.3,134.0 214.4,135.7 215.4,139.3 216.5,144.2 217.6,149.8 218.6,155.7 219.7,161.6 220.8,167.2 221.8,171.8 222.9,175.3 224.0,177.1 225.1,176.9 226.1,174.7 227.2,171.5 228.3,167.9 229.3,164.7 230.4,162.2 231.5,160.5 232.5,159.7 233.6,159.8 234.7,160.7 235.7,162.5 236.8,165.1 237.9,168.3 238.9,172.0 240.0,176.3 241.1,181.1 242.2,186.1 243.2,190.9 244.3,195.4 245.4,198.3 246.4,198.3 247.5,195.0 248.6,189.7 249.6,183.6 250.7,177.6 251.8,172.1 252.8,167.1 253.9,162.7 255.0,159.0 256.1,156.3 257.1,154.7 258.2,154.2 259.3,154.9 260.3,156.5 261.4,159.5 262.5,163.7 263.5,169.1 264.6,175.7 265.7,183.4 266.7,192.0 267.8,200.6 268.9,205.0 270.0,198.5 271.0,188.5 272.1,178.3 273.2,168.2 274.2,158.5 275.3,149.1 276.4,140.3 277.4,132.7 278.5,127.0 279.6,124.8 280.6,126.6 281.7,131.3 282.8,137.2 283.8,143.7 284.9,150.2 286.0,156.6 287.1,162.6 288.1,167.8 289.2,172.4 290.3,176.0 291.3,178.1 292.4,178.1 293.5,176.0 294.5,172.0 295.6,166.8 296.7,160.8 297.7,154.4 298.8,148.0 299.9,141.5 301.0,135.0 302.0,128.6 303.1,122.6 304.2,116.8 305.2,111.3 306.3,108.3 307.4,113.5 308.4,118.6 309.5,123.4 310.6,127.5 311.6,130.9 312.7,134.6 313.8,138.4 314.9,142.1 315.9,145.5 317.0,148.8 318.1,151.9 319.1,154.8 320.2,157.5 321.3,159.9 322.3,161.6 323.4,162.3 324.5,161.8 325.5,159.9 326.6,156.9 327.7,153.0 328.8,148.7 329.8,144.1 330.9,139.3 332.0,134.5 333.0,129.9 334.1,125.9 335.2,122.7 336.2,120.5 337.3,119.3 338.4,119.2 339.4,120.1 340.5,121.8 341.6,124.2 342.6,126.9 343.7,129.9 344.8,133.1 345.9,136.4 346.9,139.9 348.0,143.2 349.1,146.2 350.1,148.7 351.2,150.8 352.3,152.6 353.3,154.1 354.4,155.5 355.5,156.5 356.5,157.1 357.6,157.2 358.7,156.8 359.8,155.9 360.8,154.9 361.9,153.8 363.0,152.6 364.0,151.5 365.1,150.3 366.2,149.0 367.2,147.9 368.3,146.5 369.4,145.0 370.4,143.6 371.5,142.1 372.6,140.3 373.7,138.3 374.7,135.9 375.8,133.1 376.9,129.9 377.9,126.1 379.0,121.6 380.1,116.4 381.1,110.5 382.2,110.5 383.3,117.7 384.3,125.4 385.4,133.1 386.5,140.7 387.5,147.8 388.6,154.3 389.7,160.2 390.8,165.1 391.8,168.7 392.9,170.6 394.0,170.4 395.0,167.9 396.1,163.7 397.2,158.2 398.2,151.8 399.3,144.9 400.4,137.6 401.4,130.0 402.5,122.1 403.6,114.1 404.7,107.8 405.7,115.8 406.8,123.6 407.9,131.3 408.9,138.6 410.0,145.7 411.1,152.4 412.1,158.7 413.2,164.3 414.3,168.9 415.3,171.5 416.4,172.2 417.5,170.9 418.6,168.2 419.6,164.5 420.7,160.4 421.8,156.2 422.8,152.2 423.9,148.3 425.0,144.4 426.0,140.5 427.1,136.6 428.2,132.6 429.2,128.4 430.3,124.1 431.4,119.8 432.5,116.0 433.5,114.6 434.6,116.8 435.7,121.1 436.7,126.1 437.8,131.4 438.9,136.8 439.9,142.3 441.0,147.9 442.1,153.5 443.1,158.7 444.2,163.2 445.3,166.5 446.3,168.8 447.4,170.3 448.5,171.2 449.6,171.7 450.6,171.7 451.7,171.1 452.8,170.1 453.8,168.8 454.9,167.2 456.0,165.4 457.0,163.4 458.1,161.3 459.2,159.3 460.2,157.5 461.3,156.2 462.4,155.3 463.5,155.1 464.5,155.4 465.6,156.4 466.7,157.9 467.7,159.8 468.8,162.0 469.9,164.5 470.9,167.2 472.0,170.3 473.1,173.5 474.1,176.9 475.2,180.5 476.3,184.3 477.4,188.6 478.4,193.4 479.5,198.4 480.6,203.3 481.6,207.1 482.7,207.4 483.8,203.9 484.8,199.3 485.9,194.4 487.0,189.5 488.0,184.7 489.1,180.1 490.2,175.7 491.2,171.8 492.3,168.4 493.4,165.6 494.5,163.4 495.5,161.6 496.6,160.3 497.7,159.8 498.7,160.1 499.8,161.4 500.9,163.2 501.9,165.5 503.0,168.4 504.1,171.7 505.1,175.3 506.2,179.0 507.3,182.6 508.4,185.9 509.4,188.9 510.5,191.5 511.6,193.9 512.6,196.2 513.7,198.5 514.8,200.7 515.8,202.7 516.9,204.5 518.0,205.9 519.0,206.4 520.1,205.8 521.2,204.3 522.3,202.1 523.3,199.6 524.4,196.9 525.5,194.3 526.5,191.9 527.6,189.9 528.7,188.2 529.7,186.8 530.8,186.1 531.9,186.4 532.9,187.6 534.0,189.7 535.1,192.8 536.2,196.7 537.2,201.2 538.3,205.4 539.4,205.7 540.4,200.9 541.5,194.2 542.6,187.1 543.6,180.0 544.7,173.1 545.8,166.8 546.8,161.4 547.9,157.3 549.0,154.9 550.0,154.4 551.1,156.0 552.2,159.3 553.3,164.2 554.3,170.3 555.4,177.5 556.5,185.5 557.5,194.0 558.6,202.7 559.7,210.7 560.7,205.2 561.8,196.4 562.9,187.9 563.9,180.0 565.0,173.0 566.1,167.3 567.2,163.0 568.2,159.9 569.3,158.2 570.4,157.5 571.4,158.0 572.5,159.4 573.6,161.6 574.6,164.2 575.7,166.7 576.8,168.9 577.8,171.0 578.9,172.7 580.0,173.8 581.1,174.1 582.1,173.4 583.2,172.2 584.3,170.6 585.3,169.0 586.4,167.5 587.5,166.0 588.5,164.4 589.6,163.3 590.7,162.6 591.7,162.4 592.8,162.5 593.9,162.8 594.9,163.3 596.0,164.0 597.1,165.0 598.2,166.1 599.2,166.9 600.3,167.1 601.4,166.6 602.4,165.6 603.5,164.2 604.6,162.4 605.6,160.2 606.7,157.5 607.8,154.5 608.8,151.1 609.9,147.6 611.0,144.0 612.1,140.3 613.1,136.6 614.2,133.1 615.3,129.5 616.3,125.9 617.4,122.0 618.5,117.9 619.5,113.8 620.6,110.4 621.7,111.7 622.7,116.5 623.8,122.4 624.9,129.0 626.0,135.9 627.0,142.7 628.1,149.1 629.2,154.9 630.2,160.0 631.3,164.1 632.4,167.1 633.4,168.5 634.5,168.2 635.6,166.0 636.6,161.9 637.7,156.6 638.8,150.4 639.8,143.8 640.9,137.1 642.0,130.3 643.1,123.8 644.1,117.9 645.2,114.0 646.3,115.6 647.3,121.1 648.4,127.8 649.5,134.9 650.5,142.0 651.6,149.2 652.7,156.1 653.7,162.3 654.8,167.5 655.9,171.1 657.0,172.6 658.0,172.1 659.1,169.9 660.2,166.4 661.2,161.8 662.3,156.6 663.4,151.1 664.4,145.8 665.5,141.0 666.6,137.2 667.6,134.5 668.7,132.8 669.8,132.3 670.9,132.6 671.9,133.6 673.0,134.9 674.1,136.5 675.1,138.5 676.2,141.0 677.3,143.8 678.3,147.0 679.4,150.9 680.5,155.3 681.5,160.2 682.6,165.3 683.7,170.4 684.8,174.5 685.8,177.2 686.9,178.4 688.0,178.0 689.0,176.1 690.1,172.8 691.2,168.4 692.2,163.1 693.3,157.3 694.4,151.1 695.4,144.8 696.5,138.6 697.6,132.6 698.6,127.1 699.7,122.1 700.8,118.0 701.9,115.6 702.9,116.1 704.0,119.1 705.1,123.4 706.1,128.4 707.2,134.0 708.3,140.0 709.3,146.4 710.4,152.8 711.5,158.7 712.5,163.8 713.6,167.9 714.7,170.8 715.8,172.6 716.8,173.3 717.9,172.8 719.0,171.2 720.0,168.5 721.1,164.7 722.2,160.0 723.2,154.9 724.3,149.4 725.4,143.8 726.4,138.3 727.5,132.9 728.6,128.3 729.7,125.1 730.7,124.1 731.8,125.7 732.9,129.5 733.9,134.9 735.0,141.0 736.1,147.7 737.1,154.5 738.2,161.3 739.3,167.8 740.3,173.3 741.4,176.8 742.5,177.4 743.5,175.1 744.6,170.6 745.7,164.8 746.8,158.2 747.8,151.3 748.9,144.3 750.0,137.8 751.0,132.5 752.1,128.8 753.2,127.2 754.2,127.6 755.3,129.5 756.4,132.4 757.4,135.8 758.5,139.2 759.6,142.9 760.7,146.6 761.7,150.3 762.8,153.6 763.9,156.4 764.9,158.5 766.0,159.9"/>
<line x1="606" y1="60" x2="628" y2="60" stroke="#24a148" stroke-width="2.2"/>
<text x="634" y="64" font-family="Arial" font-size="12">pitch_deg</text>
<polyline fill="none" stroke="#da1e28" stroke-width="2.2" points="54.0,158.9 55.1,159.0 56.1,159.1 57.2,159.3 58.3,159.5 59.3,159.8 60.4,160.1 61.5,160.5 62.6,160.9 63.6,161.4 64.7,162.0 65.8,162.5 66.8,163.1 67.9,163.8 69.0,164.4 70.0,165.1 71.1,165.8 72.2,166.4 73.2,167.1 74.3,167.7 75.4,168.4 76.5,168.9 77.5,169.4 78.6,169.9 79.7,170.3 80.7,170.6 81.8,170.8 82.9,171.0 83.9,171.1 85.0,171.0 86.1,170.9 87.1,170.7 88.2,170.4 89.3,170.0 90.3,169.5 91.4,168.9 92.5,168.3 93.6,167.6 94.6,166.9 95.7,166.2 96.8,165.5 97.8,164.8 98.9,164.2 100.0,163.7 101.0,163.3 102.1,163.1 103.2,163.1 104.2,163.4 105.3,164.1 106.4,165.2 107.5,166.7 108.5,168.4 109.6,170.3 110.7,172.0 111.7,173.5 112.8,174.5 113.9,174.8 114.9,174.0 116.0,171.7 117.1,166.9 118.1,158.7 119.2,147.3 120.3,135.9 121.4,127.5 122.4,122.3 123.5,119.6 124.6,118.9 125.6,120.2 126.7,123.8 127.8,129.9 128.8,139.0 129.9,150.8 131.0,162.8 132.0,172.7 133.1,179.7 134.2,184.2 135.2,186.3 136.3,185.6 137.4,179.4 138.5,162.0 139.5,139.8 140.6,129.2 141.7,126.2 142.7,127.0 143.8,130.8 144.9,138.4 145.9,151.3 147.0,167.6 148.1,180.4 149.1,187.8 150.2,191.6 151.3,192.7 152.4,191.0 153.4,185.2 154.5,173.0 155.6,156.7 156.6,144.6 157.7,138.7 158.8,137.0 159.8,138.5 160.9,143.5 162.0,154.1 163.0,171.2 164.1,187.4 165.2,196.6 166.3,200.7 167.3,201.5 168.4,199.3 169.5,193.4 170.5,182.6 171.6,168.3 172.7,155.7 173.7,147.8 174.8,143.8 175.9,142.7 176.9,145.0 178.0,154.5 179.1,180.7 180.2,204.2 181.2,212.1 182.3,213.8 183.4,212.3 184.4,208.1 185.5,200.4 186.6,188.5 187.6,173.8 188.7,160.8 189.8,151.4 190.8,144.8 191.9,139.5 193.0,134.6 194.0,128.4 195.1,109.6 196.2,246.9 197.3,236.4 198.3,230.5 199.4,224.7 200.5,217.9 201.5,209.6 202.6,199.0 203.7,185.9 204.7,171.9 205.8,158.6 206.9,147.0 207.9,136.7 209.0,126.8 210.1,116.3 211.2,104.5 212.2,90.7 213.3,75.8 214.4,61.4 215.4,261.2 216.5,249.6 217.6,238.9 218.6,228.5 219.7,217.9 220.8,206.6 221.8,194.1 222.9,180.6 224.0,166.3 225.1,152.0 226.1,138.5 227.2,126.3 228.3,115.3 229.3,105.3 230.4,96.1 231.5,87.5 232.5,79.6 233.6,72.4 234.7,65.9 235.7,60.2 236.8,55.2 237.9,263.4 238.9,258.5 240.0,253.4 241.1,247.7 242.2,241.1 243.2,232.6 244.3,221.0 245.4,204.2 246.4,183.4 247.5,165.2 248.6,152.3 249.6,142.5 250.7,134.8 251.8,128.0 252.8,121.6 253.9,115.4 255.0,109.0 256.1,102.4 257.1,95.7 258.2,89.0 259.3,82.7 260.3,76.8 261.4,71.5 262.5,67.1 263.5,63.4 264.6,60.6 265.7,59.0 266.7,59.8 267.8,67.3 268.9,98.9 270.0,125.8 271.0,132.8 272.1,134.6 273.2,134.6 274.2,133.6 275.3,131.4 276.4,127.6 277.4,121.3 278.5,110.7 279.6,95.5 280.6,80.7 281.7,70.9 282.8,65.6 283.8,63.2 284.9,62.8 286.0,64.1 287.1,67.0 288.1,71.7 289.2,77.5 290.3,84.6 291.3,93.0 292.4,102.0 293.5,110.7 294.5,118.4 295.6,124.9 296.7,130.4 297.7,135.0 298.8,139.1 299.9,143.1 301.0,147.1 302.0,150.5 303.1,153.2 304.2,155.1 305.2,154.5 306.3,74.8 307.4,62.2 308.4,63.3 309.5,65.4 310.6,67.6 311.6,69.7 312.7,72.4 313.8,75.5 314.9,78.8 315.9,82.2 317.0,85.7 318.1,89.2 319.1,93.0 320.2,97.2 321.3,102.1 322.3,107.7 323.4,113.9 324.5,120.5 325.5,127.0 326.6,133.2 327.7,138.7 328.8,143.7 329.8,148.2 330.9,152.6 332.0,156.1 333.0,158.5 334.1,159.2 335.2,158.3 336.2,155.9 337.3,152.3 338.4,148.4 339.4,145.5 340.5,144.5 341.6,145.6 342.6,148.5 343.7,152.7 344.8,156.5 345.9,160.4 346.9,164.4 348.0,168.7 349.1,173.1 350.1,177.5 351.2,181.6 352.3,185.6 353.3,189.6 354.4,193.8 355.5,198.1 356.5,202.7 357.6,207.3 358.7,211.7 359.8,215.9 360.8,219.6 361.9,223.0 363.0,226.1 364.0,229.0 365.1,231.6 366.2,234.0 367.2,236.4 368.3,238.5 369.4,240.4 370.4,242.2 371.5,244.2 372.6,246.3 373.7,248.6 374.7,251.0 375.8,253.4 376.9,255.6 377.9,257.8 379.0,260.0 380.1,261.6 381.1,258.3 382.2,176.2 383.3,172.9 384.3,175.3 385.4,178.7 386.5,182.7 387.5,186.9 388.6,191.7 389.7,197.2 390.8,203.6 391.8,211.2 392.9,219.7 394.0,228.7 395.0,237.2 396.1,244.7 397.2,251.1 398.2,256.4 399.3,261.0 400.4,265.0 401.4,55.8 402.5,58.5 403.6,60.5 404.7,184.7 405.7,175.2 406.8,177.4 407.9,180.0 408.9,182.9 410.0,186.1 411.1,189.8 412.1,194.2 413.2,199.6 414.3,206.2 415.3,213.7 416.4,221.4 417.5,228.7 418.6,234.9 419.6,239.9 420.7,243.7 421.8,246.5 422.8,248.7 423.9,250.4 425.0,251.9 426.0,253.1 427.1,254.0 428.2,254.5 429.2,254.3 430.3,253.1 431.4,249.2 432.5,239.2 433.5,219.4 434.6,200.9 435.7,192.3 436.7,189.0 437.8,188.0 438.9,188.2 439.9,189.1 441.0,190.7 442.1,193.0 443.1,196.2 444.2,200.1 445.3,204.3 446.3,208.6 447.4,212.9 448.5,217.1 449.6,221.2 450.6,225.1 451.7,228.9 452.8,232.3 453.8,235.4 454.9,238.1 456.0,240.3 457.0,242.1 458.1,243.2 459.2,243.6 460.2,243.5 461.3,242.7 462.4,241.3 463.5,239.5 464.5,237.4 465.6,235.2 466.7,233.0 467.7,231.0 468.8,229.1 469.9,227.2 470.9,225.4 472.0,223.8 473.1,222.3 474.1,221.0 475.2,219.7 476.3,218.5 477.4,217.5 478.4,216.9 479.5,217.9 480.6,222.3 481.6,236.7 482.7,266.0 483.8,70.0 484.8,75.5 485.9,77.3 487.0,77.5 488.0,76.8 489.1,75.4 490.2,73.1 491.2,70.2 492.3,66.9 493.4,63.4 494.5,59.6 495.5,55.6 496.6,264.0 497.7,259.5 498.7,255.0 499.8,250.8 500.9,246.7 501.9,242.5 503.0,238.6 504.1,234.9 505.1,231.6 506.2,228.8 507.3,226.3 508.4,224.3 509.4,222.6 510.5,220.8 511.6,218.6 512.6,215.9 513.7,212.7 514.8,208.6 515.8,203.3 516.9,196.3 518.0,186.5 519.0,173.7 520.1,159.9 521.2,148.6 522.3,140.1 523.3,133.5 524.4,128.3 525.5,123.9 526.5,120.2 527.6,117.0 528.7,114.2 529.7,111.7 530.8,108.2 531.9,104.2 532.9,99.5 534.0,94.3 535.1,88.4 536.2,81.0 537.2,70.2 538.3,262.8 539.4,227.5 540.4,203.3 541.5,191.2 542.6,183.5 543.6,177.2 544.7,171.1 545.8,164.7 546.8,157.6 547.9,149.8 549.0,141.3 550.0,132.6 551.1,124.1 552.2,116.4 553.3,109.5 554.3,103.4 555.4,98.3 556.5,94.2 557.5,91.5 558.6,91.9 559.7,117.5 560.7,176.0 561.8,178.2 562.9,177.0 563.9,174.7 565.0,171.3 566.1,167.1 567.2,162.3 568.2,157.2 569.3,152.1 570.4,147.1 571.4,142.5 572.5,138.8 573.6,136.1 574.6,134.7 575.7,134.5 576.8,135.4 577.8,136.9 578.9,139.0 580.0,141.7 581.1,144.7 582.1,147.7 583.2,150.3 584.3,152.5 585.3,154.2 586.4,155.8 587.5,157.4 588.5,159.2 589.6,160.4 590.7,161.4 591.7,162.5 592.8,163.7 593.9,165.1 594.9,166.7 596.0,168.5 597.1,170.7 598.2,173.5 599.2,177.2 600.3,181.6 601.4,186.2 602.4,190.7 603.5,195.1 604.6,199.4 605.6,203.6 606.7,207.6 607.8,211.2 608.8,214.4 609.9,217.2 611.0,219.8 612.1,221.8 613.1,223.3 614.2,224.6 615.3,225.7 616.3,226.8 617.4,227.5 618.5,227.2 619.5,223.2 620.6,202.4 621.7,163.5 622.7,153.0 623.8,151.8 624.9,153.4 626.0,156.3 627.0,160.0 628.1,164.3 629.2,169.3 630.2,174.8 631.3,181.0 632.4,188.1 633.4,195.9 634.5,204.1 635.6,212.2 636.6,219.5 637.7,225.6 638.8,230.7 639.8,235.0 640.9,238.5 642.0,241.0 643.1,241.6 644.1,237.5 645.2,219.9 646.3,194.3 647.3,184.9 648.4,183.4 649.5,184.6 650.5,187.1 651.6,190.4 652.7,194.5 653.7,199.7 654.8,206.3 655.9,213.9 657.0,222.2 658.0,230.2 659.1,237.5 660.2,243.8 661.2,249.0 662.3,253.1 663.4,255.8 664.4,257.2 665.5,257.3 666.6,256.2 667.6,254.2 668.7,251.7 669.8,249.0 670.9,247.0 671.9,245.9 673.0,245.0 674.1,244.0 675.1,243.1 676.2,242.4 677.3,241.8 678.3,241.4 679.4,241.3 680.5,241.9 681.5,243.4 682.6,246.1 683.7,250.5 684.8,256.6 685.8,263.6 686.9,58.6 688.0,66.5 689.0,73.9 690.1,80.7 691.2,86.5 692.2,91.2 693.3,95.0 694.4,97.8 695.4,99.8 696.5,101.0 697.6,101.1 698.6,99.9 699.7,96.3 700.8,88.3 701.9,73.1 702.9,54.4 704.0,254.6 705.1,248.2 706.1,245.2 707.2,244.2 708.3,244.5 709.3,245.9 710.4,248.4 711.5,251.8 712.5,256.2 713.6,261.2 714.7,54.0 715.8,59.9 716.8,66.1 717.9,72.2 719.0,78.2 720.0,83.9 721.1,88.8 722.2,92.9 723.2,96.1 724.3,98.4 725.4,100.0 726.4,100.8 727.5,100.8 728.6,98.3 729.7,92.4 730.7,83.8 731.8,75.4 732.9,69.8 733.9,67.4 735.0,67.1 736.1,68.4 737.1,70.6 738.2,74.0 739.3,78.8 740.3,85.6 741.4,94.6 742.5,104.7 743.5,114.3 744.6,121.9 745.7,127.7 746.8,131.9 747.8,135.0 748.9,136.5 750.0,136.1 751.0,133.4 752.1,128.3 753.2,121.9 754.2,115.7 755.3,111.4 756.4,109.5 757.4,109.9 758.5,112.0 759.6,114.6 760.7,117.7 761.7,121.4 762.8,125.8 763.9,130.8 764.9,136.1 766.0,141.6"/>
<line x1="606" y1="78" x2="628" y2="78" stroke="#da1e28" stroke-width="2.2"/>
<text x="634" y="82" font-family="Arial" font-size="12">yaw_deg</text>
</svg>