<svg xmlns="http://www.w3.org/2000/svg" width="820" height="320" viewBox="0 0 820 320">
<rect width="100%" height="100%" fill="#ffffff"/>
<text x="54" y="28" font-family="Arial" font-size="18" font-weight="700">Thrust</text>
<line x1="54" y1="266" x2="766" y2="266" stroke="#1f2933"/>
<line x1="54" y1="54" x2="54" y2="266" stroke="#1f2933"/>
<text x="54" y="306" font-family="Arial" font-size="12">time (s)</text>
<text x="596" y="306" font-family="Arial" font-size="12">thrust (N)</text>
<text x="58" y="68" font-family="Arial" font-size="11">395</text>
<text x="58" y="260" font-family="Arial" font-size="11">0</text>
<polyline fill="none" stroke="#0f62fe" stroke-width="2.2" points="54.0,94.6 55.1,91.5 56.1,88.5 57.2,85.5 58.3,82.4 59.3,79.4 60.4,76.3 61.5,73.3 62.6,70.2 63.6,67.2 64.7,64.1 65.8,61.1 66.8,58.0 67.9,55.0 69.0,54.0 70.0,54.0 71.1,54.0 72.2,54.1 73.2,54.1 74.3,54.1 75.4,54.1 76.5,54.1 77.5,54.1 78.6,54.2 79.7,54.2 80.7,54.2 81.8,54.2 82.9,54.2 83.9,54.2 85.0,54.3 86.1,54.3 87.1,54.3 88.2,54.3 89.3,54.3 90.3,54.4 91.4,54.4 92.5,54.4 93.6,54.4 94.6,54.4 95.7,54.4 96.8,54.5 97.8,54.5 98.9,54.5 100.0,54.5 101.0,54.5 102.1,54.6 103.2,54.6 104.2,54.6 105.3,54.6 106.4,54.6 107.5,54.6 108.5,54.7 109.6,54.7 110.7,54.7 111.7,54.7 112.8,54.7 113.9,54.7 114.9,54.8 116.0,54.8 117.1,54.8 118.1,54.8 119.2,54.8 120.3,54.9 121.4,54.9 122.4,54.9 123.5,54.9 124.6,54.9 125.6,54.9 126.7,55.0 127.8,55.0 128.8,55.0 129.9,55.0 131.0,55.0 132.0,55.1 133.1,55.1 134.2,55.1 135.2,55.1 136.3,55.1 137.4,55.1 138.5,55.2 139.5,55.2 140.6,55.2 141.7,55.2 142.7,55.2 143.8,55.2 144.9,55.3 145.9,55.3 147.0,55.3 148.1,55.3 149.1,55.3 150.2,55.4 151.3,55.4 152.4,55.4 153.4,55.4 154.5,55.4 155.6,55.4 156.6,55.5 157.7,55.5 158.8,55.5 159.8,55.5 160.9,55.5 162.0,55.5 163.0,55.6 164.1,55.6 165.2,55.6 166.3,55.6 167.3,55.6 168.4,55.7 169.5,55.7 170.5,55.7 171.6,55.7 172.7,55.7 173.7,55.7 174.8,55.8 175.9,55.8 176.9,55.8 178.0,55.8 179.1,55.8 180.2,55.9 181.2,55.9 182.3,55.9 183.4,55.9 184.4,55.9 185.5,55.9 186.6,56.0 187.6,56.0 188.7,56.0 189.8,56.0 190.8,56.0 191.9,56.0 193.0,56.1 194.0,56.1 195.1,56.1 196.2,56.1 197.3,56.1 198.3,56.2 199.4,56.2 200.5,56.2 201.5,56.2 202.6,56.2 203.7,56.2 204.7,56.3 205.8,56.3 206.9,56.3 207.9,56.3 209.0,56.3 210.1,56.4 211.2,56.4 212.2,56.4 213.3,56.4 214.4,56.4 215.4,56.4 216.5,56.5 217.6,56.5 218.6,56.5 219.7,56.5 220.8,56.5 221.8,56.5 222.9,56.6 224.0,56.6 225.1,56.6 226.1,56.6 227.2,56.6 228.3,56.7 229.3,56.7 230.4,56.7 231.5,56.7 232.5,56.7 233.6,56.7 234.7,56.8 235.7,56.8 236.8,56.8 237.9,56.8 238.9,56.8 240.0,56.8 241.1,56.9 242.2,56.9 243.2,56.9 244.3,56.9 245.4,56.9 246.4,57.0 247.5,57.0 248.6,57.0 249.6,57.0 250.7,57.0 251.8,57.0 252.8,57.1 253.9,57.1 255.0,57.1 256.1,57.1 257.1,57.1 258.2,57.2 259.3,57.2 260.3,57.2 261.4,57.2 262.5,57.2 263.5,57.2 264.6,57.3 265.7,57.3 266.7,57.3 267.8,57.3 268.9,57.3 270.0,57.3 271.0,57.4 272.1,57.4 273.2,57.4 274.2,57.4 275.3,57.4 276.4,57.5 277.4,57.5 278.5,57.5 279.6,57.5 280.6,57.5 281.7,57.5 282.8,57.6 283.8,57.6 284.9,57.6 286.0,57.6 287.1,57.6 288.1,57.7 289.2,57.7 290.3,57.7 291.3,57.7 292.4,57.7 293.5,57.7 294.5,57.8 295.6,57.8 296.7,57.8 297.7,57.8 298.8,57.8 299.9,57.8 301.0,57.9 302.0,57.9 303.1,57.9 304.2,57.9 305.2,57.9 306.3,58.0 307.4,58.0 308.4,58.0 309.5,58.0 310.6,58.0 311.6,58.0 312.7,58.1 313.8,58.1 314.9,58.1 315.9,58.1 317.0,58.1 318.1,58.1 319.1,58.2 320.2,58.2 321.3,58.2 322.3,58.2 323.4,58.2 324.5,58.3 325.5,58.3 326.6,58.3 327.7,58.3 328.8,58.3 329.8,58.3 330.9,58.4 332.0,58.4 333.0,58.4 334.1,58.4 335.2,58.4 336.2,58.5 337.3,58.5 338.4,58.5 339.4,58.5 340.5,58.6 341.6,58.8 342.6,58.9 343.7,59.0 344.8,59.1 345.9,59.2 346.9,59.3 348.0,59.4 349.1,59.5 350.1,59.6 351.2,59.7 352.3,59.8 353.3,59.9 354.4,60.1 355.5,60.2 356.5,60.3 357.6,60.4 358.7,60.5 359.8,60.6 360.8,60.7 361.9,60.8 363.0,60.9 364.0,61.0 365.1,61.1 366.2,61.2 367.2,61.3 368.3,61.5 369.4,61.6 370.4,61.7 371.5,61.8 372.6,61.9 373.7,62.0 374.7,62.1 375.8,62.2 376.9,62.3 377.9,62.4 379.0,62.5 380.1,62.6 381.1,62.8 382.2,62.9 383.3,63.0 384.3,63.1 385.4,63.2 386.5,63.3 387.5,63.4 388.6,63.5 389.7,63.6 390.8,63.7 391.8,63.8 392.9,63.9 394.0,64.1 395.0,64.2 396.1,64.3 397.2,64.4 398.2,64.5 399.3,64.6 400.4,64.7 401.4,64.8 402.5,64.9 403.6,65.0 404.7,65.1 405.7,65.2 406.8,65.4 407.9,65.5 408.9,65.6 410.0,65.7 411.1,65.8 412.1,65.9 413.2,66.0 414.3,66.1 415.3,66.2 416.4,66.3 417.5,66.4 418.6,66.5 419.6,66.7 420.7,66.8 421.8,66.9 422.8,67.0 423.9,67.1 425.0,67.2 426.0,67.3 427.1,67.4 428.2,67.5 429.2,67.6 430.3,67.7 431.4,67.8 432.5,68.0 433.5,68.1 434.6,68.2 435.7,68.3 436.7,68.4 437.8,68.5 438.9,68.6 439.9,68.7 441.0,68.8 442.1,68.9 443.1,69.0 444.2,69.1 445.3,69.3 446.3,69.4 447.4,69.5 448.5,69.6 449.6,69.7 450.6,69.8 451.7,69.9 452.8,70.0 453.8,70.1 454.9,70.2 456.0,70.3 457.0,70.4 458.1,70.6 459.2,70.7 460.2,70.8 461.3,70.9 462.4,71.0 463.5,71.1 464.5,71.2 465.6,71.3 466.7,71.4 467.7,71.5 468.8,71.6 469.9,71.7 470.9,71.9 472.0,72.0 473.1,72.1 474.1,72.2 475.2,72.3 476.3,72.4 477.4,72.5 478.4,72.6 479.5,72.7 480.6,72.8 481.6,72.9 482.7,73.0 483.8,73.2 484.8,73.3 485.9,73.4 487.0,73.5 488.0,73.6 489.1,73.7 490.2,73.8 491.2,73.9 492.3,74.0 493.4,74.1 494.5,74.2 495.5,74.3 496.6,74.4 497.7,74.6 498.7,74.7 499.8,74.8 500.9,74.9 501.9,75.0 503.0,75.1 504.1,75.2 505.1,75.3 506.2,75.4 507.3,75.5 508.4,75.6 509.4,75.7 510.5,75.9 511.6,76.0 512.6,76.1 513.7,76.2 514.8,76.3 515.8,76.4 516.9,76.5 518.0,266.0 519.0,266.0 520.1,266.0 521.2,266.0 522.3,266.0 523.3,266.0 524.4,266.0 525.5,266.0 526.5,266.0 527.6,266.0 528.7,266.0 529.7,266.0 530.8,266.0 531.9,266.0 532.9,266.0 534.0,266.0 535.1,266.0 536.2,266.0 537.2,266.0 538.3,266.0 539.4,266.0 540.4,266.0 541.5,266.0 542.6,266.0 543.6,266.0 544.7,266.0 545.8,266.0 546.8,266.0 547.9,266.0 549.0,266.0 550.0,266.0 551.1,266.0 552.2,266.0 553.3,266.0 554.3,266.0 555.4,266.0 556.5,266.0 557.5,266.0 558.6,266.0 559.7,266.0 560.7,266.0 561.8,266.0 562.9,266.0 563.9,266.0 565.0,266.0 566.1,266.0 567.2,266.0 568.2,266.0 569.3,266.0 570.4,266.0 571.4,266.0 572.5,266.0 573.6,266.0 574.6,266.0 575.7,266.0 576.8,266.0 577.8,266.0 578.9,266.0 580.0,266.0 581.1,266.0 582.1,266.0 583.2,266.0 584.3,266.0 585.3,266.0 586.4,266.0 587.5,266.0 588.5,266.0 589.6,266.0 590.7,266.0 591.7,266.0 592.8,266.0 593.9,266.0 594.9,266.0 596.0,266.0 597.1,266.0 598.2,266.0 599.2,266.0 600.3,266.0 601.4,266.0 602.4,266.0 603.5,266.0 604.6,266.0 605.6,266.0 606.7,266.0 607.8,266.0 608.8,266.0 609.9,266.0 611.0,266.0 612.1,266.0 613.1,266.0 614.2,266.0 615.3,266.0 616.3,266.0 617.4,266.0 618.5,266.0 619.5,266.0 620.6,266.0 621.7,266.0 622.7,266.0 623.8,266.0 624.9,266.0 626.0,266.0 627.0,266.0 628.1,266.0 629.2,266.0 630.2,266.0 631.3,266.0 632.4,266.0 633.4,266.0 634.5,266.0 635.6,266.0 636.6,266.0 637.7,266.0 638.8,266.0 639.8,266.0 640.9,266.0 642.0,266.0 643.1,266.0 644.1,266.0 645.2,266.0 646.3,266.0 647.3,266.0 648.4,266.0 649.5,266.0 650.5,266.0 651.6,266.0 652.7,266.0 653.7,266.0 654.8,266.0 655.9,266.0 657.0,266.0 658.0,266.0 659.1,266.0 660.2,266.0 661.2,266.0 662.3,266.0 663.4,266.0 664.4,266.0 665.5,266.0 666.6,266.0 667.6,266.0 668.7,266.0 669.8,266.0 670.9,266.0 671.9,266.0 673.0,266.0 674.1,266.0 675.1,266.0 676.2,266.0 677.3,266.0 678.3,266.0 679.4,266.0 680.5,266.0 681.5,266.0 682.6,266.0 683.7,266.0 684.8,266.0 685.8,266.0 686.9,266.0 688.0,266.0 689.0,266.0 690.1,266.0 691.2,266.0 692.2,266.0 693.3,266.0 694.4,266.0 695.4,266.0 696.5,266.0 697.6,266.0 698.6,266.0 699.7,266.0 700.8,266.0 701.9,266.0 702.9,266.0 704.0,266.0 705.1,266.0 706.1,266.0 707.2,266.0 708.3,266.0 709.3,266.0 710.4,266.0 711.5,266.0 712.5,266.0 713.6,266.0 714.7,266.0 715.8,266.0 716.8,266.0 717.9,266.0 719.0,266.0 720.0,266.0 721.1,266.0 722.2,266.0 723.2,266.0 724.3,266.0 725.4,266.0 726.4,266.0 727.5,266.0 728.6,266.0 729.7,266.0 730.7,266.0 731.8,266.0 732.9,266.0 733.9,266.0 735.0,266.0 736.1,266.0 737.1,266.0 738.2,266.0 739.3,266.0 740.3,266.0 741.4,266.0 742.5,266.0 743.5,266.0 744.6,266.0 745.7,266.0 746.8,266.0 747.8,266.0 748.9,266.0 750.0,266.0 751.0,266.0 752.1,266.0 753.2,266.0 754.2,266.0 755.3,266.0 756.4,266.0 757.4,266.0 758.5,266.0 759.6,266.0 760.7,266.0 761.7,266.0 762.8,266.0 763.9,266.0 764.9,266.0 766.0,266.0"/>
<line x1="606" y1="42" x2="628" y2="42" stroke="#0f62fe" stroke-width="2.2"/>
<text x="634" y="46" font-family="Arial" font-size="12">thrust_n</text>
</svg>