<svg xmlns="http://www.w3.org/2000/svg" width="820" height="320" viewBox="0 0 820 320">
<rect width="100%" height="100%" fill="#ffffff"/>
<text x="54" y="28" font-family="Arial" font-size="18" font-weight="700">Wind Components</text>
<line x1="54" y1="266" x2="766" y2="266" stroke="#1f2933"/>
<line x1="54" y1="54" x2="54" y2="266" stroke="#1f2933"/>
<text x="54" y="306" font-family="Arial" font-size="12">time (s)</text>
<text x="596" y="306" font-family="Arial" font-size="12">wind (m/s)</text>
<text x="58" y="68" font-family="Arial" font-size="11">11</text>
<text x="58" y="260" font-family="Arial" font-size="11">-4.53</text>
<polyline fill="none" stroke="#0f62fe" stroke-width="2.2" points="54.0,228.5 55.1,227.8 56.1,227.3 57.2,226.7 58.3,226.3 59.3,225.9 60.4,225.5 61.5,225.2 62.6,224.9 63.6,224.7 64.7,224.6 65.8,224.5 66.8,224.5 67.9,224.5 69.0,224.6 70.0,224.8 71.1,225.0 72.2,225.3 73.2,225.6 74.3,226.0 75.4,226.4 76.5,226.9 77.5,227.5 78.6,228.0 79.7,228.7 80.7,229.3 81.8,230.0 82.9,230.8 83.9,231.5 85.0,232.3 86.1,233.2 87.1,234.0 88.2,234.9 89.3,235.7 90.3,236.6 91.4,237.5 92.5,238.4 93.6,239.3 94.6,240.2 95.7,241.1 96.8,241.9 97.8,242.8 98.9,243.6 100.0,244.4 101.0,245.2 102.1,245.9 103.2,246.6 104.2,247.3 105.3,247.9 106.4,248.5 107.5,249.0 108.5,249.5 109.6,249.9 110.7,250.3 111.7,250.7 112.8,250.9 113.9,251.2 114.9,251.3 116.0,251.4 117.1,251.5 118.1,251.5 119.2,251.4 120.3,251.2 121.4,251.1 122.4,250.8 123.5,250.5 124.6,250.2 125.6,249.7 126.7,249.3 127.8,248.8 128.8,248.2 129.9,247.6 131.0,247.0 132.0,246.3 133.1,245.6 134.2,244.8 135.2,244.0 136.3,243.2 137.4,242.4 138.5,241.5 139.5,240.6 140.6,239.7 141.7,238.9 142.7,238.0 143.8,237.1 144.9,236.2 145.9,235.3 147.0,234.4 148.1,233.6 149.1,232.7 150.2,231.9 151.3,231.1 152.4,230.3 153.4,229.6 154.5,228.9 155.6,228.3 156.6,227.7 157.7,227.1 158.8,226.6 159.8,226.1 160.9,225.7 162.0,225.3 163.0,225.0 164.1,224.8 165.2,224.6 166.3,224.4 167.3,224.4 168.4,224.3 169.5,224.4 170.5,224.5 171.6,224.7 172.7,224.9 173.7,225.1 174.8,225.5 175.9,225.9 176.9,226.3 178.0,226.8 179.1,227.3 180.2,227.9 181.2,228.6 182.3,229.2 183.4,230.0 184.4,230.7 185.5,231.5 186.6,232.3 187.6,233.1 188.7,234.0 189.8,234.9 190.8,235.7 191.9,236.7 193.0,237.6 194.0,238.5 195.1,239.4 196.2,240.3 197.3,241.2 198.3,242.1 199.4,242.9 200.5,243.8 201.5,244.6 202.6,245.4 203.7,246.2 204.7,246.9 205.8,247.6 206.9,248.2 207.9,248.8 209.0,249.4 210.1,249.9 211.2,250.4 212.2,250.8 213.3,251.2 214.4,251.5 215.4,251.7 216.5,251.9 217.6,252.1 218.6,252.1 219.7,252.1 220.8,252.1 221.8,252.0 222.9,251.8 224.0,251.6 225.1,251.3 226.1,251.0 227.2,250.6 228.3,250.2 229.3,249.7 230.4,249.2 231.5,248.6 232.5,247.9 233.6,247.3 234.7,246.6 235.7,245.8 236.8,245.1 237.9,244.3 238.9,243.5 240.0,242.6 241.1,241.8 242.2,240.9 243.2,240.0 244.3,239.1 245.4,238.3 246.4,237.4 247.5,236.5 248.6,235.6 249.6,234.8 250.7,234.0 251.8,233.2 252.8,232.4 253.9,231.6 255.0,230.9 256.1,230.2 257.1,229.6 258.2,229.0 259.3,228.4 260.3,227.9 261.4,227.4 262.5,227.0 263.5,226.6 264.6,226.3 265.7,226.1 266.7,225.9 267.8,225.8 268.9,225.7 270.0,225.7 271.0,225.7 272.1,225.8 273.2,226.0 274.2,226.2 275.3,226.5 276.4,226.8 277.4,227.2 278.5,227.6 279.6,228.1 280.6,228.7 281.7,229.3 282.8,229.9 283.8,230.6 284.9,231.3 286.0,232.1 287.1,232.8 288.1,233.7 289.2,234.5 290.3,235.4 291.3,236.2 292.4,237.1 293.5,238.1 294.5,239.0 295.6,239.9 296.7,240.8 297.7,241.8 298.8,242.7 299.9,243.6 301.0,244.5 302.0,245.3 303.1,246.2 304.2,247.0 305.2,247.8 306.3,248.5 307.4,249.2 308.4,249.9 309.5,250.5 310.6,251.1 311.6,251.7 312.7,252.2 313.8,252.6 314.9,253.0 315.9,253.3 317.0,253.6 318.1,253.8 319.1,253.9 320.2,254.0 321.3,254.1 322.3,254.1 323.4,254.0 324.5,253.8 325.5,253.7 326.6,253.4 327.7,253.1 328.8,252.7 329.8,252.3 330.9,251.8 332.0,251.3 333.0,250.8 334.1,250.2 335.2,249.5 336.2,248.8 337.3,248.1 338.4,247.3 339.4,246.6 340.5,245.8 341.6,244.9 342.6,244.1 343.7,243.2 344.8,242.3 345.9,241.5 346.9,240.6 348.0,239.7 349.1,238.8 350.1,238.0 351.2,237.1 352.3,236.3 353.3,235.5 354.4,234.7 355.5,233.9 356.5,233.2 357.6,232.5 358.7,231.8 359.8,231.2 360.8,230.6 361.9,230.1 363.0,229.6 364.0,229.2 365.1,228.8 366.2,228.5 367.2,228.2 368.3,228.0 369.4,227.9 370.4,227.8 371.5,227.7 372.6,227.8 373.7,227.8 374.7,228.0 375.8,228.2 376.9,228.4 377.9,228.8 379.0,229.1 380.1,229.6 381.1,230.0 382.2,230.6 383.3,231.1 384.3,231.8 385.4,232.4 386.5,233.1 387.5,233.9 388.6,234.6 389.7,235.4 390.8,236.3 391.8,237.1 392.9,238.0 394.0,238.9 395.0,239.8 396.1,240.7 397.2,241.6 398.2,242.5 399.3,243.4 400.4,244.4 401.4,245.2 402.5,246.1 403.6,247.0 404.7,247.8 405.7,248.7 406.8,249.4 407.9,250.2 408.9,250.9 410.0,251.6 411.1,252.2 412.1,252.8 413.2,253.4 414.3,253.9 415.3,254.3 416.4,254.7 417.5,255.0 418.6,255.3 419.6,255.5 420.7,255.7 421.8,255.8 422.8,255.9 423.9,255.8 425.0,255.8 426.0,255.7 427.1,255.5 428.2,255.2 429.2,254.9 430.3,254.6 431.4,254.2 432.5,253.7 433.5,253.2 434.6,252.6 435.7,252.0 436.7,251.4 437.8,250.7 438.9,250.0 439.9,249.2 441.0,248.4 442.1,247.6 443.1,246.8 444.2,246.0 445.3,245.1 446.3,244.2 447.4,243.3 448.5,242.5 449.6,241.6 450.6,240.7 451.7,239.8 452.8,239.0 453.8,238.1 454.9,237.3 456.0,236.5 457.0,235.8 458.1,235.0 459.2,234.3 460.2,233.6 461.3,233.0 462.4,232.4 463.5,231.9 464.5,231.4 465.6,231.0 466.7,230.6 467.7,230.2 468.8,230.0 469.9,229.7 470.9,229.6 472.0,229.5 473.1,229.4 474.1,229.4 475.2,229.5 476.3,229.6 477.4,229.8 478.4,230.1 479.5,230.4 480.6,230.8 481.6,231.2 482.7,231.6 483.8,232.2 484.8,232.7 485.9,233.4 487.0,234.0 488.0,234.7 489.1,235.5 490.2,236.2 491.2,237.0 492.3,237.9 493.4,238.7 494.5,239.6 495.5,240.5 496.6,241.4 497.7,242.3 498.7,243.3 499.8,244.2 500.9,245.1 501.9,246.1 503.0,247.0 504.1,247.9 505.1,248.7 506.2,249.6 507.3,250.4 508.4,251.2 509.4,252.0 510.5,252.8 511.6,253.5 512.6,254.1 513.7,254.7 514.8,255.3 515.8,255.8 516.9,256.3 518.0,256.7 519.0,257.1 520.1,257.4 521.2,257.7 522.3,257.9 523.3,258.0 524.4,258.1 525.5,258.1 526.5,258.1 527.6,258.0 528.7,257.8 529.7,257.6 530.8,257.3 531.9,257.0 532.9,256.6 534.0,256.2 535.1,255.7 536.2,255.2 537.2,254.6 538.3,254.0 539.4,253.4 540.4,252.7 541.5,252.0 542.6,251.2 543.6,250.4 544.7,249.6 545.8,248.8 546.8,248.0 547.9,247.1 549.0,246.3 550.0,245.4 551.1,244.5 552.2,243.7 553.3,242.8 554.3,242.0 555.4,241.2 556.5,240.4 557.5,239.6 558.6,238.8 559.7,238.1 560.7,237.4 561.8,236.8 562.9,236.1 563.9,235.6 565.0,235.0 566.1,234.5 567.2,234.1 568.2,233.7 569.3,233.4 570.4,233.1 571.4,232.9 572.5,232.8 573.6,232.7 574.6,232.6 575.7,232.6 576.8,232.7 577.8,232.8 578.9,233.0 580.0,233.3 581.1,233.6 582.1,234.0 583.2,234.4 584.3,234.9 585.3,235.4 586.4,236.0 587.5,236.6 588.5,237.3 589.6,238.0 590.7,238.7 591.7,239.5 592.8,240.3 593.9,241.1 594.9,242.0 596.0,242.9 597.1,243.8 598.2,244.7 599.2,245.7 600.3,246.6 601.4,247.5 602.4,248.5 603.5,249.4 604.6,250.3 605.6,251.2 606.7,252.1 607.8,253.0 608.8,253.9 609.9,254.7 611.0,255.5 612.1,256.2 613.1,257.0 614.2,257.6 615.3,258.3 616.3,258.9 617.4,259.4 618.5,259.9 619.5,260.4 620.6,260.7 621.7,261.1 622.7,261.3 623.8,261.6 624.9,261.7 626.0,261.8 627.0,261.9 628.1,261.9 629.2,261.8 630.2,261.6 631.3,261.4 632.4,261.2 633.4,260.9 634.5,260.5 635.6,260.1 636.6,259.7 637.7,259.2 638.8,258.6 639.8,258.0 640.9,257.4 642.0,256.7 643.1,256.0 644.1,255.2 645.2,254.5 646.3,253.7 647.3,252.9 648.4,252.0 649.5,251.2 650.5,250.3 651.6,249.5 652.7,248.6 653.7,247.8 654.8,246.9 655.9,246.1 657.0,245.3 658.0,244.5 659.1,243.7 660.2,242.9 661.2,242.2 662.3,241.5 663.4,240.8 664.4,240.2 665.5,239.6 666.6,239.1 667.6,238.6 668.7,238.2 669.8,237.8 670.9,237.4 671.9,237.1 673.0,236.9 674.1,236.8 675.1,236.6 676.2,236.6 677.3,236.6 678.3,236.7 679.4,236.8 680.5,237.0 681.5,237.2 682.6,237.5 683.7,237.9 684.8,238.3 685.8,238.7 686.9,239.3 688.0,239.8 689.0,240.4 690.1,241.1 691.2,241.8 692.2,242.5 693.3,243.3 694.4,244.1 695.4,245.0 696.5,245.8 697.6,246.7 698.6,247.6 699.7,248.5 700.8,249.5 701.9,250.4 702.9,251.4 704.0,252.3 705.1,253.2 706.1,254.2 707.2,255.1 708.3,256.0 709.3,256.9 710.4,257.7 711.5,258.6 712.5,259.4 713.6,260.2 714.7,260.9 715.8,261.6 716.8,262.2 717.9,262.8 719.0,263.4 720.0,263.9 721.1,264.4 722.2,264.8 723.2,265.1 724.3,265.4 725.4,265.6 726.4,265.8 727.5,265.9 728.6,266.0 729.7,266.0 730.7,265.9 731.8,265.8 732.9,265.6 733.9,265.4 735.0,265.1 736.1,264.8 737.1,264.4 738.2,263.9 739.3,263.4 740.3,262.9 741.4,262.3 742.5,261.7 743.5,261.0 744.6,260.3 745.7,259.6 746.8,258.8 747.8,258.0 748.9,257.2 750.0,256.4 751.0,255.6 752.1,254.7 753.2,253.9 754.2,253.0 755.3,252.2 756.4,251.3 757.4,250.5 758.5,249.7 759.6,248.8 760.7,248.1 761.7,247.3 762.8,246.6 763.9,245.9 764.9,245.2 766.0,244.6"/>
<line x1="606" y1="42" x2="628" y2="42" stroke="#0f62fe" stroke-width="2.2"/>
<text x="634" y="46" font-family="Arial" font-size="12">wind_x_mps</text>
<polyline fill="none" stroke="#24a148" stroke-width="2.2" points="54.0,69.4 55.1,67.0 56.1,64.8 57.2,62.7 58.3,60.9 59.3,59.2 60.4,57.8 61.5,56.6 62.6,55.6 63.6,54.9 64.7,54.3 65.8,54.1 66.8,54.0 67.9,54.2 69.0,54.6 70.0,55.3 71.1,56.2 72.2,57.3 73.2,58.7 74.3,60.2 75.4,62.0 76.5,64.0 77.5,66.2 78.6,68.5 79.7,71.1 80.7,73.7 81.8,76.6 82.9,79.6 83.9,82.7 85.0,85.9 86.1,89.2 87.1,92.6 88.2,96.1 89.3,99.7 90.3,103.2 91.4,106.8 92.5,110.4 93.6,114.0 94.6,117.6 95.7,121.1 96.8,124.6 97.8,128.0 98.9,131.3 100.0,134.5 101.0,137.6 102.1,140.6 103.2,143.5 104.2,146.2 105.3,148.7 106.4,151.0 107.5,153.2 108.5,155.2 109.6,157.0 110.7,158.5 111.7,159.9 112.8,161.0 113.9,161.9 114.9,162.6 116.0,163.0 117.1,163.2 118.1,163.1 119.2,162.8 120.3,162.3 121.4,161.6 122.4,160.6 123.5,159.4 124.6,157.9 125.6,156.3 126.7,154.4 127.8,152.4 128.8,150.1 129.9,147.7 131.0,145.1 132.0,142.4 133.1,139.5 134.2,136.4 135.2,133.3 136.3,130.0 137.4,126.7 138.5,123.2 139.5,119.7 140.6,116.2 141.7,112.6 142.7,109.0 143.8,105.4 144.9,101.8 145.9,98.3 147.0,94.7 148.1,91.3 149.1,87.9 150.2,84.6 151.3,81.4 152.4,78.4 153.4,75.5 154.5,72.7 155.6,70.0 156.6,67.6 157.7,65.3 158.8,63.2 159.8,61.3 160.9,59.6 162.0,58.1 163.0,56.9 164.1,55.8 165.2,55.0 166.3,54.4 167.3,54.1 168.4,54.0 169.5,54.1 170.5,54.5 171.6,55.1 172.7,56.0 173.7,57.0 174.8,58.3 175.9,59.8 176.9,61.6 178.0,63.5 179.1,65.6 180.2,67.9 181.2,70.4 182.3,73.1 183.4,75.9 184.4,78.9 185.5,81.9 186.6,85.1 187.6,88.4 188.7,91.8 189.8,95.3 190.8,98.8 191.9,102.4 193.0,106.0 194.0,109.6 195.1,113.2 196.2,116.7 197.3,120.3 198.3,123.8 199.4,127.2 200.5,130.5 201.5,133.8 202.6,136.9 203.7,139.9 204.7,142.8 205.8,145.5 206.9,148.1 207.9,150.5 209.0,152.7 210.1,154.7 211.2,156.6 212.2,158.2 213.3,159.6 214.4,160.7 215.4,161.7 216.5,162.4 217.6,162.9 218.6,163.1 219.7,163.2 220.8,162.9 221.8,162.5 222.9,161.8 224.0,160.8 225.1,159.7 226.1,158.3 227.2,156.7 228.3,154.9 229.3,152.9 230.4,150.7 231.5,148.3 232.5,145.8 233.6,143.3 234.7,141.0 235.7,138.8 236.8,136.8 237.9,135.0 238.9,133.4 240.0,131.9 241.1,130.5 242.2,129.4 243.2,128.4 244.3,127.5 245.4,126.8 246.4,126.2 247.5,125.8 248.6,125.4 249.6,125.2 250.7,125.0 251.8,124.9 252.8,124.8 253.9,124.8 255.0,124.8 256.1,124.8 257.1,124.8 258.2,124.8 259.3,124.8 260.3,124.7 261.4,124.6 262.5,124.5 263.5,124.3 264.6,124.0 265.7,123.7 266.7,123.3 267.8,122.8 268.9,122.2 270.0,121.6 271.0,121.0 272.1,120.2 273.2,119.5 274.2,118.7 275.3,117.8 276.4,117.0 277.4,116.1 278.5,115.3 279.6,114.5 280.6,113.8 281.7,113.1 282.8,112.4 283.8,111.9 284.9,111.5 286.0,111.2 287.1,111.0 288.1,111.0 289.2,111.2 290.3,111.6 291.3,112.1 292.4,112.9 293.5,113.9 294.5,115.1 295.6,116.5 296.7,118.2 297.7,120.1 298.8,122.2 299.9,124.6 301.0,127.2 302.0,130.0 303.1,133.0 304.2,136.2 305.2,139.2 306.3,142.1 307.4,144.9 308.4,147.5 309.5,149.9 310.6,152.2 311.6,154.3 312.7,156.1 313.8,157.8 314.9,159.3 315.9,160.5 317.0,161.5 318.1,162.3 319.1,162.8 320.2,163.1 321.3,163.2 322.3,163.0 323.4,162.6 324.5,162.0 325.5,161.1 326.6,160.0 327.7,158.6 328.8,157.1 329.8,155.3 330.9,153.4 332.0,151.2 333.0,148.9 334.1,146.4 335.2,143.7 336.2,140.9 337.3,137.9 338.4,134.8 339.4,131.6 340.5,128.3 341.6,124.9 342.6,121.4 343.7,117.9 344.8,114.3 345.9,110.7 346.9,107.1 348.0,103.5 349.1,99.9 350.1,96.4 351.2,92.9 352.3,89.5 353.3,86.2 354.4,82.9 355.5,79.8 356.5,76.8 357.6,74.0 358.7,71.3 359.8,68.7 360.8,66.3 361.9,64.2 363.0,62.2 364.0,60.4 365.1,58.8 366.2,57.4 367.2,56.3 368.3,55.4 369.4,54.7 370.4,54.2 371.5,54.0 372.6,54.0 373.7,54.3 374.7,54.8 375.8,55.5 376.9,56.5 377.9,57.7 379.0,59.1 380.1,60.7 381.1,62.6 382.2,64.6 383.3,66.8 384.3,69.2 385.4,71.8 386.5,74.5 387.5,77.4 388.6,80.5 389.7,83.6 390.8,86.9 391.8,90.2 392.9,93.6 394.0,97.1 395.0,100.7 396.1,104.2 397.2,107.8 398.2,111.4 399.3,115.0 400.4,118.6 401.4,122.1 402.5,125.6 403.6,128.9 404.7,132.2 405.7,135.4 406.8,138.5 407.9,141.5 408.9,144.3 410.0,146.9 411.1,149.4 412.1,151.7 413.2,153.8 414.3,155.7 415.3,157.4 416.4,158.9 417.5,160.2 418.6,161.3 419.6,162.1 420.7,162.7 421.8,163.1 422.8,163.2 423.9,163.1 425.0,162.7 426.0,162.1 427.1,161.3 428.2,160.3 429.2,159.0 430.3,157.5 431.4,155.8 432.5,153.9 433.5,151.8 434.6,149.5 435.7,147.0 436.7,144.3 437.8,141.6 438.9,138.6 439.9,135.5 441.0,132.4 442.1,129.1 443.1,125.7 444.2,122.2 445.3,118.7 446.3,115.2 447.4,111.6 448.5,108.0 449.6,104.4 450.6,100.8 451.7,97.2 452.8,93.7 453.8,90.3 454.9,87.0 456.0,83.7 457.0,80.6 458.1,77.5 459.2,74.6 460.2,71.9 461.3,69.3 462.4,66.9 463.5,64.7 464.5,62.6 465.6,60.8 466.7,59.1 467.7,57.7 468.8,56.5 469.9,55.6 470.9,54.8 472.0,54.3 473.1,54.0 474.1,54.0 475.2,54.2 476.3,54.7 477.4,55.3 478.4,56.2 479.5,57.4 480.6,58.7 481.6,60.3 482.7,62.1 483.8,64.1 484.8,66.3 485.9,68.6 487.0,71.2 488.0,73.9 489.1,76.7 490.2,79.7 491.2,82.8 492.3,86.1 493.4,89.4 494.5,92.8 495.5,96.3 496.6,99.8 497.7,103.4 498.7,107.0 499.8,110.6 500.9,114.2 501.9,117.7 503.0,121.3 504.1,124.7 505.1,128.1 506.2,131.5 507.3,134.7 508.4,137.8 509.4,140.8 510.5,143.6 511.6,146.3 512.6,148.8 513.7,151.2 514.8,153.3 515.8,155.3 516.9,157.0 518.0,158.6 519.0,159.9 520.1,161.0 521.2,161.9 522.3,162.6 523.3,163.0 524.4,163.2 525.5,163.1 526.5,162.8 527.6,162.3 528.7,161.5 529.7,160.5 530.8,159.3 531.9,157.9 532.9,156.2 534.0,154.3 535.1,152.3 536.2,150.0 537.2,147.6 538.3,145.0 539.4,142.2 540.4,139.3 541.5,136.3 542.6,133.1 543.6,129.9 544.7,126.5 545.8,123.1 546.8,119.6 547.9,116.0 549.0,112.4 550.0,108.8 551.1,105.2 552.2,101.6 553.3,98.1 554.3,94.6 555.4,91.1 556.5,87.8 557.5,84.5 558.6,81.3 559.7,78.2 560.7,75.3 561.8,72.5 562.9,69.9 563.9,67.5 565.0,65.2 566.1,63.1 567.2,61.2 568.2,59.5 569.3,58.0 570.4,56.8 571.4,55.8 572.5,55.0 573.6,54.4 574.6,54.1 575.7,54.0 576.8,54.1 577.8,54.5 578.9,55.2 580.0,56.0 581.1,57.1 582.1,58.4 583.2,59.9 584.3,61.7 585.3,63.6 586.4,65.7 587.5,68.1 588.5,70.6 589.6,73.2 590.7,76.0 591.7,79.0 592.8,82.1 593.9,85.3 594.9,88.6 596.0,92.0 597.1,95.5 598.2,99.0 599.2,102.5 600.3,106.1 601.4,109.7 602.4,113.3 603.5,116.9 604.6,120.4 605.6,123.9 606.7,127.3 607.8,130.7 608.8,133.9 609.9,137.1 611.0,140.1 612.1,142.9 613.1,145.7 614.2,148.2 615.3,150.6 616.3,152.8 617.4,154.8 618.5,156.6 619.5,158.2 620.6,159.6 621.7,160.8 622.7,161.7 623.8,162.4 624.9,162.9 626.0,163.2 627.0,163.1 628.1,162.9 629.2,162.4 630.2,161.7 631.3,160.8 632.4,159.6 633.4,158.2 634.5,156.6 635.6,154.8 636.6,152.8 637.7,150.6 638.8,148.2 639.8,145.6 640.9,142.9 642.0,140.0 643.1,137.0 644.1,133.9 645.2,130.6 646.3,127.3 647.3,123.9 648.4,120.4 649.5,116.8 650.5,113.3 651.6,109.7 652.7,106.1 653.7,102.5 654.8,98.9 655.9,95.4 657.0,91.9 658.0,88.5 659.1,85.2 660.2,82.0 661.2,79.0 662.3,76.0 663.4,73.2 664.4,70.5 665.5,68.0 666.6,65.7 667.6,63.6 668.7,61.6 669.8,59.9 670.9,58.4 671.9,57.1 673.0,56.0 674.1,55.1 675.1,54.5 676.2,54.1 677.3,54.0 678.3,54.1 679.4,54.4 680.5,55.0 681.5,55.8 682.6,56.8 683.7,58.1 684.8,59.5 685.8,61.2 686.9,63.1 688.0,65.2 689.0,67.5 690.1,69.9 691.2,72.6 692.2,75.4 693.3,78.3 694.4,81.3 695.4,84.5 696.5,87.8 697.6,91.2 698.6,94.6 699.7,98.1 700.8,101.7 701.9,105.3 702.9,108.9 704.0,112.5 705.1,116.1 706.1,119.6 707.2,123.1 708.3,126.5 709.3,129.9 710.4,133.2 711.5,136.3 712.5,139.4 713.6,142.3 714.7,145.0 715.8,147.6 716.8,150.1 717.9,152.3 719.0,154.4 720.0,156.2 721.1,157.9 722.2,159.3 723.2,160.5 724.3,161.5 725.4,162.3 726.4,162.8 727.5,163.1 728.6,163.2 729.7,163.0 730.7,162.6 731.8,161.9 732.9,161.0 733.9,159.9 735.0,158.6 736.1,157.0 737.1,155.3 738.2,153.3 739.3,151.1 740.3,148.8 741.4,146.3 742.5,143.6 743.5,140.7 744.6,137.7 745.7,134.6 746.8,131.4 747.8,128.1 748.9,124.7 750.0,121.2 751.0,117.7 752.1,114.1 753.2,110.5 754.2,106.9 755.3,103.3 756.4,99.8 757.4,96.2 758.5,92.8 759.6,89.3 760.7,86.0 761.7,82.8 762.8,79.7 763.9,76.7 764.9,73.8 766.0,71.1"/>
<line x1="606" y1="60" x2="628" y2="60" stroke="#24a148" stroke-width="2.2"/>
<text x="634" y="64" font-family="Arial" font-size="12">wind_y_mps</text>
<polyline fill="none" stroke="#da1e28" stroke-width="2.2" points="54.0,199.2 55.1,198.9 56.1,198.6 57.2,198.4 58.3,198.2 59.3,198.0 60.4,197.8 61.5,197.6 62.6,197.5 63.6,197.4 64.7,197.3 65.8,197.3 66.8,197.3 67.9,197.3 69.0,197.4 70.0,197.5 71.1,197.6 72.2,197.7 73.2,197.9 74.3,198.1 75.4,198.3 76.5,198.5 77.5,198.8 78.6,199.1 79.7,199.4 80.7,199.8 81.8,200.1 82.9,200.5 83.9,200.9 85.0,201.3 86.1,201.7 87.1,202.1 88.2,202.6 89.3,203.0 90.3,203.5 91.4,203.9 92.5,204.4 93.6,204.8 94.6,205.2 95.7,205.7 96.8,206.1 97.8,206.5 98.9,207.0 100.0,207.4 101.0,207.8 102.1,208.1 103.2,208.5 104.2,208.8 105.3,209.1 106.4,209.4 107.5,209.7 108.5,209.9 109.6,210.2 110.7,210.4 111.7,210.5 112.8,210.7 113.9,210.8 114.9,210.9 116.0,210.9 117.1,210.9 118.1,210.9 119.2,210.9 120.3,210.8 121.4,210.7 122.4,210.6 123.5,210.5 124.6,210.3 125.6,210.1 126.7,209.9 127.8,209.6 128.8,209.3 129.9,209.0 131.0,208.7 132.0,208.3 133.1,208.0 134.2,207.6 135.2,207.2 136.3,206.8 137.4,206.4 138.5,206.0 139.5,205.5 140.6,205.1 141.7,204.6 142.7,204.2 143.8,203.7 144.9,203.3 145.9,202.8 147.0,202.4 148.1,202.0 149.1,201.5 150.2,201.1 151.3,200.7 152.4,200.3 153.4,200.0 154.5,199.6 155.6,199.3 156.6,199.0 157.7,198.7 158.8,198.4 159.8,198.2 160.9,198.0 162.0,197.8 163.0,197.7 164.1,197.5 165.2,197.4 166.3,197.4 167.3,197.3 168.4,197.3 169.5,197.3 170.5,197.4 171.6,197.4 172.7,197.5 173.7,197.7 174.8,197.8 175.9,198.0 176.9,198.2 178.0,198.5 179.1,198.8 180.2,199.0 181.2,199.4 182.3,199.7 183.4,200.0 184.4,200.4 185.5,200.8 186.6,201.2 187.6,201.6 188.7,202.0 189.8,202.5 190.8,202.9 191.9,203.3 193.0,203.8 194.0,204.2 195.1,204.7 196.2,205.1 197.3,205.6 198.3,206.0 199.4,206.4 200.5,206.9 201.5,207.3 202.6,207.7 203.7,208.0 204.7,208.4 205.8,208.7 206.9,209.1 207.9,209.4 209.0,209.6 210.1,209.9 211.2,210.1 212.2,210.3 213.3,210.5 214.4,210.6 215.4,210.8 216.5,210.9 217.6,210.9 218.6,210.9 219.7,210.9 220.8,210.9 221.8,210.9 222.9,210.8 224.0,210.7 225.1,210.5 226.1,210.3 227.2,210.1 228.3,209.9 229.3,209.7 230.4,209.4 231.5,209.1 232.5,208.8 233.6,208.4 234.7,207.9 235.7,207.4 236.8,206.7 237.9,206.1 238.9,205.3 240.0,204.5 241.1,203.6 242.2,202.7 243.2,201.7 244.3,200.7 245.4,199.7 246.4,198.7 247.5,197.6 248.6,196.5 249.6,195.5 250.7,194.4 251.8,193.3 252.8,192.3 253.9,191.3 255.0,190.3 256.1,189.4 257.1,188.5 258.2,187.7 259.3,187.0 260.3,186.3 261.4,185.7 262.5,185.1 263.5,184.7 264.6,184.3 265.7,184.0 266.7,183.8 267.8,183.7 268.9,183.7 270.0,183.8 271.0,183.9 272.1,184.2 273.2,184.5 274.2,184.9 275.3,185.4 276.4,186.0 277.4,186.6 278.5,187.4 279.6,188.1 280.6,189.0 281.7,189.8 282.8,190.8 283.8,191.7 284.9,192.7 286.0,193.7 287.1,194.7 288.1,195.8 289.2,196.8 290.3,197.8 291.3,198.8 292.4,199.8 293.5,200.8 294.5,201.7 295.6,202.6 296.7,203.4 297.7,204.2 298.8,204.9 299.9,205.6 301.0,206.2 302.0,206.7 303.1,207.2 304.2,207.6 305.2,208.0 306.3,208.3 307.4,208.7 308.4,209.0 309.5,209.3 310.6,209.6 311.6,209.8 312.7,210.1 313.8,210.3 314.9,210.5 315.9,210.6 317.0,210.7 318.1,210.8 319.1,210.9 320.2,210.9 321.3,210.9 322.3,210.9 323.4,210.9 324.5,210.8 325.5,210.7 326.6,210.5 327.7,210.4 328.8,210.2 329.8,210.0 330.9,209.7 332.0,209.5 333.0,209.2 334.1,208.8 335.2,208.5 336.2,208.2 337.3,207.8 338.4,207.4 339.4,207.0 340.5,206.6 341.6,206.2 342.6,205.7 343.7,205.3 344.8,204.8 345.9,204.4 346.9,203.9 348.0,203.5 349.1,203.0 350.1,202.6 351.2,202.2 352.3,201.7 353.3,201.3 354.4,200.9 355.5,200.5 356.5,200.2 357.6,199.8 358.7,199.5 359.8,199.1 360.8,198.8 361.9,198.6 363.0,198.3 364.0,198.1 365.1,197.9 366.2,197.7 367.2,197.6 368.3,197.5 369.4,197.4 370.4,197.3 371.5,197.3 372.6,197.3 373.7,197.3 374.7,197.4 375.8,197.5 376.9,197.6 377.9,197.8 379.0,197.9 380.1,198.1 381.1,198.4 382.2,198.6 383.3,198.9 384.3,199.2 385.4,199.5 386.5,199.9 387.5,200.2 388.6,200.6 389.7,201.0 390.8,201.4 391.8,201.8 392.9,202.3 394.0,202.7 395.0,203.1 396.1,203.6 397.2,204.0 398.2,204.5 399.3,204.9 400.4,205.4 401.4,205.8 402.5,206.2 403.6,206.7 404.7,207.1 405.7,207.5 406.8,207.9 407.9,208.2 408.9,208.6 410.0,208.9 411.1,209.2 412.1,209.5 413.2,209.8 414.3,210.0 415.3,210.2 416.4,210.4 417.5,210.6 418.6,210.7 419.6,210.8 420.7,210.9 421.8,210.9 422.8,210.9 423.9,210.9 425.0,210.9 426.0,210.8 427.1,210.7 428.2,210.6 429.2,210.4 430.3,210.2 431.4,210.0 432.5,209.8 433.5,209.5 434.6,209.2 435.7,208.9 436.7,208.6 437.8,208.2 438.9,207.9 439.9,207.5 441.0,207.1 442.1,206.7 443.1,206.3 444.2,205.8 445.3,205.4 446.3,204.9 447.4,204.5 448.5,204.0 449.6,203.6 450.6,203.1 451.7,202.7 452.8,202.3 453.8,201.8 454.9,201.4 456.0,201.0 457.0,200.6 458.1,200.2 459.2,199.9 460.2,199.5 461.3,199.2 462.4,198.9 463.5,198.6 464.5,198.4 465.6,198.1 466.7,197.9 467.7,197.8 468.8,197.6 469.9,197.5 470.9,197.4 472.0,197.3 473.1,197.3 474.1,197.3 475.2,197.3 476.3,197.4 477.4,197.5 478.4,197.6 479.5,197.7 480.6,197.9 481.6,198.1 482.7,198.3 483.8,198.6 484.8,198.8 485.9,199.1 487.0,199.4 488.0,199.8 489.1,200.1 490.2,200.5 491.2,200.9 492.3,201.3 493.4,201.7 494.5,202.1 495.5,202.6 496.6,203.0 497.7,203.5 498.7,203.9 499.8,204.4 500.9,204.8 501.9,205.3 503.0,205.7 504.1,206.1 505.1,206.6 506.2,207.0 507.3,207.4 508.4,207.8 509.4,208.1 510.5,208.5 511.6,208.8 512.6,209.1 513.7,209.4 514.8,209.7 515.8,210.0 516.9,210.2 518.0,210.4 519.0,210.5 520.1,210.7 521.2,210.8 522.3,210.9 523.3,210.9 524.4,210.9 525.5,210.9 526.5,210.9 527.6,210.8 528.7,210.7 529.7,210.6 530.8,210.5 531.9,210.3 532.9,210.1 534.0,209.8 535.1,209.6 536.2,209.3 537.2,209.0 538.3,208.7 539.4,208.3 540.4,208.0 541.5,207.6 542.6,207.2 543.6,206.8 544.7,206.4 545.8,205.9 546.8,205.5 547.9,205.0 549.0,204.6 550.0,204.2 551.1,203.7 552.2,203.3 553.3,202.8 554.3,202.4 555.4,201.9 556.5,201.5 557.5,201.1 558.6,200.7 559.7,200.3 560.7,200.0 561.8,199.6 562.9,199.3 563.9,199.0 565.0,198.7 566.1,198.4 567.2,198.2 568.2,198.0 569.3,197.8 570.4,197.6 571.4,197.5 572.5,197.4 573.6,197.4 574.6,197.3 575.7,197.3 576.8,197.3 577.8,197.4 578.9,197.4 580.0,197.5 581.1,197.7 582.1,197.8 583.2,198.0 584.3,198.3 585.3,198.5 586.4,198.8 587.5,199.1 588.5,199.4 589.6,199.7 590.7,200.1 591.7,200.4 592.8,200.8 593.9,201.2 594.9,201.6 596.0,202.0 597.1,202.5 598.2,202.9 599.2,203.4 600.3,203.8 601.4,204.3 602.4,204.7 603.5,205.2 604.6,205.6 605.6,206.0 606.7,206.5 607.8,206.9 608.8,207.3 609.9,207.7 611.0,208.1 612.1,208.4 613.1,208.8 614.2,209.1 615.3,209.4 616.3,209.7 617.4,209.9 618.5,210.1 619.5,210.3 620.6,210.5 621.7,210.6 622.7,210.8 623.8,210.9 624.9,210.9 626.0,210.9 627.0,210.9 628.1,210.9 629.2,210.9 630.2,210.8 631.3,210.6 632.4,210.5 633.4,210.3 634.5,210.1 635.6,209.9 636.6,209.6 637.7,209.4 638.8,209.1 639.8,208.8 640.9,208.4 642.0,208.1 643.1,207.7 644.1,207.3 645.2,206.9 646.3,206.5 647.3,206.0 648.4,205.6 649.5,205.2 650.5,204.7 651.6,204.3 652.7,203.8 653.7,203.4 654.8,202.9 655.9,202.5 657.0,202.0 658.0,201.6 659.1,201.2 660.2,200.8 661.2,200.4 662.3,200.0 663.4,199.7 664.4,199.4 665.5,199.1 666.6,198.8 667.6,198.5 668.7,198.3 669.8,198.0 670.9,197.8 671.9,197.7 673.0,197.5 674.1,197.4 675.1,197.4 676.2,197.3 677.3,197.3 678.3,197.3 679.4,197.4 680.5,197.4 681.5,197.5 682.6,197.7 683.7,197.8 684.8,198.0 685.8,198.2 686.9,198.4 688.0,198.7 689.0,199.0 690.1,199.3 691.2,199.6 692.2,200.0 693.3,200.3 694.4,200.7 695.4,201.1 696.5,201.5 697.6,201.9 698.6,202.4 699.7,202.8 700.8,203.3 701.9,203.7 702.9,204.2 704.0,204.6 705.1,205.1 706.1,205.5 707.2,205.9 708.3,206.4 709.3,206.8 710.4,207.2 711.5,207.6 712.5,208.0 713.6,208.3 714.7,208.7 715.8,209.0 716.8,209.3 717.9,209.6 719.0,209.8 720.0,210.1 721.1,210.3 722.2,210.5 723.2,210.6 724.3,210.7 725.4,210.8 726.4,210.9 727.5,210.9 728.6,210.9 729.7,210.9 730.7,210.9 731.8,210.8 732.9,210.7 733.9,210.5 735.0,210.4 736.1,210.2 737.1,210.0 738.2,209.7 739.3,209.4 740.3,209.1 741.4,208.8 742.5,208.5 743.5,208.1 744.6,207.8 745.7,207.4 746.8,207.0 747.8,206.6 748.9,206.1 750.0,205.7 751.0,205.3 752.1,204.8 753.2,204.4 754.2,203.9 755.3,203.5 756.4,203.0 757.4,202.6 758.5,202.1 759.6,201.7 760.7,201.3 761.7,200.9 762.8,200.5 763.9,200.1 764.9,199.8 766.0,199.4"/>
<line x1="606" y1="78" x2="628" y2="78" stroke="#da1e28" stroke-width="2.2"/>
<text x="634" y="82" font-family="Arial" font-size="12">wind_z_mps</text>
</svg>