<svg xmlns="http://www.w3.org/2000/svg" width="820" height="320" viewBox="0 0 820 320">
<rect width="100%" height="100%" fill="#ffffff"/>
<text x="54" y="28" font-family="Arial" font-size="18" font-weight="700">GPS Altitude vs Truth</text>
<line x1="54" y1="266" x2="766" y2="266" stroke="#1f2933"/>
<line x1="54" y1="54" x2="54" y2="266" stroke="#1f2933"/>
<text x="54" y="306" font-family="Arial" font-size="12">time (s)</text>
<text x="596" y="306" font-family="Arial" font-size="12">altitude (m)</text>
<text x="58" y="68" font-family="Arial" font-size="11">1.02e+03</text>
<text x="58" y="260" font-family="Arial" font-size="11">234</text>
<polyline fill="none" stroke="#0f62fe" stroke-width="2.2" points="54.0,60.0 55.1,59.8 56.1,59.7 57.2,59.6 58.3,59.5 59.3,59.4 60.4,59.3 61.5,59.2 62.6,59.1 63.6,58.9 64.7,58.8 65.8,58.7 66.8,58.6 67.9,58.5 69.0,58.4 70.0,58.3 71.1,58.2 72.2,58.1 73.2,58.0 74.3,57.9 75.4,57.8 76.5,57.7 77.5,57.6 78.6,57.5 79.7,57.4 80.7,57.3 81.8,57.2 82.9,57.1 83.9,57.0 85.0,56.9 86.1,56.8 87.1,56.7 88.2,56.6 89.3,56.5 90.3,56.4 91.4,56.3 92.5,56.2 93.6,56.1 94.6,56.0 95.7,55.9 96.8,55.8 97.8,55.8 98.9,55.7 100.0,55.6 101.0,55.5 102.1,55.4 103.2,55.3 104.2,55.2 105.3,55.1 106.4,55.1 107.5,55.0 108.5,54.9 109.6,54.8 110.7,54.8 111.7,54.7 112.8,54.6 113.9,54.6 114.9,54.5 116.0,54.5 117.1,54.4 118.1,54.4 119.2,54.4 120.3,54.4 121.4,54.4 122.4,54.4 123.5,54.4 124.6,54.4 125.6,54.4 126.7,54.5 127.8,54.5 128.8,54.5 129.9,54.6 131.0,54.6 132.0,54.6 133.1,54.6 134.2,54.6 135.2,54.6 136.3,54.7 137.4,54.7 138.5,54.7 139.5,54.8 140.6,54.8 141.7,54.9 142.7,54.9 143.8,55.0 144.9,55.1 145.9,55.1 147.0,55.2 148.1,55.2 149.1,55.3 150.2,55.3 151.3,55.4 152.4,55.5 153.4,55.5 154.5,55.6 155.6,55.7 156.6,55.7 157.7,55.8 158.8,55.9 159.8,56.0 160.9,56.1 162.0,56.2 163.0,56.3 164.1,56.4 165.2,56.5 166.3,56.6 167.3,56.7 168.4,56.8 169.5,56.9 170.5,56.9 171.6,57.1 172.7,57.2 173.7,57.3 174.8,57.4 175.9,57.5 176.9,57.7 178.0,57.8 179.1,57.9 180.2,58.1 181.2,58.2 182.3,58.3 183.4,58.4 184.4,58.5 185.5,58.6 186.6,58.8 187.6,58.9 188.7,59.0 189.8,59.2 190.8,59.4 191.9,59.5 193.0,59.7 194.0,59.8 195.1,59.9 196.2,60.1 197.3,60.2 198.3,60.4 199.4,60.5 200.5,60.6 201.5,60.8 202.6,60.9 203.7,61.0 204.7,61.2 205.8,61.3 206.9,61.5 207.9,61.7 209.0,61.8 210.1,62.0 211.2,62.1 212.2,62.3 213.3,62.4 214.4,62.6 215.4,62.7 216.5,62.9 217.6,63.0 218.6,63.2 219.7,63.3 220.8,63.5 221.8,63.7 222.9,63.8 224.0,64.0 225.1,64.1 226.1,64.3 227.2,64.5 228.3,64.7 229.3,64.9 230.4,65.1 231.5,65.2 232.5,65.4 233.6,65.6 234.7,65.8 235.7,66.0 236.8,66.2 237.9,66.4 238.9,66.6 240.0,66.8 241.1,67.0 242.2,67.2 243.2,67.4 244.3,67.6 245.4,67.8 246.4,68.1 247.5,68.3 248.6,68.6 249.6,68.8 250.7,69.1 251.8,69.3 252.8,69.6 253.9,69.9 255.0,70.1 256.1,70.4 257.1,70.7 258.2,70.9 259.3,71.2 260.3,71.5 261.4,71.7 262.5,72.0 263.5,72.3 264.6,72.5 265.7,72.8 266.7,73.1 267.8,73.4 268.9,73.7 270.0,74.0 271.0,74.3 272.1,74.6 273.2,74.9 274.2,75.2 275.3,75.6 276.4,75.9 277.4,76.2 278.5,76.5 279.6,76.8 280.6,77.1 281.7,77.4 282.8,77.7 283.8,78.0 284.9,78.3 286.0,78.6 287.1,78.9 288.1,79.2 289.2,79.6 290.3,79.9 291.3,80.2 292.4,80.5 293.5,80.8 294.5,81.1 295.6,81.5 296.7,81.8 297.7,82.1 298.8,82.5 299.9,82.8 301.0,83.1 302.0,83.4 303.1,83.8 304.2,84.1 305.2,84.4 306.3,84.7 307.4,85.0 308.4,85.3 309.5,85.6 310.6,85.9 311.6,86.2 312.7,86.5 313.8,86.8 314.9,87.1 315.9,87.4 317.0,87.7 318.1,88.0 319.1,88.3 320.2,88.5 321.3,88.8 322.3,89.1 323.4,89.4 324.5,89.7 325.5,90.0 326.6,90.3 327.7,90.6 328.8,90.9 329.8,91.2 330.9,91.5 332.0,91.8 333.0,92.1 334.1,92.4 335.2,92.7 336.2,92.9 337.3,93.2 338.4,93.5 339.4,93.8 340.5,94.0 341.6,94.3 342.6,94.5 343.7,94.8 344.8,95.0 345.9,95.3 346.9,95.5 348.0,95.8 349.1,96.0 350.1,96.3 351.2,96.5 352.3,96.8 353.3,97.0 354.4,97.2 355.5,97.5 356.5,97.7 357.6,98.0 358.7,98.2 359.8,98.5 360.8,98.7 361.9,99.0 363.0,99.2 364.0,99.5 365.1,99.7 366.2,100.0 367.2,100.2 368.3,100.4 369.4,100.7 370.4,100.9 371.5,101.2 372.6,101.4 373.7,101.7 374.7,101.9 375.8,102.2 376.9,102.4 377.9,102.6 379.0,102.9 380.1,103.1 381.1,103.3 382.2,103.6 383.3,103.8 384.3,104.0 385.4,104.2 386.5,104.4 387.5,104.7 388.6,104.9 389.7,105.1 390.8,105.3 391.8,105.5 392.9,105.8 394.0,106.0 395.0,106.2 396.1,106.4 397.2,106.7 398.2,106.9 399.3,107.2 400.4,107.4 401.4,107.6 402.5,107.9 403.6,108.1 404.7,108.3 405.7,108.5 406.8,108.8 407.9,109.0 408.9,109.2 410.0,109.4 411.1,109.6 412.1,109.8 413.2,110.1 414.3,110.3 415.3,110.5 416.4,110.7 417.5,110.9 418.6,111.2 419.6,111.4 420.7,111.6 421.8,111.9 422.8,112.1 423.9,112.4 425.0,112.6 426.0,112.8 427.1,113.1 428.2,113.3 429.2,113.5 430.3,113.8 431.4,114.0 432.5,114.2 433.5,114.5 434.6,114.7 435.7,114.9 436.7,115.1 437.8,115.3 438.9,115.5 439.9,115.8 441.0,116.0 442.1,116.2 443.1,116.4 444.2,116.6 445.3,116.8 446.3,117.0 447.4,117.2 448.5,117.5 449.6,117.7 450.6,117.9 451.7,118.1 452.8,118.4 453.8,118.6 454.9,118.9 456.0,119.1 457.0,119.4 458.1,119.6 459.2,119.9 460.2,120.1 461.3,120.4 462.4,120.6 463.5,120.9 464.5,121.1 465.6,121.4 466.7,121.6 467.7,121.9 468.8,122.2 469.9,122.4 470.9,122.7 472.0,123.0 473.1,123.2 474.1,123.5 475.2,123.8 476.3,124.1 477.4,124.4 478.4,124.7 479.5,125.0 480.6,125.3 481.6,125.6 482.7,125.9 483.8,126.2 484.8,126.6 485.9,126.9 487.0,127.3 488.0,127.6 489.1,128.0 490.2,128.3 491.2,128.7 492.3,129.1 493.4,129.4 494.5,129.8 495.5,130.2 496.6,130.6 497.7,130.9 498.7,131.3 499.8,131.7 500.9,132.1 501.9,132.5 503.0,132.9 504.1,133.2 505.1,133.6 506.2,134.0 507.3,134.4 508.4,134.8 509.4,135.2 510.5,135.6 511.6,136.1 512.6,136.5 513.7,136.9 514.8,137.4 515.8,137.8 516.9,138.3 518.0,138.7 519.0,139.2 520.1,139.7 521.2,140.1 522.3,140.6 523.3,141.1 524.4,141.5 525.5,142.0 526.5,142.5 527.6,143.0 528.7,143.4 529.7,143.9 530.8,144.4 531.9,144.9 532.9,145.4 534.0,145.8 535.1,146.3 536.2,146.8 537.2,147.3 538.3,147.8 539.4,148.3 540.4,148.8 541.5,149.2 542.6,149.7 543.6,150.2 544.7,150.7 545.8,151.2 546.8,151.7 547.9,152.2 549.0,152.7 550.0,153.2 551.1,153.7 552.2,154.2 553.3,154.7 554.3,155.2 555.4,155.7 556.5,156.2 557.5,156.7 558.6,157.2 559.7,157.8 560.7,158.3 561.8,158.8 562.9,159.3 563.9,159.8 565.0,160.3 566.1,160.8 567.2,161.4 568.2,161.9 569.3,162.4 570.4,162.9 571.4,163.4 572.5,163.9 573.6,164.5 574.6,165.0 575.7,165.5 576.8,166.0 577.8,166.6 578.9,167.1 580.0,167.6 581.1,168.1 582.1,168.7 583.2,169.2 584.3,169.7 585.3,170.2 586.4,170.8 587.5,171.3 588.5,171.8 589.6,172.4 590.7,172.9 591.7,173.4 592.8,173.9 593.9,174.5 594.9,175.0 596.0,175.5 597.1,176.1 598.2,176.6 599.2,177.1 600.3,177.7 601.4,178.2 602.4,178.7 603.5,179.3 604.6,179.8 605.6,180.3 606.7,180.9 607.8,181.4 608.8,181.9 609.9,182.5 611.0,183.0 612.1,183.5 613.1,184.1 614.2,184.6 615.3,185.2 616.3,185.7 617.4,186.2 618.5,186.8 619.5,187.3 620.6,187.9 621.7,188.4 622.7,189.0 623.8,189.5 624.9,190.1 626.0,190.6 627.0,191.2 628.1,191.7 629.2,192.3 630.2,192.8 631.3,193.4 632.4,193.9 633.4,194.5 634.5,195.0 635.6,195.6 636.6,196.1 637.7,196.7 638.8,197.3 639.8,197.8 640.9,198.4 642.0,198.9 643.1,199.5 644.1,200.0 645.2,200.6 646.3,201.2 647.3,201.7 648.4,202.3 649.5,202.8 650.5,203.4 651.6,204.0 652.7,204.5 653.7,205.1 654.8,205.7 655.9,206.2 657.0,206.8 658.0,207.4 659.1,207.9 660.2,208.5 661.2,209.1 662.3,209.6 663.4,210.2 664.4,210.8 665.5,211.3 666.6,211.9 667.6,212.5 668.7,213.0 669.8,213.6 670.9,214.2 671.9,214.7 673.0,215.3 674.1,215.9 675.1,216.4 676.2,217.0 677.3,217.6 678.3,218.1 679.4,218.7 680.5,219.3 681.5,219.9 682.6,220.4 683.7,221.0 684.8,221.6 685.8,222.2 686.9,222.7 688.0,223.3 689.0,223.9 690.1,224.4 691.2,225.0 692.2,225.6 693.3,226.2 694.4,226.7 695.4,227.3 696.5,227.9 697.6,228.4 698.6,229.0 699.7,229.6 700.8,230.2 701.9,230.7 702.9,231.3 704.0,231.9 705.1,232.5 706.1,233.1 707.2,233.6 708.3,234.2 709.3,234.8 710.4,235.4 711.5,236.0 712.5,236.6 713.6,237.1 714.7,237.7 715.8,238.3 716.8,238.9 717.9,239.5 719.0,240.0 720.0,240.6 721.1,241.2 722.2,241.8 723.2,242.4 724.3,243.0 725.4,243.6 726.4,244.1 727.5,244.7 728.6,245.3 729.7,245.9 730.7,246.5 731.8,247.1 732.9,247.7 733.9,248.3 735.0,248.8 736.1,249.4 737.1,250.0 738.2,250.6 739.3,251.2 740.3,251.8 741.4,252.4 742.5,253.0 743.5,253.6 744.6,254.2 745.7,254.7 746.8,255.3 747.8,255.9 748.9,256.5 750.0,257.1 751.0,257.7 752.1,258.3 753.2,258.9 754.2,259.5 755.3,260.1 756.4,260.7 757.4,261.3 758.5,261.8 759.6,262.4 760.7,263.0 761.7,263.6 762.8,264.2 763.9,264.8 764.9,265.4 766.0,266.0"/>
<line x1="606" y1="42" x2="628" y2="42" stroke="#0f62fe" stroke-width="2.2"/>
<text x="634" y="46" font-family="Arial" font-size="12">altitude_m</text>
<polyline fill="none" stroke="#24a148" stroke-width="2.2" points="54.0,59.9 55.1,59.9 56.1,59.9 57.2,59.9 58.3,59.9 59.3,59.9 60.4,59.9 61.5,59.3 62.6,59.3 63.6,59.3 64.7,59.3 65.8,59.3 66.8,59.3 67.9,59.3 69.0,57.7 70.0,57.7 71.1,57.7 72.2,57.7 73.2,57.7 74.3,57.7 75.4,57.7 76.5,57.1 77.5,57.1 78.6,57.1 79.7,57.1 80.7,57.1 81.8,57.1 82.9,57.1 83.9,56.9 85.0,56.9 86.1,56.9 87.1,56.9 88.2,56.9 89.3,56.9 90.3,56.9 91.4,55.9 92.5,55.9 93.6,55.9 94.6,55.9 95.7,55.9 96.8,55.9 97.8,55.9 98.9,55.5 100.0,55.5 101.0,55.5 102.1,55.5 103.2,55.5 104.2,55.5 105.3,55.5 106.4,55.8 107.5,55.8 108.5,55.8 109.6,55.8 110.7,55.8 111.7,55.8 112.8,55.8 113.9,54.0 114.9,54.0 116.0,54.0 117.1,54.0 118.1,54.0 119.2,54.0 120.3,54.0 121.4,54.8 122.4,54.8 123.5,54.8 124.6,54.8 125.6,54.8 126.7,54.8 127.8,54.8 128.8,54.9 129.9,54.9 131.0,54.9 132.0,54.9 133.1,54.9 134.2,54.9 135.2,54.9 136.3,54.4 137.4,54.4 138.5,54.4 139.5,54.4 140.6,54.4 141.7,54.4 142.7,54.4 143.8,55.1 144.9,55.1 145.9,55.1 147.0,55.1 148.1,55.1 149.1,55.1 150.2,55.1 151.3,55.0 152.4,55.0 153.4,55.0 154.5,55.0 155.6,55.0 156.6,55.0 157.7,55.0 158.8,56.0 159.8,56.0 160.9,56.0 162.0,56.0 163.0,56.0 164.1,56.0 165.2,56.0 166.3,56.3 167.3,56.3 168.4,56.3 169.5,56.3 170.5,56.3 171.6,56.3 172.7,56.3 173.7,57.6 174.8,57.6 175.9,57.6 176.9,57.6 178.0,57.6 179.1,57.6 180.2,57.6 181.2,58.3 182.3,58.3 183.4,58.3 184.4,58.3 185.5,58.3 186.6,58.3 187.6,58.3 188.7,58.5 189.8,58.5 190.8,58.5 191.9,58.5 193.0,58.5 194.0,58.5 195.1,58.5 196.2,60.4 197.3,60.4 198.3,60.4 199.4,60.4 200.5,60.4 201.5,60.4 202.6,60.4 203.7,60.3 204.7,60.3 205.8,60.3 206.9,60.3 207.9,60.3 209.0,60.3 210.1,60.3 211.2,61.5 212.2,61.5 213.3,61.5 214.4,61.5 215.4,61.5 216.5,61.5 217.6,61.5 218.6,63.0 219.7,63.0 220.8,63.0 221.8,63.0 222.9,63.0 224.0,63.0 225.1,63.0 226.1,63.9 227.2,63.9 228.3,63.9 229.3,63.9 230.4,63.9 231.5,63.9 232.5,63.9 233.6,65.0 234.7,65.0 235.7,65.0 236.8,65.0 237.9,65.0 238.9,65.0 240.0,65.0 241.1,66.4 242.2,66.4 243.2,66.4 244.3,66.4 245.4,66.4 246.4,66.4 247.5,66.4 248.6,68.3 249.6,68.3 250.7,68.3 251.8,68.3 252.8,68.3 253.9,68.3 255.0,68.3 256.1,70.7 257.1,70.7 258.2,70.7 259.3,70.7 260.3,70.7 261.4,70.7 262.5,70.7 263.5,72.9 264.6,72.9 265.7,72.9 266.7,72.9 267.8,72.9 268.9,72.9 270.0,72.9 271.0,73.7 272.1,73.7 273.2,73.7 274.2,73.7 275.3,73.7 276.4,73.7 277.4,73.7 278.5,76.7 279.6,76.7 280.6,76.7 281.7,76.7 282.8,76.7 283.8,76.7 284.9,76.7 286.0,77.2 287.1,77.2 288.1,77.2 289.2,77.2 290.3,77.2 291.3,77.2 292.4,77.2 293.5,81.0 294.5,81.0 295.6,81.0 296.7,81.0 297.7,81.0 298.8,81.0 299.9,81.0 301.0,83.3 302.0,83.3 303.1,83.3 304.2,83.3 305.2,83.3 306.3,83.3 307.4,83.3 308.4,85.1 309.5,85.1 310.6,85.1 311.6,85.1 312.7,85.1 313.8,85.1 314.9,85.1 315.9,87.3 317.0,87.3 318.1,87.3 319.1,87.3 320.2,87.3 321.3,87.3 322.3,87.3 323.4,89.9 324.5,89.9 325.5,89.9 326.6,89.9 327.7,89.9 328.8,89.9 329.8,89.9 330.9,92.1 332.0,92.1 333.0,92.1 334.1,92.1 335.2,92.1 336.2,92.1 337.3,92.1 338.4,93.6 339.4,93.6 340.5,93.6 341.6,93.6 342.6,93.6 343.7,93.6 344.8,93.6 345.9,95.1 346.9,95.1 348.0,95.1 349.1,95.1 350.1,95.1 351.2,95.1 352.3,95.1 353.3,97.5 354.4,97.5 355.5,97.5 356.5,97.5 357.6,97.5 358.7,97.5 359.8,97.5 360.8,99.5 361.9,99.5 363.0,99.5 364.0,99.5 365.1,99.5 366.2,99.5 367.2,99.5 368.3,100.1 369.4,100.1 370.4,100.1 371.5,100.1 372.6,100.1 373.7,100.1 374.7,100.1 375.8,102.4 376.9,102.4 377.9,102.4 379.0,102.4 380.1,102.4 381.1,102.4 382.2,102.4 383.3,104.6 384.3,104.6 385.4,104.6 386.5,104.6 387.5,104.6 388.6,104.6 389.7,104.6 390.8,104.7 391.8,104.7 392.9,104.7 394.0,104.7 395.0,104.7 396.1,104.7 397.2,104.7 398.2,107.8 399.3,107.8 400.4,107.8 401.4,107.8 402.5,107.8 403.6,107.8 404.7,107.8 405.7,108.9 406.8,108.9 407.9,108.9 408.9,108.9 410.0,108.9 411.1,108.9 412.1,108.9 413.2,109.9 414.3,109.9 415.3,109.9 416.4,109.9 417.5,109.9 418.6,109.9 419.6,109.9 420.7,112.1 421.8,112.1 422.8,112.1 423.9,112.1 425.0,112.1 426.0,112.1 427.1,112.1 428.2,112.6 429.2,112.6 430.3,112.6 431.4,112.6 432.5,112.6 433.5,112.6 434.6,112.6 435.7,115.1 436.7,115.1 437.8,115.1 438.9,115.1 439.9,115.1 441.0,115.1 442.1,115.1 443.1,116.3 444.2,116.3 445.3,116.3 446.3,116.3 447.4,116.3 448.5,116.3 449.6,116.3 450.6,117.5 451.7,117.5 452.8,117.5 453.8,117.5 454.9,117.5 456.0,117.5 457.0,117.5 458.1,119.6 459.2,119.6 460.2,119.6 461.3,119.6 462.4,119.6 463.5,119.6 464.5,119.6 465.6,120.8 466.7,120.8 467.7,120.8 468.8,120.8 469.9,120.8 470.9,120.8 472.0,120.8 473.1,123.3 474.1,123.3 475.2,123.3 476.3,123.3 477.4,123.3 478.4,123.3 479.5,123.3 480.6,125.1 481.6,125.1 482.7,125.1 483.8,125.1 484.8,125.1 485.9,125.1 487.0,125.1 488.0,128.4 489.1,128.4 490.2,128.4 491.2,128.4 492.3,128.4 493.4,128.4 494.5,128.4 495.5,129.2 496.6,129.2 497.7,129.2 498.7,129.2 499.8,129.2 500.9,129.2 501.9,129.2 503.0,132.0 504.1,132.0 505.1,132.0 506.2,132.0 507.3,132.0 508.4,132.0 509.4,132.0 510.5,135.9 511.6,135.9 512.6,135.9 513.7,135.9 514.8,135.9 515.8,135.9 516.9,135.9 518.0,138.8 519.0,138.8 520.1,138.8 521.2,138.8 522.3,138.8 523.3,138.8 524.4,138.8 525.5,142.1 526.5,142.1 527.6,142.1 528.7,142.1 529.7,142.1 530.8,142.1 531.9,142.1 532.9,145.7 534.0,145.7 535.1,145.7 536.2,145.7 537.2,145.7 538.3,145.7 539.4,145.7 540.4,148.9 541.5,148.9 542.6,148.9 543.6,148.9 544.7,148.9 545.8,148.9 546.8,148.9 547.9,152.5 549.0,152.5 550.0,152.5 551.1,152.5 552.2,152.5 553.3,152.5 554.3,152.5 555.4,156.4 556.5,156.4 557.5,156.4 558.6,156.4 559.7,156.4 560.7,156.4 561.8,156.4 562.9,159.9 563.9,159.9 565.0,159.9 566.1,159.9 567.2,159.9 568.2,159.9 569.3,159.9 570.4,163.4 571.4,163.4 572.5,163.4 573.6,163.4 574.6,163.4 575.7,163.4 576.8,163.4 577.8,165.0 578.9,165.0 580.0,165.0 581.1,165.0 582.1,165.0 583.2,165.0 584.3,165.0 585.3,169.9 586.4,169.9 587.5,169.9 588.5,169.9 589.6,169.9 590.7,169.9 591.7,169.9 592.8,174.2 593.9,174.2 594.9,174.2 596.0,174.2 597.1,174.2 598.2,174.2 599.2,174.2 600.3,177.5 601.4,177.5 602.4,177.5 603.5,177.5 604.6,177.5 605.6,177.5 606.7,177.5 607.8,181.0 608.8,181.0 609.9,181.0 611.0,181.0 612.1,181.0 613.1,181.0 614.2,181.0 615.3,185.1 616.3,185.1 617.4,185.1 618.5,185.1 619.5,185.1 620.6,185.1 621.7,185.1 622.7,188.1 623.8,188.1 624.9,188.1 626.0,188.1 627.0,188.1 628.1,188.1 629.2,188.1 630.2,193.1 631.3,193.1 632.4,193.1 633.4,193.1 634.5,193.1 635.6,193.1 636.6,193.1 637.7,197.5 638.8,197.5 639.8,197.5 640.9,197.5 642.0,197.5 643.1,197.5 644.1,197.5 645.2,201.3 646.3,201.3 647.3,201.3 648.4,201.3 649.5,201.3 650.5,201.3 651.6,201.3 652.7,204.5 653.7,204.5 654.8,204.5 655.9,204.5 657.0,204.5 658.0,204.5 659.1,204.5 660.2,207.9 661.2,207.9 662.3,207.9 663.4,207.9 664.4,207.9 665.5,207.9 666.6,207.9 667.6,211.6 668.7,211.6 669.8,211.6 670.9,211.6 671.9,211.6 673.0,211.6 674.1,211.6 675.1,216.8 676.2,216.8 677.3,216.8 678.3,216.8 679.4,216.8 680.5,216.8 681.5,216.8 682.6,219.9 683.7,219.9 684.8,219.9 685.8,219.9 686.9,219.9 688.0,219.9 689.0,219.9 690.1,224.6 691.2,224.6 692.2,224.6 693.3,224.6 694.4,224.6 695.4,224.6 696.5,224.6 697.6,227.3 698.6,227.3 699.7,227.3 700.8,227.3 701.9,227.3 702.9,227.3 704.0,227.3 705.1,232.7 706.1,232.7 707.2,232.7 708.3,232.7 709.3,232.7 710.4,232.7 711.5,232.7 712.5,236.2 713.6,236.2 714.7,236.2 715.8,236.2 716.8,236.2 717.9,236.2 719.0,236.2 720.0,240.3 721.1,240.3 722.2,240.3 723.2,240.3 724.3,240.3 725.4,240.3 726.4,240.3 727.5,245.1 728.6,245.1 729.7,245.1 730.7,245.1 731.8,245.1 732.9,245.1 733.9,245.1 735.0,249.0 736.1,249.0 737.1,249.0 738.2,249.0 739.3,249.0 740.3,249.0 741.4,249.0 742.5,252.8 743.5,252.8 744.6,252.8 745.7,252.8 746.8,252.8 747.8,252.8 748.9,252.8 750.0,256.6 751.0,256.6 752.1,256.6 753.2,256.6 754.2,256.6 755.3,256.6 756.4,256.6 757.4,261.7 758.5,261.7 759.6,261.7 760.7,261.7 761.7,261.7 762.8,261.7 763.9,261.7 764.9,265.6 766.0,265.6"/>
<line x1="606" y1="60" x2="628" y2="60" stroke="#24a148" stroke-width="2.2"/>
<text x="634" y="64" font-family="Arial" font-size="12">gps_z_m</text>
</svg>