<svg xmlns="http://www.w3.org/2000/svg" width="820" height="320" viewBox="0 0 820 320">
<rect width="100%" height="100%" fill="#ffffff"/>
<text x="54" y="28" font-family="Arial" font-size="18" font-weight="700">Downrange Position</text>
<line x1="54" y1="266" x2="766" y2="266" stroke="#1f2933"/>
<line x1="54" y1="54" x2="54" y2="266" stroke="#1f2933"/>
<text x="54" y="306" font-family="Arial" font-size="12">time (s)</text>
<text x="596" y="306" font-family="Arial" font-size="12">x (m)</text>
<text x="58" y="68" font-family="Arial" font-size="11">158</text>
<text x="58" y="260" font-family="Arial" font-size="11">0</text>
<polyline fill="none" stroke="#0f62fe" stroke-width="2.2" points="54.0,266.0 55.3,263.8 56.6,261.5 57.9,259.3 59.2,257.1 60.5,254.8 61.8,252.6 63.1,250.4 64.4,248.2 65.7,246.1 67.0,243.9 68.3,241.8 69.6,239.6 70.9,237.5 72.2,235.3 73.5,233.2 74.8,231.1 76.0,228.9 77.3,226.8 78.6,224.6 79.9,222.5 81.2,220.3 82.5,218.2 83.8,216.0 85.1,213.9 86.4,211.7 87.7,209.6 89.0,207.5 90.3,205.3 91.6,203.2 92.9,201.0 94.2,198.9 95.5,196.8 96.8,194.8 98.1,192.7 99.4,190.7 100.7,188.8 102.0,186.9 103.3,185.1 104.6,183.3 105.9,181.6 107.2,179.9 108.5,178.3 109.8,176.7 111.1,175.2 112.4,173.7 113.7,172.3 115.0,170.9 116.3,169.6 117.5,168.3 118.8,167.0 120.1,165.8 121.4,164.7 122.7,163.6 124.0,162.5 125.3,161.4 126.6,160.4 127.9,159.4 129.2,158.4 130.5,157.4 131.8,156.4 133.1,155.4 134.4,154.4 135.7,153.4 137.0,152.5 138.3,151.5 139.6,150.5 140.9,149.5 142.2,148.5 143.5,147.5 144.8,146.5 146.1,145.5 147.4,144.5 148.7,143.4 150.0,142.4 151.3,141.4 152.6,140.5 153.9,139.5 155.2,138.5 156.5,137.6 157.8,136.7 159.0,135.8 160.3,135.0 161.6,134.1 162.9,133.3 164.2,132.5 165.5,131.7 166.8,131.0 168.1,130.3 169.4,129.6 170.7,128.9 172.0,128.3 173.3,127.7 174.6,127.1 175.9,126.5 177.2,126.0 178.5,125.5 179.8,125.0 181.1,124.5 182.4,124.1 183.7,123.6 185.0,123.2 186.3,122.8 187.6,122.3 188.9,121.9 190.2,121.4 191.5,121.0 192.8,120.5 194.1,120.0 195.4,119.6 196.7,119.1 198.0,118.6 199.3,118.2 200.6,117.7 201.8,117.2 203.1,116.7 204.4,116.2 205.7,115.7 207.0,115.2 208.3,114.7 209.6,114.2 210.9,113.7 212.2,113.1 213.5,112.6 214.8,112.1 216.1,111.6 217.4,111.1 218.7,110.6 220.0,110.1 221.3,109.6 222.6,109.1 223.9,108.6 225.2,108.1 226.5,107.6 227.8,107.1 229.1,106.6 230.4,106.1 231.7,105.5 233.0,105.0 234.3,104.4 235.6,103.9 236.9,103.3 238.2,102.7 239.5,102.1 240.8,101.6 242.1,101.0 243.3,100.5 244.6,100.0 245.9,99.5 247.2,99.0 248.5,98.6 249.8,98.1 251.1,97.7 252.4,97.3 253.7,96.9 255.0,96.5 256.3,96.1 257.6,95.7 258.9,95.3 260.2,94.9 261.5,94.5 262.8,94.1 264.1,93.6 265.4,93.2 266.7,92.7 268.0,92.3 269.3,91.8 270.6,91.3 271.9,90.8 273.2,90.4 274.5,89.9 275.8,89.5 277.1,89.1 278.4,88.7 279.7,88.3 281.0,88.0 282.3,87.7 283.6,87.3 284.8,87.0 286.1,86.8 287.4,86.5 288.7,86.2 290.0,85.9 291.3,85.7 292.6,85.4 293.9,85.1 295.2,84.9 296.5,84.6 297.8,84.4 299.1,84.1 300.4,83.9 301.7,83.7 303.0,83.5 304.3,83.2 305.6,83.0 306.9,82.8 308.2,82.6 309.5,82.4 310.8,82.3 312.1,82.1 313.4,81.9 314.7,81.7 316.0,81.5 317.3,81.3 318.6,81.1 319.9,80.9 321.2,80.7 322.5,80.5 323.8,80.3 325.1,80.0 326.3,79.8 327.6,79.6 328.9,79.3 330.2,79.0 331.5,78.8 332.8,78.5 334.1,78.2 335.4,77.9 336.7,77.6 338.0,77.3 339.3,77.1 340.6,76.8 341.9,76.5 343.2,76.2 344.5,76.0 345.8,75.7 347.1,75.4 348.4,75.2 349.7,74.9 351.0,74.7 352.3,74.4 353.6,74.2 354.9,73.9 356.2,73.7 357.5,73.4 358.8,73.2 360.1,72.9 361.4,72.6 362.7,72.4 364.0,72.1 365.3,71.8 366.6,71.5 367.9,71.2 369.1,70.9 370.4,70.6 371.7,70.3 373.0,70.0 374.3,69.6 375.6,69.3 376.9,69.0 378.2,68.7 379.5,68.4 380.8,68.1 382.1,67.9 383.4,67.6 384.7,67.3 386.0,67.0 387.3,66.8 388.6,66.5 389.9,66.2 391.2,66.0 392.5,65.7 393.8,65.4 395.1,65.1 396.4,64.8 397.7,64.5 399.0,64.2 400.3,63.9 401.6,63.6 402.9,63.2 404.2,62.9 405.5,62.6 406.8,62.3 408.1,61.9 409.4,61.6 410.6,61.3 411.9,60.9 413.2,60.6 414.5,60.3 415.8,60.0 417.1,59.7 418.4,59.4 419.7,59.1 421.0,58.8 422.3,58.6 423.6,58.4 424.9,58.1 426.2,58.0 427.5,57.8 428.8,57.6 430.1,57.5 431.4,57.4 432.7,57.2 434.0,57.1 435.3,57.0 436.6,56.9 437.9,56.8 439.2,56.7 440.5,56.6 441.8,56.5 443.1,56.4 444.4,56.3 445.7,56.1 447.0,56.0 448.3,55.8 449.6,55.7 450.9,55.5 452.1,55.4 453.4,55.2 454.7,55.0 456.0,54.9 457.3,54.8 458.6,54.6 459.9,54.5 461.2,54.4 462.5,54.3 463.8,54.2 465.1,54.2 466.4,54.1 467.7,54.1 469.0,54.0 470.3,54.0 471.6,54.0 472.9,54.0 474.2,54.0 475.5,54.1 476.8,54.1 478.1,54.2 479.4,54.3 480.7,54.4 482.0,54.5 483.3,54.6 484.6,54.7 485.9,54.9 487.2,55.0 488.5,55.1 489.8,55.1 491.1,55.2 492.4,55.3 493.7,55.3 494.9,55.4 496.2,55.4 497.5,55.4 498.8,55.4 500.1,55.5 501.4,55.5 502.7,55.5 504.0,55.6 505.3,55.7 506.6,55.7 507.9,55.8 509.2,55.9 510.5,56.1 511.8,56.2 513.1,56.3 514.4,56.5 515.7,56.6 517.0,56.8 518.3,56.9 519.6,57.0 520.9,57.1 522.2,57.2 523.5,57.3 524.8,57.4 526.1,57.4 527.4,57.5 528.7,57.6 530.0,57.7 531.3,57.8 532.6,57.9 533.9,58.0 535.2,58.2 536.4,58.3 537.7,58.4 539.0,58.6 540.3,58.7 541.6,58.9 542.9,59.0 544.2,59.1 545.5,59.2 546.8,59.2 548.1,59.3 549.4,59.3 550.7,59.4 552.0,59.5 553.3,59.6 554.6,59.7 555.9,59.8 557.2,59.9 558.5,60.0 559.8,60.2 561.1,60.3 562.4,60.4 563.7,60.6 565.0,60.7 566.3,60.9 567.6,61.0 568.9,61.1 570.2,61.2 571.5,61.3 572.8,61.3 574.1,61.4 575.4,61.5 576.7,61.5 577.9,61.6 579.2,61.7 580.5,61.7 581.8,61.8 583.1,61.9 584.4,61.9 585.7,62.0 587.0,62.1 588.3,62.1 589.6,62.2 590.9,62.3 592.2,62.4 593.5,62.5 594.8,62.6 596.1,62.8 597.4,62.9 598.7,63.1 600.0,63.3 601.3,63.4 602.6,63.6 603.9,63.8 605.2,63.9 606.5,64.1 607.8,64.2 609.1,64.3 610.4,64.5 611.7,64.6 613.0,64.7 614.3,64.8 615.6,64.9 616.9,64.9 618.2,65.0 619.4,65.1 620.7,65.2 622.0,65.3 623.3,65.4 624.6,65.6 625.9,65.7 627.2,65.9 628.5,66.1 629.8,66.2 631.1,66.4 632.4,66.6 633.7,66.7 635.0,66.9 636.3,67.1 637.6,67.2 638.9,67.4 640.2,67.5 641.5,67.7 642.8,67.8 644.1,68.0 645.4,68.1 646.7,68.3 648.0,68.4 649.3,68.6 650.6,68.8 651.9,69.0 653.2,69.2 654.5,69.5 655.8,69.7 657.1,70.0 658.4,70.2 659.7,70.4 661.0,70.6 662.2,70.8 663.5,71.1 664.8,71.3 666.1,71.4 667.4,71.6 668.7,71.8 670.0,72.0 671.3,72.2 672.6,72.4 673.9,72.7 675.2,72.9 676.5,73.1 677.8,73.4 679.1,73.7 680.4,74.0 681.7,74.3 683.0,74.6 684.3,74.9 685.6,75.2 686.9,75.5 688.2,75.8 689.5,76.2 690.8,76.5 692.1,76.9 693.4,77.3 694.7,77.7 696.0,78.2 697.3,78.6 698.6,79.0 699.9,79.4 701.2,79.8 702.5,80.2 703.7,80.6 705.0,81.0 706.3,81.4 707.6,81.8 708.9,82.2 710.2,82.5 711.5,82.9 712.8,83.4 714.1,83.8 715.4,84.2 716.7,84.7 718.0,85.1 719.3,85.6 720.6,86.0 721.9,86.4 723.2,86.9 724.5,87.3 725.8,87.7 727.1,88.1 728.4,88.6 729.7,89.0 731.0,89.4 732.3,89.8 733.6,90.3 734.9,90.8 736.2,91.3 737.5,91.8 738.8,92.3 740.1,92.8 741.4,93.3 742.7,93.8 744.0,94.3 745.2,94.8 746.5,95.3 747.8,95.8 749.1,96.3 750.4,96.8 751.7,97.3 753.0,97.8 754.3,98.3 755.6,98.8 756.9,99.4 758.2,99.9 759.5,100.5 760.8,101.1 762.1,101.7 763.4,102.3 764.7,102.9 766.0,103.5"/>
<line x1="606" y1="42" x2="628" y2="42" stroke="#0f62fe" stroke-width="2.2"/>
<text x="634" y="46" font-family="Arial" font-size="12">x_m</text>
</svg>