<svg xmlns="http://www.w3.org/2000/svg" width="820" height="320" viewBox="0 0 820 320">
<rect width="100%" height="100%" fill="#ffffff"/>
<text x="54" y="28" font-family="Arial" font-size="18" font-weight="700">Velocity X</text>
<line x1="54" y1="266" x2="766" y2="266" stroke="#1f2933"/>
<line x1="54" y1="54" x2="54" y2="266" stroke="#1f2933"/>
<text x="54" y="306" font-family="Arial" font-size="12">time (s)</text>
<text x="596" y="306" font-family="Arial" font-size="12">vx (m/s)</text>
<text x="58" y="68" font-family="Arial" font-size="11">42</text>
<text x="58" y="260" font-family="Arial" font-size="11">-11.5</text>
<polyline fill="none" stroke="#0f62fe" stroke-width="2.2" points="54.0,54.0 55.3,54.8 56.6,55.3 57.9,55.6 59.2,55.7 60.5,55.9 61.8,56.5 63.1,57.4 64.4,58.7 65.7,59.9 67.0,61.0 68.3,61.7 69.6,62.1 70.9,62.3 72.2,62.2 73.5,62.1 74.8,61.9 76.0,61.7 77.3,61.5 78.6,61.3 79.9,61.2 81.2,61.4 82.5,61.8 83.8,62.2 85.1,62.5 86.4,62.5 87.7,62.3 89.0,62.1 90.3,62.0 91.6,62.1 92.9,62.5 94.2,63.4 95.5,65.0 96.8,67.5 98.1,70.6 99.4,73.9 100.7,77.5 102.0,81.2 103.3,85.0 104.6,88.8 105.9,92.6 107.2,96.4 108.5,100.2 109.8,103.9 111.1,107.5 112.4,111.2 113.7,114.8 115.0,118.4 116.3,121.9 117.5,125.4 118.8,128.7 120.1,131.9 121.4,134.8 122.7,137.5 124.0,139.9 125.3,142.0 126.6,143.8 127.9,145.3 129.2,146.5 130.5,147.3 131.8,147.9 133.1,148.3 134.4,148.3 135.7,148.0 137.0,147.3 138.3,146.7 139.6,146.5 140.9,146.6 142.2,146.8 143.5,146.8 144.8,146.6 146.1,146.2 147.4,145.8 148.7,145.6 150.0,145.9 151.3,146.7 152.6,147.8 153.9,149.0 155.2,150.3 156.5,151.8 157.8,153.3 159.0,154.9 160.3,156.6 161.6,158.3 162.9,160.0 164.2,161.8 165.5,163.7 166.8,165.6 168.1,167.5 169.4,169.5 170.7,171.5 172.0,173.5 173.3,175.5 174.6,177.5 175.9,179.4 177.2,181.1 178.5,182.8 179.8,184.4 181.1,185.7 182.4,186.9 183.7,187.6 185.0,188.0 186.3,187.9 187.6,187.5 188.9,187.1 190.2,186.6 191.5,186.3 192.8,186.2 194.1,186.1 195.4,186.1 196.7,186.1 198.0,186.0 199.3,185.7 200.6,185.0 201.8,184.4 203.1,184.1 204.4,184.1 205.7,183.8 207.0,183.4 208.3,182.7 209.6,182.0 210.9,181.6 212.2,181.6 213.5,181.9 214.8,182.4 216.1,182.9 217.4,183.4 218.7,183.7 220.0,184.0 221.3,184.2 222.6,184.1 223.9,183.9 225.2,183.6 226.5,183.2 227.8,182.7 229.1,182.2 230.4,181.7 231.7,181.1 233.0,180.4 234.3,179.6 235.6,178.9 236.9,178.2 238.2,177.9 239.5,178.0 240.8,178.6 242.1,179.6 243.3,180.9 244.6,182.3 245.9,183.9 247.2,185.5 248.5,187.1 249.8,188.4 251.1,189.6 252.4,190.5 253.7,191.1 255.0,191.4 256.3,191.4 257.6,191.1 258.9,190.7 260.2,190.1 261.5,189.5 262.8,188.8 264.1,188.1 265.4,187.4 266.7,186.7 268.0,186.1 269.3,185.6 270.6,185.4 271.9,185.7 273.2,186.3 274.5,187.3 275.8,188.6 277.1,190.1 278.4,191.6 279.7,193.2 281.0,194.8 282.3,196.3 283.6,197.6 284.8,198.6 286.1,199.4 287.4,199.9 288.7,200.3 290.0,200.5 291.3,200.7 292.6,200.9 293.9,201.1 295.2,201.3 296.5,201.7 297.8,202.1 299.1,202.6 300.4,203.1 301.7,203.7 303.0,204.2 304.3,204.7 305.6,205.1 306.9,205.5 308.2,205.8 309.5,206.0 310.8,206.2 312.1,206.3 313.4,206.3 314.7,206.3 316.0,206.2 317.3,206.0 318.6,205.9 319.9,205.6 321.2,205.3 322.5,205.0 323.8,204.5 325.1,204.0 326.3,203.3 327.6,202.5 328.9,201.7 330.2,200.9 331.5,200.3 332.8,199.8 334.1,199.4 335.4,199.3 336.7,199.3 338.0,199.4 339.3,199.5 340.6,199.8 341.9,200.0 343.2,200.3 344.5,200.6 345.8,200.9 347.1,201.1 348.4,201.4 349.7,201.6 351.0,201.7 352.3,201.8 353.6,201.9 354.9,201.9 356.2,201.8 357.5,201.7 358.8,201.5 360.1,201.3 361.4,201.0 362.7,200.6 364.0,200.1 365.3,199.6 366.6,199.0 367.9,198.3 369.1,197.6 370.4,197.2 371.7,196.9 373.0,196.8 374.3,197.0 375.6,197.3 376.9,197.8 378.2,198.3 379.5,198.9 380.8,199.4 382.1,199.9 383.4,200.3 384.7,200.6 386.0,200.7 387.3,200.8 388.6,200.8 389.9,200.7 391.2,200.4 392.5,200.0 393.8,199.6 395.1,199.1 396.4,198.5 397.7,198.0 399.0,197.4 400.3,197.0 401.6,196.6 402.9,196.3 404.2,196.1 405.5,195.9 406.8,195.9 408.1,195.8 409.4,195.9 410.6,196.0 411.9,196.2 413.2,196.4 414.5,196.8 415.8,197.3 417.1,197.9 418.4,198.7 419.7,199.7 421.0,200.9 422.3,202.3 423.6,203.8 424.9,205.3 426.2,206.7 427.5,208.0 428.8,209.1 430.1,209.9 431.4,210.6 432.7,211.2 434.0,211.7 435.3,212.1 436.6,212.4 437.9,212.7 439.2,212.9 440.5,212.9 441.8,212.8 443.1,212.5 444.4,212.0 445.7,211.2 447.0,210.2 448.3,209.4 449.6,208.8 450.9,208.4 452.1,208.4 453.4,208.6 454.7,209.1 456.0,209.7 457.3,210.4 458.6,211.1 459.9,211.9 461.2,212.7 462.5,213.5 463.8,214.3 465.1,215.2 466.4,216.1 467.7,217.0 469.0,218.0 470.3,219.0 471.6,220.1 472.9,221.3 474.2,222.5 475.5,223.7 476.8,224.9 478.1,226.1 479.4,227.1 480.7,227.9 482.0,228.5 483.3,228.9 484.6,229.0 485.9,228.8 487.2,228.3 488.5,227.6 489.8,226.7 491.1,225.7 492.4,224.8 493.7,223.9 494.9,223.3 496.2,222.8 497.5,222.5 498.8,222.5 500.1,222.6 501.4,222.9 502.7,223.5 504.0,224.2 505.3,225.0 506.6,226.1 507.9,227.3 509.2,228.5 510.5,229.6 511.8,230.4 513.1,231.0 514.4,231.4 515.7,231.4 517.0,231.1 518.3,230.4 519.6,229.4 520.9,228.2 522.2,226.9 523.5,225.9 524.8,225.3 526.1,225.2 527.4,225.6 528.7,226.3 530.0,227.2 531.3,228.2 532.6,229.2 533.9,230.1 535.2,230.9 536.4,231.3 537.7,231.5 539.0,231.3 540.3,230.8 541.6,230.0 542.9,228.9 544.2,227.6 545.5,226.4 546.8,225.6 548.1,225.2 549.4,225.2 550.7,225.5 552.0,226.0 553.3,226.5 554.6,227.2 555.9,228.1 557.2,229.1 558.5,230.0 559.8,230.7 561.1,231.3 562.4,231.5 563.7,231.4 565.0,231.0 566.3,230.3 567.6,229.3 568.9,228.3 570.2,227.3 571.5,226.6 572.8,226.0 574.1,225.6 575.4,225.4 576.7,225.3 577.9,225.2 579.2,225.2 580.5,225.2 581.8,225.2 583.1,225.2 584.4,225.2 585.7,225.3 587.0,225.4 588.3,225.7 589.6,226.1 590.9,226.7 592.2,227.6 593.5,228.7 594.8,230.0 596.1,231.3 597.4,232.3 598.7,232.9 600.0,233.1 601.3,233.1 602.6,232.8 603.9,232.4 605.2,231.9 606.5,231.3 607.8,230.7 609.1,230.0 610.4,229.4 611.7,228.8 613.0,228.2 614.3,227.7 615.6,227.2 616.9,226.9 618.2,226.8 619.4,227.0 620.7,227.5 622.0,228.3 623.3,229.4 624.6,230.6 625.9,231.7 627.2,232.5 628.5,233.1 629.8,233.3 631.1,233.4 632.4,233.2 633.7,233.0 635.0,232.7 636.3,232.3 637.6,231.9 638.9,231.6 640.2,231.2 641.5,231.0 642.8,230.9 644.1,231.0 645.4,231.3 646.7,232.0 648.0,232.9 649.3,234.1 650.6,235.3 651.9,236.4 653.2,237.2 654.5,237.8 655.8,238.0 657.1,237.9 658.4,237.7 659.7,237.3 661.0,236.8 662.2,236.3 663.5,235.8 664.8,235.3 666.1,234.9 667.4,234.7 668.7,234.7 670.0,234.9 671.3,235.3 672.6,235.9 673.9,236.9 675.2,237.9 676.5,239.0 677.8,239.9 679.1,240.7 680.4,241.4 681.7,242.0 683.0,242.6 684.3,243.1 685.6,243.7 686.9,244.4 688.2,245.2 689.5,246.2 690.8,247.3 692.1,248.6 693.4,250.0 694.7,251.1 696.0,251.7 697.3,252.0 698.6,251.8 699.9,251.4 701.2,250.9 702.5,250.3 703.7,249.6 705.0,249.1 706.3,248.7 707.6,248.6 708.9,248.7 710.2,249.1 711.5,249.8 712.8,250.8 714.1,251.8 715.4,252.7 716.7,253.4 718.0,253.7 719.3,253.7 720.6,253.5 721.9,253.0 723.2,252.5 724.5,252.1 725.8,251.7 727.1,251.5 728.4,251.5 729.7,251.6 731.0,252.0 732.3,252.6 733.6,253.7 734.9,255.2 736.2,256.6 737.5,257.8 738.8,258.5 740.1,258.8 741.4,258.6 742.7,258.1 744.0,257.6 745.2,257.1 746.5,256.7 747.8,256.5 749.1,256.6 750.4,257.0 751.7,257.6 753.0,258.1 754.3,258.6 755.6,259.4 756.9,260.6 758.2,262.0 759.5,263.3 760.8,264.1 762.1,264.7 763.4,265.1 764.7,265.5 766.0,266.0"/>
<line x1="606" y1="42" x2="628" y2="42" stroke="#0f62fe" stroke-width="2.2"/>
<text x="634" y="46" font-family="Arial" font-size="12">vx_mps</text>
</svg>