<svg xmlns="http://www.w3.org/2000/svg" width="820" height="320" viewBox="0 0 820 320">
<rect width="100%" height="100%" fill="#ffffff"/>
<text x="54" y="28" font-family="Arial" font-size="18" font-weight="700">Speed</text>
<line x1="54" y1="266" x2="766" y2="266" stroke="#1f2933"/>
<line x1="54" y1="54" x2="54" y2="266" stroke="#1f2933"/>
<text x="54" y="306" font-family="Arial" font-size="12">time (s)</text>
<text x="596" y="306" font-family="Arial" font-size="12">speed (m/s)</text>
<text x="58" y="68" font-family="Arial" font-size="11">45.3</text>
<text x="58" y="260" font-family="Arial" font-size="11">21.2</text>
<polyline fill="none" stroke="#0f62fe" stroke-width="2.2" points="54.0,82.6 55.3,84.1 56.6,85.1 57.9,85.5 59.2,85.6 60.5,86.0 61.8,87.4 63.1,89.8 64.4,92.8 65.7,95.7 67.0,98.2 68.3,100.0 69.6,101.0 70.9,101.3 72.2,101.1 73.5,100.7 74.8,100.2 76.0,99.7 77.3,99.2 78.6,98.7 79.9,98.5 81.2,98.6 82.5,99.1 83.8,99.7 85.1,99.8 86.4,99.5 87.7,98.8 89.0,98.2 90.3,97.8 91.6,97.8 92.9,98.2 94.2,99.7 95.5,102.3 96.8,106.6 98.1,111.8 99.4,117.5 100.7,123.6 102.0,130.1 103.3,136.7 104.6,143.3 105.9,149.9 107.2,156.4 108.5,162.8 109.8,169.2 111.1,175.5 112.4,181.7 113.7,187.7 115.0,193.6 116.3,199.6 117.5,205.5 118.8,211.4 120.1,217.1 121.4,222.6 122.7,227.8 124.0,232.7 125.3,237.3 126.6,241.4 127.9,244.8 129.2,247.6 130.5,249.7 131.8,251.2 133.1,252.1 134.4,252.6 135.7,251.9 137.0,248.9 138.3,245.0 139.6,241.0 140.9,237.2 142.2,233.3 143.5,229.3 144.8,225.1 146.1,220.8 147.4,217.1 148.7,214.6 150.0,213.7 151.3,214.1 152.6,215.1 153.9,216.1 155.2,217.2 156.5,218.7 157.8,220.4 159.0,222.1 160.3,224.0 161.6,225.8 162.9,227.7 164.2,229.6 165.5,231.6 166.8,233.6 168.1,235.5 169.4,237.5 170.7,239.3 172.0,241.0 173.3,242.6 174.6,244.1 175.9,245.5 177.2,246.8 178.5,247.9 179.8,248.7 181.1,249.2 182.4,249.4 183.7,249.1 185.0,248.6 186.3,247.9 187.6,247.3 188.9,246.9 190.2,247.0 191.5,247.4 192.8,248.2 194.1,249.1 195.4,249.9 196.7,250.7 198.0,251.3 199.3,251.6 200.6,251.3 201.8,249.5 203.1,246.9 204.4,244.1 205.7,240.9 207.0,236.9 208.3,232.6 209.6,228.9 210.9,226.4 212.2,224.8 213.5,223.7 214.8,223.1 216.1,222.8 217.4,222.6 218.7,222.4 220.0,222.0 221.3,221.6 222.6,221.2 223.9,220.9 225.2,220.6 226.5,220.6 227.8,220.7 229.1,220.9 230.4,221.3 231.7,221.7 233.0,221.9 234.3,221.8 235.6,221.2 236.9,220.1 238.2,218.6 239.5,216.8 240.8,215.3 242.1,214.1 243.3,213.4 244.6,213.1 245.9,213.1 247.2,213.3 248.5,213.5 249.8,213.5 251.1,213.3 252.4,213.0 253.7,212.4 255.0,211.8 256.3,211.2 257.6,210.8 258.9,210.6 260.2,210.6 261.5,210.8 262.8,211.0 264.1,211.3 265.4,211.6 266.7,211.7 268.0,211.4 269.3,210.6 270.6,209.5 271.9,208.1 273.2,206.9 274.5,205.9 275.8,205.1 277.1,204.7 278.4,204.5 279.7,204.6 281.0,204.7 282.3,204.8 283.6,204.7 284.8,204.5 286.1,204.3 287.4,204.0 288.7,203.7 290.0,203.5 291.3,203.3 292.6,203.1 293.9,203.0 295.2,202.9 296.5,202.8 297.8,202.7 299.1,202.7 300.4,202.7 301.7,202.7 303.0,202.7 304.3,202.7 305.6,202.6 306.9,202.5 308.2,202.4 309.5,202.3 310.8,202.1 312.1,201.9 313.4,201.7 314.7,201.4 316.0,201.2 317.3,200.9 318.6,200.6 319.9,200.2 321.2,199.9 322.5,199.6 323.8,199.2 325.1,198.9 326.3,198.7 327.6,198.5 328.9,198.5 330.2,198.7 331.5,199.1 332.8,199.8 334.1,200.7 335.4,201.9 336.7,203.4 338.0,205.0 339.3,206.7 340.6,208.5 341.9,210.2 343.2,211.9 344.5,213.5 345.8,215.1 347.1,216.6 348.4,218.1 349.7,219.5 351.0,220.9 352.3,222.2 353.6,223.5 354.9,224.7 356.2,225.8 357.5,226.9 358.8,227.9 360.1,228.8 361.4,229.7 362.7,230.5 364.0,231.2 365.3,231.7 366.6,232.0 367.9,232.0 369.1,231.7 370.4,231.3 371.7,230.8 373.0,230.3 374.3,230.0 375.6,229.7 376.9,229.5 378.2,229.4 379.5,229.3 380.8,229.2 382.1,229.0 383.4,228.8 384.7,228.6 386.0,228.4 387.3,228.1 388.6,227.9 389.9,227.6 391.2,227.4 392.5,227.2 393.8,227.1 395.1,227.1 396.4,227.2 397.7,227.5 399.0,227.9 400.3,228.4 401.6,229.1 402.9,230.0 404.2,230.9 405.5,231.9 406.8,233.0 408.1,234.0 409.4,235.0 410.6,236.0 411.9,237.0 413.2,238.1 414.5,239.2 415.8,240.3 417.1,241.4 418.4,242.5 419.7,243.6 421.0,244.5 422.3,245.2 423.6,245.5 424.9,245.4 426.2,245.1 427.5,244.6 428.8,244.1 430.1,243.7 431.4,243.3 432.7,242.9 434.0,242.5 435.3,241.9 436.6,241.3 437.9,240.6 439.2,239.9 440.5,239.1 441.8,238.3 443.1,237.5 444.4,236.7 445.7,236.1 447.0,235.6 448.3,235.3 449.6,235.3 450.9,235.6 452.1,236.2 453.4,237.1 454.7,238.1 456.0,239.3 457.3,240.5 458.6,241.7 459.9,242.7 461.2,243.7 462.5,244.6 463.8,245.5 465.1,246.2 466.4,246.9 467.7,247.6 469.0,248.2 470.3,248.7 471.6,249.0 472.9,249.3 474.2,249.3 475.5,249.2 476.8,248.9 478.1,248.5 479.4,247.9 480.7,247.2 482.0,246.4 483.3,245.6 484.6,244.9 485.9,244.1 487.2,243.5 488.5,242.9 489.8,242.5 491.1,242.3 492.4,242.3 493.7,242.4 494.9,242.8 496.2,243.5 497.5,244.2 498.8,245.1 500.1,246.0 501.4,246.8 502.7,247.6 504.0,248.3 505.3,248.8 506.6,249.1 507.9,249.1 509.2,248.9 510.5,248.5 511.8,247.8 513.1,247.1 514.4,246.4 515.7,245.8 517.0,245.3 518.3,245.0 519.6,244.8 520.9,244.9 522.2,245.2 523.5,245.8 524.8,246.5 526.1,247.4 527.4,248.3 528.7,249.2 530.0,250.1 531.3,250.8 532.6,251.2 533.9,251.4 535.2,251.1 536.4,250.4 537.7,249.6 539.0,248.8 540.3,247.9 541.6,247.1 542.9,246.4 544.2,246.0 545.5,245.7 546.8,245.9 548.1,246.3 549.4,247.1 550.7,248.0 552.0,249.2 553.3,250.6 554.6,252.1 555.9,253.2 557.2,253.7 558.5,253.6 559.8,252.8 561.1,251.6 562.4,250.1 563.7,248.6 565.0,247.1 566.3,245.6 567.6,244.3 568.9,243.6 570.2,243.4 571.5,243.8 572.8,244.5 574.1,245.6 575.4,246.8 576.7,248.3 577.9,249.6 579.2,250.8 580.5,251.9 581.8,252.9 583.1,253.8 584.4,254.5 585.7,255.2 587.0,255.9 588.3,256.6 589.6,257.2 590.9,257.7 592.2,258.0 593.5,257.7 594.8,256.8 596.1,255.3 597.4,253.4 598.7,251.5 600.0,249.8 601.3,248.6 602.6,247.7 603.9,247.2 605.2,247.1 606.5,247.0 607.8,247.0 609.1,246.9 610.4,246.7 611.7,246.4 613.0,246.1 614.3,245.6 615.6,245.1 616.9,244.4 618.2,243.5 619.4,242.4 620.7,241.1 622.0,239.6 623.3,238.2 624.6,237.1 625.9,236.5 627.2,236.5 628.5,237.0 629.8,238.0 631.1,239.2 632.4,240.5 633.7,241.8 635.0,243.0 636.3,244.1 637.6,245.2 638.9,246.2 640.2,247.3 641.5,248.3 642.8,249.3 644.1,250.2 645.4,250.9 646.7,251.3 648.0,251.1 649.3,250.2 650.6,248.6 651.9,246.7 653.2,244.7 654.5,242.9 655.8,241.7 657.1,241.0 658.4,240.7 659.7,240.8 661.0,241.1 662.2,241.4 663.5,241.9 664.8,242.1 666.1,242.2 667.4,242.1 668.7,241.6 670.0,240.8 671.3,239.5 672.6,237.6 673.9,235.2 675.2,232.7 676.5,230.6 677.8,228.9 679.1,228.0 680.4,227.7 681.7,228.0 683.0,228.7 684.3,229.4 685.6,230.1 686.9,230.6 688.2,230.9 689.5,231.0 690.8,230.5 692.1,229.5 693.4,227.6 694.7,225.1 696.0,222.5 697.3,220.2 698.6,218.4 699.9,217.1 701.2,216.3 702.5,215.9 703.7,215.6 705.0,215.2 706.3,214.8 707.6,214.2 708.9,213.4 710.2,212.4 711.5,211.1 712.8,209.7 714.1,208.3 715.4,207.4 716.7,207.3 718.0,208.0 719.3,209.6 720.6,211.9 721.9,214.7 723.2,217.4 724.5,220.1 725.8,222.5 727.1,224.7 728.4,226.6 729.7,228.2 731.0,229.3 732.3,229.8 733.6,229.4 734.9,228.1 736.2,225.6 737.5,222.5 738.8,219.5 740.1,217.1 741.4,215.5 742.7,214.8 744.0,214.6 745.2,214.6 746.5,214.7 747.8,214.5 749.1,214.0 750.4,213.0 751.7,211.0 753.0,208.2 754.3,204.9 755.6,201.0 756.9,197.1 758.2,194.1 759.5,192.4 760.8,191.6 762.1,191.6 763.4,192.4 764.7,193.6 766.0,194.8"/>
<line x1="606" y1="42" x2="628" y2="42" stroke="#0f62fe" stroke-width="2.2"/>
<text x="634" y="46" font-family="Arial" font-size="12">speed_mps</text>
<polyline fill="none" stroke="#24a148" stroke-width="2.2" points="54.0,54.0 55.3,56.5 56.6,58.5 57.9,59.8 59.2,60.5 60.5,61.0 61.8,61.9 63.1,63.6 64.4,65.6 65.7,67.5 67.0,69.0 68.3,69.9 69.6,70.2 70.9,70.1 72.2,69.7 73.5,69.3 74.8,69.0 76.0,68.7 77.3,68.4 78.6,67.9 79.9,67.4 81.2,66.9 82.5,66.7 83.8,66.4 85.1,66.0 86.4,65.1 87.7,64.3 89.0,63.7 90.3,63.6 91.6,64.0 92.9,65.1 94.2,67.1 95.5,70.4 96.8,75.2 98.1,81.0 99.4,86.9 100.7,93.1 102.0,99.8 103.3,106.4 104.6,113.2 105.9,119.9 107.2,126.6 108.5,133.4 109.8,140.1 111.1,146.8 112.4,153.5 113.7,160.2 115.0,166.9 116.3,173.6 117.5,180.3 118.8,187.0 120.1,193.4 121.4,199.6 122.7,205.5 124.0,210.9 125.3,215.9 126.6,220.4 127.9,224.0 129.2,227.0 130.5,229.2 131.8,230.8 133.1,231.7 134.4,231.9 135.7,230.7 137.0,227.8 138.3,224.5 139.6,221.7 140.9,219.4 142.2,217.2 143.5,214.7 144.8,211.7 146.1,208.2 147.4,204.6 148.7,201.5 150.0,199.4 151.3,198.5 152.6,198.3 153.9,198.3 155.2,198.7 156.5,199.5 157.8,200.5 159.0,201.7 160.3,203.0 161.6,204.6 162.9,206.2 164.2,208.1 165.5,210.1 166.8,212.3 168.1,214.6 169.4,217.0 170.7,219.5 172.0,222.1 173.3,224.8 174.6,227.5 175.9,230.3 177.2,233.1 178.5,235.7 179.8,238.0 181.1,239.9 182.4,241.4 183.7,242.4 185.0,242.7 186.3,242.4 187.6,241.8 188.9,241.2 190.2,240.7 191.5,240.5 192.8,240.6 194.1,240.8 195.4,241.1 196.7,241.3 198.0,241.4 199.3,241.2 200.6,240.3 201.8,238.1 203.1,235.3 204.4,232.3 205.7,228.9 207.0,224.7 208.3,220.5 209.6,217.0 210.9,215.0 212.2,214.0 213.5,213.6 214.8,213.7 216.1,214.2 217.4,214.7 218.7,215.0 220.0,215.3 221.3,215.3 222.6,215.1 223.9,214.9 225.2,214.5 226.5,214.2 227.8,213.9 229.1,213.6 230.4,213.4 231.7,213.1 233.0,212.8 234.3,212.2 235.6,211.3 236.9,210.2 238.2,208.8 239.5,207.4 240.8,206.2 242.1,205.5 243.3,205.3 244.6,205.4 245.9,206.0 247.2,206.9 248.5,207.9 249.8,208.9 251.1,209.6 252.4,210.3 253.7,210.8 255.0,211.2 256.3,211.6 257.6,212.1 258.9,212.6 260.2,213.3 261.5,214.0 262.8,214.7 264.1,215.4 265.4,216.1 266.7,216.6 268.0,216.8 269.3,216.6 270.6,216.1 271.9,215.4 273.2,214.9 274.5,214.5 275.8,214.3 277.1,214.3 278.4,214.4 279.7,214.6 281.0,214.7 282.3,214.6 283.6,214.3 284.8,213.9 286.1,213.3 287.4,212.7 288.7,212.0 290.0,211.4 291.3,210.8 292.6,210.4 293.9,210.1 295.2,209.9 296.5,210.0 297.8,210.2 299.1,210.6 300.4,211.1 301.7,211.8 303.0,212.6 304.3,213.5 305.6,214.5 306.9,215.5 308.2,216.5 309.5,217.6 310.8,218.7 312.1,219.8 313.4,220.8 314.7,221.9 316.0,223.0 317.3,224.1 318.6,225.1 319.9,226.1 321.2,227.0 322.5,227.9 323.8,228.7 325.1,229.4 326.3,229.9 327.6,230.3 328.9,230.6 330.2,230.8 331.5,231.0 332.8,231.2 334.1,231.4 335.4,231.9 336.7,232.6 338.0,233.3 339.3,234.1 340.6,234.9 341.9,235.6 343.2,236.2 344.5,236.8 345.8,237.3 347.1,237.8 348.4,238.2 349.7,238.6 351.0,238.9 352.3,239.2 353.6,239.4 354.9,239.6 356.2,239.7 357.5,239.8 358.8,239.8 360.1,239.8 361.4,239.7 362.7,239.5 364.0,239.3 365.3,238.9 366.6,238.3 367.9,237.6 369.1,236.8 370.4,236.0 371.7,235.2 373.0,234.5 374.3,234.0 375.6,233.7 376.9,233.4 378.2,233.2 379.5,233.0 380.8,232.8 382.1,232.6 383.4,232.3 384.7,232.0 386.0,231.7 387.3,231.4 388.6,231.1 389.9,230.9 391.2,230.7 392.5,230.6 393.8,230.6 395.1,230.7 396.4,230.9 397.7,231.3 399.0,231.8 400.3,232.5 401.6,233.4 402.9,234.3 404.2,235.4 405.5,236.5 406.8,237.5 408.1,238.5 409.4,239.4 410.6,240.2 411.9,241.0 413.2,241.6 414.5,242.2 415.8,242.8 417.1,243.3 418.4,243.7 419.7,244.0 421.0,244.3 422.3,244.5 423.6,244.7 424.9,244.7 426.2,244.9 427.5,245.1 428.8,245.5 430.1,246.1 431.4,246.8 432.7,247.6 434.0,248.3 435.3,249.0 436.6,249.6 437.9,250.1 439.2,250.7 440.5,251.1 441.8,251.5 443.1,251.8 444.4,251.8 445.7,251.5 447.0,250.8 448.3,250.0 449.6,249.2 450.9,248.5 452.1,248.1 453.4,248.1 454.7,248.4 456.0,249.0 457.3,249.7 458.6,250.4 459.9,251.1 461.2,251.7 462.5,252.4 463.8,252.9 465.1,253.5 466.4,254.0 467.7,254.5 469.0,255.0 470.3,255.5 471.6,256.0 472.9,256.4 474.2,256.8 475.5,257.1 476.8,257.3 478.1,257.4 479.4,257.3 480.7,257.1 482.0,256.9 483.3,256.5 484.6,256.0 485.9,255.5 487.2,255.0 488.5,254.4 489.8,253.9 491.1,253.4 492.4,253.0 493.7,252.7 494.9,252.7 496.2,252.9 497.5,253.2 498.8,253.5 500.1,253.8 501.4,254.1 502.7,254.2 504.0,254.3 505.3,254.3 506.6,254.2 507.9,254.0 509.2,253.7 510.5,253.5 511.8,253.2 513.1,253.0 514.4,252.9 515.7,252.9 517.0,252.9 518.3,253.0 519.6,253.0 520.9,252.9 522.2,252.6 523.5,252.0 524.8,251.5 526.1,251.2 527.4,251.2 528.7,251.6 530.0,252.5 531.3,253.5 532.6,254.6 533.9,255.9 535.2,257.1 536.4,258.0 537.7,258.9 539.0,259.6 540.3,260.1 541.6,260.4 542.9,260.3 544.2,259.9 545.5,259.2 546.8,258.6 548.1,258.3 549.4,258.5 550.7,259.1 552.0,260.1 553.3,261.4 554.6,263.0 555.9,264.4 557.2,265.5 558.5,266.0 559.8,265.9 561.1,265.2 562.4,264.1 563.7,262.7 565.0,261.0 566.3,259.1 567.6,257.3 568.9,255.8 570.2,254.8 571.5,254.4 572.8,254.5 574.1,255.1 575.4,256.0 576.7,257.1 577.9,258.2 579.2,259.2 580.5,260.1 581.8,260.9 583.1,261.6 584.4,262.1 585.7,262.5 587.0,262.8 588.3,263.0 589.6,263.2 590.9,263.2 592.2,263.0 593.5,262.4 594.8,261.4 596.1,259.9 597.4,258.2 598.7,256.5 600.0,255.1 601.3,254.0 602.6,253.2 603.9,252.8 605.2,252.7 606.5,252.6 607.8,252.6 609.1,252.5 610.4,252.4 611.7,252.4 613.0,252.3 614.3,252.4 615.6,252.6 616.9,252.8 618.2,253.1 619.4,253.3 620.7,253.3 622.0,253.1 623.3,252.7 624.6,252.1 625.9,251.6 627.2,251.3 628.5,251.4 629.8,251.8 631.1,252.5 632.4,253.3 633.7,254.1 635.0,254.9 636.3,255.6 637.6,256.3 638.9,257.0 640.2,257.6 641.5,258.3 642.8,258.9 644.1,259.5 645.4,260.0 646.7,260.3 648.0,260.2 649.3,259.8 650.6,259.0 651.9,257.8 653.2,256.7 654.5,255.7 655.8,255.0 657.1,254.7 658.4,254.7 659.7,254.8 661.0,255.1 662.2,255.4 663.5,255.8 664.8,256.0 666.1,256.1 667.4,256.1 668.7,255.9 670.0,255.5 671.3,254.7 672.6,253.5 673.9,251.7 675.2,249.8 676.5,248.1 677.8,246.7 679.1,245.7 680.4,245.3 681.7,245.4 683.0,245.6 684.3,245.8 685.6,245.9 686.9,245.7 688.2,245.3 689.5,244.6 690.8,243.5 692.1,241.8 693.4,239.6 694.7,236.9 696.0,234.3 697.3,232.2 698.6,230.6 699.9,229.7 701.2,229.4 702.5,229.6 703.7,230.1 705.0,230.6 706.3,231.2 707.6,231.8 708.9,232.2 710.2,232.5 711.5,232.4 712.8,231.9 714.1,231.1 715.4,230.1 716.7,229.5 718.0,229.5 719.3,230.2 720.6,231.6 721.9,233.6 723.2,235.6 724.5,237.7 725.8,239.7 727.1,241.5 728.4,243.1 729.7,244.5 731.0,245.5 732.3,246.0 733.6,245.9 734.9,245.2 736.2,243.5 737.5,241.6 738.8,239.7 740.1,238.3 741.4,237.5 742.7,237.5 744.0,237.9 745.2,238.4 746.5,238.9 747.8,239.0 749.1,238.8 750.4,238.2 751.7,236.4 753.0,233.8 754.3,230.6 755.6,226.8 756.9,223.0 758.2,220.1 759.5,218.4 760.8,217.5 762.1,217.4 763.4,218.0 764.7,219.0 766.0,220.1"/>
<line x1="606" y1="60" x2="628" y2="60" stroke="#24a148" stroke-width="2.2"/>
<text x="634" y="64" font-family="Arial" font-size="12">airspeed_mps</text>
</svg>