<svg xmlns="http://www.w3.org/2000/svg" width="820" height="320" viewBox="0 0 820 320">
<rect width="100%" height="100%" fill="#ffffff"/>
<text x="54" y="28" font-family="Arial" font-size="18" font-weight="700">Thrust</text>
<line x1="54" y1="266" x2="766" y2="266" stroke="#1f2933"/>
<line x1="54" y1="54" x2="54" y2="266" stroke="#1f2933"/>
<text x="54" y="306" font-family="Arial" font-size="12">time (s)</text>
<text x="596" y="306" font-family="Arial" font-size="12">thrust (N)</text>
<text x="58" y="68" font-family="Arial" font-size="11">64.7</text>
<text x="58" y="260" font-family="Arial" font-size="11">12</text>
<polyline fill="none" stroke="#0f62fe" stroke-width="2.2" points="54.0,266.0 55.3,228.3 56.6,198.8 57.9,175.8 59.2,157.9 60.5,144.0 61.8,133.1 63.1,124.5 64.4,117.6 65.7,112.1 67.0,107.9 68.3,104.6 69.6,102.2 70.9,100.3 72.2,99.0 73.5,97.9 74.8,97.1 76.0,96.4 77.3,96.0 78.6,95.7 79.9,95.5 81.2,95.3 82.5,95.2 83.8,95.0 85.1,95.0 86.4,95.1 87.7,95.2 89.0,95.3 90.3,95.3 91.6,95.1 92.9,94.9 94.2,94.5 95.5,93.8 96.8,92.8 98.1,91.6 99.4,90.4 100.7,89.1 102.0,87.8 103.3,86.4 104.6,85.0 105.9,83.7 107.2,82.3 108.5,80.9 109.8,79.6 111.1,78.2 112.4,76.8 113.7,75.5 115.0,74.1 116.3,72.8 117.5,71.4 118.8,70.0 120.1,68.7 121.4,67.5 122.7,66.3 124.0,65.2 125.3,64.2 126.6,63.3 127.9,62.5 129.2,61.9 130.5,61.5 131.8,61.2 133.1,61.0 134.4,60.9 135.7,61.2 137.0,61.8 138.3,62.4 139.6,63.0 140.9,63.5 142.2,63.9 143.5,64.4 144.8,65.0 146.1,65.7 147.4,66.5 148.7,67.1 150.0,67.5 151.3,67.7 152.6,67.8 153.9,67.7 155.2,67.7 156.5,67.5 157.8,67.3 159.0,67.1 160.3,66.8 161.6,66.5 162.9,66.1 164.2,65.8 165.5,65.4 166.8,64.9 168.1,64.4 169.4,63.9 170.7,63.4 172.0,62.9 173.3,62.4 174.6,61.8 175.9,61.2 177.2,60.7 178.5,60.2 179.8,59.7 181.1,59.3 182.4,59.0 183.7,58.8 185.0,58.7 186.3,58.8 187.6,58.9 188.9,59.0 190.2,59.1 191.5,59.2 192.8,59.2 194.1,59.1 195.4,59.1 196.7,59.0 198.0,59.0 199.3,59.0 200.6,59.2 201.8,59.7 203.1,60.2 204.4,60.9 205.7,61.5 207.0,62.4 208.3,63.2 209.6,63.9 210.9,64.4 212.2,64.6 213.5,64.6 214.8,64.6 216.1,64.5 217.4,64.4 218.7,64.3 220.0,64.3 221.3,64.3 222.6,64.3 223.9,64.4 225.2,64.4 226.5,64.5 227.8,64.6 229.1,64.6 230.4,64.7 231.7,64.7 233.0,64.8 234.3,64.9 235.6,65.1 236.9,65.3 238.2,65.6 239.5,65.9 240.8,66.1 242.1,66.3 243.3,66.3 244.6,66.3 245.9,66.2 247.2,66.0 248.5,65.8 249.8,65.6 251.1,65.4 252.4,65.3 253.7,65.2 255.0,65.1 256.3,65.1 257.6,65.0 258.9,64.8 260.2,64.7 261.5,64.6 262.8,64.4 264.1,64.3 265.4,64.1 266.7,64.0 268.0,64.0 269.3,64.0 270.6,64.1 271.9,64.3 273.2,64.4 274.5,64.5 275.8,64.5 277.1,64.5 278.4,64.5 279.7,64.4 281.0,64.4 282.3,64.4 283.6,64.5 284.8,64.6 286.1,64.7 287.4,64.8 288.7,65.0 290.0,65.1 291.3,65.2 292.6,65.3 293.9,65.4 295.2,65.4 296.5,65.4 297.8,65.3 299.1,65.3 300.4,65.1 301.7,65.0 303.0,64.8 304.3,64.7 305.6,64.5 306.9,64.3 308.2,64.0 309.5,63.8 310.8,63.6 312.1,63.4 313.4,63.2 314.7,62.9 316.0,62.7 317.3,62.5 318.6,62.3 319.9,62.1 321.2,61.9 322.5,61.7 323.8,61.6 325.1,61.4 326.3,61.3 327.6,61.2 328.9,61.2 330.2,61.1 331.5,61.1 332.8,61.1 334.1,61.0 335.4,60.9 336.7,60.8 338.0,60.6 339.3,60.5 340.6,60.3 341.9,60.2 343.2,60.0 344.5,59.9 345.8,59.8 347.1,59.7 348.4,59.6 349.7,59.6 351.0,59.5 352.3,59.4 353.6,59.4 354.9,59.4 356.2,59.3 357.5,59.3 358.8,59.3 360.1,59.3 361.4,59.3 362.7,59.4 364.0,59.4 365.3,59.5 366.6,59.6 367.9,59.8 369.1,59.9 370.4,60.1 371.7,60.3 373.0,60.4 374.3,60.5 375.6,60.6 376.9,60.6 378.2,60.7 379.5,60.7 380.8,60.7 382.1,60.8 383.4,60.8 384.7,60.9 386.0,61.0 387.3,61.0 388.6,61.1 389.9,61.1 391.2,61.2 392.5,61.2 393.8,61.2 395.1,61.2 396.4,61.1 397.7,61.1 399.0,60.9 400.3,60.8 401.6,60.6 402.9,60.4 404.2,60.2 405.5,60.0 406.8,59.8 408.1,59.6 409.4,59.4 410.6,59.2 411.9,59.1 413.2,58.9 414.5,58.8 415.8,58.7 417.1,58.6 418.4,58.5 419.7,58.5 421.0,58.4 422.3,58.4 423.6,58.3 424.9,58.3 426.2,58.3 427.5,58.2 428.8,58.2 430.1,58.0 431.4,57.9 432.7,57.7 434.0,57.6 435.3,57.5 436.6,57.3 437.9,57.2 439.2,57.1 440.5,57.0 441.8,56.9 443.1,56.9 444.4,56.9 445.7,57.0 447.0,57.1 448.3,57.2 449.6,57.4 450.9,57.6 452.1,57.6 453.4,57.6 454.7,57.6 456.0,57.4 457.3,57.3 458.6,57.2 459.9,57.0 461.2,56.9 462.5,56.8 463.8,56.7 465.1,56.5 466.4,56.4 467.7,56.3 469.0,56.2 470.3,56.1 471.6,56.0 472.9,55.9 474.2,55.9 475.5,55.8 476.8,55.8 478.1,55.7 479.4,55.8 480.7,55.8 482.0,55.9 483.3,55.9 484.6,56.0 485.9,56.1 487.2,56.2 488.5,56.4 489.8,56.5 491.1,56.6 492.4,56.6 493.7,56.7 494.9,56.7 496.2,56.7 497.5,56.6 498.8,56.5 500.1,56.5 501.4,56.4 502.7,56.4 504.0,56.4 505.3,56.4 506.6,56.4 507.9,56.4 509.2,56.5 510.5,56.5 511.8,56.6 513.1,56.6 514.4,56.7 515.7,56.7 517.0,56.7 518.3,56.6 519.6,56.6 520.9,56.7 522.2,56.7 523.5,56.8 524.8,56.9 526.1,57.0 527.4,57.0 528.7,56.9 530.0,56.7 531.3,56.5 532.6,56.3 533.9,56.0 535.2,55.8 536.4,55.6 537.7,55.4 539.0,55.3 540.3,55.2 541.6,55.1 542.9,55.2 544.2,55.2 545.5,55.4 546.8,55.5 548.1,55.6 549.4,55.5 550.7,55.4 552.0,55.2 553.3,54.9 554.6,54.6 555.9,54.3 557.2,54.1 558.5,54.0 559.8,54.0 561.1,54.2 562.4,54.4 563.7,54.7 565.0,55.0 566.3,55.4 567.6,55.8 568.9,56.1 570.2,56.3 571.5,56.4 572.8,56.3 574.1,56.2 575.4,56.0 576.7,55.8 577.9,55.6 579.2,55.4 580.5,55.2 581.8,55.0 583.1,54.9 584.4,54.8 585.7,54.7 587.0,54.7 588.3,54.6 589.6,54.6 590.9,54.6 592.2,54.6 593.5,54.7 594.8,54.9 596.1,55.2 597.4,55.6 598.7,55.9 600.0,56.2 601.3,56.4 602.6,56.6 603.9,56.7 605.2,56.7 606.5,56.7 607.8,56.7 609.1,56.7 610.4,56.8 611.7,56.8 613.0,56.8 614.3,56.8 615.6,56.7 616.9,56.7 618.2,56.6 619.4,56.6 620.7,56.6 622.0,56.6 623.3,56.7 624.6,56.8 625.9,56.9 627.2,57.0 628.5,57.0 629.8,56.9 631.1,56.7 632.4,56.6 633.7,56.4 635.0,56.3 636.3,56.1 637.6,56.0 638.9,55.8 640.2,55.7 641.5,55.6 642.8,55.4 644.1,55.3 645.4,55.2 646.7,55.2 648.0,55.2 649.3,55.3 650.6,55.4 651.9,55.7 653.2,55.9 654.5,56.1 655.8,56.2 657.1,56.3 658.4,56.3 659.7,56.3 661.0,56.2 662.2,56.1 663.5,56.1 664.8,56.0 666.1,56.0 667.4,56.0 668.7,56.0 670.0,56.1 671.3,56.3 672.6,56.5 673.9,56.9 675.2,57.3 676.5,57.6 677.8,57.9 679.1,58.1 680.4,58.2 681.7,58.2 683.0,58.1 684.3,58.1 685.6,58.1 686.9,58.1 688.2,58.2 689.5,58.3 690.8,58.6 692.1,58.9 693.4,59.4 694.7,59.9 696.0,60.4 697.3,60.9 698.6,61.2 699.9,61.4 701.2,61.4 702.5,61.4 703.7,61.3 705.0,61.2 706.3,61.1 707.6,60.9 708.9,60.9 710.2,60.8 711.5,60.8 712.8,60.9 714.1,61.1 715.4,61.3 716.7,61.4 718.0,61.4 719.3,61.3 720.6,61.0 721.9,60.6 723.2,60.2 724.5,59.7 725.8,59.3 727.1,59.0 728.4,58.7 729.7,58.4 731.0,58.2 732.3,58.1 733.6,58.1 734.9,58.2 736.2,58.6 737.5,59.0 738.8,59.3 740.1,59.6 741.4,59.8 742.7,59.8 744.0,59.7 745.2,59.6 746.5,59.5 747.8,59.5 749.1,59.5 750.4,59.7 751.7,60.0 753.0,60.5 754.3,61.2 755.6,62.0 756.9,62.7 758.2,63.3 759.5,63.7 760.8,63.9 762.1,63.9 763.4,63.7 764.7,63.5 766.0,63.3"/>
<line x1="606" y1="42" x2="628" y2="42" stroke="#0f62fe" stroke-width="2.2"/>
<text x="634" y="46" font-family="Arial" font-size="12">thrust_n</text>
</svg>