<svg xmlns="http://www.w3.org/2000/svg" width="820" height="320" viewBox="0 0 820 320">
<rect width="100%" height="100%" fill="#ffffff"/>
<text x="54" y="28" font-family="Arial" font-size="18" font-weight="700">Actuator Saturation</text>
<line x1="54" y1="266" x2="766" y2="266" stroke="#1f2933"/>
<line x1="54" y1="54" x2="54" y2="266" stroke="#1f2933"/>
<text x="54" y="306" font-family="Arial" font-size="12">time (s)</text>
<text x="596" y="306" font-family="Arial" font-size="12">flag</text>
<text x="58" y="68" font-family="Arial" font-size="11">1</text>
<text x="58" y="260" font-family="Arial" font-size="11">-1</text>
<polyline fill="none" stroke="#0f62fe" stroke-width="2.2" points="54.0,160.0 55.3,160.0 56.6,160.0 57.9,160.0 59.2,160.0 60.5,160.0 61.8,160.0 63.1,160.0 64.4,160.0 65.7,160.0 67.0,160.0 68.3,160.0 69.6,160.0 70.9,160.0 72.2,160.0 73.5,160.0 74.8,160.0 76.0,160.0 77.3,160.0 78.6,160.0 79.9,160.0 81.2,160.0 82.5,160.0 83.8,160.0 85.1,160.0 86.4,160.0 87.7,160.0 89.0,160.0 90.3,160.0 91.6,160.0 92.9,160.0 94.2,160.0 95.5,160.0 96.8,160.0 98.1,160.0 99.4,160.0 100.7,160.0 102.0,160.0 103.3,160.0 104.6,160.0 105.9,160.0 107.2,160.0 108.5,160.0 109.8,160.0 111.1,160.0 112.4,160.0 113.7,160.0 115.0,160.0 116.3,160.0 117.5,160.0 118.8,160.0 120.1,160.0 121.4,160.0 122.7,160.0 124.0,160.0 125.3,160.0 126.6,160.0 127.9,160.0 129.2,160.0 130.5,160.0 131.8,160.0 133.1,160.0 134.4,160.0 135.7,160.0 137.0,160.0 138.3,160.0 139.6,160.0 140.9,160.0 142.2,160.0 143.5,160.0 144.8,160.0 146.1,160.0 147.4,160.0 148.7,160.0 150.0,160.0 151.3,160.0 152.6,160.0 153.9,160.0 155.2,160.0 156.5,160.0 157.8,160.0 159.0,160.0 160.3,160.0 161.6,160.0 162.9,160.0 164.2,160.0 165.5,160.0 166.8,160.0 168.1,160.0 169.4,160.0 170.7,160.0 172.0,160.0 173.3,160.0 174.6,160.0 175.9,160.0 177.2,160.0 178.5,160.0 179.8,160.0 181.1,160.0 182.4,160.0 183.7,160.0 185.0,160.0 186.3,160.0 187.6,160.0 188.9,160.0 190.2,160.0 191.5,160.0 192.8,160.0 194.1,160.0 195.4,160.0 196.7,160.0 198.0,160.0 199.3,160.0 200.6,160.0 201.8,160.0 203.1,160.0 204.4,160.0 205.7,160.0 207.0,160.0 208.3,160.0 209.6,160.0 210.9,160.0 212.2,160.0 213.5,160.0 214.8,160.0 216.1,160.0 217.4,160.0 218.7,160.0 220.0,160.0 221.3,160.0 222.6,160.0 223.9,160.0 225.2,160.0 226.5,160.0 227.8,160.0 229.1,160.0 230.4,160.0 231.7,160.0 233.0,160.0 234.3,160.0 235.6,160.0 236.9,160.0 238.2,160.0 239.5,160.0 240.8,160.0 242.1,160.0 243.3,160.0 244.6,160.0 245.9,160.0 247.2,160.0 248.5,160.0 249.8,160.0 251.1,160.0 252.4,160.0 253.7,160.0 255.0,160.0 256.3,160.0 257.6,160.0 258.9,160.0 260.2,160.0 261.5,160.0 262.8,160.0 264.1,160.0 265.4,160.0 266.7,160.0 268.0,160.0 269.3,160.0 270.6,160.0 271.9,160.0 273.2,160.0 274.5,160.0 275.8,160.0 277.1,160.0 278.4,160.0 279.7,160.0 281.0,160.0 282.3,160.0 283.6,160.0 284.8,160.0 286.1,160.0 287.4,160.0 288.7,160.0 290.0,160.0 291.3,160.0 292.6,160.0 293.9,160.0 295.2,160.0 296.5,160.0 297.8,160.0 299.1,160.0 300.4,160.0 301.7,160.0 303.0,160.0 304.3,160.0 305.6,160.0 306.9,160.0 308.2,160.0 309.5,160.0 310.8,160.0 312.1,160.0 313.4,160.0 314.7,160.0 316.0,160.0 317.3,160.0 318.6,160.0 319.9,160.0 321.2,160.0 322.5,160.0 323.8,160.0 325.1,160.0 326.3,160.0 327.6,160.0 328.9,160.0 330.2,160.0 331.5,160.0 332.8,160.0 334.1,160.0 335.4,160.0 336.7,160.0 338.0,160.0 339.3,160.0 340.6,160.0 341.9,160.0 343.2,160.0 344.5,160.0 345.8,160.0 347.1,160.0 348.4,160.0 349.7,160.0 351.0,160.0 352.3,160.0 353.6,160.0 354.9,160.0 356.2,160.0 357.5,160.0 358.8,160.0 360.1,160.0 361.4,160.0 362.7,160.0 364.0,160.0 365.3,160.0 366.6,160.0 367.9,160.0 369.1,160.0 370.4,160.0 371.7,160.0 373.0,160.0 374.3,160.0 375.6,160.0 376.9,160.0 378.2,160.0 379.5,160.0 380.8,160.0 382.1,160.0 383.4,160.0 384.7,160.0 386.0,160.0 387.3,160.0 388.6,160.0 389.9,160.0 391.2,160.0 392.5,160.0 393.8,160.0 395.1,160.0 396.4,160.0 397.7,160.0 399.0,160.0 400.3,160.0 401.6,160.0 402.9,160.0 404.2,160.0 405.5,160.0 406.8,160.0 408.1,160.0 409.4,160.0 410.6,160.0 411.9,160.0 413.2,160.0 414.5,160.0 415.8,160.0 417.1,160.0 418.4,160.0 419.7,160.0 421.0,160.0 422.3,160.0 423.6,160.0 424.9,160.0 426.2,160.0 427.5,160.0 428.8,160.0 430.1,160.0 431.4,160.0 432.7,160.0 434.0,160.0 435.3,160.0 436.6,160.0 437.9,160.0 439.2,160.0 440.5,160.0 441.8,160.0 443.1,160.0 444.4,160.0 445.7,160.0 447.0,160.0 448.3,160.0 449.6,160.0 450.9,160.0 452.1,160.0 453.4,160.0 454.7,160.0 456.0,160.0 457.3,160.0 458.6,160.0 459.9,160.0 461.2,160.0 462.5,160.0 463.8,160.0 465.1,160.0 466.4,160.0 467.7,160.0 469.0,160.0 470.3,160.0 471.6,160.0 472.9,160.0 474.2,160.0 475.5,160.0 476.8,160.0 478.1,160.0 479.4,160.0 480.7,160.0 482.0,160.0 483.3,160.0 484.6,160.0 485.9,160.0 487.2,160.0 488.5,160.0 489.8,160.0 491.1,160.0 492.4,160.0 493.7,160.0 494.9,160.0 496.2,160.0 497.5,160.0 498.8,160.0 500.1,160.0 501.4,160.0 502.7,160.0 504.0,160.0 505.3,160.0 506.6,160.0 507.9,160.0 509.2,160.0 510.5,160.0 511.8,160.0 513.1,160.0 514.4,160.0 515.7,160.0 517.0,160.0 518.3,160.0 519.6,160.0 520.9,160.0 522.2,160.0 523.5,160.0 524.8,160.0 526.1,160.0 527.4,160.0 528.7,160.0 530.0,160.0 531.3,160.0 532.6,160.0 533.9,160.0 535.2,160.0 536.4,160.0 537.7,160.0 539.0,160.0 540.3,160.0 541.6,160.0 542.9,160.0 544.2,160.0 545.5,160.0 546.8,160.0 548.1,160.0 549.4,160.0 550.7,160.0 552.0,160.0 553.3,160.0 554.6,160.0 555.9,160.0 557.2,160.0 558.5,160.0 559.8,160.0 561.1,160.0 562.4,160.0 563.7,160.0 565.0,160.0 566.3,160.0 567.6,160.0 568.9,160.0 570.2,160.0 571.5,160.0 572.8,160.0 574.1,160.0 575.4,160.0 576.7,160.0 577.9,160.0 579.2,160.0 580.5,160.0 581.8,160.0 583.1,160.0 584.4,160.0 585.7,160.0 587.0,160.0 588.3,160.0 589.6,160.0 590.9,160.0 592.2,160.0 593.5,160.0 594.8,160.0 596.1,160.0 597.4,160.0 598.7,160.0 600.0,160.0 601.3,160.0 602.6,160.0 603.9,160.0 605.2,160.0 606.5,160.0 607.8,160.0 609.1,160.0 610.4,160.0 611.7,160.0 613.0,160.0 614.3,160.0 615.6,160.0 616.9,160.0 618.2,160.0 619.4,160.0 620.7,160.0 622.0,160.0 623.3,160.0 624.6,160.0 625.9,160.0 627.2,160.0 628.5,160.0 629.8,160.0 631.1,160.0 632.4,160.0 633.7,160.0 635.0,160.0 636.3,160.0 637.6,160.0 638.9,160.0 640.2,160.0 641.5,160.0 642.8,160.0 644.1,160.0 645.4,160.0 646.7,160.0 648.0,160.0 649.3,160.0 650.6,160.0 651.9,160.0 653.2,160.0 654.5,160.0 655.8,160.0 657.1,160.0 658.4,160.0 659.7,160.0 661.0,160.0 662.2,160.0 663.5,160.0 664.8,160.0 666.1,160.0 667.4,160.0 668.7,160.0 670.0,160.0 671.3,160.0 672.6,160.0 673.9,160.0 675.2,160.0 676.5,160.0 677.8,160.0 679.1,160.0 680.4,160.0 681.7,160.0 683.0,160.0 684.3,160.0 685.6,160.0 686.9,160.0 688.2,160.0 689.5,160.0 690.8,160.0 692.1,160.0 693.4,160.0 694.7,160.0 696.0,160.0 697.3,160.0 698.6,160.0 699.9,160.0 701.2,160.0 702.5,160.0 703.7,160.0 705.0,160.0 706.3,160.0 707.6,160.0 708.9,160.0 710.2,160.0 711.5,160.0 712.8,160.0 714.1,160.0 715.4,160.0 716.7,160.0 718.0,160.0 719.3,160.0 720.6,160.0 721.9,160.0 723.2,160.0 724.5,160.0 725.8,160.0 727.1,160.0 728.4,160.0 729.7,160.0 731.0,160.0 732.3,160.0 733.6,160.0 734.9,160.0 736.2,160.0 737.5,160.0 738.8,160.0 740.1,160.0 741.4,160.0 742.7,160.0 744.0,160.0 745.2,160.0 746.5,160.0 747.8,160.0 749.1,160.0 750.4,160.0 751.7,160.0 753.0,160.0 754.3,160.0 755.6,160.0 756.9,160.0 758.2,160.0 759.5,160.0 760.8,160.0 762.1,160.0 763.4,160.0 764.7,160.0 766.0,160.0"/>
<line x1="606" y1="42" x2="628" y2="42" stroke="#0f62fe" stroke-width="2.2"/>
<text x="634" y="46" font-family="Arial" font-size="12">elevator_saturated</text>
<polyline fill="none" stroke="#24a148" stroke-width="2.2" points="54.0,160.0 55.3,160.0 56.6,160.0 57.9,160.0 59.2,160.0 60.5,160.0 61.8,160.0 63.1,160.0 64.4,160.0 65.7,160.0 67.0,160.0 68.3,160.0 69.6,160.0 70.9,160.0 72.2,160.0 73.5,160.0 74.8,160.0 76.0,160.0 77.3,160.0 78.6,160.0 79.9,160.0 81.2,160.0 82.5,160.0 83.8,160.0 85.1,160.0 86.4,160.0 87.7,160.0 89.0,160.0 90.3,160.0 91.6,160.0 92.9,160.0 94.2,160.0 95.5,160.0 96.8,160.0 98.1,160.0 99.4,160.0 100.7,160.0 102.0,160.0 103.3,160.0 104.6,160.0 105.9,160.0 107.2,160.0 108.5,160.0 109.8,160.0 111.1,160.0 112.4,160.0 113.7,160.0 115.0,160.0 116.3,160.0 117.5,160.0 118.8,160.0 120.1,160.0 121.4,160.0 122.7,160.0 124.0,160.0 125.3,160.0 126.6,160.0 127.9,160.0 129.2,160.0 130.5,160.0 131.8,160.0 133.1,160.0 134.4,160.0 135.7,160.0 137.0,160.0 138.3,160.0 139.6,160.0 140.9,160.0 142.2,160.0 143.5,160.0 144.8,160.0 146.1,160.0 147.4,160.0 148.7,160.0 150.0,160.0 151.3,160.0 152.6,160.0 153.9,160.0 155.2,160.0 156.5,160.0 157.8,160.0 159.0,160.0 160.3,160.0 161.6,160.0 162.9,160.0 164.2,160.0 165.5,160.0 166.8,160.0 168.1,160.0 169.4,160.0 170.7,160.0 172.0,160.0 173.3,160.0 174.6,160.0 175.9,160.0 177.2,160.0 178.5,160.0 179.8,160.0 181.1,160.0 182.4,160.0 183.7,160.0 185.0,160.0 186.3,160.0 187.6,160.0 188.9,160.0 190.2,160.0 191.5,160.0 192.8,160.0 194.1,160.0 195.4,160.0 196.7,160.0 198.0,160.0 199.3,160.0 200.6,160.0 201.8,160.0 203.1,160.0 204.4,160.0 205.7,160.0 207.0,160.0 208.3,160.0 209.6,160.0 210.9,160.0 212.2,160.0 213.5,160.0 214.8,160.0 216.1,160.0 217.4,160.0 218.7,160.0 220.0,160.0 221.3,160.0 222.6,160.0 223.9,160.0 225.2,160.0 226.5,160.0 227.8,160.0 229.1,160.0 230.4,160.0 231.7,160.0 233.0,160.0 234.3,160.0 235.6,160.0 236.9,160.0 238.2,160.0 239.5,160.0 240.8,160.0 242.1,160.0 243.3,160.0 244.6,160.0 245.9,160.0 247.2,160.0 248.5,160.0 249.8,160.0 251.1,160.0 252.4,160.0 253.7,160.0 255.0,160.0 256.3,160.0 257.6,160.0 258.9,160.0 260.2,160.0 261.5,160.0 262.8,160.0 264.1,160.0 265.4,160.0 266.7,160.0 268.0,160.0 269.3,160.0 270.6,160.0 271.9,160.0 273.2,160.0 274.5,160.0 275.8,160.0 277.1,160.0 278.4,160.0 279.7,160.0 281.0,160.0 282.3,160.0 283.6,160.0 284.8,160.0 286.1,160.0 287.4,160.0 288.7,160.0 290.0,160.0 291.3,160.0 292.6,160.0 293.9,160.0 295.2,160.0 296.5,160.0 297.8,160.0 299.1,160.0 300.4,160.0 301.7,160.0 303.0,160.0 304.3,160.0 305.6,160.0 306.9,160.0 308.2,160.0 309.5,160.0 310.8,160.0 312.1,160.0 313.4,160.0 314.7,160.0 316.0,160.0 317.3,160.0 318.6,160.0 319.9,160.0 321.2,160.0 322.5,160.0 323.8,160.0 325.1,160.0 326.3,160.0 327.6,160.0 328.9,160.0 330.2,160.0 331.5,160.0 332.8,160.0 334.1,160.0 335.4,160.0 336.7,160.0 338.0,160.0 339.3,160.0 340.6,160.0 341.9,160.0 343.2,160.0 344.5,160.0 345.8,160.0 347.1,160.0 348.4,160.0 349.7,160.0 351.0,160.0 352.3,160.0 353.6,160.0 354.9,160.0 356.2,160.0 357.5,160.0 358.8,160.0 360.1,160.0 361.4,160.0 362.7,160.0 364.0,160.0 365.3,160.0 366.6,160.0 367.9,160.0 369.1,160.0 370.4,160.0 371.7,160.0 373.0,160.0 374.3,160.0 375.6,160.0 376.9,160.0 378.2,160.0 379.5,160.0 380.8,160.0 382.1,160.0 383.4,160.0 384.7,160.0 386.0,160.0 387.3,160.0 388.6,160.0 389.9,160.0 391.2,160.0 392.5,160.0 393.8,160.0 395.1,160.0 396.4,160.0 397.7,160.0 399.0,160.0 400.3,160.0 401.6,160.0 402.9,160.0 404.2,160.0 405.5,160.0 406.8,160.0 408.1,160.0 409.4,160.0 410.6,160.0 411.9,160.0 413.2,160.0 414.5,160.0 415.8,160.0 417.1,160.0 418.4,160.0 419.7,160.0 421.0,160.0 422.3,160.0 423.6,160.0 424.9,160.0 426.2,160.0 427.5,160.0 428.8,160.0 430.1,160.0 431.4,160.0 432.7,160.0 434.0,160.0 435.3,160.0 436.6,160.0 437.9,160.0 439.2,160.0 440.5,160.0 441.8,160.0 443.1,160.0 444.4,160.0 445.7,160.0 447.0,160.0 448.3,160.0 449.6,160.0 450.9,160.0 452.1,160.0 453.4,160.0 454.7,160.0 456.0,160.0 457.3,160.0 458.6,160.0 459.9,160.0 461.2,160.0 462.5,160.0 463.8,160.0 465.1,160.0 466.4,160.0 467.7,160.0 469.0,160.0 470.3,160.0 471.6,160.0 472.9,160.0 474.2,160.0 475.5,160.0 476.8,160.0 478.1,160.0 479.4,160.0 480.7,160.0 482.0,160.0 483.3,160.0 484.6,160.0 485.9,160.0 487.2,160.0 488.5,160.0 489.8,160.0 491.1,160.0 492.4,160.0 493.7,160.0 494.9,160.0 496.2,160.0 497.5,160.0 498.8,160.0 500.1,160.0 501.4,160.0 502.7,160.0 504.0,160.0 505.3,160.0 506.6,160.0 507.9,160.0 509.2,160.0 510.5,160.0 511.8,160.0 513.1,160.0 514.4,160.0 515.7,160.0 517.0,160.0 518.3,160.0 519.6,160.0 520.9,160.0 522.2,160.0 523.5,160.0 524.8,160.0 526.1,160.0 527.4,160.0 528.7,160.0 530.0,160.0 531.3,160.0 532.6,160.0 533.9,160.0 535.2,160.0 536.4,160.0 537.7,160.0 539.0,160.0 540.3,160.0 541.6,160.0 542.9,160.0 544.2,160.0 545.5,160.0 546.8,160.0 548.1,160.0 549.4,160.0 550.7,160.0 552.0,160.0 553.3,160.0 554.6,160.0 555.9,160.0 557.2,160.0 558.5,160.0 559.8,160.0 561.1,160.0 562.4,160.0 563.7,160.0 565.0,160.0 566.3,160.0 567.6,160.0 568.9,160.0 570.2,160.0 571.5,160.0 572.8,160.0 574.1,160.0 575.4,160.0 576.7,160.0 577.9,160.0 579.2,160.0 580.5,160.0 581.8,160.0 583.1,160.0 584.4,160.0 585.7,160.0 587.0,160.0 588.3,160.0 589.6,160.0 590.9,160.0 592.2,160.0 593.5,160.0 594.8,160.0 596.1,160.0 597.4,160.0 598.7,160.0 600.0,160.0 601.3,160.0 602.6,160.0 603.9,160.0 605.2,160.0 606.5,160.0 607.8,160.0 609.1,160.0 610.4,160.0 611.7,160.0 613.0,160.0 614.3,160.0 615.6,160.0 616.9,160.0 618.2,160.0 619.4,160.0 620.7,160.0 622.0,160.0 623.3,160.0 624.6,160.0 625.9,160.0 627.2,160.0 628.5,160.0 629.8,160.0 631.1,160.0 632.4,160.0 633.7,160.0 635.0,160.0 636.3,160.0 637.6,160.0 638.9,160.0 640.2,160.0 641.5,160.0 642.8,160.0 644.1,160.0 645.4,160.0 646.7,160.0 648.0,160.0 649.3,160.0 650.6,160.0 651.9,160.0 653.2,160.0 654.5,160.0 655.8,160.0 657.1,160.0 658.4,160.0 659.7,160.0 661.0,160.0 662.2,160.0 663.5,160.0 664.8,160.0 666.1,160.0 667.4,160.0 668.7,160.0 670.0,160.0 671.3,160.0 672.6,160.0 673.9,160.0 675.2,160.0 676.5,160.0 677.8,160.0 679.1,160.0 680.4,160.0 681.7,160.0 683.0,160.0 684.3,160.0 685.6,160.0 686.9,160.0 688.2,160.0 689.5,160.0 690.8,160.0 692.1,160.0 693.4,160.0 694.7,160.0 696.0,160.0 697.3,160.0 698.6,160.0 699.9,160.0 701.2,160.0 702.5,160.0 703.7,160.0 705.0,160.0 706.3,160.0 707.6,160.0 708.9,160.0 710.2,160.0 711.5,160.0 712.8,160.0 714.1,160.0 715.4,160.0 716.7,160.0 718.0,160.0 719.3,160.0 720.6,160.0 721.9,160.0 723.2,160.0 724.5,160.0 725.8,160.0 727.1,160.0 728.4,160.0 729.7,160.0 731.0,160.0 732.3,160.0 733.6,160.0 734.9,160.0 736.2,160.0 737.5,160.0 738.8,160.0 740.1,160.0 741.4,160.0 742.7,160.0 744.0,160.0 745.2,160.0 746.5,160.0 747.8,160.0 749.1,160.0 750.4,160.0 751.7,160.0 753.0,160.0 754.3,160.0 755.6,160.0 756.9,160.0 758.2,160.0 759.5,160.0 760.8,160.0 762.1,160.0 763.4,160.0 764.7,160.0 766.0,160.0"/>
<line x1="606" y1="60" x2="628" y2="60" stroke="#24a148" stroke-width="2.2"/>
<text x="634" y="64" font-family="Arial" font-size="12">aileron_saturated</text>
<polyline fill="none" stroke="#da1e28" stroke-width="2.2" points="54.0,160.0 55.3,160.0 56.6,160.0 57.9,160.0 59.2,160.0 60.5,160.0 61.8,160.0 63.1,160.0 64.4,160.0 65.7,160.0 67.0,160.0 68.3,160.0 69.6,160.0 70.9,160.0 72.2,160.0 73.5,160.0 74.8,160.0 76.0,160.0 77.3,160.0 78.6,160.0 79.9,160.0 81.2,160.0 82.5,160.0 83.8,160.0 85.1,160.0 86.4,160.0 87.7,160.0 89.0,160.0 90.3,160.0 91.6,160.0 92.9,160.0 94.2,160.0 95.5,160.0 96.8,160.0 98.1,160.0 99.4,160.0 100.7,160.0 102.0,160.0 103.3,160.0 104.6,160.0 105.9,160.0 107.2,160.0 108.5,160.0 109.8,160.0 111.1,160.0 112.4,160.0 113.7,160.0 115.0,160.0 116.3,160.0 117.5,160.0 118.8,160.0 120.1,160.0 121.4,160.0 122.7,160.0 124.0,160.0 125.3,160.0 126.6,160.0 127.9,160.0 129.2,160.0 130.5,160.0 131.8,160.0 133.1,160.0 134.4,160.0 135.7,160.0 137.0,160.0 138.3,160.0 139.6,160.0 140.9,160.0 142.2,160.0 143.5,160.0 144.8,160.0 146.1,160.0 147.4,160.0 148.7,160.0 150.0,160.0 151.3,160.0 152.6,160.0 153.9,160.0 155.2,160.0 156.5,160.0 157.8,160.0 159.0,160.0 160.3,160.0 161.6,160.0 162.9,160.0 164.2,160.0 165.5,160.0 166.8,160.0 168.1,160.0 169.4,160.0 170.7,160.0 172.0,160.0 173.3,160.0 174.6,160.0 175.9,160.0 177.2,160.0 178.5,160.0 179.8,160.0 181.1,160.0 182.4,160.0 183.7,160.0 185.0,160.0 186.3,160.0 187.6,160.0 188.9,160.0 190.2,160.0 191.5,160.0 192.8,160.0 194.1,160.0 195.4,160.0 196.7,160.0 198.0,160.0 199.3,160.0 200.6,160.0 201.8,160.0 203.1,160.0 204.4,160.0 205.7,160.0 207.0,160.0 208.3,160.0 209.6,160.0 210.9,160.0 212.2,160.0 213.5,160.0 214.8,160.0 216.1,160.0 217.4,160.0 218.7,160.0 220.0,160.0 221.3,160.0 222.6,160.0 223.9,160.0 225.2,160.0 226.5,160.0 227.8,160.0 229.1,160.0 230.4,160.0 231.7,160.0 233.0,160.0 234.3,160.0 235.6,160.0 236.9,160.0 238.2,160.0 239.5,160.0 240.8,160.0 242.1,160.0 243.3,160.0 244.6,160.0 245.9,160.0 247.2,160.0 248.5,160.0 249.8,160.0 251.1,160.0 252.4,160.0 253.7,160.0 255.0,160.0 256.3,160.0 257.6,160.0 258.9,160.0 260.2,160.0 261.5,160.0 262.8,160.0 264.1,160.0 265.4,160.0 266.7,160.0 268.0,160.0 269.3,160.0 270.6,160.0 271.9,160.0 273.2,160.0 274.5,160.0 275.8,160.0 277.1,160.0 278.4,160.0 279.7,160.0 281.0,160.0 282.3,160.0 283.6,160.0 284.8,160.0 286.1,160.0 287.4,160.0 288.7,160.0 290.0,160.0 291.3,160.0 292.6,160.0 293.9,160.0 295.2,160.0 296.5,160.0 297.8,160.0 299.1,160.0 300.4,160.0 301.7,160.0 303.0,160.0 304.3,160.0 305.6,160.0 306.9,160.0 308.2,160.0 309.5,160.0 310.8,160.0 312.1,160.0 313.4,160.0 314.7,160.0 316.0,160.0 317.3,160.0 318.6,160.0 319.9,160.0 321.2,160.0 322.5,160.0 323.8,160.0 325.1,160.0 326.3,160.0 327.6,160.0 328.9,160.0 330.2,160.0 331.5,160.0 332.8,160.0 334.1,160.0 335.4,160.0 336.7,160.0 338.0,160.0 339.3,160.0 340.6,160.0 341.9,160.0 343.2,160.0 344.5,160.0 345.8,160.0 347.1,160.0 348.4,160.0 349.7,160.0 351.0,160.0 352.3,160.0 353.6,160.0 354.9,160.0 356.2,160.0 357.5,160.0 358.8,160.0 360.1,160.0 361.4,160.0 362.7,160.0 364.0,160.0 365.3,160.0 366.6,160.0 367.9,160.0 369.1,160.0 370.4,160.0 371.7,160.0 373.0,160.0 374.3,160.0 375.6,160.0 376.9,160.0 378.2,160.0 379.5,160.0 380.8,160.0 382.1,160.0 383.4,160.0 384.7,160.0 386.0,160.0 387.3,160.0 388.6,160.0 389.9,160.0 391.2,160.0 392.5,160.0 393.8,160.0 395.1,160.0 396.4,160.0 397.7,160.0 399.0,160.0 400.3,160.0 401.6,160.0 402.9,160.0 404.2,160.0 405.5,160.0 406.8,160.0 408.1,160.0 409.4,160.0 410.6,160.0 411.9,160.0 413.2,160.0 414.5,160.0 415.8,160.0 417.1,160.0 418.4,160.0 419.7,160.0 421.0,160.0 422.3,160.0 423.6,160.0 424.9,160.0 426.2,160.0 427.5,160.0 428.8,160.0 430.1,160.0 431.4,160.0 432.7,160.0 434.0,160.0 435.3,160.0 436.6,160.0 437.9,160.0 439.2,160.0 440.5,160.0 441.8,160.0 443.1,160.0 444.4,160.0 445.7,160.0 447.0,160.0 448.3,160.0 449.6,160.0 450.9,160.0 452.1,160.0 453.4,160.0 454.7,160.0 456.0,160.0 457.3,160.0 458.6,160.0 459.9,160.0 461.2,160.0 462.5,160.0 463.8,160.0 465.1,160.0 466.4,160.0 467.7,160.0 469.0,160.0 470.3,160.0 471.6,160.0 472.9,160.0 474.2,160.0 475.5,160.0 476.8,160.0 478.1,160.0 479.4,160.0 480.7,160.0 482.0,160.0 483.3,160.0 484.6,160.0 485.9,160.0 487.2,160.0 488.5,160.0 489.8,160.0 491.1,160.0 492.4,160.0 493.7,160.0 494.9,160.0 496.2,160.0 497.5,160.0 498.8,160.0 500.1,160.0 501.4,160.0 502.7,160.0 504.0,160.0 505.3,160.0 506.6,160.0 507.9,160.0 509.2,160.0 510.5,160.0 511.8,160.0 513.1,160.0 514.4,160.0 515.7,160.0 517.0,160.0 518.3,160.0 519.6,160.0 520.9,160.0 522.2,160.0 523.5,160.0 524.8,160.0 526.1,160.0 527.4,160.0 528.7,160.0 530.0,160.0 531.3,160.0 532.6,160.0 533.9,160.0 535.2,160.0 536.4,160.0 537.7,160.0 539.0,160.0 540.3,160.0 541.6,160.0 542.9,160.0 544.2,160.0 545.5,160.0 546.8,160.0 548.1,160.0 549.4,160.0 550.7,160.0 552.0,160.0 553.3,160.0 554.6,160.0 555.9,160.0 557.2,160.0 558.5,160.0 559.8,160.0 561.1,160.0 562.4,160.0 563.7,160.0 565.0,160.0 566.3,160.0 567.6,160.0 568.9,160.0 570.2,160.0 571.5,160.0 572.8,160.0 574.1,160.0 575.4,160.0 576.7,160.0 577.9,160.0 579.2,160.0 580.5,160.0 581.8,160.0 583.1,160.0 584.4,160.0 585.7,160.0 587.0,160.0 588.3,160.0 589.6,160.0 590.9,160.0 592.2,160.0 593.5,160.0 594.8,160.0 596.1,160.0 597.4,160.0 598.7,160.0 600.0,160.0 601.3,160.0 602.6,160.0 603.9,160.0 605.2,160.0 606.5,160.0 607.8,160.0 609.1,160.0 610.4,160.0 611.7,160.0 613.0,160.0 614.3,160.0 615.6,160.0 616.9,160.0 618.2,160.0 619.4,160.0 620.7,160.0 622.0,160.0 623.3,160.0 624.6,160.0 625.9,160.0 627.2,160.0 628.5,160.0 629.8,160.0 631.1,160.0 632.4,160.0 633.7,160.0 635.0,160.0 636.3,160.0 637.6,160.0 638.9,160.0 640.2,160.0 641.5,160.0 642.8,160.0 644.1,160.0 645.4,160.0 646.7,160.0 648.0,160.0 649.3,160.0 650.6,160.0 651.9,160.0 653.2,160.0 654.5,160.0 655.8,160.0 657.1,160.0 658.4,160.0 659.7,160.0 661.0,160.0 662.2,160.0 663.5,160.0 664.8,160.0 666.1,160.0 667.4,160.0 668.7,160.0 670.0,160.0 671.3,160.0 672.6,160.0 673.9,160.0 675.2,160.0 676.5,160.0 677.8,160.0 679.1,160.0 680.4,160.0 681.7,160.0 683.0,160.0 684.3,160.0 685.6,160.0 686.9,160.0 688.2,160.0 689.5,160.0 690.8,160.0 692.1,160.0 693.4,160.0 694.7,160.0 696.0,160.0 697.3,160.0 698.6,160.0 699.9,160.0 701.2,160.0 702.5,160.0 703.7,160.0 705.0,160.0 706.3,160.0 707.6,160.0 708.9,160.0 710.2,160.0 711.5,160.0 712.8,160.0 714.1,160.0 715.4,160.0 716.7,160.0 718.0,160.0 719.3,160.0 720.6,160.0 721.9,160.0 723.2,160.0 724.5,160.0 725.8,160.0 727.1,160.0 728.4,160.0 729.7,160.0 731.0,160.0 732.3,160.0 733.6,160.0 734.9,160.0 736.2,160.0 737.5,160.0 738.8,160.0 740.1,160.0 741.4,160.0 742.7,160.0 744.0,160.0 745.2,160.0 746.5,160.0 747.8,160.0 749.1,160.0 750.4,160.0 751.7,160.0 753.0,160.0 754.3,160.0 755.6,160.0 756.9,160.0 758.2,160.0 759.5,160.0 760.8,160.0 762.1,160.0 763.4,160.0 764.7,160.0 766.0,160.0"/>
<line x1="606" y1="78" x2="628" y2="78" stroke="#da1e28" stroke-width="2.2"/>
<text x="634" y="82" font-family="Arial" font-size="12">rudder_saturated</text>
</svg>