<svg xmlns="http://www.w3.org/2000/svg" width="820" height="320" viewBox="0 0 820 320">
<rect width="100%" height="100%" fill="#ffffff"/>
<text x="54" y="28" font-family="Arial" font-size="18" font-weight="700">GPS Altitude vs Truth</text>
<line x1="54" y1="266" x2="766" y2="266" stroke="#1f2933"/>
<line x1="54" y1="54" x2="54" y2="266" stroke="#1f2933"/>
<text x="54" y="306" font-family="Arial" font-size="12">time (s)</text>
<text x="596" y="306" font-family="Arial" font-size="12">altitude (m)</text>
<text x="58" y="68" font-family="Arial" font-size="11">452</text>
<text x="58" y="260" font-family="Arial" font-size="11">-0.41</text>
<polyline fill="none" stroke="#0f62fe" stroke-width="2.2" points="54.0,55.0 55.3,55.0 56.6,55.0 57.9,55.0 59.2,55.0 60.5,55.1 61.8,55.1 63.1,55.1 64.4,55.1 65.7,55.1 67.0,55.1 68.3,55.1 69.6,55.1 70.9,55.1 72.2,55.2 73.5,55.2 74.8,55.2 76.0,55.3 77.3,55.3 78.6,55.3 79.9,55.4 81.2,55.4 82.5,55.5 83.8,55.6 85.1,55.6 86.4,55.7 87.7,55.8 89.0,55.9 90.3,56.0 91.6,56.1 92.9,56.2 94.2,56.3 95.5,56.4 96.8,56.6 98.1,56.7 99.4,56.8 100.7,57.0 102.0,57.1 103.3,57.3 104.6,57.4 105.9,57.6 107.2,57.8 108.5,58.0 109.8,58.2 111.1,58.4 112.4,58.6 113.7,58.8 115.0,59.0 116.3,59.3 117.5,59.5 118.8,59.7 120.1,59.9 121.4,60.2 122.7,60.4 124.0,60.7 125.3,60.9 126.6,61.1 127.9,61.4 129.2,61.6 130.5,61.9 131.8,62.1 133.1,62.3 134.4,62.6 135.7,62.8 137.0,63.1 138.3,63.3 139.6,63.6 140.9,63.9 142.2,64.2 143.5,64.5 144.8,64.8 146.1,65.1 147.4,65.4 148.7,65.8 150.0,66.1 151.3,66.5 152.6,66.8 153.9,67.2 155.2,67.6 156.5,67.9 157.8,68.3 159.0,68.7 160.3,69.0 161.6,69.4 162.9,69.8 164.2,70.2 165.5,70.5 166.8,70.9 168.1,71.3 169.4,71.7 170.7,72.1 172.0,72.5 173.3,72.9 174.6,73.2 175.9,73.6 177.2,74.0 178.5,74.4 179.8,74.8 181.1,75.2 182.4,75.6 183.7,76.0 185.0,76.4 186.3,76.8 187.6,77.2 188.9,77.5 190.2,77.9 191.5,78.3 192.8,78.7 194.1,79.1 195.4,79.5 196.7,79.9 198.0,80.3 199.3,80.6 200.6,81.0 201.8,81.4 203.1,81.8 204.4,82.2 205.7,82.6 207.0,83.1 208.3,83.5 209.6,83.9 210.9,84.4 212.2,84.8 213.5,85.2 214.8,85.7 216.1,86.1 217.4,86.6 218.7,87.0 220.0,87.5 221.3,87.9 222.6,88.4 223.9,88.8 225.2,89.3 226.5,89.7 227.8,90.1 229.1,90.6 230.4,91.0 231.7,91.4 233.0,91.9 234.3,92.3 235.6,92.7 236.9,93.2 238.2,93.6 239.5,94.0 240.8,94.5 242.1,94.9 243.3,95.4 244.6,95.8 245.9,96.2 247.2,96.7 248.5,97.1 249.8,97.6 251.1,98.0 252.4,98.5 253.7,98.9 255.0,99.4 256.3,99.8 257.6,100.2 258.9,100.7 260.2,101.1 261.5,101.6 262.8,102.0 264.1,102.4 265.4,102.9 266.7,103.3 268.0,103.7 269.3,104.2 270.6,104.6 271.9,105.0 273.2,105.4 274.5,105.9 275.8,106.3 277.1,106.8 278.4,107.2 279.7,107.6 281.0,108.1 282.3,108.5 283.6,109.0 284.8,109.4 286.1,109.8 287.4,110.3 288.7,110.7 290.0,111.2 291.3,111.6 292.6,112.0 293.9,112.5 295.2,112.9 296.5,113.3 297.8,113.8 299.1,114.2 300.4,114.6 301.7,115.1 303.0,115.5 304.3,115.9 305.6,116.3 306.9,116.8 308.2,117.2 309.5,117.6 310.8,118.0 312.1,118.4 313.4,118.9 314.7,119.3 316.0,119.7 317.3,120.1 318.6,120.5 319.9,121.0 321.2,121.4 322.5,121.8 323.8,122.2 325.1,122.6 326.3,123.0 327.6,123.4 328.9,123.9 330.2,124.3 331.5,124.7 332.8,125.1 334.1,125.5 335.4,126.0 336.7,126.4 338.0,126.8 339.3,127.2 340.6,127.6 341.9,128.1 343.2,128.5 344.5,128.9 345.8,129.3 347.1,129.8 348.4,130.2 349.7,130.6 351.0,131.0 352.3,131.5 353.6,131.9 354.9,132.3 356.2,132.7 357.5,133.2 358.8,133.6 360.1,134.0 361.4,134.4 362.7,134.8 364.0,135.3 365.3,135.7 366.6,136.1 367.9,136.5 369.1,137.0 370.4,137.4 371.7,137.8 373.0,138.2 374.3,138.6 375.6,139.1 376.9,139.5 378.2,139.9 379.5,140.3 380.8,140.7 382.1,141.1 383.4,141.5 384.7,142.0 386.0,142.4 387.3,142.8 388.6,143.2 389.9,143.6 391.2,144.0 392.5,144.4 393.8,144.8 395.1,145.2 396.4,145.7 397.7,146.1 399.0,146.5 400.3,146.9 401.6,147.3 402.9,147.7 404.2,148.1 405.5,148.5 406.8,148.9 408.1,149.3 409.4,149.8 410.6,150.2 411.9,150.6 413.2,151.0 414.5,151.4 415.8,151.8 417.1,152.2 418.4,152.6 419.7,153.0 421.0,153.4 422.3,153.9 423.6,154.3 424.9,154.7 426.2,155.1 427.5,155.5 428.8,155.9 430.1,156.4 431.4,156.8 432.7,157.2 434.0,157.6 435.3,158.0 436.6,158.4 437.9,158.8 439.2,159.3 440.5,159.7 441.8,160.1 443.1,160.5 444.4,160.9 445.7,161.3 447.0,161.7 448.3,162.1 449.6,162.5 450.9,163.0 452.1,163.4 453.4,163.8 454.7,164.2 456.0,164.6 457.3,165.0 458.6,165.4 459.9,165.9 461.2,166.3 462.5,166.7 463.8,167.1 465.1,167.5 466.4,167.9 467.7,168.3 469.0,168.8 470.3,169.2 471.6,169.6 472.9,170.0 474.2,170.4 475.5,170.8 476.8,171.2 478.1,171.7 479.4,172.1 480.7,172.5 482.0,172.9 483.3,173.3 484.6,173.7 485.9,174.1 487.2,174.6 488.5,175.0 489.8,175.4 491.1,175.8 492.4,176.2 493.7,176.7 494.9,177.1 496.2,177.5 497.5,177.9 498.8,178.3 500.1,178.8 501.4,179.2 502.7,179.6 504.0,180.0 505.3,180.4 506.6,180.9 507.9,181.3 509.2,181.7 510.5,182.1 511.8,182.5 513.1,183.0 514.4,183.4 515.7,183.8 517.0,184.2 518.3,184.6 519.6,185.0 520.9,185.5 522.2,185.9 523.5,186.3 524.8,186.7 526.1,187.1 527.4,187.5 528.7,187.9 530.0,188.4 531.3,188.8 532.6,189.2 533.9,189.6 535.2,190.0 536.4,190.4 537.7,190.8 539.0,191.2 540.3,191.6 541.6,192.0 542.9,192.4 544.2,192.8 545.5,193.2 546.8,193.6 548.1,194.0 549.4,194.4 550.7,194.9 552.0,195.3 553.3,195.7 554.6,196.1 555.9,196.5 557.2,196.9 558.5,197.3 559.8,197.7 561.1,198.1 562.4,198.5 563.7,198.9 565.0,199.3 566.3,199.7 567.6,200.1 568.9,200.5 570.2,200.9 571.5,201.3 572.8,201.7 574.1,202.2 575.4,202.6 576.7,203.0 577.9,203.4 579.2,203.8 580.5,204.2 581.8,204.6 583.1,205.0 584.4,205.4 585.7,205.9 587.0,206.3 588.3,206.7 589.6,207.1 590.9,207.5 592.2,207.9 593.5,208.3 594.8,208.7 596.1,209.1 597.4,209.5 598.7,209.9 600.0,210.3 601.3,210.8 602.6,211.2 603.9,211.6 605.2,212.0 606.5,212.4 607.8,212.9 609.1,213.3 610.4,213.7 611.7,214.1 613.0,214.5 614.3,214.9 615.6,215.4 616.9,215.8 618.2,216.2 619.4,216.6 620.7,217.0 622.0,217.4 623.3,217.8 624.6,218.3 625.9,218.7 627.2,219.1 628.5,219.5 629.8,219.9 631.1,220.4 632.4,220.8 633.7,221.2 635.0,221.6 636.3,222.0 637.6,222.4 638.9,222.8 640.2,223.3 641.5,223.7 642.8,224.1 644.1,224.5 645.4,224.9 646.7,225.3 648.0,225.7 649.3,226.1 650.6,226.6 651.9,227.0 653.2,227.4 654.5,227.8 655.8,228.3 657.1,228.7 658.4,229.1 659.7,229.5 661.0,230.0 662.2,230.4 663.5,230.8 664.8,231.2 666.1,231.6 667.4,232.0 668.7,232.5 670.0,232.9 671.3,233.3 672.6,233.7 673.9,234.1 675.2,234.6 676.5,235.0 677.8,235.4 679.1,235.9 680.4,236.3 681.7,236.7 683.0,237.2 684.3,237.6 685.6,238.1 686.9,238.5 688.2,239.0 689.5,239.4 690.8,239.8 692.1,240.3 693.4,240.7 694.7,241.2 696.0,241.6 697.3,242.1 698.6,242.5 699.9,243.0 701.2,243.5 702.5,243.9 703.7,244.4 705.0,244.8 706.3,245.3 707.6,245.8 708.9,246.2 710.2,246.7 711.5,247.1 712.8,247.6 714.1,248.0 715.4,248.5 716.7,248.9 718.0,249.4 719.3,249.8 720.6,250.3 721.9,250.7 723.2,251.2 724.5,251.6 725.8,252.1 727.1,252.5 728.4,252.9 729.7,253.4 731.0,253.8 732.3,254.2 733.6,254.7 734.9,255.1 736.2,255.5 737.5,256.0 738.8,256.4 740.1,256.9 741.4,257.3 742.7,257.8 744.0,258.2 745.2,258.7 746.5,259.1 747.8,259.5 749.1,260.0 750.4,260.4 751.7,260.9 753.0,261.3 754.3,261.8 755.6,262.2 756.9,262.7 758.2,263.1 759.5,263.6 760.8,264.1 762.1,264.6 763.4,265.0 764.7,265.5 766.0,266.0"/>
<line x1="606" y1="42" x2="628" y2="42" stroke="#0f62fe" stroke-width="2.2"/>
<text x="634" y="46" font-family="Arial" font-size="12">altitude_m</text>
<polyline fill="none" stroke="#24a148" stroke-width="2.2" points="54.0,54.4 55.3,54.4 56.6,54.4 57.9,54.4 59.2,54.4 60.5,54.0 61.8,54.0 63.1,54.0 64.4,54.0 65.7,54.0 67.0,55.1 68.3,55.1 69.6,55.1 70.9,55.1 72.2,55.1 73.5,57.8 74.8,57.8 76.0,57.8 77.3,57.8 78.6,57.8 79.9,55.1 81.2,55.1 82.5,55.1 83.8,55.1 85.1,55.1 86.4,55.7 87.7,55.7 89.0,55.7 90.3,55.7 91.6,55.7 92.9,56.2 94.2,56.2 95.5,56.2 96.8,56.2 98.1,56.2 99.4,57.8 100.7,57.8 102.0,57.8 103.3,57.8 104.6,57.8 105.9,54.7 107.2,54.7 108.5,54.7 109.8,54.7 111.1,54.7 112.4,58.2 113.7,58.2 115.0,58.2 116.3,58.2 117.5,58.2 118.8,60.3 120.1,60.3 121.4,60.3 122.7,60.3 124.0,60.3 125.3,59.3 126.6,59.3 127.9,59.3 129.2,59.3 130.5,59.3 131.8,63.1 133.1,63.1 134.4,63.1 135.7,63.1 137.0,63.1 138.3,60.1 139.6,60.1 140.9,60.1 142.2,60.1 143.5,60.1 144.8,64.9 146.1,64.9 147.4,64.9 148.7,64.9 150.0,64.9 151.3,64.4 152.6,64.4 153.9,64.4 155.2,64.4 156.5,64.4 157.8,68.2 159.0,68.2 160.3,68.2 161.6,68.2 162.9,68.2 164.2,70.6 165.5,70.6 166.8,70.6 168.1,70.6 169.4,70.6 170.7,73.0 172.0,73.0 173.3,73.0 174.6,73.0 175.9,73.0 177.2,72.6 178.5,72.6 179.8,72.6 181.1,72.6 182.4,72.6 183.7,74.1 185.0,74.1 186.3,74.1 187.6,74.1 188.9,74.1 190.2,78.2 191.5,78.2 192.8,78.2 194.1,78.2 195.4,78.2 196.7,77.3 198.0,77.3 199.3,77.3 200.6,77.3 201.8,77.3 203.1,81.9 204.4,81.9 205.7,81.9 207.0,81.9 208.3,81.9 209.6,82.9 210.9,82.9 212.2,82.9 213.5,82.9 214.8,82.9 216.1,87.0 217.4,87.0 218.7,87.0 220.0,87.0 221.3,87.0 222.6,86.7 223.9,86.7 225.2,86.7 226.5,86.7 227.8,86.7 229.1,90.8 230.4,90.8 231.7,90.8 233.0,90.8 234.3,90.8 235.6,92.5 236.9,92.5 238.2,92.5 239.5,92.5 240.8,92.5 242.1,94.9 243.3,94.9 244.6,94.9 245.9,94.9 247.2,94.9 248.5,98.2 249.8,98.2 251.1,98.2 252.4,98.2 253.7,98.2 255.0,100.8 256.3,100.8 257.6,100.8 258.9,100.8 260.2,100.8 261.5,102.1 262.8,102.1 264.1,102.1 265.4,102.1 266.7,102.1 268.0,100.6 269.3,100.6 270.6,100.6 271.9,100.6 273.2,100.6 274.5,103.9 275.8,103.9 277.1,103.9 278.4,103.9 279.7,103.9 281.0,105.4 282.3,105.4 283.6,105.4 284.8,105.4 286.1,105.4 287.4,109.2 288.7,109.2 290.0,109.2 291.3,109.2 292.6,109.2 293.9,112.3 295.2,112.3 296.5,112.3 297.8,112.3 299.1,112.3 300.4,114.5 301.7,114.5 303.0,114.5 304.3,114.5 305.6,114.5 306.9,117.2 308.2,117.2 309.5,117.2 310.8,117.2 312.1,117.2 313.4,118.5 314.7,118.5 316.0,118.5 317.3,118.5 318.6,118.5 319.9,123.5 321.2,123.5 322.5,123.5 323.8,123.5 325.1,123.5 326.3,122.8 327.6,122.8 328.9,122.8 330.2,122.8 331.5,122.8 332.8,123.8 334.1,123.8 335.4,123.8 336.7,123.8 338.0,123.8 339.3,129.4 340.6,129.4 341.9,129.4 343.2,129.4 344.5,129.4 345.8,130.7 347.1,130.7 348.4,130.7 349.7,130.7 351.0,130.7 352.3,133.5 353.6,133.5 354.9,133.5 356.2,133.5 357.5,133.5 358.8,131.0 360.1,131.0 361.4,131.0 362.7,131.0 364.0,131.0 365.3,135.7 366.6,135.7 367.9,135.7 369.1,135.7 370.4,135.7 371.7,139.7 373.0,139.7 374.3,139.7 375.6,139.7 376.9,139.7 378.2,140.5 379.5,140.5 380.8,140.5 382.1,140.5 383.4,140.5 384.7,143.7 386.0,143.7 387.3,143.7 388.6,143.7 389.9,143.7 391.2,145.7 392.5,145.7 393.8,145.7 395.1,145.7 396.4,145.7 397.7,148.8 399.0,148.8 400.3,148.8 401.6,148.8 402.9,148.8 404.2,144.4 405.5,144.4 406.8,144.4 408.1,144.4 409.4,144.4 410.6,149.4 411.9,149.4 413.2,149.4 414.5,149.4 415.8,149.4 417.1,153.8 418.4,153.8 419.7,153.8 421.0,153.8 422.3,153.8 423.6,155.9 424.9,155.9 426.2,155.9 427.5,155.9 428.8,155.9 430.1,157.7 431.4,157.7 432.7,157.7 434.0,157.7 435.3,157.7 436.6,159.0 437.9,159.0 439.2,159.0 440.5,159.0 441.8,159.0 443.1,157.1 444.4,157.1 445.7,157.1 447.0,157.1 448.3,157.1 449.6,162.3 450.9,162.3 452.1,162.3 453.4,162.3 454.7,162.3 456.0,163.8 457.3,163.8 458.6,163.8 459.9,163.8 461.2,163.8 462.5,165.7 463.8,165.7 465.1,165.7 466.4,165.7 467.7,165.7 469.0,170.8 470.3,170.8 471.6,170.8 472.9,170.8 474.2,170.8 475.5,168.8 476.8,168.8 478.1,168.8 479.4,168.8 480.7,168.8 482.0,171.4 483.3,171.4 484.6,171.4 485.9,171.4 487.2,171.4 488.5,175.6 489.8,175.6 491.1,175.6 492.4,175.6 493.7,175.6 494.9,176.8 496.2,176.8 497.5,176.8 498.8,176.8 500.1,176.8 501.4,177.4 502.7,177.4 504.0,177.4 505.3,177.4 506.6,177.4 507.9,180.1 509.2,180.1 510.5,180.1 511.8,180.1 513.1,180.1 514.4,186.1 515.7,186.1 517.0,186.1 518.3,186.1 519.6,186.1 520.9,182.7 522.2,182.7 523.5,182.7 524.8,182.7 526.1,182.7 527.4,187.7 528.7,187.7 530.0,187.7 531.3,187.7 532.6,187.7 533.9,189.2 535.2,189.2 536.4,189.2 537.7,189.2 539.0,189.2 540.3,192.3 541.6,192.3 542.9,192.3 544.2,192.3 545.5,192.3 546.8,193.4 548.1,193.4 549.4,193.4 550.7,193.4 552.0,193.4 553.3,196.3 554.6,196.3 555.9,196.3 557.2,196.3 558.5,196.3 559.8,198.2 561.1,198.2 562.4,198.2 563.7,198.2 565.0,198.2 566.3,199.9 567.6,199.9 568.9,199.9 570.2,199.9 571.5,199.9 572.8,202.7 574.1,202.7 575.4,202.7 576.7,202.7 577.9,202.7 579.2,202.5 580.5,202.5 581.8,202.5 583.1,202.5 584.4,202.5 585.7,205.0 587.0,205.0 588.3,205.0 589.6,205.0 590.9,205.0 592.2,206.6 593.5,206.6 594.8,206.6 596.1,206.6 597.4,206.6 598.7,210.1 600.0,210.1 601.3,210.1 602.6,210.1 603.9,210.1 605.2,211.6 606.5,211.6 607.8,211.6 609.1,211.6 610.4,211.6 611.7,213.6 613.0,213.6 614.3,213.6 615.6,213.6 616.9,213.6 618.2,215.2 619.4,215.2 620.7,215.2 622.0,215.2 623.3,215.2 624.6,218.9 625.9,218.9 627.2,218.9 628.5,218.9 629.8,218.9 631.1,221.5 632.4,221.5 633.7,221.5 635.0,221.5 636.3,221.5 637.6,223.0 638.9,223.0 640.2,223.0 641.5,223.0 642.8,223.0 644.1,222.8 645.4,222.8 646.7,222.8 648.0,222.8 649.3,222.8 650.6,227.3 651.9,227.3 653.2,227.3 654.5,227.3 655.8,227.3 657.1,230.0 658.4,230.0 659.7,230.0 661.0,230.0 662.2,230.0 663.5,230.2 664.8,230.2 666.1,230.2 667.4,230.2 668.7,230.2 670.0,233.1 671.3,233.1 672.6,233.1 673.9,233.1 675.2,233.1 676.5,235.5 677.8,235.5 679.1,235.5 680.4,235.5 681.7,235.5 683.0,237.2 684.3,237.2 685.6,237.2 686.9,237.2 688.2,237.2 689.5,238.5 690.8,238.5 692.1,238.5 693.4,238.5 694.7,238.5 696.0,241.7 697.3,241.7 698.6,241.7 699.9,241.7 701.2,241.7 702.5,245.3 703.7,245.3 705.0,245.3 706.3,245.3 707.6,245.3 708.9,245.3 710.2,245.3 711.5,245.3 712.8,245.3 714.1,245.3 715.4,246.5 716.7,246.5 718.0,246.5 719.3,246.5 720.6,246.5 721.9,252.0 723.2,252.0 724.5,252.0 725.8,252.0 727.1,252.0 728.4,252.4 729.7,252.4 731.0,252.4 732.3,252.4 733.6,252.4 734.9,254.1 736.2,254.1 737.5,254.1 738.8,254.1 740.1,254.1 741.4,255.1 742.7,255.1 744.0,255.1 745.2,255.1 746.5,255.1 747.8,261.1 749.1,261.1 750.4,261.1 751.7,261.1 753.0,261.1 754.3,260.6 755.6,260.6 756.9,260.6 758.2,260.6 759.5,260.6 760.8,265.4 762.1,265.4 763.4,265.4 764.7,265.4 766.0,265.4"/>
<line x1="606" y1="60" x2="628" y2="60" stroke="#24a148" stroke-width="2.2"/>
<text x="634" y="64" font-family="Arial" font-size="12">gps_z_m</text>
</svg>