<svg xmlns="http://www.w3.org/2000/svg" width="820" height="320" viewBox="0 0 820 320">
<rect width="100%" height="100%" fill="#ffffff"/>
<text x="54" y="28" font-family="Arial" font-size="18" font-weight="700">Heading Command Tracking</text>
<line x1="54" y1="266" x2="766" y2="266" stroke="#1f2933"/>
<line x1="54" y1="54" x2="54" y2="266" stroke="#1f2933"/>
<text x="54" y="306" font-family="Arial" font-size="12">time (s)</text>
<text x="596" y="306" font-family="Arial" font-size="12">heading (deg)</text>
<text x="58" y="68" font-family="Arial" font-size="11">180</text>
<text x="58" y="260" font-family="Arial" font-size="11">-179</text>
<polyline fill="none" stroke="#0f62fe" stroke-width="2.2" points="54.0,150.8 55.3,150.8 56.6,150.8 57.9,150.8 59.2,150.8 60.5,150.8 61.8,150.8 63.1,150.8 64.4,150.7 65.7,150.7 67.0,150.7 68.3,150.7 69.6,150.7 70.9,150.7 72.2,150.7 73.5,150.6 74.8,150.6 76.0,150.6 77.3,150.6 78.6,150.6 79.9,150.6 81.2,150.5 82.5,150.5 83.8,150.5 85.1,150.5 86.4,150.5 87.7,150.5 89.0,150.4 90.3,150.4 91.6,150.4 92.9,150.4 94.2,150.4 95.5,150.4 96.8,150.4 98.1,150.3 99.4,150.3 100.7,150.3 102.0,150.3 103.3,150.3 104.6,150.3 105.9,150.3 107.2,150.3 108.5,150.3 109.8,150.3 111.1,150.3 112.4,150.3 113.7,150.3 115.0,150.3 116.3,150.3 117.5,150.3 118.8,150.3 120.1,150.3 121.4,150.3 122.7,150.3 124.0,150.3 125.3,150.3 126.6,150.3 127.9,150.3 129.2,150.3 130.5,150.3 131.8,150.3 133.1,150.3 134.4,150.3 135.7,150.3 137.0,150.3 138.3,150.3 139.6,150.3 140.9,150.3 142.2,150.3 143.5,150.3 144.8,150.3 146.1,150.3 147.4,150.3 148.7,150.3 150.0,150.3 151.3,150.3 152.6,150.3 153.9,150.3 155.2,150.3 156.5,150.3 157.8,150.3 159.0,150.3 160.3,150.3 161.6,150.3 162.9,150.3 164.2,150.3 165.5,150.3 166.8,150.3 168.1,150.3 169.4,150.3 170.7,150.3 172.0,150.3 173.3,150.3 174.6,150.3 175.9,150.3 177.2,150.3 178.5,150.3 179.8,150.3 181.1,150.3 182.4,150.3 183.7,150.3 185.0,150.3 186.3,150.3 187.6,150.3 188.9,150.4 190.2,150.4 191.5,150.4 192.8,150.4 194.1,150.4 195.4,150.4 196.7,150.4 198.0,150.4 199.3,150.4 200.6,150.4 201.8,150.4 203.1,150.4 204.4,150.4 205.7,150.4 207.0,150.4 208.3,150.4 209.6,150.4 210.9,150.4 212.2,150.4 213.5,150.4 214.8,150.4 216.1,150.4 217.4,150.4 218.7,150.4 220.0,150.4 221.3,150.4 222.6,150.4 223.9,150.4 225.2,150.5 226.5,150.5 227.8,150.5 229.1,150.5 230.4,150.5 231.7,150.5 233.0,150.5 234.3,150.5 235.6,150.5 236.9,150.5 238.2,150.5 239.5,150.5 240.8,150.5 242.1,150.5 243.3,150.6 244.6,150.6 245.9,150.6 247.2,150.6 248.5,150.6 249.8,150.6 251.1,150.6 252.4,150.6 253.7,150.7 255.0,150.7 256.3,150.7 257.6,150.7 258.9,150.7 260.2,150.7 261.5,150.8 262.8,150.8 264.1,150.8 265.4,150.8 266.7,150.8 268.0,150.8 269.3,150.9 270.6,150.9 271.9,150.9 273.2,150.9 274.5,150.9 275.8,150.9 277.1,151.0 278.4,151.0 279.7,151.0 281.0,151.0 282.3,151.0 283.6,151.1 284.8,151.1 286.1,151.1 287.4,151.1 288.7,151.1 290.0,151.2 291.3,151.2 292.6,151.2 293.9,151.2 295.2,151.3 296.5,151.3 297.8,151.3 299.1,151.3 300.4,151.4 301.7,151.4 303.0,151.4 304.3,151.4 305.6,151.5 306.9,151.5 308.2,151.5 309.5,151.5 310.8,151.6 312.1,151.6 313.4,151.6 314.7,151.6 316.0,151.7 317.3,151.7 318.6,151.7 319.9,151.8 321.2,151.8 322.5,151.8 323.8,151.8 325.1,151.9 326.3,151.9 327.6,151.9 328.9,152.0 330.2,152.0 331.5,152.0 332.8,152.0 334.1,152.1 335.4,152.1 336.7,152.1 338.0,152.1 339.3,152.2 340.6,152.2 341.9,152.2 343.2,152.2 344.5,152.3 345.8,152.3 347.1,152.3 348.4,152.3 349.7,152.3 351.0,152.4 352.3,152.4 353.6,152.4 354.9,152.4 356.2,152.4 357.5,152.4 358.8,152.5 360.1,152.5 361.4,152.5 362.7,152.5 364.0,152.5 365.3,152.5 366.6,152.6 367.9,152.6 369.1,152.6 370.4,152.6 371.7,152.6 373.0,152.6 374.3,152.6 375.6,152.7 376.9,152.7 378.2,152.7 379.5,152.7 380.8,152.7 382.1,152.7 383.4,152.8 384.7,152.8 386.0,152.8 387.3,152.8 388.6,152.8 389.9,152.9 391.2,152.9 392.5,152.9 393.8,152.9 395.1,152.9 396.4,153.0 397.7,153.0 399.0,153.0 400.3,153.0 401.6,153.0 402.9,153.0 404.2,153.1 405.5,153.1 406.8,153.1 408.1,153.1 409.4,153.1 410.6,153.1 411.9,153.1 413.2,153.2 414.5,153.2 415.8,153.2 417.1,153.2 418.4,153.2 419.7,153.2 421.0,153.2 422.3,153.2 423.6,153.3 424.9,153.3 426.2,153.3 427.5,153.3 428.8,153.3 430.1,153.3 431.4,153.3 432.7,153.3 434.0,153.4 435.3,153.4 436.6,153.4 437.9,153.4 439.2,153.4 440.5,153.4 441.8,153.5 443.1,153.5 444.4,153.5 445.7,153.5 447.0,153.5 448.3,153.5 449.6,153.6 450.9,153.6 452.1,153.6 453.4,153.6 454.7,153.6 456.0,153.6 457.3,153.7 458.6,153.7 459.9,153.7 461.2,153.7 462.5,153.7 463.8,153.7 465.1,153.7 466.4,153.8 467.7,153.8 469.0,153.8 470.3,153.8 471.6,153.8 472.9,153.8 474.2,153.8 475.5,153.8 476.8,153.9 478.1,153.9 479.4,153.9 480.7,153.9 482.0,153.9 483.3,153.9 484.6,153.9 485.9,154.0 487.2,154.0 488.5,154.0 489.8,154.0 491.1,154.0 492.4,154.0 493.7,154.0 494.9,154.1 496.2,154.1 497.5,154.1 498.8,154.1 500.1,154.1 501.4,154.1 502.7,154.1 504.0,154.1 505.3,154.2 506.6,154.2 507.9,154.2 509.2,154.2 510.5,154.2 511.8,154.2 513.1,154.2 514.4,154.2 515.7,154.2 517.0,154.3 518.3,154.3 519.6,154.3 520.9,154.3 522.2,154.3 523.5,154.3 524.8,154.3 526.1,154.4 527.4,154.4 528.7,154.4 530.0,154.4 531.3,154.4 532.6,154.4 533.9,154.4 535.2,154.5 536.4,154.5 537.7,154.5 539.0,154.5 540.3,154.5 541.6,154.5 542.9,154.5 544.2,154.6 545.5,154.6 546.8,154.6 548.1,154.6 549.4,154.6 550.7,154.6 552.0,154.7 553.3,154.7 554.6,154.7 555.9,154.7 557.2,154.7 558.5,154.7 559.8,154.7 561.1,154.8 562.4,154.8 563.7,154.8 565.0,154.8 566.3,154.8 567.6,154.8 568.9,154.8 570.2,154.9 571.5,154.9 572.8,154.9 574.1,154.9 575.4,154.9 576.7,154.9 577.9,154.9 579.2,155.0 580.5,155.0 581.8,155.0 583.1,155.0 584.4,155.0 585.7,155.0 587.0,155.0 588.3,155.0 589.6,155.0 590.9,155.1 592.2,155.1 593.5,155.1 594.8,155.1 596.1,155.1 597.4,155.1 598.7,155.1 600.0,155.1 601.3,155.1 602.6,155.1 603.9,155.1 605.2,155.2 606.5,155.2 607.8,155.2 609.1,155.2 610.4,155.2 611.7,155.2 613.0,155.2 614.3,155.3 615.6,155.3 616.9,155.3 618.2,155.3 619.4,155.3 620.7,155.3 622.0,155.3 623.3,155.4 624.6,155.4 625.9,155.4 627.2,155.4 628.5,155.4 629.8,155.5 631.1,155.5 632.4,155.5 633.7,155.5 635.0,155.5 636.3,155.5 637.6,155.5 638.9,155.6 640.2,155.6 641.5,155.6 642.8,155.6 644.1,155.6 645.4,155.6 646.7,155.6 648.0,155.6 649.3,155.7 650.6,155.7 651.9,155.7 653.2,155.7 654.5,155.7 655.8,155.7 657.1,155.7 658.4,155.7 659.7,155.8 661.0,155.8 662.2,155.8 663.5,155.8 664.8,155.8 666.1,155.8 667.4,155.8 668.7,155.9 670.0,155.9 671.3,155.9 672.6,155.9 673.9,155.9 675.2,155.9 676.5,156.0 677.8,156.0 679.1,156.0 680.4,156.0 681.7,156.0 683.0,156.0 684.3,156.1 685.6,156.1 686.9,156.1 688.2,156.1 689.5,156.1 690.8,156.1 692.1,156.1 693.4,156.1 694.7,156.2 696.0,156.2 697.3,156.2 698.6,156.2 699.9,156.2 701.2,156.2 702.5,156.2 703.7,156.3 705.0,156.3 706.3,156.3 707.6,156.3 708.9,156.3 710.2,156.4 711.5,156.4 712.8,156.4 714.1,156.4 715.4,156.4 716.7,156.5 718.0,156.5 719.3,156.5 720.6,156.5 721.9,156.5 723.2,156.5 724.5,156.6 725.8,156.6 727.1,156.6 728.4,156.6 729.7,156.6 731.0,156.6 732.3,156.7 733.6,156.7 734.9,156.7 736.2,156.7 737.5,156.7 738.8,156.7 740.1,156.7 741.4,156.8 742.7,156.8 744.0,156.8 745.2,156.8 746.5,156.8 747.8,156.8 749.1,156.9 750.4,156.9 751.7,156.9 753.0,156.9 754.3,156.9 755.6,157.0 756.9,157.0 758.2,157.0 759.5,157.0 760.8,157.1 762.1,157.1 763.4,157.1 764.7,157.1 766.0,157.1"/>
<line x1="606" y1="42" x2="628" y2="42" stroke="#0f62fe" stroke-width="2.2"/>
<text x="634" y="46" font-family="Arial" font-size="12">heading_command_deg</text>
<polyline fill="none" stroke="#24a148" stroke-width="2.2" points="54.0,158.0 55.3,159.1 56.6,161.1 57.9,164.2 59.2,168.4 60.5,172.8 61.8,176.2 63.1,178.5 64.4,179.8 65.7,180.0 67.0,179.2 68.3,177.3 69.6,174.4 70.9,171.3 72.2,169.0 73.5,167.7 74.8,167.4 76.0,168.2 77.3,170.0 78.6,172.4 79.9,173.9 81.2,174.3 82.5,173.6 83.8,172.2 85.1,170.4 86.4,168.3 87.7,166.0 89.0,163.7 90.3,161.4 91.6,159.0 92.9,156.6 94.2,154.0 95.5,151.0 96.8,147.9 98.1,144.6 99.4,141.3 100.7,137.6 102.0,133.6 103.3,129.2 104.6,124.5 105.9,119.5 107.2,113.8 108.5,107.2 109.8,98.9 111.1,87.4 112.4,70.4 113.7,262.4 115.0,245.6 116.3,234.7 117.5,227.4 118.8,221.7 120.1,216.7 121.4,211.9 122.7,207.1 124.0,202.1 125.3,196.9 126.6,191.7 127.9,186.6 129.2,181.9 130.5,177.7 131.8,174.0 133.1,170.8 134.4,168.0 135.7,165.5 137.0,163.2 138.3,161.3 139.6,159.8 140.9,159.0 142.2,159.4 143.5,161.0 144.8,163.8 146.1,167.6 147.4,172.2 148.7,177.2 150.0,182.3 151.3,187.3 152.6,192.2 153.9,196.9 155.2,201.4 156.5,205.7 157.8,209.9 159.0,214.0 160.3,218.3 161.6,222.7 162.9,227.5 164.2,232.6 165.5,238.2 166.8,244.3 168.1,251.2 169.4,258.8 170.7,54.2 172.0,62.5 173.3,70.6 174.6,78.4 175.9,85.8 177.2,92.8 178.5,99.9 179.8,107.2 181.1,114.9 182.4,123.4 183.7,132.3 185.0,141.4 186.3,150.1 187.6,158.0 188.9,164.9 190.2,170.8 191.5,175.7 192.8,179.7 194.1,182.8 195.4,185.1 196.7,186.5 198.0,187.1 199.3,186.9 200.6,185.9 201.8,183.9 203.1,180.8 204.4,176.1 205.7,169.4 207.0,160.6 208.3,150.7 209.6,141.6 210.9,134.5 212.2,130.0 213.5,127.6 214.8,127.0 216.1,127.9 217.4,129.7 218.7,132.4 220.0,135.9 221.3,139.8 222.6,144.0 223.9,148.0 225.2,151.5 226.5,154.2 227.8,155.9 229.1,156.6 230.4,156.4 231.7,155.2 233.0,153.1 234.3,150.0 235.6,145.7 236.9,139.9 238.2,132.6 239.5,124.3 240.8,116.5 242.1,110.0 243.3,105.5 244.6,103.0 245.9,102.4 247.2,103.3 248.5,105.5 249.8,109.0 251.1,113.7 252.4,119.2 253.7,125.0 255.0,130.6 256.3,135.8 257.6,140.1 258.9,143.2 260.2,145.3 261.5,146.3 262.8,146.3 264.1,145.2 265.4,143.1 266.7,140.0 268.0,135.8 269.3,130.2 270.6,123.5 271.9,116.5 273.2,110.1 274.5,105.0 275.8,101.2 277.1,99.0 278.4,98.2 279.7,98.8 281.0,100.6 282.3,103.5 283.6,107.0 284.8,110.7 286.1,113.9 287.4,116.5 288.7,118.2 290.0,119.1 291.3,119.1 292.6,118.4 293.9,117.4 295.2,116.1 296.5,114.9 297.8,114.0 299.1,113.3 300.4,113.0 301.7,113.1 303.0,113.5 304.3,114.2 305.6,115.1 306.9,116.1 308.2,117.2 309.5,118.4 310.8,119.5 312.1,120.7 313.4,122.0 314.7,123.3 316.0,124.7 317.3,126.2 318.6,128.0 319.9,130.2 321.2,132.9 322.5,136.2 323.8,140.2 325.1,145.0 326.3,150.6 327.6,157.0 328.9,163.8 330.2,170.8 331.5,177.4 332.8,183.5 334.1,188.6 335.4,192.7 336.7,195.9 338.0,198.2 339.3,199.8 340.6,200.8 341.9,201.4 343.2,201.5 344.5,201.2 345.8,200.6 347.1,199.8 348.4,198.7 349.7,197.3 351.0,195.7 352.3,194.0 353.6,192.0 354.9,189.8 356.2,187.3 357.5,184.7 358.8,181.9 360.1,178.7 361.4,175.1 362.7,170.8 364.0,165.8 365.3,160.2 366.6,153.8 367.9,147.1 369.1,140.4 370.4,134.1 371.7,128.7 373.0,124.2 374.3,120.7 375.6,118.4 376.9,117.1 378.2,116.7 379.5,117.2 380.8,118.4 382.1,120.2 383.4,122.4 384.7,124.8 386.0,127.6 387.3,130.6 388.6,133.9 389.9,137.5 391.2,141.5 392.5,145.7 393.8,150.1 395.1,154.9 396.4,159.7 397.7,164.5 399.0,169.0 400.3,173.2 401.6,177.2 402.9,180.8 404.2,184.3 405.5,187.7 406.8,191.0 408.1,194.5 409.4,198.2 410.6,202.2 411.9,206.7 413.2,211.6 414.5,217.0 415.8,223.0 417.1,229.7 418.4,237.1 419.7,245.3 421.0,254.3 422.3,264.1 423.6,61.2 424.9,70.8 426.2,79.5 427.5,86.9 428.8,93.2 430.1,98.5 431.4,102.9 432.7,106.9 434.0,110.6 435.3,114.3 436.6,118.1 437.9,122.2 439.2,126.9 440.5,132.6 441.8,139.2 443.1,146.9 444.4,155.6 445.7,165.1 447.0,175.0 448.3,184.9 449.6,194.1 450.9,202.4 452.1,209.5 453.4,215.4 454.7,220.4 456.0,224.5 457.3,228.0 458.6,231.2 459.9,234.0 461.2,236.8 462.5,239.6 463.8,242.5 465.1,245.7 466.4,249.2 467.7,253.2 469.0,257.7 470.3,263.0 471.6,55.9 472.9,62.0 474.2,68.5 475.5,75.3 476.8,82.1 478.1,89.0 479.4,96.0 480.7,103.1 482.0,110.3 483.3,117.8 484.6,125.7 485.9,134.0 487.2,142.6 488.5,151.7 489.8,161.0 491.1,170.3 492.4,179.4 493.7,188.1 494.9,196.5 496.2,204.5 497.5,212.3 498.8,220.0 500.1,227.8 501.4,235.8 502.7,244.1 504.0,252.9 505.3,262.2 506.6,59.0 507.9,68.8 509.2,78.7 510.5,88.5 511.8,98.2 513.1,107.9 514.4,118.0 515.7,128.5 517.0,139.6 518.3,151.6 519.6,164.3 520.9,177.7 522.2,191.7 523.5,205.6 524.8,219.0 526.1,231.6 527.4,243.4 528.7,254.6 530.0,265.4 531.3,63.2 532.6,73.6 533.9,84.1 535.2,94.5 536.4,104.8 537.7,115.3 539.0,126.4 540.3,138.2 541.6,151.0 542.9,164.8 544.2,179.3 545.5,193.3 546.8,205.9 548.1,217.0 549.4,227.1 550.7,236.6 552.0,246.0 553.3,255.8 554.6,266.0 555.9,63.4 557.2,73.5 558.5,83.2 559.8,92.9 561.1,102.8 562.4,113.3 563.7,124.6 565.0,136.9 566.3,149.4 567.6,160.9 568.9,170.7 570.2,178.5 571.5,184.7 572.8,189.8 574.1,193.9 575.4,197.4 576.7,200.5 577.9,203.3 579.2,206.1 580.5,208.9 581.8,212.0 583.1,215.4 584.4,219.3 585.7,223.8 587.0,229.1 588.3,235.1 589.6,242.1 590.9,250.0 592.2,259.1 593.5,56.7 594.8,68.1 596.1,79.7 597.4,90.3 598.7,99.4 600.0,106.7 601.3,112.5 602.6,116.9 603.9,120.2 605.2,122.4 606.5,123.7 607.8,124.0 609.1,123.3 610.4,121.6 611.7,118.8 613.0,115.1 614.3,110.4 615.6,104.6 616.9,97.7 618.2,89.7 619.4,80.5 620.7,70.1 622.0,59.0 623.3,260.6 624.6,250.3 625.9,241.4 627.2,234.1 628.5,228.0 629.8,223.1 631.1,219.2 632.4,216.3 633.7,214.3 635.0,213.3 636.3,213.3 637.6,214.3 638.9,216.3 640.2,219.3 641.5,223.2 642.8,228.1 644.1,234.1 645.4,241.1 646.7,249.6 648.0,259.8 649.3,58.5 650.6,70.4 651.9,81.0 653.2,89.6 654.5,96.3 655.8,101.4 657.1,105.2 658.4,108.1 659.7,110.0 661.0,111.1 662.2,111.4 663.5,110.8 664.8,109.5 666.1,107.4 667.4,104.4 668.7,100.6 670.0,95.8 671.3,89.5 672.6,80.7 673.9,69.1 675.2,55.8 676.5,257.0 677.8,248.6 679.1,243.2 680.4,240.0 681.7,238.4 683.0,237.9 684.3,238.3 685.6,239.8 686.9,242.2 688.2,245.6 689.5,250.0 690.8,255.9 692.1,263.7 693.4,61.3 694.7,73.0 696.0,83.2 697.3,90.6 698.6,95.4 699.9,98.0 701.2,99.1 702.5,98.8 703.7,97.4 705.0,94.9 706.3,91.3 707.6,86.5 708.9,80.5 710.2,73.2 711.5,64.4 712.8,54.0 714.1,255.9 715.4,246.7 716.7,239.5 718.0,234.1 719.3,230.3 720.6,227.6 721.9,225.8 723.2,225.0 724.5,224.9 725.8,225.6 727.1,227.2 728.4,229.6 729.7,232.8 731.0,236.9 732.3,242.2 733.6,249.4 734.9,259.6 736.2,61.3 737.5,76.5 738.8,88.3 740.1,95.8 741.4,100.5 742.7,103.3 744.0,104.9 745.2,105.7 746.5,105.9 747.8,105.3 749.1,104.0 750.4,102.0 751.7,99.1 753.0,95.1 754.3,89.2 755.6,80.0 756.9,66.9 758.2,265.7 759.5,255.1 760.8,248.9 762.1,245.8 763.4,244.9 764.7,245.4 766.0,247.2"/>
<line x1="606" y1="60" x2="628" y2="60" stroke="#24a148" stroke-width="2.2"/>
<text x="634" y="64" font-family="Arial" font-size="12">yaw_deg</text>
</svg>