<svg xmlns="http://www.w3.org/2000/svg" width="820" height="320" viewBox="0 0 820 320">
<rect width="100%" height="100%" fill="#ffffff"/>
<text x="54" y="28" font-family="Arial" font-size="18" font-weight="700">Specific Energy</text>
<line x1="54" y1="266" x2="766" y2="266" stroke="#1f2933"/>
<line x1="54" y1="54" x2="54" y2="266" stroke="#1f2933"/>
<text x="54" y="306" font-family="Arial" font-size="12">time (s)</text>
<text x="596" y="306" font-family="Arial" font-size="12">J/kg</text>
<text x="58" y="68" font-family="Arial" font-size="11">5.3e+03</text>
<text x="58" y="260" font-family="Arial" font-size="11">426</text>
<polyline fill="none" stroke="#0f62fe" stroke-width="2.2" points="54.0,54.0 55.3,54.3 56.6,54.5 57.9,54.6 59.2,54.6 60.5,54.7 61.8,55.0 63.1,55.5 64.4,56.1 65.7,56.7 67.0,57.2 68.3,57.6 69.6,57.8 70.9,57.9 72.2,57.9 73.5,57.8 74.8,57.8 76.0,57.7 77.3,57.6 78.6,57.6 79.9,57.5 81.2,57.6 82.5,57.8 83.8,57.9 85.1,58.1 86.4,58.1 87.7,58.0 89.0,58.0 90.3,58.0 91.6,58.1 92.9,58.3 94.2,58.6 95.5,59.3 96.8,60.2 98.1,61.3 99.4,62.5 100.7,63.8 102.0,65.1 103.3,66.5 104.6,67.8 105.9,69.1 107.2,70.3 108.5,71.6 109.8,72.8 111.1,73.9 112.4,75.1 113.7,76.2 115.0,77.2 116.3,78.3 117.5,79.3 118.8,80.4 120.1,81.3 121.4,82.3 122.7,83.2 124.0,84.0 125.3,84.8 126.6,85.5 127.9,86.1 129.2,86.6 130.5,87.1 131.8,87.5 133.1,87.8 134.4,88.1 135.7,88.2 137.0,88.1 138.3,87.9 139.6,87.7 140.9,87.5 142.2,87.3 143.5,87.0 144.8,86.8 146.1,86.5 147.4,86.3 148.7,86.3 150.0,86.5 151.3,86.9 152.6,87.3 153.9,87.8 155.2,88.3 156.5,88.8 157.8,89.4 159.0,89.9 160.3,90.5 161.6,91.1 162.9,91.7 164.2,92.3 165.5,92.9 166.8,93.4 168.1,94.0 169.4,94.6 170.7,95.2 172.0,95.8 173.3,96.3 174.6,96.8 175.9,97.3 177.2,97.9 178.5,98.3 179.8,98.8 181.1,99.2 182.4,99.6 183.7,99.9 185.0,100.2 186.3,100.5 187.6,100.8 188.9,101.1 190.2,101.4 191.5,101.8 192.8,102.3 194.1,102.7 195.4,103.2 196.7,103.6 198.0,104.1 199.3,104.4 200.6,104.8 201.8,104.9 203.1,105.0 204.4,105.0 205.7,105.0 207.0,104.9 208.3,104.8 209.6,104.7 210.9,104.8 212.2,105.0 213.5,105.3 214.8,105.6 216.1,106.0 217.4,106.3 218.7,106.7 220.0,107.1 221.3,107.4 222.6,107.8 223.9,108.1 225.2,108.5 226.5,108.9 227.8,109.3 229.1,109.7 230.4,110.2 231.7,110.6 233.0,111.1 234.3,111.4 235.6,111.8 236.9,112.0 238.2,112.2 239.5,112.4 240.8,112.6 242.1,112.8 243.3,113.1 244.6,113.5 245.9,113.9 247.2,114.3 248.5,114.7 249.8,115.2 251.1,115.5 252.4,115.9 253.7,116.2 255.0,116.5 256.3,116.9 257.6,117.2 258.9,117.6 260.2,118.0 261.5,118.4 262.8,118.8 264.1,119.3 265.4,119.7 266.7,120.1 268.0,120.5 269.3,120.8 270.6,121.0 271.9,121.2 273.2,121.4 274.5,121.7 275.8,122.0 277.1,122.3 278.4,122.7 279.7,123.1 281.0,123.5 282.3,123.9 283.6,124.3 284.8,124.7 286.1,125.1 287.4,125.4 288.7,125.8 290.0,126.2 291.3,126.5 292.6,126.9 293.9,127.3 295.2,127.6 296.5,128.0 297.8,128.4 299.1,128.8 300.4,129.2 301.7,129.6 303.0,130.0 304.3,130.4 305.6,130.7 306.9,131.1 308.2,131.5 309.5,131.9 310.8,132.2 312.1,132.6 313.4,132.9 314.7,133.3 316.0,133.6 317.3,134.0 318.6,134.3 319.9,134.6 321.2,135.0 322.5,135.3 323.8,135.6 325.1,135.9 326.3,136.3 327.6,136.6 328.9,137.0 330.2,137.4 331.5,137.9 332.8,138.3 334.1,138.9 335.4,139.4 336.7,140.0 338.0,140.6 339.3,141.2 340.6,141.9 341.9,142.5 343.2,143.1 344.5,143.7 345.8,144.3 347.1,144.9 348.4,145.5 349.7,146.0 351.0,146.6 352.3,147.2 353.6,147.7 354.9,148.3 356.2,148.8 357.5,149.3 358.8,149.8 360.1,150.3 361.4,150.8 362.7,151.3 364.0,151.8 365.3,152.2 366.6,152.6 367.9,153.0 369.1,153.4 370.4,153.7 371.7,154.0 373.0,154.4 374.3,154.7 375.6,155.0 376.9,155.4 378.2,155.8 379.5,156.1 380.8,156.5 382.1,156.9 383.4,157.2 384.7,157.6 386.0,157.9 387.3,158.2 388.6,158.6 389.9,158.9 391.2,159.3 392.5,159.6 393.8,160.0 395.1,160.4 396.4,160.8 397.7,161.2 399.0,161.6 400.3,162.0 401.6,162.5 402.9,163.0 404.2,163.5 405.5,164.0 406.8,164.5 408.1,165.0 409.4,165.4 410.6,165.9 411.9,166.4 413.2,166.9 414.5,167.4 415.8,168.0 417.1,168.5 418.4,169.0 419.7,169.5 421.0,169.9 422.3,170.4 423.6,170.8 424.9,171.2 426.2,171.5 427.5,171.9 428.8,172.2 430.1,172.5 431.4,172.8 432.7,173.2 434.0,173.5 435.3,173.8 436.6,174.1 437.9,174.4 439.2,174.7 440.5,175.0 441.8,175.3 443.1,175.5 444.4,175.8 445.7,176.1 447.0,176.4 448.3,176.8 449.6,177.1 450.9,177.6 452.1,178.0 453.4,178.5 454.7,179.0 456.0,179.5 457.3,180.0 458.6,180.5 459.9,181.1 461.2,181.5 462.5,182.0 463.8,182.5 465.1,183.0 466.4,183.4 467.7,183.9 469.0,184.3 470.3,184.8 471.6,185.2 472.9,185.6 474.2,186.0 475.5,186.3 476.8,186.7 478.1,187.0 479.4,187.3 480.7,187.6 482.0,187.9 483.3,188.2 484.6,188.5 485.9,188.8 487.2,189.1 488.5,189.4 489.8,189.7 491.1,190.1 492.4,190.5 493.7,190.9 494.9,191.3 496.2,191.7 497.5,192.2 498.8,192.7 500.1,193.2 501.4,193.7 502.7,194.1 504.0,194.6 505.3,195.1 506.6,195.5 507.9,195.9 509.2,196.2 510.5,196.5 511.8,196.8 513.1,197.1 514.4,197.5 515.7,197.8 517.0,198.1 518.3,198.4 519.6,198.8 520.9,199.2 522.2,199.6 523.5,200.0 524.8,200.5 526.1,201.0 527.4,201.5 528.7,201.9 530.0,202.4 531.3,202.9 532.6,203.3 533.9,203.7 535.2,204.0 536.4,204.3 537.7,204.6 539.0,204.8 540.3,205.1 541.6,205.4 542.9,205.7 544.2,206.0 545.5,206.3 546.8,206.7 548.1,207.1 549.4,207.6 550.7,208.1 552.0,208.6 553.3,209.1 554.6,209.7 555.9,210.1 557.2,210.6 558.5,210.9 559.8,211.2 561.1,211.4 562.4,211.6 563.7,211.8 565.0,212.0 566.3,212.2 567.6,212.4 568.9,212.7 570.2,213.1 571.5,213.5 572.8,214.0 574.1,214.5 575.4,215.0 576.7,215.5 577.9,216.1 579.2,216.6 580.5,217.1 581.8,217.5 583.1,218.0 584.4,218.5 585.7,218.9 587.0,219.4 588.3,219.8 589.6,220.3 590.9,220.7 592.2,221.1 593.5,221.4 594.8,221.7 596.1,221.9 597.4,222.1 598.7,222.2 600.0,222.4 601.3,222.6 602.6,222.9 603.9,223.3 605.2,223.6 606.5,224.0 607.8,224.4 609.1,224.7 610.4,225.1 611.7,225.4 613.0,225.8 614.3,226.1 615.6,226.4 616.9,226.7 618.2,227.0 619.4,227.2 620.7,227.5 622.0,227.7 623.3,227.9 624.6,228.1 625.9,228.4 627.2,228.8 628.5,229.3 629.8,229.8 631.1,230.3 632.4,230.8 633.7,231.4 635.0,231.9 636.3,232.4 637.6,232.9 638.9,233.4 640.2,233.9 641.5,234.4 642.8,234.9 644.1,235.3 645.4,235.8 646.7,236.2 648.0,236.6 649.3,236.8 650.6,237.1 651.9,237.2 653.2,237.4 654.5,237.5 655.8,237.8 657.1,238.1 658.4,238.4 659.7,238.8 661.0,239.3 662.2,239.7 663.5,240.1 664.8,240.5 666.1,240.9 667.4,241.3 668.7,241.6 670.0,241.9 671.3,242.1 672.6,242.3 673.9,242.4 675.2,242.4 676.5,242.6 677.8,242.8 679.1,243.0 680.4,243.4 681.7,243.9 683.0,244.3 684.3,244.8 685.6,245.3 686.9,245.8 688.2,246.2 689.5,246.6 690.8,247.0 692.1,247.3 693.4,247.4 694.7,247.5 696.0,247.6 697.3,247.7 698.6,247.9 699.9,248.1 701.2,248.5 702.5,248.8 703.7,249.2 705.0,249.6 706.3,249.9 707.6,250.3 708.9,250.6 710.2,250.8 711.5,251.1 712.8,251.3 714.1,251.5 715.4,251.8 716.7,252.2 718.0,252.7 719.3,253.4 720.6,254.1 721.9,254.9 723.2,255.6 724.5,256.4 725.8,257.1 727.1,257.8 728.4,258.4 729.7,259.0 731.0,259.6 732.3,260.0 733.6,260.3 734.9,260.6 736.2,260.7 737.5,260.7 738.8,260.7 740.1,260.8 741.4,261.0 742.7,261.3 744.0,261.7 745.2,262.1 746.5,262.5 747.8,262.9 749.1,263.2 750.4,263.5 751.7,263.6 753.0,263.6 754.3,263.6 755.6,263.4 756.9,263.3 758.2,263.3 759.5,263.5 760.8,263.8 762.1,264.2 763.4,264.8 764.7,265.4 766.0,266.0"/>
<line x1="606" y1="42" x2="628" y2="42" stroke="#0f62fe" stroke-width="2.2"/>
<text x="634" y="46" font-family="Arial" font-size="12">energy_j_per_kg</text>
</svg>