<svg xmlns="http://www.w3.org/2000/svg" width="820" height="320" viewBox="0 0 820 320">
<rect width="100%" height="100%" fill="#ffffff"/>
<text x="54" y="28" font-family="Arial" font-size="18" font-weight="700">Velocity Y</text>
<line x1="54" y1="266" x2="766" y2="266" stroke="#1f2933"/>
<line x1="54" y1="54" x2="54" y2="266" stroke="#1f2933"/>
<text x="54" y="306" font-family="Arial" font-size="12">time (s)</text>
<text x="596" y="306" font-family="Arial" font-size="12">vy (m/s)</text>
<text x="58" y="68" font-family="Arial" font-size="11">4.61</text>
<text x="58" y="260" font-family="Arial" font-size="11">-27.1</text>
<polyline fill="none" stroke="#0f62fe" stroke-width="2.2" points="54.0,84.8 55.3,84.8 56.5,84.8 57.8,84.7 59.1,84.7 60.4,84.7 61.6,84.6 62.9,84.6 64.2,84.6 65.4,84.6 66.7,84.6 68.0,84.7 69.3,84.8 70.5,85.0 71.8,85.2 73.1,85.5 74.3,85.8 75.6,86.2 76.9,86.7 78.2,87.2 79.4,87.8 80.7,88.5 82.0,89.2 83.2,90.0 84.5,90.9 85.8,91.8 87.1,92.8 88.3,93.7 89.6,94.8 90.9,95.8 92.1,96.8 93.4,97.9 94.7,98.9 96.0,99.9 97.2,100.8 98.5,101.7 99.8,102.5 101.0,103.3 102.3,103.9 103.6,104.5 104.9,104.9 106.1,105.2 107.4,105.3 108.7,105.2 109.9,104.8 111.2,104.2 112.5,103.3 113.8,102.0 115.0,100.2 116.3,98.1 117.6,95.6 118.8,92.7 120.1,89.5 121.4,86.1 122.7,82.4 123.9,78.6 125.2,74.8 126.5,71.1 127.7,67.6 129.0,64.3 130.3,61.4 131.6,58.9 132.8,56.9 134.1,55.3 135.4,54.4 136.6,54.0 137.9,54.2 139.2,55.0 140.5,56.4 141.7,58.4 143.0,60.9 144.3,63.8 145.5,67.0 146.8,70.5 148.1,74.1 149.4,77.7 150.6,81.1 151.9,84.3 153.2,86.9 154.4,88.9 155.7,90.5 157.0,91.8 158.3,92.7 159.5,93.4 160.8,93.8 162.1,93.8 163.3,93.5 164.6,92.7 165.9,91.5 167.2,89.7 168.4,87.5 169.7,84.8 171.0,81.6 172.2,78.3 173.5,74.9 174.8,71.6 176.1,68.6 177.3,66.1 178.6,64.1 179.9,62.7 181.1,62.0 182.4,61.9 183.7,62.7 185.0,64.2 186.2,66.4 187.5,69.4 188.8,72.8 190.0,76.6 191.3,80.4 192.6,84.1 193.9,87.5 195.1,90.7 196.4,93.7 197.7,96.6 198.9,99.3 200.2,101.9 201.5,104.1 202.8,105.8 204.0,106.9 205.3,107.5 206.6,107.3 207.8,106.4 209.1,104.7 210.4,102.3 211.7,99.4 212.9,96.5 214.2,93.8 215.5,91.7 216.7,90.4 218.0,90.1 219.3,90.7 220.6,92.2 221.8,94.6 223.1,97.8 224.4,101.4 225.6,105.4 226.9,109.8 228.2,114.4 229.5,119.5 230.7,125.0 232.0,130.9 233.3,136.5 234.5,140.4 235.8,142.0 237.1,141.3 238.4,138.4 239.6,134.0 240.9,128.8 242.2,123.3 243.4,118.3 244.7,114.4 246.0,112.2 247.3,112.0 248.5,113.8 249.8,117.4 251.1,122.2 252.3,127.4 253.6,132.3 254.9,136.1 256.2,138.3 257.4,138.5 258.7,136.7 260.0,133.2 261.2,128.4 262.5,123.1 263.8,117.9 265.1,113.6 266.3,110.9 267.6,110.0 268.9,111.2 270.1,114.2 271.4,118.6 272.7,123.7 274.0,128.8 275.2,133.0 276.5,135.7 277.8,136.6 279.0,135.4 280.3,132.4 281.6,128.0 282.9,122.8 284.1,117.5 285.4,113.0 286.7,109.7 287.9,108.2 289.2,108.6 290.5,111.1 291.8,115.1 293.0,120.0 294.3,125.1 295.6,129.6 296.8,132.9 298.1,134.4 299.4,134.0 300.7,131.7 301.9,127.8 303.2,123.0 304.5,117.8 305.7,113.0 307.0,109.0 308.3,106.4 309.6,105.7 310.8,106.8 312.1,109.9 313.4,114.5 314.6,119.8 315.9,124.9 317.2,128.9 318.5,131.3 319.7,132.0 321.0,130.7 322.3,127.8 323.5,123.6 324.8,118.9 326.1,114.0 327.4,109.4 328.6,105.5 329.9,102.8 331.2,101.6 332.4,102.2 333.7,105.2 335.0,109.8 336.3,115.0 337.5,120.8 338.8,125.0 340.1,127.6 341.3,128.5 342.6,127.6 343.9,125.1 345.2,121.4 346.4,117.2 347.7,112.7 349.0,108.0 350.2,103.4 351.5,99.5 352.8,96.6 354.1,95.2 355.3,96.3 356.6,99.6 357.9,103.4 359.1,107.1 360.4,111.6 361.7,115.7 363.0,118.7 364.2,120.2 365.5,120.1 366.8,118.5 368.0,115.9 369.3,112.7 370.6,108.9 371.9,104.5 373.1,99.8 374.4,95.1 375.7,90.7 376.9,87.1 378.2,86.7 379.5,89.1 380.8,93.0 382.0,96.7 383.3,99.7 384.6,101.8 385.8,106.2 387.1,109.8 388.4,112.1 389.7,112.9 390.9,112.3 392.2,111.1 393.5,109.2 394.7,106.7 396.0,103.4 397.3,99.3 398.6,94.8 399.8,90.2 401.1,85.4 402.4,83.3 403.6,84.8 404.9,88.9 406.2,93.8 407.5,98.6 408.7,103.2 410.0,107.4 411.3,110.9 412.5,113.5 413.8,116.4 415.1,118.3 416.4,119.2 417.6,119.5 418.9,119.4 420.2,118.9 421.4,117.9 422.7,116.2 424.0,113.5 425.3,110.1 426.5,106.3 427.8,102.4 429.1,98.1 430.3,95.0 431.6,94.9 432.9,97.9 434.2,102.6 435.4,106.9 436.7,111.1 438.0,115.2 439.2,119.0 440.5,122.3 441.8,125.1 443.1,127.4 444.3,129.1 445.6,130.3 446.9,131.0 448.1,131.5 449.4,131.8 450.7,131.9 452.0,131.9 453.2,131.6 454.5,131.0 455.8,130.1 457.0,128.9 458.3,127.2 459.6,125.0 460.9,122.4 462.1,119.2 463.4,115.6 464.7,111.6 465.9,107.3 467.2,102.8 468.5,98.4 469.8,94.2 471.0,90.5 472.3,87.5 473.6,85.2 474.8,83.6 476.1,82.5 477.4,83.7 478.7,87.5 479.9,91.4 481.2,95.4 482.5,99.4 483.7,103.4 485.0,107.4 486.3,111.3 487.6,115.3 488.8,119.2 490.1,123.0 491.4,126.7 492.6,130.3 493.9,133.6 495.2,136.8 496.5,139.9 497.7,142.9 499.0,145.9 500.3,148.9 501.5,152.9 502.8,156.9 504.1,161.0 505.4,165.1 506.6,169.3 507.9,173.6 509.2,177.9 510.4,182.1 511.7,186.3 513.0,190.2 514.3,193.8 515.5,197.4 516.8,201.0 518.1,203.7 519.3,204.6 520.6,203.8 521.9,202.6 523.2,201.9 524.4,201.3 525.7,200.7 527.0,200.0 528.2,199.2 529.5,198.3 530.8,197.3 532.1,196.1 533.3,194.8 534.6,193.4 535.9,192.0 537.1,190.7 538.4,189.7 539.7,189.1 541.0,188.2 542.2,186.6 543.5,184.2 544.8,181.3 546.0,178.2 547.3,175.3 548.6,172.7 549.9,170.4 551.1,168.2 552.4,166.0 553.7,163.7 554.9,161.0 556.2,158.2 557.5,156.3 558.8,156.8 560.0,158.9 561.3,160.1 562.6,160.9 563.8,161.5 565.1,161.7 566.4,161.8 567.7,161.9 568.9,162.2 570.2,162.7 571.5,163.5 572.7,164.5 574.0,165.6 575.3,166.6 576.6,167.0 577.8,168.1 579.1,170.7 580.4,174.6 581.6,179.0 582.9,183.1 584.2,187.1 585.5,191.1 586.7,195.1 588.0,199.2 589.3,203.7 590.5,208.5 591.8,212.0 593.1,213.3 594.4,215.7 595.6,218.5 596.9,221.7 598.2,225.3 599.4,229.3 600.7,233.4 602.0,237.6 603.3,241.8 604.5,246.1 605.8,250.3 607.1,254.6 608.3,258.8 609.6,261.3 610.9,261.8 612.2,260.8 613.4,258.8 614.7,256.5 616.0,254.5 617.2,251.5 618.5,246.6 619.8,243.0 621.1,240.4 622.3,239.1 623.6,239.4 624.9,240.9 626.1,243.3 627.4,246.5 628.7,250.3 630.0,254.5 631.2,258.6 632.5,262.4 633.8,265.2 635.0,266.0 636.3,264.4 637.6,261.1 638.9,256.4 640.1,250.9 641.4,245.8 642.7,241.4 643.9,238.0 645.2,236.3 646.5,236.3 647.8,237.9 649.0,240.7 650.3,244.3 651.6,248.6 652.8,252.9 654.1,256.6 655.4,259.6 656.7,261.1 657.9,260.6 659.2,258.3 660.5,254.3 661.7,249.4 663.0,244.1 664.3,239.1 665.6,234.9 666.8,232.1 668.1,231.0 669.4,231.6 670.6,233.6 671.9,236.9 673.2,241.0 674.5,245.5 675.7,249.6 677.0,253.1 678.3,255.1 679.5,255.4 680.8,253.7 682.1,250.3 683.4,245.7 684.6,240.5 685.9,235.3 687.2,230.6 688.4,227.1 689.7,225.0 691.0,224.3 692.3,225.2 693.5,227.6 694.8,231.2 696.1,235.6 697.3,240.4 698.6,244.9 699.9,248.2 701.2,249.7 702.4,249.0 703.7,246.5 705.0,242.6 706.2,237.8 707.5,232.7 708.8,227.7 710.1,223.5 711.3,220.3 712.6,218.4 713.9,217.9 715.1,218.9 716.4,221.5 717.7,222.8 719.0,224.9 720.2,227.4 721.5,229.8 722.8,232.0 724.0,233.0 725.3,233.1 726.6,232.8 727.9,232.4 729.1,231.7 730.4,231.1 731.7,230.6 732.9,230.0 734.2,229.4 735.5,228.7 736.8,228.1 738.0,228.0 739.3,228.4 740.6,229.7 741.8,231.6 743.1,233.2 744.4,234.2 745.7,235.3 746.9,236.6 748.2,237.0 749.5,237.2 750.7,237.2 752.0,237.1 753.3,236.9 754.6,236.7 755.8,236.5 757.1,236.0 758.4,235.2 759.6,234.3 760.9,233.4 762.2,232.9 763.5,232.9 764.7,233.6 766.0,234.8"/>
<line x1="606" y1="42" x2="628" y2="42" stroke="#0f62fe" stroke-width="2.2"/>
<text x="634" y="46" font-family="Arial" font-size="12">vy_mps</text>
</svg>