<svg xmlns="http://www.w3.org/2000/svg" width="820" height="320" viewBox="0 0 820 320">
<rect width="100%" height="100%" fill="#ffffff"/>
<text x="54" y="28" font-family="Arial" font-size="18" font-weight="700">Alpha/Beta</text>
<line x1="54" y1="266" x2="766" y2="266" stroke="#1f2933"/>
<line x1="54" y1="54" x2="54" y2="266" stroke="#1f2933"/>
<text x="54" y="306" font-family="Arial" font-size="12">time (s)</text>
<text x="596" y="306" font-family="Arial" font-size="12">angle (deg)</text>
<text x="58" y="68" font-family="Arial" font-size="11">35</text>
<text x="58" y="260" font-family="Arial" font-size="11">-35</text>
<polyline fill="none" stroke="#0f62fe" stroke-width="2.2" points="54.0,162.0 55.3,161.1 56.5,159.8 57.8,157.8 59.1,155.2 60.4,152.3 61.6,149.8 62.9,147.8 64.2,146.4 65.4,145.3 66.7,144.3 68.0,143.3 69.3,142.3 70.5,141.5 71.8,140.7 73.1,140.1 74.3,139.6 75.6,139.2 76.9,138.8 78.2,138.4 79.4,138.2 80.7,138.0 82.0,137.9 83.2,137.8 84.5,137.8 85.8,137.9 87.1,138.1 88.3,138.4 89.6,138.7 90.9,139.2 92.1,139.7 93.4,140.2 94.7,140.8 96.0,141.5 97.2,142.1 98.5,142.7 99.8,143.3 101.0,143.8 102.3,144.2 103.6,144.3 104.9,144.3 106.1,143.9 107.4,143.1 108.7,141.9 109.9,140.2 111.2,138.0 112.5,135.2 113.8,131.8 115.0,128.0 116.3,123.9 117.6,119.7 118.8,115.7 120.1,112.3 121.4,109.5 122.7,107.6 123.9,106.6 125.2,106.5 126.5,107.1 127.7,108.4 129.0,110.1 130.3,111.9 131.6,113.8 132.8,115.3 134.1,116.4 135.4,117.0 136.6,117.1 137.9,116.6 139.2,115.8 140.5,114.9 141.7,114.0 143.0,113.3 144.3,113.1 145.5,113.4 146.8,114.9 148.1,117.7 149.4,121.9 150.6,127.6 151.9,134.2 153.2,140.5 154.4,145.3 155.7,148.3 157.0,149.6 158.3,149.6 159.5,148.8 160.8,147.8 162.1,146.3 163.3,144.3 164.6,141.8 165.9,138.9 167.2,135.9 168.4,133.0 169.7,130.4 171.0,128.3 172.2,127.0 173.5,126.5 174.8,126.9 176.1,128.1 177.3,129.6 178.6,131.4 179.9,132.9 181.1,133.8 182.4,134.1 183.7,133.8 185.0,133.2 186.2,132.6 187.5,132.4 188.8,132.8 190.0,134.5 191.3,137.7 192.6,142.4 193.9,148.0 195.1,153.7 196.4,158.8 197.7,162.9 198.9,165.7 200.2,167.5 201.5,168.6 202.8,169.6 204.0,170.4 205.3,170.4 206.6,169.1 207.8,166.6 209.1,163.0 210.4,158.7 211.7,154.6 212.9,151.0 214.2,148.5 215.5,147.2 216.7,146.8 218.0,147.2 219.3,148.2 220.6,149.7 221.8,151.5 223.1,154.3 224.4,158.5 225.6,164.2 226.9,171.4 228.2,179.9 229.5,189.2 230.7,199.0 232.0,209.6 233.3,221.0 234.5,233.5 235.8,248.0 237.1,263.7 238.4,266.0 239.6,266.0 240.9,266.0 242.2,266.0 243.4,266.0 244.7,266.0 246.0,266.0 247.3,266.0 248.5,266.0 249.8,266.0 251.1,266.0 252.3,266.0 253.6,266.0 254.9,266.0 256.2,266.0 257.4,266.0 258.7,266.0 260.0,266.0 261.2,266.0 262.5,266.0 263.8,266.0 265.1,266.0 266.3,266.0 267.6,266.0 268.9,266.0 270.1,266.0 271.4,266.0 272.7,266.0 274.0,266.0 275.2,266.0 276.5,266.0 277.8,266.0 279.0,266.0 280.3,266.0 281.6,266.0 282.9,266.0 284.1,266.0 285.4,266.0 286.7,266.0 287.9,266.0 289.2,266.0 290.5,262.3 291.8,260.3 293.0,264.0 294.3,266.0 295.6,266.0 296.8,266.0 298.1,266.0 299.4,266.0 300.7,266.0 301.9,266.0 303.2,266.0 304.5,266.0 305.7,266.0 307.0,266.0 308.3,266.0 309.6,253.1 310.8,241.0 312.1,235.2 313.4,238.2 314.6,252.4 315.9,266.0 317.2,266.0 318.5,266.0 319.7,266.0 321.0,266.0 322.3,266.0 323.5,266.0 324.8,266.0 326.1,266.0 327.4,266.0 328.6,266.0 329.9,254.4 331.2,230.5 332.4,210.7 333.7,197.3 335.0,195.4 336.3,212.4 337.5,257.7 338.8,266.0 340.1,266.0 341.3,266.0 342.6,266.0 343.9,266.0 345.2,266.0 346.4,266.0 347.7,266.0 349.0,266.0 350.2,266.0 351.5,255.7 352.8,222.7 354.1,193.2 355.3,169.9 356.6,156.0 357.9,154.9 359.1,178.6 360.4,262.5 361.7,266.0 363.0,266.0 364.2,266.0 365.5,266.0 366.8,266.0 368.0,266.0 369.3,266.0 370.6,266.0 371.9,266.0 373.1,266.0 374.4,250.3 375.7,209.4 376.9,173.6 378.2,145.0 379.5,123.0 380.8,106.7 382.0,97.2 383.3,105.0 384.6,266.0 385.8,266.0 387.1,266.0 388.4,266.0 389.7,266.0 390.9,266.0 392.2,266.0 393.5,266.0 394.7,266.0 396.0,266.0 397.3,266.0 398.6,263.1 399.8,217.2 401.1,177.6 402.4,144.2 403.6,115.7 404.9,88.7 406.2,58.9 407.5,54.0 408.7,54.0 410.0,54.0 411.3,54.0 412.5,266.0 413.8,266.0 415.1,266.0 416.4,266.0 417.6,266.0 418.9,266.0 420.2,266.0 421.4,266.0 422.7,266.0 424.0,266.0 425.3,266.0 426.5,266.0 427.8,228.7 429.1,192.7 430.3,160.0 431.6,130.0 432.9,99.6 434.2,65.3 435.4,54.0 436.7,54.0 438.0,54.0 439.2,54.0 440.5,54.0 441.8,54.0 443.1,54.0 444.3,54.0 445.6,54.0 446.9,54.0 448.1,54.0 449.4,54.0 450.7,54.0 452.0,54.0 453.2,54.0 454.5,54.0 455.8,54.0 457.0,54.0 458.3,54.0 459.6,54.0 460.9,54.0 462.1,54.0 463.4,54.0 464.7,54.0 465.9,54.0 467.2,54.0 468.5,54.0 469.8,54.0 471.0,54.0 472.3,54.0 473.6,71.9 474.8,108.7 476.1,152.6 477.4,200.3 478.7,249.2 479.9,266.0 481.2,266.0 482.5,266.0 483.7,266.0 485.0,266.0 486.3,266.0 487.6,266.0 488.8,266.0 490.1,266.0 491.4,266.0 492.6,266.0 493.9,266.0 495.2,266.0 496.5,266.0 497.7,266.0 499.0,266.0 500.3,54.0 501.5,54.0 502.8,54.0 504.1,54.0 505.4,54.0 506.6,54.0 507.9,54.0 509.2,54.0 510.4,54.0 511.7,54.0 513.0,54.5 514.3,75.4 515.5,100.4 516.8,130.1 518.1,162.7 519.3,195.9 520.6,227.4 521.9,255.5 523.2,266.0 524.4,266.0 525.7,266.0 527.0,266.0 528.2,266.0 529.5,266.0 530.8,266.0 532.1,266.0 533.3,266.0 534.6,266.0 535.9,261.7 537.1,238.4 538.4,212.4 539.7,185.2 541.0,158.5 542.2,134.6 543.5,115.9 544.8,101.5 546.0,90.5 547.3,82.4 548.6,76.8 549.9,74.0 551.1,74.3 552.4,78.9 553.7,89.0 554.9,106.6 556.2,133.9 557.5,171.7 558.8,214.7 560.0,254.3 561.3,266.0 562.6,266.0 563.8,266.0 565.1,266.0 566.4,266.0 567.7,266.0 568.9,266.0 570.2,266.0 571.5,266.0 572.7,266.0 574.0,252.3 575.3,220.4 576.6,185.2 577.8,151.4 579.1,123.7 580.4,102.5 581.6,87.1 582.9,76.5 584.2,70.3 585.5,68.5 586.7,72.3 588.0,83.8 589.3,107.3 590.5,148.6 591.8,205.2 593.1,263.7 594.4,266.0 595.6,266.0 596.9,266.0 598.2,266.0 599.4,266.0 600.7,266.0 602.0,266.0 603.3,266.0 604.5,266.0 605.8,249.5 607.1,214.8 608.3,180.5 609.6,151.2 610.9,130.1 612.2,117.1 613.4,113.4 614.7,123.1 616.0,157.3 617.2,236.5 618.5,266.0 619.8,266.0 621.1,266.0 622.3,266.0 623.6,266.0 624.9,266.0 626.1,266.0 627.4,266.0 628.7,266.0 630.0,266.0 631.2,245.3 632.5,219.9 633.8,201.1 635.0,189.7 636.3,188.0 637.6,199.1 638.9,226.6 640.1,266.0 641.4,266.0 642.7,266.0 643.9,266.0 645.2,266.0 646.5,266.0 647.8,266.0 649.0,266.0 650.3,266.0 651.6,266.0 652.8,266.0 654.1,246.6 655.4,230.9 656.7,222.9 657.9,223.8 659.2,235.7 660.5,260.4 661.7,266.0 663.0,266.0 664.3,266.0 665.6,266.0 666.8,266.0 668.1,266.0 669.4,266.0 670.6,266.0 671.9,266.0 673.2,266.0 674.5,265.0 675.7,249.2 677.0,239.6 678.3,238.3 679.5,247.4 680.8,266.0 682.1,266.0 683.4,266.0 684.6,266.0 685.9,266.0 687.2,266.0 688.4,266.0 689.7,266.0 691.0,266.0 692.3,266.0 693.5,266.0 694.8,265.4 696.1,247.1 697.3,234.3 698.6,229.5 699.9,235.7 701.2,257.0 702.4,266.0 703.7,266.0 705.0,266.0 706.2,266.0 707.5,266.0 708.8,266.0 710.1,266.0 711.3,266.0 712.6,266.0 713.9,266.0 715.1,266.0 716.4,249.5 717.7,228.4 719.0,213.2 720.2,206.5 721.5,213.8 722.8,246.7 724.0,266.0 725.3,266.0 726.6,266.0 727.9,266.0 729.1,266.0 730.4,266.0 731.7,266.0 732.9,266.0 734.2,266.0 735.5,266.0 736.8,266.0 738.0,256.5 739.3,227.9 740.6,203.6 741.8,184.5 743.1,174.8 744.4,182.8 745.7,243.9 746.9,266.0 748.2,266.0 749.5,266.0 750.7,266.0 752.0,266.0 753.3,266.0 754.6,266.0 755.8,266.0 757.1,266.0 758.4,266.0 759.6,266.0 760.9,266.0 762.2,238.7 763.5,205.3 764.7,174.4 766.0,146.0"/>
<line x1="606" y1="42" x2="628" y2="42" stroke="#0f62fe" stroke-width="2.2"/>
<text x="634" y="46" font-family="Arial" font-size="12">alpha_deg</text>
<polyline fill="none" stroke="#24a148" stroke-width="2.2" points="54.0,160.0 55.3,160.0 56.5,159.9 57.8,159.7 59.1,159.4 60.4,158.9 61.6,158.3 62.9,157.6 64.2,156.7 65.4,155.6 66.7,154.4 68.0,153.0 69.3,151.5 70.5,149.8 71.8,148.1 73.1,146.2 74.3,144.3 75.6,142.3 76.9,140.3 78.2,138.2 79.4,136.1 80.7,134.1 82.0,132.1 83.2,130.3 84.5,128.6 85.8,127.0 87.1,125.7 88.3,124.5 89.6,123.6 90.9,122.9 92.1,122.5 93.4,122.4 94.7,122.5 96.0,122.9 97.2,123.6 98.5,124.5 99.8,125.7 101.0,127.1 102.3,128.8 103.6,130.7 104.9,132.8 106.1,135.1 107.4,137.5 108.7,139.9 109.9,142.4 111.2,144.7 112.5,146.8 113.8,148.6 115.0,150.0 116.3,150.9 117.6,151.3 118.8,151.1 120.1,150.5 121.4,149.5 122.7,148.3 123.9,147.0 125.2,145.8 126.5,144.8 127.7,144.1 129.0,143.8 130.3,143.8 131.6,144.3 132.8,145.1 134.1,146.2 135.4,147.2 136.6,148.1 137.9,148.7 139.2,148.8 140.5,148.3 141.7,147.1 143.0,145.3 144.3,142.9 145.5,139.9 146.8,136.7 148.1,133.6 149.4,130.9 150.6,129.1 151.9,128.6 153.2,129.6 154.4,131.9 155.7,135.0 157.0,138.6 158.3,142.1 159.5,145.2 160.8,147.8 162.1,149.9 163.3,151.3 164.6,151.8 165.9,151.5 167.2,150.1 168.4,147.9 169.7,144.8 171.0,141.0 172.2,136.7 173.5,132.3 174.8,127.9 176.1,124.0 177.3,120.7 178.6,118.0 179.9,116.0 181.1,114.3 182.4,112.7 183.7,111.0 185.0,108.8 186.2,106.0 187.5,102.7 188.8,98.9 190.0,94.9 191.3,91.1 192.6,88.1 193.9,86.1 195.1,85.3 196.4,85.8 197.7,87.1 198.9,89.0 200.2,91.1 201.5,93.2 202.8,95.2 204.0,97.1 205.3,98.9 206.6,100.3 207.8,100.9 209.1,100.5 210.4,98.7 211.7,95.5 212.9,91.2 214.2,86.0 215.5,80.3 216.7,74.4 218.0,69.1 219.3,69.1 220.6,69.1 221.8,69.1 223.1,69.1 224.4,69.1 225.6,69.1 226.9,69.1 228.2,69.1 229.5,69.1 230.7,69.1 232.0,69.1 233.3,69.1 234.5,69.1 235.8,69.1 237.1,69.1 238.4,69.1 239.6,69.1 240.9,69.1 242.2,69.1 243.4,69.1 244.7,69.1 246.0,69.1 247.3,69.1 248.5,69.1 249.8,69.1 251.1,69.1 252.3,69.1 253.6,69.1 254.9,69.1 256.2,69.1 257.4,69.1 258.7,69.1 260.0,69.1 261.2,69.1 262.5,69.1 263.8,69.1 265.1,69.1 266.3,69.1 267.6,69.1 268.9,69.1 270.1,69.1 271.4,69.1 272.7,69.1 274.0,69.1 275.2,69.1 276.5,69.1 277.8,69.1 279.0,69.1 280.3,69.1 281.6,69.1 282.9,69.1 284.1,73.2 285.4,77.5 286.7,77.9 287.9,74.3 289.2,69.1 290.5,69.1 291.8,69.1 293.0,69.1 294.3,69.1 295.6,69.1 296.8,69.1 298.1,69.1 299.4,69.1 300.7,69.1 301.9,69.1 303.2,80.0 304.5,90.9 305.7,97.2 307.0,97.7 308.3,92.0 309.6,80.6 310.8,69.1 312.1,69.1 313.4,69.1 314.6,69.1 315.9,69.1 317.2,69.1 318.5,69.1 319.7,69.1 321.0,69.1 322.3,71.5 323.5,94.2 324.8,113.5 326.1,127.1 327.4,133.3 328.6,131.2 329.9,120.6 331.2,102.5 332.4,78.2 333.7,69.1 335.0,69.1 336.3,69.1 337.5,69.1 338.8,69.1 340.1,69.1 341.3,69.1 342.6,69.1 343.9,80.4 345.2,113.4 346.4,142.0 347.7,163.4 349.0,175.3 350.2,175.9 351.5,165.1 352.8,144.2 354.1,115.3 355.3,80.7 356.6,69.1 357.9,69.1 359.1,69.1 360.4,69.1 361.7,69.1 363.0,69.1 364.2,69.1 365.5,69.1 366.8,102.3 368.0,141.9 369.3,176.6 370.6,203.1 371.9,218.2 373.1,219.0 374.4,205.5 375.7,180.3 376.9,146.6 378.2,107.7 379.5,69.1 380.8,69.1 382.0,69.1 383.3,69.1 384.6,69.1 385.8,69.1 387.1,69.1 388.4,69.1 389.7,77.1 390.9,122.0 392.2,164.1 393.5,201.4 394.7,230.7 396.0,248.0 397.3,250.0 398.6,236.3 399.8,210.1 401.1,175.8 402.4,136.9 403.6,96.0 404.9,69.1 406.2,69.1 407.5,69.1 408.7,69.1 410.0,69.1 411.3,69.1 412.5,69.1 413.8,69.1 415.1,69.1 416.4,106.4 417.6,146.8 418.9,187.2 420.2,225.5 421.4,250.9 422.7,250.9 424.0,250.9 425.3,250.9 426.5,250.9 427.8,232.4 429.1,196.2 430.3,157.6 431.6,118.8 432.9,81.8 434.2,69.1 435.4,69.1 436.7,69.1 438.0,69.1 439.2,69.1 440.5,69.1 441.8,69.1 443.1,69.1 444.3,69.1 445.6,71.9 446.9,89.1 448.1,105.7 449.4,121.6 450.7,137.1 452.0,152.1 453.2,166.6 454.5,180.5 455.8,193.7 457.0,205.8 458.3,216.3 459.6,224.8 460.9,230.6 462.1,233.1 463.4,231.8 464.7,226.0 465.9,215.6 467.2,200.8 468.5,182.1 469.8,160.1 471.0,135.8 472.3,110.5 473.6,85.8 474.8,69.1 476.1,69.1 477.4,69.1 478.7,69.1 479.9,69.1 481.2,69.1 482.5,69.1 483.7,90.5 485.0,115.7 486.3,142.2 487.6,169.1 488.8,195.9 490.1,222.2 491.4,248.1 492.6,250.9 493.9,250.9 495.2,250.9 496.5,250.9 497.7,250.9 499.0,250.9 500.3,250.9 501.5,250.9 502.8,250.9 504.1,250.9 505.4,250.9 506.6,250.9 507.9,250.9 509.2,240.6 510.4,210.4 511.7,180.4 513.0,151.3 514.3,124.1 515.5,100.1 516.8,80.6 518.1,69.1 519.3,69.1 520.6,69.1 521.9,69.1 523.2,76.9 524.4,92.3 525.7,110.6 527.0,130.5 528.2,151.0 529.5,171.4 530.8,191.1 532.1,209.3 533.3,225.4 534.6,238.7 535.9,248.0 537.1,250.9 538.4,250.9 539.7,246.7 541.0,236.1 542.2,221.1 543.5,202.8 544.8,182.1 546.0,160.1 547.3,137.3 548.6,114.2 549.9,91.4 551.1,69.2 552.4,69.1 553.7,69.1 554.9,69.1 556.2,69.1 557.5,69.1 558.8,69.1 560.0,69.1 561.3,69.1 562.6,69.1 563.8,69.1 565.1,69.1 566.4,90.4 567.7,117.4 568.9,144.5 570.2,170.7 571.5,194.4 572.7,214.3 574.0,228.9 575.3,236.6 576.6,236.2 577.8,227.6 579.1,212.1 580.4,191.4 581.6,166.9 582.9,139.4 584.2,110.4 585.5,80.9 586.7,69.1 588.0,69.1 589.3,69.1 590.5,69.1 591.8,69.1 593.1,69.1 594.4,69.1 595.6,69.1 596.9,69.1 598.2,69.1 599.4,93.4 600.7,122.3 602.0,148.8 603.3,170.8 604.5,186.2 605.8,193.0 607.1,189.6 608.3,175.7 609.6,152.5 610.9,122.4 612.2,87.4 613.4,69.1 614.7,69.1 616.0,69.1 617.2,69.1 618.5,69.1 619.8,69.1 621.1,69.1 622.3,69.1 623.6,94.9 624.9,129.2 626.1,157.4 627.4,176.9 628.7,185.5 630.0,182.6 631.2,169.1 632.5,147.2 633.8,119.6 635.0,88.5 636.3,69.1 637.6,69.1 638.9,69.1 640.1,69.1 641.4,69.1 642.7,69.1 643.9,69.1 645.2,69.1 646.5,82.2 647.8,106.1 649.0,123.8 650.3,133.6 651.6,134.6 652.8,127.2 654.1,112.6 655.4,92.6 656.7,69.6 657.9,69.1 659.2,69.1 660.5,69.1 661.7,69.1 663.0,69.1 664.3,69.1 665.6,69.1 666.8,69.1 668.1,79.4 669.4,96.3 670.6,107.4 671.9,111.6 673.2,108.6 674.5,99.0 675.7,84.1 677.0,69.1 678.3,69.1 679.5,69.1 680.8,69.1 682.1,69.1 683.4,69.1 684.6,69.1 685.9,69.1 687.2,69.1 688.4,78.2 689.7,94.5 691.0,105.7 692.3,110.2 693.5,107.3 694.8,97.3 696.1,81.4 697.3,69.1 698.6,69.1 699.9,69.1 701.2,69.1 702.4,69.1 703.7,69.1 705.0,69.1 706.2,69.1 707.5,69.1 708.8,73.9 710.1,95.9 711.3,112.8 712.6,122.4 713.9,123.6 715.1,116.0 716.4,100.3 717.7,77.9 719.0,69.1 720.2,69.1 721.5,69.1 722.8,69.1 724.0,69.1 725.3,69.1 726.6,69.1 727.9,69.1 729.1,69.1 730.4,82.0 731.7,109.2 732.9,130.4 734.2,143.4 735.5,146.5 736.8,139.4 738.0,122.7 739.3,98.4 740.6,69.1 741.8,69.1 743.1,69.1 744.4,69.1 745.7,69.1 746.9,69.1 748.2,69.1 749.5,69.1 750.7,69.1 752.0,69.1 753.3,101.3 754.6,132.3 755.8,157.3 757.1,173.8 758.4,180.0 759.6,174.6 760.9,158.3 762.2,133.0 763.5,101.3 764.7,69.1 766.0,69.1"/>
<line x1="606" y1="60" x2="628" y2="60" stroke="#24a148" stroke-width="2.2"/>
<text x="634" y="64" font-family="Arial" font-size="12">beta_deg</text>
</svg>