<svg xmlns="http://www.w3.org/2000/svg" width="820" height="320" viewBox="0 0 820 320">
<rect width="100%" height="100%" fill="#ffffff"/>
<text x="54" y="28" font-family="Arial" font-size="18" font-weight="700">Dynamic Pressure</text>
<line x1="54" y1="266" x2="766" y2="266" stroke="#1f2933"/>
<line x1="54" y1="54" x2="54" y2="266" stroke="#1f2933"/>
<text x="54" y="306" font-family="Arial" font-size="12">time (s)</text>
<text x="596" y="306" font-family="Arial" font-size="12">qbar (Pa)</text>
<text x="58" y="68" font-family="Arial" font-size="11">1.19e+04</text>
<text x="58" y="260" font-family="Arial" font-size="11">4.72e+03</text>
<polyline fill="none" stroke="#0f62fe" stroke-width="2.2" points="54.0,263.1 55.3,261.9 56.5,260.6 57.8,259.3 59.1,257.9 60.4,256.6 61.6,255.2 62.9,253.8 64.2,252.4 65.4,251.0 66.7,249.5 68.0,248.1 69.3,246.6 70.5,245.1 71.8,243.6 73.1,242.0 74.3,240.5 75.6,238.9 76.9,237.3 78.2,235.7 79.4,234.1 80.7,232.6 82.0,231.0 83.2,229.4 84.5,227.9 85.8,226.3 87.1,224.8 88.3,223.2 89.6,221.6 90.9,220.1 92.1,218.5 93.4,216.9 94.7,215.3 96.0,213.7 97.2,212.1 98.5,210.5 99.8,208.8 101.0,207.2 102.3,205.5 103.6,203.8 104.9,202.1 106.1,200.4 107.4,198.6 108.7,196.9 109.9,195.2 111.2,193.4 112.5,191.7 113.8,190.1 115.0,188.5 116.3,187.0 117.6,185.6 118.8,184.3 120.1,183.1 121.4,182.1 122.7,181.1 123.9,180.2 125.2,179.4 126.5,178.5 127.7,177.7 129.0,176.8 130.3,175.8 131.6,174.8 132.8,173.7 134.1,172.5 135.4,171.3 136.6,170.1 137.9,168.8 139.2,167.6 140.5,166.4 141.7,165.2 143.0,164.0 144.3,162.9 145.5,161.8 146.8,160.7 148.1,159.5 149.4,158.3 150.6,156.9 151.9,155.3 153.2,153.6 154.4,151.7 155.7,149.7 157.0,147.6 158.3,145.5 159.5,143.4 160.8,141.3 162.1,139.2 163.3,137.1 164.6,135.0 165.9,133.0 167.2,131.0 168.4,129.1 169.7,127.3 171.0,125.5 172.2,123.9 173.5,122.3 174.8,120.8 176.1,119.2 177.3,117.7 178.6,116.1 179.9,114.5 181.1,112.8 182.4,111.2 183.7,109.5 185.0,107.8 186.2,106.2 187.5,104.6 188.8,103.1 190.0,101.6 191.3,100.1 192.6,98.6 193.9,97.0 195.1,95.3 196.4,93.5 197.7,91.7 198.9,89.8 200.2,88.0 201.5,86.1 202.8,84.2 204.0,82.4 205.3,80.4 206.6,78.5 207.8,76.6 209.1,74.6 210.4,72.5 211.7,70.5 212.9,68.6 214.2,66.9 215.5,65.3 216.7,63.8 218.0,62.5 219.3,61.3 220.6,60.1 221.8,59.0 223.1,58.0 224.4,57.0 225.6,56.0 226.9,55.1 228.2,54.4 229.5,54.0 230.7,54.0 232.0,54.5 233.3,55.4 234.5,56.5 235.8,57.8 237.1,59.3 238.4,61.0 239.6,62.8 240.9,64.8 242.2,66.8 243.4,68.8 244.7,70.7 246.0,72.5 247.3,74.2 248.5,75.8 249.8,77.2 251.1,78.4 252.3,79.6 253.6,80.7 254.9,81.8 256.2,82.9 257.4,84.1 258.7,85.4 260.0,86.9 261.2,88.4 262.5,89.9 263.8,91.4 265.1,92.8 266.3,94.1 267.6,95.2 268.9,96.3 270.1,97.2 271.4,98.0 272.7,98.9 274.0,99.8 275.2,100.8 276.5,101.9 277.8,103.2 279.0,104.5 280.3,106.0 281.6,107.5 282.9,108.9 284.1,110.2 285.4,111.4 286.7,112.2 287.9,112.9 289.2,113.4 290.5,113.9 291.8,114.3 293.0,114.8 294.3,115.5 295.6,116.4 296.8,117.4 298.1,118.7 299.4,120.2 300.7,121.7 301.9,123.2 303.2,124.6 304.5,125.8 305.7,126.6 307.0,127.1 308.3,127.3 309.6,127.2 310.8,127.1 312.1,127.1 313.4,127.2 314.6,127.5 315.9,128.1 317.2,129.1 318.5,130.5 319.7,132.0 321.0,133.8 322.3,135.5 323.5,137.1 324.8,138.4 326.1,139.2 327.4,139.7 328.6,139.7 329.9,139.3 331.2,138.6 332.4,137.8 333.7,137.1 335.0,136.4 336.3,136.1 337.5,136.5 338.8,137.4 340.1,139.0 341.3,140.9 342.6,143.1 343.9,145.3 345.2,147.4 346.4,149.0 347.7,150.1 349.0,150.8 350.2,151.0 351.5,150.7 352.8,149.8 354.1,148.5 355.3,146.7 356.6,144.9 357.9,143.5 359.1,142.7 360.4,142.6 361.7,143.8 363.0,145.7 364.2,148.0 365.5,150.6 366.8,153.2 368.0,155.6 369.3,157.5 370.6,159.1 371.9,160.2 373.1,160.8 374.4,160.8 375.7,160.0 376.9,158.5 378.2,156.1 379.5,153.9 380.8,152.8 382.0,152.9 383.3,153.7 384.6,154.9 385.8,156.5 387.1,158.8 388.4,161.5 389.7,164.4 390.9,167.3 392.2,169.9 393.5,172.2 394.7,174.3 396.0,175.9 397.3,177.1 398.6,177.6 399.8,177.2 401.1,176.1 402.4,173.7 403.6,171.4 404.9,170.1 406.2,170.1 407.5,170.7 408.7,172.0 410.0,173.8 411.3,176.1 412.5,178.8 413.8,181.4 415.1,184.3 416.4,187.4 417.6,190.4 418.9,193.3 420.2,196.0 421.4,198.6 422.7,200.9 424.0,202.7 425.3,203.9 426.5,204.5 427.8,204.3 429.1,203.3 430.3,201.5 431.6,199.1 432.9,197.2 434.2,196.5 435.4,196.4 436.7,197.0 438.0,198.2 439.2,199.8 440.5,201.9 441.8,204.4 443.1,207.1 444.3,209.9 445.6,212.9 446.9,215.9 448.1,218.9 449.4,221.8 450.7,224.7 452.0,227.5 453.2,230.3 454.5,233.1 455.8,235.8 457.0,238.4 458.3,241.0 459.6,243.4 460.9,245.6 462.1,247.7 463.4,249.5 464.7,251.0 465.9,252.2 467.2,253.0 468.5,253.4 469.8,253.5 471.0,253.3 472.3,252.8 473.6,252.1 474.8,251.3 476.1,250.3 477.4,248.8 478.7,247.9 479.9,247.3 481.2,247.0 482.5,247.0 483.7,247.2 485.0,247.7 486.3,248.2 487.6,248.9 488.8,249.7 490.1,250.7 491.4,251.9 492.6,253.2 493.9,254.7 495.2,256.1 496.5,257.5 497.7,258.9 499.0,260.1 500.3,261.2 501.5,262.3 502.8,263.3 504.1,264.2 505.4,265.0 506.6,265.5 507.9,265.9 509.2,266.0 510.4,265.8 511.7,265.3 513.0,264.4 514.3,263.4 515.5,262.3 516.8,261.1 518.1,259.6 519.3,257.9 520.6,256.6 521.9,255.7 523.2,254.8 524.4,254.1 525.7,253.4 527.0,252.8 528.2,252.1 529.5,251.5 530.8,250.8 532.1,250.1 533.3,249.5 534.6,248.7 535.9,248.0 537.1,247.1 538.4,246.1 539.7,245.0 541.0,243.3 542.2,241.3 543.5,239.4 544.8,237.7 546.0,236.3 547.3,234.9 548.6,233.7 549.9,232.6 551.1,231.8 552.4,231.1 553.7,230.6 554.9,230.2 556.2,229.7 557.5,228.8 558.8,227.9 560.0,227.5 561.3,227.3 562.6,227.2 563.8,227.1 565.1,227.1 566.4,227.0 567.7,226.7 568.9,226.3 570.2,225.8 571.5,225.1 572.7,224.4 574.0,223.5 575.3,222.5 576.6,221.4 577.8,219.7 579.1,217.7 580.4,216.0 581.6,214.7 582.9,213.6 584.2,212.5 585.5,211.7 586.7,211.1 588.0,210.8 589.3,210.6 590.5,210.3 591.8,209.6 593.1,209.4 594.4,209.6 595.6,210.0 596.9,210.5 598.2,211.0 599.4,211.4 600.7,211.5 602.0,211.4 603.3,211.0 604.5,210.4 605.8,209.4 607.1,208.2 608.3,206.6 609.6,204.2 610.9,201.6 612.2,199.5 613.4,198.0 614.7,197.2 616.0,196.5 617.2,195.8 618.5,196.2 619.8,197.2 621.1,198.5 622.3,200.0 623.6,201.5 624.9,202.7 626.1,203.4 627.4,203.7 628.7,203.6 630.0,203.0 631.2,201.9 632.5,200.5 633.8,198.8 635.0,197.0 636.3,195.2 637.6,193.8 638.9,193.1 640.1,193.1 641.4,193.5 642.7,194.4 643.9,195.5 645.2,196.8 646.5,198.0 647.8,198.9 649.0,199.4 650.3,199.4 651.6,198.9 652.8,198.1 654.1,197.0 655.4,195.8 656.7,194.6 657.9,193.7 659.2,193.0 660.5,192.7 661.7,192.8 663.0,193.3 664.3,194.1 665.6,195.0 666.8,196.0 668.1,196.9 669.4,197.6 670.6,197.8 671.9,197.7 673.2,197.2 674.5,196.4 675.7,195.5 677.0,194.6 678.3,193.9 679.5,193.3 680.8,193.1 682.1,193.2 683.4,193.6 684.6,194.3 685.9,195.1 687.2,196.1 688.4,196.9 689.7,197.6 691.0,197.9 692.3,197.8 693.5,197.4 694.8,196.6 696.1,195.7 697.3,194.8 698.6,194.1 699.9,193.5 701.2,193.3 702.4,193.4 703.7,193.9 705.0,194.8 706.2,195.9 707.5,197.1 708.8,198.3 710.1,199.3 711.3,200.0 712.6,200.2 713.9,200.0 715.1,199.3 716.4,198.4 717.7,199.2 719.0,200.1 720.2,201.0 721.5,202.0 722.8,203.0 724.0,204.2 725.3,205.5 726.6,206.8 727.9,208.2 729.1,209.7 730.4,211.0 731.7,212.3 732.9,213.4 734.2,214.3 735.5,215.2 736.8,216.0 738.0,216.6 739.3,217.2 740.6,217.7 741.8,218.3 743.1,218.6 744.4,218.9 745.7,219.4 746.9,220.3 748.2,221.3 749.5,222.4 750.7,223.5 752.0,224.6 753.3,225.7 754.6,226.5 755.8,227.3 757.1,228.1 758.4,228.8 759.6,229.5 760.9,230.1 762.2,230.5 763.5,230.8 764.7,231.1 766.0,231.1"/>
<line x1="606" y1="42" x2="628" y2="42" stroke="#0f62fe" stroke-width="2.2"/>
<text x="634" y="46" font-family="Arial" font-size="12">qbar_pa</text>
</svg>