<svg xmlns="http://www.w3.org/2000/svg" width="820" height="320" viewBox="0 0 820 320">
<rect width="100%" height="100%" fill="#ffffff"/>
<text x="54" y="28" font-family="Arial" font-size="18" font-weight="700">Pitch Command Tracking</text>
<line x1="54" y1="266" x2="766" y2="266" stroke="#1f2933"/>
<line x1="54" y1="54" x2="54" y2="266" stroke="#1f2933"/>
<text x="54" y="306" font-family="Arial" font-size="12">time (s)</text>
<text x="596" y="306" font-family="Arial" font-size="12">pitch (deg)</text>
<text x="58" y="68" font-family="Arial" font-size="11">82</text>
<text x="58" y="260" font-family="Arial" font-size="11">-85</text>
<polyline fill="none" stroke="#0f62fe" stroke-width="2.2" points="54.0,125.1 55.3,125.1 56.5,125.1 57.8,125.1 59.1,125.1 60.4,125.1 61.6,125.1 62.9,125.1 64.2,125.1 65.4,125.1 66.7,125.1 68.0,125.1 69.3,125.1 70.5,125.1 71.8,125.1 73.1,125.1 74.3,125.1 75.6,125.1 76.9,125.1 78.2,125.1 79.4,125.1 80.7,125.1 82.0,125.1 83.2,125.1 84.5,125.1 85.8,125.1 87.1,125.1 88.3,125.1 89.6,125.1 90.9,125.1 92.1,125.1 93.4,125.1 94.7,125.1 96.0,125.1 97.2,125.1 98.5,125.1 99.8,125.1 101.0,125.1 102.3,125.1 103.6,125.1 104.9,125.1 106.1,125.1 107.4,125.1 108.7,125.1 109.9,125.1 111.2,125.1 112.5,125.1 113.8,125.1 115.0,125.1 116.3,125.1 117.6,125.1 118.8,125.1 120.1,125.1 121.4,125.1 122.7,125.1 123.9,125.1 125.2,125.1 126.5,125.1 127.7,125.1 129.0,125.1 130.3,125.1 131.6,125.1 132.8,125.1 134.1,125.1 135.4,125.1 136.6,125.1 137.9,125.1 139.2,125.1 140.5,125.1 141.7,125.1 143.0,125.1 144.3,125.1 145.5,125.1 146.8,125.1 148.1,125.1 149.4,125.1 150.6,125.1 151.9,125.1 153.2,125.1 154.4,125.1 155.7,125.1 157.0,125.1 158.3,125.1 159.5,125.1 160.8,125.1 162.1,125.1 163.3,125.1 164.6,125.1 165.9,125.1 167.2,125.1 168.4,125.1 169.7,125.1 171.0,125.1 172.2,125.1 173.5,125.1 174.8,125.1 176.1,125.1 177.3,125.1 178.6,125.1 179.9,125.1 181.1,125.1 182.4,125.1 183.7,125.1 185.0,125.1 186.2,125.1 187.5,125.1 188.8,125.1 190.0,125.1 191.3,125.1 192.6,125.1 193.9,125.1 195.1,125.1 196.4,125.1 197.7,125.1 198.9,125.1 200.2,125.1 201.5,125.1 202.8,125.1 204.0,125.1 205.3,125.1 206.6,125.1 207.8,125.1 209.1,125.1 210.4,125.1 211.7,125.1 212.9,125.1 214.2,125.1 215.5,125.1 216.7,125.1 218.0,125.1 219.3,125.1 220.6,125.1 221.8,125.1 223.1,125.1 224.4,125.1 225.6,125.1 226.9,125.1 228.2,125.1 229.5,125.1 230.7,125.1 232.0,125.1 233.3,125.1 234.5,125.1 235.8,125.1 237.1,125.1 238.4,125.1 239.6,125.1 240.9,125.1 242.2,125.1 243.4,125.1 244.7,125.1 246.0,125.1 247.3,125.1 248.5,125.1 249.8,125.1 251.1,125.1 252.3,125.1 253.6,125.1 254.9,125.1 256.2,125.1 257.4,125.1 258.7,125.1 260.0,125.1 261.2,125.1 262.5,125.1 263.8,125.1 265.1,125.1 266.3,125.1 267.6,125.1 268.9,125.1 270.1,125.1 271.4,125.1 272.7,125.1 274.0,125.1 275.2,125.1 276.5,125.1 277.8,125.1 279.0,125.1 280.3,125.1 281.6,125.1 282.9,125.1 284.1,125.1 285.4,125.1 286.7,125.1 287.9,125.1 289.2,125.1 290.5,125.1 291.8,125.1 293.0,125.1 294.3,125.1 295.6,125.1 296.8,125.1 298.1,125.1 299.4,125.1 300.7,125.1 301.9,125.1 303.2,125.1 304.5,125.1 305.7,125.1 307.0,125.1 308.3,125.1 309.6,125.1 310.8,125.1 312.1,125.1 313.4,125.1 314.6,125.1 315.9,125.1 317.2,125.1 318.5,125.1 319.7,125.1 321.0,125.1 322.3,125.1 323.5,125.1 324.8,125.1 326.1,125.1 327.4,125.1 328.6,125.1 329.9,125.1 331.2,125.1 332.4,125.1 333.7,125.1 335.0,125.1 336.3,125.1 337.5,125.1 338.8,125.1 340.1,125.1 341.3,125.1 342.6,125.1 343.9,125.1 345.2,125.1 346.4,125.1 347.7,125.1 349.0,125.1 350.2,125.1 351.5,125.1 352.8,125.1 354.1,125.1 355.3,125.1 356.6,125.1 357.9,125.1 359.1,125.1 360.4,125.1 361.7,125.1 363.0,125.1 364.2,125.1 365.5,125.1 366.8,125.1 368.0,125.1 369.3,125.1 370.6,125.1 371.9,125.1 373.1,125.1 374.4,125.1 375.7,125.1 376.9,125.1 378.2,125.1 379.5,125.1 380.8,125.1 382.0,125.1 383.3,125.1 384.6,125.1 385.8,125.1 387.1,125.1 388.4,125.1 389.7,125.1 390.9,125.1 392.2,125.1 393.5,125.1 394.7,125.1 396.0,125.1 397.3,125.1 398.6,125.1 399.8,125.1 401.1,125.1 402.4,125.1 403.6,125.1 404.9,125.1 406.2,125.1 407.5,125.1 408.7,125.1 410.0,125.1 411.3,125.1 412.5,125.1 413.8,125.1 415.1,125.1 416.4,125.1 417.6,125.1 418.9,125.1 420.2,125.1 421.4,125.1 422.7,125.1 424.0,125.1 425.3,125.1 426.5,125.1 427.8,125.1 429.1,125.1 430.3,125.1 431.6,125.1 432.9,125.1 434.2,125.1 435.4,125.1 436.7,125.1 438.0,125.1 439.2,125.1 440.5,125.1 441.8,125.1 443.1,125.1 444.3,125.1 445.6,125.1 446.9,125.1 448.1,125.1 449.4,125.1 450.7,125.1 452.0,125.1 453.2,125.1 454.5,125.1 455.8,125.1 457.0,125.1 458.3,125.1 459.6,125.1 460.9,125.1 462.1,125.1 463.4,125.1 464.7,125.1 465.9,125.1 467.2,125.1 468.5,125.1 469.8,125.1 471.0,125.1 472.3,125.1 473.6,125.1 474.8,125.1 476.1,125.1 477.4,125.1 478.7,125.1 479.9,125.1 481.2,125.1 482.5,125.1 483.7,125.1 485.0,125.1 486.3,125.1 487.6,125.1 488.8,125.1 490.1,125.1 491.4,125.1 492.6,125.1 493.9,125.1 495.2,125.1 496.5,125.1 497.7,125.1 499.0,125.1 500.3,125.1 501.5,125.1 502.8,125.1 504.1,125.1 505.4,125.1 506.6,125.1 507.9,125.1 509.2,125.1 510.4,125.1 511.7,125.1 513.0,125.1 514.3,125.1 515.5,125.1 516.8,125.1 518.1,125.1 519.3,125.1 520.6,125.1 521.9,125.1 523.2,125.1 524.4,125.1 525.7,125.1 527.0,125.1 528.2,125.1 529.5,125.1 530.8,125.1 532.1,125.1 533.3,125.1 534.6,125.1 535.9,125.1 537.1,125.1 538.4,125.1 539.7,125.1 541.0,125.1 542.2,125.1 543.5,125.1 544.8,125.1 546.0,125.1 547.3,125.1 548.6,125.1 549.9,125.1 551.1,125.1 552.4,125.1 553.7,125.1 554.9,125.1 556.2,125.1 557.5,125.1 558.8,125.1 560.0,125.1 561.3,125.1 562.6,125.1 563.8,125.1 565.1,125.1 566.4,125.1 567.7,125.1 568.9,125.1 570.2,125.1 571.5,125.1 572.7,125.1 574.0,125.1 575.3,125.1 576.6,125.1 577.8,125.1 579.1,125.1 580.4,125.1 581.6,125.1 582.9,125.1 584.2,125.1 585.5,125.1 586.7,125.1 588.0,125.1 589.3,125.1 590.5,125.1 591.8,125.1 593.1,125.1 594.4,125.1 595.6,125.1 596.9,125.1 598.2,125.1 599.4,125.1 600.7,125.1 602.0,125.1 603.3,125.1 604.5,125.1 605.8,125.1 607.1,125.1 608.3,125.1 609.6,125.1 610.9,125.1 612.2,125.1 613.4,125.1 614.7,125.1 616.0,125.1 617.2,125.1 618.5,125.1 619.8,125.1 621.1,125.1 622.3,125.1 623.6,125.1 624.9,125.1 626.1,125.1 627.4,125.1 628.7,125.1 630.0,125.1 631.2,125.1 632.5,125.1 633.8,125.1 635.0,125.1 636.3,125.1 637.6,125.1 638.9,125.1 640.1,125.1 641.4,125.1 642.7,125.1 643.9,125.1 645.2,125.1 646.5,125.1 647.8,125.1 649.0,125.1 650.3,125.1 651.6,125.1 652.8,125.1 654.1,125.1 655.4,125.1 656.7,125.1 657.9,125.1 659.2,125.1 660.5,125.1 661.7,125.1 663.0,125.1 664.3,125.1 665.6,125.1 666.8,125.1 668.1,125.1 669.4,125.1 670.6,125.1 671.9,125.1 673.2,125.1 674.5,125.1 675.7,125.1 677.0,125.1 678.3,125.1 679.5,125.1 680.8,125.1 682.1,125.1 683.4,125.1 684.6,125.1 685.9,125.1 687.2,125.1 688.4,125.1 689.7,125.1 691.0,125.1 692.3,125.1 693.5,125.1 694.8,125.1 696.1,125.1 697.3,125.1 698.6,125.1 699.9,125.1 701.2,125.1 702.4,125.1 703.7,125.1 705.0,125.1 706.2,125.1 707.5,125.1 708.8,125.1 710.1,125.1 711.3,125.1 712.6,125.1 713.9,125.1 715.1,125.1 716.4,125.1 717.7,125.1 719.0,125.1 720.2,125.1 721.5,125.1 722.8,125.1 724.0,125.1 725.3,125.1 726.6,125.1 727.9,125.1 729.1,125.1 730.4,125.1 731.7,125.1 732.9,125.1 734.2,125.1 735.5,125.1 736.8,125.1 738.0,125.1 739.3,125.1 740.6,125.1 741.8,125.1 743.1,125.1 744.4,125.1 745.7,125.1 746.9,125.1 748.2,125.1 749.5,125.1 750.7,125.1 752.0,125.1 753.3,125.1 754.6,125.1 755.8,125.1 757.1,125.1 758.4,125.1 759.6,125.1 760.9,125.1 762.2,125.1 763.5,125.1 764.7,125.1 766.0,125.1"/>
<line x1="606" y1="42" x2="628" y2="42" stroke="#0f62fe" stroke-width="2.2"/>
<text x="634" y="46" font-family="Arial" font-size="12">pitch_command_deg</text>
<polyline fill="none" stroke="#24a148" stroke-width="2.2" points="54.0,147.9 55.3,147.8 56.5,147.4 57.8,146.8 59.1,145.8 60.4,144.8 61.6,143.9 62.9,143.2 64.2,142.7 65.4,142.3 66.7,141.9 68.0,141.6 69.3,141.3 70.5,141.0 71.8,140.7 73.1,140.5 74.3,140.3 75.6,140.1 76.9,140.0 78.2,139.9 79.4,139.8 80.7,139.6 82.0,139.5 83.2,139.5 84.5,139.4 85.8,139.3 87.1,139.2 88.3,139.1 89.6,139.0 90.9,138.9 92.1,138.8 93.4,138.7 94.7,138.5 96.0,138.4 97.2,138.3 98.5,138.1 99.8,138.0 101.0,137.9 102.3,137.7 103.6,137.6 104.9,137.6 106.1,137.5 107.4,137.6 108.7,137.7 109.9,137.8 111.2,138.1 112.5,138.5 113.8,139.0 115.0,139.7 116.3,140.7 117.6,141.9 118.8,143.5 120.1,145.3 121.4,147.4 122.7,149.7 123.9,152.2 125.2,154.8 126.5,157.4 127.7,159.9 129.0,162.2 130.3,164.4 131.6,166.4 132.8,168.2 134.1,169.7 135.4,170.9 136.6,171.8 137.9,172.2 139.2,172.4 140.5,172.1 141.7,171.4 143.0,170.5 144.3,169.2 145.5,167.8 146.8,166.2 148.1,164.5 149.4,162.9 150.6,161.5 151.9,160.2 153.2,159.1 154.4,157.7 155.7,156.2 157.0,154.5 158.3,152.8 159.5,151.5 160.8,150.7 162.1,150.2 163.3,150.0 164.6,150.0 165.9,150.3 167.2,151.0 168.4,151.9 169.7,153.3 171.0,155.1 172.2,157.5 173.5,160.3 174.8,163.4 176.1,166.9 177.3,170.4 178.6,173.9 179.9,177.3 181.1,180.2 182.4,182.6 183.7,184.1 185.0,184.6 186.2,183.8 187.5,181.8 188.8,178.7 190.0,174.8 191.3,170.3 192.6,165.4 193.9,160.5 195.1,155.5 196.4,150.5 197.7,145.8 198.9,141.6 200.2,138.3 201.5,136.2 202.8,135.5 204.0,136.1 205.3,138.2 206.6,141.7 207.8,146.6 209.1,152.9 210.4,160.3 211.7,168.3 212.9,176.6 214.2,184.7 215.5,192.2 216.7,198.4 218.0,202.6 219.3,204.2 220.6,202.6 221.8,197.9 223.1,190.4 224.4,180.9 225.6,170.0 226.9,158.2 228.2,145.5 229.5,132.5 230.7,119.5 232.0,107.8 233.3,99.8 234.5,98.7 235.8,105.4 237.1,118.2 238.4,134.8 239.6,153.7 240.9,173.9 242.2,194.6 243.4,214.9 244.7,232.3 246.0,239.5 247.3,229.7 248.5,210.2 249.8,187.8 251.1,164.8 252.3,142.5 253.6,122.4 254.9,107.0 256.2,100.3 257.4,104.6 258.7,118.1 260.0,136.6 261.2,157.8 262.5,180.2 263.8,202.4 265.1,222.3 266.3,234.3 267.6,230.6 268.9,214.3 270.1,192.9 271.4,170.0 272.7,147.2 274.0,125.7 275.2,107.7 276.5,97.0 277.8,98.2 279.0,110.0 280.3,128.0 281.6,149.0 282.9,171.1 284.1,193.3 285.4,213.8 286.7,228.6 287.9,230.4 289.2,217.9 290.5,198.1 291.8,175.8 293.0,152.8 294.3,130.4 295.6,110.2 296.8,95.5 298.1,91.5 299.4,100.0 300.7,116.5 301.9,136.6 303.2,158.1 304.5,180.0 305.7,200.7 307.0,217.7 308.3,225.5 309.6,219.6 310.8,203.5 312.1,182.7 313.4,160.1 314.6,137.1 315.9,115.0 317.2,95.9 318.5,84.3 319.7,86.3 321.0,99.8 322.3,118.4 323.5,138.8 324.8,159.6 326.1,179.8 327.4,198.1 328.6,211.8 329.9,216.8 331.2,210.2 332.4,194.7 333.7,174.6 335.0,152.7 336.3,130.5 337.5,108.4 338.8,88.0 340.1,73.2 341.3,73.3 342.6,87.5 343.9,106.3 345.2,126.3 346.4,146.3 347.7,165.4 349.0,182.8 350.2,196.8 351.5,204.9 352.8,204.3 354.1,194.8 355.3,179.6 356.6,161.9 357.9,142.9 359.1,123.5 360.4,104.0 361.7,84.0 363.0,64.6 364.2,54.0 365.5,68.5 366.8,87.6 368.0,106.9 369.3,125.7 370.6,143.6 371.9,159.9 373.1,173.9 374.4,183.9 375.7,188.4 376.9,186.3 378.2,179.0 379.5,168.3 380.8,155.4 382.0,141.2 383.3,126.3 384.6,111.3 385.8,95.1 387.1,78.6 388.4,63.6 389.7,58.8 390.9,70.4 392.2,86.4 393.5,102.8 394.7,119.0 396.0,134.4 397.3,148.6 398.6,161.0 399.8,170.7 401.1,176.9 402.4,179.4 403.6,178.7 404.9,175.1 406.2,169.2 407.5,161.8 408.7,153.3 410.0,144.4 411.3,135.4 412.5,126.8 413.8,117.1 415.1,106.7 416.4,96.4 417.6,87.5 418.9,82.2 420.2,83.3 421.4,90.2 422.7,100.9 424.0,113.3 425.3,126.6 426.5,140.2 427.8,153.7 429.1,166.5 430.3,178.4 431.6,188.9 432.9,197.7 434.2,203.6 435.4,206.5 436.7,206.5 438.0,204.0 439.2,200.0 440.5,195.1 441.8,189.9 443.1,184.7 444.3,179.9 445.6,175.5 446.9,171.7 448.1,168.6 449.4,166.0 450.7,164.1 452.0,162.7 453.2,161.9 454.5,161.4 455.8,161.3 457.0,161.2 458.3,161.0 459.6,160.4 460.9,159.2 462.1,157.5 463.4,155.3 464.7,152.8 465.9,150.1 467.2,147.2 468.5,144.4 469.8,142.0 471.0,140.0 472.3,138.8 473.6,138.4 474.8,138.7 476.1,139.4 477.4,139.8 478.7,139.6 479.9,139.1 481.2,138.2 482.5,137.0 483.7,135.6 485.0,134.2 486.3,133.0 487.6,131.8 488.8,130.7 490.1,129.4 491.4,128.0 492.6,126.5 493.9,125.1 495.2,124.2 496.5,123.7 497.7,123.9 499.0,125.1 500.3,127.6 501.5,130.2 502.8,133.1 504.1,136.6 505.4,140.8 506.6,146.0 507.9,152.2 509.2,159.4 510.4,167.6 511.7,176.4 513.0,185.7 514.3,195.2 515.5,204.5 516.8,213.6 518.1,222.0 519.3,229.5 520.6,236.1 521.9,241.7 523.2,246.2 524.4,249.6 525.7,251.9 527.0,253.2 528.2,253.7 529.5,253.4 530.8,252.6 532.1,251.2 533.3,249.2 534.6,246.4 535.9,242.7 537.1,237.9 538.4,231.9 539.7,224.6 541.0,216.1 542.2,207.1 543.5,198.1 544.8,189.2 546.0,180.5 547.3,172.0 548.6,163.8 549.9,156.0 551.1,148.8 552.4,142.3 553.7,136.5 554.9,131.4 556.2,126.8 557.5,122.8 558.8,119.3 560.0,116.6 561.3,114.8 562.6,114.0 563.8,114.0 565.1,115.0 566.4,116.9 567.7,119.7 568.9,123.2 570.2,127.3 571.5,132.1 572.7,137.8 574.0,144.4 575.3,151.8 576.6,159.9 577.8,168.0 579.1,175.6 580.4,182.8 581.6,189.8 582.9,196.5 584.2,202.6 585.5,207.7 586.7,211.4 588.0,213.7 589.3,214.8 590.5,215.0 591.8,213.1 593.1,209.5 594.4,204.8 595.6,199.6 596.9,194.4 598.2,189.4 599.4,185.2 600.7,181.6 602.0,178.9 603.3,177.4 604.5,177.6 605.8,179.8 607.1,184.2 608.3,190.9 609.6,199.0 610.9,207.5 612.2,215.8 613.4,223.6 614.7,230.3 616.0,235.1 617.2,237.2 618.5,237.6 619.8,235.7 621.1,231.5 622.3,225.5 623.6,218.3 624.9,210.0 626.1,201.3 627.4,193.5 628.7,187.0 630.0,182.3 631.2,179.6 632.5,179.0 633.8,180.7 635.0,184.6 636.3,190.0 637.6,196.7 638.9,204.9 640.1,214.5 641.4,224.4 642.7,233.1 643.9,237.8 645.2,235.9 646.5,228.0 647.8,216.9 649.0,204.9 650.3,193.1 651.6,182.7 652.8,174.3 654.1,168.5 655.4,165.7 656.7,165.9 657.9,169.2 659.2,175.6 660.5,184.6 661.7,195.8 663.0,208.5 664.3,222.0 665.6,234.9 666.8,244.0 668.1,243.6 669.4,233.5 670.6,219.3 671.9,204.1 673.2,189.4 674.5,176.3 675.7,165.5 677.0,157.9 678.3,154.1 679.5,154.3 680.8,158.6 682.1,166.5 683.4,177.6 684.6,191.1 685.9,206.5 687.2,222.9 688.4,239.5 689.7,252.6 691.0,251.0 692.3,236.1 693.5,218.1 694.8,199.9 696.1,182.6 697.3,167.0 698.6,154.2 699.9,145.1 701.2,140.8 702.4,141.6 703.7,147.3 705.0,157.4 706.2,170.8 707.5,186.6 708.8,204.3 710.1,223.2 711.3,242.6 712.6,259.6 713.9,254.1 715.1,234.4 716.4,213.5 717.7,193.0 719.0,173.5 720.2,155.7 721.5,140.7 722.8,129.8 724.0,124.6 725.3,125.8 726.6,133.2 727.9,145.3 729.1,160.8 730.4,178.6 731.7,197.9 732.9,218.4 734.2,239.6 735.5,260.4 736.8,258.0 738.0,236.5 739.3,214.4 740.6,192.6 741.8,171.3 743.1,151.3 744.4,133.0 745.7,117.4 746.9,106.2 748.2,101.8 749.5,105.6 750.7,116.2 752.0,131.3 753.3,149.0 754.6,168.3 755.8,188.8 757.1,210.1 758.4,232.0 759.6,254.6 760.9,266.0 762.2,243.2 763.5,220.1 764.7,197.0 766.0,174.6"/>
<line x1="606" y1="60" x2="628" y2="60" stroke="#24a148" stroke-width="2.2"/>
<text x="634" y="64" font-family="Arial" font-size="12">pitch_deg</text>
</svg>