<svg xmlns="http://www.w3.org/2000/svg" width="820" height="320" viewBox="0 0 820 320">
<rect width="100%" height="100%" fill="#ffffff"/>
<text x="54" y="28" font-family="Arial" font-size="18" font-weight="700">Alpha/Beta</text>
<line x1="54" y1="266" x2="766" y2="266" stroke="#1f2933"/>
<line x1="54" y1="54" x2="54" y2="266" stroke="#1f2933"/>
<text x="54" y="306" font-family="Arial" font-size="12">time (s)</text>
<text x="596" y="306" font-family="Arial" font-size="12">angle (deg)</text>
<text x="58" y="68" font-family="Arial" font-size="11">4.73</text>
<text x="58" y="260" font-family="Arial" font-size="11">0</text>
<polyline fill="none" stroke="#0f62fe" stroke-width="2.2" points="54.0,238.1 55.2,217.8 56.4,193.1 57.6,172.2 58.7,157.6 59.9,147.0 61.1,137.8 62.3,128.9 63.5,120.5 64.7,113.2 65.9,107.0 67.1,101.8 68.2,97.2 69.4,93.1 70.6,89.4 71.8,86.2 73.0,83.3 74.2,80.7 75.4,78.4 76.5,76.3 77.7,74.5 78.9,72.8 80.1,71.2 81.3,69.8 82.5,68.5 83.7,67.3 84.9,66.2 86.0,65.2 87.2,64.3 88.4,63.4 89.6,62.6 90.8,61.9 92.0,61.2 93.2,60.5 94.3,59.9 95.5,59.4 96.7,58.8 97.9,58.4 99.1,57.9 100.3,57.5 101.5,57.1 102.7,56.7 103.8,56.4 105.0,56.1 106.2,55.8 107.4,55.5 108.6,55.3 109.8,55.1 111.0,54.9 112.1,54.7 113.3,54.5 114.5,54.4 115.7,54.3 116.9,54.2 118.1,54.1 119.3,54.1 120.5,54.0 121.6,54.0 122.8,54.0 124.0,54.0 125.2,54.0 126.4,54.1 127.6,54.2 128.8,54.2 129.9,54.3 131.1,54.4 132.3,54.6 133.5,54.7 134.7,54.9 135.9,55.0 137.1,55.2 138.3,55.4 139.4,55.6 140.6,55.9 141.8,56.1 143.0,56.3 144.2,56.6 145.4,56.9 146.6,57.2 147.7,57.5 148.9,57.8 150.1,58.1 151.3,58.2 152.5,58.2 153.7,58.2 154.9,58.2 156.1,58.0 157.2,57.9 158.4,57.7 159.6,57.5 160.8,57.3 162.0,57.1 163.2,56.9 164.4,56.6 165.5,56.4 166.7,56.2 167.9,56.0 169.1,55.8 170.3,55.7 171.5,55.5 172.7,55.4 173.9,55.3 175.0,55.2 176.2,55.1 177.4,55.1 178.6,55.0 179.8,55.0 181.0,55.0 182.2,55.1 183.3,55.1 184.5,55.2 185.7,55.3 186.9,55.4 188.1,55.6 189.3,55.7 190.5,55.9 191.7,56.1 192.8,56.4 194.0,56.6 195.2,56.9 196.4,57.2 197.6,57.5 198.8,57.8 200.0,58.2 201.1,58.6 202.3,59.0 203.5,59.4 204.7,59.8 205.9,60.3 207.1,60.7 208.3,61.2 209.5,61.7 210.6,62.3 211.8,62.8 213.0,63.4 214.2,64.0 215.4,64.5 216.6,65.2 217.8,65.8 218.9,66.4 220.1,67.1 221.3,67.7 222.5,68.4 223.7,69.1 224.9,69.8 226.1,70.6 227.3,71.3 228.4,72.1 229.6,72.8 230.8,73.6 232.0,74.4 233.2,75.2 234.4,76.0 235.6,76.8 236.7,77.6 237.9,78.5 239.1,79.3 240.3,80.2 241.5,81.1 242.7,81.9 243.9,82.8 245.1,83.7 246.2,84.6 247.4,85.5 248.6,86.4 249.8,87.4 251.0,88.3 252.2,89.2 253.4,90.2 254.5,91.1 255.7,92.1 256.9,93.0 258.1,94.0 259.3,95.0 260.5,95.9 261.7,96.9 262.9,97.9 264.0,98.9 265.2,99.8 266.4,100.8 267.6,101.8 268.8,102.8 270.0,103.8 271.2,104.8 272.3,105.8 273.5,106.7 274.7,107.9 275.9,108.6 277.1,110.3 278.3,109.7 279.5,114.3 280.7,106.9 281.8,127.7 283.0,102.6 284.2,113.1 285.4,105.6 286.6,130.1 287.8,108.7 289.0,121.9 290.1,103.1 291.3,130.1 292.5,116.6 293.7,145.2 294.9,127.6 296.1,147.6 297.3,121.9 298.5,139.6 299.6,111.6 300.8,129.9 302.0,102.4 303.2,121.1 304.4,106.2 305.6,137.1 306.8,121.6 307.9,151.8 309.1,135.7 310.3,162.9 311.5,143.9 312.7,164.7 313.9,139.5 315.1,158.9 316.3,132.4 317.4,152.1 318.6,126.0 319.8,146.0 321.0,120.2 322.2,140.6 323.4,115.0 324.6,135.7 325.7,113.1 326.9,136.5 328.1,115.1 329.3,139.7 330.5,118.1 331.7,142.6 332.9,121.0 334.1,145.4 335.2,123.6 336.4,147.9 337.6,126.1 338.8,150.4 340.0,128.5 341.2,152.6 342.4,130.7 343.5,154.8 344.7,132.7 345.9,156.8 347.1,134.7 348.3,158.7 349.5,136.6 350.7,160.5 351.9,138.3 353.0,162.3 354.2,140.0 355.4,164.0 356.6,141.7 357.8,165.6 359.0,143.3 360.2,167.1 361.3,144.8 362.5,168.7 363.7,146.3 364.9,170.1 366.1,147.8 367.3,171.6 368.5,149.2 369.7,173.0 370.8,150.6 372.0,174.3 373.2,151.9 374.4,175.7 375.6,153.2 376.8,177.0 378.0,154.5 379.1,178.2 380.3,155.7 381.5,179.5 382.7,157.0 383.9,180.7 385.1,159.2 386.3,183.8 387.5,162.1 388.6,186.7 389.8,164.9 391.0,189.3 392.2,167.4 393.4,191.7 394.6,169.7 395.8,194.0 396.9,171.9 398.1,196.0 399.3,173.8 400.5,197.9 401.7,175.6 402.9,199.7 404.1,177.3 405.3,201.3 406.4,178.9 407.6,202.8 408.8,180.3 410.0,204.2 411.2,181.7 412.4,205.5 413.6,182.9 414.7,206.7 415.9,184.1 417.1,207.8 418.3,185.2 419.5,208.9 420.7,186.2 421.9,209.9 423.1,187.1 424.2,210.8 425.4,188.0 426.6,211.7 427.8,188.9 429.0,212.5 430.2,189.7 431.4,213.3 432.5,190.5 433.7,214.1 434.9,191.2 436.1,214.8 437.3,191.9 438.5,215.5 439.7,192.6 440.9,216.1 442.0,193.2 443.2,216.8 444.4,193.8 445.6,217.4 446.8,194.4 448.0,217.9 449.2,195.0 450.3,218.5 451.5,195.5 452.7,219.0 453.9,196.1 455.1,219.6 456.3,196.6 457.5,220.1 458.7,197.1 459.8,220.6 461.0,197.6 462.2,221.1 463.4,198.0 464.6,221.5 465.8,198.5 467.0,222.0 468.1,198.9 469.3,222.4 470.5,199.4 471.7,222.8 472.9,199.8 474.1,223.3 475.3,200.2 476.5,223.7 477.6,200.6 478.8,224.1 480.0,201.0 481.2,224.5 482.4,201.4 483.6,224.9 484.8,201.8 485.9,225.2 487.1,202.1 488.3,225.6 489.5,202.5 490.7,226.0 491.9,202.9 493.1,226.4 494.3,203.2 495.4,226.7 496.6,203.6 497.8,227.1 499.0,203.9 500.2,227.4 501.4,204.3 502.6,227.7 503.7,204.6 504.9,228.1 506.1,204.9 507.3,228.4 508.5,205.2 509.7,228.7 510.9,205.6 512.1,229.1 513.2,205.9 514.4,229.4 515.6,206.2 516.8,229.7 518.0,206.5 519.2,230.0 520.4,206.8 521.5,230.3 522.7,207.1 523.9,230.6 525.1,207.4 526.3,230.9 527.5,207.7 528.7,231.2 529.9,208.0 531.0,231.5 532.2,208.3 533.4,231.8 534.6,208.6 535.8,232.1 537.0,208.8 538.2,232.4 539.3,209.1 540.5,232.6 541.7,209.4 542.9,232.9 544.1,209.7 545.3,233.2 546.5,209.9 547.7,233.5 548.8,210.2 550.0,233.7 551.2,210.5 552.4,234.0 553.6,210.7 554.8,234.3 556.0,211.0 557.1,234.5 558.3,211.2 559.5,234.8 560.7,211.5 561.9,235.0 563.1,211.8 564.3,235.3 565.5,212.0 566.6,235.5 567.8,212.2 569.0,235.8 570.2,212.4 571.4,235.8 572.6,212.4 573.8,235.7 574.9,212.3 576.1,235.7 577.3,212.3 578.5,235.6 579.7,212.1 580.9,235.4 582.1,212.0 583.3,235.3 584.4,211.8 585.6,235.1 586.8,211.6 588.0,234.9 589.2,211.4 590.4,234.6 591.6,211.2 592.7,234.4 593.9,211.0 595.1,234.1 596.3,210.7 597.5,233.9 598.7,210.4 599.9,233.6 601.1,210.1 602.2,233.3 603.4,209.9 604.6,233.0 605.8,209.6 607.0,232.7 608.2,209.3 609.4,232.4 610.5,208.9 611.7,232.1 612.9,208.6 614.1,231.7 615.3,208.3 616.5,231.4 617.7,208.0 618.9,231.1 620.0,207.6 621.2,230.7 622.4,207.3 623.6,230.4 624.8,206.9 626.0,230.0 627.2,206.6 628.3,229.7 629.5,206.2 630.7,229.3 631.9,205.9 633.1,228.9 634.3,205.5 635.5,228.6 636.7,205.1 637.8,228.2 639.0,204.8 640.2,227.8 641.4,204.4 642.6,227.4 643.8,204.0 645.0,227.0 646.1,203.6 647.3,226.7 648.5,203.3 649.7,226.3 650.9,202.9 652.1,225.9 653.3,202.5 654.5,225.5 655.6,202.1 656.8,225.1 658.0,201.7 659.2,224.7 660.4,201.3 661.6,224.3 662.8,200.9 663.9,223.9 665.1,200.5 666.3,223.5 667.5,200.1 668.7,223.1 669.9,199.7 671.1,222.7 672.3,199.3 673.4,222.3 674.6,198.9 675.8,221.9 677.0,198.6 678.2,221.7 679.4,198.9 680.6,222.4 681.7,199.5 682.9,223.0 684.1,200.1 685.3,223.5 686.5,200.6 687.7,223.9 688.9,200.9 690.1,224.2 691.2,201.2 692.4,224.5 693.6,201.5 694.8,224.7 696.0,201.6 697.2,224.8 698.4,201.8 699.5,224.9 700.7,201.8 701.9,225.0 703.1,201.9 704.3,225.1 705.5,202.2 706.7,225.6 707.9,202.7 709.0,226.0 710.2,203.0 711.4,226.3 712.6,203.3 713.8,226.5 715.0,203.5 716.2,226.7 717.3,203.8 718.5,227.0 719.7,204.1 720.9,227.4 722.1,204.4 723.3,227.7 724.5,204.7 725.7,227.9 726.8,204.9 728.0,228.1 729.2,205.1 730.4,228.2 731.6,205.1 732.8,228.2 734.0,205.1 735.1,228.1 736.3,204.9 737.5,227.9 738.7,204.8 739.9,227.7 741.1,204.5 742.3,227.4 743.5,204.2 744.6,227.1 745.8,203.9 747.0,226.7 748.2,203.5 749.4,226.3 750.6,203.0 751.8,225.9 752.9,202.6 754.1,225.4 755.3,202.1 756.5,222.4 757.7,196.8 758.9,217.4 760.1,192.0 761.3,212.8 762.4,187.5 763.6,208.5 764.8,183.4 766.0,204.6"/>
<line x1="606" y1="42" x2="628" y2="42" stroke="#0f62fe" stroke-width="2.2"/>
<text x="634" y="46" font-family="Arial" font-size="12">alpha_deg</text>
<polyline fill="none" stroke="#24a148" stroke-width="2.2" points="54.0,266.0 55.2,266.0 56.4,266.0 57.6,266.0 58.7,266.0 59.9,266.0 61.1,266.0 62.3,266.0 63.5,266.0 64.7,266.0 65.9,266.0 67.1,266.0 68.2,266.0 69.4,266.0 70.6,266.0 71.8,266.0 73.0,266.0 74.2,266.0 75.4,266.0 76.5,266.0 77.7,266.0 78.9,266.0 80.1,266.0 81.3,266.0 82.5,266.0 83.7,266.0 84.9,266.0 86.0,266.0 87.2,266.0 88.4,266.0 89.6,266.0 90.8,266.0 92.0,266.0 93.2,266.0 94.3,266.0 95.5,266.0 96.7,266.0 97.9,266.0 99.1,266.0 100.3,266.0 101.5,266.0 102.7,266.0 103.8,266.0 105.0,266.0 106.2,266.0 107.4,266.0 108.6,266.0 109.8,266.0 111.0,266.0 112.1,266.0 113.3,266.0 114.5,266.0 115.7,266.0 116.9,266.0 118.1,266.0 119.3,266.0 120.5,266.0 121.6,266.0 122.8,266.0 124.0,266.0 125.2,266.0 126.4,266.0 127.6,266.0 128.8,266.0 129.9,266.0 131.1,266.0 132.3,266.0 133.5,266.0 134.7,266.0 135.9,266.0 137.1,266.0 138.3,266.0 139.4,266.0 140.6,266.0 141.8,266.0 143.0,266.0 144.2,266.0 145.4,266.0 146.6,266.0 147.7,266.0 148.9,266.0 150.1,266.0 151.3,266.0 152.5,266.0 153.7,266.0 154.9,266.0 156.1,266.0 157.2,266.0 158.4,266.0 159.6,266.0 160.8,266.0 162.0,266.0 163.2,266.0 164.4,266.0 165.5,266.0 166.7,266.0 167.9,266.0 169.1,266.0 170.3,266.0 171.5,266.0 172.7,266.0 173.9,266.0 175.0,266.0 176.2,266.0 177.4,266.0 178.6,266.0 179.8,266.0 181.0,266.0 182.2,266.0 183.3,266.0 184.5,266.0 185.7,266.0 186.9,266.0 188.1,266.0 189.3,266.0 190.5,266.0 191.7,266.0 192.8,266.0 194.0,266.0 195.2,266.0 196.4,266.0 197.6,266.0 198.8,266.0 200.0,266.0 201.1,266.0 202.3,266.0 203.5,266.0 204.7,266.0 205.9,266.0 207.1,266.0 208.3,266.0 209.5,266.0 210.6,266.0 211.8,266.0 213.0,266.0 214.2,266.0 215.4,266.0 216.6,266.0 217.8,266.0 218.9,266.0 220.1,266.0 221.3,266.0 222.5,266.0 223.7,266.0 224.9,266.0 226.1,266.0 227.3,266.0 228.4,266.0 229.6,266.0 230.8,266.0 232.0,266.0 233.2,266.0 234.4,266.0 235.6,266.0 236.7,266.0 237.9,266.0 239.1,266.0 240.3,266.0 241.5,266.0 242.7,266.0 243.9,266.0 245.1,266.0 246.2,266.0 247.4,266.0 248.6,266.0 249.8,266.0 251.0,266.0 252.2,266.0 253.4,266.0 254.5,266.0 255.7,266.0 256.9,266.0 258.1,266.0 259.3,266.0 260.5,266.0 261.7,266.0 262.9,266.0 264.0,266.0 265.2,266.0 266.4,266.0 267.6,266.0 268.8,266.0 270.0,266.0 271.2,266.0 272.3,266.0 273.5,266.0 274.7,266.0 275.9,266.0 277.1,266.0 278.3,266.0 279.5,266.0 280.7,266.0 281.8,266.0 283.0,266.0 284.2,266.0 285.4,266.0 286.6,266.0 287.8,266.0 289.0,266.0 290.1,266.0 291.3,266.0 292.5,266.0 293.7,266.0 294.9,266.0 296.1,266.0 297.3,266.0 298.5,266.0 299.6,266.0 300.8,266.0 302.0,266.0 303.2,266.0 304.4,266.0 305.6,266.0 306.8,266.0 307.9,266.0 309.1,266.0 310.3,266.0 311.5,266.0 312.7,266.0 313.9,266.0 315.1,266.0 316.3,266.0 317.4,266.0 318.6,266.0 319.8,266.0 321.0,266.0 322.2,266.0 323.4,266.0 324.6,266.0 325.7,266.0 326.9,266.0 328.1,266.0 329.3,266.0 330.5,266.0 331.7,266.0 332.9,266.0 334.1,266.0 335.2,266.0 336.4,266.0 337.6,266.0 338.8,266.0 340.0,266.0 341.2,266.0 342.4,266.0 343.5,266.0 344.7,266.0 345.9,266.0 347.1,266.0 348.3,266.0 349.5,266.0 350.7,266.0 351.9,266.0 353.0,266.0 354.2,266.0 355.4,266.0 356.6,266.0 357.8,266.0 359.0,266.0 360.2,266.0 361.3,266.0 362.5,266.0 363.7,266.0 364.9,266.0 366.1,266.0 367.3,266.0 368.5,266.0 369.7,266.0 370.8,266.0 372.0,266.0 373.2,266.0 374.4,266.0 375.6,266.0 376.8,266.0 378.0,266.0 379.1,266.0 380.3,266.0 381.5,266.0 382.7,266.0 383.9,266.0 385.1,266.0 386.3,266.0 387.5,266.0 388.6,266.0 389.8,266.0 391.0,266.0 392.2,266.0 393.4,266.0 394.6,266.0 395.8,266.0 396.9,266.0 398.1,266.0 399.3,266.0 400.5,266.0 401.7,266.0 402.9,266.0 404.1,266.0 405.3,266.0 406.4,266.0 407.6,266.0 408.8,266.0 410.0,266.0 411.2,266.0 412.4,266.0 413.6,266.0 414.7,266.0 415.9,266.0 417.1,266.0 418.3,266.0 419.5,266.0 420.7,266.0 421.9,266.0 423.1,266.0 424.2,266.0 425.4,266.0 426.6,266.0 427.8,266.0 429.0,266.0 430.2,266.0 431.4,266.0 432.5,266.0 433.7,266.0 434.9,266.0 436.1,266.0 437.3,266.0 438.5,266.0 439.7,266.0 440.9,266.0 442.0,266.0 443.2,266.0 444.4,266.0 445.6,266.0 446.8,266.0 448.0,266.0 449.2,266.0 450.3,266.0 451.5,266.0 452.7,266.0 453.9,266.0 455.1,266.0 456.3,266.0 457.5,266.0 458.7,266.0 459.8,266.0 461.0,266.0 462.2,266.0 463.4,266.0 464.6,266.0 465.8,266.0 467.0,266.0 468.1,266.0 469.3,266.0 470.5,266.0 471.7,266.0 472.9,266.0 474.1,266.0 475.3,266.0 476.5,266.0 477.6,266.0 478.8,266.0 480.0,266.0 481.2,266.0 482.4,266.0 483.6,266.0 484.8,266.0 485.9,266.0 487.1,266.0 488.3,266.0 489.5,266.0 490.7,266.0 491.9,266.0 493.1,266.0 494.3,266.0 495.4,266.0 496.6,266.0 497.8,266.0 499.0,266.0 500.2,266.0 501.4,266.0 502.6,266.0 503.7,266.0 504.9,266.0 506.1,266.0 507.3,266.0 508.5,266.0 509.7,266.0 510.9,266.0 512.1,266.0 513.2,266.0 514.4,266.0 515.6,266.0 516.8,266.0 518.0,266.0 519.2,266.0 520.4,266.0 521.5,266.0 522.7,266.0 523.9,266.0 525.1,266.0 526.3,266.0 527.5,266.0 528.7,266.0 529.9,266.0 531.0,266.0 532.2,266.0 533.4,266.0 534.6,266.0 535.8,266.0 537.0,266.0 538.2,266.0 539.3,266.0 540.5,266.0 541.7,266.0 542.9,266.0 544.1,266.0 545.3,266.0 546.5,266.0 547.7,266.0 548.8,266.0 550.0,266.0 551.2,266.0 552.4,266.0 553.6,266.0 554.8,266.0 556.0,266.0 557.1,266.0 558.3,266.0 559.5,266.0 560.7,266.0 561.9,266.0 563.1,266.0 564.3,266.0 565.5,266.0 566.6,266.0 567.8,266.0 569.0,266.0 570.2,266.0 571.4,266.0 572.6,266.0 573.8,266.0 574.9,266.0 576.1,266.0 577.3,266.0 578.5,266.0 579.7,266.0 580.9,266.0 582.1,266.0 583.3,266.0 584.4,266.0 585.6,266.0 586.8,266.0 588.0,266.0 589.2,266.0 590.4,266.0 591.6,266.0 592.7,266.0 593.9,266.0 595.1,266.0 596.3,266.0 597.5,266.0 598.7,266.0 599.9,266.0 601.1,266.0 602.2,266.0 603.4,266.0 604.6,266.0 605.8,266.0 607.0,266.0 608.2,266.0 609.4,266.0 610.5,266.0 611.7,266.0 612.9,266.0 614.1,266.0 615.3,266.0 616.5,266.0 617.7,266.0 618.9,266.0 620.0,266.0 621.2,266.0 622.4,266.0 623.6,266.0 624.8,266.0 626.0,266.0 627.2,266.0 628.3,266.0 629.5,266.0 630.7,266.0 631.9,266.0 633.1,266.0 634.3,266.0 635.5,266.0 636.7,266.0 637.8,266.0 639.0,266.0 640.2,266.0 641.4,266.0 642.6,266.0 643.8,266.0 645.0,266.0 646.1,266.0 647.3,266.0 648.5,266.0 649.7,266.0 650.9,266.0 652.1,266.0 653.3,266.0 654.5,266.0 655.6,266.0 656.8,266.0 658.0,266.0 659.2,266.0 660.4,266.0 661.6,266.0 662.8,266.0 663.9,266.0 665.1,266.0 666.3,266.0 667.5,266.0 668.7,266.0 669.9,266.0 671.1,266.0 672.3,266.0 673.4,266.0 674.6,266.0 675.8,266.0 677.0,266.0 678.2,266.0 679.4,266.0 680.6,266.0 681.7,266.0 682.9,266.0 684.1,266.0 685.3,266.0 686.5,266.0 687.7,266.0 688.9,266.0 690.1,266.0 691.2,266.0 692.4,266.0 693.6,266.0 694.8,266.0 696.0,266.0 697.2,266.0 698.4,266.0 699.5,266.0 700.7,266.0 701.9,266.0 703.1,266.0 704.3,266.0 705.5,266.0 706.7,266.0 707.9,266.0 709.0,266.0 710.2,266.0 711.4,266.0 712.6,266.0 713.8,266.0 715.0,266.0 716.2,266.0 717.3,266.0 718.5,266.0 719.7,266.0 720.9,266.0 722.1,266.0 723.3,266.0 724.5,266.0 725.7,266.0 726.8,266.0 728.0,266.0 729.2,266.0 730.4,266.0 731.6,266.0 732.8,266.0 734.0,266.0 735.1,266.0 736.3,266.0 737.5,266.0 738.7,266.0 739.9,266.0 741.1,266.0 742.3,266.0 743.5,266.0 744.6,266.0 745.8,266.0 747.0,266.0 748.2,266.0 749.4,266.0 750.6,266.0 751.8,266.0 752.9,266.0 754.1,266.0 755.3,266.0 756.5,266.0 757.7,266.0 758.9,266.0 760.1,266.0 761.3,266.0 762.4,266.0 763.6,266.0 764.8,266.0 766.0,266.0"/>
<line x1="606" y1="60" x2="628" y2="60" stroke="#24a148" stroke-width="2.2"/>
<text x="634" y="64" font-family="Arial" font-size="12">beta_deg</text>
</svg>