<svg xmlns="http://www.w3.org/2000/svg" width="820" height="320" viewBox="0 0 820 320">
<rect width="100%" height="100%" fill="#ffffff"/>
<text x="54" y="28" font-family="Arial" font-size="18" font-weight="700">Mach Number</text>
<line x1="54" y1="266" x2="766" y2="266" stroke="#1f2933"/>
<line x1="54" y1="54" x2="54" y2="266" stroke="#1f2933"/>
<text x="54" y="306" font-family="Arial" font-size="12">time (s)</text>
<text x="596" y="306" font-family="Arial" font-size="12">Mach</text>
<text x="58" y="68" font-family="Arial" font-size="11">0.636</text>
<text x="58" y="260" font-family="Arial" font-size="11">0.251</text>
<polyline fill="none" stroke="#0f62fe" stroke-width="2.2" points="54.0,266.0 55.2,265.2 56.4,264.4 57.6,263.6 58.7,262.8 59.9,261.9 61.1,261.1 62.3,260.2 63.5,259.3 64.7,258.4 65.9,257.5 67.1,256.6 68.2,255.6 69.4,254.7 70.6,253.7 71.8,252.8 73.0,251.8 74.2,250.8 75.4,249.8 76.5,248.9 77.7,247.9 78.9,246.9 80.1,246.0 81.3,245.0 82.5,244.0 83.7,243.1 84.9,242.1 86.0,241.2 87.2,240.2 88.4,239.2 89.6,238.3 90.8,237.3 92.0,236.4 93.2,235.4 94.3,234.5 95.5,233.5 96.7,232.6 97.9,231.6 99.1,230.7 100.3,229.7 101.5,228.8 102.7,227.8 103.8,226.9 105.0,225.9 106.2,225.0 107.4,224.0 108.6,223.1 109.8,222.2 111.0,221.2 112.1,220.3 113.3,219.4 114.5,218.4 115.7,217.5 116.9,216.6 118.1,215.6 119.3,214.7 120.5,213.8 121.6,212.8 122.8,211.9 124.0,211.0 125.2,210.1 126.4,209.2 127.6,208.2 128.8,207.3 129.9,206.4 131.1,205.5 132.3,204.6 133.5,203.7 134.7,202.7 135.9,201.8 137.1,200.9 138.3,200.0 139.4,199.1 140.6,198.2 141.8,197.3 143.0,196.4 144.2,195.5 145.4,194.6 146.6,193.7 147.7,192.8 148.9,191.9 150.1,191.0 151.3,190.1 152.5,189.2 153.7,188.4 154.9,187.5 156.1,186.6 157.2,185.7 158.4,184.8 159.6,183.9 160.8,183.1 162.0,182.2 163.2,181.3 164.4,180.4 165.5,179.6 166.7,178.7 167.9,177.8 169.1,177.0 170.3,176.1 171.5,175.3 172.7,174.4 173.9,173.5 175.0,172.7 176.2,171.8 177.4,171.0 178.6,170.1 179.8,169.3 181.0,168.4 182.2,167.6 183.3,166.8 184.5,165.9 185.7,165.1 186.9,164.3 188.1,163.4 189.3,162.6 190.5,161.8 191.7,160.9 192.8,160.1 194.0,159.3 195.2,158.5 196.4,157.7 197.6,156.8 198.8,156.0 200.0,155.2 201.1,154.4 202.3,153.6 203.5,152.8 204.7,152.0 205.9,151.2 207.1,150.4 208.3,149.6 209.5,148.8 210.6,148.0 211.8,147.2 213.0,146.4 214.2,145.6 215.4,144.8 216.6,144.0 217.8,143.3 218.9,142.5 220.1,141.7 221.3,140.9 222.5,140.1 223.7,139.3 224.9,138.6 226.1,137.8 227.3,137.0 228.4,136.3 229.6,135.5 230.8,134.7 232.0,133.9 233.2,133.2 234.4,132.4 235.6,131.7 236.7,130.9 237.9,130.1 239.1,129.4 240.3,128.6 241.5,127.9 242.7,127.1 243.9,126.4 245.1,125.6 246.2,124.9 247.4,124.1 248.6,123.4 249.8,122.6 251.0,121.9 252.2,121.1 253.4,120.4 254.5,119.6 255.7,118.9 256.9,118.2 258.1,117.4 259.3,116.7 260.5,115.9 261.7,115.2 262.9,114.5 264.0,113.7 265.2,113.0 266.4,112.3 267.6,111.6 268.8,110.8 270.0,110.1 271.2,109.4 272.3,108.7 273.5,107.9 274.7,107.2 275.9,106.5 277.1,105.8 278.3,105.0 279.5,104.3 280.7,103.6 281.8,102.9 283.0,102.2 284.2,101.5 285.4,100.8 286.6,100.1 287.8,99.3 289.0,98.6 290.1,97.9 291.3,97.2 292.5,96.5 293.7,95.8 294.9,95.2 296.1,94.8 297.3,94.4 298.5,94.1 299.6,93.7 300.8,93.2 302.0,92.7 303.2,92.2 304.4,91.7 305.6,91.2 306.8,90.8 307.9,90.4 309.1,90.0 310.3,89.5 311.5,89.0 312.7,88.6 313.9,88.1 315.1,87.7 316.3,87.3 317.4,86.9 318.6,86.4 319.8,86.0 321.0,85.6 322.2,85.2 323.4,84.8 324.6,84.4 325.7,84.0 326.9,83.6 328.1,83.1 329.3,82.7 330.5,82.4 331.7,82.0 332.9,81.6 334.1,81.2 335.2,80.8 336.4,80.4 337.6,80.0 338.8,79.7 340.0,79.3 341.2,78.9 342.4,78.6 343.5,78.2 344.7,77.8 345.9,77.5 347.1,77.1 348.3,76.8 349.5,76.4 350.7,76.1 351.9,75.7 353.0,75.4 354.2,75.0 355.4,74.7 356.6,74.4 357.8,74.0 359.0,73.7 360.2,73.4 361.3,73.1 362.5,72.8 363.7,72.4 364.9,72.1 366.1,71.8 367.3,71.5 368.5,71.2 369.7,70.9 370.8,70.6 372.0,70.3 373.2,70.0 374.4,69.7 375.6,69.4 376.8,69.1 378.0,68.9 379.1,68.6 380.3,68.3 381.5,68.0 382.7,67.8 383.9,67.5 385.1,67.2 386.3,67.0 387.5,66.7 388.6,66.5 389.8,66.2 391.0,66.0 392.2,65.7 393.4,65.5 394.6,65.3 395.8,65.0 396.9,64.8 398.1,64.6 399.3,64.3 400.5,64.1 401.7,63.9 402.9,63.7 404.1,63.5 405.3,63.3 406.4,63.1 407.6,62.8 408.8,62.6 410.0,62.4 411.2,62.3 412.4,62.1 413.6,61.9 414.7,61.7 415.9,61.5 417.1,61.3 418.3,61.1 419.5,61.0 420.7,60.8 421.9,60.6 423.1,60.4 424.2,60.3 425.4,60.1 426.6,59.9 427.8,59.8 429.0,59.6 430.2,59.5 431.4,59.3 432.5,59.2 433.7,59.0 434.9,58.9 436.1,58.7 437.3,58.6 438.5,58.5 439.7,58.3 440.9,58.2 442.0,58.1 443.2,57.9 444.4,57.8 445.6,57.7 446.8,57.6 448.0,57.5 449.2,57.3 450.3,57.2 451.5,57.1 452.7,57.0 453.9,56.9 455.1,56.8 456.3,56.7 457.5,56.6 458.7,56.5 459.8,56.4 461.0,56.3 462.2,56.2 463.4,56.1 464.6,56.0 465.8,56.0 467.0,55.9 468.1,55.8 469.3,55.7 470.5,55.6 471.7,55.6 472.9,55.5 474.1,55.4 475.3,55.3 476.5,55.3 477.6,55.2 478.8,55.1 480.0,55.1 481.2,55.0 482.4,55.0 483.6,54.9 484.8,54.9 485.9,54.8 487.1,54.8 488.3,54.7 489.5,54.7 490.7,54.6 491.9,54.6 493.1,54.5 494.3,54.5 495.4,54.4 496.6,54.4 497.8,54.4 499.0,54.3 500.2,54.3 501.4,54.3 502.6,54.3 503.7,54.2 504.9,54.2 506.1,54.2 507.3,54.2 508.5,54.1 509.7,54.1 510.9,54.1 512.1,54.1 513.2,54.1 514.4,54.1 515.6,54.0 516.8,54.0 518.0,54.0 519.2,54.0 520.4,54.0 521.5,54.0 522.7,54.0 523.9,54.0 525.1,54.0 526.3,54.0 527.5,54.0 528.7,54.0 529.9,54.0 531.0,54.0 532.2,54.0 533.4,54.0 534.6,54.0 535.8,54.1 537.0,54.1 538.2,54.1 539.3,54.1 540.5,54.1 541.7,54.1 542.9,54.2 544.1,54.2 545.3,54.2 546.5,54.2 547.7,54.2 548.8,54.3 550.0,54.3 551.2,54.3 552.4,54.3 553.6,54.4 554.8,54.4 556.0,54.4 557.1,54.5 558.3,54.5 559.5,54.5 560.7,54.6 561.9,54.6 563.1,54.6 564.3,54.7 565.5,54.7 566.6,54.8 567.8,54.8 569.0,54.8 570.2,56.0 571.4,57.2 572.6,58.4 573.8,59.6 574.9,60.8 576.1,61.9 577.3,63.1 578.5,64.2 579.7,65.4 580.9,66.5 582.1,67.7 583.3,68.8 584.4,69.9 585.6,71.0 586.8,72.2 588.0,73.3 589.2,74.4 590.4,75.5 591.6,76.6 592.7,77.7 593.9,78.8 595.1,79.8 596.3,80.9 597.5,82.0 598.7,83.1 599.9,84.1 601.1,85.2 602.2,86.3 603.4,87.3 604.6,88.4 605.8,89.4 607.0,90.5 608.2,91.5 609.4,92.6 610.5,93.6 611.7,94.6 612.9,95.7 614.1,96.7 615.3,97.7 616.5,98.7 617.7,99.7 618.9,100.7 620.0,101.7 621.2,102.7 622.4,103.7 623.6,104.7 624.8,105.7 626.0,106.7 627.2,107.7 628.3,108.7 629.5,109.7 630.7,110.6 631.9,111.6 633.1,112.6 634.3,113.5 635.5,114.5 636.7,115.5 637.8,116.4 639.0,117.4 640.2,118.3 641.4,119.3 642.6,120.2 643.8,121.2 645.0,122.1 646.1,123.0 647.3,124.0 648.5,124.9 649.7,125.8 650.9,126.7 652.1,127.7 653.3,128.6 654.5,129.5 655.6,130.4 656.8,131.3 658.0,132.2 659.2,133.1 660.4,134.0 661.6,134.9 662.8,135.8 663.9,136.7 665.1,137.6 666.3,138.5 667.5,139.4 668.7,140.2 669.9,141.1 671.1,142.0 672.3,142.9 673.4,143.7 674.6,144.6 675.8,145.5 677.0,146.3 678.2,147.2 679.4,148.1 680.6,148.9 681.7,149.8 682.9,150.6 684.1,151.5 685.3,152.3 686.5,153.2 687.7,154.0 688.9,154.8 690.1,155.7 691.2,156.5 692.4,157.3 693.6,158.2 694.8,159.0 696.0,159.8 697.2,160.6 698.4,161.5 699.5,162.3 700.7,163.1 701.9,163.9 703.1,164.7 704.3,165.5 705.5,166.3 706.7,167.2 707.9,168.0 709.0,168.8 710.2,169.6 711.4,170.4 712.6,171.1 713.8,171.9 715.0,172.7 716.2,173.5 717.3,174.3 718.5,175.1 719.7,175.9 720.9,176.7 722.1,177.4 723.3,178.2 724.5,179.0 725.7,179.8 726.8,180.5 728.0,181.3 729.2,182.1 730.4,182.8 731.6,183.6 732.8,184.3 734.0,185.1 735.1,185.9 736.3,186.6 737.5,187.4 738.7,188.1 739.9,188.9 741.1,189.6 742.3,190.4 743.5,191.1 744.6,191.9 745.8,192.6 747.0,193.3 748.2,194.1 749.4,194.8 750.6,195.5 751.8,196.3 752.9,197.0 754.1,197.7 755.3,198.5 756.5,199.2 757.7,199.9 758.9,200.6 760.1,201.4 761.3,202.1 762.4,202.8 763.6,203.5 764.8,204.2 766.0,204.9"/>
<line x1="606" y1="42" x2="628" y2="42" stroke="#0f62fe" stroke-width="2.2"/>
<text x="634" y="46" font-family="Arial" font-size="12">mach</text>
</svg>