<svg xmlns="http://www.w3.org/2000/svg" width="820" height="320" viewBox="0 0 820 320">
<rect width="100%" height="100%" fill="#ffffff"/>
<text x="54" y="28" font-family="Arial" font-size="18" font-weight="700">Dynamic Pressure</text>
<line x1="54" y1="266" x2="766" y2="266" stroke="#1f2933"/>
<line x1="54" y1="54" x2="54" y2="266" stroke="#1f2933"/>
<text x="54" y="306" font-family="Arial" font-size="12">time (s)</text>
<text x="596" y="306" font-family="Arial" font-size="12">qbar (Pa)</text>
<text x="58" y="68" font-family="Arial" font-size="11">2.72e+04</text>
<text x="58" y="260" font-family="Arial" font-size="11">4.46e+03</text>
<polyline fill="none" stroke="#0f62fe" stroke-width="2.2" points="54.0,266.0 55.2,265.5 56.4,265.0 57.6,264.5 58.7,264.0 59.9,263.5 61.1,263.0 62.3,262.5 63.5,261.9 64.7,261.3 65.9,260.8 67.1,260.2 68.2,259.6 69.4,259.0 70.6,258.3 71.8,257.7 73.0,257.0 74.2,256.4 75.4,255.8 76.5,255.1 77.7,254.5 78.9,253.8 80.1,253.1 81.3,252.5 82.5,251.8 83.7,251.1 84.9,250.5 86.0,249.8 87.2,249.1 88.4,248.4 89.6,247.7 90.8,247.0 92.0,246.4 93.2,245.7 94.3,245.0 95.5,244.3 96.7,243.5 97.9,242.8 99.1,242.1 100.3,241.4 101.5,240.7 102.7,240.0 103.8,239.3 105.0,238.5 106.2,237.8 107.4,237.1 108.6,236.3 109.8,235.6 111.0,234.8 112.1,234.1 113.3,233.4 114.5,232.6 115.7,231.9 116.9,231.1 118.1,230.3 119.3,229.6 120.5,228.8 121.6,228.0 122.8,227.3 124.0,226.5 125.2,225.7 126.4,225.0 127.6,224.2 128.8,223.4 129.9,222.6 131.1,221.8 132.3,221.0 133.5,220.2 134.7,219.5 135.9,218.7 137.1,217.9 138.3,217.1 139.4,216.3 140.6,215.4 141.8,214.6 143.0,213.8 144.2,213.0 145.4,212.2 146.6,211.4 147.7,210.6 148.9,209.7 150.1,208.9 151.3,208.1 152.5,207.3 153.7,206.4 154.9,205.6 156.1,204.8 157.2,203.9 158.4,203.1 159.6,202.3 160.8,201.4 162.0,200.6 163.2,199.7 164.4,198.9 165.5,198.1 166.7,197.2 167.9,196.4 169.1,195.5 170.3,194.7 171.5,193.8 172.7,193.0 173.9,192.1 175.0,191.3 176.2,190.4 177.4,189.5 178.6,188.7 179.8,187.8 181.0,187.0 182.2,186.1 183.3,185.3 184.5,184.4 185.7,183.5 186.9,182.7 188.1,181.8 189.3,180.9 190.5,180.1 191.7,179.2 192.8,178.3 194.0,177.5 195.2,176.6 196.4,175.7 197.6,174.8 198.8,174.0 200.0,173.1 201.1,172.2 202.3,171.4 203.5,170.5 204.7,169.6 205.9,168.7 207.1,167.8 208.3,167.0 209.5,166.1 210.6,165.2 211.8,164.3 213.0,163.5 214.2,162.6 215.4,161.7 216.6,160.8 217.8,159.9 218.9,159.0 220.1,158.2 221.3,157.3 222.5,156.4 223.7,155.5 224.9,154.6 226.1,153.7 227.3,152.8 228.4,151.9 229.6,151.0 230.8,150.2 232.0,149.3 233.2,148.4 234.4,147.5 235.6,146.6 236.7,145.7 237.9,144.8 239.1,143.9 240.3,143.0 241.5,142.1 242.7,141.2 243.9,140.3 245.1,139.4 246.2,138.5 247.4,137.6 248.6,136.7 249.8,135.8 251.0,134.9 252.2,134.0 253.4,133.1 254.5,132.2 255.7,131.3 256.9,130.4 258.1,129.5 259.3,128.5 260.5,127.6 261.7,126.7 262.9,125.8 264.0,124.9 265.2,124.0 266.4,123.1 267.6,122.2 268.8,121.3 270.0,120.3 271.2,119.4 272.3,118.5 273.5,117.6 274.7,116.7 275.9,115.8 277.1,114.8 278.3,113.9 279.5,113.0 280.7,112.1 281.8,111.2 283.0,110.2 284.2,109.3 285.4,108.4 286.6,107.5 287.8,106.5 289.0,105.6 290.1,104.7 291.3,103.8 292.5,102.9 293.7,101.9 294.9,101.1 296.1,100.5 297.3,100.1 298.5,99.7 299.6,99.2 300.8,98.5 302.0,97.8 303.2,97.1 304.4,96.5 305.6,95.9 306.8,95.3 307.9,94.8 309.1,94.2 310.3,93.6 311.5,93.0 312.7,92.4 313.9,91.8 315.1,91.3 316.3,90.7 317.4,90.2 318.6,89.6 319.8,89.1 321.0,88.5 322.2,87.9 323.4,87.4 324.6,86.9 325.7,86.3 326.9,85.8 328.1,85.3 329.3,84.7 330.5,84.2 331.7,83.7 332.9,83.2 334.1,82.7 335.2,82.2 336.4,81.7 337.6,81.2 338.8,80.7 340.0,80.2 341.2,79.7 342.4,79.3 343.5,78.8 344.7,78.3 345.9,77.8 347.1,77.4 348.3,76.9 349.5,76.5 350.7,76.0 351.9,75.6 353.0,75.1 354.2,74.7 355.4,74.2 356.6,73.8 357.8,73.4 359.0,73.0 360.2,72.5 361.3,72.1 362.5,71.7 363.7,71.3 364.9,70.9 366.1,70.5 367.3,70.1 368.5,69.7 369.7,69.4 370.8,69.0 372.0,68.6 373.2,68.2 374.4,67.9 375.6,67.5 376.8,67.2 378.0,66.8 379.1,66.5 380.3,66.1 381.5,65.8 382.7,65.5 383.9,65.1 385.1,64.8 386.3,64.5 387.5,64.2 388.6,63.9 389.8,63.6 391.0,63.3 392.2,63.0 393.4,62.7 394.6,62.5 395.8,62.2 396.9,61.9 398.1,61.6 399.3,61.4 400.5,61.1 401.7,60.9 402.9,60.6 404.1,60.4 405.3,60.2 406.4,59.9 407.6,59.7 408.8,59.5 410.0,59.3 411.2,59.1 412.4,58.8 413.6,58.6 414.7,58.4 415.9,58.3 417.1,58.1 418.3,57.9 419.5,57.7 420.7,57.5 421.9,57.4 423.1,57.2 424.2,57.0 425.4,56.9 426.6,56.7 427.8,56.6 429.0,56.4 430.2,56.3 431.4,56.2 432.5,56.0 433.7,55.9 434.9,55.8 436.1,55.7 437.3,55.5 438.5,55.4 439.7,55.3 440.9,55.2 442.0,55.1 443.2,55.0 444.4,55.0 445.6,54.9 446.8,54.8 448.0,54.7 449.2,54.6 450.3,54.6 451.5,54.5 452.7,54.4 453.9,54.4 455.1,54.3 456.3,54.3 457.5,54.2 458.7,54.2 459.8,54.2 461.0,54.1 462.2,54.1 463.4,54.1 464.6,54.1 465.8,54.0 467.0,54.0 468.1,54.0 469.3,54.0 470.5,54.0 471.7,54.0 472.9,54.0 474.1,54.0 475.3,54.0 476.5,54.0 477.6,54.1 478.8,54.1 480.0,54.1 481.2,54.1 482.4,54.2 483.6,54.2 484.8,54.2 485.9,54.3 487.1,54.3 488.3,54.4 489.5,54.4 490.7,54.5 491.9,54.5 493.1,54.6 494.3,54.6 495.4,54.7 496.6,54.8 497.8,54.8 499.0,54.9 500.2,55.0 501.4,55.1 502.6,55.2 503.7,55.2 504.9,55.3 506.1,55.4 507.3,55.5 508.5,55.6 509.7,55.7 510.9,55.8 512.1,55.9 513.2,56.0 514.4,56.1 515.6,56.3 516.8,56.4 518.0,56.5 519.2,56.6 520.4,56.7 521.5,56.9 522.7,57.0 523.9,57.1 525.1,57.3 526.3,57.4 527.5,57.5 528.7,57.7 529.9,57.8 531.0,58.0 532.2,58.1 533.4,58.3 534.6,58.4 535.8,58.6 537.0,58.7 538.2,58.9 539.3,59.1 540.5,59.2 541.7,59.4 542.9,59.6 544.1,59.7 545.3,59.9 546.5,60.1 547.7,60.2 548.8,60.4 550.0,60.6 551.2,60.8 552.4,61.0 553.6,61.2 554.8,61.3 556.0,61.5 557.1,61.7 558.3,61.9 559.5,62.1 560.7,62.3 561.9,62.5 563.1,62.7 564.3,62.9 565.5,63.1 566.6,63.3 567.8,63.5 569.0,63.7 570.2,65.5 571.4,67.3 572.6,69.1 573.8,70.9 574.9,72.6 576.1,74.4 577.3,76.1 578.5,77.8 579.7,79.5 580.9,81.1 582.1,82.8 583.3,84.5 584.4,86.1 585.6,87.7 586.8,89.3 588.0,90.9 589.2,92.5 590.4,94.0 591.6,95.6 592.7,97.1 593.9,98.6 595.1,100.2 596.3,101.7 597.5,103.2 598.7,104.6 599.9,106.1 601.1,107.6 602.2,109.0 603.4,110.4 604.6,111.9 605.8,113.3 607.0,114.7 608.2,116.1 609.4,117.5 610.5,118.8 611.7,120.2 612.9,121.5 614.1,122.9 615.3,124.2 616.5,125.5 617.7,126.8 618.9,128.1 620.0,129.4 621.2,130.7 622.4,132.0 623.6,133.3 624.8,134.5 626.0,135.8 627.2,137.0 628.3,138.2 629.5,139.4 630.7,140.6 631.9,141.8 633.1,143.0 634.3,144.2 635.5,145.4 636.7,146.5 637.8,147.7 639.0,148.8 640.2,150.0 641.4,151.1 642.6,152.2 643.8,153.3 645.0,154.5 646.1,155.6 647.3,156.6 648.5,157.7 649.7,158.8 650.9,159.9 652.1,160.9 653.3,162.0 654.5,163.0 655.6,164.1 656.8,165.1 658.0,166.1 659.2,167.1 660.4,168.1 661.6,169.1 662.8,170.1 663.9,171.1 665.1,172.1 666.3,173.1 667.5,174.0 668.7,175.0 669.9,175.9 671.1,176.9 672.3,177.8 673.4,178.7 674.6,179.7 675.8,180.6 677.0,181.5 678.2,182.4 679.4,183.3 680.6,184.2 681.7,185.1 682.9,186.0 684.1,186.8 685.3,187.7 686.5,188.6 687.7,189.4 688.9,190.3 690.1,191.1 691.2,192.0 692.4,192.8 693.6,193.6 694.8,194.5 696.0,195.3 697.2,196.1 698.4,196.9 699.5,197.7 700.7,198.5 701.9,199.3 703.1,200.1 704.3,200.8 705.5,201.6 706.7,202.4 707.9,203.1 709.0,203.9 710.2,204.7 711.4,205.4 712.6,206.1 713.8,206.9 715.0,207.6 716.2,208.3 717.3,209.1 718.5,209.8 719.7,210.5 720.9,211.2 722.1,211.9 723.3,212.6 724.5,213.3 725.7,214.0 726.8,214.7 728.0,215.4 729.2,216.0 730.4,216.7 731.6,217.4 732.8,218.0 734.0,218.7 735.1,219.4 736.3,220.0 737.5,220.6 738.7,221.3 739.9,221.9 741.1,222.6 742.3,223.2 743.5,223.8 744.6,224.4 745.8,225.1 747.0,225.7 748.2,226.3 749.4,226.9 750.6,227.5 751.8,228.1 752.9,228.7 754.1,229.3 755.3,229.8 756.5,230.4 757.7,231.0 758.9,231.6 760.1,232.1 761.3,232.7 762.4,233.3 763.6,233.8 764.8,234.4 766.0,234.9"/>
<line x1="606" y1="42" x2="628" y2="42" stroke="#0f62fe" stroke-width="2.2"/>
<text x="634" y="46" font-family="Arial" font-size="12">qbar_pa</text>
</svg>