<svg xmlns="http://www.w3.org/2000/svg" width="820" height="320" viewBox="0 0 820 320">
<rect width="100%" height="100%" fill="#ffffff"/>
<text x="54" y="28" font-family="Arial" font-size="18" font-weight="700">GPS Altitude vs Truth</text>
<line x1="54" y1="266" x2="766" y2="266" stroke="#1f2933"/>
<line x1="54" y1="54" x2="54" y2="266" stroke="#1f2933"/>
<text x="54" y="306" font-family="Arial" font-size="12">time (s)</text>
<text x="596" y="306" font-family="Arial" font-size="12">altitude (m)</text>
<text x="58" y="68" font-family="Arial" font-size="11">1.45e+03</text>
<text x="58" y="260" font-family="Arial" font-size="11">20</text>
<polyline fill="none" stroke="#0f62fe" stroke-width="2.2" points="54.0,266.0 55.2,266.0 56.4,265.9 57.6,265.9 58.7,265.9 59.9,265.8 61.1,265.8 62.3,265.8 63.5,265.7 64.7,265.7 65.9,265.7 67.1,265.7 68.2,265.6 69.4,265.6 70.6,265.6 71.8,265.6 73.0,265.5 74.2,265.5 75.4,265.5 76.5,265.5 77.7,265.4 78.9,265.4 80.1,265.4 81.3,265.4 82.5,265.4 83.7,265.3 84.9,265.3 86.0,265.3 87.2,265.3 88.4,265.3 89.6,265.2 90.8,265.2 92.0,265.2 93.2,265.2 94.3,265.2 95.5,265.2 96.7,265.1 97.9,265.1 99.1,265.1 100.3,265.1 101.5,265.1 102.7,265.1 103.8,265.0 105.0,265.0 106.2,265.0 107.4,265.0 108.6,265.0 109.8,265.0 111.0,265.0 112.1,265.0 113.3,264.9 114.5,264.9 115.7,264.9 116.9,264.9 118.1,264.9 119.3,264.9 120.5,264.9 121.6,264.9 122.8,264.8 124.0,264.8 125.2,264.8 126.4,264.8 127.6,264.8 128.8,264.8 129.9,264.8 131.1,264.8 132.3,264.8 133.5,264.8 134.7,264.7 135.9,264.7 137.1,264.7 138.3,264.7 139.4,264.7 140.6,264.7 141.8,264.7 143.0,264.7 144.2,264.7 145.4,264.7 146.6,264.7 147.7,264.6 148.9,264.6 150.1,264.6 151.3,264.6 152.5,264.6 153.7,264.6 154.9,264.6 156.1,264.6 157.2,264.6 158.4,264.6 159.6,264.5 160.8,264.5 162.0,264.5 163.2,264.5 164.4,264.5 165.5,264.5 166.7,264.5 167.9,264.5 169.1,264.5 170.3,264.5 171.5,264.4 172.7,264.4 173.9,264.4 175.0,264.4 176.2,264.4 177.4,264.4 178.6,264.4 179.8,264.4 181.0,264.3 182.2,264.3 183.3,264.3 184.5,264.3 185.7,264.3 186.9,264.3 188.1,264.3 189.3,264.2 190.5,264.2 191.7,264.2 192.8,264.2 194.0,264.2 195.2,264.2 196.4,264.1 197.6,264.1 198.8,264.1 200.0,264.1 201.1,264.1 202.3,264.0 203.5,264.0 204.7,264.0 205.9,264.0 207.1,264.0 208.3,263.9 209.5,263.9 210.6,263.9 211.8,263.9 213.0,263.8 214.2,263.8 215.4,263.8 216.6,263.8 217.8,263.7 218.9,263.7 220.1,263.7 221.3,263.6 222.5,263.6 223.7,263.6 224.9,263.6 226.1,263.5 227.3,263.5 228.4,263.5 229.6,263.4 230.8,263.4 232.0,263.4 233.2,263.3 234.4,263.3 235.6,263.2 236.7,263.2 237.9,263.2 239.1,263.1 240.3,263.1 241.5,263.0 242.7,263.0 243.9,263.0 245.1,262.9 246.2,262.9 247.4,262.8 248.6,262.8 249.8,262.7 251.0,262.7 252.2,262.7 253.4,262.6 254.5,262.6 255.7,262.5 256.9,262.5 258.1,262.4 259.3,262.4 260.5,262.3 261.7,262.3 262.9,262.2 264.0,262.2 265.2,262.1 266.4,262.0 267.6,262.0 268.8,261.9 270.0,261.9 271.2,261.8 272.3,261.8 273.5,261.7 274.7,261.6 275.9,261.6 277.1,261.5 278.3,261.5 279.5,261.4 280.7,261.3 281.8,261.3 283.0,261.2 284.2,261.1 285.4,261.1 286.6,261.0 287.8,260.9 289.0,260.9 290.1,260.8 291.3,260.7 292.5,260.7 293.7,260.6 294.9,260.5 296.1,260.4 297.3,260.4 298.5,260.3 299.6,260.2 300.8,260.1 302.0,260.0 303.2,259.9 304.4,259.8 305.6,259.7 306.8,259.6 307.9,259.5 309.1,259.4 310.3,259.3 311.5,259.2 312.7,259.1 313.9,259.0 315.1,258.9 316.3,258.7 317.4,258.6 318.6,258.5 319.8,258.4 321.0,258.2 322.2,258.1 323.4,258.0 324.6,257.8 325.7,257.7 326.9,257.5 328.1,257.4 329.3,257.2 330.5,257.1 331.7,256.9 332.9,256.7 334.1,256.6 335.2,256.4 336.4,256.2 337.6,256.1 338.8,255.9 340.0,255.7 341.2,255.5 342.4,255.3 343.5,255.2 344.7,255.0 345.9,254.8 347.1,254.6 348.3,254.4 349.5,254.2 350.7,254.0 351.9,253.8 353.0,253.5 354.2,253.3 355.4,253.1 356.6,252.9 357.8,252.7 359.0,252.4 360.2,252.2 361.3,252.0 362.5,251.7 363.7,251.5 364.9,251.3 366.1,251.0 367.3,250.8 368.5,250.5 369.7,250.3 370.8,250.0 372.0,249.7 373.2,249.5 374.4,249.2 375.6,248.9 376.8,248.6 378.0,248.4 379.1,248.1 380.3,247.8 381.5,247.5 382.7,247.2 383.9,246.9 385.1,246.6 386.3,246.3 387.5,246.0 388.6,245.7 389.8,245.4 391.0,245.1 392.2,244.8 393.4,244.5 394.6,244.1 395.8,243.8 396.9,243.5 398.1,243.1 399.3,242.8 400.5,242.5 401.7,242.1 402.9,241.8 404.1,241.4 405.3,241.1 406.4,240.7 407.6,240.4 408.8,240.0 410.0,239.6 411.2,239.3 412.4,238.9 413.6,238.5 414.7,238.1 415.9,237.7 417.1,237.4 418.3,237.0 419.5,236.6 420.7,236.2 421.9,235.8 423.1,235.4 424.2,235.0 425.4,234.6 426.6,234.2 427.8,233.7 429.0,233.3 430.2,232.9 431.4,232.5 432.5,232.1 433.7,231.6 434.9,231.2 436.1,230.8 437.3,230.3 438.5,229.9 439.7,229.4 440.9,229.0 442.0,228.5 443.2,228.1 444.4,227.6 445.6,227.1 446.8,226.7 448.0,226.2 449.2,225.7 450.3,225.2 451.5,224.8 452.7,224.3 453.9,223.8 455.1,223.3 456.3,222.8 457.5,222.3 458.7,221.8 459.8,221.3 461.0,220.8 462.2,220.3 463.4,219.8 464.6,219.3 465.8,218.8 467.0,218.2 468.1,217.7 469.3,217.2 470.5,216.7 471.7,216.1 472.9,215.6 474.1,215.1 475.3,214.5 476.5,214.0 477.6,213.4 478.8,212.9 480.0,212.3 481.2,211.8 482.4,211.2 483.6,210.6 484.8,210.1 485.9,209.5 487.1,208.9 488.3,208.4 489.5,207.8 490.7,207.2 491.9,206.6 493.1,206.0 494.3,205.4 495.4,204.8 496.6,204.2 497.8,203.6 499.0,203.0 500.2,202.4 501.4,201.8 502.6,201.2 503.7,200.6 504.9,200.0 506.1,199.4 507.3,198.7 508.5,198.1 509.7,197.5 510.9,196.9 512.1,196.2 513.2,195.6 514.4,195.0 515.6,194.3 516.8,193.7 518.0,193.0 519.2,192.4 520.4,191.7 521.5,191.1 522.7,190.4 523.9,189.7 525.1,189.1 526.3,188.4 527.5,187.7 528.7,187.1 529.9,186.4 531.0,185.7 532.2,185.0 533.4,184.4 534.6,183.7 535.8,183.0 537.0,182.3 538.2,181.6 539.3,180.9 540.5,180.2 541.7,179.5 542.9,178.8 544.1,178.1 545.3,177.4 546.5,176.7 547.7,176.0 548.8,175.3 550.0,174.6 551.2,173.8 552.4,173.1 553.6,172.4 554.8,171.7 556.0,170.9 557.1,170.2 558.3,169.5 559.5,168.7 560.7,168.0 561.9,167.3 563.1,166.5 564.3,165.8 565.5,165.0 566.6,164.3 567.8,163.5 569.0,162.8 570.2,162.0 571.4,161.3 572.6,160.5 573.8,159.7 574.9,159.0 576.1,158.2 577.3,157.5 578.5,156.7 579.7,156.0 580.9,155.2 582.1,154.5 583.3,153.8 584.4,153.0 585.6,152.3 586.8,151.5 588.0,150.8 589.2,150.0 590.4,149.3 591.6,148.5 592.7,147.8 593.9,147.1 595.1,146.3 596.3,145.6 597.5,144.8 598.7,144.1 599.9,143.4 601.1,142.6 602.2,141.9 603.4,141.2 604.6,140.4 605.8,139.7 607.0,139.0 608.2,138.3 609.4,137.5 610.5,136.8 611.7,136.1 612.9,135.4 614.1,134.6 615.3,133.9 616.5,133.2 617.7,132.5 618.9,131.7 620.0,131.0 621.2,130.3 622.4,129.6 623.6,128.9 624.8,128.2 626.0,127.5 627.2,126.8 628.3,126.0 629.5,125.3 630.7,124.6 631.9,123.9 633.1,123.2 634.3,122.5 635.5,121.8 636.7,121.1 637.8,120.4 639.0,119.7 640.2,119.0 641.4,118.3 642.6,117.6 643.8,116.9 645.0,116.3 646.1,115.6 647.3,114.9 648.5,114.2 649.7,113.5 650.9,112.8 652.1,112.1 653.3,111.5 654.5,110.8 655.6,110.1 656.8,109.4 658.0,108.8 659.2,108.1 660.4,107.4 661.6,106.7 662.8,106.1 663.9,105.4 665.1,104.7 666.3,104.1 667.5,103.4 668.7,102.7 669.9,102.1 671.1,101.4 672.3,100.8 673.4,100.1 674.6,99.5 675.8,98.8 677.0,98.2 678.2,97.5 679.4,96.9 680.6,96.2 681.7,95.6 682.9,94.9 684.1,94.3 685.3,93.6 686.5,93.0 687.7,92.4 688.9,91.7 690.1,91.1 691.2,90.5 692.4,89.8 693.6,89.2 694.8,88.6 696.0,88.0 697.2,87.3 698.4,86.7 699.5,86.1 700.7,85.5 701.9,84.9 703.1,84.2 704.3,83.6 705.5,83.0 706.7,82.4 707.9,81.8 709.0,81.2 710.2,80.6 711.4,80.0 712.6,79.4 713.8,78.8 715.0,78.2 716.2,77.6 717.3,77.0 718.5,76.4 719.7,75.8 720.9,75.2 722.1,74.6 723.3,74.0 724.5,73.4 725.7,72.9 726.8,72.3 728.0,71.7 729.2,71.1 730.4,70.5 731.6,70.0 732.8,69.4 734.0,68.8 735.1,68.2 736.3,67.7 737.5,67.1 738.7,66.5 739.9,66.0 741.1,65.4 742.3,64.9 743.5,64.3 744.6,63.7 745.8,63.2 747.0,62.6 748.2,62.1 749.4,61.5 750.6,61.0 751.8,60.4 752.9,59.9 754.1,59.3 755.3,58.8 756.5,58.3 757.7,57.7 758.9,57.2 760.1,56.7 761.3,56.1 762.4,55.6 763.6,55.1 764.8,54.5 766.0,54.0"/>
<line x1="606" y1="42" x2="628" y2="42" stroke="#0f62fe" stroke-width="2.2"/>
<text x="634" y="46" font-family="Arial" font-size="12">altitude_m</text>
<polyline fill="none" stroke="#24a148" stroke-width="2.2" points="54.0,265.8 55.2,265.8 56.4,265.8 57.6,265.8 58.7,265.8 59.9,265.8 61.1,265.8 62.3,265.6 63.5,265.6 64.7,265.6 65.9,265.6 67.1,265.6 68.2,265.6 69.4,265.6 70.6,265.5 71.8,265.5 73.0,265.5 74.2,265.5 75.4,265.5 76.5,265.5 77.7,265.5 78.9,265.4 80.1,265.4 81.3,265.4 82.5,265.4 83.7,265.4 84.9,265.4 86.0,265.4 87.2,265.3 88.4,265.3 89.6,265.3 90.8,265.3 92.0,265.3 93.2,265.3 94.3,265.3 95.5,265.2 96.7,265.2 97.9,265.2 99.1,265.2 100.3,265.2 101.5,265.2 102.7,265.2 103.8,264.8 105.0,264.8 106.2,264.8 107.4,264.8 108.6,264.8 109.8,264.8 111.0,264.8 112.1,265.0 113.3,265.0 114.5,265.0 115.7,265.0 116.9,265.0 118.1,265.0 119.3,265.0 120.5,265.1 121.6,265.1 122.8,265.1 124.0,265.1 125.2,265.1 126.4,265.1 127.6,265.1 128.8,264.8 129.9,264.8 131.1,264.8 132.3,264.8 133.5,264.8 134.7,264.8 135.9,264.8 137.1,264.8 138.3,264.8 139.4,264.8 140.6,264.8 141.8,264.8 143.0,264.8 144.2,264.8 145.4,264.6 146.6,264.6 147.7,264.6 148.9,264.6 150.1,264.6 151.3,264.6 152.5,264.6 153.7,264.6 154.9,264.6 156.1,264.6 157.2,264.6 158.4,264.6 159.6,264.6 160.8,264.6 162.0,264.2 163.2,264.2 164.4,264.2 165.5,264.2 166.7,264.2 167.9,264.2 169.1,264.2 170.3,264.4 171.5,264.4 172.7,264.4 173.9,264.4 175.0,264.4 176.2,264.4 177.4,264.4 178.6,264.2 179.8,264.2 181.0,264.2 182.2,264.2 183.3,264.2 184.5,264.2 185.7,264.2 186.9,264.4 188.1,264.4 189.3,264.4 190.5,264.4 191.7,264.4 192.8,264.4 194.0,264.4 195.2,264.2 196.4,264.2 197.6,264.2 198.8,264.2 200.0,264.2 201.1,264.2 202.3,264.2 203.5,263.9 204.7,263.9 205.9,263.9 207.1,263.9 208.3,263.9 209.5,263.9 210.6,263.9 211.8,263.7 213.0,263.7 214.2,263.7 215.4,263.7 216.6,263.7 217.8,263.7 218.9,263.7 220.1,263.9 221.3,263.9 222.5,263.9 223.7,263.9 224.9,263.9 226.1,263.9 227.3,263.9 228.4,263.3 229.6,263.3 230.8,263.3 232.0,263.3 233.2,263.3 234.4,263.3 235.6,263.3 236.7,263.3 237.9,263.3 239.1,263.3 240.3,263.3 241.5,263.3 242.7,263.3 243.9,263.3 245.1,263.0 246.2,263.0 247.4,263.0 248.6,263.0 249.8,263.0 251.0,263.0 252.2,263.0 253.4,262.8 254.5,262.8 255.7,262.8 256.9,262.8 258.1,262.8 259.3,262.8 260.5,262.8 261.7,262.6 262.9,262.6 264.0,262.6 265.2,262.6 266.4,262.6 267.6,262.6 268.8,262.6 270.0,261.7 271.2,261.7 272.3,261.7 273.5,261.7 274.7,261.7 275.9,261.7 277.1,261.7 278.3,261.5 279.5,261.5 280.7,261.5 281.8,261.5 283.0,261.5 284.2,261.5 285.4,261.5 286.6,261.0 287.8,261.0 289.0,261.0 290.1,261.0 291.3,261.0 292.5,261.0 293.7,261.0 294.9,260.6 296.1,260.6 297.3,260.6 298.5,260.6 299.6,260.6 300.8,260.6 302.0,260.6 303.2,260.0 304.4,260.0 305.6,260.0 306.8,260.0 307.9,260.0 309.1,260.0 310.3,260.0 311.5,259.3 312.7,259.3 313.9,259.3 315.1,259.3 316.3,259.3 317.4,259.3 318.6,259.3 319.8,258.3 321.0,258.3 322.2,258.3 323.4,258.3 324.6,258.3 325.7,258.3 326.9,258.3 328.1,257.1 329.3,257.1 330.5,257.1 331.7,257.1 332.9,257.1 334.1,257.1 335.2,257.1 336.4,256.3 337.6,256.3 338.8,256.3 340.0,256.3 341.2,256.3 342.4,256.3 343.5,256.3 344.7,254.8 345.9,254.8 347.1,254.8 348.3,254.8 349.5,254.8 350.7,254.8 351.9,254.8 353.0,253.6 354.2,253.6 355.4,253.6 356.6,253.6 357.8,253.6 359.0,253.6 360.2,253.6 361.3,252.0 362.5,252.0 363.7,252.0 364.9,252.0 366.1,252.0 367.3,252.0 368.5,252.0 369.7,250.4 370.8,250.4 372.0,250.4 373.2,250.4 374.4,250.4 375.6,250.4 376.8,250.4 378.0,248.4 379.1,248.4 380.3,248.4 381.5,248.4 382.7,248.4 383.9,248.4 385.1,248.4 386.3,246.5 387.5,246.5 388.6,246.5 389.8,246.5 391.0,246.5 392.2,246.5 393.4,246.5 394.6,244.2 395.8,244.2 396.9,244.2 398.1,244.2 399.3,244.2 400.5,244.2 401.7,244.2 402.9,242.1 404.1,242.1 405.3,242.1 406.4,242.1 407.6,242.1 408.8,242.1 410.0,242.1 411.2,239.1 412.4,239.1 413.6,239.1 414.7,239.1 415.9,239.1 417.1,239.1 418.3,239.1 419.5,236.6 420.7,236.6 421.9,236.6 423.1,236.6 424.2,236.6 425.4,236.6 426.6,236.6 427.8,234.0 429.0,234.0 430.2,234.0 431.4,234.0 432.5,234.0 433.7,234.0 434.9,234.0 436.1,230.8 437.3,230.8 438.5,230.8 439.7,230.8 440.9,230.8 442.0,230.8 443.2,230.8 444.4,227.6 445.6,227.6 446.8,227.6 448.0,227.6 449.2,227.6 450.3,227.6 451.5,227.6 452.7,224.4 453.9,224.4 455.1,224.4 456.3,224.4 457.5,224.4 458.7,224.4 459.8,224.4 461.0,221.0 462.2,221.0 463.4,221.0 464.6,221.0 465.8,221.0 467.0,221.0 468.1,221.0 469.3,217.2 470.5,217.2 471.7,217.2 472.9,217.2 474.1,217.2 475.3,217.2 476.5,217.2 477.6,213.6 478.8,213.6 480.0,213.6 481.2,213.6 482.4,213.6 483.6,213.6 484.8,213.6 485.9,209.8 487.1,209.8 488.3,209.8 489.5,209.8 490.7,209.8 491.9,209.8 493.1,209.8 494.3,205.5 495.4,205.5 496.6,205.5 497.8,205.5 499.0,205.5 500.2,205.5 501.4,205.5 502.6,201.3 503.7,201.3 504.9,201.3 506.1,201.3 507.3,201.3 508.5,201.3 509.7,201.3 510.9,197.0 512.1,197.0 513.2,197.0 514.4,197.0 515.6,197.0 516.8,197.0 518.0,197.0 519.2,192.4 520.4,192.4 521.5,192.4 522.7,192.4 523.9,192.4 525.1,192.4 526.3,192.4 527.5,188.2 528.7,188.2 529.9,188.2 531.0,188.2 532.2,188.2 533.4,188.2 534.6,188.2 535.8,182.7 537.0,182.7 538.2,182.7 539.3,182.7 540.5,182.7 541.7,182.7 542.9,182.7 544.1,178.2 545.3,178.2 546.5,178.2 547.7,178.2 548.8,178.2 550.0,178.2 551.2,178.2 552.4,173.0 553.6,173.0 554.8,173.0 556.0,173.0 557.1,173.0 558.3,173.0 559.5,173.0 560.7,168.0 561.9,168.0 563.1,168.0 564.3,168.0 565.5,168.0 566.6,168.0 567.8,168.0 569.0,162.9 570.2,162.9 571.4,162.9 572.6,162.9 573.8,162.9 574.9,162.9 576.1,162.9 577.3,157.4 578.5,157.4 579.7,157.4 580.9,157.4 582.1,157.4 583.3,157.4 584.4,157.4 585.6,152.1 586.8,152.1 588.0,152.1 589.2,152.1 590.4,152.1 591.6,152.1 592.7,152.1 593.9,146.8 595.1,146.8 596.3,146.8 597.5,146.8 598.7,146.8 599.9,146.8 601.1,146.8 602.2,141.8 603.4,141.8 604.6,141.8 605.8,141.8 607.0,141.8 608.2,141.8 609.4,141.8 610.5,136.7 611.7,136.7 612.9,136.7 614.1,136.7 615.3,136.7 616.5,136.7 617.7,136.7 618.9,131.6 620.0,131.6 621.2,131.6 622.4,131.6 623.6,131.6 624.8,131.6 626.0,131.6 627.2,126.6 628.3,126.6 629.5,126.6 630.7,126.6 631.9,126.6 633.1,126.6 634.3,126.6 635.5,121.7 636.7,121.7 637.8,121.7 639.0,121.7 640.2,121.7 641.4,121.7 642.6,121.7 643.8,116.8 645.0,116.8 646.1,116.8 647.3,116.8 648.5,116.8 649.7,116.8 650.9,116.8 652.1,112.3 653.3,112.3 654.5,112.3 655.6,112.3 656.8,112.3 658.0,112.3 659.2,112.3 660.4,107.4 661.6,107.4 662.8,107.4 663.9,107.4 665.1,107.4 666.3,107.4 667.5,107.4 668.7,102.7 669.9,102.7 671.1,102.7 672.3,102.7 673.4,102.7 674.6,102.7 675.8,102.7 677.0,98.4 678.2,98.4 679.4,98.4 680.6,98.4 681.7,98.4 682.9,98.4 684.1,98.4 685.3,93.5 686.5,93.5 687.7,93.5 688.9,93.5 690.1,93.5 691.2,93.5 692.4,93.5 693.6,89.1 694.8,89.1 696.0,89.1 697.2,89.1 698.4,89.1 699.5,89.1 700.7,89.1 701.9,85.2 703.1,85.2 704.3,85.2 705.5,85.2 706.7,85.2 707.9,85.2 709.0,85.2 710.2,80.5 711.4,80.5 712.6,80.5 713.8,80.5 715.0,80.5 716.2,80.5 717.3,80.5 718.5,76.8 719.7,76.8 720.9,76.8 722.1,76.8 723.3,76.8 724.5,76.8 725.7,76.8 726.8,72.2 728.0,72.2 729.2,72.2 730.4,72.2 731.6,72.2 732.8,72.2 734.0,72.2 735.1,68.1 736.3,68.1 737.5,68.1 738.7,68.1 739.9,68.1 741.1,68.1 742.3,68.1 743.5,64.6 744.6,64.6 745.8,64.6 747.0,64.6 748.2,64.6 749.4,64.6 750.6,64.6 751.8,60.4 752.9,60.4 754.1,60.4 755.3,60.4 756.5,60.4 757.7,60.4 758.9,60.4 760.1,56.7 761.3,56.7 762.4,56.7 763.6,56.7 764.8,56.7 766.0,56.7"/>
<line x1="606" y1="60" x2="628" y2="60" stroke="#24a148" stroke-width="2.2"/>
<text x="634" y="64" font-family="Arial" font-size="12">gps_z_m</text>
</svg>