<svg xmlns="http://www.w3.org/2000/svg" width="820" height="320" viewBox="0 0 820 320">
<rect width="100%" height="100%" fill="#ffffff"/>
<text x="54" y="28" font-family="Arial" font-size="18" font-weight="700">Velocity Y</text>
<line x1="54" y1="266" x2="766" y2="266" stroke="#1f2933"/>
<line x1="54" y1="54" x2="54" y2="266" stroke="#1f2933"/>
<text x="54" y="306" font-family="Arial" font-size="12">time (s)</text>
<text x="596" y="306" font-family="Arial" font-size="12">vy (m/s)</text>
<text x="58" y="68" font-family="Arial" font-size="11">154</text>
<text x="58" y="260" font-family="Arial" font-size="11">-0.00175</text>
<polyline fill="none" stroke="#0f62fe" stroke-width="2.2" points="54.0,266.0 55.2,266.0 56.4,266.0 57.6,266.0 58.7,266.0 59.9,266.0 61.1,266.0 62.3,266.0 63.5,266.0 64.7,266.0 65.9,266.0 67.1,266.0 68.2,266.0 69.4,266.0 70.6,266.0 71.8,266.0 73.0,266.0 74.2,266.0 75.4,266.0 76.5,266.0 77.7,266.0 78.9,266.0 80.1,266.0 81.3,266.0 82.5,266.0 83.7,266.0 84.9,266.0 86.0,266.0 87.2,266.0 88.4,266.0 89.6,266.0 90.8,266.0 92.0,266.0 93.2,266.0 94.3,266.0 95.5,266.0 96.7,266.0 97.9,266.0 99.1,266.0 100.3,266.0 101.5,266.0 102.7,266.0 103.8,265.9 105.0,265.9 106.2,265.9 107.4,265.9 108.6,265.9 109.8,265.9 111.0,265.9 112.1,265.9 113.3,265.9 114.5,265.9 115.7,265.9 116.9,265.9 118.1,265.9 119.3,265.9 120.5,265.9 121.6,265.9 122.8,265.9 124.0,265.9 125.2,265.9 126.4,265.9 127.6,265.9 128.8,265.9 129.9,265.8 131.1,265.8 132.3,265.8 133.5,265.8 134.7,265.8 135.9,265.8 137.1,265.8 138.3,265.8 139.4,265.8 140.6,265.8 141.8,265.8 143.0,265.8 144.2,265.8 145.4,265.8 146.6,265.7 147.7,265.7 148.9,265.7 150.1,265.7 151.3,265.7 152.5,265.7 153.7,265.7 154.9,265.7 156.1,265.7 157.2,265.7 158.4,265.6 159.6,265.6 160.8,265.6 162.0,265.6 163.2,265.6 164.4,265.6 165.5,265.6 166.7,265.5 167.9,265.5 169.1,265.5 170.3,265.5 171.5,265.5 172.7,265.5 173.9,265.5 175.0,265.4 176.2,265.4 177.4,265.4 178.6,265.4 179.8,265.4 181.0,265.3 182.2,265.3 183.3,265.3 184.5,265.3 185.7,265.2 186.9,265.2 188.1,265.2 189.3,265.2 190.5,265.1 191.7,265.1 192.8,265.1 194.0,265.0 195.2,265.0 196.4,265.0 197.6,264.9 198.8,264.9 200.0,264.9 201.1,264.8 202.3,264.8 203.5,264.7 204.7,264.7 205.9,264.6 207.1,264.6 208.3,264.5 209.5,264.5 210.6,264.4 211.8,264.4 213.0,264.3 214.2,264.2 215.4,264.2 216.6,264.1 217.8,264.0 218.9,263.9 220.1,263.8 221.3,263.8 222.5,263.7 223.7,263.6 224.9,263.5 226.1,263.4 227.3,263.3 228.4,263.1 229.6,263.0 230.8,262.9 232.0,262.8 233.2,262.6 234.4,262.5 235.6,262.3 236.7,262.1 237.9,262.0 239.1,261.8 240.3,261.6 241.5,261.4 242.7,261.1 243.9,260.9 245.1,260.7 246.2,260.4 247.4,260.2 248.6,259.9 249.8,259.6 251.0,259.3 252.2,259.0 253.4,258.6 254.5,258.3 255.7,257.9 256.9,257.5 258.1,257.1 259.3,256.7 260.5,256.3 261.7,255.8 262.9,255.3 264.0,254.8 265.2,254.2 266.4,253.6 267.6,253.0 268.8,252.4 270.0,251.7 271.2,251.0 272.3,250.4 273.5,249.6 274.7,248.9 275.9,248.1 277.1,247.3 278.3,246.5 279.5,245.6 280.7,244.7 281.8,243.9 283.0,242.9 284.2,242.0 285.4,241.0 286.6,240.0 287.8,238.9 289.0,237.9 290.1,236.8 291.3,235.7 292.5,234.6 293.7,233.6 294.9,232.4 296.1,231.4 297.3,230.3 298.5,229.4 299.6,228.3 300.8,227.3 302.0,226.3 303.2,225.3 304.4,224.2 305.6,223.1 306.8,222.0 307.9,220.9 309.1,219.7 310.3,218.6 311.5,217.4 312.7,216.2 313.9,215.0 315.1,213.9 316.3,212.7 317.4,211.6 318.6,210.4 319.8,209.2 321.0,208.0 322.2,206.9 323.4,205.7 324.6,204.5 325.7,203.3 326.9,202.1 328.1,200.8 329.3,199.6 330.5,198.3 331.7,197.1 332.9,195.8 334.1,194.5 335.2,193.2 336.4,191.9 337.6,190.6 338.8,189.3 340.0,188.0 341.2,186.7 342.4,185.4 343.5,184.1 344.7,182.8 345.9,181.6 347.1,180.2 348.3,179.0 349.5,177.7 350.7,176.4 351.9,175.1 353.0,173.8 354.2,172.4 355.4,171.0 356.6,169.5 357.8,168.1 359.0,166.6 360.2,165.2 361.3,163.7 362.5,162.3 363.7,160.9 364.9,159.5 366.1,158.1 367.3,156.7 368.5,155.2 369.7,153.8 370.8,152.3 372.0,150.9 373.2,149.3 374.4,147.9 375.6,146.4 376.8,145.0 378.0,143.4 379.1,142.0 380.3,140.4 381.5,139.0 382.7,137.4 383.9,136.0 385.1,134.4 386.3,132.9 387.5,131.4 388.6,129.9 389.8,128.4 391.0,126.9 392.2,125.3 393.4,123.9 394.6,122.3 395.8,120.9 396.9,119.3 398.1,117.8 399.3,116.3 400.5,114.8 401.7,113.3 402.9,111.9 404.1,110.4 405.3,108.9 406.4,107.4 407.6,106.0 408.8,104.5 410.0,103.1 411.2,101.7 412.4,100.2 413.6,98.8 414.7,97.4 415.9,96.0 417.1,94.6 418.3,93.3 419.5,91.9 420.7,90.6 421.9,89.3 423.1,87.9 424.2,86.7 425.4,85.4 426.6,84.2 427.8,82.9 429.0,81.7 430.2,80.5 431.4,79.3 432.5,78.2 433.7,77.0 434.9,75.9 436.1,74.8 437.3,73.7 438.5,72.6 439.7,71.5 440.9,70.5 442.0,69.5 443.2,68.6 444.4,67.6 445.6,66.7 446.8,65.9 448.0,65.0 449.2,64.2 450.3,63.5 451.5,62.7 452.7,62.0 453.9,61.3 455.1,60.6 456.3,60.0 457.5,59.3 458.7,58.7 459.8,58.1 461.0,57.6 462.2,57.1 463.4,56.6 464.6,56.2 465.8,55.8 467.0,55.5 468.1,55.2 469.3,55.0 470.5,54.7 471.7,54.5 472.9,54.4 474.1,54.3 475.3,54.1 476.5,54.1 477.6,54.0 478.8,54.0 480.0,54.0 481.2,54.0 482.4,54.1 483.6,54.2 484.8,54.3 485.9,54.5 487.1,54.7 488.3,54.9 489.5,55.2 490.7,55.5 491.9,55.8 493.1,56.2 494.3,56.6 495.4,57.1 496.6,57.5 497.8,58.1 499.0,58.6 500.2,59.2 501.4,59.8 502.6,60.4 503.7,61.1 504.9,61.8 506.1,62.6 507.3,63.3 508.5,64.1 509.7,65.0 510.9,65.8 512.1,66.7 513.2,67.6 514.4,68.6 515.6,69.5 516.8,70.5 518.0,71.5 519.2,72.6 520.4,73.6 521.5,74.7 522.7,75.8 523.9,76.9 525.1,78.1 526.3,79.3 527.5,80.4 528.7,81.7 529.9,82.9 531.0,84.1 532.2,85.4 533.4,86.6 534.6,87.9 535.8,89.2 537.0,90.6 538.2,91.9 539.3,93.2 540.5,94.6 541.7,96.0 542.9,97.4 544.1,98.8 545.3,100.1 546.5,101.5 547.7,102.8 548.8,104.0 550.0,105.3 551.2,106.5 552.4,107.7 553.6,108.8 554.8,109.9 556.0,111.0 557.1,112.1 558.3,113.1 559.5,114.1 560.7,115.1 561.9,116.0 563.1,116.9 564.3,117.8 565.5,118.6 566.6,119.4 567.8,120.2 569.0,121.0 570.2,121.8 571.4,122.7 572.6,123.6 573.8,124.4 574.9,125.3 576.1,126.1 577.3,126.9 578.5,127.7 579.7,128.5 580.9,129.3 582.1,130.1 583.3,130.9 584.4,131.7 585.6,132.5 586.8,133.3 588.0,134.0 589.2,134.8 590.4,135.6 591.6,136.3 592.7,137.1 593.9,137.9 595.1,138.6 596.3,139.3 597.5,140.1 598.7,140.8 599.9,141.6 601.1,142.3 602.2,143.0 603.4,143.6 604.6,144.2 605.8,144.8 607.0,145.3 608.2,145.8 609.4,146.3 610.5,146.7 611.7,146.9 612.9,147.0 614.1,147.3 615.3,147.7 616.5,148.1 617.7,148.5 618.9,149.0 620.0,149.4 621.2,149.8 622.4,150.2 623.6,150.6 624.8,151.0 626.0,151.3 627.2,151.6 628.3,151.9 629.5,152.1 630.7,152.2 631.9,152.3 633.1,152.5 634.3,152.8 635.5,153.2 636.7,153.7 637.8,154.2 639.0,154.7 640.2,155.2 641.4,155.7 642.6,156.1 643.8,156.6 645.0,157.0 646.1,157.4 647.3,157.8 648.5,158.0 649.7,158.2 650.9,158.3 652.1,158.4 653.3,158.4 654.5,158.4 655.6,158.5 656.8,158.5 658.0,158.5 659.2,158.6 660.4,158.6 661.6,158.6 662.8,158.7 663.9,158.9 665.1,159.1 666.3,159.4 667.5,159.8 668.7,160.2 669.9,160.6 671.1,161.0 672.3,161.5 673.4,161.9 674.6,162.3 675.8,162.7 677.0,163.1 678.2,163.6 679.4,164.0 680.6,164.4 681.7,164.8 682.9,165.2 684.1,165.7 685.3,166.1 686.5,166.5 687.7,167.0 688.9,167.4 690.1,167.8 691.2,168.3 692.4,168.7 693.6,169.1 694.8,169.6 696.0,170.0 697.2,170.5 698.4,170.9 699.5,171.4 700.7,171.8 701.9,172.3 703.1,172.7 704.3,173.2 705.5,173.6 706.7,174.1 707.9,174.5 709.0,174.9 710.2,175.4 711.4,175.8 712.6,176.2 713.8,176.7 715.0,177.1 716.2,177.5 717.3,177.9 718.5,178.4 719.7,178.8 720.9,179.2 722.1,179.6 723.3,180.0 724.5,180.4 725.7,180.8 726.8,181.2 728.0,181.5 729.2,181.9 730.4,182.3 731.6,182.6 732.8,183.0 734.0,183.3 735.1,183.6 736.3,184.0 737.5,184.3 738.7,184.6 739.9,185.0 741.1,185.3 742.3,185.6 743.5,185.9 744.6,186.3 745.8,186.6 747.0,186.9 748.2,187.2 749.4,187.6 750.6,187.9 751.8,188.2 752.9,188.5 754.1,188.9 755.3,189.2 756.5,189.5 757.7,189.8 758.9,190.1 760.1,190.5 761.3,190.8 762.4,191.1 763.6,191.4 764.8,191.7 766.0,192.0"/>
<line x1="606" y1="42" x2="628" y2="42" stroke="#0f62fe" stroke-width="2.2"/>
<text x="634" y="46" font-family="Arial" font-size="12">vy_mps</text>
</svg>