<svg xmlns="http://www.w3.org/2000/svg" width="820" height="320" viewBox="0 0 820 320">
<rect width="100%" height="100%" fill="#ffffff"/>
<text x="54" y="28" font-family="Arial" font-size="18" font-weight="700">Dynamic Pressure</text>
<line x1="54" y1="266" x2="766" y2="266" stroke="#1f2933"/>
<line x1="54" y1="54" x2="54" y2="266" stroke="#1f2933"/>
<text x="54" y="306" font-family="Arial" font-size="12">time (s)</text>
<text x="596" y="306" font-family="Arial" font-size="12">qbar (Pa)</text>
<text x="58" y="68" font-family="Arial" font-size="11">2.3e+04</text>
<text x="58" y="260" font-family="Arial" font-size="11">3.11e+03</text>
<polyline fill="none" stroke="#0f62fe" stroke-width="2.2" points="54.0,251.7 55.2,251.2 56.4,250.6 57.6,250.1 58.7,249.5 59.9,248.9 61.1,248.3 62.3,247.7 63.5,247.0 64.7,246.4 65.9,245.7 67.1,245.1 68.2,244.4 69.4,243.7 70.6,242.9 71.8,242.2 73.0,241.5 74.2,240.7 75.4,240.0 76.5,239.3 77.7,238.5 78.9,237.8 80.1,237.0 81.3,236.3 82.5,235.5 83.7,234.7 84.9,234.0 86.0,233.2 87.2,232.4 88.4,231.6 89.6,230.9 90.8,230.1 92.0,229.3 93.2,228.5 94.3,227.7 95.5,226.9 96.7,226.1 97.9,225.3 99.1,224.5 100.3,223.7 101.5,222.8 102.7,222.0 103.8,221.2 105.0,220.4 106.2,219.5 107.4,218.7 108.6,217.9 109.8,217.0 111.0,216.2 112.1,215.3 113.3,214.5 114.5,213.6 115.7,212.8 116.9,211.9 118.1,211.0 119.3,210.2 120.5,209.3 121.6,208.4 122.8,207.6 124.0,206.7 125.2,205.8 126.4,204.9 127.6,204.0 128.8,203.1 129.9,202.2 131.1,201.3 132.3,200.4 133.5,199.5 134.7,198.6 135.9,197.7 137.1,196.8 138.3,195.9 139.4,195.0 140.6,194.1 141.8,193.2 143.0,192.2 144.2,191.3 145.4,190.4 146.6,189.5 147.7,188.5 148.9,187.6 150.1,186.6 151.3,185.7 152.5,184.8 153.7,183.8 154.9,182.9 156.1,181.9 157.2,181.0 158.4,180.0 159.6,179.1 160.8,178.1 162.0,177.1 163.2,176.2 164.4,175.2 165.5,174.3 166.7,173.3 167.9,172.3 169.1,171.4 170.3,170.4 171.5,169.4 172.7,168.4 173.9,167.5 175.0,166.5 176.2,165.5 177.4,164.5 178.6,163.6 179.8,162.6 181.0,161.6 182.2,160.6 183.3,159.6 184.5,158.6 185.7,157.7 186.9,156.7 188.1,155.7 189.3,154.7 190.5,153.7 191.7,152.7 192.8,151.7 194.0,150.7 195.2,149.7 196.4,148.7 197.6,147.7 198.8,146.8 200.0,145.8 201.1,144.8 202.3,143.8 203.5,142.8 204.7,141.8 205.9,140.8 207.1,139.8 208.3,138.7 209.5,137.7 210.6,136.7 211.8,135.7 213.0,134.7 214.2,133.7 215.4,132.7 216.6,131.7 217.8,130.7 218.9,129.7 220.1,128.6 221.3,127.6 222.5,126.6 223.7,125.6 224.9,124.6 226.1,123.6 227.3,122.6 228.4,121.6 229.6,120.5 230.8,119.6 232.0,118.5 233.2,117.6 234.4,116.5 235.6,115.5 236.7,114.5 237.9,113.5 239.1,112.5 240.3,111.5 241.5,110.5 242.7,109.5 243.9,108.5 245.1,107.5 246.2,106.5 247.4,105.5 248.6,104.5 249.8,103.6 251.0,102.6 252.2,101.6 253.4,100.6 254.5,99.6 255.7,98.6 256.9,97.7 258.1,96.7 259.3,95.8 260.5,94.8 261.7,93.9 262.9,92.9 264.0,92.0 265.2,91.1 266.4,90.3 267.6,89.4 268.8,88.6 270.0,87.8 271.2,87.0 272.3,86.2 273.5,85.5 274.7,84.7 275.9,84.0 277.1,83.3 278.3,82.7 279.5,82.0 280.7,81.3 281.8,80.7 283.0,80.2 284.2,79.7 285.4,79.2 286.6,78.7 287.8,78.3 289.0,77.9 290.1,77.5 291.3,77.0 292.5,76.7 293.7,76.3 294.9,75.9 296.1,75.4 297.3,75.0 298.5,74.5 299.6,74.0 300.8,73.4 302.0,72.9 303.2,72.4 304.4,71.9 305.6,71.4 306.8,71.0 307.9,70.6 309.1,70.3 310.3,69.8 311.5,69.5 312.7,69.1 313.9,68.7 315.1,68.3 316.3,67.9 317.4,67.4 318.6,67.1 319.8,66.6 321.0,66.2 322.2,65.8 323.4,65.4 324.6,65.0 325.7,64.7 326.9,64.3 328.1,63.9 329.3,63.6 330.5,63.3 331.7,62.9 332.9,62.7 334.1,62.3 335.2,62.0 336.4,61.7 337.6,61.4 338.8,61.1 340.0,60.8 341.2,60.5 342.4,60.2 343.5,59.8 344.7,59.5 345.9,59.1 347.1,58.8 348.3,58.4 349.5,58.1 350.7,57.7 351.9,57.4 353.0,57.0 354.2,56.9 355.4,56.6 356.6,56.5 357.8,56.3 359.0,56.3 360.2,56.1 361.3,56.0 362.5,55.8 363.7,55.7 364.9,55.4 366.1,55.3 367.3,55.0 368.5,54.9 369.7,54.7 370.8,54.7 372.0,54.5 373.2,54.5 374.4,54.3 375.6,54.3 376.8,54.1 378.0,54.1 379.1,54.0 380.3,54.1 381.5,54.0 382.7,54.0 383.9,54.0 385.1,54.1 386.3,54.0 387.5,54.1 388.6,54.1 389.8,54.1 391.0,54.1 392.2,54.2 393.4,54.2 394.6,54.3 395.8,54.3 396.9,54.4 398.1,54.4 399.3,54.6 400.5,54.8 401.7,55.1 402.9,55.4 404.1,55.8 405.3,56.1 406.4,56.5 407.6,56.7 408.8,57.1 410.0,57.2 411.2,57.6 412.4,57.8 413.6,58.1 414.7,58.3 415.9,58.7 417.1,59.0 418.3,59.4 419.5,59.8 420.7,60.4 421.9,60.9 423.1,61.6 424.2,62.2 425.4,63.0 426.6,63.6 427.8,64.5 429.0,65.1 430.2,66.0 431.4,66.7 432.5,67.5 433.7,68.2 434.9,69.0 436.1,69.7 437.3,70.6 438.5,71.3 439.7,72.3 440.9,73.1 442.0,74.1 443.2,75.2 444.4,76.2 445.6,77.4 446.8,78.6 448.0,79.8 449.2,81.0 450.3,82.3 451.5,83.5 452.7,84.8 453.9,86.1 455.1,87.4 456.3,88.7 457.5,90.0 458.7,91.2 459.8,92.6 461.0,93.9 462.2,95.2 463.4,96.6 464.6,98.0 465.8,99.5 467.0,101.0 468.1,102.5 469.3,104.0 470.5,105.5 471.7,107.0 472.9,108.5 474.1,110.0 475.3,111.4 476.5,112.8 477.6,114.3 478.8,115.7 480.0,117.1 481.2,118.5 482.4,119.9 483.6,121.3 484.8,122.6 485.9,124.0 487.1,125.4 488.3,126.8 489.5,128.2 490.7,129.6 491.9,131.0 493.1,132.4 494.3,133.9 495.4,135.3 496.6,136.8 497.8,138.4 499.0,139.9 500.2,141.5 501.4,143.1 502.6,144.7 503.7,146.3 504.9,147.9 506.1,149.6 507.3,151.3 508.5,152.9 509.7,154.6 510.9,156.3 512.1,158.0 513.2,159.7 514.4,161.4 515.6,163.2 516.8,164.9 518.0,166.6 519.2,168.3 520.4,170.1 521.5,171.8 522.7,173.5 523.9,175.2 525.1,177.0 526.3,178.7 527.5,180.4 528.7,182.1 529.9,183.8 531.0,185.5 532.2,187.2 533.4,188.9 534.6,190.6 535.8,192.2 537.0,193.9 538.2,195.6 539.3,197.2 540.5,198.8 541.7,200.5 542.9,202.1 544.1,203.7 545.3,205.2 546.5,206.7 547.7,208.2 548.8,209.6 550.0,210.9 551.2,212.2 552.4,213.5 553.6,214.7 554.8,215.9 556.0,217.0 557.1,218.0 558.3,219.1 559.5,220.0 560.7,221.0 561.9,221.9 563.1,222.7 564.3,223.5 565.5,224.2 566.6,225.0 567.8,225.6 569.0,226.3 570.2,227.1 571.4,227.9 572.6,228.7 573.8,229.5 574.9,230.2 576.1,230.9 577.3,231.7 578.5,232.4 579.7,233.1 580.9,233.8 582.1,234.4 583.3,235.1 584.4,235.8 585.6,236.5 586.8,237.1 588.0,237.8 589.2,238.4 590.4,239.1 591.6,239.7 592.7,240.3 593.9,240.9 595.1,241.5 596.3,242.1 597.5,242.6 598.7,243.2 599.9,243.8 601.1,244.3 602.2,244.8 603.4,245.3 604.6,245.7 605.8,246.1 607.0,246.5 608.2,246.9 609.4,247.2 610.5,247.5 611.7,247.7 612.9,247.8 614.1,248.0 615.3,248.3 616.5,248.6 617.7,249.0 618.9,249.3 620.0,249.6 621.2,249.9 622.4,250.2 623.6,250.5 624.8,250.7 626.0,250.9 627.2,251.1 628.3,251.2 629.5,251.3 630.7,251.3 631.9,251.2 633.1,251.3 634.3,251.4 635.5,251.6 636.7,251.8 637.8,252.1 639.0,252.3 640.2,252.6 641.4,252.8 642.6,253.1 643.8,253.3 645.0,253.5 646.1,253.7 647.3,253.9 648.5,254.0 649.7,254.1 650.9,254.1 652.1,254.0 653.3,253.9 654.5,253.9 655.6,253.8 656.8,253.8 658.0,253.8 659.2,253.7 660.4,253.6 661.6,253.6 662.8,253.5 663.9,253.5 665.1,253.6 666.3,253.7 667.5,253.8 668.7,253.9 669.9,254.1 671.1,254.3 672.3,254.4 673.4,254.6 674.6,254.8 675.8,255.0 677.0,255.1 678.2,255.3 679.4,255.5 680.6,255.7 681.7,255.8 682.9,256.0 684.1,256.2 685.3,256.4 686.5,256.6 687.7,256.8 688.9,257.0 690.1,257.2 691.2,257.3 692.4,257.5 693.6,257.7 694.8,257.9 696.0,258.1 697.2,258.3 698.4,258.5 699.5,258.7 700.7,258.9 701.9,259.1 703.1,259.3 704.3,259.5 705.5,259.6 706.7,259.8 707.9,260.0 709.0,260.2 710.2,260.4 711.4,260.5 712.6,260.7 713.8,260.9 715.0,261.0 716.2,261.2 717.3,261.3 718.5,261.5 719.7,261.6 720.9,261.8 722.1,261.9 723.3,262.1 724.5,262.2 725.7,262.3 726.8,262.5 728.0,262.6 729.2,262.7 730.4,262.9 731.6,263.0 732.8,263.1 734.0,263.2 735.1,263.3 736.3,263.5 737.5,263.6 738.7,263.7 739.9,263.8 741.1,263.9 742.3,264.0 743.5,264.1 744.6,264.3 745.8,264.4 747.0,264.5 748.2,264.6 749.4,264.7 750.6,264.8 751.8,264.9 752.9,265.0 754.1,265.1 755.3,265.2 756.5,265.3 757.7,265.4 758.9,265.5 760.1,265.6 761.3,265.6 762.4,265.7 763.6,265.8 764.8,265.9 766.0,266.0"/>
<line x1="606" y1="42" x2="628" y2="42" stroke="#0f62fe" stroke-width="2.2"/>
<text x="634" y="46" font-family="Arial" font-size="12">qbar_pa</text>
</svg>