<svg xmlns="http://www.w3.org/2000/svg" width="820" height="320" viewBox="0 0 820 320">
<rect width="100%" height="100%" fill="#ffffff"/>
<text x="54" y="28" font-family="Arial" font-size="18" font-weight="700">GPS Altitude vs Truth</text>
<line x1="54" y1="266" x2="766" y2="266" stroke="#1f2933"/>
<line x1="54" y1="54" x2="54" y2="266" stroke="#1f2933"/>
<text x="54" y="306" font-family="Arial" font-size="12">time (s)</text>
<text x="596" y="306" font-family="Arial" font-size="12">altitude (m)</text>
<text x="58" y="68" font-family="Arial" font-size="11">219</text>
<text x="58" y="260" font-family="Arial" font-size="11">20</text>
<polyline fill="none" stroke="#0f62fe" stroke-width="2.2" points="54.0,266.0 55.2,265.8 56.4,265.5 57.6,265.3 58.7,265.0 59.9,264.8 61.1,264.6 62.3,264.4 63.5,264.2 64.7,264.0 65.9,263.8 67.1,263.6 68.2,263.4 69.4,263.2 70.6,263.0 71.8,262.9 73.0,262.7 74.2,262.5 75.4,262.4 76.5,262.2 77.7,262.0 78.9,261.9 80.1,261.7 81.3,261.6 82.5,261.4 83.7,261.3 84.9,261.1 86.0,261.0 87.2,260.9 88.4,260.7 89.6,260.6 90.8,260.5 92.0,260.4 93.2,260.2 94.3,260.1 95.5,260.0 96.7,259.9 97.9,259.8 99.1,259.7 100.3,259.5 101.5,259.4 102.7,259.3 103.8,259.2 105.0,259.1 106.2,259.0 107.4,258.9 108.6,258.8 109.8,258.7 111.0,258.7 112.1,258.6 113.3,258.5 114.5,258.4 115.7,258.3 116.9,258.2 118.1,258.1 119.3,258.1 120.5,258.0 121.6,257.9 122.8,257.8 124.0,257.7 125.2,257.7 126.4,257.6 127.6,257.5 128.8,257.4 129.9,257.4 131.1,257.3 132.3,257.2 133.5,257.2 134.7,257.1 135.9,257.0 137.1,256.9 138.3,256.9 139.4,256.8 140.6,256.7 141.8,256.7 143.0,256.6 144.2,256.5 145.4,256.5 146.6,256.4 147.7,256.3 148.9,256.3 150.1,256.2 151.3,256.1 152.5,256.1 153.7,256.0 154.9,255.9 156.1,255.9 157.2,255.8 158.4,255.7 159.6,255.6 160.8,255.6 162.0,255.5 163.2,255.4 164.4,255.3 165.5,255.3 166.7,255.2 167.9,255.1 169.1,255.0 170.3,255.0 171.5,254.9 172.7,254.8 173.9,254.7 175.0,254.6 176.2,254.5 177.4,254.4 178.6,254.4 179.8,254.3 181.0,254.2 182.2,254.1 183.3,254.0 184.5,253.9 185.7,253.8 186.9,253.7 188.1,253.5 189.3,253.4 190.5,253.3 191.7,253.2 192.8,253.1 194.0,253.0 195.2,252.8 196.4,252.7 197.6,252.6 198.8,252.4 200.0,252.3 201.1,252.2 202.3,252.0 203.5,251.9 204.7,251.7 205.9,251.6 207.1,251.4 208.3,251.2 209.5,251.1 210.6,250.9 211.8,250.7 213.0,250.5 214.2,250.4 215.4,250.2 216.6,250.0 217.8,249.8 218.9,249.6 220.1,249.4 221.3,249.2 222.5,249.0 223.7,248.8 224.9,248.6 226.1,248.3 227.3,248.1 228.4,247.9 229.6,247.7 230.8,247.4 232.0,247.2 233.2,246.9 234.4,246.7 235.6,246.4 236.7,246.1 237.9,245.9 239.1,245.6 240.3,245.3 241.5,245.0 242.7,244.7 243.9,244.5 245.1,244.2 246.2,243.8 247.4,243.5 248.6,243.2 249.8,242.9 251.0,242.6 252.2,242.2 253.4,241.9 254.5,241.6 255.7,241.2 256.9,240.9 258.1,240.5 259.3,240.2 260.5,239.8 261.7,239.4 262.9,239.0 264.0,238.7 265.2,238.3 266.4,237.9 267.6,237.5 268.8,237.1 270.0,236.6 271.2,236.2 272.3,235.8 273.5,235.4 274.7,234.9 275.9,234.5 277.1,234.0 278.3,233.5 279.5,233.1 280.7,232.6 281.8,232.1 283.0,231.6 284.2,231.1 285.4,230.5 286.6,230.0 287.8,229.4 289.0,228.9 290.1,228.3 291.3,227.7 292.5,227.1 293.7,226.5 294.9,225.8 296.1,225.2 297.3,224.5 298.5,223.9 299.6,223.2 300.8,222.5 302.0,221.8 303.2,221.1 304.4,220.4 305.6,219.7 306.8,219.0 307.9,218.2 309.1,217.5 310.3,216.7 311.5,215.9 312.7,215.1 313.9,214.3 315.1,213.5 316.3,212.7 317.4,211.9 318.6,211.1 319.8,210.2 321.0,209.4 322.2,208.5 323.4,207.7 324.6,206.8 325.7,205.9 326.9,205.0 328.1,204.1 329.3,203.2 330.5,202.3 331.7,201.4 332.9,200.4 334.1,199.5 335.2,198.5 336.4,197.6 337.6,196.6 338.8,195.6 340.0,194.7 341.2,193.7 342.4,192.7 343.5,191.7 344.7,190.7 345.9,189.7 347.1,188.6 348.3,187.6 349.5,186.6 350.7,185.5 351.9,184.5 353.0,183.5 354.2,182.4 355.4,181.3 356.6,180.3 357.8,179.2 359.0,178.1 360.2,177.0 361.3,175.9 362.5,174.8 363.7,173.7 364.9,172.6 366.1,171.5 367.3,170.4 368.5,169.3 369.7,168.1 370.8,167.0 372.0,165.9 373.2,164.7 374.4,163.6 375.6,162.4 376.8,161.3 378.0,160.1 379.1,158.9 380.3,157.8 381.5,156.6 382.7,155.4 383.9,154.2 385.1,153.0 386.3,151.8 387.5,150.7 388.6,149.5 389.8,148.3 391.0,147.1 392.2,145.9 393.4,144.6 394.6,143.4 395.8,142.2 396.9,141.0 398.1,139.8 399.3,138.6 400.5,137.4 401.7,136.1 402.9,134.9 404.1,133.7 405.3,132.5 406.4,131.3 407.6,130.0 408.8,128.8 410.0,127.6 411.2,126.4 412.4,125.2 413.6,124.0 414.7,122.7 415.9,121.5 417.1,120.3 418.3,119.1 419.5,117.9 420.7,116.7 421.9,115.5 423.1,114.3 424.2,113.1 425.4,112.0 426.6,110.8 427.8,109.6 429.0,108.4 430.2,107.3 431.4,106.1 432.5,105.0 433.7,103.8 434.9,102.7 436.1,101.5 437.3,100.4 438.5,99.3 439.7,98.2 440.9,97.1 442.0,96.0 443.2,94.9 444.4,93.8 445.6,92.7 446.8,91.7 448.0,90.6 449.2,89.6 450.3,88.6 451.5,87.5 452.7,86.5 453.9,85.5 455.1,84.6 456.3,83.6 457.5,82.6 458.7,81.7 459.8,80.7 461.0,79.8 462.2,78.9 463.4,78.0 464.6,77.1 465.8,76.3 467.0,75.4 468.1,74.6 469.3,73.7 470.5,72.9 471.7,72.1 472.9,71.4 474.1,70.6 475.3,69.9 476.5,69.1 477.6,68.4 478.8,67.7 480.0,67.0 481.2,66.4 482.4,65.7 483.6,65.1 484.8,64.5 485.9,63.9 487.1,63.4 488.3,62.8 489.5,62.3 490.7,61.8 491.9,61.3 493.1,60.8 494.3,60.3 495.4,59.9 496.6,59.5 497.8,59.1 499.0,58.7 500.2,58.3 501.4,58.0 502.6,57.7 503.7,57.4 504.9,57.1 506.1,56.8 507.3,56.6 508.5,56.3 509.7,56.1 510.9,55.9 512.1,55.7 513.2,55.6 514.4,55.5 515.6,55.3 516.8,55.2 518.0,55.2 519.2,55.1 520.4,55.0 521.5,55.0 522.7,55.0 523.9,55.0 525.1,55.0 526.3,55.1 527.5,55.1 528.7,55.2 529.9,55.3 531.0,55.4 532.2,55.5 533.4,55.7 534.6,55.8 535.8,56.0 537.0,56.2 538.2,56.4 539.3,56.6 540.5,56.9 541.7,57.1 542.9,57.4 544.1,57.7 545.3,58.0 546.5,58.4 547.7,58.7 548.8,59.0 550.0,59.4 551.2,59.8 552.4,60.2 553.6,60.6 554.8,61.0 556.0,61.4 557.1,61.9 558.3,62.4 559.5,62.8 560.7,63.3 561.9,63.8 563.1,64.3 564.3,64.8 565.5,65.3 566.6,65.9 567.8,66.4 569.0,67.0 570.2,67.5 571.4,68.1 572.6,68.7 573.8,69.2 574.9,69.8 576.1,70.4 577.3,71.0 578.5,71.6 579.7,72.2 580.9,72.8 582.1,73.5 583.3,74.1 584.4,74.7 585.6,75.3 586.8,76.0 588.0,76.6 589.2,77.3 590.4,77.9 591.6,78.6 592.7,79.2 593.9,79.9 595.1,80.6 596.3,81.3 597.5,81.9 598.7,82.6 599.9,83.3 601.1,84.1 602.2,84.8 603.4,85.5 604.6,86.2 605.8,87.0 607.0,87.7 608.2,88.4 609.4,89.2 610.5,89.9 611.7,90.7 612.9,91.4 614.1,92.2 615.3,92.9 616.5,93.7 617.7,94.4 618.9,95.2 620.0,95.9 621.2,96.7 622.4,97.4 623.6,98.2 624.8,99.0 626.0,99.7 627.2,100.5 628.3,101.3 629.5,102.0 630.7,102.8 631.9,103.7 633.1,104.5 634.3,105.3 635.5,106.2 636.7,107.0 637.8,107.9 639.0,108.8 640.2,109.6 641.4,110.6 642.6,111.5 643.8,112.4 645.0,113.3 646.1,114.2 647.3,115.2 648.5,116.1 649.7,117.1 650.9,118.0 652.1,119.0 653.3,120.0 654.5,121.0 655.6,121.9 656.8,122.9 658.0,123.9 659.2,124.9 660.4,125.9 661.6,127.0 662.8,128.0 663.9,129.0 665.1,130.1 666.3,131.1 667.5,132.2 668.7,133.2 669.9,134.3 671.1,135.4 672.3,136.5 673.4,137.6 674.6,138.7 675.8,139.8 677.0,141.0 678.2,142.1 679.4,143.2 680.6,144.4 681.7,145.6 682.9,146.7 684.1,147.9 685.3,149.1 686.5,150.2 687.7,151.4 688.9,152.6 690.1,153.8 691.2,155.0 692.4,156.2 693.6,157.5 694.8,158.7 696.0,159.9 697.2,161.1 698.4,162.4 699.5,163.6 700.7,164.9 701.9,166.1 703.1,167.4 704.3,168.7 705.5,169.9 706.7,171.2 707.9,172.5 709.0,173.8 710.2,175.1 711.4,176.4 712.6,177.7 713.8,179.0 715.0,180.3 716.2,181.6 717.3,183.0 718.5,184.3 719.7,185.6 720.9,187.0 722.1,188.3 723.3,189.7 724.5,191.0 725.7,192.4 726.8,193.8 728.0,195.2 729.2,196.5 730.4,197.9 731.6,199.3 732.8,200.7 734.0,202.1 735.1,203.5 736.3,204.9 737.5,206.3 738.7,207.7 739.9,209.2 741.1,210.6 742.3,212.0 743.5,213.4 744.6,214.9 745.8,216.3 747.0,217.7 748.2,219.2 749.4,220.6 750.6,222.1 751.8,223.5 752.9,225.0 754.1,226.5 755.3,227.9 756.5,229.4 757.7,230.9 758.9,232.4 760.1,233.8 761.3,235.3 762.4,236.8 763.6,238.3 764.8,239.8 766.0,241.3"/>
<line x1="606" y1="42" x2="628" y2="42" stroke="#0f62fe" stroke-width="2.2"/>
<text x="634" y="46" font-family="Arial" font-size="12">altitude_m</text>
<polyline fill="none" stroke="#24a148" stroke-width="2.2" points="54.0,265.2 55.2,265.2 56.4,265.2 57.6,265.2 58.7,265.2 59.9,265.2 61.1,265.2 62.3,265.7 63.5,265.7 64.7,265.7 65.9,265.7 67.1,265.7 68.2,265.7 69.4,265.7 70.6,262.6 71.8,262.6 73.0,262.6 74.2,262.6 75.4,262.6 76.5,262.6 77.7,262.6 78.9,261.4 80.1,261.4 81.3,261.4 82.5,261.4 83.7,261.4 84.9,261.4 86.0,261.4 87.2,258.9 88.4,258.9 89.6,258.9 90.8,258.9 92.0,258.9 93.2,258.9 94.3,258.9 95.5,259.1 96.7,259.1 97.9,259.1 99.1,259.1 100.3,259.1 101.5,259.1 102.7,259.1 103.8,260.6 105.0,260.6 106.2,260.6 107.4,260.6 108.6,260.6 109.8,260.6 111.0,260.6 112.1,256.0 113.3,256.0 114.5,256.0 115.7,256.0 116.9,256.0 118.1,256.0 119.3,256.0 120.5,257.1 121.6,257.1 122.8,257.1 124.0,257.1 125.2,257.1 126.4,257.1 127.6,257.1 128.8,256.5 129.9,256.5 131.1,256.5 132.3,256.5 133.5,256.5 134.7,256.5 135.9,256.5 137.1,258.2 138.3,258.2 139.4,258.2 140.6,258.2 141.8,258.2 143.0,258.2 144.2,258.2 145.4,258.0 146.6,258.0 147.7,258.0 148.9,258.0 150.1,258.0 151.3,258.0 152.5,258.0 153.7,253.2 154.9,253.2 156.1,253.2 157.2,253.2 158.4,253.2 159.6,253.2 160.8,253.2 162.0,254.9 163.2,254.9 164.4,254.9 165.5,254.9 166.7,254.9 167.9,254.9 169.1,254.9 170.3,255.4 171.5,255.4 172.7,255.4 173.9,255.4 175.0,255.4 176.2,255.4 177.4,255.4 178.6,254.3 179.8,254.3 181.0,254.3 182.2,254.3 183.3,254.3 184.5,254.3 185.7,254.3 186.9,254.1 188.1,254.1 189.3,254.1 190.5,254.1 191.7,254.1 192.8,254.1 194.0,254.1 195.2,252.3 196.4,252.3 197.6,252.3 198.8,252.3 200.0,252.3 201.1,252.3 202.3,252.3 203.5,252.4 204.7,252.4 205.9,252.4 207.1,252.4 208.3,252.4 209.5,252.4 210.6,252.4 211.8,249.5 213.0,249.5 214.2,249.5 215.4,249.5 216.6,249.5 217.8,249.5 218.9,249.5 220.1,250.9 221.3,250.9 222.5,250.9 223.7,250.9 224.9,250.9 226.1,250.9 227.3,250.9 228.4,248.9 229.6,248.9 230.8,248.9 232.0,248.9 233.2,248.9 234.4,248.9 235.6,248.9 236.7,247.0 237.9,247.0 239.1,247.0 240.3,247.0 241.5,247.0 242.7,247.0 243.9,247.0 245.1,244.9 246.2,244.9 247.4,244.9 248.6,244.9 249.8,244.9 251.0,244.9 252.2,244.9 253.4,242.3 254.5,242.3 255.7,242.3 256.9,242.3 258.1,242.3 259.3,242.3 260.5,242.3 261.7,239.6 262.9,239.6 264.0,239.6 265.2,239.6 266.4,239.6 267.6,239.6 268.8,239.6 270.0,238.3 271.2,238.3 272.3,238.3 273.5,238.3 274.7,238.3 275.9,238.3 277.1,238.3 278.3,233.0 279.5,233.0 280.7,233.0 281.8,233.0 283.0,233.0 284.2,233.0 285.4,233.0 286.6,229.2 287.8,229.2 289.0,229.2 290.1,229.2 291.3,229.2 292.5,229.2 293.7,229.2 294.9,225.9 296.1,225.9 297.3,225.9 298.5,225.9 299.6,225.9 300.8,225.9 302.0,225.9 303.2,219.4 304.4,219.4 305.6,219.4 306.8,219.4 307.9,219.4 309.1,219.4 310.3,219.4 311.5,217.8 312.7,217.8 313.9,217.8 315.1,217.8 316.3,217.8 317.4,217.8 318.6,217.8 319.8,209.4 321.0,209.4 322.2,209.4 323.4,209.4 324.6,209.4 325.7,209.4 326.9,209.4 328.1,202.8 329.3,202.8 330.5,202.8 331.7,202.8 332.9,202.8 334.1,202.8 335.2,202.8 336.4,200.8 337.6,200.8 338.8,200.8 340.0,200.8 341.2,200.8 342.4,200.8 343.5,200.8 344.7,190.8 345.9,190.8 347.1,190.8 348.3,190.8 349.5,190.8 350.7,190.8 351.9,190.8 353.0,181.9 354.2,181.9 355.4,181.9 356.6,181.9 357.8,181.9 359.0,181.9 360.2,181.9 361.3,174.9 362.5,174.9 363.7,174.9 364.9,174.9 366.1,174.9 367.3,174.9 368.5,174.9 369.7,168.7 370.8,168.7 372.0,168.7 373.2,168.7 374.4,168.7 375.6,168.7 376.8,168.7 378.0,162.0 379.1,162.0 380.3,162.0 381.5,162.0 382.7,162.0 383.9,162.0 385.1,162.0 386.3,150.1 387.5,150.1 388.6,150.1 389.8,150.1 391.0,150.1 392.2,150.1 393.4,150.1 394.6,141.9 395.8,141.9 396.9,141.9 398.1,141.9 399.3,141.9 400.5,141.9 401.7,141.9 402.9,135.3 404.1,135.3 405.3,135.3 406.4,135.3 407.6,135.3 408.8,135.3 410.0,135.3 411.2,126.3 412.4,126.3 413.6,126.3 414.7,126.3 415.9,126.3 417.1,126.3 418.3,126.3 419.5,117.8 420.7,117.8 421.9,117.8 423.1,117.8 424.2,117.8 425.4,117.8 426.6,117.8 427.8,109.4 429.0,109.4 430.2,109.4 431.4,109.4 432.5,109.4 433.7,109.4 434.9,109.4 436.1,98.6 437.3,98.6 438.5,98.6 439.7,98.6 440.9,98.6 442.0,98.6 443.2,98.6 444.4,91.3 445.6,91.3 446.8,91.3 448.0,91.3 449.2,91.3 450.3,91.3 451.5,91.3 452.7,89.3 453.9,89.3 455.1,89.3 456.3,89.3 457.5,89.3 458.7,89.3 459.8,89.3 461.0,78.9 462.2,78.9 463.4,78.9 464.6,78.9 465.8,78.9 467.0,78.9 468.1,78.9 469.3,74.8 470.5,74.8 471.7,74.8 472.9,74.8 474.1,74.8 475.3,74.8 476.5,74.8 477.6,67.8 478.8,67.8 480.0,67.8 481.2,67.8 482.4,67.8 483.6,67.8 484.8,67.8 485.9,63.6 487.1,63.6 488.3,63.6 489.5,63.6 490.7,63.6 491.9,63.6 493.1,63.6 494.3,62.4 495.4,62.4 496.6,62.4 497.8,62.4 499.0,62.4 500.2,62.4 501.4,62.4 502.6,56.5 503.7,56.5 504.9,56.5 506.1,56.5 507.3,56.5 508.5,56.5 509.7,56.5 510.9,54.0 512.1,54.0 513.2,54.0 514.4,54.0 515.6,54.0 516.8,54.0 518.0,54.0 519.2,55.8 520.4,55.8 521.5,55.8 522.7,55.8 523.9,55.8 525.1,55.8 526.3,55.8 527.5,55.1 528.7,55.1 529.9,55.1 531.0,55.1 532.2,55.1 533.4,55.1 534.6,55.1 535.8,56.6 537.0,56.6 538.2,56.6 539.3,56.6 540.5,56.6 541.7,56.6 542.9,56.6 544.1,56.2 545.3,56.2 546.5,56.2 547.7,56.2 548.8,56.2 550.0,56.2 551.2,56.2 552.4,59.1 553.6,59.1 554.8,59.1 556.0,59.1 557.1,59.1 558.3,59.1 559.5,59.1 560.7,63.9 561.9,63.9 563.1,63.9 564.3,63.9 565.5,63.9 566.6,63.9 567.8,63.9 569.0,68.7 570.2,68.7 571.4,68.7 572.6,68.7 573.8,68.7 574.9,68.7 576.1,68.7 577.3,72.0 578.5,72.0 579.7,72.0 580.9,72.0 582.1,72.0 583.3,72.0 584.4,72.0 585.6,74.8 586.8,74.8 588.0,74.8 589.2,74.8 590.4,74.8 591.6,74.8 592.7,74.8 593.9,80.0 595.1,80.0 596.3,80.0 597.5,80.0 598.7,80.0 599.9,80.0 601.1,80.0 602.2,84.2 603.4,84.2 604.6,84.2 605.8,84.2 607.0,84.2 608.2,84.2 609.4,84.2 610.5,89.0 611.7,89.0 612.9,89.0 614.1,89.0 615.3,89.0 616.5,89.0 617.7,89.0 618.9,96.2 620.0,96.2 621.2,96.2 622.4,96.2 623.6,96.2 624.8,96.2 626.0,96.2 627.2,100.5 628.3,100.5 629.5,100.5 630.7,100.5 631.9,100.5 633.1,100.5 634.3,100.5 635.5,107.7 636.7,107.7 637.8,107.7 639.0,107.7 640.2,107.7 641.4,107.7 642.6,107.7 643.8,111.7 645.0,111.7 646.1,111.7 647.3,111.7 648.5,111.7 649.7,111.7 650.9,111.7 652.1,120.5 653.3,120.5 654.5,120.5 655.6,120.5 656.8,120.5 658.0,120.5 659.2,120.5 660.4,127.8 661.6,127.8 662.8,127.8 663.9,127.8 665.1,127.8 666.3,127.8 667.5,127.8 668.7,132.7 669.9,132.7 671.1,132.7 672.3,132.7 673.4,132.7 674.6,132.7 675.8,132.7 677.0,140.8 678.2,140.8 679.4,140.8 680.6,140.8 681.7,140.8 682.9,140.8 684.1,140.8 685.3,149.4 686.5,149.4 687.7,149.4 688.9,149.4 690.1,149.4 691.2,149.4 692.4,149.4 693.6,155.0 694.8,155.0 696.0,155.0 697.2,155.0 698.4,155.0 699.5,155.0 700.7,155.0 701.9,167.0 703.1,167.0 704.3,167.0 705.5,167.0 706.7,167.0 707.9,167.0 709.0,167.0 710.2,175.3 711.4,175.3 712.6,175.3 713.8,175.3 715.0,175.3 716.2,175.3 717.3,175.3 718.5,182.0 719.7,182.0 720.9,182.0 722.1,182.0 723.3,182.0 724.5,182.0 725.7,182.0 726.8,191.7 728.0,191.7 729.2,191.7 730.4,191.7 731.6,191.7 732.8,191.7 734.0,191.7 735.1,205.3 736.3,205.3 737.5,205.3 738.7,205.3 739.9,205.3 741.1,205.3 742.3,205.3 743.5,216.3 744.6,216.3 745.8,216.3 747.0,216.3 748.2,216.3 749.4,216.3 750.6,216.3 751.8,224.0 752.9,224.0 754.1,224.0 755.3,224.0 756.5,224.0 757.7,224.0 758.9,224.0 760.1,232.9 761.3,232.9 762.4,232.9 763.6,232.9 764.8,232.9 766.0,232.9"/>
<line x1="606" y1="60" x2="628" y2="60" stroke="#24a148" stroke-width="2.2"/>
<text x="634" y="64" font-family="Arial" font-size="12">gps_z_m</text>
</svg>