<svg xmlns="http://www.w3.org/2000/svg" width="820" height="320" viewBox="0 0 820 320">
<rect width="100%" height="100%" fill="#ffffff"/>
<text x="54" y="28" font-family="Arial" font-size="18" font-weight="700">Pitch Command Tracking</text>
<line x1="54" y1="266" x2="766" y2="266" stroke="#1f2933"/>
<line x1="54" y1="54" x2="54" y2="266" stroke="#1f2933"/>
<text x="54" y="306" font-family="Arial" font-size="12">time (s)</text>
<text x="596" y="306" font-family="Arial" font-size="12">pitch (deg)</text>
<text x="58" y="68" font-family="Arial" font-size="11">23.4</text>
<text x="58" y="260" font-family="Arial" font-size="11">-78.3</text>
<polyline fill="none" stroke="#0f62fe" stroke-width="2.2" points="54.0,75.7 55.2,75.7 56.4,75.7 57.6,75.8 58.7,75.8 59.9,75.8 61.1,75.8 62.3,75.9 63.5,75.9 64.7,75.9 65.9,76.0 67.1,76.0 68.2,76.0 69.4,76.1 70.6,76.1 71.8,76.1 73.0,76.2 74.2,76.2 75.4,76.2 76.5,76.3 77.7,76.3 78.9,76.3 80.1,76.4 81.3,76.4 82.5,76.4 83.7,76.4 84.9,76.5 86.0,76.5 87.2,76.5 88.4,76.6 89.6,76.6 90.8,76.6 92.0,76.7 93.2,76.7 94.3,76.7 95.5,76.8 96.7,76.8 97.9,76.8 99.1,76.9 100.3,76.9 101.5,76.9 102.7,76.9 103.8,77.0 105.0,77.0 106.2,77.0 107.4,77.1 108.6,77.1 109.8,77.1 111.0,77.2 112.1,77.2 113.3,77.2 114.5,77.3 115.7,77.3 116.9,77.3 118.1,77.4 119.3,77.4 120.5,77.4 121.6,77.4 122.8,77.5 124.0,77.5 125.2,77.5 126.4,77.6 127.6,77.6 128.8,77.6 129.9,77.7 131.1,77.7 132.3,77.7 133.5,77.8 134.7,77.8 135.9,77.8 137.1,77.9 138.3,77.9 139.4,77.9 140.6,77.9 141.8,78.0 143.0,78.0 144.2,78.0 145.4,78.1 146.6,78.1 147.7,78.1 148.9,78.2 150.1,78.2 151.3,78.2 152.5,78.3 153.7,78.3 154.9,78.3 156.1,78.4 157.2,78.4 158.4,78.4 159.6,78.4 160.8,78.5 162.0,78.5 163.2,78.5 164.4,78.6 165.5,78.6 166.7,78.6 167.9,78.7 169.1,78.7 170.3,78.7 171.5,78.8 172.7,78.8 173.9,78.8 175.0,78.9 176.2,78.9 177.4,78.9 178.6,78.9 179.8,79.0 181.0,79.0 182.2,79.0 183.3,79.1 184.5,79.1 185.7,79.1 186.9,79.2 188.1,79.2 189.3,79.2 190.5,79.3 191.7,79.3 192.8,79.3 194.0,79.4 195.2,79.4 196.4,79.4 197.6,79.4 198.8,79.5 200.0,79.5 201.1,79.5 202.3,79.6 203.5,79.6 204.7,79.6 205.9,79.7 207.1,79.7 208.3,79.7 209.5,79.8 210.6,79.8 211.8,79.8 213.0,79.9 214.2,79.9 215.4,79.9 216.6,79.9 217.8,80.0 218.9,80.0 220.1,80.0 221.3,80.1 222.5,80.1 223.7,80.1 224.9,80.2 226.1,80.2 227.3,80.2 228.4,80.3 229.6,80.3 230.8,80.3 232.0,80.4 233.2,80.4 234.4,80.4 235.6,80.4 236.7,80.5 237.9,80.5 239.1,80.5 240.3,80.6 241.5,80.6 242.7,80.6 243.9,80.7 245.1,80.7 246.2,80.7 247.4,80.8 248.6,80.8 249.8,80.8 251.0,80.9 252.2,80.9 253.4,80.9 254.5,80.9 255.7,81.0 256.9,81.0 258.1,81.0 259.3,81.1 260.5,81.1 261.7,81.1 262.9,81.2 264.0,81.2 265.2,81.2 266.4,81.3 267.6,81.3 268.8,81.3 270.0,81.4 271.2,81.4 272.3,81.4 273.5,81.4 274.7,81.5 275.9,81.5 277.1,81.5 278.3,81.6 279.5,81.6 280.7,81.6 281.8,81.7 283.0,81.7 284.2,81.7 285.4,81.8 286.6,81.8 287.8,81.8 289.0,81.9 290.1,81.9 291.3,81.9 292.5,81.9 293.7,82.0 294.9,82.0 296.1,82.0 297.3,82.0 298.5,82.1 299.6,82.1 300.8,82.1 302.0,82.1 303.2,82.2 304.4,82.2 305.6,82.2 306.8,82.2 307.9,82.2 309.1,82.3 310.3,82.3 311.5,82.3 312.7,82.3 313.9,82.4 315.1,82.4 316.3,82.4 317.4,82.4 318.6,82.5 319.8,82.5 321.0,82.5 322.2,82.5 323.4,82.6 324.6,82.6 325.7,82.6 326.9,82.6 328.1,82.6 329.3,82.7 330.5,82.7 331.7,82.7 332.9,82.7 334.1,82.8 335.2,82.8 336.4,82.8 337.6,82.8 338.8,82.9 340.0,82.9 341.2,82.9 342.4,82.9 343.5,82.9 344.7,83.0 345.9,83.0 347.1,83.0 348.3,83.0 349.5,83.1 350.7,83.1 351.9,83.1 353.0,83.1 354.2,83.2 355.4,83.2 356.6,83.2 357.8,83.2 359.0,83.3 360.2,83.3 361.3,83.3 362.5,83.3 363.7,83.3 364.9,83.4 366.1,83.4 367.3,83.4 368.5,83.4 369.7,83.5 370.8,83.5 372.0,83.5 373.2,83.5 374.4,83.6 375.6,83.6 376.8,83.6 378.0,83.6 379.1,83.7 380.3,83.7 381.5,83.7 382.7,83.7 383.9,83.7 385.1,83.8 386.3,83.8 387.5,83.8 388.6,83.8 389.8,83.9 391.0,83.9 392.2,83.9 393.4,83.9 394.6,84.0 395.8,84.0 396.9,84.0 398.1,84.0 399.3,84.1 400.5,84.1 401.7,84.1 402.9,84.1 404.1,84.1 405.3,84.2 406.4,84.2 407.6,84.2 408.8,84.2 410.0,84.3 411.2,84.3 412.4,84.3 413.6,84.3 414.7,84.4 415.9,84.4 417.1,84.4 418.3,84.4 419.5,84.5 420.7,84.5 421.9,84.5 423.1,84.5 424.2,84.5 425.4,84.6 426.6,84.6 427.8,84.6 429.0,84.6 430.2,84.7 431.4,84.7 432.5,84.7 433.7,84.7 434.9,84.8 436.1,84.8 437.3,84.8 438.5,84.8 439.7,84.9 440.9,84.9 442.0,84.9 443.2,84.9 444.4,84.9 445.6,85.0 446.8,85.0 448.0,85.0 449.2,85.0 450.3,85.1 451.5,85.1 452.7,85.1 453.9,85.1 455.1,85.2 456.3,85.2 457.5,85.2 458.7,85.2 459.8,85.2 461.0,85.3 462.2,85.3 463.4,85.3 464.6,85.3 465.8,85.4 467.0,85.4 468.1,85.4 469.3,85.4 470.5,85.5 471.7,85.5 472.9,85.5 474.1,85.5 475.3,85.6 476.5,85.6 477.6,85.6 478.8,85.6 480.0,85.6 481.2,85.7 482.4,85.7 483.6,85.7 484.8,85.7 485.9,85.8 487.1,85.8 488.3,85.8 489.5,85.8 490.7,85.9 491.9,85.9 493.1,85.9 494.3,85.9 495.4,86.0 496.6,86.0 497.8,86.0 499.0,86.0 500.2,86.0 501.4,86.1 502.6,86.1 503.7,86.1 504.9,86.1 506.1,86.2 507.3,86.2 508.5,86.2 509.7,86.2 510.9,86.3 512.1,86.3 513.2,86.3 514.4,86.3 515.6,86.4 516.8,86.4 518.0,86.4 519.2,86.4 520.4,86.4 521.5,86.5 522.7,86.5 523.9,86.5 525.1,86.5 526.3,86.6 527.5,86.6 528.7,86.6 529.9,86.6 531.0,86.7 532.2,86.7 533.4,86.7 534.6,86.7 535.8,86.8 537.0,86.8 538.2,86.8 539.3,86.8 540.5,86.8 541.7,86.9 542.9,86.9 544.1,86.9 545.3,86.9 546.5,87.0 547.7,87.0 548.8,87.0 550.0,87.0 551.2,87.1 552.4,87.1 553.6,87.1 554.8,87.1 556.0,87.1 557.1,87.2 558.3,87.2 559.5,87.2 560.7,87.2 561.9,87.3 563.1,87.3 564.3,87.3 565.5,87.3 566.6,87.4 567.8,87.4 569.0,87.4 570.2,87.4 571.4,87.5 572.6,87.5 573.8,87.5 574.9,87.5 576.1,87.5 577.3,87.6 578.5,87.6 579.7,87.6 580.9,87.6 582.1,87.7 583.3,87.7 584.4,87.7 585.6,87.7 586.8,87.8 588.0,87.8 589.2,87.8 590.4,87.8 591.6,87.9 592.7,87.9 593.9,87.9 595.1,87.9 596.3,87.9 597.5,88.0 598.7,88.0 599.9,88.0 601.1,88.0 602.2,88.1 603.4,88.1 604.6,88.1 605.8,88.1 607.0,88.2 608.2,88.2 609.4,88.2 610.5,88.2 611.7,88.2 612.9,88.2 614.1,88.2 615.3,88.2 616.5,88.2 617.7,88.2 618.9,88.2 620.0,88.2 621.2,88.2 622.4,88.2 623.6,88.2 624.8,88.2 626.0,88.2 627.2,88.2 628.3,88.2 629.5,88.2 630.7,88.2 631.9,88.2 633.1,88.2 634.3,88.2 635.5,88.2 636.7,88.2 637.8,88.2 639.0,88.2 640.2,88.2 641.4,88.2 642.6,88.2 643.8,88.2 645.0,88.2 646.1,88.2 647.3,88.2 648.5,88.2 649.7,88.2 650.9,88.2 652.1,88.2 653.3,88.2 654.5,88.2 655.6,88.2 656.8,88.2 658.0,88.2 659.2,88.2 660.4,88.2 661.6,88.2 662.8,88.2 663.9,88.2 665.1,88.2 666.3,88.2 667.5,88.2 668.7,88.2 669.9,88.2 671.1,88.2 672.3,88.2 673.4,88.2 674.6,88.2 675.8,88.2 677.0,88.2 678.2,88.2 679.4,88.2 680.6,88.2 681.7,88.2 682.9,88.2 684.1,88.2 685.3,88.2 686.5,88.2 687.7,88.2 688.9,88.2 690.1,88.2 691.2,88.2 692.4,88.2 693.6,88.2 694.8,88.2 696.0,88.2 697.2,88.2 698.4,88.2 699.5,88.2 700.7,88.2 701.9,88.2 703.1,88.2 704.3,88.2 705.5,88.2 706.7,88.2 707.9,88.2 709.0,88.2 710.2,88.2 711.4,88.2 712.6,88.2 713.8,88.2 715.0,88.2 716.2,88.2 717.3,88.2 718.5,88.2 719.7,88.2 720.9,88.2 722.1,88.2 723.3,88.2 724.5,88.2 725.7,88.2 726.8,88.2 728.0,88.2 729.2,88.2 730.4,88.2 731.6,88.2 732.8,88.2 734.0,88.2 735.1,88.2 736.3,88.2 737.5,88.2 738.7,88.2 739.9,88.2 741.1,88.2 742.3,88.2 743.5,88.2 744.6,88.2 745.8,88.2 747.0,88.2 748.2,88.2 749.4,88.2 750.6,88.2 751.8,88.2 752.9,88.2 754.1,88.2 755.3,88.2 756.5,88.2 757.7,88.2 758.9,88.2 760.1,88.2 761.3,88.2 762.4,88.2 763.6,88.2 764.8,88.2 766.0,88.2"/>
<line x1="606" y1="42" x2="628" y2="42" stroke="#0f62fe" stroke-width="2.2"/>
<text x="634" y="46" font-family="Arial" font-size="12">pitch_command_deg</text>
<polyline fill="none" stroke="#24a148" stroke-width="2.2" points="54.0,90.3 55.2,89.7 56.4,89.0 57.6,88.6 58.7,88.4 59.9,88.3 61.1,88.0 62.3,87.9 63.5,87.7 64.7,87.6 65.9,87.6 67.1,87.5 68.2,87.5 69.4,87.5 70.6,87.5 71.8,87.5 73.0,87.5 74.2,87.5 75.4,87.6 76.5,87.6 77.7,87.7 78.9,87.7 80.1,87.8 81.3,87.8 82.5,87.9 83.7,88.0 84.9,88.1 86.0,88.1 87.2,88.2 88.4,88.3 89.6,88.4 90.8,88.5 92.0,88.5 93.2,88.6 94.3,88.7 95.5,88.8 96.7,88.8 97.9,88.9 99.1,89.0 100.3,89.1 101.5,89.2 102.7,89.2 103.8,89.3 105.0,89.4 106.2,89.4 107.4,89.5 108.6,89.6 109.8,89.6 111.0,89.7 112.1,89.8 113.3,89.8 114.5,89.9 115.7,89.9 116.9,90.0 118.1,90.1 119.3,90.1 120.5,90.2 121.6,90.2 122.8,90.3 124.0,90.3 125.2,90.4 126.4,90.4 127.6,90.5 128.8,90.5 129.9,90.5 131.1,90.6 132.3,90.6 133.5,90.7 134.7,90.7 135.9,90.7 137.1,90.8 138.3,90.8 139.4,90.8 140.6,90.9 141.8,90.9 143.0,90.9 144.2,91.0 145.4,91.0 146.6,91.0 147.7,91.0 148.9,91.1 150.1,91.1 151.3,91.1 152.5,91.1 153.7,91.1 154.9,91.1 156.1,91.1 157.2,91.1 158.4,91.1 159.6,91.1 160.8,91.1 162.0,91.1 163.2,91.0 164.4,91.0 165.5,91.0 166.7,91.0 167.9,90.9 169.1,90.9 170.3,90.9 171.5,90.9 172.7,90.8 173.9,90.8 175.0,90.7 176.2,90.7 177.4,90.7 178.6,90.6 179.8,90.6 181.0,90.6 182.2,90.5 183.3,90.5 184.5,90.4 185.7,90.4 186.9,90.3 188.1,90.3 189.3,90.2 190.5,90.2 191.7,90.2 192.8,90.1 194.0,90.1 195.2,90.0 196.4,90.0 197.6,89.9 198.8,89.9 200.0,89.8 201.1,89.8 202.3,89.7 203.5,89.7 204.7,89.6 205.9,89.6 207.1,89.5 208.3,89.4 209.5,89.5 210.6,89.2 211.8,89.6 213.0,88.8 214.2,89.8 215.4,89.4 216.6,89.6 217.8,89.0 218.9,90.0 220.1,89.4 221.3,90.0 222.5,88.7 223.7,89.0 224.9,88.6 226.1,89.5 227.3,88.5 228.4,89.0 229.6,88.0 230.8,88.8 232.0,88.1 233.2,89.0 234.4,88.3 235.6,89.2 236.7,88.3 237.9,89.1 239.1,88.1 240.3,89.0 241.5,88.2 242.7,89.1 243.9,88.4 245.1,89.4 246.2,88.6 247.4,89.6 248.6,88.8 249.8,89.8 251.0,89.0 252.2,90.1 253.4,89.4 254.5,90.6 255.7,89.9 256.9,91.1 258.1,90.5 259.3,91.5 260.5,90.6 261.7,91.8 262.9,91.2 264.0,92.2 265.2,91.3 266.4,92.4 267.6,91.8 268.8,93.0 270.0,92.4 271.2,93.6 272.3,93.1 273.5,93.9 274.7,92.9 275.9,93.8 277.1,93.1 278.3,94.2 279.5,93.9 280.7,94.3 281.8,92.9 283.0,93.3 284.2,93.2 285.4,93.9 286.6,92.8 287.8,93.1 289.0,93.1 290.1,93.6 291.3,92.4 292.5,92.9 293.7,92.2 294.9,93.3 296.1,92.6 297.3,93.7 298.5,93.1 299.6,93.9 300.8,93.0 302.0,93.6 303.2,92.6 304.4,93.3 305.6,92.5 306.8,93.3 307.9,92.8 309.1,94.0 310.3,93.6 311.5,94.8 312.7,94.3 313.9,95.2 315.1,94.5 316.3,95.1 317.4,94.1 318.6,94.6 319.8,93.5 321.0,94.0 322.2,93.0 323.4,93.7 324.6,92.9 325.7,93.7 326.9,93.0 328.1,94.0 329.3,93.5 330.5,94.6 331.7,94.2 332.9,95.3 334.1,94.8 335.2,95.8 336.4,95.1 337.6,95.9 338.8,95.2 340.0,95.8 341.2,95.0 342.4,95.6 343.5,94.8 344.7,95.5 345.9,94.8 347.1,95.6 348.3,95.1 349.5,96.1 350.7,95.7 351.9,96.4 353.0,95.7 354.2,96.3 355.4,95.6 356.6,96.2 357.8,95.7 359.0,96.5 360.2,96.0 361.3,96.9 362.5,96.4 363.7,96.8 364.9,96.1 366.1,96.4 367.3,95.6 368.5,96.1 369.7,95.4 370.8,96.1 372.0,95.8 373.2,96.8 374.4,96.6 375.6,97.5 376.8,97.2 378.0,98.0 379.1,97.6 380.3,98.3 381.5,97.8 382.7,98.3 383.9,97.7 385.1,98.1 386.3,97.4 387.5,97.8 388.6,97.2 389.8,97.7 391.0,97.3 392.2,97.9 393.4,97.7 394.6,98.5 395.8,98.4 396.9,99.1 398.1,98.8 399.3,99.4 400.5,99.0 401.7,99.5 402.9,99.2 404.1,99.7 405.3,99.5 406.4,100.0 407.6,99.7 408.8,100.1 410.0,99.7 411.2,100.2 412.4,99.9 413.6,100.4 414.7,100.2 415.9,100.9 417.1,100.8 418.3,101.3 419.5,101.2 420.7,101.8 421.9,101.7 423.1,102.3 424.2,102.1 425.4,102.6 426.6,102.5 427.8,102.9 429.0,102.7 430.2,103.1 431.4,102.9 432.5,103.4 433.7,103.2 434.9,103.7 436.1,103.6 437.3,104.1 438.5,104.2 439.7,104.7 440.9,104.9 442.0,105.4 443.2,105.7 444.4,106.1 445.6,106.4 446.8,106.8 448.0,107.1 449.2,107.4 450.3,107.6 451.5,107.9 452.7,108.1 453.9,108.3 455.1,108.6 456.3,108.9 457.5,109.2 458.7,109.5 459.8,109.9 461.0,110.3 462.2,110.8 463.4,111.2 464.6,111.7 465.8,112.3 467.0,112.8 468.1,113.3 469.3,113.8 470.5,114.3 471.7,114.8 472.9,115.2 474.1,115.6 475.3,116.1 476.5,116.5 477.6,116.9 478.8,117.3 480.0,117.8 481.2,118.2 482.4,118.7 483.6,119.3 484.8,119.8 485.9,120.5 487.1,121.1 488.3,121.8 489.5,122.6 490.7,123.3 491.9,124.1 493.1,124.9 494.3,125.7 495.4,126.5 496.6,127.3 497.8,128.1 499.0,128.8 500.2,129.6 501.4,130.4 502.6,131.2 503.7,132.0 504.9,132.8 506.1,133.6 507.3,134.4 508.5,135.2 509.7,136.0 510.9,136.7 512.1,137.5 513.2,138.3 514.4,139.1 515.6,139.9 516.8,140.7 518.0,141.5 519.2,142.3 520.4,143.1 521.5,144.0 522.7,144.8 523.9,145.6 525.1,146.4 526.3,147.2 527.5,148.0 528.7,148.8 529.9,149.7 531.0,150.5 532.2,151.3 533.4,152.2 534.6,153.0 535.8,153.9 537.0,154.6 538.2,155.1 539.3,155.2 540.5,154.8 541.7,154.1 542.9,152.8 544.1,151.2 545.3,149.4 546.5,147.5 547.7,145.7 548.8,144.0 550.0,142.3 551.2,140.7 552.4,139.2 553.6,137.7 554.8,136.2 556.0,134.7 557.1,133.3 558.3,131.8 559.5,130.4 560.7,129.0 561.9,127.8 563.1,127.0 564.3,126.8 565.5,127.6 566.6,129.4 567.8,132.1 569.0,135.6 570.2,139.6 571.4,144.1 572.6,148.9 573.8,153.9 574.9,159.0 576.1,164.2 577.3,169.6 578.5,175.1 579.7,180.8 580.9,186.8 582.1,193.1 583.3,199.8 584.4,207.0 585.6,214.6 586.8,222.8 588.0,231.6 589.2,240.7 590.4,250.0 591.6,258.7 592.7,265.1 593.9,266.0 595.1,259.9 596.3,249.1 597.5,236.4 598.7,223.0 599.9,209.0 601.1,194.4 602.2,179.2 603.4,163.7 604.6,148.0 605.8,132.4 607.0,117.4 608.2,103.3 609.4,90.6 610.5,79.7 611.7,70.7 612.9,63.6 614.1,58.4 615.3,55.2 616.5,54.0 617.7,54.8 618.9,57.6 620.0,62.3 621.2,68.8 622.4,77.0 623.6,86.6 624.8,97.2 626.0,108.8 627.2,120.9 628.3,133.2 629.5,145.0 630.7,155.5 631.9,164.1 633.1,170.8 634.3,175.6 635.5,178.7 636.7,180.0 637.8,179.8 639.0,178.1 640.2,175.1 641.4,171.1 642.6,166.4 643.8,161.3 645.0,156.0 646.1,150.6 647.3,145.1 648.5,139.6 649.7,134.3 650.9,129.5 652.1,125.3 653.3,122.0 654.5,119.6 655.6,118.3 656.8,118.1 658.0,118.8 659.2,120.4 660.4,122.8 661.6,125.8 662.8,128.9 663.9,131.9 665.1,134.6 666.3,137.0 667.5,139.1 668.7,140.8 669.9,142.3 671.1,143.6 672.3,144.6 673.4,145.5 674.6,146.2 675.8,146.8 677.0,147.3 678.2,147.6 679.4,147.8 680.6,148.0 681.7,148.2 682.9,148.4 684.1,148.8 685.3,149.3 686.5,150.0 687.7,151.0 688.9,152.2 690.1,153.7 691.2,155.4 692.4,157.4 693.6,159.6 694.8,162.2 696.0,165.0 697.2,168.1 698.4,171.5 699.5,175.2 700.7,179.1 701.9,183.4 703.1,188.0 704.3,192.8 705.5,197.8 706.7,203.1 707.9,208.6 709.0,214.3 710.2,220.1 711.4,226.1 712.6,232.1 713.8,238.1 715.0,244.0 716.2,249.7 717.3,254.9 718.5,259.3 719.7,262.5 720.9,263.9 722.1,263.2 723.3,260.5 724.5,256.2 725.7,250.9 726.8,244.9 728.0,238.6 729.2,232.5 730.4,226.8 731.6,221.5 732.8,216.4 734.0,211.6 735.1,207.0 736.3,202.8 737.5,198.9 738.7,195.3 739.9,192.0 741.1,188.9 742.3,186.0 743.5,183.4 744.6,180.8 745.8,178.5 747.0,176.3 748.2,174.2 749.4,172.2 750.6,170.2 751.8,168.4 752.9,166.6 754.1,164.8 755.3,163.0 756.5,161.3 757.7,159.7 758.9,158.2 760.1,156.7 761.3,155.3 762.4,153.9 763.6,152.7 764.8,151.5 766.0,150.3"/>
<line x1="606" y1="60" x2="628" y2="60" stroke="#24a148" stroke-width="2.2"/>
<text x="634" y="64" font-family="Arial" font-size="12">pitch_deg</text>
</svg>