<svg xmlns="http://www.w3.org/2000/svg" width="820" height="320" viewBox="0 0 820 320">
<rect width="100%" height="100%" fill="#ffffff"/>
<text x="54" y="28" font-family="Arial" font-size="18" font-weight="700">Altitude Position</text>
<line x1="54" y1="266" x2="766" y2="266" stroke="#1f2933"/>
<line x1="54" y1="54" x2="54" y2="266" stroke="#1f2933"/>
<text x="54" y="306" font-family="Arial" font-size="12">time (s)</text>
<text x="596" y="306" font-family="Arial" font-size="12">z (m)</text>
<text x="58" y="68" font-family="Arial" font-size="11">214</text>
<text x="58" y="260" font-family="Arial" font-size="11">20</text>
<polyline fill="none" stroke="#0f62fe" stroke-width="2.2" points="54.0,266.0 55.2,265.7 56.4,265.5 57.6,265.3 58.7,265.0 59.9,264.8 61.1,264.6 62.3,264.4 63.5,264.1 64.7,263.9 65.9,263.7 67.1,263.5 68.2,263.3 69.4,263.1 70.6,263.0 71.8,262.8 73.0,262.6 74.2,262.4 75.4,262.3 76.5,262.1 77.7,261.9 78.9,261.8 80.1,261.6 81.3,261.5 82.5,261.3 83.7,261.2 84.9,261.0 86.0,260.9 87.2,260.7 88.4,260.6 89.6,260.5 90.8,260.3 92.0,260.2 93.2,260.1 94.3,260.0 95.5,259.9 96.7,259.7 97.9,259.6 99.1,259.5 100.3,259.4 101.5,259.3 102.7,259.2 103.8,259.1 105.0,259.0 106.2,258.9 107.4,258.8 108.6,258.7 109.8,258.6 111.0,258.5 112.1,258.4 113.3,258.3 114.5,258.2 115.7,258.1 116.9,258.1 118.1,258.0 119.3,257.9 120.5,257.8 121.6,257.7 122.8,257.7 124.0,257.6 125.2,257.5 126.4,257.4 127.6,257.3 128.8,257.3 129.9,257.2 131.1,257.1 132.3,257.1 133.5,257.0 134.7,256.9 135.9,256.8 137.1,256.8 138.3,256.7 139.4,256.6 140.6,256.6 141.8,256.5 143.0,256.4 144.2,256.4 145.4,256.3 146.6,256.2 147.7,256.2 148.9,256.1 150.1,256.0 151.3,256.0 152.5,255.9 153.7,255.8 154.9,255.8 156.1,255.7 157.2,255.6 158.4,255.6 159.6,255.5 160.8,255.4 162.0,255.4 163.2,255.3 164.4,255.2 165.5,255.1 166.7,255.1 167.9,255.0 169.1,254.9 170.3,254.8 171.5,254.8 172.7,254.7 173.9,254.6 175.0,254.5 176.2,254.4 177.4,254.3 178.6,254.3 179.8,254.2 181.0,254.1 182.2,254.0 183.3,253.9 184.5,253.8 185.7,253.7 186.9,253.6 188.1,253.5 189.3,253.4 190.5,253.2 191.7,253.1 192.8,253.0 194.0,252.9 195.2,252.8 196.4,252.6 197.6,252.5 198.8,252.4 200.0,252.2 201.1,252.1 202.3,252.0 203.5,251.8 204.7,251.7 205.9,251.5 207.1,251.4 208.3,251.2 209.5,251.0 210.6,250.9 211.8,250.7 213.0,250.5 214.2,250.3 215.4,250.2 216.6,250.0 217.8,249.8 218.9,249.6 220.1,249.4 221.3,249.2 222.5,249.0 223.7,248.7 224.9,248.5 226.1,248.3 227.3,248.1 228.4,247.8 229.6,247.6 230.8,247.3 232.0,247.1 233.2,246.8 234.4,246.6 235.6,246.3 236.7,246.0 237.9,245.8 239.1,245.5 240.3,245.2 241.5,244.9 242.7,244.6 243.9,244.3 245.1,244.0 246.2,243.7 247.4,243.3 248.6,243.0 249.8,242.7 251.0,242.3 252.2,242.0 253.4,241.6 254.5,241.3 255.7,240.9 256.9,240.5 258.1,240.2 259.3,239.8 260.5,239.4 261.7,239.0 262.9,238.6 264.0,238.2 265.2,237.8 266.4,237.4 267.6,237.0 268.8,236.6 270.0,236.1 271.2,235.7 272.3,235.2 273.5,234.8 274.7,234.3 275.9,233.9 277.1,233.4 278.3,232.9 279.5,232.4 280.7,231.9 281.8,231.4 283.0,230.8 284.2,230.3 285.4,229.8 286.6,229.2 287.8,228.6 289.0,228.0 290.1,227.5 291.3,226.8 292.5,226.2 293.7,225.6 294.9,225.0 296.1,224.3 297.3,223.7 298.5,223.0 299.6,222.3 300.8,221.6 302.0,220.9 303.2,220.2 304.4,219.5 305.6,218.8 306.8,218.0 307.9,217.3 309.1,216.5 310.3,215.7 311.5,215.0 312.7,214.2 313.9,213.4 315.1,212.6 316.3,211.7 317.4,210.9 318.6,210.1 319.8,209.2 321.0,208.4 322.2,207.5 323.4,206.6 324.6,205.7 325.7,204.8 326.9,203.9 328.1,203.0 329.3,202.1 330.5,201.1 331.7,200.2 332.9,199.3 334.1,198.3 335.2,197.3 336.4,196.3 337.6,195.4 338.8,194.4 340.0,193.4 341.2,192.4 342.4,191.4 343.5,190.3 344.7,189.3 345.9,188.3 347.1,187.3 348.3,186.2 349.5,185.2 350.7,184.1 351.9,183.0 353.0,182.0 354.2,180.9 355.4,179.8 356.6,178.7 357.8,177.7 359.0,176.6 360.2,175.4 361.3,174.3 362.5,173.2 363.7,172.1 364.9,171.0 366.1,169.8 367.3,168.7 368.5,167.5 369.7,166.4 370.8,165.2 372.0,164.1 373.2,162.9 374.4,161.7 375.6,160.6 376.8,159.4 378.0,158.2 379.1,157.1 380.3,155.9 381.5,154.7 382.7,153.5 383.9,152.3 385.1,151.1 386.3,149.9 387.5,148.7 388.6,147.5 389.8,146.3 391.0,145.1 392.2,143.9 393.4,142.6 394.6,141.4 395.8,140.2 396.9,139.0 398.1,137.8 399.3,136.6 400.5,135.3 401.7,134.1 402.9,132.9 404.1,131.7 405.3,130.4 406.4,129.2 407.6,128.0 408.8,126.8 410.0,125.5 411.2,124.3 412.4,123.1 413.6,121.9 414.7,120.7 415.9,119.5 417.1,118.3 418.3,117.1 419.5,115.8 420.7,114.6 421.9,113.4 423.1,112.3 424.2,111.1 425.4,109.9 426.6,108.7 427.8,107.5 429.0,106.4 430.2,105.2 431.4,104.0 432.5,102.9 433.7,101.8 434.9,100.6 436.1,99.5 437.3,98.4 438.5,97.2 439.7,96.1 440.9,95.0 442.0,93.9 443.2,92.9 444.4,91.8 445.6,90.7 446.8,89.7 448.0,88.6 449.2,87.6 450.3,86.6 451.5,85.6 452.7,84.6 453.9,83.6 455.1,82.6 456.3,81.6 457.5,80.7 458.7,79.7 459.8,78.8 461.0,77.9 462.2,77.0 463.4,76.1 464.6,75.2 465.8,74.4 467.0,73.5 468.1,72.7 469.3,71.9 470.5,71.1 471.7,70.3 472.9,69.6 474.1,68.8 475.3,68.1 476.5,67.4 477.6,66.7 478.8,66.0 480.0,65.3 481.2,64.7 482.4,64.1 483.6,63.5 484.8,62.9 485.9,62.3 487.1,61.7 488.3,61.2 489.5,60.7 490.7,60.2 491.9,59.7 493.1,59.3 494.3,58.8 495.4,58.4 496.6,58.0 497.8,57.6 499.0,57.3 500.2,56.9 501.4,56.6 502.6,56.3 503.7,56.0 504.9,55.8 506.1,55.5 507.3,55.3 508.5,55.1 509.7,54.9 510.9,54.7 512.1,54.6 513.2,54.4 514.4,54.3 515.6,54.2 516.8,54.1 518.0,54.1 519.2,54.0 520.4,54.0 521.5,54.0 522.7,54.0 523.9,54.0 525.1,54.1 526.3,54.2 527.5,54.2 528.7,54.3 529.9,54.4 531.0,54.6 532.2,54.7 533.4,54.9 534.6,55.1 535.8,55.3 537.0,55.5 538.2,55.7 539.3,56.0 540.5,56.3 541.7,56.5 542.9,56.8 544.1,57.2 545.3,57.5 546.5,57.9 547.7,58.2 548.8,58.6 550.0,59.0 551.2,59.4 552.4,59.8 553.6,60.2 554.8,60.7 556.0,61.1 557.1,61.6 558.3,62.1 559.5,62.6 560.7,63.1 561.9,63.6 563.1,64.1 564.3,64.7 565.5,65.2 566.6,65.8 567.8,66.4 569.0,66.9 570.2,67.5 571.4,68.1 572.6,68.7 573.8,69.3 574.9,69.9 576.1,70.6 577.3,71.2 578.5,71.8 579.7,72.4 580.9,73.1 582.1,73.7 583.3,74.4 584.4,75.0 585.6,75.7 586.8,76.4 588.0,77.0 589.2,77.7 590.4,78.4 591.6,79.1 592.7,79.7 593.9,80.4 595.1,81.1 596.3,81.9 597.5,82.6 598.7,83.3 599.9,84.0 601.1,84.8 602.2,85.5 603.4,86.3 604.6,87.0 605.8,87.8 607.0,88.5 608.2,89.3 609.4,90.1 610.5,90.8 611.7,91.6 612.9,92.4 614.1,93.1 615.3,93.9 616.5,94.7 617.7,95.4 618.9,96.2 620.0,97.0 621.2,97.7 622.4,98.5 623.6,99.3 624.8,100.1 626.0,100.9 627.2,101.7 628.3,102.5 629.5,103.3 630.7,104.2 631.9,105.0 633.1,105.9 634.3,106.7 635.5,107.6 636.7,108.5 637.8,109.4 639.0,110.4 640.2,111.3 641.4,112.2 642.6,113.2 643.8,114.1 645.0,115.1 646.1,116.1 647.3,117.0 648.5,118.0 649.7,119.0 650.9,120.0 652.1,121.0 653.3,122.0 654.5,123.0 655.6,124.0 656.8,125.0 658.0,126.1 659.2,127.1 660.4,128.2 661.6,129.2 662.8,130.3 663.9,131.3 665.1,132.4 666.3,133.5 667.5,134.6 668.7,135.7 669.9,136.8 671.1,138.0 672.3,139.1 673.4,140.3 674.6,141.4 675.8,142.6 677.0,143.7 678.2,144.9 679.4,146.1 680.6,147.3 681.7,148.5 682.9,149.7 684.1,150.9 685.3,152.1 686.5,153.3 687.7,154.6 688.9,155.8 690.1,157.0 691.2,158.3 692.4,159.5 693.6,160.8 694.8,162.0 696.0,163.3 697.2,164.6 698.4,165.9 699.5,167.1 700.7,168.4 701.9,169.7 703.1,171.0 704.3,172.3 705.5,173.7 706.7,175.0 707.9,176.3 709.0,177.6 710.2,179.0 711.4,180.3 712.6,181.6 713.8,183.0 715.0,184.4 716.2,185.7 717.3,187.1 718.5,188.5 719.7,189.8 720.9,191.2 722.1,192.6 723.3,194.0 724.5,195.4 725.7,196.8 726.8,198.2 728.0,199.7 729.2,201.1 730.4,202.5 731.6,203.9 732.8,205.4 734.0,206.8 735.1,208.3 736.3,209.7 737.5,211.2 738.7,212.6 739.9,214.1 741.1,215.5 742.3,217.0 743.5,218.5 744.6,219.9 745.8,221.4 747.0,222.9 748.2,224.4 749.4,225.9 750.6,227.4 751.8,228.9 752.9,230.4 754.1,231.9 755.3,233.4 756.5,234.9 757.7,236.4 758.9,237.9 760.1,239.4 761.3,241.0 762.4,242.5 763.6,244.0 764.8,245.6 766.0,247.1"/>
<line x1="606" y1="42" x2="628" y2="42" stroke="#0f62fe" stroke-width="2.2"/>
<text x="634" y="46" font-family="Arial" font-size="12">altitude_m</text>
</svg>