<svg xmlns="http://www.w3.org/2000/svg" width="820" height="320" viewBox="0 0 820 320">
<rect width="100%" height="100%" fill="#ffffff"/>
<text x="54" y="28" font-family="Arial" font-size="18" font-weight="700">Velocity X</text>
<line x1="54" y1="266" x2="766" y2="266" stroke="#1f2933"/>
<line x1="54" y1="54" x2="54" y2="266" stroke="#1f2933"/>
<text x="54" y="306" font-family="Arial" font-size="12">time (s)</text>
<text x="596" y="306" font-family="Arial" font-size="12">vx (m/s)</text>
<text x="58" y="68" font-family="Arial" font-size="11">183</text>
<text x="58" y="260" font-family="Arial" font-size="11">-1.91</text>
<polyline fill="none" stroke="#0f62fe" stroke-width="2.2" points="54.0,166.4 55.2,165.8 56.4,165.2 57.6,164.6 58.7,164.0 59.9,163.4 61.1,162.8 62.3,162.1 63.5,161.5 64.7,160.9 65.9,160.2 67.1,159.6 68.2,158.9 69.4,158.2 70.6,157.5 71.8,156.8 73.0,156.1 74.2,155.4 75.4,154.7 76.5,154.1 77.7,153.4 78.9,152.7 80.1,152.0 81.3,151.3 82.5,150.6 83.7,150.0 84.9,149.3 86.0,148.6 87.2,147.9 88.4,147.3 89.6,146.6 90.8,145.9 92.0,145.2 93.2,144.6 94.3,143.9 95.5,143.2 96.7,142.6 97.9,141.9 99.1,141.2 100.3,140.6 101.5,139.9 102.7,139.2 103.8,138.6 105.0,137.9 106.2,137.2 107.4,136.6 108.6,135.9 109.8,135.3 111.0,134.6 112.1,133.9 113.3,133.3 114.5,132.6 115.7,132.0 116.9,131.3 118.1,130.7 119.3,130.0 120.5,129.4 121.6,128.7 122.8,128.1 124.0,127.4 125.2,126.8 126.4,126.1 127.6,125.5 128.8,124.8 129.9,124.2 131.1,123.6 132.3,122.9 133.5,122.3 134.7,121.6 135.9,121.0 137.1,120.4 138.3,119.7 139.4,119.1 140.6,118.5 141.8,117.8 143.0,117.2 144.2,116.6 145.4,115.9 146.6,115.3 147.7,114.7 148.9,114.1 150.1,113.4 151.3,112.8 152.5,112.2 153.7,111.6 154.9,110.9 156.1,110.3 157.2,109.7 158.4,109.1 159.6,108.5 160.8,107.8 162.0,107.2 163.2,106.6 164.4,106.0 165.5,105.4 166.7,104.8 167.9,104.2 169.1,103.6 170.3,103.0 171.5,102.4 172.7,101.8 173.9,101.2 175.0,100.6 176.2,100.0 177.4,99.4 178.6,98.8 179.8,98.2 181.0,97.6 182.2,97.0 183.3,96.4 184.5,95.8 185.7,95.2 186.9,94.7 188.1,94.1 189.3,93.5 190.5,92.9 191.7,92.3 192.8,91.8 194.0,91.2 195.2,90.6 196.4,90.0 197.6,89.5 198.8,88.9 200.0,88.3 201.1,87.8 202.3,87.2 203.5,86.6 204.7,86.1 205.9,85.5 207.1,85.0 208.3,84.4 209.5,83.9 210.6,83.3 211.8,82.8 213.0,82.2 214.2,81.7 215.4,81.1 216.6,80.6 217.8,80.0 218.9,79.5 220.1,78.9 221.3,78.4 222.5,77.9 223.7,77.3 224.9,76.8 226.1,76.3 227.3,75.7 228.4,75.2 229.6,74.7 230.8,74.2 232.0,73.7 233.2,73.1 234.4,72.6 235.6,72.1 236.7,71.6 237.9,71.1 239.1,70.6 240.3,70.1 241.5,69.6 242.7,69.1 243.9,68.6 245.1,68.1 246.2,67.6 247.4,67.1 248.6,66.6 249.8,66.2 251.0,65.7 252.2,65.2 253.4,64.7 254.5,64.3 255.7,63.8 256.9,63.3 258.1,62.8 259.3,62.4 260.5,61.9 261.7,61.5 262.9,61.1 264.0,60.6 265.2,60.2 266.4,59.8 267.6,59.4 268.8,59.0 270.0,58.7 271.2,58.4 272.3,58.0 273.5,57.7 274.7,57.4 275.9,57.1 277.1,56.8 278.3,56.6 279.5,56.3 280.7,56.1 281.8,55.9 283.0,55.7 284.2,55.5 285.4,55.4 286.6,55.3 287.8,55.1 289.0,55.0 290.1,54.9 291.3,54.8 292.5,54.7 293.7,54.7 294.9,54.6 296.1,54.6 297.3,54.4 298.5,54.4 299.6,54.3 300.8,54.2 302.0,54.1 303.2,54.1 304.4,54.0 305.6,54.0 306.8,54.0 307.9,54.0 309.1,54.0 310.3,54.0 311.5,54.0 312.7,54.1 313.9,54.0 315.1,54.1 316.3,54.1 317.4,54.2 318.6,54.3 319.8,54.4 321.0,54.5 322.2,54.6 323.4,54.7 324.6,54.8 325.7,54.9 326.9,55.1 328.1,55.2 329.3,55.4 330.5,55.5 331.7,55.7 332.9,55.8 334.1,56.0 335.2,56.1 336.4,56.4 337.6,56.5 338.8,56.8 340.0,57.0 341.2,57.2 342.4,57.4 343.5,57.7 344.7,57.9 345.9,58.2 347.1,58.4 348.3,58.7 349.5,58.9 350.7,59.2 351.9,59.4 353.0,59.7 354.2,60.0 355.4,60.3 356.6,60.7 357.8,61.1 359.0,61.5 360.2,62.1 361.3,62.6 362.5,63.1 363.7,63.6 364.9,64.1 366.1,64.6 367.3,65.1 368.5,65.5 369.7,65.9 370.8,66.3 372.0,66.8 373.2,67.3 374.4,67.8 375.6,68.3 376.8,68.9 378.0,69.4 379.1,70.0 380.3,70.6 381.5,71.4 382.7,72.0 383.9,72.8 385.1,73.6 386.3,74.4 387.5,75.1 388.6,75.9 389.8,76.6 391.0,77.4 392.2,78.1 393.4,78.9 394.6,79.6 395.8,80.5 396.9,81.3 398.1,82.2 399.3,83.0 400.5,84.0 401.7,84.9 402.9,85.9 404.1,86.9 405.3,88.1 406.4,89.1 407.6,90.3 408.8,91.3 410.0,92.5 411.2,93.5 412.4,94.7 413.6,95.8 414.7,97.0 415.9,98.1 417.1,99.4 418.3,100.5 419.5,101.7 420.7,103.0 421.9,104.3 423.1,105.6 424.2,107.0 425.4,108.3 426.6,109.8 427.8,111.2 429.0,112.7 430.2,114.1 431.4,115.7 432.5,117.2 433.7,118.7 434.9,120.2 436.1,121.7 437.3,123.3 438.5,124.8 439.7,126.4 440.9,128.0 442.0,129.6 443.2,131.2 444.4,132.9 445.6,134.6 446.8,136.3 448.0,138.1 449.2,139.9 450.3,141.7 451.5,143.5 452.7,145.3 453.9,147.2 455.1,149.0 456.3,150.9 457.5,152.7 458.7,154.6 459.8,156.4 461.0,158.3 462.2,160.1 463.4,162.0 464.6,163.8 465.8,165.7 467.0,167.5 468.1,169.4 469.3,171.2 470.5,173.0 471.7,174.8 472.9,176.6 474.1,178.3 475.3,180.0 476.5,181.7 477.6,183.4 478.8,185.0 480.0,186.6 481.2,188.2 482.4,189.7 483.6,191.2 484.8,192.7 485.9,194.1 487.1,195.6 488.3,197.0 489.5,198.3 490.7,199.6 491.9,200.9 493.1,202.2 494.3,203.5 495.4,204.9 496.6,206.2 497.8,207.5 499.0,208.8 500.2,210.1 501.4,211.4 502.6,212.7 503.7,213.9 504.9,215.2 506.1,216.5 507.3,217.7 508.5,219.0 509.7,220.2 510.9,221.5 512.1,222.7 513.2,223.9 514.4,225.1 515.6,226.2 516.8,227.4 518.0,228.5 519.2,229.7 520.4,230.8 521.5,231.8 522.7,232.9 523.9,234.0 525.1,235.0 526.3,236.0 527.5,237.0 528.7,238.0 529.9,238.9 531.0,239.9 532.2,240.8 533.4,241.7 534.6,242.5 535.8,243.4 537.0,244.2 538.2,244.9 539.3,245.7 540.5,246.4 541.7,247.1 542.9,247.8 544.1,248.5 545.3,249.3 546.5,250.0 547.7,250.7 548.8,251.5 550.0,252.3 551.2,253.0 552.4,253.8 553.6,254.6 554.8,255.4 556.0,256.2 557.1,257.0 558.3,257.8 559.5,258.6 560.7,259.5 561.9,260.3 563.1,261.2 564.3,262.0 565.5,262.8 566.6,263.7 567.8,264.5 569.0,265.3 570.2,265.3 571.4,265.3 572.6,265.3 573.8,265.2 574.9,265.2 576.1,265.2 577.3,265.1 578.5,265.1 579.7,265.1 580.9,265.0 582.1,265.0 583.3,265.0 584.4,265.0 585.6,265.0 586.8,264.9 588.0,264.9 589.2,264.9 590.4,264.9 591.6,264.9 592.7,264.8 593.9,264.8 595.1,264.8 596.3,264.7 597.5,264.6 598.7,264.5 599.9,264.4 601.1,264.2 602.2,264.0 603.4,263.8 604.6,263.6 605.8,263.3 607.0,262.9 608.2,262.5 609.4,262.3 610.5,262.4 611.7,262.6 612.9,263.0 614.1,263.3 615.3,263.5 616.5,263.7 617.7,263.9 618.9,264.0 620.0,264.2 621.2,264.4 622.4,264.6 623.6,264.9 624.8,265.3 626.0,265.7 627.2,265.9 628.3,266.0 629.5,265.9 630.7,265.7 631.9,265.4 633.1,265.0 634.3,264.7 635.5,264.4 636.7,264.0 637.8,263.7 639.0,263.4 640.2,263.2 641.4,262.8 642.6,262.5 643.8,262.2 645.0,261.8 646.1,261.5 647.3,261.2 648.5,260.9 649.7,260.8 650.9,260.8 652.1,260.8 653.3,260.9 654.5,261.0 655.6,261.1 656.8,261.2 658.0,261.3 659.2,261.3 660.4,261.2 661.6,260.9 662.8,260.7 663.9,260.4 665.1,260.1 666.3,259.8 667.5,259.5 668.7,259.2 669.9,259.0 671.1,258.8 672.3,258.5 673.4,258.3 674.6,258.2 675.8,258.0 677.0,257.9 678.2,257.7 679.4,257.6 680.6,257.5 681.7,257.3 682.9,257.2 684.1,257.1 685.3,257.0 686.5,256.9 687.7,256.8 688.9,256.7 690.1,256.6 691.2,256.5 692.4,256.4 693.6,256.3 694.8,256.2 696.0,256.2 697.2,256.1 698.4,256.0 699.5,256.0 700.7,255.9 701.9,255.9 703.1,255.8 704.3,255.8 705.5,255.8 706.7,255.8 707.9,255.7 709.0,255.7 710.2,255.7 711.4,255.7 712.6,255.7 713.8,255.8 715.0,255.8 716.2,255.8 717.3,255.8 718.5,255.9 719.7,255.9 720.9,256.0 722.1,256.0 723.3,256.1 724.5,256.2 725.7,256.2 726.8,256.3 728.0,256.4 729.2,256.5 730.4,256.6 731.6,256.7 732.8,256.8 734.0,256.9 735.1,257.0 736.3,257.1 737.5,257.1 738.7,257.2 739.9,257.3 741.1,257.4 742.3,257.5 743.5,257.5 744.6,257.6 745.8,257.7 747.0,257.7 748.2,257.8 749.4,257.8 750.6,257.8 751.8,257.9 752.9,257.9 754.1,257.9 755.3,257.9 756.5,258.0 757.7,258.0 758.9,258.0 760.1,258.0 761.3,258.0 762.4,258.0 763.6,258.1 764.8,258.1 766.0,258.1"/>
<line x1="606" y1="42" x2="628" y2="42" stroke="#0f62fe" stroke-width="2.2"/>
<text x="634" y="46" font-family="Arial" font-size="12">vx_mps</text>
</svg>