<svg xmlns="http://www.w3.org/2000/svg" width="820" height="320" viewBox="0 0 820 320">
<rect width="100%" height="100%" fill="#ffffff"/>
<text x="54" y="28" font-family="Arial" font-size="18" font-weight="700">Velocity Y</text>
<line x1="54" y1="266" x2="766" y2="266" stroke="#1f2933"/>
<line x1="54" y1="54" x2="54" y2="266" stroke="#1f2933"/>
<text x="54" y="306" font-family="Arial" font-size="12">time (s)</text>
<text x="596" y="306" font-family="Arial" font-size="12">vy (m/s)</text>
<text x="58" y="68" font-family="Arial" font-size="11">0.00156</text>
<text x="58" y="260" font-family="Arial" font-size="11">-152</text>
<polyline fill="none" stroke="#0f62fe" stroke-width="2.2" points="54.0,54.0 55.2,54.0 56.4,54.0 57.6,54.0 58.7,54.0 59.9,54.0 61.1,54.0 62.3,54.0 63.5,54.0 64.7,54.0 65.9,54.0 67.1,54.0 68.2,54.0 69.4,54.0 70.6,54.0 71.8,54.0 73.0,54.0 74.2,54.0 75.4,54.0 76.5,54.0 77.7,54.0 78.9,54.0 80.1,54.0 81.3,54.0 82.5,54.0 83.7,54.0 84.9,54.0 86.0,54.0 87.2,54.0 88.4,54.0 89.6,54.0 90.8,54.0 92.0,54.0 93.2,54.0 94.3,54.0 95.5,54.0 96.7,54.0 97.9,54.0 99.1,54.0 100.3,54.0 101.5,54.0 102.7,54.0 103.8,54.0 105.0,54.1 106.2,54.1 107.4,54.1 108.6,54.1 109.8,54.1 111.0,54.1 112.1,54.1 113.3,54.1 114.5,54.1 115.7,54.1 116.9,54.1 118.1,54.1 119.3,54.1 120.5,54.1 121.6,54.1 122.8,54.1 124.0,54.1 125.2,54.1 126.4,54.1 127.6,54.1 128.8,54.1 129.9,54.1 131.1,54.1 132.3,54.2 133.5,54.2 134.7,54.2 135.9,54.2 137.1,54.2 138.3,54.2 139.4,54.2 140.6,54.2 141.8,54.2 143.0,54.2 144.2,54.2 145.4,54.2 146.6,54.2 147.7,54.2 148.9,54.3 150.1,54.3 151.3,54.3 152.5,54.3 153.7,54.3 154.9,54.3 156.1,54.3 157.2,54.3 158.4,54.3 159.6,54.3 160.8,54.4 162.0,54.4 163.2,54.4 164.4,54.4 165.5,54.4 166.7,54.4 167.9,54.4 169.1,54.4 170.3,54.5 171.5,54.5 172.7,54.5 173.9,54.5 175.0,54.5 176.2,54.5 177.4,54.6 178.6,54.6 179.8,54.6 181.0,54.6 182.2,54.6 183.3,54.7 184.5,54.7 185.7,54.7 186.9,54.7 188.1,54.8 189.3,54.8 190.5,54.8 191.7,54.8 192.8,54.9 194.0,54.9 195.2,54.9 196.4,55.0 197.6,55.0 198.8,55.0 200.0,55.1 201.1,55.1 202.3,55.2 203.5,55.2 204.7,55.2 205.9,55.3 207.1,55.3 208.3,55.4 209.5,55.4 210.6,55.5 211.8,55.6 213.0,55.6 214.2,55.7 215.4,55.7 216.6,55.8 217.8,55.9 218.9,56.0 220.1,56.0 221.3,56.1 222.5,56.2 223.7,56.3 224.9,56.4 226.1,56.5 227.3,56.6 228.4,56.7 229.6,56.8 230.8,57.0 232.0,57.1 233.2,57.2 234.4,57.4 235.6,57.5 236.7,57.7 237.9,57.9 239.1,58.0 240.3,58.2 241.5,58.4 242.7,58.6 243.9,58.9 245.1,59.1 246.2,59.3 247.4,59.6 248.6,59.9 249.8,60.2 251.0,60.5 252.2,60.8 253.4,61.1 254.5,61.4 255.7,61.8 256.9,62.2 258.1,62.6 259.3,63.0 260.5,63.4 261.7,63.9 262.9,64.3 264.0,64.8 265.2,65.3 266.4,65.9 267.6,66.4 268.8,67.1 270.0,67.7 271.2,68.4 272.3,69.1 273.5,69.8 274.7,70.5 275.9,71.3 277.1,72.1 278.3,72.9 279.5,73.7 280.7,74.6 281.8,75.5 283.0,76.4 284.2,77.3 285.4,78.3 286.6,79.3 287.8,80.3 289.0,81.3 290.1,82.3 291.3,83.4 292.5,84.5 293.7,85.6 294.9,86.6 296.1,87.7 297.3,88.7 298.5,89.8 299.6,90.8 300.8,91.8 302.0,92.9 303.2,94.0 304.4,95.0 305.6,96.2 306.8,97.2 307.9,98.4 309.1,99.5 310.3,100.6 311.5,101.8 312.7,102.9 313.9,104.1 315.1,105.3 316.3,106.5 317.4,107.7 318.6,108.9 319.8,110.2 321.0,111.3 322.2,112.6 323.4,113.8 324.6,115.1 325.7,116.3 326.9,117.5 328.1,118.7 329.3,120.0 330.5,121.2 331.7,122.5 332.9,123.7 334.1,125.1 335.2,126.3 336.4,127.7 337.6,128.9 338.8,130.3 340.0,131.6 341.2,132.9 342.4,134.2 343.5,135.6 344.7,136.8 345.9,138.2 347.1,139.5 348.3,140.8 349.5,142.1 350.7,143.5 351.9,144.7 353.0,146.1 354.2,147.4 355.4,148.8 356.6,150.2 357.8,151.6 359.0,153.1 360.2,154.6 361.3,156.1 362.5,157.6 363.7,159.1 364.9,160.6 366.1,162.0 367.3,163.5 368.5,164.8 369.7,166.3 370.8,167.6 372.0,169.1 373.2,170.4 374.4,171.9 375.6,173.3 376.8,174.8 378.0,176.2 379.1,177.8 380.3,179.2 381.5,180.8 382.7,182.3 383.9,183.9 385.1,185.4 386.3,187.0 387.5,188.5 388.6,190.0 389.8,191.5 391.0,193.0 392.2,194.5 393.4,196.0 394.6,197.4 395.8,199.0 396.9,200.5 398.1,202.0 399.3,203.5 400.5,205.0 401.7,206.5 402.9,208.0 404.1,209.5 405.3,211.0 406.4,212.4 407.6,213.9 408.8,215.3 410.0,216.8 411.2,218.2 412.4,219.6 413.6,221.1 414.7,222.5 415.9,223.9 417.1,225.3 418.3,226.6 419.5,228.0 420.7,229.3 421.9,230.7 423.1,232.0 424.2,233.3 425.4,234.5 426.6,235.8 427.8,237.0 429.0,238.2 430.2,239.4 431.4,240.6 432.5,241.7 433.7,242.9 434.9,244.0 436.1,245.1 437.3,246.2 438.5,247.3 439.7,248.3 440.9,249.4 442.0,250.4 443.2,251.3 444.4,252.3 445.6,253.2 446.8,254.0 448.0,254.9 449.2,255.7 450.3,256.5 451.5,257.2 452.7,257.9 453.9,258.6 455.1,259.3 456.3,259.9 457.5,260.5 458.7,261.1 459.8,261.7 461.0,262.2 462.2,262.7 463.4,263.2 464.6,263.6 465.8,264.0 467.0,264.4 468.1,264.7 469.3,264.9 470.5,265.2 471.7,265.4 472.9,265.6 474.1,265.7 475.3,265.8 476.5,265.9 477.6,266.0 478.8,266.0 480.0,266.0 481.2,265.9 482.4,265.9 483.6,265.8 484.8,265.6 485.9,265.5 487.1,265.3 488.3,265.1 489.5,264.8 490.7,264.5 491.9,264.1 493.1,263.8 494.3,263.4 495.4,262.9 496.6,262.5 497.8,261.9 499.0,261.4 500.2,260.8 501.4,260.2 502.6,259.6 503.7,258.9 504.9,258.2 506.1,257.5 507.3,256.7 508.5,255.9 509.7,255.1 510.9,254.3 512.1,253.4 513.2,252.5 514.4,251.6 515.6,250.6 516.8,249.6 518.0,248.6 519.2,247.6 520.4,246.5 521.5,245.5 522.7,244.4 523.9,243.3 525.1,242.1 526.3,241.0 527.5,239.8 528.7,238.6 529.9,237.4 531.0,236.1 532.2,234.9 533.4,233.6 534.6,232.3 535.8,231.0 537.0,229.7 538.2,228.4 539.3,227.0 540.5,225.7 541.7,224.3 542.9,222.9 544.1,221.6 545.3,220.3 546.5,219.0 547.7,217.7 548.8,216.5 550.0,215.3 551.2,214.1 552.4,213.0 553.6,211.9 554.8,210.8 556.0,209.8 557.1,208.8 558.3,207.8 559.5,206.8 560.7,205.9 561.9,205.1 563.1,204.2 564.3,203.4 565.5,202.6 566.6,201.8 567.8,200.9 569.0,200.1 570.2,199.2 571.4,198.3 572.6,197.5 573.8,196.6 574.9,195.8 576.1,195.0 577.3,194.1 578.5,193.3 579.7,192.5 580.9,191.7 582.1,190.9 583.3,190.1 584.4,189.4 585.6,188.6 586.8,187.8 588.0,187.0 589.2,186.2 590.4,185.4 591.6,184.7 592.7,183.9 593.9,183.2 595.1,182.4 596.3,181.7 597.5,180.9 598.7,180.2 599.9,179.4 601.1,178.8 602.2,178.2 603.4,177.6 604.6,177.1 605.8,176.6 607.0,176.1 608.2,175.7 609.4,175.5 610.5,175.3 611.7,175.1 612.9,174.7 614.1,174.2 615.3,173.8 616.5,173.3 617.7,172.9 618.9,172.4 620.0,172.0 621.2,171.6 622.4,171.3 623.6,171.0 624.8,170.7 626.0,170.4 627.2,170.2 628.3,170.1 629.5,170.0 630.7,169.8 631.9,169.4 633.1,169.0 634.3,168.5 635.5,168.0 636.7,167.5 637.8,167.0 639.0,166.5 640.2,166.0 641.4,165.5 642.6,165.1 643.8,164.7 645.0,164.3 646.1,164.0 647.3,163.8 648.5,163.6 649.7,163.6 650.9,163.5 652.1,163.5 653.3,163.5 654.5,163.4 655.6,163.4 656.8,163.4 658.0,163.3 659.2,163.3 660.4,163.2 661.6,163.1 662.8,162.8 663.9,162.6 665.1,162.2 666.3,161.8 667.5,161.4 668.7,160.9 669.9,160.5 671.1,160.1 672.3,159.6 673.4,159.2 674.6,158.8 675.8,158.3 677.0,157.9 678.2,157.5 679.4,157.0 680.6,156.6 681.7,156.2 682.9,155.7 684.1,155.3 685.3,154.8 686.5,154.4 687.7,153.9 688.9,153.5 690.1,153.0 691.2,152.6 692.4,152.1 693.6,151.7 694.8,151.2 696.0,150.8 697.2,150.3 698.4,149.8 699.5,149.4 700.7,148.9 701.9,148.5 703.1,148.0 704.3,147.6 705.5,147.1 706.7,146.7 707.9,146.2 709.0,145.8 710.2,145.3 711.4,144.9 712.6,144.5 713.8,144.0 715.0,143.6 716.2,143.2 717.3,142.7 718.5,142.3 719.7,141.9 720.9,141.5 722.1,141.1 723.3,140.7 724.5,140.3 725.7,140.0 726.8,139.6 728.0,139.2 729.2,138.9 730.4,138.5 731.6,138.2 732.8,137.8 734.0,137.5 735.1,137.2 736.3,136.8 737.5,136.5 738.7,136.2 739.9,135.9 741.1,135.5 742.3,135.2 743.5,134.9 744.6,134.6 745.8,134.2 747.0,133.9 748.2,133.6 749.4,133.2 750.6,132.9 751.8,132.6 752.9,132.3 754.1,131.9 755.3,131.6 756.5,131.3 757.7,131.0 758.9,130.6 760.1,130.3 761.3,130.0 762.4,129.7 763.6,129.4 764.8,129.1 766.0,128.8"/>
<line x1="606" y1="42" x2="628" y2="42" stroke="#0f62fe" stroke-width="2.2"/>
<text x="634" y="46" font-family="Arial" font-size="12">vy_mps</text>
</svg>