<svg xmlns="http://www.w3.org/2000/svg" width="820" height="320" viewBox="0 0 820 320">
<rect width="100%" height="100%" fill="#ffffff"/>
<text x="54" y="28" font-family="Arial" font-size="18" font-weight="700">Alpha/Beta</text>
<line x1="54" y1="266" x2="766" y2="266" stroke="#1f2933"/>
<line x1="54" y1="54" x2="54" y2="266" stroke="#1f2933"/>
<text x="54" y="306" font-family="Arial" font-size="12">time (s)</text>
<text x="596" y="306" font-family="Arial" font-size="12">angle (deg)</text>
<text x="58" y="68" font-family="Arial" font-size="11">35</text>
<text x="58" y="260" font-family="Arial" font-size="11">-35</text>
<polyline fill="none" stroke="#0f62fe" stroke-width="2.2" points="54.0,158.0 55.2,156.6 56.4,155.2 57.6,154.1 58.7,153.3 59.9,152.6 61.1,151.9 62.3,151.2 63.5,150.7 64.7,150.2 65.9,149.7 67.1,149.3 68.2,148.9 69.4,148.6 70.6,148.3 71.8,148.0 73.0,147.8 74.2,147.5 75.4,147.3 76.5,147.2 77.7,147.0 78.9,146.8 80.1,146.7 81.3,146.6 82.5,146.5 83.7,146.4 84.9,146.3 86.0,146.2 87.2,146.1 88.4,146.0 89.6,145.9 90.8,145.9 92.0,145.8 93.2,145.8 94.3,145.7 95.5,145.7 96.7,145.6 97.9,145.6 99.1,145.6 100.3,145.6 101.5,145.5 102.7,145.5 103.8,145.5 105.0,145.5 106.2,145.4 107.4,145.4 108.6,145.4 109.8,145.4 111.0,145.4 112.1,145.4 113.3,145.4 114.5,145.4 115.7,145.4 116.9,145.4 118.1,145.4 119.3,145.4 120.5,145.4 121.6,145.4 122.8,145.4 124.0,145.4 125.2,145.4 126.4,145.4 127.6,145.4 128.8,145.4 129.9,145.4 131.1,145.4 132.3,145.5 133.5,145.5 134.7,145.5 135.9,145.5 137.1,145.5 138.3,145.5 139.4,145.6 140.6,145.6 141.8,145.6 143.0,145.6 144.2,145.6 145.4,145.7 146.6,145.7 147.7,145.7 148.9,145.7 150.1,145.8 151.3,145.8 152.5,145.8 153.7,145.8 154.9,145.8 156.1,145.8 157.2,145.8 158.4,145.8 159.6,145.8 160.8,145.8 162.0,145.8 163.2,145.8 164.4,145.8 165.5,145.8 166.7,145.8 167.9,145.8 169.1,145.8 170.3,145.8 171.5,145.8 172.7,145.7 173.9,145.7 175.0,145.7 176.2,145.7 177.4,145.7 178.6,145.7 179.8,145.7 181.0,145.7 182.2,145.7 183.3,145.7 184.5,145.7 185.7,145.8 186.9,145.8 188.1,145.8 189.3,145.8 190.5,145.8 191.7,145.8 192.8,145.8 194.0,145.8 195.2,145.8 196.4,145.8 197.6,145.9 198.8,145.9 200.0,145.9 201.1,145.9 202.3,146.0 203.5,145.9 204.7,146.1 205.9,145.8 207.1,146.5 208.3,145.2 209.5,146.1 210.6,145.1 211.8,146.3 213.0,145.4 214.2,146.7 215.4,145.6 216.6,146.7 217.8,145.5 218.9,146.6 220.1,145.4 221.3,146.5 222.5,145.3 223.7,146.6 224.9,145.4 226.1,146.7 227.3,145.5 228.4,146.7 229.6,145.5 230.8,146.7 232.0,145.4 233.2,146.7 234.4,145.4 235.6,146.7 236.7,145.5 237.9,146.7 239.1,145.5 240.3,146.7 241.5,145.4 242.7,146.7 243.9,145.4 245.1,146.8 246.2,145.5 247.4,146.8 248.6,145.5 249.8,146.8 251.0,145.4 252.2,146.8 253.4,145.4 254.5,146.8 255.7,145.4 256.9,146.9 258.1,145.4 259.3,146.9 260.5,145.4 261.7,146.7 262.9,144.9 264.0,146.2 265.2,144.7 266.4,145.3 267.6,142.9 268.8,143.6 270.0,141.9 271.2,143.3 272.3,142.2 273.5,141.9 274.7,140.4 275.9,142.0 277.1,141.2 278.3,140.1 279.5,141.1 280.7,138.9 281.8,139.6 283.0,137.4 284.2,138.3 285.4,136.9 286.6,138.6 287.8,137.5 289.0,138.2 290.1,135.9 291.3,136.4 292.5,135.7 293.7,138.0 294.9,137.2 296.1,139.0 297.3,137.7 298.5,139.0 299.6,137.1 300.8,138.2 302.0,136.3 303.2,137.4 304.4,135.8 305.6,137.2 306.8,135.9 307.9,137.6 309.1,136.3 310.3,138.1 311.5,136.7 312.7,138.0 313.9,136.3 315.1,137.6 316.3,135.8 317.4,137.2 318.6,135.4 319.8,136.8 321.0,135.1 322.2,136.5 323.4,134.9 324.6,136.4 325.7,135.0 326.9,136.6 328.1,135.1 329.3,136.7 330.5,135.3 331.7,136.9 332.9,135.4 334.1,137.0 335.2,135.5 336.4,137.0 337.6,135.4 338.8,136.9 340.0,135.3 341.2,136.8 342.4,135.3 343.5,136.8 344.7,135.3 345.9,136.8 347.1,135.3 348.3,136.8 349.5,135.2 350.7,136.8 351.9,135.2 353.0,136.7 354.2,135.1 355.4,135.6 356.6,133.0 357.8,133.6 359.0,131.4 360.2,132.3 361.3,131.2 362.5,133.3 363.7,132.2 364.9,134.2 366.1,133.2 367.3,135.2 368.5,134.0 369.7,135.6 370.8,134.0 372.0,135.2 373.2,133.3 374.4,134.5 375.6,132.7 376.8,134.0 378.0,132.1 379.1,132.9 380.3,130.6 381.5,131.5 382.7,129.3 383.9,130.2 385.1,129.2 386.3,131.2 387.5,130.2 388.6,132.0 389.8,130.7 391.0,132.0 392.2,130.3 393.4,131.6 394.6,129.7 395.8,131.0 396.9,129.2 398.1,130.3 399.3,128.3 400.5,129.1 401.7,126.7 402.9,127.5 404.1,125.2 405.3,126.0 406.4,124.7 407.6,126.4 408.8,125.1 410.0,126.5 411.2,124.7 412.4,126.1 413.6,124.4 414.7,125.8 415.9,124.1 417.1,125.4 418.3,123.6 419.5,123.9 420.7,121.8 421.9,122.7 423.1,120.5 424.2,121.0 425.4,118.8 426.6,119.6 427.8,117.8 429.0,118.9 430.2,117.0 431.4,118.1 432.5,116.9 433.7,117.7 434.9,116.6 436.1,117.1 437.3,116.1 438.5,116.1 439.7,115.1 440.9,114.6 442.0,113.6 443.2,112.8 444.4,111.8 445.6,110.9 446.8,110.0 448.0,109.1 449.2,108.3 450.3,107.6 451.5,107.0 452.7,106.6 453.9,106.1 455.1,105.8 456.3,105.4 457.5,105.1 458.7,104.6 459.8,104.2 461.0,103.6 462.2,102.9 463.4,102.1 464.6,101.2 465.8,100.1 467.0,99.0 468.1,97.8 469.3,96.2 470.5,94.6 471.7,92.8 472.9,91.0 474.1,89.1 475.3,87.2 476.5,85.2 477.6,83.2 478.8,81.1 480.0,79.0 481.2,76.7 482.4,74.3 483.6,71.8 484.8,69.0 485.9,66.0 487.1,62.7 488.3,59.2 489.5,55.3 490.7,54.0 491.9,54.0 493.1,54.0 494.3,54.0 495.4,54.0 496.6,54.0 497.8,54.0 499.0,54.0 500.2,54.0 501.4,54.0 502.6,54.0 503.7,54.0 504.9,54.0 506.1,54.0 507.3,54.0 508.5,54.0 509.7,54.0 510.9,54.0 512.1,54.0 513.2,54.0 514.4,54.0 515.6,54.0 516.8,54.0 518.0,54.0 519.2,54.0 520.4,54.0 521.5,54.0 522.7,54.0 523.9,54.0 525.1,54.0 526.3,54.0 527.5,54.0 528.7,54.0 529.9,54.0 531.0,54.0 532.2,54.0 533.4,54.0 534.6,54.0 535.8,54.0 537.0,54.0 538.2,54.0 539.3,54.0 540.5,54.0 541.7,54.0 542.9,54.0 544.1,54.0 545.3,54.0 546.5,54.0 547.7,54.0 548.8,54.0 550.0,54.0 551.2,54.0 552.4,54.0 553.6,54.0 554.8,54.0 556.0,54.0 557.1,54.0 558.3,54.0 559.5,54.0 560.7,54.0 561.9,54.0 563.1,54.0 564.3,54.0 565.5,54.0 566.6,54.0 567.8,54.0 569.0,54.0 570.2,54.0 571.4,54.0 572.6,54.0 573.8,54.0 574.9,54.0 576.1,54.0 577.3,54.0 578.5,54.0 579.7,54.0 580.9,54.0 582.1,54.0 583.3,54.0 584.4,54.0 585.6,54.0 586.8,54.0 588.0,54.0 589.2,54.0 590.4,54.0 591.6,54.0 592.7,54.0 593.9,54.0 595.1,54.0 596.3,54.0 597.5,54.0 598.7,54.0 599.9,54.0 601.1,54.0 602.2,54.0 603.4,54.0 604.6,61.9 605.8,82.9 607.0,107.3 608.2,134.1 609.4,160.7 610.5,185.9 611.7,209.1 612.9,229.3 614.1,245.7 615.3,257.6 616.5,264.8 617.7,266.0 618.9,265.8 620.0,260.5 621.2,252.1 622.4,240.7 623.6,226.5 624.8,209.6 626.0,190.0 627.2,168.7 628.3,149.3 629.5,133.2 630.7,120.2 631.9,110.4 633.1,103.7 634.3,99.1 635.5,95.5 636.7,92.0 637.8,88.4 639.0,85.7 640.2,84.9 641.4,86.5 642.6,90.9 643.8,98.1 645.0,108.1 646.1,119.8 647.3,132.1 648.5,144.3 649.7,155.3 650.9,164.1 652.1,170.1 653.3,173.3 654.5,173.4 655.6,170.5 656.8,164.6 658.0,156.0 659.2,145.4 660.4,134.4 661.6,124.3 662.8,115.8 663.9,108.6 665.1,102.5 666.3,97.3 667.5,92.5 668.7,87.9 669.9,83.3 671.1,78.6 672.3,73.8 673.4,69.0 674.6,64.1 675.8,59.3 677.0,54.7 678.2,54.0 679.4,54.0 680.6,54.0 681.7,54.0 682.9,54.0 684.1,54.0 685.3,54.0 686.5,54.0 687.7,54.0 688.9,54.0 690.1,54.0 691.2,54.0 692.4,54.0 693.6,54.0 694.8,54.0 696.0,54.0 697.2,54.0 698.4,54.0 699.5,54.0 700.7,54.0 701.9,54.0 703.1,54.0 704.3,54.0 705.5,54.0 706.7,54.0 707.9,54.0 709.0,54.0 710.2,54.0 711.4,54.0 712.6,54.0 713.8,54.0 715.0,54.0 716.2,54.0 717.3,54.0 718.5,54.0 719.7,54.0 720.9,54.0 722.1,54.0 723.3,54.0 724.5,54.0 725.7,54.0 726.8,54.0 728.0,54.0 729.2,54.0 730.4,54.0 731.6,54.0 732.8,54.0 734.0,54.0 735.1,54.0 736.3,54.0 737.5,54.0 738.7,54.0 739.9,54.0 741.1,54.0 742.3,54.0 743.5,54.0 744.6,54.0 745.8,54.0 747.0,54.0 748.2,54.0 749.4,54.0 750.6,54.0 751.8,54.0 752.9,54.0 754.1,54.0 755.3,54.0 756.5,54.0 757.7,54.0 758.9,54.0 760.1,54.0 761.3,54.0 762.4,54.0 763.6,54.0 764.8,54.0 766.0,54.0"/>
<line x1="606" y1="42" x2="628" y2="42" stroke="#0f62fe" stroke-width="2.2"/>
<text x="634" y="46" font-family="Arial" font-size="12">alpha_deg</text>
<polyline fill="none" stroke="#24a148" stroke-width="2.2" points="54.0,160.2 55.2,160.2 56.4,160.2 57.6,160.2 58.7,160.2 59.9,160.2 61.1,160.2 62.3,160.2 63.5,160.2 64.7,160.2 65.9,160.2 67.1,160.1 68.2,160.1 69.4,160.1 70.6,160.1 71.8,160.1 73.0,160.1 74.2,160.1 75.4,160.1 76.5,160.1 77.7,160.0 78.9,160.0 80.1,160.0 81.3,160.0 82.5,160.0 83.7,160.0 84.9,159.9 86.0,159.9 87.2,159.9 88.4,159.9 89.6,159.9 90.8,159.9 92.0,159.9 93.2,159.9 94.3,159.9 95.5,159.9 96.7,159.9 97.9,159.9 99.1,159.9 100.3,159.9 101.5,159.8 102.7,159.8 103.8,159.8 105.0,159.8 106.2,159.8 107.4,159.8 108.6,159.8 109.8,159.8 111.0,159.8 112.1,159.8 113.3,159.8 114.5,159.7 115.7,159.7 116.9,159.7 118.1,159.7 119.3,159.7 120.5,159.7 121.6,159.7 122.8,159.7 124.0,159.7 125.2,159.7 126.4,159.6 127.6,159.6 128.8,159.6 129.9,159.6 131.1,159.6 132.3,159.6 133.5,159.6 134.7,159.6 135.9,159.6 137.1,159.5 138.3,159.5 139.4,159.5 140.6,159.5 141.8,159.5 143.0,159.5 144.2,159.5 145.4,159.4 146.6,159.4 147.7,159.4 148.9,159.4 150.1,159.4 151.3,159.4 152.5,159.4 153.7,159.3 154.9,159.3 156.1,159.3 157.2,159.3 158.4,159.3 159.6,159.3 160.8,159.2 162.0,159.2 163.2,159.2 164.4,159.2 165.5,159.2 166.7,159.1 167.9,159.1 169.1,159.1 170.3,159.0 171.5,159.0 172.7,159.0 173.9,159.0 175.0,158.9 176.2,158.9 177.4,158.9 178.6,158.8 179.8,158.8 181.0,158.7 182.2,158.7 183.3,158.7 184.5,158.6 185.7,158.6 186.9,158.5 188.1,158.5 189.3,158.4 190.5,158.3 191.7,158.3 192.8,158.2 194.0,158.2 195.2,158.1 196.4,158.0 197.6,158.0 198.8,157.9 200.0,157.8 201.1,157.7 202.3,157.6 203.5,157.5 204.7,157.4 205.9,157.3 207.1,157.2 208.3,157.1 209.5,157.0 210.6,156.9 211.8,156.7 213.0,156.6 214.2,156.5 215.4,156.3 216.6,156.2 217.8,156.0 218.9,155.8 220.1,155.7 221.3,155.5 222.5,155.3 223.7,155.1 224.9,154.8 226.1,154.6 227.3,154.4 228.4,154.1 229.6,153.8 230.8,153.5 232.0,153.2 233.2,152.9 234.4,152.6 235.6,152.2 236.7,151.9 237.9,151.5 239.1,151.1 240.3,150.6 241.5,150.2 242.7,149.7 243.9,149.2 245.1,148.6 246.2,148.0 247.4,147.4 248.6,146.7 249.8,146.0 251.0,145.2 252.2,144.4 253.4,143.5 254.5,142.6 255.7,141.6 256.9,140.6 258.1,139.5 259.3,138.3 260.5,137.1 261.7,135.8 262.9,134.5 264.0,133.0 265.2,131.4 266.4,129.9 267.6,128.5 268.8,127.1 270.0,125.8 271.2,124.5 272.3,123.3 273.5,122.1 274.7,120.9 275.9,119.8 277.1,118.7 278.3,117.7 279.5,116.7 280.7,115.7 281.8,114.8 283.0,113.9 284.2,113.1 285.4,112.3 286.6,111.5 287.8,110.8 289.0,110.2 290.1,109.8 291.3,109.7 292.5,109.8 293.7,110.2 294.9,110.7 296.1,111.3 297.3,112.0 298.5,112.7 299.6,113.3 300.8,113.8 302.0,114.2 303.2,114.3 304.4,114.1 305.6,113.8 306.8,113.3 307.9,112.7 309.1,112.0 310.3,111.4 311.5,110.8 312.7,110.3 313.9,110.1 315.1,110.0 316.3,110.2 317.4,110.6 318.6,111.1 319.8,111.7 321.0,112.3 322.2,112.9 323.4,113.5 324.6,113.8 325.7,114.0 326.9,114.0 328.1,113.7 329.3,113.3 330.5,112.8 331.7,112.2 332.9,111.6 334.1,111.1 335.2,110.6 336.4,110.4 337.6,110.3 338.8,110.4 340.0,110.7 341.2,111.1 342.4,111.6 343.5,112.2 344.7,112.8 345.9,113.2 347.1,113.6 348.3,113.7 349.5,113.7 350.7,113.6 351.9,113.2 353.0,112.7 354.2,112.2 355.4,111.7 356.6,111.2 357.8,110.8 359.0,110.6 360.2,110.6 361.3,110.7 362.5,111.0 363.7,111.3 364.9,111.8 366.1,112.3 367.3,112.7 368.5,113.1 369.7,113.3 370.8,113.4 372.0,113.4 373.2,113.2 374.4,112.9 375.6,112.5 376.8,112.1 378.0,111.7 379.1,111.3 380.3,111.0 381.5,110.9 382.7,110.9 383.9,111.0 385.1,111.3 386.3,111.6 387.5,112.0 388.6,112.4 389.8,112.7 391.0,113.0 392.2,113.2 393.4,113.2 394.6,113.1 395.8,113.0 396.9,112.7 398.1,112.4 399.3,112.0 400.5,111.7 401.7,111.4 402.9,111.2 404.1,111.1 405.3,111.1 406.4,111.3 407.6,111.5 408.8,111.8 410.0,112.1 411.2,112.4 412.4,112.7 413.6,112.9 414.7,113.0 415.9,113.0 417.1,112.9 418.3,112.8 419.5,112.5 420.7,112.3 421.9,112.0 423.1,111.7 424.2,111.5 425.4,111.4 426.6,111.3 427.8,111.4 429.0,111.5 430.2,111.7 431.4,111.9 432.5,112.1 433.7,112.4 434.9,112.6 436.1,112.8 437.3,112.9 438.5,112.9 439.7,112.8 440.9,112.7 442.0,112.5 443.2,112.3 444.4,112.1 445.6,111.9 446.8,111.7 448.0,111.6 449.2,111.5 450.3,111.5 451.5,111.6 452.7,111.7 453.9,111.8 455.1,112.0 456.3,112.2 457.5,112.4 458.7,112.6 459.8,112.7 461.0,112.8 462.2,112.8 463.4,112.8 464.6,112.7 465.8,112.6 467.0,112.4 468.1,112.3 469.3,112.1 470.5,112.0 471.7,111.9 472.9,111.8 474.1,111.8 475.3,111.8 476.5,111.9 477.6,112.0 478.8,112.2 480.0,112.3 481.2,112.5 482.4,112.7 483.6,112.8 484.8,113.0 485.9,113.1 487.1,113.2 488.3,113.2 489.5,113.2 490.7,113.3 491.9,113.2 493.1,113.3 494.3,113.3 495.4,113.4 496.6,113.6 497.8,113.8 499.0,114.1 500.2,114.4 501.4,114.7 502.6,115.1 503.7,115.5 504.9,115.9 506.1,116.4 507.3,117.0 508.5,117.6 509.7,118.2 510.9,118.9 512.1,119.7 513.2,120.5 514.4,121.3 515.6,122.2 516.8,123.1 518.0,124.2 519.2,125.2 520.4,126.3 521.5,127.5 522.7,128.8 523.9,130.1 525.1,131.5 526.3,133.0 527.5,134.5 528.7,136.1 529.9,137.8 531.0,139.6 532.2,141.4 533.4,143.4 534.6,145.4 535.8,147.6 537.0,149.7 538.2,151.9 539.3,154.0 540.5,155.9 541.7,157.6 542.9,159.1 544.1,160.4 545.3,161.7 546.5,163.0 547.7,164.4 548.8,166.0 550.0,167.7 551.2,169.5 552.4,171.4 553.6,173.3 554.8,175.4 556.0,177.6 557.1,179.8 558.3,182.2 559.5,184.6 560.7,187.0 561.9,189.4 563.1,191.6 564.3,193.7 565.5,195.7 566.6,197.8 567.8,199.9 569.0,202.2 570.2,204.7 571.4,207.4 572.6,210.3 573.8,213.3 574.9,216.6 576.1,220.0 577.3,223.6 578.5,227.5 579.7,231.5 580.9,235.7 582.1,240.2 583.3,244.8 584.4,249.7 585.6,250.9 586.8,250.9 588.0,250.9 589.2,250.9 590.4,250.9 591.6,250.9 592.7,250.9 593.9,250.9 595.1,250.9 596.3,250.9 597.5,250.9 598.7,239.8 599.9,224.3 601.1,206.1 602.2,185.8 603.4,163.9 604.6,141.4 605.8,119.1 607.0,98.3 608.2,80.2 609.4,69.1 610.5,69.1 611.7,69.1 612.9,69.1 614.1,69.1 615.3,69.1 616.5,69.1 617.7,69.1 618.9,78.1 620.0,90.0 621.2,102.9 622.4,116.5 623.6,130.4 624.8,144.4 626.0,158.2 627.2,171.2 628.3,183.0 629.5,193.2 630.7,201.6 631.9,208.1 633.1,212.6 634.3,215.0 635.5,215.4 636.7,214.0 637.8,210.8 639.0,206.0 640.2,199.8 641.4,192.2 642.6,183.5 643.8,173.8 645.0,163.7 646.1,153.7 647.3,144.2 648.5,135.8 649.7,129.0 650.9,123.9 652.1,120.5 653.3,118.5 654.5,117.6 655.6,117.6 656.8,118.2 658.0,119.2 659.2,120.4 660.4,121.6 661.6,122.8 662.8,124.0 663.9,125.0 665.1,125.7 666.3,126.1 667.5,126.2 668.7,125.8 669.9,124.9 671.1,123.6 672.3,121.8 673.4,119.9 674.6,117.6 675.8,115.3 677.0,112.8 678.2,110.2 679.4,107.6 680.6,104.9 681.7,102.4 682.9,99.9 684.1,97.5 685.3,95.2 686.5,93.1 687.7,91.2 688.9,89.5 690.1,88.0 691.2,86.7 692.4,85.6 693.6,84.7 694.8,84.0 696.0,83.5 697.2,83.2 698.4,83.1 699.5,83.2 700.7,83.5 701.9,83.9 703.1,84.5 704.3,85.3 705.5,86.3 706.7,87.4 707.9,88.6 709.0,90.0 710.2,91.5 711.4,93.1 712.6,94.8 713.8,96.5 715.0,98.3 716.2,100.1 717.3,102.1 718.5,104.3 719.7,106.9 720.9,110.0 722.1,113.5 723.3,117.4 724.5,121.7 725.7,126.3 726.8,131.0 728.0,135.8 729.2,140.7 730.4,145.4 731.6,150.0 732.8,154.4 734.0,158.3 735.1,161.8 736.3,165.1 737.5,168.1 738.7,171.0 739.9,173.8 741.1,176.4 742.3,179.0 743.5,181.5 744.6,184.0 745.8,186.5 747.0,189.0 748.2,191.4 749.4,193.9 750.6,196.4 751.8,199.0 752.9,201.5 754.1,204.1 755.3,206.8 756.5,209.4 757.7,212.1 758.9,214.8 760.1,217.5 761.3,220.3 762.4,223.1 763.6,225.9 764.8,228.8 766.0,231.7"/>
<line x1="606" y1="60" x2="628" y2="60" stroke="#24a148" stroke-width="2.2"/>
<text x="634" y="64" font-family="Arial" font-size="12">beta_deg</text>
</svg>