<svg xmlns="http://www.w3.org/2000/svg" width="820" height="320" viewBox="0 0 820 320">
<rect width="100%" height="100%" fill="#ffffff"/>
<text x="54" y="28" font-family="Arial" font-size="18" font-weight="700">Control Surfaces</text>
<line x1="54" y1="266" x2="766" y2="266" stroke="#1f2933"/>
<line x1="54" y1="54" x2="54" y2="266" stroke="#1f2933"/>
<text x="54" y="306" font-family="Arial" font-size="12">time (s)</text>
<text x="596" y="306" font-family="Arial" font-size="12">deflection (deg)</text>
<text x="58" y="68" font-family="Arial" font-size="11">22</text>
<text x="58" y="260" font-family="Arial" font-size="11">-22</text>
<polyline fill="none" stroke="#0f62fe" stroke-width="2.2" points="54.0,173.0 55.2,166.9 56.4,162.4 57.6,164.2 58.7,168.0 59.9,169.7 61.1,169.9 62.3,170.1 63.5,170.9 64.7,171.8 65.9,172.4 67.1,172.9 68.2,173.3 69.4,173.8 70.6,174.2 71.8,174.5 73.0,174.8 74.2,175.1 75.4,175.4 76.5,175.6 77.7,175.9 78.9,176.1 80.1,176.3 81.3,176.4 82.5,176.6 83.7,176.7 84.9,176.9 86.0,177.0 87.2,177.1 88.4,177.2 89.6,177.3 90.8,177.4 92.0,177.5 93.2,177.6 94.3,177.6 95.5,177.7 96.7,177.8 97.9,177.8 99.1,177.9 100.3,177.9 101.5,178.0 102.7,178.0 103.8,178.1 105.0,178.1 106.2,178.1 107.4,178.2 108.6,178.2 109.8,178.2 111.0,178.3 112.1,178.3 113.3,178.3 114.5,178.3 115.7,178.4 116.9,178.4 118.1,178.4 119.3,178.4 120.5,178.4 121.6,178.4 122.8,178.4 124.0,178.4 125.2,178.4 126.4,178.4 127.6,178.4 128.8,178.4 129.9,178.4 131.1,178.4 132.3,178.4 133.5,178.4 134.7,178.4 135.9,178.4 137.1,178.4 138.3,178.4 139.4,178.4 140.6,178.4 141.8,178.4 143.0,178.3 144.2,178.3 145.4,178.3 146.6,178.3 147.7,178.3 148.9,178.3 150.1,178.3 151.3,178.3 152.5,178.2 153.7,178.3 154.9,178.3 156.1,178.3 157.2,178.3 158.4,178.3 159.6,178.3 160.8,178.3 162.0,178.4 163.2,178.4 164.4,178.4 165.5,178.4 166.7,178.4 167.9,178.5 169.1,178.5 170.3,178.5 171.5,178.5 172.7,178.5 173.9,178.6 175.0,178.6 176.2,178.6 177.4,178.6 178.6,178.6 179.8,178.6 181.0,178.6 182.2,178.6 183.3,178.7 184.5,178.7 185.7,178.7 186.9,178.7 188.1,178.7 189.3,178.7 190.5,178.7 191.7,178.7 192.8,178.7 194.0,178.6 195.2,178.7 196.4,178.6 197.6,178.7 198.8,178.5 200.0,178.8 201.1,178.2 202.3,179.1 203.5,177.5 204.7,180.4 205.9,174.9 207.1,185.1 208.3,172.1 209.5,185.1 210.6,172.1 211.8,185.1 213.0,172.1 214.2,185.1 215.4,172.1 216.6,185.1 217.8,172.1 218.9,185.1 220.1,172.1 221.3,185.1 222.5,172.1 223.7,185.1 224.9,172.1 226.1,185.1 227.3,172.1 228.4,185.1 229.6,172.1 230.8,185.1 232.0,172.1 233.2,185.1 234.4,172.1 235.6,185.1 236.7,172.1 237.9,185.1 239.1,172.1 240.3,185.1 241.5,172.1 242.7,185.1 243.9,172.1 245.1,185.1 246.2,172.1 247.4,185.1 248.6,172.1 249.8,185.1 251.0,172.1 252.2,185.1 253.4,172.1 254.5,185.1 255.7,172.1 256.9,185.1 258.1,172.1 259.3,185.1 260.5,172.8 261.7,185.8 262.9,172.8 264.0,185.8 265.2,175.5 266.4,188.6 267.6,175.5 268.8,188.6 270.0,175.5 271.2,188.6 272.3,182.8 273.5,188.1 274.7,177.0 275.9,190.0 277.1,186.8 278.3,182.3 279.5,195.3 280.7,182.3 281.8,195.3 283.0,182.3 284.2,195.3 285.4,182.3 286.6,195.3 287.8,186.8 289.0,199.8 290.1,186.8 291.3,195.4 292.5,184.5 293.7,197.5 294.9,184.8 296.1,197.8 297.3,184.8 298.5,197.8 299.6,184.8 300.8,197.5 302.0,184.5 303.2,197.5 304.4,184.5 305.6,197.5 306.8,184.5 307.9,197.5 309.1,184.7 310.3,197.7 311.5,186.0 312.7,199.0 313.9,186.0 315.1,199.0 316.3,186.0 317.4,199.0 318.6,186.0 319.8,199.0 321.0,186.0 322.2,199.0 323.4,186.0 324.6,199.0 325.7,186.0 326.9,199.0 328.1,186.0 329.3,199.0 330.5,186.0 331.7,199.0 332.9,186.6 334.1,199.6 335.2,187.4 336.4,200.4 337.6,187.4 338.8,200.4 340.0,187.4 341.2,200.4 342.4,187.4 343.5,200.4 344.7,187.4 345.9,200.4 347.1,187.4 348.3,200.4 349.5,187.4 350.7,200.4 351.9,187.8 353.0,200.9 354.2,190.4 355.4,203.4 356.6,190.4 357.8,203.0 359.0,189.9 360.2,202.6 361.3,190.1 362.5,203.1 363.7,190.1 364.9,203.1 366.1,190.1 367.3,203.1 368.5,190.4 369.7,203.4 370.8,190.4 372.0,203.4 373.2,190.4 374.4,203.4 375.6,191.6 376.8,204.6 378.0,193.7 379.1,206.7 380.3,193.7 381.5,206.7 382.7,193.7 383.9,205.4 385.1,194.8 386.3,207.8 387.5,195.3 388.6,208.3 389.8,195.3 391.0,208.3 392.2,195.3 393.4,208.3 394.6,195.3 395.8,208.3 396.9,196.7 398.1,209.7 399.3,198.1 400.5,211.1 401.7,198.1 402.9,211.1 404.1,198.1 405.3,209.5 406.4,199.5 407.6,212.6 408.8,200.1 410.0,212.2 411.2,199.2 412.4,211.9 413.6,198.9 414.7,211.9 415.9,200.3 417.1,213.3 418.3,203.0 419.5,212.0 420.7,202.3 421.9,215.4 423.1,204.0 424.2,215.2 425.4,203.3 426.6,216.0 427.8,205.1 429.0,217.3 430.2,204.5 431.4,216.2 432.5,207.6 433.7,215.4 434.9,208.8 436.1,215.2 437.3,210.5 438.5,215.0 439.7,212.5 440.9,215.2 442.0,214.5 443.2,215.8 444.4,216.2 445.6,216.9 446.8,217.5 448.0,218.0 449.2,218.5 450.3,219.0 451.5,219.3 452.7,219.7 453.9,220.0 455.1,220.3 456.3,220.6 457.5,220.9 458.7,221.3 459.8,221.7 461.0,222.2 462.2,222.8 463.4,223.5 464.6,224.2 465.8,224.9 467.0,225.7 468.1,226.1 469.3,225.7 470.5,225.6 471.7,225.7 472.9,225.6 474.1,225.5 475.3,225.5 476.5,225.5 477.6,225.5 478.8,225.6 480.0,225.7 481.2,225.8 482.4,225.9 483.6,226.1 484.8,226.3 485.9,226.5 487.1,226.7 488.3,226.9 489.5,227.1 490.7,227.3 491.9,227.4 493.1,227.2 494.3,226.9 495.4,226.7 496.6,226.6 497.8,226.6 499.0,226.6 500.2,226.6 501.4,226.6 502.6,226.5 503.7,226.5 504.9,226.5 506.1,226.4 507.3,226.4 508.5,226.4 509.7,226.3 510.9,226.3 512.1,226.3 513.2,226.2 514.4,226.2 515.6,226.2 516.8,226.2 518.0,226.1 519.2,226.1 520.4,226.1 521.5,226.0 522.7,226.0 523.9,226.0 525.1,225.9 526.3,225.9 527.5,225.9 528.7,225.8 529.9,225.8 531.0,225.8 532.2,225.7 533.4,225.7 534.6,225.7 535.8,225.6 537.0,225.6 538.2,224.8 539.3,219.3 540.5,215.0 541.7,212.6 542.9,211.3 544.1,212.5 545.3,214.7 546.5,217.1 547.7,218.3 548.8,218.3 550.0,217.5 551.2,216.6 552.4,215.9 553.6,215.4 554.8,215.1 556.0,214.8 557.1,214.4 558.3,214.1 559.5,216.3 560.7,221.2 561.9,228.2 563.1,236.7 564.3,244.5 565.5,239.5 566.6,230.5 567.8,224.7 569.0,222.8 570.2,223.2 571.4,224.1 572.6,224.8 573.8,225.1 574.9,225.0 576.1,224.9 577.3,224.8 578.5,224.7 579.7,224.7 580.9,224.6 582.1,224.6 583.3,224.5 584.4,224.5 585.6,224.4 586.8,224.3 588.0,224.2 589.2,224.1 590.4,224.0 591.6,223.9 592.7,224.0 593.9,210.9 595.1,197.9 596.3,184.9 597.5,171.9 598.7,158.9 599.9,145.9 601.1,132.9 602.2,132.0 603.4,141.2 604.6,154.3 605.8,167.3 607.0,180.3 608.2,190.6 609.4,187.4 610.5,176.6 611.7,163.6 612.9,150.6 614.1,151.9 615.3,164.9 616.5,177.9 617.7,190.9 618.9,204.0 620.0,217.0 621.2,218.5 622.4,209.6 623.6,196.6 624.8,183.5 626.0,170.5 627.2,157.5 628.3,155.4 629.5,164.1 630.7,177.2 631.9,190.2 633.1,203.2 634.3,216.2 635.5,224.7 636.7,226.4 637.8,213.3 639.0,200.3 640.2,187.3 641.4,174.3 642.6,170.6 643.8,173.3 645.0,179.6 646.1,183.5 647.3,184.2 648.5,183.6 649.7,182.6 650.9,181.7 652.1,181.5 653.3,182.6 654.5,185.6 655.6,190.0 656.8,195.6 658.0,201.6 659.2,197.5 660.4,194.4 661.6,196.1 662.8,201.5 663.9,208.1 665.1,214.2 666.3,219.4 667.5,223.1 668.7,225.1 669.9,225.8 671.1,225.9 672.3,225.7 673.4,225.4 674.6,223.9 675.8,222.4 677.0,221.3 678.2,220.9 679.4,221.2 680.6,222.2 681.7,223.8 682.9,226.0 684.1,228.7 685.3,229.1 686.5,228.1 687.7,226.9 688.9,226.0 690.1,225.5 691.2,225.3 692.4,225.2 693.6,225.2 694.8,225.2 696.0,225.2 697.2,225.2 698.4,225.2 699.5,225.2 700.7,225.1 701.9,225.1 703.1,225.1 704.3,225.0 705.5,225.0 706.7,225.0 707.9,224.9 709.0,224.9 710.2,224.9 711.4,224.9 712.6,224.8 713.8,224.8 715.0,224.8 716.2,224.8 717.3,224.8 718.5,224.8 719.7,224.9 720.9,224.9 722.1,225.1 723.3,225.1 724.5,213.8 725.7,208.4 726.8,209.8 728.0,213.2 729.2,215.7 730.4,217.0 731.6,218.0 732.8,219.3 734.0,221.0 735.1,222.9 736.3,224.3 737.5,225.0 738.7,225.2 739.9,225.3 741.1,225.2 742.3,225.1 743.5,224.9 744.6,224.6 745.8,224.2 747.0,223.7 748.2,223.1 749.4,222.4 750.6,221.6 751.8,220.8 752.9,220.0 754.1,219.2 755.3,218.8 756.5,218.9 757.7,219.4 758.9,220.0 760.1,220.8 761.3,221.6 762.4,222.5 763.6,223.5 764.8,224.5 766.0,225.7"/>
<line x1="606" y1="42" x2="628" y2="42" stroke="#0f62fe" stroke-width="2.2"/>
<text x="634" y="46" font-family="Arial" font-size="12">elevator_deg</text>
<polyline fill="none" stroke="#24a148" stroke-width="2.2" points="54.0,160.0 55.2,160.0 56.4,160.0 57.6,160.0 58.7,160.2 59.9,160.1 61.1,160.2 62.3,160.1 63.5,160.0 64.7,160.2 65.9,160.1 67.1,160.0 68.2,160.0 69.4,160.2 70.6,160.1 71.8,160.0 73.0,160.0 74.2,160.0 75.4,160.0 76.5,160.0 77.7,160.0 78.9,160.0 80.1,160.0 81.3,160.0 82.5,160.0 83.7,160.0 84.9,160.0 86.0,160.0 87.2,160.0 88.4,160.0 89.6,160.0 90.8,160.0 92.0,160.0 93.2,159.8 94.3,159.9 95.5,160.0 96.7,159.8 97.9,159.9 99.1,160.0 100.3,159.8 101.5,159.9 102.7,159.8 103.8,159.9 105.0,159.8 106.2,159.9 107.4,159.8 108.6,159.9 109.8,159.8 111.0,159.7 112.1,159.9 113.3,159.8 114.5,159.7 115.7,159.9 116.9,159.8 118.1,159.7 119.3,159.9 120.5,159.7 121.6,159.7 122.8,159.7 124.0,159.9 125.2,159.7 126.4,159.6 127.6,159.7 128.8,159.7 129.9,159.7 131.1,159.7 132.3,159.7 133.5,159.7 134.7,159.7 135.9,159.6 137.1,159.6 138.3,159.6 139.4,159.6 140.6,159.6 141.8,159.6 143.0,159.6 144.2,159.6 145.4,159.6 146.6,159.6 147.7,159.5 148.9,159.5 150.1,159.5 151.3,159.5 152.5,159.5 153.7,159.5 154.9,159.5 156.1,159.4 157.2,159.4 158.4,159.4 159.6,159.4 160.8,159.4 162.0,159.4 163.2,159.3 164.4,159.3 165.5,159.3 166.7,159.3 167.9,159.3 169.1,159.2 170.3,159.2 171.5,159.2 172.7,159.2 173.9,159.1 175.0,159.1 176.2,159.1 177.4,159.0 178.6,159.0 179.8,159.0 181.0,158.9 182.2,158.9 183.3,158.9 184.5,158.8 185.7,158.8 186.9,158.7 188.1,158.7 189.3,158.6 190.5,158.6 191.7,158.5 192.8,158.5 194.0,158.4 195.2,158.4 196.4,158.3 197.6,158.2 198.8,158.2 200.0,158.1 201.1,158.0 202.3,157.9 203.5,157.8 204.7,157.7 205.9,157.6 207.1,157.6 208.3,157.4 209.5,157.4 210.6,157.2 211.8,157.1 213.0,156.9 214.2,156.9 215.4,156.6 216.6,156.6 217.8,156.3 218.9,156.3 220.1,156.0 221.3,155.9 222.5,155.6 223.7,155.5 224.9,155.1 226.1,155.1 227.3,154.6 228.4,154.6 229.6,154.1 230.8,154.1 232.0,153.5 233.2,153.5 234.4,152.8 235.6,152.8 236.7,152.0 237.9,152.0 239.1,151.2 240.3,151.2 241.5,152.6 242.7,153.3 243.9,152.0 245.1,151.5 246.2,151.4 247.4,151.0 248.6,150.3 249.8,150.0 251.0,149.4 252.2,148.9 253.4,148.2 254.5,147.7 255.7,146.9 256.9,146.3 258.1,145.4 259.3,144.7 260.5,143.7 261.7,143.0 262.9,141.9 264.0,141.1 265.2,139.8 266.4,138.9 267.6,137.7 268.8,136.9 270.0,135.7 271.2,135.0 272.3,133.9 273.5,133.2 274.7,132.4 275.9,131.6 277.1,130.7 278.3,130.1 279.5,129.4 280.7,128.6 281.8,128.1 283.0,127.3 284.2,126.9 285.4,126.1 286.6,125.7 287.8,125.0 289.0,124.7 290.1,124.3 291.3,124.2 292.5,124.2 293.7,124.4 294.9,124.7 296.1,125.2 297.3,125.7 298.5,126.2 299.6,126.7 300.8,127.0 302.0,127.3 303.2,127.5 304.4,127.4 305.6,127.3 306.8,126.9 307.9,126.6 309.1,125.9 310.3,125.6 311.5,125.0 312.7,124.8 313.9,124.4 315.1,124.4 316.3,124.4 317.4,124.7 318.6,125.0 319.8,125.5 321.0,125.9 322.2,126.4 323.4,126.8 324.6,127.1 325.7,127.2 326.9,127.3 328.1,127.1 329.3,127.0 330.5,126.5 331.7,126.2 332.9,125.6 334.1,125.3 335.2,124.8 336.4,124.8 337.6,124.5 338.8,124.7 340.0,124.7 341.2,125.1 342.4,125.4 343.5,125.9 344.7,126.3 345.9,126.6 347.1,126.9 348.3,127.1 349.5,127.1 350.7,127.1 351.9,126.7 353.0,126.5 354.2,126.0 355.4,125.8 356.6,125.3 357.8,125.2 359.0,124.8 360.2,124.9 361.3,124.8 362.5,125.0 363.7,125.2 364.9,125.6 366.1,125.9 367.3,126.3 368.5,126.5 369.7,126.8 370.8,126.8 372.0,126.9 373.2,126.7 374.4,126.6 375.6,126.2 376.8,126.1 378.0,125.6 379.1,125.5 380.3,125.1 381.5,125.1 382.7,124.9 383.9,125.1 385.1,125.2 386.3,125.5 387.5,125.7 388.6,126.0 389.8,126.3 391.0,126.5 392.2,126.6 393.4,126.8 394.6,126.6 395.8,126.6 396.9,126.3 398.1,126.2 399.3,125.8 400.5,125.7 401.7,125.4 402.9,125.4 404.1,125.1 405.3,125.3 406.4,125.2 407.6,125.5 408.8,125.6 410.0,125.9 411.2,126.0 412.4,126.3 413.6,126.4 414.7,126.6 415.9,126.5 417.1,126.6 418.3,126.4 419.5,126.4 420.7,126.0 421.9,125.9 423.1,125.6 424.2,125.6 425.4,125.3 426.6,125.4 427.8,125.3 429.0,125.5 430.2,125.5 431.4,125.7 432.5,125.8 433.7,126.1 434.9,126.2 436.1,126.4 437.3,126.4 438.5,126.5 439.7,126.5 440.9,126.4 442.0,126.3 443.2,126.1 444.4,126.0 445.6,125.8 446.8,125.7 448.0,125.6 449.2,125.5 450.3,125.5 451.5,125.5 452.7,125.6 453.9,125.7 455.1,125.8 456.3,125.9 457.5,126.1 458.7,126.2 459.8,126.3 461.0,126.4 462.2,126.4 463.4,126.4 464.6,126.4 465.8,126.3 467.0,126.2 468.1,126.1 469.3,126.0 470.5,125.9 471.7,125.8 472.9,125.7 474.1,125.7 475.3,125.7 476.5,125.8 477.6,125.8 478.8,125.9 480.0,126.0 481.2,126.2 482.4,126.3 483.6,126.4 484.8,126.5 485.9,126.6 487.1,126.7 488.3,126.7 489.5,126.8 490.7,126.8 491.9,126.8 493.1,126.8 494.3,126.8 495.4,126.9 496.6,127.0 497.8,127.2 499.0,127.3 500.2,127.5 501.4,127.7 502.6,128.0 503.7,128.3 504.9,128.6 506.1,128.9 507.3,129.3 508.5,129.7 509.7,130.1 510.9,130.6 512.1,131.1 513.2,131.7 514.4,132.2 515.6,132.8 516.8,133.5 518.0,134.2 519.2,134.9 520.4,135.7 521.5,136.5 522.7,137.4 523.9,138.3 525.1,139.2 526.3,140.2 527.5,141.3 528.7,142.4 529.9,143.5 531.0,144.7 532.2,146.0 533.4,147.3 534.6,148.7 535.8,150.2 537.0,151.7 538.2,153.2 539.3,154.6 540.5,155.9 541.7,157.0 542.9,158.0 544.1,159.0 545.3,160.1 546.5,161.1 547.7,162.1 548.8,163.1 550.0,164.1 551.2,165.3 552.4,166.6 553.6,167.9 554.8,169.3 556.0,170.8 557.1,172.3 558.3,173.9 559.5,175.6 560.7,177.2 561.9,178.8 563.1,180.3 564.3,181.7 565.5,183.3 566.6,185.1 567.8,187.3 569.0,189.3 570.2,191.2 571.4,192.9 572.6,194.7 573.8,196.7 574.9,198.9 576.1,201.3 577.3,203.8 578.5,206.4 579.7,209.2 580.9,212.2 582.1,215.4 583.3,218.8 584.4,222.3 585.6,226.1 586.8,228.4 588.0,229.2 589.2,242.2 590.4,255.2 591.6,261.7 592.7,264.3 593.9,265.3 595.1,265.7 596.3,265.9 597.5,252.9 598.7,239.9 599.9,226.9 601.1,213.9 602.2,200.8 603.4,187.8 604.6,174.8 605.8,161.8 607.0,148.8 608.2,135.8 609.4,122.8 610.5,109.8 611.7,96.8 612.9,83.8 614.1,70.8 615.3,60.7 616.5,56.7 617.7,55.1 618.9,54.4 620.0,54.2 621.2,54.1 622.4,54.0 623.6,67.0 624.8,80.0 626.0,93.1 627.2,106.1 628.3,119.1 629.5,132.1 630.7,145.1 631.9,158.1 633.1,171.1 634.3,184.1 635.5,197.1 636.7,210.1 637.8,223.1 639.0,236.2 640.2,249.2 641.4,259.3 642.6,246.3 643.8,233.2 645.0,220.2 646.1,207.2 647.3,194.2 648.5,181.2 649.7,168.2 650.9,155.2 652.1,142.2 653.3,129.2 654.5,116.2 655.6,103.2 656.8,90.1 658.0,77.1 659.2,64.1 660.4,77.0 661.6,90.1 662.8,103.1 663.9,116.1 665.1,129.1 666.3,142.1 667.5,155.1 668.7,168.1 669.9,160.0 671.1,147.0 672.3,136.7 673.4,131.6 674.6,130.1 675.8,130.0 677.0,130.0 678.2,129.2 679.4,127.7 680.6,125.8 681.7,123.8 682.9,121.8 684.1,119.8 685.3,118.0 686.5,116.3 687.7,114.7 688.9,113.2 690.1,111.8 691.2,110.5 692.4,109.2 693.6,108.2 694.8,107.2 696.0,106.4 697.2,105.8 698.4,105.2 699.5,104.8 700.7,104.6 701.9,104.4 703.1,104.4 704.3,104.5 705.5,104.7 706.7,105.1 707.9,105.6 709.0,106.1 710.2,106.8 711.4,107.6 712.6,108.4 713.8,109.4 715.0,110.4 716.2,97.4 717.3,84.4 718.5,71.4 719.7,61.0 720.9,56.8 722.1,55.1 723.3,68.1 724.5,81.1 725.7,94.1 726.8,107.1 728.0,120.2 729.2,133.2 730.4,146.2 731.6,159.2 732.8,172.2 734.0,172.9 735.1,167.8 736.3,163.1 737.5,160.8 738.7,160.9 739.9,162.6 741.1,165.1 742.3,167.6 743.5,170.0 744.6,172.1 745.8,174.1 747.0,175.9 748.2,177.6 749.4,179.3 750.6,181.1 751.8,182.8 752.9,184.6 754.1,186.4 755.3,188.1 756.5,190.0 757.7,191.8 758.9,193.6 760.1,195.5 761.3,197.4 762.4,199.3 763.6,201.3 764.8,203.3 766.0,205.3"/>
<line x1="606" y1="60" x2="628" y2="60" stroke="#24a148" stroke-width="2.2"/>
<text x="634" y="64" font-family="Arial" font-size="12">aileron_deg</text>
<polyline fill="none" stroke="#da1e28" stroke-width="2.2" points="54.0,160.2 55.2,160.3 56.4,160.4 57.6,160.4 58.7,160.4 59.9,160.4 61.1,160.4 62.3,160.4 63.5,160.4 64.7,160.4 65.9,160.3 67.1,160.3 68.2,160.3 69.4,160.1 70.6,160.2 71.8,160.1 73.0,160.2 74.2,160.1 75.4,160.0 76.5,160.0 77.7,160.0 78.9,160.0 80.1,160.0 81.3,160.0 82.5,160.0 83.7,160.0 84.9,160.0 86.0,160.0 87.2,160.0 88.4,160.0 89.6,160.0 90.8,159.8 92.0,159.7 93.2,159.7 94.3,159.7 95.5,159.7 96.7,159.7 97.9,159.7 99.1,159.7 100.3,159.7 101.5,159.6 102.7,159.6 103.8,159.6 105.0,159.6 106.2,159.6 107.4,159.5 108.6,159.5 109.8,159.5 111.0,159.5 112.1,159.5 113.3,159.4 114.5,159.4 115.7,159.4 116.9,159.4 118.1,159.4 119.3,159.3 120.5,159.3 121.6,159.3 122.8,159.3 124.0,159.2 125.2,159.2 126.4,159.2 127.6,159.2 128.8,159.1 129.9,159.1 131.1,159.1 132.3,159.1 133.5,159.0 134.7,159.0 135.9,159.0 137.1,159.0 138.3,158.9 139.4,158.9 140.6,158.9 141.8,158.8 143.0,158.8 144.2,158.8 145.4,158.8 146.6,158.7 147.7,158.7 148.9,158.7 150.1,158.6 151.3,158.6 152.5,158.6 153.7,158.5 154.9,158.5 156.1,158.4 157.2,158.4 158.4,158.4 159.6,158.3 160.8,158.3 162.0,158.2 163.2,158.2 164.4,158.1 165.5,158.1 166.7,158.0 167.9,157.9 169.1,157.9 170.3,157.8 171.5,157.8 172.7,157.7 173.9,157.6 175.0,157.5 176.2,157.5 177.4,157.4 178.6,157.3 179.8,157.2 181.0,157.1 182.2,157.0 183.3,156.9 184.5,156.8 185.7,156.7 186.9,156.6 188.1,156.5 189.3,156.3 190.5,156.2 191.7,156.1 192.8,155.9 194.0,155.8 195.2,155.6 196.4,155.5 197.6,155.3 198.8,155.1 200.0,154.9 201.1,154.7 202.3,154.5 203.5,154.3 204.7,154.1 205.9,153.8 207.1,153.7 208.3,153.1 209.5,153.2 210.6,152.6 211.8,152.7 213.0,152.1 214.2,152.1 215.4,151.3 216.6,151.4 217.8,150.5 218.9,150.6 220.1,149.7 221.3,149.8 222.5,148.8 223.7,148.9 224.9,147.7 226.1,147.9 227.3,146.6 228.4,146.7 229.6,145.3 230.8,145.5 232.0,143.9 233.2,144.1 234.4,142.3 235.6,142.6 236.7,140.6 237.9,140.9 239.1,138.6 240.3,139.0 241.5,136.4 242.7,136.9 243.9,134.0 245.1,134.6 246.2,131.3 247.4,131.8 248.6,128.1 249.8,128.7 251.0,124.6 252.2,125.2 253.4,120.6 254.5,121.2 255.7,116.2 256.9,116.8 258.1,111.2 259.3,111.8 260.5,105.7 261.7,105.8 262.9,99.0 264.0,99.5 265.2,96.4 266.4,94.0 267.6,91.5 268.8,88.2 270.0,85.0 271.2,82.0 272.3,79.4 273.5,76.8 274.7,74.2 275.9,71.6 277.1,69.4 278.3,67.0 279.5,64.7 280.7,62.7 281.8,60.5 283.0,58.6 284.2,56.6 285.4,55.0 286.6,54.4 287.8,54.2 289.0,54.1 290.1,54.0 291.3,54.0 292.5,54.0 293.7,54.0 294.9,54.0 296.1,54.0 297.3,54.0 298.5,54.0 299.6,54.0 300.8,54.0 302.0,54.0 303.2,54.0 304.4,54.0 305.6,54.0 306.8,54.0 307.9,54.0 309.1,54.0 310.3,54.0 311.5,54.0 312.7,54.0 313.9,54.0 315.1,54.0 316.3,54.0 317.4,54.0 318.6,54.0 319.8,54.0 321.0,54.0 322.2,54.0 323.4,54.0 324.6,54.0 325.7,54.0 326.9,54.0 328.1,54.0 329.3,54.0 330.5,54.0 331.7,54.0 332.9,54.0 334.1,54.0 335.2,54.0 336.4,54.0 337.6,54.0 338.8,54.0 340.0,54.0 341.2,54.0 342.4,54.0 343.5,54.0 344.7,54.0 345.9,54.0 347.1,54.0 348.3,54.0 349.5,54.0 350.7,54.0 351.9,54.0 353.0,54.0 354.2,54.0 355.4,54.0 356.6,54.0 357.8,54.0 359.0,54.0 360.2,54.0 361.3,54.0 362.5,54.0 363.7,54.0 364.9,54.0 366.1,54.0 367.3,54.0 368.5,54.0 369.7,54.0 370.8,54.0 372.0,54.0 373.2,54.0 374.4,54.0 375.6,54.0 376.8,54.0 378.0,54.0 379.1,54.0 380.3,54.0 381.5,54.0 382.7,54.0 383.9,54.0 385.1,54.0 386.3,54.0 387.5,54.0 388.6,54.0 389.8,54.0 391.0,54.0 392.2,54.0 393.4,54.0 394.6,54.0 395.8,54.0 396.9,54.0 398.1,54.0 399.3,54.0 400.5,54.0 401.7,54.0 402.9,54.0 404.1,54.0 405.3,54.0 406.4,54.0 407.6,54.0 408.8,54.0 410.0,54.0 411.2,54.0 412.4,54.0 413.6,54.0 414.7,54.0 415.9,54.0 417.1,54.0 418.3,54.0 419.5,54.0 420.7,54.0 421.9,54.0 423.1,54.0 424.2,54.0 425.4,54.0 426.6,54.0 427.8,54.0 429.0,54.0 430.2,54.0 431.4,54.0 432.5,54.0 433.7,54.0 434.9,54.0 436.1,54.0 437.3,54.0 438.5,54.0 439.7,54.0 440.9,54.0 442.0,54.0 443.2,54.0 444.4,54.0 445.6,54.0 446.8,54.0 448.0,54.0 449.2,54.0 450.3,54.0 451.5,54.0 452.7,54.0 453.9,54.0 455.1,54.0 456.3,54.0 457.5,54.0 458.7,54.0 459.8,54.0 461.0,54.0 462.2,54.0 463.4,54.0 464.6,54.0 465.8,54.0 467.0,54.0 468.1,54.0 469.3,54.0 470.5,54.0 471.7,54.0 472.9,54.0 474.1,54.0 475.3,54.0 476.5,54.0 477.6,54.0 478.8,54.0 480.0,54.0 481.2,54.0 482.4,54.0 483.6,54.0 484.8,54.0 485.9,54.0 487.1,54.0 488.3,54.0 489.5,54.0 490.7,54.0 491.9,55.2 493.1,56.1 494.3,56.4 495.4,56.4 496.6,56.5 497.8,56.8 499.0,57.3 500.2,57.9 501.4,58.7 502.6,59.4 503.7,60.3 504.9,61.2 506.1,62.3 507.3,63.4 508.5,64.7 509.7,66.1 510.9,67.5 512.1,69.1 513.2,70.7 514.4,72.5 515.6,74.4 516.8,76.4 518.0,78.6 519.2,80.8 520.4,83.2 521.5,85.7 522.7,88.3 523.9,91.1 525.1,94.1 526.3,97.2 527.5,100.4 528.7,103.8 529.9,107.4 531.0,111.1 532.2,115.0 533.4,119.2 534.6,132.2 535.8,145.2 537.0,158.2 538.2,171.2 539.3,184.2 540.5,197.2 541.7,202.7 542.9,189.6 544.1,176.6 545.3,163.6 546.5,159.3 547.7,161.7 548.8,167.1 550.0,173.1 551.2,178.6 552.4,183.5 553.6,188.0 554.8,192.4 556.0,196.9 557.1,201.6 558.3,188.6 559.5,175.6 560.7,162.6 561.9,149.6 563.1,152.6 564.3,165.6 565.5,178.6 566.6,191.6 567.8,204.6 569.0,217.6 570.2,230.6 571.4,243.6 572.6,256.7 573.8,262.3 574.9,264.5 576.1,265.4 577.3,265.8 578.5,265.9 579.7,266.0 580.9,266.0 582.1,266.0 583.3,266.0 584.4,266.0 585.6,266.0 586.8,266.0 588.0,266.0 589.2,266.0 590.4,266.0 591.6,266.0 592.7,266.0 593.9,266.0 595.1,266.0 596.3,266.0 597.5,266.0 598.7,266.0 599.9,266.0 601.1,266.0 602.2,266.0 603.4,266.0 604.6,266.0 605.8,266.0 607.0,266.0 608.2,266.0 609.4,266.0 610.5,266.0 611.7,253.0 612.9,240.0 614.1,227.0 615.3,214.0 616.5,201.0 617.7,187.9 618.9,174.9 620.0,161.9 621.2,148.9 622.4,135.9 623.6,122.9 624.8,109.9 626.0,96.9 627.2,83.9 628.3,70.9 629.5,60.7 630.7,56.7 631.9,55.1 633.1,54.4 634.3,64.7 635.5,77.7 636.7,90.7 637.8,103.7 639.0,116.7 640.2,129.8 641.4,142.8 642.6,155.8 643.8,168.8 645.0,181.8 646.1,194.8 647.3,207.8 648.5,220.8 649.7,216.6 650.9,203.5 652.1,190.5 653.3,177.5 654.5,164.5 655.6,151.5 656.8,138.5 658.0,125.5 659.2,112.5 660.4,99.5 661.6,86.5 662.8,73.5 663.9,61.8 665.1,57.1 666.3,55.2 667.5,54.5 668.7,54.2 669.9,54.1 671.1,54.0 672.3,54.0 673.4,54.0 674.6,54.0 675.8,54.0 677.0,54.0 678.2,54.0 679.4,54.0 680.6,54.0 681.7,54.0 682.9,54.0 684.1,54.0 685.3,54.0 686.5,54.0 687.7,54.0 688.9,54.0 690.1,54.0 691.2,54.0 692.4,54.0 693.6,54.0 694.8,54.0 696.0,54.0 697.2,54.0 698.4,54.0 699.5,54.0 700.7,54.0 701.9,54.0 703.1,54.0 704.3,54.0 705.5,54.0 706.7,54.0 707.9,54.0 709.0,54.0 710.2,54.0 711.4,54.0 712.6,54.0 713.8,54.0 715.0,54.0 716.2,54.0 717.3,54.0 718.5,54.0 719.7,54.0 720.9,54.0 722.1,54.0 723.3,54.0 724.5,54.0 725.7,54.0 726.8,54.0 728.0,54.0 729.2,54.0 730.4,54.0 731.6,54.0 732.8,54.0 734.0,54.0 735.1,66.9 736.3,80.0 737.5,93.0 738.7,106.0 739.9,119.0 741.1,132.0 742.3,145.0 743.5,158.0 744.6,171.0 745.8,184.0 747.0,197.0 748.2,210.0 749.4,223.1 750.6,236.1 751.8,249.1 752.9,259.2 754.1,263.3 755.3,264.9 756.5,265.6 757.7,265.8 758.9,265.9 760.1,266.0 761.3,266.0 762.4,266.0 763.6,266.0 764.8,266.0 766.0,266.0"/>
<line x1="606" y1="78" x2="628" y2="78" stroke="#da1e28" stroke-width="2.2"/>
<text x="634" y="82" font-family="Arial" font-size="12">rudder_deg</text>
</svg>