<svg xmlns="http://www.w3.org/2000/svg" width="820" height="320" viewBox="0 0 820 320">
<rect width="100%" height="100%" fill="#ffffff"/>
<text x="54" y="28" font-family="Arial" font-size="18" font-weight="700">Heading Command Tracking</text>
<line x1="54" y1="266" x2="766" y2="266" stroke="#1f2933"/>
<line x1="54" y1="54" x2="54" y2="266" stroke="#1f2933"/>
<text x="54" y="306" font-family="Arial" font-size="12">time (s)</text>
<text x="596" y="306" font-family="Arial" font-size="12">heading (deg)</text>
<text x="58" y="68" font-family="Arial" font-size="11">180</text>
<text x="58" y="260" font-family="Arial" font-size="11">-180</text>
<polyline fill="none" stroke="#0f62fe" stroke-width="2.2" points="54.0,159.9 55.2,159.9 56.4,159.9 57.6,159.9 58.7,159.9 59.9,159.9 61.1,159.9 62.3,159.9 63.5,159.9 64.7,159.9 65.9,159.9 67.1,159.9 68.2,159.9 69.4,159.9 70.6,159.9 71.8,159.9 73.0,159.9 74.2,159.9 75.4,159.9 76.5,159.9 77.7,159.9 78.9,159.9 80.1,159.9 81.3,159.9 82.5,159.9 83.7,159.9 84.9,159.9 86.0,159.9 87.2,159.9 88.4,159.9 89.6,159.9 90.8,159.9 92.0,159.9 93.2,159.9 94.3,159.9 95.5,159.9 96.7,159.9 97.9,159.9 99.1,159.9 100.3,159.9 101.5,159.9 102.7,159.9 103.8,159.9 105.0,159.9 106.2,159.9 107.4,159.9 108.6,159.9 109.8,159.9 111.0,159.9 112.1,159.9 113.3,159.9 114.5,159.9 115.7,159.9 116.9,159.9 118.1,159.9 119.3,159.9 120.5,159.9 121.6,159.9 122.8,159.9 124.0,159.9 125.2,159.9 126.4,159.9 127.6,159.9 128.8,159.9 129.9,159.9 131.1,159.9 132.3,159.9 133.5,159.9 134.7,159.9 135.9,159.9 137.1,159.9 138.3,159.9 139.4,159.9 140.6,159.9 141.8,159.9 143.0,159.9 144.2,159.9 145.4,159.9 146.6,159.9 147.7,159.9 148.9,159.9 150.1,159.9 151.3,159.9 152.5,159.9 153.7,159.9 154.9,159.9 156.1,159.9 157.2,159.9 158.4,159.9 159.6,159.9 160.8,159.9 162.0,159.9 163.2,159.9 164.4,159.9 165.5,159.9 166.7,159.9 167.9,159.9 169.1,159.9 170.3,159.9 171.5,159.9 172.7,159.9 173.9,159.9 175.0,159.9 176.2,159.9 177.4,159.9 178.6,159.9 179.8,159.9 181.0,159.9 182.2,159.9 183.3,159.9 184.5,159.9 185.7,159.9 186.9,159.9 188.1,159.9 189.3,159.9 190.5,159.9 191.7,159.9 192.8,159.9 194.0,159.9 195.2,159.9 196.4,159.9 197.6,159.9 198.8,159.9 200.0,159.9 201.1,159.9 202.3,159.9 203.5,159.9 204.7,159.9 205.9,159.9 207.1,159.9 208.3,159.9 209.5,159.9 210.6,159.9 211.8,159.9 213.0,159.9 214.2,159.9 215.4,159.9 216.6,159.9 217.8,159.9 218.9,159.9 220.1,159.9 221.3,159.9 222.5,159.9 223.7,159.9 224.9,159.9 226.1,159.9 227.3,159.9 228.4,159.9 229.6,159.9 230.8,159.9 232.0,159.9 233.2,159.9 234.4,159.9 235.6,159.9 236.7,159.9 237.9,159.9 239.1,159.9 240.3,159.9 241.5,159.9 242.7,159.9 243.9,159.9 245.1,159.9 246.2,159.9 247.4,159.9 248.6,159.9 249.8,159.9 251.0,159.9 252.2,159.9 253.4,159.9 254.5,159.9 255.7,159.9 256.9,159.9 258.1,159.9 259.3,159.9 260.5,159.9 261.7,159.9 262.9,159.9 264.0,159.9 265.2,159.9 266.4,159.9 267.6,159.9 268.8,159.9 270.0,159.9 271.2,159.9 272.3,159.9 273.5,159.9 274.7,159.9 275.9,159.9 277.1,159.9 278.3,159.9 279.5,159.9 280.7,159.9 281.8,159.9 283.0,159.9 284.2,159.9 285.4,159.9 286.6,159.9 287.8,159.9 289.0,159.9 290.1,159.9 291.3,159.9 292.5,159.9 293.7,159.9 294.9,159.9 296.1,159.9 297.3,159.9 298.5,159.9 299.6,159.9 300.8,159.9 302.0,159.9 303.2,159.9 304.4,159.9 305.6,159.9 306.8,159.9 307.9,159.9 309.1,159.9 310.3,159.9 311.5,159.9 312.7,159.9 313.9,159.9 315.1,159.9 316.3,159.9 317.4,159.9 318.6,159.9 319.8,159.9 321.0,159.9 322.2,159.9 323.4,159.9 324.6,159.9 325.7,159.9 326.9,159.9 328.1,159.9 329.3,159.9 330.5,159.9 331.7,159.9 332.9,159.9 334.1,159.9 335.2,159.9 336.4,159.9 337.6,159.9 338.8,159.9 340.0,159.9 341.2,159.9 342.4,159.9 343.5,159.9 344.7,159.9 345.9,159.9 347.1,159.9 348.3,159.9 349.5,159.9 350.7,159.9 351.9,159.9 353.0,159.9 354.2,159.9 355.4,159.9 356.6,159.9 357.8,159.9 359.0,159.9 360.2,159.9 361.3,159.9 362.5,159.9 363.7,159.9 364.9,159.9 366.1,159.9 367.3,159.9 368.5,159.9 369.7,159.9 370.8,159.9 372.0,159.9 373.2,159.9 374.4,159.9 375.6,159.9 376.8,159.9 378.0,159.9 379.1,159.9 380.3,159.9 381.5,159.9 382.7,159.9 383.9,159.9 385.1,159.9 386.3,159.9 387.5,159.9 388.6,159.9 389.8,159.9 391.0,159.9 392.2,159.9 393.4,159.9 394.6,159.9 395.8,159.9 396.9,159.9 398.1,159.9 399.3,159.9 400.5,159.9 401.7,159.9 402.9,159.9 404.1,159.9 405.3,159.9 406.4,159.9 407.6,159.9 408.8,159.9 410.0,159.9 411.2,159.9 412.4,159.9 413.6,159.9 414.7,159.9 415.9,159.9 417.1,159.9 418.3,159.9 419.5,159.9 420.7,159.9 421.9,159.9 423.1,159.9 424.2,159.9 425.4,159.9 426.6,159.9 427.8,159.9 429.0,159.9 430.2,159.9 431.4,159.9 432.5,159.9 433.7,159.9 434.9,159.9 436.1,159.9 437.3,159.9 438.5,159.9 439.7,159.9 440.9,159.9 442.0,159.9 443.2,159.9 444.4,159.9 445.6,159.9 446.8,159.9 448.0,159.9 449.2,159.9 450.3,159.9 451.5,159.9 452.7,159.9 453.9,159.9 455.1,159.9 456.3,159.9 457.5,159.9 458.7,159.9 459.8,159.9 461.0,159.9 462.2,159.9 463.4,159.9 464.6,159.9 465.8,159.9 467.0,159.9 468.1,159.9 469.3,159.9 470.5,159.9 471.7,159.9 472.9,159.9 474.1,159.9 475.3,159.9 476.5,159.9 477.6,159.9 478.8,159.9 480.0,159.9 481.2,159.9 482.4,159.9 483.6,159.9 484.8,159.9 485.9,159.9 487.1,159.9 488.3,159.9 489.5,159.9 490.7,159.9 491.9,159.9 493.1,159.9 494.3,159.9 495.4,159.9 496.6,159.9 497.8,159.9 499.0,159.9 500.2,159.9 501.4,159.9 502.6,159.9 503.7,159.9 504.9,159.9 506.1,159.9 507.3,159.9 508.5,159.9 509.7,159.9 510.9,159.9 512.1,159.9 513.2,159.9 514.4,159.9 515.6,159.9 516.8,159.9 518.0,159.9 519.2,159.9 520.4,159.9 521.5,159.9 522.7,159.9 523.9,159.9 525.1,159.9 526.3,159.9 527.5,159.9 528.7,159.9 529.9,159.9 531.0,159.9 532.2,159.9 533.4,159.9 534.6,159.9 535.8,159.9 537.0,159.9 538.2,159.9 539.3,159.9 540.5,159.9 541.7,159.9 542.9,159.9 544.1,159.9 545.3,159.9 546.5,159.9 547.7,159.9 548.8,159.9 550.0,159.9 551.2,159.9 552.4,159.9 553.6,159.9 554.8,159.9 556.0,159.9 557.1,159.9 558.3,159.9 559.5,159.9 560.7,159.9 561.9,159.9 563.1,159.9 564.3,159.9 565.5,159.9 566.6,159.9 567.8,159.9 569.0,159.9 570.2,159.9 571.4,159.9 572.6,159.9 573.8,159.9 574.9,159.9 576.1,159.9 577.3,159.9 578.5,159.9 579.7,159.9 580.9,159.9 582.1,159.9 583.3,159.9 584.4,159.9 585.6,159.9 586.8,159.9 588.0,159.9 589.2,159.9 590.4,159.9 591.6,159.9 592.7,159.9 593.9,159.9 595.1,159.9 596.3,159.9 597.5,159.9 598.7,159.9 599.9,159.9 601.1,159.9 602.2,159.9 603.4,159.9 604.6,159.9 605.8,159.9 607.0,159.9 608.2,159.9 609.4,159.9 610.5,159.9 611.7,159.9 612.9,159.9 614.1,159.9 615.3,159.9 616.5,159.9 617.7,159.9 618.9,159.9 620.0,159.9 621.2,159.9 622.4,159.9 623.6,159.9 624.8,159.9 626.0,159.9 627.2,159.9 628.3,159.9 629.5,159.9 630.7,159.9 631.9,159.9 633.1,159.9 634.3,159.9 635.5,159.9 636.7,159.9 637.8,159.9 639.0,159.9 640.2,159.9 641.4,159.9 642.6,159.9 643.8,159.9 645.0,159.9 646.1,159.9 647.3,159.9 648.5,159.9 649.7,159.9 650.9,159.9 652.1,159.9 653.3,159.9 654.5,159.9 655.6,159.9 656.8,159.9 658.0,159.9 659.2,159.9 660.4,159.9 661.6,159.9 662.8,159.9 663.9,159.9 665.1,159.9 666.3,159.9 667.5,159.9 668.7,159.9 669.9,159.9 671.1,159.9 672.3,159.9 673.4,159.9 674.6,159.9 675.8,159.9 677.0,159.9 678.2,159.9 679.4,159.9 680.6,159.9 681.7,159.9 682.9,159.9 684.1,159.9 685.3,159.9 686.5,159.9 687.7,159.9 688.9,159.9 690.1,159.9 691.2,159.9 692.4,159.9 693.6,159.9 694.8,159.9 696.0,159.9 697.2,159.9 698.4,159.9 699.5,159.9 700.7,159.9 701.9,159.9 703.1,159.9 704.3,159.9 705.5,159.9 706.7,159.9 707.9,159.9 709.0,159.9 710.2,159.9 711.4,159.9 712.6,159.9 713.8,159.9 715.0,159.9 716.2,159.9 717.3,159.9 718.5,159.9 719.7,159.9 720.9,159.9 722.1,159.9 723.3,159.9 724.5,159.9 725.7,159.9 726.8,159.9 728.0,159.9 729.2,159.9 730.4,159.9 731.6,159.9 732.8,159.9 734.0,159.9 735.1,159.9 736.3,159.9 737.5,159.9 738.7,159.9 739.9,159.9 741.1,159.9 742.3,159.9 743.5,159.9 744.6,159.9 745.8,159.9 747.0,159.9 748.2,159.9 749.4,159.9 750.6,159.9 751.8,159.9 752.9,159.9 754.1,159.9 755.3,159.9 756.5,159.9 757.7,159.9 758.9,159.9 760.1,159.9 761.3,159.9 762.4,159.9 763.6,159.9 764.8,159.9 766.0,159.9"/>
<line x1="606" y1="42" x2="628" y2="42" stroke="#0f62fe" stroke-width="2.2"/>
<text x="634" y="46" font-family="Arial" font-size="12">heading_command_deg</text>
<polyline fill="none" stroke="#24a148" stroke-width="2.2" points="54.0,159.9 55.2,159.9 56.4,159.9 57.6,159.9 58.7,159.9 59.9,159.9 61.1,159.9 62.3,159.9 63.5,159.9 64.7,159.9 65.9,159.9 67.1,160.0 68.2,160.0 69.4,160.0 70.6,160.0 71.8,160.0 73.0,160.0 74.2,160.0 75.4,160.0 76.5,160.0 77.7,160.0 78.9,160.0 80.1,160.0 81.3,160.0 82.5,160.0 83.7,160.0 84.9,160.0 86.0,160.0 87.2,160.0 88.4,160.0 89.6,160.0 90.8,160.0 92.0,160.0 93.2,160.0 94.3,160.0 95.5,160.0 96.7,160.0 97.9,160.0 99.1,160.0 100.3,160.0 101.5,160.0 102.7,160.0 103.8,160.0 105.0,160.0 106.2,160.0 107.4,160.0 108.6,160.0 109.8,160.0 111.0,160.0 112.1,160.0 113.3,160.0 114.5,160.0 115.7,160.0 116.9,160.1 118.1,160.1 119.3,160.1 120.5,160.1 121.6,160.1 122.8,160.1 124.0,160.1 125.2,160.1 126.4,160.1 127.6,160.1 128.8,160.1 129.9,160.1 131.1,160.1 132.3,160.1 133.5,160.1 134.7,160.1 135.9,160.1 137.1,160.1 138.3,160.1 139.4,160.1 140.6,160.1 141.8,160.1 143.0,160.1 144.2,160.1 145.4,160.1 146.6,160.1 147.7,160.1 148.9,160.1 150.1,160.2 151.3,160.2 152.5,160.2 153.7,160.2 154.9,160.2 156.1,160.2 157.2,160.2 158.4,160.2 159.6,160.2 160.8,160.2 162.0,160.2 163.2,160.2 164.4,160.2 165.5,160.2 166.7,160.2 167.9,160.2 169.1,160.3 170.3,160.3 171.5,160.3 172.7,160.3 173.9,160.3 175.0,160.3 176.2,160.3 177.4,160.3 178.6,160.3 179.8,160.3 181.0,160.4 182.2,160.4 183.3,160.4 184.5,160.4 185.7,160.4 186.9,160.4 188.1,160.4 189.3,160.5 190.5,160.5 191.7,160.5 192.8,160.5 194.0,160.5 195.2,160.6 196.4,160.6 197.6,160.6 198.8,160.6 200.0,160.6 201.1,160.7 202.3,160.7 203.5,160.7 204.7,160.8 205.9,160.8 207.1,160.8 208.3,160.9 209.5,160.9 210.6,160.9 211.8,161.0 213.0,161.0 214.2,161.0 215.4,161.1 216.6,161.1 217.8,161.2 218.9,161.2 220.1,161.3 221.3,161.3 222.5,161.4 223.7,161.5 224.9,161.6 226.1,161.6 227.3,161.7 228.4,161.8 229.6,161.9 230.8,161.9 232.0,162.0 233.2,162.1 234.4,162.2 235.6,162.3 236.7,162.5 237.9,162.5 239.1,162.7 240.3,162.8 241.5,163.0 242.7,163.1 243.9,163.3 245.1,163.4 246.2,163.6 247.4,163.7 248.6,164.0 249.8,164.1 251.0,164.4 252.2,164.5 253.4,164.8 254.5,165.0 255.7,165.3 256.9,165.5 258.1,165.8 259.3,166.0 260.5,166.4 261.7,166.6 262.9,167.0 264.0,167.3 265.2,167.8 266.4,168.1 267.6,168.6 268.8,168.9 270.0,169.3 271.2,169.5 272.3,169.9 273.5,170.3 274.7,170.7 275.9,170.9 277.1,171.2 278.3,171.6 279.5,171.8 280.7,172.3 281.8,172.5 283.0,172.9 284.2,173.1 285.4,173.5 286.6,173.6 287.8,174.0 289.0,174.1 290.1,174.5 291.3,174.6 292.5,174.8 293.7,174.7 294.9,174.8 296.1,174.6 297.3,174.8 298.5,174.7 299.6,174.9 300.8,174.8 302.0,175.1 303.2,175.1 304.4,175.4 305.6,175.4 306.8,175.8 307.9,175.8 309.1,176.2 310.3,176.3 311.5,176.6 312.7,176.7 313.9,177.1 315.1,177.1 316.3,177.4 317.4,177.3 318.6,177.6 319.8,177.5 321.0,177.7 322.2,177.6 323.4,177.9 324.6,177.8 325.7,178.1 326.9,178.0 328.1,178.4 329.3,178.4 330.5,178.8 331.7,178.8 332.9,179.3 334.1,179.3 335.2,179.7 336.4,179.7 337.6,180.0 338.8,180.0 340.0,180.3 341.2,180.2 342.4,180.5 343.5,180.3 344.7,180.6 345.9,180.5 347.1,180.8 348.3,180.7 349.5,181.1 350.7,181.1 351.9,181.5 353.0,181.5 354.2,181.9 355.4,182.1 356.6,182.7 357.8,182.8 359.0,183.3 360.2,183.4 361.3,183.7 362.5,183.5 363.7,183.8 364.9,183.6 366.1,183.9 367.3,183.7 368.5,184.0 369.7,183.9 370.8,184.3 372.0,184.3 373.2,184.8 374.4,184.8 375.6,185.3 376.8,185.3 378.0,185.8 379.1,185.9 380.3,186.5 381.5,186.5 382.7,187.1 383.9,187.1 385.1,187.5 386.3,187.3 387.5,187.6 388.6,187.5 389.8,187.8 391.0,187.8 392.2,188.2 393.4,188.2 394.6,188.7 395.8,188.7 396.9,189.2 398.1,189.3 399.3,189.8 400.5,189.9 401.7,190.6 402.9,190.7 404.1,191.3 405.3,191.3 406.4,191.8 407.6,191.7 408.8,192.1 410.0,192.0 411.2,192.5 412.4,192.5 413.6,193.0 414.7,193.0 415.9,193.5 417.1,193.5 418.3,194.0 419.5,194.2 420.7,194.8 421.9,194.9 423.1,195.5 424.2,195.6 425.4,196.3 426.6,196.4 427.8,196.9 429.0,196.9 430.2,197.5 431.4,197.5 432.5,198.0 433.7,198.1 434.9,198.5 436.1,198.6 437.3,199.0 438.5,199.3 439.7,199.7 440.9,200.0 442.0,200.4 443.2,200.8 444.4,201.3 445.6,201.7 446.8,202.1 448.0,202.6 449.2,203.0 450.3,203.3 451.5,203.7 452.7,204.0 453.9,204.4 455.1,204.7 456.3,205.0 457.5,205.3 458.7,205.7 459.8,206.0 461.0,206.4 462.2,206.8 463.4,207.2 464.6,207.6 465.8,208.0 467.0,208.5 468.1,209.0 469.3,209.5 470.5,210.1 471.7,210.7 472.9,211.3 474.1,211.9 475.3,212.5 476.5,213.1 477.6,213.7 478.8,214.3 480.0,214.9 481.2,215.5 482.4,216.2 483.6,216.9 484.8,217.6 485.9,218.4 487.1,219.2 488.3,220.1 489.5,221.0 490.7,222.0 491.9,223.0 493.1,224.1 494.3,225.2 495.4,226.4 496.6,227.5 497.8,228.7 499.0,229.8 500.2,230.9 501.4,232.1 502.6,233.2 503.7,234.4 504.9,235.6 506.1,236.7 507.3,237.9 508.5,239.1 509.7,240.2 510.9,241.4 512.1,242.6 513.2,243.8 514.4,245.0 515.6,246.2 516.8,247.4 518.0,248.6 519.2,249.8 520.4,251.1 521.5,252.3 522.7,253.5 523.9,254.8 525.1,256.0 526.3,257.3 527.5,258.5 528.7,259.8 529.9,261.1 531.0,262.4 532.2,263.7 533.4,265.0 534.6,54.2 535.8,55.5 537.0,56.8 538.2,58.1 539.3,59.3 540.5,60.3 541.7,60.9 542.9,61.0 544.1,60.8 545.3,60.3 546.5,59.7 547.7,59.1 548.8,58.5 550.0,57.9 551.2,57.3 552.4,56.7 553.6,56.1 554.8,55.5 556.0,54.8 557.1,54.0 558.3,265.3 559.5,264.5 560.7,263.7 561.9,263.0 563.1,262.7 564.3,262.8 565.5,263.6 566.6,264.7 567.8,266.0 569.0,55.1 570.2,56.3 571.4,57.5 572.6,58.7 573.8,59.9 574.9,61.1 576.1,62.4 577.3,63.7 578.5,65.2 579.7,66.7 580.9,68.3 582.1,70.1 583.3,72.2 584.4,74.6 585.6,77.6 586.8,81.5 588.0,87.1 589.2,95.8 590.4,109.3 591.6,127.0 592.7,142.3 593.9,152.2 595.1,159.0 596.3,164.3 597.5,168.9 598.7,173.2 599.9,177.3 601.1,181.4 602.2,185.4 603.4,189.5 604.6,193.8 605.8,198.5 607.0,203.5 608.2,208.7 609.4,213.4 610.5,217.6 611.7,221.2 612.9,224.2 614.1,226.5 615.3,228.2 616.5,229.3 617.7,229.8 618.9,229.8 620.0,229.2 621.2,228.3 622.4,226.8 623.6,224.9 624.8,222.5 626.0,219.4 627.2,215.8 628.3,212.2 629.5,209.0 630.7,206.2 631.9,203.8 633.1,202.0 634.3,200.6 635.5,199.3 636.7,198.2 637.8,197.1 639.0,196.3 640.2,196.0 641.4,196.5 642.6,197.5 643.8,199.2 645.0,201.4 646.1,203.8 647.3,206.3 648.5,208.6 649.7,210.5 650.9,212.0 652.1,212.9 653.3,213.2 654.5,213.0 655.6,212.2 656.8,210.9 658.0,209.1 659.2,207.0 660.4,204.7 661.6,202.7 662.8,200.9 663.9,199.4 665.1,198.0 666.3,196.9 667.5,195.7 668.7,194.6 669.9,193.5 671.1,192.3 672.3,191.1 673.4,189.9 674.6,188.6 675.8,187.4 677.0,186.2 678.2,185.1 679.4,184.0 680.6,183.0 681.7,182.0 682.9,181.0 684.1,180.0 685.3,178.9 686.5,177.8 687.7,176.6 688.9,175.4 690.1,174.3 691.2,173.1 692.4,171.9 693.6,170.8 694.8,169.6 696.0,168.5 697.2,167.4 698.4,166.2 699.5,165.1 700.7,163.9 701.9,162.7 703.1,161.5 704.3,160.1 705.5,158.8 706.7,157.3 707.9,155.6 709.0,153.8 710.2,151.6 711.4,149.0 712.6,145.9 713.8,141.8 715.0,136.5 716.2,129.4 717.3,120.0 718.5,109.0 719.7,98.1 720.9,89.1 722.1,82.3 723.3,77.3 724.5,73.7 725.7,70.9 726.8,68.5 728.0,66.4 729.2,64.5 730.4,63.0 731.6,61.7 732.8,60.7 734.0,59.8 735.1,59.2 736.3,58.8 737.5,58.5 738.7,58.5 739.9,58.5 741.1,58.7 742.3,59.1 743.5,59.5 744.6,60.0 745.8,60.5 747.0,61.1 748.2,61.7 749.4,62.3 750.6,63.0 751.8,63.6 752.9,64.1 754.1,64.7 755.3,65.2 756.5,65.6 757.7,66.0 758.9,66.4 760.1,66.8 761.3,67.2 762.4,67.7 763.6,68.1 764.8,68.7 766.0,69.2"/>
<line x1="606" y1="60" x2="628" y2="60" stroke="#24a148" stroke-width="2.2"/>
<text x="634" y="64" font-family="Arial" font-size="12">yaw_deg</text>
</svg>