<svg xmlns="http://www.w3.org/2000/svg" width="820" height="320" viewBox="0 0 820 320">
<rect width="100%" height="100%" fill="#ffffff"/>
<text x="54" y="28" font-family="Arial" font-size="18" font-weight="700">Specific Energy</text>
<line x1="54" y1="266" x2="766" y2="266" stroke="#1f2933"/>
<line x1="54" y1="54" x2="54" y2="266" stroke="#1f2933"/>
<text x="54" y="306" font-family="Arial" font-size="12">time (s)</text>
<text x="596" y="306" font-family="Arial" font-size="12">J/kg</text>
<text x="58" y="68" font-family="Arial" font-size="11">2.02e+04</text>
<text x="58" y="260" font-family="Arial" font-size="11">2.92e+03</text>
<polyline fill="none" stroke="#0f62fe" stroke-width="2.2" points="54.0,254.7 55.2,254.1 56.4,253.6 57.6,253.0 58.7,252.5 59.9,251.9 61.1,251.3 62.3,250.7 63.5,250.1 64.7,249.5 65.9,248.8 67.1,248.2 68.2,247.5 69.4,246.8 70.6,246.1 71.8,245.4 73.0,244.7 74.2,244.0 75.4,243.3 76.5,242.6 77.7,241.9 78.9,241.2 80.1,240.5 81.3,239.7 82.5,239.0 83.7,238.3 84.9,237.6 86.0,236.8 87.2,236.1 88.4,235.3 89.6,234.6 90.8,233.8 92.0,233.1 93.2,232.3 94.3,231.6 95.5,230.8 96.7,230.1 97.9,229.3 99.1,228.5 100.3,227.7 101.5,227.0 102.7,226.2 103.8,225.4 105.0,224.6 106.2,223.8 107.4,223.1 108.6,222.3 109.8,221.5 111.0,220.7 112.1,219.9 113.3,219.1 114.5,218.3 115.7,217.4 116.9,216.6 118.1,215.8 119.3,215.0 120.5,214.2 121.6,213.4 122.8,212.5 124.0,211.7 125.2,210.9 126.4,210.0 127.6,209.2 128.8,208.4 129.9,207.5 131.1,206.7 132.3,205.8 133.5,205.0 134.7,204.1 135.9,203.3 137.1,202.4 138.3,201.6 139.4,200.7 140.6,199.8 141.8,199.0 143.0,198.1 144.2,197.2 145.4,196.4 146.6,195.5 147.7,194.6 148.9,193.7 150.1,192.9 151.3,192.0 152.5,191.1 153.7,190.2 154.9,189.3 156.1,188.4 157.2,187.5 158.4,186.6 159.6,185.7 160.8,184.8 162.0,183.9 163.2,183.0 164.4,182.1 165.5,181.2 166.7,180.3 167.9,179.4 169.1,178.5 170.3,177.6 171.5,176.6 172.7,175.7 173.9,174.8 175.0,173.9 176.2,173.0 177.4,172.0 178.6,171.1 179.8,170.2 181.0,169.3 182.2,168.3 183.3,167.4 184.5,166.5 185.7,165.5 186.9,164.6 188.1,163.7 189.3,162.7 190.5,161.8 191.7,160.9 192.8,159.9 194.0,159.0 195.2,158.0 196.4,157.1 197.6,156.2 198.8,155.2 200.0,154.3 201.1,153.3 202.3,152.4 203.5,151.4 204.7,150.5 205.9,149.5 207.1,148.6 208.3,147.6 209.5,146.7 210.6,145.7 211.8,144.8 213.0,143.8 214.2,142.9 215.4,141.9 216.6,140.9 217.8,140.0 218.9,139.0 220.1,138.0 221.3,137.1 222.5,136.1 223.7,135.2 224.9,134.2 226.1,133.3 227.3,132.3 228.4,131.3 229.6,130.4 230.8,129.4 232.0,128.4 233.2,127.5 234.4,126.5 235.6,125.6 236.7,124.6 237.9,123.6 239.1,122.7 240.3,121.7 241.5,120.7 242.7,119.8 243.9,118.8 245.1,117.9 246.2,116.9 247.4,115.9 248.6,115.0 249.8,114.0 251.0,113.1 252.2,112.1 253.4,111.1 254.5,110.2 255.7,109.2 256.9,108.3 258.1,107.4 259.3,106.4 260.5,105.5 261.7,104.6 262.9,103.6 264.0,102.7 265.2,101.8 266.4,100.9 267.6,100.0 268.8,99.2 270.0,98.4 271.2,97.6 272.3,96.8 273.5,96.1 274.7,95.3 275.9,94.6 277.1,93.9 278.3,93.1 279.5,92.5 280.7,91.8 281.8,91.2 283.0,90.5 284.2,90.0 285.4,89.4 286.6,88.9 287.8,88.3 289.0,87.8 290.1,87.2 291.3,86.8 292.5,86.3 293.7,85.9 294.9,85.3 296.1,84.8 297.3,84.3 298.5,83.7 299.6,83.1 300.8,82.6 302.0,82.0 303.2,81.6 304.4,81.0 305.6,80.5 306.8,80.0 307.9,79.6 309.1,79.0 310.3,78.6 311.5,78.0 312.7,77.6 313.9,77.1 315.1,76.6 316.3,76.1 317.4,75.7 318.6,75.2 319.8,74.8 321.0,74.4 322.2,74.0 323.4,73.5 324.6,73.1 325.7,72.6 326.9,72.2 328.1,71.7 329.3,71.3 330.5,70.8 331.7,70.4 332.9,70.0 334.1,69.6 335.2,69.1 336.4,68.7 337.6,68.3 338.8,67.9 340.0,67.5 341.2,67.1 342.4,66.7 343.5,66.3 344.7,65.8 345.9,65.5 347.1,65.0 348.3,64.6 349.5,64.1 350.7,63.7 351.9,63.3 353.0,62.9 354.2,62.5 355.4,62.1 356.6,61.7 357.8,61.4 359.0,61.2 360.2,61.0 361.3,60.8 362.5,60.6 363.7,60.3 364.9,60.1 366.1,59.8 367.3,59.5 368.5,59.1 369.7,58.8 370.8,58.4 372.0,58.1 373.2,57.7 374.4,57.4 375.6,57.1 376.8,56.9 378.0,56.6 379.1,56.4 380.3,56.1 381.5,56.0 382.7,55.8 383.9,55.8 385.1,55.7 386.3,55.6 387.5,55.5 388.6,55.4 389.8,55.1 391.0,55.0 392.2,54.8 393.4,54.7 394.6,54.5 395.8,54.4 396.9,54.2 398.1,54.2 399.3,54.0 400.5,54.0 401.7,54.0 402.9,54.1 404.1,54.2 405.3,54.5 406.4,54.6 407.6,54.9 408.8,55.0 410.0,55.3 411.2,55.4 412.4,55.6 413.6,55.8 414.7,56.0 415.9,56.2 417.1,56.5 418.3,56.6 419.5,56.9 420.7,57.2 421.9,57.6 423.1,58.0 424.2,58.5 425.4,59.0 426.6,59.6 427.8,60.1 429.0,60.8 430.2,61.4 431.4,62.1 432.5,62.7 433.7,63.4 434.9,64.1 436.1,64.7 437.3,65.4 438.5,66.1 439.7,66.8 440.9,67.5 442.0,68.3 443.2,69.1 444.4,70.0 445.6,70.9 446.8,71.9 448.0,72.9 449.2,74.0 450.3,75.1 451.5,76.2 452.7,77.4 453.9,78.5 455.1,79.7 456.3,80.9 457.5,82.0 458.7,83.2 459.8,84.4 461.0,85.5 462.2,86.7 463.4,87.9 464.6,89.1 465.8,90.3 467.0,91.6 468.1,92.9 469.3,94.2 470.5,95.5 471.7,96.7 472.9,98.0 474.1,99.3 475.3,100.5 476.5,101.8 477.6,103.0 478.8,104.3 480.0,105.5 481.2,106.7 482.4,108.0 483.6,109.2 484.8,110.4 485.9,111.7 487.1,112.9 488.3,114.1 489.5,115.4 490.7,116.6 491.9,117.9 493.1,119.2 494.3,120.5 495.4,121.9 496.6,123.3 497.8,124.7 499.0,126.1 500.2,127.5 501.4,129.0 502.6,130.5 503.7,132.0 504.9,133.5 506.1,135.0 507.3,136.6 508.5,138.1 509.7,139.7 510.9,141.3 512.1,142.9 513.2,144.5 514.4,146.1 515.6,147.7 516.8,149.3 518.0,150.9 519.2,152.6 520.4,154.2 521.5,155.8 522.7,157.5 523.9,159.1 525.1,160.7 526.3,162.4 527.5,164.0 528.7,165.6 529.9,167.3 531.0,168.9 532.2,170.5 533.4,172.1 534.6,173.7 535.8,175.3 537.0,176.9 538.2,178.5 539.3,180.1 540.5,181.7 541.7,183.2 542.9,184.8 544.1,186.3 545.3,187.8 546.5,189.2 547.7,190.6 548.8,191.9 550.0,193.2 551.2,194.4 552.4,195.6 553.6,196.8 554.8,197.9 556.0,198.9 557.1,200.0 558.3,201.0 559.5,201.9 560.7,202.8 561.9,203.7 563.1,204.5 564.3,205.3 565.5,206.0 566.6,206.8 567.8,207.5 569.0,208.3 570.2,209.2 571.4,210.0 572.6,210.8 573.8,211.6 574.9,212.3 576.1,213.1 577.3,213.8 578.5,214.6 579.7,215.3 580.9,216.1 582.1,216.8 583.3,217.5 584.4,218.2 585.6,218.9 586.8,219.6 588.0,220.3 589.2,221.0 590.4,221.7 591.6,222.3 592.7,223.0 593.9,223.6 595.1,224.3 596.3,224.9 597.5,225.5 598.7,226.1 599.9,226.7 601.1,227.3 602.2,227.8 603.4,228.3 604.6,228.7 605.8,229.1 607.0,229.6 608.2,230.0 609.4,230.2 610.5,230.4 611.7,230.7 612.9,231.1 614.1,231.5 615.3,231.9 616.5,232.3 617.7,232.7 618.9,233.1 620.0,233.5 621.2,233.9 622.4,234.2 623.6,234.5 624.8,234.7 626.0,234.9 627.2,235.1 628.3,235.1 629.5,235.2 630.7,235.3 631.9,235.6 633.1,235.8 634.3,236.2 635.5,236.5 636.7,236.9 637.8,237.2 639.0,237.6 640.2,237.9 641.4,238.2 642.6,238.6 643.8,238.9 645.0,239.2 646.1,239.4 647.3,239.6 648.5,239.7 649.7,239.8 650.9,239.8 652.1,239.9 653.3,240.0 654.5,240.0 655.6,240.1 656.8,240.2 658.0,240.2 659.2,240.3 660.4,240.4 661.6,240.5 662.8,240.6 663.9,240.8 665.1,241.1 666.3,241.3 667.5,241.6 668.7,241.9 669.9,242.2 671.1,242.5 672.3,242.8 673.4,243.1 674.6,243.4 675.8,243.7 677.0,244.0 678.2,244.3 679.4,244.6 680.6,244.9 681.7,245.2 682.9,245.5 684.1,245.8 685.3,246.2 686.5,246.5 687.7,246.8 688.9,247.1 690.1,247.5 691.2,247.8 692.4,248.1 693.6,248.5 694.8,248.8 696.0,249.1 697.2,249.5 698.4,249.8 699.5,250.1 700.7,250.5 701.9,250.8 703.1,251.1 704.3,251.5 705.5,251.8 706.7,252.1 707.9,252.4 709.0,252.7 710.2,253.0 711.4,253.4 712.6,253.7 713.8,254.0 715.0,254.3 716.2,254.6 717.3,254.9 718.5,255.2 719.7,255.5 720.9,255.8 722.1,256.0 723.3,256.3 724.5,256.6 725.7,256.9 726.8,257.2 728.0,257.5 729.2,257.8 730.4,258.0 731.6,258.3 732.8,258.6 734.0,258.9 735.1,259.1 736.3,259.4 737.5,259.7 738.7,259.9 739.9,260.2 741.1,260.5 742.3,260.8 743.5,261.0 744.6,261.3 745.8,261.6 747.0,261.8 748.2,262.1 749.4,262.4 750.6,262.6 751.8,262.9 752.9,263.1 754.1,263.4 755.3,263.7 756.5,263.9 757.7,264.2 758.9,264.4 760.1,264.7 761.3,265.0 762.4,265.2 763.6,265.5 764.8,265.7 766.0,266.0"/>
<line x1="606" y1="42" x2="628" y2="42" stroke="#0f62fe" stroke-width="2.2"/>
<text x="634" y="46" font-family="Arial" font-size="12">energy_j_per_kg</text>
</svg>