<svg xmlns="http://www.w3.org/2000/svg" width="820" height="320" viewBox="0 0 820 320">
<rect width="100%" height="100%" fill="#ffffff"/>
<text x="54" y="28" font-family="Arial" font-size="18" font-weight="700">Velocity X</text>
<line x1="54" y1="266" x2="766" y2="266" stroke="#1f2933"/>
<line x1="54" y1="54" x2="54" y2="266" stroke="#1f2933"/>
<text x="54" y="306" font-family="Arial" font-size="12">time (s)</text>
<text x="596" y="306" font-family="Arial" font-size="12">vx (m/s)</text>
<text x="58" y="68" font-family="Arial" font-size="11">118</text>
<text x="58" y="260" font-family="Arial" font-size="11">16.5</text>
<polyline fill="none" stroke="#0f62fe" stroke-width="2.2" points="54.0,116.8 55.2,115.7 56.4,114.6 57.6,113.5 58.7,112.4 59.9,111.2 61.1,110.1 62.3,108.9 63.5,107.8 64.7,106.6 65.9,105.4 67.1,104.2 68.2,103.0 69.4,101.8 70.6,100.6 71.8,99.4 73.0,98.3 74.2,97.1 75.4,96.0 76.5,95.0 77.7,94.0 78.9,93.0 80.1,92.0 81.3,91.1 82.5,90.2 83.7,89.3 84.9,88.4 86.0,87.6 87.2,86.7 88.4,85.8 89.6,84.9 90.8,84.0 92.0,83.1 93.2,82.1 94.3,81.0 95.5,80.0 96.7,78.9 97.9,77.7 99.1,76.6 100.3,75.4 101.5,74.1 102.7,72.9 103.8,71.6 105.0,70.4 106.2,69.1 107.4,67.9 108.6,66.6 109.8,65.4 111.0,64.2 112.1,63.0 113.3,61.8 114.5,60.6 115.7,59.4 116.9,58.1 118.1,56.9 119.3,55.8 120.5,54.9 121.6,54.4 122.8,54.1 124.0,54.0 125.2,54.1 126.4,54.4 127.6,54.9 128.8,55.7 129.9,56.6 131.1,57.6 132.3,58.5 133.5,58.8 134.7,59.5 135.9,60.2 137.1,60.8 138.3,61.2 139.4,61.5 140.6,61.5 141.8,61.4 143.0,61.1 144.2,60.9 145.4,60.7 146.6,60.8 147.7,61.0 148.9,61.5 150.1,62.1 151.3,62.8 152.5,63.6 153.7,64.3 154.9,64.9 156.1,65.4 157.2,65.7 158.4,65.8 159.6,65.9 160.8,66.0 162.0,66.1 163.2,66.4 164.4,66.8 165.5,67.3 166.7,67.8 167.9,68.3 169.1,68.8 170.3,69.1 171.5,69.3 172.7,69.3 173.9,69.2 175.0,69.0 176.2,69.0 177.4,69.1 178.6,69.4 179.8,69.9 181.0,70.5 182.2,71.3 183.3,72.0 184.5,72.6 185.7,73.1 186.9,73.4 188.1,73.5 189.3,73.3 190.5,72.8 191.7,72.3 192.8,71.6 194.0,71.1 195.2,70.9 196.4,71.1 197.6,71.7 198.8,72.7 200.0,74.0 201.1,75.3 202.3,76.4 203.5,77.4 204.7,78.1 205.9,78.5 207.1,78.4 208.3,78.0 209.5,76.9 210.6,75.7 211.8,74.9 213.0,74.6 214.2,74.6 215.4,75.2 216.6,76.2 217.8,77.6 218.9,79.3 220.1,80.9 221.3,82.5 222.5,83.9 223.7,85.1 224.9,85.9 226.1,86.3 227.3,86.1 228.4,85.0 229.6,83.7 230.8,83.1 232.0,82.9 233.2,83.3 234.4,84.2 235.6,85.5 236.7,87.1 237.9,89.0 239.1,91.0 240.3,92.8 241.5,94.8 242.7,96.8 243.9,98.8 245.1,100.6 246.2,102.2 247.4,103.3 248.6,103.9 249.8,103.9 251.0,103.4 252.2,102.1 253.4,101.0 254.5,100.6 255.7,100.7 256.9,101.4 258.1,102.4 259.3,103.9 260.5,105.6 261.7,107.6 262.9,109.7 264.0,111.7 265.2,113.6 266.4,115.3 267.6,116.7 268.8,117.7 270.0,118.2 271.2,118.4 272.3,118.4 273.5,117.7 274.7,117.3 275.9,117.1 277.1,117.1 278.3,117.5 279.5,118.3 280.7,119.6 281.8,121.2 283.0,123.0 284.2,124.6 285.4,126.5 286.6,128.4 287.8,130.1 289.0,131.7 290.1,132.9 291.3,133.6 292.5,133.7 293.7,133.1 294.9,132.5 296.1,131.9 297.3,131.6 298.5,131.9 299.6,132.6 300.8,133.8 302.0,135.4 303.2,136.9 304.4,138.6 305.6,140.4 306.8,142.2 307.9,144.0 309.1,145.7 310.3,147.1 311.5,148.0 312.7,148.3 313.9,148.4 315.1,148.2 316.3,147.7 317.4,147.1 318.6,146.5 319.8,146.2 321.0,146.2 322.2,146.5 323.4,147.1 324.6,147.9 325.7,149.0 326.9,150.0 328.1,151.2 329.3,152.6 330.5,154.1 331.7,155.6 332.9,157.2 334.1,158.9 335.2,160.6 336.4,162.3 337.6,164.1 338.8,165.6 340.0,167.1 341.2,168.5 342.4,169.9 343.5,171.1 344.7,172.2 345.9,173.2 347.1,173.9 348.3,174.5 349.5,174.8 350.7,174.8 351.9,174.5 353.0,174.0 354.2,173.2 355.4,172.2 356.6,171.1 357.8,170.0 359.0,168.6 360.2,167.5 361.3,166.6 362.5,165.7 363.7,165.0 364.9,164.4 366.1,163.9 367.3,163.5 368.5,163.2 369.7,163.2 370.8,163.2 372.0,163.3 373.2,163.4 374.4,163.4 375.6,163.7 376.8,164.0 378.0,164.2 379.1,164.2 380.3,164.1 381.5,163.8 382.7,163.2 383.9,162.4 385.1,161.4 386.3,160.2 387.5,159.0 388.6,157.8 389.8,156.6 391.0,155.8 392.2,155.4 393.4,155.2 394.6,155.4 395.8,156.0 396.9,157.0 398.1,158.3 399.3,159.7 400.5,161.1 401.7,162.6 402.9,164.0 404.1,165.3 405.3,166.3 406.4,167.2 407.6,167.8 408.8,168.1 410.0,168.1 411.2,167.8 412.4,167.0 413.6,166.0 414.7,164.8 415.9,163.4 417.1,162.0 418.3,160.9 419.5,160.4 420.7,160.4 421.9,160.7 423.1,161.3 424.2,162.1 425.4,163.1 426.6,164.3 427.8,165.7 429.0,167.0 430.2,168.4 431.4,169.8 432.5,171.1 433.7,172.4 434.9,173.6 436.1,174.8 437.3,176.0 438.5,177.1 439.7,178.3 440.9,179.4 442.0,180.6 443.2,181.6 444.4,182.4 445.6,183.1 446.8,183.5 448.0,183.6 449.2,183.9 450.3,183.9 451.5,183.6 452.7,183.1 453.9,182.2 455.1,181.1 456.3,179.9 457.5,178.5 458.7,177.1 459.8,176.1 461.0,175.7 462.2,175.7 463.4,175.9 464.6,176.3 465.8,177.0 467.0,177.8 468.1,178.8 469.3,180.0 470.5,181.2 471.7,182.5 472.9,183.8 474.1,185.2 475.3,186.6 476.5,187.9 477.6,189.3 478.8,190.6 480.0,191.9 481.2,193.1 482.4,194.1 483.6,195.1 484.8,195.9 485.9,196.3 487.1,196.1 488.3,195.4 489.5,194.4 490.7,193.3 491.9,192.0 493.1,190.7 494.3,189.4 495.4,188.2 496.6,186.9 497.8,185.7 499.0,184.5 500.2,183.4 501.4,182.3 502.6,181.3 503.7,180.3 504.9,179.3 506.1,178.5 507.3,177.8 508.5,177.2 509.7,176.9 510.9,176.8 512.1,177.1 513.2,177.5 514.4,178.3 515.6,179.2 516.8,180.3 518.0,181.6 519.2,183.0 520.4,184.5 521.5,186.1 522.7,187.7 523.9,189.0 525.1,190.2 526.3,191.0 527.5,191.5 528.7,191.4 529.9,191.6 531.0,192.2 532.2,192.6 533.4,192.6 534.6,192.4 535.8,192.1 537.0,191.5 538.2,190.9 539.3,190.8 540.5,191.1 541.7,191.7 542.9,192.6 544.1,194.0 545.3,195.7 546.5,197.6 547.7,199.6 548.8,201.2 550.0,203.1 551.2,205.1 552.4,206.9 553.6,208.5 554.8,209.7 556.0,210.5 557.1,210.8 558.3,210.5 559.5,209.6 560.7,208.4 561.9,207.8 563.1,208.0 564.3,208.8 565.5,208.6 566.6,209.6 567.8,211.1 569.0,212.9 570.2,213.3 571.4,213.7 572.6,214.3 573.8,215.0 574.9,215.7 576.1,216.1 577.3,216.1 578.5,216.3 579.7,216.8 580.9,217.5 582.1,218.4 583.3,219.5 584.4,219.5 585.6,219.7 586.8,220.0 588.0,220.1 589.2,220.2 590.4,220.5 591.6,220.9 592.7,221.4 593.9,222.0 595.1,222.6 596.3,223.0 597.5,223.4 598.7,223.7 599.9,223.9 601.1,224.3 602.2,224.8 603.4,225.6 604.6,226.5 605.8,227.5 607.0,227.6 608.2,227.9 609.4,228.1 610.5,228.1 611.7,228.1 612.9,228.0 614.1,228.0 615.3,228.0 616.5,228.2 617.7,228.3 618.9,228.6 620.0,228.9 621.2,229.4 622.4,229.9 623.6,230.5 624.8,230.8 626.0,231.0 627.2,231.1 628.3,231.2 629.5,231.5 630.7,231.9 631.9,232.3 633.1,232.7 634.3,233.1 635.5,233.6 636.7,234.1 637.8,234.8 639.0,235.4 640.2,235.9 641.4,236.3 642.6,236.8 643.8,237.3 645.0,237.0 646.1,236.8 647.3,236.8 648.5,236.7 649.7,236.8 650.9,237.0 652.1,237.4 653.3,238.0 654.5,238.8 655.6,238.7 656.8,238.8 658.0,239.1 659.2,239.5 660.4,239.7 661.6,239.8 662.8,240.1 663.9,240.5 665.1,241.0 666.3,241.6 667.5,242.2 668.7,242.8 669.9,243.6 671.1,244.3 672.3,245.1 673.4,245.7 674.6,246.3 675.8,246.9 677.0,247.5 678.2,248.2 679.4,248.9 680.6,249.6 681.7,249.6 682.9,249.6 684.1,249.6 685.3,249.7 686.5,249.7 687.7,249.8 688.9,249.9 690.1,250.1 691.2,250.2 692.4,250.3 693.6,251.0 694.8,251.7 696.0,252.3 697.2,252.9 698.4,253.4 699.5,253.9 700.7,254.5 701.9,255.2 703.1,255.7 704.3,256.2 705.5,256.5 706.7,256.8 707.9,257.1 709.0,257.3 710.2,257.4 711.4,257.5 712.6,257.8 713.8,258.1 715.0,258.5 716.2,258.7 717.3,258.7 718.5,259.2 719.7,259.5 720.9,259.7 722.1,259.7 723.3,259.6 724.5,259.6 725.7,259.7 726.8,259.8 728.0,259.9 729.2,259.8 730.4,259.7 731.6,259.5 732.8,259.9 734.0,260.4 735.1,260.7 736.3,261.0 737.5,261.4 738.7,261.8 739.9,262.3 741.1,262.7 742.3,263.0 743.5,263.1 744.6,263.2 745.8,263.2 747.0,263.2 748.2,263.2 749.4,263.1 750.6,263.1 751.8,263.0 752.9,262.9 754.1,262.9 755.3,262.9 756.5,263.1 757.7,263.3 758.9,263.6 760.1,263.9 761.3,264.4 762.4,264.7 763.6,265.1 764.8,265.5 766.0,266.0"/>
<line x1="606" y1="42" x2="628" y2="42" stroke="#0f62fe" stroke-width="2.2"/>
<text x="634" y="46" font-family="Arial" font-size="12">vx_mps</text>
</svg>