<svg xmlns="http://www.w3.org/2000/svg" width="820" height="320" viewBox="0 0 820 320">
<rect width="100%" height="100%" fill="#ffffff"/>
<text x="54" y="28" font-family="Arial" font-size="18" font-weight="700">Dynamic Pressure</text>
<line x1="54" y1="266" x2="766" y2="266" stroke="#1f2933"/>
<line x1="54" y1="54" x2="54" y2="266" stroke="#1f2933"/>
<text x="54" y="306" font-family="Arial" font-size="12">time (s)</text>
<text x="596" y="306" font-family="Arial" font-size="12">qbar (Pa)</text>
<text x="58" y="68" font-family="Arial" font-size="11">8.29e+03</text>
<text x="58" y="260" font-family="Arial" font-size="11">3.21e+03</text>
<polyline fill="none" stroke="#0f62fe" stroke-width="2.2" points="54.0,207.8 55.2,206.0 56.4,204.1 57.6,202.1 58.7,200.1 59.9,198.0 61.1,195.8 62.3,193.6 63.5,191.3 64.7,189.0 65.9,186.5 67.1,184.1 68.2,181.5 69.4,179.0 70.6,176.3 71.8,173.7 73.0,171.1 74.2,168.4 75.4,165.9 76.5,163.3 77.7,160.8 78.9,158.4 80.1,155.9 81.3,153.5 82.5,151.2 83.7,148.8 84.9,146.4 86.0,144.1 87.2,141.7 88.4,139.2 89.6,136.7 90.8,134.2 92.0,131.5 93.2,128.8 94.3,126.0 95.5,123.1 96.7,120.1 97.9,117.0 99.1,113.9 100.3,110.7 101.5,107.5 102.7,104.2 103.8,100.9 105.0,97.7 106.2,94.4 107.4,91.1 108.6,87.9 109.8,84.7 111.0,81.5 112.1,78.4 113.3,75.2 114.5,72.1 115.7,68.8 116.9,65.4 118.1,62.1 119.3,59.1 120.5,56.6 121.6,55.0 122.8,54.3 124.0,54.0 125.2,54.2 126.4,55.1 127.6,56.8 128.8,59.1 129.9,61.8 131.1,64.7 132.3,67.5 133.5,68.8 134.7,70.9 135.9,73.2 137.1,75.3 138.3,76.9 139.4,78.0 140.6,78.7 141.8,78.7 143.0,78.3 144.2,77.9 145.4,77.7 146.6,77.8 147.7,78.2 148.9,79.2 150.1,80.6 151.3,82.3 152.5,84.3 153.7,86.3 154.9,88.2 156.1,89.9 157.2,91.2 158.4,92.3 159.6,93.0 160.8,93.6 162.0,94.1 163.2,94.7 164.4,95.3 165.5,96.1 166.7,96.9 167.9,97.7 169.1,98.3 170.3,98.8 171.5,99.1 172.7,99.3 173.9,99.4 175.0,99.6 176.2,100.0 177.4,100.7 178.6,101.8 179.8,103.1 181.0,104.6 182.2,106.0 183.3,107.2 184.5,108.0 185.7,108.4 186.9,108.3 188.1,107.6 189.3,106.5 190.5,104.9 191.7,103.3 192.8,102.0 194.0,101.1 195.2,101.1 196.4,102.1 197.6,103.9 198.8,106.4 200.0,109.2 201.1,111.8 202.3,113.9 203.5,115.5 204.7,116.3 205.9,116.2 207.1,115.1 208.3,113.0 209.5,109.8 210.6,106.7 211.8,105.0 213.0,104.8 214.2,105.0 215.4,106.8 216.6,109.7 217.8,113.3 218.9,117.3 220.1,121.0 221.3,124.4 222.5,127.4 223.7,129.7 224.9,130.9 226.1,130.9 227.3,129.5 228.4,126.2 229.6,123.0 230.8,121.8 232.0,122.0 233.2,123.4 234.4,125.9 235.6,129.5 236.7,133.7 237.9,138.3 239.1,143.0 240.3,147.3 241.5,151.6 242.7,156.0 243.9,160.4 245.1,164.2 246.2,167.2 247.4,169.0 248.6,169.5 249.8,168.7 251.0,166.7 252.2,163.3 253.4,161.2 254.5,160.5 255.7,161.1 256.9,162.8 258.1,165.3 259.3,168.6 260.5,172.6 261.7,176.9 262.9,181.3 264.0,185.1 265.2,188.8 266.4,191.8 267.6,193.9 268.8,194.8 270.0,194.8 271.2,194.1 272.3,192.6 273.5,190.2 274.7,188.8 275.9,187.8 277.1,187.5 278.3,188.2 279.5,189.8 280.7,192.2 281.8,194.9 283.0,197.9 284.2,201.0 285.4,204.3 286.6,207.2 287.8,209.6 289.0,211.4 290.1,212.3 291.3,211.9 292.5,210.3 293.7,207.5 294.9,205.3 296.1,203.6 297.3,203.1 298.5,203.6 299.6,205.1 300.8,207.3 302.0,210.0 303.2,213.0 304.4,216.0 305.6,218.9 306.8,221.7 307.9,224.1 309.1,225.8 310.3,226.6 311.5,226.3 312.7,224.7 313.9,223.0 315.1,221.0 316.3,218.9 317.4,217.1 318.6,216.1 319.8,215.8 321.0,216.2 322.2,217.3 323.4,219.0 324.6,221.1 325.7,223.5 326.9,225.9 328.1,228.5 329.3,231.3 330.5,234.0 331.7,236.7 332.9,239.3 334.1,241.9 335.2,244.5 336.4,247.0 337.6,249.4 338.8,251.9 340.0,254.3 341.2,256.5 342.4,258.6 343.5,260.4 344.7,261.9 345.9,263.2 347.1,264.2 348.3,264.8 349.5,265.0 350.7,264.8 351.9,264.3 353.0,263.3 354.2,262.2 355.4,260.9 356.6,259.6 357.8,258.2 359.0,256.4 360.2,255.1 361.3,254.1 362.5,253.4 363.7,252.9 364.9,252.6 366.1,252.4 367.3,252.3 368.5,252.5 369.7,253.1 370.8,253.7 372.0,254.5 373.2,255.4 374.4,256.4 375.6,257.4 376.8,258.6 378.0,259.7 379.1,260.7 380.3,261.5 381.5,261.9 382.7,261.8 383.9,261.2 385.1,260.1 386.3,258.5 387.5,256.6 388.6,254.2 389.8,251.4 391.0,248.7 392.2,246.3 393.4,244.3 394.6,242.8 395.8,241.8 396.9,241.7 398.1,242.2 399.3,243.0 400.5,244.2 401.7,245.7 402.9,247.2 404.1,248.8 405.3,250.2 406.4,251.4 407.6,252.3 408.8,252.8 410.0,252.8 411.2,252.3 412.4,251.3 413.6,249.7 414.7,247.8 415.9,245.7 417.1,243.1 418.3,240.5 419.5,238.6 420.7,237.3 421.9,236.5 423.1,236.3 424.2,236.5 425.4,237.1 426.6,238.0 427.8,239.3 429.0,240.7 430.2,242.3 431.4,244.0 432.5,245.7 433.7,247.3 434.9,248.8 436.1,250.3 437.3,251.7 438.5,253.1 439.7,254.5 440.9,256.0 442.0,257.6 443.2,259.2 444.4,260.7 445.6,262.1 446.8,263.3 448.0,264.2 449.2,265.1 450.3,265.7 451.5,266.0 452.7,265.8 453.9,265.2 455.1,264.1 456.3,262.5 457.5,260.5 458.7,257.8 459.8,254.9 461.0,252.4 462.2,250.3 463.4,248.4 464.6,246.9 465.8,245.6 467.0,244.6 468.1,243.9 469.3,243.4 470.5,243.1 471.7,243.0 472.9,242.9 474.1,243.0 475.3,243.0 476.5,243.0 477.6,242.9 478.8,242.6 480.0,242.1 481.2,241.4 482.4,240.4 483.6,239.0 484.8,237.1 485.9,234.6 487.1,231.6 488.3,228.5 489.5,225.8 490.7,223.4 491.9,221.2 493.1,219.3 494.3,217.7 495.4,216.3 496.6,215.1 497.8,214.2 499.0,213.3 500.2,212.4 501.4,211.4 502.6,210.4 503.7,209.2 504.9,207.8 506.1,206.1 507.3,204.3 508.5,202.2 509.7,200.1 510.9,197.9 512.1,195.8 513.2,193.8 514.4,192.0 515.6,190.6 516.8,189.4 518.0,188.7 519.2,188.3 520.4,188.4 521.5,188.9 522.7,189.7 523.9,190.7 525.1,191.5 526.3,192.0 527.5,192.1 528.7,191.5 529.9,189.6 531.0,188.0 532.2,186.1 533.4,183.7 534.6,180.9 535.8,177.6 537.0,173.4 538.2,169.1 539.3,165.8 540.5,163.3 541.7,161.3 542.9,160.2 544.1,159.9 545.3,160.3 546.5,161.1 547.7,162.1 548.8,162.6 550.0,163.7 551.2,164.8 552.4,165.8 553.6,166.3 554.8,165.9 556.0,164.7 557.1,162.7 558.3,159.8 559.5,156.1 560.7,151.7 561.9,148.6 563.1,146.9 564.3,146.1 565.5,146.3 566.6,147.7 567.8,149.8 569.0,152.1 570.2,153.3 571.4,154.3 572.6,155.4 573.8,156.5 574.9,157.3 576.1,157.5 577.3,156.4 578.5,156.2 579.7,157.4 580.9,159.1 582.1,160.8 583.3,162.3 584.4,163.5 585.6,164.7 586.8,165.7 588.0,166.4 589.2,167.0 590.4,168.0 591.6,169.2 592.7,170.4 593.9,171.2 595.1,171.4 596.3,170.8 597.5,171.2 598.7,171.8 599.9,173.0 601.1,174.5 602.2,176.2 603.4,177.9 604.6,179.3 605.8,180.4 607.0,180.8 608.2,181.0 609.4,181.0 610.5,180.7 611.7,180.5 612.9,180.5 614.1,180.6 615.3,180.8 616.5,181.1 617.7,181.8 618.9,182.7 620.0,183.6 621.2,184.5 622.4,185.4 623.6,186.0 624.8,186.4 626.0,186.9 627.2,187.7 628.3,188.7 629.5,189.7 630.7,190.7 631.9,191.6 633.1,192.3 634.3,192.5 635.5,192.8 636.7,193.0 637.8,193.2 639.0,193.2 640.2,193.0 641.4,192.7 642.6,192.3 643.8,191.7 645.0,191.6 646.1,191.8 647.3,192.1 648.5,192.7 649.7,193.5 650.9,194.6 652.1,195.8 653.3,197.0 654.5,197.9 655.6,198.5 656.8,199.3 658.0,200.1 659.2,200.7 660.4,201.1 661.6,201.5 662.8,202.2 663.9,203.0 665.1,203.7 666.3,204.3 667.5,204.6 668.7,205.1 669.9,205.7 671.1,206.1 672.3,206.3 673.4,206.6 674.6,206.9 675.8,207.4 677.0,208.1 678.2,208.9 679.4,209.7 680.6,210.3 681.7,210.6 682.9,211.1 684.1,211.6 685.3,211.9 686.5,212.1 687.7,212.5 688.9,213.1 690.1,213.9 691.2,214.5 692.4,214.9 693.6,215.6 694.8,216.3 696.0,217.0 697.2,217.4 698.4,217.8 699.5,218.0 700.7,218.4 701.9,218.8 703.1,219.5 704.3,220.1 705.5,220.6 706.7,220.7 707.9,220.8 709.0,221.1 710.2,221.4 711.4,221.5 712.6,221.6 713.8,221.9 715.0,222.4 716.2,222.9 717.3,223.3 718.5,223.8 719.7,224.5 720.9,225.1 722.1,225.7 723.3,226.1 724.5,226.3 725.7,226.6 726.8,226.9 728.0,227.3 729.2,227.7 730.4,228.0 731.6,228.2 732.8,228.2 734.0,228.4 735.1,228.6 736.3,228.8 737.5,228.8 738.7,229.0 739.9,229.4 741.1,229.8 742.3,230.1 743.5,230.5 744.6,231.0 745.8,231.6 747.0,232.2 748.2,232.6 749.4,233.0 750.6,233.3 751.8,233.8 752.9,234.4 754.1,235.0 755.3,235.5 756.5,235.7 757.7,236.0 758.9,236.5 760.1,237.0 761.3,237.3 762.4,237.4 763.6,237.4 764.8,237.6 766.0,237.7"/>
<line x1="606" y1="42" x2="628" y2="42" stroke="#0f62fe" stroke-width="2.2"/>
<text x="634" y="46" font-family="Arial" font-size="12">qbar_pa</text>
</svg>