<svg xmlns="http://www.w3.org/2000/svg" width="820" height="320" viewBox="0 0 820 320">
<rect width="100%" height="100%" fill="#ffffff"/>
<text x="54" y="28" font-family="Arial" font-size="18" font-weight="700">Heading Command Tracking</text>
<line x1="54" y1="266" x2="766" y2="266" stroke="#1f2933"/>
<line x1="54" y1="54" x2="54" y2="266" stroke="#1f2933"/>
<text x="54" y="306" font-family="Arial" font-size="12">time (s)</text>
<text x="596" y="306" font-family="Arial" font-size="12">heading (deg)</text>
<text x="58" y="68" font-family="Arial" font-size="11">180</text>
<text x="58" y="260" font-family="Arial" font-size="11">-180</text>
<polyline fill="none" stroke="#0f62fe" stroke-width="2.2" points="54.0,157.3 55.2,157.3 56.4,157.3 57.6,157.3 58.7,157.3 59.9,157.3 61.1,157.3 62.3,157.3 63.5,157.3 64.7,157.3 65.9,157.3 67.1,157.3 68.2,157.3 69.4,157.3 70.6,157.3 71.8,157.3 73.0,157.3 74.2,157.2 75.4,157.2 76.5,157.2 77.7,157.2 78.9,157.2 80.1,157.2 81.3,157.2 82.5,157.2 83.7,157.2 84.9,157.2 86.0,157.2 87.2,157.2 88.4,157.2 89.6,157.2 90.8,157.2 92.0,157.2 93.2,157.1 94.3,157.1 95.5,157.1 96.7,157.1 97.9,157.1 99.1,157.1 100.3,157.1 101.5,157.1 102.7,157.1 103.8,157.1 105.0,157.0 106.2,157.0 107.4,157.0 108.6,157.0 109.8,157.0 111.0,157.0 112.1,157.0 113.3,157.0 114.5,157.0 115.7,156.9 116.9,156.9 118.1,156.9 119.3,156.9 120.5,156.9 121.6,156.9 122.8,156.9 124.0,156.9 125.2,156.9 126.4,156.8 127.6,156.8 128.8,156.8 129.9,156.8 131.1,156.8 132.3,156.8 133.5,156.7 134.7,156.7 135.9,156.7 137.1,156.7 138.3,156.7 139.4,156.7 140.6,156.7 141.8,156.7 143.0,156.6 144.2,156.6 145.4,156.6 146.6,156.6 147.7,156.6 148.9,156.6 150.1,156.6 151.3,156.5 152.5,156.5 153.7,156.5 154.9,156.5 156.1,156.5 157.2,156.5 158.4,156.5 159.6,156.4 160.8,156.4 162.0,156.4 163.2,156.4 164.4,156.4 165.5,156.4 166.7,156.4 167.9,156.3 169.1,156.3 170.3,156.3 171.5,156.3 172.7,156.3 173.9,156.3 175.0,156.2 176.2,156.2 177.4,156.2 178.6,156.2 179.8,156.2 181.0,156.2 182.2,156.2 183.3,156.1 184.5,156.1 185.7,156.1 186.9,156.1 188.1,156.1 189.3,156.0 190.5,156.0 191.7,156.0 192.8,156.0 194.0,156.0 195.2,156.0 196.4,155.9 197.6,155.9 198.8,155.9 200.0,155.9 201.1,155.9 202.3,155.8 203.5,155.8 204.7,155.8 205.9,155.8 207.1,155.8 208.3,155.7 209.5,155.7 210.6,155.7 211.8,155.7 213.0,155.7 214.2,155.6 215.4,155.6 216.6,155.6 217.8,155.6 218.9,155.5 220.1,155.5 221.3,155.5 222.5,155.5 223.7,155.5 224.9,155.4 226.1,155.4 227.3,155.4 228.4,155.4 229.6,155.3 230.8,155.3 232.0,155.3 233.2,155.2 234.4,155.2 235.6,155.2 236.7,155.2 237.9,155.2 239.1,155.1 240.3,155.1 241.5,155.1 242.7,155.1 243.9,155.0 245.1,155.0 246.2,155.0 247.4,155.0 248.6,154.9 249.8,154.9 251.0,154.9 252.2,154.9 253.4,154.8 254.5,154.8 255.7,154.8 256.9,154.7 258.1,154.7 259.3,154.7 260.5,154.7 261.7,154.6 262.9,154.6 264.0,154.6 265.2,154.6 266.4,154.5 267.6,154.5 268.8,154.5 270.0,154.5 271.2,154.4 272.3,154.4 273.5,154.4 274.7,154.4 275.9,154.3 277.1,154.3 278.3,154.3 279.5,154.3 280.7,154.2 281.8,154.2 283.0,154.2 284.2,154.2 285.4,154.2 286.6,154.1 287.8,154.1 289.0,154.1 290.1,154.1 291.3,154.0 292.5,154.0 293.7,154.0 294.9,154.0 296.1,154.0 297.3,153.9 298.5,153.9 299.6,153.9 300.8,153.9 302.0,153.9 303.2,153.8 304.4,153.8 305.6,153.8 306.8,153.8 307.9,153.8 309.1,153.7 310.3,153.7 311.5,153.7 312.7,153.7 313.9,153.7 315.1,153.7 316.3,153.6 317.4,153.6 318.6,153.6 319.8,153.6 321.0,153.6 322.2,153.6 323.4,153.6 324.6,153.5 325.7,153.5 326.9,153.5 328.1,153.5 329.3,153.5 330.5,153.5 331.7,153.5 332.9,153.5 334.1,153.5 335.2,153.5 336.4,153.4 337.6,153.4 338.8,153.4 340.0,153.4 341.2,153.4 342.4,153.4 343.5,153.4 344.7,153.4 345.9,153.4 347.1,153.4 348.3,153.4 349.5,153.4 350.7,153.4 351.9,153.4 353.0,153.4 354.2,153.4 355.4,153.4 356.6,153.4 357.8,153.4 359.0,153.4 360.2,153.4 361.3,153.4 362.5,153.4 363.7,153.4 364.9,153.4 366.1,153.4 367.3,153.4 368.5,153.4 369.7,153.4 370.8,153.4 372.0,153.3 373.2,153.3 374.4,153.3 375.6,153.3 376.8,153.3 378.0,153.3 379.1,153.3 380.3,153.3 381.5,153.3 382.7,153.2 383.9,153.2 385.1,153.2 386.3,153.2 387.5,153.2 388.6,153.2 389.8,153.2 391.0,153.2 392.2,153.2 393.4,153.1 394.6,153.1 395.8,153.1 396.9,153.1 398.1,153.1 399.3,153.1 400.5,153.1 401.7,153.0 402.9,153.0 404.1,153.0 405.3,153.0 406.4,153.0 407.6,152.9 408.8,152.9 410.0,152.9 411.2,152.9 412.4,152.9 413.6,152.8 414.7,152.8 415.9,152.8 417.1,152.8 418.3,152.7 419.5,152.7 420.7,152.7 421.9,152.7 423.1,152.6 424.2,152.6 425.4,152.6 426.6,152.6 427.8,152.6 429.0,152.5 430.2,152.5 431.4,152.5 432.5,152.5 433.7,152.5 434.9,152.5 436.1,152.5 437.3,152.4 438.5,152.4 439.7,152.4 440.9,152.4 442.0,152.4 443.2,152.4 444.4,152.4 445.6,152.4 446.8,152.4 448.0,152.4 449.2,152.4 450.3,152.4 451.5,152.4 452.7,152.4 453.9,152.4 455.1,152.4 456.3,152.4 457.5,152.4 458.7,152.4 459.8,152.4 461.0,152.4 462.2,152.4 463.4,152.4 464.6,152.4 465.8,152.4 467.0,152.4 468.1,152.4 469.3,152.4 470.5,152.4 471.7,152.4 472.9,152.4 474.1,152.4 475.3,152.4 476.5,152.4 477.6,152.4 478.8,152.4 480.0,152.4 481.2,152.4 482.4,152.4 483.6,152.4 484.8,152.4 485.9,152.4 487.1,152.4 488.3,152.4 489.5,152.4 490.7,152.4 491.9,152.4 493.1,152.4 494.3,152.4 495.4,152.4 496.6,152.4 497.8,152.4 499.0,152.4 500.2,152.4 501.4,152.4 502.6,152.4 503.7,152.4 504.9,152.4 506.1,152.4 507.3,152.4 508.5,152.4 509.7,152.4 510.9,152.4 512.1,152.4 513.2,152.4 514.4,152.4 515.6,152.4 516.8,152.4 518.0,152.5 519.2,152.5 520.4,152.5 521.5,152.5 522.7,152.5 523.9,152.5 525.1,152.5 526.3,152.5 527.5,152.5 528.7,152.5 529.9,152.5 531.0,152.5 532.2,152.5 533.4,152.5 534.6,152.5 535.8,152.5 537.0,152.5 538.2,152.5 539.3,152.5 540.5,152.5 541.7,152.5 542.9,152.5 544.1,152.5 545.3,152.5 546.5,152.5 547.7,152.5 548.8,152.5 550.0,152.5 551.2,152.5 552.4,152.5 553.6,152.5 554.8,152.5 556.0,152.5 557.1,152.5 558.3,152.5 559.5,152.5 560.7,152.5 561.9,152.5 563.1,152.5 564.3,152.5 565.5,152.5 566.6,152.5 567.8,152.5 569.0,152.5 570.2,152.5 571.4,152.5 572.6,152.5 573.8,152.5 574.9,152.6 576.1,152.6 577.3,152.6 578.5,152.6 579.7,152.6 580.9,152.6 582.1,152.6 583.3,152.6 584.4,152.6 585.6,152.6 586.8,152.6 588.0,152.7 589.2,152.7 590.4,152.7 591.6,152.7 592.7,152.7 593.9,152.7 595.1,152.7 596.3,152.7 597.5,152.7 598.7,152.7 599.9,152.7 601.1,152.7 602.2,152.8 603.4,152.8 604.6,152.8 605.8,152.8 607.0,152.8 608.2,152.8 609.4,152.8 610.5,152.8 611.7,152.8 612.9,152.8 614.1,152.9 615.3,152.9 616.5,152.9 617.7,152.9 618.9,152.9 620.0,152.9 621.2,152.9 622.4,152.9 623.6,152.9 624.8,152.9 626.0,152.9 627.2,152.9 628.3,153.0 629.5,153.0 630.7,153.0 631.9,153.0 633.1,153.0 634.3,153.0 635.5,153.0 636.7,153.1 637.8,153.1 639.0,153.1 640.2,153.1 641.4,153.1 642.6,153.1 643.8,153.2 645.0,153.2 646.1,153.2 647.3,153.2 648.5,153.2 649.7,153.2 650.9,153.2 652.1,153.2 653.3,153.3 654.5,153.3 655.6,153.3 656.8,153.3 658.0,153.3 659.2,153.3 660.4,153.3 661.6,153.4 662.8,153.4 663.9,153.4 665.1,153.4 666.3,153.4 667.5,153.4 668.7,153.4 669.9,153.5 671.1,153.5 672.3,153.5 673.4,153.5 674.6,153.5 675.8,153.5 677.0,153.5 678.2,153.6 679.4,153.6 680.6,153.6 681.7,153.6 682.9,153.6 684.1,153.6 685.3,153.6 686.5,153.6 687.7,153.7 688.9,153.7 690.1,153.7 691.2,153.7 692.4,153.7 693.6,153.7 694.8,153.7 696.0,153.7 697.2,153.8 698.4,153.8 699.5,153.8 700.7,153.8 701.9,153.8 703.1,153.8 704.3,153.9 705.5,153.9 706.7,153.9 707.9,153.9 709.0,153.9 710.2,154.0 711.4,154.0 712.6,154.0 713.8,154.0 715.0,154.0 716.2,154.0 717.3,154.1 718.5,154.1 719.7,154.1 720.9,154.1 722.1,154.1 723.3,154.2 724.5,154.2 725.7,154.2 726.8,154.2 728.0,154.2 729.2,154.3 730.4,154.3 731.6,154.3 732.8,154.3 734.0,154.4 735.1,154.4 736.3,154.4 737.5,154.4 738.7,154.4 739.9,154.5 741.1,154.5 742.3,154.5 743.5,154.5 744.6,154.6 745.8,154.6 747.0,154.6 748.2,154.6 749.4,154.7 750.6,154.7 751.8,154.7 752.9,154.7 754.1,154.8 755.3,154.8 756.5,154.8 757.7,154.9 758.9,154.9 760.1,154.9 761.3,154.9 762.4,155.0 763.6,155.0 764.8,155.0 766.0,155.0"/>
<line x1="606" y1="42" x2="628" y2="42" stroke="#0f62fe" stroke-width="2.2"/>
<text x="634" y="46" font-family="Arial" font-size="12">heading_command_deg</text>
<polyline fill="none" stroke="#24a148" stroke-width="2.2" points="54.0,158.3 55.2,158.4 56.4,158.6 57.6,158.9 58.7,159.3 59.9,159.8 61.1,160.4 62.3,161.1 63.5,161.9 64.7,162.7 65.9,163.6 67.1,164.5 68.2,165.5 69.4,166.6 70.6,167.6 71.8,168.7 73.0,169.7 74.2,170.8 75.4,171.7 76.5,172.6 77.7,173.5 78.9,174.2 80.1,174.8 81.3,175.2 82.5,175.6 83.7,175.7 84.9,175.7 86.0,175.6 87.2,175.3 88.4,174.8 89.6,174.1 90.8,173.4 92.0,172.4 93.2,171.3 94.3,170.1 95.5,168.8 96.7,167.4 97.9,165.9 99.1,164.4 100.3,162.9 101.5,161.5 102.7,160.0 103.8,158.7 105.0,157.6 106.2,156.6 107.4,155.8 108.6,155.3 109.8,155.1 111.0,155.2 112.1,155.7 113.3,156.7 114.5,158.2 115.7,160.2 116.9,162.8 118.1,165.7 119.3,169.0 120.5,172.3 121.6,175.5 122.8,178.4 124.0,181.0 125.2,183.0 126.4,184.2 127.6,183.8 128.8,180.7 129.9,172.1 131.1,155.1 132.3,137.8 133.5,128.1 134.7,124.4 135.9,123.9 137.1,125.7 138.3,129.3 139.4,135.0 140.6,143.6 141.8,154.5 143.0,166.3 144.2,176.6 145.4,184.4 146.6,189.6 147.7,192.5 148.9,192.6 150.1,187.8 151.3,170.2 152.5,141.9 153.7,129.8 154.9,126.8 156.1,127.7 157.2,131.8 158.4,139.9 159.6,153.9 160.8,171.3 162.0,184.4 163.2,191.8 164.4,195.4 165.5,196.3 166.7,193.9 167.9,186.2 169.1,170.0 170.3,151.3 171.5,140.8 172.7,136.6 173.9,135.9 175.0,138.1 176.2,144.3 177.4,158.0 178.6,178.7 179.8,193.7 181.0,200.7 182.2,203.4 183.3,203.4 184.5,200.8 185.7,194.7 186.9,183.9 188.1,169.8 189.3,157.7 190.5,150.2 191.7,146.3 192.8,145.2 194.0,146.8 195.2,153.7 196.4,173.6 197.6,200.1 198.8,211.7 200.0,215.0 201.1,214.6 202.3,211.6 203.5,205.7 204.7,196.4 205.9,184.2 207.1,171.4 208.3,160.8 209.5,152.8 210.6,146.5 211.8,141.0 213.0,135.1 214.2,126.7 215.4,101.3 216.6,258.2 217.8,243.9 218.9,236.4 220.1,229.9 221.3,222.8 222.5,214.8 223.7,205.5 224.9,194.8 226.1,183.2 227.3,171.2 228.4,159.6 229.6,148.7 230.8,138.0 232.0,127.1 233.2,115.8 234.4,104.0 235.6,92.2 236.7,80.9 237.9,70.6 239.1,61.5 240.3,264.7 241.5,255.3 242.7,245.5 243.9,235.3 245.1,224.7 246.2,213.6 247.4,202.1 248.6,190.0 249.8,177.4 251.0,164.5 252.2,151.8 253.4,139.4 254.5,127.5 255.7,115.9 256.9,104.6 258.1,93.6 259.3,82.8 260.5,72.2 261.7,61.7 262.9,263.5 264.0,252.9 265.2,241.9 266.4,230.4 267.6,218.2 268.8,205.2 270.0,191.5 271.2,177.5 272.3,163.8 273.5,150.8 274.7,139.2 275.9,128.9 277.1,119.5 278.3,110.7 279.5,102.2 280.7,93.9 281.8,85.6 283.0,77.5 284.2,69.0 285.4,60.0 286.6,262.5 287.8,250.8 289.0,234.8 290.1,210.3 291.3,182.9 292.5,163.1 293.7,150.3 294.9,140.3 296.1,131.4 297.3,122.4 298.5,112.9 299.6,102.8 300.8,92.5 302.0,82.5 303.2,73.3 304.4,65.1 305.6,57.9 306.8,263.9 307.9,258.0 309.1,252.0 310.3,243.5 311.5,191.1 312.7,149.3 313.9,143.5 315.1,140.3 316.3,137.7 317.4,135.2 318.6,132.5 319.8,129.1 321.0,124.8 322.2,118.9 323.4,110.5 324.6,99.3 325.7,86.7 326.9,75.4 328.1,67.3 329.3,62.2 330.5,59.4 331.7,58.3 332.9,58.6 334.1,59.9 335.2,62.2 336.4,65.1 337.6,68.8 338.8,72.8 340.0,77.0 341.2,81.4 342.4,86.2 343.5,91.1 344.7,96.2 345.9,101.5 347.1,107.1 348.3,112.9 349.5,118.9 350.7,125.1 351.9,131.6 353.0,138.1 354.2,144.6 355.4,151.1 356.6,157.6 357.8,164.0 359.0,169.9 360.2,175.1 361.3,179.4 362.5,183.1 363.7,186.3 364.9,189.2 366.1,191.9 367.3,194.4 368.5,196.5 369.7,198.2 370.8,199.5 372.0,200.1 373.2,199.9 374.4,198.6 375.6,195.8 376.8,190.8 378.0,183.6 379.1,175.1 380.3,166.9 381.5,160.5 382.7,156.0 383.9,153.1 385.1,151.5 386.3,150.8 387.5,151.0 388.6,152.1 389.8,154.5 391.0,159.5 392.2,171.0 393.4,193.8 394.6,214.5 395.8,224.2 396.9,228.7 398.1,230.7 399.3,231.3 400.5,230.9 401.7,229.6 402.9,227.2 404.1,223.8 405.3,219.2 406.4,213.7 407.6,207.1 408.8,199.6 410.0,191.6 411.2,183.4 412.4,175.3 413.6,167.4 414.7,159.6 415.9,151.6 417.1,143.5 418.3,135.0 419.5,126.3 420.7,117.7 421.9,109.8 423.1,103.0 424.2,97.3 425.4,92.9 426.6,89.6 427.8,87.3 429.0,85.9 430.2,85.3 431.4,85.4 432.5,85.9 433.7,86.6 434.9,87.4 436.1,88.2 437.3,89.1 438.5,90.0 439.7,91.1 440.9,92.5 442.0,94.4 443.2,97.1 444.4,101.1 445.6,106.6 446.8,114.1 448.0,123.3 449.2,133.2 450.3,142.4 451.5,150.0 452.7,156.0 453.9,160.7 455.1,164.6 456.3,167.9 457.5,170.9 458.7,173.6 459.8,176.5 461.0,179.9 462.2,184.6 463.4,193.3 464.6,215.5 465.8,249.9 467.0,265.2 468.1,59.1 469.3,62.4 470.5,64.4 471.7,65.8 472.9,66.7 474.1,67.3 475.3,67.7 476.5,67.7 477.6,67.5 478.8,67.0 480.0,66.1 481.2,64.1 482.4,58.3 483.6,209.1 484.8,181.2 485.9,177.1 487.1,175.0 488.3,173.2 489.5,171.2 490.7,169.1 491.9,166.8 493.1,164.3 494.3,161.7 495.4,158.9 496.6,156.0 497.8,153.0 499.0,150.0 500.2,147.0 501.4,144.3 502.6,141.9 503.7,139.7 504.9,137.7 506.1,135.6 507.3,133.4 508.5,130.6 509.7,127.3 510.9,122.9 512.1,116.5 513.2,105.7 514.4,86.7 515.6,63.1 516.8,259.7 518.0,250.6 519.2,244.4 520.4,239.3 521.5,234.6 522.7,229.8 523.9,224.9 525.1,220.1 526.3,215.3 527.5,210.6 528.7,205.9 529.9,200.9 531.0,195.5 532.2,189.6 533.4,183.2 534.6,175.8 535.8,166.9 537.0,155.9 538.2,142.2 539.3,126.9 540.5,112.2 541.7,99.5 542.9,89.3 544.1,81.0 545.3,73.9 546.5,67.6 547.7,62.0 548.8,55.5 550.0,260.6 551.2,252.6 552.4,243.7 553.6,233.4 554.8,221.3 556.0,206.5 557.1,188.6 558.3,169.4 559.5,152.0 560.7,137.6 561.9,125.4 563.1,114.3 564.3,103.4 565.5,92.3 566.6,81.3 567.8,70.5 569.0,60.2 570.2,262.6 571.4,252.8 572.6,242.0 573.8,226.6 574.9,192.8 576.1,155.7 577.3,140.2 578.5,131.2 579.7,123.8 580.9,116.3 582.1,108.0 583.3,98.4 584.4,87.6 585.6,76.7 586.8,66.7 588.0,58.4 589.2,264.2 590.4,259.5 591.6,256.3 592.7,255.2 593.9,261.0 595.1,109.1 596.3,126.7 597.5,129.1 598.7,129.4 599.9,128.8 601.1,127.5 602.2,125.4 603.4,122.0 604.6,116.5 605.8,107.6 607.0,94.0 608.2,79.5 609.4,68.6 610.5,61.8 611.7,58.0 612.9,56.5 614.1,56.7 615.3,58.5 616.5,61.9 617.7,66.0 618.9,71.3 620.0,78.8 621.2,90.1 622.4,104.8 623.6,118.9 624.8,129.2 626.0,136.4 627.2,141.7 628.3,146.0 629.5,149.8 630.7,153.3 631.9,156.9 633.1,160.9 634.3,164.2 635.5,167.3 636.7,170.7 637.8,175.8 639.0,188.5 640.2,231.6 641.4,258.0 642.6,54.0 643.8,58.7 645.0,62.5 646.1,66.2 647.3,70.3 648.5,74.9 649.7,80.0 650.9,85.6 652.1,91.6 653.3,97.9 654.5,104.6 655.6,111.5 656.8,118.4 658.0,125.2 659.2,131.7 660.4,137.8 661.6,143.3 662.8,147.9 663.9,151.8 665.1,155.1 666.3,158.0 667.5,160.8 668.7,160.4 669.9,151.7 671.1,129.6 672.3,114.1 673.4,110.1 674.6,110.7 675.8,113.2 677.0,117.1 678.2,121.7 679.4,126.9 680.6,132.6 681.7,138.8 682.9,145.8 684.1,154.0 685.3,163.2 686.5,172.6 687.7,181.2 688.9,188.5 690.1,194.6 691.2,199.8 692.4,204.3 693.6,207.6 694.8,209.2 696.0,208.6 697.2,205.0 698.4,197.8 699.5,187.9 700.7,179.1 701.9,173.6 703.1,171.5 704.3,171.7 705.5,173.6 706.7,176.1 707.9,179.7 709.0,184.7 710.2,191.8 711.4,201.2 712.6,212.0 713.8,221.8 715.0,229.5 716.2,235.0 717.3,239.0 718.5,241.4 719.7,242.2 720.9,241.3 722.1,238.8 723.3,235.0 724.5,230.3 725.7,225.5 726.8,221.4 728.0,218.5 729.2,217.1 730.4,217.0 731.6,218.1 732.8,220.4 734.0,224.3 735.1,230.5 736.3,239.5 737.5,249.8 738.7,259.1 739.9,266.0 741.1,58.4 742.3,61.6 743.5,63.3 744.6,63.6 745.8,62.6 747.0,60.7 748.2,58.3 749.4,55.6 750.6,265.4 751.8,263.2 752.9,261.6 754.1,260.9 755.3,260.9 756.5,261.8 757.7,263.7 758.9,54.9 760.1,60.6 761.3,68.5 762.4,77.8 763.6,86.4 764.8,93.4 766.0,98.6"/>
<line x1="606" y1="60" x2="628" y2="60" stroke="#24a148" stroke-width="2.2"/>
<text x="634" y="64" font-family="Arial" font-size="12">yaw_deg</text>
</svg>