<svg xmlns="http://www.w3.org/2000/svg" width="820" height="320" viewBox="0 0 820 320">
<rect width="100%" height="100%" fill="#ffffff"/>
<text x="54" y="28" font-family="Arial" font-size="18" font-weight="700">Speed</text>
<line x1="54" y1="266" x2="766" y2="266" stroke="#1f2933"/>
<line x1="54" y1="54" x2="54" y2="266" stroke="#1f2933"/>
<text x="54" y="306" font-family="Arial" font-size="12">time (s)</text>
<text x="596" y="306" font-family="Arial" font-size="12">speed (m/s)</text>
<text x="58" y="68" font-family="Arial" font-size="11">114</text>
<text x="58" y="260" font-family="Arial" font-size="11">70.4</text>
<polyline fill="none" stroke="#0f62fe" stroke-width="2.2" points="54.0,199.0 55.2,196.8 56.4,194.5 57.6,192.2 58.7,189.8 59.9,187.4 61.1,185.0 62.3,182.5 63.5,180.0 64.7,177.5 65.9,174.9 67.1,172.3 68.2,169.7 69.4,167.1 70.6,164.5 71.8,161.9 73.0,159.3 74.2,156.8 75.4,154.4 76.5,152.0 77.7,149.7 78.9,147.4 80.1,145.3 81.3,143.2 82.5,141.1 83.7,139.1 84.9,137.2 86.0,135.3 87.2,133.5 88.4,131.7 89.6,129.8 90.8,128.0 92.0,126.2 93.2,124.3 94.3,122.4 95.5,120.4 96.7,118.3 97.9,116.2 99.1,113.9 100.3,111.5 101.5,109.1 102.7,106.6 103.8,104.0 105.0,101.4 106.2,98.7 107.4,95.9 108.6,93.1 109.8,90.3 111.0,87.5 112.1,84.7 113.3,81.9 114.5,79.2 115.7,76.6 116.9,74.4 118.1,72.6 119.3,71.6 120.5,70.9 121.6,70.5 122.8,70.6 124.0,71.1 125.2,72.2 126.4,73.6 127.6,75.2 128.8,77.0 129.9,78.9 131.1,80.0 132.3,81.3 133.5,82.8 134.7,84.3 135.9,85.5 137.1,86.3 138.3,86.5 139.4,86.2 140.6,85.5 141.8,84.7 143.0,83.9 144.2,83.4 145.4,83.3 146.6,83.6 147.7,84.3 148.9,85.4 150.1,86.8 151.3,88.2 152.5,89.5 153.7,90.6 154.9,91.4 156.1,91.9 157.2,92.1 158.4,92.2 159.6,92.4 160.8,92.6 162.0,92.9 163.2,93.4 164.4,93.9 165.5,94.4 166.7,94.8 167.9,95.0 169.1,95.2 170.3,95.2 171.5,95.3 172.7,95.5 173.9,95.9 175.0,96.7 176.2,97.9 177.4,99.4 178.6,101.0 179.8,102.6 181.0,104.0 182.2,104.8 183.3,105.2 184.5,105.0 185.7,104.4 186.9,103.7 188.1,103.0 189.3,102.5 190.5,102.6 191.7,103.4 192.8,104.9 194.0,107.0 195.2,109.5 196.4,112.1 197.6,114.5 198.8,116.4 200.0,117.5 201.1,117.9 202.3,117.5 203.5,116.5 204.7,115.4 205.9,114.3 207.1,113.4 208.3,113.0 209.5,113.8 210.6,115.5 211.8,118.0 213.0,121.0 214.2,124.3 215.4,127.6 216.6,130.4 217.8,132.7 218.9,134.1 220.1,134.7 221.3,134.5 222.5,133.6 223.7,132.7 224.9,131.7 226.1,130.6 227.3,130.4 228.4,131.8 229.6,134.0 230.8,136.8 232.0,140.1 233.2,143.3 234.4,146.9 235.6,150.6 236.7,154.4 237.9,158.1 239.1,161.6 240.3,164.9 241.5,167.7 242.7,170.0 243.9,171.7 245.1,172.6 246.2,172.7 247.4,172.0 248.6,170.6 249.8,168.0 251.0,166.0 252.2,164.5 253.4,163.4 254.5,162.9 255.7,163.1 256.9,163.9 258.1,165.5 259.3,167.7 260.5,170.5 261.7,173.7 262.9,177.1 264.0,180.8 265.2,184.6 266.4,188.5 267.6,192.4 268.8,196.3 270.0,200.2 271.2,204.1 272.3,207.9 273.5,211.7 274.7,215.5 275.9,219.1 277.1,222.7 278.3,226.0 279.5,229.1 280.7,231.8 281.8,234.2 283.0,236.1 284.2,237.3 285.4,237.8 286.6,237.6 287.8,236.7 289.0,234.8 290.1,232.5 291.3,230.3 292.5,228.1 293.7,226.0 294.9,224.1 296.1,222.6 297.3,221.8 298.5,221.5 299.6,221.6 300.8,222.1 302.0,223.1 303.2,224.5 304.4,226.3 305.6,228.5 306.8,231.2 307.9,234.1 309.1,237.3 310.3,240.5 311.5,243.9 312.7,247.2 313.9,250.5 315.1,253.7 316.3,256.8 317.4,259.6 318.6,262.1 319.8,264.0 321.0,265.4 322.2,266.0 323.4,265.9 324.6,265.1 325.7,263.7 326.9,261.6 328.1,259.0 329.3,256.0 330.5,253.0 331.7,250.1 332.9,247.5 334.1,245.4 335.2,243.8 336.4,242.7 337.6,242.2 338.8,242.1 340.0,242.5 341.2,243.3 342.4,244.4 343.5,246.0 344.7,247.9 345.9,250.2 347.1,252.7 348.3,255.4 349.5,258.0 350.7,260.2 351.9,261.9 353.0,263.1 354.2,263.8 355.4,263.7 356.6,262.7 357.8,260.8 359.0,258.0 360.2,254.7 361.3,250.5 362.5,246.5 363.7,243.4 364.9,240.9 366.1,239.3 367.3,238.4 368.5,238.2 369.7,238.5 370.8,239.0 372.0,240.1 373.2,241.6 374.4,243.0 375.6,244.1 376.8,244.5 378.0,244.1 379.1,242.8 380.3,240.6 381.5,237.5 382.7,233.6 383.9,229.4 385.1,226.0 386.3,223.4 387.5,221.7 388.6,221.1 389.8,221.5 391.0,222.6 392.2,224.3 393.4,226.2 394.6,227.9 395.8,229.4 396.9,230.6 398.1,231.2 399.3,230.9 400.5,229.7 401.7,227.5 402.9,223.7 404.1,219.3 405.3,215.4 406.4,212.4 407.6,210.3 408.8,209.1 410.0,208.8 411.2,209.2 412.4,210.2 413.6,211.9 414.7,214.1 415.9,216.6 417.1,219.2 418.3,221.7 419.5,224.3 420.7,226.8 421.9,229.1 423.1,231.1 424.2,232.5 425.4,233.1 426.6,232.8 427.8,231.8 429.0,230.0 430.2,227.7 431.4,224.8 432.5,221.4 433.7,218.1 434.9,215.3 436.1,213.1 437.3,211.5 438.5,210.6 439.7,210.3 440.9,210.6 442.0,211.7 443.2,213.4 444.4,215.6 445.6,218.1 446.8,220.7 448.0,223.4 449.2,226.1 450.3,228.9 451.5,231.6 452.7,234.5 453.9,237.4 455.1,240.3 456.3,242.8 457.5,244.9 458.7,246.5 459.8,247.6 461.0,248.3 462.2,248.5 463.4,248.2 464.6,247.3 465.8,245.8 467.0,243.2 468.1,240.7 469.3,237.9 470.5,234.7 471.7,231.5 472.9,228.5 474.1,225.9 475.3,223.4 476.5,221.4 477.6,220.5 478.8,220.2 480.0,220.3 481.2,220.6 482.4,220.9 483.6,221.1 484.8,221.3 485.9,221.4 487.1,221.4 488.3,221.0 489.5,220.1 490.7,218.6 491.9,215.9 493.1,212.8 494.3,209.7 495.4,206.3 496.6,202.7 497.8,199.0 499.0,195.5 500.2,193.1 501.4,191.6 502.6,190.5 503.7,189.8 504.9,189.5 506.1,189.6 507.3,190.1 508.5,190.8 509.7,191.5 510.9,192.1 512.1,192.4 513.2,192.4 514.4,192.5 515.6,192.5 516.8,192.3 518.0,191.7 519.2,190.7 520.4,189.3 521.5,187.6 522.7,185.5 523.9,182.8 525.1,179.4 526.3,177.0 527.5,174.8 528.7,173.0 529.9,171.9 531.0,171.6 532.2,171.9 533.4,172.7 534.6,173.6 535.8,175.3 537.0,177.4 538.2,179.6 539.3,181.6 540.5,183.5 541.7,185.2 542.9,186.3 544.1,186.5 545.3,185.4 546.5,183.0 547.7,180.2 548.8,176.7 550.0,172.7 551.2,168.9 552.4,166.0 553.6,164.1 554.8,163.1 556.0,162.6 557.1,162.4 558.3,162.2 559.5,161.8 560.7,161.3 561.9,160.7 563.1,159.8 564.3,158.3 565.5,156.2 566.6,153.4 567.8,149.6 569.0,145.5 570.2,145.0 571.4,144.9 572.6,145.5 573.8,146.6 574.9,147.8 576.1,149.2 577.3,150.4 578.5,151.6 579.7,152.4 580.9,153.1 582.1,153.8 583.3,154.5 584.4,155.1 585.6,155.6 586.8,155.8 588.0,155.9 589.2,155.9 590.4,155.6 591.6,155.5 592.7,155.7 593.9,156.3 595.1,157.2 596.3,158.2 597.5,159.3 598.7,160.3 599.9,161.3 601.1,162.1 602.2,162.7 603.4,163.3 604.6,163.9 605.8,164.5 607.0,164.8 608.2,165.0 609.4,165.1 610.5,165.2 611.7,165.0 612.9,164.8 614.1,165.0 615.3,165.2 616.5,165.8 617.7,166.4 618.9,167.0 620.0,167.6 621.2,168.1 622.4,168.5 623.6,168.9 624.8,169.4 626.0,169.9 627.2,170.3 628.3,170.6 629.5,170.7 630.7,170.7 631.9,170.8 633.1,170.4 634.3,170.9 635.5,172.1 636.7,173.3 637.8,174.4 639.0,175.3 640.2,176.0 641.4,176.4 642.6,176.3 643.8,176.2 645.0,176.1 646.1,175.9 647.3,175.9 648.5,176.0 649.7,176.1 650.9,176.5 652.1,176.9 653.3,177.5 654.5,178.1 655.6,178.6 656.8,179.0 658.0,179.2 659.2,179.2 660.4,178.9 661.6,177.8 662.8,178.0 663.9,178.6 665.1,179.4 666.3,180.3 667.5,181.2 668.7,182.0 669.9,182.9 671.1,183.6 672.3,184.4 673.4,185.0 674.6,185.6 675.8,186.1 677.0,186.6 678.2,186.9 679.4,187.3 680.6,187.5 681.7,187.8 682.9,188.0 684.1,188.2 685.3,188.5 686.5,188.7 687.7,189.0 688.9,189.4 690.1,190.1 691.2,190.8 692.4,191.7 693.6,192.7 694.8,193.5 696.0,194.1 697.2,194.6 698.4,195.2 699.5,196.0 700.7,196.6 701.9,197.2 703.1,197.0 704.3,197.9 705.5,199.0 706.7,200.2 707.9,201.3 709.0,202.3 710.2,203.0 711.4,203.7 712.6,204.3 713.8,204.8 715.0,205.3 716.2,205.8 717.3,206.2 718.5,206.5 719.7,206.7 720.9,206.9 722.1,206.4 723.3,206.0 724.5,205.6 725.7,205.2 726.8,204.8 728.0,204.5 729.2,204.3 730.4,204.1 731.6,204.0 732.8,203.9 734.0,203.9 735.1,204.0 736.3,204.3 737.5,204.9 738.7,205.5 739.9,206.1 741.1,206.6 742.3,207.0 743.5,207.7 744.6,208.6 745.8,209.5 747.0,210.4 748.2,211.2 749.4,211.9 750.6,212.5 751.8,213.0 752.9,213.5 754.1,214.0 755.3,214.5 756.5,215.0 757.7,215.6 758.9,216.1 760.1,216.6 761.3,217.0 762.4,217.4 763.6,217.8 764.8,218.1 766.0,218.5"/>
<line x1="606" y1="42" x2="628" y2="42" stroke="#0f62fe" stroke-width="2.2"/>
<text x="634" y="46" font-family="Arial" font-size="12">speed_mps</text>
<polyline fill="none" stroke="#24a148" stroke-width="2.2" points="54.0,189.9 55.2,187.0 56.4,186.7 57.6,184.6 58.7,183.6 59.9,180.9 61.1,180.6 62.3,173.6 63.5,171.5 64.7,167.5 65.9,165.9 67.1,163.1 68.2,161.5 69.4,158.1 70.6,155.3 71.8,153.9 73.0,148.8 74.2,145.5 75.4,143.1 76.5,140.2 77.7,136.3 78.9,133.9 80.1,132.0 81.3,130.2 82.5,130.2 83.7,129.0 84.9,127.1 86.0,124.1 87.2,122.7 88.4,119.5 89.6,117.4 90.8,116.2 92.0,113.2 93.2,113.5 94.3,113.5 95.5,110.6 96.7,110.7 97.9,109.3 99.1,107.1 100.3,104.0 101.5,101.6 102.7,97.7 103.8,94.9 105.0,91.5 106.2,88.7 107.4,82.7 108.6,82.4 109.8,78.8 111.0,74.6 112.1,70.5 113.3,67.6 114.5,66.8 115.7,66.4 116.9,64.1 118.1,61.8 119.3,59.4 120.5,59.7 121.6,56.4 122.8,58.0 124.0,54.0 125.2,54.2 126.4,56.7 127.6,54.7 128.8,57.2 129.9,58.4 131.1,57.8 132.3,57.7 133.5,59.3 134.7,61.2 135.9,62.0 137.1,65.0 138.3,67.7 139.4,66.0 140.6,65.6 141.8,64.9 143.0,63.7 144.2,63.7 145.4,61.3 146.6,61.9 147.7,61.7 148.9,63.5 150.1,63.1 151.3,66.3 152.5,67.0 153.7,68.7 154.9,71.7 156.1,73.2 157.2,72.7 158.4,72.9 159.6,72.0 160.8,71.9 162.0,70.8 163.2,74.0 164.4,77.3 165.5,75.0 166.7,73.6 167.9,73.2 169.1,72.3 170.3,74.8 171.5,76.3 172.7,78.5 173.9,78.2 175.0,78.1 176.2,79.9 177.4,80.9 178.6,79.8 179.8,79.2 181.0,82.3 182.2,82.9 183.3,82.6 184.5,83.1 185.7,83.0 186.9,83.7 188.1,85.5 189.3,86.6 190.5,85.9 191.7,87.9 192.8,92.6 194.0,95.2 195.2,97.6 196.4,98.9 197.6,100.3 198.8,103.4 200.0,103.2 201.1,102.6 202.3,100.9 203.5,100.7 204.7,100.4 205.9,97.0 207.1,97.0 208.3,96.7 209.5,98.4 210.6,100.2 211.8,104.9 213.0,107.3 214.2,111.3 215.4,116.1 216.6,118.5 217.8,119.6 218.9,120.0 220.1,122.7 221.3,120.4 222.5,119.7 223.7,119.3 224.9,117.0 226.1,116.2 227.3,116.7 228.4,119.9 229.6,122.6 230.8,126.3 232.0,127.5 233.2,128.4 234.4,133.0 235.6,137.5 236.7,142.2 237.9,145.1 239.1,148.2 240.3,149.8 241.5,154.4 242.7,154.6 243.9,156.7 245.1,158.2 246.2,156.9 247.4,154.6 248.6,150.6 249.8,147.4 251.0,147.8 252.2,146.9 253.4,147.7 254.5,148.3 255.7,149.0 256.9,147.8 258.1,148.7 259.3,151.0 260.5,153.6 261.7,158.1 262.9,163.3 264.0,167.9 265.2,171.7 266.4,173.4 267.6,178.3 268.8,184.0 270.0,188.9 271.2,193.4 272.3,197.2 273.5,200.3 274.7,204.2 275.9,207.5 277.1,211.1 278.3,215.7 279.5,218.0 280.7,220.9 281.8,224.3 283.0,229.2 284.2,231.9 285.4,231.4 286.6,231.0 287.8,229.6 289.0,227.9 290.1,225.6 291.3,222.0 292.5,218.7 293.7,218.2 294.9,217.4 296.1,214.9 297.3,214.2 298.5,214.3 299.6,214.4 300.8,214.1 302.0,215.4 303.2,214.9 304.4,216.1 305.6,218.6 306.8,222.0 307.9,225.1 309.1,228.3 310.3,230.6 311.5,234.8 312.7,239.6 313.9,243.7 315.1,245.3 316.3,246.8 317.4,249.9 318.6,251.5 319.8,252.1 321.0,253.3 322.2,253.5 323.4,251.7 324.6,250.8 325.7,248.6 326.9,247.8 328.1,244.5 329.3,239.9 330.5,236.2 331.7,233.7 332.9,229.6 334.1,229.1 335.2,226.8 336.4,225.4 337.6,224.7 338.8,225.1 340.0,224.5 341.2,224.6 342.4,223.1 343.5,226.2 344.7,228.5 345.9,231.2 347.1,234.8 348.3,236.6 349.5,239.9 350.7,243.1 351.9,244.2 353.0,245.3 354.2,246.9 355.4,246.8 356.6,245.5 357.8,244.6 359.0,242.8 360.2,238.5 361.3,234.6 362.5,229.5 363.7,228.4 364.9,227.6 366.1,225.6 367.3,224.6 368.5,224.1 369.7,223.6 370.8,224.3 372.0,225.9 373.2,228.7 374.4,230.4 375.6,233.5 376.8,232.2 378.0,231.6 379.1,231.4 380.3,228.0 381.5,224.3 382.7,220.6 383.9,216.7 385.1,213.4 386.3,209.8 387.5,208.5 388.6,206.8 389.8,208.7 391.0,209.1 392.2,211.7 393.4,213.9 394.6,215.3 395.8,216.2 396.9,218.6 398.1,217.6 399.3,218.8 400.5,216.8 401.7,213.1 402.9,209.7 404.1,205.2 405.3,201.7 406.4,199.4 407.6,199.5 408.8,198.5 410.0,198.0 411.2,199.5 412.4,200.1 413.6,201.8 414.7,204.0 415.9,206.5 417.1,207.8 418.3,210.8 419.5,212.6 420.7,215.1 421.9,217.3 423.1,219.0 424.2,218.5 425.4,220.1 426.6,219.9 427.8,218.2 429.0,218.1 430.2,215.4 431.4,214.2 432.5,210.3 433.7,208.3 434.9,206.0 436.1,203.5 437.3,203.0 438.5,201.8 439.7,202.1 440.9,201.6 442.0,202.5 443.2,203.2 444.4,204.5 445.6,207.3 446.8,210.4 448.0,213.1 449.2,214.9 450.3,218.2 451.5,220.8 452.7,222.9 453.9,227.7 455.1,229.9 456.3,232.0 457.5,234.3 458.7,235.7 459.8,237.0 461.0,237.6 462.2,237.6 463.4,238.1 464.6,237.2 465.8,235.5 467.0,233.3 468.1,229.9 469.3,226.2 470.5,223.9 471.7,221.6 472.9,218.0 474.1,217.1 475.3,215.6 476.5,212.8 477.6,214.0 478.8,213.7 480.0,214.6 481.2,216.6 482.4,218.7 483.6,220.0 484.8,220.7 485.9,220.7 487.1,222.1 488.3,223.0 489.5,225.0 490.7,223.9 491.9,220.4 493.1,219.8 494.3,217.3 495.4,214.9 496.6,212.8 497.8,208.6 499.0,204.2 500.2,202.2 501.4,200.1 502.6,199.2 503.7,199.0 504.9,197.8 506.1,197.0 507.3,196.5 508.5,196.9 509.7,199.1 510.9,197.9 512.1,198.1 513.2,197.4 514.4,199.0 515.6,196.7 516.8,196.6 518.0,194.5 519.2,192.1 520.4,191.1 521.5,190.9 522.7,187.3 523.9,183.9 525.1,180.8 526.3,179.2 527.5,177.1 528.7,174.8 529.9,175.0 531.0,175.8 532.2,176.7 533.4,179.0 534.6,179.7 535.8,180.7 537.0,183.5 538.2,183.7 539.3,184.6 540.5,187.7 541.7,189.3 542.9,189.4 544.1,187.9 545.3,187.3 546.5,182.1 547.7,178.7 548.8,175.2 550.0,172.3 551.2,166.8 552.4,164.7 553.6,161.6 554.8,160.1 556.0,159.8 557.1,159.9 558.3,159.7 559.5,157.5 560.7,156.7 561.9,155.9 563.1,154.3 564.3,152.1 565.5,149.2 566.6,145.3 567.8,141.5 569.0,139.2 570.2,139.0 571.4,138.2 572.6,138.0 573.8,139.8 574.9,142.0 576.1,143.9 577.3,144.5 578.5,144.7 579.7,145.7 580.9,146.6 582.1,146.5 583.3,146.8 584.4,148.0 585.6,148.2 586.8,149.8 588.0,150.7 589.2,151.0 590.4,151.7 591.6,150.9 592.7,151.0 593.9,153.1 595.1,154.1 596.3,154.4 597.5,154.5 598.7,154.9 599.9,156.5 601.1,157.1 602.2,156.8 603.4,155.7 604.6,156.8 605.8,157.3 607.0,156.6 608.2,157.8 609.4,158.8 610.5,160.0 611.7,160.0 612.9,159.6 614.1,160.4 615.3,162.5 616.5,164.5 617.7,164.9 618.9,164.7 620.0,164.3 621.2,164.7 622.4,166.3 623.6,167.7 624.8,169.3 626.0,168.2 627.2,168.7 628.3,168.1 629.5,167.2 630.7,166.6 631.9,166.2 633.1,166.0 634.3,166.1 635.5,168.8 636.7,169.0 637.8,170.9 639.0,171.7 640.2,171.9 641.4,172.1 642.6,172.7 643.8,172.4 645.0,172.2 646.1,173.5 647.3,173.8 648.5,174.3 649.7,175.5 650.9,175.1 652.1,174.2 653.3,175.5 654.5,177.1 655.6,177.2 656.8,176.0 658.0,175.2 659.2,173.8 660.4,173.3 661.6,171.4 662.8,171.8 663.9,173.5 665.1,172.9 666.3,174.7 667.5,176.6 668.7,177.2 669.9,179.0 671.1,179.1 672.3,179.8 673.4,179.3 674.6,181.5 675.8,180.7 677.0,182.4 678.2,182.7 679.4,183.7 680.6,184.4 681.7,185.2 682.9,184.7 684.1,185.3 685.3,185.0 686.5,184.9 687.7,183.4 688.9,183.4 690.1,182.9 691.2,183.8 692.4,184.3 693.6,184.8 694.8,186.9 696.0,186.0 697.2,185.7 698.4,186.9 699.5,188.6 700.7,188.5 701.9,188.8 703.1,189.5 704.3,189.3 705.5,190.1 706.7,190.5 707.9,191.6 709.0,192.3 710.2,192.9 711.4,194.6 712.6,196.9 713.8,197.4 715.0,198.7 716.2,198.2 717.3,198.6 718.5,198.6 719.7,198.7 720.9,198.9 722.1,199.4 723.3,200.0 724.5,199.3 725.7,199.1 726.8,198.8 728.0,198.4 729.2,197.7 730.4,196.3 731.6,196.5 732.8,196.8 734.0,197.8 735.1,198.3 736.3,199.1 737.5,200.1 738.7,201.3 739.9,202.0 741.1,201.7 742.3,201.3 743.5,202.4 744.6,202.0 745.8,202.9 747.0,204.9 748.2,204.7 749.4,204.5 750.6,207.0 751.8,207.4 752.9,208.7 754.1,207.8 755.3,208.8 756.5,209.9 757.7,209.2 758.9,209.8 760.1,210.0 761.3,211.2 762.4,211.9 763.6,212.2 764.8,212.0 766.0,211.6"/>
<line x1="606" y1="60" x2="628" y2="60" stroke="#24a148" stroke-width="2.2"/>
<text x="634" y="64" font-family="Arial" font-size="12">airspeed_mps</text>
</svg>