<svg xmlns="http://www.w3.org/2000/svg" width="820" height="320" viewBox="0 0 820 320">
<rect width="100%" height="100%" fill="#ffffff"/>
<text x="54" y="28" font-family="Arial" font-size="18" font-weight="700">Euler Angles</text>
<line x1="54" y1="266" x2="766" y2="266" stroke="#1f2933"/>
<line x1="54" y1="54" x2="54" y2="266" stroke="#1f2933"/>
<text x="54" y="306" font-family="Arial" font-size="12">time (s)</text>
<text x="596" y="306" font-family="Arial" font-size="12">angle (deg)</text>
<text x="58" y="68" font-family="Arial" font-size="11">179</text>
<text x="58" y="260" font-family="Arial" font-size="11">-180</text>
<polyline fill="none" stroke="#0f62fe" stroke-width="2.2" points="54.0,159.3 55.2,159.2 56.4,159.1 57.6,159.0 58.7,158.8 59.9,158.5 61.1,158.2 62.3,157.8 63.5,157.4 64.7,156.9 65.9,156.4 67.1,155.9 68.2,155.3 69.4,154.7 70.6,154.0 71.8,153.4 73.0,152.7 74.2,152.0 75.4,151.2 76.5,150.5 77.7,149.7 78.9,149.0 80.1,148.2 81.3,147.4 82.5,146.7 83.7,145.9 84.9,145.1 86.0,144.3 87.2,143.5 88.4,142.7 89.6,141.8 90.8,140.8 92.0,139.8 93.2,138.7 94.3,137.5 95.5,136.2 96.7,134.8 97.9,133.3 99.1,131.7 100.3,129.8 101.5,127.9 102.7,125.7 103.8,123.4 105.0,120.8 106.2,118.0 107.4,115.0 108.6,111.7 109.8,108.2 111.0,104.3 112.1,100.1 113.3,95.6 114.5,90.9 115.7,86.0 116.9,80.9 118.1,75.7 119.3,70.4 120.5,65.0 121.6,59.2 122.8,265.2 124.0,257.3 125.2,247.0 126.4,232.5 127.6,213.2 128.8,193.3 129.9,177.3 131.1,165.0 132.3,154.7 133.5,145.5 134.7,136.7 135.9,127.3 137.1,116.3 138.3,102.7 139.4,87.2 140.6,71.6 141.8,57.8 143.0,258.7 144.2,249.1 145.4,240.4 146.6,231.1 147.7,217.7 148.9,190.3 150.1,157.9 151.3,142.1 152.5,132.6 153.7,124.3 154.9,114.7 156.1,101.6 157.2,83.1 158.4,62.4 159.6,258.5 160.8,246.8 162.0,237.8 163.2,229.4 164.4,219.8 165.5,205.4 166.7,182.8 167.9,160.4 169.1,146.6 170.3,137.6 171.5,129.8 172.7,120.9 173.9,107.5 175.0,83.7 176.2,55.8 177.4,251.2 178.6,240.8 179.8,232.9 181.0,225.3 182.2,215.7 183.3,201.4 184.5,181.5 185.7,163.6 186.9,152.0 188.1,144.4 189.3,138.5 190.5,132.6 191.7,124.3 192.8,97.2 194.0,253.5 195.2,240.4 196.4,234.0 197.6,228.9 198.8,223.5 200.0,216.2 201.1,205.1 202.3,189.1 203.5,172.3 204.7,160.3 205.9,153.0 207.1,148.8 208.3,146.5 209.5,146.2 210.6,150.9 211.8,181.9 213.0,217.3 214.2,223.6 215.4,224.5 216.6,223.7 217.8,221.7 218.9,217.8 220.1,210.7 221.3,197.6 222.5,179.6 223.7,166.0 224.9,159.2 226.1,156.6 227.3,156.4 228.4,158.1 229.6,161.6 230.8,167.1 232.0,174.8 233.2,184.8 234.4,195.7 235.6,205.5 236.7,213.5 237.9,219.9 239.1,225.2 240.3,229.5 241.5,232.9 242.7,235.4 243.9,236.7 245.1,236.6 246.2,234.8 247.4,230.6 248.6,224.0 249.8,216.2 251.0,209.4 252.2,205.2 253.4,203.3 254.5,203.2 255.7,204.2 256.9,206.2 258.1,209.0 259.3,212.6 260.5,216.9 261.7,221.8 262.9,227.2 264.0,233.0 265.2,239.1 266.4,245.3 267.6,251.6 268.8,258.0 270.0,264.4 271.2,58.7 272.3,65.6 273.5,73.0 274.7,81.0 275.9,89.7 277.1,98.9 278.3,108.5 279.5,118.0 280.7,127.1 281.8,135.4 283.0,142.8 284.2,149.1 285.4,154.6 286.6,159.5 287.8,163.9 289.0,167.8 290.1,171.1 291.3,173.5 292.5,174.1 293.7,170.9 294.9,158.9 296.1,138.1 297.3,125.3 298.5,121.1 299.6,120.8 300.8,122.0 302.0,124.2 303.2,126.7 304.4,129.5 305.6,132.3 306.8,135.1 307.9,138.1 309.1,141.1 310.3,144.1 311.5,147.2 312.7,150.1 313.9,152.9 315.1,155.3 316.3,157.4 317.4,159.1 318.6,160.3 319.8,161.1 321.0,161.3 322.2,161.1 323.4,160.6 324.6,160.0 325.7,159.5 326.9,159.2 328.1,159.5 329.3,160.3 330.5,161.7 331.7,163.5 332.9,165.7 334.1,168.0 335.2,170.4 336.4,172.8 337.6,175.1 338.8,177.4 340.0,179.8 341.2,182.2 342.4,184.7 343.5,187.4 344.7,190.3 345.9,193.3 347.1,196.5 348.3,199.7 349.5,202.9 350.7,206.1 351.9,208.9 353.0,211.3 354.2,213.2 355.4,214.4 356.6,215.1 357.8,215.4 359.0,215.6 360.2,215.7 361.3,216.0 362.5,216.8 363.7,218.5 364.9,221.0 366.1,224.3 367.3,228.2 368.5,232.6 369.7,237.4 370.8,242.2 372.0,246.8 373.2,250.8 374.4,253.8 375.6,255.2 376.8,254.4 378.0,250.6 379.1,244.6 380.3,238.1 381.5,232.8 382.7,230.1 383.9,229.9 385.1,231.7 386.3,235.1 387.5,239.7 388.6,245.2 389.8,251.3 391.0,257.6 392.2,263.9 393.4,57.2 394.6,62.1 395.8,65.8 396.9,68.1 398.1,68.4 399.3,65.6 400.5,55.5 401.7,244.9 402.9,225.0 404.1,218.1 405.3,216.8 406.4,217.9 407.6,220.4 408.8,224.2 410.0,229.1 411.2,235.3 412.4,243.4 413.6,252.9 414.7,263.3 415.9,61.1 417.1,70.5 418.3,78.9 419.5,85.9 420.7,91.9 421.9,97.1 423.1,101.9 424.2,106.8 425.4,112.5 426.6,119.4 427.8,129.0 429.0,143.8 430.2,163.1 431.4,179.3 432.5,189.4 433.7,195.8 434.9,200.6 436.1,204.5 437.3,207.9 438.5,211.2 439.7,214.2 440.9,217.6 442.0,221.9 443.2,227.4 444.4,235.9 445.6,257.8 446.8,108.3 448.0,127.1 449.2,135.9 450.3,142.6 451.5,148.5 452.7,154.3 453.9,160.0 455.1,165.8 456.3,171.8 457.5,178.0 458.7,184.7 459.8,191.9 461.0,199.6 462.2,207.9 463.4,216.9 464.6,226.6 465.8,237.3 467.0,249.0 468.1,261.7 469.3,62.4 470.5,74.9 471.7,86.0 472.9,95.8 474.1,104.6 475.3,112.8 476.5,120.6 477.6,128.3 478.8,136.2 480.0,144.3 481.2,152.6 482.4,161.0 483.6,169.5 484.8,177.8 485.9,186.0 487.1,194.1 488.3,202.3 489.5,210.5 490.7,219.0 491.9,228.1 493.1,238.2 494.3,249.7 495.4,263.0 496.6,65.0 497.8,79.4 499.0,93.1 500.2,105.5 501.4,116.7 502.6,126.8 503.7,136.2 504.9,145.3 506.1,154.5 507.3,163.7 508.5,173.0 509.7,182.4 510.9,191.7 512.1,201.0 513.2,210.4 514.4,219.8 515.6,229.2 516.8,238.6 518.0,247.8 519.2,256.9 520.4,265.8 521.5,62.2 522.7,71.5 523.9,81.9 525.1,95.0 526.3,111.9 527.5,132.6 528.7,152.9 529.9,169.0 531.0,181.5 532.2,191.9 533.4,201.4 534.6,210.2 535.8,219.3 537.0,229.4 538.2,240.9 539.3,253.7 540.5,54.9 541.7,68.1 542.9,79.6 544.1,89.2 545.3,97.5 546.5,105.1 547.7,112.7 548.8,121.6 550.0,136.6 551.2,172.6 552.4,202.0 553.6,214.5 554.8,222.5 556.0,229.3 557.1,235.8 558.3,242.3 559.5,248.9 560.7,255.6 561.9,262.2 563.1,55.9 564.3,61.2 565.5,65.2 566.6,67.4 567.8,66.7 569.0,58.7 570.2,247.2 571.4,226.4 572.6,220.0 573.8,219.3 574.9,221.5 576.1,225.6 577.3,231.3 578.5,238.3 579.7,246.2 580.9,254.5 582.1,262.4 583.3,57.0 584.4,62.9 585.6,67.4 586.8,70.3 588.0,71.0 589.2,65.9 590.4,240.1 591.6,209.8 592.7,206.2 593.9,207.0 595.1,209.9 596.3,214.6 597.5,221.3 598.7,230.2 599.9,241.1 601.1,252.5 602.2,262.8 603.4,58.6 604.6,64.7 605.8,68.9 607.0,71.6 608.2,72.5 609.4,69.1 610.5,229.1 611.7,197.9 612.9,196.2 614.1,197.5 615.3,200.0 616.5,203.5 617.7,209.2 618.9,219.0 620.0,235.2 621.2,254.8 622.4,56.9 623.6,65.5 624.8,70.5 626.0,73.4 627.2,74.6 628.3,74.4 629.5,71.8 630.7,57.5 631.9,203.9 633.1,192.8 634.3,190.2 635.5,189.2 636.7,188.7 637.8,188.5 639.0,188.6 640.2,189.0 641.4,189.8 642.6,192.5 643.8,200.2 645.0,229.3 646.1,56.6 647.3,68.3 648.5,72.8 649.7,75.2 650.9,76.4 652.1,77.0 653.3,77.2 654.5,77.0 655.6,76.6 656.8,76.0 658.0,75.5 659.2,76.2 660.4,83.8 661.6,143.9 662.8,160.2 663.9,161.5 665.1,160.6 666.3,159.0 667.5,156.9 668.7,154.7 669.9,152.1 671.1,149.3 672.3,146.2 673.4,142.6 674.6,138.6 675.8,134.2 677.0,129.5 678.2,124.5 679.4,119.6 680.6,114.8 681.7,110.3 682.9,106.0 684.1,102.0 685.3,98.1 686.5,93.7 687.7,88.8 688.9,83.5 690.1,77.7 691.2,71.3 692.4,64.0 693.6,55.9 694.8,259.1 696.0,249.2 697.2,239.0 698.4,229.1 699.5,219.6 700.7,210.9 701.9,203.0 703.1,196.1 704.3,189.7 705.5,183.7 706.7,177.9 707.9,172.1 709.0,166.5 710.2,161.0 711.4,155.9 712.6,151.3 713.8,147.3 715.0,144.1 716.2,141.7 717.3,140.4 718.5,139.6 719.7,138.8 720.9,137.1 722.1,134.0 723.3,129.4 724.5,123.6 725.7,116.6 726.8,108.9 728.0,100.8 729.2,92.5 730.4,84.1 731.6,75.6 732.8,67.0 734.0,58.4 735.1,262.2 736.3,253.5 737.5,245.1 738.7,236.9 739.9,228.7 741.1,220.4 742.3,211.7 743.5,202.7 744.6,193.7 745.8,184.8 747.0,176.2 748.2,168.2 749.4,160.8 750.6,154.1 751.8,148.3 752.9,143.1 754.1,138.8 755.3,135.2 756.5,132.5 757.7,130.8 758.9,130.7 760.1,132.8 761.3,137.5 762.4,143.4 763.6,147.7 764.8,149.1 766.0,147.8"/>
<line x1="606" y1="42" x2="628" y2="42" stroke="#0f62fe" stroke-width="2.2"/>
<text x="634" y="46" font-family="Arial" font-size="12">roll_deg</text>
<polyline fill="none" stroke="#24a148" stroke-width="2.2" points="54.0,155.1 55.2,154.9 56.4,154.5 57.6,154.1 58.7,153.7 59.9,153.5 61.1,153.3 62.3,153.2 63.5,153.1 64.7,153.0 65.9,152.9 67.1,152.8 68.2,152.8 69.4,152.8 70.6,152.8 71.8,152.9 73.0,152.9 74.2,153.0 75.4,153.0 76.5,153.1 77.7,153.2 78.9,153.3 80.1,153.5 81.3,153.7 82.5,153.8 83.7,154.0 84.9,154.1 86.0,154.2 87.2,154.4 88.4,154.5 89.6,154.6 90.8,154.7 92.0,154.7 93.2,154.8 94.3,154.8 95.5,154.9 96.7,154.9 97.9,155.0 99.1,154.9 100.3,154.8 101.5,154.6 102.7,154.5 103.8,154.3 105.0,154.1 106.2,153.9 107.4,153.7 108.6,153.6 109.8,153.5 111.0,153.6 112.1,153.8 113.3,154.5 114.5,155.6 115.7,157.3 116.9,159.7 118.1,162.8 119.3,166.5 120.5,170.9 121.6,175.7 122.8,181.0 124.0,186.4 125.2,191.6 126.4,195.7 127.6,197.5 128.8,195.9 129.9,191.5 131.1,185.7 132.3,178.6 133.5,170.6 134.7,162.2 135.9,153.7 137.1,146.2 138.3,140.9 139.4,138.8 140.6,140.3 141.8,144.9 143.0,151.8 144.2,160.6 145.4,170.6 146.6,181.4 147.7,192.2 148.9,199.1 150.1,194.6 151.3,183.3 152.5,170.6 153.7,158.0 154.9,146.4 156.1,137.0 157.2,131.7 158.4,132.8 159.6,139.0 160.8,148.0 162.0,158.2 163.2,169.0 164.4,179.7 165.5,188.8 166.7,192.6 167.9,188.0 169.1,177.7 170.3,165.4 171.5,152.6 172.7,140.2 173.9,129.5 175.0,123.2 176.2,125.7 177.4,134.2 178.6,144.8 179.8,156.0 181.0,167.3 182.2,177.9 183.3,185.9 184.5,188.0 185.7,182.8 186.9,173.1 188.1,161.5 189.3,149.1 190.5,136.3 191.7,123.7 192.8,113.2 194.0,117.4 195.2,128.7 196.4,140.5 197.6,152.3 198.8,163.8 200.0,174.5 201.1,183.0 202.3,187.1 203.5,184.9 204.7,177.6 205.9,167.6 207.1,156.5 208.3,144.7 209.5,132.8 210.6,121.2 211.8,113.5 213.0,119.8 214.2,130.5 215.4,141.7 216.6,153.0 217.8,164.3 218.9,175.0 220.1,184.5 221.3,191.1 222.5,191.9 223.7,186.5 224.9,178.0 226.1,168.4 227.3,159.2 228.4,150.6 229.6,143.2 230.8,137.2 232.0,133.1 233.2,130.6 234.4,130.4 235.6,132.2 236.7,135.6 237.9,139.8 239.1,144.8 240.3,150.3 241.5,156.3 242.7,162.7 243.9,169.2 245.1,175.4 246.2,181.0 247.4,185.4 248.6,187.9 249.8,187.9 251.0,185.3 252.2,180.8 253.4,175.3 254.5,169.5 255.7,163.8 256.9,158.4 258.1,153.4 259.3,149.0 260.5,145.2 261.7,142.1 262.9,139.7 264.0,137.8 265.2,136.4 266.4,135.3 267.6,134.5 268.8,133.7 270.0,133.0 271.2,132.3 272.3,131.5 273.5,130.7 274.7,130.0 275.9,129.5 277.1,129.6 278.3,130.3 279.5,131.9 280.7,134.6 281.8,138.4 283.0,143.3 284.2,149.0 285.4,155.3 286.6,162.0 287.8,168.7 289.0,175.2 290.1,181.6 291.3,187.9 292.5,194.1 293.7,199.7 294.9,203.8 296.1,204.0 297.3,200.5 298.5,195.5 299.6,190.2 300.8,184.8 302.0,179.5 303.2,174.3 304.4,169.1 305.6,164.7 306.8,161.0 307.9,158.3 309.1,156.5 310.3,155.5 311.5,155.5 312.7,156.4 313.9,158.0 315.1,160.2 316.3,162.6 317.4,165.2 318.6,167.8 319.8,170.1 321.0,172.0 322.2,173.4 323.4,174.1 324.6,174.0 325.7,173.3 326.9,171.9 328.1,170.1 329.3,168.1 330.5,166.3 331.7,164.9 332.9,164.2 334.1,164.1 335.2,164.3 336.4,164.8 337.6,165.3 338.8,165.8 340.0,166.1 341.2,166.2 342.4,166.3 343.5,166.4 344.7,166.6 345.9,167.1 347.1,167.9 348.3,169.0 349.5,170.6 350.7,172.5 351.9,174.4 353.0,176.4 354.2,178.3 355.4,180.0 356.6,181.4 357.8,182.4 359.0,182.8 360.2,182.7 361.3,182.0 362.5,181.0 363.7,179.6 364.9,178.0 366.1,176.5 367.3,175.0 368.5,173.7 369.7,172.7 370.8,172.6 372.0,173.4 373.2,175.3 374.4,178.2 375.6,181.8 376.8,185.4 378.0,188.2 379.1,189.4 380.3,188.6 381.5,185.8 382.7,181.6 383.9,176.7 385.1,171.8 386.3,167.3 387.5,163.5 388.6,161.0 389.8,159.7 391.0,159.7 392.2,161.1 393.4,163.8 394.6,167.9 395.8,173.1 396.9,179.3 398.1,186.1 399.3,193.2 400.5,199.6 401.7,202.0 402.9,197.6 404.1,189.9 405.3,181.4 406.4,172.9 407.6,164.8 408.8,157.2 410.0,150.3 411.2,144.3 412.4,139.8 413.6,137.1 414.7,136.3 415.9,137.0 417.1,139.1 418.3,142.5 419.5,146.9 420.7,152.3 421.9,158.3 423.1,164.9 424.2,171.8 425.4,178.8 426.6,185.6 427.8,191.7 429.0,196.0 430.2,196.5 431.4,192.4 432.5,185.7 433.7,178.0 434.9,170.1 436.1,162.2 437.3,154.6 438.5,147.1 439.7,139.9 440.9,133.0 442.0,126.5 443.2,120.3 444.4,114.7 445.6,109.9 446.8,110.4 448.0,115.1 449.2,120.1 450.3,124.9 451.5,129.3 452.7,134.0 453.9,139.1 455.1,144.6 456.3,150.2 457.5,155.6 458.7,160.7 459.8,165.3 461.0,169.3 462.2,173.0 463.4,176.2 464.6,179.1 465.8,181.6 467.0,183.3 468.1,183.9 469.3,182.9 470.5,180.2 471.7,176.0 472.9,171.1 474.1,166.0 475.3,160.9 476.5,156.0 477.6,151.5 478.8,147.7 480.0,145.1 481.2,143.6 482.4,143.2 483.6,143.8 484.8,145.5 485.9,148.2 487.1,151.8 488.3,155.9 489.5,160.4 490.7,165.3 491.9,170.4 493.1,175.5 494.3,180.0 495.4,183.3 496.6,184.7 497.8,184.3 499.0,182.3 500.2,179.1 501.4,175.0 502.6,170.4 503.7,165.8 504.9,161.6 506.1,158.2 507.3,155.5 508.5,153.6 509.7,152.6 510.9,152.2 512.1,152.5 513.2,153.0 514.4,153.8 515.6,155.2 516.8,157.3 518.0,160.0 519.2,163.5 520.4,167.7 521.5,172.8 522.7,178.6 523.9,185.0 525.1,190.9 526.3,195.1 527.5,196.5 528.7,194.5 529.9,189.9 531.0,184.0 532.2,177.3 533.4,170.4 534.6,163.2 535.8,156.5 537.0,150.7 538.2,146.2 539.3,143.5 540.5,143.3 541.7,146.0 542.9,151.2 544.1,158.2 545.3,166.4 546.5,175.2 547.7,184.4 548.8,193.6 550.0,201.9 551.2,205.4 552.4,200.8 553.6,194.1 554.8,187.8 556.0,182.3 557.1,178.0 558.3,174.7 559.5,172.5 560.7,171.2 561.9,171.2 563.1,172.8 564.3,176.1 565.5,181.2 566.6,187.6 567.8,194.6 569.0,201.2 570.2,204.0 571.4,199.7 572.6,192.5 573.8,184.7 574.9,177.1 576.1,170.3 577.3,164.8 578.5,160.8 579.7,158.7 580.9,158.5 582.1,160.2 583.3,163.8 584.4,169.1 585.6,175.9 586.8,184.0 588.0,192.9 589.2,202.1 590.4,207.6 591.6,200.3 592.7,190.2 593.9,179.8 595.1,169.7 596.3,160.4 597.5,152.5 598.7,146.7 599.9,143.8 601.1,144.0 602.2,147.3 603.4,153.1 604.6,160.7 605.8,169.7 607.0,179.7 608.2,190.5 609.4,201.7 610.5,209.2 611.7,198.9 612.9,186.8 614.1,174.9 615.3,163.5 616.5,152.3 617.7,141.8 618.9,132.8 620.0,127.5 621.2,128.1 622.4,133.7 623.6,141.8 624.8,151.2 626.0,161.3 627.2,172.1 628.3,183.3 629.5,194.9 630.7,206.1 631.9,204.9 633.1,193.6 634.3,182.2 635.5,171.5 636.7,161.4 637.8,152.1 639.0,143.6 640.2,135.7 641.4,128.5 642.6,121.5 643.8,115.1 645.0,110.8 646.1,113.1 647.3,118.2 648.5,123.8 649.7,129.8 650.9,136.3 652.1,143.3 653.3,150.9 654.5,159.1 655.6,167.8 656.8,176.9 658.0,186.4 659.2,196.1 660.4,205.6 661.6,208.2 662.8,199.8 663.9,191.0 665.1,182.9 666.3,175.4 667.5,168.6 668.7,162.3 669.9,156.6 671.1,151.6 672.3,147.2 673.4,143.4 674.6,140.3 675.8,138.0 677.0,136.4 678.2,135.4 679.4,135.2 680.6,135.7 681.7,136.7 682.9,138.2 684.1,140.1 685.3,142.3 686.5,144.9 687.7,148.0 688.9,151.6 690.1,155.4 691.2,159.4 692.4,163.3 693.6,166.6 694.8,169.0 696.0,170.1 697.2,169.9 698.4,168.5 699.5,165.9 700.7,162.5 701.9,158.1 703.1,152.9 704.3,147.6 705.5,142.5 706.7,137.7 707.9,133.4 709.0,129.6 710.2,126.3 711.4,123.5 712.6,120.9 713.8,118.7 715.0,116.9 716.2,115.5 717.3,114.5 718.5,114.2 719.7,114.5 720.9,115.4 722.1,116.9 723.3,118.7 724.5,120.6 725.7,122.5 726.8,124.4 728.0,126.4 729.2,128.5 730.4,130.7 731.6,133.0 732.8,135.5 734.0,138.1 735.1,141.1 736.3,144.5 737.5,148.3 738.7,152.5 739.9,156.7 741.1,160.7 742.3,164.1 743.5,166.3 744.6,167.5 745.8,167.6 747.0,166.7 748.2,164.9 749.4,162.2 750.6,158.8 751.8,154.7 752.9,150.0 754.1,144.9 755.3,139.7 756.5,134.6 757.7,129.8 758.9,125.5 760.1,122.1 761.3,120.0 762.4,119.7 763.6,121.1 764.8,123.6 766.0,126.9"/>
<line x1="606" y1="60" x2="628" y2="60" stroke="#24a148" stroke-width="2.2"/>
<text x="634" y="64" font-family="Arial" font-size="12">pitch_deg</text>
<polyline fill="none" stroke="#da1e28" stroke-width="2.2" points="54.0,159.3 55.2,159.4 56.4,159.5 57.6,159.8 58.7,160.1 59.9,160.6 61.1,161.1 62.3,161.7 63.5,162.3 64.7,163.1 65.9,163.8 67.1,164.7 68.2,165.5 69.4,166.4 70.6,167.4 71.8,168.3 73.0,169.3 74.2,170.2 75.4,171.1 76.5,172.0 77.7,172.8 78.9,173.6 80.1,174.3 81.3,174.9 82.5,175.4 83.7,175.8 84.9,176.1 86.0,176.3 87.2,176.4 88.4,176.3 89.6,176.2 90.8,175.9 92.0,175.5 93.2,175.0 94.3,174.3 95.5,173.6 96.7,172.7 97.9,171.7 99.1,170.8 100.3,169.9 101.5,168.9 102.7,168.0 103.8,167.1 105.0,166.3 106.2,165.6 107.4,165.0 108.6,164.7 109.8,164.7 111.0,165.0 112.1,165.8 113.3,167.0 114.5,168.7 115.7,170.6 116.9,172.7 118.1,174.7 119.3,176.6 120.5,178.0 121.6,178.9 122.8,178.9 124.0,177.3 125.2,173.2 126.4,164.9 127.6,151.8 128.8,138.3 129.9,129.2 131.1,124.4 132.3,122.2 133.5,122.2 134.7,124.1 135.9,128.2 137.1,134.8 138.3,144.2 139.4,155.6 140.6,166.9 141.8,176.3 143.0,183.3 144.2,188.0 145.4,190.4 146.6,190.1 147.7,184.2 148.9,163.2 150.1,137.1 151.3,127.8 152.5,126.1 153.7,127.8 154.9,132.6 156.1,141.5 157.2,156.1 158.4,172.7 159.6,184.8 160.8,191.7 162.0,194.9 163.2,195.3 164.4,192.1 165.5,182.8 166.7,164.5 167.9,146.3 169.1,137.0 170.3,133.5 171.5,133.3 172.7,136.4 173.9,144.9 175.0,164.0 176.2,187.1 177.4,199.1 178.6,203.7 179.8,204.6 181.0,202.4 182.2,196.6 183.3,184.8 184.5,166.8 185.7,150.6 186.9,140.7 188.1,135.2 189.3,132.1 190.5,131.1 191.7,133.8 192.8,155.6 194.0,206.7 195.2,214.4 196.4,214.8 197.6,212.8 198.8,208.6 200.0,201.6 201.1,190.2 202.3,173.5 203.5,155.7 204.7,142.5 205.9,133.7 207.1,127.4 208.3,121.9 209.5,116.0 210.6,106.0 211.8,70.3 213.0,242.7 214.2,231.8 215.4,225.8 216.6,220.6 217.8,214.8 218.9,207.4 220.1,196.9 221.3,180.4 222.5,158.7 223.7,140.9 224.9,129.6 226.1,121.7 227.3,115.1 228.4,108.7 229.6,101.6 230.8,93.2 232.0,83.2 233.2,71.3 234.4,58.7 235.6,260.0 236.7,250.7 237.9,243.0 239.1,236.4 240.3,230.2 241.5,224.2 242.7,218.1 243.9,211.5 245.1,204.3 246.2,195.8 247.4,185.3 248.6,172.6 249.8,158.7 251.0,145.9 252.2,135.9 253.4,128.1 254.5,121.8 255.7,116.4 256.9,111.4 258.1,106.6 259.3,101.8 260.5,96.9 261.7,91.9 262.9,86.9 264.0,81.9 265.2,77.1 266.4,72.5 267.6,68.1 268.8,64.0 270.0,60.1 271.2,56.1 272.3,264.4 273.5,259.8 274.7,254.7 275.9,248.9 277.1,242.4 278.3,235.3 279.5,228.1 280.7,221.2 281.8,215.0 283.0,209.5 284.2,204.9 285.4,201.1 286.6,197.8 287.8,194.9 289.0,191.9 290.1,188.7 291.3,184.7 292.5,178.9 293.7,169.5 294.9,151.5 296.1,125.0 297.3,106.6 298.5,97.1 299.6,91.4 300.8,87.6 302.0,84.7 303.2,82.4 304.4,80.4 305.6,78.0 306.8,75.0 307.9,71.6 309.1,67.7 310.3,63.5 311.5,58.9 312.7,54.1 313.9,261.6 315.1,256.4 316.3,251.1 317.4,245.4 318.6,239.4 319.8,233.0 321.0,226.1 322.2,218.8 323.4,211.0 324.6,203.0 325.7,194.7 326.9,186.3 328.1,177.9 329.3,169.6 330.5,161.4 331.7,153.4 332.9,145.5 334.1,138.0 335.2,130.7 336.4,123.7 337.6,116.9 338.8,110.3 340.0,103.7 341.2,97.2 342.4,90.5 343.5,83.8 344.7,77.0 345.9,69.9 347.1,62.7 348.3,55.3 349.5,260.2 350.7,252.5 351.9,244.3 353.0,235.5 354.2,225.9 355.4,215.4 356.6,204.3 357.8,192.9 359.0,181.2 360.2,169.5 361.3,157.8 362.5,146.5 363.7,136.1 364.9,126.4 366.1,117.2 367.3,108.6 368.5,100.2 369.7,91.9 370.8,83.3 372.0,74.1 373.2,64.5 374.4,54.0 375.6,254.9 376.8,241.6 378.0,225.8 379.1,208.4 380.3,190.8 381.5,174.4 382.7,160.3 383.9,148.4 385.1,137.8 386.3,127.8 387.5,118.1 388.6,108.3 389.8,98.5 391.0,88.9 392.2,79.5 393.4,70.5 394.6,61.9 395.8,266.0 396.9,257.7 398.1,248.9 399.3,238.0 400.5,220.8 401.7,191.2 402.9,165.1 404.1,152.0 405.3,144.5 406.4,139.0 407.6,134.1 408.8,129.3 410.0,124.1 411.2,118.2 412.4,110.9 413.6,102.4 414.7,93.6 415.9,85.2 417.1,78.0 418.3,72.1 419.5,67.8 420.7,64.9 421.9,63.2 423.1,63.0 424.2,64.3 425.4,67.6 426.6,72.3 427.8,80.1 429.0,93.5 430.2,111.7 431.4,126.9 432.5,136.3 433.7,142.0 434.9,145.9 436.1,149.0 437.3,151.6 438.5,154.1 439.7,156.7 440.9,158.4 442.0,159.2 443.2,158.7 444.4,155.5 445.6,139.3 446.8,82.1 448.0,69.4 449.2,66.9 450.3,66.6 451.5,67.4 452.7,68.4 453.9,69.7 455.1,71.2 456.3,73.2 457.5,75.4 458.7,78.1 459.8,81.0 461.0,84.2 462.2,87.6 463.4,91.4 464.6,95.8 465.8,101.1 467.0,107.4 468.1,114.8 469.3,122.6 470.5,129.7 471.7,135.4 472.9,139.4 474.1,142.2 475.3,144.2 476.5,145.5 477.6,145.7 478.8,144.9 480.0,143.3 481.2,141.3 482.4,139.1 483.6,136.9 484.8,135.1 485.9,133.8 487.1,133.0 488.3,132.9 489.5,133.3 490.7,134.3 491.9,136.2 493.1,139.4 494.3,144.3 495.4,151.1 496.6,159.1 497.8,167.1 499.0,174.1 500.2,179.8 501.4,184.2 502.6,187.1 503.7,188.8 504.9,189.3 506.1,189.0 507.3,188.3 508.5,187.2 509.7,186.0 510.9,185.0 512.1,184.5 513.2,183.4 514.4,181.9 515.6,180.2 516.8,178.4 518.0,176.7 519.2,175.0 520.4,173.6 521.5,172.9 522.7,173.3 523.9,175.7 525.1,181.4 526.3,191.4 527.5,205.3 528.7,218.7 529.9,227.8 531.0,232.9 532.2,235.4 533.4,236.1 534.6,234.6 535.8,231.2 537.0,226.1 538.2,219.3 539.3,210.8 540.5,201.1 541.7,191.5 542.9,183.6 544.1,177.7 545.3,173.8 546.5,171.2 547.7,169.9 548.8,170.9 550.0,178.4 551.2,207.0 552.4,228.6 553.6,232.6 554.8,231.3 556.0,227.9 557.1,223.1 558.3,217.4 559.5,211.0 560.7,203.9 561.9,196.2 563.1,187.9 564.3,179.3 565.5,170.1 566.6,160.4 567.8,149.0 569.0,131.0 570.2,97.5 571.4,67.2 572.6,263.3 573.8,251.8 574.9,241.9 576.1,232.4 577.3,222.8 578.5,213.0 579.7,202.9 580.9,192.8 582.1,183.1 583.3,174.0 584.4,165.6 585.6,157.8 586.8,150.3 588.0,142.1 589.2,128.9 590.4,83.2 591.6,258.0 592.7,246.7 593.9,238.8 595.1,231.6 596.3,223.8 597.5,214.8 598.7,204.2 599.9,192.1 601.1,179.8 602.2,168.6 603.4,159.3 604.6,151.7 605.8,145.5 607.0,140.1 608.2,134.5 609.4,125.7 610.5,68.4 611.7,245.0 612.9,238.4 614.1,234.6 615.3,231.3 616.5,226.7 617.7,220.1 618.9,209.5 620.0,192.6 621.2,172.6 622.4,157.5 623.6,148.0 624.8,141.8 626.0,137.2 627.2,133.5 628.3,129.8 629.5,124.7 630.7,108.6 631.9,253.5 633.1,241.2 634.3,237.6 635.5,235.6 636.7,234.2 637.8,233.1 639.0,232.0 640.2,230.9 641.4,229.7 642.6,226.6 643.8,218.9 645.0,189.9 646.1,150.3 647.3,139.1 648.5,134.9 649.7,132.9 650.9,131.9 652.1,131.6 653.3,131.6 654.5,131.9 655.6,132.3 656.8,133.1 658.0,134.4 659.2,137.2 660.4,147.2 661.6,210.0 662.8,229.1 663.9,233.4 665.1,235.5 666.3,237.0 667.5,238.2 668.7,239.2 669.9,240.3 671.1,241.6 672.3,242.9 673.4,244.6 674.6,246.4 675.8,248.3 677.0,250.4 678.2,252.2 679.4,253.7 680.6,254.6 681.7,254.8 682.9,254.0 684.1,252.3 685.3,249.6 686.5,247.2 687.7,244.8 688.9,242.1 690.1,239.0 691.2,235.2 692.4,230.6 693.6,225.0 694.8,218.5 696.0,211.3 697.2,204.1 698.4,197.2 699.5,190.7 700.7,184.7 701.9,179.1 703.1,173.8 704.3,169.6 705.5,166.3 706.7,163.7 707.9,161.6 709.0,159.7 710.2,157.8 711.4,155.5 712.6,152.5 713.8,148.8 715.0,144.2 716.2,138.5 717.3,131.6 718.5,123.8 719.7,115.9 720.9,108.5 722.1,102.3 723.3,97.5 724.5,94.0 725.7,91.6 726.8,89.9 728.0,88.7 729.2,87.7 730.4,86.8 731.6,85.8 732.8,85.0 734.0,84.2 735.1,83.3 736.3,82.2 737.5,80.5 738.7,78.0 739.9,74.5 741.1,69.7 742.3,63.5 743.5,57.0 744.6,262.6 745.8,255.6 747.0,248.6 748.2,241.7 749.4,235.0 750.6,228.4 751.8,222.0 752.9,215.6 754.1,209.4 755.3,203.1 756.5,196.5 757.7,189.1 758.9,180.2 760.1,169.1 761.3,155.3 762.4,140.2 763.6,126.4 764.8,115.4 766.0,106.6"/>
<line x1="606" y1="78" x2="628" y2="78" stroke="#da1e28" stroke-width="2.2"/>
<text x="634" y="82" font-family="Arial" font-size="12">yaw_deg</text>
</svg>