<svg xmlns="http://www.w3.org/2000/svg" width="820" height="320" viewBox="0 0 820 320">
<rect width="100%" height="100%" fill="#ffffff"/>
<text x="54" y="28" font-family="Arial" font-size="18" font-weight="700">Mach Number</text>
<line x1="54" y1="266" x2="766" y2="266" stroke="#1f2933"/>
<line x1="54" y1="54" x2="54" y2="266" stroke="#1f2933"/>
<text x="54" y="306" font-family="Arial" font-size="12">time (s)</text>
<text x="596" y="306" font-family="Arial" font-size="12">Mach</text>
<text x="58" y="68" font-family="Arial" font-size="11">0.339</text>
<text x="58" y="260" font-family="Arial" font-size="11">0.217</text>
<polyline fill="none" stroke="#0f62fe" stroke-width="2.2" points="54.0,198.3 55.2,195.1 56.4,194.9 57.6,192.6 58.7,191.5 59.9,188.6 61.1,188.4 62.3,180.9 63.5,178.7 64.7,174.4 65.9,172.8 67.1,169.7 68.2,168.1 69.4,164.5 70.6,161.6 71.8,160.0 73.0,154.6 74.2,151.1 75.4,148.5 76.5,145.5 77.7,141.3 78.9,138.8 80.1,136.8 81.3,134.8 82.5,134.8 83.7,133.6 84.9,131.6 86.0,128.3 87.2,126.9 88.4,123.5 89.6,121.3 90.8,120.1 92.0,116.8 93.2,117.1 94.3,117.2 95.5,114.0 96.7,114.2 97.9,112.7 99.1,110.3 100.3,107.1 101.5,104.5 102.7,100.3 103.8,97.4 105.0,93.8 106.2,90.8 107.4,84.5 108.6,84.1 109.8,80.3 111.0,75.8 112.1,71.5 113.3,68.4 114.5,67.6 115.7,67.1 116.9,64.8 118.1,62.3 119.3,59.8 120.5,60.1 121.6,56.5 122.8,58.2 124.0,54.0 125.2,54.2 126.4,56.8 127.6,54.7 128.8,57.4 129.9,58.7 131.1,58.0 132.3,57.9 133.5,59.6 134.7,61.6 135.9,62.5 137.1,65.6 138.3,68.5 139.4,66.7 140.6,66.3 141.8,65.6 143.0,64.3 144.2,64.3 145.4,61.8 146.6,62.4 147.7,62.2 148.9,64.1 150.1,63.6 151.3,67.1 152.5,67.8 153.7,69.6 154.9,72.8 156.1,74.3 157.2,73.9 158.4,74.0 159.6,73.1 160.8,73.0 162.0,71.9 163.2,75.3 164.4,78.7 165.5,76.3 166.7,74.8 167.9,74.3 169.1,73.4 170.3,76.1 171.5,77.7 172.7,80.0 173.9,79.7 175.0,79.6 176.2,81.5 177.4,82.6 178.6,81.4 179.8,80.8 181.0,84.1 182.2,84.7 183.3,84.4 184.5,84.9 185.7,84.8 186.9,85.5 188.1,87.4 189.3,88.6 190.5,87.9 191.7,90.0 192.8,95.0 194.0,97.8 195.2,100.4 196.4,101.7 197.6,103.2 198.8,106.5 200.0,106.2 201.1,105.7 202.3,103.8 203.5,103.6 204.7,103.4 205.9,99.7 207.1,99.7 208.3,99.4 209.5,101.2 210.6,103.1 211.8,108.1 213.0,110.7 214.2,114.9 215.4,120.0 216.6,122.5 217.8,123.7 218.9,124.1 220.1,127.0 221.3,124.6 222.5,123.8 223.7,123.4 224.9,121.0 226.1,120.1 227.3,120.6 228.4,124.1 229.6,126.9 230.8,130.8 232.0,132.1 233.2,133.1 234.4,138.0 235.6,142.7 236.7,147.8 237.9,150.8 239.1,154.1 240.3,155.8 241.5,160.7 242.7,160.9 243.9,163.2 245.1,164.7 246.2,163.3 247.4,160.9 248.6,156.6 249.8,153.2 251.0,153.7 252.2,152.8 253.4,153.6 254.5,154.3 255.7,155.0 256.9,153.8 258.1,154.7 259.3,157.1 260.5,159.9 261.7,164.7 262.9,170.2 264.0,175.0 265.2,179.1 266.4,180.9 267.6,186.2 268.8,192.1 270.0,197.3 271.2,202.1 272.3,206.2 273.5,209.5 274.7,213.6 275.9,217.1 277.1,220.9 278.3,225.7 279.5,228.3 280.7,231.3 281.8,234.9 283.0,240.1 284.2,243.0 285.4,242.4 286.6,242.1 287.8,240.5 289.0,238.8 290.1,236.3 291.3,232.5 292.5,229.0 293.7,228.5 294.9,227.7 296.1,225.0 297.3,224.3 298.5,224.4 299.6,224.5 300.8,224.1 302.0,225.6 303.2,225.1 304.4,226.3 305.6,228.9 306.8,232.6 307.9,235.8 309.1,239.3 310.3,241.7 311.5,246.2 312.7,251.2 313.9,255.6 315.1,257.3 316.3,258.8 317.4,262.1 318.6,263.9 319.8,264.5 321.0,265.7 322.2,266.0 323.4,264.1 324.6,263.2 325.7,260.8 326.9,259.9 328.1,256.5 329.3,251.7 330.5,247.8 331.7,245.1 332.9,240.7 334.1,240.2 335.2,237.8 336.4,236.3 337.6,235.6 338.8,236.0 340.0,235.4 341.2,235.4 342.4,233.9 343.5,237.2 344.7,239.6 345.9,242.5 347.1,246.4 348.3,248.3 349.5,251.7 350.7,255.2 351.9,256.3 353.0,257.5 354.2,259.2 355.4,259.1 356.6,257.7 357.8,256.8 359.0,254.9 360.2,250.3 361.3,246.2 362.5,240.8 363.7,239.7 364.9,238.8 366.1,236.7 367.3,235.7 368.5,235.1 369.7,234.6 370.8,235.3 372.0,237.1 373.2,240.0 374.4,241.8 375.6,245.1 376.8,243.8 378.0,243.2 379.1,242.9 380.3,239.3 381.5,235.4 382.7,231.6 383.9,227.4 385.1,223.9 386.3,220.1 387.5,218.7 388.6,216.9 389.8,218.9 391.0,219.4 392.2,222.2 393.4,224.5 394.6,226.0 395.8,226.9 396.9,229.5 398.1,228.5 399.3,229.8 400.5,227.6 401.7,223.7 402.9,220.2 404.1,215.4 405.3,211.7 406.4,209.2 407.6,209.4 408.8,208.3 410.0,207.8 411.2,209.4 412.4,210.1 413.6,211.9 414.7,214.2 415.9,216.8 417.1,218.2 418.3,221.4 419.5,223.3 420.7,226.0 421.9,228.3 423.1,230.1 424.2,229.7 425.4,231.3 426.6,231.1 427.8,229.3 429.0,229.3 430.2,226.4 431.4,225.2 432.5,221.0 433.7,218.9 434.9,216.5 436.1,213.9 437.3,213.4 438.5,212.1 439.7,212.4 440.9,211.9 442.0,212.8 443.2,213.6 444.4,214.9 445.6,217.9 446.8,221.3 448.0,224.1 449.2,226.0 450.3,229.5 451.5,232.2 452.7,234.5 453.9,239.6 455.1,241.9 456.3,244.1 457.5,246.5 458.7,248.1 459.8,249.4 461.0,250.0 462.2,250.1 463.4,250.6 464.6,249.6 465.8,247.9 467.0,245.6 468.1,242.0 469.3,238.1 470.5,235.7 471.7,233.3 472.9,229.5 474.1,228.5 475.3,227.0 476.5,224.0 477.6,225.3 478.8,225.0 480.0,225.9 481.2,228.1 482.4,230.3 483.6,231.7 484.8,232.4 485.9,232.4 487.1,233.9 488.3,234.9 489.5,237.0 490.7,235.8 491.9,232.2 493.1,231.6 494.3,228.9 495.4,226.4 496.6,224.2 497.8,219.8 499.0,215.1 500.2,213.0 501.4,210.8 502.6,209.9 503.7,209.6 504.9,208.4 506.1,207.6 507.3,207.0 508.5,207.5 509.7,209.8 510.9,208.6 512.1,208.8 513.2,208.1 514.4,209.8 515.6,207.4 516.8,207.2 518.0,205.0 519.2,202.5 520.4,201.5 521.5,201.3 522.7,197.4 523.9,193.8 525.1,190.6 526.3,189.0 527.5,186.7 528.7,184.4 529.9,184.5 531.0,185.4 532.2,186.3 533.4,188.8 534.6,189.5 535.8,190.6 537.0,193.6 538.2,193.8 539.3,194.8 540.5,198.1 541.7,199.8 542.9,199.9 544.1,198.3 545.3,197.6 546.5,192.2 547.7,188.7 548.8,185.0 550.0,181.9 551.2,176.1 552.4,173.9 553.6,170.7 554.8,169.1 556.0,168.7 557.1,168.9 558.3,168.7 559.5,166.3 560.7,165.6 561.9,164.7 563.1,163.1 564.3,160.7 565.5,157.6 566.6,153.6 567.8,149.7 569.0,147.2 570.2,147.0 571.4,146.2 572.6,146.0 573.8,147.9 574.9,150.3 576.1,152.2 577.3,152.9 578.5,153.1 579.7,154.1 580.9,155.1 582.1,155.0 583.3,155.3 584.4,156.7 585.6,156.8 586.8,158.6 588.0,159.5 589.2,159.9 590.4,160.6 591.6,159.8 592.7,159.9 593.9,162.1 595.1,163.2 596.3,163.5 597.5,163.6 598.7,164.0 599.9,165.8 601.1,166.4 602.2,166.1 603.4,165.0 604.6,166.2 605.8,166.7 607.0,166.0 608.2,167.3 609.4,168.3 610.5,169.6 611.7,169.6 612.9,169.2 614.1,170.1 615.3,172.3 616.5,174.4 617.7,174.8 618.9,174.7 620.0,174.2 621.2,174.6 622.4,176.3 623.6,177.9 624.8,179.6 626.0,178.4 627.2,178.9 628.3,178.3 629.5,177.4 630.7,176.7 631.9,176.3 633.1,176.1 634.3,176.3 635.5,179.2 636.7,179.4 637.8,181.3 639.0,182.2 640.2,182.4 641.4,182.6 642.6,183.3 643.8,183.0 645.0,182.8 646.1,184.2 647.3,184.5 648.5,185.1 649.7,186.3 650.9,185.9 652.1,185.0 653.3,186.3 654.5,188.0 655.6,188.1 656.8,186.9 658.0,186.1 659.2,184.6 660.4,184.1 661.6,182.1 662.8,182.6 663.9,184.4 665.1,183.8 666.3,185.7 667.5,187.6 668.7,188.3 669.9,190.3 671.1,190.4 672.3,191.1 673.4,190.6 674.6,192.9 675.8,192.1 677.0,193.9 678.2,194.1 679.4,195.3 680.6,196.0 681.7,196.8 682.9,196.4 684.1,197.0 685.3,196.7 686.5,196.6 687.7,195.0 688.9,195.0 690.1,194.6 691.2,195.5 692.4,196.0 693.6,196.5 694.8,198.8 696.0,197.9 697.2,197.5 698.4,198.8 699.5,200.6 700.7,200.5 701.9,200.9 703.1,201.6 704.3,201.4 705.5,202.2 706.7,202.6 707.9,203.8 709.0,204.6 710.2,205.3 711.4,207.0 712.6,209.5 713.8,210.0 715.0,211.4 716.2,210.9 717.3,211.3 718.5,211.3 719.7,211.4 720.9,211.6 722.1,212.1 723.3,212.8 724.5,212.1 725.7,212.0 726.8,211.6 728.0,211.1 729.2,210.5 730.4,209.1 731.6,209.3 732.8,209.5 734.0,210.6 735.1,211.2 736.3,212.0 737.5,213.1 738.7,214.3 739.9,215.1 741.1,214.8 742.3,214.4 743.5,215.6 744.6,215.1 745.8,216.1 747.0,218.2 748.2,218.0 749.4,217.8 750.6,220.5 751.8,220.8 752.9,222.2 754.1,221.3 755.3,222.4 756.5,223.5 757.7,222.8 758.9,223.5 760.1,223.7 761.3,225.0 762.4,225.6 763.6,226.0 764.8,225.9 766.0,225.4"/>
<line x1="606" y1="42" x2="628" y2="42" stroke="#0f62fe" stroke-width="2.2"/>
<text x="634" y="46" font-family="Arial" font-size="12">mach</text>
</svg>