<svg xmlns="http://www.w3.org/2000/svg" width="820" height="320" viewBox="0 0 820 320">
<rect width="100%" height="100%" fill="#ffffff"/>
<text x="54" y="28" font-family="Arial" font-size="18" font-weight="700">Control Surfaces</text>
<line x1="54" y1="266" x2="766" y2="266" stroke="#1f2933"/>
<line x1="54" y1="54" x2="54" y2="266" stroke="#1f2933"/>
<text x="54" y="306" font-family="Arial" font-size="12">time (s)</text>
<text x="596" y="306" font-family="Arial" font-size="12">deflection (deg)</text>
<text x="58" y="68" font-family="Arial" font-size="11">20.1</text>
<text x="58" y="260" font-family="Arial" font-size="11">-20.1</text>
<polyline fill="none" stroke="#0f62fe" stroke-width="2.2" points="54.0,174.3 55.2,173.9 56.4,167.0 57.6,161.5 58.7,162.0 59.9,166.2 61.1,170.8 62.3,173.4 63.5,175.0 64.7,176.4 65.9,177.5 67.1,179.2 68.2,181.1 69.4,182.7 70.6,184.2 71.8,185.7 73.0,186.9 74.2,188.3 75.4,193.0 76.5,190.8 77.7,192.9 78.9,196.4 80.1,199.2 81.3,200.7 82.5,201.0 83.7,201.0 84.9,201.0 86.0,201.4 87.2,201.8 88.4,201.8 89.6,201.5 90.8,200.9 92.0,200.3 93.2,199.7 94.3,198.8 95.5,190.6 96.7,197.2 97.9,197.5 99.1,193.2 100.3,188.5 101.5,185.0 102.7,182.4 103.8,180.3 105.0,178.3 106.2,176.7 107.4,176.0 108.6,176.8 109.8,180.0 111.0,187.3 112.1,201.1 113.3,215.4 114.5,229.6 115.7,243.9 116.9,257.2 118.1,262.5 119.3,264.6 120.5,265.4 121.6,265.8 122.8,265.9 124.0,266.0 125.2,266.0 126.4,266.0 127.6,266.0 128.8,266.0 129.9,251.7 131.1,237.5 132.3,223.2 133.5,208.9 134.7,194.6 135.9,180.4 137.1,166.1 138.3,151.8 139.4,137.5 140.6,151.8 141.8,166.1 143.0,180.4 144.2,194.6 145.4,208.9 146.6,223.2 147.7,237.5 148.9,251.7 150.1,237.5 151.3,223.2 152.5,208.9 153.7,194.6 154.9,180.4 156.1,166.1 157.2,151.8 158.4,158.5 159.6,172.7 160.8,187.0 162.0,201.3 163.2,215.6 164.4,229.8 165.5,244.1 166.7,257.2 167.9,243.0 169.1,228.7 170.3,214.4 171.5,200.2 172.7,185.9 173.9,171.6 175.0,157.3 176.2,171.6 177.4,185.9 178.6,200.2 179.8,214.4 181.0,228.7 182.2,243.0 183.3,256.8 184.5,262.3 185.7,248.0 186.9,233.8 188.1,219.5 189.3,205.2 190.5,191.0 191.7,176.7 192.8,162.4 194.0,176.7 195.2,191.0 196.4,205.2 197.6,219.5 198.8,233.8 200.0,248.0 201.1,258.8 202.3,263.1 203.5,248.9 204.7,234.6 205.9,220.3 207.1,206.0 208.3,191.8 209.5,177.5 210.6,163.2 211.8,148.9 213.0,163.2 214.2,177.5 215.4,191.8 216.6,206.0 217.8,220.3 218.9,234.6 220.1,248.9 221.3,259.1 222.5,263.3 223.7,249.0 224.9,234.7 226.1,220.4 227.3,206.2 228.4,191.9 229.6,177.6 230.8,163.4 232.0,149.1 233.2,134.8 234.4,120.5 235.6,134.8 236.7,149.1 237.9,163.4 239.1,177.6 240.3,191.9 241.5,206.2 242.7,220.4 243.9,234.7 245.1,249.0 246.2,259.2 247.4,263.3 248.6,264.9 249.8,265.6 251.0,251.3 252.2,237.0 253.4,222.7 254.5,208.5 255.7,194.2 256.9,179.9 258.1,165.7 259.3,151.4 260.5,137.1 261.7,122.8 262.9,108.6 264.0,94.3 265.2,80.0 266.4,65.8 267.6,58.7 268.8,55.9 270.0,54.7 271.2,54.3 272.3,54.1 273.5,54.0 274.7,54.0 275.9,54.0 277.1,68.3 278.3,82.5 279.5,96.8 280.7,111.1 281.8,125.4 283.0,139.6 284.2,153.9 285.4,168.2 286.6,182.5 287.8,196.7 289.0,211.0 290.1,225.3 291.3,239.5 292.5,253.8 293.7,261.1 294.9,264.1 296.1,265.2 297.3,250.9 298.5,236.7 299.6,222.4 300.8,208.1 302.0,193.9 303.2,179.6 304.4,165.3 305.6,151.0 306.8,136.8 307.9,122.5 309.1,108.2 310.3,122.5 311.5,136.8 312.7,151.0 313.9,165.3 315.1,179.6 316.3,193.9 317.4,208.1 318.6,222.4 319.8,236.7 321.0,250.9 322.2,260.0 323.4,263.6 324.6,265.0 325.7,251.4 326.9,237.1 328.1,222.8 329.3,208.6 330.5,194.3 331.7,180.0 332.9,189.7 334.1,204.0 335.2,218.3 336.4,232.5 337.6,246.8 338.8,258.3 340.0,262.9 341.2,264.8 342.4,265.5 343.5,265.8 344.7,265.9 345.9,266.0 347.1,266.0 348.3,266.0 349.5,266.0 350.7,266.0 351.9,266.0 353.0,266.0 354.2,266.0 355.4,266.0 356.6,266.0 357.8,266.0 359.0,266.0 360.2,266.0 361.3,266.0 362.5,260.0 363.7,245.7 364.9,231.4 366.1,217.2 367.3,205.6 368.5,204.8 369.7,214.4 370.8,228.7 372.0,242.9 373.2,256.8 374.4,262.3 375.6,264.5 376.8,265.4 378.0,265.8 379.1,265.9 380.3,266.0 381.5,251.7 382.7,237.4 383.9,223.1 385.1,208.9 386.3,194.6 387.5,180.3 388.6,166.1 389.8,151.8 391.0,166.1 392.2,180.3 393.4,194.6 394.6,208.9 395.8,223.1 396.9,237.4 398.1,251.7 399.3,260.3 400.5,263.7 401.7,265.1 402.9,250.8 404.1,236.5 405.3,222.3 406.4,208.0 407.6,193.7 408.8,179.5 410.0,165.2 411.2,150.9 412.4,136.6 413.6,122.4 414.7,108.1 415.9,122.4 417.1,136.6 418.3,150.9 419.5,165.2 420.7,179.5 421.9,193.7 423.1,208.0 424.2,222.3 425.4,236.5 426.6,250.8 427.8,259.9 429.0,263.6 430.2,265.0 431.4,250.8 432.5,236.5 433.7,222.2 434.9,207.9 436.1,193.7 437.3,179.4 438.5,165.1 439.7,150.8 440.9,136.6 442.0,122.3 443.2,108.0 444.4,93.8 445.6,79.5 446.8,65.2 448.0,79.5 449.2,93.8 450.3,108.0 451.5,122.3 452.7,136.6 453.9,150.8 455.1,165.1 456.3,179.4 457.5,193.7 458.7,207.9 459.8,222.2 461.0,236.5 462.2,250.8 463.4,259.9 464.6,263.6 465.8,265.0 467.0,265.6 468.1,265.8 469.3,265.9 470.5,251.7 471.7,237.4 472.9,223.1 474.1,208.8 475.3,194.6 476.5,180.3 477.6,166.0 478.8,151.8 480.0,137.5 481.2,123.2 482.4,123.8 483.6,138.1 484.8,152.3 485.9,166.6 487.1,180.9 488.3,195.1 489.5,209.4 490.7,223.7 491.9,238.0 493.1,252.2 494.3,260.5 495.4,263.8 496.6,265.1 497.8,265.6 499.0,251.4 500.2,237.1 501.4,222.8 502.6,208.6 503.7,194.3 504.9,180.0 506.1,165.7 507.3,151.5 508.5,137.2 509.7,129.0 510.9,143.3 512.1,157.6 513.2,171.9 514.4,186.1 515.6,200.4 516.8,214.7 518.0,228.9 519.2,243.2 520.4,256.9 521.5,262.4 522.7,264.5 523.9,265.4 525.1,265.8 526.3,265.9 527.5,266.0 528.7,264.4 529.9,250.1 531.0,235.9 532.2,221.6 533.4,207.3 534.6,193.1 535.8,178.8 537.0,164.5 538.2,150.2 539.3,136.0 540.5,139.5 541.7,153.7 542.9,168.0 544.1,182.3 545.3,196.5 546.5,210.8 547.7,225.1 548.8,239.4 550.0,253.6 551.2,261.1 552.4,246.8 553.6,232.5 554.8,218.2 556.0,204.0 557.1,189.7 558.3,175.4 559.5,161.1 560.7,175.4 561.9,189.7 563.1,204.0 564.3,218.2 565.5,232.5 566.6,246.8 567.8,258.3 569.0,262.9 570.2,264.8 571.4,250.5 572.6,236.2 573.8,222.0 574.9,207.7 576.1,193.4 577.3,179.1 578.5,164.9 579.7,150.6 580.9,164.9 582.1,179.1 583.3,193.4 584.4,207.7 585.6,222.0 586.8,236.2 588.0,250.5 589.2,259.8 590.4,263.5 591.6,249.2 592.7,235.0 593.9,220.7 595.1,206.4 596.3,192.2 597.5,177.9 598.7,163.6 599.9,149.3 601.1,163.6 602.2,177.9 603.4,192.2 604.6,206.4 605.8,220.7 607.0,235.0 608.2,249.2 609.4,259.3 610.5,263.3 611.7,249.0 612.9,234.8 614.1,220.5 615.3,206.2 616.5,192.0 617.7,177.7 618.9,163.4 620.0,149.1 621.2,134.9 622.4,149.1 623.6,163.4 624.8,177.7 626.0,192.0 627.2,206.2 628.3,220.5 629.5,234.8 630.7,249.0 631.9,259.2 633.1,244.9 634.3,230.7 635.5,216.4 636.7,202.1 637.8,187.9 639.0,173.6 640.2,159.3 641.4,145.0 642.6,130.8 643.8,116.5 645.0,102.2 646.1,116.5 647.3,130.8 648.5,145.0 649.7,159.3 650.9,173.6 652.1,187.9 653.3,202.1 654.5,216.4 655.6,230.7 656.8,244.9 658.0,257.6 659.2,262.6 660.4,264.7 661.6,265.5 662.8,251.2 663.9,236.9 665.1,222.6 666.3,208.4 667.5,194.1 668.7,179.8 669.9,165.6 671.1,151.3 672.3,137.0 673.4,122.7 674.6,108.5 675.8,94.2 677.0,79.9 678.2,65.6 679.4,79.9 680.6,94.2 681.7,108.5 682.9,122.7 684.1,137.0 685.3,151.3 686.5,165.6 687.7,179.8 688.9,194.1 690.1,208.4 691.2,222.6 692.4,236.9 693.6,251.2 694.8,260.1 696.0,263.6 697.2,265.1 698.4,250.8 699.5,236.5 700.7,222.2 701.9,208.0 703.1,193.7 704.3,179.4 705.5,165.1 706.7,150.9 707.9,136.6 709.0,122.3 710.2,108.1 711.4,93.8 712.6,79.5 713.8,65.2 715.0,58.5 716.2,55.8 717.3,54.7 718.5,54.3 719.7,54.1 720.9,68.4 722.1,82.7 723.3,96.9 724.5,111.2 725.7,125.5 726.8,139.7 728.0,154.0 729.2,168.3 730.4,182.6 731.6,196.8 732.8,211.1 734.0,225.4 735.1,239.6 736.3,253.9 737.5,261.2 738.7,264.1 739.9,265.2 741.1,265.7 742.3,265.9 743.5,266.0 744.6,266.0 745.8,266.0 747.0,251.7 748.2,237.4 749.4,223.2 750.6,208.9 751.8,194.6 752.9,180.4 754.1,166.1 755.3,151.8 756.5,137.5 757.7,123.3 758.9,109.0 760.1,94.7 761.3,80.5 762.4,66.2 763.6,80.5 764.8,94.7 766.0,109.0"/>
<line x1="606" y1="42" x2="628" y2="42" stroke="#0f62fe" stroke-width="2.2"/>
<text x="634" y="46" font-family="Arial" font-size="12">elevator_deg</text>
<polyline fill="none" stroke="#24a148" stroke-width="2.2" points="54.0,153.6 55.2,155.8 56.4,156.0 57.6,155.4 58.7,154.2 59.9,152.8 61.1,151.2 62.3,149.4 63.5,147.4 64.7,145.4 65.9,143.2 67.1,140.9 68.2,138.6 69.4,136.2 70.6,133.7 71.8,131.2 73.0,128.7 74.2,126.2 75.4,123.7 76.5,121.1 77.7,118.6 78.9,116.1 80.1,113.7 81.3,111.3 82.5,108.8 83.7,106.3 84.9,103.8 86.0,101.1 87.2,98.4 88.4,95.4 89.6,92.1 90.8,88.6 92.0,86.0 93.2,85.0 94.3,84.6 95.5,84.4 96.7,84.3 97.9,84.3 99.1,84.3 100.3,84.3 101.5,84.3 102.7,84.3 103.8,84.3 105.0,84.3 106.2,84.3 107.4,84.3 108.6,84.3 109.8,84.3 111.0,84.3 112.1,84.3 113.3,84.3 114.5,84.3 115.7,84.3 116.9,84.3 118.1,84.3 119.3,84.3 120.5,84.3 121.6,84.3 122.8,98.6 124.0,112.8 125.2,127.1 126.4,141.4 127.6,127.1 128.8,112.8 129.9,98.6 131.1,90.0 132.3,86.6 133.5,85.2 134.7,84.6 135.9,84.4 137.1,84.3 138.3,84.3 139.4,84.3 140.6,84.3 141.8,84.3 143.0,98.6 144.2,112.8 145.4,127.1 146.6,141.4 147.7,141.7 148.9,127.4 150.1,113.1 151.3,98.8 152.5,90.1 153.7,86.6 154.9,85.2 156.1,84.7 157.2,84.4 158.4,84.3 159.6,98.6 160.8,112.9 162.0,127.2 163.2,141.4 164.4,155.7 165.5,141.4 166.7,127.2 167.9,112.9 169.1,98.6 170.3,90.0 171.5,86.6 172.7,85.2 173.9,84.6 175.0,84.4 176.2,84.3 177.4,98.6 178.6,112.9 179.8,127.2 181.0,141.4 182.2,155.7 183.3,141.4 184.5,127.2 185.7,112.9 186.9,98.6 188.1,90.0 189.3,86.6 190.5,85.2 191.7,84.6 192.8,84.4 194.0,98.7 195.2,113.0 196.4,127.2 197.6,141.5 198.8,155.8 200.0,170.1 201.1,155.8 202.3,141.5 203.5,127.2 204.7,113.0 205.9,98.7 207.1,90.0 208.3,86.6 209.5,100.9 210.6,115.1 211.8,129.4 213.0,143.7 214.2,157.9 215.4,172.2 216.6,186.5 217.8,200.8 218.9,215.0 220.1,213.8 221.3,199.5 222.5,185.2 223.7,170.9 224.9,156.7 226.1,142.4 227.3,145.1 228.4,159.3 229.6,173.6 230.8,187.9 232.0,202.2 233.2,216.4 234.4,228.0 235.6,232.6 236.7,234.5 237.9,235.2 239.1,235.5 240.3,235.6 241.5,235.7 242.7,235.7 243.9,235.7 245.1,235.7 246.2,235.7 247.4,235.7 248.6,235.7 249.8,225.6 251.0,218.5 252.2,228.8 253.4,233.0 254.5,234.6 255.7,235.3 256.9,235.5 258.1,235.6 259.3,235.7 260.5,235.7 261.7,235.7 262.9,235.7 264.0,235.7 265.2,235.7 266.4,235.7 267.6,235.7 268.8,235.7 270.0,235.7 271.2,221.4 272.3,207.2 273.5,192.9 274.7,178.6 275.9,164.4 277.1,150.1 278.3,145.4 279.5,159.7 280.7,174.0 281.8,188.3 283.0,202.5 284.2,213.7 285.4,221.0 286.6,227.4 287.8,232.4 289.0,234.4 290.1,235.2 291.3,235.5 292.5,222.4 293.7,208.2 294.9,193.9 296.1,179.6 297.3,165.4 298.5,151.1 299.6,136.8 300.8,122.5 302.0,108.3 303.2,99.9 304.4,104.1 305.6,110.7 306.8,119.1 307.9,128.9 309.1,139.1 310.3,149.5 311.5,159.3 312.7,167.9 313.9,174.5 315.1,179.1 316.3,181.7 317.4,182.4 318.6,180.9 319.8,177.3 321.0,171.9 322.2,165.5 323.4,159.3 324.6,154.5 325.7,152.3 326.9,153.6 328.1,158.9 329.3,167.6 330.5,178.7 331.7,190.9 332.9,202.7 334.1,213.3 335.2,222.4 336.4,230.4 337.6,233.6 338.8,234.9 340.0,235.4 341.2,235.6 342.4,235.7 343.5,235.7 344.7,235.7 345.9,235.7 347.1,235.7 348.3,235.7 349.5,235.7 350.7,235.7 351.9,235.7 353.0,235.7 354.2,235.7 355.4,235.7 356.6,235.7 357.8,235.7 359.0,235.7 360.2,235.7 361.3,235.7 362.5,235.7 363.7,235.7 364.9,235.7 366.1,235.7 367.3,235.7 368.5,235.7 369.7,235.7 370.8,235.7 372.0,235.7 373.2,235.7 374.4,235.7 375.6,235.7 376.8,235.7 378.0,235.7 379.1,235.7 380.3,235.7 381.5,235.7 382.7,235.7 383.9,235.7 385.1,235.7 386.3,235.7 387.5,235.7 388.6,235.7 389.8,235.7 391.0,235.7 392.2,235.7 393.4,221.4 394.6,207.2 395.8,192.9 396.9,178.6 398.1,164.4 399.3,150.1 400.5,135.8 401.7,150.1 402.9,135.8 404.1,150.1 405.3,164.4 406.4,178.6 407.6,192.9 408.8,207.2 410.0,221.4 411.2,230.0 412.4,233.4 413.6,234.8 414.7,235.3 415.9,221.1 417.1,206.8 418.3,192.5 419.5,178.3 420.7,164.0 421.9,149.7 423.1,135.4 424.2,121.2 425.4,106.9 426.6,121.2 427.8,135.4 429.0,149.7 430.2,164.0 431.4,178.3 432.5,192.5 433.7,206.8 434.9,221.1 436.1,229.9 437.3,233.4 438.5,234.8 439.7,235.3 440.9,235.6 442.0,235.7 443.2,235.7 444.4,235.7 445.6,235.7 446.8,221.4 448.0,230.0 449.2,221.9 450.3,212.2 451.5,212.1 452.7,222.2 453.9,230.3 455.1,233.5 456.3,234.8 457.5,235.4 458.7,235.6 459.8,235.7 461.0,235.7 462.2,235.7 463.4,235.7 464.6,235.7 465.8,235.7 467.0,235.7 468.1,235.7 469.3,221.4 470.5,207.2 471.7,192.9 472.9,178.6 474.1,164.4 475.3,150.1 476.5,152.1 477.6,166.3 478.8,180.6 480.0,194.9 481.2,209.1 482.4,223.4 483.6,230.8 484.8,233.7 485.9,234.9 487.1,235.4 488.3,235.6 489.5,235.7 490.7,235.7 491.9,235.7 493.1,235.7 494.3,235.7 495.4,235.7 496.6,221.4 497.8,207.2 499.0,192.9 500.2,182.3 501.4,187.8 502.6,199.3 503.7,213.5 504.9,226.8 506.1,232.2 507.3,234.3 508.5,235.1 509.7,235.5 510.9,235.6 512.1,235.7 513.2,235.7 514.4,235.7 515.6,235.7 516.8,235.7 518.0,235.7 519.2,235.7 520.4,235.7 521.5,221.4 522.7,207.2 523.9,192.9 525.1,178.6 526.3,192.9 527.5,207.2 528.7,221.4 529.9,230.0 531.0,233.4 532.2,234.8 533.4,235.3 534.6,235.6 535.8,235.7 537.0,235.7 538.2,235.7 539.3,235.7 540.5,221.4 541.7,207.2 542.9,192.9 544.1,178.6 545.3,164.3 546.5,150.1 547.7,135.8 548.8,150.1 550.0,164.3 551.2,178.6 552.4,192.9 553.6,207.2 554.8,221.4 556.0,230.0 557.1,233.4 558.3,234.8 559.5,235.3 560.7,235.6 561.9,235.7 563.1,221.4 564.3,207.1 565.5,192.8 566.6,178.6 567.8,164.3 569.0,150.0 570.2,164.3 571.4,150.0 572.6,164.3 573.8,178.6 574.9,192.8 576.1,207.1 577.3,221.4 578.5,230.0 579.7,233.4 580.9,234.8 582.1,235.3 583.3,221.1 584.4,206.8 585.6,192.5 586.8,178.3 588.0,164.0 589.2,149.7 590.4,164.0 591.6,149.7 592.7,164.0 593.9,178.3 595.1,192.5 596.3,206.8 597.5,221.1 598.7,229.9 599.9,233.4 601.1,234.8 602.2,235.3 603.4,221.1 604.6,206.8 605.8,192.5 607.0,178.2 608.2,164.0 609.4,149.7 610.5,164.0 611.7,149.7 612.9,164.0 614.1,178.2 615.3,192.5 616.5,206.8 617.7,221.1 618.9,229.9 620.0,233.4 621.2,234.8 622.4,220.5 623.6,206.2 624.8,192.0 626.0,177.7 627.2,163.4 628.3,149.1 629.5,134.9 630.7,120.6 631.9,134.9 633.1,120.6 634.3,134.9 635.5,149.1 636.7,163.4 637.8,177.7 639.0,192.0 640.2,206.2 641.4,220.5 642.6,229.6 643.8,233.3 645.0,234.7 646.1,220.5 647.3,206.2 648.5,191.9 649.7,177.7 650.9,163.4 652.1,149.1 653.3,134.8 654.5,120.6 655.6,106.3 656.8,93.1 658.0,87.8 659.2,85.7 660.4,84.8 661.6,99.1 662.8,113.4 663.9,127.7 665.1,140.6 666.3,135.8 667.5,126.7 668.7,116.5 669.9,105.5 671.1,93.3 672.3,87.9 673.4,85.7 674.6,84.9 675.8,84.5 677.0,84.4 678.2,84.3 679.4,84.3 680.6,84.3 681.7,84.3 682.9,84.3 684.1,84.3 685.3,84.3 686.5,84.3 687.7,84.3 688.9,84.3 690.1,84.3 691.2,84.3 692.4,84.3 693.6,84.3 694.8,98.6 696.0,112.8 697.2,127.1 698.4,141.4 699.5,155.6 700.7,169.9 701.9,174.6 703.1,171.3 704.3,163.6 705.5,152.5 706.7,138.7 707.9,124.4 709.0,110.2 710.2,95.9 711.4,88.9 712.6,86.1 713.8,85.0 715.0,84.6 716.2,84.4 717.3,84.3 718.5,85.3 719.7,84.7 720.9,84.4 722.1,84.3 723.3,84.3 724.5,84.3 725.7,84.3 726.8,84.3 728.0,84.3 729.2,84.3 730.4,84.3 731.6,84.3 732.8,84.3 734.0,84.3 735.1,98.6 736.3,112.8 737.5,127.1 738.7,141.4 739.9,155.6 741.1,169.9 742.3,183.5 743.5,169.9 744.6,155.6 745.8,141.3 747.0,127.1 748.2,112.8 749.4,98.5 750.6,90.0 751.8,86.6 752.9,85.2 754.1,84.6 755.3,84.4 756.5,84.3 757.7,84.3 758.9,84.3 760.1,97.7 761.3,112.0 762.4,126.3 763.6,140.5 764.8,144.0 766.0,129.7"/>
<line x1="606" y1="60" x2="628" y2="60" stroke="#24a148" stroke-width="2.2"/>
<text x="634" y="64" font-family="Arial" font-size="12">aileron_deg</text>
<polyline fill="none" stroke="#da1e28" stroke-width="2.2" points="54.0,150.2 55.2,153.3 56.4,152.9 57.6,150.9 58.7,148.1 59.9,144.8 61.1,141.2 62.3,137.3 63.5,133.2 64.7,129.0 65.9,124.7 67.1,120.4 68.2,116.2 69.4,111.9 70.6,107.8 71.8,103.9 73.0,100.2 74.2,96.7 75.4,93.6 76.5,90.6 77.7,88.3 78.9,86.7 80.1,85.6 81.3,85.0 82.5,84.9 83.7,85.3 84.9,86.2 86.0,87.9 87.2,90.2 88.4,92.9 89.6,96.0 90.8,99.7 92.0,103.7 93.2,108.3 94.3,113.1 95.5,118.0 96.7,124.5 97.9,129.9 99.1,133.9 100.3,137.6 101.5,141.3 102.7,144.8 103.8,147.8 105.0,149.7 106.2,150.4 107.4,149.6 108.6,147.0 109.8,141.7 111.0,133.6 112.1,122.5 113.3,108.3 114.5,94.0 115.7,88.2 116.9,85.8 118.1,84.9 119.3,84.5 120.5,84.4 121.6,84.3 122.8,84.5 124.0,98.8 125.2,113.1 126.4,127.3 127.6,141.6 128.8,155.9 129.9,170.2 131.1,184.4 132.3,198.7 133.5,213.0 134.7,226.6 135.9,212.3 137.1,198.1 138.3,183.8 139.4,169.5 140.6,155.3 141.8,141.0 143.0,126.7 144.2,112.4 145.4,98.2 146.6,89.8 147.7,104.1 148.9,118.4 150.1,132.7 151.3,146.9 152.5,161.2 153.7,175.5 154.9,161.2 156.1,146.9 157.2,132.7 158.4,118.4 159.6,104.1 160.8,92.2 162.0,87.5 163.2,85.5 164.4,99.8 165.5,114.1 166.7,128.4 167.9,142.6 169.1,156.9 170.3,171.2 171.5,185.5 172.7,176.8 173.9,162.5 175.0,148.2 176.2,133.9 177.4,119.7 178.6,105.4 179.8,92.7 181.0,87.7 182.2,101.9 183.3,116.2 184.5,130.5 185.7,144.7 186.9,159.0 188.1,173.3 189.3,187.6 190.5,201.8 191.7,195.1 192.8,180.8 194.0,166.5 195.2,152.3 196.4,138.0 197.6,123.7 198.8,109.4 200.0,123.7 201.1,138.0 202.3,152.3 203.5,166.5 204.7,180.8 205.9,195.1 207.1,209.3 208.3,223.6 209.5,230.9 210.6,233.8 211.8,234.9 213.0,220.7 214.2,206.4 215.4,192.1 216.6,177.9 217.8,163.6 218.9,157.3 220.1,171.5 221.3,185.8 222.5,200.1 223.7,214.3 224.9,227.2 226.1,232.3 227.3,234.3 228.4,235.2 229.6,235.5 230.8,235.6 232.0,235.7 233.2,235.7 234.4,235.7 235.6,221.4 236.7,207.2 237.9,192.9 239.1,178.6 240.3,164.3 241.5,150.1 242.7,135.8 243.9,125.6 245.1,139.9 246.2,154.2 247.4,168.5 248.6,182.7 249.8,197.0 251.0,211.3 252.2,225.6 253.4,231.6 254.5,234.1 255.7,235.1 256.9,235.5 258.1,235.6 259.3,235.7 260.5,235.7 261.7,235.7 262.9,235.7 264.0,235.7 265.2,235.7 266.4,235.7 267.6,235.7 268.8,235.7 270.0,235.7 271.2,235.7 272.3,221.4 273.5,207.2 274.7,192.9 275.9,178.6 277.1,164.4 278.3,150.1 279.5,135.8 280.7,121.5 281.8,107.5 283.0,102.7 284.2,98.2 285.4,94.1 286.6,92.1 287.8,93.8 289.0,100.8 290.1,115.1 291.3,129.4 292.5,143.6 293.7,157.9 294.9,172.2 296.1,186.5 297.3,200.7 298.5,215.0 299.6,227.4 300.8,232.4 302.0,234.4 303.2,235.2 304.4,235.5 305.6,235.6 306.8,235.7 307.9,235.7 309.1,235.7 310.3,235.7 311.5,235.7 312.7,235.7 313.9,221.4 315.1,207.2 316.3,192.9 317.4,178.6 318.6,164.4 319.8,150.1 321.0,135.8 322.2,121.5 323.4,135.8 324.6,150.1 325.7,164.4 326.9,178.6 328.1,192.9 329.3,207.2 330.5,221.4 331.7,230.0 332.9,233.4 334.1,234.8 335.2,235.3 336.4,235.6 337.6,235.7 338.8,235.7 340.0,235.7 341.2,235.7 342.4,235.7 343.5,235.7 344.7,235.7 345.9,235.7 347.1,235.7 348.3,235.7 349.5,221.4 350.7,207.2 351.9,192.9 353.0,178.6 354.2,164.4 355.4,178.6 356.6,192.9 357.8,207.2 359.0,221.4 360.2,230.0 361.3,233.4 362.5,234.8 363.7,235.3 364.9,235.6 366.1,235.7 367.3,235.7 368.5,235.7 369.7,235.7 370.8,235.7 372.0,235.7 373.2,235.7 374.4,235.7 375.6,221.4 376.8,207.2 378.0,221.4 379.1,230.0 380.3,233.4 381.5,234.8 382.7,235.3 383.9,235.6 385.1,235.7 386.3,235.7 387.5,235.7 388.6,235.7 389.8,235.7 391.0,235.7 392.2,235.7 393.4,235.7 394.6,235.7 395.8,235.7 396.9,221.4 398.1,207.2 399.3,192.9 400.5,207.2 401.7,221.4 402.9,230.0 404.1,233.4 405.3,234.8 406.4,235.3 407.6,235.6 408.8,235.7 410.0,235.7 411.2,235.7 412.4,235.7 413.6,235.7 414.7,235.7 415.9,235.7 417.1,235.7 418.3,235.7 419.5,235.7 420.7,235.7 421.9,235.7 423.1,235.7 424.2,235.7 425.4,235.7 426.6,235.7 427.8,235.7 429.0,221.4 430.2,207.2 431.4,192.9 432.5,178.6 433.7,164.4 434.9,150.1 436.1,135.8 437.3,128.3 438.5,121.8 439.7,112.0 440.9,117.1 442.0,130.5 443.2,144.8 444.4,159.0 445.6,173.3 446.8,187.6 448.0,201.8 449.2,216.1 450.3,227.9 451.5,232.6 452.7,234.5 453.9,235.2 455.1,235.5 456.3,235.6 457.5,235.7 458.7,235.7 459.8,235.7 461.0,235.7 462.2,235.7 463.4,235.7 464.6,235.7 465.8,235.7 467.0,221.4 468.1,207.2 469.3,192.9 470.5,178.6 471.7,164.4 472.9,150.1 474.1,152.7 475.3,161.1 476.5,172.3 477.6,186.6 478.8,200.8 480.0,215.1 481.2,227.5 482.4,232.4 483.6,234.4 484.8,235.2 485.9,235.5 487.1,235.6 488.3,235.7 489.5,235.7 490.7,230.9 491.9,216.6 493.1,202.4 494.3,188.1 495.4,173.8 496.6,159.6 497.8,145.3 499.0,131.0 500.2,116.7 501.4,102.5 502.6,91.6 503.7,87.2 504.9,85.4 506.1,84.7 507.3,84.5 508.5,84.4 509.7,84.8 510.9,84.5 512.1,84.4 513.2,89.2 514.4,100.3 515.6,112.3 516.8,122.0 518.0,129.1 519.2,134.7 520.4,135.9 521.5,129.0 522.7,114.8 523.9,100.5 525.1,90.8 526.3,86.9 527.5,85.3 528.7,84.7 529.9,84.4 531.0,84.3 532.2,84.3 533.4,84.3 534.6,84.3 535.8,84.3 537.0,84.3 538.2,90.3 539.3,104.6 540.5,118.9 541.7,133.2 542.9,147.4 544.1,161.7 545.3,176.0 546.5,175.4 547.7,161.1 548.8,146.9 550.0,132.6 551.2,118.3 552.4,104.1 553.6,92.2 554.8,87.4 556.0,85.5 557.1,84.8 558.3,84.5 559.5,98.8 560.7,113.0 561.9,127.3 563.1,141.6 564.3,155.8 565.5,170.1 566.6,184.4 567.8,198.7 569.0,212.9 570.2,226.6 571.4,232.1 572.6,217.8 573.8,203.5 574.9,189.3 576.1,175.0 577.3,160.7 578.5,175.0 579.7,189.3 580.9,203.5 582.1,217.8 583.3,228.5 584.4,232.8 585.6,234.6 586.8,235.3 588.0,235.5 589.2,235.6 590.4,235.7 591.6,221.4 592.7,207.1 593.9,192.9 595.1,178.6 596.3,164.3 597.5,163.7 598.7,178.0 599.9,192.3 601.1,206.5 602.2,220.8 603.4,229.8 604.6,233.3 605.8,234.8 607.0,235.3 608.2,235.6 609.4,235.7 610.5,235.7 611.7,221.4 612.9,207.1 614.1,192.9 615.3,178.6 616.5,164.3 617.7,150.1 618.9,164.3 620.0,178.6 621.2,192.9 622.4,207.1 623.6,221.4 624.8,230.0 626.0,233.4 627.2,234.8 628.3,235.3 629.5,235.6 630.7,235.7 631.9,221.4 633.1,207.1 634.3,192.8 635.5,178.6 636.7,164.3 637.8,150.0 639.0,135.7 640.2,121.5 641.4,107.2 642.6,93.4 643.8,107.7 645.0,122.0 646.1,136.3 647.3,150.5 648.5,164.8 649.7,179.1 650.9,193.4 652.1,207.6 653.3,221.9 654.5,230.2 655.6,233.5 656.8,234.8 658.0,226.0 659.2,211.7 660.4,197.5 661.6,183.2 662.8,168.9 663.9,154.6 665.1,140.4 666.3,126.1 667.5,111.8 668.7,97.5 669.9,89.6 671.1,86.4 672.3,85.1 673.4,84.6 674.6,84.4 675.8,84.3 677.0,84.3 678.2,84.3 679.4,84.3 680.6,84.3 681.7,84.3 682.9,84.3 684.1,84.3 685.3,84.3 686.5,84.3 687.7,84.3 688.9,84.3 690.1,84.3 691.2,84.3 692.4,84.3 693.6,84.3 694.8,89.0 696.0,103.3 697.2,117.6 698.4,131.8 699.5,146.1 700.7,160.4 701.9,174.6 703.1,188.9 704.3,203.2 705.5,206.9 706.7,204.5 707.9,201.6 709.0,201.1 710.2,205.8 711.4,219.3 712.6,229.2 713.8,233.1 715.0,234.7 716.2,235.3 717.3,235.5 718.5,235.6 719.7,235.7 720.9,235.7 722.1,235.7 723.3,235.7 724.5,235.7 725.7,235.7 726.8,235.7 728.0,235.7 729.2,235.7 730.4,235.7 731.6,235.7 732.8,235.7 734.0,235.7 735.1,235.7 736.3,235.7 737.5,235.7 738.7,235.7 739.9,235.7 741.1,235.7 742.3,235.7 743.5,235.7 744.6,221.4 745.8,207.2 747.0,192.9 748.2,178.6 749.4,164.4 750.6,150.1 751.8,135.8 752.9,121.5 754.1,119.2 755.3,133.4 756.5,147.7 757.7,162.0 758.9,176.2 760.1,190.5 761.3,204.8 762.4,219.0 763.6,229.0 764.8,233.0 766.0,234.6"/>
<line x1="606" y1="78" x2="628" y2="78" stroke="#da1e28" stroke-width="2.2"/>
<text x="634" y="82" font-family="Arial" font-size="12">rudder_deg</text>
</svg>