<svg xmlns="http://www.w3.org/2000/svg" width="820" height="320" viewBox="0 0 820 320">
<rect width="100%" height="100%" fill="#ffffff"/>
<text x="54" y="28" font-family="Arial" font-size="18" font-weight="700">Barometer vs Truth</text>
<line x1="54" y1="266" x2="766" y2="266" stroke="#1f2933"/>
<line x1="54" y1="54" x2="54" y2="266" stroke="#1f2933"/>
<text x="54" y="306" font-family="Arial" font-size="12">time (s)</text>
<text x="596" y="306" font-family="Arial" font-size="12">altitude (m)</text>
<text x="58" y="68" font-family="Arial" font-size="11">1.03e+03</text>
<text x="58" y="260" font-family="Arial" font-size="11">127</text>
<polyline fill="none" stroke="#0f62fe" stroke-width="2.2" points="54.0,60.9 55.2,60.8 56.4,60.7 57.6,60.6 58.7,60.5 59.9,60.4 61.1,60.4 62.3,60.3 63.5,60.2 64.7,60.1 65.9,60.0 67.1,59.9 68.2,59.8 69.4,59.7 70.6,59.7 71.8,59.6 73.0,59.5 74.2,59.4 75.4,59.3 76.5,59.2 77.7,59.1 78.9,59.1 80.1,59.0 81.3,58.9 82.5,58.8 83.7,58.7 84.9,58.6 86.0,58.6 87.2,58.5 88.4,58.4 89.6,58.3 90.8,58.2 92.0,58.1 93.2,58.0 94.3,58.0 95.5,57.9 96.7,57.8 97.9,57.7 99.1,57.6 100.3,57.5 101.5,57.5 102.7,57.4 103.8,57.3 105.0,57.2 106.2,57.1 107.4,57.1 108.6,57.0 109.8,56.9 111.0,56.8 112.1,56.7 113.3,56.7 114.5,56.6 115.7,56.5 116.9,56.5 118.1,56.4 119.3,56.3 120.5,56.3 121.6,56.2 122.8,56.2 124.0,56.1 125.2,56.1 126.4,56.1 127.6,56.1 128.8,56.1 129.9,56.0 131.1,56.1 132.3,56.1 133.5,56.1 134.7,56.1 135.9,56.1 137.1,56.1 138.3,56.2 139.4,56.2 140.6,56.2 141.8,56.2 143.0,56.2 144.2,56.3 145.4,56.3 146.6,56.3 147.7,56.3 148.9,56.3 150.1,56.4 151.3,56.4 152.5,56.5 153.7,56.5 154.9,56.6 156.1,56.6 157.2,56.7 158.4,56.7 159.6,56.8 160.8,56.8 162.0,56.8 163.2,56.9 164.4,56.9 165.5,57.0 166.7,57.1 167.9,57.1 169.1,57.2 170.3,57.3 171.5,57.4 172.7,57.4 173.9,57.5 175.0,57.6 176.2,57.7 177.4,57.8 178.6,57.8 179.8,57.9 181.0,58.0 182.2,58.1 183.3,58.1 184.5,58.2 185.7,58.3 186.9,58.4 188.1,58.5 189.3,58.7 190.5,58.8 191.7,58.9 192.8,59.0 194.0,59.1 195.2,59.2 196.4,59.3 197.6,59.4 198.8,59.5 200.0,59.6 201.1,59.7 202.3,59.9 203.5,60.0 204.7,60.1 205.9,60.2 207.1,60.4 208.3,60.5 209.5,60.7 210.6,60.8 211.8,61.0 213.0,61.1 214.2,61.3 215.4,61.4 216.6,61.5 217.8,61.7 218.9,61.8 220.1,62.0 221.3,62.1 222.5,62.3 223.7,62.4 224.9,62.6 226.1,62.8 227.3,63.0 228.4,63.1 229.6,63.3 230.8,63.5 232.0,63.7 233.2,63.8 234.4,64.0 235.6,64.2 236.7,64.3 237.9,64.5 239.1,64.7 240.3,64.8 241.5,65.0 242.7,65.2 243.9,65.4 245.1,65.5 246.2,65.7 247.4,65.9 248.6,66.1 249.8,66.3 251.0,66.5 252.2,66.7 253.4,66.9 254.5,67.1 255.7,67.3 256.9,67.5 258.1,67.8 259.3,68.0 260.5,68.2 261.7,68.4 262.9,68.6 264.0,68.8 265.2,69.1 266.4,69.3 267.6,69.5 268.8,69.7 270.0,69.9 271.2,70.1 272.3,70.3 273.5,70.5 274.7,70.7 275.9,70.9 277.1,71.2 278.3,71.4 279.5,71.6 280.7,71.8 281.8,72.0 283.0,72.1 284.2,72.3 285.4,72.5 286.6,72.7 287.8,72.9 289.0,73.1 290.1,73.3 291.3,73.5 292.5,73.7 293.7,74.0 294.9,74.2 296.1,74.4 297.3,74.7 298.5,74.9 299.6,75.2 300.8,75.4 302.0,75.7 303.2,75.9 304.4,76.2 305.6,76.5 306.8,76.8 307.9,77.0 309.1,77.3 310.3,77.6 311.5,77.8 312.7,78.1 313.9,78.4 315.1,78.7 316.3,78.9 317.4,79.2 318.6,79.5 319.8,79.8 321.0,80.0 322.2,80.3 323.4,80.6 324.6,80.9 325.7,81.2 326.9,81.5 328.1,81.8 329.3,82.1 330.5,82.4 331.7,82.7 332.9,83.0 334.1,83.3 335.2,83.6 336.4,83.9 337.6,84.2 338.8,84.5 340.0,84.8 341.2,85.1 342.4,85.4 343.5,85.7 344.7,86.0 345.9,86.4 347.1,86.7 348.3,87.0 349.5,87.3 350.7,87.6 351.9,88.0 353.0,88.3 354.2,88.6 355.4,89.0 356.6,89.3 357.8,89.6 359.0,90.0 360.2,90.3 361.3,90.7 362.5,91.1 363.7,91.4 364.9,91.8 366.1,92.2 367.3,92.5 368.5,92.9 369.7,93.3 370.8,93.7 372.0,94.1 373.2,94.5 374.4,94.8 375.6,95.2 376.8,95.6 378.0,96.0 379.1,96.4 380.3,96.9 381.5,97.3 382.7,97.7 383.9,98.1 385.1,98.5 386.3,99.0 387.5,99.4 388.6,99.8 389.8,100.3 391.0,100.7 392.2,101.1 393.4,101.6 394.6,102.0 395.8,102.4 396.9,102.9 398.1,103.3 399.3,103.8 400.5,104.2 401.7,104.7 402.9,105.1 404.1,105.6 405.3,106.1 406.4,106.5 407.6,107.0 408.8,107.5 410.0,108.0 411.2,108.4 412.4,108.9 413.6,109.4 414.7,109.9 415.9,110.3 417.1,110.8 418.3,111.3 419.5,111.7 420.7,112.2 421.9,112.6 423.1,113.1 424.2,113.5 425.4,114.0 426.6,114.5 427.8,114.9 429.0,115.4 430.2,115.9 431.4,116.4 432.5,116.9 433.7,117.4 434.9,117.8 436.1,118.3 437.3,118.8 438.5,119.3 439.7,119.8 440.9,120.3 442.0,120.8 443.2,121.3 444.4,121.8 445.6,122.2 446.8,122.7 448.0,123.2 449.2,123.6 450.3,124.1 451.5,124.6 452.7,125.0 453.9,125.5 455.1,125.9 456.3,126.4 457.5,126.8 458.7,127.3 459.8,127.7 461.0,128.2 462.2,128.6 463.4,129.1 464.6,129.5 465.8,130.0 467.0,130.4 468.1,130.9 469.3,131.4 470.5,131.8 471.7,132.3 472.9,132.8 474.1,133.3 475.3,133.7 476.5,134.2 477.6,134.7 478.8,135.2 480.0,135.6 481.2,136.1 482.4,136.6 483.6,137.0 484.8,137.5 485.9,138.0 487.1,138.4 488.3,138.9 489.5,139.4 490.7,139.8 491.9,140.3 493.1,140.7 494.3,141.2 495.4,141.7 496.6,142.1 497.8,142.6 499.0,143.1 500.2,143.5 501.4,144.0 502.6,144.5 503.7,145.0 504.9,145.5 506.1,146.0 507.3,146.5 508.5,146.9 509.7,147.4 510.9,147.9 512.1,148.4 513.2,148.9 514.4,149.3 515.6,149.8 516.8,150.3 518.0,150.8 519.2,151.3 520.4,151.7 521.5,152.2 522.7,152.7 523.9,153.2 525.1,153.7 526.3,154.1 527.5,154.6 528.7,155.1 529.9,155.6 531.0,156.2 532.2,156.7 533.4,157.2 534.6,157.7 535.8,158.2 537.0,158.7 538.2,159.2 539.3,159.8 540.5,160.3 541.7,160.8 542.9,161.3 544.1,161.8 545.3,162.3 546.5,162.8 547.7,163.3 548.8,163.8 550.0,164.3 551.2,164.9 552.4,165.4 553.6,165.9 554.8,166.5 556.0,167.0 557.1,167.6 558.3,168.1 559.5,168.7 560.7,169.2 561.9,169.8 563.1,170.3 564.3,170.9 565.5,171.5 566.6,172.0 567.8,172.6 569.0,173.2 570.2,173.7 571.4,174.3 572.6,174.9 573.8,175.4 574.9,176.0 576.1,176.6 577.3,177.2 578.5,177.7 579.7,178.3 580.9,178.9 582.1,179.4 583.3,180.0 584.4,180.6 585.6,181.1 586.8,181.7 588.0,182.3 589.2,182.8 590.4,183.4 591.6,184.0 592.7,184.5 593.9,185.1 595.1,185.7 596.3,186.2 597.5,186.8 598.7,187.4 599.9,187.9 601.1,188.5 602.2,189.1 603.4,189.6 604.6,190.2 605.8,190.8 607.0,191.3 608.2,191.9 609.4,192.5 610.5,193.0 611.7,193.6 612.9,194.2 614.1,194.7 615.3,195.3 616.5,195.9 617.7,196.4 618.9,197.0 620.0,197.6 621.2,198.1 622.4,198.7 623.6,199.3 624.8,199.8 626.0,200.4 627.2,201.0 628.3,201.5 629.5,202.1 630.7,202.7 631.9,203.2 633.1,203.8 634.3,204.4 635.5,205.0 636.7,205.5 637.8,206.1 639.0,206.6 640.2,207.2 641.4,207.8 642.6,208.3 643.8,208.9 645.0,209.5 646.1,210.0 647.3,210.6 648.5,211.2 649.7,211.7 650.9,212.3 652.1,212.9 653.3,213.4 654.5,214.0 655.6,214.6 656.8,215.1 658.0,215.7 659.2,216.3 660.4,216.8 661.6,217.4 662.8,218.0 663.9,218.6 665.1,219.1 666.3,219.7 667.5,220.3 668.7,220.8 669.9,221.4 671.1,222.0 672.3,222.5 673.4,223.1 674.6,223.7 675.8,224.2 677.0,224.8 678.2,225.4 679.4,225.9 680.6,226.5 681.7,227.0 682.9,227.6 684.1,228.1 685.3,228.7 686.5,229.3 687.7,229.8 688.9,230.4 690.1,230.9 691.2,231.5 692.4,232.0 693.6,232.6 694.8,233.1 696.0,233.7 697.2,234.2 698.4,234.8 699.5,235.3 700.7,235.9 701.9,236.4 703.1,237.0 704.3,237.5 705.5,238.1 706.7,238.6 707.9,239.2 709.0,239.7 710.2,240.3 711.4,240.8 712.6,241.4 713.8,241.9 715.0,242.4 716.2,243.0 717.3,243.5 718.5,244.1 719.7,244.6 720.9,245.2 722.1,245.7 723.3,246.3 724.5,246.8 725.7,247.4 726.8,247.9 728.0,248.5 729.2,249.0 730.4,249.6 731.6,250.1 732.8,250.7 734.0,251.2 735.1,251.8 736.3,252.4 737.5,252.9 738.7,253.5 739.9,254.0 741.1,254.6 742.3,255.1 743.5,255.7 744.6,256.2 745.8,256.8 747.0,257.3 748.2,257.9 749.4,258.4 750.6,258.9 751.8,259.5 752.9,260.0 754.1,260.6 755.3,261.1 756.5,261.7 757.7,262.2 758.9,262.8 760.1,263.3 761.3,263.8 762.4,264.4 763.6,264.9 764.8,265.5 766.0,266.0"/>
<line x1="606" y1="42" x2="628" y2="42" stroke="#0f62fe" stroke-width="2.2"/>
<text x="634" y="46" font-family="Arial" font-size="12">altitude_m</text>
<polyline fill="none" stroke="#24a148" stroke-width="2.2" points="54.0,60.4 55.2,60.4 56.4,59.4 57.6,59.4 58.7,58.0 59.9,58.0 61.1,61.8 62.3,61.8 63.5,60.9 64.7,60.9 65.9,59.4 67.1,59.4 68.2,61.0 69.4,61.0 70.6,59.2 71.8,59.2 73.0,59.4 74.2,59.4 75.4,59.2 76.5,59.2 77.7,58.1 78.9,58.1 80.1,55.8 81.3,55.8 82.5,58.8 83.7,58.8 84.9,58.3 86.0,58.3 87.2,60.5 88.4,60.5 89.6,60.2 90.8,60.2 92.0,56.2 93.2,56.2 94.3,56.9 95.5,56.9 96.7,59.7 97.9,59.7 99.1,57.5 100.3,57.5 101.5,57.1 102.7,57.1 103.8,58.0 105.0,58.0 106.2,56.0 107.4,56.0 108.6,56.1 109.8,56.1 111.0,58.6 112.1,58.6 113.3,57.3 114.5,57.3 115.7,56.9 116.9,56.9 118.1,55.9 119.3,55.9 120.5,56.6 121.6,56.6 122.8,56.4 124.0,56.4 125.2,56.9 126.4,56.9 127.6,54.5 128.8,54.5 129.9,54.0 131.1,54.0 132.3,56.8 133.5,56.8 134.7,57.0 135.9,57.0 137.1,54.6 138.3,54.6 139.4,58.1 140.6,58.1 141.8,54.4 143.0,54.4 144.2,56.8 145.4,56.8 146.6,57.0 147.7,57.0 148.9,56.5 150.1,56.5 151.3,56.6 152.5,56.6 153.7,55.1 154.9,55.1 156.1,55.5 157.2,55.5 158.4,55.8 159.6,55.8 160.8,56.4 162.0,56.4 163.2,58.2 164.4,58.2 165.5,55.2 166.7,55.2 167.9,55.4 169.1,55.4 170.3,57.5 171.5,57.5 172.7,58.7 173.9,58.7 175.0,57.3 176.2,57.3 177.4,58.3 178.6,58.3 179.8,57.8 181.0,57.8 182.2,57.4 183.3,57.4 184.5,55.7 185.7,55.7 186.9,57.9 188.1,57.9 189.3,58.9 190.5,58.9 191.7,58.7 192.8,58.7 194.0,58.2 195.2,58.2 196.4,56.9 197.6,56.9 198.8,59.5 200.0,59.5 201.1,62.1 202.3,62.1 203.5,59.3 204.7,59.3 205.9,60.3 207.1,60.3 208.3,62.8 209.5,62.8 210.6,59.4 211.8,59.4 213.0,61.5 214.2,61.5 215.4,63.2 216.6,63.2 217.8,61.3 218.9,61.3 220.1,62.8 221.3,62.8 222.5,63.5 223.7,63.5 224.9,62.8 226.1,62.8 227.3,63.2 228.4,63.2 229.6,64.4 230.8,64.4 232.0,61.6 233.2,61.6 234.4,64.4 235.6,64.4 236.7,66.6 237.9,66.6 239.1,63.8 240.3,63.8 241.5,65.5 242.7,65.5 243.9,65.1 245.1,65.1 246.2,67.3 247.4,67.3 248.6,67.7 249.8,67.7 251.0,67.6 252.2,67.6 253.4,67.3 254.5,67.3 255.7,67.2 256.9,67.2 258.1,69.4 259.3,69.4 260.5,66.6 261.7,66.6 262.9,69.2 264.0,69.2 265.2,68.1 266.4,68.1 267.6,70.6 268.8,70.6 270.0,69.6 271.2,69.6 272.3,70.2 273.5,70.2 274.7,70.2 275.9,70.2 277.1,71.0 278.3,71.0 279.5,70.5 280.7,70.5 281.8,72.9 283.0,72.9 284.2,71.4 285.4,71.4 286.6,72.1 287.8,72.1 289.0,74.7 290.1,74.7 291.3,73.6 292.5,73.6 293.7,73.5 294.9,73.5 296.1,74.2 297.3,74.2 298.5,74.1 299.6,74.1 300.8,74.8 302.0,74.8 303.2,78.2 304.4,78.2 305.6,76.5 306.8,76.5 307.9,77.1 309.1,77.1 310.3,76.4 311.5,76.4 312.7,77.6 313.9,77.6 315.1,78.5 316.3,78.5 317.4,79.1 318.6,79.1 319.8,78.9 321.0,78.9 322.2,80.8 323.4,80.8 324.6,79.4 325.7,79.4 326.9,81.8 328.1,81.8 329.3,81.1 330.5,81.1 331.7,84.1 332.9,84.1 334.1,86.5 335.2,86.5 336.4,83.5 337.6,83.5 338.8,83.2 340.0,83.2 341.2,85.6 342.4,85.6 343.5,83.6 344.7,83.6 345.9,84.8 347.1,84.8 348.3,88.4 349.5,88.4 350.7,87.2 351.9,87.2 353.0,87.5 354.2,87.5 355.4,88.6 356.6,88.6 357.8,91.7 359.0,91.7 360.2,91.0 361.3,91.0 362.5,90.7 363.7,90.7 364.9,92.5 366.1,92.5 367.3,92.5 368.5,92.5 369.7,94.1 370.8,94.1 372.0,94.4 373.2,94.4 374.4,97.9 375.6,97.9 376.8,93.5 378.0,93.5 379.1,98.1 380.3,98.1 381.5,97.5 382.7,97.5 383.9,96.5 385.1,96.5 386.3,97.7 387.5,97.7 388.6,98.8 389.8,98.8 391.0,102.7 392.2,102.7 393.4,101.1 394.6,101.1 395.8,102.5 396.9,102.5 398.1,101.3 399.3,101.3 400.5,104.4 401.7,104.4 402.9,104.7 404.1,104.7 405.3,107.4 406.4,107.4 407.6,108.1 408.8,108.1 410.0,108.5 411.2,108.5 412.4,110.4 413.6,110.4 414.7,108.8 415.9,108.8 417.1,112.1 418.3,112.1 419.5,112.9 420.7,112.9 421.9,114.2 423.1,114.2 424.2,116.2 425.4,116.2 426.6,112.9 427.8,112.9 429.0,115.4 430.2,115.4 431.4,116.2 432.5,116.2 433.7,117.6 434.9,117.6 436.1,117.4 437.3,117.4 438.5,118.8 439.7,118.8 440.9,120.3 442.0,120.3 443.2,119.1 444.4,119.1 445.6,121.3 446.8,121.3 448.0,121.9 449.2,121.9 450.3,124.2 451.5,124.2 452.7,125.0 453.9,125.0 455.1,128.3 456.3,128.3 457.5,126.7 458.7,126.7 459.8,130.9 461.0,130.9 462.2,126.6 463.4,126.6 464.6,128.6 465.8,128.6 467.0,130.7 468.1,130.7 469.3,133.2 470.5,133.2 471.7,134.0 472.9,134.0 474.1,131.1 475.3,131.1 476.5,135.0 477.6,135.0 478.8,134.2 480.0,134.2 481.2,136.8 482.4,136.8 483.6,138.4 484.8,138.4 485.9,139.5 487.1,139.5 488.3,137.8 489.5,137.8 490.7,138.3 491.9,138.3 493.1,141.1 494.3,141.1 495.4,141.2 496.6,141.2 497.8,143.0 499.0,143.0 500.2,143.3 501.4,143.3 502.6,143.5 503.7,143.5 504.9,145.9 506.1,145.9 507.3,147.0 508.5,147.0 509.7,148.6 510.9,148.6 512.1,147.2 513.2,147.2 514.4,150.3 515.6,150.3 516.8,149.2 518.0,149.2 519.2,150.1 520.4,150.1 521.5,152.7 522.7,152.7 523.9,151.8 525.1,151.8 526.3,154.5 527.5,154.5 528.7,156.3 529.9,156.3 531.0,157.6 532.2,157.6 533.4,156.7 534.6,156.7 535.8,157.8 537.0,157.8 538.2,157.7 539.3,157.7 540.5,161.1 541.7,161.1 542.9,162.4 544.1,162.4 545.3,161.5 546.5,161.5 547.7,161.2 548.8,161.2 550.0,164.8 551.2,164.8 552.4,166.0 553.6,166.0 554.8,166.8 556.0,166.8 557.1,168.2 558.3,168.2 559.5,170.7 560.7,170.7 561.9,170.7 563.1,170.7 564.3,171.6 565.5,171.6 566.6,172.2 567.8,172.2 569.0,172.0 570.2,172.0 571.4,175.2 572.6,175.2 573.8,174.3 574.9,174.3 576.1,176.9 577.3,176.9 578.5,176.8 579.7,176.8 580.9,178.6 582.1,178.6 583.3,178.6 584.4,178.6 585.6,178.6 586.8,178.6 588.0,182.2 589.2,182.2 590.4,184.6 591.6,184.6 592.7,183.8 593.9,183.8 595.1,184.9 596.3,184.9 597.5,188.5 598.7,188.5 599.9,189.7 601.1,189.7 602.2,187.9 603.4,187.9 604.6,189.1 605.8,189.1 607.0,190.8 608.2,190.8 609.4,191.2 610.5,191.2 611.7,194.9 612.9,194.9 614.1,193.8 615.3,193.8 616.5,195.4 617.7,195.4 618.9,196.5 620.0,196.5 621.2,200.6 622.4,200.6 623.6,197.4 624.8,197.4 626.0,200.3 627.2,200.3 628.3,201.7 629.5,201.7 630.7,201.4 631.9,201.4 633.1,203.5 634.3,203.5 635.5,204.8 636.7,204.8 637.8,206.3 639.0,206.3 640.2,207.9 641.4,207.9 642.6,207.1 643.8,207.1 645.0,210.5 646.1,210.5 647.3,209.2 648.5,209.2 649.7,213.3 650.9,213.3 652.1,211.8 653.3,211.8 654.5,213.6 655.6,213.6 656.8,215.2 658.0,215.2 659.2,216.2 660.4,216.2 661.6,218.1 662.8,218.1 663.9,219.4 665.1,219.4 666.3,218.7 667.5,218.7 668.7,221.0 669.9,221.0 671.1,222.4 672.3,222.4 673.4,223.2 674.6,223.2 675.8,224.5 677.0,224.5 678.2,224.9 679.4,224.9 680.6,226.5 681.7,226.5 682.9,227.3 684.1,227.3 685.3,227.1 686.5,227.1 687.7,230.9 688.9,230.9 690.1,230.1 691.2,230.1 692.4,232.0 693.6,232.0 694.8,231.3 696.0,231.3 697.2,233.0 698.4,233.0 699.5,235.8 700.7,235.8 701.9,237.4 703.1,237.4 704.3,236.0 705.5,236.0 706.7,238.4 707.9,238.4 709.0,239.9 710.2,239.9 711.4,239.6 712.6,239.6 713.8,241.5 715.0,241.5 716.2,244.0 717.3,244.0 718.5,242.5 719.7,242.5 720.9,245.5 722.1,245.5 723.3,247.5 724.5,247.5 725.7,248.1 726.8,248.1 728.0,251.1 729.2,251.1 730.4,249.3 731.6,249.3 732.8,251.3 734.0,251.3 735.1,253.0 736.3,253.0 737.5,252.3 738.7,252.3 739.9,255.7 741.1,255.7 742.3,257.3 743.5,257.3 744.6,253.7 745.8,253.7 747.0,256.1 748.2,256.1 749.4,260.6 750.6,260.6 751.8,259.7 752.9,259.7 754.1,261.7 755.3,261.7 756.5,261.0 757.7,261.0 758.9,263.5 760.1,263.5 761.3,265.1 762.4,265.1 763.6,265.0 764.8,265.0 766.0,265.2"/>
<line x1="606" y1="60" x2="628" y2="60" stroke="#24a148" stroke-width="2.2"/>
<text x="634" y="64" font-family="Arial" font-size="12">baro_alt_m</text>
</svg>