<svg xmlns="http://www.w3.org/2000/svg" width="820" height="320" viewBox="0 0 820 320">
<rect width="100%" height="100%" fill="#ffffff"/>
<text x="54" y="28" font-family="Arial" font-size="18" font-weight="700">Downrange/Crossrange</text>
<line x1="54" y1="266" x2="766" y2="266" stroke="#1f2933"/>
<line x1="54" y1="54" x2="54" y2="266" stroke="#1f2933"/>
<text x="54" y="306" font-family="Arial" font-size="12">downrange (m)</text>
<text x="596" y="306" font-family="Arial" font-size="12">crossrange (m)</text>
<text x="58" y="68" font-family="Arial" font-size="11">258</text>
<text x="58" y="260" font-family="Arial" font-size="11">117</text>
<polyline fill="none" stroke="#0f62fe" stroke-width="2.2" points="54.0,65.4 59.6,65.6 65.2,65.8 70.7,66.0 76.3,66.2 81.8,66.4 87.3,66.5 92.8,66.7 98.3,66.9 103.8,67.1 109.2,67.2 114.7,67.4 120.1,67.6 125.5,67.7 131.0,67.9 136.4,68.0 141.7,68.2 147.1,68.3 152.5,68.5 157.8,68.6 163.1,68.7 168.5,68.8 173.8,69.0 179.1,69.1 184.4,69.2 189.6,69.3 194.9,69.4 200.1,69.4 205.4,69.5 210.6,69.6 215.8,69.6 220.9,69.7 226.1,69.7 231.3,69.7 236.4,69.7 241.5,69.7 246.6,69.7 251.7,69.6 256.7,69.6 261.7,69.5 266.7,69.4 271.7,69.3 276.7,69.2 281.6,69.1 286.6,68.9 291.5,68.8 296.4,68.6 301.3,68.4 306.1,68.2 311.0,68.0 315.8,67.8 320.7,67.6 325.5,67.3 330.3,67.1 335.0,66.8 339.8,66.5 344.6,66.3 349.3,66.0 354.1,65.7 358.8,65.4 363.5,65.0 368.2,64.7 372.9,64.4 377.6,64.1 382.3,63.7 387.0,63.4 391.7,63.0 396.3,62.6 401.0,62.3 405.6,61.9 410.3,61.5 414.9,61.1 419.5,60.8 424.2,60.4 428.8,60.0 433.4,59.6 438.0,59.2 442.6,58.9 447.2,58.5 451.9,58.1 456.5,57.7 461.1,57.4 465.7,57.0 470.3,56.7 474.8,56.3 479.4,56.0 484.0,55.7 488.6,55.4 493.1,55.1 497.7,54.8 502.2,54.6 506.7,54.4 511.1,54.2 515.6,54.1 519.9,54.0 524.2,54.0 528.4,54.0 532.5,54.1 536.5,54.2 540.4,54.4 544.2,54.6 547.8,54.9 551.4,55.2 554.8,55.5 558.2,55.9 561.4,56.3 564.5,56.7 567.4,57.2 570.3,57.7 573.0,58.2 575.6,58.7 578.1,59.3 580.5,59.8 582.8,60.4 585.0,61.0 587.0,61.6 589.0,62.2 590.9,62.9 592.7,63.5 594.4,64.1 596.0,64.8 597.6,65.4 599.0,66.1 600.4,66.7 601.7,67.4 603.0,68.0 604.1,68.6 605.2,69.3 606.2,69.9 607.2,70.6 608.1,71.2 609.0,71.8 609.8,72.5 610.6,73.1 611.3,73.7 611.9,74.3 612.6,74.9 613.1,75.5 613.7,76.0 614.2,76.6 614.6,77.2 615.1,77.7 615.5,78.3 615.8,78.8 616.1,79.3 616.4,79.9 616.7,80.4 616.9,80.9 617.1,81.4 617.2,81.9 617.4,82.3 617.5,82.8 617.6,83.3 617.6,83.7 617.6,84.2 617.6,84.6 617.6,85.0 617.6,85.4 617.5,85.8 617.4,86.3 617.3,86.6 617.1,87.0 617.0,87.4 616.8,87.8 616.6,88.1 616.4,88.5 616.1,88.9 615.9,89.2 615.6,89.5 615.3,89.9 615.0,90.2 614.6,90.5 614.3,90.8 613.9,91.1 613.5,91.4 613.1,91.7 612.7,92.0 612.2,92.3 611.8,92.5 611.3,92.8 610.8,93.1 610.3,93.3 609.8,93.6 609.2,93.9 608.7,94.1 608.1,94.4 607.5,94.6 607.0,94.9 606.3,95.1 605.7,95.3 605.1,95.6 604.4,95.8 603.8,96.0 603.1,96.3 602.4,96.5 601.7,96.7 601.0,97.0 600.2,97.2 599.5,97.4 598.7,97.6 597.9,97.9 597.1,98.1 596.3,98.3 595.5,98.5 594.7,98.8 593.8,99.0 592.9,99.3 592.0,99.5 591.1,99.7 590.2,100.0 589.3,100.2 588.3,100.5 587.4,100.8 586.4,101.0 585.4,101.3 584.4,101.6 583.3,101.9 582.3,102.2 581.2,102.5 580.1,102.8 579.0,103.1 577.9,103.4 576.8,103.7 575.7,104.1 574.5,104.4 573.3,104.8 572.1,105.2 570.9,105.5 569.7,105.9 568.5,106.3 567.2,106.8 566.0,107.2 564.7,107.6 563.4,108.1 562.1,108.5 560.8,109.0 559.5,109.5 558.2,110.0 556.8,110.5 555.5,111.0 554.1,111.6 552.7,112.1 551.3,112.7 549.9,113.3 548.5,113.9 547.1,114.5 545.7,115.1 544.3,115.7 542.9,116.4 541.4,117.0 540.0,117.7 538.5,118.4 537.1,119.1 535.7,119.8 534.2,120.5 532.7,121.3 531.3,122.1 529.8,122.8 528.4,123.6 526.9,124.5 525.5,125.3 524.0,126.1 522.6,127.0 521.1,127.9 519.7,128.7 518.2,129.6 516.8,130.6 515.4,131.5 513.9,132.4 512.5,133.4 511.1,134.4 509.7,135.4 508.3,136.4 506.9,137.4 505.6,138.5 504.2,139.5 502.9,140.6 501.5,141.7 500.2,142.8 498.9,143.9 497.6,145.0 496.3,146.1 495.1,147.3 493.8,148.5 492.6,149.6 491.4,150.8 490.2,152.0 489.1,153.3 487.9,154.5 486.8,155.7 485.7,157.0 484.6,158.3 483.6,159.6 482.5,160.9 481.5,162.2 480.5,163.5 479.6,164.8 478.7,166.2 477.8,167.5 476.9,168.9 476.1,170.3 475.3,171.7 474.5,173.1 473.8,174.5 473.1,175.9 472.4,177.3 471.8,178.7 471.2,180.2 470.6,181.6 470.1,183.1 469.6,184.6 469.1,186.0 468.7,187.5 468.4,189.0 468.0,190.5 467.7,192.0 467.5,193.5 467.3,195.0 467.1,196.5 467.0,198.0 467.0,199.5 466.9,201.0 467.0,202.6 467.0,204.1 467.2,205.6 467.3,207.1 467.5,208.6 467.8,210.2 468.1,211.7 468.5,213.2 468.9,214.7 469.4,216.2 469.9,217.7 470.5,219.2 471.2,220.7 471.8,222.2 472.6,223.6 473.4,225.1 474.2,226.6 475.2,228.0 476.1,229.4 477.1,230.9 478.2,232.3 479.4,233.7 480.5,235.0 481.8,236.4 483.1,237.7 484.4,239.0 485.8,240.4 487.3,241.6 488.8,242.9 490.4,244.1 492.0,245.3 493.7,246.5 495.4,247.7 497.2,248.8 499.0,249.9 500.9,251.0 502.8,252.1 504.7,253.1 506.7,254.1 508.8,255.0 510.9,255.9 513.0,256.8 515.1,257.6 517.3,258.5 519.6,259.2 521.8,260.0 524.1,260.7 526.4,261.3 528.7,261.9 531.0,262.5 533.4,263.1 535.8,263.6 538.1,264.0 540.5,264.4 542.9,264.8 545.2,265.1 547.6,265.3 549.9,265.6 552.2,265.7 554.5,265.9 556.8,265.9 559.0,266.0 561.2,266.0 563.4,266.0 565.5,265.9 567.6,265.8 569.7,265.7 571.8,265.5 573.7,265.4 575.7,265.2 577.6,264.9 579.5,264.7 581.4,264.4 583.2,264.1 585.0,263.8 586.7,263.4 588.4,263.1 590.1,262.7 591.7,262.3 593.3,261.9 594.9,261.5 596.4,261.1 597.9,260.6 599.4,260.2 600.8,259.7 602.1,259.2 603.5,258.8 604.8,258.3 606.1,257.8 607.3,257.3 608.5,256.8 609.7,256.3 610.8,255.8 612.0,255.3 613.0,254.7 614.1,254.2 615.1,253.7 616.1,253.2 617.0,252.6 618.0,252.1 618.8,251.6 619.7,251.0 620.5,250.5 621.3,249.9 622.1,249.4 622.9,248.8 623.6,248.3 624.3,247.8 624.9,247.2 625.6,246.7 626.2,246.1 626.8,245.6 627.3,245.0 627.8,244.5 628.3,243.9 628.8,243.4 629.3,242.8 629.7,242.3 630.1,241.7 630.5,241.2 630.8,240.6 631.2,240.1 631.5,239.6 631.8,239.0 632.0,238.5 632.3,237.9 632.5,237.4 632.7,236.9 632.8,236.3 633.0,235.8 633.1,235.3 633.2,234.7 633.3,234.2 633.4,233.7 633.4,233.2 633.5,232.7 633.5,232.1 633.5,231.6 633.4,231.1 633.4,230.6 633.3,230.1 633.2,229.6 633.1,229.1 633.0,228.6 632.8,228.1 632.7,227.6 632.5,227.1 632.3,226.6 632.1,226.1 631.9,225.6 631.6,225.1 631.4,224.6 631.1,224.1 630.8,223.6 630.5,223.1 630.2,222.6 629.8,222.1 629.5,221.6 629.1,221.1 628.7,220.6 628.3,220.1 627.9,219.6 627.5,219.1 627.1,218.6 626.6,218.1 626.1,217.5 625.6,217.0 625.1,216.5 624.6,216.0 624.1,215.4 623.6,214.9 623.0,214.3 622.4,213.8 621.9,213.2 621.3,212.7 620.7,212.1 620.0,211.5 619.4,210.9 618.8,210.3 618.1,209.7 617.5,209.1 616.8,208.5 616.1,207.8 615.5,207.2 614.8,206.6 614.1,205.9 613.3,205.2 612.6,204.5 611.9,203.8 611.2,203.1 610.4,202.4 609.7,201.7 609.0,201.0 608.2,200.2 607.5,199.4 606.7,198.7 605.9,197.9 605.2,197.1 604.4,196.3 603.7,195.4 602.9,194.6 602.1,193.8 601.4,192.9 600.6,192.0 599.9,191.1 599.1,190.2 598.4,189.3 597.6,188.4 596.9,187.5 596.2,186.5 595.4,185.5 594.7,184.6 594.0,183.6 593.3,182.6 592.6,181.6 591.9,180.5 591.2,179.5 590.5,178.4 589.9,177.4 589.2,176.3 588.6,175.2 588.0,174.1 587.4,173.0 586.8,171.9 586.2,170.7 585.7,169.6 585.1,168.4 584.6,167.2 584.1,166.1 583.6,164.9 583.1,163.6 582.7,162.4 582.3,161.2 581.9,159.9 581.5,158.7 581.1,157.4 580.8,156.2 580.5,154.9 580.2,153.6 579.9,152.3 579.7,151.0 579.5,149.6 579.3,148.3 579.1,147.0 579.0,145.6 578.9,144.3 578.9,142.9 578.8,141.5 578.8,140.2 578.8,138.8 578.9,137.4 579.0,136.0 579.1,134.6 579.3,133.2 579.5,131.8 579.7,130.4 580.0,129.0 580.3,127.6 580.7,126.2 581.0,124.7 581.5,123.3 581.9,121.9 582.4,120.5 583.0,119.0 583.6,117.6 584.2,116.2 584.9,114.8 585.6,113.4 586.3,111.9 587.1,110.5 588.0,109.1 588.9,107.7 589.8,106.3 590.8,104.9 591.8,103.5 592.9,102.2 594.0,100.8 595.1,99.4 596.3,98.1 597.6,96.7 598.9,95.4 600.3,94.1 601.6,92.8 603.1,91.5 604.6,90.2 606.1,88.9 607.7,87.7 609.3,86.5 611.0,85.3 612.7,84.1 614.5,82.9 616.3,81.7 618.2,80.6 620.1,79.5 622.0,78.4 624.0,77.4 626.0,76.3 628.1,75.3 630.2,74.3 632.3,73.4 634.5,72.5 636.7,71.6 638.9,70.7 641.2,69.9 643.4,69.1 645.8,68.3 648.1,67.6 650.4,66.9 652.8,66.2 655.2,65.6 657.6,65.0 660.0,64.5 662.5,64.0 664.9,63.5 667.4,63.1 669.8,62.7 672.2,62.3 674.7,62.0 677.1,61.7 679.5,61.5 681.9,61.3 684.3,61.1 686.7,61.0 689.1,60.9 691.4,60.8 693.7,60.8 696.0,60.8 698.2,60.9 700.4,61.0 702.6,61.1 704.7,61.2 706.8,61.4 708.9,61.6 710.9,61.8 712.9,62.1 714.8,62.4 716.7,62.7 718.5,63.0 720.3,63.3 722.1,63.7 723.8,64.0 725.5,64.4 727.1,64.8 728.7,65.3 730.2,65.7 731.8,66.1 733.2,66.6 734.6,67.0 736.0,67.5 737.4,68.0 738.7,68.5 740.0,68.9 741.2,69.4 742.4,69.9 743.6,70.4 744.7,70.9 745.8,71.4 746.9,71.9 747.9,72.4 748.9,72.9 749.8,73.4 750.8,73.9 751.7,74.4 752.5,74.9 753.3,75.4 754.1,75.9 754.9,76.4 755.6,76.9 756.4,77.4 757.0,77.9 757.7,78.4 758.3,78.9 758.9,79.4 759.5,79.9 760.0,80.3 760.5,80.8 761.0,81.3 761.5,81.8 761.9,82.2 762.3,82.7 762.7,83.2 763.1,83.6 763.4,84.1 763.7,84.5 764.0,85.0 764.3,85.4 764.5,85.9 764.8,86.3 765.0,86.7 765.2,87.2 765.3,87.6 765.5,88.0 765.6,88.4 765.7,88.8 765.8,89.2 765.9,89.6 765.9,90.0 766.0,90.4 766.0,90.8 766.0,91.1 766.0,91.5 766.0,91.9 765.9,92.2 765.8,92.6 765.8,92.9 765.7,93.2 765.6,93.6 765.4,93.9 765.3,94.2 765.1,94.5 765.0,94.8 764.8,95.1 764.6,95.4 764.4,95.7 764.2,96.0 763.9,96.3 763.7,96.6 763.5,96.8 763.2,97.1 762.9,97.3 762.6,97.5 762.3,97.8 762.0,98.0 761.7,98.2 761.4,98.4 761.1,98.6 760.7,98.8 760.3,99.0 760.0,99.2 759.6,99.4 759.2,99.6 758.8,99.7 758.4,99.9 758.0,100.1 757.6,100.2 757.2,100.3 756.8,100.5 756.3,100.6 755.9,100.7 755.4,100.9 754.9,101.0 754.5,101.1 754.0,101.2 753.5,101.3 753.0,101.4 752.5,101.5 752.0,101.6 751.5,101.6 750.9,101.7 750.4,101.8 749.9,101.8 749.3,101.9 748.8,101.9 748.2,102.0 747.6,102.0 747.1,102.1 746.5,102.1 745.9,102.1 745.4,102.1 744.8,102.1 744.2,102.1 743.6,102.1 743.0,102.1 742.4,102.1 741.8,102.0 741.2,102.0 740.7,101.9 740.1,101.9 739.5,101.8 738.9,101.8 738.3,101.7 737.7,101.6 737.1,101.5 736.6,101.4 736.0,101.3 735.4,101.2 734.8,101.1 734.3,101.0 733.7,100.8 733.2,100.7 732.6,100.6 732.1,100.4 731.5,100.2 731.0,100.1 730.5,99.9 730.0,99.7 729.5,99.5 729.0,99.4 728.5,99.2 728.0,99.0 727.6,98.8 727.1,98.5 726.7,98.3 726.3,98.1 725.8,97.9 725.4,97.6 725.0,97.4 724.6,97.2 724.3,96.9 723.9,96.7 723.6,96.4 723.2,96.1 722.9,95.9 722.6,95.6 722.3,95.3 722.1,95.1 721.8,94.8 721.6,94.5 721.3,94.2 721.1,94.0 720.9,93.7 720.8,93.4 720.6,93.1 720.4,92.8 720.3,92.5 720.2,92.2 720.1,92.0 720.0,91.7 719.9,91.4 719.9,91.1 719.8,90.8 719.8,90.5 719.8,90.2 719.8,90.0 719.8,89.7 719.9,89.4 719.9,89.1 720.0,88.8 720.1,88.6 720.2,88.3 720.3,88.1 720.4,87.8 720.6,87.5 720.7,87.3 720.9,87.0 721.1,86.8 721.3,86.6 721.5,86.3 721.7,86.1 721.9,85.9 722.2,85.7 722.4,85.5 722.7,85.3 723.0,85.1 723.3,84.9 723.6,84.7 723.9,84.5 724.2,84.3 724.5,84.2 724.8,84.0 725.2,83.9 725.5,83.7 725.9,83.6 726.2,83.5"/>
<line x1="606" y1="42" x2="628" y2="42" stroke="#0f62fe" stroke-width="2.2"/>
<text x="634" y="46" font-family="Arial" font-size="12">y_m</text>
</svg>