<svg xmlns="http://www.w3.org/2000/svg" width="820" height="320" viewBox="0 0 820 320">
<rect width="100%" height="100%" fill="#ffffff"/>
<text x="54" y="28" font-family="Arial" font-size="18" font-weight="700">Velocity X</text>
<line x1="54" y1="266" x2="766" y2="266" stroke="#1f2933"/>
<line x1="54" y1="54" x2="54" y2="266" stroke="#1f2933"/>
<text x="54" y="306" font-family="Arial" font-size="12">time (s)</text>
<text x="596" y="306" font-family="Arial" font-size="12">vx (m/s)</text>
<text x="58" y="68" font-family="Arial" font-size="11">48</text>
<text x="58" y="260" font-family="Arial" font-size="11">-12.5</text>
<polyline fill="none" stroke="#0f62fe" stroke-width="2.2" points="54.0,54.0 54.8,54.5 55.6,55.0 56.4,55.5 57.3,56.0 58.1,56.4 58.9,56.9 59.7,57.3 60.5,57.7 61.3,58.1 62.1,58.5 63.0,58.9 63.8,59.3 64.6,59.7 65.4,60.1 66.2,60.5 67.0,60.9 67.8,61.2 68.6,61.6 69.5,62.0 70.3,62.4 71.1,62.7 71.9,63.1 72.7,63.5 73.5,63.8 74.3,64.3 75.2,64.7 76.0,65.2 76.8,65.5 77.6,66.0 78.4,66.3 79.2,66.9 80.0,67.4 80.9,68.0 81.7,68.6 82.5,69.1 83.3,69.6 84.1,70.3 84.9,70.9 85.7,71.4 86.5,72.0 87.4,72.7 88.2,73.3 89.0,74.0 89.8,74.5 90.6,75.0 91.4,75.4 92.2,75.9 93.1,76.3 93.9,76.8 94.7,77.2 95.5,77.6 96.3,78.0 97.1,78.4 97.9,78.7 98.8,79.1 99.6,79.5 100.4,79.8 101.2,80.1 102.0,80.5 102.8,80.7 103.6,81.0 104.5,81.3 105.3,81.6 106.1,81.8 106.9,82.1 107.7,82.3 108.5,82.5 109.3,82.7 110.1,82.9 111.0,83.1 111.8,83.2 112.6,83.4 113.4,83.5 114.2,83.6 115.0,83.7 115.8,83.8 116.7,83.9 117.5,84.0 118.3,84.1 119.1,84.2 119.9,84.3 120.7,84.4 121.5,84.5 122.4,84.7 123.2,84.9 124.0,85.1 124.8,85.3 125.6,85.7 126.4,86.0 127.2,86.6 128.0,87.4 128.9,88.6 129.7,90.0 130.5,92.1 131.3,94.2 132.1,96.6 132.9,99.4 133.7,102.2 134.6,105.3 135.4,108.6 136.2,111.9 137.0,115.5 137.8,119.1 138.6,122.6 139.4,126.3 140.3,129.9 141.1,133.4 141.9,137.0 142.7,140.5 143.5,143.9 144.3,147.3 145.1,150.6 145.9,153.8 146.8,156.8 147.6,159.9 148.4,162.8 149.2,165.7 150.0,168.4 150.8,171.1 151.6,173.7 152.5,176.2 153.3,178.7 154.1,181.0 154.9,183.2 155.7,185.4 156.5,187.4 157.3,189.5 158.2,191.3 159.0,193.2 159.8,194.9 160.6,196.5 161.4,198.1 162.2,199.6 163.0,201.0 163.9,202.3 164.7,203.6 165.5,204.9 166.3,206.1 167.1,207.3 167.9,208.5 168.7,209.6 169.5,210.7 170.4,211.7 171.2,212.8 172.0,213.8 172.8,214.7 173.6,215.7 174.4,216.6 175.2,217.5 176.1,218.3 176.9,219.2 177.7,220.0 178.5,220.8 179.3,221.6 180.1,222.3 180.9,223.1 181.8,223.8 182.6,224.5 183.4,225.2 184.2,225.9 185.0,226.5 185.8,227.2 186.6,227.8 187.4,228.4 188.3,229.0 189.1,229.6 189.9,230.2 190.7,230.8 191.5,231.3 192.3,231.9 193.1,232.4 194.0,233.0 194.8,233.5 195.6,234.0 196.4,234.6 197.2,235.1 198.0,235.6 198.8,236.0 199.7,236.5 200.5,237.0 201.3,237.5 202.1,237.9 202.9,238.4 203.7,238.8 204.5,239.3 205.4,239.7 206.2,240.1 207.0,240.6 207.8,241.0 208.6,241.4 209.4,241.8 210.2,242.2 211.0,242.7 211.9,243.1 212.7,243.5 213.5,244.0 214.3,244.4 215.1,244.8 215.9,245.3 216.7,245.7 217.6,246.2 218.4,246.7 219.2,247.1 220.0,247.6 220.8,248.0 221.6,248.5 222.4,249.0 223.3,249.5 224.1,249.9 224.9,250.4 225.7,250.9 226.5,251.4 227.3,251.8 228.1,252.3 228.9,252.8 229.8,253.3 230.6,253.8 231.4,254.2 232.2,254.7 233.0,255.2 233.8,255.7 234.6,256.1 235.5,256.6 236.3,257.1 237.1,257.5 237.9,258.0 238.7,258.4 239.5,258.8 240.3,259.3 241.2,259.7 242.0,260.1 242.8,260.5 243.6,260.9 244.4,261.3 245.2,261.6 246.0,262.0 246.9,262.3 247.7,262.7 248.5,263.0 249.3,263.3 250.1,263.6 250.9,263.9 251.7,264.1 252.5,264.4 253.4,264.6 254.2,264.8 255.0,265.0 255.8,265.2 256.6,265.3 257.4,265.5 258.2,265.6 259.1,265.7 259.9,265.8 260.7,265.9 261.5,265.9 262.3,266.0 263.1,266.0 263.9,266.0 264.8,266.0 265.6,266.0 266.4,265.9 267.2,265.8 268.0,265.8 268.8,265.6 269.6,265.5 270.4,265.4 271.3,265.2 272.1,265.0 272.9,264.8 273.7,264.6 274.5,264.3 275.3,264.1 276.1,263.8 277.0,263.4 277.8,263.1 278.6,262.7 279.4,262.4 280.2,261.9 281.0,261.5 281.8,261.1 282.7,260.6 283.5,260.1 284.3,259.6 285.1,259.1 285.9,258.5 286.7,257.9 287.5,257.3 288.3,256.7 289.2,256.0 290.0,255.3 290.8,254.6 291.6,253.9 292.4,253.2 293.2,252.4 294.0,251.6 294.9,250.8 295.7,250.0 296.5,249.1 297.3,248.2 298.1,247.3 298.9,246.4 299.7,245.5 300.6,244.5 301.4,243.5 302.2,242.4 303.0,241.4 303.8,240.3 304.6,239.3 305.4,238.1 306.3,237.0 307.1,235.8 307.9,234.7 308.7,233.4 309.5,232.2 310.3,230.9 311.1,229.7 311.9,228.4 312.8,227.1 313.6,225.7 314.4,224.4 315.2,222.9 316.0,221.6 316.8,220.1 317.6,218.7 318.5,217.2 319.3,215.7 320.1,214.2 320.9,212.7 321.7,211.1 322.5,209.6 323.3,208.0 324.2,206.5 325.0,204.8 325.8,203.2 326.6,201.6 327.4,200.0 328.2,198.3 329.0,196.7 329.8,195.0 330.7,193.4 331.5,191.7 332.3,190.0 333.1,188.3 333.9,186.7 334.7,185.0 335.5,183.4 336.4,181.7 337.2,180.1 338.0,178.5 338.8,176.9 339.6,175.3 340.4,173.7 341.2,172.2 342.1,170.7 342.9,169.2 343.7,167.7 344.5,166.3 345.3,164.9 346.1,163.6 346.9,162.3 347.8,161.0 348.6,159.8 349.4,158.7 350.2,157.6 351.0,156.6 351.8,155.7 352.6,154.8 353.4,154.0 354.3,153.3 355.1,152.7 355.9,152.1 356.7,151.7 357.5,151.4 358.3,151.2 359.1,151.1 360.0,151.2 360.8,151.5 361.6,151.8 362.4,152.3 363.2,153.0 364.0,153.7 364.8,154.5 365.7,155.3 366.5,156.3 367.3,157.2 368.1,158.1 368.9,159.2 369.7,160.2 370.5,161.2 371.3,162.4 372.2,163.4 373.0,164.5 373.8,165.6 374.6,166.7 375.4,167.8 376.2,168.9 377.0,170.0 377.9,171.1 378.7,172.2 379.5,173.4 380.3,174.5 381.1,175.6 381.9,176.7 382.7,177.8 383.6,178.8 384.4,179.9 385.2,181.0 386.0,182.0 386.8,183.0 387.6,184.1 388.4,185.1 389.3,186.1 390.1,187.1 390.9,188.0 391.7,189.0 392.5,190.0 393.3,190.9 394.1,191.9 394.9,192.8 395.8,193.7 396.6,194.7 397.4,195.6 398.2,196.5 399.0,197.4 399.8,198.2 400.6,199.1 401.5,200.0 402.3,200.8 403.1,201.6 403.9,202.5 404.7,203.3 405.5,204.1 406.3,204.9 407.2,205.7 408.0,206.5 408.8,207.2 409.6,208.0 410.4,208.8 411.2,209.5 412.0,210.2 412.8,211.0 413.7,211.7 414.5,212.4 415.3,213.1 416.1,213.8 416.9,214.5 417.7,215.2 418.5,215.8 419.4,216.5 420.2,217.2 421.0,217.8 421.8,218.4 422.6,219.1 423.4,219.7 424.2,220.3 425.1,220.9 425.9,221.5 426.7,222.1 427.5,222.7 428.3,223.3 429.1,223.9 429.9,224.4 430.7,225.0 431.6,225.5 432.4,226.1 433.2,226.6 434.0,227.1 434.8,227.6 435.6,228.1 436.4,228.6 437.3,229.1 438.1,229.6 438.9,230.0 439.7,230.5 440.5,231.0 441.3,231.5 442.1,231.9 443.0,232.4 443.8,232.9 444.6,233.3 445.4,233.8 446.2,234.3 447.0,234.7 447.8,235.2 448.7,235.6 449.5,236.0 450.3,236.5 451.1,236.9 451.9,237.3 452.7,237.7 453.5,238.2 454.3,238.6 455.2,239.0 456.0,239.3 456.8,239.7 457.6,240.1 458.4,240.4 459.2,240.8 460.0,241.1 460.9,241.4 461.7,241.8 462.5,242.1 463.3,242.3 464.1,242.6 464.9,242.9 465.7,243.1 466.6,243.4 467.4,243.6 468.2,243.8 469.0,244.0 469.8,244.2 470.6,244.4 471.4,244.5 472.2,244.6 473.1,244.8 473.9,244.9 474.7,245.0 475.5,245.0 476.3,245.1 477.1,245.1 477.9,245.2 478.8,245.2 479.6,245.1 480.4,245.1 481.2,245.1 482.0,245.0 482.8,244.9 483.6,244.8 484.5,244.7 485.3,244.5 486.1,244.4 486.9,244.2 487.7,244.0 488.5,243.8 489.3,243.5 490.2,243.3 491.0,243.0 491.8,242.7 492.6,242.4 493.4,242.0 494.2,241.7 495.0,241.3 495.8,240.9 496.7,240.5 497.5,240.0 498.3,239.6 499.1,239.1 499.9,238.6 500.7,238.0 501.5,237.5 502.4,236.9 503.2,236.3 504.0,235.7 504.8,235.1 505.6,234.5 506.4,233.8 507.2,233.1 508.1,232.4 508.9,231.7 509.7,231.0 510.5,230.2 511.3,229.4 512.1,228.6 512.9,227.8 513.7,226.9 514.6,226.1 515.4,225.2 516.2,224.3 517.0,223.4 517.8,222.4 518.6,221.5 519.4,220.5 520.3,219.5 521.1,218.5 521.9,217.4 522.7,216.4 523.5,215.3 524.3,214.2 525.1,213.0 526.0,211.9 526.8,210.8 527.6,209.6 528.4,208.4 529.2,207.2 530.0,206.0 530.8,204.8 531.7,203.5 532.5,202.2 533.3,200.9 534.1,199.7 534.9,198.3 535.7,197.0 536.5,195.7 537.3,194.4 538.2,193.0 539.0,191.6 539.8,190.2 540.6,188.9 541.4,187.5 542.2,186.1 543.0,184.7 543.9,183.3 544.7,181.9 545.5,180.5 546.3,179.0 547.1,177.7 547.9,176.2 548.7,174.8 549.6,173.4 550.4,172.1 551.2,170.7 552.0,169.3 552.8,168.0 553.6,166.7 554.4,165.4 555.2,164.1 556.1,162.9 556.9,161.7 557.7,160.5 558.5,159.4 559.3,158.3 560.1,157.3 560.9,156.3 561.8,155.4 562.6,154.5 563.4,153.7 564.2,152.9 565.0,152.2 565.8,151.6 566.6,151.0 567.5,150.5 568.3,150.1 569.1,149.7 569.9,149.4 570.7,149.2 571.5,149.1 572.3,149.0 573.1,149.1 574.0,149.2 574.8,149.4 575.6,149.7 576.4,150.0 577.2,150.4 578.0,151.0 578.8,151.6 579.7,152.3 580.5,153.2 581.3,154.1 582.1,155.1 582.9,156.2 583.7,157.3 584.5,158.4 585.4,159.5 586.2,160.7 587.0,162.0 587.8,163.2 588.6,164.5 589.4,165.7 590.2,167.0 591.1,168.3 591.9,169.6 592.7,170.9 593.5,172.1 594.3,173.4 595.1,174.7 595.9,175.9 596.7,177.1 597.6,178.3 598.4,179.5 599.2,180.7 600.0,181.8 600.8,183.0 601.6,184.1 602.4,185.2 603.3,186.3 604.1,187.3 604.9,188.4 605.7,189.5 606.5,190.5 607.3,191.6 608.1,192.6 609.0,193.6 609.8,194.6 610.6,195.6 611.4,196.5 612.2,197.5 613.0,198.4 613.8,199.3 614.6,200.2 615.5,201.1 616.3,202.0 617.1,202.9 617.9,203.7 618.7,204.5 619.5,205.4 620.3,206.2 621.2,206.9 622.0,207.7 622.8,208.5 623.6,209.2 624.4,210.0 625.2,210.7 626.0,211.4 626.9,212.1 627.7,212.8 628.5,213.5 629.3,214.1 630.1,214.8 630.9,215.4 631.7,216.0 632.6,216.7 633.4,217.3 634.2,217.9 635.0,218.4 635.8,219.0 636.6,219.6 637.4,220.1 638.2,220.7 639.1,221.2 639.9,221.8 640.7,222.3 641.5,222.8 642.3,223.3 643.1,223.8 643.9,224.2 644.8,224.7 645.6,225.2 646.4,225.6 647.2,226.1 648.0,226.5 648.8,226.9 649.6,227.3 650.5,227.7 651.3,228.1 652.1,228.5 652.9,228.9 653.7,229.2 654.5,229.6 655.3,229.9 656.1,230.2 657.0,230.5 657.8,230.8 658.6,231.1 659.4,231.5 660.2,231.8 661.0,232.2 661.8,232.5 662.7,232.8 663.5,233.0 664.3,233.3 665.1,233.5 665.9,233.7 666.7,234.0 667.5,234.3 668.4,234.5 669.2,234.8 670.0,235.0 670.8,235.3 671.6,235.6 672.4,235.9 673.2,236.1 674.1,236.4 674.9,236.6 675.7,236.8 676.5,237.0 677.3,237.2 678.1,237.5 678.9,237.7 679.7,237.9 680.6,238.1 681.4,238.3 682.2,238.5 683.0,238.7 683.8,238.9 684.6,239.0 685.4,239.2 686.3,239.3 687.1,239.5 687.9,239.6 688.7,239.7 689.5,239.8 690.3,239.8 691.1,239.9 692.0,239.9 692.8,240.0 693.6,240.0 694.4,240.0 695.2,240.0 696.0,240.0 696.8,240.0 697.6,240.0 698.5,239.9 699.3,239.9 700.1,239.8 700.9,239.7 701.7,239.6 702.5,239.5 703.3,239.4 704.2,239.2 705.0,239.1 705.8,238.9 706.6,238.7 707.4,238.5 708.2,238.3 709.0,238.1 709.9,237.9 710.7,237.6 711.5,237.4 712.3,237.1 713.1,236.8 713.9,236.5 714.7,236.2 715.5,235.9 716.4,235.6 717.2,235.2 718.0,234.9 718.8,234.5 719.6,234.2 720.4,233.8 721.2,233.4 722.1,233.0 722.9,232.6 723.7,232.2 724.5,231.8 725.3,231.4 726.1,230.9 726.9,230.5 727.8,230.1 728.6,229.6 729.4,229.2 730.2,228.7 731.0,228.2 731.8,227.8 732.6,227.3 733.5,226.8 734.3,226.4 735.1,225.9 735.9,225.4 736.7,224.9 737.5,224.4 738.3,224.0 739.1,223.5 740.0,223.0 740.8,222.5 741.6,222.1 742.4,221.6 743.2,221.1 744.0,220.7 744.8,220.2 745.7,219.8 746.5,219.3 747.3,218.9 748.1,218.5 748.9,218.0 749.7,217.6 750.5,217.2 751.4,216.8 752.2,216.4 753.0,216.1 753.8,215.7 754.6,215.3 755.4,215.0 756.2,214.6 757.0,214.3 757.9,214.0 758.7,213.7 759.5,213.4 760.3,213.1 761.1,212.9 761.9,212.6 762.7,212.4 763.6,212.2 764.4,212.0 765.2,211.8 766.0,211.6"/>
<line x1="606" y1="42" x2="628" y2="42" stroke="#0f62fe" stroke-width="2.2"/>
<text x="634" y="46" font-family="Arial" font-size="12">vx_mps</text>
</svg>