<svg xmlns="http://www.w3.org/2000/svg" width="820" height="320" viewBox="0 0 820 320">
<rect width="100%" height="100%" fill="#ffffff"/>
<text x="54" y="28" font-family="Arial" font-size="18" font-weight="700">Velocity Z</text>
<line x1="54" y1="266" x2="766" y2="266" stroke="#1f2933"/>
<line x1="54" y1="54" x2="54" y2="266" stroke="#1f2933"/>
<text x="54" y="306" font-family="Arial" font-size="12">time (s)</text>
<text x="596" y="306" font-family="Arial" font-size="12">vz (m/s)</text>
<text x="58" y="68" font-family="Arial" font-size="11">-1</text>
<text x="58" y="260" font-family="Arial" font-size="11">-32.5</text>
<polyline fill="none" stroke="#0f62fe" stroke-width="2.2" points="54.0,54.0 54.8,56.5 55.6,59.6 56.4,63.0 57.3,66.3 58.1,69.4 58.9,72.7 59.7,75.7 60.5,78.9 61.3,81.9 62.1,85.0 63.0,87.8 63.8,90.9 64.6,93.6 65.4,96.5 66.2,99.1 67.0,102.1 67.8,104.7 68.6,107.4 69.5,109.9 70.3,112.9 71.1,115.2 71.9,117.7 72.7,120.4 73.5,122.9 74.3,125.6 75.2,127.8 76.0,131.0 76.8,133.1 77.6,135.8 78.4,137.7 79.2,140.7 80.0,143.4 80.9,145.7 81.7,148.7 82.5,151.3 83.3,153.1 84.1,156.0 84.9,158.9 85.7,161.1 86.5,163.3 87.4,165.7 88.2,168.0 89.0,170.3 89.8,172.3 90.6,174.3 91.4,176.0 92.2,177.8 93.1,179.6 93.9,181.3 94.7,183.0 95.5,184.6 96.3,186.2 97.1,187.8 97.9,189.3 98.8,190.8 99.6,192.2 100.4,193.6 101.2,195.0 102.0,196.3 102.8,197.6 103.6,198.9 104.5,200.2 105.3,201.4 106.1,202.6 106.9,203.8 107.7,205.0 108.5,206.1 109.3,207.2 110.1,208.3 111.0,209.4 111.8,210.5 112.6,211.6 113.4,212.6 114.2,213.7 115.0,214.8 115.8,215.9 116.7,217.0 117.5,218.1 118.3,219.1 119.1,220.3 119.9,221.4 120.7,222.6 121.5,223.7 122.4,225.0 123.2,226.2 124.0,227.5 124.8,228.9 125.6,230.3 126.4,231.8 127.2,233.5 128.0,235.6 128.9,237.9 129.7,240.6 130.5,243.3 131.3,245.9 132.1,248.6 132.9,250.9 133.7,252.8 134.6,255.2 135.4,257.1 136.2,258.6 137.0,260.2 137.8,261.5 138.6,262.4 139.4,263.4 140.3,264.1 141.1,264.4 141.9,264.9 142.7,265.1 143.5,265.3 144.3,265.3 145.1,265.5 145.9,265.5 146.8,265.4 147.6,265.4 148.4,265.2 149.2,265.0 150.0,264.8 150.8,264.5 151.6,264.2 152.5,263.7 153.3,263.3 154.1,262.8 154.9,262.3 155.7,261.7 156.5,261.1 157.3,260.4 158.2,259.7 159.0,259.0 159.8,258.3 160.6,257.5 161.4,256.7 162.2,255.9 163.0,255.1 163.9,254.2 164.7,253.3 165.5,252.3 166.3,251.4 167.1,250.5 167.9,249.6 168.7,248.7 169.5,247.8 170.4,247.0 171.2,246.1 172.0,245.3 172.8,244.5 173.6,243.7 174.4,242.9 175.2,242.2 176.1,241.4 176.9,240.7 177.7,240.0 178.5,239.3 179.3,238.7 180.1,238.0 180.9,237.4 181.8,236.7 182.6,236.1 183.4,235.5 184.2,234.9 185.0,234.4 185.8,233.8 186.6,233.3 187.4,232.8 188.3,232.2 189.1,231.7 189.9,231.3 190.7,230.8 191.5,230.3 192.3,229.9 193.1,229.5 194.0,229.0 194.8,228.6 195.6,228.2 196.4,227.8 197.2,227.5 198.0,227.1 198.8,226.7 199.7,226.4 200.5,226.0 201.3,225.7 202.1,225.4 202.9,225.1 203.7,224.7 204.5,224.4 205.4,224.1 206.2,223.8 207.0,223.6 207.8,223.3 208.6,223.1 209.4,222.9 210.2,222.7 211.0,222.5 211.9,222.3 212.7,222.0 213.5,221.8 214.3,221.6 215.1,221.4 215.9,221.2 216.7,221.0 217.6,220.7 218.4,220.5 219.2,220.3 220.0,220.0 220.8,219.8 221.6,219.6 222.4,219.3 223.3,219.0 224.1,218.8 224.9,218.5 225.7,218.2 226.5,217.9 227.3,217.6 228.1,217.3 228.9,217.0 229.8,216.7 230.6,216.3 231.4,216.0 232.2,215.6 233.0,215.2 233.8,214.8 234.6,214.4 235.5,214.0 236.3,213.7 237.1,213.4 237.9,213.1 238.7,212.9 239.5,212.7 240.3,212.6 241.2,212.5 242.0,212.4 242.8,212.3 243.6,212.3 244.4,212.3 245.2,212.2 246.0,212.2 246.9,212.2 247.7,212.3 248.5,212.3 249.3,212.4 250.1,212.4 250.9,212.5 251.7,212.6 252.5,212.7 253.4,212.9 254.2,213.0 255.0,213.1 255.8,213.3 256.6,213.5 257.4,213.7 258.2,213.9 259.1,214.1 259.9,214.3 260.7,214.5 261.5,214.7 262.3,215.0 263.1,215.2 263.9,215.5 264.8,215.7 265.6,216.0 266.4,216.3 267.2,216.6 268.0,216.8 268.8,217.2 269.6,217.5 270.4,217.8 271.3,218.1 272.1,218.5 272.9,218.8 273.7,219.2 274.5,219.5 275.3,219.8 276.1,220.2 277.0,220.5 277.8,220.9 278.6,221.2 279.4,221.6 280.2,221.9 281.0,222.3 281.8,222.7 282.7,223.0 283.5,223.4 284.3,223.7 285.1,224.1 285.9,224.5 286.7,224.9 287.5,225.3 288.3,225.7 289.2,226.0 290.0,226.5 290.8,226.8 291.6,227.3 292.4,227.6 293.2,228.1 294.0,228.5 294.9,228.9 295.7,229.3 296.5,229.8 297.3,230.2 298.1,230.6 298.9,231.0 299.7,231.5 300.6,231.9 301.4,232.4 302.2,232.8 303.0,233.3 303.8,233.8 304.6,234.2 305.4,234.7 306.3,235.2 307.1,235.6 307.9,236.2 308.7,236.6 309.5,237.1 310.3,237.6 311.1,238.1 311.9,238.6 312.8,239.1 313.6,239.6 314.4,240.2 315.2,240.6 316.0,241.2 316.8,241.7 317.6,242.2 318.5,242.8 319.3,243.3 320.1,243.8 320.9,244.4 321.7,244.9 322.5,245.5 323.3,246.0 324.2,246.6 325.0,247.1 325.8,247.7 326.6,248.2 327.4,248.8 328.2,249.4 329.0,250.0 329.8,250.5 330.7,251.1 331.5,251.6 332.3,252.2 333.1,252.8 333.9,253.4 334.7,253.9 335.5,254.5 336.4,255.1 337.2,255.7 338.0,256.2 338.8,256.8 339.6,257.3 340.4,257.9 341.2,258.4 342.1,259.0 342.9,259.5 343.7,260.1 344.5,260.6 345.3,261.2 346.1,261.7 346.9,262.2 347.8,262.7 348.6,263.2 349.4,263.6 350.2,264.0 351.0,264.4 351.8,264.8 352.6,265.1 353.4,265.4 354.3,265.6 355.1,265.9 355.9,265.8 356.7,266.0 357.5,265.7 358.3,265.4 359.1,264.8 360.0,264.3 360.8,263.3 361.6,262.3 362.4,261.1 363.2,259.8 364.0,258.4 364.8,257.1 365.7,255.7 366.5,254.6 367.3,253.3 368.1,252.0 368.9,251.0 369.7,249.8 370.5,248.6 371.3,247.6 372.2,246.5 373.0,245.4 373.8,244.4 374.6,243.4 375.4,242.4 376.2,241.5 377.0,240.5 377.9,239.7 378.7,238.7 379.5,237.9 380.3,237.1 381.1,236.3 381.9,235.5 382.7,234.8 383.6,234.0 384.4,233.4 385.2,232.6 386.0,232.0 386.8,231.4 387.6,230.8 388.4,230.2 389.3,229.6 390.1,229.0 390.9,228.5 391.7,228.0 392.5,227.4 393.3,226.9 394.1,226.4 394.9,225.8 395.8,225.4 396.6,224.9 397.4,224.4 398.2,224.0 399.0,223.6 399.8,223.2 400.6,222.8 401.5,222.4 402.3,222.1 403.1,221.7 403.9,221.4 404.7,221.1 405.5,220.8 406.3,220.5 407.2,220.2 408.0,219.9 408.8,219.6 409.6,219.4 410.4,219.1 411.2,218.9 412.0,218.6 412.8,218.4 413.7,218.2 414.5,218.0 415.3,217.8 416.1,217.6 416.9,217.4 417.7,217.2 418.5,217.0 419.4,216.8 420.2,216.6 421.0,216.5 421.8,216.3 422.6,216.1 423.4,216.0 424.2,215.8 425.1,215.6 425.9,215.5 426.7,215.3 427.5,215.2 428.3,215.0 429.1,214.9 429.9,214.8 430.7,214.6 431.6,214.5 432.4,214.4 433.2,214.2 434.0,214.1 434.8,214.0 435.6,214.0 436.4,213.9 437.3,213.8 438.1,213.8 438.9,213.7 439.7,213.6 440.5,213.5 441.3,213.4 442.1,213.3 443.0,213.2 443.8,213.1 444.6,213.0 445.4,212.9 446.2,212.7 447.0,212.6 447.8,212.5 448.7,212.3 449.5,212.1 450.3,211.9 451.1,211.8 451.9,211.6 452.7,211.3 453.5,211.1 454.3,210.9 455.2,210.6 456.0,210.4 456.8,210.1 457.6,209.8 458.4,209.5 459.2,209.2 460.0,208.8 460.9,208.5 461.7,208.1 462.5,207.7 463.3,207.3 464.1,206.9 464.9,206.5 465.7,206.2 466.6,205.9 467.4,205.7 468.2,205.5 469.0,205.3 469.8,205.1 470.6,205.0 471.4,204.8 472.2,204.7 473.1,204.6 473.9,204.5 474.7,204.4 475.5,204.4 476.3,204.3 477.1,204.3 477.9,204.2 478.8,204.2 479.6,204.2 480.4,204.2 481.2,204.2 482.0,204.2 482.8,204.2 483.6,204.3 484.5,204.3 485.3,204.4 486.1,204.5 486.9,204.5 487.7,204.6 488.5,204.7 489.3,204.8 490.2,204.9 491.0,205.0 491.8,205.1 492.6,205.2 493.4,205.4 494.2,205.5 495.0,205.6 495.8,205.8 496.7,205.9 497.5,206.1 498.3,206.3 499.1,206.4 499.9,206.6 500.7,206.8 501.5,207.0 502.4,207.2 503.2,207.4 504.0,207.6 504.8,207.9 505.6,208.1 506.4,208.3 507.2,208.6 508.1,208.8 508.9,209.0 509.7,209.3 510.5,209.5 511.3,209.8 512.1,210.0 512.9,210.3 513.7,210.5 514.6,210.8 515.4,211.1 516.2,211.3 517.0,211.6 517.8,211.9 518.6,212.1 519.4,212.4 520.3,212.7 521.1,213.0 521.9,213.2 522.7,213.6 523.5,213.8 524.3,214.2 525.1,214.4 526.0,214.8 526.8,215.0 527.6,215.4 528.4,215.7 529.2,216.0 530.0,216.3 530.8,216.7 531.7,217.0 532.5,217.4 533.3,217.7 534.1,218.0 534.9,218.4 535.7,218.8 536.5,219.1 537.3,219.5 538.2,219.8 539.0,220.2 539.8,220.6 540.6,221.0 541.4,221.3 542.2,221.8 543.0,222.1 543.9,222.6 544.7,222.9 545.5,223.4 546.3,223.8 547.1,224.2 547.9,224.6 548.7,225.0 549.6,225.4 550.4,225.9 551.2,226.3 552.0,226.8 552.8,227.2 553.6,227.6 554.4,228.0 555.2,228.5 556.1,228.9 556.9,229.3 557.7,229.7 558.5,230.1 559.3,230.4 560.1,230.8 560.9,231.1 561.8,231.5 562.6,231.8 563.4,232.1 564.2,232.3 565.0,232.6 565.8,232.8 566.6,233.0 567.5,233.2 568.3,233.4 569.1,233.5 569.9,233.6 570.7,233.6 571.5,233.7 572.3,233.7 573.1,233.8 574.0,233.7 574.8,233.7 575.6,233.6 576.4,233.5 577.2,233.4 578.0,233.2 578.8,232.9 579.7,232.5 580.5,232.2 581.3,231.7 582.1,231.2 582.9,230.7 583.7,230.2 584.5,229.7 585.4,229.2 586.2,228.8 587.0,228.4 587.8,228.1 588.6,227.7 589.4,227.4 590.2,227.1 591.1,226.8 591.9,226.5 592.7,226.2 593.5,225.9 594.3,225.6 595.1,225.4 595.9,225.1 596.7,224.8 597.6,224.5 598.4,224.2 599.2,223.9 600.0,223.6 600.8,223.3 601.6,223.0 602.4,222.7 603.3,222.3 604.1,222.0 604.9,221.6 605.7,221.2 606.5,220.9 607.3,220.5 608.1,220.2 609.0,219.8 609.8,219.4 610.6,219.1 611.4,218.7 612.2,218.4 613.0,218.1 613.8,217.7 614.6,217.4 615.5,217.1 616.3,216.8 617.1,216.5 617.9,216.2 618.7,215.9 619.5,215.6 620.3,215.3 621.2,215.1 622.0,214.8 622.8,214.6 623.6,214.3 624.4,214.1 625.2,213.9 626.0,213.7 626.9,213.5 627.7,213.3 628.5,213.1 629.3,212.9 630.1,212.7 630.9,212.5 631.7,212.4 632.6,212.2 633.4,212.0 634.2,211.9 635.0,211.7 635.8,211.6 636.6,211.5 637.4,211.3 638.2,211.2 639.1,211.1 639.9,211.0 640.7,210.9 641.5,210.7 642.3,210.6 643.1,210.5 643.9,210.4 644.8,210.4 645.6,210.3 646.4,210.2 647.2,210.1 648.0,210.0 648.8,209.9 649.6,209.9 650.5,209.8 651.3,209.7 652.1,209.6 652.9,209.6 653.7,209.5 654.5,209.4 655.3,209.4 656.1,209.3 657.0,209.3 657.8,209.3 658.6,209.2 659.4,209.1 660.2,208.9 661.0,208.8 661.8,208.8 662.7,208.8 663.5,208.8 664.3,208.8 665.1,208.8 665.9,208.7 666.7,208.6 667.5,208.5 668.4,208.4 669.2,208.4 670.0,208.3 670.8,208.2 671.6,208.1 672.4,207.9 673.2,207.9 674.1,207.8 674.9,207.8 675.7,207.8 676.5,207.8 677.3,207.7 678.1,207.6 678.9,207.5 679.7,207.4 680.6,207.3 681.4,207.2 682.2,207.2 683.0,207.1 683.8,207.0 684.6,207.0 685.4,206.9 686.3,206.9 687.1,206.8 687.9,206.8 688.7,206.8 689.5,206.7 690.3,206.7 691.1,206.6 692.0,206.6 692.8,206.5 693.6,206.5 694.4,206.5 695.2,206.4 696.0,206.4 696.8,206.3 697.6,206.3 698.5,206.3 699.3,206.2 700.1,206.2 700.9,206.2 701.7,206.1 702.5,206.1 703.3,206.1 704.2,206.0 705.0,206.0 705.8,206.0 706.6,206.0 707.4,205.9 708.2,205.9 709.0,205.9 709.9,205.9 710.7,205.8 711.5,205.8 712.3,205.8 713.1,205.8 713.9,205.7 714.7,205.7 715.5,205.7 716.4,205.7 717.2,205.7 718.0,205.6 718.8,205.6 719.6,205.6 720.4,205.6 721.2,205.6 722.1,205.5 722.9,205.5 723.7,205.5 724.5,205.5 725.3,205.5 726.1,205.5 726.9,205.4 727.8,205.4 728.6,205.4 729.4,205.4 730.2,205.4 731.0,205.4 731.8,205.3 732.6,205.3 733.5,205.3 734.3,205.3 735.1,205.3 735.9,205.3 736.7,205.3 737.5,205.2 738.3,205.2 739.1,205.2 740.0,205.2 740.8,205.2 741.6,205.2 742.4,205.2 743.2,205.2 744.0,205.1 744.8,205.1 745.7,205.1 746.5,205.1 747.3,205.1 748.1,205.1 748.9,205.1 749.7,205.1 750.5,205.0 751.4,205.0 752.2,205.0 753.0,205.0 753.8,205.0 754.6,205.0 755.4,205.0 756.2,205.0 757.0,205.0 757.9,204.9 758.7,204.9 759.5,204.9 760.3,204.9 761.1,204.9 761.9,204.9 762.7,204.9 763.6,204.9 764.4,204.8 765.2,204.8 766.0,204.8"/>
<line x1="606" y1="42" x2="628" y2="42" stroke="#0f62fe" stroke-width="2.2"/>
<text x="634" y="46" font-family="Arial" font-size="12">vz_mps</text>
</svg>