<svg xmlns="http://www.w3.org/2000/svg" width="820" height="320" viewBox="0 0 820 320">
<rect width="100%" height="100%" fill="#ffffff"/>
<text x="54" y="28" font-family="Arial" font-size="18" font-weight="700">Body Rates</text>
<line x1="54" y1="266" x2="766" y2="266" stroke="#1f2933"/>
<line x1="54" y1="54" x2="54" y2="266" stroke="#1f2933"/>
<text x="54" y="306" font-family="Arial" font-size="12">time (s)</text>
<text x="596" y="306" font-family="Arial" font-size="12">rate (deg/s)</text>
<text x="58" y="68" font-family="Arial" font-size="11">60.1</text>
<text x="58" y="260" font-family="Arial" font-size="11">-76.9</text>
<polyline fill="none" stroke="#0f62fe" stroke-width="2.2" points="54.0,147.0 54.8,158.5 55.6,90.4 56.4,153.0 57.3,84.9 58.1,153.0 58.9,84.9 59.7,153.0 60.5,84.9 61.3,153.0 62.1,84.9 63.0,151.5 63.8,83.4 64.6,149.5 65.4,81.4 66.2,137.8 67.0,69.7 67.8,137.8 68.6,69.7 69.5,128.3 70.3,60.2 71.1,128.3 71.9,60.2 72.7,122.1 73.5,54.0 74.3,122.1 75.2,54.0 76.0,122.1 76.8,54.0 77.6,122.1 78.4,54.0 79.2,122.1 80.0,54.0 80.9,122.1 81.7,54.0 82.5,122.1 83.3,54.0 84.1,122.1 84.9,54.0 85.7,117.7 86.5,58.6 87.4,126.7 88.2,58.6 89.0,126.7 89.8,58.6 90.6,126.7 91.4,58.6 92.2,126.7 93.1,58.6 93.9,126.7 94.7,58.6 95.5,126.7 96.3,58.6 97.1,126.7 97.9,58.6 98.8,126.7 99.6,58.6 100.4,126.7 101.2,58.6 102.0,126.7 102.8,58.6 103.6,126.7 104.5,58.6 105.3,126.7 106.1,58.6 106.9,126.7 107.7,58.6 108.5,126.7 109.3,58.6 110.1,126.7 111.0,58.6 111.8,126.7 112.6,58.6 113.4,126.7 114.2,58.6 115.0,126.7 115.8,58.6 116.7,126.7 117.5,58.6 118.3,126.7 119.1,58.6 119.9,126.7 120.7,58.6 121.5,126.7 122.4,58.6 123.2,126.7 124.0,58.6 124.8,126.7 125.6,58.6 126.4,126.7 127.2,58.6 128.0,126.7 128.9,67.0 129.7,135.1 130.5,67.3 131.3,135.4 132.1,81.2 132.9,149.3 133.7,81.2 134.6,149.3 135.4,100.2 136.2,168.3 137.0,119.2 137.8,112.1 138.6,174.4 139.4,106.3 140.3,174.4 141.1,110.2 141.9,178.3 142.7,127.7 143.5,80.9 144.3,148.4 145.1,88.8 145.9,149.7 146.8,90.6 147.6,155.5 148.4,99.4 149.2,158.3 150.0,105.7 150.8,162.7 151.6,111.4 152.5,163.2 153.3,118.3 154.1,163.1 154.9,118.4 155.7,165.5 156.5,122.3 157.3,147.4 158.2,103.3 159.0,146.2 159.8,106.3 160.6,147.3 161.4,109.1 162.2,148.3 163.0,111.6 163.9,149.2 164.7,114.1 165.5,150.1 166.3,116.4 167.1,150.9 167.9,118.5 168.7,151.8 169.5,120.6 170.4,152.8 171.2,123.9 172.0,155.5 172.8,126.3 173.6,156.8 174.4,128.5 175.2,158.2 176.1,132.0 176.9,161.4 177.7,134.7 178.5,163.3 179.3,137.3 180.1,165.3 180.9,140.0 181.8,167.5 182.6,143.3 183.4,170.5 184.2,146.4 185.0,173.1 185.8,149.6 186.6,175.7 187.4,152.2 188.3,177.3 189.1,153.6 189.9,177.6 190.7,153.6 191.5,176.8 192.3,152.8 193.1,175.6 194.0,151.9 194.8,174.6 195.6,153.1 196.4,176.3 197.2,154.7 198.0,177.8 198.8,156.3 199.7,179.3 200.5,157.2 201.3,179.7 202.1,159.0 202.9,181.5 203.7,159.6 204.5,181.6 205.4,160.6 206.2,182.7 207.0,161.6 207.8,183.6 208.6,163.5 209.4,185.7 210.2,164.2 211.0,186.0 211.9,164.3 212.7,186.1 213.5,164.4 214.3,186.1 215.1,164.4 215.9,186.0 216.7,164.3 217.6,185.9 218.4,164.2 219.2,185.9 220.0,164.2 220.8,185.9 221.6,164.2 222.4,186.0 223.3,164.2 224.1,186.1 224.9,164.2 225.7,186.1 226.5,164.2 227.3,186.2 228.1,164.1 228.9,186.2 229.8,164.1 230.6,186.3 231.4,164.1 232.2,186.3 233.0,164.0 233.8,186.4 234.6,164.0 235.5,186.4 236.3,163.9 237.1,186.5 237.9,163.9 238.7,186.7 239.5,163.8 240.3,186.9 241.2,163.8 242.0,187.3 242.8,163.8 243.6,187.6 244.4,163.8 245.2,188.1 246.0,163.7 246.9,188.5 247.7,163.7 248.5,188.9 249.3,163.7 250.1,189.4 250.9,163.6 251.7,189.9 252.5,163.6 253.4,190.5 254.2,163.5 255.0,191.0 255.8,163.5 256.6,191.6 257.4,163.4 258.2,192.2 259.1,163.3 259.9,192.8 260.7,163.3 261.5,193.5 262.3,163.2 263.1,194.1 263.9,163.1 264.8,194.8 265.6,162.9 266.4,195.5 267.2,162.8 268.0,196.2 268.8,162.7 269.6,196.9 270.4,162.6 271.3,197.6 272.1,162.4 272.9,198.4 273.7,162.3 274.5,199.1 275.3,162.1 276.1,199.8 277.0,162.0 277.8,200.5 278.6,161.8 279.4,201.3 280.2,161.6 281.0,202.0 281.8,161.4 282.7,202.7 283.5,161.3 284.3,203.4 285.1,161.1 285.9,204.1 286.7,160.9 287.5,204.9 288.3,160.7 289.2,205.6 290.0,160.5 290.8,206.3 291.6,160.3 292.4,207.0 293.2,160.0 294.0,207.6 294.9,159.8 295.7,208.3 296.5,159.6 297.3,209.0 298.1,159.4 298.9,209.7 299.7,159.2 300.6,210.3 301.4,158.9 302.2,211.0 303.0,158.7 303.8,211.7 304.6,158.5 305.4,212.3 306.3,158.2 307.1,212.9 307.9,158.0 308.7,213.5 309.5,157.8 310.3,214.1 311.1,157.5 311.9,214.7 312.8,157.3 313.6,215.3 314.4,157.1 315.2,215.9 316.0,156.9 316.8,216.4 317.6,156.6 318.5,216.9 319.3,156.4 320.1,217.5 320.9,156.2 321.7,217.9 322.5,156.0 323.3,218.4 324.2,155.8 325.0,218.9 325.8,155.6 326.6,219.3 327.4,155.5 328.2,219.7 329.0,155.3 329.8,220.1 330.7,155.2 331.5,220.4 332.3,155.0 333.1,220.7 333.9,154.9 334.7,221.0 335.5,154.8 336.4,221.2 337.2,154.7 338.0,221.5 338.8,154.6 339.6,221.7 340.4,154.6 341.2,221.8 342.1,154.5 342.9,221.9 343.7,154.5 344.5,222.0 345.3,154.4 346.1,222.1 346.9,154.4 347.8,222.1 348.6,154.5 349.4,222.1 350.2,154.5 351.0,221.9 351.8,154.6 352.6,221.8 353.4,154.1 354.3,220.1 355.1,152.0 355.9,216.7 356.7,148.6 357.5,208.7 358.3,140.6 359.1,199.4 360.0,131.3 360.8,188.1 361.6,121.7 362.4,175.8 363.2,176.3 364.0,171.0 364.8,200.2 365.7,144.8 366.5,191.3 367.3,139.7 368.1,186.8 368.9,133.2 369.7,179.2 370.5,137.6 371.3,178.6 372.2,138.8 373.0,180.4 373.8,134.2 374.6,174.8 375.4,152.5 376.2,191.5 377.0,151.6 377.9,187.6 378.7,149.5 379.5,185.0 380.3,147.3 381.1,181.5 381.9,145.1 382.7,178.1 383.6,143.0 384.4,174.9 385.2,144.2 386.0,175.7 386.8,142.8 387.6,173.0 388.4,149.5 389.3,180.6 390.1,149.9 390.9,179.2 391.7,149.1 392.5,177.6 393.3,148.2 394.1,176.0 394.9,147.3 395.8,174.5 396.6,146.4 397.4,173.0 398.2,147.3 399.0,173.6 399.8,146.9 400.6,172.4 401.5,146.1 402.3,171.1 403.1,145.2 403.9,169.8 404.7,144.3 405.5,168.4 406.3,143.3 407.2,167.0 408.0,142.3 408.8,165.6 409.6,141.1 410.4,164.1 411.2,139.9 412.0,162.6 412.8,138.6 413.7,161.0 414.5,137.2 415.3,159.3 416.1,135.7 416.9,157.5 417.7,134.1 418.5,155.6 419.4,132.3 420.2,153.6 421.0,130.5 421.8,151.5 422.6,128.5 423.4,149.3 424.2,126.4 425.1,147.0 425.9,124.1 426.7,144.6 427.5,122.0 428.3,142.7 429.1,120.7 429.9,141.8 430.7,120.5 431.6,141.9 432.4,121.0 433.2,142.5 434.0,121.8 434.8,143.2 435.6,122.4 436.4,141.2 437.3,119.4 438.1,140.2 438.9,118.8 439.7,138.7 440.5,117.1 441.3,137.9 442.1,116.6 443.0,135.8 443.8,114.1 444.6,135.0 445.4,113.8 446.2,134.7 447.0,113.4 447.8,131.7 448.7,109.6 449.5,130.6 450.3,109.1 451.1,130.4 451.9,108.9 452.7,129.2 453.5,107.4 454.3,128.8 455.2,107.2 456.0,128.8 456.8,107.2 457.6,128.8 458.4,107.1 459.2,128.9 460.0,107.1 460.9,128.9 461.7,107.0 462.5,128.9 463.3,106.9 464.1,128.9 464.9,106.8 465.7,129.0 466.6,106.6 467.4,129.0 468.2,106.4 469.0,129.0 469.8,106.1 470.6,129.0 471.4,105.8 472.2,129.0 473.1,105.4 473.9,129.0 474.7,105.0 475.5,129.0 476.3,104.5 477.1,129.0 477.9,104.1 478.8,129.0 479.6,103.6 480.4,129.0 481.2,103.1 482.0,129.0 482.8,102.6 483.6,129.0 484.5,102.1 485.3,129.0 486.1,101.5 486.9,129.1 487.7,101.0 488.5,129.1 489.3,100.4 490.2,129.1 491.0,99.8 491.8,129.2 492.6,99.2 493.4,129.2 494.2,98.6 495.0,129.3 495.8,98.0 496.7,129.4 497.5,97.4 498.3,129.5 499.1,96.7 499.9,129.5 500.7,96.1 501.5,129.6 502.4,95.4 503.2,129.7 504.0,94.7 504.8,129.8 505.6,94.1 506.4,129.9 507.2,93.4 508.1,130.0 508.9,92.7 509.7,130.2 510.5,92.1 511.3,130.3 512.1,91.4 512.9,130.4 513.7,90.8 514.6,130.5 515.4,90.1 516.2,130.7 517.0,89.5 517.8,130.8 518.6,88.9 519.4,130.9 520.3,88.3 521.1,131.1 521.9,87.7 522.7,131.2 523.5,87.1 524.3,131.3 525.1,86.5 526.0,131.5 526.8,86.0 527.6,131.6 528.4,85.4 529.2,131.8 530.0,84.9 530.8,131.9 531.7,84.3 532.5,132.0 533.3,83.8 534.1,132.2 534.9,83.3 535.7,132.3 536.5,82.9 537.3,132.4 538.2,82.4 539.0,132.5 539.8,82.0 540.6,132.7 541.4,81.6 542.2,132.8 543.0,81.2 543.9,132.9 544.7,80.8 545.5,133.0 546.3,80.5 547.1,133.1 547.9,80.2 548.7,133.1 549.6,79.9 550.4,133.2 551.2,79.6 552.0,133.3 552.8,79.4 553.6,133.3 554.4,79.2 555.2,133.3 556.1,79.0 556.9,133.3 557.7,78.9 558.5,133.3 559.3,78.9 560.1,133.2 560.9,78.9 561.8,133.1 562.6,79.1 563.4,133.0 564.2,79.3 565.0,132.8 565.8,79.6 566.6,132.7 567.5,79.9 568.3,132.4 569.1,80.4 569.9,132.2 570.7,80.9 571.5,131.9 572.3,81.5 573.1,131.6 574.0,82.2 574.8,131.3 575.6,83.5 576.4,132.2 577.2,86.6 578.0,134.8 578.8,91.7 579.7,139.1 580.5,98.7 581.3,144.9 582.1,105.4 582.9,152.4 583.7,114.7 584.5,129.4 585.4,90.5 586.2,132.9 587.0,96.9 587.8,137.9 588.6,103.2 589.4,142.8 590.2,109.2 591.1,147.6 591.9,115.0 592.7,145.7 593.5,113.1 594.3,148.9 595.1,117.8 595.9,138.7 596.7,106.1 597.6,139.2 598.4,109.0 599.2,141.5 600.0,112.0 600.8,143.6 601.6,114.8 602.4,145.5 603.3,117.4 604.1,146.5 604.9,118.9 605.7,141.8 606.5,113.7 607.3,141.4 608.1,114.8 609.0,142.0 609.8,116.0 610.6,142.4 611.4,117.0 612.2,142.7 613.0,117.9 613.8,143.0 614.6,118.6 615.5,143.1 616.3,119.2 617.1,141.2 617.9,117.2 618.7,140.5 619.5,117.3 620.3,140.2 621.2,117.3 622.0,139.8 622.8,117.3 623.6,139.3 624.4,117.1 625.2,138.8 626.0,116.9 626.9,138.2 627.7,116.6 628.5,137.5 629.3,116.2 630.1,136.8 630.9,115.7 631.7,136.1 632.6,115.1 633.4,135.2 634.2,114.4 635.0,134.3 635.8,116.3 636.6,136.8 637.4,116.7 638.2,136.4 639.1,116.3 639.9,135.8 640.7,116.6 641.5,136.1 642.3,116.9 643.1,136.3 643.9,117.5 644.8,136.9 645.6,117.5 646.4,136.6 647.2,119.3 648.0,138.8 648.8,120.0 649.6,139.0 650.5,120.1 651.3,138.9 652.1,120.1 652.9,138.9 653.7,121.0 654.5,140.0 655.3,121.5 656.1,140.2 657.0,121.1 657.8,135.7 658.6,112.8 659.4,126.5 660.2,107.6 661.0,124.7 661.8,125.6 662.7,133.1 663.5,122.1 664.3,135.3 665.1,114.2 665.9,128.7 666.7,105.7 667.5,119.5 668.4,116.0 669.2,121.4 670.0,106.9 670.8,123.7 671.6,102.6 672.4,118.2 673.2,110.4 674.1,128.1 674.9,110.3 675.7,127.8 676.5,108.6 677.3,125.3 678.1,105.4 678.9,121.5 679.7,101.4 680.6,117.6 681.4,105.7 682.2,125.2 683.0,107.6 683.8,126.0 684.6,108.4 685.4,126.1 686.3,108.3 687.1,127.0 687.9,109.5 688.7,124.9 689.5,106.1 690.3,123.9 691.1,105.6 692.0,123.5 692.8,105.2 693.6,123.0 694.4,104.6 695.2,122.5 696.0,104.2 696.8,122.1 697.6,103.9 698.5,122.0 699.3,103.9 700.1,122.0 700.9,104.0 701.7,122.1 702.5,104.1 703.3,122.2 704.2,104.2 705.0,122.3 705.8,104.2 706.6,122.3 707.4,104.2 708.2,122.2 709.0,104.1 709.9,122.1 710.7,104.1 711.5,122.0 712.3,104.0 713.1,121.9 713.9,103.9 714.7,121.9 715.5,103.8 716.4,121.8 717.2,103.8 718.0,121.7 718.8,103.8 719.6,121.7 720.4,103.7 721.2,121.6 722.1,103.7 722.9,121.6 723.7,103.6 724.5,121.5 725.3,103.6 726.1,121.5 726.9,103.5 727.8,121.4 728.6,103.5 729.4,121.3 730.2,103.4 731.0,121.2 731.8,103.4 732.6,121.2 733.5,103.3 734.3,121.1 735.1,103.3 735.9,121.0 736.7,103.2 737.5,121.0 738.3,103.2 739.1,120.9 740.0,103.1 740.8,120.8 741.6,103.1 742.4,120.7 743.2,103.0 744.0,120.7 744.8,103.0 745.7,120.6 746.5,102.9 747.3,120.5 748.1,102.9 748.9,120.4 749.7,102.8 750.5,120.4 751.4,102.8 752.2,120.3 753.0,102.7 753.8,120.2 754.6,102.7 755.4,120.2 756.2,102.6 757.0,120.1 757.9,102.6 758.7,120.0 759.5,102.6 760.3,120.0 761.1,102.5 761.9,119.9 762.7,102.5 763.6,119.8 764.4,102.4 765.2,119.8 766.0,102.4"/>
<line x1="606" y1="42" x2="628" y2="42" stroke="#0f62fe" stroke-width="2.2"/>
<text x="634" y="46" font-family="Arial" font-size="12">p_dps</text>
<polyline fill="none" stroke="#24a148" stroke-width="2.2" points="54.0,147.0 54.8,119.3 55.6,118.8 56.4,125.6 57.3,127.3 58.1,125.5 58.9,128.0 59.7,125.2 60.5,131.4 61.3,128.4 62.1,131.1 63.0,125.9 63.8,134.8 64.6,130.1 65.4,132.6 66.2,125.3 67.0,138.3 67.8,131.7 68.6,132.4 69.5,128.2 70.3,144.1 71.1,131.9 71.9,129.9 72.7,133.5 73.5,132.2 74.3,135.3 75.2,126.7 76.0,148.9 76.8,135.2 77.6,137.7 78.4,116.1 79.2,132.3 80.0,137.7 80.9,125.3 81.7,146.2 82.5,143.5 83.3,119.7 84.1,133.7 84.9,152.2 85.7,137.5 86.5,129.6 87.4,137.8 88.2,146.9 89.0,154.8 89.8,153.7 90.6,152.2 91.4,147.1 92.2,146.5 93.1,145.2 93.9,148.0 94.7,148.3 95.5,150.9 96.3,150.0 97.1,151.4 97.9,150.0 98.8,151.6 99.6,150.9 100.4,152.9 101.2,152.4 102.0,154.4 102.8,153.7 103.6,155.6 104.5,155.0 105.3,156.9 106.1,156.4 106.9,158.5 107.7,158.1 108.5,160.2 109.3,159.8 110.1,162.0 111.0,161.7 111.8,163.9 112.6,163.9 113.4,166.2 114.2,166.2 115.0,168.6 115.8,168.9 116.7,171.5 117.5,171.7 118.3,174.4 119.1,174.7 119.9,177.6 120.7,178.3 121.5,181.5 122.4,182.5 123.2,186.0 124.0,187.5 124.8,199.9 125.6,203.5 126.4,228.1 127.2,227.8 128.0,255.9 128.9,249.9 129.7,266.0 130.5,237.3 131.3,242.3 132.1,250.1 132.9,235.5 133.7,237.5 134.6,242.0 135.4,240.1 136.2,236.9 137.0,231.2 137.8,226.7 138.6,222.9 139.4,218.2 140.3,215.1 141.1,211.9 141.9,210.3 142.7,207.5 143.5,205.9 144.3,205.4 145.1,204.5 145.9,204.1 146.8,203.7 147.6,204.3 148.4,203.7 149.2,203.9 150.0,203.4 150.8,203.6 151.6,203.1 152.5,203.1 153.3,202.6 154.1,202.5 154.9,202.2 155.7,202.3 156.5,202.0 157.3,202.2 158.2,202.0 159.0,202.2 159.8,202.0 160.6,202.1 161.4,201.8 162.2,201.9 163.0,201.6 163.9,199.8 164.7,197.9 165.5,194.0 166.3,191.8 167.1,188.2 167.9,186.6 168.7,183.5 169.5,182.1 170.4,179.5 171.2,178.1 172.0,175.9 172.8,174.5 173.6,172.7 174.4,171.3 175.2,169.8 176.1,168.5 176.9,167.2 177.7,165.9 178.5,164.8 179.3,163.6 180.1,162.6 180.9,161.4 181.8,160.4 182.6,159.3 183.4,158.4 184.2,157.4 185.0,156.6 185.8,155.7 186.6,155.1 187.4,154.5 188.3,154.2 189.1,154.0 189.9,154.0 190.7,154.0 191.5,154.0 192.3,153.9 193.1,153.6 194.0,153.3 194.8,152.9 195.6,152.4 196.4,152.0 197.2,151.6 198.0,151.2 198.8,150.9 199.7,150.7 200.5,150.6 201.3,150.6 202.1,150.6 202.9,150.7 203.7,150.8 204.5,150.9 205.4,150.9 206.2,151.0 207.0,151.0 207.8,151.0 208.6,151.0 209.4,150.9 210.2,150.9 211.0,151.0 211.9,151.0 212.7,151.1 213.5,151.2 214.3,151.3 215.1,151.5 215.9,151.5 216.7,151.6 217.6,151.7 218.4,151.7 219.2,151.7 220.0,151.8 220.8,151.8 221.6,151.8 222.4,151.9 223.3,151.9 224.1,152.0 224.9,152.0 225.7,152.1 226.5,152.2 227.3,152.3 228.1,152.4 228.9,152.4 229.8,152.5 230.6,152.5 231.4,152.6 232.2,152.7 233.0,152.7 233.8,152.8 234.6,152.8 235.5,152.9 236.3,153.7 237.1,154.7 237.9,155.9 238.7,156.9 239.5,157.9 240.3,158.7 241.2,159.5 242.0,160.0 242.8,160.7 243.6,161.1 244.4,161.7 245.2,162.0 246.0,162.5 246.9,162.7 247.7,163.1 248.5,163.4 249.3,163.7 250.1,163.8 250.9,164.1 251.7,164.2 252.5,164.4 253.4,164.5 254.2,164.7 255.0,164.7 255.8,164.9 256.6,164.9 257.4,165.1 258.2,165.1 259.1,165.4 259.9,165.4 260.7,165.6 261.5,165.6 262.3,165.8 263.1,165.8 263.9,166.0 264.8,166.0 265.6,166.3 266.4,166.3 267.2,166.7 268.0,166.8 268.8,167.4 269.6,167.5 270.4,168.0 271.3,168.0 272.1,168.5 272.9,168.4 273.7,168.8 274.5,168.7 275.3,169.2 276.1,169.0 277.0,169.5 277.8,169.4 278.6,169.9 279.4,169.7 280.2,170.2 281.0,170.0 281.8,170.6 282.7,170.4 283.5,170.9 284.3,170.8 285.1,171.3 285.9,171.2 286.7,171.8 287.5,171.6 288.3,172.2 289.2,172.0 290.0,172.7 290.8,172.5 291.6,173.1 292.4,172.9 293.2,173.6 294.0,173.5 294.9,174.2 295.7,174.0 296.5,174.7 297.3,174.5 298.1,175.3 298.9,175.1 299.7,175.9 300.6,175.7 301.4,176.5 302.2,176.3 303.0,177.2 303.8,177.0 304.6,177.9 305.4,177.7 306.3,178.6 307.1,178.4 307.9,179.3 308.7,179.1 309.5,180.0 310.3,179.9 311.1,180.8 311.9,180.6 312.8,181.6 313.6,181.4 314.4,182.5 315.2,182.3 316.0,183.3 316.8,183.1 317.6,184.2 318.5,184.0 319.3,185.1 320.1,184.9 320.9,186.0 321.7,185.8 322.5,186.9 323.3,186.7 324.2,187.9 325.0,187.7 325.8,188.8 326.6,188.7 327.4,189.8 328.2,189.6 329.0,190.8 329.8,190.6 330.7,191.8 331.5,191.6 332.3,192.8 333.1,192.6 333.9,193.7 334.7,193.6 335.5,194.7 336.4,194.5 337.2,195.7 338.0,195.5 338.8,196.6 339.6,196.4 340.4,197.5 341.2,197.3 342.1,198.4 342.9,198.2 343.7,199.2 344.5,199.0 345.3,200.0 346.1,200.2 346.9,201.0 347.8,201.2 348.6,202.0 349.4,202.2 350.2,202.9 351.0,203.0 351.8,203.7 352.6,203.7 353.4,207.5 354.3,210.1 355.1,219.2 355.9,218.0 356.7,229.4 357.5,225.8 358.3,230.5 359.1,231.9 360.0,232.0 360.8,226.8 361.6,223.3 362.4,218.2 363.2,214.3 364.0,210.5 364.8,207.7 365.7,206.2 366.5,204.7 367.3,199.3 368.1,198.9 368.9,200.2 369.7,196.9 370.5,197.8 371.3,198.7 372.2,192.5 373.0,192.6 373.8,195.2 374.6,190.0 375.4,190.1 376.2,192.6 377.0,189.1 377.9,191.1 378.7,185.3 379.5,185.4 380.3,184.2 381.1,184.1 381.9,181.8 382.7,181.6 383.6,179.0 384.4,178.9 385.2,176.4 386.0,176.4 386.8,174.2 387.6,174.0 388.4,172.2 389.3,172.0 390.1,170.6 390.9,170.3 391.7,169.2 392.5,168.8 393.3,167.9 394.1,167.3 394.9,166.5 395.8,166.0 396.6,165.3 397.4,164.7 398.2,164.0 399.0,163.5 399.8,162.9 400.6,162.4 401.5,161.9 402.3,161.4 403.1,160.9 403.9,160.3 404.7,159.9 405.5,159.4 406.3,158.9 407.2,158.4 408.0,158.0 408.8,157.5 409.6,157.1 410.4,156.6 411.2,156.3 412.0,155.8 412.8,155.4 413.7,154.9 414.5,154.6 415.3,154.1 416.1,153.8 416.9,153.3 417.7,153.0 418.5,152.5 419.4,152.2 420.2,151.7 421.0,151.4 421.8,151.0 422.6,150.7 423.4,150.2 424.2,150.0 425.1,149.5 425.9,149.3 426.7,148.9 427.5,148.6 428.3,148.3 429.1,148.2 429.9,148.2 430.7,148.2 431.6,148.3 432.4,148.3 433.2,148.3 434.0,148.3 434.8,148.2 435.6,148.1 436.4,148.0 437.3,147.9 438.1,147.7 438.9,147.6 439.7,147.5 440.5,147.5 441.3,147.5 442.1,147.6 443.0,147.7 443.8,147.8 444.6,147.9 445.4,148.1 446.2,148.2 447.0,148.9 447.8,149.5 448.7,149.8 449.5,150.1 450.3,150.2 451.1,150.4 451.9,150.5 452.7,150.7 453.5,150.9 454.3,151.0 455.2,151.2 456.0,151.4 456.8,151.5 457.6,151.7 458.4,151.8 459.2,151.9 460.0,152.0 460.9,152.1 461.7,152.2 462.5,152.3 463.3,152.3 464.1,152.4 464.9,153.0 465.7,154.0 466.6,155.0 467.4,156.1 468.2,157.0 469.0,157.9 469.8,158.6 470.6,159.3 471.4,159.8 472.2,160.4 473.1,160.8 473.9,161.3 474.7,161.6 475.5,162.1 476.3,162.3 477.1,162.7 477.9,162.9 478.8,163.3 479.6,163.5 480.4,163.8 481.2,163.9 482.0,164.2 482.8,164.2 483.6,164.5 484.5,164.6 485.3,164.8 486.1,164.9 486.9,165.1 487.7,165.2 488.5,165.5 489.3,165.5 490.2,165.8 491.0,165.8 491.8,166.1 492.6,166.2 493.4,166.5 494.2,166.5 495.0,166.8 495.8,166.9 496.7,167.2 497.5,167.3 498.3,167.6 499.1,167.7 499.9,168.0 500.7,168.1 501.5,168.5 502.4,168.6 503.2,169.3 504.0,169.4 504.8,170.0 505.6,170.1 506.4,170.6 507.2,170.6 508.1,171.2 508.9,171.2 509.7,171.7 510.5,171.7 511.3,172.3 512.1,172.2 512.9,172.9 513.7,172.8 514.6,173.4 515.4,173.4 516.2,174.0 517.0,174.0 517.8,174.7 518.6,174.6 519.4,175.3 520.3,175.2 521.1,176.0 521.9,175.9 522.7,176.7 523.5,176.6 524.3,177.4 525.1,177.4 526.0,178.2 526.8,178.1 527.6,179.0 528.4,178.9 529.2,179.8 530.0,179.7 530.8,180.6 531.7,180.6 532.5,181.5 533.3,181.5 534.1,182.4 534.9,182.4 535.7,183.4 536.5,183.4 537.3,184.3 538.2,184.3 539.0,185.3 539.8,185.3 540.6,186.4 541.4,186.4 542.2,187.4 543.0,187.5 543.9,188.5 544.7,188.5 545.5,189.6 546.3,189.7 547.1,190.8 547.9,190.8 548.7,191.9 549.6,192.0 550.4,193.1 551.2,193.2 552.0,194.3 552.8,194.6 553.6,195.7 554.4,196.2 555.2,197.2 556.1,197.7 556.9,198.8 557.7,199.2 558.5,200.2 559.3,200.6 560.1,201.6 560.9,202.0 561.8,202.9 562.6,203.3 563.4,204.2 564.2,204.5 565.0,205.3 565.8,205.6 566.6,206.4 567.5,206.7 568.3,207.5 569.1,207.7 569.9,208.4 570.7,208.6 571.5,209.2 572.3,209.4 573.1,209.9 574.0,210.0 574.8,210.5 575.6,213.2 576.4,215.9 577.2,218.6 578.0,220.6 578.8,220.1 579.7,219.2 580.5,216.8 581.3,214.5 582.1,211.3 582.9,208.9 583.7,206.4 584.5,205.0 585.4,204.0 586.2,203.7 587.0,203.0 587.8,202.9 588.6,202.3 589.4,202.3 590.2,201.8 591.1,201.8 591.9,201.3 592.7,201.3 593.5,201.0 594.3,201.0 595.1,200.7 595.9,200.7 596.7,200.6 597.6,200.7 598.4,200.5 599.2,200.6 600.0,200.4 600.8,200.5 601.6,200.2 602.4,200.3 603.3,200.0 604.1,200.1 604.9,199.8 605.7,199.9 606.5,199.7 607.3,199.0 608.1,197.6 609.0,195.6 609.8,193.6 610.6,191.6 611.4,189.7 612.2,188.0 613.0,186.3 613.8,184.8 614.6,183.4 615.5,182.0 616.3,180.7 617.1,179.5 617.9,178.3 618.7,177.3 619.5,176.3 620.3,175.4 621.2,174.5 622.0,173.8 622.8,172.9 623.6,172.2 624.4,171.5 625.2,170.9 626.0,170.2 626.9,169.7 627.7,169.1 628.5,168.7 629.3,168.1 630.1,167.7 630.9,167.2 631.7,166.9 632.6,166.5 633.4,166.2 634.2,165.8 635.0,165.6 635.8,165.2 636.6,165.0 637.4,164.7 638.2,164.5 639.1,164.1 639.9,164.0 640.7,163.6 641.5,163.5 642.3,163.2 643.1,163.1 643.9,162.8 644.8,162.7 645.6,162.4 646.4,162.3 647.2,162.0 648.0,161.9 648.8,161.6 649.6,161.4 650.5,161.1 651.3,161.0 652.1,160.7 652.9,160.6 653.7,160.3 654.5,160.2 655.3,159.9 656.1,159.8 657.0,158.3 657.8,154.9 658.6,149.6 659.4,144.6 660.2,143.5 661.0,147.2 661.8,155.2 662.7,162.8 663.5,166.6 664.3,166.0 665.1,161.4 665.9,153.2 666.7,146.2 667.5,142.9 668.4,142.6 669.2,142.4 670.0,142.1 670.8,141.9 671.6,141.9 672.4,145.1 673.2,153.2 674.1,161.3 674.9,166.2 675.7,167.0 676.5,164.8 677.3,161.5 678.1,158.5 678.9,156.5 679.7,155.9 680.6,156.7 681.4,158.7 682.2,161.8 683.0,165.2 683.8,168.7 684.6,171.7 685.4,174.2 686.3,175.7 687.1,176.7 687.9,176.8 688.7,176.6 689.5,175.9 690.3,175.2 691.1,174.4 692.0,173.8 692.8,173.4 693.6,173.4 694.4,173.4 695.2,173.9 696.0,174.3 696.8,175.1 697.6,175.7 698.5,176.5 699.3,177.1 700.1,177.8 700.9,178.3 701.7,178.8 702.5,179.1 703.3,179.4 704.2,179.5 705.0,179.7 705.8,179.7 706.6,179.9 707.4,179.9 708.2,180.0 709.0,180.1 709.9,180.3 710.7,180.4 711.5,180.6 712.3,180.8 713.1,181.1 713.9,181.2 714.7,181.6 715.5,181.7 716.4,182.1 717.2,182.2 718.0,182.6 718.8,182.7 719.6,183.0 720.4,183.1 721.2,183.4 722.1,183.5 722.9,183.8 723.7,183.8 724.5,184.1 725.3,184.2 726.1,184.5 726.9,184.5 727.8,184.8 728.6,184.9 729.4,185.2 730.2,185.2 731.0,185.5 731.8,185.6 732.6,185.8 733.5,185.9 734.3,186.2 735.1,186.2 735.9,186.5 736.7,186.5 737.5,186.8 738.3,186.8 739.1,187.1 740.0,187.1 740.8,187.4 741.6,187.4 742.4,187.6 743.2,187.6 744.0,187.9 744.8,187.9 745.7,188.1 746.5,188.1 747.3,188.3 748.1,188.3 748.9,188.5 749.7,188.5 750.5,188.7 751.4,188.7 752.2,188.9 753.0,188.9 753.8,189.1 754.6,189.0 755.4,189.2 756.2,189.2 757.0,189.4 757.9,189.3 758.7,189.5 759.5,189.4 760.3,189.6 761.1,189.5 761.9,189.7 762.7,189.6 763.6,189.7 764.4,189.6 765.2,189.8 766.0,189.7"/>
<line x1="606" y1="60" x2="628" y2="60" stroke="#24a148" stroke-width="2.2"/>
<text x="634" y="64" font-family="Arial" font-size="12">q_dps</text>
<polyline fill="none" stroke="#da1e28" stroke-width="2.2" points="54.0,147.0 54.8,78.9 55.6,116.5 56.4,176.1 57.3,122.6 58.1,147.7 58.9,90.8 59.7,158.7 60.5,121.0 61.3,149.2 62.1,94.4 63.0,160.1 63.8,121.6 64.6,143.3 65.4,91.5 66.2,159.6 67.0,123.5 67.8,134.4 68.6,108.8 69.5,170.2 70.3,125.5 71.1,125.6 71.9,126.1 72.7,122.8 73.5,130.6 74.3,109.6 75.2,161.5 76.0,117.0 76.8,143.4 77.6,93.6 78.4,160.6 79.2,126.0 80.0,107.2 80.9,174.5 81.7,135.4 82.5,105.2 83.3,173.3 84.1,148.5 84.9,122.8 85.7,124.7 86.5,133.2 87.4,144.8 88.2,154.0 89.0,156.3 89.8,155.0 90.6,151.3 91.4,149.6 92.2,149.0 93.1,150.4 93.9,151.4 94.7,152.7 95.5,152.6 96.3,152.8 97.1,152.3 97.9,152.6 98.8,152.4 99.6,153.0 100.4,152.9 101.2,153.4 102.0,153.1 102.8,153.6 103.6,153.3 104.5,153.7 105.3,153.4 106.1,153.8 106.9,153.5 107.7,153.9 108.5,153.6 109.3,154.0 110.1,153.7 111.0,154.0 111.8,153.7 112.6,154.1 113.4,153.7 114.2,154.1 115.0,153.7 115.8,154.1 116.7,153.7 117.5,154.0 118.3,153.7 119.1,154.0 119.9,153.8 120.7,154.0 121.5,153.8 122.4,154.0 123.2,153.9 124.0,163.5 124.8,156.2 125.6,179.7 126.4,155.1 127.2,213.1 128.0,153.5 128.9,193.3 129.7,134.2 130.5,184.6 131.3,202.8 132.1,140.8 132.9,186.2 133.7,243.3 134.6,175.2 135.4,189.4 136.2,247.8 137.0,179.7 137.8,189.0 138.6,226.7 139.4,158.6 140.3,178.2 141.1,235.6 141.9,188.0 142.7,193.4 143.5,183.0 144.3,206.5 145.1,154.5 145.9,178.8 146.8,213.1 147.6,175.3 148.4,191.9 149.2,177.1 150.0,199.9 150.8,162.2 151.6,178.7 152.5,196.3 153.3,160.4 154.1,180.2 154.9,187.5 155.7,172.6 156.5,192.0 157.3,164.0 158.2,182.4 159.0,179.1 159.8,179.3 160.6,180.0 161.4,177.2 162.2,181.3 163.0,174.7 163.9,182.9 164.7,172.2 165.5,184.3 166.3,170.2 167.1,184.9 167.9,169.2 168.7,184.5 169.5,169.3 170.4,183.0 171.2,170.0 172.0,181.0 172.8,170.8 173.6,179.1 174.4,171.4 175.2,177.4 176.1,171.6 176.9,175.9 177.7,171.3 178.5,174.7 179.3,170.8 180.1,173.6 180.9,170.1 181.8,172.4 182.6,169.2 183.4,171.2 184.2,168.2 185.0,168.1 185.8,164.0 186.6,160.0 187.4,153.3 188.3,148.4 189.1,142.5 189.9,139.6 190.7,136.4 191.5,136.3 192.3,135.8 193.1,137.8 194.0,138.8 194.8,141.6 195.6,142.7 196.4,144.9 197.2,144.9 198.0,145.7 198.8,144.4 199.7,144.1 200.5,142.1 201.3,141.4 202.1,139.5 202.9,139.1 203.7,137.6 204.5,137.6 205.4,136.6 206.2,137.1 207.0,136.5 207.8,137.1 208.6,136.5 209.4,137.0 210.2,136.1 211.0,136.3 211.9,135.3 212.7,135.5 213.5,134.6 214.3,135.0 215.1,134.3 215.9,134.9 216.7,134.4 217.6,135.0 218.4,134.6 219.2,135.3 220.0,134.9 220.8,135.5 221.6,135.0 222.4,135.5 223.3,135.0 224.1,135.5 224.9,135.0 225.7,135.5 226.5,135.0 227.3,135.5 228.1,135.1 228.9,135.6 229.8,135.2 230.6,135.7 231.4,135.4 232.2,135.9 233.0,135.6 233.8,136.1 234.6,135.8 235.5,136.3 236.3,136.1 237.1,136.6 237.9,136.4 238.7,136.9 239.5,136.7 240.3,137.2 241.2,137.0 242.0,137.3 242.8,137.1 243.6,137.4 244.4,137.1 245.2,137.3 246.0,137.0 246.9,137.3 247.7,136.9 248.5,137.2 249.3,136.9 250.1,137.2 250.9,136.9 251.7,137.1 252.5,136.8 253.4,137.1 254.2,136.8 255.0,137.0 255.8,136.7 256.6,136.9 257.4,136.6 258.2,136.8 259.1,136.5 259.9,136.8 260.7,136.4 261.5,136.7 262.3,136.4 263.1,136.6 263.9,136.3 264.8,136.6 265.6,136.2 266.4,136.5 267.2,136.2 268.0,136.4 268.8,136.1 269.6,136.4 270.4,136.1 271.3,136.3 272.1,136.0 272.9,136.2 273.7,135.9 274.5,136.1 275.3,135.7 276.1,136.0 277.0,135.6 277.8,135.9 278.6,135.5 279.4,135.8 280.2,135.4 281.0,135.7 281.8,135.3 282.7,135.6 283.5,135.2 284.3,135.5 285.1,135.1 285.9,135.4 286.7,135.0 287.5,135.3 288.3,134.9 289.2,135.2 290.0,134.8 290.8,135.1 291.6,134.7 292.4,135.0 293.2,134.6 294.0,135.0 294.9,134.5 295.7,134.9 296.5,134.5 297.3,134.8 298.1,134.4 298.9,134.7 299.7,134.3 300.6,134.7 301.4,134.2 302.2,134.6 303.0,134.2 303.8,134.6 304.6,134.1 305.4,134.5 306.3,134.1 307.1,134.5 307.9,134.0 308.7,134.4 309.5,134.0 310.3,134.4 311.1,133.9 311.9,134.3 312.8,133.9 313.6,134.3 314.4,133.8 315.2,134.3 316.0,133.8 316.8,134.2 317.6,133.7 318.5,134.2 319.3,133.7 320.1,134.2 320.9,133.6 321.7,134.1 322.5,133.6 323.3,134.1 324.2,133.5 325.0,134.1 325.8,133.5 326.6,134.0 327.4,133.4 328.2,134.0 329.0,133.3 329.8,133.9 330.7,133.3 331.5,133.9 332.3,133.2 333.1,133.9 333.9,133.2 334.7,133.8 335.5,133.1 336.4,133.8 337.2,133.0 338.0,133.7 338.8,133.0 339.6,133.6 340.4,132.9 341.2,133.6 342.1,132.8 342.9,133.5 343.7,132.7 344.5,133.5 345.3,132.7 346.1,133.4 346.9,132.6 347.8,133.3 348.6,132.5 349.4,133.3 350.2,132.4 351.0,133.1 351.8,132.2 352.6,128.1 353.4,126.8 354.3,116.8 355.1,125.6 355.9,88.1 356.7,121.6 357.5,97.8 358.3,101.6 359.1,78.7 360.0,108.3 360.8,89.0 361.6,93.1 362.4,92.4 363.2,97.3 364.0,90.6 364.8,106.1 365.7,79.8 366.5,122.2 367.3,107.1 368.1,83.4 368.9,120.1 369.7,108.7 370.5,88.1 371.3,125.2 372.2,110.5 373.0,91.8 373.8,121.9 374.6,109.0 375.4,99.2 376.2,116.2 377.0,95.1 377.9,122.1 378.7,104.0 379.5,111.4 380.3,105.0 381.1,113.6 381.9,104.5 382.7,115.5 383.6,104.7 384.4,116.7 385.2,105.6 386.0,117.1 386.8,106.9 387.6,117.1 388.4,108.6 389.3,116.5 390.1,109.8 390.9,116.1 391.7,110.9 392.5,115.9 393.3,111.8 394.1,115.8 394.9,112.6 395.8,116.0 396.6,113.2 397.4,116.2 398.2,113.8 399.0,116.4 399.8,114.3 400.6,116.7 401.5,114.8 402.3,117.0 403.1,115.2 403.9,117.3 404.7,115.7 405.5,117.7 406.3,116.2 407.2,118.1 408.0,116.7 408.8,118.6 409.6,117.3 410.4,119.1 411.2,117.8 412.0,119.6 412.8,118.4 413.7,120.1 414.5,119.1 415.3,120.7 416.1,119.7 416.9,121.4 417.7,120.5 418.5,122.1 419.4,121.2 420.2,122.8 421.0,122.0 421.8,123.6 422.6,122.9 423.4,124.5 424.2,123.8 425.1,125.4 425.9,126.0 426.7,129.6 427.5,133.0 428.3,138.1 429.1,141.9 429.9,146.2 430.7,148.3 431.6,150.6 432.4,150.6 433.2,150.9 434.0,149.4 434.8,148.6 435.6,146.7 436.4,146.0 437.3,144.6 438.1,145.0 438.9,144.7 439.7,146.0 440.5,146.5 441.3,148.2 442.1,148.8 443.0,150.4 443.8,150.8 444.6,152.2 445.4,152.3 446.2,153.2 447.0,152.9 447.8,153.5 448.7,153.2 449.5,154.0 450.3,153.9 451.1,154.9 451.9,154.8 452.7,155.6 453.5,155.5 454.3,156.2 455.2,156.0 456.0,156.6 456.8,156.2 457.6,156.7 458.4,156.2 459.2,156.6 460.0,156.1 460.9,156.4 461.7,155.9 462.5,156.3 463.3,155.9 464.1,156.2 464.9,155.9 465.7,156.2 466.6,155.8 467.4,156.1 468.2,155.7 469.0,156.0 469.8,155.6 470.6,155.9 471.4,155.6 472.2,156.0 473.1,155.8 473.9,156.1 474.7,156.0 475.5,156.3 476.3,156.2 477.1,156.6 477.9,156.4 478.8,156.7 479.6,156.5 480.4,156.9 481.2,156.7 482.0,157.1 482.8,156.9 483.6,157.2 484.5,157.1 485.3,157.4 486.1,157.3 486.9,157.7 487.7,157.5 488.5,157.9 489.3,157.7 490.2,158.1 491.0,157.9 491.8,158.3 492.6,158.1 493.4,158.4 494.2,158.3 495.0,158.6 495.8,158.4 496.7,158.8 497.5,158.6 498.3,159.0 499.1,158.8 499.9,159.1 500.7,158.9 501.5,159.3 502.4,159.1 503.2,159.5 504.0,159.2 504.8,159.6 505.6,159.4 506.4,159.8 507.2,159.5 508.1,160.0 508.9,159.7 509.7,160.2 510.5,159.9 511.3,160.4 512.1,160.1 512.9,160.5 513.7,160.3 514.6,160.7 515.4,160.5 516.2,160.9 517.0,160.7 517.8,161.1 518.6,160.8 519.4,161.3 520.3,161.0 521.1,161.4 521.9,161.1 522.7,161.6 523.5,161.3 524.3,161.7 525.1,161.5 526.0,161.9 526.8,161.6 527.6,162.1 528.4,161.7 529.2,162.2 530.0,161.9 530.8,162.3 531.7,162.0 532.5,162.5 533.3,162.2 534.1,162.6 534.9,162.3 535.7,162.8 536.5,162.4 537.3,162.9 538.2,162.6 539.0,163.1 539.8,162.7 540.6,163.2 541.4,162.8 542.2,163.3 543.0,162.9 543.9,163.5 544.7,163.1 545.5,163.6 546.3,163.2 547.1,163.7 547.9,163.3 548.7,163.9 549.6,163.5 550.4,164.0 551.2,163.6 552.0,164.2 552.8,163.7 553.6,164.3 554.4,163.9 555.2,164.5 556.1,164.0 556.9,164.7 557.7,164.2 558.5,164.9 559.3,164.5 560.1,165.2 560.9,164.8 561.8,165.5 562.6,165.1 563.4,165.8 564.2,165.4 565.0,166.2 565.8,165.7 566.6,166.5 567.5,166.1 568.3,166.9 569.1,166.5 569.9,167.3 570.7,166.8 571.5,167.7 572.3,167.2 573.1,168.1 574.0,167.6 574.8,173.6 575.6,173.5 576.4,183.9 577.2,179.2 578.0,196.0 578.8,183.1 579.7,208.2 580.5,184.3 581.3,203.1 582.1,206.3 582.9,203.6 583.7,203.2 584.5,201.4 585.4,201.1 586.2,200.2 587.0,198.7 587.8,199.2 588.6,196.3 589.4,198.3 590.2,193.8 591.1,197.3 591.9,191.4 592.7,196.2 593.5,189.6 594.3,195.0 595.1,188.1 595.9,193.5 596.7,187.5 597.6,192.4 598.4,187.0 599.2,191.2 600.0,186.5 600.8,190.1 601.6,186.1 602.4,189.0 603.3,185.6 604.1,188.0 604.9,185.1 605.7,187.2 606.5,184.9 607.3,186.9 608.1,184.7 609.0,186.5 609.8,184.6 610.6,186.3 611.4,184.4 612.2,186.1 613.0,184.3 613.8,185.9 614.6,184.2 615.5,185.7 616.3,184.1 617.1,185.6 617.9,184.2 618.7,185.7 619.5,184.3 620.3,185.8 621.2,184.4 622.0,185.8 622.8,184.6 623.6,186.0 624.4,184.7 625.2,186.1 626.0,185.0 626.9,186.3 627.7,185.2 628.5,186.5 629.3,185.5 630.1,186.8 630.9,185.8 631.7,187.1 632.6,186.1 633.4,187.4 634.2,186.5 635.0,187.7 635.8,186.8 636.6,187.9 637.4,187.0 638.2,188.2 639.1,187.3 639.9,188.4 640.7,187.5 641.5,188.6 642.3,187.7 643.1,188.8 643.9,187.9 644.8,188.9 645.6,188.1 646.4,189.1 647.2,188.2 648.0,189.1 648.8,188.2 649.6,189.1 650.5,188.2 651.3,189.1 652.1,188.2 652.9,189.1 653.7,188.2 654.5,189.0 655.3,188.1 656.1,168.0 657.0,132.6 657.8,91.5 658.6,87.4 659.4,114.7 660.2,162.0 661.0,217.4 661.8,237.4 662.7,228.5 663.5,197.3 664.3,153.1 665.1,101.2 665.9,90.3 666.7,110.1 667.5,123.5 668.4,120.0 669.2,119.9 670.0,122.3 670.8,124.5 671.6,151.6 672.4,198.0 673.2,213.1 674.1,203.7 674.9,184.9 675.7,170.0 676.5,159.1 677.3,154.7 678.1,154.0 678.9,158.2 679.7,164.2 680.6,173.0 681.4,181.5 682.2,190.0 683.0,195.6 683.8,200.3 684.6,201.8 685.4,202.6 686.3,200.9 687.1,199.3 687.9,196.1 688.7,193.7 689.5,190.7 690.3,189.4 691.1,187.8 692.0,187.9 692.8,187.6 693.6,188.8 694.4,189.3 695.2,191.0 696.0,191.7 696.8,193.4 697.6,193.9 698.5,195.2 699.3,195.3 700.1,196.2 700.9,195.9 701.7,196.4 702.5,195.8 703.3,196.2 704.2,195.5 705.0,195.8 705.8,195.1 706.6,195.5 707.4,195.0 708.2,195.5 709.0,195.1 709.9,195.8 710.7,195.5 711.5,196.3 712.3,196.1 713.1,196.9 713.9,196.7 714.7,197.5 715.5,197.3 716.4,198.0 717.2,197.8 718.0,198.5 718.8,198.2 719.6,199.0 720.4,198.7 721.2,199.4 722.1,199.1 722.9,199.8 723.7,199.5 724.5,200.2 725.3,200.0 726.1,200.7 726.9,200.4 727.8,201.2 728.6,201.0 729.4,201.7 730.2,201.5 731.0,202.3 731.8,202.1 732.6,202.8 733.5,202.6 734.3,203.4 735.1,203.2 735.9,204.0 736.7,203.7 737.5,204.5 738.3,204.3 739.1,205.1 740.0,204.9 740.8,205.6 741.6,205.4 742.4,206.2 743.2,206.0 744.0,206.8 744.8,206.6 745.7,207.4 746.5,207.1 747.3,207.9 748.1,207.7 748.9,208.5 749.7,208.3 750.5,209.1 751.4,208.9 752.2,209.7 753.0,209.4 753.8,210.2 754.6,210.0 755.4,210.8 756.2,210.6 757.0,211.3 757.9,211.1 758.7,211.9 759.5,211.6 760.3,212.4 761.1,212.2 761.9,212.9 762.7,212.7 763.6,213.4 764.4,213.2 765.2,213.9 766.0,213.7"/>
<line x1="606" y1="78" x2="628" y2="78" stroke="#da1e28" stroke-width="2.2"/>
<text x="634" y="82" font-family="Arial" font-size="12">r_dps</text>
</svg>