<svg xmlns="http://www.w3.org/2000/svg" width="820" height="320" viewBox="0 0 820 320">
<rect width="100%" height="100%" fill="#ffffff"/>
<text x="54" y="28" font-family="Arial" font-size="18" font-weight="700">Dynamic Pressure</text>
<line x1="54" y1="266" x2="766" y2="266" stroke="#1f2933"/>
<line x1="54" y1="54" x2="54" y2="266" stroke="#1f2933"/>
<text x="54" y="306" font-family="Arial" font-size="12">time (s)</text>
<text x="596" y="306" font-family="Arial" font-size="12">qbar (Pa)</text>
<text x="58" y="68" font-family="Arial" font-size="11">1.26e+03</text>
<text x="58" y="260" font-family="Arial" font-size="11">333</text>
<polyline fill="none" stroke="#0f62fe" stroke-width="2.2" points="54.0,54.0 54.8,55.6 55.6,57.1 56.4,58.6 57.3,59.8 58.1,61.0 58.9,62.1 59.7,63.1 60.5,64.0 61.3,64.8 62.1,65.6 63.0,66.3 63.8,67.0 64.6,67.6 65.4,68.1 66.2,68.6 67.0,69.1 67.8,69.5 68.6,69.8 69.5,70.3 70.3,70.6 71.1,70.8 71.9,71.1 72.7,71.3 73.5,71.6 74.3,71.8 75.2,72.1 76.0,72.4 76.8,72.6 77.6,72.7 78.4,73.0 79.2,73.3 80.0,73.5 80.9,74.0 81.7,74.3 82.5,74.5 83.3,74.8 84.1,75.1 84.9,75.4 85.7,75.6 86.5,75.8 87.4,76.1 88.2,76.4 89.0,76.6 89.8,76.7 90.6,76.7 91.4,76.6 92.2,76.5 93.1,76.3 93.9,76.2 94.7,76.0 95.5,75.9 96.3,75.6 97.1,75.4 97.9,75.1 98.8,74.8 99.6,74.4 100.4,74.1 101.2,73.7 102.0,73.3 102.8,72.9 103.6,72.5 104.5,72.0 105.3,71.6 106.1,71.1 106.9,70.6 107.7,70.1 108.5,69.5 109.3,68.9 110.1,68.4 111.0,67.8 111.8,67.1 112.6,66.5 113.4,65.8 114.2,65.1 115.0,64.4 115.8,63.6 116.7,62.9 117.5,62.2 118.3,61.4 119.1,60.8 119.9,60.1 120.7,59.5 121.5,58.8 122.4,58.3 123.2,57.8 124.0,57.4 124.8,56.9 125.6,56.8 126.4,56.5 127.2,57.0 128.0,57.2 128.9,58.6 129.7,60.0 130.5,63.0 131.3,65.8 132.1,69.1 132.9,73.2 133.7,77.7 134.6,82.0 135.4,86.8 136.2,92.0 137.0,97.2 137.8,102.6 138.6,107.9 139.4,113.3 140.3,118.5 141.1,123.7 141.9,128.7 142.7,133.5 143.5,138.2 144.3,142.5 145.1,146.7 145.9,150.6 146.8,154.4 147.6,157.9 148.4,161.3 149.2,164.6 150.0,167.7 150.8,170.7 151.6,173.5 152.5,176.2 153.3,178.9 154.1,181.4 154.9,183.8 155.7,186.2 156.5,188.5 157.3,190.7 158.2,192.9 159.0,195.0 159.8,197.0 160.6,199.0 161.4,201.0 162.2,202.9 163.0,204.7 163.9,206.6 164.7,208.5 165.5,210.4 166.3,212.1 167.1,213.9 167.9,215.5 168.7,217.1 169.5,218.7 170.4,220.2 171.2,221.6 172.0,223.0 172.8,224.4 173.6,225.7 174.4,226.9 175.2,228.1 176.1,229.2 176.9,230.3 177.7,231.4 178.5,232.4 179.3,233.4 180.1,234.3 180.9,235.2 181.8,236.1 182.6,236.9 183.4,237.7 184.2,238.5 185.0,239.3 185.8,240.0 186.6,240.7 187.4,241.3 188.3,242.0 189.1,242.6 189.9,243.1 190.7,243.7 191.5,244.2 192.3,244.6 193.1,245.1 194.0,245.5 194.8,245.9 195.6,246.3 196.4,246.7 197.2,247.0 198.0,247.3 198.8,247.6 199.7,247.9 200.5,248.2 201.3,248.5 202.1,248.7 202.9,248.9 203.7,249.1 204.5,249.4 205.4,249.5 206.2,249.7 207.0,249.9 207.8,250.0 208.6,250.1 209.4,250.1 210.2,250.2 211.0,250.2 211.9,250.3 212.7,250.3 213.5,250.3 214.3,250.3 215.1,250.3 215.9,250.3 216.7,250.3 217.6,250.3 218.4,250.2 219.2,250.2 220.0,250.1 220.8,250.1 221.6,250.0 222.4,249.9 223.3,249.9 224.1,249.8 224.9,249.7 225.7,249.6 226.5,249.5 227.3,249.4 228.1,249.3 228.9,249.1 229.8,249.0 230.6,248.9 231.4,248.7 232.2,248.6 233.0,248.4 233.8,248.3 234.6,248.1 235.5,248.0 236.3,247.7 237.1,247.4 237.9,247.1 238.7,246.6 239.5,246.2 240.3,245.7 241.2,245.1 242.0,244.5 242.8,243.9 243.6,243.3 244.4,242.6 245.2,241.9 246.0,241.2 246.9,240.5 247.7,239.7 248.5,238.9 249.3,238.1 250.1,237.3 250.9,236.4 251.7,235.6 252.5,234.7 253.4,233.8 254.2,232.9 255.0,231.9 255.8,231.0 256.6,230.0 257.4,229.0 258.2,228.0 259.1,227.0 259.9,226.0 260.7,225.0 261.5,223.9 262.3,222.8 263.1,221.8 263.9,220.7 264.8,219.6 265.6,218.4 266.4,217.3 267.2,216.1 268.0,215.0 268.8,213.8 269.6,212.6 270.4,211.5 271.3,210.3 272.1,209.1 272.9,208.0 273.7,206.8 274.5,205.7 275.3,204.5 276.1,203.4 277.0,202.2 277.8,201.1 278.6,199.9 279.4,198.8 280.2,197.7 281.0,196.6 281.8,195.4 282.7,194.3 283.5,193.2 284.3,192.1 285.1,191.0 285.9,189.9 286.7,188.8 287.5,187.7 288.3,186.6 289.2,185.6 290.0,184.5 290.8,183.4 291.6,182.4 292.4,181.3 293.2,180.3 294.0,179.3 294.9,178.2 295.7,177.2 296.5,176.2 297.3,175.2 298.1,174.1 298.9,173.2 299.7,172.2 300.6,171.2 301.4,170.2 302.2,169.3 303.0,168.3 303.8,167.4 304.6,166.4 305.4,165.5 306.3,164.6 307.1,163.7 307.9,162.8 308.7,161.9 309.5,161.0 310.3,160.2 311.1,159.3 311.9,158.5 312.8,157.6 313.6,156.8 314.4,156.0 315.2,155.2 316.0,154.4 316.8,153.7 317.6,152.9 318.5,152.2 319.3,151.5 320.1,150.8 320.9,150.1 321.7,149.5 322.5,148.8 323.3,148.2 324.2,147.5 325.0,147.0 325.8,146.3 326.6,145.8 327.4,145.2 328.2,144.7 329.0,144.2 329.8,143.8 330.7,143.3 331.5,142.9 332.3,142.4 333.1,142.0 333.9,141.6 334.7,141.3 335.5,140.9 336.4,140.7 337.2,140.3 338.0,140.1 338.8,139.8 339.6,139.7 340.4,139.4 341.2,139.3 342.1,139.1 342.9,139.0 343.7,138.9 344.5,138.8 345.3,138.7 346.1,138.8 346.9,138.7 347.8,138.8 348.6,138.9 349.4,139.1 350.2,139.2 351.0,139.5 351.8,139.7 352.6,140.1 353.4,140.5 354.3,141.0 355.1,141.5 355.9,142.4 356.7,143.3 357.5,144.7 358.3,146.3 359.1,148.2 360.0,150.3 360.8,152.9 361.6,155.7 362.4,158.6 363.2,161.7 364.0,164.9 364.8,167.9 365.7,170.9 366.5,173.7 367.3,176.4 368.1,179.0 368.9,181.5 369.7,184.0 370.5,186.3 371.3,188.5 372.2,190.8 373.0,192.9 373.8,194.9 374.6,196.9 375.4,198.8 376.2,200.7 377.0,202.5 377.9,204.2 378.7,206.0 379.5,207.6 380.3,209.3 381.1,210.8 381.9,212.3 382.7,213.8 383.6,215.3 384.4,216.6 385.2,218.0 386.0,219.3 386.8,220.6 387.6,221.8 388.4,223.0 389.3,224.2 390.1,225.3 390.9,226.4 391.7,227.5 392.5,228.6 393.3,229.6 394.1,230.7 394.9,231.6 395.8,232.6 396.6,233.5 397.4,234.4 398.2,235.2 399.0,236.0 399.8,236.8 400.6,237.6 401.5,238.3 402.3,239.0 403.1,239.7 403.9,240.4 404.7,241.0 405.5,241.6 406.3,242.2 407.2,242.7 408.0,243.3 408.8,243.8 409.6,244.3 410.4,244.8 411.2,245.2 412.0,245.7 412.8,246.1 413.7,246.5 414.5,246.9 415.3,247.3 416.1,247.7 416.9,248.0 417.7,248.4 418.5,248.7 419.4,249.0 420.2,249.3 421.0,249.6 421.8,249.9 422.6,250.1 423.4,250.4 424.2,250.6 425.1,250.9 425.9,251.1 426.7,251.3 427.5,251.5 428.3,251.8 429.1,251.9 429.9,252.1 430.7,252.3 431.6,252.5 432.4,252.6 433.2,252.7 434.0,252.8 434.8,252.9 435.6,252.9 436.4,252.9 437.3,252.9 438.1,252.9 438.9,252.9 439.7,252.9 440.5,252.9 441.3,252.9 442.1,252.9 443.0,252.8 443.8,252.8 444.6,252.7 445.4,252.7 446.2,252.6 447.0,252.5 447.8,252.5 448.7,252.4 449.5,252.3 450.3,252.2 451.1,252.1 451.9,252.0 452.7,251.9 453.5,251.7 454.3,251.6 455.2,251.5 456.0,251.4 456.8,251.2 457.6,251.1 458.4,250.9 459.2,250.8 460.0,250.6 460.9,250.5 461.7,250.3 462.5,250.2 463.3,250.0 464.1,249.8 464.9,249.6 465.7,249.3 466.6,249.0 467.4,248.6 468.2,248.2 469.0,247.7 469.8,247.2 470.6,246.7 471.4,246.1 472.2,245.5 473.1,244.9 473.9,244.3 474.7,243.7 475.5,243.0 476.3,242.3 477.1,241.6 477.9,240.9 478.8,240.1 479.6,239.4 480.4,238.6 481.2,237.8 482.0,237.0 482.8,236.2 483.6,235.4 484.5,234.6 485.3,233.7 486.1,232.9 486.9,232.0 487.7,231.1 488.5,230.3 489.3,229.4 490.2,228.5 491.0,227.6 491.8,226.6 492.6,225.7 493.4,224.7 494.2,223.8 495.0,222.8 495.8,221.9 496.7,220.9 497.5,219.9 498.3,218.9 499.1,217.9 499.9,216.9 500.7,215.9 501.5,214.9 502.4,213.9 503.2,212.8 504.0,211.8 504.8,210.8 505.6,209.8 506.4,208.7 507.2,207.8 508.1,206.7 508.9,205.8 509.7,204.8 510.5,203.8 511.3,202.8 512.1,201.8 512.9,200.9 513.7,199.9 514.6,199.0 515.4,198.1 516.2,197.1 517.0,196.2 517.8,195.3 518.6,194.4 519.4,193.5 520.3,192.6 521.1,191.7 521.9,190.9 522.7,190.0 523.5,189.2 524.3,188.3 525.1,187.5 526.0,186.7 526.8,185.9 527.6,185.1 528.4,184.3 529.2,183.6 530.0,182.8 530.8,182.1 531.7,181.3 532.5,180.6 533.3,179.9 534.1,179.2 534.9,178.5 535.7,177.9 536.5,177.2 537.3,176.6 538.2,176.0 539.0,175.3 539.8,174.8 540.6,174.2 541.4,173.7 542.2,173.1 543.0,172.6 543.9,172.1 544.7,171.6 545.5,171.1 546.3,170.7 547.1,170.2 547.9,169.9 548.7,169.4 549.6,169.1 550.4,168.7 551.2,168.4 552.0,168.1 552.8,167.9 553.6,167.6 554.4,167.4 555.2,167.2 556.1,167.2 556.9,167.1 557.7,167.1 558.5,167.1 559.3,167.2 560.1,167.3 560.9,167.6 561.8,167.8 562.6,168.2 563.4,168.5 564.2,169.0 565.0,169.5 565.8,170.1 566.6,170.7 567.5,171.4 568.3,172.2 569.1,173.0 569.9,173.9 570.7,174.8 571.5,175.8 572.3,176.8 573.1,177.9 574.0,179.0 574.8,180.2 575.6,181.4 576.4,182.6 577.2,183.9 578.0,185.4 578.8,186.9 579.7,188.6 580.5,190.4 581.3,192.2 582.1,194.1 582.9,196.0 583.7,197.9 584.5,199.7 585.4,201.4 586.2,203.1 587.0,204.7 587.8,206.2 588.6,207.7 589.4,209.1 590.2,210.5 591.1,211.9 591.9,213.2 592.7,214.4 593.5,215.7 594.3,216.9 595.1,218.1 595.9,219.3 596.7,220.4 597.6,221.6 598.4,222.7 599.2,223.8 600.0,224.9 600.8,226.0 601.6,227.0 602.4,228.2 603.3,229.3 604.1,230.4 604.9,231.5 605.7,232.5 606.5,233.5 607.3,234.5 608.1,235.5 609.0,236.5 609.8,237.4 610.6,238.4 611.4,239.3 612.2,240.2 613.0,241.0 613.8,241.9 614.6,242.7 615.5,243.4 616.3,244.2 617.1,244.9 617.9,245.6 618.7,246.3 619.5,247.0 620.3,247.6 621.2,248.3 622.0,248.9 622.8,249.4 623.6,250.0 624.4,250.5 625.2,251.1 626.0,251.6 626.9,252.1 627.7,252.5 628.5,253.0 629.3,253.4 630.1,253.8 630.9,254.2 631.7,254.6 632.6,255.0 633.4,255.4 634.2,255.7 635.0,256.0 635.8,256.4 636.6,256.7 637.4,257.0 638.2,257.3 639.1,257.5 639.9,257.8 640.7,258.1 641.5,258.3 642.3,258.6 643.1,258.8 643.9,259.0 644.8,259.2 645.6,259.4 646.4,259.6 647.2,259.8 648.0,260.0 648.8,260.2 649.6,260.3 650.5,260.5 651.3,260.6 652.1,260.8 652.9,260.9 653.7,261.1 654.5,261.2 655.3,261.3 656.1,261.5 657.0,261.6 657.8,261.7 658.6,261.9 659.4,262.0 660.2,262.1 661.0,262.2 661.8,262.2 662.7,262.2 663.5,262.3 664.3,262.3 665.1,262.4 665.9,262.5 666.7,262.6 667.5,262.7 668.4,262.8 669.2,262.8 670.0,262.9 670.8,262.9 671.6,263.0 672.4,263.1 673.2,263.1 674.1,263.1 674.9,263.1 675.7,263.1 676.5,263.1 677.3,263.1 678.1,263.2 678.9,263.2 679.7,263.3 680.6,263.3 681.4,263.3 682.2,263.4 683.0,263.4 683.8,263.4 684.6,263.4 685.4,263.4 686.3,263.4 687.1,263.4 687.9,263.4 688.7,263.4 689.5,263.4 690.3,263.4 691.1,263.4 692.0,263.4 692.8,263.4 693.6,263.4 694.4,263.4 695.2,263.4 696.0,263.4 696.8,263.4 697.6,263.4 698.5,263.5 699.3,263.5 700.1,263.5 700.9,263.5 701.7,263.5 702.5,263.5 703.3,263.5 704.2,263.5 705.0,263.5 705.8,263.5 706.6,263.5 707.4,263.6 708.2,263.6 709.0,263.6 709.9,263.6 710.7,263.6 711.5,263.6 712.3,263.7 713.1,263.7 713.9,263.7 714.7,263.7 715.5,263.7 716.4,263.8 717.2,263.8 718.0,263.8 718.8,263.8 719.6,263.9 720.4,263.9 721.2,263.9 722.1,263.9 722.9,264.0 723.7,264.0 724.5,264.0 725.3,264.1 726.1,264.1 726.9,264.1 727.8,264.1 728.6,264.2 729.4,264.2 730.2,264.2 731.0,264.3 731.8,264.3 732.6,264.3 733.5,264.4 734.3,264.4 735.1,264.5 735.9,264.5 736.7,264.5 737.5,264.6 738.3,264.6 739.1,264.6 740.0,264.7 740.8,264.7 741.6,264.8 742.4,264.8 743.2,264.8 744.0,264.9 744.8,264.9 745.7,265.0 746.5,265.0 747.3,265.1 748.1,265.1 748.9,265.1 749.7,265.2 750.5,265.2 751.4,265.3 752.2,265.3 753.0,265.3 753.8,265.4 754.6,265.4 755.4,265.5 756.2,265.5 757.0,265.6 757.9,265.6 758.7,265.6 759.5,265.7 760.3,265.7 761.1,265.8 761.9,265.8 762.7,265.8 763.6,265.9 764.4,265.9 765.2,266.0 766.0,266.0"/>
<line x1="606" y1="42" x2="628" y2="42" stroke="#0f62fe" stroke-width="2.2"/>
<text x="634" y="46" font-family="Arial" font-size="12">qbar_pa</text>
</svg>