<svg xmlns="http://www.w3.org/2000/svg" width="820" height="320" viewBox="0 0 820 320">
<rect width="100%" height="100%" fill="#ffffff"/>
<text x="54" y="28" font-family="Arial" font-size="18" font-weight="700">Load Factor</text>
<line x1="54" y1="266" x2="766" y2="266" stroke="#1f2933"/>
<line x1="54" y1="54" x2="54" y2="266" stroke="#1f2933"/>
<text x="54" y="306" font-family="Arial" font-size="12">time (s)</text>
<text x="596" y="306" font-family="Arial" font-size="12">g</text>
<text x="58" y="68" font-family="Arial" font-size="11">3.09</text>
<text x="58" y="260" font-family="Arial" font-size="11">0.293</text>
<polyline fill="none" stroke="#0f62fe" stroke-width="2.2" points="54.0,254.2 54.8,257.1 55.6,251.9 56.4,256.4 57.3,258.9 58.1,258.1 58.9,258.1 59.7,258.8 60.5,261.4 61.3,262.8 62.1,259.7 63.0,261.1 63.8,263.2 64.6,266.0 65.4,258.4 66.2,260.4 67.0,262.8 67.8,264.7 68.6,255.2 69.5,258.9 70.3,262.5 71.1,261.0 71.9,257.6 72.7,256.9 73.5,255.7 74.3,249.4 75.2,244.7 76.0,252.0 76.8,254.3 77.6,244.5 78.4,237.8 79.2,241.6 80.0,234.1 80.9,230.1 81.7,240.0 82.5,235.7 83.3,225.3 84.1,225.2 84.9,237.0 85.7,234.0 86.5,220.5 87.4,222.4 88.2,222.7 89.0,233.4 89.8,234.3 90.6,239.5 91.4,236.2 92.2,238.4 93.1,234.5 93.9,237.7 94.7,235.1 95.5,238.9 96.3,236.5 97.1,239.7 97.9,236.9 98.8,239.7 99.6,236.9 100.4,239.8 101.2,237.2 102.0,240.1 102.8,237.7 103.6,240.5 104.5,238.1 105.3,240.8 106.1,238.6 106.9,241.1 107.7,239.1 108.5,241.6 109.3,239.8 110.1,242.1 111.0,240.5 111.8,242.6 112.6,241.3 113.4,243.1 114.2,242.1 115.0,243.4 115.8,242.8 116.7,242.4 117.5,242.7 118.3,240.7 119.1,241.3 119.9,238.0 120.7,238.7 121.5,233.9 122.4,234.6 123.2,227.1 124.0,231.8 124.8,215.7 125.6,223.6 126.4,185.2 127.2,193.8 128.0,139.1 128.9,134.9 129.7,76.8 130.5,91.5 131.3,86.2 132.1,61.9 132.9,63.5 133.7,65.6 134.6,57.1 135.4,54.0 136.2,54.7 137.0,54.3 137.8,55.6 138.6,58.3 139.4,60.8 140.3,62.9 141.1,67.6 141.9,70.6 142.7,75.6 143.5,81.2 144.3,86.2 145.1,91.5 145.9,96.2 146.8,100.6 147.6,105.1 148.4,109.2 149.2,113.3 150.0,116.8 150.8,120.9 151.6,124.7 152.5,127.3 153.3,131.5 154.1,134.5 154.9,137.4 155.7,140.7 156.5,142.9 157.3,146.4 158.2,148.9 159.0,151.4 159.8,154.0 160.6,156.2 161.4,158.7 162.2,160.4 163.0,161.2 163.9,160.2 164.7,161.4 165.5,162.5 166.3,164.1 167.1,165.0 167.9,166.7 168.7,167.6 169.5,169.2 170.4,170.0 171.2,171.6 172.0,172.3 172.8,173.8 173.6,174.6 174.4,176.0 175.2,176.7 176.1,178.0 176.9,178.6 177.7,179.8 178.5,180.5 179.3,181.6 180.1,182.2 180.9,183.3 181.8,183.8 182.6,184.8 183.4,185.3 184.2,186.2 185.0,186.6 185.8,187.4 186.6,187.9 187.4,188.7 188.3,189.3 189.1,190.2 189.9,190.8 190.7,191.7 191.5,192.3 192.3,193.1 193.1,193.7 194.0,194.4 194.8,194.8 195.6,195.4 196.4,195.8 197.2,196.3 198.0,196.7 198.8,197.2 199.7,197.5 200.5,198.0 201.3,198.3 202.1,198.8 202.9,199.1 203.7,199.6 204.5,199.8 205.4,200.3 206.2,200.9 207.0,201.6 207.8,202.3 208.6,203.0 209.4,203.0 210.2,203.1 211.0,202.9 211.9,203.0 212.7,202.8 213.5,202.9 214.3,202.6 215.1,202.6 215.9,202.3 216.7,202.3 217.6,201.9 218.4,201.8 219.2,201.5 220.0,201.3 220.8,200.9 221.6,200.7 222.4,200.2 223.3,200.0 224.1,199.5 224.9,199.2 225.7,198.6 226.5,198.3 227.3,197.6 228.1,197.3 228.9,196.6 229.8,196.1 230.6,195.4 231.4,194.9 232.2,194.0 233.0,193.5 233.8,192.6 234.6,191.9 235.5,193.7 236.3,194.8 237.1,196.1 237.9,196.7 238.7,197.6 239.5,197.9 240.3,198.6 241.2,198.8 242.0,199.4 242.8,199.4 243.6,199.9 244.4,199.8 245.2,200.2 246.0,200.0 246.9,200.7 247.7,200.7 248.5,201.6 249.3,201.5 250.1,202.3 250.9,202.1 251.7,202.9 252.5,202.6 253.4,203.3 254.2,202.9 255.0,203.6 255.8,203.2 256.6,203.9 257.4,203.4 258.2,204.1 259.1,203.6 259.9,204.2 260.7,203.7 261.5,204.3 262.3,203.7 263.1,204.4 263.9,203.7 264.8,204.4 265.6,203.7 266.4,204.9 267.2,204.1 268.0,205.7 268.8,204.6 269.6,206.1 270.4,204.8 271.3,206.2 272.1,204.8 272.9,206.2 273.7,204.8 274.5,206.2 275.3,204.6 276.1,206.2 277.0,204.5 277.8,206.0 278.6,204.3 279.4,205.9 280.2,204.1 281.0,205.7 281.8,203.8 282.7,205.5 283.5,203.5 284.3,205.3 285.1,203.2 285.9,205.0 286.7,202.9 287.5,204.7 288.3,202.5 289.2,204.4 290.0,202.1 290.8,204.0 291.6,201.6 292.4,203.6 293.2,201.1 294.0,203.1 294.9,200.5 295.7,202.6 296.5,199.9 297.3,202.0 298.1,199.2 298.9,201.4 299.7,198.5 300.6,200.7 301.4,197.7 302.2,199.9 303.0,196.8 303.8,199.1 304.6,195.9 305.4,198.2 306.3,194.9 307.1,197.2 307.9,193.8 308.7,196.2 309.5,192.6 310.3,195.1 311.1,191.4 311.9,193.9 312.8,190.1 313.6,192.6 314.4,188.6 315.2,191.2 316.0,187.1 316.8,189.7 317.6,185.5 318.5,188.1 319.3,183.9 320.1,186.5 320.9,182.1 321.7,184.7 322.5,180.2 323.3,182.8 324.2,178.3 325.0,180.9 325.8,176.2 326.6,178.9 327.4,174.1 328.2,176.8 329.0,171.9 329.8,174.6 330.7,169.6 331.5,172.3 332.3,167.3 333.1,170.0 333.9,164.9 334.7,167.6 335.5,162.5 336.4,165.2 337.2,160.0 338.0,162.7 338.8,157.5 339.6,160.3 340.4,155.0 341.2,157.8 342.1,152.5 342.9,155.3 343.7,150.3 344.5,152.8 345.3,148.8 346.1,150.3 346.9,147.2 347.8,148.5 348.6,145.3 349.4,146.5 350.2,143.2 351.0,144.5 351.8,141.0 352.6,144.3 353.4,139.7 354.3,143.7 355.1,130.3 355.9,137.9 356.7,120.3 357.5,122.0 358.3,114.9 359.1,113.1 360.0,106.0 360.8,105.6 361.6,103.2 362.4,103.2 363.2,103.5 364.0,107.7 364.8,111.4 365.7,116.7 366.5,118.0 367.3,123.6 368.1,127.9 368.9,129.5 369.7,134.0 370.5,137.5 371.3,137.5 372.2,142.7 373.0,146.1 373.8,146.2 374.6,150.4 375.4,153.6 376.2,153.9 377.0,157.9 377.9,157.7 378.7,161.5 379.5,163.1 380.3,165.2 381.1,166.4 381.9,168.6 382.7,169.7 383.6,171.8 384.4,172.8 385.2,174.6 386.0,175.7 386.8,177.3 387.6,178.4 388.4,179.7 389.3,180.7 390.1,181.1 390.9,181.3 391.7,181.8 392.5,182.1 393.3,183.0 394.1,183.8 394.9,184.6 395.8,185.4 396.6,186.1 397.4,186.9 398.2,187.6 399.0,188.3 399.8,188.9 400.6,189.6 401.5,190.2 402.3,190.9 403.1,191.4 403.9,192.0 404.7,192.5 405.5,193.1 406.3,193.5 407.2,194.0 408.0,194.4 408.8,195.0 409.6,195.3 410.4,195.8 411.2,196.1 412.0,196.6 412.8,196.9 413.7,197.4 414.5,197.6 415.3,198.1 416.1,198.3 416.9,198.7 417.7,198.9 418.5,199.3 419.4,199.5 420.2,199.8 421.0,200.0 421.8,200.4 422.6,200.5 423.4,200.8 424.2,200.9 425.1,201.2 425.9,201.2 426.7,201.5 427.5,201.6 428.3,201.9 429.1,202.1 429.9,202.6 430.7,202.8 431.6,203.3 432.4,203.9 433.2,204.5 434.0,205.1 434.8,205.7 435.6,206.0 436.4,206.1 437.3,205.9 438.1,205.9 438.9,205.7 439.7,205.7 440.5,205.5 441.3,205.4 442.1,205.2 443.0,205.1 443.8,204.8 444.6,204.7 445.4,204.4 446.2,204.4 447.0,204.0 447.8,203.8 448.7,203.3 449.5,203.1 450.3,202.6 451.1,202.4 451.9,201.9 452.7,201.6 453.5,201.0 454.3,200.7 455.2,200.1 456.0,199.7 456.8,199.0 457.6,198.6 458.4,197.9 459.2,197.5 460.0,196.7 460.9,196.2 461.7,195.4 462.5,194.8 463.3,193.9 464.1,195.0 464.9,196.4 465.7,197.2 466.6,198.2 467.4,198.6 468.2,199.3 469.0,199.6 469.8,200.1 470.6,200.2 471.4,200.7 472.2,200.6 473.1,201.0 473.9,200.9 474.7,201.2 475.5,201.0 476.3,201.3 477.1,201.1 477.9,202.0 478.8,201.8 479.6,202.5 480.4,202.3 481.2,203.0 482.0,202.7 482.8,203.3 483.6,202.9 484.5,203.6 485.3,203.1 486.1,203.7 486.9,203.2 487.7,203.8 488.5,203.3 489.3,203.9 490.2,203.3 491.0,203.9 491.8,203.3 492.6,203.9 493.4,203.2 494.2,203.8 495.0,203.1 495.8,203.7 496.7,203.0 497.5,203.6 498.3,202.8 499.1,203.4 499.9,202.6 500.7,203.4 501.5,202.4 502.4,203.9 503.2,202.6 504.0,204.0 504.8,202.5 505.6,203.8 506.4,202.3 507.2,203.6 508.1,201.9 508.9,203.3 509.7,201.5 510.5,202.9 511.3,201.1 512.1,202.5 512.9,200.6 513.7,202.0 514.6,200.0 515.4,201.5 516.2,199.4 517.0,200.9 517.8,198.7 518.6,200.3 519.4,198.0 520.3,199.6 521.1,197.3 521.9,198.9 522.7,196.5 523.5,198.1 524.3,195.6 525.1,197.2 526.0,194.7 526.8,196.3 527.6,193.7 528.4,195.3 529.2,192.6 530.0,194.3 530.8,191.4 531.7,193.1 532.5,190.2 533.3,191.9 534.1,188.9 534.9,190.6 535.7,187.5 536.5,189.2 537.3,186.0 538.2,187.7 539.0,184.4 539.8,186.2 540.6,182.8 541.4,184.5 542.2,181.0 543.0,182.8 543.9,179.2 544.7,180.9 545.5,177.2 546.3,179.0 547.1,175.2 547.9,176.9 548.7,173.1 549.6,174.8 550.4,171.0 551.2,172.5 552.0,169.5 552.8,170.3 553.6,167.8 554.4,168.4 555.2,165.8 556.1,166.3 556.9,163.5 557.7,164.0 558.5,161.2 559.3,161.6 560.1,158.7 560.9,159.1 561.8,156.2 562.6,156.6 563.4,153.7 564.2,154.1 565.0,151.3 565.8,151.7 566.6,148.9 567.5,149.3 568.3,146.6 569.1,147.0 569.9,144.4 570.7,144.9 571.5,142.8 572.3,143.4 573.1,142.3 574.0,142.8 574.8,143.4 575.6,143.3 576.4,142.7 577.2,141.1 578.0,139.7 578.8,137.6 579.7,137.6 580.5,136.1 581.3,135.8 582.1,136.7 582.9,139.2 583.7,142.2 584.5,145.1 585.4,147.5 586.2,150.1 587.0,152.4 587.8,154.9 588.6,157.0 589.4,159.4 590.2,161.4 591.1,163.7 591.9,165.5 592.7,167.7 593.5,169.5 594.3,171.4 595.1,173.1 595.9,174.9 596.7,176.5 597.6,178.1 598.4,179.5 599.2,181.0 600.0,182.3 600.8,183.3 601.6,182.3 602.4,182.4 603.3,183.0 604.1,183.5 604.9,184.1 605.7,184.6 606.5,184.9 607.3,185.3 608.1,185.6 609.0,186.1 609.8,186.6 610.6,187.2 611.4,187.8 612.2,188.4 613.0,188.9 613.8,189.5 614.6,190.1 615.5,190.6 616.3,191.2 617.1,191.7 617.9,192.3 618.7,192.8 619.5,193.3 620.3,193.8 621.2,194.3 622.0,194.8 622.8,195.2 623.6,195.7 624.4,196.1 625.2,196.6 626.0,197.0 626.9,197.4 627.7,197.8 628.5,198.2 629.3,198.5 630.1,198.9 630.9,199.2 631.7,199.6 632.6,199.9 633.4,200.2 634.2,200.5 635.0,200.8 635.8,201.1 636.6,201.4 637.4,201.6 638.2,201.9 639.1,202.1 639.9,202.4 640.7,202.6 641.5,202.8 642.3,203.0 643.1,203.3 643.9,203.4 644.8,203.6 645.6,203.8 646.4,204.0 647.2,204.2 648.0,204.3 648.8,204.5 649.6,204.7 650.5,204.8 651.3,204.9 652.1,205.1 652.9,205.2 653.7,205.3 654.5,205.5 655.3,205.6 656.1,205.2 657.0,204.8 657.8,204.6 658.6,204.6 659.4,205.1 660.2,206.0 661.0,208.1 661.8,208.8 662.7,208.2 663.5,207.1 664.3,206.0 665.1,205.1 665.9,204.8 666.7,205.9 667.5,207.0 668.4,207.0 669.2,206.9 670.0,206.9 670.8,205.9 671.6,205.4 672.4,208.1 673.2,209.4 674.1,209.3 674.9,208.2 675.7,207.4 676.5,206.8 677.3,206.7 678.1,206.6 678.9,206.9 679.7,206.9 680.6,207.3 681.4,207.4 682.2,207.8 683.0,207.9 683.8,208.2 684.6,208.1 685.4,208.2 686.3,208.1 687.1,208.1 687.9,207.9 688.7,208.0 689.5,207.8 690.3,207.9 691.1,207.8 692.0,207.9 692.8,207.8 693.6,207.9 694.4,207.9 695.2,208.0 696.0,207.9 696.8,208.1 697.6,208.0 698.5,208.1 699.3,208.0 700.1,208.1 700.9,208.0 701.7,208.1 702.5,208.0 703.3,208.0 704.2,207.9 705.0,208.0 705.8,207.9 706.6,208.0 707.4,207.9 708.2,208.0 709.0,207.9 709.9,207.9 710.7,207.8 711.5,207.9 712.3,207.8 713.1,207.9 713.9,207.8 714.7,207.9 715.5,207.8 716.4,207.9 717.2,207.8 718.0,207.9 718.8,207.7 719.6,207.8 720.4,207.7 721.2,207.8 722.1,207.7 722.9,207.8 723.7,207.7 724.5,207.8 725.3,207.7 726.1,207.8 726.9,207.6 727.8,207.7 728.6,207.6 729.4,207.7 730.2,207.6 731.0,207.7 731.8,207.6 732.6,207.7 733.5,207.6 734.3,207.7 735.1,207.6 735.9,207.7 736.7,207.6 737.5,207.7 738.3,207.6 739.1,207.7 740.0,207.5 740.8,207.7 741.6,207.5 742.4,207.6 743.2,207.5 744.0,207.6 744.8,207.5 745.7,207.6 746.5,207.5 747.3,207.6 748.1,207.5 748.9,207.6 749.7,207.5 750.5,207.6 751.4,207.5 752.2,207.6 753.0,207.5 753.8,207.6 754.6,207.5 755.4,207.7 756.2,207.6 757.0,207.7 757.9,207.6 758.7,207.7 759.5,207.6 760.3,207.7 761.1,207.6 761.9,207.7 762.7,207.6 763.6,207.7 764.4,207.6 765.2,207.7 766.0,207.6"/>
<line x1="606" y1="42" x2="628" y2="42" stroke="#0f62fe" stroke-width="2.2"/>
<text x="634" y="46" font-family="Arial" font-size="12">load_factor_g</text>
</svg>