<svg xmlns="http://www.w3.org/2000/svg" width="820" height="320" viewBox="0 0 820 320">
<rect width="100%" height="100%" fill="#ffffff"/>
<text x="54" y="28" font-family="Arial" font-size="18" font-weight="700">Mass</text>
<line x1="54" y1="266" x2="766" y2="266" stroke="#1f2933"/>
<line x1="54" y1="54" x2="54" y2="266" stroke="#1f2933"/>
<text x="54" y="306" font-family="Arial" font-size="12">time (s)</text>
<text x="596" y="306" font-family="Arial" font-size="12">mass (kg)</text>
<text x="58" y="68" font-family="Arial" font-size="11">11</text>
<text x="58" y="260" font-family="Arial" font-size="11">11</text>
<polyline fill="none" stroke="#0f62fe" stroke-width="2.2" points="54.0,54.0 54.8,54.1 55.6,54.2 56.4,54.4 57.3,54.6 58.1,54.8 58.9,55.1 59.7,55.3 60.5,55.6 61.3,55.9 62.1,56.2 63.0,56.5 63.8,56.8 64.6,57.1 65.4,57.4 66.2,57.7 67.0,58.0 67.8,58.4 68.6,58.7 69.5,59.0 70.3,59.3 71.1,59.6 71.9,60.0 72.7,60.3 73.5,60.6 74.3,60.9 75.2,61.2 76.0,61.5 76.8,61.9 77.6,62.2 78.4,62.5 79.2,62.8 80.0,63.1 80.9,63.5 81.7,63.8 82.5,64.1 83.3,64.4 84.1,64.7 84.9,65.1 85.7,65.4 86.5,65.7 87.4,66.0 88.2,66.3 89.0,66.6 89.8,67.0 90.6,67.3 91.4,67.6 92.2,67.9 93.1,68.2 93.9,68.5 94.7,68.9 95.5,69.2 96.3,69.5 97.1,69.8 97.9,70.1 98.8,70.5 99.6,70.8 100.4,71.1 101.2,71.4 102.0,71.7 102.8,72.0 103.6,72.4 104.5,72.7 105.3,73.0 106.1,73.3 106.9,73.6 107.7,74.0 108.5,74.3 109.3,74.6 110.1,74.9 111.0,75.2 111.8,75.6 112.6,75.9 113.4,76.2 114.2,76.5 115.0,76.8 115.8,77.2 116.7,77.5 117.5,77.8 118.3,78.1 119.1,78.5 119.9,78.8 120.7,79.1 121.5,79.4 122.4,79.7 123.2,80.1 124.0,80.4 124.8,80.7 125.6,81.0 126.4,81.4 127.2,81.7 128.0,82.0 128.9,82.3 129.7,82.7 130.5,83.0 131.3,83.3 132.1,83.6 132.9,84.0 133.7,84.3 134.6,84.6 135.4,84.9 136.2,85.2 137.0,85.5 137.8,85.8 138.6,86.1 139.4,86.4 140.3,86.7 141.1,87.0 141.9,87.3 142.7,87.6 143.5,87.9 144.3,88.2 145.1,88.5 145.9,88.8 146.8,89.1 147.6,89.4 148.4,89.6 149.2,89.9 150.0,90.2 150.8,90.5 151.6,90.8 152.5,91.0 153.3,91.3 154.1,91.6 154.9,91.8 155.7,92.1 156.5,92.4 157.3,92.6 158.2,92.9 159.0,93.1 159.8,93.4 160.6,93.7 161.4,93.9 162.2,94.2 163.0,94.4 163.9,94.7 164.7,94.9 165.5,95.2 166.3,95.4 167.1,95.7 167.9,95.9 168.7,96.2 169.5,96.4 170.4,96.6 171.2,96.9 172.0,97.1 172.8,97.4 173.6,97.6 174.4,97.8 175.2,98.1 176.1,98.3 176.9,98.5 177.7,98.8 178.5,99.0 179.3,99.2 180.1,99.5 180.9,99.7 181.8,99.9 182.6,100.2 183.4,100.4 184.2,100.6 185.0,100.8 185.8,101.1 186.6,101.3 187.4,101.5 188.3,101.7 189.1,102.0 189.9,102.2 190.7,102.4 191.5,102.6 192.3,102.8 193.1,103.1 194.0,103.3 194.8,103.5 195.6,103.7 196.4,103.9 197.2,104.2 198.0,104.4 198.8,104.6 199.7,104.8 200.5,105.0 201.3,105.2 202.1,105.5 202.9,105.7 203.7,105.9 204.5,106.1 205.4,106.3 206.2,106.5 207.0,106.7 207.8,107.0 208.6,107.2 209.4,107.4 210.2,107.6 211.0,107.8 211.9,108.0 212.7,108.3 213.5,108.5 214.3,108.7 215.1,108.9 215.9,109.1 216.7,109.3 217.6,109.5 218.4,109.8 219.2,110.0 220.0,110.2 220.8,110.4 221.6,110.6 222.4,110.8 223.3,111.0 224.1,111.3 224.9,111.5 225.7,111.7 226.5,111.9 227.3,112.1 228.1,112.3 228.9,112.6 229.8,112.8 230.6,113.0 231.4,113.2 232.2,113.4 233.0,113.6 233.8,113.8 234.6,114.1 235.5,114.3 236.3,114.5 237.1,114.7 237.9,114.9 238.7,115.1 239.5,115.4 240.3,115.6 241.2,115.8 242.0,116.0 242.8,116.2 243.6,116.5 244.4,116.7 245.2,116.9 246.0,117.1 246.9,117.3 247.7,117.6 248.5,117.8 249.3,118.0 250.1,118.2 250.9,118.5 251.7,118.7 252.5,118.9 253.4,119.2 254.2,119.4 255.0,119.6 255.8,119.8 256.6,120.1 257.4,120.3 258.2,120.5 259.1,120.8 259.9,121.0 260.7,121.2 261.5,121.5 262.3,121.7 263.1,122.0 263.9,122.2 264.8,122.4 265.6,122.7 266.4,122.9 267.2,123.2 268.0,123.4 268.8,123.6 269.6,123.9 270.4,124.1 271.3,124.4 272.1,124.6 272.9,124.9 273.7,125.1 274.5,125.4 275.3,125.6 276.1,125.9 277.0,126.1 277.8,126.4 278.6,126.6 279.4,126.9 280.2,127.1 281.0,127.4 281.8,127.6 282.7,127.9 283.5,128.2 284.3,128.4 285.1,128.7 285.9,128.9 286.7,129.2 287.5,129.5 288.3,129.7 289.2,130.0 290.0,130.2 290.8,130.5 291.6,130.8 292.4,131.0 293.2,131.3 294.0,131.6 294.9,131.8 295.7,132.1 296.5,132.4 297.3,132.6 298.1,132.9 298.9,133.2 299.7,133.4 300.6,133.7 301.4,134.0 302.2,134.3 303.0,134.5 303.8,134.8 304.6,135.1 305.4,135.4 306.3,135.6 307.1,135.9 307.9,136.2 308.7,136.5 309.5,136.7 310.3,137.0 311.1,137.3 311.9,137.6 312.8,137.8 313.6,138.1 314.4,138.4 315.2,138.7 316.0,139.0 316.8,139.2 317.6,139.5 318.5,139.8 319.3,140.1 320.1,140.4 320.9,140.6 321.7,140.9 322.5,141.2 323.3,141.5 324.2,141.8 325.0,142.1 325.8,142.3 326.6,142.6 327.4,142.9 328.2,143.2 329.0,143.5 329.8,143.8 330.7,144.1 331.5,144.3 332.3,144.6 333.1,144.9 333.9,145.2 334.7,145.5 335.5,145.8 336.4,146.1 337.2,146.4 338.0,146.6 338.8,146.9 339.6,147.2 340.4,147.5 341.2,147.8 342.1,148.1 342.9,148.4 343.7,148.7 344.5,148.9 345.3,149.2 346.1,149.5 346.9,149.8 347.8,150.1 348.6,150.4 349.4,150.7 350.2,151.0 351.0,151.2 351.8,151.5 352.6,151.8 353.4,152.1 354.3,152.4 355.1,152.7 355.9,153.0 356.7,153.2 357.5,153.5 358.3,153.8 359.1,154.1 360.0,154.4 360.8,154.7 361.6,154.9 362.4,155.2 363.2,155.5 364.0,155.8 364.8,156.1 365.7,156.3 366.5,156.6 367.3,156.9 368.1,157.1 368.9,157.4 369.7,157.7 370.5,157.9 371.3,158.2 372.2,158.4 373.0,158.7 373.8,159.0 374.6,159.2 375.4,159.5 376.2,159.7 377.0,160.0 377.9,160.2 378.7,160.5 379.5,160.7 380.3,161.0 381.1,161.2 381.9,161.5 382.7,161.7 383.6,162.0 384.4,162.2 385.2,162.4 386.0,162.7 386.8,162.9 387.6,163.2 388.4,163.4 389.3,163.6 390.1,163.9 390.9,164.1 391.7,164.3 392.5,164.6 393.3,164.8 394.1,165.0 394.9,165.3 395.8,165.5 396.6,165.7 397.4,165.9 398.2,166.2 399.0,166.4 399.8,166.6 400.6,166.8 401.5,167.1 402.3,167.3 403.1,167.5 403.9,167.7 404.7,168.0 405.5,168.2 406.3,168.4 407.2,168.6 408.0,168.8 408.8,169.1 409.6,169.3 410.4,169.5 411.2,169.7 412.0,169.9 412.8,170.1 413.7,170.4 414.5,170.6 415.3,170.8 416.1,171.0 416.9,171.2 417.7,171.4 418.5,171.6 419.4,171.9 420.2,172.1 421.0,172.3 421.8,172.5 422.6,172.7 423.4,172.9 424.2,173.1 425.1,173.3 425.9,173.6 426.7,173.8 427.5,174.0 428.3,174.2 429.1,174.4 429.9,174.6 430.7,174.8 431.6,175.0 432.4,175.2 433.2,175.5 434.0,175.7 434.8,175.9 435.6,176.1 436.4,176.3 437.3,176.5 438.1,176.7 438.9,176.9 439.7,177.1 440.5,177.3 441.3,177.6 442.1,177.8 443.0,178.0 443.8,178.2 444.6,178.4 445.4,178.6 446.2,178.8 447.0,179.0 447.8,179.2 448.7,179.4 449.5,179.7 450.3,179.9 451.1,180.1 451.9,180.3 452.7,180.5 453.5,180.7 454.3,180.9 455.2,181.1 456.0,181.3 456.8,181.5 457.6,181.8 458.4,182.0 459.2,182.2 460.0,182.4 460.9,182.6 461.7,182.8 462.5,183.0 463.3,183.2 464.1,183.5 464.9,183.7 465.7,183.9 466.6,184.1 467.4,184.3 468.2,184.5 469.0,184.7 469.8,184.9 470.6,185.2 471.4,185.4 472.2,185.6 473.1,185.8 473.9,186.0 474.7,186.2 475.5,186.5 476.3,186.7 477.1,186.9 477.9,187.1 478.8,187.3 479.6,187.6 480.4,187.8 481.2,188.0 482.0,188.2 482.8,188.4 483.6,188.7 484.5,188.9 485.3,189.1 486.1,189.3 486.9,189.6 487.7,189.8 488.5,190.0 489.3,190.3 490.2,190.5 491.0,190.7 491.8,191.0 492.6,191.2 493.4,191.4 494.2,191.7 495.0,191.9 495.8,192.1 496.7,192.4 497.5,192.6 498.3,192.8 499.1,193.1 499.9,193.3 500.7,193.5 501.5,193.8 502.4,194.0 503.2,194.3 504.0,194.5 504.8,194.8 505.6,195.0 506.4,195.2 507.2,195.5 508.1,195.7 508.9,196.0 509.7,196.2 510.5,196.5 511.3,196.7 512.1,197.0 512.9,197.2 513.7,197.5 514.6,197.7 515.4,198.0 516.2,198.2 517.0,198.5 517.8,198.7 518.6,199.0 519.4,199.2 520.3,199.5 521.1,199.7 521.9,200.0 522.7,200.3 523.5,200.5 524.3,200.8 525.1,201.0 526.0,201.3 526.8,201.6 527.6,201.8 528.4,202.1 529.2,202.3 530.0,202.6 530.8,202.9 531.7,203.1 532.5,203.4 533.3,203.6 534.1,203.9 534.9,204.2 535.7,204.4 536.5,204.7 537.3,205.0 538.2,205.2 539.0,205.5 539.8,205.8 540.6,206.0 541.4,206.3 542.2,206.6 543.0,206.8 543.9,207.1 544.7,207.4 545.5,207.6 546.3,207.9 547.1,208.2 547.9,208.4 548.7,208.7 549.6,209.0 550.4,209.2 551.2,209.5 552.0,209.8 552.8,210.1 553.6,210.3 554.4,210.6 555.2,210.9 556.1,211.1 556.9,211.4 557.7,211.7 558.5,212.0 559.3,212.2 560.1,212.5 560.9,212.8 561.8,213.0 562.6,213.3 563.4,213.6 564.2,213.8 565.0,214.1 565.8,214.4 566.6,214.6 567.5,214.9 568.3,215.2 569.1,215.5 569.9,215.7 570.7,216.0 571.5,216.3 572.3,216.5 573.1,216.8 574.0,217.0 574.8,217.3 575.6,217.6 576.4,217.8 577.2,218.1 578.0,218.4 578.8,218.6 579.7,218.9 580.5,219.1 581.3,219.4 582.1,219.6 582.9,219.9 583.7,220.2 584.5,220.4 585.4,220.7 586.2,220.9 587.0,221.1 587.8,221.4 588.6,221.6 589.4,221.9 590.2,222.1 591.1,222.4 591.9,222.6 592.7,222.9 593.5,223.1 594.3,223.3 595.1,223.6 595.9,223.8 596.7,224.0 597.6,224.3 598.4,224.5 599.2,224.8 600.0,225.0 600.8,225.2 601.6,225.4 602.4,225.7 603.3,225.9 604.1,226.1 604.9,226.4 605.7,226.6 606.5,226.8 607.3,227.0 608.1,227.3 609.0,227.5 609.8,227.7 610.6,227.9 611.4,228.2 612.2,228.4 613.0,228.6 613.8,228.8 614.6,229.0 615.5,229.2 616.3,229.5 617.1,229.7 617.9,229.9 618.7,230.1 619.5,230.3 620.3,230.5 621.2,230.8 622.0,231.0 622.8,231.2 623.6,231.4 624.4,231.6 625.2,231.8 626.0,232.0 626.9,232.2 627.7,232.4 628.5,232.6 629.3,232.8 630.1,233.1 630.9,233.3 631.7,233.5 632.6,233.7 633.4,233.9 634.2,234.1 635.0,234.3 635.8,234.5 636.6,234.7 637.4,234.9 638.2,235.1 639.1,235.3 639.9,235.5 640.7,235.7 641.5,235.9 642.3,236.1 643.1,236.3 643.9,236.5 644.8,236.7 645.6,236.9 646.4,237.1 647.2,237.3 648.0,237.5 648.8,237.7 649.6,237.9 650.5,238.1 651.3,238.3 652.1,238.5 652.9,238.7 653.7,238.9 654.5,239.1 655.3,239.3 656.1,239.5 657.0,239.7 657.8,239.9 658.6,240.1 659.4,240.3 660.2,240.5 661.0,240.7 661.8,240.9 662.7,241.1 663.5,241.3 664.3,241.5 665.1,241.7 665.9,241.9 666.7,242.1 667.5,242.3 668.4,242.5 669.2,242.7 670.0,242.9 670.8,243.1 671.6,243.3 672.4,243.5 673.2,243.7 674.1,243.9 674.9,244.1 675.7,244.3 676.5,244.5 677.3,244.7 678.1,244.9 678.9,245.1 679.7,245.3 680.6,245.5 681.4,245.7 682.2,245.9 683.0,246.1 683.8,246.3 684.6,246.4 685.4,246.6 686.3,246.8 687.1,247.0 687.9,247.2 688.7,247.4 689.5,247.6 690.3,247.8 691.1,248.0 692.0,248.2 692.8,248.4 693.6,248.6 694.4,248.8 695.2,249.0 696.0,249.2 696.8,249.4 697.6,249.6 698.5,249.8 699.3,250.0 700.1,250.2 700.9,250.4 701.7,250.6 702.5,250.8 703.3,251.0 704.2,251.2 705.0,251.4 705.8,251.6 706.6,251.8 707.4,252.0 708.2,252.2 709.0,252.3 709.9,252.5 710.7,252.7 711.5,252.9 712.3,253.1 713.1,253.3 713.9,253.5 714.7,253.7 715.5,253.9 716.4,254.1 717.2,254.3 718.0,254.5 718.8,254.7 719.6,254.9 720.4,255.1 721.2,255.3 722.1,255.5 722.9,255.7 723.7,255.9 724.5,256.1 725.3,256.3 726.1,256.5 726.9,256.7 727.8,256.9 728.6,257.1 729.4,257.2 730.2,257.4 731.0,257.6 731.8,257.8 732.6,258.0 733.5,258.2 734.3,258.4 735.1,258.6 735.9,258.8 736.7,259.0 737.5,259.2 738.3,259.4 739.1,259.6 740.0,259.8 740.8,260.0 741.6,260.2 742.4,260.4 743.2,260.6 744.0,260.8 744.8,261.0 745.7,261.2 746.5,261.3 747.3,261.5 748.1,261.7 748.9,261.9 749.7,262.1 750.5,262.3 751.4,262.5 752.2,262.7 753.0,262.9 753.8,263.1 754.6,263.3 755.4,263.5 756.2,263.7 757.0,263.9 757.9,264.1 758.7,264.3 759.5,264.5 760.3,264.6 761.1,264.8 761.9,265.0 762.7,265.2 763.6,265.4 764.4,265.6 765.2,265.8 766.0,266.0"/>
<line x1="606" y1="42" x2="628" y2="42" stroke="#0f62fe" stroke-width="2.2"/>
<text x="634" y="46" font-family="Arial" font-size="12">mass_kg</text>
</svg>