<svg xmlns="http://www.w3.org/2000/svg" width="820" height="320" viewBox="0 0 820 320">
<rect width="100%" height="100%" fill="#ffffff"/>
<text x="54" y="28" font-family="Arial" font-size="18" font-weight="700">Control Surfaces</text>
<line x1="54" y1="266" x2="766" y2="266" stroke="#1f2933"/>
<line x1="54" y1="54" x2="54" y2="266" stroke="#1f2933"/>
<text x="54" y="306" font-family="Arial" font-size="12">time (s)</text>
<text x="596" y="306" font-family="Arial" font-size="12">deflection (deg)</text>
<text x="58" y="68" font-family="Arial" font-size="11">22</text>
<text x="58" y="260" font-family="Arial" font-size="11">-22</text>
<polyline fill="none" stroke="#0f62fe" stroke-width="2.2" points="54.0,136.9 54.8,153.0 55.6,158.0 56.4,154.8 57.3,152.8 58.1,155.7 58.9,152.8 59.7,158.6 60.5,153.0 61.3,157.0 62.1,152.1 63.0,161.7 63.8,153.0 64.6,158.1 65.4,151.6 66.2,165.3 67.0,152.5 67.8,157.4 68.6,153.8 69.5,167.9 70.3,149.1 71.1,155.6 71.9,158.7 72.7,155.4 73.5,157.6 74.3,149.3 75.2,169.8 76.0,146.6 76.8,156.5 77.6,139.1 78.4,162.2 79.2,155.9 80.0,142.3 80.9,165.4 81.7,149.4 82.5,134.2 83.3,157.3 84.1,163.0 84.9,139.8 85.7,143.9 86.5,153.6 87.4,155.7 88.2,155.0 89.0,151.4 89.8,151.1 90.6,150.1 91.4,152.2 92.2,152.8 93.1,154.6 93.9,154.2 94.7,154.9 95.5,153.9 96.3,154.6 97.1,154.0 97.9,155.0 98.8,154.6 99.6,155.6 100.4,155.1 101.2,155.9 102.0,155.4 102.8,156.2 103.6,155.8 104.5,156.7 105.3,156.4 106.1,157.2 106.9,157.0 107.7,157.8 108.5,157.7 109.3,158.5 110.1,158.5 111.0,159.3 111.8,159.4 112.6,160.3 113.4,160.5 114.2,161.5 115.0,161.8 115.8,162.9 116.7,163.4 117.5,164.6 118.3,165.3 119.1,166.6 119.9,167.6 120.7,169.1 121.5,170.3 122.4,171.9 123.2,173.5 124.0,181.4 124.8,180.3 125.6,196.9 126.4,188.3 127.2,211.5 128.0,199.3 128.9,219.5 129.7,196.6 130.5,219.8 131.3,225.5 132.1,212.0 132.9,225.7 133.7,227.9 134.6,227.2 135.4,227.6 136.2,228.4 137.0,230.0 137.8,231.4 138.6,232.7 139.4,234.1 140.3,235.2 141.1,236.2 141.9,236.8 142.7,237.6 143.5,238.1 144.3,238.4 145.1,238.6 145.9,238.8 146.8,239.0 147.6,238.8 148.4,238.9 149.2,238.9 150.0,239.1 150.8,239.0 151.6,239.1 152.5,239.2 153.3,239.3 154.1,239.3 154.9,239.4 155.7,239.4 156.5,239.5 157.3,239.5 158.2,239.5 159.0,239.5 159.8,239.5 160.6,239.5 161.4,239.5 162.2,239.5 163.0,236.8 163.9,237.0 164.7,233.2 165.5,235.9 166.3,233.0 167.1,236.1 167.9,233.2 168.7,235.9 169.5,233.5 170.4,235.5 171.2,233.7 172.0,235.0 172.8,233.9 173.6,234.7 174.4,234.1 175.2,234.5 176.1,234.1 176.9,234.3 177.7,234.1 178.5,234.1 179.3,234.0 180.1,233.9 180.9,233.9 181.8,233.8 182.6,233.8 183.4,233.7 184.2,233.8 185.0,233.7 185.8,233.9 186.6,234.1 187.4,234.5 188.3,234.7 189.1,234.9 189.9,234.8 190.7,234.8 191.5,234.6 192.3,234.4 193.1,234.1 194.0,234.0 194.8,233.8 195.6,233.8 196.4,233.7 197.2,233.9 198.0,233.9 198.8,234.2 199.7,234.2 200.5,234.5 201.3,234.5 202.1,234.6 202.9,234.6 203.7,234.7 204.5,234.6 205.4,234.6 206.2,234.4 207.0,234.5 207.8,234.4 208.6,234.4 209.4,234.4 210.2,234.5 211.0,234.5 211.9,234.7 212.7,234.6 213.5,234.7 214.3,234.6 215.1,234.7 215.9,234.6 216.7,234.6 217.6,234.5 218.4,234.6 219.2,234.5 220.0,234.6 220.8,234.5 221.6,234.7 222.4,234.6 223.3,234.7 224.1,234.6 224.9,234.8 225.7,234.7 226.5,234.8 227.3,234.7 228.1,234.8 228.9,234.7 229.8,234.8 230.6,234.7 231.4,234.8 232.2,234.7 233.0,234.8 233.8,234.7 234.6,234.8 235.5,234.7 236.3,234.2 237.1,233.1 237.9,232.0 238.7,230.7 239.5,229.5 240.3,228.3 241.2,227.3 242.0,226.3 242.8,225.4 243.6,224.5 244.4,223.7 245.2,222.9 246.0,222.2 246.9,221.4 247.7,220.7 248.5,220.0 249.3,219.4 250.1,218.7 250.9,218.1 251.7,217.5 252.5,217.0 253.4,216.4 254.2,215.9 255.0,215.4 255.8,214.9 256.6,214.4 257.4,214.0 258.2,213.5 259.1,213.1 259.9,212.6 260.7,212.2 261.5,211.7 262.3,211.3 263.1,210.9 263.9,210.5 264.8,210.0 265.6,209.7 266.4,209.2 267.2,208.8 268.0,208.3 268.8,207.7 269.6,207.1 270.4,206.6 271.3,206.1 272.1,205.6 272.9,205.3 273.7,204.8 274.5,204.5 275.3,204.1 276.1,203.8 277.0,203.5 277.8,203.2 278.6,202.9 279.4,202.6 280.2,202.3 281.0,202.1 281.8,201.8 282.7,201.6 283.5,201.3 284.3,201.1 285.1,200.8 285.9,200.7 286.7,200.4 287.5,200.3 288.3,200.1 289.2,199.9 290.0,199.7 290.8,199.6 291.6,199.4 292.4,199.3 293.2,199.2 294.0,199.1 294.9,199.0 295.7,198.9 296.5,198.8 297.3,198.7 298.1,198.7 298.9,198.6 299.7,198.6 300.6,198.5 301.4,198.5 302.2,198.5 303.0,198.5 303.8,198.5 304.6,198.5 305.4,198.6 306.3,198.6 307.1,198.6 307.9,198.7 308.7,198.8 309.5,198.9 310.3,199.0 311.1,199.1 311.9,199.2 312.8,199.3 313.6,199.4 314.4,199.6 315.2,199.7 316.0,200.0 316.8,200.1 317.6,200.3 318.5,200.5 319.3,200.8 320.1,200.9 320.9,201.2 321.7,201.4 322.5,201.8 323.3,202.0 324.2,202.3 325.0,202.5 325.8,202.9 326.6,203.2 327.4,203.6 328.2,203.8 329.0,204.3 329.8,204.5 330.7,205.0 331.5,205.2 332.3,205.8 333.1,206.0 333.9,206.6 334.7,206.8 335.5,207.4 336.4,207.6 337.2,208.2 338.0,208.4 338.8,209.1 339.6,209.3 340.4,209.9 341.2,210.2 342.1,210.8 342.9,211.0 343.7,211.7 344.5,211.9 345.3,212.6 346.1,212.6 346.9,213.3 347.8,213.3 348.6,214.0 349.4,214.0 350.2,214.7 351.0,214.7 351.8,215.4 352.6,218.7 353.4,219.4 354.3,225.9 355.1,219.0 355.9,231.4 356.7,220.9 357.5,229.9 358.3,230.5 359.1,230.3 360.0,228.7 360.8,231.2 361.6,232.5 362.4,234.1 363.2,235.4 364.0,236.6 364.8,237.5 365.7,238.1 366.5,232.8 367.3,238.8 368.1,240.1 368.9,235.3 369.7,239.9 370.5,240.6 371.3,230.9 372.2,239.0 373.0,241.7 373.8,232.0 374.6,238.3 375.4,242.2 376.2,233.4 377.0,241.5 377.9,229.9 378.7,238.3 379.5,236.0 380.3,238.0 381.1,234.1 381.9,237.6 382.7,233.4 383.6,237.6 384.4,233.3 385.2,237.4 386.0,233.5 386.8,237.0 387.6,233.8 388.4,236.5 389.3,234.2 390.1,236.2 390.9,234.5 391.7,235.9 392.5,234.6 393.3,235.6 394.1,234.6 394.9,235.4 395.8,234.6 396.6,235.2 397.4,234.6 398.2,235.1 399.0,234.6 399.8,235.0 400.6,234.6 401.5,234.9 402.3,234.5 403.1,234.8 403.9,234.5 404.7,234.7 405.5,234.4 406.3,234.6 407.2,234.4 408.0,234.5 408.8,234.3 409.6,234.4 410.4,234.3 411.2,234.3 412.0,234.2 412.8,234.3 413.7,234.1 414.5,234.2 415.3,234.1 416.1,234.1 416.9,234.0 417.7,234.0 418.5,234.0 419.4,234.0 420.2,233.9 421.0,233.9 421.8,233.9 422.6,233.8 423.4,233.8 424.2,233.8 425.1,233.8 425.9,233.7 426.7,233.8 427.5,233.8 428.3,234.0 429.1,234.1 429.9,234.3 430.7,234.3 431.6,234.3 432.4,234.3 433.2,234.2 434.0,234.1 434.8,234.0 435.6,233.9 436.4,233.9 437.3,233.8 438.1,233.9 438.9,234.0 439.7,234.1 440.5,234.2 441.3,234.3 442.1,234.3 443.0,234.4 443.8,234.4 444.6,234.5 445.4,234.4 446.2,235.7 447.0,235.6 447.8,235.2 448.7,234.8 449.5,234.8 450.3,234.7 451.1,234.8 451.9,234.8 452.7,234.8 453.5,234.8 454.3,234.9 455.2,234.8 456.0,234.9 456.8,234.8 457.6,234.9 458.4,234.8 459.2,234.8 460.0,234.7 460.9,234.8 461.7,234.8 462.5,234.8 463.3,234.8 464.1,234.9 464.9,234.4 465.7,233.6 466.6,232.5 467.4,231.4 468.2,230.2 469.0,229.2 469.8,228.2 470.6,227.3 471.4,226.4 472.2,225.6 473.1,224.8 473.9,224.1 474.7,223.4 475.5,222.7 476.3,222.1 477.1,221.5 477.9,220.8 478.8,220.3 479.6,219.7 480.4,219.1 481.2,218.6 482.0,218.1 482.8,217.6 483.6,217.2 484.5,216.7 485.3,216.3 486.1,215.9 486.9,215.5 487.7,215.1 488.5,214.7 489.3,214.3 490.2,214.0 491.0,213.6 491.8,213.2 492.6,212.9 493.4,212.6 494.2,212.2 495.0,211.9 495.8,211.6 496.7,211.3 497.5,210.9 498.3,210.7 499.1,210.3 499.9,210.1 500.7,209.8 501.5,209.5 502.4,209.2 503.2,208.7 504.0,208.3 504.8,207.9 505.6,207.6 506.4,207.3 507.2,207.1 508.1,206.8 508.9,206.6 509.7,206.3 510.5,206.2 511.3,205.9 512.1,205.8 512.9,205.6 513.7,205.5 514.6,205.3 515.4,205.3 516.2,205.1 517.0,205.1 517.8,204.9 518.6,204.9 519.4,204.8 520.3,204.8 521.1,204.7 521.9,204.7 522.7,204.7 523.5,204.7 524.3,204.7 525.1,204.7 526.0,204.7 526.8,204.8 527.6,204.8 528.4,204.9 529.2,204.9 530.0,205.1 530.8,205.1 531.7,205.3 532.5,205.4 533.3,205.5 534.1,205.7 534.9,205.9 535.7,206.1 536.5,206.2 537.3,206.5 538.2,206.7 539.0,206.9 539.8,207.2 540.6,207.4 541.4,207.7 542.2,208.0 543.0,208.3 543.9,208.6 544.7,208.9 545.5,209.3 546.3,209.6 547.1,210.1 547.9,210.4 548.7,210.9 549.6,211.2 550.4,211.7 551.2,212.1 552.0,212.6 552.8,212.9 553.6,213.4 554.4,213.7 555.2,214.2 556.1,214.5 556.9,215.1 557.7,215.4 558.5,216.1 559.3,216.4 560.1,217.1 560.9,217.5 561.8,218.2 562.6,218.6 563.4,219.4 564.2,219.8 565.0,220.6 565.8,221.0 566.6,221.9 567.5,222.3 568.3,223.2 569.1,223.6 569.9,224.5 570.7,224.9 571.5,225.9 572.3,226.2 573.1,227.2 574.0,227.6 574.8,231.9 575.6,232.4 576.4,234.6 577.2,234.4 578.0,233.9 578.8,233.9 579.7,234.1 580.5,234.7 581.3,235.4 582.1,236.4 582.9,237.2 583.7,238.0 584.5,238.4 585.4,238.8 586.2,238.9 587.0,239.1 587.8,239.2 588.6,239.4 589.4,239.4 590.2,239.5 591.1,239.6 591.9,239.7 592.7,239.7 593.5,239.8 594.3,239.8 595.1,239.9 595.9,239.9 596.7,239.9 597.6,239.9 598.4,240.0 599.2,239.9 600.0,240.0 600.8,240.0 601.6,240.0 602.4,240.0 603.3,240.1 604.1,240.1 604.9,240.2 605.7,240.2 606.5,238.7 607.3,237.7 608.1,236.1 609.0,236.2 609.8,235.5 610.6,235.9 611.4,235.5 612.2,235.9 613.0,235.5 613.8,235.9 614.6,235.5 615.5,235.8 616.3,235.4 617.1,235.7 617.9,235.5 618.7,235.7 619.5,235.5 620.3,235.7 621.2,235.5 622.0,235.7 622.8,235.4 623.6,235.6 624.4,235.4 625.2,235.6 626.0,235.4 626.9,235.6 627.7,235.4 628.5,235.6 629.3,235.4 630.1,235.5 630.9,235.4 631.7,235.5 632.6,235.4 633.4,235.5 634.2,235.4 635.0,235.5 635.8,235.4 636.6,235.5 637.4,235.3 638.2,235.4 639.1,235.3 639.9,235.4 640.7,235.3 641.5,235.4 642.3,235.3 643.1,235.4 643.9,235.3 644.8,235.3 645.6,235.2 646.4,235.3 647.2,235.2 648.0,235.2 648.8,235.1 649.6,235.2 650.5,235.1 651.3,235.1 652.1,235.1 652.9,235.1 653.7,235.0 654.5,235.1 655.3,235.0 656.1,232.0 657.0,227.2 657.8,221.9 658.6,223.0 659.4,231.2 660.2,242.8 661.0,253.7 661.8,253.6 662.7,245.4 663.5,234.7 664.3,224.7 665.1,216.1 665.9,217.4 666.7,226.3 667.5,233.2 668.4,233.5 669.2,233.1 670.0,233.3 670.8,233.7 671.6,241.4 672.4,254.1 673.2,254.6 674.1,248.4 674.9,238.0 675.7,230.9 676.5,227.8 677.3,228.3 678.1,230.3 678.9,233.7 679.7,236.9 680.6,240.3 681.4,242.8 682.2,244.5 683.0,244.8 683.8,244.3 684.6,242.9 685.4,241.3 686.3,239.5 687.1,238.1 687.9,236.7 688.7,235.9 689.5,235.3 690.3,235.4 691.1,235.6 692.0,236.2 692.8,236.7 693.6,237.5 694.4,237.9 695.2,238.5 696.0,238.8 696.8,239.1 697.6,239.1 698.5,239.2 699.3,239.0 700.1,239.0 700.9,238.7 701.7,238.6 702.5,238.3 703.3,238.3 704.2,238.1 705.0,238.1 705.8,238.0 706.6,238.1 707.4,238.0 708.2,238.2 709.0,238.2 709.9,238.4 710.7,238.4 711.5,238.5 712.3,238.5 713.1,238.7 713.9,238.6 714.7,238.8 715.5,238.7 716.4,238.8 717.2,238.7 718.0,238.8 718.8,238.7 719.6,238.8 720.4,238.7 721.2,238.8 722.1,238.7 722.9,238.8 723.7,238.7 724.5,238.9 725.3,238.8 726.1,238.9 726.9,238.8 727.8,238.9 728.6,238.9 729.4,239.0 730.2,238.9 731.0,239.0 731.8,238.9 732.6,239.0 733.5,239.0 734.3,239.0 735.1,239.0 735.9,239.1 736.7,239.0 737.5,239.1 738.3,239.0 739.1,239.1 740.0,239.0 740.8,239.1 741.6,239.0 742.4,239.1 743.2,239.0 744.0,239.1 744.8,239.0 745.7,239.1 746.5,239.0 747.3,239.1 748.1,239.0 748.9,239.1 749.7,239.0 750.5,239.1 751.4,239.0 752.2,239.1 753.0,239.0 753.8,239.1 754.6,239.0 755.4,239.1 756.2,239.0 757.0,239.1 757.9,239.0 758.7,239.0 759.5,239.0 760.3,239.0 761.1,239.0 761.9,239.0 762.7,238.9 763.6,239.0 764.4,238.9 765.2,239.0 766.0,238.9"/>
<line x1="606" y1="42" x2="628" y2="42" stroke="#0f62fe" stroke-width="2.2"/>
<text x="634" y="46" font-family="Arial" font-size="12">elevator_deg</text>
<polyline fill="none" stroke="#24a148" stroke-width="2.2" points="54.0,160.0 54.8,136.9 55.6,160.0 56.4,142.7 57.3,165.8 58.1,142.7 58.9,165.8 59.7,142.7 60.5,165.8 61.3,142.7 62.1,165.8 63.0,142.7 63.8,165.8 64.6,142.7 65.4,165.8 66.2,142.7 67.0,165.8 67.8,142.7 68.6,165.8 69.5,142.7 70.3,165.8 71.1,142.7 71.9,165.8 72.7,152.1 73.5,175.2 74.3,154.0 75.2,177.1 76.0,154.4 76.8,177.5 77.6,154.4 78.4,177.6 79.2,154.5 80.0,177.6 80.9,154.5 81.7,177.6 82.5,154.5 83.3,177.6 84.1,154.5 84.9,177.6 85.7,166.5 86.5,189.6 87.4,166.5 88.2,189.6 89.0,166.5 89.8,189.6 90.6,166.5 91.4,189.6 92.2,166.5 93.1,189.6 93.9,166.5 94.7,189.6 95.5,166.5 96.3,189.6 97.1,166.5 97.9,189.6 98.8,166.5 99.6,189.6 100.4,166.5 101.2,189.6 102.0,166.5 102.8,189.6 103.6,166.5 104.5,189.6 105.3,166.5 106.1,189.6 106.9,166.5 107.7,189.6 108.5,166.5 109.3,189.6 110.1,166.5 111.0,189.6 111.8,166.5 112.6,189.6 113.4,166.5 114.2,189.6 115.0,166.5 115.8,189.6 116.7,166.5 117.5,189.6 118.3,166.5 119.1,189.6 119.9,166.5 120.7,189.6 121.5,166.5 122.4,189.6 123.2,166.5 124.0,189.6 124.8,166.5 125.6,189.6 126.4,166.5 127.2,189.6 128.0,166.5 128.9,189.6 129.7,166.5 130.5,189.6 131.3,166.5 132.1,189.6 132.9,166.5 133.7,189.6 134.6,166.5 135.4,189.6 136.2,166.5 137.0,160.3 137.8,178.4 138.6,155.2 139.4,178.4 140.3,155.2 141.1,178.4 141.9,155.2 142.7,134.6 143.5,157.7 144.3,134.6 145.1,157.7 145.9,134.6 146.8,157.7 147.6,134.6 148.4,157.7 149.2,134.6 150.0,157.7 150.8,134.6 151.6,157.7 152.5,134.6 153.3,156.3 154.1,133.2 154.9,155.7 155.7,132.6 156.5,145.0 157.3,121.9 158.2,145.0 159.0,121.9 159.8,145.0 160.6,121.9 161.4,145.0 162.2,121.9 163.0,145.0 163.9,121.9 164.7,145.0 165.5,121.9 166.3,145.0 167.1,121.9 167.9,145.0 168.7,121.9 169.5,145.0 170.4,122.8 171.2,145.9 172.0,122.8 172.8,145.9 173.6,122.8 174.4,145.9 175.2,123.6 176.1,146.7 176.9,123.6 177.7,146.7 178.5,123.6 179.3,146.7 180.1,123.6 180.9,146.7 181.8,124.0 182.6,147.1 183.4,124.0 184.2,147.1 185.0,124.0 185.8,147.1 186.6,124.0 187.4,147.1 188.3,124.0 189.1,147.1 189.9,124.0 190.7,147.1 191.5,124.0 192.3,147.1 193.1,124.0 194.0,147.1 194.8,125.3 195.6,148.4 196.4,126.1 197.2,149.2 198.0,126.7 198.8,149.9 199.7,126.7 200.5,149.9 201.3,127.8 202.1,151.0 202.9,127.8 203.7,151.0 204.5,128.7 205.4,151.8 206.2,129.3 207.0,152.5 207.8,130.7 208.6,153.8 209.4,130.7 210.2,153.8 211.0,130.7 211.9,153.8 212.7,130.7 213.5,153.8 214.3,130.7 215.1,153.8 215.9,130.7 216.7,153.8 217.6,130.7 218.4,153.8 219.2,130.7 220.0,153.8 220.8,130.7 221.6,153.8 222.4,130.7 223.3,153.8 224.1,130.7 224.9,153.8 225.7,130.7 226.5,153.8 227.3,130.7 228.1,153.8 228.9,130.7 229.8,153.8 230.6,130.7 231.4,153.8 232.2,130.7 233.0,153.8 233.8,130.7 234.6,153.8 235.5,130.7 236.3,153.8 237.1,130.7 237.9,153.8 238.7,130.7 239.5,153.8 240.3,130.7 241.2,153.8 242.0,130.7 242.8,153.8 243.6,130.7 244.4,153.8 245.2,130.7 246.0,153.8 246.9,130.7 247.7,153.8 248.5,130.7 249.3,153.8 250.1,130.7 250.9,153.8 251.7,130.7 252.5,153.8 253.4,130.7 254.2,153.8 255.0,130.7 255.8,153.8 256.6,130.7 257.4,153.8 258.2,130.7 259.1,153.8 259.9,130.7 260.7,153.8 261.5,130.7 262.3,153.8 263.1,130.7 263.9,153.8 264.8,130.7 265.6,153.8 266.4,130.7 267.2,153.8 268.0,130.7 268.8,153.8 269.6,130.7 270.4,153.8 271.3,130.7 272.1,153.8 272.9,130.7 273.7,153.8 274.5,130.7 275.3,153.8 276.1,130.7 277.0,153.8 277.8,130.7 278.6,153.8 279.4,130.7 280.2,153.8 281.0,130.7 281.8,153.8 282.7,130.7 283.5,153.8 284.3,130.7 285.1,153.8 285.9,130.7 286.7,153.8 287.5,130.7 288.3,153.8 289.2,130.7 290.0,153.8 290.8,130.7 291.6,153.8 292.4,130.7 293.2,153.8 294.0,130.7 294.9,153.8 295.7,130.7 296.5,153.8 297.3,130.7 298.1,153.8 298.9,130.7 299.7,153.8 300.6,130.7 301.4,153.8 302.2,130.7 303.0,153.8 303.8,130.7 304.6,153.8 305.4,130.7 306.3,153.8 307.1,130.7 307.9,153.8 308.7,130.7 309.5,153.8 310.3,130.7 311.1,153.8 311.9,130.7 312.8,153.8 313.6,130.7 314.4,153.8 315.2,130.7 316.0,153.8 316.8,130.7 317.6,153.8 318.5,130.7 319.3,153.8 320.1,130.7 320.9,153.8 321.7,130.7 322.5,153.8 323.3,130.7 324.2,153.8 325.0,130.7 325.8,153.8 326.6,130.7 327.4,153.8 328.2,130.7 329.0,153.8 329.8,130.7 330.7,153.8 331.5,130.7 332.3,153.8 333.1,130.7 333.9,153.8 334.7,130.7 335.5,153.8 336.4,130.7 337.2,153.8 338.0,130.7 338.8,153.8 339.6,130.7 340.4,153.8 341.2,130.7 342.1,153.8 342.9,130.7 343.7,153.8 344.5,130.7 345.3,153.8 346.1,130.7 346.9,153.8 347.8,130.7 348.6,153.8 349.4,130.7 350.2,153.8 351.0,130.7 351.8,153.8 352.6,130.7 353.4,153.8 354.3,130.7 355.1,153.8 355.9,130.7 356.7,153.8 357.5,130.7 358.3,153.8 359.1,130.7 360.0,153.8 360.8,130.7 361.6,153.8 362.4,157.1 363.2,156.5 364.0,171.0 364.8,147.9 365.7,171.0 366.5,147.9 367.3,171.0 368.1,147.9 368.9,171.0 369.7,151.2 370.5,174.4 371.3,153.8 372.2,176.9 373.0,153.8 373.8,176.9 374.6,164.5 375.4,187.7 376.2,164.5 377.0,187.7 377.9,164.5 378.7,187.7 379.5,164.5 380.3,187.7 381.1,164.5 381.9,187.7 382.7,164.5 383.6,187.7 384.4,166.6 385.2,189.7 386.0,166.6 386.8,189.7 387.6,172.0 388.4,195.1 389.3,172.0 390.1,195.1 390.9,172.0 391.7,195.1 392.5,172.0 393.3,195.1 394.1,172.0 394.9,195.1 395.8,172.0 396.6,195.1 397.4,173.3 398.2,196.4 399.0,173.3 399.8,196.4 400.6,173.3 401.5,196.4 402.3,173.3 403.1,196.4 403.9,173.3 404.7,196.4 405.5,173.3 406.3,196.4 407.2,173.3 408.0,196.4 408.8,173.3 409.6,196.4 410.4,173.3 411.2,196.4 412.0,173.3 412.8,196.4 413.7,173.3 414.5,196.4 415.3,173.3 416.1,196.4 416.9,173.3 417.7,196.4 418.5,173.3 419.4,196.4 420.2,173.3 421.0,196.4 421.8,173.3 422.6,196.4 423.4,173.3 424.2,196.4 425.1,173.3 425.9,196.4 426.7,173.3 427.5,196.4 428.3,173.3 429.1,196.4 429.9,173.3 430.7,196.4 431.6,173.3 432.4,196.4 433.2,173.3 434.0,196.4 434.8,173.3 435.6,194.3 436.4,171.2 437.3,194.3 438.1,171.2 438.9,193.5 439.7,170.4 440.5,193.5 441.3,170.4 442.1,191.9 443.0,168.8 443.8,191.9 444.6,168.8 445.4,191.6 446.2,168.5 447.0,189.1 447.8,166.0 448.7,189.1 449.5,166.0 450.3,189.1 451.1,166.0 451.9,188.2 452.7,165.1 453.5,188.2 454.3,165.1 455.2,188.2 456.0,165.1 456.8,188.2 457.6,165.1 458.4,188.2 459.2,165.1 460.0,188.2 460.9,165.1 461.7,188.2 462.5,165.1 463.3,188.2 464.1,165.1 464.9,188.2 465.7,165.1 466.6,188.2 467.4,165.1 468.2,188.2 469.0,165.1 469.8,188.2 470.6,165.1 471.4,188.2 472.2,165.1 473.1,188.2 473.9,165.1 474.7,188.2 475.5,165.1 476.3,188.2 477.1,165.1 477.9,188.2 478.8,165.1 479.6,188.2 480.4,165.1 481.2,188.2 482.0,165.1 482.8,188.2 483.6,165.1 484.5,188.2 485.3,165.1 486.1,188.2 486.9,165.1 487.7,188.2 488.5,165.1 489.3,188.2 490.2,165.1 491.0,188.2 491.8,165.1 492.6,188.2 493.4,165.1 494.2,188.2 495.0,165.1 495.8,188.2 496.7,165.1 497.5,188.2 498.3,165.1 499.1,188.2 499.9,165.1 500.7,188.2 501.5,165.1 502.4,188.2 503.2,165.1 504.0,188.2 504.8,165.1 505.6,188.2 506.4,165.1 507.2,188.2 508.1,165.1 508.9,188.2 509.7,165.1 510.5,188.2 511.3,165.1 512.1,188.2 512.9,165.1 513.7,188.2 514.6,165.1 515.4,188.2 516.2,165.1 517.0,188.2 517.8,165.1 518.6,188.2 519.4,165.1 520.3,188.2 521.1,165.1 521.9,188.2 522.7,165.1 523.5,188.2 524.3,165.1 525.1,188.2 526.0,165.1 526.8,188.2 527.6,165.1 528.4,188.2 529.2,165.1 530.0,188.2 530.8,165.1 531.7,188.2 532.5,165.1 533.3,188.2 534.1,165.1 534.9,188.2 535.7,165.1 536.5,188.2 537.3,165.1 538.2,188.2 539.0,165.1 539.8,188.2 540.6,165.1 541.4,188.2 542.2,165.1 543.0,188.2 543.9,165.1 544.7,188.2 545.5,165.1 546.3,188.2 547.1,165.1 547.9,188.2 548.7,165.1 549.6,188.2 550.4,165.1 551.2,188.2 552.0,165.1 552.8,188.2 553.6,165.1 554.4,188.2 555.2,165.1 556.1,188.2 556.9,165.1 557.7,188.2 558.5,165.1 559.3,188.2 560.1,165.1 560.9,188.2 561.8,165.1 562.6,188.2 563.4,165.1 564.2,188.2 565.0,165.1 565.8,188.2 566.6,165.1 567.5,188.2 568.3,165.1 569.1,188.2 569.9,165.1 570.7,188.2 571.5,165.1 572.3,188.2 573.1,165.1 574.0,188.2 574.8,165.1 575.6,188.2 576.4,165.1 577.2,188.2 578.0,165.1 578.8,188.2 579.7,165.1 580.5,188.2 581.3,165.1 582.1,188.2 582.9,165.1 583.7,172.1 584.5,149.0 585.4,172.1 586.2,149.0 587.0,172.1 587.8,149.0 588.6,172.1 589.4,149.0 590.2,172.1 591.1,149.0 591.9,168.3 592.7,145.2 593.5,168.3 594.3,145.2 595.1,159.7 595.9,136.5 596.7,159.7 597.6,136.5 598.4,159.7 599.2,136.5 600.0,159.7 600.8,136.5 601.6,159.7 602.4,136.5 603.3,159.1 604.1,136.0 604.9,154.9 605.7,131.8 606.5,154.9 607.3,131.8 608.1,154.9 609.0,131.8 609.8,154.9 610.6,131.8 611.4,154.9 612.2,131.8 613.0,154.9 613.8,131.8 614.6,154.8 615.5,131.7 616.3,153.3 617.1,130.2 617.9,153.3 618.7,130.2 619.5,153.3 620.3,130.2 621.2,153.3 622.0,130.2 622.8,153.3 623.6,130.2 624.4,153.3 625.2,130.2 626.0,153.3 626.9,130.2 627.7,153.3 628.5,130.2 629.3,153.3 630.1,130.2 630.9,153.3 631.7,130.2 632.6,153.3 633.4,130.2 634.2,153.3 635.0,132.5 635.8,155.6 636.6,132.5 637.4,155.6 638.2,132.5 639.1,155.6 639.9,133.2 640.7,156.3 641.5,133.7 642.3,156.8 643.1,134.4 643.9,157.5 644.8,134.4 645.6,157.5 646.4,136.3 647.2,159.4 648.0,136.3 648.8,159.4 649.6,136.3 650.5,159.4 651.3,136.3 652.1,159.4 652.9,137.0 653.7,160.1 654.5,137.0 655.3,160.1 656.1,137.0 657.0,158.2 657.8,135.1 658.6,158.2 659.4,138.7 660.2,161.8 661.0,156.8 661.8,162.2 662.7,148.2 663.5,163.9 664.3,140.8 665.1,163.9 665.9,140.8 666.7,163.9 667.5,158.7 668.4,167.5 669.2,154.4 670.0,177.5 670.8,154.4 671.6,177.5 672.4,165.1 673.2,184.1 674.1,161.0 674.9,183.6 675.7,160.5 676.5,183.6 677.3,160.5 678.1,183.6 678.9,160.5 679.7,183.6 680.6,167.9 681.4,191.1 682.2,167.9 683.0,191.1 683.8,167.9 684.6,190.0 685.4,166.9 686.3,190.0 687.1,166.9 687.9,186.9 688.7,163.8 689.5,186.9 690.3,163.8 691.1,186.9 692.0,163.8 692.8,186.9 693.6,163.8 694.4,186.9 695.2,163.8 696.0,186.9 696.8,163.8 697.6,186.9 698.5,163.8 699.3,186.9 700.1,163.8 700.9,186.9 701.7,163.8 702.5,186.9 703.3,163.8 704.2,186.9 705.0,163.8 705.8,186.9 706.6,163.8 707.4,186.9 708.2,163.8 709.0,186.9 709.9,163.8 710.7,186.9 711.5,163.8 712.3,186.9 713.1,163.8 713.9,186.9 714.7,163.8 715.5,186.9 716.4,163.8 717.2,186.9 718.0,163.8 718.8,186.9 719.6,163.8 720.4,186.9 721.2,163.8 722.1,186.9 722.9,163.8 723.7,186.9 724.5,163.8 725.3,186.9 726.1,163.8 726.9,186.9 727.8,163.8 728.6,186.9 729.4,163.8 730.2,186.9 731.0,163.8 731.8,186.9 732.6,163.8 733.5,186.9 734.3,163.8 735.1,186.9 735.9,163.8 736.7,186.9 737.5,163.8 738.3,186.9 739.1,163.8 740.0,186.9 740.8,163.8 741.6,186.9 742.4,163.8 743.2,186.9 744.0,163.8 744.8,186.9 745.7,163.8 746.5,186.9 747.3,163.8 748.1,186.9 748.9,163.8 749.7,186.9 750.5,163.8 751.4,186.9 752.2,163.8 753.0,186.9 753.8,163.8 754.6,186.9 755.4,163.8 756.2,186.9 757.0,163.8 757.9,186.9 758.7,163.8 759.5,186.9 760.3,163.8 761.1,186.9 761.9,163.8 762.7,186.9 763.6,163.8 764.4,186.9 765.2,163.8 766.0,186.9"/>
<line x1="606" y1="60" x2="628" y2="60" stroke="#24a148" stroke-width="2.2"/>
<text x="634" y="64" font-family="Arial" font-size="12">aileron_deg</text>
<polyline fill="none" stroke="#da1e28" stroke-width="2.2" points="54.0,183.1 54.8,160.0 55.6,153.0 56.4,176.2 57.3,162.3 58.1,185.4 58.9,162.3 59.7,185.4 60.5,173.4 61.3,196.6 62.1,173.4 63.0,196.6 63.8,186.3 64.6,208.5 65.4,185.4 66.2,208.5 67.0,201.9 67.8,214.9 68.6,195.9 69.5,219.1 70.3,214.0 71.1,217.8 71.9,223.0 72.7,224.0 73.5,235.7 74.3,220.6 75.2,243.7 76.0,231.3 76.8,254.4 77.6,231.3 78.4,254.4 79.2,257.7 80.0,238.0 80.9,260.4 81.7,264.9 82.5,241.8 83.3,261.2 84.1,265.0 84.9,263.5 85.7,265.5 86.5,265.9 87.4,266.0 88.2,266.0 89.0,266.0 89.8,266.0 90.6,266.0 91.4,266.0 92.2,266.0 93.1,266.0 93.9,266.0 94.7,266.0 95.5,266.0 96.3,266.0 97.1,266.0 97.9,266.0 98.8,266.0 99.6,266.0 100.4,266.0 101.2,266.0 102.0,266.0 102.8,266.0 103.6,266.0 104.5,266.0 105.3,266.0 106.1,266.0 106.9,266.0 107.7,266.0 108.5,266.0 109.3,266.0 110.1,266.0 111.0,266.0 111.8,266.0 112.6,266.0 113.4,266.0 114.2,266.0 115.0,266.0 115.8,266.0 116.7,266.0 117.5,266.0 118.3,266.0 119.1,266.0 119.9,266.0 120.7,266.0 121.5,266.0 122.4,266.0 123.2,263.0 124.0,265.4 124.8,256.2 125.6,264.0 126.4,240.9 127.2,261.0 128.0,237.9 128.9,258.6 129.7,235.5 130.5,235.5 131.3,252.1 132.1,229.0 132.9,213.5 133.7,236.6 134.6,213.5 135.4,191.3 136.2,214.4 137.0,191.3 137.8,175.2 138.6,198.3 139.4,175.2 140.3,152.1 141.1,175.2 141.9,154.1 142.7,155.0 143.5,140.9 144.3,164.0 145.1,140.9 145.9,128.7 146.8,151.8 147.6,128.7 148.4,138.7 149.2,118.7 150.0,141.8 150.8,118.7 151.6,113.7 152.5,133.3 153.3,110.1 154.1,109.3 154.9,118.0 155.7,97.6 156.5,118.4 157.3,95.3 158.2,104.5 159.0,100.4 159.8,100.1 160.6,99.4 161.4,95.9 162.2,99.2 163.0,91.4 163.9,99.3 164.7,87.0 165.5,99.2 166.3,83.2 167.1,98.3 167.9,80.6 168.7,96.1 169.5,79.2 170.4,92.8 171.2,78.3 172.0,88.6 172.8,77.2 173.6,84.4 174.4,75.6 175.2,80.3 176.1,73.4 176.9,76.1 177.7,70.3 178.5,71.8 179.3,66.7 180.1,67.4 180.9,62.6 181.8,62.8 182.6,58.1 183.4,57.8 184.2,54.8 185.0,54.2 185.8,54.0 186.6,54.0 187.4,54.0 188.3,54.0 189.1,54.0 189.9,54.0 190.7,54.0 191.5,54.0 192.3,54.0 193.1,54.0 194.0,54.0 194.8,54.0 195.6,54.0 196.4,54.0 197.2,54.0 198.0,54.0 198.8,54.0 199.7,54.0 200.5,54.0 201.3,54.0 202.1,54.0 202.9,54.0 203.7,54.0 204.5,54.0 205.4,54.0 206.2,54.0 207.0,54.0 207.8,54.0 208.6,54.0 209.4,54.0 210.2,54.0 211.0,54.0 211.9,54.0 212.7,54.0 213.5,54.0 214.3,54.0 215.1,54.0 215.9,54.0 216.7,54.0 217.6,54.0 218.4,54.0 219.2,54.0 220.0,54.0 220.8,54.0 221.6,54.0 222.4,54.0 223.3,54.0 224.1,54.0 224.9,54.0 225.7,54.0 226.5,54.0 227.3,54.0 228.1,54.0 228.9,54.0 229.8,54.0 230.6,54.0 231.4,54.0 232.2,54.0 233.0,54.0 233.8,54.0 234.6,54.0 235.5,54.0 236.3,54.0 237.1,54.0 237.9,54.0 238.7,54.0 239.5,54.0 240.3,54.0 241.2,54.0 242.0,54.0 242.8,54.0 243.6,54.0 244.4,54.0 245.2,54.0 246.0,54.0 246.9,54.0 247.7,54.0 248.5,54.0 249.3,54.0 250.1,54.0 250.9,54.0 251.7,54.0 252.5,54.0 253.4,54.0 254.2,54.0 255.0,54.0 255.8,54.0 256.6,54.0 257.4,54.0 258.2,54.0 259.1,54.0 259.9,54.0 260.7,54.0 261.5,54.0 262.3,54.0 263.1,54.0 263.9,54.0 264.8,54.0 265.6,54.0 266.4,54.0 267.2,54.0 268.0,54.0 268.8,54.0 269.6,54.0 270.4,54.0 271.3,54.0 272.1,54.0 272.9,54.0 273.7,54.0 274.5,54.0 275.3,54.0 276.1,54.0 277.0,54.0 277.8,54.0 278.6,54.0 279.4,54.0 280.2,54.0 281.0,54.0 281.8,54.0 282.7,54.0 283.5,54.0 284.3,54.0 285.1,54.0 285.9,54.0 286.7,54.0 287.5,54.0 288.3,54.0 289.2,54.0 290.0,54.0 290.8,54.0 291.6,54.0 292.4,54.0 293.2,54.0 294.0,54.0 294.9,54.0 295.7,54.0 296.5,54.0 297.3,54.0 298.1,54.0 298.9,54.0 299.7,54.0 300.6,54.0 301.4,54.0 302.2,54.0 303.0,54.0 303.8,54.0 304.6,54.0 305.4,54.0 306.3,54.0 307.1,54.0 307.9,54.0 308.7,54.0 309.5,54.0 310.3,54.0 311.1,54.0 311.9,54.0 312.8,54.0 313.6,54.0 314.4,54.0 315.2,54.0 316.0,54.0 316.8,54.0 317.6,54.0 318.5,54.0 319.3,54.0 320.1,54.0 320.9,54.0 321.7,54.0 322.5,54.0 323.3,54.0 324.2,54.0 325.0,54.0 325.8,54.0 326.6,54.0 327.4,54.0 328.2,54.0 329.0,54.0 329.8,54.0 330.7,54.0 331.5,54.0 332.3,54.0 333.1,54.0 333.9,54.0 334.7,54.0 335.5,54.0 336.4,54.0 337.2,54.0 338.0,54.0 338.8,54.0 339.6,54.0 340.4,54.0 341.2,54.0 342.1,54.0 342.9,54.0 343.7,54.0 344.5,54.0 345.3,54.0 346.1,54.0 346.9,54.0 347.8,54.0 348.6,54.0 349.4,54.0 350.2,54.0 351.0,54.0 351.8,56.2 352.6,55.8 353.4,61.5 354.3,56.7 355.1,78.2 355.9,58.8 356.7,82.0 357.5,78.4 358.3,96.0 359.1,83.6 360.0,106.8 360.8,105.5 361.6,115.1 362.4,118.7 363.2,128.5 364.0,124.3 364.8,145.5 365.7,122.4 366.5,145.5 367.3,157.6 368.1,134.5 368.9,157.6 369.7,167.6 370.5,145.5 371.3,168.6 372.2,177.9 373.0,156.3 373.8,179.5 374.6,182.2 375.4,171.8 376.2,192.7 377.0,170.6 377.9,193.8 378.7,184.2 379.5,192.6 380.3,187.5 381.1,198.2 381.9,190.1 382.7,203.3 383.6,193.4 384.4,207.7 385.2,197.4 386.0,210.8 386.8,201.5 387.6,213.4 388.4,205.6 389.3,214.3 390.1,208.4 390.9,215.3 391.7,210.9 392.5,216.4 393.3,213.3 394.1,217.8 394.9,215.5 395.8,219.4 396.6,217.7 397.4,221.1 398.2,219.8 399.0,222.7 399.8,221.5 400.6,224.3 401.5,223.4 402.3,226.0 403.1,225.3 403.9,227.8 404.7,227.3 405.5,229.7 406.3,229.4 407.2,231.8 408.0,231.6 408.8,234.0 409.6,234.0 410.4,236.4 411.2,236.5 412.0,238.9 412.8,239.2 413.7,241.7 414.5,242.1 415.3,244.6 416.1,245.2 416.9,247.7 417.7,248.4 418.5,251.1 419.4,251.9 420.2,254.7 421.0,255.7 421.8,258.5 422.6,259.7 423.4,262.6 424.2,263.9 425.1,265.6 425.9,265.9 426.7,266.0 427.5,266.0 428.3,266.0 429.1,266.0 429.9,266.0 430.7,266.0 431.6,266.0 432.4,266.0 433.2,266.0 434.0,266.0 434.8,266.0 435.6,266.0 436.4,266.0 437.3,266.0 438.1,266.0 438.9,266.0 439.7,266.0 440.5,266.0 441.3,266.0 442.1,266.0 443.0,266.0 443.8,266.0 444.6,266.0 445.4,266.0 446.2,266.0 447.0,266.0 447.8,266.0 448.7,266.0 449.5,266.0 450.3,266.0 451.1,266.0 451.9,266.0 452.7,266.0 453.5,266.0 454.3,266.0 455.2,266.0 456.0,266.0 456.8,266.0 457.6,266.0 458.4,266.0 459.2,266.0 460.0,266.0 460.9,266.0 461.7,266.0 462.5,266.0 463.3,266.0 464.1,266.0 464.9,266.0 465.7,266.0 466.6,266.0 467.4,266.0 468.2,266.0 469.0,266.0 469.8,266.0 470.6,266.0 471.4,266.0 472.2,266.0 473.1,266.0 473.9,266.0 474.7,266.0 475.5,266.0 476.3,266.0 477.1,266.0 477.9,266.0 478.8,266.0 479.6,266.0 480.4,266.0 481.2,266.0 482.0,266.0 482.8,266.0 483.6,266.0 484.5,266.0 485.3,266.0 486.1,266.0 486.9,266.0 487.7,266.0 488.5,266.0 489.3,266.0 490.2,266.0 491.0,266.0 491.8,266.0 492.6,266.0 493.4,266.0 494.2,266.0 495.0,266.0 495.8,266.0 496.7,266.0 497.5,266.0 498.3,266.0 499.1,266.0 499.9,266.0 500.7,266.0 501.5,266.0 502.4,266.0 503.2,266.0 504.0,266.0 504.8,266.0 505.6,266.0 506.4,266.0 507.2,266.0 508.1,266.0 508.9,266.0 509.7,266.0 510.5,266.0 511.3,266.0 512.1,266.0 512.9,266.0 513.7,266.0 514.6,266.0 515.4,266.0 516.2,266.0 517.0,266.0 517.8,266.0 518.6,266.0 519.4,266.0 520.3,266.0 521.1,266.0 521.9,266.0 522.7,266.0 523.5,266.0 524.3,266.0 525.1,266.0 526.0,266.0 526.8,266.0 527.6,266.0 528.4,266.0 529.2,266.0 530.0,266.0 530.8,266.0 531.7,266.0 532.5,266.0 533.3,266.0 534.1,266.0 534.9,266.0 535.7,266.0 536.5,266.0 537.3,266.0 538.2,266.0 539.0,266.0 539.8,266.0 540.6,266.0 541.4,266.0 542.2,266.0 543.0,266.0 543.9,266.0 544.7,266.0 545.5,266.0 546.3,266.0 547.1,266.0 547.9,266.0 548.7,266.0 549.6,266.0 550.4,266.0 551.2,266.0 552.0,266.0 552.8,266.0 553.6,266.0 554.4,266.0 555.2,266.0 556.1,266.0 556.9,266.0 557.7,266.0 558.5,266.0 559.3,266.0 560.1,266.0 560.9,266.0 561.8,266.0 562.6,266.0 563.4,266.0 564.2,266.0 565.0,266.0 565.8,266.0 566.6,266.0 567.5,266.0 568.3,266.0 569.1,266.0 569.9,266.0 570.7,266.0 571.5,266.0 572.3,266.0 573.1,266.0 574.0,263.1 574.8,264.0 575.6,257.7 576.4,261.2 577.2,248.5 578.0,257.4 578.8,235.7 579.7,252.7 580.5,229.5 581.3,228.7 582.1,225.8 582.9,218.0 583.7,213.3 584.5,207.2 585.4,204.0 586.2,199.4 587.0,195.1 587.8,192.0 588.6,186.1 589.4,184.9 590.2,177.3 591.1,177.8 591.9,168.7 592.7,170.8 593.5,161.4 594.3,164.2 595.1,154.6 595.9,158.0 596.7,150.3 597.6,153.6 598.4,146.6 599.2,149.2 600.0,143.2 600.8,145.1 601.6,139.9 602.4,141.1 603.3,136.7 604.1,137.5 604.9,133.7 605.7,134.5 606.5,132.1 607.3,133.0 608.1,130.8 609.0,131.8 609.8,129.8 610.6,130.8 611.4,129.0 612.2,130.0 613.0,128.4 613.8,129.3 614.6,127.8 615.5,128.8 616.3,127.4 617.1,128.5 617.9,127.6 618.7,128.8 619.5,128.1 620.3,129.3 621.2,128.7 622.0,129.9 622.8,129.4 623.6,130.7 624.4,130.3 625.2,131.5 626.0,131.3 626.9,132.6 627.7,132.4 628.5,133.7 629.3,133.7 630.1,135.0 630.9,135.1 631.7,136.5 632.6,136.7 633.4,138.1 634.2,138.4 635.0,139.9 635.8,140.1 636.6,141.2 637.4,141.2 638.2,142.3 639.1,142.4 639.9,143.5 640.7,143.6 641.5,144.6 642.3,144.6 643.1,145.6 643.9,145.6 644.8,146.4 645.6,146.3 646.4,147.2 647.2,146.9 648.0,147.4 648.8,147.0 649.6,147.4 650.5,147.0 651.3,147.4 652.1,147.0 652.9,147.4 653.7,146.9 654.5,147.1 655.3,170.2 656.1,193.4 657.0,215.8 657.8,192.7 658.6,169.6 659.4,146.5 660.2,129.8 661.0,152.9 661.8,176.0 662.7,199.2 663.5,222.3 664.3,245.4 665.1,222.3 665.9,199.2 666.7,211.6 667.5,234.7 668.4,239.6 669.2,244.1 670.0,252.5 670.8,229.4 671.6,206.3 672.4,229.4 673.2,252.5 674.1,263.3 674.9,265.5 675.7,265.9 676.5,266.0 677.3,266.0 678.1,266.0 678.9,266.0 679.7,266.0 680.6,266.0 681.4,266.0 682.2,266.0 683.0,266.0 683.8,266.0 684.6,266.0 685.4,266.0 686.3,266.0 687.1,266.0 687.9,266.0 688.7,266.0 689.5,266.0 690.3,266.0 691.1,266.0 692.0,266.0 692.8,266.0 693.6,266.0 694.4,266.0 695.2,266.0 696.0,266.0 696.8,266.0 697.6,266.0 698.5,266.0 699.3,266.0 700.1,266.0 700.9,266.0 701.7,266.0 702.5,266.0 703.3,266.0 704.2,266.0 705.0,266.0 705.8,266.0 706.6,266.0 707.4,266.0 708.2,266.0 709.0,266.0 709.9,266.0 710.7,266.0 711.5,266.0 712.3,266.0 713.1,266.0 713.9,266.0 714.7,266.0 715.5,266.0 716.4,266.0 717.2,266.0 718.0,266.0 718.8,266.0 719.6,266.0 720.4,266.0 721.2,266.0 722.1,266.0 722.9,266.0 723.7,266.0 724.5,266.0 725.3,266.0 726.1,266.0 726.9,266.0 727.8,266.0 728.6,266.0 729.4,266.0 730.2,266.0 731.0,266.0 731.8,266.0 732.6,266.0 733.5,266.0 734.3,266.0 735.1,266.0 735.9,266.0 736.7,266.0 737.5,266.0 738.3,266.0 739.1,266.0 740.0,266.0 740.8,266.0 741.6,266.0 742.4,266.0 743.2,266.0 744.0,266.0 744.8,266.0 745.7,266.0 746.5,266.0 747.3,266.0 748.1,266.0 748.9,266.0 749.7,266.0 750.5,266.0 751.4,266.0 752.2,266.0 753.0,266.0 753.8,266.0 754.6,266.0 755.4,266.0 756.2,266.0 757.0,266.0 757.9,266.0 758.7,266.0 759.5,266.0 760.3,266.0 761.1,266.0 761.9,266.0 762.7,266.0 763.6,266.0 764.4,266.0 765.2,266.0 766.0,266.0"/>
<line x1="606" y1="78" x2="628" y2="78" stroke="#da1e28" stroke-width="2.2"/>
<text x="634" y="82" font-family="Arial" font-size="12">rudder_deg</text>
</svg>