<svg xmlns="http://www.w3.org/2000/svg" width="820" height="320" viewBox="0 0 820 320">
<rect width="100%" height="100%" fill="#ffffff"/>
<text x="54" y="28" font-family="Arial" font-size="18" font-weight="700">Heading Command Tracking</text>
<line x1="54" y1="266" x2="766" y2="266" stroke="#1f2933"/>
<line x1="54" y1="54" x2="54" y2="266" stroke="#1f2933"/>
<text x="54" y="306" font-family="Arial" font-size="12">time (s)</text>
<text x="596" y="306" font-family="Arial" font-size="12">heading (deg)</text>
<text x="58" y="68" font-family="Arial" font-size="11">180</text>
<text x="58" y="260" font-family="Arial" font-size="11">-180</text>
<polyline fill="none" stroke="#0f62fe" stroke-width="2.2" points="54.0,166.7 54.8,166.7 55.6,166.7 56.4,166.7 57.3,166.7 58.1,166.7 58.9,166.7 59.7,166.7 60.5,166.7 61.3,166.8 62.1,166.8 63.0,166.8 63.8,166.8 64.6,166.8 65.4,166.8 66.2,166.8 67.0,166.8 67.8,166.8 68.6,166.8 69.5,166.8 70.3,166.8 71.1,166.8 71.9,166.8 72.7,166.9 73.5,166.9 74.3,166.9 75.2,166.9 76.0,166.9 76.8,166.9 77.6,166.9 78.4,166.9 79.2,166.9 80.0,166.9 80.9,166.9 81.7,167.0 82.5,167.0 83.3,167.0 84.1,167.0 84.9,167.0 85.7,167.0 86.5,167.0 87.4,167.0 88.2,167.0 89.0,167.1 89.8,167.1 90.6,167.1 91.4,167.1 92.2,167.1 93.1,167.1 93.9,167.1 94.7,167.1 95.5,167.2 96.3,167.2 97.1,167.2 97.9,167.2 98.8,167.2 99.6,167.2 100.4,167.2 101.2,167.3 102.0,167.3 102.8,167.3 103.6,167.3 104.5,167.3 105.3,167.3 106.1,167.4 106.9,167.4 107.7,167.4 108.5,167.4 109.3,167.4 110.1,167.4 111.0,167.5 111.8,167.5 112.6,167.5 113.4,167.5 114.2,167.5 115.0,167.5 115.8,167.6 116.7,167.6 117.5,167.6 118.3,167.6 119.1,167.6 119.9,167.7 120.7,167.7 121.5,167.7 122.4,167.7 123.2,167.7 124.0,167.7 124.8,167.8 125.6,167.8 126.4,167.8 127.2,167.8 128.0,167.8 128.9,167.8 129.7,167.8 130.5,167.9 131.3,167.9 132.1,167.9 132.9,167.9 133.7,167.9 134.6,167.9 135.4,167.9 136.2,167.9 137.0,167.9 137.8,167.9 138.6,167.9 139.4,167.9 140.3,167.9 141.1,167.9 141.9,167.9 142.7,167.9 143.5,167.9 144.3,167.9 145.1,167.9 145.9,167.9 146.8,167.9 147.6,167.9 148.4,167.9 149.2,167.9 150.0,167.8 150.8,167.8 151.6,167.8 152.5,167.8 153.3,167.8 154.1,167.8 154.9,167.8 155.7,167.8 156.5,167.8 157.3,167.8 158.2,167.7 159.0,167.7 159.8,167.7 160.6,167.7 161.4,167.7 162.2,167.7 163.0,167.7 163.9,167.7 164.7,167.7 165.5,167.7 166.3,167.6 167.1,167.6 167.9,167.6 168.7,167.6 169.5,167.6 170.4,167.6 171.2,167.6 172.0,167.6 172.8,167.6 173.6,167.6 174.4,167.5 175.2,167.5 176.1,167.5 176.9,167.5 177.7,167.5 178.5,167.5 179.3,167.5 180.1,167.5 180.9,167.5 181.8,167.5 182.6,167.5 183.4,167.4 184.2,167.4 185.0,167.4 185.8,167.4 186.6,167.4 187.4,167.4 188.3,167.4 189.1,167.4 189.9,167.4 190.7,167.4 191.5,167.4 192.3,167.4 193.1,167.4 194.0,167.3 194.8,167.3 195.6,167.3 196.4,167.3 197.2,167.3 198.0,167.3 198.8,167.3 199.7,167.3 200.5,167.3 201.3,167.3 202.1,167.3 202.9,167.3 203.7,167.3 204.5,167.3 205.4,167.3 206.2,167.2 207.0,167.2 207.8,167.2 208.6,167.2 209.4,167.2 210.2,167.2 211.0,167.2 211.9,167.2 212.7,167.2 213.5,167.2 214.3,167.2 215.1,167.2 215.9,167.2 216.7,167.2 217.6,167.2 218.4,167.2 219.2,167.2 220.0,167.1 220.8,167.1 221.6,167.1 222.4,167.1 223.3,167.1 224.1,167.1 224.9,167.1 225.7,167.1 226.5,167.1 227.3,167.1 228.1,167.1 228.9,167.1 229.8,167.1 230.6,167.0 231.4,167.0 232.2,167.0 233.0,167.0 233.8,167.0 234.6,167.0 235.5,167.0 236.3,167.0 237.1,167.0 237.9,167.0 238.7,167.0 239.5,166.9 240.3,166.9 241.2,166.9 242.0,166.9 242.8,166.9 243.6,166.9 244.4,166.9 245.2,166.9 246.0,166.9 246.9,166.8 247.7,166.8 248.5,166.8 249.3,166.8 250.1,166.8 250.9,166.8 251.7,166.8 252.5,166.7 253.4,166.7 254.2,166.7 255.0,166.7 255.8,166.7 256.6,166.7 257.4,166.6 258.2,166.6 259.1,166.6 259.9,166.6 260.7,166.6 261.5,166.6 262.3,166.5 263.1,166.5 263.9,166.5 264.8,166.5 265.6,166.5 266.4,166.5 267.2,166.4 268.0,166.4 268.8,166.4 269.6,166.4 270.4,166.3 271.3,166.3 272.1,166.3 272.9,166.3 273.7,166.3 274.5,166.2 275.3,166.2 276.1,166.2 277.0,166.2 277.8,166.1 278.6,166.1 279.4,166.1 280.2,166.1 281.0,166.1 281.8,166.0 282.7,166.0 283.5,166.0 284.3,166.0 285.1,165.9 285.9,165.9 286.7,165.9 287.5,165.8 288.3,165.8 289.2,165.8 290.0,165.8 290.8,165.7 291.6,165.7 292.4,165.7 293.2,165.7 294.0,165.6 294.9,165.6 295.7,165.6 296.5,165.5 297.3,165.5 298.1,165.5 298.9,165.5 299.7,165.4 300.6,165.4 301.4,165.4 302.2,165.3 303.0,165.3 303.8,165.3 304.6,165.3 305.4,165.2 306.3,165.2 307.1,165.2 307.9,165.1 308.7,165.1 309.5,165.1 310.3,165.1 311.1,165.0 311.9,165.0 312.8,165.0 313.6,164.9 314.4,164.9 315.2,164.9 316.0,164.8 316.8,164.8 317.6,164.8 318.5,164.8 319.3,164.7 320.1,164.7 320.9,164.7 321.7,164.6 322.5,164.6 323.3,164.6 324.2,164.5 325.0,164.5 325.8,164.5 326.6,164.5 327.4,164.4 328.2,164.4 329.0,164.4 329.8,164.3 330.7,164.3 331.5,164.3 332.3,164.3 333.1,164.2 333.9,164.2 334.7,164.2 335.5,164.2 336.4,164.1 337.2,164.1 338.0,164.1 338.8,164.1 339.6,164.0 340.4,164.0 341.2,164.0 342.1,164.0 342.9,164.0 343.7,163.9 344.5,163.9 345.3,163.9 346.1,163.9 346.9,163.9 347.8,163.9 348.6,163.8 349.4,163.8 350.2,163.8 351.0,163.8 351.8,163.8 352.6,163.8 353.4,163.8 354.3,163.7 355.1,163.7 355.9,163.7 356.7,163.7 357.5,163.7 358.3,163.7 359.1,163.7 360.0,163.7 360.8,163.7 361.6,163.7 362.4,163.7 363.2,163.7 364.0,163.7 364.8,163.7 365.7,163.7 366.5,163.7 367.3,163.7 368.1,163.7 368.9,163.7 369.7,163.7 370.5,163.7 371.3,163.7 372.2,163.7 373.0,163.7 373.8,163.7 374.6,163.7 375.4,163.8 376.2,163.8 377.0,163.8 377.9,163.8 378.7,163.8 379.5,163.8 380.3,163.8 381.1,163.8 381.9,163.8 382.7,163.8 383.6,163.9 384.4,163.9 385.2,163.9 386.0,163.9 386.8,163.9 387.6,163.9 388.4,163.9 389.3,163.9 390.1,163.9 390.9,164.0 391.7,164.0 392.5,164.0 393.3,164.0 394.1,164.0 394.9,164.0 395.8,164.0 396.6,164.0 397.4,164.1 398.2,164.1 399.0,164.1 399.8,164.1 400.6,164.1 401.5,164.1 402.3,164.1 403.1,164.1 403.9,164.2 404.7,164.2 405.5,164.2 406.3,164.2 407.2,164.2 408.0,164.2 408.8,164.2 409.6,164.2 410.4,164.3 411.2,164.3 412.0,164.3 412.8,164.3 413.7,164.3 414.5,164.3 415.3,164.3 416.1,164.3 416.9,164.3 417.7,164.4 418.5,164.4 419.4,164.4 420.2,164.4 421.0,164.4 421.8,164.4 422.6,164.4 423.4,164.4 424.2,164.5 425.1,164.5 425.9,164.5 426.7,164.5 427.5,164.5 428.3,164.5 429.1,164.5 429.9,164.5 430.7,164.5 431.6,164.5 432.4,164.6 433.2,164.6 434.0,164.6 434.8,164.6 435.6,164.6 436.4,164.6 437.3,164.6 438.1,164.6 438.9,164.6 439.7,164.6 440.5,164.7 441.3,164.7 442.1,164.7 443.0,164.7 443.8,164.7 444.6,164.7 445.4,164.7 446.2,164.7 447.0,164.7 447.8,164.7 448.7,164.8 449.5,164.8 450.3,164.8 451.1,164.8 451.9,164.8 452.7,164.8 453.5,164.8 454.3,164.8 455.2,164.8 456.0,164.8 456.8,164.9 457.6,164.9 458.4,164.9 459.2,164.9 460.0,164.9 460.9,164.9 461.7,164.9 462.5,164.9 463.3,164.9 464.1,165.0 464.9,165.0 465.7,165.0 466.6,165.0 467.4,165.0 468.2,165.0 469.0,165.0 469.8,165.1 470.6,165.1 471.4,165.1 472.2,165.1 473.1,165.1 473.9,165.1 474.7,165.1 475.5,165.2 476.3,165.2 477.1,165.2 477.9,165.2 478.8,165.2 479.6,165.2 480.4,165.2 481.2,165.3 482.0,165.3 482.8,165.3 483.6,165.3 484.5,165.3 485.3,165.3 486.1,165.4 486.9,165.4 487.7,165.4 488.5,165.4 489.3,165.4 490.2,165.5 491.0,165.5 491.8,165.5 492.6,165.5 493.4,165.5 494.2,165.6 495.0,165.6 495.8,165.6 496.7,165.6 497.5,165.7 498.3,165.7 499.1,165.7 499.9,165.7 500.7,165.7 501.5,165.8 502.4,165.8 503.2,165.8 504.0,165.8 504.8,165.9 505.6,165.9 506.4,165.9 507.2,165.9 508.1,166.0 508.9,166.0 509.7,166.0 510.5,166.0 511.3,166.1 512.1,166.1 512.9,166.1 513.7,166.1 514.6,166.2 515.4,166.2 516.2,166.2 517.0,166.3 517.8,166.3 518.6,166.3 519.4,166.3 520.3,166.4 521.1,166.4 521.9,166.4 522.7,166.4 523.5,166.5 524.3,166.5 525.1,166.5 526.0,166.6 526.8,166.6 527.6,166.6 528.4,166.7 529.2,166.7 530.0,166.7 530.8,166.7 531.7,166.8 532.5,166.8 533.3,166.8 534.1,166.9 534.9,166.9 535.7,166.9 536.5,167.0 537.3,167.0 538.2,167.0 539.0,167.0 539.8,167.1 540.6,167.1 541.4,167.1 542.2,167.2 543.0,167.2 543.9,167.2 544.7,167.3 545.5,167.3 546.3,167.3 547.1,167.3 547.9,167.4 548.7,167.4 549.6,167.4 550.4,167.5 551.2,167.5 552.0,167.5 552.8,167.5 553.6,167.6 554.4,167.6 555.2,167.6 556.1,167.6 556.9,167.7 557.7,167.7 558.5,167.7 559.3,167.7 560.1,167.8 560.9,167.8 561.8,167.8 562.6,167.8 563.4,167.9 564.2,167.9 565.0,167.9 565.8,167.9 566.6,167.9 567.5,168.0 568.3,168.0 569.1,168.0 569.9,168.0 570.7,168.0 571.5,168.0 572.3,168.1 573.1,168.1 574.0,168.1 574.8,168.1 575.6,168.1 576.4,168.1 577.2,168.1 578.0,168.1 578.8,168.1 579.7,168.1 580.5,168.2 581.3,168.2 582.1,168.2 582.9,168.2 583.7,168.2 584.5,168.2 585.4,168.2 586.2,168.2 587.0,168.2 587.8,168.2 588.6,168.2 589.4,168.2 590.2,168.2 591.1,168.2 591.9,168.2 592.7,168.2 593.5,168.2 594.3,168.2 595.1,168.2 595.9,168.1 596.7,168.1 597.6,168.1 598.4,168.1 599.2,168.1 600.0,168.1 600.8,168.1 601.6,168.1 602.4,168.1 603.3,168.1 604.1,168.1 604.9,168.1 605.7,168.1 606.5,168.1 607.3,168.1 608.1,168.0 609.0,168.0 609.8,168.0 610.6,168.0 611.4,168.0 612.2,168.0 613.0,168.0 613.8,168.0 614.6,168.0 615.5,168.0 616.3,168.0 617.1,168.0 617.9,167.9 618.7,167.9 619.5,167.9 620.3,167.9 621.2,167.9 622.0,167.9 622.8,167.9 623.6,167.9 624.4,167.9 625.2,167.9 626.0,167.9 626.9,167.8 627.7,167.8 628.5,167.8 629.3,167.8 630.1,167.8 630.9,167.8 631.7,167.8 632.6,167.8 633.4,167.8 634.2,167.8 635.0,167.8 635.8,167.8 636.6,167.7 637.4,167.7 638.2,167.7 639.1,167.7 639.9,167.7 640.7,167.7 641.5,167.7 642.3,167.7 643.1,167.7 643.9,167.7 644.8,167.7 645.6,167.7 646.4,167.7 647.2,167.6 648.0,167.6 648.8,167.6 649.6,167.6 650.5,167.6 651.3,167.6 652.1,167.6 652.9,167.6 653.7,167.6 654.5,167.6 655.3,167.6 656.1,167.6 657.0,167.6 657.8,167.6 658.6,167.6 659.4,167.6 660.2,167.5 661.0,167.5 661.8,167.5 662.7,167.5 663.5,167.5 664.3,167.5 665.1,167.5 665.9,167.5 666.7,167.5 667.5,167.5 668.4,167.5 669.2,167.5 670.0,167.5 670.8,167.5 671.6,167.5 672.4,167.5 673.2,167.5 674.1,167.5 674.9,167.5 675.7,167.5 676.5,167.5 677.3,167.5 678.1,167.5 678.9,167.5 679.7,167.4 680.6,167.4 681.4,167.4 682.2,167.4 683.0,167.4 683.8,167.4 684.6,167.4 685.4,167.4 686.3,167.4 687.1,167.4 687.9,167.4 688.7,167.4 689.5,167.4 690.3,167.4 691.1,167.4 692.0,167.4 692.8,167.4 693.6,167.4 694.4,167.4 695.2,167.4 696.0,167.4 696.8,167.4 697.6,167.4 698.5,167.4 699.3,167.4 700.1,167.4 700.9,167.4 701.7,167.4 702.5,167.4 703.3,167.4 704.2,167.4 705.0,167.4 705.8,167.4 706.6,167.4 707.4,167.4 708.2,167.4 709.0,167.4 709.9,167.4 710.7,167.4 711.5,167.4 712.3,167.4 713.1,167.4 713.9,167.4 714.7,167.5 715.5,167.5 716.4,167.5 717.2,167.5 718.0,167.5 718.8,167.5 719.6,167.5 720.4,167.5 721.2,167.5 722.1,167.5 722.9,167.5 723.7,167.5 724.5,167.5 725.3,167.5 726.1,167.5 726.9,167.5 727.8,167.5 728.6,167.5 729.4,167.5 730.2,167.5 731.0,167.5 731.8,167.5 732.6,167.6 733.5,167.6 734.3,167.6 735.1,167.6 735.9,167.6 736.7,167.6 737.5,167.6 738.3,167.6 739.1,167.6 740.0,167.6 740.8,167.6 741.6,167.6 742.4,167.6 743.2,167.6 744.0,167.6 744.8,167.6 745.7,167.6 746.5,167.7 747.3,167.7 748.1,167.7 748.9,167.7 749.7,167.7 750.5,167.7 751.4,167.7 752.2,167.7 753.0,167.7 753.8,167.7 754.6,167.7 755.4,167.7 756.2,167.7 757.0,167.7 757.9,167.7 758.7,167.7 759.5,167.7 760.3,167.7 761.1,167.7 761.9,167.7 762.7,167.8 763.6,167.8 764.4,167.8 765.2,167.8 766.0,167.8"/>
<line x1="606" y1="42" x2="628" y2="42" stroke="#0f62fe" stroke-width="2.2"/>
<text x="634" y="46" font-family="Arial" font-size="12">heading_command_deg</text>
<polyline fill="none" stroke="#24a148" stroke-width="2.2" points="54.0,163.0 54.8,161.9 55.6,161.5 56.4,161.9 57.3,161.5 58.1,161.5 58.9,160.6 59.7,160.8 60.5,160.4 61.3,160.4 62.1,159.6 63.0,159.7 63.8,159.3 64.6,159.2 65.4,158.3 66.2,158.4 67.0,158.1 67.8,157.8 68.6,157.2 69.5,157.5 70.3,157.1 71.1,156.7 71.9,156.3 72.7,155.9 73.5,155.6 74.3,155.0 75.2,155.0 76.0,154.7 76.8,154.5 77.6,153.7 78.4,153.6 79.2,153.2 80.0,152.7 80.9,152.8 81.7,152.6 82.5,152.1 83.3,152.1 84.1,152.0 84.9,151.8 85.7,151.5 86.5,151.1 87.4,151.0 88.2,151.0 89.0,151.2 89.8,151.4 90.6,151.5 91.4,151.5 92.2,151.5 93.1,151.5 93.9,151.6 94.7,151.6 95.5,151.7 96.3,151.8 97.1,151.9 97.9,152.0 98.8,152.1 99.6,152.1 100.4,152.3 101.2,152.4 102.0,152.5 102.8,152.6 103.6,152.8 104.5,152.9 105.3,153.1 106.1,153.3 106.9,153.4 107.7,153.6 108.5,153.8 109.3,154.0 110.1,154.3 111.0,154.5 111.8,154.8 112.6,155.0 113.4,155.3 114.2,155.6 115.0,156.0 115.8,156.3 116.7,156.6 117.5,157.0 118.3,157.4 119.1,157.8 119.9,158.3 120.7,158.7 121.5,159.2 122.4,159.7 123.2,160.3 124.0,160.8 124.8,161.6 125.6,162.2 126.4,163.4 127.2,164.2 128.0,165.9 128.9,167.2 129.7,169.2 130.5,170.4 131.3,171.6 132.1,173.4 132.9,174.6 133.7,175.5 134.6,177.1 135.4,178.6 136.2,179.7 137.0,181.3 137.8,182.8 138.6,184.1 139.4,185.8 140.3,187.3 141.1,188.7 141.9,190.3 142.7,192.0 143.5,193.7 144.3,195.5 145.1,197.3 145.9,199.3 146.8,201.4 147.6,203.5 148.4,205.9 149.2,208.2 150.0,210.9 150.8,213.2 151.6,215.7 152.5,218.5 153.3,220.7 154.1,223.2 154.9,225.8 155.7,228.0 156.5,230.7 157.3,232.5 158.2,234.7 159.0,236.7 159.8,238.7 160.6,240.6 161.4,242.3 162.2,244.0 163.0,245.4 163.9,247.0 164.7,248.2 165.5,249.6 166.3,250.6 167.1,251.9 167.9,252.8 168.7,253.9 169.5,254.7 170.4,255.7 171.2,256.4 172.0,257.4 172.8,258.1 173.6,258.9 174.4,259.6 175.2,260.3 176.1,260.9 176.9,261.6 177.7,262.2 178.5,262.9 179.3,263.4 180.1,264.0 180.9,264.5 181.8,265.1 182.6,265.5 183.4,54.0 184.2,54.5 185.0,54.9 185.8,55.2 186.6,55.5 187.4,55.6 188.3,55.6 189.1,55.5 189.9,55.3 190.7,55.1 191.5,54.9 192.3,54.6 193.1,54.4 194.0,54.2 194.8,54.1 195.6,54.0 196.4,266.0 197.2,265.9 198.0,265.9 198.8,265.8 199.7,265.8 200.5,265.7 201.3,265.5 202.1,265.4 202.9,265.2 203.7,265.0 204.5,264.8 205.4,264.6 206.2,264.3 207.0,264.1 207.8,263.9 208.6,263.7 209.4,263.5 210.2,263.2 211.0,263.0 211.9,262.7 212.7,262.5 213.5,262.2 214.3,262.0 215.1,261.7 215.9,261.4 216.7,261.2 217.6,260.9 218.4,260.6 219.2,260.4 220.0,260.1 220.8,259.9 221.6,259.6 222.4,259.3 223.3,259.1 224.1,258.8 224.9,258.6 225.7,258.3 226.5,258.0 227.3,257.8 228.1,257.5 228.9,257.3 229.8,257.0 230.6,256.8 231.4,256.5 232.2,256.2 233.0,256.0 233.8,255.7 234.6,255.5 235.5,255.2 236.3,255.0 237.1,254.7 237.9,254.4 238.7,254.2 239.5,253.9 240.3,253.6 241.2,253.3 242.0,253.0 242.8,252.6 243.6,252.3 244.4,252.0 245.2,251.7 246.0,251.3 246.9,251.0 247.7,250.7 248.5,250.3 249.3,250.0 250.1,249.6 250.9,249.2 251.7,248.9 252.5,248.5 253.4,248.2 254.2,247.8 255.0,247.4 255.8,247.1 256.6,246.7 257.4,246.3 258.2,245.9 259.1,245.6 259.9,245.2 260.7,244.8 261.5,244.4 262.3,244.0 263.1,243.7 263.9,243.3 264.8,242.9 265.6,242.5 266.4,242.1 267.2,241.7 268.0,241.3 268.8,240.9 269.6,240.5 270.4,240.0 271.3,239.6 272.1,239.2 272.9,238.8 273.7,238.3 274.5,237.9 275.3,237.5 276.1,237.0 277.0,236.6 277.8,236.1 278.6,235.7 279.4,235.2 280.2,234.8 281.0,234.3 281.8,233.8 282.7,233.4 283.5,232.9 284.3,232.4 285.1,232.0 285.9,231.5 286.7,231.0 287.5,230.5 288.3,230.0 289.2,229.5 290.0,229.0 290.8,228.5 291.6,228.0 292.4,227.5 293.2,227.0 294.0,226.5 294.9,225.9 295.7,225.4 296.5,224.9 297.3,224.3 298.1,223.8 298.9,223.2 299.7,222.7 300.6,222.1 301.4,221.6 302.2,221.0 303.0,220.4 303.8,219.8 304.6,219.2 305.4,218.7 306.3,218.1 307.1,217.5 307.9,216.8 308.7,216.2 309.5,215.6 310.3,215.0 311.1,214.3 311.9,213.7 312.8,213.0 313.6,212.4 314.4,211.7 315.2,211.1 316.0,210.4 316.8,209.7 317.6,209.0 318.5,208.3 319.3,207.6 320.1,206.9 320.9,206.1 321.7,205.4 322.5,204.6 323.3,203.9 324.2,203.1 325.0,202.4 325.8,201.6 326.6,200.8 327.4,200.0 328.2,199.2 329.0,198.4 329.8,197.5 330.7,196.7 331.5,195.9 332.3,195.0 333.1,194.1 333.9,193.3 334.7,192.4 335.5,191.5 336.4,190.6 337.2,189.6 338.0,188.7 338.8,187.8 339.6,186.8 340.4,185.9 341.2,184.9 342.1,183.9 342.9,182.9 343.7,181.9 344.5,180.9 345.3,179.9 346.1,178.9 346.9,177.8 347.8,176.8 348.6,175.7 349.4,174.6 350.2,173.5 351.0,172.4 351.8,171.3 352.6,170.2 353.4,169.0 354.3,167.7 355.1,166.2 355.9,164.6 356.7,162.9 357.5,161.2 358.3,159.3 359.1,157.2 360.0,155.3 360.8,153.3 361.6,151.4 362.4,149.5 363.2,147.7 364.0,145.9 364.8,144.2 365.7,142.3 366.5,140.9 367.3,139.4 368.1,137.6 368.9,136.3 369.7,134.8 370.5,133.1 371.3,131.8 372.2,130.5 373.0,128.8 373.8,127.6 374.6,126.3 375.4,124.8 376.2,123.6 377.0,122.1 377.9,121.0 378.7,119.7 379.5,118.5 380.3,117.2 381.1,116.1 381.9,114.9 382.7,113.9 383.6,112.7 384.4,111.8 385.2,110.6 386.0,109.8 386.8,108.7 387.6,107.8 388.4,106.8 389.3,106.0 390.1,105.0 390.9,104.2 391.7,103.3 392.5,102.5 393.3,101.6 394.1,100.8 394.9,100.0 395.8,99.2 396.6,98.4 397.4,97.7 398.2,96.9 399.0,96.2 399.8,95.4 400.6,94.7 401.5,94.0 402.3,93.3 403.1,92.5 403.9,91.9 404.7,91.2 405.5,90.5 406.3,89.8 407.2,89.2 408.0,88.5 408.8,87.9 409.6,87.2 410.4,86.6 411.2,86.0 412.0,85.4 412.8,84.8 413.7,84.2 414.5,83.6 415.3,83.1 416.1,82.5 416.9,82.0 417.7,81.4 418.5,80.9 419.4,80.4 420.2,79.9 421.0,79.4 421.8,78.9 422.6,78.4 423.4,77.9 424.2,77.4 425.1,77.0 425.9,76.6 426.7,76.2 427.5,76.0 428.3,75.8 429.1,75.7 429.9,75.7 430.7,75.7 431.6,75.8 432.4,75.8 433.2,75.9 434.0,76.0 434.8,76.0 435.6,76.0 436.4,76.0 437.3,75.9 438.1,75.9 438.9,75.8 439.7,75.8 440.5,75.8 441.3,75.8 442.1,75.9 443.0,75.9 443.8,76.0 444.6,76.1 445.4,76.2 446.2,76.4 447.0,76.5 447.8,76.6 448.7,76.8 449.5,76.9 450.3,77.1 451.1,77.2 451.9,77.4 452.7,77.6 453.5,77.8 454.3,78.0 455.2,78.2 456.0,78.4 456.8,78.6 457.6,78.8 458.4,79.0 459.2,79.2 460.0,79.4 460.9,79.6 461.7,79.8 462.5,80.0 463.3,80.2 464.1,80.4 464.9,80.7 465.7,80.9 466.6,81.1 467.4,81.3 468.2,81.6 469.0,81.8 469.8,82.1 470.6,82.4 471.4,82.6 472.2,82.9 473.1,83.2 473.9,83.5 474.7,83.8 475.5,84.1 476.3,84.4 477.1,84.7 477.9,85.0 478.8,85.3 479.6,85.6 480.4,86.0 481.2,86.3 482.0,86.6 482.8,87.0 483.6,87.3 484.5,87.7 485.3,88.0 486.1,88.4 486.9,88.7 487.7,89.1 488.5,89.4 489.3,89.8 490.2,90.2 491.0,90.6 491.8,90.9 492.6,91.3 493.4,91.7 494.2,92.1 495.0,92.5 495.8,92.9 496.7,93.3 497.5,93.7 498.3,94.1 499.1,94.5 499.9,94.9 500.7,95.3 501.5,95.8 502.4,96.2 503.2,96.6 504.0,97.1 504.8,97.5 505.6,98.0 506.4,98.4 507.2,98.9 508.1,99.4 508.9,99.8 509.7,100.3 510.5,100.8 511.3,101.3 512.1,101.8 512.9,102.3 513.7,102.8 514.6,103.3 515.4,103.8 516.2,104.3 517.0,104.9 517.8,105.4 518.6,105.9 519.4,106.5 520.3,107.0 521.1,107.6 521.9,108.1 522.7,108.7 523.5,109.3 524.3,109.8 525.1,110.4 526.0,111.0 526.8,111.6 527.6,112.2 528.4,112.8 529.2,113.4 530.0,114.1 530.8,114.7 531.7,115.3 532.5,116.0 533.3,116.6 534.1,117.3 534.9,118.0 535.7,118.6 536.5,119.3 537.3,120.0 538.2,120.7 539.0,121.4 539.8,122.1 540.6,122.9 541.4,123.6 542.2,124.4 543.0,125.1 543.9,125.9 544.7,126.6 545.5,127.4 546.3,128.2 547.1,129.0 547.9,129.8 548.7,130.7 549.6,131.5 550.4,132.3 551.2,133.2 552.0,134.1 552.8,134.9 553.6,135.8 554.4,136.7 555.2,137.7 556.1,138.6 556.9,139.6 557.7,140.5 558.5,141.5 559.3,142.5 560.1,143.5 560.9,144.5 561.8,145.5 562.6,146.6 563.4,147.7 564.2,148.7 565.0,149.8 565.8,150.9 566.6,152.0 567.5,153.1 568.3,154.3 569.1,155.4 569.9,156.6 570.7,157.8 571.5,158.9 572.3,160.1 573.1,161.3 574.0,162.5 574.8,163.8 575.6,165.1 576.4,166.5 577.2,167.9 578.0,169.5 578.8,171.0 579.7,172.6 580.5,174.1 581.3,175.7 582.1,177.2 582.9,178.8 583.7,180.3 584.5,181.8 585.4,183.4 586.2,184.9 587.0,186.5 587.8,188.0 588.6,189.6 589.4,191.2 590.2,192.8 591.1,194.4 591.9,196.0 592.7,197.7 593.5,199.2 594.3,200.9 595.1,202.4 595.9,204.1 596.7,205.6 597.6,207.2 598.4,208.7 599.2,210.3 600.0,211.8 600.8,213.3 601.6,214.7 602.4,216.2 603.3,217.6 604.1,219.0 604.9,220.3 605.7,221.7 606.5,223.0 607.3,224.3 608.1,225.5 609.0,226.7 609.8,227.8 610.6,229.0 611.4,230.0 612.2,231.1 613.0,232.1 613.8,233.1 614.6,234.1 615.5,235.0 616.3,235.9 617.1,236.9 617.9,237.7 618.7,238.6 619.5,239.5 620.3,240.4 621.2,241.2 622.0,242.1 622.8,242.9 623.6,243.7 624.4,244.6 625.2,245.4 626.0,246.2 626.9,247.0 627.7,247.8 628.5,248.6 629.3,249.4 630.1,250.2 630.9,251.0 631.7,251.8 632.6,252.6 633.4,253.3 634.2,254.1 635.0,254.9 635.8,255.7 636.6,256.5 637.4,257.3 638.2,258.1 639.1,258.8 639.9,259.6 640.7,260.4 641.5,261.2 642.3,262.0 643.1,262.8 643.9,263.5 644.8,264.3 645.6,265.1 646.4,265.9 647.2,54.6 648.0,55.4 648.8,56.1 649.6,56.9 650.5,57.7 651.3,58.4 652.1,59.2 652.9,60.0 653.7,60.7 654.5,61.5 655.3,62.2 656.1,62.6 657.0,62.4 657.8,61.5 658.6,60.5 659.4,60.0 660.2,60.2 661.0,61.4 661.8,62.9 662.7,64.4 663.5,65.3 664.3,65.5 665.1,64.8 665.9,63.9 666.7,63.3 667.5,62.9 668.4,62.5 669.2,62.0 670.0,61.6 670.8,61.2 671.6,61.2 672.4,62.0 673.2,63.0 674.1,64.0 674.9,64.8 675.7,65.3 676.5,65.6 677.3,65.8 678.1,66.0 678.9,66.3 679.7,66.6 680.6,67.1 681.4,67.7 682.2,68.4 683.0,69.3 683.8,70.3 684.6,71.3 685.4,72.4 686.3,73.4 687.1,74.5 687.9,75.5 688.7,76.4 689.5,77.3 690.3,78.2 691.1,79.0 692.0,79.9 692.8,80.7 693.6,81.6 694.4,82.4 695.2,83.3 696.0,84.2 696.8,85.2 697.6,86.1 698.5,87.1 699.3,88.1 700.1,89.1 700.9,90.1 701.7,91.1 702.5,92.1 703.3,93.1 704.2,94.1 705.0,95.2 705.8,96.2 706.6,97.2 707.4,98.2 708.2,99.2 709.0,100.2 709.9,101.2 710.7,102.2 711.5,103.3 712.3,104.3 713.1,105.4 713.9,106.4 714.7,107.5 715.5,108.5 716.4,109.6 717.2,110.6 718.0,111.7 718.8,112.8 719.6,113.9 720.4,115.0 721.2,116.1 722.1,117.2 722.9,118.3 723.7,119.4 724.5,120.5 725.3,121.6 726.1,122.8 726.9,123.9 727.8,125.0 728.6,126.2 729.4,127.3 730.2,128.5 731.0,129.6 731.8,130.8 732.6,132.0 733.5,133.1 734.3,134.3 735.1,135.5 735.9,136.7 736.7,137.9 737.5,139.1 738.3,140.3 739.1,141.5 740.0,142.7 740.8,143.9 741.6,145.1 742.4,146.4 743.2,147.6 744.0,148.8 744.8,150.1 745.7,151.3 746.5,152.6 747.3,153.8 748.1,155.1 748.9,156.4 749.7,157.6 750.5,158.9 751.4,160.2 752.2,161.5 753.0,162.8 753.8,164.1 754.6,165.4 755.4,166.7 756.2,168.0 757.0,169.3 757.9,170.6 758.7,171.9 759.5,173.2 760.3,174.6 761.1,175.9 761.9,177.2 762.7,178.6 763.6,179.9 764.4,181.3 765.2,182.6 766.0,183.9"/>
<line x1="606" y1="60" x2="628" y2="60" stroke="#24a148" stroke-width="2.2"/>
<text x="634" y="64" font-family="Arial" font-size="12">yaw_deg</text>
</svg>