<svg xmlns="http://www.w3.org/2000/svg" width="820" height="320" viewBox="0 0 820 320">
<rect width="100%" height="100%" fill="#ffffff"/>
<text x="54" y="28" font-family="Arial" font-size="18" font-weight="700">Specific Energy</text>
<line x1="54" y1="266" x2="766" y2="266" stroke="#1f2933"/>
<line x1="54" y1="54" x2="54" y2="266" stroke="#1f2933"/>
<text x="54" y="306" font-family="Arial" font-size="12">time (s)</text>
<text x="596" y="306" font-family="Arial" font-size="12">J/kg</text>
<text x="58" y="68" font-family="Arial" font-size="11">1.29e+04</text>
<text x="58" y="260" font-family="Arial" font-size="11">3.4e+03</text>
<polyline fill="none" stroke="#0f62fe" stroke-width="2.2" points="54.0,54.0 54.8,54.2 55.6,54.3 56.4,54.5 57.3,54.6 58.1,54.7 58.9,54.9 59.7,55.0 60.5,55.1 61.3,55.2 62.1,55.3 63.0,55.5 63.8,55.6 64.6,55.7 65.4,55.8 66.2,55.9 67.0,56.0 67.8,56.1 68.6,56.3 69.5,56.4 70.3,56.5 71.1,56.6 71.9,56.7 72.7,56.8 73.5,57.0 74.3,57.1 75.2,57.2 76.0,57.3 76.8,57.5 77.6,57.6 78.4,57.7 79.2,57.9 80.0,58.0 80.9,58.2 81.7,58.4 82.5,58.5 83.3,58.7 84.1,58.9 84.9,59.0 85.7,59.2 86.5,59.4 87.4,59.6 88.2,59.7 89.0,59.9 89.8,60.1 90.6,60.3 91.4,60.4 92.2,60.6 93.1,60.7 93.9,60.9 94.7,61.1 95.5,61.2 96.3,61.4 97.1,61.5 97.9,61.7 98.8,61.9 99.6,62.0 100.4,62.2 101.2,62.3 102.0,62.5 102.8,62.7 103.6,62.8 104.5,63.0 105.3,63.2 106.1,63.3 106.9,63.5 107.7,63.6 108.5,63.8 109.3,63.9 110.1,64.1 111.0,64.3 111.8,64.4 112.6,64.6 113.4,64.7 114.2,64.9 115.0,65.1 115.8,65.2 116.7,65.4 117.5,65.5 118.3,65.7 119.1,65.8 119.9,66.0 120.7,66.2 121.5,66.4 122.4,66.5 123.2,66.7 124.0,66.9 124.8,67.1 125.6,67.4 126.4,67.6 127.2,67.9 128.0,68.1 128.9,68.5 129.7,68.9 130.5,69.4 131.3,69.9 132.1,70.5 132.9,71.1 133.7,71.8 134.6,72.4 135.4,73.1 136.2,73.9 137.0,74.6 137.8,75.4 138.6,76.1 139.4,76.9 140.3,77.6 141.1,78.4 141.9,79.1 142.7,79.8 143.5,80.5 144.3,81.2 145.1,81.8 145.9,82.5 146.8,83.1 147.6,83.7 148.4,84.3 149.2,84.8 150.0,85.4 150.8,85.9 151.6,86.5 152.5,87.0 153.3,87.5 154.1,88.0 154.9,88.5 155.7,89.0 156.5,89.5 157.3,90.0 158.2,90.4 159.0,90.9 159.8,91.3 160.6,91.8 161.4,92.2 162.2,92.7 163.0,93.1 163.9,93.5 164.7,94.0 165.5,94.4 166.3,94.8 167.1,95.3 167.9,95.7 168.7,96.1 169.5,96.5 170.4,96.9 171.2,97.2 172.0,97.6 172.8,98.0 173.6,98.4 174.4,98.7 175.2,99.1 176.1,99.4 176.9,99.8 177.7,100.1 178.5,100.5 179.3,100.8 180.1,101.1 180.9,101.5 181.8,101.8 182.6,102.1 183.4,102.4 184.2,102.7 185.0,103.0 185.8,103.4 186.6,103.7 187.4,104.0 188.3,104.3 189.1,104.5 189.9,104.8 190.7,105.1 191.5,105.4 192.3,105.7 193.1,106.0 194.0,106.2 194.8,106.5 195.6,106.8 196.4,107.0 197.2,107.3 198.0,107.6 198.8,107.8 199.7,108.1 200.5,108.3 201.3,108.6 202.1,108.8 202.9,109.1 203.7,109.4 204.5,109.6 205.4,109.8 206.2,110.1 207.0,110.3 207.8,110.6 208.6,110.8 209.4,111.0 210.2,111.3 211.0,111.5 211.9,111.7 212.7,112.0 213.5,112.2 214.3,112.4 215.1,112.6 215.9,112.9 216.7,113.1 217.6,113.3 218.4,113.5 219.2,113.8 220.0,114.0 220.8,114.2 221.6,114.4 222.4,114.6 223.3,114.9 224.1,115.1 224.9,115.3 225.7,115.5 226.5,115.7 227.3,115.9 228.1,116.1 228.9,116.3 229.8,116.6 230.6,116.8 231.4,117.0 232.2,117.2 233.0,117.4 233.8,117.6 234.6,117.8 235.5,118.0 236.3,118.2 237.1,118.4 237.9,118.6 238.7,118.7 239.5,118.9 240.3,119.1 241.2,119.3 242.0,119.4 242.8,119.6 243.6,119.7 244.4,119.9 245.2,120.0 246.0,120.2 246.9,120.3 247.7,120.5 248.5,120.6 249.3,120.8 250.1,120.9 250.9,121.1 251.7,121.2 252.5,121.3 253.4,121.5 254.2,121.6 255.0,121.8 255.8,121.9 256.6,122.0 257.4,122.1 258.2,122.3 259.1,122.4 259.9,122.5 260.7,122.7 261.5,122.8 262.3,122.9 263.1,123.0 263.9,123.2 264.8,123.3 265.6,123.4 266.4,123.5 267.2,123.6 268.0,123.8 268.8,123.9 269.6,124.0 270.4,124.1 271.3,124.2 272.1,124.4 272.9,124.5 273.7,124.6 274.5,124.7 275.3,124.9 276.1,125.0 277.0,125.1 277.8,125.2 278.6,125.4 279.4,125.5 280.2,125.6 281.0,125.8 281.8,125.9 282.7,126.0 283.5,126.1 284.3,126.3 285.1,126.4 285.9,126.6 286.7,126.7 287.5,126.8 288.3,127.0 289.2,127.1 290.0,127.2 290.8,127.4 291.6,127.5 292.4,127.7 293.2,127.8 294.0,128.0 294.9,128.1 295.7,128.3 296.5,128.4 297.3,128.6 298.1,128.7 298.9,128.9 299.7,129.0 300.6,129.2 301.4,129.3 302.2,129.5 303.0,129.6 303.8,129.8 304.6,130.0 305.4,130.1 306.3,130.3 307.1,130.5 307.9,130.6 308.7,130.8 309.5,131.0 310.3,131.2 311.1,131.3 311.9,131.5 312.8,131.7 313.6,131.9 314.4,132.0 315.2,132.2 316.0,132.4 316.8,132.6 317.6,132.8 318.5,133.0 319.3,133.2 320.1,133.4 320.9,133.6 321.7,133.8 322.5,134.0 323.3,134.2 324.2,134.4 325.0,134.6 325.8,134.8 326.6,135.0 327.4,135.2 328.2,135.5 329.0,135.7 329.8,135.9 330.7,136.1 331.5,136.4 332.3,136.6 333.1,136.8 333.9,137.1 334.7,137.3 335.5,137.5 336.4,137.8 337.2,138.0 338.0,138.3 338.8,138.5 339.6,138.8 340.4,139.0 341.2,139.3 342.1,139.6 342.9,139.8 343.7,140.1 344.5,140.4 345.3,140.6 346.1,140.9 346.9,141.2 347.8,141.5 348.6,141.8 349.4,142.1 350.2,142.4 351.0,142.7 351.8,143.0 352.6,143.3 353.4,143.6 354.3,144.0 355.1,144.3 355.9,144.7 356.7,145.0 357.5,145.4 358.3,145.8 359.1,146.3 360.0,146.8 360.8,147.3 361.6,147.8 362.4,148.3 363.2,148.9 364.0,149.4 364.8,149.9 365.7,150.5 366.5,151.0 367.3,151.5 368.1,152.0 368.9,152.4 369.7,152.9 370.5,153.4 371.3,153.8 372.2,154.3 373.0,154.7 373.8,155.2 374.6,155.6 375.4,156.0 376.2,156.4 377.0,156.8 377.9,157.2 378.7,157.6 379.5,158.0 380.3,158.4 381.1,158.8 381.9,159.2 382.7,159.5 383.6,159.9 384.4,160.3 385.2,160.6 386.0,161.0 386.8,161.3 387.6,161.7 388.4,162.0 389.3,162.3 390.1,162.7 390.9,163.0 391.7,163.3 392.5,163.7 393.3,164.0 394.1,164.3 394.9,164.6 395.8,164.9 396.6,165.2 397.4,165.5 398.2,165.8 399.0,166.1 399.8,166.4 400.6,166.7 401.5,167.0 402.3,167.3 403.1,167.6 403.9,167.9 404.7,168.2 405.5,168.4 406.3,168.7 407.2,169.0 408.0,169.3 408.8,169.5 409.6,169.8 410.4,170.1 411.2,170.3 412.0,170.6 412.8,170.8 413.7,171.1 414.5,171.4 415.3,171.6 416.1,171.9 416.9,172.1 417.7,172.4 418.5,172.6 419.4,172.9 420.2,173.1 421.0,173.3 421.8,173.6 422.6,173.8 423.4,174.1 424.2,174.3 425.1,174.6 425.9,174.8 426.7,175.0 427.5,175.3 428.3,175.5 429.1,175.7 429.9,176.0 430.7,176.2 431.6,176.4 432.4,176.7 433.2,176.9 434.0,177.1 434.8,177.3 435.6,177.6 436.4,177.8 437.3,178.0 438.1,178.2 438.9,178.4 439.7,178.6 440.5,178.9 441.3,179.1 442.1,179.3 443.0,179.5 443.8,179.7 444.6,179.9 445.4,180.1 446.2,180.3 447.0,180.5 447.8,180.8 448.7,181.0 449.5,181.2 450.3,181.4 451.1,181.6 451.9,181.8 452.7,182.0 453.5,182.2 454.3,182.4 455.2,182.6 456.0,182.8 456.8,183.0 457.6,183.2 458.4,183.4 459.2,183.6 460.0,183.8 460.9,184.0 461.7,184.2 462.5,184.4 463.3,184.6 464.1,184.8 464.9,184.9 465.7,185.1 466.6,185.3 467.4,185.5 468.2,185.7 469.0,185.8 469.8,186.0 470.6,186.1 471.4,186.3 472.2,186.5 473.1,186.6 473.9,186.8 474.7,186.9 475.5,187.1 476.3,187.2 477.1,187.3 477.9,187.5 478.8,187.6 479.6,187.8 480.4,187.9 481.2,188.0 482.0,188.2 482.8,188.3 483.6,188.5 484.5,188.6 485.3,188.7 486.1,188.9 486.9,189.0 487.7,189.1 488.5,189.2 489.3,189.4 490.2,189.5 491.0,189.6 491.8,189.8 492.6,189.9 493.4,190.0 494.2,190.1 495.0,190.3 495.8,190.4 496.7,190.5 497.5,190.6 498.3,190.8 499.1,190.9 499.9,191.0 500.7,191.1 501.5,191.2 502.4,191.4 503.2,191.5 504.0,191.6 504.8,191.7 505.6,191.9 506.4,192.0 507.2,192.1 508.1,192.2 508.9,192.4 509.7,192.5 510.5,192.6 511.3,192.7 512.1,192.9 512.9,193.0 513.7,193.1 514.6,193.3 515.4,193.4 516.2,193.5 517.0,193.7 517.8,193.8 518.6,193.9 519.4,194.1 520.3,194.2 521.1,194.4 521.9,194.5 522.7,194.7 523.5,194.8 524.3,195.0 525.1,195.1 526.0,195.2 526.8,195.4 527.6,195.6 528.4,195.7 529.2,195.9 530.0,196.0 530.8,196.2 531.7,196.3 532.5,196.5 533.3,196.7 534.1,196.8 534.9,197.0 535.7,197.2 536.5,197.3 537.3,197.5 538.2,197.7 539.0,197.8 539.8,198.0 540.6,198.2 541.4,198.4 542.2,198.6 543.0,198.7 543.9,198.9 544.7,199.1 545.5,199.3 546.3,199.5 547.1,199.7 547.9,199.9 548.7,200.1 549.6,200.3 550.4,200.5 551.2,200.7 552.0,200.9 552.8,201.1 553.6,201.3 554.4,201.6 555.2,201.8 556.1,202.0 556.9,202.2 557.7,202.5 558.5,202.7 559.3,203.0 560.1,203.2 560.9,203.5 561.8,203.7 562.6,204.0 563.4,204.3 564.2,204.6 565.0,204.8 565.8,205.1 566.6,205.4 567.5,205.7 568.3,206.0 569.1,206.4 569.9,206.7 570.7,207.0 571.5,207.3 572.3,207.6 573.1,208.0 574.0,208.3 574.8,208.7 575.6,209.0 576.4,209.3 577.2,209.7 578.0,210.1 578.8,210.4 579.7,210.8 580.5,211.2 581.3,211.6 582.1,212.0 582.9,212.4 583.7,212.8 584.5,213.2 585.4,213.6 586.2,213.9 587.0,214.3 587.8,214.7 588.6,215.0 589.4,215.4 590.2,215.7 591.1,216.1 591.9,216.4 592.7,216.8 593.5,217.1 594.3,217.4 595.1,217.8 595.9,218.1 596.7,218.4 597.6,218.7 598.4,219.1 599.2,219.4 600.0,219.7 600.8,220.0 601.6,220.3 602.4,220.7 603.3,221.0 604.1,221.3 604.9,221.6 605.7,221.9 606.5,222.3 607.3,222.6 608.1,222.9 609.0,223.2 609.8,223.5 610.6,223.8 611.4,224.1 612.2,224.4 613.0,224.7 613.8,225.0 614.6,225.2 615.5,225.5 616.3,225.8 617.1,226.1 617.9,226.4 618.7,226.7 619.5,226.9 620.3,227.2 621.2,227.5 622.0,227.7 622.8,228.0 623.6,228.3 624.4,228.5 625.2,228.8 626.0,229.0 626.9,229.3 627.7,229.6 628.5,229.8 629.3,230.1 630.1,230.3 630.9,230.6 631.7,230.8 632.6,231.1 633.4,231.3 634.2,231.5 635.0,231.8 635.8,232.0 636.6,232.3 637.4,232.5 638.2,232.7 639.1,233.0 639.9,233.2 640.7,233.4 641.5,233.7 642.3,233.9 643.1,234.1 643.9,234.4 644.8,234.6 645.6,234.8 646.4,235.1 647.2,235.3 648.0,235.5 648.8,235.7 649.6,236.0 650.5,236.2 651.3,236.4 652.1,236.6 652.9,236.9 653.7,237.1 654.5,237.3 655.3,237.5 656.1,237.7 657.0,238.0 657.8,238.2 658.6,238.4 659.4,238.6 660.2,238.8 661.0,239.1 661.8,239.3 662.7,239.5 663.5,239.7 664.3,239.9 665.1,240.1 665.9,240.3 666.7,240.6 667.5,240.8 668.4,241.0 669.2,241.2 670.0,241.4 670.8,241.6 671.6,241.9 672.4,242.1 673.2,242.3 674.1,242.5 674.9,242.7 675.7,242.9 676.5,243.1 677.3,243.3 678.1,243.5 678.9,243.7 679.7,244.0 680.6,244.2 681.4,244.4 682.2,244.6 683.0,244.8 683.8,245.0 684.6,245.2 685.4,245.4 686.3,245.6 687.1,245.8 687.9,246.0 688.7,246.3 689.5,246.5 690.3,246.7 691.1,246.9 692.0,247.1 692.8,247.3 693.6,247.5 694.4,247.7 695.2,247.9 696.0,248.1 696.8,248.3 697.6,248.5 698.5,248.7 699.3,248.9 700.1,249.2 700.9,249.4 701.7,249.6 702.5,249.8 703.3,250.0 704.2,250.2 705.0,250.4 705.8,250.6 706.6,250.8 707.4,251.0 708.2,251.2 709.0,251.4 709.9,251.6 710.7,251.8 711.5,252.1 712.3,252.3 713.1,252.5 713.9,252.7 714.7,252.9 715.5,253.1 716.4,253.3 717.2,253.5 718.0,253.7 718.8,253.9 719.6,254.1 720.4,254.3 721.2,254.5 722.1,254.8 722.9,255.0 723.7,255.2 724.5,255.4 725.3,255.6 726.1,255.8 726.9,256.0 727.8,256.2 728.6,256.4 729.4,256.6 730.2,256.8 731.0,257.0 731.8,257.3 732.6,257.5 733.5,257.7 734.3,257.9 735.1,258.1 735.9,258.3 736.7,258.5 737.5,258.7 738.3,258.9 739.1,259.1 740.0,259.3 740.8,259.5 741.6,259.8 742.4,260.0 743.2,260.2 744.0,260.4 744.8,260.6 745.7,260.8 746.5,261.0 747.3,261.2 748.1,261.4 748.9,261.6 749.7,261.8 750.5,262.0 751.4,262.3 752.2,262.5 753.0,262.7 753.8,262.9 754.6,263.1 755.4,263.3 756.2,263.5 757.0,263.7 757.9,263.9 758.7,264.1 759.5,264.3 760.3,264.5 761.1,264.8 761.9,265.0 762.7,265.2 763.6,265.4 764.4,265.6 765.2,265.8 766.0,266.0"/>
<line x1="606" y1="42" x2="628" y2="42" stroke="#0f62fe" stroke-width="2.2"/>
<text x="634" y="46" font-family="Arial" font-size="12">energy_j_per_kg</text>
</svg>