<svg xmlns="http://www.w3.org/2000/svg" width="820" height="320" viewBox="0 0 820 320">
<rect width="100%" height="100%" fill="#ffffff"/>
<text x="54" y="28" font-family="Arial" font-size="18" font-weight="700">Downrange/Crossrange</text>
<line x1="54" y1="266" x2="766" y2="266" stroke="#1f2933"/>
<line x1="54" y1="54" x2="54" y2="266" stroke="#1f2933"/>
<text x="54" y="306" font-family="Arial" font-size="12">downrange (m)</text>
<text x="596" y="306" font-family="Arial" font-size="12">crossrange (m)</text>
<text x="58" y="68" font-family="Arial" font-size="11">0.782</text>
<text x="58" y="260" font-family="Arial" font-size="11">-79.6</text>
<polyline fill="none" stroke="#0f62fe" stroke-width="2.2" points="54.0,56.1 55.5,55.9 57.0,55.8 58.6,55.7 60.1,55.6 61.7,55.4 63.2,55.3 64.8,55.1 66.4,55.0 68.0,54.9 69.6,54.7 71.2,54.6 72.8,54.5 74.4,54.4 76.1,54.3 77.7,54.2 79.4,54.1 81.1,54.1 82.8,54.0 84.4,54.0 86.1,54.0 87.8,54.0 89.6,54.1 91.3,54.2 93.0,54.3 94.8,54.5 96.5,54.6 98.2,54.9 100.0,55.1 101.8,55.4 103.5,55.7 105.3,56.1 107.1,56.5 108.9,56.9 110.7,57.4 112.5,57.9 114.3,58.5 116.1,59.0 117.9,59.7 119.8,60.3 121.6,61.0 123.5,61.7 125.3,62.4 127.2,63.1 129.1,63.9 131.0,64.6 132.9,65.4 134.8,66.2 136.7,67.0 138.7,67.8 140.6,68.6 142.6,69.4 144.5,70.3 146.5,71.2 148.5,72.1 150.5,73.1 152.5,74.1 154.4,75.2 156.4,76.3 158.4,77.4 160.4,78.5 162.4,79.7 164.3,80.8 166.3,82.0 168.3,83.1 170.2,84.1 172.2,85.1 174.1,86.1 176.1,87.0 178.0,87.8 179.9,88.6 181.9,89.4 183.8,90.1 185.8,90.7 187.7,91.4 189.7,92.2 191.6,92.9 193.5,93.8 195.5,94.7 197.4,95.6 199.4,96.6 201.3,97.6 203.2,98.6 205.1,99.5 207.1,100.3 209.0,101.1 210.9,101.8 212.8,102.5 214.7,103.2 216.6,103.9 218.5,104.6 220.5,105.4 222.4,106.3 224.3,107.2 226.2,108.2 228.1,109.1 230.0,110.1 231.8,111.0 233.7,111.9 235.6,112.7 237.5,113.5 239.4,114.2 241.3,114.9 243.2,115.5 245.1,116.2 246.9,117.0 248.8,117.8 250.7,118.6 252.5,119.5 254.4,120.5 256.2,121.5 258.1,122.4 259.9,123.3 261.8,124.2 263.6,125.0 265.5,125.8 267.3,126.5 269.1,127.2 271.0,127.8 272.8,128.5 274.6,129.2 276.4,129.9 278.2,130.7 280.0,131.5 281.8,132.4 283.6,133.3 285.4,134.3 287.2,135.2 288.9,136.1 290.7,136.9 292.5,137.7 294.3,138.4 296.1,139.1 297.8,139.7 299.6,140.3 301.3,140.9 303.1,141.6 304.8,142.2 306.5,142.9 308.2,143.7 309.9,144.5 311.6,145.4 313.3,146.2 315.0,147.1 316.7,148.0 318.4,148.8 320.1,149.5 321.8,150.2 323.4,150.9 325.1,151.5 326.8,152.0 328.4,152.6 330.1,153.1 331.7,153.6 333.3,154.1 334.9,154.6 336.5,155.0 338.1,155.5 339.6,156.0 341.2,156.6 342.7,157.1 344.2,157.7 345.7,158.3 347.2,159.0 348.7,159.8 350.2,160.6 351.7,161.5 353.2,162.4 354.7,163.2 356.3,164.1 357.8,164.9 359.3,165.6 360.8,166.3 362.3,167.0 363.8,167.5 365.3,168.1 366.8,168.6 368.3,169.0 369.7,169.4 371.2,169.8 372.6,170.2 374.0,170.5 375.4,170.9 376.8,171.2 378.2,171.6 379.6,171.9 381.0,172.3 382.3,172.7 383.6,173.1 385.0,173.5 386.3,173.9 387.6,174.4 388.9,175.0 390.2,175.6 391.6,176.2 392.9,176.9 394.2,177.6 395.5,178.4 396.9,179.2 398.2,180.0 399.6,180.7 400.9,181.5 402.2,182.2 403.6,182.9 404.9,183.5 406.2,184.1 407.6,184.7 408.9,185.3 410.2,185.8 411.5,186.3 412.8,186.8 414.1,187.3 415.4,187.7 416.6,188.2 417.9,188.6 419.2,189.0 420.5,189.4 421.8,189.8 423.1,190.1 424.5,190.5 425.8,191.0 427.1,191.4 428.5,191.8 429.8,192.3 431.2,192.8 432.6,193.3 434.0,193.9 435.3,194.4 436.7,195.0 438.1,195.6 439.5,196.2 440.9,196.9 442.3,197.6 443.7,198.3 445.1,199.0 446.6,199.7 448.0,200.6 449.4,201.4 450.8,202.4 452.3,203.4 453.7,204.4 455.2,205.5 456.6,206.6 458.0,207.8 459.5,209.1 460.9,210.4 462.4,211.7 463.8,213.1 465.2,214.5 466.6,215.9 468.0,217.3 469.4,218.7 470.8,220.1 472.2,221.5 473.6,222.8 474.9,224.2 476.3,225.5 477.6,226.8 478.9,228.2 480.2,229.5 481.5,230.8 482.7,232.0 483.9,233.3 485.2,234.6 486.4,235.9 487.6,237.2 488.7,238.5 489.9,239.9 491.1,241.2 492.2,242.6 493.4,244.0 494.5,245.3 495.6,246.6 496.8,247.8 497.9,249.0 499.0,250.1 500.2,251.1 501.3,252.1 502.4,253.0 503.5,253.9 504.6,254.7 505.6,255.6 506.7,256.4 507.7,257.2 508.8,258.0 509.8,258.8 510.8,259.5 511.8,260.3 512.8,261.0 513.7,261.7 514.7,262.3 515.6,262.9 516.6,263.5 517.5,264.0 518.4,264.5 519.4,264.9 520.3,265.2 521.2,265.5 522.2,265.7 523.1,265.8 524.1,266.0 525.0,266.0 525.9,266.0 526.8,265.9 527.8,265.8 528.7,265.7 529.6,265.5 530.5,265.2 531.4,264.9 532.3,264.6 533.2,264.1 534.1,263.7 535.0,263.2 535.9,262.6 536.8,262.0 537.7,261.3 538.6,260.6 539.4,259.8 540.3,259.0 541.2,258.1 542.1,257.1 543.0,256.1 543.9,255.1 544.8,254.0 545.6,252.8 546.5,251.6 547.5,250.4 548.4,249.1 549.3,247.8 550.2,246.4 551.2,245.0 552.2,243.7 553.1,242.4 554.1,241.1 555.1,239.8 556.1,238.5 557.1,237.3 558.1,236.1 559.1,234.9 560.2,233.8 561.2,232.6 562.2,231.6 563.2,230.5 564.3,229.5 565.3,228.5 566.3,227.5 567.4,226.6 568.4,225.7 569.4,224.8 570.5,223.9 571.5,223.0 572.5,222.1 573.5,221.2 574.5,220.3 575.5,219.4 576.5,218.5 577.5,217.5 578.5,216.4 579.5,215.4 580.6,214.3 581.6,213.1 582.6,212.0 583.7,211.0 584.8,209.9 585.8,209.0 586.9,208.0 588.0,207.2 589.0,206.3 590.1,205.6 591.2,204.8 592.2,204.1 593.2,203.4 594.3,202.6 595.3,201.9 596.4,201.2 597.4,200.4 598.5,199.6 599.5,198.7 600.6,197.8 601.7,196.9 602.8,196.0 603.9,195.2 605.0,194.4 606.1,193.7 607.1,193.1 608.2,192.4 609.3,191.9 610.4,191.4 611.4,190.9 612.5,190.4 613.5,190.0 614.6,189.6 615.6,189.3 616.7,188.9 617.7,188.6 618.8,188.3 619.8,188.0 620.9,187.7 622.0,187.4 623.1,187.1 624.2,186.7 625.3,186.4 626.4,186.0 627.4,185.6 628.5,185.3 629.6,184.9 630.7,184.5 631.7,184.1 632.7,183.8 633.7,183.4 634.7,183.1 635.7,182.8 636.7,182.5 637.6,182.3 638.6,182.1 639.6,181.9 640.5,181.8 641.5,181.7 642.5,181.6 643.4,181.6 644.4,181.6 645.4,181.5 646.4,181.5 647.5,181.4 648.5,181.2 649.5,181.0 650.5,180.8 651.4,180.5 652.4,180.2 653.4,179.9 654.3,179.5 655.3,179.1 656.2,178.7 657.1,178.3 658.0,177.8 658.9,177.4 659.8,177.0 660.7,176.6 661.6,176.1 662.4,175.7 663.3,175.3 664.2,174.8 665.0,174.4 665.9,174.0 666.7,173.6 667.6,173.1 668.4,172.7 669.3,172.3 670.1,171.9 671.0,171.5 671.8,171.1 672.7,170.6 673.5,170.2 674.3,169.7 675.2,169.3 676.0,168.8 676.8,168.4 677.6,168.0 678.4,167.5 679.2,167.1 680.0,166.6 680.8,166.2 681.6,165.8 682.4,165.4 683.2,165.0 684.0,164.6 684.8,164.3 685.5,163.9 686.3,163.5 687.1,163.2 687.9,162.8 688.6,162.4 689.4,162.0 690.1,161.6 690.9,161.2 691.7,160.8 692.4,160.4 693.2,160.0 693.9,159.6 694.7,159.2 695.4,158.8 696.2,158.4 696.9,158.0 697.6,157.6 698.4,157.2 699.1,156.8 699.8,156.4 700.5,155.9 701.2,155.5 701.9,155.1 702.7,154.6 703.4,154.1 704.0,153.7 704.7,153.2 705.4,152.7 706.1,152.2 706.8,151.7 707.5,151.2 708.2,150.7 708.9,150.1 709.5,149.6 710.2,149.1 710.9,148.6 711.5,148.1 712.2,147.6 712.9,147.1 713.5,146.6 714.2,146.2 714.8,145.7 715.5,145.3 716.1,144.8 716.7,144.3 717.4,143.8 718.0,143.3 718.7,142.8 719.3,142.3 719.9,141.8 720.6,141.3 721.2,140.8 721.8,140.3 722.5,139.9 723.1,139.5 723.7,139.1 724.4,138.7 725.0,138.3 725.6,137.9 726.3,137.6 726.9,137.2 727.5,136.9 728.1,136.6 728.7,136.3 729.4,135.9 730.0,135.6 730.6,135.3 731.2,135.1 731.7,134.8 732.3,134.5 732.9,134.2 733.5,134.0 734.1,133.7 734.7,133.5 735.2,133.2 735.8,133.0 736.4,132.7 737.0,132.5 737.5,132.2 738.1,132.0 738.6,131.8 739.2,131.5 739.8,131.3 740.3,131.1 740.9,130.8 741.4,130.6 741.9,130.4 742.5,130.1 743.0,129.9 743.6,129.7 744.1,129.4 744.6,129.2 745.2,128.9 745.7,128.6 746.2,128.4 746.8,128.1 747.3,127.9 747.8,127.6 748.4,127.4 748.9,127.2 749.4,126.9 749.9,126.7 750.5,126.5 751.0,126.3 751.5,126.1 752.0,125.9 752.6,125.7 753.1,125.5 753.6,125.3 754.1,125.1 754.7,124.9 755.2,124.8 755.7,124.6 756.2,124.5 756.7,124.3 757.2,124.1 757.7,124.0 758.2,123.8 758.7,123.7 759.2,123.5 759.7,123.3 760.2,123.2 760.7,123.0 761.2,122.8 761.7,122.5 762.2,122.3 762.7,122.1 763.2,121.8 763.7,121.6 764.1,121.3 764.6,121.1 765.1,120.8 765.5,120.6 766.0,120.3"/>
<line x1="606" y1="42" x2="628" y2="42" stroke="#0f62fe" stroke-width="2.2"/>
<text x="634" y="46" font-family="Arial" font-size="12">y_m</text>
</svg>