<svg xmlns="http://www.w3.org/2000/svg" width="820" height="320" viewBox="0 0 820 320">
<rect width="100%" height="100%" fill="#ffffff"/>
<text x="54" y="28" font-family="Arial" font-size="18" font-weight="700">Downrange Position</text>
<line x1="54" y1="266" x2="766" y2="266" stroke="#1f2933"/>
<line x1="54" y1="54" x2="54" y2="266" stroke="#1f2933"/>
<text x="54" y="306" font-family="Arial" font-size="12">time (s)</text>
<text x="596" y="306" font-family="Arial" font-size="12">x (m)</text>
<text x="58" y="68" font-family="Arial" font-size="11">1.18e+03</text>
<text x="58" y="260" font-family="Arial" font-size="11">0</text>
<polyline fill="none" stroke="#0f62fe" stroke-width="2.2" points="54.0,266.0 55.2,265.5 56.4,265.1 57.6,264.6 58.7,264.2 59.9,263.7 61.1,263.3 62.3,262.8 63.5,262.3 64.7,261.8 65.9,261.4 67.1,260.9 68.2,260.4 69.4,259.9 70.6,259.4 71.8,258.9 73.0,258.4 74.2,257.9 75.4,257.4 76.5,256.9 77.7,256.4 78.9,255.9 80.1,255.4 81.3,254.9 82.5,254.4 83.7,253.9 84.9,253.3 86.0,252.8 87.2,252.3 88.4,251.8 89.6,251.2 90.8,250.7 92.0,250.2 93.2,249.7 94.3,249.1 95.5,248.6 96.7,248.0 97.9,247.5 99.1,247.0 100.3,246.4 101.5,245.9 102.7,245.3 103.8,244.8 105.0,244.2 106.2,243.6 107.4,243.1 108.6,242.5 109.8,241.9 111.0,241.4 112.1,240.8 113.3,240.2 114.5,239.6 115.7,239.0 116.9,238.5 118.1,237.9 119.3,237.3 120.5,236.7 121.6,236.1 122.8,235.5 124.0,234.9 125.2,234.3 126.4,233.7 127.6,233.1 128.8,232.6 129.9,232.0 131.1,231.4 132.3,230.8 133.5,230.2 134.7,229.7 135.9,229.1 137.1,228.5 138.3,227.9 139.4,227.3 140.6,226.8 141.8,226.2 143.0,225.6 144.2,225.0 145.4,224.4 146.6,223.9 147.7,223.3 148.9,222.7 150.1,222.1 151.3,221.6 152.5,221.0 153.7,220.4 154.9,219.9 156.1,219.3 157.2,218.7 158.4,218.1 159.6,217.6 160.8,217.0 162.0,216.4 163.2,215.9 164.4,215.3 165.5,214.7 166.7,214.2 167.9,213.6 169.1,213.0 170.3,212.5 171.5,211.9 172.7,211.4 173.9,210.8 175.0,210.2 176.2,209.7 177.4,209.1 178.6,208.6 179.8,208.0 181.0,207.4 182.2,206.9 183.3,206.3 184.5,205.8 185.7,205.2 186.9,204.7 188.1,204.1 189.3,203.6 190.5,203.0 191.7,202.5 192.8,201.9 194.0,201.4 195.2,200.9 196.4,200.3 197.6,199.8 198.8,199.2 200.0,198.7 201.1,198.2 202.3,197.6 203.5,197.1 204.7,196.6 205.9,196.0 207.1,195.5 208.3,195.0 209.5,194.5 210.6,193.9 211.8,193.4 213.0,192.9 214.2,192.4 215.4,191.8 216.6,191.3 217.8,190.8 218.9,190.3 220.1,189.8 221.3,189.3 222.5,188.8 223.7,188.3 224.9,187.8 226.1,187.3 227.3,186.8 228.4,186.3 229.6,185.8 230.8,185.3 232.0,184.8 233.2,184.3 234.4,183.8 235.6,183.3 236.7,182.8 237.9,182.4 239.1,181.9 240.3,181.4 241.5,181.0 242.7,180.5 243.9,180.0 245.1,179.6 246.2,179.1 247.4,178.7 248.6,178.2 249.8,177.8 251.0,177.3 252.2,176.9 253.4,176.5 254.5,176.0 255.7,175.6 256.9,175.1 258.1,174.7 259.3,174.2 260.5,173.8 261.7,173.3 262.9,172.9 264.0,172.4 265.2,172.0 266.4,171.6 267.6,171.1 268.8,170.7 270.0,170.3 271.2,169.9 272.3,169.5 273.5,169.1 274.7,168.6 275.9,168.2 277.1,167.8 278.3,167.5 279.5,167.1 280.7,166.7 281.8,166.3 283.0,165.9 284.2,165.5 285.4,165.1 286.6,164.7 287.8,164.3 289.0,163.9 290.1,163.5 291.3,163.1 292.5,162.7 293.7,162.3 294.9,161.9 296.1,161.5 297.3,161.1 298.5,160.7 299.6,160.3 300.8,159.9 302.0,159.6 303.2,159.2 304.4,158.8 305.6,158.4 306.8,158.0 307.9,157.6 309.1,157.3 310.3,156.9 311.5,156.5 312.7,156.1 313.9,155.7 315.1,155.3 316.3,154.9 317.4,154.5 318.6,154.1 319.8,153.7 321.0,153.3 322.2,152.9 323.4,152.5 324.6,152.0 325.7,151.6 326.9,151.2 328.1,150.8 329.3,150.4 330.5,150.0 331.7,149.5 332.9,149.1 334.1,148.7 335.2,148.3 336.4,147.8 337.6,147.4 338.8,147.0 340.0,146.6 341.2,146.1 342.4,145.7 343.5,145.3 344.7,144.8 345.9,144.4 347.1,144.0 348.3,143.6 349.5,143.1 350.7,142.7 351.9,142.3 353.0,141.9 354.2,141.5 355.4,141.1 356.6,140.7 357.8,140.3 359.0,139.9 360.2,139.5 361.3,139.1 362.5,138.7 363.7,138.4 364.9,138.0 366.1,137.6 367.3,137.3 368.5,136.9 369.7,136.6 370.8,136.2 372.0,135.9 373.2,135.5 374.4,135.2 375.6,134.8 376.8,134.5 378.0,134.2 379.1,133.8 380.3,133.5 381.5,133.2 382.7,132.8 383.9,132.5 385.1,132.2 386.3,131.8 387.5,131.5 388.6,131.2 389.8,130.9 391.0,130.6 392.2,130.3 393.4,130.0 394.6,129.7 395.8,129.4 396.9,129.1 398.1,128.8 399.3,128.5 400.5,128.3 401.7,128.0 402.9,127.7 404.1,127.4 405.3,127.2 406.4,126.9 407.6,126.6 408.8,126.3 410.0,126.0 411.2,125.8 412.4,125.5 413.6,125.2 414.7,124.9 415.9,124.7 417.1,124.4 418.3,124.1 419.5,123.8 420.7,123.6 421.9,123.3 423.1,123.0 424.2,122.8 425.4,122.5 426.6,122.3 427.8,122.0 429.0,121.7 430.2,121.5 431.4,121.2 432.5,120.9 433.7,120.7 434.9,120.4 436.1,120.1 437.3,119.9 438.5,119.6 439.7,119.3 440.9,119.1 442.0,118.8 443.2,118.5 444.4,118.2 445.6,118.0 446.8,117.7 448.0,117.4 449.2,117.1 450.3,116.8 451.5,116.5 452.7,116.2 453.9,115.9 455.1,115.6 456.3,115.3 457.5,115.0 458.7,114.7 459.8,114.4 461.0,114.1 462.2,113.8 463.4,113.4 464.6,113.1 465.8,112.8 467.0,112.5 468.1,112.2 469.3,111.9 470.5,111.6 471.7,111.3 472.9,111.0 474.1,110.7 475.3,110.4 476.5,110.1 477.6,109.8 478.8,109.5 480.0,109.2 481.2,108.9 482.4,108.6 483.6,108.3 484.8,108.0 485.9,107.6 487.1,107.3 488.3,107.0 489.5,106.7 490.7,106.4 491.9,106.1 493.1,105.7 494.3,105.4 495.4,105.1 496.6,104.8 497.8,104.5 499.0,104.2 500.2,103.9 501.4,103.6 502.6,103.3 503.7,102.9 504.9,102.6 506.1,102.3 507.3,102.0 508.5,101.6 509.7,101.3 510.9,101.0 512.1,100.7 513.2,100.3 514.4,100.0 515.6,99.7 516.8,99.4 518.0,99.1 519.2,98.8 520.4,98.5 521.5,98.2 522.7,97.8 523.9,97.5 525.1,97.2 526.3,96.9 527.5,96.6 528.7,96.2 529.9,95.9 531.0,95.6 532.2,95.3 533.4,94.9 534.6,94.6 535.8,94.3 537.0,94.0 538.2,93.7 539.3,93.4 540.5,93.1 541.7,92.8 542.9,92.5 544.1,92.2 545.3,91.9 546.5,91.6 547.7,91.4 548.8,91.1 550.0,90.8 551.2,90.5 552.4,90.2 553.6,89.9 554.8,89.6 556.0,89.3 557.1,89.0 558.3,88.7 559.5,88.4 560.7,88.1 561.9,87.8 563.1,87.5 564.3,87.3 565.5,87.0 566.6,86.7 567.8,86.4 569.0,86.2 570.2,85.9 571.4,85.6 572.6,85.4 573.8,85.1 574.9,84.8 576.1,84.6 577.3,84.3 578.5,84.1 579.7,83.8 580.9,83.6 582.1,83.3 583.3,83.0 584.4,82.8 585.6,82.5 586.8,82.3 588.0,82.0 589.2,81.8 590.4,81.5 591.6,81.3 592.7,81.0 593.9,80.8 595.1,80.6 596.3,80.3 597.5,80.1 598.7,79.8 599.9,79.6 601.1,79.4 602.2,79.1 603.4,78.9 604.6,78.7 605.8,78.4 607.0,78.2 608.2,78.0 609.4,77.7 610.5,77.5 611.7,77.3 612.9,77.0 614.1,76.8 615.3,76.6 616.5,76.4 617.7,76.1 618.9,75.9 620.0,75.7 621.2,75.5 622.4,75.2 623.6,75.0 624.8,74.8 626.0,74.6 627.2,74.4 628.3,74.1 629.5,73.9 630.7,73.7 631.9,73.5 633.1,73.3 634.3,73.1 635.5,72.9 636.7,72.7 637.8,72.4 639.0,72.2 640.2,72.0 641.4,71.8 642.6,71.6 643.8,71.4 645.0,71.2 646.1,71.0 647.3,70.8 648.5,70.6 649.7,70.4 650.9,70.2 652.1,70.0 653.3,69.8 654.5,69.6 655.6,69.4 656.8,69.2 658.0,69.0 659.2,68.9 660.4,68.7 661.6,68.5 662.8,68.3 663.9,68.1 665.1,67.9 666.3,67.7 667.5,67.5 668.7,67.3 669.9,67.2 671.1,67.0 672.3,66.8 673.4,66.6 674.6,66.4 675.8,66.2 677.0,66.0 678.2,65.8 679.4,65.6 680.6,65.5 681.7,65.3 682.9,65.1 684.1,64.9 685.3,64.7 686.5,64.6 687.7,64.4 688.9,64.2 690.1,64.0 691.2,63.8 692.4,63.7 693.6,63.5 694.8,63.3 696.0,63.2 697.2,63.0 698.4,62.8 699.5,62.6 700.7,62.5 701.9,62.3 703.1,62.1 704.3,62.0 705.5,61.8 706.7,61.7 707.9,61.5 709.0,61.3 710.2,61.2 711.4,61.0 712.6,60.8 713.8,60.7 715.0,60.5 716.2,60.4 717.3,60.2 718.5,60.0 719.7,59.9 720.9,59.7 722.1,59.6 723.3,59.4 724.5,59.3 725.7,59.1 726.8,58.9 728.0,58.8 729.2,58.6 730.4,58.5 731.6,58.3 732.8,58.2 734.0,58.0 735.1,57.8 736.3,57.7 737.5,57.5 738.7,57.4 739.9,57.2 741.1,57.1 742.3,56.9 743.5,56.8 744.6,56.6 745.8,56.5 747.0,56.3 748.2,56.2 749.4,56.0 750.6,55.9 751.8,55.7 752.9,55.6 754.1,55.4 755.3,55.3 756.5,55.1 757.7,55.0 758.9,54.8 760.1,54.7 761.3,54.6 762.4,54.4 763.6,54.3 764.8,54.1 766.0,54.0"/>
<line x1="606" y1="42" x2="628" y2="42" stroke="#0f62fe" stroke-width="2.2"/>
<text x="634" y="46" font-family="Arial" font-size="12">x_m</text>
</svg>