<svg xmlns="http://www.w3.org/2000/svg" width="820" height="320" viewBox="0 0 820 320">
<rect width="100%" height="100%" fill="#ffffff"/>
<text x="54" y="28" font-family="Arial" font-size="18" font-weight="700">Crossrange Position</text>
<line x1="54" y1="266" x2="766" y2="266" stroke="#1f2933"/>
<line x1="54" y1="54" x2="54" y2="266" stroke="#1f2933"/>
<text x="54" y="306" font-family="Arial" font-size="12">time (s)</text>
<text x="596" y="306" font-family="Arial" font-size="12">y (m)</text>
<text x="58" y="68" font-family="Arial" font-size="11">0.782</text>
<text x="58" y="260" font-family="Arial" font-size="11">-79.6</text>
<polyline fill="none" stroke="#0f62fe" stroke-width="2.2" points="54.0,56.1 55.2,55.9 56.4,55.8 57.6,55.7 58.7,55.6 59.9,55.4 61.1,55.3 62.3,55.1 63.5,55.0 64.7,54.9 65.9,54.7 67.1,54.6 68.2,54.5 69.4,54.4 70.6,54.3 71.8,54.2 73.0,54.1 74.2,54.1 75.4,54.0 76.5,54.0 77.7,54.0 78.9,54.0 80.1,54.1 81.3,54.2 82.5,54.3 83.7,54.5 84.9,54.6 86.0,54.9 87.2,55.1 88.4,55.4 89.6,55.7 90.8,56.1 92.0,56.5 93.2,56.9 94.3,57.4 95.5,57.9 96.7,58.5 97.9,59.0 99.1,59.7 100.3,60.3 101.5,61.0 102.7,61.7 103.8,62.4 105.0,63.1 106.2,63.9 107.4,64.6 108.6,65.4 109.8,66.2 111.0,67.0 112.1,67.8 113.3,68.6 114.5,69.4 115.7,70.3 116.9,71.2 118.1,72.1 119.3,73.1 120.5,74.1 121.6,75.2 122.8,76.3 124.0,77.4 125.2,78.5 126.4,79.7 127.6,80.8 128.8,82.0 129.9,83.1 131.1,84.1 132.3,85.1 133.5,86.1 134.7,87.0 135.9,87.8 137.1,88.6 138.3,89.4 139.4,90.1 140.6,90.7 141.8,91.4 143.0,92.2 144.2,92.9 145.4,93.8 146.6,94.7 147.7,95.6 148.9,96.6 150.1,97.6 151.3,98.6 152.5,99.5 153.7,100.3 154.9,101.1 156.1,101.8 157.2,102.5 158.4,103.2 159.6,103.9 160.8,104.6 162.0,105.4 163.2,106.3 164.4,107.2 165.5,108.2 166.7,109.1 167.9,110.1 169.1,111.0 170.3,111.9 171.5,112.7 172.7,113.5 173.9,114.2 175.0,114.9 176.2,115.5 177.4,116.2 178.6,117.0 179.8,117.8 181.0,118.6 182.2,119.5 183.3,120.5 184.5,121.5 185.7,122.4 186.9,123.3 188.1,124.2 189.3,125.0 190.5,125.8 191.7,126.5 192.8,127.2 194.0,127.8 195.2,128.5 196.4,129.2 197.6,129.9 198.8,130.7 200.0,131.5 201.1,132.4 202.3,133.3 203.5,134.3 204.7,135.2 205.9,136.1 207.1,136.9 208.3,137.7 209.5,138.4 210.6,139.1 211.8,139.7 213.0,140.3 214.2,140.9 215.4,141.6 216.6,142.2 217.8,142.9 218.9,143.7 220.1,144.5 221.3,145.4 222.5,146.2 223.7,147.1 224.9,148.0 226.1,148.8 227.3,149.5 228.4,150.2 229.6,150.9 230.8,151.5 232.0,152.0 233.2,152.6 234.4,153.1 235.6,153.6 236.7,154.1 237.9,154.6 239.1,155.0 240.3,155.5 241.5,156.0 242.7,156.6 243.9,157.1 245.1,157.7 246.2,158.3 247.4,159.0 248.6,159.8 249.8,160.6 251.0,161.5 252.2,162.4 253.4,163.2 254.5,164.1 255.7,164.9 256.9,165.6 258.1,166.3 259.3,167.0 260.5,167.5 261.7,168.1 262.9,168.6 264.0,169.0 265.2,169.4 266.4,169.8 267.6,170.2 268.8,170.5 270.0,170.9 271.2,171.2 272.3,171.6 273.5,171.9 274.7,172.3 275.9,172.7 277.1,173.1 278.3,173.5 279.5,173.9 280.7,174.4 281.8,175.0 283.0,175.6 284.2,176.2 285.4,176.9 286.6,177.6 287.8,178.4 289.0,179.2 290.1,180.0 291.3,180.7 292.5,181.5 293.7,182.2 294.9,182.9 296.1,183.5 297.3,184.1 298.5,184.7 299.6,185.3 300.8,185.8 302.0,186.3 303.2,186.8 304.4,187.3 305.6,187.7 306.8,188.2 307.9,188.6 309.1,189.0 310.3,189.4 311.5,189.8 312.7,190.1 313.9,190.5 315.1,191.0 316.3,191.4 317.4,191.8 318.6,192.3 319.8,192.8 321.0,193.3 322.2,193.9 323.4,194.4 324.6,195.0 325.7,195.6 326.9,196.2 328.1,196.9 329.3,197.6 330.5,198.3 331.7,199.0 332.9,199.7 334.1,200.6 335.2,201.4 336.4,202.4 337.6,203.4 338.8,204.4 340.0,205.5 341.2,206.6 342.4,207.8 343.5,209.1 344.7,210.4 345.9,211.7 347.1,213.1 348.3,214.5 349.5,215.9 350.7,217.3 351.9,218.7 353.0,220.1 354.2,221.5 355.4,222.8 356.6,224.2 357.8,225.5 359.0,226.8 360.2,228.2 361.3,229.5 362.5,230.8 363.7,232.0 364.9,233.3 366.1,234.6 367.3,235.9 368.5,237.2 369.7,238.5 370.8,239.9 372.0,241.2 373.2,242.6 374.4,244.0 375.6,245.3 376.8,246.6 378.0,247.8 379.1,249.0 380.3,250.1 381.5,251.1 382.7,252.1 383.9,253.0 385.1,253.9 386.3,254.7 387.5,255.6 388.6,256.4 389.8,257.2 391.0,258.0 392.2,258.8 393.4,259.5 394.6,260.3 395.8,261.0 396.9,261.7 398.1,262.3 399.3,262.9 400.5,263.5 401.7,264.0 402.9,264.5 404.1,264.9 405.3,265.2 406.4,265.5 407.6,265.7 408.8,265.8 410.0,266.0 411.2,266.0 412.4,266.0 413.6,265.9 414.7,265.8 415.9,265.7 417.1,265.5 418.3,265.2 419.5,264.9 420.7,264.6 421.9,264.1 423.1,263.7 424.2,263.2 425.4,262.6 426.6,262.0 427.8,261.3 429.0,260.6 430.2,259.8 431.4,259.0 432.5,258.1 433.7,257.1 434.9,256.1 436.1,255.1 437.3,254.0 438.5,252.8 439.7,251.6 440.9,250.4 442.0,249.1 443.2,247.8 444.4,246.4 445.6,245.0 446.8,243.7 448.0,242.4 449.2,241.1 450.3,239.8 451.5,238.5 452.7,237.3 453.9,236.1 455.1,234.9 456.3,233.8 457.5,232.6 458.7,231.6 459.8,230.5 461.0,229.5 462.2,228.5 463.4,227.5 464.6,226.6 465.8,225.7 467.0,224.8 468.1,223.9 469.3,223.0 470.5,222.1 471.7,221.2 472.9,220.3 474.1,219.4 475.3,218.5 476.5,217.5 477.6,216.4 478.8,215.4 480.0,214.3 481.2,213.1 482.4,212.0 483.6,211.0 484.8,209.9 485.9,209.0 487.1,208.0 488.3,207.2 489.5,206.3 490.7,205.6 491.9,204.8 493.1,204.1 494.3,203.4 495.4,202.6 496.6,201.9 497.8,201.2 499.0,200.4 500.2,199.6 501.4,198.7 502.6,197.8 503.7,196.9 504.9,196.0 506.1,195.2 507.3,194.4 508.5,193.7 509.7,193.1 510.9,192.4 512.1,191.9 513.2,191.4 514.4,190.9 515.6,190.4 516.8,190.0 518.0,189.6 519.2,189.3 520.4,188.9 521.5,188.6 522.7,188.3 523.9,188.0 525.1,187.7 526.3,187.4 527.5,187.1 528.7,186.7 529.9,186.4 531.0,186.0 532.2,185.6 533.4,185.3 534.6,184.9 535.8,184.5 537.0,184.1 538.2,183.8 539.3,183.4 540.5,183.1 541.7,182.8 542.9,182.5 544.1,182.3 545.3,182.1 546.5,181.9 547.7,181.8 548.8,181.7 550.0,181.6 551.2,181.6 552.4,181.6 553.6,181.5 554.8,181.5 556.0,181.4 557.1,181.2 558.3,181.0 559.5,180.8 560.7,180.5 561.9,180.2 563.1,179.9 564.3,179.5 565.5,179.1 566.6,178.7 567.8,178.3 569.0,177.8 570.2,177.4 571.4,177.0 572.6,176.6 573.8,176.1 574.9,175.7 576.1,175.3 577.3,174.8 578.5,174.4 579.7,174.0 580.9,173.6 582.1,173.1 583.3,172.7 584.4,172.3 585.6,171.9 586.8,171.5 588.0,171.1 589.2,170.6 590.4,170.2 591.6,169.7 592.7,169.3 593.9,168.8 595.1,168.4 596.3,168.0 597.5,167.5 598.7,167.1 599.9,166.6 601.1,166.2 602.2,165.8 603.4,165.4 604.6,165.0 605.8,164.6 607.0,164.3 608.2,163.9 609.4,163.5 610.5,163.2 611.7,162.8 612.9,162.4 614.1,162.0 615.3,161.6 616.5,161.2 617.7,160.8 618.9,160.4 620.0,160.0 621.2,159.6 622.4,159.2 623.6,158.8 624.8,158.4 626.0,158.0 627.2,157.6 628.3,157.2 629.5,156.8 630.7,156.4 631.9,155.9 633.1,155.5 634.3,155.1 635.5,154.6 636.7,154.1 637.8,153.7 639.0,153.2 640.2,152.7 641.4,152.2 642.6,151.7 643.8,151.2 645.0,150.7 646.1,150.1 647.3,149.6 648.5,149.1 649.7,148.6 650.9,148.1 652.1,147.6 653.3,147.1 654.5,146.6 655.6,146.2 656.8,145.7 658.0,145.3 659.2,144.8 660.4,144.3 661.6,143.8 662.8,143.3 663.9,142.8 665.1,142.3 666.3,141.8 667.5,141.3 668.7,140.8 669.9,140.3 671.1,139.9 672.3,139.5 673.4,139.1 674.6,138.7 675.8,138.3 677.0,137.9 678.2,137.6 679.4,137.2 680.6,136.9 681.7,136.6 682.9,136.3 684.1,135.9 685.3,135.6 686.5,135.3 687.7,135.1 688.9,134.8 690.1,134.5 691.2,134.2 692.4,134.0 693.6,133.7 694.8,133.5 696.0,133.2 697.2,133.0 698.4,132.7 699.5,132.5 700.7,132.2 701.9,132.0 703.1,131.8 704.3,131.5 705.5,131.3 706.7,131.1 707.9,130.8 709.0,130.6 710.2,130.4 711.4,130.1 712.6,129.9 713.8,129.7 715.0,129.4 716.2,129.2 717.3,128.9 718.5,128.6 719.7,128.4 720.9,128.1 722.1,127.9 723.3,127.6 724.5,127.4 725.7,127.2 726.8,126.9 728.0,126.7 729.2,126.5 730.4,126.3 731.6,126.1 732.8,125.9 734.0,125.7 735.1,125.5 736.3,125.3 737.5,125.1 738.7,124.9 739.9,124.8 741.1,124.6 742.3,124.5 743.5,124.3 744.6,124.1 745.8,124.0 747.0,123.8 748.2,123.7 749.4,123.5 750.6,123.3 751.8,123.2 752.9,123.0 754.1,122.8 755.3,122.5 756.5,122.3 757.7,122.1 758.9,121.8 760.1,121.6 761.3,121.3 762.4,121.1 763.6,120.8 764.8,120.6 766.0,120.3"/>
<line x1="606" y1="42" x2="628" y2="42" stroke="#0f62fe" stroke-width="2.2"/>
<text x="634" y="46" font-family="Arial" font-size="12">y_m</text>
</svg>