<svg xmlns="http://www.w3.org/2000/svg" width="820" height="320" viewBox="0 0 820 320">
<rect width="100%" height="100%" fill="#ffffff"/>
<text x="54" y="28" font-family="Arial" font-size="18" font-weight="700">Velocity Z</text>
<line x1="54" y1="266" x2="766" y2="266" stroke="#1f2933"/>
<line x1="54" y1="54" x2="54" y2="266" stroke="#1f2933"/>
<text x="54" y="306" font-family="Arial" font-size="12">time (s)</text>
<text x="596" y="306" font-family="Arial" font-size="12">vz (m/s)</text>
<text x="58" y="68" font-family="Arial" font-size="11">14</text>
<text x="58" y="260" font-family="Arial" font-size="11">-69.9</text>
<polyline fill="none" stroke="#0f62fe" stroke-width="2.2" points="54.0,54.0 55.2,54.6 56.4,55.2 57.6,55.8 58.7,56.2 59.9,56.6 61.1,57.0 62.3,57.3 63.5,57.6 64.7,57.9 65.9,58.1 67.1,58.3 68.2,58.5 69.4,58.6 70.6,58.8 71.8,58.9 73.0,59.0 74.2,59.1 75.4,59.1 76.5,59.2 77.7,59.2 78.9,59.2 80.1,59.1 81.3,59.1 82.5,59.0 83.7,59.0 84.9,59.0 86.0,59.0 87.2,58.9 88.4,58.9 89.6,58.9 90.8,58.9 92.0,58.9 93.2,58.9 94.3,59.0 95.5,59.0 96.7,59.1 97.9,59.2 99.1,59.3 100.3,59.5 101.5,59.7 102.7,59.9 103.8,60.1 105.0,60.4 106.2,60.7 107.4,61.0 108.6,61.4 109.8,61.7 111.0,62.0 112.1,62.3 113.3,62.6 114.5,63.0 115.7,63.5 116.9,64.4 118.1,65.6 119.3,67.1 120.5,68.9 121.6,70.8 122.8,72.9 124.0,75.2 125.2,77.8 126.4,80.5 127.6,83.3 128.8,85.9 129.9,88.2 131.1,90.0 132.3,92.8 133.5,95.0 134.7,96.7 135.9,97.7 137.1,98.1 138.3,97.8 139.4,97.1 140.6,96.3 141.8,95.2 143.0,94.3 144.2,93.8 145.4,94.0 146.6,95.1 147.7,97.0 148.9,99.5 150.1,102.3 151.3,104.8 152.5,106.8 153.7,108.1 154.9,108.5 156.1,108.1 157.2,107.2 158.4,106.1 159.6,105.0 160.8,104.4 162.0,104.3 163.2,105.1 164.4,106.6 165.5,108.8 166.7,111.4 167.9,114.1 169.1,116.6 170.3,118.4 171.5,119.4 172.7,119.6 173.9,119.0 175.0,117.9 176.2,116.6 177.4,115.6 178.6,115.0 179.8,115.0 181.0,115.7 182.2,117.2 183.3,119.3 184.5,121.8 185.7,124.4 186.9,127.0 188.1,129.1 189.3,130.3 190.5,130.6 191.7,130.2 192.8,129.2 194.0,128.1 195.2,127.1 196.4,126.4 197.6,126.2 198.8,126.6 200.0,127.6 201.1,129.2 202.3,131.4 203.5,133.9 204.7,136.6 205.9,139.2 207.1,141.3 208.3,142.7 209.5,143.0 210.6,142.7 211.8,142.0 213.0,141.2 214.2,140.4 215.4,139.8 216.6,139.6 217.8,139.9 218.9,140.7 220.1,142.2 221.3,144.3 222.5,146.7 223.7,149.3 224.9,152.0 226.1,154.3 227.3,154.8 228.4,154.9 229.6,154.5 230.8,153.8 232.0,153.0 233.2,152.1 234.4,151.9 235.6,151.5 236.7,151.2 237.9,150.8 239.1,150.5 240.3,150.2 241.5,149.9 242.7,149.8 243.9,149.8 245.1,149.9 246.2,150.2 247.4,150.8 248.6,151.7 249.8,153.0 251.0,154.3 252.2,156.4 253.4,158.8 254.5,160.8 255.7,162.4 256.9,163.7 258.1,164.5 259.3,164.9 260.5,165.0 261.7,164.8 262.9,164.5 264.0,164.1 265.2,163.6 266.4,163.1 267.6,162.6 268.8,162.1 270.0,161.5 271.2,161.0 272.3,160.5 273.5,159.8 274.7,159.2 275.9,158.4 277.1,157.6 278.3,156.8 279.5,156.1 280.7,155.5 281.8,155.1 283.0,155.0 284.2,155.4 285.4,156.3 286.6,157.6 287.8,159.4 289.0,161.6 290.1,164.0 291.3,166.3 292.5,168.7 293.7,171.0 294.9,173.3 296.1,175.5 297.3,177.7 298.5,179.9 299.6,182.1 300.8,184.3 302.0,186.5 303.2,188.8 304.4,191.2 305.6,193.5 306.8,195.9 307.9,198.2 309.1,200.6 310.3,202.9 311.5,205.0 312.7,206.5 313.9,207.1 315.1,207.3 316.3,207.2 317.4,207.0 318.6,206.7 319.8,206.1 321.0,205.4 322.2,204.6 323.4,203.7 324.6,202.8 325.7,201.8 326.9,200.8 328.1,199.9 329.3,199.1 330.5,198.2 331.7,197.5 332.9,197.7 334.1,198.2 335.2,198.7 336.4,199.2 337.6,199.9 338.8,200.9 340.0,202.1 341.2,203.4 342.4,204.8 343.5,206.0 344.7,207.7 345.9,210.1 347.1,212.5 348.3,214.8 349.5,217.0 350.7,219.2 351.9,221.4 353.0,223.5 354.2,225.3 355.4,227.0 356.6,228.4 357.8,229.5 359.0,230.5 360.2,231.4 361.3,232.2 362.5,232.9 363.7,233.3 364.9,233.9 366.1,234.7 367.3,235.6 368.5,236.7 369.7,238.0 370.8,239.5 372.0,241.3 373.2,243.6 374.4,245.9 375.6,248.0 376.8,249.9 378.0,251.3 379.1,252.0 380.3,252.4 381.5,252.5 382.7,252.4 383.9,252.2 385.1,251.4 386.3,250.7 387.5,250.0 388.6,249.5 389.8,249.1 391.0,248.8 392.2,248.9 393.4,249.3 394.6,250.1 395.8,251.1 396.9,252.4 398.1,254.0 399.3,255.7 400.5,257.3 401.7,258.6 402.9,259.7 404.1,260.6 405.3,261.6 406.4,261.6 407.6,261.4 408.8,261.1 410.0,260.9 411.2,260.6 412.4,260.3 413.6,259.9 414.7,259.3 415.9,258.9 417.1,258.6 418.3,258.5 419.5,257.7 420.7,257.0 421.9,256.4 423.1,256.0 424.2,255.6 425.4,255.4 426.6,255.0 427.8,254.6 429.0,254.1 430.2,253.6 431.4,253.2 432.5,252.9 433.7,252.9 434.9,252.5 436.1,252.3 437.3,252.3 438.5,252.5 439.7,252.9 440.9,253.4 442.0,253.8 443.2,254.2 444.4,254.8 445.6,255.2 446.8,255.1 448.0,255.0 449.2,254.8 450.3,254.5 451.5,254.1 452.7,253.4 453.9,252.5 455.1,251.5 456.3,250.4 457.5,249.7 458.7,248.9 459.8,247.9 461.0,246.8 462.2,245.7 463.4,244.6 464.6,243.5 465.8,242.3 467.0,241.1 468.1,239.7 469.3,238.4 470.5,237.0 471.7,235.5 472.9,234.1 474.1,232.9 475.3,231.8 476.5,231.0 477.6,230.4 478.8,230.2 480.0,230.5 481.2,231.1 482.4,231.6 483.6,232.3 484.8,232.8 485.9,233.1 487.1,233.0 488.3,232.5 489.5,232.3 490.7,231.6 491.9,230.5 493.1,229.2 494.3,227.9 495.4,226.5 496.6,225.1 497.8,223.9 499.0,222.9 500.2,222.5 501.4,222.6 502.6,223.5 503.7,224.9 504.9,226.4 506.1,227.8 507.3,229.1 508.5,230.4 509.7,231.8 510.9,232.5 512.1,232.7 513.2,232.5 514.4,231.8 515.6,230.9 516.8,229.8 518.0,228.6 519.2,227.4 520.4,226.2 521.5,225.1 522.7,224.1 523.9,223.4 525.1,223.1 526.3,223.5 527.5,224.7 528.7,226.6 529.9,229.0 531.0,231.5 532.2,233.9 533.4,235.8 534.6,237.4 535.8,238.5 537.0,239.1 538.2,239.3 539.3,239.1 540.5,238.6 541.7,238.0 542.9,237.2 544.1,236.4 545.3,235.6 546.5,234.7 547.7,234.0 548.8,233.5 550.0,233.2 551.2,233.3 552.4,233.7 553.6,234.5 554.8,236.0 556.0,238.0 557.1,239.9 558.3,241.4 559.5,242.6 560.7,243.5 561.9,244.0 563.1,244.2 564.3,244.0 565.5,243.6 566.6,243.1 567.8,242.5 569.0,241.7 570.2,242.3 571.4,242.8 572.6,243.3 573.8,243.8 574.9,244.2 576.1,244.4 577.3,244.4 578.5,244.4 579.7,244.3 580.9,244.2 582.1,244.1 583.3,244.1 584.4,243.9 585.6,244.4 586.8,245.2 588.0,245.8 589.2,246.2 590.4,246.6 591.6,247.0 592.7,247.2 593.9,247.3 595.1,247.4 596.3,247.3 597.5,247.3 598.7,247.2 599.9,247.2 601.1,247.4 602.2,247.5 603.4,247.5 604.6,247.5 605.8,247.4 607.0,247.3 608.2,247.3 609.4,247.2 610.5,247.2 611.7,247.3 612.9,247.3 614.1,247.3 615.3,247.4 616.5,247.5 617.7,247.5 618.9,247.8 620.0,248.4 621.2,249.1 622.4,249.8 623.6,250.5 624.8,251.1 626.0,251.7 627.2,252.2 628.3,252.6 629.5,253.0 630.7,253.3 631.9,253.7 633.1,254.0 634.3,254.3 635.5,254.6 636.7,255.0 637.8,255.3 639.0,255.6 640.2,255.9 641.4,256.3 642.6,256.7 643.8,257.2 645.0,257.7 646.1,258.3 647.3,258.9 648.5,259.5 649.7,259.7 650.9,259.9 652.1,260.1 653.3,260.2 654.5,260.2 655.6,260.2 656.8,260.2 658.0,260.2 659.2,260.2 660.4,260.2 661.6,260.2 662.8,260.3 663.9,260.5 665.1,261.0 666.3,261.6 667.5,262.2 668.7,262.5 669.9,262.6 671.1,262.7 672.3,262.7 673.4,262.6 674.6,262.5 675.8,262.5 677.0,262.7 678.2,263.1 679.4,263.4 680.6,263.5 681.7,263.5 682.9,263.5 684.1,263.5 685.3,263.4 686.5,263.4 687.7,263.3 688.9,263.3 690.1,263.4 691.2,263.4 692.4,263.4 693.6,263.5 694.8,263.5 696.0,263.5 697.2,263.4 698.4,263.4 699.5,263.3 700.7,263.3 701.9,263.2 703.1,263.1 704.3,263.0 705.5,262.9 706.7,262.8 707.9,262.7 709.0,262.6 710.2,262.5 711.4,262.3 712.6,262.2 713.8,262.0 715.0,261.9 716.2,261.9 717.3,261.9 718.5,261.9 719.7,262.3 720.9,262.4 722.1,262.5 723.3,262.5 724.5,262.4 725.7,262.4 726.8,262.3 728.0,262.4 729.2,262.4 730.4,262.5 731.6,262.5 732.8,262.4 734.0,262.4 735.1,262.9 736.3,263.3 737.5,263.6 738.7,263.8 739.9,264.0 741.1,264.1 742.3,264.1 743.5,264.0 744.6,263.9 745.8,263.8 747.0,263.7 748.2,264.0 749.4,264.2 750.6,264.3 751.8,264.5 752.9,264.8 754.1,265.1 755.3,265.4 756.5,265.6 757.7,265.8 758.9,266.0 760.1,266.0 761.3,265.9 762.4,265.7 763.6,265.4 764.8,265.2 766.0,265.2"/>
<line x1="606" y1="42" x2="628" y2="42" stroke="#0f62fe" stroke-width="2.2"/>
<text x="634" y="46" font-family="Arial" font-size="12">vz_mps</text>
</svg>