<svg xmlns="http://www.w3.org/2000/svg" width="820" height="320" viewBox="0 0 820 320">
<rect width="100%" height="100%" fill="#ffffff"/>
<text x="54" y="28" font-family="Arial" font-size="18" font-weight="700">Mach Number</text>
<line x1="54" y1="266" x2="766" y2="266" stroke="#1f2933"/>
<line x1="54" y1="54" x2="54" y2="266" stroke="#1f2933"/>
<text x="54" y="306" font-family="Arial" font-size="12">time (s)</text>
<text x="596" y="306" font-family="Arial" font-size="12">Mach</text>
<text x="58" y="68" font-family="Arial" font-size="11">0.339</text>
<text x="58" y="260" font-family="Arial" font-size="11">0.224</text>
<polyline fill="none" stroke="#0f62fe" stroke-width="2.2" points="54.0,206.9 55.2,203.6 56.4,203.3 57.6,201.0 58.7,199.8 59.9,196.7 61.1,196.4 62.3,188.5 63.5,186.2 64.7,181.6 65.9,179.9 67.1,176.6 68.2,174.9 69.4,171.1 70.6,167.9 71.8,166.3 73.0,160.6 74.2,156.8 75.4,154.1 76.5,150.9 77.7,146.4 78.9,143.7 80.1,141.6 81.3,139.5 82.5,139.5 83.7,138.2 84.9,136.1 86.0,132.6 87.2,131.1 88.4,127.5 89.6,125.2 90.8,123.8 92.0,120.4 93.2,120.7 94.3,120.7 95.5,117.4 96.7,117.6 97.9,116.0 99.1,113.5 100.3,110.1 101.5,107.4 102.7,102.9 103.8,99.8 105.0,96.0 106.2,92.9 107.4,86.1 108.6,85.7 109.8,81.7 111.0,77.0 112.1,72.4 113.3,69.1 114.5,68.2 115.7,67.8 116.9,65.3 118.1,62.7 119.3,60.0 120.5,60.4 121.6,56.6 122.8,58.5 124.0,54.0 125.2,54.2 126.4,57.0 127.6,54.8 128.8,57.7 129.9,59.1 131.1,58.2 132.3,58.1 133.5,59.9 134.7,62.1 135.9,62.9 137.1,66.3 138.3,69.3 139.4,67.4 140.6,66.9 141.8,66.2 143.0,64.8 144.2,64.8 145.4,62.2 146.6,62.9 147.7,62.7 148.9,64.7 150.1,64.3 151.3,68.0 152.5,68.7 153.7,70.6 154.9,73.9 156.1,75.5 157.2,75.0 158.4,75.1 159.6,74.1 160.8,73.9 162.0,72.8 163.2,76.4 164.4,80.0 165.5,77.5 166.7,75.9 167.9,75.5 169.1,74.6 170.3,77.5 171.5,79.4 172.7,82.1 173.9,82.0 175.0,82.1 176.2,84.2 177.4,85.4 178.6,84.1 179.8,83.3 181.0,86.6 182.2,87.0 183.3,86.6 184.5,87.2 185.7,87.2 186.9,88.3 188.1,90.7 189.3,92.3 190.5,92.1 191.7,94.7 192.8,100.2 194.0,103.2 195.2,106.0 196.4,107.4 197.6,108.8 198.8,112.1 200.0,111.7 201.1,111.0 202.3,109.1 203.5,109.1 204.7,109.1 205.9,105.6 207.1,106.2 208.3,106.5 209.5,108.7 210.6,110.9 211.8,116.4 213.0,119.1 214.2,123.5 215.4,128.8 216.6,131.3 217.8,132.4 218.9,132.7 220.1,135.8 221.3,133.3 222.5,132.8 223.7,132.6 224.9,130.5 226.1,130.0 227.3,130.6 228.4,134.3 229.6,137.2 230.8,141.2 232.0,142.5 233.2,143.8 234.4,148.7 235.6,153.4 236.7,158.6 237.9,161.8 239.1,165.5 240.3,167.8 241.5,173.8 242.7,175.2 243.9,179.2 245.1,182.7 246.2,183.3 247.4,183.0 248.6,180.4 249.8,179.1 251.0,180.0 252.2,177.7 253.4,177.4 254.5,176.5 255.7,175.5 256.9,172.6 258.1,172.0 259.3,173.2 260.5,175.1 261.7,179.3 262.9,184.4 264.0,189.0 265.2,193.0 266.4,194.5 267.6,199.9 268.8,206.0 270.0,211.4 271.2,216.3 272.3,220.4 273.5,223.7 274.7,227.7 275.9,231.0 277.1,234.2 278.3,238.5 279.5,239.9 280.7,241.4 281.8,243.2 283.0,246.2 284.2,246.6 285.4,243.4 286.6,240.8 287.8,237.5 289.0,234.7 290.1,231.8 291.3,228.0 292.5,225.4 293.7,226.2 294.9,226.8 296.1,225.0 297.3,225.0 298.5,225.3 299.6,225.0 300.8,223.6 302.0,223.6 303.2,220.6 304.4,218.7 305.6,217.2 306.8,215.9 307.9,213.3 309.1,210.2 310.3,205.5 311.5,202.2 312.7,199.4 313.9,196.7 315.1,191.8 316.3,187.3 317.4,185.6 318.6,183.1 319.8,180.2 321.0,179.1 322.2,178.3 323.4,176.0 324.6,175.9 325.7,174.9 326.9,176.6 328.1,175.6 329.3,173.0 330.5,171.1 331.7,169.8 332.9,165.1 334.1,165.1 335.2,162.0 336.4,159.4 337.6,157.0 338.8,155.0 340.0,151.0 341.2,147.7 342.4,142.3 343.5,142.0 344.7,140.0 345.9,137.6 347.1,138.0 348.3,136.0 349.5,135.5 350.7,136.0 351.9,134.9 353.0,134.6 354.2,137.0 355.4,138.8 356.6,140.6 357.8,144.8 359.0,149.1 360.2,150.6 361.3,153.6 362.5,155.7 363.7,161.5 364.9,166.4 366.1,167.9 367.3,169.4 368.5,170.2 369.7,170.3 370.8,170.7 372.0,170.8 373.2,169.2 374.4,167.7 375.6,168.1 376.8,163.9 378.0,162.4 379.1,163.8 380.3,163.5 381.5,164.9 382.7,167.9 383.9,171.6 385.1,174.8 386.3,176.9 387.5,180.3 388.6,181.9 389.8,186.4 391.0,188.5 392.2,192.2 393.4,194.6 394.6,195.9 395.8,196.2 396.9,198.0 398.1,195.9 399.3,196.8 400.5,195.1 401.7,192.8 402.9,193.1 404.1,192.3 405.3,192.0 406.4,192.5 407.6,195.4 408.8,196.3 410.0,196.9 411.2,199.1 412.4,199.8 413.6,201.1 414.7,202.7 415.9,204.4 417.1,204.6 418.3,206.7 419.5,207.5 420.7,209.4 421.9,211.0 423.1,212.2 424.2,211.3 425.4,213.4 426.6,213.9 427.8,213.4 429.0,216.1 430.2,216.1 431.4,218.4 432.5,217.7 433.7,219.1 434.9,219.2 436.1,218.3 437.3,218.6 438.5,216.8 439.7,215.5 440.9,212.1 442.0,209.1 443.2,205.4 444.4,200.6 445.6,197.9 446.8,196.0 448.0,194.1 449.2,191.4 450.3,190.9 451.5,190.1 452.7,189.4 453.9,192.3 455.1,192.1 456.3,191.8 457.5,192.1 458.7,192.5 459.8,193.6 461.0,194.2 462.2,195.0 463.4,197.1 464.6,198.6 465.8,200.3 467.0,203.6 468.1,204.9 469.3,206.1 470.5,209.8 471.7,214.4 472.9,217.1 474.1,221.0 475.3,223.6 476.5,223.1 477.6,225.8 478.8,224.9 480.0,223.5 481.2,221.5 482.4,220.2 483.6,217.9 484.8,215.5 485.9,213.8 487.1,215.1 488.3,217.1 489.5,222.3 490.7,225.0 491.9,226.0 493.1,231.9 494.3,235.6 495.4,240.2 496.6,244.3 497.8,245.5 499.0,244.9 500.2,244.8 501.4,243.0 502.6,239.4 503.7,235.7 504.9,230.8 506.1,226.9 507.3,223.0 508.5,221.1 509.7,222.3 510.9,221.5 512.1,222.9 513.2,224.5 514.4,229.5 515.6,230.3 516.8,233.7 518.0,234.8 519.2,236.0 520.4,238.4 521.5,241.7 522.7,240.4 523.9,239.2 525.1,237.9 526.3,236.3 527.5,232.5 528.7,228.2 529.9,225.7 531.0,224.3 532.2,223.4 533.4,225.3 534.6,225.6 535.8,226.9 537.0,230.5 538.2,231.6 539.3,234.1 540.5,239.5 541.7,243.1 542.9,245.1 544.1,246.0 545.3,249.0 546.5,247.9 547.7,248.5 548.8,248.8 550.0,248.9 551.2,244.5 552.4,242.3 553.6,237.1 554.8,233.2 556.0,230.4 557.1,229.2 558.3,228.9 559.5,226.6 560.7,227.2 561.9,228.5 563.1,230.4 564.3,232.0 565.5,234.2 566.6,236.1 567.8,239.4 569.0,244.0 570.2,243.7 571.4,242.9 572.6,242.1 573.8,243.2 574.9,244.9 576.1,246.5 577.3,246.8 578.5,247.1 579.7,248.1 580.9,249.0 582.1,248.7 583.3,248.4 584.4,249.4 585.6,248.3 586.8,249.3 588.0,250.1 589.2,250.5 590.4,251.5 591.6,251.0 592.7,251.6 593.9,253.8 595.1,254.7 596.3,254.6 597.5,254.0 598.7,253.7 599.9,254.6 601.1,255.1 602.2,254.6 603.4,253.6 604.6,255.2 605.8,256.1 607.0,255.6 608.2,257.3 609.4,258.8 610.5,260.5 611.7,260.9 612.9,261.2 614.1,262.3 615.3,264.6 616.5,266.0 617.7,265.3 618.9,263.7 620.0,261.5 621.2,260.3 622.4,261.0 623.6,262.0 624.8,263.1 626.0,261.4 627.2,261.4 628.3,260.1 629.5,258.8 630.7,258.0 631.9,257.3 633.1,257.5 634.3,257.2 635.5,259.0 636.7,257.9 637.8,258.4 639.0,258.2 640.2,257.6 641.4,256.8 642.6,257.0 643.8,256.2 645.0,255.5 646.1,256.4 647.3,256.2 648.5,255.9 649.7,256.7 650.9,255.9 652.1,254.8 653.3,256.0 654.5,257.6 655.6,257.7 656.8,256.4 658.0,255.7 659.2,254.3 660.4,254.4 661.6,253.6 662.8,254.0 663.9,255.1 665.1,252.8 666.3,252.5 667.5,252.6 668.7,251.8 669.9,252.6 671.1,251.9 672.3,251.8 673.4,250.6 674.6,252.5 675.8,251.0 677.0,252.0 678.2,251.7 679.4,253.0 680.6,253.9 681.7,255.0 682.9,255.0 684.1,255.9 685.3,256.0 686.5,256.4 687.7,255.1 688.9,255.0 690.1,254.2 691.2,254.8 692.4,254.8 693.6,254.7 694.8,256.4 696.0,255.1 697.2,254.7 698.4,256.0 699.5,257.4 700.7,256.7 701.9,256.8 703.1,258.1 704.3,257.2 705.5,257.2 706.7,256.7 707.9,257.0 709.0,257.3 710.2,257.7 711.4,259.1 712.6,261.2 713.8,261.4 715.0,262.6 716.2,261.7 717.3,261.8 718.5,261.2 719.7,260.5 720.9,260.4 722.1,261.3 723.3,262.4 724.5,262.1 725.7,262.4 726.8,262.3 728.0,262.2 729.2,261.5 730.4,260.3 731.6,260.5 732.8,260.8 734.0,261.5 735.1,261.3 736.3,261.4 737.5,261.7 738.7,262.3 739.9,262.6 741.1,262.0 742.3,261.5 743.5,262.3 744.6,261.4 745.8,261.7 747.0,262.9 748.2,261.7 749.4,260.2 750.6,262.4 751.8,262.0 752.9,262.5 754.1,260.6 755.3,261.0 756.5,261.7 757.7,260.3 758.9,260.7 760.1,260.7 761.3,262.1 762.4,263.1 763.6,263.9 764.8,263.7 766.0,263.3"/>
<line x1="606" y1="42" x2="628" y2="42" stroke="#0f62fe" stroke-width="2.2"/>
<text x="634" y="46" font-family="Arial" font-size="12">mach</text>
</svg>