<svg xmlns="http://www.w3.org/2000/svg" width="820" height="320" viewBox="0 0 820 320">
<rect width="100%" height="100%" fill="#ffffff"/>
<text x="54" y="28" font-family="Arial" font-size="18" font-weight="700">Dynamic Pressure</text>
<line x1="54" y1="266" x2="766" y2="266" stroke="#1f2933"/>
<line x1="54" y1="54" x2="54" y2="266" stroke="#1f2933"/>
<text x="54" y="306" font-family="Arial" font-size="12">time (s)</text>
<text x="596" y="306" font-family="Arial" font-size="12">qbar (Pa)</text>
<text x="58" y="68" font-family="Arial" font-size="11">7.19e+03</text>
<text x="58" y="260" font-family="Arial" font-size="11">3.35e+03</text>
<polyline fill="none" stroke="#0f62fe" stroke-width="2.2" points="54.0,224.0 55.2,220.8 56.4,220.6 57.6,218.3 58.7,217.2 59.9,214.2 61.1,213.9 62.3,206.0 63.5,203.7 64.7,199.1 65.9,197.4 67.1,194.1 68.2,192.3 69.4,188.4 70.6,185.1 71.8,183.5 73.0,177.4 74.2,173.5 75.4,170.6 76.5,167.2 77.7,162.4 78.9,159.4 80.1,157.1 81.3,154.9 82.5,154.9 83.7,153.5 84.9,151.1 86.0,147.3 87.2,145.6 88.4,141.5 89.6,139.0 90.8,137.5 92.0,133.6 93.2,134.0 94.3,134.0 95.5,130.3 96.7,130.4 97.9,128.6 99.1,125.8 100.3,121.8 101.5,118.7 102.7,113.6 103.8,109.9 105.0,105.4 106.2,101.7 107.4,93.6 108.6,93.1 109.8,88.3 111.0,82.5 112.1,76.9 113.3,72.8 114.5,71.8 115.7,71.2 116.9,68.1 118.1,65.0 119.3,61.6 120.5,62.1 121.6,57.3 122.8,59.7 124.0,54.0 125.2,54.2 126.4,57.9 127.6,55.0 128.8,58.7 129.9,60.4 131.1,59.3 132.3,59.2 133.5,61.5 134.7,64.2 135.9,65.3 137.1,69.5 138.3,73.2 139.4,70.8 140.6,70.2 141.8,69.3 143.0,67.6 144.2,67.6 145.4,64.3 146.6,65.2 147.7,64.9 148.9,67.5 150.1,66.9 151.3,71.5 152.5,72.4 153.7,74.8 154.9,78.9 156.1,80.8 157.2,80.1 158.4,80.2 159.6,79.0 160.8,78.8 162.0,77.4 163.2,81.8 164.4,86.2 165.5,83.1 166.7,81.2 167.9,80.6 169.1,79.5 170.3,83.1 171.5,85.4 172.7,88.7 173.9,88.6 175.0,88.6 176.2,91.1 177.4,92.6 178.6,91.0 179.8,90.0 181.0,94.0 182.2,94.5 183.3,94.0 184.5,94.6 185.7,94.7 186.9,96.0 188.1,98.8 189.3,100.8 190.5,100.5 191.7,103.5 192.8,110.1 194.0,113.6 195.2,116.8 196.4,118.4 197.6,120.0 198.8,123.9 200.0,123.4 201.1,122.5 202.3,120.3 203.5,120.3 204.7,120.3 205.9,116.1 207.1,116.8 208.3,117.1 209.5,119.7 210.6,122.3 211.8,128.5 213.0,131.6 214.2,136.6 215.4,142.5 216.6,145.3 217.8,146.5 218.9,146.8 220.1,150.2 221.3,147.5 222.5,146.9 223.7,146.7 224.9,144.2 226.1,143.7 227.3,144.3 228.4,148.4 229.6,151.6 230.8,156.0 232.0,157.4 233.2,158.7 234.4,164.0 235.6,169.1 236.7,174.6 237.9,178.0 239.1,181.9 240.3,184.3 241.5,190.5 242.7,191.9 243.9,196.0 245.1,199.5 246.2,200.1 247.4,199.8 248.6,197.2 249.8,195.7 251.0,196.6 252.2,194.3 253.4,193.9 254.5,193.0 255.7,192.0 256.9,188.9 258.1,188.3 259.3,189.5 260.5,191.4 261.7,195.7 262.9,200.9 264.0,205.5 265.2,209.4 266.4,210.9 267.6,216.2 268.8,222.1 270.0,227.3 271.2,232.0 272.3,235.8 273.5,238.8 274.7,242.6 275.9,245.6 277.1,248.5 278.3,252.4 279.5,253.6 280.7,254.9 281.8,256.5 283.0,259.2 284.2,259.6 285.4,256.7 286.6,254.3 287.8,251.3 289.0,248.8 290.1,246.1 291.3,242.5 292.5,240.1 293.7,240.8 294.9,241.3 296.1,239.7 297.3,239.6 298.5,239.9 299.6,239.6 300.8,238.3 302.0,238.2 303.2,235.4 304.4,233.5 305.6,232.1 306.8,230.8 307.9,228.3 309.1,225.3 310.3,220.7 311.5,217.4 312.7,214.6 313.9,211.9 315.1,207.0 316.3,202.5 317.4,200.7 318.6,198.0 319.8,195.0 321.0,193.9 322.2,193.0 323.4,190.6 324.6,190.5 325.7,189.4 326.9,191.1 328.1,190.0 329.3,187.3 330.5,185.2 331.7,183.8 332.9,178.8 334.1,178.8 335.2,175.5 336.4,172.6 337.6,170.0 338.8,167.8 340.0,163.4 341.2,159.8 342.4,153.8 343.5,153.4 344.7,151.1 345.9,148.4 347.1,148.7 348.3,146.5 349.5,145.9 350.7,146.4 351.9,145.1 353.0,144.7 354.2,147.3 355.4,149.3 356.6,151.3 357.8,155.8 359.0,160.4 360.2,162.1 361.3,165.3 362.5,167.5 363.7,173.7 364.9,178.8 366.1,180.5 367.3,181.9 368.5,182.7 369.7,182.8 370.8,183.1 372.0,183.1 373.2,181.4 374.4,179.8 375.6,180.2 376.8,175.6 378.0,174.0 379.1,175.4 380.3,175.0 381.5,176.4 382.7,179.6 383.9,183.4 385.1,186.7 386.3,188.8 387.5,192.4 388.6,193.9 389.8,198.5 391.0,200.6 392.2,204.3 393.4,206.7 394.6,207.9 395.8,208.2 396.9,210.0 398.1,207.8 399.3,208.7 400.5,206.9 401.7,204.5 402.9,204.7 404.1,203.8 405.3,203.5 406.4,203.9 407.6,206.8 408.8,207.6 410.0,208.2 411.2,210.3 412.4,211.0 413.6,212.2 414.7,213.7 415.9,215.4 417.1,215.5 418.3,217.6 419.5,218.3 420.7,220.1 421.9,221.6 423.1,222.8 424.2,221.8 425.4,223.8 426.6,224.3 427.8,223.8 429.0,226.3 430.2,226.2 431.4,228.4 432.5,227.7 433.7,229.0 434.9,229.0 436.1,228.1 437.3,228.3 438.5,226.5 439.7,225.2 440.9,221.8 442.0,218.9 443.2,215.1 444.4,210.3 445.6,207.5 446.8,205.5 448.0,203.5 449.2,200.6 450.3,200.1 451.5,199.2 452.7,198.4 453.9,201.3 455.1,201.1 456.3,200.7 457.5,201.0 458.7,201.3 459.8,202.4 461.0,202.9 462.2,203.7 463.4,205.8 464.6,207.3 465.8,209.0 467.0,212.2 468.1,213.5 469.3,214.7 470.5,218.3 471.7,222.8 472.9,225.4 474.1,229.2 475.3,231.6 476.5,231.0 477.6,233.6 478.8,232.7 480.0,231.3 481.2,229.3 482.4,228.0 483.6,225.7 484.8,223.4 485.9,221.6 487.1,222.9 488.3,224.8 489.5,229.8 490.7,232.4 491.9,233.3 493.1,238.9 494.3,242.3 495.4,246.6 496.6,250.4 497.8,251.5 499.0,250.9 500.2,250.7 501.4,249.0 502.6,245.6 503.7,242.1 504.9,237.4 506.1,233.6 507.3,229.9 508.5,227.9 509.7,229.1 510.9,228.2 512.1,229.6 513.2,231.0 514.4,235.8 515.6,236.6 516.8,239.7 518.0,240.7 519.2,241.8 520.4,244.1 521.5,247.1 522.7,245.8 523.9,244.7 525.1,243.5 526.3,241.9 527.5,238.2 528.7,234.0 529.9,231.6 531.0,230.2 532.2,229.2 533.4,231.1 534.6,231.3 535.8,232.6 537.0,236.0 538.2,236.9 539.3,239.3 540.5,244.4 541.7,247.7 542.9,249.5 544.1,250.4 545.3,253.0 546.5,252.0 547.7,252.5 548.8,252.8 550.0,252.8 551.2,248.7 552.4,246.6 553.6,241.6 554.8,237.9 556.0,235.2 557.1,233.9 558.3,233.6 559.5,231.4 560.7,231.9 561.9,233.1 563.1,234.9 564.3,236.4 565.5,238.4 566.6,240.2 567.8,243.3 569.0,247.6 570.2,247.2 571.4,246.4 572.6,245.6 573.8,246.6 574.9,248.1 576.1,249.6 577.3,249.9 578.5,250.1 579.7,251.0 580.9,251.8 582.1,251.5 583.3,251.2 584.4,252.0 585.6,250.9 586.8,251.8 588.0,252.5 589.2,252.8 590.4,253.7 591.6,253.2 592.7,253.8 593.9,255.7 595.1,256.5 596.3,256.4 597.5,255.8 598.7,255.4 599.9,256.3 601.1,256.6 602.2,256.2 603.4,255.2 604.6,256.6 605.8,257.4 607.0,256.9 608.2,258.4 609.4,259.7 610.5,261.2 611.7,261.5 612.9,261.8 614.1,262.8 615.3,264.8 616.5,266.0 617.7,265.3 618.9,263.8 620.0,261.8 621.2,260.7 622.4,261.2 623.6,262.1 624.8,263.1 626.0,261.5 627.2,261.4 628.3,260.2 629.5,259.0 630.7,258.3 631.9,257.6 633.1,257.6 634.3,257.4 635.5,259.0 636.7,257.9 637.8,258.3 639.0,258.1 640.2,257.5 641.4,256.7 642.6,256.9 643.8,256.1 645.0,255.4 646.1,256.1 647.3,255.9 648.5,255.6 649.7,256.3 650.9,255.5 652.1,254.4 653.3,255.5 654.5,256.9 655.6,256.9 656.8,255.7 658.0,255.0 659.2,253.7 660.4,253.7 661.6,252.9 662.8,253.2 663.9,254.3 665.1,252.1 666.3,251.7 667.5,251.7 668.7,250.9 669.9,251.6 671.1,251.0 672.3,250.8 673.4,249.6 674.6,251.4 675.8,249.9 677.0,250.8 678.2,250.4 679.4,251.6 680.6,252.4 681.7,253.4 682.9,253.3 684.1,254.2 685.3,254.2 686.5,254.6 687.7,253.3 688.9,253.2 690.1,252.4 691.2,252.8 692.4,252.8 693.6,252.6 694.8,254.2 696.0,253.0 697.2,252.5 698.4,253.7 699.5,254.9 700.7,254.3 701.9,254.2 703.1,255.4 704.3,254.5 705.5,254.5 706.7,254.0 707.9,254.2 709.0,254.5 710.2,254.8 711.4,256.0 712.6,257.9 713.8,258.1 715.0,259.2 716.2,258.2 717.3,258.3 718.5,257.7 719.7,257.0 720.9,256.9 722.1,257.6 723.3,258.6 724.5,258.3 725.7,258.5 726.8,258.3 728.0,258.2 729.2,257.6 730.4,256.4 731.6,256.5 732.8,256.7 734.0,257.4 735.1,257.1 736.3,257.2 737.5,257.4 738.7,257.9 739.9,258.1 741.1,257.5 742.3,257.0 743.5,257.7 744.6,256.8 745.8,257.0 747.0,258.1 748.2,256.9 749.4,255.5 750.6,257.5 751.8,257.1 752.9,257.5 754.1,255.7 755.3,256.1 756.5,256.6 757.7,255.3 758.9,255.6 760.1,255.5 761.3,256.8 762.4,257.7 763.6,258.4 764.8,258.1 766.0,257.7"/>
<line x1="606" y1="42" x2="628" y2="42" stroke="#0f62fe" stroke-width="2.2"/>
<text x="634" y="46" font-family="Arial" font-size="12">qbar_pa</text>
</svg>