<svg xmlns="http://www.w3.org/2000/svg" width="820" height="320" viewBox="0 0 820 320">
<rect width="100%" height="100%" fill="#ffffff"/>
<text x="54" y="28" font-family="Arial" font-size="18" font-weight="700">Control Surfaces</text>
<line x1="54" y1="266" x2="766" y2="266" stroke="#1f2933"/>
<line x1="54" y1="54" x2="54" y2="266" stroke="#1f2933"/>
<text x="54" y="306" font-family="Arial" font-size="12">time (s)</text>
<text x="596" y="306" font-family="Arial" font-size="12">deflection (deg)</text>
<text x="58" y="68" font-family="Arial" font-size="11">20.1</text>
<text x="58" y="260" font-family="Arial" font-size="11">-20.1</text>
<polyline fill="none" stroke="#0f62fe" stroke-width="2.2" points="54.0,174.3 55.2,173.9 56.4,167.0 57.6,161.5 58.7,162.1 59.9,166.2 61.1,170.8 62.3,173.4 63.5,175.0 64.7,176.4 65.9,177.5 67.1,179.2 68.2,181.1 69.4,182.7 70.6,184.2 71.8,185.7 73.0,186.9 74.2,188.3 75.4,192.2 76.5,191.0 77.7,193.2 78.9,196.5 80.1,199.0 81.3,200.5 82.5,200.9 83.7,201.0 84.9,201.0 86.0,201.4 87.2,201.7 88.4,201.7 89.6,201.5 90.8,200.9 92.0,200.2 93.2,199.7 94.3,198.8 95.5,195.5 96.7,196.3 97.9,195.3 99.1,192.4 100.3,189.3 101.5,186.2 102.7,183.4 103.8,180.9 105.0,178.6 106.2,177.1 107.4,176.5 108.6,177.5 109.8,180.8 111.0,188.3 112.1,202.4 113.3,216.6 114.5,230.9 115.7,245.2 116.9,257.7 118.1,262.7 119.3,264.7 120.5,265.5 121.6,265.8 122.8,265.9 124.0,266.0 125.2,266.0 126.4,266.0 127.6,266.0 128.8,266.0 129.9,251.7 131.1,237.5 132.3,223.2 133.5,208.9 134.7,194.6 135.9,180.4 137.1,166.1 138.3,151.8 139.4,137.5 140.6,151.8 141.8,166.1 143.0,180.4 144.2,194.6 145.4,208.9 146.6,223.2 147.7,237.5 148.9,251.7 150.1,237.5 151.3,223.2 152.5,208.9 153.7,194.6 154.9,180.4 156.1,166.1 157.2,151.8 158.4,166.1 159.6,180.4 160.8,194.6 162.0,208.9 163.2,223.2 164.4,237.5 165.5,251.7 166.7,260.3 167.9,246.0 169.1,231.7 170.3,217.5 171.5,203.2 172.7,188.9 173.9,174.7 175.0,160.4 176.2,174.7 177.4,188.9 178.6,203.2 179.8,217.5 181.0,231.7 182.2,246.0 183.3,258.0 184.5,262.8 185.7,248.5 186.9,234.3 188.1,220.0 189.3,205.7 190.5,191.4 191.7,177.2 192.8,162.9 194.0,177.2 195.2,191.4 196.4,205.7 197.6,220.0 198.8,234.3 200.0,248.5 201.1,259.0 202.3,263.2 203.5,248.9 204.7,234.7 205.9,220.4 207.1,206.1 208.3,191.8 209.5,177.6 210.6,163.3 211.8,149.0 213.0,163.3 214.2,177.6 215.4,191.8 216.6,206.1 217.8,220.4 218.9,234.7 220.1,248.9 221.3,259.2 222.5,263.3 223.7,249.0 224.9,234.7 226.1,220.5 227.3,206.2 228.4,191.9 229.6,177.6 230.8,163.4 232.0,149.1 233.2,134.8 234.4,120.5 235.6,106.3 236.7,120.5 237.9,134.8 239.1,149.1 240.3,163.4 241.5,177.6 242.7,191.9 243.9,206.2 245.1,220.5 246.2,234.7 247.4,249.0 248.6,259.2 249.8,263.3 251.0,264.9 252.2,265.6 253.4,251.3 254.5,237.0 255.7,222.7 256.9,208.5 258.1,194.2 259.3,179.9 260.5,165.7 261.7,151.4 262.9,137.1 264.0,122.8 265.2,108.6 266.4,94.3 267.6,80.0 268.8,65.8 270.0,58.7 271.2,55.9 272.3,54.7 273.5,61.2 274.7,75.5 275.9,89.8 277.1,104.1 278.3,118.3 279.5,132.6 280.7,146.9 281.8,161.1 283.0,175.4 284.2,189.7 285.4,204.0 286.6,218.2 287.8,232.5 289.0,246.8 290.1,258.3 291.3,262.9 292.5,264.8 293.7,265.5 294.9,265.8 296.1,265.9 297.3,266.0 298.5,266.0 299.6,266.0 300.8,266.0 302.0,266.0 303.2,266.0 304.4,266.0 305.6,266.0 306.8,251.7 307.9,237.5 309.1,223.2 310.3,208.9 311.5,194.6 312.7,180.4 313.9,166.1 315.1,151.8 316.3,137.6 317.4,123.3 318.6,109.0 319.8,94.7 321.0,80.5 322.2,66.2 323.4,73.4 324.6,87.7 325.7,101.9 326.9,116.2 328.1,130.5 329.3,144.8 330.5,159.0 331.7,173.3 332.9,187.6 334.1,201.8 335.2,216.1 336.4,230.4 337.6,244.7 338.8,257.5 340.0,262.6 341.2,264.6 342.4,265.5 343.5,265.8 344.7,265.9 345.9,266.0 347.1,266.0 348.3,266.0 349.5,266.0 350.7,266.0 351.9,251.7 353.0,237.5 354.2,223.2 355.4,208.9 356.6,194.6 357.8,180.4 359.0,166.1 360.2,151.8 361.3,151.3 362.5,165.5 363.7,179.8 364.9,194.1 366.1,208.4 367.3,222.6 368.5,236.9 369.7,251.2 370.8,260.1 372.0,263.6 373.2,265.1 374.4,250.8 375.6,236.5 376.8,222.2 378.0,208.0 379.1,193.7 380.3,179.4 381.5,165.1 382.7,150.9 383.9,136.6 385.1,122.3 386.3,136.6 387.5,150.9 388.6,165.1 389.8,179.4 391.0,193.7 392.2,208.0 393.4,222.2 394.6,236.5 395.8,250.8 396.9,259.9 398.1,263.6 399.3,249.3 400.5,235.0 401.7,220.7 402.9,206.5 404.1,192.2 405.3,177.9 406.4,163.7 407.6,149.4 408.8,135.1 410.0,120.8 411.2,106.6 412.4,113.0 413.6,127.3 414.7,141.5 415.9,155.8 417.1,170.1 418.3,184.4 419.5,198.6 420.7,212.9 421.9,227.2 423.1,241.4 424.2,238.0 425.4,223.8 426.6,209.5 427.8,204.4 429.0,216.8 430.2,231.1 431.4,245.4 432.5,257.8 433.7,262.7 434.9,264.7 436.1,265.5 437.3,265.8 438.5,265.9 439.7,266.0 440.9,266.0 442.0,266.0 443.2,262.2 444.4,247.9 445.6,233.6 446.8,219.4 448.0,205.1 449.2,190.8 450.3,176.6 451.5,162.3 452.7,148.0 453.9,133.7 455.1,119.5 456.3,105.2 457.5,90.9 458.7,76.7 459.8,63.1 461.0,57.6 462.2,55.4 463.4,54.6 464.6,54.2 465.8,54.1 467.0,54.0 468.1,54.0 469.3,54.0 470.5,68.3 471.7,82.5 472.9,96.8 474.1,111.1 475.3,125.4 476.5,139.6 477.6,153.9 478.8,168.2 480.0,182.4 481.2,196.7 482.4,211.0 483.6,196.7 484.8,182.4 485.9,168.2 487.1,153.9 488.3,139.6 489.5,125.4 490.7,111.1 491.9,96.8 493.1,82.5 494.3,68.3 495.4,82.5 496.6,96.8 497.8,111.1 499.0,125.4 500.2,139.6 501.4,153.9 502.6,168.2 503.7,182.4 504.9,196.7 506.1,211.0 507.3,196.7 508.5,182.4 509.7,168.2 510.9,153.9 512.1,139.6 513.2,125.4 514.4,111.1 515.6,96.8 516.8,82.5 518.0,68.3 519.2,82.5 520.4,96.8 521.5,111.1 522.7,125.4 523.9,139.6 525.1,153.9 526.3,168.2 527.5,182.4 528.7,196.7 529.9,211.0 531.0,225.3 532.2,211.0 533.4,196.7 534.6,182.4 535.8,168.2 537.0,153.9 538.2,139.6 539.3,125.4 540.5,111.1 541.7,96.8 542.9,82.5 544.1,73.7 545.3,88.0 546.5,102.2 547.7,116.5 548.8,130.8 550.0,145.0 551.2,159.3 552.4,173.6 553.6,187.9 554.8,202.1 556.0,216.4 557.1,202.1 558.3,187.9 559.5,173.6 560.7,159.3 561.9,145.0 563.1,130.8 564.3,116.5 565.5,102.2 566.6,88.0 567.8,73.7 569.0,61.9 570.2,57.1 571.4,55.3 572.6,54.5 573.8,54.2 574.9,68.5 576.1,82.7 577.3,97.0 578.5,111.3 579.7,125.6 580.9,139.8 582.1,154.1 583.3,168.4 584.4,182.6 585.6,196.9 586.8,211.2 588.0,225.5 589.2,211.4 590.4,197.1 591.6,182.9 592.7,168.6 593.9,154.3 595.1,140.0 596.3,125.8 597.5,111.5 598.7,97.2 599.9,83.0 601.1,68.7 602.2,59.9 603.4,56.3 604.6,70.6 605.8,84.9 607.0,99.2 608.2,113.4 609.4,127.7 610.5,142.0 611.7,156.2 612.9,170.5 614.1,184.8 615.3,199.1 616.5,213.3 617.7,227.6 618.9,241.9 620.0,256.2 621.2,261.8 622.4,247.5 623.6,233.3 624.8,219.0 626.0,204.7 627.2,190.5 628.3,176.2 629.5,161.9 630.7,147.6 631.9,133.4 633.1,119.1 634.3,104.8 635.5,90.5 636.7,76.3 637.8,62.9 639.0,57.6 640.2,55.4 641.4,54.6 642.6,54.2 643.8,54.1 645.0,54.0 646.1,54.0 647.3,54.0 648.5,68.3 649.7,82.5 650.9,96.8 652.1,111.1 653.3,125.4 654.5,139.6 655.6,153.9 656.8,168.2 658.0,182.4 659.2,196.7 660.4,211.0 661.6,225.3 662.8,239.5 663.9,253.8 665.1,261.1 666.3,264.0 667.5,265.2 668.7,265.7 669.9,260.1 671.1,245.9 672.3,231.6 673.4,218.3 674.6,224.3 675.8,238.6 677.0,252.9 678.2,260.8 679.4,263.9 680.6,265.2 681.7,265.7 682.9,265.9 684.1,265.9 685.3,266.0 686.5,266.0 687.7,266.0 688.9,266.0 690.1,260.1 691.2,245.8 692.4,231.5 693.6,217.3 694.8,203.0 696.0,188.7 697.2,174.5 698.4,160.2 699.5,145.9 700.7,131.6 701.9,117.4 703.1,114.4 704.3,128.7 705.5,143.0 706.7,157.2 707.9,171.5 709.0,185.8 710.2,200.0 711.4,214.3 712.6,228.6 713.8,242.9 715.0,247.8 716.2,243.0 717.3,239.2 718.5,240.0 719.7,247.0 720.9,258.4 722.1,263.0 723.3,264.8 724.5,265.5 725.7,265.8 726.8,265.9 728.0,266.0 729.2,266.0 730.4,266.0 731.6,266.0 732.8,266.0 734.0,266.0 735.1,266.0 736.3,266.0 737.5,266.0 738.7,251.7 739.9,237.5 741.1,223.2 742.3,208.9 743.5,194.6 744.6,180.4 745.8,166.1 747.0,151.8 748.2,137.6 749.4,123.3 750.6,109.0 751.8,94.7 752.9,80.5 754.1,66.2 755.3,58.9 756.5,73.1 757.7,87.4 758.9,101.7 760.1,116.0 761.3,130.2 762.4,144.5 763.6,158.8 764.8,173.0 766.0,187.3"/>
<line x1="606" y1="42" x2="628" y2="42" stroke="#0f62fe" stroke-width="2.2"/>
<text x="634" y="46" font-family="Arial" font-size="12">elevator_deg</text>
<polyline fill="none" stroke="#24a148" stroke-width="2.2" points="54.0,153.6 55.2,155.8 56.4,156.0 57.6,155.4 58.7,154.2 59.9,152.8 61.1,151.2 62.3,149.4 63.5,147.4 64.7,145.4 65.9,143.2 67.1,140.9 68.2,138.6 69.4,136.2 70.6,133.7 71.8,131.2 73.0,128.7 74.2,126.2 75.4,123.7 76.5,121.1 77.7,118.6 78.9,116.1 80.1,113.7 81.3,111.3 82.5,108.9 83.7,106.4 84.9,103.8 86.0,101.2 87.2,98.4 88.4,95.4 89.6,92.2 90.8,88.6 92.0,86.0 93.2,85.0 94.3,84.6 95.5,84.4 96.7,84.3 97.9,84.3 99.1,84.3 100.3,84.3 101.5,84.3 102.7,84.3 103.8,84.3 105.0,84.3 106.2,84.3 107.4,84.3 108.6,84.3 109.8,84.3 111.0,84.3 112.1,84.3 113.3,84.3 114.5,84.3 115.7,84.3 116.9,84.3 118.1,84.3 119.3,84.3 120.5,84.3 121.6,84.3 122.8,98.6 124.0,112.8 125.2,127.1 126.4,141.4 127.6,127.1 128.8,112.8 129.9,98.6 131.1,90.0 132.3,86.6 133.5,85.2 134.7,84.6 135.9,84.4 137.1,84.3 138.3,84.3 139.4,84.3 140.6,84.3 141.8,84.3 143.0,98.6 144.2,112.8 145.4,127.1 146.6,141.4 147.7,137.9 148.9,123.6 150.1,109.3 151.3,95.1 152.5,88.6 153.7,86.0 154.9,85.0 156.1,84.6 157.2,84.4 158.4,84.3 159.6,98.6 160.8,112.9 162.0,127.1 163.2,141.4 164.4,155.7 165.5,141.4 166.7,127.1 167.9,112.9 169.1,98.6 170.3,90.0 171.5,86.6 172.7,85.2 173.9,84.6 175.0,84.4 176.2,98.7 177.4,113.0 178.6,127.2 179.8,141.5 181.0,155.8 182.2,170.1 183.3,155.8 184.5,141.5 185.7,127.2 186.9,113.0 188.1,98.7 189.3,90.0 190.5,86.6 191.7,85.2 192.8,84.6 194.0,98.9 195.2,113.2 196.4,127.5 197.6,141.7 198.8,156.0 200.0,170.3 201.1,156.0 202.3,141.7 203.5,127.5 204.7,113.2 205.9,98.9 207.1,90.1 208.3,88.0 209.5,102.3 210.6,116.5 211.8,130.8 213.0,145.1 214.2,159.3 215.4,173.6 216.6,187.9 217.8,202.2 218.9,216.4 220.1,228.0 221.3,213.7 222.5,199.5 223.7,185.2 224.9,170.9 226.1,156.6 227.3,152.5 228.4,166.8 229.6,181.1 230.8,195.3 232.0,209.6 233.2,223.9 234.4,231.0 235.6,233.8 236.7,235.0 237.9,235.4 239.1,235.6 240.3,235.7 241.5,235.7 242.7,235.7 243.9,235.7 245.1,235.7 246.2,235.7 247.4,235.7 248.6,235.7 249.8,235.7 251.0,235.7 252.2,235.7 253.4,224.9 254.5,230.2 255.7,233.5 256.9,234.8 258.1,235.4 259.3,235.6 260.5,235.7 261.7,235.7 262.9,235.7 264.0,235.7 265.2,235.7 266.4,235.7 267.6,235.7 268.8,235.7 270.0,235.7 271.2,235.7 272.3,221.4 273.5,207.2 274.7,192.9 275.9,178.6 277.1,164.4 278.3,150.1 279.5,135.8 280.7,121.5 281.8,107.3 283.0,93.5 284.2,88.0 285.4,85.8 286.6,84.9 287.8,84.5 289.0,84.4 290.1,84.3 291.3,84.3 292.5,84.3 293.7,84.3 294.9,84.3 296.1,84.3 297.3,84.3 298.5,84.3 299.6,84.3 300.8,84.3 302.0,84.3 303.2,88.4 304.4,102.7 305.6,117.0 306.8,131.2 307.9,145.5 309.1,158.5 310.3,162.8 311.5,165.0 312.7,165.5 313.9,166.7 315.1,169.2 316.3,172.7 317.4,176.9 318.6,181.7 319.8,187.3 321.0,193.8 322.2,201.6 323.4,210.9 324.6,222.2 325.7,230.3 326.9,233.5 328.1,234.8 329.3,235.4 330.5,235.6 331.7,235.7 332.9,235.7 334.1,235.7 335.2,235.7 336.4,235.7 337.6,235.7 338.8,235.7 340.0,235.7 341.2,235.7 342.4,235.7 343.5,235.7 344.7,235.7 345.9,235.7 347.1,221.4 348.3,207.2 349.5,192.9 350.7,207.2 351.9,221.4 353.0,230.0 354.2,233.4 355.4,234.8 356.6,235.3 357.8,235.6 359.0,235.7 360.2,235.7 361.3,235.7 362.5,235.7 363.7,235.7 364.9,235.7 366.1,235.7 367.3,235.7 368.5,221.4 369.7,207.2 370.8,192.9 372.0,178.6 373.2,192.9 374.4,178.6 375.6,192.9 376.8,207.2 378.0,221.4 379.1,230.0 380.3,233.4 381.5,234.8 382.7,235.3 383.9,235.6 385.1,235.7 386.3,221.4 387.5,207.1 388.6,192.8 389.8,178.6 391.0,164.3 392.2,150.0 393.4,150.0 394.6,164.3 395.8,178.6 396.9,192.9 398.1,207.1 399.3,221.4 400.5,230.0 401.7,233.4 402.9,234.8 404.1,235.3 405.3,235.6 406.4,235.7 407.6,235.7 408.8,221.4 410.0,207.1 411.2,192.9 412.4,178.6 413.6,164.3 414.7,150.1 415.9,155.1 417.1,169.1 418.3,183.4 419.5,197.7 420.7,211.9 421.9,226.2 423.1,231.9 424.2,234.2 425.4,235.1 426.6,235.5 427.8,235.6 429.0,235.7 430.2,235.7 431.4,235.7 432.5,235.7 433.7,235.7 434.9,235.7 436.1,235.7 437.3,221.4 438.5,207.2 439.7,192.9 440.9,178.6 442.0,164.4 443.2,150.1 444.4,160.5 445.6,174.7 446.8,189.0 448.0,203.3 449.2,217.6 450.3,228.5 451.5,232.8 452.7,234.6 453.9,235.2 455.1,235.5 456.3,235.6 457.5,235.7 458.7,235.7 459.8,235.7 461.0,235.7 462.2,235.7 463.4,235.7 464.6,235.7 465.8,235.7 467.0,221.4 468.1,230.0 469.3,233.4 470.5,234.8 471.7,235.3 472.9,235.6 474.1,235.7 475.3,235.7 476.5,235.7 477.6,235.7 478.8,235.7 480.0,235.7 481.2,235.7 482.4,235.7 483.6,235.7 484.8,221.4 485.9,207.2 487.1,192.9 488.3,178.6 489.5,164.4 490.7,150.1 491.9,135.8 493.1,150.1 494.3,164.4 495.4,178.6 496.6,192.9 497.8,207.2 499.0,221.4 500.2,230.0 501.4,233.4 502.6,234.8 503.7,235.3 504.9,235.6 506.1,221.3 507.3,207.0 508.5,192.8 509.7,178.5 510.9,164.2 512.1,149.9 513.2,135.7 514.4,121.4 515.6,131.3 516.8,145.5 518.0,159.8 519.2,174.1 520.4,188.3 521.5,202.6 522.7,216.9 523.9,228.2 525.1,232.7 526.3,234.5 527.5,235.2 528.7,235.5 529.9,235.6 531.0,221.4 532.2,207.1 533.4,192.8 534.6,178.5 535.8,164.3 537.0,150.0 538.2,135.7 539.3,121.5 540.5,107.2 541.7,115.9 542.9,130.2 544.1,144.4 545.3,158.7 546.5,173.0 547.7,187.3 548.8,196.1 550.0,186.3 551.2,172.0 552.4,157.8 553.6,143.5 554.8,129.2 556.0,114.9 557.1,100.7 558.3,90.8 559.5,86.9 560.7,85.3 561.9,84.7 563.1,84.4 564.3,84.3 565.5,84.3 566.6,84.3 567.8,84.3 569.0,84.3 570.2,84.3 571.4,84.3 572.6,84.3 573.8,98.6 574.9,90.0 576.1,104.3 577.3,118.5 578.5,124.8 579.7,119.1 580.9,105.1 582.1,92.6 583.3,87.6 584.4,85.6 585.6,84.8 586.8,84.5 588.0,84.4 589.2,84.3 590.4,84.3 591.6,84.3 592.7,98.6 593.9,112.8 595.1,127.1 596.3,141.4 597.5,155.6 598.7,169.9 599.9,184.2 601.1,198.5 602.2,212.7 603.4,223.4 604.6,213.3 605.8,199.0 607.0,184.8 608.2,170.5 609.4,158.0 610.5,152.4 611.7,151.8 612.9,155.7 614.1,164.4 615.3,178.7 616.5,192.9 617.7,207.2 618.9,221.5 620.0,230.0 621.2,233.4 622.4,234.8 623.6,235.3 624.8,235.6 626.0,235.7 627.2,235.7 628.3,235.7 629.5,235.7 630.7,235.7 631.9,235.7 633.1,235.7 634.3,235.7 635.5,235.7 636.7,235.7 637.8,235.7 639.0,235.7 640.2,235.7 641.4,235.7 642.6,235.7 643.8,235.7 645.0,230.0 646.1,215.7 647.3,201.5 648.5,187.2 649.7,172.9 650.9,158.7 652.1,162.4 653.3,175.2 654.5,189.5 655.6,203.8 656.8,218.0 658.0,228.6 659.2,232.9 660.4,234.6 661.6,235.3 662.8,235.5 663.9,235.6 665.1,235.7 666.3,235.7 667.5,235.7 668.7,235.7 669.9,235.7 671.1,221.4 672.3,207.2 673.4,192.9 674.6,178.6 675.8,164.4 677.0,150.1 678.2,135.8 679.4,121.5 680.6,107.3 681.7,93.5 682.9,88.1 684.1,97.7 685.3,112.0 686.5,126.3 687.7,140.6 688.9,154.8 690.1,169.1 691.2,183.4 692.4,197.6 693.6,211.9 694.8,220.4 696.0,223.9 697.2,225.7 698.4,226.8 699.5,227.5 700.7,228.2 701.9,229.0 703.1,230.1 704.3,232.0 705.5,234.2 706.7,235.1 707.9,235.5 709.0,235.6 710.2,235.7 711.4,235.7 712.6,235.7 713.8,235.7 715.0,235.7 716.2,235.7 717.3,235.7 718.5,235.7 719.7,235.7 720.9,235.7 722.1,235.7 723.3,235.7 724.5,235.7 725.7,235.7 726.8,235.7 728.0,235.7 729.2,221.4 730.4,207.2 731.6,192.9 732.8,178.6 734.0,164.4 735.1,163.4 736.3,177.7 737.5,191.9 738.7,206.2 739.9,220.5 741.1,229.6 742.3,233.3 743.5,234.7 744.6,235.3 745.8,235.6 747.0,235.7 748.2,235.7 749.4,235.7 750.6,235.7 751.8,235.7 752.9,235.7 754.1,235.7 755.3,221.4 756.5,207.2 757.7,192.9 758.9,178.6 760.1,175.8 761.3,180.4 762.4,191.0 763.6,205.3 764.8,219.5 766.0,229.2"/>
<line x1="606" y1="60" x2="628" y2="60" stroke="#24a148" stroke-width="2.2"/>
<text x="634" y="64" font-family="Arial" font-size="12">aileron_deg</text>
<polyline fill="none" stroke="#da1e28" stroke-width="2.2" points="54.0,150.2 55.2,153.3 56.4,152.9 57.6,150.9 58.7,148.1 59.9,144.8 61.1,141.2 62.3,137.3 63.5,133.2 64.7,129.0 65.9,124.7 67.1,120.4 68.2,116.2 69.4,111.9 70.6,107.8 71.8,103.9 73.0,100.2 74.2,96.7 75.4,93.6 76.5,90.6 77.7,88.4 78.9,86.7 80.1,85.6 81.3,85.0 82.5,84.9 83.7,85.3 84.9,86.2 86.0,87.9 87.2,90.2 88.4,92.9 89.6,96.1 90.8,99.7 92.0,103.8 93.2,108.3 94.3,113.1 95.5,118.1 96.7,123.6 97.9,128.8 99.1,133.4 100.3,137.6 101.5,141.5 102.7,144.9 103.8,147.6 105.0,149.4 106.2,150.0 107.4,149.2 108.6,146.5 109.8,141.1 111.0,132.9 112.1,121.7 113.3,107.5 114.5,93.6 115.7,88.0 116.9,85.8 118.1,84.9 119.3,84.5 120.5,84.4 121.6,84.3 122.8,84.5 124.0,98.7 125.2,113.0 126.4,127.3 127.6,141.6 128.8,155.8 129.9,170.1 131.1,184.4 132.3,198.7 133.5,212.9 134.7,226.6 135.9,212.3 137.1,198.1 138.3,183.8 139.4,169.5 140.6,155.2 141.8,141.0 143.0,126.7 144.2,112.4 145.4,98.1 146.6,89.8 147.7,104.1 148.9,118.4 150.1,132.6 151.3,146.9 152.5,161.2 153.7,175.5 154.9,161.2 156.1,146.9 157.2,132.6 158.4,118.4 159.6,104.1 160.8,92.2 162.0,87.5 163.2,85.5 164.4,99.8 165.5,114.1 166.7,128.4 167.9,142.6 169.1,156.9 170.3,171.2 171.5,185.5 172.7,171.5 173.9,157.2 175.0,142.9 176.2,128.7 177.4,114.4 178.6,100.1 179.8,90.6 181.0,86.8 182.2,101.1 183.3,115.4 184.5,129.6 185.7,143.9 186.9,158.2 188.1,172.4 189.3,186.7 190.5,201.0 191.7,210.3 192.8,196.1 194.0,181.8 195.2,167.5 196.4,153.3 197.6,139.0 198.8,124.7 200.0,139.0 201.1,153.3 202.3,167.5 203.5,181.8 204.7,196.1 205.9,210.3 207.1,224.6 208.3,231.3 209.5,233.9 210.6,235.0 211.8,235.4 213.0,221.2 214.2,206.9 215.4,192.6 216.6,178.3 217.8,164.1 218.9,149.8 220.1,164.1 221.3,178.3 222.5,192.6 223.7,206.9 224.9,221.2 226.1,229.9 227.3,233.4 228.4,234.8 229.6,235.3 230.8,235.6 232.0,235.7 233.2,235.7 234.4,235.7 235.6,235.7 236.7,221.4 237.9,207.2 239.1,192.9 240.3,178.6 241.5,164.3 242.7,150.1 243.9,135.8 245.1,121.5 246.2,107.3 247.4,121.5 248.6,135.8 249.8,150.1 251.0,164.3 252.2,178.6 253.4,192.9 254.5,207.2 255.7,221.4 256.9,230.0 258.1,233.4 259.3,234.8 260.5,235.3 261.7,235.6 262.9,235.7 264.0,235.7 265.2,235.7 266.4,235.7 267.6,235.7 268.8,235.7 270.0,235.7 271.2,221.4 272.3,207.2 273.5,192.9 274.7,178.6 275.9,164.4 277.1,150.1 278.3,135.8 279.5,123.1 280.7,119.7 281.8,123.1 283.0,130.9 284.2,142.9 285.4,157.2 286.6,171.4 287.8,185.7 289.0,200.0 290.1,214.3 291.3,227.1 292.5,232.3 293.7,234.3 294.9,235.2 296.1,235.5 297.3,235.6 298.5,235.7 299.6,235.7 300.8,235.7 302.0,221.4 303.2,207.2 304.4,192.9 305.6,178.6 306.8,164.3 307.9,150.1 309.1,135.8 310.3,121.5 311.5,107.3 312.7,93.5 313.9,88.0 315.1,85.8 316.3,84.9 317.4,84.5 318.6,84.4 319.8,84.3 321.0,84.3 322.2,84.3 323.4,84.3 324.6,84.3 325.7,84.3 326.9,84.3 328.1,84.3 329.3,84.3 330.5,84.3 331.7,84.3 332.9,84.3 334.1,84.3 335.2,84.3 336.4,84.3 337.6,84.3 338.8,84.3 340.0,84.3 341.2,84.3 342.4,84.3 343.5,84.3 344.7,84.3 345.9,84.3 347.1,84.3 348.3,84.3 349.5,84.3 350.7,84.3 351.9,98.6 353.0,112.8 354.2,127.1 355.4,141.4 356.6,155.6 357.8,169.9 359.0,184.2 360.2,198.5 361.3,212.7 362.5,226.5 363.7,212.2 364.9,198.0 366.1,183.7 367.3,169.4 368.5,155.2 369.7,140.9 370.8,126.6 372.0,112.3 373.2,126.6 374.4,140.9 375.6,155.2 376.8,169.4 378.0,183.7 379.1,198.0 380.3,212.2 381.5,226.3 382.7,232.0 383.9,234.2 385.1,235.1 386.3,235.5 387.5,235.6 388.6,235.7 389.8,235.7 391.0,235.7 392.2,235.7 393.4,235.7 394.6,235.7 395.8,235.7 396.9,235.7 398.1,221.4 399.3,207.2 400.5,192.9 401.7,198.3 402.9,212.6 404.1,226.5 405.3,232.0 406.4,234.2 407.6,235.1 408.8,235.5 410.0,235.6 411.2,235.7 412.4,235.7 413.6,235.7 414.7,235.7 415.9,235.7 417.1,235.7 418.3,235.7 419.5,235.7 420.7,235.7 421.9,235.7 423.1,235.7 424.2,235.7 425.4,235.7 426.6,235.7 427.8,235.7 429.0,235.7 430.2,235.7 431.4,235.7 432.5,235.7 433.7,235.7 434.9,235.7 436.1,235.0 437.3,220.7 438.5,206.4 439.7,192.2 440.9,177.9 442.0,163.6 443.2,149.4 444.4,135.1 445.6,120.8 446.8,106.5 448.0,93.2 449.2,87.8 450.3,85.7 451.5,84.9 452.7,84.5 453.9,84.4 455.1,84.3 456.3,84.3 457.5,84.3 458.7,84.3 459.8,84.3 461.0,84.3 462.2,84.3 463.4,84.3 464.6,84.3 465.8,84.3 467.0,98.6 468.1,112.8 469.3,127.1 470.5,141.4 471.7,155.6 472.9,169.9 474.1,184.2 475.3,185.1 476.5,170.8 477.6,156.5 478.8,142.3 480.0,128.0 481.2,113.7 482.4,99.4 483.6,90.3 484.8,86.7 485.9,85.3 487.1,84.7 488.3,84.4 489.5,84.3 490.7,84.3 491.9,84.3 493.1,98.6 494.3,112.8 495.4,127.1 496.6,141.4 497.8,155.7 499.0,161.8 500.2,147.5 501.4,133.2 502.6,119.0 503.7,104.7 504.9,92.4 506.1,87.5 507.3,85.6 508.5,84.8 509.7,84.5 510.9,84.4 512.1,84.3 513.2,84.3 514.4,84.3 515.6,84.3 516.8,98.6 518.0,112.8 519.2,127.1 520.4,141.4 521.5,155.6 522.7,169.9 523.9,184.2 525.1,198.5 526.3,201.3 527.5,197.6 528.7,187.7 529.9,173.4 531.0,159.1 532.2,144.8 533.4,130.6 534.6,116.3 535.8,102.0 537.0,91.4 538.2,87.1 539.3,85.4 540.5,84.7 541.7,84.5 542.9,96.7 544.1,111.0 545.3,125.2 546.5,139.5 547.7,153.8 548.8,168.1 550.0,182.3 551.2,196.6 552.4,210.9 553.6,225.1 554.8,231.5 556.0,234.0 557.1,235.0 558.3,235.4 559.5,235.6 560.7,235.7 561.9,235.7 563.1,235.7 564.3,235.7 565.5,235.7 566.6,235.7 567.8,235.7 569.0,235.7 570.2,235.7 571.4,235.7 572.6,221.4 573.8,207.2 574.9,192.9 576.1,178.6 577.3,164.4 578.5,155.7 579.7,161.9 580.9,174.3 582.1,188.6 583.3,202.8 584.4,217.1 585.6,228.3 586.8,232.7 588.0,234.5 589.2,235.2 590.4,235.5 591.6,235.6 592.7,235.7 593.9,235.7 595.1,235.7 596.3,235.7 597.5,235.7 598.7,235.7 599.9,235.7 601.1,235.7 602.2,235.7 603.4,235.7 604.6,235.7 605.8,234.3 607.0,220.0 608.2,205.7 609.4,191.5 610.5,177.2 611.7,162.9 612.9,148.7 614.1,134.4 615.3,120.1 616.5,105.8 617.7,92.9 618.9,87.7 620.0,85.7 621.2,84.8 622.4,84.5 623.6,84.4 624.8,84.3 626.0,84.3 627.2,84.3 628.3,84.3 629.5,84.3 630.7,84.3 631.9,84.3 633.1,84.3 634.3,84.3 635.5,84.3 636.7,84.3 637.8,84.3 639.0,84.3 640.2,84.3 641.4,84.3 642.6,84.3 643.8,84.3 645.0,84.3 646.1,84.3 647.3,98.6 648.5,112.8 649.7,127.1 650.9,141.4 652.1,155.6 653.3,169.9 654.5,184.2 655.6,198.5 656.8,212.7 658.0,214.7 659.2,201.8 660.4,187.6 661.6,173.3 662.8,159.0 663.9,144.8 665.1,130.5 666.3,116.2 667.5,101.9 668.7,91.3 669.9,87.1 671.1,85.4 672.3,84.7 673.4,84.5 674.6,84.4 675.8,84.3 677.0,84.3 678.2,84.3 679.4,84.3 680.6,84.3 681.7,84.3 682.9,84.3 684.1,84.3 685.3,84.3 686.5,84.3 687.7,84.3 688.9,84.3 690.1,84.3 691.2,84.3 692.4,98.6 693.6,112.8 694.8,127.1 696.0,141.4 697.2,155.6 698.4,169.9 699.5,184.2 700.7,198.5 701.9,212.7 703.1,226.0 704.3,217.0 705.5,202.8 706.7,188.5 707.9,174.2 709.0,160.0 710.2,145.7 711.4,131.4 712.6,117.1 713.8,102.9 715.0,91.7 716.2,87.3 717.3,85.5 718.5,84.8 719.7,85.4 720.9,89.7 722.1,94.7 723.3,98.7 724.5,100.6 725.7,99.6 726.8,96.0 728.0,90.7 729.2,86.8 730.4,85.3 731.6,84.7 732.8,84.4 734.0,84.3 735.1,84.3 736.3,84.3 737.5,84.3 738.7,84.3 739.9,84.3 741.1,84.3 742.3,84.3 743.5,84.3 744.6,84.3 745.8,84.3 747.0,84.3 748.2,84.3 749.4,84.3 750.6,84.3 751.8,84.3 752.9,84.3 754.1,84.3 755.3,98.6 756.5,112.8 757.7,127.1 758.9,141.4 760.1,137.2 761.3,123.0 762.4,108.7 763.6,94.4 764.8,88.3 766.0,85.9"/>
<line x1="606" y1="78" x2="628" y2="78" stroke="#da1e28" stroke-width="2.2"/>
<text x="634" y="82" font-family="Arial" font-size="12">rudder_deg</text>
</svg>