<svg xmlns="http://www.w3.org/2000/svg" width="820" height="320" viewBox="0 0 820 320">
<rect width="100%" height="100%" fill="#ffffff"/>
<text x="54" y="28" font-family="Arial" font-size="18" font-weight="700">Pitch Command Tracking</text>
<line x1="54" y1="266" x2="766" y2="266" stroke="#1f2933"/>
<line x1="54" y1="54" x2="54" y2="266" stroke="#1f2933"/>
<text x="54" y="306" font-family="Arial" font-size="12">time (s)</text>
<text x="596" y="306" font-family="Arial" font-size="12">pitch (deg)</text>
<text x="58" y="68" font-family="Arial" font-size="11">83.1</text>
<text x="58" y="260" font-family="Arial" font-size="11">-87.6</text>
<polyline fill="none" stroke="#0f62fe" stroke-width="2.2" points="54.0,132.4 55.2,132.5 56.4,132.5 57.6,132.5 58.7,132.5 59.9,132.5 61.1,132.5 62.3,132.5 63.5,132.5 64.7,132.5 65.9,132.5 67.1,132.5 68.2,132.5 69.4,132.5 70.6,132.5 71.8,132.5 73.0,132.5 74.2,132.5 75.4,132.4 76.5,132.4 77.7,132.4 78.9,132.4 80.1,132.4 81.3,132.4 82.5,132.4 83.7,132.4 84.9,132.4 86.0,132.4 87.2,132.4 88.4,132.4 89.6,132.4 90.8,132.4 92.0,132.4 93.2,132.4 94.3,132.4 95.5,132.5 96.7,132.5 97.9,132.5 99.1,132.5 100.3,132.5 101.5,132.5 102.7,132.5 103.8,132.5 105.0,132.5 106.2,132.5 107.4,132.5 108.6,132.5 109.8,132.5 111.0,132.5 112.1,132.5 113.3,132.5 114.5,132.5 115.7,132.7 116.9,132.7 118.1,132.7 119.3,132.7 120.5,132.7 121.6,132.7 122.8,132.7 124.0,132.7 125.2,132.7 126.4,132.7 127.6,132.7 128.8,132.7 129.9,132.7 131.1,132.7 132.3,132.7 133.5,132.7 134.7,132.7 135.9,132.5 137.1,132.5 138.3,132.5 139.4,132.5 140.6,132.5 141.8,132.5 143.0,132.5 144.2,132.5 145.4,132.5 146.6,132.5 147.7,132.5 148.9,132.5 150.1,132.5 151.3,132.5 152.5,132.5 153.7,132.5 154.9,132.5 156.1,132.8 157.2,132.8 158.4,132.8 159.6,132.8 160.8,132.8 162.0,132.8 163.2,132.8 164.4,132.8 165.5,132.8 166.7,132.8 167.9,132.8 169.1,132.8 170.3,132.8 171.5,132.8 172.7,132.8 173.9,132.8 175.0,132.8 176.2,133.1 177.4,133.1 178.6,133.1 179.8,133.1 181.0,133.1 182.2,133.1 183.3,133.1 184.5,133.1 185.7,133.1 186.9,133.1 188.1,133.1 189.3,133.1 190.5,133.1 191.7,133.1 192.8,133.1 194.0,133.1 195.2,133.1 196.4,132.6 197.6,132.6 198.8,132.6 200.0,132.6 201.1,132.6 202.3,132.6 203.5,132.6 204.7,132.6 205.9,132.6 207.1,132.6 208.3,132.6 209.5,132.6 210.6,132.6 211.8,132.6 213.0,132.6 214.2,132.6 215.4,132.6 216.6,132.3 217.8,132.3 218.9,132.3 220.1,132.3 221.3,132.3 222.5,132.3 223.7,132.3 224.9,132.3 226.1,132.3 227.3,132.3 228.4,132.3 229.6,132.3 230.8,132.3 232.0,132.3 233.2,132.3 234.4,132.3 235.6,132.3 236.7,132.2 237.9,132.2 239.1,132.2 240.3,132.2 241.5,132.2 242.7,132.2 243.9,132.2 245.1,132.2 246.2,132.2 247.4,132.2 248.6,132.2 249.8,132.2 251.0,132.2 252.2,132.2 253.4,132.2 254.5,132.2 255.7,132.2 256.9,132.0 258.1,132.0 259.3,132.0 260.5,132.0 261.7,132.0 262.9,132.0 264.0,132.0 265.2,132.0 266.4,132.0 267.6,132.0 268.8,132.0 270.0,132.0 271.2,132.0 272.3,132.0 273.5,132.0 274.7,132.0 275.9,132.0 277.1,131.8 278.3,131.8 279.5,131.8 280.7,131.8 281.8,131.8 283.0,131.8 284.2,131.8 285.4,131.8 286.6,131.8 287.8,131.8 289.0,131.8 290.1,131.8 291.3,131.8 292.5,131.8 293.7,131.8 294.9,131.8 296.1,131.8 297.3,131.3 298.5,131.3 299.6,131.3 300.8,131.3 302.0,131.3 303.2,131.3 304.4,131.3 305.6,131.3 306.8,131.3 307.9,131.3 309.1,131.3 310.3,131.3 311.5,131.3 312.7,131.3 313.9,131.3 315.1,131.3 316.3,131.3 317.4,131.0 318.6,131.0 319.8,131.0 321.0,131.0 322.2,131.0 323.4,131.0 324.6,131.0 325.7,131.0 326.9,131.0 328.1,131.0 329.3,131.0 330.5,131.0 331.7,131.0 332.9,131.0 334.1,131.0 335.2,131.0 336.4,131.0 337.6,130.7 338.8,130.7 340.0,130.7 341.2,130.7 342.4,130.7 343.5,130.7 344.7,130.7 345.9,130.7 347.1,130.7 348.3,130.7 349.5,130.7 350.7,130.7 351.9,130.7 353.0,130.7 354.2,130.7 355.4,130.7 356.6,130.7 357.8,130.1 359.0,130.1 360.2,130.1 361.3,130.0 362.5,130.0 363.7,129.9 364.9,129.9 366.1,129.9 367.3,129.9 368.5,129.8 369.7,129.8 370.8,129.7 372.0,129.7 373.2,129.7 374.4,129.7 375.6,129.6 376.8,129.6 378.0,129.8 379.1,129.8 380.3,129.8 381.5,129.8 382.7,129.8 383.9,129.8 385.1,129.8 386.3,129.8 387.5,129.8 388.6,129.8 389.8,129.8 391.0,129.8 392.2,129.8 393.4,129.8 394.6,129.8 395.8,129.8 396.9,129.8 398.1,128.9 399.3,128.9 400.5,128.9 401.7,128.9 402.9,128.9 404.1,128.9 405.3,128.9 406.4,128.9 407.6,128.9 408.8,128.9 410.0,128.9 411.2,128.9 412.4,128.9 413.6,128.9 414.7,128.9 415.9,128.9 417.1,128.9 418.3,128.5 419.5,128.5 420.7,128.5 421.9,128.5 423.1,128.5 424.2,128.5 425.4,128.5 426.6,128.5 427.8,128.5 429.0,128.5 430.2,128.5 431.4,128.5 432.5,128.5 433.7,128.5 434.9,128.5 436.1,128.5 437.3,128.5 438.5,127.6 439.7,127.6 440.9,127.6 442.0,127.6 443.2,127.6 444.4,127.6 445.6,127.6 446.8,127.6 448.0,127.6 449.2,127.6 450.3,127.6 451.5,127.6 452.7,127.6 453.9,127.6 455.1,127.6 456.3,127.6 457.5,127.6 458.7,127.0 459.8,127.0 461.0,127.0 462.2,127.0 463.4,127.0 464.6,127.0 465.8,127.0 467.0,127.0 468.1,127.0 469.3,127.0 470.5,127.0 471.7,127.0 472.9,127.0 474.1,127.0 475.3,127.0 476.5,127.0 477.6,127.0 478.8,126.2 480.0,126.2 481.2,126.2 482.4,126.2 483.6,126.2 484.8,126.2 485.9,126.2 487.1,126.2 488.3,126.2 489.5,126.2 490.7,126.2 491.9,126.2 493.1,126.2 494.3,126.2 495.4,126.2 496.6,126.2 497.8,126.2 499.0,126.2 500.2,126.2 501.4,126.2 502.6,126.2 503.7,126.2 504.9,126.2 506.1,126.2 507.3,126.2 508.5,126.2 509.7,126.2 510.9,126.2 512.1,126.2 513.2,126.2 514.4,126.2 515.6,126.2 516.8,126.2 518.0,126.2 519.2,126.2 520.4,126.2 521.5,126.2 522.7,126.2 523.9,126.2 525.1,126.2 526.3,126.2 527.5,126.2 528.7,126.2 529.9,126.2 531.0,126.2 532.2,126.2 533.4,126.2 534.6,126.2 535.8,126.2 537.0,126.2 538.2,126.2 539.3,126.2 540.5,126.2 541.7,126.2 542.9,126.2 544.1,126.2 545.3,126.2 546.5,126.2 547.7,126.2 548.8,126.2 550.0,126.2 551.2,126.2 552.4,126.2 553.6,126.2 554.8,126.2 556.0,126.2 557.1,126.2 558.3,126.2 559.5,126.2 560.7,126.2 561.9,126.2 563.1,126.2 564.3,126.2 565.5,126.2 566.6,126.2 567.8,126.2 569.0,126.2 570.2,126.2 571.4,126.2 572.6,126.2 573.8,126.2 574.9,126.2 576.1,126.2 577.3,126.2 578.5,126.2 579.7,126.2 580.9,126.2 582.1,126.2 583.3,126.2 584.4,126.2 585.6,126.2 586.8,126.2 588.0,126.2 589.2,126.2 590.4,126.2 591.6,126.2 592.7,126.2 593.9,126.2 595.1,126.2 596.3,126.2 597.5,126.2 598.7,126.2 599.9,126.2 601.1,126.2 602.2,126.2 603.4,126.2 604.6,126.2 605.8,126.2 607.0,126.2 608.2,126.2 609.4,126.2 610.5,126.2 611.7,126.2 612.9,126.2 614.1,126.2 615.3,126.2 616.5,126.2 617.7,126.2 618.9,126.2 620.0,126.2 621.2,126.2 622.4,126.2 623.6,126.2 624.8,126.2 626.0,126.2 627.2,126.2 628.3,126.2 629.5,126.2 630.7,126.2 631.9,126.2 633.1,126.2 634.3,126.2 635.5,126.2 636.7,126.2 637.8,126.2 639.0,126.2 640.2,126.2 641.4,126.2 642.6,126.2 643.8,126.2 645.0,126.2 646.1,126.2 647.3,126.2 648.5,126.2 649.7,126.2 650.9,126.2 652.1,126.2 653.3,126.2 654.5,126.2 655.6,126.2 656.8,126.2 658.0,126.2 659.2,126.2 660.4,126.2 661.6,126.2 662.8,126.2 663.9,126.2 665.1,126.2 666.3,126.2 667.5,126.2 668.7,126.2 669.9,126.2 671.1,126.2 672.3,126.2 673.4,126.2 674.6,126.2 675.8,126.2 677.0,126.2 678.2,126.2 679.4,126.2 680.6,126.2 681.7,126.2 682.9,126.2 684.1,126.2 685.3,126.2 686.5,126.2 687.7,126.2 688.9,126.2 690.1,126.2 691.2,126.2 692.4,126.2 693.6,126.2 694.8,126.2 696.0,126.2 697.2,126.2 698.4,126.2 699.5,126.2 700.7,126.2 701.9,126.2 703.1,126.2 704.3,126.2 705.5,126.2 706.7,126.2 707.9,126.2 709.0,126.2 710.2,126.2 711.4,126.2 712.6,126.2 713.8,126.2 715.0,126.2 716.2,126.2 717.3,126.2 718.5,126.2 719.7,126.2 720.9,126.2 722.1,126.2 723.3,126.2 724.5,126.2 725.7,126.2 726.8,126.2 728.0,126.2 729.2,126.2 730.4,126.2 731.6,126.2 732.8,126.2 734.0,126.2 735.1,126.2 736.3,126.2 737.5,126.2 738.7,126.2 739.9,126.2 741.1,126.2 742.3,126.2 743.5,126.2 744.6,126.2 745.8,126.2 747.0,126.2 748.2,126.2 749.4,126.2 750.6,126.2 751.8,126.2 752.9,126.2 754.1,126.2 755.3,126.2 756.5,126.2 757.7,126.2 758.9,126.2 760.1,126.2 761.3,126.2 762.4,126.2 763.6,126.2 764.8,126.2 766.0,126.2"/>
<line x1="606" y1="42" x2="628" y2="42" stroke="#0f62fe" stroke-width="2.2"/>
<text x="634" y="46" font-family="Arial" font-size="12">pitch_command_deg</text>
<polyline fill="none" stroke="#24a148" stroke-width="2.2" points="54.0,147.3 55.2,146.9 56.4,146.0 57.6,145.1 58.7,144.4 59.9,143.9 61.1,143.5 62.3,143.2 63.5,143.0 64.7,142.8 65.9,142.6 67.1,142.5 68.2,142.4 69.4,142.4 70.6,142.5 71.8,142.5 73.0,142.6 74.2,142.8 75.4,142.9 76.5,143.0 77.7,143.3 78.9,143.6 80.1,143.9 81.3,144.3 82.5,144.6 83.7,144.9 84.9,145.2 86.0,145.5 87.2,145.7 88.4,146.0 89.6,146.2 90.8,146.4 92.0,146.5 93.2,146.6 94.3,146.7 95.5,146.8 96.7,146.8 97.9,146.8 99.1,146.7 100.3,146.5 101.5,146.2 102.7,145.9 103.8,145.5 105.0,145.1 106.2,144.7 107.4,144.3 108.6,144.0 109.8,143.9 111.0,144.0 112.1,144.6 113.3,146.0 114.5,148.3 115.7,152.0 116.9,157.1 118.1,163.6 119.3,171.6 120.5,180.7 121.6,191.0 122.8,202.1 124.0,213.5 125.2,224.4 126.4,233.0 127.6,236.6 128.8,233.0 129.9,223.7 131.1,211.3 132.3,196.3 133.5,179.4 134.7,161.4 135.9,143.5 137.1,127.8 138.3,116.9 139.4,112.8 140.6,116.4 141.8,126.4 143.0,141.3 144.2,159.7 145.4,180.9 146.6,203.7 147.7,226.4 148.9,240.3 150.1,229.8 151.3,205.7 152.5,179.0 153.7,152.5 154.9,128.3 156.1,108.9 157.2,98.5 158.4,101.3 159.6,114.9 160.8,134.1 162.0,156.1 163.2,179.3 164.4,202.0 165.5,220.4 166.7,225.9 167.9,213.1 169.1,190.0 170.3,163.8 171.5,136.9 172.7,111.0 173.9,88.9 175.0,78.5 176.2,87.5 177.4,107.2 178.6,130.2 179.8,154.3 181.0,178.3 182.2,200.3 183.3,215.9 184.5,217.6 185.7,204.4 186.9,183.1 188.1,158.3 189.3,132.0 190.5,105.1 191.7,78.4 192.8,55.8 194.0,68.7 195.2,93.4 196.4,118.6 197.6,143.8 198.8,168.5 200.0,191.6 201.1,210.2 202.3,219.4 203.5,214.5 204.7,198.3 205.9,176.8 207.1,153.0 208.3,128.1 209.5,102.9 210.6,78.4 211.8,60.7 213.0,71.9 214.2,94.5 215.4,118.5 216.6,142.9 217.8,167.5 218.9,191.2 220.1,213.0 221.3,229.1 222.5,231.9 223.7,219.9 224.9,201.3 226.1,180.8 227.3,161.2 228.4,143.2 229.6,127.3 230.8,114.0 232.0,103.8 233.2,97.1 234.4,93.4 235.6,93.1 236.7,95.8 237.9,100.3 239.1,105.9 240.3,112.5 241.5,120.0 242.7,128.7 243.9,138.7 245.1,150.1 246.2,162.8 247.4,176.4 248.6,190.1 249.8,202.4 251.0,211.4 252.2,215.1 253.4,211.6 254.5,202.5 255.7,190.4 256.9,177.1 258.1,163.8 259.3,151.2 260.5,139.6 261.7,129.1 262.9,119.9 264.0,112.0 265.2,105.3 266.4,99.7 267.6,95.0 268.8,91.2 270.0,88.2 271.2,86.1 272.3,85.0 273.5,85.3 274.7,87.5 275.9,91.9 277.1,98.5 278.3,107.2 279.5,117.7 280.7,130.0 281.8,143.6 283.0,158.1 284.2,173.1 285.4,188.1 286.6,202.3 287.8,215.3 289.0,226.2 290.1,234.8 291.3,240.6 292.5,243.6 293.7,244.3 294.9,243.8 296.1,243.0 297.3,242.6 298.5,242.9 299.6,243.8 300.8,245.1 302.0,246.5 303.2,247.0 304.4,245.7 305.6,242.1 306.8,236.0 307.9,227.9 309.1,218.2 310.3,207.1 311.5,194.7 312.7,182.5 313.9,171.5 315.1,161.7 316.3,153.0 317.4,145.4 318.6,139.0 319.8,133.6 321.0,129.4 322.2,126.2 323.4,124.2 324.6,123.3 325.7,123.7 326.9,125.3 328.1,128.2 329.3,132.4 330.5,137.9 331.7,144.4 332.9,150.7 334.1,157.1 335.2,163.9 336.4,171.0 337.6,178.4 338.8,185.7 340.0,192.7 341.2,199.2 342.4,205.6 343.5,212.2 344.7,219.5 345.9,227.7 347.1,236.7 348.3,246.1 349.5,255.8 350.7,262.4 351.9,256.0 353.0,245.2 354.2,234.5 355.4,224.4 356.6,215.2 357.8,206.9 359.0,199.7 360.2,193.7 361.3,189.2 362.5,186.7 363.7,186.6 364.9,189.0 366.1,193.7 367.3,200.7 368.5,210.3 369.7,222.3 370.8,236.7 372.0,253.2 373.2,266.0 374.4,248.8 375.6,231.0 376.8,213.0 378.0,195.1 379.1,178.0 380.3,162.4 381.5,148.8 382.7,137.9 383.9,130.5 385.1,126.9 386.3,127.1 387.5,130.9 388.6,138.1 389.8,148.2 391.0,160.7 392.2,174.5 393.4,188.9 394.6,203.1 395.8,216.4 396.9,226.5 398.1,230.1 399.3,225.5 400.5,216.0 401.7,204.4 402.9,192.1 404.1,179.4 405.3,166.5 406.4,155.5 407.6,147.0 408.8,141.1 410.0,137.3 411.2,134.9 412.4,133.2 413.6,132.5 414.7,132.9 415.9,133.8 417.1,134.9 418.3,135.5 419.5,137.1 420.7,139.4 421.9,141.9 423.1,143.8 424.2,144.7 425.4,144.7 426.6,144.3 427.8,144.3 429.0,144.8 430.2,145.9 431.4,147.5 432.5,150.0 433.7,153.5 434.9,157.7 436.1,162.4 437.3,166.9 438.5,170.7 439.7,173.5 440.9,175.3 442.0,176.1 443.2,175.6 444.4,173.1 445.6,168.7 446.8,163.0 448.0,156.9 449.2,150.8 450.3,144.7 451.5,138.7 452.7,132.6 453.9,126.7 455.1,120.9 456.3,115.4 457.5,110.2 458.7,105.3 459.8,100.8 461.0,96.3 462.2,91.4 463.4,85.6 464.6,78.6 465.8,70.5 467.0,61.9 468.1,54.6 469.3,56.1 470.5,66.0 471.7,78.5 472.9,92.6 474.1,107.8 475.3,123.5 476.5,138.6 477.6,152.4 478.8,163.9 480.0,172.4 481.2,177.3 482.4,178.1 483.6,174.4 484.8,166.7 485.9,155.8 487.1,142.6 488.3,128.1 489.5,112.4 490.7,96.0 491.9,79.2 493.1,63.6 494.3,59.8 495.4,75.2 496.6,95.6 497.8,117.3 499.0,138.4 500.2,158.3 501.4,176.5 502.6,192.0 503.7,203.3 504.9,208.7 506.1,206.9 507.3,199.0 508.5,187.5 509.7,174.1 510.9,159.8 512.1,145.3 513.2,131.1 514.4,117.9 515.6,106.5 516.8,97.9 518.0,93.7 519.2,95.6 520.4,103.9 521.5,117.6 522.7,134.9 523.9,154.5 525.1,175.6 526.3,197.3 527.5,218.5 528.7,239.3 529.9,259.7 531.0,258.2 532.2,239.0 533.4,220.6 534.6,202.9 535.8,186.1 537.0,170.4 538.2,156.0 539.3,143.2 540.5,132.3 541.7,123.7 542.9,118.0 544.1,115.9 545.3,118.1 546.5,124.5 547.7,134.7 548.8,148.0 550.0,163.0 551.2,178.5 552.4,193.0 553.6,204.5 554.8,210.4 556.0,209.8 557.1,203.6 558.3,193.8 559.5,182.2 560.7,169.9 561.9,157.6 563.1,145.7 564.3,134.4 565.5,123.6 566.6,113.0 567.8,102.5 569.0,91.5 570.2,79.9 571.4,67.6 572.6,55.0 573.8,54.0 574.9,68.1 576.1,83.9 577.3,100.6 578.5,118.0 579.7,136.1 580.9,154.7 582.1,173.5 583.3,191.8 584.4,208.4 585.6,221.3 586.8,228.5 588.0,228.8 589.2,223.3 590.4,214.6 591.6,204.4 592.7,193.8 593.9,183.4 595.1,173.5 596.3,164.3 597.5,156.1 598.7,148.8 599.9,142.5 601.1,136.4 602.2,131.0 603.4,127.0 604.6,124.8 605.8,124.9 607.0,127.6 608.2,132.8 609.4,140.5 610.5,150.1 611.7,161.0 612.9,172.5 614.1,183.9 615.3,194.6 616.5,203.6 617.7,210.3 618.9,213.9 620.0,214.1 621.2,211.2 622.4,206.0 623.6,199.1 624.8,191.3 626.0,182.9 627.2,174.3 628.3,165.4 629.5,156.5 630.7,147.4 631.9,138.5 633.1,129.8 634.3,121.5 635.5,113.8 636.7,106.5 637.8,99.9 639.0,93.7 640.2,87.9 641.4,82.2 642.6,76.7 643.8,71.4 645.0,66.9 646.1,64.3 647.3,65.0 648.5,69.4 649.7,76.9 650.9,86.5 652.1,97.7 653.3,110.1 654.5,123.7 655.6,138.0 656.8,152.5 658.0,166.8 659.2,180.2 660.4,192.6 661.6,203.3 662.8,212.3 663.9,219.5 665.1,224.6 666.3,227.2 667.5,227.3 668.7,225.0 669.9,221.2 671.1,216.6 672.3,211.9 673.4,207.6 674.6,204.2 675.8,201.6 677.0,200.1 678.2,199.7 679.4,200.1 680.6,201.2 681.7,202.9 682.9,205.0 684.1,207.2 685.3,209.3 686.5,210.9 687.7,211.3 688.9,210.3 690.1,207.4 691.2,202.7 692.4,196.7 693.6,189.9 694.8,183.0 696.0,176.3 697.2,170.0 698.4,164.2 699.5,158.9 700.7,154.4 701.9,150.6 703.1,147.7 704.3,145.6 705.5,144.5 706.7,144.3 707.9,144.9 709.0,146.3 710.2,147.9 711.4,149.6 712.6,151.1 713.8,152.2 715.0,152.8 716.2,153.1 717.3,153.2 718.5,153.5 719.7,154.0 720.9,155.1 722.1,156.8 723.3,159.3 724.5,162.6 725.7,166.9 726.8,172.0 728.0,177.8 729.2,184.3 730.4,191.5 731.6,199.7 732.8,208.7 734.0,217.8 735.1,225.7 736.3,230.1 737.5,229.6 738.7,224.4 739.9,216.1 741.1,206.0 742.3,195.0 743.5,183.6 744.6,172.0 745.8,160.4 747.0,148.9 748.2,137.7 749.4,127.1 750.6,117.5 751.8,108.9 752.9,101.6 754.1,96.4 755.3,94.2 756.5,96.2 757.7,102.5 758.9,112.0 760.1,123.7 761.3,136.8 762.4,151.0 763.6,165.9 764.8,181.3 766.0,196.7"/>
<line x1="606" y1="60" x2="628" y2="60" stroke="#24a148" stroke-width="2.2"/>
<text x="634" y="64" font-family="Arial" font-size="12">pitch_deg</text>
</svg>