<svg xmlns="http://www.w3.org/2000/svg" width="820" height="320" viewBox="0 0 820 320">
<rect width="100%" height="100%" fill="#ffffff"/>
<text x="54" y="28" font-family="Arial" font-size="18" font-weight="700">Heading Command Tracking</text>
<line x1="54" y1="266" x2="766" y2="266" stroke="#1f2933"/>
<line x1="54" y1="54" x2="54" y2="266" stroke="#1f2933"/>
<text x="54" y="306" font-family="Arial" font-size="12">time (s)</text>
<text x="596" y="306" font-family="Arial" font-size="12">heading (deg)</text>
<text x="58" y="68" font-family="Arial" font-size="11">178</text>
<text x="58" y="260" font-family="Arial" font-size="11">-176</text>
<polyline fill="none" stroke="#0f62fe" stroke-width="2.2" points="54.0,159.5 55.2,159.5 56.4,159.5 57.6,159.5 58.7,159.5 59.9,159.5 61.1,159.5 62.3,159.5 63.5,159.5 64.7,159.5 65.9,159.5 67.1,159.5 68.2,159.5 69.4,159.5 70.6,159.5 71.8,159.5 73.0,159.5 74.2,159.5 75.4,159.5 76.5,159.5 77.7,159.5 78.9,159.5 80.1,159.5 81.3,159.5 82.5,159.5 83.7,159.5 84.9,159.5 86.0,159.5 87.2,159.5 88.4,159.5 89.6,159.5 90.8,159.5 92.0,159.5 93.2,159.5 94.3,159.5 95.5,159.5 96.7,159.5 97.9,159.5 99.1,159.5 100.3,159.5 101.5,159.5 102.7,159.5 103.8,159.5 105.0,159.5 106.2,159.5 107.4,159.5 108.6,159.5 109.8,159.5 111.0,159.5 112.1,159.5 113.3,159.5 114.5,159.5 115.7,159.5 116.9,159.5 118.1,159.5 119.3,159.5 120.5,159.5 121.6,159.5 122.8,159.5 124.0,159.5 125.2,159.5 126.4,159.5 127.6,159.5 128.8,159.5 129.9,159.5 131.1,159.5 132.3,159.5 133.5,159.5 134.7,159.5 135.9,159.5 137.1,159.5 138.3,159.5 139.4,159.5 140.6,159.5 141.8,159.5 143.0,159.5 144.2,159.5 145.4,159.5 146.6,159.5 147.7,159.5 148.9,159.5 150.1,159.5 151.3,159.5 152.5,159.5 153.7,159.5 154.9,159.5 156.1,159.5 157.2,159.5 158.4,159.5 159.6,159.5 160.8,159.5 162.0,159.5 163.2,159.5 164.4,159.5 165.5,159.5 166.7,159.5 167.9,159.5 169.1,159.5 170.3,159.5 171.5,159.5 172.7,159.5 173.9,159.5 175.0,159.5 176.2,159.5 177.4,159.5 178.6,159.5 179.8,159.5 181.0,159.5 182.2,159.5 183.3,159.5 184.5,159.5 185.7,159.5 186.9,159.5 188.1,159.5 189.3,159.5 190.5,159.5 191.7,159.5 192.8,159.5 194.0,159.5 195.2,159.5 196.4,159.5 197.6,159.5 198.8,159.5 200.0,159.5 201.1,159.5 202.3,159.5 203.5,159.5 204.7,159.5 205.9,159.5 207.1,159.5 208.3,159.5 209.5,159.5 210.6,159.5 211.8,159.5 213.0,159.5 214.2,159.5 215.4,159.5 216.6,159.5 217.8,159.5 218.9,159.5 220.1,159.5 221.3,159.5 222.5,159.5 223.7,159.5 224.9,159.5 226.1,159.5 227.3,159.5 228.4,159.5 229.6,159.5 230.8,159.5 232.0,159.5 233.2,159.5 234.4,159.5 235.6,159.5 236.7,159.5 237.9,159.5 239.1,159.5 240.3,159.5 241.5,159.5 242.7,159.5 243.9,159.5 245.1,159.5 246.2,159.5 247.4,159.5 248.6,159.5 249.8,159.5 251.0,159.5 252.2,159.5 253.4,159.5 254.5,159.5 255.7,159.5 256.9,159.5 258.1,159.5 259.3,159.5 260.5,159.5 261.7,159.5 262.9,159.5 264.0,159.5 265.2,159.5 266.4,159.5 267.6,159.5 268.8,159.5 270.0,159.5 271.2,159.5 272.3,159.5 273.5,159.5 274.7,159.5 275.9,159.5 277.1,159.5 278.3,159.5 279.5,159.5 280.7,159.5 281.8,159.5 283.0,159.5 284.2,159.5 285.4,159.5 286.6,159.5 287.8,159.5 289.0,159.5 290.1,159.5 291.3,159.5 292.5,159.5 293.7,159.5 294.9,159.5 296.1,159.5 297.3,159.5 298.5,159.5 299.6,159.5 300.8,159.5 302.0,159.5 303.2,159.5 304.4,159.5 305.6,159.5 306.8,159.5 307.9,159.5 309.1,159.5 310.3,159.5 311.5,159.5 312.7,159.5 313.9,159.5 315.1,159.5 316.3,159.5 317.4,159.5 318.6,159.5 319.8,159.5 321.0,159.5 322.2,159.5 323.4,159.5 324.6,159.5 325.7,159.5 326.9,159.5 328.1,159.5 329.3,159.5 330.5,159.5 331.7,159.5 332.9,159.5 334.1,159.5 335.2,159.5 336.4,159.5 337.6,159.5 338.8,159.5 340.0,159.5 341.2,159.5 342.4,159.5 343.5,159.5 344.7,159.5 345.9,159.5 347.1,159.5 348.3,159.5 349.5,159.5 350.7,159.5 351.9,159.5 353.0,159.5 354.2,159.5 355.4,159.5 356.6,159.5 357.8,159.5 359.0,159.5 360.2,159.5 361.3,159.5 362.5,159.5 363.7,159.5 364.9,159.5 366.1,159.5 367.3,159.5 368.5,159.5 369.7,159.5 370.8,159.5 372.0,159.5 373.2,159.5 374.4,159.5 375.6,159.5 376.8,159.5 378.0,159.5 379.1,159.5 380.3,159.5 381.5,159.5 382.7,159.5 383.9,159.5 385.1,159.5 386.3,159.5 387.5,159.5 388.6,159.5 389.8,159.5 391.0,159.5 392.2,159.5 393.4,159.5 394.6,159.5 395.8,159.5 396.9,159.5 398.1,159.5 399.3,159.5 400.5,159.5 401.7,159.5 402.9,159.5 404.1,159.5 405.3,159.5 406.4,159.5 407.6,159.5 408.8,159.5 410.0,159.5 411.2,159.5 412.4,159.5 413.6,159.5 414.7,159.5 415.9,159.5 417.1,159.5 418.3,159.5 419.5,159.5 420.7,159.5 421.9,159.5 423.1,159.5 424.2,159.5 425.4,159.5 426.6,159.5 427.8,159.5 429.0,159.5 430.2,159.5 431.4,159.5 432.5,159.5 433.7,159.5 434.9,159.5 436.1,159.5 437.3,159.5 438.5,159.5 439.7,159.5 440.9,159.5 442.0,159.5 443.2,159.5 444.4,159.5 445.6,159.5 446.8,159.5 448.0,159.5 449.2,159.5 450.3,159.5 451.5,159.5 452.7,159.5 453.9,159.5 455.1,159.5 456.3,159.5 457.5,159.5 458.7,159.5 459.8,159.5 461.0,159.5 462.2,159.5 463.4,159.5 464.6,159.5 465.8,159.5 467.0,159.5 468.1,159.5 469.3,159.5 470.5,159.5 471.7,159.5 472.9,159.5 474.1,159.5 475.3,159.5 476.5,159.5 477.6,159.5 478.8,159.5 480.0,159.5 481.2,159.5 482.4,159.5 483.6,159.5 484.8,159.5 485.9,159.5 487.1,159.5 488.3,159.5 489.5,159.5 490.7,159.5 491.9,159.5 493.1,159.5 494.3,159.5 495.4,159.5 496.6,159.5 497.8,159.5 499.0,159.5 500.2,159.5 501.4,159.5 502.6,159.5 503.7,159.5 504.9,159.5 506.1,159.5 507.3,159.5 508.5,159.5 509.7,159.5 510.9,159.5 512.1,159.5 513.2,159.5 514.4,159.5 515.6,159.5 516.8,159.5 518.0,159.5 519.2,159.5 520.4,159.5 521.5,159.5 522.7,159.5 523.9,159.5 525.1,159.5 526.3,159.5 527.5,159.5 528.7,159.5 529.9,159.5 531.0,159.5 532.2,159.5 533.4,159.5 534.6,159.5 535.8,159.5 537.0,159.5 538.2,159.5 539.3,159.5 540.5,159.5 541.7,159.5 542.9,159.5 544.1,159.5 545.3,159.5 546.5,159.5 547.7,159.5 548.8,159.5 550.0,159.5 551.2,159.5 552.4,159.5 553.6,159.5 554.8,159.5 556.0,159.5 557.1,159.5 558.3,159.5 559.5,159.5 560.7,159.5 561.9,159.5 563.1,159.5 564.3,159.5 565.5,159.5 566.6,159.5 567.8,159.5 569.0,159.5 570.2,159.5 571.4,159.5 572.6,159.5 573.8,159.5 574.9,159.5 576.1,159.5 577.3,159.5 578.5,159.5 579.7,159.5 580.9,159.5 582.1,159.5 583.3,159.5 584.4,159.5 585.6,159.5 586.8,159.5 588.0,159.5 589.2,159.5 590.4,159.5 591.6,159.5 592.7,159.5 593.9,159.5 595.1,159.5 596.3,159.5 597.5,159.5 598.7,159.5 599.9,159.5 601.1,159.5 602.2,159.5 603.4,159.5 604.6,159.5 605.8,159.5 607.0,159.5 608.2,159.5 609.4,159.5 610.5,159.5 611.7,159.5 612.9,159.5 614.1,159.5 615.3,159.5 616.5,159.5 617.7,159.5 618.9,159.5 620.0,159.5 621.2,159.5 622.4,159.5 623.6,159.5 624.8,159.5 626.0,159.5 627.2,159.5 628.3,159.5 629.5,159.5 630.7,159.5 631.9,159.5 633.1,159.5 634.3,159.5 635.5,159.5 636.7,159.5 637.8,159.5 639.0,159.5 640.2,159.5 641.4,159.5 642.6,159.5 643.8,159.5 645.0,159.5 646.1,159.5 647.3,159.5 648.5,159.5 649.7,159.5 650.9,159.5 652.1,159.5 653.3,159.5 654.5,159.5 655.6,159.5 656.8,159.5 658.0,159.5 659.2,159.5 660.4,159.5 661.6,159.5 662.8,159.5 663.9,159.5 665.1,159.5 666.3,159.5 667.5,159.5 668.7,159.5 669.9,159.5 671.1,159.5 672.3,159.5 673.4,159.5 674.6,159.5 675.8,159.5 677.0,159.5 678.2,159.5 679.4,159.5 680.6,159.5 681.7,159.5 682.9,159.5 684.1,159.5 685.3,159.5 686.5,159.5 687.7,159.5 688.9,159.5 690.1,159.5 691.2,159.5 692.4,159.5 693.6,159.5 694.8,159.5 696.0,159.5 697.2,159.5 698.4,159.5 699.5,159.5 700.7,159.5 701.9,159.5 703.1,159.5 704.3,159.5 705.5,159.5 706.7,159.5 707.9,159.5 709.0,159.5 710.2,159.5 711.4,159.5 712.6,159.5 713.8,159.5 715.0,159.5 716.2,159.5 717.3,159.5 718.5,159.5 719.7,159.5 720.9,159.5 722.1,159.5 723.3,159.5 724.5,159.5 725.7,159.5 726.8,159.5 728.0,159.5 729.2,159.5 730.4,159.5 731.6,159.5 732.8,159.5 734.0,159.5 735.1,159.5 736.3,159.5 737.5,159.5 738.7,159.5 739.9,159.5 741.1,159.5 742.3,159.5 743.5,159.5 744.6,159.5 745.8,159.5 747.0,159.5 748.2,159.5 749.4,159.5 750.6,159.5 751.8,159.5 752.9,159.5 754.1,159.5 755.3,159.5 756.5,159.5 757.7,159.5 758.9,159.5 760.1,159.5 761.3,159.5 762.4,159.5 763.6,159.5 764.8,159.5 766.0,159.5"/>
<line x1="606" y1="42" x2="628" y2="42" stroke="#0f62fe" stroke-width="2.2"/>
<text x="634" y="46" font-family="Arial" font-size="12">heading_command_deg</text>
<polyline fill="none" stroke="#24a148" stroke-width="2.2" points="54.0,160.1 55.2,160.2 56.4,160.3 57.6,160.6 58.7,160.9 59.9,161.4 61.1,161.9 62.3,162.5 63.5,163.2 64.7,163.9 65.9,164.7 67.1,165.5 68.2,166.4 69.4,167.3 70.6,168.3 71.8,169.2 73.0,170.2 74.2,171.1 75.4,172.1 76.5,173.0 77.7,173.8 78.9,174.6 80.1,175.3 81.3,175.9 82.5,176.4 83.7,176.8 84.9,177.1 86.0,177.3 87.2,177.4 88.4,177.4 89.6,177.2 90.8,176.9 92.0,176.5 93.2,176.0 94.3,175.3 95.5,174.6 96.7,173.7 97.9,172.8 99.1,171.8 100.3,170.9 101.5,169.9 102.7,169.0 103.8,168.1 105.0,167.2 106.2,166.5 107.4,166.0 108.6,165.7 109.8,165.6 111.0,166.0 112.1,166.8 113.3,168.1 114.5,169.8 115.7,171.7 116.9,173.8 118.1,175.9 119.3,177.8 120.5,179.3 121.6,180.2 122.8,180.1 124.0,178.5 125.2,174.2 126.4,165.6 127.6,152.3 128.8,138.7 129.9,129.5 131.1,124.7 132.3,122.6 133.5,122.6 134.7,124.6 135.9,128.9 137.1,135.7 138.3,145.4 139.4,157.0 140.6,168.5 141.8,177.9 143.0,184.9 144.2,189.5 145.4,191.9 146.6,191.5 147.7,185.1 148.9,163.0 150.1,137.0 151.3,128.1 152.5,126.6 153.7,128.6 154.9,133.7 156.1,143.0 157.2,157.9 158.4,174.6 159.6,186.5 160.8,193.2 162.0,196.2 163.2,196.1 164.4,192.1 165.5,181.2 166.7,161.1 167.9,143.8 169.1,135.5 170.3,132.4 171.5,132.5 172.7,136.1 173.9,146.2 175.0,168.5 176.2,191.0 177.4,201.2 178.6,204.8 179.8,205.0 181.0,202.2 182.2,195.3 183.3,181.6 184.5,162.2 185.7,146.5 186.9,137.3 188.1,132.1 189.3,129.1 190.5,127.9 191.7,130.1 192.8,156.2 194.0,210.9 195.2,216.1 196.4,215.7 197.6,213.3 198.8,209.0 200.0,201.8 201.1,190.2 202.3,172.3 203.5,153.0 204.7,139.3 205.9,130.6 207.1,124.4 208.3,119.1 209.5,113.4 210.6,103.9 211.8,72.0 213.0,244.2 214.2,232.1 215.4,226.0 216.6,221.0 217.8,215.5 218.9,208.8 220.1,199.1 221.3,182.3 222.5,157.4 223.7,137.9 224.9,126.7 226.1,119.5 227.3,113.7 228.4,108.2 229.6,102.4 230.8,95.7 232.0,87.7 233.2,78.6 234.4,68.1 235.6,57.6 236.7,263.7 237.9,256.0 239.1,249.3 240.3,243.3 241.5,237.5 242.7,231.9 243.9,226.2 245.1,220.5 246.2,214.6 247.4,208.0 248.6,200.3 249.8,190.9 251.0,178.9 252.2,164.3 253.4,149.8 254.5,137.9 255.7,128.8 256.9,121.7 258.1,115.7 259.3,110.3 260.5,105.1 261.7,100.0 262.9,94.8 264.0,89.3 265.2,83.7 266.4,77.7 267.6,71.4 268.8,64.7 270.0,57.5 271.2,265.0 272.3,256.6 273.5,247.6 274.7,238.4 275.9,229.7 277.1,221.8 278.3,215.0 279.5,209.1 280.7,203.9 281.8,199.1 283.0,194.6 284.2,190.1 285.4,185.5 286.6,180.4 287.8,174.4 289.0,167.3 290.1,158.6 291.3,148.0 292.5,136.6 293.7,126.1 294.9,117.9 296.1,112.2 297.3,108.6 298.5,107.0 299.6,107.3 300.8,109.8 302.0,115.0 303.2,122.9 304.4,132.6 305.6,142.1 306.8,149.8 307.9,155.6 309.1,159.9 310.3,163.3 311.5,166.1 312.7,168.3 313.9,170.0 315.1,171.4 316.3,172.7 317.4,173.9 318.6,175.1 319.8,176.3 321.0,177.4 322.2,178.4 323.4,179.3 324.6,180.1 325.7,180.8 326.9,181.4 328.1,182.2 329.3,183.1 330.5,184.3 331.7,185.8 332.9,186.9 334.1,187.7 335.2,188.3 336.4,188.8 337.6,189.4 338.8,190.0 340.0,190.7 341.2,191.3 342.4,191.7 343.5,191.9 344.7,191.8 345.9,191.9 347.1,192.3 348.3,194.2 349.5,200.9 350.7,233.4 351.9,54.3 353.0,61.7 354.2,63.5 355.4,63.5 356.6,62.8 357.8,61.7 359.0,60.4 360.2,59.1 361.3,56.8 362.5,54.0 363.7,266.0 364.9,262.4 366.1,258.6 367.3,254.4 368.5,250.0 369.7,245.5 370.8,240.7 372.0,234.7 373.2,154.7 374.4,130.1 375.6,125.9 376.8,122.8 378.0,119.5 379.1,115.8 380.3,111.5 381.5,106.3 382.7,100.2 383.9,93.1 385.1,85.6 386.3,78.3 387.5,71.7 388.6,66.3 389.8,62.4 391.0,60.2 392.2,60.0 393.4,60.9 394.6,63.5 395.8,68.7 396.9,78.1 398.1,91.7 399.3,104.5 400.5,112.9 401.7,117.7 402.9,120.4 404.1,121.8 405.3,122.3 406.4,121.2 407.6,119.2 408.8,116.7 410.0,114.1 411.2,111.7 412.4,109.4 413.6,107.4 414.7,105.8 415.9,105.0 417.1,104.9 418.3,105.6 419.5,106.2 420.7,106.9 421.9,108.0 423.1,109.4 424.2,111.0 425.4,112.6 426.6,114.1 427.8,115.5 429.0,116.9 430.2,118.2 431.4,119.4 432.5,120.5 433.7,121.7 434.9,123.3 436.1,125.5 437.3,128.4 438.5,132.0 439.7,136.1 440.9,140.5 442.0,145.2 443.2,150.2 444.4,155.6 445.6,160.7 446.8,165.1 448.0,168.7 449.2,171.8 450.3,174.6 451.5,177.1 452.7,179.2 453.9,181.0 455.1,182.5 456.3,183.7 457.5,184.6 458.7,185.3 459.8,186.2 461.0,187.4 462.2,189.0 463.4,190.8 464.6,192.4 465.8,192.8 467.0,189.4 468.1,172.2 469.3,135.9 470.5,123.0 471.7,120.9 472.9,121.9 474.1,124.5 475.3,128.3 476.5,133.1 477.6,138.8 478.8,145.4 480.0,153.0 481.2,161.3 482.4,170.2 483.6,178.9 484.8,187.0 485.9,193.9 487.1,199.6 488.3,204.5 489.5,208.2 490.7,210.7 491.9,210.3 493.1,200.7 494.3,161.4 495.4,142.2 496.6,139.1 497.8,139.9 499.0,142.3 500.2,146.1 501.4,151.3 502.6,158.3 503.7,167.9 504.9,179.8 506.1,192.1 507.3,202.4 508.5,209.9 509.7,215.3 510.9,218.9 512.1,220.8 513.2,221.1 514.4,219.4 515.6,215.5 516.8,208.7 518.0,198.8 519.2,187.5 520.4,177.6 521.5,170.4 522.7,165.6 523.9,162.3 525.1,159.9 526.3,158.3 527.5,157.2 528.7,156.7 529.9,159.6 531.0,255.5 532.2,257.8 533.4,257.6 534.6,256.7 535.8,255.2 537.0,253.1 538.2,250.1 539.3,246.1 540.5,240.9 541.7,234.2 542.9,226.1 544.1,216.7 545.3,206.7 546.5,196.9 547.7,187.9 548.8,179.6 550.0,171.6 551.2,163.2 552.4,153.7 553.6,142.3 554.8,129.0 556.0,115.5 557.1,103.9 558.3,95.2 559.5,88.8 560.7,84.1 561.9,80.8 563.1,78.5 564.3,77.1 565.5,76.1 566.6,75.4 567.8,75.1 569.0,74.9 570.2,75.2 571.4,77.1 572.6,88.0 573.8,150.8 574.9,164.7 576.1,166.9 577.3,167.0 578.5,166.3 579.7,165.2 580.9,163.6 582.1,161.2 583.3,157.7 584.4,152.0 585.6,143.1 586.8,130.6 588.0,116.5 589.2,105.0 590.4,97.2 591.6,92.1 592.7,88.8 593.9,86.8 595.1,85.7 596.3,85.1 597.5,84.9 598.7,84.9 599.9,85.3 601.1,86.9 602.2,89.6 603.4,93.4 604.6,98.3 605.8,104.0 607.0,110.0 608.2,116.1 609.4,122.2 610.5,128.0 611.7,133.7 612.9,139.4 614.1,145.5 615.3,152.2 616.5,160.1 617.7,169.1 618.9,179.3 620.0,189.5 621.2,199.0 622.4,206.9 623.6,213.2 624.8,218.1 626.0,221.9 627.2,224.8 628.3,226.9 629.5,228.2 630.7,228.8 631.9,228.9 633.1,228.6 634.3,228.1 635.5,227.4 636.7,226.9 637.8,226.6 639.0,226.9 640.2,227.9 641.4,230.0 642.6,233.6 643.8,239.5 645.0,248.8 646.1,262.8 647.3,64.2 648.5,78.4 649.7,88.6 650.9,95.7 652.1,101.0 653.3,105.4 654.5,109.2 655.6,112.9 656.8,116.5 658.0,120.3 659.2,124.4 660.4,129.0 661.6,134.3 662.8,140.4 663.9,147.6 665.1,155.9 666.3,165.1 667.5,174.3 668.7,182.5 669.9,189.2 671.1,194.3 672.3,198.1 673.4,201.0 674.6,203.3 675.8,205.3 677.0,207.4 678.2,209.5 679.4,211.9 680.6,214.6 681.7,217.7 682.9,221.4 684.1,225.8 685.3,230.9 686.5,236.9 687.7,243.7 688.9,250.9 690.1,258.3 691.2,265.3 692.4,56.5 693.6,62.5 694.8,68.0 696.0,73.2 697.2,78.3 698.4,83.4 699.5,88.5 700.7,93.7 701.9,99.1 703.1,104.5 704.3,110.1 705.5,115.9 706.7,121.7 707.9,127.7 709.0,133.7 710.2,139.5 711.4,145.0 712.6,150.1 713.8,154.7 715.0,158.6 716.2,161.9 717.3,164.6 718.5,166.9 719.7,168.6 720.9,169.8 722.1,170.7 723.3,171.3 724.5,171.8 725.7,172.4 726.8,173.1 728.0,173.9 729.2,174.9 730.4,176.1 731.6,177.8 732.8,180.6 734.0,185.3 735.1,193.2 736.3,204.3 737.5,216.5 738.7,227.1 739.9,234.9 741.1,240.2 742.3,243.8 743.5,246.3 744.6,247.8 745.8,248.7 747.0,249.0 748.2,248.3 749.4,246.6 750.6,243.9 751.8,240.2 752.9,235.2 754.1,228.3 755.3,219.6 756.5,210.5 757.7,202.5 758.9,196.5 760.1,192.4 761.3,189.7 762.4,188.2 763.6,187.6 764.8,187.9 766.0,189.4"/>
<line x1="606" y1="60" x2="628" y2="60" stroke="#24a148" stroke-width="2.2"/>
<text x="634" y="64" font-family="Arial" font-size="12">yaw_deg</text>
</svg>