<svg xmlns="http://www.w3.org/2000/svg" width="820" height="320" viewBox="0 0 820 320">
<rect width="100%" height="100%" fill="#ffffff"/>
<text x="54" y="28" font-family="Arial" font-size="18" font-weight="700">Downrange/Crossrange</text>
<line x1="54" y1="266" x2="766" y2="266" stroke="#1f2933"/>
<line x1="54" y1="54" x2="54" y2="266" stroke="#1f2933"/>
<text x="54" y="306" font-family="Arial" font-size="12">downrange (m)</text>
<text x="596" y="306" font-family="Arial" font-size="12">crossrange (m)</text>
<text x="58" y="68" font-family="Arial" font-size="11">1</text>
<text x="58" y="260" font-family="Arial" font-size="11">-1</text>
<polyline fill="none" stroke="#0f62fe" stroke-width="2.2" points="54.0,160.0 54.5,160.0 55.0,160.0 55.6,160.0 56.1,160.0 56.6,160.0 57.2,160.0 57.7,160.0 58.3,160.0 58.8,160.0 59.3,160.0 59.9,160.0 60.4,160.0 61.0,160.0 61.6,160.0 62.1,160.0 62.7,160.0 63.3,160.0 63.8,160.0 64.4,160.0 65.0,160.0 65.6,160.0 66.2,160.0 66.7,160.0 67.3,160.0 67.9,160.0 68.5,160.0 69.1,160.0 69.7,160.0 70.3,160.0 70.9,160.0 71.6,160.0 72.2,160.0 72.8,160.0 73.4,160.0 74.1,160.0 74.7,160.0 75.3,160.0 76.0,160.0 76.6,160.0 77.2,160.0 77.9,160.0 78.5,160.0 79.2,160.0 79.9,160.0 80.5,160.0 81.2,160.0 81.8,160.0 82.5,160.0 83.2,160.0 83.9,160.0 84.5,160.0 85.2,160.0 85.9,160.0 86.6,160.0 87.3,160.0 88.0,160.0 88.7,160.0 89.4,160.0 90.1,160.0 90.8,160.0 91.5,160.0 92.3,160.0 93.0,160.0 93.7,160.0 94.4,160.0 95.2,160.0 95.9,160.0 96.6,160.0 97.4,160.0 98.1,160.0 98.9,160.0 99.6,160.0 100.4,160.0 101.1,160.0 101.9,160.0 102.6,160.0 103.4,160.0 104.2,160.0 104.9,160.0 105.7,160.0 106.5,160.0 107.3,160.0 108.1,160.0 108.9,160.0 109.6,160.0 110.4,160.0 111.2,160.0 112.0,160.0 112.8,160.0 113.6,160.0 114.5,160.0 115.3,160.0 116.1,160.0 116.9,160.0 117.7,160.0 118.6,160.0 119.4,160.0 120.2,160.0 121.1,160.0 121.9,160.0 122.7,160.0 123.6,160.0 124.4,160.0 125.3,160.0 126.1,160.0 127.0,160.0 127.9,160.0 128.7,160.0 129.6,160.0 130.5,160.0 131.3,160.0 132.2,160.0 133.1,160.0 134.0,160.0 134.9,160.0 135.7,160.0 136.6,160.0 137.5,160.0 138.4,160.0 139.3,160.0 140.2,160.0 141.1,160.0 142.1,160.0 143.0,160.0 143.9,160.0 144.8,160.0 145.7,160.0 146.7,160.0 147.6,160.0 148.5,160.0 149.4,160.0 150.4,160.0 151.3,160.0 152.3,160.0 153.2,160.0 154.2,160.0 155.1,160.0 156.1,160.0 157.0,160.0 158.0,160.0 159.0,160.0 159.9,160.0 160.9,160.0 161.9,160.0 162.9,160.0 163.8,160.0 164.8,160.0 165.8,160.0 166.8,160.0 167.8,160.0 168.8,160.0 169.8,160.0 170.8,160.0 171.8,160.0 172.8,160.0 173.8,160.0 174.8,160.0 175.8,160.0 176.8,160.0 177.9,160.0 178.9,160.0 179.9,160.0 180.9,160.0 182.0,160.0 183.0,160.0 184.1,160.0 185.1,160.0 186.1,160.0 187.2,160.0 188.2,160.0 189.3,160.0 190.4,160.0 191.4,160.0 192.5,160.0 193.5,160.0 194.6,160.0 195.7,160.0 196.8,160.0 197.8,160.0 198.9,160.0 200.0,160.0 201.1,160.0 202.2,160.0 203.3,160.0 204.3,160.0 205.4,160.0 206.5,160.0 207.6,160.0 208.8,160.0 209.9,160.0 211.0,160.0 212.1,160.0 213.2,160.0 214.3,160.0 215.4,160.0 216.6,160.0 217.7,160.0 218.8,160.0 220.0,160.0 221.1,160.0 222.2,160.0 223.4,160.0 224.5,160.0 225.7,160.0 226.8,160.0 228.0,160.0 229.1,160.0 230.3,160.0 231.4,160.0 232.6,160.0 233.8,160.0 234.9,160.0 236.1,160.0 237.3,160.0 238.5,160.0 239.6,160.0 240.8,160.0 242.0,160.0 243.2,160.0 244.4,160.0 245.6,160.0 246.8,160.0 248.0,160.0 249.2,160.0 250.4,160.0 251.6,160.0 252.8,160.0 254.0,160.0 255.2,160.0 256.4,160.0 257.6,160.0 258.9,160.0 260.1,160.0 261.3,160.0 262.5,160.0 263.8,160.0 265.0,160.0 266.2,160.0 267.5,160.0 268.7,160.0 270.0,160.0 271.2,160.0 272.5,160.0 273.7,160.0 275.0,160.0 276.2,160.0 277.5,160.0 278.8,160.0 280.0,160.0 281.3,160.0 282.6,160.0 283.8,160.0 285.1,160.0 286.4,160.0 287.7,160.0 288.9,160.0 290.2,160.0 291.5,160.0 292.8,160.0 294.1,160.0 295.4,160.0 296.7,160.0 298.0,160.0 299.3,160.0 300.6,160.0 301.9,160.0 303.2,160.0 304.5,160.0 305.8,160.0 307.1,160.0 308.5,160.0 309.8,160.0 311.1,160.0 312.4,160.0 313.8,160.0 315.1,160.0 316.4,160.0 317.7,160.0 319.1,160.0 320.4,160.0 321.8,160.0 323.1,160.0 324.4,160.0 325.8,160.0 327.1,160.0 328.5,160.0 329.8,160.0 331.2,160.0 332.6,160.0 333.9,160.0 335.3,160.0 336.6,160.0 338.0,160.0 339.4,160.0 340.7,160.0 342.1,160.0 343.5,160.0 344.9,160.0 346.2,160.0 347.6,160.0 349.0,160.0 350.4,160.0 351.8,160.0 353.2,160.0 354.6,160.0 356.0,160.0 357.4,160.0 358.8,160.0 360.2,160.0 361.6,160.0 363.0,160.0 364.4,160.0 365.8,160.0 367.2,160.0 368.6,160.0 370.0,160.0 371.4,160.0 372.9,160.0 374.3,160.0 375.7,160.0 377.2,160.0 378.6,160.0 380.0,160.0 381.4,160.0 382.9,160.0 384.3,160.0 385.8,160.0 387.2,160.0 388.7,160.0 390.1,160.0 391.5,160.0 393.0,160.0 394.4,160.0 395.9,160.0 397.4,160.0 398.8,160.0 400.3,160.0 401.7,160.0 403.2,160.0 404.7,160.0 406.1,160.0 407.6,160.0 409.1,160.0 410.5,160.0 412.0,160.0 413.5,160.0 414.9,160.0 416.4,160.0 417.9,160.0 419.4,160.0 420.8,160.0 422.3,160.0 423.8,160.0 425.3,160.0 426.8,160.0 428.2,160.0 429.7,160.0 431.2,160.0 432.7,160.0 434.2,160.0 435.7,160.0 437.2,160.0 438.7,160.0 440.2,160.0 441.7,160.0 443.2,160.0 444.7,160.0 446.2,160.0 447.7,160.0 449.2,160.0 450.7,160.0 452.2,160.0 453.7,160.0 455.2,160.0 456.7,160.0 458.3,160.0 459.8,160.0 461.3,160.0 462.8,160.0 464.3,160.0 465.9,160.0 467.4,160.0 468.9,160.0 470.5,160.0 472.0,160.0 473.5,160.0 475.1,160.0 476.6,160.0 478.1,160.0 479.7,160.0 481.2,160.0 482.8,160.0 484.3,160.0 485.9,160.0 487.4,160.0 489.0,160.0 490.5,160.0 492.1,160.0 493.6,160.0 495.2,160.0 496.7,160.0 498.3,160.0 499.8,160.0 501.4,160.0 503.0,160.0 504.5,160.0 506.1,160.0 507.7,160.0 509.2,160.0 510.8,160.0 512.4,160.0 513.9,160.0 515.5,160.0 517.1,160.0 518.7,160.0 520.2,160.0 521.8,160.0 523.4,160.0 524.9,160.0 526.5,160.0 528.1,160.0 529.7,160.0 531.2,160.0 532.8,160.0 534.4,160.0 536.0,160.0 537.5,160.0 539.1,160.0 540.7,160.0 542.2,160.0 543.8,160.0 545.4,160.0 546.9,160.0 548.5,160.0 550.0,160.0 551.6,160.0 553.1,160.0 554.7,160.0 556.3,160.0 557.8,160.0 559.4,160.0 560.9,160.0 562.5,160.0 564.0,160.0 565.6,160.0 567.1,160.0 568.6,160.0 570.1,160.0 571.7,160.0 573.2,160.0 574.7,160.0 576.2,160.0 577.7,160.0 579.2,160.0 580.7,160.0 582.2,160.0 583.7,160.0 585.2,160.0 586.7,160.0 588.2,160.0 589.6,160.0 591.1,160.0 592.6,160.0 594.0,160.0 595.5,160.0 596.9,160.0 598.4,160.0 599.8,160.0 601.2,160.0 602.7,160.0 604.1,160.0 605.5,160.0 606.9,160.0 608.3,160.0 609.7,160.0 611.1,160.0 612.6,160.0 614.0,160.0 615.4,160.0 616.8,160.0 618.1,160.0 619.5,160.0 620.9,160.0 622.3,160.0 623.7,160.0 625.0,160.0 626.4,160.0 627.8,160.0 629.1,160.0 630.5,160.0 631.9,160.0 633.2,160.0 634.6,160.0 635.9,160.0 637.3,160.0 638.6,160.0 640.0,160.0 641.3,160.0 642.6,160.0 644.0,160.0 645.3,160.0 646.6,160.0 647.9,160.0 649.2,160.0 650.6,160.0 651.9,160.0 653.2,160.0 654.5,160.0 655.8,160.0 657.1,160.0 658.4,160.0 659.7,160.0 661.0,160.0 662.2,160.0 663.5,160.0 664.8,160.0 666.1,160.0 667.4,160.0 668.6,160.0 669.9,160.0 671.2,160.0 672.5,160.0 673.7,160.0 675.0,160.0 676.3,160.0 677.5,160.0 678.8,160.0 680.0,160.0 681.3,160.0 682.5,160.0 683.8,160.0 685.0,160.0 686.2,160.0 687.5,160.0 688.7,160.0 690.0,160.0 691.2,160.0 692.4,160.0 693.7,160.0 694.9,160.0 696.1,160.0 697.3,160.0 698.5,160.0 699.8,160.0 701.0,160.0 702.2,160.0 703.4,160.0 704.6,160.0 705.8,160.0 707.1,160.0 708.3,160.0 709.5,160.0 710.7,160.0 711.9,160.0 713.1,160.0 714.3,160.0 715.5,160.0 716.7,160.0 717.9,160.0 719.1,160.0 720.3,160.0 721.5,160.0 722.7,160.0 723.9,160.0 725.0,160.0 726.2,160.0 727.4,160.0 728.6,160.0 729.8,160.0 731.0,160.0 732.2,160.0 733.3,160.0 734.5,160.0 735.7,160.0 736.9,160.0 738.1,160.0 739.2,160.0 740.4,160.0 741.6,160.0 742.8,160.0 743.9,160.0 745.1,160.0 746.3,160.0 747.4,160.0 748.6,160.0 749.8,160.0 750.9,160.0 752.1,160.0 753.3,160.0 754.4,160.0 755.6,160.0 756.8,160.0 757.9,160.0 759.1,160.0 760.2,160.0 761.4,160.0 762.5,160.0 763.7,160.0 764.8,160.0 766.0,160.0"/>
<line x1="606" y1="42" x2="628" y2="42" stroke="#0f62fe" stroke-width="2.2"/>
<text x="634" y="46" font-family="Arial" font-size="12">y_m</text>
</svg>