<svg xmlns="http://www.w3.org/2000/svg" width="820" height="320" viewBox="0 0 820 320">
<rect width="100%" height="100%" fill="#ffffff"/>
<text x="54" y="28" font-family="Arial" font-size="18" font-weight="700">Downrange Position</text>
<line x1="54" y1="266" x2="766" y2="266" stroke="#1f2933"/>
<line x1="54" y1="54" x2="54" y2="266" stroke="#1f2933"/>
<text x="54" y="306" font-family="Arial" font-size="12">time (s)</text>
<text x="596" y="306" font-family="Arial" font-size="12">x (m)</text>
<text x="58" y="68" font-family="Arial" font-size="11">9.19e+03</text>
<text x="58" y="260" font-family="Arial" font-size="11">0</text>
<polyline fill="none" stroke="#0f62fe" stroke-width="2.2" points="54.0,266.0 55.2,265.8 56.4,265.7 57.6,265.5 58.7,265.4 59.9,265.2 61.1,265.1 62.3,264.9 63.5,264.7 64.7,264.6 65.9,264.4 67.1,264.2 68.2,264.1 69.4,263.9 70.6,263.7 71.8,263.6 73.0,263.4 74.2,263.2 75.4,263.1 76.5,262.9 77.7,262.7 78.9,262.6 80.1,262.4 81.3,262.2 82.5,262.0 83.7,261.9 84.9,261.7 86.0,261.5 87.2,261.3 88.4,261.1 89.6,261.0 90.8,260.8 92.0,260.6 93.2,260.4 94.3,260.2 95.5,260.0 96.7,259.8 97.9,259.7 99.1,259.5 100.3,259.3 101.5,259.1 102.7,258.9 103.8,258.7 105.0,258.5 106.2,258.3 107.4,258.1 108.6,257.9 109.8,257.7 111.0,257.5 112.1,257.3 113.3,257.1 114.5,256.9 115.7,256.7 116.9,256.5 118.1,256.3 119.3,256.1 120.5,255.9 121.6,255.7 122.8,255.5 124.0,255.2 125.2,255.0 126.4,254.8 127.6,254.6 128.8,254.4 129.9,254.2 131.1,254.0 132.3,253.7 133.5,253.5 134.7,253.3 135.9,253.1 137.1,252.9 138.3,252.6 139.4,252.4 140.6,252.2 141.8,252.0 143.0,251.7 144.2,251.5 145.4,251.3 146.6,251.1 147.7,250.8 148.9,250.6 150.1,250.4 151.3,250.1 152.5,249.9 153.7,249.7 154.9,249.4 156.1,249.2 157.2,249.0 158.4,248.7 159.6,248.5 160.8,248.2 162.0,248.0 163.2,247.8 164.4,247.5 165.5,247.3 166.7,247.0 167.9,246.8 169.1,246.5 170.3,246.3 171.5,246.0 172.7,245.8 173.9,245.5 175.0,245.3 176.2,245.0 177.4,244.8 178.6,244.5 179.8,244.3 181.0,244.0 182.2,243.8 183.3,243.5 184.5,243.2 185.7,243.0 186.9,242.7 188.1,242.5 189.3,242.2 190.5,241.9 191.7,241.7 192.8,241.4 194.0,241.1 195.2,240.9 196.4,240.6 197.6,240.3 198.8,240.1 200.0,239.8 201.1,239.5 202.3,239.2 203.5,239.0 204.7,238.7 205.9,238.4 207.1,238.1 208.3,237.9 209.5,237.6 210.6,237.3 211.8,237.0 213.0,236.7 214.2,236.5 215.4,236.2 216.6,235.9 217.8,235.6 218.9,235.3 220.1,235.0 221.3,234.7 222.5,234.5 223.7,234.2 224.9,233.9 226.1,233.6 227.3,233.3 228.4,233.0 229.6,232.7 230.8,232.4 232.0,232.1 233.2,231.8 234.4,231.5 235.6,231.2 236.7,230.9 237.9,230.6 239.1,230.3 240.3,230.0 241.5,229.7 242.7,229.4 243.9,229.1 245.1,228.8 246.2,228.5 247.4,228.2 248.6,227.9 249.8,227.6 251.0,227.3 252.2,227.0 253.4,226.7 254.5,226.3 255.7,226.0 256.9,225.7 258.1,225.4 259.3,225.1 260.5,224.8 261.7,224.5 262.9,224.1 264.0,223.8 265.2,223.5 266.4,223.2 267.6,222.9 268.8,222.5 270.0,222.2 271.2,221.9 272.3,221.6 273.5,221.2 274.7,220.9 275.9,220.6 277.1,220.3 278.3,219.9 279.5,219.6 280.7,219.3 281.8,218.9 283.0,218.6 284.2,218.3 285.4,217.9 286.6,217.6 287.8,217.3 289.0,216.9 290.1,216.6 291.3,216.2 292.5,215.9 293.7,215.6 294.9,215.2 296.1,214.9 297.3,214.5 298.5,214.2 299.6,213.9 300.8,213.5 302.0,213.2 303.2,212.8 304.4,212.5 305.6,212.1 306.8,211.8 307.9,211.4 309.1,211.1 310.3,210.7 311.5,210.4 312.7,210.0 313.9,209.7 315.1,209.3 316.3,209.0 317.4,208.6 318.6,208.2 319.8,207.9 321.0,207.5 322.2,207.2 323.4,206.8 324.6,206.5 325.7,206.1 326.9,205.7 328.1,205.4 329.3,205.0 330.5,204.6 331.7,204.3 332.9,203.9 334.1,203.5 335.2,203.2 336.4,202.8 337.6,202.4 338.8,202.1 340.0,201.7 341.2,201.3 342.4,200.9 343.5,200.6 344.7,200.2 345.9,199.8 347.1,199.5 348.3,199.1 349.5,198.7 350.7,198.3 351.9,197.9 353.0,197.6 354.2,197.2 355.4,196.8 356.6,196.4 357.8,196.0 359.0,195.7 360.2,195.3 361.3,194.9 362.5,194.5 363.7,194.1 364.9,193.7 366.1,193.4 367.3,193.0 368.5,192.6 369.7,192.2 370.8,191.8 372.0,191.4 373.2,191.0 374.4,190.6 375.6,190.2 376.8,189.8 378.0,189.4 379.1,189.1 380.3,188.7 381.5,188.3 382.7,187.9 383.9,187.5 385.1,187.1 386.3,186.7 387.5,186.3 388.6,185.9 389.8,185.5 391.0,185.1 392.2,184.7 393.4,184.3 394.6,183.9 395.8,183.5 396.9,183.1 398.1,182.7 399.3,182.2 400.5,181.8 401.7,181.4 402.9,181.0 404.1,180.6 405.3,180.2 406.4,179.8 407.6,179.4 408.8,179.0 410.0,178.6 411.2,178.2 412.4,177.7 413.6,177.3 414.7,176.9 415.9,176.5 417.1,176.1 418.3,175.7 419.5,175.3 420.7,174.8 421.9,174.4 423.1,174.0 424.2,173.6 425.4,173.2 426.6,172.7 427.8,172.3 429.0,171.9 430.2,171.5 431.4,171.1 432.5,170.6 433.7,170.2 434.9,169.8 436.1,169.4 437.3,168.9 438.5,168.5 439.7,168.1 440.9,167.6 442.0,167.2 443.2,166.8 444.4,166.4 445.6,165.9 446.8,165.5 448.0,165.1 449.2,164.6 450.3,164.2 451.5,163.8 452.7,163.3 453.9,162.9 455.1,162.5 456.3,162.0 457.5,161.6 458.7,161.2 459.8,160.7 461.0,160.3 462.2,159.8 463.4,159.4 464.6,159.0 465.8,158.5 467.0,158.1 468.1,157.7 469.3,157.2 470.5,156.8 471.7,156.3 472.9,155.9 474.1,155.4 475.3,155.0 476.5,154.6 477.6,154.1 478.8,153.7 480.0,153.2 481.2,152.8 482.4,152.4 483.6,151.9 484.8,151.5 485.9,151.0 487.1,150.6 488.3,150.1 489.5,149.7 490.7,149.2 491.9,148.8 493.1,148.3 494.3,147.9 495.4,147.4 496.6,147.0 497.8,146.5 499.0,146.1 500.2,145.6 501.4,145.2 502.6,144.7 503.7,144.3 504.9,143.8 506.1,143.4 507.3,142.9 508.5,142.5 509.7,142.0 510.9,141.5 512.1,141.1 513.2,140.6 514.4,140.2 515.6,139.7 516.8,139.2 518.0,138.8 519.2,138.3 520.4,137.9 521.5,137.4 522.7,137.0 523.9,136.5 525.1,136.0 526.3,135.6 527.5,135.1 528.7,134.6 529.9,134.2 531.0,133.7 532.2,133.2 533.4,132.8 534.6,132.3 535.8,131.9 537.0,131.4 538.2,130.9 539.3,130.5 540.5,130.0 541.7,129.5 542.9,129.0 544.1,128.6 545.3,128.1 546.5,127.6 547.7,127.2 548.8,126.7 550.0,126.2 551.2,125.8 552.4,125.3 553.6,124.8 554.8,124.4 556.0,123.9 557.1,123.4 558.3,123.0 559.5,122.5 560.7,122.0 561.9,121.6 563.1,121.1 564.3,120.6 565.5,120.2 566.6,119.7 567.8,119.2 569.0,118.8 570.2,118.3 571.4,117.8 572.6,117.4 573.8,116.9 574.9,116.5 576.1,116.0 577.3,115.5 578.5,115.1 579.7,114.6 580.9,114.1 582.1,113.7 583.3,113.2 584.4,112.8 585.6,112.3 586.8,111.9 588.0,111.4 589.2,111.0 590.4,110.5 591.6,110.1 592.7,109.6 593.9,109.2 595.1,108.7 596.3,108.3 597.5,107.8 598.7,107.4 599.9,107.0 601.1,106.5 602.2,106.1 603.4,105.6 604.6,105.2 605.8,104.8 607.0,104.3 608.2,103.9 609.4,103.5 610.5,103.1 611.7,102.6 612.9,102.2 614.1,101.8 615.3,101.4 616.5,100.9 617.7,100.5 618.9,100.1 620.0,99.7 621.2,99.3 622.4,98.9 623.6,98.4 624.8,98.0 626.0,97.6 627.2,97.2 628.3,96.8 629.5,96.4 630.7,96.0 631.9,95.6 633.1,95.2 634.3,94.7 635.5,94.3 636.7,93.9 637.8,93.5 639.0,93.1 640.2,92.7 641.4,92.3 642.6,91.9 643.8,91.5 645.0,91.1 646.1,90.7 647.3,90.3 648.5,89.9 649.7,89.5 650.9,89.2 652.1,88.8 653.3,88.4 654.5,88.0 655.6,87.6 656.8,87.2 658.0,86.8 659.2,86.4 660.4,86.0 661.6,85.7 662.8,85.3 663.9,84.9 665.1,84.5 666.3,84.1 667.5,83.7 668.7,83.4 669.9,83.0 671.1,82.6 672.3,82.2 673.4,81.9 674.6,81.5 675.8,81.1 677.0,80.7 678.2,80.3 679.4,80.0 680.6,79.6 681.7,79.2 682.9,78.9 684.1,78.5 685.3,78.1 686.5,77.7 687.7,77.4 688.9,77.0 690.1,76.6 691.2,76.3 692.4,75.9 693.6,75.5 694.8,75.2 696.0,74.8 697.2,74.4 698.4,74.1 699.5,73.7 700.7,73.4 701.9,73.0 703.1,72.6 704.3,72.3 705.5,71.9 706.7,71.6 707.9,71.2 709.0,70.8 710.2,70.5 711.4,70.1 712.6,69.8 713.8,69.4 715.0,69.0 716.2,68.7 717.3,68.3 718.5,68.0 719.7,67.6 720.9,67.3 722.1,66.9 723.3,66.5 724.5,66.2 725.7,65.8 726.8,65.5 728.0,65.1 729.2,64.8 730.4,64.4 731.6,64.1 732.8,63.7 734.0,63.4 735.1,63.0 736.3,62.7 737.5,62.3 738.7,62.0 739.9,61.6 741.1,61.3 742.3,60.9 743.5,60.6 744.6,60.2 745.8,59.9 747.0,59.5 748.2,59.2 749.4,58.8 750.6,58.5 751.8,58.1 752.9,57.8 754.1,57.4 755.3,57.1 756.5,56.8 757.7,56.4 758.9,56.1 760.1,55.7 761.3,55.4 762.4,55.0 763.6,54.7 764.8,54.3 766.0,54.0"/>
<line x1="606" y1="42" x2="628" y2="42" stroke="#0f62fe" stroke-width="2.2"/>
<text x="634" y="46" font-family="Arial" font-size="12">x_m</text>
</svg>