<svg xmlns="http://www.w3.org/2000/svg" width="820" height="320" viewBox="0 0 820 320">
<rect width="100%" height="100%" fill="#ffffff"/>
<text x="54" y="28" font-family="Arial" font-size="18" font-weight="700">Speed</text>
<line x1="54" y1="266" x2="766" y2="266" stroke="#1f2933"/>
<line x1="54" y1="54" x2="54" y2="266" stroke="#1f2933"/>
<text x="54" y="306" font-family="Arial" font-size="12">time (s)</text>
<text x="596" y="306" font-family="Arial" font-size="12">speed (m/s)</text>
<text x="58" y="68" font-family="Arial" font-size="11">510</text>
<text x="58" y="260" font-family="Arial" font-size="11">168</text>
<polyline fill="none" stroke="#0f62fe" stroke-width="2.2" points="54.0,266.0 55.2,265.5 56.4,264.9 57.6,264.4 58.7,263.8 59.9,263.3 61.1,262.7 62.3,262.1 63.5,261.6 64.7,261.0 65.9,260.4 67.1,259.8 68.2,259.2 69.4,258.6 70.6,258.0 71.8,257.4 73.0,256.8 74.2,256.2 75.4,255.6 76.5,254.9 77.7,254.3 78.9,253.6 80.1,253.0 81.3,252.3 82.5,251.7 83.7,251.0 84.9,250.4 86.0,249.7 87.2,249.0 88.4,248.4 89.6,247.7 90.8,247.0 92.0,246.4 93.2,245.7 94.3,245.0 95.5,244.4 96.7,243.7 97.9,243.0 99.1,242.4 100.3,241.7 101.5,241.0 102.7,240.4 103.8,239.7 105.0,239.0 106.2,238.4 107.4,237.7 108.6,237.0 109.8,236.4 111.0,235.7 112.1,235.0 113.3,234.4 114.5,233.7 115.7,233.1 116.9,232.4 118.1,231.7 119.3,231.1 120.5,230.4 121.6,229.8 122.8,229.1 124.0,228.4 125.2,227.8 126.4,227.1 127.6,226.5 128.8,225.8 129.9,225.2 131.1,224.5 132.3,223.8 133.5,223.2 134.7,222.5 135.9,221.9 137.1,221.2 138.3,220.6 139.4,219.9 140.6,219.3 141.8,218.6 143.0,218.0 144.2,217.3 145.4,216.7 146.6,216.0 147.7,215.4 148.9,214.7 150.1,214.1 151.3,213.4 152.5,212.8 153.7,212.1 154.9,211.5 156.1,210.9 157.2,210.2 158.4,209.6 159.6,208.9 160.8,208.3 162.0,207.7 163.2,207.0 164.4,206.4 165.5,205.7 166.7,205.1 167.9,204.5 169.1,203.8 170.3,203.2 171.5,202.6 172.7,201.9 173.9,201.3 175.0,200.7 176.2,200.0 177.4,199.4 178.6,198.8 179.8,198.2 181.0,197.5 182.2,196.9 183.3,196.3 184.5,195.7 185.7,195.0 186.9,194.4 188.1,193.8 189.3,193.2 190.5,192.5 191.7,191.9 192.8,191.3 194.0,190.7 195.2,190.0 196.4,189.4 197.6,188.8 198.8,188.2 200.0,187.6 201.1,187.0 202.3,186.4 203.5,185.8 204.7,185.2 205.9,184.5 207.1,183.9 208.3,183.3 209.5,182.7 210.6,182.1 211.8,181.5 213.0,180.9 214.2,180.3 215.4,179.7 216.6,179.1 217.8,178.5 218.9,177.9 220.1,177.3 221.3,176.7 222.5,176.1 223.7,175.5 224.9,174.9 226.1,174.3 227.3,173.7 228.4,173.1 229.6,172.5 230.8,171.9 232.0,171.3 233.2,170.7 234.4,170.1 235.6,169.5 236.7,168.9 237.9,168.3 239.1,167.8 240.3,167.2 241.5,166.6 242.7,166.0 243.9,165.4 245.1,164.8 246.2,164.2 247.4,163.6 248.6,163.1 249.8,162.5 251.0,161.9 252.2,161.3 253.4,160.7 254.5,160.2 255.7,159.6 256.9,159.0 258.1,158.4 259.3,157.9 260.5,157.3 261.7,156.7 262.9,156.1 264.0,155.6 265.2,155.0 266.4,154.4 267.6,153.9 268.8,153.3 270.0,152.7 271.2,152.2 272.3,151.6 273.5,151.0 274.7,150.5 275.9,149.9 277.1,149.3 278.3,148.8 279.5,148.2 280.7,147.7 281.8,147.1 283.0,146.6 284.2,146.0 285.4,145.4 286.6,144.9 287.8,144.3 289.0,143.8 290.1,143.2 291.3,142.7 292.5,142.1 293.7,141.6 294.9,141.0 296.1,140.5 297.3,139.9 298.5,139.4 299.6,138.8 300.8,138.3 302.0,137.8 303.2,137.2 304.4,136.7 305.6,136.1 306.8,135.6 307.9,135.1 309.1,134.5 310.3,134.0 311.5,133.5 312.7,132.9 313.9,132.4 315.1,131.9 316.3,131.4 317.4,130.8 318.6,130.3 319.8,129.7 321.0,129.2 322.2,128.7 323.4,128.2 324.6,127.6 325.7,127.1 326.9,126.6 328.1,126.1 329.3,125.6 330.5,125.1 331.7,124.6 332.9,124.0 334.1,123.5 335.2,123.0 336.4,122.5 337.6,122.0 338.8,121.5 340.0,121.0 341.2,120.5 342.4,119.9 343.5,119.4 344.7,118.9 345.9,118.4 347.1,117.9 348.3,117.4 349.5,116.9 350.7,116.4 351.9,115.9 353.0,115.4 354.2,115.0 355.4,114.5 356.6,113.9 357.8,113.5 359.0,113.0 360.2,112.5 361.3,112.0 362.5,111.5 363.7,111.1 364.9,110.6 366.1,110.1 367.3,109.6 368.5,109.2 369.7,108.7 370.8,108.2 372.0,107.7 373.2,107.3 374.4,106.8 375.6,106.3 376.8,105.8 378.0,105.4 379.1,105.0 380.3,104.5 381.5,104.0 382.7,103.6 383.9,103.1 385.1,102.6 386.3,102.2 387.5,101.8 388.6,101.3 389.8,100.8 391.0,100.4 392.2,100.0 393.4,99.5 394.6,99.0 395.8,98.6 396.9,98.1 398.1,97.7 399.3,97.2 400.5,96.7 401.7,96.2 402.9,95.9 404.1,95.6 405.3,95.2 406.4,94.8 407.6,94.3 408.8,93.8 410.0,93.3 411.2,92.9 412.4,92.5 413.6,91.9 414.7,91.4 415.9,90.9 417.1,90.5 418.3,90.1 419.5,89.7 420.7,89.2 421.9,88.7 423.1,88.3 424.2,87.9 425.4,87.5 426.6,87.0 427.8,86.5 429.0,85.9 430.2,85.4 431.4,84.9 432.5,84.5 433.7,84.2 434.9,83.9 436.1,83.6 437.3,83.1 438.5,82.6 439.7,82.1 440.9,81.6 442.0,81.1 443.2,80.7 444.4,80.4 445.6,80.1 446.8,79.9 448.0,79.4 449.2,78.9 450.3,78.5 451.5,78.0 452.7,77.5 453.9,77.0 455.1,76.8 456.3,76.8 457.5,76.9 458.7,76.8 459.8,76.6 461.0,76.2 462.2,75.8 463.4,75.4 464.6,75.2 465.8,74.9 467.0,74.5 468.1,74.0 469.3,73.7 470.5,73.5 471.7,73.6 472.9,73.7 474.1,73.7 475.3,73.4 476.5,73.0 477.6,72.5 478.8,72.0 480.0,71.6 481.2,71.1 482.4,70.7 483.6,70.5 484.8,70.3 485.9,70.0 487.1,69.5 488.3,69.1 489.5,68.7 490.7,68.4 491.9,68.0 493.1,67.5 494.3,67.1 495.4,67.0 496.6,66.9 497.8,66.7 499.0,66.4 500.2,66.0 501.4,65.5 502.6,65.1 503.7,64.7 504.9,64.2 506.1,63.9 507.3,63.6 508.5,63.4 509.7,63.0 510.9,62.5 512.1,62.1 513.2,61.7 514.4,61.3 515.6,60.9 516.8,60.7 518.0,60.6 519.2,60.6 520.4,60.5 521.5,60.3 522.7,59.8 523.9,59.4 525.1,59.0 526.3,58.6 527.5,58.2 528.7,57.9 529.9,57.7 531.0,57.5 532.2,57.3 533.4,56.9 534.6,56.5 535.8,56.2 537.0,56.1 538.2,55.8 539.3,55.5 540.5,55.1 541.7,54.9 542.9,54.9 544.1,55.2 545.3,55.4 546.5,55.4 547.7,55.2 548.8,54.7 550.0,54.5 551.2,54.5 552.4,54.7 553.6,54.8 554.8,54.8 556.0,54.4 557.1,54.1 558.3,54.0 559.5,54.4 560.7,55.2 561.9,56.1 563.1,56.8 564.3,57.2 565.5,57.2 566.6,56.8 567.8,56.6 569.0,56.8 570.2,57.3 571.4,58.0 572.6,58.7 573.8,59.3 574.9,59.5 576.1,59.3 577.3,58.9 578.5,58.9 579.7,59.5 580.9,60.7 582.1,62.1 583.3,63.5 584.4,64.8 585.6,65.6 586.8,65.7 588.0,65.5 589.2,65.7 590.4,66.5 591.6,67.6 592.7,68.9 593.9,70.2 595.1,71.5 596.3,72.5 597.5,73.1 598.7,73.5 599.9,73.9 601.1,74.7 602.2,76.0 603.4,77.5 604.6,79.1 605.8,80.5 607.0,81.5 608.2,82.1 609.4,82.4 610.5,82.8 611.7,83.6 612.9,84.6 614.1,85.7 615.3,86.9 616.5,87.8 617.7,88.5 618.9,88.9 620.0,89.1 621.2,89.7 622.4,90.5 623.6,91.4 624.8,92.5 626.0,93.3 627.2,93.8 628.3,94.1 629.5,94.4 630.7,94.9 631.9,95.6 633.1,96.4 634.3,97.1 635.5,97.6 636.7,97.9 637.8,98.2 639.0,98.6 640.2,99.5 641.4,100.6 642.6,101.9 643.8,103.1 645.0,104.0 646.1,104.6 647.3,104.9 648.5,105.2 649.7,105.7 650.9,106.4 652.1,107.2 653.3,108.0 654.5,108.6 655.6,109.0 656.8,109.3 658.0,109.6 659.2,110.1 660.4,110.9 661.6,111.8 662.8,112.7 663.9,113.4 665.1,113.8 666.3,114.1 667.5,114.3 668.7,114.7 669.9,115.2 671.1,115.6 672.3,116.0 673.4,116.3 674.6,116.5 675.8,116.9 677.0,117.6 678.2,118.5 679.4,119.5 680.6,120.3 681.7,121.0 682.9,121.4 684.1,121.6 685.3,121.8 686.5,122.1 687.7,122.4 688.9,122.6 690.1,122.8 691.2,123.0 692.4,123.5 693.6,124.1 694.8,124.8 696.0,125.5 697.2,126.0 698.4,126.3 699.5,126.5 700.7,126.7 701.9,126.9 703.1,127.2 704.3,127.4 705.5,127.6 706.7,127.9 707.9,128.3 709.0,128.7 710.2,129.2 711.4,129.5 712.6,129.7 713.8,129.9 715.0,130.1 716.2,130.3 717.3,130.5 718.5,130.7 719.7,131.0 720.9,131.4 722.1,131.7 723.3,132.1 724.5,132.3 725.7,132.4 726.8,132.7 728.0,132.9 729.2,133.1 730.4,133.3 731.6,133.5 732.8,133.8 734.0,134.1 735.1,134.3 736.3,134.5 737.5,134.7 738.7,134.9 739.9,135.1 741.1,135.2 742.3,135.4 743.5,135.7 744.6,136.0 745.8,136.4 747.0,136.6 748.2,136.8 749.4,136.9 750.6,137.1 751.8,137.3 752.9,137.5 754.1,137.7 755.3,138.0 756.5,138.2 757.7,138.4 758.9,138.5 760.1,138.7 761.3,138.8 762.4,139.1 763.6,139.3 764.8,139.6 766.0,139.9"/>
<line x1="606" y1="42" x2="628" y2="42" stroke="#0f62fe" stroke-width="2.2"/>
<text x="634" y="46" font-family="Arial" font-size="12">speed_mps</text>
<polyline fill="none" stroke="#24a148" stroke-width="2.2" points="54.0,266.0 55.2,265.5 56.4,264.9 57.6,264.4 58.7,263.8 59.9,263.3 61.1,262.7 62.3,262.1 63.5,261.6 64.7,261.0 65.9,260.4 67.1,259.8 68.2,259.2 69.4,258.6 70.6,258.0 71.8,257.4 73.0,256.8 74.2,256.2 75.4,255.6 76.5,254.9 77.7,254.3 78.9,253.6 80.1,253.0 81.3,252.3 82.5,251.7 83.7,251.0 84.9,250.4 86.0,249.7 87.2,249.0 88.4,248.4 89.6,247.7 90.8,247.0 92.0,246.4 93.2,245.7 94.3,245.0 95.5,244.4 96.7,243.7 97.9,243.0 99.1,242.4 100.3,241.7 101.5,241.0 102.7,240.4 103.8,239.7 105.0,239.0 106.2,238.4 107.4,237.7 108.6,237.0 109.8,236.4 111.0,235.7 112.1,235.0 113.3,234.4 114.5,233.7 115.7,233.1 116.9,232.4 118.1,231.7 119.3,231.1 120.5,230.4 121.6,229.8 122.8,229.1 124.0,228.4 125.2,227.8 126.4,227.1 127.6,226.5 128.8,225.8 129.9,225.2 131.1,224.5 132.3,223.8 133.5,223.2 134.7,222.5 135.9,221.9 137.1,221.2 138.3,220.6 139.4,219.9 140.6,219.3 141.8,218.6 143.0,218.0 144.2,217.3 145.4,216.7 146.6,216.0 147.7,215.4 148.9,214.7 150.1,214.1 151.3,213.4 152.5,212.8 153.7,212.1 154.9,211.5 156.1,210.9 157.2,210.2 158.4,209.6 159.6,208.9 160.8,208.3 162.0,207.7 163.2,207.0 164.4,206.4 165.5,205.7 166.7,205.1 167.9,204.5 169.1,203.8 170.3,203.2 171.5,202.6 172.7,201.9 173.9,201.3 175.0,200.7 176.2,200.0 177.4,199.4 178.6,198.8 179.8,198.2 181.0,197.5 182.2,196.9 183.3,196.3 184.5,195.7 185.7,195.0 186.9,194.4 188.1,193.8 189.3,193.2 190.5,192.5 191.7,191.9 192.8,191.3 194.0,190.7 195.2,190.0 196.4,189.4 197.6,188.8 198.8,188.2 200.0,187.6 201.1,187.0 202.3,186.4 203.5,185.8 204.7,185.2 205.9,184.5 207.1,183.9 208.3,183.3 209.5,182.7 210.6,182.1 211.8,181.5 213.0,180.9 214.2,180.3 215.4,179.7 216.6,179.1 217.8,178.5 218.9,177.9 220.1,177.3 221.3,176.7 222.5,176.1 223.7,175.5 224.9,174.9 226.1,174.3 227.3,173.7 228.4,173.1 229.6,172.5 230.8,171.9 232.0,171.3 233.2,170.7 234.4,170.1 235.6,169.5 236.7,168.9 237.9,168.3 239.1,167.8 240.3,167.2 241.5,166.6 242.7,166.0 243.9,165.4 245.1,164.8 246.2,164.2 247.4,163.6 248.6,163.1 249.8,162.5 251.0,161.9 252.2,161.3 253.4,160.7 254.5,160.2 255.7,159.6 256.9,159.0 258.1,158.4 259.3,157.9 260.5,157.3 261.7,156.7 262.9,156.1 264.0,155.6 265.2,155.0 266.4,154.4 267.6,153.9 268.8,153.3 270.0,152.7 271.2,152.2 272.3,151.6 273.5,151.0 274.7,150.5 275.9,149.9 277.1,149.3 278.3,148.8 279.5,148.2 280.7,147.7 281.8,147.1 283.0,146.6 284.2,146.0 285.4,145.4 286.6,144.9 287.8,144.3 289.0,143.8 290.1,143.2 291.3,142.7 292.5,142.1 293.7,141.6 294.9,141.0 296.1,140.5 297.3,139.9 298.5,139.4 299.6,138.8 300.8,138.3 302.0,137.8 303.2,137.2 304.4,136.7 305.6,136.1 306.8,135.6 307.9,135.1 309.1,134.5 310.3,134.0 311.5,133.5 312.7,132.9 313.9,132.4 315.1,131.9 316.3,131.4 317.4,130.8 318.6,130.3 319.8,129.7 321.0,129.2 322.2,128.7 323.4,128.2 324.6,127.6 325.7,127.1 326.9,126.6 328.1,126.1 329.3,125.6 330.5,125.1 331.7,124.6 332.9,124.0 334.1,123.5 335.2,123.0 336.4,122.5 337.6,122.0 338.8,121.5 340.0,121.0 341.2,120.5 342.4,119.9 343.5,119.4 344.7,118.9 345.9,118.4 347.1,117.9 348.3,117.4 349.5,116.9 350.7,116.4 351.9,115.9 353.0,115.4 354.2,115.0 355.4,114.5 356.6,113.9 357.8,113.5 359.0,113.0 360.2,112.5 361.3,112.0 362.5,111.5 363.7,111.1 364.9,110.6 366.1,110.1 367.3,109.6 368.5,109.2 369.7,108.7 370.8,108.2 372.0,107.7 373.2,107.3 374.4,106.8 375.6,106.3 376.8,105.8 378.0,105.4 379.1,105.0 380.3,104.5 381.5,104.0 382.7,103.6 383.9,103.1 385.1,102.6 386.3,102.2 387.5,101.8 388.6,101.3 389.8,100.8 391.0,100.4 392.2,100.0 393.4,99.5 394.6,99.0 395.8,98.6 396.9,98.1 398.1,97.7 399.3,97.2 400.5,96.7 401.7,96.2 402.9,95.9 404.1,95.6 405.3,95.2 406.4,94.8 407.6,94.3 408.8,93.8 410.0,93.3 411.2,92.9 412.4,92.5 413.6,91.9 414.7,91.4 415.9,90.9 417.1,90.5 418.3,90.1 419.5,89.7 420.7,89.2 421.9,88.7 423.1,88.3 424.2,87.9 425.4,87.5 426.6,87.0 427.8,86.5 429.0,85.9 430.2,85.4 431.4,84.9 432.5,84.5 433.7,84.2 434.9,83.9 436.1,83.6 437.3,83.1 438.5,82.6 439.7,82.1 440.9,81.6 442.0,81.1 443.2,80.7 444.4,80.4 445.6,80.1 446.8,79.9 448.0,79.4 449.2,78.9 450.3,78.5 451.5,78.0 452.7,77.5 453.9,77.0 455.1,76.8 456.3,76.8 457.5,76.9 458.7,76.8 459.8,76.6 461.0,76.2 462.2,75.8 463.4,75.4 464.6,75.2 465.8,74.9 467.0,74.5 468.1,74.0 469.3,73.7 470.5,73.5 471.7,73.6 472.9,73.7 474.1,73.7 475.3,73.4 476.5,73.0 477.6,72.5 478.8,72.0 480.0,71.6 481.2,71.1 482.4,70.7 483.6,70.5 484.8,70.3 485.9,70.0 487.1,69.5 488.3,69.1 489.5,68.7 490.7,68.4 491.9,68.0 493.1,67.5 494.3,67.1 495.4,67.0 496.6,66.9 497.8,66.7 499.0,66.4 500.2,66.0 501.4,65.5 502.6,65.1 503.7,64.7 504.9,64.2 506.1,63.9 507.3,63.6 508.5,63.4 509.7,63.0 510.9,62.5 512.1,62.1 513.2,61.7 514.4,61.3 515.6,60.9 516.8,60.7 518.0,60.6 519.2,60.6 520.4,60.5 521.5,60.3 522.7,59.8 523.9,59.4 525.1,59.0 526.3,58.6 527.5,58.2 528.7,57.9 529.9,57.7 531.0,57.5 532.2,57.3 533.4,56.9 534.6,56.5 535.8,56.2 537.0,56.1 538.2,55.8 539.3,55.5 540.5,55.1 541.7,54.9 542.9,54.9 544.1,55.2 545.3,55.4 546.5,55.4 547.7,55.2 548.8,54.7 550.0,54.5 551.2,54.5 552.4,54.7 553.6,54.8 554.8,54.8 556.0,54.4 557.1,54.1 558.3,54.0 559.5,54.4 560.7,55.2 561.9,56.1 563.1,56.8 564.3,57.2 565.5,57.2 566.6,56.8 567.8,56.6 569.0,56.8 570.2,57.3 571.4,58.0 572.6,58.7 573.8,59.3 574.9,59.5 576.1,59.3 577.3,58.9 578.5,58.9 579.7,59.5 580.9,60.7 582.1,62.1 583.3,63.5 584.4,64.8 585.6,65.6 586.8,65.7 588.0,65.5 589.2,65.7 590.4,66.5 591.6,67.6 592.7,68.9 593.9,70.2 595.1,71.5 596.3,72.5 597.5,73.1 598.7,73.5 599.9,73.9 601.1,74.7 602.2,76.0 603.4,77.5 604.6,79.1 605.8,80.5 607.0,81.5 608.2,82.1 609.4,82.4 610.5,82.8 611.7,83.6 612.9,84.6 614.1,85.7 615.3,86.9 616.5,87.8 617.7,88.5 618.9,88.9 620.0,89.1 621.2,89.7 622.4,90.5 623.6,91.4 624.8,92.5 626.0,93.3 627.2,93.8 628.3,94.1 629.5,94.4 630.7,94.9 631.9,95.6 633.1,96.4 634.3,97.1 635.5,97.6 636.7,97.9 637.8,98.2 639.0,98.6 640.2,99.5 641.4,100.6 642.6,101.9 643.8,103.1 645.0,104.0 646.1,104.6 647.3,104.9 648.5,105.2 649.7,105.7 650.9,106.4 652.1,107.2 653.3,108.0 654.5,108.6 655.6,109.0 656.8,109.3 658.0,109.6 659.2,110.1 660.4,110.9 661.6,111.8 662.8,112.7 663.9,113.4 665.1,113.8 666.3,114.1 667.5,114.3 668.7,114.7 669.9,115.2 671.1,115.6 672.3,116.0 673.4,116.3 674.6,116.5 675.8,116.9 677.0,117.6 678.2,118.5 679.4,119.5 680.6,120.3 681.7,121.0 682.9,121.4 684.1,121.6 685.3,121.8 686.5,122.1 687.7,122.4 688.9,122.6 690.1,122.8 691.2,123.0 692.4,123.5 693.6,124.1 694.8,124.8 696.0,125.5 697.2,126.0 698.4,126.3 699.5,126.5 700.7,126.7 701.9,126.9 703.1,127.2 704.3,127.4 705.5,127.6 706.7,127.9 707.9,128.3 709.0,128.7 710.2,129.2 711.4,129.5 712.6,129.7 713.8,129.9 715.0,130.1 716.2,130.3 717.3,130.5 718.5,130.7 719.7,131.0 720.9,131.4 722.1,131.7 723.3,132.1 724.5,132.3 725.7,132.4 726.8,132.7 728.0,132.9 729.2,133.1 730.4,133.3 731.6,133.5 732.8,133.8 734.0,134.1 735.1,134.3 736.3,134.5 737.5,134.7 738.7,134.9 739.9,135.1 741.1,135.2 742.3,135.4 743.5,135.7 744.6,136.0 745.8,136.4 747.0,136.6 748.2,136.8 749.4,136.9 750.6,137.1 751.8,137.3 752.9,137.5 754.1,137.7 755.3,138.0 756.5,138.2 757.7,138.4 758.9,138.5 760.1,138.7 761.3,138.8 762.4,139.1 763.6,139.3 764.8,139.6 766.0,139.9"/>
<line x1="606" y1="60" x2="628" y2="60" stroke="#24a148" stroke-width="2.2"/>
<text x="634" y="64" font-family="Arial" font-size="12">airspeed_mps</text>
</svg>