<svg xmlns="http://www.w3.org/2000/svg" width="820" height="320" viewBox="0 0 820 320">
<rect width="100%" height="100%" fill="#ffffff"/>
<text x="54" y="28" font-family="Arial" font-size="18" font-weight="700">Control Surfaces</text>
<line x1="54" y1="266" x2="766" y2="266" stroke="#1f2933"/>
<line x1="54" y1="54" x2="54" y2="266" stroke="#1f2933"/>
<text x="54" y="306" font-family="Arial" font-size="12">time (s)</text>
<text x="596" y="306" font-family="Arial" font-size="12">deflection (deg)</text>
<text x="58" y="68" font-family="Arial" font-size="11">20.6</text>
<text x="58" y="260" font-family="Arial" font-size="11">-20.4</text>
<polyline fill="none" stroke="#0f62fe" stroke-width="2.2" points="54.0,185.6 55.2,160.7 56.4,145.2 57.6,163.5 58.7,181.6 59.9,176.1 61.1,161.8 62.3,161.0 63.5,171.2 64.7,175.5 65.9,169.9 67.1,165.3 68.2,168.4 69.4,173.0 70.6,172.3 71.8,169.0 73.0,169.0 74.2,171.8 75.4,172.7 76.5,171.1 77.7,170.4 78.9,171.8 80.1,172.9 81.3,172.3 82.5,171.6 83.7,172.3 84.9,173.3 86.0,173.1 87.2,172.6 88.4,173.0 89.6,173.8 90.8,173.8 92.0,173.4 93.2,173.7 94.3,174.3 95.5,174.4 96.7,174.1 97.9,174.4 99.1,174.9 100.3,175.0 101.5,174.8 102.7,175.1 103.8,175.5 105.0,175.5 106.2,175.4 107.4,175.7 108.6,176.1 109.8,176.0 111.0,176.0 112.1,176.4 113.3,176.6 114.5,176.5 115.7,176.6 116.9,177.0 118.1,177.1 119.3,177.0 120.5,177.3 121.6,177.6 122.8,177.5 124.0,177.5 125.2,177.9 126.4,178.1 127.6,177.9 128.8,178.1 129.9,178.5 131.1,178.4 132.3,178.3 133.5,178.8 134.7,179.0 135.9,178.7 137.1,178.9 138.3,179.4 139.4,179.2 140.6,179.1 141.8,179.7 143.0,179.8 144.2,179.3 145.4,179.8 146.6,180.3 147.7,179.6 148.9,179.8 150.1,180.8 151.3,180.2 152.5,179.7 153.7,181.2 154.9,180.9 156.1,179.6 157.2,181.4 158.4,181.8 159.6,179.5 160.8,181.2 162.0,182.9 163.2,179.4 164.4,180.8 165.5,184.4 166.7,179.4 167.9,179.7 169.1,186.3 170.3,179.5 171.5,177.8 172.7,189.0 173.9,179.6 175.0,174.5 176.2,193.4 177.4,179.7 178.6,168.9 179.8,193.8 181.0,191.7 182.2,166.9 183.3,175.4 184.5,200.2 185.7,188.3 186.9,163.5 188.1,177.7 189.3,202.5 190.5,185.8 191.7,161.0 192.8,184.4 194.0,208.6 195.2,183.8 196.4,159.0 197.6,183.8 198.8,208.6 200.0,183.8 201.1,159.0 202.3,183.8 203.5,208.6 204.7,183.8 205.9,159.0 207.1,183.8 208.3,208.6 209.5,183.8 210.6,159.0 211.8,183.8 213.0,208.6 214.2,183.8 215.4,159.0 216.6,183.8 217.8,208.6 218.9,183.8 220.1,159.0 221.3,183.8 222.5,208.6 223.7,183.8 224.9,159.0 226.1,183.8 227.3,208.6 228.4,183.8 229.6,159.0 230.8,183.8 232.0,208.6 233.2,183.8 234.4,159.0 235.6,183.8 236.7,208.6 237.9,183.8 239.1,159.0 240.3,183.8 241.5,208.6 242.7,183.8 243.9,159.0 245.1,183.8 246.2,208.6 247.4,183.8 248.6,159.0 249.8,183.8 251.0,208.6 252.2,183.8 253.4,159.0 254.5,183.8 255.7,208.6 256.9,183.8 258.1,159.0 259.3,183.8 260.5,208.6 261.7,183.8 262.9,159.0 264.0,183.8 265.2,208.6 266.4,183.8 267.6,159.0 268.8,183.8 270.0,208.6 271.2,183.8 272.3,159.0 273.5,183.8 274.7,208.6 275.9,183.8 277.1,159.0 278.3,183.8 279.5,208.6 280.7,183.8 281.8,159.0 283.0,183.8 284.2,208.6 285.4,183.8 286.6,159.0 287.8,183.8 289.0,208.6 290.1,183.8 291.3,159.0 292.5,183.8 293.7,208.6 294.9,183.8 296.1,159.0 297.3,183.8 298.5,208.6 299.6,183.8 300.8,159.0 302.0,183.8 303.2,208.6 304.4,183.8 305.6,159.0 306.8,183.8 307.9,208.6 309.1,183.8 310.3,159.0 311.5,183.8 312.7,208.6 313.9,183.8 315.1,159.0 316.3,183.8 317.4,208.6 318.6,183.8 319.8,159.0 321.0,183.8 322.2,208.6 323.4,183.8 324.6,159.0 325.7,183.8 326.9,208.6 328.1,183.8 329.3,159.0 330.5,183.8 331.7,208.6 332.9,183.8 334.1,159.0 335.2,183.8 336.4,208.6 337.6,183.8 338.8,159.0 340.0,183.8 341.2,208.6 342.4,183.8 343.5,159.0 344.7,183.8 345.9,208.6 347.1,183.8 348.3,159.0 349.5,183.8 350.7,208.6 351.9,183.8 353.0,159.0 354.2,183.8 355.4,208.6 356.6,183.8 357.8,159.0 359.0,183.8 360.2,208.6 361.3,183.8 362.5,159.0 363.7,183.8 364.9,208.6 366.1,183.8 367.3,159.0 368.5,183.8 369.7,208.6 370.8,183.8 372.0,159.0 373.2,183.8 374.4,208.6 375.6,183.8 376.8,159.0 378.0,183.8 379.1,208.6 380.3,183.8 381.5,159.0 382.7,183.1 383.9,207.9 385.1,183.1 386.3,158.3 387.5,183.0 388.6,206.5 389.8,181.7 391.0,156.9 392.2,181.7 393.4,206.5 394.6,181.7 395.8,156.9 396.9,174.8 398.1,199.6 399.3,212.2 400.5,187.4 401.7,162.6 402.9,137.8 404.1,158.2 405.3,183.0 406.4,207.8 407.6,195.4 408.8,170.6 410.0,145.8 411.2,170.6 412.4,195.4 413.6,220.2 414.7,195.4 415.9,170.6 417.1,145.8 418.3,154.4 419.5,179.2 420.7,204.1 421.9,179.2 423.1,154.4 424.2,137.5 425.4,162.4 426.6,187.2 427.8,212.0 429.0,214.4 430.2,189.6 431.4,164.7 432.5,139.9 433.7,115.1 434.9,139.9 436.1,164.7 437.3,189.6 438.5,214.4 439.7,224.7 440.9,199.9 442.0,175.1 443.2,150.3 444.4,125.5 445.6,141.6 446.8,166.4 448.0,191.2 449.2,216.0 450.3,239.5 451.5,214.6 452.7,189.8 453.9,165.0 455.1,140.2 456.3,115.4 457.5,114.7 458.7,139.5 459.8,164.3 461.0,189.1 462.2,213.9 463.4,238.7 464.6,254.3 465.8,229.4 467.0,204.6 468.1,179.8 469.3,155.0 470.5,130.2 471.7,105.4 472.9,130.2 474.1,155.0 475.3,179.8 476.5,204.6 477.6,229.4 478.8,210.4 480.0,185.6 481.2,160.8 482.4,136.0 483.6,111.1 484.8,136.0 485.9,160.8 487.1,185.6 488.3,210.4 489.5,235.2 490.7,210.4 491.9,185.6 493.1,160.8 494.3,136.0 495.4,111.1 496.6,120.9 497.8,145.7 499.0,170.5 500.2,195.4 501.4,220.2 502.6,195.4 503.7,170.5 504.9,145.7 506.1,120.9 507.3,128.9 508.5,153.7 509.7,178.5 510.9,203.4 512.1,228.2 513.2,203.4 514.4,178.5 515.6,153.7 516.8,128.9 518.0,104.1 519.2,122.7 520.4,147.5 521.5,172.3 522.7,197.2 523.9,222.0 525.1,199.4 526.3,174.6 527.5,149.8 528.7,125.0 529.9,100.2 531.0,125.0 532.2,149.8 533.4,174.6 534.6,199.4 535.8,224.3 537.0,227.2 538.2,202.4 539.3,177.6 540.5,152.8 541.7,128.0 542.9,103.1 544.1,78.3 545.3,103.1 546.5,128.0 547.7,152.8 548.8,177.6 550.0,202.4 551.2,227.2 552.4,252.0 553.6,227.2 554.8,202.4 556.0,177.6 557.1,152.8 558.3,128.0 559.5,103.1 560.7,78.3 561.9,67.2 563.1,92.1 564.3,116.9 565.5,141.7 566.6,166.5 567.8,191.3 569.0,216.1 570.2,240.9 571.4,264.7 572.6,251.2 573.8,226.4 574.9,201.6 576.1,176.8 577.3,152.0 578.5,127.2 579.7,102.3 580.9,77.5 582.1,54.0 583.3,67.5 584.4,92.3 585.6,117.1 586.8,141.9 588.0,166.7 589.2,191.6 590.4,216.4 591.6,241.2 592.7,266.0 593.9,257.6 595.1,232.7 596.3,207.9 597.5,183.1 598.7,158.3 599.9,133.5 601.1,108.7 602.2,83.9 603.4,59.1 604.6,82.2 605.8,107.0 607.0,131.8 608.2,156.6 609.4,181.4 610.5,206.2 611.7,231.1 612.9,255.9 614.1,265.1 615.3,240.3 616.5,215.4 617.7,190.6 618.9,165.8 620.0,141.0 621.2,116.2 622.4,91.4 623.6,66.6 624.8,91.4 626.0,116.2 627.2,141.0 628.3,165.8 629.5,190.6 630.7,215.4 631.9,240.3 633.1,252.3 634.3,227.5 635.5,202.7 636.7,177.9 637.8,153.1 639.0,128.3 640.2,103.5 641.4,78.6 642.6,77.7 643.8,102.6 645.0,127.4 646.1,152.2 647.3,177.0 648.5,201.8 649.7,226.6 650.9,251.4 652.1,263.5 653.3,238.7 654.5,213.9 655.6,189.1 656.8,164.3 658.0,139.5 659.2,114.7 660.4,89.8 661.6,90.0 662.8,114.8 663.9,139.6 665.1,164.4 666.3,189.3 667.5,214.1 668.7,238.9 669.9,259.5 671.1,234.7 672.3,209.9 673.4,185.1 674.6,160.3 675.8,135.5 677.0,110.7 678.2,85.9 679.4,109.8 680.6,134.6 681.7,159.5 682.9,184.3 684.1,209.1 685.3,233.9 686.5,258.7 687.7,233.9 688.9,209.1 690.1,184.3 691.2,159.5 692.4,134.6 693.6,109.8 694.8,104.4 696.0,129.3 697.2,154.1 698.4,178.9 699.5,203.7 700.7,228.5 701.9,237.7 703.1,212.9 704.3,188.1 705.5,163.3 706.7,138.5 707.9,113.7 709.0,121.2 710.2,146.0 711.4,170.8 712.6,195.6 713.8,220.4 715.0,227.1 716.2,202.2 717.3,177.4 718.5,152.6 719.7,127.8 720.9,111.4 722.1,136.2 723.3,161.0 724.5,185.8 725.7,210.6 726.8,235.4 728.0,210.6 729.2,185.8 730.4,161.0 731.6,136.2 732.8,111.4 734.0,136.2 735.1,161.0 736.3,185.8 737.5,210.6 738.7,223.7 739.9,198.9 741.1,174.0 742.3,149.2 743.5,124.4 744.6,128.9 745.8,153.7 747.0,178.5 748.2,203.3 749.4,218.7 750.6,193.9 751.8,169.1 752.9,144.3 754.1,137.6 755.3,162.4 756.5,187.2 757.7,212.0 758.9,211.7 760.1,186.8 761.3,162.0 762.4,137.2 763.6,128.5 764.8,153.3 766.0,178.1"/>
<line x1="606" y1="42" x2="628" y2="42" stroke="#0f62fe" stroke-width="2.2"/>
<text x="634" y="46" font-family="Arial" font-size="12">elevator_deg</text>
<polyline fill="none" stroke="#24a148" stroke-width="2.2" points="54.0,160.7 55.2,160.7 56.4,160.7 57.6,160.7 58.7,160.7 59.9,160.7 61.1,160.7 62.3,160.7 63.5,160.7 64.7,160.7 65.9,160.7 67.1,160.7 68.2,160.7 69.4,160.7 70.6,160.7 71.8,160.7 73.0,160.7 74.2,160.7 75.4,160.7 76.5,160.7 77.7,160.7 78.9,160.7 80.1,160.7 81.3,160.7 82.5,160.7 83.7,160.7 84.9,160.7 86.0,160.7 87.2,160.7 88.4,160.7 89.6,160.7 90.8,160.7 92.0,160.7 93.2,160.7 94.3,160.7 95.5,160.7 96.7,160.7 97.9,160.7 99.1,160.7 100.3,160.7 101.5,160.7 102.7,160.7 103.8,160.7 105.0,160.7 106.2,160.7 107.4,160.7 108.6,160.7 109.8,160.7 111.0,160.7 112.1,160.7 113.3,160.7 114.5,160.7 115.7,160.7 116.9,160.7 118.1,160.7 119.3,160.7 120.5,160.7 121.6,160.7 122.8,160.7 124.0,160.7 125.2,160.7 126.4,160.7 127.6,160.7 128.8,160.7 129.9,160.7 131.1,160.7 132.3,160.7 133.5,160.7 134.7,160.7 135.9,160.7 137.1,160.7 138.3,160.7 139.4,160.7 140.6,160.7 141.8,160.7 143.0,160.7 144.2,160.7 145.4,160.7 146.6,160.7 147.7,160.7 148.9,160.7 150.1,160.7 151.3,160.7 152.5,160.7 153.7,160.7 154.9,160.7 156.1,160.7 157.2,160.7 158.4,160.7 159.6,160.7 160.8,160.7 162.0,160.7 163.2,160.7 164.4,160.7 165.5,160.7 166.7,160.7 167.9,160.7 169.1,160.7 170.3,160.7 171.5,160.7 172.7,160.7 173.9,160.7 175.0,160.7 176.2,160.7 177.4,160.7 178.6,160.7 179.8,160.7 181.0,160.7 182.2,160.7 183.3,160.7 184.5,160.7 185.7,160.7 186.9,160.7 188.1,160.7 189.3,160.7 190.5,160.7 191.7,160.7 192.8,160.7 194.0,160.7 195.2,160.7 196.4,160.7 197.6,160.7 198.8,160.7 200.0,160.7 201.1,160.7 202.3,160.7 203.5,160.7 204.7,160.7 205.9,160.7 207.1,160.7 208.3,160.7 209.5,160.7 210.6,160.7 211.8,160.7 213.0,160.7 214.2,160.7 215.4,160.7 216.6,160.7 217.8,160.7 218.9,160.7 220.1,160.7 221.3,160.7 222.5,160.7 223.7,160.7 224.9,160.7 226.1,160.7 227.3,160.7 228.4,160.7 229.6,160.7 230.8,160.7 232.0,160.7 233.2,160.7 234.4,160.7 235.6,160.7 236.7,160.7 237.9,160.7 239.1,160.7 240.3,160.7 241.5,160.7 242.7,160.7 243.9,160.7 245.1,160.7 246.2,160.7 247.4,160.7 248.6,160.7 249.8,160.7 251.0,160.7 252.2,160.7 253.4,160.7 254.5,160.7 255.7,160.7 256.9,160.7 258.1,160.7 259.3,160.7 260.5,160.7 261.7,160.7 262.9,160.7 264.0,160.7 265.2,160.7 266.4,160.7 267.6,160.7 268.8,160.7 270.0,160.7 271.2,160.7 272.3,160.7 273.5,160.7 274.7,160.7 275.9,160.7 277.1,160.7 278.3,160.7 279.5,160.7 280.7,160.7 281.8,160.7 283.0,160.7 284.2,160.7 285.4,160.7 286.6,160.7 287.8,160.7 289.0,160.7 290.1,160.7 291.3,160.7 292.5,160.7 293.7,160.7 294.9,160.7 296.1,160.7 297.3,160.7 298.5,160.7 299.6,160.7 300.8,160.7 302.0,160.7 303.2,160.7 304.4,160.7 305.6,160.7 306.8,160.7 307.9,160.7 309.1,160.7 310.3,160.7 311.5,160.7 312.7,160.7 313.9,160.7 315.1,160.7 316.3,160.7 317.4,160.7 318.6,160.7 319.8,160.7 321.0,160.7 322.2,160.7 323.4,160.7 324.6,160.7 325.7,160.7 326.9,160.7 328.1,160.7 329.3,160.7 330.5,160.7 331.7,160.7 332.9,160.7 334.1,160.7 335.2,160.7 336.4,160.7 337.6,160.7 338.8,160.7 340.0,160.7 341.2,160.7 342.4,160.7 343.5,160.7 344.7,160.7 345.9,160.7 347.1,160.7 348.3,160.7 349.5,160.7 350.7,160.7 351.9,160.7 353.0,160.7 354.2,160.7 355.4,160.7 356.6,160.7 357.8,160.7 359.0,160.7 360.2,160.7 361.3,160.7 362.5,160.7 363.7,160.7 364.9,160.7 366.1,160.7 367.3,160.7 368.5,160.7 369.7,160.7 370.8,160.7 372.0,160.7 373.2,160.7 374.4,160.7 375.6,160.7 376.8,160.7 378.0,160.7 379.1,160.7 380.3,160.7 381.5,160.7 382.7,160.7 383.9,160.7 385.1,160.7 386.3,160.7 387.5,160.7 388.6,160.7 389.8,160.7 391.0,160.7 392.2,160.7 393.4,160.7 394.6,160.7 395.8,160.7 396.9,160.7 398.1,160.7 399.3,160.7 400.5,160.7 401.7,160.7 402.9,160.7 404.1,160.7 405.3,160.7 406.4,160.7 407.6,160.7 408.8,160.7 410.0,160.7 411.2,160.7 412.4,160.7 413.6,160.7 414.7,160.7 415.9,160.7 417.1,160.7 418.3,160.7 419.5,160.7 420.7,160.7 421.9,160.7 423.1,160.7 424.2,160.7 425.4,160.7 426.6,160.7 427.8,160.7 429.0,160.7 430.2,160.7 431.4,160.7 432.5,160.7 433.7,160.7 434.9,160.7 436.1,160.7 437.3,160.7 438.5,160.7 439.7,160.7 440.9,160.7 442.0,160.7 443.2,160.7 444.4,160.7 445.6,160.7 446.8,160.7 448.0,160.7 449.2,160.7 450.3,160.7 451.5,160.7 452.7,160.7 453.9,160.7 455.1,160.7 456.3,160.7 457.5,160.7 458.7,160.7 459.8,160.7 461.0,160.7 462.2,160.7 463.4,160.7 464.6,160.7 465.8,160.7 467.0,160.7 468.1,160.7 469.3,160.7 470.5,160.7 471.7,160.7 472.9,160.7 474.1,160.7 475.3,160.7 476.5,160.7 477.6,160.7 478.8,160.7 480.0,160.7 481.2,160.7 482.4,160.7 483.6,160.7 484.8,160.7 485.9,160.7 487.1,160.7 488.3,160.7 489.5,160.7 490.7,160.7 491.9,160.7 493.1,160.7 494.3,160.7 495.4,160.7 496.6,160.7 497.8,160.7 499.0,160.7 500.2,160.7 501.4,160.7 502.6,160.7 503.7,160.7 504.9,160.7 506.1,160.7 507.3,160.7 508.5,160.7 509.7,160.7 510.9,160.7 512.1,160.7 513.2,160.7 514.4,160.7 515.6,160.7 516.8,160.7 518.0,160.7 519.2,160.7 520.4,160.7 521.5,160.7 522.7,160.7 523.9,160.7 525.1,160.7 526.3,160.7 527.5,160.7 528.7,160.7 529.9,160.7 531.0,160.7 532.2,160.7 533.4,160.7 534.6,160.7 535.8,160.7 537.0,160.7 538.2,160.7 539.3,160.7 540.5,160.7 541.7,160.7 542.9,160.7 544.1,160.7 545.3,160.7 546.5,160.7 547.7,160.7 548.8,160.7 550.0,160.7 551.2,160.7 552.4,160.7 553.6,160.7 554.8,160.7 556.0,160.7 557.1,160.7 558.3,160.7 559.5,160.7 560.7,160.7 561.9,160.7 563.1,160.7 564.3,160.7 565.5,160.7 566.6,160.7 567.8,160.7 569.0,160.7 570.2,160.7 571.4,160.7 572.6,160.7 573.8,160.7 574.9,160.7 576.1,160.7 577.3,160.7 578.5,160.7 579.7,160.7 580.9,160.7 582.1,160.7 583.3,160.7 584.4,160.7 585.6,160.7 586.8,160.7 588.0,160.7 589.2,160.7 590.4,160.7 591.6,160.7 592.7,160.7 593.9,160.7 595.1,160.7 596.3,160.7 597.5,160.7 598.7,160.7 599.9,160.7 601.1,160.7 602.2,160.7 603.4,160.7 604.6,160.7 605.8,160.7 607.0,160.7 608.2,160.7 609.4,160.7 610.5,160.7 611.7,160.7 612.9,160.7 614.1,160.7 615.3,160.7 616.5,160.7 617.7,160.7 618.9,160.7 620.0,160.7 621.2,160.7 622.4,160.7 623.6,160.7 624.8,160.7 626.0,160.7 627.2,160.7 628.3,160.7 629.5,160.7 630.7,160.7 631.9,160.7 633.1,160.7 634.3,160.7 635.5,160.7 636.7,160.7 637.8,160.7 639.0,160.7 640.2,160.7 641.4,160.7 642.6,160.7 643.8,160.7 645.0,160.7 646.1,160.7 647.3,160.7 648.5,160.7 649.7,160.7 650.9,160.7 652.1,160.7 653.3,160.7 654.5,160.7 655.6,160.7 656.8,160.7 658.0,160.7 659.2,160.7 660.4,160.7 661.6,160.7 662.8,160.7 663.9,160.7 665.1,160.7 666.3,160.7 667.5,160.7 668.7,160.7 669.9,160.7 671.1,160.7 672.3,160.7 673.4,160.7 674.6,160.7 675.8,160.7 677.0,160.7 678.2,160.7 679.4,160.7 680.6,160.7 681.7,160.7 682.9,160.7 684.1,160.7 685.3,160.7 686.5,160.7 687.7,160.7 688.9,160.7 690.1,160.7 691.2,160.7 692.4,160.7 693.6,160.7 694.8,160.7 696.0,160.7 697.2,160.7 698.4,160.7 699.5,160.7 700.7,160.7 701.9,160.7 703.1,160.7 704.3,160.7 705.5,160.7 706.7,160.7 707.9,160.7 709.0,160.7 710.2,160.7 711.4,160.7 712.6,160.7 713.8,160.7 715.0,160.7 716.2,160.7 717.3,160.7 718.5,160.7 719.7,160.7 720.9,160.7 722.1,160.7 723.3,160.7 724.5,160.7 725.7,160.7 726.8,160.7 728.0,160.7 729.2,160.7 730.4,160.7 731.6,160.7 732.8,160.7 734.0,160.7 735.1,160.7 736.3,160.7 737.5,160.7 738.7,160.7 739.9,160.7 741.1,160.7 742.3,160.7 743.5,160.7 744.6,160.7 745.8,160.7 747.0,160.7 748.2,160.7 749.4,160.7 750.6,160.7 751.8,160.7 752.9,160.7 754.1,160.7 755.3,160.7 756.5,160.7 757.7,160.7 758.9,160.7 760.1,160.7 761.3,160.7 762.4,160.7 763.6,160.7 764.8,160.7 766.0,160.7"/>
<line x1="606" y1="60" x2="628" y2="60" stroke="#24a148" stroke-width="2.2"/>
<text x="634" y="64" font-family="Arial" font-size="12">aileron_deg</text>
<polyline fill="none" stroke="#da1e28" stroke-width="2.2" points="54.0,160.7 55.2,160.7 56.4,160.7 57.6,160.7 58.7,160.7 59.9,160.7 61.1,160.7 62.3,160.7 63.5,160.7 64.7,160.7 65.9,160.7 67.1,160.7 68.2,160.7 69.4,160.7 70.6,160.7 71.8,160.7 73.0,160.7 74.2,160.7 75.4,160.7 76.5,160.7 77.7,160.7 78.9,160.7 80.1,160.7 81.3,160.7 82.5,160.7 83.7,160.7 84.9,160.7 86.0,160.7 87.2,160.7 88.4,160.7 89.6,160.7 90.8,160.7 92.0,160.7 93.2,160.7 94.3,160.7 95.5,160.7 96.7,160.7 97.9,160.7 99.1,160.7 100.3,160.7 101.5,160.7 102.7,160.7 103.8,160.7 105.0,160.7 106.2,160.7 107.4,160.7 108.6,160.7 109.8,160.7 111.0,160.7 112.1,160.7 113.3,160.7 114.5,160.7 115.7,160.7 116.9,160.7 118.1,160.7 119.3,160.7 120.5,160.7 121.6,160.7 122.8,160.7 124.0,160.7 125.2,160.7 126.4,160.7 127.6,160.7 128.8,160.7 129.9,160.7 131.1,160.7 132.3,160.7 133.5,160.7 134.7,160.7 135.9,160.7 137.1,160.7 138.3,160.7 139.4,160.7 140.6,160.7 141.8,160.7 143.0,160.7 144.2,160.7 145.4,160.7 146.6,160.7 147.7,160.7 148.9,160.7 150.1,160.7 151.3,160.7 152.5,160.7 153.7,160.7 154.9,160.7 156.1,160.7 157.2,160.7 158.4,160.7 159.6,160.7 160.8,160.7 162.0,160.7 163.2,160.7 164.4,160.7 165.5,160.7 166.7,160.7 167.9,160.7 169.1,160.7 170.3,160.7 171.5,160.7 172.7,160.7 173.9,160.7 175.0,160.7 176.2,160.7 177.4,160.7 178.6,160.7 179.8,160.7 181.0,160.7 182.2,160.7 183.3,160.7 184.5,160.7 185.7,160.7 186.9,160.7 188.1,160.7 189.3,160.7 190.5,160.7 191.7,160.7 192.8,160.7 194.0,160.7 195.2,160.7 196.4,160.7 197.6,160.7 198.8,160.7 200.0,160.7 201.1,160.7 202.3,160.7 203.5,160.7 204.7,160.7 205.9,160.7 207.1,160.7 208.3,160.7 209.5,160.7 210.6,160.7 211.8,160.7 213.0,160.7 214.2,160.7 215.4,160.7 216.6,160.7 217.8,160.7 218.9,160.7 220.1,160.7 221.3,160.7 222.5,160.7 223.7,160.7 224.9,160.7 226.1,160.7 227.3,160.7 228.4,160.7 229.6,160.7 230.8,160.7 232.0,160.7 233.2,160.7 234.4,160.7 235.6,160.7 236.7,160.7 237.9,160.7 239.1,160.7 240.3,160.7 241.5,160.7 242.7,160.7 243.9,160.7 245.1,160.7 246.2,160.7 247.4,160.7 248.6,160.7 249.8,160.7 251.0,160.7 252.2,160.7 253.4,160.7 254.5,160.7 255.7,160.7 256.9,160.7 258.1,160.7 259.3,160.7 260.5,160.7 261.7,160.7 262.9,160.7 264.0,160.7 265.2,160.7 266.4,160.7 267.6,160.7 268.8,160.7 270.0,160.7 271.2,160.7 272.3,160.7 273.5,160.7 274.7,160.7 275.9,160.7 277.1,160.7 278.3,160.7 279.5,160.7 280.7,160.7 281.8,160.7 283.0,160.7 284.2,160.7 285.4,160.7 286.6,160.7 287.8,160.7 289.0,160.7 290.1,160.7 291.3,160.7 292.5,160.7 293.7,160.7 294.9,160.7 296.1,160.7 297.3,160.7 298.5,160.7 299.6,160.7 300.8,160.7 302.0,160.7 303.2,160.7 304.4,160.7 305.6,160.7 306.8,160.7 307.9,160.7 309.1,160.7 310.3,160.7 311.5,160.7 312.7,160.7 313.9,160.7 315.1,160.7 316.3,160.7 317.4,160.7 318.6,160.7 319.8,160.7 321.0,160.7 322.2,160.7 323.4,160.7 324.6,160.7 325.7,160.7 326.9,160.7 328.1,160.7 329.3,160.7 330.5,160.7 331.7,160.7 332.9,160.7 334.1,160.7 335.2,160.7 336.4,160.7 337.6,160.7 338.8,160.7 340.0,160.7 341.2,160.7 342.4,160.7 343.5,160.7 344.7,160.7 345.9,160.7 347.1,160.7 348.3,160.7 349.5,160.7 350.7,160.7 351.9,160.7 353.0,160.7 354.2,160.7 355.4,160.7 356.6,160.7 357.8,160.7 359.0,160.7 360.2,160.7 361.3,160.7 362.5,160.7 363.7,160.7 364.9,160.7 366.1,160.7 367.3,160.7 368.5,160.7 369.7,160.7 370.8,160.7 372.0,160.7 373.2,160.7 374.4,160.7 375.6,160.7 376.8,160.7 378.0,160.7 379.1,160.7 380.3,160.7 381.5,160.7 382.7,160.7 383.9,160.7 385.1,160.7 386.3,160.7 387.5,160.7 388.6,160.7 389.8,160.7 391.0,160.7 392.2,160.7 393.4,160.7 394.6,160.7 395.8,160.7 396.9,160.7 398.1,160.7 399.3,160.7 400.5,160.7 401.7,160.7 402.9,160.7 404.1,160.7 405.3,160.7 406.4,160.7 407.6,160.7 408.8,160.7 410.0,160.7 411.2,160.7 412.4,160.7 413.6,160.7 414.7,160.7 415.9,160.7 417.1,160.7 418.3,160.7 419.5,160.7 420.7,160.7 421.9,160.7 423.1,160.7 424.2,160.7 425.4,160.7 426.6,160.7 427.8,160.7 429.0,160.7 430.2,160.7 431.4,160.7 432.5,160.7 433.7,160.7 434.9,160.7 436.1,160.7 437.3,160.7 438.5,160.7 439.7,160.7 440.9,160.7 442.0,160.7 443.2,160.7 444.4,160.7 445.6,160.7 446.8,160.7 448.0,160.7 449.2,160.7 450.3,160.7 451.5,160.7 452.7,160.7 453.9,160.7 455.1,160.7 456.3,160.7 457.5,160.7 458.7,160.7 459.8,160.7 461.0,160.7 462.2,160.7 463.4,160.7 464.6,160.7 465.8,160.7 467.0,160.7 468.1,160.7 469.3,160.7 470.5,160.7 471.7,160.7 472.9,160.7 474.1,160.7 475.3,160.7 476.5,160.7 477.6,160.7 478.8,160.7 480.0,160.7 481.2,160.7 482.4,160.7 483.6,160.7 484.8,160.7 485.9,160.7 487.1,160.7 488.3,160.7 489.5,160.7 490.7,160.7 491.9,160.7 493.1,160.7 494.3,160.7 495.4,160.7 496.6,160.7 497.8,160.7 499.0,160.7 500.2,160.7 501.4,160.7 502.6,160.7 503.7,160.7 504.9,160.7 506.1,160.7 507.3,160.7 508.5,160.7 509.7,160.7 510.9,160.7 512.1,160.7 513.2,160.7 514.4,160.7 515.6,160.7 516.8,160.7 518.0,160.7 519.2,160.7 520.4,160.7 521.5,160.7 522.7,160.7 523.9,160.7 525.1,160.7 526.3,160.7 527.5,160.7 528.7,160.7 529.9,160.7 531.0,160.7 532.2,160.7 533.4,160.7 534.6,160.7 535.8,160.7 537.0,160.7 538.2,160.7 539.3,160.7 540.5,160.7 541.7,160.7 542.9,160.7 544.1,160.7 545.3,160.7 546.5,160.7 547.7,160.7 548.8,160.7 550.0,160.7 551.2,160.7 552.4,160.7 553.6,160.7 554.8,160.7 556.0,160.7 557.1,160.7 558.3,160.7 559.5,160.7 560.7,160.7 561.9,160.7 563.1,160.7 564.3,160.7 565.5,160.7 566.6,160.7 567.8,160.7 569.0,160.7 570.2,160.7 571.4,160.7 572.6,160.7 573.8,160.7 574.9,160.7 576.1,160.7 577.3,160.7 578.5,160.7 579.7,160.7 580.9,160.7 582.1,160.7 583.3,160.7 584.4,160.7 585.6,160.7 586.8,160.7 588.0,160.7 589.2,160.7 590.4,160.7 591.6,160.7 592.7,160.7 593.9,160.7 595.1,160.7 596.3,160.7 597.5,160.7 598.7,160.7 599.9,160.7 601.1,160.7 602.2,160.7 603.4,160.7 604.6,160.7 605.8,160.7 607.0,160.7 608.2,160.7 609.4,160.7 610.5,160.7 611.7,160.7 612.9,160.7 614.1,160.7 615.3,160.7 616.5,160.7 617.7,160.7 618.9,160.7 620.0,160.7 621.2,160.7 622.4,160.7 623.6,160.7 624.8,160.7 626.0,160.7 627.2,160.7 628.3,160.7 629.5,160.7 630.7,160.7 631.9,160.7 633.1,160.7 634.3,160.7 635.5,160.7 636.7,160.7 637.8,160.7 639.0,160.7 640.2,160.7 641.4,160.7 642.6,160.7 643.8,160.7 645.0,160.7 646.1,160.7 647.3,160.7 648.5,160.7 649.7,160.7 650.9,160.7 652.1,160.7 653.3,160.7 654.5,160.7 655.6,160.7 656.8,160.7 658.0,160.7 659.2,160.7 660.4,160.7 661.6,160.7 662.8,160.7 663.9,160.7 665.1,160.7 666.3,160.7 667.5,160.7 668.7,160.7 669.9,160.7 671.1,160.7 672.3,160.7 673.4,160.7 674.6,160.7 675.8,160.7 677.0,160.7 678.2,160.7 679.4,160.7 680.6,160.7 681.7,160.7 682.9,160.7 684.1,160.7 685.3,160.7 686.5,160.7 687.7,160.7 688.9,160.7 690.1,160.7 691.2,160.7 692.4,160.7 693.6,160.7 694.8,160.7 696.0,160.7 697.2,160.7 698.4,160.7 699.5,160.7 700.7,160.7 701.9,160.7 703.1,160.7 704.3,160.7 705.5,160.7 706.7,160.7 707.9,160.7 709.0,160.7 710.2,160.7 711.4,160.7 712.6,160.7 713.8,160.7 715.0,160.7 716.2,160.7 717.3,160.7 718.5,160.7 719.7,160.7 720.9,160.7 722.1,160.7 723.3,160.7 724.5,160.7 725.7,160.7 726.8,160.7 728.0,160.7 729.2,160.7 730.4,160.7 731.6,160.7 732.8,160.7 734.0,160.7 735.1,160.7 736.3,160.7 737.5,160.7 738.7,160.7 739.9,160.7 741.1,160.7 742.3,160.7 743.5,160.7 744.6,160.7 745.8,160.7 747.0,160.7 748.2,160.7 749.4,160.7 750.6,160.7 751.8,160.7 752.9,160.7 754.1,160.7 755.3,160.7 756.5,160.7 757.7,160.7 758.9,160.7 760.1,160.7 761.3,160.7 762.4,160.7 763.6,160.7 764.8,160.7 766.0,160.7"/>
<line x1="606" y1="78" x2="628" y2="78" stroke="#da1e28" stroke-width="2.2"/>
<text x="634" y="82" font-family="Arial" font-size="12">rudder_deg</text>
</svg>