<svg xmlns="http://www.w3.org/2000/svg" width="820" height="320" viewBox="0 0 820 320">
<rect width="100%" height="100%" fill="#ffffff"/>
<text x="54" y="28" font-family="Arial" font-size="18" font-weight="700">Pitch Command Tracking</text>
<line x1="54" y1="266" x2="766" y2="266" stroke="#1f2933"/>
<line x1="54" y1="54" x2="54" y2="266" stroke="#1f2933"/>
<text x="54" y="306" font-family="Arial" font-size="12">time (s)</text>
<text x="596" y="306" font-family="Arial" font-size="12">pitch (deg)</text>
<text x="58" y="68" font-family="Arial" font-size="11">23.4</text>
<text x="58" y="260" font-family="Arial" font-size="11">-13.7</text>
<polyline fill="none" stroke="#0f62fe" stroke-width="2.2" points="54.0,153.4 55.2,153.3 56.4,153.2 57.6,153.1 58.7,153.0 59.9,152.9 61.1,152.8 62.3,152.6 63.5,152.5 64.7,152.4 65.9,152.3 67.1,152.2 68.2,152.1 69.4,151.9 70.6,151.8 71.8,151.7 73.0,151.6 74.2,151.5 75.4,151.4 76.5,151.3 77.7,151.1 78.9,151.0 80.1,150.9 81.3,150.8 82.5,150.7 83.7,150.6 84.9,150.5 86.0,150.3 87.2,150.2 88.4,150.1 89.6,150.0 90.8,149.9 92.0,149.8 93.2,149.7 94.3,149.5 95.5,149.4 96.7,149.3 97.9,149.2 99.1,149.1 100.3,149.0 101.5,148.9 102.7,148.7 103.8,148.6 105.0,148.5 106.2,148.4 107.4,148.3 108.6,148.2 109.8,148.1 111.0,147.9 112.1,147.8 113.3,147.7 114.5,147.6 115.7,147.5 116.9,147.4 118.1,147.3 119.3,147.1 120.5,147.0 121.6,146.9 122.8,146.8 124.0,146.7 125.2,146.6 126.4,146.5 127.6,146.3 128.8,146.2 129.9,146.1 131.1,146.0 132.3,145.9 133.5,145.8 134.7,145.7 135.9,145.5 137.1,145.4 138.3,145.3 139.4,145.2 140.6,145.1 141.8,145.0 143.0,144.9 144.2,144.7 145.4,144.6 146.6,144.5 147.7,144.4 148.9,144.3 150.1,144.2 151.3,144.1 152.5,143.9 153.7,143.8 154.9,143.7 156.1,143.6 157.2,143.5 158.4,143.4 159.6,143.3 160.8,143.1 162.0,143.0 163.2,142.9 164.4,142.8 165.5,142.7 166.7,142.6 167.9,142.5 169.1,142.3 170.3,142.2 171.5,142.1 172.7,142.0 173.9,141.9 175.0,141.8 176.2,141.7 177.4,141.5 178.6,141.4 179.8,141.3 181.0,141.2 182.2,141.1 183.3,141.0 184.5,140.9 185.7,140.7 186.9,140.6 188.1,140.5 189.3,140.4 190.5,140.3 191.7,140.2 192.8,140.1 194.0,139.9 195.2,139.8 196.4,139.7 197.6,139.6 198.8,139.5 200.0,139.4 201.1,139.3 202.3,139.1 203.5,139.0 204.7,138.9 205.9,138.8 207.1,138.7 208.3,138.6 209.5,138.4 210.6,138.3 211.8,138.2 213.0,138.1 214.2,138.0 215.4,137.9 216.6,137.8 217.8,137.6 218.9,137.5 220.1,137.4 221.3,137.3 222.5,137.2 223.7,137.1 224.9,137.0 226.1,136.8 227.3,136.7 228.4,136.6 229.6,136.5 230.8,136.4 232.0,136.3 233.2,136.2 234.4,136.0 235.6,135.9 236.7,135.8 237.9,135.7 239.1,135.6 240.3,135.5 241.5,135.4 242.7,135.2 243.9,135.1 245.1,135.0 246.2,134.9 247.4,134.8 248.6,134.7 249.8,134.6 251.0,134.4 252.2,134.3 253.4,134.2 254.5,134.1 255.7,134.0 256.9,133.9 258.1,133.8 259.3,133.6 260.5,133.5 261.7,133.4 262.9,133.3 264.0,133.2 265.2,133.1 266.4,133.0 267.6,132.8 268.8,132.7 270.0,132.6 271.2,132.5 272.3,132.4 273.5,132.3 274.7,132.2 275.9,132.0 277.1,131.9 278.3,131.8 279.5,131.7 280.7,131.6 281.8,131.5 283.0,131.4 284.2,131.2 285.4,131.1 286.6,131.0 287.8,130.9 289.0,130.8 290.1,130.7 291.3,130.6 292.5,130.7 293.7,130.8 294.9,131.0 296.1,131.1 297.3,131.2 298.5,131.4 299.6,131.5 300.8,131.7 302.0,131.8 303.2,131.9 304.4,132.1 305.6,132.2 306.8,132.3 307.9,132.5 309.1,132.6 310.3,132.8 311.5,132.9 312.7,133.0 313.9,133.2 315.1,133.3 316.3,133.4 317.4,133.6 318.6,133.7 319.8,133.9 321.0,134.0 322.2,134.1 323.4,134.3 324.6,134.4 325.7,134.5 326.9,134.7 328.1,134.8 329.3,134.9 330.5,135.1 331.7,135.2 332.9,135.4 334.1,135.5 335.2,135.6 336.4,135.8 337.6,135.9 338.8,136.0 340.0,136.2 341.2,136.3 342.4,136.5 343.5,136.6 344.7,136.7 345.9,136.9 347.1,137.0 348.3,137.1 349.5,137.3 350.7,137.4 351.9,137.6 353.0,137.7 354.2,137.8 355.4,138.0 356.6,138.1 357.8,138.2 359.0,138.4 360.2,138.5 361.3,138.7 362.5,138.8 363.7,138.9 364.9,139.1 366.1,139.2 367.3,139.3 368.5,139.5 369.7,139.6 370.8,139.8 372.0,139.9 373.2,140.0 374.4,140.2 375.6,140.3 376.8,140.4 378.0,140.6 379.1,140.7 380.3,140.9 381.5,141.0 382.7,141.1 383.9,141.3 385.1,141.4 386.3,141.5 387.5,141.7 388.6,141.8 389.8,142.0 391.0,142.1 392.2,142.2 393.4,142.4 394.6,142.5 395.8,142.6 396.9,142.8 398.1,142.9 399.3,143.0 400.5,143.2 401.7,143.3 402.9,143.5 404.1,143.6 405.3,143.7 406.4,143.9 407.6,144.0 408.8,144.1 410.0,144.3 411.2,144.4 412.4,144.6 413.6,144.7 414.7,144.8 415.9,145.0 417.1,145.1 418.3,145.2 419.5,145.4 420.7,145.5 421.9,145.7 423.1,145.8 424.2,145.9 425.4,146.1 426.6,146.2 427.8,146.3 429.0,146.5 430.2,146.6 431.4,146.8 432.5,146.9 433.7,147.0 434.9,147.2 436.1,147.3 437.3,147.4 438.5,147.6 439.7,147.7 440.9,147.9 442.0,148.0 443.2,148.1 444.4,148.3 445.6,148.4 446.8,148.5 448.0,148.7 449.2,148.8 450.3,149.0 451.5,149.1 452.7,149.2 453.9,149.4 455.1,149.5 456.3,149.6 457.5,149.8 458.7,149.9 459.8,150.1 461.0,150.2 462.2,150.3 463.4,150.5 464.6,150.6 465.8,150.7 467.0,150.9 468.1,151.0 469.3,151.1 470.5,151.3 471.7,151.4 472.9,151.6 474.1,151.7 475.3,151.8 476.5,152.0 477.6,152.1 478.8,152.2 480.0,152.4 481.2,152.5 482.4,152.7 483.6,152.8 484.8,152.9 485.9,153.1 487.1,153.2 488.3,153.3 489.5,153.5 490.7,153.6 491.9,153.8 493.1,153.9 494.3,154.0 495.4,154.2 496.6,154.3 497.8,154.4 499.0,154.6 500.2,154.7 501.4,154.9 502.6,155.0 503.7,155.1 504.9,155.3 506.1,155.4 507.3,155.5 508.5,155.7 509.7,155.8 510.9,156.0 512.1,156.1 513.2,156.2 514.4,156.4 515.6,156.5 516.8,156.6 518.0,156.8 519.2,156.9 520.4,157.1 521.5,157.2 522.7,157.3 523.9,157.5 525.1,157.6 526.3,157.7 527.5,157.9 528.7,158.0 529.9,158.2 531.0,158.3 532.2,158.4 533.4,158.6 534.6,158.7 535.8,158.8 537.0,159.0 538.2,159.1 539.3,159.2 540.5,159.4 541.7,159.5 542.9,159.7 544.1,159.8 545.3,159.9 546.5,160.1 547.7,160.2 548.8,160.3 550.0,160.5 551.2,160.6 552.4,160.8 553.6,160.9 554.8,161.0 556.0,161.2 557.1,161.3 558.3,161.4 559.5,161.6 560.7,161.7 561.9,161.9 563.1,162.0 564.3,162.1 565.5,162.3 566.6,162.4 567.8,162.5 569.0,162.7 570.2,162.8 571.4,163.0 572.6,163.1 573.8,163.2 574.9,163.4 576.1,163.5 577.3,163.6 578.5,163.8 579.7,163.9 580.9,164.1 582.1,164.2 583.3,164.3 584.4,164.5 585.6,164.6 586.8,164.7 588.0,164.9 589.2,164.9 590.4,164.9 591.6,164.9 592.7,164.9 593.9,164.9 595.1,164.9 596.3,164.9 597.5,164.9 598.7,164.9 599.9,164.9 601.1,164.9 602.2,164.9 603.4,164.9 604.6,164.9 605.8,164.9 607.0,164.9 608.2,164.9 609.4,164.9 610.5,164.9 611.7,164.9 612.9,164.9 614.1,164.9 615.3,164.9 616.5,164.9 617.7,164.9 618.9,164.9 620.0,164.9 621.2,164.9 622.4,164.9 623.6,164.9 624.8,164.9 626.0,164.9 627.2,164.9 628.3,164.9 629.5,164.9 630.7,164.9 631.9,164.9 633.1,164.9 634.3,164.9 635.5,164.9 636.7,164.9 637.8,164.9 639.0,164.9 640.2,164.9 641.4,164.9 642.6,164.9 643.8,164.9 645.0,164.9 646.1,164.9 647.3,164.9 648.5,164.9 649.7,164.9 650.9,164.9 652.1,164.9 653.3,164.9 654.5,164.9 655.6,164.9 656.8,164.9 658.0,164.9 659.2,164.9 660.4,164.9 661.6,164.9 662.8,164.9 663.9,164.9 665.1,164.9 666.3,164.9 667.5,164.9 668.7,164.9 669.9,164.9 671.1,164.9 672.3,164.9 673.4,164.9 674.6,164.9 675.8,164.9 677.0,164.9 678.2,164.9 679.4,164.9 680.6,164.9 681.7,164.9 682.9,164.9 684.1,164.9 685.3,164.9 686.5,164.9 687.7,164.9 688.9,164.9 690.1,164.9 691.2,164.9 692.4,164.9 693.6,164.9 694.8,164.9 696.0,164.9 697.2,164.9 698.4,164.9 699.5,164.9 700.7,164.9 701.9,164.9 703.1,164.9 704.3,164.9 705.5,164.9 706.7,164.9 707.9,164.9 709.0,164.9 710.2,164.9 711.4,164.9 712.6,164.9 713.8,164.9 715.0,164.9 716.2,164.9 717.3,164.9 718.5,164.9 719.7,164.9 720.9,164.9 722.1,164.9 723.3,164.9 724.5,164.9 725.7,164.9 726.8,164.9 728.0,164.9 729.2,164.9 730.4,164.9 731.6,164.9 732.8,164.9 734.0,164.9 735.1,164.9 736.3,164.9 737.5,164.9 738.7,164.9 739.9,164.9 741.1,164.9 742.3,164.9 743.5,164.9 744.6,164.9 745.8,164.9 747.0,164.9 748.2,164.9 749.4,164.9 750.6,164.9 751.8,164.9 752.9,164.9 754.1,164.9 755.3,164.9 756.5,164.9 757.7,164.9 758.9,164.9 760.1,164.9 761.3,164.9 762.4,164.9 763.6,164.9 764.8,164.9 766.0,164.9"/>
<line x1="606" y1="42" x2="628" y2="42" stroke="#0f62fe" stroke-width="2.2"/>
<text x="634" y="46" font-family="Arial" font-size="12">pitch_command_deg</text>
<polyline fill="none" stroke="#24a148" stroke-width="2.2" points="54.0,164.9 55.2,162.9 56.4,159.8 57.6,159.6 58.7,162.0 59.9,163.4 61.1,162.6 62.3,161.7 63.5,162.4 64.7,163.7 65.9,164.0 67.1,163.6 68.2,163.7 69.4,164.4 70.6,165.0 71.8,165.1 73.0,165.1 74.2,165.5 75.4,166.1 76.5,166.3 77.7,166.4 78.9,166.7 80.1,167.1 81.3,167.4 82.5,167.6 83.7,167.8 84.9,168.2 86.0,168.5 87.2,168.7 88.4,168.9 89.6,169.2 90.8,169.5 92.0,169.7 93.2,169.9 94.3,170.2 95.5,170.5 96.7,170.7 97.9,170.9 99.1,171.1 100.3,171.4 101.5,171.5 102.7,171.7 103.8,172.0 105.0,172.2 106.2,172.4 107.4,172.6 108.6,172.8 109.8,173.0 111.0,173.1 112.1,173.3 113.3,173.5 114.5,173.7 115.7,173.8 116.9,174.0 118.1,174.2 119.3,174.4 120.5,174.5 121.6,174.7 122.8,174.8 124.0,175.0 125.2,175.1 126.4,175.3 127.6,175.4 128.8,175.5 129.9,175.7 131.1,175.8 132.3,175.9 133.5,176.1 134.7,176.2 135.9,176.3 137.1,176.4 138.3,176.6 139.4,176.7 140.6,176.7 141.8,176.9 143.0,177.0 144.2,177.0 145.4,177.1 146.6,177.3 147.7,177.3 148.9,177.4 150.1,177.6 151.3,177.6 152.5,177.6 153.7,177.8 154.9,177.9 156.1,177.8 157.2,177.9 158.4,178.1 159.6,178.0 160.8,178.0 162.0,178.4 163.2,178.2 164.4,178.1 165.5,178.6 166.7,178.4 167.9,178.1 169.1,178.8 170.3,178.6 171.5,177.9 172.7,178.9 173.9,178.9 175.0,177.6 176.2,179.1 177.4,179.2 178.6,177.1 179.8,179.4 181.0,181.4 182.2,177.1 183.3,175.3 184.5,180.3 185.7,181.9 186.9,176.7 188.1,175.3 189.3,180.3 190.5,181.4 191.7,176.5 192.8,176.2 194.0,180.3 195.2,178.5 196.4,172.4 197.6,172.3 198.8,177.8 200.0,178.2 201.1,174.0 202.3,175.5 203.5,181.5 204.7,181.5 205.9,176.0 207.1,175.8 208.3,180.2 209.5,178.9 210.6,173.0 211.8,173.1 213.0,178.5 214.2,178.5 215.4,173.9 216.6,175.0 217.8,180.7 218.9,180.3 220.1,174.9 221.3,174.8 222.5,179.5 223.7,178.4 224.9,172.8 226.1,173.2 227.3,178.6 228.4,178.5 229.6,173.6 230.8,174.3 232.0,179.7 233.2,179.1 234.4,173.5 235.6,173.6 236.7,178.5 237.9,177.7 239.1,172.2 240.3,172.8 241.5,178.2 242.7,177.9 243.9,172.8 245.1,173.3 246.2,178.4 247.4,177.6 248.6,172.0 249.8,172.2 251.0,177.3 252.2,176.7 253.4,171.4 254.5,172.0 255.7,177.3 256.9,176.8 258.1,171.4 259.3,171.7 260.5,176.8 261.7,176.0 262.9,170.4 264.0,170.8 265.2,176.1 266.4,175.5 267.6,170.1 268.8,170.6 270.0,175.9 271.2,175.1 272.3,169.6 273.5,169.9 274.7,175.0 275.9,174.3 277.1,168.8 278.3,169.3 279.5,174.6 280.7,173.9 281.8,168.4 283.0,168.8 284.2,173.9 285.4,173.1 286.6,167.5 287.8,168.0 289.0,173.2 290.1,172.4 291.3,166.9 292.5,167.4 293.7,172.6 294.9,171.7 296.1,166.1 297.3,166.6 298.5,171.7 299.6,170.9 300.8,165.4 302.0,165.8 303.2,171.0 304.4,170.2 305.6,164.6 306.8,165.0 307.9,170.2 309.1,169.3 310.3,163.7 311.5,164.2 312.7,169.4 313.9,168.5 315.1,162.9 316.3,163.4 317.4,168.5 318.6,167.6 319.8,162.0 321.0,162.5 322.2,167.6 323.4,166.7 324.6,161.1 325.7,161.6 326.9,166.7 328.1,165.7 329.3,160.1 330.5,160.6 331.7,165.8 332.9,164.8 334.1,159.1 335.2,159.6 336.4,164.8 337.6,163.8 338.8,158.1 340.0,158.6 341.2,163.8 342.4,162.7 343.5,157.0 344.7,157.6 345.9,162.8 347.1,161.7 348.3,156.0 349.5,156.5 350.7,161.7 351.9,160.6 353.0,154.9 354.2,155.4 355.4,160.6 356.6,159.5 357.8,153.7 359.0,154.3 360.2,159.5 361.3,158.3 362.5,152.6 363.7,153.2 364.9,158.3 366.1,157.1 367.3,151.4 368.5,152.0 369.7,157.1 370.8,155.9 372.0,150.2 373.2,150.8 374.4,155.9 375.6,154.7 376.8,148.9 378.0,149.6 379.1,154.7 380.3,153.5 381.5,147.7 382.7,148.3 383.9,153.9 385.1,153.3 386.3,147.8 387.5,148.5 388.6,153.4 389.8,151.7 391.0,146.5 392.2,148.5 393.4,154.6 394.6,153.6 395.8,147.4 396.9,147.1 398.1,155.6 399.3,161.0 400.5,156.4 401.7,142.8 402.9,132.4 404.1,132.1 405.3,141.8 406.4,154.3 407.6,157.4 408.8,150.4 410.0,143.4 411.2,146.5 412.4,158.2 413.6,166.5 414.7,164.7 415.9,152.8 417.1,140.9 418.3,139.1 419.5,147.4 420.7,157.1 421.9,156.8 423.1,148.2 424.2,143.0 425.4,147.9 426.6,162.9 427.8,176.2 429.0,179.4 430.2,172.5 431.4,155.6 432.5,138.7 433.7,131.8 434.9,135.0 436.1,148.3 437.3,168.6 438.5,182.5 439.7,186.4 440.9,180.2 442.0,163.9 443.2,143.3 444.4,131.8 445.6,130.3 446.8,138.9 448.0,157.6 449.2,174.5 450.3,181.4 451.5,178.2 452.7,165.0 453.9,141.7 455.1,119.8 456.3,108.0 457.5,106.3 458.7,114.7 459.8,133.1 461.0,161.6 462.2,186.7 463.4,201.7 464.6,206.7 465.8,201.7 467.0,186.5 468.1,161.3 469.3,132.8 470.5,114.3 471.7,105.8 472.9,107.5 474.1,119.2 475.3,141.0 476.5,163.7 477.6,176.3 478.8,178.8 480.0,171.3 481.2,153.8 482.4,136.2 483.6,128.7 484.8,131.2 485.9,143.9 487.1,166.0 488.3,184.4 489.5,192.6 490.7,190.8 491.9,179.0 493.1,157.0 494.3,135.1 495.4,123.2 496.6,121.4 497.8,129.6 499.0,148.0 500.2,168.2 501.4,178.4 502.6,178.5 503.7,168.6 504.9,150.5 506.1,137.8 507.3,135.1 508.5,142.5 509.7,159.9 510.9,177.4 512.1,184.8 513.2,182.1 514.4,169.3 515.6,146.5 516.8,126.4 518.0,116.4 519.2,116.5 520.4,126.6 521.5,146.8 522.7,168.2 523.9,179.6 525.1,180.9 526.3,172.1 527.5,153.2 528.7,135.7 529.9,128.3 531.0,131.0 532.2,143.7 533.4,166.4 534.6,188.7 535.8,201.0 537.0,203.1 538.2,195.2 539.3,177.2 540.5,149.2 541.7,124.0 542.9,108.8 544.1,103.7 545.3,108.7 546.5,123.7 547.7,148.8 548.8,180.6 550.0,205.7 551.2,220.8 552.4,225.7 553.6,220.6 554.8,205.4 556.0,180.2 557.1,144.8 558.3,112.9 559.5,91.0 560.7,79.2 561.9,77.4 563.1,85.7 564.3,104.1 565.5,132.5 566.6,171.0 567.8,209.0 569.0,236.9 570.2,254.8 571.4,262.5 572.6,260.2 573.8,247.9 574.9,225.5 576.1,193.0 577.3,150.4 578.5,111.2 579.7,82.1 580.9,63.0 582.1,54.0 583.3,55.1 584.4,66.2 585.6,87.4 586.8,118.7 588.0,160.0 589.2,201.3 590.4,232.6 591.6,253.8 592.7,264.9 593.9,266.0 595.1,257.0 596.3,237.9 597.5,208.8 598.7,169.6 599.9,130.4 601.1,101.2 602.2,82.2 603.4,73.2 604.6,74.2 605.8,85.4 607.0,106.6 608.2,137.8 609.4,178.5 610.5,215.0 611.7,241.5 612.9,257.9 614.1,264.2 615.3,260.5 616.5,246.7 617.7,222.8 618.9,188.9 620.0,151.6 621.2,124.4 622.4,107.3 623.6,100.2 624.8,103.2 626.0,116.2 627.2,139.3 628.3,172.5 629.5,205.7 630.7,228.8 631.9,241.9 633.1,244.8 634.3,237.8 635.5,220.6 636.7,193.4 637.8,156.4 639.0,123.0 640.2,99.6 641.4,86.4 642.6,83.1 643.8,90.0 645.0,106.9 646.1,133.9 647.3,171.0 648.5,207.2 649.7,233.3 650.9,249.3 652.1,255.3 653.3,251.2 654.5,237.1 655.6,212.9 656.8,178.6 658.0,144.1 659.2,119.7 660.4,105.4 661.6,101.1 662.8,106.9 663.9,122.8 665.1,148.7 666.3,181.9 667.5,208.8 668.7,225.6 669.9,232.4 671.1,229.1 672.3,215.8 673.4,192.3 674.6,158.8 675.8,127.8 677.0,106.9 678.2,96.0 679.4,95.2 680.6,104.5 681.7,123.8 682.9,153.2 684.1,182.7 685.3,202.2 686.5,211.6 687.7,210.9 688.9,200.2 690.1,179.3 691.2,150.2 692.4,126.1 693.6,112.1 694.8,108.1 696.0,114.2 697.2,130.4 698.4,156.6 699.5,183.5 700.7,200.3 701.9,207.0 703.1,203.7 704.3,190.3 705.5,166.8 706.7,143.3 707.9,129.9 709.0,126.6 710.2,133.3 711.4,150.1 712.6,173.4 713.8,189.9 715.0,196.3 716.2,192.6 717.3,178.9 718.5,157.4 719.7,141.2 720.9,135.0 722.1,138.9 723.3,152.8 724.5,176.5 725.7,197.6 726.8,208.7 728.0,209.6 729.2,200.5 730.4,181.3 731.6,161.2 732.8,151.2 734.0,151.3 735.1,161.4 736.3,180.5 737.5,196.3 738.7,202.1 739.9,197.8 741.1,183.4 742.3,162.5 743.5,148.2 744.6,144.0 745.8,149.8 747.0,165.7 748.2,182.2 749.4,188.7 750.6,185.0 751.8,171.3 752.9,157.0 754.1,152.7 755.3,158.5 756.5,174.4 757.7,189.1 758.9,193.7 760.1,188.3 761.3,172.8 762.4,157.3 763.6,151.9 764.8,156.5 766.0,171.2"/>
<line x1="606" y1="60" x2="628" y2="60" stroke="#24a148" stroke-width="2.2"/>
<text x="634" y="64" font-family="Arial" font-size="12">pitch_deg</text>
</svg>