<svg xmlns="http://www.w3.org/2000/svg" width="820" height="320" viewBox="0 0 820 320">
<rect width="100%" height="100%" fill="#ffffff"/>
<text x="54" y="28" font-family="Arial" font-size="18" font-weight="700">Specific Energy</text>
<line x1="54" y1="266" x2="766" y2="266" stroke="#1f2933"/>
<line x1="54" y1="54" x2="54" y2="266" stroke="#1f2933"/>
<text x="54" y="306" font-family="Arial" font-size="12">time (s)</text>
<text x="596" y="306" font-family="Arial" font-size="12">J/kg</text>
<text x="58" y="68" font-family="Arial" font-size="11">2.74e+05</text>
<text x="58" y="260" font-family="Arial" font-size="11">1.56e+05</text>
<polyline fill="none" stroke="#0f62fe" stroke-width="2.2" points="54.0,266.0 55.2,265.7 56.4,265.5 57.6,265.2 58.7,264.9 59.9,264.6 61.1,264.3 62.3,264.0 63.5,263.7 64.7,263.4 65.9,263.1 67.1,262.8 68.2,262.5 69.4,262.2 70.6,261.9 71.8,261.5 73.0,261.2 74.2,260.9 75.4,260.5 76.5,260.2 77.7,259.8 78.9,259.5 80.1,259.1 81.3,258.7 82.5,258.4 83.7,258.0 84.9,257.6 86.0,257.2 87.2,256.9 88.4,256.5 89.6,256.1 90.8,255.7 92.0,255.3 93.2,254.9 94.3,254.5 95.5,254.1 96.7,253.7 97.9,253.3 99.1,252.9 100.3,252.5 101.5,252.1 102.7,251.7 103.8,251.3 105.0,250.9 106.2,250.5 107.4,250.1 108.6,249.7 109.8,249.3 111.0,248.8 112.1,248.4 113.3,248.0 114.5,247.6 115.7,247.2 116.9,246.7 118.1,246.3 119.3,245.9 120.5,245.4 121.6,245.0 122.8,244.6 124.0,244.1 125.2,243.7 126.4,243.3 127.6,242.8 128.8,242.4 129.9,241.9 131.1,241.5 132.3,241.1 133.5,240.6 134.7,240.2 135.9,239.7 137.1,239.3 138.3,238.8 139.4,238.3 140.6,237.9 141.8,237.4 143.0,237.0 144.2,236.5 145.4,236.0 146.6,235.6 147.7,235.1 148.9,234.7 150.1,234.2 151.3,233.7 152.5,233.2 153.7,232.8 154.9,232.3 156.1,231.8 157.2,231.4 158.4,230.9 159.6,230.4 160.8,229.9 162.0,229.4 163.2,229.0 164.4,228.5 165.5,228.0 166.7,227.5 167.9,227.0 169.1,226.5 170.3,226.0 171.5,225.5 172.7,225.1 173.9,224.6 175.0,224.1 176.2,223.6 177.4,223.1 178.6,222.6 179.8,222.1 181.0,221.6 182.2,221.1 183.3,220.6 184.5,220.1 185.7,219.6 186.9,219.0 188.1,218.5 189.3,218.0 190.5,217.5 191.7,217.0 192.8,216.5 194.0,216.0 195.2,215.5 196.4,215.0 197.6,214.5 198.8,214.0 200.0,213.4 201.1,212.9 202.3,212.4 203.5,211.9 204.7,211.3 205.9,210.8 207.1,210.3 208.3,209.8 209.5,209.2 210.6,208.7 211.8,208.2 213.0,207.7 214.2,207.1 215.4,206.6 216.6,206.1 217.8,205.5 218.9,205.0 220.1,204.5 221.3,203.9 222.5,203.4 223.7,202.8 224.9,202.3 226.1,201.8 227.3,201.2 228.4,200.7 229.6,200.1 230.8,199.6 232.0,199.1 233.2,198.5 234.4,198.0 235.6,197.4 236.7,196.9 237.9,196.3 239.1,195.8 240.3,195.2 241.5,194.7 242.7,194.1 243.9,193.5 245.1,193.0 246.2,192.4 247.4,191.9 248.6,191.3 249.8,190.8 251.0,190.2 252.2,189.6 253.4,189.1 254.5,188.5 255.7,188.0 256.9,187.4 258.1,186.8 259.3,186.3 260.5,185.7 261.7,185.1 262.9,184.5 264.0,184.0 265.2,183.4 266.4,182.8 267.6,182.3 268.8,181.7 270.0,181.1 271.2,180.6 272.3,180.0 273.5,179.4 274.7,178.8 275.9,178.3 277.1,177.7 278.3,177.1 279.5,176.5 280.7,175.9 281.8,175.4 283.0,174.8 284.2,174.2 285.4,173.6 286.6,173.1 287.8,172.5 289.0,171.9 290.1,171.3 291.3,170.7 292.5,170.2 293.7,169.6 294.9,169.0 296.1,168.4 297.3,167.8 298.5,167.2 299.6,166.6 300.8,166.0 302.0,165.5 303.2,164.9 304.4,164.3 305.6,163.7 306.8,163.1 307.9,162.5 309.1,161.9 310.3,161.3 311.5,160.8 312.7,160.2 313.9,159.6 315.1,159.0 316.3,158.4 317.4,157.8 318.6,157.2 319.8,156.6 321.0,156.0 322.2,155.4 323.4,154.8 324.6,154.2 325.7,153.7 326.9,153.1 328.1,152.4 329.3,151.8 330.5,151.3 331.7,150.7 332.9,150.1 334.1,149.5 335.2,148.9 336.4,148.3 337.6,147.7 338.8,147.1 340.0,146.5 341.2,145.9 342.4,145.3 343.5,144.7 344.7,144.1 345.9,143.5 347.1,142.9 348.3,142.3 349.5,141.7 350.7,141.1 351.9,140.5 353.0,139.9 354.2,139.3 355.4,138.7 356.6,138.1 357.8,137.5 359.0,137.0 360.2,136.4 361.3,135.7 362.5,135.1 363.7,134.6 364.9,134.0 366.1,133.4 367.3,132.8 368.5,132.2 369.7,131.6 370.8,131.0 372.0,130.4 373.2,129.9 374.4,129.3 375.6,128.7 376.8,128.1 378.0,127.5 379.1,126.9 380.3,126.3 381.5,125.7 382.7,125.2 383.9,124.6 385.1,124.0 386.3,123.4 387.5,122.9 388.6,122.3 389.8,121.7 391.0,121.1 392.2,120.5 393.4,119.9 394.6,119.3 395.8,118.7 396.9,118.1 398.1,117.5 399.3,116.9 400.5,116.2 401.7,115.6 402.9,115.1 404.1,114.7 405.3,114.3 406.4,113.7 407.6,113.0 408.8,112.4 410.0,111.8 411.2,111.2 412.4,110.6 413.6,109.9 414.7,109.2 415.9,108.5 417.1,107.9 418.3,107.4 419.5,106.9 420.7,106.2 421.9,105.6 423.1,104.9 424.2,104.4 425.4,103.8 426.6,103.1 427.8,102.4 429.0,101.7 430.2,101.0 431.4,100.3 432.5,99.7 433.7,99.3 434.9,98.9 436.1,98.4 437.3,97.7 438.5,97.0 439.7,96.4 440.9,95.7 442.0,95.0 443.2,94.4 444.4,93.9 445.6,93.6 446.8,93.2 448.0,92.6 449.2,91.9 450.3,91.2 451.5,90.5 452.7,89.8 453.9,89.2 455.1,88.9 456.3,88.8 457.5,88.9 458.7,88.8 459.8,88.5 461.0,88.0 462.2,87.3 463.4,86.8 464.6,86.4 465.8,86.0 467.0,85.4 468.1,84.8 469.3,84.2 470.5,84.0 471.7,84.1 472.9,84.2 474.1,84.1 475.3,83.8 476.5,83.1 477.6,82.4 478.8,81.8 480.0,81.1 481.2,80.4 482.4,79.9 483.6,79.5 484.8,79.2 485.9,78.7 487.1,78.1 488.3,77.4 489.5,76.9 490.7,76.3 491.9,75.7 493.1,75.0 494.3,74.5 495.4,74.3 496.6,74.1 497.8,73.9 499.0,73.4 500.2,72.7 501.4,72.1 502.6,71.4 503.7,70.8 504.9,70.1 506.1,69.6 507.3,69.2 508.5,68.8 509.7,68.2 510.9,67.5 512.1,66.9 513.2,66.3 514.4,65.7 515.6,65.1 516.8,64.7 518.0,64.6 519.2,64.6 520.4,64.4 521.5,64.0 522.7,63.4 523.9,62.7 525.1,62.1 526.3,61.5 527.5,60.8 528.7,60.4 529.9,60.1 531.0,59.8 532.2,59.4 533.4,58.8 534.6,58.2 535.8,57.8 537.0,57.5 538.2,57.1 539.3,56.6 540.5,55.9 541.7,55.6 542.9,55.7 544.1,56.0 545.3,56.3 546.5,56.3 547.7,55.9 548.8,55.3 550.0,54.9 551.2,54.9 552.4,55.1 553.6,55.3 554.8,55.2 556.0,54.7 557.1,54.1 558.3,54.0 559.5,54.6 560.7,55.7 561.9,57.0 563.1,58.1 564.3,58.6 565.5,58.5 566.6,58.0 567.8,57.6 569.0,57.8 570.2,58.7 571.4,59.6 572.6,60.7 573.8,61.5 574.9,61.8 576.1,61.5 577.3,60.9 578.5,60.9 579.7,61.7 580.9,63.4 582.1,65.4 583.3,67.5 584.4,69.2 585.6,70.4 586.8,70.6 588.0,70.1 589.2,70.5 590.4,71.5 591.6,73.1 592.7,75.0 593.9,76.8 595.1,78.6 596.3,80.0 597.5,80.9 598.7,81.3 599.9,81.9 601.1,83.0 602.2,84.8 603.4,86.9 604.6,89.1 605.8,90.9 607.0,92.3 608.2,93.1 609.4,93.4 610.5,94.0 611.7,95.0 612.9,96.3 614.1,97.9 615.3,99.4 616.5,100.6 617.7,101.5 618.9,102.0 620.0,102.3 621.2,103.0 622.4,104.0 623.6,105.3 624.8,106.7 626.0,107.7 627.2,108.4 628.3,108.8 629.5,109.1 630.7,109.8 631.9,110.6 633.1,111.6 634.3,112.5 635.5,113.2 636.7,113.6 637.8,113.9 639.0,114.5 640.2,115.6 641.4,117.0 642.6,118.6 643.8,120.1 645.0,121.3 646.1,122.0 647.3,122.4 648.5,122.7 649.7,123.3 650.9,124.1 652.1,125.1 653.3,126.1 654.5,126.9 655.6,127.4 656.8,127.7 658.0,128.0 659.2,128.7 660.4,129.7 661.6,130.8 662.8,131.9 663.9,132.7 665.1,133.2 666.3,133.5 667.5,133.8 668.7,134.2 669.9,134.8 671.1,135.3 672.3,135.8 673.4,136.1 674.6,136.3 675.8,136.8 677.0,137.6 678.2,138.7 679.4,139.8 680.6,140.9 681.7,141.6 682.9,142.1 684.1,142.3 685.3,142.5 686.5,142.9 687.7,143.2 688.9,143.5 690.1,143.7 691.2,144.0 692.4,144.4 693.6,145.1 694.8,146.0 696.0,146.7 697.2,147.3 698.4,147.7 699.5,147.9 700.7,148.1 701.9,148.4 703.1,148.7 704.3,148.9 705.5,149.1 706.7,149.4 707.9,149.9 709.0,150.4 710.2,150.9 711.4,151.3 712.6,151.5 713.8,151.7 715.0,151.9 716.2,152.1 717.3,152.3 718.5,152.5 719.7,152.9 720.9,153.3 722.1,153.7 723.3,154.1 724.5,154.3 725.7,154.5 726.8,154.7 728.0,155.0 729.2,155.2 730.4,155.4 731.6,155.6 732.8,155.9 734.0,156.3 735.1,156.5 736.3,156.7 737.5,156.9 738.7,157.1 739.9,157.3 741.1,157.5 742.3,157.7 743.5,158.0 744.6,158.4 745.8,158.7 747.0,159.0 748.2,159.2 749.4,159.4 750.6,159.5 751.8,159.7 752.9,159.9 754.1,160.2 755.3,160.5 756.5,160.8 757.7,160.9 758.9,161.1 760.1,161.3 761.3,161.4 762.4,161.7 763.6,162.0 764.8,162.3 766.0,162.5"/>
<line x1="606" y1="42" x2="628" y2="42" stroke="#0f62fe" stroke-width="2.2"/>
<text x="634" y="46" font-family="Arial" font-size="12">energy_j_per_kg</text>
</svg>