<svg xmlns="http://www.w3.org/2000/svg" width="820" height="320" viewBox="0 0 820 320">
<rect width="100%" height="100%" fill="#ffffff"/>
<text x="54" y="28" font-family="Arial" font-size="18" font-weight="700">Qbar/Load Envelope</text>
<line x1="54" y1="266" x2="766" y2="266" stroke="#1f2933"/>
<line x1="54" y1="54" x2="54" y2="266" stroke="#1f2933"/>
<text x="54" y="306" font-family="Arial" font-size="12">qbar (Pa)</text>
<text x="596" y="306" font-family="Arial" font-size="12">load factor (g)</text>
<text x="58" y="68" font-family="Arial" font-size="11">12</text>
<text x="58" y="260" font-family="Arial" font-size="11">0.599</text>
<polyline fill="none" stroke="#0f62fe" stroke-width="2.2" points="54.0,235.4 54.9,235.0 55.8,234.7 56.8,234.3 57.7,233.9 58.7,233.5 59.6,233.1 60.6,232.7 61.6,232.3 62.7,231.9 63.7,231.5 64.8,231.1 65.8,230.7 66.9,230.3 68.0,229.9 69.1,229.5 70.3,229.2 71.4,228.8 72.6,228.4 73.8,228.0 75.0,227.6 76.2,227.2 77.4,226.8 78.7,226.4 79.9,226.0 81.2,225.6 82.5,225.6 83.8,225.6 85.1,225.7 86.5,225.7 87.8,225.7 89.1,225.7 90.5,225.7 91.8,225.8 93.2,225.8 94.5,225.8 95.9,225.8 97.3,225.8 98.7,225.9 100.0,225.9 101.4,225.9 102.9,225.9 104.3,225.9 105.7,226.0 107.1,226.0 108.5,226.0 110.0,226.0 111.4,226.1 112.9,226.1 114.3,226.1 115.8,226.1 117.3,226.1 118.8,226.2 120.3,226.2 121.7,226.2 123.2,226.2 124.8,226.3 126.3,226.3 127.8,226.3 129.3,226.3 130.8,226.4 132.4,226.4 133.9,226.4 135.5,226.4 137.0,226.5 138.6,226.5 140.2,226.5 141.7,226.6 143.3,226.6 144.9,226.6 146.5,226.6 148.1,226.7 149.7,226.7 151.3,226.7 152.9,226.7 154.6,226.8 156.2,226.8 157.8,226.8 159.5,226.9 161.1,226.9 162.8,226.9 164.4,226.9 166.1,227.0 167.7,227.0 169.4,227.0 171.1,227.0 172.8,227.1 174.5,227.1 176.2,227.1 177.8,227.1 179.6,227.2 181.3,227.2 183.0,227.2 184.7,227.3 186.4,227.3 188.1,227.3 189.9,227.3 191.6,227.4 193.4,227.3 195.1,227.3 196.9,227.5 198.6,227.4 200.4,227.2 202.2,227.6 203.9,227.4 205.7,227.1 207.5,227.7 209.3,227.7 211.1,227.0 212.9,227.1 214.7,227.8 216.5,227.7 218.3,226.9 220.1,227.1 221.9,227.9 223.8,227.7 225.6,226.8 227.4,227.4 229.3,228.1 231.1,227.5 233.0,226.2 234.8,226.9 236.6,228.1 238.5,227.6 240.3,226.4 242.1,227.3 244.0,228.3 246.0,227.8 247.9,226.6 249.7,227.4 251.6,228.4 253.5,227.7 255.4,226.1 257.3,227.0 259.2,228.3 261.1,227.7 263.0,226.2 264.9,227.3 266.8,228.5 268.8,227.9 270.7,226.3 272.6,227.3 274.6,228.6 276.5,227.8 278.5,225.9 280.4,227.0 282.3,228.6 284.3,227.8 286.3,226.0 288.2,227.2 290.2,228.8 292.2,228.0 294.2,226.0 296.1,227.1 298.1,228.7 300.1,227.8 302.1,225.6 304.0,226.9 306.0,228.8 308.1,227.9 310.1,225.7 312.0,227.1 314.0,228.9 316.1,228.0 318.1,225.5 320.1,226.9 322.1,228.9 324.2,227.9 326.2,225.3 328.1,226.9 330.2,229.0 332.3,228.0 334.3,225.3 336.3,226.8 338.3,229.1 340.4,227.9 342.5,225.0 344.4,226.6 346.5,229.1 348.6,227.9 350.6,224.9 352.6,226.7 354.7,229.2 356.8,227.9 358.9,224.7 360.9,226.5 363.0,229.2 365.1,227.9 367.2,224.5 369.2,226.4 371.2,229.3 373.4,227.9 375.4,224.4 377.5,226.3 379.5,229.3 381.7,227.8 383.8,224.1 385.8,226.2 387.9,229.4 390.0,227.8 392.1,223.9 394.1,226.1 396.2,229.4 398.4,227.8 400.5,223.6 402.5,225.9 404.6,229.4 406.7,227.7 408.8,223.4 410.8,225.8 413.0,229.5 415.1,227.7 417.2,223.2 419.2,225.7 421.3,229.5 423.5,227.6 425.6,222.9 427.6,225.5 429.7,229.5 431.9,227.6 434.0,222.6 436.0,225.4 438.1,229.6 440.3,227.5 442.4,222.3 444.4,225.2 446.5,229.6 448.7,227.4 450.8,222.0 452.8,225.0 454.9,229.6 457.1,227.3 459.2,221.7 461.2,224.8 463.3,229.6 465.5,227.2 467.6,221.4 469.6,224.6 471.7,229.6 473.8,227.1 475.9,221.1 477.9,224.4 480.0,229.6 482.2,227.0 484.3,220.7 486.2,224.2 488.3,229.6 490.5,226.9 492.6,220.4 494.6,224.0 496.6,229.6 498.8,226.8 500.9,220.1 502.8,223.9 504.9,229.8 507.1,226.9 509.1,219.8 511.0,223.7 513.1,229.9 515.2,226.9 517.3,219.6 519.2,223.6 521.2,230.0 523.3,226.9 525.3,219.3 527.2,223.5 529.2,230.2 531.4,226.9 533.3,219.1 535.2,223.4 537.2,230.3 539.3,226.9 541.2,218.8 543.1,223.3 545.1,230.4 547.1,226.8 549.1,218.5 550.9,223.0 552.8,230.7 554.9,227.6 556.8,219.5 558.7,224.2 560.6,231.1 562.7,227.1 564.6,218.9 566.4,225.0 568.4,232.6 570.5,229.4 572.5,220.7 574.3,223.5 576.3,233.1 578.5,235.4 580.7,232.4 582.6,217.0 584.1,199.8 585.4,204.3 586.9,221.7 588.8,234.7 591.0,234.8 593.1,228.3 594.9,217.6 596.7,225.4 598.7,235.5 601.0,234.0 603.4,235.4 605.6,230.5 607.5,214.3 609.0,214.2 610.7,228.3 612.8,236.5 615.0,234.7 617.0,225.4 618.8,216.9 620.6,227.2 622.7,236.0 625.0,229.1 627.3,226.9 629.6,233.7 631.9,232.4 633.6,209.0 634.9,194.4 636.1,205.9 637.7,228.4 639.9,234.5 642.1,223.0 644.2,217.9 646.4,228.9 648.7,236.9 650.6,215.9 651.9,193.7 652.9,196.2 654.2,216.2 656.0,237.7 658.3,229.8 660.5,220.2 662.6,228.3 664.9,237.8 666.9,216.2 667.8,174.5 667.8,151.2 667.4,151.0 667.3,173.0 668.0,212.4 669.9,237.0 671.9,212.3 673.5,189.0 674.6,180.8 675.7,194.9 677.4,221.4 679.6,238.2 681.3,198.2 681.7,159.4 681.3,144.1 680.7,153.0 680.7,183.6 681.8,226.8 683.8,235.8 685.9,222.4 687.9,223.9 690.0,235.1 692.2,234.7 693.8,205.9 694.8,187.8 695.7,200.1 697.0,226.9 699.0,236.8 701.0,214.8 702.7,198.2 704.2,208.7 706.1,230.6 708.3,236.3 709.8,199.5 710.5,172.0 710.8,173.3 711.3,197.8 712.7,233.5 714.7,235.4 716.7,221.1 718.7,227.0 720.7,238.7 722.8,228.9 724.2,203.0 725.3,201.3 726.5,221.5 728.2,240.8 730.3,225.7 732.1,210.7 733.9,221.9 735.9,239.0 737.9,222.7 738.8,179.1 738.9,153.6 738.7,162.0 738.9,192.5 740.1,234.7 742.1,234.7 743.9,215.9 745.7,220.6 747.5,236.9 749.6,234.6 751.0,199.7 751.7,179.4 752.3,193.8 753.4,225.4 755.2,239.2 757.0,205.0 758.0,181.3 758.7,179.5 759.7,200.2 761.4,235.2 763.3,224.5 764.1,167.4 763.6,128.9 762.2,117.9 761.0,137.4 760.7,181.5 761.7,235.9 763.6,220.3 764.6,175.0 764.3,144.8 763.3,132.6 762.4,152.8 762.6,188.3 764.1,235.4 765.9,211.2 766.0,135.3 763.8,104.0 759.8,84.6 755.1,83.1 751.1,104.8 748.9,137.9 748.9,209.6 750.5,233.7 751.5,169.3 750.3,115.5 747.2,88.9 743.6,82.1 739.9,87.6 736.9,114.7 735.7,165.9 736.7,226.1 738.6,212.8 738.5,130.3 735.4,89.7 729.7,63.1 722.6,54.0 715.3,62.1 709.1,84.2 705.1,121.9 704.0,181.3 705.2,241.6 703.8,186.2 699.9,126.9 694.2,93.5 687.8,87.6 681.4,91.6 675.2,101.6 670.2,146.9 667.2,206.1 665.7,252.9 663.6,171.9 659.5,121.3 653.4,93.3 646.2,79.6 638.7,91.3 632.2,116.2 627.4,151.3 624.6,219.8 623.1,242.0 621.1,179.9 617.5,134.8 612.7,110.8 607.5,109.6 602.3,117.3 597.8,149.1 594.8,195.0 593.2,253.0 592.0,216.7 589.6,162.5 586.0,137.7 581.5,126.9 577.0,138.7 573.3,161.7 570.8,211.3 569.4,261.4 568.1,213.9 565.9,177.4 562.8,155.9 559.4,152.6 556.3,171.7 553.9,204.2 552.6,249.7 551.5,226.9 549.3,166.0 545.6,137.9 540.7,120.8 535.3,120.3 530.2,136.3 526.1,161.9 523.6,208.4 522.2,262.8 521.1,215.7 519.0,177.9 516.0,154.1 512.6,147.1 509.3,161.3 506.6,188.1 504.8,226.4 503.9,260.2 502.6,206.2 500.3,167.9 497.0,151.1 493.2,149.2 489.6,161.9 486.7,185.0 484.9,231.1 483.9,258.5 482.9,221.6 481.4,198.0 479.4,188.0 477.5,199.0 475.9,221.9 475.0,256.4 474.1,234.5 472.4,184.6 469.6,161.6 466.0,148.9 462.1,154.6 458.6,169.9 456.0,195.5 454.4,242.9 453.6,256.3 452.7,229.9 451.6,215.8 450.4,222.5 449.4,241.3 448.6,264.4 447.7,228.1 446.0,190.5 443.7,174.3 440.9,171.6 438.2,182.7 436.2,208.2 434.8,248.5 434.1,256.6 433.2,234.4 432.3,226.1 431.3,235.7 430.4,255.9 429.8,253.6 428.7,219.4 427.1,198.0 425.3,196.3 423.5,211.1 422.2,238.4 421.3,264.8 420.6,249.5 419.9,242.2 419.1,251.1 418.4,265.4 417.6,241.8 416.5,217.2 415.0,207.4 413.5,217.8 412.3,240.5 411.5,265.4 410.8,243.7 409.9,228.4 409.0,232.6 408.1,247.8 407.5,265.8 406.7,242.4 405.7,226.4 404.6,231.0 403.6,247.7 402.8,265.6 402.2,249.4 401.5,242.1 400.8,251.4 400.1,266.0 399.5,244.0 398.4,222.8 397.2,219.0 395.9,231.0 395.0,254.0 394.4,264.6 393.8,258.1 393.2,264.4 392.6,257.3 391.8,237.3 390.8,231.6 389.8,242.8 389.0,262.9 388.4,259.2 387.8,255.4 387.3,263.8 386.7,257.1 385.9,235.8 384.9,228.5 383.8,238.3 383.0,258.5"/>
<line x1="606" y1="42" x2="628" y2="42" stroke="#0f62fe" stroke-width="2.2"/>
<text x="634" y="46" font-family="Arial" font-size="12">load_factor_g</text>
</svg>