<svg xmlns="http://www.w3.org/2000/svg" width="820" height="320" viewBox="0 0 820 320">
<rect width="100%" height="100%" fill="#ffffff"/>
<text x="54" y="28" font-family="Arial" font-size="18" font-weight="700">Velocity Y</text>
<line x1="54" y1="266" x2="766" y2="266" stroke="#1f2933"/>
<line x1="54" y1="54" x2="54" y2="266" stroke="#1f2933"/>
<text x="54" y="306" font-family="Arial" font-size="12">time (s)</text>
<text x="596" y="306" font-family="Arial" font-size="12">vy (m/s)</text>
<text x="58" y="68" font-family="Arial" font-size="11">16.5</text>
<text x="58" y="260" font-family="Arial" font-size="11">-12.2</text>
<polyline fill="none" stroke="#0f62fe" stroke-width="2.2" points="54.0,168.3 55.2,168.0 56.4,167.7 57.6,167.3 58.7,167.1 59.9,166.9 61.1,166.8 62.3,166.7 63.5,166.8 64.7,167.0 65.9,167.4 67.1,168.0 68.2,168.7 69.4,169.6 70.6,170.7 71.8,172.1 73.0,173.7 74.2,175.4 75.4,177.4 76.5,179.6 77.7,182.0 78.9,184.6 80.1,187.4 81.3,190.4 82.5,193.5 83.7,196.7 84.9,200.0 86.0,203.4 87.2,206.7 88.4,210.1 89.6,213.4 90.8,216.7 92.0,219.8 93.2,222.9 94.3,225.8 95.5,228.4 96.7,230.8 97.9,233.0 99.1,234.8 100.3,236.3 101.5,237.4 102.7,238.2 103.8,238.5 105.0,238.4 106.2,238.0 107.4,237.3 108.6,236.2 109.8,234.9 111.0,233.2 112.1,231.4 113.3,229.5 114.5,227.4 115.7,225.4 116.9,223.5 118.1,221.9 119.3,221.0 120.5,221.0 121.6,222.5 122.8,225.9 124.0,230.5 125.2,235.8 126.4,240.8 127.6,245.5 128.8,250.1 129.9,254.7 131.1,259.0 132.3,262.2 133.5,263.9 134.7,263.9 135.9,262.0 137.1,260.2 138.3,259.4 139.4,256.6 140.6,252.2 141.8,246.6 143.0,240.7 144.2,235.4 145.4,231.2 146.6,228.4 147.7,227.6 148.9,229.5 150.1,233.6 151.3,239.3 152.5,245.4 153.7,250.6 154.9,254.2 156.1,255.6 157.2,254.5 158.4,250.9 159.6,245.8 160.8,240.1 162.0,234.7 163.2,230.9 164.4,229.3 165.5,230.3 166.7,233.5 167.9,238.4 169.1,243.9 170.3,249.3 171.5,253.6 172.7,256.0 173.9,256.4 175.0,254.6 176.2,250.7 177.4,245.5 178.6,240.0 179.8,235.2 181.0,232.1 182.2,231.3 183.3,232.7 184.5,236.0 185.7,240.5 186.9,245.6 188.1,250.4 189.3,254.6 190.5,257.9 191.7,259.6 192.8,259.5 194.0,257.3 195.2,253.0 196.4,247.5 197.6,242.8 198.8,238.0 200.0,236.0 201.1,235.9 202.3,237.3 203.5,240.1 204.7,243.8 205.9,247.9 207.1,252.0 208.3,255.9 209.5,258.9 210.6,260.3 211.8,259.7 213.0,256.7 214.2,252.7 215.4,249.6 216.6,248.1 217.8,246.2 218.9,242.9 220.1,241.0 221.3,240.5 222.5,241.5 223.7,243.5 224.9,246.6 226.1,250.5 227.3,255.0 228.4,259.6 229.6,263.5 230.8,265.8 232.0,266.0 233.2,263.0 234.4,258.4 235.6,253.4 236.7,248.8 237.9,245.0 239.1,242.4 240.3,241.0 241.5,240.7 242.7,238.1 243.9,236.4 245.1,235.7 246.2,236.2 247.4,238.0 248.6,241.1 249.8,245.1 251.0,249.4 252.2,253.4 253.4,256.5 254.5,258.7 255.7,259.4 256.9,255.6 258.1,250.8 259.3,245.4 260.5,239.8 261.7,234.2 262.9,228.9 264.0,223.9 265.2,219.5 266.4,215.7 267.6,212.6 268.8,210.1 270.0,208.1 271.2,206.5 272.3,203.8 273.5,201.5 274.7,199.6 275.9,197.9 277.1,196.1 278.3,194.0 279.5,191.7 280.7,189.0 281.8,186.1 283.0,183.1 284.2,180.0 285.4,176.1 286.6,171.1 287.8,166.5 289.0,162.4 290.1,159.2 291.3,156.8 292.5,155.1 293.7,153.8 294.9,152.6 296.1,151.4 297.3,150.1 298.5,148.6 299.6,149.3 300.8,149.7 302.0,149.8 303.2,149.5 304.4,148.4 305.6,144.7 306.8,140.4 307.9,135.7 309.1,130.8 310.3,125.7 311.5,120.8 312.7,116.5 313.9,113.1 315.1,110.8 316.3,109.2 317.4,107.9 318.6,107.0 319.8,109.2 321.0,111.5 322.2,113.5 323.4,115.1 324.6,116.3 325.7,117.3 326.9,117.9 328.1,118.0 329.3,117.3 330.5,117.5 331.7,116.9 332.9,115.5 334.1,113.3 335.2,110.5 336.4,107.2 337.6,103.7 338.8,99.9 340.0,95.8 341.2,91.4 342.4,86.6 343.5,82.4 344.7,78.7 345.9,75.2 347.1,72.0 348.3,69.7 349.5,68.7 350.7,68.9 351.9,69.8 353.0,71.1 354.2,72.5 355.4,75.9 356.6,79.0 357.8,81.5 359.0,83.3 360.2,84.4 361.3,85.2 362.5,85.6 363.7,85.7 364.9,85.6 366.1,85.2 367.3,84.3 368.5,83.0 369.7,81.6 370.8,82.4 372.0,84.7 373.2,87.6 374.4,91.3 375.6,95.9 376.8,101.1 378.0,106.4 379.1,111.0 380.3,115.8 381.5,120.7 382.7,125.3 383.9,129.6 385.1,133.7 386.3,137.6 387.5,141.4 388.6,145.1 389.8,148.8 391.0,152.4 392.2,156.2 393.4,160.2 394.6,164.1 395.8,169.3 396.9,174.4 398.1,179.3 399.3,183.7 400.5,187.5 401.7,190.7 402.9,193.5 404.1,196.5 405.3,198.5 406.4,198.4 407.6,198.2 408.8,198.1 410.0,198.0 411.2,197.9 412.4,197.8 413.6,197.5 414.7,197.3 415.9,197.2 417.1,197.5 418.3,198.3 419.5,199.6 420.7,199.6 421.9,199.9 423.1,200.6 424.2,201.8 425.4,203.5 426.6,205.5 427.8,207.6 429.0,209.8 430.2,212.1 431.4,214.7 432.5,217.5 433.7,218.1 434.9,217.0 436.1,215.3 437.3,212.4 438.5,208.4 439.7,203.5 440.9,198.3 442.0,193.1 443.2,188.2 444.4,183.9 445.6,180.0 446.8,177.1 448.0,175.0 449.2,173.5 450.3,172.8 451.5,173.0 452.7,174.1 453.9,174.4 455.1,175.3 456.3,176.8 457.5,178.6 458.7,180.5 459.8,181.8 461.0,182.5 462.2,182.3 463.4,181.6 464.6,180.7 465.8,178.0 467.0,174.4 468.1,171.1 469.3,167.7 470.5,164.2 471.7,160.6 472.9,156.7 474.1,152.6 475.3,148.6 476.5,144.9 477.6,140.7 478.8,135.8 480.0,131.0 481.2,126.2 482.4,121.4 483.6,116.7 484.8,111.9 485.9,107.0 487.1,102.0 488.3,96.7 489.5,92.1 490.7,88.1 491.9,83.9 493.1,79.5 494.3,75.1 495.4,71.1 496.6,67.5 497.8,64.1 499.0,60.8 500.2,57.0 501.4,54.0 502.6,54.0 503.7,54.0 504.9,54.3 506.1,55.2 507.3,57.0 508.5,59.5 509.7,62.5 510.9,65.3 512.1,68.0 513.2,70.4 514.4,74.6 515.6,78.4 516.8,81.6 518.0,84.3 519.2,86.8 520.4,89.4 521.5,91.9 522.7,94.0 523.9,95.1 525.1,95.2 526.3,96.8 527.5,97.1 528.7,96.0 529.9,93.9 531.0,91.1 532.2,87.9 533.4,84.5 534.6,81.0 535.8,77.5 537.0,74.7 538.2,75.5 539.3,77.4 540.5,80.5 541.7,84.8 542.9,89.7 544.1,94.6 545.3,99.2 546.5,104.2 547.7,108.3 548.8,111.3 550.0,113.1 551.2,114.3 552.4,114.8 553.6,114.9 554.8,114.2 556.0,112.5 557.1,110.2 558.3,106.9 559.5,105.9 560.7,106.8 561.9,109.3 563.1,113.1 564.3,117.7 565.5,122.1 566.6,126.7 567.8,131.7 569.0,136.7 570.2,136.5 571.4,136.0 572.6,135.5 573.8,134.9 574.9,134.4 576.1,134.2 577.3,134.1 578.5,134.1 579.7,134.1 580.9,133.9 582.1,133.9 583.3,135.4 584.4,137.5 585.6,139.6 586.8,141.8 588.0,143.5 589.2,143.3 590.4,142.2 591.6,141.8 592.7,141.8 593.9,142.0 595.1,142.3 596.3,142.3 597.5,142.0 598.7,141.5 599.9,141.1 601.1,141.0 602.2,141.3 603.4,141.9 604.6,141.4 605.8,141.3 607.0,141.6 608.2,142.2 609.4,142.6 610.5,142.8 611.7,143.3 612.9,145.0 614.1,144.6 615.3,143.2 616.5,142.5 617.7,142.2 618.9,141.9 620.0,141.5 621.2,140.9 622.4,140.5 623.6,140.7 624.8,141.3 626.0,142.3 627.2,141.5 628.3,141.0 629.5,141.0 630.7,141.4 631.9,141.6 633.1,141.6 634.3,141.4 635.5,141.1 636.7,141.2 637.8,142.1 639.0,141.7 640.2,139.8 641.4,138.6 642.6,137.6 643.8,136.8 645.0,136.1 646.1,135.5 647.3,135.1 648.5,134.9 649.7,135.8 650.9,136.8 652.1,138.0 653.3,138.9 654.5,139.7 655.6,140.5 656.8,141.4 658.0,142.6 659.2,141.6 660.4,140.9 661.6,140.4 662.8,140.1 663.9,139.9 665.1,139.4 666.3,138.7 667.5,137.7 668.7,136.7 669.9,135.7 671.1,135.1 672.3,134.5 673.4,133.9 674.6,133.3 675.8,132.9 677.0,132.6 678.2,132.4 679.4,132.1 680.6,131.7 681.7,131.2 682.9,130.4 684.1,130.2 685.3,130.2 686.5,130.0 687.7,129.5 688.9,129.1 690.1,128.8 691.2,128.9 692.4,129.0 693.6,128.8 694.8,128.1 696.0,127.0 697.2,128.1 698.4,128.8 699.5,129.1 700.7,129.0 701.9,128.7 703.1,128.6 704.3,128.7 705.5,128.9 706.7,128.9 707.9,128.7 709.0,128.0 710.2,129.3 711.4,130.4 712.6,131.3 713.8,132.1 715.0,132.9 716.2,133.6 717.3,133.6 718.5,133.0 719.7,131.9 720.9,133.0 722.1,133.1 723.3,133.1 724.5,133.5 725.7,134.2 726.8,134.8 728.0,134.9 729.2,134.4 730.4,133.5 731.6,133.1 732.8,132.2 734.0,131.2 735.1,130.3 736.3,129.9 737.5,129.6 738.7,129.1 739.9,128.2 741.1,126.9 742.3,128.0 743.5,128.5 744.6,128.8 745.8,129.1 747.0,129.8 748.2,130.7 749.4,131.7 750.6,132.3 751.8,132.6 752.9,132.2 754.1,131.5 755.3,130.6 756.5,129.5 757.7,128.2 758.9,127.0 760.1,125.8 761.3,124.8 762.4,123.9 763.6,123.1 764.8,122.3 766.0,121.6"/>
<line x1="606" y1="42" x2="628" y2="42" stroke="#0f62fe" stroke-width="2.2"/>
<text x="634" y="46" font-family="Arial" font-size="12">vy_mps</text>
</svg>