<svg xmlns="http://www.w3.org/2000/svg" width="820" height="320" viewBox="0 0 820 320">
<rect width="100%" height="100%" fill="#ffffff"/>
<text x="54" y="28" font-family="Arial" font-size="18" font-weight="700">Alpha/Beta</text>
<line x1="54" y1="266" x2="766" y2="266" stroke="#1f2933"/>
<line x1="54" y1="54" x2="54" y2="266" stroke="#1f2933"/>
<text x="54" y="306" font-family="Arial" font-size="12">time (s)</text>
<text x="596" y="306" font-family="Arial" font-size="12">angle (deg)</text>
<text x="58" y="68" font-family="Arial" font-size="11">35</text>
<text x="58" y="260" font-family="Arial" font-size="11">-35</text>
<polyline fill="none" stroke="#0f62fe" stroke-width="2.2" points="54.0,157.9 55.2,156.4 56.4,154.8 57.6,153.4 58.7,152.1 59.9,151.3 61.1,150.0 62.3,149.6 63.5,149.0 64.7,148.1 65.9,147.2 67.1,146.6 68.2,145.3 69.4,145.4 70.6,144.2 71.8,142.8 73.0,141.6 74.2,140.8 75.4,139.8 76.5,138.2 77.7,136.8 78.9,135.6 80.1,134.8 81.3,133.9 82.5,133.3 83.7,133.4 84.9,133.4 86.0,133.8 87.2,134.0 88.4,134.6 89.6,135.7 90.8,136.2 92.0,136.8 93.2,138.6 94.3,140.2 95.5,142.0 96.7,142.9 97.9,144.5 99.1,146.1 100.3,147.5 101.5,148.9 102.7,151.1 103.8,152.6 105.0,154.1 106.2,155.8 107.4,157.9 108.6,159.7 109.8,162.3 111.0,164.2 112.1,166.6 113.3,168.1 114.5,169.5 115.7,169.5 116.9,168.1 118.1,163.5 119.3,156.5 120.5,145.8 121.6,132.2 122.8,116.3 124.0,99.4 125.2,81.3 126.4,62.3 127.6,54.0 128.8,54.0 129.9,54.0 131.1,54.0 132.3,54.0 133.5,54.0 134.7,54.0 135.9,145.1 137.1,266.0 138.3,266.0 139.4,266.0 140.6,266.0 141.8,266.0 143.0,266.0 144.2,259.5 145.4,235.7 146.6,216.2 147.7,204.0 148.9,203.9 150.1,216.3 151.3,242.2 152.5,266.0 153.7,266.0 154.9,266.0 156.1,266.0 157.2,266.0 158.4,266.0 159.6,266.0 160.8,266.0 162.0,266.0 163.2,266.0 164.4,263.0 165.5,266.0 166.7,266.0 167.9,266.0 169.1,266.0 170.3,266.0 171.5,266.0 172.7,266.0 173.9,266.0 175.0,266.0 176.2,266.0 177.4,263.8 178.6,260.5 179.8,266.0 181.0,266.0 182.2,266.0 183.3,266.0 184.5,266.0 185.7,266.0 186.9,266.0 188.1,266.0 189.3,266.0 190.5,266.0 191.7,266.0 192.8,251.9 194.0,224.0 195.2,201.6 196.4,191.5 197.6,205.3 198.8,266.0 200.0,266.0 201.1,266.0 202.3,266.0 203.5,266.0 204.7,266.0 205.9,266.0 207.1,266.0 208.3,266.0 209.5,266.0 210.6,236.2 211.8,199.2 213.0,166.7 214.2,140.8 215.4,124.4 216.6,150.0 217.8,266.0 218.9,266.0 220.1,266.0 221.3,266.0 222.5,266.0 223.7,266.0 224.9,266.0 226.1,266.0 227.3,266.0 228.4,266.0 229.6,246.2 230.8,200.7 232.0,156.6 233.2,106.3 234.4,54.0 235.6,54.0 236.7,54.0 237.9,54.0 239.1,54.0 240.3,54.0 241.5,266.0 242.7,266.0 243.9,266.0 245.1,266.0 246.2,266.0 247.4,266.0 248.6,266.0 249.8,266.0 251.0,266.0 252.2,266.0 253.4,243.5 254.5,188.2 255.7,125.6 256.9,59.0 258.1,54.0 259.3,54.0 260.5,54.0 261.7,54.0 262.9,54.0 264.0,54.0 265.2,54.0 266.4,54.0 267.6,54.0 268.8,54.0 270.0,54.0 271.2,266.0 272.3,266.0 273.5,266.0 274.7,266.0 275.9,266.0 277.1,266.0 278.3,266.0 279.5,266.0 280.7,266.0 281.8,266.0 283.0,256.6 284.2,160.9 285.4,88.6 286.6,54.0 287.8,54.0 289.0,54.0 290.1,54.0 291.3,54.0 292.5,54.0 293.7,54.0 294.9,54.0 296.1,54.0 297.3,54.0 298.5,266.0 299.6,266.0 300.8,266.0 302.0,266.0 303.2,266.0 304.4,54.0 305.6,54.0 306.8,54.0 307.9,54.0 309.1,54.0 310.3,54.0 311.5,54.0 312.7,54.0 313.9,54.0 315.1,54.0 316.3,67.1 317.4,118.4 318.6,266.0 319.8,266.0 321.0,266.0 322.2,266.0 323.4,266.0 324.6,266.0 325.7,266.0 326.9,266.0 328.1,266.0 329.3,54.0 330.5,54.0 331.7,54.0 332.9,54.0 334.1,54.0 335.2,54.0 336.4,54.0 337.6,54.0 338.8,54.0 340.0,54.0 341.2,54.0 342.4,166.2 343.5,266.0 344.7,266.0 345.9,266.0 347.1,266.0 348.3,266.0 349.5,266.0 350.7,266.0 351.9,266.0 353.0,266.0 354.2,54.0 355.4,54.0 356.6,54.0 357.8,54.0 359.0,54.0 360.2,54.0 361.3,54.0 362.5,54.0 363.7,54.0 364.9,54.0 366.1,54.0 367.3,63.1 368.5,126.9 369.7,176.3 370.8,207.6 372.0,225.6 373.2,233.9 374.4,232.3 375.6,220.9 376.8,185.6 378.0,82.3 379.1,54.0 380.3,54.0 381.5,54.0 382.7,54.0 383.9,54.0 385.1,54.0 386.3,54.0 387.5,54.0 388.6,54.0 389.8,54.0 391.0,54.0 392.2,54.0 393.4,72.3 394.6,196.9 395.8,239.9 396.9,258.6 398.1,266.0 399.3,266.0 400.5,265.9 401.7,253.5 402.9,227.2 404.1,171.9 405.3,71.6 406.4,54.0 407.6,54.0 408.8,54.0 410.0,54.0 411.2,54.0 412.4,54.0 413.6,54.0 414.7,54.0 415.9,54.0 417.1,54.0 418.3,54.0 419.5,266.0 420.7,266.0 421.9,266.0 423.1,266.0 424.2,266.0 425.4,266.0 426.6,266.0 427.8,266.0 429.0,266.0 430.2,266.0 431.4,233.2 432.5,141.7 433.7,76.4 434.9,54.0 436.1,54.0 437.3,54.0 438.5,54.0 439.7,54.0 440.9,54.0 442.0,54.0 443.2,54.0 444.4,266.0 445.6,266.0 446.8,266.0 448.0,266.0 449.2,266.0 450.3,266.0 451.5,266.0 452.7,54.0 453.9,54.0 455.1,54.0 456.3,54.0 457.5,54.0 458.7,54.0 459.8,54.0 461.0,54.0 462.2,59.5 463.4,110.7 464.6,172.3 465.8,230.5 467.0,266.0 468.1,266.0 469.3,266.0 470.5,266.0 471.7,266.0 472.9,266.0 474.1,261.4 475.3,210.9 476.5,145.5 477.6,85.7 478.8,54.0 480.0,54.0 481.2,54.0 482.4,54.0 483.6,54.0 484.8,54.0 485.9,54.0 487.1,73.6 488.3,157.7 489.5,246.0 490.7,266.0 491.9,266.0 493.1,266.0 494.3,266.0 495.4,266.0 496.6,266.0 497.8,266.0 499.0,235.4 500.2,175.0 501.4,112.5 502.6,63.1 503.7,54.0 504.9,54.0 506.1,54.0 507.3,54.0 508.5,54.0 509.7,54.0 510.9,54.0 512.1,54.0 513.2,266.0 514.4,266.0 515.6,266.0 516.8,266.0 518.0,266.0 519.2,266.0 520.4,266.0 521.5,266.0 522.7,266.0 523.9,266.0 525.1,54.0 526.3,54.0 527.5,54.0 528.7,54.0 529.9,54.0 531.0,54.0 532.2,54.0 533.4,54.0 534.6,59.6 535.8,136.3 537.0,195.4 538.2,233.8 539.3,259.0 540.5,266.0 541.7,266.0 542.9,266.0 544.1,266.0 545.3,54.0 546.5,54.0 547.7,54.0 548.8,54.0 550.0,54.0 551.2,54.0 552.4,54.0 553.6,54.0 554.8,54.0 556.0,54.0 557.1,106.0 558.3,158.8 559.5,186.0 560.7,197.3 561.9,196.8 563.1,184.0 564.3,148.3 565.5,74.8 566.6,54.0 567.8,54.0 569.0,54.0 570.2,54.0 571.4,54.0 572.6,54.0 573.8,54.0 574.9,54.0 576.1,54.0 577.3,54.0 578.5,54.0 579.7,64.9 580.9,137.2 582.1,180.1 583.3,202.7 584.4,209.5 585.6,205.5 586.8,187.3 588.0,147.2 589.2,72.0 590.4,54.0 591.6,54.0 592.7,54.0 593.9,54.0 595.1,54.0 596.3,54.0 597.5,54.0 598.7,54.0 599.9,54.0 601.1,54.0 602.2,54.0 603.4,266.0 604.6,266.0 605.8,266.0 607.0,266.0 608.2,266.0 609.4,266.0 610.5,255.3 611.7,211.8 612.9,149.6 614.1,78.8 615.3,54.0 616.5,54.0 617.7,54.0 618.9,54.0 620.0,54.0 621.2,54.0 622.4,54.0 623.6,54.0 624.8,54.0 626.0,266.0 627.2,266.0 628.3,266.0 629.5,266.0 630.7,266.0 631.9,266.0 633.1,266.0 634.3,266.0 635.5,266.0 636.7,234.7 637.8,153.4 639.0,90.9 640.2,54.0 641.4,54.0 642.6,54.0 643.8,54.0 645.0,54.0 646.1,54.0 647.3,54.0 648.5,266.0 649.7,266.0 650.9,266.0 652.1,266.0 653.3,266.0 654.5,266.0 655.6,266.0 656.8,266.0 658.0,54.0 659.2,54.0 660.4,54.0 661.6,54.0 662.8,54.0 663.9,54.0 665.1,54.0 666.3,54.0 667.5,54.0 668.7,101.5 669.9,187.6 671.1,266.0 672.3,266.0 673.4,266.0 674.6,266.0 675.8,266.0 677.0,266.0 678.2,266.0 679.4,266.0 680.6,266.0 681.7,263.5 682.9,148.6 684.1,59.4 685.3,54.0 686.5,54.0 687.7,54.0 688.9,54.0 690.1,54.0 691.2,54.0 692.4,54.0 693.6,54.0 694.8,54.0 696.0,258.7 697.2,266.0 698.4,266.0 699.5,266.0 700.7,266.0 701.9,266.0 703.1,266.0 704.3,266.0 705.5,266.0 706.7,266.0 707.9,266.0 709.0,54.0 710.2,54.0 711.4,54.0 712.6,54.0 713.8,54.0 715.0,54.0 716.2,54.0 717.3,54.0 718.5,58.3 719.7,210.6 720.9,265.7 722.1,266.0 723.3,266.0 724.5,266.0 725.7,266.0 726.8,266.0 728.0,266.0 729.2,266.0 730.4,54.0 731.6,54.0 732.8,54.0 734.0,54.0 735.1,54.0 736.3,54.0 737.5,54.0 738.7,54.0 739.9,54.0 741.1,247.0 742.3,266.0 743.5,266.0 744.6,266.0 745.8,266.0 747.0,266.0 748.2,266.0 749.4,266.0 750.6,266.0 751.8,54.0 752.9,54.0 754.1,54.0 755.3,54.0 756.5,54.0 757.7,54.0 758.9,54.0 760.1,54.0 761.3,54.0 762.4,54.0 763.6,54.0 764.8,54.0 766.0,54.0"/>
<line x1="606" y1="42" x2="628" y2="42" stroke="#0f62fe" stroke-width="2.2"/>
<text x="634" y="46" font-family="Arial" font-size="12">alpha_deg</text>
<polyline fill="none" stroke="#24a148" stroke-width="2.2" points="54.0,179.9 55.2,179.5 56.4,178.7 57.6,176.6 58.7,175.1 59.9,173.1 61.1,170.7 62.3,167.1 63.5,163.0 64.7,160.0 65.9,155.8 67.1,151.7 68.2,148.0 69.4,143.2 70.6,138.1 71.8,133.8 73.0,130.3 74.2,126.3 75.4,120.8 76.5,116.4 77.7,112.7 78.9,108.3 80.1,105.5 81.3,102.3 82.5,100.4 83.7,99.2 84.9,98.4 86.0,99.0 87.2,100.3 88.4,101.6 89.6,103.3 90.8,106.2 92.0,110.7 93.2,114.8 94.3,119.9 95.5,126.2 96.7,133.2 97.9,140.7 99.1,148.0 100.3,156.9 101.5,165.2 102.7,173.8 103.8,180.8 105.0,188.4 106.2,194.5 107.4,200.6 108.6,204.6 109.8,208.9 111.0,210.5 112.1,210.3 113.3,209.0 114.5,205.8 115.7,201.7 116.9,196.3 118.1,189.1 119.3,182.7 120.5,176.8 121.6,172.6 122.8,170.9 124.0,171.7 125.2,177.2 126.4,187.4 127.6,201.3 128.8,219.9 129.9,243.6 131.1,250.9 132.3,250.9 133.5,250.9 134.7,250.9 135.9,250.9 137.1,250.9 138.3,250.9 139.4,250.9 140.6,250.9 141.8,250.9 143.0,239.7 144.2,229.2 145.4,228.7 146.6,237.0 147.7,250.9 148.9,250.9 150.1,250.9 151.3,250.9 152.5,250.9 153.7,250.9 154.9,250.9 156.1,250.9 157.2,250.9 158.4,240.3 159.6,230.6 160.8,228.2 162.0,233.1 163.2,242.9 164.4,250.9 165.5,250.9 166.7,250.9 167.9,250.9 169.1,250.9 170.3,250.9 171.5,250.5 172.7,241.3 173.9,237.0 175.0,238.9 176.2,247.6 177.4,250.9 178.6,250.9 179.8,250.9 181.0,250.9 182.2,250.9 183.3,250.9 184.5,250.9 185.7,250.9 186.9,227.4 188.1,204.5 189.3,188.5 190.5,182.5 191.7,188.0 192.8,205.4 194.0,232.2 195.2,250.9 196.4,250.9 197.6,250.9 198.8,250.9 200.0,250.9 201.1,250.9 202.3,250.9 203.5,250.9 204.7,213.7 205.9,181.8 207.1,161.0 208.3,155.9 209.5,166.9 210.6,192.7 211.8,228.0 213.0,250.9 214.2,250.9 215.4,250.9 216.6,250.9 217.8,250.9 218.9,250.9 220.1,250.9 221.3,250.9 222.5,206.3 223.7,164.7 224.9,132.2 226.1,113.5 227.3,113.1 228.4,130.5 229.6,162.3 230.8,203.1 232.0,247.9 233.2,250.9 234.4,250.9 235.6,250.9 236.7,250.9 237.9,250.9 239.1,250.9 240.3,250.9 241.5,226.4 242.7,192.7 243.9,161.1 245.1,133.1 246.2,111.9 247.4,101.4 248.6,105.0 249.8,123.5 251.0,152.2 252.2,186.3 253.4,219.8 254.5,247.0 255.7,250.9 256.9,250.9 258.1,250.9 259.3,240.0 260.5,215.7 261.7,189.1 262.9,161.3 264.0,134.7 265.2,110.6 266.4,89.1 267.6,70.7 268.8,69.1 270.0,69.1 271.2,69.1 272.3,69.1 273.5,69.1 274.7,89.5 275.9,118.6 277.1,154.5 278.3,194.5 279.5,235.8 280.7,250.9 281.8,250.9 283.0,250.9 284.2,250.9 285.4,250.9 286.6,237.6 287.8,192.3 289.0,147.1 290.1,104.5 291.3,69.1 292.5,69.1 293.7,69.1 294.9,69.1 296.1,69.1 297.3,86.7 298.5,125.1 299.6,166.2 300.8,208.5 302.0,250.9 303.2,250.9 304.4,250.9 305.6,250.9 306.8,250.9 307.9,250.9 309.1,250.9 310.3,238.3 311.5,186.0 312.7,133.3 313.9,81.6 315.1,69.1 316.3,69.1 317.4,69.1 318.6,69.1 319.8,69.1 321.0,69.1 322.2,69.1 323.4,88.4 324.6,129.1 325.7,166.9 326.9,198.7 328.1,222.0 329.3,237.3 330.5,241.5 331.7,234.7 332.9,216.1 334.1,188.3 335.2,154.4 336.4,115.3 337.6,73.7 338.8,69.1 340.0,69.1 341.2,69.1 342.4,69.1 343.5,69.1 344.7,69.1 345.9,69.1 347.1,121.4 348.3,177.3 349.5,232.9 350.7,250.9 351.9,250.9 353.0,250.9 354.2,250.9 355.4,250.9 356.6,250.9 357.8,250.9 359.0,248.3 360.2,207.9 361.3,168.3 362.5,129.9 363.7,93.9 364.9,69.1 366.1,69.1 367.3,69.1 368.5,69.1 369.7,73.3 370.8,113.3 372.0,159.8 373.2,209.6 374.4,250.9 375.6,250.9 376.8,250.9 378.0,250.9 379.1,250.9 380.3,250.9 381.5,250.9 382.7,250.9 383.9,215.4 385.1,176.0 386.3,137.3 387.5,98.8 388.6,69.1 389.8,69.1 391.0,69.1 392.2,69.1 393.4,69.1 394.6,69.1 395.8,69.1 396.9,69.1 398.1,106.8 399.3,159.4 400.5,211.1 401.7,250.9 402.9,250.9 404.1,250.9 405.3,250.9 406.4,250.9 407.6,250.9 408.8,250.9 410.0,235.1 411.2,195.3 412.4,155.3 413.6,117.9 414.7,82.1 415.9,69.1 417.1,69.1 418.3,69.1 419.5,69.1 420.7,69.1 421.9,69.1 423.1,69.1 424.2,89.1 425.4,134.2 426.6,179.8 427.8,225.7 429.0,250.9 430.2,250.9 431.4,250.9 432.5,250.9 433.7,250.9 434.9,224.4 436.1,174.8 437.3,124.4 438.5,73.9 439.7,69.1 440.9,69.1 442.0,69.1 443.2,69.1 444.4,69.1 445.6,69.1 446.8,105.7 448.0,158.1 449.2,209.0 450.3,250.9 451.5,250.9 452.7,250.9 453.9,250.9 455.1,250.9 456.3,250.9 457.5,236.6 458.7,188.7 459.8,142.3 461.0,99.6 462.2,69.1 463.4,69.1 464.6,69.1 465.8,69.1 467.0,69.1 468.1,89.6 469.3,128.7 470.5,170.6 471.7,212.3 472.9,250.7 474.1,250.9 475.3,250.9 476.5,250.9 477.6,250.9 478.8,250.9 480.0,229.4 481.2,189.4 482.4,146.4 483.6,104.2 484.8,69.1 485.9,69.1 487.1,69.1 488.3,69.1 489.5,69.1 490.7,69.1 491.9,69.1 493.1,95.6 494.3,139.6 495.4,183.4 496.6,225.7 497.8,250.9 499.0,250.9 500.2,250.9 501.4,250.9 502.6,250.9 503.7,229.5 504.9,190.7 506.1,149.3 507.3,104.1 508.5,69.1 509.7,69.1 510.9,69.1 512.1,69.1 513.2,69.1 514.4,69.1 515.6,69.1 516.8,69.1 518.0,105.1 519.2,151.7 520.4,195.7 521.5,237.5 522.7,250.9 523.9,250.9 525.1,250.9 526.3,250.9 527.5,250.9 528.7,222.3 529.9,176.7 531.0,130.7 532.2,88.8 533.4,69.1 534.6,69.1 535.8,69.1 537.0,80.8 538.2,125.8 539.3,178.2 540.5,234.9 541.7,250.9 542.9,250.9 544.1,250.9 545.3,250.9 546.5,250.9 547.7,250.9 548.8,241.9 550.0,191.2 551.2,142.2 552.4,93.0 553.6,69.1 554.8,69.1 556.0,69.1 557.1,69.1 558.3,69.1 559.5,112.7 560.7,166.2 561.9,219.5 563.1,250.9 564.3,250.9 565.5,250.9 566.6,250.9 567.8,250.9 569.0,250.9 570.2,245.5 571.4,205.5 572.6,166.2 573.8,127.1 574.9,89.2 576.1,69.1 577.3,69.1 578.5,69.1 579.7,69.1 580.9,69.1 582.1,69.1 583.3,108.5 584.4,162.7 585.6,216.6 586.8,250.9 588.0,250.9 589.2,250.9 590.4,250.9 591.6,250.9 592.7,250.9 593.9,224.4 595.1,180.2 596.3,136.1 597.5,92.6 598.7,69.1 599.9,69.1 601.1,69.1 602.2,69.1 603.4,69.1 604.6,69.1 605.8,69.1 607.0,86.9 608.2,139.1 609.4,188.2 610.5,232.6 611.7,250.9 612.9,250.9 614.1,250.9 615.3,250.9 616.5,228.6 617.7,186.9 618.9,142.6 620.0,95.4 621.2,69.1 622.4,69.1 623.6,69.1 624.8,69.1 626.0,69.1 627.2,69.1 628.3,69.1 629.5,71.2 630.7,118.3 631.9,164.8 633.1,211.2 634.3,250.9 635.5,250.9 636.7,250.9 637.8,250.9 639.0,250.9 640.2,212.7 641.4,163.6 642.6,111.3 643.8,69.1 645.0,69.1 646.1,69.1 647.3,69.1 648.5,69.1 649.7,69.1 650.9,72.7 652.1,125.5 653.3,179.2 654.5,230.6 655.6,250.9 656.8,250.9 658.0,250.9 659.2,250.9 660.4,250.9 661.6,250.9 662.8,233.4 663.9,182.9 665.1,133.5 666.3,84.2 667.5,69.1 668.7,69.1 669.9,69.1 671.1,69.1 672.3,69.1 673.4,69.1 674.6,107.4 675.8,153.4 677.0,199.3 678.2,245.4 679.4,250.9 680.6,250.9 681.7,250.9 682.9,250.9 684.1,250.9 685.3,250.9 686.5,250.9 687.7,213.4 688.9,167.6 690.1,121.1 691.2,73.1 692.4,69.1 693.6,69.1 694.8,69.1 696.0,69.1 697.2,69.1 698.4,69.1 699.5,69.1 700.7,82.7 701.9,127.3 703.1,167.9 704.3,204.5 705.5,233.5 706.7,250.9 707.9,250.9 709.0,248.6 710.2,226.5 711.4,195.3 712.6,155.8 713.8,109.9 715.0,69.1 716.2,69.1 717.3,69.1 718.5,69.1 719.7,69.1 720.9,69.1 722.1,84.2 723.3,147.9 724.5,209.9 725.7,250.9 726.8,250.9 728.0,250.9 729.2,250.9 730.4,250.9 731.6,250.9 732.8,231.3 734.0,182.1 735.1,132.2 736.3,82.6 737.5,69.1 738.7,69.1 739.9,69.1 741.1,69.1 742.3,69.1 743.5,69.1 744.6,92.9 745.8,153.2 747.0,213.2 748.2,250.9 749.4,250.9 750.6,250.9 751.8,250.9 752.9,250.9 754.1,250.9 755.3,250.9 756.5,250.6 757.7,210.6 758.9,172.8 760.1,134.2 761.3,95.2 762.4,69.1 763.6,69.1 764.8,69.1 766.0,69.1"/>
<line x1="606" y1="60" x2="628" y2="60" stroke="#24a148" stroke-width="2.2"/>
<text x="634" y="64" font-family="Arial" font-size="12">beta_deg</text>
</svg>