<svg xmlns="http://www.w3.org/2000/svg" width="820" height="320" viewBox="0 0 820 320">
<rect width="100%" height="100%" fill="#ffffff"/>
<text x="54" y="28" font-family="Arial" font-size="18" font-weight="700">Mach Number</text>
<line x1="54" y1="266" x2="766" y2="266" stroke="#1f2933"/>
<line x1="54" y1="54" x2="54" y2="266" stroke="#1f2933"/>
<text x="54" y="306" font-family="Arial" font-size="12">time (s)</text>
<text x="596" y="306" font-family="Arial" font-size="12">Mach</text>
<text x="58" y="68" font-family="Arial" font-size="11">0.358</text>
<text x="58" y="260" font-family="Arial" font-size="11">0.195</text>
<polyline fill="none" stroke="#0f62fe" stroke-width="2.2" points="54.0,183.8 55.2,180.6 56.4,181.1 57.6,179.0 58.7,176.8 59.9,175.5 61.1,172.9 62.3,172.5 63.5,169.8 64.7,167.9 65.9,165.7 67.1,162.5 68.2,159.1 69.4,158.0 70.6,153.3 71.8,151.4 73.0,150.0 74.2,147.2 75.4,144.3 76.5,143.2 77.7,140.2 78.9,135.9 80.1,134.4 81.3,134.2 82.5,131.7 83.7,129.9 84.9,127.1 86.0,124.0 87.2,122.5 88.4,120.6 89.6,117.6 90.8,115.0 92.0,113.0 93.2,112.2 94.3,109.4 95.5,107.5 96.7,104.6 97.9,101.6 99.1,98.4 100.3,95.7 101.5,94.2 102.7,92.7 103.8,92.7 105.0,90.1 106.2,86.3 107.4,84.2 108.6,82.6 109.8,79.7 111.0,77.3 112.1,75.4 113.3,73.1 114.5,70.2 115.7,67.6 116.9,67.2 118.1,64.5 119.3,61.5 120.5,59.9 121.6,57.6 122.8,54.8 124.0,54.0 125.2,56.5 126.4,57.2 127.6,57.5 128.8,59.4 129.9,60.0 131.1,62.2 132.3,63.2 133.5,64.2 134.7,66.8 135.9,68.7 137.1,71.0 138.3,72.6 139.4,73.5 140.6,76.6 141.8,77.6 143.0,78.0 144.2,77.7 145.4,76.4 146.6,75.2 147.7,73.5 148.9,74.2 150.1,75.2 151.3,76.4 152.5,76.9 153.7,76.7 154.9,76.6 156.1,76.9 157.2,79.2 158.4,80.8 159.6,81.1 160.8,83.1 162.0,83.5 163.2,81.4 164.4,80.7 165.5,80.9 166.7,81.3 167.9,81.8 169.1,83.8 170.3,85.3 171.5,84.9 172.7,88.1 173.9,90.6 175.0,90.5 176.2,90.8 177.4,91.2 178.6,88.7 179.8,88.8 181.0,89.6 182.2,90.0 183.3,92.4 184.5,94.2 185.7,95.5 186.9,96.2 188.1,97.2 189.3,98.8 190.5,99.5 191.7,100.8 192.8,101.0 194.0,102.0 195.2,101.6 196.4,102.9 197.6,101.0 198.8,100.0 200.0,99.0 201.1,99.1 202.3,98.8 203.5,102.7 204.7,105.0 205.9,106.9 207.1,109.4 208.3,110.5 209.5,109.8 210.6,107.4 211.8,105.4 213.0,105.0 214.2,105.1 215.4,102.4 216.6,102.4 217.8,102.0 218.9,104.0 220.1,106.7 221.3,110.7 222.5,113.0 223.7,117.7 224.9,120.9 226.1,122.6 227.3,122.8 228.4,123.9 229.6,123.5 230.8,121.4 232.0,119.9 233.2,119.5 234.4,118.1 235.6,118.4 236.7,118.9 237.9,121.0 239.1,122.8 240.3,126.3 241.5,130.0 242.7,133.4 243.9,137.6 245.1,142.8 246.2,145.3 247.4,148.8 248.6,147.9 249.8,151.0 251.0,152.1 252.2,151.8 253.4,149.7 254.5,147.3 255.7,145.4 256.9,143.8 258.1,142.2 259.3,143.6 260.5,145.8 261.7,145.9 262.9,149.5 264.0,153.0 265.2,155.9 266.4,159.3 267.6,163.0 268.8,164.7 270.0,167.7 271.2,172.3 272.3,174.7 273.5,177.2 274.7,178.5 275.9,181.7 277.1,182.3 278.3,184.0 279.5,186.4 280.7,188.3 281.8,188.1 283.0,186.9 284.2,185.0 285.4,183.6 286.6,182.4 287.8,182.2 289.0,182.4 290.1,181.0 291.3,181.3 292.5,182.6 293.7,183.9 294.9,186.3 296.1,189.0 297.3,191.7 298.5,194.0 299.6,197.8 300.8,200.2 302.0,202.1 303.2,205.0 304.4,206.1 305.6,207.6 306.8,208.5 307.9,208.8 309.1,206.9 310.3,208.6 311.5,208.0 312.7,207.3 313.9,205.5 315.1,204.6 316.3,205.2 317.4,205.1 318.6,205.8 319.8,205.0 321.0,205.7 322.2,206.0 323.4,208.3 324.6,210.9 325.7,212.0 326.9,214.6 328.1,216.6 329.3,219.6 330.5,221.7 331.7,224.5 332.9,228.6 334.1,230.6 335.2,232.3 336.4,233.2 337.6,234.0 338.8,235.6 340.0,236.3 341.2,237.3 342.4,237.6 343.5,239.0 344.7,239.6 345.9,239.4 347.1,238.8 348.3,238.0 349.5,236.1 350.7,233.1 351.9,231.5 353.0,231.5 354.2,231.1 355.4,231.0 356.6,233.3 357.8,234.0 359.0,234.4 360.2,236.3 361.3,239.6 362.5,239.4 363.7,239.0 364.9,240.0 366.1,241.0 367.3,239.7 368.5,240.1 369.7,237.8 370.8,235.4 372.0,233.6 373.2,231.7 374.4,229.8 375.6,229.5 376.8,228.4 378.0,228.5 379.1,228.5 380.3,230.2 381.5,230.6 382.7,231.4 383.9,232.3 385.1,234.5 386.3,237.1 387.5,239.1 388.6,242.0 389.8,244.1 391.0,246.3 392.2,247.3 393.4,247.8 394.6,246.8 395.8,247.6 396.9,248.2 398.1,246.0 399.3,244.7 400.5,242.3 401.7,239.2 402.9,236.5 404.1,236.2 405.3,236.9 406.4,235.7 407.6,236.7 408.8,236.3 410.0,237.0 411.2,239.7 412.4,239.4 413.6,241.9 414.7,242.9 415.9,244.8 417.1,245.6 418.3,248.3 419.5,250.0 420.7,252.0 421.9,252.7 423.1,254.1 424.2,256.3 425.4,256.5 426.6,257.1 427.8,256.3 429.0,255.4 430.2,254.2 431.4,255.3 432.5,253.1 433.7,250.7 434.9,249.6 436.1,247.7 437.3,247.2 438.5,245.5 439.7,246.1 440.9,246.6 442.0,246.4 443.2,246.8 444.4,248.7 445.6,252.5 446.8,255.0 448.0,256.3 449.2,259.1 450.3,260.6 451.5,261.4 452.7,263.3 453.9,264.8 455.1,265.8 456.3,266.0 457.5,265.1 458.7,264.9 459.8,263.9 461.0,263.0 462.2,262.0 463.4,260.1 464.6,256.9 465.8,254.1 467.0,250.9 468.1,249.7 469.3,248.9 470.5,247.5 471.7,246.5 472.9,244.5 474.1,243.5 475.3,242.3 476.5,240.1 477.6,237.4 478.8,236.3 480.0,233.8 481.2,231.4 482.4,229.8 483.6,227.4 484.8,225.5 485.9,223.5 487.1,223.0 488.3,221.4 489.5,220.0 490.7,218.8 491.9,217.5 493.1,216.6 494.3,215.2 495.4,213.1 496.6,210.7 497.8,208.5 499.0,207.3 500.2,207.1 501.4,205.6 502.6,203.7 503.7,202.6 504.9,201.8 506.1,201.1 507.3,200.1 508.5,199.1 509.7,198.1 510.9,198.6 512.1,197.4 513.2,197.8 514.4,196.5 515.6,197.2 516.8,197.8 518.0,198.7 519.2,199.9 520.4,201.9 521.5,203.4 522.7,205.1 523.9,206.8 525.1,209.0 526.3,210.4 527.5,214.5 528.7,216.1 529.9,218.2 531.0,219.7 532.2,219.4 533.4,219.2 534.6,218.8 535.8,217.4 537.0,214.1 538.2,211.5 539.3,209.5 540.5,206.8 541.7,203.7 542.9,202.8 544.1,201.5 545.3,202.3 546.5,204.3 547.7,205.0 548.8,206.8 550.0,208.1 551.2,209.4 552.4,211.6 553.6,213.2 554.8,215.7 556.0,214.6 557.1,214.3 558.3,210.3 559.5,207.2 560.7,203.8 561.9,200.6 563.1,198.4 564.3,195.8 565.5,193.0 566.6,193.7 567.8,194.2 569.0,194.8 570.2,197.2 571.4,197.1 572.6,197.2 573.8,196.7 574.9,198.1 576.1,199.2 577.3,200.3 578.5,201.7 579.7,202.6 580.9,202.8 582.1,203.2 583.3,202.6 584.4,203.2 585.6,203.3 586.8,202.8 588.0,201.9 589.2,202.4 590.4,203.7 591.6,205.5 592.7,205.4 593.9,205.9 595.1,205.8 596.3,205.8 597.5,207.2 598.7,207.9 599.9,207.8 601.1,208.6 602.2,210.0 603.4,209.0 604.6,209.2 605.8,208.7 607.0,208.5 608.2,208.2 609.4,209.6 610.5,210.2 611.7,209.3 612.9,210.2 614.1,209.9 615.3,212.3 616.5,213.1 617.7,214.7 618.9,214.9 620.0,215.4 621.2,216.7 622.4,217.8 623.6,217.7 624.8,218.3 626.0,218.3 627.2,218.1 628.3,217.1 629.5,218.6 630.7,218.3 631.9,218.1 633.1,218.3 634.3,218.5 635.5,218.0 636.7,217.5 637.8,216.9 639.0,217.3 640.2,217.1 641.4,218.5 642.6,220.4 643.8,220.8 645.0,219.6 646.1,219.8 647.3,220.8 648.5,219.8 649.7,220.1 650.9,220.1 652.1,220.3 653.3,220.8 654.5,220.7 655.6,220.4 656.8,221.4 658.0,220.5 659.2,221.2 660.4,221.6 661.6,221.8 662.8,222.6 663.9,223.2 665.1,222.4 666.3,223.9 667.5,223.6 668.7,222.7 669.9,222.5 671.1,222.5 672.3,222.7 673.4,222.5 674.6,222.7 675.8,223.1 677.0,223.2 678.2,224.3 679.4,224.0 680.6,225.0 681.7,224.4 682.9,223.9 684.1,223.3 685.3,223.8 686.5,224.9 687.7,225.4 688.9,224.6 690.1,225.1 691.2,224.4 692.4,225.0 693.6,225.0 694.8,225.2 696.0,225.0 697.2,225.3 698.4,226.7 699.5,226.0 700.7,225.0 701.9,226.3 703.1,226.2 704.3,226.4 705.5,227.4 706.7,227.0 707.9,226.1 709.0,224.4 710.2,223.5 711.4,223.4 712.6,223.3 713.8,224.4 715.0,225.2 716.2,226.1 717.3,226.6 718.5,228.2 719.7,229.3 720.9,229.4 722.1,229.1 723.3,228.8 724.5,227.5 725.7,227.8 726.8,227.7 728.0,227.7 729.2,228.2 730.4,227.9 731.6,229.4 732.8,229.6 734.0,229.4 735.1,228.4 736.3,228.2 737.5,227.9 738.7,226.9 739.9,227.1 741.1,227.4 742.3,227.5 743.5,227.1 744.6,227.3 745.8,226.7 747.0,226.8 748.2,227.2 749.4,228.1 750.6,228.8 751.8,230.0 752.9,230.3 754.1,231.9 755.3,231.3 756.5,232.0 757.7,232.1 758.9,233.1 760.1,233.5 761.3,234.0 762.4,234.9 763.6,236.0 764.8,235.6 766.0,237.1"/>
<line x1="606" y1="42" x2="628" y2="42" stroke="#0f62fe" stroke-width="2.2"/>
<text x="634" y="46" font-family="Arial" font-size="12">mach</text>
</svg>