<svg xmlns="http://www.w3.org/2000/svg" width="820" height="320" viewBox="0 0 820 320">
<rect width="100%" height="100%" fill="#ffffff"/>
<text x="54" y="28" font-family="Arial" font-size="18" font-weight="700">Downrange Position</text>
<line x1="54" y1="266" x2="766" y2="266" stroke="#1f2933"/>
<line x1="54" y1="54" x2="54" y2="266" stroke="#1f2933"/>
<text x="54" y="306" font-family="Arial" font-size="12">time (s)</text>
<text x="596" y="306" font-family="Arial" font-size="12">x (m)</text>
<text x="58" y="68" font-family="Arial" font-size="11">2.05e+03</text>
<text x="58" y="260" font-family="Arial" font-size="11">0</text>
<polyline fill="none" stroke="#0f62fe" stroke-width="2.2" points="54.0,266.0 55.2,265.7 56.4,265.5 57.6,265.2 58.7,264.9 59.9,264.7 61.1,264.4 62.3,264.1 63.5,263.9 64.7,263.6 65.9,263.3 67.1,263.0 68.2,262.7 69.4,262.5 70.6,262.2 71.8,261.9 73.0,261.6 74.2,261.3 75.4,261.0 76.5,260.7 77.7,260.4 78.9,260.1 80.1,259.8 81.3,259.5 82.5,259.2 83.7,258.9 84.9,258.6 86.0,258.3 87.2,258.0 88.4,257.7 89.6,257.4 90.8,257.1 92.0,256.7 93.2,256.4 94.3,256.1 95.5,255.8 96.7,255.4 97.9,255.1 99.1,254.8 100.3,254.5 101.5,254.1 102.7,253.8 103.8,253.5 105.0,253.1 106.2,252.8 107.4,252.4 108.6,252.1 109.8,251.8 111.0,251.4 112.1,251.1 113.3,250.7 114.5,250.4 115.7,250.0 116.9,249.7 118.1,249.3 119.3,248.9 120.5,248.6 121.6,248.2 122.8,247.9 124.0,247.5 125.2,247.1 126.4,246.8 127.6,246.4 128.8,246.0 129.9,245.6 131.1,245.3 132.3,244.9 133.5,244.5 134.7,244.1 135.9,243.8 137.1,243.4 138.3,243.0 139.4,242.6 140.6,242.2 141.8,241.8 143.0,241.4 144.2,241.0 145.4,240.6 146.6,240.2 147.7,239.8 148.9,239.5 150.1,239.0 151.3,238.6 152.5,238.2 153.7,237.8 154.9,237.4 156.1,237.0 157.2,236.6 158.4,236.2 159.6,235.8 160.8,235.4 162.0,235.0 163.2,234.5 164.4,234.1 165.5,233.7 166.7,233.3 167.9,232.9 169.1,232.4 170.3,232.0 171.5,231.6 172.7,231.2 173.9,230.7 175.0,230.3 176.2,229.9 177.4,229.4 178.6,229.0 179.8,228.5 181.0,228.1 182.2,227.7 183.3,227.2 184.5,226.8 185.7,226.3 186.9,225.9 188.1,225.4 189.3,225.0 190.5,224.5 191.7,224.1 192.8,223.6 194.0,223.2 195.2,222.7 196.4,222.3 197.6,221.8 198.8,221.3 200.0,220.9 201.1,220.4 202.3,219.9 203.5,219.5 204.7,219.0 205.9,218.5 207.1,218.1 208.3,217.6 209.5,217.1 210.6,216.6 211.8,216.2 213.0,215.7 214.2,215.2 215.4,214.7 216.6,214.2 217.8,213.7 218.9,213.3 220.1,212.8 221.3,212.3 222.5,211.8 223.7,211.3 224.9,210.8 226.1,210.3 227.3,209.8 228.4,209.3 229.6,208.8 230.8,208.3 232.0,207.8 233.2,207.3 234.4,206.8 235.6,206.3 236.7,205.8 237.9,205.3 239.1,204.8 240.3,204.2 241.5,203.7 242.7,203.2 243.9,202.7 245.1,202.2 246.2,201.7 247.4,201.1 248.6,200.6 249.8,200.1 251.0,199.6 252.2,199.0 253.4,198.5 254.5,198.0 255.7,197.5 256.9,196.9 258.1,196.4 259.3,195.9 260.5,195.3 261.7,194.8 262.9,194.2 264.0,193.7 265.2,193.2 266.4,192.6 267.6,192.1 268.8,191.5 270.0,191.0 271.2,190.4 272.3,189.9 273.5,189.3 274.7,188.8 275.9,188.2 277.1,187.7 278.3,187.1 279.5,186.6 280.7,186.0 281.8,185.5 283.0,184.9 284.2,184.3 285.4,183.8 286.6,183.2 287.8,182.7 289.0,182.1 290.1,181.5 291.3,181.0 292.5,180.4 293.7,179.8 294.9,179.3 296.1,178.7 297.3,178.1 298.5,177.5 299.6,177.0 300.8,176.4 302.0,175.8 303.2,175.2 304.4,174.7 305.6,174.1 306.8,173.5 307.9,172.9 309.1,172.3 310.3,171.8 311.5,171.2 312.7,170.6 313.9,170.0 315.1,169.4 316.3,168.8 317.4,168.3 318.6,167.7 319.8,167.1 321.0,166.5 322.2,165.9 323.4,165.3 324.6,164.7 325.7,164.2 326.9,163.6 328.1,163.0 329.3,162.4 330.5,161.8 331.7,161.2 332.9,160.6 334.1,160.0 335.2,159.5 336.4,158.9 337.6,158.3 338.8,157.7 340.0,157.1 341.2,156.6 342.4,156.0 343.5,155.4 344.7,154.8 345.9,154.3 347.1,153.7 348.3,153.1 349.5,152.6 350.7,152.0 351.9,151.4 353.0,150.9 354.2,150.3 355.4,149.8 356.6,149.2 357.8,148.7 359.0,148.1 360.2,147.6 361.3,147.1 362.5,146.5 363.7,146.0 364.9,145.5 366.1,145.0 367.3,144.4 368.5,143.9 369.7,143.4 370.8,142.9 372.0,142.4 373.2,141.9 374.4,141.4 375.6,140.9 376.8,140.4 378.0,139.9 379.1,139.5 380.3,139.0 381.5,138.5 382.7,138.0 383.9,137.6 385.1,137.1 386.3,136.7 387.5,136.2 388.6,135.7 389.8,135.3 391.0,134.9 392.2,134.4 393.4,134.0 394.6,133.6 395.8,133.1 396.9,132.7 398.1,132.3 399.3,131.9 400.5,131.4 401.7,131.0 402.9,130.6 404.1,130.2 405.3,129.8 406.4,129.4 407.6,129.0 408.8,128.7 410.0,128.3 411.2,127.9 412.4,127.5 413.6,127.1 414.7,126.8 415.9,126.4 417.1,126.0 418.3,125.7 419.5,125.3 420.7,124.9 421.9,124.6 423.1,124.2 424.2,123.9 425.4,123.5 426.6,123.2 427.8,122.9 429.0,122.5 430.2,122.2 431.4,121.9 432.5,121.5 433.7,121.2 434.9,120.9 436.1,120.6 437.3,120.3 438.5,119.9 439.7,119.6 440.9,119.3 442.0,119.0 443.2,118.7 444.4,118.4 445.6,118.1 446.8,117.8 448.0,117.5 449.2,117.2 450.3,117.0 451.5,116.7 452.7,116.4 453.9,116.1 455.1,115.8 456.3,115.5 457.5,115.2 458.7,114.9 459.8,114.6 461.0,114.3 462.2,114.0 463.4,113.7 464.6,113.4 465.8,113.1 467.0,112.8 468.1,112.5 469.3,112.2 470.5,112.0 471.7,111.7 472.9,111.4 474.1,111.1 475.3,110.8 476.5,110.5 477.6,110.2 478.8,109.9 480.0,109.6 481.2,109.3 482.4,109.0 483.6,108.7 484.8,108.4 485.9,108.1 487.1,107.8 488.3,107.5 489.5,107.2 490.7,106.9 491.9,106.6 493.1,106.3 494.3,106.0 495.4,105.6 496.6,105.3 497.8,105.0 499.0,104.7 500.2,104.4 501.4,104.0 502.6,103.7 503.7,103.4 504.9,103.1 506.1,102.8 507.3,102.4 508.5,102.1 509.7,101.8 510.9,101.5 512.1,101.1 513.2,100.8 514.4,100.5 515.6,100.2 516.8,99.9 518.0,99.5 519.2,99.2 520.4,98.9 521.5,98.6 522.7,98.2 523.9,97.9 525.1,97.6 526.3,97.3 527.5,96.9 528.7,96.6 529.9,96.3 531.0,96.0 532.2,95.6 533.4,95.3 534.6,95.0 535.8,94.7 537.0,94.4 538.2,94.1 539.3,93.7 540.5,93.4 541.7,93.1 542.9,92.8 544.1,92.5 545.3,92.2 546.5,91.9 547.7,91.6 548.8,91.3 550.0,91.0 551.2,90.7 552.4,90.4 553.6,90.1 554.8,89.9 556.0,89.6 557.1,89.3 558.3,89.0 559.5,88.7 560.7,88.4 561.9,88.2 563.1,87.9 564.3,87.6 565.5,87.3 566.6,87.1 567.8,86.8 569.0,86.5 570.2,86.3 571.4,86.0 572.6,85.7 573.8,85.5 574.9,85.2 576.1,85.0 577.3,84.7 578.5,84.5 579.7,84.2 580.9,84.0 582.1,83.7 583.3,83.5 584.4,83.3 585.6,83.0 586.8,82.8 588.0,82.6 589.2,82.3 590.4,82.1 591.6,81.9 592.7,81.6 593.9,81.4 595.1,81.2 596.3,80.9 597.5,80.7 598.7,80.5 599.9,80.3 601.1,80.1 602.2,79.8 603.4,79.6 604.6,79.4 605.8,79.2 607.0,79.0 608.2,78.8 609.4,78.5 610.5,78.3 611.7,78.1 612.9,77.9 614.1,77.7 615.3,77.5 616.5,77.3 617.7,77.1 618.9,76.9 620.0,76.6 621.2,76.4 622.4,76.2 623.6,76.0 624.8,75.8 626.0,75.6 627.2,75.4 628.3,75.2 629.5,75.0 630.7,74.8 631.9,74.6 633.1,74.4 634.3,74.2 635.5,74.0 636.7,73.8 637.8,73.6 639.0,73.4 640.2,73.2 641.4,73.0 642.6,72.8 643.8,72.6 645.0,72.4 646.1,72.2 647.3,72.0 648.5,71.8 649.7,71.6 650.9,71.4 652.1,71.2 653.3,71.0 654.5,70.8 655.6,70.6 656.8,70.4 658.0,70.3 659.2,70.1 660.4,69.9 661.6,69.7 662.8,69.5 663.9,69.3 665.1,69.1 666.3,68.9 667.5,68.7 668.7,68.5 669.9,68.3 671.1,68.1 672.3,68.0 673.4,67.8 674.6,67.6 675.8,67.4 677.0,67.2 678.2,67.0 679.4,66.9 680.6,66.7 681.7,66.5 682.9,66.3 684.1,66.2 685.3,66.0 686.5,65.8 687.7,65.6 688.9,65.4 690.1,65.3 691.2,65.1 692.4,64.9 693.6,64.7 694.8,64.6 696.0,64.4 697.2,64.2 698.4,64.0 699.5,63.9 700.7,63.7 701.9,63.5 703.1,63.3 704.3,63.2 705.5,63.0 706.7,62.8 707.9,62.6 709.0,62.4 710.2,62.3 711.4,62.1 712.6,61.9 713.8,61.7 715.0,61.6 716.2,61.4 717.3,61.2 718.5,61.0 719.7,60.9 720.9,60.7 722.1,60.5 723.3,60.3 724.5,60.2 725.7,60.0 726.8,59.8 728.0,59.6 729.2,59.5 730.4,59.3 731.6,59.1 732.8,58.9 734.0,58.8 735.1,58.6 736.3,58.4 737.5,58.2 738.7,58.1 739.9,57.9 741.1,57.7 742.3,57.5 743.5,57.3 744.6,57.2 745.8,57.0 747.0,56.8 748.2,56.6 749.4,56.5 750.6,56.3 751.8,56.1 752.9,55.9 754.1,55.8 755.3,55.6 756.5,55.4 757.7,55.2 758.9,55.0 760.1,54.9 761.3,54.7 762.4,54.5 763.6,54.3 764.8,54.2 766.0,54.0"/>
<line x1="606" y1="42" x2="628" y2="42" stroke="#0f62fe" stroke-width="2.2"/>
<text x="634" y="46" font-family="Arial" font-size="12">x_m</text>
</svg>