<svg xmlns="http://www.w3.org/2000/svg" width="820" height="320" viewBox="0 0 820 320">
<rect width="100%" height="100%" fill="#ffffff"/>
<text x="54" y="28" font-family="Arial" font-size="18" font-weight="700">Velocity Z</text>
<line x1="54" y1="266" x2="766" y2="266" stroke="#1f2933"/>
<line x1="54" y1="54" x2="54" y2="266" stroke="#1f2933"/>
<text x="54" y="306" font-family="Arial" font-size="12">time (s)</text>
<text x="596" y="306" font-family="Arial" font-size="12">vz (m/s)</text>
<text x="58" y="68" font-family="Arial" font-size="11">36.9</text>
<text x="58" y="260" font-family="Arial" font-size="11">-35.5</text>
<polyline fill="none" stroke="#0f62fe" stroke-width="2.2" points="54.0,118.1 55.2,118.8 56.4,119.4 57.6,120.0 58.7,120.6 59.9,121.1 61.1,121.7 62.3,122.1 63.5,122.6 64.7,123.1 65.9,123.5 67.1,123.9 68.2,124.3 69.4,124.6 70.6,125.0 71.8,125.3 73.0,125.7 74.2,126.0 75.4,126.3 76.5,126.6 77.7,126.9 78.9,127.2 80.1,127.4 81.3,127.7 82.5,128.0 83.7,128.2 84.9,128.5 86.0,128.7 87.2,128.9 88.4,129.2 89.6,129.4 90.8,129.6 92.0,129.8 93.2,130.0 94.3,130.2 95.5,130.4 96.7,130.6 97.9,130.7 99.1,130.9 100.3,131.1 101.5,131.2 102.7,131.4 103.8,131.5 105.0,131.7 106.2,131.8 107.4,131.9 108.6,132.0 109.8,132.1 111.0,132.3 112.1,132.4 113.3,132.4 114.5,132.5 115.7,132.6 116.9,132.7 118.1,132.8 119.3,132.8 120.5,132.9 121.6,133.0 122.8,133.0 124.0,133.0 125.2,133.1 126.4,133.1 127.6,133.1 128.8,133.2 129.9,133.2 131.1,133.2 132.3,133.2 133.5,133.2 134.7,133.2 135.9,133.2 137.1,133.2 138.3,133.2 139.4,133.2 140.6,133.1 141.8,133.1 143.0,133.1 144.2,133.0 145.4,133.0 146.6,133.0 147.7,132.9 148.9,132.9 150.1,132.8 151.3,132.8 152.5,132.8 153.7,132.7 154.9,132.7 156.1,132.6 157.2,132.6 158.4,132.5 159.6,132.5 160.8,132.4 162.0,132.4 163.2,132.3 164.4,132.3 165.5,132.3 166.7,132.2 167.9,132.2 169.1,132.2 170.3,132.2 171.5,132.2 172.7,132.2 173.9,132.2 175.0,132.2 176.2,132.2 177.4,132.3 178.6,132.3 179.8,132.3 181.0,132.3 182.2,132.4 183.3,132.4 184.5,132.4 185.7,132.4 186.9,132.4 188.1,132.4 189.3,132.4 190.5,132.4 191.7,132.4 192.8,132.4 194.0,132.4 195.2,132.4 196.4,132.4 197.6,132.4 198.8,132.4 200.0,132.5 201.1,132.5 202.3,132.5 203.5,132.5 204.7,132.6 205.9,132.6 207.1,132.6 208.3,132.7 209.5,132.7 210.6,132.7 211.8,132.8 213.0,132.8 214.2,132.8 215.4,132.8 216.6,132.8 217.8,132.8 218.9,132.8 220.1,132.8 221.3,132.8 222.5,132.8 223.7,132.8 224.9,132.7 226.1,132.7 227.3,132.8 228.4,132.8 229.6,132.8 230.8,132.8 232.0,132.8 233.2,132.9 234.4,132.9 235.6,132.9 236.7,132.9 237.9,133.0 239.1,133.0 240.3,133.0 241.5,133.0 242.7,133.0 243.9,133.0 245.1,133.0 246.2,133.0 247.4,133.0 248.6,132.9 249.8,132.9 251.0,132.9 252.2,132.9 253.4,132.8 254.5,132.8 255.7,132.8 256.9,132.8 258.1,132.7 259.3,132.7 260.5,132.7 261.7,132.6 262.9,132.6 264.0,132.5 265.2,132.5 266.4,132.4 267.6,132.3 268.8,132.3 270.0,132.2 271.2,132.1 272.3,132.0 273.5,131.9 274.7,131.8 275.9,131.7 277.1,131.5 278.3,131.4 279.5,131.3 280.7,131.1 281.8,131.0 283.0,130.8 284.2,130.6 285.4,130.4 286.6,130.2 287.8,129.9 289.0,129.7 290.1,129.4 291.3,129.2 292.5,128.9 293.7,128.6 294.9,128.3 296.1,128.0 297.3,127.7 298.5,127.3 299.6,127.0 300.8,126.7 302.0,126.3 303.2,125.9 304.4,125.5 305.6,125.0 306.8,124.5 307.9,124.0 309.1,123.5 310.3,122.9 311.5,122.3 312.7,121.6 313.9,121.0 315.1,120.3 316.3,119.6 317.4,118.9 318.6,118.2 319.8,117.4 321.0,116.6 322.2,115.8 323.4,115.0 324.6,114.1 325.7,113.1 326.9,112.2 328.1,111.1 329.3,110.0 330.5,108.9 331.7,107.6 332.9,106.4 334.1,105.0 335.2,103.6 336.4,102.1 337.6,100.5 338.8,98.9 340.0,97.1 341.2,95.3 342.4,93.4 343.5,91.4 344.7,89.4 345.9,87.4 347.1,85.4 348.3,83.5 349.5,81.8 350.7,80.1 351.9,78.5 353.0,77.1 354.2,75.7 355.4,74.4 356.6,73.2 357.8,72.0 359.0,70.8 360.2,69.6 361.3,68.4 362.5,67.3 363.7,66.2 364.9,65.2 366.1,64.1 367.3,63.2 368.5,62.2 369.7,61.3 370.8,60.5 372.0,59.6 373.2,58.9 374.4,58.2 375.6,57.5 376.8,56.9 378.0,56.4 379.1,55.9 380.3,55.4 381.5,55.0 382.7,54.7 383.9,54.5 385.1,54.3 386.3,54.1 387.5,54.0 388.6,54.0 389.8,54.0 391.0,54.1 392.2,54.3 393.4,54.5 394.6,54.8 395.8,55.1 396.9,55.4 398.1,55.8 399.3,56.2 400.5,56.6 401.7,57.1 402.9,57.6 404.1,58.0 405.3,58.5 406.4,59.0 407.6,59.4 408.8,59.9 410.0,60.3 411.2,60.8 412.4,61.3 413.6,61.8 414.7,62.3 415.9,62.9 417.1,63.4 418.3,63.8 419.5,64.3 420.7,64.8 421.9,65.2 423.1,65.6 424.2,66.1 425.4,66.6 426.6,67.1 427.8,67.6 429.0,68.0 430.2,68.5 431.4,68.9 432.5,69.3 433.7,69.7 434.9,70.1 436.1,70.5 437.3,70.8 438.5,71.2 439.7,71.6 440.9,71.9 442.0,72.3 443.2,72.6 444.4,72.9 445.6,73.1 446.8,73.4 448.0,73.5 449.2,73.7 450.3,73.8 451.5,73.9 452.7,73.9 453.9,74.0 455.1,74.1 456.3,74.3 457.5,74.8 458.7,75.7 459.8,77.0 461.0,78.8 462.2,80.7 463.4,82.6 464.6,84.7 465.8,86.6 467.0,88.6 468.1,90.5 469.3,92.3 470.5,94.1 471.7,95.9 472.9,97.5 474.1,99.1 475.3,100.4 476.5,101.7 477.6,102.9 478.8,104.0 480.0,105.0 481.2,106.0 482.4,106.9 483.6,107.8 484.8,108.5 485.9,109.1 487.1,109.4 488.3,109.6 489.5,109.7 490.7,109.7 491.9,109.8 493.1,109.9 494.3,110.0 495.4,110.3 496.6,110.6 497.8,111.2 499.0,111.9 500.2,112.9 501.4,114.2 502.6,115.6 503.7,117.0 504.9,118.5 506.1,119.8 507.3,121.1 508.5,122.3 509.7,123.4 510.9,124.3 512.1,125.1 513.2,125.8 514.4,126.5 515.6,127.1 516.8,127.6 518.0,128.2 519.2,128.7 520.4,129.2 521.5,129.8 522.7,130.4 523.9,131.0 525.1,131.6 526.3,132.3 527.5,133.0 528.7,133.8 529.9,134.6 531.0,135.5 532.2,136.3 533.4,137.3 534.6,138.2 535.8,139.2 537.0,140.1 538.2,141.1 539.3,142.0 540.5,143.0 541.7,144.0 542.9,144.9 544.1,145.9 545.3,147.0 546.5,148.0 547.7,149.1 548.8,150.2 550.0,151.4 551.2,152.6 552.4,153.8 553.6,155.0 554.8,156.2 556.0,157.5 557.1,158.7 558.3,160.0 559.5,161.3 560.7,162.6 561.9,163.9 563.1,165.2 564.3,166.5 565.5,167.8 566.6,169.2 567.8,170.5 569.0,171.8 570.2,172.6 571.4,173.5 572.6,174.3 573.8,175.1 574.9,175.9 576.1,176.7 577.3,177.5 578.5,178.3 579.7,179.1 580.9,179.9 582.1,180.6 583.3,181.4 584.4,182.1 585.6,182.9 586.8,183.6 588.0,184.3 589.2,185.1 590.4,185.8 591.6,186.5 592.7,187.2 593.9,187.8 595.1,188.5 596.3,189.2 597.5,189.8 598.7,190.5 599.9,191.1 601.1,191.7 602.2,192.4 603.4,193.0 604.6,193.6 605.8,194.1 607.0,194.7 608.2,195.3 609.4,195.8 610.5,196.4 611.7,196.9 612.9,197.4 614.1,197.9 615.3,198.4 616.5,198.9 617.7,199.4 618.9,199.9 620.0,200.4 621.2,200.8 622.4,201.3 623.6,201.7 624.8,202.2 626.0,202.6 627.2,203.0 628.3,203.3 629.5,203.6 630.7,204.0 631.9,204.2 633.1,204.5 634.3,204.7 635.5,204.9 636.7,205.1 637.8,205.3 639.0,205.5 640.2,205.7 641.4,206.0 642.6,206.2 643.8,206.5 645.0,206.8 646.1,207.1 647.3,207.4 648.5,208.4 649.7,209.4 650.9,210.4 652.1,211.8 653.3,212.9 654.5,213.7 655.6,214.2 656.8,214.5 658.0,214.6 659.2,214.7 660.4,214.7 661.6,214.6 662.8,214.5 663.9,214.5 665.1,214.6 666.3,214.8 667.5,215.4 668.7,216.1 669.9,217.1 671.1,218.2 672.3,219.4 673.4,220.5 674.6,221.5 675.8,222.4 677.0,223.3 678.2,224.2 679.4,225.0 680.6,225.7 681.7,226.3 682.9,227.0 684.1,227.6 685.3,228.3 686.5,228.9 687.7,229.5 688.9,230.2 690.1,230.9 691.2,231.5 692.4,232.2 693.6,232.8 694.8,233.5 696.0,234.2 697.2,235.0 698.4,235.7 699.5,236.4 700.7,237.0 701.9,237.7 703.1,238.3 704.3,238.9 705.5,239.4 706.7,239.9 707.9,240.4 709.0,240.8 710.2,241.2 711.4,241.5 712.6,241.9 713.8,242.3 715.0,242.6 716.2,243.0 717.3,243.4 718.5,243.8 719.7,244.2 720.9,244.6 722.1,245.0 723.3,245.5 724.5,246.0 725.7,246.5 726.8,246.9 728.0,247.4 729.2,247.9 730.4,248.4 731.6,249.0 732.8,249.5 734.0,250.0 735.1,250.5 736.3,251.1 737.5,251.6 738.7,252.2 739.9,252.7 741.1,253.3 742.3,253.9 743.5,254.4 744.6,255.0 745.8,255.6 747.0,256.2 748.2,256.7 749.4,257.3 750.6,257.9 751.8,258.5 752.9,259.1 754.1,259.8 755.3,260.4 756.5,261.0 757.7,261.6 758.9,262.3 760.1,262.9 761.3,263.5 762.4,264.2 763.6,264.8 764.8,265.4 766.0,266.0"/>
<line x1="606" y1="42" x2="628" y2="42" stroke="#0f62fe" stroke-width="2.2"/>
<text x="634" y="46" font-family="Arial" font-size="12">vz_mps</text>
</svg>