<svg xmlns="http://www.w3.org/2000/svg" width="820" height="320" viewBox="0 0 820 320">
<rect width="100%" height="100%" fill="#ffffff"/>
<text x="54" y="28" font-family="Arial" font-size="18" font-weight="700">Euler Angles</text>
<line x1="54" y1="266" x2="766" y2="266" stroke="#1f2933"/>
<line x1="54" y1="54" x2="54" y2="266" stroke="#1f2933"/>
<text x="54" y="306" font-family="Arial" font-size="12">time (s)</text>
<text x="596" y="306" font-family="Arial" font-size="12">angle (deg)</text>
<text x="58" y="68" font-family="Arial" font-size="11">179</text>
<text x="58" y="260" font-family="Arial" font-size="11">-180</text>
<polyline fill="none" stroke="#0f62fe" stroke-width="2.2" points="54.0,159.8 55.2,159.8 56.4,159.8 57.6,159.8 58.7,159.8 59.9,159.8 61.1,159.8 62.3,159.8 63.5,159.9 64.7,159.9 65.9,159.9 67.1,159.9 68.2,159.9 69.4,159.9 70.6,159.9 71.8,159.9 73.0,160.0 74.2,160.0 75.4,160.0 76.5,160.0 77.7,160.0 78.9,160.0 80.1,160.0 81.3,160.0 82.5,160.0 83.7,160.1 84.9,160.1 86.0,160.1 87.2,160.1 88.4,160.1 89.6,160.1 90.8,160.1 92.0,160.1 93.2,160.1 94.3,160.0 95.5,160.0 96.7,160.0 97.9,160.0 99.1,160.0 100.3,160.0 101.5,160.0 102.7,160.0 103.8,159.9 105.0,159.9 106.2,159.9 107.4,159.9 108.6,159.8 109.8,159.8 111.0,159.8 112.1,159.7 113.3,159.7 114.5,159.7 115.7,159.6 116.9,159.6 118.1,159.5 119.3,159.5 120.5,159.4 121.6,159.4 122.8,159.3 124.0,159.2 125.2,159.2 126.4,159.1 127.6,159.0 128.8,159.0 129.9,158.9 131.1,158.8 132.3,158.7 133.5,158.6 134.7,158.5 135.9,158.4 137.1,158.3 138.3,158.2 139.4,158.1 140.6,157.9 141.8,157.8 143.0,157.7 144.2,157.5 145.4,157.4 146.6,157.2 147.7,157.1 148.9,156.9 150.1,156.7 151.3,156.5 152.5,156.3 153.7,156.1 154.9,155.9 156.1,155.7 157.2,155.5 158.4,155.2 159.6,155.0 160.8,154.7 162.0,154.5 163.2,154.2 164.4,153.9 165.5,153.6 166.7,153.3 167.9,153.0 169.1,152.6 170.3,152.3 171.5,151.9 172.7,151.5 173.9,151.1 175.0,150.6 176.2,150.2 177.4,149.7 178.6,149.2 179.8,148.8 181.0,148.3 182.2,147.8 183.3,147.4 184.5,146.9 185.7,146.4 186.9,146.0 188.1,145.5 189.3,145.1 190.5,144.6 191.7,144.2 192.8,143.7 194.0,143.3 195.2,142.9 196.4,142.5 197.6,142.1 198.8,141.7 200.0,141.3 201.1,140.8 202.3,140.4 203.5,140.0 204.7,139.6 205.9,139.1 207.1,138.7 208.3,138.2 209.5,137.7 210.6,137.3 211.8,136.8 213.0,136.3 214.2,135.8 215.4,135.3 216.6,134.9 217.8,134.4 218.9,133.9 220.1,133.5 221.3,133.0 222.5,132.6 223.7,132.2 224.9,131.7 226.1,131.3 227.3,130.9 228.4,130.5 229.6,130.1 230.8,129.7 232.0,129.2 233.2,128.8 234.4,128.3 235.6,127.9 236.7,127.4 237.9,127.0 239.1,126.5 240.3,126.0 241.5,125.5 242.7,125.0 243.9,124.6 245.1,124.1 246.2,123.6 247.4,123.1 248.6,122.7 249.8,122.3 251.0,121.8 252.2,121.4 253.4,121.0 254.5,120.5 255.7,120.1 256.9,119.7 258.1,119.3 259.3,118.8 260.5,118.4 261.7,118.0 262.9,117.5 264.0,117.0 265.2,116.6 266.4,116.1 267.6,115.6 268.8,115.1 270.0,114.6 271.2,114.2 272.3,113.7 273.5,113.2 274.7,112.8 275.9,112.3 277.1,111.9 278.3,111.5 279.5,111.1 280.7,110.6 281.8,110.2 283.0,109.8 284.2,109.4 285.4,108.9 286.6,108.5 287.8,108.0 289.0,107.6 290.1,107.1 291.3,106.6 292.5,106.2 293.7,105.7 294.9,105.2 296.1,104.8 297.3,104.3 298.5,103.8 299.6,103.4 300.8,103.0 302.0,102.5 303.2,102.1 304.4,101.7 305.6,101.3 306.8,100.9 307.9,100.5 309.1,100.0 310.3,99.6 311.5,99.2 312.7,98.8 313.9,98.3 315.1,97.9 316.3,97.4 317.4,97.0 318.6,96.5 319.8,96.1 321.0,95.7 322.2,95.3 323.4,94.9 324.6,94.5 325.7,94.1 326.9,93.7 328.1,93.4 329.3,93.0 330.5,92.7 331.7,92.3 332.9,92.0 334.1,91.7 335.2,91.4 336.4,91.1 337.6,90.8 338.8,90.5 340.0,90.2 341.2,90.0 342.4,89.9 343.5,89.8 344.7,89.8 345.9,90.1 347.1,90.3 348.3,90.6 349.5,90.8 350.7,91.2 351.9,91.5 353.0,91.9 354.2,92.4 355.4,92.8 356.6,93.4 357.8,93.9 359.0,94.6 360.2,95.3 361.3,96.1 362.5,96.9 363.7,97.8 364.9,98.8 366.1,99.9 367.3,101.0 368.5,102.3 369.7,103.6 370.8,105.0 372.0,106.5 373.2,108.0 374.4,109.6 375.6,111.3 376.8,113.0 378.0,114.8 379.1,116.6 380.3,118.4 381.5,120.2 382.7,122.0 383.9,123.7 385.1,125.4 386.3,127.1 387.5,128.7 388.6,130.2 389.8,131.7 391.0,133.1 392.2,134.2 393.4,135.3 394.6,136.3 395.8,137.2 396.9,138.0 398.1,138.8 399.3,139.5 400.5,140.2 401.7,140.9 402.9,141.5 404.1,142.0 405.3,142.4 406.4,142.6 407.6,142.6 408.8,142.3 410.0,141.9 411.2,141.2 412.4,140.5 413.6,139.8 414.7,139.1 415.9,138.5 417.1,137.9 418.3,137.3 419.5,136.7 420.7,136.2 421.9,135.6 423.1,135.0 424.2,134.6 425.4,134.2 426.6,134.1 427.8,134.2 429.0,134.6 430.2,135.2 431.4,136.0 432.5,137.0 433.7,138.1 434.9,139.4 436.1,140.8 437.3,142.3 438.5,144.0 439.7,146.0 440.9,148.2 442.0,150.8 443.2,153.8 444.4,157.2 445.6,160.9 446.8,164.9 448.0,169.0 449.2,173.1 450.3,177.3 451.5,181.5 452.7,185.6 453.9,189.6 455.1,193.2 456.3,196.4 457.5,198.8 458.7,200.5 459.8,201.4 461.0,201.6 462.2,201.2 463.4,200.4 464.6,199.3 465.8,198.1 467.0,196.8 468.1,195.6 469.3,194.6 470.5,193.7 471.7,192.8 472.9,192.2 474.1,191.9 475.3,191.8 476.5,192.0 477.6,192.3 478.8,192.7 480.0,193.1 481.2,193.5 482.4,194.0 483.6,194.7 484.8,195.5 485.9,196.5 487.1,197.9 488.3,199.5 489.5,201.4 490.7,203.5 491.9,205.9 493.1,208.3 494.3,210.6 495.4,212.7 496.6,214.5 497.8,215.7 499.0,216.3 500.2,216.3 501.4,216.0 502.6,215.2 503.7,214.2 504.9,212.9 506.1,211.4 507.3,209.9 508.5,208.2 509.7,206.5 510.9,204.9 512.1,203.3 513.2,201.9 514.4,200.6 515.6,199.6 516.8,198.9 518.0,198.6 519.2,198.6 520.4,198.9 521.5,199.5 522.7,200.3 523.9,201.2 525.1,202.2 526.3,203.2 527.5,204.2 528.7,205.0 529.9,205.7 531.0,206.2 532.2,206.3 533.4,206.3 534.6,206.0 535.8,205.7 537.0,205.3 538.2,204.9 539.3,204.6 540.5,204.4 541.7,204.3 542.9,204.5 544.1,204.8 545.3,205.2 546.5,205.6 547.7,206.0 548.8,206.3 550.0,206.4 551.2,206.4 552.4,206.4 553.6,206.4 554.8,206.4 556.0,206.5 557.1,206.5 558.3,206.6 559.5,206.6 560.7,206.6 561.9,206.6 563.1,206.6 564.3,206.6 565.5,206.6 566.6,206.6 567.8,206.5 569.0,206.5 570.2,206.4 571.4,206.4 572.6,206.3 573.8,206.2 574.9,206.2 576.1,206.1 577.3,206.0 578.5,205.9 579.7,205.9 580.9,205.8 582.1,205.7 583.3,205.6 584.4,205.5 585.6,205.4 586.8,205.3 588.0,205.2 589.2,205.1 590.4,205.0 591.6,204.9 592.7,204.8 593.9,204.7 595.1,204.6 596.3,204.6 597.5,204.5 598.7,204.4 599.9,204.3 601.1,204.2 602.2,204.1 603.4,204.0 604.6,203.9 605.8,203.8 607.0,203.7 608.2,203.5 609.4,203.4 610.5,203.3 611.7,203.2 612.9,203.1 614.1,203.0 615.3,202.8 616.5,202.7 617.7,202.6 618.9,202.4 620.0,202.3 621.2,202.2 622.4,202.0 623.6,201.9 624.8,201.8 626.0,201.6 627.2,201.5 628.3,201.4 629.5,201.2 630.7,201.1 631.9,200.9 633.1,200.6 634.3,200.3 635.5,199.9 636.7,199.4 637.8,198.8 639.0,198.0 640.2,196.9 641.4,195.6 642.6,194.0 643.8,191.9 645.0,189.3 646.1,186.1 647.3,182.2 648.5,177.1 649.7,171.3 650.9,165.8 652.1,161.2 653.3,157.6 654.5,154.9 655.6,152.9 656.8,151.2 658.0,149.8 659.2,148.7 660.4,147.8 661.6,147.0 662.8,146.3 663.9,145.7 665.1,144.9 666.3,143.9 667.5,142.7 668.7,141.3 669.9,139.7 671.1,138.1 672.3,136.4 673.4,134.7 674.6,133.0 675.8,131.3 677.0,129.5 678.2,127.6 679.4,125.8 680.6,124.1 681.7,122.5 682.9,121.0 684.1,119.8 685.3,118.8 686.5,118.1 687.7,117.7 688.9,117.5 690.1,117.6 691.2,117.9 692.4,118.3 693.6,118.9 694.8,119.5 696.0,120.2 697.2,120.9 698.4,121.7 699.5,122.4 700.7,122.9 701.9,123.3 703.1,123.6 704.3,123.6 705.5,123.5 706.7,123.3 707.9,122.8 709.0,122.3 710.2,121.6 711.4,120.9 712.6,120.2 713.8,119.4 715.0,118.6 716.2,117.8 717.3,117.0 718.5,116.3 719.7,115.6 720.9,115.1 722.1,114.6 723.3,114.1 724.5,113.7 725.7,113.3 726.8,112.9 728.0,112.5 729.2,112.0 730.4,111.6 731.6,111.1 732.8,110.7 734.0,110.2 735.1,109.7 736.3,109.3 737.5,108.8 738.7,108.3 739.9,107.9 741.1,107.4 742.3,106.9 743.5,106.5 744.6,106.1 745.8,105.7 747.0,105.3 748.2,104.9 749.4,104.6 750.6,104.2 751.8,103.9 752.9,103.7 754.1,103.4 755.3,103.2 756.5,103.0 757.7,102.8 758.9,102.7 760.1,102.6 761.3,102.5 762.4,102.4 763.6,102.4 764.8,102.4 766.0,102.4"/>
<line x1="606" y1="42" x2="628" y2="42" stroke="#0f62fe" stroke-width="2.2"/>
<text x="634" y="46" font-family="Arial" font-size="12">roll_deg</text>
<polyline fill="none" stroke="#24a148" stroke-width="2.2" points="54.0,154.5 55.2,154.4 56.4,154.2 57.6,154.1 58.7,154.0 59.9,153.9 61.1,153.8 62.3,153.8 63.5,153.7 64.7,153.7 65.9,153.7 67.1,153.6 68.2,153.6 69.4,153.6 70.6,153.6 71.8,153.6 73.0,153.6 74.2,153.6 75.4,153.6 76.5,153.6 77.7,153.6 78.9,153.6 80.1,153.7 81.3,153.7 82.5,153.7 83.7,153.7 84.9,153.7 86.0,153.7 87.2,153.7 88.4,153.8 89.6,153.8 90.8,153.8 92.0,153.8 93.2,153.8 94.3,153.8 95.5,153.9 96.7,153.9 97.9,153.9 99.1,153.9 100.3,153.9 101.5,153.9 102.7,153.9 103.8,154.0 105.0,154.0 106.2,154.0 107.4,154.0 108.6,154.0 109.8,154.0 111.0,154.0 112.1,154.0 113.3,154.0 114.5,154.0 115.7,154.1 116.9,154.1 118.1,154.1 119.3,154.1 120.5,154.1 121.6,154.1 122.8,154.1 124.0,154.1 125.2,154.1 126.4,154.1 127.6,154.1 128.8,154.1 129.9,154.1 131.1,154.1 132.3,154.1 133.5,154.1 134.7,154.1 135.9,154.1 137.1,154.1 138.3,154.0 139.4,154.0 140.6,154.0 141.8,154.0 143.0,154.0 144.2,154.0 145.4,154.0 146.6,154.0 147.7,153.9 148.9,153.9 150.1,153.9 151.3,153.9 152.5,153.8 153.7,153.8 154.9,153.8 156.1,153.8 157.2,153.7 158.4,153.7 159.6,153.6 160.8,153.6 162.0,153.6 163.2,153.5 164.4,153.5 165.5,153.4 166.7,153.4 167.9,153.3 169.1,153.3 170.3,153.2 171.5,153.1 172.7,153.1 173.9,153.0 175.0,152.9 176.2,152.9 177.4,152.8 178.6,152.8 179.8,152.7 181.0,152.6 182.2,152.6 183.3,152.5 184.5,152.5 185.7,152.4 186.9,152.4 188.1,152.3 189.3,152.3 190.5,152.2 191.7,152.2 192.8,152.1 194.0,152.0 195.2,151.9 196.4,151.8 197.6,151.8 198.8,151.7 200.0,151.6 201.1,151.5 202.3,151.4 203.5,151.3 204.7,151.2 205.9,151.1 207.1,151.1 208.3,151.0 209.5,151.0 210.6,150.9 211.8,150.9 213.0,150.8 214.2,150.8 215.4,150.8 216.6,150.8 217.8,150.7 218.9,150.7 220.1,150.7 221.3,150.6 222.5,150.5 223.7,150.5 224.9,150.4 226.1,150.3 227.3,150.2 228.4,150.2 229.6,150.1 230.8,150.0 232.0,149.9 233.2,149.8 234.4,149.8 235.6,149.7 236.7,149.7 237.9,149.6 239.1,149.6 240.3,149.6 241.5,149.6 242.7,149.6 243.9,149.6 245.1,149.6 246.2,149.6 247.4,149.5 248.6,149.5 249.8,149.5 251.0,149.4 252.2,149.4 253.4,149.3 254.5,149.2 255.7,149.1 256.9,149.1 258.1,149.0 259.3,148.9 260.5,148.9 261.7,148.8 262.9,148.8 264.0,148.8 265.2,148.8 266.4,148.7 267.6,148.8 268.8,148.8 270.0,148.8 271.2,148.8 272.3,148.8 273.5,148.7 274.7,148.7 275.9,148.7 277.1,148.6 278.3,148.6 279.5,148.5 280.7,148.4 281.8,148.4 283.0,148.3 284.2,148.2 285.4,148.2 286.6,148.1 287.8,148.1 289.0,148.1 290.1,148.1 291.3,148.1 292.5,148.1 293.7,148.1 294.9,148.1 296.1,148.1 297.3,148.1 298.5,148.1 299.6,148.0 300.8,148.0 302.0,147.9 303.2,147.8 304.4,147.8 305.6,147.7 306.8,147.6 307.9,147.5 309.1,147.5 310.3,147.4 311.5,147.3 312.7,147.3 313.9,147.3 315.1,147.2 316.3,147.2 317.4,147.2 318.6,147.1 319.8,147.1 321.0,147.0 322.2,147.0 323.4,146.9 324.6,146.8 325.7,146.6 326.9,146.5 328.1,146.3 329.3,146.1 330.5,146.0 331.7,145.8 332.9,145.6 334.1,145.4 335.2,145.1 336.4,144.9 337.6,144.7 338.8,144.4 340.0,144.1 341.2,143.7 342.4,143.3 343.5,142.9 344.7,142.3 345.9,141.5 347.1,140.8 348.3,140.1 349.5,139.4 350.7,138.6 351.9,137.9 353.0,137.2 354.2,136.4 355.4,135.6 356.6,134.8 357.8,134.1 359.0,133.3 360.2,132.6 361.3,131.9 362.5,131.2 363.7,130.6 364.9,129.9 366.1,129.3 367.3,128.8 368.5,128.3 369.7,127.8 370.8,127.4 372.0,127.0 373.2,126.6 374.4,126.4 375.6,126.1 376.8,126.0 378.0,125.9 379.1,125.9 380.3,125.9 381.5,126.0 382.7,126.2 383.9,126.4 385.1,126.7 386.3,127.1 387.5,127.5 388.6,128.0 389.8,128.5 391.0,129.1 392.2,129.6 393.4,130.1 394.6,130.5 395.8,130.9 396.9,131.3 398.1,131.7 399.3,132.0 400.5,132.3 401.7,132.6 402.9,132.8 404.1,133.1 405.3,133.4 406.4,133.6 407.6,133.9 408.8,134.2 410.0,134.5 411.2,134.8 412.4,135.1 413.6,135.3 414.7,135.6 415.9,135.8 417.1,135.9 418.3,136.1 419.5,136.3 420.7,136.5 421.9,136.6 423.1,136.8 424.2,136.9 425.4,136.9 426.6,136.9 427.8,136.8 429.0,136.7 430.2,136.5 431.4,136.3 432.5,136.1 433.7,135.9 434.9,135.7 436.1,135.6 437.3,135.4 438.5,135.3 439.7,135.2 440.9,135.1 442.0,135.0 443.2,135.1 444.4,135.2 445.6,135.5 446.8,135.9 448.0,136.5 449.2,137.3 450.3,138.3 451.5,139.5 452.7,141.2 453.9,143.2 455.1,145.7 456.3,148.7 457.5,151.9 458.7,155.3 459.8,158.7 461.0,161.7 462.2,164.4 463.4,166.6 464.6,168.3 465.8,169.7 467.0,170.6 468.1,171.2 469.3,171.6 470.5,171.4 471.7,170.7 472.9,169.5 474.1,168.1 475.3,166.4 476.5,164.7 477.6,162.8 478.8,161.0 480.0,159.2 481.2,157.4 482.4,155.6 483.6,153.9 484.8,152.3 485.9,151.1 487.1,150.1 488.3,149.4 489.5,149.1 490.7,149.1 491.9,149.5 493.1,150.2 494.3,151.4 495.4,152.8 496.6,154.4 497.8,156.1 499.0,157.8 500.2,159.2 501.4,160.3 502.6,161.1 503.7,161.6 504.9,161.9 506.1,162.0 507.3,161.9 508.5,161.7 509.7,161.5 510.9,161.2 512.1,161.0 513.2,160.8 514.4,160.6 515.6,160.5 516.8,160.5 518.0,160.5 519.2,160.6 520.4,160.8 521.5,160.9 522.7,161.1 523.9,161.3 525.1,161.5 526.3,161.7 527.5,161.9 528.7,162.1 529.9,162.4 531.0,162.6 532.2,162.9 533.4,163.1 534.6,163.4 535.8,163.6 537.0,163.8 538.2,164.1 539.3,164.2 540.5,164.4 541.7,164.6 542.9,164.8 544.1,164.9 545.3,165.1 546.5,165.2 547.7,165.4 548.8,165.6 550.0,165.7 551.2,165.9 552.4,166.1 553.6,166.2 554.8,166.4 556.0,166.5 557.1,166.7 558.3,166.8 559.5,167.0 560.7,167.1 561.9,167.2 563.1,167.4 564.3,167.5 565.5,167.6 566.6,167.8 567.8,167.9 569.0,168.0 570.2,168.1 571.4,168.1 572.6,168.2 573.8,168.2 574.9,168.3 576.1,168.4 577.3,168.4 578.5,168.5 579.7,168.6 580.9,168.6 582.1,168.7 583.3,168.7 584.4,168.8 585.6,168.9 586.8,168.9 588.0,169.0 589.2,169.0 590.4,169.1 591.6,169.2 592.7,169.3 593.9,169.4 595.1,169.5 596.3,169.5 597.5,169.7 598.7,169.8 599.9,169.9 601.1,170.0 602.2,170.1 603.4,170.3 604.6,170.4 605.8,170.6 607.0,170.7 608.2,170.9 609.4,171.1 610.5,171.3 611.7,171.5 612.9,171.8 614.1,172.0 615.3,172.3 616.5,172.5 617.7,172.8 618.9,173.1 620.0,173.3 621.2,173.5 622.4,173.7 623.6,173.9 624.8,174.0 626.0,174.2 627.2,174.3 628.3,174.5 629.5,174.8 630.7,175.2 631.9,175.6 633.1,176.2 634.3,177.0 635.5,177.9 636.7,178.9 637.8,180.1 639.0,181.5 640.2,182.9 641.4,184.5 642.6,186.1 643.8,187.7 645.0,189.3 646.1,190.8 647.3,192.1 648.5,192.5 649.7,191.9 650.9,190.0 652.1,186.9 653.3,183.1 654.5,179.2 655.6,175.7 656.8,172.4 658.0,169.5 659.2,167.0 660.4,164.8 661.6,163.0 662.8,161.7 663.9,160.9 665.1,160.7 666.3,160.9 667.5,161.4 668.7,161.5 669.9,161.3 671.1,160.8 672.3,160.2 673.4,159.4 674.6,158.5 675.8,157.6 677.0,156.7 678.2,156.1 679.4,155.8 680.6,156.0 681.7,156.7 682.9,157.7 684.1,158.9 685.3,160.3 686.5,161.8 687.7,163.3 688.9,164.7 690.1,166.1 691.2,167.3 692.4,168.4 693.6,169.2 694.8,169.9 696.0,170.2 697.2,170.2 698.4,170.0 699.5,169.5 700.7,169.0 701.9,168.4 703.1,167.8 704.3,167.2 705.5,166.5 706.7,165.9 707.9,165.3 709.0,164.8 710.2,164.3 711.4,163.8 712.6,163.5 713.8,163.1 715.0,162.8 716.2,162.5 717.3,162.3 718.5,162.1 719.7,161.9 720.9,161.7 722.1,161.5 723.3,161.3 724.5,161.1 725.7,160.9 726.8,160.7 728.0,160.5 729.2,160.3 730.4,160.2 731.6,160.0 732.8,159.9 734.0,159.9 735.1,159.8 736.3,159.8 737.5,159.9 738.7,160.0 739.9,160.2 741.1,160.4 742.3,160.7 743.5,161.1 744.6,161.5 745.8,162.0 747.0,162.5 748.2,163.0 749.4,163.7 750.6,164.3 751.8,165.0 752.9,165.7 754.1,166.4 755.3,167.1 756.5,167.9 757.7,168.6 758.9,169.3 760.1,170.1 761.3,170.8 762.4,171.5 763.6,172.2 764.8,173.0 766.0,173.7"/>
<line x1="606" y1="60" x2="628" y2="60" stroke="#24a148" stroke-width="2.2"/>
<text x="634" y="64" font-family="Arial" font-size="12">pitch_deg</text>
<polyline fill="none" stroke="#da1e28" stroke-width="2.2" points="54.0,159.8 55.2,159.8 56.4,159.8 57.6,159.7 58.7,159.7 59.9,159.6 61.1,159.6 62.3,159.5 63.5,159.4 64.7,159.4 65.9,159.3 67.1,159.2 68.2,159.1 69.4,159.0 70.6,158.9 71.8,158.8 73.0,158.7 74.2,158.6 75.4,158.5 76.5,158.4 77.7,158.3 78.9,158.2 80.1,158.0 81.3,157.9 82.5,157.8 83.7,157.7 84.9,157.6 86.0,157.5 87.2,157.4 88.4,157.3 89.6,157.2 90.8,157.0 92.0,156.9 93.2,156.8 94.3,156.7 95.5,156.6 96.7,156.5 97.9,156.4 99.1,156.3 100.3,156.1 101.5,156.0 102.7,155.9 103.8,155.8 105.0,155.7 106.2,155.6 107.4,155.4 108.6,155.3 109.8,155.2 111.0,155.1 112.1,154.9 113.3,154.8 114.5,154.7 115.7,154.6 116.9,154.4 118.1,154.3 119.3,154.2 120.5,154.1 121.6,153.9 122.8,153.8 124.0,153.7 125.2,153.5 126.4,153.4 127.6,153.2 128.8,153.1 129.9,153.0 131.1,152.8 132.3,152.7 133.5,152.5 134.7,152.4 135.9,152.2 137.1,152.1 138.3,151.9 139.4,151.8 140.6,151.6 141.8,151.5 143.0,151.3 144.2,151.2 145.4,151.0 146.6,150.8 147.7,150.7 148.9,150.5 150.1,150.3 151.3,150.2 152.5,150.0 153.7,149.8 154.9,149.7 156.1,149.5 157.2,149.3 158.4,149.1 159.6,148.9 160.8,148.8 162.0,148.6 163.2,148.4 164.4,148.2 165.5,148.0 166.7,147.8 167.9,147.7 169.1,147.5 170.3,147.3 171.5,147.2 172.7,147.1 173.9,147.0 175.0,147.0 176.2,147.0 177.4,147.0 178.6,147.1 179.8,147.2 181.0,147.3 182.2,147.5 183.3,147.6 184.5,147.8 185.7,147.9 186.9,148.1 188.1,148.2 189.3,148.3 190.5,148.3 191.7,148.3 192.8,148.3 194.0,148.3 195.2,148.2 196.4,148.1 197.6,148.0 198.8,147.9 200.0,147.8 201.1,147.6 202.3,147.6 203.5,147.5 204.7,147.4 205.9,147.4 207.1,147.5 208.3,147.5 209.5,147.6 210.6,147.7 211.8,147.9 213.0,148.0 214.2,148.2 215.4,148.3 216.6,148.5 217.8,148.6 218.9,148.7 220.1,148.8 221.3,148.9 222.5,148.9 223.7,148.9 224.9,148.8 226.1,148.8 227.3,148.7 228.4,148.6 229.6,148.5 230.8,148.5 232.0,148.4 233.2,148.4 234.4,148.4 235.6,148.4 236.7,148.5 237.9,148.6 239.1,148.7 240.3,148.8 241.5,149.0 242.7,149.1 243.9,149.3 245.1,149.4 246.2,149.5 247.4,149.6 248.6,149.7 249.8,149.7 251.0,149.7 252.2,149.7 253.4,149.7 254.5,149.6 255.7,149.6 256.9,149.5 258.1,149.5 259.3,149.4 260.5,149.4 261.7,149.5 262.9,149.5 264.0,149.6 265.2,149.7 266.4,149.8 267.6,149.9 268.8,150.1 270.0,150.2 271.2,150.3 272.3,150.4 273.5,150.5 274.7,150.6 275.9,150.6 277.1,150.6 278.3,150.6 279.5,150.5 280.7,150.5 281.8,150.4 283.0,150.4 284.2,150.3 285.4,150.3 286.6,150.3 287.8,150.4 289.0,150.4 290.1,150.5 291.3,150.6 292.5,150.7 293.7,150.8 294.9,150.9 296.1,151.0 297.3,151.1 298.5,151.1 299.6,151.1 300.8,151.1 302.0,151.1 303.2,151.1 304.4,151.0 305.6,150.9 306.8,150.8 307.9,150.8 309.1,150.7 310.3,150.7 311.5,150.7 312.7,150.7 313.9,150.7 315.1,150.7 316.3,150.7 317.4,150.7 318.6,150.8 319.8,150.8 321.0,150.7 322.2,150.7 323.4,150.6 324.6,150.4 325.7,150.3 326.9,150.1 328.1,149.9 329.3,149.7 330.5,149.4 331.7,149.2 332.9,148.9 334.1,148.6 335.2,148.4 336.4,148.1 337.6,147.7 338.8,147.3 340.0,146.9 341.2,146.4 342.4,145.8 343.5,145.2 344.7,144.2 345.9,142.8 347.1,141.4 348.3,140.2 349.5,138.9 350.7,137.6 351.9,136.3 353.0,134.9 354.2,133.5 355.4,132.1 356.6,130.7 357.8,129.2 359.0,127.7 360.2,126.1 361.3,124.4 362.5,122.7 363.7,120.9 364.9,119.1 366.1,117.2 367.3,115.2 368.5,113.1 369.7,110.9 370.8,108.7 372.0,106.4 373.2,104.1 374.4,101.6 375.6,99.1 376.8,96.6 378.0,94.0 379.1,91.5 380.3,88.9 381.5,86.3 382.7,83.7 383.9,81.2 385.1,78.7 386.3,76.2 387.5,73.8 388.6,71.5 389.8,69.2 391.0,67.0 392.2,65.1 393.4,63.2 394.6,61.6 395.8,59.9 396.9,58.4 398.1,56.9 399.3,55.5 400.5,54.1 401.7,265.2 402.9,263.9 404.1,262.8 405.3,261.9 406.4,261.2 407.6,260.8 408.8,260.8 410.0,261.0 411.2,261.6 412.4,262.2 413.6,262.9 414.7,263.6 415.9,264.1 417.1,264.6 418.3,265.1 419.5,265.5 420.7,266.0 421.9,54.1 423.1,54.5 424.2,54.8 425.4,54.9 426.6,54.6 427.8,54.0 429.0,265.4 430.2,264.0 431.4,262.4 432.5,260.6 433.7,258.5 434.9,256.2 436.1,253.8 437.3,251.2 438.5,248.4 439.7,245.4 440.9,242.2 442.0,238.7 443.2,234.8 444.4,230.6 445.6,225.9 446.8,221.0 448.0,215.7 449.2,210.1 450.3,204.2 451.5,197.9 452.7,191.4 453.9,184.7 455.1,177.8 456.3,170.8 457.5,163.9 458.7,157.2 459.8,151.0 461.0,145.1 462.2,139.9 463.4,135.4 464.6,131.5 465.8,128.4 467.0,125.9 468.1,124.3 469.3,123.4 470.5,122.9 471.7,122.6 472.9,122.7 474.1,123.5 475.3,125.0 476.5,127.4 477.6,130.5 478.8,134.3 480.0,138.6 481.2,142.9 482.4,146.9 483.6,150.4 484.8,153.4 485.9,155.7 487.1,157.5 488.3,158.6 489.5,159.0 490.7,158.5 491.9,157.4 493.1,155.6 494.3,153.2 495.4,150.4 496.6,147.0 497.8,143.5 499.0,140.6 500.2,138.3 501.4,136.6 502.6,135.3 503.7,134.4 504.9,133.6 506.1,132.9 507.3,132.6 508.5,132.8 509.7,133.2 510.9,133.6 512.1,134.1 513.2,134.4 514.4,134.6 515.6,134.5 516.8,134.3 518.0,133.9 519.2,133.3 520.4,132.7 521.5,132.0 522.7,131.4 523.9,130.7 525.1,130.2 526.3,129.6 527.5,129.1 528.7,128.6 529.9,128.0 531.0,127.4 532.2,126.9 533.4,126.3 534.6,125.7 535.8,125.1 537.0,124.6 538.2,124.0 539.3,123.4 540.5,122.8 541.7,122.2 542.9,121.7 544.1,121.1 545.3,120.5 546.5,119.8 547.7,119.2 548.8,118.5 550.0,117.7 551.2,117.0 552.4,116.2 553.6,115.4 554.8,114.6 556.0,113.7 557.1,112.9 558.3,112.0 559.5,111.2 560.7,110.3 561.9,109.3 563.1,108.4 564.3,107.4 565.5,106.5 566.6,105.5 567.8,104.5 569.0,103.5 570.2,102.3 571.4,101.1 572.6,99.9 573.8,98.8 574.9,97.7 576.1,96.6 577.3,95.4 578.5,94.2 579.7,93.0 580.9,91.8 582.1,90.6 583.3,89.4 584.4,88.2 585.6,87.0 586.8,85.7 588.0,84.5 589.2,83.2 590.4,82.0 591.6,80.7 592.7,79.5 593.9,78.2 595.1,77.0 596.3,75.7 597.5,74.5 598.7,73.2 599.9,71.9 601.1,70.6 602.2,69.3 603.4,68.0 604.6,66.7 605.8,65.4 607.0,64.1 608.2,62.8 609.4,61.5 610.5,60.1 611.7,58.8 612.9,57.4 614.1,56.1 615.3,54.7 616.5,265.7 617.7,264.3 618.9,262.9 620.0,261.5 621.2,260.1 622.4,258.7 623.6,257.3 624.8,255.9 626.0,254.5 627.2,253.1 628.3,251.6 629.5,250.2 630.7,248.7 631.9,247.1 633.1,245.4 634.3,243.7 635.5,241.8 636.7,239.8 637.8,237.6 639.0,235.3 640.2,232.7 641.4,229.8 642.6,226.6 643.8,223.0 645.0,218.8 646.1,214.0 647.3,208.5 648.5,201.7 649.7,194.2 650.9,186.8 652.1,180.3 653.3,174.7 654.5,169.8 655.6,165.3 656.8,160.9 658.0,156.4 659.2,151.9 660.4,147.1 661.6,142.1 662.8,137.1 663.9,132.0 665.1,127.0 666.3,122.1 667.5,117.7 668.7,114.0 669.9,111.1 671.1,109.0 672.3,107.8 673.4,107.4 674.6,107.8 675.8,109.0 677.0,111.0 678.2,113.4 679.4,116.0 680.6,118.8 681.7,121.5 682.9,124.3 684.1,127.0 685.3,129.8 686.5,132.7 687.7,135.5 688.9,138.2 690.1,140.6 691.2,142.7 692.4,144.6 693.6,146.3 694.8,147.8 696.0,149.2 697.2,150.5 698.4,151.7 699.5,152.6 700.7,153.2 701.9,153.5 703.1,153.3 704.3,152.9 705.5,152.3 706.7,151.6 707.9,150.7 709.0,149.8 710.2,149.0 711.4,148.1 712.6,147.4 713.8,146.7 715.0,146.1 716.2,145.6 717.3,145.1 718.5,144.7 719.7,144.4 720.9,144.1 722.1,143.8 723.3,143.5 724.5,143.3 725.7,143.1 726.8,142.9 728.0,142.7 729.2,142.5 730.4,142.3 731.6,142.2 732.8,142.1 734.0,142.1 735.1,142.2 736.3,142.3 737.5,142.6 738.7,142.9 739.9,143.3 741.1,143.9 742.3,144.6 743.5,145.4 744.6,146.3 745.8,147.2 747.0,148.3 748.2,149.5 749.4,150.6 750.6,151.8 751.8,152.9 752.9,154.0 754.1,155.1 755.3,156.2 756.5,157.3 757.7,158.5 758.9,159.6 760.1,160.7 761.3,161.8 762.4,163.0 763.6,164.1 764.8,165.2 766.0,166.4"/>
<line x1="606" y1="78" x2="628" y2="78" stroke="#da1e28" stroke-width="2.2"/>
<text x="634" y="82" font-family="Arial" font-size="12">yaw_deg</text>
</svg>