<svg xmlns="http://www.w3.org/2000/svg" width="820" height="320" viewBox="0 0 820 320">
<rect width="100%" height="100%" fill="#ffffff"/>
<text x="54" y="28" font-family="Arial" font-size="18" font-weight="700">Control Surfaces</text>
<line x1="54" y1="266" x2="766" y2="266" stroke="#1f2933"/>
<line x1="54" y1="54" x2="54" y2="266" stroke="#1f2933"/>
<text x="54" y="306" font-family="Arial" font-size="12">time (s)</text>
<text x="596" y="306" font-family="Arial" font-size="12">deflection (deg)</text>
<text x="58" y="68" font-family="Arial" font-size="11">22</text>
<text x="58" y="260" font-family="Arial" font-size="11">-22</text>
<polyline fill="none" stroke="#0f62fe" stroke-width="2.2" points="54.0,173.0 55.2,175.0 56.4,170.5 57.6,168.4 58.7,170.3 59.9,173.2 61.1,174.9 62.3,175.5 63.5,175.9 64.7,176.7 65.9,177.6 67.1,178.3 68.2,178.9 69.4,179.3 70.6,179.8 71.8,180.2 73.0,180.5 74.2,180.8 75.4,181.1 76.5,181.3 77.7,181.6 78.9,181.8 80.1,182.0 81.3,182.2 82.5,182.4 83.7,182.5 84.9,182.7 86.0,182.8 87.2,182.9 88.4,183.0 89.6,183.2 90.8,183.3 92.0,183.4 93.2,183.4 94.3,183.5 95.5,183.6 96.7,183.7 97.9,183.8 99.1,183.8 100.3,183.9 101.5,183.9 102.7,184.0 103.8,184.0 105.0,184.1 106.2,184.1 107.4,184.1 108.6,184.2 109.8,184.2 111.0,184.2 112.1,184.2 113.3,184.2 114.5,184.2 115.7,184.3 116.9,184.3 118.1,184.2 119.3,184.2 120.5,184.2 121.6,184.2 122.8,184.2 124.0,184.2 125.2,184.1 126.4,184.1 127.6,184.1 128.8,184.0 129.9,184.0 131.1,183.9 132.3,183.8 133.5,183.8 134.7,183.7 135.9,183.6 137.1,183.5 138.3,183.4 139.4,183.3 140.6,183.2 141.8,183.0 143.0,182.9 144.2,182.8 145.4,182.6 146.6,182.5 147.7,182.3 148.9,182.1 150.1,181.9 151.3,181.7 152.5,181.5 153.7,181.2 154.9,181.0 156.1,180.7 157.2,180.4 158.4,180.1 159.6,179.8 160.8,179.5 162.0,179.2 163.2,178.8 164.4,178.4 165.5,178.0 166.7,177.6 167.9,177.1 169.1,176.7 170.3,176.3 171.5,175.8 172.7,175.4 173.9,175.0 175.0,174.6 176.2,174.2 177.4,173.9 178.6,173.7 179.8,173.5 181.0,173.3 182.2,173.2 183.3,173.1 184.5,173.0 185.7,173.0 186.9,172.9 188.1,172.7 189.3,172.6 190.5,172.4 191.7,172.1 192.8,171.8 194.0,171.5 195.2,171.0 196.4,170.6 197.6,170.1 198.8,169.6 200.0,169.1 201.1,168.7 202.3,168.2 203.5,167.8 204.7,167.5 205.9,167.3 207.1,167.1 208.3,167.0 209.5,166.9 210.6,166.9 211.8,167.0 213.0,167.1 214.2,167.2 215.4,167.2 216.6,167.3 217.8,167.3 218.9,167.2 220.1,167.0 221.3,166.7 222.5,166.3 223.7,165.9 224.9,165.4 226.1,164.8 227.3,164.2 228.4,163.6 229.6,163.0 230.8,162.6 232.0,162.2 233.2,161.9 234.4,161.6 235.6,161.4 236.7,161.4 237.9,161.4 239.1,161.5 240.3,161.6 241.5,161.7 242.7,161.8 243.9,161.9 245.1,161.9 246.2,161.9 247.4,161.7 248.6,161.5 249.8,161.1 251.0,160.7 252.2,160.3 253.4,159.5 254.5,159.1 255.7,158.3 256.9,157.9 258.1,157.3 259.3,156.9 260.5,156.6 261.7,156.4 262.9,156.2 264.0,156.2 265.2,156.3 266.4,156.4 267.6,156.6 268.8,156.7 270.0,156.8 271.2,156.8 272.3,156.8 273.5,156.6 274.7,156.3 275.9,155.9 277.1,155.4 278.3,154.8 279.5,154.2 280.7,153.5 281.8,152.9 283.0,152.3 284.2,151.8 285.4,151.4 286.6,151.1 287.8,151.0 289.0,150.9 290.1,150.9 291.3,151.0 292.5,151.1 293.7,151.2 294.9,151.3 296.1,151.2 297.3,151.0 298.5,150.7 299.6,150.3 300.8,149.8 302.0,149.1 303.2,148.3 304.4,147.6 305.6,146.8 306.8,146.0 307.9,145.3 309.1,144.7 310.3,144.1 311.5,143.7 312.7,143.3 313.9,143.1 315.1,142.8 316.3,142.6 317.4,142.3 318.6,141.9 319.8,141.3 321.0,140.6 322.2,139.7 323.4,138.5 324.6,137.2 325.7,135.7 326.9,134.0 328.1,132.2 329.3,130.3 330.5,128.4 331.7,126.4 332.9,124.3 334.1,122.2 335.2,120.0 336.4,117.6 337.6,114.9 338.8,112.0 340.0,108.7 341.2,104.9 342.4,100.7 343.5,95.9 344.7,93.2 345.9,99.2 347.1,99.7 348.3,97.9 349.5,97.9 350.7,98.5 351.9,98.5 353.0,98.4 354.2,98.4 355.4,98.5 356.6,98.5 357.8,98.6 359.0,98.6 360.2,98.7 361.3,98.7 362.5,98.8 363.7,98.8 364.9,98.9 366.1,98.9 367.3,99.0 368.5,99.0 369.7,99.1 370.8,99.2 372.0,99.2 373.2,99.3 374.4,99.4 375.6,99.4 376.8,99.5 378.0,99.6 379.1,99.6 380.3,99.7 381.5,99.8 382.7,99.9 383.9,100.0 385.1,100.0 386.3,100.1 387.5,100.2 388.6,100.3 389.8,100.4 391.0,103.9 392.2,101.8 393.4,103.8 394.6,102.6 395.8,104.0 396.9,103.3 398.1,104.3 399.3,103.9 400.5,104.6 401.7,104.4 402.9,105.9 404.1,105.7 405.3,106.9 406.4,107.2 407.6,108.2 408.8,109.2 410.0,109.1 411.2,108.9 412.4,109.0 413.6,108.5 414.7,108.0 415.9,108.1 417.1,108.8 418.3,108.7 419.5,109.2 420.7,109.6 421.9,109.6 423.1,108.2 424.2,107.1 425.4,106.0 426.6,104.3 427.8,102.5 429.0,103.8 430.2,104.6 431.4,104.5 432.5,105.0 433.7,105.7 434.9,106.2 436.1,106.7 437.3,107.4 438.5,107.9 439.7,108.3 440.9,109.2 442.0,110.6 443.2,112.7 444.4,115.8 445.6,119.5 446.8,123.6 448.0,128.3 449.2,133.6 450.3,139.7 451.5,146.8 452.7,158.4 453.9,169.8 455.1,164.9 456.3,153.3 457.5,140.3 458.7,132.5 459.8,130.2 461.0,131.1 462.2,141.0 463.4,154.1 464.6,167.1 465.8,180.1 467.0,193.1 468.1,206.1 469.3,219.1 470.5,231.2 471.7,218.2 472.9,205.2 474.1,192.2 475.3,179.2 476.5,166.2 477.6,153.2 478.8,146.5 480.0,151.6 481.2,145.5 482.4,135.0 483.6,126.5 484.8,120.4 485.9,118.8 487.1,123.5 488.3,129.4 489.5,134.9 490.7,142.2 491.9,152.7 493.1,164.8 494.3,177.1 495.4,180.1 496.6,171.8 497.8,164.3 499.0,170.3 500.2,182.3 501.4,195.3 502.6,208.3 503.7,218.1 504.9,214.1 506.1,207.8 507.3,205.2 508.5,206.2 509.7,207.8 510.9,207.8 512.1,206.4 513.2,205.2 514.4,204.1 515.6,202.6 516.8,202.1 518.0,203.4 519.2,205.2 520.4,206.4 521.5,208.3 522.7,209.7 523.9,211.4 525.1,213.8 526.3,216.2 527.5,218.5 528.7,220.5 529.9,222.2 531.0,223.8 532.2,225.2 533.4,226.2 534.6,227.1 535.8,227.8 537.0,228.5 538.2,228.5 539.3,228.2 540.5,228.1 541.7,228.3 542.9,228.6 544.1,228.8 545.3,229.1 546.5,229.4 547.7,229.6 548.8,229.7 550.0,229.8 551.2,229.7 552.4,229.6 553.6,229.5 554.8,229.6 556.0,229.7 557.1,229.9 558.3,230.0 559.5,230.1 560.7,230.1 561.9,230.2 563.1,230.3 564.3,230.3 565.5,230.4 566.6,230.5 567.8,230.6 569.0,230.6 570.2,225.7 571.4,223.3 572.6,224.0 573.8,225.4 574.9,226.1 576.1,225.9 577.3,225.7 578.5,225.6 579.7,225.6 580.9,225.7 582.1,225.7 583.3,225.7 584.4,225.5 585.6,225.4 586.8,225.4 588.0,225.4 589.2,225.4 590.4,225.4 591.6,225.3 592.7,225.3 593.9,225.3 595.1,225.3 596.3,225.3 597.5,225.3 598.7,225.3 599.9,225.2 601.1,225.2 602.2,225.2 603.4,225.2 604.6,225.2 605.8,225.2 607.0,225.2 608.2,225.2 609.4,225.2 610.5,225.1 611.7,225.1 612.9,225.1 614.1,225.1 615.3,225.1 616.5,225.1 617.7,225.1 618.9,225.0 620.0,225.0 621.2,225.0 622.4,225.0 623.6,225.0 624.8,225.0 626.0,225.0 627.2,225.0 628.3,225.0 629.5,225.0 630.7,225.0 631.9,224.9 633.1,224.9 634.3,224.8 635.5,224.8 636.7,224.7 637.8,224.6 639.0,224.5 640.2,224.4 641.4,224.3 642.6,224.2 643.8,224.2 645.0,224.1 646.1,224.0 647.3,223.9 648.5,214.3 649.7,201.3 650.9,188.3 652.1,175.3 653.3,162.3 654.5,149.3 655.6,136.3 656.8,123.3 658.0,110.2 659.2,97.2 660.4,84.2 661.6,97.2 662.8,110.2 663.9,123.3 665.1,136.3 666.3,149.3 667.5,162.3 668.7,175.3 669.9,188.3 671.1,201.2 672.3,188.1 673.4,175.1 674.6,162.1 675.8,149.1 677.0,136.1 678.2,123.1 679.4,117.8 680.6,130.8 681.7,143.8 682.9,156.9 684.1,169.9 685.3,182.9 686.5,191.6 687.7,195.1 688.9,198.8 690.1,203.8 691.2,209.4 692.4,214.9 693.6,219.9 694.8,223.4 696.0,225.3 697.2,226.0 698.4,218.4 699.5,207.5 700.7,201.5 701.9,201.1 703.1,203.3 704.3,205.7 705.5,207.4 706.7,208.6 707.9,210.1 709.0,212.1 710.2,214.9 711.4,217.1 712.6,218.2 713.8,218.5 715.0,218.5 716.2,218.5 717.3,218.5 718.5,218.5 719.7,218.3 720.9,217.8 722.1,216.9 723.3,215.2 724.5,213.1 725.7,211.2 726.8,209.9 728.0,209.1 729.2,208.8 730.4,208.7 731.6,208.8 732.8,209.0 734.0,209.4 735.1,210.0 736.3,210.8 737.5,211.9 738.7,213.2 739.9,214.8 741.1,216.6 742.3,218.7 743.5,221.1 744.6,223.7 745.8,226.6 747.0,226.5 748.2,225.5 749.4,225.0 750.6,224.9 751.8,224.9 752.9,225.0 754.1,225.1 755.3,225.2 756.5,225.2 757.7,225.2 758.9,225.2 760.1,225.2 761.3,225.2 762.4,225.3 763.6,225.3 764.8,225.3 766.0,225.3"/>
<line x1="606" y1="42" x2="628" y2="42" stroke="#0f62fe" stroke-width="2.2"/>
<text x="634" y="46" font-family="Arial" font-size="12">elevator_deg</text>
<polyline fill="none" stroke="#24a148" stroke-width="2.2" points="54.0,160.0 55.2,160.0 56.4,160.0 57.6,160.3 58.7,160.5 59.9,160.6 61.1,160.7 62.3,160.9 63.5,161.1 64.7,161.3 65.9,161.6 67.1,161.9 68.2,162.2 69.4,162.5 70.6,162.8 71.8,163.1 73.0,163.5 74.2,163.8 75.4,164.1 76.5,164.5 77.7,164.8 78.9,165.2 80.1,165.5 81.3,165.8 82.5,166.2 83.7,166.5 84.9,166.9 86.0,167.2 87.2,167.5 88.4,167.8 89.6,168.2 90.8,168.5 92.0,168.8 93.2,169.1 94.3,169.5 95.5,169.8 96.7,170.1 97.9,170.4 99.1,170.7 100.3,171.1 101.5,171.4 102.7,171.7 103.8,172.0 105.0,172.3 106.2,172.7 107.4,173.0 108.6,173.3 109.8,173.6 111.0,173.9 112.1,174.3 113.3,174.6 114.5,174.9 115.7,175.3 116.9,175.6 118.1,175.9 119.3,176.3 120.5,176.6 121.6,177.0 122.8,177.3 124.0,177.6 125.2,178.0 126.4,178.4 127.6,178.7 128.8,179.1 129.9,179.4 131.1,179.8 132.3,180.2 133.5,180.5 134.7,180.9 135.9,181.3 137.1,181.7 138.3,182.1 139.4,182.5 140.6,182.9 141.8,183.3 143.0,183.7 144.2,184.1 145.4,184.5 146.6,184.9 147.7,185.3 148.9,185.8 150.1,186.2 151.3,186.6 152.5,187.1 153.7,187.5 154.9,188.0 156.1,188.4 157.2,188.9 158.4,189.3 159.6,189.8 160.8,190.3 162.0,190.7 163.2,191.2 164.4,191.7 165.5,192.2 166.7,192.7 167.9,193.1 169.1,193.5 170.3,193.6 171.5,193.7 172.7,193.9 173.9,194.8 175.0,197.8 176.2,198.7 177.4,197.9 178.6,196.9 179.8,196.6 181.0,196.4 182.2,196.0 183.3,195.4 184.5,194.8 185.7,194.3 186.9,193.8 188.1,193.4 189.3,193.1 190.5,192.8 191.7,192.8 192.8,192.8 194.0,193.0 195.2,193.2 196.4,193.6 197.6,194.0 198.8,194.5 200.0,195.0 201.1,195.5 202.3,195.9 203.5,196.3 204.7,196.5 205.9,196.7 207.1,196.7 208.3,196.6 209.5,196.4 210.6,196.1 211.8,195.8 213.0,195.4 214.2,194.9 215.4,194.5 216.6,194.1 217.8,193.7 218.9,193.4 220.1,193.2 221.3,193.1 222.5,193.2 223.7,193.3 224.9,193.5 226.1,193.8 227.3,194.2 228.4,194.5 229.6,194.9 230.8,195.3 232.0,195.6 233.2,195.8 234.4,195.9 235.6,196.0 236.7,195.9 237.9,195.8 239.1,195.5 240.3,195.2 241.5,194.9 242.7,194.6 243.9,194.3 245.1,194.0 246.2,193.7 247.4,193.6 248.6,193.5 249.8,193.5 251.0,193.6 252.2,193.7 253.4,193.9 254.5,194.2 255.7,194.5 256.9,194.7 258.1,195.0 259.3,195.2 260.5,195.3 261.7,195.4 262.9,195.4 264.0,195.3 265.2,195.1 266.4,194.9 267.6,194.7 268.8,194.5 270.0,194.2 271.2,194.0 272.3,193.9 273.5,193.8 274.7,193.7 275.9,193.8 277.1,193.8 278.3,194.0 279.5,194.1 280.7,194.3 281.8,194.5 283.0,194.7 284.2,194.8 285.4,194.9 286.6,194.9 287.8,194.9 289.0,194.9 290.1,194.8 291.3,194.6 292.5,194.5 293.7,194.3 294.9,194.2 296.1,194.1 297.3,194.0 298.5,194.0 299.6,193.9 300.8,194.0 302.0,194.0 303.2,194.1 304.4,194.2 305.6,194.3 306.8,194.4 307.9,194.5 309.1,194.6 310.3,194.6 311.5,194.6 312.7,194.5 313.9,194.5 315.1,194.4 316.3,194.3 317.4,194.2 318.6,194.2 319.8,194.1 321.0,194.1 322.2,194.1 323.4,194.1 324.6,194.1 325.7,194.1 326.9,194.1 328.1,194.2 329.3,194.2 330.5,194.2 331.7,194.2 332.9,194.2 334.1,194.2 335.2,194.2 336.4,194.1 337.6,194.1 338.8,194.1 340.0,194.0 341.2,194.0 342.4,193.9 343.5,193.9 344.7,193.9 345.9,193.8 347.1,193.7 348.3,193.6 349.5,193.4 350.7,193.3 351.9,193.2 353.0,193.0 354.2,193.0 355.4,192.9 356.6,192.9 357.8,192.9 359.0,192.7 360.2,192.4 361.3,192.1 362.5,191.8 363.7,191.4 364.9,190.9 366.1,190.5 367.3,189.9 368.5,189.3 369.7,188.7 370.8,188.0 372.0,187.3 373.2,186.5 374.4,185.7 375.6,184.9 376.8,184.0 378.0,183.0 379.1,182.1 380.3,181.0 381.5,180.0 382.7,178.9 383.9,177.7 385.1,176.5 386.3,175.3 387.5,174.0 388.6,172.7 389.8,171.3 391.0,169.9 392.2,168.4 393.4,166.8 394.6,165.2 395.8,163.6 396.9,161.9 398.1,160.2 399.3,158.4 400.5,156.6 401.7,154.8 402.9,152.9 404.1,151.0 405.3,149.2 406.4,147.6 407.6,146.2 408.8,145.2 410.0,144.7 411.2,144.7 412.4,145.0 413.6,145.3 414.7,145.7 415.9,145.8 417.1,145.9 418.3,145.8 419.5,145.7 420.7,145.6 421.9,145.6 423.1,145.5 424.2,145.4 425.4,145.1 426.6,144.4 427.8,143.4 429.0,141.9 430.2,140.2 431.4,138.0 432.5,135.5 433.7,132.7 434.9,129.6 436.1,127.3 437.3,134.8 438.5,139.9 439.7,140.5 440.9,139.0 442.0,138.1 443.2,138.5 444.4,125.4 445.6,112.4 446.8,99.4 448.0,86.4 449.2,73.4 450.3,75.4 451.5,85.3 452.7,89.2 453.9,85.1 455.1,77.1 456.3,76.8 457.5,86.4 458.7,99.4 459.8,112.4 461.0,125.4 462.2,138.4 463.4,151.5 464.6,164.5 465.8,177.5 467.0,190.5 468.1,203.5 469.3,216.5 470.5,229.5 471.7,242.5 472.9,255.5 474.1,261.8 475.3,264.3 476.5,265.3 477.6,265.7 478.8,252.7 480.0,239.7 481.2,226.7 482.4,213.7 483.6,200.7 484.8,187.7 485.9,174.7 487.1,161.7 488.3,148.7 489.5,135.6 490.7,122.6 491.9,109.6 493.1,96.6 494.3,83.6 495.4,70.6 496.6,60.6 497.8,56.7 499.0,69.7 500.2,82.7 501.4,95.7 502.6,108.7 503.7,121.7 504.9,134.7 506.1,147.7 507.3,160.7 508.5,173.7 509.7,186.7 510.9,199.8 512.1,212.8 513.2,225.8 514.4,238.8 515.6,251.8 516.8,260.3 518.0,263.7 519.2,256.7 520.4,243.7 521.5,230.7 522.7,217.6 523.9,204.6 525.1,191.6 526.3,178.6 527.5,165.6 528.7,152.6 529.9,139.6 531.0,126.6 532.2,139.6 533.4,152.6 534.6,165.6 535.8,178.6 537.0,191.6 538.2,204.6 539.3,217.6 540.5,230.7 541.7,239.7 542.9,226.7 544.1,213.7 545.3,200.7 546.5,187.7 547.7,174.7 548.8,161.7 550.0,174.7 551.2,187.7 552.4,200.7 553.6,208.1 554.8,199.5 556.0,192.1 557.1,191.5 558.3,194.1 559.5,195.8 560.7,195.6 561.9,194.8 563.1,194.4 564.3,194.4 565.5,194.5 566.6,194.4 567.8,194.2 569.0,194.0 570.2,193.7 571.4,193.5 572.6,193.3 573.8,193.1 574.9,192.7 576.1,192.3 577.3,191.9 578.5,191.5 579.7,191.0 580.9,190.4 582.1,189.9 583.3,189.2 584.4,188.6 585.6,187.8 586.8,187.1 588.0,186.3 589.2,185.4 590.4,184.5 591.6,183.5 592.7,182.5 593.9,181.4 595.1,180.2 596.3,179.0 597.5,177.7 598.7,176.3 599.9,174.9 601.1,173.4 602.2,171.9 603.4,170.2 604.6,168.5 605.8,166.7 607.0,164.8 608.2,162.9 609.4,160.8 610.5,158.7 611.7,156.4 612.9,154.1 614.1,151.7 615.3,149.2 616.5,146.5 617.7,143.8 618.9,141.0 620.0,138.1 621.2,135.2 622.4,132.4 623.6,129.5 624.8,126.8 626.0,124.0 627.2,121.2 628.3,118.3 629.5,115.1 630.7,111.8 631.9,108.1 633.1,104.0 634.3,99.4 635.5,95.2 636.7,93.0 637.8,92.4 639.0,92.6 640.2,92.7 641.4,92.6 642.6,92.3 643.8,91.7 645.0,91.2 646.1,78.2 647.3,65.2 648.5,58.5 649.7,55.8 650.9,54.7 652.1,54.3 653.3,54.1 654.5,54.0 655.6,54.0 656.8,54.0 658.0,54.0 659.2,55.9 660.4,69.0 661.6,82.0 662.8,95.0 663.9,108.0 665.1,121.0 666.3,134.0 667.5,147.0 668.7,160.0 669.9,173.0 671.1,186.0 672.3,199.0 673.4,212.1 674.6,225.1 675.8,238.1 677.0,251.1 678.2,260.0 679.4,263.6 680.6,265.0 681.7,265.6 682.9,265.8 684.1,265.9 685.3,266.0 686.5,266.0 687.7,262.0 688.9,249.0 690.1,236.0 691.2,223.0 692.4,210.0 693.6,197.0 694.8,183.9 696.0,170.9 697.2,157.9 698.4,144.9 699.5,131.9 700.7,118.9 701.9,105.9 703.1,92.9 704.3,79.9 705.5,66.9 706.7,79.9 707.9,92.9 709.0,105.9 710.2,118.9 711.4,131.9 712.6,144.9 713.8,157.9 715.0,170.9 716.2,183.9 717.3,197.0 718.5,210.0 719.7,223.0 720.9,227.7 722.1,214.7 723.3,201.7 724.5,189.6 725.7,185.2 726.8,186.2 728.0,189.5 729.2,193.1 730.4,196.0 731.6,198.2 732.8,199.7 734.0,200.9 735.1,201.8 736.3,202.6 737.5,203.3 738.7,203.9 739.9,204.3 741.1,204.6 742.3,204.7 743.5,204.6 744.6,204.4 745.8,204.1 747.0,203.7 748.2,203.2 749.4,202.6 750.6,201.9 751.8,201.1 752.9,200.3 754.1,199.4 755.3,198.5 756.5,197.7 757.7,196.9 758.9,196.1 760.1,195.4 761.3,194.8 762.4,194.2 763.6,193.7 764.8,193.3 766.0,193.0"/>
<line x1="606" y1="60" x2="628" y2="60" stroke="#24a148" stroke-width="2.2"/>
<text x="634" y="64" font-family="Arial" font-size="12">aileron_deg</text>
<polyline fill="none" stroke="#da1e28" stroke-width="2.2" points="54.0,160.0 55.2,159.3 56.4,158.4 57.6,157.6 58.7,157.0 59.9,156.6 61.1,156.3 62.3,156.2 63.5,156.2 64.7,156.4 65.9,156.7 67.1,157.0 68.2,157.5 69.4,158.0 70.6,158.6 71.8,159.4 73.0,160.2 74.2,161.1 75.4,162.1 76.5,163.2 77.7,164.4 78.9,165.6 80.1,166.9 81.3,168.1 82.5,169.3 83.7,170.6 84.9,171.8 86.0,173.0 87.2,174.2 88.4,175.4 89.6,176.6 90.8,177.8 92.0,179.0 93.2,180.2 94.3,181.3 95.5,182.5 96.7,183.7 97.9,184.8 99.1,186.0 100.3,187.2 101.5,188.3 102.7,189.5 103.8,190.7 105.0,191.8 106.2,193.0 107.4,194.2 108.6,195.3 109.8,196.5 111.0,197.7 112.1,198.9 113.3,200.1 114.5,201.3 115.7,202.5 116.9,203.7 118.1,204.9 119.3,206.2 120.5,207.4 121.6,208.6 122.8,209.9 124.0,211.2 125.2,212.4 126.4,213.7 127.6,215.0 128.8,216.3 129.9,217.6 131.1,219.0 132.3,220.3 133.5,221.7 134.7,223.1 135.9,224.4 137.1,225.9 138.3,227.3 139.4,228.7 140.6,230.1 141.8,231.6 143.0,233.1 144.2,234.6 145.4,236.1 146.6,237.6 147.7,239.2 148.9,240.7 150.1,242.3 151.3,243.9 152.5,245.5 153.7,247.2 154.9,248.8 156.1,250.5 157.2,252.2 158.4,253.9 159.6,255.6 160.8,257.4 162.0,259.1 163.2,260.9 164.4,262.7 165.5,264.5 166.7,265.4 167.9,265.8 169.1,265.9 170.3,266.0 171.5,266.0 172.7,266.0 173.9,266.0 175.0,266.0 176.2,266.0 177.4,266.0 178.6,266.0 179.8,266.0 181.0,266.0 182.2,266.0 183.3,266.0 184.5,266.0 185.7,266.0 186.9,266.0 188.1,266.0 189.3,266.0 190.5,266.0 191.7,266.0 192.8,266.0 194.0,266.0 195.2,266.0 196.4,266.0 197.6,266.0 198.8,266.0 200.0,266.0 201.1,266.0 202.3,266.0 203.5,266.0 204.7,266.0 205.9,266.0 207.1,266.0 208.3,266.0 209.5,266.0 210.6,266.0 211.8,266.0 213.0,266.0 214.2,266.0 215.4,266.0 216.6,266.0 217.8,266.0 218.9,266.0 220.1,266.0 221.3,266.0 222.5,266.0 223.7,266.0 224.9,266.0 226.1,266.0 227.3,266.0 228.4,266.0 229.6,266.0 230.8,266.0 232.0,266.0 233.2,266.0 234.4,266.0 235.6,266.0 236.7,266.0 237.9,266.0 239.1,266.0 240.3,266.0 241.5,266.0 242.7,266.0 243.9,266.0 245.1,266.0 246.2,266.0 247.4,266.0 248.6,266.0 249.8,266.0 251.0,266.0 252.2,266.0 253.4,266.0 254.5,266.0 255.7,266.0 256.9,266.0 258.1,266.0 259.3,266.0 260.5,266.0 261.7,266.0 262.9,266.0 264.0,266.0 265.2,266.0 266.4,266.0 267.6,266.0 268.8,266.0 270.0,266.0 271.2,266.0 272.3,266.0 273.5,266.0 274.7,266.0 275.9,266.0 277.1,266.0 278.3,266.0 279.5,266.0 280.7,266.0 281.8,266.0 283.0,266.0 284.2,266.0 285.4,266.0 286.6,266.0 287.8,266.0 289.0,266.0 290.1,266.0 291.3,266.0 292.5,266.0 293.7,266.0 294.9,266.0 296.1,266.0 297.3,266.0 298.5,266.0 299.6,266.0 300.8,266.0 302.0,266.0 303.2,266.0 304.4,266.0 305.6,266.0 306.8,266.0 307.9,266.0 309.1,266.0 310.3,266.0 311.5,266.0 312.7,266.0 313.9,266.0 315.1,266.0 316.3,266.0 317.4,266.0 318.6,266.0 319.8,266.0 321.0,266.0 322.2,266.0 323.4,266.0 324.6,266.0 325.7,266.0 326.9,266.0 328.1,266.0 329.3,266.0 330.5,266.0 331.7,266.0 332.9,266.0 334.1,266.0 335.2,266.0 336.4,266.0 337.6,266.0 338.8,266.0 340.0,266.0 341.2,266.0 342.4,266.0 343.5,266.0 344.7,266.0 345.9,266.0 347.1,266.0 348.3,266.0 349.5,266.0 350.7,266.0 351.9,266.0 353.0,266.0 354.2,266.0 355.4,265.7 356.6,262.9 357.8,261.1 359.0,260.8 360.2,260.7 361.3,260.1 362.5,258.9 363.7,257.5 364.9,256.0 366.1,254.4 367.3,252.7 368.5,250.9 369.7,248.9 370.8,246.7 372.0,244.4 373.2,241.9 374.4,239.4 375.6,236.7 376.8,233.8 378.0,230.8 379.1,227.7 380.3,224.5 381.5,221.1 382.7,217.6 383.9,213.9 385.1,210.1 386.3,206.1 387.5,202.0 388.6,197.8 389.8,193.4 391.0,188.8 392.2,184.1 393.4,179.1 394.6,174.0 395.8,168.7 396.9,163.5 398.1,157.8 399.3,152.2 400.5,146.4 401.7,133.4 402.9,120.4 404.1,107.4 405.3,94.4 406.4,81.4 407.6,68.4 408.8,67.5 410.0,80.5 411.2,93.5 412.4,106.5 413.6,119.5 414.7,126.0 415.9,122.3 417.1,116.3 418.3,111.7 419.5,109.5 420.7,109.1 421.9,122.1 423.1,135.1 424.2,148.1 425.4,161.1 426.6,174.1 427.8,161.1 429.0,148.1 430.2,135.1 431.4,122.1 432.5,109.1 433.7,96.0 434.9,83.0 436.1,70.0 437.3,60.4 438.5,56.6 439.7,55.0 440.9,54.4 442.0,54.2 443.2,54.1 444.4,54.0 445.6,54.0 446.8,54.0 448.0,54.0 449.2,54.0 450.3,54.0 451.5,54.0 452.7,54.0 453.9,54.0 455.1,54.0 456.3,54.0 457.5,54.0 458.7,54.0 459.8,54.0 461.0,54.0 462.2,54.0 463.4,54.0 464.6,54.0 465.8,54.0 467.0,67.0 468.1,80.0 469.3,93.0 470.5,106.0 471.7,119.0 472.9,132.1 474.1,145.1 475.3,158.1 476.5,171.1 477.6,184.1 478.8,197.1 480.0,210.1 481.2,223.1 482.4,236.1 483.6,249.1 484.8,259.3 485.9,263.3 487.1,264.9 488.3,251.9 489.5,238.9 490.7,225.9 491.9,212.9 493.1,199.9 494.3,186.9 495.4,173.9 496.6,160.8 497.8,147.8 499.0,134.8 500.2,121.8 501.4,128.2 502.6,141.2 503.7,154.2 504.9,167.2 506.1,180.2 507.3,193.3 508.5,206.3 509.7,219.3 510.9,232.3 512.1,245.3 513.2,257.7 514.4,262.7 515.6,264.7 516.8,265.5 518.0,259.8 519.2,247.7 520.4,238.2 521.5,233.8 522.7,233.6 523.9,235.5 525.1,237.7 526.3,239.1 527.5,239.5 528.7,239.3 529.9,239.0 531.0,238.9 532.2,239.4 533.4,240.7 534.6,242.7 535.8,245.4 537.0,248.6 538.2,252.0 539.3,255.4 540.5,258.5 541.7,261.0 542.9,262.8 544.1,263.8 545.3,264.0 546.5,263.7 547.7,263.0 548.8,262.3 550.0,261.9 551.2,262.0 552.4,262.4 553.6,263.1 554.8,263.7 556.0,264.2 557.1,264.5 558.3,264.6 559.5,264.6 560.7,264.5 561.9,264.3 563.1,264.1 564.3,263.8 565.5,263.5 566.6,263.1 567.8,262.6 569.0,262.0 570.2,263.2 571.4,264.4 572.6,265.0 573.8,264.7 574.9,263.7 576.1,262.5 577.3,261.1 578.5,259.6 579.7,258.0 580.9,256.4 582.1,254.6 583.3,252.7 584.4,250.7 585.6,248.5 586.8,246.2 588.0,243.7 589.2,241.0 590.4,238.2 591.6,235.2 592.7,232.0 593.9,228.6 595.1,225.0 596.3,221.3 597.5,217.3 598.7,213.2 599.9,208.8 601.1,204.2 602.2,199.4 603.4,194.4 604.6,189.1 605.8,183.6 607.0,177.8 608.2,171.7 609.4,165.4 610.5,158.8 611.7,152.0 612.9,144.8 614.1,137.4 615.3,129.6 616.5,116.6 617.7,103.6 618.9,90.6 620.0,77.6 621.2,64.6 622.4,58.2 623.6,55.7 624.8,54.7 626.0,54.3 627.2,54.1 628.3,54.0 629.5,54.0 630.7,54.0 631.9,54.0 633.1,54.0 634.3,54.0 635.5,54.0 636.7,54.0 637.8,54.0 639.0,54.0 640.2,54.0 641.4,54.0 642.6,54.0 643.8,54.0 645.0,54.0 646.1,54.0 647.3,54.0 648.5,54.0 649.7,54.0 650.9,54.0 652.1,54.0 653.3,54.0 654.5,54.0 655.6,54.0 656.8,54.0 658.0,54.0 659.2,54.0 660.4,54.0 661.6,54.0 662.8,54.0 663.9,54.0 665.1,54.0 666.3,54.0 667.5,54.0 668.7,54.0 669.9,54.0 671.1,64.8 672.3,77.8 673.4,90.8 674.6,103.8 675.8,116.8 677.0,129.8 678.2,142.8 679.4,155.8 680.6,168.8 681.7,181.8 682.9,194.9 684.1,207.9 685.3,220.9 686.5,233.9 687.7,246.9 688.9,258.4 690.1,262.9 691.2,264.8 692.4,265.5 693.6,265.8 694.8,265.9 696.0,257.0 697.2,244.0 698.4,231.0 699.5,218.0 700.7,205.0 701.9,192.0 703.1,178.9 704.3,165.9 705.5,152.9 706.7,139.9 707.9,126.9 709.0,113.9 710.2,118.8 711.4,131.8 712.6,144.8 713.8,157.9 715.0,170.9 716.2,183.9 717.3,196.9 718.5,209.9 719.7,222.9 720.9,235.9 722.1,248.9 723.3,259.1 724.5,263.2 725.7,264.9 726.8,265.6 728.0,265.8 729.2,265.9 730.4,266.0 731.6,266.0 732.8,266.0 734.0,266.0 735.1,266.0 736.3,266.0 737.5,266.0 738.7,266.0 739.9,266.0 741.1,266.0 742.3,266.0 743.5,266.0 744.6,266.0 745.8,266.0 747.0,266.0 748.2,266.0 749.4,266.0 750.6,266.0 751.8,266.0 752.9,266.0 754.1,266.0 755.3,266.0 756.5,266.0 757.7,266.0 758.9,266.0 760.1,266.0 761.3,265.6 762.4,260.2 763.6,253.4 764.8,247.0 766.0,241.4"/>
<line x1="606" y1="78" x2="628" y2="78" stroke="#da1e28" stroke-width="2.2"/>
<text x="634" y="82" font-family="Arial" font-size="12">rudder_deg</text>
</svg>