<svg xmlns="http://www.w3.org/2000/svg" width="820" height="320" viewBox="0 0 820 320">
<rect width="100%" height="100%" fill="#ffffff"/>
<text x="54" y="28" font-family="Arial" font-size="18" font-weight="700">Qbar/Load Envelope</text>
<line x1="54" y1="266" x2="766" y2="266" stroke="#1f2933"/>
<line x1="54" y1="54" x2="54" y2="266" stroke="#1f2933"/>
<text x="54" y="306" font-family="Arial" font-size="12">qbar (Pa)</text>
<text x="596" y="306" font-family="Arial" font-size="12">load factor (g)</text>
<text x="58" y="68" font-family="Arial" font-size="11">5.25</text>
<text x="58" y="260" font-family="Arial" font-size="11">0.278</text>
<polyline fill="none" stroke="#0f62fe" stroke-width="2.2" points="78.6,204.0 80.2,202.5 82.0,201.0 83.7,199.6 85.6,198.4 87.5,197.2 89.4,195.9 91.3,194.6 93.4,193.3 95.4,192.0 97.5,190.7 99.7,189.4 101.9,188.1 104.1,186.8 106.4,186.4 108.7,186.4 111.1,186.5 113.4,186.5 115.8,186.6 118.2,186.6 120.6,186.7 122.9,186.7 125.4,186.8 127.8,186.8 130.2,186.8 132.6,186.9 135.1,186.9 137.6,186.9 140.0,187.0 142.5,187.0 145.0,187.0 147.5,187.0 150.0,187.1 152.5,187.1 155.1,187.1 157.6,187.1 160.2,187.1 162.7,187.2 165.3,187.2 167.9,187.2 170.5,187.2 173.1,187.2 175.7,187.2 178.3,187.2 180.9,187.2 183.6,187.2 186.2,187.2 188.9,187.2 191.5,187.2 194.2,187.2 196.9,187.2 199.6,187.2 202.2,187.2 204.9,187.2 207.6,187.2 210.4,187.2 213.1,187.2 215.8,187.2 218.5,187.2 221.3,187.2 224.0,187.1 226.8,187.1 229.5,187.1 232.3,187.1 235.0,187.1 237.8,187.1 240.6,187.1 243.4,187.1 246.2,187.0 249.0,187.0 251.8,187.0 254.6,187.0 257.4,187.0 260.2,187.0 263.0,187.0 265.8,187.0 268.6,187.0 271.5,187.0 274.3,187.0 277.2,187.0 280.0,187.0 282.8,187.0 285.7,187.0 288.5,187.0 291.4,187.0 294.3,187.1 297.1,187.1 300.0,187.1 302.9,187.1 305.8,187.2 308.6,187.2 311.5,187.2 314.4,187.3 317.3,187.3 320.2,187.4 323.1,187.4 326.0,187.4 328.9,187.4 331.8,187.4 334.7,187.4 337.7,187.5 340.6,187.5 343.5,187.6 346.5,187.7 349.4,187.8 352.4,187.9 355.4,188.1 358.4,188.3 361.5,188.4 364.5,188.6 367.6,188.7 370.7,188.9 373.8,189.0 377.0,189.1 380.1,189.2 383.3,189.3 386.5,189.4 389.7,189.4 392.9,189.4 396.1,189.4 399.3,189.4 402.5,189.4 405.7,189.3 408.9,189.2 412.2,189.1 415.4,189.0 418.6,188.9 421.9,188.8 425.1,188.8 428.4,188.8 431.7,188.9 434.9,189.0 438.2,189.1 441.5,189.3 444.9,189.5 448.2,189.7 451.5,189.9 454.9,190.1 458.3,190.3 461.7,190.4 465.1,190.5 468.5,190.5 472.0,190.5 475.4,190.4 478.9,190.3 482.3,190.1 485.8,189.9 489.3,189.6 492.7,189.4 496.2,189.5 499.7,189.5 503.1,189.5 506.6,189.5 510.0,189.6 513.4,189.7 516.9,189.8 520.3,189.9 523.8,190.1 527.3,190.2 530.8,190.4 534.3,190.5 537.8,190.7 541.4,190.8 545.0,190.9 548.6,191.0 552.2,191.1 555.7,191.1 559.3,191.1 562.9,191.0 566.4,190.8 569.9,190.6 573.4,190.3 576.9,190.0 580.4,189.7 583.8,189.4 587.2,189.2 590.6,189.2 594.0,189.2 597.4,189.4 600.8,189.6 604.2,189.9 607.7,190.2 611.1,190.4 614.6,190.7 618.1,190.8 621.6,190.8 625.1,190.8 628.7,190.6 632.2,190.2 635.6,189.7 639.1,189.0 642.5,188.2 645.9,187.3 649.2,186.3 652.5,185.4 655.8,184.6 659.0,184.0 662.3,183.6 665.5,183.5 668.7,183.6 671.9,183.8 675.2,184.1 678.4,184.5 681.7,184.8 684.9,185.0 688.2,184.9 691.5,184.7 694.7,184.1 698.0,183.2 701.2,181.9 704.4,180.4 707.5,178.5 710.6,176.5 713.6,174.4 716.6,172.3 719.5,170.3 722.3,168.7 725.1,167.6 727.8,166.9 730.5,166.4 733.2,166.0 735.9,165.7 738.5,165.3 741.2,164.8 743.8,164.0 746.3,162.8 748.8,161.2 751.3,159.0 753.6,156.3 755.7,152.9 757.8,149.0 759.6,144.6 761.2,139.8 762.6,134.7 763.8,129.3 764.7,123.7 765.4,117.9 765.8,111.9 766.0,105.4 765.9,98.4 765.4,90.5 764.6,81.5 763.4,71.0 761.7,58.8 759.4,54.0 756.8,54.1 753.9,55.8 750.6,63.4 747.0,71.1 743.3,78.1 739.3,84.7 735.1,91.1 730.6,97.2 726.0,102.7 721.1,104.3 716.0,102.1 710.6,100.1 705.0,98.5 699.2,97.0 693.1,95.6 686.9,94.3 680.5,93.1 673.8,92.0 667.0,91.0 660.1,90.2 652.9,89.4 645.7,88.7 638.2,88.2 630.7,87.7 623.0,87.4 615.2,87.1 607.3,86.9 599.3,86.8 591.2,86.7 583.0,86.8 574.8,86.9 566.5,87.1 558.1,87.4 549.7,87.7 541.3,88.1 532.8,88.5 524.3,89.0 515.8,89.6 507.2,90.2 498.7,90.3 490.1,91.5 481.6,92.1 473.2,93.4 464.8,94.2 456.4,95.5 448.1,96.5 439.9,97.8 431.8,99.0 423.8,100.3 415.9,101.4 408.0,102.8 400.3,104.1 392.7,105.5 385.2,106.8 377.8,108.1 370.5,109.4 363.4,110.7 356.3,112.0 349.4,113.3 342.6,114.6 335.9,116.1 329.3,117.5 322.9,118.8 316.6,120.1 310.3,121.3 304.3,122.4 298.3,123.5 292.4,124.6 286.6,125.5 280.9,126.2 275.3,127.5 269.8,128.3 264.4,129.1 259.0,129.9 253.7,130.6 248.4,131.2 243.2,131.8 238.1,132.4 232.9,132.9 227.9,133.3 222.9,133.5 218.0,133.7 213.1,133.9 208.3,134.4 203.6,135.9 199.0,137.6 194.7,139.6 190.6,141.8 186.8,144.5 183.4,147.6 180.4,151.2 177.8,155.2 175.8,159.7 174.5,168.1 173.9,176.9 174.1,180.4 174.9,174.1 176.2,168.8 177.6,175.3 179.5,171.0 181.4,163.0 182.7,152.5 183.2,147.7 183.2,144.5 182.7,143.9 182.1,146.2 181.5,149.7 181.0,150.8 180.7,152.3 180.6,154.7 180.8,157.8 181.5,161.5 182.7,172.1 184.6,180.0 187.0,183.0 189.7,182.9 192.4,180.2 194.7,172.3 196.5,164.2 197.9,162.0 199.0,161.9 199.9,162.9 200.7,164.2 201.5,165.0 202.3,164.6 203.4,162.5 204.5,160.8 205.9,172.0 208.0,181.8 210.7,184.1 213.6,180.5 216.3,170.0 218.5,167.9 220.3,167.0 221.8,166.3 223.1,163.9 224.2,162.1 225.3,162.6 226.4,165.0 227.7,167.9 229.4,169.9 231.3,171.0 233.5,173.9 235.8,176.5 238.3,177.4 240.8,177.1 243.3,175.8 245.7,173.3 248.1,169.5 250.3,168.6 252.3,167.3 254.2,165.8 255.9,164.2 257.4,162.5 258.7,160.5 259.8,158.4 260.8,156.2 261.6,153.9 262.2,152.8 262.7,151.8 263.0,151.0 263.3,150.1 263.5,150.5 263.6,150.8 263.7,151.1 263.7,151.5 263.8,152.2 263.8,153.0 263.7,154.0 263.6,155.1 263.5,156.3 263.4,157.5 263.2,158.6 262.9,159.7 262.6,160.7 262.3,161.7 261.9,162.7 261.4,163.9 260.9,165.0 260.4,166.2 259.7,165.8 259.1,164.7 258.3,163.6 257.5,162.6 256.6,161.5 255.7,160.4 254.6,159.4 253.5,158.3 252.4,157.3 251.1,168.3 247.4,168.5 243.8,169.0 240.1,169.9 236.5,170.9 233.0,171.8 229.4,172.6 226.0,173.4 222.5,174.2 219.1,175.1 215.7,176.0 212.4,177.0 209.1,177.9 205.9,178.8 202.7,179.8 199.5,180.8 196.4,181.8 193.3,182.8 190.3,183.8 187.4,184.9 184.5,185.9 181.6,187.0 178.8,188.0 176.0,189.1 173.3,190.1 170.7,191.2 168.1,192.3 165.6,193.4 163.1,194.4 160.6,195.5 158.3,196.6 155.9,197.6 153.6,198.7 151.4,199.7 149.3,200.7 147.1,201.8 145.1,202.8 143.0,203.7 141.1,204.7 139.2,205.6 137.3,206.6 135.5,207.6 133.7,208.6 131.9,209.6 130.3,210.5 128.6,211.3 127.0,212.0 125.5,212.6 123.9,213.1 122.5,213.5 121.0,213.9 119.6,214.0 118.1,214.1 116.7,213.8 115.4,213.4 114.0,213.2 112.6,213.8 111.3,214.4 109.9,215.0 108.6,215.5 107.4,216.0 106.1,216.5 104.9,217.0 103.7,217.4 102.4,217.9 101.3,218.4 100.1,224.6 99.2,224.9 98.3,225.6 97.4,215.0 96.6,242.9 96.1,252.7 95.7,242.8 95.2,232.4 94.7,224.8 94.1,220.8 93.5,219.0 92.9,221.1 92.4,226.0 92.1,230.7 91.9,238.2 91.7,245.4 91.5,247.3 91.4,237.5 91.0,224.6 90.4,212.5 89.5,206.6 88.5,209.5 87.5,212.7 86.5,215.0 85.5,216.6 84.7,217.5 83.8,219.6 83.1,227.3 82.5,235.8 82.1,245.2 81.9,254.3 81.9,262.6 82.0,266.0 82.0,259.1 82.1,247.3 82.1,238.1 81.9,230.7 81.5,224.0 81.0,219.9 80.3,221.0 79.6,222.0 78.9,223.1 78.1,224.3 77.4,225.0 76.7,225.5 75.9,226.3 75.2,227.2 74.4,228.1 73.7,228.9 73.0,229.4 72.4,229.7 71.7,229.8 71.1,229.7 70.5,229.5 69.9,229.2 69.4,228.9 68.8,228.5 68.2,228.1 67.7,227.7 67.2,227.4 66.7,227.1 66.2,226.8 65.7,227.0 65.2,228.1 64.8,229.1 64.4,230.0 64.0,231.2 63.7,232.4 63.4,233.7 63.1,235.1 62.8,236.3 62.6,237.5 62.4,238.6 62.3,239.4 62.1,240.1 62.0,240.5 61.9,240.7 61.8,240.5 61.7,240.1 61.5,239.3 61.4,238.2 61.2,236.7 61.0,234.9 60.8,232.6 60.5,230.2 60.1,228.3 59.7,229.3 59.3,230.3 58.9,231.2 58.5,232.1 58.1,233.0 57.7,233.8 57.3,234.5 56.9,235.2 56.5,235.8 56.1,236.4 55.7,236.6 55.3,236.5 54.8,236.3 54.4,236.1 54.0,235.9"/>
<line x1="606" y1="42" x2="628" y2="42" stroke="#0f62fe" stroke-width="2.2"/>
<text x="634" y="46" font-family="Arial" font-size="12">load_factor_g</text>
</svg>