<svg xmlns="http://www.w3.org/2000/svg" width="820" height="320" viewBox="0 0 820 320">
<rect width="100%" height="100%" fill="#ffffff"/>
<text x="54" y="28" font-family="Arial" font-size="18" font-weight="700">Downrange/Crossrange</text>
<line x1="54" y1="266" x2="766" y2="266" stroke="#1f2933"/>
<line x1="54" y1="54" x2="54" y2="266" stroke="#1f2933"/>
<text x="54" y="306" font-family="Arial" font-size="12">downrange (m)</text>
<text x="596" y="306" font-family="Arial" font-size="12">crossrange (m)</text>
<text x="58" y="68" font-family="Arial" font-size="11">1</text>
<text x="58" y="260" font-family="Arial" font-size="11">-1</text>
<polyline fill="none" stroke="#0f62fe" stroke-width="2.2" points="54.0,160.0 54.5,160.0 55.0,160.0 55.5,160.0 56.0,160.0 56.5,160.0 57.1,160.0 57.6,160.0 58.1,160.0 58.6,160.0 59.2,160.0 59.7,160.0 60.2,160.0 60.8,160.0 61.3,160.0 61.9,160.0 62.4,160.0 63.0,160.0 63.5,160.0 64.1,160.0 64.7,160.0 65.2,160.0 65.8,160.0 66.4,160.0 67.0,160.0 67.6,160.0 68.2,160.0 68.8,160.0 69.3,160.0 69.9,160.0 70.6,160.0 71.2,160.0 71.8,160.0 72.4,160.0 73.0,160.0 73.6,160.0 74.2,160.0 74.9,160.0 75.5,160.0 76.1,160.0 76.8,160.0 77.4,160.0 78.1,160.0 78.7,160.0 79.4,160.0 80.0,160.0 80.7,160.0 81.3,160.0 82.0,160.0 82.7,160.0 83.4,160.0 84.0,160.0 84.7,160.0 85.4,160.0 86.1,160.0 86.8,160.0 87.5,160.0 88.2,160.0 88.9,160.0 89.6,160.0 90.3,160.0 91.0,160.0 91.7,160.0 92.4,160.0 93.2,160.0 93.9,160.0 94.6,160.0 95.3,160.0 96.1,160.0 96.8,160.0 97.6,160.0 98.3,160.0 99.0,160.0 99.8,160.0 100.6,160.0 101.3,160.0 102.1,160.0 102.8,160.0 103.6,160.0 104.4,160.0 105.2,160.0 105.9,160.0 106.7,160.0 107.5,160.0 108.3,160.0 109.1,160.0 109.9,160.0 110.7,160.0 111.5,160.0 112.3,160.0 113.1,160.0 113.9,160.0 114.7,160.0 115.5,160.0 116.3,160.0 117.2,160.0 118.0,160.0 118.8,160.0 119.7,160.0 120.5,160.0 121.3,160.0 122.2,160.0 123.0,160.0 123.9,160.0 124.7,160.0 125.6,160.0 126.4,160.0 127.3,160.0 128.2,160.0 129.0,160.0 129.9,160.0 130.8,160.0 131.7,160.0 132.5,160.0 133.4,160.0 134.3,160.0 135.2,160.0 136.1,160.0 137.0,160.0 137.9,160.0 138.8,160.0 139.7,160.0 140.6,160.0 141.5,160.0 142.4,160.0 143.3,160.0 144.2,160.0 145.2,160.0 146.1,160.0 147.0,160.0 148.0,160.0 148.9,160.0 149.8,160.0 150.8,160.0 151.7,160.0 152.7,160.0 153.6,160.0 154.5,160.0 155.5,160.0 156.5,160.0 157.4,160.0 158.4,160.0 159.3,160.0 160.3,160.0 161.3,160.0 162.3,160.0 163.2,160.0 164.2,160.0 165.2,160.0 166.2,160.0 167.2,160.0 168.2,160.0 169.2,160.0 170.1,160.0 171.1,160.0 172.1,160.0 173.2,160.0 174.2,160.0 175.2,160.0 176.2,160.0 177.2,160.0 178.2,160.0 179.2,160.0 180.3,160.0 181.3,160.0 182.3,160.0 183.3,160.0 184.4,160.0 185.4,160.0 186.5,160.0 187.5,160.0 188.5,160.0 189.6,160.0 190.6,160.0 191.7,160.0 192.7,160.0 193.8,160.0 194.9,160.0 195.9,160.0 197.0,160.0 198.1,160.0 199.1,160.0 200.2,160.0 201.3,160.0 202.4,160.0 203.4,160.0 204.5,160.0 205.6,160.0 206.7,160.0 207.8,160.0 208.9,160.0 210.0,160.0 211.1,160.0 212.2,160.0 213.3,160.0 214.4,160.0 215.5,160.0 216.6,160.0 217.7,160.0 218.9,160.0 220.0,160.0 221.1,160.0 222.2,160.0 223.3,160.0 224.5,160.0 225.6,160.0 226.7,160.0 227.9,160.0 229.0,160.0 230.2,160.0 231.3,160.0 232.5,160.0 233.6,160.0 234.8,160.0 235.9,160.0 237.1,160.0 238.2,160.0 239.4,160.0 240.6,160.0 241.7,160.0 242.9,160.0 244.1,160.0 245.3,160.0 246.4,160.0 247.6,160.0 248.8,160.0 250.0,160.0 251.2,160.0 252.4,160.0 253.5,160.0 254.7,160.0 255.9,160.0 257.1,160.0 258.3,160.0 259.5,160.0 260.7,160.0 261.9,160.0 263.2,160.0 264.4,160.0 265.6,160.0 266.8,160.0 268.0,160.0 269.2,160.0 270.5,160.0 271.7,160.0 272.9,160.0 274.2,160.0 275.4,160.0 276.6,160.0 277.9,160.0 279.1,160.0 280.3,160.0 281.6,160.0 282.8,160.0 284.1,160.0 285.3,160.0 286.6,160.0 287.9,160.0 289.1,160.0 290.4,160.0 291.6,160.0 292.9,160.0 294.2,160.0 295.5,160.0 296.7,160.0 298.0,160.0 299.3,160.0 300.6,160.0 301.8,160.0 303.1,160.0 304.4,160.0 305.7,160.0 307.0,160.0 308.3,160.0 309.6,160.0 310.9,160.0 312.2,160.0 313.5,160.0 314.8,160.0 316.1,160.0 317.4,160.0 318.7,160.0 320.0,160.0 321.3,160.0 322.6,160.0 323.9,160.0 325.3,160.0 326.6,160.0 327.9,160.0 329.2,160.0 330.6,160.0 331.9,160.0 333.2,160.0 334.5,160.0 335.9,160.0 337.2,160.0 338.6,160.0 339.9,160.0 341.2,160.0 342.6,160.0 343.9,160.0 345.3,160.0 346.6,160.0 348.0,160.0 349.3,160.0 350.7,160.0 352.1,160.0 353.4,160.0 354.8,160.0 356.2,160.0 357.5,160.0 358.9,160.0 360.3,160.0 361.6,160.0 363.0,160.0 364.4,160.0 365.8,160.0 367.2,160.0 368.6,160.0 369.9,160.0 371.3,160.0 372.7,160.0 374.1,160.0 375.5,160.0 376.9,160.0 378.3,160.0 379.7,160.0 381.1,160.0 382.5,160.0 383.9,160.0 385.4,160.0 386.8,160.0 388.2,160.0 389.6,160.0 391.0,160.0 392.4,160.0 393.9,160.0 395.3,160.0 396.7,160.0 398.1,160.0 399.6,160.0 401.0,160.0 402.4,160.0 403.9,160.0 405.3,160.0 406.8,160.0 408.2,160.0 409.6,160.0 411.1,160.0 412.5,160.0 414.0,160.0 415.4,160.0 416.9,160.0 418.3,160.0 419.8,160.0 421.2,160.0 422.7,160.0 424.2,160.0 425.6,160.0 427.1,160.0 428.5,160.0 430.0,160.0 431.5,160.0 432.9,160.0 434.4,160.0 435.9,160.0 437.3,160.0 438.8,160.0 440.3,160.0 441.8,160.0 443.2,160.0 444.7,160.0 446.2,160.0 447.7,160.0 449.1,160.0 450.6,160.0 452.1,160.0 453.6,160.0 455.1,160.0 456.6,160.0 458.0,160.0 459.5,160.0 461.0,160.0 462.5,160.0 464.0,160.0 465.5,160.0 467.0,160.0 468.5,160.0 470.0,160.0 471.5,160.0 473.0,160.0 474.5,160.0 476.0,160.0 477.5,160.0 479.0,160.0 480.5,160.0 482.0,160.0 483.5,160.0 485.1,160.0 486.6,160.0 488.1,160.0 489.6,160.0 491.1,160.0 492.6,160.0 494.2,160.0 495.7,160.0 497.2,160.0 498.7,160.0 500.3,160.0 501.8,160.0 503.3,160.0 504.9,160.0 506.4,160.0 507.9,160.0 509.5,160.0 511.0,160.0 512.5,160.0 514.1,160.0 515.6,160.0 517.2,160.0 518.7,160.0 520.2,160.0 521.8,160.0 523.3,160.0 524.9,160.0 526.4,160.0 528.0,160.0 529.5,160.0 531.1,160.0 532.6,160.0 534.2,160.0 535.8,160.0 537.3,160.0 538.9,160.0 540.4,160.0 542.0,160.0 543.6,160.0 545.1,160.0 546.7,160.0 548.2,160.0 549.8,160.0 551.3,160.0 552.8,160.0 554.4,160.0 555.9,160.0 557.4,160.0 559.0,160.0 560.5,160.0 562.0,160.0 563.5,160.0 565.0,160.0 566.6,160.0 568.1,160.0 569.6,160.0 571.1,160.0 572.6,160.0 574.1,160.0 575.6,160.0 577.1,160.0 578.6,160.0 580.1,160.0 581.6,160.0 583.0,160.0 584.5,160.0 586.0,160.0 587.5,160.0 588.9,160.0 590.4,160.0 591.9,160.0 593.4,160.0 594.8,160.0 596.3,160.0 597.7,160.0 599.2,160.0 600.7,160.0 602.1,160.0 603.6,160.0 605.0,160.0 606.4,160.0 607.9,160.0 609.3,160.0 610.8,160.0 612.2,160.0 613.6,160.0 615.1,160.0 616.5,160.0 617.9,160.0 619.3,160.0 620.8,160.0 622.2,160.0 623.6,160.0 625.0,160.0 626.4,160.0 627.8,160.0 629.2,160.0 630.6,160.0 632.0,160.0 633.4,160.0 634.8,160.0 636.2,160.0 637.6,160.0 639.0,160.0 640.4,160.0 641.8,160.0 643.2,160.0 644.5,160.0 645.9,160.0 647.3,160.0 648.7,160.0 650.0,160.0 651.4,160.0 652.8,160.0 654.1,160.0 655.5,160.0 656.9,160.0 658.2,160.0 659.6,160.0 660.9,160.0 662.3,160.0 663.6,160.0 665.0,160.0 666.3,160.0 667.7,160.0 669.0,160.0 670.3,160.0 671.7,160.0 673.0,160.0 674.3,160.0 675.7,160.0 677.0,160.0 678.3,160.0 679.6,160.0 680.9,160.0 682.3,160.0 683.6,160.0 684.9,160.0 686.2,160.0 687.5,160.0 688.8,160.0 690.1,160.0 691.4,160.0 692.7,160.0 694.0,160.0 695.3,160.0 696.6,160.0 697.9,160.0 699.2,160.0 700.5,160.0 701.8,160.0 703.1,160.0 704.3,160.0 705.6,160.0 706.9,160.0 708.2,160.0 709.4,160.0 710.7,160.0 712.0,160.0 713.3,160.0 714.5,160.0 715.8,160.0 717.0,160.0 718.3,160.0 719.6,160.0 720.8,160.0 722.1,160.0 723.3,160.0 724.6,160.0 725.8,160.0 727.1,160.0 728.3,160.0 729.6,160.0 730.8,160.0 732.0,160.0 733.3,160.0 734.5,160.0 735.8,160.0 737.0,160.0 738.2,160.0 739.4,160.0 740.7,160.0 741.9,160.0 743.1,160.0 744.3,160.0 745.6,160.0 746.8,160.0 748.0,160.0 749.2,160.0 750.4,160.0 751.6,160.0 752.8,160.0 754.0,160.0 755.2,160.0 756.4,160.0 757.6,160.0 758.8,160.0 760.0,160.0 761.2,160.0 762.4,160.0 763.6,160.0 764.8,160.0 766.0,160.0"/>
<line x1="606" y1="42" x2="628" y2="42" stroke="#0f62fe" stroke-width="2.2"/>
<text x="634" y="46" font-family="Arial" font-size="12">y_m</text>
</svg>