<svg xmlns="http://www.w3.org/2000/svg" width="820" height="320" viewBox="0 0 820 320">
<rect width="100%" height="100%" fill="#ffffff"/>
<text x="54" y="28" font-family="Arial" font-size="18" font-weight="700">Downrange Position</text>
<line x1="54" y1="266" x2="766" y2="266" stroke="#1f2933"/>
<line x1="54" y1="54" x2="54" y2="266" stroke="#1f2933"/>
<text x="54" y="306" font-family="Arial" font-size="12">time (s)</text>
<text x="596" y="306" font-family="Arial" font-size="12">x (m)</text>
<text x="58" y="68" font-family="Arial" font-size="11">3.64e+03</text>
<text x="58" y="260" font-family="Arial" font-size="11">0</text>
<polyline fill="none" stroke="#0f62fe" stroke-width="2.2" points="54.0,266.0 55.2,265.9 56.4,265.7 57.6,265.5 58.7,265.4 59.9,265.2 61.1,265.1 62.3,264.9 63.5,264.8 64.7,264.6 65.9,264.5 67.1,264.3 68.2,264.1 69.4,264.0 70.6,263.8 71.8,263.7 73.0,263.5 74.2,263.3 75.4,263.2 76.5,263.0 77.7,262.8 78.9,262.7 80.1,262.5 81.3,262.3 82.5,262.1 83.7,262.0 84.9,261.8 86.0,261.6 87.2,261.4 88.4,261.3 89.6,261.1 90.8,260.9 92.0,260.7 93.2,260.5 94.3,260.3 95.5,260.2 96.7,260.0 97.9,259.8 99.1,259.6 100.3,259.4 101.5,259.2 102.7,259.0 103.8,258.8 105.0,258.6 106.2,258.4 107.4,258.3 108.6,258.1 109.8,257.9 111.0,257.7 112.1,257.5 113.3,257.3 114.5,257.1 115.7,256.9 116.9,256.7 118.1,256.4 119.3,256.2 120.5,256.0 121.6,255.8 122.8,255.6 124.0,255.4 125.2,255.2 126.4,255.0 127.6,254.8 128.8,254.6 129.9,254.3 131.1,254.1 132.3,253.9 133.5,253.7 134.7,253.5 135.9,253.3 137.1,253.0 138.3,252.8 139.4,252.6 140.6,252.4 141.8,252.1 143.0,251.9 144.2,251.7 145.4,251.5 146.6,251.2 147.7,251.0 148.9,250.8 150.1,250.5 151.3,250.3 152.5,250.1 153.7,249.8 154.9,249.6 156.1,249.4 157.2,249.1 158.4,248.9 159.6,248.6 160.8,248.4 162.0,248.2 163.2,247.9 164.4,247.7 165.5,247.4 166.7,247.2 167.9,246.9 169.1,246.7 170.3,246.4 171.5,246.2 172.7,246.0 173.9,245.7 175.0,245.4 176.2,245.2 177.4,244.9 178.6,244.7 179.8,244.4 181.0,244.2 182.2,243.9 183.3,243.7 184.5,243.4 185.7,243.1 186.9,242.9 188.1,242.6 189.3,242.4 190.5,242.1 191.7,241.8 192.8,241.6 194.0,241.3 195.2,241.0 196.4,240.8 197.6,240.5 198.8,240.2 200.0,239.9 201.1,239.7 202.3,239.4 203.5,239.1 204.7,238.9 205.9,238.6 207.1,238.3 208.3,238.0 209.5,237.7 210.6,237.5 211.8,237.2 213.0,236.9 214.2,236.6 215.4,236.3 216.6,236.1 217.8,235.8 218.9,235.5 220.1,235.2 221.3,234.9 222.5,234.6 223.7,234.3 224.9,234.1 226.1,233.8 227.3,233.5 228.4,233.2 229.6,232.9 230.8,232.6 232.0,232.3 233.2,232.0 234.4,231.7 235.6,231.4 236.7,231.1 237.9,230.8 239.1,230.5 240.3,230.2 241.5,229.9 242.7,229.6 243.9,229.3 245.1,229.0 246.2,228.7 247.4,228.4 248.6,228.1 249.8,227.8 251.0,227.5 252.2,227.2 253.4,226.9 254.5,226.6 255.7,226.3 256.9,225.9 258.1,225.6 259.3,225.3 260.5,225.0 261.7,224.7 262.9,224.4 264.0,224.1 265.2,223.7 266.4,223.4 267.6,223.1 268.8,222.8 270.0,222.5 271.2,222.1 272.3,221.8 273.5,221.5 274.7,221.2 275.9,220.9 277.1,220.5 278.3,220.2 279.5,219.9 280.7,219.6 281.8,219.2 283.0,218.9 284.2,218.6 285.4,218.2 286.6,217.9 287.8,217.6 289.0,217.2 290.1,216.9 291.3,216.6 292.5,216.2 293.7,215.9 294.9,215.6 296.1,215.2 297.3,214.9 298.5,214.6 299.6,214.2 300.8,213.9 302.0,213.5 303.2,213.2 304.4,212.9 305.6,212.5 306.8,212.2 307.9,211.8 309.1,211.5 310.3,211.1 311.5,210.8 312.7,210.4 313.9,210.1 315.1,209.8 316.3,209.4 317.4,209.1 318.6,208.7 319.8,208.4 321.0,208.0 322.2,207.6 323.4,207.3 324.6,206.9 325.7,206.6 326.9,206.2 328.1,205.9 329.3,205.5 330.5,205.2 331.7,204.8 332.9,204.4 334.1,204.1 335.2,203.7 336.4,203.4 337.6,203.0 338.8,202.6 340.0,202.3 341.2,201.9 342.4,201.5 343.5,201.2 344.7,200.8 345.9,200.4 347.1,200.1 348.3,199.7 349.5,199.3 350.7,199.0 351.9,198.6 353.0,198.2 354.2,197.9 355.4,197.5 356.6,197.1 357.8,196.7 359.0,196.4 360.2,196.0 361.3,195.6 362.5,195.2 363.7,194.9 364.9,194.5 366.1,194.1 367.3,193.7 368.5,193.3 369.7,193.0 370.8,192.6 372.0,192.2 373.2,191.8 374.4,191.4 375.6,191.1 376.8,190.7 378.0,190.3 379.1,189.9 380.3,189.5 381.5,189.1 382.7,188.7 383.9,188.4 385.1,188.0 386.3,187.6 387.5,187.2 388.6,186.8 389.8,186.4 391.0,186.0 392.2,185.6 393.4,185.2 394.6,184.8 395.8,184.4 396.9,184.0 398.1,183.7 399.3,183.3 400.5,182.9 401.7,182.5 402.9,182.1 404.1,181.7 405.3,181.3 406.4,180.9 407.6,180.5 408.8,180.1 410.0,179.7 411.2,179.3 412.4,178.9 413.6,178.5 414.7,178.1 415.9,177.7 417.1,177.2 418.3,176.8 419.5,176.4 420.7,176.0 421.9,175.6 423.1,175.2 424.2,174.8 425.4,174.4 426.6,174.0 427.8,173.6 429.0,173.2 430.2,172.8 431.4,172.3 432.5,171.9 433.7,171.5 434.9,171.1 436.1,170.7 437.3,170.3 438.5,169.8 439.7,169.4 440.9,169.0 442.0,168.6 443.2,168.2 444.4,167.8 445.6,167.3 446.8,166.9 448.0,166.5 449.2,166.1 450.3,165.7 451.5,165.2 452.7,164.8 453.9,164.4 455.1,164.0 456.3,163.5 457.5,163.1 458.7,162.7 459.8,162.2 461.0,161.8 462.2,161.4 463.4,161.0 464.6,160.5 465.8,160.1 467.0,159.7 468.1,159.2 469.3,158.8 470.5,158.4 471.7,158.0 472.9,157.5 474.1,157.1 475.3,156.7 476.5,156.2 477.6,155.8 478.8,155.4 480.0,154.9 481.2,154.5 482.4,154.0 483.6,153.6 484.8,153.2 485.9,152.7 487.1,152.3 488.3,151.9 489.5,151.4 490.7,151.0 491.9,150.5 493.1,150.1 494.3,149.7 495.4,149.2 496.6,148.8 497.8,148.3 499.0,147.9 500.2,147.5 501.4,147.0 502.6,146.6 503.7,146.1 504.9,145.7 506.1,145.3 507.3,144.8 508.5,144.4 509.7,143.9 510.9,143.5 512.1,143.0 513.2,142.6 514.4,142.1 515.6,141.7 516.8,141.2 518.0,140.8 519.2,140.3 520.4,139.9 521.5,139.4 522.7,139.0 523.9,138.6 525.1,138.1 526.3,137.7 527.5,137.2 528.7,136.7 529.9,136.3 531.0,135.8 532.2,135.4 533.4,134.9 534.6,134.5 535.8,134.0 537.0,133.6 538.2,133.1 539.3,132.7 540.5,132.2 541.7,131.8 542.9,131.3 544.1,130.8 545.3,130.4 546.5,129.9 547.7,129.5 548.8,129.0 550.0,128.6 551.2,128.1 552.4,127.6 553.6,127.2 554.8,126.7 556.0,126.3 557.1,125.8 558.3,125.3 559.5,124.9 560.7,124.4 561.9,123.9 563.1,123.5 564.3,123.0 565.5,122.6 566.6,122.1 567.8,121.6 569.0,121.2 570.2,120.7 571.4,120.2 572.6,119.8 573.8,119.3 574.9,118.8 576.1,118.4 577.3,117.9 578.5,117.5 579.7,117.0 580.9,116.6 582.1,116.1 583.3,115.6 584.4,115.2 585.6,114.7 586.8,114.3 588.0,113.8 589.2,113.4 590.4,112.9 591.6,112.5 592.7,112.0 593.9,111.6 595.1,111.1 596.3,110.7 597.5,110.3 598.7,109.8 599.9,109.4 601.1,108.9 602.2,108.5 603.4,108.0 604.6,107.6 605.8,107.2 607.0,106.7 608.2,106.3 609.4,105.8 610.5,105.4 611.7,105.0 612.9,104.5 614.1,104.1 615.3,103.7 616.5,103.2 617.7,102.8 618.9,102.4 620.0,101.9 621.2,101.5 622.4,101.1 623.6,100.6 624.8,100.2 626.0,99.8 627.2,99.4 628.3,98.9 629.5,98.5 630.7,98.1 631.9,97.7 633.1,97.2 634.3,96.8 635.5,96.4 636.7,96.0 637.8,95.6 639.0,95.1 640.2,94.7 641.4,94.3 642.6,93.9 643.8,93.5 645.0,93.1 646.1,92.6 647.3,92.2 648.5,91.8 649.7,91.4 650.9,91.0 652.1,90.6 653.3,90.2 654.5,89.8 655.6,89.3 656.8,88.9 658.0,88.5 659.2,88.1 660.4,87.7 661.6,87.3 662.8,86.9 663.9,86.5 665.1,86.1 666.3,85.7 667.5,85.3 668.7,84.9 669.9,84.5 671.1,84.1 672.3,83.7 673.4,83.3 674.6,82.9 675.8,82.5 677.0,82.1 678.2,81.7 679.4,81.3 680.6,80.9 681.7,80.5 682.9,80.1 684.1,79.7 685.3,79.3 686.5,78.9 687.7,78.5 688.9,78.2 690.1,77.8 691.2,77.4 692.4,77.0 693.6,76.6 694.8,76.2 696.0,75.8 697.2,75.4 698.4,75.0 699.5,74.7 700.7,74.3 701.9,73.9 703.1,73.5 704.3,73.1 705.5,72.7 706.7,72.4 707.9,72.0 709.0,71.6 710.2,71.2 711.4,70.8 712.6,70.5 713.8,70.1 715.0,69.7 716.2,69.3 717.3,69.0 718.5,68.6 719.7,68.2 720.9,67.8 722.1,67.5 723.3,67.1 724.5,66.7 725.7,66.3 726.8,66.0 728.0,65.6 729.2,65.2 730.4,64.8 731.6,64.5 732.8,64.1 734.0,63.7 735.1,63.4 736.3,63.0 737.5,62.6 738.7,62.3 739.9,61.9 741.1,61.5 742.3,61.2 743.5,60.8 744.6,60.5 745.8,60.1 747.0,59.7 748.2,59.4 749.4,59.0 750.6,58.6 751.8,58.3 752.9,57.9 754.1,57.6 755.3,57.2 756.5,56.8 757.7,56.5 758.9,56.1 760.1,55.8 761.3,55.4 762.4,55.1 763.6,54.7 764.8,54.4 766.0,54.0"/>
<line x1="606" y1="42" x2="628" y2="42" stroke="#0f62fe" stroke-width="2.2"/>
<text x="634" y="46" font-family="Arial" font-size="12">x_m</text>
</svg>