<svg xmlns="http://www.w3.org/2000/svg" width="820" height="320" viewBox="0 0 820 320">
<rect width="100%" height="100%" fill="#ffffff"/>
<text x="54" y="28" font-family="Arial" font-size="18" font-weight="700">Altitude Position</text>
<line x1="54" y1="266" x2="766" y2="266" stroke="#1f2933"/>
<line x1="54" y1="54" x2="54" y2="266" stroke="#1f2933"/>
<text x="54" y="306" font-family="Arial" font-size="12">time (s)</text>
<text x="596" y="306" font-family="Arial" font-size="12">z (m)</text>
<text x="58" y="68" font-family="Arial" font-size="11">348</text>
<text x="58" y="260" font-family="Arial" font-size="11">20</text>
<polyline fill="none" stroke="#0f62fe" stroke-width="2.2" points="54.0,266.0 55.2,265.8 56.4,265.7 57.6,265.6 58.7,265.4 59.9,265.3 61.1,265.2 62.3,265.0 63.5,264.9 64.7,264.8 65.9,264.6 67.1,264.5 68.2,264.4 69.4,264.3 70.6,264.2 71.8,264.1 73.0,264.0 74.2,263.9 75.4,263.8 76.5,263.7 77.7,263.6 78.9,263.5 80.1,263.4 81.3,263.3 82.5,263.2 83.7,263.1 84.9,263.0 86.0,262.9 87.2,262.8 88.4,262.7 89.6,262.7 90.8,262.6 92.0,262.5 93.2,262.4 94.3,262.3 95.5,262.3 96.7,262.2 97.9,262.1 99.1,262.1 100.3,262.0 101.5,261.9 102.7,261.8 103.8,261.8 105.0,261.7 106.2,261.7 107.4,261.6 108.6,261.5 109.8,261.5 111.0,261.4 112.1,261.3 113.3,261.3 114.5,261.2 115.7,261.2 116.9,261.1 118.1,261.1 119.3,261.0 120.5,261.0 121.6,260.9 122.8,260.8 124.0,260.8 125.2,260.7 126.4,260.7 127.6,260.6 128.8,260.6 129.9,260.5 131.1,260.5 132.3,260.4 133.5,260.4 134.7,260.3 135.9,260.3 137.1,260.2 138.3,260.2 139.4,260.2 140.6,260.1 141.8,260.1 143.0,260.0 144.2,260.0 145.4,259.9 146.6,259.9 147.7,259.8 148.9,259.8 150.1,259.7 151.3,259.7 152.5,259.6 153.7,259.6 154.9,259.5 156.1,259.5 157.2,259.4 158.4,259.4 159.6,259.3 160.8,259.3 162.0,259.2 163.2,259.2 164.4,259.1 165.5,259.1 166.7,259.0 167.9,258.9 169.1,258.9 170.3,258.8 171.5,258.8 172.7,258.7 173.9,258.6 175.0,258.6 176.2,258.5 177.4,258.5 178.6,258.4 179.8,258.3 181.0,258.2 182.2,258.2 183.3,258.1 184.5,258.0 185.7,257.9 186.9,257.9 188.1,257.8 189.3,257.7 190.5,257.6 191.7,257.5 192.8,257.4 194.0,257.4 195.2,257.3 196.4,257.2 197.6,257.1 198.8,257.0 200.0,256.9 201.1,256.8 202.3,256.7 203.5,256.6 204.7,256.5 205.9,256.3 207.1,256.2 208.3,256.1 209.5,256.0 210.6,255.9 211.8,255.7 213.0,255.6 214.2,255.5 215.4,255.4 216.6,255.2 217.8,255.1 218.9,254.9 220.1,254.8 221.3,254.7 222.5,254.5 223.7,254.4 224.9,254.2 226.1,254.1 227.3,253.9 228.4,253.7 229.6,253.6 230.8,253.4 232.0,253.2 233.2,253.0 234.4,252.9 235.6,252.7 236.7,252.5 237.9,252.3 239.1,252.1 240.3,251.9 241.5,251.7 242.7,251.5 243.9,251.3 245.1,251.1 246.2,250.9 247.4,250.7 248.6,250.5 249.8,250.3 251.0,250.1 252.2,249.8 253.4,249.6 254.5,249.4 255.7,249.2 256.9,248.9 258.1,248.7 259.3,248.4 260.5,248.2 261.7,247.9 262.9,247.7 264.0,247.4 265.2,247.2 266.4,246.9 267.6,246.7 268.8,246.4 270.0,246.1 271.2,245.8 272.3,245.6 273.5,245.3 274.7,245.0 275.9,244.7 277.1,244.4 278.3,244.1 279.5,243.9 280.7,243.6 281.8,243.2 283.0,242.9 284.2,242.6 285.4,242.3 286.6,242.0 287.8,241.7 289.0,241.4 290.1,241.1 291.3,240.7 292.5,240.4 293.7,240.1 294.9,239.7 296.1,239.4 297.3,239.0 298.5,238.7 299.6,238.4 300.8,238.0 302.0,237.7 303.2,237.3 304.4,237.0 305.6,236.6 306.8,236.3 307.9,235.9 309.1,235.5 310.3,235.2 311.5,234.8 312.7,234.4 313.9,234.1 315.1,233.7 316.3,233.3 317.4,232.9 318.6,232.6 319.8,232.2 321.0,231.8 322.2,231.4 323.4,231.0 324.6,230.6 325.7,230.2 326.9,229.7 328.1,229.3 329.3,228.9 330.5,228.5 331.7,228.1 332.9,227.6 334.1,227.2 335.2,226.7 336.4,226.3 337.6,225.9 338.8,225.4 340.0,225.0 341.2,224.5 342.4,224.1 343.5,223.6 344.7,223.2 345.9,222.7 347.1,222.3 348.3,221.8 349.5,221.3 350.7,220.9 351.9,220.4 353.0,220.0 354.2,219.5 355.4,219.0 356.6,218.6 357.8,218.1 359.0,217.6 360.2,217.2 361.3,216.7 362.5,216.2 363.7,215.7 364.9,215.3 366.1,214.8 367.3,214.3 368.5,213.8 369.7,213.3 370.8,212.8 372.0,212.3 373.2,211.8 374.4,211.3 375.6,210.8 376.8,210.3 378.0,209.8 379.1,209.3 380.3,208.7 381.5,208.2 382.7,207.7 383.9,207.2 385.1,206.6 386.3,206.1 387.5,205.6 388.6,205.0 389.8,204.5 391.0,203.9 392.2,203.4 393.4,202.8 394.6,202.3 395.8,201.7 396.9,201.1 398.1,200.6 399.3,200.0 400.5,199.5 401.7,198.9 402.9,198.3 404.1,197.8 405.3,197.2 406.4,196.6 407.6,196.0 408.8,195.5 410.0,194.9 411.2,194.3 412.4,193.8 413.6,193.2 414.7,192.6 415.9,192.1 417.1,191.5 418.3,190.9 419.5,190.4 420.7,189.8 421.9,189.2 423.1,188.7 424.2,188.1 425.4,187.5 426.6,187.0 427.8,186.4 429.0,185.9 430.2,185.3 431.4,184.7 432.5,184.2 433.7,183.6 434.9,183.1 436.1,182.5 437.3,182.0 438.5,181.4 439.7,180.9 440.9,180.3 442.0,179.8 443.2,179.3 444.4,178.7 445.6,178.2 446.8,177.6 448.0,177.1 449.2,176.6 450.3,176.0 451.5,175.5 452.7,175.0 453.9,174.5 455.1,173.9 456.3,173.4 457.5,172.9 458.7,172.4 459.8,171.8 461.0,171.3 462.2,170.8 463.4,170.2 464.6,169.7 465.8,169.2 467.0,168.6 468.1,168.1 469.3,167.6 470.5,167.0 471.7,166.5 472.9,165.9 474.1,165.4 475.3,164.9 476.5,164.3 477.6,163.8 478.8,163.2 480.0,162.7 481.2,162.1 482.4,161.5 483.6,161.0 484.8,160.4 485.9,159.8 487.1,159.3 488.3,158.7 489.5,158.1 490.7,157.5 491.9,157.0 493.1,156.4 494.3,155.8 495.4,155.2 496.6,154.6 497.8,154.0 499.0,153.4 500.2,152.8 501.4,152.2 502.6,151.6 503.7,150.9 504.9,150.3 506.1,149.7 507.3,149.1 508.5,148.5 509.7,147.9 510.9,147.2 512.1,146.6 513.2,146.0 514.4,145.4 515.6,144.7 516.8,144.1 518.0,143.5 519.2,142.8 520.4,142.2 521.5,141.6 522.7,141.0 523.9,140.3 525.1,139.7 526.3,139.1 527.5,138.5 528.7,137.8 529.9,137.2 531.0,136.6 532.2,136.0 533.4,135.3 534.6,134.7 535.8,134.1 537.0,133.5 538.2,132.9 539.3,132.3 540.5,131.6 541.7,131.0 542.9,130.4 544.1,129.8 545.3,129.2 546.5,128.6 547.7,128.0 548.8,127.4 550.0,126.8 551.2,126.2 552.4,125.6 553.6,125.0 554.8,124.4 556.0,123.8 557.1,123.2 558.3,122.6 559.5,122.0 560.7,121.4 561.9,120.8 563.1,120.2 564.3,119.6 565.5,119.0 566.6,118.5 567.8,117.9 569.0,117.3 570.2,116.7 571.4,116.2 572.6,115.6 573.8,115.0 574.9,114.5 576.1,113.9 577.3,113.3 578.5,112.8 579.7,112.2 580.9,111.7 582.1,111.2 583.3,110.6 584.4,110.1 585.6,109.6 586.8,109.0 588.0,108.5 589.2,108.0 590.4,107.5 591.6,107.0 592.7,106.5 593.9,106.0 595.1,105.5 596.3,105.0 597.5,104.5 598.7,104.0 599.9,103.5 601.1,103.0 602.2,102.5 603.4,102.0 604.6,101.6 605.8,101.1 607.0,100.6 608.2,100.2 609.4,99.7 610.5,99.3 611.7,98.8 612.9,98.4 614.1,97.9 615.3,97.5 616.5,97.0 617.7,96.6 618.9,96.2 620.0,95.7 621.2,95.3 622.4,94.9 623.6,94.5 624.8,94.1 626.0,93.7 627.2,93.3 628.3,92.8 629.5,92.4 630.7,92.0 631.9,91.6 633.1,91.3 634.3,90.9 635.5,90.5 636.7,90.1 637.8,89.7 639.0,89.3 640.2,88.9 641.4,88.5 642.6,88.2 643.8,87.8 645.0,87.4 646.1,87.0 647.3,86.7 648.5,86.3 649.7,85.9 650.9,85.6 652.1,85.2 653.3,84.8 654.5,84.5 655.6,84.1 656.8,83.7 658.0,83.4 659.2,83.0 660.4,82.6 661.6,82.3 662.8,81.9 663.9,81.6 665.1,81.2 666.3,80.9 667.5,80.5 668.7,80.2 669.9,79.8 671.1,79.5 672.3,79.1 673.4,78.8 674.6,78.4 675.8,78.1 677.0,77.7 678.2,77.4 679.4,77.0 680.6,76.7 681.7,76.4 682.9,76.0 684.1,75.7 685.3,75.3 686.5,75.0 687.7,74.7 688.9,74.3 690.1,74.0 691.2,73.6 692.4,73.3 693.6,73.0 694.8,72.6 696.0,72.3 697.2,72.0 698.4,71.7 699.5,71.3 700.7,71.0 701.9,70.7 703.1,70.3 704.3,70.0 705.5,69.7 706.7,69.4 707.9,69.0 709.0,68.7 710.2,68.4 711.4,68.1 712.6,67.7 713.8,67.4 715.0,67.1 716.2,66.8 717.3,66.5 718.5,66.2 719.7,65.8 720.9,65.5 722.1,65.2 723.3,64.9 724.5,64.6 725.7,64.3 726.8,63.9 728.0,63.6 729.2,63.3 730.4,63.0 731.6,62.7 732.8,62.4 734.0,62.1 735.1,61.8 736.3,61.5 737.5,61.2 738.7,60.9 739.9,60.6 741.1,60.2 742.3,59.9 743.5,59.6 744.6,59.3 745.8,59.0 747.0,58.7 748.2,58.4 749.4,58.1 750.6,57.8 751.8,57.5 752.9,57.2 754.1,56.9 755.3,56.6 756.5,56.3 757.7,56.1 758.9,55.8 760.1,55.5 761.3,55.2 762.4,54.9 763.6,54.6 764.8,54.3 766.0,54.0"/>
<line x1="606" y1="42" x2="628" y2="42" stroke="#0f62fe" stroke-width="2.2"/>
<text x="634" y="46" font-family="Arial" font-size="12">altitude_m</text>
</svg>