<svg xmlns="http://www.w3.org/2000/svg" width="820" height="320" viewBox="0 0 820 320">
<rect width="100%" height="100%" fill="#ffffff"/>
<text x="54" y="28" font-family="Arial" font-size="18" font-weight="700">Velocity Z</text>
<line x1="54" y1="266" x2="766" y2="266" stroke="#1f2933"/>
<line x1="54" y1="54" x2="54" y2="266" stroke="#1f2933"/>
<text x="54" y="306" font-family="Arial" font-size="12">time (s)</text>
<text x="596" y="306" font-family="Arial" font-size="12">vz (m/s)</text>
<text x="58" y="68" font-family="Arial" font-size="11">32.4</text>
<text x="58" y="260" font-family="Arial" font-size="11">2.46</text>
<polyline fill="none" stroke="#0f62fe" stroke-width="2.2" points="54.0,226.7 55.2,228.4 56.4,229.9 57.6,231.3 58.7,232.6 59.9,233.8 61.1,234.9 62.3,236.0 63.5,237.1 64.7,238.1 65.9,239.1 67.1,240.0 68.2,240.9 69.4,241.7 70.6,242.6 71.8,243.4 73.0,244.1 74.2,244.9 75.4,245.6 76.5,246.3 77.7,247.0 78.9,247.7 80.1,248.4 81.3,249.1 82.5,249.7 83.7,250.3 84.9,251.0 86.0,251.6 87.2,252.2 88.4,252.7 89.6,253.3 90.8,253.9 92.0,254.4 93.2,254.9 94.3,255.5 95.5,256.0 96.7,256.5 97.9,256.9 99.1,257.4 100.3,257.9 101.5,258.3 102.7,258.7 103.8,259.2 105.0,259.6 106.2,260.0 107.4,260.3 108.6,260.7 109.8,261.1 111.0,261.4 112.1,261.8 113.3,262.1 114.5,262.4 115.7,262.7 116.9,263.0 118.1,263.2 119.3,263.5 120.5,263.7 121.6,264.0 122.8,264.2 124.0,264.4 125.2,264.6 126.4,264.8 127.6,264.9 128.8,265.1 129.9,265.2 131.1,265.4 132.3,265.5 133.5,265.6 134.7,265.7 135.9,265.8 137.1,265.8 138.3,265.9 139.4,265.9 140.6,266.0 141.8,266.0 143.0,266.0 144.2,266.0 145.4,266.0 146.6,265.9 147.7,265.9 148.9,265.9 150.1,265.8 151.3,265.7 152.5,265.6 153.7,265.5 154.9,265.4 156.1,265.2 157.2,265.1 158.4,264.9 159.6,264.7 160.8,264.4 162.0,264.2 163.2,263.9 164.4,263.7 165.5,263.4 166.7,263.0 167.9,262.7 169.1,262.4 170.3,262.0 171.5,261.6 172.7,261.2 173.9,260.7 175.0,260.3 176.2,259.8 177.4,259.3 178.6,258.8 179.8,258.3 181.0,257.8 182.2,257.2 183.3,256.6 184.5,256.0 185.7,255.4 186.9,254.8 188.1,254.1 189.3,253.5 190.5,252.8 191.7,252.1 192.8,251.4 194.0,250.7 195.2,249.9 196.4,249.2 197.6,248.4 198.8,247.6 200.0,246.8 201.1,246.0 202.3,245.2 203.5,244.3 204.7,243.5 205.9,242.6 207.1,241.7 208.3,240.8 209.5,239.9 210.6,239.0 211.8,238.1 213.0,237.1 214.2,236.2 215.4,235.2 216.6,234.3 217.8,233.3 218.9,232.3 220.1,231.3 221.3,230.3 222.5,229.3 223.7,228.2 224.9,227.2 226.1,226.2 227.3,225.1 228.4,224.1 229.6,223.0 230.8,221.9 232.0,220.9 233.2,219.8 234.4,218.7 235.6,217.6 236.7,216.5 237.9,215.4 239.1,214.3 240.3,213.2 241.5,212.1 242.7,211.0 243.9,209.8 245.1,208.7 246.2,207.6 247.4,206.4 248.6,205.3 249.8,204.2 251.0,203.0 252.2,201.9 253.4,200.8 254.5,199.6 255.7,198.5 256.9,197.3 258.1,196.2 259.3,195.0 260.5,193.9 261.7,192.8 262.9,191.6 264.0,190.5 265.2,189.3 266.4,188.2 267.6,187.0 268.8,185.9 270.0,184.8 271.2,183.6 272.3,182.5 273.5,181.4 274.7,180.2 275.9,179.2 277.1,177.9 278.3,177.2 279.5,175.6 280.7,174.6 281.8,172.8 283.0,172.1 284.2,170.8 285.4,170.3 286.6,168.9 287.8,168.1 289.0,166.4 290.1,165.5 291.3,163.8 292.5,163.1 293.7,161.6 294.9,161.1 296.1,159.7 297.3,159.4 298.5,158.2 299.6,158.0 300.8,156.9 302.0,156.8 303.2,155.7 304.4,155.5 305.6,154.3 306.8,153.9 307.9,152.6 309.1,152.1 310.3,150.7 311.5,150.1 312.7,148.6 313.9,147.9 315.1,146.3 316.3,145.5 317.4,143.8 318.6,143.0 319.8,141.1 321.0,140.2 322.2,138.3 323.4,137.3 324.6,135.4 325.7,134.3 326.9,132.2 328.1,131.1 329.3,129.1 330.5,128.2 331.7,126.3 332.9,125.6 334.1,124.0 335.2,123.5 336.4,122.1 337.6,121.7 338.8,120.5 340.0,120.3 341.2,119.2 342.4,119.2 343.5,118.2 344.7,118.3 345.9,117.5 347.1,117.7 348.3,116.8 349.5,116.9 350.7,115.9 351.9,116.0 353.0,114.9 354.2,114.9 355.4,113.7 356.6,113.6 357.8,112.3 359.0,112.2 360.2,110.9 361.3,110.6 362.5,109.2 363.7,108.9 364.9,107.5 366.1,107.2 367.3,105.7 368.5,105.3 369.7,103.7 370.8,103.3 372.0,101.7 373.2,101.2 374.4,99.5 375.6,99.0 376.8,97.3 378.0,96.7 379.1,95.0 380.3,94.3 381.5,92.5 382.7,91.9 383.9,90.0 385.1,89.3 386.3,87.4 387.5,86.6 388.6,84.8 389.8,84.2 391.0,82.6 392.2,82.2 393.4,80.7 394.6,80.5 395.8,79.2 396.9,79.1 398.1,77.9 399.3,78.0 400.5,76.9 401.7,77.1 402.9,76.2 404.1,76.5 405.3,75.6 406.4,76.1 407.6,75.3 408.8,75.8 410.0,75.1 411.2,75.8 412.4,75.1 413.6,75.8 414.7,75.3 415.9,76.1 417.1,75.6 418.3,76.5 419.5,76.0 420.7,77.0 421.9,76.6 423.1,77.6 424.2,77.2 425.4,78.3 426.6,78.0 427.8,79.1 429.0,78.8 430.2,80.0 431.4,79.8 432.5,81.0 433.7,80.8 434.9,82.0 436.1,81.9 437.3,83.1 438.5,83.0 439.7,84.3 440.9,84.2 442.0,85.6 443.2,85.5 444.4,86.9 445.6,86.9 446.8,88.3 448.0,88.3 449.2,89.6 450.3,89.4 451.5,90.6 452.7,90.1 453.9,91.1 455.1,90.5 456.3,91.3 457.5,90.5 458.7,91.2 459.8,90.3 461.0,90.8 462.2,89.8 463.4,90.2 464.6,89.0 465.8,89.4 467.0,88.1 468.1,88.3 469.3,87.0 470.5,87.2 471.7,85.7 472.9,85.8 474.1,84.3 475.3,84.3 476.5,82.8 477.6,82.7 478.8,81.1 480.0,81.0 481.2,79.4 482.4,79.3 483.6,77.5 484.8,77.4 485.9,75.6 487.1,75.4 488.3,73.6 489.5,73.3 490.7,71.4 491.9,71.1 493.1,69.1 494.3,68.7 495.4,66.7 496.6,66.3 497.8,64.3 499.0,63.8 500.2,61.8 501.4,61.6 502.6,59.8 503.7,59.7 504.9,58.1 506.1,58.3 507.3,56.8 508.5,57.1 509.7,55.8 510.9,56.2 512.1,55.0 513.2,55.5 514.4,54.5 515.6,55.1 516.8,54.1 518.0,54.9 519.2,54.0 520.4,54.8 521.5,54.0 522.7,54.9 523.9,54.2 525.1,55.2 526.3,54.5 527.5,55.5 528.7,54.9 529.9,56.0 531.0,55.4 532.2,56.6 533.4,56.0 534.6,57.2 535.8,56.7 537.0,57.9 538.2,57.5 539.3,58.7 540.5,58.3 541.7,59.6 542.9,59.2 544.1,60.5 545.3,60.1 546.5,61.5 547.7,61.1 548.8,62.5 550.0,62.1 551.2,63.6 552.4,63.2 553.6,64.7 554.8,64.3 556.0,65.8 557.1,65.5 558.3,67.0 559.5,66.7 560.7,68.2 561.9,67.9 563.1,69.4 564.3,69.1 565.5,70.6 566.6,70.3 567.8,71.9 569.0,71.6 570.2,73.8 571.4,74.2 572.6,76.4 573.8,76.8 574.9,78.9 576.1,79.3 577.3,81.5 578.5,81.9 579.7,84.1 580.9,84.5 582.1,86.7 583.3,87.1 584.4,89.2 585.6,89.6 586.8,91.8 588.0,92.2 589.2,94.3 590.4,94.8 591.6,96.9 592.7,97.3 593.9,99.4 595.1,99.9 596.3,102.0 597.5,102.4 598.7,104.5 599.9,105.0 601.1,107.1 602.2,107.6 603.4,109.7 604.6,110.2 605.8,112.3 607.0,112.8 608.2,114.8 609.4,115.4 610.5,117.4 611.7,118.0 612.9,120.0 614.1,120.6 615.3,122.7 616.5,123.2 617.7,125.3 618.9,125.9 620.0,127.9 621.2,128.5 622.4,130.5 623.6,131.0 624.8,132.9 626.0,133.2 627.2,135.0 628.3,135.2 629.5,136.9 630.7,137.1 631.9,138.7 633.1,138.8 634.3,140.3 635.5,140.4 636.7,141.9 637.8,141.8 639.0,143.3 640.2,143.2 641.4,144.6 642.6,144.5 643.8,145.8 645.0,145.6 646.1,146.9 647.3,146.8 648.5,148.0 649.7,147.8 650.9,149.0 652.1,148.8 653.3,150.0 654.5,149.7 655.6,150.9 656.8,150.6 658.0,151.7 659.2,151.5 660.4,152.6 661.6,152.3 662.8,153.4 663.9,153.1 665.1,154.2 666.3,153.9 667.5,154.9 668.7,154.6 669.9,155.6 671.1,155.3 672.3,156.3 673.4,156.0 674.6,157.0 675.8,156.7 677.0,157.7 678.2,157.4 679.4,158.3 680.6,158.0 681.7,159.0 682.9,158.6 684.1,159.6 685.3,159.3 686.5,160.2 687.7,159.9 688.9,160.8 690.1,160.5 691.2,161.4 692.4,161.1 693.6,162.0 694.8,161.6 696.0,162.5 697.2,162.2 698.4,163.1 699.5,162.8 700.7,163.7 701.9,163.3 703.1,164.2 704.3,163.9 705.5,164.8 706.7,164.4 707.9,165.3 709.0,165.0 710.2,165.8 711.4,165.5 712.6,166.4 713.8,166.1 715.0,166.9 716.2,166.6 717.3,167.4 718.5,167.1 719.7,167.9 720.9,167.6 722.1,168.4 723.3,168.1 724.5,169.0 725.7,168.7 726.8,169.5 728.0,169.2 729.2,170.0 730.4,169.7 731.6,170.5 732.8,170.2 734.0,171.0 735.1,170.7 736.3,171.5 737.5,171.2 738.7,172.0 739.9,171.7 741.1,172.4 742.3,172.2 743.5,172.9 744.6,172.6 745.8,173.4 747.0,173.1 748.2,173.9 749.4,173.6 750.6,174.4 751.8,174.1 752.9,174.8 754.1,174.6 755.3,175.3 756.5,175.0 757.7,175.8 758.9,175.5 760.1,176.3 761.3,176.0 762.4,176.7 763.6,176.5 764.8,177.2 766.0,176.9"/>
<line x1="606" y1="42" x2="628" y2="42" stroke="#0f62fe" stroke-width="2.2"/>
<text x="634" y="46" font-family="Arial" font-size="12">vz_mps</text>
</svg>