<svg xmlns="http://www.w3.org/2000/svg" width="820" height="320" viewBox="0 0 820 320">
<rect width="100%" height="100%" fill="#ffffff"/>
<text x="54" y="28" font-family="Arial" font-size="18" font-weight="700">Euler Angles</text>
<line x1="54" y1="266" x2="766" y2="266" stroke="#1f2933"/>
<line x1="54" y1="54" x2="54" y2="266" stroke="#1f2933"/>
<text x="54" y="306" font-family="Arial" font-size="12">time (s)</text>
<text x="596" y="306" font-family="Arial" font-size="12">angle (deg)</text>
<text x="58" y="68" font-family="Arial" font-size="11">9.56</text>
<text x="58" y="260" font-family="Arial" font-size="11">0</text>
<polyline fill="none" stroke="#0f62fe" stroke-width="2.2" points="54.0,266.0 55.2,266.0 56.4,266.0 57.6,266.0 58.7,266.0 59.9,266.0 61.1,266.0 62.3,266.0 63.5,266.0 64.7,266.0 65.9,266.0 67.1,266.0 68.2,266.0 69.4,266.0 70.6,266.0 71.8,266.0 73.0,266.0 74.2,266.0 75.4,266.0 76.5,266.0 77.7,266.0 78.9,266.0 80.1,266.0 81.3,266.0 82.5,266.0 83.7,266.0 84.9,266.0 86.0,266.0 87.2,266.0 88.4,266.0 89.6,266.0 90.8,266.0 92.0,266.0 93.2,266.0 94.3,266.0 95.5,266.0 96.7,266.0 97.9,266.0 99.1,266.0 100.3,266.0 101.5,266.0 102.7,266.0 103.8,266.0 105.0,266.0 106.2,266.0 107.4,266.0 108.6,266.0 109.8,266.0 111.0,266.0 112.1,266.0 113.3,266.0 114.5,266.0 115.7,266.0 116.9,266.0 118.1,266.0 119.3,266.0 120.5,266.0 121.6,266.0 122.8,266.0 124.0,266.0 125.2,266.0 126.4,266.0 127.6,266.0 128.8,266.0 129.9,266.0 131.1,266.0 132.3,266.0 133.5,266.0 134.7,266.0 135.9,266.0 137.1,266.0 138.3,266.0 139.4,266.0 140.6,266.0 141.8,266.0 143.0,266.0 144.2,266.0 145.4,266.0 146.6,266.0 147.7,266.0 148.9,266.0 150.1,266.0 151.3,266.0 152.5,266.0 153.7,266.0 154.9,266.0 156.1,266.0 157.2,266.0 158.4,266.0 159.6,266.0 160.8,266.0 162.0,266.0 163.2,266.0 164.4,266.0 165.5,266.0 166.7,266.0 167.9,266.0 169.1,266.0 170.3,266.0 171.5,266.0 172.7,266.0 173.9,266.0 175.0,266.0 176.2,266.0 177.4,266.0 178.6,266.0 179.8,266.0 181.0,266.0 182.2,266.0 183.3,266.0 184.5,266.0 185.7,266.0 186.9,266.0 188.1,266.0 189.3,266.0 190.5,266.0 191.7,266.0 192.8,266.0 194.0,266.0 195.2,266.0 196.4,266.0 197.6,266.0 198.8,266.0 200.0,266.0 201.1,266.0 202.3,266.0 203.5,266.0 204.7,266.0 205.9,266.0 207.1,266.0 208.3,266.0 209.5,266.0 210.6,266.0 211.8,266.0 213.0,266.0 214.2,266.0 215.4,266.0 216.6,266.0 217.8,266.0 218.9,266.0 220.1,266.0 221.3,266.0 222.5,266.0 223.7,266.0 224.9,266.0 226.1,266.0 227.3,266.0 228.4,266.0 229.6,266.0 230.8,266.0 232.0,266.0 233.2,266.0 234.4,266.0 235.6,266.0 236.7,266.0 237.9,266.0 239.1,266.0 240.3,266.0 241.5,266.0 242.7,266.0 243.9,266.0 245.1,266.0 246.2,266.0 247.4,266.0 248.6,266.0 249.8,266.0 251.0,266.0 252.2,266.0 253.4,266.0 254.5,266.0 255.7,266.0 256.9,266.0 258.1,266.0 259.3,266.0 260.5,266.0 261.7,266.0 262.9,266.0 264.0,266.0 265.2,266.0 266.4,266.0 267.6,266.0 268.8,266.0 270.0,266.0 271.2,266.0 272.3,266.0 273.5,266.0 274.7,266.0 275.9,266.0 277.1,266.0 278.3,266.0 279.5,266.0 280.7,266.0 281.8,266.0 283.0,266.0 284.2,266.0 285.4,266.0 286.6,266.0 287.8,266.0 289.0,266.0 290.1,266.0 291.3,266.0 292.5,266.0 293.7,266.0 294.9,266.0 296.1,266.0 297.3,266.0 298.5,266.0 299.6,266.0 300.8,266.0 302.0,266.0 303.2,266.0 304.4,266.0 305.6,266.0 306.8,266.0 307.9,266.0 309.1,266.0 310.3,266.0 311.5,266.0 312.7,266.0 313.9,266.0 315.1,266.0 316.3,266.0 317.4,266.0 318.6,266.0 319.8,266.0 321.0,266.0 322.2,266.0 323.4,266.0 324.6,266.0 325.7,266.0 326.9,266.0 328.1,266.0 329.3,266.0 330.5,266.0 331.7,266.0 332.9,266.0 334.1,266.0 335.2,266.0 336.4,266.0 337.6,266.0 338.8,266.0 340.0,266.0 341.2,266.0 342.4,266.0 343.5,266.0 344.7,266.0 345.9,266.0 347.1,266.0 348.3,266.0 349.5,266.0 350.7,266.0 351.9,266.0 353.0,266.0 354.2,266.0 355.4,266.0 356.6,266.0 357.8,266.0 359.0,266.0 360.2,266.0 361.3,266.0 362.5,266.0 363.7,266.0 364.9,266.0 366.1,266.0 367.3,266.0 368.5,266.0 369.7,266.0 370.8,266.0 372.0,266.0 373.2,266.0 374.4,266.0 375.6,266.0 376.8,266.0 378.0,266.0 379.1,266.0 380.3,266.0 381.5,266.0 382.7,266.0 383.9,266.0 385.1,266.0 386.3,266.0 387.5,266.0 388.6,266.0 389.8,266.0 391.0,266.0 392.2,266.0 393.4,266.0 394.6,266.0 395.8,266.0 396.9,266.0 398.1,266.0 399.3,266.0 400.5,266.0 401.7,266.0 402.9,266.0 404.1,266.0 405.3,266.0 406.4,266.0 407.6,266.0 408.8,266.0 410.0,266.0 411.2,266.0 412.4,266.0 413.6,266.0 414.7,266.0 415.9,266.0 417.1,266.0 418.3,266.0 419.5,266.0 420.7,266.0 421.9,266.0 423.1,266.0 424.2,266.0 425.4,266.0 426.6,266.0 427.8,266.0 429.0,266.0 430.2,266.0 431.4,266.0 432.5,266.0 433.7,266.0 434.9,266.0 436.1,266.0 437.3,266.0 438.5,266.0 439.7,266.0 440.9,266.0 442.0,266.0 443.2,266.0 444.4,266.0 445.6,266.0 446.8,266.0 448.0,266.0 449.2,266.0 450.3,266.0 451.5,266.0 452.7,266.0 453.9,266.0 455.1,266.0 456.3,266.0 457.5,266.0 458.7,266.0 459.8,266.0 461.0,266.0 462.2,266.0 463.4,266.0 464.6,266.0 465.8,266.0 467.0,266.0 468.1,266.0 469.3,266.0 470.5,266.0 471.7,266.0 472.9,266.0 474.1,266.0 475.3,266.0 476.5,266.0 477.6,266.0 478.8,266.0 480.0,266.0 481.2,266.0 482.4,266.0 483.6,266.0 484.8,266.0 485.9,266.0 487.1,266.0 488.3,266.0 489.5,266.0 490.7,266.0 491.9,266.0 493.1,266.0 494.3,266.0 495.4,266.0 496.6,266.0 497.8,266.0 499.0,266.0 500.2,266.0 501.4,266.0 502.6,266.0 503.7,266.0 504.9,266.0 506.1,266.0 507.3,266.0 508.5,266.0 509.7,266.0 510.9,266.0 512.1,266.0 513.2,266.0 514.4,266.0 515.6,266.0 516.8,266.0 518.0,266.0 519.2,266.0 520.4,266.0 521.5,266.0 522.7,266.0 523.9,266.0 525.1,266.0 526.3,266.0 527.5,266.0 528.7,266.0 529.9,266.0 531.0,266.0 532.2,266.0 533.4,266.0 534.6,266.0 535.8,266.0 537.0,266.0 538.2,266.0 539.3,266.0 540.5,266.0 541.7,266.0 542.9,266.0 544.1,266.0 545.3,266.0 546.5,266.0 547.7,266.0 548.8,266.0 550.0,266.0 551.2,266.0 552.4,266.0 553.6,266.0 554.8,266.0 556.0,266.0 557.1,266.0 558.3,266.0 559.5,266.0 560.7,266.0 561.9,266.0 563.1,266.0 564.3,266.0 565.5,266.0 566.6,266.0 567.8,266.0 569.0,266.0 570.2,266.0 571.4,266.0 572.6,266.0 573.8,266.0 574.9,266.0 576.1,266.0 577.3,266.0 578.5,266.0 579.7,266.0 580.9,266.0 582.1,266.0 583.3,266.0 584.4,266.0 585.6,266.0 586.8,266.0 588.0,266.0 589.2,266.0 590.4,266.0 591.6,266.0 592.7,266.0 593.9,266.0 595.1,266.0 596.3,266.0 597.5,266.0 598.7,266.0 599.9,266.0 601.1,266.0 602.2,266.0 603.4,266.0 604.6,266.0 605.8,266.0 607.0,266.0 608.2,266.0 609.4,266.0 610.5,266.0 611.7,266.0 612.9,266.0 614.1,266.0 615.3,266.0 616.5,266.0 617.7,266.0 618.9,266.0 620.0,266.0 621.2,266.0 622.4,266.0 623.6,266.0 624.8,266.0 626.0,266.0 627.2,266.0 628.3,266.0 629.5,266.0 630.7,266.0 631.9,266.0 633.1,266.0 634.3,266.0 635.5,266.0 636.7,266.0 637.8,266.0 639.0,266.0 640.2,266.0 641.4,266.0 642.6,266.0 643.8,266.0 645.0,266.0 646.1,266.0 647.3,266.0 648.5,266.0 649.7,266.0 650.9,266.0 652.1,266.0 653.3,266.0 654.5,266.0 655.6,266.0 656.8,266.0 658.0,266.0 659.2,266.0 660.4,266.0 661.6,266.0 662.8,266.0 663.9,266.0 665.1,266.0 666.3,266.0 667.5,266.0 668.7,266.0 669.9,266.0 671.1,266.0 672.3,266.0 673.4,266.0 674.6,266.0 675.8,266.0 677.0,266.0 678.2,266.0 679.4,266.0 680.6,266.0 681.7,266.0 682.9,266.0 684.1,266.0 685.3,266.0 686.5,266.0 687.7,266.0 688.9,266.0 690.1,266.0 691.2,266.0 692.4,266.0 693.6,266.0 694.8,266.0 696.0,266.0 697.2,266.0 698.4,266.0 699.5,266.0 700.7,266.0 701.9,266.0 703.1,266.0 704.3,266.0 705.5,266.0 706.7,266.0 707.9,266.0 709.0,266.0 710.2,266.0 711.4,266.0 712.6,266.0 713.8,266.0 715.0,266.0 716.2,266.0 717.3,266.0 718.5,266.0 719.7,266.0 720.9,266.0 722.1,266.0 723.3,266.0 724.5,266.0 725.7,266.0 726.8,266.0 728.0,266.0 729.2,266.0 730.4,266.0 731.6,266.0 732.8,266.0 734.0,266.0 735.1,266.0 736.3,266.0 737.5,266.0 738.7,266.0 739.9,266.0 741.1,266.0 742.3,266.0 743.5,266.0 744.6,266.0 745.8,266.0 747.0,266.0 748.2,266.0 749.4,266.0 750.6,266.0 751.8,266.0 752.9,266.0 754.1,266.0 755.3,266.0 756.5,266.0 757.7,266.0 758.9,266.0 760.1,266.0 761.3,266.0 762.4,266.0 763.6,266.0 764.8,266.0 766.0,266.0"/>
<line x1="606" y1="42" x2="628" y2="42" stroke="#0f62fe" stroke-width="2.2"/>
<text x="634" y="46" font-family="Arial" font-size="12">roll_deg</text>
<polyline fill="none" stroke="#24a148" stroke-width="2.2" points="54.0,132.9 55.2,127.0 56.4,118.7 57.6,111.9 58.7,107.9 59.9,105.8 61.1,104.3 62.3,102.7 63.5,101.3 64.7,100.3 65.9,99.8 67.1,99.6 68.2,99.6 69.4,99.8 70.6,100.1 71.8,100.6 73.0,101.1 74.2,101.8 75.4,102.5 76.5,103.3 77.7,104.2 78.9,105.0 80.1,105.9 81.3,106.9 82.5,107.8 83.7,108.7 84.9,109.7 86.0,110.6 87.2,111.6 88.4,112.5 89.6,113.4 90.8,114.4 92.0,115.3 93.2,116.2 94.3,117.1 95.5,117.9 96.7,118.8 97.9,119.6 99.1,120.5 100.3,121.3 101.5,122.1 102.7,122.8 103.8,123.6 105.0,124.3 106.2,125.1 107.4,125.8 108.6,126.5 109.8,127.1 111.0,127.8 112.1,128.4 113.3,129.0 114.5,129.7 115.7,130.2 116.9,130.8 118.1,131.4 119.3,131.9 120.5,132.4 121.6,132.9 122.8,133.4 124.0,133.9 125.2,134.4 126.4,134.8 127.6,135.3 128.8,135.7 129.9,136.1 131.1,136.5 132.3,136.8 133.5,137.2 134.7,137.6 135.9,137.9 137.1,138.2 138.3,138.5 139.4,138.8 140.6,139.1 141.8,139.4 143.0,139.6 144.2,139.9 145.4,140.1 146.6,140.4 147.7,140.6 148.9,140.7 150.1,140.7 151.3,140.7 152.5,140.7 153.7,140.6 154.9,140.5 156.1,140.3 157.2,140.1 158.4,139.8 159.6,139.6 160.8,139.3 162.0,139.0 163.2,138.6 164.4,138.3 165.5,137.9 166.7,137.5 167.9,137.1 169.1,136.7 170.3,136.3 171.5,135.8 172.7,135.4 173.9,134.9 175.0,134.4 176.2,133.9 177.4,133.5 178.6,132.9 179.8,132.4 181.0,131.9 182.2,131.4 183.3,130.9 184.5,130.3 185.7,129.8 186.9,129.2 188.1,128.7 189.3,128.1 190.5,127.6 191.7,127.0 192.8,126.4 194.0,125.9 195.2,125.3 196.4,124.7 197.6,124.1 198.8,123.5 200.0,123.0 201.1,122.4 202.3,121.8 203.5,121.2 204.7,120.6 205.9,120.0 207.1,119.4 208.3,118.8 209.5,118.3 210.6,117.7 211.8,117.1 213.0,116.5 214.2,115.9 215.4,115.3 216.6,114.7 217.8,114.2 218.9,113.6 220.1,113.0 221.3,112.4 222.5,111.9 223.7,111.3 224.9,110.7 226.1,110.2 227.3,109.6 228.4,109.0 229.6,108.5 230.8,107.9 232.0,107.4 233.2,106.8 234.4,106.3 235.6,105.8 236.7,105.2 237.9,104.7 239.1,104.2 240.3,103.7 241.5,103.2 242.7,102.6 243.9,102.1 245.1,101.6 246.2,101.2 247.4,100.7 248.6,100.2 249.8,99.7 251.0,99.2 252.2,98.8 253.4,98.3 254.5,97.8 255.7,97.4 256.9,97.0 258.1,96.5 259.3,96.1 260.5,95.7 261.7,95.2 262.9,94.8 264.0,94.4 265.2,94.0 266.4,93.6 267.6,93.2 268.8,92.8 270.0,92.5 271.2,92.0 272.3,91.9 273.5,90.9 274.7,92.0 275.9,88.2 277.1,96.1 278.3,82.0 279.5,88.0 280.7,79.8 281.8,93.6 283.0,87.1 284.2,96.7 285.4,84.3 286.6,90.5 287.8,77.9 289.0,87.2 290.1,77.7 291.3,90.1 292.5,80.6 293.7,93.0 294.9,83.4 296.1,95.8 297.3,86.3 298.5,98.7 299.6,89.2 300.8,99.8 302.0,88.4 303.2,98.0 304.4,85.6 305.6,95.2 306.8,82.8 307.9,92.4 309.1,80.0 310.3,89.6 311.5,77.2 312.7,86.8 313.9,74.4 315.1,83.9 316.3,71.6 317.4,81.1 318.6,68.7 319.8,78.3 321.0,65.9 322.2,75.5 323.4,63.1 324.6,72.7 325.7,60.3 326.9,69.9 328.1,60.2 329.3,72.4 330.5,62.7 331.7,75.0 332.9,65.3 334.1,77.5 335.2,67.8 336.4,80.0 337.6,70.3 338.8,82.6 340.0,72.9 341.2,85.1 342.4,75.4 343.5,87.6 344.7,77.9 345.9,88.8 347.1,77.8 348.3,88.0 349.5,76.3 350.7,86.5 351.9,74.8 353.0,85.1 354.2,73.3 355.4,83.6 356.6,71.8 357.8,82.1 359.0,70.4 360.2,80.6 361.3,68.9 362.5,79.1 363.7,67.4 364.9,77.6 366.1,65.9 367.3,76.1 368.5,64.4 369.7,74.6 370.8,62.9 372.0,73.2 373.2,61.4 374.4,71.7 375.6,59.9 376.8,70.2 378.0,58.5 379.1,68.7 380.3,57.0 381.5,67.2 382.7,55.5 383.9,65.7 385.1,54.0 386.3,64.2 387.5,54.1 388.6,66.0 389.8,55.9 391.0,67.8 392.2,57.7 393.4,69.5 394.6,59.4 395.8,71.3 396.9,61.2 398.1,73.0 399.3,62.9 400.5,74.8 401.7,64.7 402.9,76.5 404.1,66.4 405.3,78.3 406.4,68.2 407.6,80.1 408.8,70.0 410.0,81.8 411.2,71.7 412.4,83.6 413.6,73.5 414.7,85.3 415.9,75.2 417.1,87.1 418.3,77.0 419.5,88.8 420.7,78.7 421.9,90.6 423.1,80.5 424.2,92.4 425.4,82.3 426.6,94.1 427.8,84.0 429.0,95.9 430.2,85.8 431.4,97.6 432.5,87.5 433.7,99.4 434.9,89.3 436.1,101.2 437.3,91.1 438.5,102.9 439.7,92.8 440.9,104.7 442.0,94.6 443.2,106.4 444.4,96.3 445.6,108.0 446.8,97.8 448.0,108.1 449.2,96.4 450.3,106.7 451.5,95.1 452.7,105.4 453.9,93.7 455.1,104.0 456.3,92.3 457.5,102.6 458.7,91.0 459.8,101.3 461.0,89.6 462.2,99.9 463.4,88.2 464.6,98.5 465.8,86.9 467.0,97.2 468.1,85.5 469.3,95.8 470.5,84.1 471.7,94.4 472.9,82.8 474.1,93.1 475.3,81.4 476.5,91.7 477.6,80.0 478.8,90.3 480.0,78.7 481.2,89.0 482.4,77.3 483.6,87.6 484.8,75.9 485.9,86.2 487.1,74.6 488.3,84.9 489.5,73.2 490.7,83.5 491.9,71.9 493.1,82.1 494.3,70.5 495.4,80.8 496.6,69.1 497.8,79.4 499.0,69.0 500.2,80.6 501.4,70.2 502.6,81.8 503.7,71.4 504.9,83.0 506.1,72.7 507.3,84.2 508.5,73.9 509.7,85.4 510.9,75.1 512.1,86.6 513.2,76.3 514.4,87.9 515.6,77.5 516.8,89.1 518.0,78.7 519.2,90.3 520.4,79.9 521.5,91.5 522.7,81.1 523.9,92.7 525.1,82.3 526.3,93.9 527.5,83.5 528.7,95.1 529.9,84.7 531.0,96.3 532.2,85.9 533.4,97.5 534.6,87.1 535.8,98.7 537.0,88.3 538.2,99.9 539.3,89.5 540.5,101.1 541.7,90.7 542.9,102.3 544.1,91.9 545.3,103.5 546.5,93.1 547.7,104.7 548.8,94.3 550.0,105.9 551.2,95.5 552.4,107.1 553.6,96.7 554.8,108.3 556.0,98.0 557.1,109.5 558.3,99.2 559.5,110.7 560.7,100.4 561.9,111.9 563.1,101.6 564.3,113.2 565.5,102.8 566.6,114.4 567.8,104.0 569.0,115.6 570.2,105.2 571.4,116.8 572.6,106.4 573.8,118.0 574.9,107.6 576.1,119.2 577.3,108.8 578.5,120.4 579.7,110.0 580.9,121.6 582.1,111.2 583.3,122.8 584.4,112.4 585.6,124.0 586.8,113.6 588.0,125.2 589.2,114.8 590.4,126.4 591.6,116.0 592.7,127.6 593.9,117.2 595.1,128.8 596.3,118.4 597.5,130.0 598.7,119.6 599.9,131.2 601.1,120.8 602.2,132.4 603.4,122.0 604.6,133.6 605.8,123.3 607.0,134.8 608.2,124.5 609.4,136.0 610.5,125.7 611.7,137.2 612.9,126.9 614.1,138.5 615.3,128.1 616.5,139.7 617.7,129.3 618.9,140.9 620.0,130.5 621.2,141.4 622.4,130.4 623.6,141.3 624.8,130.3 626.0,141.2 627.2,130.1 628.3,141.1 629.5,130.0 630.7,141.0 631.9,129.9 633.1,140.9 634.3,129.8 635.5,140.7 636.7,129.7 637.8,140.6 639.0,129.6 640.2,140.5 641.4,129.5 642.6,140.4 643.8,129.4 645.0,140.3 646.1,129.3 647.3,140.2 648.5,129.1 649.7,140.1 650.9,129.0 652.1,140.0 653.3,128.9 654.5,139.9 655.6,128.8 656.8,139.7 658.0,128.7 659.2,139.6 660.4,128.6 661.6,139.5 662.8,128.5 663.9,139.4 665.1,128.4 666.3,139.3 667.5,128.3 668.7,139.2 669.9,128.1 671.1,139.1 672.3,128.0 673.4,139.0 674.6,127.9 675.8,138.9 677.0,127.8 678.2,138.7 679.4,127.7 680.6,138.6 681.7,127.6 682.9,138.5 684.1,127.5 685.3,138.4 686.5,127.4 687.7,138.3 688.9,127.3 690.1,138.2 691.2,127.1 692.4,138.1 693.6,127.0 694.8,138.0 696.0,126.9 697.2,137.9 698.4,126.8 699.5,137.7 700.7,126.7 701.9,137.6 703.1,126.6 704.3,137.5 705.5,126.5 706.7,137.4 707.9,126.4 709.0,137.3 710.2,126.3 711.4,137.2 712.6,126.1 713.8,137.1 715.0,126.0 716.2,137.0 717.3,125.9 718.5,136.9 719.7,125.8 720.9,136.7 722.1,125.7 723.3,136.6 724.5,125.6 725.7,136.5 726.8,125.5 728.0,136.4 729.2,125.4 730.4,136.3 731.6,125.3 732.8,136.2 734.0,125.1 735.1,136.1 736.3,125.0 737.5,136.0 738.7,124.9 739.9,135.9 741.1,124.8 742.3,135.7 743.5,124.7 744.6,135.6 745.8,124.6 747.0,135.5 748.2,124.5 749.4,135.4 750.6,124.4 751.8,135.3 752.9,124.3 754.1,135.2 755.3,124.1 756.5,135.1 757.7,124.0 758.9,135.0 760.1,123.9 761.3,134.9 762.4,123.8 763.6,134.7 764.8,123.7 766.0,134.6"/>
<line x1="606" y1="60" x2="628" y2="60" stroke="#24a148" stroke-width="2.2"/>
<text x="634" y="64" font-family="Arial" font-size="12">pitch_deg</text>
<polyline fill="none" stroke="#da1e28" stroke-width="2.2" points="54.0,266.0 55.2,266.0 56.4,266.0 57.6,266.0 58.7,266.0 59.9,266.0 61.1,266.0 62.3,266.0 63.5,266.0 64.7,266.0 65.9,266.0 67.1,266.0 68.2,266.0 69.4,266.0 70.6,266.0 71.8,266.0 73.0,266.0 74.2,266.0 75.4,266.0 76.5,266.0 77.7,266.0 78.9,266.0 80.1,266.0 81.3,266.0 82.5,266.0 83.7,266.0 84.9,266.0 86.0,266.0 87.2,266.0 88.4,266.0 89.6,266.0 90.8,266.0 92.0,266.0 93.2,266.0 94.3,266.0 95.5,266.0 96.7,266.0 97.9,266.0 99.1,266.0 100.3,266.0 101.5,266.0 102.7,266.0 103.8,266.0 105.0,266.0 106.2,266.0 107.4,266.0 108.6,266.0 109.8,266.0 111.0,266.0 112.1,266.0 113.3,266.0 114.5,266.0 115.7,266.0 116.9,266.0 118.1,266.0 119.3,266.0 120.5,266.0 121.6,266.0 122.8,266.0 124.0,266.0 125.2,266.0 126.4,266.0 127.6,266.0 128.8,266.0 129.9,266.0 131.1,266.0 132.3,266.0 133.5,266.0 134.7,266.0 135.9,266.0 137.1,266.0 138.3,266.0 139.4,266.0 140.6,266.0 141.8,266.0 143.0,266.0 144.2,266.0 145.4,266.0 146.6,266.0 147.7,266.0 148.9,266.0 150.1,266.0 151.3,266.0 152.5,266.0 153.7,266.0 154.9,266.0 156.1,266.0 157.2,266.0 158.4,266.0 159.6,266.0 160.8,266.0 162.0,266.0 163.2,266.0 164.4,266.0 165.5,266.0 166.7,266.0 167.9,266.0 169.1,266.0 170.3,266.0 171.5,266.0 172.7,266.0 173.9,266.0 175.0,266.0 176.2,266.0 177.4,266.0 178.6,266.0 179.8,266.0 181.0,266.0 182.2,266.0 183.3,266.0 184.5,266.0 185.7,266.0 186.9,266.0 188.1,266.0 189.3,266.0 190.5,266.0 191.7,266.0 192.8,266.0 194.0,266.0 195.2,266.0 196.4,266.0 197.6,266.0 198.8,266.0 200.0,266.0 201.1,266.0 202.3,266.0 203.5,266.0 204.7,266.0 205.9,266.0 207.1,266.0 208.3,266.0 209.5,266.0 210.6,266.0 211.8,266.0 213.0,266.0 214.2,266.0 215.4,266.0 216.6,266.0 217.8,266.0 218.9,266.0 220.1,266.0 221.3,266.0 222.5,266.0 223.7,266.0 224.9,266.0 226.1,266.0 227.3,266.0 228.4,266.0 229.6,266.0 230.8,266.0 232.0,266.0 233.2,266.0 234.4,266.0 235.6,266.0 236.7,266.0 237.9,266.0 239.1,266.0 240.3,266.0 241.5,266.0 242.7,266.0 243.9,266.0 245.1,266.0 246.2,266.0 247.4,266.0 248.6,266.0 249.8,266.0 251.0,266.0 252.2,266.0 253.4,266.0 254.5,266.0 255.7,266.0 256.9,266.0 258.1,266.0 259.3,266.0 260.5,266.0 261.7,266.0 262.9,266.0 264.0,266.0 265.2,266.0 266.4,266.0 267.6,266.0 268.8,266.0 270.0,266.0 271.2,266.0 272.3,266.0 273.5,266.0 274.7,266.0 275.9,266.0 277.1,266.0 278.3,266.0 279.5,266.0 280.7,266.0 281.8,266.0 283.0,266.0 284.2,266.0 285.4,266.0 286.6,266.0 287.8,266.0 289.0,266.0 290.1,266.0 291.3,266.0 292.5,266.0 293.7,266.0 294.9,266.0 296.1,266.0 297.3,266.0 298.5,266.0 299.6,266.0 300.8,266.0 302.0,266.0 303.2,266.0 304.4,266.0 305.6,266.0 306.8,266.0 307.9,266.0 309.1,266.0 310.3,266.0 311.5,266.0 312.7,266.0 313.9,266.0 315.1,266.0 316.3,266.0 317.4,266.0 318.6,266.0 319.8,266.0 321.0,266.0 322.2,266.0 323.4,266.0 324.6,266.0 325.7,266.0 326.9,266.0 328.1,266.0 329.3,266.0 330.5,266.0 331.7,266.0 332.9,266.0 334.1,266.0 335.2,266.0 336.4,266.0 337.6,266.0 338.8,266.0 340.0,266.0 341.2,266.0 342.4,266.0 343.5,266.0 344.7,266.0 345.9,266.0 347.1,266.0 348.3,266.0 349.5,266.0 350.7,266.0 351.9,266.0 353.0,266.0 354.2,266.0 355.4,266.0 356.6,266.0 357.8,266.0 359.0,266.0 360.2,266.0 361.3,266.0 362.5,266.0 363.7,266.0 364.9,266.0 366.1,266.0 367.3,266.0 368.5,266.0 369.7,266.0 370.8,266.0 372.0,266.0 373.2,266.0 374.4,266.0 375.6,266.0 376.8,266.0 378.0,266.0 379.1,266.0 380.3,266.0 381.5,266.0 382.7,266.0 383.9,266.0 385.1,266.0 386.3,266.0 387.5,266.0 388.6,266.0 389.8,266.0 391.0,266.0 392.2,266.0 393.4,266.0 394.6,266.0 395.8,266.0 396.9,266.0 398.1,266.0 399.3,266.0 400.5,266.0 401.7,266.0 402.9,266.0 404.1,266.0 405.3,266.0 406.4,266.0 407.6,266.0 408.8,266.0 410.0,266.0 411.2,266.0 412.4,266.0 413.6,266.0 414.7,266.0 415.9,266.0 417.1,266.0 418.3,266.0 419.5,266.0 420.7,266.0 421.9,266.0 423.1,266.0 424.2,266.0 425.4,266.0 426.6,266.0 427.8,266.0 429.0,266.0 430.2,266.0 431.4,266.0 432.5,266.0 433.7,266.0 434.9,266.0 436.1,266.0 437.3,266.0 438.5,266.0 439.7,266.0 440.9,266.0 442.0,266.0 443.2,266.0 444.4,266.0 445.6,266.0 446.8,266.0 448.0,266.0 449.2,266.0 450.3,266.0 451.5,266.0 452.7,266.0 453.9,266.0 455.1,266.0 456.3,266.0 457.5,266.0 458.7,266.0 459.8,266.0 461.0,266.0 462.2,266.0 463.4,266.0 464.6,266.0 465.8,266.0 467.0,266.0 468.1,266.0 469.3,266.0 470.5,266.0 471.7,266.0 472.9,266.0 474.1,266.0 475.3,266.0 476.5,266.0 477.6,266.0 478.8,266.0 480.0,266.0 481.2,266.0 482.4,266.0 483.6,266.0 484.8,266.0 485.9,266.0 487.1,266.0 488.3,266.0 489.5,266.0 490.7,266.0 491.9,266.0 493.1,266.0 494.3,266.0 495.4,266.0 496.6,266.0 497.8,266.0 499.0,266.0 500.2,266.0 501.4,266.0 502.6,266.0 503.7,266.0 504.9,266.0 506.1,266.0 507.3,266.0 508.5,266.0 509.7,266.0 510.9,266.0 512.1,266.0 513.2,266.0 514.4,266.0 515.6,266.0 516.8,266.0 518.0,266.0 519.2,266.0 520.4,266.0 521.5,266.0 522.7,266.0 523.9,266.0 525.1,266.0 526.3,266.0 527.5,266.0 528.7,266.0 529.9,266.0 531.0,266.0 532.2,266.0 533.4,266.0 534.6,266.0 535.8,266.0 537.0,266.0 538.2,266.0 539.3,266.0 540.5,266.0 541.7,266.0 542.9,266.0 544.1,266.0 545.3,266.0 546.5,266.0 547.7,266.0 548.8,266.0 550.0,266.0 551.2,266.0 552.4,266.0 553.6,266.0 554.8,266.0 556.0,266.0 557.1,266.0 558.3,266.0 559.5,266.0 560.7,266.0 561.9,266.0 563.1,266.0 564.3,266.0 565.5,266.0 566.6,266.0 567.8,266.0 569.0,266.0 570.2,266.0 571.4,266.0 572.6,266.0 573.8,266.0 574.9,266.0 576.1,266.0 577.3,266.0 578.5,266.0 579.7,266.0 580.9,266.0 582.1,266.0 583.3,266.0 584.4,266.0 585.6,266.0 586.8,266.0 588.0,266.0 589.2,266.0 590.4,266.0 591.6,266.0 592.7,266.0 593.9,266.0 595.1,266.0 596.3,266.0 597.5,266.0 598.7,266.0 599.9,266.0 601.1,266.0 602.2,266.0 603.4,266.0 604.6,266.0 605.8,266.0 607.0,266.0 608.2,266.0 609.4,266.0 610.5,266.0 611.7,266.0 612.9,266.0 614.1,266.0 615.3,266.0 616.5,266.0 617.7,266.0 618.9,266.0 620.0,266.0 621.2,266.0 622.4,266.0 623.6,266.0 624.8,266.0 626.0,266.0 627.2,266.0 628.3,266.0 629.5,266.0 630.7,266.0 631.9,266.0 633.1,266.0 634.3,266.0 635.5,266.0 636.7,266.0 637.8,266.0 639.0,266.0 640.2,266.0 641.4,266.0 642.6,266.0 643.8,266.0 645.0,266.0 646.1,266.0 647.3,266.0 648.5,266.0 649.7,266.0 650.9,266.0 652.1,266.0 653.3,266.0 654.5,266.0 655.6,266.0 656.8,266.0 658.0,266.0 659.2,266.0 660.4,266.0 661.6,266.0 662.8,266.0 663.9,266.0 665.1,266.0 666.3,266.0 667.5,266.0 668.7,266.0 669.9,266.0 671.1,266.0 672.3,266.0 673.4,266.0 674.6,266.0 675.8,266.0 677.0,266.0 678.2,266.0 679.4,266.0 680.6,266.0 681.7,266.0 682.9,266.0 684.1,266.0 685.3,266.0 686.5,266.0 687.7,266.0 688.9,266.0 690.1,266.0 691.2,266.0 692.4,266.0 693.6,266.0 694.8,266.0 696.0,266.0 697.2,266.0 698.4,266.0 699.5,266.0 700.7,266.0 701.9,266.0 703.1,266.0 704.3,266.0 705.5,266.0 706.7,266.0 707.9,266.0 709.0,266.0 710.2,266.0 711.4,266.0 712.6,266.0 713.8,266.0 715.0,266.0 716.2,266.0 717.3,266.0 718.5,266.0 719.7,266.0 720.9,266.0 722.1,266.0 723.3,266.0 724.5,266.0 725.7,266.0 726.8,266.0 728.0,266.0 729.2,266.0 730.4,266.0 731.6,266.0 732.8,266.0 734.0,266.0 735.1,266.0 736.3,266.0 737.5,266.0 738.7,266.0 739.9,266.0 741.1,266.0 742.3,266.0 743.5,266.0 744.6,266.0 745.8,266.0 747.0,266.0 748.2,266.0 749.4,266.0 750.6,266.0 751.8,266.0 752.9,266.0 754.1,266.0 755.3,266.0 756.5,266.0 757.7,266.0 758.9,266.0 760.1,266.0 761.3,266.0 762.4,266.0 763.6,266.0 764.8,266.0 766.0,266.0"/>
<line x1="606" y1="78" x2="628" y2="78" stroke="#da1e28" stroke-width="2.2"/>
<text x="634" y="82" font-family="Arial" font-size="12">yaw_deg</text>
</svg>