<svg xmlns="http://www.w3.org/2000/svg" width="820" height="320" viewBox="0 0 820 320">
<rect width="100%" height="100%" fill="#ffffff"/>
<text x="54" y="28" font-family="Arial" font-size="18" font-weight="700">Body Rates</text>
<line x1="54" y1="266" x2="766" y2="266" stroke="#1f2933"/>
<line x1="54" y1="54" x2="54" y2="266" stroke="#1f2933"/>
<text x="54" y="306" font-family="Arial" font-size="12">time (s)</text>
<text x="596" y="306" font-family="Arial" font-size="12">rate (deg/s)</text>
<text x="58" y="68" font-family="Arial" font-size="11">20.7</text>
<text x="58" y="260" font-family="Arial" font-size="11">-21.2</text>
<polyline fill="none" stroke="#0f62fe" stroke-width="2.2" points="54.0,158.6 55.2,158.6 56.4,158.6 57.6,158.6 58.7,158.6 59.9,158.6 61.1,158.6 62.3,158.6 63.5,158.6 64.7,158.6 65.9,158.6 67.1,158.6 68.2,158.6 69.4,158.6 70.6,158.6 71.8,158.6 73.0,158.6 74.2,158.6 75.4,158.6 76.5,158.6 77.7,158.6 78.9,158.6 80.1,158.6 81.3,158.6 82.5,158.6 83.7,158.6 84.9,158.6 86.0,158.6 87.2,158.6 88.4,158.6 89.6,158.6 90.8,158.6 92.0,158.6 93.2,158.6 94.3,158.6 95.5,158.6 96.7,158.6 97.9,158.6 99.1,158.6 100.3,158.6 101.5,158.6 102.7,158.6 103.8,158.6 105.0,158.6 106.2,158.6 107.4,158.6 108.6,158.6 109.8,158.6 111.0,158.6 112.1,158.6 113.3,158.6 114.5,158.6 115.7,158.6 116.9,158.6 118.1,158.6 119.3,158.6 120.5,158.6 121.6,158.6 122.8,158.6 124.0,158.6 125.2,158.6 126.4,158.6 127.6,158.6 128.8,158.6 129.9,158.6 131.1,158.6 132.3,158.6 133.5,158.6 134.7,158.6 135.9,158.6 137.1,158.6 138.3,158.6 139.4,158.6 140.6,158.6 141.8,158.6 143.0,158.6 144.2,158.6 145.4,158.6 146.6,158.6 147.7,158.6 148.9,158.6 150.1,158.6 151.3,158.6 152.5,158.6 153.7,158.6 154.9,158.6 156.1,158.6 157.2,158.6 158.4,158.6 159.6,158.6 160.8,158.6 162.0,158.6 163.2,158.6 164.4,158.6 165.5,158.6 166.7,158.6 167.9,158.6 169.1,158.6 170.3,158.6 171.5,158.6 172.7,158.6 173.9,158.6 175.0,158.6 176.2,158.6 177.4,158.6 178.6,158.6 179.8,158.6 181.0,158.6 182.2,158.6 183.3,158.6 184.5,158.6 185.7,158.6 186.9,158.6 188.1,158.6 189.3,158.6 190.5,158.6 191.7,158.6 192.8,158.6 194.0,158.6 195.2,158.6 196.4,158.6 197.6,158.6 198.8,158.6 200.0,158.6 201.1,158.6 202.3,158.6 203.5,158.6 204.7,158.6 205.9,158.6 207.1,158.6 208.3,158.6 209.5,158.6 210.6,158.6 211.8,158.6 213.0,158.6 214.2,158.6 215.4,158.6 216.6,158.6 217.8,158.6 218.9,158.6 220.1,158.6 221.3,158.6 222.5,158.6 223.7,158.6 224.9,158.6 226.1,158.6 227.3,158.6 228.4,158.6 229.6,158.6 230.8,158.6 232.0,158.6 233.2,158.6 234.4,158.6 235.6,158.6 236.7,158.6 237.9,158.6 239.1,158.6 240.3,158.6 241.5,158.6 242.7,158.6 243.9,158.6 245.1,158.6 246.2,158.6 247.4,158.6 248.6,158.6 249.8,158.6 251.0,158.6 252.2,158.6 253.4,158.6 254.5,158.6 255.7,158.6 256.9,158.6 258.1,158.6 259.3,158.6 260.5,158.6 261.7,158.6 262.9,158.6 264.0,158.6 265.2,158.6 266.4,158.6 267.6,158.6 268.8,158.6 270.0,158.6 271.2,158.6 272.3,158.6 273.5,158.6 274.7,158.6 275.9,158.6 277.1,158.6 278.3,158.6 279.5,158.6 280.7,158.6 281.8,158.6 283.0,158.6 284.2,158.6 285.4,158.6 286.6,158.6 287.8,158.6 289.0,158.6 290.1,158.6 291.3,158.6 292.5,158.6 293.7,158.6 294.9,158.6 296.1,158.6 297.3,158.6 298.5,158.6 299.6,158.6 300.8,158.6 302.0,158.6 303.2,158.6 304.4,158.6 305.6,158.6 306.8,158.6 307.9,158.6 309.1,158.6 310.3,158.6 311.5,158.6 312.7,158.6 313.9,158.6 315.1,158.6 316.3,158.6 317.4,158.6 318.6,158.6 319.8,158.6 321.0,158.6 322.2,158.6 323.4,158.6 324.6,158.6 325.7,158.6 326.9,158.6 328.1,158.6 329.3,158.6 330.5,158.6 331.7,158.6 332.9,158.6 334.1,158.6 335.2,158.6 336.4,158.6 337.6,158.6 338.8,158.6 340.0,158.6 341.2,158.6 342.4,158.6 343.5,158.6 344.7,158.6 345.9,158.6 347.1,158.6 348.3,158.6 349.5,158.6 350.7,158.6 351.9,158.6 353.0,158.6 354.2,158.6 355.4,158.6 356.6,158.6 357.8,158.6 359.0,158.6 360.2,158.6 361.3,158.6 362.5,158.6 363.7,158.6 364.9,158.6 366.1,158.6 367.3,158.6 368.5,158.6 369.7,158.6 370.8,158.6 372.0,158.6 373.2,158.6 374.4,158.6 375.6,158.6 376.8,158.6 378.0,158.6 379.1,158.6 380.3,158.6 381.5,158.6 382.7,158.6 383.9,158.6 385.1,158.6 386.3,158.6 387.5,158.6 388.6,158.6 389.8,158.6 391.0,158.6 392.2,158.6 393.4,158.6 394.6,158.6 395.8,158.6 396.9,158.6 398.1,158.6 399.3,158.6 400.5,158.6 401.7,158.6 402.9,158.6 404.1,158.6 405.3,158.6 406.4,158.6 407.6,158.6 408.8,158.6 410.0,158.6 411.2,158.6 412.4,158.6 413.6,158.6 414.7,158.6 415.9,158.6 417.1,158.6 418.3,158.6 419.5,158.6 420.7,158.6 421.9,158.6 423.1,158.6 424.2,158.6 425.4,158.6 426.6,158.6 427.8,158.6 429.0,158.6 430.2,158.6 431.4,158.6 432.5,158.6 433.7,158.6 434.9,158.6 436.1,158.6 437.3,158.6 438.5,158.6 439.7,158.6 440.9,158.6 442.0,158.6 443.2,158.6 444.4,158.6 445.6,158.6 446.8,158.6 448.0,158.6 449.2,158.6 450.3,158.6 451.5,158.6 452.7,158.6 453.9,158.6 455.1,158.6 456.3,158.6 457.5,158.6 458.7,158.6 459.8,158.6 461.0,158.6 462.2,158.6 463.4,158.6 464.6,158.6 465.8,158.6 467.0,158.6 468.1,158.6 469.3,158.6 470.5,158.6 471.7,158.6 472.9,158.6 474.1,158.6 475.3,158.6 476.5,158.6 477.6,158.6 478.8,158.6 480.0,158.6 481.2,158.6 482.4,158.6 483.6,158.6 484.8,158.6 485.9,158.6 487.1,158.6 488.3,158.6 489.5,158.6 490.7,158.6 491.9,158.6 493.1,158.6 494.3,158.6 495.4,158.6 496.6,158.6 497.8,158.6 499.0,158.6 500.2,158.6 501.4,158.6 502.6,158.6 503.7,158.6 504.9,158.6 506.1,158.6 507.3,158.6 508.5,158.6 509.7,158.6 510.9,158.6 512.1,158.6 513.2,158.6 514.4,158.6 515.6,158.6 516.8,158.6 518.0,158.6 519.2,158.6 520.4,158.6 521.5,158.6 522.7,158.6 523.9,158.6 525.1,158.6 526.3,158.6 527.5,158.6 528.7,158.6 529.9,158.6 531.0,158.6 532.2,158.6 533.4,158.6 534.6,158.6 535.8,158.6 537.0,158.6 538.2,158.6 539.3,158.6 540.5,158.6 541.7,158.6 542.9,158.6 544.1,158.6 545.3,158.6 546.5,158.6 547.7,158.6 548.8,158.6 550.0,158.6 551.2,158.6 552.4,158.6 553.6,158.6 554.8,158.6 556.0,158.6 557.1,158.6 558.3,158.6 559.5,158.6 560.7,158.6 561.9,158.6 563.1,158.6 564.3,158.6 565.5,158.6 566.6,158.6 567.8,158.6 569.0,158.6 570.2,158.6 571.4,158.6 572.6,158.6 573.8,158.6 574.9,158.6 576.1,158.6 577.3,158.6 578.5,158.6 579.7,158.6 580.9,158.6 582.1,158.6 583.3,158.6 584.4,158.6 585.6,158.6 586.8,158.6 588.0,158.6 589.2,158.6 590.4,158.6 591.6,158.6 592.7,158.6 593.9,158.6 595.1,158.6 596.3,158.6 597.5,158.6 598.7,158.6 599.9,158.6 601.1,158.6 602.2,158.6 603.4,158.6 604.6,158.6 605.8,158.6 607.0,158.6 608.2,158.6 609.4,158.6 610.5,158.6 611.7,158.6 612.9,158.6 614.1,158.6 615.3,158.6 616.5,158.6 617.7,158.6 618.9,158.6 620.0,158.6 621.2,158.6 622.4,158.6 623.6,158.6 624.8,158.6 626.0,158.6 627.2,158.6 628.3,158.6 629.5,158.6 630.7,158.6 631.9,158.6 633.1,158.6 634.3,158.6 635.5,158.6 636.7,158.6 637.8,158.6 639.0,158.6 640.2,158.6 641.4,158.6 642.6,158.6 643.8,158.6 645.0,158.6 646.1,158.6 647.3,158.6 648.5,158.6 649.7,158.6 650.9,158.6 652.1,158.6 653.3,158.6 654.5,158.6 655.6,158.6 656.8,158.6 658.0,158.6 659.2,158.6 660.4,158.6 661.6,158.6 662.8,158.6 663.9,158.6 665.1,158.6 666.3,158.6 667.5,158.6 668.7,158.6 669.9,158.6 671.1,158.6 672.3,158.6 673.4,158.6 674.6,158.6 675.8,158.6 677.0,158.6 678.2,158.6 679.4,158.6 680.6,158.6 681.7,158.6 682.9,158.6 684.1,158.6 685.3,158.6 686.5,158.6 687.7,158.6 688.9,158.6 690.1,158.6 691.2,158.6 692.4,158.6 693.6,158.6 694.8,158.6 696.0,158.6 697.2,158.6 698.4,158.6 699.5,158.6 700.7,158.6 701.9,158.6 703.1,158.6 704.3,158.6 705.5,158.6 706.7,158.6 707.9,158.6 709.0,158.6 710.2,158.6 711.4,158.6 712.6,158.6 713.8,158.6 715.0,158.6 716.2,158.6 717.3,158.6 718.5,158.6 719.7,158.6 720.9,158.6 722.1,158.6 723.3,158.6 724.5,158.6 725.7,158.6 726.8,158.6 728.0,158.6 729.2,158.6 730.4,158.6 731.6,158.6 732.8,158.6 734.0,158.6 735.1,158.6 736.3,158.6 737.5,158.6 738.7,158.6 739.9,158.6 741.1,158.6 742.3,158.6 743.5,158.6 744.6,158.6 745.8,158.6 747.0,158.6 748.2,158.6 749.4,158.6 750.6,158.6 751.8,158.6 752.9,158.6 754.1,158.6 755.3,158.6 756.5,158.6 757.7,158.6 758.9,158.6 760.1,158.6 761.3,158.6 762.4,158.6 763.6,158.6 764.8,158.6 766.0,158.6"/>
<line x1="606" y1="42" x2="628" y2="42" stroke="#0f62fe" stroke-width="2.2"/>
<text x="634" y="46" font-family="Arial" font-size="12">p_dps</text>
<polyline fill="none" stroke="#24a148" stroke-width="2.2" points="54.0,158.6 55.2,203.4 56.4,222.0 57.6,210.0 58.7,188.7 59.9,174.6 61.1,170.4 62.3,170.3 63.5,169.3 64.7,166.2 65.9,162.7 67.1,160.0 68.2,158.4 69.4,157.2 70.6,156.2 71.8,155.2 73.0,154.2 74.2,153.5 75.4,153.0 76.5,152.6 77.7,152.2 78.9,152.0 80.1,151.7 81.3,151.6 82.5,151.5 83.7,151.4 84.9,151.4 86.0,151.4 87.2,151.4 88.4,151.4 89.6,151.5 90.8,151.6 92.0,151.7 93.2,151.8 94.3,151.9 95.5,152.0 96.7,152.1 97.9,152.2 99.1,152.3 100.3,152.4 101.5,152.6 102.7,152.7 103.8,152.8 105.0,153.0 106.2,153.1 107.4,153.2 108.6,153.3 109.8,153.5 111.0,153.6 112.1,153.7 113.3,153.9 114.5,154.0 115.7,154.1 116.9,154.2 118.1,154.4 119.3,154.5 120.5,154.6 121.6,154.7 122.8,154.8 124.0,155.0 125.2,155.1 126.4,155.2 127.6,155.3 128.8,155.4 129.9,155.5 131.1,155.6 132.3,155.7 133.5,155.8 134.7,155.9 135.9,156.0 137.1,156.1 138.3,156.2 139.4,156.3 140.6,156.4 141.8,156.5 143.0,156.6 144.2,156.7 145.4,156.8 146.6,156.9 147.7,157.0 148.9,157.6 150.1,158.3 151.3,158.6 152.5,158.9 153.7,159.3 154.9,159.6 156.1,159.9 157.2,160.2 158.4,160.4 159.6,160.6 160.8,160.8 162.0,161.0 163.2,161.1 164.4,161.3 165.5,161.4 166.7,161.5 167.9,161.7 169.1,161.8 170.3,161.9 171.5,162.0 172.7,162.0 173.9,162.1 175.0,162.2 176.2,162.3 177.4,162.3 178.6,162.4 179.8,162.5 181.0,162.5 182.2,162.6 183.3,162.6 184.5,162.7 185.7,162.7 186.9,162.8 188.1,162.8 189.3,162.8 190.5,162.9 191.7,162.9 192.8,162.9 194.0,162.9 195.2,163.0 196.4,163.0 197.6,163.0 198.8,163.0 200.0,163.0 201.1,163.0 202.3,163.0 203.5,163.1 204.7,163.1 205.9,163.1 207.1,163.1 208.3,163.1 209.5,163.1 210.6,163.1 211.8,163.1 213.0,163.1 214.2,163.0 215.4,163.0 216.6,163.0 217.8,163.0 218.9,163.0 220.1,163.0 221.3,163.0 222.5,162.9 223.7,162.9 224.9,162.9 226.1,162.9 227.3,162.9 228.4,162.8 229.6,162.8 230.8,162.8 232.0,162.8 233.2,162.7 234.4,162.7 235.6,162.7 236.7,162.6 237.9,162.6 239.1,162.6 240.3,162.5 241.5,162.5 242.7,162.5 243.9,162.4 245.1,162.4 246.2,162.3 247.4,162.3 248.6,162.3 249.8,162.2 251.0,162.2 252.2,162.1 253.4,162.1 254.5,162.1 255.7,162.0 256.9,162.0 258.1,161.9 259.3,161.9 260.5,161.8 261.7,161.8 262.9,161.7 264.0,161.7 265.2,161.6 266.4,161.6 267.6,161.5 268.8,161.7 270.0,161.1 271.2,162.3 272.3,159.3 273.5,166.1 274.7,150.2 275.9,187.3 277.1,99.0 278.3,266.0 279.5,112.3 280.7,221.0 281.8,54.0 283.0,208.0 284.2,85.7 285.4,252.6 286.6,111.9 287.8,254.3 289.0,87.3 290.1,231.2 291.3,64.2 292.5,231.2 293.7,64.2 294.9,231.2 296.1,64.2 297.3,231.2 298.5,64.2 299.6,231.2 300.8,77.9 302.0,244.9 303.2,85.8 304.4,252.8 305.6,85.8 306.8,252.8 307.9,85.8 309.1,252.8 310.3,85.8 311.5,252.8 312.7,85.8 313.9,252.8 315.1,85.8 316.3,252.8 317.4,85.8 318.6,252.8 319.8,85.8 321.0,252.8 322.2,85.8 323.4,252.8 324.6,85.8 325.7,252.8 326.9,85.8 328.1,232.4 329.3,65.5 330.5,232.4 331.7,65.5 332.9,232.4 334.1,65.5 335.2,232.4 336.4,65.5 337.6,232.4 338.8,65.5 340.0,232.4 341.2,65.5 342.4,232.4 343.5,65.5 344.7,232.4 345.9,75.6 347.1,242.6 348.3,80.8 349.5,247.7 350.7,80.8 351.9,247.7 353.0,80.8 354.2,247.7 355.4,80.8 356.6,247.7 357.8,80.8 359.0,247.7 360.2,80.8 361.3,247.7 362.5,80.8 363.7,247.7 364.9,80.8 366.1,247.7 367.3,80.8 368.5,247.7 369.7,80.8 370.8,247.7 372.0,80.8 373.2,247.7 374.4,80.8 375.6,247.7 376.8,80.8 378.0,247.7 379.1,80.8 380.3,247.7 381.5,80.8 382.7,247.7 383.9,80.8 385.1,247.7 386.3,80.8 387.5,235.4 388.6,68.4 389.8,235.4 391.0,68.4 392.2,235.4 393.4,68.4 394.6,235.4 395.8,68.4 396.9,235.4 398.1,68.4 399.3,235.4 400.5,68.4 401.7,235.4 402.9,68.4 404.1,235.4 405.3,68.4 406.4,235.4 407.6,68.4 408.8,235.4 410.0,68.4 411.2,235.4 412.4,68.4 413.6,235.4 414.7,68.4 415.9,235.4 417.1,68.4 418.3,235.4 419.5,68.4 420.7,235.4 421.9,68.4 423.1,235.4 424.2,68.4 425.4,235.4 426.6,68.4 427.8,235.4 429.0,68.4 430.2,235.4 431.4,68.4 432.5,235.4 433.7,68.4 434.9,235.4 436.1,68.4 437.3,235.4 438.5,68.4 439.7,235.4 440.9,68.4 442.0,235.4 443.2,68.4 444.4,235.4 445.6,69.5 446.8,236.5 448.0,80.3 449.2,247.3 450.3,80.3 451.5,247.3 452.7,80.3 453.9,247.3 455.1,80.3 456.3,247.3 457.5,80.3 458.7,247.3 459.8,80.3 461.0,247.3 462.2,80.3 463.4,247.3 464.6,80.3 465.8,247.3 467.0,80.3 468.1,247.3 469.3,80.3 470.5,247.3 471.7,80.3 472.9,247.3 474.1,80.3 475.3,247.3 476.5,80.3 477.6,247.3 478.8,80.3 480.0,247.3 481.2,80.3 482.4,247.3 483.6,80.3 484.8,247.3 485.9,80.3 487.1,247.3 488.3,80.3 489.5,247.3 490.7,80.3 491.9,247.3 493.1,80.3 494.3,247.3 495.4,80.3 496.6,247.3 497.8,80.3 499.0,237.5 500.2,70.5 501.4,237.5 502.6,70.5 503.7,237.5 504.9,70.5 506.1,237.5 507.3,70.5 508.5,237.5 509.7,70.5 510.9,237.5 512.1,70.5 513.2,237.5 514.4,70.5 515.6,237.5 516.8,70.5 518.0,237.5 519.2,70.5 520.4,237.5 521.5,70.5 522.7,237.5 523.9,70.5 525.1,237.5 526.3,70.5 527.5,237.5 528.7,70.5 529.9,237.5 531.0,70.5 532.2,237.5 533.4,70.5 534.6,237.5 535.8,70.5 537.0,237.5 538.2,70.5 539.3,237.5 540.5,70.5 541.7,237.5 542.9,70.5 544.1,237.5 545.3,70.5 546.5,237.5 547.7,70.5 548.8,237.5 550.0,70.5 551.2,237.5 552.4,70.5 553.6,237.5 554.8,70.5 556.0,237.5 557.1,70.5 558.3,237.5 559.5,70.5 560.7,237.5 561.9,70.5 563.1,237.5 564.3,70.5 565.5,237.5 566.6,70.5 567.8,237.5 569.0,70.5 570.2,237.5 571.4,70.5 572.6,237.5 573.8,70.5 574.9,237.5 576.1,70.5 577.3,237.5 578.5,70.5 579.7,237.5 580.9,70.5 582.1,237.5 583.3,70.5 584.4,237.5 585.6,70.5 586.8,237.5 588.0,70.5 589.2,237.5 590.4,70.5 591.6,237.5 592.7,70.5 593.9,237.5 595.1,70.5 596.3,237.5 597.5,70.5 598.7,237.5 599.9,70.5 601.1,237.5 602.2,70.5 603.4,237.5 604.6,70.5 605.8,237.5 607.0,70.5 608.2,237.5 609.4,70.5 610.5,237.5 611.7,70.5 612.9,237.5 614.1,70.5 615.3,237.5 616.5,70.5 617.7,237.5 618.9,70.5 620.0,237.5 621.2,75.5 622.4,242.5 623.6,75.5 624.8,242.5 626.0,75.5 627.2,242.5 628.3,75.5 629.5,242.5 630.7,75.5 631.9,242.5 633.1,75.5 634.3,242.5 635.5,75.5 636.7,242.5 637.8,75.5 639.0,242.5 640.2,75.5 641.4,242.5 642.6,75.5 643.8,242.5 645.0,75.5 646.1,242.5 647.3,75.5 648.5,242.5 649.7,75.5 650.9,242.5 652.1,75.5 653.3,242.5 654.5,75.5 655.6,242.5 656.8,75.5 658.0,242.5 659.2,75.5 660.4,242.5 661.6,75.5 662.8,242.5 663.9,75.5 665.1,242.5 666.3,75.5 667.5,242.5 668.7,75.5 669.9,242.5 671.1,75.5 672.3,242.5 673.4,75.5 674.6,242.5 675.8,75.5 677.0,242.5 678.2,75.5 679.4,242.5 680.6,75.5 681.7,242.5 682.9,75.5 684.1,242.5 685.3,75.5 686.5,242.5 687.7,75.5 688.9,242.5 690.1,75.5 691.2,242.5 692.4,75.5 693.6,242.5 694.8,75.5 696.0,242.5 697.2,75.5 698.4,242.5 699.5,75.5 700.7,242.5 701.9,75.5 703.1,242.5 704.3,75.5 705.5,242.5 706.7,75.5 707.9,242.5 709.0,75.5 710.2,242.5 711.4,75.5 712.6,242.5 713.8,75.5 715.0,242.5 716.2,75.5 717.3,242.5 718.5,75.5 719.7,242.5 720.9,75.5 722.1,242.5 723.3,75.5 724.5,242.5 725.7,75.5 726.8,242.5 728.0,75.5 729.2,242.5 730.4,75.5 731.6,242.5 732.8,75.5 734.0,242.5 735.1,75.5 736.3,242.5 737.5,75.5 738.7,242.5 739.9,75.5 741.1,242.5 742.3,75.5 743.5,242.5 744.6,75.5 745.8,242.5 747.0,75.5 748.2,242.5 749.4,75.5 750.6,242.5 751.8,75.5 752.9,242.5 754.1,75.5 755.3,242.5 756.5,75.5 757.7,242.5 758.9,75.5 760.1,242.5 761.3,75.5 762.4,242.5 763.6,75.5 764.8,242.5 766.0,75.5"/>
<line x1="606" y1="60" x2="628" y2="60" stroke="#24a148" stroke-width="2.2"/>
<text x="634" y="64" font-family="Arial" font-size="12">q_dps</text>
<polyline fill="none" stroke="#da1e28" stroke-width="2.2" points="54.0,158.6 55.2,158.6 56.4,158.6 57.6,158.6 58.7,158.6 59.9,158.6 61.1,158.6 62.3,158.6 63.5,158.6 64.7,158.6 65.9,158.6 67.1,158.6 68.2,158.6 69.4,158.6 70.6,158.6 71.8,158.6 73.0,158.6 74.2,158.6 75.4,158.6 76.5,158.6 77.7,158.6 78.9,158.6 80.1,158.6 81.3,158.6 82.5,158.6 83.7,158.6 84.9,158.6 86.0,158.6 87.2,158.6 88.4,158.6 89.6,158.6 90.8,158.6 92.0,158.6 93.2,158.6 94.3,158.6 95.5,158.6 96.7,158.6 97.9,158.6 99.1,158.6 100.3,158.6 101.5,158.6 102.7,158.6 103.8,158.6 105.0,158.6 106.2,158.6 107.4,158.6 108.6,158.6 109.8,158.6 111.0,158.6 112.1,158.6 113.3,158.6 114.5,158.6 115.7,158.6 116.9,158.6 118.1,158.6 119.3,158.6 120.5,158.6 121.6,158.6 122.8,158.6 124.0,158.6 125.2,158.6 126.4,158.6 127.6,158.6 128.8,158.6 129.9,158.6 131.1,158.6 132.3,158.6 133.5,158.6 134.7,158.6 135.9,158.6 137.1,158.6 138.3,158.6 139.4,158.6 140.6,158.6 141.8,158.6 143.0,158.6 144.2,158.6 145.4,158.6 146.6,158.6 147.7,158.6 148.9,158.6 150.1,158.6 151.3,158.6 152.5,158.6 153.7,158.6 154.9,158.6 156.1,158.6 157.2,158.6 158.4,158.6 159.6,158.6 160.8,158.6 162.0,158.6 163.2,158.6 164.4,158.6 165.5,158.6 166.7,158.6 167.9,158.6 169.1,158.6 170.3,158.6 171.5,158.6 172.7,158.6 173.9,158.6 175.0,158.6 176.2,158.6 177.4,158.6 178.6,158.6 179.8,158.6 181.0,158.6 182.2,158.6 183.3,158.6 184.5,158.6 185.7,158.6 186.9,158.6 188.1,158.6 189.3,158.6 190.5,158.6 191.7,158.6 192.8,158.6 194.0,158.6 195.2,158.6 196.4,158.6 197.6,158.6 198.8,158.6 200.0,158.6 201.1,158.6 202.3,158.6 203.5,158.6 204.7,158.6 205.9,158.6 207.1,158.6 208.3,158.6 209.5,158.6 210.6,158.6 211.8,158.6 213.0,158.6 214.2,158.6 215.4,158.6 216.6,158.6 217.8,158.6 218.9,158.6 220.1,158.6 221.3,158.6 222.5,158.6 223.7,158.6 224.9,158.6 226.1,158.6 227.3,158.6 228.4,158.6 229.6,158.6 230.8,158.6 232.0,158.6 233.2,158.6 234.4,158.6 235.6,158.6 236.7,158.6 237.9,158.6 239.1,158.6 240.3,158.6 241.5,158.6 242.7,158.6 243.9,158.6 245.1,158.6 246.2,158.6 247.4,158.6 248.6,158.6 249.8,158.6 251.0,158.6 252.2,158.6 253.4,158.6 254.5,158.6 255.7,158.6 256.9,158.6 258.1,158.6 259.3,158.6 260.5,158.6 261.7,158.6 262.9,158.6 264.0,158.6 265.2,158.6 266.4,158.6 267.6,158.6 268.8,158.6 270.0,158.6 271.2,158.6 272.3,158.6 273.5,158.6 274.7,158.6 275.9,158.6 277.1,158.6 278.3,158.6 279.5,158.6 280.7,158.6 281.8,158.6 283.0,158.6 284.2,158.6 285.4,158.6 286.6,158.6 287.8,158.6 289.0,158.6 290.1,158.6 291.3,158.6 292.5,158.6 293.7,158.6 294.9,158.6 296.1,158.6 297.3,158.6 298.5,158.6 299.6,158.6 300.8,158.6 302.0,158.6 303.2,158.6 304.4,158.6 305.6,158.6 306.8,158.6 307.9,158.6 309.1,158.6 310.3,158.6 311.5,158.6 312.7,158.6 313.9,158.6 315.1,158.6 316.3,158.6 317.4,158.6 318.6,158.6 319.8,158.6 321.0,158.6 322.2,158.6 323.4,158.6 324.6,158.6 325.7,158.6 326.9,158.6 328.1,158.6 329.3,158.6 330.5,158.6 331.7,158.6 332.9,158.6 334.1,158.6 335.2,158.6 336.4,158.6 337.6,158.6 338.8,158.6 340.0,158.6 341.2,158.6 342.4,158.6 343.5,158.6 344.7,158.6 345.9,158.6 347.1,158.6 348.3,158.6 349.5,158.6 350.7,158.6 351.9,158.6 353.0,158.6 354.2,158.6 355.4,158.6 356.6,158.6 357.8,158.6 359.0,158.6 360.2,158.6 361.3,158.6 362.5,158.6 363.7,158.6 364.9,158.6 366.1,158.6 367.3,158.6 368.5,158.6 369.7,158.6 370.8,158.6 372.0,158.6 373.2,158.6 374.4,158.6 375.6,158.6 376.8,158.6 378.0,158.6 379.1,158.6 380.3,158.6 381.5,158.6 382.7,158.6 383.9,158.6 385.1,158.6 386.3,158.6 387.5,158.6 388.6,158.6 389.8,158.6 391.0,158.6 392.2,158.6 393.4,158.6 394.6,158.6 395.8,158.6 396.9,158.6 398.1,158.6 399.3,158.6 400.5,158.6 401.7,158.6 402.9,158.6 404.1,158.6 405.3,158.6 406.4,158.6 407.6,158.6 408.8,158.6 410.0,158.6 411.2,158.6 412.4,158.6 413.6,158.6 414.7,158.6 415.9,158.6 417.1,158.6 418.3,158.6 419.5,158.6 420.7,158.6 421.9,158.6 423.1,158.6 424.2,158.6 425.4,158.6 426.6,158.6 427.8,158.6 429.0,158.6 430.2,158.6 431.4,158.6 432.5,158.6 433.7,158.6 434.9,158.6 436.1,158.6 437.3,158.6 438.5,158.6 439.7,158.6 440.9,158.6 442.0,158.6 443.2,158.6 444.4,158.6 445.6,158.6 446.8,158.6 448.0,158.6 449.2,158.6 450.3,158.6 451.5,158.6 452.7,158.6 453.9,158.6 455.1,158.6 456.3,158.6 457.5,158.6 458.7,158.6 459.8,158.6 461.0,158.6 462.2,158.6 463.4,158.6 464.6,158.6 465.8,158.6 467.0,158.6 468.1,158.6 469.3,158.6 470.5,158.6 471.7,158.6 472.9,158.6 474.1,158.6 475.3,158.6 476.5,158.6 477.6,158.6 478.8,158.6 480.0,158.6 481.2,158.6 482.4,158.6 483.6,158.6 484.8,158.6 485.9,158.6 487.1,158.6 488.3,158.6 489.5,158.6 490.7,158.6 491.9,158.6 493.1,158.6 494.3,158.6 495.4,158.6 496.6,158.6 497.8,158.6 499.0,158.6 500.2,158.6 501.4,158.6 502.6,158.6 503.7,158.6 504.9,158.6 506.1,158.6 507.3,158.6 508.5,158.6 509.7,158.6 510.9,158.6 512.1,158.6 513.2,158.6 514.4,158.6 515.6,158.6 516.8,158.6 518.0,158.6 519.2,158.6 520.4,158.6 521.5,158.6 522.7,158.6 523.9,158.6 525.1,158.6 526.3,158.6 527.5,158.6 528.7,158.6 529.9,158.6 531.0,158.6 532.2,158.6 533.4,158.6 534.6,158.6 535.8,158.6 537.0,158.6 538.2,158.6 539.3,158.6 540.5,158.6 541.7,158.6 542.9,158.6 544.1,158.6 545.3,158.6 546.5,158.6 547.7,158.6 548.8,158.6 550.0,158.6 551.2,158.6 552.4,158.6 553.6,158.6 554.8,158.6 556.0,158.6 557.1,158.6 558.3,158.6 559.5,158.6 560.7,158.6 561.9,158.6 563.1,158.6 564.3,158.6 565.5,158.6 566.6,158.6 567.8,158.6 569.0,158.6 570.2,158.6 571.4,158.6 572.6,158.6 573.8,158.6 574.9,158.6 576.1,158.6 577.3,158.6 578.5,158.6 579.7,158.6 580.9,158.6 582.1,158.6 583.3,158.6 584.4,158.6 585.6,158.6 586.8,158.6 588.0,158.6 589.2,158.6 590.4,158.6 591.6,158.6 592.7,158.6 593.9,158.6 595.1,158.6 596.3,158.6 597.5,158.6 598.7,158.6 599.9,158.6 601.1,158.6 602.2,158.6 603.4,158.6 604.6,158.6 605.8,158.6 607.0,158.6 608.2,158.6 609.4,158.6 610.5,158.6 611.7,158.6 612.9,158.6 614.1,158.6 615.3,158.6 616.5,158.6 617.7,158.6 618.9,158.6 620.0,158.6 621.2,158.6 622.4,158.6 623.6,158.6 624.8,158.6 626.0,158.6 627.2,158.6 628.3,158.6 629.5,158.6 630.7,158.6 631.9,158.6 633.1,158.6 634.3,158.6 635.5,158.6 636.7,158.6 637.8,158.6 639.0,158.6 640.2,158.6 641.4,158.6 642.6,158.6 643.8,158.6 645.0,158.6 646.1,158.6 647.3,158.6 648.5,158.6 649.7,158.6 650.9,158.6 652.1,158.6 653.3,158.6 654.5,158.6 655.6,158.6 656.8,158.6 658.0,158.6 659.2,158.6 660.4,158.6 661.6,158.6 662.8,158.6 663.9,158.6 665.1,158.6 666.3,158.6 667.5,158.6 668.7,158.6 669.9,158.6 671.1,158.6 672.3,158.6 673.4,158.6 674.6,158.6 675.8,158.6 677.0,158.6 678.2,158.6 679.4,158.6 680.6,158.6 681.7,158.6 682.9,158.6 684.1,158.6 685.3,158.6 686.5,158.6 687.7,158.6 688.9,158.6 690.1,158.6 691.2,158.6 692.4,158.6 693.6,158.6 694.8,158.6 696.0,158.6 697.2,158.6 698.4,158.6 699.5,158.6 700.7,158.6 701.9,158.6 703.1,158.6 704.3,158.6 705.5,158.6 706.7,158.6 707.9,158.6 709.0,158.6 710.2,158.6 711.4,158.6 712.6,158.6 713.8,158.6 715.0,158.6 716.2,158.6 717.3,158.6 718.5,158.6 719.7,158.6 720.9,158.6 722.1,158.6 723.3,158.6 724.5,158.6 725.7,158.6 726.8,158.6 728.0,158.6 729.2,158.6 730.4,158.6 731.6,158.6 732.8,158.6 734.0,158.6 735.1,158.6 736.3,158.6 737.5,158.6 738.7,158.6 739.9,158.6 741.1,158.6 742.3,158.6 743.5,158.6 744.6,158.6 745.8,158.6 747.0,158.6 748.2,158.6 749.4,158.6 750.6,158.6 751.8,158.6 752.9,158.6 754.1,158.6 755.3,158.6 756.5,158.6 757.7,158.6 758.9,158.6 760.1,158.6 761.3,158.6 762.4,158.6 763.6,158.6 764.8,158.6 766.0,158.6"/>
<line x1="606" y1="78" x2="628" y2="78" stroke="#da1e28" stroke-width="2.2"/>
<text x="634" y="82" font-family="Arial" font-size="12">r_dps</text>
</svg>