<svg xmlns="http://www.w3.org/2000/svg" width="820" height="320" viewBox="0 0 820 320">
<rect width="100%" height="100%" fill="#ffffff"/>
<text x="54" y="28" font-family="Arial" font-size="18" font-weight="700">Alpha/Beta</text>
<line x1="54" y1="266" x2="766" y2="266" stroke="#1f2933"/>
<line x1="54" y1="54" x2="54" y2="266" stroke="#1f2933"/>
<text x="54" y="306" font-family="Arial" font-size="12">time (s)</text>
<text x="596" y="306" font-family="Arial" font-size="12">angle (deg)</text>
<text x="58" y="68" font-family="Arial" font-size="11">4.68</text>
<text x="58" y="260" font-family="Arial" font-size="11">0</text>
<polyline fill="none" stroke="#0f62fe" stroke-width="2.2" points="54.0,237.7 55.2,217.2 56.4,192.2 57.6,171.1 58.7,156.4 59.9,145.7 61.1,136.5 62.3,127.5 63.5,119.0 64.7,111.6 65.9,105.5 67.1,100.2 68.2,95.6 69.4,91.5 70.6,87.8 71.8,84.6 73.0,81.7 74.2,79.2 75.4,76.9 76.5,74.8 77.7,73.0 78.9,71.3 80.1,69.8 81.3,68.4 82.5,67.2 83.7,66.0 84.9,65.0 86.0,64.0 87.2,63.1 88.4,62.3 89.6,61.5 90.8,60.8 92.0,60.1 93.2,59.5 94.3,59.0 95.5,58.5 96.7,58.0 97.9,57.5 99.1,57.1 100.3,56.7 101.5,56.4 102.7,56.1 103.8,55.8 105.0,55.5 106.2,55.2 107.4,55.0 108.6,54.8 109.8,54.6 111.0,54.5 112.1,54.4 113.3,54.3 114.5,54.2 115.7,54.1 116.9,54.0 118.1,54.0 119.3,54.0 120.5,54.0 121.6,54.0 122.8,54.1 124.0,54.1 125.2,54.2 126.4,54.3 127.6,54.4 128.8,54.5 129.9,54.7 131.1,54.8 132.3,55.0 133.5,55.2 134.7,55.4 135.9,55.6 137.1,55.8 138.3,56.1 139.4,56.3 140.6,56.6 141.8,56.9 143.0,57.2 144.2,57.5 145.4,57.8 146.6,58.1 147.7,58.5 148.9,58.7 150.1,58.7 151.3,58.8 152.5,58.7 153.7,58.6 154.9,58.5 156.1,58.3 157.2,58.2 158.4,58.0 159.6,57.8 160.8,57.5 162.0,57.3 163.2,57.1 164.4,57.0 165.5,56.8 166.7,56.6 167.9,56.4 169.1,56.3 170.3,56.2 171.5,56.1 172.7,56.0 173.9,55.9 175.0,55.9 176.2,55.9 177.4,55.9 178.6,55.9 179.8,56.0 181.0,56.0 182.2,56.1 183.3,56.2 184.5,56.4 185.7,56.5 186.9,56.7 188.1,56.9 189.3,57.2 190.5,57.4 191.7,57.7 192.8,58.0 194.0,58.3 195.2,58.6 196.4,59.0 197.6,59.4 198.8,59.8 200.0,60.2 201.1,60.6 202.3,61.1 203.5,61.6 204.7,62.1 205.9,62.6 207.1,63.1 208.3,63.7 209.5,64.2 210.6,64.8 211.8,65.4 213.0,66.1 214.2,66.7 215.4,67.4 216.6,68.0 217.8,68.7 218.9,69.4 220.1,70.1 221.3,70.8 222.5,71.6 223.7,72.3 224.9,73.1 226.1,73.9 227.3,74.7 228.4,75.5 229.6,76.3 230.8,77.1 232.0,78.0 233.2,78.8 234.4,79.7 235.6,80.6 236.7,81.4 237.9,82.3 239.1,83.2 240.3,84.1 241.5,85.0 242.7,86.0 243.9,86.9 245.1,87.8 246.2,88.8 247.4,89.7 248.6,90.7 249.8,91.6 251.0,92.6 252.2,93.6 253.4,94.6 254.5,95.6 255.7,96.5 256.9,97.5 258.1,98.5 259.3,99.5 260.5,100.5 261.7,101.5 262.9,102.5 264.0,103.5 265.2,104.6 266.4,105.6 267.6,106.6 268.8,107.6 270.0,108.7 271.2,109.5 272.3,111.1 273.5,110.8 274.7,114.8 275.9,108.7 277.1,126.8 278.3,98.7 279.5,113.8 280.7,98.6 281.8,129.6 283.0,117.2 284.2,138.8 285.4,113.9 286.6,128.7 287.8,104.0 289.0,126.0 290.1,107.7 291.3,135.8 292.5,117.1 293.7,144.8 294.9,125.7 296.1,153.1 297.3,133.8 298.5,160.8 299.6,141.2 300.8,164.3 302.0,140.8 303.2,161.8 304.4,136.4 305.6,157.7 306.8,132.5 307.9,154.0 309.1,129.0 310.3,150.7 311.5,125.9 312.7,147.8 313.9,123.2 315.1,145.2 316.3,120.8 317.4,143.0 318.6,118.6 319.8,141.0 321.0,116.8 322.2,139.3 323.4,115.3 324.6,137.9 325.7,114.0 326.9,136.7 328.1,118.4 329.3,146.5 330.5,127.8 331.7,155.5 332.9,136.3 334.1,163.7 335.2,144.2 336.4,171.2 337.6,151.4 338.8,178.1 340.0,157.9 341.2,184.4 342.4,164.0 343.5,190.2 344.7,169.5 345.9,192.7 347.1,169.2 348.3,191.1 349.5,166.3 350.7,188.4 351.9,163.8 353.0,186.0 354.2,161.5 355.4,183.9 356.6,159.6 357.8,182.1 359.0,157.9 360.2,180.5 361.3,156.4 362.5,179.2 363.7,155.1 364.9,178.0 366.1,154.1 367.3,177.0 368.5,153.2 369.7,176.2 370.8,152.4 372.0,175.5 373.2,151.8 374.4,175.0 375.6,151.4 376.8,174.7 378.0,151.2 379.1,174.5 380.3,151.1 381.5,174.5 382.7,151.1 383.9,174.7 385.1,151.3 386.3,174.9 387.5,155.0 388.6,181.7 389.8,161.4 391.0,187.9 392.2,167.3 393.4,193.5 394.6,172.6 395.8,198.6 396.9,177.4 398.1,203.2 399.3,181.8 400.5,207.3 401.7,185.7 402.9,211.1 404.1,189.3 405.3,214.5 406.4,192.6 407.6,217.6 408.8,195.5 410.0,220.4 411.2,198.2 412.4,222.9 413.6,200.6 414.7,225.2 415.9,202.8 417.1,227.3 418.3,204.8 419.5,229.2 420.7,206.6 421.9,230.9 423.1,208.2 424.2,232.5 425.4,209.7 426.6,234.0 427.8,211.1 429.0,235.3 430.2,212.4 431.4,236.5 432.5,213.5 433.7,237.6 434.9,214.6 436.1,238.6 437.3,215.5 438.5,239.5 439.7,216.4 440.9,240.4 442.0,217.2 443.2,241.1 444.4,217.9 445.6,241.5 446.8,217.9 448.0,238.6 449.2,212.3 450.3,233.3 451.5,207.4 452.7,228.7 453.9,203.0 455.1,224.6 456.3,199.2 457.5,221.0 458.7,195.8 459.8,217.9 461.0,192.9 462.2,215.2 463.4,190.4 464.6,212.8 465.8,188.1 467.0,210.7 468.1,186.2 469.3,208.9 470.5,184.5 471.7,207.4 472.9,183.1 474.1,206.1 475.3,181.9 476.5,204.9 477.6,180.8 478.8,204.0 480.0,179.9 481.2,203.2 482.4,179.2 483.6,202.5 484.8,178.6 485.9,201.9 487.1,178.1 488.3,201.6 489.5,177.8 490.7,201.3 491.9,177.7 493.1,201.3 494.3,177.7 495.4,201.4 496.6,177.9 497.8,201.7 499.0,180.8 500.2,207.1 501.4,186.0 502.6,211.9 503.7,190.5 504.9,216.2 506.1,194.5 507.3,220.0 508.5,198.0 509.7,223.3 510.9,201.2 512.1,226.3 513.2,204.0 514.4,228.9 515.6,206.4 516.8,231.2 518.0,208.6 519.2,233.3 520.4,210.6 521.5,235.1 522.7,212.3 523.9,236.7 525.1,213.8 526.3,238.2 527.5,215.2 528.7,239.5 529.9,216.4 531.0,240.6 532.2,217.5 533.4,241.6 534.6,218.4 535.8,242.6 537.0,219.3 538.2,243.4 539.3,220.1 540.5,244.1 541.7,220.8 542.9,244.8 544.1,221.4 545.3,245.4 546.5,221.9 547.7,245.9 548.8,222.5 550.0,246.4 551.2,222.9 552.4,246.9 553.6,223.3 554.8,247.3 556.0,223.7 557.1,247.6 558.3,224.1 559.5,248.0 560.7,224.4 561.9,248.3 563.1,224.7 564.3,248.6 565.5,225.0 566.6,248.8 567.8,225.2 569.0,249.1 570.2,225.4 571.4,249.1 572.6,225.4 573.8,249.2 574.9,225.4 576.1,249.1 577.3,225.4 578.5,249.1 579.7,225.3 580.9,249.0 582.1,225.2 583.3,248.8 584.4,225.1 585.6,248.7 586.8,225.0 588.0,248.5 589.2,224.8 590.4,248.4 591.6,224.6 592.7,248.2 593.9,224.4 595.1,247.9 596.3,224.2 597.5,247.7 598.7,223.9 599.9,247.4 601.1,223.6 602.2,247.0 603.4,223.2 604.6,246.6 605.8,222.8 607.0,246.2 608.2,222.4 609.4,245.8 610.5,221.9 611.7,245.3 612.9,221.4 614.1,244.7 615.3,220.8 616.5,244.1 617.7,220.2 618.9,243.5 620.0,219.6 621.2,241.5 622.4,216.3 623.6,238.4 624.8,213.4 626.0,235.6 627.2,210.7 628.3,233.1 629.5,208.3 630.7,230.8 631.9,206.2 633.1,228.8 634.3,204.2 635.5,226.9 636.7,202.5 637.8,225.2 639.0,200.8 640.2,223.6 641.4,199.4 642.6,222.2 643.8,198.0 645.0,220.9 646.1,196.7 647.3,219.7 648.5,195.6 649.7,218.6 650.9,194.5 652.1,217.5 653.3,193.5 654.5,216.5 655.6,192.5 656.8,215.6 658.0,191.6 659.2,214.7 660.4,190.8 661.6,213.9 662.8,190.0 663.9,213.1 665.1,189.2 666.3,212.4 667.5,188.5 668.7,211.7 669.9,187.8 671.1,211.0 672.3,187.2 673.4,210.3 674.6,186.5 675.8,209.7 677.0,185.9 678.2,209.1 679.4,185.3 680.6,208.5 681.7,184.7 682.9,207.9 684.1,184.1 685.3,207.3 686.5,183.5 687.7,206.7 688.9,183.0 690.1,206.2 691.2,182.4 692.4,205.6 693.6,181.9 694.8,205.1 696.0,181.4 697.2,204.6 698.4,180.8 699.5,204.0 700.7,180.3 701.9,203.5 703.1,179.8 704.3,203.0 705.5,179.3 706.7,202.5 707.9,178.8 709.0,202.0 710.2,178.3 711.4,201.5 712.6,177.8 713.8,201.0 715.0,177.3 716.2,200.4 717.3,176.8 718.5,199.9 719.7,176.3 720.9,199.4 722.1,175.8 723.3,198.9 724.5,175.3 725.7,198.4 726.8,174.8 728.0,197.9 729.2,174.3 730.4,197.4 731.6,173.8 732.8,196.9 734.0,173.3 735.1,196.4 736.3,172.8 737.5,196.0 738.7,172.3 739.9,195.5 741.1,171.8 742.3,195.0 743.5,171.3 744.6,194.5 745.8,170.8 747.0,193.9 748.2,170.3 749.4,193.4 750.6,169.8 751.8,192.9 752.9,169.3 754.1,192.4 755.3,168.8 756.5,191.9 757.7,168.3 758.9,191.4 760.1,167.8 761.3,190.9 762.4,167.3 763.6,190.4 764.8,166.8 766.0,189.9"/>
<line x1="606" y1="42" x2="628" y2="42" stroke="#0f62fe" stroke-width="2.2"/>
<text x="634" y="46" font-family="Arial" font-size="12">alpha_deg</text>
<polyline fill="none" stroke="#24a148" stroke-width="2.2" points="54.0,266.0 55.2,266.0 56.4,266.0 57.6,266.0 58.7,266.0 59.9,266.0 61.1,266.0 62.3,266.0 63.5,266.0 64.7,266.0 65.9,266.0 67.1,266.0 68.2,266.0 69.4,266.0 70.6,266.0 71.8,266.0 73.0,266.0 74.2,266.0 75.4,266.0 76.5,266.0 77.7,266.0 78.9,266.0 80.1,266.0 81.3,266.0 82.5,266.0 83.7,266.0 84.9,266.0 86.0,266.0 87.2,266.0 88.4,266.0 89.6,266.0 90.8,266.0 92.0,266.0 93.2,266.0 94.3,266.0 95.5,266.0 96.7,266.0 97.9,266.0 99.1,266.0 100.3,266.0 101.5,266.0 102.7,266.0 103.8,266.0 105.0,266.0 106.2,266.0 107.4,266.0 108.6,266.0 109.8,266.0 111.0,266.0 112.1,266.0 113.3,266.0 114.5,266.0 115.7,266.0 116.9,266.0 118.1,266.0 119.3,266.0 120.5,266.0 121.6,266.0 122.8,266.0 124.0,266.0 125.2,266.0 126.4,266.0 127.6,266.0 128.8,266.0 129.9,266.0 131.1,266.0 132.3,266.0 133.5,266.0 134.7,266.0 135.9,266.0 137.1,266.0 138.3,266.0 139.4,266.0 140.6,266.0 141.8,266.0 143.0,266.0 144.2,266.0 145.4,266.0 146.6,266.0 147.7,266.0 148.9,266.0 150.1,266.0 151.3,266.0 152.5,266.0 153.7,266.0 154.9,266.0 156.1,266.0 157.2,266.0 158.4,266.0 159.6,266.0 160.8,266.0 162.0,266.0 163.2,266.0 164.4,266.0 165.5,266.0 166.7,266.0 167.9,266.0 169.1,266.0 170.3,266.0 171.5,266.0 172.7,266.0 173.9,266.0 175.0,266.0 176.2,266.0 177.4,266.0 178.6,266.0 179.8,266.0 181.0,266.0 182.2,266.0 183.3,266.0 184.5,266.0 185.7,266.0 186.9,266.0 188.1,266.0 189.3,266.0 190.5,266.0 191.7,266.0 192.8,266.0 194.0,266.0 195.2,266.0 196.4,266.0 197.6,266.0 198.8,266.0 200.0,266.0 201.1,266.0 202.3,266.0 203.5,266.0 204.7,266.0 205.9,266.0 207.1,266.0 208.3,266.0 209.5,266.0 210.6,266.0 211.8,266.0 213.0,266.0 214.2,266.0 215.4,266.0 216.6,266.0 217.8,266.0 218.9,266.0 220.1,266.0 221.3,266.0 222.5,266.0 223.7,266.0 224.9,266.0 226.1,266.0 227.3,266.0 228.4,266.0 229.6,266.0 230.8,266.0 232.0,266.0 233.2,266.0 234.4,266.0 235.6,266.0 236.7,266.0 237.9,266.0 239.1,266.0 240.3,266.0 241.5,266.0 242.7,266.0 243.9,266.0 245.1,266.0 246.2,266.0 247.4,266.0 248.6,266.0 249.8,266.0 251.0,266.0 252.2,266.0 253.4,266.0 254.5,266.0 255.7,266.0 256.9,266.0 258.1,266.0 259.3,266.0 260.5,266.0 261.7,266.0 262.9,266.0 264.0,266.0 265.2,266.0 266.4,266.0 267.6,266.0 268.8,266.0 270.0,266.0 271.2,266.0 272.3,266.0 273.5,266.0 274.7,266.0 275.9,266.0 277.1,266.0 278.3,266.0 279.5,266.0 280.7,266.0 281.8,266.0 283.0,266.0 284.2,266.0 285.4,266.0 286.6,266.0 287.8,266.0 289.0,266.0 290.1,266.0 291.3,266.0 292.5,266.0 293.7,266.0 294.9,266.0 296.1,266.0 297.3,266.0 298.5,266.0 299.6,266.0 300.8,266.0 302.0,266.0 303.2,266.0 304.4,266.0 305.6,266.0 306.8,266.0 307.9,266.0 309.1,266.0 310.3,266.0 311.5,266.0 312.7,266.0 313.9,266.0 315.1,266.0 316.3,266.0 317.4,266.0 318.6,266.0 319.8,266.0 321.0,266.0 322.2,266.0 323.4,266.0 324.6,266.0 325.7,266.0 326.9,266.0 328.1,266.0 329.3,266.0 330.5,266.0 331.7,266.0 332.9,266.0 334.1,266.0 335.2,266.0 336.4,266.0 337.6,266.0 338.8,266.0 340.0,266.0 341.2,266.0 342.4,266.0 343.5,266.0 344.7,266.0 345.9,266.0 347.1,266.0 348.3,266.0 349.5,266.0 350.7,266.0 351.9,266.0 353.0,266.0 354.2,266.0 355.4,266.0 356.6,266.0 357.8,266.0 359.0,266.0 360.2,266.0 361.3,266.0 362.5,266.0 363.7,266.0 364.9,266.0 366.1,266.0 367.3,266.0 368.5,266.0 369.7,266.0 370.8,266.0 372.0,266.0 373.2,266.0 374.4,266.0 375.6,266.0 376.8,266.0 378.0,266.0 379.1,266.0 380.3,266.0 381.5,266.0 382.7,266.0 383.9,266.0 385.1,266.0 386.3,266.0 387.5,266.0 388.6,266.0 389.8,266.0 391.0,266.0 392.2,266.0 393.4,266.0 394.6,266.0 395.8,266.0 396.9,266.0 398.1,266.0 399.3,266.0 400.5,266.0 401.7,266.0 402.9,266.0 404.1,266.0 405.3,266.0 406.4,266.0 407.6,266.0 408.8,266.0 410.0,266.0 411.2,266.0 412.4,266.0 413.6,266.0 414.7,266.0 415.9,266.0 417.1,266.0 418.3,266.0 419.5,266.0 420.7,266.0 421.9,266.0 423.1,266.0 424.2,266.0 425.4,266.0 426.6,266.0 427.8,266.0 429.0,266.0 430.2,266.0 431.4,266.0 432.5,266.0 433.7,266.0 434.9,266.0 436.1,266.0 437.3,266.0 438.5,266.0 439.7,266.0 440.9,266.0 442.0,266.0 443.2,266.0 444.4,266.0 445.6,266.0 446.8,266.0 448.0,266.0 449.2,266.0 450.3,266.0 451.5,266.0 452.7,266.0 453.9,266.0 455.1,266.0 456.3,266.0 457.5,266.0 458.7,266.0 459.8,266.0 461.0,266.0 462.2,266.0 463.4,266.0 464.6,266.0 465.8,266.0 467.0,266.0 468.1,266.0 469.3,266.0 470.5,266.0 471.7,266.0 472.9,266.0 474.1,266.0 475.3,266.0 476.5,266.0 477.6,266.0 478.8,266.0 480.0,266.0 481.2,266.0 482.4,266.0 483.6,266.0 484.8,266.0 485.9,266.0 487.1,266.0 488.3,266.0 489.5,266.0 490.7,266.0 491.9,266.0 493.1,266.0 494.3,266.0 495.4,266.0 496.6,266.0 497.8,266.0 499.0,266.0 500.2,266.0 501.4,266.0 502.6,266.0 503.7,266.0 504.9,266.0 506.1,266.0 507.3,266.0 508.5,266.0 509.7,266.0 510.9,266.0 512.1,266.0 513.2,266.0 514.4,266.0 515.6,266.0 516.8,266.0 518.0,266.0 519.2,266.0 520.4,266.0 521.5,266.0 522.7,266.0 523.9,266.0 525.1,266.0 526.3,266.0 527.5,266.0 528.7,266.0 529.9,266.0 531.0,266.0 532.2,266.0 533.4,266.0 534.6,266.0 535.8,266.0 537.0,266.0 538.2,266.0 539.3,266.0 540.5,266.0 541.7,266.0 542.9,266.0 544.1,266.0 545.3,266.0 546.5,266.0 547.7,266.0 548.8,266.0 550.0,266.0 551.2,266.0 552.4,266.0 553.6,266.0 554.8,266.0 556.0,266.0 557.1,266.0 558.3,266.0 559.5,266.0 560.7,266.0 561.9,266.0 563.1,266.0 564.3,266.0 565.5,266.0 566.6,266.0 567.8,266.0 569.0,266.0 570.2,266.0 571.4,266.0 572.6,266.0 573.8,266.0 574.9,266.0 576.1,266.0 577.3,266.0 578.5,266.0 579.7,266.0 580.9,266.0 582.1,266.0 583.3,266.0 584.4,266.0 585.6,266.0 586.8,266.0 588.0,266.0 589.2,266.0 590.4,266.0 591.6,266.0 592.7,266.0 593.9,266.0 595.1,266.0 596.3,266.0 597.5,266.0 598.7,266.0 599.9,266.0 601.1,266.0 602.2,266.0 603.4,266.0 604.6,266.0 605.8,266.0 607.0,266.0 608.2,266.0 609.4,266.0 610.5,266.0 611.7,266.0 612.9,266.0 614.1,266.0 615.3,266.0 616.5,266.0 617.7,266.0 618.9,266.0 620.0,266.0 621.2,266.0 622.4,266.0 623.6,266.0 624.8,266.0 626.0,266.0 627.2,266.0 628.3,266.0 629.5,266.0 630.7,266.0 631.9,266.0 633.1,266.0 634.3,266.0 635.5,266.0 636.7,266.0 637.8,266.0 639.0,266.0 640.2,266.0 641.4,266.0 642.6,266.0 643.8,266.0 645.0,266.0 646.1,266.0 647.3,266.0 648.5,266.0 649.7,266.0 650.9,266.0 652.1,266.0 653.3,266.0 654.5,266.0 655.6,266.0 656.8,266.0 658.0,266.0 659.2,266.0 660.4,266.0 661.6,266.0 662.8,266.0 663.9,266.0 665.1,266.0 666.3,266.0 667.5,266.0 668.7,266.0 669.9,266.0 671.1,266.0 672.3,266.0 673.4,266.0 674.6,266.0 675.8,266.0 677.0,266.0 678.2,266.0 679.4,266.0 680.6,266.0 681.7,266.0 682.9,266.0 684.1,266.0 685.3,266.0 686.5,266.0 687.7,266.0 688.9,266.0 690.1,266.0 691.2,266.0 692.4,266.0 693.6,266.0 694.8,266.0 696.0,266.0 697.2,266.0 698.4,266.0 699.5,266.0 700.7,266.0 701.9,266.0 703.1,266.0 704.3,266.0 705.5,266.0 706.7,266.0 707.9,266.0 709.0,266.0 710.2,266.0 711.4,266.0 712.6,266.0 713.8,266.0 715.0,266.0 716.2,266.0 717.3,266.0 718.5,266.0 719.7,266.0 720.9,266.0 722.1,266.0 723.3,266.0 724.5,266.0 725.7,266.0 726.8,266.0 728.0,266.0 729.2,266.0 730.4,266.0 731.6,266.0 732.8,266.0 734.0,266.0 735.1,266.0 736.3,266.0 737.5,266.0 738.7,266.0 739.9,266.0 741.1,266.0 742.3,266.0 743.5,266.0 744.6,266.0 745.8,266.0 747.0,266.0 748.2,266.0 749.4,266.0 750.6,266.0 751.8,266.0 752.9,266.0 754.1,266.0 755.3,266.0 756.5,266.0 757.7,266.0 758.9,266.0 760.1,266.0 761.3,266.0 762.4,266.0 763.6,266.0 764.8,266.0 766.0,266.0"/>
<line x1="606" y1="60" x2="628" y2="60" stroke="#24a148" stroke-width="2.2"/>
<text x="634" y="64" font-family="Arial" font-size="12">beta_deg</text>
</svg>