<svg xmlns="http://www.w3.org/2000/svg" width="820" height="320" viewBox="0 0 820 320">
<rect width="100%" height="100%" fill="#ffffff"/>
<text x="54" y="28" font-family="Arial" font-size="18" font-weight="700">Mach Number</text>
<line x1="54" y1="266" x2="766" y2="266" stroke="#1f2933"/>
<line x1="54" y1="54" x2="54" y2="266" stroke="#1f2933"/>
<text x="54" y="306" font-family="Arial" font-size="12">time (s)</text>
<text x="596" y="306" font-family="Arial" font-size="12">Mach</text>
<text x="58" y="68" font-family="Arial" font-size="11">0.789</text>
<text x="58" y="260" font-family="Arial" font-size="11">0.251</text>
<polyline fill="none" stroke="#0f62fe" stroke-width="2.2" points="54.0,266.0 55.2,265.4 56.4,264.8 57.6,264.2 58.7,263.6 59.9,263.0 61.1,262.4 62.3,261.8 63.5,261.1 64.7,260.5 65.9,259.8 67.1,259.1 68.2,258.4 69.4,257.7 70.6,257.0 71.8,256.3 73.0,255.6 74.2,254.9 75.4,254.2 76.5,253.5 77.7,252.8 78.9,252.1 80.1,251.4 81.3,250.7 82.5,250.0 83.7,249.3 84.9,248.6 86.0,247.9 87.2,247.2 88.4,246.5 89.6,245.8 90.8,245.1 92.0,244.4 93.2,243.7 94.3,243.0 95.5,242.3 96.7,241.6 97.9,240.9 99.1,240.2 100.3,239.5 101.5,238.8 102.7,238.1 103.8,237.4 105.0,236.7 106.2,236.1 107.4,235.4 108.6,234.7 109.8,234.0 111.0,233.3 112.1,232.6 113.3,232.0 114.5,231.3 115.7,230.6 116.9,229.9 118.1,229.2 119.3,228.6 120.5,227.9 121.6,227.2 122.8,226.5 124.0,225.9 125.2,225.2 126.4,224.5 127.6,223.8 128.8,223.2 129.9,222.5 131.1,221.8 132.3,221.2 133.5,220.5 134.7,219.8 135.9,219.2 137.1,218.5 138.3,217.9 139.4,217.2 140.6,216.5 141.8,215.9 143.0,215.2 144.2,214.6 145.4,213.9 146.6,213.3 147.7,212.6 148.9,211.9 150.1,211.3 151.3,210.6 152.5,210.0 153.7,209.4 154.9,208.7 156.1,208.1 157.2,207.4 158.4,206.8 159.6,206.1 160.8,205.5 162.0,204.9 163.2,204.2 164.4,203.6 165.5,203.0 166.7,202.3 167.9,201.7 169.1,201.1 170.3,200.4 171.5,199.8 172.7,199.2 173.9,198.6 175.0,197.9 176.2,197.3 177.4,196.7 178.6,196.1 179.8,195.5 181.0,194.9 182.2,194.3 183.3,193.6 184.5,193.0 185.7,192.4 186.9,191.8 188.1,191.2 189.3,190.6 190.5,190.0 191.7,189.4 192.8,188.8 194.0,188.2 195.2,187.6 196.4,187.0 197.6,186.4 198.8,185.8 200.0,185.2 201.1,184.6 202.3,184.1 203.5,183.5 204.7,182.9 205.9,182.3 207.1,181.7 208.3,181.1 209.5,180.6 210.6,180.0 211.8,179.4 213.0,178.8 214.2,178.2 215.4,177.7 216.6,177.1 217.8,176.5 218.9,176.0 220.1,175.4 221.3,174.8 222.5,174.3 223.7,173.7 224.9,173.1 226.1,172.6 227.3,172.0 228.4,171.4 229.6,170.9 230.8,170.3 232.0,169.8 233.2,169.2 234.4,168.6 235.6,168.1 236.7,167.5 237.9,167.0 239.1,166.4 240.3,165.9 241.5,165.3 242.7,164.8 243.9,164.2 245.1,163.7 246.2,163.1 247.4,162.6 248.6,162.0 249.8,161.5 251.0,161.0 252.2,160.4 253.4,159.9 254.5,159.3 255.7,158.8 256.9,158.3 258.1,157.7 259.3,157.2 260.5,156.6 261.7,156.1 262.9,155.6 264.0,155.0 265.2,154.5 266.4,154.0 267.6,153.4 268.8,152.9 270.0,152.4 271.2,151.9 272.3,151.3 273.5,150.8 274.7,150.3 275.9,149.8 277.1,149.2 278.3,148.7 279.5,148.2 280.7,147.7 281.8,147.2 283.0,146.6 284.2,146.1 285.4,145.6 286.6,145.1 287.8,144.5 289.0,144.1 290.1,143.5 291.3,143.0 292.5,142.5 293.7,142.0 294.9,141.5 296.1,141.0 297.3,140.4 298.5,139.9 299.6,139.4 300.8,138.9 302.0,138.3 303.2,137.8 304.4,137.3 305.6,136.8 306.8,136.3 307.9,135.8 309.1,135.2 310.3,134.8 311.5,134.2 312.7,133.8 313.9,133.2 315.1,132.8 316.3,132.3 317.4,131.8 318.6,131.3 319.8,130.8 321.0,130.3 322.2,129.9 323.4,129.4 324.6,128.9 325.7,128.4 326.9,128.0 328.1,127.5 329.3,127.0 330.5,126.6 331.7,126.1 332.9,125.6 334.1,125.1 335.2,124.6 336.4,124.2 337.6,123.7 338.8,123.2 340.0,122.7 341.2,122.2 342.4,121.7 343.5,121.2 344.7,120.7 345.9,120.3 347.1,119.8 348.3,119.3 349.5,118.8 350.7,118.3 351.9,117.8 353.0,117.3 354.2,116.9 355.4,116.4 356.6,115.9 357.8,115.5 359.0,115.0 360.2,114.5 361.3,114.1 362.5,113.6 363.7,113.1 364.9,112.7 366.1,112.2 367.3,111.8 368.5,111.3 369.7,110.9 370.8,110.5 372.0,110.0 373.2,109.6 374.4,109.2 375.6,108.7 376.8,108.3 378.0,107.9 379.1,107.4 380.3,107.0 381.5,106.6 382.7,106.2 383.9,105.8 385.1,105.3 386.3,104.9 387.5,104.5 388.6,104.1 389.8,103.7 391.0,103.3 392.2,102.9 393.4,102.5 394.6,102.0 395.8,101.6 396.9,101.2 398.1,100.8 399.3,100.3 400.5,99.9 401.7,99.5 402.9,99.1 404.1,98.6 405.3,98.2 406.4,97.8 407.6,97.4 408.8,96.9 410.0,96.5 411.2,96.1 412.4,95.7 413.6,95.3 414.7,94.9 415.9,94.4 417.1,94.0 418.3,93.6 419.5,93.2 420.7,92.7 421.9,92.3 423.1,91.9 424.2,91.5 425.4,91.1 426.6,90.7 427.8,90.3 429.0,89.9 430.2,89.4 431.4,89.0 432.5,88.6 433.7,88.2 434.9,87.8 436.1,87.4 437.3,87.0 438.5,86.6 439.7,86.2 440.9,85.8 442.0,85.4 443.2,85.0 444.4,84.6 445.6,84.2 446.8,83.8 448.0,83.4 449.2,83.0 450.3,82.6 451.5,82.3 452.7,81.9 453.9,81.5 455.1,81.2 456.3,80.8 457.5,80.4 458.7,80.1 459.8,79.7 461.0,79.4 462.2,79.1 463.4,78.7 464.6,78.4 465.8,78.0 467.0,77.7 468.1,77.4 469.3,77.1 470.5,76.7 471.7,76.4 472.9,76.1 474.1,75.8 475.3,75.5 476.5,75.2 477.6,74.9 478.8,74.6 480.0,74.3 481.2,74.0 482.4,73.7 483.6,73.4 484.8,73.1 485.9,72.9 487.1,72.6 488.3,72.3 489.5,72.0 490.7,71.7 491.9,71.4 493.1,71.2 494.3,70.9 495.4,70.7 496.6,70.4 497.8,70.1 499.0,69.8 500.2,69.6 501.4,69.3 502.6,69.1 503.7,68.8 504.9,68.5 506.1,68.2 507.3,68.0 508.5,67.7 509.7,67.4 510.9,67.1 512.1,66.8 513.2,66.5 514.4,66.3 515.6,66.0 516.8,65.7 518.0,65.4 519.2,65.2 520.4,64.9 521.5,64.6 522.7,64.3 523.9,64.0 525.1,63.7 526.3,63.5 527.5,63.2 528.7,62.9 529.9,62.6 531.0,62.4 532.2,62.1 533.4,61.8 534.6,61.5 535.8,61.3 537.0,61.0 538.2,60.7 539.3,60.4 540.5,60.2 541.7,59.9 542.9,59.6 544.1,59.3 545.3,59.1 546.5,58.8 547.7,58.6 548.8,58.3 550.0,58.0 551.2,57.8 552.4,57.5 553.6,57.2 554.8,57.0 556.0,56.7 557.1,56.5 558.3,56.2 559.5,56.0 560.7,55.7 561.9,55.5 563.1,55.2 564.3,55.0 565.5,54.7 566.6,54.5 567.8,54.2 569.0,54.0 570.2,54.6 571.4,55.2 572.6,55.8 573.8,56.4 574.9,57.0 576.1,57.6 577.3,58.1 578.5,58.7 579.7,59.3 580.9,59.9 582.1,60.4 583.3,61.0 584.4,61.6 585.6,62.1 586.8,62.7 588.0,63.3 589.2,63.8 590.4,64.4 591.6,64.9 592.7,65.5 593.9,66.0 595.1,66.6 596.3,67.1 597.5,67.6 598.7,68.1 599.9,68.7 601.1,69.2 602.2,69.8 603.4,70.3 604.6,70.8 605.8,71.3 607.0,71.8 608.2,72.3 609.4,72.9 610.5,73.4 611.7,73.9 612.9,74.4 614.1,74.9 615.3,75.4 616.5,75.9 617.7,76.4 618.9,76.9 620.0,77.4 621.2,77.9 622.4,78.4 623.6,78.9 624.8,79.4 626.0,79.9 627.2,80.3 628.3,80.8 629.5,81.3 630.7,81.8 631.9,82.3 633.1,82.8 634.3,83.3 635.5,83.8 636.7,84.2 637.8,84.7 639.0,85.2 640.2,85.7 641.4,86.2 642.6,86.7 643.8,87.1 645.0,87.6 646.1,88.1 647.3,88.6 648.5,89.0 649.7,89.5 650.9,90.0 652.1,90.4 653.3,90.9 654.5,91.4 655.6,91.8 656.8,92.3 658.0,92.7 659.2,93.2 660.4,93.6 661.6,94.1 662.8,94.6 663.9,95.0 665.1,95.5 666.3,95.9 667.5,96.4 668.7,96.8 669.9,97.3 671.1,97.7 672.3,98.1 673.4,98.6 674.6,99.0 675.8,99.5 677.0,99.9 678.2,100.3 679.4,100.8 680.6,101.2 681.7,101.6 682.9,102.1 684.1,102.5 685.3,102.9 686.5,103.3 687.7,103.8 688.9,104.2 690.1,104.6 691.2,105.0 692.4,105.4 693.6,105.8 694.8,106.3 696.0,106.7 697.2,107.1 698.4,107.5 699.5,107.9 700.7,108.3 701.9,108.7 703.1,109.1 704.3,109.5 705.5,109.9 706.7,110.3 707.9,110.7 709.0,111.1 710.2,111.5 711.4,111.9 712.6,112.3 713.8,112.7 715.0,113.1 716.2,113.5 717.3,113.9 718.5,114.3 719.7,114.7 720.9,115.1 722.1,115.4 723.3,115.8 724.5,116.2 725.7,116.6 726.8,117.0 728.0,117.4 729.2,117.7 730.4,118.1 731.6,118.5 732.8,118.9 734.0,119.2 735.1,119.6 736.3,120.0 737.5,120.3 738.7,120.7 739.9,121.1 741.1,121.4 742.3,121.8 743.5,122.2 744.6,122.5 745.8,122.9 747.0,123.2 748.2,123.6 749.4,124.0 750.6,124.3 751.8,124.7 752.9,125.0 754.1,125.4 755.3,125.7 756.5,126.1 757.7,126.4 758.9,126.8 760.1,127.1 761.3,127.5 762.4,127.8 763.6,128.2 764.8,128.5 766.0,128.9"/>
<line x1="606" y1="42" x2="628" y2="42" stroke="#0f62fe" stroke-width="2.2"/>
<text x="634" y="46" font-family="Arial" font-size="12">mach</text>
</svg>