<svg xmlns="http://www.w3.org/2000/svg" width="820" height="320" viewBox="0 0 820 320">
<rect width="100%" height="100%" fill="#ffffff"/>
<text x="54" y="28" font-family="Arial" font-size="18" font-weight="700">Load Factor</text>
<line x1="54" y1="266" x2="766" y2="266" stroke="#1f2933"/>
<line x1="54" y1="54" x2="54" y2="266" stroke="#1f2933"/>
<text x="54" y="306" font-family="Arial" font-size="12">time (s)</text>
<text x="596" y="306" font-family="Arial" font-size="12">g</text>
<text x="58" y="68" font-family="Arial" font-size="11">2.34</text>
<text x="58" y="260" font-family="Arial" font-size="11">0.889</text>
<polyline fill="none" stroke="#0f62fe" stroke-width="2.2" points="54.0,135.7 55.2,131.5 56.4,127.2 57.6,122.8 58.7,118.3 59.9,113.8 61.1,109.2 62.3,104.5 63.5,99.8 64.7,95.1 65.9,90.4 67.1,85.7 68.2,80.9 69.4,76.2 70.6,74.7 71.8,74.9 73.0,75.0 74.2,75.2 75.4,75.3 76.5,75.4 77.7,75.6 78.9,75.7 80.1,75.8 81.3,75.9 82.5,76.0 83.7,76.1 84.9,76.3 86.0,76.4 87.2,76.5 88.4,76.6 89.6,76.7 90.8,76.8 92.0,76.9 93.2,77.0 94.3,77.1 95.5,77.1 96.7,77.2 97.9,77.3 99.1,77.4 100.3,77.5 101.5,77.6 102.7,77.6 103.8,77.7 105.0,77.8 106.2,77.9 107.4,77.9 108.6,78.0 109.8,78.0 111.0,78.1 112.1,78.2 113.3,78.2 114.5,78.3 115.7,78.3 116.9,78.4 118.1,78.4 119.3,78.5 120.5,78.5 121.6,78.6 122.8,78.6 124.0,78.7 125.2,78.7 126.4,78.7 127.6,78.8 128.8,78.8 129.9,78.8 131.1,78.9 132.3,78.9 133.5,78.9 134.7,78.9 135.9,79.0 137.1,79.0 138.3,79.0 139.4,79.0 140.6,79.1 141.8,79.1 143.0,79.1 144.2,79.1 145.4,79.1 146.6,79.2 147.7,79.2 148.9,79.2 150.1,79.2 151.3,79.1 152.5,79.1 153.7,79.0 154.9,78.9 156.1,78.8 157.2,78.7 158.4,78.6 159.6,78.5 160.8,78.4 162.0,78.3 163.2,78.1 164.4,78.0 165.5,77.8 166.7,77.7 167.9,77.5 169.1,77.4 170.3,77.2 171.5,77.0 172.7,76.9 173.9,76.7 175.0,76.5 176.2,76.4 177.4,76.2 178.6,76.0 179.8,75.9 181.0,75.7 182.2,75.5 183.3,75.4 184.5,75.2 185.7,75.1 186.9,74.9 188.1,74.8 189.3,74.6 190.5,74.5 191.7,74.3 192.8,74.2 194.0,74.0 195.2,73.9 196.4,73.8 197.6,73.6 198.8,73.5 200.0,73.4 201.1,73.3 202.3,73.2 203.5,73.1 204.7,73.0 205.9,72.9 207.1,72.9 208.3,72.8 209.5,72.7 210.6,72.7 211.8,72.6 213.0,72.6 214.2,72.6 215.4,72.5 216.6,72.5 217.8,72.5 218.9,72.5 220.1,72.5 221.3,72.5 222.5,72.6 223.7,72.6 224.9,72.6 226.1,72.7 227.3,72.7 228.4,72.8 229.6,72.9 230.8,73.0 232.0,73.1 233.2,73.2 234.4,73.3 235.6,73.4 236.7,73.5 237.9,73.7 239.1,73.8 240.3,74.0 241.5,74.1 242.7,74.3 243.9,74.5 245.1,74.7 246.2,74.9 247.4,75.1 248.6,75.3 249.8,75.5 251.0,75.8 252.2,76.0 253.4,76.3 254.5,76.5 255.7,76.8 256.9,77.1 258.1,77.4 259.3,77.7 260.5,78.0 261.7,78.3 262.9,78.6 264.0,78.9 265.2,79.2 266.4,79.6 267.6,79.9 268.8,80.2 270.0,80.7 271.2,80.8 272.3,81.9 273.5,80.4 274.7,85.2 275.9,75.0 277.1,99.3 278.3,64.8 279.5,86.8 280.7,59.5 281.8,97.3 283.0,77.5 284.2,105.7 285.4,74.3 286.6,96.4 287.8,61.5 289.0,94.3 290.1,63.9 291.3,100.9 292.5,71.4 293.7,106.7 294.9,78.2 296.1,111.8 297.3,84.3 298.5,116.3 299.6,89.8 300.8,118.4 302.0,89.2 303.2,117.3 304.4,85.0 305.6,115.1 306.8,81.1 307.9,113.0 309.1,77.2 310.3,110.8 311.5,73.5 312.7,108.7 313.9,70.0 315.1,106.7 316.3,66.7 317.4,104.8 318.6,63.5 319.8,103.0 321.0,60.6 322.2,101.1 323.4,57.5 324.6,98.7 325.7,54.0 326.9,96.3 328.1,57.0 329.3,105.2 330.5,67.1 331.7,113.0 332.9,76.1 334.1,119.8 335.2,84.2 336.4,125.6 337.6,91.4 338.8,130.7 340.0,97.9 341.2,135.2 342.4,103.7 343.5,139.0 344.7,108.9 345.9,141.1 347.1,108.7 348.3,141.0 349.5,105.9 350.7,140.2 351.9,103.1 353.0,139.4 354.2,100.6 355.4,138.6 356.6,98.2 357.8,137.9 359.0,95.9 360.2,137.2 361.3,93.8 362.5,136.6 363.7,91.9 364.9,136.1 366.1,90.2 367.3,135.7 368.5,88.6 369.7,135.3 370.8,87.1 372.0,134.8 373.2,85.4 374.4,134.1 375.6,83.6 376.8,133.4 378.0,81.7 379.1,132.8 380.3,79.9 381.5,132.2 382.7,78.2 383.9,131.7 385.1,76.7 386.3,131.3 387.5,80.3 388.6,139.3 389.8,89.8 391.0,146.2 392.2,98.2 393.4,152.2 394.6,105.7 395.8,157.5 396.9,112.5 398.1,162.1 399.3,118.5 400.5,166.1 401.7,124.0 402.9,169.6 404.1,129.0 405.3,172.8 406.4,133.5 407.6,175.6 408.8,137.6 410.0,178.2 411.2,141.4 412.4,180.6 413.6,144.9 414.7,182.7 415.9,148.1 417.1,184.7 418.3,151.0 419.5,186.6 420.7,153.8 421.9,188.4 423.1,156.4 424.2,190.1 425.4,158.9 426.6,191.8 427.8,161.2 429.0,193.4 430.2,163.3 431.4,194.9 432.5,165.4 433.7,196.4 434.9,167.4 436.1,197.9 437.3,169.3 438.5,199.4 439.7,171.2 440.9,200.9 442.0,173.6 443.2,202.5 444.4,176.1 445.6,204.1 446.8,177.4 448.0,205.9 449.2,171.2 450.3,206.8 451.5,164.8 452.7,206.8 453.9,158.5 455.1,206.1 456.3,152.4 457.5,204.9 458.7,146.7 459.8,203.6 461.0,141.4 462.2,202.1 463.4,136.6 464.6,200.6 465.8,132.1 467.0,199.1 468.1,128.0 469.3,197.7 470.5,124.3 471.7,196.5 472.9,121.0 474.1,195.4 475.3,118.1 476.5,194.4 477.6,115.4 478.8,193.6 480.0,113.1 481.2,192.9 482.4,111.0 483.6,192.1 484.8,108.8 485.9,190.5 487.1,105.7 488.3,188.6 489.5,102.5 490.7,186.8 491.9,99.3 493.1,185.1 494.3,96.4 495.4,183.6 496.6,93.8 497.8,182.2 499.0,98.0 500.2,192.8 501.4,110.3 502.6,201.6 503.7,121.0 504.9,209.0 506.1,130.3 507.3,215.3 508.5,138.6 509.7,220.6 510.9,145.8 512.1,225.1 513.2,152.2 514.4,229.0 515.6,157.8 516.8,232.3 518.0,162.8 519.2,235.2 520.4,167.3 521.5,237.8 522.7,171.3 523.9,240.0 525.1,174.8 526.3,242.1 527.5,178.0 528.7,244.0 529.9,180.9 531.0,245.8 532.2,183.6 533.4,247.4 534.6,185.9 535.8,249.0 537.0,188.1 538.2,250.5 539.3,190.1 540.5,251.9 541.7,191.9 542.9,253.3 544.1,193.6 545.3,254.7 546.5,195.2 547.7,256.0 548.8,196.6 550.0,257.3 551.2,197.9 552.4,258.6 553.6,199.2 554.8,259.8 556.0,200.4 557.1,261.1 558.3,201.5 559.5,262.3 560.7,202.5 561.9,263.6 563.1,203.5 564.3,264.8 565.5,204.5 566.6,266.0 567.8,205.4 569.0,161.1 570.2,106.8 571.4,163.6 572.6,109.7 573.8,166.0 574.9,112.5 576.1,168.3 577.3,115.2 578.5,170.6 579.7,117.8 580.9,172.8 582.1,120.3 583.3,175.0 584.4,122.6 585.6,177.0 586.8,124.9 588.0,179.1 589.2,127.1 590.4,181.1 591.6,129.4 592.7,183.0 593.9,131.8 595.1,185.0 596.3,134.2 597.5,186.9 598.7,136.6 599.9,188.8 601.1,138.8 602.2,190.6 603.4,141.0 604.6,192.3 605.8,143.0 607.0,194.0 608.2,145.2 609.4,195.7 610.5,147.6 611.7,197.4 612.9,149.8 614.1,199.1 615.3,151.8 616.5,200.6 617.7,153.6 618.9,202.1 620.0,155.3 621.2,202.5 622.4,151.1 623.6,201.6 624.8,147.4 626.0,200.7 627.2,144.2 628.3,199.9 629.5,141.6 630.7,199.2 631.9,139.4 633.1,198.6 634.3,137.5 635.5,198.1 636.7,136.1 637.8,197.7 639.0,134.9 640.2,197.5 641.4,134.1 642.6,197.3 643.8,133.5 645.0,197.3 646.1,133.1 647.3,197.4 648.5,132.9 649.7,197.6 650.9,132.8 652.1,197.9 653.3,132.9 654.5,198.2 655.6,133.2 656.8,198.6 658.0,133.5 659.2,199.1 660.4,134.0 661.6,199.6 662.8,134.5 663.9,200.1 665.1,135.1 666.3,200.7 667.5,135.8 668.7,201.3 669.9,136.5 671.1,202.0 672.3,137.2 673.4,202.6 674.6,138.0 675.8,203.3 677.0,138.8 678.2,204.0 679.4,139.7 680.6,204.7 681.7,140.6 682.9,205.5 684.1,141.5 685.3,206.2 686.5,142.4 687.7,206.9 688.9,143.3 690.1,207.7 691.2,144.2 692.4,208.4 693.6,145.1 694.8,209.1 696.0,146.1 697.2,209.9 698.4,147.0 699.5,210.6 700.7,147.9 701.9,211.3 703.1,148.9 704.3,212.0 705.5,149.8 706.7,212.8 707.9,150.7 709.0,213.5 710.2,151.6 711.4,214.2 712.6,152.5 713.8,214.9 715.0,153.4 716.2,215.6 717.3,154.3 718.5,216.2 719.7,155.2 720.9,216.9 722.1,156.1 723.3,217.6 724.5,157.0 725.7,218.2 726.8,157.9 728.0,218.9 729.2,158.7 730.4,219.5 731.6,159.6 732.8,220.1 734.0,160.5 735.1,220.8 736.3,161.3 737.5,221.4 738.7,162.1 739.9,222.0 741.1,162.9 742.3,222.6 743.5,163.8 744.6,223.2 745.8,164.6 747.0,223.7 748.2,165.4 749.4,224.3 750.6,166.1 751.8,224.9 752.9,166.9 754.1,225.4 755.3,167.7 756.5,226.0 757.7,168.4 758.9,226.5 760.1,169.2 761.3,227.0 762.4,169.9 763.6,227.5 764.8,170.6 766.0,228.0"/>
<line x1="606" y1="42" x2="628" y2="42" stroke="#0f62fe" stroke-width="2.2"/>
<text x="634" y="46" font-family="Arial" font-size="12">load_factor_g</text>
</svg>