<svg xmlns="http://www.w3.org/2000/svg" width="820" height="320" viewBox="0 0 820 320">
<rect width="100%" height="100%" fill="#ffffff"/>
<text x="54" y="28" font-family="Arial" font-size="18" font-weight="700">Mach Number</text>
<line x1="54" y1="266" x2="766" y2="266" stroke="#1f2933"/>
<line x1="54" y1="54" x2="54" y2="266" stroke="#1f2933"/>
<text x="54" y="306" font-family="Arial" font-size="12">time (s)</text>
<text x="596" y="306" font-family="Arial" font-size="12">Mach</text>
<text x="58" y="68" font-family="Arial" font-size="11">0.779</text>
<text x="58" y="260" font-family="Arial" font-size="11">0.251</text>
<polyline fill="none" stroke="#0f62fe" stroke-width="2.2" points="54.0,266.0 55.2,265.4 56.4,264.8 57.6,264.2 58.7,263.6 59.9,263.0 61.1,262.4 62.3,261.8 63.5,261.1 64.7,260.5 65.9,259.8 67.1,259.1 68.2,258.4 69.4,257.7 70.6,257.0 71.8,256.3 73.0,255.6 74.2,254.9 75.4,254.2 76.5,253.5 77.7,252.8 78.9,252.1 80.1,251.4 81.3,250.7 82.5,250.0 83.7,249.3 84.9,248.6 86.0,247.9 87.2,247.2 88.4,246.5 89.6,245.8 90.8,245.1 92.0,244.4 93.2,243.7 94.3,243.0 95.5,242.3 96.7,241.6 97.9,240.9 99.1,240.2 100.3,239.5 101.5,238.9 102.7,238.2 103.8,237.5 105.0,236.8 106.2,236.1 107.4,235.4 108.6,234.7 109.8,234.1 111.0,233.4 112.1,232.7 113.3,232.0 114.5,231.3 115.7,230.7 116.9,230.0 118.1,229.3 119.3,228.6 120.5,227.9 121.6,227.3 122.8,226.6 124.0,225.9 125.2,225.3 126.4,224.6 127.6,223.9 128.8,223.3 129.9,222.6 131.1,221.9 132.3,221.3 133.5,220.6 134.7,219.9 135.9,219.3 137.1,218.6 138.3,217.9 139.4,217.3 140.6,216.6 141.8,216.0 143.0,215.3 144.2,214.7 145.4,214.0 146.6,213.3 147.7,212.7 148.9,212.0 150.1,211.4 151.3,210.7 152.5,210.1 153.7,209.4 154.9,208.8 156.1,208.2 157.2,207.5 158.4,206.9 159.6,206.2 160.8,205.6 162.0,205.0 163.2,204.3 164.4,203.7 165.5,203.0 166.7,202.4 167.9,201.8 169.1,201.2 170.3,200.5 171.5,199.9 172.7,199.3 173.9,198.6 175.0,198.0 176.2,197.4 177.4,196.8 178.6,196.2 179.8,195.5 181.0,194.9 182.2,194.3 183.3,193.7 184.5,193.1 185.7,192.5 186.9,191.9 188.1,191.3 189.3,190.7 190.5,190.1 191.7,189.5 192.8,188.9 194.0,188.3 195.2,187.7 196.4,187.1 197.6,186.5 198.8,185.9 200.0,185.3 201.1,184.7 202.3,184.1 203.5,183.5 204.7,182.9 205.9,182.3 207.1,181.7 208.3,181.2 209.5,180.6 210.6,180.0 211.8,179.4 213.0,178.8 214.2,178.2 215.4,177.7 216.6,177.1 217.8,176.5 218.9,175.9 220.1,175.4 221.3,174.8 222.5,174.2 223.7,173.7 224.9,173.1 226.1,172.5 227.3,172.0 228.4,171.4 229.6,170.9 230.8,170.3 232.0,169.7 233.2,169.2 234.4,168.6 235.6,168.1 236.7,167.5 237.9,167.0 239.1,166.4 240.3,165.9 241.5,165.3 242.7,164.8 243.9,164.3 245.1,163.7 246.2,163.2 247.4,162.6 248.6,162.1 249.8,161.6 251.0,161.1 252.2,160.5 253.4,160.0 254.5,159.5 255.7,159.0 256.9,158.4 258.1,157.9 259.3,157.4 260.5,156.9 261.7,156.3 262.9,155.8 264.0,155.3 265.2,154.8 266.4,154.3 267.6,153.8 268.8,153.3 270.0,152.8 271.2,152.3 272.3,151.8 273.5,151.3 274.7,150.8 275.9,150.3 277.1,149.8 278.3,149.3 279.5,148.8 280.7,148.3 281.8,147.9 283.0,147.4 284.2,146.9 285.4,146.4 286.6,145.9 287.8,145.4 289.0,144.9 290.1,144.5 291.3,144.0 292.5,143.5 293.7,143.0 294.9,142.5 296.1,142.0 297.3,141.5 298.5,141.1 299.6,140.6 300.8,140.1 302.0,139.6 303.2,139.1 304.4,138.7 305.6,138.2 306.8,137.7 307.9,137.2 309.1,136.8 310.3,136.3 311.5,135.8 312.7,135.3 313.9,134.8 315.1,134.4 316.3,133.9 317.4,133.4 318.6,132.9 319.8,132.5 321.0,132.0 322.2,131.5 323.4,131.0 324.6,130.5 325.7,130.1 326.9,129.6 328.1,129.1 329.3,128.6 330.5,128.1 331.7,127.7 332.9,127.2 334.1,126.7 335.2,126.2 336.4,125.8 337.6,125.3 338.8,124.8 340.0,124.3 341.2,123.9 342.4,123.4 343.5,123.0 344.7,122.5 345.9,122.0 347.1,121.6 348.3,121.1 349.5,120.6 350.7,120.2 351.9,119.7 353.0,119.3 354.2,118.8 355.4,118.3 356.6,117.9 357.8,117.4 359.0,116.9 360.2,116.5 361.3,116.0 362.5,115.6 363.7,115.1 364.9,114.6 366.1,114.2 367.3,113.7 368.5,113.2 369.7,112.8 370.8,112.3 372.0,111.9 373.2,111.4 374.4,110.9 375.6,110.5 376.8,110.0 378.0,109.6 379.1,109.1 380.3,108.6 381.5,108.2 382.7,107.7 383.9,107.3 385.1,106.8 386.3,106.4 387.5,105.9 388.6,105.5 389.8,105.1 391.0,104.6 392.2,104.2 393.4,103.7 394.6,103.3 395.8,102.9 396.9,102.4 398.1,102.0 399.3,101.5 400.5,101.1 401.7,100.7 402.9,100.3 404.1,99.8 405.3,99.4 406.4,99.0 407.6,98.5 408.8,98.1 410.0,97.7 411.2,97.3 412.4,96.9 413.6,96.4 414.7,96.0 415.9,95.6 417.1,95.2 418.3,94.8 419.5,94.4 420.7,93.9 421.9,93.5 423.1,93.1 424.2,92.7 425.4,92.3 426.6,91.9 427.8,91.5 429.0,91.1 430.2,90.7 431.4,90.3 432.5,89.9 433.7,89.5 434.9,89.1 436.1,88.8 437.3,88.3 438.5,88.0 439.7,87.6 440.9,87.2 442.0,86.8 443.2,86.4 444.4,86.0 445.6,85.7 446.8,85.3 448.0,84.9 449.2,84.5 450.3,84.2 451.5,83.8 452.7,83.4 453.9,83.0 455.1,82.7 456.3,82.3 457.5,81.9 458.7,81.6 459.8,81.2 461.0,80.8 462.2,80.5 463.4,80.1 464.6,79.8 465.8,79.4 467.0,79.1 468.1,78.7 469.3,78.4 470.5,78.0 471.7,77.7 472.9,77.3 474.1,77.0 475.3,76.6 476.5,76.3 477.6,75.9 478.8,75.6 480.0,75.3 481.2,74.9 482.4,74.6 483.6,74.3 484.8,73.9 485.9,73.6 487.1,73.3 488.3,73.0 489.5,72.6 490.7,72.3 491.9,72.0 493.1,71.7 494.3,71.3 495.4,71.0 496.6,70.7 497.8,70.4 499.0,70.1 500.2,69.8 501.4,69.4 502.6,69.2 503.7,68.8 504.9,68.5 506.1,68.2 507.3,67.9 508.5,67.6 509.7,67.3 510.9,67.0 512.1,66.7 513.2,66.4 514.4,66.1 515.6,65.8 516.8,65.5 518.0,65.2 519.2,65.0 520.4,64.7 521.5,64.4 522.7,64.1 523.9,63.8 525.1,63.5 526.3,63.3 527.5,63.0 528.7,62.7 529.9,62.4 531.0,62.1 532.2,61.8 533.4,61.6 534.6,61.3 535.8,61.0 537.0,60.8 538.2,60.5 539.3,60.2 540.5,60.0 541.7,59.7 542.9,59.4 544.1,59.2 545.3,58.9 546.5,58.7 547.7,58.4 548.8,58.1 550.0,57.9 551.2,57.6 552.4,57.4 553.6,57.1 554.8,56.9 556.0,56.6 557.1,56.4 558.3,56.1 559.5,55.9 560.7,55.6 561.9,55.4 563.1,55.2 564.3,54.9 565.5,54.7 566.6,54.5 567.8,54.2 569.0,54.0 570.2,54.6 571.4,55.2 572.6,55.8 573.8,56.4 574.9,57.0 576.1,57.6 577.3,58.2 578.5,58.8 579.7,59.3 580.9,59.9 582.1,60.5 583.3,61.1 584.4,61.7 585.6,62.3 586.8,62.8 588.0,63.4 589.2,63.9 590.4,64.5 591.6,65.1 592.7,65.6 593.9,66.2 595.1,66.7 596.3,67.3 597.5,67.8 598.7,68.4 599.9,68.9 601.1,69.5 602.2,70.0 603.4,70.5 604.6,71.1 605.8,71.6 607.0,72.2 608.2,72.7 609.4,73.2 610.5,73.7 611.7,74.3 612.9,74.8 614.1,75.3 615.3,75.8 616.5,76.3 617.7,76.8 618.9,77.3 620.0,77.8 621.2,78.4 622.4,78.8 623.6,79.4 624.8,79.8 626.0,80.4 627.2,80.8 628.3,81.3 629.5,81.8 630.7,82.3 631.9,82.8 633.1,83.3 634.3,83.8 635.5,84.3 636.7,84.7 637.8,85.2 639.0,85.7 640.2,86.2 641.4,86.6 642.6,87.1 643.8,87.6 645.0,88.1 646.1,88.5 647.3,89.0 648.5,89.4 649.7,89.9 650.9,90.4 652.1,90.8 653.3,91.3 654.5,91.7 655.6,92.2 656.8,92.6 658.0,93.1 659.2,93.5 660.4,94.0 661.6,94.4 662.8,94.8 663.9,95.3 665.1,95.7 666.3,96.2 667.5,96.6 668.7,97.0 669.9,97.5 671.1,97.9 672.3,98.3 673.4,98.8 674.6,99.2 675.8,99.6 677.0,100.0 678.2,100.5 679.4,100.9 680.6,101.3 681.7,101.7 682.9,102.1 684.1,102.5 685.3,103.0 686.5,103.4 687.7,103.8 688.9,104.2 690.1,104.6 691.2,105.0 692.4,105.4 693.6,105.8 694.8,106.2 696.0,106.6 697.2,107.0 698.4,107.4 699.5,107.8 700.7,108.2 701.9,108.6 703.1,109.0 704.3,109.4 705.5,109.8 706.7,110.2 707.9,110.5 709.0,110.9 710.2,111.3 711.4,111.7 712.6,112.1 713.8,112.5 715.0,112.8 716.2,113.2 717.3,113.6 718.5,114.0 719.7,114.3 720.9,114.7 722.1,115.1 723.3,115.5 724.5,115.8 725.7,116.2 726.8,116.6 728.0,116.9 729.2,117.3 730.4,117.7 731.6,118.0 732.8,118.4 734.0,118.7 735.1,119.1 736.3,119.5 737.5,119.8 738.7,120.2 739.9,120.5 741.1,120.9 742.3,121.2 743.5,121.6 744.6,121.9 745.8,122.3 747.0,122.6 748.2,123.0 749.4,123.3 750.6,123.7 751.8,124.0 752.9,124.3 754.1,124.7 755.3,125.0 756.5,125.4 757.7,125.7 758.9,126.1 760.1,126.4 761.3,126.7 762.4,127.1 763.6,127.4 764.8,127.7 766.0,128.1"/>
<line x1="606" y1="42" x2="628" y2="42" stroke="#0f62fe" stroke-width="2.2"/>
<text x="634" y="46" font-family="Arial" font-size="12">mach</text>
</svg>