<svg xmlns="http://www.w3.org/2000/svg" width="820" height="320" viewBox="0 0 820 320">
<rect width="100%" height="100%" fill="#ffffff"/>
<text x="54" y="28" font-family="Arial" font-size="18" font-weight="700">Velocity X</text>
<line x1="54" y1="266" x2="766" y2="266" stroke="#1f2933"/>
<line x1="54" y1="54" x2="54" y2="266" stroke="#1f2933"/>
<text x="54" y="306" font-family="Arial" font-size="12">time (s)</text>
<text x="596" y="306" font-family="Arial" font-size="12">vx (m/s)</text>
<text x="58" y="68" font-family="Arial" font-size="11">136</text>
<text x="58" y="260" font-family="Arial" font-size="11">-2.7</text>
<polyline fill="none" stroke="#0f62fe" stroke-width="2.2" points="54.0,127.4 55.2,126.6 56.4,125.8 57.6,124.9 58.7,124.1 59.9,123.3 61.1,122.4 62.3,121.6 63.5,120.7 64.7,119.9 65.9,119.0 67.1,118.1 68.2,117.2 69.4,116.3 70.6,115.4 71.8,114.4 73.0,113.5 74.2,112.6 75.4,111.7 76.5,110.8 77.7,109.9 78.9,109.0 80.1,108.1 81.3,107.2 82.5,106.3 83.7,105.4 84.9,104.6 86.0,103.7 87.2,102.8 88.4,102.0 89.6,101.1 90.8,100.2 92.0,99.4 93.2,98.5 94.3,97.7 95.5,96.8 96.7,96.0 97.9,95.2 99.1,94.4 100.3,93.5 101.5,92.7 102.7,91.9 103.8,91.1 105.0,90.3 106.2,89.5 107.4,88.7 108.6,87.9 109.8,87.2 111.0,86.4 112.1,85.6 113.3,84.9 114.5,84.1 115.7,83.4 116.9,82.7 118.1,81.9 119.3,81.2 120.5,80.5 121.6,79.8 122.8,79.1 124.0,78.4 125.2,77.7 126.4,77.1 127.6,76.4 128.8,75.8 129.9,75.1 131.1,74.5 132.3,73.9 133.5,73.3 134.7,72.7 135.9,72.1 137.1,71.5 138.3,71.0 139.4,70.4 140.6,69.8 141.8,69.3 143.0,68.7 144.2,68.1 145.4,67.6 146.6,67.0 147.7,66.5 148.9,65.9 150.1,65.4 151.3,64.9 152.5,64.3 153.7,63.8 154.9,63.3 156.1,62.8 157.2,62.3 158.4,61.9 159.6,61.4 160.8,61.0 162.0,60.6 163.2,60.2 164.4,59.8 165.5,59.4 166.7,59.1 167.9,58.7 169.1,58.4 170.3,58.1 171.5,57.8 172.7,57.5 173.9,57.3 175.0,57.0 176.2,56.7 177.4,56.5 178.6,56.3 179.8,56.0 181.0,55.8 182.2,55.6 183.3,55.4 184.5,55.2 185.7,55.0 186.9,54.8 188.1,54.7 189.3,54.5 190.5,54.4 191.7,54.3 192.8,54.2 194.0,54.1 195.2,54.0 196.4,54.0 197.6,54.0 198.8,54.0 200.0,54.0 201.1,54.1 202.3,54.2 203.5,54.2 204.7,54.3 205.9,54.5 207.1,54.6 208.3,54.7 209.5,54.8 210.6,55.0 211.8,55.1 213.0,55.3 214.2,55.5 215.4,55.6 216.6,55.8 217.8,56.0 218.9,56.2 220.1,56.4 221.3,56.7 222.5,56.9 223.7,57.2 224.9,57.5 226.1,57.8 227.3,58.2 228.4,58.5 229.6,58.9 230.8,59.4 232.0,59.8 233.2,60.3 234.4,60.7 235.6,61.2 236.7,61.8 237.9,62.3 239.1,62.8 240.3,63.4 241.5,63.9 242.7,64.5 243.9,65.1 245.1,65.7 246.2,66.3 247.4,67.0 248.6,67.6 249.8,68.3 251.0,69.0 252.2,69.7 253.4,70.4 254.5,71.2 255.7,72.0 256.9,72.8 258.1,73.7 259.3,74.6 260.5,75.5 261.7,76.5 262.9,77.5 264.0,78.5 265.2,79.5 266.4,80.6 267.6,81.6 268.8,82.7 270.0,83.8 271.2,84.9 272.3,86.0 273.5,87.1 274.7,88.2 275.9,89.4 277.1,90.5 278.3,91.6 279.5,92.8 280.7,93.9 281.8,95.1 283.0,96.3 284.2,97.5 285.4,98.7 286.6,100.0 287.8,101.2 289.0,102.4 290.1,103.6 291.3,104.9 292.5,106.1 293.7,107.3 294.9,108.6 296.1,109.8 297.3,111.1 298.5,112.3 299.6,113.6 300.8,114.8 302.0,116.1 303.2,117.3 304.4,118.6 305.6,119.8 306.8,121.1 307.9,122.3 309.1,123.6 310.3,124.8 311.5,126.1 312.7,127.3 313.9,128.6 315.1,129.8 316.3,131.1 317.4,132.3 318.6,133.5 319.8,134.7 321.0,136.0 322.2,137.2 323.4,138.4 324.6,139.7 325.7,141.0 326.9,142.2 328.1,143.5 329.3,144.9 330.5,146.2 331.7,147.5 332.9,148.9 334.1,150.2 335.2,151.6 336.4,153.0 337.6,154.4 338.8,155.8 340.0,157.2 341.2,158.7 342.4,160.1 343.5,161.6 344.7,163.0 345.9,164.5 347.1,166.0 348.3,167.5 349.5,169.0 350.7,170.5 351.9,172.0 353.0,173.5 354.2,175.0 355.4,176.5 356.6,178.1 357.8,179.6 359.0,181.1 360.2,182.6 361.3,184.1 362.5,185.6 363.7,187.0 364.9,188.5 366.1,190.0 367.3,191.5 368.5,193.0 369.7,194.4 370.8,195.9 372.0,197.4 373.2,198.8 374.4,200.3 375.6,201.7 376.8,203.1 378.0,204.5 379.1,205.9 380.3,207.3 381.5,208.7 382.7,210.1 383.9,211.4 385.1,212.7 386.3,214.0 387.5,215.2 388.6,216.4 389.8,217.6 391.0,218.8 392.2,220.0 393.4,221.3 394.6,222.5 395.8,223.8 396.9,225.0 398.1,226.3 399.3,227.5 400.5,228.8 401.7,230.0 402.9,231.3 404.1,232.5 405.3,233.8 406.4,235.1 407.6,236.4 408.8,237.7 410.0,239.0 411.2,240.2 412.4,241.5 413.6,242.8 414.7,244.1 415.9,245.3 417.1,246.6 418.3,247.8 419.5,249.1 420.7,250.3 421.9,251.5 423.1,252.7 424.2,253.9 425.4,255.0 426.6,256.2 427.8,257.3 429.0,258.4 430.2,259.4 431.4,260.4 432.5,261.3 433.7,262.2 434.9,263.0 436.1,263.8 437.3,264.4 438.5,265.0 439.7,265.4 440.9,265.7 442.0,265.9 443.2,266.0 444.4,265.9 445.6,265.6 446.8,265.2 448.0,264.6 449.2,263.8 450.3,262.9 451.5,262.0 452.7,260.9 453.9,259.9 455.1,258.8 456.3,257.7 457.5,256.6 458.7,255.6 459.8,255.1 461.0,255.0 462.2,255.2 463.4,255.5 464.6,255.9 465.8,256.2 467.0,256.6 468.1,257.2 469.3,257.8 470.5,258.5 471.7,259.3 472.9,260.2 474.1,261.1 475.3,262.2 476.5,263.1 477.6,263.8 478.8,264.1 480.0,264.1 481.2,263.8 482.4,263.2 483.6,262.6 484.8,261.8 485.9,260.9 487.1,259.9 488.3,258.8 489.5,257.8 490.7,256.9 491.9,256.1 493.1,255.7 494.3,255.5 495.4,255.4 496.6,255.4 497.8,255.5 499.0,255.4 500.2,255.2 501.4,254.8 502.6,254.1 503.7,253.2 504.9,252.2 506.1,251.3 507.3,250.4 508.5,249.5 509.7,248.5 510.9,247.5 512.1,246.5 513.2,245.5 514.4,244.5 515.6,243.6 516.8,242.6 518.0,241.6 519.2,240.7 520.4,239.7 521.5,238.8 522.7,237.8 523.9,236.8 525.1,235.9 526.3,234.9 527.5,234.0 528.7,233.0 529.9,232.1 531.0,231.1 532.2,230.2 533.4,229.4 534.6,228.5 535.8,227.8 537.0,227.1 538.2,226.4 539.3,225.9 540.5,225.4 541.7,225.0 542.9,224.8 544.1,224.6 545.3,224.5 546.5,224.4 547.7,224.5 548.8,224.6 550.0,224.8 551.2,225.1 552.4,225.4 553.6,225.7 554.8,226.0 556.0,226.3 557.1,226.7 558.3,227.1 559.5,227.6 560.7,228.1 561.9,228.6 563.1,229.1 564.3,229.6 565.5,230.2 566.6,230.8 567.8,231.4 569.0,232.0 570.2,232.2 571.4,232.4 572.6,232.7 573.8,232.9 574.9,233.1 576.1,233.3 577.3,233.5 578.5,233.6 579.7,233.8 580.9,234.0 582.1,234.1 583.3,234.2 584.4,234.4 585.6,234.5 586.8,234.6 588.0,234.7 589.2,234.8 590.4,234.9 591.6,234.9 592.7,235.0 593.9,235.1 595.1,235.2 596.3,235.2 597.5,235.3 598.7,235.4 599.9,235.5 601.1,235.5 602.2,235.6 603.4,235.7 604.6,235.8 605.8,235.9 607.0,236.0 608.2,236.0 609.4,236.1 610.5,236.2 611.7,236.2 612.9,236.2 614.1,236.3 615.3,236.3 616.5,236.3 617.7,236.2 618.9,236.2 620.0,236.1 621.2,236.1 622.4,236.0 623.6,235.8 624.8,235.7 626.0,235.5 627.2,235.3 628.3,235.1 629.5,234.9 630.7,234.9 631.9,234.9 633.1,235.0 634.3,235.2 635.5,235.4 636.7,235.6 637.8,235.8 639.0,235.9 640.2,236.0 641.4,236.1 642.6,236.1 643.8,236.2 645.0,236.3 646.1,236.4 647.3,236.5 648.5,236.5 649.7,236.4 650.9,236.3 652.1,236.1 653.3,235.9 654.5,235.7 655.6,235.3 656.8,234.9 658.0,234.5 659.2,234.1 660.4,233.8 661.6,233.5 662.8,233.3 663.9,233.1 665.1,233.0 666.3,232.9 667.5,232.8 668.7,232.7 669.9,232.7 671.1,232.6 672.3,232.5 673.4,232.4 674.6,232.3 675.8,232.2 677.0,232.1 678.2,232.0 679.4,231.9 680.6,231.9 681.7,231.9 682.9,231.9 684.1,231.9 685.3,231.9 686.5,232.0 687.7,232.1 688.9,232.2 690.1,232.2 691.2,232.2 692.4,232.3 693.6,232.3 694.8,232.3 696.0,232.3 697.2,232.2 698.4,232.2 699.5,232.1 700.7,232.0 701.9,232.0 703.1,231.9 704.3,231.8 705.5,231.8 706.7,231.7 707.9,231.7 709.0,231.7 710.2,231.7 711.4,231.7 712.6,231.7 713.8,231.7 715.0,231.8 716.2,231.8 717.3,231.9 718.5,232.0 719.7,232.0 720.9,232.1 722.1,232.2 723.3,232.2 724.5,232.3 725.7,232.3 726.8,232.4 728.0,232.4 729.2,232.5 730.4,232.6 731.6,232.6 732.8,232.7 734.0,232.8 735.1,232.9 736.3,232.9 737.5,233.0 738.7,233.1 739.9,233.1 741.1,233.2 742.3,233.3 743.5,233.4 744.6,233.5 745.8,233.5 747.0,233.6 748.2,233.7 749.4,233.8 750.6,233.9 751.8,234.0 752.9,234.0 754.1,234.1 755.3,234.2 756.5,234.3 757.7,234.4 758.9,234.5 760.1,234.6 761.3,234.7 762.4,234.8 763.6,234.9 764.8,235.1 766.0,235.2"/>
<line x1="606" y1="42" x2="628" y2="42" stroke="#0f62fe" stroke-width="2.2"/>
<text x="634" y="46" font-family="Arial" font-size="12">vx_mps</text>
</svg>