<svg xmlns="http://www.w3.org/2000/svg" width="820" height="320" viewBox="0 0 820 320">
<rect width="100%" height="100%" fill="#ffffff"/>
<text x="54" y="28" font-family="Arial" font-size="18" font-weight="700">Velocity Y</text>
<line x1="54" y1="266" x2="766" y2="266" stroke="#1f2933"/>
<line x1="54" y1="54" x2="54" y2="266" stroke="#1f2933"/>
<text x="54" y="306" font-family="Arial" font-size="12">time (s)</text>
<text x="596" y="306" font-family="Arial" font-size="12">vy (m/s)</text>
<text x="58" y="68" font-family="Arial" font-size="11">4.37</text>
<text x="58" y="260" font-family="Arial" font-size="11">-110</text>
<polyline fill="none" stroke="#0f62fe" stroke-width="2.2" points="54.0,54.7 55.2,54.6 56.4,54.4 57.6,54.3 58.7,54.3 59.9,54.2 61.1,54.1 62.3,54.1 63.5,54.1 64.7,54.0 65.9,54.0 67.1,54.0 68.2,54.0 69.4,54.0 70.6,54.0 71.8,54.1 73.0,54.1 74.2,54.1 75.4,54.2 76.5,54.3 77.7,54.4 78.9,54.5 80.1,54.6 81.3,54.7 82.5,54.8 83.7,54.9 84.9,55.1 86.0,55.3 87.2,55.4 88.4,55.6 89.6,55.8 90.8,56.0 92.0,56.3 93.2,56.5 94.3,56.8 95.5,57.0 96.7,57.3 97.9,57.6 99.1,57.9 100.3,58.2 101.5,58.5 102.7,58.9 103.8,59.2 105.0,59.6 106.2,60.0 107.4,60.4 108.6,60.8 109.8,61.2 111.0,61.6 112.1,62.1 113.3,62.5 114.5,63.0 115.7,63.5 116.9,64.0 118.1,64.5 119.3,65.1 120.5,65.6 121.6,66.2 122.8,66.8 124.0,67.4 125.2,68.0 126.4,68.6 127.6,69.3 128.8,70.0 129.9,70.6 131.1,71.3 132.3,72.1 133.5,72.8 134.7,73.6 135.9,74.3 137.1,75.1 138.3,75.9 139.4,76.6 140.6,77.4 141.8,78.2 143.0,79.0 144.2,79.8 145.4,80.6 146.6,81.4 147.7,82.2 148.9,83.0 150.1,83.8 151.3,84.6 152.5,85.4 153.7,86.2 154.9,87.1 156.1,88.0 157.2,88.8 158.4,89.7 159.6,90.7 160.8,91.6 162.0,92.6 163.2,93.6 164.4,94.6 165.5,95.6 166.7,96.6 167.9,97.7 169.1,98.7 170.3,99.8 171.5,100.9 172.7,102.0 173.9,103.1 175.0,104.2 176.2,105.3 177.4,106.5 178.6,107.6 179.8,108.7 181.0,109.9 182.2,111.0 183.3,112.2 184.5,113.3 185.7,114.5 186.9,115.6 188.1,116.8 189.3,118.0 190.5,119.2 191.7,120.4 192.8,121.6 194.0,122.8 195.2,124.1 196.4,125.3 197.6,126.6 198.8,127.9 200.0,129.2 201.1,130.5 202.3,131.8 203.5,133.1 204.7,134.4 205.9,135.7 207.1,137.0 208.3,138.4 209.5,139.7 210.6,141.0 211.8,142.4 213.0,143.7 214.2,145.1 215.4,146.4 216.6,147.8 217.8,149.1 218.9,150.5 220.1,151.9 221.3,153.2 222.5,154.6 223.7,156.0 224.9,157.4 226.1,158.8 227.3,160.2 228.4,161.6 229.6,163.1 230.8,164.5 232.0,165.9 233.2,167.4 234.4,168.8 235.6,170.3 236.7,171.7 237.9,173.2 239.1,174.7 240.3,176.1 241.5,177.6 242.7,179.0 243.9,180.5 245.1,181.9 246.2,183.4 247.4,184.9 248.6,186.3 249.8,187.8 251.0,189.2 252.2,190.7 253.4,192.1 254.5,193.6 255.7,195.0 256.9,196.5 258.1,197.9 259.3,199.4 260.5,200.8 261.7,202.2 262.9,203.7 264.0,205.1 265.2,206.5 266.4,207.9 267.6,209.3 268.8,210.7 270.0,212.1 271.2,213.5 272.3,214.8 273.5,216.2 274.7,217.5 275.9,218.9 277.1,220.2 278.3,221.5 279.5,222.8 280.7,224.1 281.8,225.4 283.0,226.7 284.2,227.9 285.4,229.2 286.6,230.4 287.8,231.6 289.0,232.8 290.1,234.0 291.3,235.2 292.5,236.3 293.7,237.5 294.9,238.6 296.1,239.7 297.3,240.8 298.5,241.8 299.6,242.9 300.8,243.9 302.0,244.9 303.2,245.9 304.4,246.8 305.6,247.8 306.8,248.7 307.9,249.6 309.1,250.5 310.3,251.4 311.5,252.2 312.7,253.0 313.9,253.8 315.1,254.6 316.3,255.4 317.4,256.1 318.6,256.8 319.8,257.4 321.0,258.1 322.2,258.7 323.4,259.3 324.6,259.9 325.7,260.4 326.9,261.0 328.1,261.5 329.3,262.0 330.5,262.4 331.7,262.9 332.9,263.3 334.1,263.7 335.2,264.0 336.4,264.4 337.6,264.7 338.8,265.0 340.0,265.2 341.2,265.5 342.4,265.6 343.5,265.8 344.7,265.9 345.9,266.0 347.1,266.0 348.3,266.0 349.5,265.9 350.7,265.8 351.9,265.7 353.0,265.5 354.2,265.3 355.4,265.0 356.6,264.7 357.8,264.3 359.0,263.9 360.2,263.5 361.3,263.0 362.5,262.5 363.7,261.9 364.9,261.2 366.1,260.6 367.3,259.9 368.5,259.2 369.7,258.6 370.8,258.0 372.0,257.5 373.2,257.0 374.4,256.5 375.6,256.1 376.8,255.8 378.0,255.5 379.1,255.2 380.3,255.0 381.5,254.8 382.7,254.6 383.9,254.6 385.1,254.5 386.3,254.6 387.5,254.7 388.6,254.8 389.8,254.9 391.0,255.1 392.2,255.2 393.4,255.3 394.6,255.4 395.8,255.4 396.9,255.3 398.1,255.2 399.3,255.1 400.5,254.9 401.7,254.7 402.9,254.4 404.1,254.1 405.3,253.7 406.4,253.3 407.6,252.8 408.8,252.3 410.0,251.7 411.2,251.1 412.4,250.5 413.6,249.9 414.7,249.2 415.9,248.5 417.1,247.8 418.3,247.0 419.5,246.2 420.7,245.3 421.9,244.4 423.1,243.4 424.2,242.5 425.4,241.5 426.6,240.5 427.8,239.4 429.0,238.4 430.2,237.3 431.4,236.3 432.5,235.2 433.7,234.2 434.9,233.1 436.1,232.1 437.3,231.2 438.5,230.2 439.7,229.3 440.9,228.4 442.0,227.6 443.2,226.8 444.4,226.1 445.6,225.5 446.8,225.0 448.0,224.5 449.2,224.2 450.3,223.9 451.5,223.8 452.7,223.9 453.9,224.0 455.1,224.3 456.3,224.7 457.5,225.1 458.7,225.8 459.8,226.9 461.0,228.0 462.2,228.9 463.4,229.8 464.6,230.7 465.8,231.5 467.0,232.3 468.1,233.1 469.3,233.9 470.5,234.7 471.7,235.5 472.9,236.3 474.1,237.1 475.3,237.9 476.5,238.7 477.6,239.7 478.8,240.6 480.0,241.3 481.2,241.9 482.4,242.3 483.6,242.7 484.8,243.0 485.9,243.3 487.1,243.6 488.3,244.1 489.5,244.7 490.7,245.5 491.9,246.5 493.1,247.6 494.3,248.9 495.4,250.2 496.6,251.5 497.8,252.8 499.0,254.1 500.2,255.3 501.4,256.3 502.6,257.1 503.7,257.7 504.9,257.9 506.1,258.1 507.3,258.0 508.5,257.9 509.7,257.6 510.9,257.3 512.1,257.0 513.2,256.6 514.4,256.1 515.6,255.7 516.8,255.2 518.0,254.7 519.2,254.1 520.4,253.5 521.5,252.9 522.7,252.2 523.9,251.5 525.1,250.7 526.3,249.9 527.5,248.9 528.7,248.0 529.9,247.0 531.0,245.9 532.2,244.8 533.4,243.7 534.6,242.5 535.8,241.3 537.0,240.1 538.2,238.9 539.3,237.6 540.5,236.4 541.7,235.2 542.9,233.9 544.1,232.7 545.3,231.4 546.5,230.2 547.7,228.9 548.8,227.6 550.0,226.4 551.2,225.1 552.4,223.8 553.6,222.4 554.8,221.1 556.0,219.7 557.1,218.3 558.3,216.9 559.5,215.5 560.7,214.0 561.9,212.6 563.1,211.1 564.3,209.7 565.5,208.2 566.6,206.6 567.8,205.1 569.0,203.6 570.2,202.6 571.4,201.7 572.6,200.7 573.8,199.8 574.9,199.0 576.1,198.1 577.3,197.3 578.5,196.4 579.7,195.6 580.9,194.8 582.1,194.1 583.3,193.3 584.4,192.6 585.6,191.9 586.8,191.2 588.0,190.5 589.2,189.8 590.4,189.1 591.6,188.5 592.7,187.8 593.9,187.2 595.1,186.6 596.3,186.0 597.5,185.4 598.7,184.8 599.9,184.3 601.1,183.7 602.2,183.2 603.4,182.6 604.6,182.1 605.8,181.6 607.0,181.1 608.2,180.5 609.4,180.0 610.5,179.5 611.7,178.9 612.9,178.4 614.1,177.8 615.3,177.3 616.5,176.7 617.7,176.1 618.9,175.5 620.0,174.9 621.2,174.3 622.4,173.7 623.6,173.2 624.8,172.6 626.0,172.0 627.2,171.5 628.3,171.0 629.5,170.8 630.7,170.6 631.9,170.5 633.1,170.3 634.3,170.2 635.5,170.1 636.7,169.9 637.8,169.7 639.0,169.5 640.2,169.3 641.4,169.2 642.6,169.1 643.8,169.0 645.0,168.9 646.1,168.8 647.3,168.7 648.5,168.6 649.7,168.6 650.9,168.6 652.1,168.5 653.3,168.5 654.5,168.4 655.6,168.2 656.8,167.9 658.0,167.4 659.2,166.9 660.4,166.3 661.6,165.6 662.8,164.9 663.9,164.1 665.1,163.2 666.3,162.4 667.5,161.5 668.7,160.7 669.9,159.9 671.1,159.2 672.3,158.5 673.4,157.9 674.6,157.3 675.8,156.8 677.0,156.3 678.2,155.9 679.4,155.6 680.6,155.3 681.7,155.1 682.9,154.9 684.1,154.7 685.3,154.5 686.5,154.4 687.7,154.2 688.9,154.1 690.1,153.9 691.2,153.7 692.4,153.5 693.6,153.3 694.8,153.1 696.0,152.9 697.2,152.6 698.4,152.4 699.5,152.0 700.7,151.7 701.9,151.3 703.1,150.9 704.3,150.5 705.5,150.0 706.7,149.5 707.9,149.0 709.0,148.5 710.2,148.0 711.4,147.4 712.6,146.9 713.8,146.3 715.0,145.7 716.2,145.2 717.3,144.6 718.5,144.1 719.7,143.6 720.9,143.1 722.1,142.6 723.3,142.1 724.5,141.7 725.7,141.2 726.8,140.8 728.0,140.3 729.2,139.8 730.4,139.4 731.6,138.9 732.8,138.5 734.0,138.0 735.1,137.5 736.3,137.1 737.5,136.6 738.7,136.2 739.9,135.7 741.1,135.3 742.3,134.8 743.5,134.4 744.6,133.9 745.8,133.5 747.0,133.0 748.2,132.6 749.4,132.2 750.6,131.7 751.8,131.3 752.9,130.9 754.1,130.5 755.3,130.1 756.5,129.7 757.7,129.3 758.9,128.9 760.1,128.4 761.3,128.0 762.4,127.6 763.6,127.2 764.8,126.8 766.0,126.4"/>
<line x1="606" y1="42" x2="628" y2="42" stroke="#0f62fe" stroke-width="2.2"/>
<text x="634" y="46" font-family="Arial" font-size="12">vy_mps</text>
</svg>