<svg xmlns="http://www.w3.org/2000/svg" width="820" height="320" viewBox="0 0 820 320">
<rect width="100%" height="100%" fill="#ffffff"/>
<text x="54" y="28" font-family="Arial" font-size="18" font-weight="700">Speed</text>
<line x1="54" y1="266" x2="766" y2="266" stroke="#1f2933"/>
<line x1="54" y1="54" x2="54" y2="266" stroke="#1f2933"/>
<text x="54" y="306" font-family="Arial" font-size="12">time (s)</text>
<text x="596" y="306" font-family="Arial" font-size="12">speed (m/s)</text>
<text x="58" y="68" font-family="Arial" font-size="11">152</text>
<text x="58" y="260" font-family="Arial" font-size="11">75.6</text>
<polyline fill="none" stroke="#0f62fe" stroke-width="2.2" points="54.0,228.4 55.2,227.1 56.4,225.7 57.6,224.3 58.7,222.9 59.9,221.5 61.1,220.0 62.3,218.6 63.5,217.1 64.7,215.5 65.9,214.0 67.1,212.4 68.2,210.9 69.4,209.2 70.6,207.6 71.8,206.0 73.0,204.3 74.2,202.7 75.4,201.1 76.5,199.5 77.7,197.9 78.9,196.3 80.1,194.7 81.3,193.1 82.5,191.5 83.7,189.9 84.9,188.4 86.0,186.8 87.2,185.2 88.4,183.7 89.6,182.1 90.8,180.6 92.0,179.1 93.2,177.5 94.3,176.0 95.5,174.5 96.7,173.0 97.9,171.5 99.1,170.0 100.3,168.5 101.5,167.1 102.7,165.6 103.8,164.1 105.0,162.7 106.2,161.2 107.4,159.8 108.6,158.4 109.8,157.0 111.0,155.6 112.1,154.2 113.3,152.8 114.5,151.4 115.7,150.0 116.9,148.7 118.1,147.3 119.3,146.0 120.5,144.7 121.6,143.4 122.8,142.1 124.0,140.8 125.2,139.5 126.4,138.3 127.6,137.0 128.8,135.8 129.9,134.6 131.1,133.4 132.3,132.2 133.5,131.0 134.7,129.8 135.9,128.6 137.1,127.5 138.3,126.3 139.4,125.2 140.6,124.1 141.8,122.9 143.0,121.8 144.2,120.6 145.4,119.5 146.6,118.3 147.7,117.2 148.9,116.1 150.1,114.9 151.3,113.8 152.5,112.7 153.7,111.6 154.9,110.5 156.1,109.4 157.2,108.3 158.4,107.3 159.6,106.3 160.8,105.3 162.0,104.3 163.2,103.3 164.4,102.4 165.5,101.4 166.7,100.5 167.9,99.6 169.1,98.7 170.3,97.9 171.5,97.0 172.7,96.2 173.9,95.3 175.0,94.5 176.2,93.7 177.4,92.9 178.6,92.1 179.8,91.3 181.0,90.5 182.2,89.7 183.3,88.9 184.5,88.1 185.7,87.3 186.9,86.6 188.1,85.8 189.3,85.1 190.5,84.4 191.7,83.7 192.8,83.0 194.0,82.3 195.2,81.7 196.4,81.1 197.6,80.5 198.8,80.0 200.0,79.4 201.1,78.9 202.3,78.4 203.5,77.9 204.7,77.5 205.9,77.0 207.1,76.6 208.3,76.1 209.5,75.7 210.6,75.2 211.8,74.8 213.0,74.3 214.2,73.9 215.4,73.4 216.6,73.0 217.8,72.5 218.9,72.1 220.1,71.7 221.3,71.3 222.5,70.9 223.7,70.5 224.9,70.2 226.1,69.9 227.3,69.6 228.4,69.3 229.6,69.1 230.8,68.8 232.0,68.7 233.2,68.5 234.4,68.3 235.6,68.2 236.7,68.0 237.9,67.9 239.1,67.8 240.3,67.7 241.5,67.6 242.7,67.5 243.9,67.4 245.1,67.3 246.2,67.3 247.4,67.2 248.6,67.2 249.8,67.1 251.0,67.1 252.2,67.2 253.4,67.2 254.5,67.3 255.7,67.4 256.9,67.6 258.1,67.8 259.3,68.0 260.5,68.3 261.7,68.6 262.9,68.9 264.0,69.3 265.2,69.7 266.4,70.1 267.6,70.5 268.8,70.9 270.0,71.4 271.2,71.8 272.3,72.3 273.5,72.7 274.7,73.1 275.9,73.6 277.1,74.0 278.3,74.5 279.5,74.9 280.7,75.4 281.8,75.9 283.0,76.4 284.2,76.9 285.4,77.5 286.6,78.0 287.8,78.6 289.0,79.1 290.1,79.7 291.3,80.2 292.5,80.8 293.7,81.4 294.9,82.0 296.1,82.6 297.3,83.2 298.5,83.8 299.6,84.4 300.8,85.1 302.0,85.7 303.2,86.4 304.4,87.0 305.6,87.7 306.8,88.3 307.9,89.0 309.1,89.7 310.3,90.4 311.5,91.0 312.7,91.7 313.9,92.5 315.1,93.2 316.3,93.9 317.4,94.7 318.6,95.4 319.8,96.2 321.0,97.0 322.2,97.8 323.4,98.7 324.6,99.6 325.7,100.5 326.9,101.4 328.1,102.3 329.3,103.3 330.5,104.3 331.7,105.3 332.9,106.4 334.1,107.5 335.2,108.6 336.4,109.7 337.6,110.9 338.8,112.1 340.0,113.3 341.2,114.5 342.4,115.8 343.5,117.2 344.7,118.5 345.9,120.0 347.1,121.4 348.3,122.9 349.5,124.5 350.7,126.1 351.9,127.7 353.0,129.4 354.2,131.1 355.4,132.8 356.6,134.6 357.8,136.5 359.0,138.3 360.2,140.2 361.3,142.2 362.5,144.2 363.7,146.2 364.9,148.3 366.1,150.4 367.3,152.5 368.5,154.5 369.7,156.5 370.8,158.4 372.0,160.2 373.2,161.9 374.4,163.5 375.6,165.0 376.8,166.5 378.0,167.9 379.1,169.1 380.3,170.3 381.5,171.4 382.7,172.4 383.9,173.2 385.1,174.0 386.3,174.6 387.5,175.2 388.6,175.6 389.8,176.0 391.0,176.3 392.2,176.7 393.4,177.1 394.6,177.6 395.8,178.2 396.9,178.8 398.1,179.4 399.3,180.1 400.5,180.9 401.7,181.6 402.9,182.4 404.1,183.3 405.3,184.2 406.4,185.2 407.6,186.2 408.8,187.3 410.0,188.4 411.2,189.6 412.4,190.7 413.6,191.8 414.7,193.0 415.9,194.2 417.1,195.5 418.3,196.8 419.5,198.1 420.7,199.5 421.9,200.9 423.1,202.3 424.2,203.7 425.4,205.2 426.6,206.6 427.8,208.0 429.0,209.4 430.2,210.8 431.4,212.2 432.5,213.5 433.7,214.7 434.9,215.9 436.1,217.0 437.3,217.9 438.5,218.8 439.7,219.6 440.9,220.3 442.0,220.8 443.2,221.3 444.4,221.6 445.6,221.8 446.8,221.9 448.0,221.9 449.2,221.7 450.3,221.4 451.5,221.0 452.7,220.5 453.9,219.9 455.1,219.2 456.3,218.4 457.5,217.6 458.7,216.4 459.8,214.9 461.0,213.5 462.2,212.5 463.4,211.6 464.6,210.6 465.8,209.7 467.0,208.8 468.1,207.8 469.3,206.7 470.5,205.6 471.7,204.5 472.9,203.4 474.1,202.1 475.3,200.8 476.5,199.3 477.6,197.5 478.8,195.6 480.0,193.7 481.2,192.1 482.4,190.7 483.6,189.4 484.8,188.2 485.9,187.1 487.1,185.9 488.3,184.7 489.5,183.3 490.7,181.7 491.9,179.9 493.1,178.0 494.3,176.0 495.4,174.0 496.6,172.0 497.8,169.9 499.0,167.9 500.2,165.8 501.4,163.9 502.6,162.1 503.7,160.6 504.9,159.3 506.1,158.2 507.3,157.2 508.5,156.3 509.7,155.6 510.9,155.0 512.1,154.4 513.2,153.9 514.4,153.4 515.6,153.0 516.8,152.6 518.0,152.3 519.2,152.0 520.4,151.8 521.5,151.6 522.7,151.5 523.9,151.5 525.1,151.5 526.3,151.6 527.5,151.7 528.7,151.9 529.9,152.1 531.0,152.4 532.2,152.7 533.4,153.0 534.6,153.3 535.8,153.7 537.0,153.9 538.2,154.2 539.3,154.4 540.5,154.6 541.7,154.8 542.9,155.0 544.1,155.1 545.3,155.3 546.5,155.5 547.7,155.6 548.8,155.8 550.0,156.1 551.2,156.3 552.4,156.6 553.6,156.9 554.8,157.2 556.0,157.6 557.1,158.0 558.3,158.5 559.5,159.0 560.7,159.5 561.9,160.0 563.1,160.6 564.3,161.2 565.5,161.9 566.6,162.6 567.8,163.4 569.0,164.2 570.2,165.5 571.4,166.8 572.6,168.1 573.8,169.3 574.9,170.6 576.1,171.8 577.3,173.1 578.5,174.3 579.7,175.5 580.9,176.7 582.1,177.9 583.3,179.0 584.4,180.2 585.6,181.3 586.8,182.4 588.0,183.5 589.2,184.6 590.4,185.7 591.6,186.8 592.7,187.9 593.9,188.9 595.1,190.0 596.3,191.0 597.5,192.0 598.7,193.1 599.9,194.1 601.1,195.1 602.2,196.1 603.4,197.2 604.6,198.2 605.8,199.2 607.0,200.3 608.2,201.3 609.4,202.3 610.5,203.3 611.7,204.3 612.9,205.3 614.1,206.3 615.3,207.3 616.5,208.3 617.7,209.3 618.9,210.2 620.0,211.2 621.2,212.1 622.4,213.0 623.6,213.9 624.8,214.7 626.0,215.5 627.2,216.3 628.3,216.9 629.5,217.5 630.7,218.1 631.9,218.7 633.1,219.4 634.3,220.2 635.5,221.1 636.7,222.1 637.8,223.0 639.0,224.0 640.2,224.9 641.4,225.7 642.6,226.3 643.8,226.7 645.0,227.0 646.1,227.3 647.3,227.5 648.5,227.8 649.7,228.0 650.9,228.3 652.1,228.5 653.3,228.8 654.5,229.0 655.6,229.3 656.8,229.6 658.0,229.9 659.2,230.3 660.4,230.7 661.6,231.1 662.8,231.7 663.9,232.3 665.1,232.9 666.3,233.6 667.5,234.3 668.7,234.9 669.9,235.6 671.1,236.2 672.3,236.8 673.4,237.3 674.6,237.8 675.8,238.3 677.0,238.7 678.2,239.0 679.4,239.3 680.6,239.7 681.7,240.0 682.9,240.3 684.1,240.7 685.3,241.1 686.5,241.5 687.7,241.9 688.9,242.3 690.1,242.8 691.2,243.2 692.4,243.6 693.6,244.0 694.8,244.4 696.0,244.8 697.2,245.1 698.4,245.4 699.5,245.7 700.7,246.0 701.9,246.3 703.1,246.5 704.3,246.8 705.5,247.1 706.7,247.4 707.9,247.7 709.0,248.0 710.2,248.3 711.4,248.6 712.6,248.9 713.8,249.3 715.0,249.6 716.2,250.0 717.3,250.4 718.5,250.7 719.7,251.1 720.9,251.5 722.1,251.9 723.3,252.3 724.5,252.7 725.7,253.0 726.8,253.4 728.0,253.8 729.2,254.2 730.4,254.6 731.6,255.0 732.8,255.4 734.0,255.8 735.1,256.2 736.3,256.6 737.5,256.9 738.7,257.3 739.9,257.7 741.1,258.1 742.3,258.5 743.5,258.8 744.6,259.2 745.8,259.6 747.0,260.0 748.2,260.4 749.4,260.8 750.6,261.1 751.8,261.5 752.9,261.9 754.1,262.3 755.3,262.7 756.5,263.0 757.7,263.4 758.9,263.8 760.1,264.2 761.3,264.6 762.4,264.9 763.6,265.3 764.8,265.7 766.0,266.0"/>
<line x1="606" y1="42" x2="628" y2="42" stroke="#0f62fe" stroke-width="2.2"/>
<text x="634" y="46" font-family="Arial" font-size="12">speed_mps</text>
<polyline fill="none" stroke="#24a148" stroke-width="2.2" points="54.0,223.4 55.2,222.2 56.4,221.0 57.6,219.7 58.7,218.3 59.9,217.0 61.1,215.6 62.3,214.2 63.5,212.7 64.7,211.2 65.9,209.7 67.1,208.2 68.2,206.6 69.4,204.9 70.6,203.3 71.8,201.6 73.0,200.0 74.2,198.3 75.4,196.6 76.5,194.9 77.7,193.2 78.9,191.5 80.1,189.8 81.3,188.1 82.5,186.4 83.7,184.7 84.9,183.0 86.0,181.3 87.2,179.6 88.4,177.9 89.6,176.1 90.8,174.4 92.0,172.7 93.2,171.0 94.3,169.3 95.5,167.6 96.7,165.9 97.9,164.2 99.1,162.6 100.3,160.9 101.5,159.2 102.7,157.6 103.8,156.0 105.0,154.3 106.2,152.7 107.4,151.1 108.6,149.6 109.8,148.0 111.0,146.5 112.1,144.9 113.3,143.4 114.5,141.9 115.7,140.5 116.9,139.0 118.1,137.6 119.3,136.2 120.5,134.8 121.6,133.5 122.8,132.1 124.0,130.8 125.2,129.5 126.4,128.2 127.6,127.0 128.8,125.8 129.9,124.6 131.1,123.4 132.3,122.2 133.5,121.1 134.7,120.0 135.9,118.9 137.1,117.8 138.3,116.7 139.4,115.6 140.6,114.5 141.8,113.4 143.0,112.3 144.2,111.2 145.4,110.2 146.6,109.1 147.7,108.0 148.9,106.9 150.1,105.8 151.3,104.7 152.5,103.6 153.7,102.6 154.9,101.5 156.1,100.4 157.2,99.4 158.4,98.3 159.6,97.3 160.8,96.3 162.0,95.3 163.2,94.3 164.4,93.3 165.5,92.3 166.7,91.3 167.9,90.3 169.1,89.4 170.3,88.4 171.5,87.5 172.7,86.5 173.9,85.6 175.0,84.7 176.2,83.7 177.4,82.8 178.6,81.9 179.8,81.0 181.0,80.1 182.2,79.2 183.3,78.3 184.5,77.4 185.7,76.5 186.9,75.7 188.1,74.8 189.3,74.0 190.5,73.2 191.7,72.4 192.8,71.6 194.0,70.9 195.2,70.1 196.4,69.5 197.6,68.8 198.8,68.2 200.0,67.6 201.1,67.0 202.3,66.4 203.5,65.9 204.7,65.4 205.9,64.9 207.1,64.4 208.3,63.9 209.5,63.4 210.6,63.0 211.8,62.5 213.0,62.1 214.2,61.6 215.4,61.2 216.6,60.7 217.8,60.3 218.9,59.9 220.1,59.5 221.3,59.1 222.5,58.8 223.7,58.4 224.9,58.1 226.1,57.8 227.3,57.5 228.4,57.3 229.6,57.1 230.8,56.9 232.0,56.7 233.2,56.5 234.4,56.3 235.6,56.2 236.7,56.1 237.9,55.9 239.1,55.8 240.3,55.6 241.5,55.5 242.7,55.4 243.9,55.2 245.1,55.0 246.2,54.9 247.4,54.7 248.6,54.6 249.8,54.4 251.0,54.3 252.2,54.1 253.4,54.0 254.5,54.0 255.7,54.0 256.9,54.1 258.1,54.2 259.3,54.4 260.5,54.7 261.7,54.9 262.9,55.3 264.0,55.7 265.2,56.1 266.4,56.6 267.6,57.1 268.8,57.6 270.0,58.1 271.2,58.6 272.3,59.2 273.5,59.7 274.7,60.2 275.9,60.8 277.1,61.3 278.3,61.9 279.5,62.4 280.7,62.9 281.8,63.5 283.0,64.0 284.2,64.6 285.4,65.1 286.6,65.6 287.8,66.1 289.0,66.6 290.1,67.1 291.3,67.6 292.5,68.0 293.7,68.4 294.9,68.9 296.1,69.3 297.3,69.7 298.5,70.1 299.6,70.4 300.8,70.8 302.0,71.2 303.2,71.5 304.4,71.9 305.6,72.3 306.8,72.7 307.9,73.1 309.1,73.5 310.3,73.9 311.5,74.3 312.7,74.8 313.9,75.3 315.1,75.9 316.3,76.5 317.4,77.1 318.6,77.8 319.8,78.5 321.0,79.3 322.2,80.2 323.4,81.1 324.6,82.2 325.7,83.2 326.9,84.4 328.1,85.6 329.3,86.9 330.5,88.3 331.7,89.7 332.9,91.2 334.1,92.6 335.2,94.1 336.4,95.6 337.6,97.1 338.8,98.6 340.0,100.1 341.2,101.6 342.4,103.2 343.5,104.8 344.7,106.3 345.9,107.9 347.1,109.5 348.3,111.1 349.5,112.7 350.7,114.4 351.9,116.0 353.0,117.6 354.2,119.3 355.4,120.9 356.6,122.6 357.8,124.2 359.0,125.9 360.2,127.5 361.3,129.2 362.5,130.9 363.7,132.5 364.9,134.2 366.1,135.9 367.3,137.5 368.5,139.1 369.7,140.6 370.8,142.0 372.0,143.2 373.2,144.3 374.4,145.4 375.6,146.3 376.8,147.1 378.0,147.9 379.1,148.5 380.3,149.1 381.5,149.5 382.7,149.8 383.9,150.1 385.1,150.2 386.3,150.2 387.5,150.2 388.6,150.0 389.8,149.8 391.0,149.6 392.2,149.5 393.4,149.5 394.6,149.5 395.8,149.6 396.9,149.8 398.1,150.1 399.3,150.5 400.5,150.9 401.7,151.5 402.9,152.1 404.1,152.8 405.3,153.6 406.4,154.6 407.6,155.6 408.8,156.7 410.0,157.9 411.2,159.2 412.4,160.5 413.6,161.9 414.7,163.3 415.9,164.9 417.1,166.5 418.3,168.2 419.5,170.0 420.7,171.9 421.9,173.8 423.1,175.8 424.2,177.8 425.4,179.9 426.6,182.0 427.8,184.1 429.0,186.3 430.2,188.4 431.4,190.5 432.5,192.6 433.7,194.6 434.9,196.6 436.1,198.4 437.3,200.2 438.5,201.9 439.7,203.4 440.9,204.9 442.0,206.2 443.2,207.3 444.4,208.4 445.6,209.2 446.8,209.9 448.0,210.5 449.2,210.9 450.3,211.1 451.5,211.1 452.7,210.9 453.9,210.7 455.1,210.2 456.3,209.7 457.5,209.1 458.7,208.0 459.8,206.7 461.0,205.4 462.2,204.4 463.4,203.5 464.6,202.6 465.8,201.6 467.0,200.5 468.1,199.4 469.3,198.2 470.5,196.9 471.7,195.5 472.9,194.0 474.1,192.5 475.3,190.8 476.5,188.9 477.6,186.7 478.8,184.2 480.0,181.9 481.2,179.7 482.4,177.7 483.6,175.7 484.8,173.9 485.9,172.1 487.1,170.2 488.3,168.3 489.5,166.2 490.7,163.9 491.9,161.3 493.1,158.7 494.3,156.0 495.4,153.3 496.6,150.6 497.8,147.9 499.0,145.2 500.2,142.5 501.4,139.9 502.6,137.5 503.7,135.4 504.9,133.7 506.1,132.1 507.3,130.7 508.5,129.5 509.7,128.4 510.9,127.5 512.1,126.6 513.2,125.9 514.4,125.3 515.6,124.7 516.8,124.3 518.0,123.9 519.2,123.7 520.4,123.5 521.5,123.5 522.7,123.5 523.9,123.7 525.1,123.9 526.3,124.3 527.5,124.7 528.7,125.3 529.9,125.9 531.0,126.6 532.2,127.4 533.4,128.2 534.6,129.1 535.8,130.0 537.0,130.9 538.2,131.7 539.3,132.6 540.5,133.4 541.7,134.3 542.9,135.2 544.1,136.0 545.3,136.9 546.5,137.7 547.7,138.6 548.8,139.5 550.0,140.4 551.2,141.3 552.4,142.3 553.6,143.3 554.8,144.2 556.0,145.2 557.1,146.3 558.3,147.3 559.5,148.3 560.7,149.4 561.9,150.4 563.1,151.5 564.3,152.6 565.5,153.7 566.6,154.7 567.8,155.8 569.0,156.9 570.2,158.5 571.4,160.0 572.6,161.4 573.8,162.8 574.9,164.1 576.1,165.4 577.3,166.6 578.5,167.8 579.7,169.0 580.9,170.1 582.1,171.1 583.3,172.1 584.4,173.1 585.6,174.0 586.8,174.8 588.0,175.6 589.2,176.4 590.4,177.2 591.6,177.9 592.7,178.5 593.9,179.2 595.1,179.8 596.3,180.4 597.5,180.9 598.7,181.5 599.9,182.0 601.1,182.5 602.2,183.0 603.4,183.5 604.6,184.0 605.8,184.6 607.0,185.1 608.2,185.6 609.4,186.1 610.5,186.6 611.7,187.1 612.9,187.6 614.1,188.2 615.3,188.7 616.5,189.3 617.7,189.8 618.9,190.4 620.0,191.0 621.2,191.6 622.4,192.2 623.6,192.8 624.8,193.4 626.0,194.0 627.2,194.6 628.3,195.2 629.5,195.7 630.7,196.1 631.9,196.7 633.1,197.3 634.3,198.1 635.5,199.0 636.7,200.0 637.8,201.1 639.0,202.2 640.2,203.3 641.4,204.2 642.6,205.0 643.8,205.7 645.0,206.4 646.1,207.0 647.3,207.6 648.5,208.2 649.7,208.9 650.9,209.5 652.1,210.3 653.3,211.0 654.5,211.7 655.6,212.4 656.8,213.2 658.0,214.1 659.2,215.0 660.4,215.9 661.6,217.0 662.8,218.0 663.9,219.2 665.1,220.4 666.3,221.6 667.5,222.8 668.7,223.9 669.9,225.1 671.1,226.1 672.3,227.2 673.4,228.1 674.6,229.0 675.8,229.8 677.0,230.5 678.2,231.1 679.4,231.7 680.6,232.3 681.7,232.8 682.9,233.3 684.1,233.8 685.3,234.3 686.5,234.8 687.7,235.3 688.9,235.8 690.1,236.2 691.2,236.6 692.4,237.0 693.6,237.3 694.8,237.5 696.0,237.7 697.2,237.9 698.4,238.0 699.5,238.1 700.7,238.1 701.9,238.1 703.1,238.1 704.3,238.0 705.5,237.9 706.7,237.9 707.9,237.8 709.0,237.8 710.2,237.7 711.4,237.6 712.6,237.6 713.8,237.5 715.0,237.4 716.2,237.4 717.3,237.4 718.5,237.3 719.7,237.3 720.9,237.3 722.1,237.2 723.3,237.2 724.5,237.2 725.7,237.2 726.8,237.3 728.0,237.3 729.2,237.4 730.4,237.4 731.6,237.5 732.8,237.7 734.0,237.8 735.1,238.0 736.3,238.2 737.5,238.4 738.7,238.6 739.9,238.9 741.1,239.2 742.3,239.5 743.5,239.9 744.6,240.3 745.8,240.7 747.0,241.1 748.2,241.6 749.4,242.1 750.6,242.7 751.8,243.2 752.9,243.8 754.1,244.4 755.3,245.1 756.5,245.7 757.7,246.4 758.9,247.1 760.1,247.9 761.3,248.6 762.4,249.4 763.6,250.1 764.8,250.9 766.0,251.7"/>
<line x1="606" y1="60" x2="628" y2="60" stroke="#24a148" stroke-width="2.2"/>
<text x="634" y="64" font-family="Arial" font-size="12">airspeed_mps</text>
</svg>