<svg xmlns="http://www.w3.org/2000/svg" width="820" height="320" viewBox="0 0 820 320">
<rect width="100%" height="100%" fill="#ffffff"/>
<text x="54" y="28" font-family="Arial" font-size="18" font-weight="700">Alpha/Beta</text>
<line x1="54" y1="266" x2="766" y2="266" stroke="#1f2933"/>
<line x1="54" y1="54" x2="54" y2="266" stroke="#1f2933"/>
<text x="54" y="306" font-family="Arial" font-size="12">time (s)</text>
<text x="596" y="306" font-family="Arial" font-size="12">angle (deg)</text>
<text x="58" y="68" font-family="Arial" font-size="11">35</text>
<text x="58" y="260" font-family="Arial" font-size="11">-34.1</text>
<polyline fill="none" stroke="#0f62fe" stroke-width="2.2" points="54.0,163.4 55.2,161.6 56.4,159.2 57.6,157.2 58.7,155.8 59.9,154.7 61.1,153.5 62.3,152.4 63.5,151.4 64.7,150.5 65.9,149.8 67.1,149.1 68.2,148.4 69.4,147.9 70.6,147.4 71.8,146.9 73.0,146.5 74.2,146.1 75.4,145.7 76.5,145.4 77.7,145.1 78.9,144.8 80.1,144.5 81.3,144.3 82.5,144.0 83.7,143.8 84.9,143.6 86.0,143.4 87.2,143.2 88.4,143.0 89.6,142.8 90.8,142.6 92.0,142.4 93.2,142.3 94.3,142.1 95.5,141.9 96.7,141.8 97.9,141.6 99.1,141.4 100.3,141.3 101.5,141.1 102.7,140.9 103.8,140.8 105.0,140.6 106.2,140.4 107.4,140.2 108.6,140.1 109.8,139.9 111.0,139.7 112.1,139.5 113.3,139.3 114.5,139.1 115.7,138.9 116.9,138.7 118.1,138.5 119.3,138.3 120.5,138.1 121.6,137.9 122.8,137.6 124.0,137.4 125.2,137.2 126.4,136.9 127.6,136.7 128.8,136.4 129.9,136.2 131.1,135.9 132.3,135.7 133.5,135.5 134.7,135.4 135.9,135.3 137.1,135.1 138.3,135.1 139.4,135.0 140.6,135.0 141.8,135.0 143.0,135.0 144.2,135.0 145.4,135.0 146.6,135.0 147.7,135.0 148.9,134.9 150.1,134.8 151.3,134.7 152.5,134.5 153.7,134.3 154.9,134.0 156.1,133.7 157.2,133.4 158.4,133.0 159.6,132.7 160.8,132.4 162.0,132.1 163.2,131.8 164.4,131.6 165.5,131.3 166.7,131.0 167.9,130.8 169.1,130.6 170.3,130.4 171.5,130.2 172.7,130.1 173.9,129.9 175.0,129.8 176.2,129.8 177.4,129.7 178.6,129.6 179.8,129.6 181.0,129.5 182.2,129.4 183.3,129.3 184.5,129.1 185.7,128.9 186.9,128.7 188.1,128.4 189.3,128.1 190.5,127.7 191.7,127.3 192.8,126.9 194.0,126.4 195.2,126.0 196.4,125.5 197.6,125.0 198.8,124.6 200.0,124.2 201.1,123.9 202.3,123.6 203.5,123.3 204.7,123.1 205.9,122.9 207.1,122.8 208.3,122.7 209.5,122.6 210.6,122.5 211.8,122.5 213.0,122.4 214.2,122.3 215.4,122.2 216.6,122.0 217.8,121.8 218.9,121.5 220.1,121.2 221.3,120.8 222.5,120.4 223.7,119.9 224.9,119.5 226.1,119.0 227.3,118.5 228.4,118.0 229.6,117.5 230.8,117.0 232.0,116.6 233.2,116.3 234.4,115.9 235.6,115.7 236.7,115.5 237.9,115.3 239.1,115.1 240.3,115.0 241.5,114.9 242.7,114.8 243.9,114.6 245.1,114.4 246.2,114.2 247.4,113.9 248.6,113.6 249.8,113.2 251.0,112.8 252.2,112.2 253.4,111.7 254.5,111.0 255.7,110.3 256.9,109.6 258.1,108.9 259.3,108.2 260.5,107.5 261.7,106.9 262.9,106.3 264.0,105.8 265.2,105.4 266.4,104.9 267.6,104.6 268.8,104.3 270.0,104.1 271.2,103.9 272.3,103.7 273.5,103.5 274.7,103.3 275.9,103.0 277.1,102.8 278.3,102.4 279.5,102.0 280.7,101.5 281.8,101.0 283.0,100.4 284.2,99.7 285.4,98.9 286.6,98.0 287.8,97.0 289.0,95.9 290.1,94.7 291.3,93.5 292.5,92.3 293.7,91.0 294.9,89.8 296.1,88.5 297.3,87.3 298.5,86.1 299.6,84.9 300.8,83.7 302.0,82.5 303.2,81.3 304.4,80.1 305.6,78.8 306.8,77.4 307.9,76.1 309.1,74.7 310.3,73.1 311.5,71.4 312.7,69.6 313.9,67.6 315.1,65.4 316.3,63.1 317.4,60.5 318.6,57.8 319.8,54.9 321.0,54.0 322.2,54.0 323.4,54.0 324.6,54.0 325.7,54.0 326.9,54.0 328.1,54.0 329.3,54.0 330.5,54.0 331.7,54.0 332.9,54.0 334.1,54.0 335.2,54.0 336.4,54.0 337.6,54.0 338.8,54.0 340.0,54.0 341.2,54.0 342.4,54.0 343.5,54.0 344.7,54.0 345.9,54.0 347.1,54.0 348.3,54.0 349.5,54.0 350.7,54.0 351.9,54.0 353.0,54.0 354.2,54.0 355.4,54.0 356.6,54.0 357.8,54.0 359.0,54.0 360.2,54.0 361.3,54.0 362.5,54.0 363.7,54.0 364.9,54.0 366.1,54.0 367.3,54.0 368.5,54.0 369.7,54.0 370.8,54.0 372.0,54.0 373.2,54.0 374.4,54.0 375.6,54.0 376.8,54.0 378.0,54.0 379.1,54.0 380.3,54.0 381.5,54.0 382.7,54.0 383.9,54.0 385.1,54.0 386.3,54.0 387.5,54.0 388.6,54.0 389.8,54.0 391.0,54.0 392.2,54.0 393.4,54.0 394.6,54.0 395.8,54.0 396.9,54.0 398.1,54.0 399.3,54.0 400.5,54.0 401.7,54.0 402.9,54.0 404.1,54.0 405.3,54.0 406.4,54.0 407.6,54.0 408.8,54.0 410.0,54.0 411.2,54.0 412.4,54.0 413.6,54.0 414.7,54.0 415.9,54.0 417.1,54.0 418.3,54.0 419.5,54.0 420.7,54.0 421.9,54.0 423.1,54.0 424.2,54.0 425.4,54.0 426.6,54.0 427.8,54.0 429.0,54.0 430.2,54.0 431.4,54.0 432.5,54.0 433.7,54.0 434.9,54.0 436.1,54.0 437.3,54.0 438.5,54.0 439.7,54.0 440.9,54.0 442.0,54.0 443.2,54.0 444.4,54.0 445.6,54.0 446.8,54.0 448.0,54.0 449.2,54.0 450.3,54.0 451.5,54.0 452.7,54.0 453.9,54.0 455.1,71.4 456.3,94.7 457.5,123.1 458.7,153.6 459.8,181.9 461.0,206.9 462.2,227.8 463.4,244.0 464.6,255.6 465.8,262.8 467.0,266.0 468.1,265.7 469.3,262.2 470.5,255.8 471.7,246.3 472.9,234.0 474.1,218.7 475.3,200.5 476.5,179.6 477.6,158.8 478.8,141.9 480.0,128.7 481.2,119.0 482.4,112.4 483.6,108.5 484.8,106.6 485.9,107.2 487.1,110.4 488.3,116.1 489.5,124.6 490.7,136.0 491.9,147.4 493.1,155.9 494.3,161.6 495.4,164.5 496.6,164.5 497.8,161.6 499.0,155.8 500.2,147.0 501.4,135.3 502.6,124.5 503.7,116.8 504.9,111.6 506.1,107.5 507.3,103.6 508.5,99.6 509.7,95.6 510.9,91.2 512.1,86.6 513.2,81.7 514.4,76.7 515.6,71.6 516.8,66.6 518.0,61.6 519.2,56.8 520.4,54.0 521.5,54.0 522.7,54.0 523.9,54.0 525.1,54.0 526.3,54.0 527.5,54.0 528.7,54.0 529.9,54.0 531.0,54.0 532.2,54.0 533.4,54.0 534.6,54.0 535.8,54.0 537.0,54.0 538.2,54.0 539.3,54.0 540.5,54.0 541.7,54.0 542.9,54.0 544.1,54.0 545.3,54.0 546.5,54.0 547.7,54.0 548.8,54.0 550.0,54.0 551.2,54.0 552.4,54.0 553.6,54.0 554.8,54.0 556.0,54.0 557.1,54.0 558.3,54.0 559.5,54.0 560.7,54.0 561.9,54.0 563.1,54.0 564.3,54.0 565.5,54.0 566.6,54.0 567.8,54.0 569.0,54.0 570.2,54.0 571.4,54.0 572.6,54.0 573.8,54.0 574.9,54.0 576.1,54.0 577.3,54.0 578.5,54.0 579.7,54.0 580.9,54.0 582.1,54.0 583.3,54.0 584.4,54.0 585.6,54.0 586.8,54.0 588.0,54.0 589.2,54.0 590.4,54.0 591.6,54.0 592.7,54.0 593.9,54.0 595.1,54.0 596.3,54.0 597.5,54.0 598.7,54.0 599.9,54.0 601.1,54.0 602.2,54.0 603.4,54.0 604.6,54.0 605.8,54.0 607.0,54.0 608.2,54.0 609.4,54.0 610.5,54.0 611.7,54.0 612.9,54.0 614.1,54.0 615.3,54.0 616.5,54.0 617.7,54.0 618.9,54.0 620.0,54.0 621.2,54.0 622.4,54.0 623.6,54.0 624.8,56.9 626.0,62.4 627.2,66.1 628.3,69.6 629.5,73.0 630.7,75.7 631.9,77.9 633.1,80.2 634.3,83.0 635.5,86.6 636.7,91.3 637.8,97.5 639.0,105.5 640.2,114.5 641.4,123.6 642.6,131.7 643.8,137.8 645.0,140.7 646.1,140.2 647.3,136.7 648.5,131.8 649.7,126.8 650.9,122.2 652.1,117.9 653.3,113.7 654.5,109.1 655.6,104.0 656.8,98.4 658.0,92.2 659.2,85.2 660.4,77.4 661.6,69.2 662.8,61.0 663.9,54.0 665.1,54.0 666.3,54.0 667.5,54.0 668.7,54.0 669.9,54.0 671.1,54.0 672.3,54.0 673.4,54.0 674.6,54.0 675.8,54.0 677.0,54.0 678.2,54.0 679.4,54.0 680.6,54.0 681.7,54.0 682.9,54.0 684.1,54.0 685.3,54.0 686.5,54.7 687.7,56.6 688.9,58.1 690.1,59.0 691.2,59.2 692.4,58.2 693.6,56.3 694.8,54.0 696.0,54.0 697.2,54.0 698.4,54.0 699.5,54.0 700.7,54.0 701.9,54.0 703.1,54.0 704.3,54.0 705.5,54.0 706.7,54.0 707.9,54.0 709.0,54.0 710.2,54.0 711.4,54.0 712.6,54.0 713.8,54.0 715.0,54.0 716.2,54.0 717.3,54.0 718.5,54.0 719.7,54.0 720.9,54.0 722.1,54.0 723.3,54.0 724.5,54.0 725.7,54.0 726.8,54.0 728.0,54.0 729.2,54.0 730.4,54.0 731.6,54.0 732.8,54.0 734.0,54.0 735.1,54.0 736.3,54.0 737.5,54.0 738.7,54.0 739.9,54.0 741.1,54.0 742.3,54.0 743.5,54.0 744.6,54.0 745.8,54.0 747.0,54.0 748.2,54.0 749.4,54.0 750.6,54.0 751.8,54.0 752.9,54.0 754.1,54.0 755.3,54.0 756.5,54.0 757.7,54.0 758.9,54.0 760.1,54.0 761.3,54.0 762.4,54.0 763.6,54.0 764.8,54.0 766.0,54.0"/>
<line x1="606" y1="42" x2="628" y2="42" stroke="#0f62fe" stroke-width="2.2"/>
<text x="634" y="46" font-family="Arial" font-size="12">alpha_deg</text>
<polyline fill="none" stroke="#24a148" stroke-width="2.2" points="54.0,181.8 55.2,181.4 56.4,180.7 57.6,179.8 58.7,178.8 59.9,177.7 61.1,176.7 62.3,175.6 63.5,174.6 64.7,173.6 65.9,172.5 67.1,171.4 68.2,170.4 69.4,169.3 70.6,168.1 71.8,167.0 73.0,165.8 74.2,164.6 75.4,163.4 76.5,162.2 77.7,160.9 78.9,159.6 80.1,158.4 81.3,157.1 82.5,155.8 83.7,154.5 84.9,153.1 86.0,151.8 87.2,150.5 88.4,149.2 89.6,147.9 90.8,146.6 92.0,145.2 93.2,143.9 94.3,142.7 95.5,141.4 96.7,140.1 97.9,138.8 99.1,137.6 100.3,136.3 101.5,135.1 102.7,133.9 103.8,132.7 105.0,131.6 106.2,130.4 107.4,129.3 108.6,128.1 109.8,127.0 111.0,125.9 112.1,124.9 113.3,123.8 114.5,122.8 115.7,121.7 116.9,120.7 118.1,119.7 119.3,118.8 120.5,117.8 121.6,116.8 122.8,115.9 124.0,114.9 125.2,114.0 126.4,113.1 127.6,112.3 128.8,111.5 129.9,110.8 131.1,110.3 132.3,109.9 133.5,109.6 134.7,109.6 135.9,109.6 137.1,109.9 138.3,110.2 139.4,110.8 140.6,111.4 141.8,112.0 143.0,112.8 144.2,113.5 145.4,114.2 146.6,114.8 147.7,115.4 148.9,115.8 150.1,116.1 151.3,116.3 152.5,116.3 153.7,116.1 154.9,115.8 156.1,115.4 157.2,114.9 158.4,114.3 159.6,113.8 160.8,113.3 162.0,112.8 163.2,112.3 164.4,111.9 165.5,111.5 166.7,111.1 167.9,110.9 169.1,110.7 170.3,110.6 171.5,110.6 172.7,110.7 173.9,110.9 175.0,111.2 176.2,111.5 177.4,111.9 178.6,112.3 179.8,112.7 181.0,113.1 182.2,113.4 183.3,113.7 184.5,114.0 185.7,114.1 186.9,114.2 188.1,114.1 189.3,114.0 190.5,113.8 191.7,113.6 192.8,113.3 194.0,112.9 195.2,112.6 196.4,112.3 197.6,111.9 198.8,111.7 200.0,111.5 201.1,111.3 202.3,111.3 203.5,111.3 204.7,111.4 205.9,111.6 207.1,111.9 208.3,112.2 209.5,112.5 210.6,112.9 211.8,113.2 213.0,113.6 214.2,113.9 215.4,114.1 216.6,114.3 217.8,114.4 218.9,114.4 220.1,114.3 221.3,114.2 222.5,114.0 223.7,113.8 224.9,113.5 226.1,113.2 227.3,112.9 228.4,112.7 229.6,112.4 230.8,112.2 232.0,112.1 233.2,112.0 234.4,112.0 235.6,112.1 236.7,112.2 237.9,112.4 239.1,112.6 240.3,112.9 241.5,113.2 242.7,113.4 243.9,113.7 245.1,113.9 246.2,114.1 247.4,114.2 248.6,114.2 249.8,114.2 251.0,114.1 252.2,114.0 253.4,113.8 254.5,113.6 255.7,113.3 256.9,113.0 258.1,112.7 259.3,112.4 260.5,112.2 261.7,112.0 262.9,111.8 264.0,111.7 265.2,111.7 266.4,111.8 267.6,111.9 268.8,112.1 270.0,112.3 271.2,112.5 272.3,112.8 273.5,113.1 274.7,113.3 275.9,113.5 277.1,113.7 278.3,113.9 279.5,113.9 280.7,114.0 281.8,113.9 283.0,113.8 284.2,113.7 285.4,113.5 286.6,113.3 287.8,113.1 289.0,112.9 290.1,112.7 291.3,112.5 292.5,112.3 293.7,112.2 294.9,112.1 296.1,112.1 297.3,112.1 298.5,112.2 299.6,112.3 300.8,112.5 302.0,112.6 303.2,112.8 304.4,113.0 305.6,113.2 306.8,113.4 307.9,113.6 309.1,113.8 310.3,113.9 311.5,114.0 312.7,114.0 313.9,114.0 315.1,114.0 316.3,113.9 317.4,113.8 318.6,113.8 319.8,113.7 321.0,113.6 322.2,113.5 323.4,113.5 324.6,113.5 325.7,113.5 326.9,113.6 328.1,113.7 329.3,113.8 330.5,114.0 331.7,114.2 332.9,114.5 334.1,114.7 335.2,115.1 336.4,115.5 337.6,115.9 338.8,116.3 340.0,116.8 341.2,117.4 342.4,118.0 343.5,118.6 344.7,119.4 345.9,120.1 347.1,120.9 348.3,121.8 349.5,122.8 350.7,123.7 351.9,124.8 353.0,125.9 354.2,127.1 355.4,128.3 356.6,129.6 357.8,131.0 359.0,132.4 360.2,134.0 361.3,135.7 362.5,137.6 363.7,139.5 364.9,141.4 366.1,143.4 367.3,145.3 368.5,147.4 369.7,149.5 370.8,151.8 372.0,154.2 373.2,156.7 374.4,159.3 375.6,162.1 376.8,164.9 378.0,167.8 379.1,170.8 380.3,173.8 381.5,177.0 382.7,180.1 383.9,183.1 385.1,185.7 386.3,187.7 387.5,188.7 388.6,188.8 389.8,188.3 391.0,187.3 392.2,186.2 393.4,185.0 394.6,184.1 395.8,183.6 396.9,183.4 398.1,183.9 399.3,184.8 400.5,186.3 401.7,188.3 402.9,190.8 404.1,193.5 405.3,196.5 406.4,199.5 407.6,202.5 408.8,205.6 410.0,208.6 411.2,211.6 412.4,214.5 413.6,217.5 414.7,220.4 415.9,223.3 417.1,226.1 418.3,228.9 419.5,231.6 420.7,234.4 421.9,237.1 423.1,239.9 424.2,242.7 425.4,245.5 426.6,248.4 427.8,251.4 429.0,253.4 430.2,253.4 431.4,253.4 432.5,253.4 433.7,253.4 434.9,253.4 436.1,253.4 437.3,253.4 438.5,253.4 439.7,253.4 440.9,253.4 442.0,253.4 443.2,249.0 444.4,241.2 445.6,232.0 446.8,221.3 448.0,208.8 449.2,194.5 450.3,178.5 451.5,161.3 452.7,143.2 453.9,125.1 455.1,107.8 456.3,92.5 457.5,80.2 458.7,72.0 459.8,69.3 461.0,70.0 462.2,75.8 463.4,85.5 464.6,98.5 465.8,113.5 467.0,129.5 468.1,145.6 469.3,160.9 470.5,175.0 471.7,187.2 472.9,197.1 474.1,204.4 475.3,209.0 476.5,210.9 477.6,210.3 478.8,207.8 480.0,203.8 481.2,198.7 482.4,192.6 483.6,185.9 484.8,178.5 485.9,170.6 487.1,162.3 488.3,153.8 489.5,145.4 490.7,137.7 491.9,131.2 493.1,126.9 494.3,124.7 495.4,124.6 496.6,126.4 497.8,129.5 499.0,133.3 500.2,137.1 501.4,140.2 502.6,142.1 503.7,142.7 504.9,142.2 506.1,140.8 507.3,138.5 508.5,135.6 509.7,132.6 510.9,129.8 512.1,127.7 513.2,126.2 514.4,125.2 515.6,124.4 516.8,123.7 518.0,122.8 519.2,121.5 520.4,119.5 521.5,116.7 522.7,113.1 523.9,109.0 525.1,104.5 526.3,99.9 527.5,95.4 528.7,91.5 529.9,88.3 531.0,86.2 532.2,85.4 533.4,86.1 534.6,88.3 535.8,91.5 537.0,95.6 538.2,100.2 539.3,105.0 540.5,109.7 541.7,113.9 542.9,117.6 544.1,121.0 545.3,124.2 546.5,127.1 547.7,129.5 548.8,131.4 550.0,132.6 551.2,133.6 552.4,134.8 553.6,136.6 554.8,139.3 556.0,142.8 557.1,146.9 558.3,151.5 559.5,156.2 560.7,160.9 561.9,165.3 563.1,169.2 564.3,172.5 565.5,175.1 566.6,177.3 567.8,179.3 569.0,181.5 570.2,184.0 571.4,186.6 572.6,189.0 573.8,191.4 574.9,193.6 576.1,195.8 577.3,198.0 578.5,200.1 579.7,202.2 580.9,204.2 582.1,206.2 583.3,208.1 584.4,210.0 585.6,211.8 586.8,213.6 588.0,215.4 589.2,217.2 590.4,219.0 591.6,220.8 592.7,222.8 593.9,224.9 595.1,227.1 596.3,229.7 597.5,232.5 598.7,235.6 599.9,239.3 601.1,243.4 602.2,248.2 603.4,253.4 604.6,253.4 605.8,253.4 607.0,253.4 608.2,253.4 609.4,253.4 610.5,253.4 611.7,253.4 612.9,253.4 614.1,253.4 615.3,253.4 616.5,253.4 617.7,253.4 618.9,253.4 620.0,253.4 621.2,253.4 622.4,253.4 623.6,253.4 624.8,253.4 626.0,253.4 627.2,230.0 628.3,202.2 629.5,174.2 630.7,146.7 631.9,120.6 633.1,96.3 634.3,74.4 635.5,69.3 636.7,69.3 637.8,69.3 639.0,69.3 640.2,69.3 641.4,69.3 642.6,69.3 643.8,69.3 645.0,69.3 646.1,69.3 647.3,69.3 648.5,69.3 649.7,69.3 650.9,69.3 652.1,77.5 653.3,97.8 654.5,118.9 655.6,140.0 656.8,160.6 658.0,179.9 659.2,197.5 660.4,212.8 661.6,225.7 662.8,236.0 663.9,243.8 665.1,249.3 666.3,252.4 667.5,253.4 668.7,252.2 669.9,248.9 671.1,243.6 672.3,236.2 673.4,227.0 674.6,216.0 675.8,203.6 677.0,190.2 678.2,176.1 679.4,161.7 680.6,147.4 681.7,133.6 682.9,120.7 684.1,109.1 685.3,99.2 686.5,91.2 687.7,85.0 688.9,80.8 690.1,78.6 691.2,78.4 692.4,80.1 693.6,83.6 694.8,88.5 696.0,94.7 697.2,101.9 698.4,109.6 699.5,117.6 700.7,125.6 701.9,133.3 703.1,140.3 704.3,146.7 705.5,152.3 706.7,157.0 707.9,160.8 709.0,163.8 710.2,165.8 711.4,167.0 712.6,167.4 713.8,167.1 715.0,166.1 716.2,164.5 717.3,162.5 718.5,160.1 719.7,157.6 720.9,154.8 722.1,152.0 723.3,149.2 724.5,146.4 725.7,143.6 726.8,140.9 728.0,138.2 729.2,135.5 730.4,132.8 731.6,130.2 732.8,127.5 734.0,124.8 735.1,122.0 736.3,119.3 737.5,116.5 738.7,113.7 739.9,110.9 741.1,108.0 742.3,105.2 743.5,102.3 744.6,99.4 745.8,96.5 747.0,93.7 748.2,90.9 749.4,88.1 750.6,85.4 751.8,82.7 752.9,80.1 754.1,77.5 755.3,75.0 756.5,72.6 757.7,70.1 758.9,69.3 760.1,69.3 761.3,69.3 762.4,69.3 763.6,69.3 764.8,69.3 766.0,69.3"/>
<line x1="606" y1="60" x2="628" y2="60" stroke="#24a148" stroke-width="2.2"/>
<text x="634" y="64" font-family="Arial" font-size="12">beta_deg</text>
</svg>