<svg xmlns="http://www.w3.org/2000/svg" width="820" height="320" viewBox="0 0 820 320">
<rect width="100%" height="100%" fill="#ffffff"/>
<text x="54" y="28" font-family="Arial" font-size="18" font-weight="700">Mach Number</text>
<line x1="54" y1="266" x2="766" y2="266" stroke="#1f2933"/>
<line x1="54" y1="54" x2="54" y2="266" stroke="#1f2933"/>
<text x="54" y="306" font-family="Arial" font-size="12">time (s)</text>
<text x="596" y="306" font-family="Arial" font-size="12">Mach</text>
<text x="58" y="68" font-family="Arial" font-size="11">0.453</text>
<text x="58" y="260" font-family="Arial" font-size="11">0.239</text>
<polyline fill="none" stroke="#0f62fe" stroke-width="2.2" points="54.0,235.0 55.2,233.7 56.4,232.4 57.6,231.0 58.7,229.6 59.9,228.2 61.1,226.7 62.3,225.2 63.5,223.6 64.7,222.0 65.9,220.4 67.1,218.7 68.2,217.1 69.4,215.3 70.6,213.6 71.8,211.8 73.0,210.0 74.2,208.2 75.4,206.4 76.5,204.6 77.7,202.8 78.9,201.0 80.1,199.2 81.3,197.4 82.5,195.6 83.7,193.7 84.9,191.9 86.0,190.1 87.2,188.3 88.4,186.4 89.6,184.6 90.8,182.8 92.0,181.0 93.2,179.1 94.3,177.3 95.5,175.5 96.7,173.7 97.9,171.9 99.1,170.1 100.3,168.3 101.5,166.6 102.7,164.8 103.8,163.1 105.0,161.4 106.2,159.6 107.4,157.9 108.6,156.3 109.8,154.6 111.0,152.9 112.1,151.3 113.3,149.7 114.5,148.1 115.7,146.6 116.9,145.0 118.1,143.5 119.3,142.0 120.5,140.5 121.6,139.1 122.8,137.7 124.0,136.3 125.2,134.9 126.4,133.5 127.6,132.2 128.8,130.9 129.9,129.6 131.1,128.3 132.3,127.1 133.5,125.9 134.7,124.7 135.9,123.5 137.1,122.3 138.3,121.2 139.4,120.0 140.6,118.8 141.8,117.7 143.0,116.5 144.2,115.4 145.4,114.2 146.6,113.1 147.7,111.9 148.9,110.7 150.1,109.6 151.3,108.4 152.5,107.3 153.7,106.1 154.9,105.0 156.1,103.8 157.2,102.7 158.4,101.6 159.6,100.5 160.8,99.4 162.0,98.3 163.2,97.2 164.4,96.2 165.5,95.1 166.7,94.1 167.9,93.0 169.1,92.0 170.3,91.0 171.5,90.0 172.7,89.0 173.9,88.0 175.0,87.0 176.2,86.0 177.4,85.0 178.6,84.0 179.8,83.1 181.0,82.1 182.2,81.1 183.3,80.2 184.5,79.2 185.7,78.3 186.9,77.3 188.1,76.4 189.3,75.5 190.5,74.7 191.7,73.8 192.8,73.0 194.0,72.2 195.2,71.4 196.4,70.7 197.6,70.0 198.8,69.3 200.0,68.7 201.1,68.1 202.3,67.5 203.5,66.9 204.7,66.3 205.9,65.8 207.1,65.3 208.3,64.8 209.5,64.2 210.6,63.7 211.8,63.3 213.0,62.8 214.2,62.3 215.4,61.8 216.6,61.3 217.8,60.9 218.9,60.4 220.1,60.0 221.3,59.6 222.5,59.2 223.7,58.8 224.9,58.5 226.1,58.2 227.3,57.9 228.4,57.6 229.6,57.4 230.8,57.1 232.0,56.9 233.2,56.8 234.4,56.6 235.6,56.4 236.7,56.3 237.9,56.1 239.1,56.0 240.3,55.8 241.5,55.7 242.7,55.5 243.9,55.3 245.1,55.2 246.2,55.0 247.4,54.8 248.6,54.6 249.8,54.5 251.0,54.3 252.2,54.2 253.4,54.0 254.5,54.0 255.7,54.0 256.9,54.1 258.1,54.2 259.3,54.4 260.5,54.7 261.7,55.0 262.9,55.3 264.0,55.8 265.2,56.2 266.4,56.7 267.6,57.2 268.8,57.7 270.0,58.3 271.2,58.9 272.3,59.4 273.5,60.0 274.7,60.6 275.9,61.1 277.1,61.7 278.3,62.3 279.5,62.9 280.7,63.4 281.8,64.0 283.0,64.6 284.2,65.1 285.4,65.7 286.6,66.3 287.8,66.8 289.0,67.3 290.1,67.8 291.3,68.3 292.5,68.8 293.7,69.2 294.9,69.7 296.1,70.1 297.3,70.5 298.5,70.9 299.6,71.3 300.8,71.7 302.0,72.1 303.2,72.5 304.4,72.9 305.6,73.3 306.8,73.7 307.9,74.1 309.1,74.5 310.3,75.0 311.5,75.5 312.7,76.0 313.9,76.5 315.1,77.1 316.3,77.7 317.4,78.4 318.6,79.1 319.8,79.9 321.0,80.8 322.2,81.7 323.4,82.7 324.6,83.8 325.7,84.9 326.9,86.2 328.1,87.5 329.3,88.8 330.5,90.3 331.7,91.8 332.9,93.4 334.1,94.9 335.2,96.5 336.4,98.1 337.6,99.7 338.8,101.3 340.0,102.9 341.2,104.5 342.4,106.2 343.5,107.8 344.7,109.5 345.9,111.2 347.1,112.9 348.3,114.6 349.5,116.3 350.7,118.1 351.9,119.8 353.0,121.6 354.2,123.3 355.4,125.1 356.6,126.8 357.8,128.6 359.0,130.3 360.2,132.1 361.3,133.9 362.5,135.7 363.7,137.5 364.9,139.3 366.1,141.1 367.3,142.8 368.5,144.5 369.7,146.1 370.8,147.5 372.0,148.8 373.2,150.1 374.4,151.2 375.6,152.2 376.8,153.1 378.0,153.8 379.1,154.5 380.3,155.1 381.5,155.6 382.7,155.9 383.9,156.2 385.1,156.3 386.3,156.4 387.5,156.3 388.6,156.1 389.8,155.9 391.0,155.7 392.2,155.6 393.4,155.5 394.6,155.6 395.8,155.7 396.9,155.9 398.1,156.2 399.3,156.6 400.5,157.1 401.7,157.7 402.9,158.3 404.1,159.1 405.3,160.0 406.4,161.0 407.6,162.1 408.8,163.2 410.0,164.5 411.2,165.9 412.4,167.3 413.6,168.8 414.7,170.3 415.9,172.0 417.1,173.7 418.3,175.5 419.5,177.5 420.7,179.4 421.9,181.5 423.1,183.6 424.2,185.8 425.4,188.0 426.6,190.3 427.8,192.6 429.0,194.8 430.2,197.1 431.4,199.4 432.5,201.6 433.7,203.7 434.9,205.8 436.1,207.8 437.3,209.7 438.5,211.5 439.7,213.2 440.9,214.7 442.0,216.1 443.2,217.4 444.4,218.4 445.6,219.4 446.8,220.1 448.0,220.7 449.2,221.1 450.3,221.3 451.5,221.4 452.7,221.2 453.9,220.9 455.1,220.5 456.3,219.9 457.5,219.2 458.7,218.1 459.8,216.7 461.0,215.3 462.2,214.3 463.4,213.3 464.6,212.3 465.8,211.3 467.0,210.1 468.1,208.9 469.3,207.6 470.5,206.2 471.7,204.8 472.9,203.2 474.1,201.6 475.3,199.8 476.5,197.8 477.6,195.4 478.8,192.8 480.0,190.3 481.2,187.9 482.4,185.8 483.6,183.7 484.8,181.7 485.9,179.8 487.1,177.8 488.3,175.8 489.5,173.5 490.7,171.1 491.9,168.4 493.1,165.6 494.3,162.7 495.4,159.8 496.6,156.9 497.8,154.0 499.0,151.1 500.2,148.3 501.4,145.5 502.6,143.0 503.7,140.8 504.9,138.9 506.1,137.2 507.3,135.7 508.5,134.4 509.7,133.3 510.9,132.3 512.1,131.5 513.2,130.7 514.4,130.0 515.6,129.4 516.8,129.0 518.0,128.6 519.2,128.3 520.4,128.2 521.5,128.1 522.7,128.2 523.9,128.3 525.1,128.6 526.3,129.0 527.5,129.5 528.7,130.1 529.9,130.8 531.0,131.6 532.2,132.4 533.4,133.3 534.6,134.2 535.8,135.2 537.0,136.1 538.2,137.0 539.3,138.0 540.5,138.9 541.7,139.8 542.9,140.7 544.1,141.6 545.3,142.6 546.5,143.5 547.7,144.4 548.8,145.4 550.0,146.4 551.2,147.4 552.4,148.4 553.6,149.4 554.8,150.5 556.0,151.6 557.1,152.7 558.3,153.8 559.5,154.9 560.7,156.0 561.9,157.1 563.1,158.3 564.3,159.4 565.5,160.6 566.6,161.8 567.8,163.0 569.0,164.1 570.2,165.8 571.4,167.4 572.6,168.9 573.8,170.4 574.9,171.8 576.1,173.2 577.3,174.5 578.5,175.8 579.7,177.0 580.9,178.2 582.1,179.3 583.3,180.4 584.4,181.4 585.6,182.4 586.8,183.3 588.0,184.2 589.2,185.0 590.4,185.8 591.6,186.6 592.7,187.3 593.9,188.0 595.1,188.7 596.3,189.3 597.5,189.9 598.7,190.5 599.9,191.0 601.1,191.6 602.2,192.2 603.4,192.7 604.6,193.3 605.8,193.8 607.0,194.4 608.2,194.9 609.4,195.5 610.5,196.0 611.7,196.6 612.9,197.1 614.1,197.7 615.3,198.3 616.5,198.9 617.7,199.5 618.9,200.2 620.0,200.8 621.2,201.4 622.4,202.1 623.6,202.8 624.8,203.4 626.0,204.1 627.2,204.7 628.3,205.3 629.5,205.8 630.7,206.3 631.9,206.9 633.1,207.6 634.3,208.4 635.5,209.4 636.7,210.5 637.8,211.6 639.0,212.8 640.2,214.0 641.4,215.0 642.6,215.8 643.8,216.6 645.0,217.3 646.1,217.9 647.3,218.6 648.5,219.3 649.7,220.0 650.9,220.7 652.1,221.5 653.3,222.2 654.5,223.0 655.6,223.8 656.8,224.6 658.0,225.5 659.2,226.5 660.4,227.5 661.6,228.6 662.8,229.8 663.9,231.0 665.1,232.3 666.3,233.5 667.5,234.8 668.7,236.1 669.9,237.3 671.1,238.4 672.3,239.5 673.4,240.5 674.6,241.5 675.8,242.3 677.0,243.1 678.2,243.8 679.4,244.4 680.6,245.0 681.7,245.6 682.9,246.1 684.1,246.7 685.3,247.2 686.5,247.8 687.7,248.3 688.9,248.8 690.1,249.2 691.2,249.7 692.4,250.0 693.6,250.4 694.8,250.7 696.0,250.9 697.2,251.1 698.4,251.2 699.5,251.3 700.7,251.3 701.9,251.3 703.1,251.3 704.3,251.2 705.5,251.2 706.7,251.1 707.9,251.0 709.0,251.0 710.2,250.9 711.4,250.8 712.6,250.8 713.8,250.7 715.0,250.7 716.2,250.6 717.3,250.6 718.5,250.6 719.7,250.5 720.9,250.5 722.1,250.5 723.3,250.5 724.5,250.5 725.7,250.5 726.8,250.5 728.0,250.6 729.2,250.6 730.4,250.7 731.6,250.8 732.8,251.0 734.0,251.1 735.1,251.3 736.3,251.5 737.5,251.8 738.7,252.0 739.9,252.3 741.1,252.7 742.3,253.0 743.5,253.4 744.6,253.8 745.8,254.3 747.0,254.8 748.2,255.3 749.4,255.8 750.6,256.4 751.8,257.0 752.9,257.6 754.1,258.3 755.3,259.0 756.5,259.7 757.7,260.4 758.9,261.2 760.1,262.0 761.3,262.8 762.4,263.6 763.6,264.4 764.8,265.2 766.0,266.0"/>
<line x1="606" y1="42" x2="628" y2="42" stroke="#0f62fe" stroke-width="2.2"/>
<text x="634" y="46" font-family="Arial" font-size="12">mach</text>
</svg>