<svg xmlns="http://www.w3.org/2000/svg" width="820" height="320" viewBox="0 0 820 320">
<rect width="100%" height="100%" fill="#ffffff"/>
<text x="54" y="28" font-family="Arial" font-size="18" font-weight="700">Dynamic Pressure</text>
<line x1="54" y1="266" x2="766" y2="266" stroke="#1f2933"/>
<line x1="54" y1="54" x2="54" y2="266" stroke="#1f2933"/>
<text x="54" y="306" font-family="Arial" font-size="12">time (s)</text>
<text x="596" y="306" font-family="Arial" font-size="12">qbar (Pa)</text>
<text x="58" y="68" font-family="Arial" font-size="11">1.27e+04</text>
<text x="58" y="260" font-family="Arial" font-size="11">3.75e+03</text>
<polyline fill="none" stroke="#0f62fe" stroke-width="2.2" points="54.0,245.8 55.2,244.8 56.4,243.7 57.6,242.6 58.7,241.5 59.9,240.3 61.1,239.0 62.3,237.8 63.5,236.5 64.7,235.1 65.9,233.8 67.1,232.4 68.2,230.9 69.4,229.4 70.6,227.9 71.8,226.4 73.0,224.8 74.2,223.2 75.4,221.6 76.5,220.0 77.7,218.4 78.9,216.8 80.1,215.1 81.3,213.5 82.5,211.8 83.7,210.1 84.9,208.4 86.0,206.7 87.2,205.0 88.4,203.3 89.6,201.5 90.8,199.8 92.0,198.0 93.2,196.2 94.3,194.5 95.5,192.7 96.7,190.9 97.9,189.2 99.1,187.4 100.3,185.6 101.5,183.8 102.7,182.0 103.8,180.3 105.0,178.5 106.2,176.8 107.4,175.0 108.6,173.3 109.8,171.5 111.0,169.8 112.1,168.1 113.3,166.4 114.5,164.7 115.7,163.1 116.9,161.4 118.1,159.8 119.3,158.2 120.5,156.6 121.6,155.0 122.8,153.5 124.0,151.9 125.2,150.4 126.4,148.9 127.6,147.5 128.8,146.0 129.9,144.6 131.1,143.2 132.3,141.8 133.5,140.4 134.7,139.1 135.9,137.7 137.1,136.4 138.3,135.1 139.4,133.8 140.6,132.5 141.8,131.1 143.0,129.8 144.2,128.5 145.4,127.1 146.6,125.8 147.7,124.5 148.9,123.1 150.1,121.8 151.3,120.4 152.5,119.0 153.7,117.7 154.9,116.3 156.1,115.0 157.2,113.7 158.4,112.3 159.6,111.0 160.8,109.7 162.0,108.4 163.2,107.1 164.4,105.8 165.5,104.6 166.7,103.3 167.9,102.1 169.1,100.8 170.3,99.6 171.5,98.3 172.7,97.1 173.9,95.9 175.0,94.7 176.2,93.5 177.4,92.3 178.6,91.1 179.8,89.9 181.0,88.7 182.2,87.5 183.3,86.3 184.5,85.1 185.7,83.9 186.9,82.8 188.1,81.6 189.3,80.5 190.5,79.4 191.7,78.3 192.8,77.3 194.0,76.3 195.2,75.3 196.4,74.4 197.6,73.5 198.8,72.7 200.0,71.9 201.1,71.1 202.3,70.4 203.5,69.6 204.7,68.9 205.9,68.3 207.1,67.6 208.3,67.0 209.5,66.3 210.6,65.7 211.8,65.1 213.0,64.5 214.2,63.8 215.4,63.3 216.6,62.7 217.8,62.1 218.9,61.5 220.1,61.0 221.3,60.5 222.5,60.0 223.7,59.5 224.9,59.1 226.1,58.7 227.3,58.4 228.4,58.0 229.6,57.8 230.8,57.5 232.0,57.3 233.2,57.0 234.4,56.9 235.6,56.7 236.7,56.5 237.9,56.3 239.1,56.2 240.3,56.0 241.5,55.8 242.7,55.6 243.9,55.5 245.1,55.3 246.2,55.1 247.4,54.9 248.6,54.7 249.8,54.5 251.0,54.3 252.2,54.1 253.4,54.0 254.5,54.0 255.7,54.1 256.9,54.2 258.1,54.4 259.3,54.7 260.5,55.1 261.7,55.5 262.9,56.0 264.0,56.6 265.2,57.3 266.4,57.9 267.6,58.7 268.8,59.4 270.0,60.2 271.2,61.0 272.3,61.7 273.5,62.5 274.7,63.3 275.9,64.1 277.1,64.9 278.3,65.7 279.5,66.5 280.7,67.2 281.8,68.0 283.0,68.8 284.2,69.6 285.4,70.3 286.6,71.1 287.8,71.8 289.0,72.5 290.1,73.2 291.3,73.9 292.5,74.5 293.7,75.1 294.9,75.7 296.1,76.3 297.3,76.9 298.5,77.4 299.6,78.0 300.8,78.5 302.0,79.1 303.2,79.6 304.4,80.1 305.6,80.6 306.8,81.2 307.9,81.7 309.1,82.3 310.3,82.9 311.5,83.5 312.7,84.2 313.9,84.9 315.1,85.7 316.3,86.5 317.4,87.4 318.6,88.3 319.8,89.3 321.0,90.4 322.2,91.6 323.4,92.9 324.6,94.2 325.7,95.7 326.9,97.2 328.1,98.8 329.3,100.6 330.5,102.4 331.7,104.2 332.9,106.1 334.1,108.0 335.2,109.9 336.4,111.8 337.6,113.8 338.8,115.7 340.0,117.6 341.2,119.6 342.4,121.5 343.5,123.5 344.7,125.4 345.9,127.4 347.1,129.4 348.3,131.4 349.5,133.4 350.7,135.3 351.9,137.3 353.0,139.3 354.2,141.3 355.4,143.3 356.6,145.2 357.8,147.2 359.0,149.1 360.2,151.1 361.3,153.0 362.5,155.0 363.7,156.9 364.9,158.8 366.1,160.8 367.3,162.6 368.5,164.4 369.7,166.1 370.8,167.6 372.0,169.0 373.2,170.3 374.4,171.4 375.6,172.5 376.8,173.4 378.0,174.2 379.1,174.9 380.3,175.5 381.5,176.0 382.7,176.4 383.9,176.6 385.1,176.8 386.3,176.8 387.5,176.7 388.6,176.6 389.8,176.4 391.0,176.2 392.2,176.0 393.4,176.0 394.6,176.0 395.8,176.2 396.9,176.4 398.1,176.7 399.3,177.1 400.5,177.6 401.7,178.2 402.9,178.8 404.1,179.6 405.3,180.5 406.4,181.5 407.6,182.6 408.8,183.8 410.0,185.1 411.2,186.4 412.4,187.8 413.6,189.3 414.7,190.8 415.9,192.4 417.1,194.1 418.3,195.9 419.5,197.7 420.7,199.6 421.9,201.6 423.1,203.6 424.2,205.6 425.4,207.7 426.6,209.7 427.8,211.8 429.0,213.9 430.2,216.0 431.4,218.0 432.5,220.0 433.7,221.9 434.9,223.7 436.1,225.4 437.3,227.1 438.5,228.6 439.7,230.0 440.9,231.3 442.0,232.5 443.2,233.5 444.4,234.4 445.6,235.2 446.8,235.8 448.0,236.3 449.2,236.6 450.3,236.8 451.5,236.8 452.7,236.7 453.9,236.4 455.1,236.0 456.3,235.6 457.5,235.0 458.7,234.0 459.8,232.8 461.0,231.6 462.2,230.7 463.4,229.9 464.6,229.0 465.8,228.1 467.0,227.1 468.1,226.0 469.3,224.9 470.5,223.7 471.7,222.4 472.9,221.0 474.1,219.5 475.3,217.9 476.5,216.1 477.6,213.8 478.8,211.4 480.0,209.1 481.2,206.9 482.4,204.9 483.6,203.0 484.8,201.1 485.9,199.2 487.1,197.3 488.3,195.2 489.5,193.0 490.7,190.6 491.9,187.9 493.1,185.1 494.3,182.2 495.4,179.2 496.6,176.2 497.8,173.3 499.0,170.2 500.2,167.2 501.4,164.2 502.6,161.5 503.7,159.1 504.9,157.1 506.1,155.2 507.3,153.6 508.5,152.1 509.7,150.9 510.9,149.7 512.1,148.7 513.2,147.8 514.4,147.0 515.6,146.4 516.8,145.8 518.0,145.4 519.2,145.0 520.4,144.8 521.5,144.7 522.7,144.7 523.9,144.9 525.1,145.1 526.3,145.5 527.5,146.0 528.7,146.7 529.9,147.4 531.0,148.2 532.2,149.1 533.4,150.0 534.6,151.0 535.8,152.0 537.0,153.0 538.2,154.0 539.3,154.9 540.5,155.9 541.7,156.8 542.9,157.8 544.1,158.7 545.3,159.7 546.5,160.6 547.7,161.6 548.8,162.6 550.0,163.6 551.2,164.6 552.4,165.6 553.6,166.7 554.8,167.8 556.0,168.8 557.1,169.9 558.3,171.1 559.5,172.2 560.7,173.3 561.9,174.4 563.1,175.6 564.3,176.7 565.5,177.8 566.6,179.0 567.8,180.2 569.0,181.3 570.2,182.9 571.4,184.5 572.6,186.0 573.8,187.4 574.9,188.8 576.1,190.2 577.3,191.4 578.5,192.6 579.7,193.8 580.9,194.9 582.1,196.0 583.3,197.0 584.4,197.9 585.6,198.8 586.8,199.7 588.0,200.5 589.2,201.2 590.4,201.9 591.6,202.6 592.7,203.3 593.9,203.9 595.1,204.5 596.3,205.0 597.5,205.6 598.7,206.1 599.9,206.6 601.1,207.1 602.2,207.5 603.4,208.0 604.6,208.5 605.8,209.0 607.0,209.5 608.2,209.9 609.4,210.4 610.5,210.9 611.7,211.4 612.9,211.9 614.1,212.4 615.3,212.9 616.5,213.4 617.7,213.9 618.9,214.5 620.0,215.0 621.2,215.6 622.4,216.1 623.6,216.7 624.8,217.3 626.0,217.8 627.2,218.4 628.3,218.9 629.5,219.3 630.7,219.7 631.9,220.2 633.1,220.8 634.3,221.5 635.5,222.4 636.7,223.3 637.8,224.3 639.0,225.3 640.2,226.3 641.4,227.2 642.6,227.9 643.8,228.5 645.0,229.1 646.1,229.7 647.3,230.2 648.5,230.8 649.7,231.3 650.9,231.9 652.1,232.6 653.3,233.2 654.5,233.8 655.6,234.5 656.8,235.2 658.0,235.9 659.2,236.7 660.4,237.6 661.6,238.5 662.8,239.4 663.9,240.4 665.1,241.4 666.3,242.5 667.5,243.5 668.7,244.5 669.9,245.5 671.1,246.4 672.3,247.2 673.4,248.0 674.6,248.7 675.8,249.4 677.0,250.0 678.2,250.5 679.4,251.0 680.6,251.5 681.7,251.9 682.9,252.3 684.1,252.7 685.3,253.1 686.5,253.5 687.7,253.9 688.9,254.3 690.1,254.6 691.2,254.9 692.4,255.2 693.6,255.4 694.8,255.6 696.0,255.8 697.2,255.9 698.4,256.0 699.5,256.0 700.7,256.0 701.9,256.0 703.1,255.9 704.3,255.9 705.5,255.8 706.7,255.7 707.9,255.7 709.0,255.6 710.2,255.5 711.4,255.4 712.6,255.4 713.8,255.3 715.0,255.2 716.2,255.2 717.3,255.1 718.5,255.1 719.7,255.0 720.9,255.0 722.1,255.0 723.3,254.9 724.5,254.9 725.7,254.9 726.8,254.9 728.0,254.9 729.2,254.9 730.4,255.0 731.6,255.1 732.8,255.1 734.0,255.2 735.1,255.4 736.3,255.5 737.5,255.7 738.7,255.9 739.9,256.1 741.1,256.3 742.3,256.5 743.5,256.8 744.6,257.1 745.8,257.5 747.0,257.8 748.2,258.2 749.4,258.6 750.6,259.0 751.8,259.4 752.9,259.9 754.1,260.4 755.3,260.9 756.5,261.4 757.7,262.0 758.9,262.5 760.1,263.1 761.3,263.7 762.4,264.2 763.6,264.8 764.8,265.4 766.0,266.0"/>
<line x1="606" y1="42" x2="628" y2="42" stroke="#0f62fe" stroke-width="2.2"/>
<text x="634" y="46" font-family="Arial" font-size="12">qbar_pa</text>
</svg>