<svg xmlns="http://www.w3.org/2000/svg" width="820" height="320" viewBox="0 0 820 320">
<rect width="100%" height="100%" fill="#ffffff"/>
<text x="54" y="28" font-family="Arial" font-size="18" font-weight="700">Load Factor</text>
<line x1="54" y1="266" x2="766" y2="266" stroke="#1f2933"/>
<line x1="54" y1="54" x2="54" y2="266" stroke="#1f2933"/>
<text x="54" y="306" font-family="Arial" font-size="12">time (s)</text>
<text x="596" y="306" font-family="Arial" font-size="12">g</text>
<text x="58" y="68" font-family="Arial" font-size="11">3.65</text>
<text x="58" y="260" font-family="Arial" font-size="11">1.19</text>
<polyline fill="none" stroke="#0f62fe" stroke-width="2.2" points="54.0,213.7 55.2,210.8 56.4,208.7 57.6,206.4 58.7,203.9 59.9,201.3 61.1,198.7 62.3,195.9 63.5,193.2 64.7,190.4 65.9,187.6 67.1,184.8 68.2,182.0 69.4,179.2 70.6,178.3 71.8,178.3 73.0,178.3 74.2,178.3 75.4,178.4 76.5,178.4 77.7,178.3 78.9,178.3 80.1,178.3 81.3,178.3 82.5,178.2 83.7,178.2 84.9,178.1 86.0,178.0 87.2,178.0 88.4,177.9 89.6,177.8 90.8,177.6 92.0,177.5 93.2,177.4 94.3,177.2 95.5,177.1 96.7,176.9 97.9,176.7 99.1,176.5 100.3,176.2 101.5,176.0 102.7,175.7 103.8,175.4 105.0,175.1 106.2,174.8 107.4,174.5 108.6,174.1 109.8,173.7 111.0,173.3 112.1,172.9 113.3,172.4 114.5,172.0 115.7,171.5 116.9,170.9 118.1,170.4 119.3,169.8 120.5,169.2 121.6,168.6 122.8,167.9 124.0,167.2 125.2,166.4 126.4,165.6 127.6,164.8 128.8,163.9 129.9,163.0 131.1,162.2 132.3,161.4 133.5,160.7 134.7,160.0 135.9,159.5 137.1,159.0 138.3,158.6 139.4,158.3 140.6,158.1 141.8,158.0 143.0,157.9 144.2,157.7 145.4,157.6 146.6,157.4 147.7,157.1 148.9,156.8 150.1,156.3 151.3,155.6 152.5,154.8 153.7,153.9 154.9,152.7 156.1,151.4 157.2,149.8 158.4,148.3 159.6,146.8 160.8,145.4 162.0,144.0 163.2,142.6 164.4,141.1 165.5,139.6 166.7,138.2 167.9,136.8 169.1,135.9 170.3,135.1 171.5,134.5 172.7,133.9 173.9,133.3 175.0,132.8 176.2,132.3 177.4,131.8 178.6,131.4 179.8,130.9 181.0,130.5 182.2,130.0 183.3,129.4 184.5,128.8 185.7,128.1 186.9,127.4 188.1,126.5 189.3,125.6 190.5,124.5 191.7,123.4 192.8,122.2 194.0,121.0 195.2,119.7 196.4,118.4 197.6,117.0 198.8,115.8 200.0,114.6 201.1,113.4 202.3,112.4 203.5,111.5 204.7,110.7 205.9,110.1 207.1,109.5 208.3,109.0 209.5,108.6 210.6,108.3 211.8,107.9 213.0,107.5 214.2,107.0 215.4,106.5 216.6,105.9 217.8,105.1 218.9,104.2 220.1,103.2 221.3,102.0 222.5,100.7 223.7,99.3 224.9,97.7 226.1,96.2 227.3,94.6 228.4,93.0 229.6,91.4 230.8,90.0 232.0,88.6 233.2,87.4 234.4,86.4 235.6,85.5 236.7,84.8 237.9,84.3 239.1,83.8 240.3,83.4 241.5,83.0 242.7,82.6 243.9,82.1 245.1,81.5 246.2,80.8 247.4,79.9 248.6,78.8 249.8,77.5 251.0,76.0 252.2,74.2 253.4,72.2 254.5,70.1 255.7,67.8 256.9,65.4 258.1,62.8 259.3,60.7 260.5,58.9 261.7,56.8 262.9,55.2 264.0,54.4 265.2,54.1 266.4,54.0 267.6,54.1 268.8,54.3 270.0,54.6 271.2,55.0 272.3,55.5 273.5,55.9 274.7,56.4 275.9,56.8 277.1,57.1 278.3,57.3 279.5,57.4 280.7,57.3 281.8,57.2 283.0,56.9 284.2,57.3 285.4,58.8 286.6,60.3 287.8,61.9 289.0,63.5 290.1,65.2 291.3,66.9 292.5,68.6 293.7,70.3 294.9,72.0 296.1,73.7 297.3,75.3 298.5,77.0 299.6,78.7 300.8,80.3 302.0,81.9 303.2,83.6 304.4,85.3 305.6,87.0 306.8,88.6 307.9,90.5 309.1,92.3 310.3,94.2 311.5,96.2 312.7,98.3 313.9,100.6 315.1,102.9 316.3,105.3 317.4,107.8 318.6,110.4 319.8,113.1 321.0,112.7 322.2,110.8 323.4,109.0 324.6,107.3 325.7,105.7 326.9,104.1 328.1,102.6 329.3,101.1 330.5,99.6 331.7,98.2 332.9,96.8 334.1,95.4 335.2,94.0 336.4,92.6 337.6,91.0 338.8,89.5 340.0,87.8 341.2,86.2 342.4,84.5 343.5,82.7 344.7,80.7 345.9,78.9 347.1,77.3 348.3,75.8 349.5,74.3 350.7,72.9 351.9,71.6 353.0,70.4 354.2,69.2 355.4,68.0 356.6,67.0 357.8,65.6 359.0,64.3 360.2,63.2 361.3,62.2 362.5,61.3 363.7,59.4 364.9,58.3 366.1,59.2 367.3,61.9 368.5,65.7 369.7,70.0 370.8,74.1 372.0,78.0 373.2,81.6 374.4,85.1 375.6,88.5 376.8,92.1 378.0,95.9 379.1,99.8 380.3,103.9 381.5,108.2 382.7,112.2 383.9,116.6 385.1,121.4 386.3,126.1 387.5,131.6 388.6,135.6 389.8,137.4 391.0,135.7 392.2,132.1 393.4,128.8 394.6,126.4 395.8,124.6 396.9,122.9 398.1,121.1 399.3,119.2 400.5,117.1 401.7,115.0 402.9,112.9 404.1,110.6 405.3,107.8 406.4,105.3 407.6,103.5 408.8,102.5 410.0,101.9 411.2,101.5 412.4,101.0 413.6,100.2 414.7,99.1 415.9,97.5 417.1,95.9 418.3,94.6 419.5,93.5 420.7,92.8 421.9,92.2 423.1,91.9 424.2,91.8 425.4,91.9 426.6,92.2 427.8,92.8 429.0,93.9 430.2,95.7 431.4,97.9 432.5,100.3 433.7,102.9 434.9,105.7 436.1,108.8 437.3,112.0 438.5,115.4 439.7,118.9 440.9,122.4 442.0,126.0 443.2,130.5 444.4,134.4 445.6,138.3 446.8,142.4 448.0,146.7 449.2,150.8 450.3,154.3 451.5,156.7 452.7,158.7 453.9,160.2 455.1,149.7 456.3,136.5 457.5,137.6 458.7,146.3 459.8,141.7 461.0,127.6 462.2,131.5 463.4,139.9 464.6,148.0 465.8,154.5 467.0,158.6 468.1,159.4 469.3,157.8 470.5,154.1 471.7,148.3 472.9,140.8 474.1,132.4 475.3,140.5 476.5,152.9 477.6,156.4 478.8,153.7 480.0,144.0 481.2,145.2 482.4,145.6 483.6,145.1 484.8,141.2 485.9,138.7 487.1,139.0 488.3,141.8 489.5,145.1 490.7,154.7 491.9,165.1 493.1,165.5 494.3,161.8 495.4,161.3 496.6,161.8 497.8,164.6 499.0,172.1 500.2,173.6 501.4,157.3 502.6,141.8 503.7,135.7 504.9,131.0 506.1,125.7 507.3,121.3 508.5,117.8 509.7,119.6 510.9,121.2 512.1,123.3 513.2,126.0 514.4,129.1 515.6,132.4 516.8,135.5 518.0,138.3 519.2,140.7 520.4,140.4 521.5,136.5 522.7,132.6 523.9,128.7 525.1,124.5 526.3,120.2 527.5,116.1 528.7,112.4 529.9,109.4 531.0,107.2 532.2,106.2 533.4,106.2 534.6,107.3 535.8,109.0 537.0,111.1 538.2,113.3 539.3,115.1 540.5,116.6 541.7,117.6 542.9,118.0 544.1,118.1 545.3,117.8 546.5,117.2 547.7,116.4 548.8,115.3 550.0,113.9 551.2,112.3 552.4,110.6 553.6,109.0 554.8,107.4 556.0,106.1 557.1,104.8 558.3,103.5 559.5,102.1 560.7,100.6 561.9,99.0 563.1,97.4 564.3,95.9 565.5,94.4 566.6,93.0 567.8,91.6 569.0,166.7 570.2,168.2 571.4,169.8 572.6,171.3 573.8,172.8 574.9,174.3 576.1,175.7 577.3,177.2 578.5,178.6 579.7,179.8 580.9,180.8 582.1,182.3 583.3,183.7 584.4,185.0 585.6,186.1 586.8,187.2 588.0,188.2 589.2,189.0 590.4,189.9 591.6,190.6 592.7,191.3 593.9,191.9 595.1,192.3 596.3,192.7 597.5,192.6 598.7,192.7 599.9,192.5 601.1,191.8 602.2,190.7 603.4,189.2 604.6,189.8 605.8,190.4 607.0,191.0 608.2,191.6 609.4,192.2 610.5,192.7 611.7,193.3 612.9,193.8 614.1,194.5 615.3,195.2 616.5,196.0 617.7,197.0 618.9,198.2 620.0,199.5 621.2,201.1 622.4,202.9 623.6,205.0 624.8,206.5 626.0,205.1 627.2,212.5 628.3,218.1 629.5,219.3 630.7,213.8 631.9,203.6 633.1,191.7 634.3,179.1 635.5,174.5 636.7,172.8 637.8,170.9 639.0,179.3 640.2,198.1 641.4,217.9 642.6,235.8 643.8,251.0 645.0,259.0 646.1,261.4 647.3,256.8 648.5,248.2 649.7,241.3 650.9,236.3 652.1,235.6 653.3,238.0 654.5,236.4 655.6,231.2 656.8,227.2 658.0,228.2 659.2,226.7 660.4,224.3 661.6,221.5 662.8,218.8 663.9,216.4 665.1,213.7 666.3,214.4 667.5,216.5 668.7,218.8 669.9,222.9 671.1,228.4 672.3,234.5 673.4,240.7 674.6,246.6 675.8,252.0 677.0,256.2 678.2,258.9 679.4,259.7 680.6,258.6 681.7,255.9 682.9,252.0 684.1,247.8 685.3,245.4 686.5,243.8 687.7,242.8 688.9,242.7 690.1,243.5 691.2,245.4 692.4,247.8 693.6,250.6 694.8,254.0 696.0,257.0 697.2,259.9 698.4,262.4 699.5,264.4 700.7,265.6 701.9,266.0 703.1,265.6 704.3,264.7 705.5,263.6 706.7,262.4 707.9,261.1 709.0,260.0 710.2,259.0 711.4,258.1 712.6,257.4 713.8,256.9 715.0,255.5 716.2,254.9 717.3,255.1 718.5,255.6 719.7,255.9 720.9,255.9 722.1,255.8 723.3,255.6 724.5,255.5 725.7,255.4 726.8,255.3 728.0,255.1 729.2,255.0 730.4,254.9 731.6,254.9 732.8,254.8 734.0,254.8 735.1,254.8 736.3,254.8 737.5,254.8 738.7,254.9 739.9,254.9 741.1,254.9 742.3,254.8 743.5,254.7 744.6,254.6 745.8,254.5 747.0,254.5 748.2,254.4 749.4,254.4 750.6,254.3 751.8,254.3 752.9,254.4 754.1,254.4 755.3,254.5 756.5,254.2 757.7,253.8 758.9,253.9 760.1,254.5 761.3,255.1 762.4,255.8 763.6,256.5 764.8,257.2 766.0,258.0"/>
<line x1="606" y1="42" x2="628" y2="42" stroke="#0f62fe" stroke-width="2.2"/>
<text x="634" y="46" font-family="Arial" font-size="12">load_factor_g</text>
</svg>