<svg xmlns="http://www.w3.org/2000/svg" width="820" height="320" viewBox="0 0 820 320">
<rect width="100%" height="100%" fill="#ffffff"/>
<text x="54" y="28" font-family="Arial" font-size="18" font-weight="700">Thrust</text>
<line x1="54" y1="266" x2="766" y2="266" stroke="#1f2933"/>
<line x1="54" y1="54" x2="54" y2="266" stroke="#1f2933"/>
<text x="54" y="306" font-family="Arial" font-size="12">time (s)</text>
<text x="596" y="306" font-family="Arial" font-size="12">thrust (N)</text>
<text x="58" y="68" font-family="Arial" font-size="11">414</text>
<text x="58" y="260" font-family="Arial" font-size="11">0</text>
<polyline fill="none" stroke="#0f62fe" stroke-width="2.2" points="54.0,94.6 55.2,91.5 56.4,88.5 57.6,85.5 58.7,82.4 59.9,79.4 61.1,76.3 62.3,73.3 63.5,70.2 64.7,67.2 65.9,64.1 67.1,61.1 68.2,58.0 69.4,55.0 70.6,54.0 71.8,54.0 73.0,54.0 74.2,54.1 75.4,54.1 76.5,54.1 77.7,54.1 78.9,54.1 80.1,54.1 81.3,54.2 82.5,54.2 83.7,54.2 84.9,54.2 86.0,54.2 87.2,54.2 88.4,54.3 89.6,54.3 90.8,54.3 92.0,54.3 93.2,54.3 94.3,54.4 95.5,54.4 96.7,54.4 97.9,54.4 99.1,54.4 100.3,54.4 101.5,54.5 102.7,54.5 103.8,54.5 105.0,54.5 106.2,54.5 107.4,54.6 108.6,54.6 109.8,54.6 111.0,54.6 112.1,54.6 113.3,54.6 114.5,54.7 115.7,54.7 116.9,54.7 118.1,54.7 119.3,54.7 120.5,54.7 121.6,54.8 122.8,54.8 124.0,54.8 125.2,54.8 126.4,54.8 127.6,54.9 128.8,54.9 129.9,54.9 131.1,54.9 132.3,54.9 133.5,54.9 134.7,55.0 135.9,55.0 137.1,55.0 138.3,55.0 139.4,55.0 140.6,55.1 141.8,55.1 143.0,55.1 144.2,55.1 145.4,55.1 146.6,55.1 147.7,55.2 148.9,55.2 150.1,55.2 151.3,55.2 152.5,55.2 153.7,55.2 154.9,55.3 156.1,55.3 157.2,55.3 158.4,55.3 159.6,55.3 160.8,55.4 162.0,55.4 163.2,55.4 164.4,55.4 165.5,55.4 166.7,55.4 167.9,55.5 169.1,55.5 170.3,55.5 171.5,55.5 172.7,55.5 173.9,55.5 175.0,55.6 176.2,55.6 177.4,55.6 178.6,55.6 179.8,55.6 181.0,55.7 182.2,55.7 183.3,55.7 184.5,55.7 185.7,55.7 186.9,55.7 188.1,55.8 189.3,55.8 190.5,55.8 191.7,55.8 192.8,55.8 194.0,55.9 195.2,55.9 196.4,55.9 197.6,55.9 198.8,55.9 200.0,55.9 201.1,56.0 202.3,56.0 203.5,56.0 204.7,56.0 205.9,56.0 207.1,56.0 208.3,56.1 209.5,56.1 210.6,56.1 211.8,56.1 213.0,56.1 214.2,56.2 215.4,56.2 216.6,56.2 217.8,56.2 218.9,56.2 220.1,56.2 221.3,56.3 222.5,56.3 223.7,56.3 224.9,56.3 226.1,56.3 227.3,56.4 228.4,56.4 229.6,56.4 230.8,56.4 232.0,56.4 233.2,56.4 234.4,56.5 235.6,56.5 236.7,56.5 237.9,56.5 239.1,56.5 240.3,56.5 241.5,56.6 242.7,56.6 243.9,56.6 245.1,56.6 246.2,56.6 247.4,56.7 248.6,56.7 249.8,56.7 251.0,56.7 252.2,56.7 253.4,56.7 254.5,56.8 255.7,56.8 256.9,56.8 258.1,56.8 259.3,56.8 260.5,56.8 261.7,56.9 262.9,56.9 264.0,56.9 265.2,56.9 266.4,56.9 267.6,57.0 268.8,57.0 270.0,57.0 271.2,57.0 272.3,57.0 273.5,57.0 274.7,57.1 275.9,57.1 277.1,57.1 278.3,57.1 279.5,57.1 280.7,57.2 281.8,57.2 283.0,57.2 284.2,57.2 285.4,57.2 286.6,57.2 287.8,57.3 289.0,57.3 290.1,57.3 291.3,57.3 292.5,57.3 293.7,57.3 294.9,57.4 296.1,57.4 297.3,57.4 298.5,57.4 299.6,57.4 300.8,57.5 302.0,57.5 303.2,57.5 304.4,57.5 305.6,57.5 306.8,57.5 307.9,57.6 309.1,57.6 310.3,57.6 311.5,57.6 312.7,57.6 313.9,57.7 315.1,57.7 316.3,57.7 317.4,57.7 318.6,57.7 319.8,57.7 321.0,57.8 322.2,57.8 323.4,57.8 324.6,57.8 325.7,57.8 326.9,57.8 328.1,57.9 329.3,57.9 330.5,57.9 331.7,57.9 332.9,57.9 334.1,58.0 335.2,58.0 336.4,58.0 337.6,58.0 338.8,58.0 340.0,58.0 341.2,58.1 342.4,58.1 343.5,58.1 344.7,58.1 345.9,58.1 347.1,58.1 348.3,58.2 349.5,58.2 350.7,58.2 351.9,58.2 353.0,58.2 354.2,58.3 355.4,58.3 356.6,58.3 357.8,58.3 359.0,58.3 360.2,58.3 361.3,58.4 362.5,58.4 363.7,58.4 364.9,58.4 366.1,58.4 367.3,58.5 368.5,58.5 369.7,58.5 370.8,58.5 372.0,58.6 373.2,58.8 374.4,58.9 375.6,59.0 376.8,59.1 378.0,59.2 379.1,59.3 380.3,59.4 381.5,59.5 382.7,59.6 383.9,59.7 385.1,59.8 386.3,59.9 387.5,60.1 388.6,60.2 389.8,60.3 391.0,60.4 392.2,60.5 393.4,60.6 394.6,60.7 395.8,60.8 396.9,60.9 398.1,61.0 399.3,61.1 400.5,61.2 401.7,61.3 402.9,61.5 404.1,61.6 405.3,61.7 406.4,61.8 407.6,61.9 408.8,62.0 410.0,62.1 411.2,62.2 412.4,62.3 413.6,62.4 414.7,62.5 415.9,62.6 417.1,62.8 418.3,62.9 419.5,63.0 420.7,63.1 421.9,63.2 423.1,63.3 424.2,63.4 425.4,63.5 426.6,63.6 427.8,63.7 429.0,63.8 430.2,63.9 431.4,64.1 432.5,64.2 433.7,64.3 434.9,64.4 436.1,64.5 437.3,64.6 438.5,64.7 439.7,64.8 440.9,64.9 442.0,65.0 443.2,65.1 444.4,65.2 445.6,65.4 446.8,65.5 448.0,65.6 449.2,65.7 450.3,65.8 451.5,65.9 452.7,66.0 453.9,66.1 455.1,66.2 456.3,66.3 457.5,66.4 458.7,66.5 459.8,66.7 461.0,66.8 462.2,66.9 463.4,67.0 464.6,67.1 465.8,67.2 467.0,67.3 468.1,67.4 469.3,67.5 470.5,67.6 471.7,67.7 472.9,67.8 474.1,68.0 475.3,68.1 476.5,68.2 477.6,68.3 478.8,68.4 480.0,68.5 481.2,68.6 482.4,68.7 483.6,68.8 484.8,68.9 485.9,69.0 487.1,69.1 488.3,69.3 489.5,69.4 490.7,69.5 491.9,69.6 493.1,69.7 494.3,69.8 495.4,69.9 496.6,70.0 497.8,70.1 499.0,70.2 500.2,70.3 501.4,70.4 502.6,70.6 503.7,70.7 504.9,70.8 506.1,70.9 507.3,71.0 508.5,71.1 509.7,71.2 510.9,71.3 512.1,71.4 513.2,71.5 514.4,71.6 515.6,71.7 516.8,71.9 518.0,72.0 519.2,72.1 520.4,72.2 521.5,72.3 522.7,72.4 523.9,72.5 525.1,72.6 526.3,72.7 527.5,72.8 528.7,72.9 529.9,73.0 531.0,73.2 532.2,73.3 533.4,73.4 534.6,73.5 535.8,73.6 537.0,73.7 538.2,73.8 539.3,73.9 540.5,74.0 541.7,74.1 542.9,74.2 544.1,74.3 545.3,74.4 546.5,74.6 547.7,74.7 548.8,74.8 550.0,74.9 551.2,75.0 552.4,75.1 553.6,75.2 554.8,75.3 556.0,75.4 557.1,75.5 558.3,75.6 559.5,75.7 560.7,75.9 561.9,76.0 563.1,76.1 564.3,76.2 565.5,76.3 566.6,76.4 567.8,76.5 569.0,266.0 570.2,266.0 571.4,266.0 572.6,266.0 573.8,266.0 574.9,266.0 576.1,266.0 577.3,266.0 578.5,266.0 579.7,266.0 580.9,266.0 582.1,266.0 583.3,266.0 584.4,266.0 585.6,266.0 586.8,266.0 588.0,266.0 589.2,266.0 590.4,266.0 591.6,266.0 592.7,266.0 593.9,266.0 595.1,266.0 596.3,266.0 597.5,266.0 598.7,266.0 599.9,266.0 601.1,266.0 602.2,266.0 603.4,266.0 604.6,266.0 605.8,266.0 607.0,266.0 608.2,266.0 609.4,266.0 610.5,266.0 611.7,266.0 612.9,266.0 614.1,266.0 615.3,266.0 616.5,266.0 617.7,266.0 618.9,266.0 620.0,266.0 621.2,266.0 622.4,266.0 623.6,266.0 624.8,266.0 626.0,266.0 627.2,266.0 628.3,266.0 629.5,266.0 630.7,266.0 631.9,266.0 633.1,266.0 634.3,266.0 635.5,266.0 636.7,266.0 637.8,266.0 639.0,266.0 640.2,266.0 641.4,266.0 642.6,266.0 643.8,266.0 645.0,266.0 646.1,266.0 647.3,266.0 648.5,266.0 649.7,266.0 650.9,266.0 652.1,266.0 653.3,266.0 654.5,266.0 655.6,266.0 656.8,266.0 658.0,266.0 659.2,266.0 660.4,266.0 661.6,266.0 662.8,266.0 663.9,266.0 665.1,266.0 666.3,266.0 667.5,266.0 668.7,266.0 669.9,266.0 671.1,266.0 672.3,266.0 673.4,266.0 674.6,266.0 675.8,266.0 677.0,266.0 678.2,266.0 679.4,266.0 680.6,266.0 681.7,266.0 682.9,266.0 684.1,266.0 685.3,266.0 686.5,266.0 687.7,266.0 688.9,266.0 690.1,266.0 691.2,266.0 692.4,266.0 693.6,266.0 694.8,266.0 696.0,266.0 697.2,266.0 698.4,266.0 699.5,266.0 700.7,266.0 701.9,266.0 703.1,266.0 704.3,266.0 705.5,266.0 706.7,266.0 707.9,266.0 709.0,266.0 710.2,266.0 711.4,266.0 712.6,266.0 713.8,266.0 715.0,266.0 716.2,266.0 717.3,266.0 718.5,266.0 719.7,266.0 720.9,266.0 722.1,266.0 723.3,266.0 724.5,266.0 725.7,266.0 726.8,266.0 728.0,266.0 729.2,266.0 730.4,266.0 731.6,266.0 732.8,266.0 734.0,266.0 735.1,266.0 736.3,266.0 737.5,266.0 738.7,266.0 739.9,266.0 741.1,266.0 742.3,266.0 743.5,266.0 744.6,266.0 745.8,266.0 747.0,266.0 748.2,266.0 749.4,266.0 750.6,266.0 751.8,266.0 752.9,266.0 754.1,266.0 755.3,266.0 756.5,266.0 757.7,266.0 758.9,266.0 760.1,266.0 761.3,266.0 762.4,266.0 763.6,266.0 764.8,266.0 766.0,266.0"/>
<line x1="606" y1="42" x2="628" y2="42" stroke="#0f62fe" stroke-width="2.2"/>
<text x="634" y="46" font-family="Arial" font-size="12">thrust_n</text>
</svg>