<svg xmlns="http://www.w3.org/2000/svg" width="820" height="320" viewBox="0 0 820 320">
<rect width="100%" height="100%" fill="#ffffff"/>
<text x="54" y="28" font-family="Arial" font-size="18" font-weight="700">Specific Energy</text>
<line x1="54" y1="266" x2="766" y2="266" stroke="#1f2933"/>
<line x1="54" y1="54" x2="54" y2="266" stroke="#1f2933"/>
<text x="54" y="306" font-family="Arial" font-size="12">time (s)</text>
<text x="596" y="306" font-family="Arial" font-size="12">J/kg</text>
<text x="58" y="68" font-family="Arial" font-size="11">2.16e+04</text>
<text x="58" y="260" font-family="Arial" font-size="11">9.45e+03</text>
<polyline fill="none" stroke="#0f62fe" stroke-width="2.2" points="54.0,190.6 55.2,189.8 56.4,189.0 57.6,188.1 58.7,187.2 59.9,186.4 61.1,185.4 62.3,184.5 63.5,183.6 64.7,182.6 65.9,181.7 67.1,180.7 68.2,179.6 69.4,178.6 70.6,177.6 71.8,176.5 73.0,175.5 74.2,174.4 75.4,173.3 76.5,172.3 77.7,171.2 78.9,170.1 80.1,169.0 81.3,168.0 82.5,166.9 83.7,165.8 84.9,164.7 86.0,163.7 87.2,162.6 88.4,161.5 89.6,160.4 90.8,159.3 92.0,158.2 93.2,157.1 94.3,156.0 95.5,155.0 96.7,153.9 97.9,152.8 99.1,151.7 100.3,150.6 101.5,149.5 102.7,148.4 103.8,147.3 105.0,146.2 106.2,145.2 107.4,144.1 108.6,143.0 109.8,141.9 111.0,140.8 112.1,139.8 113.3,138.7 114.5,137.6 115.7,136.5 116.9,135.5 118.1,134.4 119.3,133.3 120.5,132.3 121.6,131.2 122.8,130.2 124.0,129.1 125.2,128.1 126.4,127.1 127.6,126.0 128.8,125.0 129.9,124.0 131.1,123.0 132.3,122.0 133.5,121.0 134.7,120.0 135.9,119.0 137.1,118.0 138.3,117.1 139.4,116.1 140.6,115.1 141.8,114.1 143.0,113.1 144.2,112.1 145.4,111.1 146.6,110.1 147.7,109.1 148.9,108.1 150.1,107.1 151.3,106.1 152.5,105.1 153.7,104.1 154.9,103.1 156.1,102.1 157.2,101.1 158.4,100.1 159.6,99.2 160.8,98.3 162.0,97.3 163.2,96.4 164.4,95.5 165.5,94.6 166.7,93.8 167.9,92.9 169.1,92.0 170.3,91.2 171.5,90.4 172.7,89.5 173.9,88.7 175.0,87.9 176.2,87.1 177.4,86.3 178.6,85.5 179.8,84.7 181.0,83.9 182.2,83.0 183.3,82.2 184.5,81.4 185.7,80.7 186.9,79.9 188.1,79.1 189.3,78.3 190.5,77.6 191.7,76.8 192.8,76.1 194.0,75.4 195.2,74.7 196.4,74.0 197.6,73.4 198.8,72.8 200.0,72.2 201.1,71.6 202.3,71.0 203.5,70.4 204.7,69.9 205.9,69.3 207.1,68.8 208.3,68.2 209.5,67.7 210.6,67.1 211.8,66.6 213.0,66.0 214.2,65.5 215.4,64.9 216.6,64.4 217.8,63.8 218.9,63.3 220.1,62.8 221.3,62.3 222.5,61.8 223.7,61.3 224.9,60.8 226.1,60.4 227.3,59.9 228.4,59.5 229.6,59.2 230.8,58.8 232.0,58.5 233.2,58.1 234.4,57.8 235.6,57.5 236.7,57.3 237.9,57.0 239.1,56.7 240.3,56.5 241.5,56.2 242.7,56.0 243.9,55.7 245.1,55.5 246.2,55.2 247.4,55.0 248.6,54.8 249.8,54.6 251.0,54.4 252.2,54.3 253.4,54.2 254.5,54.1 255.7,54.0 256.9,54.0 258.1,54.0 259.3,54.1 260.5,54.1 261.7,54.3 262.9,54.4 264.0,54.6 265.2,54.7 266.4,54.9 267.6,55.2 268.8,55.4 270.0,55.6 271.2,55.8 272.3,56.1 273.5,56.3 274.7,56.5 275.9,56.8 277.1,57.0 278.3,57.2 279.5,57.5 280.7,57.7 281.8,58.0 283.0,58.3 284.2,58.6 285.4,58.9 286.6,59.2 287.8,59.5 289.0,59.9 290.1,60.2 291.3,60.5 292.5,60.9 293.7,61.2 294.9,61.6 296.1,62.0 297.3,62.4 298.5,62.8 299.6,63.2 300.8,63.6 302.0,64.0 303.2,64.4 304.4,64.8 305.6,65.2 306.8,65.6 307.9,66.1 309.1,66.5 310.3,67.0 311.5,67.4 312.7,67.9 313.9,68.4 315.1,68.8 316.3,69.3 317.4,69.8 318.6,70.4 319.8,70.9 321.0,71.5 322.2,72.0 323.4,72.6 324.6,73.2 325.7,73.9 326.9,74.6 328.1,75.2 329.3,75.9 330.5,76.7 331.7,77.4 332.9,78.2 334.1,79.0 335.2,79.8 336.4,80.6 337.6,81.5 338.8,82.4 340.0,83.3 341.2,84.2 342.4,85.2 343.5,86.1 344.7,87.2 345.9,88.2 347.1,89.3 348.3,90.5 349.5,91.6 350.7,92.8 351.9,94.0 353.0,95.2 354.2,96.5 355.4,97.8 356.6,99.1 357.8,100.5 359.0,101.9 360.2,103.3 361.3,104.7 362.5,106.1 363.7,107.6 364.9,109.1 366.1,110.6 367.3,112.1 368.5,113.6 369.7,114.9 370.8,116.3 372.0,117.5 373.2,118.7 374.4,119.8 375.6,120.9 376.8,121.9 378.0,122.8 379.1,123.7 380.3,124.5 381.5,125.2 382.7,125.8 383.9,126.4 385.1,126.9 386.3,127.4 387.5,127.7 388.6,128.0 389.8,128.2 391.0,128.5 392.2,128.7 393.4,129.0 394.6,129.3 395.8,129.7 396.9,130.1 398.1,130.6 399.3,131.0 400.5,131.5 401.7,132.0 402.9,132.6 404.1,133.2 405.3,133.8 406.4,134.5 407.6,135.2 408.8,135.9 410.0,136.6 411.2,137.4 412.4,138.2 413.6,138.9 414.7,139.7 415.9,140.5 417.1,141.4 418.3,142.2 419.5,143.1 420.7,144.0 421.9,144.9 423.1,145.9 424.2,146.8 425.4,147.7 426.6,148.7 427.8,149.6 429.0,150.5 430.2,151.4 431.4,152.3 432.5,153.2 433.7,154.0 434.9,154.7 436.1,155.4 437.3,156.1 438.5,156.7 439.7,157.3 440.9,157.8 442.0,158.2 443.2,158.6 444.4,158.9 445.6,159.1 446.8,159.3 448.0,159.4 449.2,159.5 450.3,159.4 451.5,159.4 452.7,159.2 453.9,159.0 455.1,158.7 456.3,158.4 457.5,158.1 458.7,157.6 459.8,156.8 461.0,156.2 462.2,155.7 463.4,155.3 464.6,154.9 465.8,154.5 467.0,154.1 468.1,153.6 469.3,153.1 470.5,152.6 471.7,152.1 472.9,151.5 474.1,150.9 475.3,150.2 476.5,149.4 477.6,148.4 478.8,147.4 480.0,146.4 481.2,145.5 482.4,144.8 483.6,144.1 484.8,143.5 485.9,142.9 487.1,142.4 488.3,141.7 489.5,141.0 490.7,140.2 491.9,139.2 493.1,138.1 494.3,136.9 495.4,135.7 496.6,134.5 497.8,133.4 499.0,132.1 500.2,130.9 501.4,129.7 502.6,128.7 503.7,127.8 504.9,127.1 506.1,126.5 507.3,126.0 508.5,125.7 509.7,125.4 510.9,125.2 512.1,125.0 513.2,124.8 514.4,124.7 515.6,124.7 516.8,124.7 518.0,124.7 519.2,124.8 520.4,124.9 521.5,125.0 522.7,125.2 523.9,125.5 525.1,125.8 526.3,126.1 527.5,126.5 528.7,126.9 529.9,127.4 531.0,127.9 532.2,128.4 533.4,128.9 534.6,129.5 535.8,130.0 537.0,130.5 538.2,131.0 539.3,131.5 540.5,132.0 541.7,132.4 542.9,132.9 544.1,133.3 545.3,133.8 546.5,134.3 547.7,134.7 548.8,135.2 550.0,135.8 551.2,136.3 552.4,136.9 553.6,137.4 554.8,138.1 556.0,138.7 557.1,139.4 558.3,140.1 559.5,140.8 560.7,141.6 561.9,142.4 563.1,143.2 564.3,144.0 565.5,144.9 566.6,145.8 567.8,146.8 569.0,147.7 570.2,149.1 571.4,150.4 572.6,151.7 573.8,153.0 574.9,154.2 576.1,155.5 577.3,156.8 578.5,158.0 579.7,159.2 580.9,160.4 582.1,161.6 583.3,162.8 584.4,164.0 585.6,165.1 586.8,166.3 588.0,167.4 589.2,168.5 590.4,169.6 591.6,170.7 592.7,171.8 593.9,172.9 595.1,174.0 596.3,175.0 597.5,176.1 598.7,177.1 599.9,178.2 601.1,179.2 602.2,180.2 603.4,181.3 604.6,182.3 605.8,183.3 607.0,184.3 608.2,185.4 609.4,186.4 610.5,187.4 611.7,188.4 612.9,189.3 614.1,190.3 615.3,191.3 616.5,192.3 617.7,193.2 618.9,194.2 620.0,195.1 621.2,196.0 622.4,196.9 623.6,197.8 624.8,198.6 626.0,199.5 627.2,200.3 628.3,201.0 629.5,201.7 630.7,202.4 631.9,203.1 633.1,203.9 634.3,204.7 635.5,205.6 636.7,206.5 637.8,207.4 639.0,208.3 640.2,209.2 641.4,209.9 642.6,210.6 643.8,211.2 645.0,211.7 646.1,212.2 647.3,212.7 648.5,213.2 649.7,213.6 650.9,214.1 652.1,214.6 653.3,215.1 654.5,215.6 655.6,216.0 656.8,216.5 658.0,217.0 659.2,217.6 660.4,218.2 661.6,218.7 662.8,219.4 663.9,220.0 665.1,220.7 666.3,221.4 667.5,222.1 668.7,222.8 669.9,223.5 671.1,224.2 672.3,224.9 673.4,225.5 674.6,226.1 675.8,226.7 677.0,227.2 678.2,227.8 679.4,228.3 680.6,228.8 681.7,229.3 682.9,229.8 684.1,230.3 685.3,230.9 686.5,231.4 687.7,232.0 688.9,232.5 690.1,233.1 691.2,233.7 692.4,234.2 693.6,234.8 694.8,235.3 696.0,235.8 697.2,236.3 698.4,236.8 699.5,237.3 700.7,237.8 701.9,238.2 703.1,238.7 704.3,239.2 705.5,239.6 706.7,240.1 707.9,240.6 709.0,241.1 710.2,241.6 711.4,242.1 712.6,242.6 713.8,243.1 715.0,243.6 716.2,244.1 717.3,244.6 718.5,245.2 719.7,245.7 720.9,246.2 722.1,246.7 723.3,247.3 724.5,247.8 725.7,248.3 726.8,248.9 728.0,249.4 729.2,249.9 730.4,250.5 731.6,251.0 732.8,251.5 734.0,252.0 735.1,252.6 736.3,253.1 737.5,253.6 738.7,254.1 739.9,254.7 741.1,255.2 742.3,255.7 743.5,256.2 744.6,256.7 745.8,257.3 747.0,257.8 748.2,258.3 749.4,258.8 750.6,259.3 751.8,259.9 752.9,260.4 754.1,260.9 755.3,261.4 756.5,261.9 757.7,262.4 758.9,263.0 760.1,263.5 761.3,264.0 762.4,264.5 763.6,265.0 764.8,265.5 766.0,266.0"/>
<line x1="606" y1="42" x2="628" y2="42" stroke="#0f62fe" stroke-width="2.2"/>
<text x="634" y="46" font-family="Arial" font-size="12">energy_j_per_kg</text>
</svg>