<svg xmlns="http://www.w3.org/2000/svg" width="820" height="320" viewBox="0 0 820 320">
<rect width="100%" height="100%" fill="#ffffff"/>
<text x="54" y="28" font-family="Arial" font-size="18" font-weight="700">Qbar/Load Envelope</text>
<line x1="54" y1="266" x2="766" y2="266" stroke="#1f2933"/>
<line x1="54" y1="54" x2="54" y2="266" stroke="#1f2933"/>
<text x="54" y="306" font-family="Arial" font-size="12">qbar (Pa)</text>
<text x="596" y="306" font-family="Arial" font-size="12">load factor (g)</text>
<text x="58" y="68" font-family="Arial" font-size="11">3.65</text>
<text x="58" y="260" font-family="Arial" font-size="11">1.19</text>
<polyline fill="none" stroke="#0f62fe" stroke-width="2.2" points="121.7,213.7 125.2,210.8 128.8,208.7 132.6,206.4 136.4,203.9 140.4,201.3 144.6,198.7 148.8,195.9 153.2,193.2 157.6,190.4 162.2,187.6 167.0,184.8 171.8,182.0 176.8,179.2 181.9,178.3 187.1,178.3 192.4,178.3 197.7,178.3 203.0,178.4 208.4,178.4 213.8,178.3 219.3,178.3 224.9,178.3 230.4,178.3 236.1,178.2 241.7,178.2 247.4,178.1 253.2,178.0 258.9,178.0 264.7,177.9 270.6,177.8 276.5,177.6 282.3,177.5 288.3,177.4 294.2,177.2 300.2,177.1 306.1,176.9 312.1,176.7 318.1,176.5 324.0,176.2 330.0,176.0 336.0,175.7 341.9,175.4 347.8,175.1 353.7,174.8 359.6,174.5 365.5,174.1 371.3,173.7 377.0,173.3 382.8,172.9 388.5,172.4 394.1,172.0 399.7,171.5 405.2,170.9 410.7,170.4 416.1,169.8 421.4,169.2 426.7,168.6 431.9,167.9 437.1,167.2 442.2,166.4 447.2,165.6 452.1,164.8 456.9,163.9 461.7,163.0 466.4,162.2 471.1,161.4 475.7,160.7 480.2,160.0 484.7,159.5 489.2,159.0 493.6,158.6 498.1,158.3 502.5,158.1 507.0,158.0 511.4,157.9 515.9,157.7 520.3,157.6 524.8,157.4 529.4,157.1 533.9,156.8 538.4,156.3 543.0,155.6 547.6,154.8 552.1,153.9 556.6,152.7 561.2,151.4 565.7,149.8 570.1,148.3 574.5,146.8 578.9,145.4 583.3,144.0 587.6,142.6 591.9,141.1 596.2,139.6 600.4,138.2 604.6,136.8 608.8,135.9 612.9,135.1 617.1,134.5 621.2,133.9 625.3,133.3 629.3,132.8 633.4,132.3 637.4,131.8 641.5,131.4 645.5,130.9 649.6,130.5 653.6,130.0 657.6,129.4 661.6,128.8 665.5,128.1 669.4,127.4 673.3,126.5 677.0,125.6 680.7,124.5 684.3,123.4 687.7,122.2 691.1,121.0 694.3,119.7 697.4,118.4 700.4,117.0 703.2,115.8 706.0,114.6 708.6,113.4 711.1,112.4 713.5,111.5 715.8,110.7 718.1,110.1 720.3,109.5 722.5,109.0 724.6,108.6 726.7,108.3 728.8,107.9 730.9,107.5 732.9,107.0 734.9,106.5 736.9,105.9 738.8,105.1 740.7,104.2 742.5,103.2 744.2,102.0 745.9,100.7 747.4,99.3 748.8,97.7 750.1,96.2 751.3,94.6 752.4,93.0 753.4,91.4 754.3,90.0 755.1,88.6 755.8,87.4 756.4,86.4 757.0,85.5 757.6,84.8 758.2,84.3 758.7,83.8 759.3,83.4 759.9,83.0 760.5,82.6 761.1,82.1 761.8,81.5 762.4,80.8 763.1,79.9 763.8,78.8 764.4,77.5 765.0,76.0 765.6,74.2 765.9,72.2 766.0,70.1 765.8,67.8 765.4,65.4 764.7,62.8 763.7,60.7 762.4,58.9 760.9,56.8 759.1,55.2 757.2,54.4 755.0,54.1 752.8,54.0 750.3,54.1 747.8,54.3 745.3,54.6 742.7,55.0 740.0,55.5 737.3,55.9 734.7,56.4 732.0,56.8 729.4,57.1 726.8,57.3 724.2,57.4 721.5,57.3 718.9,57.2 716.3,56.9 713.7,57.3 711.1,58.8 708.6,60.3 706.1,61.9 703.8,63.5 701.5,65.2 699.3,66.9 697.1,68.6 695.0,70.3 693.0,72.0 691.0,73.7 689.1,75.3 687.2,77.0 685.4,78.7 683.6,80.3 681.9,81.9 680.1,83.6 678.3,85.3 676.6,87.0 674.8,88.6 672.9,90.5 671.0,92.3 669.0,94.2 666.9,96.2 664.6,98.3 662.2,100.6 659.7,102.9 656.9,105.3 654.0,107.8 650.8,110.4 647.4,113.1 643.7,112.7 639.8,110.8 635.5,109.0 630.9,107.3 626.1,105.7 620.9,104.1 615.4,102.6 609.6,101.1 603.6,99.6 597.3,98.2 591.0,96.8 584.6,95.4 578.2,94.0 571.8,92.6 565.3,91.0 558.8,89.5 552.3,87.8 545.8,86.2 539.3,84.5 532.7,82.7 526.1,80.7 519.5,78.9 512.8,77.3 506.1,75.8 499.5,74.3 492.8,72.9 486.1,71.6 479.5,70.4 472.9,69.2 466.2,68.0 459.7,67.0 453.1,65.6 446.5,64.3 440.0,63.2 433.4,62.2 426.9,61.3 420.4,59.4 413.9,58.3 407.4,59.2 401.1,61.9 395.1,65.7 389.5,70.0 384.4,74.1 379.7,78.0 375.4,81.6 371.6,85.1 368.1,88.5 365.0,92.1 362.2,95.9 359.9,99.8 357.9,103.9 356.2,108.2 355.0,112.2 354.1,116.6 353.6,121.4 353.5,126.1 353.8,131.6 354.3,135.6 355.0,137.4 355.7,135.7 356.2,132.1 356.4,128.8 356.2,126.4 355.7,124.6 354.9,122.9 353.9,121.1 352.6,119.2 351.0,117.1 349.0,115.0 346.8,112.9 344.1,110.6 341.2,107.8 337.8,105.3 334.1,103.5 330.1,102.5 325.8,101.9 321.3,101.5 316.6,101.0 311.7,100.2 306.6,99.1 301.2,97.5 295.5,95.9 289.6,94.6 283.4,93.5 277.0,92.8 270.5,92.2 263.7,91.9 256.9,91.8 250.0,91.9 243.0,92.2 236.0,92.8 229.0,93.9 222.0,95.7 215.3,97.9 208.7,100.3 202.3,102.9 196.1,105.7 190.3,108.8 184.7,112.0 179.6,115.4 174.8,118.9 170.4,122.4 166.5,126.0 163.0,130.5 160.0,134.4 157.4,138.3 155.3,142.4 153.7,146.7 152.6,150.8 152.0,154.3 152.0,156.7 152.4,158.7 153.3,160.2 154.6,149.7 156.2,136.5 158.1,137.6 161.3,146.3 165.5,141.7 169.5,127.6 172.4,131.5 175.3,139.9 178.2,148.0 181.3,154.5 184.6,158.6 188.2,159.4 192.0,157.8 196.2,154.1 200.5,148.3 205.2,140.8 210.2,132.4 215.5,140.5 221.7,152.9 229.2,156.4 237.2,153.7 245.0,144.0 252.4,145.2 259.2,145.6 265.7,145.1 272.1,141.2 278.4,138.7 284.9,139.0 291.6,141.8 299.0,145.1 307.2,154.7 316.2,165.1 325.7,165.5 335.6,161.8 345.5,161.3 355.5,161.8 365.5,164.6 375.7,172.1 385.9,173.6 395.7,157.3 404.9,141.8 412.9,135.7 419.9,131.0 426.1,125.7 431.6,121.3 436.5,117.8 440.7,119.6 444.5,121.2 447.9,123.3 450.9,126.0 453.5,129.1 455.8,132.4 457.7,135.5 459.2,138.3 460.3,140.7 461.0,140.4 461.4,136.5 461.3,132.6 460.8,128.7 459.9,124.5 458.6,120.2 456.9,116.1 454.8,112.4 452.4,109.4 449.7,107.2 446.7,106.2 443.5,106.2 440.3,107.3 436.9,109.0 433.6,111.1 430.3,113.3 427.1,115.1 423.8,116.6 420.6,117.6 417.5,118.0 414.3,118.1 411.1,117.8 407.9,117.2 404.6,116.4 401.3,115.3 398.0,113.9 394.6,112.3 391.1,110.6 387.6,109.0 383.9,107.4 380.3,106.1 376.6,104.8 372.9,103.5 369.1,102.1 365.4,100.6 361.6,99.0 357.8,97.4 353.9,95.9 350.1,94.4 346.2,93.0 342.3,91.6 338.4,166.7 333.0,168.2 327.7,169.8 322.7,171.3 317.8,172.8 313.2,174.3 308.7,175.7 304.5,177.2 300.4,178.6 296.5,179.8 292.8,180.8 289.2,182.3 285.9,183.7 282.7,185.0 279.7,186.1 276.8,187.2 274.1,188.2 271.6,189.0 269.2,189.9 266.9,190.6 264.7,191.3 262.6,191.9 260.7,192.3 258.8,192.7 257.0,192.6 255.3,192.7 253.6,192.5 252.0,191.8 250.3,190.7 248.7,189.2 247.1,189.8 245.5,190.4 243.9,191.0 242.3,191.6 240.7,192.2 239.1,192.7 237.5,193.3 235.9,193.8 234.2,194.5 232.5,195.2 230.7,196.0 228.9,197.0 227.1,198.2 225.2,199.5 223.3,201.1 221.5,202.9 219.6,205.0 217.7,206.5 215.8,205.1 213.9,212.5 212.3,218.1 210.8,219.3 209.4,213.8 207.8,203.6 205.8,191.7 203.4,179.1 200.5,174.5 197.3,172.8 194.0,170.9 190.5,179.3 187.3,198.1 184.4,217.9 182.0,235.8 179.8,251.0 177.9,259.0 176.0,261.4 174.2,256.8 172.4,248.2 170.5,241.3 168.4,236.3 166.3,235.6 164.1,238.0 162.0,236.4 159.9,231.2 157.6,227.2 155.0,228.2 152.4,226.7 149.5,224.3 146.5,221.5 143.3,218.8 140.0,216.4 136.5,213.7 133.1,214.4 129.6,216.5 126.2,218.8 123.0,222.9 119.9,228.4 117.0,234.5 114.4,240.7 111.9,246.6 109.7,252.0 107.8,256.2 106.0,258.9 104.4,259.7 102.8,258.6 101.4,255.9 100.0,252.0 98.7,247.8 97.3,245.4 95.9,243.8 94.6,242.8 93.4,242.7 92.3,243.5 91.2,245.4 90.3,247.8 89.5,250.6 88.8,254.0 88.3,257.0 87.9,259.9 87.7,262.4 87.6,264.4 87.6,265.6 87.7,266.0 87.8,265.6 88.0,264.7 88.2,263.6 88.4,262.4 88.7,261.1 88.9,260.0 89.2,259.0 89.4,258.1 89.7,257.4 89.9,256.9 90.1,255.5 90.3,254.9 90.5,255.1 90.7,255.6 90.8,255.9 91.0,255.9 91.1,255.8 91.2,255.6 91.3,255.5 91.3,255.4 91.3,255.3 91.2,255.1 91.1,255.0 91.0,254.9 90.8,254.9 90.5,254.8 90.1,254.8 89.7,254.8 89.3,254.8 88.7,254.8 88.1,254.9 87.4,254.9 86.6,254.9 85.8,254.8 84.8,254.7 83.8,254.6 82.7,254.5 81.5,254.5 80.3,254.4 78.9,254.4 77.5,254.3 76.0,254.3 74.5,254.4 72.8,254.4 71.1,254.5 69.4,254.2 67.6,253.8 65.7,253.9 63.8,254.5 61.9,255.1 59.9,255.8 58.0,256.5 56.0,257.2 54.0,258.0"/>
<line x1="606" y1="42" x2="628" y2="42" stroke="#0f62fe" stroke-width="2.2"/>
<text x="634" y="46" font-family="Arial" font-size="12">load_factor_g</text>
</svg>