<svg xmlns="http://www.w3.org/2000/svg" width="820" height="320" viewBox="0 0 820 320">
<rect width="100%" height="100%" fill="#ffffff"/>
<text x="54" y="28" font-family="Arial" font-size="18" font-weight="700">Aero Coefficients Mach 0.60</text>
<line x1="54" y1="266" x2="766" y2="266" stroke="#1f2933"/>
<line x1="54" y1="54" x2="54" y2="266" stroke="#1f2933"/>
<text x="54" y="306" font-family="Arial" font-size="12">alpha (deg)</text>
<text x="596" y="306" font-family="Arial" font-size="12">coefficient</text>
<text x="58" y="68" font-family="Arial" font-size="11">0.876</text>
<text x="58" y="260" font-family="Arial" font-size="11">-0.78</text>
<polyline fill="none" stroke="#0f62fe" stroke-width="2.2" points="54.0,266.0 98.5,250.3 143.0,234.6 187.5,218.9 232.0,203.3 276.5,184.7 321.0,166.1 365.5,145.6 410.0,125.1 454.5,104.7 499.0,84.2 543.5,75.2 588.0,66.2 632.5,57.3 677.0,54.0 721.5,61.1 766.0,68.2"/>
<line x1="606" y1="42" x2="628" y2="42" stroke="#0f62fe" stroke-width="2.2"/>
<text x="634" y="46" font-family="Arial" font-size="12">cl</text>
<polyline fill="none" stroke="#24a148" stroke-width="2.2" points="54.0,132.8 98.5,137.5 143.0,142.1 187.5,146.7 232.0,151.4 276.5,153.3 321.0,155.2 365.5,152.2 410.0,149.1 454.5,146.1 499.0,143.1 543.5,134.7 588.0,126.4 632.5,118.1 677.0,109.6 721.5,109.1 766.0,108.2"/>
<line x1="606" y1="60" x2="628" y2="60" stroke="#24a148" stroke-width="2.2"/>
<text x="634" y="64" font-family="Arial" font-size="12">cd</text>
<polyline fill="none" stroke="#da1e28" stroke-width="2.2" points="54.0,195.6 98.5,190.4 143.0,185.3 187.5,180.2 232.0,175.1 276.5,170.6 321.0,166.1 365.5,161.0 410.0,155.9 454.5,150.8 499.0,145.6 543.5,142.7 588.0,139.9 632.5,137.0 677.0,134.1 721.5,134.1 766.0,134.1"/>
<line x1="606" y1="78" x2="628" y2="78" stroke="#da1e28" stroke-width="2.2"/>
<text x="634" y="82" font-family="Arial" font-size="12">cm</text>
</svg>