<svg xmlns="http://www.w3.org/2000/svg" width="820" height="320" viewBox="0 0 820 320">
<rect width="100%" height="100%" fill="#ffffff"/>
<text x="54" y="28" font-family="Arial" font-size="18" font-weight="700">Downrange/Crossrange</text>
<line x1="54" y1="266" x2="766" y2="266" stroke="#1f2933"/>
<line x1="54" y1="54" x2="54" y2="266" stroke="#1f2933"/>
<text x="54" y="306" font-family="Arial" font-size="12">downrange (m)</text>
<text x="596" y="306" font-family="Arial" font-size="12">crossrange (m)</text>
<text x="58" y="68" font-family="Arial" font-size="11">16.4</text>
<text x="58" y="260" font-family="Arial" font-size="11">-0.0169</text>
<polyline fill="none" stroke="#0f62fe" stroke-width="2.2" points="54.0,265.8 54.9,265.8 55.8,265.8 56.7,265.8 57.6,265.8 58.5,265.8 59.5,265.8 60.4,265.8 61.3,265.8 62.3,265.8 63.2,265.8 64.2,265.8 65.1,265.8 66.1,265.8 67.1,265.8 68.1,265.8 69.0,265.8 70.0,265.8 71.0,265.8 72.0,265.8 73.0,265.8 74.1,265.8 75.1,265.8 76.1,265.8 77.1,265.8 78.2,265.8 79.2,265.8 80.3,265.8 81.3,265.8 82.4,265.8 83.5,265.8 84.6,265.8 85.6,265.8 86.7,265.8 87.8,265.8 88.9,265.8 90.0,265.8 91.2,265.8 92.3,265.8 93.4,265.8 94.5,265.8 95.7,265.8 96.8,265.8 98.0,265.8 99.1,265.8 100.3,265.8 101.5,265.8 102.7,265.8 103.8,265.8 105.0,265.8 106.2,265.8 107.4,265.8 108.6,265.8 109.8,265.8 111.1,265.8 112.3,265.8 113.5,265.8 114.7,265.8 116.0,265.8 117.2,265.8 118.5,265.8 119.7,265.8 121.0,265.8 122.3,265.8 123.6,265.8 124.8,265.8 126.1,265.8 127.4,265.8 128.7,265.8 130.0,265.8 131.3,265.8 132.7,265.8 134.0,265.8 135.3,265.8 136.7,265.8 138.0,265.8 139.3,265.8 140.7,265.8 142.1,265.8 143.4,265.8 144.8,265.8 146.2,265.8 147.5,265.8 148.9,265.8 150.3,265.8 151.7,265.8 153.1,265.8 154.5,265.8 156.0,265.8 157.4,265.8 158.8,265.8 160.2,265.8 161.7,265.8 163.1,265.8 164.6,265.8 166.0,265.8 167.5,265.8 169.0,265.8 170.4,265.8 171.9,265.8 173.4,265.8 174.9,265.8 176.4,265.8 177.9,265.8 179.4,265.8 180.9,265.8 182.4,265.8 183.9,265.8 185.4,265.8 187.0,265.8 188.5,265.8 190.1,265.8 191.6,265.8 193.2,265.8 194.7,265.8 196.3,265.8 197.8,265.8 199.4,265.8 201.0,265.8 202.6,265.8 204.2,265.8 205.8,265.8 207.4,265.8 209.0,265.8 210.6,265.8 212.2,265.8 213.8,265.8 215.4,265.8 217.1,265.8 218.7,265.8 220.3,265.8 222.0,265.8 223.6,265.8 225.3,265.8 227.0,265.8 228.6,265.8 230.3,265.8 232.0,265.8 233.7,265.8 235.3,265.8 237.0,265.8 238.7,265.8 240.4,265.8 242.1,265.8 243.8,265.8 245.6,265.8 247.3,265.8 249.0,265.8 250.7,265.8 252.5,265.8 254.2,265.8 256.0,265.8 257.7,265.8 259.5,265.8 261.2,265.8 263.0,265.8 264.8,265.8 266.5,265.8 268.3,265.8 270.1,265.8 271.9,265.8 273.7,265.8 275.5,265.8 277.3,265.8 279.1,265.8 280.9,265.8 282.7,265.8 284.5,265.8 286.3,265.8 288.2,265.8 290.0,265.8 291.8,265.8 293.7,265.8 295.5,265.8 297.4,265.8 299.2,265.8 301.1,265.8 302.9,265.8 304.8,265.8 306.7,265.8 308.6,265.8 310.4,265.8 312.3,265.8 314.2,265.8 316.1,265.8 318.0,265.8 319.9,265.8 321.8,265.8 323.7,265.8 325.6,265.8 327.5,265.8 329.4,265.8 331.4,265.8 333.3,265.8 335.2,265.8 337.1,265.8 339.0,265.8 341.0,265.8 342.9,265.8 344.8,265.8 346.7,265.8 348.7,265.8 350.6,265.8 352.5,265.8 354.5,265.8 356.4,265.8 358.3,265.8 360.3,265.8 362.2,265.8 364.1,265.8 366.1,265.8 368.0,265.8 370.0,265.8 371.9,265.8 373.8,265.8 375.8,265.8 377.7,265.8 379.7,265.8 381.6,265.8 383.6,265.8 385.5,265.8 387.5,265.8 389.4,265.8 391.4,265.8 393.3,265.8 395.3,265.8 397.2,265.8 399.2,265.8 401.1,265.8 403.1,265.8 405.0,265.8 407.0,265.8 408.9,265.8 410.9,265.8 412.8,265.8 414.8,265.8 416.7,265.8 418.7,265.8 420.6,265.8 422.6,265.8 424.5,265.8 426.5,265.8 428.4,265.8 430.4,265.8 432.3,265.8 434.2,265.8 436.2,265.8 438.1,265.8 440.1,265.8 442.0,265.8 444.0,265.8 445.9,265.8 447.8,265.8 449.8,265.8 451.7,265.8 453.6,265.8 455.6,265.8 457.5,265.8 459.4,265.8 461.3,265.8 463.3,265.8 465.2,265.8 467.1,265.8 469.0,265.8 471.0,265.8 472.9,265.8 474.8,265.8 476.7,265.8 478.6,265.8 480.5,265.8 482.4,265.8 484.3,265.8 486.2,265.8 488.1,265.8 490.0,265.8 491.9,265.8 493.8,265.8 495.7,265.8 497.6,265.8 499.4,265.8 501.3,265.8 503.2,265.8 505.1,265.8 506.9,265.8 508.8,265.8 510.7,265.8 512.5,265.8 514.4,265.8 516.3,265.8 518.1,265.8 520.0,265.8 521.8,265.8 523.6,265.8 525.5,265.8 527.3,265.8 529.1,265.8 531.0,265.8 532.8,265.8 534.6,265.8 536.4,265.8 538.2,265.8 540.0,265.8 541.8,265.8 543.6,265.8 545.4,265.8 547.2,265.8 549.0,265.8 550.8,265.8 552.6,265.8 554.3,265.8 556.1,265.8 557.9,265.8 559.6,265.8 561.4,265.8 563.1,265.8 564.9,265.8 566.6,265.8 568.3,265.8 570.1,265.8 571.8,265.8 573.5,265.8 575.2,265.8 576.9,265.8 578.6,265.8 580.3,265.8 582.0,265.8 583.7,265.8 585.4,265.8 587.1,265.8 588.8,265.8 590.4,265.8 592.1,265.8 593.7,265.8 595.4,265.8 597.0,265.8 598.7,265.8 600.3,265.8 601.9,265.8 603.5,265.8 605.2,265.8 606.8,265.8 608.4,265.8 610.0,265.8 611.6,265.8 613.1,265.8 614.7,265.8 616.3,265.8 617.8,265.8 619.4,265.8 621.0,265.8 622.5,265.8 624.0,265.8 625.6,265.8 627.1,265.8 628.6,265.8 630.1,265.8 631.6,265.8 633.1,265.8 634.6,265.8 636.1,265.8 637.6,265.8 639.0,265.8 640.5,265.8 642.0,265.8 643.4,265.8 644.8,265.8 646.3,265.8 647.7,265.8 649.1,265.8 650.5,265.8 651.9,265.8 653.3,265.8 654.7,265.8 656.1,265.8 657.5,265.8 658.8,265.8 660.2,265.8 661.6,265.8 662.9,265.8 664.2,265.8 665.6,265.8 666.9,265.8 668.2,265.8 669.5,265.8 670.8,265.8 672.1,265.8 673.4,265.8 674.6,265.8 675.9,265.8 677.2,265.8 678.4,265.8 679.7,265.8 680.9,265.8 682.1,265.8 683.3,265.8 684.5,265.8 685.7,265.8 686.9,265.8 688.1,265.8 689.3,265.8 690.4,265.8 691.6,265.8 692.7,265.8 693.9,265.8 695.0,265.8 696.1,265.8 697.2,265.8 698.4,265.8 699.4,265.8 700.5,265.8 701.6,265.8 702.7,265.8 703.7,265.8 704.8,265.8 705.8,265.8 706.9,265.8 707.9,265.8 708.9,265.8 709.9,265.8 710.9,265.8 711.9,265.8 712.9,265.8 713.8,265.8 714.8,265.8 715.8,265.8 716.7,265.8 717.6,265.8 718.6,265.8 719.5,265.8 720.4,265.8 721.3,265.8 722.2,265.8 723.0,265.8 723.9,265.8 724.8,265.8 725.6,265.8 726.4,265.8 727.3,265.8 728.1,265.8 728.9,265.8 729.7,265.8 730.5,265.8 731.2,265.8 732.0,265.8 732.7,265.8 733.5,265.8 734.2,265.8 734.9,265.8 735.6,265.8 736.3,265.8 737.0,265.8 737.7,265.8 738.3,265.8 739.0,265.8 739.6,265.8 740.2,265.8 740.9,265.8 741.5,265.8 742.1,265.8 742.7,265.8 743.3,265.8 743.8,265.8 744.4,265.8 745.0,265.8 745.5,265.8 746.1,265.8 746.6,265.8 747.1,265.8 747.6,265.8 748.1,265.8 748.6,265.8 749.1,265.8 749.6,265.8 750.1,265.8 750.5,265.8 751.0,265.8 751.4,265.8 751.9,265.8 752.3,265.8 752.7,265.8 753.1,265.8 753.5,265.8 753.9,265.8 754.3,265.8 754.7,265.8 755.1,265.8 755.4,265.8 755.8,265.8 756.1,265.8 756.5,265.8 756.8,265.8 757.2,265.8 757.5,265.8 757.8,265.8 758.1,265.8 758.4,265.8 758.7,265.8 759.0,265.8 759.3,265.8 759.6,265.8 759.8,265.8 760.1,265.8 760.3,265.8 760.6,265.8 760.8,265.8 761.1,265.8 761.3,265.8 761.5,265.8 761.7,265.8 761.9,265.8 762.1,265.8 762.3,265.8 762.5,265.9 762.7,265.9 762.9,266.0 763.1,266.0 763.2,266.0 763.4,266.0 763.6,265.9 763.7,265.8 763.9,265.6 764.0,265.5 764.1,265.3 764.3,265.0 764.4,264.7 764.5,264.4 764.6,264.0 764.7,263.6 764.9,263.1 765.0,262.5 765.0,261.9 765.1,261.3 765.2,260.5 765.3,259.8 765.4,258.9 765.4,258.0 765.5,257.0 765.6,256.0 765.6,254.9 765.7,253.8 765.7,252.5 765.8,251.2 765.8,249.8 765.9,248.4 765.9,246.9 765.9,245.3 765.9,243.6 766.0,241.9 766.0,240.1 766.0,238.2 766.0,236.2 766.0,234.2 766.0,232.1 766.0,229.9 766.0,227.7 766.0,225.4 766.0,223.0 766.0,220.6 765.9,218.1 765.9,215.6 765.9,212.9 765.8,210.3 765.8,207.5 765.8,204.7 765.7,201.9 765.7,199.0 765.6,196.0 765.6,192.9 765.5,189.8 765.5,186.6 765.4,183.4 765.4,180.0 765.3,176.6 765.2,173.2 765.2,169.6 765.1,166.0 765.0,162.3 764.9,158.6 764.9,154.7 764.8,150.8 764.7,146.9 764.6,142.8 764.5,138.7 764.4,134.5 764.3,130.3 764.2,126.0 764.1,121.6 764.0,117.2 763.9,112.7 763.8,108.1 763.7,103.5 763.6,98.8 763.5,94.1 763.4,89.3 763.2,84.4 763.1,79.5 763.0,74.5 762.9,69.5 762.8,64.4 762.6,59.2 762.5,54.0"/>
<line x1="606" y1="42" x2="628" y2="42" stroke="#0f62fe" stroke-width="2.2"/>
<text x="634" y="46" font-family="Arial" font-size="12">y_m</text>
</svg>