<svg xmlns="http://www.w3.org/2000/svg" width="820" height="320" viewBox="0 0 820 320">
<rect width="100%" height="100%" fill="#ffffff"/>
<text x="54" y="28" font-family="Arial" font-size="18" font-weight="700">Alpha/Beta</text>
<line x1="54" y1="266" x2="766" y2="266" stroke="#1f2933"/>
<line x1="54" y1="54" x2="54" y2="266" stroke="#1f2933"/>
<text x="54" y="306" font-family="Arial" font-size="12">time (s)</text>
<text x="596" y="306" font-family="Arial" font-size="12">angle (deg)</text>
<text x="58" y="68" font-family="Arial" font-size="11">9.94</text>
<text x="58" y="260" font-family="Arial" font-size="11">-17.4</text>
<polyline fill="none" stroke="#0f62fe" stroke-width="2.2" points="54.0,123.1 55.2,120.0 56.4,116.5 57.6,113.9 58.7,112.1 59.9,110.4 61.1,108.7 62.3,107.1 63.5,105.7 64.7,104.5 65.9,103.4 67.1,102.4 68.2,101.5 69.4,100.7 70.6,100.0 71.8,99.3 73.0,98.7 74.2,98.2 75.4,97.7 76.5,97.3 77.7,96.9 78.9,96.5 80.1,96.2 81.3,95.9 82.5,95.6 83.7,95.4 84.9,95.1 86.0,94.9 87.2,94.7 88.4,94.6 89.6,94.4 90.8,94.3 92.0,94.1 93.2,94.0 94.3,93.9 95.5,93.8 96.7,93.7 97.9,93.7 99.1,93.6 100.3,93.5 101.5,93.5 102.7,93.4 103.8,93.4 105.0,93.3 106.2,93.3 107.4,93.3 108.6,93.2 109.8,93.2 111.0,93.2 112.1,93.2 113.3,93.2 114.5,93.2 115.7,93.2 116.9,93.2 118.1,93.2 119.3,93.2 120.5,93.2 121.6,93.2 122.8,93.3 124.0,93.3 125.2,93.3 126.4,93.3 127.6,93.4 128.8,93.4 129.9,93.4 131.1,93.5 132.3,93.5 133.5,93.6 134.7,93.6 135.9,93.6 137.1,93.7 138.3,93.8 139.4,93.8 140.6,93.9 141.8,93.9 143.0,94.0 144.2,94.0 145.4,94.1 146.6,94.2 147.7,94.2 148.9,94.3 150.1,94.3 151.3,94.3 152.5,94.3 153.7,94.3 154.9,94.3 156.1,94.3 157.2,94.3 158.4,94.3 159.6,94.3 160.8,94.3 162.0,94.3 163.2,94.2 164.4,94.2 165.5,94.2 166.7,94.2 167.9,94.2 169.1,94.2 170.3,94.1 171.5,94.1 172.7,94.1 173.9,94.1 175.0,94.1 176.2,94.1 177.4,94.1 178.6,94.1 179.8,94.1 181.0,94.2 182.2,94.2 183.3,94.2 184.5,94.2 185.7,94.2 186.9,94.3 188.1,94.3 189.3,94.3 190.5,94.4 191.7,94.4 192.8,94.5 194.0,94.5 195.2,94.5 196.4,94.7 197.6,94.6 198.8,94.9 200.0,94.6 201.1,95.3 202.3,94.2 203.5,96.4 204.7,92.4 205.9,93.7 207.1,93.7 208.3,94.3 209.5,94.1 210.6,95.4 211.8,93.4 213.0,98.2 214.2,97.3 215.4,97.1 216.6,97.5 217.8,96.3 218.9,98.9 220.1,93.9 221.3,94.6 222.5,96.4 223.7,93.0 224.9,96.6 226.1,94.5 227.3,98.6 228.4,96.0 229.6,99.2 230.8,95.6 232.0,98.3 233.2,94.6 234.4,97.7 235.6,94.5 236.7,98.2 237.9,95.1 239.1,98.7 240.3,95.3 241.5,98.7 242.7,95.1 243.9,98.4 245.1,94.9 246.2,98.5 247.4,95.0 248.6,98.7 249.8,95.2 251.0,98.8 252.2,95.2 253.4,98.8 254.5,95.1 255.7,98.8 256.9,95.1 258.1,98.9 259.3,95.2 260.5,99.0 261.7,95.2 262.9,99.1 264.0,95.2 265.2,99.1 266.4,95.2 267.6,99.2 268.8,95.2 270.0,99.2 271.2,95.3 272.3,99.3 273.5,95.3 274.7,83.9 275.9,68.0 277.1,56.9 278.3,54.0 279.5,58.8 280.7,67.9 281.8,75.4 283.0,77.9 284.2,75.4 285.4,70.5 286.6,66.4 287.8,65.0 289.0,66.4 290.1,69.1 291.3,71.3 292.5,72.1 293.7,71.4 294.9,69.9 296.1,68.7 297.3,68.3 298.5,68.8 299.6,69.6 300.8,70.3 302.0,70.5 303.2,70.2 304.4,69.8 305.6,69.5 306.8,69.4 307.9,69.6 309.1,69.9 310.3,70.0 311.5,70.1 312.7,70.0 313.9,69.9 315.1,69.8 316.3,69.8 317.4,69.9 318.6,70.0 319.8,70.0 321.0,70.0 322.2,70.0 323.4,70.0 324.6,70.0 325.7,70.0 326.9,70.0 328.1,70.1 329.3,70.1 330.5,70.1 331.7,70.1 332.9,70.1 334.1,70.1 335.2,70.1 336.4,70.1 337.6,70.2 338.8,70.2 340.0,70.2 341.2,70.2 342.4,70.2 343.5,70.2 344.7,70.2 345.9,70.2 347.1,70.3 348.3,70.3 349.5,70.3 350.7,70.3 351.9,70.3 353.0,70.3 354.2,70.3 355.4,70.3 356.6,70.3 357.8,70.3 359.0,70.3 360.2,70.4 361.3,70.4 362.5,70.4 363.7,70.4 364.9,70.4 366.1,70.4 367.3,70.4 368.5,70.4 369.7,70.4 370.8,70.4 372.0,70.4 373.2,70.5 374.4,70.5 375.6,70.5 376.8,70.5 378.0,70.5 379.1,70.5 380.3,70.5 381.5,70.5 382.7,70.5 383.9,70.5 385.1,70.5 386.3,70.5 387.5,70.5 388.6,70.6 389.8,70.6 391.0,70.6 392.2,70.6 393.4,70.6 394.6,70.6 395.8,70.6 396.9,70.6 398.1,70.6 399.3,70.6 400.5,70.6 401.7,70.6 402.9,70.6 404.1,70.6 405.3,70.6 406.4,70.6 407.6,70.6 408.8,70.7 410.0,70.7 411.2,70.7 412.4,70.7 413.6,70.7 414.7,70.7 415.9,70.7 417.1,70.7 418.3,70.7 419.5,70.7 420.7,70.7 421.9,70.7 423.1,70.7 424.2,70.7 425.4,70.7 426.6,70.7 427.8,70.7 429.0,70.7 430.2,70.7 431.4,70.7 432.5,70.7 433.7,70.7 434.9,70.7 436.1,70.7 437.3,70.7 438.5,70.7 439.7,70.8 440.9,70.8 442.0,70.8 443.2,70.8 444.4,70.8 445.6,70.8 446.8,70.8 448.0,70.8 449.2,70.8 450.3,70.8 451.5,70.8 452.7,70.8 453.9,70.8 455.1,70.8 456.3,70.8 457.5,70.8 458.7,70.8 459.8,70.8 461.0,70.8 462.2,70.8 463.4,70.8 464.6,70.8 465.8,70.8 467.0,70.8 468.1,70.8 469.3,70.8 470.5,70.8 471.7,70.8 472.9,70.8 474.1,70.8 475.3,70.8 476.5,70.8 477.6,70.8 478.8,70.8 480.0,70.8 481.2,70.8 482.4,70.8 483.6,70.8 484.8,70.8 485.9,70.8 487.1,70.8 488.3,70.8 489.5,70.8 490.7,70.8 491.9,70.8 493.1,70.8 494.3,70.8 495.4,70.8 496.6,70.8 497.8,70.8 499.0,70.8 500.2,70.8 501.4,70.8 502.6,70.8 503.7,70.8 504.9,70.8 506.1,70.8 507.3,70.8 508.5,70.8 509.7,70.8 510.9,70.8 512.1,70.8 513.2,70.8 514.4,70.8 515.6,70.8 516.8,70.8 518.0,70.8 519.2,70.8 520.4,70.8 521.5,70.8 522.7,70.8 523.9,70.8 525.1,70.8 526.3,70.8 527.5,70.8 528.7,70.8 529.9,70.8 531.0,70.8 532.2,70.8 533.4,70.8 534.6,70.8 535.8,70.8 537.0,70.8 538.2,70.8 539.3,70.8 540.5,70.8 541.7,70.8 542.9,70.8 544.1,70.8 545.3,70.8 546.5,70.8 547.7,70.8 548.8,70.8 550.0,70.8 551.2,70.7 552.4,70.7 553.6,70.7 554.8,70.7 556.0,70.7 557.1,70.7 558.3,70.7 559.5,70.7 560.7,70.7 561.9,70.7 563.1,70.7 564.3,70.7 565.5,70.7 566.6,70.7 567.8,70.7 569.0,70.7 570.2,70.5 571.4,70.4 572.6,70.4 573.8,70.4 574.9,70.5 576.1,70.4 577.3,70.4 578.5,70.3 579.7,70.2 580.9,70.1 582.1,70.1 583.3,70.1 584.4,70.0 585.6,70.0 586.8,69.9 588.0,69.9 589.2,69.8 590.4,69.8 591.6,69.7 592.7,69.7 593.9,69.6 595.1,69.6 596.3,69.6 597.5,69.5 598.7,69.5 599.9,69.4 601.1,69.4 602.2,69.3 603.4,69.3 604.6,69.2 605.8,69.2 607.0,69.1 608.2,69.1 609.4,69.1 610.5,69.0 611.7,69.0 612.9,68.9 614.1,68.9 615.3,68.8 616.5,68.8 617.7,68.7 618.9,68.7 620.0,68.7 621.2,68.6 622.4,68.6 623.6,68.5 624.8,68.5 626.0,68.4 627.2,68.4 628.3,68.4 629.5,68.3 630.7,68.3 631.9,68.2 633.1,68.2 634.3,68.2 635.5,68.1 636.7,68.1 637.8,68.0 639.0,68.0 640.2,67.9 641.4,67.9 642.6,67.9 643.8,67.8 645.0,67.8 646.1,67.7 647.3,67.7 648.5,67.7 649.7,67.6 650.9,67.6 652.1,67.5 653.3,67.5 654.5,67.5 655.6,67.4 656.8,67.4 658.0,67.3 659.2,67.3 660.4,67.2 661.6,67.1 662.8,66.8 663.9,66.4 665.1,66.1 666.3,66.0 667.5,66.3 668.7,66.8 669.9,67.2 671.1,67.4 672.3,67.2 673.4,66.5 674.6,65.8 675.8,65.4 677.0,65.4 678.2,65.6 679.4,65.9 680.6,66.1 681.7,66.3 682.9,66.3 684.1,66.3 685.3,66.1 686.5,65.9 687.7,65.7 688.9,65.6 690.1,65.5 691.2,65.4 692.4,65.5 693.6,65.5 694.8,65.6 696.0,65.6 697.2,65.6 698.4,65.6 699.5,65.6 700.7,65.6 701.9,65.5 703.1,65.5 704.3,65.5 705.5,65.4 706.7,65.4 707.9,65.4 709.0,65.4 710.2,65.3 711.4,65.3 712.6,65.2 713.8,65.2 715.0,65.1 716.2,65.0 717.3,64.9 718.5,64.9 719.7,64.8 720.9,64.7 722.1,64.7 723.3,64.6 724.5,64.5 725.7,64.5 726.8,64.4 728.0,64.4 729.2,64.4 730.4,64.4 731.6,64.4 732.8,64.4 734.0,64.4 735.1,64.4 736.3,64.4 737.5,64.4 738.7,64.4 739.9,64.4 741.1,64.4 742.3,64.4 743.5,64.3 744.6,64.3 745.8,64.3 747.0,64.2 748.2,64.2 749.4,64.1 750.6,64.1 751.8,64.0 752.9,63.9 754.1,63.9 755.3,63.8 756.5,63.8 757.7,63.7 758.9,63.7 760.1,63.6 761.3,63.5 762.4,63.5 763.6,63.4 764.8,63.4 766.0,63.3"/>
<line x1="606" y1="42" x2="628" y2="42" stroke="#0f62fe" stroke-width="2.2"/>
<text x="634" y="46" font-family="Arial" font-size="12">alpha_deg</text>
<polyline fill="none" stroke="#24a148" stroke-width="2.2" points="54.0,131.0 55.2,131.0 56.4,131.0 57.6,131.0 58.7,131.0 59.9,131.0 61.1,131.0 62.3,131.0 63.5,131.0 64.7,131.0 65.9,131.0 67.1,131.0 68.2,131.0 69.4,131.0 70.6,131.0 71.8,131.0 73.0,131.0 74.2,131.0 75.4,131.0 76.5,131.0 77.7,131.0 78.9,131.0 80.1,131.0 81.3,131.0 82.5,131.0 83.7,131.0 84.9,131.0 86.0,131.0 87.2,131.0 88.4,131.0 89.6,131.0 90.8,131.0 92.0,131.0 93.2,131.0 94.3,131.0 95.5,131.0 96.7,131.0 97.9,131.0 99.1,131.0 100.3,131.0 101.5,131.0 102.7,131.0 103.8,131.0 105.0,131.0 106.2,131.0 107.4,131.0 108.6,131.0 109.8,131.0 111.0,131.0 112.1,131.0 113.3,131.0 114.5,131.0 115.7,131.0 116.9,131.0 118.1,131.0 119.3,131.0 120.5,131.0 121.6,131.0 122.8,131.0 124.0,131.0 125.2,131.0 126.4,131.0 127.6,131.0 128.8,131.0 129.9,131.0 131.1,131.0 132.3,131.0 133.5,131.0 134.7,131.0 135.9,131.0 137.1,131.0 138.3,131.0 139.4,131.0 140.6,131.0 141.8,131.0 143.0,131.0 144.2,131.0 145.4,131.0 146.6,131.0 147.7,131.0 148.9,131.0 150.1,131.0 151.3,131.0 152.5,131.0 153.7,131.0 154.9,131.0 156.1,131.0 157.2,131.0 158.4,131.0 159.6,131.0 160.8,131.0 162.0,131.0 163.2,131.0 164.4,131.0 165.5,131.0 166.7,131.0 167.9,131.0 169.1,131.0 170.3,131.0 171.5,131.0 172.7,131.0 173.9,131.0 175.0,131.0 176.2,131.0 177.4,131.0 178.6,131.0 179.8,131.0 181.0,131.0 182.2,131.0 183.3,131.0 184.5,131.0 185.7,131.0 186.9,131.0 188.1,131.0 189.3,131.0 190.5,131.0 191.7,131.0 192.8,131.0 194.0,131.0 195.2,131.0 196.4,131.0 197.6,131.0 198.8,131.0 200.0,131.0 201.1,131.0 202.3,131.0 203.5,131.0 204.7,131.0 205.9,131.0 207.1,131.0 208.3,131.0 209.5,131.0 210.6,131.0 211.8,131.0 213.0,131.0 214.2,131.0 215.4,131.0 216.6,131.0 217.8,131.0 218.9,131.0 220.1,131.0 221.3,131.0 222.5,131.0 223.7,131.0 224.9,131.0 226.1,131.0 227.3,131.0 228.4,131.0 229.6,131.0 230.8,131.0 232.0,131.0 233.2,131.0 234.4,131.0 235.6,131.0 236.7,131.0 237.9,131.0 239.1,131.0 240.3,131.0 241.5,131.0 242.7,131.0 243.9,131.0 245.1,131.0 246.2,131.0 247.4,131.0 248.6,131.0 249.8,131.0 251.0,131.0 252.2,131.0 253.4,131.0 254.5,131.0 255.7,131.0 256.9,131.0 258.1,131.0 259.3,131.0 260.5,131.0 261.7,131.0 262.9,131.0 264.0,131.0 265.2,131.0 266.4,131.0 267.6,131.0 268.8,131.0 270.0,131.0 271.2,131.0 272.3,131.0 273.5,131.0 274.7,131.0 275.9,131.0 277.1,131.0 278.3,131.0 279.5,131.0 280.7,131.0 281.8,131.0 283.0,131.0 284.2,131.0 285.4,131.0 286.6,131.0 287.8,131.0 289.0,131.0 290.1,131.0 291.3,131.0 292.5,131.0 293.7,131.0 294.9,131.0 296.1,131.0 297.3,131.0 298.5,131.0 299.6,131.0 300.8,131.0 302.0,131.0 303.2,131.0 304.4,131.0 305.6,131.0 306.8,131.0 307.9,131.0 309.1,131.0 310.3,131.0 311.5,131.0 312.7,131.0 313.9,131.0 315.1,131.0 316.3,131.0 317.4,131.0 318.6,131.0 319.8,131.0 321.0,131.0 322.2,131.0 323.4,131.0 324.6,131.0 325.7,131.0 326.9,131.0 328.1,131.0 329.3,131.0 330.5,131.0 331.7,131.0 332.9,131.0 334.1,131.0 335.2,131.0 336.4,131.0 337.6,131.0 338.8,131.0 340.0,131.0 341.2,131.0 342.4,131.0 343.5,131.0 344.7,131.0 345.9,131.0 347.1,131.0 348.3,131.0 349.5,131.0 350.7,131.0 351.9,131.0 353.0,131.0 354.2,131.0 355.4,131.0 356.6,131.0 357.8,131.0 359.0,131.0 360.2,131.0 361.3,131.0 362.5,131.0 363.7,131.0 364.9,131.0 366.1,131.0 367.3,131.0 368.5,131.0 369.7,131.0 370.8,131.0 372.0,131.0 373.2,131.0 374.4,131.0 375.6,131.0 376.8,131.0 378.0,131.0 379.1,131.0 380.3,131.0 381.5,131.0 382.7,131.0 383.9,131.0 385.1,131.0 386.3,131.0 387.5,131.0 388.6,131.0 389.8,131.0 391.0,131.0 392.2,131.0 393.4,131.0 394.6,131.0 395.8,131.0 396.9,131.0 398.1,131.0 399.3,131.0 400.5,131.0 401.7,131.0 402.9,131.0 404.1,131.0 405.3,131.0 406.4,131.0 407.6,131.0 408.8,131.0 410.0,131.0 411.2,131.0 412.4,131.0 413.6,131.0 414.7,131.0 415.9,131.0 417.1,131.0 418.3,131.0 419.5,131.0 420.7,131.0 421.9,131.0 423.1,131.0 424.2,131.0 425.4,131.0 426.6,131.0 427.8,131.0 429.0,131.0 430.2,131.0 431.4,131.0 432.5,131.0 433.7,131.0 434.9,131.0 436.1,131.0 437.3,131.0 438.5,131.0 439.7,131.0 440.9,131.0 442.0,131.0 443.2,131.0 444.4,131.0 445.6,131.0 446.8,131.0 448.0,131.0 449.2,131.0 450.3,131.0 451.5,131.0 452.7,131.0 453.9,131.0 455.1,131.0 456.3,131.0 457.5,131.0 458.7,131.0 459.8,131.0 461.0,131.0 462.2,131.0 463.4,131.0 464.6,131.0 465.8,131.0 467.0,131.0 468.1,131.0 469.3,131.0 470.5,131.0 471.7,131.0 472.9,131.0 474.1,131.0 475.3,131.0 476.5,131.0 477.6,131.0 478.8,131.0 480.0,131.0 481.2,131.0 482.4,131.0 483.6,131.0 484.8,131.0 485.9,131.0 487.1,131.0 488.3,131.0 489.5,131.0 490.7,131.0 491.9,131.0 493.1,131.0 494.3,131.0 495.4,131.0 496.6,131.0 497.8,131.0 499.0,131.0 500.2,131.0 501.4,131.0 502.6,131.0 503.7,131.0 504.9,131.0 506.1,131.0 507.3,131.0 508.5,131.0 509.7,131.0 510.9,131.0 512.1,131.0 513.2,131.0 514.4,131.0 515.6,131.0 516.8,131.0 518.0,131.0 519.2,131.0 520.4,131.0 521.5,131.0 522.7,131.0 523.9,131.0 525.1,131.0 526.3,131.0 527.5,131.0 528.7,131.0 529.9,131.0 531.0,131.0 532.2,131.0 533.4,131.0 534.6,131.0 535.8,131.0 537.0,131.0 538.2,131.0 539.3,131.0 540.5,131.0 541.7,131.0 542.9,131.0 544.1,131.0 545.3,131.0 546.5,131.0 547.7,131.0 548.8,131.0 550.0,131.0 551.2,131.0 552.4,131.0 553.6,131.0 554.8,131.0 556.0,131.0 557.1,131.0 558.3,131.0 559.5,131.0 560.7,131.0 561.9,131.0 563.1,131.0 564.3,131.0 565.5,131.0 566.6,131.0 567.8,131.0 569.0,131.0 570.2,131.0 571.4,131.0 572.6,131.0 573.8,131.0 574.9,131.0 576.1,131.0 577.3,131.0 578.5,131.0 579.7,131.0 580.9,131.0 582.1,131.0 583.3,131.0 584.4,131.0 585.6,131.0 586.8,131.0 588.0,131.0 589.2,131.0 590.4,131.0 591.6,131.0 592.7,131.0 593.9,131.0 595.1,131.0 596.3,131.0 597.5,131.0 598.7,131.0 599.9,131.0 601.1,131.0 602.2,131.0 603.4,131.0 604.6,131.0 605.8,131.0 607.0,131.0 608.2,131.0 609.4,131.0 610.5,131.0 611.7,131.0 612.9,131.0 614.1,131.0 615.3,131.0 616.5,131.0 617.7,131.0 618.9,131.0 620.0,131.0 621.2,131.0 622.4,131.0 623.6,131.0 624.8,131.0 626.0,131.0 627.2,131.0 628.3,131.0 629.5,131.0 630.7,131.0 631.9,131.0 633.1,131.0 634.3,131.0 635.5,131.0 636.7,131.0 637.8,131.0 639.0,131.0 640.2,131.0 641.4,131.0 642.6,131.0 643.8,131.0 645.0,131.0 646.1,131.0 647.3,131.0 648.5,131.0 649.7,131.0 650.9,131.0 652.1,131.0 653.3,131.0 654.5,131.0 655.6,131.0 656.8,132.1 658.0,133.2 659.2,134.9 660.4,138.0 661.6,143.0 662.8,149.0 663.9,155.0 665.1,160.7 666.3,166.1 667.5,171.4 668.7,176.7 669.9,182.0 671.1,187.2 672.3,192.0 673.4,196.5 674.6,200.7 675.8,204.9 677.0,209.2 678.2,213.3 679.4,217.2 680.6,221.1 681.7,224.8 682.9,228.4 684.1,232.0 685.3,235.4 686.5,238.7 687.7,242.0 688.9,245.1 690.1,248.2 691.2,251.2 692.4,254.1 693.6,256.9 694.8,259.4 696.0,261.7 697.2,263.6 698.4,264.9 699.5,265.8 700.7,266.0 701.9,265.7 703.1,264.8 704.3,263.4 705.5,261.5 706.7,259.4 707.9,256.9 709.0,254.3 710.2,251.8 711.4,249.2 712.6,246.9 713.8,244.9 715.0,243.3 716.2,242.1 717.3,241.3 718.5,241.1 719.7,241.4 720.9,242.1 722.1,243.3 723.3,245.0 724.5,246.9 725.7,249.1 726.8,251.4 728.0,253.8 729.2,256.2 730.4,258.5 731.6,260.6 732.8,262.4 734.0,263.8 735.1,264.9 736.3,265.6 737.5,265.8 738.7,265.6 739.9,265.0 741.1,263.9 742.3,262.5 743.5,260.8 744.6,258.9 745.8,256.8 747.0,254.6 748.2,252.3 749.4,250.1 750.6,248.0 751.8,246.2 752.9,244.5 754.1,243.2 755.3,242.1 756.5,241.5 757.7,241.2 758.9,241.3 760.1,241.7 761.3,242.6 762.4,243.7 763.6,245.1 764.8,246.8 766.0,248.7"/>
<line x1="606" y1="60" x2="628" y2="60" stroke="#24a148" stroke-width="2.2"/>
<text x="634" y="64" font-family="Arial" font-size="12">beta_deg</text>
</svg>