<svg xmlns="http://www.w3.org/2000/svg" width="820" height="320" viewBox="0 0 820 320">
<rect width="100%" height="100%" fill="#ffffff"/>
<text x="54" y="28" font-family="Arial" font-size="18" font-weight="700">Control Surfaces</text>
<line x1="54" y1="266" x2="766" y2="266" stroke="#1f2933"/>
<line x1="54" y1="54" x2="54" y2="266" stroke="#1f2933"/>
<text x="54" y="306" font-family="Arial" font-size="12">time (s)</text>
<text x="596" y="306" font-family="Arial" font-size="12">deflection (deg)</text>
<text x="58" y="68" font-family="Arial" font-size="11">4.19</text>
<text x="58" y="260" font-family="Arial" font-size="11">-22</text>
<polyline fill="none" stroke="#0f62fe" stroke-width="2.2" points="54.0,109.8 55.2,101.2 56.4,94.4 57.6,97.1 58.7,102.8 59.9,105.5 61.1,105.7 62.3,106.1 63.5,107.4 64.7,108.9 65.9,109.9 67.1,110.5 68.2,111.2 69.4,112.0 70.6,112.6 71.8,113.2 73.0,113.7 74.2,114.1 75.4,114.5 76.5,114.9 77.7,115.3 78.9,115.6 80.1,115.9 81.3,116.2 82.5,116.4 83.7,116.6 84.9,116.9 86.0,117.1 87.2,117.2 88.4,117.4 89.6,117.6 90.8,117.7 92.0,117.8 93.2,118.0 94.3,118.1 95.5,118.2 96.7,118.3 97.9,118.4 99.1,118.4 100.3,118.5 101.5,118.6 102.7,118.7 103.8,118.7 105.0,118.8 106.2,118.8 107.4,118.9 108.6,118.9 109.8,119.0 111.0,119.0 112.1,119.0 113.3,119.1 114.5,119.1 115.7,119.1 116.9,119.1 118.1,119.2 119.3,119.2 120.5,119.2 121.6,119.2 122.8,119.2 124.0,119.2 125.2,119.2 126.4,119.2 127.6,119.2 128.8,119.2 129.9,119.2 131.1,119.2 132.3,119.2 133.5,119.2 134.7,119.1 135.9,119.1 137.1,119.1 138.3,119.1 139.4,119.1 140.6,119.0 141.8,119.0 143.0,119.0 144.2,119.0 145.4,118.9 146.6,118.9 147.7,119.0 148.9,118.9 150.1,118.9 151.3,118.9 152.5,118.9 153.7,119.0 154.9,119.0 156.1,119.0 157.2,119.0 158.4,119.1 159.6,119.1 160.8,119.1 162.0,119.2 163.2,119.2 164.4,119.2 165.5,119.3 166.7,119.3 167.9,119.3 169.1,119.4 170.3,119.4 171.5,119.4 172.7,119.5 173.9,119.5 175.0,119.5 176.2,119.5 177.4,119.5 178.6,119.6 179.8,119.6 181.0,119.6 182.2,119.6 183.3,119.6 184.5,119.6 185.7,119.6 186.9,119.6 188.1,119.6 189.3,119.6 190.5,119.5 191.7,119.6 192.8,119.4 194.0,119.6 195.2,119.2 196.4,119.8 197.6,118.7 198.8,120.5 200.0,117.3 201.1,123.0 202.3,112.2 203.5,132.4 204.7,110.5 205.9,122.7 207.1,119.1 208.3,121.6 209.5,116.6 210.6,126.1 211.8,105.7 213.0,127.5 214.2,116.2 215.4,116.2 216.6,120.8 217.8,110.2 218.9,132.1 220.1,110.2 221.3,116.9 222.5,129.2 223.7,107.3 224.9,129.2 226.1,107.3 227.3,129.2 228.4,107.3 229.6,129.2 230.8,107.3 232.0,129.2 233.2,107.3 234.4,129.2 235.6,107.3 236.7,129.2 237.9,107.3 239.1,129.2 240.3,107.3 241.5,129.2 242.7,107.3 243.9,129.2 245.1,107.3 246.2,129.2 247.4,107.3 248.6,129.2 249.8,107.3 251.0,129.2 252.2,107.3 253.4,129.2 254.5,107.3 255.7,129.2 256.9,107.3 258.1,129.2 259.3,107.3 260.5,129.2 261.7,107.3 262.9,129.2 264.0,107.3 265.2,129.2 266.4,107.3 267.6,129.2 268.8,107.3 270.0,129.2 271.2,107.3 272.3,143.6 273.5,143.6 274.7,143.6 275.9,143.6 277.1,143.6 278.3,143.6 279.5,143.6 280.7,143.6 281.8,143.6 283.0,143.6 284.2,143.6 285.4,143.6 286.6,143.6 287.8,143.6 289.0,143.6 290.1,143.6 291.3,143.6 292.5,143.6 293.7,143.6 294.9,143.6 296.1,143.6 297.3,143.6 298.5,143.6 299.6,143.6 300.8,143.6 302.0,143.6 303.2,143.6 304.4,143.6 305.6,143.6 306.8,143.6 307.9,143.6 309.1,143.6 310.3,143.6 311.5,143.6 312.7,143.6 313.9,143.6 315.1,143.6 316.3,143.6 317.4,143.6 318.6,143.6 319.8,143.6 321.0,143.6 322.2,143.6 323.4,143.6 324.6,143.6 325.7,143.6 326.9,143.6 328.1,143.6 329.3,143.6 330.5,143.6 331.7,143.6 332.9,143.6 334.1,143.6 335.2,143.6 336.4,143.6 337.6,143.6 338.8,143.6 340.0,143.6 341.2,143.6 342.4,143.6 343.5,143.6 344.7,143.6 345.9,143.6 347.1,143.6 348.3,143.6 349.5,143.6 350.7,143.6 351.9,143.6 353.0,143.6 354.2,143.6 355.4,143.6 356.6,143.6 357.8,143.6 359.0,143.6 360.2,143.6 361.3,143.6 362.5,143.6 363.7,143.6 364.9,143.6 366.1,143.6 367.3,143.6 368.5,143.6 369.7,143.6 370.8,143.6 372.0,143.6 373.2,143.6 374.4,143.6 375.6,143.6 376.8,143.6 378.0,143.6 379.1,143.6 380.3,143.6 381.5,143.6 382.7,143.6 383.9,143.6 385.1,143.6 386.3,143.6 387.5,143.6 388.6,143.6 389.8,143.6 391.0,143.6 392.2,143.6 393.4,143.6 394.6,143.6 395.8,143.6 396.9,143.6 398.1,143.6 399.3,143.6 400.5,143.6 401.7,143.6 402.9,143.6 404.1,143.6 405.3,143.6 406.4,143.6 407.6,143.6 408.8,143.6 410.0,143.6 411.2,143.6 412.4,143.6 413.6,143.6 414.7,143.6 415.9,143.6 417.1,143.6 418.3,143.6 419.5,143.6 420.7,143.6 421.9,143.6 423.1,143.6 424.2,143.6 425.4,143.6 426.6,143.6 427.8,143.6 429.0,143.6 430.2,143.6 431.4,143.6 432.5,143.6 433.7,143.6 434.9,143.6 436.1,143.6 437.3,143.6 438.5,143.6 439.7,143.6 440.9,143.6 442.0,143.6 443.2,143.6 444.4,143.6 445.6,143.6 446.8,143.6 448.0,143.6 449.2,143.6 450.3,143.6 451.5,143.6 452.7,143.6 453.9,143.6 455.1,143.6 456.3,143.6 457.5,143.6 458.7,143.6 459.8,143.6 461.0,143.6 462.2,143.6 463.4,143.6 464.6,143.6 465.8,143.6 467.0,143.6 468.1,143.6 469.3,143.6 470.5,143.6 471.7,143.6 472.9,143.6 474.1,143.6 475.3,143.6 476.5,143.6 477.6,143.6 478.8,143.6 480.0,143.6 481.2,143.6 482.4,143.6 483.6,143.6 484.8,143.6 485.9,143.6 487.1,143.6 488.3,143.6 489.5,143.6 490.7,143.6 491.9,143.6 493.1,143.6 494.3,143.6 495.4,143.6 496.6,143.6 497.8,143.6 499.0,143.6 500.2,143.6 501.4,143.6 502.6,143.6 503.7,143.6 504.9,143.6 506.1,143.6 507.3,143.6 508.5,143.6 509.7,143.6 510.9,143.6 512.1,143.6 513.2,143.6 514.4,143.6 515.6,143.6 516.8,143.6 518.0,143.6 519.2,143.6 520.4,143.6 521.5,143.6 522.7,143.6 523.9,143.6 525.1,143.6 526.3,143.6 527.5,143.6 528.7,143.6 529.9,143.6 531.0,143.6 532.2,143.6 533.4,143.6 534.6,143.6 535.8,143.6 537.0,143.6 538.2,143.6 539.3,143.6 540.5,143.6 541.7,143.6 542.9,143.6 544.1,143.6 545.3,143.6 546.5,143.6 547.7,143.6 548.8,143.6 550.0,143.6 551.2,143.6 552.4,143.6 553.6,143.6 554.8,143.6 556.0,143.6 557.1,143.6 558.3,143.6 559.5,143.6 560.7,143.6 561.9,143.6 563.1,143.6 564.3,143.6 565.5,143.6 566.6,143.6 567.8,143.6 569.0,143.6 570.2,143.6 571.4,143.6 572.6,143.6 573.8,143.6 574.9,143.6 576.1,143.6 577.3,143.6 578.5,143.6 579.7,143.6 580.9,143.6 582.1,143.6 583.3,143.6 584.4,143.6 585.6,143.6 586.8,143.6 588.0,143.6 589.2,143.6 590.4,143.6 591.6,143.6 592.7,143.6 593.9,143.6 595.1,143.6 596.3,143.6 597.5,143.6 598.7,143.6 599.9,143.6 601.1,143.6 602.2,143.6 603.4,143.6 604.6,143.6 605.8,143.6 607.0,143.6 608.2,143.6 609.4,143.6 610.5,143.6 611.7,143.6 612.9,143.6 614.1,143.6 615.3,143.6 616.5,143.6 617.7,143.6 618.9,143.6 620.0,143.6 621.2,143.6 622.4,143.6 623.6,143.6 624.8,143.6 626.0,143.6 627.2,143.6 628.3,143.6 629.5,143.6 630.7,143.6 631.9,143.6 633.1,143.6 634.3,143.6 635.5,143.6 636.7,143.6 637.8,143.6 639.0,143.6 640.2,143.6 641.4,143.6 642.6,143.6 643.8,143.6 645.0,143.6 646.1,143.6 647.3,143.6 648.5,143.6 649.7,143.6 650.9,143.6 652.1,143.6 653.3,143.6 654.5,143.6 655.6,143.6 656.8,143.6 658.0,143.6 659.2,143.6 660.4,143.6 661.6,143.6 662.8,143.6 663.9,143.6 665.1,143.6 666.3,143.6 667.5,143.6 668.7,143.6 669.9,143.6 671.1,143.6 672.3,143.6 673.4,143.6 674.6,143.6 675.8,143.6 677.0,143.6 678.2,143.6 679.4,143.6 680.6,143.6 681.7,143.6 682.9,143.6 684.1,143.6 685.3,143.6 686.5,143.6 687.7,143.6 688.9,143.6 690.1,143.6 691.2,143.6 692.4,143.6 693.6,143.6 694.8,143.6 696.0,143.6 697.2,143.6 698.4,143.6 699.5,143.6 700.7,143.6 701.9,143.6 703.1,143.6 704.3,143.6 705.5,143.6 706.7,143.6 707.9,143.6 709.0,143.6 710.2,143.6 711.4,143.6 712.6,143.6 713.8,143.6 715.0,143.6 716.2,143.6 717.3,143.6 718.5,143.6 719.7,143.6 720.9,143.6 722.1,143.6 723.3,143.6 724.5,143.6 725.7,143.6 726.8,143.6 728.0,143.6 729.2,143.6 730.4,143.6 731.6,143.6 732.8,143.6 734.0,143.6 735.1,143.6 736.3,143.6 737.5,143.6 738.7,143.6 739.9,143.6 741.1,143.6 742.3,143.6 743.5,143.6 744.6,143.6 745.8,143.6 747.0,143.6 748.2,143.6 749.4,143.6 750.6,143.6 751.8,143.6 752.9,143.6 754.1,143.6 755.3,143.6 756.5,143.6 757.7,143.6 758.9,143.6 760.1,143.6 761.3,143.6 762.4,143.6 763.6,143.6 764.8,143.6 766.0,143.6"/>
<line x1="606" y1="42" x2="628" y2="42" stroke="#0f62fe" stroke-width="2.2"/>
<text x="634" y="46" font-family="Arial" font-size="12">elevator_deg</text>
<polyline fill="none" stroke="#24a148" stroke-width="2.2" points="54.0,87.9 55.2,87.9 56.4,87.9 57.6,87.9 58.7,87.9 59.9,87.9 61.1,87.9 62.3,87.9 63.5,87.9 64.7,87.9 65.9,87.9 67.1,87.9 68.2,87.9 69.4,87.9 70.6,87.9 71.8,87.9 73.0,87.9 74.2,87.9 75.4,87.9 76.5,87.9 77.7,87.9 78.9,87.9 80.1,87.9 81.3,87.9 82.5,87.9 83.7,87.9 84.9,87.9 86.0,87.9 87.2,87.9 88.4,87.9 89.6,87.9 90.8,87.9 92.0,87.9 93.2,87.9 94.3,87.9 95.5,87.9 96.7,87.9 97.9,87.9 99.1,87.9 100.3,87.9 101.5,87.9 102.7,87.9 103.8,87.9 105.0,87.9 106.2,87.9 107.4,87.9 108.6,87.9 109.8,87.9 111.0,87.9 112.1,87.9 113.3,87.9 114.5,87.9 115.7,87.9 116.9,87.9 118.1,87.9 119.3,87.9 120.5,87.9 121.6,87.9 122.8,87.9 124.0,87.9 125.2,87.9 126.4,87.9 127.6,87.9 128.8,87.9 129.9,87.9 131.1,87.9 132.3,87.9 133.5,87.9 134.7,87.9 135.9,87.9 137.1,87.9 138.3,87.9 139.4,87.9 140.6,87.9 141.8,87.9 143.0,87.9 144.2,87.9 145.4,87.9 146.6,87.9 147.7,87.9 148.9,87.9 150.1,87.9 151.3,87.9 152.5,87.9 153.7,87.9 154.9,87.9 156.1,87.9 157.2,87.9 158.4,87.9 159.6,87.9 160.8,87.9 162.0,87.9 163.2,87.9 164.4,87.9 165.5,87.9 166.7,87.9 167.9,87.9 169.1,87.9 170.3,87.9 171.5,87.9 172.7,87.9 173.9,87.9 175.0,87.9 176.2,87.9 177.4,87.9 178.6,87.9 179.8,87.9 181.0,87.9 182.2,87.9 183.3,87.9 184.5,87.9 185.7,87.9 186.9,87.9 188.1,87.9 189.3,87.9 190.5,87.9 191.7,87.9 192.8,87.9 194.0,87.9 195.2,87.9 196.4,87.9 197.6,87.9 198.8,87.9 200.0,87.9 201.1,87.9 202.3,87.9 203.5,87.9 204.7,87.9 205.9,87.9 207.1,87.9 208.3,87.9 209.5,87.9 210.6,87.9 211.8,87.9 213.0,87.9 214.2,87.9 215.4,87.9 216.6,87.9 217.8,87.9 218.9,87.9 220.1,87.9 221.3,87.9 222.5,87.9 223.7,87.9 224.9,87.9 226.1,87.9 227.3,87.9 228.4,87.9 229.6,87.9 230.8,87.9 232.0,87.9 233.2,87.9 234.4,87.9 235.6,87.9 236.7,87.9 237.9,87.9 239.1,87.9 240.3,87.9 241.5,87.9 242.7,87.9 243.9,87.9 245.1,87.9 246.2,87.9 247.4,87.9 248.6,87.9 249.8,87.9 251.0,87.9 252.2,87.9 253.4,87.9 254.5,87.9 255.7,87.9 256.9,87.9 258.1,87.9 259.3,87.9 260.5,87.9 261.7,87.9 262.9,87.9 264.0,87.9 265.2,87.9 266.4,87.9 267.6,87.9 268.8,87.9 270.0,87.9 271.2,87.9 272.3,87.9 273.5,87.9 274.7,87.9 275.9,87.9 277.1,87.9 278.3,87.9 279.5,87.9 280.7,87.9 281.8,87.9 283.0,87.9 284.2,87.9 285.4,87.9 286.6,87.9 287.8,87.9 289.0,87.9 290.1,87.9 291.3,87.9 292.5,87.9 293.7,87.9 294.9,87.9 296.1,87.9 297.3,87.9 298.5,87.9 299.6,87.9 300.8,87.9 302.0,87.9 303.2,87.9 304.4,87.9 305.6,87.9 306.8,87.9 307.9,87.9 309.1,87.9 310.3,87.9 311.5,87.9 312.7,87.9 313.9,87.9 315.1,87.9 316.3,87.9 317.4,87.9 318.6,87.9 319.8,87.9 321.0,87.9 322.2,87.9 323.4,87.9 324.6,87.9 325.7,87.9 326.9,87.9 328.1,87.9 329.3,87.9 330.5,87.9 331.7,87.9 332.9,87.9 334.1,87.9 335.2,87.9 336.4,87.9 337.6,87.9 338.8,87.9 340.0,87.9 341.2,87.9 342.4,87.9 343.5,87.9 344.7,87.9 345.9,87.9 347.1,87.9 348.3,87.9 349.5,87.9 350.7,87.9 351.9,87.9 353.0,87.9 354.2,87.9 355.4,87.9 356.6,87.9 357.8,87.9 359.0,87.9 360.2,87.9 361.3,87.9 362.5,87.9 363.7,87.9 364.9,87.9 366.1,87.9 367.3,87.9 368.5,87.9 369.7,87.9 370.8,87.9 372.0,87.9 373.2,87.9 374.4,87.9 375.6,87.9 376.8,87.9 378.0,87.9 379.1,87.9 380.3,87.9 381.5,87.9 382.7,87.9 383.9,87.9 385.1,87.9 386.3,87.9 387.5,87.9 388.6,87.9 389.8,87.9 391.0,87.9 392.2,87.9 393.4,87.9 394.6,87.9 395.8,87.9 396.9,87.9 398.1,87.9 399.3,87.9 400.5,87.9 401.7,87.9 402.9,87.9 404.1,87.9 405.3,87.9 406.4,87.9 407.6,87.9 408.8,87.9 410.0,87.9 411.2,87.9 412.4,87.9 413.6,87.9 414.7,87.9 415.9,87.9 417.1,87.9 418.3,87.9 419.5,87.9 420.7,87.9 421.9,87.9 423.1,87.9 424.2,87.9 425.4,87.9 426.6,87.9 427.8,87.9 429.0,87.9 430.2,87.9 431.4,87.9 432.5,87.9 433.7,87.9 434.9,87.9 436.1,87.9 437.3,87.9 438.5,87.9 439.7,87.9 440.9,87.9 442.0,87.9 443.2,87.9 444.4,87.9 445.6,87.9 446.8,87.9 448.0,87.9 449.2,87.9 450.3,87.9 451.5,87.9 452.7,87.9 453.9,87.9 455.1,87.9 456.3,87.9 457.5,87.9 458.7,87.9 459.8,87.9 461.0,87.9 462.2,87.9 463.4,87.9 464.6,87.9 465.8,87.9 467.0,87.9 468.1,87.9 469.3,87.9 470.5,87.9 471.7,87.9 472.9,87.9 474.1,87.9 475.3,87.9 476.5,87.9 477.6,87.9 478.8,87.9 480.0,87.9 481.2,87.9 482.4,87.9 483.6,87.9 484.8,87.9 485.9,87.9 487.1,87.9 488.3,87.9 489.5,87.9 490.7,87.9 491.9,87.9 493.1,87.9 494.3,87.9 495.4,87.9 496.6,87.9 497.8,87.9 499.0,87.9 500.2,87.9 501.4,87.9 502.6,87.9 503.7,87.9 504.9,87.9 506.1,87.9 507.3,87.9 508.5,87.9 509.7,87.9 510.9,87.9 512.1,87.9 513.2,87.9 514.4,87.9 515.6,87.9 516.8,87.9 518.0,87.9 519.2,87.9 520.4,87.9 521.5,87.9 522.7,87.9 523.9,87.9 525.1,87.9 526.3,87.9 527.5,87.9 528.7,87.9 529.9,87.9 531.0,87.9 532.2,87.9 533.4,87.9 534.6,87.9 535.8,87.9 537.0,87.9 538.2,87.9 539.3,87.9 540.5,87.9 541.7,87.9 542.9,87.9 544.1,87.9 545.3,87.9 546.5,87.9 547.7,87.9 548.8,87.9 550.0,87.9 551.2,87.9 552.4,87.9 553.6,87.9 554.8,87.9 556.0,87.9 557.1,87.9 558.3,87.9 559.5,87.9 560.7,87.9 561.9,87.9 563.1,87.9 564.3,87.9 565.5,87.9 566.6,87.9 567.8,87.9 569.0,87.9 570.2,87.9 571.4,87.9 572.6,87.9 573.8,87.9 574.9,87.9 576.1,87.9 577.3,87.9 578.5,87.9 579.7,87.9 580.9,87.9 582.1,87.9 583.3,87.9 584.4,87.9 585.6,87.9 586.8,87.9 588.0,87.9 589.2,87.9 590.4,87.9 591.6,87.9 592.7,87.9 593.9,87.9 595.1,87.9 596.3,87.9 597.5,87.9 598.7,87.9 599.9,87.9 601.1,87.9 602.2,87.9 603.4,87.9 604.6,87.9 605.8,87.9 607.0,87.9 608.2,87.9 609.4,87.9 610.5,87.9 611.7,87.9 612.9,87.9 614.1,87.9 615.3,87.9 616.5,87.9 617.7,87.9 618.9,87.9 620.0,87.9 621.2,87.9 622.4,87.9 623.6,87.9 624.8,87.9 626.0,87.9 627.2,87.9 628.3,87.9 629.5,87.9 630.7,87.9 631.9,87.9 633.1,87.9 634.3,87.9 635.5,87.9 636.7,87.9 637.8,87.9 639.0,87.9 640.2,87.9 641.4,87.9 642.6,87.9 643.8,87.9 645.0,87.9 646.1,87.9 647.3,87.9 648.5,87.9 649.7,87.9 650.9,87.9 652.1,87.9 653.3,87.9 654.5,87.9 655.6,66.0 656.8,87.9 658.0,109.8 659.2,131.6 660.4,153.5 661.6,131.6 662.8,109.8 663.9,87.9 665.1,66.0 666.3,54.0 667.5,75.9 668.7,97.7 669.9,119.6 671.1,141.4 672.3,152.1 673.4,130.2 674.6,108.4 675.8,101.9 677.0,121.8 678.2,133.0 679.4,130.9 680.6,127.7 681.7,129.2 682.9,132.8 684.1,135.2 685.3,136.4 686.5,137.5 687.7,139.0 688.9,140.6 690.1,142.2 691.2,143.5 692.4,144.8 693.6,146.1 694.8,147.4 696.0,148.6 697.2,149.6 698.4,150.4 699.5,151.0 700.7,151.3 701.9,151.3 703.1,151.1 704.3,150.6 705.5,149.9 706.7,149.0 707.9,147.9 709.0,146.7 710.2,145.5 711.4,144.3 712.6,143.2 713.8,142.1 715.0,141.2 716.2,140.5 717.3,139.9 718.5,139.7 719.7,139.6 720.9,139.8 722.1,140.2 723.3,140.8 724.5,141.6 725.7,142.5 726.8,143.6 728.0,144.7 729.2,145.8 730.4,146.9 731.6,148.0 732.8,149.0 734.0,149.8 735.1,150.5 736.3,150.9 737.5,151.2 738.7,151.3 739.9,151.2 741.1,150.9 742.3,150.4 743.5,149.7 744.6,148.9 745.8,148.0 747.0,147.0 748.2,146.0 749.4,144.9 750.6,143.9 751.8,143.0 752.9,142.1 754.1,141.3 755.3,140.7 756.5,140.2 757.7,139.9 758.9,139.8 760.1,139.8 761.3,140.0 762.4,140.4 763.6,140.9 764.8,141.6 766.0,142.3"/>
<line x1="606" y1="60" x2="628" y2="60" stroke="#24a148" stroke-width="2.2"/>
<text x="634" y="64" font-family="Arial" font-size="12">aileron_deg</text>
<polyline fill="none" stroke="#da1e28" stroke-width="2.2" points="54.0,87.9 55.2,87.9 56.4,87.9 57.6,87.9 58.7,87.9 59.9,87.9 61.1,87.9 62.3,87.9 63.5,87.9 64.7,87.9 65.9,87.9 67.1,87.9 68.2,87.9 69.4,87.9 70.6,87.9 71.8,87.9 73.0,87.9 74.2,87.9 75.4,87.9 76.5,87.9 77.7,87.9 78.9,87.9 80.1,87.9 81.3,87.9 82.5,87.9 83.7,87.9 84.9,87.9 86.0,87.9 87.2,87.9 88.4,87.9 89.6,87.9 90.8,87.9 92.0,87.9 93.2,87.9 94.3,87.9 95.5,87.9 96.7,87.9 97.9,87.9 99.1,87.9 100.3,87.9 101.5,87.9 102.7,87.9 103.8,87.9 105.0,87.9 106.2,87.9 107.4,87.9 108.6,87.9 109.8,87.9 111.0,87.9 112.1,87.9 113.3,87.9 114.5,87.9 115.7,87.9 116.9,87.9 118.1,87.9 119.3,87.9 120.5,87.9 121.6,87.9 122.8,87.9 124.0,87.9 125.2,87.9 126.4,87.9 127.6,87.9 128.8,87.9 129.9,87.9 131.1,87.9 132.3,87.9 133.5,87.9 134.7,87.9 135.9,87.9 137.1,87.9 138.3,87.9 139.4,87.9 140.6,87.9 141.8,87.9 143.0,87.9 144.2,87.9 145.4,87.9 146.6,87.9 147.7,87.9 148.9,87.9 150.1,87.9 151.3,87.9 152.5,87.9 153.7,87.9 154.9,87.9 156.1,87.9 157.2,87.9 158.4,87.9 159.6,87.9 160.8,87.9 162.0,87.9 163.2,87.9 164.4,87.9 165.5,87.9 166.7,87.9 167.9,87.9 169.1,87.9 170.3,87.9 171.5,87.9 172.7,87.9 173.9,87.9 175.0,87.9 176.2,87.9 177.4,87.9 178.6,87.9 179.8,87.9 181.0,87.9 182.2,87.9 183.3,87.9 184.5,87.9 185.7,87.9 186.9,87.9 188.1,87.9 189.3,87.9 190.5,87.9 191.7,87.9 192.8,87.9 194.0,87.9 195.2,87.9 196.4,87.9 197.6,87.9 198.8,87.9 200.0,87.9 201.1,87.9 202.3,87.9 203.5,87.9 204.7,87.9 205.9,87.9 207.1,87.9 208.3,87.9 209.5,87.9 210.6,87.9 211.8,87.9 213.0,87.9 214.2,87.9 215.4,87.9 216.6,87.9 217.8,87.9 218.9,87.9 220.1,87.9 221.3,87.9 222.5,87.9 223.7,87.9 224.9,87.9 226.1,87.9 227.3,87.9 228.4,87.9 229.6,87.9 230.8,87.9 232.0,87.9 233.2,87.9 234.4,87.9 235.6,87.9 236.7,87.9 237.9,87.9 239.1,87.9 240.3,87.9 241.5,87.9 242.7,87.9 243.9,87.9 245.1,87.9 246.2,87.9 247.4,87.9 248.6,87.9 249.8,87.9 251.0,87.9 252.2,87.9 253.4,87.9 254.5,87.9 255.7,87.9 256.9,87.9 258.1,87.9 259.3,87.9 260.5,87.9 261.7,87.9 262.9,87.9 264.0,87.9 265.2,87.9 266.4,87.9 267.6,87.9 268.8,87.9 270.0,87.9 271.2,87.9 272.3,87.9 273.5,87.9 274.7,87.9 275.9,87.9 277.1,87.9 278.3,87.9 279.5,87.9 280.7,87.9 281.8,87.9 283.0,87.9 284.2,87.9 285.4,87.9 286.6,87.9 287.8,87.9 289.0,87.9 290.1,87.9 291.3,87.9 292.5,87.9 293.7,87.9 294.9,87.9 296.1,87.9 297.3,87.9 298.5,87.9 299.6,87.9 300.8,87.9 302.0,87.9 303.2,87.9 304.4,87.9 305.6,87.9 306.8,87.9 307.9,87.9 309.1,87.9 310.3,87.9 311.5,87.9 312.7,87.9 313.9,87.9 315.1,87.9 316.3,87.9 317.4,87.9 318.6,87.9 319.8,87.9 321.0,87.9 322.2,87.9 323.4,87.9 324.6,87.9 325.7,87.9 326.9,87.9 328.1,87.9 329.3,87.9 330.5,87.9 331.7,87.9 332.9,87.9 334.1,87.9 335.2,87.9 336.4,87.9 337.6,87.9 338.8,87.9 340.0,87.9 341.2,87.9 342.4,87.9 343.5,87.9 344.7,87.9 345.9,87.9 347.1,87.9 348.3,87.9 349.5,87.9 350.7,87.9 351.9,87.9 353.0,87.9 354.2,87.9 355.4,87.9 356.6,87.9 357.8,87.9 359.0,87.9 360.2,87.9 361.3,87.9 362.5,87.9 363.7,87.9 364.9,87.9 366.1,87.9 367.3,87.9 368.5,87.9 369.7,87.9 370.8,87.9 372.0,87.9 373.2,87.9 374.4,87.9 375.6,87.9 376.8,87.9 378.0,87.9 379.1,87.9 380.3,87.9 381.5,87.9 382.7,87.9 383.9,87.9 385.1,87.9 386.3,87.9 387.5,87.9 388.6,87.9 389.8,87.9 391.0,87.9 392.2,87.9 393.4,87.9 394.6,87.9 395.8,87.9 396.9,87.9 398.1,87.9 399.3,87.9 400.5,87.9 401.7,87.9 402.9,87.9 404.1,87.9 405.3,87.9 406.4,87.9 407.6,87.9 408.8,87.9 410.0,87.9 411.2,87.9 412.4,87.9 413.6,87.9 414.7,87.9 415.9,87.9 417.1,87.9 418.3,87.9 419.5,87.9 420.7,87.9 421.9,87.9 423.1,87.9 424.2,87.9 425.4,87.9 426.6,87.9 427.8,87.9 429.0,87.9 430.2,87.9 431.4,87.9 432.5,87.9 433.7,87.9 434.9,87.9 436.1,87.9 437.3,87.9 438.5,87.9 439.7,87.9 440.9,87.9 442.0,87.9 443.2,87.9 444.4,87.9 445.6,87.9 446.8,87.9 448.0,87.9 449.2,87.9 450.3,87.9 451.5,87.9 452.7,87.9 453.9,87.9 455.1,87.9 456.3,87.9 457.5,87.9 458.7,87.9 459.8,87.9 461.0,87.9 462.2,87.9 463.4,87.9 464.6,87.9 465.8,87.9 467.0,87.9 468.1,87.9 469.3,87.9 470.5,87.9 471.7,87.9 472.9,87.9 474.1,87.9 475.3,87.9 476.5,87.9 477.6,87.9 478.8,87.9 480.0,87.9 481.2,87.9 482.4,87.9 483.6,87.9 484.8,87.9 485.9,87.9 487.1,87.9 488.3,87.9 489.5,87.9 490.7,87.9 491.9,87.9 493.1,87.9 494.3,87.9 495.4,87.9 496.6,87.9 497.8,87.9 499.0,87.9 500.2,87.9 501.4,87.9 502.6,87.9 503.7,87.9 504.9,87.9 506.1,87.9 507.3,87.9 508.5,87.9 509.7,87.9 510.9,87.9 512.1,87.9 513.2,87.9 514.4,87.9 515.6,87.9 516.8,87.9 518.0,87.9 519.2,87.9 520.4,87.9 521.5,87.9 522.7,87.9 523.9,87.9 525.1,87.9 526.3,87.9 527.5,87.9 528.7,87.9 529.9,87.9 531.0,87.9 532.2,87.9 533.4,87.9 534.6,87.9 535.8,87.9 537.0,87.9 538.2,87.9 539.3,87.9 540.5,87.9 541.7,87.9 542.9,87.9 544.1,87.9 545.3,87.9 546.5,87.9 547.7,87.9 548.8,87.9 550.0,87.9 551.2,87.9 552.4,87.9 553.6,87.9 554.8,87.9 556.0,87.9 557.1,87.9 558.3,87.9 559.5,87.9 560.7,87.9 561.9,87.9 563.1,87.9 564.3,87.9 565.5,87.9 566.6,87.9 567.8,87.9 569.0,87.9 570.2,87.9 571.4,87.9 572.6,87.9 573.8,87.9 574.9,87.9 576.1,87.9 577.3,87.9 578.5,87.9 579.7,87.9 580.9,87.9 582.1,87.9 583.3,87.9 584.4,87.9 585.6,87.9 586.8,87.9 588.0,87.9 589.2,87.9 590.4,87.9 591.6,87.9 592.7,87.9 593.9,87.9 595.1,87.9 596.3,87.9 597.5,87.9 598.7,87.9 599.9,87.9 601.1,87.9 602.2,87.9 603.4,87.9 604.6,87.9 605.8,87.9 607.0,87.9 608.2,87.9 609.4,87.9 610.5,87.9 611.7,87.9 612.9,87.9 614.1,87.9 615.3,87.9 616.5,87.9 617.7,87.9 618.9,87.9 620.0,87.9 621.2,87.9 622.4,87.9 623.6,87.9 624.8,87.9 626.0,87.9 627.2,87.9 628.3,87.9 629.5,87.9 630.7,87.9 631.9,87.9 633.1,87.9 634.3,87.9 635.5,87.9 636.7,87.9 637.8,87.9 639.0,87.9 640.2,87.9 641.4,87.9 642.6,87.9 643.8,87.9 645.0,87.9 646.1,87.9 647.3,87.9 648.5,87.9 649.7,87.9 650.9,87.9 652.1,87.9 653.3,87.9 654.5,87.9 655.6,109.8 656.8,87.9 658.0,109.8 659.2,131.6 660.4,153.5 661.6,139.0 662.8,120.4 663.9,113.6 665.1,118.8 666.3,129.9 667.5,141.8 668.7,151.9 669.9,160.1 671.1,167.3 672.3,174.0 673.4,180.4 674.6,186.8 675.8,192.9 677.0,198.9 678.2,204.9 679.4,210.7 680.6,216.3 681.7,221.8 682.9,227.1 684.1,232.3 685.3,237.3 686.5,242.2 687.7,247.0 688.9,251.6 690.1,256.1 691.2,260.5 692.4,263.8 693.6,265.1 694.8,265.6 696.0,265.9 697.2,265.9 698.4,266.0 699.5,266.0 700.7,266.0 701.9,266.0 703.1,266.0 704.3,266.0 705.5,266.0 706.7,266.0 707.9,266.0 709.0,266.0 710.2,266.0 711.4,266.0 712.6,266.0 713.8,266.0 715.0,266.0 716.2,266.0 717.3,266.0 718.5,266.0 719.7,266.0 720.9,266.0 722.1,266.0 723.3,266.0 724.5,266.0 725.7,266.0 726.8,266.0 728.0,266.0 729.2,266.0 730.4,266.0 731.6,266.0 732.8,266.0 734.0,266.0 735.1,266.0 736.3,266.0 737.5,266.0 738.7,266.0 739.9,266.0 741.1,266.0 742.3,266.0 743.5,266.0 744.6,266.0 745.8,266.0 747.0,266.0 748.2,266.0 749.4,266.0 750.6,266.0 751.8,266.0 752.9,266.0 754.1,266.0 755.3,266.0 756.5,266.0 757.7,266.0 758.9,266.0 760.1,266.0 761.3,266.0 762.4,266.0 763.6,266.0 764.8,266.0 766.0,266.0"/>
<line x1="606" y1="78" x2="628" y2="78" stroke="#da1e28" stroke-width="2.2"/>
<text x="634" y="82" font-family="Arial" font-size="12">rudder_deg</text>
</svg>