<svg xmlns="http://www.w3.org/2000/svg" width="820" height="320" viewBox="0 0 820 320">
<rect width="100%" height="100%" fill="#ffffff"/>
<text x="54" y="28" font-family="Arial" font-size="18" font-weight="700">GPS Altitude vs Truth</text>
<line x1="54" y1="266" x2="766" y2="266" stroke="#1f2933"/>
<line x1="54" y1="54" x2="54" y2="266" stroke="#1f2933"/>
<text x="54" y="306" font-family="Arial" font-size="12">time (s)</text>
<text x="596" y="306" font-family="Arial" font-size="12">altitude (m)</text>
<text x="58" y="68" font-family="Arial" font-size="11">1.53e+03</text>
<text x="58" y="260" font-family="Arial" font-size="11">19.3</text>
<polyline fill="none" stroke="#0f62fe" stroke-width="2.2" points="54.0,265.9 55.2,265.9 56.4,265.9 57.6,265.8 58.7,265.8 59.9,265.8 61.1,265.8 62.3,265.8 63.5,265.7 64.7,265.7 65.9,265.7 67.1,265.7 68.2,265.7 69.4,265.7 70.6,265.6 71.8,265.6 73.0,265.6 74.2,265.6 75.4,265.6 76.5,265.6 77.7,265.6 78.9,265.5 80.1,265.5 81.3,265.5 82.5,265.5 83.7,265.5 84.9,265.5 86.0,265.5 87.2,265.5 88.4,265.5 89.6,265.5 90.8,265.5 92.0,265.4 93.2,265.4 94.3,265.4 95.5,265.4 96.7,265.4 97.9,265.4 99.1,265.4 100.3,265.4 101.5,265.4 102.7,265.4 103.8,265.4 105.0,265.4 106.2,265.4 107.4,265.4 108.6,265.4 109.8,265.4 111.0,265.4 112.1,265.4 113.3,265.4 114.5,265.4 115.7,265.4 116.9,265.4 118.1,265.4 119.3,265.4 120.5,265.4 121.6,265.4 122.8,265.4 124.0,265.4 125.2,265.4 126.4,265.4 127.6,265.4 128.8,265.4 129.9,265.4 131.1,265.4 132.3,265.4 133.5,265.4 134.7,265.4 135.9,265.4 137.1,265.4 138.3,265.4 139.4,265.4 140.6,265.4 141.8,265.4 143.0,265.4 144.2,265.4 145.4,265.4 146.6,265.4 147.7,265.4 148.9,265.4 150.1,265.4 151.3,265.4 152.5,265.4 153.7,265.4 154.9,265.4 156.1,265.4 157.2,265.4 158.4,265.4 159.6,265.4 160.8,265.4 162.0,265.4 163.2,265.4 164.4,265.4 165.5,265.4 166.7,265.4 167.9,265.4 169.1,265.4 170.3,265.4 171.5,265.4 172.7,265.4 173.9,265.4 175.0,265.4 176.2,265.4 177.4,265.3 178.6,265.3 179.8,265.3 181.0,265.3 182.2,265.3 183.3,265.3 184.5,265.3 185.7,265.3 186.9,265.3 188.1,265.3 189.3,265.3 190.5,265.3 191.7,265.3 192.8,265.3 194.0,265.3 195.2,265.3 196.4,265.3 197.6,265.3 198.8,265.3 200.0,265.2 201.1,265.2 202.3,265.2 203.5,265.2 204.7,265.2 205.9,265.2 207.1,265.2 208.3,265.2 209.5,265.2 210.6,265.1 211.8,265.1 213.0,265.1 214.2,265.1 215.4,265.1 216.6,265.1 217.8,265.0 218.9,265.0 220.1,265.0 221.3,265.0 222.5,265.0 223.7,265.0 224.9,264.9 226.1,264.9 227.3,264.9 228.4,264.9 229.6,264.8 230.8,264.8 232.0,264.8 233.2,264.8 234.4,264.7 235.6,264.7 236.7,264.7 237.9,264.7 239.1,264.6 240.3,264.6 241.5,264.6 242.7,264.5 243.9,264.5 245.1,264.5 246.2,264.5 247.4,264.4 248.6,264.4 249.8,264.3 251.0,264.3 252.2,264.3 253.4,264.2 254.5,264.2 255.7,264.2 256.9,264.1 258.1,264.1 259.3,264.0 260.5,264.0 261.7,263.9 262.9,263.9 264.0,263.9 265.2,263.8 266.4,263.8 267.6,263.7 268.8,263.7 270.0,263.6 271.2,263.6 272.3,263.5 273.5,263.4 274.7,263.4 275.9,263.3 277.1,263.3 278.3,263.2 279.5,263.1 280.7,263.1 281.8,263.0 283.0,262.9 284.2,262.8 285.4,262.8 286.6,262.7 287.8,262.6 289.0,262.5 290.1,262.4 291.3,262.3 292.5,262.2 293.7,262.1 294.9,262.0 296.1,261.9 297.3,261.8 298.5,261.7 299.6,261.6 300.8,261.4 302.0,261.3 303.2,261.2 304.4,261.1 305.6,260.9 306.8,260.8 307.9,260.7 309.1,260.5 310.3,260.4 311.5,260.2 312.7,260.1 313.9,259.9 315.1,259.8 316.3,259.6 317.4,259.4 318.6,259.3 319.8,259.1 321.0,258.9 322.2,258.7 323.4,258.6 324.6,258.4 325.7,258.2 326.9,258.0 328.1,257.8 329.3,257.6 330.5,257.4 331.7,257.2 332.9,257.0 334.1,256.8 335.2,256.6 336.4,256.4 337.6,256.2 338.8,255.9 340.0,255.7 341.2,255.5 342.4,255.3 343.5,255.0 344.7,254.8 345.9,254.5 347.1,254.3 348.3,254.0 349.5,253.8 350.7,253.5 351.9,253.3 353.0,253.0 354.2,252.8 355.4,252.5 356.6,252.2 357.8,251.9 359.0,251.7 360.2,251.4 361.3,251.1 362.5,250.8 363.7,250.5 364.9,250.2 366.1,249.9 367.3,249.6 368.5,249.3 369.7,249.0 370.8,248.7 372.0,248.4 373.2,248.0 374.4,247.7 375.6,247.4 376.8,247.1 378.0,246.7 379.1,246.4 380.3,246.1 381.5,245.7 382.7,245.4 383.9,245.0 385.1,244.7 386.3,244.3 387.5,244.0 388.6,243.6 389.8,243.2 391.0,242.9 392.2,242.5 393.4,242.1 394.6,241.7 395.8,241.3 396.9,241.0 398.1,240.6 399.3,240.2 400.5,239.8 401.7,239.4 402.9,239.0 404.1,238.6 405.3,238.1 406.4,237.7 407.6,237.3 408.8,236.9 410.0,236.5 411.2,236.0 412.4,235.6 413.6,235.2 414.7,234.7 415.9,234.3 417.1,233.9 418.3,233.4 419.5,233.0 420.7,232.5 421.9,232.1 423.1,231.6 424.2,231.1 425.4,230.7 426.6,230.2 427.8,229.7 429.0,229.3 430.2,228.8 431.4,228.3 432.5,227.8 433.7,227.3 434.9,226.8 436.1,226.3 437.3,225.8 438.5,225.3 439.7,224.8 440.9,224.3 442.0,223.8 443.2,223.3 444.4,222.8 445.6,222.3 446.8,221.7 448.0,221.2 449.2,220.7 450.3,220.2 451.5,219.6 452.7,219.1 453.9,218.6 455.1,218.0 456.3,217.5 457.5,216.9 458.7,216.4 459.8,215.8 461.0,215.2 462.2,214.7 463.4,214.1 464.6,213.6 465.8,213.0 467.0,212.4 468.1,211.8 469.3,211.3 470.5,210.7 471.7,210.1 472.9,209.5 474.1,208.9 475.3,208.3 476.5,207.7 477.6,207.1 478.8,206.5 480.0,205.9 481.2,205.3 482.4,204.7 483.6,204.1 484.8,203.5 485.9,202.9 487.1,202.3 488.3,201.6 489.5,201.0 490.7,200.4 491.9,199.8 493.1,199.1 494.3,198.5 495.4,197.9 496.6,197.2 497.8,196.6 499.0,195.9 500.2,195.3 501.4,194.6 502.6,194.0 503.7,193.3 504.9,192.7 506.1,192.0 507.3,191.3 508.5,190.7 509.7,190.0 510.9,189.3 512.1,188.7 513.2,188.0 514.4,187.3 515.6,186.7 516.8,186.0 518.0,185.3 519.2,184.6 520.4,183.9 521.5,183.2 522.7,182.5 523.9,181.8 525.1,181.1 526.3,180.5 527.5,179.8 528.7,179.0 529.9,178.3 531.0,177.6 532.2,176.9 533.4,176.2 534.6,175.5 535.8,174.8 537.0,174.1 538.2,173.4 539.3,172.6 540.5,171.9 541.7,171.2 542.9,170.5 544.1,169.7 545.3,169.0 546.5,168.3 547.7,167.6 548.8,166.8 550.0,166.1 551.2,165.3 552.4,164.6 553.6,163.9 554.8,163.1 556.0,162.4 557.1,161.6 558.3,160.9 559.5,160.1 560.7,159.4 561.9,158.6 563.1,157.9 564.3,157.1 565.5,156.4 566.6,155.6 567.8,154.8 569.0,154.1 570.2,153.3 571.4,152.6 572.6,151.8 573.8,151.0 574.9,150.3 576.1,149.5 577.3,148.8 578.5,148.0 579.7,147.3 580.9,146.5 582.1,145.8 583.3,145.1 584.4,144.3 585.6,143.6 586.8,142.8 588.0,142.1 589.2,141.4 590.4,140.6 591.6,139.9 592.7,139.2 593.9,138.4 595.1,137.7 596.3,137.0 597.5,136.3 598.7,135.5 599.9,134.8 601.1,134.1 602.2,133.4 603.4,132.7 604.6,131.9 605.8,131.2 607.0,130.5 608.2,129.8 609.4,129.1 610.5,128.4 611.7,127.7 612.9,127.0 614.1,126.3 615.3,125.6 616.5,124.9 617.7,124.2 618.9,123.5 620.0,122.9 621.2,122.2 622.4,121.5 623.6,120.8 624.8,120.1 626.0,119.4 627.2,118.8 628.3,118.1 629.5,117.4 630.7,116.7 631.9,116.1 633.1,115.4 634.3,114.7 635.5,114.1 636.7,113.4 637.8,112.8 639.0,112.1 640.2,111.4 641.4,110.8 642.6,110.1 643.8,109.5 645.0,108.8 646.1,108.2 647.3,107.6 648.5,106.9 649.7,106.3 650.9,105.6 652.1,105.0 653.3,104.4 654.5,103.7 655.6,103.1 656.8,102.5 658.0,101.9 659.2,101.2 660.4,100.6 661.6,100.0 662.8,99.4 663.9,98.8 665.1,98.2 666.3,97.6 667.5,96.9 668.7,96.3 669.9,95.7 671.1,95.1 672.3,94.5 673.4,93.9 674.6,93.3 675.8,92.8 677.0,92.2 678.2,91.6 679.4,91.0 680.6,90.4 681.7,89.8 682.9,89.2 684.1,88.7 685.3,88.1 686.5,87.5 687.7,86.9 688.9,86.4 690.1,85.8 691.2,85.2 692.4,84.7 693.6,84.1 694.8,83.6 696.0,83.0 697.2,82.4 698.4,81.9 699.5,81.3 700.7,80.8 701.9,80.3 703.1,79.7 704.3,79.2 705.5,78.6 706.7,78.1 707.9,77.6 709.0,77.0 710.2,76.5 711.4,76.0 712.6,75.4 713.8,74.9 715.0,74.4 716.2,73.9 717.3,73.4 718.5,72.9 719.7,72.3 720.9,71.8 722.1,71.3 723.3,70.8 724.5,70.3 725.7,69.8 726.8,69.3 728.0,68.8 729.2,68.3 730.4,67.8 731.6,67.3 732.8,66.8 734.0,66.4 735.1,65.9 736.3,65.4 737.5,64.9 738.7,64.4 739.9,64.0 741.1,63.5 742.3,63.0 743.5,62.5 744.6,62.1 745.8,61.6 747.0,61.1 748.2,60.7 749.4,60.2 750.6,59.8 751.8,59.3 752.9,58.9 754.1,58.4 755.3,58.0 756.5,57.5 757.7,57.1 758.9,56.6 760.1,56.2 761.3,55.7 762.4,55.3 763.6,54.9 764.8,54.4 766.0,54.0"/>
<line x1="606" y1="42" x2="628" y2="42" stroke="#0f62fe" stroke-width="2.2"/>
<text x="634" y="46" font-family="Arial" font-size="12">altitude_m</text>
<polyline fill="none" stroke="#24a148" stroke-width="2.2" points="54.0,265.8 55.2,265.8 56.4,265.8 57.6,265.8 58.7,265.8 59.9,265.8 61.1,265.8 62.3,265.7 63.5,265.7 64.7,265.7 65.9,265.7 67.1,265.7 68.2,265.7 69.4,265.7 70.6,265.7 71.8,265.7 73.0,265.7 74.2,265.7 75.4,265.7 76.5,265.7 77.7,265.7 78.9,266.0 80.1,266.0 81.3,266.0 82.5,266.0 83.7,266.0 84.9,266.0 86.0,266.0 87.2,265.4 88.4,265.4 89.6,265.4 90.8,265.4 92.0,265.4 93.2,265.4 94.3,265.4 95.5,265.6 96.7,265.6 97.9,265.6 99.1,265.6 100.3,265.6 101.5,265.6 102.7,265.6 103.8,265.7 105.0,265.7 106.2,265.7 107.4,265.7 108.6,265.7 109.8,265.7 111.0,265.7 112.1,265.6 113.3,265.6 114.5,265.6 115.7,265.6 116.9,265.6 118.1,265.6 119.3,265.6 120.5,265.0 121.6,265.0 122.8,265.0 124.0,265.0 125.2,265.0 126.4,265.0 127.6,265.0 128.8,265.3 129.9,265.3 131.1,265.3 132.3,265.3 133.5,265.3 134.7,265.3 135.9,265.3 137.1,265.5 138.3,265.5 139.4,265.5 140.6,265.5 141.8,265.5 143.0,265.5 144.2,265.5 145.4,265.6 146.6,265.6 147.7,265.6 148.9,265.6 150.1,265.6 151.3,265.6 152.5,265.6 153.7,266.0 154.9,266.0 156.1,266.0 157.2,266.0 158.4,266.0 159.6,266.0 160.8,266.0 162.0,265.3 163.2,265.3 164.4,265.3 165.5,265.3 166.7,265.3 167.9,265.3 169.1,265.3 170.3,265.4 171.5,265.4 172.7,265.4 173.9,265.4 175.0,265.4 176.2,265.4 177.4,265.4 178.6,265.3 179.8,265.3 181.0,265.3 182.2,265.3 183.3,265.3 184.5,265.3 185.7,265.3 186.9,265.4 188.1,265.4 189.3,265.4 190.5,265.4 191.7,265.4 192.8,265.4 194.0,265.4 195.2,265.1 196.4,265.1 197.6,265.1 198.8,265.1 200.0,265.1 201.1,265.1 202.3,265.1 203.5,264.9 204.7,264.9 205.9,264.9 207.1,264.9 208.3,264.9 209.5,264.9 210.6,264.9 211.8,264.9 213.0,264.9 214.2,264.9 215.4,264.9 216.6,264.9 217.8,264.9 218.9,264.9 220.1,264.8 221.3,264.8 222.5,264.8 223.7,264.8 224.9,264.8 226.1,264.8 227.3,264.8 228.4,265.2 229.6,265.2 230.8,265.2 232.0,265.2 233.2,265.2 234.4,265.2 235.6,265.2 236.7,264.7 237.9,264.7 239.1,264.7 240.3,264.7 241.5,264.7 242.7,264.7 243.9,264.7 245.1,264.2 246.2,264.2 247.4,264.2 248.6,264.2 249.8,264.2 251.0,264.2 252.2,264.2 253.4,263.9 254.5,263.9 255.7,263.9 256.9,263.9 258.1,263.9 259.3,263.9 260.5,263.9 261.7,263.8 262.9,263.8 264.0,263.8 265.2,263.8 266.4,263.8 267.6,263.8 268.8,263.8 270.0,263.7 271.2,263.7 272.3,263.7 273.5,263.7 274.7,263.7 275.9,263.7 277.1,263.7 278.3,263.3 279.5,263.3 280.7,263.3 281.8,263.3 283.0,263.3 284.2,263.3 285.4,263.3 286.6,262.7 287.8,262.7 289.0,262.7 290.1,262.7 291.3,262.7 292.5,262.7 293.7,262.7 294.9,261.8 296.1,261.8 297.3,261.8 298.5,261.8 299.6,261.8 300.8,261.8 302.0,261.8 303.2,261.4 304.4,261.4 305.6,261.4 306.8,261.4 307.9,261.4 309.1,261.4 310.3,261.4 311.5,260.2 312.7,260.2 313.9,260.2 315.1,260.2 316.3,260.2 317.4,260.2 318.6,260.2 319.8,259.4 321.0,259.4 322.2,259.4 323.4,259.4 324.6,259.4 325.7,259.4 326.9,259.4 328.1,257.7 329.3,257.7 330.5,257.7 331.7,257.7 332.9,257.7 334.1,257.7 335.2,257.7 336.4,256.1 337.6,256.1 338.8,256.1 340.0,256.1 341.2,256.1 342.4,256.1 343.5,256.1 344.7,254.8 345.9,254.8 347.1,254.8 348.3,254.8 349.5,254.8 350.7,254.8 351.9,254.8 353.0,253.3 354.2,253.3 355.4,253.3 356.6,253.3 357.8,253.3 359.0,253.3 360.2,253.3 361.3,251.0 362.5,251.0 363.7,251.0 364.9,251.0 366.1,251.0 367.3,251.0 368.5,251.0 369.7,249.4 370.8,249.4 372.0,249.4 373.2,249.4 374.4,249.4 375.6,249.4 376.8,249.4 378.0,246.9 379.1,246.9 380.3,246.9 381.5,246.9 382.7,246.9 383.9,246.9 385.1,246.9 386.3,244.1 387.5,244.1 388.6,244.1 389.8,244.1 391.0,244.1 392.2,244.1 393.4,244.1 394.6,241.7 395.8,241.7 396.9,241.7 398.1,241.7 399.3,241.7 400.5,241.7 401.7,241.7 402.9,239.1 404.1,239.1 405.3,239.1 406.4,239.1 407.6,239.1 408.8,239.1 410.0,239.1 411.2,236.1 412.4,236.1 413.6,236.1 414.7,236.1 415.9,236.1 417.1,236.1 418.3,236.1 419.5,233.3 420.7,233.3 421.9,233.3 423.1,233.3 424.2,233.3 425.4,233.3 426.6,233.3 427.8,229.6 429.0,229.6 430.2,229.6 431.4,229.6 432.5,229.6 433.7,229.6 434.9,229.6 436.1,226.5 437.3,226.5 438.5,226.5 439.7,226.5 440.9,226.5 442.0,226.5 443.2,226.5 444.4,222.9 445.6,222.9 446.8,222.9 448.0,222.9 449.2,222.9 450.3,222.9 451.5,222.9 452.7,219.1 453.9,219.1 455.1,219.1 456.3,219.1 457.5,219.1 458.7,219.1 459.8,219.1 461.0,215.2 462.2,215.2 463.4,215.2 464.6,215.2 465.8,215.2 467.0,215.2 468.1,215.2 469.3,211.1 470.5,211.1 471.7,211.1 472.9,211.1 474.1,211.1 475.3,211.1 476.5,211.1 477.6,207.4 478.8,207.4 480.0,207.4 481.2,207.4 482.4,207.4 483.6,207.4 484.8,207.4 485.9,202.8 487.1,202.8 488.3,202.8 489.5,202.8 490.7,202.8 491.9,202.8 493.1,202.8 494.3,198.4 495.4,198.4 496.6,198.4 497.8,198.4 499.0,198.4 500.2,198.4 501.4,198.4 502.6,194.1 503.7,194.1 504.9,194.1 506.1,194.1 507.3,194.1 508.5,194.1 509.7,194.1 510.9,189.3 512.1,189.3 513.2,189.3 514.4,189.3 515.6,189.3 516.8,189.3 518.0,189.3 519.2,184.8 520.4,184.8 521.5,184.8 522.7,184.8 523.9,184.8 525.1,184.8 526.3,184.8 527.5,180.2 528.7,180.2 529.9,180.2 531.0,180.2 532.2,180.2 533.4,180.2 534.6,180.2 535.8,174.7 537.0,174.7 538.2,174.7 539.3,174.7 540.5,174.7 541.7,174.7 542.9,174.7 544.1,169.7 545.3,169.7 546.5,169.7 547.7,169.7 548.8,169.7 550.0,169.7 551.2,169.7 552.4,164.9 553.6,164.9 554.8,164.9 556.0,164.9 557.1,164.9 558.3,164.9 559.5,164.9 560.7,159.0 561.9,159.0 563.1,159.0 564.3,159.0 565.5,159.0 566.6,159.0 567.8,159.0 569.0,154.4 570.2,154.4 571.4,154.4 572.6,154.4 573.8,154.4 574.9,154.4 576.1,154.4 577.3,148.9 578.5,148.9 579.7,148.9 580.9,148.9 582.1,148.9 583.3,148.9 584.4,148.9 585.6,143.4 586.8,143.4 588.0,143.4 589.2,143.4 590.4,143.4 591.6,143.4 592.7,143.4 593.9,138.3 595.1,138.3 596.3,138.3 597.5,138.3 598.7,138.3 599.9,138.3 601.1,138.3 602.2,133.3 603.4,133.3 604.6,133.3 605.8,133.3 607.0,133.3 608.2,133.3 609.4,133.3 610.5,128.5 611.7,128.5 612.9,128.5 614.1,128.5 615.3,128.5 616.5,128.5 617.7,128.5 618.9,123.5 620.0,123.5 621.2,123.5 622.4,123.5 623.6,123.5 624.8,123.5 626.0,123.5 627.2,118.9 628.3,118.9 629.5,118.9 630.7,118.9 631.9,118.9 633.1,118.9 634.3,118.9 635.5,114.1 636.7,114.1 637.8,114.1 639.0,114.1 640.2,114.1 641.4,114.1 642.6,114.1 643.8,109.5 645.0,109.5 646.1,109.5 647.3,109.5 648.5,109.5 649.7,109.5 650.9,109.5 652.1,105.3 653.3,105.3 654.5,105.3 655.6,105.3 656.8,105.3 658.0,105.3 659.2,105.3 660.4,100.8 661.6,100.8 662.8,100.8 663.9,100.8 665.1,100.8 666.3,100.8 667.5,100.8 668.7,96.5 669.9,96.5 671.1,96.5 672.3,96.5 673.4,96.5 674.6,96.5 675.8,96.5 677.0,92.2 678.2,92.2 679.4,92.2 680.6,92.2 681.7,92.2 682.9,92.2 684.1,92.2 685.3,88.2 686.5,88.2 687.7,88.2 688.9,88.2 690.1,88.2 691.2,88.2 692.4,88.2 693.6,84.0 694.8,84.0 696.0,84.0 697.2,84.0 698.4,84.0 699.5,84.0 700.7,84.0 701.9,80.2 703.1,80.2 704.3,80.2 705.5,80.2 706.7,80.2 707.9,80.2 709.0,80.2 710.2,76.2 711.4,76.2 712.6,76.2 713.8,76.2 715.0,76.2 716.2,76.2 717.3,76.2 718.5,73.0 719.7,73.0 720.9,73.0 722.1,73.0 723.3,73.0 724.5,73.0 725.7,73.0 726.8,69.2 728.0,69.2 729.2,69.2 730.4,69.2 731.6,69.2 732.8,69.2 734.0,69.2 735.1,66.2 736.3,66.2 737.5,66.2 738.7,66.2 739.9,66.2 741.1,66.2 742.3,66.2 743.5,62.5 744.6,62.5 745.8,62.5 747.0,62.5 748.2,62.5 749.4,62.5 750.6,62.5 751.8,59.3 752.9,59.3 754.1,59.3 755.3,59.3 756.5,59.3 757.7,59.3 758.9,59.3 760.1,55.9 761.3,55.9 762.4,55.9 763.6,55.9 764.8,55.9 766.0,55.9"/>
<line x1="606" y1="60" x2="628" y2="60" stroke="#24a148" stroke-width="2.2"/>
<text x="634" y="64" font-family="Arial" font-size="12">gps_z_m</text>
</svg>