<svg xmlns="http://www.w3.org/2000/svg" width="760" height="280" viewBox="0 0 760 280">
<rect width="100%" height="100%" fill="#ffffff"/>
<text x="45" y="28" font-family="Arial" font-size="18" font-weight="700">Altitude</text>
<line x1="45" y1="235" x2="715" y2="235" stroke="#222"/>
<line x1="45" y1="45" x2="45" y2="235" stroke="#222"/>
<polyline fill="none" stroke="#0f62fe" stroke-width="2.5" points="45.0,235.0 46.1,235.0 47.2,235.0 48.3,235.0 49.5,235.0 50.6,235.0 51.7,235.0 52.8,235.0 53.9,235.0 55.0,235.0 56.2,235.0 57.3,235.0 58.4,235.0 59.5,235.0 60.6,235.0 61.7,235.0 62.9,235.0 64.0,235.0 65.1,235.0 66.2,235.0 67.3,235.0 68.4,235.0 69.6,235.0 70.7,235.0 71.8,235.0 72.9,235.0 74.0,235.0 75.1,235.0 76.3,235.0 77.4,235.0 78.5,235.0 79.6,235.0 80.7,235.0 81.8,235.0 83.0,235.0 84.1,235.0 85.2,235.0 86.3,235.0 87.4,235.0 88.5,235.0 89.7,235.0 90.8,234.9 91.9,234.9 93.0,234.9 94.1,234.9 95.2,234.9 96.4,234.9 97.5,234.9 98.6,234.9 99.7,234.9 100.8,234.9 101.9,234.9 103.1,234.9 104.2,234.9 105.3,234.9 106.4,234.9 107.5,234.9 108.6,234.9 109.8,234.9 110.9,234.9 112.0,234.9 113.1,234.9 114.2,234.9 115.3,234.9 116.5,234.9 117.6,234.9 118.7,234.9 119.8,234.9 120.9,234.9 122.0,234.9 123.2,234.9 124.3,234.9 125.4,234.9 126.5,234.9 127.6,234.9 128.7,234.9 129.9,234.9 131.0,234.9 132.1,234.9 133.2,234.9 134.3,234.9 135.4,234.9 136.6,234.9 137.7,234.9 138.8,234.9 139.9,234.9 141.0,234.9 142.1,234.9 143.3,234.9 144.4,234.9 145.5,234.9 146.6,234.9 147.7,234.9 148.8,234.9 150.0,234.9 151.1,234.9 152.2,234.9 153.3,234.9 154.4,234.9 155.5,234.9 156.7,234.9 157.8,234.9 158.9,234.9 160.0,234.9 161.1,234.9 162.2,234.9 163.4,234.9 164.5,234.9 165.6,234.9 166.7,234.9 167.8,234.9 168.9,234.9 170.1,234.9 171.2,234.9 172.3,234.9 173.4,234.9 174.5,234.9 175.6,234.9 176.8,234.9 177.9,234.9 179.0,234.9 180.1,234.9 181.2,234.9 182.3,234.9 183.5,234.9 184.6,234.8 185.7,234.8 186.8,234.8 187.9,234.8 189.0,234.8 190.2,234.8 191.3,234.8 192.4,234.8 193.5,234.8 194.6,234.8 195.7,234.8 196.9,234.8 198.0,234.8 199.1,234.8 200.2,234.8 201.3,234.8 202.4,234.8 203.6,234.8 204.7,234.8 205.8,234.8 206.9,234.7 208.0,234.7 209.1,234.7 210.3,234.7 211.4,234.7 212.5,234.7 213.6,234.7 214.7,234.7 215.8,234.7 217.0,234.7 218.1,234.7 219.2,234.7 220.3,234.6 221.4,234.6 222.5,234.6 223.7,234.6 224.8,234.6 225.9,234.6 227.0,234.6 228.1,234.6 229.2,234.6 230.4,234.6 231.5,234.5 232.6,234.5 233.7,234.5 234.8,234.5 235.9,234.5 237.1,234.5 238.2,234.5 239.3,234.4 240.4,234.4 241.5,234.4 242.6,234.4 243.8,234.4 244.9,234.4 246.0,234.3 247.1,234.3 248.2,234.3 249.3,234.3 250.5,234.3 251.6,234.2 252.7,234.2 253.8,234.2 254.9,234.2 256.0,234.1 257.2,234.1 258.3,234.1 259.4,234.1 260.5,234.0 261.6,234.0 262.7,234.0 263.9,233.9 265.0,233.9 266.1,233.9 267.2,233.8 268.3,233.8 269.4,233.8 270.6,233.7 271.7,233.7 272.8,233.7 273.9,233.6 275.0,233.6 276.1,233.6 277.3,233.5 278.4,233.5 279.5,233.4 280.6,233.4 281.7,233.4 282.8,233.3 284.0,233.3 285.1,233.2 286.2,233.2 287.3,233.1 288.4,233.1 289.5,233.0 290.7,233.0 291.8,232.9 292.9,232.9 294.0,232.8 295.1,232.8 296.2,232.7 297.4,232.6 298.5,232.6 299.6,232.5 300.7,232.4 301.8,232.4 302.9,232.3 304.1,232.2 305.2,232.2 306.3,232.1 307.4,232.0 308.5,231.9 309.6,231.9 310.8,231.8 311.9,231.7 313.0,231.6 314.1,231.5 315.2,231.4 316.3,231.3 317.5,231.2 318.6,231.2 319.7,231.1 320.8,231.0 321.9,230.8 323.0,230.7 324.2,230.6 325.3,230.5 326.4,230.4 327.5,230.3 328.6,230.2 329.7,230.0 330.9,229.9 332.0,229.8 333.1,229.7 334.2,229.5 335.3,229.4 336.4,229.3 337.6,229.1 338.7,229.0 339.8,228.8 340.9,228.7 342.0,228.6 343.1,228.4 344.3,228.2 345.4,228.1 346.5,227.9 347.6,227.8 348.7,227.6 349.8,227.4 351.0,227.3 352.1,227.1 353.2,226.9 354.3,226.8 355.4,226.6 356.5,226.4 357.7,226.2 358.8,226.0 359.9,225.9 361.0,225.7 362.1,225.5 363.2,225.3 364.4,225.1 365.5,224.9 366.6,224.7 367.7,224.5 368.8,224.3 369.9,224.1 371.1,223.9 372.2,223.7 373.3,223.4 374.4,223.2 375.5,223.0 376.6,222.8 377.8,222.6 378.9,222.3 380.0,222.1 381.1,221.9 382.2,221.6 383.3,221.4 384.5,221.2 385.6,220.9 386.7,220.7 387.8,220.4 388.9,220.2 390.0,219.9 391.2,219.7 392.3,219.4 393.4,219.2 394.5,218.9 395.6,218.6 396.7,218.4 397.9,218.1 399.0,217.8 400.1,217.6 401.2,217.3 402.3,217.0 403.4,216.7 404.6,216.4 405.7,216.2 406.8,215.9 407.9,215.6 409.0,215.3 410.1,215.0 411.3,214.7 412.4,214.4 413.5,214.1 414.6,213.8 415.7,213.5 416.8,213.2 418.0,212.9 419.1,212.6 420.2,212.2 421.3,211.9 422.4,211.6 423.5,211.3 424.7,210.9 425.8,210.6 426.9,210.3 428.0,210.0 429.1,209.6 430.2,209.3 431.4,208.9 432.5,208.6 433.6,208.3 434.7,207.9 435.8,207.6 436.9,207.2 438.1,206.9 439.2,206.5 440.3,206.1 441.4,205.8 442.5,205.4 443.6,205.1 444.8,204.7 445.9,204.3 447.0,203.9 448.1,203.6 449.2,203.2 450.3,202.8 451.5,202.4 452.6,202.0 453.7,201.6 454.8,201.3 455.9,200.9 457.0,200.5 458.2,200.1 459.3,199.7 460.4,199.3 461.5,198.9 462.6,198.5 463.7,198.0 464.9,197.6 466.0,197.2 467.1,196.8 468.2,196.4 469.3,196.0 470.4,195.5 471.6,195.1 472.7,194.7 473.8,194.3 474.9,193.8 476.0,193.4 477.1,193.0 478.3,192.5 479.4,192.1 480.5,191.6 481.6,191.2 482.7,190.7 483.8,190.3 485.0,189.8 486.1,189.4 487.2,188.9 488.3,188.4 489.4,188.0 490.5,187.5 491.7,187.0 492.8,186.6 493.9,186.1 495.0,185.6 496.1,185.1 497.2,184.7 498.4,184.2 499.5,183.7 500.6,183.2 501.7,182.7 502.8,182.2 503.9,181.7 505.1,181.2 506.2,180.7 507.3,180.2 508.4,179.7 509.5,179.2 510.6,178.7 511.8,178.2 512.9,177.7 514.0,177.2 515.1,176.6 516.2,176.1 517.3,175.6 518.5,175.1 519.6,174.5 520.7,174.0 521.8,173.5 522.9,172.9 524.0,172.4 525.2,171.9 526.3,171.3 527.4,170.8 528.5,170.2 529.6,169.7 530.7,169.1 531.9,168.6 533.0,168.0 534.1,167.4 535.2,166.9 536.3,166.3 537.4,165.7 538.6,165.2 539.7,164.6 540.8,164.0 541.9,163.4 543.0,162.9 544.1,162.3 545.3,161.7 546.4,161.1 547.5,160.5 548.6,159.9 549.7,159.3 550.8,158.7 552.0,158.1 553.1,157.5 554.2,156.9 555.3,156.3 556.4,155.7 557.5,155.1 558.7,154.5 559.8,153.9 560.9,153.3 562.0,152.7 563.1,152.0 564.2,151.4 565.4,150.8 566.5,150.1 567.6,149.5 568.7,148.9 569.8,148.2 570.9,147.6 572.1,147.0 573.2,146.3 574.3,145.7 575.4,145.0 576.5,144.4 577.6,143.7 578.8,143.1 579.9,142.4 581.0,141.7 582.1,141.1 583.2,140.4 584.3,139.7 585.5,139.1 586.6,138.4 587.7,137.7 588.8,137.0 589.9,136.4 591.0,135.7 592.2,135.0 593.3,134.3 594.4,133.6 595.5,132.9 596.6,132.2 597.7,131.5 598.9,130.8 600.0,130.1 601.1,129.4 602.2,128.7 603.3,128.0 604.4,127.3 605.6,126.6 606.7,125.9 607.8,125.2 608.9,124.4 610.0,123.7 611.1,123.0 612.3,122.3 613.4,121.5 614.5,120.8 615.6,120.1 616.7,119.3 617.8,118.6 619.0,117.8 620.1,117.1 621.2,116.3 622.3,115.6 623.4,114.8 624.5,114.1 625.7,113.3 626.8,112.6 627.9,111.8 629.0,111.0 630.1,110.3 631.2,109.5 632.4,108.7 633.5,108.0 634.6,107.2 635.7,106.4 636.8,105.6 637.9,104.8 639.1,104.1 640.2,103.3 641.3,102.5 642.4,101.7 643.5,100.9 644.6,100.1 645.8,99.3 646.9,98.5 648.0,97.7 649.1,96.9 650.2,96.1 651.3,95.3 652.5,94.4 653.6,93.6 654.7,92.8 655.8,92.0 656.9,91.2 658.0,90.3 659.2,89.5 660.3,88.7 661.4,87.8 662.5,87.0 663.6,86.2 664.7,85.3 665.9,84.5 667.0,83.6 668.1,82.8 669.2,81.9 670.3,81.1 671.4,80.2 672.6,79.4 673.7,78.5 674.8,77.7 675.9,76.8 677.0,75.9 678.1,75.0 679.3,74.2 680.4,73.3 681.5,72.4 682.6,71.5 683.7,70.7 684.8,69.8 686.0,68.9 687.1,68.0 688.2,67.1 689.3,66.2 690.4,65.3 691.5,64.4 692.7,63.5 693.8,62.6 694.9,61.7 696.0,60.8 697.1,59.9 698.2,59.0 699.4,58.1 700.5,57.1 701.6,56.2 702.7,55.3 703.8,54.4 704.9,53.5 706.1,52.5 707.2,51.6 708.3,50.7 709.4,49.7 710.5,48.8 711.6,47.8 712.8,46.9 713.9,45.9 715.0,45.0"/>
<text x="45" y="268" font-family="Arial" font-size="12">time (s)</text>
<text x="605" y="268" font-family="Arial" font-size="12">altitude_m</text>
<text x="49" y="59" font-family="Arial" font-size="11">24454.51</text>
<text x="49" y="229" font-family="Arial" font-size="11">20.00</text>
</svg>