<svg xmlns="http://www.w3.org/2000/svg" width="760" height="280" viewBox="0 0 760 280">
<rect width="100%" height="100%" fill="#ffffff"/>
<text x="45" y="28" font-family="Arial" font-size="18" font-weight="700">Rudder</text>
<line x1="45" y1="235" x2="715" y2="235" stroke="#222"/>
<line x1="45" y1="45" x2="45" y2="235" stroke="#222"/>
<polyline fill="none" stroke="#0f62fe" stroke-width="2.5" points="45.0,140.0 46.1,140.0 47.2,140.0 48.3,140.0 49.5,140.0 50.6,140.0 51.7,140.0 52.8,140.0 53.9,140.0 55.0,140.0 56.2,140.0 57.3,140.0 58.4,140.0 59.5,140.0 60.6,140.0 61.7,140.0 62.9,140.0 64.0,140.0 65.1,140.0 66.2,140.0 67.3,140.0 68.4,140.0 69.6,140.0 70.7,140.0 71.8,140.0 72.9,140.0 74.0,140.0 75.1,140.0 76.3,140.0 77.4,140.0 78.5,140.0 79.6,140.0 80.7,140.0 81.8,140.0 83.0,140.0 84.1,140.0 85.2,140.0 86.3,140.0 87.4,140.0 88.5,140.0 89.7,140.0 90.8,140.0 91.9,140.0 93.0,140.0 94.1,140.0 95.2,140.0 96.4,140.0 97.5,140.0 98.6,140.0 99.7,140.0 100.8,140.0 101.9,140.0 103.1,140.0 104.2,140.0 105.3,140.0 106.4,140.0 107.5,140.0 108.6,140.0 109.8,140.0 110.9,140.0 112.0,140.0 113.1,140.0 114.2,140.0 115.3,140.0 116.5,140.0 117.6,140.0 118.7,140.0 119.8,140.0 120.9,140.0 122.0,140.0 123.2,140.0 124.3,140.0 125.4,140.0 126.5,140.0 127.6,140.0 128.7,140.0 129.9,140.0 131.0,140.0 132.1,140.0 133.2,140.0 134.3,140.0 135.4,140.0 136.6,140.0 137.7,140.0 138.8,140.0 139.9,140.0 141.0,140.0 142.1,140.0 143.3,140.0 144.4,140.0 145.5,140.0 146.6,140.0 147.7,140.0 148.8,140.0 150.0,140.0 151.1,140.0 152.2,140.0 153.3,140.0 154.4,140.0 155.5,140.0 156.7,140.0 157.8,140.0 158.9,140.0 160.0,140.0 161.1,140.0 162.2,140.0 163.4,140.0 164.5,140.0 165.6,140.0 166.7,140.0 167.8,140.0 168.9,140.0 170.1,140.0 171.2,140.0 172.3,140.0 173.4,140.0 174.5,140.0 175.6,140.0 176.8,140.0 177.9,140.0 179.0,140.0 180.1,140.0 181.2,140.0 182.3,140.0 183.5,140.0 184.6,140.0 185.7,140.0 186.8,140.0 187.9,140.0 189.0,140.0 190.2,140.0 191.3,140.0 192.4,140.0 193.5,140.0 194.6,140.0 195.7,140.0 196.9,140.0 198.0,140.0 199.1,140.0 200.2,140.0 201.3,140.0 202.4,140.0 203.6,140.0 204.7,140.0 205.8,140.0 206.9,140.0 208.0,140.0 209.1,140.0 210.3,140.0 211.4,140.0 212.5,140.0 213.6,140.0 214.7,140.0 215.8,140.0 217.0,140.0 218.1,140.0 219.2,140.0 220.3,140.0 221.4,140.0 222.5,140.0 223.7,140.0 224.8,140.0 225.9,140.0 227.0,140.0 228.1,140.0 229.2,140.0 230.4,140.0 231.5,140.0 232.6,140.0 233.7,140.0 234.8,140.0 235.9,140.0 237.1,140.0 238.2,140.0 239.3,140.0 240.4,140.0 241.5,140.0 242.6,140.0 243.8,140.0 244.9,140.0 246.0,140.0 247.1,140.0 248.2,140.0 249.3,140.0 250.5,140.0 251.6,140.0 252.7,140.0 253.8,140.0 254.9,140.0 256.0,140.0 257.2,140.0 258.3,140.0 259.4,140.0 260.5,140.0 261.6,140.0 262.7,140.0 263.9,140.0 265.0,140.0 266.1,140.0 267.2,140.0 268.3,140.0 269.4,140.0 270.6,140.0 271.7,140.0 272.8,140.0 273.9,140.0 275.0,140.0 276.1,140.0 277.3,140.0 278.4,140.0 279.5,140.0 280.6,140.0 281.7,140.0 282.8,140.0 284.0,140.0 285.1,140.0 286.2,140.0 287.3,140.0 288.4,140.0 289.5,140.0 290.7,140.0 291.8,140.0 292.9,140.0 294.0,140.0 295.1,140.0 296.2,140.0 297.4,140.0 298.5,140.0 299.6,140.0 300.7,140.0 301.8,140.0 302.9,140.0 304.1,140.0 305.2,140.0 306.3,140.0 307.4,140.0 308.5,140.0 309.6,140.0 310.8,140.0 311.9,140.0 313.0,140.0 314.1,140.0 315.2,140.0 316.3,140.0 317.5,140.0 318.6,140.0 319.7,140.0 320.8,140.0 321.9,140.0 323.0,140.0 324.2,140.0 325.3,140.0 326.4,140.0 327.5,140.0 328.6,140.0 329.7,140.0 330.9,140.0 332.0,140.0 333.1,140.0 334.2,140.0 335.3,140.0 336.4,140.0 337.6,140.0 338.7,140.0 339.8,140.0 340.9,140.0 342.0,140.0 343.1,140.0 344.3,140.0 345.4,140.0 346.5,140.0 347.6,140.0 348.7,140.0 349.8,140.0 351.0,140.0 352.1,140.0 353.2,140.0 354.3,140.0 355.4,140.0 356.5,140.0 357.7,140.0 358.8,140.0 359.9,140.0 361.0,140.0 362.1,140.0 363.2,140.0 364.4,140.0 365.5,140.0 366.6,140.0 367.7,140.0 368.8,140.0 369.9,140.0 371.1,140.0 372.2,140.0 373.3,140.0 374.4,140.0 375.5,140.0 376.6,140.0 377.8,140.0 378.9,140.0 380.0,140.0 381.1,140.0 382.2,140.0 383.3,140.0 384.5,140.0 385.6,140.0 386.7,140.0 387.8,140.0 388.9,140.0 390.0,140.0 391.2,140.0 392.3,140.0 393.4,140.0 394.5,140.0 395.6,140.0 396.7,140.0 397.9,140.0 399.0,140.0 400.1,140.0 401.2,140.0 402.3,140.0 403.4,140.0 404.6,140.0 405.7,140.0 406.8,140.0 407.9,140.0 409.0,140.0 410.1,140.0 411.3,140.0 412.4,140.0 413.5,140.0 414.6,140.0 415.7,140.0 416.8,140.0 418.0,140.0 419.1,140.0 420.2,140.0 421.3,140.0 422.4,140.0 423.5,140.0 424.7,140.0 425.8,140.0 426.9,140.0 428.0,140.0 429.1,140.0 430.2,140.0 431.4,140.0 432.5,140.0 433.6,140.0 434.7,140.0 435.8,140.0 436.9,140.0 438.1,140.0 439.2,140.0 440.3,140.0 441.4,140.0 442.5,140.0 443.6,140.0 444.8,140.0 445.9,140.0 447.0,140.0 448.1,140.0 449.2,140.0 450.3,140.0 451.5,140.0 452.6,140.0 453.7,140.0 454.8,140.0 455.9,140.0 457.0,140.0 458.2,140.0 459.3,140.0 460.4,140.0 461.5,140.0 462.6,140.0 463.7,140.0 464.9,140.0 466.0,140.0 467.1,140.0 468.2,140.0 469.3,140.0 470.4,140.0 471.6,140.0 472.7,140.0 473.8,140.0 474.9,140.0 476.0,140.0 477.1,140.0 478.3,140.0 479.4,140.0 480.5,140.0 481.6,140.0 482.7,140.0 483.8,140.0 485.0,140.0 486.1,140.0 487.2,140.0 488.3,140.0 489.4,140.0 490.5,140.0 491.7,140.0 492.8,140.0 493.9,140.0 495.0,140.0 496.1,140.0 497.2,140.0 498.4,140.0 499.5,140.0 500.6,140.0 501.7,140.0 502.8,140.0 503.9,140.0 505.1,140.0 506.2,140.0 507.3,140.0 508.4,140.0 509.5,140.0 510.6,140.0 511.8,140.0 512.9,140.0 514.0,140.0 515.1,140.0 516.2,140.0 517.3,140.0 518.5,140.0 519.6,140.0 520.7,140.0 521.8,140.0 522.9,140.0 524.0,140.0 525.2,140.0 526.3,140.0 527.4,140.0 528.5,140.0 529.6,140.0 530.7,140.0 531.9,140.0 533.0,140.0 534.1,140.0 535.2,140.0 536.3,140.0 537.4,140.0 538.6,140.0 539.7,140.0 540.8,140.0 541.9,140.0 543.0,140.0 544.1,140.0 545.3,140.0 546.4,140.0 547.5,140.0 548.6,140.0 549.7,140.0 550.8,140.0 552.0,140.0 553.1,140.0 554.2,140.0 555.3,140.0 556.4,140.0 557.5,140.0 558.7,140.0 559.8,140.0 560.9,140.0 562.0,140.0 563.1,140.0 564.2,140.0 565.4,140.0 566.5,140.0 567.6,140.0 568.7,140.0 569.8,140.0 570.9,140.0 572.1,140.0 573.2,140.0 574.3,140.0 575.4,140.0 576.5,140.0 577.6,140.0 578.8,140.0 579.9,140.0 581.0,140.0 582.1,140.0 583.2,140.0 584.3,140.0 585.5,140.0 586.6,140.0 587.7,140.0 588.8,140.0 589.9,140.0 591.0,140.0 592.2,140.0 593.3,140.0 594.4,140.0 595.5,140.0 596.6,140.0 597.7,140.0 598.9,140.0 600.0,140.0 601.1,140.0 602.2,140.0 603.3,140.0 604.4,140.0 605.6,140.0 606.7,140.0 607.8,140.0 608.9,140.0 610.0,140.0 611.1,140.0 612.3,140.0 613.4,140.0 614.5,140.0 615.6,140.0 616.7,140.0 617.8,140.0 619.0,140.0 620.1,140.0 621.2,140.0 622.3,140.0 623.4,140.0 624.5,140.0 625.7,140.0 626.8,140.0 627.9,140.0 629.0,140.0 630.1,140.0 631.2,140.0 632.4,140.0 633.5,140.0 634.6,140.0 635.7,140.0 636.8,140.0 637.9,140.0 639.1,140.0 640.2,140.0 641.3,140.0 642.4,140.0 643.5,140.0 644.6,140.0 645.8,140.0 646.9,140.0 648.0,140.0 649.1,140.0 650.2,140.0 651.3,140.0 652.5,140.0 653.6,140.0 654.7,140.0 655.8,140.0 656.9,140.0 658.0,140.0 659.2,140.0 660.3,140.0 661.4,140.0 662.5,140.0 663.6,140.0 664.7,140.0 665.9,140.0 667.0,140.0 668.1,140.0 669.2,140.0 670.3,140.0 671.4,140.0 672.6,140.0 673.7,140.0 674.8,140.0 675.9,140.0 677.0,140.0 678.1,140.0 679.3,140.0 680.4,140.0 681.5,140.0 682.6,140.0 683.7,140.0 684.8,140.0 686.0,140.0 687.1,140.0 688.2,140.0 689.3,140.0 690.4,140.0 691.5,140.0 692.7,140.0 693.8,140.0 694.9,140.0 696.0,140.0 697.1,140.0 698.2,140.0 699.4,140.0 700.5,140.0 701.6,140.0 702.7,140.0 703.8,140.0 704.9,140.0 706.1,140.0 707.2,140.0 708.3,140.0 709.4,140.0 710.5,140.0 711.6,140.0 712.8,140.0 713.9,140.0 715.0,140.0"/>
<text x="45" y="268" font-family="Arial" font-size="12">time (s)</text>
<text x="605" y="268" font-family="Arial" font-size="12">rudder_deg</text>
<text x="49" y="59" font-family="Arial" font-size="11">1.00</text>
<text x="49" y="229" font-family="Arial" font-size="11">-1.00</text>
</svg>