<svg xmlns="http://www.w3.org/2000/svg" width="820" height="320" viewBox="0 0 820 320">
<rect width="100%" height="100%" fill="#ffffff"/>
<text x="54" y="28" font-family="Arial" font-size="18" font-weight="700">Control Surfaces</text>
<line x1="54" y1="266" x2="766" y2="266" stroke="#1f2933"/>
<line x1="54" y1="54" x2="54" y2="266" stroke="#1f2933"/>
<text x="54" y="306" font-family="Arial" font-size="12">time (s)</text>
<text x="596" y="306" font-family="Arial" font-size="12">deflection (deg)</text>
<text x="58" y="68" font-family="Arial" font-size="11">0</text>
<text x="58" y="260" font-family="Arial" font-size="11">-5.03</text>
<polyline fill="none" stroke="#0f62fe" stroke-width="2.2" points="54.0,167.7 55.2,113.3 56.4,73.4 57.6,89.7 58.7,122.6 59.9,138.3 61.1,139.4 62.3,141.0 63.5,148.1 64.7,156.3 65.9,161.9 67.1,165.7 68.2,169.5 69.4,173.5 70.6,177.1 71.8,180.2 73.0,182.9 74.2,185.5 75.4,187.9 76.5,190.0 77.7,192.0 78.9,193.7 80.1,195.4 81.3,196.9 82.5,198.3 83.7,199.5 84.9,200.7 86.0,201.8 87.2,202.8 88.4,203.7 89.6,204.5 90.8,205.3 92.0,206.1 93.2,206.7 94.3,207.4 95.5,208.0 96.7,208.5 97.9,209.0 99.1,209.5 100.3,209.9 101.5,210.3 102.7,210.7 103.8,211.1 105.0,211.4 106.2,211.7 107.4,212.0 108.6,212.2 109.8,212.5 111.0,212.7 112.1,212.9 113.3,213.1 114.5,213.2 115.7,213.4 116.9,213.5 118.1,213.6 119.3,213.7 120.5,213.8 121.6,213.9 122.8,213.9 124.0,214.0 125.2,214.0 126.4,214.0 127.6,214.0 128.8,214.0 129.9,214.0 131.1,214.0 132.3,213.9 133.5,213.9 134.7,213.8 135.9,213.8 137.1,213.7 138.3,213.6 139.4,213.5 140.6,213.4 141.8,213.2 143.0,213.1 144.2,213.0 145.4,212.8 146.6,212.7 147.7,212.5 148.9,212.3 150.1,212.8 151.3,212.2 152.5,212.5 153.7,212.4 154.9,212.5 156.1,212.6 157.2,212.7 158.4,212.8 159.6,213.0 160.8,213.1 162.0,213.3 163.2,213.5 164.4,213.7 165.5,213.8 166.7,214.0 167.9,214.2 169.1,214.3 170.3,214.5 171.5,214.7 172.7,214.8 173.9,214.9 175.0,215.1 176.2,215.2 177.4,215.3 178.6,215.4 179.8,215.4 181.0,215.5 182.2,215.6 183.3,215.6 184.5,215.6 185.7,215.6 186.9,215.6 188.1,215.5 189.3,215.6 190.5,215.4 191.7,215.5 192.8,215.2 194.0,215.4 195.2,214.8 196.4,215.5 197.6,214.0 198.8,216.1 200.0,211.9 201.1,218.8 202.3,205.9 203.5,228.8 204.7,185.8 205.9,265.8 207.1,152.1 208.3,265.8 209.5,152.3 210.6,266.0 211.8,152.3 213.0,266.0 214.2,152.3 215.4,266.0 216.6,152.3 217.8,266.0 218.9,152.3 220.1,266.0 221.3,152.3 222.5,266.0 223.7,152.3 224.9,266.0 226.1,152.3 227.3,266.0 228.4,152.3 229.6,266.0 230.8,152.3 232.0,266.0 233.2,152.3 234.4,266.0 235.6,152.3 236.7,266.0 237.9,152.3 239.1,266.0 240.3,152.3 241.5,266.0 242.7,152.3 243.9,266.0 245.1,152.3 246.2,266.0 247.4,152.3 248.6,266.0 249.8,152.3 251.0,266.0 252.2,152.3 253.4,266.0 254.5,152.3 255.7,266.0 256.9,152.3 258.1,266.0 259.3,152.3 260.5,266.0 261.7,152.3 262.9,266.0 264.0,152.3 265.2,266.0 266.4,152.3 267.6,266.0 268.8,152.3 270.0,266.0 271.2,152.3 272.3,266.0 273.5,152.3 274.7,266.0 275.9,152.3 277.1,266.0 278.3,152.3 279.5,266.0 280.7,152.3 281.8,262.4 283.0,148.7 284.2,256.9 285.4,143.2 286.6,256.9 287.8,143.2 289.0,256.9 290.1,143.2 291.3,256.9 292.5,143.2 293.7,256.9 294.9,143.2 296.1,255.5 297.3,141.8 298.5,250.3 299.6,136.6 300.8,245.3 302.0,131.6 303.2,240.3 304.4,126.6 305.6,235.2 306.8,121.5 307.9,230.1 309.1,116.3 310.3,230.1 311.5,116.3 312.7,230.1 313.9,116.3 315.1,230.1 316.3,116.3 317.4,230.1 318.6,116.3 319.8,230.1 321.0,116.3 322.2,230.1 323.4,116.3 324.6,230.1 325.7,116.3 326.9,230.1 328.1,116.3 329.3,230.1 330.5,116.3 331.7,222.7 332.9,109.0 334.1,216.9 335.2,103.2 336.4,211.8 337.6,98.1 338.8,206.8 340.0,93.1 341.2,201.9 342.4,88.1 343.5,196.9 344.7,83.2 345.9,191.9 347.1,78.2 348.3,191.9 349.5,78.2 350.7,191.9 351.9,78.2 353.0,191.9 354.2,78.2 355.4,191.9 356.6,78.2 357.8,191.9 359.0,78.2 360.2,191.9 361.3,78.2 362.5,191.9 363.7,78.2 364.9,191.9 366.1,78.2 367.3,191.9 368.5,78.2 369.7,191.9 370.8,78.2 372.0,191.9 373.2,78.2 374.4,191.9 375.6,78.2 376.8,191.9 378.0,78.2 379.1,191.9 380.3,78.2 381.5,191.9 382.7,78.2 383.9,191.9 385.1,78.2 386.3,191.9 387.5,78.2 388.6,191.9 389.8,78.2 391.0,191.9 392.2,78.2 393.4,191.9 394.6,78.2 395.8,191.9 396.9,78.2 398.1,191.9 399.3,78.2 400.5,191.9 401.7,78.2 402.9,191.9 404.1,78.2 405.3,191.9 406.4,78.2 407.6,191.9 408.8,78.2 410.0,191.9 411.2,78.2 412.4,191.9 413.6,78.2 414.7,191.9 415.9,78.2 417.1,191.9 418.3,78.2 419.5,191.9 420.7,78.2 421.9,191.9 423.1,78.2 424.2,191.9 425.4,78.2 426.6,191.9 427.8,78.2 429.0,191.9 430.2,78.2 431.4,191.9 432.5,78.2 433.7,191.9 434.9,78.2 436.1,191.9 437.3,78.2 438.5,191.9 439.7,78.2 440.9,191.9 442.0,78.2 443.2,191.9 444.4,78.2 445.6,191.9 446.8,78.2 448.0,191.9 449.2,78.2 450.3,191.9 451.5,78.2 452.7,191.9 453.9,78.2 455.1,191.9 456.3,78.2 457.5,191.9 458.7,78.2 459.8,191.9 461.0,78.2 462.2,191.9 463.4,78.2 464.6,191.9 465.8,78.2 467.0,191.9 468.1,78.2 469.3,191.9 470.5,78.2 471.7,191.9 472.9,78.2 474.1,191.9 475.3,78.2 476.5,191.9 477.6,78.2 478.8,191.9 480.0,78.2 481.2,191.9 482.4,78.2 483.6,191.9 484.8,78.2 485.9,191.9 487.1,78.2 488.3,191.9 489.5,78.2 490.7,191.9 491.9,78.2 493.1,191.9 494.3,78.2 495.4,191.9 496.6,78.2 497.8,191.9 499.0,78.2 500.2,191.9 501.4,78.2 502.6,191.9 503.7,78.2 504.9,191.9 506.1,78.2 507.3,191.9 508.5,78.2 509.7,191.9 510.9,78.2 512.1,191.9 513.2,78.2 514.4,191.9 515.6,78.2 516.8,191.9 518.0,78.2 519.2,191.9 520.4,78.2 521.5,191.9 522.7,78.2 523.9,191.9 525.1,78.2 526.3,191.9 527.5,78.2 528.7,191.9 529.9,78.2 531.0,191.9 532.2,78.2 533.4,191.9 534.6,78.2 535.8,191.9 537.0,78.2 538.2,191.9 539.3,78.2 540.5,191.9 541.7,78.2 542.9,191.9 544.1,78.2 545.3,191.9 546.5,78.2 547.7,191.9 548.8,78.2 550.0,191.9 551.2,78.2 552.4,191.9 553.6,78.2 554.8,191.9 556.0,78.2 557.1,191.9 558.3,78.2 559.5,191.9 560.7,78.2 561.9,191.9 563.1,78.2 564.3,191.9 565.5,78.2 566.6,191.9 567.8,78.2 569.0,191.9 570.2,78.2 571.4,191.9 572.6,78.2 573.8,191.9 574.9,78.2 576.1,191.9 577.3,78.2 578.5,191.9 579.7,78.2 580.9,191.9 582.1,78.2 583.3,191.9 584.4,78.2 585.6,191.9 586.8,78.2 588.0,191.9 589.2,78.2 590.4,191.9 591.6,78.2 592.7,191.9 593.9,78.2 595.1,191.9 596.3,78.2 597.5,191.9 598.7,78.2 599.9,191.9 601.1,78.2 602.2,191.9 603.4,78.2 604.6,191.9 605.8,78.2 607.0,191.9 608.2,78.2 609.4,191.9 610.5,78.2 611.7,191.9 612.9,78.2 614.1,191.9 615.3,78.2 616.5,191.9 617.7,78.2 618.9,191.9 620.0,78.2 621.2,191.9 622.4,78.2 623.6,191.9 624.8,78.2 626.0,191.9 627.2,78.2 628.3,191.9 629.5,78.2 630.7,191.9 631.9,78.2 633.1,191.9 634.3,78.2 635.5,191.9 636.7,78.2 637.8,191.9 639.0,78.2 640.2,191.9 641.4,78.2 642.6,191.9 643.8,78.2 645.0,191.9 646.1,78.2 647.3,191.9 648.5,78.2 649.7,191.9 650.9,78.2 652.1,191.9 653.3,78.2 654.5,191.9 655.6,78.2 656.8,191.9 658.0,78.2 659.2,191.9 660.4,78.2 661.6,191.9 662.8,78.2 663.9,191.9 665.1,78.2 666.3,191.9 667.5,78.2 668.7,191.9 669.9,78.2 671.1,191.9 672.3,78.2 673.4,191.9 674.6,78.2 675.8,191.9 677.0,78.2 678.2,191.9 679.4,78.2 680.6,191.9 681.7,78.2 682.9,191.9 684.1,78.2 685.3,191.9 686.5,78.2 687.7,191.9 688.9,78.2 690.1,191.9 691.2,78.2 692.4,191.9 693.6,78.2 694.8,191.9 696.0,78.2 697.2,191.9 698.4,78.2 699.5,191.9 700.7,78.2 701.9,191.9 703.1,78.2 704.3,191.9 705.5,78.2 706.7,191.9 707.9,78.2 709.0,191.9 710.2,78.2 711.4,191.9 712.6,78.2 713.8,191.9 715.0,78.2 716.2,191.9 717.3,78.2 718.5,191.9 719.7,78.2 720.9,191.9 722.1,78.2 723.3,191.9 724.5,78.2 725.7,191.9 726.8,78.2 728.0,191.9 729.2,78.2 730.4,191.9 731.6,78.2 732.8,191.9 734.0,78.2 735.1,191.9 736.3,78.2 737.5,191.9 738.7,78.2 739.9,191.9 741.1,78.2 742.3,191.9 743.5,78.2 744.6,191.9 745.8,78.2 747.0,191.9 748.2,78.2 749.4,191.9 750.6,78.2 751.8,191.9 752.9,78.2 754.1,191.9 755.3,78.2 756.5,191.9 757.7,78.2 758.9,191.9 760.1,78.2 761.3,191.9 762.4,78.2 763.6,191.9 764.8,78.2 766.0,191.9"/>
<line x1="606" y1="42" x2="628" y2="42" stroke="#0f62fe" stroke-width="2.2"/>
<text x="634" y="46" font-family="Arial" font-size="12">elevator_deg</text>
<polyline fill="none" stroke="#24a148" stroke-width="2.2" points="54.0,54.0 55.2,54.0 56.4,54.0 57.6,54.0 58.7,54.0 59.9,54.0 61.1,54.0 62.3,54.0 63.5,54.0 64.7,54.0 65.9,54.0 67.1,54.0 68.2,54.0 69.4,54.0 70.6,54.0 71.8,54.0 73.0,54.0 74.2,54.0 75.4,54.0 76.5,54.0 77.7,54.0 78.9,54.0 80.1,54.0 81.3,54.0 82.5,54.0 83.7,54.0 84.9,54.0 86.0,54.0 87.2,54.0 88.4,54.0 89.6,54.0 90.8,54.0 92.0,54.0 93.2,54.0 94.3,54.0 95.5,54.0 96.7,54.0 97.9,54.0 99.1,54.0 100.3,54.0 101.5,54.0 102.7,54.0 103.8,54.0 105.0,54.0 106.2,54.0 107.4,54.0 108.6,54.0 109.8,54.0 111.0,54.0 112.1,54.0 113.3,54.0 114.5,54.0 115.7,54.0 116.9,54.0 118.1,54.0 119.3,54.0 120.5,54.0 121.6,54.0 122.8,54.0 124.0,54.0 125.2,54.0 126.4,54.0 127.6,54.0 128.8,54.0 129.9,54.0 131.1,54.0 132.3,54.0 133.5,54.0 134.7,54.0 135.9,54.0 137.1,54.0 138.3,54.0 139.4,54.0 140.6,54.0 141.8,54.0 143.0,54.0 144.2,54.0 145.4,54.0 146.6,54.0 147.7,54.0 148.9,54.0 150.1,54.0 151.3,54.0 152.5,54.0 153.7,54.0 154.9,54.0 156.1,54.0 157.2,54.0 158.4,54.0 159.6,54.0 160.8,54.0 162.0,54.0 163.2,54.0 164.4,54.0 165.5,54.0 166.7,54.0 167.9,54.0 169.1,54.0 170.3,54.0 171.5,54.0 172.7,54.0 173.9,54.0 175.0,54.0 176.2,54.0 177.4,54.0 178.6,54.0 179.8,54.0 181.0,54.0 182.2,54.0 183.3,54.0 184.5,54.0 185.7,54.0 186.9,54.0 188.1,54.0 189.3,54.0 190.5,54.0 191.7,54.0 192.8,54.0 194.0,54.0 195.2,54.0 196.4,54.0 197.6,54.0 198.8,54.0 200.0,54.0 201.1,54.0 202.3,54.0 203.5,54.0 204.7,54.0 205.9,54.0 207.1,54.0 208.3,54.0 209.5,54.0 210.6,54.0 211.8,54.0 213.0,54.0 214.2,54.0 215.4,54.0 216.6,54.0 217.8,54.0 218.9,54.0 220.1,54.0 221.3,54.0 222.5,54.0 223.7,54.0 224.9,54.0 226.1,54.0 227.3,54.0 228.4,54.0 229.6,54.0 230.8,54.0 232.0,54.0 233.2,54.0 234.4,54.0 235.6,54.0 236.7,54.0 237.9,54.0 239.1,54.0 240.3,54.0 241.5,54.0 242.7,54.0 243.9,54.0 245.1,54.0 246.2,54.0 247.4,54.0 248.6,54.0 249.8,54.0 251.0,54.0 252.2,54.0 253.4,54.0 254.5,54.0 255.7,54.0 256.9,54.0 258.1,54.0 259.3,54.0 260.5,54.0 261.7,54.0 262.9,54.0 264.0,54.0 265.2,54.0 266.4,54.0 267.6,54.0 268.8,54.0 270.0,54.0 271.2,54.0 272.3,54.0 273.5,54.0 274.7,54.0 275.9,54.0 277.1,54.0 278.3,54.0 279.5,54.0 280.7,54.0 281.8,54.0 283.0,54.0 284.2,54.0 285.4,54.0 286.6,54.0 287.8,54.0 289.0,54.0 290.1,54.0 291.3,54.0 292.5,54.0 293.7,54.0 294.9,54.0 296.1,54.0 297.3,54.0 298.5,54.0 299.6,54.0 300.8,54.0 302.0,54.0 303.2,54.0 304.4,54.0 305.6,54.0 306.8,54.0 307.9,54.0 309.1,54.0 310.3,54.0 311.5,54.0 312.7,54.0 313.9,54.0 315.1,54.0 316.3,54.0 317.4,54.0 318.6,54.0 319.8,54.0 321.0,54.0 322.2,54.0 323.4,54.0 324.6,54.0 325.7,54.0 326.9,54.0 328.1,54.0 329.3,54.0 330.5,54.0 331.7,54.0 332.9,54.0 334.1,54.0 335.2,54.0 336.4,54.0 337.6,54.0 338.8,54.0 340.0,54.0 341.2,54.0 342.4,54.0 343.5,54.0 344.7,54.0 345.9,54.0 347.1,54.0 348.3,54.0 349.5,54.0 350.7,54.0 351.9,54.0 353.0,54.0 354.2,54.0 355.4,54.0 356.6,54.0 357.8,54.0 359.0,54.0 360.2,54.0 361.3,54.0 362.5,54.0 363.7,54.0 364.9,54.0 366.1,54.0 367.3,54.0 368.5,54.0 369.7,54.0 370.8,54.0 372.0,54.0 373.2,54.0 374.4,54.0 375.6,54.0 376.8,54.0 378.0,54.0 379.1,54.0 380.3,54.0 381.5,54.0 382.7,54.0 383.9,54.0 385.1,54.0 386.3,54.0 387.5,54.0 388.6,54.0 389.8,54.0 391.0,54.0 392.2,54.0 393.4,54.0 394.6,54.0 395.8,54.0 396.9,54.0 398.1,54.0 399.3,54.0 400.5,54.0 401.7,54.0 402.9,54.0 404.1,54.0 405.3,54.0 406.4,54.0 407.6,54.0 408.8,54.0 410.0,54.0 411.2,54.0 412.4,54.0 413.6,54.0 414.7,54.0 415.9,54.0 417.1,54.0 418.3,54.0 419.5,54.0 420.7,54.0 421.9,54.0 423.1,54.0 424.2,54.0 425.4,54.0 426.6,54.0 427.8,54.0 429.0,54.0 430.2,54.0 431.4,54.0 432.5,54.0 433.7,54.0 434.9,54.0 436.1,54.0 437.3,54.0 438.5,54.0 439.7,54.0 440.9,54.0 442.0,54.0 443.2,54.0 444.4,54.0 445.6,54.0 446.8,54.0 448.0,54.0 449.2,54.0 450.3,54.0 451.5,54.0 452.7,54.0 453.9,54.0 455.1,54.0 456.3,54.0 457.5,54.0 458.7,54.0 459.8,54.0 461.0,54.0 462.2,54.0 463.4,54.0 464.6,54.0 465.8,54.0 467.0,54.0 468.1,54.0 469.3,54.0 470.5,54.0 471.7,54.0 472.9,54.0 474.1,54.0 475.3,54.0 476.5,54.0 477.6,54.0 478.8,54.0 480.0,54.0 481.2,54.0 482.4,54.0 483.6,54.0 484.8,54.0 485.9,54.0 487.1,54.0 488.3,54.0 489.5,54.0 490.7,54.0 491.9,54.0 493.1,54.0 494.3,54.0 495.4,54.0 496.6,54.0 497.8,54.0 499.0,54.0 500.2,54.0 501.4,54.0 502.6,54.0 503.7,54.0 504.9,54.0 506.1,54.0 507.3,54.0 508.5,54.0 509.7,54.0 510.9,54.0 512.1,54.0 513.2,54.0 514.4,54.0 515.6,54.0 516.8,54.0 518.0,54.0 519.2,54.0 520.4,54.0 521.5,54.0 522.7,54.0 523.9,54.0 525.1,54.0 526.3,54.0 527.5,54.0 528.7,54.0 529.9,54.0 531.0,54.0 532.2,54.0 533.4,54.0 534.6,54.0 535.8,54.0 537.0,54.0 538.2,54.0 539.3,54.0 540.5,54.0 541.7,54.0 542.9,54.0 544.1,54.0 545.3,54.0 546.5,54.0 547.7,54.0 548.8,54.0 550.0,54.0 551.2,54.0 552.4,54.0 553.6,54.0 554.8,54.0 556.0,54.0 557.1,54.0 558.3,54.0 559.5,54.0 560.7,54.0 561.9,54.0 563.1,54.0 564.3,54.0 565.5,54.0 566.6,54.0 567.8,54.0 569.0,54.0 570.2,54.0 571.4,54.0 572.6,54.0 573.8,54.0 574.9,54.0 576.1,54.0 577.3,54.0 578.5,54.0 579.7,54.0 580.9,54.0 582.1,54.0 583.3,54.0 584.4,54.0 585.6,54.0 586.8,54.0 588.0,54.0 589.2,54.0 590.4,54.0 591.6,54.0 592.7,54.0 593.9,54.0 595.1,54.0 596.3,54.0 597.5,54.0 598.7,54.0 599.9,54.0 601.1,54.0 602.2,54.0 603.4,54.0 604.6,54.0 605.8,54.0 607.0,54.0 608.2,54.0 609.4,54.0 610.5,54.0 611.7,54.0 612.9,54.0 614.1,54.0 615.3,54.0 616.5,54.0 617.7,54.0 618.9,54.0 620.0,54.0 621.2,54.0 622.4,54.0 623.6,54.0 624.8,54.0 626.0,54.0 627.2,54.0 628.3,54.0 629.5,54.0 630.7,54.0 631.9,54.0 633.1,54.0 634.3,54.0 635.5,54.0 636.7,54.0 637.8,54.0 639.0,54.0 640.2,54.0 641.4,54.0 642.6,54.0 643.8,54.0 645.0,54.0 646.1,54.0 647.3,54.0 648.5,54.0 649.7,54.0 650.9,54.0 652.1,54.0 653.3,54.0 654.5,54.0 655.6,54.0 656.8,54.0 658.0,54.0 659.2,54.0 660.4,54.0 661.6,54.0 662.8,54.0 663.9,54.0 665.1,54.0 666.3,54.0 667.5,54.0 668.7,54.0 669.9,54.0 671.1,54.0 672.3,54.0 673.4,54.0 674.6,54.0 675.8,54.0 677.0,54.0 678.2,54.0 679.4,54.0 680.6,54.0 681.7,54.0 682.9,54.0 684.1,54.0 685.3,54.0 686.5,54.0 687.7,54.0 688.9,54.0 690.1,54.0 691.2,54.0 692.4,54.0 693.6,54.0 694.8,54.0 696.0,54.0 697.2,54.0 698.4,54.0 699.5,54.0 700.7,54.0 701.9,54.0 703.1,54.0 704.3,54.0 705.5,54.0 706.7,54.0 707.9,54.0 709.0,54.0 710.2,54.0 711.4,54.0 712.6,54.0 713.8,54.0 715.0,54.0 716.2,54.0 717.3,54.0 718.5,54.0 719.7,54.0 720.9,54.0 722.1,54.0 723.3,54.0 724.5,54.0 725.7,54.0 726.8,54.0 728.0,54.0 729.2,54.0 730.4,54.0 731.6,54.0 732.8,54.0 734.0,54.0 735.1,54.0 736.3,54.0 737.5,54.0 738.7,54.0 739.9,54.0 741.1,54.0 742.3,54.0 743.5,54.0 744.6,54.0 745.8,54.0 747.0,54.0 748.2,54.0 749.4,54.0 750.6,54.0 751.8,54.0 752.9,54.0 754.1,54.0 755.3,54.0 756.5,54.0 757.7,54.0 758.9,54.0 760.1,54.0 761.3,54.0 762.4,54.0 763.6,54.0 764.8,54.0 766.0,54.0"/>
<line x1="606" y1="60" x2="628" y2="60" stroke="#24a148" stroke-width="2.2"/>
<text x="634" y="64" font-family="Arial" font-size="12">aileron_deg</text>
<polyline fill="none" stroke="#da1e28" stroke-width="2.2" points="54.0,54.0 55.2,54.0 56.4,54.0 57.6,54.0 58.7,54.0 59.9,54.0 61.1,54.0 62.3,54.0 63.5,54.0 64.7,54.0 65.9,54.0 67.1,54.0 68.2,54.0 69.4,54.0 70.6,54.0 71.8,54.0 73.0,54.0 74.2,54.0 75.4,54.0 76.5,54.0 77.7,54.0 78.9,54.0 80.1,54.0 81.3,54.0 82.5,54.0 83.7,54.0 84.9,54.0 86.0,54.0 87.2,54.0 88.4,54.0 89.6,54.0 90.8,54.0 92.0,54.0 93.2,54.0 94.3,54.0 95.5,54.0 96.7,54.0 97.9,54.0 99.1,54.0 100.3,54.0 101.5,54.0 102.7,54.0 103.8,54.0 105.0,54.0 106.2,54.0 107.4,54.0 108.6,54.0 109.8,54.0 111.0,54.0 112.1,54.0 113.3,54.0 114.5,54.0 115.7,54.0 116.9,54.0 118.1,54.0 119.3,54.0 120.5,54.0 121.6,54.0 122.8,54.0 124.0,54.0 125.2,54.0 126.4,54.0 127.6,54.0 128.8,54.0 129.9,54.0 131.1,54.0 132.3,54.0 133.5,54.0 134.7,54.0 135.9,54.0 137.1,54.0 138.3,54.0 139.4,54.0 140.6,54.0 141.8,54.0 143.0,54.0 144.2,54.0 145.4,54.0 146.6,54.0 147.7,54.0 148.9,54.0 150.1,54.0 151.3,54.0 152.5,54.0 153.7,54.0 154.9,54.0 156.1,54.0 157.2,54.0 158.4,54.0 159.6,54.0 160.8,54.0 162.0,54.0 163.2,54.0 164.4,54.0 165.5,54.0 166.7,54.0 167.9,54.0 169.1,54.0 170.3,54.0 171.5,54.0 172.7,54.0 173.9,54.0 175.0,54.0 176.2,54.0 177.4,54.0 178.6,54.0 179.8,54.0 181.0,54.0 182.2,54.0 183.3,54.0 184.5,54.0 185.7,54.0 186.9,54.0 188.1,54.0 189.3,54.0 190.5,54.0 191.7,54.0 192.8,54.0 194.0,54.0 195.2,54.0 196.4,54.0 197.6,54.0 198.8,54.0 200.0,54.0 201.1,54.0 202.3,54.0 203.5,54.0 204.7,54.0 205.9,54.0 207.1,54.0 208.3,54.0 209.5,54.0 210.6,54.0 211.8,54.0 213.0,54.0 214.2,54.0 215.4,54.0 216.6,54.0 217.8,54.0 218.9,54.0 220.1,54.0 221.3,54.0 222.5,54.0 223.7,54.0 224.9,54.0 226.1,54.0 227.3,54.0 228.4,54.0 229.6,54.0 230.8,54.0 232.0,54.0 233.2,54.0 234.4,54.0 235.6,54.0 236.7,54.0 237.9,54.0 239.1,54.0 240.3,54.0 241.5,54.0 242.7,54.0 243.9,54.0 245.1,54.0 246.2,54.0 247.4,54.0 248.6,54.0 249.8,54.0 251.0,54.0 252.2,54.0 253.4,54.0 254.5,54.0 255.7,54.0 256.9,54.0 258.1,54.0 259.3,54.0 260.5,54.0 261.7,54.0 262.9,54.0 264.0,54.0 265.2,54.0 266.4,54.0 267.6,54.0 268.8,54.0 270.0,54.0 271.2,54.0 272.3,54.0 273.5,54.0 274.7,54.0 275.9,54.0 277.1,54.0 278.3,54.0 279.5,54.0 280.7,54.0 281.8,54.0 283.0,54.0 284.2,54.0 285.4,54.0 286.6,54.0 287.8,54.0 289.0,54.0 290.1,54.0 291.3,54.0 292.5,54.0 293.7,54.0 294.9,54.0 296.1,54.0 297.3,54.0 298.5,54.0 299.6,54.0 300.8,54.0 302.0,54.0 303.2,54.0 304.4,54.0 305.6,54.0 306.8,54.0 307.9,54.0 309.1,54.0 310.3,54.0 311.5,54.0 312.7,54.0 313.9,54.0 315.1,54.0 316.3,54.0 317.4,54.0 318.6,54.0 319.8,54.0 321.0,54.0 322.2,54.0 323.4,54.0 324.6,54.0 325.7,54.0 326.9,54.0 328.1,54.0 329.3,54.0 330.5,54.0 331.7,54.0 332.9,54.0 334.1,54.0 335.2,54.0 336.4,54.0 337.6,54.0 338.8,54.0 340.0,54.0 341.2,54.0 342.4,54.0 343.5,54.0 344.7,54.0 345.9,54.0 347.1,54.0 348.3,54.0 349.5,54.0 350.7,54.0 351.9,54.0 353.0,54.0 354.2,54.0 355.4,54.0 356.6,54.0 357.8,54.0 359.0,54.0 360.2,54.0 361.3,54.0 362.5,54.0 363.7,54.0 364.9,54.0 366.1,54.0 367.3,54.0 368.5,54.0 369.7,54.0 370.8,54.0 372.0,54.0 373.2,54.0 374.4,54.0 375.6,54.0 376.8,54.0 378.0,54.0 379.1,54.0 380.3,54.0 381.5,54.0 382.7,54.0 383.9,54.0 385.1,54.0 386.3,54.0 387.5,54.0 388.6,54.0 389.8,54.0 391.0,54.0 392.2,54.0 393.4,54.0 394.6,54.0 395.8,54.0 396.9,54.0 398.1,54.0 399.3,54.0 400.5,54.0 401.7,54.0 402.9,54.0 404.1,54.0 405.3,54.0 406.4,54.0 407.6,54.0 408.8,54.0 410.0,54.0 411.2,54.0 412.4,54.0 413.6,54.0 414.7,54.0 415.9,54.0 417.1,54.0 418.3,54.0 419.5,54.0 420.7,54.0 421.9,54.0 423.1,54.0 424.2,54.0 425.4,54.0 426.6,54.0 427.8,54.0 429.0,54.0 430.2,54.0 431.4,54.0 432.5,54.0 433.7,54.0 434.9,54.0 436.1,54.0 437.3,54.0 438.5,54.0 439.7,54.0 440.9,54.0 442.0,54.0 443.2,54.0 444.4,54.0 445.6,54.0 446.8,54.0 448.0,54.0 449.2,54.0 450.3,54.0 451.5,54.0 452.7,54.0 453.9,54.0 455.1,54.0 456.3,54.0 457.5,54.0 458.7,54.0 459.8,54.0 461.0,54.0 462.2,54.0 463.4,54.0 464.6,54.0 465.8,54.0 467.0,54.0 468.1,54.0 469.3,54.0 470.5,54.0 471.7,54.0 472.9,54.0 474.1,54.0 475.3,54.0 476.5,54.0 477.6,54.0 478.8,54.0 480.0,54.0 481.2,54.0 482.4,54.0 483.6,54.0 484.8,54.0 485.9,54.0 487.1,54.0 488.3,54.0 489.5,54.0 490.7,54.0 491.9,54.0 493.1,54.0 494.3,54.0 495.4,54.0 496.6,54.0 497.8,54.0 499.0,54.0 500.2,54.0 501.4,54.0 502.6,54.0 503.7,54.0 504.9,54.0 506.1,54.0 507.3,54.0 508.5,54.0 509.7,54.0 510.9,54.0 512.1,54.0 513.2,54.0 514.4,54.0 515.6,54.0 516.8,54.0 518.0,54.0 519.2,54.0 520.4,54.0 521.5,54.0 522.7,54.0 523.9,54.0 525.1,54.0 526.3,54.0 527.5,54.0 528.7,54.0 529.9,54.0 531.0,54.0 532.2,54.0 533.4,54.0 534.6,54.0 535.8,54.0 537.0,54.0 538.2,54.0 539.3,54.0 540.5,54.0 541.7,54.0 542.9,54.0 544.1,54.0 545.3,54.0 546.5,54.0 547.7,54.0 548.8,54.0 550.0,54.0 551.2,54.0 552.4,54.0 553.6,54.0 554.8,54.0 556.0,54.0 557.1,54.0 558.3,54.0 559.5,54.0 560.7,54.0 561.9,54.0 563.1,54.0 564.3,54.0 565.5,54.0 566.6,54.0 567.8,54.0 569.0,54.0 570.2,54.0 571.4,54.0 572.6,54.0 573.8,54.0 574.9,54.0 576.1,54.0 577.3,54.0 578.5,54.0 579.7,54.0 580.9,54.0 582.1,54.0 583.3,54.0 584.4,54.0 585.6,54.0 586.8,54.0 588.0,54.0 589.2,54.0 590.4,54.0 591.6,54.0 592.7,54.0 593.9,54.0 595.1,54.0 596.3,54.0 597.5,54.0 598.7,54.0 599.9,54.0 601.1,54.0 602.2,54.0 603.4,54.0 604.6,54.0 605.8,54.0 607.0,54.0 608.2,54.0 609.4,54.0 610.5,54.0 611.7,54.0 612.9,54.0 614.1,54.0 615.3,54.0 616.5,54.0 617.7,54.0 618.9,54.0 620.0,54.0 621.2,54.0 622.4,54.0 623.6,54.0 624.8,54.0 626.0,54.0 627.2,54.0 628.3,54.0 629.5,54.0 630.7,54.0 631.9,54.0 633.1,54.0 634.3,54.0 635.5,54.0 636.7,54.0 637.8,54.0 639.0,54.0 640.2,54.0 641.4,54.0 642.6,54.0 643.8,54.0 645.0,54.0 646.1,54.0 647.3,54.0 648.5,54.0 649.7,54.0 650.9,54.0 652.1,54.0 653.3,54.0 654.5,54.0 655.6,54.0 656.8,54.0 658.0,54.0 659.2,54.0 660.4,54.0 661.6,54.0 662.8,54.0 663.9,54.0 665.1,54.0 666.3,54.0 667.5,54.0 668.7,54.0 669.9,54.0 671.1,54.0 672.3,54.0 673.4,54.0 674.6,54.0 675.8,54.0 677.0,54.0 678.2,54.0 679.4,54.0 680.6,54.0 681.7,54.0 682.9,54.0 684.1,54.0 685.3,54.0 686.5,54.0 687.7,54.0 688.9,54.0 690.1,54.0 691.2,54.0 692.4,54.0 693.6,54.0 694.8,54.0 696.0,54.0 697.2,54.0 698.4,54.0 699.5,54.0 700.7,54.0 701.9,54.0 703.1,54.0 704.3,54.0 705.5,54.0 706.7,54.0 707.9,54.0 709.0,54.0 710.2,54.0 711.4,54.0 712.6,54.0 713.8,54.0 715.0,54.0 716.2,54.0 717.3,54.0 718.5,54.0 719.7,54.0 720.9,54.0 722.1,54.0 723.3,54.0 724.5,54.0 725.7,54.0 726.8,54.0 728.0,54.0 729.2,54.0 730.4,54.0 731.6,54.0 732.8,54.0 734.0,54.0 735.1,54.0 736.3,54.0 737.5,54.0 738.7,54.0 739.9,54.0 741.1,54.0 742.3,54.0 743.5,54.0 744.6,54.0 745.8,54.0 747.0,54.0 748.2,54.0 749.4,54.0 750.6,54.0 751.8,54.0 752.9,54.0 754.1,54.0 755.3,54.0 756.5,54.0 757.7,54.0 758.9,54.0 760.1,54.0 761.3,54.0 762.4,54.0 763.6,54.0 764.8,54.0 766.0,54.0"/>
<line x1="606" y1="78" x2="628" y2="78" stroke="#da1e28" stroke-width="2.2"/>
<text x="634" y="82" font-family="Arial" font-size="12">rudder_deg</text>
</svg>