<svg xmlns="http://www.w3.org/2000/svg" width="820" height="320" viewBox="0 0 820 320">
<rect width="100%" height="100%" fill="#ffffff"/>
<text x="54" y="28" font-family="Arial" font-size="18" font-weight="700">Pitch Command Tracking</text>
<line x1="54" y1="266" x2="766" y2="266" stroke="#1f2933"/>
<line x1="54" y1="54" x2="54" y2="266" stroke="#1f2933"/>
<text x="54" y="306" font-family="Arial" font-size="12">time (s)</text>
<text x="596" y="306" font-family="Arial" font-size="12">pitch (deg)</text>
<text x="58" y="68" font-family="Arial" font-size="11">13</text>
<text x="58" y="260" font-family="Arial" font-size="11">5.59</text>
<polyline fill="none" stroke="#0f62fe" stroke-width="2.2" points="54.0,54.0 55.2,54.4 56.4,54.9 57.6,55.3 58.7,55.7 59.9,56.1 61.1,56.6 62.3,57.0 63.5,57.4 64.7,57.9 65.9,58.3 67.1,58.7 68.2,59.1 69.4,59.6 70.6,60.0 71.8,60.4 73.0,60.9 74.2,61.3 75.4,61.7 76.5,62.2 77.7,62.6 78.9,63.0 80.1,63.4 81.3,63.9 82.5,64.3 83.7,64.7 84.9,65.2 86.0,65.6 87.2,66.0 88.4,66.4 89.6,66.9 90.8,67.3 92.0,67.7 93.2,68.2 94.3,68.6 95.5,69.0 96.7,69.4 97.9,69.9 99.1,70.3 100.3,70.7 101.5,71.2 102.7,71.6 103.8,72.0 105.0,72.5 106.2,72.9 107.4,73.3 108.6,73.7 109.8,74.2 111.0,74.6 112.1,75.0 113.3,75.5 114.5,75.9 115.7,76.3 116.9,76.7 118.1,77.2 119.3,77.6 120.5,78.0 121.6,78.5 122.8,78.9 124.0,79.3 125.2,79.7 126.4,80.2 127.6,80.6 128.8,81.0 129.9,81.5 131.1,81.9 132.3,82.3 133.5,82.7 134.7,83.2 135.9,83.6 137.1,84.0 138.3,84.5 139.4,84.9 140.6,85.3 141.8,85.8 143.0,86.2 144.2,86.6 145.4,87.0 146.6,87.5 147.7,87.9 148.9,88.3 150.1,88.8 151.3,89.2 152.5,89.6 153.7,90.0 154.9,90.5 156.1,90.9 157.2,91.3 158.4,91.8 159.6,92.2 160.8,92.6 162.0,93.0 163.2,93.5 164.4,93.9 165.5,94.3 166.7,94.8 167.9,95.2 169.1,95.6 170.3,96.0 171.5,96.5 172.7,96.9 173.9,97.3 175.0,97.8 176.2,98.2 177.4,98.6 178.6,99.1 179.8,99.5 181.0,99.9 182.2,100.3 183.3,100.8 184.5,101.2 185.7,101.6 186.9,102.1 188.1,102.5 189.3,102.9 190.5,103.3 191.7,103.8 192.8,104.2 194.0,104.6 195.2,105.1 196.4,105.5 197.6,105.9 198.8,106.3 200.0,106.8 201.1,107.2 202.3,107.6 203.5,108.1 204.7,108.5 205.9,108.9 207.1,109.4 208.3,109.8 209.5,110.2 210.6,110.6 211.8,111.1 213.0,111.5 214.2,111.9 215.4,112.4 216.6,112.8 217.8,113.2 218.9,113.6 220.1,114.1 221.3,114.5 222.5,114.9 223.7,115.4 224.9,115.8 226.1,116.2 227.3,116.6 228.4,117.1 229.6,117.5 230.8,117.9 232.0,118.4 233.2,118.8 234.4,119.2 235.6,119.6 236.7,120.1 237.9,120.5 239.1,120.9 240.3,121.4 241.5,121.8 242.7,122.2 243.9,122.7 245.1,123.1 246.2,123.5 247.4,123.9 248.6,124.4 249.8,124.8 251.0,125.2 252.2,125.7 253.4,126.1 254.5,126.5 255.7,126.9 256.9,127.4 258.1,127.8 259.3,128.2 260.5,128.7 261.7,129.1 262.9,129.5 264.0,129.9 265.2,130.4 266.4,130.8 267.6,131.2 268.8,131.7 270.0,132.1 271.2,132.5 272.3,133.0 273.5,133.4 274.7,133.8 275.9,134.2 277.1,134.7 278.3,135.1 279.5,135.5 280.7,136.0 281.8,136.4 283.0,136.8 284.2,137.2 285.4,137.7 286.6,138.1 287.8,138.5 289.0,139.0 290.1,139.4 291.3,139.8 292.5,140.1 293.7,140.5 294.9,140.8 296.1,141.1 297.3,141.4 298.5,141.7 299.6,142.1 300.8,142.4 302.0,142.7 303.2,143.0 304.4,143.4 305.6,143.7 306.8,144.0 307.9,144.3 309.1,144.6 310.3,145.0 311.5,145.3 312.7,145.6 313.9,145.9 315.1,146.3 316.3,146.6 317.4,146.9 318.6,147.2 319.8,147.5 321.0,147.9 322.2,148.2 323.4,148.5 324.6,148.8 325.7,149.1 326.9,149.5 328.1,149.8 329.3,150.1 330.5,150.4 331.7,150.8 332.9,151.1 334.1,151.4 335.2,151.7 336.4,152.0 337.6,152.4 338.8,152.7 340.0,153.0 341.2,153.3 342.4,153.7 343.5,154.0 344.7,154.3 345.9,154.6 347.1,154.9 348.3,155.3 349.5,155.6 350.7,155.9 351.9,156.2 353.0,156.6 354.2,156.9 355.4,157.2 356.6,157.5 357.8,157.8 359.0,158.2 360.2,158.5 361.3,158.8 362.5,159.1 363.7,159.4 364.9,159.8 366.1,160.1 367.3,160.4 368.5,160.7 369.7,161.1 370.8,161.4 372.0,161.7 373.2,162.0 374.4,162.3 375.6,162.7 376.8,163.0 378.0,163.3 379.1,163.6 380.3,164.0 381.5,164.3 382.7,164.6 383.9,164.9 385.1,165.2 386.3,165.6 387.5,165.9 388.6,166.2 389.8,166.5 391.0,166.8 392.2,167.2 393.4,167.5 394.6,167.8 395.8,168.1 396.9,168.5 398.1,168.8 399.3,169.1 400.5,169.4 401.7,169.7 402.9,170.1 404.1,170.4 405.3,170.7 406.4,171.0 407.6,171.4 408.8,171.7 410.0,172.0 411.2,172.3 412.4,172.6 413.6,173.0 414.7,173.3 415.9,173.6 417.1,173.9 418.3,174.3 419.5,174.6 420.7,174.9 421.9,175.2 423.1,175.5 424.2,175.9 425.4,176.2 426.6,176.5 427.8,176.8 429.0,177.1 430.2,177.5 431.4,177.8 432.5,178.1 433.7,178.4 434.9,178.8 436.1,179.1 437.3,179.4 438.5,179.7 439.7,180.0 440.9,180.4 442.0,180.7 443.2,181.0 444.4,181.3 445.6,181.7 446.8,182.0 448.0,182.3 449.2,182.6 450.3,182.9 451.5,183.3 452.7,183.6 453.9,183.9 455.1,184.2 456.3,184.5 457.5,184.9 458.7,185.2 459.8,185.5 461.0,185.8 462.2,186.2 463.4,186.5 464.6,186.8 465.8,187.1 467.0,187.4 468.1,187.8 469.3,188.1 470.5,188.4 471.7,188.7 472.9,189.1 474.1,189.4 475.3,189.7 476.5,190.0 477.6,190.3 478.8,190.7 480.0,191.0 481.2,191.3 482.4,191.6 483.6,191.9 484.8,192.3 485.9,192.6 487.1,192.9 488.3,193.2 489.5,193.6 490.7,193.9 491.9,194.2 493.1,194.5 494.3,194.8 495.4,195.2 496.6,195.5 497.8,195.8 499.0,196.1 500.2,196.5 501.4,196.8 502.6,197.1 503.7,197.4 504.9,197.7 506.1,198.1 507.3,198.4 508.5,198.7 509.7,199.0 510.9,199.4 512.1,199.7 513.2,200.0 514.4,200.3 515.6,200.6 516.8,201.0 518.0,201.3 519.2,201.6 520.4,201.9 521.5,202.2 522.7,202.6 523.9,202.9 525.1,203.2 526.3,203.5 527.5,203.9 528.7,204.2 529.9,204.5 531.0,204.8 532.2,205.1 533.4,205.5 534.6,205.8 535.8,206.1 537.0,206.4 538.2,206.8 539.3,207.1 540.5,207.4 541.7,207.7 542.9,208.0 544.1,208.4 545.3,208.7 546.5,209.0 547.7,209.3 548.8,209.6 550.0,210.0 551.2,210.3 552.4,210.6 553.6,210.9 554.8,211.3 556.0,211.6 557.1,211.9 558.3,212.2 559.5,212.5 560.7,212.9 561.9,213.2 563.1,213.5 564.3,213.8 565.5,214.2 566.6,214.5 567.8,214.8 569.0,215.1 570.2,215.4 571.4,215.8 572.6,216.1 573.8,216.4 574.9,216.7 576.1,217.1 577.3,217.4 578.5,217.7 579.7,218.0 580.9,218.3 582.1,218.7 583.3,219.0 584.4,219.3 585.6,219.6 586.8,219.9 588.0,220.3 589.2,220.6 590.4,220.9 591.6,221.2 592.7,221.6 593.9,221.9 595.1,222.2 596.3,222.5 597.5,222.8 598.7,223.2 599.9,223.5 601.1,223.8 602.2,224.1 603.4,224.5 604.6,224.8 605.8,225.1 607.0,225.4 608.2,225.6 609.4,225.6 610.5,225.6 611.7,225.6 612.9,225.6 614.1,225.6 615.3,225.6 616.5,225.6 617.7,225.6 618.9,225.6 620.0,225.6 621.2,225.6 622.4,225.6 623.6,225.6 624.8,225.6 626.0,225.6 627.2,225.6 628.3,225.6 629.5,225.6 630.7,225.6 631.9,225.6 633.1,225.6 634.3,225.6 635.5,225.6 636.7,225.6 637.8,225.6 639.0,225.6 640.2,225.6 641.4,225.6 642.6,225.6 643.8,225.6 645.0,225.6 646.1,225.6 647.3,225.6 648.5,225.6 649.7,225.6 650.9,225.6 652.1,225.6 653.3,225.6 654.5,225.6 655.6,225.6 656.8,225.6 658.0,225.6 659.2,225.6 660.4,225.6 661.6,225.6 662.8,225.6 663.9,225.6 665.1,225.6 666.3,225.6 667.5,225.6 668.7,225.6 669.9,225.6 671.1,225.6 672.3,225.6 673.4,225.6 674.6,225.6 675.8,225.6 677.0,225.6 678.2,225.6 679.4,225.6 680.6,225.6 681.7,225.6 682.9,225.6 684.1,225.6 685.3,225.6 686.5,225.6 687.7,225.6 688.9,225.6 690.1,225.6 691.2,225.6 692.4,225.6 693.6,225.6 694.8,225.6 696.0,225.6 697.2,225.6 698.4,225.6 699.5,225.6 700.7,225.6 701.9,225.6 703.1,225.6 704.3,225.6 705.5,225.6 706.7,225.6 707.9,225.6 709.0,225.6 710.2,225.6 711.4,225.6 712.6,225.6 713.8,225.6 715.0,225.6 716.2,225.6 717.3,225.6 718.5,225.6 719.7,225.6 720.9,225.6 722.1,225.6 723.3,225.6 724.5,225.6 725.7,225.6 726.8,225.6 728.0,225.6 729.2,225.6 730.4,225.6 731.6,225.6 732.8,225.6 734.0,225.6 735.1,225.6 736.3,225.6 737.5,225.6 738.7,225.6 739.9,225.6 741.1,225.6 742.3,225.6 743.5,225.6 744.6,225.6 745.8,225.6 747.0,225.6 748.2,225.6 749.4,225.6 750.6,225.6 751.8,225.6 752.9,225.6 754.1,225.6 755.3,225.6 756.5,225.6 757.7,225.6 758.9,225.6 760.1,225.6 761.3,225.6 762.4,225.6 763.6,225.6 764.8,225.6 766.0,225.6"/>
<line x1="606" y1="42" x2="628" y2="42" stroke="#0f62fe" stroke-width="2.2"/>
<text x="634" y="46" font-family="Arial" font-size="12">pitch_command_deg</text>
<polyline fill="none" stroke="#24a148" stroke-width="2.2" points="54.0,254.2 55.2,246.6 56.4,237.7 57.6,232.2 58.7,229.4 59.9,227.0 61.1,224.2 62.3,221.7 63.5,219.9 64.7,218.6 65.9,217.7 67.1,217.0 68.2,216.5 69.4,216.2 70.6,216.2 71.8,216.4 73.0,216.7 74.2,217.1 75.4,217.7 76.5,218.3 77.7,219.0 78.9,219.8 80.1,220.7 81.3,221.6 82.5,222.6 83.7,223.6 84.9,224.6 86.0,225.6 87.2,226.7 88.4,227.7 89.6,228.8 90.8,229.9 92.0,231.0 93.2,232.1 94.3,233.1 95.5,234.2 96.7,235.3 97.9,236.3 99.1,237.3 100.3,238.4 101.5,239.4 102.7,240.4 103.8,241.3 105.0,242.3 106.2,243.3 107.4,244.2 108.6,245.1 109.8,246.0 111.0,246.9 112.1,247.7 113.3,248.6 114.5,249.4 115.7,250.2 116.9,250.9 118.1,251.7 119.3,252.5 120.5,253.2 121.6,253.9 122.8,254.6 124.0,255.2 125.2,255.9 126.4,256.5 127.6,257.1 128.8,257.7 129.9,258.3 131.1,258.9 132.3,259.4 133.5,259.9 134.7,260.4 135.9,260.9 137.1,261.4 138.3,261.9 139.4,262.3 140.6,262.7 141.8,263.2 143.0,263.6 144.2,263.9 145.4,264.3 146.6,264.6 147.7,265.0 148.9,265.3 150.1,265.6 151.3,265.8 152.5,265.9 153.7,266.0 154.9,266.0 156.1,266.0 157.2,265.9 158.4,265.8 159.6,265.6 160.8,265.4 162.0,265.1 163.2,264.9 164.4,264.6 165.5,264.2 166.7,263.9 167.9,263.5 169.1,263.1 170.3,262.7 171.5,262.2 172.7,261.8 173.9,261.3 175.0,260.8 176.2,260.2 177.4,259.7 178.6,259.2 179.8,258.6 181.0,258.0 182.2,257.4 183.3,256.8 184.5,256.2 185.7,255.6 186.9,255.0 188.1,254.3 189.3,253.7 190.5,253.0 191.7,252.4 192.8,251.7 194.0,251.0 195.2,250.3 196.4,249.7 197.6,248.9 198.8,248.4 200.0,247.4 201.1,247.2 202.3,245.6 203.5,246.5 204.7,242.7 205.9,247.9 207.1,235.9 208.3,245.8 209.5,237.5 210.6,249.4 211.8,240.3 213.0,250.2 214.2,238.4 215.4,246.4 216.6,233.5 217.8,242.0 218.9,230.2 220.1,240.2 221.3,229.3 222.5,239.8 223.7,228.3 224.9,238.2 226.1,225.7 227.3,235.3 228.4,222.5 229.6,232.4 230.8,219.9 232.0,230.3 233.2,217.8 234.4,228.4 235.6,215.5 236.7,225.9 237.9,212.6 239.1,223.1 240.3,209.7 241.5,220.4 242.7,206.9 243.9,217.9 245.1,204.2 246.2,215.2 247.4,201.3 248.6,212.4 249.8,198.2 251.0,209.4 252.2,195.1 253.4,206.5 254.5,192.0 255.7,203.6 256.9,188.8 258.1,200.5 259.3,185.5 260.5,197.3 261.7,182.1 262.9,194.1 264.0,178.7 265.2,190.9 266.4,175.3 267.6,187.5 268.8,171.7 270.0,184.2 271.2,168.3 272.3,180.7 273.5,164.8 274.7,177.2 275.9,161.3 277.1,173.8 278.3,157.9 279.5,170.3 280.7,154.4 281.8,166.8 283.0,150.9 284.2,163.3 285.4,148.7 286.6,162.4 287.8,147.8 289.0,161.5 290.1,146.9 291.3,160.6 292.5,146.0 293.7,159.7 294.9,145.1 296.1,158.3 297.3,143.2 298.5,156.2 299.6,140.9 300.8,153.9 302.0,138.6 303.2,151.6 304.4,136.3 305.6,149.4 306.8,134.1 307.9,147.1 309.1,132.9 310.3,147.1 311.5,132.9 312.7,147.1 313.9,132.9 315.1,147.1 316.3,132.9 317.4,147.1 318.6,132.9 319.8,147.1 321.0,133.0 322.2,147.1 323.4,133.0 324.6,147.1 325.7,133.0 326.9,147.1 328.1,133.0 329.3,147.1 330.5,132.9 331.7,146.3 332.9,131.2 334.1,144.6 335.2,129.6 336.4,142.9 337.6,127.9 338.8,141.2 340.0,126.2 341.2,139.5 342.4,124.5 343.5,137.8 344.7,122.8 345.9,136.1 347.1,122.4 348.3,137.0 349.5,123.2 350.7,137.8 351.9,124.1 353.0,138.6 354.2,124.9 355.4,139.5 356.6,125.8 357.8,140.3 359.0,126.6 360.2,141.2 361.3,127.4 362.5,142.0 363.7,128.3 364.9,142.9 366.1,129.1 367.3,143.7 368.5,130.0 369.7,144.6 370.8,130.8 372.0,145.4 373.2,131.7 374.4,146.2 375.6,132.5 376.8,147.1 378.0,133.4 379.1,147.9 380.3,134.2 381.5,148.8 382.7,135.0 383.9,149.6 385.1,135.9 386.3,150.5 387.5,136.7 388.6,151.3 389.8,137.6 391.0,152.2 392.2,138.4 393.4,153.0 394.6,139.3 395.8,153.9 396.9,140.1 398.1,154.7 399.3,141.0 400.5,155.5 401.7,141.8 402.9,156.4 404.1,142.6 405.3,157.2 406.4,143.5 407.6,158.1 408.8,144.3 410.0,158.9 411.2,145.2 412.4,159.8 413.6,146.0 414.7,160.6 415.9,146.9 417.1,161.5 418.3,147.7 419.5,162.3 420.7,148.6 421.9,163.1 423.1,149.4 424.2,164.0 425.4,150.3 426.6,164.8 427.8,151.1 429.0,165.7 430.2,151.9 431.4,166.5 432.5,152.8 433.7,167.4 434.9,153.6 436.1,168.2 437.3,154.5 438.5,169.1 439.7,155.3 440.9,169.9 442.0,156.2 443.2,170.7 444.4,157.0 445.6,171.6 446.8,157.9 448.0,172.4 449.2,158.7 450.3,173.3 451.5,159.5 452.7,174.1 453.9,160.4 455.1,175.0 456.3,161.2 457.5,175.8 458.7,162.1 459.8,176.7 461.0,162.9 462.2,177.5 463.4,163.7 464.6,178.3 465.8,164.5 467.0,179.0 468.1,165.3 469.3,179.8 470.5,166.0 471.7,180.6 472.9,166.8 474.1,181.3 475.3,167.6 476.5,182.1 477.6,168.3 478.8,182.9 480.0,169.1 481.2,183.7 482.4,169.9 483.6,184.4 484.8,170.7 485.9,185.2 487.1,171.4 488.3,186.0 489.5,172.2 490.7,186.8 491.9,173.0 493.1,187.5 494.3,173.8 495.4,188.3 496.6,174.5 497.8,189.1 499.0,175.3 500.2,189.9 501.4,176.1 502.6,190.6 503.7,176.9 504.9,191.4 506.1,177.6 507.3,192.1 508.5,178.4 509.7,192.9 510.9,179.1 512.1,193.6 513.2,179.9 514.4,194.4 515.6,180.6 516.8,195.2 518.0,181.4 519.2,195.9 520.4,182.1 521.5,196.7 522.7,182.9 523.9,197.4 525.1,183.6 526.3,198.2 527.5,184.4 528.7,198.9 529.9,185.1 531.0,199.6 532.2,185.8 533.4,200.4 534.6,186.6 535.8,201.1 537.0,187.3 538.2,201.9 539.3,188.1 540.5,202.6 541.7,188.8 542.9,203.3 544.1,189.5 545.3,204.1 546.5,190.3 547.7,204.8 548.8,191.0 550.0,205.5 551.2,191.7 552.4,206.2 553.6,192.5 554.8,207.0 556.0,193.2 557.1,207.7 558.3,193.9 559.5,208.4 560.7,194.6 561.9,209.2 563.1,195.4 564.3,209.9 565.5,196.1 566.6,210.6 567.8,196.8 569.0,211.3 570.2,197.5 571.4,211.9 572.6,198.0 573.8,212.4 574.9,198.5 576.1,212.9 577.3,199.0 578.5,213.4 579.7,199.5 580.9,213.9 582.1,200.0 583.3,214.4 584.4,200.5 585.6,214.9 586.8,201.0 588.0,215.4 589.2,201.5 590.4,215.9 591.6,201.9 592.7,216.4 593.9,202.4 595.1,216.8 596.3,202.9 597.5,217.3 598.7,203.4 599.9,217.8 601.1,203.9 602.2,218.3 603.4,204.4 604.6,218.8 605.8,204.9 607.0,219.3 608.2,205.4 609.4,219.8 610.5,205.9 611.7,220.3 612.9,206.4 614.1,220.8 615.3,206.9 616.5,221.3 617.7,207.4 618.9,221.8 620.0,207.9 621.2,222.3 622.4,208.4 623.6,222.8 624.8,208.8 626.0,223.3 627.2,209.3 628.3,223.7 629.5,209.8 630.7,224.2 631.9,210.3 633.1,224.7 634.3,210.8 635.5,225.2 636.7,211.3 637.8,225.7 639.0,211.8 640.2,226.2 641.4,212.3 642.6,226.7 643.8,212.8 645.0,227.2 646.1,213.3 647.3,227.7 648.5,213.8 649.7,228.2 650.9,214.3 652.1,228.7 653.3,214.8 654.5,229.2 655.6,215.3 656.8,229.7 658.0,215.7 659.2,230.2 660.4,216.2 661.6,230.6 662.8,216.7 663.9,231.1 665.1,217.2 666.3,231.6 667.5,217.7 668.7,232.1 669.9,218.2 671.1,232.6 672.3,218.7 673.4,233.1 674.6,219.2 675.8,233.6 677.0,219.7 678.2,234.1 679.4,220.2 680.6,234.6 681.7,220.7 682.9,235.1 684.1,221.2 685.3,235.6 686.5,221.7 687.7,236.1 688.9,222.2 690.1,236.6 691.2,222.6 692.4,237.1 693.6,223.1 694.8,237.5 696.0,223.6 697.2,238.0 698.4,224.1 699.5,238.5 700.7,224.6 701.9,239.0 703.1,225.1 704.3,239.5 705.5,225.6 706.7,240.0 707.9,226.1 709.0,240.5 710.2,226.6 711.4,241.0 712.6,227.1 713.8,241.5 715.0,227.6 716.2,242.0 717.3,228.1 718.5,242.5 719.7,228.6 720.9,243.0 722.1,229.1 723.3,243.5 724.5,229.5 725.7,244.0 726.8,230.0 728.0,244.4 729.2,230.5 730.4,244.9 731.6,231.0 732.8,245.4 734.0,231.5 735.1,245.9 736.3,232.0 737.5,246.4 738.7,232.5 739.9,246.9 741.1,233.0 742.3,247.4 743.5,233.5 744.6,247.9 745.8,234.0 747.0,248.4 748.2,234.5 749.4,248.9 750.6,235.0 751.8,249.4 752.9,235.5 754.1,249.9 755.3,236.0 756.5,250.4 757.7,236.4 758.9,250.9 760.1,236.9 761.3,251.3 762.4,237.4 763.6,251.8 764.8,237.9 766.0,252.3"/>
<line x1="606" y1="60" x2="628" y2="60" stroke="#24a148" stroke-width="2.2"/>
<text x="634" y="64" font-family="Arial" font-size="12">pitch_deg</text>
</svg>