<svg xmlns="http://www.w3.org/2000/svg" width="820" height="320" viewBox="0 0 820 320">
<rect width="100%" height="100%" fill="#ffffff"/>
<text x="54" y="28" font-family="Arial" font-size="18" font-weight="700">Altitude</text>
<line x1="54" y1="266" x2="766" y2="266" stroke="#1f2933"/>
<line x1="54" y1="54" x2="54" y2="266" stroke="#1f2933"/>
<text x="54" y="306" font-family="Arial" font-size="12">time (s)</text>
<text x="596" y="306" font-family="Arial" font-size="12">altitude (m)</text>
<text x="58" y="68" font-family="Arial" font-size="11">286</text>
<text x="58" y="260" font-family="Arial" font-size="11">120</text>
<polyline fill="none" stroke="#0f62fe" stroke-width="2.2" points="54.0,266.0 55.2,265.4 56.4,264.8 57.6,264.2 58.7,263.6 59.9,263.1 61.1,262.5 62.3,261.9 63.5,261.4 64.7,260.8 65.9,260.2 67.1,259.7 68.2,259.2 69.4,258.6 70.6,258.1 71.8,257.6 73.0,257.0 74.2,256.5 75.4,256.0 76.5,255.5 77.7,255.0 78.9,254.5 80.1,253.9 81.3,253.4 82.5,252.9 83.7,252.4 84.9,252.0 86.0,251.5 87.2,251.0 88.4,250.5 89.6,250.0 90.8,249.5 92.0,249.1 93.2,248.6 94.3,248.1 95.5,247.7 96.7,247.2 97.9,246.7 99.1,246.3 100.3,245.8 101.5,245.4 102.7,244.9 103.8,244.5 105.0,244.0 106.2,243.6 107.4,243.1 108.6,242.7 109.8,242.2 111.0,241.8 112.1,241.4 113.3,240.9 114.5,240.5 115.7,240.1 116.9,239.7 118.1,239.2 119.3,238.8 120.5,238.4 121.6,238.0 122.8,237.6 124.0,237.1 125.2,236.7 126.4,236.3 127.6,235.9 128.8,235.5 129.9,235.1 131.1,234.7 132.3,234.3 133.5,233.9 134.7,233.5 135.9,233.1 137.1,232.7 138.3,232.3 139.4,231.9 140.6,231.5 141.8,231.1 143.0,230.7 144.2,230.3 145.4,229.9 146.6,229.5 147.7,229.1 148.9,228.7 150.1,228.3 151.3,227.9 152.5,227.5 153.7,227.1 154.9,226.7 156.1,226.3 157.2,225.9 158.4,225.5 159.6,225.1 160.8,224.7 162.0,224.3 163.2,223.9 164.4,223.5 165.5,223.1 166.7,222.7 167.9,222.3 169.1,221.9 170.3,221.5 171.5,221.1 172.7,220.7 173.9,220.3 175.0,219.9 176.2,219.5 177.4,219.1 178.6,218.7 179.8,218.3 181.0,217.9 182.2,217.4 183.3,217.0 184.5,216.6 185.7,216.2 186.9,215.8 188.1,215.3 189.3,214.9 190.5,214.5 191.7,214.0 192.8,213.6 194.0,213.2 195.2,212.7 196.4,212.3 197.6,211.8 198.8,211.4 200.0,210.9 201.1,210.5 202.3,210.0 203.5,209.6 204.7,209.1 205.9,208.6 207.1,208.2 208.3,207.7 209.5,207.2 210.6,206.7 211.8,206.2 213.0,205.8 214.2,205.3 215.4,204.8 216.6,204.3 217.8,203.8 218.9,203.3 220.1,202.7 221.3,202.2 222.5,201.7 223.7,201.2 224.9,200.7 226.1,200.1 227.3,199.6 228.4,199.1 229.6,198.5 230.8,198.0 232.0,197.4 233.2,196.9 234.4,196.3 235.6,195.7 236.7,195.2 237.9,194.6 239.1,194.0 240.3,193.4 241.5,192.8 242.7,192.2 243.9,191.6 245.1,191.0 246.2,190.4 247.4,189.8 248.6,189.2 249.8,188.6 251.0,188.0 252.2,187.3 253.4,186.7 254.5,186.1 255.7,185.4 256.9,184.8 258.1,184.1 259.3,183.5 260.5,182.8 261.7,182.2 262.9,181.5 264.0,180.8 265.2,180.1 266.4,179.4 267.6,178.8 268.8,178.1 270.0,177.4 271.2,176.7 272.3,176.0 273.5,175.2 274.7,174.5 275.9,173.8 277.1,173.1 278.3,172.4 279.5,171.6 280.7,170.9 281.8,170.1 283.0,169.4 284.2,168.6 285.4,167.9 286.6,167.1 287.8,166.3 289.0,165.5 290.1,164.8 291.3,164.0 292.5,163.2 293.7,162.4 294.9,161.6 296.1,160.8 297.3,160.0 298.5,159.3 299.6,158.5 300.8,157.7 302.0,156.9 303.2,156.1 304.4,155.4 305.6,154.6 306.8,153.8 307.9,153.0 309.1,152.2 310.3,151.5 311.5,150.7 312.7,149.9 313.9,149.1 315.1,148.3 316.3,147.6 317.4,146.8 318.6,146.0 319.8,145.2 321.0,144.5 322.2,143.7 323.4,142.9 324.6,142.2 325.7,141.4 326.9,140.6 328.1,139.9 329.3,139.1 330.5,138.3 331.7,137.6 332.9,136.8 334.1,136.1 335.2,135.3 336.4,134.6 337.6,133.8 338.8,133.1 340.0,132.3 341.2,131.6 342.4,130.8 343.5,130.1 344.7,129.3 345.9,128.6 347.1,127.9 348.3,127.1 349.5,126.4 350.7,125.7 351.9,124.9 353.0,124.2 354.2,123.5 355.4,122.8 356.6,122.1 357.8,121.3 359.0,120.6 360.2,119.9 361.3,119.2 362.5,118.5 363.7,117.8 364.9,117.1 366.1,116.4 367.3,115.7 368.5,115.0 369.7,114.3 370.8,113.6 372.0,113.0 373.2,112.3 374.4,111.6 375.6,110.9 376.8,110.3 378.0,109.6 379.1,108.9 380.3,108.3 381.5,107.6 382.7,107.0 383.9,106.3 385.1,105.7 386.3,105.0 387.5,104.4 388.6,103.8 389.8,103.1 391.0,102.5 392.2,101.9 393.4,101.3 394.6,100.7 395.8,100.0 396.9,99.4 398.1,98.8 399.3,98.2 400.5,97.6 401.7,97.0 402.9,96.4 404.1,95.9 405.3,95.3 406.4,94.7 407.6,94.1 408.8,93.6 410.0,93.0 411.2,92.4 412.4,91.9 413.6,91.3 414.7,90.8 415.9,90.2 417.1,89.7 418.3,89.1 419.5,88.6 420.7,88.1 421.9,87.5 423.1,87.0 424.2,86.5 425.4,86.0 426.6,85.5 427.8,85.0 429.0,84.5 430.2,84.0 431.4,83.5 432.5,83.0 433.7,82.5 434.9,82.0 436.1,81.5 437.3,81.0 438.5,80.6 439.7,80.1 440.9,79.6 442.0,79.2 443.2,78.7 444.4,78.3 445.6,77.8 446.8,77.4 448.0,76.9 449.2,76.5 450.3,76.1 451.5,75.7 452.7,75.2 453.9,74.8 455.1,74.4 456.3,74.0 457.5,73.6 458.7,73.2 459.8,72.8 461.0,72.4 462.2,72.0 463.4,71.6 464.6,71.3 465.8,70.9 467.0,70.5 468.1,70.1 469.3,69.8 470.5,69.4 471.7,69.1 472.9,68.7 474.1,68.4 475.3,68.0 476.5,67.7 477.6,67.4 478.8,67.1 480.0,66.7 481.2,66.4 482.4,66.1 483.6,65.8 484.8,65.5 485.9,65.2 487.1,64.9 488.3,64.6 489.5,64.3 490.7,64.0 491.9,63.8 493.1,63.5 494.3,63.2 495.4,62.9 496.6,62.7 497.8,62.4 499.0,62.2 500.2,61.9 501.4,61.7 502.6,61.4 503.7,61.2 504.9,60.9 506.1,60.7 507.3,60.5 508.5,60.3 509.7,60.0 510.9,59.8 512.1,59.6 513.2,59.4 514.4,59.2 515.6,59.0 516.8,58.8 518.0,58.6 519.2,58.4 520.4,58.3 521.5,58.1 522.7,57.9 523.9,57.7 525.1,57.6 526.3,57.4 527.5,57.3 528.7,57.1 529.9,56.9 531.0,56.8 532.2,56.7 533.4,56.5 534.6,56.4 535.8,56.2 537.0,56.1 538.2,56.0 539.3,55.9 540.5,55.8 541.7,55.6 542.9,55.5 544.1,55.4 545.3,55.3 546.5,55.2 547.7,55.1 548.8,55.0 550.0,55.0 551.2,54.9 552.4,54.8 553.6,54.7 554.8,54.7 556.0,54.6 557.1,54.5 558.3,54.5 559.5,54.4 560.7,54.4 561.9,54.3 563.1,54.3 564.3,54.2 565.5,54.2 566.6,54.1 567.8,54.1 569.0,54.1 570.2,54.1 571.4,54.0 572.6,54.0 573.8,54.0 574.9,54.0 576.1,54.0 577.3,54.0 578.5,54.0 579.7,54.0 580.9,54.0 582.1,54.0 583.3,54.0 584.4,54.1 585.6,54.1 586.8,54.1 588.0,54.1 589.2,54.2 590.4,54.2 591.6,54.3 592.7,54.3 593.9,54.4 595.1,54.4 596.3,54.5 597.5,54.5 598.7,54.6 599.9,54.6 601.1,54.7 602.2,54.8 603.4,54.9 604.6,54.9 605.8,55.0 607.0,55.1 608.2,55.2 609.4,55.3 610.5,55.4 611.7,55.5 612.9,55.6 614.1,55.7 615.3,55.8 616.5,55.9 617.7,56.0 618.9,56.2 620.0,56.3 621.2,56.4 622.4,56.6 623.6,56.7 624.8,56.8 626.0,57.0 627.2,57.1 628.3,57.3 629.5,57.4 630.7,57.6 631.9,57.7 633.1,57.9 634.3,58.1 635.5,58.2 636.7,58.4 637.8,58.6 639.0,58.7 640.2,58.9 641.4,59.1 642.6,59.3 643.8,59.5 645.0,59.7 646.1,59.9 647.3,60.1 648.5,60.3 649.7,60.5 650.9,60.7 652.1,60.9 653.3,61.1 654.5,61.4 655.6,61.6 656.8,61.8 658.0,62.0 659.2,62.3 660.4,62.5 661.6,62.8 662.8,63.0 663.9,63.2 665.1,63.5 666.3,63.8 667.5,64.0 668.7,64.3 669.9,64.5 671.1,64.8 672.3,65.1 673.4,65.3 674.6,65.6 675.8,65.9 677.0,66.2 678.2,66.5 679.4,66.8 680.6,67.0 681.7,67.3 682.9,67.6 684.1,67.9 685.3,68.2 686.5,68.5 687.7,68.9 688.9,69.2 690.1,69.5 691.2,69.8 692.4,70.1 693.6,70.5 694.8,70.8 696.0,71.1 697.2,71.5 698.4,71.8 699.5,72.1 700.7,72.5 701.9,72.8 703.1,73.2 704.3,73.5 705.5,73.9 706.7,74.2 707.9,74.6 709.0,75.0 710.2,75.3 711.4,75.7 712.6,76.1 713.8,76.4 715.0,76.8 716.2,77.2 717.3,77.6 718.5,77.9 719.7,78.3 720.9,78.7 722.1,79.1 723.3,79.5 724.5,79.9 725.7,80.3 726.8,80.7 728.0,81.1 729.2,81.5 730.4,81.9 731.6,82.3 732.8,82.7 734.0,83.2 735.1,83.6 736.3,84.0 737.5,84.4 738.7,84.9 739.9,85.3 741.1,85.7 742.3,86.1 743.5,86.6 744.6,87.0 745.8,87.4 747.0,87.9 748.2,88.3 749.4,88.8 750.6,89.2 751.8,89.7 752.9,90.1 754.1,90.6 755.3,91.0 756.5,91.5 757.7,92.0 758.9,92.4 760.1,92.9 761.3,93.3 762.4,93.8 763.6,94.3 764.8,94.8 766.0,95.2"/>
<line x1="606" y1="42" x2="628" y2="42" stroke="#0f62fe" stroke-width="2.2"/>
<text x="634" y="46" font-family="Arial" font-size="12">altitude_m</text>
</svg>