<svg xmlns="http://www.w3.org/2000/svg" width="820" height="320" viewBox="0 0 820 320">
<rect width="100%" height="100%" fill="#ffffff"/>
<text x="54" y="28" font-family="Arial" font-size="18" font-weight="700">Downrange/Crossrange</text>
<line x1="54" y1="266" x2="766" y2="266" stroke="#1f2933"/>
<line x1="54" y1="54" x2="54" y2="266" stroke="#1f2933"/>
<text x="54" y="306" font-family="Arial" font-size="12">downrange (m)</text>
<text x="596" y="306" font-family="Arial" font-size="12">crossrange (m)</text>
<text x="58" y="68" font-family="Arial" font-size="11">1</text>
<text x="58" y="260" font-family="Arial" font-size="11">-1</text>
<polyline fill="none" stroke="#0f62fe" stroke-width="2.2" points="54.0,160.0 54.7,160.0 55.4,160.0 56.1,160.0 56.8,160.0 57.5,160.0 58.2,160.0 58.9,160.0 59.6,160.0 60.3,160.0 61.0,160.0 61.7,160.0 62.5,160.0 63.2,160.0 64.0,160.0 64.7,160.0 65.4,160.0 66.2,160.0 67.0,160.0 67.7,160.0 68.5,160.0 69.3,160.0 70.1,160.0 70.8,160.0 71.6,160.0 72.4,160.0 73.2,160.0 74.0,160.0 74.8,160.0 75.6,160.0 76.5,160.0 77.3,160.0 78.1,160.0 78.9,160.0 79.8,160.0 80.6,160.0 81.5,160.0 82.3,160.0 83.2,160.0 84.0,160.0 84.9,160.0 85.8,160.0 86.7,160.0 87.5,160.0 88.4,160.0 89.3,160.0 90.2,160.0 91.1,160.0 92.0,160.0 92.9,160.0 93.8,160.0 94.7,160.0 95.7,160.0 96.6,160.0 97.5,160.0 98.5,160.0 99.4,160.0 100.3,160.0 101.3,160.0 102.2,160.0 103.2,160.0 104.2,160.0 105.1,160.0 106.1,160.0 107.1,160.0 108.1,160.0 109.0,160.0 110.0,160.0 111.0,160.0 112.0,160.0 113.0,160.0 114.0,160.0 115.1,160.0 116.1,160.0 117.1,160.0 118.1,160.0 119.2,160.0 120.2,160.0 121.2,160.0 122.3,160.0 123.3,160.0 124.4,160.0 125.4,160.0 126.5,160.0 127.6,160.0 128.6,160.0 129.7,160.0 130.8,160.0 131.9,160.0 133.0,160.0 134.1,160.0 135.2,160.0 136.3,160.0 137.4,160.0 138.5,160.0 139.6,160.0 140.7,160.0 141.8,160.0 143.0,160.0 144.1,160.0 145.2,160.0 146.4,160.0 147.5,160.0 148.7,160.0 149.8,160.0 151.0,160.0 152.1,160.0 153.3,160.0 154.5,160.0 155.6,160.0 156.8,160.0 158.0,160.0 159.2,160.0 160.4,160.0 161.6,160.0 162.8,160.0 164.0,160.0 165.2,160.0 166.4,160.0 167.6,160.0 168.8,160.0 170.0,160.0 171.3,160.0 172.5,160.0 173.7,160.0 175.0,160.0 176.2,160.0 177.5,160.0 178.7,160.0 180.0,160.0 181.2,160.0 182.5,160.0 183.8,160.0 185.0,160.0 186.3,160.0 187.6,160.0 188.9,160.0 190.2,160.0 191.5,160.0 192.8,160.0 194.0,160.0 195.4,160.0 196.7,160.0 198.0,160.0 199.3,160.0 200.6,160.0 201.9,160.0 203.2,160.0 204.6,160.0 205.9,160.0 207.2,160.0 208.6,160.0 209.9,160.0 211.3,160.0 212.6,160.0 214.0,160.0 215.4,160.0 216.7,160.0 218.1,160.0 219.5,160.0 220.8,160.0 222.2,160.0 223.6,160.0 225.0,160.0 226.4,160.0 227.8,160.0 229.2,160.0 230.6,160.0 232.0,160.0 233.4,160.0 234.8,160.0 236.2,160.0 237.6,160.0 239.0,160.0 240.5,160.0 241.9,160.0 243.3,160.0 244.8,160.0 246.2,160.0 247.7,160.0 249.1,160.0 250.6,160.0 252.0,160.0 253.5,160.0 254.9,160.0 256.4,160.0 257.9,160.0 259.3,160.0 260.8,160.0 262.3,160.0 263.8,160.0 265.3,160.0 266.8,160.0 268.3,160.0 269.8,160.0 271.3,160.0 272.8,160.0 274.3,160.0 275.8,160.0 277.3,160.0 278.8,160.0 280.3,160.0 281.8,160.0 283.4,160.0 284.9,160.0 286.4,160.0 287.9,160.0 289.4,160.0 290.9,160.0 292.4,160.0 293.9,160.0 295.4,160.0 296.9,160.0 298.4,160.0 299.8,160.0 301.3,160.0 302.8,160.0 304.3,160.0 305.8,160.0 307.3,160.0 308.7,160.0 310.2,160.0 311.7,160.0 313.1,160.0 314.6,160.0 316.1,160.0 317.5,160.0 319.0,160.0 320.5,160.0 321.9,160.0 323.4,160.0 324.8,160.0 326.3,160.0 327.7,160.0 329.2,160.0 330.6,160.0 332.1,160.0 333.5,160.0 335.0,160.0 336.4,160.0 337.8,160.0 339.3,160.0 340.7,160.0 342.1,160.0 343.6,160.0 345.0,160.0 346.4,160.0 347.8,160.0 349.3,160.0 350.7,160.0 352.1,160.0 353.5,160.0 354.9,160.0 356.3,160.0 357.7,160.0 359.1,160.0 360.6,160.0 362.0,160.0 363.4,160.0 364.8,160.0 366.2,160.0 367.6,160.0 369.0,160.0 370.3,160.0 371.7,160.0 373.1,160.0 374.5,160.0 375.9,160.0 377.3,160.0 378.7,160.0 380.1,160.0 381.4,160.0 382.8,160.0 384.2,160.0 385.6,160.0 386.9,160.0 388.3,160.0 389.7,160.0 391.1,160.0 392.4,160.0 393.8,160.0 395.2,160.0 396.5,160.0 397.9,160.0 399.2,160.0 400.6,160.0 401.9,160.0 403.3,160.0 404.7,160.0 406.0,160.0 407.4,160.0 408.7,160.0 410.1,160.0 411.4,160.0 412.7,160.0 414.1,160.0 415.4,160.0 416.8,160.0 418.1,160.0 419.4,160.0 420.8,160.0 422.1,160.0 423.4,160.0 424.8,160.0 426.1,160.0 427.4,160.0 428.7,160.0 430.1,160.0 431.4,160.0 432.7,160.0 434.0,160.0 435.3,160.0 436.7,160.0 438.0,160.0 439.3,160.0 440.6,160.0 441.9,160.0 443.2,160.0 444.5,160.0 445.8,160.0 447.1,160.0 448.4,160.0 449.7,160.0 451.0,160.0 452.3,160.0 453.6,160.0 454.9,160.0 456.2,160.0 457.5,160.0 458.8,160.0 460.1,160.0 461.4,160.0 462.7,160.0 464.0,160.0 465.2,160.0 466.5,160.0 467.8,160.0 469.1,160.0 470.4,160.0 471.6,160.0 472.9,160.0 474.2,160.0 475.5,160.0 476.7,160.0 478.0,160.0 479.3,160.0 480.6,160.0 481.8,160.0 483.1,160.0 484.3,160.0 485.6,160.0 486.9,160.0 488.1,160.0 489.4,160.0 490.7,160.0 491.9,160.0 493.2,160.0 494.4,160.0 495.7,160.0 496.9,160.0 498.2,160.0 499.4,160.0 500.7,160.0 501.9,160.0 503.2,160.0 504.4,160.0 505.6,160.0 506.9,160.0 508.1,160.0 509.4,160.0 510.6,160.0 511.8,160.0 513.1,160.0 514.3,160.0 515.5,160.0 516.8,160.0 518.0,160.0 519.2,160.0 520.4,160.0 521.7,160.0 522.9,160.0 524.1,160.0 525.3,160.0 526.6,160.0 527.8,160.0 529.0,160.0 530.2,160.0 531.4,160.0 532.6,160.0 533.9,160.0 535.1,160.0 536.3,160.0 537.5,160.0 538.7,160.0 539.9,160.0 541.1,160.0 542.3,160.0 543.5,160.0 544.7,160.0 545.9,160.0 547.1,160.0 548.3,160.0 549.5,160.0 550.7,160.0 551.9,160.0 553.1,160.0 554.3,160.0 555.5,160.0 556.7,160.0 557.9,160.0 559.1,160.0 560.3,160.0 561.4,160.0 562.6,160.0 563.8,160.0 565.0,160.0 566.2,160.0 567.3,160.0 568.5,160.0 569.7,160.0 570.9,160.0 572.1,160.0 573.2,160.0 574.4,160.0 575.6,160.0 576.7,160.0 577.9,160.0 579.1,160.0 580.3,160.0 581.4,160.0 582.6,160.0 583.7,160.0 584.9,160.0 586.1,160.0 587.2,160.0 588.4,160.0 589.6,160.0 590.7,160.0 591.9,160.0 593.0,160.0 594.2,160.0 595.3,160.0 596.5,160.0 597.6,160.0 598.8,160.0 599.9,160.0 601.1,160.0 602.2,160.0 603.4,160.0 604.5,160.0 605.7,160.0 606.8,160.0 607.9,160.0 609.1,160.0 610.2,160.0 611.4,160.0 612.5,160.0 613.6,160.0 614.8,160.0 615.9,160.0 617.0,160.0 618.2,160.0 619.3,160.0 620.4,160.0 621.5,160.0 622.7,160.0 623.8,160.0 624.9,160.0 626.0,160.0 627.2,160.0 628.3,160.0 629.4,160.0 630.5,160.0 631.7,160.0 632.8,160.0 633.9,160.0 635.0,160.0 636.1,160.0 637.2,160.0 638.3,160.0 639.5,160.0 640.6,160.0 641.7,160.0 642.8,160.0 643.9,160.0 645.0,160.0 646.1,160.0 647.2,160.0 648.3,160.0 649.4,160.0 650.5,160.0 651.6,160.0 652.7,160.0 653.8,160.0 654.9,160.0 656.0,160.0 657.1,160.0 658.2,160.0 659.3,160.0 660.4,160.0 661.5,160.0 662.6,160.0 663.7,160.0 664.7,160.0 665.8,160.0 666.9,160.0 668.0,160.0 669.1,160.0 670.2,160.0 671.3,160.0 672.3,160.0 673.4,160.0 674.5,160.0 675.6,160.0 676.7,160.0 677.7,160.0 678.8,160.0 679.9,160.0 681.0,160.0 682.0,160.0 683.1,160.0 684.2,160.0 685.2,160.0 686.3,160.0 687.4,160.0 688.5,160.0 689.5,160.0 690.6,160.0 691.7,160.0 692.7,160.0 693.8,160.0 694.8,160.0 695.9,160.0 697.0,160.0 698.0,160.0 699.1,160.0 700.1,160.0 701.2,160.0 702.3,160.0 703.3,160.0 704.4,160.0 705.4,160.0 706.5,160.0 707.5,160.0 708.6,160.0 709.6,160.0 710.7,160.0 711.7,160.0 712.8,160.0 713.8,160.0 714.9,160.0 715.9,160.0 716.9,160.0 718.0,160.0 719.0,160.0 720.1,160.0 721.1,160.0 722.1,160.0 723.2,160.0 724.2,160.0 725.3,160.0 726.3,160.0 727.3,160.0 728.4,160.0 729.4,160.0 730.4,160.0 731.5,160.0 732.5,160.0 733.5,160.0 734.5,160.0 735.6,160.0 736.6,160.0 737.6,160.0 738.7,160.0 739.7,160.0 740.7,160.0 741.7,160.0 742.7,160.0 743.8,160.0 744.8,160.0 745.8,160.0 746.8,160.0 747.8,160.0 748.9,160.0 749.9,160.0 750.9,160.0 751.9,160.0 752.9,160.0 753.9,160.0 754.9,160.0 755.9,160.0 757.0,160.0 758.0,160.0 759.0,160.0 760.0,160.0 761.0,160.0 762.0,160.0 763.0,160.0 764.0,160.0 765.0,160.0 766.0,160.0"/>
<line x1="606" y1="42" x2="628" y2="42" stroke="#0f62fe" stroke-width="2.2"/>
<text x="634" y="46" font-family="Arial" font-size="12">y_m</text>
</svg>