<svg xmlns="http://www.w3.org/2000/svg" width="820" height="320" viewBox="0 0 820 320">
<rect width="100%" height="100%" fill="#ffffff"/>
<text x="54" y="28" font-family="Arial" font-size="18" font-weight="700">Velocity X</text>
<line x1="54" y1="266" x2="766" y2="266" stroke="#1f2933"/>
<line x1="54" y1="54" x2="54" y2="266" stroke="#1f2933"/>
<text x="54" y="306" font-family="Arial" font-size="12">time (s)</text>
<text x="596" y="306" font-family="Arial" font-size="12">vx (m/s)</text>
<text x="58" y="68" font-family="Arial" font-size="11">193</text>
<text x="58" y="260" font-family="Arial" font-size="11">86</text>
<polyline fill="none" stroke="#0f62fe" stroke-width="2.2" points="54.0,266.0 55.2,265.0 56.4,263.9 57.6,262.9 58.7,261.8 59.9,260.7 61.1,259.6 62.3,258.5 63.5,257.4 64.7,256.2 65.9,255.0 67.1,253.9 68.2,252.7 69.4,251.5 70.6,250.2 71.8,249.0 73.0,247.8 74.2,246.5 75.4,245.3 76.5,244.1 77.7,242.9 78.9,241.6 80.1,240.4 81.3,239.2 82.5,238.0 83.7,236.8 84.9,235.6 86.0,234.4 87.2,233.2 88.4,231.9 89.6,230.7 90.8,229.5 92.0,228.3 93.2,227.1 94.3,225.9 95.5,224.7 96.7,223.5 97.9,222.3 99.1,221.1 100.3,220.0 101.5,218.8 102.7,217.6 103.8,216.4 105.0,215.2 106.2,214.0 107.4,212.8 108.6,211.7 109.8,210.5 111.0,209.3 112.1,208.1 113.3,206.9 114.5,205.8 115.7,204.6 116.9,203.4 118.1,202.3 119.3,201.1 120.5,199.9 121.6,198.8 122.8,197.6 124.0,196.5 125.2,195.3 126.4,194.1 127.6,193.0 128.8,191.8 129.9,190.7 131.1,189.5 132.3,188.4 133.5,187.2 134.7,186.1 135.9,185.0 137.1,183.8 138.3,182.7 139.4,181.5 140.6,180.4 141.8,179.3 143.0,178.1 144.2,177.0 145.4,175.9 146.6,174.7 147.7,173.6 148.9,172.5 150.1,171.4 151.3,170.3 152.5,169.1 153.7,168.0 154.9,166.9 156.1,165.8 157.2,164.7 158.4,163.6 159.6,162.5 160.8,161.4 162.0,160.3 163.2,159.2 164.4,158.1 165.5,157.0 166.7,155.9 167.9,154.8 169.1,153.8 170.3,152.7 171.5,151.6 172.7,150.5 173.9,149.4 175.0,148.4 176.2,147.3 177.4,146.2 178.6,145.2 179.8,144.1 181.0,143.1 182.2,142.0 183.3,140.9 184.5,139.9 185.7,138.8 186.9,137.8 188.1,136.8 189.3,135.7 190.5,134.7 191.7,133.6 192.8,132.6 194.0,131.6 195.2,130.5 196.4,129.5 197.6,128.5 198.8,127.5 200.0,126.4 201.1,125.4 202.3,124.4 203.5,123.4 204.7,122.4 205.9,121.4 207.1,120.4 208.3,119.4 209.5,118.4 210.6,117.4 211.8,116.4 213.0,115.4 214.2,114.4 215.4,113.4 216.6,112.4 217.8,111.4 218.9,110.4 220.1,109.5 221.3,108.5 222.5,107.5 223.7,106.5 224.9,105.6 226.1,104.6 227.3,103.6 228.4,102.7 229.6,101.7 230.8,100.7 232.0,99.8 233.2,98.8 234.4,97.8 235.6,96.9 236.7,95.9 237.9,95.0 239.1,94.0 240.3,93.1 241.5,92.1 242.7,91.2 243.9,90.3 245.1,89.3 246.2,88.4 247.4,87.4 248.6,86.5 249.8,85.6 251.0,84.6 252.2,83.7 253.4,82.8 254.5,81.9 255.7,80.9 256.9,80.0 258.1,79.1 259.3,78.2 260.5,77.2 261.7,76.3 262.9,75.4 264.0,74.5 265.2,73.6 266.4,72.7 267.6,71.8 268.8,70.9 270.0,69.9 271.2,69.0 272.3,68.1 273.5,67.2 274.7,66.3 275.9,65.4 277.1,64.5 278.3,63.6 279.5,62.7 280.7,61.9 281.8,61.0 283.0,60.1 284.2,59.2 285.4,58.4 286.6,57.5 287.8,56.7 289.0,55.8 290.1,54.9 291.3,54.0 292.5,54.6 293.7,55.1 294.9,55.6 296.1,56.1 297.3,56.7 298.5,57.2 299.6,57.8 300.8,58.3 302.0,58.9 303.2,59.4 304.4,59.9 305.6,60.5 306.8,61.1 307.9,61.6 309.1,62.2 310.3,62.7 311.5,63.3 312.7,63.8 313.9,64.3 315.1,64.8 316.3,65.3 317.4,65.8 318.6,66.3 319.8,66.8 321.0,67.3 322.2,67.8 323.4,68.3 324.6,68.8 325.7,69.4 326.9,69.8 328.1,70.4 329.3,70.9 330.5,71.4 331.7,71.9 332.9,72.4 334.1,72.8 335.2,73.3 336.4,73.8 337.6,74.3 338.8,74.8 340.0,75.3 341.2,75.7 342.4,76.2 343.5,76.7 344.7,77.2 345.9,77.6 347.1,78.1 348.3,78.6 349.5,79.1 350.7,79.5 351.9,80.0 353.0,80.4 354.2,80.9 355.4,81.4 356.6,81.9 357.8,82.3 359.0,82.8 360.2,83.2 361.3,83.7 362.5,84.1 363.7,84.6 364.9,85.0 366.1,85.4 367.3,85.8 368.5,86.3 369.7,86.7 370.8,87.2 372.0,87.6 373.2,88.0 374.4,88.4 375.6,88.9 376.8,89.3 378.0,89.7 379.1,90.1 380.3,90.5 381.5,90.9 382.7,91.4 383.9,91.8 385.1,92.2 386.3,92.6 387.5,93.0 388.6,93.4 389.8,93.8 391.0,94.2 392.2,94.6 393.4,95.0 394.6,95.4 395.8,95.8 396.9,96.2 398.1,96.6 399.3,97.0 400.5,97.4 401.7,97.8 402.9,98.2 404.1,98.6 405.3,99.0 406.4,99.4 407.6,99.8 408.8,100.2 410.0,100.5 411.2,101.0 412.4,101.3 413.6,101.7 414.7,102.1 415.9,102.5 417.1,102.8 418.3,103.2 419.5,103.6 420.7,104.0 421.9,104.4 423.1,104.7 424.2,105.1 425.4,105.5 426.6,105.8 427.8,106.2 429.0,106.6 430.2,107.0 431.4,107.3 432.5,107.7 433.7,108.1 434.9,108.4 436.1,108.8 437.3,109.2 438.5,109.5 439.7,109.9 440.9,110.2 442.0,110.6 443.2,110.9 444.4,111.3 445.6,111.6 446.8,112.0 448.0,112.3 449.2,112.7 450.3,113.0 451.5,113.4 452.7,113.7 453.9,114.1 455.1,114.4 456.3,114.8 457.5,115.1 458.7,115.5 459.8,115.8 461.0,116.2 462.2,116.5 463.4,116.8 464.6,117.2 465.8,117.5 467.0,117.8 468.1,118.2 469.3,118.5 470.5,118.8 471.7,119.2 472.9,119.5 474.1,119.8 475.3,120.2 476.5,120.5 477.6,120.8 478.8,121.1 480.0,121.5 481.2,121.8 482.4,122.1 483.6,122.5 484.8,122.8 485.9,123.1 487.1,123.4 488.3,123.8 489.5,124.1 490.7,124.4 491.9,124.7 493.1,125.0 494.3,125.4 495.4,125.7 496.6,126.0 497.8,126.3 499.0,126.6 500.2,127.0 501.4,127.3 502.6,127.6 503.7,127.9 504.9,128.2 506.1,128.5 507.3,128.8 508.5,129.2 509.7,129.5 510.9,129.8 512.1,130.1 513.2,130.4 514.4,130.7 515.6,131.0 516.8,131.3 518.0,131.6 519.2,131.9 520.4,132.2 521.5,132.6 522.7,132.9 523.9,133.2 525.1,133.5 526.3,133.8 527.5,134.1 528.7,134.4 529.9,134.7 531.0,135.0 532.2,135.3 533.4,135.6 534.6,135.9 535.8,136.2 537.0,136.5 538.2,136.8 539.3,137.1 540.5,137.4 541.7,137.7 542.9,138.0 544.1,138.3 545.3,138.5 546.5,138.8 547.7,139.1 548.8,139.4 550.0,139.7 551.2,140.0 552.4,140.3 553.6,140.6 554.8,140.9 556.0,141.2 557.1,141.5 558.3,141.7 559.5,142.0 560.7,142.3 561.9,142.6 563.1,142.9 564.3,143.2 565.5,143.5 566.6,143.7 567.8,144.0 569.0,144.3 570.2,144.6 571.4,144.9 572.6,145.1 573.8,145.4 574.9,145.7 576.1,146.0 577.3,146.3 578.5,146.5 579.7,146.8 580.9,147.1 582.1,147.4 583.3,147.6 584.4,147.9 585.6,148.2 586.8,148.5 588.0,148.7 589.2,149.0 590.4,149.3 591.6,149.6 592.7,149.8 593.9,150.1 595.1,150.4 596.3,150.6 597.5,150.9 598.7,151.2 599.9,151.4 601.1,151.7 602.2,152.0 603.4,152.2 604.6,152.5 605.8,152.8 607.0,153.0 608.2,153.3 609.4,153.6 610.5,153.8 611.7,154.1 612.9,154.4 614.1,154.6 615.3,154.9 616.5,155.1 617.7,155.4 618.9,155.7 620.0,155.9 621.2,156.2 622.4,156.4 623.6,156.7 624.8,156.9 626.0,157.2 627.2,157.5 628.3,157.7 629.5,158.0 630.7,158.2 631.9,158.5 633.1,158.7 634.3,159.0 635.5,159.2 636.7,159.5 637.8,159.7 639.0,160.0 640.2,160.2 641.4,160.5 642.6,160.7 643.8,161.0 645.0,161.2 646.1,161.5 647.3,161.7 648.5,162.0 649.7,162.2 650.9,162.5 652.1,162.7 653.3,162.9 654.5,163.2 655.6,163.4 656.8,163.7 658.0,163.9 659.2,164.2 660.4,164.4 661.6,164.6 662.8,164.9 663.9,165.1 665.1,165.3 666.3,165.6 667.5,165.8 668.7,166.1 669.9,166.3 671.1,166.5 672.3,166.8 673.4,167.0 674.6,167.2 675.8,167.5 677.0,167.7 678.2,167.9 679.4,168.2 680.6,168.4 681.7,168.6 682.9,168.9 684.1,169.1 685.3,169.3 686.5,169.6 687.7,169.8 688.9,170.0 690.1,170.3 691.2,170.5 692.4,170.7 693.6,170.9 694.8,171.2 696.0,171.4 697.2,171.6 698.4,171.8 699.5,172.1 700.7,172.3 701.9,172.5 703.1,172.8 704.3,173.0 705.5,173.2 706.7,173.4 707.9,173.7 709.0,173.9 710.2,174.1 711.4,174.3 712.6,174.6 713.8,174.8 715.0,175.0 716.2,175.2 717.3,175.5 718.5,175.7 719.7,175.9 720.9,176.1 722.1,176.3 723.3,176.6 724.5,176.8 725.7,177.0 726.8,177.2 728.0,177.4 729.2,177.7 730.4,177.9 731.6,178.1 732.8,178.3 734.0,178.5 735.1,178.8 736.3,179.0 737.5,179.2 738.7,179.4 739.9,179.6 741.1,179.9 742.3,180.1 743.5,180.3 744.6,180.5 745.8,180.7 747.0,180.9 748.2,181.2 749.4,181.4 750.6,181.6 751.8,181.8 752.9,182.0 754.1,182.2 755.3,182.4 756.5,182.7 757.7,182.9 758.9,183.1 760.1,183.3 761.3,183.5 762.4,183.7 763.6,183.9 764.8,184.1 766.0,184.4"/>
<line x1="606" y1="42" x2="628" y2="42" stroke="#0f62fe" stroke-width="2.2"/>
<text x="634" y="46" font-family="Arial" font-size="12">vx_mps</text>
</svg>