<svg xmlns="http://www.w3.org/2000/svg" width="820" height="320" viewBox="0 0 820 320">
<rect width="100%" height="100%" fill="#ffffff"/>
<text x="54" y="28" font-family="Arial" font-size="18" font-weight="700">Alpha/Beta</text>
<line x1="54" y1="266" x2="766" y2="266" stroke="#1f2933"/>
<line x1="54" y1="54" x2="54" y2="266" stroke="#1f2933"/>
<text x="54" y="306" font-family="Arial" font-size="12">time (s)</text>
<text x="596" y="306" font-family="Arial" font-size="12">angle (deg)</text>
<text x="58" y="68" font-family="Arial" font-size="11">4.77</text>
<text x="58" y="260" font-family="Arial" font-size="11">-0.539</text>
<polyline fill="none" stroke="#0f62fe" stroke-width="2.2" points="54.0,266.0 55.2,242.6 56.4,218.5 57.6,201.9 58.7,191.9 59.9,184.4 61.1,176.7 62.3,168.7 63.5,161.3 64.7,155.3 65.9,150.2 67.1,145.9 68.2,141.8 69.4,138.2 70.6,134.9 71.8,132.0 73.0,129.4 74.2,127.1 75.4,124.9 76.5,123.0 77.7,121.2 78.9,119.5 80.1,118.0 81.3,116.6 82.5,115.3 83.7,114.0 84.9,112.9 86.0,111.8 87.2,110.8 88.4,109.8 89.6,108.9 90.8,108.0 92.0,107.2 93.2,106.4 94.3,105.7 95.5,104.9 96.7,104.3 97.9,103.6 99.1,103.0 100.3,102.4 101.5,101.8 102.7,101.3 103.8,100.8 105.0,100.3 106.2,99.8 107.4,99.4 108.6,98.9 109.8,98.5 111.0,98.1 112.1,97.8 113.3,97.4 114.5,97.1 115.7,96.8 116.9,96.5 118.1,96.2 119.3,95.9 120.5,95.7 121.6,95.4 122.8,95.2 124.0,95.0 125.2,94.8 126.4,94.7 127.6,94.5 128.8,94.4 129.9,94.3 131.1,94.2 132.3,94.1 133.5,94.0 134.7,93.9 135.9,93.9 137.1,93.8 138.3,93.8 139.4,93.8 140.6,93.8 141.8,93.8 143.0,93.8 144.2,93.9 145.4,93.9 146.6,94.0 147.7,93.9 148.9,93.8 150.1,93.6 151.3,93.4 152.5,93.2 153.7,92.9 154.9,92.6 156.1,92.3 157.2,92.0 158.4,91.7 159.6,91.4 160.8,91.1 162.0,90.8 163.2,90.5 164.4,90.2 165.5,90.0 166.7,89.7 167.9,89.4 169.1,89.2 170.3,89.0 171.5,88.8 172.7,88.6 173.9,88.4 175.0,88.3 176.2,88.1 177.4,88.0 178.6,87.9 179.8,87.8 181.0,87.7 182.2,87.7 183.3,87.7 184.5,87.6 185.7,87.6 186.9,87.7 188.1,87.7 189.3,87.8 190.5,87.8 191.7,87.9 192.8,88.0 194.0,88.2 195.2,88.3 196.4,88.5 197.6,88.6 198.8,88.8 200.0,89.0 201.1,89.3 202.3,89.5 203.5,89.7 204.7,90.0 205.9,90.3 207.1,90.6 208.3,90.9 209.5,91.3 210.6,91.6 211.8,92.0 213.0,92.3 214.2,92.7 215.4,93.1 216.6,93.5 217.8,94.0 218.9,94.4 220.1,94.9 221.3,95.3 222.5,95.8 223.7,96.3 224.9,96.8 226.1,97.3 227.3,97.8 228.4,98.4 229.6,98.9 230.8,99.5 232.0,100.0 233.2,100.6 234.4,101.2 235.6,101.8 236.7,102.4 237.9,103.0 239.1,103.6 240.3,104.2 241.5,104.8 242.7,105.5 243.9,106.1 245.1,106.8 246.2,107.4 247.4,108.1 248.6,108.8 249.8,109.5 251.0,110.2 252.2,110.8 253.4,111.5 254.5,112.2 255.7,113.0 256.9,113.7 258.1,114.4 259.3,115.1 260.5,115.8 261.7,116.5 262.9,117.3 264.0,118.0 265.2,118.7 266.4,119.5 267.6,120.2 268.8,121.1 270.0,121.6 271.2,122.9 272.3,122.3 273.5,126.1 274.7,119.7 275.9,137.4 277.1,114.2 278.3,122.9 279.5,118.8 280.7,134.5 281.8,109.5 283.0,125.8 284.2,107.5 285.4,130.2 286.6,114.0 287.8,138.6 289.0,122.1 290.1,146.4 291.3,129.5 292.5,153.1 293.7,135.7 294.9,155.8 296.1,135.0 297.3,152.8 298.5,129.8 299.6,147.8 300.8,125.0 302.0,143.1 303.2,120.5 304.4,138.8 305.6,116.2 306.8,134.7 307.9,116.4 309.1,138.9 310.3,121.4 311.5,144.8 312.7,127.1 313.9,150.2 315.1,132.3 316.3,154.8 317.4,136.3 318.6,156.0 319.8,134.9 321.0,153.1 322.2,130.5 323.4,148.9 324.6,126.5 325.7,145.0 326.9,124.7 328.1,145.1 329.3,126.3 330.5,148.3 331.7,129.4 332.9,151.2 334.1,132.2 335.2,153.8 336.4,134.6 337.6,154.6 338.8,133.8 340.0,152.9 341.2,131.1 342.4,150.3 343.5,129.3 344.7,149.2 345.9,129.5 347.1,150.6 348.3,131.3 349.5,152.1 350.7,132.1 351.9,151.7 353.0,131.2 354.2,150.6 355.4,131.7 356.6,153.1 357.8,134.6 359.0,154.7 360.2,134.6 361.3,153.3 362.5,135.2 363.7,157.1 364.9,139.8 366.1,159.9 367.3,140.2 368.5,158.0 369.7,139.0 370.8,159.2 372.0,141.6 373.2,161.4 374.4,142.7 375.6,160.9 376.8,141.4 378.0,159.4 379.1,140.6 380.3,159.2 381.5,141.1 382.7,159.9 383.9,141.7 385.1,160.0 386.3,141.6 387.5,159.5 388.6,141.2 389.8,159.2 391.0,141.2 392.2,159.3 393.4,141.4 394.6,159.3 395.8,141.5 396.9,159.1 398.1,141.3 399.3,158.9 400.5,141.3 401.7,158.8 402.9,141.3 404.1,158.8 405.3,141.4 406.4,158.7 407.6,141.4 408.8,158.6 410.0,141.3 411.2,158.4 412.4,141.3 413.6,158.4 414.7,141.4 415.9,158.3 417.1,141.4 418.3,158.2 419.5,141.4 420.7,158.1 421.9,141.3 423.1,158.0 424.2,141.4 425.4,157.9 426.6,141.4 427.8,157.8 429.0,141.4 430.2,157.7 431.4,141.3 432.5,157.6 433.7,141.3 434.9,157.5 436.1,141.3 437.3,157.4 438.5,141.3 439.7,157.3 440.9,141.3 442.0,157.2 443.2,141.3 444.4,157.1 445.6,141.3 446.8,157.0 448.0,141.3 449.2,156.9 450.3,141.3 451.5,156.9 452.7,141.3 453.9,156.8 455.1,141.3 456.3,156.7 457.5,141.3 458.7,156.6 459.8,141.3 461.0,156.5 462.2,141.3 463.4,156.4 464.6,141.3 465.8,156.3 467.0,141.3 468.1,155.9 469.3,140.5 470.5,155.0 471.7,140.0 472.9,154.4 474.1,139.6 475.3,153.5 476.5,139.4 477.6,152.4 478.8,139.4 480.0,151.0 481.2,139.7 482.4,149.5 483.6,140.0 484.8,147.9 485.9,140.3 487.1,146.3 488.3,140.6 489.5,144.9 490.7,140.8 491.9,143.5 493.1,140.7 494.3,142.4 495.4,140.6 496.6,141.4 497.8,140.2 499.0,140.6 500.2,139.8 501.4,139.8 502.6,139.3 503.7,139.1 504.9,138.7 506.1,138.5 507.3,138.1 508.5,137.8 509.7,137.5 510.9,137.2 512.1,136.9 513.2,136.6 514.4,136.3 515.6,136.0 516.8,135.7 518.0,135.4 519.2,135.1 520.4,134.8 521.5,134.5 522.7,134.2 523.9,133.9 525.1,133.6 526.3,133.3 527.5,133.0 528.7,132.7 529.9,132.4 531.0,132.1 532.2,131.8 533.4,131.5 534.6,131.2 535.8,130.9 537.0,130.6 538.2,130.3 539.3,130.0 540.5,129.7 541.7,129.4 542.9,129.1 544.1,128.8 545.3,128.5 546.5,128.2 547.7,127.9 548.8,127.6 550.0,127.3 551.2,127.0 552.4,126.7 553.6,126.4 554.8,126.1 556.0,125.8 557.1,125.5 558.3,125.2 559.5,124.9 560.7,124.6 561.9,124.3 563.1,124.0 564.3,123.7 565.5,123.4 566.6,123.2 567.8,122.9 569.0,122.6 570.2,122.3 571.4,122.0 572.6,121.7 573.8,121.4 574.9,121.1 576.1,120.8 577.3,120.5 578.5,120.2 579.7,119.9 580.9,119.6 582.1,119.3 583.3,119.0 584.4,118.7 585.6,118.4 586.8,118.2 588.0,117.9 589.2,117.6 590.4,117.3 591.6,117.0 592.7,116.7 593.9,116.4 595.1,116.1 596.3,115.8 597.5,115.5 598.7,115.2 599.9,114.9 601.1,114.6 602.2,114.3 603.4,114.0 604.6,113.8 605.8,113.5 607.0,113.2 608.2,112.9 609.4,112.6 610.5,112.3 611.7,112.0 612.9,111.7 614.1,111.4 615.3,111.1 616.5,110.8 617.7,110.5 618.9,110.2 620.0,109.9 621.2,109.7 622.4,109.4 623.6,109.1 624.8,108.8 626.0,108.5 627.2,108.2 628.3,107.9 629.5,107.6 630.7,107.3 631.9,107.0 633.1,106.7 634.3,106.4 635.5,106.1 636.7,105.8 637.8,105.6 639.0,105.3 640.2,105.0 641.4,104.7 642.6,104.4 643.8,104.1 645.0,103.8 646.1,103.5 647.3,103.2 648.5,102.9 649.7,102.6 650.9,102.3 652.1,102.0 653.3,101.7 654.5,101.5 655.6,101.2 656.8,100.9 658.0,100.6 659.2,100.3 660.4,100.0 661.6,99.7 662.8,99.4 663.9,99.1 665.1,98.8 666.3,98.5 667.5,98.2 668.7,97.9 669.9,97.6 671.1,97.3 672.3,97.1 673.4,96.8 674.6,96.5 675.8,96.2 677.0,95.9 678.2,95.6 679.4,95.3 680.6,95.0 681.7,94.7 682.9,94.4 684.1,94.1 685.3,93.8 686.5,93.5 687.7,93.2 688.9,92.1 690.1,91.1 691.2,90.4 692.4,89.6 693.6,88.8 694.8,88.2 696.0,87.5 697.2,86.8 698.4,86.2 699.5,85.6 700.7,85.0 701.9,84.4 703.1,83.8 704.3,83.2 705.5,82.6 706.7,82.1 707.9,81.5 709.0,81.0 710.2,80.4 711.4,79.9 712.6,79.3 713.8,78.8 715.0,78.2 716.2,77.6 717.3,77.0 718.5,76.5 719.7,75.9 720.9,75.3 722.1,74.7 723.3,74.1 724.5,73.6 725.7,73.0 726.8,72.4 728.0,71.8 729.2,71.2 730.4,70.7 731.6,70.1 732.8,69.5 734.0,68.9 735.1,68.4 736.3,67.8 737.5,67.2 738.7,66.7 739.9,66.1 741.1,65.5 742.3,65.0 743.5,64.4 744.6,63.9 745.8,63.3 747.0,62.7 748.2,62.2 749.4,61.6 750.6,61.1 751.8,60.5 752.9,60.0 754.1,59.4 755.3,58.9 756.5,58.3 757.7,57.8 758.9,57.2 760.1,56.7 761.3,56.2 762.4,55.6 763.6,55.1 764.8,54.5 766.0,54.0"/>
<line x1="606" y1="42" x2="628" y2="42" stroke="#0f62fe" stroke-width="2.2"/>
<text x="634" y="46" font-family="Arial" font-size="12">alpha_deg</text>
<polyline fill="none" stroke="#24a148" stroke-width="2.2" points="54.0,244.5 55.2,244.5 56.4,244.5 57.6,244.5 58.7,244.5 59.9,244.5 61.1,244.5 62.3,244.5 63.5,244.5 64.7,244.5 65.9,244.5 67.1,244.5 68.2,244.5 69.4,244.5 70.6,244.5 71.8,244.5 73.0,244.5 74.2,244.5 75.4,244.5 76.5,244.5 77.7,244.5 78.9,244.5 80.1,244.5 81.3,244.5 82.5,244.5 83.7,244.5 84.9,244.5 86.0,244.5 87.2,244.5 88.4,244.5 89.6,244.5 90.8,244.5 92.0,244.5 93.2,244.5 94.3,244.5 95.5,244.5 96.7,244.5 97.9,244.5 99.1,244.5 100.3,244.5 101.5,244.5 102.7,244.5 103.8,244.5 105.0,244.5 106.2,244.5 107.4,244.5 108.6,244.5 109.8,244.5 111.0,244.5 112.1,244.5 113.3,244.5 114.5,244.5 115.7,244.5 116.9,244.5 118.1,244.5 119.3,244.5 120.5,244.5 121.6,244.5 122.8,244.5 124.0,244.5 125.2,244.5 126.4,244.5 127.6,244.5 128.8,244.5 129.9,244.5 131.1,244.5 132.3,244.5 133.5,244.5 134.7,244.5 135.9,244.5 137.1,244.5 138.3,244.5 139.4,244.5 140.6,244.5 141.8,244.5 143.0,244.5 144.2,244.5 145.4,244.5 146.6,244.5 147.7,244.5 148.9,244.5 150.1,244.5 151.3,244.5 152.5,244.5 153.7,244.5 154.9,244.5 156.1,244.5 157.2,244.5 158.4,244.5 159.6,244.5 160.8,244.5 162.0,244.5 163.2,244.5 164.4,244.5 165.5,244.5 166.7,244.5 167.9,244.5 169.1,244.5 170.3,244.5 171.5,244.5 172.7,244.5 173.9,244.5 175.0,244.5 176.2,244.5 177.4,244.5 178.6,244.5 179.8,244.5 181.0,244.5 182.2,244.5 183.3,244.5 184.5,244.5 185.7,244.5 186.9,244.5 188.1,244.5 189.3,244.5 190.5,244.5 191.7,244.5 192.8,244.5 194.0,244.5 195.2,244.5 196.4,244.5 197.6,244.5 198.8,244.5 200.0,244.5 201.1,244.5 202.3,244.5 203.5,244.5 204.7,244.5 205.9,244.5 207.1,244.5 208.3,244.5 209.5,244.5 210.6,244.5 211.8,244.5 213.0,244.5 214.2,244.5 215.4,244.5 216.6,244.5 217.8,244.5 218.9,244.5 220.1,244.5 221.3,244.5 222.5,244.5 223.7,244.5 224.9,244.5 226.1,244.5 227.3,244.5 228.4,244.5 229.6,244.5 230.8,244.5 232.0,244.5 233.2,244.5 234.4,244.5 235.6,244.5 236.7,244.5 237.9,244.5 239.1,244.5 240.3,244.5 241.5,244.5 242.7,244.5 243.9,244.5 245.1,244.5 246.2,244.5 247.4,244.5 248.6,244.5 249.8,244.5 251.0,244.5 252.2,244.5 253.4,244.5 254.5,244.5 255.7,244.5 256.9,244.5 258.1,244.5 259.3,244.5 260.5,244.5 261.7,244.5 262.9,244.5 264.0,244.5 265.2,244.5 266.4,244.5 267.6,244.5 268.8,244.5 270.0,244.5 271.2,244.5 272.3,244.5 273.5,244.5 274.7,244.5 275.9,244.5 277.1,244.5 278.3,244.5 279.5,244.5 280.7,244.5 281.8,244.5 283.0,244.5 284.2,244.5 285.4,244.5 286.6,244.5 287.8,244.5 289.0,244.5 290.1,244.5 291.3,244.5 292.5,244.5 293.7,244.5 294.9,244.5 296.1,244.5 297.3,244.5 298.5,244.5 299.6,244.5 300.8,244.5 302.0,244.5 303.2,244.5 304.4,244.5 305.6,244.5 306.8,244.5 307.9,244.5 309.1,244.5 310.3,244.5 311.5,244.5 312.7,244.5 313.9,244.5 315.1,244.5 316.3,244.5 317.4,244.5 318.6,244.5 319.8,244.5 321.0,244.5 322.2,244.5 323.4,244.5 324.6,244.5 325.7,244.5 326.9,244.5 328.1,244.5 329.3,244.5 330.5,244.5 331.7,244.5 332.9,244.5 334.1,244.5 335.2,244.5 336.4,244.5 337.6,244.5 338.8,244.5 340.0,244.5 341.2,244.5 342.4,244.5 343.5,244.5 344.7,244.5 345.9,244.5 347.1,244.5 348.3,244.5 349.5,244.5 350.7,244.5 351.9,244.5 353.0,244.5 354.2,244.5 355.4,244.5 356.6,244.5 357.8,244.5 359.0,244.5 360.2,244.5 361.3,244.5 362.5,244.5 363.7,244.5 364.9,244.5 366.1,244.5 367.3,244.5 368.5,244.5 369.7,244.5 370.8,244.5 372.0,244.5 373.2,244.5 374.4,244.5 375.6,244.5 376.8,244.5 378.0,244.5 379.1,244.5 380.3,244.5 381.5,244.5 382.7,244.5 383.9,244.5 385.1,244.5 386.3,244.5 387.5,244.5 388.6,244.5 389.8,244.5 391.0,244.5 392.2,244.5 393.4,244.5 394.6,244.5 395.8,244.5 396.9,244.5 398.1,244.5 399.3,244.5 400.5,244.5 401.7,244.5 402.9,244.5 404.1,244.5 405.3,244.5 406.4,244.5 407.6,244.5 408.8,244.5 410.0,244.5 411.2,244.5 412.4,244.5 413.6,244.5 414.7,244.5 415.9,244.5 417.1,244.5 418.3,244.5 419.5,244.5 420.7,244.5 421.9,244.5 423.1,244.5 424.2,244.5 425.4,244.5 426.6,244.5 427.8,244.5 429.0,244.5 430.2,244.5 431.4,244.5 432.5,244.5 433.7,244.5 434.9,244.5 436.1,244.5 437.3,244.5 438.5,244.5 439.7,244.5 440.9,244.5 442.0,244.5 443.2,244.5 444.4,244.5 445.6,244.5 446.8,244.5 448.0,244.5 449.2,244.5 450.3,244.5 451.5,244.5 452.7,244.5 453.9,244.5 455.1,244.5 456.3,244.5 457.5,244.5 458.7,244.5 459.8,244.5 461.0,244.5 462.2,244.5 463.4,244.5 464.6,244.5 465.8,244.5 467.0,244.5 468.1,244.5 469.3,244.5 470.5,244.5 471.7,244.5 472.9,244.5 474.1,244.5 475.3,244.5 476.5,244.5 477.6,244.5 478.8,244.5 480.0,244.5 481.2,244.5 482.4,244.5 483.6,244.5 484.8,244.5 485.9,244.5 487.1,244.5 488.3,244.5 489.5,244.5 490.7,244.5 491.9,244.5 493.1,244.5 494.3,244.5 495.4,244.5 496.6,244.5 497.8,244.5 499.0,244.5 500.2,244.5 501.4,244.5 502.6,244.5 503.7,244.5 504.9,244.5 506.1,244.5 507.3,244.5 508.5,244.5 509.7,244.5 510.9,244.5 512.1,244.5 513.2,244.5 514.4,244.5 515.6,244.5 516.8,244.5 518.0,244.5 519.2,244.5 520.4,244.5 521.5,244.5 522.7,244.5 523.9,244.5 525.1,244.5 526.3,244.5 527.5,244.5 528.7,244.5 529.9,244.5 531.0,244.5 532.2,244.5 533.4,244.5 534.6,244.5 535.8,244.5 537.0,244.5 538.2,244.5 539.3,244.5 540.5,244.5 541.7,244.5 542.9,244.5 544.1,244.5 545.3,244.5 546.5,244.5 547.7,244.5 548.8,244.5 550.0,244.5 551.2,244.5 552.4,244.5 553.6,244.5 554.8,244.5 556.0,244.5 557.1,244.5 558.3,244.5 559.5,244.5 560.7,244.5 561.9,244.5 563.1,244.5 564.3,244.5 565.5,244.5 566.6,244.5 567.8,244.5 569.0,244.5 570.2,244.5 571.4,244.5 572.6,244.5 573.8,244.5 574.9,244.5 576.1,244.5 577.3,244.5 578.5,244.5 579.7,244.5 580.9,244.5 582.1,244.5 583.3,244.5 584.4,244.5 585.6,244.5 586.8,244.5 588.0,244.5 589.2,244.5 590.4,244.5 591.6,244.5 592.7,244.5 593.9,244.5 595.1,244.5 596.3,244.5 597.5,244.5 598.7,244.5 599.9,244.5 601.1,244.5 602.2,244.5 603.4,244.5 604.6,244.5 605.8,244.5 607.0,244.5 608.2,244.5 609.4,244.5 610.5,244.5 611.7,244.5 612.9,244.5 614.1,244.5 615.3,244.5 616.5,244.5 617.7,244.5 618.9,244.5 620.0,244.5 621.2,244.5 622.4,244.5 623.6,244.5 624.8,244.5 626.0,244.5 627.2,244.5 628.3,244.5 629.5,244.5 630.7,244.5 631.9,244.5 633.1,244.5 634.3,244.5 635.5,244.5 636.7,244.5 637.8,244.5 639.0,244.5 640.2,244.5 641.4,244.5 642.6,244.5 643.8,244.5 645.0,244.5 646.1,244.5 647.3,244.5 648.5,244.5 649.7,244.5 650.9,244.5 652.1,244.5 653.3,244.5 654.5,244.5 655.6,244.5 656.8,244.5 658.0,244.5 659.2,244.5 660.4,244.5 661.6,244.5 662.8,244.5 663.9,244.5 665.1,244.5 666.3,244.5 667.5,244.5 668.7,244.5 669.9,244.5 671.1,244.5 672.3,244.5 673.4,244.5 674.6,244.5 675.8,244.5 677.0,244.5 678.2,244.5 679.4,244.5 680.6,244.5 681.7,244.5 682.9,244.5 684.1,244.5 685.3,244.5 686.5,244.5 687.7,244.5 688.9,244.5 690.1,244.5 691.2,244.5 692.4,244.5 693.6,244.5 694.8,244.5 696.0,244.5 697.2,244.5 698.4,244.5 699.5,244.5 700.7,244.5 701.9,244.5 703.1,244.5 704.3,244.5 705.5,244.5 706.7,244.5 707.9,244.5 709.0,244.5 710.2,244.5 711.4,244.5 712.6,244.5 713.8,244.5 715.0,244.5 716.2,244.5 717.3,244.5 718.5,244.5 719.7,244.5 720.9,244.5 722.1,244.5 723.3,244.5 724.5,244.5 725.7,244.5 726.8,244.5 728.0,244.5 729.2,244.5 730.4,244.5 731.6,244.5 732.8,244.5 734.0,244.5 735.1,244.5 736.3,244.5 737.5,244.5 738.7,244.5 739.9,244.5 741.1,244.5 742.3,244.5 743.5,244.5 744.6,244.5 745.8,244.5 747.0,244.5 748.2,244.5 749.4,244.5 750.6,244.5 751.8,244.5 752.9,244.5 754.1,244.5 755.3,244.5 756.5,244.5 757.7,244.5 758.9,244.5 760.1,244.5 761.3,244.5 762.4,244.5 763.6,244.5 764.8,244.5 766.0,244.5"/>
<line x1="606" y1="60" x2="628" y2="60" stroke="#24a148" stroke-width="2.2"/>
<text x="634" y="64" font-family="Arial" font-size="12">beta_deg</text>
</svg>