<svg xmlns="http://www.w3.org/2000/svg" width="820" height="320" viewBox="0 0 820 320">
<rect width="100%" height="100%" fill="#ffffff"/>
<text x="54" y="28" font-family="Arial" font-size="18" font-weight="700">Control Surfaces</text>
<line x1="54" y1="266" x2="766" y2="266" stroke="#1f2933"/>
<line x1="54" y1="54" x2="54" y2="266" stroke="#1f2933"/>
<text x="54" y="306" font-family="Arial" font-size="12">time (s)</text>
<text x="596" y="306" font-family="Arial" font-size="12">deflection (deg)</text>
<text x="58" y="68" font-family="Arial" font-size="11">0.548</text>
<text x="58" y="260" font-family="Arial" font-size="11">-4.46</text>
<polyline fill="none" stroke="#0f62fe" stroke-width="2.2" points="54.0,191.5 55.2,103.4 56.4,54.0 57.6,67.9 58.7,104.2 59.9,130.0 61.1,137.6 62.3,137.0 63.5,138.4 64.7,143.8 65.9,150.4 67.1,155.5 68.2,158.9 69.4,161.5 70.6,164.1 71.8,166.8 73.0,169.3 74.2,171.4 75.4,173.3 76.5,175.0 77.7,176.6 78.9,178.1 80.1,179.5 81.3,180.8 82.5,182.0 83.7,183.2 84.9,184.3 86.0,185.3 87.2,186.2 88.4,187.1 89.6,188.0 90.8,188.9 92.0,189.6 93.2,190.4 94.3,191.1 95.5,191.8 96.7,192.5 97.9,193.2 99.1,193.8 100.3,194.4 101.5,195.0 102.7,195.5 103.8,196.1 105.0,196.6 106.2,197.1 107.4,197.6 108.6,198.0 109.8,198.5 111.0,198.9 112.1,199.3 113.3,199.7 114.5,200.1 115.7,200.5 116.9,200.8 118.1,201.2 119.3,201.5 120.5,201.8 121.6,202.1 122.8,202.4 124.0,202.7 125.2,202.9 126.4,203.2 127.6,203.4 128.8,203.6 129.9,203.8 131.1,204.0 132.3,204.2 133.5,204.3 134.7,204.5 135.9,204.6 137.1,204.8 138.3,204.9 139.4,205.0 140.6,205.1 141.8,205.2 143.0,205.3 144.2,205.3 145.4,205.4 146.6,205.9 147.7,206.0 148.9,206.1 150.1,206.4 151.3,206.7 152.5,206.9 153.7,207.3 154.9,207.6 156.1,207.9 157.2,208.3 158.4,208.7 159.6,209.0 160.8,209.4 162.0,209.7 163.2,210.1 164.4,210.4 165.5,210.7 166.7,211.1 167.9,211.4 169.1,211.7 170.3,211.9 171.5,212.2 172.7,212.5 173.9,212.7 175.0,212.9 176.2,213.1 177.4,213.3 178.6,213.5 179.8,213.7 181.0,213.8 182.2,214.0 183.3,214.1 184.5,214.2 185.7,214.3 186.9,214.3 188.1,214.4 189.3,214.4 190.5,214.4 191.7,214.4 192.8,214.4 194.0,214.4 195.2,214.3 196.4,214.3 197.6,214.2 198.8,214.1 200.0,214.0 201.1,213.9 202.3,213.8 203.5,213.6 204.7,213.5 205.9,213.3 207.1,213.1 208.3,212.9 209.5,212.7 210.6,212.5 211.8,212.2 213.0,212.0 214.2,211.7 215.4,211.4 216.6,211.1 217.8,210.8 218.9,210.5 220.1,210.2 221.3,209.8 222.5,209.5 223.7,209.1 224.9,208.7 226.1,208.3 227.3,207.9 228.4,207.5 229.6,207.1 230.8,206.7 232.0,206.3 233.2,205.8 234.4,205.4 235.6,204.9 236.7,204.4 237.9,203.9 239.1,203.5 240.3,203.0 241.5,202.5 242.7,201.9 243.9,201.4 245.1,200.9 246.2,200.4 247.4,199.8 248.6,199.3 249.8,198.7 251.0,198.2 252.2,197.6 253.4,197.0 254.5,196.5 255.7,195.9 256.9,195.3 258.1,194.7 259.3,194.1 260.5,193.5 261.7,192.9 262.9,192.3 264.0,191.7 265.2,191.0 266.4,190.6 267.6,189.6 268.8,189.8 270.0,187.4 271.2,190.7 272.3,181.1 273.5,201.3 274.7,151.7 275.9,266.0 277.1,151.7 278.3,206.3 279.5,159.9 280.7,253.9 281.8,139.6 283.0,237.0 284.2,122.7 285.4,237.0 286.6,122.7 287.8,237.0 289.0,122.7 290.1,237.0 291.3,122.7 292.5,237.0 293.7,122.7 294.9,237.0 296.1,122.7 297.3,237.0 298.5,122.7 299.6,237.0 300.8,122.7 302.0,237.0 303.2,122.7 304.4,236.9 305.6,122.6 306.8,231.6 307.9,117.3 309.1,231.6 310.3,117.3 311.5,231.6 312.7,117.3 313.9,231.6 315.1,117.3 316.3,231.6 317.4,117.3 318.6,231.6 319.8,117.3 321.0,231.6 322.2,117.3 323.4,231.6 324.6,117.3 325.7,228.1 326.9,113.8 328.1,228.1 329.3,113.8 330.5,228.1 331.7,113.8 332.9,228.1 334.1,113.8 335.2,228.1 336.4,113.8 337.6,228.1 338.8,113.8 340.0,228.1 341.2,113.8 342.4,227.4 343.5,113.1 344.7,227.4 345.9,113.1 347.1,227.4 348.3,113.1 349.5,227.4 350.7,113.1 351.9,227.4 353.0,113.1 354.2,225.3 355.4,111.0 356.6,225.3 357.8,111.0 359.0,225.3 360.2,111.0 361.3,221.0 362.5,106.7 363.7,221.0 364.9,106.7 366.1,221.0 367.3,106.7 368.5,218.2 369.7,103.9 370.8,218.2 372.0,103.9 373.2,218.2 374.4,103.9 375.6,218.2 376.8,103.9 378.0,218.2 379.1,103.9 380.3,218.2 381.5,103.9 382.7,218.2 383.9,103.9 385.1,218.2 386.3,103.9 387.5,218.2 388.6,103.9 389.8,218.2 391.0,103.9 392.2,218.2 393.4,103.9 394.6,218.2 395.8,103.9 396.9,218.2 398.1,103.9 399.3,218.2 400.5,103.9 401.7,218.2 402.9,103.9 404.1,218.2 405.3,103.9 406.4,218.2 407.6,103.9 408.8,218.2 410.0,103.9 411.2,218.2 412.4,103.9 413.6,218.2 414.7,103.9 415.9,218.2 417.1,103.9 418.3,218.2 419.5,103.9 420.7,218.2 421.9,103.9 423.1,218.2 424.2,103.9 425.4,218.2 426.6,103.9 427.8,218.2 429.0,103.9 430.2,218.2 431.4,103.9 432.5,218.2 433.7,103.9 434.9,218.2 436.1,103.9 437.3,218.2 438.5,103.9 439.7,218.2 440.9,103.9 442.0,218.2 443.2,103.9 444.4,218.2 445.6,103.9 446.8,218.2 448.0,103.9 449.2,218.2 450.3,103.9 451.5,218.2 452.7,103.9 453.9,218.2 455.1,103.9 456.3,218.2 457.5,103.9 458.7,218.2 459.8,103.9 461.0,218.2 462.2,103.9 463.4,218.2 464.6,103.9 465.8,218.2 467.0,104.6 468.1,219.0 469.3,104.6 470.5,218.7 471.7,105.9 472.9,218.9 474.1,107.2 475.3,217.5 476.5,110.6 477.6,214.1 478.8,116.0 480.0,208.8 481.2,123.0 482.4,202.4 483.6,130.8 484.8,195.4 485.9,138.8 487.1,188.6 488.3,146.3 489.5,182.6 490.7,152.8 491.9,177.7 493.1,158.1 494.3,174.1 495.4,162.1 496.6,171.7 497.8,165.0 499.0,170.3 500.2,167.0 501.4,169.7 502.6,168.3 503.7,169.7 504.9,169.2 506.1,169.9 507.3,169.9 508.5,170.3 509.7,170.5 510.9,170.7 512.1,171.0 513.2,171.2 514.4,171.5 515.6,171.7 516.8,172.0 518.0,172.2 519.2,172.5 520.4,172.7 521.5,173.0 522.7,173.2 523.9,173.5 525.1,173.7 526.3,174.0 527.5,174.2 528.7,174.5 529.9,174.7 531.0,175.0 532.2,175.2 533.4,175.4 534.6,175.7 535.8,175.9 537.0,176.2 538.2,176.4 539.3,176.7 540.5,176.9 541.7,177.1 542.9,177.4 544.1,177.6 545.3,177.9 546.5,178.1 547.7,178.4 548.8,178.6 550.0,178.8 551.2,179.1 552.4,179.3 553.6,179.6 554.8,179.8 556.0,180.0 557.1,180.3 558.3,180.5 559.5,180.8 560.7,181.0 561.9,181.2 563.1,181.5 564.3,181.7 565.5,182.0 566.6,182.2 567.8,182.4 569.0,182.7 570.2,182.9 571.4,183.2 572.6,183.4 573.8,183.6 574.9,183.9 576.1,184.1 577.3,184.4 578.5,184.6 579.7,184.8 580.9,185.1 582.1,185.3 583.3,185.5 584.4,185.8 585.6,186.0 586.8,186.3 588.0,186.5 589.2,186.7 590.4,187.0 591.6,187.2 592.7,187.4 593.9,187.7 595.1,187.9 596.3,188.1 597.5,188.4 598.7,188.6 599.9,188.9 601.1,189.1 602.2,189.3 603.4,189.6 604.6,189.8 605.8,190.0 607.0,190.3 608.2,190.5 609.4,190.7 610.5,191.0 611.7,191.2 612.9,191.5 614.1,191.7 615.3,191.9 616.5,192.2 617.7,192.4 618.9,192.6 620.0,192.9 621.2,193.1 622.4,193.3 623.6,193.6 624.8,193.8 626.0,194.1 627.2,194.3 628.3,194.5 629.5,194.8 630.7,195.0 631.9,195.2 633.1,195.5 634.3,195.7 635.5,195.9 636.7,196.2 637.8,196.4 639.0,196.6 640.2,196.9 641.4,197.1 642.6,197.3 643.8,197.6 645.0,197.8 646.1,198.1 647.3,198.3 648.5,198.5 649.7,198.8 650.9,199.0 652.1,199.2 653.3,199.5 654.5,199.7 655.6,199.9 656.8,200.2 658.0,200.4 659.2,200.6 660.4,200.9 661.6,201.1 662.8,201.3 663.9,201.6 665.1,201.8 666.3,202.1 667.5,202.3 668.7,202.5 669.9,202.8 671.1,203.0 672.3,203.2 673.4,203.5 674.6,203.7 675.8,203.9 677.0,204.2 678.2,204.4 679.4,204.6 680.6,204.9 681.7,205.1 682.9,205.3 684.1,205.6 685.3,205.8 686.5,206.0 687.7,209.1 688.9,207.4 690.1,207.3 691.2,209.3 692.4,209.6 693.6,209.9 694.8,210.8 696.0,211.4 697.2,211.8 698.4,212.4 699.5,212.9 700.7,213.4 701.9,213.9 703.1,214.4 704.3,214.8 705.5,215.3 706.7,215.8 707.9,216.2 709.0,216.7 710.2,217.2 711.4,217.6 712.6,218.1 713.8,218.6 715.0,219.1 716.2,219.5 717.3,220.0 718.5,220.5 719.7,221.0 720.9,221.4 722.1,221.9 723.3,222.4 724.5,222.9 725.7,223.4 726.8,223.8 728.0,224.3 729.2,224.8 730.4,225.3 731.6,225.8 732.8,226.2 734.0,226.7 735.1,227.2 736.3,227.6 737.5,228.1 738.7,228.6 739.9,229.0 741.1,229.5 742.3,230.0 743.5,230.4 744.6,230.9 745.8,231.4 747.0,231.8 748.2,232.3 749.4,232.7 750.6,233.2 751.8,233.6 752.9,234.1 754.1,234.5 755.3,235.0 756.5,235.4 757.7,235.9 758.9,236.3 760.1,236.8 761.3,237.2 762.4,237.7 763.6,238.1 764.8,238.5 766.0,239.0"/>
<line x1="606" y1="42" x2="628" y2="42" stroke="#0f62fe" stroke-width="2.2"/>
<text x="634" y="46" font-family="Arial" font-size="12">elevator_deg</text>
<polyline fill="none" stroke="#24a148" stroke-width="2.2" points="54.0,77.2 55.2,77.2 56.4,77.2 57.6,77.2 58.7,77.2 59.9,77.2 61.1,77.2 62.3,77.2 63.5,77.2 64.7,77.2 65.9,77.2 67.1,77.2 68.2,77.2 69.4,77.2 70.6,77.2 71.8,77.2 73.0,77.2 74.2,77.2 75.4,77.2 76.5,77.2 77.7,77.2 78.9,77.2 80.1,77.2 81.3,77.2 82.5,77.2 83.7,77.2 84.9,77.2 86.0,77.2 87.2,77.2 88.4,77.2 89.6,77.2 90.8,77.2 92.0,77.2 93.2,77.2 94.3,77.2 95.5,77.2 96.7,77.2 97.9,77.2 99.1,77.2 100.3,77.2 101.5,77.2 102.7,77.2 103.8,77.2 105.0,77.2 106.2,77.2 107.4,77.2 108.6,77.2 109.8,77.2 111.0,77.2 112.1,77.2 113.3,77.2 114.5,77.2 115.7,77.2 116.9,77.2 118.1,77.2 119.3,77.2 120.5,77.2 121.6,77.2 122.8,77.2 124.0,77.2 125.2,77.2 126.4,77.2 127.6,77.2 128.8,77.2 129.9,77.2 131.1,77.2 132.3,77.2 133.5,77.2 134.7,77.2 135.9,77.2 137.1,77.2 138.3,77.2 139.4,77.2 140.6,77.2 141.8,77.2 143.0,77.2 144.2,77.2 145.4,77.2 146.6,77.2 147.7,77.2 148.9,77.2 150.1,77.2 151.3,77.2 152.5,77.2 153.7,77.2 154.9,77.2 156.1,77.2 157.2,77.2 158.4,77.2 159.6,77.2 160.8,77.2 162.0,77.2 163.2,77.2 164.4,77.2 165.5,77.2 166.7,77.2 167.9,77.2 169.1,77.2 170.3,77.2 171.5,77.2 172.7,77.2 173.9,77.2 175.0,77.2 176.2,77.2 177.4,77.2 178.6,77.2 179.8,77.2 181.0,77.2 182.2,77.2 183.3,77.2 184.5,77.2 185.7,77.2 186.9,77.2 188.1,77.2 189.3,77.2 190.5,77.2 191.7,77.2 192.8,77.2 194.0,77.2 195.2,77.2 196.4,77.2 197.6,77.2 198.8,77.2 200.0,77.2 201.1,77.2 202.3,77.2 203.5,77.2 204.7,77.2 205.9,77.2 207.1,77.2 208.3,77.2 209.5,77.2 210.6,77.2 211.8,77.2 213.0,77.2 214.2,77.2 215.4,77.2 216.6,77.2 217.8,77.2 218.9,77.2 220.1,77.2 221.3,77.2 222.5,77.2 223.7,77.2 224.9,77.2 226.1,77.2 227.3,77.2 228.4,77.2 229.6,77.2 230.8,77.2 232.0,77.2 233.2,77.2 234.4,77.2 235.6,77.2 236.7,77.2 237.9,77.2 239.1,77.2 240.3,77.2 241.5,77.2 242.7,77.2 243.9,77.2 245.1,77.2 246.2,77.2 247.4,77.2 248.6,77.2 249.8,77.2 251.0,77.2 252.2,77.2 253.4,77.2 254.5,77.2 255.7,77.2 256.9,77.2 258.1,77.2 259.3,77.2 260.5,77.2 261.7,77.2 262.9,77.2 264.0,77.2 265.2,77.2 266.4,77.2 267.6,77.2 268.8,77.2 270.0,77.2 271.2,77.2 272.3,77.2 273.5,77.2 274.7,77.2 275.9,77.2 277.1,77.2 278.3,77.2 279.5,77.2 280.7,77.2 281.8,77.2 283.0,77.2 284.2,77.2 285.4,77.2 286.6,77.2 287.8,77.2 289.0,77.2 290.1,77.2 291.3,77.2 292.5,77.2 293.7,77.2 294.9,77.2 296.1,77.2 297.3,77.2 298.5,77.2 299.6,77.2 300.8,77.2 302.0,77.2 303.2,77.2 304.4,77.2 305.6,77.2 306.8,77.2 307.9,77.2 309.1,77.2 310.3,77.2 311.5,77.2 312.7,77.2 313.9,77.2 315.1,77.2 316.3,77.2 317.4,77.2 318.6,77.2 319.8,77.2 321.0,77.2 322.2,77.2 323.4,77.2 324.6,77.2 325.7,77.2 326.9,77.2 328.1,77.2 329.3,77.2 330.5,77.2 331.7,77.2 332.9,77.2 334.1,77.2 335.2,77.2 336.4,77.2 337.6,77.2 338.8,77.2 340.0,77.2 341.2,77.2 342.4,77.2 343.5,77.2 344.7,77.2 345.9,77.2 347.1,77.2 348.3,77.2 349.5,77.2 350.7,77.2 351.9,77.2 353.0,77.2 354.2,77.2 355.4,77.2 356.6,77.2 357.8,77.2 359.0,77.2 360.2,77.2 361.3,77.2 362.5,77.2 363.7,77.2 364.9,77.2 366.1,77.2 367.3,77.2 368.5,77.2 369.7,77.2 370.8,77.2 372.0,77.2 373.2,77.2 374.4,77.2 375.6,77.2 376.8,77.2 378.0,77.2 379.1,77.2 380.3,77.2 381.5,77.2 382.7,77.2 383.9,77.2 385.1,77.2 386.3,77.2 387.5,77.2 388.6,77.2 389.8,77.2 391.0,77.2 392.2,77.2 393.4,77.2 394.6,77.2 395.8,77.2 396.9,77.2 398.1,77.2 399.3,77.2 400.5,77.2 401.7,77.2 402.9,77.2 404.1,77.2 405.3,77.2 406.4,77.2 407.6,77.2 408.8,77.2 410.0,77.2 411.2,77.2 412.4,77.2 413.6,77.2 414.7,77.2 415.9,77.2 417.1,77.2 418.3,77.2 419.5,77.2 420.7,77.2 421.9,77.2 423.1,77.2 424.2,77.2 425.4,77.2 426.6,77.2 427.8,77.2 429.0,77.2 430.2,77.2 431.4,77.2 432.5,77.2 433.7,77.2 434.9,77.2 436.1,77.2 437.3,77.2 438.5,77.2 439.7,77.2 440.9,77.2 442.0,77.2 443.2,77.2 444.4,77.2 445.6,77.2 446.8,77.2 448.0,77.2 449.2,77.2 450.3,77.2 451.5,77.2 452.7,77.2 453.9,77.2 455.1,77.2 456.3,77.2 457.5,77.2 458.7,77.2 459.8,77.2 461.0,77.2 462.2,77.2 463.4,77.2 464.6,77.2 465.8,77.2 467.0,77.2 468.1,77.2 469.3,77.2 470.5,77.2 471.7,77.2 472.9,77.2 474.1,77.2 475.3,77.2 476.5,77.2 477.6,77.2 478.8,77.2 480.0,77.2 481.2,77.2 482.4,77.2 483.6,77.2 484.8,77.2 485.9,77.2 487.1,77.2 488.3,77.2 489.5,77.2 490.7,77.2 491.9,77.2 493.1,77.2 494.3,77.2 495.4,77.2 496.6,77.2 497.8,77.2 499.0,77.2 500.2,77.2 501.4,77.2 502.6,77.2 503.7,77.2 504.9,77.2 506.1,77.2 507.3,77.2 508.5,77.2 509.7,77.2 510.9,77.2 512.1,77.2 513.2,77.2 514.4,77.2 515.6,77.2 516.8,77.2 518.0,77.2 519.2,77.2 520.4,77.2 521.5,77.2 522.7,77.2 523.9,77.2 525.1,77.2 526.3,77.2 527.5,77.2 528.7,77.2 529.9,77.2 531.0,77.2 532.2,77.2 533.4,77.2 534.6,77.2 535.8,77.2 537.0,77.2 538.2,77.2 539.3,77.2 540.5,77.2 541.7,77.2 542.9,77.2 544.1,77.2 545.3,77.2 546.5,77.2 547.7,77.2 548.8,77.2 550.0,77.2 551.2,77.2 552.4,77.2 553.6,77.2 554.8,77.2 556.0,77.2 557.1,77.2 558.3,77.2 559.5,77.2 560.7,77.2 561.9,77.2 563.1,77.2 564.3,77.2 565.5,77.2 566.6,77.2 567.8,77.2 569.0,77.2 570.2,77.2 571.4,77.2 572.6,77.2 573.8,77.2 574.9,77.2 576.1,77.2 577.3,77.2 578.5,77.2 579.7,77.2 580.9,77.2 582.1,77.2 583.3,77.2 584.4,77.2 585.6,77.2 586.8,77.2 588.0,77.2 589.2,77.2 590.4,77.2 591.6,77.2 592.7,77.2 593.9,77.2 595.1,77.2 596.3,77.2 597.5,77.2 598.7,77.2 599.9,77.2 601.1,77.2 602.2,77.2 603.4,77.2 604.6,77.2 605.8,77.2 607.0,77.2 608.2,77.2 609.4,77.2 610.5,77.2 611.7,77.2 612.9,77.2 614.1,77.2 615.3,77.2 616.5,77.2 617.7,77.2 618.9,77.2 620.0,77.2 621.2,77.2 622.4,77.2 623.6,77.2 624.8,77.2 626.0,77.2 627.2,77.2 628.3,77.2 629.5,77.2 630.7,77.2 631.9,77.2 633.1,77.2 634.3,77.2 635.5,77.2 636.7,77.2 637.8,77.2 639.0,77.2 640.2,77.2 641.4,77.2 642.6,77.2 643.8,77.2 645.0,77.2 646.1,77.2 647.3,77.2 648.5,77.2 649.7,77.2 650.9,77.2 652.1,77.2 653.3,77.2 654.5,77.2 655.6,77.2 656.8,77.2 658.0,77.2 659.2,77.2 660.4,77.2 661.6,77.2 662.8,77.2 663.9,77.2 665.1,77.2 666.3,77.2 667.5,77.2 668.7,77.2 669.9,77.2 671.1,77.2 672.3,77.2 673.4,77.2 674.6,77.2 675.8,77.2 677.0,77.2 678.2,77.2 679.4,77.2 680.6,77.2 681.7,77.2 682.9,77.2 684.1,77.2 685.3,77.2 686.5,77.2 687.7,77.2 688.9,77.2 690.1,77.2 691.2,77.2 692.4,77.2 693.6,77.2 694.8,77.2 696.0,77.2 697.2,77.2 698.4,77.2 699.5,77.2 700.7,77.2 701.9,77.2 703.1,77.2 704.3,77.2 705.5,77.2 706.7,77.2 707.9,77.2 709.0,77.2 710.2,77.2 711.4,77.2 712.6,77.2 713.8,77.2 715.0,77.2 716.2,77.2 717.3,77.2 718.5,77.2 719.7,77.2 720.9,77.2 722.1,77.2 723.3,77.2 724.5,77.2 725.7,77.2 726.8,77.2 728.0,77.2 729.2,77.2 730.4,77.2 731.6,77.2 732.8,77.2 734.0,77.2 735.1,77.2 736.3,77.2 737.5,77.2 738.7,77.2 739.9,77.2 741.1,77.2 742.3,77.2 743.5,77.2 744.6,77.2 745.8,77.2 747.0,77.2 748.2,77.2 749.4,77.2 750.6,77.2 751.8,77.2 752.9,77.2 754.1,77.2 755.3,77.2 756.5,77.2 757.7,77.2 758.9,77.2 760.1,77.2 761.3,77.2 762.4,77.2 763.6,77.2 764.8,77.2 766.0,77.2"/>
<line x1="606" y1="60" x2="628" y2="60" stroke="#24a148" stroke-width="2.2"/>
<text x="634" y="64" font-family="Arial" font-size="12">aileron_deg</text>
<polyline fill="none" stroke="#da1e28" stroke-width="2.2" points="54.0,77.2 55.2,77.2 56.4,77.2 57.6,77.2 58.7,77.2 59.9,77.2 61.1,77.2 62.3,77.2 63.5,77.2 64.7,77.2 65.9,77.2 67.1,77.2 68.2,77.2 69.4,77.2 70.6,77.2 71.8,77.2 73.0,77.2 74.2,77.2 75.4,77.2 76.5,77.2 77.7,77.2 78.9,77.2 80.1,77.2 81.3,77.2 82.5,77.2 83.7,77.2 84.9,77.2 86.0,77.2 87.2,77.2 88.4,77.2 89.6,77.2 90.8,77.2 92.0,77.2 93.2,77.2 94.3,77.2 95.5,77.2 96.7,77.2 97.9,77.2 99.1,77.2 100.3,77.2 101.5,77.2 102.7,77.2 103.8,77.2 105.0,77.2 106.2,77.2 107.4,77.2 108.6,77.2 109.8,77.2 111.0,77.2 112.1,77.2 113.3,77.2 114.5,77.2 115.7,77.2 116.9,77.2 118.1,77.2 119.3,77.2 120.5,77.2 121.6,77.2 122.8,77.2 124.0,77.2 125.2,77.2 126.4,77.2 127.6,77.2 128.8,77.2 129.9,77.2 131.1,77.2 132.3,77.2 133.5,77.2 134.7,77.2 135.9,77.2 137.1,77.2 138.3,77.2 139.4,77.2 140.6,77.2 141.8,77.2 143.0,77.2 144.2,77.2 145.4,77.2 146.6,77.2 147.7,77.2 148.9,77.2 150.1,77.2 151.3,77.2 152.5,77.2 153.7,77.2 154.9,77.2 156.1,77.2 157.2,77.2 158.4,77.2 159.6,77.2 160.8,77.2 162.0,77.2 163.2,77.2 164.4,77.2 165.5,77.2 166.7,77.2 167.9,77.2 169.1,77.2 170.3,77.2 171.5,77.2 172.7,77.2 173.9,77.2 175.0,77.2 176.2,77.2 177.4,77.2 178.6,77.2 179.8,77.2 181.0,77.2 182.2,77.2 183.3,77.2 184.5,77.2 185.7,77.2 186.9,77.2 188.1,77.2 189.3,77.2 190.5,77.2 191.7,77.2 192.8,77.2 194.0,77.2 195.2,77.2 196.4,77.2 197.6,77.2 198.8,77.2 200.0,77.2 201.1,77.2 202.3,77.2 203.5,77.2 204.7,77.2 205.9,77.2 207.1,77.2 208.3,77.2 209.5,77.2 210.6,77.2 211.8,77.2 213.0,77.2 214.2,77.2 215.4,77.2 216.6,77.2 217.8,77.2 218.9,77.2 220.1,77.2 221.3,77.2 222.5,77.2 223.7,77.2 224.9,77.2 226.1,77.2 227.3,77.2 228.4,77.2 229.6,77.2 230.8,77.2 232.0,77.2 233.2,77.2 234.4,77.2 235.6,77.2 236.7,77.2 237.9,77.2 239.1,77.2 240.3,77.2 241.5,77.2 242.7,77.2 243.9,77.2 245.1,77.2 246.2,77.2 247.4,77.2 248.6,77.2 249.8,77.2 251.0,77.2 252.2,77.2 253.4,77.2 254.5,77.2 255.7,77.2 256.9,77.2 258.1,77.2 259.3,77.2 260.5,77.2 261.7,77.2 262.9,77.2 264.0,77.2 265.2,77.2 266.4,77.2 267.6,77.2 268.8,77.2 270.0,77.2 271.2,77.2 272.3,77.2 273.5,77.2 274.7,77.2 275.9,77.2 277.1,77.2 278.3,77.2 279.5,77.2 280.7,77.2 281.8,77.2 283.0,77.2 284.2,77.2 285.4,77.2 286.6,77.2 287.8,77.2 289.0,77.2 290.1,77.2 291.3,77.2 292.5,77.2 293.7,77.2 294.9,77.2 296.1,77.2 297.3,77.2 298.5,77.2 299.6,77.2 300.8,77.2 302.0,77.2 303.2,77.2 304.4,77.2 305.6,77.2 306.8,77.2 307.9,77.2 309.1,77.2 310.3,77.2 311.5,77.2 312.7,77.2 313.9,77.2 315.1,77.2 316.3,77.2 317.4,77.2 318.6,77.2 319.8,77.2 321.0,77.2 322.2,77.2 323.4,77.2 324.6,77.2 325.7,77.2 326.9,77.2 328.1,77.2 329.3,77.2 330.5,77.2 331.7,77.2 332.9,77.2 334.1,77.2 335.2,77.2 336.4,77.2 337.6,77.2 338.8,77.2 340.0,77.2 341.2,77.2 342.4,77.2 343.5,77.2 344.7,77.2 345.9,77.2 347.1,77.2 348.3,77.2 349.5,77.2 350.7,77.2 351.9,77.2 353.0,77.2 354.2,77.2 355.4,77.2 356.6,77.2 357.8,77.2 359.0,77.2 360.2,77.2 361.3,77.2 362.5,77.2 363.7,77.2 364.9,77.2 366.1,77.2 367.3,77.2 368.5,77.2 369.7,77.2 370.8,77.2 372.0,77.2 373.2,77.2 374.4,77.2 375.6,77.2 376.8,77.2 378.0,77.2 379.1,77.2 380.3,77.2 381.5,77.2 382.7,77.2 383.9,77.2 385.1,77.2 386.3,77.2 387.5,77.2 388.6,77.2 389.8,77.2 391.0,77.2 392.2,77.2 393.4,77.2 394.6,77.2 395.8,77.2 396.9,77.2 398.1,77.2 399.3,77.2 400.5,77.2 401.7,77.2 402.9,77.2 404.1,77.2 405.3,77.2 406.4,77.2 407.6,77.2 408.8,77.2 410.0,77.2 411.2,77.2 412.4,77.2 413.6,77.2 414.7,77.2 415.9,77.2 417.1,77.2 418.3,77.2 419.5,77.2 420.7,77.2 421.9,77.2 423.1,77.2 424.2,77.2 425.4,77.2 426.6,77.2 427.8,77.2 429.0,77.2 430.2,77.2 431.4,77.2 432.5,77.2 433.7,77.2 434.9,77.2 436.1,77.2 437.3,77.2 438.5,77.2 439.7,77.2 440.9,77.2 442.0,77.2 443.2,77.2 444.4,77.2 445.6,77.2 446.8,77.2 448.0,77.2 449.2,77.2 450.3,77.2 451.5,77.2 452.7,77.2 453.9,77.2 455.1,77.2 456.3,77.2 457.5,77.2 458.7,77.2 459.8,77.2 461.0,77.2 462.2,77.2 463.4,77.2 464.6,77.2 465.8,77.2 467.0,77.2 468.1,77.2 469.3,77.2 470.5,77.2 471.7,77.2 472.9,77.2 474.1,77.2 475.3,77.2 476.5,77.2 477.6,77.2 478.8,77.2 480.0,77.2 481.2,77.2 482.4,77.2 483.6,77.2 484.8,77.2 485.9,77.2 487.1,77.2 488.3,77.2 489.5,77.2 490.7,77.2 491.9,77.2 493.1,77.2 494.3,77.2 495.4,77.2 496.6,77.2 497.8,77.2 499.0,77.2 500.2,77.2 501.4,77.2 502.6,77.2 503.7,77.2 504.9,77.2 506.1,77.2 507.3,77.2 508.5,77.2 509.7,77.2 510.9,77.2 512.1,77.2 513.2,77.2 514.4,77.2 515.6,77.2 516.8,77.2 518.0,77.2 519.2,77.2 520.4,77.2 521.5,77.2 522.7,77.2 523.9,77.2 525.1,77.2 526.3,77.2 527.5,77.2 528.7,77.2 529.9,77.2 531.0,77.2 532.2,77.2 533.4,77.2 534.6,77.2 535.8,77.2 537.0,77.2 538.2,77.2 539.3,77.2 540.5,77.2 541.7,77.2 542.9,77.2 544.1,77.2 545.3,77.2 546.5,77.2 547.7,77.2 548.8,77.2 550.0,77.2 551.2,77.2 552.4,77.2 553.6,77.2 554.8,77.2 556.0,77.2 557.1,77.2 558.3,77.2 559.5,77.2 560.7,77.2 561.9,77.2 563.1,77.2 564.3,77.2 565.5,77.2 566.6,77.2 567.8,77.2 569.0,77.2 570.2,77.2 571.4,77.2 572.6,77.2 573.8,77.2 574.9,77.2 576.1,77.2 577.3,77.2 578.5,77.2 579.7,77.2 580.9,77.2 582.1,77.2 583.3,77.2 584.4,77.2 585.6,77.2 586.8,77.2 588.0,77.2 589.2,77.2 590.4,77.2 591.6,77.2 592.7,77.2 593.9,77.2 595.1,77.2 596.3,77.2 597.5,77.2 598.7,77.2 599.9,77.2 601.1,77.2 602.2,77.2 603.4,77.2 604.6,77.2 605.8,77.2 607.0,77.2 608.2,77.2 609.4,77.2 610.5,77.2 611.7,77.2 612.9,77.2 614.1,77.2 615.3,77.2 616.5,77.2 617.7,77.2 618.9,77.2 620.0,77.2 621.2,77.2 622.4,77.2 623.6,77.2 624.8,77.2 626.0,77.2 627.2,77.2 628.3,77.2 629.5,77.2 630.7,77.2 631.9,77.2 633.1,77.2 634.3,77.2 635.5,77.2 636.7,77.2 637.8,77.2 639.0,77.2 640.2,77.2 641.4,77.2 642.6,77.2 643.8,77.2 645.0,77.2 646.1,77.2 647.3,77.2 648.5,77.2 649.7,77.2 650.9,77.2 652.1,77.2 653.3,77.2 654.5,77.2 655.6,77.2 656.8,77.2 658.0,77.2 659.2,77.2 660.4,77.2 661.6,77.2 662.8,77.2 663.9,77.2 665.1,77.2 666.3,77.2 667.5,77.2 668.7,77.2 669.9,77.2 671.1,77.2 672.3,77.2 673.4,77.2 674.6,77.2 675.8,77.2 677.0,77.2 678.2,77.2 679.4,77.2 680.6,77.2 681.7,77.2 682.9,77.2 684.1,77.2 685.3,77.2 686.5,77.2 687.7,77.2 688.9,77.2 690.1,77.2 691.2,77.2 692.4,77.2 693.6,77.2 694.8,77.2 696.0,77.2 697.2,77.2 698.4,77.2 699.5,77.2 700.7,77.2 701.9,77.2 703.1,77.2 704.3,77.2 705.5,77.2 706.7,77.2 707.9,77.2 709.0,77.2 710.2,77.2 711.4,77.2 712.6,77.2 713.8,77.2 715.0,77.2 716.2,77.2 717.3,77.2 718.5,77.2 719.7,77.2 720.9,77.2 722.1,77.2 723.3,77.2 724.5,77.2 725.7,77.2 726.8,77.2 728.0,77.2 729.2,77.2 730.4,77.2 731.6,77.2 732.8,77.2 734.0,77.2 735.1,77.2 736.3,77.2 737.5,77.2 738.7,77.2 739.9,77.2 741.1,77.2 742.3,77.2 743.5,77.2 744.6,77.2 745.8,77.2 747.0,77.2 748.2,77.2 749.4,77.2 750.6,77.2 751.8,77.2 752.9,77.2 754.1,77.2 755.3,77.2 756.5,77.2 757.7,77.2 758.9,77.2 760.1,77.2 761.3,77.2 762.4,77.2 763.6,77.2 764.8,77.2 766.0,77.2"/>
<line x1="606" y1="78" x2="628" y2="78" stroke="#da1e28" stroke-width="2.2"/>
<text x="634" y="82" font-family="Arial" font-size="12">rudder_deg</text>
</svg>