<svg xmlns="http://www.w3.org/2000/svg" width="820" height="320" viewBox="0 0 820 320">
<rect width="100%" height="100%" fill="#ffffff"/>
<text x="54" y="28" font-family="Arial" font-size="18" font-weight="700">Downrange Position</text>
<line x1="54" y1="266" x2="766" y2="266" stroke="#1f2933"/>
<line x1="54" y1="54" x2="54" y2="266" stroke="#1f2933"/>
<text x="54" y="306" font-family="Arial" font-size="12">time (s)</text>
<text x="596" y="306" font-family="Arial" font-size="12">x (m)</text>
<text x="58" y="68" font-family="Arial" font-size="11">1.48e+03</text>
<text x="58" y="260" font-family="Arial" font-size="11">0</text>
<polyline fill="none" stroke="#0f62fe" stroke-width="2.2" points="54.0,266.0 55.3,265.7 56.5,265.3 57.8,265.0 59.1,264.7 60.4,264.3 61.6,264.0 62.9,263.6 64.2,263.3 65.4,263.0 66.7,262.6 68.0,262.3 69.3,261.9 70.5,261.6 71.8,261.2 73.1,260.9 74.3,260.5 75.6,260.1 76.9,259.8 78.2,259.4 79.4,259.1 80.7,258.7 82.0,258.3 83.2,258.0 84.5,257.6 85.8,257.2 87.1,256.8 88.3,256.5 89.6,256.1 90.9,255.7 92.1,255.3 93.4,254.9 94.7,254.6 96.0,254.2 97.2,253.8 98.5,253.4 99.8,253.0 101.0,252.6 102.3,252.2 103.6,251.8 104.9,251.4 106.1,251.0 107.4,250.6 108.7,250.2 109.9,249.8 111.2,249.4 112.5,249.0 113.8,248.6 115.0,248.2 116.3,247.8 117.6,247.4 118.8,247.0 120.1,246.6 121.4,246.2 122.7,245.7 123.9,245.3 125.2,244.9 126.5,244.5 127.7,244.1 129.0,243.6 130.3,243.2 131.6,242.8 132.8,242.4 134.1,241.9 135.4,241.5 136.6,241.1 137.9,240.7 139.2,240.2 140.5,239.8 141.7,239.4 143.0,238.9 144.3,238.5 145.5,238.1 146.8,237.6 148.1,237.2 149.4,236.7 150.6,236.3 151.9,235.9 153.2,235.4 154.4,235.0 155.7,234.5 157.0,234.1 158.3,233.6 159.5,233.2 160.8,232.7 162.1,232.2 163.3,231.8 164.6,231.3 165.9,230.9 167.2,230.4 168.4,229.9 169.7,229.5 171.0,229.0 172.2,228.5 173.5,228.1 174.8,227.6 176.1,227.1 177.3,226.6 178.6,226.2 179.9,225.7 181.1,225.2 182.4,224.7 183.7,224.2 185.0,223.8 186.2,223.3 187.5,222.8 188.8,222.3 190.0,221.8 191.3,221.3 192.6,220.8 193.9,220.4 195.1,219.9 196.4,219.4 197.7,218.9 198.9,218.4 200.2,217.9 201.5,217.4 202.8,216.9 204.0,216.4 205.3,215.9 206.6,215.4 207.8,214.9 209.1,214.4 210.4,213.8 211.7,213.3 212.9,212.8 214.2,212.3 215.5,211.8 216.7,211.3 218.0,210.8 219.3,210.2 220.6,209.7 221.8,209.2 223.1,208.7 224.4,208.2 225.6,207.6 226.9,207.1 228.2,206.6 229.5,206.1 230.7,205.6 232.0,205.0 233.3,204.5 234.5,204.0 235.8,203.5 237.1,203.0 238.4,202.5 239.6,201.9 240.9,201.4 242.2,200.9 243.4,200.4 244.7,199.9 246.0,199.4 247.3,198.9 248.5,198.4 249.8,197.9 251.1,197.4 252.3,196.9 253.6,196.4 254.9,195.9 256.2,195.4 257.4,194.9 258.7,194.4 260.0,193.9 261.2,193.4 262.5,192.9 263.8,192.4 265.1,191.9 266.3,191.4 267.6,191.0 268.9,190.5 270.1,190.0 271.4,189.5 272.7,189.0 274.0,188.5 275.2,188.1 276.5,187.6 277.8,187.1 279.0,186.6 280.3,186.2 281.6,185.7 282.9,185.2 284.1,184.7 285.4,184.3 286.7,183.8 287.9,183.3 289.2,182.8 290.5,182.4 291.8,181.9 293.0,181.4 294.3,181.0 295.6,180.5 296.8,180.0 298.1,179.6 299.4,179.1 300.7,178.7 301.9,178.2 303.2,177.7 304.5,177.3 305.7,176.8 307.0,176.4 308.3,175.9 309.6,175.5 310.8,175.0 312.1,174.5 313.4,174.1 314.6,173.6 315.9,173.2 317.2,172.7 318.5,172.3 319.7,171.8 321.0,171.4 322.3,170.9 323.5,170.5 324.8,170.1 326.1,169.6 327.4,169.2 328.6,168.7 329.9,168.3 331.2,167.8 332.4,167.4 333.7,167.0 335.0,166.5 336.3,166.1 337.5,165.6 338.8,165.2 340.1,164.8 341.3,164.3 342.6,163.9 343.9,163.4 345.2,163.0 346.4,162.6 347.7,162.1 349.0,161.7 350.2,161.3 351.5,160.9 352.8,160.4 354.1,160.0 355.3,159.6 356.6,159.1 357.9,158.7 359.1,158.3 360.4,157.8 361.7,157.4 363.0,157.0 364.2,156.5 365.5,156.1 366.8,155.7 368.0,155.3 369.3,154.8 370.6,154.4 371.9,154.0 373.1,153.6 374.4,153.2 375.7,152.7 376.9,152.3 378.2,151.9 379.5,151.5 380.8,151.0 382.0,150.6 383.3,150.2 384.6,149.8 385.8,149.3 387.1,148.9 388.4,148.5 389.7,148.1 390.9,147.7 392.2,147.3 393.5,146.9 394.7,146.4 396.0,146.0 397.3,145.6 398.6,145.2 399.8,144.8 401.1,144.4 402.4,144.0 403.6,143.6 404.9,143.2 406.2,142.8 407.5,142.4 408.7,141.9 410.0,141.5 411.3,141.1 412.5,140.7 413.8,140.3 415.1,139.9 416.4,139.5 417.6,139.1 418.9,138.8 420.2,138.4 421.4,138.0 422.7,137.6 424.0,137.2 425.3,136.8 426.5,136.5 427.8,136.1 429.1,135.7 430.3,135.3 431.6,134.9 432.9,134.5 434.2,134.1 435.4,133.8 436.7,133.4 438.0,133.0 439.2,132.6 440.5,132.2 441.8,131.9 443.1,131.5 444.3,131.1 445.6,130.7 446.9,130.4 448.1,130.0 449.4,129.7 450.7,129.3 452.0,129.0 453.2,128.6 454.5,128.3 455.8,127.9 457.0,127.6 458.3,127.3 459.6,126.9 460.9,126.6 462.1,126.3 463.4,125.9 464.7,125.6 465.9,125.3 467.2,125.0 468.5,124.7 469.8,124.3 471.0,124.0 472.3,123.7 473.6,123.4 474.8,123.0 476.1,122.7 477.4,122.4 478.7,122.1 479.9,121.7 481.2,121.4 482.5,121.1 483.7,120.7 485.0,120.4 486.3,120.1 487.6,119.8 488.8,119.4 490.1,119.1 491.4,118.8 492.6,118.5 493.9,118.1 495.2,117.8 496.5,117.5 497.7,117.2 499.0,116.9 500.3,116.6 501.5,116.3 502.8,116.0 504.1,115.6 505.4,115.3 506.6,115.0 507.9,114.7 509.2,114.4 510.4,114.1 511.7,113.8 513.0,113.5 514.3,113.2 515.5,112.9 516.8,112.6 518.1,112.3 519.3,112.0 520.6,111.7 521.9,111.4 523.2,111.1 524.4,110.8 525.7,110.5 527.0,110.1 528.2,109.8 529.5,109.5 530.8,109.2 532.1,108.9 533.3,108.6 534.6,108.3 535.9,108.0 537.1,107.7 538.4,107.4 539.7,107.1 541.0,106.8 542.2,106.5 543.5,106.2 544.8,105.9 546.0,105.6 547.3,105.3 548.6,105.0 549.9,104.7 551.1,104.4 552.4,104.1 553.7,103.7 554.9,103.4 556.2,103.1 557.5,102.8 558.8,102.5 560.0,102.2 561.3,101.8 562.6,101.5 563.8,101.2 565.1,100.9 566.4,100.5 567.7,100.2 568.9,99.9 570.2,99.5 571.5,99.2 572.7,98.9 574.0,98.6 575.3,98.2 576.6,97.9 577.8,97.5 579.1,97.2 580.4,96.9 581.6,96.5 582.9,96.2 584.2,95.8 585.5,95.5 586.7,95.2 588.0,94.8 589.3,94.5 590.5,94.1 591.8,93.8 593.1,93.5 594.4,93.1 595.6,92.8 596.9,92.5 598.2,92.2 599.4,91.8 600.7,91.5 602.0,91.2 603.3,90.9 604.5,90.5 605.8,90.2 607.1,89.9 608.3,89.6 609.6,89.2 610.9,88.9 612.2,88.6 613.4,88.2 614.7,87.9 616.0,87.6 617.2,87.3 618.5,86.9 619.8,86.6 621.1,86.3 622.3,86.0 623.6,85.7 624.9,85.3 626.1,85.0 627.4,84.7 628.7,84.4 630.0,84.1 631.2,83.8 632.5,83.5 633.8,83.2 635.0,82.9 636.3,82.6 637.6,82.3 638.9,81.9 640.1,81.6 641.4,81.3 642.7,81.0 643.9,80.7 645.2,80.4 646.5,80.1 647.8,79.8 649.0,79.5 650.3,79.2 651.6,78.9 652.8,78.6 654.1,78.3 655.4,77.9 656.7,77.6 657.9,77.3 659.2,77.0 660.5,76.7 661.7,76.4 663.0,76.1 664.3,75.8 665.6,75.5 666.8,75.2 668.1,74.9 669.4,74.6 670.6,74.3 671.9,74.0 673.2,73.7 674.5,73.4 675.7,73.1 677.0,72.8 678.3,72.5 679.5,72.2 680.8,71.9 682.1,71.6 683.4,71.3 684.6,71.0 685.9,70.7 687.2,70.4 688.4,70.1 689.7,69.8 691.0,69.6 692.3,69.3 693.5,69.0 694.8,68.7 696.1,68.4 697.3,68.1 698.6,67.8 699.9,67.6 701.2,67.3 702.4,67.0 703.7,66.7 705.0,66.4 706.2,66.1 707.5,65.8 708.8,65.5 710.1,65.2 711.3,64.9 712.6,64.7 713.9,64.4 715.1,64.1 716.4,63.8 717.7,63.5 719.0,63.3 720.2,63.0 721.5,62.7 722.8,62.5 724.0,62.2 725.3,61.9 726.6,61.6 727.9,61.4 729.1,61.1 730.4,60.9 731.7,60.6 732.9,60.3 734.2,60.1 735.5,59.8 736.8,59.6 738.0,59.3 739.3,59.0 740.6,58.8 741.8,58.5 743.1,58.3 744.4,58.0 745.7,57.8 746.9,57.6 748.2,57.3 749.5,57.1 750.7,56.8 752.0,56.6 753.3,56.3 754.6,56.1 755.8,55.9 757.1,55.6 758.4,55.4 759.6,55.2 760.9,54.9 762.2,54.7 763.5,54.5 764.7,54.2 766.0,54.0"/>
<line x1="606" y1="42" x2="628" y2="42" stroke="#0f62fe" stroke-width="2.2"/>
<text x="634" y="46" font-family="Arial" font-size="12">x_m</text>
</svg>