<svg xmlns="http://www.w3.org/2000/svg" width="820" height="320" viewBox="0 0 820 320">
<rect width="100%" height="100%" fill="#ffffff"/>
<text x="54" y="28" font-family="Arial" font-size="18" font-weight="700">Speed</text>
<line x1="54" y1="266" x2="766" y2="266" stroke="#1f2933"/>
<line x1="54" y1="54" x2="54" y2="266" stroke="#1f2933"/>
<text x="54" y="306" font-family="Arial" font-size="12">time (s)</text>
<text x="596" y="306" font-family="Arial" font-size="12">speed (m/s)</text>
<text x="58" y="68" font-family="Arial" font-size="11">146</text>
<text x="58" y="260" font-family="Arial" font-size="11">91.5</text>
<polyline fill="none" stroke="#0f62fe" stroke-width="2.2" points="54.0,259.8 55.3,258.2 56.5,256.6 57.8,254.9 59.1,253.3 60.4,251.6 61.6,249.9 62.9,248.2 64.2,246.5 65.4,244.7 66.7,243.0 68.0,241.2 69.3,239.4 70.5,237.6 71.8,235.8 73.1,234.0 74.3,232.1 75.6,230.3 76.9,228.4 78.2,226.6 79.4,224.8 80.7,223.0 82.0,221.2 83.2,219.4 84.5,217.6 85.8,215.8 87.1,214.1 88.3,212.3 89.6,210.6 90.9,208.8 92.1,207.1 93.4,205.3 94.7,203.6 96.0,201.8 97.2,200.1 98.5,198.3 99.8,196.5 101.0,194.7 102.3,192.9 103.6,191.1 104.9,189.3 106.1,187.5 107.4,185.6 108.7,183.8 109.9,182.0 111.2,180.2 112.5,178.5 113.8,176.7 115.0,175.1 116.3,173.5 117.6,172.1 118.8,170.8 120.1,169.6 121.4,168.5 122.7,167.6 123.9,166.7 125.2,165.8 126.5,165.0 127.7,164.1 129.0,163.2 130.3,162.2 131.6,161.2 132.8,160.1 134.1,158.9 135.4,157.7 136.6,156.5 137.9,155.3 139.2,154.0 140.5,152.9 141.7,151.7 143.0,150.6 144.3,149.5 145.5,148.4 146.8,147.3 148.1,146.2 149.4,145.0 150.6,143.7 151.9,142.2 153.2,140.5 154.4,138.7 155.7,136.8 157.0,134.9 158.3,132.9 159.5,131.0 160.8,129.0 162.1,127.0 163.3,125.1 164.6,123.2 165.9,121.3 167.2,119.5 168.4,117.8 169.7,116.1 171.0,114.6 172.2,113.1 173.5,111.6 174.8,110.3 176.1,108.9 177.3,107.5 178.6,106.1 179.9,104.7 181.1,103.2 182.4,101.8 183.7,100.3 185.0,98.9 186.2,97.4 187.5,96.1 188.8,94.7 190.0,93.5 191.3,92.2 192.6,90.9 193.9,89.5 195.1,88.1 196.4,86.6 197.7,85.0 198.9,83.4 200.2,81.9 201.5,80.3 202.8,78.7 204.0,77.1 205.3,75.5 206.6,73.9 207.8,72.3 209.1,70.6 210.4,69.0 211.7,67.3 212.9,65.8 214.2,64.3 215.5,63.0 216.7,61.8 218.0,60.8 219.3,59.8 220.6,58.9 221.8,58.0 223.1,57.2 224.4,56.3 225.6,55.5 226.9,54.8 228.2,54.3 229.5,54.0 230.7,54.0 232.0,54.4 233.3,55.2 234.5,56.1 235.8,57.1 237.1,58.4 238.4,59.7 239.6,61.2 240.9,62.8 242.2,64.5 243.4,66.1 244.7,67.7 246.0,69.2 247.3,70.6 248.5,71.9 249.8,73.1 251.1,74.2 252.3,75.2 253.6,76.1 254.9,77.0 256.2,78.0 257.4,79.0 258.7,80.1 260.0,81.3 261.2,82.6 262.5,84.0 263.8,85.3 265.1,86.5 266.3,87.6 267.6,88.6 268.9,89.4 270.1,90.2 271.4,91.0 272.7,91.7 274.0,92.5 275.2,93.4 276.5,94.4 277.8,95.5 279.0,96.7 280.3,98.0 281.6,99.3 282.9,100.6 284.1,101.7 285.4,102.7 286.7,103.5 287.9,104.1 289.2,104.6 290.5,105.0 291.8,105.4 293.0,105.9 294.3,106.5 295.6,107.3 296.8,108.3 298.1,109.4 299.4,110.7 300.7,112.1 301.9,113.5 303.2,114.7 304.5,115.8 305.7,116.6 307.0,117.0 308.3,117.2 309.6,117.2 310.8,117.1 312.1,117.1 313.4,117.2 314.6,117.5 315.9,118.1 317.2,119.0 318.5,120.2 319.7,121.7 321.0,123.3 322.3,124.9 323.5,126.4 324.8,127.6 326.1,128.4 327.4,128.8 328.6,128.8 329.9,128.5 331.2,127.9 332.4,127.2 333.7,126.5 335.0,125.9 336.3,125.6 337.5,126.0 338.8,126.9 340.1,128.3 341.3,130.1 342.6,132.2 343.9,134.3 345.2,136.2 346.4,137.7 347.7,138.8 349.0,139.5 350.2,139.7 351.5,139.4 352.8,138.6 354.1,137.4 355.3,135.8 356.6,134.0 357.9,132.8 359.1,132.1 360.4,132.0 361.7,133.2 363.0,134.9 364.2,137.1 365.5,139.5 366.8,142.1 368.0,144.3 369.3,146.2 370.6,147.7 371.9,148.8 373.1,149.4 374.4,149.4 375.7,148.6 376.9,147.3 378.2,144.9 379.5,142.8 380.8,141.9 382.0,142.0 383.3,142.8 384.6,143.9 385.8,145.5 387.1,147.6 388.4,150.2 389.7,153.1 390.9,155.9 392.2,158.5 393.5,160.8 394.7,162.8 396.0,164.5 397.3,165.7 398.6,166.1 399.8,165.8 401.1,164.7 402.4,162.4 403.6,160.1 404.9,158.9 406.2,158.8 407.5,159.4 408.7,160.7 410.0,162.6 411.3,164.9 412.5,167.5 413.8,170.1 415.1,173.1 416.4,176.3 417.6,179.3 418.9,182.3 420.2,185.1 421.4,187.8 422.7,190.2 424.0,192.2 425.3,193.5 426.5,194.0 427.8,193.9 429.1,192.9 430.3,191.0 431.6,188.5 432.9,186.5 434.2,185.8 435.4,185.8 436.7,186.4 438.0,187.6 439.2,189.4 440.5,191.6 441.8,194.1 443.1,197.0 444.3,200.1 445.6,203.3 446.9,206.6 448.1,209.9 449.4,213.1 450.7,216.3 452.0,219.5 453.2,222.7 454.5,225.9 455.8,229.0 457.0,232.0 458.3,235.0 459.6,237.9 460.9,240.5 462.1,243.0 463.4,245.1 464.7,247.0 465.9,248.4 467.2,249.4 468.5,250.0 469.8,250.1 471.0,249.8 472.3,249.2 473.6,248.4 474.8,247.4 476.1,246.2 477.4,244.5 478.7,243.4 479.9,242.7 481.2,242.4 482.5,242.4 483.7,242.7 485.0,243.2 486.3,243.9 487.6,244.7 488.8,245.7 490.1,246.9 491.4,248.4 492.6,250.0 493.9,251.8 495.2,253.5 496.5,255.3 497.7,256.9 499.0,258.5 500.3,259.9 501.5,261.2 502.8,262.5 504.1,263.7 505.4,264.7 506.6,265.4 507.9,265.9 509.2,266.0 510.4,265.8 511.7,265.1 513.0,264.1 514.3,262.8 515.5,261.4 516.8,260.0 518.1,258.0 519.3,256.0 520.6,254.5 521.9,253.3 523.2,252.3 524.4,251.4 525.7,250.6 527.0,249.9 528.2,249.1 529.5,248.3 530.8,247.5 532.1,246.8 533.3,246.0 534.6,245.1 535.9,244.2 537.1,243.2 538.4,242.1 539.7,240.7 541.0,238.8 542.2,236.5 543.5,234.3 544.8,232.4 546.0,230.7 547.3,229.2 548.6,227.8 549.9,226.6 551.1,225.7 552.4,225.0 553.7,224.4 554.9,224.0 556.2,223.4 557.5,222.5 558.8,221.5 560.0,221.1 561.3,220.8 562.6,220.7 563.8,220.7 565.1,220.7 566.4,220.6 567.7,220.3 568.9,219.9 570.2,219.3 571.5,218.6 572.7,217.8 574.0,216.9 575.3,215.8 576.6,214.6 577.8,212.8 579.1,210.6 580.4,208.8 581.6,207.4 582.9,206.2 584.2,205.1 585.5,204.2 586.7,203.6 588.0,203.3 589.3,203.1 590.5,202.9 591.8,202.1 593.1,202.0 594.4,202.2 595.6,202.6 596.9,203.1 598.2,203.7 599.4,204.2 600.7,204.4 602.0,204.3 603.3,203.9 604.5,203.2 605.8,202.2 607.1,200.9 608.3,199.3 609.6,196.8 610.9,194.1 612.2,191.9 613.4,190.5 614.7,189.6 616.0,188.9 617.2,188.3 618.5,188.7 619.8,189.7 621.1,191.1 622.3,192.7 623.6,194.3 624.9,195.5 626.1,196.4 627.4,196.7 628.7,196.6 630.0,196.0 631.2,194.9 632.5,193.4 633.8,191.7 635.0,189.9 636.3,188.1 637.6,186.7 638.9,186.1 640.1,186.0 641.4,186.5 642.7,187.5 643.9,188.7 645.2,190.0 646.5,191.3 647.8,192.2 649.0,192.7 650.3,192.8 651.6,192.4 652.8,191.6 654.1,190.5 655.4,189.2 656.7,188.1 657.9,187.2 659.2,186.5 660.5,186.3 661.7,186.4 663.0,186.9 664.3,187.7 665.6,188.7 666.8,189.8 668.1,190.8 669.4,191.5 670.6,191.8 671.9,191.7 673.2,191.2 674.5,190.5 675.7,189.6 677.0,188.7 678.3,188.0 679.5,187.4 680.8,187.2 682.1,187.3 683.4,187.8 684.6,188.5 685.9,189.5 687.2,190.4 688.4,191.4 689.7,192.1 691.0,192.4 692.3,192.4 693.5,192.0 694.8,191.2 696.1,190.4 697.3,189.5 698.6,188.8 699.9,188.2 701.2,188.0 702.4,188.2 703.7,188.8 705.0,189.7 706.2,190.8 707.5,192.1 708.8,193.4 710.1,194.5 711.3,195.2 712.6,195.4 713.9,195.2 715.1,194.6 716.4,193.7 717.7,194.6 719.0,195.5 720.2,196.5 721.5,197.6 722.8,198.7 724.0,199.9 725.3,201.3 726.6,202.8 727.9,204.3 729.1,205.8 730.4,207.3 731.7,208.7 732.9,209.8 734.2,210.9 735.5,211.9 736.8,212.7 738.0,213.5 739.3,214.1 740.6,214.7 741.8,215.4 743.1,215.8 744.4,216.2 745.7,216.7 746.9,217.7 748.2,218.9 749.5,220.1 750.7,221.3 752.0,222.6 753.3,223.8 754.6,224.8 755.8,225.7 757.1,226.5 758.4,227.4 759.6,228.2 760.9,228.8 762.2,229.4 763.5,229.8 764.7,230.1 766.0,230.1"/>
<line x1="606" y1="42" x2="628" y2="42" stroke="#0f62fe" stroke-width="2.2"/>
<text x="634" y="46" font-family="Arial" font-size="12">speed_mps</text>
<polyline fill="none" stroke="#24a148" stroke-width="2.2" points="54.0,259.8 55.3,258.2 56.5,256.6 57.8,254.9 59.1,253.3 60.4,251.6 61.6,249.9 62.9,248.2 64.2,246.5 65.4,244.7 66.7,243.0 68.0,241.2 69.3,239.4 70.5,237.6 71.8,235.8 73.1,234.0 74.3,232.1 75.6,230.3 76.9,228.4 78.2,226.6 79.4,224.8 80.7,223.0 82.0,221.2 83.2,219.4 84.5,217.6 85.8,215.8 87.1,214.1 88.3,212.3 89.6,210.6 90.9,208.8 92.1,207.1 93.4,205.3 94.7,203.6 96.0,201.8 97.2,200.1 98.5,198.3 99.8,196.5 101.0,194.7 102.3,192.9 103.6,191.1 104.9,189.3 106.1,187.5 107.4,185.6 108.7,183.8 109.9,182.0 111.2,180.2 112.5,178.5 113.8,176.7 115.0,175.1 116.3,173.5 117.6,172.1 118.8,170.8 120.1,169.6 121.4,168.5 122.7,167.6 123.9,166.7 125.2,165.8 126.5,165.0 127.7,164.1 129.0,163.2 130.3,162.2 131.6,161.2 132.8,160.1 134.1,158.9 135.4,157.7 136.6,156.5 137.9,155.3 139.2,154.0 140.5,152.9 141.7,151.7 143.0,150.6 144.3,149.5 145.5,148.4 146.8,147.3 148.1,146.2 149.4,145.0 150.6,143.7 151.9,142.2 153.2,140.5 154.4,138.7 155.7,136.8 157.0,134.9 158.3,132.9 159.5,131.0 160.8,129.0 162.1,127.0 163.3,125.1 164.6,123.2 165.9,121.3 167.2,119.5 168.4,117.8 169.7,116.1 171.0,114.6 172.2,113.1 173.5,111.6 174.8,110.3 176.1,108.9 177.3,107.5 178.6,106.1 179.9,104.7 181.1,103.2 182.4,101.8 183.7,100.3 185.0,98.9 186.2,97.4 187.5,96.1 188.8,94.7 190.0,93.5 191.3,92.2 192.6,90.9 193.9,89.5 195.1,88.1 196.4,86.6 197.7,85.0 198.9,83.4 200.2,81.9 201.5,80.3 202.8,78.7 204.0,77.1 205.3,75.5 206.6,73.9 207.8,72.3 209.1,70.6 210.4,69.0 211.7,67.3 212.9,65.8 214.2,64.3 215.5,63.0 216.7,61.8 218.0,60.8 219.3,59.8 220.6,58.9 221.8,58.0 223.1,57.2 224.4,56.3 225.6,55.5 226.9,54.8 228.2,54.3 229.5,54.0 230.7,54.0 232.0,54.4 233.3,55.2 234.5,56.1 235.8,57.1 237.1,58.4 238.4,59.7 239.6,61.2 240.9,62.8 242.2,64.5 243.4,66.1 244.7,67.7 246.0,69.2 247.3,70.6 248.5,71.9 249.8,73.1 251.1,74.2 252.3,75.2 253.6,76.1 254.9,77.0 256.2,78.0 257.4,79.0 258.7,80.1 260.0,81.3 261.2,82.6 262.5,84.0 263.8,85.3 265.1,86.5 266.3,87.6 267.6,88.6 268.9,89.4 270.1,90.2 271.4,91.0 272.7,91.7 274.0,92.5 275.2,93.4 276.5,94.4 277.8,95.5 279.0,96.7 280.3,98.0 281.6,99.3 282.9,100.6 284.1,101.7 285.4,102.7 286.7,103.5 287.9,104.1 289.2,104.6 290.5,105.0 291.8,105.4 293.0,105.9 294.3,106.5 295.6,107.3 296.8,108.3 298.1,109.4 299.4,110.7 300.7,112.1 301.9,113.5 303.2,114.7 304.5,115.8 305.7,116.6 307.0,117.0 308.3,117.2 309.6,117.2 310.8,117.1 312.1,117.1 313.4,117.2 314.6,117.5 315.9,118.1 317.2,119.0 318.5,120.2 319.7,121.7 321.0,123.3 322.3,124.9 323.5,126.4 324.8,127.6 326.1,128.4 327.4,128.8 328.6,128.8 329.9,128.5 331.2,127.9 332.4,127.2 333.7,126.5 335.0,125.9 336.3,125.6 337.5,126.0 338.8,126.9 340.1,128.3 341.3,130.1 342.6,132.2 343.9,134.3 345.2,136.2 346.4,137.7 347.7,138.8 349.0,139.5 350.2,139.7 351.5,139.4 352.8,138.6 354.1,137.4 355.3,135.8 356.6,134.0 357.9,132.8 359.1,132.1 360.4,132.0 361.7,133.2 363.0,134.9 364.2,137.1 365.5,139.5 366.8,142.1 368.0,144.3 369.3,146.2 370.6,147.7 371.9,148.8 373.1,149.4 374.4,149.4 375.7,148.6 376.9,147.3 378.2,144.9 379.5,142.8 380.8,141.9 382.0,142.0 383.3,142.8 384.6,143.9 385.8,145.5 387.1,147.6 388.4,150.2 389.7,153.1 390.9,155.9 392.2,158.5 393.5,160.8 394.7,162.8 396.0,164.5 397.3,165.7 398.6,166.1 399.8,165.8 401.1,164.7 402.4,162.4 403.6,160.1 404.9,158.9 406.2,158.8 407.5,159.4 408.7,160.7 410.0,162.6 411.3,164.9 412.5,167.5 413.8,170.1 415.1,173.1 416.4,176.3 417.6,179.3 418.9,182.3 420.2,185.1 421.4,187.8 422.7,190.2 424.0,192.2 425.3,193.5 426.5,194.0 427.8,193.9 429.1,192.9 430.3,191.0 431.6,188.5 432.9,186.5 434.2,185.8 435.4,185.8 436.7,186.4 438.0,187.6 439.2,189.4 440.5,191.6 441.8,194.1 443.1,197.0 444.3,200.1 445.6,203.3 446.9,206.6 448.1,209.9 449.4,213.1 450.7,216.3 452.0,219.5 453.2,222.7 454.5,225.9 455.8,229.0 457.0,232.0 458.3,235.0 459.6,237.9 460.9,240.5 462.1,243.0 463.4,245.1 464.7,247.0 465.9,248.4 467.2,249.4 468.5,250.0 469.8,250.1 471.0,249.8 472.3,249.2 473.6,248.4 474.8,247.4 476.1,246.2 477.4,244.5 478.7,243.4 479.9,242.7 481.2,242.4 482.5,242.4 483.7,242.7 485.0,243.2 486.3,243.9 487.6,244.7 488.8,245.7 490.1,246.9 491.4,248.4 492.6,250.0 493.9,251.8 495.2,253.5 496.5,255.3 497.7,256.9 499.0,258.5 500.3,259.9 501.5,261.2 502.8,262.5 504.1,263.7 505.4,264.7 506.6,265.4 507.9,265.9 509.2,266.0 510.4,265.8 511.7,265.1 513.0,264.1 514.3,262.8 515.5,261.4 516.8,260.0 518.1,258.0 519.3,256.0 520.6,254.5 521.9,253.3 523.2,252.3 524.4,251.4 525.7,250.6 527.0,249.9 528.2,249.1 529.5,248.3 530.8,247.5 532.1,246.8 533.3,246.0 534.6,245.1 535.9,244.2 537.1,243.2 538.4,242.1 539.7,240.7 541.0,238.8 542.2,236.5 543.5,234.3 544.8,232.4 546.0,230.7 547.3,229.2 548.6,227.8 549.9,226.6 551.1,225.7 552.4,225.0 553.7,224.4 554.9,224.0 556.2,223.4 557.5,222.5 558.8,221.5 560.0,221.1 561.3,220.8 562.6,220.7 563.8,220.7 565.1,220.7 566.4,220.6 567.7,220.3 568.9,219.9 570.2,219.3 571.5,218.6 572.7,217.8 574.0,216.9 575.3,215.8 576.6,214.6 577.8,212.8 579.1,210.6 580.4,208.8 581.6,207.4 582.9,206.2 584.2,205.1 585.5,204.2 586.7,203.6 588.0,203.3 589.3,203.1 590.5,202.9 591.8,202.1 593.1,202.0 594.4,202.2 595.6,202.6 596.9,203.1 598.2,203.7 599.4,204.2 600.7,204.4 602.0,204.3 603.3,203.9 604.5,203.2 605.8,202.2 607.1,200.9 608.3,199.3 609.6,196.8 610.9,194.1 612.2,191.9 613.4,190.5 614.7,189.6 616.0,188.9 617.2,188.3 618.5,188.7 619.8,189.7 621.1,191.1 622.3,192.7 623.6,194.3 624.9,195.5 626.1,196.4 627.4,196.7 628.7,196.6 630.0,196.0 631.2,194.9 632.5,193.4 633.8,191.7 635.0,189.9 636.3,188.1 637.6,186.7 638.9,186.1 640.1,186.0 641.4,186.5 642.7,187.5 643.9,188.7 645.2,190.0 646.5,191.3 647.8,192.2 649.0,192.7 650.3,192.8 651.6,192.4 652.8,191.6 654.1,190.5 655.4,189.2 656.7,188.1 657.9,187.2 659.2,186.5 660.5,186.3 661.7,186.4 663.0,186.9 664.3,187.7 665.6,188.7 666.8,189.8 668.1,190.8 669.4,191.5 670.6,191.8 671.9,191.7 673.2,191.2 674.5,190.5 675.7,189.6 677.0,188.7 678.3,188.0 679.5,187.4 680.8,187.2 682.1,187.3 683.4,187.8 684.6,188.5 685.9,189.5 687.2,190.4 688.4,191.4 689.7,192.1 691.0,192.4 692.3,192.4 693.5,192.0 694.8,191.2 696.1,190.4 697.3,189.5 698.6,188.8 699.9,188.2 701.2,188.0 702.4,188.2 703.7,188.8 705.0,189.7 706.2,190.8 707.5,192.1 708.8,193.4 710.1,194.5 711.3,195.2 712.6,195.4 713.9,195.2 715.1,194.6 716.4,193.7 717.7,194.6 719.0,195.5 720.2,196.5 721.5,197.6 722.8,198.7 724.0,199.9 725.3,201.3 726.6,202.8 727.9,204.3 729.1,205.8 730.4,207.3 731.7,208.7 732.9,209.8 734.2,210.9 735.5,211.9 736.8,212.7 738.0,213.5 739.3,214.1 740.6,214.7 741.8,215.4 743.1,215.8 744.4,216.2 745.7,216.7 746.9,217.7 748.2,218.9 749.5,220.1 750.7,221.3 752.0,222.6 753.3,223.8 754.6,224.8 755.8,225.7 757.1,226.5 758.4,227.4 759.6,228.2 760.9,228.8 762.2,229.4 763.5,229.8 764.7,230.1 766.0,230.1"/>
<line x1="606" y1="60" x2="628" y2="60" stroke="#24a148" stroke-width="2.2"/>
<text x="634" y="64" font-family="Arial" font-size="12">airspeed_mps</text>
</svg>