<svg xmlns="http://www.w3.org/2000/svg" width="820" height="320" viewBox="0 0 820 320">
<rect width="100%" height="100%" fill="#ffffff"/>
<text x="54" y="28" font-family="Arial" font-size="18" font-weight="700">Thrust</text>
<line x1="54" y1="266" x2="766" y2="266" stroke="#1f2933"/>
<line x1="54" y1="54" x2="54" y2="266" stroke="#1f2933"/>
<text x="54" y="306" font-family="Arial" font-size="12">time (s)</text>
<text x="596" y="306" font-family="Arial" font-size="12">thrust (N)</text>
<text x="58" y="68" font-family="Arial" font-size="11">423</text>
<text x="58" y="260" font-family="Arial" font-size="11">0</text>
<polyline fill="none" stroke="#0f62fe" stroke-width="2.2" points="54.0,94.6 55.3,92.1 56.5,89.5 57.8,87.0 59.1,84.4 60.4,81.9 61.6,79.4 62.9,76.8 64.2,74.3 65.4,71.8 66.7,69.2 68.0,66.7 69.3,64.1 70.5,61.6 71.8,59.1 73.1,56.5 74.3,54.0 75.6,54.0 76.9,54.0 78.2,54.0 79.4,54.1 80.7,54.1 82.0,54.1 83.2,54.1 84.5,54.1 85.8,54.1 87.1,54.1 88.3,54.2 89.6,54.2 90.9,54.2 92.1,54.2 93.4,54.2 94.7,54.2 96.0,54.3 97.2,54.3 98.5,54.3 99.8,54.3 101.0,54.3 102.3,54.3 103.6,54.3 104.9,54.4 106.1,54.4 107.4,54.4 108.7,54.4 109.9,54.4 111.2,54.4 112.5,54.4 113.8,54.5 115.0,54.5 116.3,54.5 117.6,54.5 118.8,54.5 120.1,54.5 121.4,54.5 122.7,54.6 123.9,54.6 125.2,54.6 126.5,54.6 127.7,54.6 129.0,54.6 130.3,54.7 131.6,54.7 132.8,54.7 134.1,54.7 135.4,54.7 136.6,54.7 137.9,54.7 139.2,54.8 140.5,54.8 141.7,54.8 143.0,54.8 144.3,54.8 145.5,54.8 146.8,54.8 148.1,54.9 149.4,54.9 150.6,54.9 151.9,54.9 153.2,54.9 154.4,54.9 155.7,54.9 157.0,55.0 158.3,55.0 159.5,55.0 160.8,55.0 162.1,55.0 163.3,55.0 164.6,55.1 165.9,55.1 167.2,55.1 168.4,55.1 169.7,55.1 171.0,55.1 172.2,55.1 173.5,55.2 174.8,55.2 176.1,55.2 177.3,55.2 178.6,55.2 179.9,55.2 181.1,55.2 182.4,55.3 183.7,55.3 185.0,55.3 186.2,55.3 187.5,55.3 188.8,55.3 190.0,55.4 191.3,55.4 192.6,55.4 193.9,55.4 195.1,55.4 196.4,55.4 197.7,55.4 198.9,55.5 200.2,55.5 201.5,55.5 202.8,55.5 204.0,55.5 205.3,55.5 206.6,55.5 207.8,55.6 209.1,55.6 210.4,55.6 211.7,55.6 212.9,55.6 214.2,55.6 215.5,55.6 216.7,55.7 218.0,55.7 219.3,55.7 220.6,55.7 221.8,55.7 223.1,55.7 224.4,55.8 225.6,55.8 226.9,55.8 228.2,55.8 229.5,55.8 230.7,55.8 232.0,55.8 233.3,55.9 234.5,55.9 235.8,55.9 237.1,55.9 238.4,55.9 239.6,55.9 240.9,55.9 242.2,56.0 243.4,56.0 244.7,56.0 246.0,56.0 247.3,56.0 248.5,56.0 249.8,56.0 251.1,56.1 252.3,56.1 253.6,56.1 254.9,56.1 256.2,56.1 257.4,56.1 258.7,56.2 260.0,56.2 261.2,56.2 262.5,56.2 263.8,56.2 265.1,56.2 266.3,56.2 267.6,56.3 268.9,56.3 270.1,56.3 271.4,56.3 272.7,56.3 274.0,56.3 275.2,56.3 276.5,56.4 277.8,56.4 279.0,56.4 280.3,56.4 281.6,56.4 282.9,56.4 284.1,56.4 285.4,56.5 286.7,56.5 287.9,56.5 289.2,56.5 290.5,56.5 291.8,56.5 293.0,56.6 294.3,56.6 295.6,56.6 296.8,56.6 298.1,56.6 299.4,56.6 300.7,56.6 301.9,56.7 303.2,56.7 304.5,56.7 305.7,56.7 307.0,56.7 308.3,56.7 309.6,56.7 310.8,56.8 312.1,56.8 313.4,56.8 314.6,56.8 315.9,56.8 317.2,56.8 318.5,56.8 319.7,56.9 321.0,56.9 322.3,56.9 323.5,56.9 324.8,56.9 326.1,56.9 327.4,57.0 328.6,57.0 329.9,57.0 331.2,57.0 332.4,57.0 333.7,57.0 335.0,57.0 336.3,57.1 337.5,57.1 338.8,57.1 340.1,57.1 341.3,57.1 342.6,57.1 343.9,57.1 345.2,57.2 346.4,57.2 347.7,57.2 349.0,57.2 350.2,57.2 351.5,57.2 352.8,57.2 354.1,57.3 355.3,57.3 356.6,57.3 357.9,57.3 359.1,57.3 360.4,57.3 361.7,57.4 363.0,57.4 364.2,57.4 365.5,57.4 366.8,57.4 368.0,57.4 369.3,57.4 370.6,57.5 371.9,57.5 373.1,57.5 374.4,57.5 375.7,57.5 376.9,57.5 378.2,57.5 379.5,57.6 380.8,57.6 382.0,57.6 383.3,57.6 384.6,57.6 385.8,57.6 387.1,57.7 388.4,57.7 389.7,57.7 390.9,57.7 392.2,57.7 393.5,57.7 394.7,57.7 396.0,57.8 397.3,57.8 398.6,57.8 399.8,57.8 401.1,57.8 402.4,57.8 403.6,57.8 404.9,57.9 406.2,57.9 407.5,57.9 408.7,57.9 410.0,57.9 411.3,57.9 412.5,57.9 413.8,58.0 415.1,58.0 416.4,58.0 417.6,58.0 418.9,58.0 420.2,58.0 421.4,58.1 422.7,58.1 424.0,58.1 425.3,58.1 426.5,58.1 427.8,58.1 429.1,58.1 430.3,58.2 431.6,58.2 432.9,58.2 434.2,58.2 435.4,58.2 436.7,58.2 438.0,58.2 439.2,58.3 440.5,58.3 441.8,58.3 443.1,58.3 444.3,58.3 445.6,58.3 446.9,58.3 448.1,58.4 449.4,58.4 450.7,58.4 452.0,58.4 453.2,58.4 454.5,58.4 455.8,58.5 457.0,58.5 458.3,58.5 459.6,58.5 460.9,58.5 462.1,58.6 463.4,58.7 464.7,58.8 465.9,58.9 467.2,59.0 468.5,59.1 469.8,59.1 471.0,59.2 472.3,59.3 473.6,59.4 474.8,59.5 476.1,59.6 477.4,59.7 478.7,59.8 479.9,59.9 481.2,60.0 482.5,60.0 483.7,60.1 485.0,60.2 486.3,60.3 487.6,60.4 488.8,60.5 490.1,60.6 491.4,60.7 492.6,60.8 493.9,60.9 495.2,60.9 496.5,61.0 497.7,61.1 499.0,61.2 500.3,61.3 501.5,61.4 502.8,61.5 504.1,61.6 505.4,61.7 506.6,61.8 507.9,61.8 509.2,61.9 510.4,62.0 511.7,62.1 513.0,62.2 514.3,62.3 515.5,62.4 516.8,62.5 518.1,62.6 519.3,62.7 520.6,62.8 521.9,62.8 523.2,62.9 524.4,63.0 525.7,63.1 527.0,63.2 528.2,63.3 529.5,63.4 530.8,63.5 532.1,63.6 533.3,63.7 534.6,63.7 535.9,63.8 537.1,63.9 538.4,64.0 539.7,64.1 541.0,64.2 542.2,64.3 543.5,64.4 544.8,64.5 546.0,64.6 547.3,64.6 548.6,64.7 549.9,64.8 551.1,64.9 552.4,65.0 553.7,65.1 554.9,65.2 556.2,65.3 557.5,65.4 558.8,65.5 560.0,65.5 561.3,65.6 562.6,65.7 563.8,65.8 565.1,65.9 566.4,66.0 567.7,66.1 568.9,66.2 570.2,66.3 571.5,66.4 572.7,66.4 574.0,66.5 575.3,66.6 576.6,66.7 577.8,66.8 579.1,66.9 580.4,67.0 581.6,67.1 582.9,67.2 584.2,67.3 585.5,67.4 586.7,67.4 588.0,67.5 589.3,67.6 590.5,67.7 591.8,67.8 593.1,67.9 594.4,68.0 595.6,68.1 596.9,68.2 598.2,68.3 599.4,68.3 600.7,68.4 602.0,68.5 603.3,68.6 604.5,68.7 605.8,68.8 607.1,68.9 608.3,69.0 609.6,69.1 610.9,69.2 612.2,69.2 613.4,69.3 614.7,69.4 616.0,69.5 617.2,69.6 618.5,69.7 619.8,69.8 621.1,69.9 622.3,70.0 623.6,70.1 624.9,70.1 626.1,70.2 627.4,70.3 628.7,70.4 630.0,70.5 631.2,70.6 632.5,70.7 633.8,70.8 635.0,70.9 636.3,71.0 637.6,71.1 638.9,71.1 640.1,71.2 641.4,71.3 642.7,71.4 643.9,71.5 645.2,71.6 646.5,71.7 647.8,71.8 649.0,71.9 650.3,72.0 651.6,72.0 652.8,72.1 654.1,72.2 655.4,72.3 656.7,72.4 657.9,72.5 659.2,72.6 660.5,72.7 661.7,72.8 663.0,72.9 664.3,72.9 665.6,73.0 666.8,73.1 668.1,73.2 669.4,73.3 670.6,73.4 671.9,73.5 673.2,73.6 674.5,73.7 675.7,73.8 677.0,73.8 678.3,73.9 679.5,74.0 680.8,74.1 682.1,74.2 683.4,74.3 684.6,74.4 685.9,74.5 687.2,74.6 688.4,74.7 689.7,74.7 691.0,74.8 692.3,74.9 693.5,75.0 694.8,75.1 696.1,75.2 697.3,75.3 698.6,75.4 699.9,75.5 701.2,75.6 702.4,75.7 703.7,75.7 705.0,75.8 706.2,75.9 707.5,76.0 708.8,76.1 710.1,76.2 711.3,76.3 712.6,76.4 713.9,76.5 715.1,76.6 716.4,266.0 717.7,266.0 719.0,266.0 720.2,266.0 721.5,266.0 722.8,266.0 724.0,266.0 725.3,266.0 726.6,266.0 727.9,266.0 729.1,266.0 730.4,266.0 731.7,266.0 732.9,266.0 734.2,266.0 735.5,266.0 736.8,266.0 738.0,266.0 739.3,266.0 740.6,266.0 741.8,266.0 743.1,266.0 744.4,266.0 745.7,266.0 746.9,266.0 748.2,266.0 749.5,266.0 750.7,266.0 752.0,266.0 753.3,266.0 754.6,266.0 755.8,266.0 757.1,266.0 758.4,266.0 759.6,266.0 760.9,266.0 762.2,266.0 763.5,266.0 764.7,266.0 766.0,266.0"/>
<line x1="606" y1="42" x2="628" y2="42" stroke="#0f62fe" stroke-width="2.2"/>
<text x="634" y="46" font-family="Arial" font-size="12">thrust_n</text>
</svg>