<svg xmlns="http://www.w3.org/2000/svg" width="820" height="320" viewBox="0 0 820 320">
<rect width="100%" height="100%" fill="#ffffff"/>
<text x="54" y="28" font-family="Arial" font-size="18" font-weight="700">Barometer vs Truth</text>
<line x1="54" y1="266" x2="766" y2="266" stroke="#1f2933"/>
<line x1="54" y1="54" x2="54" y2="266" stroke="#1f2933"/>
<text x="54" y="306" font-family="Arial" font-size="12">time (s)</text>
<text x="596" y="306" font-family="Arial" font-size="12">altitude (m)</text>
<text x="58" y="68" font-family="Arial" font-size="11">1.02e+03</text>
<text x="58" y="260" font-family="Arial" font-size="11">546</text>
<polyline fill="none" stroke="#0f62fe" stroke-width="2.2" points="54.0,64.6 55.3,64.4 56.5,64.3 57.8,64.1 59.1,64.0 60.4,63.8 61.6,63.7 62.9,63.5 64.2,63.4 65.4,63.2 66.7,63.1 68.0,63.0 69.3,62.8 70.5,62.7 71.8,62.5 73.1,62.4 74.3,62.3 75.6,62.1 76.9,62.0 78.2,61.8 79.4,61.7 80.7,61.5 82.0,61.4 83.2,61.3 84.5,61.1 85.8,61.0 87.1,60.8 88.3,60.7 89.6,60.5 90.9,60.4 92.1,60.2 93.4,60.1 94.7,59.9 96.0,59.8 97.2,59.6 98.5,59.5 99.8,59.3 101.0,59.2 102.3,59.0 103.6,58.8 104.9,58.7 106.1,58.5 107.4,58.4 108.7,58.2 109.9,58.1 111.2,57.9 112.5,57.7 113.8,57.6 115.0,57.4 116.3,57.3 117.6,57.1 118.8,56.9 120.1,56.8 121.4,56.6 122.7,56.5 123.9,56.3 125.2,56.2 126.5,56.0 127.7,55.9 129.0,55.7 130.3,55.6 131.6,55.5 132.8,55.4 134.1,55.3 135.4,55.2 136.6,55.1 137.9,55.0 139.2,54.9 140.5,54.9 141.7,54.8 143.0,54.8 144.3,54.7 145.5,54.7 146.8,54.6 148.1,54.6 149.4,54.6 150.6,54.5 151.9,54.5 153.2,54.5 154.4,54.5 155.7,54.5 157.0,54.4 158.3,54.4 159.5,54.4 160.8,54.4 162.1,54.4 163.3,54.4 164.6,54.3 165.9,54.3 167.2,54.3 168.4,54.3 169.7,54.3 171.0,54.3 172.2,54.3 173.5,54.3 174.8,54.3 176.1,54.3 177.3,54.3 178.6,54.3 179.9,54.4 181.1,54.4 182.4,54.5 183.7,54.5 185.0,54.6 186.2,54.6 187.5,54.7 188.8,54.8 190.0,54.9 191.3,55.0 192.6,55.1 193.9,55.2 195.1,55.3 196.4,55.4 197.7,55.5 198.9,55.6 200.2,55.7 201.5,55.8 202.8,55.9 204.0,56.0 205.3,56.1 206.6,56.2 207.8,56.3 209.1,56.4 210.4,56.4 211.7,56.5 212.9,56.6 214.2,56.7 215.5,56.9 216.7,57.0 218.0,57.1 219.3,57.2 220.6,57.4 221.8,57.6 223.1,57.7 224.4,57.9 225.6,58.1 226.9,58.3 228.2,58.5 229.5,58.6 230.7,58.8 232.0,59.0 233.3,59.2 234.5,59.4 235.8,59.6 237.1,59.8 238.4,59.9 239.6,60.1 240.9,60.2 242.2,60.4 243.4,60.6 244.7,60.8 246.0,61.0 247.3,61.2 248.5,61.4 249.8,61.6 251.1,61.8 252.3,62.0 253.6,62.3 254.9,62.5 256.2,62.7 257.4,62.9 258.7,63.1 260.0,63.3 261.2,63.5 262.5,63.7 263.8,63.9 265.1,64.1 266.3,64.4 267.6,64.6 268.9,64.8 270.1,65.1 271.4,65.4 272.7,65.6 274.0,65.9 275.2,66.1 276.5,66.4 277.8,66.7 279.0,66.9 280.3,67.1 281.6,67.4 282.9,67.6 284.1,67.9 285.4,68.1 286.7,68.4 287.9,68.6 289.2,68.9 290.5,69.2 291.8,69.5 293.0,69.8 294.3,70.1 295.6,70.4 296.8,70.7 298.1,71.0 299.4,71.3 300.7,71.5 301.9,71.8 303.2,72.1 304.5,72.4 305.7,72.6 307.0,72.9 308.3,73.2 309.6,73.5 310.8,73.9 312.1,74.2 313.4,74.5 314.6,74.9 315.9,75.2 317.2,75.5 318.5,75.9 319.7,76.2 321.0,76.5 322.3,76.8 323.5,77.1 324.8,77.5 326.1,77.8 327.4,78.1 328.6,78.4 329.9,78.7 331.2,79.1 332.4,79.4 333.7,79.8 335.0,80.2 336.3,80.6 337.5,80.9 338.8,81.3 340.1,81.7 341.3,82.0 342.6,82.4 343.9,82.8 345.2,83.1 346.4,83.5 347.7,83.8 349.0,84.2 350.2,84.5 351.5,84.9 352.8,85.2 354.1,85.6 355.3,86.0 356.6,86.4 357.9,86.8 359.1,87.2 360.4,87.6 361.7,88.0 363.0,88.4 364.2,88.8 365.5,89.1 366.8,89.5 368.0,89.9 369.3,90.3 370.6,90.6 371.9,91.0 373.1,91.3 374.4,91.7 375.7,92.1 376.9,92.5 378.2,92.8 379.5,93.2 380.8,93.6 382.0,94.0 383.3,94.4 384.6,94.8 385.8,95.1 387.1,95.5 388.4,95.9 389.7,96.2 390.9,96.6 392.2,96.9 393.5,97.3 394.7,97.6 396.0,98.0 397.3,98.3 398.6,98.7 399.8,99.0 401.1,99.3 402.4,99.7 403.6,100.0 404.9,100.4 406.2,100.8 407.5,101.1 408.7,101.5 410.0,101.8 411.3,102.2 412.5,102.5 413.8,102.8 415.1,103.2 416.4,103.5 417.6,103.9 418.9,104.2 420.2,104.6 421.4,104.9 422.7,105.2 424.0,105.6 425.3,105.9 426.5,106.2 427.8,106.5 429.1,106.9 430.3,107.2 431.6,107.5 432.9,107.8 434.2,108.2 435.4,108.5 436.7,108.9 438.0,109.2 439.2,109.6 440.5,109.9 441.8,110.3 443.1,110.7 444.3,111.0 445.6,111.4 446.9,111.8 448.1,112.2 449.4,112.5 450.7,112.9 452.0,113.3 453.2,113.6 454.5,114.0 455.8,114.4 457.0,114.7 458.3,115.1 459.6,115.5 460.9,115.9 462.1,116.2 463.4,116.6 464.7,117.0 465.9,117.4 467.2,117.7 468.5,118.1 469.8,118.5 471.0,118.9 472.3,119.3 473.6,119.6 474.8,120.0 476.1,120.4 477.4,120.7 478.7,121.1 479.9,121.5 481.2,121.8 482.5,122.2 483.7,122.6 485.0,122.9 486.3,123.3 487.6,123.7 488.8,124.0 490.1,124.4 491.4,124.8 492.6,125.1 493.9,125.5 495.2,125.8 496.5,126.2 497.7,126.5 499.0,126.9 500.3,127.2 501.5,127.6 502.8,127.9 504.1,128.3 505.4,128.6 506.6,129.0 507.9,129.3 509.2,129.7 510.4,130.0 511.7,130.4 513.0,130.7 514.3,131.1 515.5,131.5 516.8,131.8 518.1,132.2 519.3,132.6 520.6,133.0 521.9,133.4 523.2,133.8 524.4,134.3 525.7,134.7 527.0,135.1 528.2,135.6 529.5,136.1 530.8,136.5 532.1,137.0 533.3,137.5 534.6,138.0 535.9,138.5 537.1,139.0 538.4,139.6 539.7,140.1 541.0,140.7 542.2,141.2 543.5,141.8 544.8,142.4 546.0,142.9 547.3,143.5 548.6,144.1 549.9,144.7 551.1,145.2 552.4,145.8 553.7,146.4 554.9,146.9 556.2,147.5 557.5,148.0 558.8,148.6 560.0,149.2 561.3,149.7 562.6,150.2 563.8,150.8 565.1,151.3 566.4,151.8 567.7,152.4 568.9,152.9 570.2,153.4 571.5,153.9 572.7,154.4 574.0,155.0 575.3,155.5 576.6,156.0 577.8,156.5 579.1,157.0 580.4,157.5 581.6,158.0 582.9,158.5 584.2,159.0 585.5,159.6 586.7,160.1 588.0,160.6 589.3,161.2 590.5,161.7 591.8,162.3 593.1,162.8 594.4,163.4 595.6,164.0 596.9,164.5 598.2,165.1 599.4,165.7 600.7,166.3 602.0,166.9 603.3,167.5 604.5,168.1 605.8,168.7 607.1,169.3 608.3,169.9 609.6,170.5 610.9,171.1 612.2,171.8 613.4,172.4 614.7,173.0 616.0,173.7 617.2,174.3 618.5,175.0 619.8,175.7 621.1,176.4 622.3,177.0 623.6,177.7 624.9,178.4 626.1,179.1 627.4,179.8 628.7,180.5 630.0,181.2 631.2,181.9 632.5,182.6 633.8,183.4 635.0,184.1 636.3,184.8 637.6,185.5 638.9,186.2 640.1,186.9 641.4,187.6 642.7,188.4 643.9,189.1 645.2,189.8 646.5,190.6 647.8,191.3 649.0,192.0 650.3,192.8 651.6,193.6 652.8,194.3 654.1,195.1 655.4,195.8 656.7,196.6 657.9,197.3 659.2,198.1 660.5,198.8 661.7,199.6 663.0,200.3 664.3,201.1 665.6,201.8 666.8,202.6 668.1,203.4 669.4,204.1 670.6,204.9 671.9,205.7 673.2,206.5 674.5,207.3 675.7,208.1 677.0,208.9 678.3,209.7 679.5,210.4 680.8,211.2 682.1,212.0 683.4,212.8 684.6,213.5 685.9,214.3 687.2,215.1 688.4,215.9 689.7,216.7 691.0,217.5 692.3,218.3 693.5,219.1 694.8,219.9 696.1,220.7 697.3,221.6 698.6,222.4 699.9,223.2 701.2,224.0 702.4,224.8 703.7,225.6 705.0,226.4 706.2,227.2 707.5,228.0 708.8,228.8 710.1,229.6 711.3,230.4 712.6,231.3 713.9,232.1 715.1,232.9 716.4,233.8 717.7,234.6 719.0,235.4 720.2,236.3 721.5,237.1 722.8,237.9 724.0,238.8 725.3,239.6 726.6,240.4 727.9,241.3 729.1,242.1 730.4,242.9 731.7,243.7 732.9,244.6 734.2,245.4 735.5,246.2 736.8,247.0 738.0,247.8 739.3,248.7 740.6,249.5 741.8,250.3 743.1,251.2 744.4,252.0 745.7,252.8 746.9,253.6 748.2,254.5 749.5,255.3 750.7,256.1 752.0,256.9 753.3,257.8 754.6,258.6 755.8,259.4 757.1,260.2 758.4,261.0 759.6,261.9 760.9,262.7 762.2,263.5 763.5,264.3 764.7,265.2 766.0,266.0"/>
<line x1="606" y1="42" x2="628" y2="42" stroke="#0f62fe" stroke-width="2.2"/>
<text x="634" y="46" font-family="Arial" font-size="12">altitude_m</text>
<polyline fill="none" stroke="#24a148" stroke-width="2.2" points="54.0,64.9 55.3,64.9 56.5,64.6 57.8,64.6 59.1,64.5 60.4,64.5 61.6,64.0 62.9,64.0 64.2,63.7 65.4,63.7 66.7,62.5 68.0,62.5 69.3,62.6 70.5,62.6 71.8,62.2 73.1,62.2 74.3,61.8 75.6,61.8 76.9,62.3 78.2,62.3 79.4,62.0 80.7,62.0 82.0,61.7 83.2,61.7 84.5,60.6 85.8,60.6 87.1,61.4 88.3,61.4 89.6,60.8 90.9,60.8 92.1,59.7 93.4,59.7 94.7,59.2 96.0,59.2 97.2,59.8 98.5,59.8 99.8,59.0 101.0,59.0 102.3,59.2 103.6,59.2 104.9,58.3 106.1,58.3 107.4,58.4 108.7,58.4 109.9,58.5 111.2,58.5 112.5,57.6 113.8,57.6 115.0,57.4 116.3,57.4 117.6,57.1 118.8,57.1 120.1,56.5 121.4,56.5 122.7,56.6 123.9,56.6 125.2,56.1 126.5,56.1 127.7,56.0 129.0,56.0 130.3,55.6 131.6,55.6 132.8,55.3 134.1,55.3 135.4,54.9 136.6,54.9 137.9,55.4 139.2,55.4 140.5,55.0 141.7,55.0 143.0,54.7 144.3,54.7 145.5,54.3 146.8,54.3 148.1,54.5 149.4,54.5 150.6,54.3 151.9,54.3 153.2,55.0 154.4,55.0 155.7,54.6 157.0,54.6 158.3,54.3 159.5,54.3 160.8,54.6 162.1,54.6 163.3,54.4 164.6,54.4 165.9,54.4 167.2,54.4 168.4,54.3 169.7,54.3 171.0,54.0 172.2,54.0 173.5,54.3 174.8,54.3 176.1,54.1 177.3,54.1 178.6,54.9 179.9,54.9 181.1,54.0 182.4,54.0 183.7,54.4 185.0,54.4 186.2,54.1 187.5,54.1 188.8,54.8 190.0,54.8 191.3,54.6 192.6,54.6 193.9,54.9 195.1,54.9 196.4,55.1 197.7,55.1 198.9,55.4 200.2,55.4 201.5,55.9 202.8,55.9 204.0,56.3 205.3,56.3 206.6,56.0 207.8,56.0 209.1,56.5 210.4,56.5 211.7,56.6 212.9,56.6 214.2,56.7 215.5,56.7 216.7,57.1 218.0,57.1 219.3,56.8 220.6,56.8 221.8,56.8 223.1,56.8 224.4,57.7 225.6,57.7 226.9,58.3 228.2,58.3 229.5,58.1 230.7,58.1 232.0,59.2 233.3,59.2 234.5,60.0 235.8,60.0 237.1,59.5 238.4,59.5 239.6,59.9 240.9,59.9 242.2,59.9 243.4,59.9 244.7,60.4 246.0,60.4 247.3,60.9 248.5,60.9 249.8,62.1 251.1,62.1 252.3,61.9 253.6,61.9 254.9,62.7 256.2,62.7 257.4,63.2 258.7,63.2 260.0,63.2 261.2,63.2 262.5,63.8 263.8,63.8 265.1,63.9 266.3,63.9 267.6,64.7 268.9,64.7 270.1,65.1 271.4,65.1 272.7,65.9 274.0,65.9 275.2,66.7 276.5,66.7 277.8,66.8 279.0,66.8 280.3,67.0 281.6,67.0 282.9,67.5 284.1,67.5 285.4,68.6 286.7,68.6 287.9,68.5 289.2,68.5 290.5,69.0 291.8,69.0 293.0,69.6 294.3,69.6 295.6,70.7 296.8,70.7 298.1,71.4 299.4,71.4 300.7,71.1 301.9,71.1 303.2,71.9 304.5,71.9 305.7,72.3 307.0,72.3 308.3,73.6 309.6,73.6 310.8,74.3 312.1,74.3 313.4,74.1 314.6,74.1 315.9,75.3 317.2,75.3 318.5,75.8 319.7,75.8 321.0,76.4 322.3,76.4 323.5,76.8 324.8,76.8 326.1,77.7 327.4,77.7 328.6,78.6 329.9,78.6 331.2,79.5 332.4,79.5 333.7,79.4 335.0,79.4 336.3,81.0 337.5,81.0 338.8,81.2 340.1,81.2 341.3,82.2 342.6,82.2 343.9,82.9 345.2,82.9 346.4,83.9 347.7,83.9 349.0,84.1 350.2,84.1 351.5,84.8 352.8,84.8 354.1,85.2 355.3,85.2 356.6,86.6 357.9,86.6 359.1,87.5 360.4,87.5 361.7,87.8 363.0,87.8 364.2,88.6 365.5,88.6 366.8,89.9 368.0,89.9 369.3,90.1 370.6,90.1 371.9,90.8 373.1,90.8 374.4,91.6 375.7,91.6 376.9,92.5 378.2,92.5 379.5,93.4 380.8,93.4 382.0,94.1 383.3,94.1 384.6,94.6 385.8,94.6 387.1,95.4 388.4,95.4 389.7,96.3 390.9,96.3 392.2,97.1 393.5,97.1 394.7,97.4 396.0,97.4 397.3,98.1 398.6,98.1 399.8,98.8 401.1,98.8 402.4,99.7 403.6,99.7 404.9,100.1 406.2,100.1 407.5,101.4 408.7,101.4 410.0,101.9 411.3,101.9 412.5,102.1 413.8,102.1 415.1,102.8 416.4,102.8 417.6,103.5 418.9,103.5 420.2,104.4 421.4,104.4 422.7,105.4 424.0,105.4 425.3,106.2 426.5,106.2 427.8,105.8 429.1,105.8 430.3,107.7 431.6,107.7 432.9,107.1 434.2,107.1 435.4,108.6 436.7,108.6 438.0,108.7 439.2,108.7 440.5,110.0 441.8,110.0 443.1,111.3 444.3,111.3 445.6,111.8 446.9,111.8 448.1,112.3 449.4,112.3 450.7,112.7 452.0,112.7 453.2,113.0 454.5,113.0 455.8,114.8 457.0,114.8 458.3,114.8 459.6,114.8 460.9,115.8 462.1,115.8 463.4,116.8 464.7,116.8 465.9,116.8 467.2,116.8 468.5,118.5 469.8,118.5 471.0,119.5 472.3,119.5 473.6,119.1 474.8,119.1 476.1,120.8 477.4,120.8 478.7,120.7 479.9,120.7 481.2,121.2 482.5,121.2 483.7,122.5 485.0,122.5 486.3,123.0 487.6,123.0 488.8,123.2 490.1,123.2 491.4,124.8 492.6,124.8 493.9,125.3 495.2,125.3 496.5,126.0 497.7,126.0 499.0,127.1 500.3,127.1 501.5,127.7 502.8,127.7 504.1,128.1 505.4,128.1 506.6,128.9 507.9,128.9 509.2,130.5 510.4,130.5 511.7,130.4 513.0,130.4 514.3,130.6 515.5,130.6 516.8,131.7 518.1,131.7 519.3,133.3 520.6,133.3 521.9,133.0 523.2,133.0 524.4,134.0 525.7,134.0 527.0,135.7 528.2,135.7 529.5,136.2 530.8,136.2 532.1,137.1 533.3,137.1 534.6,137.9 535.9,137.9 537.1,138.9 538.4,138.9 539.7,139.6 541.0,139.6 542.2,140.9 543.5,140.9 544.8,142.3 546.0,142.3 547.3,143.7 548.6,143.7 549.9,144.8 551.1,144.8 552.4,146.2 553.7,146.2 554.9,147.2 556.2,147.2 557.5,148.1 558.8,148.1 560.0,149.2 561.3,149.2 562.6,149.8 563.8,149.8 565.1,150.7 566.4,150.7 567.7,152.3 568.9,152.3 570.2,153.4 571.5,153.4 572.7,155.2 574.0,155.2 575.3,155.7 576.6,155.7 577.8,156.5 579.1,156.5 580.4,157.2 581.6,157.2 582.9,158.6 584.2,158.6 585.5,159.2 586.7,159.2 588.0,161.1 589.3,161.1 590.5,162.0 591.8,162.0 593.1,163.0 594.4,163.0 595.6,163.8 596.9,163.8 598.2,164.9 599.4,164.9 600.7,165.8 602.0,165.8 603.3,168.0 604.5,168.0 605.8,169.0 607.1,169.0 608.3,169.5 609.6,169.5 610.9,171.1 612.2,171.1 613.4,172.4 614.7,172.4 616.0,173.6 617.2,173.6 618.5,175.4 619.8,175.4 621.1,176.8 622.3,176.8 623.6,177.6 624.9,177.6 626.1,179.2 627.4,179.2 628.7,180.5 630.0,180.5 631.2,182.4 632.5,182.4 633.8,183.7 635.0,183.7 636.3,184.6 637.6,184.6 638.9,186.0 640.1,186.0 641.4,187.0 642.7,187.0 643.9,188.5 645.2,188.5 646.5,190.5 647.8,190.5 649.0,192.8 650.3,192.8 651.6,193.6 652.8,193.6 654.1,194.4 655.4,194.4 656.7,197.5 657.9,197.5 659.2,198.3 660.5,198.3 661.7,199.7 663.0,199.7 664.3,201.1 665.6,201.1 666.8,202.3 668.1,202.3 669.4,204.5 670.6,204.5 671.9,205.5 673.2,205.5 674.5,206.7 675.7,206.7 677.0,208.5 678.3,208.5 679.5,210.4 680.8,210.4 682.1,211.6 683.4,211.6 684.6,213.9 685.9,213.9 687.2,214.6 688.4,214.6 689.7,216.7 691.0,216.7 692.3,218.2 693.5,218.2 694.8,220.4 696.1,220.4 697.3,221.5 698.6,221.5 699.9,223.4 701.2,223.4 702.4,225.0 703.7,225.0 705.0,226.0 706.2,226.0 707.5,227.8 708.8,227.8 710.1,229.5 711.3,229.5 712.6,230.9 713.9,230.9 715.1,233.2 716.4,233.2 717.7,234.0 719.0,234.0 720.2,236.7 721.5,236.7 722.8,237.3 724.0,237.3 725.3,239.4 726.6,239.4 727.9,241.3 729.1,241.3 730.4,243.0 731.7,243.0 732.9,244.9 734.2,244.9 735.5,246.2 736.8,246.2 738.0,248.1 739.3,248.1 740.6,249.3 741.8,249.3 743.1,250.9 744.4,250.9 745.7,252.2 746.9,252.2 748.2,255.2 749.5,255.2 750.7,255.9 752.0,255.9 753.3,258.2 754.6,258.2 755.8,259.2 757.1,259.2 758.4,261.3 759.6,261.3 760.9,262.9 762.2,262.9 763.5,264.5 764.7,264.5 766.0,265.8"/>
<line x1="606" y1="60" x2="628" y2="60" stroke="#24a148" stroke-width="2.2"/>
<text x="634" y="64" font-family="Arial" font-size="12">baro_alt_m</text>
</svg>