<svg xmlns="http://www.w3.org/2000/svg" width="820" height="320" viewBox="0 0 820 320">
<rect width="100%" height="100%" fill="#ffffff"/>
<text x="54" y="28" font-family="Arial" font-size="18" font-weight="700">Velocity X</text>
<line x1="54" y1="266" x2="766" y2="266" stroke="#1f2933"/>
<line x1="54" y1="54" x2="54" y2="266" stroke="#1f2933"/>
<text x="54" y="306" font-family="Arial" font-size="12">time (s)</text>
<text x="596" y="306" font-family="Arial" font-size="12">vx (m/s)</text>
<text x="58" y="68" font-family="Arial" font-size="11">261</text>
<text x="58" y="260" font-family="Arial" font-size="11">85</text>
<polyline fill="none" stroke="#0f62fe" stroke-width="2.2" points="54.0,266.0 55.2,265.4 56.4,264.8 57.6,264.1 58.7,263.5 59.9,262.9 61.1,262.2 62.3,261.5 63.5,260.9 64.7,260.2 65.9,259.5 67.1,258.8 68.2,258.1 69.4,257.3 70.6,256.6 71.8,255.9 73.0,255.1 74.2,254.4 75.4,253.7 76.5,253.0 77.7,252.2 78.9,251.5 80.1,250.8 81.3,250.1 82.5,249.3 83.7,248.6 84.9,247.9 86.0,247.2 87.2,246.5 88.4,245.7 89.6,245.0 90.8,244.3 92.0,243.6 93.2,242.9 94.3,242.2 95.5,241.5 96.7,240.7 97.9,240.0 99.1,239.3 100.3,238.6 101.5,237.9 102.7,237.2 103.8,236.5 105.0,235.8 106.2,235.1 107.4,234.4 108.6,233.7 109.8,233.0 111.0,232.3 112.1,231.6 113.3,230.9 114.5,230.2 115.7,229.5 116.9,228.8 118.1,228.2 119.3,227.5 120.5,226.8 121.6,226.1 122.8,225.4 124.0,224.7 125.2,224.0 126.4,223.3 127.6,222.7 128.8,222.0 129.9,221.3 131.1,220.6 132.3,219.9 133.5,219.3 134.7,218.6 135.9,217.9 137.1,217.2 138.3,216.6 139.4,215.9 140.6,215.2 141.8,214.5 143.0,213.9 144.2,213.2 145.4,212.5 146.6,211.9 147.7,211.2 148.9,210.5 150.1,209.9 151.3,209.2 152.5,208.5 153.7,207.9 154.9,207.2 156.1,206.6 157.2,205.9 158.4,205.3 159.6,204.6 160.8,204.0 162.0,203.3 163.2,202.7 164.4,202.0 165.5,201.4 166.7,200.7 167.9,200.1 169.1,199.4 170.3,198.8 171.5,198.2 172.7,197.5 173.9,196.9 175.0,196.2 176.2,195.6 177.4,195.0 178.6,194.4 179.8,193.7 181.0,193.1 182.2,192.5 183.3,191.9 184.5,191.2 185.7,190.6 186.9,190.0 188.1,189.4 189.3,188.8 190.5,188.1 191.7,187.5 192.8,186.9 194.0,186.3 195.2,185.7 196.4,185.1 197.6,184.5 198.8,183.9 200.0,183.3 201.1,182.7 202.3,182.1 203.5,181.5 204.7,180.9 205.9,180.3 207.1,179.7 208.3,179.1 209.5,178.5 210.6,178.0 211.8,177.4 213.0,176.8 214.2,176.2 215.4,175.6 216.6,175.0 217.8,174.5 218.9,173.9 220.1,173.3 221.3,172.7 222.5,172.2 223.7,171.6 224.9,171.1 226.1,170.5 227.3,169.9 228.4,169.4 229.6,168.8 230.8,168.2 232.0,167.7 233.2,167.1 234.4,166.6 235.6,166.0 236.7,165.5 237.9,164.9 239.1,164.4 240.3,163.9 241.5,163.3 242.7,162.8 243.9,162.3 245.1,161.7 246.2,161.2 247.4,160.7 248.6,160.2 249.8,159.6 251.0,159.1 252.2,158.6 253.4,158.1 254.5,157.6 255.7,157.1 256.9,156.5 258.1,156.0 259.3,155.5 260.5,155.0 261.7,154.5 262.9,154.0 264.0,153.5 265.2,153.0 266.4,152.5 267.6,152.1 268.8,151.6 270.0,151.1 271.2,150.6 272.3,150.1 273.5,149.6 274.7,149.2 275.9,148.7 277.1,148.2 278.3,147.7 279.5,147.3 280.7,146.8 281.8,146.3 283.0,145.8 284.2,145.4 285.4,144.9 286.6,144.5 287.8,144.0 289.0,143.5 290.1,143.1 291.3,142.6 292.5,142.1 293.7,141.7 294.9,141.2 296.1,140.8 297.3,140.3 298.5,139.8 299.6,139.4 300.8,138.9 302.0,138.4 303.2,138.0 304.4,137.5 305.6,137.1 306.8,136.6 307.9,136.2 309.1,135.7 310.3,135.3 311.5,134.8 312.7,134.3 313.9,133.9 315.1,133.4 316.3,132.9 317.4,132.5 318.6,132.0 319.8,131.6 321.0,131.1 322.2,130.7 323.4,130.2 324.6,129.8 325.7,129.3 326.9,128.9 328.1,128.4 329.3,128.0 330.5,127.5 331.7,127.0 332.9,126.6 334.1,126.1 335.2,125.7 336.4,125.2 337.6,124.7 338.8,124.3 340.0,123.8 341.2,123.4 342.4,122.9 343.5,122.5 344.7,122.0 345.9,121.6 347.1,121.1 348.3,120.7 349.5,120.2 350.7,119.8 351.9,119.3 353.0,118.9 354.2,118.4 355.4,118.0 356.6,117.5 357.8,117.1 359.0,116.7 360.2,116.2 361.3,115.8 362.5,115.3 363.7,114.9 364.9,114.4 366.1,114.0 367.3,113.5 368.5,113.1 369.7,112.7 370.8,112.2 372.0,111.8 373.2,111.3 374.4,110.9 375.6,110.4 376.8,110.0 378.0,109.5 379.1,109.1 380.3,108.6 381.5,108.2 382.7,107.7 383.9,107.3 385.1,106.8 386.3,106.4 387.5,106.0 388.6,105.5 389.8,105.1 391.0,104.7 392.2,104.2 393.4,103.8 394.6,103.3 395.8,102.9 396.9,102.5 398.1,102.1 399.3,101.6 400.5,101.2 401.7,100.8 402.9,100.4 404.1,99.9 405.3,99.5 406.4,99.1 407.6,98.7 408.8,98.2 410.0,97.8 411.2,97.4 412.4,97.0 413.6,96.6 414.7,96.2 415.9,95.7 417.1,95.4 418.3,94.9 419.5,94.6 420.7,94.1 421.9,93.7 423.1,93.3 424.2,92.9 425.4,92.5 426.6,92.1 427.8,91.7 429.0,91.3 430.2,90.9 431.4,90.6 432.5,90.1 433.7,89.8 434.9,89.3 436.1,89.0 437.3,88.6 438.5,88.2 439.7,87.8 440.9,87.4 442.0,87.0 443.2,86.7 444.4,86.3 445.6,85.9 446.8,85.5 448.0,85.2 449.2,84.8 450.3,84.4 451.5,84.0 452.7,83.7 453.9,83.3 455.1,83.0 456.3,82.6 457.5,82.2 458.7,81.8 459.8,81.5 461.0,81.1 462.2,80.8 463.4,80.4 464.6,80.1 465.8,79.7 467.0,79.4 468.1,79.0 469.3,78.7 470.5,78.3 471.7,78.0 472.9,77.6 474.1,77.3 475.3,76.9 476.5,76.6 477.6,76.2 478.8,75.9 480.0,75.5 481.2,75.2 482.4,74.9 483.6,74.6 484.8,74.2 485.9,73.9 487.1,73.5 488.3,73.3 489.5,72.9 490.7,72.6 491.9,72.2 493.1,72.0 494.3,71.6 495.4,71.3 496.6,71.0 497.8,70.7 499.0,70.3 500.2,70.0 501.4,69.7 502.6,69.4 503.7,69.1 504.9,68.8 506.1,68.5 507.3,68.2 508.5,67.8 509.7,67.6 510.9,67.2 512.1,67.0 513.2,66.6 514.4,66.4 515.6,66.0 516.8,65.8 518.0,65.4 519.2,65.2 520.4,64.9 521.5,64.6 522.7,64.3 523.9,64.0 525.1,63.7 526.3,63.5 527.5,63.1 528.7,62.9 529.9,62.6 531.0,62.3 532.2,62.0 533.4,61.8 534.6,61.5 535.8,61.2 537.0,60.9 538.2,60.7 539.3,60.4 540.5,60.1 541.7,59.8 542.9,59.6 544.1,59.3 545.3,59.1 546.5,58.8 547.7,58.5 548.8,58.2 550.0,58.0 551.2,57.7 552.4,57.5 553.6,57.2 554.8,57.0 556.0,56.7 557.1,56.5 558.3,56.2 559.5,56.0 560.7,55.7 561.9,55.5 563.1,55.2 564.3,55.0 565.5,54.7 566.6,54.5 567.8,54.2 569.0,54.0 570.2,54.6 571.4,55.2 572.6,55.8 573.8,56.4 574.9,56.9 576.1,57.6 577.3,58.1 578.5,58.7 579.7,59.3 580.9,59.9 582.1,60.4 583.3,61.0 584.4,61.6 585.6,62.2 586.8,62.7 588.0,63.3 589.2,63.8 590.4,64.4 591.6,64.9 592.7,65.5 593.9,66.0 595.1,66.6 596.3,67.1 597.5,67.7 598.7,68.2 599.9,68.8 601.1,69.3 602.2,69.8 603.4,70.3 604.6,70.9 605.8,71.4 607.0,71.9 608.2,72.4 609.4,73.0 610.5,73.4 611.7,74.0 612.9,74.4 614.1,75.0 615.3,75.4 616.5,76.0 617.7,76.4 618.9,77.0 620.0,77.4 621.2,77.9 622.4,78.4 623.6,78.9 624.8,79.3 626.0,79.9 627.2,80.3 628.3,80.8 629.5,81.2 630.7,81.7 631.9,82.2 633.1,82.7 634.3,83.1 635.5,83.6 636.7,84.0 637.8,84.5 639.0,84.9 640.2,85.4 641.4,85.8 642.6,86.3 643.8,86.7 645.0,87.2 646.1,87.6 647.3,88.0 648.5,88.4 649.7,88.9 650.9,89.3 652.1,89.8 653.3,90.2 654.5,90.6 655.6,91.0 656.8,91.4 658.0,91.8 659.2,92.3 660.4,92.7 661.6,93.1 662.8,93.5 663.9,93.9 665.1,94.3 666.3,94.7 667.5,95.1 668.7,95.5 669.9,95.9 671.1,96.3 672.3,96.7 673.4,97.1 674.6,97.5 675.8,97.9 677.0,98.2 678.2,98.6 679.4,99.0 680.6,99.4 681.7,99.8 682.9,100.2 684.1,100.5 685.3,100.9 686.5,101.2 687.7,101.6 688.9,102.0 690.1,102.4 691.2,102.7 692.4,103.1 693.6,103.4 694.8,103.8 696.0,104.2 697.2,104.5 698.4,104.9 699.5,105.2 700.7,105.6 701.9,105.9 703.1,106.3 704.3,106.6 705.5,107.0 706.7,107.3 707.9,107.6 709.0,108.0 710.2,108.3 711.4,108.7 712.6,109.0 713.8,109.3 715.0,109.7 716.2,110.0 717.3,110.3 718.5,110.7 719.7,111.0 720.9,111.3 722.1,111.6 723.3,112.0 724.5,112.3 725.7,112.6 726.8,112.9 728.0,113.2 729.2,113.5 730.4,113.9 731.6,114.2 732.8,114.5 734.0,114.8 735.1,115.1 736.3,115.4 737.5,115.7 738.7,116.0 739.9,116.4 741.1,116.7 742.3,117.0 743.5,117.3 744.6,117.6 745.8,117.9 747.0,118.3 748.2,118.6 749.4,118.9 750.6,119.2 751.8,119.6 752.9,119.9 754.1,120.2 755.3,120.5 756.5,120.9 757.7,121.2 758.9,121.5 760.1,121.9 761.3,122.2 762.4,122.5 763.6,122.9 764.8,123.2 766.0,123.5"/>
<line x1="606" y1="42" x2="628" y2="42" stroke="#0f62fe" stroke-width="2.2"/>
<text x="634" y="46" font-family="Arial" font-size="12">vx_mps</text>
</svg>