<svg xmlns="http://www.w3.org/2000/svg" width="820" height="320" viewBox="0 0 820 320">
<rect width="100%" height="100%" fill="#ffffff"/>
<text x="54" y="28" font-family="Arial" font-size="18" font-weight="700">GPS Altitude vs Truth</text>
<line x1="54" y1="266" x2="766" y2="266" stroke="#1f2933"/>
<line x1="54" y1="54" x2="54" y2="266" stroke="#1f2933"/>
<text x="54" y="306" font-family="Arial" font-size="12">time (s)</text>
<text x="596" y="306" font-family="Arial" font-size="12">altitude (m)</text>
<text x="58" y="68" font-family="Arial" font-size="11">412</text>
<text x="58" y="260" font-family="Arial" font-size="11">20</text>
<polyline fill="none" stroke="#0f62fe" stroke-width="2.2" points="54.0,266.0 55.2,265.9 56.4,265.8 57.6,265.6 58.7,265.5 59.9,265.4 61.1,265.3 62.3,265.2 63.5,265.1 64.7,265.0 65.9,264.9 67.1,264.8 68.2,264.7 69.4,264.6 70.6,264.5 71.8,264.4 73.0,264.3 74.2,264.2 75.4,264.1 76.5,264.1 77.7,264.0 78.9,263.9 80.1,263.8 81.3,263.8 82.5,263.7 83.7,263.6 84.9,263.5 86.0,263.5 87.2,263.4 88.4,263.3 89.6,263.3 90.8,263.2 92.0,263.1 93.2,263.1 94.3,263.0 95.5,263.0 96.7,262.9 97.9,262.8 99.1,262.8 100.3,262.7 101.5,262.7 102.7,262.6 103.8,262.6 105.0,262.5 106.2,262.5 107.4,262.4 108.6,262.4 109.8,262.3 111.0,262.3 112.1,262.2 113.3,262.2 114.5,262.1 115.7,262.1 116.9,262.1 118.1,262.0 119.3,262.0 120.5,261.9 121.6,261.9 122.8,261.8 124.0,261.8 125.2,261.8 126.4,261.7 127.6,261.7 128.8,261.7 129.9,261.6 131.1,261.6 132.3,261.5 133.5,261.5 134.7,261.5 135.9,261.4 137.1,261.4 138.3,261.4 139.4,261.3 140.6,261.3 141.8,261.3 143.0,261.2 144.2,261.2 145.4,261.2 146.6,261.1 147.7,261.1 148.9,261.1 150.1,261.0 151.3,261.0 152.5,261.0 153.7,260.9 154.9,260.9 156.1,260.8 157.2,260.8 158.4,260.8 159.6,260.7 160.8,260.7 162.0,260.7 163.2,260.6 164.4,260.6 165.5,260.6 166.7,260.5 167.9,260.5 169.1,260.4 170.3,260.4 171.5,260.3 172.7,260.3 173.9,260.3 175.0,260.2 176.2,260.2 177.4,260.1 178.6,260.1 179.8,260.0 181.0,260.0 182.2,259.9 183.3,259.9 184.5,259.8 185.7,259.8 186.9,259.7 188.1,259.7 189.3,259.6 190.5,259.6 191.7,259.5 192.8,259.4 194.0,259.4 195.2,259.3 196.4,259.2 197.6,259.2 198.8,259.1 200.0,259.0 201.1,259.0 202.3,258.9 203.5,258.8 204.7,258.7 205.9,258.7 207.1,258.6 208.3,258.5 209.5,258.4 210.6,258.3 211.8,258.2 213.0,258.1 214.2,258.0 215.4,257.9 216.6,257.9 217.8,257.8 218.9,257.6 220.1,257.5 221.3,257.4 222.5,257.3 223.7,257.2 224.9,257.1 226.1,257.0 227.3,256.9 228.4,256.8 229.6,256.6 230.8,256.5 232.0,256.4 233.2,256.2 234.4,256.1 235.6,256.0 236.7,255.8 237.9,255.7 239.1,255.5 240.3,255.4 241.5,255.2 242.7,255.1 243.9,254.9 245.1,254.8 246.2,254.6 247.4,254.4 248.6,254.3 249.8,254.1 251.0,253.9 252.2,253.7 253.4,253.6 254.5,253.4 255.7,253.2 256.9,253.0 258.1,252.8 259.3,252.6 260.5,252.4 261.7,252.2 262.9,252.0 264.0,251.7 265.2,251.5 266.4,251.3 267.6,251.1 268.8,250.8 270.0,250.6 271.2,250.4 272.3,250.1 273.5,249.9 274.7,249.6 275.9,249.4 277.1,249.1 278.3,248.8 279.5,248.6 280.7,248.3 281.8,248.0 283.0,247.7 284.2,247.5 285.4,247.2 286.6,246.9 287.8,246.6 289.0,246.3 290.1,246.0 291.3,245.7 292.5,245.3 293.7,245.0 294.9,244.7 296.1,244.4 297.3,244.1 298.5,243.7 299.6,243.4 300.8,243.0 302.0,242.7 303.2,242.4 304.4,242.0 305.6,241.6 306.8,241.3 307.9,240.9 309.1,240.6 310.3,240.2 311.5,239.8 312.7,239.4 313.9,239.1 315.1,238.7 316.3,238.3 317.4,237.9 318.6,237.5 319.8,237.1 321.0,236.7 322.2,236.3 323.4,235.9 324.6,235.5 325.7,235.1 326.9,234.6 328.1,234.2 329.3,233.8 330.5,233.4 331.7,232.9 332.9,232.5 334.1,232.1 335.2,231.6 336.4,231.2 337.6,230.8 338.8,230.3 340.0,229.9 341.2,229.4 342.4,229.0 343.5,228.5 344.7,228.0 345.9,227.6 347.1,227.1 348.3,226.6 349.5,226.2 350.7,225.7 351.9,225.2 353.0,224.7 354.2,224.3 355.4,223.8 356.6,223.3 357.8,222.8 359.0,222.3 360.2,221.8 361.3,221.3 362.5,220.8 363.7,220.3 364.9,219.8 366.1,219.3 367.3,218.8 368.5,218.3 369.7,217.8 370.8,217.3 372.0,216.8 373.2,216.3 374.4,215.7 375.6,215.2 376.8,214.7 378.0,214.2 379.1,213.7 380.3,213.1 381.5,212.6 382.7,212.1 383.9,211.6 385.1,211.0 386.3,210.5 387.5,210.0 388.6,209.4 389.8,208.9 391.0,208.4 392.2,207.8 393.4,207.3 394.6,206.7 395.8,206.2 396.9,205.7 398.1,205.1 399.3,204.6 400.5,204.0 401.7,203.5 402.9,202.9 404.1,202.4 405.3,201.9 406.4,201.3 407.6,200.8 408.8,200.2 410.0,199.6 411.2,199.1 412.4,198.5 413.6,198.0 414.7,197.4 415.9,196.9 417.1,196.3 418.3,195.8 419.5,195.2 420.7,194.6 421.9,194.1 423.1,193.5 424.2,193.0 425.4,192.4 426.6,191.8 427.8,191.3 429.0,190.7 430.2,190.1 431.4,189.6 432.5,189.0 433.7,188.4 434.9,187.9 436.1,187.3 437.3,186.7 438.5,186.2 439.7,185.6 440.9,185.0 442.0,184.5 443.2,183.9 444.4,183.3 445.6,182.7 446.8,182.2 448.0,181.6 449.2,181.0 450.3,180.4 451.5,179.9 452.7,179.3 453.9,178.7 455.1,178.1 456.3,177.6 457.5,177.0 458.7,176.4 459.8,175.8 461.0,175.2 462.2,174.7 463.4,174.1 464.6,173.5 465.8,172.9 467.0,172.3 468.1,171.7 469.3,171.2 470.5,170.6 471.7,170.0 472.9,169.4 474.1,168.8 475.3,168.2 476.5,167.7 477.6,167.1 478.8,166.5 480.0,165.9 481.2,165.3 482.4,164.7 483.6,164.1 484.8,163.5 485.9,163.0 487.1,162.4 488.3,161.8 489.5,161.2 490.7,160.6 491.9,160.0 493.1,159.4 494.3,158.8 495.4,158.2 496.6,157.6 497.8,157.1 499.0,156.5 500.2,155.9 501.4,155.3 502.6,154.7 503.7,154.1 504.9,153.5 506.1,152.9 507.3,152.3 508.5,151.7 509.7,151.1 510.9,150.5 512.1,149.9 513.2,149.3 514.4,148.7 515.6,148.1 516.8,147.5 518.0,146.9 519.2,146.3 520.4,145.8 521.5,145.2 522.7,144.6 523.9,144.0 525.1,143.4 526.3,142.8 527.5,142.2 528.7,141.6 529.9,141.0 531.0,140.4 532.2,139.8 533.4,139.2 534.6,138.6 535.8,138.0 537.0,137.4 538.2,136.8 539.3,136.2 540.5,135.6 541.7,135.0 542.9,134.4 544.1,133.8 545.3,133.2 546.5,132.6 547.7,132.0 548.8,131.4 550.0,130.8 551.2,130.2 552.4,129.6 553.6,129.0 554.8,128.4 556.0,127.8 557.1,127.2 558.3,126.6 559.5,126.0 560.7,125.4 561.9,124.8 563.1,124.2 564.3,123.6 565.5,123.0 566.6,122.4 567.8,121.8 569.0,121.2 570.2,120.6 571.4,120.0 572.6,119.4 573.8,118.8 574.9,118.2 576.1,117.6 577.3,117.0 578.5,116.4 579.7,115.8 580.9,115.2 582.1,114.7 583.3,114.1 584.4,113.5 585.6,112.9 586.8,112.3 588.0,111.8 589.2,111.2 590.4,110.6 591.6,110.1 592.7,109.5 593.9,108.9 595.1,108.4 596.3,107.8 597.5,107.3 598.7,106.7 599.9,106.2 601.1,105.6 602.2,105.1 603.4,104.5 604.6,104.0 605.8,103.4 607.0,102.9 608.2,102.3 609.4,101.8 610.5,101.3 611.7,100.7 612.9,100.2 614.1,99.7 615.3,99.1 616.5,98.6 617.7,98.1 618.9,97.6 620.0,97.0 621.2,96.5 622.4,96.0 623.6,95.5 624.8,95.0 626.0,94.5 627.2,94.0 628.3,93.5 629.5,93.0 630.7,92.5 631.9,92.0 633.1,91.5 634.3,91.0 635.5,90.5 636.7,90.0 637.8,89.5 639.0,89.1 640.2,88.6 641.4,88.1 642.6,87.6 643.8,87.1 645.0,86.7 646.1,86.2 647.3,85.7 648.5,85.3 649.7,84.8 650.9,84.4 652.1,83.9 653.3,83.5 654.5,83.0 655.6,82.6 656.8,82.1 658.0,81.7 659.2,81.2 660.4,80.8 661.6,80.4 662.8,79.9 663.9,79.5 665.1,79.1 666.3,78.7 667.5,78.2 668.7,77.8 669.9,77.4 671.1,77.0 672.3,76.6 673.4,76.2 674.6,75.8 675.8,75.4 677.0,75.0 678.2,74.6 679.4,74.2 680.6,73.8 681.7,73.4 682.9,73.1 684.1,72.7 685.3,72.3 686.5,71.9 687.7,71.6 688.9,71.2 690.1,70.8 691.2,70.5 692.4,70.1 693.6,69.7 694.8,69.4 696.0,69.0 697.2,68.7 698.4,68.4 699.5,68.0 700.7,67.7 701.9,67.3 703.1,67.0 704.3,66.7 705.5,66.4 706.7,66.0 707.9,65.7 709.0,65.4 710.2,65.1 711.4,64.8 712.6,64.5 713.8,64.2 715.0,63.9 716.2,63.6 717.3,63.3 718.5,63.0 719.7,62.7 720.9,62.4 722.1,62.2 723.3,61.9 724.5,61.6 725.7,61.4 726.8,61.1 728.0,60.8 729.2,60.6 730.4,60.3 731.6,60.1 732.8,59.8 734.0,59.6 735.1,59.3 736.3,59.1 737.5,58.9 738.7,58.6 739.9,58.4 741.1,58.2 742.3,58.0 743.5,57.8 744.6,57.5 745.8,57.3 747.0,57.1 748.2,56.9 749.4,56.7 750.6,56.5 751.8,56.3 752.9,56.1 754.1,55.9 755.3,55.7 756.5,55.5 757.7,55.3 758.9,55.1 760.1,54.9 761.3,54.7 762.4,54.6 763.6,54.4 764.8,54.2 766.0,54.0"/>
<line x1="606" y1="42" x2="628" y2="42" stroke="#0f62fe" stroke-width="2.2"/>
<text x="634" y="46" font-family="Arial" font-size="12">altitude_m</text>
<polyline fill="none" stroke="#24a148" stroke-width="2.2" points="54.0,265.4 55.2,265.4 56.4,265.4 57.6,265.4 58.7,265.4 59.9,265.4 61.1,265.4 62.3,264.6 63.5,264.6 64.7,264.6 65.9,264.6 67.1,264.6 68.2,264.6 69.4,264.6 70.6,264.3 71.8,264.3 73.0,264.3 74.2,264.3 75.4,264.3 76.5,264.3 77.7,264.3 78.9,263.7 80.1,263.7 81.3,263.7 82.5,263.7 83.7,263.7 84.9,263.7 86.0,263.7 87.2,263.3 88.4,263.3 89.6,263.3 90.8,263.3 92.0,263.3 93.2,263.3 94.3,263.3 95.5,263.2 96.7,263.2 97.9,263.2 99.1,263.2 100.3,263.2 101.5,263.2 102.7,263.2 103.8,261.5 105.0,261.5 106.2,261.5 107.4,261.5 108.6,261.5 109.8,261.5 111.0,261.5 112.1,262.3 113.3,262.3 114.5,262.3 115.7,262.3 116.9,262.3 118.1,262.3 119.3,262.3 120.5,262.9 121.6,262.9 122.8,262.9 124.0,262.9 125.2,262.9 126.4,262.9 127.6,262.9 128.8,261.5 129.9,261.5 131.1,261.5 132.3,261.5 133.5,261.5 134.7,261.5 135.9,261.5 137.1,261.8 138.3,261.8 139.4,261.8 140.6,261.8 141.8,261.8 143.0,261.8 144.2,261.8 145.4,261.0 146.6,261.0 147.7,261.0 148.9,261.0 150.1,261.0 151.3,261.0 152.5,261.0 153.7,260.9 154.9,260.9 156.1,260.9 157.2,260.9 158.4,260.9 159.6,260.9 160.8,260.9 162.0,259.3 163.2,259.3 164.4,259.3 165.5,259.3 166.7,259.3 167.9,259.3 169.1,259.3 170.3,260.3 171.5,260.3 172.7,260.3 173.9,260.3 175.0,260.3 176.2,260.3 177.4,260.3 178.6,259.4 179.8,259.4 181.0,259.4 182.2,259.4 183.3,259.4 184.5,259.4 185.7,259.4 186.9,260.2 188.1,260.2 189.3,260.2 190.5,260.2 191.7,260.2 192.8,260.2 194.0,260.2 195.2,259.6 196.4,259.6 197.6,259.6 198.8,259.6 200.0,259.6 201.1,259.6 202.3,259.6 203.5,258.3 204.7,258.3 205.9,258.3 207.1,258.3 208.3,258.3 209.5,258.3 210.6,258.3 211.8,257.5 213.0,257.5 214.2,257.5 215.4,257.5 216.6,257.5 217.8,257.5 218.9,257.5 220.1,258.3 221.3,258.3 222.5,258.3 223.7,258.3 224.9,258.3 226.1,258.3 227.3,258.3 228.4,256.2 229.6,256.2 230.8,256.2 232.0,256.2 233.2,256.2 234.4,256.2 235.6,256.2 236.7,256.3 237.9,256.3 239.1,256.3 240.3,256.3 241.5,256.3 242.7,256.3 243.9,256.3 245.1,255.2 246.2,255.2 247.4,255.2 248.6,255.2 249.8,255.2 251.0,255.2 252.2,255.2 253.4,254.2 254.5,254.2 255.7,254.2 256.9,254.2 258.1,254.2 259.3,254.2 260.5,254.2 261.7,253.5 262.9,253.5 264.0,253.5 265.2,253.5 266.4,253.5 267.6,253.5 268.8,253.5 270.0,249.9 271.2,249.9 272.3,249.9 273.5,249.9 274.7,249.9 275.9,249.9 277.1,249.9 278.3,249.2 279.5,249.2 280.7,249.2 281.8,249.2 283.0,249.2 284.2,249.2 285.4,249.2 286.6,247.0 287.8,247.0 289.0,247.0 290.1,247.0 291.3,247.0 292.5,247.0 293.7,247.0 294.9,245.0 296.1,245.0 297.3,245.0 298.5,245.0 299.6,245.0 300.8,245.0 302.0,245.0 303.2,242.7 304.4,242.7 305.6,242.7 306.8,242.7 307.9,242.7 309.1,242.7 310.3,242.7 311.5,240.0 312.7,240.0 313.9,240.0 315.1,240.0 316.3,240.0 317.4,240.0 318.6,240.0 319.8,236.8 321.0,236.8 322.2,236.8 323.4,236.8 324.6,236.8 325.7,236.8 326.9,236.8 328.1,233.1 329.3,233.1 330.5,233.1 331.7,233.1 332.9,233.1 334.1,233.1 335.2,233.1 336.4,231.5 337.6,231.5 338.8,231.5 340.0,231.5 341.2,231.5 342.4,231.5 343.5,231.5 344.7,227.4 345.9,227.4 347.1,227.4 348.3,227.4 349.5,227.4 350.7,227.4 351.9,227.4 353.0,224.9 354.2,224.9 355.4,224.9 356.6,224.9 357.8,224.9 359.0,224.9 360.2,224.9 361.3,221.5 362.5,221.5 363.7,221.5 364.9,221.5 366.1,221.5 367.3,221.5 368.5,221.5 369.7,218.2 370.8,218.2 372.0,218.2 373.2,218.2 374.4,218.2 375.6,218.2 376.8,218.2 378.0,214.3 379.1,214.3 380.3,214.3 381.5,214.3 382.7,214.3 383.9,214.3 385.1,214.3 386.3,211.0 387.5,211.0 388.6,211.0 389.8,211.0 391.0,211.0 392.2,211.0 393.4,211.0 394.6,207.1 395.8,207.1 396.9,207.1 398.1,207.1 399.3,207.1 400.5,207.1 401.7,207.1 402.9,204.3 404.1,204.3 405.3,204.3 406.4,204.3 407.6,204.3 408.8,204.3 410.0,204.3 411.2,198.5 412.4,198.5 413.6,198.5 414.7,198.5 415.9,198.5 417.1,198.5 418.3,198.5 419.5,195.1 420.7,195.1 421.9,195.1 423.1,195.1 424.2,195.1 425.4,195.1 426.6,195.1 427.8,192.1 429.0,192.1 430.2,192.1 431.4,192.1 432.5,192.1 433.7,192.1 434.9,192.1 436.1,187.5 437.3,187.5 438.5,187.5 439.7,187.5 440.9,187.5 442.0,187.5 443.2,187.5 444.4,183.3 445.6,183.3 446.8,183.3 448.0,183.3 449.2,183.3 450.3,183.3 451.5,183.3 452.7,179.8 453.9,179.8 455.1,179.8 456.3,179.8 457.5,179.8 458.7,179.8 459.8,179.8 461.0,175.9 462.2,175.9 463.4,175.9 464.6,175.9 465.8,175.9 467.0,175.9 468.1,175.9 469.3,171.1 470.5,171.1 471.7,171.1 472.9,171.1 474.1,171.1 475.3,171.1 476.5,171.1 477.6,167.6 478.8,167.6 480.0,167.6 481.2,167.6 482.4,167.6 483.6,167.6 484.8,167.6 485.9,164.0 487.1,164.0 488.3,164.0 489.5,164.0 490.7,164.0 491.9,164.0 493.1,164.0 494.3,159.5 495.4,159.5 496.6,159.5 497.8,159.5 499.0,159.5 500.2,159.5 501.4,159.5 502.6,153.9 503.7,153.9 504.9,153.9 506.1,153.9 507.3,153.9 508.5,153.9 509.7,153.9 510.9,149.4 512.1,149.4 513.2,149.4 514.4,149.4 515.6,149.4 516.8,149.4 518.0,149.4 519.2,146.9 520.4,146.9 521.5,146.9 522.7,146.9 523.9,146.9 525.1,146.9 526.3,146.9 527.5,141.7 528.7,141.7 529.9,141.7 531.0,141.7 532.2,141.7 533.4,141.7 534.6,141.7 535.8,137.4 537.0,137.4 538.2,137.4 539.3,137.4 540.5,137.4 541.7,137.4 542.9,137.4 544.1,134.8 545.3,134.8 546.5,134.8 547.7,134.8 548.8,134.8 550.0,134.8 551.2,134.8 552.4,128.7 553.6,128.7 554.8,128.7 556.0,128.7 557.1,128.7 558.3,128.7 559.5,128.7 560.7,126.2 561.9,126.2 563.1,126.2 564.3,126.2 565.5,126.2 566.6,126.2 567.8,126.2 569.0,121.6 570.2,121.6 571.4,121.6 572.6,121.6 573.8,121.6 574.9,121.6 576.1,121.6 577.3,117.8 578.5,117.8 579.7,117.8 580.9,117.8 582.1,117.8 583.3,117.8 584.4,117.8 585.6,112.0 586.8,112.0 588.0,112.0 589.2,112.0 590.4,112.0 591.6,112.0 592.7,112.0 593.9,108.6 595.1,108.6 596.3,108.6 597.5,108.6 598.7,108.6 599.9,108.6 601.1,108.6 602.2,105.2 603.4,105.2 604.6,105.2 605.8,105.2 607.0,105.2 608.2,105.2 609.4,105.2 610.5,102.8 611.7,102.8 612.9,102.8 614.1,102.8 615.3,102.8 616.5,102.8 617.7,102.8 618.9,97.1 620.0,97.1 621.2,97.1 622.4,97.1 623.6,97.1 624.8,97.1 626.0,97.1 627.2,94.7 628.3,94.7 629.5,94.7 630.7,94.7 631.9,94.7 633.1,94.7 634.3,94.7 635.5,90.3 636.7,90.3 637.8,90.3 639.0,90.3 640.2,90.3 641.4,90.3 642.6,90.3 643.8,86.9 645.0,86.9 646.1,86.9 647.3,86.9 648.5,86.9 649.7,86.9 650.9,86.9 652.1,84.0 653.3,84.0 654.5,84.0 655.6,84.0 656.8,84.0 658.0,84.0 659.2,84.0 660.4,80.4 661.6,80.4 662.8,80.4 663.9,80.4 665.1,80.4 666.3,80.4 667.5,80.4 668.7,76.3 669.9,76.3 671.1,76.3 672.3,76.3 673.4,76.3 674.6,76.3 675.8,76.3 677.0,75.7 678.2,75.7 679.4,75.7 680.6,75.7 681.7,75.7 682.9,75.7 684.1,75.7 685.3,71.3 686.5,71.3 687.7,71.3 688.9,71.3 690.1,71.3 691.2,71.3 692.4,71.3 693.6,69.4 694.8,69.4 696.0,69.4 697.2,69.4 698.4,69.4 699.5,69.4 700.7,69.4 701.9,68.4 703.1,68.4 704.3,68.4 705.5,68.4 706.7,68.4 707.9,68.4 709.0,68.4 710.2,63.6 711.4,63.6 712.6,63.6 713.8,63.6 715.0,63.6 716.2,63.6 717.3,63.6 718.5,63.1 719.7,63.1 720.9,63.1 722.1,63.1 723.3,63.1 724.5,63.1 725.7,63.1 726.8,61.2 728.0,61.2 729.2,61.2 730.4,61.2 731.6,61.2 732.8,61.2 734.0,61.2 735.1,60.2 736.3,60.2 737.5,60.2 738.7,60.2 739.9,60.2 741.1,60.2 742.3,60.2 743.5,57.5 744.6,57.5 745.8,57.5 747.0,57.5 748.2,57.5 749.4,57.5 750.6,57.5 751.8,57.1 752.9,57.1 754.1,57.1 755.3,57.1 756.5,57.1 757.7,57.1 758.9,57.1 760.1,54.9 761.3,54.9 762.4,54.9 763.6,54.9 764.8,54.9 766.0,54.9"/>
<line x1="606" y1="60" x2="628" y2="60" stroke="#24a148" stroke-width="2.2"/>
<text x="634" y="64" font-family="Arial" font-size="12">gps_z_m</text>
</svg>