<svg xmlns="http://www.w3.org/2000/svg" width="820" height="320" viewBox="0 0 820 320">
<rect width="100%" height="100%" fill="#ffffff"/>
<text x="54" y="28" font-family="Arial" font-size="18" font-weight="700">Downrange/Crossrange</text>
<line x1="54" y1="266" x2="766" y2="266" stroke="#1f2933"/>
<line x1="54" y1="54" x2="54" y2="266" stroke="#1f2933"/>
<text x="54" y="306" font-family="Arial" font-size="12">downrange (m)</text>
<text x="596" y="306" font-family="Arial" font-size="12">crossrange (m)</text>
<text x="58" y="68" font-family="Arial" font-size="11">1</text>
<text x="58" y="260" font-family="Arial" font-size="11">-1</text>
<polyline fill="none" stroke="#0f62fe" stroke-width="2.2" points="54.0,160.0 54.5,160.0 55.0,160.0 55.5,160.0 56.1,160.0 56.6,160.0 57.1,160.0 57.6,160.0 58.2,160.0 58.7,160.0 59.2,160.0 59.8,160.0 60.3,160.0 60.9,160.0 61.4,160.0 62.0,160.0 62.5,160.0 63.1,160.0 63.7,160.0 64.2,160.0 64.8,160.0 65.4,160.0 66.0,160.0 66.5,160.0 67.1,160.0 67.7,160.0 68.3,160.0 68.9,160.0 69.5,160.0 70.1,160.0 70.7,160.0 71.3,160.0 72.0,160.0 72.6,160.0 73.2,160.0 73.8,160.0 74.5,160.0 75.1,160.0 75.7,160.0 76.4,160.0 77.0,160.0 77.7,160.0 78.3,160.0 79.0,160.0 79.6,160.0 80.3,160.0 80.9,160.0 81.6,160.0 82.3,160.0 83.0,160.0 83.6,160.0 84.3,160.0 85.0,160.0 85.7,160.0 86.4,160.0 87.1,160.0 87.8,160.0 88.5,160.0 89.2,160.0 89.9,160.0 90.6,160.0 91.3,160.0 92.0,160.0 92.7,160.0 93.5,160.0 94.2,160.0 94.9,160.0 95.7,160.0 96.4,160.0 97.1,160.0 97.9,160.0 98.6,160.0 99.4,160.0 100.1,160.0 100.9,160.0 101.7,160.0 102.4,160.0 103.2,160.0 104.0,160.0 104.7,160.0 105.5,160.0 106.3,160.0 107.1,160.0 107.9,160.0 108.7,160.0 109.5,160.0 110.3,160.0 111.1,160.0 111.9,160.0 112.7,160.0 113.5,160.0 114.3,160.0 115.1,160.0 115.9,160.0 116.7,160.0 117.6,160.0 118.4,160.0 119.2,160.0 120.1,160.0 120.9,160.0 121.7,160.0 122.6,160.0 123.4,160.0 124.3,160.0 125.1,160.0 126.0,160.0 126.9,160.0 127.7,160.0 128.6,160.0 129.5,160.0 130.3,160.0 131.2,160.0 132.1,160.0 133.0,160.0 133.9,160.0 134.7,160.0 135.6,160.0 136.5,160.0 137.4,160.0 138.3,160.0 139.2,160.0 140.1,160.0 141.0,160.0 141.9,160.0 142.9,160.0 143.8,160.0 144.7,160.0 145.6,160.0 146.5,160.0 147.5,160.0 148.4,160.0 149.3,160.0 150.3,160.0 151.2,160.0 152.2,160.0 153.1,160.0 154.1,160.0 155.0,160.0 156.0,160.0 156.9,160.0 157.9,160.0 158.8,160.0 159.8,160.0 160.8,160.0 161.7,160.0 162.7,160.0 163.7,160.0 164.7,160.0 165.7,160.0 166.6,160.0 167.6,160.0 168.6,160.0 169.6,160.0 170.6,160.0 171.6,160.0 172.6,160.0 173.6,160.0 174.6,160.0 175.6,160.0 176.6,160.0 177.7,160.0 178.7,160.0 179.7,160.0 180.7,160.0 181.8,160.0 182.8,160.0 183.8,160.0 184.8,160.0 185.9,160.0 186.9,160.0 188.0,160.0 189.0,160.0 190.1,160.0 191.1,160.0 192.2,160.0 193.2,160.0 194.3,160.0 195.3,160.0 196.4,160.0 197.5,160.0 198.5,160.0 199.6,160.0 200.7,160.0 201.7,160.0 202.8,160.0 203.9,160.0 205.0,160.0 206.1,160.0 207.2,160.0 208.3,160.0 209.4,160.0 210.4,160.0 211.5,160.0 212.6,160.0 213.8,160.0 214.9,160.0 216.0,160.0 217.1,160.0 218.2,160.0 219.3,160.0 220.4,160.0 221.5,160.0 222.7,160.0 223.8,160.0 224.9,160.0 226.1,160.0 227.2,160.0 228.3,160.0 229.5,160.0 230.6,160.0 231.7,160.0 232.9,160.0 234.0,160.0 235.2,160.0 236.4,160.0 237.5,160.0 238.7,160.0 239.8,160.0 241.0,160.0 242.2,160.0 243.3,160.0 244.5,160.0 245.7,160.0 246.8,160.0 248.0,160.0 249.2,160.0 250.4,160.0 251.6,160.0 252.8,160.0 253.9,160.0 255.1,160.0 256.3,160.0 257.5,160.0 258.7,160.0 259.9,160.0 261.1,160.0 262.3,160.0 263.5,160.0 264.7,160.0 266.0,160.0 267.2,160.0 268.4,160.0 269.6,160.0 270.8,160.0 272.1,160.0 273.3,160.0 274.5,160.0 275.7,160.0 277.0,160.0 278.2,160.0 279.4,160.0 280.7,160.0 281.9,160.0 283.2,160.0 284.4,160.0 285.7,160.0 286.9,160.0 288.2,160.0 289.4,160.0 290.7,160.0 291.9,160.0 293.2,160.0 294.5,160.0 295.7,160.0 297.0,160.0 298.3,160.0 299.6,160.0 300.8,160.0 302.1,160.0 303.4,160.0 304.7,160.0 306.0,160.0 307.2,160.0 308.5,160.0 309.8,160.0 311.1,160.0 312.4,160.0 313.7,160.0 315.0,160.0 316.3,160.0 317.6,160.0 318.9,160.0 320.2,160.0 321.5,160.0 322.9,160.0 324.2,160.0 325.5,160.0 326.8,160.0 328.1,160.0 329.4,160.0 330.8,160.0 332.1,160.0 333.4,160.0 334.7,160.0 336.1,160.0 337.4,160.0 338.7,160.0 340.1,160.0 341.4,160.0 342.8,160.0 344.1,160.0 345.5,160.0 346.8,160.0 348.1,160.0 349.5,160.0 350.8,160.0 352.2,160.0 353.6,160.0 354.9,160.0 356.3,160.0 357.6,160.0 359.0,160.0 360.4,160.0 361.7,160.0 363.1,160.0 364.5,160.0 365.9,160.0 367.2,160.0 368.6,160.0 370.0,160.0 371.4,160.0 372.8,160.0 374.1,160.0 375.5,160.0 376.9,160.0 378.3,160.0 379.7,160.0 381.1,160.0 382.5,160.0 383.9,160.0 385.3,160.0 386.7,160.0 388.1,160.0 389.5,160.0 390.9,160.0 392.3,160.0 393.8,160.0 395.2,160.0 396.6,160.0 398.0,160.0 399.4,160.0 400.8,160.0 402.3,160.0 403.7,160.0 405.1,160.0 406.6,160.0 408.0,160.0 409.4,160.0 410.9,160.0 412.3,160.0 413.7,160.0 415.2,160.0 416.6,160.0 418.1,160.0 419.5,160.0 421.0,160.0 422.4,160.0 423.9,160.0 425.3,160.0 426.8,160.0 428.2,160.0 429.7,160.0 431.2,160.0 432.6,160.0 434.1,160.0 435.6,160.0 437.0,160.0 438.5,160.0 440.0,160.0 441.4,160.0 442.9,160.0 444.4,160.0 445.9,160.0 447.3,160.0 448.8,160.0 450.3,160.0 451.8,160.0 453.3,160.0 454.8,160.0 456.3,160.0 457.8,160.0 459.3,160.0 460.7,160.0 462.2,160.0 463.7,160.0 465.2,160.0 466.7,160.0 468.3,160.0 469.8,160.0 471.3,160.0 472.8,160.0 474.3,160.0 475.8,160.0 477.3,160.0 478.8,160.0 480.3,160.0 481.9,160.0 483.4,160.0 484.9,160.0 486.4,160.0 487.9,160.0 489.5,160.0 491.0,160.0 492.5,160.0 494.1,160.0 495.6,160.0 497.1,160.0 498.7,160.0 500.2,160.0 501.7,160.0 503.3,160.0 504.8,160.0 506.4,160.0 507.9,160.0 509.4,160.0 511.0,160.0 512.5,160.0 514.1,160.0 515.6,160.0 517.2,160.0 518.7,160.0 520.3,160.0 521.8,160.0 523.4,160.0 525.0,160.0 526.5,160.0 528.1,160.0 529.6,160.0 531.2,160.0 532.8,160.0 534.3,160.0 535.9,160.0 537.5,160.0 539.0,160.0 540.6,160.0 542.2,160.0 543.7,160.0 545.3,160.0 546.8,160.0 548.4,160.0 549.9,160.0 551.5,160.0 553.0,160.0 554.6,160.0 556.1,160.0 557.6,160.0 559.2,160.0 560.7,160.0 562.2,160.0 563.8,160.0 565.3,160.0 566.8,160.0 568.3,160.0 569.8,160.0 571.3,160.0 572.8,160.0 574.3,160.0 575.8,160.0 577.3,160.0 578.8,160.0 580.3,160.0 581.8,160.0 583.3,160.0 584.8,160.0 586.3,160.0 587.7,160.0 589.2,160.0 590.7,160.0 592.2,160.0 593.6,160.0 595.1,160.0 596.5,160.0 598.0,160.0 599.5,160.0 600.9,160.0 602.4,160.0 603.8,160.0 605.3,160.0 606.7,160.0 608.1,160.0 609.6,160.0 611.0,160.0 612.5,160.0 613.9,160.0 615.3,160.0 616.7,160.0 618.2,160.0 619.6,160.0 621.0,160.0 622.4,160.0 623.8,160.0 625.2,160.0 626.6,160.0 628.0,160.0 629.5,160.0 630.9,160.0 632.2,160.0 633.6,160.0 635.0,160.0 636.4,160.0 637.8,160.0 639.2,160.0 640.6,160.0 642.0,160.0 643.3,160.0 644.7,160.0 646.1,160.0 647.5,160.0 648.8,160.0 650.2,160.0 651.6,160.0 652.9,160.0 654.3,160.0 655.6,160.0 657.0,160.0 658.4,160.0 659.7,160.0 661.1,160.0 662.4,160.0 663.7,160.0 665.1,160.0 666.4,160.0 667.8,160.0 669.1,160.0 670.4,160.0 671.8,160.0 673.1,160.0 674.4,160.0 675.7,160.0 677.1,160.0 678.4,160.0 679.7,160.0 681.0,160.0 682.3,160.0 683.6,160.0 685.0,160.0 686.3,160.0 687.6,160.0 688.9,160.0 690.2,160.0 691.5,160.0 692.8,160.0 694.1,160.0 695.4,160.0 696.6,160.0 697.9,160.0 699.2,160.0 700.5,160.0 701.8,160.0 703.1,160.0 704.3,160.0 705.6,160.0 706.9,160.0 708.2,160.0 709.4,160.0 710.7,160.0 712.0,160.0 713.3,160.0 714.5,160.0 715.8,160.0 717.0,160.0 718.3,160.0 719.6,160.0 720.8,160.0 722.1,160.0 723.3,160.0 724.6,160.0 725.8,160.0 727.1,160.0 728.3,160.0 729.5,160.0 730.8,160.0 732.0,160.0 733.3,160.0 734.5,160.0 735.7,160.0 737.0,160.0 738.2,160.0 739.4,160.0 740.6,160.0 741.9,160.0 743.1,160.0 744.3,160.0 745.5,160.0 746.7,160.0 748.0,160.0 749.2,160.0 750.4,160.0 751.6,160.0 752.8,160.0 754.0,160.0 755.2,160.0 756.4,160.0 757.6,160.0 758.8,160.0 760.0,160.0 761.2,160.0 762.4,160.0 763.6,160.0 764.8,160.0 766.0,160.0"/>
<line x1="606" y1="42" x2="628" y2="42" stroke="#0f62fe" stroke-width="2.2"/>
<text x="634" y="46" font-family="Arial" font-size="12">y_m</text>
</svg>