<svg xmlns="http://www.w3.org/2000/svg" width="820" height="320" viewBox="0 0 820 320">
<rect width="100%" height="100%" fill="#ffffff"/>
<text x="54" y="28" font-family="Arial" font-size="18" font-weight="700">Downrange Position</text>
<line x1="54" y1="266" x2="766" y2="266" stroke="#1f2933"/>
<line x1="54" y1="54" x2="54" y2="266" stroke="#1f2933"/>
<text x="54" y="306" font-family="Arial" font-size="12">time (s)</text>
<text x="596" y="306" font-family="Arial" font-size="12">x (m)</text>
<text x="58" y="68" font-family="Arial" font-size="11">3.59e+03</text>
<text x="58" y="260" font-family="Arial" font-size="11">0</text>
<polyline fill="none" stroke="#0f62fe" stroke-width="2.2" points="54.0,266.0 55.2,265.8 56.4,265.7 57.6,265.5 58.7,265.4 59.9,265.2 61.1,265.1 62.3,264.9 63.5,264.8 64.7,264.6 65.9,264.4 67.1,264.3 68.2,264.1 69.4,264.0 70.6,263.8 71.8,263.6 73.0,263.5 74.2,263.3 75.4,263.1 76.5,263.0 77.7,262.8 78.9,262.6 80.1,262.4 81.3,262.3 82.5,262.1 83.7,261.9 84.9,261.7 86.0,261.6 87.2,261.4 88.4,261.2 89.6,261.0 90.8,260.8 92.0,260.7 93.2,260.5 94.3,260.3 95.5,260.1 96.7,259.9 97.9,259.7 99.1,259.5 100.3,259.3 101.5,259.2 102.7,259.0 103.8,258.8 105.0,258.6 106.2,258.4 107.4,258.2 108.6,258.0 109.8,257.8 111.0,257.6 112.1,257.4 113.3,257.2 114.5,257.0 115.7,256.8 116.9,256.6 118.1,256.4 119.3,256.2 120.5,255.9 121.6,255.7 122.8,255.5 124.0,255.3 125.2,255.1 126.4,254.9 127.6,254.7 128.8,254.5 129.9,254.2 131.1,254.0 132.3,253.8 133.5,253.6 134.7,253.4 135.9,253.2 137.1,252.9 138.3,252.7 139.4,252.5 140.6,252.3 141.8,252.0 143.0,251.8 144.2,251.6 145.4,251.4 146.6,251.1 147.7,250.9 148.9,250.7 150.1,250.4 151.3,250.2 152.5,250.0 153.7,249.7 154.9,249.5 156.1,249.3 157.2,249.0 158.4,248.8 159.6,248.5 160.8,248.3 162.0,248.0 163.2,247.8 164.4,247.6 165.5,247.3 166.7,247.1 167.9,246.8 169.1,246.6 170.3,246.3 171.5,246.1 172.7,245.8 173.9,245.6 175.0,245.3 176.2,245.1 177.4,244.8 178.6,244.6 179.8,244.3 181.0,244.0 182.2,243.8 183.3,243.5 184.5,243.3 185.7,243.0 186.9,242.7 188.1,242.5 189.3,242.2 190.5,242.0 191.7,241.7 192.8,241.4 194.0,241.2 195.2,240.9 196.4,240.6 197.6,240.4 198.8,240.1 200.0,239.8 201.1,239.5 202.3,239.3 203.5,239.0 204.7,238.7 205.9,238.4 207.1,238.2 208.3,237.9 209.5,237.6 210.6,237.3 211.8,237.1 213.0,236.8 214.2,236.5 215.4,236.2 216.6,235.9 217.8,235.6 218.9,235.4 220.1,235.1 221.3,234.8 222.5,234.5 223.7,234.2 224.9,233.9 226.1,233.6 227.3,233.3 228.4,233.0 229.6,232.8 230.8,232.5 232.0,232.2 233.2,231.9 234.4,231.6 235.6,231.3 236.7,231.0 237.9,230.7 239.1,230.4 240.3,230.1 241.5,229.8 242.7,229.5 243.9,229.2 245.1,228.9 246.2,228.6 247.4,228.3 248.6,228.0 249.8,227.7 251.0,227.3 252.2,227.0 253.4,226.7 254.5,226.4 255.7,226.1 256.9,225.8 258.1,225.5 259.3,225.2 260.5,224.9 261.7,224.5 262.9,224.2 264.0,223.9 265.2,223.6 266.4,223.3 267.6,223.0 268.8,222.6 270.0,222.3 271.2,222.0 272.3,221.7 273.5,221.4 274.7,221.0 275.9,220.7 277.1,220.4 278.3,220.1 279.5,219.7 280.7,219.4 281.8,219.1 283.0,218.8 284.2,218.4 285.4,218.1 286.6,217.8 287.8,217.4 289.0,217.1 290.1,216.8 291.3,216.4 292.5,216.1 293.7,215.8 294.9,215.4 296.1,215.1 297.3,214.8 298.5,214.4 299.6,214.1 300.8,213.8 302.0,213.4 303.2,213.1 304.4,212.7 305.6,212.4 306.8,212.0 307.9,211.7 309.1,211.4 310.3,211.0 311.5,210.7 312.7,210.3 313.9,210.0 315.1,209.6 316.3,209.3 317.4,208.9 318.6,208.6 319.8,208.2 321.0,207.9 322.2,207.5 323.4,207.2 324.6,206.8 325.7,206.5 326.9,206.1 328.1,205.8 329.3,205.4 330.5,205.0 331.7,204.7 332.9,204.3 334.1,204.0 335.2,203.6 336.4,203.2 337.6,202.9 338.8,202.5 340.0,202.2 341.2,201.8 342.4,201.4 343.5,201.1 344.7,200.7 345.9,200.3 347.1,200.0 348.3,199.6 349.5,199.2 350.7,198.9 351.9,198.5 353.0,198.1 354.2,197.8 355.4,197.4 356.6,197.0 357.8,196.6 359.0,196.3 360.2,195.9 361.3,195.5 362.5,195.2 363.7,194.8 364.9,194.4 366.1,194.0 367.3,193.6 368.5,193.3 369.7,192.9 370.8,192.5 372.0,192.1 373.2,191.7 374.4,191.4 375.6,191.0 376.8,190.6 378.0,190.2 379.1,189.8 380.3,189.4 381.5,189.1 382.7,188.7 383.9,188.3 385.1,187.9 386.3,187.5 387.5,187.1 388.6,186.7 389.8,186.3 391.0,185.9 392.2,185.6 393.4,185.2 394.6,184.8 395.8,184.4 396.9,184.0 398.1,183.6 399.3,183.2 400.5,182.8 401.7,182.4 402.9,182.0 404.1,181.6 405.3,181.2 406.4,180.8 407.6,180.4 408.8,180.0 410.0,179.6 411.2,179.2 412.4,178.8 413.6,178.4 414.7,178.0 415.9,177.6 417.1,177.2 418.3,176.8 419.5,176.4 420.7,176.0 421.9,175.6 423.1,175.2 424.2,174.8 425.4,174.4 426.6,174.0 427.8,173.6 429.0,173.1 430.2,172.7 431.4,172.3 432.5,171.9 433.7,171.5 434.9,171.1 436.1,170.7 437.3,170.3 438.5,169.8 439.7,169.4 440.9,169.0 442.0,168.6 443.2,168.2 444.4,167.8 445.6,167.4 446.8,166.9 448.0,166.5 449.2,166.1 450.3,165.7 451.5,165.3 452.7,164.8 453.9,164.4 455.1,164.0 456.3,163.6 457.5,163.1 458.7,162.7 459.8,162.3 461.0,161.9 462.2,161.5 463.4,161.0 464.6,160.6 465.8,160.2 467.0,159.7 468.1,159.3 469.3,158.9 470.5,158.5 471.7,158.0 472.9,157.6 474.1,157.2 475.3,156.7 476.5,156.3 477.6,155.9 478.8,155.4 480.0,155.0 481.2,154.6 482.4,154.1 483.6,153.7 484.8,153.3 485.9,152.8 487.1,152.4 488.3,152.0 489.5,151.5 490.7,151.1 491.9,150.6 493.1,150.2 494.3,149.8 495.4,149.3 496.6,148.9 497.8,148.4 499.0,148.0 500.2,147.6 501.4,147.1 502.6,146.7 503.7,146.2 504.9,145.8 506.1,145.3 507.3,144.9 508.5,144.4 509.7,144.0 510.9,143.6 512.1,143.1 513.2,142.7 514.4,142.2 515.6,141.8 516.8,141.3 518.0,140.9 519.2,140.4 520.4,140.0 521.5,139.5 522.7,139.1 523.9,138.6 525.1,138.2 526.3,137.7 527.5,137.2 528.7,136.8 529.9,136.3 531.0,135.9 532.2,135.4 533.4,135.0 534.6,134.5 535.8,134.1 537.0,133.6 538.2,133.1 539.3,132.7 540.5,132.2 541.7,131.8 542.9,131.3 544.1,130.9 545.3,130.4 546.5,129.9 547.7,129.5 548.8,129.0 550.0,128.5 551.2,128.1 552.4,127.6 553.6,127.2 554.8,126.7 556.0,126.2 557.1,125.8 558.3,125.3 559.5,124.8 560.7,124.4 561.9,123.9 563.1,123.4 564.3,123.0 565.5,122.5 566.6,122.0 567.8,121.6 569.0,121.1 570.2,120.6 571.4,120.2 572.6,119.7 573.8,119.3 574.9,118.8 576.1,118.3 577.3,117.9 578.5,117.4 579.7,117.0 580.9,116.5 582.1,116.0 583.3,115.6 584.4,115.1 585.6,114.7 586.8,114.2 588.0,113.8 589.2,113.3 590.4,112.9 591.6,112.4 592.7,112.0 593.9,111.5 595.1,111.1 596.3,110.6 597.5,110.2 598.7,109.7 599.9,109.3 601.1,108.8 602.2,108.4 603.4,108.0 604.6,107.5 605.8,107.1 607.0,106.6 608.2,106.2 609.4,105.8 610.5,105.3 611.7,104.9 612.9,104.5 614.1,104.0 615.3,103.6 616.5,103.2 617.7,102.7 618.9,102.3 620.0,101.9 621.2,101.4 622.4,101.0 623.6,100.6 624.8,100.1 626.0,99.7 627.2,99.3 628.3,98.9 629.5,98.4 630.7,98.0 631.9,97.6 633.1,97.2 634.3,96.8 635.5,96.3 636.7,95.9 637.8,95.5 639.0,95.1 640.2,94.7 641.4,94.2 642.6,93.8 643.8,93.4 645.0,93.0 646.1,92.6 647.3,92.2 648.5,91.8 649.7,91.3 650.9,90.9 652.1,90.5 653.3,90.1 654.5,89.7 655.6,89.3 656.8,88.9 658.0,88.5 659.2,88.1 660.4,87.7 661.6,87.3 662.8,86.9 663.9,86.5 665.1,86.1 666.3,85.6 667.5,85.2 668.7,84.8 669.9,84.4 671.1,84.0 672.3,83.6 673.4,83.2 674.6,82.9 675.8,82.5 677.0,82.1 678.2,81.7 679.4,81.3 680.6,80.9 681.7,80.5 682.9,80.1 684.1,79.7 685.3,79.3 686.5,78.9 687.7,78.5 688.9,78.1 690.1,77.7 691.2,77.4 692.4,77.0 693.6,76.6 694.8,76.2 696.0,75.8 697.2,75.4 698.4,75.0 699.5,74.7 700.7,74.3 701.9,73.9 703.1,73.5 704.3,73.1 705.5,72.7 706.7,72.4 707.9,72.0 709.0,71.6 710.2,71.2 711.4,70.8 712.6,70.5 713.8,70.1 715.0,69.7 716.2,69.3 717.3,69.0 718.5,68.6 719.7,68.2 720.9,67.8 722.1,67.5 723.3,67.1 724.5,66.7 725.7,66.3 726.8,66.0 728.0,65.6 729.2,65.2 730.4,64.9 731.6,64.5 732.8,64.1 734.0,63.8 735.1,63.4 736.3,63.0 737.5,62.6 738.7,62.3 739.9,61.9 741.1,61.6 742.3,61.2 743.5,60.8 744.6,60.5 745.8,60.1 747.0,59.7 748.2,59.4 749.4,59.0 750.6,58.7 751.8,58.3 752.9,57.9 754.1,57.6 755.3,57.2 756.5,56.9 757.7,56.5 758.9,56.1 760.1,55.8 761.3,55.4 762.4,55.1 763.6,54.7 764.8,54.4 766.0,54.0"/>
<line x1="606" y1="42" x2="628" y2="42" stroke="#0f62fe" stroke-width="2.2"/>
<text x="634" y="46" font-family="Arial" font-size="12">x_m</text>
</svg>