<svg xmlns="http://www.w3.org/2000/svg" width="820" height="320" viewBox="0 0 820 320">
<rect width="100%" height="100%" fill="#ffffff"/>
<text x="54" y="28" font-family="Arial" font-size="18" font-weight="700">Speed</text>
<line x1="54" y1="266" x2="766" y2="266" stroke="#1f2933"/>
<line x1="54" y1="54" x2="54" y2="266" stroke="#1f2933"/>
<text x="54" y="306" font-family="Arial" font-size="12">time (s)</text>
<text x="596" y="306" font-family="Arial" font-size="12">speed (m/s)</text>
<text x="58" y="68" font-family="Arial" font-size="11">265</text>
<text x="58" y="260" font-family="Arial" font-size="11">85.4</text>
<polyline fill="none" stroke="#0f62fe" stroke-width="2.2" points="54.0,266.0 55.2,265.4 56.4,264.9 57.6,264.3 58.7,263.7 59.9,263.1 61.1,262.4 62.3,261.8 63.5,261.2 64.7,260.5 65.9,259.9 67.1,259.2 68.2,258.5 69.4,257.8 70.6,257.1 71.8,256.4 73.0,255.7 74.2,255.0 75.4,254.3 76.5,253.6 77.7,252.9 78.9,252.2 80.1,251.5 81.3,250.8 82.5,250.1 83.7,249.4 84.9,248.7 86.0,248.1 87.2,247.4 88.4,246.7 89.6,246.0 90.8,245.3 92.0,244.6 93.2,243.9 94.3,243.2 95.5,242.5 96.7,241.8 97.9,241.2 99.1,240.5 100.3,239.8 101.5,239.1 102.7,238.4 103.8,237.7 105.0,237.0 106.2,236.4 107.4,235.7 108.6,235.0 109.8,234.3 111.0,233.7 112.1,233.0 113.3,232.3 114.5,231.6 115.7,230.9 116.9,230.3 118.1,229.6 119.3,228.9 120.5,228.3 121.6,227.6 122.8,226.9 124.0,226.3 125.2,225.6 126.4,224.9 127.6,224.3 128.8,223.6 129.9,222.9 131.1,222.3 132.3,221.6 133.5,220.9 134.7,220.3 135.9,219.6 137.1,219.0 138.3,218.3 139.4,217.7 140.6,217.0 141.8,216.4 143.0,215.7 144.2,215.0 145.4,214.4 146.6,213.8 147.7,213.1 148.9,212.5 150.1,211.8 151.3,211.2 152.5,210.5 153.7,209.9 154.9,209.2 156.1,208.6 157.2,208.0 158.4,207.3 159.6,206.7 160.8,206.0 162.0,205.4 163.2,204.8 164.4,204.2 165.5,203.5 166.7,202.9 167.9,202.3 169.1,201.6 170.3,201.0 171.5,200.4 172.7,199.8 173.9,199.2 175.0,198.5 176.2,197.9 177.4,197.3 178.6,196.7 179.8,196.1 181.0,195.5 182.2,194.9 183.3,194.3 184.5,193.7 185.7,193.0 186.9,192.4 188.1,191.8 189.3,191.2 190.5,190.6 191.7,190.0 192.8,189.4 194.0,188.9 195.2,188.3 196.4,187.7 197.6,187.1 198.8,186.5 200.0,185.9 201.1,185.3 202.3,184.7 203.5,184.1 204.7,183.6 205.9,183.0 207.1,182.4 208.3,181.8 209.5,181.2 210.6,180.7 211.8,180.1 213.0,179.5 214.2,179.0 215.4,178.4 216.6,177.8 217.8,177.2 218.9,176.7 220.1,176.1 221.3,175.5 222.5,175.0 223.7,174.4 224.9,173.9 226.1,173.3 227.3,172.7 228.4,172.2 229.6,171.6 230.8,171.1 232.0,170.5 233.2,170.0 234.4,169.4 235.6,168.9 236.7,168.3 237.9,167.8 239.1,167.2 240.3,166.7 241.5,166.1 242.7,165.6 243.9,165.0 245.1,164.5 246.2,163.9 247.4,163.4 248.6,162.9 249.8,162.3 251.0,161.8 252.2,161.2 253.4,160.7 254.5,160.2 255.7,159.6 256.9,159.1 258.1,158.6 259.3,158.0 260.5,157.5 261.7,157.0 262.9,156.4 264.0,155.9 265.2,155.4 266.4,154.9 267.6,154.3 268.8,153.8 270.0,153.3 271.2,152.8 272.3,152.2 273.5,151.7 274.7,151.2 275.9,150.7 277.1,150.2 278.3,149.6 279.5,149.1 280.7,148.6 281.8,148.1 283.0,147.6 284.2,147.0 285.4,146.6 286.6,146.0 287.8,145.5 289.0,145.0 290.1,144.5 291.3,144.0 292.5,143.5 293.7,143.0 294.9,142.5 296.1,142.0 297.3,141.5 298.5,141.0 299.6,140.5 300.8,140.0 302.0,139.5 303.2,138.9 304.4,138.4 305.6,137.9 306.8,137.4 307.9,136.9 309.1,136.4 310.3,135.9 311.5,135.4 312.7,134.9 313.9,134.4 315.1,133.9 316.3,133.4 317.4,132.9 318.6,132.5 319.8,132.0 321.0,131.5 322.2,131.0 323.4,130.6 324.6,130.1 325.7,129.6 326.9,129.2 328.1,128.7 329.3,128.2 330.5,127.8 331.7,127.3 332.9,126.8 334.1,126.3 335.2,125.9 336.4,125.4 337.6,124.9 338.8,124.4 340.0,124.0 341.2,123.5 342.4,123.0 343.5,122.5 344.7,122.1 345.9,121.6 347.1,121.1 348.3,120.6 349.5,120.2 350.7,119.7 351.9,119.2 353.0,118.8 354.2,118.3 355.4,117.8 356.6,117.4 357.8,116.9 359.0,116.4 360.2,115.9 361.3,115.5 362.5,115.0 363.7,114.6 364.9,114.1 366.1,113.7 367.3,113.2 368.5,112.8 369.7,112.3 370.8,111.9 372.0,111.4 373.2,111.0 374.4,110.5 375.6,110.1 376.8,109.6 378.0,109.2 379.1,108.8 380.3,108.3 381.5,107.9 382.7,107.5 383.9,107.0 385.1,106.6 386.3,106.2 387.5,105.8 388.6,105.3 389.8,104.9 391.0,104.5 392.2,104.1 393.4,103.7 394.6,103.3 395.8,102.9 396.9,102.5 398.1,102.0 399.3,101.7 400.5,101.2 401.7,100.8 402.9,100.4 404.1,100.0 405.3,99.6 406.4,99.3 407.6,98.8 408.8,98.5 410.0,98.1 411.2,97.7 412.4,97.3 413.6,96.9 414.7,96.5 415.9,96.1 417.1,95.7 418.3,95.3 419.5,94.9 420.7,94.5 421.9,94.1 423.1,93.7 424.2,93.3 425.4,92.9 426.6,92.5 427.8,92.1 429.0,91.7 430.2,91.3 431.4,90.9 432.5,90.5 433.7,90.1 434.9,89.8 436.1,89.4 437.3,89.0 438.5,88.6 439.7,88.2 440.9,87.8 442.0,87.4 443.2,87.0 444.4,86.7 445.6,86.3 446.8,85.9 448.0,85.5 449.2,85.2 450.3,84.8 451.5,84.4 452.7,84.0 453.9,83.6 455.1,83.3 456.3,82.9 457.5,82.5 458.7,82.2 459.8,81.8 461.0,81.4 462.2,81.0 463.4,80.7 464.6,80.3 465.8,80.0 467.0,79.6 468.1,79.2 469.3,78.9 470.5,78.5 471.7,78.2 472.9,77.8 474.1,77.4 475.3,77.1 476.5,76.7 477.6,76.4 478.8,76.0 480.0,75.7 481.2,75.4 482.4,75.0 483.6,74.7 484.8,74.3 485.9,74.0 487.1,73.7 488.3,73.3 489.5,73.0 490.7,72.6 491.9,72.3 493.1,72.0 494.3,71.7 495.4,71.3 496.6,71.0 497.8,70.7 499.0,70.3 500.2,70.0 501.4,69.7 502.6,69.4 503.7,69.1 504.9,68.7 506.1,68.4 507.3,68.1 508.5,67.8 509.7,67.5 510.9,67.2 512.1,66.8 513.2,66.5 514.4,66.2 515.6,65.9 516.8,65.6 518.0,65.3 519.2,65.0 520.4,64.7 521.5,64.4 522.7,64.1 523.9,63.8 525.1,63.5 526.3,63.2 527.5,62.9 528.7,62.6 529.9,62.3 531.0,62.0 532.2,61.8 533.4,61.5 534.6,61.2 535.8,60.9 537.0,60.6 538.2,60.3 539.3,60.1 540.5,59.8 541.7,59.5 542.9,59.2 544.1,59.0 545.3,58.7 546.5,58.5 547.7,58.2 548.8,58.0 550.0,57.7 551.2,57.5 552.4,57.2 553.6,57.0 554.8,56.7 556.0,56.5 557.1,56.2 558.3,56.0 559.5,55.8 560.7,55.6 561.9,55.3 563.1,55.1 564.3,54.9 565.5,54.7 566.6,54.4 567.8,54.2 569.0,54.0 570.2,54.6 571.4,55.2 572.6,55.9 573.8,56.5 574.9,57.1 576.1,57.7 577.3,58.3 578.5,58.9 579.7,59.5 580.9,60.1 582.1,60.7 583.3,61.2 584.4,61.8 585.6,62.4 586.8,63.0 588.0,63.6 589.2,64.2 590.4,64.7 591.6,65.3 592.7,65.9 593.9,66.4 595.1,67.0 596.3,67.6 597.5,68.1 598.7,68.7 599.9,69.2 601.1,69.8 602.2,70.3 603.4,70.9 604.6,71.4 605.8,72.0 607.0,72.5 608.2,73.1 609.4,73.6 610.5,74.2 611.7,74.7 612.9,75.2 614.1,75.7 615.3,76.3 616.5,76.8 617.7,77.3 618.9,77.8 620.0,78.4 621.2,78.9 622.4,79.4 623.6,79.9 624.8,80.4 626.0,80.9 627.2,81.5 628.3,82.0 629.5,82.5 630.7,83.0 631.9,83.5 633.1,84.0 634.3,84.5 635.5,85.0 636.7,85.5 637.8,85.9 639.0,86.5 640.2,86.9 641.4,87.4 642.6,87.9 643.8,88.4 645.0,88.9 646.1,89.4 647.3,89.8 648.5,90.3 649.7,90.8 650.9,91.3 652.1,91.7 653.3,92.2 654.5,92.6 655.6,93.1 656.8,93.6 658.0,94.0 659.2,94.5 660.4,95.0 661.6,95.4 662.8,95.9 663.9,96.3 665.1,96.8 666.3,97.2 667.5,97.7 668.7,98.1 669.9,98.6 671.1,99.0 672.3,99.5 673.4,99.9 674.6,100.3 675.8,100.8 677.0,101.2 678.2,101.6 679.4,102.1 680.6,102.5 681.7,102.9 682.9,103.4 684.1,103.8 685.3,104.2 686.5,104.6 687.7,105.1 688.9,105.5 690.1,105.9 691.2,106.3 692.4,106.7 693.6,107.1 694.8,107.5 696.0,107.9 697.2,108.3 698.4,108.8 699.5,109.1 700.7,109.6 701.9,109.9 703.1,110.3 704.3,110.7 705.5,111.1 706.7,111.5 707.9,111.9 709.0,112.3 710.2,112.7 711.4,113.1 712.6,113.5 713.8,113.8 715.0,114.2 716.2,114.6 717.3,115.0 718.5,115.3 719.7,115.7 720.9,116.1 722.1,116.5 723.3,116.8 724.5,117.2 725.7,117.6 726.8,118.0 728.0,118.3 729.2,118.7 730.4,119.0 731.6,119.4 732.8,119.8 734.0,120.1 735.1,120.5 736.3,120.8 737.5,121.2 738.7,121.5 739.9,121.9 741.1,122.2 742.3,122.6 743.5,122.9 744.6,123.3 745.8,123.6 747.0,124.0 748.2,124.3 749.4,124.6 750.6,125.0 751.8,125.3 752.9,125.7 754.1,126.0 755.3,126.3 756.5,126.6 757.7,127.0 758.9,127.3 760.1,127.6 761.3,128.0 762.4,128.3 763.6,128.6 764.8,128.9 766.0,129.3"/>
<line x1="606" y1="42" x2="628" y2="42" stroke="#0f62fe" stroke-width="2.2"/>
<text x="634" y="46" font-family="Arial" font-size="12">speed_mps</text>
<polyline fill="none" stroke="#24a148" stroke-width="2.2" points="54.0,266.0 55.2,265.4 56.4,264.9 57.6,264.3 58.7,263.7 59.9,263.1 61.1,262.4 62.3,261.8 63.5,261.2 64.7,260.5 65.9,259.9 67.1,259.2 68.2,258.5 69.4,257.8 70.6,257.1 71.8,256.4 73.0,255.7 74.2,255.0 75.4,254.3 76.5,253.6 77.7,252.9 78.9,252.2 80.1,251.5 81.3,250.8 82.5,250.1 83.7,249.4 84.9,248.7 86.0,248.1 87.2,247.4 88.4,246.7 89.6,246.0 90.8,245.3 92.0,244.6 93.2,243.9 94.3,243.2 95.5,242.5 96.7,241.8 97.9,241.2 99.1,240.5 100.3,239.8 101.5,239.1 102.7,238.4 103.8,237.7 105.0,237.0 106.2,236.4 107.4,235.7 108.6,235.0 109.8,234.3 111.0,233.7 112.1,233.0 113.3,232.3 114.5,231.6 115.7,230.9 116.9,230.3 118.1,229.6 119.3,228.9 120.5,228.3 121.6,227.6 122.8,226.9 124.0,226.3 125.2,225.6 126.4,224.9 127.6,224.3 128.8,223.6 129.9,222.9 131.1,222.3 132.3,221.6 133.5,220.9 134.7,220.3 135.9,219.6 137.1,219.0 138.3,218.3 139.4,217.7 140.6,217.0 141.8,216.4 143.0,215.7 144.2,215.0 145.4,214.4 146.6,213.8 147.7,213.1 148.9,212.5 150.1,211.8 151.3,211.2 152.5,210.5 153.7,209.9 154.9,209.2 156.1,208.6 157.2,208.0 158.4,207.3 159.6,206.7 160.8,206.0 162.0,205.4 163.2,204.8 164.4,204.2 165.5,203.5 166.7,202.9 167.9,202.3 169.1,201.6 170.3,201.0 171.5,200.4 172.7,199.8 173.9,199.2 175.0,198.5 176.2,197.9 177.4,197.3 178.6,196.7 179.8,196.1 181.0,195.5 182.2,194.9 183.3,194.3 184.5,193.7 185.7,193.0 186.9,192.4 188.1,191.8 189.3,191.2 190.5,190.6 191.7,190.0 192.8,189.4 194.0,188.9 195.2,188.3 196.4,187.7 197.6,187.1 198.8,186.5 200.0,185.9 201.1,185.3 202.3,184.7 203.5,184.1 204.7,183.6 205.9,183.0 207.1,182.4 208.3,181.8 209.5,181.2 210.6,180.7 211.8,180.1 213.0,179.5 214.2,179.0 215.4,178.4 216.6,177.8 217.8,177.2 218.9,176.7 220.1,176.1 221.3,175.5 222.5,175.0 223.7,174.4 224.9,173.9 226.1,173.3 227.3,172.7 228.4,172.2 229.6,171.6 230.8,171.1 232.0,170.5 233.2,170.0 234.4,169.4 235.6,168.9 236.7,168.3 237.9,167.8 239.1,167.2 240.3,166.7 241.5,166.1 242.7,165.6 243.9,165.0 245.1,164.5 246.2,163.9 247.4,163.4 248.6,162.9 249.8,162.3 251.0,161.8 252.2,161.2 253.4,160.7 254.5,160.2 255.7,159.6 256.9,159.1 258.1,158.6 259.3,158.0 260.5,157.5 261.7,157.0 262.9,156.4 264.0,155.9 265.2,155.4 266.4,154.9 267.6,154.3 268.8,153.8 270.0,153.3 271.2,152.8 272.3,152.2 273.5,151.7 274.7,151.2 275.9,150.7 277.1,150.2 278.3,149.6 279.5,149.1 280.7,148.6 281.8,148.1 283.0,147.6 284.2,147.0 285.4,146.6 286.6,146.0 287.8,145.5 289.0,145.0 290.1,144.5 291.3,144.0 292.5,143.5 293.7,143.0 294.9,142.5 296.1,142.0 297.3,141.5 298.5,141.0 299.6,140.5 300.8,140.0 302.0,139.5 303.2,138.9 304.4,138.4 305.6,137.9 306.8,137.4 307.9,136.9 309.1,136.4 310.3,135.9 311.5,135.4 312.7,134.9 313.9,134.4 315.1,133.9 316.3,133.4 317.4,132.9 318.6,132.5 319.8,132.0 321.0,131.5 322.2,131.0 323.4,130.6 324.6,130.1 325.7,129.6 326.9,129.2 328.1,128.7 329.3,128.2 330.5,127.8 331.7,127.3 332.9,126.8 334.1,126.3 335.2,125.9 336.4,125.4 337.6,124.9 338.8,124.4 340.0,124.0 341.2,123.5 342.4,123.0 343.5,122.5 344.7,122.1 345.9,121.6 347.1,121.1 348.3,120.6 349.5,120.2 350.7,119.7 351.9,119.2 353.0,118.8 354.2,118.3 355.4,117.8 356.6,117.4 357.8,116.9 359.0,116.4 360.2,115.9 361.3,115.5 362.5,115.0 363.7,114.6 364.9,114.1 366.1,113.7 367.3,113.2 368.5,112.8 369.7,112.3 370.8,111.9 372.0,111.4 373.2,111.0 374.4,110.5 375.6,110.1 376.8,109.6 378.0,109.2 379.1,108.8 380.3,108.3 381.5,107.9 382.7,107.5 383.9,107.0 385.1,106.6 386.3,106.2 387.5,105.8 388.6,105.3 389.8,104.9 391.0,104.5 392.2,104.1 393.4,103.7 394.6,103.3 395.8,102.9 396.9,102.5 398.1,102.0 399.3,101.7 400.5,101.2 401.7,100.8 402.9,100.4 404.1,100.0 405.3,99.6 406.4,99.3 407.6,98.8 408.8,98.5 410.0,98.1 411.2,97.7 412.4,97.3 413.6,96.9 414.7,96.5 415.9,96.1 417.1,95.7 418.3,95.3 419.5,94.9 420.7,94.5 421.9,94.1 423.1,93.7 424.2,93.3 425.4,92.9 426.6,92.5 427.8,92.1 429.0,91.7 430.2,91.3 431.4,90.9 432.5,90.5 433.7,90.1 434.9,89.8 436.1,89.4 437.3,89.0 438.5,88.6 439.7,88.2 440.9,87.8 442.0,87.4 443.2,87.0 444.4,86.7 445.6,86.3 446.8,85.9 448.0,85.5 449.2,85.2 450.3,84.8 451.5,84.4 452.7,84.0 453.9,83.6 455.1,83.3 456.3,82.9 457.5,82.5 458.7,82.2 459.8,81.8 461.0,81.4 462.2,81.0 463.4,80.7 464.6,80.3 465.8,80.0 467.0,79.6 468.1,79.2 469.3,78.9 470.5,78.5 471.7,78.2 472.9,77.8 474.1,77.4 475.3,77.1 476.5,76.7 477.6,76.4 478.8,76.0 480.0,75.7 481.2,75.4 482.4,75.0 483.6,74.7 484.8,74.3 485.9,74.0 487.1,73.7 488.3,73.3 489.5,73.0 490.7,72.6 491.9,72.3 493.1,72.0 494.3,71.7 495.4,71.3 496.6,71.0 497.8,70.7 499.0,70.3 500.2,70.0 501.4,69.7 502.6,69.4 503.7,69.1 504.9,68.7 506.1,68.4 507.3,68.1 508.5,67.8 509.7,67.5 510.9,67.2 512.1,66.8 513.2,66.5 514.4,66.2 515.6,65.9 516.8,65.6 518.0,65.3 519.2,65.0 520.4,64.7 521.5,64.4 522.7,64.1 523.9,63.8 525.1,63.5 526.3,63.2 527.5,62.9 528.7,62.6 529.9,62.3 531.0,62.0 532.2,61.8 533.4,61.5 534.6,61.2 535.8,60.9 537.0,60.6 538.2,60.3 539.3,60.1 540.5,59.8 541.7,59.5 542.9,59.2 544.1,59.0 545.3,58.7 546.5,58.5 547.7,58.2 548.8,58.0 550.0,57.7 551.2,57.5 552.4,57.2 553.6,57.0 554.8,56.7 556.0,56.5 557.1,56.2 558.3,56.0 559.5,55.8 560.7,55.6 561.9,55.3 563.1,55.1 564.3,54.9 565.5,54.7 566.6,54.4 567.8,54.2 569.0,54.0 570.2,54.6 571.4,55.2 572.6,55.9 573.8,56.5 574.9,57.1 576.1,57.7 577.3,58.3 578.5,58.9 579.7,59.5 580.9,60.1 582.1,60.7 583.3,61.2 584.4,61.8 585.6,62.4 586.8,63.0 588.0,63.6 589.2,64.2 590.4,64.7 591.6,65.3 592.7,65.9 593.9,66.4 595.1,67.0 596.3,67.6 597.5,68.1 598.7,68.7 599.9,69.2 601.1,69.8 602.2,70.3 603.4,70.9 604.6,71.4 605.8,72.0 607.0,72.5 608.2,73.1 609.4,73.6 610.5,74.2 611.7,74.7 612.9,75.2 614.1,75.7 615.3,76.3 616.5,76.8 617.7,77.3 618.9,77.8 620.0,78.4 621.2,78.9 622.4,79.4 623.6,79.9 624.8,80.4 626.0,80.9 627.2,81.5 628.3,82.0 629.5,82.5 630.7,83.0 631.9,83.5 633.1,84.0 634.3,84.5 635.5,85.0 636.7,85.5 637.8,85.9 639.0,86.5 640.2,86.9 641.4,87.4 642.6,87.9 643.8,88.4 645.0,88.9 646.1,89.4 647.3,89.8 648.5,90.3 649.7,90.8 650.9,91.3 652.1,91.7 653.3,92.2 654.5,92.6 655.6,93.1 656.8,93.6 658.0,94.0 659.2,94.5 660.4,95.0 661.6,95.4 662.8,95.9 663.9,96.3 665.1,96.8 666.3,97.2 667.5,97.7 668.7,98.1 669.9,98.6 671.1,99.0 672.3,99.5 673.4,99.9 674.6,100.3 675.8,100.8 677.0,101.2 678.2,101.6 679.4,102.1 680.6,102.5 681.7,102.9 682.9,103.4 684.1,103.8 685.3,104.2 686.5,104.6 687.7,105.1 688.9,105.5 690.1,105.9 691.2,106.3 692.4,106.7 693.6,107.1 694.8,107.5 696.0,107.9 697.2,108.3 698.4,108.8 699.5,109.1 700.7,109.6 701.9,109.9 703.1,110.3 704.3,110.7 705.5,111.1 706.7,111.5 707.9,111.9 709.0,112.3 710.2,112.7 711.4,113.1 712.6,113.5 713.8,113.8 715.0,114.2 716.2,114.6 717.3,115.0 718.5,115.3 719.7,115.7 720.9,116.1 722.1,116.5 723.3,116.8 724.5,117.2 725.7,117.6 726.8,118.0 728.0,118.3 729.2,118.7 730.4,119.0 731.6,119.4 732.8,119.8 734.0,120.1 735.1,120.5 736.3,120.8 737.5,121.2 738.7,121.5 739.9,121.9 741.1,122.2 742.3,122.6 743.5,122.9 744.6,123.3 745.8,123.6 747.0,124.0 748.2,124.3 749.4,124.6 750.6,125.0 751.8,125.3 752.9,125.7 754.1,126.0 755.3,126.3 756.5,126.6 757.7,127.0 758.9,127.3 760.1,127.6 761.3,128.0 762.4,128.3 763.6,128.6 764.8,128.9 766.0,129.3"/>
<line x1="606" y1="60" x2="628" y2="60" stroke="#24a148" stroke-width="2.2"/>
<text x="634" y="64" font-family="Arial" font-size="12">airspeed_mps</text>
</svg>