<svg xmlns="http://www.w3.org/2000/svg" width="820" height="320" viewBox="0 0 820 320">
<rect width="100%" height="100%" fill="#ffffff"/>
<text x="54" y="28" font-family="Arial" font-size="18" font-weight="700">Euler Angles</text>
<line x1="54" y1="266" x2="766" y2="266" stroke="#1f2933"/>
<line x1="54" y1="54" x2="54" y2="266" stroke="#1f2933"/>
<text x="54" y="306" font-family="Arial" font-size="12">time (s)</text>
<text x="596" y="306" font-family="Arial" font-size="12">angle (deg)</text>
<text x="58" y="68" font-family="Arial" font-size="11">9.54</text>
<text x="58" y="260" font-family="Arial" font-size="11">0</text>
<polyline fill="none" stroke="#0f62fe" stroke-width="2.2" points="54.0,266.0 55.2,266.0 56.4,266.0 57.6,266.0 58.7,266.0 59.9,266.0 61.1,266.0 62.3,266.0 63.5,266.0 64.7,266.0 65.9,266.0 67.1,266.0 68.2,266.0 69.4,266.0 70.6,266.0 71.8,266.0 73.0,266.0 74.2,266.0 75.4,266.0 76.5,266.0 77.7,266.0 78.9,266.0 80.1,266.0 81.3,266.0 82.5,266.0 83.7,266.0 84.9,266.0 86.0,266.0 87.2,266.0 88.4,266.0 89.6,266.0 90.8,266.0 92.0,266.0 93.2,266.0 94.3,266.0 95.5,266.0 96.7,266.0 97.9,266.0 99.1,266.0 100.3,266.0 101.5,266.0 102.7,266.0 103.8,266.0 105.0,266.0 106.2,266.0 107.4,266.0 108.6,266.0 109.8,266.0 111.0,266.0 112.1,266.0 113.3,266.0 114.5,266.0 115.7,266.0 116.9,266.0 118.1,266.0 119.3,266.0 120.5,266.0 121.6,266.0 122.8,266.0 124.0,266.0 125.2,266.0 126.4,266.0 127.6,266.0 128.8,266.0 129.9,266.0 131.1,266.0 132.3,266.0 133.5,266.0 134.7,266.0 135.9,266.0 137.1,266.0 138.3,266.0 139.4,266.0 140.6,266.0 141.8,266.0 143.0,266.0 144.2,266.0 145.4,266.0 146.6,266.0 147.7,266.0 148.9,266.0 150.1,266.0 151.3,266.0 152.5,266.0 153.7,266.0 154.9,266.0 156.1,266.0 157.2,266.0 158.4,266.0 159.6,266.0 160.8,266.0 162.0,266.0 163.2,266.0 164.4,266.0 165.5,266.0 166.7,266.0 167.9,266.0 169.1,266.0 170.3,266.0 171.5,266.0 172.7,266.0 173.9,266.0 175.0,266.0 176.2,266.0 177.4,266.0 178.6,266.0 179.8,266.0 181.0,266.0 182.2,266.0 183.3,266.0 184.5,266.0 185.7,266.0 186.9,266.0 188.1,266.0 189.3,266.0 190.5,266.0 191.7,266.0 192.8,266.0 194.0,266.0 195.2,266.0 196.4,266.0 197.6,266.0 198.8,266.0 200.0,266.0 201.1,266.0 202.3,266.0 203.5,266.0 204.7,266.0 205.9,266.0 207.1,266.0 208.3,266.0 209.5,266.0 210.6,266.0 211.8,266.0 213.0,266.0 214.2,266.0 215.4,266.0 216.6,266.0 217.8,266.0 218.9,266.0 220.1,266.0 221.3,266.0 222.5,266.0 223.7,266.0 224.9,266.0 226.1,266.0 227.3,266.0 228.4,266.0 229.6,266.0 230.8,266.0 232.0,266.0 233.2,266.0 234.4,266.0 235.6,266.0 236.7,266.0 237.9,266.0 239.1,266.0 240.3,266.0 241.5,266.0 242.7,266.0 243.9,266.0 245.1,266.0 246.2,266.0 247.4,266.0 248.6,266.0 249.8,266.0 251.0,266.0 252.2,266.0 253.4,266.0 254.5,266.0 255.7,266.0 256.9,266.0 258.1,266.0 259.3,266.0 260.5,266.0 261.7,266.0 262.9,266.0 264.0,266.0 265.2,266.0 266.4,266.0 267.6,266.0 268.8,266.0 270.0,266.0 271.2,266.0 272.3,266.0 273.5,266.0 274.7,266.0 275.9,266.0 277.1,266.0 278.3,266.0 279.5,266.0 280.7,266.0 281.8,266.0 283.0,266.0 284.2,266.0 285.4,266.0 286.6,266.0 287.8,266.0 289.0,266.0 290.1,266.0 291.3,266.0 292.5,266.0 293.7,266.0 294.9,266.0 296.1,266.0 297.3,266.0 298.5,266.0 299.6,266.0 300.8,266.0 302.0,266.0 303.2,266.0 304.4,266.0 305.6,266.0 306.8,266.0 307.9,266.0 309.1,266.0 310.3,266.0 311.5,266.0 312.7,266.0 313.9,266.0 315.1,266.0 316.3,266.0 317.4,266.0 318.6,266.0 319.8,266.0 321.0,266.0 322.2,266.0 323.4,266.0 324.6,266.0 325.7,266.0 326.9,266.0 328.1,266.0 329.3,266.0 330.5,266.0 331.7,266.0 332.9,266.0 334.1,266.0 335.2,266.0 336.4,266.0 337.6,266.0 338.8,266.0 340.0,266.0 341.2,266.0 342.4,266.0 343.5,266.0 344.7,266.0 345.9,266.0 347.1,266.0 348.3,266.0 349.5,266.0 350.7,266.0 351.9,266.0 353.0,266.0 354.2,266.0 355.4,266.0 356.6,266.0 357.8,266.0 359.0,266.0 360.2,266.0 361.3,266.0 362.5,266.0 363.7,266.0 364.9,266.0 366.1,266.0 367.3,266.0 368.5,266.0 369.7,266.0 370.8,266.0 372.0,266.0 373.2,266.0 374.4,266.0 375.6,266.0 376.8,266.0 378.0,266.0 379.1,266.0 380.3,266.0 381.5,266.0 382.7,266.0 383.9,266.0 385.1,266.0 386.3,266.0 387.5,266.0 388.6,266.0 389.8,266.0 391.0,266.0 392.2,266.0 393.4,266.0 394.6,266.0 395.8,266.0 396.9,266.0 398.1,266.0 399.3,266.0 400.5,266.0 401.7,266.0 402.9,266.0 404.1,266.0 405.3,266.0 406.4,266.0 407.6,266.0 408.8,266.0 410.0,266.0 411.2,266.0 412.4,266.0 413.6,266.0 414.7,266.0 415.9,266.0 417.1,266.0 418.3,266.0 419.5,266.0 420.7,266.0 421.9,266.0 423.1,266.0 424.2,266.0 425.4,266.0 426.6,266.0 427.8,266.0 429.0,266.0 430.2,266.0 431.4,266.0 432.5,266.0 433.7,266.0 434.9,266.0 436.1,266.0 437.3,266.0 438.5,266.0 439.7,266.0 440.9,266.0 442.0,266.0 443.2,266.0 444.4,266.0 445.6,266.0 446.8,266.0 448.0,266.0 449.2,266.0 450.3,266.0 451.5,266.0 452.7,266.0 453.9,266.0 455.1,266.0 456.3,266.0 457.5,266.0 458.7,266.0 459.8,266.0 461.0,266.0 462.2,266.0 463.4,266.0 464.6,266.0 465.8,266.0 467.0,266.0 468.1,266.0 469.3,266.0 470.5,266.0 471.7,266.0 472.9,266.0 474.1,266.0 475.3,266.0 476.5,266.0 477.6,266.0 478.8,266.0 480.0,266.0 481.2,266.0 482.4,266.0 483.6,266.0 484.8,266.0 485.9,266.0 487.1,266.0 488.3,266.0 489.5,266.0 490.7,266.0 491.9,266.0 493.1,266.0 494.3,266.0 495.4,266.0 496.6,266.0 497.8,266.0 499.0,266.0 500.2,266.0 501.4,266.0 502.6,266.0 503.7,266.0 504.9,266.0 506.1,266.0 507.3,266.0 508.5,266.0 509.7,266.0 510.9,266.0 512.1,266.0 513.2,266.0 514.4,266.0 515.6,266.0 516.8,266.0 518.0,266.0 519.2,266.0 520.4,266.0 521.5,266.0 522.7,266.0 523.9,266.0 525.1,266.0 526.3,266.0 527.5,266.0 528.7,266.0 529.9,266.0 531.0,266.0 532.2,266.0 533.4,266.0 534.6,266.0 535.8,266.0 537.0,266.0 538.2,266.0 539.3,266.0 540.5,266.0 541.7,266.0 542.9,266.0 544.1,266.0 545.3,266.0 546.5,266.0 547.7,266.0 548.8,266.0 550.0,266.0 551.2,266.0 552.4,266.0 553.6,266.0 554.8,266.0 556.0,266.0 557.1,266.0 558.3,266.0 559.5,266.0 560.7,266.0 561.9,266.0 563.1,266.0 564.3,266.0 565.5,266.0 566.6,266.0 567.8,266.0 569.0,266.0 570.2,266.0 571.4,266.0 572.6,266.0 573.8,266.0 574.9,266.0 576.1,266.0 577.3,266.0 578.5,266.0 579.7,266.0 580.9,266.0 582.1,266.0 583.3,266.0 584.4,266.0 585.6,266.0 586.8,266.0 588.0,266.0 589.2,266.0 590.4,266.0 591.6,266.0 592.7,266.0 593.9,266.0 595.1,266.0 596.3,266.0 597.5,266.0 598.7,266.0 599.9,266.0 601.1,266.0 602.2,266.0 603.4,266.0 604.6,266.0 605.8,266.0 607.0,266.0 608.2,266.0 609.4,266.0 610.5,266.0 611.7,266.0 612.9,266.0 614.1,266.0 615.3,266.0 616.5,266.0 617.7,266.0 618.9,266.0 620.0,266.0 621.2,266.0 622.4,266.0 623.6,266.0 624.8,266.0 626.0,266.0 627.2,266.0 628.3,266.0 629.5,266.0 630.7,266.0 631.9,266.0 633.1,266.0 634.3,266.0 635.5,266.0 636.7,266.0 637.8,266.0 639.0,266.0 640.2,266.0 641.4,266.0 642.6,266.0 643.8,266.0 645.0,266.0 646.1,266.0 647.3,266.0 648.5,266.0 649.7,266.0 650.9,266.0 652.1,266.0 653.3,266.0 654.5,266.0 655.6,266.0 656.8,266.0 658.0,266.0 659.2,266.0 660.4,266.0 661.6,266.0 662.8,266.0 663.9,266.0 665.1,266.0 666.3,266.0 667.5,266.0 668.7,266.0 669.9,266.0 671.1,266.0 672.3,266.0 673.4,266.0 674.6,266.0 675.8,266.0 677.0,266.0 678.2,266.0 679.4,266.0 680.6,266.0 681.7,266.0 682.9,266.0 684.1,266.0 685.3,266.0 686.5,266.0 687.7,266.0 688.9,266.0 690.1,266.0 691.2,266.0 692.4,266.0 693.6,266.0 694.8,266.0 696.0,266.0 697.2,266.0 698.4,266.0 699.5,266.0 700.7,266.0 701.9,266.0 703.1,266.0 704.3,266.0 705.5,266.0 706.7,266.0 707.9,266.0 709.0,266.0 710.2,266.0 711.4,266.0 712.6,266.0 713.8,266.0 715.0,266.0 716.2,266.0 717.3,266.0 718.5,266.0 719.7,266.0 720.9,266.0 722.1,266.0 723.3,266.0 724.5,266.0 725.7,266.0 726.8,266.0 728.0,266.0 729.2,266.0 730.4,266.0 731.6,266.0 732.8,266.0 734.0,266.0 735.1,266.0 736.3,266.0 737.5,266.0 738.7,266.0 739.9,266.0 741.1,266.0 742.3,266.0 743.5,266.0 744.6,266.0 745.8,266.0 747.0,266.0 748.2,266.0 749.4,266.0 750.6,266.0 751.8,266.0 752.9,266.0 754.1,266.0 755.3,266.0 756.5,266.0 757.7,266.0 758.9,266.0 760.1,266.0 761.3,266.0 762.4,266.0 763.6,266.0 764.8,266.0 766.0,266.0"/>
<line x1="606" y1="42" x2="628" y2="42" stroke="#0f62fe" stroke-width="2.2"/>
<text x="634" y="46" font-family="Arial" font-size="12">roll_deg</text>
<polyline fill="none" stroke="#24a148" stroke-width="2.2" points="54.0,132.7 55.2,126.8 56.4,118.5 57.6,111.7 58.7,107.7 59.9,105.6 61.1,104.1 62.3,102.5 63.5,101.2 64.7,100.2 65.9,99.6 67.1,99.5 68.2,99.5 69.4,99.7 70.6,100.1 71.8,100.5 73.0,101.1 74.2,101.8 75.4,102.6 76.5,103.4 77.7,104.3 78.9,105.2 80.1,106.1 81.3,107.1 82.5,108.0 83.7,109.0 84.9,110.0 86.0,111.0 87.2,112.0 88.4,112.9 89.6,113.9 90.8,114.9 92.0,115.8 93.2,116.8 94.3,117.7 95.5,118.6 96.7,119.5 97.9,120.4 99.1,121.3 100.3,122.1 101.5,122.9 102.7,123.8 103.8,124.6 105.0,125.3 106.2,126.1 107.4,126.9 108.6,127.6 109.8,128.3 111.0,129.0 112.1,129.7 113.3,130.3 114.5,131.0 115.7,131.6 116.9,132.2 118.1,132.8 119.3,133.4 120.5,134.0 121.6,134.5 122.8,135.1 124.0,135.6 125.2,136.1 126.4,136.6 127.6,137.1 128.8,137.5 129.9,138.0 131.1,138.4 132.3,138.8 133.5,139.2 134.7,139.6 135.9,140.0 137.1,140.4 138.3,140.7 139.4,141.1 140.6,141.4 141.8,141.7 143.0,142.0 144.2,142.3 145.4,142.6 146.6,142.8 147.7,143.1 148.9,143.3 150.1,143.6 151.3,143.7 152.5,143.8 153.7,143.9 154.9,143.8 156.1,143.8 157.2,143.7 158.4,143.5 159.6,143.4 160.8,143.1 162.0,142.9 163.2,142.6 164.4,142.4 165.5,142.1 166.7,141.7 167.9,141.4 169.1,141.0 170.3,140.6 171.5,140.2 172.7,139.8 173.9,139.4 175.0,139.0 176.2,138.5 177.4,138.1 178.6,137.6 179.8,137.2 181.0,136.7 182.2,136.2 183.3,135.7 184.5,135.2 185.7,134.7 186.9,134.2 188.1,133.7 189.3,133.1 190.5,132.6 191.7,132.1 192.8,131.5 194.0,131.0 195.2,130.4 196.4,129.9 197.6,129.3 198.8,128.7 200.0,128.2 201.1,127.6 202.3,127.0 203.5,126.5 204.7,125.9 205.9,125.3 207.1,124.8 208.3,124.2 209.5,123.6 210.6,123.0 211.8,122.4 213.0,121.9 214.2,121.3 215.4,120.7 216.6,120.1 217.8,119.6 218.9,119.0 220.1,118.4 221.3,117.9 222.5,117.3 223.7,116.7 224.9,116.1 226.1,115.6 227.3,115.0 228.4,114.5 229.6,113.9 230.8,113.3 232.0,112.8 233.2,112.2 234.4,111.7 235.6,111.2 236.7,110.6 237.9,110.1 239.1,109.6 240.3,109.0 241.5,108.5 242.7,108.0 243.9,107.5 245.1,107.0 246.2,106.5 247.4,106.0 248.6,105.5 249.8,105.0 251.0,104.5 252.2,104.0 253.4,103.5 254.5,103.0 255.7,102.6 256.9,102.1 258.1,101.6 259.3,101.2 260.5,100.7 261.7,100.3 262.9,99.9 264.0,99.4 265.2,99.0 266.4,98.6 267.6,98.2 268.8,97.8 270.0,97.4 271.2,97.0 272.3,96.6 273.5,96.2 274.7,95.8 275.9,95.5 277.1,95.0 278.3,94.9 279.5,94.0 280.7,94.9 281.8,91.6 283.0,98.0 284.2,82.4 285.4,88.8 286.6,83.7 287.8,97.0 289.0,88.3 290.1,95.7 291.3,81.2 292.5,88.6 293.7,78.4 294.9,90.1 296.1,81.2 297.3,94.2 298.5,85.2 299.6,98.2 300.8,89.2 302.0,100.9 303.2,90.5 304.4,100.2 305.6,87.9 306.8,97.3 307.9,84.7 309.1,94.2 310.3,81.6 311.5,91.0 312.7,78.5 313.9,87.9 315.1,75.4 316.3,84.8 317.4,72.2 318.6,81.7 319.8,69.1 321.0,78.5 322.2,66.0 323.4,75.4 324.6,64.7 325.7,75.9 326.9,65.2 328.1,76.4 329.3,65.7 330.5,76.9 331.7,66.2 332.9,77.4 334.1,66.7 335.2,77.9 336.4,67.2 337.6,78.4 338.8,67.7 340.0,78.9 341.2,68.2 342.4,79.4 343.5,68.7 344.7,79.9 345.9,69.2 347.1,80.4 348.3,69.7 349.5,80.9 350.7,70.2 351.9,81.4 353.0,70.7 354.2,81.7 355.4,70.7 356.6,81.3 357.8,69.9 359.0,80.5 360.2,69.1 361.3,79.7 362.5,68.3 363.7,78.9 364.9,67.5 366.1,78.1 367.3,66.7 368.5,77.3 369.7,65.9 370.8,76.5 372.0,65.1 373.2,75.7 374.4,64.3 375.6,74.9 376.8,63.5 378.0,74.1 379.1,62.7 380.3,73.3 381.5,62.0 382.7,72.6 383.9,61.2 385.1,71.8 386.3,60.4 387.5,71.0 388.6,59.6 389.8,70.2 391.0,58.8 392.2,69.4 393.4,58.0 394.6,68.6 395.8,57.2 396.9,67.8 398.1,56.4 399.3,67.0 400.5,55.6 401.7,66.2 402.9,54.8 404.1,65.4 405.3,54.0 406.4,64.6 407.6,54.2 408.8,65.7 410.0,55.3 411.2,66.8 412.4,56.4 413.6,68.0 414.7,57.5 415.9,69.1 417.1,58.7 418.3,70.2 419.5,59.8 420.7,71.3 421.9,60.9 423.1,72.5 424.2,62.0 425.4,73.6 426.6,63.2 427.8,74.7 429.0,64.3 430.2,75.8 431.4,65.4 432.5,77.0 433.7,66.5 434.9,78.1 436.1,67.6 437.3,79.2 438.5,68.8 439.7,80.3 440.9,69.9 442.0,81.5 443.2,71.0 444.4,82.6 445.6,72.1 446.8,83.7 448.0,73.3 449.2,84.8 450.3,74.4 451.5,85.9 452.7,75.5 453.9,87.1 455.1,76.6 456.3,88.2 457.5,77.8 458.7,89.3 459.8,78.9 461.0,90.4 462.2,80.0 463.4,91.6 464.6,81.1 465.8,92.7 467.0,82.3 468.1,93.8 469.3,83.4 470.5,94.9 471.7,84.5 472.9,96.1 474.1,85.6 475.3,97.2 476.5,86.7 477.6,98.3 478.8,87.9 480.0,99.4 481.2,89.0 482.4,100.5 483.6,90.1 484.8,101.7 485.9,91.2 487.1,102.8 488.3,92.4 489.5,103.9 490.7,93.5 491.9,105.0 493.1,94.6 494.3,106.2 495.4,95.7 496.6,107.3 497.8,96.9 499.0,108.4 500.2,98.0 501.4,109.5 502.6,99.1 503.7,110.7 504.9,100.2 506.1,111.8 507.3,101.4 508.5,112.9 509.7,102.5 510.9,114.0 512.1,103.6 513.2,115.2 514.4,104.7 515.6,116.3 516.8,105.8 518.0,117.4 519.2,107.0 520.4,118.5 521.5,108.1 522.7,119.6 523.9,109.2 525.1,120.8 526.3,110.3 527.5,121.9 528.7,111.5 529.9,123.0 531.0,112.6 532.2,124.1 533.4,113.7 534.6,125.3 535.8,114.8 537.0,126.4 538.2,116.0 539.3,126.7 540.5,115.5 541.7,126.3 542.9,115.1 544.1,125.9 545.3,114.6 546.5,125.4 547.7,114.2 548.8,125.0 550.0,113.8 551.2,124.6 552.4,113.3 553.6,124.1 554.8,112.9 556.0,123.7 557.1,112.5 558.3,123.2 559.5,112.0 560.7,122.8 561.9,111.6 563.1,122.4 564.3,111.2 565.5,121.9 566.6,110.7 567.8,121.5 569.0,110.3 570.2,121.1 571.4,109.8 572.6,120.6 573.8,109.4 574.9,120.2 576.1,109.0 577.3,119.8 578.5,108.5 579.7,119.3 580.9,108.1 582.1,118.9 583.3,107.7 584.4,118.4 585.6,107.2 586.8,118.0 588.0,106.8 589.2,117.6 590.4,106.4 591.6,117.1 592.7,105.9 593.9,116.7 595.1,105.5 596.3,116.3 597.5,105.0 598.7,115.8 599.9,104.6 601.1,115.4 602.2,104.2 603.4,115.0 604.6,103.7 605.8,114.5 607.0,103.3 608.2,114.1 609.4,102.9 610.5,113.6 611.7,102.4 612.9,113.2 614.1,102.0 615.3,112.8 616.5,101.6 617.7,112.3 618.9,101.1 620.0,111.9 621.2,100.7 622.4,111.5 623.6,100.3 624.8,111.0 626.0,99.8 627.2,110.6 628.3,99.4 629.5,110.2 630.7,98.9 631.9,109.7 633.1,98.5 634.3,109.3 635.5,98.1 636.7,108.8 637.8,97.6 639.0,108.4 640.2,97.2 641.4,108.0 642.6,96.8 643.8,107.5 645.0,96.3 646.1,107.1 647.3,95.9 648.5,106.7 649.7,95.5 650.9,106.2 652.1,95.0 653.3,105.8 654.5,94.6 655.6,105.4 656.8,94.1 658.0,104.9 659.2,93.7 660.4,104.5 661.6,93.3 662.8,104.0 663.9,92.8 665.1,103.6 666.3,92.4 667.5,103.2 668.7,92.0 669.9,102.7 671.1,91.5 672.3,102.3 673.4,91.1 674.6,101.9 675.8,90.7 677.0,101.4 678.2,90.2 679.4,101.0 680.6,89.8 681.7,100.7 682.9,89.9 684.1,101.0 685.3,90.2 686.5,101.4 687.7,90.5 688.9,101.7 690.1,90.8 691.2,102.0 692.4,91.2 693.6,102.3 694.8,91.5 696.0,102.7 697.2,91.8 698.4,103.0 699.5,92.2 700.7,103.3 701.9,92.5 703.1,103.6 704.3,92.8 705.5,104.0 706.7,93.1 707.9,104.3 709.0,93.5 710.2,104.6 711.4,93.8 712.6,104.9 713.8,94.1 715.0,105.3 716.2,94.4 717.3,105.6 718.5,94.8 719.7,105.9 720.9,95.1 722.1,106.3 723.3,95.5 724.5,106.8 725.7,96.2 726.8,107.5 728.0,96.9 729.2,108.3 730.4,97.6 731.6,109.0 732.8,98.4 734.0,109.8 735.1,99.1 736.3,110.5 737.5,99.9 738.7,111.2 739.9,100.6 741.1,112.0 742.3,101.4 743.5,112.8 744.6,102.3 745.8,113.8 747.0,103.3 748.2,114.8 749.4,104.3 750.6,115.7 751.8,105.2 752.9,116.7 754.1,106.2 755.3,117.7 756.5,107.3 757.7,118.9 758.9,108.4 760.1,120.0 761.3,109.6 762.4,121.1 763.6,110.7 764.8,122.3 766.0,111.9"/>
<line x1="606" y1="60" x2="628" y2="60" stroke="#24a148" stroke-width="2.2"/>
<text x="634" y="64" font-family="Arial" font-size="12">pitch_deg</text>
<polyline fill="none" stroke="#da1e28" stroke-width="2.2" points="54.0,266.0 55.2,266.0 56.4,266.0 57.6,266.0 58.7,266.0 59.9,266.0 61.1,266.0 62.3,266.0 63.5,266.0 64.7,266.0 65.9,266.0 67.1,266.0 68.2,266.0 69.4,266.0 70.6,266.0 71.8,266.0 73.0,266.0 74.2,266.0 75.4,266.0 76.5,266.0 77.7,266.0 78.9,266.0 80.1,266.0 81.3,266.0 82.5,266.0 83.7,266.0 84.9,266.0 86.0,266.0 87.2,266.0 88.4,266.0 89.6,266.0 90.8,266.0 92.0,266.0 93.2,266.0 94.3,266.0 95.5,266.0 96.7,266.0 97.9,266.0 99.1,266.0 100.3,266.0 101.5,266.0 102.7,266.0 103.8,266.0 105.0,266.0 106.2,266.0 107.4,266.0 108.6,266.0 109.8,266.0 111.0,266.0 112.1,266.0 113.3,266.0 114.5,266.0 115.7,266.0 116.9,266.0 118.1,266.0 119.3,266.0 120.5,266.0 121.6,266.0 122.8,266.0 124.0,266.0 125.2,266.0 126.4,266.0 127.6,266.0 128.8,266.0 129.9,266.0 131.1,266.0 132.3,266.0 133.5,266.0 134.7,266.0 135.9,266.0 137.1,266.0 138.3,266.0 139.4,266.0 140.6,266.0 141.8,266.0 143.0,266.0 144.2,266.0 145.4,266.0 146.6,266.0 147.7,266.0 148.9,266.0 150.1,266.0 151.3,266.0 152.5,266.0 153.7,266.0 154.9,266.0 156.1,266.0 157.2,266.0 158.4,266.0 159.6,266.0 160.8,266.0 162.0,266.0 163.2,266.0 164.4,266.0 165.5,266.0 166.7,266.0 167.9,266.0 169.1,266.0 170.3,266.0 171.5,266.0 172.7,266.0 173.9,266.0 175.0,266.0 176.2,266.0 177.4,266.0 178.6,266.0 179.8,266.0 181.0,266.0 182.2,266.0 183.3,266.0 184.5,266.0 185.7,266.0 186.9,266.0 188.1,266.0 189.3,266.0 190.5,266.0 191.7,266.0 192.8,266.0 194.0,266.0 195.2,266.0 196.4,266.0 197.6,266.0 198.8,266.0 200.0,266.0 201.1,266.0 202.3,266.0 203.5,266.0 204.7,266.0 205.9,266.0 207.1,266.0 208.3,266.0 209.5,266.0 210.6,266.0 211.8,266.0 213.0,266.0 214.2,266.0 215.4,266.0 216.6,266.0 217.8,266.0 218.9,266.0 220.1,266.0 221.3,266.0 222.5,266.0 223.7,266.0 224.9,266.0 226.1,266.0 227.3,266.0 228.4,266.0 229.6,266.0 230.8,266.0 232.0,266.0 233.2,266.0 234.4,266.0 235.6,266.0 236.7,266.0 237.9,266.0 239.1,266.0 240.3,266.0 241.5,266.0 242.7,266.0 243.9,266.0 245.1,266.0 246.2,266.0 247.4,266.0 248.6,266.0 249.8,266.0 251.0,266.0 252.2,266.0 253.4,266.0 254.5,266.0 255.7,266.0 256.9,266.0 258.1,266.0 259.3,266.0 260.5,266.0 261.7,266.0 262.9,266.0 264.0,266.0 265.2,266.0 266.4,266.0 267.6,266.0 268.8,266.0 270.0,266.0 271.2,266.0 272.3,266.0 273.5,266.0 274.7,266.0 275.9,266.0 277.1,266.0 278.3,266.0 279.5,266.0 280.7,266.0 281.8,266.0 283.0,266.0 284.2,266.0 285.4,266.0 286.6,266.0 287.8,266.0 289.0,266.0 290.1,266.0 291.3,266.0 292.5,266.0 293.7,266.0 294.9,266.0 296.1,266.0 297.3,266.0 298.5,266.0 299.6,266.0 300.8,266.0 302.0,266.0 303.2,266.0 304.4,266.0 305.6,266.0 306.8,266.0 307.9,266.0 309.1,266.0 310.3,266.0 311.5,266.0 312.7,266.0 313.9,266.0 315.1,266.0 316.3,266.0 317.4,266.0 318.6,266.0 319.8,266.0 321.0,266.0 322.2,266.0 323.4,266.0 324.6,266.0 325.7,266.0 326.9,266.0 328.1,266.0 329.3,266.0 330.5,266.0 331.7,266.0 332.9,266.0 334.1,266.0 335.2,266.0 336.4,266.0 337.6,266.0 338.8,266.0 340.0,266.0 341.2,266.0 342.4,266.0 343.5,266.0 344.7,266.0 345.9,266.0 347.1,266.0 348.3,266.0 349.5,266.0 350.7,266.0 351.9,266.0 353.0,266.0 354.2,266.0 355.4,266.0 356.6,266.0 357.8,266.0 359.0,266.0 360.2,266.0 361.3,266.0 362.5,266.0 363.7,266.0 364.9,266.0 366.1,266.0 367.3,266.0 368.5,266.0 369.7,266.0 370.8,266.0 372.0,266.0 373.2,266.0 374.4,266.0 375.6,266.0 376.8,266.0 378.0,266.0 379.1,266.0 380.3,266.0 381.5,266.0 382.7,266.0 383.9,266.0 385.1,266.0 386.3,266.0 387.5,266.0 388.6,266.0 389.8,266.0 391.0,266.0 392.2,266.0 393.4,266.0 394.6,266.0 395.8,266.0 396.9,266.0 398.1,266.0 399.3,266.0 400.5,266.0 401.7,266.0 402.9,266.0 404.1,266.0 405.3,266.0 406.4,266.0 407.6,266.0 408.8,266.0 410.0,266.0 411.2,266.0 412.4,266.0 413.6,266.0 414.7,266.0 415.9,266.0 417.1,266.0 418.3,266.0 419.5,266.0 420.7,266.0 421.9,266.0 423.1,266.0 424.2,266.0 425.4,266.0 426.6,266.0 427.8,266.0 429.0,266.0 430.2,266.0 431.4,266.0 432.5,266.0 433.7,266.0 434.9,266.0 436.1,266.0 437.3,266.0 438.5,266.0 439.7,266.0 440.9,266.0 442.0,266.0 443.2,266.0 444.4,266.0 445.6,266.0 446.8,266.0 448.0,266.0 449.2,266.0 450.3,266.0 451.5,266.0 452.7,266.0 453.9,266.0 455.1,266.0 456.3,266.0 457.5,266.0 458.7,266.0 459.8,266.0 461.0,266.0 462.2,266.0 463.4,266.0 464.6,266.0 465.8,266.0 467.0,266.0 468.1,266.0 469.3,266.0 470.5,266.0 471.7,266.0 472.9,266.0 474.1,266.0 475.3,266.0 476.5,266.0 477.6,266.0 478.8,266.0 480.0,266.0 481.2,266.0 482.4,266.0 483.6,266.0 484.8,266.0 485.9,266.0 487.1,266.0 488.3,266.0 489.5,266.0 490.7,266.0 491.9,266.0 493.1,266.0 494.3,266.0 495.4,266.0 496.6,266.0 497.8,266.0 499.0,266.0 500.2,266.0 501.4,266.0 502.6,266.0 503.7,266.0 504.9,266.0 506.1,266.0 507.3,266.0 508.5,266.0 509.7,266.0 510.9,266.0 512.1,266.0 513.2,266.0 514.4,266.0 515.6,266.0 516.8,266.0 518.0,266.0 519.2,266.0 520.4,266.0 521.5,266.0 522.7,266.0 523.9,266.0 525.1,266.0 526.3,266.0 527.5,266.0 528.7,266.0 529.9,266.0 531.0,266.0 532.2,266.0 533.4,266.0 534.6,266.0 535.8,266.0 537.0,266.0 538.2,266.0 539.3,266.0 540.5,266.0 541.7,266.0 542.9,266.0 544.1,266.0 545.3,266.0 546.5,266.0 547.7,266.0 548.8,266.0 550.0,266.0 551.2,266.0 552.4,266.0 553.6,266.0 554.8,266.0 556.0,266.0 557.1,266.0 558.3,266.0 559.5,266.0 560.7,266.0 561.9,266.0 563.1,266.0 564.3,266.0 565.5,266.0 566.6,266.0 567.8,266.0 569.0,266.0 570.2,266.0 571.4,266.0 572.6,266.0 573.8,266.0 574.9,266.0 576.1,266.0 577.3,266.0 578.5,266.0 579.7,266.0 580.9,266.0 582.1,266.0 583.3,266.0 584.4,266.0 585.6,266.0 586.8,266.0 588.0,266.0 589.2,266.0 590.4,266.0 591.6,266.0 592.7,266.0 593.9,266.0 595.1,266.0 596.3,266.0 597.5,266.0 598.7,266.0 599.9,266.0 601.1,266.0 602.2,266.0 603.4,266.0 604.6,266.0 605.8,266.0 607.0,266.0 608.2,266.0 609.4,266.0 610.5,266.0 611.7,266.0 612.9,266.0 614.1,266.0 615.3,266.0 616.5,266.0 617.7,266.0 618.9,266.0 620.0,266.0 621.2,266.0 622.4,266.0 623.6,266.0 624.8,266.0 626.0,266.0 627.2,266.0 628.3,266.0 629.5,266.0 630.7,266.0 631.9,266.0 633.1,266.0 634.3,266.0 635.5,266.0 636.7,266.0 637.8,266.0 639.0,266.0 640.2,266.0 641.4,266.0 642.6,266.0 643.8,266.0 645.0,266.0 646.1,266.0 647.3,266.0 648.5,266.0 649.7,266.0 650.9,266.0 652.1,266.0 653.3,266.0 654.5,266.0 655.6,266.0 656.8,266.0 658.0,266.0 659.2,266.0 660.4,266.0 661.6,266.0 662.8,266.0 663.9,266.0 665.1,266.0 666.3,266.0 667.5,266.0 668.7,266.0 669.9,266.0 671.1,266.0 672.3,266.0 673.4,266.0 674.6,266.0 675.8,266.0 677.0,266.0 678.2,266.0 679.4,266.0 680.6,266.0 681.7,266.0 682.9,266.0 684.1,266.0 685.3,266.0 686.5,266.0 687.7,266.0 688.9,266.0 690.1,266.0 691.2,266.0 692.4,266.0 693.6,266.0 694.8,266.0 696.0,266.0 697.2,266.0 698.4,266.0 699.5,266.0 700.7,266.0 701.9,266.0 703.1,266.0 704.3,266.0 705.5,266.0 706.7,266.0 707.9,266.0 709.0,266.0 710.2,266.0 711.4,266.0 712.6,266.0 713.8,266.0 715.0,266.0 716.2,266.0 717.3,266.0 718.5,266.0 719.7,266.0 720.9,266.0 722.1,266.0 723.3,266.0 724.5,266.0 725.7,266.0 726.8,266.0 728.0,266.0 729.2,266.0 730.4,266.0 731.6,266.0 732.8,266.0 734.0,266.0 735.1,266.0 736.3,266.0 737.5,266.0 738.7,266.0 739.9,266.0 741.1,266.0 742.3,266.0 743.5,266.0 744.6,266.0 745.8,266.0 747.0,266.0 748.2,266.0 749.4,266.0 750.6,266.0 751.8,266.0 752.9,266.0 754.1,266.0 755.3,266.0 756.5,266.0 757.7,266.0 758.9,266.0 760.1,266.0 761.3,266.0 762.4,266.0 763.6,266.0 764.8,266.0 766.0,266.0"/>
<line x1="606" y1="78" x2="628" y2="78" stroke="#da1e28" stroke-width="2.2"/>
<text x="634" y="82" font-family="Arial" font-size="12">yaw_deg</text>
</svg>