<svg xmlns="http://www.w3.org/2000/svg" width="820" height="320" viewBox="0 0 820 320">
<rect width="100%" height="100%" fill="#ffffff"/>
<text x="54" y="28" font-family="Arial" font-size="18" font-weight="700">Body Rates</text>
<line x1="54" y1="266" x2="766" y2="266" stroke="#1f2933"/>
<line x1="54" y1="54" x2="54" y2="266" stroke="#1f2933"/>
<text x="54" y="306" font-family="Arial" font-size="12">time (s)</text>
<text x="596" y="306" font-family="Arial" font-size="12">rate (deg/s)</text>
<text x="58" y="68" font-family="Arial" font-size="11">19.9</text>
<text x="58" y="260" font-family="Arial" font-size="11">-23.4</text>
<polyline fill="none" stroke="#0f62fe" stroke-width="2.2" points="54.0,151.4 55.2,151.4 56.4,151.4 57.6,151.4 58.7,151.4 59.9,151.4 61.1,151.4 62.3,151.4 63.5,151.4 64.7,151.4 65.9,151.4 67.1,151.4 68.2,151.4 69.4,151.4 70.6,151.4 71.8,151.4 73.0,151.4 74.2,151.4 75.4,151.4 76.5,151.4 77.7,151.4 78.9,151.4 80.1,151.4 81.3,151.4 82.5,151.4 83.7,151.4 84.9,151.4 86.0,151.4 87.2,151.4 88.4,151.4 89.6,151.4 90.8,151.4 92.0,151.4 93.2,151.4 94.3,151.4 95.5,151.4 96.7,151.4 97.9,151.4 99.1,151.4 100.3,151.4 101.5,151.4 102.7,151.4 103.8,151.4 105.0,151.4 106.2,151.4 107.4,151.4 108.6,151.4 109.8,151.4 111.0,151.4 112.1,151.4 113.3,151.4 114.5,151.4 115.7,151.4 116.9,151.4 118.1,151.4 119.3,151.4 120.5,151.4 121.6,151.4 122.8,151.4 124.0,151.4 125.2,151.4 126.4,151.4 127.6,151.4 128.8,151.4 129.9,151.4 131.1,151.4 132.3,151.4 133.5,151.4 134.7,151.4 135.9,151.4 137.1,151.4 138.3,151.4 139.4,151.4 140.6,151.4 141.8,151.4 143.0,151.4 144.2,151.4 145.4,151.4 146.6,151.4 147.7,151.4 148.9,151.4 150.1,151.4 151.3,151.4 152.5,151.4 153.7,151.4 154.9,151.4 156.1,151.4 157.2,151.4 158.4,151.4 159.6,151.4 160.8,151.4 162.0,151.4 163.2,151.4 164.4,151.4 165.5,151.4 166.7,151.4 167.9,151.4 169.1,151.4 170.3,151.4 171.5,151.4 172.7,151.4 173.9,151.4 175.0,151.4 176.2,151.4 177.4,151.4 178.6,151.4 179.8,151.4 181.0,151.4 182.2,151.4 183.3,151.4 184.5,151.4 185.7,151.4 186.9,151.4 188.1,151.4 189.3,151.4 190.5,151.4 191.7,151.4 192.8,151.4 194.0,151.4 195.2,151.4 196.4,151.4 197.6,151.4 198.8,151.4 200.0,151.4 201.1,151.4 202.3,151.4 203.5,151.4 204.7,151.4 205.9,151.4 207.1,151.4 208.3,151.4 209.5,151.4 210.6,151.4 211.8,151.4 213.0,151.4 214.2,151.4 215.4,151.4 216.6,151.4 217.8,151.4 218.9,151.4 220.1,151.4 221.3,151.4 222.5,151.4 223.7,151.4 224.9,151.4 226.1,151.4 227.3,151.4 228.4,151.4 229.6,151.4 230.8,151.4 232.0,151.4 233.2,151.4 234.4,151.4 235.6,151.4 236.7,151.4 237.9,151.4 239.1,151.4 240.3,151.4 241.5,151.4 242.7,151.4 243.9,151.4 245.1,151.4 246.2,151.4 247.4,151.4 248.6,151.4 249.8,151.4 251.0,151.4 252.2,151.4 253.4,151.4 254.5,151.4 255.7,151.4 256.9,151.4 258.1,151.4 259.3,151.4 260.5,151.4 261.7,151.4 262.9,151.4 264.0,151.4 265.2,151.4 266.4,151.4 267.6,151.4 268.8,151.4 270.0,151.4 271.2,151.4 272.3,151.4 273.5,151.4 274.7,151.4 275.9,151.4 277.1,151.4 278.3,151.4 279.5,151.4 280.7,151.4 281.8,151.4 283.0,151.4 284.2,151.4 285.4,151.4 286.6,151.4 287.8,151.4 289.0,151.4 290.1,151.4 291.3,151.4 292.5,151.4 293.7,151.4 294.9,151.4 296.1,151.4 297.3,151.4 298.5,151.4 299.6,151.4 300.8,151.4 302.0,151.4 303.2,151.4 304.4,151.4 305.6,151.4 306.8,151.4 307.9,151.4 309.1,151.4 310.3,151.4 311.5,151.4 312.7,151.4 313.9,151.4 315.1,151.4 316.3,151.4 317.4,151.4 318.6,151.4 319.8,151.4 321.0,151.4 322.2,151.4 323.4,151.4 324.6,151.4 325.7,151.4 326.9,151.4 328.1,151.4 329.3,151.4 330.5,151.4 331.7,151.4 332.9,151.4 334.1,151.4 335.2,151.4 336.4,151.4 337.6,151.4 338.8,151.4 340.0,151.4 341.2,151.4 342.4,151.4 343.5,151.4 344.7,151.4 345.9,151.4 347.1,151.4 348.3,151.4 349.5,151.4 350.7,151.4 351.9,151.4 353.0,151.4 354.2,151.4 355.4,151.4 356.6,151.4 357.8,151.4 359.0,151.4 360.2,151.4 361.3,151.4 362.5,151.4 363.7,151.4 364.9,151.4 366.1,151.4 367.3,151.4 368.5,151.4 369.7,151.4 370.8,151.4 372.0,151.4 373.2,151.4 374.4,151.4 375.6,151.4 376.8,151.4 378.0,151.4 379.1,151.4 380.3,151.4 381.5,151.4 382.7,151.4 383.9,151.4 385.1,151.4 386.3,151.4 387.5,151.4 388.6,151.4 389.8,151.4 391.0,151.4 392.2,151.4 393.4,151.4 394.6,151.4 395.8,151.4 396.9,151.4 398.1,151.4 399.3,151.4 400.5,151.4 401.7,151.4 402.9,151.4 404.1,151.4 405.3,151.4 406.4,151.4 407.6,151.4 408.8,151.4 410.0,151.4 411.2,151.4 412.4,151.4 413.6,151.4 414.7,151.4 415.9,151.4 417.1,151.4 418.3,151.4 419.5,151.4 420.7,151.4 421.9,151.4 423.1,151.4 424.2,151.4 425.4,151.4 426.6,151.4 427.8,151.4 429.0,151.4 430.2,151.4 431.4,151.4 432.5,151.4 433.7,151.4 434.9,151.4 436.1,151.4 437.3,151.4 438.5,151.4 439.7,151.4 440.9,151.4 442.0,151.4 443.2,151.4 444.4,151.4 445.6,151.4 446.8,151.4 448.0,151.4 449.2,151.4 450.3,151.4 451.5,151.4 452.7,151.4 453.9,151.4 455.1,151.4 456.3,151.4 457.5,151.4 458.7,151.4 459.8,151.4 461.0,151.4 462.2,151.4 463.4,151.4 464.6,151.4 465.8,151.4 467.0,151.4 468.1,151.4 469.3,151.4 470.5,151.4 471.7,151.4 472.9,151.4 474.1,151.4 475.3,151.4 476.5,151.4 477.6,151.4 478.8,151.4 480.0,151.4 481.2,151.4 482.4,151.4 483.6,151.4 484.8,151.4 485.9,151.4 487.1,151.4 488.3,151.4 489.5,151.4 490.7,151.4 491.9,151.4 493.1,151.4 494.3,151.4 495.4,151.4 496.6,151.4 497.8,151.4 499.0,151.4 500.2,151.4 501.4,151.4 502.6,151.4 503.7,151.4 504.9,151.4 506.1,151.4 507.3,151.4 508.5,151.4 509.7,151.4 510.9,151.4 512.1,151.4 513.2,151.4 514.4,151.4 515.6,151.4 516.8,151.4 518.0,151.4 519.2,151.4 520.4,151.4 521.5,151.4 522.7,151.4 523.9,151.4 525.1,151.4 526.3,151.4 527.5,151.4 528.7,151.4 529.9,151.4 531.0,151.4 532.2,151.4 533.4,151.4 534.6,151.4 535.8,151.4 537.0,151.4 538.2,151.4 539.3,151.4 540.5,151.4 541.7,151.4 542.9,151.4 544.1,151.4 545.3,151.4 546.5,151.4 547.7,151.4 548.8,151.4 550.0,151.4 551.2,151.4 552.4,151.4 553.6,151.4 554.8,151.4 556.0,151.4 557.1,151.4 558.3,151.4 559.5,151.4 560.7,151.4 561.9,151.4 563.1,151.4 564.3,151.4 565.5,151.4 566.6,151.4 567.8,151.4 569.0,151.4 570.2,151.4 571.4,151.4 572.6,151.4 573.8,151.4 574.9,151.4 576.1,151.4 577.3,151.4 578.5,151.4 579.7,151.4 580.9,151.4 582.1,151.4 583.3,151.4 584.4,151.4 585.6,151.4 586.8,151.4 588.0,151.4 589.2,151.4 590.4,151.4 591.6,151.4 592.7,151.4 593.9,151.4 595.1,151.4 596.3,151.4 597.5,151.4 598.7,151.4 599.9,151.4 601.1,151.4 602.2,151.4 603.4,151.4 604.6,151.4 605.8,151.4 607.0,151.4 608.2,151.4 609.4,151.4 610.5,151.4 611.7,151.4 612.9,151.4 614.1,151.4 615.3,151.4 616.5,151.4 617.7,151.4 618.9,151.4 620.0,151.4 621.2,151.4 622.4,151.4 623.6,151.4 624.8,151.4 626.0,151.4 627.2,151.4 628.3,151.4 629.5,151.4 630.7,151.4 631.9,151.4 633.1,151.4 634.3,151.4 635.5,151.4 636.7,151.4 637.8,151.4 639.0,151.4 640.2,151.4 641.4,151.4 642.6,151.4 643.8,151.4 645.0,151.4 646.1,151.4 647.3,151.4 648.5,151.4 649.7,151.4 650.9,151.4 652.1,151.4 653.3,151.4 654.5,151.4 655.6,151.4 656.8,151.4 658.0,151.4 659.2,151.4 660.4,151.4 661.6,151.4 662.8,151.4 663.9,151.4 665.1,151.4 666.3,151.4 667.5,151.4 668.7,151.4 669.9,151.4 671.1,151.4 672.3,151.4 673.4,151.4 674.6,151.4 675.8,151.4 677.0,151.4 678.2,151.4 679.4,151.4 680.6,151.4 681.7,151.4 682.9,151.4 684.1,151.4 685.3,151.4 686.5,151.4 687.7,151.4 688.9,151.4 690.1,151.4 691.2,151.4 692.4,151.4 693.6,151.4 694.8,151.4 696.0,151.4 697.2,151.4 698.4,151.4 699.5,151.4 700.7,151.4 701.9,151.4 703.1,151.4 704.3,151.4 705.5,151.4 706.7,151.4 707.9,151.4 709.0,151.4 710.2,151.4 711.4,151.4 712.6,151.4 713.8,151.4 715.0,151.4 716.2,151.4 717.3,151.4 718.5,151.4 719.7,151.4 720.9,151.4 722.1,151.4 723.3,151.4 724.5,151.4 725.7,151.4 726.8,151.4 728.0,151.4 729.2,151.4 730.4,151.4 731.6,151.4 732.8,151.4 734.0,151.4 735.1,151.4 736.3,151.4 737.5,151.4 738.7,151.4 739.9,151.4 741.1,151.4 742.3,151.4 743.5,151.4 744.6,151.4 745.8,151.4 747.0,151.4 748.2,151.4 749.4,151.4 750.6,151.4 751.8,151.4 752.9,151.4 754.1,151.4 755.3,151.4 756.5,151.4 757.7,151.4 758.9,151.4 760.1,151.4 761.3,151.4 762.4,151.4 763.6,151.4 764.8,151.4 766.0,151.4"/>
<line x1="606" y1="42" x2="628" y2="42" stroke="#0f62fe" stroke-width="2.2"/>
<text x="634" y="46" font-family="Arial" font-size="12">p_dps</text>
<polyline fill="none" stroke="#24a148" stroke-width="2.2" points="54.0,151.4 55.2,194.7 56.4,212.6 57.6,201.1 58.7,180.4 59.9,166.8 61.1,162.7 62.3,162.6 63.5,161.6 64.7,158.7 65.9,155.2 67.1,152.6 68.2,151.0 69.4,149.9 70.6,148.9 71.8,147.9 73.0,147.0 74.2,146.3 75.4,145.8 76.5,145.4 77.7,145.0 78.9,144.7 80.1,144.5 81.3,144.4 82.5,144.3 83.7,144.2 84.9,144.2 86.0,144.1 87.2,144.2 88.4,144.2 89.6,144.2 90.8,144.3 92.0,144.4 93.2,144.5 94.3,144.6 95.5,144.7 96.7,144.8 97.9,144.9 99.1,145.0 100.3,145.1 101.5,145.3 102.7,145.4 103.8,145.5 105.0,145.6 106.2,145.8 107.4,145.9 108.6,146.0 109.8,146.1 111.0,146.3 112.1,146.4 113.3,146.5 114.5,146.6 115.7,146.7 116.9,146.9 118.1,147.0 119.3,147.1 120.5,147.2 121.6,147.3 122.8,147.4 124.0,147.6 125.2,147.7 126.4,147.8 127.6,147.9 128.8,148.0 129.9,148.1 131.1,148.2 132.3,148.3 133.5,148.4 134.7,148.5 135.9,148.6 137.1,148.7 138.3,148.8 139.4,148.9 140.6,149.0 141.8,149.1 143.0,149.2 144.2,149.3 145.4,149.3 146.6,149.4 147.7,149.5 148.9,149.6 150.1,149.7 151.3,149.9 152.5,150.8 153.7,151.2 154.9,151.4 156.1,151.9 157.2,152.2 158.4,152.4 159.6,152.7 160.8,152.9 162.0,153.1 163.2,153.3 164.4,153.5 165.5,153.6 166.7,153.8 167.9,153.9 169.1,154.0 170.3,154.2 171.5,154.3 172.7,154.4 173.9,154.5 175.0,154.5 176.2,154.6 177.4,154.7 178.6,154.8 179.8,154.8 181.0,154.9 182.2,155.0 183.3,155.0 184.5,155.1 185.7,155.1 186.9,155.2 188.1,155.2 189.3,155.3 190.5,155.3 191.7,155.3 192.8,155.4 194.0,155.4 195.2,155.4 196.4,155.4 197.6,155.5 198.8,155.5 200.0,155.5 201.1,155.5 202.3,155.5 203.5,155.6 204.7,155.6 205.9,155.6 207.1,155.6 208.3,155.6 209.5,155.6 210.6,155.6 211.8,155.6 213.0,155.6 214.2,155.6 215.4,155.6 216.6,155.6 217.8,155.6 218.9,155.6 220.1,155.6 221.3,155.6 222.5,155.6 223.7,155.5 224.9,155.5 226.1,155.5 227.3,155.5 228.4,155.5 229.6,155.5 230.8,155.4 232.0,155.4 233.2,155.4 234.4,155.4 235.6,155.4 236.7,155.3 237.9,155.3 239.1,155.3 240.3,155.3 241.5,155.2 242.7,155.2 243.9,155.2 245.1,155.1 246.2,155.1 247.4,155.1 248.6,155.0 249.8,155.0 251.0,155.0 252.2,154.9 253.4,154.9 254.5,154.9 255.7,154.8 256.9,154.8 258.1,154.7 259.3,154.7 260.5,154.7 261.7,154.6 262.9,154.6 264.0,154.5 265.2,154.5 266.4,154.5 267.6,154.4 268.8,154.4 270.0,154.3 271.2,154.3 272.3,154.3 273.5,154.1 274.7,154.3 275.9,153.8 277.1,154.9 278.3,152.3 279.5,158.0 280.7,144.8 281.8,175.0 283.0,104.6 284.2,266.0 285.4,104.6 286.6,188.4 287.8,54.0 289.0,215.4 290.1,96.8 291.3,258.2 292.5,96.8 293.7,226.5 294.9,65.0 296.1,217.3 297.3,55.9 298.5,217.3 299.6,55.9 300.8,217.3 302.0,65.8 303.2,227.3 304.4,80.4 305.6,241.8 306.8,82.1 307.9,243.6 309.1,82.1 310.3,243.6 311.5,82.1 312.7,243.6 313.9,82.1 315.1,243.6 316.3,82.1 317.4,243.6 318.6,82.1 319.8,243.6 321.0,82.1 322.2,243.6 323.4,82.1 324.6,230.2 325.7,68.8 326.9,230.2 328.1,68.8 329.3,230.2 330.5,68.8 331.7,230.2 332.9,68.8 334.1,230.2 335.2,68.8 336.4,230.2 337.6,68.8 338.8,230.2 340.0,68.8 341.2,230.2 342.4,68.8 343.5,230.2 344.7,68.8 345.9,230.2 347.1,68.8 348.3,230.2 349.5,68.8 350.7,230.2 351.9,68.8 353.0,230.2 354.2,70.6 355.4,232.0 356.6,73.6 357.8,235.0 359.0,73.6 360.2,235.0 361.3,73.6 362.5,235.0 363.7,73.6 364.9,235.0 366.1,73.6 367.3,235.0 368.5,73.6 369.7,235.0 370.8,73.6 372.0,235.0 373.2,73.6 374.4,235.0 375.6,73.6 376.8,235.0 378.0,73.6 379.1,235.0 380.3,73.6 381.5,235.0 382.7,73.6 383.9,235.0 385.1,73.6 386.3,235.0 387.5,73.6 388.6,235.0 389.8,73.6 391.0,235.0 392.2,73.6 393.4,235.0 394.6,73.6 395.8,235.0 396.9,73.6 398.1,235.0 399.3,73.6 400.5,235.0 401.7,73.6 402.9,235.0 404.1,73.6 405.3,235.0 406.4,73.6 407.6,228.0 408.8,66.5 410.0,228.0 411.2,66.5 412.4,228.0 413.6,66.5 414.7,228.0 415.9,66.5 417.1,228.0 418.3,66.5 419.5,228.0 420.7,66.5 421.9,228.0 423.1,66.5 424.2,228.0 425.4,66.5 426.6,228.0 427.8,66.5 429.0,228.0 430.2,66.5 431.4,228.0 432.5,66.5 433.7,228.0 434.9,66.5 436.1,228.0 437.3,66.5 438.5,228.0 439.7,66.5 440.9,228.0 442.0,66.5 443.2,228.0 444.4,66.5 445.6,228.0 446.8,66.5 448.0,228.0 449.2,66.5 450.3,228.0 451.5,66.5 452.7,228.0 453.9,66.5 455.1,228.0 456.3,66.5 457.5,228.0 458.7,66.5 459.8,228.0 461.0,66.5 462.2,228.0 463.4,66.5 464.6,228.0 465.8,66.5 467.0,228.0 468.1,66.5 469.3,228.0 470.5,66.5 471.7,228.0 472.9,66.5 474.1,228.0 475.3,66.5 476.5,228.0 477.6,66.5 478.8,228.0 480.0,66.5 481.2,228.0 482.4,66.5 483.6,228.0 484.8,66.5 485.9,228.0 487.1,66.5 488.3,228.0 489.5,66.5 490.7,228.0 491.9,66.5 493.1,228.0 494.3,66.5 495.4,228.0 496.6,66.5 497.8,228.0 499.0,66.5 500.2,228.0 501.4,66.5 502.6,228.0 503.7,66.5 504.9,228.0 506.1,66.5 507.3,228.0 508.5,66.5 509.7,228.0 510.9,66.5 512.1,228.0 513.2,66.5 514.4,228.0 515.6,66.5 516.8,228.0 518.0,66.5 519.2,228.0 520.4,66.5 521.5,228.0 522.7,66.5 523.9,228.0 525.1,66.5 526.3,228.0 527.5,66.5 528.7,228.0 529.9,66.5 531.0,228.0 532.2,66.5 533.4,228.0 534.6,66.5 535.8,228.0 537.0,66.5 538.2,228.0 539.3,72.3 540.5,233.7 541.7,72.3 542.9,233.7 544.1,72.3 545.3,233.7 546.5,72.3 547.7,233.7 548.8,72.3 550.0,233.7 551.2,72.3 552.4,233.7 553.6,72.3 554.8,233.7 556.0,72.3 557.1,233.7 558.3,72.3 559.5,233.7 560.7,72.3 561.9,233.7 563.1,72.3 564.3,233.7 565.5,72.3 566.6,233.7 567.8,72.3 569.0,233.7 570.2,72.3 571.4,233.7 572.6,72.3 573.8,233.7 574.9,72.3 576.1,233.7 577.3,72.3 578.5,233.7 579.7,72.3 580.9,233.7 582.1,72.3 583.3,233.7 584.4,72.3 585.6,233.7 586.8,72.3 588.0,233.7 589.2,72.3 590.4,233.7 591.6,72.3 592.7,233.7 593.9,72.3 595.1,233.7 596.3,72.3 597.5,233.7 598.7,72.3 599.9,233.7 601.1,72.3 602.2,233.7 603.4,72.3 604.6,233.7 605.8,72.3 607.0,233.7 608.2,72.3 609.4,233.7 610.5,72.3 611.7,233.7 612.9,72.3 614.1,233.7 615.3,72.3 616.5,233.7 617.7,72.3 618.9,233.7 620.0,72.3 621.2,233.7 622.4,72.3 623.6,233.7 624.8,72.3 626.0,233.7 627.2,72.3 628.3,233.7 629.5,72.3 630.7,233.7 631.9,72.3 633.1,233.7 634.3,72.3 635.5,233.7 636.7,72.3 637.8,233.7 639.0,72.3 640.2,233.7 641.4,72.3 642.6,233.7 643.8,72.3 645.0,233.7 646.1,72.3 647.3,233.7 648.5,72.3 649.7,233.7 650.9,72.3 652.1,233.7 653.3,72.3 654.5,233.7 655.6,72.3 656.8,233.7 658.0,72.3 659.2,233.7 660.4,72.3 661.6,233.7 662.8,72.3 663.9,233.7 665.1,72.3 666.3,233.7 667.5,72.3 668.7,233.7 669.9,72.3 671.1,233.7 672.3,72.3 673.4,233.7 674.6,72.3 675.8,233.7 677.0,72.3 678.2,233.7 679.4,72.3 680.6,233.2 681.7,71.8 682.9,230.9 684.1,69.5 685.3,230.9 686.5,69.5 687.7,230.9 688.9,69.5 690.1,230.9 691.2,69.5 692.4,230.9 693.6,69.5 694.8,230.9 696.0,69.5 697.2,230.9 698.4,69.5 699.5,230.9 700.7,69.5 701.9,230.9 703.1,69.5 704.3,230.9 705.5,69.5 706.7,230.9 707.9,69.5 709.0,230.9 710.2,69.5 711.4,230.9 712.6,69.5 713.8,230.9 715.0,69.5 716.2,230.9 717.3,69.5 718.5,230.9 719.7,69.5 720.9,230.9 722.1,69.5 723.3,230.2 724.5,68.8 725.7,229.4 726.8,67.9 728.0,229.4 729.2,67.9 730.4,229.4 731.6,67.9 732.8,229.4 734.0,67.9 735.1,229.4 736.3,67.9 737.5,229.4 738.7,67.9 739.9,229.4 741.1,67.9 742.3,228.9 743.5,67.5 744.6,228.6 745.8,67.1 747.0,228.5 748.2,67.1 749.4,228.5 750.6,67.1 751.8,228.5 752.9,67.1 754.1,228.3 755.3,66.9 756.5,228.0 757.7,66.6 758.9,227.9 760.1,66.5 761.3,227.9 762.4,66.5 763.6,227.8 764.8,66.4 766.0,227.6"/>
<line x1="606" y1="60" x2="628" y2="60" stroke="#24a148" stroke-width="2.2"/>
<text x="634" y="64" font-family="Arial" font-size="12">q_dps</text>
<polyline fill="none" stroke="#da1e28" stroke-width="2.2" points="54.0,151.4 55.2,151.4 56.4,151.4 57.6,151.4 58.7,151.4 59.9,151.4 61.1,151.4 62.3,151.4 63.5,151.4 64.7,151.4 65.9,151.4 67.1,151.4 68.2,151.4 69.4,151.4 70.6,151.4 71.8,151.4 73.0,151.4 74.2,151.4 75.4,151.4 76.5,151.4 77.7,151.4 78.9,151.4 80.1,151.4 81.3,151.4 82.5,151.4 83.7,151.4 84.9,151.4 86.0,151.4 87.2,151.4 88.4,151.4 89.6,151.4 90.8,151.4 92.0,151.4 93.2,151.4 94.3,151.4 95.5,151.4 96.7,151.4 97.9,151.4 99.1,151.4 100.3,151.4 101.5,151.4 102.7,151.4 103.8,151.4 105.0,151.4 106.2,151.4 107.4,151.4 108.6,151.4 109.8,151.4 111.0,151.4 112.1,151.4 113.3,151.4 114.5,151.4 115.7,151.4 116.9,151.4 118.1,151.4 119.3,151.4 120.5,151.4 121.6,151.4 122.8,151.4 124.0,151.4 125.2,151.4 126.4,151.4 127.6,151.4 128.8,151.4 129.9,151.4 131.1,151.4 132.3,151.4 133.5,151.4 134.7,151.4 135.9,151.4 137.1,151.4 138.3,151.4 139.4,151.4 140.6,151.4 141.8,151.4 143.0,151.4 144.2,151.4 145.4,151.4 146.6,151.4 147.7,151.4 148.9,151.4 150.1,151.4 151.3,151.4 152.5,151.4 153.7,151.4 154.9,151.4 156.1,151.4 157.2,151.4 158.4,151.4 159.6,151.4 160.8,151.4 162.0,151.4 163.2,151.4 164.4,151.4 165.5,151.4 166.7,151.4 167.9,151.4 169.1,151.4 170.3,151.4 171.5,151.4 172.7,151.4 173.9,151.4 175.0,151.4 176.2,151.4 177.4,151.4 178.6,151.4 179.8,151.4 181.0,151.4 182.2,151.4 183.3,151.4 184.5,151.4 185.7,151.4 186.9,151.4 188.1,151.4 189.3,151.4 190.5,151.4 191.7,151.4 192.8,151.4 194.0,151.4 195.2,151.4 196.4,151.4 197.6,151.4 198.8,151.4 200.0,151.4 201.1,151.4 202.3,151.4 203.5,151.4 204.7,151.4 205.9,151.4 207.1,151.4 208.3,151.4 209.5,151.4 210.6,151.4 211.8,151.4 213.0,151.4 214.2,151.4 215.4,151.4 216.6,151.4 217.8,151.4 218.9,151.4 220.1,151.4 221.3,151.4 222.5,151.4 223.7,151.4 224.9,151.4 226.1,151.4 227.3,151.4 228.4,151.4 229.6,151.4 230.8,151.4 232.0,151.4 233.2,151.4 234.4,151.4 235.6,151.4 236.7,151.4 237.9,151.4 239.1,151.4 240.3,151.4 241.5,151.4 242.7,151.4 243.9,151.4 245.1,151.4 246.2,151.4 247.4,151.4 248.6,151.4 249.8,151.4 251.0,151.4 252.2,151.4 253.4,151.4 254.5,151.4 255.7,151.4 256.9,151.4 258.1,151.4 259.3,151.4 260.5,151.4 261.7,151.4 262.9,151.4 264.0,151.4 265.2,151.4 266.4,151.4 267.6,151.4 268.8,151.4 270.0,151.4 271.2,151.4 272.3,151.4 273.5,151.4 274.7,151.4 275.9,151.4 277.1,151.4 278.3,151.4 279.5,151.4 280.7,151.4 281.8,151.4 283.0,151.4 284.2,151.4 285.4,151.4 286.6,151.4 287.8,151.4 289.0,151.4 290.1,151.4 291.3,151.4 292.5,151.4 293.7,151.4 294.9,151.4 296.1,151.4 297.3,151.4 298.5,151.4 299.6,151.4 300.8,151.4 302.0,151.4 303.2,151.4 304.4,151.4 305.6,151.4 306.8,151.4 307.9,151.4 309.1,151.4 310.3,151.4 311.5,151.4 312.7,151.4 313.9,151.4 315.1,151.4 316.3,151.4 317.4,151.4 318.6,151.4 319.8,151.4 321.0,151.4 322.2,151.4 323.4,151.4 324.6,151.4 325.7,151.4 326.9,151.4 328.1,151.4 329.3,151.4 330.5,151.4 331.7,151.4 332.9,151.4 334.1,151.4 335.2,151.4 336.4,151.4 337.6,151.4 338.8,151.4 340.0,151.4 341.2,151.4 342.4,151.4 343.5,151.4 344.7,151.4 345.9,151.4 347.1,151.4 348.3,151.4 349.5,151.4 350.7,151.4 351.9,151.4 353.0,151.4 354.2,151.4 355.4,151.4 356.6,151.4 357.8,151.4 359.0,151.4 360.2,151.4 361.3,151.4 362.5,151.4 363.7,151.4 364.9,151.4 366.1,151.4 367.3,151.4 368.5,151.4 369.7,151.4 370.8,151.4 372.0,151.4 373.2,151.4 374.4,151.4 375.6,151.4 376.8,151.4 378.0,151.4 379.1,151.4 380.3,151.4 381.5,151.4 382.7,151.4 383.9,151.4 385.1,151.4 386.3,151.4 387.5,151.4 388.6,151.4 389.8,151.4 391.0,151.4 392.2,151.4 393.4,151.4 394.6,151.4 395.8,151.4 396.9,151.4 398.1,151.4 399.3,151.4 400.5,151.4 401.7,151.4 402.9,151.4 404.1,151.4 405.3,151.4 406.4,151.4 407.6,151.4 408.8,151.4 410.0,151.4 411.2,151.4 412.4,151.4 413.6,151.4 414.7,151.4 415.9,151.4 417.1,151.4 418.3,151.4 419.5,151.4 420.7,151.4 421.9,151.4 423.1,151.4 424.2,151.4 425.4,151.4 426.6,151.4 427.8,151.4 429.0,151.4 430.2,151.4 431.4,151.4 432.5,151.4 433.7,151.4 434.9,151.4 436.1,151.4 437.3,151.4 438.5,151.4 439.7,151.4 440.9,151.4 442.0,151.4 443.2,151.4 444.4,151.4 445.6,151.4 446.8,151.4 448.0,151.4 449.2,151.4 450.3,151.4 451.5,151.4 452.7,151.4 453.9,151.4 455.1,151.4 456.3,151.4 457.5,151.4 458.7,151.4 459.8,151.4 461.0,151.4 462.2,151.4 463.4,151.4 464.6,151.4 465.8,151.4 467.0,151.4 468.1,151.4 469.3,151.4 470.5,151.4 471.7,151.4 472.9,151.4 474.1,151.4 475.3,151.4 476.5,151.4 477.6,151.4 478.8,151.4 480.0,151.4 481.2,151.4 482.4,151.4 483.6,151.4 484.8,151.4 485.9,151.4 487.1,151.4 488.3,151.4 489.5,151.4 490.7,151.4 491.9,151.4 493.1,151.4 494.3,151.4 495.4,151.4 496.6,151.4 497.8,151.4 499.0,151.4 500.2,151.4 501.4,151.4 502.6,151.4 503.7,151.4 504.9,151.4 506.1,151.4 507.3,151.4 508.5,151.4 509.7,151.4 510.9,151.4 512.1,151.4 513.2,151.4 514.4,151.4 515.6,151.4 516.8,151.4 518.0,151.4 519.2,151.4 520.4,151.4 521.5,151.4 522.7,151.4 523.9,151.4 525.1,151.4 526.3,151.4 527.5,151.4 528.7,151.4 529.9,151.4 531.0,151.4 532.2,151.4 533.4,151.4 534.6,151.4 535.8,151.4 537.0,151.4 538.2,151.4 539.3,151.4 540.5,151.4 541.7,151.4 542.9,151.4 544.1,151.4 545.3,151.4 546.5,151.4 547.7,151.4 548.8,151.4 550.0,151.4 551.2,151.4 552.4,151.4 553.6,151.4 554.8,151.4 556.0,151.4 557.1,151.4 558.3,151.4 559.5,151.4 560.7,151.4 561.9,151.4 563.1,151.4 564.3,151.4 565.5,151.4 566.6,151.4 567.8,151.4 569.0,151.4 570.2,151.4 571.4,151.4 572.6,151.4 573.8,151.4 574.9,151.4 576.1,151.4 577.3,151.4 578.5,151.4 579.7,151.4 580.9,151.4 582.1,151.4 583.3,151.4 584.4,151.4 585.6,151.4 586.8,151.4 588.0,151.4 589.2,151.4 590.4,151.4 591.6,151.4 592.7,151.4 593.9,151.4 595.1,151.4 596.3,151.4 597.5,151.4 598.7,151.4 599.9,151.4 601.1,151.4 602.2,151.4 603.4,151.4 604.6,151.4 605.8,151.4 607.0,151.4 608.2,151.4 609.4,151.4 610.5,151.4 611.7,151.4 612.9,151.4 614.1,151.4 615.3,151.4 616.5,151.4 617.7,151.4 618.9,151.4 620.0,151.4 621.2,151.4 622.4,151.4 623.6,151.4 624.8,151.4 626.0,151.4 627.2,151.4 628.3,151.4 629.5,151.4 630.7,151.4 631.9,151.4 633.1,151.4 634.3,151.4 635.5,151.4 636.7,151.4 637.8,151.4 639.0,151.4 640.2,151.4 641.4,151.4 642.6,151.4 643.8,151.4 645.0,151.4 646.1,151.4 647.3,151.4 648.5,151.4 649.7,151.4 650.9,151.4 652.1,151.4 653.3,151.4 654.5,151.4 655.6,151.4 656.8,151.4 658.0,151.4 659.2,151.4 660.4,151.4 661.6,151.4 662.8,151.4 663.9,151.4 665.1,151.4 666.3,151.4 667.5,151.4 668.7,151.4 669.9,151.4 671.1,151.4 672.3,151.4 673.4,151.4 674.6,151.4 675.8,151.4 677.0,151.4 678.2,151.4 679.4,151.4 680.6,151.4 681.7,151.4 682.9,151.4 684.1,151.4 685.3,151.4 686.5,151.4 687.7,151.4 688.9,151.4 690.1,151.4 691.2,151.4 692.4,151.4 693.6,151.4 694.8,151.4 696.0,151.4 697.2,151.4 698.4,151.4 699.5,151.4 700.7,151.4 701.9,151.4 703.1,151.4 704.3,151.4 705.5,151.4 706.7,151.4 707.9,151.4 709.0,151.4 710.2,151.4 711.4,151.4 712.6,151.4 713.8,151.4 715.0,151.4 716.2,151.4 717.3,151.4 718.5,151.4 719.7,151.4 720.9,151.4 722.1,151.4 723.3,151.4 724.5,151.4 725.7,151.4 726.8,151.4 728.0,151.4 729.2,151.4 730.4,151.4 731.6,151.4 732.8,151.4 734.0,151.4 735.1,151.4 736.3,151.4 737.5,151.4 738.7,151.4 739.9,151.4 741.1,151.4 742.3,151.4 743.5,151.4 744.6,151.4 745.8,151.4 747.0,151.4 748.2,151.4 749.4,151.4 750.6,151.4 751.8,151.4 752.9,151.4 754.1,151.4 755.3,151.4 756.5,151.4 757.7,151.4 758.9,151.4 760.1,151.4 761.3,151.4 762.4,151.4 763.6,151.4 764.8,151.4 766.0,151.4"/>
<line x1="606" y1="78" x2="628" y2="78" stroke="#da1e28" stroke-width="2.2"/>
<text x="634" y="82" font-family="Arial" font-size="12">r_dps</text>
</svg>