<svg xmlns="http://www.w3.org/2000/svg" width="820" height="320" viewBox="0 0 820 320">
<rect width="100%" height="100%" fill="#ffffff"/>
<text x="54" y="28" font-family="Arial" font-size="18" font-weight="700">Control Surfaces</text>
<line x1="54" y1="266" x2="766" y2="266" stroke="#1f2933"/>
<line x1="54" y1="54" x2="54" y2="266" stroke="#1f2933"/>
<text x="54" y="306" font-family="Arial" font-size="12">time (s)</text>
<text x="596" y="306" font-family="Arial" font-size="12">deflection (deg)</text>
<text x="58" y="68" font-family="Arial" font-size="11">0.457</text>
<text x="58" y="260" font-family="Arial" font-size="11">-4.63</text>
<polyline fill="none" stroke="#0f62fe" stroke-width="2.2" points="54.0,185.7 55.2,153.9 56.4,112.9 57.6,106.8 58.7,128.2 59.9,152.7 61.1,166.6 62.3,171.2 63.5,173.3 64.7,177.2 65.9,182.7 67.1,188.0 68.2,192.1 69.4,195.1 70.6,197.7 71.8,200.2 73.0,202.6 74.2,204.8 75.4,206.6 76.5,208.3 77.7,209.8 78.9,211.2 80.1,212.5 81.3,213.7 82.5,214.8 83.7,215.8 84.9,216.8 86.0,217.7 87.2,218.5 88.4,219.3 89.6,220.0 90.8,220.7 92.0,221.4 93.2,222.0 94.3,222.6 95.5,223.1 96.7,223.7 97.9,224.2 99.1,224.6 100.3,225.1 101.5,225.5 102.7,225.9 103.8,226.3 105.0,226.7 106.2,227.0 107.4,227.4 108.6,227.7 109.8,228.0 111.0,228.3 112.1,228.5 113.3,228.8 114.5,229.0 115.7,229.3 116.9,229.5 118.1,229.6 119.3,229.8 120.5,230.0 121.6,230.1 122.8,230.3 124.0,230.4 125.2,230.5 126.4,230.6 127.6,230.7 128.8,230.8 129.9,230.8 131.1,230.9 132.3,230.9 133.5,230.9 134.7,230.9 135.9,230.9 137.1,230.9 138.3,230.9 139.4,230.9 140.6,230.8 141.8,230.8 143.0,230.7 144.2,230.6 145.4,230.6 146.6,230.5 147.7,230.4 148.9,230.2 150.1,230.3 151.3,230.7 152.5,230.5 153.7,230.5 154.9,230.8 156.1,230.9 157.2,231.1 158.4,231.4 159.6,231.6 160.8,231.9 162.0,232.2 163.2,232.4 164.4,232.7 165.5,233.0 166.7,233.2 167.9,233.5 169.1,233.8 170.3,234.0 171.5,234.2 172.7,234.4 173.9,234.6 175.0,234.8 176.2,235.0 177.4,235.2 178.6,235.3 179.8,235.4 181.0,235.5 182.2,235.6 183.3,235.7 184.5,235.8 185.7,235.8 186.9,235.8 188.1,235.8 189.3,235.8 190.5,235.8 191.7,235.7 192.8,235.7 194.0,235.6 195.2,235.5 196.4,235.4 197.6,235.2 198.8,235.1 200.0,234.9 201.1,234.7 202.3,234.5 203.5,234.3 204.7,234.1 205.9,233.9 207.1,233.6 208.3,233.3 209.5,233.0 210.6,232.7 211.8,232.4 213.0,232.1 214.2,231.7 215.4,231.4 216.6,231.0 217.8,230.6 218.9,230.2 220.1,229.8 221.3,229.4 222.5,228.9 223.7,228.5 224.9,228.0 226.1,227.6 227.3,227.1 228.4,226.6 229.6,226.1 230.8,225.6 232.0,225.0 233.2,224.5 234.4,224.0 235.6,223.4 236.7,222.9 237.9,222.3 239.1,221.7 240.3,221.1 241.5,220.5 242.7,219.9 243.9,219.3 245.1,218.7 246.2,218.0 247.4,217.4 248.6,216.8 249.8,216.1 251.0,215.5 252.2,214.8 253.4,214.1 254.5,213.5 255.7,212.8 256.9,212.1 258.1,211.4 259.3,210.7 260.5,210.0 261.7,209.3 262.9,208.6 264.0,207.9 265.2,207.2 266.4,206.5 267.6,205.8 268.8,205.1 270.0,204.3 271.2,203.6 272.3,202.8 273.5,202.2 274.7,201.2 275.9,201.1 277.1,199.0 278.3,201.3 279.5,193.7 280.7,208.6 281.8,171.8 283.0,255.1 284.2,142.5 285.4,231.5 286.6,153.4 287.8,266.0 289.0,153.4 290.1,254.3 291.3,141.8 292.5,241.1 293.7,128.5 294.9,241.1 296.1,128.5 297.3,241.1 298.5,128.5 299.6,241.1 300.8,128.5 302.0,241.1 303.2,128.5 304.4,241.1 305.6,128.5 306.8,241.1 307.9,128.5 309.1,241.1 310.3,128.5 311.5,241.1 312.7,128.5 313.9,241.1 315.1,128.5 316.3,241.1 317.4,128.5 318.6,241.1 319.8,128.5 321.0,238.1 322.2,125.5 323.4,232.0 324.6,119.4 325.7,232.0 326.9,119.4 328.1,232.0 329.3,119.4 330.5,232.0 331.7,119.4 332.9,232.0 334.1,119.4 335.2,232.0 336.4,119.4 337.6,232.0 338.8,119.4 340.0,232.0 341.2,119.4 342.4,232.0 343.5,119.4 344.7,232.0 345.9,119.4 347.1,232.0 348.3,119.4 349.5,232.0 350.7,119.4 351.9,232.0 353.0,119.4 354.2,232.0 355.4,119.4 356.6,232.0 357.8,119.4 359.0,232.0 360.2,119.4 361.3,232.0 362.5,119.4 363.7,232.0 364.9,119.4 366.1,232.0 367.3,119.4 368.5,232.0 369.7,119.4 370.8,231.8 372.0,119.2 373.2,229.6 374.4,117.0 375.6,226.7 376.8,114.1 378.0,223.5 379.1,110.9 380.3,220.1 381.5,107.5 382.7,216.6 383.9,104.0 385.1,213.0 386.3,100.4 387.5,209.4 388.6,96.8 389.8,205.7 391.0,93.1 392.2,201.9 393.4,89.3 394.6,198.1 395.8,85.5 396.9,194.3 398.1,81.7 399.3,190.4 400.5,77.8 401.7,186.4 402.9,73.8 404.1,182.4 405.3,69.8 406.4,178.4 407.6,65.8 408.8,178.4 410.0,65.8 411.2,178.4 412.4,65.8 413.6,178.4 414.7,65.8 415.9,178.4 417.1,65.8 418.3,178.4 419.5,65.8 420.7,178.4 421.9,65.8 423.1,178.4 424.2,65.8 425.4,178.4 426.6,65.8 427.8,178.4 429.0,65.8 430.2,178.4 431.4,65.8 432.5,178.4 433.7,65.8 434.9,178.4 436.1,65.8 437.3,178.4 438.5,65.8 439.7,178.4 440.9,65.8 442.0,178.4 443.2,65.8 444.4,178.4 445.6,65.8 446.8,178.4 448.0,65.8 449.2,178.4 450.3,65.8 451.5,178.4 452.7,65.8 453.9,178.4 455.1,65.8 456.3,178.4 457.5,65.8 458.7,178.4 459.8,65.8 461.0,178.4 462.2,65.8 463.4,178.4 464.6,65.8 465.8,178.4 467.0,65.8 468.1,178.4 469.3,65.8 470.5,178.4 471.7,65.8 472.9,178.4 474.1,65.8 475.3,178.4 476.5,65.8 477.6,178.4 478.8,65.8 480.0,178.4 481.2,65.8 482.4,178.4 483.6,65.8 484.8,178.4 485.9,65.8 487.1,178.4 488.3,65.8 489.5,178.4 490.7,65.8 491.9,178.4 493.1,65.8 494.3,178.4 495.4,65.8 496.6,178.4 497.8,65.8 499.0,178.4 500.2,65.8 501.4,178.4 502.6,65.8 503.7,178.4 504.9,65.8 506.1,178.4 507.3,65.8 508.5,178.4 509.7,65.8 510.9,178.4 512.1,65.8 513.2,178.4 514.4,65.8 515.6,178.4 516.8,65.8 518.0,178.4 519.2,66.9 520.4,179.5 521.5,69.0 522.7,181.6 523.9,71.5 525.1,184.1 526.3,74.1 527.5,186.7 528.7,76.9 529.9,189.4 531.0,79.6 532.2,192.2 533.4,82.4 534.6,195.0 535.8,85.3 537.0,197.8 538.2,88.1 539.3,200.7 540.5,88.1 541.7,200.7 542.9,88.1 544.1,200.7 545.3,88.1 546.5,200.7 547.7,88.1 548.8,200.7 550.0,88.1 551.2,200.7 552.4,88.1 553.6,200.7 554.8,88.1 556.0,200.7 557.1,88.1 558.3,200.7 559.5,88.1 560.7,200.7 561.9,88.1 563.1,200.7 564.3,88.1 565.5,200.7 566.6,88.1 567.8,200.7 569.0,88.1 570.2,200.7 571.4,88.1 572.6,200.7 573.8,88.1 574.9,200.7 576.1,88.1 577.3,200.7 578.5,88.1 579.7,200.7 580.9,88.1 582.1,200.7 583.3,88.1 584.4,200.7 585.6,88.1 586.8,200.7 588.0,88.1 589.2,200.7 590.4,88.1 591.6,200.7 592.7,88.1 593.9,200.7 595.1,88.1 596.3,200.7 597.5,88.1 598.7,200.7 599.9,88.1 601.1,200.7 602.2,88.1 603.4,200.7 604.6,88.1 605.8,200.7 607.0,88.1 608.2,200.7 609.4,88.1 610.5,200.7 611.7,88.1 612.9,200.7 614.1,88.1 615.3,200.7 616.5,88.1 617.7,200.7 618.9,88.1 620.0,200.3 621.2,87.7 622.4,199.2 623.6,86.6 624.8,197.8 626.0,85.2 627.2,196.3 628.3,83.7 629.5,194.8 630.7,82.2 631.9,193.3 633.1,80.7 634.3,191.8 635.5,79.2 636.7,190.3 637.8,77.7 639.0,188.9 640.2,76.3 641.4,187.4 642.6,74.9 643.8,186.0 645.0,73.4 646.1,184.6 647.3,72.0 648.5,183.2 649.7,70.7 650.9,181.9 652.1,69.3 653.3,180.5 654.5,67.9 655.6,179.2 656.8,66.6 658.0,177.9 659.2,65.3 660.4,176.6 661.6,64.0 662.8,175.3 663.9,62.7 665.1,174.1 666.3,61.5 667.5,172.8 668.7,60.2 669.9,171.6 671.1,59.0 672.3,170.4 673.4,57.8 674.6,169.2 675.8,56.6 677.0,168.0 678.2,55.4 679.4,166.8 680.6,54.3 681.7,166.6 682.9,54.0 684.1,166.6 685.3,54.0 686.5,166.6 687.7,54.0 688.9,166.6 690.1,54.0 691.2,166.6 692.4,54.0 693.6,166.6 694.8,54.0 696.0,166.6 697.2,54.0 698.4,166.6 699.5,54.0 700.7,166.6 701.9,54.0 703.1,166.6 704.3,54.0 705.5,166.6 706.7,54.0 707.9,166.6 709.0,54.0 710.2,166.6 711.4,54.0 712.6,166.6 713.8,54.0 715.0,166.6 716.2,54.0 717.3,166.6 718.5,54.0 719.7,166.6 720.9,54.0 722.1,166.6 723.3,54.0 724.5,166.6 725.7,54.0 726.8,166.6 728.0,54.0 729.2,166.6 730.4,54.0 731.6,166.6 732.8,54.0 734.0,166.6 735.1,54.0 736.3,166.6 737.5,54.0 738.7,166.6 739.9,54.0 741.1,166.6 742.3,54.0 743.5,166.6 744.6,54.0 745.8,166.6 747.0,54.0 748.2,166.6 749.4,54.0 750.6,166.6 751.8,54.0 752.9,166.6 754.1,54.0 755.3,166.6 756.5,54.0 757.7,166.6 758.9,54.0 760.1,166.6 761.3,54.0 762.4,166.6 763.6,54.0 764.8,166.6 766.0,54.0"/>
<line x1="606" y1="42" x2="628" y2="42" stroke="#0f62fe" stroke-width="2.2"/>
<text x="634" y="46" font-family="Arial" font-size="12">elevator_deg</text>
<polyline fill="none" stroke="#24a148" stroke-width="2.2" points="54.0,73.1 55.2,73.1 56.4,73.1 57.6,73.1 58.7,73.1 59.9,73.1 61.1,73.1 62.3,73.1 63.5,73.1 64.7,73.1 65.9,73.1 67.1,73.1 68.2,73.1 69.4,73.1 70.6,73.1 71.8,73.1 73.0,73.1 74.2,73.1 75.4,73.1 76.5,73.1 77.7,73.1 78.9,73.1 80.1,73.1 81.3,73.1 82.5,73.1 83.7,73.1 84.9,73.1 86.0,73.1 87.2,73.1 88.4,73.1 89.6,73.1 90.8,73.1 92.0,73.1 93.2,73.1 94.3,73.1 95.5,73.1 96.7,73.1 97.9,73.1 99.1,73.1 100.3,73.1 101.5,73.1 102.7,73.1 103.8,73.1 105.0,73.1 106.2,73.1 107.4,73.1 108.6,73.1 109.8,73.1 111.0,73.1 112.1,73.1 113.3,73.1 114.5,73.1 115.7,73.1 116.9,73.1 118.1,73.1 119.3,73.1 120.5,73.1 121.6,73.1 122.8,73.1 124.0,73.1 125.2,73.1 126.4,73.1 127.6,73.1 128.8,73.1 129.9,73.1 131.1,73.1 132.3,73.1 133.5,73.1 134.7,73.1 135.9,73.1 137.1,73.1 138.3,73.1 139.4,73.1 140.6,73.1 141.8,73.1 143.0,73.1 144.2,73.1 145.4,73.1 146.6,73.1 147.7,73.1 148.9,73.1 150.1,73.1 151.3,73.1 152.5,73.1 153.7,73.1 154.9,73.1 156.1,73.1 157.2,73.1 158.4,73.1 159.6,73.1 160.8,73.1 162.0,73.1 163.2,73.1 164.4,73.1 165.5,73.1 166.7,73.1 167.9,73.1 169.1,73.1 170.3,73.1 171.5,73.1 172.7,73.1 173.9,73.1 175.0,73.1 176.2,73.1 177.4,73.1 178.6,73.1 179.8,73.1 181.0,73.1 182.2,73.1 183.3,73.1 184.5,73.1 185.7,73.1 186.9,73.1 188.1,73.1 189.3,73.1 190.5,73.1 191.7,73.1 192.8,73.1 194.0,73.1 195.2,73.1 196.4,73.1 197.6,73.1 198.8,73.1 200.0,73.1 201.1,73.1 202.3,73.1 203.5,73.1 204.7,73.1 205.9,73.1 207.1,73.1 208.3,73.1 209.5,73.1 210.6,73.1 211.8,73.1 213.0,73.1 214.2,73.1 215.4,73.1 216.6,73.1 217.8,73.1 218.9,73.1 220.1,73.1 221.3,73.1 222.5,73.1 223.7,73.1 224.9,73.1 226.1,73.1 227.3,73.1 228.4,73.1 229.6,73.1 230.8,73.1 232.0,73.1 233.2,73.1 234.4,73.1 235.6,73.1 236.7,73.1 237.9,73.1 239.1,73.1 240.3,73.1 241.5,73.1 242.7,73.1 243.9,73.1 245.1,73.1 246.2,73.1 247.4,73.1 248.6,73.1 249.8,73.1 251.0,73.1 252.2,73.1 253.4,73.1 254.5,73.1 255.7,73.1 256.9,73.1 258.1,73.1 259.3,73.1 260.5,73.1 261.7,73.1 262.9,73.1 264.0,73.1 265.2,73.1 266.4,73.1 267.6,73.1 268.8,73.1 270.0,73.1 271.2,73.1 272.3,73.1 273.5,73.1 274.7,73.1 275.9,73.1 277.1,73.1 278.3,73.1 279.5,73.1 280.7,73.1 281.8,73.1 283.0,73.1 284.2,73.1 285.4,73.1 286.6,73.1 287.8,73.1 289.0,73.1 290.1,73.1 291.3,73.1 292.5,73.1 293.7,73.1 294.9,73.1 296.1,73.1 297.3,73.1 298.5,73.1 299.6,73.1 300.8,73.1 302.0,73.1 303.2,73.1 304.4,73.1 305.6,73.1 306.8,73.1 307.9,73.1 309.1,73.1 310.3,73.1 311.5,73.1 312.7,73.1 313.9,73.1 315.1,73.1 316.3,73.1 317.4,73.1 318.6,73.1 319.8,73.1 321.0,73.1 322.2,73.1 323.4,73.1 324.6,73.1 325.7,73.1 326.9,73.1 328.1,73.1 329.3,73.1 330.5,73.1 331.7,73.1 332.9,73.1 334.1,73.1 335.2,73.1 336.4,73.1 337.6,73.1 338.8,73.1 340.0,73.1 341.2,73.1 342.4,73.1 343.5,73.1 344.7,73.1 345.9,73.1 347.1,73.1 348.3,73.1 349.5,73.1 350.7,73.1 351.9,73.1 353.0,73.1 354.2,73.1 355.4,73.1 356.6,73.1 357.8,73.1 359.0,73.1 360.2,73.1 361.3,73.1 362.5,73.1 363.7,73.1 364.9,73.1 366.1,73.1 367.3,73.1 368.5,73.1 369.7,73.1 370.8,73.1 372.0,73.1 373.2,73.1 374.4,73.1 375.6,73.1 376.8,73.1 378.0,73.1 379.1,73.1 380.3,73.1 381.5,73.1 382.7,73.1 383.9,73.1 385.1,73.1 386.3,73.1 387.5,73.1 388.6,73.1 389.8,73.1 391.0,73.1 392.2,73.1 393.4,73.1 394.6,73.1 395.8,73.1 396.9,73.1 398.1,73.1 399.3,73.1 400.5,73.1 401.7,73.1 402.9,73.1 404.1,73.1 405.3,73.1 406.4,73.1 407.6,73.1 408.8,73.1 410.0,73.1 411.2,73.1 412.4,73.1 413.6,73.1 414.7,73.1 415.9,73.1 417.1,73.1 418.3,73.1 419.5,73.1 420.7,73.1 421.9,73.1 423.1,73.1 424.2,73.1 425.4,73.1 426.6,73.1 427.8,73.1 429.0,73.1 430.2,73.1 431.4,73.1 432.5,73.1 433.7,73.1 434.9,73.1 436.1,73.1 437.3,73.1 438.5,73.1 439.7,73.1 440.9,73.1 442.0,73.1 443.2,73.1 444.4,73.1 445.6,73.1 446.8,73.1 448.0,73.1 449.2,73.1 450.3,73.1 451.5,73.1 452.7,73.1 453.9,73.1 455.1,73.1 456.3,73.1 457.5,73.1 458.7,73.1 459.8,73.1 461.0,73.1 462.2,73.1 463.4,73.1 464.6,73.1 465.8,73.1 467.0,73.1 468.1,73.1 469.3,73.1 470.5,73.1 471.7,73.1 472.9,73.1 474.1,73.1 475.3,73.1 476.5,73.1 477.6,73.1 478.8,73.1 480.0,73.1 481.2,73.1 482.4,73.1 483.6,73.1 484.8,73.1 485.9,73.1 487.1,73.1 488.3,73.1 489.5,73.1 490.7,73.1 491.9,73.1 493.1,73.1 494.3,73.1 495.4,73.1 496.6,73.1 497.8,73.1 499.0,73.1 500.2,73.1 501.4,73.1 502.6,73.1 503.7,73.1 504.9,73.1 506.1,73.1 507.3,73.1 508.5,73.1 509.7,73.1 510.9,73.1 512.1,73.1 513.2,73.1 514.4,73.1 515.6,73.1 516.8,73.1 518.0,73.1 519.2,73.1 520.4,73.1 521.5,73.1 522.7,73.1 523.9,73.1 525.1,73.1 526.3,73.1 527.5,73.1 528.7,73.1 529.9,73.1 531.0,73.1 532.2,73.1 533.4,73.1 534.6,73.1 535.8,73.1 537.0,73.1 538.2,73.1 539.3,73.1 540.5,73.1 541.7,73.1 542.9,73.1 544.1,73.1 545.3,73.1 546.5,73.1 547.7,73.1 548.8,73.1 550.0,73.1 551.2,73.1 552.4,73.1 553.6,73.1 554.8,73.1 556.0,73.1 557.1,73.1 558.3,73.1 559.5,73.1 560.7,73.1 561.9,73.1 563.1,73.1 564.3,73.1 565.5,73.1 566.6,73.1 567.8,73.1 569.0,73.1 570.2,73.1 571.4,73.1 572.6,73.1 573.8,73.1 574.9,73.1 576.1,73.1 577.3,73.1 578.5,73.1 579.7,73.1 580.9,73.1 582.1,73.1 583.3,73.1 584.4,73.1 585.6,73.1 586.8,73.1 588.0,73.1 589.2,73.1 590.4,73.1 591.6,73.1 592.7,73.1 593.9,73.1 595.1,73.1 596.3,73.1 597.5,73.1 598.7,73.1 599.9,73.1 601.1,73.1 602.2,73.1 603.4,73.1 604.6,73.1 605.8,73.1 607.0,73.1 608.2,73.1 609.4,73.1 610.5,73.1 611.7,73.1 612.9,73.1 614.1,73.1 615.3,73.1 616.5,73.1 617.7,73.1 618.9,73.1 620.0,73.1 621.2,73.1 622.4,73.1 623.6,73.1 624.8,73.1 626.0,73.1 627.2,73.1 628.3,73.1 629.5,73.1 630.7,73.1 631.9,73.1 633.1,73.1 634.3,73.1 635.5,73.1 636.7,73.1 637.8,73.1 639.0,73.1 640.2,73.1 641.4,73.1 642.6,73.1 643.8,73.1 645.0,73.1 646.1,73.1 647.3,73.1 648.5,73.1 649.7,73.1 650.9,73.1 652.1,73.1 653.3,73.1 654.5,73.1 655.6,73.1 656.8,73.1 658.0,73.1 659.2,73.1 660.4,73.1 661.6,73.1 662.8,73.1 663.9,73.1 665.1,73.1 666.3,73.1 667.5,73.1 668.7,73.1 669.9,73.1 671.1,73.1 672.3,73.1 673.4,73.1 674.6,73.1 675.8,73.1 677.0,73.1 678.2,73.1 679.4,73.1 680.6,73.1 681.7,73.1 682.9,73.1 684.1,73.1 685.3,73.1 686.5,73.1 687.7,73.1 688.9,73.1 690.1,73.1 691.2,73.1 692.4,73.1 693.6,73.1 694.8,73.1 696.0,73.1 697.2,73.1 698.4,73.1 699.5,73.1 700.7,73.1 701.9,73.1 703.1,73.1 704.3,73.1 705.5,73.1 706.7,73.1 707.9,73.1 709.0,73.1 710.2,73.1 711.4,73.1 712.6,73.1 713.8,73.1 715.0,73.1 716.2,73.1 717.3,73.1 718.5,73.1 719.7,73.1 720.9,73.1 722.1,73.1 723.3,73.1 724.5,73.1 725.7,73.1 726.8,73.1 728.0,73.1 729.2,73.1 730.4,73.1 731.6,73.1 732.8,73.1 734.0,73.1 735.1,73.1 736.3,73.1 737.5,73.1 738.7,73.1 739.9,73.1 741.1,73.1 742.3,73.1 743.5,73.1 744.6,73.1 745.8,73.1 747.0,73.1 748.2,73.1 749.4,73.1 750.6,73.1 751.8,73.1 752.9,73.1 754.1,73.1 755.3,73.1 756.5,73.1 757.7,73.1 758.9,73.1 760.1,73.1 761.3,73.1 762.4,73.1 763.6,73.1 764.8,73.1 766.0,73.1"/>
<line x1="606" y1="60" x2="628" y2="60" stroke="#24a148" stroke-width="2.2"/>
<text x="634" y="64" font-family="Arial" font-size="12">aileron_deg</text>
<polyline fill="none" stroke="#da1e28" stroke-width="2.2" points="54.0,73.1 55.2,73.1 56.4,73.1 57.6,73.1 58.7,73.1 59.9,73.1 61.1,73.1 62.3,73.1 63.5,73.1 64.7,73.1 65.9,73.1 67.1,73.1 68.2,73.1 69.4,73.1 70.6,73.1 71.8,73.1 73.0,73.1 74.2,73.1 75.4,73.1 76.5,73.1 77.7,73.1 78.9,73.1 80.1,73.1 81.3,73.1 82.5,73.1 83.7,73.1 84.9,73.1 86.0,73.1 87.2,73.1 88.4,73.1 89.6,73.1 90.8,73.1 92.0,73.1 93.2,73.1 94.3,73.1 95.5,73.1 96.7,73.1 97.9,73.1 99.1,73.1 100.3,73.1 101.5,73.1 102.7,73.1 103.8,73.1 105.0,73.1 106.2,73.1 107.4,73.1 108.6,73.1 109.8,73.1 111.0,73.1 112.1,73.1 113.3,73.1 114.5,73.1 115.7,73.1 116.9,73.1 118.1,73.1 119.3,73.1 120.5,73.1 121.6,73.1 122.8,73.1 124.0,73.1 125.2,73.1 126.4,73.1 127.6,73.1 128.8,73.1 129.9,73.1 131.1,73.1 132.3,73.1 133.5,73.1 134.7,73.1 135.9,73.1 137.1,73.1 138.3,73.1 139.4,73.1 140.6,73.1 141.8,73.1 143.0,73.1 144.2,73.1 145.4,73.1 146.6,73.1 147.7,73.1 148.9,73.1 150.1,73.1 151.3,73.1 152.5,73.1 153.7,73.1 154.9,73.1 156.1,73.1 157.2,73.1 158.4,73.1 159.6,73.1 160.8,73.1 162.0,73.1 163.2,73.1 164.4,73.1 165.5,73.1 166.7,73.1 167.9,73.1 169.1,73.1 170.3,73.1 171.5,73.1 172.7,73.1 173.9,73.1 175.0,73.1 176.2,73.1 177.4,73.1 178.6,73.1 179.8,73.1 181.0,73.1 182.2,73.1 183.3,73.1 184.5,73.1 185.7,73.1 186.9,73.1 188.1,73.1 189.3,73.1 190.5,73.1 191.7,73.1 192.8,73.1 194.0,73.1 195.2,73.1 196.4,73.1 197.6,73.1 198.8,73.1 200.0,73.1 201.1,73.1 202.3,73.1 203.5,73.1 204.7,73.1 205.9,73.1 207.1,73.1 208.3,73.1 209.5,73.1 210.6,73.1 211.8,73.1 213.0,73.1 214.2,73.1 215.4,73.1 216.6,73.1 217.8,73.1 218.9,73.1 220.1,73.1 221.3,73.1 222.5,73.1 223.7,73.1 224.9,73.1 226.1,73.1 227.3,73.1 228.4,73.1 229.6,73.1 230.8,73.1 232.0,73.1 233.2,73.1 234.4,73.1 235.6,73.1 236.7,73.1 237.9,73.1 239.1,73.1 240.3,73.1 241.5,73.1 242.7,73.1 243.9,73.1 245.1,73.1 246.2,73.1 247.4,73.1 248.6,73.1 249.8,73.1 251.0,73.1 252.2,73.1 253.4,73.1 254.5,73.1 255.7,73.1 256.9,73.1 258.1,73.1 259.3,73.1 260.5,73.1 261.7,73.1 262.9,73.1 264.0,73.1 265.2,73.1 266.4,73.1 267.6,73.1 268.8,73.1 270.0,73.1 271.2,73.1 272.3,73.1 273.5,73.1 274.7,73.1 275.9,73.1 277.1,73.1 278.3,73.1 279.5,73.1 280.7,73.1 281.8,73.1 283.0,73.1 284.2,73.1 285.4,73.1 286.6,73.1 287.8,73.1 289.0,73.1 290.1,73.1 291.3,73.1 292.5,73.1 293.7,73.1 294.9,73.1 296.1,73.1 297.3,73.1 298.5,73.1 299.6,73.1 300.8,73.1 302.0,73.1 303.2,73.1 304.4,73.1 305.6,73.1 306.8,73.1 307.9,73.1 309.1,73.1 310.3,73.1 311.5,73.1 312.7,73.1 313.9,73.1 315.1,73.1 316.3,73.1 317.4,73.1 318.6,73.1 319.8,73.1 321.0,73.1 322.2,73.1 323.4,73.1 324.6,73.1 325.7,73.1 326.9,73.1 328.1,73.1 329.3,73.1 330.5,73.1 331.7,73.1 332.9,73.1 334.1,73.1 335.2,73.1 336.4,73.1 337.6,73.1 338.8,73.1 340.0,73.1 341.2,73.1 342.4,73.1 343.5,73.1 344.7,73.1 345.9,73.1 347.1,73.1 348.3,73.1 349.5,73.1 350.7,73.1 351.9,73.1 353.0,73.1 354.2,73.1 355.4,73.1 356.6,73.1 357.8,73.1 359.0,73.1 360.2,73.1 361.3,73.1 362.5,73.1 363.7,73.1 364.9,73.1 366.1,73.1 367.3,73.1 368.5,73.1 369.7,73.1 370.8,73.1 372.0,73.1 373.2,73.1 374.4,73.1 375.6,73.1 376.8,73.1 378.0,73.1 379.1,73.1 380.3,73.1 381.5,73.1 382.7,73.1 383.9,73.1 385.1,73.1 386.3,73.1 387.5,73.1 388.6,73.1 389.8,73.1 391.0,73.1 392.2,73.1 393.4,73.1 394.6,73.1 395.8,73.1 396.9,73.1 398.1,73.1 399.3,73.1 400.5,73.1 401.7,73.1 402.9,73.1 404.1,73.1 405.3,73.1 406.4,73.1 407.6,73.1 408.8,73.1 410.0,73.1 411.2,73.1 412.4,73.1 413.6,73.1 414.7,73.1 415.9,73.1 417.1,73.1 418.3,73.1 419.5,73.1 420.7,73.1 421.9,73.1 423.1,73.1 424.2,73.1 425.4,73.1 426.6,73.1 427.8,73.1 429.0,73.1 430.2,73.1 431.4,73.1 432.5,73.1 433.7,73.1 434.9,73.1 436.1,73.1 437.3,73.1 438.5,73.1 439.7,73.1 440.9,73.1 442.0,73.1 443.2,73.1 444.4,73.1 445.6,73.1 446.8,73.1 448.0,73.1 449.2,73.1 450.3,73.1 451.5,73.1 452.7,73.1 453.9,73.1 455.1,73.1 456.3,73.1 457.5,73.1 458.7,73.1 459.8,73.1 461.0,73.1 462.2,73.1 463.4,73.1 464.6,73.1 465.8,73.1 467.0,73.1 468.1,73.1 469.3,73.1 470.5,73.1 471.7,73.1 472.9,73.1 474.1,73.1 475.3,73.1 476.5,73.1 477.6,73.1 478.8,73.1 480.0,73.1 481.2,73.1 482.4,73.1 483.6,73.1 484.8,73.1 485.9,73.1 487.1,73.1 488.3,73.1 489.5,73.1 490.7,73.1 491.9,73.1 493.1,73.1 494.3,73.1 495.4,73.1 496.6,73.1 497.8,73.1 499.0,73.1 500.2,73.1 501.4,73.1 502.6,73.1 503.7,73.1 504.9,73.1 506.1,73.1 507.3,73.1 508.5,73.1 509.7,73.1 510.9,73.1 512.1,73.1 513.2,73.1 514.4,73.1 515.6,73.1 516.8,73.1 518.0,73.1 519.2,73.1 520.4,73.1 521.5,73.1 522.7,73.1 523.9,73.1 525.1,73.1 526.3,73.1 527.5,73.1 528.7,73.1 529.9,73.1 531.0,73.1 532.2,73.1 533.4,73.1 534.6,73.1 535.8,73.1 537.0,73.1 538.2,73.1 539.3,73.1 540.5,73.1 541.7,73.1 542.9,73.1 544.1,73.1 545.3,73.1 546.5,73.1 547.7,73.1 548.8,73.1 550.0,73.1 551.2,73.1 552.4,73.1 553.6,73.1 554.8,73.1 556.0,73.1 557.1,73.1 558.3,73.1 559.5,73.1 560.7,73.1 561.9,73.1 563.1,73.1 564.3,73.1 565.5,73.1 566.6,73.1 567.8,73.1 569.0,73.1 570.2,73.1 571.4,73.1 572.6,73.1 573.8,73.1 574.9,73.1 576.1,73.1 577.3,73.1 578.5,73.1 579.7,73.1 580.9,73.1 582.1,73.1 583.3,73.1 584.4,73.1 585.6,73.1 586.8,73.1 588.0,73.1 589.2,73.1 590.4,73.1 591.6,73.1 592.7,73.1 593.9,73.1 595.1,73.1 596.3,73.1 597.5,73.1 598.7,73.1 599.9,73.1 601.1,73.1 602.2,73.1 603.4,73.1 604.6,73.1 605.8,73.1 607.0,73.1 608.2,73.1 609.4,73.1 610.5,73.1 611.7,73.1 612.9,73.1 614.1,73.1 615.3,73.1 616.5,73.1 617.7,73.1 618.9,73.1 620.0,73.1 621.2,73.1 622.4,73.1 623.6,73.1 624.8,73.1 626.0,73.1 627.2,73.1 628.3,73.1 629.5,73.1 630.7,73.1 631.9,73.1 633.1,73.1 634.3,73.1 635.5,73.1 636.7,73.1 637.8,73.1 639.0,73.1 640.2,73.1 641.4,73.1 642.6,73.1 643.8,73.1 645.0,73.1 646.1,73.1 647.3,73.1 648.5,73.1 649.7,73.1 650.9,73.1 652.1,73.1 653.3,73.1 654.5,73.1 655.6,73.1 656.8,73.1 658.0,73.1 659.2,73.1 660.4,73.1 661.6,73.1 662.8,73.1 663.9,73.1 665.1,73.1 666.3,73.1 667.5,73.1 668.7,73.1 669.9,73.1 671.1,73.1 672.3,73.1 673.4,73.1 674.6,73.1 675.8,73.1 677.0,73.1 678.2,73.1 679.4,73.1 680.6,73.1 681.7,73.1 682.9,73.1 684.1,73.1 685.3,73.1 686.5,73.1 687.7,73.1 688.9,73.1 690.1,73.1 691.2,73.1 692.4,73.1 693.6,73.1 694.8,73.1 696.0,73.1 697.2,73.1 698.4,73.1 699.5,73.1 700.7,73.1 701.9,73.1 703.1,73.1 704.3,73.1 705.5,73.1 706.7,73.1 707.9,73.1 709.0,73.1 710.2,73.1 711.4,73.1 712.6,73.1 713.8,73.1 715.0,73.1 716.2,73.1 717.3,73.1 718.5,73.1 719.7,73.1 720.9,73.1 722.1,73.1 723.3,73.1 724.5,73.1 725.7,73.1 726.8,73.1 728.0,73.1 729.2,73.1 730.4,73.1 731.6,73.1 732.8,73.1 734.0,73.1 735.1,73.1 736.3,73.1 737.5,73.1 738.7,73.1 739.9,73.1 741.1,73.1 742.3,73.1 743.5,73.1 744.6,73.1 745.8,73.1 747.0,73.1 748.2,73.1 749.4,73.1 750.6,73.1 751.8,73.1 752.9,73.1 754.1,73.1 755.3,73.1 756.5,73.1 757.7,73.1 758.9,73.1 760.1,73.1 761.3,73.1 762.4,73.1 763.6,73.1 764.8,73.1 766.0,73.1"/>
<line x1="606" y1="78" x2="628" y2="78" stroke="#da1e28" stroke-width="2.2"/>
<text x="634" y="82" font-family="Arial" font-size="12">rudder_deg</text>
</svg>