<svg xmlns="http://www.w3.org/2000/svg" width="820" height="320" viewBox="0 0 820 320">
<rect width="100%" height="100%" fill="#ffffff"/>
<text x="54" y="28" font-family="Arial" font-size="18" font-weight="700">Specific Energy</text>
<line x1="54" y1="266" x2="766" y2="266" stroke="#1f2933"/>
<line x1="54" y1="54" x2="54" y2="266" stroke="#1f2933"/>
<text x="54" y="306" font-family="Arial" font-size="12">time (s)</text>
<text x="596" y="306" font-family="Arial" font-size="12">J/kg</text>
<text x="58" y="68" font-family="Arial" font-size="11">3.73e+04</text>
<text x="58" y="260" font-family="Arial" font-size="11">3.84e+03</text>
<polyline fill="none" stroke="#0f62fe" stroke-width="2.2" points="54.0,266.0 55.2,265.7 56.4,265.4 57.6,265.2 58.7,264.9 59.9,264.6 61.1,264.3 62.3,264.0 63.5,263.6 64.7,263.3 65.9,263.0 67.1,262.6 68.2,262.3 69.4,262.0 70.6,261.6 71.8,261.2 73.0,260.9 74.2,260.5 75.4,260.1 76.5,259.8 77.7,259.4 78.9,259.0 80.1,258.7 81.3,258.3 82.5,257.9 83.7,257.5 84.9,257.2 86.0,256.8 87.2,256.4 88.4,256.0 89.6,255.6 90.8,255.2 92.0,254.8 93.2,254.5 94.3,254.1 95.5,253.7 96.7,253.3 97.9,252.9 99.1,252.5 100.3,252.1 101.5,251.7 102.7,251.3 103.8,250.9 105.0,250.5 106.2,250.1 107.4,249.6 108.6,249.2 109.8,248.8 111.0,248.4 112.1,248.0 113.3,247.6 114.5,247.2 115.7,246.7 116.9,246.3 118.1,245.9 119.3,245.5 120.5,245.1 121.6,244.6 122.8,244.2 124.0,243.8 125.2,243.3 126.4,242.9 127.6,242.5 128.8,242.0 129.9,241.6 131.1,241.2 132.3,240.7 133.5,240.3 134.7,239.9 135.9,239.4 137.1,239.0 138.3,238.5 139.4,238.1 140.6,237.6 141.8,237.2 143.0,236.7 144.2,236.3 145.4,235.8 146.6,235.4 147.7,234.9 148.9,234.5 150.1,234.0 151.3,233.6 152.5,233.1 153.7,232.6 154.9,232.2 156.1,231.7 157.2,231.3 158.4,230.8 159.6,230.3 160.8,229.9 162.0,229.4 163.2,228.9 164.4,228.5 165.5,228.0 166.7,227.5 167.9,227.0 169.1,226.6 170.3,226.1 171.5,225.6 172.7,225.2 173.9,224.7 175.0,224.2 176.2,223.7 177.4,223.3 178.6,222.8 179.8,222.3 181.0,221.8 182.2,221.3 183.3,220.9 184.5,220.4 185.7,219.9 186.9,219.4 188.1,218.9 189.3,218.5 190.5,218.0 191.7,217.5 192.8,217.0 194.0,216.5 195.2,216.0 196.4,215.5 197.6,215.1 198.8,214.6 200.0,214.1 201.1,213.6 202.3,213.1 203.5,212.6 204.7,212.1 205.9,211.6 207.1,211.1 208.3,210.6 209.5,210.1 210.6,209.7 211.8,209.2 213.0,208.7 214.2,208.2 215.4,207.7 216.6,207.2 217.8,206.7 218.9,206.2 220.1,205.7 221.3,205.2 222.5,204.7 223.7,204.2 224.9,203.7 226.1,203.2 227.3,202.7 228.4,202.2 229.6,201.7 230.8,201.1 232.0,200.6 233.2,200.1 234.4,199.6 235.6,199.1 236.7,198.6 237.9,198.1 239.1,197.6 240.3,197.1 241.5,196.6 242.7,196.1 243.9,195.5 245.1,195.0 246.2,194.5 247.4,194.0 248.6,193.5 249.8,193.0 251.0,192.4 252.2,191.9 253.4,191.4 254.5,190.9 255.7,190.4 256.9,189.8 258.1,189.3 259.3,188.8 260.5,188.3 261.7,187.7 262.9,187.2 264.0,186.7 265.2,186.2 266.4,185.6 267.6,185.1 268.8,184.6 270.0,184.1 271.2,183.5 272.3,183.0 273.5,182.5 274.7,181.9 275.9,181.4 277.1,180.9 278.3,180.3 279.5,179.8 280.7,179.3 281.8,178.7 283.0,178.2 284.2,177.6 285.4,177.1 286.6,176.6 287.8,176.1 289.0,175.5 290.1,175.0 291.3,174.4 292.5,173.9 293.7,173.3 294.9,172.8 296.1,172.3 297.3,171.7 298.5,171.2 299.6,170.6 300.8,170.1 302.0,169.5 303.2,168.9 304.4,168.4 305.6,167.8 306.8,167.3 307.9,166.7 309.1,166.1 310.3,165.6 311.5,165.0 312.7,164.5 313.9,163.9 315.1,163.4 316.3,162.8 317.4,162.3 318.6,161.7 319.8,161.2 321.0,160.7 322.2,160.1 323.4,159.6 324.6,159.0 325.7,158.5 326.9,158.0 328.1,157.4 329.3,156.9 330.5,156.3 331.7,155.8 332.9,155.2 334.1,154.7 335.2,154.1 336.4,153.5 337.6,153.0 338.8,152.4 340.0,151.9 341.2,151.3 342.4,150.7 343.5,150.2 344.7,149.6 345.9,149.0 347.1,148.5 348.3,147.9 349.5,147.3 350.7,146.8 351.9,146.2 353.0,145.6 354.2,145.1 355.4,144.5 356.6,143.9 357.8,143.3 359.0,142.8 360.2,142.2 361.3,141.6 362.5,141.0 363.7,140.5 364.9,139.9 366.1,139.3 367.3,138.8 368.5,138.2 369.7,137.6 370.8,137.1 372.0,136.5 373.2,136.0 374.4,135.4 375.6,134.8 376.8,134.3 378.0,133.7 379.1,133.2 380.3,132.6 381.5,132.1 382.7,131.5 383.9,130.9 385.1,130.4 386.3,129.8 387.5,129.3 388.6,128.8 389.8,128.2 391.0,127.7 392.2,127.1 393.4,126.6 394.6,126.1 395.8,125.5 396.9,125.0 398.1,124.4 399.3,123.9 400.5,123.3 401.7,122.8 402.9,122.3 404.1,121.8 405.3,121.2 406.4,120.7 407.6,120.1 408.8,119.6 410.0,119.1 411.2,118.5 412.4,118.0 413.6,117.5 414.7,116.9 415.9,116.4 417.1,115.8 418.3,115.3 419.5,114.7 420.7,114.2 421.9,113.6 423.1,113.1 424.2,112.6 425.4,112.0 426.6,111.5 427.8,110.9 429.0,110.4 430.2,109.8 431.4,109.3 432.5,108.7 433.7,108.2 434.9,107.7 436.1,107.1 437.3,106.6 438.5,106.0 439.7,105.5 440.9,104.9 442.0,104.4 443.2,103.8 444.4,103.3 445.6,102.7 446.8,102.2 448.0,101.7 449.2,101.1 450.3,100.6 451.5,100.1 452.7,99.5 453.9,99.0 455.1,98.4 456.3,97.9 457.5,97.4 458.7,96.8 459.8,96.3 461.0,95.8 462.2,95.2 463.4,94.7 464.6,94.2 465.8,93.7 467.0,93.1 468.1,92.6 469.3,92.1 470.5,91.6 471.7,91.0 472.9,90.5 474.1,90.0 475.3,89.5 476.5,89.0 477.6,88.5 478.8,87.9 480.0,87.4 481.2,86.9 482.4,86.4 483.6,85.9 484.8,85.4 485.9,84.9 487.1,84.4 488.3,83.9 489.5,83.4 490.7,82.9 491.9,82.4 493.1,81.9 494.3,81.4 495.4,80.9 496.6,80.4 497.8,79.9 499.0,79.4 500.2,78.9 501.4,78.5 502.6,78.0 503.7,77.5 504.9,77.0 506.1,76.5 507.3,76.0 508.5,75.6 509.7,75.1 510.9,74.6 512.1,74.1 513.2,73.7 514.4,73.2 515.6,72.7 516.8,72.2 518.0,71.8 519.2,71.3 520.4,70.9 521.5,70.4 522.7,70.0 523.9,69.5 525.1,69.0 526.3,68.6 527.5,68.1 528.7,67.7 529.9,67.2 531.0,66.8 532.2,66.3 533.4,65.9 534.6,65.4 535.8,65.0 537.0,64.6 538.2,64.1 539.3,63.7 540.5,63.2 541.7,62.8 542.9,62.4 544.1,62.0 545.3,61.6 546.5,61.2 547.7,60.7 548.8,60.4 550.0,59.9 551.2,59.6 552.4,59.2 553.6,58.8 554.8,58.4 556.0,58.0 557.1,57.6 558.3,57.3 559.5,56.9 560.7,56.5 561.9,56.1 563.1,55.8 564.3,55.4 565.5,55.1 566.6,54.7 567.8,54.4 569.0,54.0 570.2,54.9 571.4,55.6 572.6,56.5 573.8,57.3 574.9,58.1 576.1,58.9 577.3,59.7 578.5,60.5 579.7,61.3 580.9,62.0 582.1,62.8 583.3,63.6 584.4,64.4 585.6,65.1 586.8,65.9 588.0,66.6 589.2,67.4 590.4,68.1 591.6,68.9 592.7,69.6 593.9,70.3 595.1,71.0 596.3,71.8 597.5,72.4 598.7,73.2 599.9,73.9 601.1,74.6 602.2,75.3 603.4,76.0 604.6,76.6 605.8,77.4 607.0,78.0 608.2,78.7 609.4,79.4 610.5,80.0 611.7,80.7 612.9,81.4 614.1,82.0 615.3,82.7 616.5,83.3 617.7,84.0 618.9,84.6 620.0,85.2 621.2,85.9 622.4,86.5 623.6,87.1 624.8,87.8 626.0,88.3 627.2,89.0 628.3,89.6 629.5,90.2 630.7,90.8 631.9,91.4 633.1,92.0 634.3,92.6 635.5,93.2 636.7,93.8 637.8,94.3 639.0,94.9 640.2,95.5 641.4,96.1 642.6,96.6 643.8,97.2 645.0,97.8 646.1,98.3 647.3,98.9 648.5,99.4 649.7,100.0 650.9,100.5 652.1,101.1 653.3,101.6 654.5,102.1 655.6,102.7 656.8,103.2 658.0,103.7 659.2,104.3 660.4,104.8 661.6,105.3 662.8,105.8 663.9,106.3 665.1,106.9 666.3,107.3 667.5,107.9 668.7,108.3 669.9,108.9 671.1,109.3 672.3,109.9 673.4,110.3 674.6,110.8 675.8,111.3 677.0,111.8 678.2,112.3 679.4,112.8 680.6,113.2 681.7,113.7 682.9,114.2 684.1,114.6 685.3,115.1 686.5,115.6 687.7,116.0 688.9,116.5 690.1,116.9 691.2,117.4 692.4,117.8 693.6,118.2 694.8,118.7 696.0,119.1 697.2,119.5 698.4,120.0 699.5,120.4 700.7,120.8 701.9,121.2 703.1,121.7 704.3,122.1 705.5,122.5 706.7,122.9 707.9,123.3 709.0,123.7 710.2,124.1 711.4,124.5 712.6,124.9 713.8,125.3 715.0,125.7 716.2,126.1 717.3,126.5 718.5,126.9 719.7,127.3 720.9,127.6 722.1,128.0 723.3,128.4 724.5,128.8 725.7,129.2 726.8,129.6 728.0,129.9 729.2,130.3 730.4,130.6 731.6,131.0 732.8,131.4 734.0,131.8 735.1,132.1 736.3,132.5 737.5,132.8 738.7,133.2 739.9,133.5 741.1,133.9 742.3,134.2 743.5,134.6 744.6,134.9 745.8,135.3 747.0,135.6 748.2,135.9 749.4,136.3 750.6,136.6 751.8,136.9 752.9,137.3 754.1,137.6 755.3,137.9 756.5,138.2 757.7,138.6 758.9,138.9 760.1,139.2 761.3,139.5 762.4,139.9 763.6,140.2 764.8,140.5 766.0,140.8"/>
<line x1="606" y1="42" x2="628" y2="42" stroke="#0f62fe" stroke-width="2.2"/>
<text x="634" y="46" font-family="Arial" font-size="12">energy_j_per_kg</text>
</svg>