<svg xmlns="http://www.w3.org/2000/svg" width="820" height="320" viewBox="0 0 820 320">
<rect width="100%" height="100%" fill="#ffffff"/>
<text x="54" y="28" font-family="Arial" font-size="18" font-weight="700">Crossrange Position</text>
<line x1="54" y1="266" x2="766" y2="266" stroke="#1f2933"/>
<line x1="54" y1="54" x2="54" y2="266" stroke="#1f2933"/>
<text x="54" y="306" font-family="Arial" font-size="12">time (s)</text>
<text x="596" y="306" font-family="Arial" font-size="12">y (m)</text>
<text x="58" y="68" font-family="Arial" font-size="11">17.2</text>
<text x="58" y="260" font-family="Arial" font-size="11">-137</text>
<polyline fill="none" stroke="#0f62fe" stroke-width="2.2" points="54.0,77.7 55.1,77.6 56.1,77.5 57.2,77.4 58.3,77.3 59.3,77.2 60.4,77.2 61.5,77.1 62.6,77.0 63.6,76.9 64.7,76.8 65.8,76.7 66.8,76.6 67.9,76.5 69.0,76.4 70.0,76.3 71.1,76.2 72.2,76.2 73.2,76.1 74.3,76.0 75.4,76.0 76.5,75.9 77.5,75.9 78.6,75.8 79.7,75.8 80.7,75.8 81.8,75.8 82.9,75.8 83.9,75.8 85.0,75.9 86.1,75.9 87.1,76.0 88.2,76.1 89.3,76.2 90.3,76.3 91.4,76.4 92.5,76.5 93.6,76.7 94.6,76.8 95.7,77.0 96.8,77.2 97.8,77.4 98.9,77.6 100.0,77.8 101.0,78.0 102.1,78.2 103.2,78.4 104.2,78.6 105.3,78.8 106.4,79.0 107.5,79.2 108.5,79.5 109.6,79.7 110.7,80.0 111.7,80.3 112.8,80.6 113.9,80.9 114.9,81.2 116.0,81.5 117.1,81.9 118.1,82.2 119.2,82.6 120.3,82.9 121.4,83.2 122.4,83.5 123.5,83.8 124.6,84.0 125.6,84.2 126.7,84.4 127.8,84.6 128.8,84.7 129.9,84.8 131.0,85.0 132.0,85.1 133.1,85.2 134.2,85.3 135.2,85.5 136.3,85.7 137.4,85.9 138.5,86.2 139.5,86.4 140.6,86.7 141.7,86.9 142.7,87.1 143.8,87.2 144.9,87.3 145.9,87.5 147.0,87.6 148.1,87.7 149.1,87.8 150.2,87.9 151.3,88.1 152.4,88.3 153.4,88.5 154.5,88.8 155.6,89.0 156.6,89.3 157.7,89.5 158.8,89.7 159.8,89.8 160.9,90.0 162.0,90.1 163.0,90.2 164.1,90.3 165.2,90.4 166.3,90.6 167.3,90.8 168.4,91.0 169.5,91.2 170.5,91.5 171.6,91.7 172.7,92.0 173.7,92.3 174.8,92.5 175.9,92.7 176.9,92.9 178.0,93.1 179.1,93.2 180.2,93.4 181.2,93.5 182.3,93.7 183.4,93.9 184.4,94.1 185.5,94.4 186.6,94.6 187.6,94.9 188.7,95.2 189.8,95.5 190.8,95.8 191.9,96.1 193.0,96.4 194.0,96.6 195.1,96.8 196.2,97.1 197.3,97.3 198.3,97.5 199.4,97.7 200.5,98.0 201.5,98.3 202.6,98.6 203.7,98.9 204.7,99.3 205.8,99.6 206.9,100.0 207.9,100.4 209.0,100.7 210.1,101.0 211.2,101.3 212.2,101.6 213.3,101.8 214.4,102.1 215.4,102.3 216.5,102.5 217.6,102.8 218.6,103.0 219.7,103.3 220.8,103.5 221.8,103.9 222.9,104.2 224.0,104.6 225.1,104.9 226.1,105.3 227.2,105.7 228.3,106.0 229.3,106.2 230.4,106.5 231.5,106.7 232.5,106.9 233.6,107.1 234.7,107.3 235.7,107.5 236.8,107.7 237.9,107.9 238.9,108.1 240.0,108.3 241.1,108.5 242.2,108.7 243.2,108.9 244.3,109.1 245.4,109.3 246.4,109.6 247.5,109.8 248.6,110.1 249.6,110.3 250.7,110.5 251.8,110.7 252.8,110.9 253.9,111.1 255.0,111.2 256.1,111.3 257.1,111.3 258.2,111.4 259.3,111.4 260.3,111.4 261.4,111.4 262.5,111.4 263.5,111.4 264.6,111.4 265.7,111.4 266.7,111.3 267.8,111.3 268.9,111.3 270.0,111.3 271.0,111.2 272.1,111.2 273.2,111.1 274.2,111.0 275.3,110.9 276.4,110.7 277.4,110.5 278.5,110.3 279.6,110.1 280.6,109.9 281.7,109.7 282.8,109.4 283.8,109.2 284.9,109.0 286.0,108.7 287.1,108.5 288.1,108.2 289.2,108.0 290.3,107.7 291.3,107.4 292.4,107.1 293.5,106.8 294.5,106.4 295.6,106.0 296.7,105.6 297.7,105.2 298.8,104.7 299.9,104.2 301.0,103.7 302.0,103.2 303.1,102.7 304.2,102.2 305.2,101.7 306.3,101.2 307.4,100.7 308.4,100.2 309.5,99.7 310.6,99.2 311.6,98.7 312.7,98.1 313.8,97.6 314.9,97.1 315.9,96.6 317.0,96.0 318.1,95.5 319.1,94.9 320.2,94.3 321.3,93.7 322.3,93.0 323.4,92.3 324.5,91.6 325.5,90.9 326.6,90.1 327.7,89.4 328.8,88.6 329.8,87.8 330.9,86.9 332.0,86.1 333.0,85.3 334.1,84.5 335.2,83.7 336.2,82.9 337.3,82.1 338.4,81.2 339.4,80.4 340.5,79.6 341.6,78.8 342.6,78.0 343.7,77.2 344.8,76.3 345.9,75.5 346.9,74.7 348.0,73.9 349.1,73.1 350.1,72.3 351.2,71.5 352.3,70.7 353.3,70.0 354.4,69.3 355.5,68.6 356.5,67.9 357.6,67.3 358.7,66.7 359.8,66.1 360.8,65.5 361.9,65.0 363.0,64.5 364.0,64.0 365.1,63.6 366.2,63.1 367.2,62.7 368.3,62.3 369.4,61.9 370.4,61.6 371.5,61.2 372.6,60.8 373.7,60.5 374.7,60.2 375.8,59.8 376.9,59.5 377.9,59.2 379.0,58.9 380.1,58.6 381.1,58.3 382.2,57.9 383.3,57.6 384.3,57.3 385.4,57.0 386.5,56.7 387.5,56.4 388.6,56.1 389.7,55.9 390.8,55.7 391.8,55.5 392.9,55.3 394.0,55.2 395.0,55.1 396.1,55.0 397.2,54.9 398.2,54.8 399.3,54.8 400.4,54.7 401.4,54.6 402.5,54.5 403.6,54.4 404.7,54.4 405.7,54.3 406.8,54.2 407.9,54.1 408.9,54.1 410.0,54.0 411.1,54.0 412.1,54.0 413.2,54.0 414.3,54.1 415.3,54.1 416.4,54.2 417.5,54.4 418.6,54.5 419.6,54.7 420.7,54.9 421.8,55.1 422.8,55.3 423.9,55.5 425.0,55.7 426.0,55.9 427.1,56.2 428.2,56.4 429.2,56.7 430.3,56.9 431.4,57.2 432.5,57.4 433.5,57.7 434.6,58.0 435.7,58.2 436.7,58.5 437.8,58.8 438.9,59.1 439.9,59.4 441.0,59.8 442.1,60.1 443.1,60.5 444.2,60.9 445.3,61.3 446.3,61.8 447.4,62.3 448.5,62.8 449.6,63.3 450.6,63.8 451.7,64.4 452.8,65.0 453.8,65.6 454.9,66.3 456.0,66.9 457.0,67.6 458.1,68.2 459.2,68.9 460.2,69.6 461.3,70.3 462.4,71.1 463.5,71.8 464.5,72.6 465.6,73.3 466.7,74.1 467.7,74.9 468.8,75.7 469.9,76.6 470.9,77.5 472.0,78.4 473.1,79.3 474.1,80.2 475.2,81.2 476.3,82.2 477.4,83.2 478.4,84.2 479.5,85.2 480.6,86.3 481.6,87.3 482.7,88.4 483.8,89.4 484.8,90.4 485.9,91.4 487.0,92.4 488.0,93.4 489.1,94.4 490.2,95.4 491.2,96.3 492.3,97.2 493.4,98.1 494.5,99.0 495.5,99.9 496.6,100.8 497.7,101.7 498.7,102.6 499.8,103.5 500.9,104.4 501.9,105.3 503.0,106.2 504.1,107.2 505.1,108.1 506.2,109.1 507.3,110.1 508.4,111.1 509.4,112.1 510.5,113.2 511.6,114.3 512.6,115.3 513.7,116.4 514.8,117.5 515.8,118.6 516.9,119.7 518.0,120.8 519.0,121.9 520.1,123.0 521.2,124.1 522.3,125.2 523.3,126.3 524.4,127.3 525.5,128.4 526.5,129.4 527.6,130.5 528.7,131.5 529.7,132.6 530.8,133.6 531.9,134.6 532.9,135.6 534.0,136.6 535.1,137.6 536.2,138.6 537.2,139.6 538.3,140.6 539.4,141.6 540.4,142.6 541.5,143.5 542.6,144.5 543.6,145.5 544.7,146.5 545.8,147.4 546.8,148.4 547.9,149.3 549.0,150.3 550.0,151.2 551.1,152.2 552.2,153.1 553.3,154.1 554.3,155.0 555.4,156.0 556.5,156.9 557.5,157.8 558.6,158.7 559.7,159.7 560.7,160.6 561.8,161.5 562.9,162.4 563.9,163.3 565.0,164.1 566.1,165.0 567.2,165.9 568.2,166.8 569.3,167.7 570.4,168.5 571.4,169.4 572.5,170.3 573.6,171.1 574.6,172.0 575.7,172.8 576.8,173.7 577.8,174.5 578.9,175.3 580.0,176.1 581.1,177.0 582.1,177.8 583.2,178.6 584.3,179.4 585.3,180.2 586.4,180.9 587.5,181.7 588.5,182.5 589.6,183.2 590.7,184.0 591.7,184.8 592.8,185.5 593.9,186.3 594.9,187.0 596.0,187.8 597.1,188.5 598.2,189.3 599.2,190.0 600.3,190.7 601.4,191.5 602.4,192.2 603.5,192.9 604.6,193.6 605.6,194.4 606.7,195.1 607.8,195.8 608.8,196.5 609.9,197.3 611.0,198.0 612.1,198.7 613.1,199.4 614.2,200.1 615.3,200.8 616.3,201.5 617.4,202.1 618.5,202.8 619.5,203.5 620.6,204.2 621.7,204.8 622.7,205.5 623.8,206.1 624.9,206.8 626.0,207.4 627.0,208.1 628.1,208.7 629.2,209.3 630.2,210.0 631.3,210.6 632.4,211.2 633.4,211.8 634.5,212.5 635.6,213.1 636.6,213.7 637.7,214.4 638.8,215.0 639.8,215.6 640.9,216.2 642.0,216.8 643.1,217.4 644.1,218.0 645.2,218.6 646.3,219.2 647.3,219.8 648.4,220.3 649.5,220.9 650.5,221.4 651.6,221.9 652.7,222.5 653.7,223.0 654.8,223.6 655.9,224.1 657.0,224.6 658.0,225.2 659.1,225.7 660.2,226.3 661.2,226.8 662.3,227.3 663.4,227.8 664.4,228.4 665.5,228.9 666.6,229.4 667.6,229.9 668.7,230.4 669.8,230.9 670.9,231.3 671.9,231.8 673.0,232.3 674.1,232.8 675.1,233.2 676.2,233.7 677.3,234.2 678.3,234.6 679.4,235.0 680.5,235.5 681.5,235.9 682.6,236.3 683.7,236.8 684.8,237.2 685.8,237.6 686.9,238.1 688.0,238.5 689.0,238.9 690.1,239.3 691.2,239.7 692.2,240.1 693.3,240.5 694.4,240.9 695.4,241.3 696.5,241.7 697.6,242.1 698.6,242.5 699.7,243.0 700.8,243.4 701.9,243.8 702.9,244.2 704.0,244.6 705.1,245.0 706.1,245.4 707.2,245.8 708.3,246.2 709.3,246.6 710.4,246.9 711.5,247.3 712.5,247.6 713.6,248.0 714.7,248.4 715.8,248.7 716.8,249.1 717.9,249.5 719.0,249.8 720.0,250.2 721.1,250.5 722.2,250.9 723.2,251.2 724.3,251.6 725.4,251.9 726.4,252.3 727.5,252.6 728.6,253.0 729.7,253.3 730.7,253.7 731.8,254.1 732.9,254.5 733.9,254.8 735.0,255.2 736.1,255.6 737.1,256.0 738.2,256.4 739.3,256.7 740.3,257.1 741.4,257.5 742.5,257.9 743.5,258.2 744.6,258.6 745.7,258.9 746.8,259.3 747.8,259.6 748.9,260.0 750.0,260.3 751.0,260.7 752.1,261.1 753.2,261.4 754.2,261.8 755.3,262.2 756.4,262.5 757.4,262.9 758.5,263.3 759.6,263.7 760.7,264.1 761.7,264.5 762.8,264.8 763.9,265.2 764.9,265.6 766.0,266.0"/>
<line x1="606" y1="42" x2="628" y2="42" stroke="#0f62fe" stroke-width="2.2"/>
<text x="634" y="46" font-family="Arial" font-size="12">y_m</text>
</svg>