<svg xmlns="http://www.w3.org/2000/svg" width="820" height="320" viewBox="0 0 820 320">
<rect width="100%" height="100%" fill="#ffffff"/>
<text x="54" y="28" font-family="Arial" font-size="18" font-weight="700">Specific Energy</text>
<line x1="54" y1="266" x2="766" y2="266" stroke="#1f2933"/>
<line x1="54" y1="54" x2="54" y2="266" stroke="#1f2933"/>
<text x="54" y="306" font-family="Arial" font-size="12">time (s)</text>
<text x="596" y="306" font-family="Arial" font-size="12">J/kg</text>
<text x="58" y="68" font-family="Arial" font-size="11">1.62e+04</text>
<text x="58" y="260" font-family="Arial" font-size="11">5.07e+03</text>
<polyline fill="none" stroke="#0f62fe" stroke-width="2.2" points="54.0,106.8 55.1,106.0 56.1,105.2 57.2,104.4 58.3,103.6 59.3,102.7 60.4,101.9 61.5,101.0 62.6,100.1 63.6,99.2 64.7,98.3 65.8,97.3 66.8,96.4 67.9,95.4 69.0,94.4 70.0,93.4 71.1,92.4 72.2,91.5 73.2,90.5 74.3,89.5 75.4,88.6 76.5,87.6 77.5,86.7 78.6,85.7 79.7,84.8 80.7,83.9 81.8,83.0 82.9,82.1 83.9,81.2 85.0,80.3 86.1,79.4 87.1,78.5 88.2,77.6 89.3,76.7 90.3,75.7 91.4,74.8 92.5,73.8 93.6,72.9 94.6,71.9 95.7,70.8 96.8,69.8 97.8,68.7 98.9,67.6 100.0,66.5 101.0,65.3 102.1,64.1 103.2,63.0 104.2,61.8 105.3,60.6 106.4,59.4 107.5,58.2 108.5,57.1 109.6,56.1 110.7,55.2 111.7,54.6 112.8,54.2 113.9,54.0 114.9,54.0 116.0,54.1 117.1,54.5 118.1,54.9 119.2,55.5 120.3,56.1 121.4,56.8 122.4,57.1 123.5,57.6 124.6,58.2 125.6,58.8 126.7,59.4 127.8,59.9 128.8,60.1 129.9,60.2 131.0,60.0 132.0,59.7 133.1,59.4 134.2,59.2 135.2,59.0 136.3,59.0 137.4,59.2 138.5,59.5 139.5,59.9 140.6,60.4 141.7,60.8 142.7,61.2 143.8,61.5 144.9,61.7 145.9,61.9 147.0,62.0 148.1,62.0 149.1,62.1 150.2,62.2 151.3,62.3 152.4,62.4 153.4,62.5 154.5,62.5 155.6,62.5 156.6,62.5 157.7,62.3 158.8,62.2 159.8,62.1 160.9,62.0 162.0,62.1 163.0,62.4 164.1,62.8 165.2,63.3 166.3,63.9 167.3,64.4 168.4,64.9 169.5,65.2 170.5,65.3 171.6,65.1 172.7,64.8 173.7,64.3 174.8,63.8 175.9,63.3 176.9,63.1 178.0,63.2 179.1,63.7 180.2,64.6 181.2,65.7 182.3,66.8 183.4,67.9 184.4,68.8 185.5,69.4 186.6,69.7 187.6,69.6 188.7,69.2 189.8,68.5 190.8,67.5 191.9,66.9 193.0,66.8 194.0,67.0 195.1,67.7 196.2,68.8 197.3,70.2 198.3,71.7 199.4,73.2 200.5,74.4 201.5,75.4 202.6,76.1 203.7,76.3 204.7,76.1 205.8,75.5 206.9,74.4 207.9,73.7 209.0,73.7 210.1,74.2 211.2,75.1 212.2,76.4 213.3,77.9 214.4,79.4 215.4,81.0 216.5,82.7 217.6,84.2 218.6,85.7 219.7,87.0 220.8,88.0 221.8,88.5 222.9,88.5 224.0,88.0 225.1,87.3 226.1,86.4 227.2,86.2 228.3,86.5 229.3,87.2 230.4,88.2 231.5,89.6 232.5,91.1 233.6,92.7 234.7,94.3 235.7,95.9 236.8,97.6 237.9,99.1 238.9,100.6 240.0,102.0 241.1,103.4 242.2,104.5 243.2,105.5 244.3,106.1 245.4,106.5 246.4,106.6 247.5,106.5 248.6,106.2 249.6,105.4 250.7,105.1 251.8,104.8 252.8,104.8 253.9,105.0 255.0,105.4 256.1,106.3 257.1,107.3 258.2,108.5 259.3,109.8 260.3,111.1 261.4,112.4 262.5,113.7 263.5,114.9 264.6,116.1 265.7,117.2 266.7,118.2 267.8,118.9 268.9,119.2 270.0,119.2 271.0,119.0 272.1,118.6 273.2,118.2 274.2,117.9 275.3,117.8 276.4,118.0 277.4,118.5 278.5,119.2 279.6,120.1 280.6,121.2 281.7,122.3 282.8,123.6 283.8,124.8 284.9,126.0 286.0,127.2 287.1,128.4 288.1,129.4 289.2,130.3 290.3,131.1 291.3,131.8 292.4,132.2 293.5,132.4 294.5,132.5 295.6,132.3 296.7,132.1 297.7,131.9 298.8,131.7 299.9,131.6 301.0,131.6 302.0,131.7 303.1,132.0 304.2,132.5 305.2,133.1 306.3,133.9 307.4,134.7 308.4,135.6 309.5,136.6 310.6,137.7 311.6,138.7 312.7,139.8 313.8,140.9 314.9,142.0 315.9,142.9 317.0,143.8 318.1,144.7 319.1,145.5 320.2,146.1 321.3,146.6 322.3,146.9 323.4,147.0 324.5,146.9 325.5,146.8 326.6,146.4 327.7,146.0 328.8,145.7 329.8,145.4 330.9,145.1 332.0,145.1 333.0,145.3 334.1,145.6 335.2,146.1 336.2,146.5 337.3,147.0 338.4,147.6 339.4,148.1 340.5,148.7 341.6,149.2 342.6,149.5 343.7,149.8 344.8,149.9 345.9,149.9 346.9,149.9 348.0,149.8 349.1,149.6 350.1,149.4 351.2,149.4 352.3,149.3 353.3,149.3 354.4,149.3 355.5,149.5 356.5,149.8 357.6,150.2 358.7,150.7 359.8,151.2 360.8,151.9 361.9,152.6 363.0,153.4 364.0,154.3 365.1,155.2 366.2,156.1 367.2,157.0 368.3,157.9 369.4,158.8 370.4,159.7 371.5,160.6 372.6,161.5 373.7,162.4 374.7,163.4 375.8,164.3 376.9,165.2 377.9,166.1 379.0,167.1 380.1,167.9 381.1,168.7 382.2,169.3 383.3,169.9 384.3,170.3 385.4,170.5 386.5,170.6 387.5,170.5 388.6,170.4 389.7,170.3 390.8,170.3 391.8,170.3 392.9,170.4 394.0,170.7 395.0,171.2 396.1,171.8 397.2,172.5 398.2,173.3 399.3,174.2 400.4,175.1 401.4,175.9 402.5,176.7 403.6,177.4 404.7,178.0 405.7,178.5 406.8,178.9 407.9,179.1 408.9,179.2 410.0,179.1 411.1,179.0 412.1,178.9 413.2,178.7 414.3,178.5 415.3,178.5 416.4,178.7 417.5,178.9 418.6,179.2 419.6,179.7 420.7,180.2 421.8,180.9 422.8,181.6 423.9,182.3 425.0,183.0 426.0,183.7 427.1,184.4 428.2,185.1 429.2,185.8 430.3,186.5 431.4,187.2 432.5,187.8 433.5,188.3 434.6,188.8 435.7,189.2 436.7,189.5 437.8,189.8 438.9,189.9 439.9,189.9 441.0,189.8 442.1,189.7 443.1,189.5 444.2,189.3 445.3,189.0 446.3,188.8 447.4,188.7 448.5,188.6 449.6,188.5 450.6,188.5 451.7,188.6 452.8,188.8 453.8,189.0 454.9,189.2 456.0,189.5 457.0,189.9 458.1,190.3 459.2,190.8 460.2,191.2 461.3,191.7 462.4,192.1 463.5,192.5 464.5,192.9 465.6,193.3 466.7,193.6 467.7,193.8 468.8,193.9 469.9,194.0 470.9,194.0 472.0,194.0 473.1,193.9 474.1,193.7 475.2,193.5 476.3,193.2 477.4,192.9 478.4,192.6 479.5,192.2 480.6,191.8 481.6,191.5 482.7,191.2 483.8,190.9 484.8,190.8 485.9,190.7 487.0,190.8 488.0,190.9 489.1,191.1 490.2,191.4 491.2,191.8 492.3,192.2 493.4,192.7 494.5,193.1 495.5,193.6 496.6,194.0 497.7,194.5 498.7,194.9 499.8,195.3 500.9,195.5 501.9,195.8 503.0,195.9 504.1,196.0 505.1,195.9 506.2,195.8 507.3,195.5 508.4,195.1 509.4,194.7 510.5,194.2 511.6,193.7 512.6,193.0 513.7,192.4 514.8,191.8 515.8,191.1 516.9,190.5 518.0,189.8 519.0,189.9 520.1,190.0 521.2,190.2 522.3,190.4 523.3,190.6 524.4,190.8 525.5,191.1 526.5,191.4 527.6,191.7 528.7,192.0 529.7,192.3 530.8,192.6 531.9,192.9 532.9,193.2 534.0,193.5 535.1,193.8 536.2,194.1 537.2,194.3 538.3,194.6 539.4,194.8 540.4,194.9 541.5,195.0 542.6,195.0 543.6,195.2 544.7,195.4 545.8,195.6 546.8,195.8 547.9,196.1 549.0,196.5 550.0,196.8 551.1,197.2 552.2,197.4 553.3,197.7 554.3,198.0 555.4,198.3 556.5,198.6 557.5,198.9 558.6,199.1 559.7,199.3 560.7,199.5 561.8,199.6 562.9,199.7 563.9,199.8 565.0,200.1 566.1,200.4 567.2,200.7 568.2,201.1 569.3,201.4 570.4,201.7 571.4,202.0 572.5,202.3 573.6,202.6 574.6,203.0 575.7,203.3 576.8,203.5 577.8,203.8 578.9,204.2 580.0,204.6 581.1,205.0 582.1,205.3 583.2,205.7 584.3,206.0 585.3,206.4 586.4,206.8 587.5,207.2 588.5,207.5 589.6,207.8 590.7,208.1 591.7,208.5 592.8,208.8 593.9,209.1 594.9,209.4 596.0,209.8 597.1,210.1 598.2,210.5 599.2,210.9 600.3,211.1 601.4,211.4 602.4,211.8 603.5,212.2 604.6,212.6 605.6,212.9 606.7,213.3 607.8,213.7 608.8,214.1 609.9,214.5 611.0,214.8 612.1,215.0 613.1,215.3 614.2,215.6 615.3,215.9 616.3,216.1 617.4,216.3 618.5,216.5 619.5,216.7 620.6,216.9 621.7,217.1 622.7,217.4 623.8,217.7 624.9,218.0 626.0,218.3 627.0,218.7 628.1,219.2 629.2,219.6 630.2,219.9 631.3,220.1 632.4,220.4 633.4,220.7 634.5,221.0 635.6,221.3 636.6,221.7 637.7,222.0 638.8,222.4 639.8,222.8 640.9,223.2 642.0,223.5 643.1,223.9 644.1,224.2 645.2,224.5 646.3,224.8 647.3,225.1 648.4,225.5 649.5,225.8 650.5,226.1 651.6,226.4 652.7,226.8 653.7,227.1 654.8,227.5 655.9,227.8 657.0,228.2 658.0,228.5 659.1,229.0 660.2,229.4 661.2,229.7 662.3,230.2 663.4,230.7 664.4,231.2 665.5,231.6 666.6,232.0 667.6,232.3 668.7,232.7 669.8,233.1 670.9,233.5 671.9,233.8 673.0,234.0 674.1,234.3 675.1,234.6 676.2,235.0 677.3,235.3 678.3,235.6 679.4,235.9 680.5,236.3 681.5,236.8 682.6,237.2 683.7,237.6 684.8,237.9 685.8,238.4 686.9,238.8 688.0,239.3 689.0,239.7 690.1,240.1 691.2,240.5 692.2,240.9 693.3,241.4 694.4,241.8 695.4,242.3 696.5,242.7 697.6,243.1 698.6,243.4 699.7,243.6 700.8,243.8 701.9,244.0 702.9,244.1 704.0,244.4 705.1,244.6 706.1,244.9 707.2,245.3 708.3,245.6 709.3,246.1 710.4,246.5 711.5,247.0 712.5,247.4 713.6,247.8 714.7,248.1 715.8,248.4 716.8,248.8 717.9,249.2 719.0,249.6 720.0,249.9 721.1,250.3 722.2,250.6 723.2,251.0 724.3,251.4 725.4,251.7 726.4,252.0 727.5,252.3 728.6,252.6 729.7,252.9 730.7,253.2 731.8,253.5 732.9,253.8 733.9,254.1 735.0,254.5 736.1,254.9 737.1,255.3 738.2,255.7 739.3,256.1 740.3,256.6 741.4,257.0 742.5,257.4 743.5,257.7 744.6,258.1 745.7,258.5 746.8,258.9 747.8,259.3 748.9,259.7 750.0,260.1 751.0,260.6 752.1,261.0 753.2,261.3 754.2,261.7 755.3,262.0 756.4,262.4 757.4,262.8 758.5,263.2 759.6,263.5 760.7,263.9 761.7,264.4 762.8,264.8 763.9,265.2 764.9,265.6 766.0,266.0"/>
<line x1="606" y1="42" x2="628" y2="42" stroke="#0f62fe" stroke-width="2.2"/>
<text x="634" y="46" font-family="Arial" font-size="12">energy_j_per_kg</text>
</svg>