<svg xmlns="http://www.w3.org/2000/svg" width="820" height="320" viewBox="0 0 820 320">
<rect width="100%" height="100%" fill="#ffffff"/>
<text x="54" y="28" font-family="Arial" font-size="18" font-weight="700">Mach Number</text>
<line x1="54" y1="266" x2="766" y2="266" stroke="#1f2933"/>
<line x1="54" y1="54" x2="54" y2="266" stroke="#1f2933"/>
<text x="54" y="306" font-family="Arial" font-size="12">time (s)</text>
<text x="596" y="306" font-family="Arial" font-size="12">Mach</text>
<text x="58" y="68" font-family="Arial" font-size="11">1.82</text>
<text x="58" y="260" font-family="Arial" font-size="11">0.57</text>
<polyline fill="none" stroke="#0f62fe" stroke-width="2.2" points="54.0,266.0 55.2,265.5 56.4,265.0 57.6,264.5 58.7,264.0 59.9,263.5 61.1,263.0 62.3,262.4 63.5,261.9 64.7,261.4 65.9,260.8 67.1,260.3 68.2,259.7 69.4,259.2 70.6,258.6 71.8,258.1 73.0,257.5 74.2,256.9 75.4,256.3 76.5,255.7 77.7,255.2 78.9,254.6 80.1,254.0 81.3,253.4 82.5,252.7 83.7,252.1 84.9,251.5 86.0,250.9 87.2,250.3 88.4,249.7 89.6,249.0 90.8,248.4 92.0,247.8 93.2,247.2 94.3,246.6 95.5,246.0 96.7,245.3 97.9,244.7 99.1,244.1 100.3,243.5 101.5,242.9 102.7,242.3 103.8,241.6 105.0,241.0 106.2,240.4 107.4,239.8 108.6,239.2 109.8,238.6 111.0,238.0 112.1,237.3 113.3,236.7 114.5,236.1 115.7,235.5 116.9,234.9 118.1,234.3 119.3,233.7 120.5,233.1 121.6,232.4 122.8,231.8 124.0,231.2 125.2,230.6 126.4,230.0 127.6,229.4 128.8,228.8 129.9,228.2 131.1,227.6 132.3,227.0 133.5,226.4 134.7,225.7 135.9,225.1 137.1,224.5 138.3,223.9 139.4,223.3 140.6,222.7 141.8,222.1 143.0,221.5 144.2,220.9 145.4,220.3 146.6,219.7 147.7,219.1 148.9,218.5 150.1,217.9 151.3,217.3 152.5,216.7 153.7,216.1 154.9,215.5 156.1,214.9 157.2,214.3 158.4,213.7 159.6,213.2 160.8,212.6 162.0,212.0 163.2,211.4 164.4,210.8 165.5,210.2 166.7,209.6 167.9,209.0 169.1,208.4 170.3,207.9 171.5,207.3 172.7,206.7 173.9,206.1 175.0,205.5 176.2,204.9 177.4,204.4 178.6,203.8 179.8,203.2 181.0,202.6 182.2,202.0 183.3,201.5 184.5,200.9 185.7,200.4 186.9,199.8 188.1,199.2 189.3,198.5 190.5,198.0 191.7,197.4 192.8,196.9 194.0,196.3 195.2,195.7 196.4,195.1 197.6,194.5 198.8,194.0 200.0,193.5 201.1,192.9 202.3,192.4 203.5,191.8 204.7,191.2 205.9,190.6 207.1,190.1 208.3,189.6 209.5,189.1 210.6,188.5 211.8,187.9 213.0,187.3 214.2,186.8 215.4,186.3 216.6,185.7 217.8,185.1 218.9,184.6 220.1,184.0 221.3,183.5 222.5,183.0 223.7,182.4 224.9,181.9 226.1,181.3 227.3,180.7 228.4,180.2 229.6,179.7 230.8,179.2 232.0,178.6 233.2,178.0 234.4,177.5 235.6,177.0 236.7,176.5 237.9,176.0 239.1,175.5 240.3,174.9 241.5,174.3 242.7,173.8 243.9,173.3 245.1,172.9 246.2,172.4 247.4,171.9 248.6,171.3 249.8,170.7 251.0,170.2 252.2,169.7 253.4,169.2 254.5,168.7 255.7,168.2 256.9,167.6 258.1,167.0 259.3,166.5 260.5,166.0 261.7,165.6 262.9,165.1 264.0,164.6 265.2,164.0 266.4,163.5 267.6,162.9 268.8,162.5 270.0,162.0 271.2,161.6 272.3,161.1 273.5,160.6 274.7,160.0 275.9,159.4 277.1,158.9 278.3,158.5 279.5,158.0 280.7,157.5 281.8,156.9 283.0,156.4 284.2,155.8 285.4,155.3 286.6,154.8 287.8,154.4 289.0,154.0 290.1,153.6 291.3,153.0 292.5,152.5 293.7,151.9 294.9,151.4 296.1,150.9 297.3,150.5 298.5,150.1 299.6,149.6 300.8,149.1 302.0,148.5 303.2,148.0 304.4,147.4 305.6,147.0 306.8,146.6 307.9,146.2 309.1,145.8 310.3,145.3 311.5,144.7 312.7,144.1 313.9,143.6 315.1,143.2 316.3,142.8 317.4,142.5 318.6,142.1 319.8,141.5 321.0,141.0 322.2,140.4 323.4,139.9 324.6,139.5 325.7,139.1 326.9,138.8 328.1,138.3 329.3,137.8 330.5,137.3 331.7,136.7 332.9,136.2 334.1,135.7 335.2,135.4 336.4,135.0 337.6,134.6 338.8,134.0 340.0,133.5 341.2,132.9 342.4,132.4 343.5,132.0 344.7,131.6 345.9,131.2 347.1,130.8 348.3,130.3 349.5,129.7 350.7,129.2 351.9,128.6 353.0,128.2 354.2,127.9 355.4,127.5 356.6,127.1 357.8,126.6 359.0,126.0 360.2,125.5 361.3,125.0 362.5,124.5 363.7,124.2 364.9,123.9 366.1,123.5 367.3,123.0 368.5,122.4 369.7,121.9 370.8,121.4 372.0,121.0 373.2,120.6 374.4,120.3 375.6,119.9 376.8,119.4 378.0,118.9 379.1,118.4 380.3,117.9 381.5,117.5 382.7,117.2 383.9,116.8 385.1,116.4 386.3,115.9 387.5,115.4 388.6,114.9 389.8,114.4 391.0,114.0 392.2,113.7 393.4,113.4 394.6,113.0 395.8,112.5 396.9,112.0 398.1,111.4 399.3,111.0 400.5,110.6 401.7,110.3 402.9,110.0 404.1,109.6 405.3,109.1 406.4,108.6 407.6,108.0 408.8,107.6 410.0,107.2 411.2,106.9 412.4,106.6 413.6,106.2 414.7,105.7 415.9,105.2 417.1,104.7 418.3,104.2 419.5,103.8 420.7,103.5 421.9,103.3 423.1,102.9 424.2,102.4 425.4,101.9 426.6,101.4 427.8,100.9 429.0,100.6 430.2,100.3 431.4,100.0 432.5,99.6 433.7,99.1 434.9,98.6 436.1,98.2 437.3,97.7 438.5,97.3 439.7,97.0 440.9,96.8 442.0,96.4 443.2,95.9 444.4,95.4 445.6,95.0 446.8,94.5 448.0,94.1 449.2,93.9 450.3,93.6 451.5,93.2 452.7,92.7 453.9,92.3 455.1,91.8 456.3,91.3 457.5,91.0 458.7,90.7 459.8,90.4 461.0,90.1 462.2,89.6 463.4,89.2 464.6,88.7 465.8,88.3 467.0,87.9 468.1,87.6 469.3,87.4 470.5,87.0 471.7,86.6 472.9,86.1 474.1,85.7 475.3,85.2 476.5,84.9 477.6,84.6 478.8,84.4 480.0,84.0 481.2,83.6 482.4,83.1 483.6,82.7 484.8,82.3 485.9,81.9 487.1,81.7 488.3,81.4 489.5,81.1 490.7,80.6 491.9,80.2 493.1,79.8 494.3,79.4 495.4,79.0 496.6,78.8 497.8,78.5 499.0,78.2 500.2,77.8 501.4,77.3 502.6,76.9 503.7,76.5 504.9,76.2 506.1,75.9 507.3,75.7 508.5,75.4 509.7,74.9 510.9,74.5 512.1,74.1 513.2,73.7 514.4,73.4 515.6,73.1 516.8,72.9 518.0,72.6 519.2,72.2 520.4,71.8 521.5,71.4 522.7,71.0 523.9,70.6 525.1,70.4 526.3,70.2 527.5,69.9 528.7,69.4 529.9,69.1 531.0,68.7 532.2,68.3 533.4,68.0 534.6,67.8 535.8,67.5 537.0,67.2 538.2,66.8 539.3,66.5 540.5,66.1 541.7,65.7 542.9,65.4 544.1,65.2 545.3,64.9 546.5,64.6 547.7,64.2 548.8,63.9 550.0,63.5 551.2,63.1 552.4,62.8 553.6,62.6 554.8,62.4 556.0,62.1 557.1,61.8 558.3,61.4 559.5,61.0 560.7,60.7 561.9,60.4 563.1,60.2 564.3,60.0 565.5,59.7 566.6,59.3 567.8,59.0 569.0,58.7 570.2,58.3 571.4,58.0 572.6,57.8 573.8,57.6 574.9,57.3 576.1,56.9 577.3,56.6 578.5,56.3 579.7,55.9 580.9,55.6 582.1,55.4 583.3,55.3 584.4,55.0 585.6,54.6 586.8,54.3 588.0,54.0 589.2,54.2 590.4,54.6 591.6,55.0 592.7,55.5 593.9,55.9 595.1,56.1 596.3,56.5 597.5,56.8 598.7,57.1 599.9,57.5 601.1,57.9 602.2,58.4 603.4,58.8 604.6,59.1 605.8,59.4 607.0,59.7 608.2,60.0 609.4,60.4 610.5,60.8 611.7,61.3 612.9,61.6 614.1,61.9 615.3,62.2 616.5,62.6 617.7,62.8 618.9,63.2 620.0,63.6 621.2,64.1 622.4,64.4 623.6,64.7 624.8,65.0 626.0,65.3 627.2,65.6 628.3,65.9 629.5,66.4 630.7,66.8 631.9,67.2 633.1,67.5 634.3,67.8 635.5,68.1 636.7,68.3 637.8,68.7 639.0,69.1 640.2,69.5 641.4,69.9 642.6,70.2 643.8,70.4 645.0,70.7 646.1,71.0 647.3,71.4 648.5,71.8 649.7,72.2 650.9,72.6 652.1,72.8 653.3,73.1 654.5,73.4 655.6,73.7 656.8,74.0 658.0,74.4 659.2,74.8 660.4,75.1 661.6,75.4 662.8,75.7 663.9,76.0 665.1,76.2 666.3,76.5 667.5,77.0 668.7,77.4 669.9,77.8 671.1,78.0 672.3,78.3 673.4,78.5 674.6,78.8 675.8,79.1 677.0,79.6 678.2,80.0 679.4,80.3 680.6,80.6 681.7,80.9 682.9,81.1 684.1,81.4 685.3,81.7 686.5,82.1 687.7,82.5 688.9,82.8 690.1,83.0 691.2,83.3 692.4,83.6 693.6,83.8 694.8,84.1 696.0,84.6 697.2,85.0 698.4,85.3 699.5,85.5 700.7,85.8 701.9,86.1 703.1,86.3 704.3,86.6 705.5,87.0 706.7,87.3 707.9,87.6 709.0,87.8 710.2,88.1 711.4,88.4 712.6,88.6 713.8,88.9 715.0,89.3 716.2,89.7 717.3,90.1 718.5,90.4 719.7,90.6 720.9,90.8 722.1,91.1 723.3,91.4 724.5,91.8 725.7,92.2 726.8,92.4 728.0,92.7 729.2,92.9 730.4,93.1 731.6,93.5 732.8,93.9 734.0,94.3 735.1,94.6 736.3,94.8 737.5,95.0 738.7,95.3 739.9,95.5 741.1,95.8 742.3,96.1 743.5,96.6 744.6,96.9 745.8,97.2 747.0,97.4 748.2,97.6 749.4,97.8 750.6,98.1 751.8,98.4 752.9,98.8 754.1,99.2 755.3,99.4 756.5,99.6 757.7,99.9 758.9,100.2 760.1,100.4 761.3,100.6 762.4,101.0 763.6,101.6 764.8,102.2 766.0,102.7"/>
<line x1="606" y1="42" x2="628" y2="42" stroke="#0f62fe" stroke-width="2.2"/>
<text x="634" y="46" font-family="Arial" font-size="12">mach</text>
</svg>