<svg xmlns="http://www.w3.org/2000/svg" width="820" height="320" viewBox="0 0 820 320">
<rect width="100%" height="100%" fill="#ffffff"/>
<text x="54" y="28" font-family="Arial" font-size="18" font-weight="700">Control Surfaces</text>
<line x1="54" y1="266" x2="766" y2="266" stroke="#1f2933"/>
<line x1="54" y1="54" x2="54" y2="266" stroke="#1f2933"/>
<text x="54" y="306" font-family="Arial" font-size="12">time (s)</text>
<text x="596" y="306" font-family="Arial" font-size="12">deflection (deg)</text>
<text x="58" y="68" font-family="Arial" font-size="11">10.5</text>
<text x="58" y="260" font-family="Arial" font-size="11">-13.9</text>
<polyline fill="none" stroke="#0f62fe" stroke-width="2.2" points="54.0,186.6 55.2,145.9 56.4,126.0 57.6,141.1 58.7,166.8 59.9,175.7 61.1,163.7 62.3,148.7 63.5,147.1 64.7,157.7 65.9,166.9 67.1,165.6 68.2,158.0 69.4,154.2 70.6,157.9 71.8,163.8 73.0,165.2 74.2,161.8 75.4,158.8 76.5,160.1 77.7,163.7 78.9,165.3 80.1,163.7 81.3,161.7 82.5,162.3 83.7,164.7 84.9,166.0 86.0,165.1 87.2,163.8 88.4,164.4 89.6,166.2 90.8,167.0 92.0,166.3 93.2,165.5 94.3,166.2 95.5,167.7 96.7,168.1 97.9,167.4 99.1,167.1 100.3,168.0 101.5,169.2 102.7,169.2 103.8,168.5 105.0,168.6 106.2,169.7 107.4,170.5 108.6,170.1 109.8,169.6 111.0,170.2 112.1,171.4 113.3,171.5 114.5,170.8 115.7,170.8 116.9,172.0 118.1,172.8 119.3,172.2 120.5,171.6 121.6,172.5 122.8,173.8 124.0,173.5 125.2,172.5 126.4,173.0 127.6,174.7 128.8,174.9 129.9,173.4 131.1,173.3 132.3,175.4 133.5,176.3 134.7,174.4 135.9,173.5 137.1,176.1 138.3,177.8 139.4,175.3 140.6,173.5 141.8,176.7 143.0,179.7 144.2,176.2 145.4,172.9 146.6,177.4 147.7,182.2 148.9,176.9 150.1,171.3 151.3,178.5 152.5,185.9 153.7,176.8 154.9,167.9 156.1,180.8 157.2,192.0 158.4,174.4 159.6,161.4 160.8,186.9 162.0,201.8 163.2,165.6 164.4,150.7 165.5,192.4 166.7,225.2 167.9,183.6 169.1,141.9 170.3,148.5 171.5,190.1 172.7,231.8 173.9,205.1 175.0,163.4 176.2,121.7 177.4,163.4 178.6,205.1 179.8,239.3 181.0,197.6 182.2,155.9 183.3,116.0 184.5,157.7 185.7,199.4 186.9,241.1 188.1,215.3 189.3,173.6 190.5,131.9 191.7,131.1 192.8,172.8 194.0,214.5 195.2,248.2 196.4,206.5 197.6,164.9 198.8,123.2 200.0,145.6 201.1,187.3 202.3,228.9 203.5,244.1 204.7,202.4 205.9,160.7 207.1,119.0 208.3,160.7 209.5,202.4 210.6,244.1 211.8,208.8 213.0,167.2 214.2,125.5 215.4,167.2 216.6,208.8 217.8,250.5 218.9,208.8 220.1,167.2 221.3,125.5 222.5,155.5 223.7,197.2 224.9,238.9 226.1,213.1 227.3,171.4 228.4,129.7 229.6,171.4 230.8,213.1 232.0,252.5 233.2,210.8 234.4,169.1 235.6,127.4 236.7,147.5 237.9,189.2 239.1,230.9 240.3,253.4 241.5,211.8 242.7,170.1 243.9,128.4 245.1,140.9 246.2,182.6 247.4,224.3 248.6,266.0 249.8,224.3 251.0,182.6 252.2,140.9 253.4,137.2 254.5,178.9 255.7,220.6 256.9,262.3 258.1,220.6 259.3,178.9 260.5,137.2 261.7,143.8 262.9,185.5 264.0,227.2 265.2,259.1 266.4,217.4 267.6,175.7 268.8,134.0 270.0,139.0 271.2,180.7 272.3,222.4 273.5,264.1 274.7,227.1 275.9,185.4 277.1,143.7 278.3,125.0 279.5,166.7 280.7,208.4 281.8,250.0 283.0,240.0 284.2,198.3 285.4,156.6 286.6,114.9 287.8,121.8 289.0,163.5 290.1,205.2 291.3,246.9 292.5,261.1 293.7,219.4 294.9,177.7 296.1,136.0 297.3,122.4 298.5,164.0 299.6,205.7 300.8,247.4 302.0,255.1 303.2,213.4 304.4,171.7 305.6,130.0 306.8,114.6 307.9,156.3 309.1,198.0 310.3,239.7 311.5,250.5 312.7,208.8 313.9,167.1 315.1,125.4 316.3,111.7 317.4,153.4 318.6,195.1 319.8,236.7 321.0,253.2 322.2,211.5 323.4,169.8 324.6,128.1 325.7,113.8 326.9,155.5 328.1,197.2 329.3,238.9 330.5,254.9 331.7,213.2 332.9,171.5 334.1,129.8 335.2,114.0 336.4,155.7 337.6,197.4 338.8,239.1 340.0,256.1 341.2,214.4 342.4,172.8 343.5,131.1 344.7,111.4 345.9,153.0 347.1,194.7 348.3,236.4 349.5,252.9 350.7,211.2 351.9,169.5 353.0,127.8 354.2,107.9 355.4,149.6 356.6,191.3 357.8,233.0 359.0,250.8 360.2,209.1 361.3,167.4 362.5,125.7 363.7,104.5 364.9,146.2 366.1,187.9 367.3,229.6 368.5,248.4 369.7,206.7 370.8,165.0 372.0,123.3 373.2,100.9 374.4,142.5 375.6,184.2 376.8,225.9 378.0,247.5 379.1,205.8 380.3,164.1 381.5,122.5 382.7,99.9 383.9,141.6 385.1,183.3 386.3,225.0 387.5,247.0 388.6,205.3 389.8,163.6 391.0,122.0 392.2,98.1 393.4,139.7 394.6,181.4 395.8,223.1 396.9,246.2 398.1,204.5 399.3,162.9 400.5,121.2 401.7,96.1 402.9,137.7 404.1,179.4 405.3,221.1 406.4,245.3 407.6,203.6 408.8,161.9 410.0,120.2 411.2,93.9 412.4,135.6 413.6,177.3 414.7,219.0 415.9,244.3 417.1,202.6 418.3,160.9 419.5,119.2 420.7,91.7 421.9,133.4 423.1,175.1 424.2,216.8 425.4,243.1 426.6,201.4 427.8,159.7 429.0,118.0 430.2,89.3 431.4,131.0 432.5,172.7 433.7,214.4 434.9,242.9 436.1,201.2 437.3,159.5 438.5,117.8 439.7,88.7 440.9,130.4 442.0,172.1 443.2,213.8 444.4,243.0 445.6,201.3 446.8,159.6 448.0,117.9 449.2,87.7 450.3,129.3 451.5,171.0 452.7,212.7 453.9,243.0 455.1,201.3 456.3,159.7 457.5,118.0 458.7,84.6 459.8,126.3 461.0,168.0 462.2,209.7 463.4,239.7 464.6,198.0 465.8,156.4 467.0,114.7 468.1,80.8 469.3,122.5 470.5,164.2 471.7,205.9 472.9,243.9 474.1,202.2 475.3,160.5 476.5,118.8 477.6,80.5 478.8,122.2 480.0,163.9 481.2,205.6 482.4,239.3 483.6,197.6 484.8,155.9 485.9,114.2 487.1,79.3 488.3,121.0 489.5,162.7 490.7,204.4 491.9,241.9 493.1,200.2 494.3,158.5 495.4,116.8 496.6,75.4 497.8,117.1 499.0,158.8 500.2,200.5 501.4,242.2 502.6,200.5 503.7,158.8 504.9,117.1 506.1,75.4 507.3,117.1 508.5,158.8 509.7,200.5 510.9,240.0 512.1,198.3 513.2,156.6 514.4,114.9 515.6,73.5 516.8,115.2 518.0,156.9 519.2,198.6 520.4,240.3 521.5,198.6 522.7,156.9 523.9,115.2 525.1,73.5 526.3,115.2 527.5,156.9 528.7,198.6 529.9,238.8 531.0,197.2 532.2,155.5 533.4,113.8 534.6,72.1 535.8,113.8 537.0,155.5 538.2,197.2 539.3,238.8 540.5,197.2 541.7,155.5 542.9,113.8 544.1,72.1 545.3,113.8 546.5,155.5 547.7,197.2 548.8,238.8 550.0,197.2 551.2,155.5 552.4,113.8 553.6,72.1 554.8,113.8 556.0,155.5 557.1,197.2 558.3,237.1 559.5,195.4 560.7,153.7 561.9,112.0 563.1,70.3 564.3,112.0 565.5,153.7 566.6,195.4 567.8,237.1 569.0,195.4 570.2,153.7 571.4,112.0 572.6,70.3 573.8,112.0 574.9,153.7 576.1,195.4 577.3,236.1 578.5,194.4 579.7,152.7 580.9,111.0 582.1,69.3 583.3,111.0 584.4,152.7 585.6,194.4 586.8,236.1 588.0,194.4 589.2,152.7 590.4,111.0 591.6,69.3 592.7,111.0 593.9,152.7 595.1,194.4 596.3,236.1 597.5,194.4 598.7,152.7 599.9,111.0 601.1,69.3 602.2,111.0 603.4,152.7 604.6,194.4 605.8,236.1 607.0,194.4 608.2,152.7 609.4,111.0 610.5,69.6 611.7,111.3 612.9,153.0 614.1,194.7 615.3,236.4 616.5,194.7 617.7,153.0 618.9,111.3 620.0,71.0 621.2,112.7 622.4,154.4 623.6,196.1 624.8,237.8 626.0,196.1 627.2,154.4 628.3,112.7 629.5,71.0 630.7,112.7 631.9,154.4 633.1,196.1 634.3,237.8 635.5,196.1 636.7,154.4 637.8,112.7 639.0,74.8 640.2,116.5 641.4,158.2 642.6,199.9 643.8,237.3 645.0,195.6 646.1,153.9 647.3,112.2 648.5,70.6 649.7,112.3 650.9,154.0 652.1,195.7 653.3,237.4 654.5,195.7 655.6,154.0 656.8,112.3 658.0,79.7 659.2,121.4 660.4,163.1 661.6,204.8 662.8,240.9 663.9,199.2 665.1,157.5 666.3,115.8 667.5,74.1 668.7,115.8 669.9,157.5 671.1,199.2 672.3,232.6 673.4,191.0 674.6,149.3 675.8,107.6 677.0,74.9 678.2,116.6 679.4,158.3 680.6,200.0 681.7,241.6 682.9,200.0 684.1,158.3 685.3,116.6 686.5,76.9 687.7,118.6 688.9,160.3 690.1,202.0 691.2,231.5 692.4,189.8 693.6,148.1 694.8,106.4 696.0,71.6 697.2,113.3 698.4,155.0 699.5,196.7 700.7,238.4 701.9,196.7 703.1,155.0 704.3,113.3 705.5,88.3 706.7,130.0 707.9,171.7 709.0,213.4 710.2,247.3 711.4,205.6 712.6,163.9 713.8,122.2 715.0,80.5 716.2,122.2 717.3,163.9 718.5,205.6 719.7,213.2 720.9,171.5 722.1,129.8 723.3,88.1 724.5,118.1 725.7,159.7 726.8,201.4 728.0,231.9 729.2,190.2 730.4,148.5 731.6,106.8 732.8,86.5 734.0,128.2 735.1,169.9 736.3,211.6 737.5,248.7 738.7,207.0 739.9,165.3 741.1,123.6 742.3,81.9 743.5,114.3 744.6,156.0 745.8,197.7 747.0,239.4 748.2,207.3 749.4,165.7 750.6,124.0 751.8,82.3 752.9,101.9 754.1,143.6 755.3,185.3 756.5,227.0 757.7,262.4 758.9,220.8 760.1,179.1 761.3,137.4 762.4,95.7 763.6,54.0 764.8,70.7 766.0,112.3"/>
<line x1="606" y1="42" x2="628" y2="42" stroke="#0f62fe" stroke-width="2.2"/>
<text x="634" y="46" font-family="Arial" font-size="12">elevator_deg</text>
<polyline fill="none" stroke="#24a148" stroke-width="2.2" points="54.0,144.9 55.2,144.9 56.4,144.9 57.6,144.9 58.7,144.9 59.9,144.9 61.1,144.9 62.3,144.9 63.5,144.9 64.7,144.9 65.9,144.9 67.1,144.9 68.2,144.9 69.4,144.9 70.6,144.9 71.8,144.9 73.0,144.9 74.2,144.9 75.4,144.9 76.5,144.9 77.7,144.9 78.9,144.9 80.1,144.9 81.3,144.9 82.5,144.9 83.7,144.9 84.9,144.9 86.0,144.9 87.2,144.9 88.4,144.9 89.6,144.9 90.8,144.9 92.0,144.9 93.2,144.9 94.3,144.9 95.5,144.9 96.7,144.9 97.9,144.9 99.1,144.9 100.3,144.9 101.5,144.9 102.7,144.9 103.8,144.9 105.0,144.9 106.2,144.9 107.4,144.9 108.6,144.9 109.8,144.9 111.0,144.9 112.1,144.9 113.3,144.9 114.5,144.9 115.7,144.9 116.9,144.9 118.1,144.9 119.3,144.9 120.5,144.9 121.6,144.9 122.8,144.9 124.0,144.9 125.2,144.9 126.4,144.9 127.6,144.9 128.8,144.9 129.9,144.9 131.1,144.9 132.3,144.9 133.5,144.9 134.7,144.9 135.9,144.9 137.1,144.9 138.3,144.9 139.4,144.9 140.6,144.9 141.8,144.9 143.0,144.9 144.2,144.9 145.4,144.9 146.6,144.9 147.7,144.9 148.9,144.9 150.1,144.9 151.3,144.9 152.5,144.9 153.7,144.9 154.9,144.9 156.1,144.9 157.2,144.9 158.4,144.9 159.6,144.9 160.8,144.9 162.0,144.9 163.2,144.9 164.4,144.9 165.5,144.9 166.7,144.9 167.9,144.9 169.1,144.9 170.3,144.9 171.5,144.9 172.7,144.9 173.9,144.9 175.0,144.9 176.2,144.9 177.4,144.9 178.6,144.9 179.8,144.9 181.0,144.9 182.2,144.9 183.3,144.9 184.5,144.9 185.7,144.9 186.9,144.9 188.1,144.9 189.3,144.9 190.5,144.9 191.7,144.9 192.8,144.9 194.0,144.9 195.2,144.9 196.4,144.9 197.6,144.9 198.8,144.9 200.0,144.9 201.1,144.9 202.3,144.9 203.5,144.9 204.7,144.9 205.9,144.9 207.1,144.9 208.3,144.9 209.5,144.9 210.6,144.9 211.8,144.9 213.0,144.9 214.2,144.9 215.4,144.9 216.6,144.9 217.8,144.9 218.9,144.9 220.1,144.9 221.3,144.9 222.5,144.9 223.7,144.9 224.9,144.9 226.1,144.9 227.3,144.9 228.4,144.9 229.6,144.9 230.8,144.9 232.0,144.9 233.2,144.9 234.4,144.9 235.6,144.9 236.7,144.9 237.9,144.9 239.1,144.9 240.3,144.9 241.5,144.9 242.7,144.9 243.9,144.9 245.1,144.9 246.2,144.9 247.4,144.9 248.6,144.9 249.8,144.9 251.0,144.9 252.2,144.9 253.4,144.9 254.5,144.9 255.7,144.9 256.9,144.9 258.1,144.9 259.3,144.9 260.5,144.9 261.7,144.9 262.9,144.9 264.0,144.9 265.2,144.9 266.4,144.9 267.6,144.9 268.8,144.9 270.0,144.9 271.2,144.9 272.3,144.9 273.5,144.9 274.7,144.9 275.9,144.9 277.1,144.9 278.3,144.9 279.5,144.9 280.7,144.9 281.8,144.9 283.0,144.9 284.2,144.9 285.4,144.9 286.6,144.9 287.8,144.9 289.0,144.9 290.1,144.9 291.3,144.9 292.5,144.9 293.7,144.9 294.9,144.9 296.1,144.9 297.3,144.9 298.5,144.9 299.6,144.9 300.8,144.9 302.0,144.9 303.2,144.9 304.4,144.9 305.6,144.9 306.8,144.9 307.9,144.9 309.1,144.9 310.3,144.9 311.5,144.9 312.7,144.9 313.9,144.9 315.1,144.9 316.3,144.9 317.4,144.9 318.6,144.9 319.8,144.9 321.0,144.9 322.2,144.9 323.4,144.9 324.6,144.9 325.7,144.9 326.9,144.9 328.1,144.9 329.3,144.9 330.5,144.9 331.7,144.9 332.9,144.9 334.1,144.9 335.2,144.9 336.4,144.9 337.6,144.9 338.8,144.9 340.0,144.9 341.2,144.9 342.4,144.9 343.5,144.9 344.7,144.9 345.9,144.9 347.1,144.9 348.3,144.9 349.5,144.9 350.7,144.9 351.9,144.9 353.0,144.9 354.2,144.9 355.4,144.9 356.6,144.9 357.8,144.9 359.0,144.9 360.2,144.9 361.3,144.9 362.5,144.9 363.7,144.9 364.9,144.9 366.1,144.9 367.3,144.9 368.5,144.9 369.7,144.9 370.8,144.9 372.0,144.9 373.2,144.9 374.4,144.9 375.6,144.9 376.8,144.9 378.0,144.9 379.1,144.9 380.3,144.9 381.5,144.9 382.7,144.9 383.9,144.9 385.1,144.9 386.3,144.9 387.5,144.9 388.6,144.9 389.8,144.9 391.0,144.9 392.2,144.9 393.4,144.9 394.6,144.9 395.8,144.9 396.9,144.9 398.1,144.9 399.3,144.9 400.5,144.9 401.7,144.9 402.9,144.9 404.1,144.9 405.3,144.9 406.4,144.9 407.6,144.9 408.8,144.9 410.0,144.9 411.2,144.9 412.4,144.9 413.6,144.9 414.7,144.9 415.9,144.9 417.1,144.9 418.3,144.9 419.5,144.9 420.7,144.9 421.9,144.9 423.1,144.9 424.2,144.9 425.4,144.9 426.6,144.9 427.8,144.9 429.0,144.9 430.2,144.9 431.4,144.9 432.5,144.9 433.7,144.9 434.9,144.9 436.1,144.9 437.3,144.9 438.5,144.9 439.7,144.9 440.9,144.9 442.0,144.9 443.2,144.9 444.4,144.9 445.6,144.9 446.8,144.9 448.0,144.9 449.2,144.9 450.3,144.9 451.5,144.9 452.7,144.9 453.9,144.9 455.1,144.9 456.3,144.9 457.5,144.9 458.7,144.9 459.8,144.9 461.0,144.9 462.2,144.9 463.4,144.9 464.6,144.9 465.8,144.9 467.0,144.9 468.1,144.9 469.3,144.9 470.5,144.9 471.7,144.9 472.9,144.9 474.1,144.9 475.3,144.9 476.5,144.9 477.6,144.9 478.8,144.9 480.0,144.9 481.2,144.9 482.4,144.9 483.6,144.9 484.8,144.9 485.9,144.9 487.1,144.9 488.3,144.9 489.5,144.9 490.7,144.9 491.9,144.9 493.1,144.9 494.3,144.9 495.4,144.9 496.6,144.9 497.8,144.9 499.0,144.9 500.2,144.9 501.4,144.9 502.6,144.9 503.7,144.9 504.9,144.9 506.1,144.9 507.3,144.9 508.5,144.9 509.7,144.9 510.9,144.9 512.1,144.9 513.2,144.9 514.4,144.9 515.6,144.9 516.8,144.9 518.0,144.9 519.2,144.9 520.4,144.9 521.5,144.9 522.7,144.9 523.9,144.9 525.1,144.9 526.3,144.9 527.5,144.9 528.7,144.9 529.9,144.9 531.0,144.9 532.2,144.9 533.4,144.9 534.6,144.9 535.8,144.9 537.0,144.9 538.2,144.9 539.3,144.9 540.5,144.9 541.7,144.9 542.9,144.9 544.1,144.9 545.3,144.9 546.5,144.9 547.7,144.9 548.8,144.9 550.0,144.9 551.2,144.9 552.4,144.9 553.6,144.9 554.8,144.9 556.0,144.9 557.1,144.9 558.3,144.9 559.5,144.9 560.7,144.9 561.9,144.9 563.1,144.9 564.3,144.9 565.5,144.9 566.6,144.9 567.8,144.9 569.0,144.9 570.2,144.9 571.4,144.9 572.6,144.9 573.8,144.9 574.9,144.9 576.1,144.9 577.3,144.9 578.5,144.9 579.7,144.9 580.9,144.9 582.1,144.9 583.3,144.9 584.4,144.9 585.6,144.9 586.8,144.9 588.0,144.9 589.2,144.9 590.4,144.9 591.6,144.9 592.7,144.9 593.9,144.9 595.1,144.9 596.3,144.9 597.5,144.9 598.7,144.9 599.9,144.9 601.1,144.9 602.2,144.9 603.4,144.9 604.6,144.9 605.8,144.9 607.0,144.9 608.2,144.9 609.4,144.9 610.5,144.9 611.7,144.9 612.9,144.9 614.1,144.9 615.3,144.9 616.5,144.9 617.7,144.9 618.9,144.9 620.0,144.9 621.2,144.9 622.4,144.9 623.6,144.9 624.8,144.9 626.0,144.9 627.2,144.9 628.3,144.9 629.5,144.9 630.7,144.9 631.9,144.9 633.1,144.9 634.3,144.9 635.5,144.9 636.7,144.9 637.8,144.9 639.0,144.9 640.2,144.9 641.4,144.9 642.6,144.9 643.8,144.9 645.0,144.9 646.1,144.9 647.3,144.9 648.5,144.9 649.7,144.9 650.9,144.9 652.1,144.9 653.3,144.9 654.5,144.9 655.6,144.9 656.8,144.9 658.0,144.9 659.2,144.9 660.4,144.9 661.6,144.9 662.8,144.9 663.9,144.9 665.1,144.9 666.3,144.9 667.5,144.9 668.7,144.9 669.9,144.9 671.1,144.9 672.3,144.9 673.4,144.9 674.6,144.9 675.8,144.9 677.0,144.9 678.2,144.9 679.4,144.9 680.6,144.9 681.7,144.9 682.9,144.9 684.1,144.9 685.3,144.9 686.5,144.9 687.7,144.9 688.9,144.9 690.1,144.9 691.2,144.9 692.4,144.9 693.6,144.9 694.8,144.9 696.0,144.9 697.2,144.9 698.4,144.9 699.5,144.9 700.7,144.9 701.9,144.9 703.1,144.9 704.3,144.9 705.5,144.9 706.7,144.9 707.9,144.9 709.0,144.9 710.2,144.9 711.4,144.9 712.6,144.9 713.8,144.9 715.0,144.9 716.2,144.9 717.3,144.9 718.5,144.9 719.7,144.9 720.9,144.9 722.1,144.9 723.3,144.9 724.5,144.9 725.7,144.9 726.8,144.9 728.0,144.9 729.2,144.9 730.4,144.9 731.6,144.9 732.8,144.9 734.0,144.9 735.1,144.9 736.3,144.9 737.5,144.9 738.7,144.9 739.9,144.9 741.1,144.9 742.3,144.9 743.5,144.9 744.6,144.9 745.8,144.9 747.0,144.9 748.2,144.9 749.4,144.9 750.6,144.9 751.8,144.9 752.9,144.9 754.1,144.9 755.3,144.9 756.5,144.9 757.7,144.9 758.9,144.9 760.1,144.9 761.3,144.9 762.4,144.9 763.6,144.9 764.8,144.9 766.0,144.9"/>
<line x1="606" y1="60" x2="628" y2="60" stroke="#24a148" stroke-width="2.2"/>
<text x="634" y="64" font-family="Arial" font-size="12">aileron_deg</text>
<polyline fill="none" stroke="#da1e28" stroke-width="2.2" points="54.0,144.9 55.2,144.9 56.4,144.9 57.6,144.9 58.7,144.9 59.9,144.9 61.1,144.9 62.3,144.9 63.5,144.9 64.7,144.9 65.9,144.9 67.1,144.9 68.2,144.9 69.4,144.9 70.6,144.9 71.8,144.9 73.0,144.9 74.2,144.9 75.4,144.9 76.5,144.9 77.7,144.9 78.9,144.9 80.1,144.9 81.3,144.9 82.5,144.9 83.7,144.9 84.9,144.9 86.0,144.9 87.2,144.9 88.4,144.9 89.6,144.9 90.8,144.9 92.0,144.9 93.2,144.9 94.3,144.9 95.5,144.9 96.7,144.9 97.9,144.9 99.1,144.9 100.3,144.9 101.5,144.9 102.7,144.9 103.8,144.9 105.0,144.9 106.2,144.9 107.4,144.9 108.6,144.9 109.8,144.9 111.0,144.9 112.1,144.9 113.3,144.9 114.5,144.9 115.7,144.9 116.9,144.9 118.1,144.9 119.3,144.9 120.5,144.9 121.6,144.9 122.8,144.9 124.0,144.9 125.2,144.9 126.4,144.9 127.6,144.9 128.8,144.9 129.9,144.9 131.1,144.9 132.3,144.9 133.5,144.9 134.7,144.9 135.9,144.9 137.1,144.9 138.3,144.9 139.4,144.9 140.6,144.9 141.8,144.9 143.0,144.9 144.2,144.9 145.4,144.9 146.6,144.9 147.7,144.9 148.9,144.9 150.1,144.9 151.3,144.9 152.5,144.9 153.7,144.9 154.9,144.9 156.1,144.9 157.2,144.9 158.4,144.9 159.6,144.9 160.8,144.9 162.0,144.9 163.2,144.9 164.4,144.9 165.5,144.9 166.7,144.9 167.9,144.9 169.1,144.9 170.3,144.9 171.5,144.9 172.7,144.9 173.9,144.9 175.0,144.9 176.2,144.9 177.4,144.9 178.6,144.9 179.8,144.9 181.0,144.9 182.2,144.9 183.3,144.9 184.5,144.9 185.7,144.9 186.9,144.9 188.1,144.9 189.3,144.9 190.5,144.9 191.7,144.9 192.8,144.9 194.0,144.9 195.2,144.9 196.4,144.9 197.6,144.9 198.8,144.9 200.0,144.9 201.1,144.9 202.3,144.9 203.5,144.9 204.7,144.9 205.9,144.9 207.1,144.9 208.3,144.9 209.5,144.9 210.6,144.9 211.8,144.9 213.0,144.9 214.2,144.9 215.4,144.9 216.6,144.9 217.8,144.9 218.9,144.9 220.1,144.9 221.3,144.9 222.5,144.9 223.7,144.9 224.9,144.9 226.1,144.9 227.3,144.9 228.4,144.9 229.6,144.9 230.8,144.9 232.0,144.9 233.2,144.9 234.4,144.9 235.6,144.9 236.7,144.9 237.9,144.9 239.1,144.9 240.3,144.9 241.5,144.9 242.7,144.9 243.9,144.9 245.1,144.9 246.2,144.9 247.4,144.9 248.6,144.9 249.8,144.9 251.0,144.9 252.2,144.9 253.4,144.9 254.5,144.9 255.7,144.9 256.9,144.9 258.1,144.9 259.3,144.9 260.5,144.9 261.7,144.9 262.9,144.9 264.0,144.9 265.2,144.9 266.4,144.9 267.6,144.9 268.8,144.9 270.0,144.9 271.2,144.9 272.3,144.9 273.5,144.9 274.7,144.9 275.9,144.9 277.1,144.9 278.3,144.9 279.5,144.9 280.7,144.9 281.8,144.9 283.0,144.9 284.2,144.9 285.4,144.9 286.6,144.9 287.8,144.9 289.0,144.9 290.1,144.9 291.3,144.9 292.5,144.9 293.7,144.9 294.9,144.9 296.1,144.9 297.3,144.9 298.5,144.9 299.6,144.9 300.8,144.9 302.0,144.9 303.2,144.9 304.4,144.9 305.6,144.9 306.8,144.9 307.9,144.9 309.1,144.9 310.3,144.9 311.5,144.9 312.7,144.9 313.9,144.9 315.1,144.9 316.3,144.9 317.4,144.9 318.6,144.9 319.8,144.9 321.0,144.9 322.2,144.9 323.4,144.9 324.6,144.9 325.7,144.9 326.9,144.9 328.1,144.9 329.3,144.9 330.5,144.9 331.7,144.9 332.9,144.9 334.1,144.9 335.2,144.9 336.4,144.9 337.6,144.9 338.8,144.9 340.0,144.9 341.2,144.9 342.4,144.9 343.5,144.9 344.7,144.9 345.9,144.9 347.1,144.9 348.3,144.9 349.5,144.9 350.7,144.9 351.9,144.9 353.0,144.9 354.2,144.9 355.4,144.9 356.6,144.9 357.8,144.9 359.0,144.9 360.2,144.9 361.3,144.9 362.5,144.9 363.7,144.9 364.9,144.9 366.1,144.9 367.3,144.9 368.5,144.9 369.7,144.9 370.8,144.9 372.0,144.9 373.2,144.9 374.4,144.9 375.6,144.9 376.8,144.9 378.0,144.9 379.1,144.9 380.3,144.9 381.5,144.9 382.7,144.9 383.9,144.9 385.1,144.9 386.3,144.9 387.5,144.9 388.6,144.9 389.8,144.9 391.0,144.9 392.2,144.9 393.4,144.9 394.6,144.9 395.8,144.9 396.9,144.9 398.1,144.9 399.3,144.9 400.5,144.9 401.7,144.9 402.9,144.9 404.1,144.9 405.3,144.9 406.4,144.9 407.6,144.9 408.8,144.9 410.0,144.9 411.2,144.9 412.4,144.9 413.6,144.9 414.7,144.9 415.9,144.9 417.1,144.9 418.3,144.9 419.5,144.9 420.7,144.9 421.9,144.9 423.1,144.9 424.2,144.9 425.4,144.9 426.6,144.9 427.8,144.9 429.0,144.9 430.2,144.9 431.4,144.9 432.5,144.9 433.7,144.9 434.9,144.9 436.1,144.9 437.3,144.9 438.5,144.9 439.7,144.9 440.9,144.9 442.0,144.9 443.2,144.9 444.4,144.9 445.6,144.9 446.8,144.9 448.0,144.9 449.2,144.9 450.3,144.9 451.5,144.9 452.7,144.9 453.9,144.9 455.1,144.9 456.3,144.9 457.5,144.9 458.7,144.9 459.8,144.9 461.0,144.9 462.2,144.9 463.4,144.9 464.6,144.9 465.8,144.9 467.0,144.9 468.1,144.9 469.3,144.9 470.5,144.9 471.7,144.9 472.9,144.9 474.1,144.9 475.3,144.9 476.5,144.9 477.6,144.9 478.8,144.9 480.0,144.9 481.2,144.9 482.4,144.9 483.6,144.9 484.8,144.9 485.9,144.9 487.1,144.9 488.3,144.9 489.5,144.9 490.7,144.9 491.9,144.9 493.1,144.9 494.3,144.9 495.4,144.9 496.6,144.9 497.8,144.9 499.0,144.9 500.2,144.9 501.4,144.9 502.6,144.9 503.7,144.9 504.9,144.9 506.1,144.9 507.3,144.9 508.5,144.9 509.7,144.9 510.9,144.9 512.1,144.9 513.2,144.9 514.4,144.9 515.6,144.9 516.8,144.9 518.0,144.9 519.2,144.9 520.4,144.9 521.5,144.9 522.7,144.9 523.9,144.9 525.1,144.9 526.3,144.9 527.5,144.9 528.7,144.9 529.9,144.9 531.0,144.9 532.2,144.9 533.4,144.9 534.6,144.9 535.8,144.9 537.0,144.9 538.2,144.9 539.3,144.9 540.5,144.9 541.7,144.9 542.9,144.9 544.1,144.9 545.3,144.9 546.5,144.9 547.7,144.9 548.8,144.9 550.0,144.9 551.2,144.9 552.4,144.9 553.6,144.9 554.8,144.9 556.0,144.9 557.1,144.9 558.3,144.9 559.5,144.9 560.7,144.9 561.9,144.9 563.1,144.9 564.3,144.9 565.5,144.9 566.6,144.9 567.8,144.9 569.0,144.9 570.2,144.9 571.4,144.9 572.6,144.9 573.8,144.9 574.9,144.9 576.1,144.9 577.3,144.9 578.5,144.9 579.7,144.9 580.9,144.9 582.1,144.9 583.3,144.9 584.4,144.9 585.6,144.9 586.8,144.9 588.0,144.9 589.2,144.9 590.4,144.9 591.6,144.9 592.7,144.9 593.9,144.9 595.1,144.9 596.3,144.9 597.5,144.9 598.7,144.9 599.9,144.9 601.1,144.9 602.2,144.9 603.4,144.9 604.6,144.9 605.8,144.9 607.0,144.9 608.2,144.9 609.4,144.9 610.5,144.9 611.7,144.9 612.9,144.9 614.1,144.9 615.3,144.9 616.5,144.9 617.7,144.9 618.9,144.9 620.0,144.9 621.2,144.9 622.4,144.9 623.6,144.9 624.8,144.9 626.0,144.9 627.2,144.9 628.3,144.9 629.5,144.9 630.7,144.9 631.9,144.9 633.1,144.9 634.3,144.9 635.5,144.9 636.7,144.9 637.8,144.9 639.0,144.9 640.2,144.9 641.4,144.9 642.6,144.9 643.8,144.9 645.0,144.9 646.1,144.9 647.3,144.9 648.5,144.9 649.7,144.9 650.9,144.9 652.1,144.9 653.3,144.9 654.5,144.9 655.6,144.9 656.8,144.9 658.0,144.9 659.2,144.9 660.4,144.9 661.6,144.9 662.8,144.9 663.9,144.9 665.1,144.9 666.3,144.9 667.5,144.9 668.7,144.9 669.9,144.9 671.1,144.9 672.3,144.9 673.4,144.9 674.6,144.9 675.8,144.9 677.0,144.9 678.2,144.9 679.4,144.9 680.6,144.9 681.7,144.9 682.9,144.9 684.1,144.9 685.3,144.9 686.5,144.9 687.7,144.9 688.9,144.9 690.1,144.9 691.2,144.9 692.4,144.9 693.6,144.9 694.8,144.9 696.0,144.9 697.2,144.9 698.4,144.9 699.5,144.9 700.7,144.9 701.9,144.9 703.1,144.9 704.3,144.9 705.5,144.9 706.7,144.9 707.9,144.9 709.0,144.9 710.2,144.9 711.4,144.9 712.6,144.9 713.8,144.9 715.0,144.9 716.2,144.9 717.3,144.9 718.5,144.9 719.7,144.9 720.9,144.9 722.1,144.9 723.3,144.9 724.5,144.9 725.7,144.9 726.8,144.9 728.0,144.9 729.2,144.9 730.4,144.9 731.6,144.9 732.8,144.9 734.0,144.9 735.1,144.9 736.3,144.9 737.5,144.9 738.7,144.9 739.9,144.9 741.1,144.9 742.3,144.9 743.5,144.9 744.6,144.9 745.8,144.9 747.0,144.9 748.2,144.9 749.4,144.9 750.6,144.9 751.8,144.9 752.9,144.9 754.1,144.9 755.3,144.9 756.5,144.9 757.7,144.9 758.9,144.9 760.1,144.9 761.3,144.9 762.4,144.9 763.6,144.9 764.8,144.9 766.0,144.9"/>
<line x1="606" y1="78" x2="628" y2="78" stroke="#da1e28" stroke-width="2.2"/>
<text x="634" y="82" font-family="Arial" font-size="12">rudder_deg</text>
</svg>