<svg xmlns="http://www.w3.org/2000/svg" width="820" height="320" viewBox="0 0 820 320">
<rect width="100%" height="100%" fill="#ffffff"/>
<text x="54" y="28" font-family="Arial" font-size="18" font-weight="700">Pitch Command Tracking</text>
<line x1="54" y1="266" x2="766" y2="266" stroke="#1f2933"/>
<line x1="54" y1="54" x2="54" y2="266" stroke="#1f2933"/>
<text x="54" y="306" font-family="Arial" font-size="12">time (s)</text>
<text x="596" y="306" font-family="Arial" font-size="12">pitch (deg)</text>
<text x="58" y="68" font-family="Arial" font-size="11">11.4</text>
<text x="58" y="260" font-family="Arial" font-size="11">-1.47</text>
<polyline fill="none" stroke="#0f62fe" stroke-width="2.2" points="54.0,142.7 55.2,142.4 56.4,142.0 57.6,141.7 58.7,141.4 59.9,141.0 61.1,140.7 62.3,140.4 63.5,140.1 64.7,139.7 65.9,139.4 67.1,139.1 68.2,138.7 69.4,138.4 70.6,138.1 71.8,137.7 73.0,137.4 74.2,137.1 75.4,136.7 76.5,136.4 77.7,136.1 78.9,135.8 80.1,135.4 81.3,135.1 82.5,134.8 83.7,134.4 84.9,134.1 86.0,133.8 87.2,133.4 88.4,133.1 89.6,132.8 90.8,132.5 92.0,132.1 93.2,131.8 94.3,131.5 95.5,131.1 96.7,130.8 97.9,130.5 99.1,130.1 100.3,129.8 101.5,129.5 102.7,129.2 103.8,128.8 105.0,128.5 106.2,128.2 107.4,127.8 108.6,127.5 109.8,127.2 111.0,126.8 112.1,126.5 113.3,126.2 114.5,125.9 115.7,125.5 116.9,125.2 118.1,124.9 119.3,124.5 120.5,124.2 121.6,123.9 122.8,123.5 124.0,123.2 125.2,122.9 126.4,122.6 127.6,122.2 128.8,121.9 129.9,121.6 131.1,121.2 132.3,120.9 133.5,120.6 134.7,120.2 135.9,119.9 137.1,119.6 138.3,119.3 139.4,118.9 140.6,118.6 141.8,118.3 143.0,117.9 144.2,117.6 145.4,117.3 146.6,116.9 147.7,116.6 148.9,116.3 150.1,116.0 151.3,115.6 152.5,115.3 153.7,115.0 154.9,114.6 156.1,114.3 157.2,114.0 158.4,113.6 159.6,113.3 160.8,113.0 162.0,112.6 163.2,112.3 164.4,112.0 165.5,111.7 166.7,111.3 167.9,111.0 169.1,110.7 170.3,110.3 171.5,110.0 172.7,109.7 173.9,109.3 175.0,109.0 176.2,108.7 177.4,108.4 178.6,108.0 179.8,107.7 181.0,107.4 182.2,107.0 183.3,106.7 184.5,106.4 185.7,106.0 186.9,105.7 188.1,105.4 189.3,105.1 190.5,104.7 191.7,104.4 192.8,104.1 194.0,103.7 195.2,103.4 196.4,103.1 197.6,102.7 198.8,102.4 200.0,102.1 201.1,101.8 202.3,101.4 203.5,101.1 204.7,100.8 205.9,100.4 207.1,100.1 208.3,99.8 209.5,99.4 210.6,99.1 211.8,98.8 213.0,98.5 214.2,98.1 215.4,97.8 216.6,97.5 217.8,97.1 218.9,96.8 220.1,96.5 221.3,96.1 222.5,95.8 223.7,95.5 224.9,95.2 226.1,94.8 227.3,94.5 228.4,94.2 229.6,93.8 230.8,93.5 232.0,93.2 233.2,92.8 234.4,92.5 235.6,92.2 236.7,91.8 237.9,91.5 239.1,91.2 240.3,90.9 241.5,90.5 242.7,90.2 243.9,89.9 245.1,89.5 246.2,89.2 247.4,88.9 248.6,88.5 249.8,88.2 251.0,87.9 252.2,87.6 253.4,87.2 254.5,86.9 255.7,86.6 256.9,86.2 258.1,85.9 259.3,85.6 260.5,85.2 261.7,84.9 262.9,84.6 264.0,84.3 265.2,83.9 266.4,83.6 267.6,83.3 268.8,82.9 270.0,82.6 271.2,82.3 272.3,81.9 273.5,81.6 274.7,81.3 275.9,81.0 277.1,80.6 278.3,80.3 279.5,80.0 280.7,79.6 281.8,79.3 283.0,79.0 284.2,78.6 285.4,78.3 286.6,78.0 287.8,77.7 289.0,77.3 290.1,77.0 291.3,76.7 292.5,77.1 293.7,77.5 294.9,77.9 296.1,78.2 297.3,78.6 298.5,79.0 299.6,79.4 300.8,79.8 302.0,80.2 303.2,80.6 304.4,81.0 305.6,81.4 306.8,81.8 307.9,82.2 309.1,82.6 310.3,83.0 311.5,83.4 312.7,83.8 313.9,84.2 315.1,84.6 316.3,85.0 317.4,85.4 318.6,85.8 319.8,86.2 321.0,86.6 322.2,87.0 323.4,87.4 324.6,87.8 325.7,88.2 326.9,88.5 328.1,88.9 329.3,89.3 330.5,89.7 331.7,90.1 332.9,90.5 334.1,90.9 335.2,91.3 336.4,91.7 337.6,92.1 338.8,92.5 340.0,92.9 341.2,93.3 342.4,93.7 343.5,94.1 344.7,94.5 345.9,94.9 347.1,95.3 348.3,95.7 349.5,96.1 350.7,96.5 351.9,96.9 353.0,97.3 354.2,97.7 355.4,98.1 356.6,98.5 357.8,98.8 359.0,99.2 360.2,99.6 361.3,100.0 362.5,100.4 363.7,100.8 364.9,101.2 366.1,101.6 367.3,102.0 368.5,102.4 369.7,102.8 370.8,103.2 372.0,103.6 373.2,104.0 374.4,104.4 375.6,104.8 376.8,105.2 378.0,105.6 379.1,106.0 380.3,106.4 381.5,106.8 382.7,107.2 383.9,107.6 385.1,108.0 386.3,108.4 387.5,108.8 388.6,109.1 389.8,109.5 391.0,109.9 392.2,110.3 393.4,110.7 394.6,111.1 395.8,111.5 396.9,111.9 398.1,112.3 399.3,112.7 400.5,113.1 401.7,113.5 402.9,113.9 404.1,114.3 405.3,114.7 406.4,115.1 407.6,115.5 408.8,115.9 410.0,116.3 411.2,116.7 412.4,117.1 413.6,117.5 414.7,117.9 415.9,118.3 417.1,118.7 418.3,119.1 419.5,119.5 420.7,119.8 421.9,120.2 423.1,120.6 424.2,121.0 425.4,121.4 426.6,121.8 427.8,122.2 429.0,122.6 430.2,123.0 431.4,123.4 432.5,123.8 433.7,124.2 434.9,124.6 436.1,125.0 437.3,125.4 438.5,125.8 439.7,126.2 440.9,126.6 442.0,127.0 443.2,127.4 444.4,127.8 445.6,128.2 446.8,128.6 448.0,129.0 449.2,129.4 450.3,129.8 451.5,130.1 452.7,130.5 453.9,130.9 455.1,131.3 456.3,131.7 457.5,132.1 458.7,132.5 459.8,132.9 461.0,133.3 462.2,133.7 463.4,134.1 464.6,134.5 465.8,134.9 467.0,135.3 468.1,135.7 469.3,136.1 470.5,136.5 471.7,136.9 472.9,137.3 474.1,137.7 475.3,138.1 476.5,138.5 477.6,138.9 478.8,139.3 480.0,139.7 481.2,140.1 482.4,140.4 483.6,140.8 484.8,141.2 485.9,141.6 487.1,142.0 488.3,142.4 489.5,142.8 490.7,143.2 491.9,143.6 493.1,144.0 494.3,144.4 495.4,144.8 496.6,145.2 497.8,145.6 499.0,146.0 500.2,146.4 501.4,146.8 502.6,147.2 503.7,147.6 504.9,148.0 506.1,148.4 507.3,148.8 508.5,149.2 509.7,149.6 510.9,150.0 512.1,150.4 513.2,150.7 514.4,151.1 515.6,151.5 516.8,151.9 518.0,152.3 519.2,152.7 520.4,153.1 521.5,153.5 522.7,153.9 523.9,154.3 525.1,154.7 526.3,155.1 527.5,155.5 528.7,155.9 529.9,156.3 531.0,156.7 532.2,157.1 533.4,157.5 534.6,157.9 535.8,158.3 537.0,158.7 538.2,159.1 539.3,159.5 540.5,159.9 541.7,160.3 542.9,160.7 544.1,161.0 545.3,161.4 546.5,161.8 547.7,162.2 548.8,162.6 550.0,163.0 551.2,163.4 552.4,163.8 553.6,164.2 554.8,164.6 556.0,165.0 557.1,165.4 558.3,165.8 559.5,166.2 560.7,166.6 561.9,167.0 563.1,167.4 564.3,167.8 565.5,168.2 566.6,168.6 567.8,169.0 569.0,169.4 570.2,169.8 571.4,170.2 572.6,170.6 573.8,171.0 574.9,171.3 576.1,171.7 577.3,172.1 578.5,172.5 579.7,172.9 580.9,173.3 582.1,173.7 583.3,174.1 584.4,174.5 585.6,174.9 586.8,175.3 588.0,175.7 589.2,175.7 590.4,175.7 591.6,175.7 592.7,175.7 593.9,175.7 595.1,175.7 596.3,175.7 597.5,175.7 598.7,175.7 599.9,175.7 601.1,175.7 602.2,175.7 603.4,175.7 604.6,175.7 605.8,175.7 607.0,175.7 608.2,175.7 609.4,175.7 610.5,175.7 611.7,175.7 612.9,175.7 614.1,175.7 615.3,175.7 616.5,175.7 617.7,175.7 618.9,175.7 620.0,175.7 621.2,175.7 622.4,175.7 623.6,175.7 624.8,175.7 626.0,175.7 627.2,175.7 628.3,175.7 629.5,175.7 630.7,175.7 631.9,175.7 633.1,175.7 634.3,175.7 635.5,175.7 636.7,175.7 637.8,175.7 639.0,175.7 640.2,175.7 641.4,175.7 642.6,175.7 643.8,175.7 645.0,175.7 646.1,175.7 647.3,175.7 648.5,175.7 649.7,175.7 650.9,175.7 652.1,175.7 653.3,175.7 654.5,175.7 655.6,175.7 656.8,175.7 658.0,175.7 659.2,175.7 660.4,175.7 661.6,175.7 662.8,175.7 663.9,175.7 665.1,175.7 666.3,175.7 667.5,175.7 668.7,175.7 669.9,175.7 671.1,175.7 672.3,175.7 673.4,175.7 674.6,175.7 675.8,175.7 677.0,175.7 678.2,175.7 679.4,175.7 680.6,175.7 681.7,175.7 682.9,175.7 684.1,175.7 685.3,175.7 686.5,175.7 687.7,175.7 688.9,175.7 690.1,175.7 691.2,175.7 692.4,175.7 693.6,175.7 694.8,175.7 696.0,175.7 697.2,175.7 698.4,175.7 699.5,175.7 700.7,175.7 701.9,175.7 703.1,175.7 704.3,175.7 705.5,175.7 706.7,175.7 707.9,175.7 709.0,175.7 710.2,175.7 711.4,175.7 712.6,175.7 713.8,175.7 715.0,175.7 716.2,175.7 717.3,175.7 718.5,175.7 719.7,175.7 720.9,175.7 722.1,175.7 723.3,175.7 724.5,175.7 725.7,175.7 726.8,175.7 728.0,175.7 729.2,175.7 730.4,175.7 731.6,175.7 732.8,175.7 734.0,175.7 735.1,175.7 736.3,175.7 737.5,175.7 738.7,175.7 739.9,175.7 741.1,175.7 742.3,175.7 743.5,175.7 744.6,175.7 745.8,175.7 747.0,175.7 748.2,175.7 749.4,175.7 750.6,175.7 751.8,175.7 752.9,175.7 754.1,175.7 755.3,175.7 756.5,175.7 757.7,175.7 758.9,175.7 760.1,175.7 761.3,175.7 762.4,175.7 763.6,175.7 764.8,175.7 766.0,175.7"/>
<line x1="606" y1="42" x2="628" y2="42" stroke="#0f62fe" stroke-width="2.2"/>
<text x="634" y="46" font-family="Arial" font-size="12">pitch_command_deg</text>
<polyline fill="none" stroke="#24a148" stroke-width="2.2" points="54.0,175.7 55.2,170.1 56.4,160.8 57.6,158.8 58.7,165.0 59.9,171.9 61.1,173.4 62.3,170.4 63.5,168.0 64.7,169.7 65.9,173.6 67.1,176.1 68.2,175.8 69.4,174.7 70.6,175.2 71.8,177.5 73.0,179.6 74.2,180.2 75.4,179.9 76.5,180.3 77.7,181.7 78.9,183.4 80.1,184.1 81.3,184.3 82.5,184.7 83.7,185.8 84.9,187.1 86.0,187.9 87.2,188.2 88.4,188.7 89.6,189.7 90.8,190.7 92.0,191.4 93.2,191.7 94.3,192.3 95.5,193.2 96.7,194.1 97.9,194.6 99.1,195.0 100.3,195.6 101.5,196.5 102.7,197.2 103.8,197.6 105.0,198.0 106.2,198.7 107.4,199.5 108.6,200.0 109.8,200.2 111.0,200.7 112.1,201.5 113.3,202.1 114.5,202.4 115.7,202.7 116.9,203.4 118.1,204.1 119.3,204.5 120.5,204.6 121.6,205.1 122.8,205.8 124.0,206.3 125.2,206.4 126.4,206.6 127.6,207.4 128.8,208.0 129.9,208.0 131.1,208.0 132.3,208.8 133.5,209.6 134.7,209.5 135.9,209.3 137.1,210.0 138.3,211.0 139.4,210.9 140.6,210.3 141.8,211.0 143.0,212.4 144.2,212.3 145.4,211.1 146.6,211.9 147.7,213.9 148.9,213.5 150.1,211.5 151.3,212.5 152.5,215.6 153.7,214.6 154.9,211.2 156.1,213.2 157.2,217.9 158.4,215.3 159.6,209.6 160.8,214.2 162.0,221.7 163.2,214.9 164.4,205.9 165.5,217.1 166.7,232.0 167.9,223.9 169.1,201.0 170.3,193.9 171.5,215.7 172.7,242.8 173.9,245.6 175.0,220.0 176.2,193.2 177.4,193.2 178.6,217.7 179.8,236.2 181.0,225.6 182.2,194.9 183.3,175.5 184.5,185.2 185.7,222.3 186.9,255.5 188.1,259.7 189.3,234.8 190.5,200.0 191.7,186.9 192.8,202.8 194.0,236.1 195.2,255.0 196.4,244.8 197.6,206.7 198.8,172.1 200.0,166.7 201.1,190.3 202.3,226.5 203.5,243.4 204.7,231.3 205.9,195.0 207.1,166.9 208.3,167.9 209.5,197.9 210.6,229.5 211.8,232.6 213.0,206.6 214.2,181.5 215.4,185.5 216.6,215.7 217.8,240.0 218.9,235.2 220.1,201.5 221.3,169.7 222.5,167.0 223.7,193.3 224.9,224.7 226.1,229.5 227.3,205.3 228.4,179.7 229.6,183.0 230.8,211.2 232.0,232.1 233.2,224.0 234.4,187.1 235.6,153.0 236.7,148.0 237.9,172.1 239.1,210.2 240.3,229.6 241.5,219.8 242.7,181.1 243.9,145.0 245.1,137.9 246.2,159.9 247.4,202.5 248.6,232.0 249.8,232.5 251.0,203.9 252.2,167.5 253.4,155.7 254.5,173.0 255.7,209.4 256.9,231.8 258.1,225.1 259.3,189.4 260.5,152.0 261.7,143.6 262.9,164.4 264.0,201.4 265.2,221.4 266.4,212.4 267.6,174.3 268.8,136.5 270.0,127.8 271.2,148.1 272.3,191.7 273.5,224.1 274.7,227.5 275.9,201.8 277.1,163.5 278.3,146.1 279.5,157.7 280.7,197.8 281.8,233.7 283.0,240.5 284.2,218.3 285.4,169.1 286.6,126.8 287.8,113.5 289.0,129.3 290.1,174.1 291.3,218.8 292.5,234.3 293.7,220.8 294.9,178.2 296.1,134.4 297.3,119.6 298.5,133.8 299.6,177.1 300.8,219.2 302.0,232.3 303.2,216.3 304.4,171.3 305.6,126.3 306.8,110.3 307.9,123.3 309.1,165.5 310.3,207.6 311.5,220.7 312.7,204.7 313.9,159.7 315.1,115.4 316.3,100.2 317.4,114.1 318.6,157.0 319.8,200.8 321.0,215.6 322.2,201.3 323.4,157.9 324.6,114.6 325.7,100.3 326.9,115.1 328.1,158.9 329.3,202.7 330.5,217.5 331.7,203.2 332.9,159.8 334.1,116.5 335.2,102.2 336.4,117.0 337.6,160.8 338.8,204.6 340.0,219.4 341.2,205.1 342.4,161.7 343.5,117.6 344.7,102.5 345.9,116.5 347.1,159.5 348.3,202.5 349.5,216.5 350.7,201.4 351.9,157.3 353.0,113.2 354.2,98.1 355.4,112.1 356.6,155.1 357.8,198.1 359.0,212.1 360.2,197.0 361.3,152.9 362.5,108.7 363.7,93.7 364.9,107.6 366.1,150.7 367.3,193.7 368.5,207.7 369.7,192.6 370.8,148.4 372.0,104.3 373.2,89.2 374.4,103.2 375.6,146.2 376.8,189.7 378.0,204.2 379.1,189.6 380.3,146.0 381.5,102.4 382.7,87.8 383.9,102.3 385.1,145.8 386.3,189.3 387.5,203.8 388.6,189.2 389.8,145.6 391.0,101.9 392.2,87.3 393.4,101.8 394.6,145.3 395.8,188.9 396.9,203.3 398.1,188.7 399.3,145.1 400.5,101.5 401.7,86.9 402.9,101.4 404.1,144.9 405.3,188.4 406.4,202.9 407.6,188.3 408.8,144.7 410.0,101.0 411.2,86.5 412.4,100.9 413.6,144.4 414.7,188.0 415.9,202.4 417.1,187.9 418.3,144.2 419.5,100.6 420.7,86.0 421.9,100.5 423.1,144.0 424.2,187.5 425.4,202.0 426.6,187.4 427.8,143.8 429.0,100.2 430.2,85.6 431.4,100.0 432.5,143.6 433.7,187.4 434.9,202.1 436.1,187.8 437.3,144.5 438.5,101.2 439.7,86.9 440.9,101.6 442.0,145.4 443.2,189.3 444.4,204.0 445.6,189.7 446.8,146.4 448.0,103.0 449.2,88.7 450.3,103.5 451.5,147.3 452.7,191.1 453.9,205.9 455.1,191.6 456.3,148.2 457.5,104.4 458.7,89.6 459.8,103.8 461.0,147.1 462.2,190.4 463.4,204.7 464.6,189.9 465.8,146.1 467.0,102.3 468.1,87.5 469.3,101.8 470.5,145.1 471.7,190.3 472.9,206.5 474.1,193.6 475.3,151.6 476.5,107.3 477.6,92.0 478.8,105.8 480.0,148.6 481.2,192.3 482.4,207.0 483.6,192.6 484.8,149.2 485.9,105.7 487.1,91.4 488.3,106.0 489.5,149.7 490.7,194.3 491.9,209.9 493.1,196.4 494.3,153.8 495.4,109.1 496.6,93.5 497.8,106.9 499.0,149.3 500.2,194.7 501.4,211.0 502.6,198.3 503.7,156.5 504.9,111.7 506.1,95.9 507.3,109.2 508.5,151.5 509.7,196.1 510.9,211.7 512.1,198.3 513.2,155.7 514.4,111.6 515.6,96.5 516.8,110.5 518.0,153.5 519.2,199.3 520.4,215.9 521.5,203.6 522.7,162.1 523.9,117.2 525.1,101.4 526.3,114.6 527.5,156.9 528.7,201.2 529.9,216.4 531.0,202.5 532.2,159.6 533.4,115.1 534.6,99.6 535.8,113.2 537.0,155.8 538.2,201.6 539.3,218.3 540.5,206.0 541.7,164.6 542.9,120.3 544.1,105.0 545.3,118.8 546.5,161.6 547.7,206.1 548.8,221.6 550.0,208.0 551.2,165.4 552.4,120.0 553.6,103.7 554.8,116.4 556.0,158.2 557.1,203.0 558.3,218.7 559.5,205.3 560.7,163.0 561.9,119.7 563.1,105.6 564.3,120.4 565.5,164.4 566.6,210.5 567.8,227.6 569.0,215.6 570.2,174.6 571.4,129.5 572.6,113.6 573.8,126.6 574.9,168.8 576.1,212.4 577.3,227.0 578.5,212.6 579.7,169.1 580.9,124.6 582.1,109.2 583.3,122.8 584.4,165.5 585.6,211.6 586.8,228.6 588.0,216.6 589.2,175.5 590.4,131.7 591.6,116.9 592.7,131.2 593.9,174.5 595.1,219.1 596.3,234.6 597.5,221.1 598.7,178.5 599.9,133.0 601.1,116.6 602.2,129.2 603.4,170.9 604.6,215.8 605.8,231.6 607.0,218.3 608.2,176.0 609.4,132.1 610.5,117.1 611.7,131.3 612.9,174.5 614.1,220.0 615.3,236.5 616.5,224.0 617.7,182.4 618.9,137.5 620.0,121.8 621.2,135.0 622.4,177.3 623.6,221.2 624.8,235.9 626.0,221.6 627.2,178.3 628.3,132.8 629.5,116.4 630.7,129.0 631.9,170.7 633.1,216.2 634.3,232.8 635.5,220.2 636.7,178.6 637.8,135.0 639.0,120.4 640.2,134.8 641.4,178.3 642.6,221.8 643.8,236.2 645.0,221.6 646.1,177.9 647.3,133.1 648.5,117.4 649.7,130.7 650.9,173.0 652.1,219.5 653.3,237.0 654.5,225.4 655.6,184.7 656.8,141.1 658.0,126.5 659.2,141.1 660.4,184.6 661.6,228.2 662.8,242.7 663.9,228.2 665.1,184.6 666.3,137.1 667.5,118.6 668.7,129.3 669.9,168.9 671.1,213.1 672.3,228.3 673.4,214.4 674.6,171.4 675.8,128.5 677.0,114.6 678.2,129.7 679.4,173.9 680.6,220.6 681.7,238.2 682.9,226.8 684.1,186.3 685.3,141.1 686.5,124.9 687.7,137.7 688.9,179.7 690.1,222.1 691.2,235.6 692.4,219.9 693.6,175.3 694.8,130.6 696.0,115.0 697.2,128.4 698.4,170.9 699.5,218.8 700.7,237.7 701.9,227.5 703.1,188.3 704.3,145.8 705.5,132.3 706.7,147.9 707.9,192.6 709.0,237.3 710.2,252.9 711.4,239.4 712.6,196.9 713.8,144.1 715.0,118.8 716.2,122.4 717.3,155.2 718.5,195.4 719.7,207.7 720.9,190.8 722.1,150.2 723.3,122.3 724.5,123.4 725.7,153.6 726.8,196.6 728.0,215.0 729.2,204.3 730.4,164.6 731.6,124.8 732.8,114.2 734.0,132.5 735.1,180.0 736.3,227.4 737.5,245.8 738.7,235.1 739.9,195.4 741.1,142.5 742.3,114.6 743.5,115.9 744.6,146.1 745.8,196.5 747.0,228.9 748.2,232.2 749.4,206.4 750.6,158.1 751.8,124.6 752.9,120.1 754.1,144.7 755.3,198.3 756.5,246.7 757.7,266.0 758.9,256.3 760.1,217.5 761.3,149.6 762.4,88.7 763.6,56.8 764.8,54.0 766.0,80.2"/>
<line x1="606" y1="60" x2="628" y2="60" stroke="#24a148" stroke-width="2.2"/>
<text x="634" y="64" font-family="Arial" font-size="12">pitch_deg</text>
</svg>