<svg xmlns="http://www.w3.org/2000/svg" width="820" height="320" viewBox="0 0 820 320">
<rect width="100%" height="100%" fill="#ffffff"/>
<text x="54" y="28" font-family="Arial" font-size="18" font-weight="700">Qbar/Load Envelope</text>
<line x1="54" y1="266" x2="766" y2="266" stroke="#1f2933"/>
<line x1="54" y1="54" x2="54" y2="266" stroke="#1f2933"/>
<text x="54" y="306" font-family="Arial" font-size="12">qbar (Pa)</text>
<text x="596" y="306" font-family="Arial" font-size="12">load factor (g)</text>
<text x="58" y="68" font-family="Arial" font-size="11">6.07</text>
<text x="58" y="260" font-family="Arial" font-size="11">0.878</text>
<polyline fill="none" stroke="#0f62fe" stroke-width="2.2" points="54.0,210.1 54.8,209.3 55.6,208.6 56.5,207.7 57.3,206.8 58.2,205.9 59.1,205.0 59.9,204.2 60.8,203.3 61.8,202.5 62.7,201.6 63.6,200.7 64.6,199.8 65.6,199.0 66.5,198.1 67.5,197.3 68.6,196.4 69.6,195.5 70.6,194.6 71.7,193.8 72.8,192.9 73.9,192.0 75.0,191.2 76.1,190.3 77.2,189.5 78.4,188.6 79.5,188.6 80.7,188.7 81.9,188.7 83.1,188.7 84.2,188.8 85.4,188.8 86.6,188.9 87.9,188.9 89.1,189.0 90.3,189.0 91.5,189.0 92.7,189.1 94.0,189.1 95.2,189.2 96.5,189.2 97.7,189.3 99.0,189.3 100.3,189.4 101.6,189.4 102.8,189.5 104.1,189.5 105.4,189.6 106.7,189.6 108.0,189.7 109.4,189.7 110.7,189.8 112.0,189.8 113.3,189.9 114.7,189.9 116.0,190.0 117.4,190.0 118.7,190.1 120.1,190.2 121.4,190.2 122.8,190.3 124.2,190.3 125.6,190.4 127.0,190.5 128.4,190.5 129.8,190.6 131.2,190.6 132.6,190.7 134.0,190.7 135.4,190.8 136.8,190.9 138.3,190.9 139.7,191.0 141.2,191.0 142.6,191.1 144.1,191.2 145.5,191.2 147.0,191.2 148.4,191.3 149.9,191.5 151.4,191.5 152.9,191.4 154.4,191.6 155.9,191.8 157.4,191.7 158.9,191.6 160.4,191.9 161.9,192.1 163.4,191.9 164.9,191.6 166.4,192.2 168.0,192.5 169.5,191.9 171.0,191.4 172.6,192.6 174.1,193.0 175.7,192.6 177.3,190.9 178.8,190.6 180.3,192.7 181.9,193.0 183.6,192.8 185.2,192.2 186.7,189.4 188.3,190.8 189.8,193.2 191.4,193.7 193.1,193.2 194.7,190.5 196.2,186.7 197.7,189.7 199.3,193.3 201.0,193.2 202.7,193.0 204.4,193.1 206.0,189.8 207.6,188.2 209.2,191.6 210.8,194.0 212.6,193.8 214.3,193.9 216.0,191.5 217.6,184.6 219.1,184.9 220.6,190.8 222.3,194.6 224.1,194.7 225.8,194.2 227.5,189.9 229.1,182.6 230.6,185.5 232.2,192.3 233.9,195.3 235.7,194.7 237.4,191.7 239.0,185.6 240.6,188.8 242.3,194.2 244.1,195.6 245.9,195.0 247.7,191.0 249.3,182.3 250.9,183.9 252.5,191.6 254.2,195.9 256.1,195.3 257.8,191.9 259.5,184.7 261.2,188.2 262.9,194.6 264.7,196.5 266.5,195.4 268.3,188.6 269.9,176.3 271.4,176.7 273.0,187.2 274.7,195.7 276.5,197.0 278.4,195.7 280.2,187.6 281.8,173.2 283.3,172.1 284.8,183.7 286.5,195.3 288.4,197.4 290.3,196.8 292.2,193.3 293.9,181.7 295.5,177.7 297.2,187.0 298.9,196.2 300.8,197.8 302.8,197.1 304.7,190.6 306.3,175.5 307.9,173.2 309.5,185.2 311.2,196.3 313.2,198.5 315.1,196.9 316.9,186.9 318.6,168.5 320.0,165.6 321.5,179.7 323.3,195.6 325.2,198.7 327.2,198.0 329.2,194.8 331.0,180.9 332.6,171.9 334.2,181.8 336.0,196.2 338.0,198.0 340.1,197.3 342.1,197.6 344.0,183.8 345.6,159.4 347.0,153.7 348.4,168.9 350.1,192.1 352.0,199.4 354.1,197.9 356.2,198.9 358.1,190.0 359.8,166.4 361.3,156.8 362.8,171.4 364.5,193.8 366.5,199.7 368.6,198.1 370.7,199.3 372.6,187.9 374.3,160.8 375.7,149.4 377.1,164.9 378.8,190.8 380.8,200.5 382.8,199.7 384.9,199.5 386.9,184.3 388.5,154.1 389.8,142.7 391.2,160.1 392.8,189.2 394.8,201.0 396.9,200.0 399.0,200.2 401.0,185.7 402.6,155.3 404.0,144.0 405.4,162.6 407.0,192.0 409.0,201.2 411.2,199.0 413.3,200.8 415.3,188.4 417.0,157.7 418.4,145.7 419.9,164.8 421.6,194.1 423.6,201.0 425.8,197.6 428.0,201.1 430.1,190.6 431.8,159.0 433.2,145.2 434.6,164.5 436.4,194.7 438.4,201.2 440.6,197.7 442.8,201.6 444.9,189.6 446.6,155.6 448.0,141.1 449.4,161.7 451.1,194.5 453.1,202.4 455.3,198.9 457.6,202.9 459.6,189.4 461.3,152.9 462.6,137.4 464.0,159.3 465.6,194.6 467.7,203.7 469.9,200.0 472.1,204.2 474.1,189.2 475.7,150.3 477.0,133.7 478.3,156.9 479.9,194.8 481.9,204.9 484.1,200.5 486.3,205.4 488.4,190.5 490.0,150.3 491.2,133.5 492.5,158.0 494.2,197.1 496.2,205.3 498.4,199.7 500.6,206.2 502.6,192.7 504.2,151.4 505.5,133.7 506.8,159.1 508.4,199.1 510.4,205.6 512.6,199.7 514.8,206.9 516.8,194.8 518.4,152.2 519.7,133.5 521.0,159.8 522.6,201.0 524.6,205.9 526.8,199.9 529.0,207.5 531.0,196.6 532.6,152.7 533.8,133.0 535.1,160.3 536.7,202.7 538.7,206.0 540.8,200.0 543.0,208.1 545.0,198.4 546.6,153.0 547.8,132.2 549.0,160.5 550.6,204.3 552.7,206.2 554.8,199.9 556.9,208.5 558.9,200.0 560.5,153.0 561.7,131.2 562.9,160.5 564.5,205.8 566.5,206.5 568.6,199.4 570.7,208.5 572.7,202.3 574.2,154.6 575.4,132.4 576.6,162.8 578.2,208.5 580.2,206.8 582.3,197.9 584.4,208.7 586.4,205.1 587.9,156.8 589.1,133.5 590.3,164.8 591.9,210.8 593.9,206.9 595.9,196.2 597.9,209.2 599.9,207.6 601.5,157.9 602.6,132.3 603.8,164.0 605.4,211.7 607.3,208.1 609.3,197.0 611.4,210.8 613.3,207.2 614.8,154.1 615.9,127.4 617.0,160.7 618.5,211.9 620.5,208.9 622.4,193.9 624.4,209.8 626.4,212.5 627.9,160.9 629.0,131.6 630.2,164.8 631.7,214.8 633.6,208.7 635.6,194.1 637.5,211.5 639.5,211.5 640.9,156.6 642.0,128.6 643.1,164.2 644.5,216.5 646.5,208.2 648.4,190.3 650.3,210.1 652.2,215.7 653.7,160.4 654.8,127.8 655.8,162.7 657.2,216.9 659.2,209.2 661.0,188.6 662.9,209.7 664.8,218.1 666.3,162.4 667.3,128.6 668.3,164.2 669.8,218.9 671.7,209.1 673.5,188.2 675.3,210.9 677.2,218.3 678.7,159.8 679.7,126.0 680.6,163.8 682.1,220.6 683.9,207.9 685.7,183.3 687.4,208.0 689.3,222.2 690.8,165.4 691.8,129.7 692.8,167.0 694.2,222.8 696.1,207.6 697.8,183.7 699.5,210.4 701.4,221.5 702.8,159.1 703.7,122.7 704.6,162.2 706.0,223.1 707.8,208.3 709.5,181.1 711.2,208.4 713.0,224.7 714.4,164.3 715.4,127.6 716.3,167.7 717.7,226.2 719.5,205.5 721.1,177.8 722.7,208.1 724.5,225.7 725.9,160.4 726.8,120.9 727.6,161.1 728.9,225.5 730.7,209.6 732.3,182.1 733.9,211.9 735.7,224.8 737.0,157.1 737.8,120.2 738.6,164.7 740.0,228.9 741.7,203.2 743.2,170.5 744.8,202.9 746.5,230.4 747.9,168.7 748.8,128.2 749.6,170.0 751.0,230.9 752.7,203.5 754.2,173.6 755.7,208.9 757.4,228.5 758.7,156.0 759.4,115.0 760.1,159.9 761.4,230.3 763.0,205.9 764.5,171.5 766.0,205.5 764.9,242.6 762.8,157.5 760.3,116.8 757.8,164.1 755.8,247.1 754.1,207.7 752.3,171.4 750.4,212.3 748.8,244.4 746.8,158.3 744.3,115.4 741.8,159.0 739.8,242.1 738.2,217.6 736.5,182.0 734.7,220.7 733.2,240.8 731.2,156.6 728.8,117.4 726.4,162.9 724.5,245.5 722.9,215.5 721.2,179.3 719.5,216.8 718.0,247.0 716.1,165.6 713.8,125.9 711.5,168.6 709.7,247.3 708.2,218.6 706.5,185.7 704.9,224.4 703.5,241.4 701.6,157.0 699.3,116.5 696.9,158.0 695.0,239.2 693.6,228.5 692.1,194.4 690.5,229.1 689.1,241.9 687.3,162.0 685.1,126.7 682.9,169.9 681.1,248.2 679.7,223.6 678.2,194.0 676.7,231.0 675.3,240.1 673.6,158.8 671.4,120.9 669.1,162.0 667.3,241.3 666.0,230.5 664.5,196.3 663.1,228.8 661.8,247.9 660.1,172.7 658.1,140.5 656.0,181.6 654.4,253.6 653.1,221.1 651.7,192.7 650.2,229.0 649.0,246.5 647.3,165.5 645.2,124.4 643.1,159.7 641.3,234.4 640.1,243.9 638.8,218.0 637.5,248.5 636.2,229.5 634.5,152.4 632.4,122.6 630.3,164.6 628.6,242.9 627.4,235.8 626.1,203.4 624.7,233.6 623.5,250.1 622.0,176.3 620.1,140.9 618.2,177.6 616.6,248.7 615.5,236.9 614.2,214.2 612.9,246.9 611.8,234.5 610.1,157.9 608.1,125.7 606.1,163.6 604.5,238.4 603.4,243.1 602.1,210.8 600.9,238.0 599.8,251.9 598.4,184.6 596.6,159.1 594.9,197.5 593.5,260.3 592.4,221.5 591.1,194.5 589.9,227.2 588.7,258.0 587.4,180.8 585.5,132.8 583.6,154.7 581.9,216.5 580.7,261.5 579.6,257.5 578.6,257.2 577.3,197.7 575.6,146.8 573.7,160.6 572.1,217.6 570.9,262.4 569.8,245.3 568.8,262.9 567.7,225.4 566.1,159.4 564.3,140.9 562.5,182.7 561.1,254.4 560.1,235.3 559.0,205.8 557.8,233.1 556.8,260.9 555.5,188.2 553.8,139.0 552.0,153.6 550.3,209.8 549.1,264.1 548.1,230.2 547.1,237.2 546.1,266.0 545.0,211.3 543.5,155.3 541.7,157.6 540.1,205.2 539.0,265.4 538.0,215.1 536.8,185.2 535.6,212.2 534.6,263.1 533.5,199.3 531.7,106.1 529.4,54.0 526.7,61.2 524.4,115.5"/>
<line x1="606" y1="42" x2="628" y2="42" stroke="#0f62fe" stroke-width="2.2"/>
<text x="634" y="46" font-family="Arial" font-size="12">load_factor_g</text>
</svg>