<svg xmlns="http://www.w3.org/2000/svg" width="820" height="320" viewBox="0 0 820 320">
<rect width="100%" height="100%" fill="#ffffff"/>
<text x="54" y="28" font-family="Arial" font-size="18" font-weight="700">Speed</text>
<line x1="54" y1="266" x2="766" y2="266" stroke="#1f2933"/>
<line x1="54" y1="54" x2="54" y2="266" stroke="#1f2933"/>
<text x="54" y="306" font-family="Arial" font-size="12">time (s)</text>
<text x="596" y="306" font-family="Arial" font-size="12">speed (m/s)</text>
<text x="58" y="68" font-family="Arial" font-size="11">265</text>
<text x="58" y="260" font-family="Arial" font-size="11">85.3</text>
<polyline fill="none" stroke="#0f62fe" stroke-width="2.2" points="54.0,265.9 55.2,265.3 56.4,264.7 57.6,264.1 58.7,263.5 59.9,262.9 61.1,262.3 62.3,261.7 63.5,261.0 64.7,260.4 65.9,259.7 67.1,259.0 68.2,258.3 69.4,257.6 70.6,256.9 71.8,256.2 73.0,255.5 74.2,254.8 75.4,254.1 76.5,253.4 77.7,252.7 78.9,252.0 80.1,251.3 81.3,250.6 82.5,249.9 83.7,249.2 84.9,248.5 86.0,247.8 87.2,247.1 88.4,246.4 89.6,245.7 90.8,245.0 92.0,244.3 93.2,243.6 94.3,242.9 95.5,242.2 96.7,241.5 97.9,240.8 99.1,240.1 100.3,239.4 101.5,238.8 102.7,238.1 103.8,237.4 105.0,236.7 106.2,236.0 107.4,235.3 108.6,234.6 109.8,234.0 111.0,233.3 112.1,232.6 113.3,231.9 114.5,231.2 115.7,230.6 116.9,229.9 118.1,229.2 119.3,228.5 120.5,227.9 121.6,227.2 122.8,226.5 124.0,225.8 125.2,225.2 126.4,224.5 127.6,223.8 128.8,223.2 129.9,222.5 131.1,221.8 132.3,221.2 133.5,220.5 134.7,219.8 135.9,219.2 137.1,218.5 138.3,217.9 139.4,217.2 140.6,216.5 141.8,215.9 143.0,215.2 144.2,214.6 145.4,213.9 146.6,213.3 147.7,212.6 148.9,212.0 150.1,211.3 151.3,210.7 152.5,210.0 153.7,209.4 154.9,208.7 156.1,208.1 157.2,207.4 158.4,206.8 159.6,206.2 160.8,205.5 162.0,204.9 163.2,204.2 164.4,203.6 165.5,203.0 166.7,202.3 167.9,201.7 169.1,201.1 170.3,200.4 171.5,199.8 172.7,199.2 173.9,198.6 175.0,197.9 176.2,197.3 177.4,196.7 178.6,196.1 179.8,195.5 181.0,194.9 182.2,194.2 183.3,193.6 184.5,193.0 185.7,192.4 186.9,191.8 188.1,191.2 189.3,190.6 190.5,190.0 191.7,189.4 192.8,188.8 194.0,188.2 195.2,187.6 196.4,187.0 197.6,186.4 198.8,185.8 200.0,185.2 201.1,184.6 202.3,184.0 203.5,183.4 204.7,182.8 205.9,182.3 207.1,181.7 208.3,181.1 209.5,180.5 210.6,179.9 211.8,179.3 213.0,178.8 214.2,178.2 215.4,177.6 216.6,177.1 217.8,176.5 218.9,175.9 220.1,175.3 221.3,174.8 222.5,174.2 223.7,173.6 224.9,173.1 226.1,172.5 227.3,171.9 228.4,171.4 229.6,170.8 230.8,170.2 232.0,169.7 233.2,169.1 234.4,168.6 235.6,168.0 236.7,167.5 237.9,166.9 239.1,166.4 240.3,165.8 241.5,165.3 242.7,164.7 243.9,164.2 245.1,163.6 246.2,163.1 247.4,162.6 248.6,162.0 249.8,161.5 251.0,161.0 252.2,160.4 253.4,159.9 254.5,159.4 255.7,158.8 256.9,158.3 258.1,157.8 259.3,157.3 260.5,156.8 261.7,156.2 262.9,155.7 264.0,155.2 265.2,154.7 266.4,154.2 267.6,153.7 268.8,153.1 270.0,152.7 271.2,152.1 272.3,151.6 273.5,151.1 274.7,150.6 275.9,150.1 277.1,149.6 278.3,149.1 279.5,148.7 280.7,148.2 281.8,147.7 283.0,147.2 284.2,146.7 285.4,146.2 286.6,145.7 287.8,145.2 289.0,144.8 290.1,144.3 291.3,143.8 292.5,143.3 293.7,142.9 294.9,142.4 296.1,141.9 297.3,141.4 298.5,141.0 299.6,140.5 300.8,140.0 302.0,139.5 303.2,139.1 304.4,138.6 305.6,138.1 306.8,137.6 307.9,137.2 309.1,136.7 310.3,136.2 311.5,135.7 312.7,135.3 313.9,134.8 315.1,134.3 316.3,133.9 317.4,133.4 318.6,132.9 319.8,132.5 321.0,132.0 322.2,131.5 323.4,131.1 324.6,130.6 325.7,130.1 326.9,129.7 328.1,129.2 329.3,128.7 330.5,128.3 331.7,127.8 332.9,127.3 334.1,126.9 335.2,126.4 336.4,125.9 337.6,125.5 338.8,125.0 340.0,124.5 341.2,124.1 342.4,123.6 343.5,123.2 344.7,122.7 345.9,122.3 347.1,121.8 348.3,121.3 349.5,120.9 350.7,120.4 351.9,119.9 353.0,119.5 354.2,119.0 355.4,118.6 356.6,118.1 357.8,117.6 359.0,117.2 360.2,116.7 361.3,116.3 362.5,115.8 363.7,115.4 364.9,114.9 366.1,114.4 367.3,114.0 368.5,113.5 369.7,113.1 370.8,112.6 372.0,112.2 373.2,111.7 374.4,111.3 375.6,110.8 376.8,110.4 378.0,110.0 379.1,109.5 380.3,109.1 381.5,108.6 382.7,108.2 383.9,107.8 385.1,107.3 386.3,106.9 387.5,106.4 388.6,106.0 389.8,105.6 391.0,105.2 392.2,104.7 393.4,104.3 394.6,103.9 395.8,103.5 396.9,103.0 398.1,102.6 399.3,102.2 400.5,101.8 401.7,101.3 402.9,100.9 404.1,100.5 405.3,100.1 406.4,99.7 407.6,99.3 408.8,98.9 410.0,98.5 411.2,98.0 412.4,97.7 413.6,97.2 414.7,96.8 415.9,96.4 417.1,96.0 418.3,95.6 419.5,95.3 420.7,94.8 421.9,94.5 423.1,94.1 424.2,93.7 425.4,93.3 426.6,92.9 427.8,92.5 429.0,92.1 430.2,91.7 431.4,91.4 432.5,91.0 433.7,90.6 434.9,90.2 436.1,89.8 437.3,89.4 438.5,89.1 439.7,88.7 440.9,88.3 442.0,87.9 443.2,87.6 444.4,87.2 445.6,86.8 446.8,86.4 448.0,86.1 449.2,85.7 450.3,85.3 451.5,85.0 452.7,84.6 453.9,84.2 455.1,83.9 456.3,83.5 457.5,83.1 458.7,82.7 459.8,82.4 461.0,82.0 462.2,81.7 463.4,81.3 464.6,80.9 465.8,80.6 467.0,80.2 468.1,79.8 469.3,79.5 470.5,79.1 471.7,78.8 472.9,78.4 474.1,78.1 475.3,77.7 476.5,77.4 477.6,77.0 478.8,76.7 480.0,76.3 481.2,76.0 482.4,75.6 483.6,75.3 484.8,75.0 485.9,74.6 487.1,74.3 488.3,74.0 489.5,73.6 490.7,73.3 491.9,72.9 493.1,72.6 494.3,72.3 495.4,71.9 496.6,71.6 497.8,71.3 499.0,71.0 500.2,70.6 501.4,70.3 502.6,70.0 503.7,69.7 504.9,69.4 506.1,69.0 507.3,68.7 508.5,68.4 509.7,68.1 510.9,67.8 512.1,67.5 513.2,67.1 514.4,66.8 515.6,66.5 516.8,66.2 518.0,65.9 519.2,65.6 520.4,65.3 521.5,65.0 522.7,64.7 523.9,64.4 525.1,64.1 526.3,63.8 527.5,63.5 528.7,63.2 529.9,62.9 531.0,62.6 532.2,62.3 533.4,62.1 534.6,61.8 535.8,61.5 537.0,61.2 538.2,60.9 539.3,60.6 540.5,60.4 541.7,60.1 542.9,59.8 544.1,59.5 545.3,59.2 546.5,59.0 547.7,58.7 548.8,58.4 550.0,58.2 551.2,57.9 552.4,57.6 553.6,57.3 554.8,57.1 556.0,56.8 557.1,56.6 558.3,56.3 559.5,56.0 560.7,55.8 561.9,55.5 563.1,55.2 564.3,55.0 565.5,54.7 566.6,54.5 567.8,54.2 569.0,54.0 570.2,54.6 571.4,55.2 572.6,55.7 573.8,56.3 574.9,56.9 576.1,57.5 577.3,58.0 578.5,58.6 579.7,59.2 580.9,59.7 582.1,60.3 583.3,60.9 584.4,61.4 585.6,62.0 586.8,62.5 588.0,63.1 589.2,63.6 590.4,64.2 591.6,64.7 592.7,65.2 593.9,65.7 595.1,66.3 596.3,66.8 597.5,67.4 598.7,67.9 599.9,68.4 601.1,68.9 602.2,69.4 603.4,69.9 604.6,70.5 605.8,71.0 607.0,71.5 608.2,72.0 609.4,72.5 610.5,73.0 611.7,73.5 612.9,74.0 614.1,74.5 615.3,75.0 616.5,75.5 617.7,76.0 618.9,76.5 620.0,76.9 621.2,77.4 622.4,77.9 623.6,78.4 624.8,78.9 626.0,79.4 627.2,79.8 628.3,80.3 629.5,80.8 630.7,81.2 631.9,81.7 633.1,82.2 634.3,82.6 635.5,83.1 636.7,83.5 637.8,84.0 639.0,84.5 640.2,84.9 641.4,85.4 642.6,85.8 643.8,86.3 645.0,86.7 646.1,87.1 647.3,87.6 648.5,88.0 649.7,88.5 650.9,88.9 652.1,89.4 653.3,89.8 654.5,90.2 655.6,90.6 656.8,91.1 658.0,91.5 659.2,91.9 660.4,92.3 661.6,92.8 662.8,93.2 663.9,93.6 665.1,94.0 666.3,94.5 667.5,94.9 668.7,95.3 669.9,95.7 671.1,96.1 672.3,96.5 673.4,96.9 674.6,97.3 675.8,97.7 677.0,98.1 678.2,98.5 679.4,98.9 680.6,99.3 681.7,99.7 682.9,100.1 684.1,100.5 685.3,100.9 686.5,101.3 687.7,101.7 688.9,102.1 690.1,102.5 691.2,102.8 692.4,103.2 693.6,103.6 694.8,104.0 696.0,104.4 697.2,104.8 698.4,105.1 699.5,105.5 700.7,105.9 701.9,106.3 703.1,106.6 704.3,107.0 705.5,107.4 706.7,107.7 707.9,108.1 709.0,108.5 710.2,108.8 711.4,109.2 712.6,109.6 713.8,109.9 715.0,110.3 716.2,110.7 717.3,111.0 718.5,111.4 719.7,111.7 720.9,112.1 722.1,112.5 723.3,112.8 724.5,113.2 725.7,113.5 726.8,113.9 728.0,114.2 729.2,114.6 730.4,115.0 731.6,115.3 732.8,115.7 734.0,116.0 735.1,116.4 736.3,116.7 737.5,117.1 738.7,117.4 739.9,117.8 741.1,118.1 742.3,118.5 743.5,118.8 744.6,119.2 745.8,119.5 747.0,119.8 748.2,120.2 749.4,120.5 750.6,120.9 751.8,121.2 752.9,121.5 754.1,121.9 755.3,122.2 756.5,122.6 757.7,122.9 758.9,123.2 760.1,123.6 761.3,123.9 762.4,124.2 763.6,124.6 764.8,124.9 766.0,125.2"/>
<line x1="606" y1="42" x2="628" y2="42" stroke="#0f62fe" stroke-width="2.2"/>
<text x="634" y="46" font-family="Arial" font-size="12">speed_mps</text>
<polyline fill="none" stroke="#24a148" stroke-width="2.2" points="54.0,266.0 55.2,265.4 56.4,264.8 57.6,264.2 58.7,263.6 59.9,263.0 61.1,262.4 62.3,261.8 63.5,261.1 64.7,260.5 65.9,259.8 67.1,259.1 68.2,258.4 69.4,257.7 70.6,257.0 71.8,256.3 73.0,255.6 74.2,254.9 75.4,254.2 76.5,253.5 77.7,252.8 78.9,252.1 80.1,251.4 81.3,250.7 82.5,250.0 83.7,249.3 84.9,248.6 86.0,247.9 87.2,247.2 88.4,246.5 89.6,245.8 90.8,245.1 92.0,244.4 93.2,243.7 94.3,243.0 95.5,242.3 96.7,241.6 97.9,240.9 99.1,240.3 100.3,239.6 101.5,238.9 102.7,238.2 103.8,237.5 105.0,236.8 106.2,236.1 107.4,235.4 108.6,234.8 109.8,234.1 111.0,233.4 112.1,232.7 113.3,232.0 114.5,231.4 115.7,230.7 116.9,230.0 118.1,229.3 119.3,228.6 120.5,228.0 121.6,227.3 122.8,226.6 124.0,226.0 125.2,225.3 126.4,224.6 127.6,223.9 128.8,223.3 129.9,222.6 131.1,221.9 132.3,221.3 133.5,220.6 134.7,220.0 135.9,219.3 137.1,218.6 138.3,218.0 139.4,217.3 140.6,216.7 141.8,216.0 143.0,215.3 144.2,214.7 145.4,214.0 146.6,213.4 147.7,212.7 148.9,212.1 150.1,211.4 151.3,210.8 152.5,210.1 153.7,209.5 154.9,208.8 156.1,208.2 157.2,207.6 158.4,206.9 159.6,206.3 160.8,205.6 162.0,205.0 163.2,204.4 164.4,203.7 165.5,203.1 166.7,202.5 167.9,201.8 169.1,201.2 170.3,200.6 171.5,199.9 172.7,199.3 173.9,198.7 175.0,198.1 176.2,197.4 177.4,196.8 178.6,196.2 179.8,195.6 181.0,195.0 182.2,194.4 183.3,193.7 184.5,193.1 185.7,192.5 186.9,191.9 188.1,191.3 189.3,190.7 190.5,190.1 191.7,189.5 192.8,188.9 194.0,188.3 195.2,187.7 196.4,187.1 197.6,186.5 198.8,185.9 200.0,185.3 201.1,184.7 202.3,184.1 203.5,183.6 204.7,183.0 205.9,182.4 207.1,181.8 208.3,181.2 209.5,180.6 210.6,180.1 211.8,179.5 213.0,178.9 214.2,178.3 215.4,177.8 216.6,177.2 217.8,176.6 218.9,176.0 220.1,175.5 221.3,174.9 222.5,174.3 223.7,173.7 224.9,173.2 226.1,172.6 227.3,172.0 228.4,171.5 229.6,170.9 230.8,170.4 232.0,169.8 233.2,169.2 234.4,168.7 235.6,168.1 236.7,167.6 237.9,167.0 239.1,166.5 240.3,165.9 241.5,165.4 242.7,164.8 243.9,164.3 245.1,163.8 246.2,163.2 247.4,162.7 248.6,162.1 249.8,161.6 251.0,161.1 252.2,160.5 253.4,160.0 254.5,159.5 255.7,159.0 256.9,158.4 258.1,157.9 259.3,157.4 260.5,156.9 261.7,156.3 262.9,155.8 264.0,155.3 265.2,154.8 266.4,154.3 267.6,153.8 268.8,153.3 270.0,152.8 271.2,152.3 272.3,151.8 273.5,151.2 274.7,150.8 275.9,150.3 277.1,149.8 278.3,149.3 279.5,148.8 280.7,148.3 281.8,147.8 283.0,147.3 284.2,146.8 285.4,146.3 286.6,145.8 287.8,145.4 289.0,144.9 290.1,144.4 291.3,143.9 292.5,143.4 293.7,143.0 294.9,142.5 296.1,142.0 297.3,141.5 298.5,141.1 299.6,140.6 300.8,140.1 302.0,139.6 303.2,139.2 304.4,138.7 305.6,138.2 306.8,137.7 307.9,137.3 309.1,136.8 310.3,136.3 311.5,135.9 312.7,135.4 313.9,134.9 315.1,134.5 316.3,134.0 317.4,133.5 318.6,133.0 319.8,132.6 321.0,132.1 322.2,131.6 323.4,131.2 324.6,130.7 325.7,130.2 326.9,129.8 328.1,129.3 329.3,128.9 330.5,128.4 331.7,127.9 332.9,127.4 334.1,127.0 335.2,126.5 336.4,126.1 337.6,125.6 338.8,125.1 340.0,124.7 341.2,124.2 342.4,123.7 343.5,123.3 344.7,122.8 345.9,122.4 347.1,121.9 348.3,121.4 349.5,121.0 350.7,120.5 351.9,120.0 353.0,119.6 354.2,119.1 355.4,118.7 356.6,118.2 357.8,117.8 359.0,117.3 360.2,116.9 361.3,116.4 362.5,115.9 363.7,115.5 364.9,115.0 366.1,114.6 367.3,114.1 368.5,113.7 369.7,113.2 370.8,112.8 372.0,112.3 373.2,111.9 374.4,111.4 375.6,111.0 376.8,110.5 378.0,110.1 379.1,109.6 380.3,109.2 381.5,108.8 382.7,108.3 383.9,107.9 385.1,107.4 386.3,107.0 387.5,106.6 388.6,106.1 389.8,105.7 391.0,105.3 392.2,104.8 393.4,104.4 394.6,104.0 395.8,103.6 396.9,103.1 398.1,102.7 399.3,102.3 400.5,101.9 401.7,101.5 402.9,101.1 404.1,100.6 405.3,100.2 406.4,99.8 407.6,99.4 408.8,99.0 410.0,98.6 411.2,98.2 412.4,97.8 413.6,97.4 414.7,97.0 415.9,96.5 417.1,96.2 418.3,95.8 419.5,95.4 420.7,95.0 421.9,94.6 423.1,94.2 424.2,93.8 425.4,93.4 426.6,93.0 427.8,92.6 429.0,92.2 430.2,91.8 431.4,91.5 432.5,91.1 433.7,90.7 434.9,90.3 436.1,90.0 437.3,89.6 438.5,89.2 439.7,88.8 440.9,88.4 442.0,88.1 443.2,87.7 444.4,87.3 445.6,86.9 446.8,86.6 448.0,86.2 449.2,85.8 450.3,85.5 451.5,85.1 452.7,84.7 453.9,84.3 455.1,84.0 456.3,83.6 457.5,83.2 458.7,82.9 459.8,82.5 461.0,82.1 462.2,81.8 463.4,81.4 464.6,81.1 465.8,80.7 467.0,80.3 468.1,80.0 469.3,79.6 470.5,79.3 471.7,78.9 472.9,78.5 474.1,78.2 475.3,77.8 476.5,77.5 477.6,77.1 478.8,76.8 480.0,76.4 481.2,76.1 482.4,75.8 483.6,75.4 484.8,75.1 485.9,74.7 487.1,74.4 488.3,74.1 489.5,73.7 490.7,73.4 491.9,73.0 493.1,72.7 494.3,72.4 495.4,72.1 496.6,71.7 497.8,71.4 499.0,71.1 500.2,70.8 501.4,70.4 502.6,70.1 503.7,69.8 504.9,69.5 506.1,69.1 507.3,68.8 508.5,68.5 509.7,68.2 510.9,67.9 512.1,67.6 513.2,67.3 514.4,67.0 515.6,66.6 516.8,66.3 518.0,66.0 519.2,65.7 520.4,65.4 521.5,65.1 522.7,64.8 523.9,64.5 525.1,64.2 526.3,63.9 527.5,63.6 528.7,63.3 529.9,63.0 531.0,62.8 532.2,62.5 533.4,62.2 534.6,61.9 535.8,61.6 537.0,61.3 538.2,61.0 539.3,60.7 540.5,60.5 541.7,60.2 542.9,59.9 544.1,59.6 545.3,59.4 546.5,59.1 547.7,58.8 548.8,58.5 550.0,58.3 551.2,58.0 552.4,57.7 553.6,57.5 554.8,57.2 556.0,56.9 557.1,56.7 558.3,56.4 559.5,56.2 560.7,55.9 561.9,55.6 563.1,55.4 564.3,55.1 565.5,54.9 566.6,54.6 567.8,54.3 569.0,54.1 570.2,54.7 571.4,55.3 572.6,55.9 573.8,56.4 574.9,57.0 576.1,57.6 577.3,58.2 578.5,58.7 579.7,59.3 580.9,59.9 582.1,60.4 583.3,61.0 584.4,61.5 585.6,62.1 586.8,62.6 588.0,63.2 589.2,63.7 590.4,64.3 591.6,64.8 592.7,65.3 593.9,65.9 595.1,66.4 596.3,66.9 597.5,67.5 598.7,68.0 599.9,68.5 601.1,69.0 602.2,69.6 603.4,70.1 604.6,70.6 605.8,71.1 607.0,71.6 608.2,72.1 609.4,72.6 610.5,73.1 611.7,73.6 612.9,74.1 614.1,74.6 615.3,75.1 616.5,75.6 617.7,76.1 618.9,76.6 620.0,77.1 621.2,77.6 622.4,78.0 623.6,78.5 624.8,79.0 626.0,79.5 627.2,79.9 628.3,80.4 629.5,80.9 630.7,81.4 631.9,81.8 633.1,82.3 634.3,82.7 635.5,83.2 636.7,83.7 637.8,84.1 639.0,84.6 640.2,85.0 641.4,85.5 642.6,85.9 643.8,86.4 645.0,86.8 646.1,87.3 647.3,87.7 648.5,88.1 649.7,88.6 650.9,89.0 652.1,89.5 653.3,89.9 654.5,90.3 655.6,90.8 656.8,91.2 658.0,91.6 659.2,92.1 660.4,92.5 661.6,92.9 662.8,93.3 663.9,93.7 665.1,94.1 666.3,94.6 667.5,95.0 668.7,95.4 669.9,95.8 671.1,96.2 672.3,96.6 673.4,97.0 674.6,97.4 675.8,97.8 677.0,98.2 678.2,98.6 679.4,99.0 680.6,99.4 681.7,99.8 682.9,100.2 684.1,100.6 685.3,101.0 686.5,101.4 687.7,101.8 688.9,102.2 690.1,102.6 691.2,103.0 692.4,103.3 693.6,103.7 694.8,104.1 696.0,104.5 697.2,104.9 698.4,105.2 699.5,105.6 700.7,106.0 701.9,106.4 703.1,106.7 704.3,107.1 705.5,107.5 706.7,107.9 707.9,108.2 709.0,108.6 710.2,108.9 711.4,109.3 712.6,109.7 713.8,110.1 715.0,110.4 716.2,110.8 717.3,111.1 718.5,111.5 719.7,111.9 720.9,112.2 722.1,112.6 723.3,112.9 724.5,113.3 725.7,113.7 726.8,114.0 728.0,114.4 729.2,114.7 730.4,115.1 731.6,115.4 732.8,115.8 734.0,116.1 735.1,116.5 736.3,116.8 737.5,117.2 738.7,117.5 739.9,117.9 741.1,118.2 742.3,118.6 743.5,118.9 744.6,119.3 745.8,119.6 747.0,120.0 748.2,120.3 749.4,120.6 750.6,121.0 751.8,121.3 752.9,121.7 754.1,122.0 755.3,122.3 756.5,122.7 757.7,123.0 758.9,123.4 760.1,123.7 761.3,124.0 762.4,124.3 763.6,124.7 764.8,125.0 766.0,125.3"/>
<line x1="606" y1="60" x2="628" y2="60" stroke="#24a148" stroke-width="2.2"/>
<text x="634" y="64" font-family="Arial" font-size="12">airspeed_mps</text>
</svg>