<svg xmlns="http://www.w3.org/2000/svg" width="820" height="320" viewBox="0 0 820 320">
<rect width="100%" height="100%" fill="#ffffff"/>
<text x="54" y="28" font-family="Arial" font-size="18" font-weight="700">Euler Angles</text>
<line x1="54" y1="266" x2="766" y2="266" stroke="#1f2933"/>
<line x1="54" y1="54" x2="54" y2="266" stroke="#1f2933"/>
<text x="54" y="306" font-family="Arial" font-size="12">time (s)</text>
<text x="596" y="306" font-family="Arial" font-size="12">angle (deg)</text>
<text x="58" y="68" font-family="Arial" font-size="11">10.7</text>
<text x="58" y="260" font-family="Arial" font-size="11">0</text>
<polyline fill="none" stroke="#0f62fe" stroke-width="2.2" points="54.0,266.0 55.2,266.0 56.4,266.0 57.6,266.0 58.7,266.0 59.9,266.0 61.1,266.0 62.3,266.0 63.5,266.0 64.7,266.0 65.9,266.0 67.1,266.0 68.2,266.0 69.4,266.0 70.6,266.0 71.8,266.0 73.0,266.0 74.2,266.0 75.4,266.0 76.5,266.0 77.7,266.0 78.9,266.0 80.1,266.0 81.3,266.0 82.5,266.0 83.7,266.0 84.9,266.0 86.0,266.0 87.2,266.0 88.4,266.0 89.6,266.0 90.8,266.0 92.0,266.0 93.2,266.0 94.3,266.0 95.5,266.0 96.7,266.0 97.9,266.0 99.1,266.0 100.3,266.0 101.5,266.0 102.7,266.0 103.8,266.0 105.0,266.0 106.2,266.0 107.4,266.0 108.6,266.0 109.8,266.0 111.0,266.0 112.1,266.0 113.3,266.0 114.5,266.0 115.7,266.0 116.9,266.0 118.1,266.0 119.3,266.0 120.5,266.0 121.6,266.0 122.8,266.0 124.0,266.0 125.2,266.0 126.4,266.0 127.6,266.0 128.8,266.0 129.9,266.0 131.1,266.0 132.3,266.0 133.5,266.0 134.7,266.0 135.9,266.0 137.1,266.0 138.3,266.0 139.4,266.0 140.6,266.0 141.8,266.0 143.0,266.0 144.2,266.0 145.4,266.0 146.6,266.0 147.7,266.0 148.9,266.0 150.1,266.0 151.3,266.0 152.5,266.0 153.7,266.0 154.9,266.0 156.1,266.0 157.2,266.0 158.4,266.0 159.6,266.0 160.8,266.0 162.0,266.0 163.2,266.0 164.4,266.0 165.5,266.0 166.7,266.0 167.9,266.0 169.1,266.0 170.3,266.0 171.5,266.0 172.7,266.0 173.9,266.0 175.0,266.0 176.2,266.0 177.4,266.0 178.6,266.0 179.8,266.0 181.0,266.0 182.2,266.0 183.3,266.0 184.5,266.0 185.7,266.0 186.9,266.0 188.1,266.0 189.3,266.0 190.5,266.0 191.7,266.0 192.8,266.0 194.0,266.0 195.2,266.0 196.4,266.0 197.6,266.0 198.8,266.0 200.0,266.0 201.1,266.0 202.3,266.0 203.5,266.0 204.7,266.0 205.9,266.0 207.1,266.0 208.3,266.0 209.5,266.0 210.6,266.0 211.8,266.0 213.0,266.0 214.2,266.0 215.4,266.0 216.6,266.0 217.8,266.0 218.9,266.0 220.1,266.0 221.3,266.0 222.5,266.0 223.7,266.0 224.9,266.0 226.1,266.0 227.3,266.0 228.4,266.0 229.6,266.0 230.8,266.0 232.0,266.0 233.2,266.0 234.4,266.0 235.6,266.0 236.7,266.0 237.9,266.0 239.1,266.0 240.3,266.0 241.5,266.0 242.7,266.0 243.9,266.0 245.1,266.0 246.2,266.0 247.4,266.0 248.6,266.0 249.8,266.0 251.0,266.0 252.2,266.0 253.4,266.0 254.5,266.0 255.7,266.0 256.9,266.0 258.1,266.0 259.3,266.0 260.5,266.0 261.7,266.0 262.9,266.0 264.0,266.0 265.2,266.0 266.4,266.0 267.6,266.0 268.8,266.0 270.0,266.0 271.2,266.0 272.3,266.0 273.5,266.0 274.7,266.0 275.9,266.0 277.1,266.0 278.3,266.0 279.5,266.0 280.7,266.0 281.8,266.0 283.0,266.0 284.2,266.0 285.4,266.0 286.6,266.0 287.8,266.0 289.0,266.0 290.1,266.0 291.3,266.0 292.5,266.0 293.7,266.0 294.9,266.0 296.1,266.0 297.3,266.0 298.5,266.0 299.6,266.0 300.8,266.0 302.0,266.0 303.2,266.0 304.4,266.0 305.6,266.0 306.8,266.0 307.9,266.0 309.1,266.0 310.3,266.0 311.5,266.0 312.7,266.0 313.9,266.0 315.1,266.0 316.3,266.0 317.4,266.0 318.6,266.0 319.8,266.0 321.0,266.0 322.2,266.0 323.4,266.0 324.6,266.0 325.7,266.0 326.9,266.0 328.1,266.0 329.3,266.0 330.5,266.0 331.7,266.0 332.9,266.0 334.1,266.0 335.2,266.0 336.4,266.0 337.6,266.0 338.8,266.0 340.0,266.0 341.2,266.0 342.4,266.0 343.5,266.0 344.7,266.0 345.9,266.0 347.1,266.0 348.3,266.0 349.5,266.0 350.7,266.0 351.9,266.0 353.0,266.0 354.2,266.0 355.4,266.0 356.6,266.0 357.8,266.0 359.0,266.0 360.2,266.0 361.3,266.0 362.5,266.0 363.7,266.0 364.9,266.0 366.1,266.0 367.3,266.0 368.5,266.0 369.7,266.0 370.8,266.0 372.0,266.0 373.2,266.0 374.4,266.0 375.6,266.0 376.8,266.0 378.0,266.0 379.1,266.0 380.3,266.0 381.5,266.0 382.7,266.0 383.9,266.0 385.1,266.0 386.3,266.0 387.5,266.0 388.6,266.0 389.8,266.0 391.0,266.0 392.2,266.0 393.4,266.0 394.6,266.0 395.8,266.0 396.9,266.0 398.1,266.0 399.3,266.0 400.5,266.0 401.7,266.0 402.9,266.0 404.1,266.0 405.3,266.0 406.4,266.0 407.6,266.0 408.8,266.0 410.0,266.0 411.2,266.0 412.4,266.0 413.6,266.0 414.7,266.0 415.9,266.0 417.1,266.0 418.3,266.0 419.5,266.0 420.7,266.0 421.9,266.0 423.1,266.0 424.2,266.0 425.4,266.0 426.6,266.0 427.8,266.0 429.0,266.0 430.2,266.0 431.4,266.0 432.5,266.0 433.7,266.0 434.9,266.0 436.1,266.0 437.3,266.0 438.5,266.0 439.7,266.0 440.9,266.0 442.0,266.0 443.2,266.0 444.4,266.0 445.6,266.0 446.8,266.0 448.0,266.0 449.2,266.0 450.3,266.0 451.5,266.0 452.7,266.0 453.9,266.0 455.1,266.0 456.3,266.0 457.5,266.0 458.7,266.0 459.8,266.0 461.0,266.0 462.2,266.0 463.4,266.0 464.6,266.0 465.8,266.0 467.0,266.0 468.1,266.0 469.3,266.0 470.5,266.0 471.7,266.0 472.9,266.0 474.1,266.0 475.3,266.0 476.5,266.0 477.6,266.0 478.8,266.0 480.0,266.0 481.2,266.0 482.4,266.0 483.6,266.0 484.8,266.0 485.9,266.0 487.1,266.0 488.3,266.0 489.5,266.0 490.7,266.0 491.9,266.0 493.1,266.0 494.3,266.0 495.4,266.0 496.6,266.0 497.8,266.0 499.0,266.0 500.2,266.0 501.4,266.0 502.6,266.0 503.7,266.0 504.9,266.0 506.1,266.0 507.3,266.0 508.5,266.0 509.7,266.0 510.9,266.0 512.1,266.0 513.2,266.0 514.4,266.0 515.6,266.0 516.8,266.0 518.0,266.0 519.2,266.0 520.4,266.0 521.5,266.0 522.7,266.0 523.9,266.0 525.1,266.0 526.3,266.0 527.5,266.0 528.7,266.0 529.9,266.0 531.0,266.0 532.2,266.0 533.4,266.0 534.6,266.0 535.8,266.0 537.0,266.0 538.2,266.0 539.3,266.0 540.5,266.0 541.7,266.0 542.9,266.0 544.1,266.0 545.3,266.0 546.5,266.0 547.7,266.0 548.8,266.0 550.0,266.0 551.2,266.0 552.4,266.0 553.6,266.0 554.8,266.0 556.0,266.0 557.1,266.0 558.3,266.0 559.5,266.0 560.7,266.0 561.9,266.0 563.1,266.0 564.3,266.0 565.5,266.0 566.6,266.0 567.8,266.0 569.0,266.0 570.2,266.0 571.4,266.0 572.6,266.0 573.8,266.0 574.9,266.0 576.1,266.0 577.3,266.0 578.5,266.0 579.7,266.0 580.9,266.0 582.1,266.0 583.3,266.0 584.4,266.0 585.6,266.0 586.8,266.0 588.0,266.0 589.2,266.0 590.4,266.0 591.6,266.0 592.7,266.0 593.9,266.0 595.1,266.0 596.3,266.0 597.5,266.0 598.7,266.0 599.9,266.0 601.1,266.0 602.2,266.0 603.4,266.0 604.6,266.0 605.8,266.0 607.0,266.0 608.2,266.0 609.4,266.0 610.5,266.0 611.7,266.0 612.9,266.0 614.1,266.0 615.3,266.0 616.5,266.0 617.7,266.0 618.9,266.0 620.0,266.0 621.2,266.0 622.4,266.0 623.6,266.0 624.8,266.0 626.0,266.0 627.2,266.0 628.3,266.0 629.5,266.0 630.7,266.0 631.9,266.0 633.1,266.0 634.3,266.0 635.5,266.0 636.7,266.0 637.8,266.0 639.0,266.0 640.2,266.0 641.4,266.0 642.6,266.0 643.8,266.0 645.0,266.0 646.1,266.0 647.3,266.0 648.5,266.0 649.7,266.0 650.9,266.0 652.1,266.0 653.3,266.0 654.5,266.0 655.6,266.0 656.8,266.0 658.0,266.0 659.2,266.0 660.4,266.0 661.6,266.0 662.8,266.0 663.9,266.0 665.1,266.0 666.3,266.0 667.5,266.0 668.7,266.0 669.9,266.0 671.1,266.0 672.3,266.0 673.4,266.0 674.6,266.0 675.8,266.0 677.0,266.0 678.2,266.0 679.4,266.0 680.6,266.0 681.7,266.0 682.9,266.0 684.1,266.0 685.3,266.0 686.5,266.0 687.7,266.0 688.9,266.0 690.1,266.0 691.2,266.0 692.4,266.0 693.6,266.0 694.8,266.0 696.0,266.0 697.2,266.0 698.4,266.0 699.5,266.0 700.7,266.0 701.9,266.0 703.1,266.0 704.3,266.0 705.5,266.0 706.7,266.0 707.9,266.0 709.0,266.0 710.2,266.0 711.4,266.0 712.6,266.0 713.8,266.0 715.0,266.0 716.2,266.0 717.3,266.0 718.5,266.0 719.7,266.0 720.9,266.0 722.1,266.0 723.3,266.0 724.5,266.0 725.7,266.0 726.8,266.0 728.0,266.0 729.2,266.0 730.4,266.0 731.6,266.0 732.8,266.0 734.0,266.0 735.1,266.0 736.3,266.0 737.5,266.0 738.7,266.0 739.9,266.0 741.1,266.0 742.3,266.0 743.5,266.0 744.6,266.0 745.8,266.0 747.0,266.0 748.2,266.0 749.4,266.0 750.6,266.0 751.8,266.0 752.9,266.0 754.1,266.0 755.3,266.0 756.5,266.0 757.7,266.0 758.9,266.0 760.1,266.0 761.3,266.0 762.4,266.0 763.6,266.0 764.8,266.0 766.0,266.0"/>
<line x1="606" y1="42" x2="628" y2="42" stroke="#0f62fe" stroke-width="2.2"/>
<text x="634" y="46" font-family="Arial" font-size="12">roll_deg</text>
<polyline fill="none" stroke="#24a148" stroke-width="2.2" points="54.0,146.9 55.2,141.7 56.4,135.5 57.6,131.6 58.7,129.7 59.9,128.0 61.1,126.1 62.3,124.3 63.5,123.0 64.7,122.2 65.9,121.5 67.1,121.0 68.2,120.7 69.4,120.5 70.6,120.5 71.8,120.6 73.0,120.8 74.2,121.2 75.4,121.5 76.5,122.0 77.7,122.5 78.9,123.0 80.1,123.6 81.3,124.3 82.5,124.9 83.7,125.6 84.9,126.3 86.0,127.1 87.2,127.8 88.4,128.5 89.6,129.3 90.8,130.0 92.0,130.8 93.2,131.5 94.3,132.3 95.5,133.0 96.7,133.8 97.9,134.5 99.1,135.2 100.3,135.9 101.5,136.6 102.7,137.3 103.8,138.0 105.0,138.7 106.2,139.3 107.4,140.0 108.6,140.6 109.8,141.2 111.0,141.8 112.1,142.4 113.3,143.0 114.5,143.6 115.7,144.1 116.9,144.7 118.1,145.2 119.3,145.7 120.5,146.2 121.6,146.7 122.8,147.2 124.0,147.7 125.2,148.1 126.4,148.6 127.6,149.0 128.8,149.4 129.9,149.8 131.1,150.2 132.3,150.6 133.5,150.9 134.7,151.3 135.9,151.6 137.1,152.0 138.3,152.3 139.4,152.6 140.6,152.9 141.8,153.2 143.0,153.4 144.2,153.7 145.4,154.0 146.6,154.2 147.7,154.4 148.9,154.7 150.1,154.9 151.3,155.0 152.5,155.1 153.7,155.2 154.9,155.2 156.1,155.2 157.2,155.1 158.4,155.0 159.6,154.9 160.8,154.8 162.0,154.6 163.2,154.4 164.4,154.2 165.5,154.0 166.7,153.7 167.9,153.5 169.1,153.2 170.3,152.9 171.5,152.6 172.7,152.3 173.9,151.9 175.0,151.6 176.2,151.2 177.4,150.9 178.6,150.5 179.8,150.1 181.0,149.7 182.2,149.3 183.3,148.9 184.5,148.5 185.7,148.0 186.9,147.6 188.1,147.1 189.3,146.7 190.5,146.2 191.7,145.8 192.8,145.3 194.0,144.9 195.2,144.4 196.4,143.9 197.6,143.4 198.8,142.9 200.0,142.4 201.1,142.0 202.3,141.4 203.5,141.1 204.7,140.3 205.9,140.3 207.1,138.9 208.3,140.1 209.5,136.2 210.6,142.5 211.8,132.1 213.0,134.4 214.2,132.8 215.4,135.0 216.6,129.8 217.8,140.4 218.9,136.1 220.1,139.0 221.3,130.3 222.5,139.5 223.7,135.0 224.9,138.7 226.1,127.3 227.3,132.4 228.4,123.8 229.6,132.1 230.8,125.3 232.0,134.0 233.2,125.9 234.4,132.9 235.6,123.1 236.7,129.5 237.9,119.7 239.1,127.0 240.3,118.2 241.5,126.2 242.7,117.4 243.9,125.2 245.1,115.7 246.2,123.1 247.4,113.2 248.6,120.8 249.8,111.0 251.0,119.0 252.2,109.3 253.4,117.4 254.5,107.5 255.7,115.5 256.9,105.2 258.1,113.4 259.3,103.0 260.5,111.3 261.7,100.8 262.9,109.3 264.0,98.7 265.2,107.2 266.4,96.4 267.6,105.0 268.8,94.1 270.0,102.7 271.2,91.8 272.3,100.5 273.5,89.5 274.7,98.2 275.9,87.3 277.1,96.0 278.3,85.0 279.5,93.7 280.7,82.8 281.8,91.5 283.0,80.5 284.2,89.2 285.4,78.2 286.6,86.9 287.8,76.0 289.0,84.7 290.1,73.7 291.3,82.4 292.5,71.7 293.7,80.6 294.9,69.9 296.1,78.8 297.3,68.5 298.5,77.9 299.6,67.6 300.8,76.9 302.0,66.6 303.2,76.0 304.4,65.7 305.6,75.0 306.8,64.7 307.9,74.1 309.1,63.8 310.3,73.1 311.5,62.8 312.7,72.2 313.9,61.9 315.1,71.2 316.3,60.9 317.4,70.3 318.6,60.0 319.8,69.4 321.0,59.1 322.2,68.4 323.4,58.1 324.6,67.5 325.7,57.3 326.9,66.8 328.1,56.7 329.3,66.2 330.5,56.1 331.7,65.6 332.9,55.5 334.1,65.0 335.2,54.9 336.4,64.4 337.6,54.3 338.8,63.8 340.0,54.0 341.2,63.9 342.4,54.1 343.5,63.9 344.7,54.1 345.9,64.0 347.1,54.2 348.3,64.1 349.5,54.3 350.7,64.1 351.9,54.4 353.0,64.2 354.2,54.4 355.4,64.3 356.6,54.5 357.8,64.4 359.0,54.6 360.2,64.4 361.3,54.6 362.5,64.5 363.7,54.7 364.9,64.6 366.1,54.8 367.3,64.6 368.5,54.9 369.7,64.7 370.8,54.9 372.0,64.8 373.2,55.0 374.4,64.9 375.6,55.1 376.8,64.9 378.0,55.1 379.1,65.0 380.3,55.2 381.5,65.1 382.7,55.3 383.9,65.2 385.1,55.4 386.3,65.2 387.5,55.4 388.6,65.3 389.8,55.5 391.0,65.4 392.2,55.6 393.4,65.4 394.6,55.7 395.8,65.5 396.9,55.7 398.1,65.6 399.3,55.8 400.5,65.7 401.7,55.9 402.9,65.7 404.1,55.9 405.3,65.8 406.4,56.0 407.6,65.9 408.8,56.1 410.0,65.9 411.2,56.2 412.4,66.0 413.6,56.2 414.7,66.1 415.9,56.3 417.1,66.2 418.3,56.4 419.5,66.2 420.7,56.4 421.9,66.3 423.1,56.5 424.2,66.4 425.4,56.6 426.6,66.4 427.8,56.7 429.0,66.5 430.2,56.7 431.4,66.6 432.5,56.8 433.7,66.7 434.9,56.9 436.1,66.7 437.3,57.4 438.5,67.7 439.7,58.4 440.9,68.8 442.0,59.5 443.2,69.8 444.4,60.5 445.6,70.8 446.8,61.5 448.0,71.8 449.2,62.5 450.3,72.8 451.5,63.5 452.7,73.9 453.9,64.5 455.1,74.9 456.3,65.6 457.5,75.9 458.7,66.6 459.8,76.9 461.0,67.6 462.2,77.9 463.4,68.6 464.6,78.9 465.8,69.6 467.0,80.0 468.1,70.7 469.3,81.0 470.5,71.7 471.7,82.0 472.9,72.7 474.1,83.0 475.3,73.7 476.5,84.0 477.6,74.7 478.8,85.1 480.0,75.7 481.2,86.1 482.4,76.8 483.6,87.1 484.8,77.8 485.9,88.1 487.1,78.8 488.3,89.1 489.5,79.8 490.7,90.1 491.9,80.8 493.1,91.2 494.3,81.8 495.4,92.2 496.6,82.9 497.8,93.2 499.0,83.9 500.2,94.2 501.4,84.9 502.6,95.2 503.7,85.9 504.9,96.3 506.1,86.9 507.3,97.3 508.5,88.0 509.7,98.3 510.9,89.0 512.1,99.3 513.2,90.0 514.4,100.3 515.6,91.0 516.8,101.3 518.0,92.0 519.2,102.4 520.4,93.0 521.5,103.4 522.7,94.1 523.9,104.4 525.1,95.1 526.3,105.4 527.5,96.1 528.7,106.4 529.9,97.1 531.0,107.5 532.2,98.1 533.4,108.5 534.6,99.2 535.8,109.5 537.0,100.2 538.2,110.5 539.3,101.2 540.5,111.5 541.7,102.2 542.9,112.5 544.1,103.2 545.3,113.6 546.5,104.2 547.7,114.6 548.8,105.3 550.0,115.6 551.2,106.3 552.4,116.6 553.6,107.3 554.8,117.6 556.0,108.3 557.1,118.6 558.3,109.3 559.5,119.7 560.7,110.4 561.9,120.7 563.1,111.4 564.3,121.7 565.5,112.4 566.6,122.7 567.8,113.4 569.0,123.7 570.2,114.4 571.4,124.8 572.6,115.4 573.8,125.8 574.9,116.5 576.1,126.8 577.3,117.5 578.5,127.8 579.7,118.5 580.9,128.8 582.1,119.5 583.3,129.8 584.4,120.5 585.6,130.9 586.8,121.6 588.0,131.9 589.2,122.6 590.4,132.9 591.6,123.6 592.7,133.9 593.9,124.6 595.1,134.9 596.3,125.6 597.5,136.0 598.7,126.6 599.9,137.0 601.1,127.7 602.2,138.0 603.4,128.7 604.6,139.0 605.8,129.7 607.0,140.0 608.2,130.7 609.4,141.0 610.5,131.7 611.7,142.1 612.9,132.7 614.1,143.1 615.3,133.8 616.5,144.1 617.7,134.8 618.9,145.1 620.0,135.8 621.2,146.1 622.4,136.8 623.6,147.2 624.8,137.8 626.0,148.2 627.2,138.9 628.3,149.2 629.5,139.9 630.7,150.2 631.9,140.9 633.1,151.2 634.3,141.9 635.5,152.2 636.7,142.9 637.8,153.3 639.0,143.9 640.2,154.3 641.4,145.0 642.6,155.3 643.8,146.0 645.0,156.3 646.1,147.0 647.3,157.3 648.5,148.0 649.7,158.4 650.9,149.0 652.1,159.4 653.3,150.1 654.5,160.4 655.6,151.1 656.8,161.4 658.0,152.1 659.2,162.4 660.4,153.1 661.6,163.4 662.8,154.1 663.9,164.5 665.1,155.1 666.3,165.5 667.5,156.2 668.7,166.5 669.9,157.2 671.1,167.5 672.3,158.2 673.4,168.5 674.6,159.2 675.8,169.5 677.0,160.2 678.2,170.6 679.4,161.3 680.6,171.6 681.7,162.3 682.9,172.6 684.1,163.3 685.3,173.6 686.5,164.3 687.7,174.6 688.9,165.3 690.1,175.7 691.2,166.3 692.4,176.7 693.6,167.4 694.8,177.7 696.0,168.4 697.2,178.7 698.4,169.4 699.5,179.7 700.7,170.4 701.9,180.7 703.1,171.4 704.3,181.6 705.5,172.1 706.7,182.2 707.9,172.7 709.0,182.9 710.2,173.4 711.4,183.5 712.6,174.0 713.8,184.2 715.0,174.7 716.2,184.9 717.3,175.4 718.5,185.3 719.7,175.5 720.9,185.4 722.1,175.7 723.3,185.6 724.5,175.8 725.7,185.7 726.8,176.0 728.0,185.9 729.2,176.2 730.4,186.1 731.6,176.3 732.8,186.2 734.0,176.5 735.1,186.4 736.3,176.6 737.5,186.5 738.7,176.8 739.9,186.7 741.1,176.9 742.3,186.8 743.5,177.1 744.6,187.0 745.8,177.3 747.0,187.2 748.2,177.4 749.4,187.3 750.6,177.6 751.8,187.5 752.9,177.7 754.1,187.6 755.3,177.9 756.5,187.8 757.7,178.1 758.9,188.0 760.1,178.2 761.3,188.1 762.4,178.4 763.6,188.3 764.8,178.5 766.0,188.4"/>
<line x1="606" y1="60" x2="628" y2="60" stroke="#24a148" stroke-width="2.2"/>
<text x="634" y="64" font-family="Arial" font-size="12">pitch_deg</text>
<polyline fill="none" stroke="#da1e28" stroke-width="2.2" points="54.0,266.0 55.2,266.0 56.4,266.0 57.6,266.0 58.7,266.0 59.9,266.0 61.1,266.0 62.3,266.0 63.5,266.0 64.7,266.0 65.9,266.0 67.1,266.0 68.2,266.0 69.4,266.0 70.6,266.0 71.8,266.0 73.0,266.0 74.2,266.0 75.4,266.0 76.5,266.0 77.7,266.0 78.9,266.0 80.1,266.0 81.3,266.0 82.5,266.0 83.7,266.0 84.9,266.0 86.0,266.0 87.2,266.0 88.4,266.0 89.6,266.0 90.8,266.0 92.0,266.0 93.2,266.0 94.3,266.0 95.5,266.0 96.7,266.0 97.9,266.0 99.1,266.0 100.3,266.0 101.5,266.0 102.7,266.0 103.8,266.0 105.0,266.0 106.2,266.0 107.4,266.0 108.6,266.0 109.8,266.0 111.0,266.0 112.1,266.0 113.3,266.0 114.5,266.0 115.7,266.0 116.9,266.0 118.1,266.0 119.3,266.0 120.5,266.0 121.6,266.0 122.8,266.0 124.0,266.0 125.2,266.0 126.4,266.0 127.6,266.0 128.8,266.0 129.9,266.0 131.1,266.0 132.3,266.0 133.5,266.0 134.7,266.0 135.9,266.0 137.1,266.0 138.3,266.0 139.4,266.0 140.6,266.0 141.8,266.0 143.0,266.0 144.2,266.0 145.4,266.0 146.6,266.0 147.7,266.0 148.9,266.0 150.1,266.0 151.3,266.0 152.5,266.0 153.7,266.0 154.9,266.0 156.1,266.0 157.2,266.0 158.4,266.0 159.6,266.0 160.8,266.0 162.0,266.0 163.2,266.0 164.4,266.0 165.5,266.0 166.7,266.0 167.9,266.0 169.1,266.0 170.3,266.0 171.5,266.0 172.7,266.0 173.9,266.0 175.0,266.0 176.2,266.0 177.4,266.0 178.6,266.0 179.8,266.0 181.0,266.0 182.2,266.0 183.3,266.0 184.5,266.0 185.7,266.0 186.9,266.0 188.1,266.0 189.3,266.0 190.5,266.0 191.7,266.0 192.8,266.0 194.0,266.0 195.2,266.0 196.4,266.0 197.6,266.0 198.8,266.0 200.0,266.0 201.1,266.0 202.3,266.0 203.5,266.0 204.7,266.0 205.9,266.0 207.1,266.0 208.3,266.0 209.5,266.0 210.6,266.0 211.8,266.0 213.0,266.0 214.2,266.0 215.4,266.0 216.6,266.0 217.8,266.0 218.9,266.0 220.1,266.0 221.3,266.0 222.5,266.0 223.7,266.0 224.9,266.0 226.1,266.0 227.3,266.0 228.4,266.0 229.6,266.0 230.8,266.0 232.0,266.0 233.2,266.0 234.4,266.0 235.6,266.0 236.7,266.0 237.9,266.0 239.1,266.0 240.3,266.0 241.5,266.0 242.7,266.0 243.9,266.0 245.1,266.0 246.2,266.0 247.4,266.0 248.6,266.0 249.8,266.0 251.0,266.0 252.2,266.0 253.4,266.0 254.5,266.0 255.7,266.0 256.9,266.0 258.1,266.0 259.3,266.0 260.5,266.0 261.7,266.0 262.9,266.0 264.0,266.0 265.2,266.0 266.4,266.0 267.6,266.0 268.8,266.0 270.0,266.0 271.2,266.0 272.3,266.0 273.5,266.0 274.7,266.0 275.9,266.0 277.1,266.0 278.3,266.0 279.5,266.0 280.7,266.0 281.8,266.0 283.0,266.0 284.2,266.0 285.4,266.0 286.6,266.0 287.8,266.0 289.0,266.0 290.1,266.0 291.3,266.0 292.5,266.0 293.7,266.0 294.9,266.0 296.1,266.0 297.3,266.0 298.5,266.0 299.6,266.0 300.8,266.0 302.0,266.0 303.2,266.0 304.4,266.0 305.6,266.0 306.8,266.0 307.9,266.0 309.1,266.0 310.3,266.0 311.5,266.0 312.7,266.0 313.9,266.0 315.1,266.0 316.3,266.0 317.4,266.0 318.6,266.0 319.8,266.0 321.0,266.0 322.2,266.0 323.4,266.0 324.6,266.0 325.7,266.0 326.9,266.0 328.1,266.0 329.3,266.0 330.5,266.0 331.7,266.0 332.9,266.0 334.1,266.0 335.2,266.0 336.4,266.0 337.6,266.0 338.8,266.0 340.0,266.0 341.2,266.0 342.4,266.0 343.5,266.0 344.7,266.0 345.9,266.0 347.1,266.0 348.3,266.0 349.5,266.0 350.7,266.0 351.9,266.0 353.0,266.0 354.2,266.0 355.4,266.0 356.6,266.0 357.8,266.0 359.0,266.0 360.2,266.0 361.3,266.0 362.5,266.0 363.7,266.0 364.9,266.0 366.1,266.0 367.3,266.0 368.5,266.0 369.7,266.0 370.8,266.0 372.0,266.0 373.2,266.0 374.4,266.0 375.6,266.0 376.8,266.0 378.0,266.0 379.1,266.0 380.3,266.0 381.5,266.0 382.7,266.0 383.9,266.0 385.1,266.0 386.3,266.0 387.5,266.0 388.6,266.0 389.8,266.0 391.0,266.0 392.2,266.0 393.4,266.0 394.6,266.0 395.8,266.0 396.9,266.0 398.1,266.0 399.3,266.0 400.5,266.0 401.7,266.0 402.9,266.0 404.1,266.0 405.3,266.0 406.4,266.0 407.6,266.0 408.8,266.0 410.0,266.0 411.2,266.0 412.4,266.0 413.6,266.0 414.7,266.0 415.9,266.0 417.1,266.0 418.3,266.0 419.5,266.0 420.7,266.0 421.9,266.0 423.1,266.0 424.2,266.0 425.4,266.0 426.6,266.0 427.8,266.0 429.0,266.0 430.2,266.0 431.4,266.0 432.5,266.0 433.7,266.0 434.9,266.0 436.1,266.0 437.3,266.0 438.5,266.0 439.7,266.0 440.9,266.0 442.0,266.0 443.2,266.0 444.4,266.0 445.6,266.0 446.8,266.0 448.0,266.0 449.2,266.0 450.3,266.0 451.5,266.0 452.7,266.0 453.9,266.0 455.1,266.0 456.3,266.0 457.5,266.0 458.7,266.0 459.8,266.0 461.0,266.0 462.2,266.0 463.4,266.0 464.6,266.0 465.8,266.0 467.0,266.0 468.1,266.0 469.3,266.0 470.5,266.0 471.7,266.0 472.9,266.0 474.1,266.0 475.3,266.0 476.5,266.0 477.6,266.0 478.8,266.0 480.0,266.0 481.2,266.0 482.4,266.0 483.6,266.0 484.8,266.0 485.9,266.0 487.1,266.0 488.3,266.0 489.5,266.0 490.7,266.0 491.9,266.0 493.1,266.0 494.3,266.0 495.4,266.0 496.6,266.0 497.8,266.0 499.0,266.0 500.2,266.0 501.4,266.0 502.6,266.0 503.7,266.0 504.9,266.0 506.1,266.0 507.3,266.0 508.5,266.0 509.7,266.0 510.9,266.0 512.1,266.0 513.2,266.0 514.4,266.0 515.6,266.0 516.8,266.0 518.0,266.0 519.2,266.0 520.4,266.0 521.5,266.0 522.7,266.0 523.9,266.0 525.1,266.0 526.3,266.0 527.5,266.0 528.7,266.0 529.9,266.0 531.0,266.0 532.2,266.0 533.4,266.0 534.6,266.0 535.8,266.0 537.0,266.0 538.2,266.0 539.3,266.0 540.5,266.0 541.7,266.0 542.9,266.0 544.1,266.0 545.3,266.0 546.5,266.0 547.7,266.0 548.8,266.0 550.0,266.0 551.2,266.0 552.4,266.0 553.6,266.0 554.8,266.0 556.0,266.0 557.1,266.0 558.3,266.0 559.5,266.0 560.7,266.0 561.9,266.0 563.1,266.0 564.3,266.0 565.5,266.0 566.6,266.0 567.8,266.0 569.0,266.0 570.2,266.0 571.4,266.0 572.6,266.0 573.8,266.0 574.9,266.0 576.1,266.0 577.3,266.0 578.5,266.0 579.7,266.0 580.9,266.0 582.1,266.0 583.3,266.0 584.4,266.0 585.6,266.0 586.8,266.0 588.0,266.0 589.2,266.0 590.4,266.0 591.6,266.0 592.7,266.0 593.9,266.0 595.1,266.0 596.3,266.0 597.5,266.0 598.7,266.0 599.9,266.0 601.1,266.0 602.2,266.0 603.4,266.0 604.6,266.0 605.8,266.0 607.0,266.0 608.2,266.0 609.4,266.0 610.5,266.0 611.7,266.0 612.9,266.0 614.1,266.0 615.3,266.0 616.5,266.0 617.7,266.0 618.9,266.0 620.0,266.0 621.2,266.0 622.4,266.0 623.6,266.0 624.8,266.0 626.0,266.0 627.2,266.0 628.3,266.0 629.5,266.0 630.7,266.0 631.9,266.0 633.1,266.0 634.3,266.0 635.5,266.0 636.7,266.0 637.8,266.0 639.0,266.0 640.2,266.0 641.4,266.0 642.6,266.0 643.8,266.0 645.0,266.0 646.1,266.0 647.3,266.0 648.5,266.0 649.7,266.0 650.9,266.0 652.1,266.0 653.3,266.0 654.5,266.0 655.6,266.0 656.8,266.0 658.0,266.0 659.2,266.0 660.4,266.0 661.6,266.0 662.8,266.0 663.9,266.0 665.1,266.0 666.3,266.0 667.5,266.0 668.7,266.0 669.9,266.0 671.1,266.0 672.3,266.0 673.4,266.0 674.6,266.0 675.8,266.0 677.0,266.0 678.2,266.0 679.4,266.0 680.6,266.0 681.7,266.0 682.9,266.0 684.1,266.0 685.3,266.0 686.5,266.0 687.7,266.0 688.9,266.0 690.1,266.0 691.2,266.0 692.4,266.0 693.6,266.0 694.8,266.0 696.0,266.0 697.2,266.0 698.4,266.0 699.5,266.0 700.7,266.0 701.9,266.0 703.1,266.0 704.3,266.0 705.5,266.0 706.7,266.0 707.9,266.0 709.0,266.0 710.2,266.0 711.4,266.0 712.6,266.0 713.8,266.0 715.0,266.0 716.2,266.0 717.3,266.0 718.5,266.0 719.7,266.0 720.9,266.0 722.1,266.0 723.3,266.0 724.5,266.0 725.7,266.0 726.8,266.0 728.0,266.0 729.2,266.0 730.4,266.0 731.6,266.0 732.8,266.0 734.0,266.0 735.1,266.0 736.3,266.0 737.5,266.0 738.7,266.0 739.9,266.0 741.1,266.0 742.3,266.0 743.5,266.0 744.6,266.0 745.8,266.0 747.0,266.0 748.2,266.0 749.4,266.0 750.6,266.0 751.8,266.0 752.9,266.0 754.1,266.0 755.3,266.0 756.5,266.0 757.7,266.0 758.9,266.0 760.1,266.0 761.3,266.0 762.4,266.0 763.6,266.0 764.8,266.0 766.0,266.0"/>
<line x1="606" y1="78" x2="628" y2="78" stroke="#da1e28" stroke-width="2.2"/>
<text x="634" y="82" font-family="Arial" font-size="12">yaw_deg</text>
</svg>