<svg xmlns="http://www.w3.org/2000/svg" width="820" height="320" viewBox="0 0 820 320">
<rect width="100%" height="100%" fill="#ffffff"/>
<text x="54" y="28" font-family="Arial" font-size="18" font-weight="700">Qbar/Load Envelope</text>
<line x1="54" y1="266" x2="766" y2="266" stroke="#1f2933"/>
<line x1="54" y1="54" x2="54" y2="266" stroke="#1f2933"/>
<text x="54" y="306" font-family="Arial" font-size="12">qbar (Pa)</text>
<text x="596" y="306" font-family="Arial" font-size="12">load factor (g)</text>
<text x="58" y="68" font-family="Arial" font-size="11">2.42</text>
<text x="58" y="260" font-family="Arial" font-size="11">0.915</text>
<polyline fill="none" stroke="#0f62fe" stroke-width="2.2" points="54.0,148.5 55.0,144.5 56.0,140.4 57.0,136.2 58.0,131.9 59.1,127.6 60.1,123.2 61.3,118.8 62.4,114.4 63.5,110.0 64.7,105.5 65.9,101.0 67.2,96.6 68.4,92.1 69.7,90.7 71.0,90.8 72.3,91.0 73.7,91.1 75.0,91.2 76.3,91.3 77.6,91.5 79.0,91.6 80.3,91.7 81.7,91.8 83.1,91.9 84.4,92.0 85.8,92.1 87.2,92.1 88.6,92.2 90.0,92.3 91.4,92.4 92.8,92.5 94.2,92.6 95.6,92.6 97.0,92.7 98.5,92.8 99.9,92.9 101.4,92.9 102.8,93.0 104.3,93.1 105.7,93.1 107.2,93.2 108.7,93.2 110.2,93.3 111.7,93.4 113.2,93.4 114.7,93.5 116.2,93.5 117.7,93.6 119.2,93.6 120.7,93.7 122.2,93.7 123.8,93.7 125.3,93.8 126.9,93.8 128.4,93.9 130.0,93.9 131.5,93.9 133.1,94.0 134.7,94.0 136.3,94.0 137.9,94.1 139.4,94.1 141.0,94.1 142.6,94.1 144.2,94.2 145.9,94.2 147.5,94.2 149.1,94.2 150.7,94.3 152.3,94.3 154.0,94.3 155.6,94.3 157.3,94.3 158.9,94.3 160.6,94.4 162.2,94.4 163.9,94.4 165.6,94.4 167.2,94.4 168.9,94.4 170.6,94.5 172.3,94.4 174.0,94.4 175.7,94.4 177.4,94.3 179.1,94.3 180.8,94.2 182.5,94.2 184.2,94.1 185.9,94.0 187.6,93.9 189.3,93.8 191.1,93.7 192.8,93.6 194.5,93.4 196.3,93.3 198.0,93.2 199.7,93.0 201.5,92.9 203.2,92.8 205.0,92.6 206.7,92.5 208.5,92.3 210.2,92.2 212.0,92.0 213.7,91.9 215.5,91.7 217.2,91.5 219.0,91.4 220.8,91.2 222.5,91.1 224.3,90.9 226.1,90.8 227.9,90.6 229.6,90.5 231.4,90.3 233.2,90.2 235.0,90.0 236.7,89.9 238.5,89.8 240.3,89.6 242.1,89.5 243.9,89.3 245.7,89.3 247.5,89.0 249.3,89.2 251.1,88.5 252.9,89.5 254.7,87.3 256.5,91.3 258.3,82.9 260.1,97.5 261.9,79.3 263.7,87.4 265.5,83.7 267.3,90.2 269.1,77.1 270.8,97.7 272.7,87.2 274.5,96.5 276.4,78.6 278.1,98.1 280.0,87.4 281.8,99.1 283.7,77.4 285.5,94.0 287.3,74.4 289.1,95.2 291.0,77.7 292.8,98.6 294.6,79.7 296.4,98.7 298.3,77.2 300.1,96.4 301.9,74.1 303.7,95.3 305.6,73.5 307.4,96.1 309.2,74.2 311.0,96.7 312.9,73.4 314.7,96.0 316.5,71.6 318.3,95.2 320.2,70.3 321.9,95.0 323.8,69.8 325.6,95.1 327.4,69.1 329.2,94.8 331.0,67.8 332.8,94.3 334.7,66.5 336.4,93.9 338.3,65.5 340.0,93.8 341.9,64.6 343.6,93.5 345.5,63.4 347.2,93.1 349.1,62.2 350.8,92.7 352.6,61.2 354.4,92.4 356.2,60.3 357.9,92.0 359.8,59.4 361.5,91.8 363.3,58.6 365.1,91.6 366.9,57.9 368.6,91.4 370.4,57.2 372.1,91.3 373.9,56.5 375.7,91.1 377.5,55.9 379.2,90.6 381.0,54.8 382.7,89.9 384.5,54.0 386.2,90.7 388.0,54.4 389.7,91.1 391.5,55.4 393.2,93.6 395.0,57.7 396.7,95.9 398.5,59.9 400.2,98.0 402.1,61.8 403.8,99.7 405.6,63.3 407.3,101.3 409.2,64.7 410.9,102.8 412.7,65.9 414.5,104.2 416.3,67.0 418.0,105.5 419.9,68.1 421.6,106.7 423.5,69.0 425.2,107.9 427.0,69.9 428.8,109.1 430.6,70.8 432.4,110.1 434.2,71.9 436.0,112.2 437.8,73.9 439.6,113.9 441.4,75.5 443.2,115.5 445.1,76.9 446.8,117.0 448.7,78.1 450.5,118.4 452.3,79.3 454.1,119.8 456.0,81.4 457.7,123.0 459.6,84.6 461.4,125.9 463.3,87.7 465.0,128.6 466.9,90.5 468.7,131.1 470.6,93.1 472.4,133.4 474.3,95.4 476.1,135.5 478.0,97.5 479.8,137.5 481.7,99.5 483.5,139.4 485.4,101.3 487.2,141.1 489.1,102.9 490.9,142.8 492.8,104.5 494.6,144.4 496.5,106.0 498.3,146.0 500.2,107.4 502.0,147.5 503.9,108.8 505.7,149.1 507.6,110.3 509.4,150.7 511.3,111.7 513.0,152.3 514.9,113.0 516.7,153.9 518.6,114.3 520.4,155.4 522.3,115.6 524.0,156.9 525.9,116.7 527.7,158.4 529.5,117.9 531.3,159.9 533.2,119.0 534.9,161.3 536.8,120.1 538.5,162.7 540.4,121.1 542.1,164.1 544.0,122.1 545.7,165.4 547.5,123.1 549.3,166.7 551.1,124.1 552.8,168.1 554.6,125.0 556.3,169.4 558.2,125.9 559.9,170.7 561.7,126.7 563.4,172.0 565.2,127.6 566.8,173.2 568.6,128.4 570.3,174.5 572.1,129.2 573.8,175.7 575.6,130.0 577.2,176.9 579.0,130.8 580.6,178.2 582.4,131.5 584.0,179.4 585.8,132.3 587.4,180.6 589.2,133.0 590.8,181.8 592.6,133.7 594.2,183.0 595.9,134.4 597.5,184.1 599.2,135.1 600.8,185.3 602.5,137.3 604.1,188.5 605.9,141.4 607.4,191.3 609.2,145.1 610.8,194.0 612.5,148.5 614.1,196.4 615.8,151.6 617.4,198.6 619.1,154.5 620.7,200.7 622.4,157.2 624.0,202.7 625.7,159.6 627.3,204.5 629.0,161.9 630.6,206.3 632.3,164.1 633.9,208.0 635.6,166.1 637.1,209.7 638.8,168.0 640.4,211.3 642.1,169.8 643.6,212.8 645.3,171.4 646.9,214.3 648.5,173.0 650.1,215.8 651.8,174.6 653.3,217.2 654.9,176.0 656.5,218.6 658.1,177.4 659.6,220.0 661.3,178.7 662.8,221.4 664.4,180.0 665.9,222.8 667.6,181.2 669.1,224.1 670.7,182.4 672.2,225.5 673.8,183.6 675.3,226.8 676.9,184.7 678.3,228.1 679.9,185.7 681.4,229.4 683.0,186.8 684.4,230.7 686.0,187.8 687.4,232.0 689.0,188.8 690.4,233.3 692.0,189.8 693.4,234.6 694.9,190.7 696.3,235.8 697.9,191.6 699.3,237.1 700.8,192.5 702.2,238.4 703.7,193.4 705.1,239.6 706.6,194.3 708.0,240.9 709.5,195.1 710.8,242.1 712.3,196.0 713.7,243.4 715.2,196.8 716.5,244.6 718.0,197.6 719.3,245.8 720.7,198.4 722.0,247.0 723.5,199.1 724.8,248.3 726.3,199.9 727.5,249.5 729.0,200.7 730.2,250.7 731.7,201.4 732.9,251.9 734.4,202.1 735.6,253.1 737.0,202.8 738.3,254.3 739.7,203.6 740.9,255.5 742.3,204.2 743.5,256.7 744.9,204.9 746.1,257.9 747.4,205.6 748.6,259.0 750.0,206.3 751.2,260.2 752.5,206.9 753.7,261.4 755.0,207.6 756.2,262.5 757.5,208.2 758.7,263.7 760.0,208.9 761.1,264.9 762.5,209.5 763.6,266.0 764.9,210.1 766.0,178.7 763.0,126.2 759.9,180.9 757.0,128.7 753.9,183.0 751.0,131.1 747.9,185.0 745.1,133.4 742.1,187.0 739.3,135.6 736.3,188.9 733.5,137.7 730.6,190.8 727.9,139.7 725.0,192.6 722.3,141.7 719.4,194.4 716.7,143.6 713.9,196.1 711.3,145.5 708.5,197.8 705.9,147.3 703.2,199.5 700.6,149.1 697.9,201.2 695.4,150.8 692.7,202.8 690.2,152.5 687.6,204.3 685.1,154.1 682.5,205.9 680.0,155.7 677.5,207.4 675.0,157.3 672.5,208.8 670.1,158.8 667.6,210.3 665.3,160.4 662.8,211.7 660.5,161.8 658.0,213.1 655.7,163.3 653.3,214.5 651.0,164.7 648.6,215.8 646.4,166.1 644.0,217.1 641.8,167.4 639.5,218.4 637.3,168.8 635.0,219.7 632.8,170.1 630.5,221.0 628.4,171.4 626.1,222.2 624.0,172.7 621.8,223.4 619.7,173.9 617.5,224.6 615.4,175.1 613.3,225.7 611.2,176.3 609.1,226.9 607.0,177.5 604.9,228.0 602.9,178.7 600.8,229.1 598.8,179.8 596.8,230.2 594.8,181.0 592.8,231.3 590.8,182.1 588.8,232.3 586.9,183.1 584.9,233.3 583.0,184.2 581.0,234.4 579.1,185.3 577.2,235.4 575.3,186.3 573.4,236.3 571.6,187.3 569.6,237.3 567.8,188.5 565.9,238.3 564.1,189.8 562.3,239.4 560.5,191.3 558.6,240.5 556.9,192.7 555.0,241.5 553.3,194.0 551.5,242.5 549.8,195.2 548.0,243.5 546.3,196.4 544.5,244.4 542.8,197.6 541.1,245.4 539.4,198.7 537.7,246.2 536.0,199.7 534.3,247.1 532.7,200.7 531.0,247.9 529.4,201.6 527.7,248.7 526.1,202.5 524.4,249.5 522.8,203.4 521.2,250.2 519.6,204.3 517.9,250.9 516.4,205.1 514.8,251.3 513.2,204.1 511.6,251.0 510.1,203.3 508.5,250.8 507.0,202.8 505.4,250.8 503.9,202.5 502.3,250.8 500.9,202.3 499.3,250.9 497.8,202.2 496.3,250.4 494.8,200.2 493.3,249.3 491.8,198.4 490.3,248.3 488.8,196.8 487.3,247.4 485.9,195.5 484.4,246.6 483.0,194.4 481.4,245.9 480.0,193.4 478.5,245.3 477.1,192.6 475.7,244.8 474.3,192.0 472.8,244.4 471.4,191.5 469.9,244.1 468.6,191.0 467.1,243.8 465.8,190.7 464.3,243.6 463.0,190.5 461.5,243.5 460.2,190.4 458.8,243.4 457.5,190.3 456.1,243.3 454.7,190.3 453.3,243.3 452.0,190.4 450.6,243.4 449.4,190.5 448.0,243.4 446.7,190.7 445.3,243.5 444.1,190.9 442.7,243.7 441.4,191.1 440.1,243.8"/>
<line x1="606" y1="42" x2="628" y2="42" stroke="#0f62fe" stroke-width="2.2"/>
<text x="634" y="46" font-family="Arial" font-size="12">load_factor_g</text>
</svg>