<svg xmlns="http://www.w3.org/2000/svg" width="820" height="320" viewBox="0 0 820 320">
<rect width="100%" height="100%" fill="#ffffff"/>
<text x="54" y="28" font-family="Arial" font-size="18" font-weight="700">Downrange/Crossrange</text>
<line x1="54" y1="266" x2="766" y2="266" stroke="#1f2933"/>
<line x1="54" y1="54" x2="54" y2="266" stroke="#1f2933"/>
<text x="54" y="306" font-family="Arial" font-size="12">downrange (m)</text>
<text x="596" y="306" font-family="Arial" font-size="12">crossrange (m)</text>
<text x="58" y="68" font-family="Arial" font-size="11">0.0618</text>
<text x="58" y="260" font-family="Arial" font-size="11">-15.8</text>
<polyline fill="none" stroke="#0f62fe" stroke-width="2.2" points="54.0,54.8 57.3,54.8 60.7,54.8 64.1,54.8 67.5,54.8 70.9,54.8 74.4,54.8 77.9,54.8 81.4,54.8 84.9,54.8 88.4,54.8 92.0,54.8 95.6,54.8 99.2,54.8 102.8,54.8 106.5,54.8 110.2,54.8 113.9,54.8 117.6,54.8 121.4,54.8 125.2,54.8 129.0,54.8 132.8,54.8 136.7,54.8 140.5,54.8 144.4,54.7 148.4,54.7 152.3,54.7 156.3,54.7 160.3,54.7 164.3,54.6 168.4,54.6 172.4,54.6 176.5,54.6 180.6,54.5 184.8,54.5 188.9,54.5 193.1,54.4 197.3,54.4 201.6,54.4 205.8,54.3 210.1,54.3 214.4,54.3 218.8,54.2 223.1,54.2 227.5,54.2 231.9,54.1 236.3,54.1 240.7,54.1 245.2,54.1 249.7,54.0 254.2,54.0 258.7,54.0 263.3,54.0 267.9,54.0 272.5,54.0 277.1,54.0 281.8,54.0 286.4,54.0 291.1,54.0 295.9,54.1 300.6,54.1 305.4,54.2 310.1,54.2 315.0,54.3 319.8,54.3 324.6,54.4 329.5,54.5 334.4,54.7 339.3,54.8 344.3,55.0 349.3,55.2 354.2,55.4 359.3,55.7 364.3,56.1 369.3,56.5 374.4,56.9 379.5,57.5 384.6,58.2 389.8,59.0 394.9,60.0 400.1,61.1 405.3,62.5 410.5,64.1 415.7,66.0 421.0,68.3 426.2,70.9 431.4,73.9 436.6,77.1 441.8,80.6 447.0,84.4 452.2,88.4 457.3,92.5 462.4,96.6 467.5,100.5 472.6,104.2 477.6,107.5 482.6,110.8 487.6,113.8 492.6,116.5 497.6,118.8 502.6,120.8 507.6,122.4 512.5,123.9 517.5,125.2 522.5,126.7 527.5,128.3 532.4,130.2 537.4,132.6 542.3,135.3 547.2,138.4 552.1,141.7 557.0,145.1 561.9,148.3 566.8,151.3 571.6,153.9 576.4,156.1 581.2,158.1 586.0,159.9 590.8,161.6 595.6,163.5 600.3,165.6 605.1,167.9 609.9,170.7 614.6,173.7 619.4,176.9 624.1,180.3 628.8,183.6 633.6,186.8 638.3,189.6 643.0,192.0 647.7,194.1 652.3,196.0 657.0,197.8 661.6,199.7 666.3,201.9 670.9,204.3 675.5,207.1 680.1,210.1 684.7,213.4 689.3,216.9 693.8,220.5 698.4,223.9 703.0,226.9 707.6,229.6 712.2,231.9 716.7,234.0 721.3,236.0 725.8,238.0 730.3,240.2 734.8,242.6 739.2,245.3 743.7,248.3 748.1,251.6 752.6,255.2 757.0,258.9 761.5,262.6 766.0,266.0"/>
<line x1="606" y1="42" x2="628" y2="42" stroke="#0f62fe" stroke-width="2.2"/>
<text x="634" y="46" font-family="Arial" font-size="12">y_m</text>
</svg>