<svg xmlns="http://www.w3.org/2000/svg" width="820" height="320" viewBox="0 0 820 320">
<rect width="100%" height="100%" fill="#ffffff"/>
<text x="54" y="28" font-family="Arial" font-size="18" font-weight="700">Velocity Y</text>
<line x1="54" y1="266" x2="766" y2="266" stroke="#1f2933"/>
<line x1="54" y1="54" x2="54" y2="266" stroke="#1f2933"/>
<text x="54" y="306" font-family="Arial" font-size="12">time (s)</text>
<text x="596" y="306" font-family="Arial" font-size="12">vy (m/s)</text>
<text x="58" y="68" font-family="Arial" font-size="11">0.0861</text>
<text x="58" y="260" font-family="Arial" font-size="11">-10.2</text>
<polyline fill="none" stroke="#0f62fe" stroke-width="2.2" points="54.0,55.8 58.5,55.8 63.1,55.8 67.6,55.8 72.1,55.8 76.7,55.8 81.2,55.8 85.7,55.8 90.3,55.8 94.8,55.8 99.4,55.8 103.9,55.8 108.4,55.8 113.0,55.7 117.5,55.7 122.0,55.7 126.6,55.6 131.1,55.6 135.6,55.5 140.2,55.4 144.7,55.4 149.2,55.3 153.8,55.2 158.3,55.1 162.8,55.1 167.4,55.0 171.9,54.9 176.4,54.8 181.0,54.7 185.5,54.6 190.1,54.5 194.6,54.4 199.1,54.3 203.7,54.3 208.2,54.2 212.7,54.1 217.3,54.1 221.8,54.0 226.3,54.0 230.9,54.0 235.4,54.0 239.9,54.0 244.5,54.1 249.0,54.1 253.5,54.2 258.1,54.2 262.6,54.3 267.1,54.4 271.7,54.5 276.2,54.7 280.8,54.8 285.3,55.0 289.8,55.2 294.4,55.3 298.9,55.5 303.4,55.8 308.0,56.0 312.5,56.2 317.0,56.5 321.6,56.8 326.1,57.2 330.6,57.5 335.2,57.9 339.7,58.4 344.2,59.0 348.8,59.6 353.3,60.3 357.8,61.2 362.4,62.2 366.9,63.3 371.5,64.7 376.0,66.3 380.5,68.3 385.1,70.6 389.6,73.3 394.1,76.5 398.7,80.3 403.2,84.9 407.7,90.4 412.3,97.0 416.8,104.9 421.3,114.4 425.9,126.0 430.4,139.4 434.9,154.7 439.5,172.0 444.0,189.6 448.5,205.9 453.1,221.0 457.6,235.2 462.2,248.5 466.7,260.0 471.2,266.0 475.8,265.5 480.3,258.5 484.8,244.8 489.4,226.5 493.9,221.8 498.4,209.7 503.0,192.9 507.5,174.2 512.0,156.2 516.6,140.9 521.1,130.1 525.6,125.9 530.2,128.8 534.7,139.1 539.2,155.7 543.8,176.0 548.3,196.6 552.9,213.9 557.4,224.7 561.9,226.8 566.5,220.6 571.0,207.3 575.5,189.8 580.1,171.5 584.6,156.3 589.1,147.2 593.7,145.7 598.2,150.8 602.7,161.8 607.3,177.1 611.8,194.3 616.3,210.4 620.9,222.3 625.4,228.4 629.9,226.4 634.5,216.0 639.0,199.0 643.6,180.4 648.1,163.8 652.6,152.6 657.2,149.1 661.7,154.0 666.2,165.1 670.8,179.8 675.3,196.4 679.8,212.7 684.4,226.2 688.9,235.1 693.4,237.1 698.0,228.4 702.5,212.9 707.0,192.9 711.6,175.2 716.1,162.3 720.6,156.2 725.2,158.0 729.7,166.7 734.3,178.9 738.8,193.6 743.3,209.8 747.9,225.7 752.4,238.9 756.9,248.0 761.5,243.6 766.0,230.3"/>
<line x1="606" y1="42" x2="628" y2="42" stroke="#0f62fe" stroke-width="2.2"/>
<text x="634" y="46" font-family="Arial" font-size="12">vy_mps</text>
</svg>