<svg xmlns="http://www.w3.org/2000/svg" width="820" height="320" viewBox="0 0 820 320">
<rect width="100%" height="100%" fill="#ffffff"/>
<text x="54" y="28" font-family="Arial" font-size="18" font-weight="700">Velocity Z</text>
<line x1="54" y1="266" x2="766" y2="266" stroke="#1f2933"/>
<line x1="54" y1="54" x2="54" y2="266" stroke="#1f2933"/>
<text x="54" y="306" font-family="Arial" font-size="12">time (s)</text>
<text x="596" y="306" font-family="Arial" font-size="12">vz (m/s)</text>
<text x="58" y="68" font-family="Arial" font-size="11">8</text>
<text x="58" y="260" font-family="Arial" font-size="11">-24</text>
<polyline fill="none" stroke="#0f62fe" stroke-width="2.2" points="54.0,54.0 58.5,55.6 63.1,57.0 67.6,58.3 72.1,59.5 76.7,60.7 81.2,61.7 85.7,62.8 90.3,63.8 94.8,64.7 99.4,65.6 103.9,66.5 108.4,67.3 113.0,68.1 117.5,68.9 122.0,69.6 126.6,70.4 131.1,71.1 135.6,71.8 140.2,72.4 144.7,73.1 149.2,73.7 153.8,74.4 158.3,75.0 162.8,75.6 167.4,76.2 171.9,76.8 176.4,77.3 181.0,77.9 185.5,78.4 190.1,79.0 194.6,79.5 199.1,80.0 203.7,80.5 208.2,81.0 212.7,81.5 217.3,81.9 221.8,82.4 226.3,82.8 230.9,83.2 235.4,83.7 239.9,84.1 244.5,84.5 249.0,84.8 253.5,85.2 258.1,85.6 262.6,85.9 267.1,86.2 271.7,86.6 276.2,86.9 280.8,87.2 285.3,87.5 289.8,87.8 294.4,88.0 298.9,88.3 303.4,88.5 308.0,88.7 312.5,89.0 317.0,89.2 321.6,89.4 326.1,89.6 330.6,89.7 335.2,89.9 339.7,90.1 344.2,90.2 348.8,90.3 353.3,90.5 357.8,90.6 362.4,90.7 366.9,90.8 371.5,90.9 376.0,91.0 380.5,91.0 385.1,91.1 389.6,91.2 394.1,91.3 398.7,91.4 403.2,91.5 407.7,91.7 412.3,91.9 416.8,92.2 421.3,92.7 425.9,93.4 430.4,94.6 434.9,96.3 439.5,98.9 444.0,102.3 448.5,106.4 453.1,110.9 457.6,115.9 462.2,121.8 466.7,128.6 471.2,136.3 475.8,144.2 480.3,151.6 484.8,157.9 489.4,162.4 493.9,170.9 498.4,178.0 503.0,182.5 507.5,184.9 512.0,185.0 516.6,183.2 521.1,179.8 525.6,175.4 530.2,170.7 534.7,166.6 539.2,164.2 543.8,164.1 548.3,166.7 552.9,171.9 557.4,179.0 561.9,186.9 566.5,194.4 571.0,200.4 575.5,204.1 580.1,205.1 584.6,203.6 589.1,200.3 593.7,196.3 598.2,192.7 602.7,190.1 607.3,189.3 611.8,190.8 616.3,194.6 620.9,200.6 625.4,208.2 629.9,216.6 634.5,224.1 639.0,229.4 643.6,231.3 648.1,230.5 652.6,227.7 657.2,223.8 661.7,220.0 666.2,217.4 670.8,216.3 675.3,217.1 679.8,219.9 684.4,224.7 688.9,231.3 693.4,239.7 698.0,247.4 702.5,252.7 707.0,256.3 711.6,256.3 716.1,254.1 720.6,250.6 725.2,247.0 729.7,244.3 734.3,242.6 738.8,242.1 743.3,243.2 747.9,245.9 752.4,250.7 756.9,257.9 761.5,263.9 766.0,266.0"/>
<line x1="606" y1="42" x2="628" y2="42" stroke="#0f62fe" stroke-width="2.2"/>
<text x="634" y="46" font-family="Arial" font-size="12">vz_mps</text>
</svg>