<svg xmlns="http://www.w3.org/2000/svg" width="820" height="320" viewBox="0 0 820 320">
<rect width="100%" height="100%" fill="#ffffff"/>
<text x="54" y="28" font-family="Arial" font-size="18" font-weight="700">Mach Number</text>
<line x1="54" y1="266" x2="766" y2="266" stroke="#1f2933"/>
<line x1="54" y1="54" x2="54" y2="266" stroke="#1f2933"/>
<text x="54" y="306" font-family="Arial" font-size="12">time (s)</text>
<text x="596" y="306" font-family="Arial" font-size="12">Mach</text>
<text x="58" y="68" font-family="Arial" font-size="11">0.393</text>
<text x="58" y="260" font-family="Arial" font-size="11">0.251</text>
<polyline fill="none" stroke="#0f62fe" stroke-width="2.2" points="54.0,266.0 58.5,263.8 63.1,261.6 67.6,259.3 72.1,257.0 76.7,254.7 81.2,252.3 85.7,249.9 90.3,247.5 94.8,245.0 99.4,242.5 103.9,239.9 108.4,237.3 113.0,234.7 117.5,232.0 122.0,229.3 126.6,226.6 131.1,223.9 135.6,221.2 140.2,218.6 144.7,215.9 149.2,213.2 153.8,210.5 158.3,207.9 162.8,205.2 167.4,202.5 171.9,199.9 176.4,197.2 181.0,194.5 185.5,191.9 190.1,189.2 194.6,186.6 199.1,184.0 203.7,181.3 208.2,178.7 212.7,176.0 217.3,173.4 221.8,170.8 226.3,168.2 230.9,165.5 235.4,162.9 239.9,160.3 244.5,157.7 249.0,155.1 253.5,152.5 258.1,149.9 262.6,147.3 267.1,144.7 271.7,142.1 276.2,139.5 280.8,136.9 285.3,134.3 289.8,131.7 294.4,129.2 298.9,126.6 303.4,124.0 308.0,121.4 312.5,118.9 317.0,116.3 321.6,113.8 326.1,111.2 330.6,108.7 335.2,106.1 339.7,103.6 344.2,101.1 348.8,98.5 353.3,96.0 357.8,93.5 362.4,91.0 366.9,88.4 371.5,85.9 376.0,83.4 380.5,80.9 385.1,78.5 389.6,76.0 394.1,73.5 398.7,71.1 403.2,68.7 407.7,66.3 412.3,64.0 416.8,61.8 421.3,59.6 425.9,57.6 430.4,55.9 434.9,54.6 439.5,54.0 444.0,54.0 448.5,54.3 453.1,54.9 457.6,55.9 462.2,57.5 466.7,59.7 471.2,62.4 475.8,65.2 480.3,68.2 484.8,70.9 489.4,72.4 493.9,73.8 498.4,75.5 503.0,77.1 507.5,78.5 512.0,79.5 516.6,80.3 521.1,80.7 525.6,81.0 530.2,81.4 534.7,81.8 539.2,82.5 543.8,83.5 548.3,84.6 552.9,85.8 557.4,87.1 561.9,88.6 566.5,90.2 571.0,91.9 575.5,93.8 580.1,95.6 584.6,97.3 589.1,99.0 593.7,100.3 598.2,101.5 602.7,102.4 607.3,103.1 611.8,103.5 616.3,103.8 620.9,103.9 625.4,103.9 629.9,104.2 634.5,104.6 639.0,105.4 643.6,106.5 648.1,108.1 652.6,110.1 657.2,112.3 661.7,114.4 666.2,116.3 670.8,117.7 675.3,118.6 679.8,118.9 684.4,118.6 688.9,118.0 693.4,117.3 698.0,116.6 702.5,116.0 707.0,116.4 711.6,117.8 716.1,119.8 720.6,122.4 725.2,125.2 729.7,128.0 734.3,130.1 738.8,131.5 743.3,132.3 747.9,132.2 752.4,131.3 756.9,129.8 761.5,127.4 766.0,125.8"/>
<line x1="606" y1="42" x2="628" y2="42" stroke="#0f62fe" stroke-width="2.2"/>
<text x="634" y="46" font-family="Arial" font-size="12">mach</text>
</svg>