<svg xmlns="http://www.w3.org/2000/svg" width="820" height="320" viewBox="0 0 820 320">
<rect width="100%" height="100%" fill="#ffffff"/>
<text x="54" y="28" font-family="Arial" font-size="18" font-weight="700">Load Factor</text>
<line x1="54" y1="266" x2="766" y2="266" stroke="#1f2933"/>
<line x1="54" y1="54" x2="54" y2="266" stroke="#1f2933"/>
<text x="54" y="306" font-family="Arial" font-size="12">time (s)</text>
<text x="596" y="306" font-family="Arial" font-size="12">g</text>
<text x="58" y="68" font-family="Arial" font-size="11">3.86</text>
<text x="58" y="260" font-family="Arial" font-size="11">1.78</text>
<polyline fill="none" stroke="#0f62fe" stroke-width="2.2" points="54.0,266.0 58.5,263.1 63.1,260.2 67.6,257.1 72.1,253.9 76.7,250.8 81.2,247.6 85.7,244.3 90.3,241.0 94.8,237.8 99.4,234.5 103.9,231.2 108.4,227.9 113.0,224.6 117.5,223.5 122.0,223.6 126.6,223.8 131.1,223.8 135.6,223.9 140.2,224.0 144.7,224.1 149.2,224.2 153.8,224.3 158.3,224.4 162.8,224.5 167.4,224.5 171.9,224.6 176.4,224.7 181.0,224.8 185.5,224.8 190.1,224.9 194.6,225.0 199.1,225.0 203.7,225.1 208.2,225.2 212.7,225.2 217.3,225.3 221.8,225.4 226.3,225.4 230.9,225.5 235.4,225.5 239.9,225.6 244.5,225.6 249.0,225.7 253.5,225.7 258.1,225.8 262.6,225.8 267.1,225.9 271.7,225.9 276.2,226.0 280.8,226.0 285.3,226.0 289.8,226.1 294.4,226.1 298.9,226.2 303.4,226.2 308.0,226.2 312.5,226.3 317.0,226.3 321.6,226.3 326.1,226.3 330.6,226.4 335.2,226.4 339.7,226.4 344.2,226.4 348.8,226.4 353.3,226.4 357.8,226.4 362.4,226.4 366.9,226.3 371.5,226.2 376.0,226.0 380.5,225.7 385.1,225.3 389.6,224.6 394.1,223.6 398.7,222.1 403.2,219.9 407.7,216.5 412.3,211.4 416.8,203.4 421.3,190.8 425.9,183.2 430.4,174.2 434.9,152.2 439.5,139.9 444.0,150.1 448.5,154.4 453.1,144.6 457.6,110.2 462.2,70.7 466.7,58.0 471.2,54.0 475.8,55.5 480.3,56.6 484.8,94.5 489.4,68.5 493.9,79.7 498.4,106.6 503.0,116.5 507.5,122.2 512.0,120.8 516.6,115.3 521.1,109.3 525.6,96.4 530.2,87.0 534.7,81.5 539.2,79.6 543.8,80.1 548.3,85.4 552.9,91.3 557.4,98.7 561.9,100.2 566.5,101.8 571.0,104.2 575.5,108.2 580.1,112.8 584.6,115.7 589.1,125.2 593.7,134.7 598.2,142.1 602.7,147.4 607.3,150.9 611.8,153.0 616.3,153.0 620.9,128.5 625.4,101.5 629.9,97.1 634.5,104.0 639.0,121.4 643.6,116.6 648.1,108.5 652.6,105.0 657.2,106.4 661.7,114.6 666.2,132.8 670.8,148.2 675.3,162.5 679.8,175.4 684.4,159.1 688.9,110.9 693.4,110.2 698.0,134.0 702.5,95.2 707.0,119.5 711.6,112.6 716.1,101.9 720.6,98.7 725.2,100.3 729.7,123.9 734.3,141.4 738.8,157.2 743.3,175.4 747.9,180.4 752.4,129.1 756.9,187.3 761.5,190.1 766.0,156.0"/>
<line x1="606" y1="42" x2="628" y2="42" stroke="#0f62fe" stroke-width="2.2"/>
<text x="634" y="46" font-family="Arial" font-size="12">load_factor_g</text>
</svg>