<svg xmlns="http://www.w3.org/2000/svg" width="820" height="320" viewBox="0 0 820 320">
<rect width="100%" height="100%" fill="#ffffff"/>
<text x="54" y="28" font-family="Arial" font-size="18" font-weight="700">Mass</text>
<line x1="54" y1="266" x2="766" y2="266" stroke="#1f2933"/>
<line x1="54" y1="54" x2="54" y2="266" stroke="#1f2933"/>
<text x="54" y="306" font-family="Arial" font-size="12">time (s)</text>
<text x="596" y="306" font-family="Arial" font-size="12">mass (kg)</text>
<text x="58" y="68" font-family="Arial" font-size="11">17.6</text>
<text x="58" y="260" font-family="Arial" font-size="11">16.6</text>
<polyline fill="none" stroke="#0f62fe" stroke-width="2.2" points="54.0,54.0 58.5,55.1 63.1,56.2 67.6,57.4 72.1,58.5 76.7,59.7 81.2,60.9 85.7,62.2 90.3,63.4 94.8,64.7 99.4,66.0 103.9,67.3 108.4,68.6 113.0,69.9 117.5,71.3 122.0,72.7 126.6,74.0 131.1,75.4 135.6,76.8 140.2,78.1 144.7,79.5 149.2,80.9 153.8,82.3 158.3,83.6 162.8,85.0 167.4,86.4 171.9,87.7 176.4,89.1 181.0,90.5 185.5,91.8 190.1,93.2 194.6,94.6 199.1,95.9 203.7,97.3 208.2,98.7 212.7,100.0 217.3,101.4 221.8,102.8 226.3,104.1 230.9,105.5 235.4,106.9 239.9,108.2 244.5,109.6 249.0,111.0 253.5,112.3 258.1,113.7 262.6,115.1 267.1,116.4 271.7,117.8 276.2,119.2 280.8,120.5 285.3,121.9 289.8,123.3 294.4,124.6 298.9,126.0 303.4,127.4 308.0,128.7 312.5,130.1 317.0,131.5 321.6,132.8 326.1,134.2 330.6,135.5 335.2,136.9 339.7,138.3 344.2,139.6 348.8,141.0 353.3,142.4 357.8,143.7 362.4,145.1 366.9,146.5 371.5,147.8 376.0,149.2 380.5,150.6 385.1,151.9 389.6,153.3 394.1,154.6 398.7,156.0 403.2,157.4 407.7,158.7 412.3,160.1 416.8,161.5 421.3,162.8 425.9,164.2 430.4,165.5 434.9,166.9 439.5,168.3 444.0,169.6 448.5,171.0 453.1,172.3 457.6,173.7 462.2,175.1 466.7,176.4 471.2,177.8 475.8,179.2 480.3,180.5 484.8,181.9 489.4,183.2 493.9,184.6 498.4,186.0 503.0,187.3 507.5,188.7 512.0,190.0 516.6,191.4 521.1,192.8 525.6,194.1 530.2,195.5 534.7,196.8 539.2,198.2 543.8,199.5 548.3,200.9 552.9,202.3 557.4,203.6 561.9,205.0 566.5,206.3 571.0,207.7 575.5,209.1 580.1,210.4 584.6,211.8 589.1,213.1 593.7,214.5 598.2,215.8 602.7,217.2 607.3,218.6 611.8,219.9 616.3,221.3 620.9,222.6 625.4,224.0 629.9,225.3 634.5,226.7 639.0,228.1 643.6,229.4 648.1,230.8 652.6,232.1 657.2,233.5 661.7,234.8 666.2,236.2 670.8,237.6 675.3,238.9 679.8,240.3 684.4,241.6 688.9,243.0 693.4,244.3 698.0,245.7 702.5,247.0 707.0,248.4 711.6,249.8 716.1,251.1 720.6,252.5 725.2,253.8 729.7,255.2 734.3,256.5 738.8,257.9 743.3,259.2 747.9,260.6 752.4,261.9 756.9,263.3 761.5,264.6 766.0,266.0"/>
<line x1="606" y1="42" x2="628" y2="42" stroke="#0f62fe" stroke-width="2.2"/>
<text x="634" y="46" font-family="Arial" font-size="12">mass_kg</text>
</svg>