<svg xmlns="http://www.w3.org/2000/svg" width="820" height="320" viewBox="0 0 820 320">
<rect width="100%" height="100%" fill="#ffffff"/>
<text x="54" y="28" font-family="Arial" font-size="18" font-weight="700">Thrust</text>
<line x1="54" y1="266" x2="766" y2="266" stroke="#1f2933"/>
<line x1="54" y1="54" x2="54" y2="266" stroke="#1f2933"/>
<text x="54" y="306" font-family="Arial" font-size="12">time (s)</text>
<text x="596" y="306" font-family="Arial" font-size="12">thrust (N)</text>
<text x="58" y="68" font-family="Arial" font-size="11">404</text>
<text x="58" y="260" font-family="Arial" font-size="11">327</text>
<polyline fill="none" stroke="#0f62fe" stroke-width="2.2" points="54.0,266.0 58.5,250.1 63.1,234.2 67.6,218.3 72.1,202.4 76.7,186.5 81.2,170.6 85.7,154.7 90.3,138.8 94.8,122.9 99.4,107.0 103.9,91.0 108.4,75.1 113.0,59.2 117.5,54.0 122.0,54.1 126.6,54.2 131.1,54.3 135.6,54.4 140.2,54.5 144.7,54.6 149.2,54.7 153.8,54.7 158.3,54.8 162.8,54.9 167.4,55.0 171.9,55.1 176.4,55.2 181.0,55.3 185.5,55.4 190.1,55.5 194.6,55.6 199.1,55.7 203.7,55.8 208.2,55.9 212.7,56.0 217.3,56.0 221.8,56.1 226.3,56.2 230.9,56.3 235.4,56.4 239.9,56.5 244.5,56.6 249.0,56.7 253.5,56.8 258.1,56.9 262.6,57.0 267.1,57.1 271.7,57.2 276.2,57.3 280.8,57.3 285.3,57.4 289.8,57.5 294.4,57.6 298.9,57.7 303.4,57.8 308.0,57.9 312.5,58.0 317.0,58.1 321.6,58.2 326.1,58.3 330.6,58.4 335.2,58.5 339.7,58.6 344.2,58.7 348.8,58.7 353.3,58.8 357.8,58.9 362.4,59.0 366.9,59.1 371.5,59.2 376.0,59.3 380.5,59.4 385.1,59.5 389.6,59.6 394.1,59.7 398.7,59.8 403.2,59.9 407.7,60.0 412.3,60.0 416.8,60.1 421.3,60.2 425.9,60.3 430.4,60.4 434.9,60.5 439.5,60.6 444.0,60.7 448.5,60.8 453.1,60.9 457.6,61.0 462.2,61.1 466.7,61.2 471.2,61.3 475.8,61.3 480.3,61.4 484.8,61.5 489.4,61.6 493.9,61.7 498.4,61.8 503.0,61.9 507.5,62.0 512.0,62.1 516.6,62.2 521.1,62.3 525.6,62.4 530.2,62.5 534.7,62.6 539.2,62.6 543.8,62.7 548.3,62.8 552.9,62.9 557.4,63.0 561.9,63.1 566.5,63.2 571.0,63.3 575.5,63.4 580.1,63.5 584.6,63.6 589.1,63.7 593.7,63.8 598.2,63.9 602.7,64.0 607.3,64.0 611.8,64.1 616.3,64.2 620.9,64.3 625.4,64.4 629.9,64.5 634.5,64.6 639.0,64.7 643.6,64.8 648.1,64.9 652.6,65.0 657.2,65.1 661.7,65.2 666.2,65.3 670.8,65.3 675.3,65.4 679.8,65.5 684.4,65.6 688.9,65.7 693.4,65.8 698.0,65.9 702.5,66.0 707.0,66.1 711.6,66.2 716.1,66.3 720.6,66.4 725.2,66.5 729.7,66.6 734.3,66.6 738.8,66.7 743.3,66.8 747.9,66.9 752.4,67.0 756.9,67.1 761.5,67.2 766.0,67.3"/>
<line x1="606" y1="42" x2="628" y2="42" stroke="#0f62fe" stroke-width="2.2"/>
<text x="634" y="46" font-family="Arial" font-size="12">thrust_n</text>
</svg>