<svg xmlns="http://www.w3.org/2000/svg" width="820" height="320" viewBox="0 0 820 320">
<rect width="100%" height="100%" fill="#ffffff"/>
<text x="54" y="28" font-family="Arial" font-size="18" font-weight="700">Wind Components</text>
<line x1="54" y1="266" x2="766" y2="266" stroke="#1f2933"/>
<line x1="54" y1="54" x2="54" y2="266" stroke="#1f2933"/>
<text x="54" y="306" font-family="Arial" font-size="12">time (s)</text>
<text x="596" y="306" font-family="Arial" font-size="12">wind (m/s)</text>
<text x="58" y="68" font-family="Arial" font-size="11">-0.101</text>
<text x="58" y="260" font-family="Arial" font-size="11">-0.135</text>
<polyline fill="none" stroke="#0f62fe" stroke-width="2.2" points="54.0,54.0 58.5,54.0 63.1,54.0 67.6,54.0 72.1,54.0 76.7,54.0 81.2,54.0 85.7,54.0 90.3,54.0 94.8,54.0 99.4,54.0 103.9,54.0 108.4,54.0 113.0,54.0 117.5,54.0 122.0,54.0 126.6,54.0 131.1,54.0 135.6,54.0 140.2,54.0 144.7,54.0 149.2,54.0 153.8,54.0 158.3,54.0 162.8,54.0 167.4,54.0 171.9,54.0 176.4,54.0 181.0,54.0 185.5,54.0 190.1,54.0 194.6,54.0 199.1,54.0 203.7,54.0 208.2,54.0 212.7,54.0 217.3,54.0 221.8,54.0 226.3,54.0 230.9,54.0 235.4,54.0 239.9,54.0 244.5,54.0 249.0,54.0 253.5,54.0 258.1,54.0 262.6,54.0 267.1,54.0 271.7,54.0 276.2,54.0 280.8,54.0 285.3,54.0 289.8,54.0 294.4,54.0 298.9,54.0 303.4,54.0 308.0,54.0 312.5,54.0 317.0,54.0 321.6,54.0 326.1,54.0 330.6,54.0 335.2,54.0 339.7,54.0 344.2,54.0 348.8,54.0 353.3,54.0 357.8,54.0 362.4,54.0 366.9,54.0 371.5,54.0 376.0,54.0 380.5,54.0 385.1,54.0 389.6,54.0 394.1,54.0 398.7,54.0 403.2,54.0 407.7,54.0 412.3,54.0 416.8,54.0 421.3,54.0 425.9,54.0 430.4,54.0 434.9,54.0 439.5,54.0 444.0,54.0 448.5,54.0 453.1,54.0 457.6,54.0 462.2,54.0 466.7,54.0 471.2,54.0 475.8,54.0 480.3,54.0 484.8,54.0 489.4,54.0 493.9,54.0 498.4,54.0 503.0,54.0 507.5,54.0 512.0,54.0 516.6,54.0 521.1,54.0 525.6,54.0 530.2,54.0 534.7,54.0 539.2,54.0 543.8,54.0 548.3,54.0 552.9,54.0 557.4,54.0 561.9,54.0 566.5,54.0 571.0,54.0 575.5,54.0 580.1,54.0 584.6,54.0 589.1,54.0 593.7,54.0 598.2,54.0 602.7,54.0 607.3,54.0 611.8,54.0 616.3,54.0 620.9,54.0 625.4,54.0 629.9,54.0 634.5,54.0 639.0,54.0 643.6,54.0 648.1,54.0 652.6,54.0 657.2,54.0 661.7,54.0 666.2,54.0 670.8,54.0 675.3,54.0 679.8,54.0 684.4,54.0 688.9,54.0 693.4,54.0 698.0,54.0 702.5,54.0 707.0,54.0 711.6,54.0 716.1,54.0 720.6,54.0 725.2,54.0 729.7,54.0 734.3,54.0 738.8,54.0 743.3,54.0 747.9,54.0 752.4,54.0 756.9,54.0 761.5,54.0 766.0,54.0"/>
<line x1="606" y1="42" x2="628" y2="42" stroke="#0f62fe" stroke-width="2.2"/>
<text x="634" y="46" font-family="Arial" font-size="12">wind_x_mps</text>
<polyline fill="none" stroke="#24a148" stroke-width="2.2" points="54.0,266.0 58.5,266.0 63.1,266.0 67.6,266.0 72.1,266.0 76.7,266.0 81.2,266.0 85.7,266.0 90.3,266.0 94.8,266.0 99.4,266.0 103.9,266.0 108.4,266.0 113.0,266.0 117.5,266.0 122.0,266.0 126.6,266.0 131.1,266.0 135.6,266.0 140.2,266.0 144.7,266.0 149.2,266.0 153.8,266.0 158.3,266.0 162.8,266.0 167.4,266.0 171.9,266.0 176.4,266.0 181.0,266.0 185.5,266.0 190.1,266.0 194.6,266.0 199.1,266.0 203.7,266.0 208.2,266.0 212.7,266.0 217.3,266.0 221.8,266.0 226.3,266.0 230.9,266.0 235.4,266.0 239.9,266.0 244.5,266.0 249.0,266.0 253.5,266.0 258.1,266.0 262.6,266.0 267.1,266.0 271.7,266.0 276.2,266.0 280.8,266.0 285.3,266.0 289.8,266.0 294.4,266.0 298.9,266.0 303.4,266.0 308.0,266.0 312.5,266.0 317.0,266.0 321.6,266.0 326.1,266.0 330.6,266.0 335.2,266.0 339.7,266.0 344.2,266.0 348.8,266.0 353.3,266.0 357.8,266.0 362.4,266.0 366.9,266.0 371.5,266.0 376.0,266.0 380.5,266.0 385.1,266.0 389.6,266.0 394.1,266.0 398.7,266.0 403.2,266.0 407.7,266.0 412.3,266.0 416.8,266.0 421.3,266.0 425.9,266.0 430.4,266.0 434.9,266.0 439.5,266.0 444.0,266.0 448.5,266.0 453.1,266.0 457.6,266.0 462.2,266.0 466.7,266.0 471.2,266.0 475.8,266.0 480.3,266.0 484.8,266.0 489.4,266.0 493.9,266.0 498.4,266.0 503.0,266.0 507.5,266.0 512.0,266.0 516.6,266.0 521.1,266.0 525.6,266.0 530.2,266.0 534.7,266.0 539.2,266.0 543.8,266.0 548.3,266.0 552.9,266.0 557.4,266.0 561.9,266.0 566.5,266.0 571.0,266.0 575.5,266.0 580.1,266.0 584.6,266.0 589.1,266.0 593.7,266.0 598.2,266.0 602.7,266.0 607.3,266.0 611.8,266.0 616.3,266.0 620.9,266.0 625.4,266.0 629.9,266.0 634.5,266.0 639.0,266.0 643.6,266.0 648.1,266.0 652.6,266.0 657.2,266.0 661.7,266.0 666.2,266.0 670.8,266.0 675.3,266.0 679.8,266.0 684.4,266.0 688.9,266.0 693.4,266.0 698.0,266.0 702.5,266.0 707.0,266.0 711.6,266.0 716.1,266.0 720.6,266.0 725.2,266.0 729.7,266.0 734.3,266.0 738.8,266.0 743.3,266.0 747.9,266.0 752.4,266.0 756.9,266.0 761.5,266.0 766.0,266.0"/>
<line x1="606" y1="60" x2="628" y2="60" stroke="#24a148" stroke-width="2.2"/>
<text x="634" y="64" font-family="Arial" font-size="12">wind_y_mps</text>
<polyline fill="none" stroke="#da1e28" stroke-width="2.2" points="54.0,265.8 58.5,265.8 63.1,265.8 67.6,265.8 72.1,265.8 76.7,265.8 81.2,265.8 85.7,265.8 90.3,265.8 94.8,265.8 99.4,265.8 103.9,265.8 108.4,265.8 113.0,265.8 117.5,265.8 122.0,265.8 126.6,265.8 131.1,265.8 135.6,265.8 140.2,265.8 144.7,265.8 149.2,265.8 153.8,265.8 158.3,265.8 162.8,265.8 167.4,265.8 171.9,265.8 176.4,265.8 181.0,265.8 185.5,265.8 190.1,265.8 194.6,265.8 199.1,265.8 203.7,265.8 208.2,265.8 212.7,265.8 217.3,265.8 221.8,265.8 226.3,265.8 230.9,265.8 235.4,265.8 239.9,265.8 244.5,265.8 249.0,265.8 253.5,265.8 258.1,265.8 262.6,265.8 267.1,265.8 271.7,265.8 276.2,265.8 280.8,265.8 285.3,265.8 289.8,265.8 294.4,265.8 298.9,265.8 303.4,265.8 308.0,265.8 312.5,265.8 317.0,265.8 321.6,265.8 326.1,265.8 330.6,265.8 335.2,265.8 339.7,265.8 344.2,265.8 348.8,265.8 353.3,265.8 357.8,265.8 362.4,265.8 366.9,265.8 371.5,265.8 376.0,265.8 380.5,265.8 385.1,265.8 389.6,265.8 394.1,265.8 398.7,265.8 403.2,265.8 407.7,265.8 412.3,265.8 416.8,265.8 421.3,265.8 425.9,265.8 430.4,265.8 434.9,265.8 439.5,265.8 444.0,265.8 448.5,265.8 453.1,265.8 457.6,265.8 462.2,265.8 466.7,265.8 471.2,265.8 475.8,265.8 480.3,265.8 484.8,265.8 489.4,265.8 493.9,265.8 498.4,265.8 503.0,265.8 507.5,265.8 512.0,265.8 516.6,265.8 521.1,265.8 525.6,265.8 530.2,265.8 534.7,265.8 539.2,265.8 543.8,265.8 548.3,265.8 552.9,265.8 557.4,265.8 561.9,265.8 566.5,265.8 571.0,265.8 575.5,265.8 580.1,265.8 584.6,265.8 589.1,265.8 593.7,265.8 598.2,265.8 602.7,265.8 607.3,265.8 611.8,265.8 616.3,265.8 620.9,265.8 625.4,265.8 629.9,265.8 634.5,265.8 639.0,265.8 643.6,265.8 648.1,265.8 652.6,265.8 657.2,265.8 661.7,265.8 666.2,265.8 670.8,265.8 675.3,265.8 679.8,265.8 684.4,265.8 688.9,265.8 693.4,265.8 698.0,265.8 702.5,265.8 707.0,265.8 711.6,265.8 716.1,265.8 720.6,265.8 725.2,265.8 729.7,265.8 734.3,265.8 738.8,265.8 743.3,265.8 747.9,265.8 752.4,265.8 756.9,265.8 761.5,265.8 766.0,265.8"/>
<line x1="606" y1="78" x2="628" y2="78" stroke="#da1e28" stroke-width="2.2"/>
<text x="634" y="82" font-family="Arial" font-size="12">wind_z_mps</text>
</svg>