<svg xmlns="http://www.w3.org/2000/svg" width="820" height="320" viewBox="0 0 820 320">
<rect width="100%" height="100%" fill="#ffffff"/>
<text x="54" y="28" font-family="Arial" font-size="18" font-weight="700">Specific Energy</text>
<line x1="54" y1="266" x2="766" y2="266" stroke="#1f2933"/>
<line x1="54" y1="54" x2="54" y2="266" stroke="#1f2933"/>
<text x="54" y="306" font-family="Arial" font-size="12">time (s)</text>
<text x="596" y="306" font-family="Arial" font-size="12">J/kg</text>
<text x="58" y="68" font-family="Arial" font-size="11">9.22e+03</text>
<text x="58" y="260" font-family="Arial" font-size="11">3.84e+03</text>
<polyline fill="none" stroke="#0f62fe" stroke-width="2.2" points="54.0,266.0 58.5,264.2 63.1,262.4 67.6,260.6 72.1,258.7 76.7,256.8 81.2,254.8 85.7,252.9 90.3,250.8 94.8,248.7 99.4,246.6 103.9,244.5 108.4,242.2 113.0,240.0 117.5,237.7 122.0,235.4 126.6,233.0 131.1,230.7 135.6,228.3 140.2,226.0 144.7,223.6 149.2,221.2 153.8,218.8 158.3,216.4 162.8,214.0 167.4,211.5 171.9,209.1 176.4,206.7 181.0,204.2 185.5,201.7 190.1,199.2 194.6,196.7 199.1,194.2 203.7,191.7 208.2,189.2 212.7,186.6 217.3,184.1 221.8,181.5 226.3,179.0 230.9,176.4 235.4,173.8 239.9,171.2 244.5,168.6 249.0,166.0 253.5,163.3 258.1,160.7 262.6,158.0 267.1,155.4 271.7,152.7 276.2,150.0 280.8,147.3 285.3,144.6 289.8,141.9 294.4,139.2 298.9,136.5 303.4,133.7 308.0,131.0 312.5,128.2 317.0,125.5 321.6,122.7 326.1,119.9 330.6,117.1 335.2,114.3 339.7,111.5 344.2,108.7 348.8,105.9 353.3,103.1 357.8,100.2 362.4,97.4 366.9,94.5 371.5,91.6 376.0,88.8 380.5,85.9 385.1,83.0 389.6,80.2 394.1,77.3 398.7,74.4 403.2,71.6 407.7,68.8 412.3,66.1 416.8,63.4 421.3,60.8 425.9,58.4 430.4,56.3 434.9,54.8 439.5,54.0 444.0,54.0 448.5,54.3 453.1,55.0 457.6,56.2 462.2,58.1 466.7,60.8 471.2,64.0 475.8,67.5 480.3,71.0 484.8,74.3 489.4,76.1 493.9,77.8 498.4,79.9 503.0,81.9 507.5,83.6 512.0,85.0 516.6,85.9 521.1,86.6 525.6,87.1 530.2,87.6 534.7,88.2 539.2,89.1 543.8,90.2 548.3,91.6 552.9,93.1 557.4,94.7 561.9,96.5 566.5,98.5 571.0,100.6 575.5,102.7 580.1,104.9 584.6,107.1 589.1,109.0 593.7,110.7 598.2,112.1 602.7,113.3 607.3,114.2 611.8,114.8 616.3,115.2 620.9,115.5 625.4,115.7 629.9,116.2 634.5,116.9 639.0,117.9 643.6,119.4 648.1,121.3 652.6,123.7 657.2,126.2 661.7,128.7 666.2,130.9 670.8,132.6 675.3,133.7 679.8,134.3 684.4,134.2 688.9,133.7 693.4,133.2 698.0,132.6 702.5,132.3 707.0,133.0 711.6,134.7 716.1,137.1 720.6,140.2 725.2,143.4 729.7,146.5 734.3,148.9 738.8,150.7 743.3,151.7 747.9,151.8 752.4,151.1 756.9,149.8 761.5,147.6 766.0,146.1"/>
<line x1="606" y1="42" x2="628" y2="42" stroke="#0f62fe" stroke-width="2.2"/>
<text x="634" y="46" font-family="Arial" font-size="12">energy_j_per_kg</text>
</svg>