<svg xmlns="http://www.w3.org/2000/svg" width="820" height="320" viewBox="0 0 820 320">
<rect width="100%" height="100%" fill="#ffffff"/>
<text x="54" y="28" font-family="Arial" font-size="18" font-weight="700">Velocity X</text>
<line x1="54" y1="266" x2="766" y2="266" stroke="#1f2933"/>
<line x1="54" y1="54" x2="54" y2="266" stroke="#1f2933"/>
<text x="54" y="306" font-family="Arial" font-size="12">time (s)</text>
<text x="596" y="306" font-family="Arial" font-size="12">vx (m/s)</text>
<text x="58" y="68" font-family="Arial" font-size="11">263</text>
<text x="58" y="260" font-family="Arial" font-size="11">85</text>
<polyline fill="none" stroke="#0f62fe" stroke-width="2.2" points="54.0,266.0 55.2,265.4 56.4,264.8 57.6,264.2 58.7,263.5 59.9,262.9 61.1,262.3 62.3,261.6 63.5,260.9 64.7,260.3 65.9,259.6 67.1,258.9 68.2,258.2 69.4,257.5 70.6,256.8 71.8,256.0 73.0,255.3 74.2,254.6 75.4,253.9 76.5,253.2 77.7,252.4 78.9,251.7 80.1,251.0 81.3,250.3 82.5,249.6 83.7,248.9 84.9,248.2 86.0,247.5 87.2,246.7 88.4,246.0 89.6,245.3 90.8,244.6 92.0,243.9 93.2,243.2 94.3,242.5 95.5,241.8 96.7,241.1 97.9,240.4 99.1,239.7 100.3,239.0 101.5,238.3 102.7,237.6 103.8,236.9 105.0,236.2 106.2,235.5 107.4,234.9 108.6,234.2 109.8,233.5 111.0,232.8 112.1,232.1 113.3,231.4 114.5,230.7 115.7,230.0 116.9,229.3 118.1,228.7 119.3,228.0 120.5,227.3 121.6,226.6 122.8,225.9 124.0,225.3 125.2,224.6 126.4,223.9 127.6,223.2 128.8,222.6 129.9,221.9 131.1,221.2 132.3,220.5 133.5,219.9 134.7,219.2 135.9,218.5 137.1,217.9 138.3,217.2 139.4,216.5 140.6,215.9 141.8,215.2 143.0,214.6 144.2,213.9 145.4,213.2 146.6,212.6 147.7,211.9 148.9,211.3 150.1,210.6 151.3,210.0 152.5,209.3 153.7,208.7 154.9,208.0 156.1,207.4 157.2,206.7 158.4,206.1 159.6,205.4 160.8,204.8 162.0,204.1 163.2,203.5 164.4,202.9 165.5,202.2 166.7,201.6 167.9,200.9 169.1,200.3 170.3,199.7 171.5,199.1 172.7,198.4 173.9,197.8 175.0,197.2 176.2,196.6 177.4,195.9 178.6,195.3 179.8,194.7 181.0,194.1 182.2,193.5 183.3,192.8 184.5,192.2 185.7,191.6 186.9,191.0 188.1,190.4 189.3,189.8 190.5,189.2 191.7,188.6 192.8,188.0 194.0,187.4 195.2,186.8 196.4,186.2 197.6,185.6 198.8,185.0 200.0,184.4 201.1,183.8 202.3,183.2 203.5,182.6 204.7,182.1 205.9,181.5 207.1,180.9 208.3,180.3 209.5,179.7 210.6,179.2 211.8,178.6 213.0,178.0 214.2,177.4 215.4,176.9 216.6,176.3 217.8,175.7 218.9,175.1 220.1,174.6 221.3,174.0 222.5,173.4 223.7,172.9 224.9,172.3 226.1,171.8 227.3,171.2 228.4,170.6 229.6,170.1 230.8,169.5 232.0,169.0 233.2,168.4 234.4,167.9 235.6,167.3 236.7,166.8 237.9,166.2 239.1,165.7 240.3,165.1 241.5,164.6 242.7,164.0 243.9,163.5 245.1,163.0 246.2,162.4 247.4,161.9 248.6,161.3 249.8,160.8 251.0,160.3 252.2,159.7 253.4,159.2 254.5,158.7 255.7,158.1 256.9,157.6 258.1,157.1 259.3,156.5 260.5,156.0 261.7,155.5 262.9,155.0 264.0,154.4 265.2,153.9 266.4,153.4 267.6,152.9 268.8,152.4 270.0,151.8 271.2,151.3 272.3,150.8 273.5,150.3 274.7,149.8 275.9,149.2 277.1,148.7 278.3,148.2 279.5,147.7 280.7,147.2 281.8,146.7 283.0,146.2 284.2,145.7 285.4,145.1 286.6,144.6 287.8,144.1 289.0,143.6 290.1,143.1 291.3,142.6 292.5,142.1 293.7,141.6 294.9,141.1 296.1,140.6 297.3,140.1 298.5,139.6 299.6,139.1 300.8,138.6 302.0,138.1 303.2,137.6 304.4,137.0 305.6,136.5 306.8,136.0 307.9,135.5 309.1,135.0 310.3,134.5 311.5,134.0 312.7,133.6 313.9,133.1 315.1,132.6 316.3,132.1 317.4,131.7 318.6,131.2 319.8,130.7 321.0,130.3 322.2,129.8 323.4,129.3 324.6,128.9 325.7,128.4 326.9,128.0 328.1,127.6 329.3,127.1 330.5,126.7 331.7,126.2 332.9,125.8 334.1,125.4 335.2,124.9 336.4,124.5 337.6,124.0 338.8,123.6 340.0,123.1 341.2,122.7 342.4,122.2 343.5,121.8 344.7,121.3 345.9,120.9 347.1,120.5 348.3,120.0 349.5,119.6 350.7,119.1 351.9,118.7 353.0,118.3 354.2,117.8 355.4,117.4 356.6,116.9 357.8,116.5 359.0,116.0 360.2,115.6 361.3,115.1 362.5,114.7 363.7,114.3 364.9,113.9 366.1,113.4 367.3,113.0 368.5,112.5 369.7,112.1 370.8,111.7 372.0,111.2 373.2,110.8 374.4,110.4 375.6,109.9 376.8,109.5 378.0,109.1 379.1,108.7 380.3,108.2 381.5,107.8 382.7,107.4 383.9,107.0 385.1,106.5 386.3,106.1 387.5,105.7 388.6,105.3 389.8,104.9 391.0,104.5 392.2,104.0 393.4,103.7 394.6,103.2 395.8,102.8 396.9,102.4 398.1,102.0 399.3,101.6 400.5,101.2 401.7,100.8 402.9,100.4 404.1,100.0 405.3,99.6 406.4,99.2 407.6,98.8 408.8,98.4 410.0,98.1 411.2,97.6 412.4,97.3 413.6,96.9 414.7,96.5 415.9,96.1 417.1,95.7 418.3,95.3 419.5,94.9 420.7,94.5 421.9,94.2 423.1,93.7 424.2,93.4 425.4,93.0 426.6,92.6 427.8,92.2 429.0,91.8 430.2,91.4 431.4,91.1 432.5,90.6 433.7,90.3 434.9,89.9 436.1,89.5 437.3,89.1 438.5,88.8 439.7,88.3 440.9,88.0 442.0,87.6 443.2,87.2 444.4,86.8 445.6,86.5 446.8,86.1 448.0,85.7 449.2,85.3 450.3,85.0 451.5,84.6 452.7,84.2 453.9,83.8 455.1,83.5 456.3,83.1 457.5,82.7 458.7,82.3 459.8,82.0 461.0,81.6 462.2,81.3 463.4,80.9 464.6,80.6 465.8,80.2 467.0,79.8 468.1,79.5 469.3,79.1 470.5,78.7 471.7,78.4 472.9,78.0 474.1,77.7 475.3,77.3 476.5,77.0 477.6,76.7 478.8,76.3 480.0,76.0 481.2,75.7 482.4,75.3 483.6,75.0 484.8,74.6 485.9,74.3 487.1,73.9 488.3,73.6 489.5,73.3 490.7,73.0 491.9,72.6 493.1,72.3 494.3,71.9 495.4,71.6 496.6,71.3 497.8,71.0 499.0,70.6 500.2,70.3 501.4,70.0 502.6,69.7 503.7,69.4 504.9,69.1 506.1,68.7 507.3,68.5 508.5,68.1 509.7,67.8 510.9,67.5 512.1,67.2 513.2,66.9 514.4,66.6 515.6,66.3 516.8,66.0 518.0,65.7 519.2,65.4 520.4,65.1 521.5,64.8 522.7,64.5 523.9,64.2 525.1,63.9 526.3,63.6 527.5,63.3 528.7,63.0 529.9,62.7 531.0,62.5 532.2,62.2 533.4,61.9 534.6,61.6 535.8,61.3 537.0,61.0 538.2,60.8 539.3,60.5 540.5,60.2 541.7,59.9 542.9,59.7 544.1,59.4 545.3,59.1 546.5,58.8 547.7,58.6 548.8,58.3 550.0,58.1 551.2,57.8 552.4,57.5 553.6,57.2 554.8,57.0 556.0,56.7 557.1,56.5 558.3,56.2 559.5,56.0 560.7,55.7 561.9,55.5 563.1,55.2 564.3,55.0 565.5,54.7 566.6,54.5 567.8,54.2 569.0,54.0 570.2,54.6 571.4,55.2 572.6,55.7 573.8,56.3 574.9,56.9 576.1,57.5 577.3,58.0 578.5,58.7 579.7,59.2 580.9,59.8 582.1,60.3 583.3,60.9 584.4,61.4 585.6,62.0 586.8,62.5 588.0,63.1 589.2,63.6 590.4,64.2 591.6,64.7 592.7,65.3 593.9,65.8 595.1,66.4 596.3,66.9 597.5,67.4 598.7,67.9 599.9,68.5 601.1,69.0 602.2,69.5 603.4,70.0 604.6,70.6 605.8,71.1 607.0,71.6 608.2,72.1 609.4,72.6 610.5,73.1 611.7,73.6 612.9,74.1 614.1,74.6 615.3,75.1 616.5,75.6 617.7,76.1 618.9,76.6 620.0,77.1 621.2,77.6 622.4,78.0 623.6,78.6 624.8,79.0 626.0,79.5 627.2,80.0 628.3,80.5 629.5,80.9 630.7,81.4 631.9,81.9 633.1,82.4 634.3,82.8 635.5,83.3 636.7,83.7 637.8,84.2 639.0,84.6 640.2,85.1 641.4,85.6 642.6,86.0 643.8,86.5 645.0,86.9 646.1,87.4 647.3,87.8 648.5,88.3 649.7,88.7 650.9,89.1 652.1,89.6 653.3,90.0 654.5,90.5 655.6,90.9 656.8,91.4 658.0,91.8 659.2,92.2 660.4,92.6 661.6,93.1 662.8,93.5 663.9,93.9 665.1,94.3 666.3,94.8 667.5,95.2 668.7,95.6 669.9,96.0 671.1,96.4 672.3,96.8 673.4,97.3 674.6,97.7 675.8,98.1 677.0,98.5 678.2,98.9 679.4,99.3 680.6,99.7 681.7,100.1 682.9,100.5 684.1,100.9 685.3,101.3 686.5,101.7 687.7,102.1 688.9,102.5 690.1,102.9 691.2,103.3 692.4,103.7 693.6,104.0 694.8,104.4 696.0,104.8 697.2,105.2 698.4,105.6 699.5,106.0 700.7,106.3 701.9,106.7 703.1,107.1 704.3,107.5 705.5,107.8 706.7,108.2 707.9,108.6 709.0,109.0 710.2,109.3 711.4,109.7 712.6,110.1 713.8,110.5 715.0,110.8 716.2,111.2 717.3,111.5 718.5,111.9 719.7,112.3 720.9,112.6 722.1,113.0 723.3,113.4 724.5,113.7 725.7,114.1 726.8,114.4 728.0,114.8 729.2,115.1 730.4,115.5 731.6,115.8 732.8,116.2 734.0,116.5 735.1,116.9 736.3,117.2 737.5,117.6 738.7,117.9 739.9,118.3 741.1,118.7 742.3,119.0 743.5,119.4 744.6,119.7 745.8,120.1 747.0,120.4 748.2,120.8 749.4,121.1 750.6,121.5 751.8,121.8 752.9,122.2 754.1,122.5 755.3,122.9 756.5,123.2 757.7,123.5 758.9,123.9 760.1,124.2 761.3,124.6 762.4,124.9 763.6,125.3 764.8,125.6 766.0,126.0"/>
<line x1="606" y1="42" x2="628" y2="42" stroke="#0f62fe" stroke-width="2.2"/>
<text x="634" y="46" font-family="Arial" font-size="12">vx_mps</text>
</svg>