<svg xmlns="http://www.w3.org/2000/svg" width="820" height="320" viewBox="0 0 820 320">
<rect width="100%" height="100%" fill="#ffffff"/>
<text x="54" y="28" font-family="Arial" font-size="18" font-weight="700">Speed</text>
<line x1="54" y1="266" x2="766" y2="266" stroke="#1f2933"/>
<line x1="54" y1="54" x2="54" y2="266" stroke="#1f2933"/>
<text x="54" y="306" font-family="Arial" font-size="12">time (s)</text>
<text x="596" y="306" font-family="Arial" font-size="12">speed (m/s)</text>
<text x="58" y="68" font-family="Arial" font-size="11">265</text>
<text x="58" y="260" font-family="Arial" font-size="11">85.3</text>
<polyline fill="none" stroke="#0f62fe" stroke-width="2.2" points="54.0,265.9 55.2,265.3 56.4,264.7 57.6,264.1 58.7,263.5 59.9,262.9 61.1,262.3 62.3,261.7 63.5,261.0 64.7,260.4 65.9,259.7 67.1,259.0 68.2,258.4 69.4,257.7 70.6,257.0 71.8,256.2 73.0,255.5 74.2,254.8 75.4,254.1 76.5,253.4 77.7,252.7 78.9,252.0 80.1,251.3 81.3,250.6 82.5,249.9 83.7,249.2 84.9,248.5 86.0,247.8 87.2,247.1 88.4,246.4 89.6,245.7 90.8,245.0 92.0,244.3 93.2,243.6 94.3,243.0 95.5,242.3 96.7,241.6 97.9,240.9 99.1,240.2 100.3,239.5 101.5,238.8 102.7,238.1 103.8,237.4 105.0,236.7 106.2,236.1 107.4,235.4 108.6,234.7 109.8,234.0 111.0,233.3 112.1,232.6 113.3,232.0 114.5,231.3 115.7,230.6 116.9,229.9 118.1,229.3 119.3,228.6 120.5,227.9 121.6,227.2 122.8,226.6 124.0,225.9 125.2,225.2 126.4,224.6 127.6,223.9 128.8,223.2 129.9,222.5 131.1,221.9 132.3,221.2 133.5,220.6 134.7,219.9 135.9,219.2 137.1,218.6 138.3,217.9 139.4,217.2 140.6,216.6 141.8,215.9 143.0,215.3 144.2,214.6 145.4,214.0 146.6,213.3 147.7,212.7 148.9,212.0 150.1,211.4 151.3,210.7 152.5,210.1 153.7,209.4 154.9,208.8 156.1,208.1 157.2,207.5 158.4,206.9 159.6,206.2 160.8,205.6 162.0,204.9 163.2,204.3 164.4,203.7 165.5,203.0 166.7,202.4 167.9,201.8 169.1,201.1 170.3,200.5 171.5,199.9 172.7,199.3 173.9,198.6 175.0,198.0 176.2,197.4 177.4,196.8 178.6,196.2 179.8,195.6 181.0,194.9 182.2,194.3 183.3,193.7 184.5,193.1 185.7,192.5 186.9,191.9 188.1,191.3 189.3,190.7 190.5,190.1 191.7,189.5 192.8,188.9 194.0,188.3 195.2,187.7 196.4,187.1 197.6,186.5 198.8,185.9 200.0,185.3 201.1,184.7 202.3,184.2 203.5,183.6 204.7,183.0 205.9,182.4 207.1,181.8 208.3,181.2 209.5,180.7 210.6,180.1 211.8,179.5 213.0,178.9 214.2,178.3 215.4,177.8 216.6,177.2 217.8,176.6 218.9,176.1 220.1,175.5 221.3,174.9 222.5,174.4 223.7,173.8 224.9,173.2 226.1,172.7 227.3,172.1 228.4,171.5 229.6,171.0 230.8,170.4 232.0,169.9 233.2,169.3 234.4,168.8 235.6,168.2 236.7,167.6 237.9,167.1 239.1,166.5 240.3,166.0 241.5,165.4 242.7,164.9 243.9,164.4 245.1,163.8 246.2,163.3 247.4,162.7 248.6,162.2 249.8,161.6 251.0,161.1 252.2,160.5 253.4,160.0 254.5,159.5 255.7,158.9 256.9,158.4 258.1,157.9 259.3,157.3 260.5,156.8 261.7,156.3 262.9,155.7 264.0,155.2 265.2,154.7 266.4,154.1 267.6,153.6 268.8,153.1 270.0,152.6 271.2,152.0 272.3,151.5 273.5,151.0 274.7,150.4 275.9,149.9 277.1,149.4 278.3,148.9 279.5,148.4 280.7,147.8 281.8,147.3 283.0,146.8 284.2,146.3 285.4,145.8 286.6,145.2 287.8,144.7 289.0,144.2 290.1,143.7 291.3,143.2 292.5,142.7 293.7,142.2 294.9,141.7 296.1,141.2 297.3,140.6 298.5,140.1 299.6,139.6 300.8,139.1 302.0,138.6 303.2,138.1 304.4,137.5 305.6,137.0 306.8,136.5 307.9,136.0 309.1,135.5 310.3,135.0 311.5,134.5 312.7,134.0 313.9,133.5 315.1,133.0 316.3,132.5 317.4,132.1 318.6,131.6 319.8,131.1 321.0,130.6 322.2,130.1 323.4,129.7 324.6,129.2 325.7,128.7 326.9,128.3 328.1,127.8 329.3,127.3 330.5,126.9 331.7,126.4 332.9,125.9 334.1,125.5 335.2,125.0 336.4,124.6 337.6,124.1 338.8,123.6 340.0,123.2 341.2,122.7 342.4,122.2 343.5,121.8 344.7,121.3 345.9,120.9 347.1,120.4 348.3,119.9 349.5,119.5 350.7,119.0 351.9,118.5 353.0,118.1 354.2,117.6 355.4,117.2 356.6,116.7 357.8,116.3 359.0,115.8 360.2,115.4 361.3,114.9 362.5,114.5 363.7,114.0 364.9,113.6 366.1,113.1 367.3,112.7 368.5,112.2 369.7,111.8 370.8,111.3 372.0,110.9 373.2,110.4 374.4,110.0 375.6,109.5 376.8,109.1 378.0,108.7 379.1,108.2 380.3,107.8 381.5,107.4 382.7,106.9 383.9,106.5 385.1,106.0 386.3,105.6 387.5,105.2 388.6,104.8 389.8,104.3 391.0,103.9 392.2,103.5 393.4,103.1 394.6,102.7 395.8,102.2 396.9,101.8 398.1,101.4 399.3,101.0 400.5,100.6 401.7,100.2 402.9,99.8 404.1,99.3 405.3,98.9 406.4,98.5 407.6,98.1 408.8,97.7 410.0,97.3 411.2,96.9 412.4,96.5 413.6,96.1 414.7,95.7 415.9,95.3 417.1,94.9 418.3,94.5 419.5,94.2 420.7,93.7 421.9,93.4 423.1,93.0 424.2,92.6 425.4,92.2 426.6,91.8 427.8,91.4 429.0,91.0 430.2,90.6 431.4,90.2 432.5,89.8 433.7,89.5 434.9,89.1 436.1,88.7 437.3,88.3 438.5,87.9 439.7,87.5 440.9,87.2 442.0,86.8 443.2,86.4 444.4,86.0 445.6,85.7 446.8,85.3 448.0,84.9 449.2,84.5 450.3,84.2 451.5,83.8 452.7,83.4 453.9,83.1 455.1,82.7 456.3,82.3 457.5,82.0 458.7,81.6 459.8,81.3 461.0,80.9 462.2,80.5 463.4,80.2 464.6,79.8 465.8,79.5 467.0,79.1 468.1,78.8 469.3,78.4 470.5,78.1 471.7,77.7 472.9,77.4 474.1,77.1 475.3,76.7 476.5,76.4 477.6,76.0 478.8,75.7 480.0,75.3 481.2,75.0 482.4,74.7 483.6,74.4 484.8,74.0 485.9,73.7 487.1,73.3 488.3,73.0 489.5,72.7 490.7,72.4 491.9,72.0 493.1,71.7 494.3,71.4 495.4,71.1 496.6,70.8 497.8,70.5 499.0,70.1 500.2,69.8 501.4,69.5 502.6,69.2 503.7,68.9 504.9,68.6 506.1,68.3 507.3,68.0 508.5,67.7 509.7,67.4 510.9,67.1 512.1,66.8 513.2,66.5 514.4,66.2 515.6,65.9 516.8,65.6 518.0,65.3 519.2,65.0 520.4,64.7 521.5,64.4 522.7,64.1 523.9,63.9 525.1,63.6 526.3,63.3 527.5,63.0 528.7,62.7 529.9,62.4 531.0,62.2 532.2,61.9 533.4,61.6 534.6,61.3 535.8,61.1 537.0,60.8 538.2,60.6 539.3,60.3 540.5,60.0 541.7,59.7 542.9,59.5 544.1,59.2 545.3,59.0 546.5,58.7 547.7,58.4 548.8,58.2 550.0,57.9 551.2,57.7 552.4,57.4 553.6,57.1 554.8,56.9 556.0,56.6 557.1,56.4 558.3,56.2 559.5,55.9 560.7,55.7 561.9,55.4 563.1,55.2 564.3,55.0 565.5,54.7 566.6,54.5 567.8,54.2 569.0,54.0 570.2,54.6 571.4,55.2 572.6,55.8 573.8,56.4 574.9,57.0 576.1,57.6 577.3,58.1 578.5,58.7 579.7,59.3 580.9,59.9 582.1,60.4 583.3,61.0 584.4,61.6 585.6,62.2 586.8,62.7 588.0,63.3 589.2,63.8 590.4,64.4 591.6,64.9 592.7,65.5 593.9,66.0 595.1,66.6 596.3,67.1 597.5,67.7 598.7,68.2 599.9,68.7 601.1,69.3 602.2,69.8 603.4,70.3 604.6,70.9 605.8,71.4 607.0,71.9 608.2,72.4 609.4,72.9 610.5,73.4 611.7,74.0 612.9,74.5 614.1,75.0 615.3,75.5 616.5,76.0 617.7,76.5 618.9,77.0 620.0,77.5 621.2,78.0 622.4,78.5 623.6,79.0 624.8,79.4 626.0,80.0 627.2,80.4 628.3,80.9 629.5,81.4 630.7,81.9 631.9,82.3 633.1,82.8 634.3,83.3 635.5,83.8 636.7,84.2 637.8,84.7 639.0,85.2 640.2,85.7 641.4,86.1 642.6,86.6 643.8,87.0 645.0,87.5 646.1,87.9 647.3,88.4 648.5,88.9 649.7,89.3 650.9,89.8 652.1,90.2 653.3,90.6 654.5,91.1 655.6,91.5 656.8,92.0 658.0,92.4 659.2,92.9 660.4,93.3 661.6,93.7 662.8,94.2 663.9,94.6 665.1,95.0 666.3,95.5 667.5,95.9 668.7,96.3 669.9,96.7 671.1,97.1 672.3,97.6 673.4,98.0 674.6,98.4 675.8,98.8 677.0,99.2 678.2,99.6 679.4,100.0 680.6,100.5 681.7,100.9 682.9,101.3 684.1,101.7 685.3,102.1 686.5,102.5 687.7,102.9 688.9,103.3 690.1,103.7 691.2,104.1 692.4,104.5 693.6,104.9 694.8,105.3 696.0,105.6 697.2,106.0 698.4,106.4 699.5,106.8 700.7,107.2 701.9,107.6 703.1,108.0 704.3,108.4 705.5,108.7 706.7,109.1 707.9,109.5 709.0,109.9 710.2,110.2 711.4,110.6 712.6,111.0 713.8,111.4 715.0,111.7 716.2,112.1 717.3,112.5 718.5,112.9 719.7,113.2 720.9,113.6 722.1,113.9 723.3,114.3 724.5,114.7 725.7,115.0 726.8,115.4 728.0,115.7 729.2,116.1 730.4,116.5 731.6,116.8 732.8,117.2 734.0,117.5 735.1,117.9 736.3,118.2 737.5,118.6 738.7,118.9 739.9,119.3 741.1,119.7 742.3,120.0 743.5,120.4 744.6,120.7 745.8,121.1 747.0,121.4 748.2,121.8 749.4,122.1 750.6,122.5 751.8,122.8 752.9,123.2 754.1,123.5 755.3,123.9 756.5,124.2 757.7,124.6 758.9,124.9 760.1,125.2 761.3,125.6 762.4,125.9 763.6,126.3 764.8,126.6 766.0,127.0"/>
<line x1="606" y1="42" x2="628" y2="42" stroke="#0f62fe" stroke-width="2.2"/>
<text x="634" y="46" font-family="Arial" font-size="12">speed_mps</text>
<polyline fill="none" stroke="#24a148" stroke-width="2.2" points="54.0,266.0 55.2,265.4 56.4,264.8 57.6,264.3 58.7,263.6 59.9,263.0 61.1,262.4 62.3,261.8 63.5,261.1 64.7,260.5 65.9,259.8 67.1,259.2 68.2,258.5 69.4,257.8 70.6,257.1 71.8,256.4 73.0,255.7 74.2,255.0 75.4,254.2 76.5,253.5 77.7,252.8 78.9,252.1 80.1,251.4 81.3,250.7 82.5,250.0 83.7,249.3 84.9,248.6 86.0,247.9 87.2,247.2 88.4,246.5 89.6,245.8 90.8,245.2 92.0,244.5 93.2,243.8 94.3,243.1 95.5,242.4 96.7,241.7 97.9,241.0 99.1,240.3 100.3,239.6 101.5,238.9 102.7,238.2 103.8,237.6 105.0,236.9 106.2,236.2 107.4,235.5 108.6,234.8 109.8,234.1 111.0,233.4 112.1,232.8 113.3,232.1 114.5,231.4 115.7,230.7 116.9,230.1 118.1,229.4 119.3,228.7 120.5,228.0 121.6,227.4 122.8,226.7 124.0,226.0 125.2,225.3 126.4,224.7 127.6,224.0 128.8,223.3 129.9,222.7 131.1,222.0 132.3,221.3 133.5,220.7 134.7,220.0 135.9,219.3 137.1,218.7 138.3,218.0 139.4,217.4 140.6,216.7 141.8,216.1 143.0,215.4 144.2,214.7 145.4,214.1 146.6,213.4 147.7,212.8 148.9,212.1 150.1,211.5 151.3,210.8 152.5,210.2 153.7,209.5 154.9,208.9 156.1,208.3 157.2,207.6 158.4,207.0 159.6,206.3 160.8,205.7 162.0,205.1 163.2,204.4 164.4,203.8 165.5,203.2 166.7,202.5 167.9,201.9 169.1,201.3 170.3,200.6 171.5,200.0 172.7,199.4 173.9,198.8 175.0,198.1 176.2,197.5 177.4,196.9 178.6,196.3 179.8,195.7 181.0,195.1 182.2,194.5 183.3,193.8 184.5,193.2 185.7,192.6 186.9,192.0 188.1,191.4 189.3,190.8 190.5,190.2 191.7,189.6 192.8,189.0 194.0,188.4 195.2,187.8 196.4,187.2 197.6,186.6 198.8,186.0 200.0,185.4 201.1,184.9 202.3,184.3 203.5,183.7 204.7,183.1 205.9,182.5 207.1,181.9 208.3,181.3 209.5,180.8 210.6,180.2 211.8,179.6 213.0,179.0 214.2,178.5 215.4,177.9 216.6,177.3 217.8,176.7 218.9,176.2 220.1,175.6 221.3,175.0 222.5,174.5 223.7,173.9 224.9,173.3 226.1,172.8 227.3,172.2 228.4,171.7 229.6,171.1 230.8,170.5 232.0,170.0 233.2,169.4 234.4,168.9 235.6,168.3 236.7,167.8 237.9,167.2 239.1,166.7 240.3,166.1 241.5,165.6 242.7,165.0 243.9,164.5 245.1,163.9 246.2,163.4 247.4,162.8 248.6,162.3 249.8,161.7 251.0,161.2 252.2,160.7 253.4,160.1 254.5,159.6 255.7,159.1 256.9,158.5 258.1,158.0 259.3,157.4 260.5,156.9 261.7,156.4 262.9,155.8 264.0,155.3 265.2,154.8 266.4,154.3 267.6,153.7 268.8,153.2 270.0,152.7 271.2,152.1 272.3,151.6 273.5,151.1 274.7,150.6 275.9,150.0 277.1,149.5 278.3,149.0 279.5,148.5 280.7,148.0 281.8,147.4 283.0,146.9 284.2,146.4 285.4,145.9 286.6,145.4 287.8,144.8 289.0,144.3 290.1,143.8 291.3,143.3 292.5,142.8 293.7,142.3 294.9,141.8 296.1,141.3 297.3,140.8 298.5,140.2 299.6,139.7 300.8,139.2 302.0,138.7 303.2,138.2 304.4,137.6 305.6,137.1 306.8,136.6 307.9,136.1 309.1,135.6 310.3,135.1 311.5,134.6 312.7,134.1 313.9,133.6 315.1,133.1 316.3,132.6 317.4,132.2 318.6,131.7 319.8,131.2 321.0,130.7 322.2,130.3 323.4,129.8 324.6,129.3 325.7,128.8 326.9,128.4 328.1,127.9 329.3,127.4 330.5,127.0 331.7,126.5 332.9,126.0 334.1,125.6 335.2,125.1 336.4,124.7 337.6,124.2 338.8,123.7 340.0,123.3 341.2,122.8 342.4,122.3 343.5,121.9 344.7,121.4 345.9,121.0 347.1,120.5 348.3,120.1 349.5,119.6 350.7,119.1 351.9,118.7 353.0,118.2 354.2,117.8 355.4,117.3 356.6,116.8 357.8,116.4 359.0,115.9 360.2,115.5 361.3,115.0 362.5,114.6 363.7,114.1 364.9,113.7 366.1,113.2 367.3,112.8 368.5,112.3 369.7,111.9 370.8,111.4 372.0,111.0 373.2,110.5 374.4,110.1 375.6,109.7 376.8,109.2 378.0,108.8 379.1,108.3 380.3,107.9 381.5,107.5 382.7,107.0 383.9,106.6 385.1,106.2 386.3,105.8 387.5,105.3 388.6,104.9 389.8,104.5 391.0,104.0 392.2,103.6 393.4,103.2 394.6,102.8 395.8,102.4 396.9,101.9 398.1,101.5 399.3,101.1 400.5,100.7 401.7,100.3 402.9,99.9 404.1,99.5 405.3,99.1 406.4,98.6 407.6,98.3 408.8,97.8 410.0,97.4 411.2,97.0 412.4,96.7 413.6,96.2 414.7,95.9 415.9,95.4 417.1,95.1 418.3,94.7 419.5,94.3 420.7,93.9 421.9,93.5 423.1,93.1 424.2,92.7 425.4,92.3 426.6,91.9 427.8,91.5 429.0,91.1 430.2,90.7 431.4,90.4 432.5,90.0 433.7,89.6 434.9,89.2 436.1,88.8 437.3,88.4 438.5,88.0 439.7,87.7 440.9,87.3 442.0,86.9 443.2,86.5 444.4,86.1 445.6,85.8 446.8,85.4 448.0,85.0 449.2,84.6 450.3,84.3 451.5,83.9 452.7,83.6 453.9,83.2 455.1,82.8 456.3,82.4 457.5,82.1 458.7,81.7 459.8,81.4 461.0,81.0 462.2,80.7 463.4,80.3 464.6,80.0 465.8,79.6 467.0,79.2 468.1,78.9 469.3,78.6 470.5,78.2 471.7,77.9 472.9,77.5 474.1,77.2 475.3,76.8 476.5,76.5 477.6,76.1 478.8,75.8 480.0,75.5 481.2,75.1 482.4,74.8 483.6,74.5 484.8,74.1 485.9,73.8 487.1,73.5 488.3,73.2 489.5,72.8 490.7,72.5 491.9,72.2 493.1,71.9 494.3,71.5 495.4,71.2 496.6,70.9 497.8,70.6 499.0,70.3 500.2,70.0 501.4,69.6 502.6,69.3 503.7,69.0 504.9,68.7 506.1,68.4 507.3,68.1 508.5,67.8 509.7,67.5 510.9,67.2 512.1,66.9 513.2,66.6 514.4,66.3 515.6,66.0 516.8,65.7 518.0,65.4 519.2,65.1 520.4,64.8 521.5,64.6 522.7,64.3 523.9,64.0 525.1,63.7 526.3,63.4 527.5,63.1 528.7,62.9 529.9,62.6 531.0,62.3 532.2,62.0 533.4,61.8 534.6,61.5 535.8,61.2 537.0,60.9 538.2,60.7 539.3,60.4 540.5,60.1 541.7,59.8 542.9,59.6 544.1,59.3 545.3,59.1 546.5,58.8 547.7,58.6 548.8,58.3 550.0,58.0 551.2,57.8 552.4,57.5 553.6,57.3 554.8,57.0 556.0,56.8 557.1,56.5 558.3,56.3 559.5,56.0 560.7,55.8 561.9,55.6 563.1,55.3 564.3,55.1 565.5,54.8 566.6,54.6 567.8,54.3 569.0,54.1 570.2,54.7 571.4,55.3 572.6,55.9 573.8,56.5 574.9,57.1 576.1,57.7 577.3,58.2 578.5,58.8 579.7,59.4 580.9,60.0 582.1,60.5 583.3,61.1 584.4,61.7 585.6,62.3 586.8,62.8 588.0,63.4 589.2,63.9 590.4,64.5 591.6,65.0 592.7,65.6 593.9,66.1 595.1,66.7 596.3,67.2 597.5,67.8 598.7,68.3 599.9,68.9 601.1,69.4 602.2,69.9 603.4,70.4 604.6,71.0 605.8,71.5 607.0,72.0 608.2,72.5 609.4,73.1 610.5,73.5 611.7,74.1 612.9,74.6 614.1,75.1 615.3,75.6 616.5,76.1 617.7,76.6 618.9,77.1 620.0,77.6 621.2,78.1 622.4,78.6 623.6,79.1 624.8,79.6 626.0,80.1 627.2,80.5 628.3,81.0 629.5,81.5 630.7,82.0 631.9,82.5 633.1,83.0 634.3,83.4 635.5,83.9 636.7,84.4 637.8,84.8 639.0,85.3 640.2,85.8 641.4,86.2 642.6,86.7 643.8,87.1 645.0,87.6 646.1,88.1 647.3,88.5 648.5,89.0 649.7,89.4 650.9,89.9 652.1,90.3 653.3,90.8 654.5,91.2 655.6,91.6 656.8,92.1 658.0,92.5 659.2,93.0 660.4,93.4 661.6,93.8 662.8,94.3 663.9,94.7 665.1,95.1 666.3,95.6 667.5,96.0 668.7,96.4 669.9,96.8 671.1,97.3 672.3,97.7 673.4,98.1 674.6,98.5 675.8,98.9 677.0,99.3 678.2,99.8 679.4,100.2 680.6,100.6 681.7,101.0 682.9,101.4 684.1,101.8 685.3,102.2 686.5,102.6 687.7,103.0 688.9,103.4 690.1,103.8 691.2,104.2 692.4,104.6 693.6,105.0 694.8,105.4 696.0,105.8 697.2,106.2 698.4,106.5 699.5,106.9 700.7,107.3 701.9,107.7 703.1,108.1 704.3,108.5 705.5,108.8 706.7,109.2 707.9,109.6 709.0,110.0 710.2,110.4 711.4,110.7 712.6,111.1 713.8,111.5 715.0,111.9 716.2,112.2 717.3,112.6 718.5,113.0 719.7,113.3 720.9,113.7 722.1,114.1 723.3,114.4 724.5,114.8 725.7,115.1 726.8,115.5 728.0,115.9 729.2,116.2 730.4,116.6 731.6,116.9 732.8,117.3 734.0,117.6 735.1,118.0 736.3,118.4 737.5,118.7 738.7,119.1 739.9,119.4 741.1,119.8 742.3,120.1 743.5,120.5 744.6,120.8 745.8,121.2 747.0,121.6 748.2,121.9 749.4,122.3 750.6,122.6 751.8,123.0 752.9,123.3 754.1,123.6 755.3,124.0 756.5,124.3 757.7,124.7 758.9,125.0 760.1,125.4 761.3,125.7 762.4,126.0 763.6,126.4 764.8,126.7 766.0,127.1"/>
<line x1="606" y1="60" x2="628" y2="60" stroke="#24a148" stroke-width="2.2"/>
<text x="634" y="64" font-family="Arial" font-size="12">airspeed_mps</text>
</svg>