<svg xmlns="http://www.w3.org/2000/svg" width="820" height="320" viewBox="0 0 820 320">
<rect width="100%" height="100%" fill="#ffffff"/>
<text x="54" y="28" font-family="Arial" font-size="18" font-weight="700">Load Factor</text>
<line x1="54" y1="266" x2="766" y2="266" stroke="#1f2933"/>
<line x1="54" y1="54" x2="54" y2="266" stroke="#1f2933"/>
<text x="54" y="306" font-family="Arial" font-size="12">time (s)</text>
<text x="596" y="306" font-family="Arial" font-size="12">g</text>
<text x="58" y="68" font-family="Arial" font-size="11">2.31</text>
<text x="58" y="260" font-family="Arial" font-size="11">0.92</text>
<polyline fill="none" stroke="#0f62fe" stroke-width="2.2" points="54.0,140.1 55.2,135.8 56.4,131.4 57.6,126.9 58.7,122.3 59.9,117.7 61.1,112.9 62.3,108.2 63.5,103.4 64.7,98.5 65.9,93.7 67.1,88.9 68.2,84.1 69.4,79.2 70.6,77.7 71.8,77.8 73.0,78.0 74.2,78.1 75.4,78.3 76.5,78.4 77.7,78.5 78.9,78.6 80.1,78.8 81.3,78.9 82.5,79.0 83.7,79.1 84.9,79.2 86.0,79.3 87.2,79.4 88.4,79.5 89.6,79.6 90.8,79.7 92.0,79.8 93.2,79.9 94.3,80.0 95.5,80.1 96.7,80.2 97.9,80.3 99.1,80.3 100.3,80.4 101.5,80.5 102.7,80.6 103.8,80.6 105.0,80.7 106.2,80.8 107.4,80.8 108.6,80.9 109.8,81.0 111.0,81.0 112.1,81.1 113.3,81.1 114.5,81.2 115.7,81.2 116.9,81.3 118.1,81.3 119.3,81.4 120.5,81.4 121.6,81.4 122.8,81.5 124.0,81.5 125.2,81.5 126.4,81.6 127.6,81.6 128.8,81.6 129.9,81.6 131.1,81.7 132.3,81.7 133.5,81.7 134.7,81.7 135.9,81.8 137.1,81.8 138.3,81.8 139.4,81.8 140.6,81.8 141.8,81.8 143.0,81.8 144.2,81.8 145.4,81.9 146.6,81.9 147.7,81.9 148.9,81.9 150.1,81.9 151.3,81.9 152.5,81.8 153.7,81.8 154.9,81.7 156.1,81.6 157.2,81.5 158.4,81.4 159.6,81.3 160.8,81.2 162.0,81.0 163.2,80.9 164.4,80.8 165.5,80.6 166.7,80.4 167.9,80.3 169.1,80.1 170.3,79.9 171.5,79.8 172.7,79.6 173.9,79.4 175.0,79.2 176.2,79.0 177.4,78.8 178.6,78.7 179.8,78.5 181.0,78.3 182.2,78.1 183.3,77.9 184.5,77.7 185.7,77.5 186.9,77.4 188.1,77.2 189.3,77.0 190.5,76.8 191.7,76.7 192.8,76.5 194.0,76.3 195.2,76.2 196.4,76.0 197.6,75.9 198.8,75.7 200.0,75.6 201.1,75.4 202.3,75.3 203.5,75.2 204.7,75.0 205.9,74.9 207.1,74.8 208.3,74.7 209.5,74.6 210.6,74.5 211.8,74.4 213.0,74.4 214.2,74.3 215.4,74.2 216.6,74.2 217.8,74.1 218.9,74.1 220.1,74.1 221.3,74.1 222.5,74.0 223.7,74.0 224.9,74.0 226.1,74.0 227.3,74.1 228.4,74.1 229.6,74.1 230.8,74.2 232.0,74.2 233.2,74.3 234.4,74.4 235.6,74.5 236.7,74.5 237.9,74.6 239.1,74.8 240.3,74.9 241.5,75.0 242.7,75.1 243.9,75.3 245.1,75.4 246.2,75.6 247.4,75.8 248.6,76.0 249.8,76.1 251.0,76.3 252.2,76.6 253.4,76.8 254.5,77.0 255.7,77.2 256.9,77.5 258.1,77.7 259.3,78.0 260.5,78.2 261.7,78.5 262.9,78.8 264.0,79.1 265.2,79.4 266.4,79.7 267.6,80.0 268.8,80.3 270.0,80.7 271.2,81.0 272.3,81.4 273.5,81.7 274.7,82.1 275.9,82.3 277.1,83.1 278.3,82.6 279.5,85.0 280.7,80.6 281.8,92.0 283.0,64.8 284.2,101.3 285.4,82.5 286.6,106.5 287.8,69.9 289.0,95.2 290.1,60.5 291.3,95.6 292.5,64.7 293.7,102.6 294.9,72.6 296.1,108.7 297.3,79.8 298.5,114.1 299.6,86.3 300.8,117.1 302.0,87.0 303.2,116.5 304.4,83.0 305.6,114.2 306.8,79.1 307.9,112.0 309.1,75.3 310.3,109.8 311.5,71.8 312.7,107.7 313.9,68.3 315.1,105.7 316.3,65.1 317.4,103.8 318.6,62.0 319.8,102.0 321.0,59.1 322.2,99.9 323.4,56.0 324.6,97.5 325.7,54.0 326.9,98.6 328.1,54.7 329.3,99.4 330.5,55.0 331.7,99.9 332.9,56.6 334.1,103.5 335.2,60.3 336.4,106.9 337.6,63.7 338.8,110.0 340.0,66.9 341.2,113.0 342.4,69.8 343.5,115.7 344.7,72.5 345.9,118.1 347.1,74.9 348.3,120.4 349.5,77.1 350.7,122.5 351.9,79.0 353.0,124.5 354.2,80.9 355.4,126.4 356.6,82.6 357.8,128.2 359.0,84.2 360.2,129.9 361.3,85.7 362.5,131.6 363.7,87.2 364.9,133.2 366.1,88.5 367.3,134.7 368.5,89.8 369.7,136.2 370.8,91.0 372.0,137.8 373.2,92.4 374.4,139.5 375.6,93.6 376.8,141.1 378.0,94.9 379.1,142.7 380.3,96.1 381.5,144.3 382.7,97.2 383.9,145.8 385.1,98.3 386.3,147.3 387.5,99.3 388.6,148.7 389.8,100.4 391.0,150.2 392.2,101.3 393.4,151.6 394.6,102.3 395.8,153.0 396.9,103.2 398.1,154.4 399.3,104.0 400.5,155.7 401.7,104.9 402.9,157.0 404.1,105.7 405.3,158.4 406.4,106.5 407.6,159.7 408.8,107.3 410.0,160.9 411.2,108.0 412.4,162.2 413.6,110.2 414.7,165.7 415.9,114.3 417.1,168.9 418.3,118.0 419.5,171.9 420.7,121.4 421.9,174.7 423.1,124.6 424.2,177.3 425.4,127.5 426.6,179.7 427.8,130.2 429.0,182.1 430.2,132.7 431.4,184.3 432.5,135.1 433.7,186.4 434.9,137.3 436.1,188.4 437.3,139.4 438.5,190.3 439.7,141.4 440.9,192.2 442.0,143.2 443.2,194.0 444.4,145.0 445.6,195.8 446.8,146.7 448.0,197.5 449.2,148.3 450.3,199.2 451.5,149.8 452.7,200.9 453.9,151.2 455.1,202.5 456.3,152.6 457.5,204.1 458.7,153.9 459.8,205.7 461.0,155.2 462.2,207.2 463.4,156.4 464.6,208.8 465.8,157.6 467.0,210.3 468.1,158.8 469.3,211.8 470.5,159.9 471.7,213.2 472.9,161.0 474.1,214.7 475.3,162.0 476.5,216.2 477.6,163.0 478.8,217.6 480.0,164.0 481.2,219.1 482.4,165.0 483.6,220.5 484.8,165.9 485.9,221.9 487.1,166.8 488.3,223.3 489.5,167.7 490.7,224.7 491.9,168.6 493.1,226.1 494.3,169.5 495.4,227.5 496.6,170.3 497.8,228.8 499.0,171.2 500.2,230.2 501.4,172.0 502.6,231.6 503.7,172.8 504.9,232.9 506.1,173.6 507.3,234.3 508.5,174.3 509.7,235.6 510.9,175.1 512.1,236.9 513.2,175.8 514.4,238.3 515.6,176.6 516.8,239.6 518.0,177.3 519.2,240.9 520.4,178.0 521.5,242.2 522.7,178.7 523.9,243.5 525.1,179.4 526.3,244.8 527.5,180.0 528.7,246.1 529.9,180.7 531.0,247.4 532.2,181.4 533.4,248.7 534.6,182.0 535.8,250.0 537.0,182.6 538.2,251.2 539.3,183.3 540.5,252.5 541.7,183.9 542.9,253.8 544.1,184.5 545.3,255.0 546.5,185.1 547.7,256.2 548.8,185.7 550.0,257.5 551.2,186.2 552.4,258.7 553.6,186.8 554.8,260.0 556.0,187.4 557.1,261.2 558.3,187.9 559.5,262.4 560.7,188.4 561.9,263.6 563.1,189.0 564.3,264.8 565.5,189.5 566.6,266.0 567.8,190.0 569.0,162.8 570.2,97.1 571.4,165.2 572.6,99.9 573.8,167.5 574.9,102.6 576.1,169.8 577.3,105.2 578.5,172.0 579.7,107.7 580.9,174.1 582.1,110.1 583.3,176.2 584.4,112.4 585.6,178.2 586.8,114.7 588.0,180.2 589.2,116.8 590.4,182.1 591.6,119.0 592.7,183.9 593.9,121.0 595.1,185.7 596.3,123.0 597.5,187.5 598.7,124.9 599.9,189.3 601.1,126.8 602.2,191.0 603.4,128.7 604.6,192.6 605.8,130.5 607.0,194.3 608.2,132.3 609.4,195.8 610.5,134.0 611.7,197.4 612.9,135.7 614.1,198.9 615.3,137.3 616.5,200.4 617.7,139.0 618.9,201.9 620.0,140.6 621.2,203.4 622.4,142.1 623.6,204.8 624.8,143.7 626.0,206.2 627.2,145.2 628.3,207.5 629.5,146.6 630.7,208.9 631.9,148.1 633.1,210.2 634.3,149.5 635.5,211.5 636.7,150.9 637.8,212.7 639.0,152.3 640.2,214.0 641.4,153.7 642.6,215.2 643.8,155.0 645.0,216.4 646.1,156.3 647.3,217.6 648.5,157.6 649.7,218.7 650.9,158.9 652.1,219.8 653.3,160.1 654.5,221.0 655.6,161.4 656.8,222.1 658.0,162.6 659.2,223.1 660.4,163.8 661.6,224.2 662.8,164.9 663.9,225.2 665.1,166.1 666.3,226.2 667.5,167.2 668.7,227.2 669.9,168.4 671.1,228.2 672.3,169.6 673.4,229.3 674.6,171.0 675.8,230.4 677.0,172.4 678.2,231.5 679.4,173.7 680.6,232.5 681.7,175.0 682.9,233.6 684.1,176.3 685.3,234.6 686.5,177.5 687.7,235.5 688.9,178.7 690.1,236.5 691.2,179.8 692.4,237.4 693.6,180.8 694.8,238.2 696.0,181.9 697.2,239.1 698.4,182.9 699.5,239.9 700.7,183.9 701.9,240.7 703.1,184.8 704.3,241.5 705.5,185.8 706.7,242.2 707.9,186.7 709.0,243.0 710.2,187.5 711.4,243.7 712.6,188.4 713.8,244.4 715.0,189.2 716.2,245.1 717.3,190.1 718.5,245.7 719.7,190.9 720.9,246.4 722.1,191.6 723.3,247.0 724.5,192.4 725.7,247.7 726.8,193.2 728.0,247.0 729.2,190.2 730.4,245.1 731.6,187.6 732.8,243.3 734.0,185.3 735.1,241.7 736.3,183.3 737.5,240.2 738.7,181.6 739.9,238.9 741.1,180.1 742.3,237.8 743.5,178.8 744.6,236.8 745.8,177.7 747.0,235.9 748.2,176.8 749.4,235.2 750.6,176.0 751.8,234.5 752.9,175.4 754.1,234.0 755.3,174.9 756.5,233.5 757.7,174.6 758.9,233.2 760.1,174.3 761.3,232.9 762.4,174.1 763.6,232.7 764.8,174.0 766.0,232.5"/>
<line x1="606" y1="42" x2="628" y2="42" stroke="#0f62fe" stroke-width="2.2"/>
<text x="634" y="46" font-family="Arial" font-size="12">load_factor_g</text>
</svg>