<svg xmlns="http://www.w3.org/2000/svg" width="820" height="320" viewBox="0 0 820 320">
<rect width="100%" height="100%" fill="#ffffff"/>
<text x="54" y="28" font-family="Arial" font-size="18" font-weight="700">Velocity Z</text>
<line x1="54" y1="266" x2="766" y2="266" stroke="#1f2933"/>
<line x1="54" y1="54" x2="54" y2="266" stroke="#1f2933"/>
<text x="54" y="306" font-family="Arial" font-size="12">time (s)</text>
<text x="596" y="306" font-family="Arial" font-size="12">vz (m/s)</text>
<text x="58" y="68" font-family="Arial" font-size="11">23.4</text>
<text x="58" y="260" font-family="Arial" font-size="11">2.16</text>
<polyline fill="none" stroke="#0f62fe" stroke-width="2.2" points="54.0,207.7 55.2,210.1 56.4,212.3 57.6,214.2 58.7,216.1 59.9,217.9 61.1,219.7 62.3,221.3 63.5,222.9 64.7,224.4 65.9,225.9 67.1,227.3 68.2,228.6 69.4,229.9 70.6,231.2 71.8,232.3 73.0,233.5 74.2,234.6 75.4,235.7 76.5,236.8 77.7,237.8 78.9,238.9 80.1,239.8 81.3,240.8 82.5,241.8 83.7,242.7 84.9,243.6 86.0,244.5 87.2,245.3 88.4,246.2 89.6,247.0 90.8,247.8 92.0,248.6 93.2,249.3 94.3,250.1 95.5,250.8 96.7,251.5 97.9,252.2 99.1,252.9 100.3,253.5 101.5,254.2 102.7,254.8 103.8,255.4 105.0,256.0 106.2,256.6 107.4,257.1 108.6,257.6 109.8,258.2 111.0,258.7 112.1,259.2 113.3,259.6 114.5,260.1 115.7,260.5 116.9,260.9 118.1,261.3 119.3,261.7 120.5,262.1 121.6,262.4 122.8,262.8 124.0,263.1 125.2,263.4 126.4,263.7 127.6,264.0 128.8,264.2 129.9,264.4 131.1,264.7 132.3,264.9 133.5,265.0 134.7,265.2 135.9,265.4 137.1,265.5 138.3,265.6 139.4,265.7 140.6,265.8 141.8,265.9 143.0,265.9 144.2,266.0 145.4,266.0 146.6,266.0 147.7,266.0 148.9,266.0 150.1,265.9 151.3,265.9 152.5,265.8 153.7,265.7 154.9,265.6 156.1,265.4 157.2,265.3 158.4,265.1 159.6,264.9 160.8,264.7 162.0,264.4 163.2,264.1 164.4,263.9 165.5,263.5 166.7,263.2 167.9,262.8 169.1,262.4 170.3,262.0 171.5,261.6 172.7,261.1 173.9,260.6 175.0,260.1 176.2,259.5 177.4,259.0 178.6,258.4 179.8,257.7 181.0,257.1 182.2,256.4 183.3,255.7 184.5,255.0 185.7,254.3 186.9,253.5 188.1,252.7 189.3,251.9 190.5,251.1 191.7,250.2 192.8,249.4 194.0,248.5 195.2,247.6 196.4,246.6 197.6,245.7 198.8,244.7 200.0,243.7 201.1,242.6 202.3,241.6 203.5,240.5 204.7,239.5 205.9,238.3 207.1,237.4 208.3,235.9 209.5,235.0 210.6,233.5 211.8,232.7 213.0,231.4 214.2,230.7 215.4,229.2 216.6,228.4 217.8,226.8 218.9,225.9 220.1,224.2 221.3,223.2 222.5,221.5 223.7,220.5 224.9,218.8 226.1,217.8 227.3,216.1 228.4,215.0 229.6,213.1 230.8,212.0 232.0,210.1 233.2,208.9 234.4,207.0 235.6,205.8 236.7,203.8 237.9,202.6 239.1,200.5 240.3,199.2 241.5,197.1 242.7,195.8 243.9,193.6 245.1,192.2 246.2,190.0 247.4,188.6 248.6,186.3 249.8,184.8 251.0,182.5 252.2,181.0 253.4,178.6 254.5,177.1 255.7,174.6 256.9,173.0 258.1,170.5 259.3,168.9 260.5,166.3 261.7,164.6 262.9,162.0 264.0,160.3 265.2,157.6 266.4,155.9 267.6,153.1 268.8,151.3 270.0,148.5 271.2,146.7 272.3,143.8 273.5,142.0 274.7,139.0 275.9,137.1 277.1,134.2 278.3,132.2 279.5,129.2 280.7,127.3 281.8,124.2 283.0,122.2 284.2,119.1 285.4,117.0 286.6,113.9 287.8,111.9 289.0,108.9 290.1,107.0 291.3,104.0 292.5,102.2 293.7,99.3 294.9,97.6 296.1,94.7 297.3,93.0 298.5,90.2 299.6,88.5 300.8,85.6 302.0,83.9 303.2,81.0 304.4,79.3 305.6,76.3 306.8,74.6 307.9,71.6 309.1,69.9 310.3,67.0 311.5,65.3 312.7,63.8 313.9,63.5 315.1,62.0 316.3,61.9 317.4,60.6 318.6,60.5 319.8,59.3 321.0,59.4 322.2,58.3 323.4,58.4 324.6,57.4 325.7,57.6 326.9,56.7 328.1,57.0 329.3,56.2 330.5,56.5 331.7,55.8 332.9,56.1 334.1,55.2 335.2,55.5 336.4,54.7 337.6,54.9 338.8,54.1 340.0,54.6 341.2,54.0 342.4,54.6 343.5,54.2 344.7,55.0 345.9,54.8 347.1,55.7 348.3,55.6 349.5,56.5 350.7,56.5 351.9,57.4 353.0,57.2 354.2,57.9 355.4,57.6 356.6,58.3 357.8,58.0 359.0,58.8 360.2,58.5 361.3,59.4 362.5,59.3 363.7,60.3 364.9,60.4 366.1,61.5 367.3,61.6 368.5,62.6 369.7,62.7 370.8,63.7 372.0,63.7 373.2,64.7 374.4,64.6 375.6,65.5 376.8,65.5 378.0,66.5 379.1,66.5 380.3,67.5 381.5,67.6 382.7,68.7 383.9,68.8 385.1,69.8 386.3,69.8 387.5,70.9 388.6,70.9 389.8,72.0 391.0,72.1 392.2,73.2 393.4,73.3 394.6,74.4 395.8,74.5 396.9,75.6 398.1,75.8 399.3,76.8 400.5,77.0 401.7,78.1 402.9,78.3 404.1,79.4 405.3,79.6 406.4,80.7 407.6,80.9 408.8,82.0 410.0,82.2 411.2,83.4 412.4,83.6 413.6,84.7 414.7,85.0 415.9,86.1 417.1,86.4 418.3,87.5 419.5,87.8 420.7,89.0 421.9,89.3 423.1,90.4 424.2,90.7 425.4,91.9 426.6,92.2 427.8,93.4 429.0,93.8 430.2,94.9 431.4,95.3 432.5,96.5 433.7,96.9 434.9,98.1 436.1,98.6 437.3,99.9 438.5,100.4 439.7,101.6 440.9,102.1 442.0,103.4 443.2,104.0 444.4,105.3 445.6,105.9 446.8,107.2 448.0,107.8 449.2,109.1 450.3,109.7 451.5,111.0 452.7,111.6 453.9,112.9 455.1,113.5 456.3,114.9 457.5,115.5 458.7,116.9 459.8,117.5 461.0,118.8 462.2,119.4 463.4,120.8 464.6,121.4 465.8,122.8 467.0,123.5 468.1,124.8 469.3,125.5 470.5,126.9 471.7,126.5 472.9,126.9 474.1,126.6 475.3,127.0 476.5,126.7 477.6,127.1 478.8,126.7 480.0,127.0 481.2,126.6 482.4,127.0 483.6,126.5 484.8,126.9 485.9,126.4 487.1,126.8 488.3,126.3 489.5,126.6 490.7,126.0 491.9,126.4 493.1,125.8 494.3,126.1 495.4,125.5 496.6,125.8 497.8,125.2 499.0,125.5 500.2,124.8 501.4,125.1 502.6,124.4 503.7,124.7 504.9,124.0 506.1,124.2 507.3,123.5 508.5,123.7 509.7,122.9 510.9,123.1 512.1,122.3 513.2,122.5 514.4,121.7 515.6,121.9 516.8,121.0 518.0,121.2 519.2,120.3 520.4,120.5 521.5,119.5 522.7,119.7 523.9,118.7 525.1,118.9 526.3,117.9 527.5,118.0 528.7,117.0 529.9,117.1 531.0,116.1 532.2,116.2 533.4,115.2 534.6,115.3 535.8,114.2 537.0,114.3 538.2,113.2 539.3,113.3 540.5,112.3 541.7,112.3 542.9,111.2 544.1,111.3 545.3,110.2 546.5,110.3 547.7,109.2 548.8,109.3 550.0,108.1 551.2,108.2 552.4,107.1 553.6,107.2 554.8,106.0 556.0,106.1 557.1,104.9 558.3,105.0 559.5,103.9 560.7,104.0 561.9,102.8 563.1,102.9 564.3,101.7 565.5,101.8 566.6,100.6 567.8,100.7 569.0,99.5 570.2,100.5 571.4,100.2 572.6,101.2 573.8,101.0 574.9,102.0 576.1,101.8 577.3,102.8 578.5,102.6 579.7,103.6 580.9,103.4 582.1,104.4 583.3,104.2 584.4,105.3 585.6,105.1 586.8,106.1 588.0,106.0 589.2,107.0 590.4,106.9 591.6,107.9 592.7,107.8 593.9,108.8 595.1,108.7 596.3,109.8 597.5,109.6 598.7,110.7 599.9,110.6 601.1,111.6 602.2,111.5 603.4,112.6 604.6,112.5 605.8,113.5 607.0,113.4 608.2,114.5 609.4,114.4 610.5,115.5 611.7,115.4 612.9,116.4 614.1,116.4 615.3,117.4 616.5,117.3 617.7,118.4 618.9,118.3 620.0,119.4 621.2,119.3 622.4,120.3 623.6,120.3 624.8,121.3 626.0,121.3 627.2,122.3 628.3,122.3 629.5,123.3 630.7,123.2 631.9,124.3 633.1,124.2 634.3,125.3 635.5,125.2 636.7,126.2 637.8,126.2 639.0,127.2 640.2,127.2 641.4,128.2 642.6,128.2 643.8,129.2 645.0,129.2 646.1,130.2 647.3,130.1 648.5,131.1 649.7,131.1 650.9,132.1 652.1,132.1 653.3,133.1 654.5,133.1 655.6,134.1 656.8,134.1 658.0,135.1 659.2,135.1 660.4,136.1 661.6,136.2 662.8,137.3 663.9,137.3 665.1,138.4 666.3,138.5 667.5,139.6 668.7,139.7 669.9,140.7 671.1,140.9 672.3,141.9 673.4,142.1 674.6,143.2 675.8,143.3 677.0,144.4 678.2,144.6 679.4,145.7 680.6,145.8 681.7,146.9 682.9,147.1 684.1,148.3 685.3,148.5 686.5,149.6 687.7,149.8 688.9,150.9 690.1,151.1 691.2,152.3 692.4,152.5 693.6,153.7 694.8,153.9 696.0,155.1 697.2,155.3 698.4,156.5 699.5,156.8 700.7,157.9 701.9,158.2 703.1,159.4 704.3,159.7 705.5,160.8 706.7,161.2 707.9,162.3 709.0,162.7 710.2,163.8 711.4,164.2 712.6,165.4 713.8,165.7 715.0,166.9 716.2,167.3 717.3,168.5 718.5,168.9 719.7,170.1 720.9,170.5 722.1,171.7 723.3,172.1 724.5,173.3 725.7,173.7 726.8,174.9 728.0,175.3 729.2,176.5 730.4,177.0 731.6,178.2 732.8,178.7 734.0,179.9 735.1,180.3 736.3,181.6 737.5,182.0 738.7,183.3 739.9,183.8 741.1,185.0 742.3,185.5 743.5,186.7 744.6,187.2 745.8,188.5 747.0,189.0 748.2,190.3 749.4,190.8 750.6,192.0 751.8,192.6 752.9,193.8 754.1,194.4 755.3,195.7 756.5,196.2 757.7,197.5 758.9,198.0 760.1,199.3 761.3,199.9 762.4,201.2 763.6,201.8 764.8,203.0 766.0,203.6"/>
<line x1="606" y1="42" x2="628" y2="42" stroke="#0f62fe" stroke-width="2.2"/>
<text x="634" y="46" font-family="Arial" font-size="12">vz_mps</text>
</svg>