<svg xmlns="http://www.w3.org/2000/svg" width="820" height="320" viewBox="0 0 820 320">
<rect width="100%" height="100%" fill="#ffffff"/>
<text x="54" y="28" font-family="Arial" font-size="18" font-weight="700">Alpha/Beta</text>
<line x1="54" y1="266" x2="766" y2="266" stroke="#1f2933"/>
<line x1="54" y1="54" x2="54" y2="266" stroke="#1f2933"/>
<text x="54" y="306" font-family="Arial" font-size="12">time (s)</text>
<text x="596" y="306" font-family="Arial" font-size="12">angle (deg)</text>
<text x="58" y="68" font-family="Arial" font-size="11">4.8</text>
<text x="58" y="260" font-family="Arial" font-size="11">0</text>
<polyline fill="none" stroke="#0f62fe" stroke-width="2.2" points="54.0,238.5 55.2,218.5 56.4,197.0 57.6,181.5 58.7,170.4 59.9,160.2 61.1,149.6 62.3,139.8 63.5,131.3 64.7,124.0 65.9,117.4 67.1,111.3 68.2,105.8 69.4,100.9 70.6,96.5 71.8,92.5 73.0,88.8 74.2,85.6 75.4,82.6 76.5,79.9 77.7,77.5 78.9,75.2 80.1,73.2 81.3,71.4 82.5,69.7 83.7,68.2 84.9,66.8 86.0,65.5 87.2,64.4 88.4,63.3 89.6,62.4 90.8,61.5 92.0,60.7 93.2,59.9 94.3,59.3 95.5,58.7 96.7,58.1 97.9,57.6 99.1,57.1 100.3,56.7 101.5,56.4 102.7,56.0 103.8,55.7 105.0,55.5 106.2,55.2 107.4,55.0 108.6,54.9 109.8,54.7 111.0,54.6 112.1,54.5 113.3,54.4 114.5,54.4 115.7,54.3 116.9,54.3 118.1,54.4 119.3,54.4 120.5,54.4 121.6,54.5 122.8,54.6 124.0,54.7 125.2,54.8 126.4,54.9 127.6,55.1 128.8,55.2 129.9,55.4 131.1,55.6 132.3,55.8 133.5,56.0 134.7,56.3 135.9,56.5 137.1,56.8 138.3,57.1 139.4,57.3 140.6,57.6 141.8,57.9 143.0,58.3 144.2,58.6 145.4,58.9 146.6,59.3 147.7,59.6 148.9,60.0 150.1,60.4 151.3,60.6 152.5,60.8 153.7,60.9 154.9,61.0 156.1,61.0 157.2,61.0 158.4,61.0 159.6,60.9 160.8,60.9 162.0,60.8 163.2,60.7 164.4,60.6 165.5,60.5 166.7,60.4 167.9,60.4 169.1,60.3 170.3,60.2 171.5,60.1 172.7,60.1 173.9,60.0 175.0,60.0 176.2,60.0 177.4,60.0 178.6,60.0 179.8,60.0 181.0,60.1 182.2,60.2 183.3,60.2 184.5,60.3 185.7,60.4 186.9,60.6 188.1,60.7 189.3,60.9 190.5,61.1 191.7,61.3 192.8,61.5 194.0,61.8 195.2,62.0 196.4,62.4 197.6,62.5 198.8,63.1 200.0,63.0 201.1,64.2 202.3,63.1 203.5,66.2 204.7,61.6 205.9,71.4 207.1,54.0 208.3,71.6 209.5,59.9 210.6,80.4 211.8,67.4 213.0,84.6 214.2,67.2 215.4,81.5 216.6,62.7 217.8,78.0 218.9,60.9 220.1,78.8 221.3,63.1 222.5,81.7 223.7,65.2 224.9,82.8 226.1,64.8 227.3,81.8 228.4,63.5 229.6,81.3 230.8,63.4 232.0,82.1 233.2,64.2 234.4,83.1 235.6,64.7 236.7,83.4 237.9,64.4 239.1,83.4 240.3,64.2 241.5,83.6 242.7,64.4 243.9,84.2 245.1,64.7 246.2,84.6 247.4,64.7 248.6,84.9 249.8,64.7 251.0,85.1 252.2,64.7 253.4,85.5 254.5,64.9 255.7,85.9 256.9,64.9 258.1,86.2 259.3,65.0 260.5,86.5 261.7,65.0 262.9,86.9 264.0,65.1 265.2,87.2 266.4,65.1 267.6,87.6 268.8,65.2 270.0,87.9 271.2,65.4 272.3,88.2 273.5,65.8 274.7,88.6 275.9,66.2 277.1,89.0 278.3,66.7 279.5,89.5 280.7,67.2 281.8,90.1 283.0,67.8 284.2,90.8 285.4,70.5 286.6,95.4 287.8,75.0 289.0,99.8 290.1,79.3 291.3,103.9 292.5,83.3 293.7,107.8 294.9,87.0 296.1,110.6 297.3,89.0 298.5,112.4 299.6,90.4 300.8,113.8 302.0,91.9 303.2,115.3 304.4,93.4 305.6,116.7 306.8,94.8 307.9,118.2 309.1,98.1 310.3,123.2 311.5,102.9 312.7,127.3 313.9,106.3 315.1,130.5 316.3,109.3 317.4,133.3 318.6,112.1 319.8,135.9 321.0,114.5 322.2,138.3 323.4,116.7 324.6,140.4 325.7,118.7 326.9,142.2 328.1,120.5 329.3,143.4 330.5,121.1 331.7,143.0 332.9,119.8 334.1,141.8 335.2,118.6 336.4,140.7 337.6,121.3 338.8,147.0 340.0,127.4 341.2,152.8 342.4,132.9 343.5,158.1 344.7,138.0 345.9,162.8 347.1,142.4 348.3,164.5 349.5,141.3 350.7,161.6 351.9,136.8 353.0,157.3 354.2,132.7 355.4,153.2 356.6,131.6 357.8,155.1 359.0,134.9 360.2,159.7 361.3,139.2 362.5,163.9 363.7,143.2 364.9,166.6 366.1,144.8 367.3,166.2 368.5,142.6 369.7,163.4 370.8,139.2 372.0,160.2 373.2,136.8 374.4,158.4 375.6,136.6 376.8,159.8 378.0,138.6 379.1,162.2 380.3,140.6 381.5,162.7 382.7,139.6 383.9,160.8 385.1,138.2 386.3,160.1 387.5,138.6 388.6,160.8 389.8,139.5 391.0,161.1 392.2,139.4 393.4,160.5 394.6,138.9 395.8,160.1 396.9,138.8 398.1,160.1 399.3,139.1 400.5,160.2 401.7,139.2 402.9,160.0 404.1,139.0 405.3,159.7 406.4,139.0 407.6,159.6 408.8,139.1 410.0,159.5 411.2,139.1 412.4,159.4 413.6,139.1 414.7,159.2 415.9,139.0 417.1,159.1 418.3,139.0 419.5,159.0 420.7,139.1 421.9,158.9 423.1,139.1 424.2,158.7 425.4,139.3 426.6,159.2 427.8,140.0 429.0,159.5 430.2,140.0 431.4,159.1 432.5,140.7 433.7,161.3 434.9,143.3 436.1,162.8 437.3,143.5 438.5,161.7 439.7,143.4 440.9,163.6 442.0,146.1 443.2,165.6 444.4,146.9 445.6,164.9 446.8,145.6 448.0,163.4 449.2,144.7 450.3,163.1 451.5,145.2 452.7,163.8 453.9,145.9 455.1,164.1 456.3,145.8 457.5,163.6 458.7,145.4 459.8,163.1 461.0,145.2 462.2,163.1 463.4,145.5 464.6,163.2 465.8,145.6 467.0,163.2 468.1,145.5 469.3,162.9 470.5,145.4 471.7,163.2 472.9,145.9 474.1,163.8 475.3,146.0 476.5,163.9 477.6,145.7 478.8,164.0 480.0,145.6 481.2,164.2 482.4,145.7 483.6,164.7 484.8,145.8 485.9,165.0 487.1,145.8 488.3,165.2 489.5,145.7 490.7,165.4 491.9,145.7 493.1,165.7 494.3,145.7 495.4,166.0 496.6,145.7 497.8,166.3 499.0,145.7 500.2,166.5 501.4,145.7 502.6,166.8 503.7,145.7 504.9,167.1 506.1,145.7 507.3,167.3 508.5,145.6 509.7,167.6 510.9,145.6 512.1,167.9 513.2,145.6 514.4,168.1 515.6,145.6 516.8,168.2 518.0,145.7 519.2,168.3 520.4,145.8 521.5,168.5 522.7,146.1 523.9,168.8 525.1,146.3 526.3,169.1 527.5,146.7 528.7,169.5 529.9,147.1 531.0,169.9 532.2,147.5 533.4,170.4 534.6,148.0 535.8,170.9 537.0,148.5 538.2,171.4 539.3,149.0 540.5,171.9 541.7,149.6 542.9,172.5 544.1,150.2 545.3,173.1 546.5,150.8 547.7,173.8 548.8,151.4 550.0,174.4 551.2,152.1 552.4,175.0 553.6,152.7 554.8,175.7 556.0,153.4 557.1,176.4 558.3,154.1 559.5,177.1 560.7,154.7 561.9,177.8 563.1,155.4 564.3,178.5 565.5,156.1 566.6,179.1 567.8,156.8 569.0,179.8 570.2,157.2 571.4,179.9 572.6,157.2 573.8,179.8 574.9,157.2 576.1,179.8 577.3,157.1 578.5,179.7 579.7,157.0 580.9,179.5 582.1,156.8 583.3,179.4 584.4,156.6 585.6,179.2 586.8,156.4 588.0,178.9 589.2,156.2 590.4,178.7 591.6,155.9 592.7,178.4 593.9,155.6 595.1,178.1 596.3,155.3 597.5,177.8 598.7,155.0 599.9,177.4 601.1,154.6 602.2,177.1 603.4,154.3 604.6,176.7 605.8,153.9 607.0,176.3 608.2,153.5 609.4,175.9 610.5,153.1 611.7,175.5 612.9,152.7 614.1,175.0 615.3,152.2 616.5,174.6 617.7,151.8 618.9,174.2 620.0,151.3 621.2,173.7 622.4,150.9 623.6,173.2 624.8,150.4 626.0,172.8 627.2,149.9 628.3,172.3 629.5,149.4 630.7,171.8 631.9,148.9 633.1,171.3 634.3,148.4 635.5,170.8 636.7,147.9 637.8,170.3 639.0,147.4 640.2,169.8 641.4,146.9 642.6,169.2 643.8,146.4 645.0,168.7 646.1,145.9 647.3,168.2 648.5,145.3 649.7,167.6 650.9,144.8 652.1,167.1 653.3,144.3 654.5,166.5 655.6,144.0 656.8,166.7 658.0,144.5 659.2,167.5 660.4,145.4 661.6,168.2 662.8,145.8 663.9,167.9 665.1,145.4 666.3,167.3 667.5,145.1 668.7,167.2 669.9,145.4 671.1,167.3 672.3,145.5 673.4,167.2 674.6,145.4 675.8,166.9 677.0,145.3 678.2,166.7 679.4,145.4 680.6,166.7 681.7,145.5 682.9,166.6 684.1,145.4 685.3,166.4 686.5,145.4 687.7,166.3 688.9,145.4 690.1,166.2 691.2,145.4 692.4,166.1 693.6,145.4 694.8,165.9 696.0,145.4 697.2,165.8 698.4,145.4 699.5,165.7 700.7,145.4 701.9,165.5 703.1,145.4 704.3,165.4 705.5,145.4 706.7,165.3 707.9,145.4 709.0,165.2 710.2,145.4 711.4,165.1 712.6,145.4 713.8,164.9 715.0,145.4 716.2,164.8 717.3,145.4 718.5,164.7 719.7,145.4 720.9,164.6 722.1,145.4 723.3,164.5 724.5,145.4 725.7,164.3 726.8,145.4 728.0,164.2 729.2,145.4 730.4,164.1 731.6,145.4 732.8,164.0 734.0,145.4 735.1,163.9 736.3,145.4 737.5,163.8 738.7,145.4 739.9,163.7 741.1,145.4 742.3,163.6 743.5,145.4 744.6,163.4 745.8,145.4 747.0,163.3 748.2,145.4 749.4,163.2 750.6,145.4 751.8,163.1 752.9,145.4 754.1,163.0 755.3,145.4 756.5,162.9 757.7,145.4 758.9,162.8 760.1,145.4 761.3,162.7 762.4,145.3 763.6,162.6 764.8,145.3 766.0,162.5"/>
<line x1="606" y1="42" x2="628" y2="42" stroke="#0f62fe" stroke-width="2.2"/>
<text x="634" y="46" font-family="Arial" font-size="12">alpha_deg</text>
<polyline fill="none" stroke="#24a148" stroke-width="2.2" points="54.0,266.0 55.2,266.0 56.4,266.0 57.6,266.0 58.7,266.0 59.9,266.0 61.1,266.0 62.3,266.0 63.5,266.0 64.7,266.0 65.9,266.0 67.1,266.0 68.2,266.0 69.4,266.0 70.6,266.0 71.8,266.0 73.0,266.0 74.2,266.0 75.4,266.0 76.5,266.0 77.7,266.0 78.9,266.0 80.1,266.0 81.3,266.0 82.5,266.0 83.7,266.0 84.9,266.0 86.0,266.0 87.2,266.0 88.4,266.0 89.6,266.0 90.8,266.0 92.0,266.0 93.2,266.0 94.3,266.0 95.5,266.0 96.7,266.0 97.9,266.0 99.1,266.0 100.3,266.0 101.5,266.0 102.7,266.0 103.8,266.0 105.0,266.0 106.2,266.0 107.4,266.0 108.6,266.0 109.8,266.0 111.0,266.0 112.1,266.0 113.3,266.0 114.5,266.0 115.7,266.0 116.9,266.0 118.1,266.0 119.3,266.0 120.5,266.0 121.6,266.0 122.8,266.0 124.0,266.0 125.2,266.0 126.4,266.0 127.6,266.0 128.8,266.0 129.9,266.0 131.1,266.0 132.3,266.0 133.5,266.0 134.7,266.0 135.9,266.0 137.1,266.0 138.3,266.0 139.4,266.0 140.6,266.0 141.8,266.0 143.0,266.0 144.2,266.0 145.4,266.0 146.6,266.0 147.7,266.0 148.9,266.0 150.1,266.0 151.3,266.0 152.5,266.0 153.7,266.0 154.9,266.0 156.1,266.0 157.2,266.0 158.4,266.0 159.6,266.0 160.8,266.0 162.0,266.0 163.2,266.0 164.4,266.0 165.5,266.0 166.7,266.0 167.9,266.0 169.1,266.0 170.3,266.0 171.5,266.0 172.7,266.0 173.9,266.0 175.0,266.0 176.2,266.0 177.4,266.0 178.6,266.0 179.8,266.0 181.0,266.0 182.2,266.0 183.3,266.0 184.5,266.0 185.7,266.0 186.9,266.0 188.1,266.0 189.3,266.0 190.5,266.0 191.7,266.0 192.8,266.0 194.0,266.0 195.2,266.0 196.4,266.0 197.6,266.0 198.8,266.0 200.0,266.0 201.1,266.0 202.3,266.0 203.5,266.0 204.7,266.0 205.9,266.0 207.1,266.0 208.3,266.0 209.5,266.0 210.6,266.0 211.8,266.0 213.0,266.0 214.2,266.0 215.4,266.0 216.6,266.0 217.8,266.0 218.9,266.0 220.1,266.0 221.3,266.0 222.5,266.0 223.7,266.0 224.9,266.0 226.1,266.0 227.3,266.0 228.4,266.0 229.6,266.0 230.8,266.0 232.0,266.0 233.2,266.0 234.4,266.0 235.6,266.0 236.7,266.0 237.9,266.0 239.1,266.0 240.3,266.0 241.5,266.0 242.7,266.0 243.9,266.0 245.1,266.0 246.2,266.0 247.4,266.0 248.6,266.0 249.8,266.0 251.0,266.0 252.2,266.0 253.4,266.0 254.5,266.0 255.7,266.0 256.9,266.0 258.1,266.0 259.3,266.0 260.5,266.0 261.7,266.0 262.9,266.0 264.0,266.0 265.2,266.0 266.4,266.0 267.6,266.0 268.8,266.0 270.0,266.0 271.2,266.0 272.3,266.0 273.5,266.0 274.7,266.0 275.9,266.0 277.1,266.0 278.3,266.0 279.5,266.0 280.7,266.0 281.8,266.0 283.0,266.0 284.2,266.0 285.4,266.0 286.6,266.0 287.8,266.0 289.0,266.0 290.1,266.0 291.3,266.0 292.5,266.0 293.7,266.0 294.9,266.0 296.1,266.0 297.3,266.0 298.5,266.0 299.6,266.0 300.8,266.0 302.0,266.0 303.2,266.0 304.4,266.0 305.6,266.0 306.8,266.0 307.9,266.0 309.1,266.0 310.3,266.0 311.5,266.0 312.7,266.0 313.9,266.0 315.1,266.0 316.3,266.0 317.4,266.0 318.6,266.0 319.8,266.0 321.0,266.0 322.2,266.0 323.4,266.0 324.6,266.0 325.7,266.0 326.9,266.0 328.1,266.0 329.3,266.0 330.5,266.0 331.7,266.0 332.9,266.0 334.1,266.0 335.2,266.0 336.4,266.0 337.6,266.0 338.8,266.0 340.0,266.0 341.2,266.0 342.4,266.0 343.5,266.0 344.7,266.0 345.9,266.0 347.1,266.0 348.3,266.0 349.5,266.0 350.7,266.0 351.9,266.0 353.0,266.0 354.2,266.0 355.4,266.0 356.6,266.0 357.8,266.0 359.0,266.0 360.2,266.0 361.3,266.0 362.5,266.0 363.7,266.0 364.9,266.0 366.1,266.0 367.3,266.0 368.5,266.0 369.7,266.0 370.8,266.0 372.0,266.0 373.2,266.0 374.4,266.0 375.6,266.0 376.8,266.0 378.0,266.0 379.1,266.0 380.3,266.0 381.5,266.0 382.7,266.0 383.9,266.0 385.1,266.0 386.3,266.0 387.5,266.0 388.6,266.0 389.8,266.0 391.0,266.0 392.2,266.0 393.4,266.0 394.6,266.0 395.8,266.0 396.9,266.0 398.1,266.0 399.3,266.0 400.5,266.0 401.7,266.0 402.9,266.0 404.1,266.0 405.3,266.0 406.4,266.0 407.6,266.0 408.8,266.0 410.0,266.0 411.2,266.0 412.4,266.0 413.6,266.0 414.7,266.0 415.9,266.0 417.1,266.0 418.3,266.0 419.5,266.0 420.7,266.0 421.9,266.0 423.1,266.0 424.2,266.0 425.4,266.0 426.6,266.0 427.8,266.0 429.0,266.0 430.2,266.0 431.4,266.0 432.5,266.0 433.7,266.0 434.9,266.0 436.1,266.0 437.3,266.0 438.5,266.0 439.7,266.0 440.9,266.0 442.0,266.0 443.2,266.0 444.4,266.0 445.6,266.0 446.8,266.0 448.0,266.0 449.2,266.0 450.3,266.0 451.5,266.0 452.7,266.0 453.9,266.0 455.1,266.0 456.3,266.0 457.5,266.0 458.7,266.0 459.8,266.0 461.0,266.0 462.2,266.0 463.4,266.0 464.6,266.0 465.8,266.0 467.0,266.0 468.1,266.0 469.3,266.0 470.5,266.0 471.7,266.0 472.9,266.0 474.1,266.0 475.3,266.0 476.5,266.0 477.6,266.0 478.8,266.0 480.0,266.0 481.2,266.0 482.4,266.0 483.6,266.0 484.8,266.0 485.9,266.0 487.1,266.0 488.3,266.0 489.5,266.0 490.7,266.0 491.9,266.0 493.1,266.0 494.3,266.0 495.4,266.0 496.6,266.0 497.8,266.0 499.0,266.0 500.2,266.0 501.4,266.0 502.6,266.0 503.7,266.0 504.9,266.0 506.1,266.0 507.3,266.0 508.5,266.0 509.7,266.0 510.9,266.0 512.1,266.0 513.2,266.0 514.4,266.0 515.6,266.0 516.8,266.0 518.0,266.0 519.2,266.0 520.4,266.0 521.5,266.0 522.7,266.0 523.9,266.0 525.1,266.0 526.3,266.0 527.5,266.0 528.7,266.0 529.9,266.0 531.0,266.0 532.2,266.0 533.4,266.0 534.6,266.0 535.8,266.0 537.0,266.0 538.2,266.0 539.3,266.0 540.5,266.0 541.7,266.0 542.9,266.0 544.1,266.0 545.3,266.0 546.5,266.0 547.7,266.0 548.8,266.0 550.0,266.0 551.2,266.0 552.4,266.0 553.6,266.0 554.8,266.0 556.0,266.0 557.1,266.0 558.3,266.0 559.5,266.0 560.7,266.0 561.9,266.0 563.1,266.0 564.3,266.0 565.5,266.0 566.6,266.0 567.8,266.0 569.0,266.0 570.2,266.0 571.4,266.0 572.6,266.0 573.8,266.0 574.9,266.0 576.1,266.0 577.3,266.0 578.5,266.0 579.7,266.0 580.9,266.0 582.1,266.0 583.3,266.0 584.4,266.0 585.6,266.0 586.8,266.0 588.0,266.0 589.2,266.0 590.4,266.0 591.6,266.0 592.7,266.0 593.9,266.0 595.1,266.0 596.3,266.0 597.5,266.0 598.7,266.0 599.9,266.0 601.1,266.0 602.2,266.0 603.4,266.0 604.6,266.0 605.8,266.0 607.0,266.0 608.2,266.0 609.4,266.0 610.5,266.0 611.7,266.0 612.9,266.0 614.1,266.0 615.3,266.0 616.5,266.0 617.7,266.0 618.9,266.0 620.0,266.0 621.2,266.0 622.4,266.0 623.6,266.0 624.8,266.0 626.0,266.0 627.2,266.0 628.3,266.0 629.5,266.0 630.7,266.0 631.9,266.0 633.1,266.0 634.3,266.0 635.5,266.0 636.7,266.0 637.8,266.0 639.0,266.0 640.2,266.0 641.4,266.0 642.6,266.0 643.8,266.0 645.0,266.0 646.1,266.0 647.3,266.0 648.5,266.0 649.7,266.0 650.9,266.0 652.1,266.0 653.3,266.0 654.5,266.0 655.6,266.0 656.8,266.0 658.0,266.0 659.2,266.0 660.4,266.0 661.6,266.0 662.8,266.0 663.9,266.0 665.1,266.0 666.3,266.0 667.5,266.0 668.7,266.0 669.9,266.0 671.1,266.0 672.3,266.0 673.4,266.0 674.6,266.0 675.8,266.0 677.0,266.0 678.2,266.0 679.4,266.0 680.6,266.0 681.7,266.0 682.9,266.0 684.1,266.0 685.3,266.0 686.5,266.0 687.7,266.0 688.9,266.0 690.1,266.0 691.2,266.0 692.4,266.0 693.6,266.0 694.8,266.0 696.0,266.0 697.2,266.0 698.4,266.0 699.5,266.0 700.7,266.0 701.9,266.0 703.1,266.0 704.3,266.0 705.5,266.0 706.7,266.0 707.9,266.0 709.0,266.0 710.2,266.0 711.4,266.0 712.6,266.0 713.8,266.0 715.0,266.0 716.2,266.0 717.3,266.0 718.5,266.0 719.7,266.0 720.9,266.0 722.1,266.0 723.3,266.0 724.5,266.0 725.7,266.0 726.8,266.0 728.0,266.0 729.2,266.0 730.4,266.0 731.6,266.0 732.8,266.0 734.0,266.0 735.1,266.0 736.3,266.0 737.5,266.0 738.7,266.0 739.9,266.0 741.1,266.0 742.3,266.0 743.5,266.0 744.6,266.0 745.8,266.0 747.0,266.0 748.2,266.0 749.4,266.0 750.6,266.0 751.8,266.0 752.9,266.0 754.1,266.0 755.3,266.0 756.5,266.0 757.7,266.0 758.9,266.0 760.1,266.0 761.3,266.0 762.4,266.0 763.6,266.0 764.8,266.0 766.0,266.0"/>
<line x1="606" y1="60" x2="628" y2="60" stroke="#24a148" stroke-width="2.2"/>
<text x="634" y="64" font-family="Arial" font-size="12">beta_deg</text>
</svg>