<svg xmlns="http://www.w3.org/2000/svg" width="820" height="320" viewBox="0 0 820 320">
<rect width="100%" height="100%" fill="#ffffff"/>
<text x="54" y="28" font-family="Arial" font-size="18" font-weight="700">Mach Number</text>
<line x1="54" y1="266" x2="766" y2="266" stroke="#1f2933"/>
<line x1="54" y1="54" x2="54" y2="266" stroke="#1f2933"/>
<text x="54" y="306" font-family="Arial" font-size="12">time (s)</text>
<text x="596" y="306" font-family="Arial" font-size="12">Mach</text>
<text x="58" y="68" font-family="Arial" font-size="11">0.587</text>
<text x="58" y="260" font-family="Arial" font-size="11">0.251</text>
<polyline fill="none" stroke="#0f62fe" stroke-width="2.2" points="54.0,266.0 55.2,265.1 56.4,264.2 57.6,263.2 58.7,262.3 59.9,261.3 61.1,260.3 62.3,259.3 63.5,258.3 64.7,257.3 65.9,256.3 67.1,255.2 68.2,254.1 69.4,253.0 70.6,251.9 71.8,250.8 73.0,249.7 74.2,248.6 75.4,247.4 76.5,246.3 77.7,245.2 78.9,244.1 80.1,243.0 81.3,241.9 82.5,240.8 83.7,239.7 84.9,238.6 86.0,237.5 87.2,236.4 88.4,235.3 89.6,234.2 90.8,233.1 92.0,232.0 93.2,230.9 94.3,229.8 95.5,228.7 96.7,227.7 97.9,226.6 99.1,225.5 100.3,224.4 101.5,223.3 102.7,222.2 103.8,221.1 105.0,220.1 106.2,219.0 107.4,217.9 108.6,216.8 109.8,215.8 111.0,214.7 112.1,213.6 113.3,212.5 114.5,211.5 115.7,210.4 116.9,209.3 118.1,208.3 119.3,207.2 120.5,206.2 121.6,205.1 122.8,204.0 124.0,203.0 125.2,201.9 126.4,200.9 127.6,199.8 128.8,198.8 129.9,197.7 131.1,196.7 132.3,195.6 133.5,194.6 134.7,193.5 135.9,192.5 137.1,191.5 138.3,190.4 139.4,189.4 140.6,188.3 141.8,187.3 143.0,186.3 144.2,185.2 145.4,184.2 146.6,183.2 147.7,182.2 148.9,181.1 150.1,180.1 151.3,179.1 152.5,178.1 153.7,177.1 154.9,176.0 156.1,175.0 157.2,174.0 158.4,173.0 159.6,172.0 160.8,171.0 162.0,170.0 163.2,169.0 164.4,168.0 165.5,167.0 166.7,166.0 167.9,165.0 169.1,164.0 170.3,163.0 171.5,162.0 172.7,161.1 173.9,160.1 175.0,159.1 176.2,158.1 177.4,157.1 178.6,156.2 179.8,155.2 181.0,154.2 182.2,153.3 183.3,152.3 184.5,151.3 185.7,150.4 186.9,149.4 188.1,148.5 189.3,147.5 190.5,146.6 191.7,145.6 192.8,144.7 194.0,143.7 195.2,142.8 196.4,141.8 197.6,140.9 198.8,140.0 200.0,139.0 201.1,138.1 202.3,137.2 203.5,136.3 204.7,135.3 205.9,134.4 207.1,133.5 208.3,132.6 209.5,131.7 210.6,130.8 211.8,129.8 213.0,128.9 214.2,128.0 215.4,127.1 216.6,126.2 217.8,125.3 218.9,124.4 220.1,123.5 221.3,122.6 222.5,121.7 223.7,120.8 224.9,119.9 226.1,119.0 227.3,118.1 228.4,117.2 229.6,116.4 230.8,115.5 232.0,114.6 233.2,113.7 234.4,112.9 235.6,112.0 236.7,111.1 237.9,110.3 239.1,109.4 240.3,108.5 241.5,107.7 242.7,106.8 243.9,106.0 245.1,105.1 246.2,104.3 247.4,103.5 248.6,102.6 249.8,101.8 251.0,101.0 252.2,100.1 253.4,99.3 254.5,98.5 255.7,97.7 256.9,96.8 258.1,96.0 259.3,95.2 260.5,94.4 261.7,93.6 262.9,92.8 264.0,91.9 265.2,91.2 266.4,90.3 267.6,89.6 268.8,88.7 270.0,88.0 271.2,87.2 272.3,86.4 273.5,85.6 274.7,84.8 275.9,84.0 277.1,83.3 278.3,82.5 279.5,81.7 280.7,80.9 281.8,80.2 283.0,79.4 284.2,78.7 285.4,77.9 286.6,77.2 287.8,76.4 289.0,75.6 290.1,74.8 291.3,74.1 292.5,73.3 293.7,72.6 294.9,71.8 296.1,71.1 297.3,70.3 298.5,69.5 299.6,68.8 300.8,68.0 302.0,67.2 303.2,66.5 304.4,65.7 305.6,65.0 306.8,64.2 307.9,63.5 309.1,62.7 310.3,62.0 311.5,61.2 312.7,61.8 313.9,62.4 315.1,63.0 316.3,63.5 317.4,64.1 318.6,64.7 319.8,65.3 321.0,65.8 322.2,66.4 323.4,66.9 324.6,67.5 325.7,68.0 326.9,68.5 328.1,69.1 329.3,69.6 330.5,70.1 331.7,70.7 332.9,71.2 334.1,71.7 335.2,72.3 336.4,72.8 337.6,73.3 338.8,73.9 340.0,74.4 341.2,74.9 342.4,75.4 343.5,75.9 344.7,76.4 345.9,76.9 347.1,77.4 348.3,77.9 349.5,78.3 350.7,78.8 351.9,79.3 353.0,79.8 354.2,80.3 355.4,80.8 356.6,81.3 357.8,81.8 359.0,82.2 360.2,82.7 361.3,83.2 362.5,83.7 363.7,84.2 364.9,84.6 366.1,85.1 367.3,85.6 368.5,86.0 369.7,86.5 370.8,86.9 372.0,87.4 373.2,87.9 374.4,88.3 375.6,88.8 376.8,89.3 378.0,89.7 379.1,90.2 380.3,90.6 381.5,91.1 382.7,91.5 383.9,92.0 385.1,92.4 386.3,92.9 387.5,93.3 388.6,93.8 389.8,94.2 391.0,94.7 392.2,95.1 393.4,95.6 394.6,96.0 395.8,96.5 396.9,96.9 398.1,97.3 399.3,97.8 400.5,98.2 401.7,98.6 402.9,99.1 404.1,99.5 405.3,99.9 406.4,100.4 407.6,100.8 408.8,101.2 410.0,101.7 411.2,102.1 412.4,102.5 413.6,102.9 414.7,103.3 415.9,103.8 417.1,104.2 418.3,104.6 419.5,105.0 420.7,105.4 421.9,105.9 423.1,106.3 424.2,106.7 425.4,107.1 426.6,107.5 427.8,107.9 429.0,108.3 430.2,108.7 431.4,109.1 432.5,109.5 433.7,109.9 434.9,110.3 436.1,110.7 437.3,111.1 438.5,111.5 439.7,111.9 440.9,112.3 442.0,112.7 443.2,113.1 444.4,113.5 445.6,113.9 446.8,114.2 448.0,114.6 449.2,115.0 450.3,115.4 451.5,115.8 452.7,116.2 453.9,116.5 455.1,116.9 456.3,117.3 457.5,117.7 458.7,118.0 459.8,118.4 461.0,118.8 462.2,119.2 463.4,119.5 464.6,119.9 465.8,120.3 467.0,120.6 468.1,121.0 469.3,121.4 470.5,121.7 471.7,120.8 472.9,119.9 474.1,119.0 475.3,118.1 476.5,117.2 477.6,116.3 478.8,115.4 480.0,114.5 481.2,113.7 482.4,112.8 483.6,111.9 484.8,111.0 485.9,110.1 487.1,109.2 488.3,108.4 489.5,107.5 490.7,106.6 491.9,105.7 493.1,104.9 494.3,104.0 495.4,103.1 496.6,102.3 497.8,101.4 499.0,100.6 500.2,99.7 501.4,98.9 502.6,98.0 503.7,97.2 504.9,96.3 506.1,95.5 507.3,94.6 508.5,93.8 509.7,93.0 510.9,92.1 512.1,91.3 513.2,90.5 514.4,89.6 515.6,88.8 516.8,88.0 518.0,87.2 519.2,86.4 520.4,85.5 521.5,84.7 522.7,83.9 523.9,83.1 525.1,82.3 526.3,81.5 527.5,80.7 528.7,79.9 529.9,79.1 531.0,78.3 532.2,77.5 533.4,76.7 534.6,75.9 535.8,75.2 537.0,74.4 538.2,73.6 539.3,72.8 540.5,72.0 541.7,71.2 542.9,70.5 544.1,69.7 545.3,68.9 546.5,68.2 547.7,67.4 548.8,66.6 550.0,65.9 551.2,65.1 552.4,64.4 553.6,63.6 554.8,62.9 556.0,62.1 557.1,61.4 558.3,60.6 559.5,59.9 560.7,59.1 561.9,58.4 563.1,57.6 564.3,56.9 565.5,56.2 566.6,55.5 567.8,54.7 569.0,54.0 570.2,54.5 571.4,55.0 572.6,55.5 573.8,56.1 574.9,56.6 576.1,57.1 577.3,57.6 578.5,58.1 579.7,58.6 580.9,59.2 582.1,59.7 583.3,60.2 584.4,60.7 585.6,61.2 586.8,61.7 588.0,62.2 589.2,62.7 590.4,63.2 591.6,63.7 592.7,64.2 593.9,64.7 595.1,65.2 596.3,65.7 597.5,66.2 598.7,66.6 599.9,67.2 601.1,67.6 602.2,68.1 603.4,68.6 604.6,69.1 605.8,69.6 607.0,70.1 608.2,70.5 609.4,71.0 610.5,71.5 611.7,72.0 612.9,72.5 614.1,72.9 615.3,73.4 616.5,73.9 617.7,74.4 618.9,74.8 620.0,75.3 621.2,75.8 622.4,76.2 623.6,76.7 624.8,77.2 626.0,77.6 627.2,78.1 628.3,78.6 629.5,79.0 630.7,79.5 631.9,79.9 633.1,80.4 634.3,80.9 635.5,81.3 636.7,81.8 637.8,82.3 639.0,82.7 640.2,83.2 641.4,83.6 642.6,84.1 643.8,84.5 645.0,85.0 646.1,85.4 647.3,85.9 648.5,86.3 649.7,86.8 650.9,87.2 652.1,87.6 653.3,88.1 654.5,88.5 655.6,89.0 656.8,89.4 658.0,89.8 659.2,90.3 660.4,90.7 661.6,91.2 662.8,91.6 663.9,92.0 665.1,92.4 666.3,92.9 667.5,93.3 668.7,93.7 669.9,94.1 671.1,94.6 672.3,95.0 673.4,95.4 674.6,95.8 675.8,96.3 677.0,96.7 678.2,97.1 679.4,97.5 680.6,97.9 681.7,98.3 682.9,98.8 684.1,99.2 685.3,99.6 686.5,100.0 687.7,100.4 688.9,100.8 690.1,101.2 691.2,101.6 692.4,102.0 693.6,102.4 694.8,102.8 696.0,103.2 697.2,103.6 698.4,104.0 699.5,104.4 700.7,104.8 701.9,105.2 703.1,105.6 704.3,106.0 705.5,106.4 706.7,106.8 707.9,107.2 709.0,107.6 710.2,107.9 711.4,108.3 712.6,108.7 713.8,109.1 715.0,109.5 716.2,109.9 717.3,110.2 718.5,110.6 719.7,111.0 720.9,111.4 722.1,111.7 723.3,112.1 724.5,112.5 725.7,112.9 726.8,113.2 728.0,113.6 729.2,114.0 730.4,114.4 731.6,114.7 732.8,115.1 734.0,115.5 735.1,115.8 736.3,116.2 737.5,116.6 738.7,116.9 739.9,117.3 741.1,117.6 742.3,118.0 743.5,118.3 744.6,118.7 745.8,119.0 747.0,119.4 748.2,119.8 749.4,120.1 750.6,120.5 751.8,120.8 752.9,121.2 754.1,121.5 755.3,121.9 756.5,122.2 757.7,122.5 758.9,122.9 760.1,123.2 761.3,123.6 762.4,123.9 763.6,124.3 764.8,124.6 766.0,124.9"/>
<line x1="606" y1="42" x2="628" y2="42" stroke="#0f62fe" stroke-width="2.2"/>
<text x="634" y="46" font-family="Arial" font-size="12">mach</text>
</svg>