<svg xmlns="http://www.w3.org/2000/svg" width="820" height="320" viewBox="0 0 820 320">
<rect width="100%" height="100%" fill="#ffffff"/>
<text x="54" y="28" font-family="Arial" font-size="18" font-weight="700">Load Factor</text>
<line x1="54" y1="266" x2="766" y2="266" stroke="#1f2933"/>
<line x1="54" y1="54" x2="54" y2="266" stroke="#1f2933"/>
<text x="54" y="306" font-family="Arial" font-size="12">time (s)</text>
<text x="596" y="306" font-family="Arial" font-size="12">g</text>
<text x="58" y="68" font-family="Arial" font-size="11">2.42</text>
<text x="58" y="260" font-family="Arial" font-size="11">0.805</text>
<polyline fill="none" stroke="#0f62fe" stroke-width="2.2" points="54.0,142.5 55.2,138.8 56.4,135.0 57.6,131.1 58.7,127.1 59.9,123.1 61.1,119.0 62.3,114.9 63.5,110.8 64.7,106.7 65.9,102.6 67.1,98.4 68.2,94.3 69.4,90.1 70.6,88.8 71.8,88.9 73.0,89.1 74.2,89.2 75.4,89.3 76.5,89.4 77.7,89.5 78.9,89.6 80.1,89.7 81.3,89.8 82.5,89.9 83.7,90.0 84.9,90.1 86.0,90.1 87.2,90.2 88.4,90.3 89.6,90.4 90.8,90.4 92.0,90.5 93.2,90.6 94.3,90.7 95.5,90.7 96.7,90.8 97.9,90.9 99.1,90.9 100.3,91.0 101.5,91.0 102.7,91.1 103.8,91.2 105.0,91.2 106.2,91.3 107.4,91.3 108.6,91.4 109.8,91.4 111.0,91.5 112.1,91.5 113.3,91.5 114.5,91.6 115.7,91.6 116.9,91.7 118.1,91.7 119.3,91.7 120.5,91.8 121.6,91.8 122.8,91.8 124.0,91.9 125.2,91.9 126.4,91.9 127.6,91.9 128.8,92.0 129.9,92.0 131.1,92.0 132.3,92.0 133.5,92.1 134.7,92.1 135.9,92.1 137.1,92.1 138.3,92.1 139.4,92.1 140.6,92.2 141.8,92.2 143.0,92.2 144.2,92.2 145.4,92.2 146.6,92.2 147.7,92.2 148.9,92.3 150.1,92.3 151.3,92.2 152.5,92.2 153.7,92.2 154.9,92.2 156.1,92.1 157.2,92.1 158.4,92.0 159.6,91.9 160.8,91.8 162.0,91.7 163.2,91.6 164.4,91.5 165.5,91.4 166.7,91.3 167.9,91.2 169.1,91.1 170.3,90.9 171.5,90.8 172.7,90.7 173.9,90.5 175.0,90.4 176.2,90.3 177.4,90.1 178.6,90.0 179.8,89.8 181.0,89.7 182.2,89.6 183.3,89.4 184.5,89.3 185.7,89.1 186.9,89.0 188.1,88.8 189.3,88.7 190.5,88.5 191.7,88.4 192.8,88.3 194.0,88.2 195.2,88.0 196.4,87.9 197.6,87.7 198.8,87.8 200.0,87.3 201.1,87.9 202.3,86.4 203.5,88.8 204.7,84.0 205.9,92.6 207.1,77.9 208.3,92.3 209.5,79.8 210.6,95.2 211.8,82.3 213.0,96.4 214.2,81.6 215.4,95.0 216.6,78.8 217.8,93.4 218.9,77.3 220.1,93.3 221.3,77.5 222.5,94.2 223.7,77.8 224.9,94.3 226.1,76.8 227.3,93.6 228.4,75.3 229.6,92.9 230.8,74.4 232.0,92.9 233.2,74.0 234.4,93.0 235.6,73.4 236.7,92.7 237.9,72.4 239.1,92.3 240.3,71.3 241.5,92.0 242.7,70.5 243.9,91.8 245.1,69.7 246.2,91.6 247.4,68.8 248.6,91.2 249.8,67.7 251.0,90.9 252.2,66.7 253.4,90.6 254.5,65.8 255.7,90.3 256.9,64.8 258.1,90.0 259.3,63.7 260.5,89.6 261.7,62.7 262.9,89.3 264.0,61.6 265.2,88.9 266.4,60.5 267.6,88.6 268.8,59.4 270.0,88.2 271.2,58.5 272.3,87.8 273.5,57.5 274.7,87.5 275.9,56.7 277.1,87.2 278.3,55.9 279.5,86.9 280.7,55.1 281.8,86.3 283.0,54.0 284.2,85.5 285.4,54.4 286.6,88.4 287.8,57.2 289.0,91.0 290.1,59.7 291.3,93.5 292.5,62.1 293.7,95.8 294.9,64.4 296.1,97.2 297.3,64.9 298.5,97.5 299.6,64.5 300.8,97.5 302.0,64.0 303.2,97.6 304.4,63.7 305.6,97.6 306.8,63.3 307.9,97.7 309.1,64.6 310.3,101.2 311.5,119.0 312.7,172.0 313.9,125.4 315.1,177.6 316.3,131.3 317.4,182.7 318.6,136.7 319.8,187.4 321.0,141.6 322.2,191.6 323.4,146.1 324.6,195.4 325.7,150.3 326.9,198.9 328.1,154.1 329.3,201.5 330.5,156.3 331.7,201.0 332.9,154.7 334.1,199.8 335.2,153.7 336.4,198.9 337.6,157.9 338.8,207.6 340.0,166.9 341.2,215.5 342.4,175.2 343.5,222.6 344.7,182.7 345.9,228.9 347.1,189.3 348.3,231.6 349.5,189.1 350.7,229.4 351.9,184.8 353.0,225.2 354.2,180.7 355.4,221.0 356.6,180.0 357.8,224.1 359.0,185.1 360.2,230.0 361.3,191.4 362.5,235.4 363.7,197.2 364.9,239.1 366.1,200.0 367.3,239.5 368.5,198.5 369.7,237.4 370.8,195.8 372.0,234.9 373.2,194.0 374.4,233.9 375.6,194.9 376.8,236.1 378.0,198.2 379.1,239.4 380.3,201.5 381.5,240.7 382.7,201.5 383.9,239.6 385.1,200.9 386.3,239.7 387.5,202.3 388.6,241.2 389.8,204.3 391.0,242.3 392.2,205.2 393.4,242.5 394.6,205.6 395.8,242.8 396.9,206.6 398.1,243.6 399.3,207.9 400.5,244.5 401.7,208.9 402.9,245.0 404.1,209.7 405.3,245.5 406.4,210.6 407.6,246.1 408.8,211.6 410.0,246.8 411.2,212.6 412.4,247.4 413.6,213.5 414.7,248.0 415.9,214.3 417.1,248.5 418.3,215.3 419.5,249.2 420.7,216.2 421.9,249.7 423.1,217.1 424.2,250.3 425.4,218.1 426.6,251.4 427.8,219.7 429.0,252.3 430.2,220.5 431.4,252.4 432.5,221.8 433.7,255.1 434.9,225.2 436.1,257.1 437.3,226.2 438.5,256.5 439.7,226.6 440.9,258.8 442.0,230.0 443.2,261.2 444.4,231.6 445.6,261.2 446.8,231.1 448.0,260.5 449.2,231.0 450.3,260.9 451.5,232.2 452.7,262.1 453.9,233.6 455.1,262.9 456.3,234.3 457.5,263.1 458.7,234.6 459.8,263.3 461.0,235.2 462.2,263.8 463.4,236.1 464.6,264.5 465.8,237.0 467.0,265.0 468.1,237.6 469.3,265.4 470.5,112.5 471.7,122.9 472.9,113.0 474.1,123.7 475.3,113.3 476.5,124.3 477.6,113.5 478.8,125.0 480.0,113.7 481.2,125.6 482.4,114.0 483.6,126.4 484.8,114.3 485.9,127.0 487.1,114.6 488.3,127.7 489.5,114.7 490.7,128.4 491.9,115.0 493.1,129.1 494.3,115.2 495.4,129.7 496.6,115.4 497.8,130.4 499.0,115.5 500.2,131.1 501.4,115.7 502.6,131.7 503.7,115.8 504.9,132.4 506.1,115.9 507.3,133.1 508.5,116.0 509.7,133.7 510.9,116.1 512.1,134.4 513.2,116.2 514.4,135.0 515.6,116.2 516.8,135.6 518.0,116.3 519.2,136.2 520.4,116.5 521.5,136.9 522.7,116.7 523.9,137.5 525.1,116.8 526.3,138.2 527.5,117.1 528.7,138.9 529.9,117.3 531.0,139.6 532.2,117.6 533.4,140.3 534.6,117.9 535.8,141.0 537.0,118.2 538.2,141.8 539.3,118.5 540.5,142.5 541.7,118.9 542.9,143.3 544.1,119.2 545.3,144.1 546.5,119.6 547.7,144.9 548.8,120.0 550.0,145.7 551.2,120.5 552.4,146.6 553.6,120.9 554.8,147.4 556.0,121.3 557.1,148.3 558.3,121.8 559.5,149.1 560.7,122.3 561.9,150.0 563.1,122.8 564.3,150.9 565.5,123.2 566.6,151.8 567.8,123.7 569.0,224.4 570.2,177.3 571.4,225.4 572.6,178.5 573.8,226.3 574.9,179.7 576.1,227.1 577.3,180.8 578.5,227.9 579.7,181.8 580.9,228.6 582.1,182.7 583.3,229.3 584.4,183.7 585.6,230.0 586.8,184.5 588.0,230.6 589.2,185.3 590.4,231.1 591.6,186.1 592.7,231.7 593.9,186.9 595.1,232.2 596.3,187.6 597.5,232.7 598.7,188.3 599.9,233.1 601.1,188.9 602.2,233.6 603.4,189.6 604.6,234.0 605.8,190.2 607.0,234.4 608.2,190.8 609.4,234.8 610.5,191.3 611.7,235.1 612.9,191.9 614.1,235.5 615.3,192.4 616.5,235.8 617.7,193.0 618.9,236.1 620.0,193.5 621.2,236.4 622.4,193.9 623.6,236.7 624.8,194.4 626.0,237.0 627.2,194.9 628.3,237.3 629.5,195.4 630.7,237.6 631.9,195.8 633.1,237.8 634.3,196.2 635.5,238.1 636.7,196.7 637.8,238.3 639.0,197.1 640.2,238.5 641.4,197.5 642.6,238.8 643.8,197.9 645.0,239.0 646.1,198.3 647.3,239.2 648.5,198.7 649.7,239.4 650.9,199.1 652.1,239.6 653.3,199.4 654.5,239.8 655.6,200.2 656.8,240.7 658.0,201.7 659.2,242.4 660.4,203.7 661.6,243.8 662.8,205.1 663.9,244.2 665.1,205.5 666.3,244.3 667.5,206.2 668.7,245.0 669.9,207.4 671.1,245.8 672.3,208.5 673.4,246.4 674.6,209.3 675.8,246.8 677.0,210.1 678.2,247.4 679.4,211.1 680.6,248.0 681.7,212.1 682.9,248.6 684.1,212.9 685.3,249.1 686.5,213.8 687.7,249.7 688.9,214.6 690.1,250.2 691.2,215.5 692.4,250.8 693.6,216.4 694.8,251.3 696.0,217.2 697.2,251.9 698.4,218.1 699.5,252.4 700.7,218.9 701.9,253.0 703.1,219.7 704.3,253.5 705.5,220.5 706.7,254.0 707.9,221.4 709.0,254.5 710.2,222.2 711.4,255.1 712.6,223.0 713.8,255.6 715.0,223.7 716.2,256.1 717.3,224.5 718.5,256.6 719.7,225.3 720.9,257.1 722.1,226.1 723.3,257.6 724.5,226.8 725.7,258.1 726.8,227.6 728.0,258.6 729.2,228.3 730.4,259.1 731.6,229.0 732.8,259.6 734.0,229.8 735.1,260.0 736.3,230.5 737.5,260.5 738.7,231.2 739.9,261.0 741.1,231.9 742.3,261.5 743.5,232.6 744.6,261.9 745.8,233.3 747.0,262.4 748.2,234.0 749.4,262.9 750.6,234.7 751.8,263.3 752.9,235.4 754.1,263.8 755.3,236.0 756.5,264.2 757.7,236.7 758.9,264.7 760.1,237.4 761.3,265.1 762.4,238.0 763.6,265.6 764.8,238.7 766.0,266.0"/>
<line x1="606" y1="42" x2="628" y2="42" stroke="#0f62fe" stroke-width="2.2"/>
<text x="634" y="46" font-family="Arial" font-size="12">load_factor_g</text>
</svg>