<svg xmlns="http://www.w3.org/2000/svg" width="820" height="320" viewBox="0 0 820 320">
<rect width="100%" height="100%" fill="#ffffff"/>
<text x="54" y="28" font-family="Arial" font-size="18" font-weight="700">Control Surfaces</text>
<line x1="54" y1="266" x2="766" y2="266" stroke="#1f2933"/>
<line x1="54" y1="54" x2="54" y2="266" stroke="#1f2933"/>
<text x="54" y="306" font-family="Arial" font-size="12">time (s)</text>
<text x="596" y="306" font-family="Arial" font-size="12">deflection (deg)</text>
<text x="58" y="68" font-family="Arial" font-size="11">0</text>
<text x="58" y="260" font-family="Arial" font-size="11">-5.03</text>
<polyline fill="none" stroke="#0f62fe" stroke-width="2.2" points="54.0,167.7 55.2,113.3 56.4,73.4 57.6,89.7 58.7,122.6 59.9,138.3 61.1,139.4 62.3,141.0 63.5,148.1 64.7,156.3 65.9,161.9 67.1,165.7 68.2,169.5 69.4,173.5 70.6,177.1 71.8,180.2 73.0,182.9 74.2,185.5 75.4,187.9 76.5,190.0 77.7,192.0 78.9,193.7 80.1,195.4 81.3,196.9 82.5,198.3 83.7,199.5 84.9,200.7 86.0,201.8 87.2,202.8 88.4,203.7 89.6,204.5 90.8,205.3 92.0,206.1 93.2,206.7 94.3,207.4 95.5,208.0 96.7,208.5 97.9,209.0 99.1,209.5 100.3,209.9 101.5,210.3 102.7,210.7 103.8,211.1 105.0,211.4 106.2,211.7 107.4,212.0 108.6,212.2 109.8,212.5 111.0,212.7 112.1,212.9 113.3,213.1 114.5,213.2 115.7,213.4 116.9,213.5 118.1,213.6 119.3,213.7 120.5,213.8 121.6,213.9 122.8,213.9 124.0,214.0 125.2,214.0 126.4,214.0 127.6,214.0 128.8,214.0 129.9,214.0 131.1,214.0 132.3,213.9 133.5,213.9 134.7,213.8 135.9,213.8 137.1,213.7 138.3,213.6 139.4,213.5 140.6,213.4 141.8,213.2 143.0,213.1 144.2,213.0 145.4,212.8 146.6,212.7 147.7,212.5 148.9,212.3 150.1,212.8 151.3,212.2 152.5,212.5 153.7,212.4 154.9,212.5 156.1,212.6 157.2,212.7 158.4,212.8 159.6,213.0 160.8,213.1 162.0,213.3 163.2,213.5 164.4,213.7 165.5,213.8 166.7,214.0 167.9,214.2 169.1,214.3 170.3,214.5 171.5,214.7 172.7,214.8 173.9,214.9 175.0,215.1 176.2,215.2 177.4,215.3 178.6,215.4 179.8,215.4 181.0,215.5 182.2,215.6 183.3,215.6 184.5,215.6 185.7,215.6 186.9,215.6 188.1,215.5 189.3,215.6 190.5,215.4 191.7,215.5 192.8,215.2 194.0,215.4 195.2,214.8 196.4,215.5 197.6,214.0 198.8,216.1 200.0,211.9 201.1,218.8 202.3,205.9 203.5,228.8 204.7,185.8 205.9,265.8 207.1,152.1 208.3,265.8 209.5,152.3 210.6,266.0 211.8,152.3 213.0,266.0 214.2,152.3 215.4,266.0 216.6,152.3 217.8,266.0 218.9,152.3 220.1,266.0 221.3,152.3 222.5,266.0 223.7,152.3 224.9,266.0 226.1,152.3 227.3,266.0 228.4,152.3 229.6,266.0 230.8,152.3 232.0,266.0 233.2,152.3 234.4,266.0 235.6,152.3 236.7,266.0 237.9,152.3 239.1,266.0 240.3,152.3 241.5,266.0 242.7,152.3 243.9,266.0 245.1,152.3 246.2,266.0 247.4,152.3 248.6,266.0 249.8,152.3 251.0,266.0 252.2,152.3 253.4,266.0 254.5,152.3 255.7,266.0 256.9,152.3 258.1,266.0 259.3,152.3 260.5,266.0 261.7,152.3 262.9,266.0 264.0,152.3 265.2,266.0 266.4,152.3 267.6,266.0 268.8,152.3 270.0,266.0 271.2,152.3 272.3,266.0 273.5,152.3 274.7,266.0 275.9,152.3 277.1,266.0 278.3,152.3 279.5,266.0 280.7,152.3 281.8,262.4 283.0,148.7 284.2,256.9 285.4,143.2 286.6,256.9 287.8,143.2 289.0,256.9 290.1,143.2 291.3,256.9 292.5,143.2 293.7,256.9 294.9,143.2 296.1,255.5 297.3,141.8 298.5,250.3 299.6,136.6 300.8,245.3 302.0,131.6 303.2,240.3 304.4,126.6 305.6,235.2 306.8,121.5 307.9,230.1 309.1,116.3 310.3,230.1 311.5,116.3 312.7,230.1 313.9,116.3 315.1,230.1 316.3,116.3 317.4,230.1 318.6,116.3 319.8,230.1 321.0,116.3 322.2,230.1 323.4,116.3 324.6,230.1 325.7,116.3 326.9,230.1 328.1,116.3 329.3,229.9 330.5,116.2 331.7,221.7 332.9,108.0 334.1,215.9 335.2,102.2 336.4,211.0 337.6,97.3 338.8,211.0 340.0,97.3 341.2,211.0 342.4,97.3 343.5,211.0 344.7,97.3 345.9,211.0 347.1,97.3 348.3,211.0 349.5,97.3 350.7,211.0 351.9,97.3 353.0,208.9 354.2,95.2 355.4,204.8 356.6,91.1 357.8,204.8 359.0,91.1 360.2,204.8 361.3,91.1 362.5,204.8 363.7,91.1 364.9,204.8 366.1,91.1 367.3,204.8 368.5,91.1 369.7,204.8 370.8,91.1 372.0,204.8 373.2,91.1 374.4,204.8 375.6,91.1 376.8,204.8 378.0,91.1 379.1,204.8 380.3,91.1 381.5,204.8 382.7,91.1 383.9,204.8 385.1,91.1 386.3,204.8 387.5,91.1 388.6,204.8 389.8,91.1 391.0,204.8 392.2,91.1 393.4,204.8 394.6,91.1 395.8,204.8 396.9,91.1 398.1,204.8 399.3,91.1 400.5,204.8 401.7,91.1 402.9,204.8 404.1,91.1 405.3,204.8 406.4,91.1 407.6,204.8 408.8,91.1 410.0,204.8 411.2,91.1 412.4,204.8 413.6,91.1 414.7,204.8 415.9,91.1 417.1,204.8 418.3,91.1 419.5,204.8 420.7,91.1 421.9,204.8 423.1,91.1 424.2,204.3 425.4,90.6 426.6,204.3 427.8,90.6 429.0,204.3 430.2,90.6 431.4,202.1 432.5,88.4 433.7,202.1 434.9,88.4 436.1,202.1 437.3,88.4 438.5,199.5 439.7,85.8 440.9,199.5 442.0,85.8 443.2,199.5 444.4,85.8 445.6,199.5 446.8,85.8 448.0,199.5 449.2,85.8 450.3,199.5 451.5,85.8 452.7,199.5 453.9,85.8 455.1,199.5 456.3,85.8 457.5,199.5 458.7,85.8 459.8,199.5 461.0,85.8 462.2,199.5 463.4,85.8 464.6,199.5 465.8,85.8 467.0,199.5 468.1,85.8 469.3,199.5 470.5,85.8 471.7,199.5 472.9,85.8 474.1,199.5 475.3,85.8 476.5,199.5 477.6,85.8 478.8,199.5 480.0,85.8 481.2,199.5 482.4,85.8 483.6,199.5 484.8,85.8 485.9,199.5 487.1,85.8 488.3,199.5 489.5,85.8 490.7,199.5 491.9,85.8 493.1,199.5 494.3,85.8 495.4,199.5 496.6,85.8 497.8,199.5 499.0,85.8 500.2,199.5 501.4,85.8 502.6,199.5 503.7,85.8 504.9,199.5 506.1,85.8 507.3,199.5 508.5,85.8 509.7,199.5 510.9,85.8 512.1,199.5 513.2,85.8 514.4,199.5 515.6,85.8 516.8,199.5 518.0,85.8 519.2,199.5 520.4,85.8 521.5,199.5 522.7,85.8 523.9,199.5 525.1,85.8 526.3,199.5 527.5,85.8 528.7,199.5 529.9,85.8 531.0,199.5 532.2,85.8 533.4,199.5 534.6,85.8 535.8,199.5 537.0,85.8 538.2,199.5 539.3,85.8 540.5,199.5 541.7,85.8 542.9,199.5 544.1,85.8 545.3,199.5 546.5,85.8 547.7,199.5 548.8,85.8 550.0,199.5 551.2,85.8 552.4,199.5 553.6,85.8 554.8,199.5 556.0,85.8 557.1,199.5 558.3,85.8 559.5,199.5 560.7,85.8 561.9,199.5 563.1,85.8 564.3,199.5 565.5,85.8 566.6,199.5 567.8,85.8 569.0,199.5 570.2,85.8 571.4,199.5 572.6,85.8 573.8,199.5 574.9,85.8 576.1,199.5 577.3,85.8 578.5,199.5 579.7,85.8 580.9,199.5 582.1,85.8 583.3,199.5 584.4,85.8 585.6,199.5 586.8,85.8 588.0,199.5 589.2,85.8 590.4,199.5 591.6,85.8 592.7,199.5 593.9,85.8 595.1,199.5 596.3,85.8 597.5,199.5 598.7,85.8 599.9,199.5 601.1,85.8 602.2,199.5 603.4,85.8 604.6,199.5 605.8,85.8 607.0,199.5 608.2,85.8 609.4,199.5 610.5,85.8 611.7,199.5 612.9,85.8 614.1,199.5 615.3,85.8 616.5,199.5 617.7,85.8 618.9,199.5 620.0,85.8 621.2,199.5 622.4,85.8 623.6,199.5 624.8,85.8 626.0,199.5 627.2,85.8 628.3,199.5 629.5,85.8 630.7,199.5 631.9,85.8 633.1,199.5 634.3,85.8 635.5,199.5 636.7,85.8 637.8,199.5 639.0,85.8 640.2,199.5 641.4,85.8 642.6,199.5 643.8,85.8 645.0,199.5 646.1,85.8 647.3,199.5 648.5,85.8 649.7,199.5 650.9,85.8 652.1,199.5 653.3,85.8 654.5,199.5 655.6,85.8 656.8,199.5 658.0,85.8 659.2,199.5 660.4,85.8 661.6,199.5 662.8,85.8 663.9,199.5 665.1,85.8 666.3,199.5 667.5,85.8 668.7,199.5 669.9,85.8 671.1,199.5 672.3,85.8 673.4,199.5 674.6,85.8 675.8,199.5 677.0,85.8 678.2,199.5 679.4,85.8 680.6,199.5 681.7,85.8 682.9,199.5 684.1,85.8 685.3,199.5 686.5,85.8 687.7,199.5 688.9,85.8 690.1,199.5 691.2,85.8 692.4,199.5 693.6,85.8 694.8,199.5 696.0,85.8 697.2,199.5 698.4,85.8 699.5,199.5 700.7,85.8 701.9,199.5 703.1,85.8 704.3,199.5 705.5,85.8 706.7,199.5 707.9,85.8 709.0,199.5 710.2,85.8 711.4,199.5 712.6,85.8 713.8,199.5 715.0,85.8 716.2,199.5 717.3,85.8 718.5,199.5 719.7,85.8 720.9,199.5 722.1,85.8 723.3,199.5 724.5,85.8 725.7,199.5 726.8,85.8 728.0,199.5 729.2,85.8 730.4,199.5 731.6,85.8 732.8,199.5 734.0,85.8 735.1,199.5 736.3,85.8 737.5,199.5 738.7,85.8 739.9,199.5 741.1,85.8 742.3,199.5 743.5,85.8 744.6,199.5 745.8,85.8 747.0,199.5 748.2,85.8 749.4,199.5 750.6,85.8 751.8,199.5 752.9,85.8 754.1,199.5 755.3,85.8 756.5,199.5 757.7,85.8 758.9,199.5 760.1,85.8 761.3,199.5 762.4,85.8 763.6,199.5 764.8,85.8 766.0,199.5"/>
<line x1="606" y1="42" x2="628" y2="42" stroke="#0f62fe" stroke-width="2.2"/>
<text x="634" y="46" font-family="Arial" font-size="12">elevator_deg</text>
<polyline fill="none" stroke="#24a148" stroke-width="2.2" points="54.0,54.0 55.2,54.0 56.4,54.0 57.6,54.0 58.7,54.0 59.9,54.0 61.1,54.0 62.3,54.0 63.5,54.0 64.7,54.0 65.9,54.0 67.1,54.0 68.2,54.0 69.4,54.0 70.6,54.0 71.8,54.0 73.0,54.0 74.2,54.0 75.4,54.0 76.5,54.0 77.7,54.0 78.9,54.0 80.1,54.0 81.3,54.0 82.5,54.0 83.7,54.0 84.9,54.0 86.0,54.0 87.2,54.0 88.4,54.0 89.6,54.0 90.8,54.0 92.0,54.0 93.2,54.0 94.3,54.0 95.5,54.0 96.7,54.0 97.9,54.0 99.1,54.0 100.3,54.0 101.5,54.0 102.7,54.0 103.8,54.0 105.0,54.0 106.2,54.0 107.4,54.0 108.6,54.0 109.8,54.0 111.0,54.0 112.1,54.0 113.3,54.0 114.5,54.0 115.7,54.0 116.9,54.0 118.1,54.0 119.3,54.0 120.5,54.0 121.6,54.0 122.8,54.0 124.0,54.0 125.2,54.0 126.4,54.0 127.6,54.0 128.8,54.0 129.9,54.0 131.1,54.0 132.3,54.0 133.5,54.0 134.7,54.0 135.9,54.0 137.1,54.0 138.3,54.0 139.4,54.0 140.6,54.0 141.8,54.0 143.0,54.0 144.2,54.0 145.4,54.0 146.6,54.0 147.7,54.0 148.9,54.0 150.1,54.0 151.3,54.0 152.5,54.0 153.7,54.0 154.9,54.0 156.1,54.0 157.2,54.0 158.4,54.0 159.6,54.0 160.8,54.0 162.0,54.0 163.2,54.0 164.4,54.0 165.5,54.0 166.7,54.0 167.9,54.0 169.1,54.0 170.3,54.0 171.5,54.0 172.7,54.0 173.9,54.0 175.0,54.0 176.2,54.0 177.4,54.0 178.6,54.0 179.8,54.0 181.0,54.0 182.2,54.0 183.3,54.0 184.5,54.0 185.7,54.0 186.9,54.0 188.1,54.0 189.3,54.0 190.5,54.0 191.7,54.0 192.8,54.0 194.0,54.0 195.2,54.0 196.4,54.0 197.6,54.0 198.8,54.0 200.0,54.0 201.1,54.0 202.3,54.0 203.5,54.0 204.7,54.0 205.9,54.0 207.1,54.0 208.3,54.0 209.5,54.0 210.6,54.0 211.8,54.0 213.0,54.0 214.2,54.0 215.4,54.0 216.6,54.0 217.8,54.0 218.9,54.0 220.1,54.0 221.3,54.0 222.5,54.0 223.7,54.0 224.9,54.0 226.1,54.0 227.3,54.0 228.4,54.0 229.6,54.0 230.8,54.0 232.0,54.0 233.2,54.0 234.4,54.0 235.6,54.0 236.7,54.0 237.9,54.0 239.1,54.0 240.3,54.0 241.5,54.0 242.7,54.0 243.9,54.0 245.1,54.0 246.2,54.0 247.4,54.0 248.6,54.0 249.8,54.0 251.0,54.0 252.2,54.0 253.4,54.0 254.5,54.0 255.7,54.0 256.9,54.0 258.1,54.0 259.3,54.0 260.5,54.0 261.7,54.0 262.9,54.0 264.0,54.0 265.2,54.0 266.4,54.0 267.6,54.0 268.8,54.0 270.0,54.0 271.2,54.0 272.3,54.0 273.5,54.0 274.7,54.0 275.9,54.0 277.1,54.0 278.3,54.0 279.5,54.0 280.7,54.0 281.8,54.0 283.0,54.0 284.2,54.0 285.4,54.0 286.6,54.0 287.8,54.0 289.0,54.0 290.1,54.0 291.3,54.0 292.5,54.0 293.7,54.0 294.9,54.0 296.1,54.0 297.3,54.0 298.5,54.0 299.6,54.0 300.8,54.0 302.0,54.0 303.2,54.0 304.4,54.0 305.6,54.0 306.8,54.0 307.9,54.0 309.1,54.0 310.3,54.0 311.5,54.0 312.7,54.0 313.9,54.0 315.1,54.0 316.3,54.0 317.4,54.0 318.6,54.0 319.8,54.0 321.0,54.0 322.2,54.0 323.4,54.0 324.6,54.0 325.7,54.0 326.9,54.0 328.1,54.0 329.3,54.0 330.5,54.0 331.7,54.0 332.9,54.0 334.1,54.0 335.2,54.0 336.4,54.0 337.6,54.0 338.8,54.0 340.0,54.0 341.2,54.0 342.4,54.0 343.5,54.0 344.7,54.0 345.9,54.0 347.1,54.0 348.3,54.0 349.5,54.0 350.7,54.0 351.9,54.0 353.0,54.0 354.2,54.0 355.4,54.0 356.6,54.0 357.8,54.0 359.0,54.0 360.2,54.0 361.3,54.0 362.5,54.0 363.7,54.0 364.9,54.0 366.1,54.0 367.3,54.0 368.5,54.0 369.7,54.0 370.8,54.0 372.0,54.0 373.2,54.0 374.4,54.0 375.6,54.0 376.8,54.0 378.0,54.0 379.1,54.0 380.3,54.0 381.5,54.0 382.7,54.0 383.9,54.0 385.1,54.0 386.3,54.0 387.5,54.0 388.6,54.0 389.8,54.0 391.0,54.0 392.2,54.0 393.4,54.0 394.6,54.0 395.8,54.0 396.9,54.0 398.1,54.0 399.3,54.0 400.5,54.0 401.7,54.0 402.9,54.0 404.1,54.0 405.3,54.0 406.4,54.0 407.6,54.0 408.8,54.0 410.0,54.0 411.2,54.0 412.4,54.0 413.6,54.0 414.7,54.0 415.9,54.0 417.1,54.0 418.3,54.0 419.5,54.0 420.7,54.0 421.9,54.0 423.1,54.0 424.2,54.0 425.4,54.0 426.6,54.0 427.8,54.0 429.0,54.0 430.2,54.0 431.4,54.0 432.5,54.0 433.7,54.0 434.9,54.0 436.1,54.0 437.3,54.0 438.5,54.0 439.7,54.0 440.9,54.0 442.0,54.0 443.2,54.0 444.4,54.0 445.6,54.0 446.8,54.0 448.0,54.0 449.2,54.0 450.3,54.0 451.5,54.0 452.7,54.0 453.9,54.0 455.1,54.0 456.3,54.0 457.5,54.0 458.7,54.0 459.8,54.0 461.0,54.0 462.2,54.0 463.4,54.0 464.6,54.0 465.8,54.0 467.0,54.0 468.1,54.0 469.3,54.0 470.5,54.0 471.7,54.0 472.9,54.0 474.1,54.0 475.3,54.0 476.5,54.0 477.6,54.0 478.8,54.0 480.0,54.0 481.2,54.0 482.4,54.0 483.6,54.0 484.8,54.0 485.9,54.0 487.1,54.0 488.3,54.0 489.5,54.0 490.7,54.0 491.9,54.0 493.1,54.0 494.3,54.0 495.4,54.0 496.6,54.0 497.8,54.0 499.0,54.0 500.2,54.0 501.4,54.0 502.6,54.0 503.7,54.0 504.9,54.0 506.1,54.0 507.3,54.0 508.5,54.0 509.7,54.0 510.9,54.0 512.1,54.0 513.2,54.0 514.4,54.0 515.6,54.0 516.8,54.0 518.0,54.0 519.2,54.0 520.4,54.0 521.5,54.0 522.7,54.0 523.9,54.0 525.1,54.0 526.3,54.0 527.5,54.0 528.7,54.0 529.9,54.0 531.0,54.0 532.2,54.0 533.4,54.0 534.6,54.0 535.8,54.0 537.0,54.0 538.2,54.0 539.3,54.0 540.5,54.0 541.7,54.0 542.9,54.0 544.1,54.0 545.3,54.0 546.5,54.0 547.7,54.0 548.8,54.0 550.0,54.0 551.2,54.0 552.4,54.0 553.6,54.0 554.8,54.0 556.0,54.0 557.1,54.0 558.3,54.0 559.5,54.0 560.7,54.0 561.9,54.0 563.1,54.0 564.3,54.0 565.5,54.0 566.6,54.0 567.8,54.0 569.0,54.0 570.2,54.0 571.4,54.0 572.6,54.0 573.8,54.0 574.9,54.0 576.1,54.0 577.3,54.0 578.5,54.0 579.7,54.0 580.9,54.0 582.1,54.0 583.3,54.0 584.4,54.0 585.6,54.0 586.8,54.0 588.0,54.0 589.2,54.0 590.4,54.0 591.6,54.0 592.7,54.0 593.9,54.0 595.1,54.0 596.3,54.0 597.5,54.0 598.7,54.0 599.9,54.0 601.1,54.0 602.2,54.0 603.4,54.0 604.6,54.0 605.8,54.0 607.0,54.0 608.2,54.0 609.4,54.0 610.5,54.0 611.7,54.0 612.9,54.0 614.1,54.0 615.3,54.0 616.5,54.0 617.7,54.0 618.9,54.0 620.0,54.0 621.2,54.0 622.4,54.0 623.6,54.0 624.8,54.0 626.0,54.0 627.2,54.0 628.3,54.0 629.5,54.0 630.7,54.0 631.9,54.0 633.1,54.0 634.3,54.0 635.5,54.0 636.7,54.0 637.8,54.0 639.0,54.0 640.2,54.0 641.4,54.0 642.6,54.0 643.8,54.0 645.0,54.0 646.1,54.0 647.3,54.0 648.5,54.0 649.7,54.0 650.9,54.0 652.1,54.0 653.3,54.0 654.5,54.0 655.6,54.0 656.8,54.0 658.0,54.0 659.2,54.0 660.4,54.0 661.6,54.0 662.8,54.0 663.9,54.0 665.1,54.0 666.3,54.0 667.5,54.0 668.7,54.0 669.9,54.0 671.1,54.0 672.3,54.0 673.4,54.0 674.6,54.0 675.8,54.0 677.0,54.0 678.2,54.0 679.4,54.0 680.6,54.0 681.7,54.0 682.9,54.0 684.1,54.0 685.3,54.0 686.5,54.0 687.7,54.0 688.9,54.0 690.1,54.0 691.2,54.0 692.4,54.0 693.6,54.0 694.8,54.0 696.0,54.0 697.2,54.0 698.4,54.0 699.5,54.0 700.7,54.0 701.9,54.0 703.1,54.0 704.3,54.0 705.5,54.0 706.7,54.0 707.9,54.0 709.0,54.0 710.2,54.0 711.4,54.0 712.6,54.0 713.8,54.0 715.0,54.0 716.2,54.0 717.3,54.0 718.5,54.0 719.7,54.0 720.9,54.0 722.1,54.0 723.3,54.0 724.5,54.0 725.7,54.0 726.8,54.0 728.0,54.0 729.2,54.0 730.4,54.0 731.6,54.0 732.8,54.0 734.0,54.0 735.1,54.0 736.3,54.0 737.5,54.0 738.7,54.0 739.9,54.0 741.1,54.0 742.3,54.0 743.5,54.0 744.6,54.0 745.8,54.0 747.0,54.0 748.2,54.0 749.4,54.0 750.6,54.0 751.8,54.0 752.9,54.0 754.1,54.0 755.3,54.0 756.5,54.0 757.7,54.0 758.9,54.0 760.1,54.0 761.3,54.0 762.4,54.0 763.6,54.0 764.8,54.0 766.0,54.0"/>
<line x1="606" y1="60" x2="628" y2="60" stroke="#24a148" stroke-width="2.2"/>
<text x="634" y="64" font-family="Arial" font-size="12">aileron_deg</text>
<polyline fill="none" stroke="#da1e28" stroke-width="2.2" points="54.0,54.0 55.2,54.0 56.4,54.0 57.6,54.0 58.7,54.0 59.9,54.0 61.1,54.0 62.3,54.0 63.5,54.0 64.7,54.0 65.9,54.0 67.1,54.0 68.2,54.0 69.4,54.0 70.6,54.0 71.8,54.0 73.0,54.0 74.2,54.0 75.4,54.0 76.5,54.0 77.7,54.0 78.9,54.0 80.1,54.0 81.3,54.0 82.5,54.0 83.7,54.0 84.9,54.0 86.0,54.0 87.2,54.0 88.4,54.0 89.6,54.0 90.8,54.0 92.0,54.0 93.2,54.0 94.3,54.0 95.5,54.0 96.7,54.0 97.9,54.0 99.1,54.0 100.3,54.0 101.5,54.0 102.7,54.0 103.8,54.0 105.0,54.0 106.2,54.0 107.4,54.0 108.6,54.0 109.8,54.0 111.0,54.0 112.1,54.0 113.3,54.0 114.5,54.0 115.7,54.0 116.9,54.0 118.1,54.0 119.3,54.0 120.5,54.0 121.6,54.0 122.8,54.0 124.0,54.0 125.2,54.0 126.4,54.0 127.6,54.0 128.8,54.0 129.9,54.0 131.1,54.0 132.3,54.0 133.5,54.0 134.7,54.0 135.9,54.0 137.1,54.0 138.3,54.0 139.4,54.0 140.6,54.0 141.8,54.0 143.0,54.0 144.2,54.0 145.4,54.0 146.6,54.0 147.7,54.0 148.9,54.0 150.1,54.0 151.3,54.0 152.5,54.0 153.7,54.0 154.9,54.0 156.1,54.0 157.2,54.0 158.4,54.0 159.6,54.0 160.8,54.0 162.0,54.0 163.2,54.0 164.4,54.0 165.5,54.0 166.7,54.0 167.9,54.0 169.1,54.0 170.3,54.0 171.5,54.0 172.7,54.0 173.9,54.0 175.0,54.0 176.2,54.0 177.4,54.0 178.6,54.0 179.8,54.0 181.0,54.0 182.2,54.0 183.3,54.0 184.5,54.0 185.7,54.0 186.9,54.0 188.1,54.0 189.3,54.0 190.5,54.0 191.7,54.0 192.8,54.0 194.0,54.0 195.2,54.0 196.4,54.0 197.6,54.0 198.8,54.0 200.0,54.0 201.1,54.0 202.3,54.0 203.5,54.0 204.7,54.0 205.9,54.0 207.1,54.0 208.3,54.0 209.5,54.0 210.6,54.0 211.8,54.0 213.0,54.0 214.2,54.0 215.4,54.0 216.6,54.0 217.8,54.0 218.9,54.0 220.1,54.0 221.3,54.0 222.5,54.0 223.7,54.0 224.9,54.0 226.1,54.0 227.3,54.0 228.4,54.0 229.6,54.0 230.8,54.0 232.0,54.0 233.2,54.0 234.4,54.0 235.6,54.0 236.7,54.0 237.9,54.0 239.1,54.0 240.3,54.0 241.5,54.0 242.7,54.0 243.9,54.0 245.1,54.0 246.2,54.0 247.4,54.0 248.6,54.0 249.8,54.0 251.0,54.0 252.2,54.0 253.4,54.0 254.5,54.0 255.7,54.0 256.9,54.0 258.1,54.0 259.3,54.0 260.5,54.0 261.7,54.0 262.9,54.0 264.0,54.0 265.2,54.0 266.4,54.0 267.6,54.0 268.8,54.0 270.0,54.0 271.2,54.0 272.3,54.0 273.5,54.0 274.7,54.0 275.9,54.0 277.1,54.0 278.3,54.0 279.5,54.0 280.7,54.0 281.8,54.0 283.0,54.0 284.2,54.0 285.4,54.0 286.6,54.0 287.8,54.0 289.0,54.0 290.1,54.0 291.3,54.0 292.5,54.0 293.7,54.0 294.9,54.0 296.1,54.0 297.3,54.0 298.5,54.0 299.6,54.0 300.8,54.0 302.0,54.0 303.2,54.0 304.4,54.0 305.6,54.0 306.8,54.0 307.9,54.0 309.1,54.0 310.3,54.0 311.5,54.0 312.7,54.0 313.9,54.0 315.1,54.0 316.3,54.0 317.4,54.0 318.6,54.0 319.8,54.0 321.0,54.0 322.2,54.0 323.4,54.0 324.6,54.0 325.7,54.0 326.9,54.0 328.1,54.0 329.3,54.0 330.5,54.0 331.7,54.0 332.9,54.0 334.1,54.0 335.2,54.0 336.4,54.0 337.6,54.0 338.8,54.0 340.0,54.0 341.2,54.0 342.4,54.0 343.5,54.0 344.7,54.0 345.9,54.0 347.1,54.0 348.3,54.0 349.5,54.0 350.7,54.0 351.9,54.0 353.0,54.0 354.2,54.0 355.4,54.0 356.6,54.0 357.8,54.0 359.0,54.0 360.2,54.0 361.3,54.0 362.5,54.0 363.7,54.0 364.9,54.0 366.1,54.0 367.3,54.0 368.5,54.0 369.7,54.0 370.8,54.0 372.0,54.0 373.2,54.0 374.4,54.0 375.6,54.0 376.8,54.0 378.0,54.0 379.1,54.0 380.3,54.0 381.5,54.0 382.7,54.0 383.9,54.0 385.1,54.0 386.3,54.0 387.5,54.0 388.6,54.0 389.8,54.0 391.0,54.0 392.2,54.0 393.4,54.0 394.6,54.0 395.8,54.0 396.9,54.0 398.1,54.0 399.3,54.0 400.5,54.0 401.7,54.0 402.9,54.0 404.1,54.0 405.3,54.0 406.4,54.0 407.6,54.0 408.8,54.0 410.0,54.0 411.2,54.0 412.4,54.0 413.6,54.0 414.7,54.0 415.9,54.0 417.1,54.0 418.3,54.0 419.5,54.0 420.7,54.0 421.9,54.0 423.1,54.0 424.2,54.0 425.4,54.0 426.6,54.0 427.8,54.0 429.0,54.0 430.2,54.0 431.4,54.0 432.5,54.0 433.7,54.0 434.9,54.0 436.1,54.0 437.3,54.0 438.5,54.0 439.7,54.0 440.9,54.0 442.0,54.0 443.2,54.0 444.4,54.0 445.6,54.0 446.8,54.0 448.0,54.0 449.2,54.0 450.3,54.0 451.5,54.0 452.7,54.0 453.9,54.0 455.1,54.0 456.3,54.0 457.5,54.0 458.7,54.0 459.8,54.0 461.0,54.0 462.2,54.0 463.4,54.0 464.6,54.0 465.8,54.0 467.0,54.0 468.1,54.0 469.3,54.0 470.5,54.0 471.7,54.0 472.9,54.0 474.1,54.0 475.3,54.0 476.5,54.0 477.6,54.0 478.8,54.0 480.0,54.0 481.2,54.0 482.4,54.0 483.6,54.0 484.8,54.0 485.9,54.0 487.1,54.0 488.3,54.0 489.5,54.0 490.7,54.0 491.9,54.0 493.1,54.0 494.3,54.0 495.4,54.0 496.6,54.0 497.8,54.0 499.0,54.0 500.2,54.0 501.4,54.0 502.6,54.0 503.7,54.0 504.9,54.0 506.1,54.0 507.3,54.0 508.5,54.0 509.7,54.0 510.9,54.0 512.1,54.0 513.2,54.0 514.4,54.0 515.6,54.0 516.8,54.0 518.0,54.0 519.2,54.0 520.4,54.0 521.5,54.0 522.7,54.0 523.9,54.0 525.1,54.0 526.3,54.0 527.5,54.0 528.7,54.0 529.9,54.0 531.0,54.0 532.2,54.0 533.4,54.0 534.6,54.0 535.8,54.0 537.0,54.0 538.2,54.0 539.3,54.0 540.5,54.0 541.7,54.0 542.9,54.0 544.1,54.0 545.3,54.0 546.5,54.0 547.7,54.0 548.8,54.0 550.0,54.0 551.2,54.0 552.4,54.0 553.6,54.0 554.8,54.0 556.0,54.0 557.1,54.0 558.3,54.0 559.5,54.0 560.7,54.0 561.9,54.0 563.1,54.0 564.3,54.0 565.5,54.0 566.6,54.0 567.8,54.0 569.0,54.0 570.2,54.0 571.4,54.0 572.6,54.0 573.8,54.0 574.9,54.0 576.1,54.0 577.3,54.0 578.5,54.0 579.7,54.0 580.9,54.0 582.1,54.0 583.3,54.0 584.4,54.0 585.6,54.0 586.8,54.0 588.0,54.0 589.2,54.0 590.4,54.0 591.6,54.0 592.7,54.0 593.9,54.0 595.1,54.0 596.3,54.0 597.5,54.0 598.7,54.0 599.9,54.0 601.1,54.0 602.2,54.0 603.4,54.0 604.6,54.0 605.8,54.0 607.0,54.0 608.2,54.0 609.4,54.0 610.5,54.0 611.7,54.0 612.9,54.0 614.1,54.0 615.3,54.0 616.5,54.0 617.7,54.0 618.9,54.0 620.0,54.0 621.2,54.0 622.4,54.0 623.6,54.0 624.8,54.0 626.0,54.0 627.2,54.0 628.3,54.0 629.5,54.0 630.7,54.0 631.9,54.0 633.1,54.0 634.3,54.0 635.5,54.0 636.7,54.0 637.8,54.0 639.0,54.0 640.2,54.0 641.4,54.0 642.6,54.0 643.8,54.0 645.0,54.0 646.1,54.0 647.3,54.0 648.5,54.0 649.7,54.0 650.9,54.0 652.1,54.0 653.3,54.0 654.5,54.0 655.6,54.0 656.8,54.0 658.0,54.0 659.2,54.0 660.4,54.0 661.6,54.0 662.8,54.0 663.9,54.0 665.1,54.0 666.3,54.0 667.5,54.0 668.7,54.0 669.9,54.0 671.1,54.0 672.3,54.0 673.4,54.0 674.6,54.0 675.8,54.0 677.0,54.0 678.2,54.0 679.4,54.0 680.6,54.0 681.7,54.0 682.9,54.0 684.1,54.0 685.3,54.0 686.5,54.0 687.7,54.0 688.9,54.0 690.1,54.0 691.2,54.0 692.4,54.0 693.6,54.0 694.8,54.0 696.0,54.0 697.2,54.0 698.4,54.0 699.5,54.0 700.7,54.0 701.9,54.0 703.1,54.0 704.3,54.0 705.5,54.0 706.7,54.0 707.9,54.0 709.0,54.0 710.2,54.0 711.4,54.0 712.6,54.0 713.8,54.0 715.0,54.0 716.2,54.0 717.3,54.0 718.5,54.0 719.7,54.0 720.9,54.0 722.1,54.0 723.3,54.0 724.5,54.0 725.7,54.0 726.8,54.0 728.0,54.0 729.2,54.0 730.4,54.0 731.6,54.0 732.8,54.0 734.0,54.0 735.1,54.0 736.3,54.0 737.5,54.0 738.7,54.0 739.9,54.0 741.1,54.0 742.3,54.0 743.5,54.0 744.6,54.0 745.8,54.0 747.0,54.0 748.2,54.0 749.4,54.0 750.6,54.0 751.8,54.0 752.9,54.0 754.1,54.0 755.3,54.0 756.5,54.0 757.7,54.0 758.9,54.0 760.1,54.0 761.3,54.0 762.4,54.0 763.6,54.0 764.8,54.0 766.0,54.0"/>
<line x1="606" y1="78" x2="628" y2="78" stroke="#da1e28" stroke-width="2.2"/>
<text x="634" y="82" font-family="Arial" font-size="12">rudder_deg</text>
</svg>