<svg xmlns="http://www.w3.org/2000/svg" width="820" height="320" viewBox="0 0 820 320">
<rect width="100%" height="100%" fill="#ffffff"/>
<text x="54" y="28" font-family="Arial" font-size="18" font-weight="700">Barometer vs Truth</text>
<line x1="54" y1="266" x2="766" y2="266" stroke="#1f2933"/>
<line x1="54" y1="54" x2="54" y2="266" stroke="#1f2933"/>
<text x="54" y="306" font-family="Arial" font-size="12">time (s)</text>
<text x="596" y="306" font-family="Arial" font-size="12">altitude (m)</text>
<text x="58" y="68" font-family="Arial" font-size="11">265</text>
<text x="58" y="260" font-family="Arial" font-size="11">20</text>
<polyline fill="none" stroke="#0f62fe" stroke-width="2.2" points="54.0,266.0 55.2,265.8 56.4,265.6 57.6,265.4 58.7,265.2 59.9,265.0 61.1,264.9 62.3,264.7 63.5,264.5 64.7,264.4 65.9,264.2 67.1,264.1 68.2,263.9 69.4,263.7 70.6,263.6 71.8,263.5 73.0,263.3 74.2,263.2 75.4,263.0 76.5,262.9 77.7,262.8 78.9,262.7 80.1,262.5 81.3,262.4 82.5,262.3 83.7,262.2 84.9,262.1 86.0,262.0 87.2,261.8 88.4,261.7 89.6,261.6 90.8,261.5 92.0,261.4 93.2,261.3 94.3,261.2 95.5,261.1 96.7,261.0 97.9,260.9 99.1,260.9 100.3,260.8 101.5,260.7 102.7,260.6 103.8,260.5 105.0,260.4 106.2,260.4 107.4,260.3 108.6,260.2 109.8,260.1 111.0,260.0 112.1,260.0 113.3,259.9 114.5,259.8 115.7,259.8 116.9,259.7 118.1,259.6 119.3,259.6 120.5,259.5 121.6,259.4 122.8,259.4 124.0,259.3 125.2,259.2 126.4,259.2 127.6,259.1 128.8,259.0 129.9,259.0 131.1,258.9 132.3,258.9 133.5,258.8 134.7,258.8 135.9,258.7 137.1,258.6 138.3,258.6 139.4,258.5 140.6,258.5 141.8,258.4 143.0,258.4 144.2,258.3 145.4,258.2 146.6,258.2 147.7,258.1 148.9,258.1 150.1,258.0 151.3,258.0 152.5,257.9 153.7,257.9 154.9,257.8 156.1,257.7 157.2,257.7 158.4,257.6 159.6,257.6 160.8,257.5 162.0,257.4 163.2,257.4 164.4,257.3 165.5,257.3 166.7,257.2 167.9,257.1 169.1,257.1 170.3,257.0 171.5,256.9 172.7,256.9 173.9,256.8 175.0,256.7 176.2,256.6 177.4,256.6 178.6,256.5 179.8,256.4 181.0,256.3 182.2,256.3 183.3,256.2 184.5,256.1 185.7,256.0 186.9,255.9 188.1,255.8 189.3,255.7 190.5,255.6 191.7,255.5 192.8,255.4 194.0,255.3 195.2,255.2 196.4,255.1 197.6,255.0 198.8,254.9 200.0,254.8 201.1,254.7 202.3,254.6 203.5,254.4 204.7,254.3 205.9,254.2 207.1,254.1 208.3,253.9 209.5,253.8 210.6,253.6 211.8,253.5 213.0,253.4 214.2,253.2 215.4,253.1 216.6,252.9 217.8,252.8 218.9,252.6 220.1,252.4 221.3,252.3 222.5,252.1 223.7,251.9 224.9,251.7 226.1,251.6 227.3,251.4 228.4,251.2 229.6,251.0 230.8,250.8 232.0,250.6 233.2,250.4 234.4,250.2 235.6,250.0 236.7,249.7 237.9,249.5 239.1,249.3 240.3,249.1 241.5,248.8 242.7,248.6 243.9,248.4 245.1,248.1 246.2,247.9 247.4,247.6 248.6,247.3 249.8,247.1 251.0,246.8 252.2,246.5 253.4,246.2 254.5,245.9 255.7,245.6 256.9,245.4 258.1,245.0 259.3,244.7 260.5,244.4 261.7,244.1 262.9,243.8 264.0,243.4 265.2,243.1 266.4,242.8 267.6,242.4 268.8,242.1 270.0,241.7 271.2,241.3 272.3,241.0 273.5,240.6 274.7,240.2 275.9,239.8 277.1,239.4 278.3,239.0 279.5,238.6 280.7,238.2 281.8,237.8 283.0,237.3 284.2,236.9 285.4,236.4 286.6,236.0 287.8,235.5 289.0,235.1 290.1,234.6 291.3,234.1 292.5,233.6 293.7,233.2 294.9,232.7 296.1,232.2 297.3,231.7 298.5,231.1 299.6,230.6 300.8,230.1 302.0,229.6 303.2,229.0 304.4,228.5 305.6,227.9 306.8,227.4 307.9,226.8 309.1,226.3 310.3,225.7 311.5,225.1 312.7,224.5 313.9,224.0 315.1,223.4 316.3,222.8 317.4,222.2 318.6,221.6 319.8,221.0 321.0,220.4 322.2,219.8 323.4,219.2 324.6,218.6 325.7,218.0 326.9,217.4 328.1,216.8 329.3,216.2 330.5,215.6 331.7,215.0 332.9,214.4 334.1,213.8 335.2,213.2 336.4,212.6 337.6,212.0 338.8,211.4 340.0,210.8 341.2,210.2 342.4,209.6 343.5,209.0 344.7,208.4 345.9,207.8 347.1,207.2 348.3,206.6 349.5,206.0 350.7,205.4 351.9,204.8 353.0,204.2 354.2,203.6 355.4,203.0 356.6,202.4 357.8,201.8 359.0,201.2 360.2,200.6 361.3,200.0 362.5,199.4 363.7,198.8 364.9,198.2 366.1,197.6 367.3,197.1 368.5,196.5 369.7,195.9 370.8,195.3 372.0,194.7 373.2,194.1 374.4,193.6 375.6,193.0 376.8,192.4 378.0,191.8 379.1,191.3 380.3,190.7 381.5,190.1 382.7,189.5 383.9,189.0 385.1,188.4 386.3,187.8 387.5,187.3 388.6,186.7 389.8,186.2 391.0,185.6 392.2,185.0 393.4,184.5 394.6,183.9 395.8,183.4 396.9,182.8 398.1,182.3 399.3,181.7 400.5,181.2 401.7,180.6 402.9,180.1 404.1,179.6 405.3,179.0 406.4,178.5 407.6,177.9 408.8,177.4 410.0,176.9 411.2,176.3 412.4,175.8 413.6,175.3 414.7,174.8 415.9,174.2 417.1,173.7 418.3,173.2 419.5,172.7 420.7,172.2 421.9,171.6 423.1,171.1 424.2,170.6 425.4,170.1 426.6,169.6 427.8,169.1 429.0,168.6 430.2,168.1 431.4,167.6 432.5,167.1 433.7,166.6 434.9,166.1 436.1,165.6 437.3,165.1 438.5,164.6 439.7,164.2 440.9,163.7 442.0,163.2 443.2,162.7 444.4,162.3 445.6,161.8 446.8,161.3 448.0,160.8 449.2,160.4 450.3,159.9 451.5,159.5 452.7,159.0 453.9,158.6 455.1,158.1 456.3,157.7 457.5,157.2 458.7,156.8 459.8,156.3 461.0,155.9 462.2,155.4 463.4,155.0 464.6,154.6 465.8,154.2 467.0,153.7 468.1,153.3 469.3,152.9 470.5,152.5 471.7,152.0 472.9,151.6 474.1,151.2 475.3,150.8 476.5,150.4 477.6,150.0 478.8,149.5 480.0,149.1 481.2,148.7 482.4,148.3 483.6,147.9 484.8,147.5 485.9,147.0 487.1,146.6 488.3,146.2 489.5,145.8 490.7,145.4 491.9,144.9 493.1,144.5 494.3,144.1 495.4,143.7 496.6,143.3 497.8,142.8 499.0,142.4 500.2,142.0 501.4,141.6 502.6,141.1 503.7,140.7 504.9,140.3 506.1,139.9 507.3,139.4 508.5,139.0 509.7,138.6 510.9,138.2 512.1,137.7 513.2,137.3 514.4,136.9 515.6,136.4 516.8,136.0 518.0,135.6 519.2,135.1 520.4,134.7 521.5,134.3 522.7,133.8 523.9,133.4 525.1,133.0 526.3,132.5 527.5,132.1 528.7,131.6 529.9,131.2 531.0,130.8 532.2,130.3 533.4,129.9 534.6,129.4 535.8,129.0 537.0,128.5 538.2,128.1 539.3,127.6 540.5,127.1 541.7,126.7 542.9,126.2 544.1,125.8 545.3,125.3 546.5,124.9 547.7,124.4 548.8,123.9 550.0,123.5 551.2,123.0 552.4,122.5 553.6,122.1 554.8,121.6 556.0,121.1 557.1,120.6 558.3,120.2 559.5,119.7 560.7,119.2 561.9,118.7 563.1,118.3 564.3,117.8 565.5,117.3 566.6,116.8 567.8,116.3 569.0,115.8 570.2,115.3 571.4,114.9 572.6,114.4 573.8,113.9 574.9,113.4 576.1,112.9 577.3,112.4 578.5,112.0 579.7,111.5 580.9,111.0 582.1,110.5 583.3,110.1 584.4,109.6 585.6,109.1 586.8,108.6 588.0,108.2 589.2,107.7 590.4,107.2 591.6,106.8 592.7,106.3 593.9,105.8 595.1,105.4 596.3,104.9 597.5,104.4 598.7,104.0 599.9,103.5 601.1,103.1 602.2,102.6 603.4,102.2 604.6,101.7 605.8,101.2 607.0,100.8 608.2,100.3 609.4,99.9 610.5,99.4 611.7,99.0 612.9,98.6 614.1,98.1 615.3,97.7 616.5,97.2 617.7,96.8 618.9,96.3 620.0,95.9 621.2,95.5 622.4,95.0 623.6,94.6 624.8,94.2 626.0,93.7 627.2,93.3 628.3,92.9 629.5,92.5 630.7,92.0 631.9,91.6 633.1,91.2 634.3,90.8 635.5,90.3 636.7,89.9 637.8,89.5 639.0,89.1 640.2,88.7 641.4,88.2 642.6,87.8 643.8,87.4 645.0,87.0 646.1,86.6 647.3,86.2 648.5,85.8 649.7,85.4 650.9,85.0 652.1,84.6 653.3,84.2 654.5,83.8 655.6,83.4 656.8,83.0 658.0,82.6 659.2,82.2 660.4,81.8 661.6,81.4 662.8,81.0 663.9,80.6 665.1,80.2 666.3,79.8 667.5,79.5 668.7,79.1 669.9,78.7 671.1,78.3 672.3,77.9 673.4,77.6 674.6,77.2 675.8,76.8 677.0,76.4 678.2,76.1 679.4,75.7 680.6,75.3 681.7,75.0 682.9,74.6 684.1,74.2 685.3,73.9 686.5,73.5 687.7,73.2 688.9,72.8 690.1,72.4 691.2,72.1 692.4,71.7 693.6,71.4 694.8,71.0 696.0,70.7 697.2,70.4 698.4,70.0 699.5,69.7 700.7,69.3 701.9,69.0 703.1,68.7 704.3,68.3 705.5,68.0 706.7,67.7 707.9,67.4 709.0,67.0 710.2,66.7 711.4,66.4 712.6,66.1 713.8,65.8 715.0,65.4 716.2,65.1 717.3,64.8 718.5,64.5 719.7,64.2 720.9,63.9 722.1,63.6 723.3,63.3 724.5,63.0 725.7,62.7 726.8,62.4 728.0,62.1 729.2,61.8 730.4,61.6 731.6,61.3 732.8,61.0 734.0,60.7 735.1,60.4 736.3,60.1 737.5,59.9 738.7,59.6 739.9,59.3 741.1,59.1 742.3,58.8 743.5,58.5 744.6,58.3 745.8,58.0 747.0,57.8 748.2,57.5 749.4,57.3 750.6,57.0 751.8,56.8 752.9,56.5 754.1,56.3 755.3,56.0 756.5,55.8 757.7,55.6 758.9,55.3 760.1,55.1 761.3,54.9 762.4,54.7 763.6,54.4 764.8,54.2 766.0,54.0"/>
<line x1="606" y1="42" x2="628" y2="42" stroke="#0f62fe" stroke-width="2.2"/>
<text x="634" y="46" font-family="Arial" font-size="12">altitude_m</text>
<polyline fill="none" stroke="#24a148" stroke-width="2.2" points="54.0,265.3 55.2,265.3 56.4,265.5 57.6,265.5 58.7,265.3 59.9,265.3 61.1,265.9 62.3,265.9 63.5,264.1 64.7,264.1 65.9,264.2 67.1,264.2 68.2,263.4 69.4,263.4 70.6,263.3 71.8,263.3 73.0,262.1 74.2,262.1 75.4,262.9 76.5,262.9 77.7,262.6 78.9,262.6 80.1,262.6 81.3,262.6 82.5,262.9 83.7,262.9 84.9,263.0 86.0,263.0 87.2,260.9 88.4,260.9 89.6,261.6 90.8,261.6 92.0,261.7 93.2,261.7 94.3,261.4 95.5,261.4 96.7,260.7 97.9,260.7 99.1,260.2 100.3,260.2 101.5,260.1 102.7,260.1 103.8,261.1 105.0,261.1 106.2,260.5 107.4,260.5 108.6,260.3 109.8,260.3 111.0,259.8 112.1,259.8 113.3,260.0 114.5,260.0 115.7,259.8 116.9,259.8 118.1,259.2 119.3,259.2 120.5,259.0 121.6,259.0 122.8,259.4 124.0,259.4 125.2,258.9 126.4,258.9 127.6,258.9 128.8,258.9 129.9,259.7 131.1,259.7 132.3,258.2 133.5,258.2 134.7,259.7 135.9,259.7 137.1,258.3 138.3,258.3 139.4,258.3 140.6,258.3 141.8,258.4 143.0,258.4 144.2,257.8 145.4,257.8 146.6,258.1 147.7,258.1 148.9,257.0 150.1,257.0 151.3,258.4 152.5,258.4 153.7,257.6 154.9,257.6 156.1,257.9 157.2,257.9 158.4,257.9 159.6,257.9 160.8,257.1 162.0,257.1 163.2,257.5 164.4,257.5 165.5,257.0 166.7,257.0 167.9,257.4 169.1,257.4 170.3,255.6 171.5,255.6 172.7,256.2 173.9,256.2 175.0,256.7 176.2,256.7 177.4,257.0 178.6,257.0 179.8,255.8 181.0,255.8 182.2,256.0 183.3,256.0 184.5,256.3 185.7,256.3 186.9,255.2 188.1,255.2 189.3,255.2 190.5,255.2 191.7,254.2 192.8,254.2 194.0,255.4 195.2,255.4 196.4,254.6 197.6,254.6 198.8,254.8 200.0,254.8 201.1,254.2 202.3,254.2 203.5,253.7 204.7,253.7 205.9,255.0 207.1,255.0 208.3,254.2 209.5,254.2 210.6,254.4 211.8,254.4 213.0,252.8 214.2,252.8 215.4,252.4 216.6,252.4 217.8,253.9 218.9,253.9 220.1,252.4 221.3,252.4 222.5,252.1 223.7,252.1 224.9,251.2 226.1,251.2 227.3,251.3 228.4,251.3 229.6,250.7 230.8,250.7 232.0,250.1 233.2,250.1 234.4,250.4 235.6,250.4 236.7,250.4 237.9,250.4 239.1,249.8 240.3,249.8 241.5,248.0 242.7,248.0 243.9,248.0 245.1,248.0 246.2,248.0 247.4,248.0 248.6,247.5 249.8,247.5 251.0,246.7 252.2,246.7 253.4,246.0 254.5,246.0 255.7,246.1 256.9,246.1 258.1,244.9 259.3,244.9 260.5,244.0 261.7,244.0 262.9,243.1 264.0,243.1 265.2,242.6 266.4,242.6 267.6,242.2 268.8,242.2 270.0,242.5 271.2,242.5 272.3,240.7 273.5,240.7 274.7,238.4 275.9,238.4 277.1,239.2 278.3,239.2 279.5,238.5 280.7,238.5 281.8,238.1 283.0,238.1 284.2,238.0 285.4,238.0 286.6,236.0 287.8,236.0 289.0,234.2 290.1,234.2 291.3,233.2 292.5,233.2 293.7,232.3 294.9,232.3 296.1,232.8 297.3,232.8 298.5,231.7 299.6,231.7 300.8,230.0 302.0,230.0 303.2,229.0 304.4,229.0 305.6,228.0 306.8,228.0 307.9,226.9 309.1,226.9 310.3,226.2 311.5,226.2 312.7,225.1 313.9,225.1 315.1,222.4 316.3,222.4 317.4,221.7 318.6,221.7 319.8,221.6 321.0,221.6 322.2,219.8 323.4,219.8 324.6,217.5 325.7,217.5 326.9,216.8 328.1,216.8 329.3,217.1 330.5,217.1 331.7,215.7 332.9,215.7 334.1,213.3 335.2,213.3 336.4,212.4 337.6,212.4 338.8,210.8 340.0,210.8 341.2,210.6 342.4,210.6 343.5,208.7 344.7,208.7 345.9,207.6 347.1,207.6 348.3,207.1 349.5,207.1 350.7,205.4 351.9,205.4 353.0,204.5 354.2,204.5 355.4,202.4 356.6,202.4 357.8,201.9 359.0,201.9 360.2,200.8 361.3,200.8 362.5,198.9 363.7,198.9 364.9,199.2 366.1,199.2 367.3,196.1 368.5,196.1 369.7,196.1 370.8,196.1 372.0,194.3 373.2,194.3 374.4,193.3 375.6,193.3 376.8,192.8 378.0,192.8 379.1,192.1 380.3,192.1 381.5,190.5 382.7,190.5 383.9,188.7 385.1,188.7 386.3,187.7 387.5,187.7 388.6,186.9 389.8,186.9 391.0,185.4 392.2,185.4 393.4,184.2 394.6,184.2 395.8,183.2 396.9,183.2 398.1,182.4 399.3,182.4 400.5,181.1 401.7,181.1 402.9,180.5 404.1,180.5 405.3,179.0 406.4,179.0 407.6,177.7 408.8,177.7 410.0,176.6 411.2,176.6 412.4,176.2 413.6,176.2 414.7,174.9 415.9,174.9 417.1,172.9 418.3,172.9 419.5,172.4 420.7,172.4 421.9,171.3 423.1,171.3 424.2,171.6 425.4,171.6 426.6,170.5 427.8,170.5 429.0,168.2 430.2,168.2 431.4,168.1 432.5,168.1 433.7,166.8 434.9,166.8 436.1,165.6 437.3,165.6 438.5,164.5 439.7,164.5 440.9,163.6 442.0,163.6 443.2,162.0 444.4,162.0 445.6,161.8 446.8,161.8 448.0,160.9 449.2,160.9 450.3,160.4 451.5,160.4 452.7,159.7 453.9,159.7 455.1,158.3 456.3,158.3 457.5,157.1 458.7,157.1 459.8,156.3 461.0,156.3 462.2,155.7 463.4,155.7 464.6,154.2 465.8,154.2 467.0,153.4 468.1,153.4 469.3,153.2 470.5,153.2 471.7,151.1 472.9,151.1 474.1,151.7 475.3,151.7 476.5,149.8 477.6,149.8 478.8,149.1 480.0,149.1 481.2,148.2 482.4,148.2 483.6,147.1 484.8,147.1 485.9,147.1 487.1,147.1 488.3,146.0 489.5,146.0 490.7,146.0 491.9,146.0 493.1,144.0 494.3,144.0 495.4,143.8 496.6,143.8 497.8,142.2 499.0,142.2 500.2,141.4 501.4,141.4 502.6,140.6 503.7,140.6 504.9,140.6 506.1,140.6 507.3,140.4 508.5,140.4 509.7,138.1 510.9,138.1 512.1,137.7 513.2,137.7 514.4,136.8 515.6,136.8 516.8,135.5 518.0,135.5 519.2,135.2 520.4,135.2 521.5,134.5 522.7,134.5 523.9,133.0 525.1,133.0 526.3,133.2 527.5,133.2 528.7,131.7 529.9,131.7 531.0,130.7 532.2,130.7 533.4,130.0 534.6,130.0 535.8,130.0 537.0,130.0 538.2,127.4 539.3,127.4 540.5,126.9 541.7,126.9 542.9,125.7 544.1,125.7 545.3,124.7 546.5,124.7 547.7,123.6 548.8,123.6 550.0,123.4 551.2,123.4 552.4,122.7 553.6,122.7 554.8,121.2 556.0,121.2 557.1,120.5 558.3,120.5 559.5,120.2 560.7,120.2 561.9,119.5 563.1,119.5 564.3,118.3 565.5,118.3 566.6,116.2 567.8,116.2 569.0,114.8 570.2,114.8 571.4,114.5 572.6,114.5 573.8,113.4 574.9,113.4 576.1,113.5 577.3,113.5 578.5,111.6 579.7,111.6 580.9,111.0 582.1,111.0 583.3,110.0 584.4,110.0 585.6,109.1 586.8,109.1 588.0,107.9 589.2,107.9 590.4,106.8 591.6,106.8 592.7,106.1 593.9,106.1 595.1,105.3 596.3,105.3 597.5,103.9 598.7,103.9 599.9,103.8 601.1,103.8 602.2,102.3 603.4,102.3 604.6,102.0 605.8,102.0 607.0,100.1 608.2,100.1 609.4,99.6 610.5,99.6 611.7,98.7 612.9,98.7 614.1,98.5 615.3,98.5 616.5,97.7 617.7,97.7 618.9,96.3 620.0,96.3 621.2,95.5 622.4,95.5 623.6,95.0 624.8,95.0 626.0,94.3 627.2,94.3 628.3,93.2 629.5,93.2 630.7,92.5 631.9,92.5 633.1,91.1 634.3,91.1 635.5,90.2 636.7,90.2 637.8,89.9 639.0,89.9 640.2,88.9 641.4,88.9 642.6,87.7 643.8,87.7 645.0,86.2 646.1,86.2 647.3,85.8 648.5,85.8 649.7,84.8 650.9,84.8 652.1,84.7 653.3,84.7 654.5,84.6 655.6,84.6 656.8,83.0 658.0,83.0 659.2,82.6 660.4,82.6 661.6,80.9 662.8,80.9 663.9,79.8 665.1,79.8 666.3,80.2 667.5,80.2 668.7,79.0 669.9,79.0 671.1,78.4 672.3,78.4 673.4,77.5 674.6,77.5 675.8,75.8 677.0,75.8 678.2,76.7 679.4,76.7 680.6,76.1 681.7,76.1 682.9,73.3 684.1,73.3 685.3,73.2 686.5,73.2 687.7,72.9 688.9,72.9 690.1,72.0 691.2,72.0 692.4,71.4 693.6,71.4 694.8,72.1 696.0,72.1 697.2,71.6 698.4,71.6 699.5,69.5 700.7,69.5 701.9,69.9 703.1,69.9 704.3,69.3 705.5,69.3 706.7,68.1 707.9,68.1 709.0,67.1 710.2,67.1 711.4,66.9 712.6,66.9 713.8,66.0 715.0,66.0 716.2,65.0 717.3,65.0 718.5,63.8 719.7,63.8 720.9,63.8 722.1,63.8 723.3,62.8 724.5,62.8 725.7,62.9 726.8,62.9 728.0,62.3 729.2,62.3 730.4,61.2 731.6,61.2 732.8,61.7 734.0,61.7 735.1,59.6 736.3,59.6 737.5,60.4 738.7,60.4 739.9,59.6 741.1,59.6 742.3,59.3 743.5,59.3 744.6,57.5 745.8,57.5 747.0,57.7 748.2,57.7 749.4,57.5 750.6,57.5 751.8,56.9 752.9,56.9 754.1,55.5 755.3,55.5 756.5,55.5 757.7,55.5 758.9,54.3 760.1,54.3 761.3,55.5 762.4,55.5 763.6,54.4 764.8,54.4 766.0,54.1"/>
<line x1="606" y1="60" x2="628" y2="60" stroke="#24a148" stroke-width="2.2"/>
<text x="634" y="64" font-family="Arial" font-size="12">baro_alt_m</text>
</svg>