<svg xmlns="http://www.w3.org/2000/svg" width="820" height="320" viewBox="0 0 820 320">
<rect width="100%" height="100%" fill="#ffffff"/>
<text x="54" y="28" font-family="Arial" font-size="18" font-weight="700">Dynamic Pressure</text>
<line x1="54" y1="266" x2="766" y2="266" stroke="#1f2933"/>
<line x1="54" y1="54" x2="54" y2="266" stroke="#1f2933"/>
<text x="54" y="306" font-family="Arial" font-size="12">time (s)</text>
<text x="596" y="306" font-family="Arial" font-size="12">qbar (Pa)</text>
<text x="58" y="68" font-family="Arial" font-size="11">2.45e+04</text>
<text x="58" y="260" font-family="Arial" font-size="11">4.54e+03</text>
<polyline fill="none" stroke="#0f62fe" stroke-width="2.2" points="54.0,266.0 55.2,265.4 56.4,264.9 57.6,264.3 58.7,263.7 59.9,263.1 61.1,262.5 62.3,261.9 63.5,261.2 64.7,260.6 65.9,259.9 67.1,259.2 68.2,258.5 69.4,257.8 70.6,257.1 71.8,256.4 73.0,255.6 74.2,254.9 75.4,254.1 76.5,253.4 77.7,252.6 78.9,251.8 80.1,251.1 81.3,250.3 82.5,249.5 83.7,248.8 84.9,248.0 86.0,247.2 87.2,246.4 88.4,245.6 89.6,244.8 90.8,244.0 92.0,243.2 93.2,242.4 94.3,241.6 95.5,240.8 96.7,240.0 97.9,239.2 99.1,238.3 100.3,237.5 101.5,236.7 102.7,235.8 103.8,235.0 105.0,234.2 106.2,233.3 107.4,232.5 108.6,231.6 109.8,230.8 111.0,229.9 112.1,229.1 113.3,228.2 114.5,227.3 115.7,226.5 116.9,225.6 118.1,224.7 119.3,223.8 120.5,222.9 121.6,222.1 122.8,221.2 124.0,220.3 125.2,219.4 126.4,218.5 127.6,217.6 128.8,216.7 129.9,215.8 131.1,214.9 132.3,214.0 133.5,213.0 134.7,212.1 135.9,211.2 137.1,210.3 138.3,209.4 139.4,208.4 140.6,207.5 141.8,206.6 143.0,205.6 144.2,204.7 145.4,203.8 146.6,202.8 147.7,201.9 148.9,200.9 150.1,200.0 151.3,199.0 152.5,198.1 153.7,197.1 154.9,196.2 156.1,195.2 157.2,194.2 158.4,193.3 159.6,192.3 160.8,191.4 162.0,190.4 163.2,189.4 164.4,188.4 165.5,187.5 166.7,186.5 167.9,185.5 169.1,184.6 170.3,183.6 171.5,182.6 172.7,181.6 173.9,180.6 175.0,179.7 176.2,178.7 177.4,177.7 178.6,176.7 179.8,175.7 181.0,174.7 182.2,173.7 183.3,172.8 184.5,171.8 185.7,170.8 186.9,169.8 188.1,168.8 189.3,167.8 190.5,166.8 191.7,165.8 192.8,164.8 194.0,163.8 195.2,162.8 196.4,161.8 197.6,160.8 198.8,159.8 200.0,158.8 201.1,157.8 202.3,156.8 203.5,155.8 204.7,154.8 205.9,153.8 207.1,152.8 208.3,151.8 209.5,150.8 210.6,149.7 211.8,148.7 213.0,147.7 214.2,146.7 215.4,145.7 216.6,144.7 217.8,143.7 218.9,142.7 220.1,141.6 221.3,140.6 222.5,139.6 223.7,138.6 224.9,137.6 226.1,136.6 227.3,135.5 228.4,134.5 229.6,133.5 230.8,132.5 232.0,131.5 233.2,130.4 234.4,129.4 235.6,128.4 236.7,127.4 237.9,126.3 239.1,125.3 240.3,124.3 241.5,123.2 242.7,122.2 243.9,121.2 245.1,120.2 246.2,119.1 247.4,118.1 248.6,117.1 249.8,116.0 251.0,115.0 252.2,113.9 253.4,112.9 254.5,111.9 255.7,110.8 256.9,109.8 258.1,108.8 259.3,107.7 260.5,106.7 261.7,105.6 262.9,104.6 264.0,103.5 265.2,102.5 266.4,101.5 267.6,100.4 268.8,99.4 270.0,98.3 271.2,97.3 272.3,96.2 273.5,95.2 274.7,94.2 275.9,93.4 277.1,92.9 278.3,92.5 279.5,92.2 280.7,91.8 281.8,91.2 283.0,90.4 284.2,89.7 285.4,89.0 286.6,88.4 287.8,87.9 289.0,87.4 290.1,86.9 291.3,86.4 292.5,85.8 293.7,85.2 294.9,84.6 296.1,84.0 297.3,83.5 298.5,83.0 299.6,82.5 300.8,82.0 302.0,81.4 303.2,80.9 304.4,80.4 305.6,79.9 306.8,79.4 307.9,78.9 309.1,78.4 310.3,77.9 311.5,77.5 312.7,77.0 313.9,76.5 315.1,76.0 316.3,75.6 317.4,75.1 318.6,74.7 319.8,74.2 321.0,73.8 322.2,73.3 323.4,72.9 324.6,72.5 325.7,72.1 326.9,71.6 328.1,71.2 329.3,70.8 330.5,70.4 331.7,70.0 332.9,69.6 334.1,69.3 335.2,68.9 336.4,68.5 337.6,68.1 338.8,67.8 340.0,67.4 341.2,67.0 342.4,66.7 343.5,66.3 344.7,66.0 345.9,65.6 347.1,65.3 348.3,65.0 349.5,64.7 350.7,64.3 351.9,64.0 353.0,63.7 354.2,63.4 355.4,63.1 356.6,62.8 357.8,62.5 359.0,62.2 360.2,62.0 361.3,61.7 362.5,61.4 363.7,61.1 364.9,60.9 366.1,60.6 367.3,60.4 368.5,60.1 369.7,59.9 370.8,59.6 372.0,59.4 373.2,59.2 374.4,58.9 375.6,58.7 376.8,58.5 378.0,58.3 379.1,58.1 380.3,57.9 381.5,57.7 382.7,57.5 383.9,57.3 385.1,57.2 386.3,57.0 387.5,56.8 388.6,56.7 389.8,56.5 391.0,56.4 392.2,56.2 393.4,56.1 394.6,55.9 395.8,55.8 396.9,55.7 398.1,55.5 399.3,55.4 400.5,55.3 401.7,55.2 402.9,55.1 404.1,55.0 405.3,54.9 406.4,54.8 407.6,54.7 408.8,54.7 410.0,54.6 411.2,54.5 412.4,54.5 413.6,54.4 414.7,54.3 415.9,54.3 417.1,54.2 418.3,54.2 419.5,54.2 420.7,54.1 421.9,54.1 423.1,54.1 424.2,54.0 425.4,54.0 426.6,54.0 427.8,54.0 429.0,54.0 430.2,54.0 431.4,54.0 432.5,54.0 433.7,54.0 434.9,54.0 436.1,54.1 437.3,54.1 438.5,54.1 439.7,54.1 440.9,54.2 442.0,54.2 443.2,54.3 444.4,54.3 445.6,54.4 446.8,54.4 448.0,54.5 449.2,54.5 450.3,54.6 451.5,54.7 452.7,54.7 453.9,54.8 455.1,54.9 456.3,55.0 457.5,55.1 458.7,55.2 459.8,55.3 461.0,55.4 462.2,55.5 463.4,55.6 464.6,55.7 465.8,55.8 467.0,55.9 468.1,56.0 469.3,56.1 470.5,56.3 471.7,56.4 472.9,56.5 474.1,56.6 475.3,56.8 476.5,56.9 477.6,57.1 478.8,57.2 480.0,57.4 481.2,57.5 482.4,57.7 483.6,57.8 484.8,58.0 485.9,58.1 487.1,58.3 488.3,58.5 489.5,58.6 490.7,58.8 491.9,59.0 493.1,59.2 494.3,59.3 495.4,59.5 496.6,59.7 497.8,59.9 499.0,60.1 500.2,60.3 501.4,60.5 502.6,60.7 503.7,60.9 504.9,61.1 506.1,61.3 507.3,61.5 508.5,61.7 509.7,61.9 510.9,62.1 512.1,62.3 513.2,62.5 514.4,62.8 515.6,63.0 516.8,63.2 518.0,63.4 519.2,63.6 520.4,63.9 521.5,64.1 522.7,64.3 523.9,64.6 525.1,64.8 526.3,65.0 527.5,65.3 528.7,65.5 529.9,65.8 531.0,66.0 532.2,66.3 533.4,66.5 534.6,66.8 535.8,67.0 537.0,67.3 538.2,67.5 539.3,67.8 540.5,68.0 541.7,68.3 542.9,68.5 544.1,68.8 545.3,69.1 546.5,69.3 547.7,69.6 548.8,69.8 550.0,70.1 551.2,70.4 552.4,70.6 553.6,70.9 554.8,71.2 556.0,71.5 557.1,71.7 558.3,72.0 559.5,72.3 560.7,72.6 561.9,72.8 563.1,73.1 564.3,73.4 565.5,73.7 566.6,74.0 567.8,74.2 569.0,74.5 570.2,76.5 571.4,78.4 572.6,80.4 573.8,82.3 574.9,84.2 576.1,86.1 577.3,87.9 578.5,89.8 579.7,91.6 580.9,93.4 582.1,95.2 583.3,97.0 584.4,98.8 585.6,100.5 586.8,102.2 588.0,104.0 589.2,105.7 590.4,107.4 591.6,109.0 592.7,110.7 593.9,112.3 595.1,114.0 596.3,115.6 597.5,117.2 598.7,118.8 599.9,120.4 601.1,121.9 602.2,123.5 603.4,125.0 604.6,126.5 605.8,128.0 607.0,129.5 608.2,131.0 609.4,132.5 610.5,134.0 611.7,135.4 612.9,136.8 614.1,138.3 615.3,139.7 616.5,141.1 617.7,142.5 618.9,143.8 620.0,145.2 621.2,146.5 622.4,147.9 623.6,149.2 624.8,150.5 626.0,151.8 627.2,153.1 628.3,154.4 629.5,155.7 630.7,157.0 631.9,158.2 633.1,159.5 634.3,160.7 635.5,161.9 636.7,163.1 637.8,164.3 639.0,165.5 640.2,166.7 641.4,167.9 642.6,169.1 643.8,170.2 645.0,171.4 646.1,172.5 647.3,173.6 648.5,174.7 649.7,175.9 650.9,177.0 652.1,178.0 653.3,179.1 654.5,180.2 655.6,181.3 656.8,182.3 658.0,183.4 659.2,184.4 660.4,185.4 661.6,186.5 662.8,187.5 663.9,188.5 665.1,189.5 666.3,190.5 667.5,191.5 668.7,192.5 669.9,193.5 671.1,194.6 672.3,195.7 673.4,196.8 674.6,197.9 675.8,199.0 677.0,200.0 678.2,201.1 679.4,202.1 680.6,203.1 681.7,204.1 682.9,205.0 684.1,206.0 685.3,206.9 686.5,207.7 687.7,208.6 688.9,209.4 690.1,210.3 691.2,211.1 692.4,211.9 693.6,212.7 694.8,213.5 696.0,214.3 697.2,215.1 698.4,215.9 699.5,216.7 700.7,217.5 701.9,218.2 703.1,218.9 704.3,219.7 705.5,220.4 706.7,221.1 707.9,221.8 709.0,222.5 710.2,223.2 711.4,223.9 712.6,224.6 713.8,225.3 715.0,226.0 716.2,226.7 717.3,227.4 718.5,228.1 719.7,228.8 720.9,229.6 722.1,230.3 723.3,231.0 724.5,231.8 725.7,232.5 726.8,233.2 728.0,233.9 729.2,234.7 730.4,235.4 731.6,236.1 732.8,236.7 734.0,237.4 735.1,238.1 736.3,238.8 737.5,239.4 738.7,240.1 739.9,240.8 741.1,241.4 742.3,242.1 743.5,242.7 744.6,243.4 745.8,244.0 747.0,244.7 748.2,245.3 749.4,245.9 750.6,246.5 751.8,247.1 752.9,247.6 754.1,248.2 755.3,248.7 756.5,249.3 757.7,249.8 758.9,250.3 760.1,250.9 761.3,251.4 762.4,251.9 763.6,252.4 764.8,252.9 766.0,253.4"/>
<line x1="606" y1="42" x2="628" y2="42" stroke="#0f62fe" stroke-width="2.2"/>
<text x="634" y="46" font-family="Arial" font-size="12">qbar_pa</text>
</svg>