<svg xmlns="http://www.w3.org/2000/svg" width="820" height="320" viewBox="0 0 820 320">
<rect width="100%" height="100%" fill="#ffffff"/>
<text x="54" y="28" font-family="Arial" font-size="18" font-weight="700">Heading Command Tracking</text>
<line x1="54" y1="266" x2="766" y2="266" stroke="#1f2933"/>
<line x1="54" y1="54" x2="54" y2="266" stroke="#1f2933"/>
<text x="54" y="306" font-family="Arial" font-size="12">time (s)</text>
<text x="596" y="306" font-family="Arial" font-size="12">heading (deg)</text>
<text x="58" y="68" font-family="Arial" font-size="11">180</text>
<text x="58" y="260" font-family="Arial" font-size="11">-172</text>
<polyline fill="none" stroke="#0f62fe" stroke-width="2.2" points="54.0,162.4 55.2,162.4 56.4,162.4 57.6,162.4 58.7,162.4 59.9,162.4 61.1,162.4 62.3,162.4 63.5,162.4 64.7,162.4 65.9,162.4 67.1,162.4 68.2,162.4 69.4,162.4 70.6,162.4 71.8,162.4 73.0,162.4 74.2,162.4 75.4,162.4 76.5,162.4 77.7,162.4 78.9,162.4 80.1,162.4 81.3,162.4 82.5,162.4 83.7,162.4 84.9,162.4 86.0,162.4 87.2,162.4 88.4,162.4 89.6,162.4 90.8,162.4 92.0,162.4 93.2,162.4 94.3,162.4 95.5,162.4 96.7,162.4 97.9,162.4 99.1,162.4 100.3,162.4 101.5,162.4 102.7,162.4 103.8,162.4 105.0,162.4 106.2,162.4 107.4,162.4 108.6,162.4 109.8,162.4 111.0,162.4 112.1,162.4 113.3,162.4 114.5,162.4 115.7,162.4 116.9,162.4 118.1,162.4 119.3,162.4 120.5,162.4 121.6,162.4 122.8,162.4 124.0,162.4 125.2,162.4 126.4,162.4 127.6,162.4 128.8,162.4 129.9,162.4 131.1,162.4 132.3,162.4 133.5,162.4 134.7,162.4 135.9,162.4 137.1,162.4 138.3,162.4 139.4,162.4 140.6,162.4 141.8,162.4 143.0,162.4 144.2,162.4 145.4,162.4 146.6,162.4 147.7,162.4 148.9,162.4 150.1,162.4 151.3,162.4 152.5,162.4 153.7,162.4 154.9,162.4 156.1,162.4 157.2,162.4 158.4,162.4 159.6,162.4 160.8,162.4 162.0,162.4 163.2,162.4 164.4,162.4 165.5,162.4 166.7,162.4 167.9,162.4 169.1,162.4 170.3,162.4 171.5,162.4 172.7,162.4 173.9,162.4 175.0,162.4 176.2,162.4 177.4,162.4 178.6,162.4 179.8,162.4 181.0,162.4 182.2,162.4 183.3,162.4 184.5,162.4 185.7,162.4 186.9,162.4 188.1,162.4 189.3,162.4 190.5,162.4 191.7,162.4 192.8,162.4 194.0,162.4 195.2,162.4 196.4,162.4 197.6,162.4 198.8,162.4 200.0,162.4 201.1,162.4 202.3,162.4 203.5,162.4 204.7,162.4 205.9,162.4 207.1,162.4 208.3,162.4 209.5,162.4 210.6,162.4 211.8,162.4 213.0,162.4 214.2,162.4 215.4,162.4 216.6,162.4 217.8,162.4 218.9,162.4 220.1,162.4 221.3,162.4 222.5,162.4 223.7,162.4 224.9,162.4 226.1,162.4 227.3,162.4 228.4,162.4 229.6,162.4 230.8,162.4 232.0,162.4 233.2,162.4 234.4,162.4 235.6,162.4 236.7,162.4 237.9,162.4 239.1,162.4 240.3,162.4 241.5,162.4 242.7,162.4 243.9,162.4 245.1,162.4 246.2,162.4 247.4,162.4 248.6,162.4 249.8,162.4 251.0,162.4 252.2,162.4 253.4,162.4 254.5,162.4 255.7,162.4 256.9,162.4 258.1,162.4 259.3,162.4 260.5,162.4 261.7,162.4 262.9,162.4 264.0,162.4 265.2,162.4 266.4,162.4 267.6,162.4 268.8,162.4 270.0,162.4 271.2,162.4 272.3,162.4 273.5,162.4 274.7,162.4 275.9,162.4 277.1,162.4 278.3,162.4 279.5,162.4 280.7,162.4 281.8,162.4 283.0,162.4 284.2,162.4 285.4,162.4 286.6,162.4 287.8,162.4 289.0,162.4 290.1,162.4 291.3,162.4 292.5,162.4 293.7,162.4 294.9,162.4 296.1,162.4 297.3,162.4 298.5,162.4 299.6,162.4 300.8,162.4 302.0,162.4 303.2,162.4 304.4,162.4 305.6,162.4 306.8,162.4 307.9,162.4 309.1,162.4 310.3,162.4 311.5,162.4 312.7,162.4 313.9,162.4 315.1,162.4 316.3,162.4 317.4,162.4 318.6,162.4 319.8,162.4 321.0,162.4 322.2,162.4 323.4,162.4 324.6,162.4 325.7,162.4 326.9,162.4 328.1,162.4 329.3,162.4 330.5,162.4 331.7,162.4 332.9,162.4 334.1,162.4 335.2,162.4 336.4,162.4 337.6,162.4 338.8,162.4 340.0,162.4 341.2,162.4 342.4,162.4 343.5,162.4 344.7,162.4 345.9,162.4 347.1,162.4 348.3,162.4 349.5,162.4 350.7,162.4 351.9,162.4 353.0,162.4 354.2,162.4 355.4,162.4 356.6,162.4 357.8,162.4 359.0,162.4 360.2,162.4 361.3,162.4 362.5,162.4 363.7,162.4 364.9,162.4 366.1,162.4 367.3,162.4 368.5,162.4 369.7,162.4 370.8,162.4 372.0,162.4 373.2,162.4 374.4,162.4 375.6,162.4 376.8,162.4 378.0,162.4 379.1,162.4 380.3,162.4 381.5,162.4 382.7,162.4 383.9,162.4 385.1,162.4 386.3,162.4 387.5,162.4 388.6,162.4 389.8,162.4 391.0,162.4 392.2,162.4 393.4,162.4 394.6,162.4 395.8,162.4 396.9,162.4 398.1,162.4 399.3,162.4 400.5,162.4 401.7,162.4 402.9,162.4 404.1,162.4 405.3,162.4 406.4,162.4 407.6,162.4 408.8,162.4 410.0,162.4 411.2,162.4 412.4,162.4 413.6,162.4 414.7,162.4 415.9,162.4 417.1,162.4 418.3,162.4 419.5,162.4 420.7,162.4 421.9,162.4 423.1,162.4 424.2,162.4 425.4,162.4 426.6,162.4 427.8,162.4 429.0,162.4 430.2,162.4 431.4,162.4 432.5,162.4 433.7,162.4 434.9,162.4 436.1,162.4 437.3,162.4 438.5,162.4 439.7,162.4 440.9,162.4 442.0,162.4 443.2,162.4 444.4,162.4 445.6,162.4 446.8,162.4 448.0,162.4 449.2,162.4 450.3,162.4 451.5,162.4 452.7,162.4 453.9,162.4 455.1,162.4 456.3,162.4 457.5,162.4 458.7,162.4 459.8,162.4 461.0,162.4 462.2,162.4 463.4,162.4 464.6,162.4 465.8,162.4 467.0,162.4 468.1,162.4 469.3,162.4 470.5,162.4 471.7,162.4 472.9,162.4 474.1,162.4 475.3,162.4 476.5,162.4 477.6,162.4 478.8,162.4 480.0,162.4 481.2,162.4 482.4,162.4 483.6,162.4 484.8,162.4 485.9,162.4 487.1,162.4 488.3,162.4 489.5,162.4 490.7,162.4 491.9,162.4 493.1,162.4 494.3,162.4 495.4,162.4 496.6,162.4 497.8,162.4 499.0,162.4 500.2,162.4 501.4,162.4 502.6,162.4 503.7,162.4 504.9,162.4 506.1,162.4 507.3,162.4 508.5,162.4 509.7,162.4 510.9,162.4 512.1,162.4 513.2,162.4 514.4,162.4 515.6,162.4 516.8,162.4 518.0,162.4 519.2,162.4 520.4,162.4 521.5,162.4 522.7,162.4 523.9,162.4 525.1,162.4 526.3,162.4 527.5,162.4 528.7,162.4 529.9,162.4 531.0,162.4 532.2,162.4 533.4,162.4 534.6,162.4 535.8,162.4 537.0,162.4 538.2,162.4 539.3,162.4 540.5,162.4 541.7,162.4 542.9,162.4 544.1,162.4 545.3,162.4 546.5,162.4 547.7,162.4 548.8,162.4 550.0,162.4 551.2,162.4 552.4,162.4 553.6,162.4 554.8,162.4 556.0,162.4 557.1,162.4 558.3,162.4 559.5,162.4 560.7,162.4 561.9,162.4 563.1,162.4 564.3,162.4 565.5,162.4 566.6,162.4 567.8,162.4 569.0,162.4 570.2,162.4 571.4,162.4 572.6,162.4 573.8,162.4 574.9,162.4 576.1,162.4 577.3,162.4 578.5,162.4 579.7,162.4 580.9,162.4 582.1,162.4 583.3,162.4 584.4,162.4 585.6,162.4 586.8,162.4 588.0,162.4 589.2,162.4 590.4,162.4 591.6,162.4 592.7,162.4 593.9,162.4 595.1,162.4 596.3,162.4 597.5,162.4 598.7,162.4 599.9,162.4 601.1,162.4 602.2,162.4 603.4,162.4 604.6,162.4 605.8,162.4 607.0,162.4 608.2,162.4 609.4,162.4 610.5,162.4 611.7,162.4 612.9,162.4 614.1,162.4 615.3,162.4 616.5,162.4 617.7,162.4 618.9,162.4 620.0,162.4 621.2,162.4 622.4,162.4 623.6,162.4 624.8,162.4 626.0,162.4 627.2,162.4 628.3,162.4 629.5,162.4 630.7,162.4 631.9,162.4 633.1,162.4 634.3,162.4 635.5,162.4 636.7,162.4 637.8,162.4 639.0,162.4 640.2,162.4 641.4,162.4 642.6,162.4 643.8,162.4 645.0,162.4 646.1,162.4 647.3,162.4 648.5,162.4 649.7,162.4 650.9,162.4 652.1,162.4 653.3,162.4 654.5,162.4 655.6,162.4 656.8,162.4 658.0,162.4 659.2,162.4 660.4,162.4 661.6,162.4 662.8,162.4 663.9,162.4 665.1,162.4 666.3,162.4 667.5,162.4 668.7,162.4 669.9,162.4 671.1,162.4 672.3,162.4 673.4,162.4 674.6,162.4 675.8,162.4 677.0,162.4 678.2,162.4 679.4,162.4 680.6,162.4 681.7,162.4 682.9,162.4 684.1,162.4 685.3,162.4 686.5,162.4 687.7,162.4 688.9,162.4 690.1,162.4 691.2,162.4 692.4,162.4 693.6,162.4 694.8,162.4 696.0,162.4 697.2,162.4 698.4,162.4 699.5,162.4 700.7,162.4 701.9,162.4 703.1,162.4 704.3,162.4 705.5,162.4 706.7,162.4 707.9,162.4 709.0,162.4 710.2,162.4 711.4,162.4 712.6,162.4 713.8,162.4 715.0,162.4 716.2,162.4 717.3,162.4 718.5,162.4 719.7,162.4 720.9,162.4 722.1,162.4 723.3,162.4 724.5,162.4 725.7,162.4 726.8,162.4 728.0,162.4 729.2,162.4 730.4,162.4 731.6,162.4 732.8,162.4 734.0,162.4 735.1,162.4 736.3,162.4 737.5,162.4 738.7,162.4 739.9,162.4 741.1,162.4 742.3,162.4 743.5,162.4 744.6,162.4 745.8,162.4 747.0,162.4 748.2,162.4 749.4,162.4 750.6,162.4 751.8,162.4 752.9,162.4 754.1,162.4 755.3,162.4 756.5,162.4 757.7,162.4 758.9,162.4 760.1,162.4 761.3,162.4 762.4,162.4 763.6,162.4 764.8,162.4 766.0,162.4"/>
<line x1="606" y1="42" x2="628" y2="42" stroke="#0f62fe" stroke-width="2.2"/>
<text x="634" y="46" font-family="Arial" font-size="12">heading_command_deg</text>
<polyline fill="none" stroke="#24a148" stroke-width="2.2" points="54.0,162.4 55.2,162.4 56.4,162.4 57.6,162.4 58.7,162.4 59.9,162.4 61.1,162.4 62.3,162.4 63.5,162.4 64.7,162.4 65.9,162.4 67.1,162.4 68.2,162.4 69.4,162.4 70.6,162.4 71.8,162.4 73.0,162.4 74.2,162.4 75.4,162.4 76.5,162.4 77.7,162.4 78.9,162.4 80.1,162.4 81.3,162.4 82.5,162.4 83.7,162.4 84.9,162.4 86.0,162.4 87.2,162.4 88.4,162.4 89.6,162.4 90.8,162.4 92.0,162.4 93.2,162.4 94.3,162.4 95.5,162.4 96.7,162.4 97.9,162.4 99.1,162.4 100.3,162.4 101.5,162.4 102.7,162.4 103.8,162.4 105.0,162.4 106.2,162.4 107.4,162.4 108.6,162.4 109.8,162.4 111.0,162.4 112.1,162.4 113.3,162.4 114.5,162.4 115.7,162.4 116.9,162.4 118.1,162.4 119.3,162.4 120.5,162.4 121.6,162.4 122.8,162.4 124.0,162.4 125.2,162.4 126.4,162.4 127.6,162.4 128.8,162.4 129.9,162.4 131.1,162.4 132.3,162.4 133.5,162.4 134.7,162.4 135.9,162.4 137.1,162.4 138.3,162.4 139.4,162.4 140.6,162.4 141.8,162.4 143.0,162.4 144.2,162.4 145.4,162.4 146.6,162.4 147.7,162.4 148.9,162.4 150.1,162.4 151.3,162.4 152.5,162.4 153.7,162.4 154.9,162.4 156.1,162.4 157.2,162.4 158.4,162.4 159.6,162.4 160.8,162.4 162.0,162.4 163.2,162.4 164.4,162.4 165.5,162.4 166.7,162.4 167.9,162.4 169.1,162.4 170.3,162.4 171.5,162.4 172.7,162.4 173.9,162.4 175.0,162.4 176.2,162.4 177.4,162.4 178.6,162.4 179.8,162.4 181.0,162.4 182.2,162.4 183.3,162.4 184.5,162.4 185.7,162.4 186.9,162.4 188.1,162.4 189.3,162.4 190.5,162.4 191.7,162.4 192.8,162.4 194.0,162.4 195.2,162.4 196.4,162.4 197.6,162.4 198.8,162.4 200.0,162.4 201.1,162.4 202.3,162.4 203.5,162.4 204.7,162.4 205.9,162.4 207.1,162.4 208.3,162.4 209.5,162.4 210.6,162.4 211.8,162.4 213.0,162.4 214.2,162.4 215.4,162.4 216.6,162.4 217.8,162.4 218.9,162.4 220.1,162.4 221.3,162.4 222.5,162.4 223.7,162.4 224.9,162.4 226.1,162.4 227.3,162.4 228.4,162.4 229.6,162.4 230.8,162.4 232.0,162.4 233.2,162.4 234.4,162.4 235.6,162.4 236.7,162.4 237.9,162.4 239.1,162.4 240.3,162.4 241.5,162.4 242.7,162.4 243.9,162.4 245.1,162.4 246.2,162.4 247.4,162.4 248.6,162.4 249.8,162.4 251.0,162.4 252.2,162.4 253.4,162.4 254.5,162.4 255.7,162.4 256.9,162.4 258.1,162.4 259.3,162.4 260.5,162.4 261.7,162.4 262.9,162.4 264.0,162.4 265.2,162.4 266.4,162.4 267.6,162.4 268.8,162.4 270.0,162.4 271.2,162.4 272.3,162.4 273.5,162.4 274.7,162.4 275.9,162.4 277.1,162.4 278.3,162.4 279.5,162.4 280.7,162.4 281.8,162.4 283.0,162.4 284.2,162.4 285.4,162.4 286.6,162.4 287.8,162.4 289.0,162.4 290.1,162.4 291.3,162.4 292.5,162.4 293.7,162.4 294.9,162.4 296.1,162.4 297.3,162.4 298.5,162.4 299.6,162.4 300.8,162.4 302.0,162.4 303.2,162.4 304.4,162.4 305.6,162.4 306.8,162.4 307.9,162.4 309.1,162.4 310.3,162.4 311.5,162.4 312.7,162.4 313.9,162.4 315.1,162.4 316.3,162.4 317.4,162.4 318.6,162.4 319.8,162.4 321.0,162.4 322.2,162.4 323.4,162.4 324.6,162.4 325.7,162.4 326.9,162.4 328.1,162.4 329.3,162.4 330.5,162.4 331.7,162.4 332.9,162.4 334.1,162.4 335.2,162.4 336.4,162.4 337.6,162.4 338.8,162.4 340.0,162.4 341.2,162.4 342.4,162.4 343.5,162.4 344.7,162.4 345.9,162.4 347.1,162.4 348.3,162.4 349.5,162.4 350.7,162.4 351.9,162.4 353.0,162.4 354.2,162.4 355.4,162.4 356.6,162.4 357.8,162.4 359.0,162.4 360.2,162.4 361.3,162.4 362.5,162.4 363.7,162.4 364.9,162.4 366.1,162.4 367.3,162.4 368.5,162.4 369.7,162.4 370.8,162.4 372.0,162.4 373.2,162.4 374.4,162.4 375.6,162.4 376.8,162.4 378.0,162.4 379.1,162.4 380.3,162.4 381.5,162.4 382.7,162.4 383.9,162.4 385.1,162.4 386.3,162.4 387.5,162.4 388.6,162.4 389.8,162.4 391.0,162.4 392.2,162.4 393.4,162.4 394.6,162.4 395.8,162.4 396.9,162.4 398.1,162.4 399.3,162.4 400.5,162.4 401.7,162.4 402.9,162.4 404.1,162.4 405.3,162.4 406.4,162.4 407.6,162.4 408.8,162.4 410.0,162.4 411.2,162.4 412.4,162.4 413.6,162.4 414.7,162.4 415.9,162.4 417.1,162.4 418.3,162.4 419.5,162.4 420.7,162.4 421.9,162.4 423.1,162.4 424.2,162.4 425.4,162.4 426.6,162.4 427.8,162.4 429.0,162.4 430.2,162.4 431.4,162.4 432.5,162.4 433.7,162.4 434.9,162.4 436.1,162.4 437.3,162.4 438.5,162.4 439.7,162.4 440.9,162.4 442.0,162.4 443.2,162.4 444.4,162.4 445.6,162.4 446.8,162.4 448.0,162.4 449.2,162.4 450.3,162.4 451.5,162.4 452.7,162.4 453.9,162.4 455.1,162.4 456.3,162.4 457.5,162.4 458.7,162.4 459.8,162.4 461.0,162.4 462.2,162.4 463.4,162.4 464.6,162.4 465.8,162.4 467.0,162.4 468.1,162.4 469.3,162.4 470.5,162.4 471.7,162.4 472.9,162.4 474.1,162.4 475.3,162.4 476.5,162.4 477.6,162.4 478.8,162.4 480.0,162.4 481.2,162.4 482.4,162.4 483.6,162.4 484.8,162.4 485.9,162.4 487.1,162.4 488.3,162.4 489.5,162.4 490.7,162.4 491.9,162.4 493.1,162.4 494.3,162.4 495.4,162.4 496.6,162.4 497.8,162.4 499.0,162.4 500.2,162.4 501.4,162.4 502.6,162.4 503.7,162.4 504.9,162.4 506.1,162.4 507.3,162.4 508.5,162.4 509.7,162.4 510.9,162.4 512.1,162.4 513.2,162.4 514.4,162.4 515.6,162.4 516.8,162.4 518.0,162.4 519.2,162.4 520.4,162.4 521.5,162.4 522.7,162.4 523.9,162.4 525.1,162.4 526.3,162.4 527.5,162.4 528.7,162.4 529.9,162.4 531.0,162.4 532.2,162.4 533.4,162.4 534.6,162.4 535.8,162.4 537.0,162.4 538.2,162.4 539.3,162.4 540.5,162.4 541.7,162.4 542.9,162.4 544.1,162.4 545.3,162.4 546.5,162.4 547.7,162.4 548.8,162.4 550.0,162.4 551.2,162.4 552.4,162.4 553.6,162.4 554.8,162.4 556.0,162.4 557.1,162.4 558.3,162.4 559.5,162.4 560.7,162.4 561.9,162.4 563.1,162.4 564.3,162.4 565.5,162.4 566.6,162.4 567.8,162.4 569.0,162.4 570.2,162.4 571.4,162.4 572.6,162.4 573.8,162.4 574.9,162.4 576.1,162.4 577.3,162.4 578.5,162.4 579.7,162.4 580.9,162.4 582.1,162.4 583.3,162.4 584.4,162.4 585.6,162.4 586.8,162.4 588.0,162.4 589.2,162.4 590.4,162.4 591.6,162.4 592.7,162.4 593.9,162.4 595.1,162.4 596.3,162.4 597.5,162.4 598.7,162.4 599.9,162.4 601.1,162.4 602.2,162.4 603.4,162.4 604.6,162.4 605.8,162.4 607.0,162.4 608.2,162.4 609.4,162.4 610.5,162.4 611.7,162.4 612.9,162.4 614.1,162.4 615.3,162.4 616.5,162.4 617.7,162.4 618.9,162.4 620.0,162.4 621.2,162.4 622.4,162.4 623.6,162.4 624.8,162.4 626.0,162.4 627.2,162.4 628.3,162.4 629.5,162.4 630.7,162.4 631.9,162.4 633.1,162.4 634.3,162.4 635.5,162.4 636.7,162.4 637.8,162.4 639.0,162.4 640.2,162.4 641.4,162.4 642.6,162.4 643.8,162.4 645.0,162.4 646.1,162.4 647.3,162.4 648.5,162.4 649.7,162.4 650.9,162.4 652.1,162.4 653.3,162.4 654.5,162.4 655.6,162.4 656.8,162.4 658.0,54.0 659.2,67.9 660.4,80.7 661.6,89.4 662.8,94.8 663.9,98.3 665.1,100.6 666.3,102.3 667.5,103.9 668.7,105.5 669.9,107.2 671.1,109.2 672.3,111.4 673.4,113.8 674.6,116.3 675.8,119.0 677.0,121.7 678.2,124.5 679.4,127.1 680.6,129.6 681.7,131.9 682.9,133.8 684.1,135.5 685.3,136.9 686.5,138.0 687.7,139.0 688.9,139.9 690.1,141.0 691.2,142.4 692.4,144.1 693.6,146.1 694.8,148.2 696.0,150.4 697.2,152.6 698.4,154.6 699.5,156.6 700.7,158.6 701.9,160.7 703.1,163.1 704.3,165.7 705.5,168.6 706.7,171.8 707.9,175.2 709.0,179.0 710.2,182.9 711.4,187.1 712.6,191.5 713.8,196.2 715.0,201.0 716.2,206.1 717.3,211.3 718.5,216.8 719.7,222.4 720.9,228.1 722.1,234.0 723.3,240.0 724.5,246.2 725.7,252.6 726.8,259.2 728.0,266.0 729.2,56.4 730.4,63.9 731.6,71.9 732.8,80.6 734.0,90.0 735.1,99.8 736.3,109.5 737.5,118.1 738.7,125.3 739.9,131.1 741.1,135.9 742.3,139.8 743.5,143.1 744.6,145.8 745.8,148.0 747.0,149.7 748.2,150.9 749.4,151.5 750.6,151.7 751.8,151.5 752.9,150.9 754.1,150.0 755.3,148.9 756.5,147.8 757.7,146.8 758.9,146.0 760.1,145.5 761.3,145.5 762.4,145.9 763.6,146.8 764.8,147.9 766.0,149.4"/>
<line x1="606" y1="60" x2="628" y2="60" stroke="#24a148" stroke-width="2.2"/>
<text x="634" y="64" font-family="Arial" font-size="12">yaw_deg</text>
</svg>