<svg xmlns="http://www.w3.org/2000/svg" width="820" height="320" viewBox="0 0 820 320">
<rect width="100%" height="100%" fill="#ffffff"/>
<text x="54" y="28" font-family="Arial" font-size="18" font-weight="700">Specific Energy</text>
<line x1="54" y1="266" x2="766" y2="266" stroke="#1f2933"/>
<line x1="54" y1="54" x2="54" y2="266" stroke="#1f2933"/>
<text x="54" y="306" font-family="Arial" font-size="12">time (s)</text>
<text x="596" y="306" font-family="Arial" font-size="12">J/kg</text>
<text x="58" y="68" font-family="Arial" font-size="11">2.79e+04</text>
<text x="58" y="260" font-family="Arial" font-size="11">3.91e+03</text>
<polyline fill="none" stroke="#0f62fe" stroke-width="2.2" points="54.0,266.0 55.2,265.6 56.4,265.2 57.6,264.8 58.7,264.4 59.9,264.0 61.1,263.5 62.3,263.1 63.5,262.7 64.7,262.2 65.9,261.7 67.1,261.2 68.2,260.8 69.4,260.3 70.6,259.8 71.8,259.2 73.0,258.7 74.2,258.2 75.4,257.7 76.5,257.2 77.7,256.6 78.9,256.1 80.1,255.6 81.3,255.1 82.5,254.5 83.7,254.0 84.9,253.5 86.0,252.9 87.2,252.4 88.4,251.8 89.6,251.3 90.8,250.7 92.0,250.2 93.2,249.6 94.3,249.1 95.5,248.5 96.7,248.0 97.9,247.4 99.1,246.8 100.3,246.3 101.5,245.7 102.7,245.1 103.8,244.6 105.0,244.0 106.2,243.4 107.4,242.8 108.6,242.2 109.8,241.7 111.0,241.1 112.1,240.5 113.3,239.9 114.5,239.3 115.7,238.7 116.9,238.1 118.1,237.5 119.3,236.9 120.5,236.3 121.6,235.7 122.8,235.1 124.0,234.5 125.2,233.9 126.4,233.3 127.6,232.7 128.8,232.0 129.9,231.4 131.1,230.8 132.3,230.2 133.5,229.6 134.7,228.9 135.9,228.3 137.1,227.7 138.3,227.1 139.4,226.4 140.6,225.8 141.8,225.2 143.0,224.5 144.2,223.9 145.4,223.2 146.6,222.6 147.7,222.0 148.9,221.3 150.1,220.7 151.3,220.0 152.5,219.4 153.7,218.7 154.9,218.1 156.1,217.4 157.2,216.8 158.4,216.1 159.6,215.5 160.8,214.8 162.0,214.1 163.2,213.5 164.4,212.8 165.5,212.2 166.7,211.5 167.9,210.8 169.1,210.2 170.3,209.5 171.5,208.8 172.7,208.2 173.9,207.5 175.0,206.8 176.2,206.2 177.4,205.5 178.6,204.8 179.8,204.1 181.0,203.5 182.2,202.8 183.3,202.1 184.5,201.4 185.7,200.8 186.9,200.1 188.1,199.4 189.3,198.7 190.5,198.0 191.7,197.3 192.8,196.7 194.0,196.0 195.2,195.3 196.4,194.6 197.6,193.9 198.8,193.2 200.0,192.5 201.1,191.9 202.3,191.2 203.5,190.5 204.7,189.8 205.9,189.1 207.1,188.4 208.3,187.7 209.5,187.0 210.6,186.3 211.8,185.6 213.0,184.9 214.2,184.2 215.4,183.5 216.6,182.8 217.8,182.1 218.9,181.4 220.1,180.7 221.3,180.0 222.5,179.3 223.7,178.6 224.9,177.9 226.1,177.2 227.3,176.4 228.4,175.7 229.6,175.0 230.8,174.3 232.0,173.6 233.2,172.9 234.4,172.2 235.6,171.4 236.7,170.7 237.9,170.0 239.1,169.3 240.3,168.6 241.5,167.8 242.7,167.1 243.9,166.4 245.1,165.7 246.2,164.9 247.4,164.2 248.6,163.5 249.8,162.8 251.0,162.0 252.2,161.3 253.4,160.6 254.5,159.8 255.7,159.1 256.9,158.4 258.1,157.6 259.3,156.9 260.5,156.2 261.7,155.4 262.9,154.7 264.0,153.9 265.2,153.2 266.4,152.4 267.6,151.7 268.8,151.0 270.0,150.2 271.2,149.5 272.3,148.7 273.5,148.0 274.7,147.2 275.9,146.7 277.1,146.3 278.3,146.0 279.5,145.7 280.7,145.4 281.8,144.9 283.0,144.4 284.2,143.8 285.4,143.3 286.6,142.9 287.8,142.5 289.0,142.1 290.1,141.6 291.3,141.2 292.5,140.7 293.7,140.2 294.9,139.8 296.1,139.3 297.3,138.9 298.5,138.5 299.6,138.0 300.8,137.6 302.0,137.1 303.2,136.7 304.4,136.3 305.6,135.8 306.8,135.4 307.9,135.0 309.1,134.5 310.3,134.1 311.5,133.7 312.7,133.2 313.9,132.8 315.1,132.4 316.3,131.9 317.4,131.5 318.6,131.1 319.8,130.7 321.0,130.2 322.2,129.8 323.4,129.4 324.6,129.0 325.7,128.5 326.9,128.1 328.1,127.7 329.3,127.3 330.5,126.9 331.7,126.4 332.9,126.0 334.1,125.6 335.2,125.2 336.4,124.8 337.6,124.4 338.8,124.0 340.0,123.6 341.2,123.1 342.4,122.7 343.5,122.3 344.7,121.9 345.9,121.5 347.1,121.1 348.3,120.7 349.5,120.3 350.7,119.9 351.9,119.5 353.0,119.1 354.2,118.7 355.4,118.3 356.6,117.9 357.8,117.5 359.0,117.1 360.2,116.7 361.3,116.3 362.5,115.9 363.7,115.5 364.9,115.1 366.1,114.7 367.3,114.3 368.5,113.9 369.7,113.5 370.8,113.1 372.0,112.8 373.2,112.4 374.4,112.0 375.6,111.6 376.8,111.2 378.0,110.8 379.1,110.4 380.3,110.0 381.5,109.7 382.7,109.3 383.9,108.9 385.1,108.5 386.3,108.1 387.5,107.7 388.6,107.4 389.8,107.0 391.0,106.6 392.2,106.2 393.4,105.9 394.6,105.5 395.8,105.1 396.9,104.7 398.1,104.4 399.3,104.0 400.5,103.6 401.7,103.3 402.9,102.9 404.1,102.5 405.3,102.2 406.4,101.8 407.6,101.4 408.8,101.1 410.0,100.7 411.2,100.3 412.4,100.0 413.6,99.6 414.7,99.3 415.9,98.9 417.1,98.5 418.3,98.2 419.5,97.8 420.7,97.5 421.9,97.1 423.1,96.8 424.2,96.4 425.4,96.0 426.6,95.7 427.8,95.3 429.0,95.0 430.2,94.6 431.4,94.3 432.5,93.9 433.7,93.6 434.9,93.2 436.1,92.9 437.3,92.5 438.5,92.2 439.7,91.8 440.9,91.5 442.0,91.1 443.2,90.8 444.4,90.4 445.6,90.1 446.8,89.7 448.0,89.4 449.2,89.0 450.3,88.7 451.5,88.3 452.7,88.0 453.9,87.6 455.1,87.3 456.3,86.9 457.5,86.6 458.7,86.3 459.8,85.9 461.0,85.6 462.2,85.2 463.4,84.9 464.6,84.5 465.8,84.2 467.0,83.8 468.1,83.5 469.3,83.2 470.5,82.8 471.7,82.5 472.9,82.1 474.1,81.8 475.3,81.4 476.5,81.1 477.6,80.8 478.8,80.4 480.0,80.1 481.2,79.7 482.4,79.4 483.6,79.0 484.8,78.7 485.9,78.4 487.1,78.0 488.3,77.7 489.5,77.3 490.7,77.0 491.9,76.6 493.1,76.3 494.3,76.0 495.4,75.6 496.6,75.3 497.8,74.9 499.0,74.6 500.2,74.2 501.4,73.9 502.6,73.6 503.7,73.2 504.9,72.9 506.1,72.5 507.3,72.2 508.5,71.8 509.7,71.5 510.9,71.2 512.1,70.8 513.2,70.5 514.4,70.1 515.6,69.8 516.8,69.4 518.0,69.1 519.2,68.7 520.4,68.4 521.5,68.0 522.7,67.7 523.9,67.4 525.1,67.0 526.3,66.7 527.5,66.3 528.7,66.0 529.9,65.6 531.0,65.3 532.2,64.9 533.4,64.6 534.6,64.2 535.8,63.9 537.0,63.5 538.2,63.2 539.3,62.8 540.5,62.5 541.7,62.1 542.9,61.8 544.1,61.4 545.3,61.1 546.5,60.7 547.7,60.4 548.8,60.0 550.0,59.7 551.2,59.3 552.4,59.0 553.6,58.6 554.8,58.3 556.0,57.9 557.1,57.6 558.3,57.2 559.5,56.8 560.7,56.5 561.9,56.1 563.1,55.8 564.3,55.4 565.5,55.1 566.6,54.7 567.8,54.4 569.0,54.0 570.2,54.9 571.4,55.8 572.6,56.6 573.8,57.5 574.9,58.3 576.1,59.1 577.3,60.0 578.5,60.8 579.7,61.6 580.9,62.4 582.1,63.2 583.3,63.9 584.4,64.7 585.6,65.5 586.8,66.2 588.0,66.9 589.2,67.7 590.4,68.4 591.6,69.1 592.7,69.8 593.9,70.5 595.1,71.2 596.3,71.9 597.5,72.5 598.7,73.2 599.9,73.9 601.1,74.5 602.2,75.1 603.4,75.8 604.6,76.4 605.8,77.0 607.0,77.6 608.2,78.2 609.4,78.8 610.5,79.4 611.7,80.0 612.9,80.6 614.1,81.2 615.3,81.7 616.5,82.3 617.7,82.8 618.9,83.4 620.0,83.9 621.2,84.4 622.4,85.0 623.6,85.5 624.8,86.0 626.0,86.5 627.2,87.0 628.3,87.5 629.5,88.0 630.7,88.5 631.9,88.9 633.1,89.4 634.3,89.9 635.5,90.3 636.7,90.8 637.8,91.2 639.0,91.7 640.2,92.1 641.4,92.6 642.6,93.0 643.8,93.4 645.0,93.8 646.1,94.2 647.3,94.7 648.5,95.1 649.7,95.5 650.9,95.9 652.1,96.3 653.3,96.6 654.5,97.0 655.6,97.4 656.8,97.8 658.0,98.1 659.2,98.5 660.4,98.9 661.6,99.2 662.8,99.6 663.9,99.9 665.1,100.3 666.3,100.6 667.5,101.0 668.7,101.3 669.9,101.7 671.1,102.1 672.3,102.5 673.4,103.0 674.6,103.4 675.8,103.8 677.0,104.3 678.2,104.7 679.4,105.0 680.6,105.4 681.7,105.8 682.9,106.1 684.1,106.4 685.3,106.7 686.5,107.0 687.7,107.3 688.9,107.6 690.1,107.8 691.2,108.1 692.4,108.3 693.6,108.6 694.8,108.8 696.0,109.1 697.2,109.3 698.4,109.6 699.5,109.8 700.7,110.0 701.9,110.3 703.1,110.5 704.3,110.7 705.5,110.9 706.7,111.1 707.9,111.2 709.0,111.4 710.2,111.6 711.4,111.8 712.6,112.0 713.8,112.2 715.0,112.4 716.2,112.6 717.3,112.8 718.5,113.0 719.7,113.2 720.9,113.5 722.1,113.7 723.3,113.9 724.5,114.2 725.7,114.4 726.8,114.7 728.0,114.9 729.2,115.1 730.4,115.3 731.6,115.6 732.8,115.8 734.0,116.0 735.1,116.2 736.3,116.4 737.5,116.6 738.7,116.8 739.9,117.0 741.1,117.2 742.3,117.4 743.5,117.6 744.6,117.8 745.8,118.0 747.0,118.2 748.2,118.4 749.4,118.6 750.6,118.7 751.8,118.9 752.9,119.0 754.1,119.2 755.3,119.3 756.5,119.4 757.7,119.6 758.9,119.7 760.1,119.8 761.3,120.0 762.4,120.1 763.6,120.2 764.8,120.3 766.0,120.4"/>
<line x1="606" y1="42" x2="628" y2="42" stroke="#0f62fe" stroke-width="2.2"/>
<text x="634" y="46" font-family="Arial" font-size="12">energy_j_per_kg</text>
</svg>