<svg xmlns="http://www.w3.org/2000/svg" width="820" height="320" viewBox="0 0 820 320">
<rect width="100%" height="100%" fill="#ffffff"/>
<text x="54" y="28" font-family="Arial" font-size="18" font-weight="700">Velocity X</text>
<line x1="54" y1="266" x2="766" y2="266" stroke="#1f2933"/>
<line x1="54" y1="54" x2="54" y2="266" stroke="#1f2933"/>
<text x="54" y="306" font-family="Arial" font-size="12">time (s)</text>
<text x="596" y="306" font-family="Arial" font-size="12">vx (m/s)</text>
<text x="58" y="68" font-family="Arial" font-size="11">189</text>
<text x="58" y="260" font-family="Arial" font-size="11">9.17</text>
<polyline fill="none" stroke="#0f62fe" stroke-width="2.2" points="54.0,175.4 55.2,174.8 56.4,174.2 57.6,173.5 58.7,172.9 59.9,172.3 61.1,171.6 62.3,171.0 63.5,170.3 64.7,169.7 65.9,169.0 67.1,168.3 68.2,167.6 69.4,166.9 70.6,166.2 71.8,165.5 73.0,164.8 74.2,164.0 75.4,163.3 76.5,162.6 77.7,161.9 78.9,161.2 80.1,160.5 81.3,159.8 82.5,159.0 83.7,158.3 84.9,157.6 86.0,156.9 87.2,156.2 88.4,155.5 89.6,154.8 90.8,154.1 92.0,153.4 93.2,152.7 94.3,152.0 95.5,151.3 96.7,150.6 97.9,149.9 99.1,149.2 100.3,148.5 101.5,147.8 102.7,147.1 103.8,146.4 105.0,145.8 106.2,145.1 107.4,144.4 108.6,143.7 109.8,143.0 111.0,142.3 112.1,141.6 113.3,140.9 114.5,140.3 115.7,139.6 116.9,138.9 118.1,138.2 119.3,137.5 120.5,136.9 121.6,136.2 122.8,135.5 124.0,134.8 125.2,134.2 126.4,133.5 127.6,132.8 128.8,132.1 129.9,131.5 131.1,130.8 132.3,130.1 133.5,129.5 134.7,128.8 135.9,128.1 137.1,127.5 138.3,126.8 139.4,126.1 140.6,125.5 141.8,124.8 143.0,124.2 144.2,123.5 145.4,122.9 146.6,122.2 147.7,121.5 148.9,120.9 150.1,120.2 151.3,119.6 152.5,118.9 153.7,118.3 154.9,117.6 156.1,117.0 157.2,116.4 158.4,115.7 159.6,115.1 160.8,114.4 162.0,113.8 163.2,113.2 164.4,112.5 165.5,111.9 166.7,111.3 167.9,110.6 169.1,110.0 170.3,109.4 171.5,108.7 172.7,108.1 173.9,107.5 175.0,106.9 176.2,106.3 177.4,105.6 178.6,105.0 179.8,104.4 181.0,103.8 182.2,103.2 183.3,102.6 184.5,102.0 185.7,101.4 186.9,100.8 188.1,100.1 189.3,99.5 190.5,98.9 191.7,98.3 192.8,97.7 194.0,97.2 195.2,96.6 196.4,96.0 197.6,95.4 198.8,94.8 200.0,94.2 201.1,93.6 202.3,93.0 203.5,92.4 204.7,91.9 205.9,91.3 207.1,90.7 208.3,90.1 209.5,89.5 210.6,89.0 211.8,88.4 213.0,87.8 214.2,87.2 215.4,86.7 216.6,86.1 217.8,85.5 218.9,85.0 220.1,84.4 221.3,83.8 222.5,83.3 223.7,82.7 224.9,82.2 226.1,81.6 227.3,81.1 228.4,80.5 229.6,79.9 230.8,79.4 232.0,78.8 233.2,78.3 234.4,77.7 235.6,77.2 236.7,76.6 237.9,76.1 239.1,75.6 240.3,75.0 241.5,74.5 242.7,73.9 243.9,73.4 245.1,72.9 246.2,72.3 247.4,71.8 248.6,71.3 249.8,70.7 251.0,70.2 252.2,69.7 253.4,69.1 254.5,68.6 255.7,68.1 256.9,67.5 258.1,67.0 259.3,66.5 260.5,66.0 261.7,65.4 262.9,64.9 264.0,64.4 265.2,63.9 266.4,63.4 267.6,62.8 268.8,62.3 270.0,61.8 271.2,61.3 272.3,60.8 273.5,60.3 274.7,59.8 275.9,59.4 277.1,59.2 278.3,59.1 279.5,59.0 280.7,58.9 281.8,58.7 283.0,58.4 284.2,58.1 285.4,57.8 286.6,57.6 287.8,57.4 289.0,57.3 290.1,57.1 291.3,56.9 292.5,56.7 293.7,56.5 294.9,56.3 296.1,56.2 297.3,56.0 298.5,55.9 299.6,55.7 300.8,55.6 302.0,55.4 303.2,55.3 304.4,55.2 305.6,55.1 306.8,55.0 307.9,54.9 309.1,54.8 310.3,54.7 311.5,54.6 312.7,54.5 313.9,54.4 315.1,54.3 316.3,54.3 317.4,54.2 318.6,54.2 319.8,54.1 321.0,54.1 322.2,54.1 323.4,54.0 324.6,54.0 325.7,54.0 326.9,54.0 328.1,54.0 329.3,54.0 330.5,54.0 331.7,54.0 332.9,54.1 334.1,54.1 335.2,54.1 336.4,54.2 337.6,54.2 338.8,54.3 340.0,54.3 341.2,54.4 342.4,54.5 343.5,54.6 344.7,54.7 345.9,54.8 347.1,54.9 348.3,55.0 349.5,55.1 350.7,55.2 351.9,55.3 353.0,55.5 354.2,55.6 355.4,55.8 356.6,55.9 357.8,56.1 359.0,56.2 360.2,56.4 361.3,56.6 362.5,56.8 363.7,57.0 364.9,57.2 366.1,57.4 367.3,57.6 368.5,57.8 369.7,58.0 370.8,58.2 372.0,58.5 373.2,58.7 374.4,59.0 375.6,59.2 376.8,59.5 378.0,59.8 379.1,60.0 380.3,60.3 381.5,60.6 382.7,60.9 383.9,61.2 385.1,61.5 386.3,61.9 387.5,62.2 388.6,62.5 389.8,62.9 391.0,63.2 392.2,63.5 393.4,63.9 394.6,64.3 395.8,64.6 396.9,65.0 398.1,65.4 399.3,65.8 400.5,66.2 401.7,66.6 402.9,67.0 404.1,67.4 405.3,67.8 406.4,68.3 407.6,68.7 408.8,69.2 410.0,69.6 411.2,70.1 412.4,70.5 413.6,71.0 414.7,71.5 415.9,71.9 417.1,72.4 418.3,72.9 419.5,73.4 420.7,73.9 421.9,74.4 423.1,75.0 424.2,75.5 425.4,76.0 426.6,76.6 427.8,77.1 429.0,77.6 430.2,78.2 431.4,78.8 432.5,79.3 433.7,79.9 434.9,80.5 436.1,81.1 437.3,81.7 438.5,82.2 439.7,82.9 440.9,83.5 442.0,84.1 443.2,84.7 444.4,85.3 445.6,86.0 446.8,86.6 448.0,87.2 449.2,87.9 450.3,88.5 451.5,89.2 452.7,89.9 453.9,90.5 455.1,91.2 456.3,91.9 457.5,92.6 458.7,93.3 459.8,94.0 461.0,94.7 462.2,95.4 463.4,96.1 464.6,96.8 465.8,97.5 467.0,98.3 468.1,99.0 469.3,99.8 470.5,100.5 471.7,101.3 472.9,102.0 474.1,102.8 475.3,103.5 476.5,104.3 477.6,105.1 478.8,105.9 480.0,106.7 481.2,107.5 482.4,108.2 483.6,109.0 484.8,109.9 485.9,110.7 487.1,111.5 488.3,112.3 489.5,113.1 490.7,114.0 491.9,114.8 493.1,115.6 494.3,116.5 495.4,117.3 496.6,118.2 497.8,119.0 499.0,119.9 500.2,120.8 501.4,121.6 502.6,122.5 503.7,123.4 504.9,124.3 506.1,125.2 507.3,126.1 508.5,127.0 509.7,127.9 510.9,128.8 512.1,129.7 513.2,130.6 514.4,131.5 515.6,132.4 516.8,133.4 518.0,134.3 519.2,135.2 520.4,136.2 521.5,137.1 522.7,138.1 523.9,139.0 525.1,140.0 526.3,140.9 527.5,141.9 528.7,142.9 529.9,143.8 531.0,144.8 532.2,145.8 533.4,146.8 534.6,147.7 535.8,148.7 537.0,149.7 538.2,150.7 539.3,151.7 540.5,152.7 541.7,153.7 542.9,154.7 544.1,155.7 545.3,156.8 546.5,157.8 547.7,158.8 548.8,159.8 550.0,160.9 551.2,161.9 552.4,162.9 553.6,164.0 554.8,165.0 556.0,166.0 557.1,167.1 558.3,168.1 559.5,169.2 560.7,170.3 561.9,171.3 563.1,172.4 564.3,173.4 565.5,174.5 566.6,175.6 567.8,176.7 569.0,177.7 570.2,179.1 571.4,180.4 572.6,181.7 573.8,183.0 574.9,184.3 576.1,185.5 577.3,186.8 578.5,188.0 579.7,189.3 580.9,190.5 582.1,191.7 583.3,193.0 584.4,194.2 585.6,195.3 586.8,196.5 588.0,197.7 589.2,198.9 590.4,200.0 591.6,201.2 592.7,202.3 593.9,203.4 595.1,204.5 596.3,205.6 597.5,206.7 598.7,207.8 599.9,208.9 601.1,210.0 602.2,211.0 603.4,212.1 604.6,213.1 605.8,214.1 607.0,215.2 608.2,216.2 609.4,217.2 610.5,218.2 611.7,219.2 612.9,220.1 614.1,221.1 615.3,222.1 616.5,223.0 617.7,224.0 618.9,224.9 620.0,225.9 621.2,226.8 622.4,227.7 623.6,228.6 624.8,229.5 626.0,230.4 627.2,231.3 628.3,232.2 629.5,233.0 630.7,233.9 631.9,234.7 633.1,235.6 634.3,236.4 635.5,237.3 636.7,238.1 637.8,238.9 639.0,239.7 640.2,240.5 641.4,241.3 642.6,242.1 643.8,242.9 645.0,243.6 646.1,244.4 647.3,245.2 648.5,245.9 649.7,246.7 650.9,247.4 652.1,248.2 653.3,248.9 654.5,249.6 655.6,250.3 656.8,251.0 658.0,251.7 659.2,252.4 660.4,253.1 661.6,253.8 662.8,254.5 663.9,255.2 665.1,255.8 666.3,256.5 667.5,257.2 668.7,257.9 669.9,258.6 671.1,259.3 672.3,260.0 673.4,260.6 674.6,261.3 675.8,261.8 677.0,262.4 678.2,262.8 679.4,263.2 680.6,263.5 681.7,263.7 682.9,263.9 684.1,264.0 685.3,264.1 686.5,264.1 687.7,264.0 688.9,263.9 690.1,263.8 691.2,263.6 692.4,263.3 693.6,263.0 694.8,262.6 696.0,262.1 697.2,261.6 698.4,261.1 699.5,260.7 700.7,260.3 701.9,259.9 703.1,259.7 704.3,259.5 705.5,259.4 706.7,259.3 707.9,259.3 709.0,259.4 710.2,259.5 711.4,259.6 712.6,259.7 713.8,259.9 715.0,260.1 716.2,260.3 717.3,260.5 718.5,260.8 719.7,261.1 720.9,261.5 722.1,261.9 723.3,262.3 724.5,262.7 725.7,263.2 726.8,263.6 728.0,264.0 729.2,264.4 730.4,264.7 731.6,265.1 732.8,265.4 734.0,265.6 735.1,265.8 736.3,265.9 737.5,266.0 738.7,266.0 739.9,265.9 741.1,265.8 742.3,265.7 743.5,265.5 744.6,265.3 745.8,265.1 747.0,264.8 748.2,264.6 749.4,264.4 750.6,264.1 751.8,263.9 752.9,263.7 754.1,263.4 755.3,263.2 756.5,263.0 757.7,262.8 758.9,262.6 760.1,262.4 761.3,262.1 762.4,261.9 763.6,261.6 764.8,261.4 766.0,261.1"/>
<line x1="606" y1="42" x2="628" y2="42" stroke="#0f62fe" stroke-width="2.2"/>
<text x="634" y="46" font-family="Arial" font-size="12">vx_mps</text>
</svg>