<svg xmlns="http://www.w3.org/2000/svg" width="820" height="320" viewBox="0 0 820 320">
<rect width="100%" height="100%" fill="#ffffff"/>
<text x="54" y="28" font-family="Arial" font-size="18" font-weight="700">Barometer vs Truth</text>
<line x1="54" y1="266" x2="766" y2="266" stroke="#1f2933"/>
<line x1="54" y1="54" x2="54" y2="266" stroke="#1f2933"/>
<text x="54" y="306" font-family="Arial" font-size="12">time (s)</text>
<text x="596" y="306" font-family="Arial" font-size="12">altitude (m)</text>
<text x="58" y="68" font-family="Arial" font-size="11">1.53e+03</text>
<text x="58" y="260" font-family="Arial" font-size="11">20</text>
<polyline fill="none" stroke="#0f62fe" stroke-width="2.2" points="54.0,266.0 55.2,266.0 56.4,266.0 57.6,265.9 58.7,265.9 59.9,265.9 61.1,265.9 62.3,265.8 63.5,265.8 64.7,265.8 65.9,265.8 67.1,265.8 68.2,265.8 69.4,265.7 70.6,265.7 71.8,265.7 73.0,265.7 74.2,265.7 75.4,265.7 76.5,265.7 77.7,265.6 78.9,265.6 80.1,265.6 81.3,265.6 82.5,265.6 83.7,265.6 84.9,265.6 86.0,265.6 87.2,265.6 88.4,265.6 89.6,265.5 90.8,265.5 92.0,265.5 93.2,265.5 94.3,265.5 95.5,265.5 96.7,265.5 97.9,265.5 99.1,265.5 100.3,265.5 101.5,265.5 102.7,265.5 103.8,265.5 105.0,265.5 106.2,265.5 107.4,265.5 108.6,265.5 109.8,265.5 111.0,265.4 112.1,265.4 113.3,265.4 114.5,265.4 115.7,265.4 116.9,265.4 118.1,265.4 119.3,265.4 120.5,265.4 121.6,265.4 122.8,265.4 124.0,265.4 125.2,265.4 126.4,265.4 127.6,265.4 128.8,265.4 129.9,265.4 131.1,265.4 132.3,265.4 133.5,265.4 134.7,265.4 135.9,265.4 137.1,265.4 138.3,265.4 139.4,265.4 140.6,265.4 141.8,265.4 143.0,265.4 144.2,265.4 145.4,265.4 146.6,265.4 147.7,265.4 148.9,265.4 150.1,265.4 151.3,265.4 152.5,265.4 153.7,265.4 154.9,265.4 156.1,265.4 157.2,265.5 158.4,265.5 159.6,265.5 160.8,265.5 162.0,265.5 163.2,265.5 164.4,265.5 165.5,265.5 166.7,265.5 167.9,265.5 169.1,265.5 170.3,265.5 171.5,265.4 172.7,265.4 173.9,265.4 175.0,265.4 176.2,265.4 177.4,265.4 178.6,265.4 179.8,265.4 181.0,265.4 182.2,265.4 183.3,265.4 184.5,265.4 185.7,265.4 186.9,265.4 188.1,265.4 189.3,265.4 190.5,265.4 191.7,265.4 192.8,265.4 194.0,265.4 195.2,265.4 196.4,265.4 197.6,265.4 198.8,265.3 200.0,265.3 201.1,265.3 202.3,265.3 203.5,265.3 204.7,265.3 205.9,265.3 207.1,265.3 208.3,265.3 209.5,265.2 210.6,265.2 211.8,265.2 213.0,265.2 214.2,265.2 215.4,265.2 216.6,265.2 217.8,265.1 218.9,265.1 220.1,265.1 221.3,265.1 222.5,265.1 223.7,265.0 224.9,265.0 226.1,265.0 227.3,265.0 228.4,265.0 229.6,264.9 230.8,264.9 232.0,264.9 233.2,264.9 234.4,264.8 235.6,264.8 236.7,264.8 237.9,264.8 239.1,264.7 240.3,264.7 241.5,264.7 242.7,264.6 243.9,264.6 245.1,264.6 246.2,264.5 247.4,264.5 248.6,264.5 249.8,264.4 251.0,264.4 252.2,264.4 253.4,264.3 254.5,264.3 255.7,264.3 256.9,264.2 258.1,264.2 259.3,264.1 260.5,264.1 261.7,264.1 262.9,264.0 264.0,264.0 265.2,263.9 266.4,263.9 267.6,263.8 268.8,263.8 270.0,263.8 271.2,263.7 272.3,263.7 273.5,263.6 274.7,263.6 275.9,263.5 277.1,263.5 278.3,263.4 279.5,263.3 280.7,263.3 281.8,263.2 283.0,263.1 284.2,263.1 285.4,263.0 286.6,262.9 287.8,262.8 289.0,262.7 290.1,262.7 291.3,262.6 292.5,262.5 293.7,262.4 294.9,262.3 296.1,262.2 297.3,262.1 298.5,262.0 299.6,261.8 300.8,261.7 302.0,261.6 303.2,261.5 304.4,261.4 305.6,261.2 306.8,261.1 307.9,261.0 309.1,260.8 310.3,260.7 311.5,260.6 312.7,260.4 313.9,260.3 315.1,260.1 316.3,260.0 317.4,259.8 318.6,259.6 319.8,259.5 321.0,259.3 322.2,259.1 323.4,259.0 324.6,258.8 325.7,258.6 326.9,258.4 328.1,258.2 329.3,258.0 330.5,257.8 331.7,257.6 332.9,257.4 334.1,257.2 335.2,257.0 336.4,256.8 337.6,256.6 338.8,256.4 340.0,256.2 341.2,255.9 342.4,255.7 343.5,255.5 344.7,255.2 345.9,255.0 347.1,254.8 348.3,254.5 349.5,254.3 350.7,254.0 351.9,253.8 353.0,253.5 354.2,253.2 355.4,253.0 356.6,252.7 357.8,252.4 359.0,252.2 360.2,251.9 361.3,251.6 362.5,251.3 363.7,251.0 364.9,250.7 366.1,250.4 367.3,250.1 368.5,249.8 369.7,249.5 370.8,249.2 372.0,248.9 373.2,248.6 374.4,248.3 375.6,247.9 376.8,247.6 378.0,247.3 379.1,247.0 380.3,246.6 381.5,246.3 382.7,245.9 383.9,245.6 385.1,245.2 386.3,244.9 387.5,244.5 388.6,244.2 389.8,243.8 391.0,243.4 392.2,243.1 393.4,242.7 394.6,242.3 395.8,241.9 396.9,241.5 398.1,241.2 399.3,240.8 400.5,240.4 401.7,240.0 402.9,239.6 404.1,239.2 405.3,238.8 406.4,238.3 407.6,237.9 408.8,237.5 410.0,237.1 411.2,236.7 412.4,236.2 413.6,235.8 414.7,235.4 415.9,234.9 417.1,234.5 418.3,234.0 419.5,233.6 420.7,233.1 421.9,232.7 423.1,232.2 424.2,231.8 425.4,231.3 426.6,230.8 427.8,230.4 429.0,229.9 430.2,229.4 431.4,228.9 432.5,228.4 433.7,228.0 434.9,227.5 436.1,227.0 437.3,226.5 438.5,226.0 439.7,225.5 440.9,225.0 442.0,224.5 443.2,223.9 444.4,223.4 445.6,222.9 446.8,222.4 448.0,221.9 449.2,221.3 450.3,220.8 451.5,220.3 452.7,219.7 453.9,219.2 455.1,218.6 456.3,218.1 457.5,217.6 458.7,217.0 459.8,216.4 461.0,215.9 462.2,215.3 463.4,214.8 464.6,214.2 465.8,213.6 467.0,213.1 468.1,212.5 469.3,211.9 470.5,211.3 471.7,210.7 472.9,210.1 474.1,209.6 475.3,209.0 476.5,208.4 477.6,207.8 478.8,207.2 480.0,206.6 481.2,206.0 482.4,205.3 483.6,204.7 484.8,204.1 485.9,203.5 487.1,202.9 488.3,202.3 489.5,201.6 490.7,201.0 491.9,200.4 493.1,199.7 494.3,199.1 495.4,198.5 496.6,197.8 497.8,197.2 499.0,196.5 500.2,195.9 501.4,195.2 502.6,194.6 503.7,193.9 504.9,193.3 506.1,192.6 507.3,191.9 508.5,191.3 509.7,190.6 510.9,189.9 512.1,189.3 513.2,188.6 514.4,187.9 515.6,187.2 516.8,186.6 518.0,185.9 519.2,185.2 520.4,184.5 521.5,183.8 522.7,183.1 523.9,182.4 525.1,181.7 526.3,181.0 527.5,180.3 528.7,179.6 529.9,178.9 531.0,178.2 532.2,177.5 533.4,176.8 534.6,176.1 535.8,175.3 537.0,174.6 538.2,173.9 539.3,173.2 540.5,172.5 541.7,171.7 542.9,171.0 544.1,170.3 545.3,169.5 546.5,168.8 547.7,168.1 548.8,167.3 550.0,166.6 551.2,165.9 552.4,165.1 553.6,164.4 554.8,163.6 556.0,162.9 557.1,162.1 558.3,161.4 559.5,160.6 560.7,159.9 561.9,159.1 563.1,158.4 564.3,157.6 565.5,156.8 566.6,156.1 567.8,155.3 569.0,154.5 570.2,153.8 571.4,153.0 572.6,152.3 573.8,151.5 574.9,150.7 576.1,150.0 577.3,149.2 578.5,148.5 579.7,147.7 580.9,147.0 582.1,146.2 583.3,145.5 584.4,144.7 585.6,144.0 586.8,143.2 588.0,142.5 589.2,141.8 590.4,141.0 591.6,140.3 592.7,139.5 593.9,138.8 595.1,138.1 596.3,137.4 597.5,136.6 598.7,135.9 599.9,135.2 601.1,134.5 602.2,133.7 603.4,133.0 604.6,132.3 605.8,131.6 607.0,130.9 608.2,130.2 609.4,129.4 610.5,128.7 611.7,128.0 612.9,127.3 614.1,126.6 615.3,125.9 616.5,125.2 617.7,124.5 618.9,123.8 620.0,123.1 621.2,122.5 622.4,121.8 623.6,121.1 624.8,120.4 626.0,119.7 627.2,119.0 628.3,118.3 629.5,117.7 630.7,117.0 631.9,116.3 633.1,115.7 634.3,115.0 635.5,114.3 636.7,113.7 637.8,113.0 639.0,112.3 640.2,111.7 641.4,111.0 642.6,110.4 643.8,109.7 645.0,109.1 646.1,108.4 647.3,107.8 648.5,107.1 649.7,106.5 650.9,105.8 652.1,105.2 653.3,104.6 654.5,103.9 655.6,103.3 656.8,102.7 658.0,102.0 659.2,101.4 660.4,100.8 661.6,100.2 662.8,99.5 663.9,98.9 665.1,98.3 666.3,97.7 667.5,97.1 668.7,96.5 669.9,95.9 671.1,95.2 672.3,94.6 673.4,94.0 674.6,93.4 675.8,92.9 677.0,92.3 678.2,91.7 679.4,91.1 680.6,90.5 681.7,89.9 682.9,89.3 684.1,88.8 685.3,88.2 686.5,87.6 687.7,87.0 688.9,86.5 690.1,85.9 691.2,85.3 692.4,84.8 693.6,84.2 694.8,83.7 696.0,83.1 697.2,82.6 698.4,82.0 699.5,81.5 700.7,80.9 701.9,80.4 703.1,79.8 704.3,79.3 705.5,78.7 706.7,78.2 707.9,77.7 709.0,77.1 710.2,76.6 711.4,76.1 712.6,75.6 713.8,75.0 715.0,74.5 716.2,74.0 717.3,73.5 718.5,73.0 719.7,72.4 720.9,71.9 722.1,71.4 723.3,70.9 724.5,70.4 725.7,69.9 726.8,69.4 728.0,68.9 729.2,68.4 730.4,67.9 731.6,67.4 732.8,66.9 734.0,66.4 735.1,65.9 736.3,65.4 737.5,65.0 738.7,64.5 739.9,64.0 741.1,63.5 742.3,63.1 743.5,62.6 744.6,62.1 745.8,61.6 747.0,61.2 748.2,60.7 749.4,60.2 750.6,59.8 751.8,59.3 752.9,58.9 754.1,58.4 755.3,58.0 756.5,57.5 757.7,57.1 758.9,56.6 760.1,56.2 761.3,55.7 762.4,55.3 763.6,54.9 764.8,54.4 766.0,54.0"/>
<line x1="606" y1="42" x2="628" y2="42" stroke="#0f62fe" stroke-width="2.2"/>
<text x="634" y="46" font-family="Arial" font-size="12">altitude_m</text>
<polyline fill="none" stroke="#24a148" stroke-width="2.2" points="54.0,265.8 55.2,265.8 56.4,265.9 57.6,265.9 58.7,265.8 59.9,265.8 61.1,265.8 62.3,265.8 63.5,265.7 64.7,265.7 65.9,265.9 67.1,265.9 68.2,265.9 69.4,265.9 70.6,265.8 71.8,265.8 73.0,265.6 74.2,265.6 75.4,265.7 76.5,265.7 77.7,265.6 78.9,265.6 80.1,265.6 81.3,265.6 82.5,265.5 83.7,265.5 84.9,265.4 86.0,265.4 87.2,265.5 88.4,265.5 89.6,265.5 90.8,265.5 92.0,265.6 93.2,265.6 94.3,265.5 95.5,265.5 96.7,265.5 97.9,265.5 99.1,265.4 100.3,265.4 101.5,265.7 102.7,265.7 103.8,265.5 105.0,265.5 106.2,265.4 107.4,265.4 108.6,265.5 109.8,265.5 111.0,265.5 112.1,265.5 113.3,265.4 114.5,265.4 115.7,265.4 116.9,265.4 118.1,265.4 119.3,265.4 120.5,265.2 121.6,265.2 122.8,265.5 124.0,265.5 125.2,265.4 126.4,265.4 127.6,265.3 128.8,265.3 129.9,265.3 131.1,265.3 132.3,265.4 133.5,265.4 134.7,265.5 135.9,265.5 137.1,265.5 138.3,265.5 139.4,265.4 140.6,265.4 141.8,265.5 143.0,265.5 144.2,265.3 145.4,265.3 146.6,265.5 147.7,265.5 148.9,265.4 150.1,265.4 151.3,265.5 152.5,265.5 153.7,265.4 154.9,265.4 156.1,265.4 157.2,265.4 158.4,265.5 159.6,265.5 160.8,265.4 162.0,265.4 163.2,265.5 164.4,265.5 165.5,265.4 166.7,265.4 167.9,265.3 169.1,265.3 170.3,265.4 171.5,265.4 172.7,265.4 173.9,265.4 175.0,265.6 176.2,265.6 177.4,265.3 178.6,265.3 179.8,265.6 181.0,265.6 182.2,265.5 183.3,265.5 184.5,265.5 185.7,265.5 186.9,265.4 188.1,265.4 189.3,265.4 190.5,265.4 191.7,265.4 192.8,265.4 194.0,265.4 195.2,265.4 196.4,265.3 197.6,265.3 198.8,265.3 200.0,265.3 201.1,265.3 202.3,265.3 203.5,265.4 204.7,265.4 205.9,265.2 207.1,265.2 208.3,265.3 209.5,265.3 210.6,265.3 211.8,265.3 213.0,265.3 214.2,265.3 215.4,265.1 216.6,265.1 217.8,265.0 218.9,265.0 220.1,265.0 221.3,265.0 222.5,265.0 223.7,265.0 224.9,265.0 226.1,265.0 227.3,265.1 228.4,265.1 229.6,264.9 230.8,264.9 232.0,264.8 233.2,264.8 234.4,264.9 235.6,264.9 236.7,264.8 237.9,264.8 239.1,264.7 240.3,264.7 241.5,264.7 242.7,264.7 243.9,264.6 245.1,264.6 246.2,264.7 247.4,264.7 248.6,264.5 249.8,264.5 251.0,264.5 252.2,264.5 253.4,264.2 254.5,264.2 255.7,264.3 256.9,264.3 258.1,264.2 259.3,264.2 260.5,264.1 261.7,264.1 262.9,263.9 264.0,263.9 265.2,263.8 266.4,263.8 267.6,263.8 268.8,263.8 270.0,263.6 271.2,263.6 272.3,263.7 273.5,263.7 274.7,263.5 275.9,263.5 277.1,263.5 278.3,263.5 279.5,263.5 280.7,263.5 281.8,263.3 283.0,263.3 284.2,263.0 285.4,263.0 286.6,262.9 287.8,262.9 289.0,262.9 290.1,262.9 291.3,262.6 292.5,262.6 293.7,262.4 294.9,262.4 296.1,262.1 297.3,262.1 298.5,262.0 299.6,262.0 300.8,261.8 302.0,261.8 303.2,261.4 304.4,261.4 305.6,261.3 306.8,261.3 307.9,261.0 309.1,261.0 310.3,260.7 311.5,260.7 312.7,260.5 313.9,260.5 315.1,260.0 316.3,260.0 317.4,259.9 318.6,259.9 319.8,259.5 321.0,259.5 322.2,259.2 323.4,259.2 324.6,258.7 325.7,258.7 326.9,258.4 328.1,258.4 329.3,258.0 330.5,258.0 331.7,257.7 332.9,257.7 334.1,257.1 335.2,257.1 336.4,256.7 337.6,256.7 338.8,256.4 340.0,256.4 341.2,256.0 342.4,256.0 343.5,255.5 344.7,255.5 345.9,255.1 347.1,255.1 348.3,254.5 349.5,254.5 350.7,254.1 351.9,254.1 353.0,253.5 354.2,253.5 355.4,253.0 356.6,253.0 357.8,252.4 359.0,252.4 360.2,251.7 361.3,251.7 362.5,251.3 363.7,251.3 364.9,250.7 366.1,250.7 367.3,250.1 368.5,250.1 369.7,249.5 370.8,249.5 372.0,249.0 373.2,249.0 374.4,248.1 375.6,248.1 376.8,247.7 378.0,247.7 379.1,247.0 380.3,247.0 381.5,246.2 382.7,246.2 383.9,245.7 385.1,245.7 386.3,244.8 387.5,244.8 388.6,244.4 389.8,244.4 391.0,243.5 392.2,243.5 393.4,242.8 394.6,242.8 395.8,241.9 396.9,241.9 398.1,241.2 399.3,241.2 400.5,240.5 401.7,240.5 402.9,239.6 404.1,239.6 405.3,238.7 406.4,238.7 407.6,237.9 408.8,237.9 410.0,237.1 411.2,237.1 412.4,236.2 413.6,236.2 414.7,235.4 415.9,235.4 417.1,234.5 418.3,234.5 419.5,233.5 420.7,233.5 421.9,232.5 423.1,232.5 424.2,231.6 425.4,231.6 426.6,230.9 427.8,230.9 429.0,229.6 430.2,229.6 431.4,228.9 432.5,228.9 433.7,227.8 434.9,227.8 436.1,227.0 437.3,227.0 438.5,225.9 439.7,225.9 440.9,225.1 442.0,225.1 443.2,224.2 444.4,224.2 445.6,222.9 446.8,222.9 448.0,221.8 449.2,221.8 450.3,220.9 451.5,220.9 452.7,219.6 453.9,219.6 455.1,218.8 456.3,218.8 457.5,217.7 458.7,217.7 459.8,216.5 461.0,216.5 462.2,215.5 463.4,215.5 464.6,214.2 465.8,214.2 467.0,213.2 468.1,213.2 469.3,211.8 470.5,211.8 471.7,210.7 472.9,210.7 474.1,209.5 475.3,209.5 476.5,208.3 477.6,208.3 478.8,207.1 480.0,207.1 481.2,205.8 482.4,205.8 483.6,204.9 484.8,204.9 485.9,203.5 487.1,203.5 488.3,202.3 489.5,202.3 490.7,200.8 491.9,200.8 493.1,199.9 494.3,199.9 495.4,198.4 496.6,198.4 497.8,197.3 499.0,197.3 500.2,195.8 501.4,195.8 502.6,194.7 503.7,194.7 504.9,193.2 506.1,193.2 507.3,192.0 508.5,192.0 509.7,190.6 510.9,190.6 512.1,189.1 513.2,189.1 514.4,187.9 515.6,187.9 516.8,186.5 518.0,186.5 519.2,185.2 520.4,185.2 521.5,183.7 522.7,183.7 523.9,182.4 525.1,182.4 526.3,181.1 527.5,181.1 528.7,179.5 529.9,179.5 531.0,178.2 532.2,178.2 533.4,176.6 534.6,176.6 535.8,175.4 537.0,175.4 538.2,174.0 539.3,174.0 540.5,172.6 541.7,172.6 542.9,171.0 544.1,171.0 545.3,169.5 546.5,169.5 547.7,167.9 548.8,167.9 550.0,166.5 551.2,166.5 552.4,165.0 553.6,165.0 554.8,163.7 556.0,163.7 557.1,162.1 558.3,162.1 559.5,160.6 560.7,160.6 561.9,159.1 563.1,159.1 564.3,157.7 565.5,157.7 566.6,156.0 567.8,156.0 569.0,154.5 570.2,154.5 571.4,153.1 572.6,153.1 573.8,151.5 574.9,151.5 576.1,150.1 577.3,150.1 578.5,148.4 579.7,148.4 580.9,147.1 582.1,147.1 583.3,145.5 584.4,145.5 585.6,144.0 586.8,144.0 588.0,142.4 589.2,142.4 590.4,140.9 591.6,140.9 592.7,139.5 593.9,139.5 595.1,138.1 596.3,138.1 597.5,136.6 598.7,136.6 599.9,135.1 601.1,135.1 602.2,133.6 603.4,133.6 604.6,132.1 605.8,132.1 607.0,130.9 608.2,130.9 609.4,129.4 610.5,129.4 611.7,128.1 612.9,128.1 614.1,126.5 615.3,126.5 616.5,125.3 617.7,125.3 618.9,123.9 620.0,123.9 621.2,122.5 622.4,122.5 623.6,121.1 624.8,121.1 626.0,119.8 627.2,119.8 628.3,118.4 629.5,118.4 630.7,117.1 631.9,117.1 633.1,115.9 634.3,115.9 635.5,114.2 636.7,114.2 637.8,113.2 639.0,113.2 640.2,111.7 641.4,111.7 642.6,110.4 643.8,110.4 645.0,108.8 646.1,108.8 647.3,107.8 648.5,107.8 649.7,106.5 650.9,106.5 652.1,105.1 653.3,105.1 654.5,103.8 655.6,103.8 656.8,102.7 658.0,102.7 659.2,101.4 660.4,101.4 661.6,100.2 662.8,100.2 663.9,98.9 665.1,98.9 666.3,97.8 667.5,97.8 668.7,96.4 669.9,96.4 671.1,95.2 672.3,95.2 673.4,94.1 674.6,94.1 675.8,92.9 677.0,92.9 678.2,91.6 679.4,91.6 680.6,90.5 681.7,90.5 682.9,89.2 684.1,89.2 685.3,88.1 686.5,88.1 687.7,87.1 688.9,87.1 690.1,85.8 691.2,85.8 692.4,84.8 693.6,84.8 694.8,83.6 696.0,83.6 697.2,82.6 698.4,82.6 699.5,81.5 700.7,81.5 701.9,80.4 703.1,80.4 704.3,79.3 705.5,79.3 706.7,78.2 707.9,78.2 709.0,77.1 710.2,77.1 711.4,76.1 712.6,76.1 713.8,75.2 715.0,75.2 716.2,74.0 717.3,74.0 718.5,72.9 719.7,72.9 720.9,72.1 722.1,72.1 723.3,70.8 724.5,70.8 725.7,69.9 726.8,69.9 728.0,69.0 729.2,69.0 730.4,67.9 731.6,67.9 732.8,67.0 734.0,67.0 735.1,66.1 736.3,66.1 737.5,65.1 738.7,65.1 739.9,64.1 741.1,64.1 742.3,62.9 743.5,62.9 744.6,62.0 745.8,62.0 747.0,61.2 748.2,61.2 749.4,60.3 750.6,60.3 751.8,59.1 752.9,59.1 754.1,58.5 755.3,58.5 756.5,57.5 757.7,57.5 758.9,56.4 760.1,56.4 761.3,55.7 762.4,55.7 763.6,54.7 764.8,54.7 766.0,54.1"/>
<line x1="606" y1="60" x2="628" y2="60" stroke="#24a148" stroke-width="2.2"/>
<text x="634" y="64" font-family="Arial" font-size="12">baro_alt_m</text>
</svg>