<svg xmlns="http://www.w3.org/2000/svg" width="820" height="320" viewBox="0 0 820 320">
<rect width="100%" height="100%" fill="#ffffff"/>
<text x="54" y="28" font-family="Arial" font-size="18" font-weight="700">Downrange Position</text>
<line x1="54" y1="266" x2="766" y2="266" stroke="#1f2933"/>
<line x1="54" y1="54" x2="54" y2="266" stroke="#1f2933"/>
<text x="54" y="306" font-family="Arial" font-size="12">time (s)</text>
<text x="596" y="306" font-family="Arial" font-size="12">x (m)</text>
<text x="58" y="68" font-family="Arial" font-size="11">1.41e+03</text>
<text x="58" y="260" font-family="Arial" font-size="11">0</text>
<polyline fill="none" stroke="#0f62fe" stroke-width="2.2" points="54.0,266.0 55.3,265.6 56.6,265.2 58.0,264.8 59.3,264.4 60.6,264.0 61.9,263.6 63.3,263.2 64.6,262.8 65.9,262.4 67.2,262.0 68.6,261.6 69.9,261.2 71.2,260.8 72.5,260.4 73.9,259.9 75.2,259.5 76.5,259.1 77.8,258.7 79.1,258.2 80.5,257.8 81.8,257.4 83.1,256.9 84.4,256.5 85.8,256.0 87.1,255.6 88.4,255.1 89.7,254.7 91.1,254.2 92.4,253.8 93.7,253.3 95.0,252.8 96.3,252.4 97.7,251.9 99.0,251.4 100.3,250.9 101.6,250.5 103.0,250.0 104.3,249.5 105.6,249.0 106.9,248.5 108.3,248.0 109.6,247.5 110.9,247.0 112.2,246.5 113.6,246.0 114.9,245.5 116.2,245.0 117.5,244.5 118.8,244.0 120.2,243.5 121.5,243.0 122.8,242.4 124.1,241.9 125.5,241.4 126.8,240.9 128.1,240.3 129.4,239.8 130.8,239.3 132.1,238.7 133.4,238.2 134.7,237.6 136.1,237.1 137.4,236.5 138.7,236.0 140.0,235.4 141.3,234.9 142.7,234.3 144.0,233.8 145.3,233.2 146.6,232.6 148.0,232.1 149.3,231.5 150.6,230.9 151.9,230.3 153.3,229.8 154.6,229.2 155.9,228.6 157.2,228.0 158.6,227.4 159.9,226.8 161.2,226.2 162.5,225.6 163.8,225.0 165.2,224.4 166.5,223.8 167.8,223.2 169.1,222.6 170.5,222.0 171.8,221.4 173.1,220.8 174.4,220.2 175.8,219.5 177.1,218.9 178.4,218.3 179.7,217.7 181.0,217.0 182.4,216.4 183.7,215.8 185.0,215.1 186.3,214.5 187.7,213.8 189.0,213.2 190.3,212.5 191.6,211.9 193.0,211.2 194.3,210.6 195.6,209.9 196.9,209.3 198.3,208.6 199.6,207.9 200.9,207.3 202.2,206.6 203.5,205.9 204.9,205.3 206.2,204.6 207.5,203.9 208.8,203.2 210.2,202.6 211.5,201.9 212.8,201.2 214.1,200.5 215.5,199.8 216.8,199.1 218.1,198.4 219.4,197.7 220.8,197.0 222.1,196.3 223.4,195.6 224.7,194.9 226.0,194.2 227.4,193.5 228.7,192.8 230.0,192.1 231.3,191.4 232.7,190.6 234.0,189.9 235.3,189.2 236.6,188.5 238.0,187.7 239.3,187.0 240.6,186.3 241.9,185.6 243.2,184.8 244.6,184.1 245.9,183.4 247.2,182.6 248.5,181.9 249.9,181.1 251.2,180.4 252.5,179.7 253.8,178.9 255.2,178.2 256.5,177.4 257.8,176.7 259.1,175.9 260.5,175.2 261.8,174.4 263.1,173.7 264.4,172.9 265.7,172.2 267.1,171.4 268.4,170.7 269.7,169.9 271.0,169.1 272.4,168.4 273.7,167.6 275.0,166.9 276.3,166.1 277.7,165.3 279.0,164.6 280.3,163.8 281.6,163.1 283.0,162.3 284.3,161.5 285.6,160.8 286.9,160.0 288.2,159.2 289.6,158.5 290.9,157.7 292.2,156.9 293.5,156.1 294.9,155.4 296.2,154.6 297.5,153.8 298.8,153.1 300.2,152.3 301.5,151.5 302.8,150.8 304.1,150.0 305.4,149.2 306.8,148.4 308.1,147.7 309.4,146.9 310.7,146.1 312.1,145.4 313.4,144.6 314.7,143.8 316.0,143.0 317.4,142.3 318.7,141.5 320.0,140.7 321.3,139.9 322.7,139.2 324.0,138.4 325.3,137.6 326.6,136.9 327.9,136.1 329.3,135.3 330.6,134.6 331.9,133.8 333.2,133.0 334.6,132.3 335.9,131.5 337.2,130.7 338.5,130.0 339.9,129.2 341.2,128.4 342.5,127.7 343.8,126.9 345.2,126.2 346.5,125.4 347.8,124.6 349.1,123.9 350.4,123.1 351.8,122.4 353.1,121.6 354.4,120.9 355.7,120.1 357.1,119.4 358.4,118.6 359.7,117.9 361.0,117.1 362.4,116.4 363.7,115.7 365.0,114.9 366.3,114.2 367.7,113.4 369.0,112.7 370.3,112.0 371.6,111.2 372.9,110.5 374.3,109.8 375.6,109.1 376.9,108.4 378.2,107.6 379.6,106.9 380.9,106.2 382.2,105.5 383.5,104.8 384.9,104.1 386.2,103.4 387.5,102.7 388.8,102.0 390.1,101.3 391.5,100.6 392.8,99.9 394.1,99.2 395.4,98.5 396.8,97.9 398.1,97.2 399.4,96.5 400.7,95.8 402.1,95.2 403.4,94.5 404.7,93.9 406.0,93.2 407.4,92.5 408.7,91.9 410.0,91.3 411.3,90.6 412.6,90.0 414.0,89.4 415.3,88.7 416.6,88.1 417.9,87.5 419.3,86.9 420.6,86.3 421.9,85.7 423.2,85.1 424.6,84.5 425.9,83.9 427.2,83.3 428.5,82.7 429.9,82.1 431.2,81.6 432.5,81.0 433.8,80.4 435.1,79.9 436.5,79.3 437.8,78.8 439.1,78.2 440.4,77.7 441.8,77.2 443.1,76.7 444.4,76.2 445.7,75.6 447.1,75.1 448.4,74.6 449.7,74.2 451.0,73.7 452.3,73.2 453.7,72.7 455.0,72.3 456.3,71.8 457.6,71.3 459.0,70.9 460.3,70.5 461.6,70.0 462.9,69.6 464.3,69.2 465.6,68.8 466.9,68.4 468.2,68.0 469.6,67.6 470.9,67.2 472.2,66.8 473.5,66.4 474.8,66.1 476.2,65.7 477.5,65.4 478.8,65.0 480.1,64.7 481.5,64.4 482.8,64.0 484.1,63.7 485.4,63.4 486.8,63.1 488.1,62.8 489.4,62.5 490.7,62.2 492.1,62.0 493.4,61.7 494.7,61.4 496.0,61.2 497.3,60.9 498.7,60.7 500.0,60.4 501.3,60.2 502.6,60.0 504.0,59.7 505.3,59.5 506.6,59.3 507.9,59.1 509.3,58.9 510.6,58.7 511.9,58.5 513.2,58.3 514.6,58.1 515.9,57.9 517.2,57.7 518.5,57.5 519.8,57.4 521.2,57.2 522.5,57.1 523.8,56.9 525.1,56.7 526.5,56.6 527.8,56.5 529.1,56.3 530.4,56.2 531.8,56.1 533.1,55.9 534.4,55.8 535.7,55.7 537.0,55.6 538.4,55.5 539.7,55.4 541.0,55.3 542.3,55.2 543.7,55.1 545.0,55.0 546.3,55.0 547.6,54.9 549.0,54.8 550.3,54.7 551.6,54.7 552.9,54.6 554.3,54.6 555.6,54.5 556.9,54.5 558.2,54.4 559.5,54.4 560.9,54.3 562.2,54.3 563.5,54.2 564.8,54.2 566.2,54.2 567.5,54.1 568.8,54.1 570.1,54.1 571.5,54.1 572.8,54.0 574.1,54.0 575.4,54.0 576.8,54.0 578.1,54.0 579.4,54.0 580.7,54.0 582.0,54.0 583.4,54.0 584.7,54.0 586.0,54.0 587.3,54.1 588.7,54.1 590.0,54.1 591.3,54.1 592.6,54.2 594.0,54.2 595.3,54.2 596.6,54.3 597.9,54.3 599.2,54.3 600.6,54.4 601.9,54.4 603.2,54.5 604.5,54.5 605.9,54.6 607.2,54.6 608.5,54.7 609.8,54.8 611.2,54.8 612.5,54.9 613.8,54.9 615.1,55.0 616.5,55.1 617.8,55.1 619.1,55.2 620.4,55.2 621.7,55.3 623.1,55.4 624.4,55.4 625.7,55.5 627.0,55.5 628.4,55.6 629.7,55.6 631.0,55.7 632.3,55.7 633.7,55.7 635.0,55.8 636.3,55.8 637.6,55.9 639.0,55.9 640.3,55.9 641.6,56.0 642.9,56.0 644.2,56.1 645.6,56.1 646.9,56.1 648.2,56.2 649.5,56.2 650.9,56.3 652.2,56.3 653.5,56.4 654.8,56.4 656.2,56.5 657.5,56.5 658.8,56.6 660.1,56.6 661.4,56.7 662.8,56.7 664.1,56.8 665.4,56.8 666.7,56.9 668.1,56.9 669.4,57.0 670.7,57.0 672.0,57.0 673.4,57.1 674.7,57.1 676.0,57.1 677.3,57.2 678.7,57.2 680.0,57.2 681.3,57.3 682.6,57.3 683.9,57.3 685.3,57.4 686.6,57.4 687.9,57.4 689.2,57.4 690.6,57.5 691.9,57.5 693.2,57.5 694.5,57.5 695.9,57.6 697.2,57.6 698.5,57.6 699.8,57.6 701.2,57.6 702.5,57.6 703.8,57.7 705.1,57.7 706.4,57.7 707.8,57.7 709.1,57.7 710.4,57.7 711.7,57.7 713.1,57.7 714.4,57.7 715.7,57.7 717.0,57.7 718.4,57.7 719.7,57.7 721.0,57.8 722.3,57.8 723.7,57.8 725.0,57.8 726.3,57.8 727.6,57.8 728.9,57.8 730.3,57.8 731.6,57.8 732.9,57.8 734.2,57.8 735.6,57.8 736.9,57.8 738.2,57.8 739.5,57.7 740.9,57.7 742.2,57.7 743.5,57.7 744.8,57.7 746.1,57.7 747.5,57.7 748.8,57.7 750.1,57.7 751.4,57.7 752.8,57.7 754.1,57.7 755.4,57.7 756.7,57.7 758.1,57.7 759.4,57.7 760.7,57.7 762.0,57.7 763.4,57.7 764.7,57.7 766.0,57.7"/>
<line x1="606" y1="42" x2="628" y2="42" stroke="#0f62fe" stroke-width="2.2"/>
<text x="634" y="46" font-family="Arial" font-size="12">x_m</text>
</svg>