<svg xmlns="http://www.w3.org/2000/svg" width="820" height="320" viewBox="0 0 820 320">
<rect width="100%" height="100%" fill="#ffffff"/>
<text x="54" y="28" font-family="Arial" font-size="18" font-weight="700">Velocity X</text>
<line x1="54" y1="266" x2="766" y2="266" stroke="#1f2933"/>
<line x1="54" y1="54" x2="54" y2="266" stroke="#1f2933"/>
<text x="54" y="306" font-family="Arial" font-size="12">time (s)</text>
<text x="596" y="306" font-family="Arial" font-size="12">vx (m/s)</text>
<text x="58" y="68" font-family="Arial" font-size="11">171</text>
<text x="58" y="260" font-family="Arial" font-size="11">-13.5</text>
<polyline fill="none" stroke="#0f62fe" stroke-width="2.2" points="54.0,152.8 55.3,152.2 56.6,151.6 58.0,151.0 59.3,150.4 60.6,149.8 61.9,149.2 63.3,148.6 64.6,147.9 65.9,147.3 67.2,146.6 68.6,145.9 69.9,145.3 71.2,144.6 72.5,143.9 73.9,143.2 75.2,142.5 76.5,141.8 77.8,141.1 79.1,140.4 80.5,139.7 81.8,139.0 83.1,138.3 84.4,137.6 85.8,136.9 87.1,136.2 88.4,135.5 89.7,134.9 91.1,134.2 92.4,133.5 93.7,132.8 95.0,132.1 96.3,131.5 97.7,130.8 99.0,130.1 100.3,129.4 101.6,128.7 103.0,128.1 104.3,127.4 105.6,126.7 106.9,126.0 108.3,125.4 109.6,124.7 110.9,124.0 112.2,123.4 113.6,122.7 114.9,122.0 116.2,121.4 117.5,120.7 118.8,120.0 120.2,119.4 121.5,118.7 122.8,118.0 124.1,117.4 125.5,116.7 126.8,116.1 128.1,115.4 129.4,114.8 130.8,114.1 132.1,113.4 133.4,112.8 134.7,112.1 136.1,111.5 137.4,110.8 138.7,110.2 140.0,109.5 141.3,108.9 142.7,108.3 144.0,107.6 145.3,107.0 146.6,106.3 148.0,105.7 149.3,105.0 150.6,104.4 151.9,103.8 153.3,103.1 154.6,102.5 155.9,101.8 157.2,101.2 158.6,100.6 159.9,100.0 161.2,99.3 162.5,98.7 163.8,98.1 165.2,97.4 166.5,96.8 167.8,96.2 169.1,95.6 170.5,94.9 171.8,94.3 173.1,93.7 174.4,93.1 175.8,92.5 177.1,91.8 178.4,91.2 179.7,90.6 181.0,90.0 182.4,89.4 183.7,88.8 185.0,88.2 186.3,87.6 187.7,87.0 189.0,86.4 190.3,85.8 191.6,85.2 193.0,84.6 194.3,84.0 195.6,83.4 196.9,82.8 198.3,82.3 199.6,81.7 200.9,81.1 202.2,80.5 203.5,79.9 204.9,79.4 206.2,78.8 207.5,78.2 208.8,77.6 210.2,77.1 211.5,76.5 212.8,76.0 214.1,75.4 215.5,74.9 216.8,74.3 218.1,73.8 219.4,73.2 220.8,72.7 222.1,72.1 223.4,71.6 224.7,71.1 226.0,70.6 227.4,70.0 228.7,69.5 230.0,69.0 231.3,68.5 232.7,68.0 234.0,67.5 235.3,67.0 236.6,66.6 238.0,66.1 239.3,65.6 240.6,65.1 241.9,64.7 243.2,64.2 244.6,63.8 245.9,63.4 247.2,63.0 248.5,62.6 249.9,62.3 251.2,61.9 252.5,61.5 253.8,61.2 255.2,60.9 256.5,60.6 257.8,60.3 259.1,60.0 260.5,59.7 261.8,59.4 263.1,59.2 264.4,59.0 265.7,58.7 267.1,58.5 268.4,58.3 269.7,58.0 271.0,57.9 272.4,57.6 273.7,57.4 275.0,57.2 276.3,57.0 277.7,56.8 279.0,56.6 280.3,56.4 281.6,56.1 283.0,56.0 284.3,55.7 285.6,55.6 286.9,55.4 288.2,55.3 289.6,55.1 290.9,55.0 292.2,54.8 293.5,54.8 294.9,54.7 296.2,54.7 297.5,54.6 298.8,54.6 300.2,54.5 301.5,54.5 302.8,54.4 304.1,54.4 305.4,54.3 306.8,54.3 308.1,54.2 309.4,54.2 310.7,54.1 312.1,54.1 313.4,54.0 314.7,54.0 316.0,54.0 317.4,54.0 318.7,54.0 320.0,54.1 321.3,54.1 322.7,54.3 324.0,54.4 325.3,54.6 326.6,54.7 327.9,54.9 329.3,55.0 330.6,55.2 331.9,55.3 333.2,55.4 334.6,55.5 335.9,55.7 337.2,55.8 338.5,56.1 339.9,56.2 341.2,56.5 342.5,56.6 343.8,56.9 345.2,57.1 346.5,57.5 347.8,57.8 349.1,58.1 350.4,58.5 351.8,58.9 353.1,59.2 354.4,59.7 355.7,60.0 357.1,60.4 358.4,60.7 359.7,61.1 361.0,61.4 362.4,61.8 363.7,62.2 365.0,62.6 366.3,63.0 367.7,63.5 369.0,63.9 370.3,64.4 371.6,64.9 372.9,65.5 374.3,66.0 375.6,66.7 376.9,67.3 378.2,68.0 379.6,68.6 380.9,69.2 382.2,69.8 383.5,70.5 384.9,71.1 386.2,71.8 387.5,72.4 388.8,73.1 390.1,73.8 391.5,74.5 392.8,75.2 394.1,76.0 395.4,76.7 396.8,77.6 398.1,78.4 399.4,79.3 400.7,80.1 402.1,81.1 403.4,82.0 404.7,83.0 406.0,83.9 407.4,84.9 408.7,85.8 410.0,86.9 411.3,87.8 412.6,88.9 414.0,89.9 415.3,91.0 416.6,92.0 417.9,93.1 419.3,94.2 420.6,95.4 421.9,96.5 423.2,97.7 424.6,98.9 425.9,100.2 427.2,101.4 428.5,102.8 429.9,104.1 431.2,105.5 432.5,106.8 433.8,108.2 435.1,109.5 436.5,111.0 437.8,112.3 439.1,113.7 440.4,115.1 441.8,116.6 443.1,118.0 444.4,119.5 445.7,121.0 447.1,122.5 448.4,124.0 449.7,125.6 451.0,127.2 452.3,128.8 453.7,130.5 455.0,132.2 456.3,133.8 457.6,135.5 459.0,137.2 460.3,139.0 461.6,140.7 462.9,142.4 464.3,144.1 465.6,145.8 466.9,147.6 468.2,149.3 469.6,151.0 470.9,152.8 472.2,154.5 473.5,156.3 474.8,158.0 476.2,159.8 477.5,161.6 478.8,163.3 480.1,165.1 481.5,166.8 482.8,168.5 484.1,170.1 485.4,171.8 486.8,173.4 488.1,175.0 489.4,176.6 490.7,178.2 492.1,179.7 493.4,181.3 494.7,182.8 496.0,184.2 497.3,185.7 498.7,187.1 500.0,188.5 501.3,189.9 502.6,191.2 504.0,192.5 505.3,193.8 506.6,195.0 507.9,196.3 509.3,197.5 510.6,198.8 511.9,200.0 513.2,201.3 514.6,202.6 515.9,203.8 517.2,205.1 518.5,206.3 519.8,207.5 521.2,208.8 522.5,210.0 523.8,211.2 525.1,212.4 526.5,213.7 527.8,214.8 529.1,216.0 530.4,217.2 531.8,218.4 533.1,219.5 534.4,220.6 535.7,221.7 537.0,222.8 538.4,223.9 539.7,225.0 541.0,226.1 542.3,227.1 543.7,228.1 545.0,229.1 546.3,230.1 547.6,231.0 549.0,232.0 550.3,232.9 551.6,233.8 552.9,234.6 554.3,235.5 555.6,236.3 556.9,237.1 558.2,237.9 559.5,238.6 560.9,239.3 562.2,240.0 563.5,240.7 564.8,241.4 566.2,242.1 567.5,242.8 568.8,243.6 570.1,244.3 571.5,245.1 572.8,245.9 574.1,246.7 575.4,247.4 576.8,248.2 578.1,249.0 579.4,249.8 580.7,250.7 582.0,251.5 583.4,252.3 584.7,253.2 586.0,254.0 587.3,254.9 588.7,255.7 590.0,256.5 591.3,257.3 592.6,258.1 594.0,258.8 595.3,259.5 596.6,260.2 597.9,260.8 599.2,261.4 600.6,262.0 601.9,262.6 603.2,263.1 604.5,263.6 605.9,264.0 607.2,264.4 608.5,264.8 609.8,265.1 611.2,265.4 612.5,265.7 613.8,265.8 615.1,266.0 616.5,266.0 617.8,266.0 619.1,265.8 620.4,265.6 621.7,265.4 623.1,265.0 624.4,264.5 625.7,263.9 627.0,263.2 628.4,262.5 629.7,262.3 631.0,262.0 632.3,261.7 633.7,261.4 635.0,261.1 636.3,260.8 637.6,260.3 639.0,259.9 640.3,259.8 641.6,259.9 642.9,260.2 644.2,260.6 645.6,260.9 646.9,261.2 648.2,261.5 649.5,261.7 650.9,262.0 652.2,262.3 653.5,262.7 654.8,263.1 656.2,263.5 657.5,263.8 658.8,264.0 660.1,263.9 661.4,263.7 662.8,263.3 664.1,262.9 665.4,262.5 666.7,262.0 668.1,261.6 669.4,261.2 670.7,260.8 672.0,260.4 673.4,260.0 674.7,259.6 676.0,259.2 677.3,258.8 678.7,258.5 680.0,258.3 681.3,258.1 682.6,258.0 683.9,258.0 685.3,257.9 686.6,257.8 687.9,257.6 689.2,257.4 690.6,257.1 691.9,256.8 693.2,256.4 694.5,256.1 695.9,255.7 697.2,255.3 698.5,255.0 699.8,254.6 701.2,254.3 702.5,254.0 703.8,253.8 705.1,253.5 706.4,253.3 707.8,253.1 709.1,252.9 710.4,252.7 711.7,252.5 713.1,252.3 714.4,252.2 715.7,252.0 717.0,251.8 718.4,251.7 719.7,251.5 721.0,251.3 722.3,251.2 723.7,251.0 725.0,250.9 726.3,250.8 727.6,250.6 728.9,250.5 730.3,250.4 731.6,250.3 732.9,250.2 734.2,250.1 735.6,250.0 736.9,249.9 738.2,249.8 739.5,249.8 740.9,249.7 742.2,249.6 743.5,249.6 744.8,249.5 746.1,249.5 747.5,249.4 748.8,249.4 750.1,249.4 751.4,249.4 752.8,249.3 754.1,249.3 755.4,249.3 756.7,249.3 758.1,249.4 759.4,249.4 760.7,249.4 762.0,249.4 763.4,249.5 764.7,249.5 766.0,249.5"/>
<line x1="606" y1="42" x2="628" y2="42" stroke="#0f62fe" stroke-width="2.2"/>
<text x="634" y="46" font-family="Arial" font-size="12">vx_mps</text>
</svg>