<svg xmlns="http://www.w3.org/2000/svg" width="820" height="320" viewBox="0 0 820 320">
<rect width="100%" height="100%" fill="#ffffff"/>
<text x="54" y="28" font-family="Arial" font-size="18" font-weight="700">Load Factor</text>
<line x1="54" y1="266" x2="766" y2="266" stroke="#1f2933"/>
<line x1="54" y1="54" x2="54" y2="266" stroke="#1f2933"/>
<text x="54" y="306" font-family="Arial" font-size="12">time (s)</text>
<text x="596" y="306" font-family="Arial" font-size="12">g</text>
<text x="58" y="68" font-family="Arial" font-size="11">5.34</text>
<text x="58" y="260" font-family="Arial" font-size="11">0.456</text>
<polyline fill="none" stroke="#0f62fe" stroke-width="2.2" points="54.0,210.0 55.3,208.8 56.6,207.5 58.0,206.2 59.3,204.9 60.6,203.6 61.9,202.3 63.3,200.9 64.6,199.6 65.9,198.2 67.2,196.8 68.6,195.5 69.9,194.1 71.2,192.7 72.5,192.3 73.9,192.3 75.2,192.4 76.5,192.4 77.8,192.4 79.1,192.5 80.5,192.5 81.8,192.5 83.1,192.6 84.4,192.6 85.8,192.6 87.1,192.7 88.4,192.7 89.7,192.7 91.1,192.7 92.4,192.8 93.7,192.8 95.0,192.8 96.3,192.8 97.7,192.9 99.0,192.9 100.3,192.9 101.6,192.9 103.0,193.0 104.3,193.0 105.6,193.0 106.9,193.0 108.3,193.0 109.6,193.0 110.9,193.1 112.2,193.1 113.6,193.1 114.9,193.1 116.2,193.1 117.5,193.1 118.8,193.2 120.2,193.2 121.5,193.2 122.8,193.2 124.1,193.2 125.5,193.2 126.8,193.2 128.1,193.2 129.4,193.3 130.8,193.3 132.1,193.3 133.4,193.3 134.7,193.3 136.1,193.3 137.4,193.3 138.7,193.3 140.0,193.3 141.3,193.3 142.7,193.3 144.0,193.3 145.3,193.3 146.6,193.3 148.0,193.3 149.3,193.3 150.6,193.3 151.9,193.3 153.3,193.3 154.6,193.4 155.9,193.4 157.2,193.4 158.6,193.4 159.9,193.4 161.2,193.4 162.5,193.3 163.8,193.3 165.2,193.3 166.5,193.3 167.8,193.3 169.1,193.2 170.5,193.2 171.8,193.2 173.1,193.1 174.4,193.1 175.8,193.1 177.1,193.0 178.4,193.0 179.7,192.9 181.0,192.9 182.4,192.8 183.7,192.7 185.0,192.7 186.3,192.6 187.7,192.5 189.0,192.5 190.3,192.4 191.6,192.3 193.0,192.2 194.3,192.1 195.6,192.0 196.9,191.9 198.3,191.8 199.6,191.7 200.9,191.6 202.2,191.5 203.5,191.4 204.9,191.3 206.2,191.1 207.5,191.0 208.8,190.8 210.2,190.6 211.5,190.5 212.8,190.3 214.1,190.0 215.5,189.9 216.8,189.5 218.1,189.4 219.4,188.9 220.8,189.1 222.1,187.7 223.4,189.2 224.7,185.2 226.0,190.2 227.4,184.9 228.7,189.5 230.0,183.8 231.3,188.6 232.7,183.0 234.0,188.1 235.3,182.0 236.6,187.1 238.0,180.8 239.3,185.8 240.6,178.7 241.9,184.2 243.2,178.2 244.6,181.5 245.9,171.4 247.2,176.5 248.5,168.5 249.9,176.4 251.2,171.7 252.5,170.5 253.8,168.8 255.2,167.2 256.5,165.8 257.8,164.1 259.1,163.2 260.5,160.5 261.8,162.0 263.1,153.7 264.4,164.2 265.7,159.5 267.1,157.6 268.4,160.0 269.7,151.7 271.0,163.7 272.4,161.4 273.7,157.3 275.0,166.6 276.3,155.7 277.7,161.2 279.0,154.8 280.3,165.9 281.6,156.1 283.0,164.7 284.3,153.0 285.6,161.5 286.9,150.3 288.2,160.4 289.6,151.6 290.9,156.8 292.2,140.6 293.5,147.3 294.9,136.6 296.2,149.6 297.5,144.2 298.8,147.9 300.2,139.6 301.5,154.2 302.8,148.0 304.1,154.3 305.4,141.9 306.8,153.3 308.1,143.9 309.4,156.6 310.7,145.5 312.1,155.9 313.4,142.1 314.7,152.1 316.0,138.9 317.4,150.1 318.7,138.6 320.0,146.4 321.3,129.1 322.7,137.7 324.0,123.3 325.3,135.3 326.6,124.2 327.9,139.4 329.3,128.6 330.6,143.1 331.9,131.3 333.2,143.7 334.6,129.6 335.9,141.3 337.2,126.1 338.5,137.9 339.9,123.6 341.2,136.5 342.5,124.4 343.8,133.9 345.2,115.9 346.5,125.9 347.8,109.2 349.1,121.0 350.4,107.6 351.8,122.7 353.1,110.7 354.4,127.2 355.7,115.1 357.1,130.2 358.4,116.8 359.7,130.0 361.0,114.7 362.4,127.6 363.7,111.6 365.0,124.6 366.3,108.5 367.7,121.6 369.0,108.0 370.3,118.7 371.6,100.1 372.9,111.4 374.3,95.2 375.6,106.0 376.9,94.1 378.2,107.2 379.6,95.9 380.9,111.3 382.2,97.6 383.5,112.3 384.9,96.7 386.2,110.6 387.5,95.3 388.8,108.1 390.1,93.9 391.5,105.4 392.8,92.9 394.1,102.2 395.4,91.0 396.8,99.5 398.1,87.0 399.4,95.9 400.7,84.2 402.1,94.0 403.4,83.9 404.7,94.1 406.0,82.9 407.4,93.2 408.7,81.9 410.0,92.4 411.3,81.3 412.6,92.1 414.0,81.9 415.3,92.2 416.6,80.9 417.9,90.1 419.3,77.1 420.6,86.5 421.9,75.6 423.2,82.2 424.6,70.3 425.9,80.0 427.2,67.8 428.5,77.9 429.9,65.6 431.2,76.2 432.5,66.4 433.8,75.7 435.1,67.4 436.5,75.3 437.8,68.7 439.1,73.9 440.4,69.2 441.8,71.5 443.1,68.3 444.4,68.0 445.7,65.7 447.1,64.1 448.4,62.1 449.7,60.1 451.0,58.4 452.3,56.8 453.7,55.6 455.0,54.7 456.3,54.2 457.6,54.0 459.0,54.1 460.3,54.3 461.6,54.6 462.9,55.0 464.3,55.2 465.6,55.2 466.9,55.5 468.2,55.9 469.6,56.0 470.9,56.1 472.2,55.9 473.5,55.7 474.8,55.5 476.2,55.7 477.5,58.4 478.8,60.9 480.1,63.6 481.5,66.3 482.8,69.0 484.1,71.7 485.4,74.4 486.8,77.1 488.1,79.8 489.4,82.5 490.7,85.3 492.1,88.1 493.4,90.9 494.7,93.8 496.0,96.8 497.3,99.8 498.7,102.9 500.0,106.1 501.3,109.3 502.6,112.5 504.0,115.7 505.3,117.1 506.6,116.1 507.9,115.1 509.3,114.2 510.6,113.4 511.9,112.6 513.2,111.8 514.6,111.0 515.9,110.3 517.2,109.5 518.5,108.9 519.8,108.2 521.2,107.7 522.5,107.2 523.8,106.8 525.1,106.4 526.5,106.1 527.8,105.9 529.1,105.7 530.4,105.5 531.8,105.5 533.1,105.4 534.4,105.5 535.7,105.5 537.0,105.7 538.4,105.8 539.7,106.0 541.0,106.3 542.3,106.5 543.7,106.9 545.0,107.2 546.3,107.6 547.6,108.0 549.0,108.5 550.3,109.0 551.6,109.5 552.9,110.0 554.3,110.5 555.6,111.0 556.9,111.5 558.2,111.8 559.5,112.1 560.9,112.9 562.2,114.1 563.5,115.7 564.8,117.8 566.2,120.1 567.5,122.4 568.8,124.6 570.1,126.7 571.5,128.6 572.8,130.4 574.1,132.3 575.4,134.2 576.8,136.1 578.1,138.0 579.4,139.7 580.7,141.5 582.0,143.4 583.4,145.2 584.7,147.0 586.0,148.5 587.3,148.5 588.7,147.8 590.0,147.2 591.3,146.9 592.6,147.0 594.0,147.2 595.3,147.4 596.6,147.5 597.9,147.6 599.2,147.6 600.6,147.6 601.9,147.6 603.2,147.7 604.5,147.8 605.9,147.9 607.2,148.1 608.5,148.3 609.8,148.6 611.2,149.0 612.5,149.5 613.8,150.2 615.1,151.3 616.5,152.6 617.8,154.1 619.1,155.6 620.4,157.3 621.7,158.4 623.1,160.2 624.4,162.8 625.7,165.8 627.0,169.3 628.4,209.8 629.7,211.0 631.0,212.5 632.3,213.8 633.7,214.3 635.0,209.5 636.3,201.6 637.6,219.1 639.0,241.3 640.3,236.9 641.6,216.5 642.9,204.7 644.2,209.3 645.6,213.6 646.9,216.9 648.2,219.1 649.5,220.9 650.9,222.1 652.2,222.2 653.5,220.6 654.8,219.7 656.2,235.3 657.5,256.0 658.8,263.9 660.1,245.8 661.4,229.4 662.8,219.8 664.1,213.8 665.4,212.6 666.7,214.5 668.1,215.7 669.4,216.6 670.7,217.4 672.0,217.5 673.4,219.7 674.7,226.7 676.0,234.5 677.3,241.7 678.7,250.4 680.0,258.8 681.3,263.7 682.6,265.7 683.9,266.0 685.3,264.4 686.6,260.3 687.9,253.3 689.2,244.4 690.6,237.7 691.9,231.0 693.2,225.0 694.5,221.3 695.9,221.5 697.2,223.1 698.5,224.6 699.8,225.8 701.2,226.9 702.5,228.0 703.8,228.9 705.1,229.7 706.4,230.3 707.8,230.9 709.1,230.5 710.4,230.3 711.7,230.1 713.1,229.9 714.4,229.8 715.7,229.7 717.0,229.6 718.4,229.5 719.7,229.2 721.0,228.9 722.3,228.7 723.7,228.5 725.0,228.4 726.3,228.4 727.6,228.3 728.9,228.4 730.3,228.4 731.6,228.5 732.9,228.6 734.2,228.8 735.6,229.0 736.9,229.2 738.2,229.4 739.5,229.6 740.9,229.9 742.2,230.2 743.5,230.5 744.8,230.7 746.1,231.0 747.5,231.4 748.8,231.7 750.1,232.0 751.4,232.3 752.8,232.6 754.1,232.9 755.4,233.2 756.7,233.5 758.1,233.9 759.4,234.3 760.7,234.6 762.0,235.0 763.4,235.1 764.7,234.9 766.0,235.0"/>
<line x1="606" y1="42" x2="628" y2="42" stroke="#0f62fe" stroke-width="2.2"/>
<text x="634" y="46" font-family="Arial" font-size="12">load_factor_g</text>
</svg>