<svg xmlns="http://www.w3.org/2000/svg" width="820" height="320" viewBox="0 0 820 320">
<rect width="100%" height="100%" fill="#ffffff"/>
<text x="54" y="28" font-family="Arial" font-size="18" font-weight="700">GPS Altitude vs Truth</text>
<line x1="54" y1="266" x2="766" y2="266" stroke="#1f2933"/>
<line x1="54" y1="54" x2="54" y2="266" stroke="#1f2933"/>
<text x="54" y="306" font-family="Arial" font-size="12">time (s)</text>
<text x="596" y="306" font-family="Arial" font-size="12">altitude (m)</text>
<text x="58" y="68" font-family="Arial" font-size="11">178</text>
<text x="58" y="260" font-family="Arial" font-size="11">-0.532</text>
<polyline fill="none" stroke="#0f62fe" stroke-width="2.2" points="54.0,241.6 55.3,241.3 56.6,241.0 58.0,240.7 59.3,240.5 60.6,240.2 61.9,240.0 63.3,239.8 64.6,239.5 65.9,239.3 67.2,239.1 68.6,238.9 69.9,238.7 71.2,238.4 72.5,238.2 73.9,238.0 75.2,237.9 76.5,237.7 77.8,237.5 79.1,237.3 80.5,237.1 81.8,236.9 83.1,236.8 84.4,236.6 85.8,236.4 87.1,236.3 88.4,236.1 89.7,236.0 91.1,235.8 92.4,235.7 93.7,235.5 95.0,235.4 96.3,235.2 97.7,235.1 99.0,235.0 100.3,234.8 101.6,234.7 103.0,234.6 104.3,234.5 105.6,234.3 106.9,234.2 108.3,234.1 109.6,234.0 110.9,233.9 112.2,233.8 113.6,233.7 114.9,233.5 116.2,233.4 117.5,233.3 118.8,233.2 120.2,233.1 121.5,233.0 122.8,232.9 124.1,232.8 125.5,232.8 126.8,232.7 128.1,232.6 129.4,232.5 130.8,232.4 132.1,232.3 133.4,232.2 134.7,232.1 136.1,232.0 137.4,232.0 138.7,231.9 140.0,231.8 141.3,231.7 142.7,231.6 144.0,231.6 145.3,231.5 146.6,231.4 148.0,231.3 149.3,231.2 150.6,231.2 151.9,231.1 153.3,231.0 154.6,230.9 155.9,230.9 157.2,230.8 158.6,230.7 159.9,230.6 161.2,230.5 162.5,230.5 163.8,230.4 165.2,230.3 166.5,230.2 167.8,230.2 169.1,230.1 170.5,230.0 171.8,229.9 173.1,229.8 174.4,229.7 175.8,229.7 177.1,229.6 178.4,229.5 179.7,229.4 181.0,229.3 182.4,229.2 183.7,229.1 185.0,229.0 186.3,228.9 187.7,228.8 189.0,228.7 190.3,228.6 191.6,228.5 193.0,228.4 194.3,228.3 195.6,228.2 196.9,228.1 198.3,228.0 199.6,227.9 200.9,227.7 202.2,227.6 203.5,227.5 204.9,227.4 206.2,227.2 207.5,227.1 208.8,227.0 210.2,226.8 211.5,226.7 212.8,226.5 214.1,226.4 215.5,226.2 216.8,226.0 218.1,225.9 219.4,225.7 220.8,225.5 222.1,225.3 223.4,225.1 224.7,225.0 226.0,224.8 227.4,224.6 228.7,224.4 230.0,224.1 231.3,223.9 232.7,223.7 234.0,223.5 235.3,223.3 236.6,223.0 238.0,222.8 239.3,222.5 240.6,222.3 241.9,222.0 243.2,221.8 244.6,221.5 245.9,221.2 247.2,220.9 248.5,220.6 249.9,220.3 251.2,220.0 252.5,219.7 253.8,219.4 255.2,219.1 256.5,218.7 257.8,218.4 259.1,218.0 260.5,217.6 261.8,217.3 263.1,216.9 264.4,216.5 265.7,216.1 267.1,215.6 268.4,215.2 269.7,214.8 271.0,214.3 272.4,213.9 273.7,213.4 275.0,213.0 276.3,212.5 277.7,212.0 279.0,211.5 280.3,211.0 281.6,210.5 283.0,210.0 284.3,209.4 285.6,208.9 286.9,208.4 288.2,207.8 289.6,207.2 290.9,206.7 292.2,206.1 293.5,205.5 294.9,204.9 296.2,204.3 297.5,203.7 298.8,203.0 300.2,202.4 301.5,201.7 302.8,201.1 304.1,200.4 305.4,199.7 306.8,199.0 308.1,198.3 309.4,197.6 310.7,196.9 312.1,196.2 313.4,195.5 314.7,194.8 316.0,194.0 317.4,193.3 318.7,192.5 320.0,191.7 321.3,191.0 322.7,190.2 324.0,189.4 325.3,188.6 326.6,187.8 327.9,187.0 329.3,186.2 330.6,185.3 331.9,184.5 333.2,183.6 334.6,182.8 335.9,181.9 337.2,181.0 338.5,180.2 339.9,179.3 341.2,178.4 342.5,177.5 343.8,176.6 345.2,175.6 346.5,174.7 347.8,173.8 349.1,172.8 350.4,171.9 351.8,170.9 353.1,170.0 354.4,169.0 355.7,168.0 357.1,167.0 358.4,166.0 359.7,165.0 361.0,164.0 362.4,163.0 363.7,162.0 365.0,161.0 366.3,160.0 367.7,158.9 369.0,157.9 370.3,156.9 371.6,155.8 372.9,154.8 374.3,153.7 375.6,152.6 376.9,151.6 378.2,150.5 379.6,149.4 380.9,148.3 382.2,147.2 383.5,146.1 384.9,145.0 386.2,143.9 387.5,142.8 388.8,141.7 390.1,140.6 391.5,139.5 392.8,138.4 394.1,137.2 395.4,136.1 396.8,135.0 398.1,133.9 399.4,132.7 400.7,131.6 402.1,130.5 403.4,129.3 404.7,128.2 406.0,127.1 407.4,125.9 408.7,124.8 410.0,123.6 411.3,122.5 412.6,121.4 414.0,120.2 415.3,119.1 416.6,117.9 417.9,116.8 419.3,115.7 420.6,114.5 421.9,113.4 423.2,112.3 424.6,111.2 425.9,110.0 427.2,108.9 428.5,107.8 429.9,106.7 431.2,105.6 432.5,104.5 433.8,103.4 435.1,102.3 436.5,101.2 437.8,100.1 439.1,99.0 440.4,97.9 441.8,96.9 443.1,95.8 444.4,94.8 445.7,93.7 447.1,92.7 448.4,91.6 449.7,90.6 451.0,89.6 452.3,88.6 453.7,87.6 455.0,86.6 456.3,85.6 457.6,84.7 459.0,83.7 460.3,82.7 461.6,81.8 462.9,80.9 464.3,80.0 465.6,79.1 466.9,78.2 468.2,77.3 469.6,76.4 470.9,75.5 472.2,74.7 473.5,73.9 474.8,73.1 476.2,72.2 477.5,71.5 478.8,70.7 480.1,69.9 481.5,69.2 482.8,68.5 484.1,67.7 485.4,67.0 486.8,66.4 488.1,65.7 489.4,65.1 490.7,64.4 492.1,63.8 493.4,63.2 494.7,62.7 496.0,62.1 497.3,61.6 498.7,61.0 500.0,60.5 501.3,60.1 502.6,59.6 504.0,59.1 505.3,58.7 506.6,58.3 507.9,57.9 509.3,57.6 510.6,57.2 511.9,56.9 513.2,56.6 514.6,56.3 515.9,56.0 517.2,55.8 518.5,55.6 519.8,55.4 521.2,55.2 522.5,55.0 523.8,54.9 525.1,54.7 526.5,54.6 527.8,54.5 529.1,54.5 530.4,54.4 531.8,54.4 533.1,54.4 534.4,54.4 535.7,54.4 537.0,54.5 538.4,54.5 539.7,54.6 541.0,54.7 542.3,54.8 543.7,55.0 545.0,55.1 546.3,55.3 547.6,55.5 549.0,55.7 550.3,55.9 551.6,56.2 552.9,56.4 554.3,56.7 555.6,57.0 556.9,57.3 558.2,57.7 559.5,58.0 560.9,58.4 562.2,58.8 563.5,59.2 564.8,59.6 566.2,60.0 567.5,60.5 568.8,61.0 570.1,61.5 571.5,61.9 572.8,62.5 574.1,63.0 575.4,63.5 576.8,64.1 578.1,64.6 579.4,65.2 580.7,65.8 582.0,66.4 583.4,67.0 584.7,67.7 586.0,68.3 587.3,68.9 588.7,69.6 590.0,70.3 591.3,71.0 592.6,71.7 594.0,72.4 595.3,73.1 596.6,73.9 597.9,74.6 599.2,75.4 600.6,76.2 601.9,77.1 603.2,77.9 604.5,78.8 605.9,79.7 607.2,80.6 608.5,81.5 609.8,82.5 611.2,83.5 612.5,84.5 613.8,85.5 615.1,86.6 616.5,87.7 617.8,88.8 619.1,90.0 620.4,91.2 621.7,92.4 623.1,93.6 624.4,94.9 625.7,96.2 627.0,97.5 628.4,98.9 629.7,100.2 631.0,101.6 632.3,102.9 633.7,104.3 635.0,105.7 636.3,107.0 637.6,108.4 639.0,109.7 640.3,111.1 641.6,112.5 642.9,113.8 644.2,115.2 645.6,116.6 646.9,117.9 648.2,119.3 649.5,120.6 650.9,122.0 652.2,123.3 653.5,124.7 654.8,126.1 656.2,127.5 657.5,128.8 658.8,130.2 660.1,131.7 661.4,133.1 662.8,134.5 664.1,136.0 665.4,137.4 666.7,138.9 668.1,140.4 669.4,141.9 670.7,143.4 672.0,144.9 673.4,146.4 674.7,147.9 676.0,149.4 677.3,150.9 678.7,152.5 680.0,154.0 681.3,155.6 682.6,157.1 683.9,158.7 685.3,160.2 686.6,161.8 687.9,163.4 689.2,165.0 690.6,166.5 691.9,168.1 693.2,169.8 694.5,171.4 695.9,173.0 697.2,174.6 698.5,176.2 699.8,177.9 701.2,179.5 702.5,181.2 703.8,182.9 705.1,184.5 706.4,186.2 707.8,187.9 709.1,189.6 710.4,191.2 711.7,192.9 713.1,194.6 714.4,196.3 715.7,198.1 717.0,199.8 718.4,201.5 719.7,203.2 721.0,204.9 722.3,206.7 723.7,208.4 725.0,210.1 726.3,211.9 727.6,213.6 728.9,215.4 730.3,217.1 731.6,218.9 732.9,220.7 734.2,222.4 735.6,224.2 736.9,226.0 738.2,227.7 739.5,229.5 740.9,231.3 742.2,233.1 743.5,234.9 744.8,236.7 746.1,238.5 747.5,240.3 748.8,242.1 750.1,243.9 751.4,245.7 752.8,247.6 754.1,249.4 755.4,251.2 756.7,253.1 758.1,254.9 759.4,256.7 760.7,258.6 762.0,260.4 763.4,262.3 764.7,264.1 766.0,266.0"/>
<line x1="606" y1="42" x2="628" y2="42" stroke="#0f62fe" stroke-width="2.2"/>
<text x="634" y="46" font-family="Arial" font-size="12">altitude_m</text>
<polyline fill="none" stroke="#24a148" stroke-width="2.2" points="54.0,240.2 55.3,240.2 56.6,240.2 58.0,240.2 59.3,240.2 60.6,240.2 61.9,240.2 63.3,238.5 64.6,238.5 65.9,238.5 67.2,238.5 68.6,238.5 69.9,238.5 71.2,238.5 72.5,237.9 73.9,237.9 75.2,237.9 76.5,237.9 77.8,237.9 79.1,237.9 80.5,237.9 81.8,236.4 83.1,236.4 84.4,236.4 85.8,236.4 87.1,236.4 88.4,236.4 89.7,236.4 91.1,235.7 92.4,235.7 93.7,235.7 95.0,235.7 96.3,235.7 97.7,235.7 99.0,235.7 100.3,235.5 101.6,235.5 103.0,235.5 104.3,235.5 105.6,235.5 106.9,235.5 108.3,235.5 109.6,231.7 110.9,231.7 112.2,231.7 113.6,231.7 114.9,231.7 116.2,231.7 117.5,231.7 118.8,233.5 120.2,233.5 121.5,233.5 122.8,233.5 124.1,233.5 125.5,233.5 126.8,233.5 128.1,234.7 129.4,234.7 130.8,234.7 132.1,234.7 133.4,234.7 134.7,234.7 136.1,234.7 137.4,231.6 138.7,231.6 140.0,231.6 141.3,231.6 142.7,231.6 144.0,231.6 145.3,231.6 146.6,232.3 148.0,232.3 149.3,232.3 150.6,232.3 151.9,232.3 153.3,232.3 154.6,232.3 155.9,230.4 157.2,230.4 158.6,230.4 159.9,230.4 161.2,230.4 162.5,230.4 163.8,230.4 165.2,230.3 166.5,230.3 167.8,230.3 169.1,230.3 170.5,230.3 171.8,230.3 173.1,230.3 174.4,226.8 175.8,226.8 177.1,226.8 178.4,226.8 179.7,226.8 181.0,226.8 182.4,226.8 183.7,229.0 185.0,229.0 186.3,229.0 187.7,229.0 189.0,229.0 190.3,229.0 191.6,229.0 193.0,227.0 194.3,227.0 195.6,227.0 196.9,227.0 198.3,227.0 199.6,227.0 200.9,227.0 202.2,228.6 203.5,228.6 204.9,228.6 206.2,228.6 207.5,228.6 208.8,228.6 210.2,228.6 211.5,227.3 212.8,227.3 214.1,227.3 215.5,227.3 216.8,227.3 218.1,227.3 219.4,227.3 220.8,224.5 222.1,224.5 223.4,224.5 224.7,224.5 226.0,224.5 227.4,224.5 228.7,224.5 230.0,222.6 231.3,222.6 232.7,222.6 234.0,222.6 235.3,222.6 236.6,222.6 238.0,222.6 239.3,224.3 240.6,224.3 241.9,224.3 243.2,224.3 244.6,224.3 245.9,224.3 247.2,224.3 248.5,219.5 249.9,219.5 251.2,219.5 252.5,219.5 253.8,219.5 255.2,219.5 256.5,219.5 257.8,219.3 259.1,219.3 260.5,219.3 261.8,219.3 263.1,219.3 264.4,219.3 265.7,219.3 267.1,216.6 268.4,216.6 269.7,216.6 271.0,216.6 272.4,216.6 273.7,216.6 275.0,216.6 276.3,213.9 277.7,213.9 279.0,213.9 280.3,213.9 281.6,213.9 283.0,213.9 284.3,213.9 285.6,211.8 286.9,211.8 288.2,211.8 289.6,211.8 290.9,211.8 292.2,211.8 293.5,211.8 294.9,203.3 296.2,203.3 297.5,203.3 298.8,203.3 300.2,203.3 301.5,203.3 302.8,203.3 304.1,201.1 305.4,201.1 306.8,201.1 308.1,201.1 309.4,201.1 310.7,201.1 312.1,201.1 313.4,195.7 314.7,195.7 316.0,195.7 317.4,195.7 318.7,195.7 320.0,195.7 321.3,195.7 322.7,190.8 324.0,190.8 325.3,190.8 326.6,190.8 327.9,190.8 329.3,190.8 330.6,190.8 331.9,185.3 333.2,185.3 334.6,185.3 335.9,185.3 337.2,185.3 338.5,185.3 339.9,185.3 341.2,178.7 342.5,178.7 343.8,178.7 345.2,178.7 346.5,178.7 347.8,178.7 349.1,178.7 350.4,171.1 351.8,171.1 353.1,171.1 354.4,171.1 355.7,171.1 357.1,171.1 358.4,171.1 359.7,162.6 361.0,162.6 362.4,162.6 363.7,162.6 365.0,162.6 366.3,162.6 367.7,162.6 369.0,158.5 370.3,158.5 371.6,158.5 372.9,158.5 374.3,158.5 375.6,158.5 376.9,158.5 378.2,149.0 379.6,149.0 380.9,149.0 382.2,149.0 383.5,149.0 384.9,149.0 386.2,149.0 387.5,143.2 388.8,143.2 390.1,143.2 391.5,143.2 392.8,143.2 394.1,143.2 395.4,143.2 396.8,135.3 398.1,135.3 399.4,135.3 400.7,135.3 402.1,135.3 403.4,135.3 404.7,135.3 406.0,127.9 407.4,127.9 408.7,127.9 410.0,127.9 411.3,127.9 412.6,127.9 414.0,127.9 415.3,119.3 416.6,119.3 417.9,119.3 419.3,119.3 420.6,119.3 421.9,119.3 423.2,119.3 424.6,112.2 425.9,112.2 427.2,112.2 428.5,112.2 429.9,112.2 431.2,112.2 432.5,112.2 433.8,104.2 435.1,104.2 436.5,104.2 437.8,104.2 439.1,104.2 440.4,104.2 441.8,104.2 443.1,98.7 444.4,98.7 445.7,98.7 447.1,98.7 448.4,98.7 449.7,98.7 451.0,98.7 452.3,87.2 453.7,87.2 455.0,87.2 456.3,87.2 457.6,87.2 459.0,87.2 460.3,87.2 461.6,81.7 462.9,81.7 464.3,81.7 465.6,81.7 466.9,81.7 468.2,81.7 469.6,81.7 470.9,77.4 472.2,77.4 473.5,77.4 474.8,77.4 476.2,77.4 477.5,77.4 478.8,77.4 480.1,71.3 481.5,71.3 482.8,71.3 484.1,71.3 485.4,71.3 486.8,71.3 488.1,71.3 489.4,62.8 490.7,62.8 492.1,62.8 493.4,62.8 494.7,62.8 496.0,62.8 497.3,62.8 498.7,62.2 500.0,62.2 501.3,62.2 502.6,62.2 504.0,62.2 505.3,62.2 506.6,62.2 507.9,57.0 509.3,57.0 510.6,57.0 511.9,57.0 513.2,57.0 514.6,57.0 515.9,57.0 517.2,56.8 518.5,56.8 519.8,56.8 521.2,56.8 522.5,56.8 523.8,56.8 525.1,56.8 526.5,54.7 527.8,54.7 529.1,54.7 530.4,54.7 531.8,54.7 533.1,54.7 534.4,54.7 535.7,56.2 537.0,56.2 538.4,56.2 539.7,56.2 541.0,56.2 542.3,56.2 543.7,56.2 545.0,54.0 546.3,54.0 547.6,54.0 549.0,54.0 550.3,54.0 551.6,54.0 552.9,54.0 554.3,58.2 555.6,58.2 556.9,58.2 558.2,58.2 559.5,58.2 560.9,58.2 562.2,58.2 563.5,59.1 564.8,59.1 566.2,59.1 567.5,59.1 568.8,59.1 570.1,59.1 571.5,59.1 572.8,60.7 574.1,60.7 575.4,60.7 576.8,60.7 578.1,60.7 579.4,60.7 580.7,60.7 582.0,68.7 583.4,68.7 584.7,68.7 586.0,68.7 587.3,68.7 588.7,68.7 590.0,68.7 591.3,68.6 592.6,68.6 594.0,68.6 595.3,68.6 596.6,68.6 597.9,68.6 599.2,68.6 600.6,76.6 601.9,76.6 603.2,76.6 604.5,76.6 605.9,76.6 607.2,76.6 608.5,76.6 609.8,81.0 611.2,81.0 612.5,81.0 613.8,81.0 615.1,81.0 616.5,81.0 617.8,81.0 619.1,92.9 620.4,92.9 621.7,92.9 623.1,92.9 624.4,92.9 625.7,92.9 627.0,92.9 628.4,100.5 629.7,100.5 631.0,100.5 632.3,100.5 633.7,100.5 635.0,100.5 636.3,100.5 637.6,108.9 639.0,108.9 640.3,108.9 641.6,108.9 642.9,108.9 644.2,108.9 645.6,108.9 646.9,119.2 648.2,119.2 649.5,119.2 650.9,119.2 652.2,119.2 653.5,119.2 654.8,119.2 656.2,129.2 657.5,129.2 658.8,129.2 660.1,129.2 661.4,129.2 662.8,129.2 664.1,129.2 665.4,139.7 666.7,139.7 668.1,139.7 669.4,139.7 670.7,139.7 672.0,139.7 673.4,139.7 674.7,147.0 676.0,147.0 677.3,147.0 678.7,147.0 680.0,147.0 681.3,147.0 682.6,147.0 683.9,158.3 685.3,158.3 686.6,158.3 687.9,158.3 689.2,158.3 690.6,158.3 691.9,158.3 693.2,171.0 694.5,171.0 695.9,171.0 697.2,171.0 698.5,171.0 699.8,171.0 701.2,171.0 702.5,178.9 703.8,178.9 705.1,178.9 706.4,178.9 707.8,178.9 709.1,178.9 710.4,178.9 711.7,195.9 713.1,195.9 714.4,195.9 715.7,195.9 717.0,195.9 718.4,195.9 719.7,195.9 721.0,205.5 722.3,205.5 723.7,205.5 725.0,205.5 726.3,205.5 727.6,205.5 728.9,205.5 730.3,216.8 731.6,216.8 732.9,216.8 734.2,216.8 735.6,216.8 736.9,216.8 738.2,216.8 739.5,231.3 740.9,231.3 742.2,231.3 743.5,231.3 744.8,231.3 746.1,231.3 747.5,231.3 748.8,241.1 750.1,241.1 751.4,241.1 752.8,241.1 754.1,241.1 755.4,241.1 756.7,241.1 758.1,253.5 759.4,253.5 760.7,253.5 762.0,253.5 763.4,253.5 764.7,253.5 766.0,253.5"/>
<line x1="606" y1="60" x2="628" y2="60" stroke="#24a148" stroke-width="2.2"/>
<text x="634" y="64" font-family="Arial" font-size="12">gps_z_m</text>
</svg>