<svg xmlns="http://www.w3.org/2000/svg" width="820" height="320" viewBox="0 0 820 320">
<rect width="100%" height="100%" fill="#ffffff"/>
<text x="54" y="28" font-family="Arial" font-size="18" font-weight="700">Pitch Command Tracking</text>
<line x1="54" y1="266" x2="766" y2="266" stroke="#1f2933"/>
<line x1="54" y1="54" x2="54" y2="266" stroke="#1f2933"/>
<text x="54" y="306" font-family="Arial" font-size="12">time (s)</text>
<text x="596" y="306" font-family="Arial" font-size="12">pitch (deg)</text>
<text x="58" y="68" font-family="Arial" font-size="11">13</text>
<text x="58" y="260" font-family="Arial" font-size="11">-74.5</text>
<polyline fill="none" stroke="#0f62fe" stroke-width="2.2" points="54.0,54.0 55.3,54.0 56.6,54.1 58.0,54.1 59.3,54.1 60.6,54.2 61.9,54.2 63.3,54.3 64.6,54.3 65.9,54.3 67.2,54.4 68.6,54.4 69.9,54.4 71.2,54.5 72.5,54.5 73.9,54.5 75.2,54.6 76.5,54.6 77.8,54.7 79.1,54.7 80.5,54.7 81.8,54.8 83.1,54.8 84.4,54.8 85.8,54.9 87.1,54.9 88.4,54.9 89.7,55.0 91.1,55.0 92.4,55.1 93.7,55.1 95.0,55.1 96.3,55.2 97.7,55.2 99.0,55.2 100.3,55.3 101.6,55.3 103.0,55.3 104.3,55.4 105.6,55.4 106.9,55.5 108.3,55.5 109.6,55.5 110.9,55.6 112.2,55.6 113.6,55.6 114.9,55.7 116.2,55.7 117.5,55.7 118.8,55.8 120.2,55.8 121.5,55.9 122.8,55.9 124.1,55.9 125.5,56.0 126.8,56.0 128.1,56.0 129.4,56.1 130.8,56.1 132.1,56.1 133.4,56.2 134.7,56.2 136.1,56.3 137.4,56.3 138.7,56.3 140.0,56.4 141.3,56.4 142.7,56.4 144.0,56.5 145.3,56.5 146.6,56.5 148.0,56.6 149.3,56.6 150.6,56.7 151.9,56.7 153.3,56.7 154.6,56.8 155.9,56.8 157.2,56.8 158.6,56.9 159.9,56.9 161.2,56.9 162.5,57.0 163.8,57.0 165.2,57.1 166.5,57.1 167.8,57.1 169.1,57.2 170.5,57.2 171.8,57.2 173.1,57.3 174.4,57.3 175.8,57.3 177.1,57.4 178.4,57.4 179.7,57.5 181.0,57.5 182.4,57.5 183.7,57.6 185.0,57.6 186.3,57.6 187.7,57.7 189.0,57.7 190.3,57.7 191.6,57.8 193.0,57.8 194.3,57.9 195.6,57.9 196.9,57.9 198.3,58.0 199.6,58.0 200.9,58.0 202.2,58.1 203.5,58.1 204.9,58.1 206.2,58.2 207.5,58.2 208.8,58.3 210.2,58.3 211.5,58.3 212.8,58.4 214.1,58.4 215.5,58.4 216.8,58.5 218.1,58.5 219.4,58.5 220.8,58.6 222.1,58.6 223.4,58.7 224.7,58.7 226.0,58.7 227.4,58.8 228.7,58.8 230.0,58.8 231.3,58.9 232.7,58.9 234.0,58.9 235.3,59.0 236.6,59.0 238.0,59.1 239.3,59.1 240.6,59.1 241.9,59.2 243.2,59.2 244.6,59.2 245.9,59.3 247.2,59.3 248.5,59.3 249.9,59.4 251.2,59.4 252.5,59.5 253.8,59.5 255.2,59.5 256.5,59.6 257.8,59.6 259.1,59.6 260.5,59.7 261.8,59.7 263.1,59.7 264.4,59.8 265.7,59.8 267.1,59.9 268.4,59.9 269.7,59.9 271.0,60.0 272.4,60.0 273.7,60.0 275.0,60.1 276.3,60.1 277.7,60.1 279.0,60.2 280.3,60.2 281.6,60.3 283.0,60.3 284.3,60.3 285.6,60.4 286.9,60.4 288.2,60.4 289.6,60.5 290.9,60.5 292.2,60.5 293.5,60.6 294.9,60.6 296.2,60.7 297.5,60.7 298.8,60.7 300.2,60.8 301.5,60.8 302.8,60.8 304.1,60.9 305.4,60.9 306.8,60.9 308.1,61.0 309.4,61.0 310.7,61.1 312.1,61.1 313.4,61.1 314.7,61.2 316.0,61.2 317.4,61.2 318.7,61.3 320.0,61.3 321.3,61.3 322.7,61.4 324.0,61.4 325.3,61.4 326.6,61.4 327.9,61.5 329.3,61.5 330.6,61.5 331.9,61.5 333.2,61.6 334.6,61.6 335.9,61.6 337.2,61.6 338.5,61.7 339.9,61.7 341.2,61.7 342.5,61.8 343.8,61.8 345.2,61.8 346.5,61.8 347.8,61.9 349.1,61.9 350.4,61.9 351.8,61.9 353.1,62.0 354.4,62.0 355.7,62.0 357.1,62.1 358.4,62.1 359.7,62.1 361.0,62.1 362.4,62.2 363.7,62.2 365.0,62.2 366.3,62.2 367.7,62.3 369.0,62.3 370.3,62.3 371.6,62.4 372.9,62.4 374.3,62.4 375.6,62.4 376.9,62.5 378.2,62.5 379.6,62.5 380.9,62.5 382.2,62.6 383.5,62.6 384.9,62.6 386.2,62.7 387.5,62.7 388.8,62.7 390.1,62.7 391.5,62.8 392.8,62.8 394.1,62.8 395.4,62.8 396.8,62.9 398.1,62.9 399.4,62.9 400.7,63.0 402.1,63.0 403.4,63.0 404.7,63.0 406.0,63.1 407.4,63.1 408.7,63.1 410.0,63.1 411.3,63.2 412.6,63.2 414.0,63.2 415.3,63.3 416.6,63.3 417.9,63.3 419.3,63.3 420.6,63.4 421.9,63.4 423.2,63.4 424.6,63.4 425.9,63.5 427.2,63.5 428.5,63.5 429.9,63.6 431.2,63.6 432.5,63.6 433.8,63.6 435.1,63.7 436.5,63.7 437.8,63.7 439.1,63.7 440.4,63.8 441.8,63.8 443.1,63.8 444.4,63.9 445.7,63.9 447.1,63.9 448.4,63.9 449.7,64.0 451.0,64.0 452.3,64.0 453.7,64.0 455.0,64.1 456.3,64.1 457.6,64.1 459.0,64.2 460.3,64.2 461.6,64.2 462.9,64.2 464.3,64.3 465.6,64.3 466.9,64.3 468.2,64.3 469.6,64.4 470.9,64.4 472.2,64.4 473.5,64.5 474.8,64.5 476.2,64.5 477.5,64.5 478.8,64.6 480.1,64.6 481.5,64.6 482.8,64.6 484.1,64.7 485.4,64.7 486.8,64.7 488.1,64.8 489.4,64.8 490.7,64.8 492.1,64.8 493.4,64.9 494.7,64.9 496.0,64.9 497.3,64.9 498.7,65.0 500.0,65.0 501.3,65.0 502.6,65.1 504.0,65.1 505.3,65.1 506.6,65.1 507.9,65.2 509.3,65.2 510.6,65.2 511.9,65.2 513.2,65.3 514.6,65.3 515.9,65.3 517.2,65.4 518.5,65.4 519.8,65.4 521.2,65.4 522.5,65.5 523.8,65.5 525.1,65.5 526.5,65.5 527.8,65.6 529.1,65.6 530.4,65.6 531.8,65.7 533.1,65.7 534.4,65.7 535.7,65.7 537.0,65.8 538.4,65.8 539.7,65.8 541.0,65.8 542.3,65.9 543.7,65.9 545.0,65.9 546.3,66.0 547.6,66.0 549.0,66.0 550.3,66.0 551.6,66.1 552.9,66.1 554.3,66.1 555.6,66.1 556.9,66.2 558.2,66.2 559.5,66.2 560.9,66.3 562.2,66.3 563.5,66.3 564.8,66.3 566.2,66.4 567.5,66.4 568.8,66.4 570.1,66.4 571.5,66.5 572.8,66.5 574.1,66.5 575.4,66.6 576.8,66.6 578.1,66.6 579.4,66.6 580.7,66.7 582.0,66.7 583.4,66.7 584.7,66.7 586.0,66.8 587.3,66.8 588.7,66.8 590.0,66.9 591.3,66.9 592.6,66.9 594.0,66.9 595.3,67.0 596.6,67.0 597.9,67.0 599.2,67.0 600.6,67.1 601.9,67.1 603.2,67.1 604.5,67.2 605.9,67.2 607.2,67.2 608.5,67.2 609.8,67.3 611.2,67.3 612.5,67.3 613.8,67.3 615.1,67.4 616.5,67.4 617.8,67.4 619.1,67.5 620.4,67.5 621.7,67.5 623.1,67.5 624.4,67.6 625.7,67.6 627.0,67.6 628.4,67.6 629.7,67.7 631.0,67.7 632.3,67.7 633.7,67.8 635.0,67.8 636.3,67.8 637.6,67.8 639.0,67.9 640.3,67.9 641.6,67.9 642.9,67.9 644.2,68.0 645.6,68.0 646.9,68.0 648.2,68.1 649.5,68.1 650.9,68.1 652.2,68.1 653.5,68.2 654.8,68.2 656.2,68.2 657.5,68.2 658.8,68.3 660.1,68.3 661.4,68.3 662.8,68.4 664.1,68.4 665.4,68.4 666.7,68.4 668.1,68.5 669.4,68.5 670.7,68.5 672.0,68.5 673.4,68.5 674.7,68.5 676.0,68.5 677.3,68.5 678.7,68.5 680.0,68.5 681.3,68.5 682.6,68.5 683.9,68.5 685.3,68.5 686.6,68.5 687.9,68.5 689.2,68.5 690.6,68.5 691.9,68.5 693.2,68.5 694.5,68.5 695.9,68.5 697.2,68.5 698.5,68.5 699.8,68.5 701.2,68.5 702.5,68.5 703.8,68.5 705.1,68.5 706.4,68.5 707.8,68.5 709.1,68.5 710.4,68.5 711.7,68.5 713.1,68.5 714.4,68.5 715.7,68.5 717.0,68.5 718.4,68.5 719.7,68.5 721.0,68.5 722.3,68.5 723.7,68.5 725.0,68.5 726.3,68.5 727.6,68.5 728.9,68.5 730.3,68.5 731.6,68.5 732.9,68.5 734.2,68.5 735.6,68.5 736.9,68.5 738.2,68.5 739.5,68.5 740.9,68.5 742.2,68.5 743.5,68.5 744.8,68.5 746.1,68.5 747.5,68.5 748.8,68.5 750.1,68.5 751.4,68.5 752.8,68.5 754.1,68.5 755.4,68.5 756.7,68.5 758.1,68.5 759.4,68.5 760.7,68.5 762.0,68.5 763.4,68.5 764.7,68.5 766.0,68.5"/>
<line x1="606" y1="42" x2="628" y2="42" stroke="#0f62fe" stroke-width="2.2"/>
<text x="634" y="46" font-family="Arial" font-size="12">pitch_command_deg</text>
<polyline fill="none" stroke="#24a148" stroke-width="2.2" points="54.0,71.0 55.3,70.3 56.6,69.6 58.0,69.1 59.3,68.9 60.6,68.7 61.9,68.4 63.3,68.2 64.6,68.0 65.9,67.9 67.2,67.9 68.6,67.8 69.9,67.8 71.2,67.7 72.5,67.7 73.9,67.8 75.2,67.8 76.5,67.8 77.8,67.9 79.1,67.9 80.5,68.0 81.8,68.0 83.1,68.1 84.4,68.2 85.8,68.3 87.1,68.4 88.4,68.4 89.7,68.5 91.1,68.6 92.4,68.7 93.7,68.8 95.0,68.9 96.3,69.0 97.7,69.1 99.0,69.2 100.3,69.3 101.6,69.4 103.0,69.4 104.3,69.5 105.6,69.6 106.9,69.7 108.3,69.8 109.6,69.9 110.9,70.0 112.2,70.0 113.6,70.1 114.9,70.2 116.2,70.3 117.5,70.3 118.8,70.4 120.2,70.5 121.5,70.6 122.8,70.6 124.1,70.7 125.5,70.8 126.8,70.8 128.1,70.9 129.4,70.9 130.8,71.0 132.1,71.1 133.4,71.1 134.7,71.2 136.1,71.2 137.4,71.3 138.7,71.3 140.0,71.4 141.3,71.4 142.7,71.5 144.0,71.5 145.3,71.6 146.6,71.6 148.0,71.6 149.3,71.7 150.6,71.7 151.9,71.8 153.3,71.8 154.6,71.8 155.9,71.9 157.2,71.9 158.6,71.9 159.9,72.0 161.2,72.0 162.5,72.0 163.8,72.0 165.2,72.0 166.5,72.0 167.8,72.0 169.1,72.0 170.5,72.0 171.8,72.0 173.1,72.0 174.4,72.0 175.8,72.0 177.1,71.9 178.4,71.9 179.7,71.9 181.0,71.9 182.4,71.8 183.7,71.8 185.0,71.8 186.3,71.8 187.7,71.7 189.0,71.7 190.3,71.7 191.6,71.6 193.0,71.6 194.3,71.6 195.6,71.5 196.9,71.5 198.3,71.5 199.6,71.4 200.9,71.4 202.2,71.4 203.5,71.3 204.9,71.3 206.2,71.3 207.5,71.3 208.8,71.2 210.2,71.2 211.5,71.2 212.8,71.2 214.1,71.1 215.5,71.1 216.8,71.1 218.1,71.1 219.4,71.1 220.8,71.2 222.1,71.1 223.4,71.4 224.7,70.8 226.0,71.9 227.4,71.2 228.7,72.1 230.0,71.4 231.3,72.4 232.7,71.7 234.0,72.8 235.3,72.1 236.6,73.2 238.0,72.6 239.3,73.6 240.6,72.9 241.9,74.1 243.2,73.7 244.6,74.3 245.9,73.1 247.2,73.9 248.5,73.4 249.9,74.8 251.2,74.6 252.5,74.7 253.8,74.8 255.2,74.9 256.5,75.0 257.8,75.1 259.1,75.2 260.5,75.2 261.8,75.6 263.1,75.1 264.4,76.7 265.7,76.4 267.1,76.3 268.4,76.6 269.7,75.8 271.0,77.2 272.4,76.9 273.7,76.3 275.0,77.1 276.3,75.7 277.7,76.0 279.0,75.4 280.3,76.5 281.6,75.7 283.0,76.6 284.3,75.7 285.6,76.7 286.9,76.0 288.2,77.4 289.6,76.9 290.9,77.5 292.2,76.2 293.5,76.8 294.9,76.1 296.2,77.4 297.5,77.1 298.8,77.3 300.2,76.6 301.5,77.8 302.8,77.2 304.1,77.5 305.4,76.3 306.8,77.1 308.1,76.4 309.4,77.6 310.7,77.0 312.1,78.0 313.4,77.2 314.7,78.3 316.0,77.7 317.4,79.0 318.7,78.5 320.0,79.2 321.3,78.0 322.7,78.6 324.0,77.6 325.3,78.4 326.6,77.6 327.9,78.6 329.3,77.8 330.6,78.7 331.9,77.8 333.2,78.5 334.6,77.5 335.9,78.3 337.2,77.4 338.5,78.3 339.9,77.7 341.2,78.9 342.5,78.5 343.8,79.4 345.2,78.6 346.5,79.4 347.8,78.6 349.1,79.4 350.4,78.8 351.8,79.7 353.1,79.1 354.4,80.0 355.7,79.3 357.1,80.0 358.4,79.2 359.7,79.9 361.0,79.0 362.4,79.7 363.7,79.0 365.0,79.9 366.3,79.4 367.7,80.4 369.0,80.1 370.3,81.0 371.6,80.4 372.9,81.2 374.3,80.5 375.6,81.3 376.9,80.8 378.2,81.6 379.6,81.0 380.9,81.8 382.2,81.1 383.5,81.7 384.9,81.0 386.2,81.6 387.5,80.9 388.8,81.6 390.1,81.1 391.5,82.0 392.8,81.6 394.1,82.5 395.4,82.2 396.8,83.0 398.1,82.6 399.4,83.4 400.7,83.0 402.1,83.7 403.4,83.3 404.7,83.9 406.0,83.4 407.4,83.9 408.7,83.3 410.0,83.8 411.3,83.3 412.6,83.8 414.0,83.5 415.3,84.2 416.6,84.0 417.9,84.6 419.3,84.4 420.6,85.2 421.9,85.1 423.2,85.7 424.6,85.6 425.9,86.3 427.2,86.1 428.5,86.7 429.9,86.5 431.2,87.0 432.5,86.8 433.8,87.2 435.1,87.0 436.5,87.4 437.8,87.3 439.1,87.7 440.4,87.8 441.8,88.1 443.1,88.4 444.4,88.8 445.7,89.1 447.1,89.5 448.4,89.9 449.7,90.3 451.0,90.7 452.3,91.1 453.7,91.5 455.0,91.8 456.3,92.2 457.6,92.5 459.0,92.7 460.3,93.0 461.6,93.3 462.9,93.6 464.3,93.9 465.6,94.2 466.9,94.6 468.2,95.0 469.6,95.4 470.9,95.9 472.2,96.4 473.5,97.0 474.8,97.5 476.2,98.1 477.5,98.7 478.8,99.3 480.1,99.8 481.5,100.4 482.8,100.9 484.1,101.4 485.4,101.8 486.8,102.3 488.1,102.7 489.4,103.2 490.7,103.6 492.1,104.1 493.4,104.6 494.7,105.2 496.0,105.7 497.3,106.3 498.7,107.0 500.0,107.7 501.3,108.4 502.6,109.2 504.0,110.0 505.3,110.9 506.6,111.7 507.9,112.5 509.3,113.4 510.6,114.2 511.9,115.0 513.2,115.8 514.6,116.6 515.9,117.4 517.2,118.2 518.5,119.0 519.8,119.8 521.2,120.6 522.5,121.4 523.8,122.1 525.1,122.9 526.5,123.7 527.8,124.5 529.1,125.3 530.4,126.1 531.8,126.9 533.1,127.7 534.4,128.5 535.7,129.4 537.0,130.2 538.4,131.0 539.7,131.8 541.0,132.6 542.3,133.5 543.7,134.3 545.0,135.1 546.3,136.0 547.6,136.8 549.0,137.7 550.3,138.6 551.6,139.4 552.9,140.3 554.3,141.2 555.6,142.0 556.9,142.4 558.2,142.5 559.5,142.1 560.9,141.2 562.2,139.9 563.5,138.0 564.8,136.0 566.2,133.8 567.5,131.8 568.8,129.8 570.1,127.9 571.5,126.1 572.8,124.4 574.1,122.7 575.4,121.0 576.8,119.3 578.1,117.6 579.4,115.9 580.7,114.5 582.0,113.6 583.4,113.5 584.7,114.3 586.0,116.3 587.3,119.2 588.7,123.0 590.0,127.5 591.3,132.4 592.6,137.7 594.0,143.2 595.3,148.8 596.6,154.5 597.9,160.2 599.2,165.9 600.6,171.7 601.9,177.6 603.2,183.7 604.5,190.0 605.9,196.6 607.2,203.6 608.5,211.0 609.8,218.8 611.2,227.0 612.5,235.6 613.8,244.3 615.1,252.9 616.5,260.5 617.8,265.6 619.1,266.0 620.4,260.8 621.7,250.9 623.1,238.6 624.4,225.3 625.7,211.4 627.0,197.1 628.4,182.4 629.7,167.5 631.0,152.6 632.3,138.0 633.7,124.0 635.0,110.9 636.3,99.2 637.6,89.0 639.0,80.4 640.3,73.9 641.6,69.6 642.9,67.7 644.2,68.2 645.6,71.2 646.9,76.5 648.2,83.8 649.5,92.8 650.9,103.2 652.2,114.7 653.5,126.9 654.8,139.4 656.2,151.8 657.5,163.4 658.8,173.1 660.1,180.1 661.4,184.4 662.8,186.4 664.1,186.3 665.4,184.7 666.7,181.6 668.1,177.4 669.4,172.3 670.7,166.9 672.0,161.3 673.4,155.5 674.7,149.6 676.0,143.8 677.3,138.3 678.7,133.4 680.0,129.3 681.3,126.2 682.6,124.1 683.9,123.0 685.3,122.8 686.6,123.6 687.9,125.0 689.2,126.9 690.6,129.2 691.9,131.6 693.2,133.9 694.5,136.1 695.9,138.1 697.2,139.8 698.5,141.2 699.8,142.4 701.2,143.4 702.5,144.1 703.8,144.6 705.1,144.9 706.4,145.0 707.8,145.0 709.1,144.9 710.4,144.7 711.7,144.5 713.1,144.4 714.4,144.3 715.7,144.3 717.0,144.5 718.4,144.8 719.7,145.4 721.0,146.3 722.3,147.4 723.7,148.7 725.0,150.4 726.3,152.4 727.6,154.7 728.9,157.3 730.3,160.2 731.6,163.5 732.9,167.1 734.2,171.1 735.6,175.3 736.9,179.9 738.2,184.7 739.5,189.8 740.9,195.2 742.2,200.7 743.5,206.4 744.8,212.2 746.1,218.0 747.5,223.7 748.8,229.3 750.1,234.6 751.4,239.4 752.8,243.5 754.1,246.7 755.4,248.7 756.7,249.3 758.1,248.4 759.4,246.0 760.7,242.3 762.0,237.3 763.4,231.4 764.7,225.1 766.0,218.9"/>
<line x1="606" y1="60" x2="628" y2="60" stroke="#24a148" stroke-width="2.2"/>
<text x="634" y="64" font-family="Arial" font-size="12">pitch_deg</text>
</svg>