<svg xmlns="http://www.w3.org/2000/svg" width="820" height="320" viewBox="0 0 820 320">
<rect width="100%" height="100%" fill="#ffffff"/>
<text x="54" y="28" font-family="Arial" font-size="18" font-weight="700">Heading Command Tracking</text>
<line x1="54" y1="266" x2="766" y2="266" stroke="#1f2933"/>
<line x1="54" y1="54" x2="54" y2="266" stroke="#1f2933"/>
<text x="54" y="306" font-family="Arial" font-size="12">time (s)</text>
<text x="596" y="306" font-family="Arial" font-size="12">heading (deg)</text>
<text x="58" y="68" font-family="Arial" font-size="11">180</text>
<text x="58" y="260" font-family="Arial" font-size="11">-179</text>
<polyline fill="none" stroke="#0f62fe" stroke-width="2.2" points="54.0,160.1 55.3,160.1 56.6,160.1 58.0,160.1 59.3,160.1 60.6,160.1 61.9,160.1 63.3,160.1 64.6,160.1 65.9,160.1 67.2,160.1 68.6,160.1 69.9,160.1 71.2,160.1 72.5,160.1 73.9,160.1 75.2,160.1 76.5,160.1 77.8,160.1 79.1,160.1 80.5,160.1 81.8,160.1 83.1,160.1 84.4,160.1 85.8,160.1 87.1,160.1 88.4,160.1 89.7,160.1 91.1,160.1 92.4,160.1 93.7,160.1 95.0,160.1 96.3,160.1 97.7,160.1 99.0,160.1 100.3,160.1 101.6,160.1 103.0,160.1 104.3,160.1 105.6,160.1 106.9,160.1 108.3,160.1 109.6,160.1 110.9,160.1 112.2,160.1 113.6,160.1 114.9,160.1 116.2,160.1 117.5,160.1 118.8,160.1 120.2,160.1 121.5,160.1 122.8,160.1 124.1,160.1 125.5,160.1 126.8,160.1 128.1,160.1 129.4,160.1 130.8,160.1 132.1,160.1 133.4,160.1 134.7,160.1 136.1,160.1 137.4,160.1 138.7,160.1 140.0,160.1 141.3,160.1 142.7,160.1 144.0,160.1 145.3,160.1 146.6,160.1 148.0,160.1 149.3,160.1 150.6,160.1 151.9,160.1 153.3,160.1 154.6,160.1 155.9,160.1 157.2,160.1 158.6,160.1 159.9,160.1 161.2,160.1 162.5,160.1 163.8,160.1 165.2,160.1 166.5,160.1 167.8,160.1 169.1,160.1 170.5,160.1 171.8,160.1 173.1,160.1 174.4,160.1 175.8,160.1 177.1,160.1 178.4,160.1 179.7,160.1 181.0,160.1 182.4,160.1 183.7,160.1 185.0,160.1 186.3,160.1 187.7,160.1 189.0,160.1 190.3,160.1 191.6,160.1 193.0,160.1 194.3,160.1 195.6,160.1 196.9,160.1 198.3,160.1 199.6,160.1 200.9,160.1 202.2,160.1 203.5,160.1 204.9,160.1 206.2,160.1 207.5,160.1 208.8,160.1 210.2,160.1 211.5,160.1 212.8,160.1 214.1,160.1 215.5,160.1 216.8,160.1 218.1,160.1 219.4,160.1 220.8,160.1 222.1,160.1 223.4,160.1 224.7,160.1 226.0,160.1 227.4,160.1 228.7,160.1 230.0,160.1 231.3,160.1 232.7,160.1 234.0,160.1 235.3,160.1 236.6,160.1 238.0,160.1 239.3,160.1 240.6,160.1 241.9,160.1 243.2,160.1 244.6,160.1 245.9,160.1 247.2,160.1 248.5,160.1 249.9,160.1 251.2,160.1 252.5,160.1 253.8,160.1 255.2,160.1 256.5,160.1 257.8,160.1 259.1,160.1 260.5,160.1 261.8,160.1 263.1,160.1 264.4,160.1 265.7,160.1 267.1,160.1 268.4,160.1 269.7,160.1 271.0,160.1 272.4,160.1 273.7,160.1 275.0,160.1 276.3,160.1 277.7,160.1 279.0,160.1 280.3,160.1 281.6,160.1 283.0,160.1 284.3,160.1 285.6,160.1 286.9,160.1 288.2,160.1 289.6,160.1 290.9,160.1 292.2,160.1 293.5,160.1 294.9,160.1 296.2,160.1 297.5,160.1 298.8,160.1 300.2,160.1 301.5,160.1 302.8,160.1 304.1,160.1 305.4,160.1 306.8,160.1 308.1,160.1 309.4,160.1 310.7,160.1 312.1,160.1 313.4,160.1 314.7,160.1 316.0,160.1 317.4,160.1 318.7,160.1 320.0,160.1 321.3,160.1 322.7,160.1 324.0,160.1 325.3,160.1 326.6,160.1 327.9,160.1 329.3,160.1 330.6,160.1 331.9,160.1 333.2,160.1 334.6,160.1 335.9,160.1 337.2,160.1 338.5,160.1 339.9,160.1 341.2,160.1 342.5,160.1 343.8,160.1 345.2,160.1 346.5,160.1 347.8,160.1 349.1,160.1 350.4,160.1 351.8,160.1 353.1,160.1 354.4,160.1 355.7,160.1 357.1,160.1 358.4,160.1 359.7,160.1 361.0,160.1 362.4,160.1 363.7,160.1 365.0,160.1 366.3,160.1 367.7,160.1 369.0,160.1 370.3,160.1 371.6,160.1 372.9,160.1 374.3,160.1 375.6,160.1 376.9,160.1 378.2,160.1 379.6,160.1 380.9,160.1 382.2,160.1 383.5,160.1 384.9,160.1 386.2,160.1 387.5,160.1 388.8,160.1 390.1,160.1 391.5,160.1 392.8,160.1 394.1,160.1 395.4,160.1 396.8,160.1 398.1,160.1 399.4,160.1 400.7,160.1 402.1,160.1 403.4,160.1 404.7,160.1 406.0,160.1 407.4,160.1 408.7,160.1 410.0,160.1 411.3,160.1 412.6,160.1 414.0,160.1 415.3,160.1 416.6,160.1 417.9,160.1 419.3,160.1 420.6,160.1 421.9,160.1 423.2,160.1 424.6,160.1 425.9,160.1 427.2,160.1 428.5,160.1 429.9,160.1 431.2,160.1 432.5,160.1 433.8,160.1 435.1,160.1 436.5,160.1 437.8,160.1 439.1,160.1 440.4,160.1 441.8,160.1 443.1,160.1 444.4,160.1 445.7,160.1 447.1,160.1 448.4,160.1 449.7,160.1 451.0,160.1 452.3,160.1 453.7,160.1 455.0,160.1 456.3,160.1 457.6,160.1 459.0,160.1 460.3,160.1 461.6,160.1 462.9,160.1 464.3,160.1 465.6,160.1 466.9,160.1 468.2,160.1 469.6,160.1 470.9,160.1 472.2,160.1 473.5,160.1 474.8,160.1 476.2,160.1 477.5,160.1 478.8,160.1 480.1,160.1 481.5,160.1 482.8,160.1 484.1,160.1 485.4,160.1 486.8,160.1 488.1,160.1 489.4,160.1 490.7,160.1 492.1,160.1 493.4,160.1 494.7,160.1 496.0,160.1 497.3,160.1 498.7,160.1 500.0,160.1 501.3,160.1 502.6,160.1 504.0,160.1 505.3,160.1 506.6,160.1 507.9,160.1 509.3,160.1 510.6,160.1 511.9,160.1 513.2,160.1 514.6,160.1 515.9,160.1 517.2,160.1 518.5,160.1 519.8,160.1 521.2,160.1 522.5,160.1 523.8,160.1 525.1,160.1 526.5,160.1 527.8,160.1 529.1,160.1 530.4,160.1 531.8,160.1 533.1,160.1 534.4,160.1 535.7,160.1 537.0,160.1 538.4,160.1 539.7,160.1 541.0,160.1 542.3,160.1 543.7,160.1 545.0,160.1 546.3,160.1 547.6,160.1 549.0,160.1 550.3,160.1 551.6,160.1 552.9,160.1 554.3,160.1 555.6,160.1 556.9,160.1 558.2,160.1 559.5,160.1 560.9,160.1 562.2,160.1 563.5,160.1 564.8,160.1 566.2,160.1 567.5,160.1 568.8,160.1 570.1,160.1 571.5,160.1 572.8,160.1 574.1,160.1 575.4,160.1 576.8,160.1 578.1,160.1 579.4,160.1 580.7,160.1 582.0,160.1 583.4,160.1 584.7,160.1 586.0,160.1 587.3,160.1 588.7,160.1 590.0,160.1 591.3,160.1 592.6,160.1 594.0,160.1 595.3,160.1 596.6,160.1 597.9,160.1 599.2,160.1 600.6,160.1 601.9,160.1 603.2,160.1 604.5,160.1 605.9,160.1 607.2,160.1 608.5,160.1 609.8,160.1 611.2,160.1 612.5,160.1 613.8,160.1 615.1,160.1 616.5,160.1 617.8,160.1 619.1,160.1 620.4,160.1 621.7,160.1 623.1,160.1 624.4,160.1 625.7,160.1 627.0,160.1 628.4,160.1 629.7,160.1 631.0,160.1 632.3,160.1 633.7,160.1 635.0,160.1 636.3,160.1 637.6,160.1 639.0,160.1 640.3,160.1 641.6,160.1 642.9,160.1 644.2,160.1 645.6,160.1 646.9,160.1 648.2,160.1 649.5,160.1 650.9,160.1 652.2,160.1 653.5,160.1 654.8,160.1 656.2,160.1 657.5,160.1 658.8,160.1 660.1,160.1 661.4,160.1 662.8,160.1 664.1,160.1 665.4,160.1 666.7,160.1 668.1,160.1 669.4,160.1 670.7,160.1 672.0,160.1 673.4,160.1 674.7,160.1 676.0,160.1 677.3,160.1 678.7,160.1 680.0,160.1 681.3,160.1 682.6,160.1 683.9,160.1 685.3,160.1 686.6,160.1 687.9,160.1 689.2,160.1 690.6,160.1 691.9,160.1 693.2,160.1 694.5,160.1 695.9,160.1 697.2,160.1 698.5,160.1 699.8,160.1 701.2,160.1 702.5,160.1 703.8,160.1 705.1,160.1 706.4,160.1 707.8,160.1 709.1,160.1 710.4,160.1 711.7,160.1 713.1,160.1 714.4,160.1 715.7,160.1 717.0,160.1 718.4,160.1 719.7,160.1 721.0,160.1 722.3,160.1 723.7,160.1 725.0,160.1 726.3,160.1 727.6,160.1 728.9,160.1 730.3,160.1 731.6,160.1 732.9,160.1 734.2,160.1 735.6,160.1 736.9,160.1 738.2,160.1 739.5,160.1 740.9,160.1 742.2,160.1 743.5,160.1 744.8,160.1 746.1,160.1 747.5,160.1 748.8,160.1 750.1,160.1 751.4,160.1 752.8,160.1 754.1,160.1 755.4,160.1 756.7,160.1 758.1,160.1 759.4,160.1 760.7,160.1 762.0,160.1 763.4,160.1 764.7,160.1 766.0,160.1"/>
<line x1="606" y1="42" x2="628" y2="42" stroke="#0f62fe" stroke-width="2.2"/>
<text x="634" y="46" font-family="Arial" font-size="12">heading_command_deg</text>
<polyline fill="none" stroke="#24a148" stroke-width="2.2" points="54.0,160.1 55.3,160.1 56.6,160.1 58.0,160.1 59.3,160.1 60.6,160.1 61.9,160.1 63.3,160.2 64.6,160.2 65.9,160.2 67.2,160.2 68.6,160.2 69.9,160.2 71.2,160.2 72.5,160.3 73.9,160.3 75.2,160.3 76.5,160.3 77.8,160.3 79.1,160.3 80.5,160.3 81.8,160.4 83.1,160.4 84.4,160.4 85.8,160.4 87.1,160.4 88.4,160.4 89.7,160.4 91.1,160.5 92.4,160.5 93.7,160.5 95.0,160.5 96.3,160.5 97.7,160.5 99.0,160.6 100.3,160.6 101.6,160.6 103.0,160.6 104.3,160.6 105.6,160.6 106.9,160.6 108.3,160.7 109.6,160.7 110.9,160.7 112.2,160.7 113.6,160.7 114.9,160.8 116.2,160.8 117.5,160.8 118.8,160.8 120.2,160.8 121.5,160.8 122.8,160.9 124.1,160.9 125.5,160.9 126.8,160.9 128.1,160.9 129.4,161.0 130.8,161.0 132.1,161.0 133.4,161.0 134.7,161.1 136.1,161.1 137.4,161.1 138.7,161.1 140.0,161.2 141.3,161.2 142.7,161.2 144.0,161.2 145.3,161.3 146.6,161.3 148.0,161.3 149.3,161.3 150.6,161.4 151.9,161.4 153.3,161.4 154.6,161.4 155.9,161.5 157.2,161.5 158.6,161.5 159.9,161.6 161.2,161.6 162.5,161.6 163.8,161.7 165.2,161.7 166.5,161.7 167.8,161.8 169.1,161.8 170.5,161.9 171.8,161.9 173.1,161.9 174.4,162.0 175.8,162.0 177.1,162.1 178.4,162.1 179.7,162.2 181.0,162.2 182.4,162.3 183.7,162.3 185.0,162.4 186.3,162.5 187.7,162.5 189.0,162.6 190.3,162.7 191.6,162.7 193.0,162.8 194.3,162.9 195.6,163.0 196.9,163.1 198.3,163.2 199.6,163.2 200.9,163.3 202.2,163.4 203.5,163.5 204.9,163.7 206.2,163.8 207.5,163.9 208.8,164.0 210.2,164.1 211.5,164.3 212.8,164.4 214.1,164.5 215.5,164.7 216.8,164.9 218.1,165.0 219.4,165.2 220.8,165.4 222.1,165.6 223.4,165.7 224.7,166.0 226.0,166.1 227.4,166.4 228.7,166.6 230.0,166.9 231.3,167.1 232.7,167.4 234.0,167.6 235.3,167.9 236.6,168.1 238.0,168.5 239.3,168.8 240.6,169.2 241.9,169.4 243.2,169.8 244.6,170.2 245.9,170.6 247.2,170.9 248.5,171.3 249.9,171.5 251.2,171.8 252.5,172.2 253.8,172.5 255.2,172.8 256.5,173.1 257.8,173.4 259.1,173.6 260.5,173.9 261.8,174.2 263.1,174.5 264.4,174.6 265.7,174.8 267.1,175.0 268.4,175.1 269.7,175.2 271.0,175.1 272.4,175.2 273.7,175.2 275.0,175.1 276.3,175.2 277.7,175.2 279.0,175.3 280.3,175.2 281.6,175.4 283.0,175.4 284.3,175.7 285.6,175.8 286.9,176.2 288.2,176.3 289.6,176.6 290.9,176.8 292.2,177.3 293.5,177.4 294.9,177.7 296.2,177.7 297.5,177.8 298.8,177.9 300.2,178.0 301.5,177.8 302.8,177.9 304.1,177.9 305.4,178.1 306.8,178.0 308.1,178.2 309.4,178.1 310.7,178.4 312.1,178.4 313.4,178.8 314.7,178.9 316.0,179.3 317.4,179.4 318.7,179.8 320.0,179.9 321.3,180.4 322.7,180.5 324.0,180.8 325.3,180.8 326.6,181.0 327.9,180.8 329.3,181.1 330.6,180.9 331.9,181.1 333.2,181.0 334.6,181.4 335.9,181.3 337.2,181.7 338.5,181.7 339.9,182.1 341.2,182.1 342.5,182.5 343.8,182.7 345.2,183.2 346.5,183.3 347.8,183.7 349.1,183.8 350.4,184.1 351.8,184.0 353.1,184.3 354.4,184.2 355.7,184.4 357.1,184.3 358.4,184.6 359.7,184.5 361.0,184.9 362.4,184.9 363.7,185.3 365.0,185.3 366.3,185.7 367.7,185.7 369.0,186.2 370.3,186.3 371.6,186.8 372.9,186.9 374.3,187.4 375.6,187.4 376.9,187.8 378.2,187.8 379.6,188.1 380.9,188.0 382.2,188.3 383.5,188.2 384.9,188.6 386.2,188.6 387.5,189.0 388.8,189.0 390.1,189.5 391.5,189.4 392.8,189.9 394.1,190.0 395.4,190.5 396.8,190.6 398.1,191.2 399.4,191.2 400.7,191.8 402.1,191.8 403.4,192.2 404.7,192.2 406.0,192.7 407.4,192.6 408.7,193.1 410.0,193.1 411.3,193.5 412.6,193.5 414.0,194.0 415.3,193.9 416.6,194.5 417.9,194.5 419.3,195.1 420.6,195.2 421.9,195.8 423.2,195.9 424.6,196.5 425.9,196.6 427.2,197.2 428.5,197.3 429.9,197.8 431.2,197.8 432.5,198.3 433.8,198.3 435.1,198.8 436.5,198.8 437.8,199.3 439.1,199.4 440.4,199.8 441.8,200.0 443.1,200.4 444.4,200.8 445.7,201.2 447.1,201.6 448.4,202.0 449.7,202.4 451.0,202.8 452.3,203.2 453.7,203.5 455.0,203.9 456.3,204.2 457.6,204.6 459.0,204.9 460.3,205.2 461.6,205.5 462.9,205.8 464.3,206.1 465.6,206.4 466.9,206.8 468.2,207.1 469.6,207.5 470.9,207.9 472.2,208.3 473.5,208.7 474.8,209.2 476.2,209.6 477.5,210.1 478.8,210.6 480.1,211.1 481.5,211.6 482.8,212.1 484.1,212.7 485.4,213.2 486.8,213.7 488.1,214.2 489.4,214.7 490.7,215.3 492.1,215.8 493.4,216.4 494.7,217.0 496.0,217.7 497.3,218.4 498.7,219.1 500.0,219.9 501.3,220.7 502.6,221.5 504.0,222.4 505.3,223.4 506.6,224.4 507.9,225.4 509.3,226.4 510.6,227.5 511.9,228.6 513.2,229.6 514.6,230.7 515.9,231.9 517.2,233.0 518.5,234.2 519.8,235.3 521.2,236.5 522.5,237.7 523.8,238.9 525.1,240.0 526.5,241.2 527.8,242.4 529.1,243.6 530.4,244.8 531.8,246.0 533.1,247.2 534.4,248.4 535.7,249.6 537.0,250.9 538.4,252.1 539.7,253.3 541.0,254.6 542.3,255.8 543.7,257.1 545.0,258.3 546.3,259.6 547.6,260.8 549.0,262.1 550.3,263.4 551.6,264.7 552.9,266.0 554.3,54.9 555.6,56.2 556.9,57.5 558.2,58.8 559.5,59.9 560.9,60.7 562.2,61.2 563.5,61.2 564.8,61.0 566.2,60.4 567.5,59.7 568.8,59.1 570.1,58.4 571.5,57.8 572.8,57.1 574.1,56.5 575.4,55.8 576.8,55.0 578.1,54.3 579.4,265.9 580.7,265.0 582.0,264.2 583.4,263.5 584.7,263.1 586.0,263.3 587.3,264.0 588.7,265.1 590.0,54.0 591.3,55.3 592.6,56.5 594.0,57.7 595.3,58.9 596.6,60.1 597.9,61.4 599.2,62.7 600.6,64.0 601.9,65.4 603.2,66.9 604.5,68.5 605.9,70.2 607.2,72.1 608.5,74.1 609.8,76.5 611.2,79.2 612.5,82.6 613.8,86.9 615.1,92.8 616.5,101.0 617.8,112.4 619.1,126.2 620.4,139.2 621.7,149.1 623.1,156.5 624.4,162.4 625.7,167.6 627.0,172.4 628.4,176.9 629.7,181.2 631.0,185.4 632.3,189.7 633.7,194.1 635.0,198.8 636.3,203.7 637.6,208.6 639.0,213.2 640.3,217.2 641.6,220.7 642.9,223.6 644.2,226.0 645.6,228.0 646.9,229.5 648.2,230.6 649.5,231.1 650.9,231.3 652.2,230.8 653.5,229.9 654.8,228.2 656.2,225.7 657.5,222.3 658.8,218.0 660.1,213.7 661.4,209.9 662.8,206.8 664.1,204.4 665.4,202.8 666.7,201.7 668.1,201.0 669.4,200.9 670.7,201.4 672.0,202.5 673.4,204.0 674.7,205.8 676.0,207.6 677.3,209.4 678.7,211.1 680.0,212.4 681.3,213.2 682.6,213.6 683.9,213.3 685.3,212.6 686.6,211.5 687.9,210.0 689.2,208.3 690.6,206.6 691.9,204.8 693.2,203.2 694.5,201.8 695.9,200.5 697.2,199.3 698.5,198.1 699.8,196.9 701.2,195.6 702.5,194.4 703.8,193.1 705.1,191.8 706.4,190.6 707.8,189.3 709.1,188.2 710.4,187.1 711.7,186.1 713.1,185.1 714.4,184.2 715.7,183.2 717.0,182.2 718.4,181.2 719.7,180.0 721.0,178.8 722.3,177.5 723.7,176.2 725.0,174.9 726.3,173.7 727.6,172.3 728.9,171.0 730.3,169.7 731.6,168.3 732.9,167.0 734.2,165.6 735.6,164.1 736.9,162.6 738.2,161.0 739.5,159.3 740.9,157.5 742.2,155.6 743.5,153.6 744.8,151.3 746.1,148.8 747.5,146.0 748.8,142.8 750.1,139.2 751.4,135.1 752.8,130.3 754.1,125.0 755.4,119.1 756.7,112.9 758.1,106.7 759.4,100.8 760.7,95.4 762.0,90.7 763.4,86.7 764.7,83.4 766.0,80.4"/>
<line x1="606" y1="60" x2="628" y2="60" stroke="#24a148" stroke-width="2.2"/>
<text x="634" y="64" font-family="Arial" font-size="12">yaw_deg</text>
</svg>