<svg xmlns="http://www.w3.org/2000/svg" width="820" height="320" viewBox="0 0 820 320">
<rect width="100%" height="100%" fill="#ffffff"/>
<text x="54" y="28" font-family="Arial" font-size="18" font-weight="700">Velocity Z</text>
<line x1="54" y1="266" x2="766" y2="266" stroke="#1f2933"/>
<line x1="54" y1="54" x2="54" y2="266" stroke="#1f2933"/>
<text x="54" y="306" font-family="Arial" font-size="12">time (s)</text>
<text x="596" y="306" font-family="Arial" font-size="12">vz (m/s)</text>
<text x="58" y="68" font-family="Arial" font-size="11">9</text>
<text x="58" y="260" font-family="Arial" font-size="11">-68.4</text>
<polyline fill="none" stroke="#0f62fe" stroke-width="2.2" points="54.0,54.0 55.2,54.6 56.4,55.1 57.6,55.6 58.8,56.1 60.0,56.6 61.2,57.1 62.4,57.7 63.6,58.2 64.8,58.7 66.0,59.2 67.2,59.7 68.4,60.1 69.6,60.6 70.8,61.1 72.0,61.6 73.2,62.0 74.4,62.4 75.6,62.9 76.8,63.3 78.0,63.7 79.2,64.1 80.4,64.4 81.6,64.8 82.8,65.2 84.0,65.5 85.2,65.9 86.4,66.2 87.6,66.6 88.8,67.0 90.0,67.3 91.2,67.7 92.4,68.1 93.6,68.5 94.8,69.0 96.0,69.5 97.2,70.0 98.4,70.5 99.6,71.0 100.8,71.6 102.0,72.3 103.2,72.9 104.4,73.7 105.6,74.4 106.8,75.2 108.0,75.9 109.2,76.7 110.4,77.3 111.6,77.9 112.8,78.4 114.0,78.7 115.2,78.9 116.4,79.1 117.6,79.3 118.8,79.7 120.0,80.6 121.2,82.1 122.4,84.2 123.6,86.7 124.8,89.4 126.0,92.3 127.2,95.4 128.4,98.5 129.6,101.4 130.8,104.1 132.0,106.3 133.2,108.6 134.4,111.7 135.6,114.3 136.8,115.9 138.0,116.7 139.2,116.7 140.4,115.9 141.6,114.7 142.8,113.3 144.1,112.1 145.3,111.3 146.5,111.2 147.7,111.8 148.9,113.4 150.1,115.6 151.3,118.4 152.5,121.4 153.7,124.2 154.9,126.3 156.1,127.5 157.3,127.8 158.5,127.1 159.7,125.9 160.9,124.4 162.1,123.1 163.3,122.3 164.5,122.1 165.7,122.6 166.9,123.9 168.1,125.9 169.3,128.4 170.5,131.3 171.7,134.3 172.9,136.8 174.1,138.2 175.3,138.5 176.5,137.7 177.7,136.3 178.9,134.8 180.1,133.7 181.3,133.2 182.5,133.2 183.7,133.9 184.9,135.2 186.1,137.0 187.3,139.5 188.5,142.5 189.7,144.8 190.9,145.5 192.1,145.2 193.3,144.7 194.5,144.0 195.7,142.9 196.9,141.7 198.1,140.7 199.3,140.0 200.5,139.5 201.7,139.2 202.9,139.3 204.1,139.8 205.3,141.0 206.5,143.0 207.7,145.0 208.9,145.7 210.1,145.1 211.3,144.4 212.5,143.5 213.7,142.3 214.9,141.0 216.1,140.9 217.3,140.8 218.5,140.7 219.7,140.6 220.9,140.4 222.1,140.3 223.3,140.3 224.5,140.5 225.7,141.0 226.9,141.7 228.1,142.8 229.3,144.6 230.5,146.1 231.7,146.7 232.9,147.5 234.1,148.3 235.3,149.0 236.5,149.6 237.7,150.2 238.9,150.8 240.1,151.3 241.3,151.7 242.5,152.1 243.7,152.5 244.9,153.1 246.1,154.3 247.3,155.7 248.5,157.3 249.7,159.0 250.9,160.9 252.1,163.0 253.3,165.3 254.5,167.7 255.7,170.0 256.9,171.6 258.1,173.2 259.3,174.5 260.5,175.7 261.7,176.6 262.9,177.7 264.1,178.9 265.3,180.2 266.5,181.0 267.7,182.0 268.9,183.2 270.1,184.8 271.3,186.7 272.5,188.9 273.7,191.3 274.9,193.9 276.1,196.3 277.3,198.4 278.5,199.5 279.7,199.8 280.9,199.6 282.1,199.5 283.3,199.4 284.5,198.7 285.7,198.3 286.9,198.3 288.1,198.8 289.3,199.7 290.5,201.0 291.7,202.7 292.9,205.0 294.1,207.5 295.3,210.3 296.5,212.6 297.7,213.8 298.9,214.2 300.1,213.7 301.3,212.8 302.5,211.7 303.7,210.6 304.9,209.6 306.1,208.3 307.3,207.2 308.5,206.5 309.7,206.0 310.9,205.8 312.1,205.8 313.3,206.1 314.5,207.0 315.7,208.4 316.9,210.3 318.1,212.7 319.3,214.3 320.5,215.4 321.8,216.3 323.0,216.7 324.2,216.6 325.4,216.0 326.6,214.9 327.8,213.7 329.0,212.2 330.2,210.7 331.4,209.1 332.6,207.6 333.8,206.2 335.0,205.0 336.2,203.9 337.4,203.0 338.6,202.3 339.8,201.9 341.0,201.8 342.2,202.0 343.4,202.6 344.6,203.5 345.8,204.5 347.0,205.5 348.2,206.4 349.4,207.2 350.6,208.0 351.8,208.8 353.0,209.7 354.2,210.8 355.4,210.9 356.6,211.0 357.8,211.1 359.0,211.1 360.2,211.1 361.4,210.9 362.6,210.3 363.8,209.6 365.0,208.7 366.2,207.7 367.4,206.7 368.6,205.6 369.8,204.1 371.0,202.6 372.2,201.2 373.4,199.9 374.6,198.8 375.8,197.9 377.0,197.3 378.2,196.9 379.4,196.8 380.6,197.0 381.8,197.6 383.0,198.7 384.2,200.5 385.4,202.7 386.6,204.9 387.8,207.0 389.0,208.9 390.2,210.4 391.4,211.2 392.6,211.4 393.8,211.1 395.0,210.3 396.2,209.3 397.4,208.0 398.6,206.8 399.8,205.4 401.0,204.1 402.2,202.9 403.4,201.9 404.6,201.1 405.8,200.8 407.0,201.0 408.2,201.8 409.4,203.4 410.6,205.7 411.8,208.3 413.0,211.0 414.2,213.4 415.4,215.5 416.6,217.1 417.8,218.3 419.0,219.0 420.2,219.2 421.4,219.2 422.6,218.9 423.8,218.5 425.0,217.9 426.2,217.3 427.4,216.5 428.6,215.8 429.8,215.3 431.0,215.0 432.2,214.9 433.4,215.6 434.6,217.1 435.8,219.2 437.0,221.6 438.2,223.9 439.4,225.9 440.6,227.7 441.8,229.2 443.0,230.4 444.2,231.3 445.4,231.7 446.6,231.9 447.8,231.9 449.0,231.8 450.2,231.7 451.4,231.4 452.6,231.3 453.8,231.2 455.0,231.2 456.2,231.4 457.4,231.8 458.6,232.5 459.8,233.2 461.0,234.3 462.2,235.8 463.4,237.2 464.6,238.4 465.8,239.1 467.0,239.5 468.2,239.7 469.4,239.8 470.6,239.6 471.8,239.3 473.0,239.0 474.2,238.7 475.4,238.4 476.6,238.2 477.8,238.2 479.0,238.3 480.2,238.6 481.4,238.9 482.6,239.3 483.8,239.7 485.0,240.1 486.2,240.3 487.4,240.5 488.6,240.6 489.8,240.6 491.0,240.5 492.2,240.2 493.4,239.9 494.6,239.6 495.8,239.3 497.0,239.4 498.2,239.5 499.5,239.4 500.7,239.2 501.9,239.0 503.1,238.6 504.3,238.3 505.5,238.0 506.7,237.7 507.9,237.4 509.1,237.0 510.3,236.5 511.5,235.9 512.7,235.1 513.9,234.2 515.1,233.2 516.3,232.5 517.5,231.6 518.7,230.6 519.9,229.5 521.1,228.2 522.3,227.0 523.5,226.0 524.7,225.2 525.9,224.7 527.1,224.7 528.3,224.9 529.5,225.6 530.7,226.6 531.9,227.7 533.1,228.7 534.3,229.4 535.5,229.8 536.7,229.9 537.9,229.7 539.1,229.3 540.3,228.7 541.5,227.9 542.7,227.1 543.9,226.2 545.1,225.2 546.3,224.2 547.5,223.1 548.7,221.9 549.9,220.8 551.1,219.7 552.3,218.7 553.5,217.9 554.7,217.3 555.9,217.0 557.1,217.0 558.3,217.2 559.5,217.6 560.7,218.2 561.9,218.9 563.1,220.1 564.3,221.6 565.5,222.9 566.7,224.0 567.9,225.0 569.1,225.7 570.3,226.3 571.5,226.7 572.7,226.9 573.9,227.1 575.1,227.2 576.3,227.3 577.5,227.3 578.7,227.4 579.9,227.4 581.1,227.5 582.3,227.6 583.5,227.7 584.7,227.8 585.9,228.0 587.1,228.1 588.3,228.2 589.5,228.4 590.7,228.5 591.9,228.5 593.1,228.5 594.3,228.5 595.5,228.6 596.7,228.7 597.9,228.9 599.1,229.1 600.3,229.4 601.5,229.5 602.7,229.5 603.9,229.7 605.1,229.9 606.3,230.2 607.5,230.6 608.7,231.1 609.9,231.7 611.1,232.3 612.3,233.1 613.5,233.7 614.7,233.8 615.9,233.9 617.1,234.1 618.3,234.1 619.5,234.2 620.7,234.2 621.9,234.3 623.1,234.5 624.3,234.8 625.5,235.2 626.7,235.5 627.9,235.8 629.1,236.2 630.3,236.7 631.5,237.1 632.7,237.5 633.9,237.9 635.1,238.4 636.3,238.9 637.5,239.0 638.7,239.0 639.9,239.1 641.1,239.2 642.3,239.3 643.5,239.5 644.7,239.6 645.9,239.7 647.1,239.8 648.3,240.1 649.5,240.7 650.7,241.0 651.9,241.2 653.1,241.3 654.3,241.4 655.5,241.5 656.7,241.7 657.9,242.1 659.1,242.2 660.3,242.2 661.5,242.1 662.7,242.0 663.9,242.0 665.1,242.1 666.3,242.2 667.5,242.2 668.7,242.2 669.9,242.2 671.1,242.3 672.3,242.8 673.5,243.1 674.7,243.3 675.9,243.5 677.2,243.7 678.4,243.8 679.6,243.9 680.8,244.3 682.0,245.0 683.2,245.6 684.4,246.0 685.6,246.4 686.8,246.7 688.0,247.0 689.2,247.1 690.4,247.2 691.6,247.2 692.8,247.8 694.0,248.2 695.2,248.4 696.4,248.6 697.6,248.8 698.8,249.1 700.0,249.4 701.2,249.8 702.4,249.9 703.6,250.0 704.8,250.1 706.0,250.1 707.2,250.5 708.4,250.5 709.6,250.5 710.8,250.4 712.0,250.5 713.2,250.8 714.4,251.4 715.6,252.3 716.8,253.1 718.0,253.8 719.2,254.4 720.4,255.0 721.6,255.5 722.8,255.9 724.0,256.2 725.2,256.6 726.4,257.2 727.6,257.8 728.8,258.2 730.0,258.6 731.2,258.9 732.4,259.3 733.6,259.6 734.8,259.8 736.0,260.0 737.2,260.3 738.4,260.8 739.6,261.0 740.8,261.2 742.0,261.3 743.2,261.4 744.4,261.6 745.6,261.9 746.8,262.2 748.0,262.5 749.2,262.9 750.4,263.4 751.6,264.2 752.8,264.8 754.0,265.1 755.2,265.2 756.4,265.3 757.6,265.5 758.8,265.6 760.0,265.5 761.2,265.5 762.4,265.5 763.6,265.6 764.8,265.8 766.0,266.0"/>
<line x1="606" y1="42" x2="628" y2="42" stroke="#0f62fe" stroke-width="2.2"/>
<text x="634" y="46" font-family="Arial" font-size="12">vz_mps</text>
</svg>