<svg xmlns="http://www.w3.org/2000/svg" width="820" height="320" viewBox="0 0 820 320">
<rect width="100%" height="100%" fill="#ffffff"/>
<text x="54" y="28" font-family="Arial" font-size="18" font-weight="700">Body Rates</text>
<line x1="54" y1="266" x2="766" y2="266" stroke="#1f2933"/>
<line x1="54" y1="54" x2="54" y2="266" stroke="#1f2933"/>
<text x="54" y="306" font-family="Arial" font-size="12">time (s)</text>
<text x="596" y="306" font-family="Arial" font-size="12">rate (deg/s)</text>
<text x="58" y="68" font-family="Arial" font-size="11">520</text>
<text x="58" y="260" font-family="Arial" font-size="11">-520</text>
<polyline fill="none" stroke="#0f62fe" stroke-width="2.2" points="54.0,160.0 55.2,159.6 56.4,159.2 57.6,158.8 58.8,158.4 60.0,158.0 61.2,157.6 62.4,157.2 63.6,156.8 64.8,156.5 66.0,156.1 67.2,155.8 68.4,155.5 69.6,155.3 70.8,155.0 72.0,154.8 73.2,154.7 74.4,154.6 75.6,154.5 76.8,154.5 78.0,154.5 79.2,154.5 80.4,154.5 81.6,154.6 82.8,154.7 84.0,154.7 85.2,154.7 86.4,154.7 87.6,154.6 88.8,154.4 90.0,154.1 91.2,153.7 92.4,153.1 93.6,152.3 94.8,151.3 96.0,150.1 97.2,148.5 98.4,146.6 99.6,144.3 100.8,141.6 102.0,138.7 103.2,135.5 104.4,132.2 105.6,128.7 106.8,125.1 108.0,121.4 109.2,117.7 110.4,114.0 111.6,110.3 112.8,106.7 114.0,103.2 115.2,99.9 116.4,96.6 117.6,93.5 118.8,90.3 120.0,87.2 121.2,83.8 122.4,80.3 123.6,76.3 124.8,72.6 126.0,68.9 127.2,65.3 128.4,62.2 129.6,59.7 130.8,56.6 132.0,54.0 133.2,54.0 134.4,54.0 135.6,54.0 136.8,54.0 138.0,54.0 139.2,54.0 140.4,54.0 141.6,54.0 142.8,54.0 144.1,54.0 145.3,54.0 146.5,54.0 147.7,54.0 148.9,54.1 150.1,55.1 151.3,55.9 152.5,56.4 153.7,56.6 154.9,56.6 156.1,56.3 157.3,55.8 158.5,55.0 159.7,54.0 160.9,54.0 162.1,54.0 163.3,54.0 164.5,54.0 165.7,55.0 166.9,57.1 168.1,59.9 169.3,62.3 170.5,63.8 171.7,64.4 172.9,64.0 174.1,63.7 175.3,63.5 176.5,63.2 177.7,62.6 178.9,61.8 180.1,61.2 181.3,61.1 182.5,62.6 183.7,65.6 184.9,69.9 186.1,74.1 187.3,77.6 188.5,80.1 189.7,81.1 190.9,81.1 192.1,80.6 193.3,79.7 194.5,78.5 195.7,77.0 196.9,75.9 198.1,75.1 199.3,75.5 200.5,77.8 201.7,81.9 202.9,87.6 204.1,94.4 205.3,100.7 206.5,106.1 207.7,110.1 208.9,112.5 210.1,112.6 211.3,112.3 212.5,112.2 213.7,112.4 214.9,112.9 216.1,113.5 217.3,114.6 218.5,116.1 219.7,119.4 220.9,124.6 222.1,131.3 223.3,138.1 224.5,144.8 225.7,151.5 226.9,158.2 228.1,165.0 229.3,171.7 230.5,177.7 231.7,182.7 232.9,186.6 234.1,190.1 235.3,193.4 236.5,196.2 237.7,199.0 238.9,202.1 240.1,205.6 241.3,209.7 242.5,214.5 243.7,220.1 244.9,225.9 246.1,231.7 247.3,237.6 248.5,243.4 249.7,249.1 250.9,254.0 252.1,257.8 253.3,260.3 254.5,261.8 255.7,262.7 256.9,263.4 258.1,264.3 259.3,265.6 260.5,266.0 261.7,266.0 262.9,266.0 264.1,266.0 265.3,266.0 266.5,266.0 267.7,266.0 268.9,266.0 270.1,266.0 271.3,266.0 272.5,264.7 273.7,261.9 274.9,257.8 276.1,253.5 277.3,249.9 278.5,247.6 279.7,246.6 280.9,246.3 282.1,246.3 283.3,246.6 284.5,247.1 285.7,248.0 286.9,248.7 288.1,248.1 289.3,245.8 290.5,242.0 291.7,237.2 292.9,231.7 294.1,226.3 295.3,221.1 296.5,216.4 297.7,213.6 298.9,212.6 300.1,213.2 301.3,214.3 302.5,215.7 303.7,217.5 304.9,219.6 306.1,221.9 307.3,224.1 308.5,226.0 309.7,226.5 310.9,225.8 312.1,223.7 313.3,220.4 314.5,216.5 315.7,212.1 316.9,207.8 318.1,203.4 319.3,199.1 320.5,195.4 321.8,192.9 323.0,192.0 324.2,192.5 325.4,194.4 326.6,196.9 327.8,199.7 329.0,202.3 330.2,204.9 331.4,207.4 332.6,209.7 333.8,211.8 335.0,213.8 336.2,215.1 337.4,216.3 338.6,217.4 339.8,218.6 341.0,220.0 342.2,221.6 343.4,223.4 344.6,225.6 345.8,228.1 347.0,230.7 348.2,233.5 349.4,236.6 350.6,239.4 351.8,242.2 353.0,244.7 354.2,247.2 355.4,249.5 356.6,251.7 357.8,253.6 359.0,255.1 360.2,255.6 361.4,255.2 362.6,253.7 363.8,251.4 365.0,248.8 366.2,246.0 367.4,243.3 368.6,241.0 369.8,239.0 371.0,237.1 372.2,235.6 373.4,234.2 374.6,233.1 375.8,232.7 377.0,232.7 378.2,233.0 379.4,233.6 380.6,234.4 381.8,235.3 383.0,236.3 384.2,237.1 385.4,237.7 386.6,237.9 387.8,237.5 389.0,236.5 390.2,235.2 391.4,233.9 392.6,232.3 393.8,230.5 395.0,228.3 396.2,225.7 397.4,223.6 398.6,222.1 399.8,221.2 401.0,220.8 402.2,220.8 403.4,221.2 404.6,221.7 405.8,222.2 407.0,222.4 408.2,222.2 409.4,221.7 410.6,220.9 411.8,219.7 413.0,218.7 414.2,217.8 415.4,216.8 416.6,215.8 417.8,214.6 419.0,213.2 420.2,211.6 421.4,210.2 422.6,208.9 423.8,208.3 425.0,208.3 426.2,208.8 427.4,209.7 428.6,210.5 429.8,211.4 431.0,212.4 432.2,213.1 433.4,213.3 434.6,213.2 435.8,212.3 437.0,210.7 438.2,209.0 439.4,207.3 440.6,205.5 441.8,203.6 443.0,201.6 444.2,199.4 445.4,196.8 446.6,194.4 447.8,192.6 449.0,191.6 450.2,191.2 451.4,191.5 452.6,192.4 453.8,193.4 455.0,194.2 456.2,194.8 457.4,195.2 458.6,195.4 459.8,195.2 461.0,194.4 462.2,192.7 463.4,190.2 464.6,186.9 465.8,183.6 467.0,180.5 468.2,177.6 469.4,174.9 470.6,172.2 471.8,169.4 473.0,166.7 474.2,163.8 475.4,160.8 476.6,158.0 477.8,155.4 479.0,152.9 480.2,150.5 481.4,148.2 482.6,146.0 483.8,143.9 485.0,141.9 486.2,139.7 487.4,137.4 488.6,134.7 489.8,131.6 491.0,128.1 492.2,124.1 493.4,119.9 494.6,115.8 495.8,111.8 497.0,107.9 498.2,104.3 499.5,100.9 500.7,97.8 501.9,94.9 503.1,92.2 504.3,90.1 505.5,88.6 506.7,87.8 507.9,87.6 509.1,87.8 510.3,88.3 511.5,88.9 512.7,89.5 513.9,90.1 515.1,90.3 516.3,90.3 517.5,90.1 518.7,89.7 519.9,89.1 521.1,89.1 522.3,89.6 523.5,90.2 524.7,91.1 525.9,92.0 527.1,92.9 528.3,93.5 529.5,94.4 530.7,95.8 531.9,97.5 533.1,99.4 534.3,101.3 535.5,103.2 536.7,105.0 537.9,106.7 539.1,108.4 540.3,109.8 541.5,110.8 542.7,111.4 543.9,111.8 545.1,111.9 546.3,111.8 547.5,111.6 548.7,111.4 549.9,111.0 551.1,110.3 552.3,109.3 553.5,108.1 554.7,106.9 555.9,105.7 557.1,104.5 558.3,103.5 559.5,103.0 560.7,102.9 561.9,103.0 563.1,103.4 564.3,104.2 565.5,105.5 566.7,107.0 567.9,108.5 569.1,110.2 570.3,111.9 571.5,113.6 572.7,115.1 573.9,116.4 575.1,117.5 576.3,118.3 577.5,119.0 578.7,119.3 579.9,119.5 581.1,119.3 582.3,118.9 583.5,118.2 584.7,117.2 585.9,115.9 587.1,114.6 588.3,113.0 589.5,111.4 590.7,109.5 591.9,107.5 593.1,105.3 594.3,103.1 595.5,101.0 596.7,98.9 597.9,96.9 599.1,94.8 600.3,92.6 601.5,90.4 602.7,88.2 603.9,85.8 605.1,83.4 606.3,80.8 607.5,78.7 608.7,77.2 609.9,76.3 611.1,75.7 612.3,75.1 613.5,74.6 614.7,74.1 615.9,73.6 617.1,72.8 618.3,71.7 619.5,70.4 620.7,69.2 621.9,67.9 623.1,66.6 624.3,65.2 625.5,63.7 626.7,62.1 627.9,60.4 629.1,58.8 630.3,58.0 631.5,58.0 632.7,58.6 633.9,59.5 635.1,60.3 636.3,60.9 637.5,61.3 638.7,61.6 639.9,61.7 641.1,61.9 642.3,61.7 643.5,61.1 644.7,60.1 645.9,58.9 647.1,57.4 648.3,56.0 649.5,54.7 650.7,54.0 651.9,54.0 653.1,54.0 654.3,54.0 655.5,54.4 656.7,55.3 657.9,56.4 659.1,57.7 660.3,58.9 661.5,59.9 662.7,60.6 663.9,60.6 665.1,60.0 666.3,58.9 667.5,57.3 668.7,55.4 669.9,54.0 671.1,54.0 672.3,54.0 673.5,54.0 674.7,54.0 675.9,54.0 677.2,54.0 678.4,54.0 679.6,54.0 680.8,54.0 682.0,54.2 683.2,54.6 684.4,54.7 685.6,54.3 686.8,54.0 688.0,54.0 689.2,54.0 690.4,54.0 691.6,54.0 692.8,54.0 694.0,54.0 695.2,54.0 696.4,54.0 697.6,54.0 698.8,54.0 700.0,54.0 701.2,54.1 702.4,54.5 703.6,55.0 704.8,55.6 706.0,56.3 707.2,57.2 708.4,58.2 709.6,59.2 710.8,59.7 712.0,59.6 713.2,58.9 714.4,57.9 715.6,56.7 716.8,55.5 718.0,54.5 719.2,54.0 720.4,54.0 721.6,54.0 722.8,54.3 724.0,55.1 725.2,56.0 726.4,57.2 727.6,58.7 728.8,60.3 730.0,61.3 731.2,61.6 732.4,61.2 733.6,60.0 734.8,58.2 736.0,56.3 737.2,54.3 738.4,54.0 739.6,54.0 740.8,54.0 742.0,54.0 743.2,54.0 744.4,54.0 745.6,54.0 746.8,54.0 748.0,54.7 749.2,56.0 750.4,57.3 751.6,58.9 752.8,60.5 754.0,61.3 755.2,61.1 756.4,60.5 757.6,59.7 758.8,58.7 760.0,57.4 761.2,56.0 762.4,54.3 763.6,54.0 764.8,54.0 766.0,54.1"/>
<line x1="606" y1="42" x2="628" y2="42" stroke="#0f62fe" stroke-width="2.2"/>
<text x="634" y="46" font-family="Arial" font-size="12">p_dps</text>
<polyline fill="none" stroke="#24a148" stroke-width="2.2" points="54.0,160.0 55.2,161.3 56.4,160.2 57.6,159.0 58.8,158.6 60.0,158.9 61.2,159.4 62.4,159.6 63.6,159.6 64.8,159.6 66.0,159.7 67.2,159.8 68.4,160.0 69.6,160.1 70.8,160.2 72.0,160.3 73.2,160.4 74.4,160.4 75.6,160.4 76.8,160.4 78.0,160.3 79.2,160.2 80.4,160.0 81.6,159.8 82.8,159.5 84.0,159.2 85.2,158.8 86.4,158.4 87.6,158.0 88.8,157.5 90.0,157.1 91.2,156.6 92.4,156.1 93.6,155.6 94.8,155.1 96.0,154.6 97.2,154.2 98.4,153.8 99.6,153.4 100.8,153.1 102.0,152.9 103.2,152.8 104.4,152.9 105.6,153.3 106.8,154.2 108.0,155.7 109.2,157.8 110.4,160.4 111.6,163.6 112.8,167.6 114.0,172.8 115.2,179.5 116.4,186.2 117.6,193.0 118.8,199.3 120.0,203.1 121.2,204.3 122.4,206.0 123.6,208.7 124.8,212.3 126.0,216.3 127.2,220.2 128.4,223.7 129.6,226.8 130.8,229.1 132.0,229.7 133.2,236.4 134.4,243.1 135.6,249.9 136.8,256.6 138.0,261.6 139.2,260.8 140.4,255.0 141.6,248.3 142.8,241.5 144.1,234.8 145.3,228.2 146.5,225.6 147.7,226.7 148.9,231.3 150.1,238.0 151.3,244.7 152.5,251.5 153.7,258.2 154.9,261.0 156.1,259.5 157.3,254.1 158.5,247.4 159.7,240.7 160.9,233.9 162.1,227.2 163.3,221.2 164.5,219.8 165.7,222.3 166.9,228.5 168.1,235.2 169.3,242.0 170.5,248.7 171.7,255.4 172.9,262.2 174.1,265.1 175.3,263.7 176.5,258.5 177.7,251.8 178.9,245.1 180.1,238.3 181.3,235.5 182.5,236.6 183.7,241.3 184.9,248.1 186.1,254.8 187.3,261.5 188.5,266.0 189.7,265.7 190.9,259.0 192.1,252.3 193.3,245.5 194.5,240.9 195.7,234.1 196.9,227.4 198.1,220.7 199.3,217.9 200.5,218.9 201.7,223.7 202.9,230.4 204.1,237.2 205.3,243.9 206.5,250.6 207.7,257.3 208.9,250.6 210.1,243.9 211.3,237.2 212.5,230.4 213.7,223.7 214.9,217.0 216.1,212.6 217.3,205.8 218.5,202.9 219.7,203.8 220.9,208.4 222.1,215.1 223.3,221.8 224.5,228.6 225.7,235.3 226.9,242.0 228.1,248.8 229.3,255.5 230.5,262.2 231.7,262.1 232.9,256.0 234.1,249.3 235.3,242.6 236.5,235.9 237.7,229.1 238.9,222.4 240.1,217.8 241.3,217.0 242.5,219.6 243.7,224.7 244.9,230.7 246.1,237.5 247.3,244.2 248.5,250.9 249.7,257.6 250.9,264.4 252.1,266.0 253.3,266.0 254.5,266.0 255.7,266.0 256.9,259.3 258.1,252.5 259.3,245.8 260.5,239.1 261.7,232.4 262.9,225.6 264.1,218.9 265.3,212.2 266.5,218.9 267.7,225.6 268.9,232.4 270.1,239.1 271.3,245.8 272.5,252.5 273.7,259.3 274.9,266.0 276.1,266.0 277.3,259.3 278.5,252.5 279.7,245.8 280.9,239.1 282.1,232.4 283.3,225.6 284.5,218.9 285.7,213.1 286.9,210.2 288.1,210.0 289.3,212.2 290.5,216.9 291.7,223.7 292.9,230.4 294.1,237.1 295.3,243.6 296.5,236.9 297.7,230.2 298.9,223.5 300.1,216.7 301.3,210.0 302.5,203.3 303.7,196.5 304.9,189.8 306.1,183.1 307.3,178.6 308.5,177.2 309.7,178.3 310.9,181.8 312.1,187.1 313.3,193.9 314.5,200.6 315.7,207.3 316.9,214.0 318.1,220.8 319.3,215.1 320.5,208.4 321.8,201.6 323.0,194.9 324.2,188.2 325.4,181.5 326.6,174.7 327.8,168.0 329.0,161.3 330.2,154.6 331.4,147.8 332.6,141.1 333.8,134.4 335.0,127.7 336.2,120.9 337.4,114.2 338.6,107.5 339.8,100.7 341.0,95.8 342.2,93.7 343.4,94.1 344.6,96.8 345.8,101.7 347.0,108.4 348.2,113.0 349.4,115.8 350.6,117.0 351.8,116.8 353.0,115.3 354.2,114.8 355.4,121.6 356.6,128.3 357.8,135.0 359.0,141.8 360.2,148.5 361.4,153.4 362.6,156.1 363.8,156.9 365.0,156.6 366.2,155.6 367.4,154.1 368.6,152.4 369.8,145.7 371.0,138.9 372.2,132.2 373.4,125.5 374.6,118.8 375.8,112.0 377.0,107.5 378.2,106.0 379.4,107.3 380.6,111.2 381.8,117.3 383.0,124.1 384.2,130.8 385.4,137.5 386.6,144.2 387.8,151.0 389.0,157.7 390.2,164.4 391.4,168.0 392.6,168.4 393.8,165.9 395.0,160.7 396.2,153.9 397.4,147.2 398.6,140.5 399.8,133.8 401.0,127.0 402.2,120.3 403.4,115.2 404.6,113.2 405.8,114.0 407.0,117.3 408.2,122.8 409.4,129.6 410.6,136.3 411.8,143.0 413.0,149.8 414.2,156.5 415.4,163.2 416.6,168.1 417.8,169.9 419.0,168.7 420.2,164.9 421.4,158.8 422.6,152.1 423.8,145.4 425.0,138.7 426.2,131.9 427.4,125.2 428.6,119.3 429.8,116.5 431.0,116.6 432.2,119.3 433.4,126.1 434.6,132.8 435.8,139.5 437.0,146.2 438.2,153.0 439.4,159.7 440.6,166.4 441.8,171.7 443.0,173.7 444.2,172.6 445.4,168.9 446.6,162.8 447.8,156.0 449.0,149.3 450.2,142.6 451.4,135.9 452.6,129.1 453.8,123.1 455.0,120.3 456.2,120.2 457.4,122.5 458.6,127.1 459.8,133.5 461.0,140.2 462.2,146.9 463.4,153.7 464.6,160.4 465.8,166.1 467.0,166.7 468.2,164.2 469.4,159.2 470.6,152.5 471.8,145.7 473.0,139.0 474.2,132.3 475.4,125.5 476.6,121.2 477.8,119.3 479.0,119.5 480.2,121.5 481.4,125.2 482.6,128.9 483.8,129.9 485.0,128.6 486.2,125.2 487.4,120.0 488.6,113.2 489.8,106.5 491.0,99.8 492.2,93.1 493.4,86.3 494.6,79.6 495.8,73.6 497.0,74.8 498.2,81.5 499.5,88.2 500.7,95.0 501.9,99.9 503.1,102.8 504.3,104.1 505.5,104.7 506.7,105.5 507.9,106.7 509.1,108.1 510.3,109.8 511.5,111.6 512.7,113.5 513.9,115.5 515.1,117.5 516.3,110.7 517.5,104.0 518.7,97.3 519.9,90.6 521.1,83.8 522.3,80.0 523.5,79.0 524.7,80.4 525.9,87.1 527.1,93.9 528.3,100.6 529.5,107.3 530.7,114.1 531.9,120.8 533.1,127.5 534.3,134.2 535.5,141.0 536.7,147.7 537.9,154.4 539.1,161.1 540.3,167.9 541.5,173.6 542.7,176.8 543.9,177.9 545.1,177.4 546.3,176.3 547.5,175.3 548.7,174.4 549.9,175.3 551.1,177.8 552.3,181.9 553.5,187.3 554.7,193.9 555.9,200.7 557.1,207.4 558.3,214.1 559.5,220.8 560.7,227.6 561.9,234.3 563.1,240.8 564.3,239.2 565.5,238.9 566.7,236.3 567.9,231.7 569.1,225.1 570.3,218.4 571.5,211.7 572.7,205.0 573.9,198.2 575.1,191.5 576.3,184.8 577.5,178.0 578.7,171.3 579.9,164.6 581.1,157.9 582.3,151.1 583.5,144.4 584.7,138.2 585.9,134.2 587.1,132.3 588.3,132.3 589.5,134.2 590.7,135.8 591.9,137.2 593.1,139.0 594.3,142.1 595.5,147.1 596.7,153.1 597.9,159.6 599.1,166.2 600.3,172.7 601.5,179.4 602.7,186.1 603.9,192.8 605.1,199.6 606.3,206.3 607.5,213.0 608.7,219.7 609.9,226.5 611.1,233.2 612.3,239.9 613.5,239.4 614.7,232.7 615.9,226.0 617.1,219.2 618.3,212.5 619.5,205.8 620.7,199.0 621.9,192.3 623.1,185.6 624.3,178.9 625.5,172.1 626.7,165.4 627.9,158.7 629.1,152.0 630.3,145.2 631.5,138.5 632.7,131.8 633.9,126.6 635.1,123.8 636.3,123.4 637.5,116.7 638.7,109.9 639.9,104.0 641.1,101.1 642.3,100.8 643.5,103.1 644.7,107.7 645.9,114.4 647.1,121.1 648.3,127.8 649.5,134.6 650.7,141.3 651.9,148.0 653.1,154.7 654.3,161.5 655.5,168.2 656.7,174.9 657.9,181.7 659.1,183.3 660.3,181.4 661.5,177.1 662.7,170.4 663.9,163.7 665.1,157.0 666.3,151.0 667.5,147.3 668.7,145.9 669.9,146.9 671.1,150.7 672.3,157.5 673.5,164.2 674.7,170.9 675.9,177.6 677.2,184.4 678.4,191.1 679.6,197.8 680.8,204.5 682.0,211.3 683.2,213.5 684.4,213.4 685.6,212.3 686.8,208.6 688.0,202.4 689.2,195.7 690.4,188.9 691.6,182.2 692.8,183.2 694.0,182.1 695.2,179.1 696.4,174.4 697.6,168.1 698.8,161.4 700.0,154.7 701.2,147.9 702.4,141.2 703.6,134.5 704.8,128.9 706.0,125.7 707.2,119.0 708.4,112.2 709.6,105.5 710.8,98.8 712.0,95.0 713.2,96.1 714.4,102.9 715.6,109.6 716.8,116.3 718.0,123.0 719.2,129.8 720.4,136.5 721.6,143.2 722.8,149.9 724.0,156.7 725.2,163.4 726.4,170.1 727.6,175.5 728.8,177.8 730.0,179.0 731.2,179.3 732.4,178.9 733.6,176.5 734.8,172.3 736.0,166.6 737.2,160.2 738.4,161.8 739.6,167.5 740.8,174.2 742.0,180.9 743.2,187.6 744.4,194.4 745.6,201.1 746.8,207.8 748.0,214.5 749.2,221.3 750.4,228.0 751.6,227.7 752.8,220.9 754.0,214.2 755.2,207.5 756.4,200.8 757.6,194.0 758.8,187.3 760.0,180.9 761.2,174.2 762.4,167.4 763.6,160.7 764.8,154.0 766.0,149.3"/>
<line x1="606" y1="60" x2="628" y2="60" stroke="#24a148" stroke-width="2.2"/>
<text x="634" y="64" font-family="Arial" font-size="12">q_dps</text>
<polyline fill="none" stroke="#da1e28" stroke-width="2.2" points="54.0,160.0 55.2,160.7 56.4,161.6 57.6,162.5 58.8,163.4 60.0,164.3 61.2,165.3 62.4,166.2 63.6,167.0 64.8,167.8 66.0,168.5 67.2,169.1 68.4,169.6 69.6,169.9 70.8,170.2 72.0,170.3 73.2,170.2 74.4,170.0 75.6,169.6 76.8,169.0 78.0,168.3 79.2,167.4 80.4,166.3 81.6,165.1 82.8,163.8 84.0,162.3 85.2,160.7 86.4,159.1 87.6,157.4 88.8,155.8 90.0,154.1 91.2,152.4 92.4,150.9 93.6,149.4 94.8,148.2 96.0,147.1 97.2,146.2 98.4,145.6 99.6,145.3 100.8,145.3 102.0,145.6 103.2,146.3 104.4,147.4 105.6,148.7 106.8,150.3 108.0,152.1 109.2,153.9 110.4,155.8 111.6,157.5 112.8,159.0 114.0,160.2 115.2,161.0 116.4,161.1 117.6,160.7 118.8,159.8 120.0,158.6 121.2,157.5 122.4,156.8 123.6,156.7 124.8,156.9 126.0,157.1 127.2,157.4 128.4,156.6 129.6,154.3 130.8,150.7 132.0,145.8 133.2,140.0 134.4,133.3 135.6,126.5 136.8,119.8 138.0,113.1 139.2,106.4 140.4,99.6 141.6,92.9 142.8,86.2 144.1,79.5 145.3,74.1 146.5,70.3 147.7,67.2 148.9,64.2 150.1,60.0 151.3,54.3 152.5,54.0 153.7,54.0 154.9,54.0 156.1,54.0 157.3,54.0 158.5,54.0 159.7,54.0 160.9,54.0 162.1,54.0 163.3,54.0 164.5,54.0 165.7,54.0 166.9,54.0 168.1,54.0 169.3,54.0 170.5,54.0 171.7,54.0 172.9,54.0 174.1,54.0 175.3,54.0 176.5,54.0 177.7,54.0 178.9,54.0 180.1,54.0 181.3,54.0 182.5,54.0 183.7,54.0 184.9,54.0 186.1,54.0 187.3,54.0 188.5,54.0 189.7,54.0 190.9,54.0 192.1,54.0 193.3,54.0 194.5,54.0 195.7,54.0 196.9,54.0 198.1,54.0 199.3,54.0 200.5,54.0 201.7,54.0 202.9,54.0 204.1,54.0 205.3,54.0 206.5,54.0 207.7,54.0 208.9,54.0 210.1,54.0 211.3,54.0 212.5,54.0 213.7,54.0 214.9,54.0 216.1,54.2 217.3,54.7 218.5,54.9 219.7,54.0 220.9,54.0 222.1,54.0 223.3,54.0 224.5,54.0 225.7,54.0 226.9,54.0 228.1,54.0 229.3,54.0 230.5,54.5 231.7,59.1 232.9,65.8 234.1,72.5 235.3,79.2 236.5,86.0 237.7,92.7 238.9,98.3 240.1,101.7 241.3,103.0 242.5,102.5 243.7,100.7 244.9,100.3 246.1,101.6 247.3,104.8 248.5,110.2 249.7,116.9 250.9,123.6 252.1,130.4 253.3,137.1 254.5,143.8 255.7,150.6 256.9,157.3 258.1,164.0 259.3,170.7 260.5,177.5 261.7,184.2 262.9,189.8 264.1,194.3 265.3,197.6 266.5,199.9 267.7,203.3 268.9,208.1 270.1,214.8 271.3,221.6 272.5,228.3 273.7,235.0 274.9,241.7 276.1,248.5 277.3,255.2 278.5,261.9 279.7,266.0 280.9,266.0 282.1,266.0 283.3,266.0 284.5,266.0 285.7,266.0 286.9,266.0 288.1,266.0 289.3,266.0 290.5,266.0 291.7,266.0 292.9,266.0 294.1,266.0 295.3,266.0 296.5,266.0 297.7,266.0 298.9,266.0 300.1,264.7 301.3,262.9 302.5,260.5 303.7,257.7 304.9,254.4 306.1,250.6 307.3,246.4 308.5,242.4 309.7,240.6 310.9,241.4 312.1,244.8 313.3,250.5 314.5,256.6 315.7,263.2 316.9,266.0 318.1,266.0 319.3,266.0 320.5,266.0 321.8,266.0 323.0,266.0 324.2,266.0 325.4,264.1 326.6,261.6 327.8,259.0 329.0,256.2 330.2,253.1 331.4,249.5 332.6,245.4 333.8,240.7 335.0,235.5 336.2,230.6 337.4,226.5 338.6,222.9 339.8,219.5 341.0,215.9 342.2,211.7 343.4,206.6 344.6,200.6 345.8,193.9 347.0,187.2 348.2,180.4 349.4,173.7 350.6,167.0 351.8,160.2 353.0,153.5 354.2,146.8 355.4,140.1 356.6,133.3 357.8,126.6 359.0,119.9 360.2,114.1 361.4,111.5 362.6,111.8 363.8,114.0 365.0,116.2 366.2,118.4 367.4,120.4 368.6,122.2 369.8,123.7 371.0,124.4 372.2,124.2 373.4,123.2 374.6,121.0 375.8,116.6 377.0,110.0 378.2,103.2 379.4,96.5 380.6,89.8 381.8,83.1 383.0,76.3 384.2,69.6 385.4,63.9 386.6,60.7 387.8,60.2 389.0,62.5 390.2,66.7 391.4,72.0 392.6,78.0 393.8,84.2 395.0,90.3 396.2,95.4 397.4,98.7 398.6,99.9 399.8,99.0 401.0,96.2 402.2,91.5 403.4,85.2 404.6,78.5 405.8,71.8 407.0,65.0 408.2,58.6 409.4,54.1 410.6,54.0 411.8,54.7 413.0,56.7 414.2,59.6 415.4,63.6 416.6,68.4 417.8,74.0 419.0,79.9 420.2,85.3 421.4,89.1 422.6,91.1 423.8,91.2 425.0,89.2 426.2,85.2 427.4,79.7 428.6,73.4 429.8,66.6 431.0,59.9 432.2,54.0 433.4,54.0 434.6,54.0 435.8,54.0 437.0,55.2 438.2,57.1 439.4,59.6 440.6,62.7 441.8,66.3 443.0,70.2 444.2,74.5 445.4,78.9 446.6,82.8 447.8,84.9 449.0,85.3 450.2,84.2 451.4,81.5 452.6,77.4 453.8,72.4 455.0,66.9 456.2,61.0 457.4,54.7 458.6,54.0 459.8,54.0 461.0,54.0 462.2,54.0 463.4,54.4 464.6,57.1 465.8,60.2 467.0,63.5 468.2,66.8 469.4,70.0 470.6,73.1 471.8,76.0 473.0,78.7 474.2,81.5 475.4,84.2 476.6,86.3 477.8,87.8 479.0,88.8 480.2,89.5 481.4,89.9 482.6,90.4 483.8,90.9 485.0,91.8 486.2,93.1 487.4,94.6 488.6,96.8 489.8,100.0 491.0,104.3 492.2,110.1 493.4,116.8 494.6,123.5 495.8,130.3 497.0,137.0 498.2,143.7 499.5,150.4 500.7,157.2 501.9,163.9 503.1,170.6 504.3,177.3 505.5,184.0 506.7,189.5 507.9,193.9 509.1,197.4 510.3,200.0 511.5,202.1 512.7,204.0 513.9,206.0 515.1,208.5 516.3,211.8 517.5,217.2 518.7,223.9 519.9,230.6 521.1,237.3 522.3,244.1 523.5,250.8 524.7,257.5 525.9,264.2 527.1,266.0 528.3,266.0 529.5,266.0 530.7,266.0 531.9,266.0 533.1,265.3 534.3,263.8 535.5,261.6 536.7,258.7 537.9,255.1 539.1,251.0 540.3,247.1 541.5,244.1 542.7,242.0 543.9,241.0 545.1,241.0 546.3,241.6 547.5,242.8 548.7,243.8 549.9,244.6 551.1,245.2 552.3,245.5 553.5,245.0 554.7,243.1 555.9,239.3 557.1,233.7 558.3,227.0 559.5,220.3 560.7,213.6 561.9,206.8 563.1,200.1 564.3,193.4 565.5,186.6 566.7,179.9 567.9,173.2 569.1,166.5 570.3,159.7 571.5,153.0 572.7,146.3 573.9,140.5 575.1,136.0 576.3,132.4 577.5,129.8 578.7,127.9 579.9,126.8 581.1,126.5 582.3,126.8 583.5,127.8 584.7,129.5 585.9,132.0 587.1,135.1 588.3,138.8 589.5,143.1 590.7,147.9 591.9,153.2 593.1,159.3 594.3,165.3 595.5,171.1 596.7,176.4 597.9,181.1 599.1,185.1 600.3,188.4 601.5,190.9 602.7,192.6 603.9,193.3 605.1,193.2 606.3,191.9 607.5,188.9 608.7,183.5 609.9,176.8 611.1,170.1 612.3,163.4 613.5,156.6 614.7,149.9 615.9,143.2 617.1,136.5 618.3,129.7 619.5,124.0 620.7,119.1 621.9,115.2 623.1,112.5 624.3,110.9 625.5,110.5 626.7,111.3 627.9,113.4 629.1,115.9 630.3,118.2 631.5,120.2 632.7,122.0 633.9,124.9 635.1,128.6 636.3,132.8 637.5,137.0 638.7,142.2 639.9,148.6 641.1,155.3 642.3,162.0 643.5,168.8 644.7,175.5 645.9,182.2 647.1,189.0 648.3,195.7 649.5,202.4 650.7,209.1 651.9,214.0 653.1,216.3 654.3,215.9 655.5,212.9 656.7,207.5 657.9,200.8 659.1,194.1 660.3,187.3 661.5,180.6 662.7,174.4 663.9,170.4 665.1,168.7 666.3,169.4 667.5,172.2 668.7,176.5 669.9,180.9 671.1,185.3 672.3,188.9 673.5,191.3 674.7,192.4 675.9,191.3 677.2,187.9 678.4,182.3 679.6,175.6 680.8,168.9 682.0,162.2 683.2,155.4 684.4,148.7 685.6,142.0 686.8,135.2 688.0,128.5 689.2,123.2 690.4,119.0 691.6,116.1 692.8,114.4 694.0,112.5 695.2,110.7 696.4,109.6 697.6,108.6 698.8,107.0 700.0,104.9 701.2,102.3 702.4,100.2 703.6,99.4 704.8,99.9 706.0,101.7 707.2,104.0 708.4,107.4 709.6,112.0 710.8,117.9 712.0,124.6 713.2,131.4 714.4,138.1 715.6,144.8 716.8,151.6 718.0,158.3 719.2,163.3 720.4,166.3 721.6,167.4 722.8,166.5 724.0,163.8 725.2,160.0 726.4,155.0 727.6,148.8 728.8,142.2 730.0,136.3 731.2,131.4 732.4,128.0 733.6,126.1 734.8,126.2 736.0,127.2 737.2,129.4 738.4,132.8 739.6,136.2 740.8,138.8 742.0,140.4 743.2,140.8 744.4,138.8 745.6,134.3 746.8,127.6 748.0,120.9 749.2,114.1 750.4,107.4 751.6,100.7 752.8,93.9 754.0,87.2 755.2,82.5 756.4,79.3 757.6,77.2 758.8,76.1 760.0,76.2 761.2,77.2 762.4,79.4 763.6,81.9 764.8,83.5 766.0,84.2"/>
<line x1="606" y1="78" x2="628" y2="78" stroke="#da1e28" stroke-width="2.2"/>
<text x="634" y="82" font-family="Arial" font-size="12">r_dps</text>
</svg>