<svg xmlns="http://www.w3.org/2000/svg" width="820" height="320" viewBox="0 0 820 320">
<rect width="100%" height="100%" fill="#ffffff"/>
<text x="54" y="28" font-family="Arial" font-size="18" font-weight="700">Alpha/Beta</text>
<line x1="54" y1="266" x2="766" y2="266" stroke="#1f2933"/>
<line x1="54" y1="54" x2="54" y2="266" stroke="#1f2933"/>
<text x="54" y="306" font-family="Arial" font-size="12">time (s)</text>
<text x="596" y="306" font-family="Arial" font-size="12">angle (deg)</text>
<text x="58" y="68" font-family="Arial" font-size="11">35</text>
<text x="58" y="260" font-family="Arial" font-size="11">-35</text>
<polyline fill="none" stroke="#0f62fe" stroke-width="2.2" points="54.0,155.8 55.2,154.7 56.4,154.1 57.6,154.2 58.8,154.4 60.0,154.5 61.2,154.4 62.4,154.3 63.6,154.1 64.8,153.9 66.0,153.6 67.2,153.3 68.4,152.8 69.6,152.3 70.8,151.6 72.0,150.9 73.2,150.1 74.4,149.2 75.6,148.2 76.8,147.2 78.0,146.3 79.2,145.3 80.4,144.4 81.6,143.6 82.8,143.0 84.0,142.5 85.2,142.2 86.4,142.1 87.6,142.3 88.8,142.6 90.0,143.2 91.2,144.0 92.4,145.0 93.6,146.2 94.8,147.6 96.0,149.3 97.2,151.2 98.4,153.5 99.6,156.1 100.8,159.0 102.0,162.4 103.2,166.3 104.4,170.6 105.6,175.2 106.8,180.0 108.0,184.5 109.2,188.3 110.4,191.2 111.6,192.7 112.8,192.2 114.0,189.1 115.2,182.7 116.4,173.1 117.6,160.6 118.8,145.8 120.0,130.4 121.2,116.3 122.4,103.7 123.6,92.8 124.8,84.0 126.0,77.8 127.2,75.6 128.4,79.0 129.6,90.5 130.8,113.9 132.0,152.6 133.2,197.3 134.4,237.8 135.6,266.0 136.8,266.0 138.0,266.0 139.2,266.0 140.4,266.0 141.6,266.0 142.8,266.0 144.1,266.0 145.3,266.0 146.5,266.0 147.7,266.0 148.9,266.0 150.1,266.0 151.3,266.0 152.5,266.0 153.7,266.0 154.9,266.0 156.1,266.0 157.3,266.0 158.5,266.0 159.7,266.0 160.9,266.0 162.1,266.0 163.3,266.0 164.5,266.0 165.7,266.0 166.9,266.0 168.1,266.0 169.3,247.1 170.5,226.6 171.7,212.4 172.9,208.3 174.1,223.8 175.3,266.0 176.5,266.0 177.7,266.0 178.9,266.0 180.1,266.0 181.3,266.0 182.5,266.0 183.7,266.0 184.9,266.0 186.1,258.4 187.3,218.2 188.5,183.4 189.7,157.2 190.9,145.4 192.1,165.1 193.3,266.0 194.5,266.0 195.7,266.0 196.9,266.0 198.1,266.0 199.3,266.0 200.5,266.0 201.7,266.0 202.9,266.0 204.1,266.0 205.3,228.5 206.5,182.5 207.7,141.1 208.9,105.5 210.1,69.3 211.3,54.0 212.5,54.0 213.7,54.0 214.9,266.0 216.1,266.0 217.3,266.0 218.5,266.0 219.7,266.0 220.9,266.0 222.1,266.0 223.3,266.0 224.5,266.0 225.7,266.0 226.9,256.1 228.1,208.9 229.3,165.1 230.5,117.3 231.7,61.7 232.9,54.0 234.1,54.0 235.3,54.0 236.5,54.0 237.7,54.0 238.9,54.0 240.1,54.0 241.3,54.0 242.5,54.0 243.7,54.0 244.9,266.0 246.1,266.0 247.3,266.0 248.5,266.0 249.7,266.0 250.9,266.0 252.1,266.0 253.3,226.2 254.5,163.3 255.7,99.0 256.9,54.0 258.1,54.0 259.3,54.0 260.5,54.0 261.7,54.0 262.9,54.0 264.1,54.0 265.3,266.0 266.5,266.0 267.7,266.0 268.9,266.0 270.1,266.0 271.3,266.0 272.5,266.0 273.7,266.0 274.9,222.7 276.1,161.0 277.3,115.3 278.5,80.4 279.7,54.0 280.9,54.0 282.1,54.0 283.3,266.0 284.5,266.0 285.7,266.0 286.9,266.0 288.1,266.0 289.3,266.0 290.5,266.0 291.7,266.0 292.9,266.0 294.1,197.8 295.3,143.0 296.5,105.7 297.7,75.6 298.9,54.0 300.1,54.0 301.3,54.0 302.5,54.0 303.7,54.0 304.9,266.0 306.1,266.0 307.3,266.0 308.5,266.0 309.7,266.0 310.9,266.0 312.1,266.0 313.3,266.0 314.5,266.0 315.7,266.0 316.9,189.8 318.1,125.3 319.3,97.7 320.5,79.7 321.8,64.4 323.0,54.0 324.2,54.0 325.4,54.0 326.6,54.0 327.8,54.0 329.0,54.0 330.2,54.0 331.4,54.0 332.6,54.0 333.8,54.0 335.0,54.0 336.2,54.0 337.4,54.0 338.6,54.0 339.8,54.0 341.0,54.0 342.2,54.0 343.4,54.0 344.6,54.0 345.8,54.0 347.0,54.0 348.2,54.0 349.4,54.0 350.6,54.0 351.8,54.0 353.0,118.6 354.2,243.7 355.4,266.0 356.6,266.0 357.8,266.0 359.0,266.0 360.2,266.0 361.4,266.0 362.6,266.0 363.8,266.0 365.0,266.0 366.2,266.0 367.4,266.0 368.6,54.0 369.8,54.0 371.0,54.0 372.2,54.0 373.4,54.0 374.6,54.0 375.8,54.0 377.0,54.0 378.2,54.0 379.4,54.0 380.6,54.0 381.8,54.0 383.0,93.0 384.2,121.6 385.4,138.0 386.6,142.4 387.8,134.4 389.0,112.1 390.2,72.9 391.4,54.0 392.6,54.0 393.8,54.0 395.0,54.0 396.2,54.0 397.4,54.0 398.6,54.0 399.8,54.0 401.0,54.0 402.2,54.0 403.4,54.0 404.6,54.0 405.8,56.1 407.0,84.1 408.2,102.5 409.4,110.1 410.6,106.0 411.8,88.0 413.0,54.0 414.2,54.0 415.4,54.0 416.6,54.0 417.8,54.0 419.0,54.0 420.2,54.0 421.4,54.0 422.6,54.0 423.8,54.0 425.0,54.0 426.2,54.0 427.4,54.0 428.6,54.0 429.8,54.0 431.0,90.0 432.2,122.4 433.4,141.7 434.6,150.6 435.8,149.3 437.0,135.6 438.2,101.7 439.4,54.0 440.6,54.0 441.8,54.0 443.0,54.0 444.2,54.0 445.4,54.0 446.6,54.0 447.8,54.0 449.0,54.0 450.2,54.0 451.4,54.0 452.6,54.0 453.8,54.0 455.0,54.0 456.2,54.0 457.4,61.4 458.6,99.2 459.8,121.8 461.0,133.3 462.2,135.9 463.4,129.9 464.6,113.6 465.8,81.3 467.0,54.0 468.2,54.0 469.4,54.0 470.6,54.0 471.8,54.0 473.0,54.0 474.2,54.0 475.4,54.0 476.6,54.0 477.8,54.0 479.0,54.0 480.2,54.0 481.4,54.0 482.6,54.0 483.8,54.0 485.0,54.0 486.2,54.0 487.4,54.0 488.6,54.0 489.8,54.0 491.0,54.0 492.2,54.0 493.4,54.0 494.6,80.8 495.8,143.3 497.0,218.6 498.2,266.0 499.5,266.0 500.7,266.0 501.9,266.0 503.1,266.0 504.3,266.0 505.5,266.0 506.7,266.0 507.9,266.0 509.1,266.0 510.3,266.0 511.5,266.0 512.7,266.0 513.9,266.0 515.1,54.0 516.3,54.0 517.5,54.0 518.7,54.0 519.9,54.0 521.1,54.0 522.3,54.0 523.5,54.0 524.7,230.1 525.9,266.0 527.1,266.0 528.3,266.0 529.5,266.0 530.7,266.0 531.9,266.0 533.1,266.0 534.3,266.0 535.5,266.0 536.7,266.0 537.9,266.0 539.1,266.0 540.3,266.0 541.5,266.0 542.7,266.0 543.9,266.0 545.1,266.0 546.3,266.0 547.5,266.0 548.7,266.0 549.9,266.0 551.1,266.0 552.3,266.0 553.5,266.0 554.7,266.0 555.9,266.0 557.1,266.0 558.3,266.0 559.5,266.0 560.7,234.8 561.9,168.3 563.1,75.2 564.3,54.0 565.5,54.0 566.7,54.0 567.9,54.0 569.1,54.0 570.3,54.0 571.5,54.0 572.7,54.0 573.9,54.0 575.1,54.0 576.3,54.0 577.5,54.0 578.7,54.0 579.9,54.0 581.1,54.0 582.3,54.0 583.5,54.0 584.7,54.0 585.9,54.0 587.1,54.0 588.3,54.0 589.5,54.0 590.7,54.0 591.9,54.0 593.1,54.0 594.3,54.0 595.5,54.0 596.7,54.0 597.9,54.0 599.1,54.0 600.3,250.1 601.5,266.0 602.7,266.0 603.9,266.0 605.1,266.0 606.3,266.0 607.5,266.0 608.7,250.3 609.9,219.6 611.1,181.9 612.3,139.7 613.5,99.3 614.7,65.6 615.9,54.0 617.1,54.0 618.3,54.0 619.5,54.0 620.7,54.0 621.9,54.0 623.1,266.0 624.3,266.0 625.5,266.0 626.7,266.0 627.9,266.0 629.1,266.0 630.3,266.0 631.5,266.0 632.7,266.0 633.9,266.0 635.1,266.0 636.3,54.0 637.5,54.0 638.7,54.0 639.9,54.0 641.1,54.0 642.3,54.0 643.5,54.0 644.7,54.0 645.9,54.0 647.1,83.9 648.3,133.5 649.5,175.3 650.7,203.1 651.9,217.4 653.1,220.3 654.3,212.0 655.5,191.0 656.7,155.6 657.9,108.2 659.1,60.3 660.3,54.0 661.5,54.0 662.7,54.0 663.9,54.0 665.1,54.0 666.3,54.0 667.5,54.0 668.7,57.0 669.9,106.3 671.1,157.8 672.3,197.4 673.5,221.5 674.7,232.4 675.9,232.5 677.2,223.2 678.4,204.8 679.6,178.2 680.8,145.9 682.0,111.9 683.2,81.7 684.4,57.5 685.6,54.0 686.8,54.0 688.0,54.0 689.2,54.0 690.4,85.2 691.6,230.2 692.8,266.0 694.0,266.0 695.2,266.0 696.4,266.0 697.6,266.0 698.8,266.0 700.0,266.0 701.2,266.0 702.4,266.0 703.6,266.0 704.8,235.3 706.0,129.6 707.2,89.6 708.4,79.5 709.6,83.9 710.8,98.3 712.0,120.2 713.2,146.4 714.4,173.1 715.6,197.9 716.8,218.4 718.0,232.9 719.2,240.3 720.4,239.8 721.6,230.6 722.8,211.9 724.0,184.1 725.2,150.8 726.4,117.6 727.6,89.6 728.8,69.0 730.0,55.3 731.2,54.0 732.4,54.0 733.6,54.0 734.8,67.4 736.0,104.6 737.2,172.2 738.4,250.4 739.6,266.0 740.8,266.0 742.0,266.0 743.2,266.0 744.4,266.0 745.6,266.0 746.8,266.0 748.0,247.9 749.2,204.0 750.4,160.8 751.6,125.9 752.8,102.6 754.0,89.4 755.2,87.6 756.4,106.1 757.6,188.5 758.8,266.0 760.0,266.0 761.2,266.0 762.4,266.0 763.6,266.0 764.8,266.0 766.0,266.0"/>
<line x1="606" y1="42" x2="628" y2="42" stroke="#0f62fe" stroke-width="2.2"/>
<text x="634" y="46" font-family="Arial" font-size="12">alpha_deg</text>
<polyline fill="none" stroke="#24a148" stroke-width="2.2" points="54.0,181.2 55.2,181.0 56.4,180.5 57.6,179.5 58.8,178.1 60.0,176.3 61.2,174.0 62.4,171.4 63.6,168.3 64.8,164.9 66.0,161.3 67.2,157.3 68.4,153.2 69.6,148.9 70.8,144.6 72.0,140.2 73.2,135.9 74.4,131.8 75.6,127.8 76.8,124.2 78.0,120.9 79.2,118.0 80.4,115.7 81.6,113.9 82.8,112.7 84.0,112.1 85.2,112.2 86.4,113.1 87.6,114.7 88.8,117.0 90.0,120.1 91.2,123.8 92.4,128.2 93.6,133.3 94.8,138.9 96.0,144.9 97.2,151.3 98.4,157.9 99.6,164.6 100.8,171.1 102.0,177.3 103.2,182.9 104.4,187.7 105.6,191.5 106.8,194.1 108.0,195.3 109.2,195.1 110.4,193.4 111.6,190.5 112.8,186.7 114.0,182.3 115.2,178.2 116.4,175.1 117.6,173.9 118.8,175.4 120.0,180.2 121.2,188.3 122.4,199.5 123.6,213.4 124.8,229.6 126.0,247.7 127.2,250.9 128.4,250.9 129.6,250.9 130.8,250.9 132.0,250.9 133.2,250.9 134.4,250.9 135.6,250.9 136.8,250.9 138.0,250.9 139.2,250.9 140.4,250.9 141.6,250.9 142.8,250.9 144.1,248.6 145.3,246.0 146.5,243.7 147.7,241.8 148.9,241.0 150.1,243.1 151.3,249.0 152.5,250.9 153.7,250.9 154.9,250.9 156.1,250.9 157.3,250.9 158.5,250.9 159.7,250.9 160.9,250.9 162.1,235.9 163.3,216.6 164.5,199.6 165.7,188.0 166.9,184.4 168.1,190.7 169.3,206.7 170.5,230.7 171.7,250.9 172.9,250.9 174.1,250.9 175.3,250.9 176.5,250.9 177.7,250.9 178.9,250.9 180.1,246.4 181.3,209.6 182.5,179.2 183.7,159.8 184.9,155.3 186.1,167.0 187.3,193.1 188.5,229.9 189.7,250.9 190.9,250.9 192.1,250.9 193.3,250.9 194.5,250.9 195.7,250.9 196.9,250.9 198.1,218.5 199.3,170.2 200.5,128.1 201.7,97.2 202.9,83.8 204.1,91.6 205.3,118.0 206.5,157.0 207.7,203.0 208.9,250.9 210.1,250.9 211.3,250.9 212.5,250.9 213.7,250.9 214.9,250.9 216.1,250.9 217.3,239.0 218.5,189.2 219.7,140.4 220.9,94.7 222.1,69.1 223.3,69.1 224.5,69.1 225.7,69.1 226.9,74.7 228.1,118.5 229.3,165.4 230.5,210.2 231.7,246.2 232.9,250.9 234.1,250.9 235.3,250.9 236.5,234.7 237.7,205.3 238.9,173.5 240.1,140.6 241.3,106.9 242.5,73.0 243.7,69.1 244.9,69.1 246.1,69.1 247.3,69.1 248.5,69.1 249.7,92.7 250.9,136.9 252.1,177.6 253.3,208.6 254.5,223.7 255.7,219.1 256.9,197.0 258.1,162.3 259.3,119.6 260.5,72.9 261.7,69.1 262.9,69.1 264.1,69.1 265.3,69.1 266.5,69.1 267.7,69.1 268.9,81.0 270.1,131.7 271.3,178.3 272.5,214.7 273.7,232.1 274.9,223.7 276.1,191.6 277.3,144.2 278.5,88.5 279.7,69.1 280.9,69.1 282.1,69.1 283.3,69.1 284.5,69.1 285.7,69.1 286.9,115.1 288.1,174.2 289.3,229.5 290.5,250.9 291.7,250.9 292.9,250.9 294.1,250.9 295.3,223.9 296.5,172.0 297.7,119.4 298.9,69.1 300.1,69.1 301.3,69.1 302.5,69.1 303.7,69.1 304.9,69.1 306.1,69.1 307.3,78.4 308.5,123.2 309.7,168.4 310.9,214.4 312.1,250.9 313.3,250.9 314.5,250.9 315.7,250.9 316.9,250.9 318.1,250.9 319.3,250.9 320.5,223.0 321.8,174.1 323.0,126.9 324.2,81.4 325.4,69.1 326.6,69.1 327.8,69.1 329.0,69.1 330.2,69.1 331.4,69.1 332.6,69.1 333.8,69.1 335.0,91.5 336.2,121.1 337.4,147.0 338.6,167.9 339.8,182.0 341.0,187.9 342.2,184.4 343.4,171.8 344.6,151.3 345.8,124.9 347.0,94.4 348.2,69.1 349.4,69.1 350.6,69.1 351.8,69.1 353.0,69.1 354.2,69.1 355.4,69.1 356.6,69.1 357.8,74.4 359.0,120.9 360.2,168.5 361.4,215.9 362.6,250.9 363.8,250.9 365.0,250.9 366.2,250.9 367.4,250.9 368.6,250.9 369.8,250.9 371.0,250.9 372.2,250.9 373.4,242.1 374.6,206.1 375.8,170.9 377.0,137.4 378.2,107.9 379.4,85.5 380.6,74.0 381.8,76.4 383.0,92.9 384.2,121.0 385.4,157.0 386.6,196.4 387.8,235.3 389.0,250.9 390.2,250.9 391.4,250.9 392.6,250.9 393.8,250.9 395.0,250.9 396.2,230.6 397.4,203.3 398.6,176.7 399.8,151.8 401.0,129.9 402.2,113.1 403.4,103.9 404.6,105.1 405.8,117.7 407.0,140.8 408.2,172.0 409.4,207.9 410.6,244.0 411.8,250.9 413.0,250.9 414.2,250.9 415.4,250.9 416.6,250.9 417.8,250.9 419.0,236.9 420.2,205.2 421.4,173.8 422.6,143.2 423.8,113.9 425.0,86.6 426.2,69.1 427.4,69.1 428.6,69.1 429.8,69.1 431.0,81.4 432.2,119.3 433.4,161.9 434.6,206.3 435.8,250.9 437.0,250.9 438.2,250.9 439.4,250.9 440.6,250.9 441.8,250.9 443.0,250.9 444.2,250.9 445.4,240.0 446.6,206.1 447.8,172.9 449.0,140.4 450.2,108.2 451.4,76.7 452.6,69.1 453.8,69.1 455.0,69.1 456.2,69.1 457.4,69.1 458.6,79.7 459.8,121.2 461.0,165.0 462.2,209.2 463.4,250.9 464.6,250.9 465.8,250.9 467.0,250.9 468.2,250.9 469.4,250.9 470.6,250.9 471.8,250.9 473.0,250.9 474.2,250.9 475.4,229.3 476.6,206.1 477.8,185.8 479.0,169.0 480.2,156.1 481.4,147.4 482.6,143.1 483.8,143.2 485.0,147.8 486.2,156.8 487.4,170.2 488.6,187.6 489.8,208.7 491.0,232.8 492.2,250.9 493.4,250.9 494.6,250.9 495.8,250.9 497.0,250.9 498.2,250.9 499.5,250.9 500.7,250.9 501.9,250.9 503.1,225.0 504.3,195.0 505.5,166.6 506.7,141.3 507.9,120.5 509.1,105.7 510.3,98.4 511.5,99.0 512.7,107.6 513.9,123.2 515.1,144.8 516.3,171.6 517.5,203.9 518.7,241.6 519.9,250.9 521.1,250.9 522.3,250.9 523.5,250.9 524.7,250.9 525.9,250.9 527.1,250.9 528.3,202.0 529.5,150.6 530.7,103.0 531.9,69.1 533.1,69.1 534.3,69.1 535.5,69.1 536.7,69.1 537.9,69.1 539.1,85.7 540.3,118.0 541.5,149.7 542.7,180.0 543.9,208.2 545.1,233.5 546.3,250.9 547.5,250.9 548.7,250.9 549.9,250.9 551.1,250.9 552.3,236.3 553.5,207.3 554.7,173.8 555.9,137.7 557.1,100.4 558.3,69.1 559.5,69.1 560.7,69.1 561.9,69.1 563.1,69.1 564.3,69.1 565.5,69.1 566.7,69.1 567.9,69.1 569.1,69.1 570.3,76.2 571.5,92.4 572.7,105.3 573.9,115.1 575.1,122.2 576.3,127.3 577.5,130.7 578.7,133.1 579.9,135.1 581.1,137.5 582.3,140.8 583.5,145.8 584.7,153.0 585.9,162.8 587.1,175.2 588.3,190.2 589.5,207.6 590.7,227.1 591.9,248.8 593.1,250.9 594.3,250.9 595.5,250.9 596.7,250.9 597.9,250.9 599.1,250.9 600.3,250.9 601.5,250.9 602.7,250.9 603.9,250.9 605.1,250.9 606.3,235.9 607.5,201.8 608.7,172.0 609.9,149.2 611.1,135.9 612.3,134.3 613.5,144.6 614.7,165.4 615.9,194.2 617.1,228.8 618.3,250.9 619.5,250.9 620.7,250.9 621.9,250.9 623.1,250.9 624.3,250.9 625.5,250.9 626.7,250.9 627.9,223.3 629.1,173.8 630.3,124.6 631.5,76.4 632.7,69.1 633.9,69.1 635.1,69.1 636.3,69.1 637.5,69.1 638.7,69.1 639.9,69.1 641.1,110.9 642.3,153.4 643.5,193.0 644.7,227.6 645.9,250.9 647.1,250.9 648.3,250.9 649.5,249.3 650.7,219.9 651.9,183.8 653.1,144.9 654.3,106.8 655.5,73.3 656.7,69.1 657.9,69.1 659.1,69.1 660.3,69.1 661.5,91.2 662.7,124.1 663.9,159.3 665.1,194.9 666.3,229.4 667.5,250.9 668.7,250.9 669.9,250.9 671.1,250.9 672.3,250.9 673.5,247.4 674.7,216.5 675.9,184.9 677.2,155.9 678.4,132.6 679.6,117.9 680.8,114.0 682.0,122.0 683.2,140.9 684.4,168.7 685.6,203.2 686.8,242.4 688.0,250.9 689.2,250.9 690.4,250.9 691.6,250.9 692.8,250.9 694.0,250.9 695.2,250.9 696.4,233.3 697.6,185.3 698.8,137.3 700.0,89.5 701.2,69.1 702.4,69.1 703.6,69.1 704.8,69.1 706.0,69.1 707.2,69.1 708.4,69.1 709.6,80.9 710.8,115.1 712.0,142.8 713.2,162.2 714.4,172.2 715.6,172.7 716.8,164.2 718.0,148.5 719.2,128.0 720.4,105.6 721.6,83.8 722.8,69.1 724.0,69.1 725.2,69.1 726.4,69.1 727.6,82.5 728.8,109.3 730.0,141.3 731.2,176.7 732.4,214.0 733.6,250.9 734.8,250.9 736.0,250.9 737.2,250.9 738.4,250.9 739.6,250.9 740.8,250.9 742.0,245.7 743.2,208.6 744.4,172.9 745.6,141.4 746.8,117.5 748.0,105.0 749.2,107.4 750.4,125.2 751.6,156.1 752.8,195.9 754.0,241.7 755.2,250.9 756.4,250.9 757.6,250.9 758.8,250.9 760.0,250.9 761.2,250.9 762.4,227.7 763.6,171.5 764.8,115.3 766.0,69.1"/>
<line x1="606" y1="60" x2="628" y2="60" stroke="#24a148" stroke-width="2.2"/>
<text x="634" y="64" font-family="Arial" font-size="12">beta_deg</text>
</svg>