<svg xmlns="http://www.w3.org/2000/svg" width="820" height="320" viewBox="0 0 820 320">
<rect width="100%" height="100%" fill="#ffffff"/>
<text x="54" y="28" font-family="Arial" font-size="18" font-weight="700">Mach Number</text>
<line x1="54" y1="266" x2="766" y2="266" stroke="#1f2933"/>
<line x1="54" y1="54" x2="54" y2="266" stroke="#1f2933"/>
<text x="54" y="306" font-family="Arial" font-size="12">time (s)</text>
<text x="596" y="306" font-family="Arial" font-size="12">Mach</text>
<text x="58" y="68" font-family="Arial" font-size="11">0.359</text>
<text x="58" y="260" font-family="Arial" font-size="11">0.201</text>
<polyline fill="none" stroke="#0f62fe" stroke-width="2.2" points="54.0,180.8 55.2,179.1 56.4,177.3 57.6,175.4 58.8,173.5 60.0,171.6 61.2,169.6 62.4,167.5 63.6,165.4 64.8,163.3 66.0,161.1 67.2,158.8 68.4,156.5 69.6,154.2 70.8,151.8 72.0,149.4 73.2,147.0 74.4,144.6 75.6,142.3 76.8,139.9 78.0,137.6 79.2,135.3 80.4,133.1 81.6,130.9 82.8,128.6 84.0,126.5 85.2,124.3 86.4,122.1 87.6,119.9 88.8,117.7 90.0,115.5 91.2,113.3 92.4,111.0 93.6,108.7 94.8,106.3 96.0,103.9 97.2,101.5 98.4,99.0 99.6,96.5 100.8,93.9 102.0,91.4 103.2,88.8 104.4,86.3 105.6,83.9 106.8,81.6 108.0,79.3 109.2,77.2 110.4,75.2 111.6,73.3 112.8,71.4 114.0,69.5 115.2,67.5 116.4,65.3 117.6,62.9 118.8,60.5 120.0,58.2 121.2,56.2 122.4,54.9 123.6,54.3 124.8,54.0 126.0,54.0 127.2,54.4 128.4,55.1 129.6,55.9 130.8,56.8 132.0,57.3 133.2,57.1 134.4,57.5 135.6,58.2 136.8,59.1 138.0,60.0 139.2,60.8 140.4,61.5 141.6,62.1 142.8,62.6 144.1,63.0 145.3,63.4 146.5,63.9 147.7,64.4 148.9,64.9 150.1,65.4 151.3,65.8 152.5,66.2 153.7,66.6 154.9,67.1 156.1,67.6 157.3,68.2 158.5,69.0 159.7,70.0 160.9,71.2 162.1,72.4 163.3,73.5 164.5,74.3 165.7,74.9 166.9,75.1 168.1,75.0 169.3,74.5 170.5,73.8 171.7,73.1 172.9,72.7 174.1,72.5 175.3,72.8 176.5,73.8 177.7,75.4 178.9,77.3 180.1,79.4 181.3,81.5 182.5,83.0 183.7,84.0 184.9,84.4 186.1,84.1 187.3,83.1 188.5,81.7 189.7,79.9 190.9,78.3 192.1,77.6 193.3,77.5 194.5,78.8 195.7,80.8 196.9,83.4 198.1,86.1 199.3,88.7 200.5,90.9 201.7,92.8 202.9,94.1 204.1,94.8 205.3,94.4 206.5,93.2 207.7,90.6 208.9,88.2 210.1,87.4 211.3,87.7 212.5,89.0 213.7,91.0 214.9,93.5 216.1,96.2 217.3,99.4 218.5,102.7 219.7,106.0 220.9,109.3 222.1,112.5 223.3,115.4 224.5,117.7 225.7,119.1 226.9,119.5 228.1,118.9 229.3,117.2 230.5,114.4 231.7,112.5 232.9,112.1 234.1,112.7 235.3,114.3 236.5,116.7 237.7,119.6 238.9,122.7 240.1,126.1 241.3,129.6 242.5,133.3 243.7,137.1 244.9,140.6 246.1,143.7 247.3,146.6 248.5,148.9 249.7,150.6 250.9,151.3 252.1,151.0 253.3,149.8 254.5,148.1 255.7,145.6 256.9,144.2 258.1,143.3 259.3,143.0 260.5,143.5 261.7,144.7 262.9,146.5 264.1,148.7 265.3,151.0 266.5,153.2 267.7,155.7 268.9,158.2 270.1,160.4 271.3,161.9 272.5,162.7 273.7,162.8 274.9,161.9 276.1,160.0 277.3,157.0 278.5,154.7 279.7,153.5 280.9,153.4 282.1,154.2 283.3,155.7 284.5,157.6 285.7,160.1 286.9,162.8 288.1,165.4 289.3,167.7 290.5,169.6 291.7,170.9 292.9,171.2 294.1,170.5 295.3,168.7 296.5,165.9 297.7,163.7 298.9,162.0 300.1,161.4 301.3,161.6 302.5,162.6 303.7,164.4 304.9,166.6 306.1,169.0 307.3,171.7 308.5,174.6 309.7,177.5 310.9,180.3 312.1,182.9 313.3,185.5 314.5,187.5 315.7,188.8 316.9,189.3 318.1,188.6 319.3,187.2 320.5,185.7 321.8,183.9 323.0,182.0 324.2,180.3 325.4,179.2 326.6,178.8 327.8,179.0 329.0,179.7 330.2,181.0 331.4,182.8 332.6,184.9 333.8,187.3 335.0,190.0 336.2,192.7 337.4,195.4 338.6,198.3 339.8,201.1 341.0,203.8 342.2,206.4 343.4,208.6 344.6,210.3 345.8,211.6 347.0,212.5 348.2,213.2 349.4,213.8 350.6,214.3 351.8,214.5 353.0,214.6 354.2,214.1 355.4,213.7 356.6,213.3 357.8,212.9 359.0,212.4 360.2,211.7 361.4,211.0 362.6,210.4 363.8,210.2 365.0,210.3 366.2,210.6 367.4,211.2 368.6,212.0 369.8,213.3 371.0,215.1 372.2,217.1 373.4,219.1 374.6,221.1 375.8,222.9 377.0,224.3 378.2,225.3 379.4,225.8 380.6,225.9 381.8,225.5 383.0,224.4 384.2,222.8 385.4,220.3 386.6,217.5 387.8,214.7 389.0,212.4 390.2,210.9 391.4,210.2 392.6,210.0 393.8,210.5 395.0,211.3 396.2,212.4 397.4,213.6 398.6,214.6 399.8,215.6 401.0,216.3 402.2,216.7 403.4,216.6 404.6,216.1 405.8,214.9 407.0,213.2 408.2,211.1 409.4,208.8 410.6,206.3 411.8,204.3 413.0,202.9 414.2,202.0 415.4,201.8 416.6,202.2 417.8,203.1 419.0,204.4 420.2,206.0 421.4,207.6 422.6,209.1 423.8,210.6 425.0,211.9 426.2,213.0 427.4,213.7 428.6,213.8 429.8,213.2 431.0,211.8 432.2,209.8 433.4,206.7 434.6,203.2 435.8,199.7 437.0,196.7 438.2,194.4 439.4,193.2 440.6,192.7 441.8,193.0 443.0,194.0 444.2,195.5 445.4,197.5 446.6,199.7 447.8,202.0 449.0,204.3 450.2,206.5 451.4,208.6 452.6,210.5 453.8,212.0 455.0,212.9 456.2,213.1 457.4,212.5 458.6,211.1 459.8,209.0 461.0,206.0 462.2,202.7 463.4,199.5 464.6,196.9 465.8,195.2 467.0,194.4 468.2,194.3 469.4,194.9 470.6,196.1 471.8,197.9 473.0,200.0 474.2,202.5 475.4,205.1 476.6,207.8 477.8,210.3 479.0,212.7 480.2,214.9 481.4,216.9 482.6,218.6 483.8,220.0 485.0,221.2 486.2,222.1 487.4,222.7 488.6,222.9 489.8,222.9 491.0,222.7 492.2,222.2 493.4,221.5 494.6,220.6 495.8,219.5 497.0,217.8 498.2,216.7 499.5,216.0 500.7,215.6 501.9,215.6 503.1,215.8 504.3,216.3 505.5,217.0 506.7,218.0 507.9,219.4 509.1,221.1 510.3,223.1 511.5,225.5 512.7,227.9 513.9,230.5 515.1,233.0 516.3,235.7 517.5,238.4 518.7,241.1 519.9,243.6 521.1,245.7 522.3,247.3 523.5,248.0 524.7,247.9 525.9,246.9 527.1,245.5 528.3,243.8 529.5,242.0 530.7,240.4 531.9,239.3 533.1,239.0 534.3,239.3 535.5,240.2 536.7,241.6 537.9,243.4 539.1,245.4 540.3,247.5 541.5,249.6 542.7,251.8 543.9,253.8 545.1,255.8 546.3,257.7 547.5,259.3 548.7,260.6 549.9,261.5 551.1,261.9 552.3,261.9 553.5,261.4 554.7,260.4 555.9,259.0 557.1,257.4 558.3,255.7 559.5,254.0 560.7,252.3 561.9,250.7 563.1,248.9 564.3,248.0 565.5,247.5 566.7,247.5 567.9,247.9 569.1,248.7 570.3,249.8 571.5,251.1 572.7,252.6 573.9,254.3 575.1,256.0 576.3,256.1 577.5,256.1 578.7,256.1 579.9,256.2 581.1,256.3 582.3,256.3 583.5,256.4 584.7,256.6 585.9,256.8 587.1,257.0 588.3,257.2 589.5,257.5 590.7,257.9 591.9,258.3 593.1,258.9 594.3,259.5 595.5,260.1 596.7,260.7 597.9,261.3 599.1,261.9 600.3,262.4 601.5,262.7 602.7,263.1 603.9,263.6 605.1,264.1 606.3,264.5 607.5,264.8 608.7,264.9 609.9,264.9 611.1,264.8 612.3,264.4 613.5,263.9 614.7,263.9 615.9,264.0 617.1,264.2 618.3,264.5 619.5,264.8 620.7,265.2 621.9,265.5 623.1,265.7 624.3,265.7 625.5,265.8 626.7,265.9 627.9,266.0 629.1,265.9 630.3,265.7 631.5,265.5 632.7,265.4 633.9,265.3 635.1,265.2 636.3,265.0 637.5,265.0 638.7,265.2 639.9,265.4 641.1,265.5 642.3,265.6 643.5,265.6 644.7,265.5 645.9,265.5 647.1,265.5 648.3,265.4 649.5,264.8 650.7,264.1 651.9,263.6 653.1,263.0 654.3,262.5 655.5,262.0 656.7,261.5 657.9,260.8 659.1,260.6 660.3,260.5 661.5,260.5 662.7,260.5 663.9,260.4 665.1,260.3 666.3,260.1 667.5,260.0 668.7,259.9 669.9,259.7 671.1,259.3 672.3,258.5 673.5,257.9 674.7,257.4 675.9,256.9 677.2,256.4 678.4,255.8 679.6,255.2 680.8,254.3 682.0,253.4 683.2,252.8 684.4,252.4 685.6,252.1 686.8,251.9 688.0,251.9 689.2,251.9 690.4,251.9 691.6,251.9 692.8,251.6 694.0,251.5 695.2,251.6 696.4,251.6 697.6,251.6 698.8,251.5 700.0,251.4 701.2,251.5 702.4,251.7 703.6,252.0 704.8,252.2 706.0,252.3 707.2,252.2 708.4,252.5 709.6,252.9 710.8,253.1 712.0,253.1 713.2,252.8 714.4,252.1 715.6,251.5 716.8,251.1 718.0,251.0 719.2,250.9 720.4,250.8 721.6,250.9 722.8,251.0 724.0,251.1 725.2,250.9 726.4,250.5 727.6,250.5 728.8,250.6 730.0,250.7 731.2,250.7 732.4,250.7 733.6,250.8 734.8,251.0 736.0,251.2 737.2,251.3 738.4,250.9 739.6,251.0 740.8,251.2 742.0,251.4 743.2,251.5 744.4,251.6 745.6,251.5 746.8,251.4 748.0,251.2 749.2,251.0 750.4,250.6 751.6,249.6 752.8,248.9 754.0,248.6 755.2,248.6 756.4,248.7 757.6,248.8 758.8,248.6 760.0,248.7 761.2,248.8 762.4,248.9 763.6,248.8 764.8,248.6 766.0,248.3"/>
<line x1="606" y1="42" x2="628" y2="42" stroke="#0f62fe" stroke-width="2.2"/>
<text x="634" y="46" font-family="Arial" font-size="12">mach</text>
</svg>