<svg xmlns="http://www.w3.org/2000/svg" width="820" height="320" viewBox="0 0 820 320">
<rect width="100%" height="100%" fill="#ffffff"/>
<text x="54" y="28" font-family="Arial" font-size="18" font-weight="700">Wind Components</text>
<line x1="54" y1="266" x2="766" y2="266" stroke="#1f2933"/>
<line x1="54" y1="54" x2="54" y2="266" stroke="#1f2933"/>
<text x="54" y="306" font-family="Arial" font-size="12">time (s)</text>
<text x="596" y="306" font-family="Arial" font-size="12">wind (m/s)</text>
<text x="58" y="68" font-family="Arial" font-size="11">11</text>
<text x="58" y="260" font-family="Arial" font-size="11">-4.83</text>
<polyline fill="none" stroke="#0f62fe" stroke-width="2.2" points="54.0,230.2 55.2,229.6 56.4,229.0 57.6,228.5 58.8,228.1 60.0,227.6 61.2,227.3 62.4,227.0 63.6,226.7 64.8,226.6 66.0,226.4 67.2,226.4 68.4,226.3 69.6,226.4 70.8,226.5 72.0,226.6 73.2,226.9 74.4,227.1 75.6,227.5 76.8,227.8 78.0,228.3 79.2,228.8 80.4,229.3 81.6,229.9 82.8,230.5 84.0,231.1 85.2,231.8 86.4,232.6 87.6,233.3 88.8,234.1 90.0,234.9 91.2,235.8 92.4,236.6 93.6,237.5 94.8,238.3 96.0,239.2 97.2,240.1 98.4,241.0 99.6,241.9 100.8,242.7 102.0,243.6 103.2,244.4 104.4,245.2 105.6,246.0 106.8,246.8 108.0,247.5 109.2,248.2 110.4,248.9 111.6,249.5 112.8,250.1 114.0,250.6 115.2,251.1 116.4,251.5 117.6,251.9 118.8,252.2 120.0,252.5 121.2,252.7 122.4,252.9 123.6,253.0 124.8,253.0 126.0,253.0 127.2,253.0 128.4,252.8 129.6,252.7 130.8,252.4 132.0,252.1 133.2,251.8 134.4,251.4 135.6,250.9 136.8,250.5 138.0,249.9 139.2,249.3 140.4,248.7 141.6,248.0 142.8,247.3 144.1,246.6 145.3,245.8 146.5,245.0 147.7,244.2 148.9,243.4 150.1,242.5 151.3,241.7 152.5,240.8 153.7,239.9 154.9,239.1 156.1,238.2 157.3,237.3 158.5,236.5 159.7,235.6 160.9,234.8 162.1,234.0 163.3,233.2 164.5,232.5 165.7,231.8 166.9,231.1 168.1,230.5 169.3,229.9 170.5,229.3 171.7,228.8 172.9,228.4 174.1,228.0 175.3,227.6 176.5,227.3 177.7,227.1 178.9,226.9 180.1,226.8 181.3,226.7 182.5,226.7 183.7,226.8 184.9,226.9 186.1,227.0 187.3,227.2 188.5,227.5 189.7,227.8 190.9,228.2 192.1,228.7 193.3,229.2 194.5,229.7 195.7,230.3 196.9,230.9 198.1,231.6 199.3,232.3 200.5,233.0 201.7,233.8 202.9,234.6 204.1,235.4 205.3,236.2 206.5,237.1 207.7,238.0 208.9,238.9 210.1,239.8 211.3,240.7 212.5,241.6 213.7,242.5 214.9,243.3 216.1,244.2 217.3,245.1 218.5,245.9 219.7,246.7 220.9,247.5 222.1,248.2 223.3,249.0 224.5,249.6 225.7,250.3 226.9,250.9 228.1,251.4 229.3,252.0 230.5,252.4 231.7,252.8 232.9,253.2 234.1,253.5 235.3,253.7 236.5,253.9 237.7,254.1 238.9,254.1 240.1,254.2 241.3,254.1 242.5,254.0 243.7,253.9 244.9,253.7 246.1,253.4 247.3,253.1 248.5,252.7 249.7,252.3 250.9,251.8 252.1,251.3 253.3,250.7 254.5,250.1 255.7,249.5 256.9,248.8 258.1,248.1 259.3,247.3 260.5,246.5 261.7,245.7 262.9,244.9 264.1,244.1 265.3,243.2 266.5,242.4 267.7,241.5 268.9,240.7 270.1,239.8 271.3,239.0 272.5,238.1 273.7,237.3 274.9,236.5 276.1,235.7 277.3,234.9 278.5,234.2 279.7,233.5 280.9,232.8 282.1,232.2 283.3,231.6 284.5,231.1 285.7,230.6 286.9,230.1 288.1,229.7 289.3,229.4 290.5,229.1 291.7,228.8 292.9,228.7 294.1,228.5 295.3,228.5 296.5,228.5 297.7,228.5 298.9,228.6 300.1,228.8 301.3,229.0 302.5,229.3 303.7,229.6 304.9,230.0 306.1,230.4 307.3,230.9 308.5,231.5 309.7,232.1 310.9,232.7 312.1,233.4 313.3,234.1 314.5,234.8 315.7,235.6 316.9,236.4 318.1,237.2 319.3,238.1 320.5,239.0 321.8,239.9 323.0,240.8 324.2,241.7 325.4,242.6 326.6,243.5 327.8,244.4 329.0,245.3 330.2,246.2 331.4,247.1 332.6,247.9 333.8,248.7 335.0,249.5 336.2,250.3 337.4,251.1 338.6,251.8 339.8,252.4 341.0,253.1 342.2,253.6 343.4,254.2 344.6,254.7 345.8,255.1 347.0,255.5 348.2,255.8 349.4,256.1 350.6,256.3 351.8,256.5 353.0,256.6 354.2,256.6 355.4,256.6 356.6,256.5 357.8,256.4 359.0,256.2 360.2,256.0 361.4,255.7 362.6,255.3 363.8,254.9 365.0,254.5 366.2,254.0 367.4,253.4 368.6,252.8 369.8,252.2 371.0,251.5 372.2,250.8 373.4,250.1 374.6,249.3 375.8,248.6 377.0,247.7 378.2,246.9 379.4,246.1 380.6,245.2 381.8,244.4 383.0,243.5 384.2,242.7 385.4,241.8 386.6,241.0 387.8,240.2 389.0,239.3 390.2,238.6 391.4,237.8 392.6,237.1 393.8,236.4 395.0,235.7 396.2,235.0 397.4,234.4 398.6,233.9 399.8,233.4 401.0,232.9 402.2,232.5 403.4,232.2 404.6,231.8 405.8,231.6 407.0,231.4 408.2,231.3 409.4,231.2 410.6,231.1 411.8,231.2 413.0,231.3 414.2,231.4 415.4,231.6 416.6,231.9 417.8,232.2 419.0,232.6 420.2,233.0 421.4,233.5 422.6,234.0 423.8,234.6 425.0,235.2 426.2,235.9 427.4,236.6 428.6,237.3 429.8,238.1 431.0,238.9 432.2,239.7 433.4,240.6 434.6,241.5 435.8,242.4 437.0,243.3 438.2,244.2 439.4,245.1 440.6,246.0 441.8,246.9 443.0,247.8 444.2,248.7 445.4,249.6 446.6,250.5 447.8,251.3 449.0,252.1 450.2,252.9 451.4,253.7 452.6,254.4 453.8,255.1 455.0,255.7 456.2,256.3 457.4,256.9 458.6,257.4 459.8,257.8 461.0,258.2 462.2,258.6 463.4,258.9 464.6,259.1 465.8,259.3 467.0,259.4 468.2,259.5 469.4,259.5 470.6,259.4 471.8,259.3 473.0,259.1 474.2,258.9 475.4,258.6 476.6,258.3 477.8,257.9 479.0,257.5 480.2,257.0 481.4,256.5 482.6,255.9 483.8,255.3 485.0,254.7 486.2,254.0 487.4,253.3 488.6,252.5 489.8,251.7 491.0,250.9 492.2,250.1 493.4,249.3 494.6,248.5 495.8,247.6 497.0,246.8 498.2,245.9 499.5,245.1 500.7,244.2 501.9,243.4 503.1,242.6 504.3,241.8 505.5,241.1 506.7,240.3 507.9,239.6 509.1,239.0 510.3,238.3 511.5,237.7 512.7,237.2 513.9,236.6 515.1,236.2 516.3,235.8 517.5,235.4 518.7,235.1 519.9,234.8 521.1,234.6 522.3,234.5 523.5,234.4 524.7,234.3 525.9,234.4 527.1,234.4 528.3,234.6 529.5,234.8 530.7,235.0 531.9,235.3 533.1,235.7 534.3,236.1 535.5,236.6 536.7,237.1 537.9,237.7 539.1,238.3 540.3,239.0 541.5,239.7 542.7,240.4 543.9,241.2 545.1,242.0 546.3,242.8 547.5,243.6 548.7,244.5 549.9,245.4 551.1,246.3 552.3,247.2 553.5,248.1 554.7,249.0 555.9,249.9 557.1,250.8 558.3,251.7 559.5,252.6 560.7,253.5 561.9,254.3 563.1,255.1 564.3,255.9 565.5,256.7 566.7,257.4 567.9,258.1 569.1,258.8 570.3,259.4 571.5,259.9 572.7,260.4 573.9,260.9 575.1,261.3 576.3,261.7 577.5,262.0 578.7,262.2 579.9,262.4 581.1,262.6 582.3,262.6 583.5,262.7 584.7,262.6 585.9,262.5 587.1,262.4 588.3,262.2 589.5,261.9 590.7,261.6 591.9,261.2 593.1,260.8 594.3,260.3 595.5,259.8 596.7,259.2 597.9,258.6 599.1,258.0 600.3,257.3 601.5,256.6 602.7,255.8 603.9,255.1 605.1,254.3 606.3,253.5 607.5,252.6 608.7,251.8 609.9,251.0 611.1,250.1 612.3,249.3 613.5,248.4 614.7,247.6 615.9,246.7 617.1,245.9 618.3,245.1 619.5,244.4 620.7,243.6 621.9,242.9 623.1,242.2 624.3,241.6 625.5,241.0 626.7,240.4 627.9,239.9 629.1,239.4 630.3,239.0 631.5,238.6 632.7,238.3 633.9,238.0 635.1,237.8 636.3,237.6 637.5,237.5 638.7,237.5 639.9,237.5 641.1,237.6 642.3,237.7 643.5,237.9 644.7,238.1 645.9,238.4 647.1,238.8 648.3,239.2 649.5,239.7 650.7,240.2 651.9,240.7 653.1,241.3 654.3,242.0 655.5,242.7 656.7,243.4 657.9,244.2 659.1,244.9 660.3,245.8 661.5,246.6 662.7,247.5 663.9,248.4 665.1,249.3 666.3,250.2 667.5,251.1 668.7,252.0 669.9,252.9 671.1,253.8 672.3,254.8 673.5,255.6 674.7,256.5 675.9,257.4 677.2,258.2 678.4,259.0 679.6,259.8 680.8,260.5 682.0,261.2 683.2,261.9 684.4,262.5 685.6,263.1 686.8,263.6 688.0,264.1 689.2,264.5 690.4,264.9 691.6,265.2 692.8,265.5 694.0,265.7 695.2,265.9 696.4,266.0 697.6,266.0 698.8,266.0 700.0,265.9 701.2,265.8 702.4,265.6 703.6,265.3 704.8,265.0 706.0,264.7 707.2,264.3 708.4,263.8 709.6,263.3 710.8,262.7 712.0,262.2 713.2,261.5 714.4,260.9 715.6,260.2 716.8,259.4 718.0,258.7 719.2,257.9 720.4,257.1 721.6,256.3 722.8,255.4 724.0,254.6 725.2,253.8 726.4,252.9 727.6,252.1 728.8,251.2 730.0,250.4 731.2,249.6 732.4,248.8 733.6,248.0 734.8,247.3 736.0,246.6 737.2,245.9 738.4,245.2 739.6,244.6 740.8,244.1 742.0,243.5 743.2,243.0 744.4,242.6 745.6,242.2 746.8,241.9 748.0,241.6 749.2,241.4 750.4,241.2 751.6,241.1 752.8,241.1 754.0,241.1 755.2,241.1 756.4,241.3 757.6,241.4 758.8,241.7 760.0,242.0 761.2,242.3 762.4,242.7 763.6,243.2 764.8,243.7 766.0,244.2"/>
<line x1="606" y1="42" x2="628" y2="42" stroke="#0f62fe" stroke-width="2.2"/>
<text x="634" y="46" font-family="Arial" font-size="12">wind_x_mps</text>
<polyline fill="none" stroke="#24a148" stroke-width="2.2" points="54.0,69.1 55.2,66.8 56.4,64.6 57.6,62.6 58.8,60.7 60.0,59.1 61.2,57.7 62.4,56.5 63.6,55.6 64.8,54.8 66.0,54.3 67.2,54.1 68.4,54.0 69.6,54.2 70.8,54.6 72.0,55.3 73.2,56.2 74.4,57.3 75.6,58.6 76.8,60.1 78.0,61.9 79.2,63.8 80.4,65.9 81.6,68.2 82.8,70.7 84.0,73.4 85.2,76.2 86.4,79.1 87.6,82.1 88.8,85.3 90.0,88.6 91.2,91.9 92.4,95.3 93.6,98.8 94.8,102.3 96.0,105.8 97.2,109.4 98.4,112.9 99.6,116.4 100.8,119.8 102.0,123.3 103.2,126.6 104.4,129.9 105.6,133.0 106.8,136.1 108.0,139.0 109.2,141.8 110.4,144.4 111.6,146.9 112.8,149.2 114.0,151.3 115.2,153.3 116.4,155.0 117.6,156.6 118.8,157.9 120.0,159.0 121.2,159.9 122.4,160.5 123.6,160.9 124.8,161.1 126.0,161.1 127.2,160.8 128.4,160.3 129.6,159.5 130.8,158.6 132.0,157.4 133.2,156.0 134.4,154.4 135.6,152.5 136.8,150.5 138.0,148.3 139.2,145.9 140.4,143.4 141.6,140.7 142.8,137.9 144.1,134.9 145.3,131.8 146.5,128.6 147.7,125.3 148.9,121.9 150.1,118.5 151.3,115.0 152.5,111.5 153.7,108.0 154.9,104.4 156.1,100.9 157.3,97.4 158.5,94.0 159.7,90.6 160.9,87.3 162.1,84.0 163.3,80.9 164.5,77.9 165.7,75.0 166.9,72.3 168.1,69.7 169.3,67.3 170.5,65.1 171.7,63.0 172.9,61.1 174.1,59.5 175.3,58.0 176.5,56.8 177.7,55.8 178.9,55.0 180.1,54.4 181.3,54.1 182.5,54.0 183.7,54.1 184.9,54.5 186.1,55.1 187.3,55.9 188.5,57.0 189.7,58.2 190.9,59.7 192.1,61.4 193.3,63.3 194.5,65.4 195.7,67.7 196.9,70.1 198.1,72.7 199.3,75.5 200.5,78.4 201.7,81.4 202.9,84.5 204.1,87.8 205.3,91.1 206.5,94.5 207.7,98.0 208.9,101.5 210.1,105.0 211.3,108.5 212.5,112.0 213.7,115.5 214.9,119.0 216.1,122.4 217.3,125.8 218.5,129.1 219.7,132.3 220.9,135.3 222.1,138.3 223.3,141.1 224.5,143.8 225.7,146.3 226.9,148.7 228.1,150.9 229.3,152.8 230.5,154.6 231.7,156.2 232.9,157.6 234.1,158.7 235.3,159.7 236.5,160.4 237.7,160.8 238.9,161.1 240.1,161.1 241.3,160.9 242.5,160.4 243.7,159.7 244.9,158.8 246.1,157.7 247.3,156.3 248.5,154.8 249.7,153.0 250.9,151.0 252.1,148.9 253.3,146.5 254.5,144.0 255.7,141.6 256.9,139.3 258.1,137.2 259.3,135.3 260.5,133.5 261.7,131.9 262.9,130.4 264.1,129.1 265.3,128.0 266.5,127.0 267.7,126.1 268.9,125.4 270.1,124.9 271.3,124.4 272.5,124.1 273.7,123.8 274.9,123.6 276.1,123.5 277.3,123.5 278.5,123.4 279.7,123.4 280.9,123.5 282.1,123.5 283.3,123.5 284.5,123.5 285.7,123.4 286.9,123.3 288.1,123.2 289.3,123.0 290.5,122.7 291.7,122.4 292.9,122.0 294.1,121.5 295.3,121.0 296.5,120.4 297.7,119.7 298.9,119.0 300.1,118.2 301.3,117.4 302.5,116.6 303.7,115.8 304.9,115.0 306.1,114.2 307.3,113.4 308.5,112.6 309.7,111.9 310.9,111.3 312.1,110.8 313.3,110.4 314.5,110.1 315.7,110.0 316.9,110.0 318.1,110.1 319.3,110.5 320.5,111.0 321.8,111.8 323.0,112.8 324.2,113.9 325.4,115.4 326.6,117.0 327.8,118.9 329.0,121.0 330.2,123.3 331.4,125.8 332.6,128.6 333.8,131.5 335.0,134.6 336.2,137.6 337.4,140.5 338.6,143.2 339.8,145.7 341.0,148.1 342.2,150.4 343.4,152.4 344.6,154.2 345.8,155.9 347.0,157.3 348.2,158.5 349.4,159.5 350.6,160.2 351.8,160.8 353.0,161.0 354.2,161.1 355.4,160.9 356.6,160.5 357.8,159.9 359.0,159.1 360.2,158.0 361.4,156.7 362.6,155.2 363.8,153.4 365.0,151.5 366.2,149.4 367.4,147.1 368.6,144.6 369.8,142.0 371.0,139.2 372.2,136.3 373.4,133.3 374.6,130.1 375.8,126.9 377.0,123.5 378.2,120.1 379.4,116.7 380.6,113.2 381.8,109.6 383.0,106.1 384.2,102.6 385.4,99.1 386.6,95.6 387.8,92.2 389.0,88.8 390.2,85.6 391.4,82.4 392.6,79.3 393.8,76.4 395.0,73.6 396.2,70.9 397.4,68.4 398.6,66.1 399.8,64.0 401.0,62.0 402.2,60.3 403.4,58.7 404.6,57.4 405.8,56.2 407.0,55.3 408.2,54.7 409.4,54.2 410.6,54.0 411.8,54.0 413.0,54.3 414.2,54.8 415.4,55.5 416.6,56.4 417.8,57.6 419.0,59.0 420.2,60.6 421.4,62.4 422.6,64.4 423.8,66.6 425.0,68.9 426.2,71.5 427.4,74.2 428.6,77.0 429.8,80.0 431.0,83.0 432.2,86.2 433.4,89.5 434.6,92.9 435.8,96.3 437.0,99.8 438.2,103.3 439.4,106.8 440.6,110.4 441.8,113.9 443.0,117.4 444.2,120.8 445.4,124.2 446.6,127.5 447.8,130.8 449.0,133.9 450.2,136.9 451.4,139.8 452.6,142.6 453.8,145.2 455.0,147.6 456.2,149.8 457.4,151.9 458.6,153.8 459.8,155.5 461.0,157.0 462.2,158.2 463.4,159.2 464.6,160.1 465.8,160.6 467.0,161.0 468.2,161.1 469.4,161.0 470.6,160.7 471.8,160.1 473.0,159.3 474.2,158.3 475.4,157.0 476.6,155.5 477.8,153.9 479.0,152.0 480.2,149.9 481.4,147.7 482.6,145.2 483.8,142.6 485.0,139.9 486.2,137.0 487.4,134.0 488.6,130.9 489.8,127.6 491.0,124.3 492.2,120.9 493.4,117.5 494.6,114.0 495.8,110.5 497.0,106.9 498.2,103.4 499.5,99.9 500.7,96.4 501.9,93.0 503.1,89.6 504.3,86.3 505.5,83.1 506.7,80.1 507.9,77.1 509.1,74.2 510.3,71.6 511.5,69.0 512.7,66.7 513.9,64.5 515.1,62.5 516.3,60.7 517.5,59.1 518.7,57.7 519.9,56.5 521.1,55.5 522.3,54.8 523.5,54.3 524.7,54.0 525.9,54.0 527.1,54.2 528.3,54.6 529.5,55.3 530.7,56.2 531.9,57.3 533.1,58.7 534.3,60.2 535.5,61.9 536.7,63.9 537.9,66.0 539.1,68.4 540.3,70.9 541.5,73.5 542.7,76.3 543.9,79.2 545.1,82.3 546.3,85.5 547.5,88.7 548.7,92.1 549.9,95.5 551.1,99.0 552.3,102.5 553.5,106.0 554.7,109.5 555.9,113.0 557.1,116.5 558.3,120.0 559.5,123.4 560.7,126.8 561.9,130.0 563.1,133.2 564.3,136.2 565.5,139.1 566.7,141.9 567.9,144.5 569.1,147.0 570.3,149.3 571.5,151.4 572.7,153.4 573.9,155.1 575.1,156.6 576.3,157.9 577.5,159.0 578.7,159.9 579.9,160.5 581.1,160.9 582.3,161.1 583.5,161.1 584.7,160.8 585.9,160.2 587.1,159.5 588.3,158.5 589.5,157.3 590.7,155.9 591.9,154.3 593.1,152.4 594.3,150.4 595.5,148.2 596.7,145.8 597.9,143.3 599.1,140.6 600.3,137.7 601.5,134.7 602.7,131.6 603.9,128.4 605.1,125.1 606.3,121.7 607.5,118.3 608.7,114.8 609.9,111.3 611.1,107.8 612.3,104.3 613.5,100.7 614.7,97.3 615.9,93.8 617.1,90.4 618.3,87.1 619.5,83.9 620.7,80.8 621.9,77.8 623.1,74.9 624.3,72.2 625.5,69.6 626.7,67.2 627.9,65.0 629.1,62.9 630.3,61.1 631.5,59.4 632.7,58.0 633.9,56.7 635.1,55.7 636.3,55.0 637.5,54.4 638.7,54.1 639.9,54.0 641.1,54.1 642.3,54.5 643.5,55.1 644.7,56.0 645.9,57.0 647.1,58.3 648.3,59.8 649.5,61.5 650.7,63.4 651.9,65.5 653.1,67.8 654.3,70.2 655.5,72.9 656.7,75.6 657.9,78.5 659.1,81.6 660.3,84.7 661.5,87.9 662.7,91.3 663.9,94.7 665.1,98.1 666.3,101.6 667.5,105.1 668.7,108.7 669.9,112.2 671.1,115.7 672.3,119.2 673.5,122.6 674.7,126.0 675.9,129.2 677.2,132.4 678.4,135.5 679.6,138.4 680.8,141.3 682.0,143.9 683.2,146.4 684.4,148.8 685.6,151.0 686.8,152.9 688.0,154.7 689.2,156.3 690.4,157.6 691.6,158.8 692.8,159.7 694.0,160.4 695.2,160.9 696.4,161.1 697.6,161.1 698.8,160.9 700.0,160.4 701.2,159.7 702.4,158.8 703.6,157.6 704.8,156.3 706.0,154.7 707.2,152.9 708.4,150.9 709.6,148.8 710.8,146.4 712.0,143.9 713.2,141.2 714.4,138.4 715.6,135.5 716.8,132.4 718.0,129.2 719.2,125.9 720.4,122.6 721.6,119.1 722.8,115.7 724.0,112.2 725.2,108.6 726.4,105.1 727.6,101.6 728.8,98.1 730.0,94.6 731.2,91.2 732.4,87.9 733.6,84.7 734.8,81.5 736.0,78.5 737.2,75.6 738.4,72.8 739.6,70.2 740.8,67.8 742.0,65.5 743.2,63.4 744.4,61.5 745.6,59.8 746.8,58.3 748.0,57.0 749.2,56.0 750.4,55.1 751.6,54.5 752.8,54.1 754.0,54.0 755.2,54.1 756.4,54.4 757.6,55.0 758.8,55.8 760.0,56.8 761.2,58.0 762.4,59.4 763.6,61.1 764.8,62.9 766.0,65.0"/>
<line x1="606" y1="60" x2="628" y2="60" stroke="#24a148" stroke-width="2.2"/>
<text x="634" y="64" font-family="Arial" font-size="12">wind_y_mps</text>
<polyline fill="none" stroke="#da1e28" stroke-width="2.2" points="54.0,196.5 55.2,196.2 56.4,195.9 57.6,195.7 58.8,195.4 60.0,195.2 61.2,195.1 62.4,194.9 63.6,194.8 64.8,194.7 66.0,194.6 67.2,194.6 68.4,194.6 69.6,194.6 70.8,194.7 72.0,194.8 73.2,194.9 74.4,195.0 75.6,195.2 76.8,195.4 78.0,195.6 79.2,195.8 80.4,196.1 81.6,196.4 82.8,196.7 84.0,197.0 85.2,197.4 86.4,197.7 87.6,198.1 88.8,198.5 90.0,198.9 91.2,199.3 92.4,199.8 93.6,200.2 94.8,200.6 96.0,201.1 97.2,201.5 98.4,202.0 99.6,202.4 100.8,202.8 102.0,203.2 103.2,203.7 104.4,204.1 105.6,204.5 106.8,204.9 108.0,205.2 109.2,205.6 110.4,205.9 111.6,206.2 112.8,206.5 114.0,206.8 115.2,207.0 116.4,207.2 117.6,207.4 118.8,207.6 120.0,207.7 121.2,207.8 122.4,207.9 123.6,208.0 124.8,208.0 126.0,208.0 127.2,207.9 128.4,207.9 129.6,207.8 130.8,207.7 132.0,207.5 133.2,207.3 134.4,207.1 135.6,206.9 136.8,206.7 138.0,206.4 139.2,206.1 140.4,205.8 141.6,205.4 142.8,205.1 144.1,204.7 145.3,204.3 146.5,203.9 147.7,203.5 148.9,203.1 150.1,202.7 151.3,202.2 152.5,201.8 153.7,201.3 154.9,200.9 156.1,200.5 157.3,200.0 158.5,199.6 159.7,199.2 160.9,198.8 162.1,198.3 163.3,198.0 164.5,197.6 165.7,197.2 166.9,196.9 168.1,196.6 169.3,196.3 170.5,196.0 171.7,195.7 172.9,195.5 174.1,195.3 175.3,195.1 176.5,194.9 177.7,194.8 178.9,194.7 180.1,194.6 181.3,194.6 182.5,194.6 183.7,194.6 184.9,194.7 186.1,194.7 187.3,194.8 188.5,195.0 189.7,195.1 190.9,195.3 192.1,195.5 193.3,195.8 194.5,196.0 195.7,196.3 196.9,196.6 198.1,196.9 199.3,197.3 200.5,197.6 201.7,198.0 202.9,198.4 204.1,198.8 205.3,199.2 206.5,199.7 207.7,200.1 208.9,200.5 210.1,201.0 211.3,201.4 212.5,201.8 213.7,202.3 214.9,202.7 216.1,203.1 217.3,203.6 218.5,204.0 219.7,204.4 220.9,204.8 222.1,205.1 223.3,205.5 224.5,205.8 225.7,206.1 226.9,206.4 228.1,206.7 229.3,206.9 230.5,207.2 231.7,207.4 232.9,207.5 234.1,207.7 235.3,207.8 236.5,207.9 237.7,207.9 238.9,208.0 240.1,208.0 241.3,208.0 242.5,207.9 243.7,207.8 244.9,207.7 246.1,207.6 247.3,207.4 248.5,207.2 249.7,207.0 250.9,206.7 252.1,206.5 253.3,206.2 254.5,205.8 255.7,205.5 256.9,205.0 258.1,204.5 259.3,203.9 260.5,203.2 261.7,202.4 262.9,201.6 264.1,200.8 265.3,199.9 266.5,199.0 267.7,198.0 268.9,197.0 270.1,195.9 271.3,194.9 272.5,193.8 273.7,192.8 274.9,191.7 276.1,190.7 277.3,189.7 278.5,188.7 279.7,187.8 280.9,186.9 282.1,186.0 283.3,185.2 284.5,184.5 285.7,183.8 286.9,183.2 288.1,182.7 289.3,182.2 290.5,181.9 291.7,181.6 292.9,181.4 294.1,181.3 295.3,181.3 296.5,181.3 297.7,181.5 298.9,181.7 300.1,182.1 301.3,182.5 302.5,182.9 303.7,183.5 304.9,184.1 306.1,184.8 307.3,185.6 308.5,186.4 309.7,187.3 310.9,188.2 312.1,189.1 313.3,190.1 314.5,191.1 315.7,192.1 316.9,193.1 318.1,194.1 319.3,195.1 320.5,196.1 321.8,197.1 323.0,198.0 324.2,198.9 325.4,199.8 326.6,200.6 327.8,201.4 329.0,202.1 330.2,202.7 331.4,203.3 332.6,203.8 333.8,204.3 335.0,204.7 336.2,205.0 337.4,205.4 338.6,205.7 339.8,206.1 341.0,206.4 342.2,206.6 343.4,206.9 344.6,207.1 345.8,207.3 347.0,207.5 348.2,207.7 349.4,207.8 350.6,207.9 351.8,207.9 353.0,208.0 354.2,208.0 355.4,208.0 356.6,207.9 357.8,207.8 359.0,207.7 360.2,207.6 361.4,207.4 362.6,207.2 363.8,207.0 365.0,206.8 366.2,206.5 367.4,206.2 368.6,205.9 369.8,205.6 371.0,205.2 372.2,204.9 373.4,204.5 374.6,204.1 375.8,203.7 377.0,203.3 378.2,202.9 379.4,202.4 380.6,202.0 381.8,201.5 383.0,201.1 384.2,200.7 385.4,200.2 386.6,199.8 387.8,199.4 389.0,198.9 390.2,198.5 391.4,198.1 392.6,197.8 393.8,197.4 395.0,197.0 396.2,196.7 397.4,196.4 398.6,196.1 399.8,195.8 401.0,195.6 402.2,195.4 403.4,195.2 404.6,195.0 405.8,194.9 407.0,194.8 408.2,194.7 409.4,194.6 410.6,194.6 411.8,194.6 413.0,194.6 414.2,194.7 415.4,194.8 416.6,194.9 417.8,195.0 419.0,195.2 420.2,195.4 421.4,195.6 422.6,195.9 423.8,196.2 425.0,196.5 426.2,196.8 427.4,197.1 428.6,197.5 429.8,197.8 431.0,198.2 432.2,198.6 433.4,199.0 434.6,199.5 435.8,199.9 437.0,200.3 438.2,200.8 439.4,201.2 440.6,201.6 441.8,202.1 443.0,202.5 444.2,202.9 445.4,203.4 446.6,203.8 447.8,204.2 449.0,204.6 450.2,205.0 451.4,205.3 452.6,205.7 453.8,206.0 455.0,206.3 456.2,206.6 457.4,206.8 458.6,207.1 459.8,207.3 461.0,207.5 462.2,207.6 463.4,207.7 464.6,207.9 465.8,207.9 467.0,208.0 468.2,208.0 469.4,208.0 470.6,207.9 471.8,207.9 473.0,207.8 474.2,207.6 475.4,207.5 476.6,207.3 477.8,207.1 479.0,206.8 480.2,206.6 481.4,206.3 482.6,206.0 483.8,205.7 485.0,205.3 486.2,205.0 487.4,204.6 488.6,204.2 489.8,203.8 491.0,203.4 492.2,203.0 493.4,202.5 494.6,202.1 495.8,201.7 497.0,201.2 498.2,200.8 499.5,200.3 500.7,199.9 501.9,199.5 503.1,199.0 504.3,198.6 505.5,198.2 506.7,197.9 507.9,197.5 509.1,197.1 510.3,196.8 511.5,196.5 512.7,196.2 513.9,195.9 515.1,195.7 516.3,195.4 517.5,195.2 518.7,195.1 519.9,194.9 521.1,194.8 522.3,194.7 523.5,194.6 524.7,194.6 525.9,194.6 527.1,194.6 528.3,194.7 529.5,194.8 530.7,194.9 531.9,195.0 533.1,195.2 534.3,195.4 535.5,195.6 536.7,195.8 537.9,196.1 539.1,196.4 540.3,196.7 541.5,197.0 542.7,197.4 543.9,197.7 545.1,198.1 546.3,198.5 547.5,198.9 548.7,199.4 549.9,199.8 551.1,200.2 552.3,200.7 553.5,201.1 554.7,201.5 555.9,202.0 557.1,202.4 558.3,202.8 559.5,203.3 560.7,203.7 561.9,204.1 563.1,204.5 564.3,204.9 565.5,205.2 566.7,205.6 567.9,205.9 569.1,206.2 570.3,206.5 571.5,206.8 572.7,207.0 573.9,207.2 575.1,207.4 576.3,207.6 577.5,207.7 578.7,207.8 579.9,207.9 581.1,208.0 582.3,208.0 583.5,208.0 584.7,207.9 585.9,207.9 587.1,207.8 588.3,207.7 589.5,207.5 590.7,207.3 591.9,207.1 593.1,206.9 594.3,206.6 595.5,206.4 596.7,206.1 597.9,205.8 599.1,205.4 600.3,205.1 601.5,204.7 602.7,204.3 603.9,203.9 605.1,203.5 606.3,203.1 607.5,202.6 608.7,202.2 609.9,201.8 611.1,201.3 612.3,200.9 613.5,200.4 614.7,200.0 615.9,199.6 617.1,199.1 618.3,198.7 619.5,198.3 620.7,197.9 621.9,197.6 623.1,197.2 624.3,196.9 625.5,196.5 626.7,196.2 627.9,196.0 629.1,195.7 630.3,195.5 631.5,195.3 632.7,195.1 633.9,194.9 635.1,194.8 636.3,194.7 637.5,194.6 638.7,194.6 639.9,194.6 641.1,194.6 642.3,194.7 643.5,194.7 644.7,194.8 645.9,195.0 647.1,195.1 648.3,195.3 649.5,195.5 650.7,195.8 651.9,196.0 653.1,196.3 654.3,196.6 655.5,197.0 656.7,197.3 657.9,197.7 659.1,198.0 660.3,198.4 661.5,198.8 662.7,199.3 663.9,199.7 665.1,200.1 666.3,200.5 667.5,201.0 668.7,201.4 669.9,201.9 671.1,202.3 672.3,202.7 673.5,203.2 674.7,203.6 675.9,204.0 677.2,204.4 678.4,204.8 679.6,205.1 680.8,205.5 682.0,205.8 683.2,206.1 684.4,206.4 685.6,206.7 686.8,207.0 688.0,207.2 689.2,207.4 690.4,207.5 691.6,207.7 692.8,207.8 694.0,207.9 695.2,208.0 696.4,208.0 697.6,208.0 698.8,208.0 700.0,207.9 701.2,207.8 702.4,207.7 703.6,207.5 704.8,207.4 706.0,207.2 707.2,207.0 708.4,206.7 709.6,206.4 710.8,206.1 712.0,205.8 713.2,205.5 714.4,205.1 715.6,204.8 716.8,204.4 718.0,204.0 719.2,203.6 720.4,203.2 721.6,202.7 722.8,202.3 724.0,201.9 725.2,201.4 726.4,201.0 727.6,200.5 728.8,200.1 730.0,199.7 731.2,199.2 732.4,198.8 733.6,198.4 734.8,198.0 736.0,197.7 737.2,197.3 738.4,196.9 739.6,196.6 740.8,196.3 742.0,196.0 743.2,195.8 744.4,195.5 745.6,195.3 746.8,195.1 748.0,195.0 749.2,194.8 750.4,194.7 751.6,194.7 752.8,194.6 754.0,194.6 755.2,194.6 756.4,194.6 757.6,194.7 758.8,194.8 760.0,194.9 761.2,195.1 762.4,195.3 763.6,195.5 764.8,195.7 766.0,196.0"/>
<line x1="606" y1="78" x2="628" y2="78" stroke="#da1e28" stroke-width="2.2"/>
<text x="634" y="82" font-family="Arial" font-size="12">wind_z_mps</text>
</svg>