<svg xmlns="http://www.w3.org/2000/svg" width="820" height="320" viewBox="0 0 820 320">
<rect width="100%" height="100%" fill="#ffffff"/>
<text x="54" y="28" font-family="Arial" font-size="18" font-weight="700">Heading Command Tracking</text>
<line x1="54" y1="266" x2="766" y2="266" stroke="#1f2933"/>
<line x1="54" y1="54" x2="54" y2="266" stroke="#1f2933"/>
<text x="54" y="306" font-family="Arial" font-size="12">time (s)</text>
<text x="596" y="306" font-family="Arial" font-size="12">heading (deg)</text>
<text x="58" y="68" font-family="Arial" font-size="11">180</text>
<text x="58" y="260" font-family="Arial" font-size="11">-180</text>
<polyline fill="none" stroke="#0f62fe" stroke-width="2.2" points="54.0,161.2 55.2,161.2 56.4,161.2 57.6,161.2 58.8,161.2 60.0,161.2 61.2,161.2 62.4,161.2 63.6,161.2 64.8,161.2 66.0,161.2 67.2,161.2 68.4,161.2 69.6,161.2 70.8,161.2 72.0,161.2 73.2,161.2 74.4,161.2 75.6,161.2 76.8,161.2 78.0,161.2 79.2,161.2 80.4,161.2 81.6,161.2 82.8,161.2 84.0,161.2 85.2,161.2 86.4,161.2 87.6,161.2 88.8,161.2 90.0,161.2 91.2,161.2 92.4,161.2 93.6,161.2 94.8,161.2 96.0,161.2 97.2,161.2 98.4,161.2 99.6,161.2 100.8,161.2 102.0,161.2 103.2,161.2 104.4,161.2 105.6,161.2 106.8,161.2 108.0,161.2 109.2,161.2 110.4,161.2 111.6,161.2 112.8,161.2 114.0,161.2 115.2,161.2 116.4,161.2 117.6,161.2 118.8,161.2 120.0,161.2 121.2,161.2 122.4,161.2 123.6,161.2 124.8,161.2 126.0,161.2 127.2,161.2 128.4,161.2 129.6,161.2 130.8,161.2 132.0,161.2 133.2,161.2 134.4,161.2 135.6,161.2 136.8,161.2 138.0,161.2 139.2,161.2 140.4,161.2 141.6,161.2 142.8,161.2 144.1,161.2 145.3,161.2 146.5,161.2 147.7,161.2 148.9,161.2 150.1,161.2 151.3,161.2 152.5,161.2 153.7,161.2 154.9,161.2 156.1,161.2 157.3,161.2 158.5,161.2 159.7,161.2 160.9,161.2 162.1,161.2 163.3,161.2 164.5,161.2 165.7,161.2 166.9,161.2 168.1,161.2 169.3,161.2 170.5,161.2 171.7,161.2 172.9,161.2 174.1,161.2 175.3,161.2 176.5,161.2 177.7,161.2 178.9,161.2 180.1,161.2 181.3,161.2 182.5,161.2 183.7,161.2 184.9,161.2 186.1,161.2 187.3,161.2 188.5,161.2 189.7,161.2 190.9,161.2 192.1,161.2 193.3,161.2 194.5,161.2 195.7,161.2 196.9,161.2 198.1,161.2 199.3,161.2 200.5,161.2 201.7,161.2 202.9,161.2 204.1,161.2 205.3,161.2 206.5,161.2 207.7,161.2 208.9,161.2 210.1,161.2 211.3,161.2 212.5,161.2 213.7,161.2 214.9,161.2 216.1,161.2 217.3,161.2 218.5,161.2 219.7,161.2 220.9,161.2 222.1,161.2 223.3,161.2 224.5,161.2 225.7,161.2 226.9,161.2 228.1,161.2 229.3,161.2 230.5,161.2 231.7,161.2 232.9,161.2 234.1,161.2 235.3,161.2 236.5,161.2 237.7,161.2 238.9,161.2 240.1,161.2 241.3,161.2 242.5,161.2 243.7,161.2 244.9,161.2 246.1,161.2 247.3,161.2 248.5,161.2 249.7,161.2 250.9,161.2 252.1,161.2 253.3,161.2 254.5,161.2 255.7,161.2 256.9,161.2 258.1,161.2 259.3,161.2 260.5,161.2 261.7,161.2 262.9,161.2 264.1,161.2 265.3,161.2 266.5,161.2 267.7,161.2 268.9,161.2 270.1,161.2 271.3,161.2 272.5,161.2 273.7,161.2 274.9,161.2 276.1,161.2 277.3,161.2 278.5,161.2 279.7,161.2 280.9,161.2 282.1,161.2 283.3,161.2 284.5,161.2 285.7,161.2 286.9,161.2 288.1,161.2 289.3,161.2 290.5,161.2 291.7,161.2 292.9,161.2 294.1,161.2 295.3,161.2 296.5,161.2 297.7,161.2 298.9,161.2 300.1,161.2 301.3,161.2 302.5,161.2 303.7,161.2 304.9,161.2 306.1,161.2 307.3,161.2 308.5,161.2 309.7,161.2 310.9,161.2 312.1,161.2 313.3,161.2 314.5,161.2 315.7,161.2 316.9,161.2 318.1,161.2 319.3,161.2 320.5,161.2 321.8,161.2 323.0,161.2 324.2,161.2 325.4,161.2 326.6,161.2 327.8,161.2 329.0,161.2 330.2,161.2 331.4,161.2 332.6,161.2 333.8,161.2 335.0,161.2 336.2,161.2 337.4,161.2 338.6,161.2 339.8,161.2 341.0,161.2 342.2,161.2 343.4,161.2 344.6,161.2 345.8,161.2 347.0,161.2 348.2,161.2 349.4,161.2 350.6,161.2 351.8,161.2 353.0,161.2 354.2,161.2 355.4,161.2 356.6,161.2 357.8,161.2 359.0,161.2 360.2,161.2 361.4,161.2 362.6,161.2 363.8,161.2 365.0,161.2 366.2,161.2 367.4,161.2 368.6,161.2 369.8,161.2 371.0,161.2 372.2,161.2 373.4,161.2 374.6,161.2 375.8,161.2 377.0,161.2 378.2,161.2 379.4,161.2 380.6,161.2 381.8,161.2 383.0,161.2 384.2,161.2 385.4,161.2 386.6,161.2 387.8,161.2 389.0,161.2 390.2,161.2 391.4,161.2 392.6,161.2 393.8,161.2 395.0,161.2 396.2,161.2 397.4,161.2 398.6,161.2 399.8,161.2 401.0,161.2 402.2,161.2 403.4,161.2 404.6,161.2 405.8,161.2 407.0,161.2 408.2,161.2 409.4,161.2 410.6,161.2 411.8,161.2 413.0,161.2 414.2,161.2 415.4,161.2 416.6,161.2 417.8,161.2 419.0,161.2 420.2,161.2 421.4,161.2 422.6,161.2 423.8,161.2 425.0,161.2 426.2,161.2 427.4,161.2 428.6,161.2 429.8,161.2 431.0,161.2 432.2,161.2 433.4,161.2 434.6,161.2 435.8,161.2 437.0,161.2 438.2,161.2 439.4,161.2 440.6,161.2 441.8,161.2 443.0,161.2 444.2,161.2 445.4,161.2 446.6,161.2 447.8,161.2 449.0,161.2 450.2,161.2 451.4,161.2 452.6,161.2 453.8,161.2 455.0,161.2 456.2,161.2 457.4,161.2 458.6,161.2 459.8,161.2 461.0,161.2 462.2,161.2 463.4,161.2 464.6,161.2 465.8,161.2 467.0,161.2 468.2,161.2 469.4,161.2 470.6,161.2 471.8,161.2 473.0,161.2 474.2,161.2 475.4,161.2 476.6,161.2 477.8,161.2 479.0,161.2 480.2,161.2 481.4,161.2 482.6,161.2 483.8,161.2 485.0,161.2 486.2,161.2 487.4,161.2 488.6,161.2 489.8,161.2 491.0,161.2 492.2,161.2 493.4,161.2 494.6,161.2 495.8,161.2 497.0,161.2 498.2,161.2 499.5,161.2 500.7,161.2 501.9,161.2 503.1,161.2 504.3,161.2 505.5,161.2 506.7,161.2 507.9,161.2 509.1,161.2 510.3,161.2 511.5,161.2 512.7,161.2 513.9,161.2 515.1,161.2 516.3,161.2 517.5,161.2 518.7,161.2 519.9,161.2 521.1,161.2 522.3,161.2 523.5,161.2 524.7,161.2 525.9,161.2 527.1,161.2 528.3,161.2 529.5,161.2 530.7,161.2 531.9,161.2 533.1,161.2 534.3,161.2 535.5,161.2 536.7,161.2 537.9,161.2 539.1,161.2 540.3,161.2 541.5,161.2 542.7,161.2 543.9,161.2 545.1,161.2 546.3,161.2 547.5,161.2 548.7,161.2 549.9,161.2 551.1,161.2 552.3,161.2 553.5,161.2 554.7,161.2 555.9,161.2 557.1,161.2 558.3,161.2 559.5,161.2 560.7,161.2 561.9,161.2 563.1,161.2 564.3,161.2 565.5,161.2 566.7,161.2 567.9,161.2 569.1,161.2 570.3,161.2 571.5,161.2 572.7,161.2 573.9,161.2 575.1,161.2 576.3,161.2 577.5,161.2 578.7,161.2 579.9,161.2 581.1,161.2 582.3,161.2 583.5,161.2 584.7,161.2 585.9,161.2 587.1,161.2 588.3,161.2 589.5,161.2 590.7,161.2 591.9,161.2 593.1,161.2 594.3,161.2 595.5,161.2 596.7,161.2 597.9,161.2 599.1,161.2 600.3,161.2 601.5,161.2 602.7,161.2 603.9,161.2 605.1,161.2 606.3,161.2 607.5,161.2 608.7,161.2 609.9,161.2 611.1,161.2 612.3,161.2 613.5,161.2 614.7,161.2 615.9,161.2 617.1,161.2 618.3,161.2 619.5,161.2 620.7,161.2 621.9,161.2 623.1,161.2 624.3,161.2 625.5,161.2 626.7,161.2 627.9,161.2 629.1,161.2 630.3,161.2 631.5,161.2 632.7,161.2 633.9,161.2 635.1,161.2 636.3,161.2 637.5,161.2 638.7,161.2 639.9,161.2 641.1,161.2 642.3,161.2 643.5,161.2 644.7,161.2 645.9,161.2 647.1,161.2 648.3,161.2 649.5,161.2 650.7,161.2 651.9,161.2 653.1,161.2 654.3,161.2 655.5,161.2 656.7,161.2 657.9,161.2 659.1,161.2 660.3,161.2 661.5,161.2 662.7,161.2 663.9,161.2 665.1,161.2 666.3,161.2 667.5,161.2 668.7,161.2 669.9,161.2 671.1,161.2 672.3,161.2 673.5,161.2 674.7,161.2 675.9,161.2 677.2,161.2 678.4,161.2 679.6,161.2 680.8,161.2 682.0,161.2 683.2,161.2 684.4,161.2 685.6,161.2 686.8,161.2 688.0,161.2 689.2,161.2 690.4,161.2 691.6,161.2 692.8,161.2 694.0,161.2 695.2,161.2 696.4,161.2 697.6,161.2 698.8,161.2 700.0,161.2 701.2,161.2 702.4,161.2 703.6,161.2 704.8,161.2 706.0,161.2 707.2,161.2 708.4,161.2 709.6,161.2 710.8,161.2 712.0,161.2 713.2,161.2 714.4,161.2 715.6,161.2 716.8,161.2 718.0,161.2 719.2,161.2 720.4,161.2 721.6,161.2 722.8,161.2 724.0,161.2 725.2,161.2 726.4,161.2 727.6,161.2 728.8,161.2 730.0,161.2 731.2,161.2 732.4,161.2 733.6,161.2 734.8,161.2 736.0,161.2 737.2,161.2 738.4,161.2 739.6,161.2 740.8,161.2 742.0,161.2 743.2,161.2 744.4,161.2 745.6,161.2 746.8,161.2 748.0,161.2 749.2,161.2 750.4,161.2 751.6,161.2 752.8,161.2 754.0,161.2 755.2,161.2 756.4,161.2 757.6,161.2 758.8,161.2 760.0,161.2 761.2,161.2 762.4,161.2 763.6,161.2 764.8,161.2 766.0,161.2"/>
<line x1="606" y1="42" x2="628" y2="42" stroke="#0f62fe" stroke-width="2.2"/>
<text x="634" y="46" font-family="Arial" font-size="12">heading_command_deg</text>
<polyline fill="none" stroke="#24a148" stroke-width="2.2" points="54.0,160.0 55.2,160.1 56.4,160.2 57.6,160.4 58.8,160.7 60.0,161.1 61.2,161.6 62.4,162.1 63.6,162.7 64.8,163.4 66.0,164.1 67.2,164.9 68.4,165.7 69.6,166.6 70.8,167.5 72.0,168.4 73.2,169.3 74.4,170.1 75.6,170.9 76.8,171.7 78.0,172.4 79.2,173.1 80.4,173.6 81.6,174.0 82.8,174.3 84.0,174.5 85.2,174.5 86.4,174.4 87.6,174.1 88.8,173.7 90.0,173.1 91.2,172.4 92.4,171.6 93.6,170.6 94.8,169.4 96.0,168.2 97.2,166.9 98.4,165.6 99.6,164.2 100.8,162.8 102.0,161.4 103.2,160.1 104.4,158.9 105.6,157.8 106.8,156.9 108.0,156.2 109.2,155.8 110.4,155.7 111.6,155.9 112.8,156.6 114.0,157.7 115.2,159.3 116.4,161.5 117.6,163.9 118.8,166.5 120.0,168.9 121.2,170.9 122.4,172.3 123.6,173.0 124.8,172.7 126.0,170.9 127.2,166.8 128.4,159.9 129.6,150.7 130.8,141.2 132.0,133.9 133.2,128.9 134.4,126.3 135.6,125.7 136.8,127.2 138.0,131.1 139.2,138.0 140.4,148.4 141.6,161.3 142.8,173.3 144.1,182.2 145.3,187.9 146.5,190.9 147.7,191.4 148.9,188.7 150.1,180.3 151.3,163.2 152.5,145.1 153.7,135.8 154.9,132.5 156.1,132.8 157.3,136.3 158.5,144.8 159.7,161.1 160.9,179.6 162.1,190.8 163.3,195.9 164.5,197.3 165.7,195.5 166.9,190.0 168.1,179.5 169.3,164.6 170.5,151.1 171.7,142.6 172.9,138.4 174.1,137.3 175.3,140.0 176.5,151.3 177.7,180.8 178.9,201.5 180.1,207.6 181.3,208.5 182.5,206.3 183.7,201.2 184.9,192.0 186.1,178.3 187.3,163.2 188.5,151.3 189.7,143.2 190.9,137.5 192.1,133.0 193.3,129.0 194.5,124.9 195.7,261.6 196.9,228.8 198.1,224.9 199.3,220.9 200.5,216.1 201.7,209.9 202.9,202.0 204.1,191.9 205.3,180.0 206.5,167.4 207.7,155.5 208.9,145.0 210.1,135.5 211.3,126.0 212.5,116.0 213.7,104.4 214.9,90.7 216.1,75.5 217.3,60.9 218.5,260.4 219.7,249.3 220.9,239.3 222.1,229.7 223.3,220.0 224.5,210.0 225.7,199.5 226.9,188.3 228.1,176.3 229.3,163.7 230.5,150.6 231.7,138.0 232.9,126.3 234.1,115.5 235.3,105.5 236.5,96.3 237.7,87.9 238.9,80.3 240.1,73.3 241.3,66.4 242.5,59.4 243.7,264.1 244.9,256.0 246.1,247.0 247.3,236.8 248.5,225.1 249.7,211.9 250.9,197.7 252.1,183.9 253.3,171.0 254.5,159.2 255.7,148.2 256.9,138.3 258.1,129.3 259.3,121.0 260.5,113.3 261.7,106.0 262.9,99.1 264.1,92.6 265.3,86.4 266.5,79.9 267.7,72.8 268.9,64.8 270.1,54.5 271.3,250.4 272.5,219.7 273.7,188.8 274.9,171.9 276.1,161.2 277.3,152.8 278.5,144.6 279.7,135.8 280.9,125.7 282.1,114.6 283.3,103.3 284.5,93.0 285.7,84.3 286.9,77.1 288.1,71.2 289.3,66.5 290.5,62.9 291.7,61.7 292.9,121.9 294.1,150.8 295.3,149.5 296.5,147.6 297.7,145.3 298.9,142.4 300.1,138.5 301.3,133.0 302.5,124.5 303.7,111.9 304.9,96.9 306.1,84.2 307.3,75.9 308.5,71.1 309.7,68.8 310.9,68.2 312.1,69.2 313.3,72.1 314.5,77.6 315.7,86.8 316.9,100.4 318.1,115.3 319.3,127.1 320.5,135.8 321.8,142.6 323.0,148.5 324.2,154.1 325.4,160.0 326.6,166.7 327.8,175.1 329.0,186.3 330.2,200.9 331.4,216.6 332.6,229.9 333.8,239.7 335.0,246.9 336.2,252.6 337.4,257.6 338.6,262.4 339.8,55.0 341.0,60.3 342.2,66.1 343.4,72.4 344.6,78.9 345.8,85.1 347.0,90.6 348.2,95.2 349.4,99.1 350.6,102.7 351.8,106.0 353.0,109.2 354.2,112.3 355.4,115.0 356.6,117.6 357.8,120.2 359.0,122.9 360.2,125.8 361.4,128.5 362.6,130.7 363.8,132.0 365.0,132.3 366.2,131.3 367.4,128.6 368.6,124.2 369.8,117.9 371.0,111.4 372.2,106.5 373.4,103.8 374.6,102.9 375.8,103.4 377.0,105.0 378.2,107.3 379.4,110.4 380.6,114.5 381.8,119.6 383.0,126.3 384.2,135.3 385.4,146.3 386.6,157.5 387.8,166.9 389.0,173.9 390.2,178.8 391.4,182.2 392.6,184.1 393.8,184.7 395.0,183.5 396.2,180.2 397.4,174.6 398.6,166.8 399.8,158.1 401.0,150.5 402.2,144.8 403.4,141.1 404.6,138.8 405.8,137.6 407.0,137.2 408.2,137.6 409.4,139.7 410.6,146.0 411.8,168.6 413.0,205.1 414.2,217.3 415.4,221.2 416.6,222.5 417.8,222.5 419.0,221.5 420.2,219.6 421.4,216.5 422.6,212.2 423.8,206.7 425.0,200.0 426.2,192.4 427.4,184.5 428.6,177.0 429.8,170.1 431.0,163.7 432.2,157.4 433.4,150.8 434.6,143.0 435.8,132.3 437.0,116.4 438.2,96.1 439.4,78.9 440.6,67.5 441.8,59.8 443.0,266.0 444.2,260.7 445.4,255.5 446.6,250.1 447.8,244.3 449.0,238.1 450.2,231.5 451.4,224.3 452.6,216.8 453.8,209.1 455.0,201.1 456.2,192.6 457.4,183.4 458.6,173.7 459.8,163.3 461.0,152.3 462.2,141.3 463.4,130.7 464.6,121.1 465.8,112.5 467.0,104.7 468.2,97.3 469.4,90.1 470.6,82.8 471.8,75.5 473.0,68.3 474.2,61.1 475.4,54.0 476.6,259.2 477.8,252.2 479.0,245.2 480.2,238.3 481.4,231.4 482.6,224.7 483.8,218.2 485.0,211.8 486.2,205.4 487.4,198.9 488.6,192.2 489.8,185.4 491.0,178.3 492.2,171.1 493.4,163.7 494.6,156.0 495.8,148.1 497.0,140.5 498.2,133.5 499.5,127.3 500.7,121.6 501.9,116.4 503.1,111.3 504.3,106.2 505.5,100.9 506.7,95.4 507.9,89.8 509.1,84.0 510.3,78.2 511.5,72.1 512.7,65.8 513.9,59.0 515.1,263.5 516.3,254.1 517.5,241.5 518.7,224.3 519.9,204.3 521.1,186.8 522.3,173.7 523.5,163.5 524.7,154.7 525.9,146.5 527.1,138.2 528.3,129.3 529.5,119.6 530.7,109.2 531.9,98.9 533.1,89.2 534.3,80.5 535.5,72.8 536.7,66.0 537.9,59.5 539.1,265.4 540.3,258.7 541.5,251.4 542.7,243.1 543.9,233.6 545.1,222.3 546.3,209.3 547.5,195.4 548.7,182.0 549.9,170.3 551.1,160.7 552.3,152.6 553.5,145.6 554.7,139.3 555.9,133.4 557.1,127.8 558.3,122.2 559.5,116.2 560.7,109.7 561.9,102.4 563.1,94.0 564.3,85.4 565.5,77.0 566.7,69.5 567.9,63.2 569.1,58.0 570.3,265.9 571.5,262.2 572.7,258.8 573.9,255.6 575.1,252.6 576.3,249.6 577.5,246.7 578.7,243.8 579.9,240.9 581.1,238.0 582.3,235.0 583.5,232.0 584.7,228.8 585.9,225.7 587.1,222.6 588.3,219.6 589.5,217.0 590.7,214.7 591.9,212.7 593.1,210.9 594.3,209.5 595.5,208.4 596.7,207.7 597.9,207.2 599.1,206.7 600.3,206.2 601.5,205.4 602.7,204.2 603.9,202.2 605.1,199.1 606.3,194.2 607.5,187.0 608.7,177.4 609.9,166.4 611.1,156.2 612.3,148.5 613.5,143.8 614.7,141.2 615.9,139.8 617.1,139.0 618.3,138.8 619.5,139.0 620.7,139.6 621.9,140.8 623.1,142.7 624.3,145.5 625.5,149.5 626.7,154.6 627.9,160.6 629.1,167.2 630.3,173.7 631.5,179.8 632.7,185.1 633.9,189.0 635.1,191.6 636.3,192.9 637.5,193.7 638.7,194.0 639.9,193.8 641.1,192.8 642.3,191.2 643.5,189.0 644.7,186.1 645.9,182.9 647.1,179.2 648.3,175.0 649.5,170.0 650.7,164.2 651.9,157.8 653.1,151.6 654.3,146.4 655.5,142.5 656.7,139.6 657.9,137.5 659.1,136.2 660.3,135.7 661.5,135.9 662.7,136.5 663.9,137.2 665.1,138.0 666.3,138.6 667.5,139.0 668.7,139.3 669.9,139.3 671.1,139.1 672.3,139.0 673.5,138.6 674.7,138.0 675.9,136.9 677.2,135.4 678.4,133.4 679.6,130.7 680.8,126.7 682.0,120.1 683.2,111.3 684.4,101.7 685.6,93.5 686.8,87.8 688.0,84.1 689.2,81.7 690.4,80.3 691.6,79.8 692.8,80.4 694.0,82.1 695.2,84.6 696.4,87.7 697.6,91.2 698.8,95.2 700.0,99.7 701.2,104.9 702.4,110.5 703.6,116.0 704.8,121.2 706.0,125.6 707.2,129.3 708.4,132.5 709.6,135.1 710.8,137.3 712.0,138.9 713.2,139.1 714.4,136.9 715.6,130.7 716.8,119.5 718.0,105.9 719.2,95.1 720.4,88.9 721.6,85.6 722.8,84.2 724.0,83.6 725.2,83.1 726.4,81.7 727.6,78.4 728.8,72.1 730.0,61.5 731.2,261.3 732.4,252.4 733.6,247.9 734.8,246.0 736.0,245.3 737.2,245.2 738.4,246.3 739.6,248.5 740.8,251.5 742.0,255.0 743.2,258.8 744.4,263.0 745.6,55.5 746.8,61.4 748.0,69.8 749.2,89.0 750.4,144.7 751.6,165.0 752.8,172.5 754.0,177.6 755.2,182.2 756.4,186.9 757.6,192.0 758.8,197.6 760.0,203.8 761.2,210.5 762.4,217.4 763.6,224.1 764.8,230.6 766.0,236.4"/>
<line x1="606" y1="60" x2="628" y2="60" stroke="#24a148" stroke-width="2.2"/>
<text x="634" y="64" font-family="Arial" font-size="12">yaw_deg</text>
</svg>