<svg xmlns="http://www.w3.org/2000/svg" width="820" height="320" viewBox="0 0 820 320">
<rect width="100%" height="100%" fill="#ffffff"/>
<text x="54" y="28" font-family="Arial" font-size="18" font-weight="700">Specific Energy</text>
<line x1="54" y1="266" x2="766" y2="266" stroke="#1f2933"/>
<line x1="54" y1="54" x2="54" y2="266" stroke="#1f2933"/>
<text x="54" y="306" font-family="Arial" font-size="12">time (s)</text>
<text x="596" y="306" font-family="Arial" font-size="12">J/kg</text>
<text x="58" y="68" font-family="Arial" font-size="11">1.43e+04</text>
<text x="58" y="260" font-family="Arial" font-size="11">2.71e+03</text>
<polyline fill="none" stroke="#0f62fe" stroke-width="2.2" points="54.0,112.4 55.2,111.6 56.4,110.7 57.6,109.9 58.8,109.1 60.0,108.2 61.2,107.3 62.4,106.4 63.6,105.4 64.8,104.5 66.0,103.5 67.2,102.5 68.4,101.5 69.6,100.5 70.8,99.4 72.0,98.4 73.2,97.4 74.4,96.3 75.6,95.3 76.8,94.3 78.0,93.3 79.2,92.4 80.4,91.4 81.6,90.4 82.8,89.5 84.0,88.6 85.2,87.6 86.4,86.7 87.6,85.8 88.8,84.8 90.0,83.9 91.2,82.9 92.4,81.9 93.6,80.8 94.8,79.8 96.0,78.7 97.2,77.6 98.4,76.4 99.6,75.2 100.8,74.0 102.0,72.8 103.2,71.6 104.4,70.3 105.6,69.1 106.8,68.0 108.0,66.9 109.2,65.8 110.4,64.8 111.6,63.8 112.8,62.9 114.0,61.9 115.2,60.9 116.4,59.8 117.6,58.5 118.8,57.3 120.0,56.1 121.2,55.1 122.4,54.4 123.6,54.1 124.8,54.0 126.0,54.0 127.2,54.3 128.4,54.6 129.6,55.1 130.8,55.5 132.0,55.8 133.2,55.7 134.4,55.9 135.6,56.2 136.8,56.7 138.0,57.1 139.2,57.5 140.4,57.8 141.6,58.1 142.8,58.4 144.1,58.6 145.3,58.9 146.5,59.2 147.7,59.5 148.9,59.8 150.1,60.1 151.3,60.4 152.5,60.6 153.7,60.8 154.9,60.9 156.1,61.1 157.3,61.4 158.5,61.7 159.7,62.3 160.9,62.9 162.1,63.6 163.3,64.3 164.5,64.8 165.7,65.3 166.9,65.6 168.1,65.7 169.3,65.5 170.5,65.3 171.7,64.9 172.9,64.7 174.1,64.5 175.3,64.6 176.5,65.1 177.7,66.0 178.9,67.1 180.1,68.3 181.3,69.6 182.5,70.6 183.7,71.4 184.9,71.9 186.1,71.9 187.3,71.7 188.5,71.1 189.7,70.2 190.9,69.4 192.1,69.1 193.3,69.1 194.5,69.8 195.7,71.0 196.9,72.4 198.1,74.0 199.3,75.5 200.5,76.9 201.7,78.1 202.9,79.1 204.1,79.6 205.3,79.8 206.5,79.4 207.7,78.3 208.9,77.2 210.1,76.9 211.3,77.2 212.5,77.9 213.7,79.1 214.9,80.5 216.1,82.0 217.3,83.7 218.5,85.5 219.7,87.3 220.9,89.0 222.1,90.8 223.3,92.4 224.5,93.6 225.7,94.5 226.9,94.9 228.1,94.8 229.3,94.2 230.5,93.1 231.7,92.3 232.9,92.2 234.1,92.6 235.3,93.5 236.5,94.7 237.7,96.2 238.9,97.8 240.1,99.4 241.3,101.1 242.5,102.9 243.7,104.7 244.9,106.4 246.1,107.9 247.3,109.3 248.5,110.4 249.7,111.3 250.9,111.7 252.1,111.7 253.3,111.4 254.5,110.8 255.7,109.8 256.9,109.3 258.1,109.0 259.3,108.9 260.5,109.2 261.7,109.8 262.9,110.7 264.1,111.7 265.3,112.8 266.5,113.8 267.7,115.0 268.9,116.2 270.1,117.3 271.3,118.1 272.5,118.6 273.7,118.8 274.9,118.6 276.1,118.1 277.3,117.0 278.5,116.2 279.7,115.8 280.9,115.9 282.1,116.4 283.3,117.2 284.5,118.1 285.7,119.4 286.9,120.7 288.1,122.0 289.3,123.1 290.5,124.1 291.7,124.9 292.9,125.3 294.1,125.3 295.3,124.8 296.5,123.9 297.7,123.1 298.9,122.6 300.1,122.5 301.3,122.8 302.5,123.5 303.7,124.4 304.9,125.5 306.1,126.7 307.3,128.1 308.5,129.6 309.7,131.0 310.9,132.3 312.1,133.6 313.3,134.9 314.5,135.9 315.7,136.6 316.9,137.0 318.1,137.0 319.3,136.6 320.5,136.2 321.8,135.7 323.0,135.2 324.2,134.8 325.4,134.7 326.6,134.8 327.8,135.3 329.0,135.9 330.2,136.8 331.4,137.9 332.6,139.1 333.8,140.4 335.0,141.7 336.2,143.1 337.4,144.5 338.6,145.9 339.8,147.3 341.0,148.6 342.2,149.8 343.4,150.9 344.6,151.8 345.8,152.5 347.0,153.1 348.2,153.5 349.4,154.0 350.6,154.3 351.8,154.6 353.0,154.9 354.2,154.9 355.4,154.9 356.6,155.0 357.8,155.0 359.0,155.0 360.2,154.9 361.4,154.9 362.6,154.8 363.8,154.9 365.0,155.1 366.2,155.4 367.4,155.8 368.6,156.2 369.8,156.8 371.0,157.6 372.2,158.4 373.4,159.3 374.6,160.1 375.8,160.7 377.0,161.3 378.2,161.6 379.4,161.9 380.6,161.9 381.8,161.7 383.0,161.3 384.2,160.7 385.4,159.9 386.6,158.9 387.8,158.0 389.0,157.3 390.2,157.0 391.4,157.0 392.6,157.2 393.8,157.6 395.0,158.2 396.2,158.8 397.4,159.5 398.6,160.1 399.8,160.7 401.0,161.1 402.2,161.5 403.4,161.6 404.6,161.5 405.8,161.2 407.0,160.7 408.2,160.1 409.4,159.3 410.6,158.5 411.8,158.0 413.0,157.7 414.2,157.7 415.4,158.0 416.6,158.5 417.8,159.3 419.0,160.3 420.2,161.3 421.4,162.4 422.6,163.4 423.8,164.4 425.0,165.4 426.2,166.3 427.4,167.0 428.6,167.5 429.8,167.7 431.0,167.6 432.2,167.3 433.4,166.5 434.6,165.5 435.8,164.5 437.0,163.7 438.2,163.1 439.4,162.9 440.6,163.1 441.8,163.6 443.0,164.3 444.2,165.3 445.4,166.4 446.6,167.7 447.8,169.0 449.0,170.2 450.2,171.5 451.4,172.7 452.6,173.8 453.8,174.8 455.0,175.6 456.2,176.1 457.4,176.3 458.6,176.2 459.8,175.8 461.0,175.1 462.2,174.2 463.4,173.3 464.6,172.6 465.8,172.2 467.0,172.2 468.2,172.4 469.4,172.9 470.6,173.6 471.8,174.5 473.0,175.6 474.2,176.7 475.4,178.0 476.6,179.2 477.8,180.3 479.0,181.5 480.2,182.5 481.4,183.5 482.6,184.4 483.8,185.2 485.0,185.9 486.2,186.5 487.4,187.0 488.6,187.5 489.8,187.8 491.0,188.0 492.2,188.2 493.4,188.2 494.6,188.2 495.8,188.1 497.0,187.8 498.2,187.6 499.5,187.5 500.7,187.5 501.9,187.7 503.1,187.9 504.3,188.2 505.5,188.6 506.7,189.2 507.9,189.8 509.1,190.6 510.3,191.5 511.5,192.5 512.7,193.6 513.9,194.8 515.1,195.9 516.3,197.1 517.5,198.3 518.7,199.5 519.9,200.7 521.1,201.8 522.3,202.7 523.5,203.3 524.7,203.6 525.9,203.5 527.1,203.3 528.3,202.9 529.5,202.5 530.7,202.1 531.9,201.9 533.1,202.0 534.3,202.3 535.5,202.9 536.7,203.6 537.9,204.5 539.1,205.5 540.3,206.5 541.5,207.6 542.7,208.7 543.9,209.7 545.1,210.8 546.3,211.8 547.5,212.7 548.7,213.5 549.9,214.2 551.1,214.8 552.3,215.1 553.5,215.4 554.7,215.4 555.9,215.3 557.1,215.1 558.3,214.9 559.5,214.6 560.7,214.4 561.9,214.1 563.1,213.9 564.3,213.8 565.5,214.0 566.7,214.3 567.9,214.7 569.1,215.3 570.3,216.0 571.5,216.7 572.7,217.5 573.9,218.4 575.1,219.3 576.3,219.6 577.5,220.0 578.7,220.3 579.9,220.6 581.1,220.9 582.3,221.3 583.5,221.6 584.7,221.9 585.9,222.2 587.1,222.6 588.3,222.9 589.5,223.2 590.7,223.6 591.9,224.0 593.1,224.4 594.3,224.8 595.5,225.2 596.7,225.6 597.9,226.0 599.1,226.4 600.3,226.8 601.5,227.1 602.7,227.4 603.9,227.8 605.1,228.1 606.3,228.5 607.5,228.8 608.7,229.0 609.9,229.3 611.1,229.5 612.3,229.6 613.5,229.7 614.7,229.9 615.9,230.1 617.1,230.4 618.3,230.7 619.5,231.1 620.7,231.4 621.9,231.8 623.1,232.1 624.3,232.4 625.5,232.7 626.7,232.9 627.9,233.2 629.1,233.5 630.3,233.7 631.5,233.9 632.7,234.2 633.9,234.4 635.1,234.7 636.3,234.9 637.5,235.2 638.7,235.6 639.9,236.0 641.1,236.3 642.3,236.7 643.5,237.0 644.7,237.3 645.9,237.7 647.1,238.1 648.3,238.4 649.5,238.6 650.7,238.7 651.9,238.9 653.1,239.1 654.3,239.3 655.5,239.5 656.7,239.7 657.9,239.9 659.1,240.2 660.3,240.5 661.5,240.9 662.7,241.3 663.9,241.6 665.1,242.0 666.3,242.3 667.5,242.7 668.7,243.0 669.9,243.4 671.1,243.7 672.3,243.8 673.5,244.0 674.7,244.2 675.9,244.4 677.2,244.6 678.4,244.8 679.6,245.0 680.8,245.1 682.0,245.2 683.2,245.3 684.4,245.6 685.6,245.9 686.8,246.2 688.0,246.5 689.2,246.9 690.4,247.2 691.6,247.6 692.8,247.8 694.0,248.1 695.2,248.5 696.4,248.8 697.6,249.2 698.8,249.4 700.0,249.7 701.2,250.1 702.4,250.4 703.6,250.8 704.8,251.2 706.0,251.5 707.2,251.8 708.4,252.1 709.6,252.5 710.8,252.9 712.0,253.1 713.2,253.3 714.4,253.3 715.6,253.4 716.8,253.5 718.0,253.7 719.2,254.0 720.4,254.2 721.6,254.5 722.8,254.7 724.0,255.0 725.2,255.2 726.4,255.4 727.6,255.6 728.8,256.0 730.0,256.3 731.2,256.6 732.4,256.9 733.6,257.2 734.8,257.6 736.0,257.9 737.2,258.3 738.4,258.5 739.6,258.9 740.8,259.3 742.0,259.7 743.2,260.0 744.4,260.4 745.6,260.7 746.8,261.0 748.0,261.3 749.2,261.5 750.4,261.7 751.6,261.7 752.8,261.9 754.0,262.2 755.2,262.6 756.4,263.1 757.6,263.5 758.8,263.8 760.0,264.2 761.2,264.6 762.4,265.1 763.6,265.4 764.8,265.7 766.0,266.0"/>
<line x1="606" y1="42" x2="628" y2="42" stroke="#0f62fe" stroke-width="2.2"/>
<text x="634" y="46" font-family="Arial" font-size="12">energy_j_per_kg</text>
</svg>