<svg xmlns="http://www.w3.org/2000/svg" width="820" height="320" viewBox="0 0 820 320">
<rect width="100%" height="100%" fill="#ffffff"/>
<text x="54" y="28" font-family="Arial" font-size="18" font-weight="700">Qbar/Load Envelope</text>
<line x1="54" y1="266" x2="766" y2="266" stroke="#1f2933"/>
<line x1="54" y1="54" x2="54" y2="266" stroke="#1f2933"/>
<text x="54" y="306" font-family="Arial" font-size="12">qbar (Pa)</text>
<text x="596" y="306" font-family="Arial" font-size="12">load factor (g)</text>
<text x="58" y="68" font-family="Arial" font-size="11">3.49</text>
<text x="58" y="260" font-family="Arial" font-size="11">0.222</text>
<polyline fill="none" stroke="#0f62fe" stroke-width="2.2" points="277.2,168.7 283.0,166.6 288.9,164.6 295.0,162.6 301.2,160.6 307.7,158.6 314.5,156.6 321.4,154.6 328.6,152.6 335.9,150.6 343.5,148.7 351.4,146.7 359.4,144.7 367.6,142.7 376.0,142.1 384.5,142.1 393.0,142.1 401.6,142.0 410.1,141.8 418.5,141.6 427.0,141.3 435.4,141.0 443.7,140.6 452.0,140.2 460.2,139.9 468.4,139.6 476.7,139.4 484.9,139.3 493.3,139.4 501.7,139.7 510.2,140.1 518.9,140.6 527.8,141.2 536.9,141.8 546.2,142.5 555.7,143.1 565.4,143.5 575.4,143.6 585.6,143.4 595.9,142.6 606.4,142.7 616.8,142.9 627.1,142.4 637.2,140.8 647.0,140.1 656.4,138.5 665.3,136.4 673.8,134.3 682.0,132.8 690.1,132.5 698.3,133.7 706.9,136.5 716.3,139.4 726.6,141.7 737.5,143.5 747.6,129.1 756.1,122.6 761.9,110.2 764.8,106.0 766.0,101.9 765.8,93.8 764.1,90.1 761.3,86.4 757.8,80.5 753.9,88.5 751.7,119.5 752.6,80.7 750.9,82.3 747.6,96.4 743.8,97.9 740.0,99.1 736.5,101.2 733.4,103.3 730.9,105.0 728.9,104.0 727.0,103.0 725.2,101.6 723.2,99.8 721.1,98.2 719.0,98.7 717.0,98.6 715.2,96.7 713.4,98.2 711.6,99.9 709.9,100.6 707.8,100.4 705.2,97.2 701.6,94.3 697.3,92.6 692.4,90.2 687.3,94.4 682.7,100.3 679.1,105.9 676.7,111.5 675.8,117.4 676.4,121.7 678.6,107.7 681.6,90.7 684.6,78.2 686.7,77.8 687.4,80.7 686.1,91.9 682.0,83.9 675.5,78.8 667.3,75.3 658.4,76.8 649.9,89.3 643.6,99.7 639.5,109.5 637.9,119.4 639.3,122.9 643.4,98.8 649.2,118.0 657.2,123.2 663.8,117.6 667.0,117.1 667.6,88.3 662.0,80.0 653.5,73.7 642.8,71.8 631.4,78.4 621.0,84.8 611.9,87.5 604.3,90.4 598.8,96.6 596.3,110.4 597.7,102.1 602.9,128.0 613.4,138.5 623.8,99.7 626.9,96.6 625.6,84.5 620.6,69.7 612.5,59.6 602.0,74.9 591.2,70.0 578.4,69.7 565.0,74.3 551.9,74.2 539.0,70.9 526.5,70.9 515.1,78.7 506.3,87.9 500.9,98.9 499.3,107.5 501.7,101.8 508.2,134.4 519.4,130.9 526.9,121.2 528.6,102.1 526.2,84.2 520.1,70.7 510.9,65.3 499.7,64.4 487.6,63.4 474.8,61.4 461.5,58.1 447.9,54.0 433.9,58.2 420.9,74.0 409.7,77.6 399.4,83.6 390.9,90.6 385.0,103.6 382.6,118.8 383.8,130.5 388.0,118.0 394.1,131.3 403.6,124.7 408.6,136.3 412.0,123.8 413.0,108.4 411.5,89.7 407.0,81.3 400.6,77.0 392.8,75.6 384.6,83.6 376.9,80.8 368.2,80.8 359.4,86.0 351.8,97.7 346.6,106.1 343.9,113.3 343.9,122.7 347.1,116.6 353.6,132.8 364.4,130.9 372.7,119.3 376.9,108.2 377.5,93.2 374.7,82.3 369.4,87.8 362.9,81.8 354.3,79.4 344.7,86.5 335.9,91.9 328.3,93.4 321.9,97.4 317.5,106.2 316.4,116.4 318.8,113.0 325.1,132.0 334.9,131.8 342.8,130.6 348.6,116.0 351.1,101.4 350.5,88.8 347.0,79.1 341.0,72.5 333.2,84.7 325.3,81.2 316.0,81.3 306.2,86.1 296.7,88.6 287.5,88.8 278.7,88.2 270.5,92.5 263.9,98.6 259.7,105.9 258.4,110.9 260.8,118.9 265.4,119.2 270.3,130.0 276.4,138.4 282.9,137.1 288.5,124.1 292.2,112.8 293.8,103.9 293.3,95.6 290.9,88.3 286.7,82.4 281.0,77.8 274.0,75.2 266.2,73.7 257.7,75.0 249.0,76.4 240.2,76.9 231.3,77.5 222.4,79.0 213.9,82.2 206.1,86.9 199.4,92.6 194.2,98.2 190.3,102.3 187.6,103.2 185.5,102.6 183.7,104.1 182.5,105.7 181.8,107.7 181.7,108.6 183.2,111.2 184.6,113.5 185.9,114.0 187.2,115.6 188.8,120.9 191.0,123.1 193.3,121.1 195.1,116.6 195.8,114.7 195.7,112.7 194.8,110.8 193.1,109.3 190.8,95.4 186.7,92.0 181.4,90.4 175.6,90.2 169.4,92.2 163.6,96.9 158.5,101.3 154.5,105.4 151.5,109.5 149.9,114.0 149.8,119.8 151.2,127.7 154.4,127.5 159.3,129.2 166.6,130.5 175.1,129.5 183.6,124.7 190.9,119.1 195.6,117.2 197.9,112.6 198.3,105.1 197.1,99.6 194.6,96.6 191.3,97.7 187.8,99.9 184.6,102.1 181.9,105.2 179.8,108.9 178.8,113.3 179.0,119.1 180.8,126.3 184.3,133.9 189.5,132.4 196.0,131.3 203.5,129.6 211.2,124.1 217.6,121.2 222.2,120.2 225.0,110.6 225.8,101.9 224.7,94.6 221.8,89.1 217.8,87.3 213.0,88.5 208.1,89.9 203.3,91.2 198.9,92.5 194.9,93.8 191.7,97.4 189.7,104.3 189.5,112.8 191.4,122.3 195.6,122.6 202.1,127.2 211.7,131.2 222.9,130.4 234.1,126.5 243.8,123.2 251.5,113.1 255.6,110.9 257.0,100.7 256.1,91.8 253.1,84.3 248.2,79.1 242.0,77.1 235.0,78.4 227.8,79.4 220.7,80.1 213.8,81.0 207.3,82.9 201.5,87.8 197.0,94.9 194.3,103.6 193.8,113.6 195.7,122.4 200.1,123.1 206.7,129.9 216.1,131.9 226.8,131.6 237.1,124.5 245.6,119.7 251.3,113.7 254.1,109.2 254.5,99.8 252.6,91.8 248.8,85.5 243.2,80.8 236.3,78.4 228.6,77.5 220.3,79.7 212.1,82.3 204.3,85.2 196.9,88.3 190.2,91.7 184.2,95.0 179.2,97.9 174.9,101.0 171.4,104.2 168.9,107.5 167.2,110.7 166.4,113.8 166.6,116.2 167.5,117.6 169.1,119.2 171.3,122.5 174.1,118.6 177.5,122.9 182.6,116.5 186.2,120.8 188.6,117.7 189.8,114.9 190.0,112.6 189.3,112.6 188.0,111.5 186.0,109.0 183.0,105.5 178.9,101.8 173.8,98.5 167.6,96.4 160.8,95.5 153.5,95.9 146.0,97.2 138.7,83.8 131.0,84.4 123.3,85.0 115.7,85.8 108.6,89.6 102.7,96.1 98.4,104.2 96.4,113.2 96.8,119.8 99.7,126.4 103.8,128.4 108.7,130.9 113.9,128.6 118.5,121.8 121.6,113.4 122.6,108.6 121.8,104.4 119.3,101.1 115.4,98.7 110.5,97.3 104.8,98.4 99.0,100.3 93.1,101.6 87.3,102.3 81.7,102.6 76.4,103.2 71.4,104.3 67.1,107.0 63.8,109.8 61.5,112.7 60.4,115.7 60.5,119.5 61.9,123.4 64.7,126.3 68.4,127.5 72.8,126.6 77.6,124.3 82.2,123.9 86.9,118.8 91.4,122.2 96.5,117.3 99.2,114.5 100.6,109.6 100.8,105.0 99.7,101.2 97.6,98.1 94.5,96.7 90.8,96.5 86.7,96.2 82.3,95.9 77.6,216.4 77.6,216.8 77.5,217.3 77.5,218.4 77.4,219.4 77.3,220.1 77.2,220.6 77.0,220.9 76.7,221.1 76.3,221.0 75.8,220.5 75.2,219.3 74.5,216.3 73.6,212.3 72.4,207.5 71.0,207.0 69.5,207.4 67.9,207.9 66.3,208.7 64.7,209.8 63.2,211.5 61.9,214.6 61.1,215.7 60.1,215.1 58.9,215.2 57.7,216.4 56.7,221.5 56.0,229.0 55.7,229.0 55.8,219.7 56.0,245.2 57.3,258.3 58.7,221.0 58.7,227.3 58.5,226.2 58.1,220.6 57.5,215.5 56.6,214.9 55.7,215.3 54.9,216.5 54.4,230.1 54.5,228.1 54.3,227.2 54.1,227.5 54.0,233.8 54.3,240.6 54.9,240.2 55.5,232.6 55.8,230.8 56.1,231.3 56.5,232.7 57.2,216.9 57.2,214.4 56.9,213.3 56.5,213.7 56.0,220.1 56.0,222.7 56.1,221.5 56.3,218.2 56.4,215.8 56.5,215.1 56.9,239.5 58.5,239.6 60.5,217.4 62.0,217.8 63.5,219.4 65.0,214.5 66.4,224.1 68.0,243.1 69.9,208.5 70.6,208.0 70.8,207.0 70.8,210.5 71.0,214.8 71.3,218.2 71.8,218.9 72.3,216.7 72.7,214.6 73.1,216.4 73.7,214.5 74.8,253.3 77.2,219.6 78.9,211.8 80.2,218.6 81.7,220.2 83.3,216.1 84.9,212.3 86.7,240.0 89.4,254.9 92.1,226.1 93.7,221.6 94.8,226.7 95.7,223.5 96.4,215.7 96.7,212.4 96.7,212.2 96.7,208.2 96.9,217.3 97.7,221.9 98.0,220.9 98.1,221.1 98.0,225.5 98.1,231.7 98.5,230.1 98.8,221.2 98.7,214.7 98.2,214.4 97.5,215.6 97.0,215.2 96.8,218.8 97.1,198.2 96.3,202.1 95.5,205.8 95.0,209.7 94.9,232.0 96.0,266.0 97.9,254.0 99.9,221.9 100.9,212.0 101.4,216.3 101.8,216.6 102.0,213.0 102.0,206.0 101.9,197.7 101.7,220.4 102.3,239.0 103.4,216.8 103.6,207.5 103.2,216.6 103.1,223.6 103.2,225.4 103.3,220.7 103.2,211.8 102.7,208.4 102.3,204.0 102.1,238.1 103.1,213.8 103.1,212.8 102.7,210.9 102.2,211.2 101.8,218.3 101.9,222.6 102.1,224.3 102.6,224.0 103.1,218.7 103.9,210.0 105.2,264.2 108.0,241.3 110.2,212.8 111.1,202.0 111.2,197.4 111.0,197.3 110.9,219.0 111.7,209.9 111.5,209.4 111.2,210.5 111.0,218.4 111.4,227.8 112.2,226.7 112.8,218.1"/>
<line x1="606" y1="42" x2="628" y2="42" stroke="#0f62fe" stroke-width="2.2"/>
<text x="634" y="46" font-family="Arial" font-size="12">load_factor_g</text>
</svg>