<svg xmlns="http://www.w3.org/2000/svg" width="820" height="320" viewBox="0 0 820 320">
<rect width="100%" height="100%" fill="#ffffff"/>
<text x="54" y="28" font-family="Arial" font-size="18" font-weight="700">Downrange Position</text>
<line x1="54" y1="266" x2="766" y2="266" stroke="#1f2933"/>
<line x1="54" y1="54" x2="54" y2="266" stroke="#1f2933"/>
<text x="54" y="306" font-family="Arial" font-size="12">time (s)</text>
<text x="596" y="306" font-family="Arial" font-size="12">x (m)</text>
<text x="58" y="68" font-family="Arial" font-size="11">1.89e+03</text>
<text x="58" y="260" font-family="Arial" font-size="11">0</text>
<polyline fill="none" stroke="#0f62fe" stroke-width="2.2" points="54.0,266.0 55.1,265.7 56.1,265.4 57.2,265.1 58.3,264.9 59.3,264.6 60.4,264.3 61.5,264.0 62.6,263.7 63.6,263.4 64.7,263.1 65.8,262.8 66.8,262.5 67.9,262.2 69.0,261.9 70.0,261.6 71.1,261.3 72.2,260.9 73.2,260.6 74.3,260.3 75.4,260.0 76.5,259.7 77.5,259.4 78.6,259.0 79.7,258.7 80.7,258.4 81.8,258.1 82.9,257.7 83.9,257.4 85.0,257.1 86.1,256.7 87.1,256.4 88.2,256.1 89.3,255.7 90.3,255.4 91.4,255.0 92.5,254.7 93.6,254.3 94.6,254.0 95.7,253.6 96.8,253.3 97.8,252.9 98.9,252.6 100.0,252.2 101.0,251.9 102.1,251.5 103.2,251.1 104.2,250.8 105.3,250.4 106.4,250.0 107.5,249.7 108.5,249.3 109.6,248.9 110.7,248.5 111.7,248.2 112.8,247.8 113.9,247.4 114.9,247.0 116.0,246.6 117.1,246.2 118.1,245.9 119.2,245.5 120.3,245.1 121.4,244.7 122.4,244.3 123.5,243.9 124.6,243.5 125.6,243.1 126.7,242.7 127.8,242.3 128.8,241.9 129.9,241.5 131.0,241.1 132.0,240.7 133.1,240.3 134.2,239.8 135.2,239.4 136.3,239.0 137.4,238.6 138.5,238.2 139.5,237.8 140.6,237.3 141.7,236.9 142.7,236.5 143.8,236.1 144.9,235.6 145.9,235.2 147.0,234.8 148.1,234.3 149.1,233.9 150.2,233.5 151.3,233.0 152.4,232.6 153.4,232.1 154.5,231.7 155.6,231.2 156.6,230.8 157.7,230.3 158.8,229.9 159.8,229.4 160.9,229.0 162.0,228.5 163.0,228.1 164.1,227.6 165.2,227.1 166.3,226.7 167.3,226.2 168.4,225.7 169.5,225.3 170.5,224.8 171.6,224.3 172.7,223.9 173.7,223.4 174.8,222.9 175.9,222.4 176.9,222.0 178.0,221.5 179.1,221.0 180.2,220.5 181.2,220.0 182.3,219.5 183.4,219.0 184.4,218.5 185.5,218.0 186.6,217.6 187.6,217.1 188.7,216.6 189.8,216.1 190.8,215.6 191.9,215.1 193.0,214.6 194.0,214.0 195.1,213.5 196.2,213.0 197.3,212.5 198.3,212.0 199.4,211.5 200.5,211.0 201.5,210.5 202.6,209.9 203.7,209.4 204.7,208.9 205.8,208.4 206.9,207.8 207.9,207.3 209.0,206.8 210.1,206.3 211.2,205.7 212.2,205.2 213.3,204.7 214.4,204.1 215.4,203.6 216.5,203.0 217.6,202.5 218.6,202.0 219.7,201.4 220.8,200.9 221.8,200.3 222.9,199.8 224.0,199.2 225.1,198.7 226.1,198.1 227.2,197.6 228.3,197.0 229.3,196.5 230.4,195.9 231.5,195.3 232.5,194.8 233.6,194.2 234.7,193.6 235.7,193.1 236.8,192.5 237.9,191.9 238.9,191.4 240.0,190.8 241.1,190.2 242.2,189.7 243.2,189.1 244.3,188.5 245.4,187.9 246.4,187.3 247.5,186.8 248.6,186.2 249.6,185.6 250.7,185.0 251.8,184.4 252.8,183.8 253.9,183.2 255.0,182.7 256.1,182.1 257.1,181.5 258.2,180.9 259.3,180.3 260.3,179.7 261.4,179.1 262.5,178.5 263.5,178.0 264.6,177.4 265.7,176.8 266.7,176.2 267.8,175.6 268.9,175.1 270.0,174.5 271.0,173.9 272.1,173.4 273.2,172.8 274.2,172.2 275.3,171.7 276.4,171.1 277.4,170.6 278.5,170.0 279.6,169.5 280.6,168.9 281.7,168.4 282.8,167.8 283.8,167.3 284.9,166.7 286.0,166.2 287.1,165.7 288.1,165.1 289.2,164.6 290.3,164.1 291.3,163.6 292.4,163.0 293.5,162.5 294.5,162.0 295.6,161.5 296.7,161.0 297.7,160.5 298.8,160.0 299.9,159.5 301.0,159.0 302.0,158.5 303.1,158.1 304.2,157.6 305.2,157.1 306.3,156.6 307.4,156.2 308.4,155.7 309.5,155.2 310.6,154.8 311.6,154.3 312.7,153.9 313.8,153.4 314.9,153.0 315.9,152.6 317.0,152.1 318.1,151.7 319.1,151.3 320.2,150.8 321.3,150.4 322.3,150.0 323.4,149.6 324.5,149.2 325.5,148.8 326.6,148.4 327.7,148.0 328.8,147.6 329.8,147.2 330.9,146.8 332.0,146.4 333.0,146.1 334.1,145.7 335.2,145.3 336.2,144.9 337.3,144.6 338.4,144.2 339.4,143.9 340.5,143.5 341.6,143.1 342.6,142.8 343.7,142.4 344.8,142.1 345.9,141.8 346.9,141.4 348.0,141.1 349.1,140.8 350.1,140.4 351.2,140.1 352.3,139.8 353.3,139.5 354.4,139.1 355.5,138.8 356.5,138.5 357.6,138.2 358.7,137.8 359.8,137.5 360.8,137.2 361.9,136.9 363.0,136.5 364.0,136.2 365.1,135.9 366.2,135.5 367.2,135.2 368.3,134.9 369.4,134.5 370.4,134.2 371.5,133.9 372.6,133.5 373.7,133.2 374.7,132.8 375.8,132.5 376.9,132.1 377.9,131.8 379.0,131.4 380.1,131.1 381.1,130.7 382.2,130.4 383.3,130.0 384.3,129.7 385.4,129.3 386.5,129.0 387.5,128.6 388.6,128.3 389.7,127.9 390.8,127.6 391.8,127.2 392.9,126.8 394.0,126.5 395.0,126.1 396.1,125.8 397.2,125.4 398.2,125.1 399.3,124.7 400.4,124.3 401.4,124.0 402.5,123.6 403.6,123.2 404.7,122.9 405.7,122.5 406.8,122.1 407.9,121.8 408.9,121.4 410.0,121.0 411.1,120.6 412.1,120.3 413.2,119.9 414.3,119.5 415.3,119.2 416.4,118.8 417.5,118.4 418.6,118.1 419.6,117.7 420.7,117.3 421.8,116.9 422.8,116.6 423.9,116.2 425.0,115.8 426.0,115.5 427.1,115.1 428.2,114.7 429.2,114.4 430.3,114.0 431.4,113.7 432.5,113.3 433.5,112.9 434.6,112.6 435.7,112.2 436.7,111.9 437.8,111.5 438.9,111.2 439.9,110.8 441.0,110.5 442.1,110.1 443.1,109.8 444.2,109.4 445.3,109.1 446.3,108.7 447.4,108.4 448.5,108.1 449.6,107.7 450.6,107.4 451.7,107.1 452.8,106.8 453.8,106.4 454.9,106.1 456.0,105.8 457.0,105.5 458.1,105.2 459.2,104.9 460.2,104.6 461.3,104.2 462.4,103.9 463.5,103.6 464.5,103.3 465.6,103.1 466.7,102.8 467.7,102.5 468.8,102.2 469.9,101.9 470.9,101.6 472.0,101.4 473.1,101.1 474.1,100.8 475.2,100.5 476.3,100.3 477.4,100.0 478.4,99.8 479.5,99.5 480.6,99.3 481.6,99.0 482.7,98.8 483.8,98.5 484.8,98.3 485.9,98.1 487.0,97.8 488.0,97.6 489.1,97.4 490.2,97.1 491.2,96.9 492.3,96.7 493.4,96.5 494.5,96.3 495.5,96.0 496.6,95.8 497.7,95.6 498.7,95.4 499.8,95.2 500.9,95.0 501.9,94.7 503.0,94.5 504.1,94.3 505.1,94.1 506.2,93.9 507.3,93.6 508.4,93.4 509.4,93.2 510.5,92.9 511.6,92.7 512.6,92.5 513.7,92.2 514.8,92.0 515.8,91.8 516.9,91.5 518.0,91.3 519.0,91.1 520.1,90.9 521.2,90.6 522.3,90.4 523.3,90.2 524.4,90.0 525.5,89.7 526.5,89.5 527.6,89.3 528.7,89.1 529.7,88.8 530.8,88.6 531.9,88.4 532.9,88.2 534.0,88.0 535.1,87.7 536.2,87.5 537.2,87.3 538.3,87.1 539.4,86.9 540.4,86.6 541.5,86.4 542.6,86.2 543.6,86.0 544.7,85.8 545.8,85.5 546.8,85.3 547.9,85.1 549.0,84.9 550.0,84.7 551.1,84.4 552.2,84.2 553.3,84.0 554.3,83.8 555.4,83.6 556.5,83.4 557.5,83.1 558.6,82.9 559.7,82.7 560.7,82.5 561.8,82.3 562.9,82.1 563.9,81.9 565.0,81.7 566.1,81.4 567.2,81.2 568.2,81.0 569.3,80.8 570.4,80.6 571.4,80.4 572.5,80.2 573.6,80.0 574.6,79.8 575.7,79.6 576.8,79.4 577.8,79.2 578.9,79.0 580.0,78.8 581.1,78.6 582.1,78.4 583.2,78.2 584.3,78.0 585.3,77.8 586.4,77.6 587.5,77.4 588.5,77.2 589.6,77.1 590.7,76.9 591.7,76.7 592.8,76.5 593.9,76.3 594.9,76.1 596.0,75.9 597.1,75.8 598.2,75.6 599.2,75.4 600.3,75.2 601.4,75.0 602.4,74.8 603.5,74.7 604.6,74.5 605.6,74.3 606.7,74.1 607.8,74.0 608.8,73.8 609.9,73.6 611.0,73.4 612.1,73.3 613.1,73.1 614.2,72.9 615.3,72.8 616.3,72.6 617.4,72.4 618.5,72.2 619.5,72.1 620.6,71.9 621.7,71.7 622.7,71.6 623.8,71.4 624.9,71.2 626.0,71.1 627.0,70.9 628.1,70.8 629.2,70.6 630.2,70.4 631.3,70.3 632.4,70.1 633.4,70.0 634.5,69.8 635.6,69.6 636.6,69.5 637.7,69.3 638.8,69.2 639.8,69.0 640.9,68.9 642.0,68.7 643.1,68.6 644.1,68.4 645.2,68.3 646.3,68.1 647.3,67.9 648.4,67.8 649.5,67.6 650.5,67.5 651.6,67.3 652.7,67.2 653.7,67.0 654.8,66.9 655.9,66.7 657.0,66.6 658.0,66.4 659.1,66.3 660.2,66.1 661.2,66.0 662.3,65.8 663.4,65.7 664.4,65.5 665.5,65.4 666.6,65.2 667.6,65.1 668.7,64.9 669.8,64.8 670.9,64.6 671.9,64.5 673.0,64.3 674.1,64.2 675.1,64.0 676.2,63.9 677.3,63.7 678.3,63.6 679.4,63.5 680.5,63.3 681.5,63.2 682.6,63.0 683.7,62.9 684.8,62.8 685.8,62.6 686.9,62.5 688.0,62.4 689.0,62.2 690.1,62.1 691.2,62.0 692.2,61.8 693.3,61.7 694.4,61.6 695.4,61.4 696.5,61.3 697.6,61.2 698.6,61.1 699.7,60.9 700.8,60.8 701.9,60.7 702.9,60.5 704.0,60.4 705.1,60.3 706.1,60.2 707.2,60.0 708.3,59.9 709.3,59.8 710.4,59.7 711.5,59.5 712.5,59.4 713.6,59.3 714.7,59.2 715.8,59.1 716.8,58.9 717.9,58.8 719.0,58.7 720.0,58.6 721.1,58.5 722.2,58.4 723.2,58.2 724.3,58.1 725.4,58.0 726.4,57.9 727.5,57.8 728.6,57.7 729.7,57.6 730.7,57.4 731.8,57.3 732.9,57.2 733.9,57.1 735.0,57.0 736.1,56.9 737.1,56.8 738.2,56.7 739.3,56.6 740.3,56.5 741.4,56.4 742.5,56.3 743.5,56.1 744.6,56.0 745.7,55.9 746.8,55.8 747.8,55.7 748.9,55.6 750.0,55.5 751.0,55.4 752.1,55.3 753.2,55.2 754.2,55.1 755.3,55.0 756.4,54.9 757.4,54.8 758.5,54.7 759.6,54.6 760.7,54.5 761.7,54.4 762.8,54.3 763.9,54.2 764.9,54.1 766.0,54.0"/>
<line x1="606" y1="42" x2="628" y2="42" stroke="#0f62fe" stroke-width="2.2"/>
<text x="634" y="46" font-family="Arial" font-size="12">x_m</text>
</svg>