<svg xmlns="http://www.w3.org/2000/svg" width="820" height="320" viewBox="0 0 820 320">
<rect width="100%" height="100%" fill="#ffffff"/>
<text x="54" y="28" font-family="Arial" font-size="18" font-weight="700">Altitude Position</text>
<line x1="54" y1="266" x2="766" y2="266" stroke="#1f2933"/>
<line x1="54" y1="54" x2="54" y2="266" stroke="#1f2933"/>
<text x="54" y="306" font-family="Arial" font-size="12">time (s)</text>
<text x="596" y="306" font-family="Arial" font-size="12">z (m)</text>
<text x="58" y="68" font-family="Arial" font-size="11">1.06e+03</text>
<text x="58" y="260" font-family="Arial" font-size="11">278</text>
<polyline fill="none" stroke="#0f62fe" stroke-width="2.2" points="54.0,69.8 55.1,69.7 56.1,69.6 57.2,69.5 58.3,69.3 59.3,69.2 60.4,69.1 61.5,69.0 62.6,68.9 63.6,68.8 64.7,68.7 65.8,68.6 66.8,68.5 67.9,68.4 69.0,68.3 70.0,68.1 71.1,68.0 72.2,67.9 73.2,67.8 74.3,67.7 75.4,67.6 76.5,67.5 77.5,67.4 78.6,67.3 79.7,67.2 80.7,67.1 81.8,67.0 82.9,66.9 83.9,66.9 85.0,66.8 86.1,66.7 87.1,66.6 88.2,66.5 89.3,66.4 90.3,66.3 91.4,66.2 92.5,66.1 93.6,66.0 94.6,65.9 95.7,65.8 96.8,65.7 97.8,65.6 98.9,65.5 100.0,65.5 101.0,65.4 102.1,65.3 103.2,65.2 104.2,65.1 105.3,65.0 106.4,64.9 107.5,64.8 108.5,64.7 109.6,64.6 110.7,64.6 111.7,64.5 112.8,64.4 113.9,64.3 114.9,64.2 116.0,64.1 117.1,64.0 118.1,63.9 119.2,63.8 120.3,63.8 121.4,63.7 122.4,63.6 123.5,63.5 124.6,63.4 125.6,63.3 126.7,63.2 127.8,63.1 128.8,63.1 129.9,63.0 131.0,62.9 132.0,62.8 133.1,62.7 134.2,62.6 135.2,62.5 136.3,62.5 137.4,62.4 138.5,62.3 139.5,62.2 140.6,62.1 141.7,62.0 142.7,61.9 143.8,61.9 144.9,61.8 145.9,61.7 147.0,61.6 148.1,61.5 149.1,61.5 150.2,61.4 151.3,61.3 152.4,61.2 153.4,61.1 154.5,61.0 155.6,61.0 156.6,60.9 157.7,60.8 158.8,60.7 159.8,60.7 160.9,60.6 162.0,60.5 163.0,60.4 164.1,60.4 165.2,60.3 166.3,60.2 167.3,60.1 168.4,60.1 169.5,60.0 170.5,59.9 171.6,59.8 172.7,59.8 173.7,59.7 174.8,59.6 175.9,59.5 176.9,59.5 178.0,59.4 179.1,59.3 180.2,59.3 181.2,59.2 182.3,59.1 183.4,59.0 184.4,59.0 185.5,58.9 186.6,58.8 187.6,58.8 188.7,58.7 189.8,58.6 190.8,58.6 191.9,58.5 193.0,58.4 194.0,58.3 195.1,58.3 196.2,58.2 197.3,58.1 198.3,58.1 199.4,58.0 200.5,57.9 201.5,57.9 202.6,57.8 203.7,57.7 204.7,57.7 205.8,57.6 206.9,57.5 207.9,57.5 209.0,57.4 210.1,57.3 211.2,57.3 212.2,57.2 213.3,57.1 214.4,57.1 215.4,57.0 216.5,56.9 217.6,56.8 218.6,56.8 219.7,56.7 220.8,56.6 221.8,56.6 222.9,56.5 224.0,56.4 225.1,56.4 226.1,56.3 227.2,56.2 228.3,56.2 229.3,56.1 230.4,56.0 231.5,55.9 232.5,55.9 233.6,55.8 234.7,55.7 235.7,55.7 236.8,55.6 237.9,55.5 238.9,55.4 240.0,55.4 241.1,55.3 242.2,55.2 243.2,55.1 244.3,55.1 245.4,55.0 246.4,54.9 247.5,54.8 248.6,54.8 249.6,54.7 250.7,54.6 251.8,54.6 252.8,54.5 253.9,54.4 255.0,54.3 256.1,54.3 257.1,54.2 258.2,54.2 259.3,54.1 260.3,54.1 261.4,54.1 262.5,54.0 263.5,54.0 264.6,54.0 265.7,54.0 266.7,54.0 267.8,54.0 268.9,54.0 270.0,54.0 271.0,54.1 272.1,54.1 273.2,54.1 274.2,54.2 275.3,54.2 276.4,54.3 277.4,54.4 278.5,54.4 279.6,54.5 280.6,54.6 281.7,54.7 282.8,54.8 283.8,54.9 284.9,55.0 286.0,55.2 287.1,55.3 288.1,55.4 289.2,55.6 290.3,55.7 291.3,55.9 292.4,56.1 293.5,56.2 294.5,56.4 295.6,56.6 296.7,56.8 297.7,57.0 298.8,57.2 299.9,57.4 301.0,57.6 302.0,57.9 303.1,58.1 304.2,58.3 305.2,58.6 306.3,58.8 307.4,59.1 308.4,59.4 309.5,59.6 310.6,59.9 311.6,60.2 312.7,60.5 313.8,60.8 314.9,61.1 315.9,61.4 317.0,61.7 318.1,62.0 319.1,62.3 320.2,62.6 321.3,63.0 322.3,63.3 323.4,63.6 324.5,64.0 325.5,64.3 326.6,64.7 327.7,65.0 328.8,65.4 329.8,65.7 330.9,66.1 332.0,66.4 333.0,66.8 334.1,67.2 335.2,67.5 336.2,67.9 337.3,68.3 338.4,68.7 339.4,69.1 340.5,69.4 341.6,69.8 342.6,70.2 343.7,70.6 344.8,71.0 345.9,71.4 346.9,71.8 348.0,72.2 349.1,72.6 350.1,73.0 351.2,73.3 352.3,73.7 353.3,74.2 354.4,74.6 355.5,75.0 356.5,75.4 357.6,75.8 358.7,76.2 359.8,76.6 360.8,77.0 361.9,77.4 363.0,77.8 364.0,78.2 365.1,78.6 366.2,78.9 367.2,79.3 368.3,79.7 369.4,80.1 370.4,80.5 371.5,80.8 372.6,81.2 373.7,81.6 374.7,82.0 375.8,82.3 376.9,82.7 377.9,83.1 379.0,83.4 380.1,83.8 381.1,84.2 382.2,84.5 383.3,84.9 384.3,85.3 385.4,85.6 386.5,86.0 387.5,86.4 388.6,86.8 389.7,87.2 390.8,87.6 391.8,88.0 392.9,88.3 394.0,88.7 395.0,89.1 396.1,89.5 397.2,89.9 398.2,90.3 399.3,90.7 400.4,91.0 401.4,91.4 402.5,91.8 403.6,92.2 404.7,92.6 405.7,92.9 406.8,93.3 407.9,93.7 408.9,94.1 410.0,94.5 411.1,94.8 412.1,95.2 413.2,95.6 414.3,96.0 415.3,96.4 416.4,96.8 417.5,97.2 418.6,97.5 419.6,97.9 420.7,98.3 421.8,98.7 422.8,99.1 423.9,99.5 425.0,99.9 426.0,100.3 427.1,100.7 428.2,101.1 429.2,101.5 430.3,101.9 431.4,102.3 432.5,102.7 433.5,103.1 434.6,103.5 435.7,103.9 436.7,104.3 437.8,104.7 438.9,105.1 439.9,105.5 441.0,105.9 442.1,106.4 443.1,106.8 444.2,107.2 445.3,107.6 446.3,108.0 447.4,108.4 448.5,108.9 449.6,109.3 450.6,109.7 451.7,110.1 452.8,110.5 453.8,111.0 454.9,111.4 456.0,111.8 457.0,112.3 458.1,112.7 459.2,113.1 460.2,113.6 461.3,114.0 462.4,114.4 463.5,114.9 464.5,115.3 465.6,115.8 466.7,116.2 467.7,116.7 468.8,117.1 469.9,117.5 470.9,118.0 472.0,118.5 473.1,118.9 474.1,119.4 475.2,119.8 476.3,120.3 477.4,120.7 478.4,121.2 479.5,121.7 480.6,122.1 481.6,122.6 482.7,123.1 483.8,123.5 484.8,124.0 485.9,124.5 487.0,125.0 488.0,125.4 489.1,125.9 490.2,126.4 491.2,126.9 492.3,127.4 493.4,127.9 494.5,128.4 495.5,128.9 496.6,129.4 497.7,130.0 498.7,130.5 499.8,131.0 500.9,131.5 501.9,132.1 503.0,132.6 504.1,133.1 505.1,133.7 506.2,134.2 507.3,134.7 508.4,135.3 509.4,135.8 510.5,136.3 511.6,136.9 512.6,137.4 513.7,137.9 514.8,138.5 515.8,139.0 516.9,139.5 518.0,140.1 519.0,140.6 520.1,141.1 521.2,141.7 522.3,142.2 523.3,142.8 524.4,143.3 525.5,143.8 526.5,144.4 527.6,144.9 528.7,145.5 529.7,146.0 530.8,146.6 531.9,147.1 532.9,147.7 534.0,148.2 535.1,148.8 536.2,149.3 537.2,149.9 538.3,150.4 539.4,151.0 540.4,151.5 541.5,152.1 542.6,152.6 543.6,153.2 544.7,153.7 545.8,154.3 546.8,154.8 547.9,155.4 549.0,155.9 550.0,156.4 551.1,157.0 552.2,157.5 553.3,158.1 554.3,158.6 555.4,159.2 556.5,159.7 557.5,160.2 558.6,160.8 559.7,161.3 560.7,161.9 561.8,162.4 562.9,163.0 563.9,163.5 565.0,164.1 566.1,164.6 567.2,165.2 568.2,165.7 569.3,166.3 570.4,166.8 571.4,167.4 572.5,167.9 573.6,168.5 574.6,169.0 575.7,169.6 576.8,170.1 577.8,170.7 578.9,171.3 580.0,171.8 581.1,172.4 582.1,172.9 583.2,173.5 584.3,174.0 585.3,174.6 586.4,175.1 587.5,175.7 588.5,176.2 589.6,176.8 590.7,177.3 591.7,177.9 592.8,178.4 593.9,179.0 594.9,179.5 596.0,180.1 597.1,180.6 598.2,181.2 599.2,181.7 600.3,182.3 601.4,182.8 602.4,183.4 603.5,183.9 604.6,184.5 605.6,185.0 606.7,185.6 607.8,186.1 608.8,186.7 609.9,187.2 611.0,187.8 612.1,188.3 613.1,188.9 614.2,189.4 615.3,190.0 616.3,190.5 617.4,191.1 618.5,191.6 619.5,192.2 620.6,192.7 621.7,193.2 622.7,193.8 623.8,194.3 624.9,194.9 626.0,195.4 627.0,195.9 628.1,196.5 629.2,197.0 630.2,197.6 631.3,198.1 632.4,198.6 633.4,199.2 634.5,199.7 635.6,200.3 636.6,200.8 637.7,201.3 638.8,201.9 639.8,202.4 640.9,202.9 642.0,203.5 643.1,204.0 644.1,204.6 645.2,205.1 646.3,205.6 647.3,206.2 648.4,206.7 649.5,207.2 650.5,207.8 651.6,208.3 652.7,208.8 653.7,209.3 654.8,209.9 655.9,210.4 657.0,210.9 658.0,211.4 659.1,212.0 660.2,212.5 661.2,213.0 662.3,213.5 663.4,214.1 664.4,214.6 665.5,215.1 666.6,215.6 667.6,216.2 668.7,216.7 669.8,217.2 670.9,217.7 671.9,218.3 673.0,218.8 674.1,219.3 675.1,219.9 676.2,220.4 677.3,220.9 678.3,221.5 679.4,222.0 680.5,222.5 681.5,223.1 682.6,223.6 683.7,224.1 684.8,224.7 685.8,225.2 686.9,225.8 688.0,226.3 689.0,226.8 690.1,227.4 691.2,227.9 692.2,228.4 693.3,229.0 694.4,229.5 695.4,230.1 696.5,230.6 697.6,231.1 698.6,231.7 699.7,232.2 700.8,232.8 701.9,233.3 702.9,233.8 704.0,234.4 705.1,234.9 706.1,235.5 707.2,236.0 708.3,236.5 709.3,237.1 710.4,237.6 711.5,238.2 712.5,238.7 713.6,239.2 714.7,239.8 715.8,240.3 716.8,240.9 717.9,241.4 719.0,242.0 720.0,242.5 721.1,243.1 722.2,243.6 723.2,244.1 724.3,244.7 725.4,245.2 726.4,245.8 727.5,246.3 728.6,246.9 729.7,247.4 730.7,248.0 731.8,248.5 732.9,249.0 733.9,249.6 735.0,250.1 736.1,250.7 737.1,251.2 738.2,251.8 739.3,252.3 740.3,252.9 741.4,253.4 742.5,254.0 743.5,254.5 744.6,255.1 745.7,255.6 746.8,256.2 747.8,256.7 748.9,257.2 750.0,257.8 751.0,258.3 752.1,258.9 753.2,259.4 754.2,260.0 755.3,260.5 756.4,261.1 757.4,261.6 758.5,262.2 759.6,262.7 760.7,263.3 761.7,263.8 762.8,264.4 763.9,264.9 764.9,265.5 766.0,266.0"/>
<line x1="606" y1="42" x2="628" y2="42" stroke="#0f62fe" stroke-width="2.2"/>
<text x="634" y="46" font-family="Arial" font-size="12">altitude_m</text>
</svg>