<svg xmlns="http://www.w3.org/2000/svg" width="820" height="320" viewBox="0 0 820 320">
<rect width="100%" height="100%" fill="#ffffff"/>
<text x="54" y="28" font-family="Arial" font-size="18" font-weight="700">Actuator Saturation</text>
<line x1="54" y1="266" x2="766" y2="266" stroke="#1f2933"/>
<line x1="54" y1="54" x2="54" y2="266" stroke="#1f2933"/>
<text x="54" y="306" font-family="Arial" font-size="12">time (s)</text>
<text x="596" y="306" font-family="Arial" font-size="12">flag</text>
<text x="58" y="68" font-family="Arial" font-size="11">1</text>
<text x="58" y="260" font-family="Arial" font-size="11">0</text>
<polyline fill="none" stroke="#0f62fe" stroke-width="2.2" points="54.0,266.0 55.1,266.0 56.1,266.0 57.2,266.0 58.3,266.0 59.3,266.0 60.4,266.0 61.5,266.0 62.6,266.0 63.6,266.0 64.7,266.0 65.8,266.0 66.8,266.0 67.9,266.0 69.0,266.0 70.0,266.0 71.1,266.0 72.2,266.0 73.2,266.0 74.3,266.0 75.4,266.0 76.5,266.0 77.5,266.0 78.6,266.0 79.7,266.0 80.7,266.0 81.8,266.0 82.9,266.0 83.9,266.0 85.0,266.0 86.1,266.0 87.1,266.0 88.2,266.0 89.3,266.0 90.3,266.0 91.4,266.0 92.5,266.0 93.6,266.0 94.6,266.0 95.7,266.0 96.8,266.0 97.8,266.0 98.9,266.0 100.0,266.0 101.0,266.0 102.1,266.0 103.2,266.0 104.2,266.0 105.3,266.0 106.4,266.0 107.5,266.0 108.5,266.0 109.6,266.0 110.7,266.0 111.7,266.0 112.8,266.0 113.9,266.0 114.9,266.0 116.0,266.0 117.1,266.0 118.1,266.0 119.2,266.0 120.3,266.0 121.4,266.0 122.4,266.0 123.5,266.0 124.6,266.0 125.6,266.0 126.7,266.0 127.8,266.0 128.8,266.0 129.9,266.0 131.0,266.0 132.0,266.0 133.1,266.0 134.2,266.0 135.2,266.0 136.3,266.0 137.4,266.0 138.5,266.0 139.5,266.0 140.6,266.0 141.7,266.0 142.7,266.0 143.8,266.0 144.9,266.0 145.9,266.0 147.0,266.0 148.1,266.0 149.1,266.0 150.2,266.0 151.3,266.0 152.4,266.0 153.4,266.0 154.5,266.0 155.6,266.0 156.6,266.0 157.7,266.0 158.8,266.0 159.8,266.0 160.9,266.0 162.0,266.0 163.0,266.0 164.1,266.0 165.2,266.0 166.3,266.0 167.3,266.0 168.4,266.0 169.5,266.0 170.5,266.0 171.6,266.0 172.7,266.0 173.7,266.0 174.8,266.0 175.9,266.0 176.9,266.0 178.0,266.0 179.1,266.0 180.2,266.0 181.2,266.0 182.3,266.0 183.4,266.0 184.4,266.0 185.5,266.0 186.6,266.0 187.6,266.0 188.7,266.0 189.8,266.0 190.8,266.0 191.9,266.0 193.0,266.0 194.0,266.0 195.1,266.0 196.2,266.0 197.3,266.0 198.3,266.0 199.4,266.0 200.5,266.0 201.5,266.0 202.6,266.0 203.7,266.0 204.7,266.0 205.8,266.0 206.9,266.0 207.9,266.0 209.0,266.0 210.1,266.0 211.2,266.0 212.2,266.0 213.3,266.0 214.4,266.0 215.4,266.0 216.5,266.0 217.6,266.0 218.6,266.0 219.7,266.0 220.8,266.0 221.8,266.0 222.9,266.0 224.0,266.0 225.1,266.0 226.1,266.0 227.2,266.0 228.3,266.0 229.3,266.0 230.4,266.0 231.5,266.0 232.5,266.0 233.6,266.0 234.7,266.0 235.7,266.0 236.8,266.0 237.9,266.0 238.9,266.0 240.0,266.0 241.1,266.0 242.2,266.0 243.2,266.0 244.3,266.0 245.4,266.0 246.4,266.0 247.5,266.0 248.6,266.0 249.6,266.0 250.7,266.0 251.8,266.0 252.8,266.0 253.9,266.0 255.0,266.0 256.1,266.0 257.1,266.0 258.2,266.0 259.3,266.0 260.3,266.0 261.4,266.0 262.5,266.0 263.5,266.0 264.6,266.0 265.7,266.0 266.7,266.0 267.8,266.0 268.9,266.0 270.0,266.0 271.0,266.0 272.1,266.0 273.2,266.0 274.2,266.0 275.3,266.0 276.4,266.0 277.4,266.0 278.5,266.0 279.6,266.0 280.6,266.0 281.7,266.0 282.8,266.0 283.8,266.0 284.9,266.0 286.0,266.0 287.1,266.0 288.1,266.0 289.2,266.0 290.3,266.0 291.3,266.0 292.4,266.0 293.5,266.0 294.5,266.0 295.6,266.0 296.7,266.0 297.7,266.0 298.8,266.0 299.9,266.0 301.0,266.0 302.0,266.0 303.1,266.0 304.2,266.0 305.2,266.0 306.3,266.0 307.4,266.0 308.4,266.0 309.5,266.0 310.6,266.0 311.6,266.0 312.7,266.0 313.8,266.0 314.9,266.0 315.9,266.0 317.0,266.0 318.1,266.0 319.1,266.0 320.2,266.0 321.3,266.0 322.3,266.0 323.4,266.0 324.5,266.0 325.5,266.0 326.6,266.0 327.7,266.0 328.8,266.0 329.8,266.0 330.9,266.0 332.0,266.0 333.0,266.0 334.1,266.0 335.2,266.0 336.2,266.0 337.3,266.0 338.4,266.0 339.4,266.0 340.5,266.0 341.6,266.0 342.6,266.0 343.7,266.0 344.8,266.0 345.9,266.0 346.9,266.0 348.0,266.0 349.1,266.0 350.1,266.0 351.2,266.0 352.3,266.0 353.3,266.0 354.4,266.0 355.5,266.0 356.5,266.0 357.6,266.0 358.7,266.0 359.8,266.0 360.8,266.0 361.9,266.0 363.0,266.0 364.0,266.0 365.1,266.0 366.2,266.0 367.2,266.0 368.3,266.0 369.4,266.0 370.4,266.0 371.5,266.0 372.6,266.0 373.7,266.0 374.7,266.0 375.8,266.0 376.9,266.0 377.9,266.0 379.0,266.0 380.1,266.0 381.1,266.0 382.2,266.0 383.3,266.0 384.3,266.0 385.4,266.0 386.5,266.0 387.5,266.0 388.6,266.0 389.7,266.0 390.8,266.0 391.8,266.0 392.9,266.0 394.0,266.0 395.0,266.0 396.1,266.0 397.2,266.0 398.2,266.0 399.3,266.0 400.4,266.0 401.4,266.0 402.5,266.0 403.6,266.0 404.7,266.0 405.7,266.0 406.8,266.0 407.9,266.0 408.9,266.0 410.0,266.0 411.1,266.0 412.1,266.0 413.2,266.0 414.3,266.0 415.3,266.0 416.4,266.0 417.5,266.0 418.6,266.0 419.6,266.0 420.7,266.0 421.8,266.0 422.8,266.0 423.9,266.0 425.0,266.0 426.0,266.0 427.1,266.0 428.2,266.0 429.2,266.0 430.3,266.0 431.4,266.0 432.5,266.0 433.5,266.0 434.6,266.0 435.7,266.0 436.7,266.0 437.8,266.0 438.9,266.0 439.9,266.0 441.0,266.0 442.1,266.0 443.1,266.0 444.2,266.0 445.3,266.0 446.3,266.0 447.4,266.0 448.5,266.0 449.6,266.0 450.6,266.0 451.7,266.0 452.8,266.0 453.8,266.0 454.9,266.0 456.0,266.0 457.0,266.0 458.1,266.0 459.2,266.0 460.2,266.0 461.3,266.0 462.4,266.0 463.5,266.0 464.5,266.0 465.6,266.0 466.7,266.0 467.7,266.0 468.8,266.0 469.9,266.0 470.9,266.0 472.0,266.0 473.1,266.0 474.1,266.0 475.2,266.0 476.3,266.0 477.4,266.0 478.4,266.0 479.5,266.0 480.6,266.0 481.6,266.0 482.7,266.0 483.8,266.0 484.8,266.0 485.9,266.0 487.0,266.0 488.0,266.0 489.1,266.0 490.2,266.0 491.2,266.0 492.3,266.0 493.4,266.0 494.5,266.0 495.5,266.0 496.6,266.0 497.7,266.0 498.7,266.0 499.8,266.0 500.9,266.0 501.9,266.0 503.0,266.0 504.1,266.0 505.1,266.0 506.2,266.0 507.3,54.0 508.4,54.0 509.4,266.0 510.5,266.0 511.6,266.0 512.6,266.0 513.7,54.0 514.8,54.0 515.8,266.0 516.9,266.0 518.0,266.0 519.0,266.0 520.1,266.0 521.2,266.0 522.3,266.0 523.3,266.0 524.4,266.0 525.5,266.0 526.5,266.0 527.6,266.0 528.7,266.0 529.7,266.0 530.8,266.0 531.9,266.0 532.9,266.0 534.0,266.0 535.1,266.0 536.2,266.0 537.2,266.0 538.3,266.0 539.4,266.0 540.4,266.0 541.5,266.0 542.6,266.0 543.6,266.0 544.7,266.0 545.8,266.0 546.8,266.0 547.9,266.0 549.0,266.0 550.0,266.0 551.1,266.0 552.2,266.0 553.3,266.0 554.3,266.0 555.4,266.0 556.5,266.0 557.5,266.0 558.6,266.0 559.7,266.0 560.7,266.0 561.8,266.0 562.9,266.0 563.9,266.0 565.0,266.0 566.1,266.0 567.2,266.0 568.2,266.0 569.3,266.0 570.4,266.0 571.4,266.0 572.5,266.0 573.6,266.0 574.6,266.0 575.7,266.0 576.8,266.0 577.8,266.0 578.9,266.0 580.0,266.0 581.1,266.0 582.1,266.0 583.2,266.0 584.3,266.0 585.3,266.0 586.4,266.0 587.5,266.0 588.5,266.0 589.6,266.0 590.7,266.0 591.7,266.0 592.8,266.0 593.9,266.0 594.9,266.0 596.0,266.0 597.1,266.0 598.2,266.0 599.2,266.0 600.3,266.0 601.4,266.0 602.4,266.0 603.5,266.0 604.6,266.0 605.6,266.0 606.7,266.0 607.8,266.0 608.8,266.0 609.9,266.0 611.0,266.0 612.1,266.0 613.1,266.0 614.2,266.0 615.3,266.0 616.3,266.0 617.4,266.0 618.5,266.0 619.5,266.0 620.6,266.0 621.7,266.0 622.7,266.0 623.8,266.0 624.9,266.0 626.0,266.0 627.0,266.0 628.1,266.0 629.2,266.0 630.2,266.0 631.3,266.0 632.4,266.0 633.4,266.0 634.5,266.0 635.6,266.0 636.6,266.0 637.7,266.0 638.8,266.0 639.8,266.0 640.9,266.0 642.0,266.0 643.1,266.0 644.1,266.0 645.2,266.0 646.3,266.0 647.3,266.0 648.4,266.0 649.5,266.0 650.5,266.0 651.6,266.0 652.7,266.0 653.7,266.0 654.8,266.0 655.9,266.0 657.0,266.0 658.0,266.0 659.1,266.0 660.2,266.0 661.2,266.0 662.3,266.0 663.4,266.0 664.4,266.0 665.5,266.0 666.6,266.0 667.6,266.0 668.7,266.0 669.8,266.0 670.9,266.0 671.9,266.0 673.0,266.0 674.1,266.0 675.1,266.0 676.2,266.0 677.3,266.0 678.3,266.0 679.4,266.0 680.5,266.0 681.5,266.0 682.6,266.0 683.7,266.0 684.8,266.0 685.8,266.0 686.9,266.0 688.0,266.0 689.0,266.0 690.1,266.0 691.2,266.0 692.2,266.0 693.3,266.0 694.4,266.0 695.4,266.0 696.5,266.0 697.6,266.0 698.6,266.0 699.7,266.0 700.8,266.0 701.9,266.0 702.9,266.0 704.0,266.0 705.1,266.0 706.1,266.0 707.2,266.0 708.3,266.0 709.3,266.0 710.4,266.0 711.5,266.0 712.5,266.0 713.6,266.0 714.7,266.0 715.8,266.0 716.8,266.0 717.9,266.0 719.0,266.0 720.0,266.0 721.1,266.0 722.2,266.0 723.2,266.0 724.3,266.0 725.4,266.0 726.4,266.0 727.5,266.0 728.6,266.0 729.7,266.0 730.7,266.0 731.8,266.0 732.9,266.0 733.9,266.0 735.0,266.0 736.1,266.0 737.1,266.0 738.2,266.0 739.3,266.0 740.3,266.0 741.4,266.0 742.5,266.0 743.5,266.0 744.6,266.0 745.7,266.0 746.8,266.0 747.8,266.0 748.9,266.0 750.0,266.0 751.0,266.0 752.1,266.0 753.2,266.0 754.2,266.0 755.3,266.0 756.4,266.0 757.4,266.0 758.5,266.0 759.6,266.0 760.7,266.0 761.7,266.0 762.8,266.0 763.9,266.0 764.9,266.0 766.0,266.0"/>
<line x1="606" y1="42" x2="628" y2="42" stroke="#0f62fe" stroke-width="2.2"/>
<text x="634" y="46" font-family="Arial" font-size="12">elevator_saturated</text>
<polyline fill="none" stroke="#24a148" stroke-width="2.2" points="54.0,266.0 55.1,266.0 56.1,266.0 57.2,266.0 58.3,266.0 59.3,266.0 60.4,266.0 61.5,266.0 62.6,266.0 63.6,266.0 64.7,266.0 65.8,266.0 66.8,266.0 67.9,266.0 69.0,266.0 70.0,266.0 71.1,266.0 72.2,266.0 73.2,266.0 74.3,266.0 75.4,266.0 76.5,266.0 77.5,266.0 78.6,266.0 79.7,266.0 80.7,266.0 81.8,266.0 82.9,266.0 83.9,266.0 85.0,266.0 86.1,266.0 87.1,266.0 88.2,266.0 89.3,266.0 90.3,266.0 91.4,266.0 92.5,266.0 93.6,266.0 94.6,266.0 95.7,266.0 96.8,266.0 97.8,266.0 98.9,266.0 100.0,266.0 101.0,266.0 102.1,266.0 103.2,266.0 104.2,266.0 105.3,266.0 106.4,266.0 107.5,266.0 108.5,266.0 109.6,266.0 110.7,266.0 111.7,266.0 112.8,266.0 113.9,266.0 114.9,266.0 116.0,266.0 117.1,266.0 118.1,266.0 119.2,266.0 120.3,266.0 121.4,266.0 122.4,266.0 123.5,266.0 124.6,266.0 125.6,266.0 126.7,266.0 127.8,266.0 128.8,266.0 129.9,266.0 131.0,266.0 132.0,266.0 133.1,266.0 134.2,266.0 135.2,266.0 136.3,266.0 137.4,266.0 138.5,266.0 139.5,266.0 140.6,266.0 141.7,266.0 142.7,266.0 143.8,266.0 144.9,266.0 145.9,266.0 147.0,266.0 148.1,266.0 149.1,266.0 150.2,266.0 151.3,266.0 152.4,266.0 153.4,266.0 154.5,266.0 155.6,266.0 156.6,266.0 157.7,266.0 158.8,266.0 159.8,266.0 160.9,266.0 162.0,266.0 163.0,266.0 164.1,266.0 165.2,266.0 166.3,266.0 167.3,266.0 168.4,266.0 169.5,266.0 170.5,266.0 171.6,266.0 172.7,266.0 173.7,266.0 174.8,266.0 175.9,266.0 176.9,266.0 178.0,266.0 179.1,266.0 180.2,266.0 181.2,266.0 182.3,266.0 183.4,266.0 184.4,266.0 185.5,266.0 186.6,266.0 187.6,266.0 188.7,266.0 189.8,266.0 190.8,266.0 191.9,266.0 193.0,266.0 194.0,266.0 195.1,266.0 196.2,266.0 197.3,266.0 198.3,266.0 199.4,266.0 200.5,266.0 201.5,266.0 202.6,266.0 203.7,266.0 204.7,266.0 205.8,266.0 206.9,266.0 207.9,266.0 209.0,266.0 210.1,266.0 211.2,266.0 212.2,266.0 213.3,266.0 214.4,266.0 215.4,266.0 216.5,266.0 217.6,266.0 218.6,266.0 219.7,266.0 220.8,266.0 221.8,266.0 222.9,266.0 224.0,266.0 225.1,266.0 226.1,266.0 227.2,266.0 228.3,266.0 229.3,266.0 230.4,266.0 231.5,266.0 232.5,266.0 233.6,266.0 234.7,266.0 235.7,266.0 236.8,266.0 237.9,266.0 238.9,266.0 240.0,266.0 241.1,266.0 242.2,266.0 243.2,266.0 244.3,266.0 245.4,266.0 246.4,266.0 247.5,266.0 248.6,266.0 249.6,266.0 250.7,266.0 251.8,266.0 252.8,266.0 253.9,266.0 255.0,266.0 256.1,266.0 257.1,266.0 258.2,266.0 259.3,266.0 260.3,266.0 261.4,266.0 262.5,266.0 263.5,266.0 264.6,266.0 265.7,266.0 266.7,266.0 267.8,266.0 268.9,266.0 270.0,266.0 271.0,266.0 272.1,266.0 273.2,266.0 274.2,266.0 275.3,266.0 276.4,266.0 277.4,266.0 278.5,266.0 279.6,266.0 280.6,266.0 281.7,266.0 282.8,266.0 283.8,266.0 284.9,266.0 286.0,266.0 287.1,266.0 288.1,266.0 289.2,266.0 290.3,266.0 291.3,266.0 292.4,266.0 293.5,266.0 294.5,266.0 295.6,266.0 296.7,266.0 297.7,266.0 298.8,266.0 299.9,266.0 301.0,266.0 302.0,266.0 303.1,266.0 304.2,266.0 305.2,266.0 306.3,266.0 307.4,266.0 308.4,266.0 309.5,266.0 310.6,266.0 311.6,266.0 312.7,266.0 313.8,266.0 314.9,266.0 315.9,266.0 317.0,266.0 318.1,266.0 319.1,266.0 320.2,266.0 321.3,266.0 322.3,266.0 323.4,266.0 324.5,266.0 325.5,266.0 326.6,266.0 327.7,266.0 328.8,266.0 329.8,266.0 330.9,266.0 332.0,266.0 333.0,266.0 334.1,266.0 335.2,266.0 336.2,266.0 337.3,266.0 338.4,266.0 339.4,266.0 340.5,266.0 341.6,266.0 342.6,266.0 343.7,266.0 344.8,266.0 345.9,266.0 346.9,266.0 348.0,266.0 349.1,266.0 350.1,266.0 351.2,266.0 352.3,266.0 353.3,266.0 354.4,266.0 355.5,266.0 356.5,266.0 357.6,266.0 358.7,266.0 359.8,266.0 360.8,266.0 361.9,266.0 363.0,266.0 364.0,266.0 365.1,54.0 366.2,54.0 367.2,266.0 368.3,266.0 369.4,266.0 370.4,266.0 371.5,266.0 372.6,266.0 373.7,266.0 374.7,266.0 375.8,266.0 376.9,266.0 377.9,266.0 379.0,266.0 380.1,266.0 381.1,266.0 382.2,266.0 383.3,266.0 384.3,266.0 385.4,266.0 386.5,266.0 387.5,266.0 388.6,266.0 389.7,266.0 390.8,266.0 391.8,266.0 392.9,266.0 394.0,266.0 395.0,266.0 396.1,266.0 397.2,266.0 398.2,266.0 399.3,266.0 400.4,266.0 401.4,266.0 402.5,266.0 403.6,266.0 404.7,266.0 405.7,266.0 406.8,266.0 407.9,266.0 408.9,266.0 410.0,266.0 411.1,266.0 412.1,266.0 413.2,266.0 414.3,266.0 415.3,266.0 416.4,266.0 417.5,266.0 418.6,266.0 419.6,266.0 420.7,266.0 421.8,266.0 422.8,266.0 423.9,266.0 425.0,266.0 426.0,266.0 427.1,266.0 428.2,266.0 429.2,266.0 430.3,266.0 431.4,266.0 432.5,266.0 433.5,266.0 434.6,266.0 435.7,266.0 436.7,266.0 437.8,266.0 438.9,266.0 439.9,266.0 441.0,266.0 442.1,266.0 443.1,266.0 444.2,266.0 445.3,266.0 446.3,266.0 447.4,266.0 448.5,266.0 449.6,266.0 450.6,266.0 451.7,266.0 452.8,266.0 453.8,266.0 454.9,266.0 456.0,266.0 457.0,266.0 458.1,266.0 459.2,266.0 460.2,266.0 461.3,266.0 462.4,266.0 463.5,266.0 464.5,266.0 465.6,266.0 466.7,266.0 467.7,266.0 468.8,266.0 469.9,266.0 470.9,266.0 472.0,266.0 473.1,266.0 474.1,266.0 475.2,266.0 476.3,266.0 477.4,266.0 478.4,266.0 479.5,266.0 480.6,266.0 481.6,266.0 482.7,266.0 483.8,266.0 484.8,266.0 485.9,266.0 487.0,266.0 488.0,266.0 489.1,266.0 490.2,54.0 491.2,54.0 492.3,54.0 493.4,54.0 494.5,54.0 495.5,54.0 496.6,54.0 497.7,266.0 498.7,266.0 499.8,266.0 500.9,266.0 501.9,266.0 503.0,266.0 504.1,266.0 505.1,54.0 506.2,54.0 507.3,54.0 508.4,54.0 509.4,54.0 510.5,54.0 511.6,54.0 512.6,54.0 513.7,54.0 514.8,54.0 515.8,54.0 516.9,54.0 518.0,54.0 519.0,54.0 520.1,266.0 521.2,266.0 522.3,266.0 523.3,266.0 524.4,54.0 525.5,54.0 526.5,54.0 527.6,54.0 528.7,54.0 529.7,54.0 530.8,54.0 531.9,54.0 532.9,54.0 534.0,54.0 535.1,54.0 536.2,54.0 537.2,54.0 538.3,266.0 539.4,266.0 540.4,266.0 541.5,54.0 542.6,54.0 543.6,54.0 544.7,54.0 545.8,54.0 546.8,54.0 547.9,54.0 549.0,54.0 550.0,54.0 551.1,54.0 552.2,54.0 553.3,54.0 554.3,54.0 555.4,54.0 556.5,266.0 557.5,266.0 558.6,266.0 559.7,266.0 560.7,54.0 561.8,54.0 562.9,54.0 563.9,54.0 565.0,54.0 566.1,54.0 567.2,54.0 568.2,54.0 569.3,266.0 570.4,266.0 571.4,266.0 572.5,266.0 573.6,266.0 574.6,266.0 575.7,266.0 576.8,266.0 577.8,266.0 578.9,266.0 580.0,266.0 581.1,266.0 582.1,266.0 583.2,266.0 584.3,266.0 585.3,266.0 586.4,266.0 587.5,266.0 588.5,266.0 589.6,266.0 590.7,266.0 591.7,266.0 592.8,266.0 593.9,266.0 594.9,266.0 596.0,266.0 597.1,266.0 598.2,266.0 599.2,266.0 600.3,266.0 601.4,266.0 602.4,266.0 603.5,266.0 604.6,266.0 605.6,266.0 606.7,266.0 607.8,266.0 608.8,266.0 609.9,266.0 611.0,266.0 612.1,266.0 613.1,266.0 614.2,266.0 615.3,266.0 616.3,266.0 617.4,266.0 618.5,266.0 619.5,266.0 620.6,266.0 621.7,266.0 622.7,266.0 623.8,266.0 624.9,266.0 626.0,266.0 627.0,54.0 628.1,54.0 629.2,54.0 630.2,54.0 631.3,54.0 632.4,54.0 633.4,54.0 634.5,54.0 635.6,266.0 636.6,266.0 637.7,266.0 638.8,266.0 639.8,266.0 640.9,266.0 642.0,266.0 643.1,54.0 644.1,54.0 645.2,54.0 646.3,54.0 647.3,54.0 648.4,54.0 649.5,54.0 650.5,54.0 651.6,54.0 652.7,54.0 653.7,54.0 654.8,54.0 655.9,54.0 657.0,54.0 658.0,54.0 659.1,54.0 660.2,266.0 661.2,266.0 662.3,266.0 663.4,266.0 664.4,266.0 665.5,266.0 666.6,266.0 667.6,266.0 668.7,266.0 669.8,266.0 670.9,266.0 671.9,266.0 673.0,266.0 674.1,266.0 675.1,266.0 676.2,266.0 677.3,266.0 678.3,266.0 679.4,266.0 680.5,266.0 681.5,266.0 682.6,266.0 683.7,266.0 684.8,266.0 685.8,266.0 686.9,266.0 688.0,266.0 689.0,266.0 690.1,266.0 691.2,266.0 692.2,266.0 693.3,266.0 694.4,266.0 695.4,266.0 696.5,266.0 697.6,266.0 698.6,266.0 699.7,266.0 700.8,266.0 701.9,266.0 702.9,266.0 704.0,266.0 705.1,266.0 706.1,266.0 707.2,266.0 708.3,266.0 709.3,266.0 710.4,266.0 711.5,266.0 712.5,266.0 713.6,266.0 714.7,266.0 715.8,266.0 716.8,266.0 717.9,266.0 719.0,266.0 720.0,266.0 721.1,266.0 722.2,266.0 723.2,266.0 724.3,266.0 725.4,266.0 726.4,266.0 727.5,266.0 728.6,266.0 729.7,266.0 730.7,266.0 731.8,266.0 732.9,266.0 733.9,266.0 735.0,266.0 736.1,266.0 737.1,266.0 738.2,266.0 739.3,266.0 740.3,266.0 741.4,266.0 742.5,266.0 743.5,266.0 744.6,266.0 745.7,266.0 746.8,266.0 747.8,266.0 748.9,266.0 750.0,266.0 751.0,266.0 752.1,266.0 753.2,266.0 754.2,266.0 755.3,266.0 756.4,266.0 757.4,266.0 758.5,266.0 759.6,266.0 760.7,266.0 761.7,266.0 762.8,54.0 763.9,54.0 764.9,54.0 766.0,54.0"/>
<line x1="606" y1="60" x2="628" y2="60" stroke="#24a148" stroke-width="2.2"/>
<text x="634" y="64" font-family="Arial" font-size="12">aileron_saturated</text>
<polyline fill="none" stroke="#da1e28" stroke-width="2.2" points="54.0,54.0 55.1,266.0 56.1,266.0 57.2,266.0 58.3,266.0 59.3,266.0 60.4,266.0 61.5,266.0 62.6,266.0 63.6,266.0 64.7,266.0 65.8,266.0 66.8,266.0 67.9,266.0 69.0,266.0 70.0,266.0 71.1,266.0 72.2,266.0 73.2,266.0 74.3,266.0 75.4,266.0 76.5,266.0 77.5,266.0 78.6,266.0 79.7,266.0 80.7,266.0 81.8,266.0 82.9,266.0 83.9,266.0 85.0,266.0 86.1,266.0 87.1,266.0 88.2,266.0 89.3,266.0 90.3,266.0 91.4,266.0 92.5,266.0 93.6,266.0 94.6,266.0 95.7,266.0 96.8,266.0 97.8,266.0 98.9,266.0 100.0,266.0 101.0,266.0 102.1,266.0 103.2,266.0 104.2,266.0 105.3,266.0 106.4,266.0 107.5,266.0 108.5,266.0 109.6,266.0 110.7,266.0 111.7,266.0 112.8,266.0 113.9,266.0 114.9,266.0 116.0,266.0 117.1,266.0 118.1,266.0 119.2,266.0 120.3,266.0 121.4,266.0 122.4,266.0 123.5,266.0 124.6,266.0 125.6,266.0 126.7,266.0 127.8,266.0 128.8,266.0 129.9,266.0 131.0,266.0 132.0,266.0 133.1,266.0 134.2,266.0 135.2,266.0 136.3,266.0 137.4,266.0 138.5,266.0 139.5,266.0 140.6,266.0 141.7,266.0 142.7,266.0 143.8,266.0 144.9,266.0 145.9,266.0 147.0,266.0 148.1,266.0 149.1,266.0 150.2,266.0 151.3,266.0 152.4,54.0 153.4,54.0 154.5,54.0 155.6,54.0 156.6,54.0 157.7,54.0 158.8,54.0 159.8,54.0 160.9,54.0 162.0,54.0 163.0,54.0 164.1,54.0 165.2,54.0 166.3,54.0 167.3,54.0 168.4,54.0 169.5,54.0 170.5,54.0 171.6,54.0 172.7,54.0 173.7,266.0 174.8,266.0 175.9,266.0 176.9,266.0 178.0,266.0 179.1,266.0 180.2,266.0 181.2,266.0 182.3,266.0 183.4,266.0 184.4,266.0 185.5,266.0 186.6,266.0 187.6,266.0 188.7,266.0 189.8,266.0 190.8,266.0 191.9,266.0 193.0,266.0 194.0,54.0 195.1,54.0 196.2,54.0 197.3,54.0 198.3,54.0 199.4,54.0 200.5,54.0 201.5,54.0 202.6,54.0 203.7,54.0 204.7,54.0 205.8,54.0 206.9,54.0 207.9,54.0 209.0,54.0 210.1,54.0 211.2,54.0 212.2,54.0 213.3,54.0 214.4,54.0 215.4,54.0 216.5,54.0 217.6,54.0 218.6,54.0 219.7,54.0 220.8,54.0 221.8,54.0 222.9,54.0 224.0,54.0 225.1,54.0 226.1,54.0 227.2,54.0 228.3,54.0 229.3,54.0 230.4,54.0 231.5,54.0 232.5,54.0 233.6,54.0 234.7,54.0 235.7,54.0 236.8,266.0 237.9,266.0 238.9,266.0 240.0,266.0 241.1,266.0 242.2,266.0 243.2,266.0 244.3,266.0 245.4,266.0 246.4,266.0 247.5,266.0 248.6,266.0 249.6,266.0 250.7,266.0 251.8,266.0 252.8,266.0 253.9,266.0 255.0,266.0 256.1,266.0 257.1,266.0 258.2,266.0 259.3,266.0 260.3,266.0 261.4,266.0 262.5,266.0 263.5,266.0 264.6,266.0 265.7,266.0 266.7,266.0 267.8,266.0 268.9,266.0 270.0,266.0 271.0,266.0 272.1,266.0 273.2,266.0 274.2,266.0 275.3,266.0 276.4,266.0 277.4,266.0 278.5,266.0 279.6,266.0 280.6,266.0 281.7,266.0 282.8,266.0 283.8,266.0 284.9,266.0 286.0,266.0 287.1,266.0 288.1,266.0 289.2,266.0 290.3,266.0 291.3,266.0 292.4,266.0 293.5,266.0 294.5,266.0 295.6,266.0 296.7,266.0 297.7,266.0 298.8,266.0 299.9,266.0 301.0,266.0 302.0,266.0 303.1,266.0 304.2,266.0 305.2,266.0 306.3,266.0 307.4,266.0 308.4,266.0 309.5,266.0 310.6,266.0 311.6,266.0 312.7,266.0 313.8,266.0 314.9,266.0 315.9,266.0 317.0,266.0 318.1,266.0 319.1,266.0 320.2,266.0 321.3,266.0 322.3,54.0 323.4,54.0 324.5,54.0 325.5,54.0 326.6,54.0 327.7,54.0 328.8,54.0 329.8,54.0 330.9,54.0 332.0,54.0 333.0,54.0 334.1,54.0 335.2,54.0 336.2,54.0 337.3,54.0 338.4,54.0 339.4,54.0 340.5,54.0 341.6,54.0 342.6,54.0 343.7,54.0 344.8,54.0 345.9,54.0 346.9,54.0 348.0,54.0 349.1,54.0 350.1,54.0 351.2,54.0 352.3,54.0 353.3,54.0 354.4,54.0 355.5,54.0 356.5,54.0 357.6,54.0 358.7,54.0 359.8,54.0 360.8,54.0 361.9,54.0 363.0,54.0 364.0,54.0 365.1,54.0 366.2,266.0 367.2,266.0 368.3,54.0 369.4,54.0 370.4,54.0 371.5,54.0 372.6,54.0 373.7,54.0 374.7,54.0 375.8,54.0 376.9,54.0 377.9,54.0 379.0,54.0 380.1,54.0 381.1,54.0 382.2,54.0 383.3,266.0 384.3,266.0 385.4,266.0 386.5,54.0 387.5,54.0 388.6,54.0 389.7,54.0 390.8,54.0 391.8,54.0 392.9,54.0 394.0,54.0 395.0,54.0 396.1,54.0 397.2,54.0 398.2,266.0 399.3,266.0 400.4,266.0 401.4,266.0 402.5,54.0 403.6,54.0 404.7,54.0 405.7,54.0 406.8,54.0 407.9,54.0 408.9,266.0 410.0,266.0 411.1,266.0 412.1,266.0 413.2,266.0 414.3,266.0 415.3,266.0 416.4,266.0 417.5,266.0 418.6,266.0 419.6,266.0 420.7,266.0 421.8,266.0 422.8,266.0 423.9,266.0 425.0,266.0 426.0,266.0 427.1,266.0 428.2,266.0 429.2,266.0 430.3,266.0 431.4,266.0 432.5,266.0 433.5,266.0 434.6,266.0 435.7,266.0 436.7,266.0 437.8,266.0 438.9,266.0 439.9,266.0 441.0,266.0 442.1,266.0 443.1,266.0 444.2,266.0 445.3,266.0 446.3,266.0 447.4,266.0 448.5,266.0 449.6,266.0 450.6,266.0 451.7,266.0 452.8,266.0 453.8,266.0 454.9,266.0 456.0,266.0 457.0,266.0 458.1,266.0 459.2,266.0 460.2,266.0 461.3,266.0 462.4,266.0 463.5,266.0 464.5,266.0 465.6,266.0 466.7,266.0 467.7,266.0 468.8,266.0 469.9,266.0 470.9,266.0 472.0,54.0 473.1,54.0 474.1,54.0 475.2,54.0 476.3,54.0 477.4,54.0 478.4,54.0 479.5,54.0 480.6,54.0 481.6,54.0 482.7,54.0 483.8,54.0 484.8,54.0 485.9,54.0 487.0,54.0 488.0,54.0 489.1,54.0 490.2,54.0 491.2,54.0 492.3,54.0 493.4,54.0 494.5,54.0 495.5,54.0 496.6,54.0 497.7,54.0 498.7,54.0 499.8,54.0 500.9,54.0 501.9,54.0 503.0,54.0 504.1,54.0 505.1,54.0 506.2,54.0 507.3,54.0 508.4,54.0 509.4,54.0 510.5,266.0 511.6,266.0 512.6,54.0 513.7,54.0 514.8,54.0 515.8,54.0 516.9,54.0 518.0,54.0 519.0,54.0 520.1,54.0 521.2,54.0 522.3,54.0 523.3,54.0 524.4,54.0 525.5,54.0 526.5,54.0 527.6,266.0 528.7,266.0 529.7,266.0 530.8,54.0 531.9,54.0 532.9,54.0 534.0,54.0 535.1,54.0 536.2,54.0 537.2,54.0 538.3,54.0 539.4,54.0 540.4,54.0 541.5,54.0 542.6,266.0 543.6,266.0 544.7,266.0 545.8,266.0 546.8,266.0 547.9,54.0 549.0,54.0 550.0,54.0 551.1,54.0 552.2,54.0 553.3,54.0 554.3,54.0 555.4,54.0 556.5,54.0 557.5,54.0 558.6,54.0 559.7,266.0 560.7,266.0 561.8,266.0 562.9,266.0 563.9,266.0 565.0,266.0 566.1,266.0 567.2,266.0 568.2,266.0 569.3,266.0 570.4,266.0 571.4,266.0 572.5,266.0 573.6,266.0 574.6,266.0 575.7,266.0 576.8,266.0 577.8,266.0 578.9,266.0 580.0,266.0 581.1,266.0 582.1,266.0 583.2,266.0 584.3,266.0 585.3,266.0 586.4,266.0 587.5,266.0 588.5,266.0 589.6,266.0 590.7,266.0 591.7,266.0 592.8,266.0 593.9,266.0 594.9,266.0 596.0,266.0 597.1,266.0 598.2,266.0 599.2,266.0 600.3,266.0 601.4,266.0 602.4,266.0 603.5,266.0 604.6,54.0 605.6,54.0 606.7,54.0 607.8,54.0 608.8,54.0 609.9,54.0 611.0,54.0 612.1,54.0 613.1,54.0 614.2,54.0 615.3,54.0 616.3,54.0 617.4,54.0 618.5,54.0 619.5,54.0 620.6,54.0 621.7,54.0 622.7,54.0 623.8,54.0 624.9,54.0 626.0,54.0 627.0,54.0 628.1,54.0 629.2,54.0 630.2,54.0 631.3,54.0 632.4,54.0 633.4,54.0 634.5,54.0 635.6,54.0 636.6,54.0 637.7,54.0 638.8,54.0 639.8,54.0 640.9,54.0 642.0,54.0 643.1,54.0 644.1,54.0 645.2,54.0 646.3,54.0 647.3,266.0 648.4,266.0 649.5,266.0 650.5,54.0 651.6,54.0 652.7,54.0 653.7,54.0 654.8,54.0 655.9,54.0 657.0,54.0 658.0,54.0 659.1,54.0 660.2,54.0 661.2,54.0 662.3,54.0 663.4,54.0 664.4,54.0 665.5,54.0 666.6,54.0 667.6,54.0 668.7,54.0 669.8,54.0 670.9,54.0 671.9,266.0 673.0,266.0 674.1,266.0 675.1,266.0 676.2,266.0 677.3,54.0 678.3,54.0 679.4,54.0 680.5,54.0 681.5,54.0 682.6,54.0 683.7,54.0 684.8,54.0 685.8,54.0 686.9,54.0 688.0,54.0 689.0,54.0 690.1,54.0 691.2,54.0 692.2,266.0 693.3,266.0 694.4,266.0 695.4,266.0 696.5,266.0 697.6,266.0 698.6,266.0 699.7,266.0 700.8,266.0 701.9,266.0 702.9,266.0 704.0,266.0 705.1,266.0 706.1,266.0 707.2,266.0 708.3,266.0 709.3,266.0 710.4,266.0 711.5,266.0 712.5,266.0 713.6,266.0 714.7,266.0 715.8,266.0 716.8,266.0 717.9,266.0 719.0,266.0 720.0,266.0 721.1,266.0 722.2,266.0 723.2,266.0 724.3,266.0 725.4,266.0 726.4,266.0 727.5,266.0 728.6,266.0 729.7,266.0 730.7,266.0 731.8,266.0 732.9,266.0 733.9,266.0 735.0,266.0 736.1,54.0 737.1,54.0 738.2,54.0 739.3,54.0 740.3,54.0 741.4,54.0 742.5,54.0 743.5,54.0 744.6,54.0 745.7,54.0 746.8,54.0 747.8,54.0 748.9,54.0 750.0,54.0 751.0,54.0 752.1,54.0 753.2,54.0 754.2,54.0 755.3,54.0 756.4,54.0 757.4,54.0 758.5,54.0 759.6,54.0 760.7,54.0 761.7,54.0 762.8,54.0 763.9,54.0 764.9,54.0 766.0,54.0"/>
<line x1="606" y1="78" x2="628" y2="78" stroke="#da1e28" stroke-width="2.2"/>
<text x="634" y="82" font-family="Arial" font-size="12">rudder_saturated</text>
</svg>