<svg xmlns="http://www.w3.org/2000/svg" width="820" height="320" viewBox="0 0 820 320">
<rect width="100%" height="100%" fill="#ffffff"/>
<text x="54" y="28" font-family="Arial" font-size="18" font-weight="700">Velocity X</text>
<line x1="54" y1="266" x2="766" y2="266" stroke="#1f2933"/>
<line x1="54" y1="54" x2="54" y2="266" stroke="#1f2933"/>
<text x="54" y="306" font-family="Arial" font-size="12">time (s)</text>
<text x="596" y="306" font-family="Arial" font-size="12">vx (m/s)</text>
<text x="58" y="68" font-family="Arial" font-size="11">114</text>
<text x="58" y="260" font-family="Arial" font-size="11">21.5</text>
<polyline fill="none" stroke="#0f62fe" stroke-width="2.2" points="54.0,123.0 55.2,121.9 56.4,120.7 57.6,119.6 58.7,118.4 59.9,117.2 61.1,116.0 62.3,114.8 63.5,113.5 64.7,112.3 65.9,111.0 67.1,109.7 68.2,108.5 69.4,107.2 70.6,105.9 71.8,104.6 73.0,103.4 74.2,102.2 75.4,101.0 76.5,99.8 77.7,98.7 78.9,97.7 80.1,96.7 81.3,95.7 82.5,94.7 83.7,93.8 84.9,92.9 86.0,92.0 87.2,91.1 88.4,90.2 89.6,89.3 90.8,88.4 92.0,87.4 93.2,86.4 94.3,85.4 95.5,84.3 96.7,83.2 97.9,82.1 99.1,80.8 100.3,79.6 101.5,78.3 102.7,77.0 103.8,75.7 105.0,74.3 106.2,73.0 107.4,71.6 108.6,70.3 109.8,68.9 111.0,67.6 112.1,66.3 113.3,65.0 114.5,63.7 115.7,62.5 116.9,61.2 118.1,59.9 119.3,58.5 120.5,57.2 121.6,56.0 122.8,55.0 124.0,54.3 125.2,54.1 126.4,54.0 127.6,54.0 128.8,54.3 129.9,54.8 131.1,55.7 132.3,56.8 133.5,58.0 134.7,59.3 135.9,60.5 137.1,61.0 138.3,62.0 139.4,62.9 140.6,63.7 141.8,64.1 143.0,64.3 144.2,64.1 145.4,63.7 146.6,63.2 147.7,62.7 148.9,62.3 150.1,62.3 151.3,62.5 152.5,63.2 153.7,64.1 154.9,65.2 156.1,66.3 157.2,67.4 158.4,68.2 159.6,68.6 160.8,68.7 162.0,68.5 163.2,68.2 164.4,67.9 165.5,67.9 166.7,68.1 167.9,68.6 169.1,69.4 170.3,70.3 171.5,71.3 172.7,72.3 173.9,73.0 175.0,73.4 176.2,73.4 177.4,73.2 178.6,72.9 179.8,72.6 181.0,72.4 182.2,72.6 183.3,73.1 184.5,73.9 185.7,74.9 186.9,76.1 188.1,77.3 189.3,78.2 190.5,78.9 191.7,79.3 192.8,79.3 194.0,79.0 195.2,78.4 196.4,77.7 197.6,77.0 198.8,76.7 200.0,76.9 201.1,77.7 202.3,78.9 203.5,80.4 204.7,82.1 205.9,83.7 207.1,85.0 208.3,85.9 209.5,86.4 210.6,86.5 211.8,86.2 213.0,85.5 214.2,84.4 215.4,83.7 216.6,83.4 217.8,83.5 218.9,84.2 220.1,85.4 221.3,87.0 222.5,88.8 223.7,90.6 224.9,92.3 226.1,93.8 227.3,94.9 228.4,95.7 229.6,95.9 230.8,95.7 232.0,95.1 233.2,94.0 234.4,93.4 235.6,93.5 236.7,94.0 237.9,95.1 239.1,96.6 240.3,98.3 241.5,100.3 242.7,102.1 243.9,103.9 245.1,105.9 246.2,107.8 247.4,109.7 248.6,111.4 249.8,112.8 251.0,113.8 252.2,114.3 253.4,114.4 254.5,114.3 255.7,113.9 256.9,113.2 258.1,113.0 259.3,113.2 260.5,113.7 261.7,114.5 262.9,115.5 264.0,116.7 265.2,118.2 266.4,119.8 267.6,121.6 268.8,123.6 270.0,125.7 271.2,127.7 272.3,129.4 273.5,131.2 274.7,133.0 275.9,134.9 277.1,136.8 278.3,138.5 279.5,140.0 280.7,141.4 281.8,142.6 283.0,143.4 284.2,143.9 285.4,143.6 286.6,143.1 287.8,142.6 289.0,142.0 290.1,141.4 291.3,141.2 292.5,141.4 293.7,142.0 294.9,143.0 296.1,144.4 297.3,146.0 298.5,147.7 299.6,149.4 300.8,151.1 302.0,153.0 303.2,154.8 304.4,156.7 305.6,158.2 306.8,159.5 307.9,160.4 309.1,161.0 310.3,161.2 311.5,161.0 312.7,160.4 313.9,159.5 315.1,158.5 316.3,157.6 317.4,156.9 318.6,156.2 319.8,155.9 321.0,156.0 322.2,156.4 323.4,157.2 324.6,158.2 325.7,159.4 326.9,160.8 328.1,162.4 329.3,164.0 330.5,165.5 331.7,167.1 332.9,168.6 334.1,170.1 335.2,171.4 336.4,172.6 337.6,173.6 338.8,174.5 340.0,175.3 341.2,176.0 342.4,176.4 343.5,176.2 344.7,175.9 345.9,175.5 347.1,174.9 348.3,174.0 349.5,173.1 350.7,172.2 351.9,171.5 353.0,170.9 354.2,170.5 355.4,170.3 356.6,170.5 357.8,170.8 359.0,171.2 360.2,171.6 361.3,171.9 362.5,172.0 363.7,172.1 364.9,171.9 366.1,171.6 367.3,171.0 368.5,170.1 369.7,168.8 370.8,167.3 372.0,165.9 373.2,164.7 374.4,163.7 375.6,163.0 376.8,162.6 378.0,162.4 379.1,163.0 380.3,163.8 381.5,164.8 382.7,166.0 383.9,167.3 385.1,168.5 386.3,169.7 387.5,170.9 388.6,172.0 389.8,173.0 391.0,173.7 392.2,174.1 393.4,174.3 394.6,174.1 395.8,173.8 396.9,173.5 398.1,173.1 399.3,172.6 400.5,172.2 401.7,172.0 402.9,172.1 404.1,172.5 405.3,173.0 406.4,173.9 407.6,175.0 408.8,176.4 410.0,178.0 411.2,179.7 412.4,181.4 413.6,183.2 414.7,185.1 415.9,187.0 417.1,188.9 418.3,190.7 419.5,192.5 420.7,194.3 421.9,196.0 423.1,197.8 424.2,199.5 425.4,201.1 426.6,202.7 427.8,204.2 429.0,205.5 430.2,206.8 431.4,207.8 432.5,208.6 433.7,209.0 434.9,209.5 436.1,209.8 437.3,210.0 438.5,210.2 439.7,210.5 440.9,211.0 442.0,211.7 443.2,212.7 444.4,214.0 445.6,215.0 446.8,216.3 448.0,217.8 449.2,219.3 450.3,220.9 451.5,222.6 452.7,224.2 453.9,226.0 455.1,227.8 456.3,229.5 457.5,231.0 458.7,232.3 459.8,233.4 461.0,234.3 462.2,235.1 463.4,235.8 464.6,236.5 465.8,236.8 467.0,237.3 468.1,237.8 469.3,238.4 470.5,238.9 471.7,239.4 472.9,239.9 474.1,240.4 475.3,240.9 476.5,241.5 477.6,241.5 478.8,241.3 480.0,241.2 481.2,241.0 482.4,240.6 483.6,240.2 484.8,239.6 485.9,239.1 487.1,238.6 488.3,238.3 489.5,237.5 490.7,236.4 491.9,235.6 493.1,234.8 494.3,233.9 495.4,233.0 496.6,231.9 497.8,230.8 499.0,229.6 500.2,228.4 501.4,227.1 502.6,225.5 503.7,224.0 504.9,222.5 506.1,221.1 507.3,219.7 508.5,218.5 509.7,217.4 510.9,216.4 512.1,215.4 513.2,214.5 514.4,214.0 515.6,213.6 516.8,213.2 518.0,212.9 519.2,212.6 520.4,212.4 521.5,212.3 522.7,212.5 523.9,212.7 525.1,212.9 526.3,213.2 527.5,213.5 528.7,213.8 529.9,213.9 531.0,213.7 532.2,213.2 533.4,212.5 534.6,211.6 535.8,210.5 537.0,209.2 538.2,207.6 539.3,206.2 540.5,205.0 541.7,204.2 542.9,203.6 544.1,203.1 545.3,202.8 546.5,203.3 547.7,203.8 548.8,204.4 550.0,204.9 551.2,205.2 552.4,205.3 553.6,205.2 554.8,204.8 556.0,204.1 557.1,203.1 558.3,201.9 559.5,200.4 560.7,199.0 561.9,197.8 563.1,197.0 564.3,196.6 565.5,196.7 566.6,197.7 567.8,198.7 569.0,199.7 570.2,200.4 571.4,201.0 572.6,201.5 573.8,202.1 574.9,202.8 576.1,203.4 577.3,204.1 578.5,204.7 579.7,205.1 580.9,205.3 582.1,205.3 583.3,205.5 584.4,205.9 585.6,206.5 586.8,207.1 588.0,207.7 589.2,208.2 590.4,209.1 591.6,209.8 592.7,210.5 593.9,211.1 595.1,211.5 596.3,211.9 597.5,212.3 598.7,212.7 599.9,213.1 601.1,213.5 602.2,213.8 603.4,214.0 604.6,214.6 605.8,215.3 607.0,215.9 608.2,216.5 609.4,217.1 610.5,217.8 611.7,218.6 612.9,219.4 614.1,219.9 615.3,220.6 616.5,221.3 617.7,221.9 618.9,222.5 620.0,222.9 621.2,223.4 622.4,223.8 623.6,224.4 624.8,224.9 626.0,225.5 627.2,225.7 628.3,225.9 629.5,226.3 630.7,226.7 631.9,227.1 633.1,227.4 634.3,227.9 635.5,228.4 636.7,229.0 637.8,229.8 639.0,230.1 640.2,230.5 641.4,230.8 642.6,231.1 643.8,231.4 645.0,231.6 646.1,232.1 647.3,232.8 648.5,233.5 649.7,233.7 650.9,234.0 652.1,234.4 653.3,234.7 654.5,234.9 655.6,235.0 656.8,235.2 658.0,235.5 659.2,235.6 660.4,235.8 661.6,236.2 662.8,236.7 663.9,237.2 665.1,237.6 666.3,238.0 667.5,238.4 668.7,238.9 669.9,239.6 671.1,239.5 672.3,239.7 673.4,240.1 674.6,240.5 675.8,241.0 677.0,241.3 678.2,241.6 679.4,241.9 680.6,242.3 681.7,242.7 682.9,243.3 684.1,243.4 685.3,243.4 686.5,243.6 687.7,243.9 688.9,244.1 690.1,244.3 691.2,244.5 692.4,244.8 693.6,245.0 694.8,245.3 696.0,245.6 697.2,245.9 698.4,246.2 699.5,246.6 700.7,246.9 701.9,247.2 703.1,247.5 704.3,247.9 705.5,248.3 706.7,248.9 707.9,249.5 709.0,250.0 710.2,250.7 711.4,251.3 712.6,251.9 713.8,252.5 715.0,253.0 716.2,253.5 717.3,254.1 718.5,254.6 719.7,255.1 720.9,254.9 722.1,254.9 723.3,254.9 724.5,254.9 725.7,255.0 726.8,255.3 728.0,255.6 729.2,255.7 730.4,255.8 731.6,256.6 732.8,257.3 734.0,257.9 735.1,258.4 736.3,259.0 737.5,259.7 738.7,260.3 739.9,260.9 741.1,261.3 742.3,261.4 743.5,261.5 744.6,261.5 745.8,261.5 747.0,261.5 748.2,261.7 749.4,261.9 750.6,262.0 751.8,262.1 752.9,262.7 754.1,263.3 755.3,263.7 756.5,264.0 757.7,264.2 758.9,264.4 760.1,264.7 761.3,265.0 762.4,265.3 763.6,265.7 764.8,265.9 766.0,266.0"/>
<line x1="606" y1="42" x2="628" y2="42" stroke="#0f62fe" stroke-width="2.2"/>
<text x="634" y="46" font-family="Arial" font-size="12">vx_mps</text>
</svg>