<svg xmlns="http://www.w3.org/2000/svg" width="820" height="320" viewBox="0 0 820 320">
<rect width="100%" height="100%" fill="#ffffff"/>
<text x="54" y="28" font-family="Arial" font-size="18" font-weight="700">Velocity Z</text>
<line x1="54" y1="266" x2="766" y2="266" stroke="#1f2933"/>
<line x1="54" y1="54" x2="54" y2="266" stroke="#1f2933"/>
<text x="54" y="306" font-family="Arial" font-size="12">time (s)</text>
<text x="596" y="306" font-family="Arial" font-size="12">vz (m/s)</text>
<text x="58" y="68" font-family="Arial" font-size="11">10</text>
<text x="58" y="260" font-family="Arial" font-size="11">-71</text>
<polyline fill="none" stroke="#0f62fe" stroke-width="2.2" points="54.0,54.0 55.2,54.6 56.4,55.1 57.6,55.6 58.7,56.1 59.9,56.5 61.1,56.9 62.3,57.3 63.5,57.7 64.7,58.0 65.9,58.3 67.1,58.6 68.2,58.9 69.4,59.1 70.6,59.4 71.8,59.6 73.0,59.8 74.2,60.0 75.4,60.1 76.5,60.3 77.7,60.4 78.9,60.5 80.1,60.6 81.3,60.7 82.5,60.8 83.7,60.8 84.9,60.9 86.0,61.0 87.2,61.1 88.4,61.2 89.6,61.3 90.8,61.4 92.0,61.5 93.2,61.7 94.3,61.8 95.5,62.0 96.7,62.2 97.9,62.4 99.1,62.6 100.3,62.9 101.5,63.1 102.7,63.4 103.8,63.7 105.0,64.0 106.2,64.3 107.4,64.6 108.6,65.0 109.8,65.4 111.0,65.8 112.1,66.2 113.3,66.6 114.5,67.1 115.7,67.5 116.9,67.8 118.1,68.2 119.3,68.4 120.5,68.6 121.6,68.7 122.8,69.1 124.0,69.6 125.2,70.6 126.4,71.8 127.6,73.1 128.8,74.7 129.9,76.5 131.1,78.6 132.3,81.1 133.5,83.8 134.7,86.6 135.9,89.3 137.1,91.8 138.3,94.6 139.4,97.2 140.6,99.4 141.8,100.9 143.0,101.7 144.2,101.9 145.4,101.6 146.6,100.7 147.7,99.5 148.9,98.2 150.1,97.2 151.3,96.8 152.5,97.4 153.7,98.9 154.9,101.2 156.1,103.8 157.2,106.6 158.4,109.0 159.6,110.8 160.8,111.9 162.0,112.2 163.2,111.6 164.4,110.5 165.5,109.2 166.7,108.3 167.9,107.9 169.1,108.2 170.3,109.4 171.5,111.4 172.7,113.9 173.9,116.6 175.0,119.3 176.2,121.6 177.4,123.1 178.6,123.7 179.8,123.4 181.0,122.4 182.2,121.1 183.3,119.8 184.5,118.9 185.7,118.6 186.9,119.1 188.1,120.3 189.3,122.0 190.5,124.2 191.7,126.7 192.8,129.3 194.0,131.8 195.2,133.8 196.4,134.9 197.6,134.9 198.8,134.2 200.0,132.9 201.1,131.6 202.3,130.5 203.5,130.0 204.7,130.2 205.9,131.0 207.1,132.3 208.3,134.1 209.5,136.3 210.6,138.8 211.8,141.4 213.0,143.8 214.2,144.6 215.4,144.1 216.6,142.9 217.8,141.8 218.9,140.9 220.1,139.9 221.3,139.1 222.5,138.7 223.7,138.6 224.9,138.7 226.1,139.3 227.3,140.4 228.4,141.9 229.6,143.9 230.8,146.3 232.0,148.9 233.2,150.3 234.4,150.1 235.6,149.8 236.7,149.1 237.9,148.3 239.1,147.4 240.3,146.6 241.5,146.1 242.7,146.2 243.9,146.3 245.1,146.4 246.2,146.5 247.4,146.9 248.6,147.5 249.8,148.6 251.0,150.0 252.2,151.9 253.4,154.1 254.5,156.5 255.7,159.1 256.9,160.8 258.1,162.2 259.3,163.4 260.5,164.4 261.7,165.1 262.9,165.6 264.0,165.9 265.2,166.0 266.4,166.0 267.6,166.1 268.8,166.1 270.0,166.4 271.2,166.8 272.3,166.8 273.5,166.8 274.7,167.1 275.9,167.8 277.1,168.7 278.3,170.0 279.5,171.4 280.7,173.1 281.8,175.1 283.0,177.2 284.2,179.4 285.4,181.3 286.6,182.1 287.8,182.6 289.0,182.6 290.1,182.0 291.3,181.0 292.5,179.7 293.7,178.3 294.9,177.1 296.1,176.1 297.3,175.4 298.5,175.0 299.6,174.6 300.8,174.6 302.0,174.7 303.2,175.2 304.4,176.1 305.6,176.9 306.8,177.9 307.9,179.0 309.1,180.2 310.3,181.4 311.5,182.4 312.7,183.1 313.9,183.3 315.1,183.0 316.3,182.4 317.4,181.5 318.6,180.5 319.8,179.5 321.0,178.4 322.2,177.3 323.4,176.3 324.6,175.3 325.7,174.5 326.9,173.9 328.1,173.4 329.3,173.1 330.5,172.3 331.7,171.7 332.9,171.2 334.1,170.8 335.2,170.4 336.4,170.0 337.6,169.5 338.8,169.0 340.0,168.6 341.2,168.2 342.4,168.0 343.5,167.7 344.7,167.1 345.9,166.6 347.1,166.1 348.3,165.5 349.5,164.9 350.7,164.1 351.9,163.3 353.0,162.3 354.2,161.2 355.4,160.4 356.6,159.3 357.8,158.2 359.0,157.0 360.2,155.7 361.3,154.5 362.5,153.2 363.7,152.0 364.9,150.7 366.1,149.6 367.3,148.6 368.5,147.9 369.7,147.7 370.8,147.9 372.0,148.4 373.2,149.4 374.4,150.6 375.6,151.9 376.8,153.1 378.0,154.3 379.1,156.1 380.3,157.3 381.5,158.3 382.7,158.9 383.9,159.1 385.1,159.1 386.3,159.0 387.5,158.8 388.6,158.4 389.8,157.9 391.0,157.3 392.2,156.6 393.4,156.0 394.6,155.4 395.8,155.9 396.9,156.6 398.1,157.5 399.3,158.8 400.5,160.5 401.7,162.6 402.9,164.9 404.1,167.2 405.3,169.7 406.4,172.1 407.6,174.3 408.8,176.3 410.0,178.1 411.2,179.7 412.4,181.1 413.6,182.3 414.7,183.4 415.9,184.3 417.1,185.0 418.3,185.7 419.5,186.4 420.7,187.6 421.9,188.6 423.1,189.7 424.2,190.7 425.4,191.8 426.6,193.0 427.8,194.5 429.0,196.1 430.2,197.8 431.4,199.8 432.5,201.9 433.7,204.4 434.9,206.8 436.1,209.2 437.3,211.3 438.5,213.1 439.7,214.5 440.9,215.6 442.0,216.4 443.2,216.9 444.4,217.2 445.6,217.0 446.8,216.8 448.0,216.5 449.2,216.4 450.3,216.3 451.5,216.2 452.7,216.5 453.9,217.0 455.1,217.8 456.3,218.9 457.5,220.3 458.7,222.0 459.8,223.9 461.0,226.1 462.2,228.3 463.4,230.6 464.6,232.9 465.8,235.2 467.0,237.2 468.1,239.2 469.3,241.1 470.5,243.0 471.7,244.9 472.9,246.6 474.1,248.4 475.3,250.1 476.5,252.0 477.6,253.8 478.8,255.0 480.0,256.2 481.2,257.3 482.4,258.3 483.6,259.1 484.8,259.7 485.9,260.1 487.1,260.5 488.3,260.9 489.5,261.5 490.7,261.7 491.9,261.8 493.1,262.0 494.3,262.3 495.4,262.7 496.6,263.1 497.8,263.5 499.0,263.8 500.2,264.2 501.4,265.0 502.6,265.4 503.7,265.6 504.9,265.8 506.1,265.9 507.3,266.0 508.5,265.9 509.7,265.6 510.9,265.1 512.1,264.5 513.2,263.7 514.4,263.3 515.6,262.6 516.8,261.7 518.0,260.6 519.2,259.6 520.4,258.5 521.5,257.4 522.7,256.1 523.9,254.8 525.1,253.4 526.3,251.9 527.5,250.3 528.7,248.8 529.9,247.5 531.0,246.4 532.2,245.5 533.4,244.9 534.6,244.6 535.8,244.9 537.0,245.7 538.2,246.6 539.3,247.5 540.5,248.4 541.7,249.2 542.9,249.6 544.1,249.5 545.3,249.1 546.5,248.7 547.7,247.8 548.8,246.6 550.0,245.2 551.2,243.8 552.4,242.3 553.6,240.8 554.8,239.5 556.0,238.5 557.1,237.9 558.3,238.0 559.5,238.8 560.7,240.1 561.9,241.6 563.1,243.2 564.3,244.7 565.5,246.5 566.6,247.8 567.8,248.5 569.0,248.8 570.2,248.5 571.4,248.2 572.6,248.0 573.8,247.9 574.9,247.8 576.1,247.8 577.3,247.6 578.5,247.4 579.7,247.1 580.9,246.8 582.1,246.8 583.3,247.3 584.4,247.9 585.6,248.5 586.8,249.1 588.0,249.7 589.2,250.2 590.4,250.4 591.6,250.4 592.7,250.2 593.9,250.0 595.1,249.8 596.3,249.6 597.5,249.5 598.7,249.3 599.9,249.1 601.1,248.9 602.2,248.7 603.4,248.6 604.6,249.0 605.8,249.3 607.0,249.6 608.2,249.9 609.4,250.2 610.5,250.7 611.7,251.1 612.9,251.6 614.1,252.2 615.3,252.4 616.5,252.6 617.7,252.7 618.9,252.8 620.0,252.8 621.2,252.7 622.4,252.5 623.6,252.4 624.8,252.3 626.0,252.2 627.2,252.2 628.3,252.0 629.5,251.9 630.7,251.8 631.9,251.9 633.1,252.0 634.3,252.1 635.5,252.2 636.7,252.5 637.8,252.9 639.0,253.5 640.2,253.7 641.4,253.9 642.6,254.0 643.8,253.9 645.0,253.7 646.1,253.6 647.3,253.5 648.5,253.6 649.7,253.6 650.9,253.7 652.1,253.9 653.3,254.2 654.5,254.5 655.6,254.7 656.8,254.8 658.0,255.0 659.2,254.9 660.4,254.9 661.6,254.8 662.8,254.8 663.9,254.9 665.1,255.0 666.3,255.2 667.5,255.2 668.7,255.3 669.9,255.6 671.1,255.6 672.3,255.5 673.4,255.5 674.6,255.5 675.8,255.7 677.0,255.9 678.2,256.1 679.4,256.1 680.6,256.2 681.7,256.3 682.9,256.6 684.1,257.0 685.3,256.8 686.5,256.7 687.7,256.6 688.9,256.5 690.1,256.5 691.2,256.4 692.4,256.2 693.6,256.0 694.8,255.9 696.0,255.9 697.2,256.1 698.4,256.3 699.5,256.5 700.7,256.6 701.9,256.8 703.1,257.1 704.3,257.5 705.5,257.8 706.7,258.2 707.9,258.6 709.0,259.0 710.2,259.4 711.4,259.7 712.6,260.0 713.8,260.2 715.0,260.3 716.2,260.2 717.3,260.2 718.5,260.1 719.7,260.2 720.9,260.2 722.1,260.2 723.3,260.2 724.5,260.4 725.7,260.4 726.8,260.4 728.0,260.3 729.2,260.2 730.4,260.2 731.6,260.4 732.8,260.6 734.0,260.9 735.1,261.2 736.3,261.6 737.5,261.8 738.7,261.9 739.9,262.0 741.1,262.1 742.3,262.2 743.5,262.3 744.6,262.3 745.8,262.3 747.0,262.5 748.2,262.6 749.4,262.6 750.6,262.5 751.8,262.4 752.9,262.5 754.1,262.4 755.3,262.3 756.5,262.2 757.7,262.1 758.9,262.0 760.1,262.0 761.3,262.1 762.4,262.1 763.6,262.0 764.8,261.9 766.0,261.8"/>
<line x1="606" y1="42" x2="628" y2="42" stroke="#0f62fe" stroke-width="2.2"/>
<text x="634" y="46" font-family="Arial" font-size="12">vz_mps</text>
</svg>