<svg xmlns="http://www.w3.org/2000/svg" width="820" height="320" viewBox="0 0 820 320">
<rect width="100%" height="100%" fill="#ffffff"/>
<text x="54" y="28" font-family="Arial" font-size="18" font-weight="700">Velocity Y</text>
<line x1="54" y1="266" x2="766" y2="266" stroke="#1f2933"/>
<line x1="54" y1="54" x2="54" y2="266" stroke="#1f2933"/>
<text x="54" y="306" font-family="Arial" font-size="12">time (s)</text>
<text x="596" y="306" font-family="Arial" font-size="12">vy (m/s)</text>
<text x="58" y="68" font-family="Arial" font-size="11">27.8</text>
<text x="58" y="260" font-family="Arial" font-size="11">-11.3</text>
<polyline fill="none" stroke="#0f62fe" stroke-width="2.2" points="54.0,204.6 55.2,204.7 56.4,204.7 57.6,204.7 58.7,204.8 59.9,204.8 61.1,204.8 62.3,204.8 63.5,204.8 64.7,204.8 65.9,204.8 67.1,204.7 68.2,204.7 69.4,204.5 70.6,204.4 71.8,204.3 73.0,204.1 74.2,203.8 75.4,203.6 76.5,203.3 77.7,203.0 78.9,202.6 80.1,202.2 81.3,201.8 82.5,201.4 83.7,200.9 84.9,200.5 86.0,200.0 87.2,199.5 88.4,199.0 89.6,198.5 90.8,198.0 92.0,197.6 93.2,197.1 94.3,196.7 95.5,196.4 96.7,196.1 97.9,195.9 99.1,195.7 100.3,195.7 101.5,195.7 102.7,195.9 103.8,196.2 105.0,196.7 106.2,197.3 107.4,198.1 108.6,199.2 109.8,200.5 111.0,202.1 112.1,204.1 113.3,206.4 114.5,208.9 115.7,211.6 116.9,214.7 118.1,218.2 119.3,221.6 120.5,225.0 121.6,228.3 122.8,231.5 124.0,234.7 125.2,237.7 126.4,240.1 127.6,241.6 128.8,242.0 129.9,241.3 131.1,238.8 132.3,237.5 133.5,237.5 134.7,235.6 135.9,232.5 137.1,228.7 138.3,224.7 139.4,220.8 140.6,217.6 141.8,215.5 143.0,215.0 144.2,216.2 145.4,218.8 146.6,222.6 147.7,226.9 148.9,231.0 150.1,234.5 151.3,236.9 152.5,238.0 153.7,237.6 154.9,235.6 156.1,232.4 157.2,228.4 158.4,224.5 159.6,221.7 160.8,220.6 162.0,221.2 163.2,223.4 164.4,226.7 165.5,230.8 166.7,234.8 167.9,238.6 169.1,241.6 170.3,243.7 171.5,244.3 172.7,243.3 173.9,240.5 175.0,236.5 176.2,233.0 177.4,229.4 178.6,227.7 179.8,227.6 181.0,228.9 182.2,231.4 183.3,234.7 184.5,238.3 185.7,242.0 186.9,245.7 188.1,248.8 189.3,250.9 190.5,251.4 191.7,249.9 192.8,247.5 194.0,245.7 195.2,245.0 196.4,245.5 197.6,243.3 198.8,242.1 200.0,242.2 201.1,243.3 202.3,245.2 203.5,247.7 204.7,250.9 205.9,254.6 207.1,258.6 208.3,262.2 209.5,265.1 210.6,266.0 211.8,264.2 213.0,261.0 214.2,257.4 215.4,254.0 216.6,251.1 217.8,248.9 218.9,247.7 220.1,247.4 221.3,247.7 222.5,246.3 223.7,245.5 224.9,245.4 226.1,246.4 227.3,248.4 228.4,251.2 229.6,254.6 230.8,257.9 232.0,260.3 233.2,261.6 234.4,260.5 235.6,256.7 236.7,252.7 237.9,248.5 239.1,244.5 240.3,240.9 241.5,237.7 242.7,235.0 243.9,232.9 245.1,231.6 246.2,231.1 247.4,229.3 248.6,228.4 249.8,228.4 251.0,229.3 252.2,230.4 253.4,231.5 254.5,232.3 255.7,233.0 256.9,232.9 258.1,230.0 259.3,226.9 260.5,223.3 261.7,219.3 262.9,215.2 264.0,211.2 265.2,207.6 266.4,204.5 267.6,201.8 268.8,199.8 270.0,198.4 271.2,197.1 272.3,196.1 273.5,195.5 274.7,195.4 275.9,195.6 277.1,196.0 278.3,194.0 279.5,191.0 280.7,187.9 281.8,184.6 283.0,181.1 284.2,177.6 285.4,174.0 286.6,171.8 287.8,169.8 289.0,167.9 290.1,166.2 291.3,164.6 292.5,163.1 293.7,161.7 294.9,160.3 296.1,158.8 297.3,157.1 298.5,153.9 299.6,150.6 300.8,147.1 302.0,143.5 303.2,139.9 304.4,136.4 305.6,133.2 306.8,130.2 307.9,127.0 309.1,125.8 310.3,125.2 311.5,124.5 312.7,123.7 313.9,122.6 315.1,121.8 316.3,121.1 317.4,120.5 318.6,119.7 319.8,118.5 321.0,117.9 322.2,117.0 323.4,115.5 324.6,113.5 325.7,110.9 326.9,107.9 328.1,104.6 329.3,101.0 330.5,97.4 331.7,93.7 332.9,89.8 334.1,86.1 335.2,83.0 336.4,80.7 337.6,79.0 338.8,77.5 340.0,76.3 341.2,77.6 342.4,78.4 343.5,78.9 344.7,78.9 345.9,78.3 347.1,77.3 348.3,75.8 349.5,73.8 350.7,71.3 351.9,68.1 353.0,64.6 354.2,60.6 355.4,57.1 356.6,54.9 357.8,54.0 359.0,54.6 360.2,57.0 361.3,60.5 362.5,64.4 363.7,68.3 364.9,71.9 366.1,75.2 367.3,78.0 368.5,80.5 369.7,82.7 370.8,84.2 372.0,85.0 373.2,85.0 374.4,83.7 375.6,83.8 376.8,85.0 378.0,86.2 379.1,88.0 380.3,90.7 381.5,93.5 382.7,96.4 383.9,100.0 385.1,104.0 386.3,108.3 387.5,112.5 388.6,116.6 389.8,120.5 391.0,124.3 392.2,127.9 393.4,131.4 394.6,134.6 395.8,138.5 396.9,142.4 398.1,146.1 399.3,149.8 400.5,153.3 401.7,156.8 402.9,160.3 404.1,163.8 405.3,167.2 406.4,170.4 407.6,173.0 408.8,175.4 410.0,177.5 411.2,179.3 412.4,180.7 413.6,182.1 414.7,183.7 415.9,185.7 417.1,188.0 418.3,188.8 419.5,190.2 420.7,192.2 421.9,194.6 423.1,197.3 424.2,200.3 425.4,203.6 426.6,207.2 427.8,210.9 429.0,214.3 430.2,218.4 431.4,222.3 432.5,225.7 433.7,228.2 434.9,229.6 436.1,229.0 437.3,227.8 438.5,227.5 439.7,227.7 440.9,228.3 442.0,229.3 443.2,230.4 444.4,231.9 445.6,233.6 446.8,235.9 448.0,238.7 449.2,242.3 450.3,244.9 451.5,245.7 452.7,245.1 453.9,243.5 455.1,240.8 456.3,237.8 457.5,234.3 458.7,229.8 459.8,225.7 461.0,222.0 462.2,218.8 463.4,216.3 464.6,214.1 465.8,212.4 467.0,211.1 468.1,210.4 469.3,210.5 470.5,211.7 471.7,211.9 472.9,210.8 474.1,208.7 475.3,205.8 476.5,203.0 477.6,201.9 478.8,199.6 480.0,196.7 481.2,193.5 482.4,190.2 483.6,186.9 484.8,183.6 485.9,180.2 487.1,177.0 488.3,174.1 489.5,172.1 490.7,169.2 491.9,166.1 493.1,163.5 494.3,161.3 495.4,159.2 496.6,157.3 497.8,159.1 499.0,159.4 500.2,159.0 501.4,157.7 502.6,155.9 503.7,154.1 504.9,152.2 506.1,150.2 507.3,147.7 508.5,144.6 509.7,141.7 510.9,138.4 512.1,134.8 513.2,131.0 514.4,127.1 515.6,123.3 516.8,119.7 518.0,116.3 519.2,112.6 520.4,108.5 521.5,105.3 522.7,102.9 523.9,100.7 525.1,98.2 526.3,95.8 527.5,93.5 528.7,91.2 529.9,88.9 531.0,87.8 532.2,88.8 533.4,91.3 534.6,93.5 535.8,95.8 537.0,98.6 538.2,101.9 539.3,105.2 540.5,108.2 541.7,110.3 542.9,114.6 544.1,118.5 545.3,122.1 546.5,125.2 547.7,128.0 548.8,130.8 550.0,133.7 551.2,136.7 552.4,139.7 553.6,142.3 554.8,144.1 556.0,145.5 557.1,149.0 558.3,153.2 559.5,156.7 560.7,160.1 561.9,163.4 563.1,167.0 564.3,171.0 565.5,175.2 566.6,176.6 567.8,179.1 569.0,182.2 570.2,182.3 571.4,182.4 572.6,182.5 573.8,182.9 574.9,183.7 576.1,184.8 577.3,186.0 578.5,186.9 579.7,186.8 580.9,186.6 582.1,186.6 583.3,186.9 584.4,187.1 585.6,185.3 586.8,184.3 588.0,183.7 589.2,183.5 590.4,183.5 591.6,183.6 592.7,183.6 593.9,183.9 595.1,184.4 596.3,185.2 597.5,185.8 598.7,185.9 599.9,185.0 601.1,183.5 602.2,182.0 603.4,181.1 604.6,180.9 605.8,180.1 607.0,178.8 608.2,178.0 609.4,177.5 610.5,177.1 611.7,176.8 612.9,176.5 614.1,176.4 615.3,176.6 616.5,176.8 617.7,176.9 618.9,176.6 620.0,175.7 621.2,173.9 622.4,171.6 623.6,170.2 624.8,170.4 626.0,171.9 627.2,173.6 628.3,172.5 629.5,171.6 630.7,170.8 631.9,170.0 633.1,169.3 634.3,169.0 635.5,169.0 636.7,169.1 637.8,169.1 639.0,168.7 640.2,167.9 641.4,166.4 642.6,164.0 643.8,162.8 645.0,163.9 646.1,165.3 647.3,166.4 648.5,167.3 649.7,168.0 650.9,166.9 652.1,165.8 653.3,164.9 654.5,164.0 655.6,163.5 656.8,163.1 658.0,163.0 659.2,162.9 660.4,163.0 661.6,162.9 662.8,162.8 663.9,162.4 665.1,161.7 666.3,160.3 667.5,158.6 668.7,158.1 669.9,159.1 671.1,159.6 672.3,160.1 673.4,160.6 674.6,161.1 675.8,161.4 677.0,161.7 678.2,161.9 679.4,162.0 680.6,162.0 681.7,162.0 682.9,162.0 684.1,161.3 685.3,160.7 686.5,160.2 687.7,159.6 688.9,159.0 690.1,158.4 691.2,157.9 692.4,157.4 693.6,157.0 694.8,156.8 696.0,156.8 697.2,156.9 698.4,157.2 699.5,157.8 700.7,158.8 701.9,160.0 703.1,161.7 704.3,163.5 705.5,163.7 706.7,163.6 707.9,163.5 709.0,163.2 710.2,162.9 711.4,162.7 712.6,162.9 713.8,163.6 715.0,164.7 716.2,166.2 717.3,167.9 718.5,168.0 719.7,168.0 720.9,168.0 722.1,167.7 723.3,167.1 724.5,166.4 725.7,165.9 726.8,165.2 728.0,164.7 729.2,164.4 730.4,164.6 731.6,165.2 732.8,166.1 734.0,167.1 735.1,167.9 736.3,168.6 737.5,169.2 738.7,170.2 739.9,170.0 741.1,168.4 742.3,167.8 743.5,167.5 744.6,167.6 745.8,167.9 747.0,168.3 748.2,168.6 749.4,168.8 750.6,168.8 751.8,168.9 752.9,169.2 754.1,169.7 755.3,171.2 756.5,171.1 757.7,169.8 758.9,168.7 760.1,168.0 761.3,167.3 762.4,166.7 763.6,166.2 764.8,165.7 766.0,165.2"/>
<line x1="606" y1="42" x2="628" y2="42" stroke="#0f62fe" stroke-width="2.2"/>
<text x="634" y="46" font-family="Arial" font-size="12">vy_mps</text>
</svg>