<svg xmlns="http://www.w3.org/2000/svg" width="820" height="320" viewBox="0 0 820 320">
<rect width="100%" height="100%" fill="#ffffff"/>
<text x="54" y="28" font-family="Arial" font-size="18" font-weight="700">Speed</text>
<line x1="54" y1="266" x2="766" y2="266" stroke="#1f2933"/>
<line x1="54" y1="54" x2="54" y2="266" stroke="#1f2933"/>
<text x="54" y="306" font-family="Arial" font-size="12">time (s)</text>
<text x="596" y="306" font-family="Arial" font-size="12">speed (m/s)</text>
<text x="58" y="68" font-family="Arial" font-size="11">115</text>
<text x="58" y="260" font-family="Arial" font-size="11">80.2</text>
<polyline fill="none" stroke="#0f62fe" stroke-width="2.2" points="54.0,234.5 55.2,231.7 56.4,228.8 57.6,225.9 58.7,222.9 59.9,219.8 61.1,216.7 62.3,213.5 63.5,210.3 64.7,207.0 65.9,203.7 67.1,200.3 68.2,196.9 69.4,193.4 70.6,189.8 71.8,186.3 73.0,182.7 74.2,179.1 75.4,175.6 76.5,172.0 77.7,168.5 78.9,165.0 80.1,161.4 81.3,157.9 82.5,154.4 83.7,150.9 84.9,147.4 86.0,143.9 87.2,140.4 88.4,136.9 89.6,133.3 90.8,129.8 92.0,126.3 93.2,122.8 94.3,119.3 95.5,115.8 96.7,112.3 97.9,108.8 99.1,105.2 100.3,101.7 101.5,98.2 102.7,94.7 103.8,91.2 105.0,87.8 106.2,84.3 107.4,81.0 108.6,77.6 109.8,74.4 111.0,71.2 112.1,68.1 113.3,65.1 114.5,62.4 115.7,60.0 116.9,57.9 118.1,56.4 119.3,55.3 120.5,54.5 121.6,54.1 122.8,54.0 124.0,54.4 125.2,55.4 126.4,56.9 127.6,58.7 128.8,60.6 129.9,62.5 131.1,64.2 132.3,64.2 133.5,65.0 134.7,65.9 135.9,66.6 137.1,66.9 138.3,66.9 139.4,66.6 140.6,66.0 141.8,65.3 143.0,64.7 144.2,64.3 145.4,64.3 146.6,64.7 147.7,65.6 148.9,66.8 150.1,68.1 151.3,69.2 152.5,70.0 153.7,70.3 154.9,70.1 156.1,69.6 157.2,69.1 158.4,68.6 159.6,68.5 160.8,68.9 162.0,69.9 163.2,71.4 164.4,73.3 165.5,75.3 166.7,76.9 167.9,78.1 169.1,78.5 170.3,78.3 171.5,77.2 172.7,75.7 173.9,73.9 175.0,72.1 176.2,70.7 177.4,70.7 178.6,72.0 179.8,74.4 181.0,77.6 182.2,81.2 183.3,84.7 184.5,87.5 185.7,89.5 186.9,90.4 188.1,90.3 189.3,88.8 190.5,86.5 191.7,83.0 192.8,80.4 194.0,79.8 195.2,81.1 196.4,83.2 197.6,86.1 198.8,90.0 200.0,94.7 201.1,99.5 202.3,103.9 203.5,107.8 204.7,111.1 205.9,113.4 207.1,114.4 208.3,113.7 209.5,111.6 210.6,107.8 211.8,104.4 213.0,103.7 214.2,104.6 215.4,106.9 216.6,110.7 217.8,115.4 218.9,120.8 220.1,126.5 221.3,132.0 222.5,137.1 223.7,142.3 224.9,147.6 226.1,152.7 227.3,156.9 228.4,160.0 229.6,161.5 230.8,161.2 232.0,159.2 233.2,156.3 234.4,152.5 235.6,151.2 236.7,151.3 237.9,152.8 239.1,155.4 240.3,158.8 241.5,162.8 242.7,167.3 243.9,172.3 245.1,177.4 246.2,182.3 247.4,186.5 248.6,190.5 249.8,193.9 251.0,196.4 252.2,197.4 253.4,197.1 254.5,195.6 255.7,193.2 256.9,189.4 258.1,186.3 259.3,184.2 260.5,182.9 261.7,183.0 262.9,184.4 264.0,186.8 265.2,189.9 266.4,193.3 267.6,197.1 268.8,201.1 270.0,205.0 271.2,208.3 272.3,211.2 273.5,213.3 274.7,214.2 275.9,213.4 277.1,210.9 278.3,207.4 279.5,204.3 280.7,201.6 281.8,200.0 283.0,199.5 284.2,200.2 285.4,201.9 286.6,204.1 287.8,207.3 289.0,211.1 290.1,215.0 291.3,218.9 292.5,222.7 293.7,226.5 294.9,229.9 296.1,232.7 297.3,234.4 298.5,235.6 299.6,236.2 300.8,235.9 302.0,235.0 303.2,233.2 304.4,231.1 305.6,229.1 306.8,227.5 307.9,226.4 309.1,224.9 310.3,224.8 311.5,225.7 312.7,227.3 313.9,229.2 315.1,231.4 316.3,234.0 317.4,237.2 318.6,240.7 319.8,244.3 321.0,248.2 322.2,252.2 323.4,256.1 324.6,259.4 325.7,262.0 326.9,264.0 328.1,265.4 329.3,266.0 330.5,265.6 331.7,263.8 332.9,261.2 334.1,258.3 335.2,255.0 336.4,251.6 337.6,248.8 338.8,246.7 340.0,245.0 341.2,244.7 342.4,245.5 343.5,247.0 344.7,249.0 345.9,251.1 347.1,253.1 348.3,254.7 349.5,256.0 350.7,256.8 351.9,256.8 353.0,255.7 354.2,253.6 355.4,249.8 356.6,245.1 357.8,240.1 359.0,235.6 360.2,232.3 361.3,230.8 362.5,230.4 363.7,230.9 364.9,232.2 366.1,233.9 367.3,235.8 368.5,237.8 369.7,239.8 370.8,241.6 372.0,242.8 373.2,243.1 374.4,242.3 375.6,239.5 376.8,236.6 378.0,233.1 379.1,229.5 380.3,226.3 381.5,223.3 382.7,221.6 383.9,221.4 385.1,222.3 386.3,223.9 387.5,226.0 388.6,228.4 389.8,231.2 391.0,234.4 392.2,237.6 393.4,240.5 394.6,242.7 395.8,244.2 396.9,245.5 398.1,246.4 399.3,246.8 400.5,246.6 401.7,245.6 402.9,244.1 404.1,242.2 405.3,239.9 406.4,236.8 407.6,233.7 408.8,231.5 410.0,229.5 411.2,228.0 412.4,227.2 413.6,227.4 414.7,228.3 415.9,229.8 417.1,231.7 418.3,233.8 419.5,236.6 420.7,239.6 421.9,242.6 423.1,245.3 424.2,247.8 425.4,250.2 426.6,251.9 427.8,252.5 429.0,251.8 430.2,250.1 431.4,247.8 432.5,244.6 433.7,240.5 434.9,235.9 436.1,231.7 437.3,229.0 438.5,227.2 439.7,226.0 440.9,225.0 442.0,224.2 443.2,223.4 444.4,222.7 445.6,221.9 446.8,220.9 448.0,219.3 449.2,216.9 450.3,212.9 451.5,208.5 452.7,204.4 453.9,200.7 455.1,197.7 456.3,195.0 457.5,192.4 458.7,191.2 459.8,190.9 461.0,191.1 462.2,191.6 463.4,191.7 464.6,191.4 465.8,190.4 467.0,188.9 468.1,186.6 469.3,183.4 470.5,179.3 471.7,173.8 472.9,169.0 474.1,165.6 475.3,163.5 476.5,161.9 477.6,162.0 478.8,163.3 480.0,165.5 481.2,168.0 482.4,170.4 483.6,172.4 484.8,174.4 485.9,176.0 487.1,176.7 488.3,176.1 489.5,174.1 490.7,170.2 491.9,166.2 493.1,162.7 494.3,160.0 495.4,158.2 496.6,156.3 497.8,156.0 499.0,157.0 500.2,159.0 501.4,161.6 502.6,164.1 503.7,166.5 504.9,169.2 506.1,172.1 507.3,174.8 508.5,177.0 509.7,178.8 510.9,180.4 512.1,181.6 513.2,182.1 514.4,181.8 515.6,180.6 516.8,178.8 518.0,176.7 519.2,174.6 520.4,172.3 521.5,168.8 522.7,165.5 523.9,162.8 525.1,160.0 526.3,156.8 527.5,153.5 528.7,150.1 529.9,146.4 531.0,141.9 532.2,137.8 533.4,135.2 534.6,132.8 535.8,130.9 537.0,129.4 538.2,128.5 539.3,128.2 540.5,128.2 541.7,127.9 542.9,127.0 544.1,127.0 545.3,127.3 546.5,127.6 547.7,127.7 548.8,127.6 550.0,127.4 551.2,127.2 552.4,127.2 553.6,126.7 554.8,125.6 556.0,123.1 557.1,120.2 558.3,118.3 559.5,116.0 560.7,113.9 561.9,112.3 563.1,111.5 564.3,111.3 565.5,110.8 566.6,111.2 567.8,112.6 569.0,114.6 570.2,116.9 571.4,118.8 572.6,120.5 573.8,122.1 574.9,123.9 576.1,125.9 577.3,127.6 578.5,128.9 579.7,128.8 580.9,127.8 582.1,127.4 583.3,127.8 584.4,128.5 585.6,129.6 586.8,131.7 588.0,134.0 589.2,136.3 590.4,138.5 591.6,140.3 592.7,141.7 593.9,143.1 595.1,144.5 596.3,145.9 597.5,147.0 598.7,147.8 599.9,148.3 601.1,148.2 602.2,147.7 603.4,147.6 604.6,148.0 605.8,148.6 607.0,150.3 608.2,152.1 609.4,154.0 610.5,155.9 611.7,157.7 612.9,159.2 614.1,160.4 615.3,161.6 616.5,162.7 617.7,163.8 618.9,164.6 620.0,165.2 621.2,165.8 622.4,166.2 623.6,166.2 624.8,166.6 626.0,167.5 627.2,168.6 628.3,169.9 629.5,171.3 630.7,172.7 631.9,174.1 633.1,175.2 634.3,176.2 635.5,177.2 636.7,178.3 637.8,179.3 639.0,180.2 640.2,180.8 641.4,181.5 642.6,182.2 643.8,182.3 645.0,182.9 646.1,184.7 647.3,186.5 648.5,188.2 649.7,189.6 650.9,190.4 652.1,191.1 653.3,191.9 654.5,192.6 655.6,193.3 656.8,194.0 658.0,194.7 659.2,195.5 660.4,196.4 661.6,197.2 662.8,198.0 663.9,198.6 665.1,199.1 666.3,199.4 667.5,199.2 668.7,198.8 669.9,199.9 671.1,201.5 672.3,203.2 673.4,205.0 674.6,206.9 675.8,208.7 677.0,210.3 678.2,211.8 679.4,213.2 680.6,214.3 681.7,215.3 682.9,216.0 684.1,216.2 685.3,216.5 686.5,216.9 687.7,217.3 688.9,217.8 690.1,218.4 691.2,219.0 692.4,219.8 693.6,220.6 694.8,221.3 696.0,222.0 697.2,222.7 698.4,223.5 699.5,224.5 700.7,225.5 701.9,226.4 703.1,227.1 704.3,226.9 705.5,226.4 706.7,226.8 707.9,227.3 709.0,228.0 710.2,229.1 711.4,230.6 712.6,232.2 713.8,233.7 715.0,235.0 716.2,236.0 717.3,236.6 718.5,236.6 719.7,236.3 720.9,235.9 722.1,235.5 723.3,235.3 724.5,235.3 725.7,235.5 726.8,236.2 728.0,237.3 729.2,238.7 730.4,240.1 731.6,241.6 732.8,242.8 734.0,243.5 735.1,243.9 736.3,244.2 737.5,244.7 738.7,244.8 739.9,244.2 741.1,244.4 742.3,245.0 743.5,245.7 744.6,246.5 745.8,247.3 747.0,247.9 748.2,248.4 749.4,248.9 750.6,249.5 751.8,250.2 752.9,250.8 754.1,251.2 755.3,251.3 756.5,250.5 757.7,250.6 758.9,250.8 760.1,251.0 761.3,251.4 762.4,252.3 763.6,253.3 764.8,254.5 766.0,255.5"/>
<line x1="606" y1="42" x2="628" y2="42" stroke="#0f62fe" stroke-width="2.2"/>
<text x="634" y="46" font-family="Arial" font-size="12">speed_mps</text>
<polyline fill="none" stroke="#24a148" stroke-width="2.2" points="54.0,234.5 55.2,231.7 56.4,228.8 57.6,225.9 58.7,222.9 59.9,219.8 61.1,216.7 62.3,213.5 63.5,210.3 64.7,207.0 65.9,203.7 67.1,200.3 68.2,196.9 69.4,193.4 70.6,189.8 71.8,186.3 73.0,182.7 74.2,179.1 75.4,175.6 76.5,172.0 77.7,168.5 78.9,165.0 80.1,161.4 81.3,157.9 82.5,154.4 83.7,150.9 84.9,147.4 86.0,143.9 87.2,140.4 88.4,136.9 89.6,133.3 90.8,129.8 92.0,126.3 93.2,122.8 94.3,119.3 95.5,115.8 96.7,112.3 97.9,108.8 99.1,105.2 100.3,101.7 101.5,98.2 102.7,94.7 103.8,91.2 105.0,87.8 106.2,84.3 107.4,81.0 108.6,77.6 109.8,74.4 111.0,71.2 112.1,68.1 113.3,65.1 114.5,62.4 115.7,60.0 116.9,57.9 118.1,56.4 119.3,55.3 120.5,54.5 121.6,54.1 122.8,54.0 124.0,54.4 125.2,55.4 126.4,56.9 127.6,58.7 128.8,60.6 129.9,62.5 131.1,64.2 132.3,64.2 133.5,65.0 134.7,65.9 135.9,66.6 137.1,66.9 138.3,66.9 139.4,66.6 140.6,66.0 141.8,65.3 143.0,64.7 144.2,64.3 145.4,64.3 146.6,64.7 147.7,65.6 148.9,66.8 150.1,68.1 151.3,69.2 152.5,70.0 153.7,70.3 154.9,70.1 156.1,69.6 157.2,69.1 158.4,68.6 159.6,68.5 160.8,68.9 162.0,69.9 163.2,71.4 164.4,73.3 165.5,75.3 166.7,76.9 167.9,78.1 169.1,78.5 170.3,78.3 171.5,77.2 172.7,75.7 173.9,73.9 175.0,72.1 176.2,70.7 177.4,70.7 178.6,72.0 179.8,74.4 181.0,77.6 182.2,81.2 183.3,84.7 184.5,87.5 185.7,89.5 186.9,90.4 188.1,90.3 189.3,88.8 190.5,86.5 191.7,83.0 192.8,80.4 194.0,79.8 195.2,81.1 196.4,83.2 197.6,86.1 198.8,90.0 200.0,94.7 201.1,99.5 202.3,103.9 203.5,107.8 204.7,111.1 205.9,113.4 207.1,114.4 208.3,113.7 209.5,111.6 210.6,107.8 211.8,104.4 213.0,103.7 214.2,104.6 215.4,106.9 216.6,110.7 217.8,115.4 218.9,120.8 220.1,126.5 221.3,132.0 222.5,137.1 223.7,142.3 224.9,147.6 226.1,152.7 227.3,156.9 228.4,160.0 229.6,161.5 230.8,161.2 232.0,159.2 233.2,156.3 234.4,152.5 235.6,151.2 236.7,151.3 237.9,152.8 239.1,155.4 240.3,158.8 241.5,162.8 242.7,167.3 243.9,172.3 245.1,177.4 246.2,182.3 247.4,186.5 248.6,190.5 249.8,193.9 251.0,196.4 252.2,197.4 253.4,197.1 254.5,195.6 255.7,193.2 256.9,189.4 258.1,186.3 259.3,184.2 260.5,182.9 261.7,183.0 262.9,184.4 264.0,186.8 265.2,189.9 266.4,193.3 267.6,197.1 268.8,201.1 270.0,205.0 271.2,208.3 272.3,211.2 273.5,213.3 274.7,214.2 275.9,213.4 277.1,210.9 278.3,207.4 279.5,204.3 280.7,201.6 281.8,200.0 283.0,199.5 284.2,200.2 285.4,201.9 286.6,204.1 287.8,207.3 289.0,211.1 290.1,215.0 291.3,218.9 292.5,222.7 293.7,226.5 294.9,229.9 296.1,232.7 297.3,234.4 298.5,235.6 299.6,236.2 300.8,235.9 302.0,235.0 303.2,233.2 304.4,231.1 305.6,229.1 306.8,227.5 307.9,226.4 309.1,224.9 310.3,224.8 311.5,225.7 312.7,227.3 313.9,229.2 315.1,231.4 316.3,234.0 317.4,237.2 318.6,240.7 319.8,244.3 321.0,248.2 322.2,252.2 323.4,256.1 324.6,259.4 325.7,262.0 326.9,264.0 328.1,265.4 329.3,266.0 330.5,265.6 331.7,263.8 332.9,261.2 334.1,258.3 335.2,255.0 336.4,251.6 337.6,248.8 338.8,246.7 340.0,245.0 341.2,244.7 342.4,245.5 343.5,247.0 344.7,249.0 345.9,251.1 347.1,253.1 348.3,254.7 349.5,256.0 350.7,256.8 351.9,256.8 353.0,255.7 354.2,253.6 355.4,249.8 356.6,245.1 357.8,240.1 359.0,235.6 360.2,232.3 361.3,230.8 362.5,230.4 363.7,230.9 364.9,232.2 366.1,233.9 367.3,235.8 368.5,237.8 369.7,239.8 370.8,241.6 372.0,242.8 373.2,243.1 374.4,242.3 375.6,239.5 376.8,236.6 378.0,233.1 379.1,229.5 380.3,226.3 381.5,223.3 382.7,221.6 383.9,221.4 385.1,222.3 386.3,223.9 387.5,226.0 388.6,228.4 389.8,231.2 391.0,234.4 392.2,237.6 393.4,240.5 394.6,242.7 395.8,244.2 396.9,245.5 398.1,246.4 399.3,246.8 400.5,246.6 401.7,245.6 402.9,244.1 404.1,242.2 405.3,239.9 406.4,236.8 407.6,233.7 408.8,231.5 410.0,229.5 411.2,228.0 412.4,227.2 413.6,227.4 414.7,228.3 415.9,229.8 417.1,231.7 418.3,233.8 419.5,236.6 420.7,239.6 421.9,242.6 423.1,245.3 424.2,247.8 425.4,250.2 426.6,251.9 427.8,252.5 429.0,251.8 430.2,250.1 431.4,247.8 432.5,244.6 433.7,240.5 434.9,235.9 436.1,231.7 437.3,229.0 438.5,227.2 439.7,226.0 440.9,225.0 442.0,224.2 443.2,223.4 444.4,222.7 445.6,221.9 446.8,220.9 448.0,219.3 449.2,216.9 450.3,212.9 451.5,208.5 452.7,204.4 453.9,200.7 455.1,197.7 456.3,195.0 457.5,192.4 458.7,191.2 459.8,190.9 461.0,191.1 462.2,191.6 463.4,191.7 464.6,191.4 465.8,190.4 467.0,188.9 468.1,186.6 469.3,183.4 470.5,179.3 471.7,173.8 472.9,169.0 474.1,165.6 475.3,163.5 476.5,161.9 477.6,162.0 478.8,163.3 480.0,165.5 481.2,168.0 482.4,170.4 483.6,172.4 484.8,174.4 485.9,176.0 487.1,176.7 488.3,176.1 489.5,174.1 490.7,170.2 491.9,166.2 493.1,162.7 494.3,160.0 495.4,158.2 496.6,156.3 497.8,156.0 499.0,157.0 500.2,159.0 501.4,161.6 502.6,164.1 503.7,166.5 504.9,169.2 506.1,172.1 507.3,174.8 508.5,177.0 509.7,178.8 510.9,180.4 512.1,181.6 513.2,182.1 514.4,181.8 515.6,180.6 516.8,178.8 518.0,176.7 519.2,174.6 520.4,172.3 521.5,168.8 522.7,165.5 523.9,162.8 525.1,160.0 526.3,156.8 527.5,153.5 528.7,150.1 529.9,146.4 531.0,141.9 532.2,137.8 533.4,135.2 534.6,132.8 535.8,130.9 537.0,129.4 538.2,128.5 539.3,128.2 540.5,128.2 541.7,127.9 542.9,127.0 544.1,127.0 545.3,127.3 546.5,127.6 547.7,127.7 548.8,127.6 550.0,127.4 551.2,127.2 552.4,127.2 553.6,126.7 554.8,125.6 556.0,123.1 557.1,120.2 558.3,118.3 559.5,116.0 560.7,113.9 561.9,112.3 563.1,111.5 564.3,111.3 565.5,110.8 566.6,111.2 567.8,112.6 569.0,114.6 570.2,116.9 571.4,118.8 572.6,120.5 573.8,122.1 574.9,123.9 576.1,125.9 577.3,127.6 578.5,128.9 579.7,128.8 580.9,127.8 582.1,127.4 583.3,127.8 584.4,128.5 585.6,129.6 586.8,131.7 588.0,134.0 589.2,136.3 590.4,138.5 591.6,140.3 592.7,141.7 593.9,143.1 595.1,144.5 596.3,145.9 597.5,147.0 598.7,147.8 599.9,148.3 601.1,148.2 602.2,147.7 603.4,147.6 604.6,148.0 605.8,148.6 607.0,150.3 608.2,152.1 609.4,154.0 610.5,155.9 611.7,157.7 612.9,159.2 614.1,160.4 615.3,161.6 616.5,162.7 617.7,163.8 618.9,164.6 620.0,165.2 621.2,165.8 622.4,166.2 623.6,166.2 624.8,166.6 626.0,167.5 627.2,168.6 628.3,169.9 629.5,171.3 630.7,172.7 631.9,174.1 633.1,175.2 634.3,176.2 635.5,177.2 636.7,178.3 637.8,179.3 639.0,180.2 640.2,180.8 641.4,181.5 642.6,182.2 643.8,182.3 645.0,182.9 646.1,184.7 647.3,186.5 648.5,188.2 649.7,189.6 650.9,190.4 652.1,191.1 653.3,191.9 654.5,192.6 655.6,193.3 656.8,194.0 658.0,194.7 659.2,195.5 660.4,196.4 661.6,197.2 662.8,198.0 663.9,198.6 665.1,199.1 666.3,199.4 667.5,199.2 668.7,198.8 669.9,199.9 671.1,201.5 672.3,203.2 673.4,205.0 674.6,206.9 675.8,208.7 677.0,210.3 678.2,211.8 679.4,213.2 680.6,214.3 681.7,215.3 682.9,216.0 684.1,216.2 685.3,216.5 686.5,216.9 687.7,217.3 688.9,217.8 690.1,218.4 691.2,219.0 692.4,219.8 693.6,220.6 694.8,221.3 696.0,222.0 697.2,222.7 698.4,223.5 699.5,224.5 700.7,225.5 701.9,226.4 703.1,227.1 704.3,226.9 705.5,226.4 706.7,226.8 707.9,227.3 709.0,228.0 710.2,229.1 711.4,230.6 712.6,232.2 713.8,233.7 715.0,235.0 716.2,236.0 717.3,236.6 718.5,236.6 719.7,236.3 720.9,235.9 722.1,235.5 723.3,235.3 724.5,235.3 725.7,235.5 726.8,236.2 728.0,237.3 729.2,238.7 730.4,240.1 731.6,241.6 732.8,242.8 734.0,243.5 735.1,243.9 736.3,244.2 737.5,244.7 738.7,244.8 739.9,244.2 741.1,244.4 742.3,245.0 743.5,245.7 744.6,246.5 745.8,247.3 747.0,247.9 748.2,248.4 749.4,248.9 750.6,249.5 751.8,250.2 752.9,250.8 754.1,251.2 755.3,251.3 756.5,250.5 757.7,250.6 758.9,250.8 760.1,251.0 761.3,251.4 762.4,252.3 763.6,253.3 764.8,254.5 766.0,255.5"/>
<line x1="606" y1="60" x2="628" y2="60" stroke="#24a148" stroke-width="2.2"/>
<text x="634" y="64" font-family="Arial" font-size="12">airspeed_mps</text>
</svg>