<svg xmlns="http://www.w3.org/2000/svg" width="820" height="320" viewBox="0 0 820 320">
<rect width="100%" height="100%" fill="#ffffff"/>
<text x="54" y="28" font-family="Arial" font-size="18" font-weight="700">Euler Angles</text>
<line x1="54" y1="266" x2="766" y2="266" stroke="#1f2933"/>
<line x1="54" y1="54" x2="54" y2="266" stroke="#1f2933"/>
<text x="54" y="306" font-family="Arial" font-size="12">time (s)</text>
<text x="596" y="306" font-family="Arial" font-size="12">angle (deg)</text>
<text x="58" y="68" font-family="Arial" font-size="11">180</text>
<text x="58" y="260" font-family="Arial" font-size="11">-179</text>
<polyline fill="none" stroke="#0f62fe" stroke-width="2.2" points="54.0,160.3 55.2,160.3 56.4,160.3 57.6,160.3 58.7,160.3 59.9,160.3 61.1,160.3 62.3,160.3 63.5,160.4 64.7,160.4 65.9,160.4 67.1,160.4 68.2,160.4 69.4,160.4 70.6,160.4 71.8,160.4 73.0,160.3 74.2,160.3 75.4,160.2 76.5,160.2 77.7,160.0 78.9,159.9 80.1,159.7 81.3,159.5 82.5,159.2 83.7,158.9 84.9,158.6 86.0,158.1 87.2,157.6 88.4,157.1 89.6,156.4 90.8,155.6 92.0,154.8 93.2,153.8 94.3,152.7 95.5,151.5 96.7,150.1 97.9,148.6 99.1,146.9 100.3,145.0 101.5,142.8 102.7,140.5 103.8,137.9 105.0,135.1 106.2,132.1 107.4,128.8 108.6,125.4 109.8,121.7 111.0,117.8 112.1,113.7 113.3,109.4 114.5,104.9 115.7,100.2 116.9,95.2 118.1,90.1 119.3,84.9 120.5,79.6 121.6,74.1 122.8,68.3 124.0,62.0 125.2,54.7 126.4,258.2 127.6,246.1 128.8,229.7 129.9,210.1 131.1,191.5 132.3,176.2 133.5,164.2 134.7,154.3 135.9,145.4 137.1,136.4 138.3,126.5 139.4,114.6 140.6,100.4 141.8,84.6 143.0,69.2 144.2,55.7 145.4,256.9 146.6,247.2 147.7,238.2 148.9,228.8 150.1,217.1 151.3,199.3 152.5,174.4 153.7,153.7 154.9,141.1 156.1,132.0 157.2,123.1 158.4,112.2 159.6,96.4 160.8,73.9 162.0,264.7 163.2,249.5 164.4,238.6 165.5,229.4 166.7,220.2 167.9,209.0 169.1,193.4 170.3,174.2 171.5,157.8 172.7,146.6 173.9,138.4 175.0,130.9 176.2,122.0 177.4,107.3 178.6,75.6 179.8,256.5 181.0,241.5 182.2,232.4 183.3,224.9 184.5,217.2 185.7,207.9 186.9,195.6 188.1,180.9 189.3,167.4 190.5,157.8 191.7,151.5 192.8,147.2 194.0,144.7 195.2,144.9 196.4,154.8 197.6,197.7 198.8,214.1 200.0,215.6 201.1,214.1 202.3,211.3 203.5,207.5 204.7,202.6 205.9,196.1 207.1,188.3 208.3,180.2 209.5,173.4 210.6,169.0 211.8,167.0 213.0,167.1 214.2,169.2 215.4,173.2 216.6,178.4 217.8,184.0 218.9,188.9 220.1,192.6 221.3,195.1 222.5,197.0 223.7,198.2 224.9,198.6 226.1,198.0 227.3,196.0 228.4,192.4 229.6,187.5 230.8,182.3 232.0,178.7 233.2,177.5 234.4,178.5 235.6,181.3 236.7,185.4 237.9,190.3 239.1,195.6 240.3,201.0 241.5,206.5 242.7,212.1 243.9,217.6 245.1,223.1 246.2,228.3 247.4,232.9 248.6,236.2 249.8,236.1 251.0,226.1 252.2,200.9 253.4,187.8 254.5,186.5 255.7,189.2 256.9,193.8 258.1,199.7 259.3,206.8 260.5,214.8 261.7,223.7 262.9,233.2 264.0,243.2 265.2,253.1 266.4,262.5 267.6,58.6 268.8,66.6 270.0,74.0 271.2,81.0 272.3,88.1 273.5,98.4 274.7,154.1 275.9,189.7 277.1,197.7 278.3,203.6 279.5,209.1 280.7,215.2 281.8,222.4 283.0,231.2 284.2,242.3 285.4,255.6 286.6,57.2 287.8,70.5 289.0,82.0 290.1,91.9 291.3,100.6 292.5,108.6 293.7,116.4 294.9,124.5 296.1,133.7 297.3,144.3 298.5,155.9 299.6,167.7 300.8,178.9 302.0,188.8 303.2,197.4 304.4,205.0 305.6,212.0 306.8,218.8 307.9,225.7 309.1,233.0 310.3,241.7 311.5,252.8 312.7,56.1 313.9,81.4 315.1,111.7 316.3,132.8 317.4,146.1 318.6,156.3 319.8,165.3 321.0,173.6 322.2,181.6 323.4,189.5 324.6,197.7 325.7,206.5 326.9,215.9 328.1,226.0 329.3,236.6 330.5,247.6 331.7,258.6 332.9,56.9 334.1,67.2 335.2,76.7 336.4,85.4 337.6,93.3 338.8,100.9 340.0,108.3 341.2,116.8 342.4,128.2 343.5,143.9 344.7,162.4 345.9,178.1 347.1,189.5 348.3,198.1 349.5,205.3 350.7,212.2 351.9,219.4 353.0,227.3 354.2,236.3 355.4,246.9 356.6,259.1 357.8,59.3 359.0,71.5 360.2,82.1 361.3,91.4 362.5,99.5 363.7,107.0 364.9,114.5 366.1,122.7 367.3,132.5 368.5,145.0 369.7,160.0 370.8,175.3 372.0,188.2 373.2,198.6 374.4,207.6 375.6,216.2 376.8,225.2 378.0,235.1 379.1,246.6 380.3,260.0 381.5,61.9 382.7,76.3 383.9,89.6 385.1,101.4 386.3,111.9 387.5,121.4 388.6,130.5 389.8,139.7 391.0,149.1 392.2,159.0 393.4,169.3 394.6,179.5 395.8,189.9 396.9,200.2 398.1,210.3 399.3,220.3 400.5,229.9 401.7,239.3 402.9,248.3 404.1,257.0 405.3,265.6 406.4,61.9 407.6,71.7 408.8,83.6 410.0,99.8 411.2,123.3 412.4,149.4 413.6,169.0 414.7,182.8 415.9,193.6 417.1,203.1 418.3,211.4 419.5,219.5 420.7,227.8 421.9,236.7 423.1,246.1 424.2,256.1 425.4,54.0 426.6,64.6 427.8,74.6 429.0,83.7 430.2,91.7 431.4,98.6 432.5,104.6 433.7,109.6 434.9,113.1 436.1,115.4 437.3,111.5 438.5,244.1 439.7,241.2 440.9,244.0 442.0,247.8 443.2,251.7 444.4,255.1 445.6,257.9 446.8,259.5 448.0,259.9 449.2,258.4 450.3,254.7 451.5,249.6 452.7,245.6 453.9,244.1 455.1,245.1 456.3,248.2 457.5,252.8 458.7,258.2 459.8,263.9 461.0,57.2 462.2,63.3 463.4,69.7 464.6,76.6 465.8,84.8 467.0,100.2 468.1,159.3 469.3,184.1 470.5,192.5 471.7,199.2 472.9,205.9 474.1,213.1 475.3,221.4 476.5,231.1 477.6,242.6 478.8,255.4 480.0,56.0 481.2,68.3 482.4,79.2 483.6,88.9 484.8,97.8 485.9,106.7 487.1,116.9 488.3,131.0 489.5,149.9 490.7,168.0 491.9,181.8 493.1,192.1 494.3,200.5 495.4,208.4 496.6,216.5 497.8,225.9 499.0,237.8 500.2,252.6 501.4,57.0 502.6,74.3 503.7,89.9 504.9,103.2 506.1,114.3 507.3,123.7 508.5,132.1 509.7,140.4 510.9,148.7 512.1,157.3 513.2,166.4 514.4,176.1 515.6,186.2 516.8,196.6 518.0,207.0 519.2,217.0 520.4,226.8 521.5,236.4 522.7,245.9 523.9,255.6 525.1,265.5 526.3,63.0 527.5,73.2 528.7,83.6 529.9,94.0 531.0,104.6 532.2,115.3 533.4,125.8 534.6,135.9 535.8,145.8 537.0,155.4 538.2,165.1 539.3,174.6 540.5,183.9 541.7,193.1 542.9,202.2 544.1,211.4 545.3,220.7 546.5,230.0 547.7,239.3 548.8,248.7 550.0,258.2 551.2,55.0 552.4,64.3 553.6,73.3 554.8,81.9 556.0,90.5 557.1,99.3 558.3,108.5 559.5,119.2 560.7,132.6 561.9,149.4 563.1,166.8 564.3,181.5 565.5,193.3 566.6,202.7 567.8,211.1 569.0,219.2 570.2,227.3 571.4,235.7 572.6,244.4 573.8,253.3 574.9,262.0 576.1,57.4 577.3,64.2 578.5,69.5 579.7,73.1 580.9,73.9 582.1,66.1 583.3,242.3 584.4,221.8 585.6,218.2 586.8,218.8 588.0,221.3 589.2,225.4 590.4,231.1 591.6,238.1 592.7,246.0 593.9,254.2 595.1,262.1 596.3,56.6 597.5,62.3 598.7,66.6 599.9,69.3 601.1,69.4 602.2,62.5 603.4,238.8 604.6,213.8 605.8,209.8 607.0,210.2 608.2,212.6 609.4,217.0 610.5,223.3 611.7,231.8 612.9,241.8 614.1,252.2 615.3,261.5 616.5,56.4 617.7,61.9 618.9,65.5 620.0,67.2 621.2,66.0 622.4,56.4 623.6,226.5 624.8,205.4 626.0,202.4 627.2,203.1 628.3,205.2 629.5,208.9 630.7,215.3 631.9,225.7 633.1,240.1 634.3,254.9 635.5,266.0 636.7,60.3 637.8,64.1 639.0,65.6 640.2,64.8 641.4,59.8 642.6,255.8 643.8,222.1 645.0,205.3 646.1,200.0 647.3,198.3 648.5,198.1 649.7,198.9 650.9,200.9 652.1,205.0 653.3,212.0 654.5,223.0 655.6,236.6 656.8,249.1 658.0,258.5 659.2,265.1 660.4,56.9 661.6,59.8 662.8,61.4 663.9,62.0 665.1,61.5 666.3,59.1 667.5,264.2 668.7,234.5 669.9,197.4 671.1,187.9 672.3,184.6 673.4,183.2 674.6,182.6 675.8,182.7 677.0,183.3 678.2,184.4 679.4,185.9 680.6,188.0 681.7,190.5 682.9,193.3 684.1,196.5 685.3,199.9 686.5,203.6 687.7,207.6 688.9,212.0 690.1,216.7 691.2,222.0 692.4,227.5 693.6,233.2 694.8,239.0 696.0,244.7 697.2,250.3 698.4,255.6 699.5,260.5 700.7,264.9 701.9,55.8 703.1,58.2 704.3,56.6 705.5,212.9 706.7,189.7 707.9,190.2 709.0,192.9 710.2,196.4 711.4,200.5 712.6,205.2 713.8,210.6 715.0,216.9 716.2,224.4 717.3,233.1 718.5,243.1 719.7,253.9 720.9,265.1 722.1,63.7 723.3,74.3 724.5,83.9 725.7,92.1 726.8,99.3 728.0,105.5 729.2,111.1 730.4,116.1 731.6,120.8 732.8,125.7 734.0,132.2 735.1,147.2 736.3,199.2 737.5,223.0 738.7,231.5 739.9,237.2 741.1,242.3 742.3,247.5 743.5,253.0 744.6,258.9 745.8,265.3 747.0,59.4 748.2,66.4 749.4,73.7 750.6,81.3 751.8,89.6 752.9,99.6 754.1,113.6 755.3,133.6 756.5,154.6 757.7,169.9 758.9,180.7 760.1,189.1 761.3,196.3 762.4,202.9 763.6,209.5 764.8,216.5 766.0,224.0"/>
<line x1="606" y1="42" x2="628" y2="42" stroke="#0f62fe" stroke-width="2.2"/>
<text x="634" y="46" font-family="Arial" font-size="12">roll_deg</text>
<polyline fill="none" stroke="#24a148" stroke-width="2.2" points="54.0,155.0 55.2,154.9 56.4,154.7 57.6,154.5 58.7,154.3 59.9,154.2 61.1,154.2 62.3,154.1 63.5,154.1 64.7,154.0 65.9,154.0 67.1,154.0 68.2,154.0 69.4,154.0 70.6,154.0 71.8,154.0 73.0,154.0 74.2,154.0 75.4,154.0 76.5,154.1 77.7,154.1 78.9,154.1 80.1,154.1 81.3,154.1 82.5,154.1 83.7,154.1 84.9,154.1 86.0,154.2 87.2,154.2 88.4,154.2 89.6,154.2 90.8,154.2 92.0,154.2 93.2,154.2 94.3,154.2 95.5,154.2 96.7,154.2 97.9,154.2 99.1,154.2 100.3,154.2 101.5,154.3 102.7,154.3 103.8,154.4 105.0,154.5 106.2,154.6 107.4,154.8 108.6,155.0 109.8,155.3 111.0,155.6 112.1,156.1 113.3,156.6 114.5,157.3 115.7,158.2 116.9,159.6 118.1,161.4 119.3,163.8 120.5,166.8 121.6,170.4 122.8,174.5 124.0,179.2 125.2,184.1 126.4,189.1 127.6,193.6 128.8,196.7 129.9,197.3 131.1,194.9 132.3,190.1 133.5,183.5 134.7,175.9 135.9,167.5 137.1,158.7 138.3,150.5 139.4,143.7 140.6,139.3 141.8,138.0 143.0,140.0 144.2,144.7 145.4,151.2 146.6,159.0 147.7,167.6 148.9,176.7 150.1,185.5 151.3,192.3 152.5,193.2 153.7,186.5 154.9,175.5 156.1,163.3 157.2,151.2 158.4,140.1 159.6,131.6 160.8,128.4 162.0,132.0 163.2,140.0 164.4,149.6 165.5,159.9 166.7,170.2 167.9,179.5 169.1,185.8 170.3,186.4 171.5,180.5 172.7,170.6 173.9,158.6 175.0,146.3 176.2,134.4 177.4,123.9 178.6,118.4 179.8,123.4 181.0,133.0 182.2,143.6 183.3,154.3 184.5,164.5 185.7,173.5 186.9,179.6 188.1,180.9 189.3,176.7 190.5,168.3 191.7,157.9 192.8,147.1 194.0,136.2 195.2,125.6 196.4,116.2 197.6,114.4 198.8,122.5 200.0,131.9 201.1,141.2 202.3,150.2 203.5,158.6 204.7,165.9 205.9,171.4 207.1,174.4 208.3,174.1 209.5,170.6 210.6,164.8 211.8,158.5 213.0,152.4 214.2,147.2 215.4,143.5 216.6,141.7 217.8,141.9 218.9,143.9 220.1,147.3 221.3,151.6 222.5,156.2 223.7,161.2 224.9,166.4 226.1,171.6 227.3,176.5 228.4,180.3 229.6,182.2 230.8,181.8 232.0,179.1 233.2,175.2 234.4,171.0 235.6,167.4 236.7,165.1 237.9,164.1 239.1,164.3 240.3,165.7 241.5,167.8 242.7,170.7 243.9,174.2 245.1,178.3 246.2,183.0 247.4,188.3 248.6,193.9 249.8,199.7 251.0,204.6 252.2,204.9 253.4,199.5 254.5,192.4 255.7,185.0 256.9,177.9 258.1,171.6 259.3,166.1 260.5,161.8 261.7,158.6 262.9,156.8 264.0,156.5 265.2,157.7 266.4,160.4 267.6,164.6 268.8,170.1 270.0,176.7 271.2,184.6 272.3,193.5 273.5,203.2 274.7,209.7 275.9,200.7 277.1,190.1 278.3,179.9 279.5,170.1 280.7,160.8 281.8,152.4 283.0,145.1 284.2,139.6 285.4,136.6 286.6,136.4 287.8,138.9 289.0,142.9 290.1,147.9 291.3,153.6 292.5,159.5 293.7,165.6 294.9,171.3 296.1,176.0 297.3,179.0 298.5,180.4 299.6,180.0 300.8,177.4 302.0,173.1 303.2,167.5 304.4,161.1 305.6,154.6 306.8,147.9 307.9,141.3 309.1,134.7 310.3,128.5 311.5,122.8 312.7,118.0 313.9,115.2 315.1,116.0 316.3,120.0 317.4,125.0 318.6,130.2 319.8,134.9 321.0,140.1 322.2,145.7 323.4,151.3 324.6,156.5 325.7,161.0 326.9,164.7 328.1,167.6 329.3,169.5 330.5,170.3 331.7,169.9 332.9,168.1 334.1,164.8 335.2,160.2 336.4,154.4 337.6,148.2 338.8,141.8 340.0,135.6 341.2,129.7 342.4,124.8 343.5,121.8 344.7,121.7 345.9,124.4 347.1,129.1 348.3,134.9 349.5,141.4 350.7,148.2 351.9,154.9 353.0,161.4 354.2,167.4 355.4,172.2 356.6,175.1 357.8,175.1 359.0,172.5 360.2,168.0 361.3,162.3 362.5,156.0 363.7,149.6 364.9,143.2 366.1,137.3 367.3,132.4 368.5,129.0 369.7,127.8 370.8,129.6 372.0,134.1 373.2,140.4 374.4,147.6 375.6,155.3 376.8,163.1 378.0,170.5 379.1,176.7 380.3,180.8 381.5,182.4 382.7,181.5 383.9,178.8 385.1,174.7 386.3,169.7 387.5,164.4 388.6,159.1 389.8,154.5 391.0,150.8 392.2,148.3 393.4,147.1 394.6,147.3 395.8,147.9 396.9,149.0 398.1,150.8 399.3,153.3 400.5,156.3 401.7,160.0 402.9,164.3 404.1,169.4 405.3,175.4 406.4,182.2 407.6,188.9 408.8,194.9 410.0,199.9 411.2,202.6 412.4,201.7 413.6,197.8 414.7,192.6 415.9,186.9 417.1,181.1 418.3,175.2 419.5,169.6 420.7,164.7 421.9,160.5 423.1,157.0 424.2,154.5 425.4,153.4 426.6,154.2 427.8,156.9 429.0,161.5 430.2,167.4 431.4,174.3 432.5,181.8 433.7,189.3 434.9,196.8 436.1,203.9 437.3,210.3 438.5,210.3 439.7,205.4 440.9,201.4 442.0,198.3 443.2,196.1 444.4,194.7 445.6,194.1 446.8,194.2 448.0,194.8 449.2,195.9 450.3,196.8 451.5,196.5 452.7,194.6 453.9,191.6 455.1,188.2 456.3,184.9 457.5,182.1 458.7,180.8 459.8,181.0 461.0,182.7 462.2,185.5 463.4,189.5 464.6,194.5 465.8,200.5 467.0,207.0 468.1,208.9 469.3,201.3 470.5,192.0 471.7,182.7 472.9,173.5 474.1,164.8 475.3,156.9 476.5,150.4 477.6,145.9 478.8,144.0 480.0,144.7 481.2,147.6 482.4,152.3 483.6,158.4 484.8,165.6 485.9,173.6 487.1,181.6 488.3,188.2 489.5,190.5 490.7,187.7 491.9,181.6 493.1,173.8 494.3,165.3 495.4,156.7 496.6,148.3 497.8,140.7 499.0,134.4 500.2,130.0 501.4,128.0 502.6,128.5 503.7,130.8 504.9,134.6 506.1,139.4 507.3,144.4 508.5,149.1 509.7,153.8 510.9,158.4 512.1,162.9 513.2,166.9 514.4,169.9 515.6,171.8 516.8,172.5 518.0,172.4 519.2,171.8 520.4,171.3 521.5,171.0 522.7,171.3 523.9,171.9 525.1,172.7 526.3,173.5 527.5,174.1 528.7,174.7 529.9,175.2 531.0,175.6 532.2,175.3 533.4,174.4 534.6,172.8 535.8,171.0 537.0,169.0 538.2,166.8 539.3,164.6 540.5,162.4 541.7,160.5 542.9,158.4 544.1,156.6 545.3,155.2 546.5,154.2 547.7,153.6 548.8,153.4 550.0,153.9 551.2,155.3 552.4,157.8 553.6,161.5 554.8,166.3 556.0,171.9 557.1,177.5 558.3,183.0 559.5,188.3 560.7,192.6 561.9,194.7 563.1,193.8 564.3,190.5 565.5,185.8 566.6,180.4 567.8,174.9 569.0,170.0 570.2,165.9 571.4,163.1 572.6,161.5 573.8,161.2 574.9,162.6 576.1,166.1 577.3,171.6 578.5,179.1 579.7,187.7 580.9,196.5 582.1,204.4 583.3,207.0 584.4,201.0 585.6,193.2 586.8,185.4 588.0,178.0 589.2,171.2 590.4,165.4 591.6,161.3 592.7,158.9 593.9,158.5 595.1,160.1 596.3,163.7 597.5,169.1 598.7,176.2 599.9,184.6 601.1,193.7 602.2,202.6 603.4,206.8 604.6,199.9 605.8,190.4 607.0,180.6 608.2,171.0 609.4,162.2 610.5,154.8 611.7,149.4 612.9,146.8 614.1,147.1 615.3,150.2 616.5,155.7 617.7,163.0 618.9,171.8 620.0,181.7 621.2,192.1 622.4,202.3 623.6,205.6 624.8,196.5 626.0,185.5 627.2,174.5 628.3,163.6 629.5,153.1 630.7,143.7 631.9,136.4 633.1,133.2 634.3,134.9 635.5,140.7 636.7,149.0 637.8,158.9 639.0,169.8 640.2,181.4 641.4,192.5 642.6,201.3 643.8,201.4 645.0,193.2 646.1,183.3 647.3,173.6 648.5,164.4 649.7,155.8 650.9,147.4 652.1,139.7 653.3,133.2 654.5,129.0 655.6,127.8 656.8,129.8 658.0,133.9 659.2,139.5 660.4,146.3 661.6,153.9 662.8,162.4 663.9,171.6 665.1,181.3 666.3,191.3 667.5,200.7 668.7,207.1 669.9,203.0 671.1,195.2 672.3,187.4 673.4,180.2 674.6,173.7 675.8,167.9 677.0,162.7 678.2,158.3 679.4,154.5 680.6,151.5 681.7,149.1 682.9,147.4 684.1,146.2 685.3,145.6 686.5,145.4 687.7,145.6 688.9,146.0 690.1,146.8 691.2,148.1 692.4,150.0 693.6,152.5 694.8,155.6 696.0,159.2 697.2,163.5 698.4,168.4 699.5,174.2 700.7,180.7 701.9,188.1 703.1,196.4 704.3,205.3 705.5,210.5 706.7,202.7 707.9,194.0 709.0,185.3 710.2,176.9 711.4,169.0 712.6,161.6 713.8,154.8 715.0,148.7 716.2,143.6 717.3,139.5 718.5,136.7 719.7,135.2 720.9,134.9 722.1,135.9 723.3,138.1 724.5,141.7 725.7,146.5 726.8,152.2 728.0,158.7 729.2,165.8 730.4,173.5 731.6,181.7 732.8,190.3 734.0,198.8 735.1,206.6 736.3,208.5 737.5,202.6 738.7,196.3 739.9,190.7 741.1,186.1 742.3,182.5 743.5,180.0 744.6,178.6 745.8,178.3 747.0,178.9 748.2,180.3 749.4,182.6 750.6,185.7 751.8,189.5 752.9,193.8 754.1,197.8 755.3,199.6 756.5,197.4 757.7,192.6 758.9,186.4 760.1,179.6 761.3,172.5 762.4,165.5 763.6,158.9 764.8,152.7 766.0,147.1"/>
<line x1="606" y1="60" x2="628" y2="60" stroke="#24a148" stroke-width="2.2"/>
<text x="634" y="64" font-family="Arial" font-size="12">pitch_deg</text>
<polyline fill="none" stroke="#da1e28" stroke-width="2.2" points="54.0,160.3 55.2,160.3 56.4,160.3 57.6,160.2 58.7,160.2 59.9,160.1 61.1,160.0 62.3,159.9 63.5,159.8 64.7,159.7 65.9,159.5 67.1,159.4 68.2,159.2 69.4,159.0 70.6,158.8 71.8,158.6 73.0,158.3 74.2,158.1 75.4,157.9 76.5,157.7 77.7,157.5 78.9,157.2 80.1,157.1 81.3,156.9 82.5,156.7 83.7,156.6 84.9,156.5 86.0,156.4 87.2,156.4 88.4,156.4 89.6,156.5 90.8,156.6 92.0,156.7 93.2,156.9 94.3,157.1 95.5,157.4 96.7,157.7 97.9,158.1 99.1,158.5 100.3,159.0 101.5,159.5 102.7,160.1 103.8,160.7 105.0,161.3 106.2,162.0 107.4,162.7 108.6,163.5 109.8,164.3 111.0,165.1 112.1,166.1 113.3,167.1 114.5,168.4 115.7,169.9 116.9,171.9 118.1,174.1 119.3,176.4 120.5,178.6 121.6,180.5 122.8,182.0 124.0,182.8 125.2,182.4 126.4,180.2 127.6,174.9 128.8,165.6 129.9,153.2 131.1,142.1 132.3,134.6 133.5,130.6 134.7,129.2 135.9,129.9 137.1,132.5 138.3,137.2 139.4,144.2 140.6,153.7 141.8,164.7 143.0,175.4 144.2,183.9 145.4,190.1 146.6,194.1 147.7,196.0 148.9,195.4 150.1,191.0 151.3,179.5 152.5,160.3 153.7,145.1 154.9,138.6 156.1,137.0 157.2,138.7 158.4,143.9 159.6,154.5 160.8,171.9 162.0,188.4 163.2,197.9 164.4,202.3 165.5,203.3 166.7,201.4 167.9,195.5 169.1,184.0 170.3,168.2 171.5,155.0 172.7,147.4 173.9,143.8 175.0,143.0 176.2,145.0 177.4,153.7 178.6,179.5 179.8,205.2 181.0,213.7 182.2,215.6 183.3,214.2 184.5,210.3 185.7,203.1 186.9,191.8 188.1,177.4 189.3,163.7 190.5,153.4 191.7,145.9 192.8,139.8 194.0,133.9 195.2,126.3 196.4,109.4 197.6,59.7 198.8,249.2 200.0,240.6 201.1,234.3 202.3,228.2 203.5,221.2 204.7,212.7 205.9,202.3 207.1,190.0 208.3,176.6 209.5,163.7 210.6,151.9 211.8,141.1 213.0,130.6 214.2,119.7 215.4,108.1 216.6,96.0 217.8,84.2 218.9,73.5 220.1,64.2 221.3,56.3 222.5,261.0 223.7,252.8 224.9,244.0 226.1,234.3 227.3,223.1 228.4,210.2 229.6,195.5 230.8,180.0 232.0,165.3 233.2,152.2 234.4,140.4 235.6,129.6 236.7,119.5 237.9,110.1 239.1,101.5 240.3,93.7 241.5,87.0 242.7,80.9 243.9,75.4 245.1,70.1 246.2,64.8 247.4,59.0 248.6,264.4 249.8,254.0 251.0,233.8 252.2,198.5 253.4,175.1 254.5,163.3 255.7,154.9 256.9,147.5 258.1,140.7 259.3,133.9 260.5,126.9 261.7,119.5 262.9,111.8 264.0,103.9 265.2,96.3 266.4,89.1 267.6,82.7 268.8,77.3 270.0,72.7 271.2,69.0 272.3,66.8 273.5,68.9 274.7,117.1 275.9,145.6 277.1,146.5 278.3,145.0 279.5,142.5 280.7,139.1 281.8,134.6 283.0,128.5 284.2,120.3 285.4,110.3 286.6,99.7 287.8,90.5 289.0,83.6 290.1,78.8 291.3,76.0 292.5,74.9 293.7,75.5 294.9,78.0 296.1,82.9 297.3,90.0 298.5,98.3 299.6,107.2 300.8,115.7 302.0,123.0 303.2,129.0 304.4,133.7 305.6,137.3 306.8,140.3 307.9,142.8 309.1,144.4 310.3,144.4 311.5,142.0 312.7,134.7 313.9,118.0 315.1,96.1 316.3,83.6 317.4,79.0 318.6,77.7 319.8,77.9 321.0,79.1 322.2,81.3 323.4,84.4 324.6,88.2 325.7,92.7 326.9,97.7 328.1,103.1 329.3,109.0 330.5,115.4 331.7,122.0 332.9,128.7 334.1,135.0 335.2,140.7 336.4,145.5 337.6,149.3 338.8,152.2 340.0,154.2 341.2,154.1 342.4,150.4 343.5,141.8 344.7,130.2 345.9,121.4 347.1,117.0 348.3,116.1 349.5,117.1 350.7,119.6 351.9,123.1 353.0,127.7 354.2,133.6 355.4,141.2 356.6,150.6 357.8,160.6 359.0,169.8 360.2,177.4 361.3,183.2 362.5,187.5 363.7,190.6 364.9,192.1 366.1,191.7 367.3,189.0 368.5,183.1 369.7,174.5 370.8,165.7 372.0,159.7 373.2,156.8 374.4,156.3 375.6,157.1 376.8,159.4 378.0,163.4 379.1,169.5 380.3,177.5 381.5,186.6 382.7,195.4 383.9,202.9 385.1,208.7 386.3,212.9 387.5,215.5 388.6,216.6 389.8,216.4 391.0,214.9 392.2,212.5 393.4,209.6 394.6,206.6 395.8,203.4 396.9,200.1 398.1,196.8 399.3,193.5 400.5,190.5 401.7,187.7 402.9,185.2 404.1,183.0 405.3,181.5 406.4,181.2 407.6,182.4 408.8,186.2 410.0,194.6 411.2,210.3 412.4,228.6 413.6,240.2 414.7,245.6 415.9,247.9 417.1,248.3 418.3,246.6 419.5,243.6 420.7,239.6 421.9,234.8 423.1,229.2 424.2,222.5 425.4,214.9 426.6,206.8 427.8,198.8 429.0,191.5 430.2,185.0 431.4,179.3 432.5,173.9 433.7,168.6 434.9,162.2 436.1,155.1 437.3,142.1 438.5,265.5 439.7,253.4 440.9,246.9 442.0,241.2 443.2,235.5 444.4,229.3 445.6,222.3 446.8,214.2 448.0,204.7 449.2,193.4 450.3,179.8 451.5,164.9 452.7,150.9 453.9,139.3 455.1,129.9 456.3,122.1 457.5,115.3 458.7,108.9 459.8,103.0 461.0,97.6 462.2,92.9 463.4,89.0 464.6,86.2 465.8,85.2 467.0,92.0 468.1,142.9 469.3,159.6 470.5,159.7 471.7,157.8 472.9,155.1 474.1,151.3 475.3,146.4 476.5,140.0 477.6,132.0 478.8,122.9 480.0,114.0 481.2,106.4 482.4,100.6 483.6,96.8 484.8,94.9 485.9,95.4 487.1,99.1 488.3,108.1 489.5,122.5 490.7,136.5 491.9,146.1 493.1,152.0 494.3,155.3 495.4,156.8 496.6,156.9 497.8,154.7 499.0,149.9 500.2,142.1 501.4,132.2 502.6,122.3 503.7,114.1 504.9,108.3 506.1,105.2 507.3,104.3 508.5,105.2 509.7,106.7 510.9,109.0 512.1,111.9 513.2,115.5 514.4,119.8 515.6,124.3 516.8,128.5 518.0,131.9 519.2,134.4 520.4,136.3 521.5,137.7 522.7,139.1 523.9,140.7 525.1,142.8 526.3,145.3 527.5,148.1 528.7,151.0 529.9,154.2 531.0,158.0 532.2,162.3 533.4,166.8 534.6,170.9 535.8,174.5 537.0,177.6 538.2,180.2 539.3,182.3 540.5,183.8 541.7,185.0 542.9,185.2 544.1,184.7 545.3,183.7 546.5,182.8 547.7,182.0 548.8,180.8 550.0,179.3 551.2,177.3 552.4,175.3 553.6,173.8 554.8,173.2 556.0,174.0 557.1,175.6 558.3,178.3 559.5,182.8 560.7,190.5 561.9,201.6 563.1,213.0 564.3,221.4 565.5,226.1 566.6,227.4 567.8,226.2 569.0,223.1 570.2,218.4 571.4,212.4 572.6,205.4 573.8,197.9 574.9,190.0 576.1,182.1 577.3,174.5 578.5,167.2 579.7,160.0 580.9,151.2 582.1,134.4 583.3,89.3 584.4,60.1 585.6,259.9 586.8,250.5 588.0,241.8 589.2,232.8 590.4,223.4 591.6,213.6 592.7,203.5 593.9,193.4 595.1,183.7 596.3,174.5 597.5,166.0 598.7,158.2 599.9,150.6 601.1,142.0 602.2,127.2 603.4,83.4 604.6,263.6 605.8,251.8 607.0,243.5 608.2,235.6 609.4,227.3 610.5,217.9 611.7,207.1 612.9,195.2 614.1,183.2 615.3,172.2 616.5,162.6 617.7,154.6 618.9,147.5 620.0,140.8 621.2,132.7 622.4,117.1 623.6,69.1 624.8,255.3 626.0,246.9 627.2,241.8 628.3,236.3 629.5,229.6 630.7,220.8 631.9,208.4 633.1,192.0 634.3,175.4 635.5,162.3 636.7,152.9 637.8,145.9 639.0,139.9 640.2,133.6 641.4,124.3 642.6,104.2 643.8,67.2 645.0,259.9 646.1,251.6 647.3,246.7 648.5,243.0 649.7,239.6 650.9,235.1 652.1,228.7 653.3,219.6 654.5,206.9 655.6,191.9 656.8,178.2 658.0,167.6 659.2,159.8 660.4,154.1 661.6,149.5 662.8,145.7 663.9,142.2 665.1,138.5 666.3,133.7 667.5,124.3 668.7,92.8 669.9,54.1 671.1,255.6 672.3,250.7 673.4,247.6 674.6,245.2 675.8,243.0 677.0,240.9 678.2,238.9 679.4,236.9 680.6,234.8 681.7,232.9 682.9,231.1 684.1,229.4 685.3,228.0 686.5,226.8 687.7,225.6 688.9,224.2 690.1,222.5 691.2,220.3 692.4,217.9 693.6,215.3 694.8,212.7 696.0,210.0 697.2,207.2 698.4,204.3 699.5,201.3 700.7,198.3 701.9,195.1 703.1,191.2 704.3,183.8 705.5,121.9 706.7,93.3 707.9,88.5 709.0,85.9 710.2,83.5 711.4,81.1 712.6,78.4 713.8,75.2 715.0,71.3 716.2,66.6 717.3,61.0 718.5,54.4 719.7,259.8 720.9,252.4 722.1,245.1 723.3,238.2 724.5,232.3 725.7,227.6 726.8,223.8 728.0,220.7 729.2,218.3 730.4,216.4 731.6,215.0 732.8,214.5 734.0,216.0 735.1,226.2 736.3,60.7 737.5,79.2 738.7,82.0 739.9,81.4 741.1,79.6 742.3,77.3 743.5,74.7 744.6,72.2 745.8,69.9 747.0,68.0 748.2,66.5 749.4,65.6 750.6,65.4 751.8,66.3 752.9,69.6 754.1,77.5 755.3,92.1 756.5,107.9 757.7,118.2 758.9,124.2 760.1,127.7 761.3,129.6 762.4,130.4 763.6,130.2 764.8,129.3 766.0,127.7"/>
<line x1="606" y1="78" x2="628" y2="78" stroke="#da1e28" stroke-width="2.2"/>
<text x="634" y="82" font-family="Arial" font-size="12">yaw_deg</text>
</svg>