<svg xmlns="http://www.w3.org/2000/svg" width="820" height="320" viewBox="0 0 820 320">
<rect width="100%" height="100%" fill="#ffffff"/>
<text x="54" y="28" font-family="Arial" font-size="18" font-weight="700">Specific Energy</text>
<line x1="54" y1="266" x2="766" y2="266" stroke="#1f2933"/>
<line x1="54" y1="54" x2="54" y2="266" stroke="#1f2933"/>
<text x="54" y="306" font-family="Arial" font-size="12">time (s)</text>
<text x="596" y="306" font-family="Arial" font-size="12">J/kg</text>
<text x="58" y="68" font-family="Arial" font-size="11">1.66e+04</text>
<text x="58" y="260" font-family="Arial" font-size="11">5.28e+03</text>
<polyline fill="none" stroke="#0f62fe" stroke-width="2.2" points="54.0,112.9 55.2,112.1 56.4,111.2 57.6,110.4 58.7,109.5 59.9,108.6 61.1,107.7 62.3,106.8 63.5,105.8 64.7,104.8 65.9,103.8 67.1,102.8 68.2,101.8 69.4,100.8 70.6,99.7 71.8,98.6 73.0,97.5 74.2,96.4 75.4,95.3 76.5,94.2 77.7,93.1 78.9,92.0 80.1,90.9 81.3,89.8 82.5,88.6 83.7,87.5 84.9,86.4 86.0,85.3 87.2,84.1 88.4,83.0 89.6,81.8 90.8,80.7 92.0,79.5 93.2,78.3 94.3,77.2 95.5,76.0 96.7,74.8 97.9,73.6 99.1,72.4 100.3,71.2 101.5,70.0 102.7,68.8 103.8,67.5 105.0,66.3 106.2,65.1 107.4,63.9 108.6,62.7 109.8,61.6 111.0,60.4 112.1,59.3 113.3,58.2 114.5,57.2 115.7,56.3 116.9,55.6 118.1,55.0 119.3,54.6 120.5,54.3 121.6,54.1 122.8,54.0 124.0,54.1 125.2,54.5 126.4,55.0 127.6,55.6 128.8,56.2 129.9,56.9 131.1,57.5 132.3,57.5 133.5,57.8 134.7,58.1 135.9,58.3 137.1,58.5 138.3,58.5 139.4,58.4 140.6,58.3 141.8,58.0 143.0,57.8 144.2,57.7 145.4,57.8 146.6,57.9 147.7,58.3 148.9,58.7 150.1,59.2 151.3,59.6 152.5,59.9 153.7,60.0 154.9,60.0 156.1,59.9 157.2,59.8 158.4,59.7 159.6,59.7 160.8,59.9 162.0,60.3 163.2,60.8 164.4,61.5 165.5,62.3 166.7,62.9 167.9,63.3 169.1,63.5 170.3,63.5 171.5,63.2 172.7,62.7 173.9,62.2 175.0,61.7 176.2,61.3 177.4,61.3 178.6,61.9 179.8,62.8 181.0,63.9 182.2,65.2 183.3,66.4 184.5,67.4 185.7,68.2 186.9,68.6 188.1,68.6 189.3,68.2 190.5,67.5 191.7,66.4 192.8,65.6 194.0,65.5 195.2,66.0 196.4,66.8 197.6,67.9 198.8,69.3 200.0,70.9 201.1,72.6 202.3,74.1 203.5,75.4 204.7,76.6 205.9,77.4 207.1,77.8 208.3,77.7 209.5,77.1 210.6,76.0 211.8,74.9 213.0,74.8 214.2,75.2 215.4,76.1 216.6,77.3 217.8,79.0 218.9,80.8 220.1,82.7 221.3,84.5 222.5,86.1 223.7,87.8 224.9,89.5 226.1,91.2 227.3,92.6 228.4,93.6 229.6,94.1 230.8,94.1 232.0,93.7 233.2,92.9 234.4,91.9 235.6,91.6 236.7,91.7 237.9,92.3 239.1,93.2 240.3,94.4 241.5,95.7 242.7,97.1 243.9,98.7 245.1,100.4 246.2,101.9 247.4,103.2 248.6,104.5 249.8,105.6 251.0,106.5 252.2,106.9 253.4,107.0 254.5,106.7 255.7,106.2 256.9,105.3 258.1,104.6 259.3,104.1 260.5,104.0 261.7,104.2 262.9,104.8 264.0,105.6 265.2,106.7 266.4,107.8 267.6,109.1 268.8,110.4 270.0,111.6 271.2,112.7 272.3,113.7 273.5,114.5 274.7,114.9 275.9,114.9 277.1,114.4 278.3,113.7 279.5,113.0 280.7,112.5 281.8,112.3 283.0,112.4 284.2,112.8 285.4,113.5 286.6,114.3 287.8,115.4 289.0,116.6 290.1,117.9 291.3,119.2 292.5,120.4 293.7,121.6 294.9,122.8 296.1,123.7 297.3,124.4 298.5,124.9 299.6,125.3 300.8,125.4 302.0,125.4 303.2,125.2 304.4,124.8 305.6,124.6 306.8,124.4 307.9,124.3 309.1,124.1 310.3,124.4 311.5,124.8 312.7,125.4 313.9,126.2 315.1,127.0 316.3,127.9 317.4,128.9 318.6,130.0 319.8,131.2 321.0,132.4 322.2,133.6 323.4,134.8 324.6,135.8 325.7,136.7 326.9,137.4 328.1,137.9 329.3,138.3 330.5,138.4 331.7,138.1 332.9,137.7 334.1,137.2 335.2,136.6 336.4,136.0 337.6,135.5 338.8,135.2 340.0,134.9 341.2,135.1 342.4,135.5 343.5,136.1 344.7,136.8 345.9,137.5 347.1,138.2 348.3,138.8 349.5,139.3 350.7,139.7 351.9,139.9 353.0,139.8 354.2,139.5 355.4,138.7 356.6,137.7 357.8,136.6 359.0,135.7 360.2,135.0 361.3,134.8 362.5,134.9 363.7,135.3 364.9,135.8 366.1,136.5 367.3,137.1 368.5,137.9 369.7,138.6 370.8,139.2 372.0,139.7 373.2,140.0 374.4,140.0 375.6,139.5 376.8,138.9 378.0,138.2 379.1,137.4 380.3,136.8 381.5,136.2 382.7,135.9 383.9,136.1 385.1,136.5 386.3,137.1 387.5,137.9 388.6,138.8 389.8,139.7 391.0,140.8 392.2,141.8 393.4,142.7 394.6,143.5 395.8,144.1 396.9,144.7 398.1,145.1 399.3,145.4 400.5,145.6 401.7,145.5 402.9,145.3 404.1,145.1 405.3,144.7 406.4,144.1 407.6,143.5 408.8,143.1 410.0,142.8 411.2,142.7 412.4,142.7 413.6,143.0 414.7,143.5 415.9,144.1 417.1,144.9 418.3,145.7 419.5,146.7 420.7,147.7 421.9,148.7 423.1,149.7 424.2,150.6 425.4,151.5 426.6,152.1 427.8,152.6 429.0,152.6 430.2,152.5 431.4,152.1 432.5,151.6 433.7,150.8 434.9,149.9 436.1,149.1 437.3,148.7 438.5,148.5 439.7,148.4 440.9,148.5 442.0,148.6 443.2,148.7 444.4,148.8 445.6,148.9 446.8,148.9 448.0,148.8 449.2,148.5 450.3,147.8 451.5,146.9 452.7,146.1 453.9,145.5 455.1,145.0 456.3,144.6 457.5,144.2 458.7,144.2 459.8,144.5 461.0,144.9 462.2,145.4 463.4,145.8 464.6,146.1 465.8,146.2 467.0,146.2 468.1,145.9 469.3,145.4 470.5,144.6 471.7,143.4 472.9,142.4 474.1,141.8 475.3,141.6 476.5,141.6 477.6,142.0 478.8,142.8 480.0,143.8 481.2,145.0 482.4,146.1 483.6,147.1 484.8,148.0 485.9,148.9 487.1,149.5 488.3,149.7 489.5,149.6 490.7,148.8 491.9,148.1 493.1,147.5 494.3,147.0 495.4,146.9 496.6,146.8 497.8,147.1 499.0,147.8 500.2,148.8 501.4,150.0 502.6,151.1 503.7,152.3 504.9,153.4 506.1,154.7 507.3,155.9 508.5,156.9 509.7,157.8 510.9,158.7 512.1,159.4 513.2,159.9 514.4,160.2 515.6,160.2 516.8,160.1 518.0,159.9 519.2,159.7 520.4,159.4 521.5,158.8 522.7,158.2 523.9,157.8 525.1,157.3 526.3,156.8 527.5,156.1 528.7,155.5 529.9,154.8 531.0,153.8 532.2,152.9 533.4,152.5 534.6,152.2 535.8,152.0 537.0,151.9 538.2,152.0 539.3,152.4 540.5,152.7 541.7,153.0 542.9,153.2 544.1,153.6 545.3,154.0 546.5,154.5 547.7,155.0 548.8,155.3 550.0,155.6 551.2,156.0 552.4,156.4 553.6,156.6 554.8,156.7 556.0,156.3 557.1,155.7 558.3,155.5 559.5,155.2 560.7,154.9 561.9,154.8 563.1,154.9 564.3,155.3 565.5,155.5 566.6,156.0 567.8,156.9 569.0,158.0 570.2,159.1 571.4,160.2 572.6,161.1 573.8,162.0 574.9,163.0 576.1,164.1 577.3,165.0 578.5,165.8 579.7,166.2 580.9,166.3 582.1,166.6 583.3,167.1 584.4,167.8 585.6,168.5 586.8,169.6 588.0,170.7 589.2,171.9 590.4,173.0 591.6,173.9 592.7,174.8 593.9,175.6 595.1,176.5 596.3,177.3 597.5,178.1 598.7,178.7 599.9,179.3 601.1,179.7 602.2,179.9 603.4,180.3 604.6,180.8 605.8,181.4 607.0,182.4 608.2,183.3 609.4,184.3 610.5,185.3 611.7,186.3 612.9,187.1 614.1,187.9 615.3,188.6 616.5,189.4 617.7,190.1 618.9,190.8 620.0,191.4 621.2,191.9 622.4,192.5 623.6,192.9 624.8,193.4 626.0,194.1 627.2,194.8 628.3,195.6 629.5,196.4 630.7,197.3 631.9,198.1 633.1,198.8 634.3,199.5 635.5,200.2 636.7,200.9 637.8,201.6 639.0,202.3 640.2,202.9 641.4,203.5 642.6,204.1 643.8,204.5 645.0,205.1 646.1,206.1 647.3,207.0 648.5,207.9 649.7,208.7 650.9,209.3 652.1,209.9 653.3,210.5 654.5,211.2 655.6,211.8 656.8,212.4 658.0,213.0 659.2,213.6 660.4,214.3 661.6,214.9 662.8,215.5 663.9,216.1 665.1,216.7 666.3,217.2 667.5,217.5 668.7,217.8 669.9,218.5 671.1,219.4 672.3,220.3 673.4,221.2 674.6,222.1 675.8,223.0 677.0,223.8 678.2,224.7 679.4,225.4 680.6,226.1 681.7,226.8 682.9,227.4 684.1,227.9 685.3,228.3 686.5,228.8 687.7,229.4 688.9,229.9 690.1,230.5 691.2,231.0 692.4,231.7 693.6,232.3 694.8,232.9 696.0,233.5 697.2,234.1 698.4,234.7 699.5,235.3 700.7,236.0 701.9,236.7 703.1,237.2 704.3,237.6 705.5,237.9 706.7,238.4 707.9,238.9 709.0,239.5 710.2,240.2 711.4,241.0 712.6,241.8 713.8,242.6 715.0,243.4 716.2,244.0 717.3,244.6 718.5,245.0 719.7,245.3 720.9,245.6 722.1,245.9 723.3,246.3 724.5,246.7 725.7,247.1 726.8,247.7 728.0,248.4 729.2,249.2 730.4,249.9 731.6,250.7 732.8,251.4 734.0,252.0 735.1,252.5 736.3,253.0 737.5,253.5 738.7,253.9 739.9,254.2 741.1,254.7 742.3,255.2 743.5,255.8 744.6,256.4 745.8,257.0 747.0,257.6 748.2,258.1 749.4,258.6 750.6,259.2 751.8,259.8 752.9,260.3 754.1,260.8 755.3,261.3 756.5,261.5 757.7,261.9 758.9,262.4 760.1,262.8 761.3,263.3 762.4,264.0 763.6,264.6 764.8,265.3 766.0,266.0"/>
<line x1="606" y1="42" x2="628" y2="42" stroke="#0f62fe" stroke-width="2.2"/>
<text x="634" y="46" font-family="Arial" font-size="12">energy_j_per_kg</text>
</svg>