<svg xmlns="http://www.w3.org/2000/svg" width="820" height="320" viewBox="0 0 820 320">
<rect width="100%" height="100%" fill="#ffffff"/>
<text x="54" y="28" font-family="Arial" font-size="18" font-weight="700">Velocity Z</text>
<line x1="54" y1="266" x2="766" y2="266" stroke="#1f2933"/>
<line x1="54" y1="54" x2="54" y2="266" stroke="#1f2933"/>
<text x="54" y="306" font-family="Arial" font-size="12">time (s)</text>
<text x="596" y="306" font-family="Arial" font-size="12">vz (m/s)</text>
<text x="58" y="68" font-family="Arial" font-size="11">24.1</text>
<text x="58" y="260" font-family="Arial" font-size="11">-12.8</text>
<polyline fill="none" stroke="#0f62fe" stroke-width="2.2" points="54.0,100.6 55.2,101.9 56.4,103.0 57.6,104.1 58.7,105.0 59.9,106.0 61.1,106.9 62.3,107.7 63.5,108.6 64.7,109.3 65.9,110.1 67.1,110.8 68.2,111.4 69.4,112.1 70.6,112.7 71.8,113.3 73.0,113.8 74.2,114.4 75.4,114.9 76.5,115.5 77.7,116.0 78.9,116.5 80.1,117.0 81.3,117.5 82.5,118.0 83.7,118.4 84.9,118.9 86.0,119.3 87.2,119.8 88.4,120.2 89.6,120.6 90.8,121.0 92.0,121.4 93.2,121.8 94.3,122.2 95.5,122.6 96.7,123.0 97.9,123.3 99.1,123.7 100.3,124.0 101.5,124.4 102.7,124.7 103.8,125.0 105.0,125.4 106.2,125.7 107.4,126.0 108.6,126.3 109.8,126.6 111.0,126.9 112.1,127.1 113.3,127.4 114.5,127.7 115.7,127.9 116.9,128.2 118.1,128.4 119.3,128.6 120.5,128.9 121.6,129.1 122.8,129.3 124.0,129.5 125.2,129.7 126.4,129.9 127.6,130.1 128.8,130.2 129.9,130.4 131.1,130.6 132.3,130.7 133.5,130.9 134.7,131.0 135.9,131.1 137.1,131.3 138.3,131.4 139.4,131.5 140.6,131.6 141.8,131.7 143.0,131.8 144.2,131.8 145.4,131.9 146.6,132.0 147.7,132.0 148.9,132.1 150.1,132.1 151.3,132.1 152.5,132.2 153.7,132.2 154.9,132.2 156.1,132.2 157.2,132.1 158.4,132.1 159.6,132.1 160.8,132.0 162.0,131.9 163.2,131.9 164.4,131.8 165.5,131.7 166.7,131.6 167.9,131.5 169.1,131.3 170.3,131.2 171.5,131.0 172.7,130.8 173.9,130.7 175.0,130.5 176.2,130.3 177.4,130.0 178.6,129.8 179.8,129.6 181.0,129.3 182.2,129.0 183.3,128.8 184.5,128.5 185.7,128.2 186.9,127.9 188.1,127.6 189.3,127.2 190.5,126.9 191.7,126.5 192.8,126.2 194.0,125.8 195.2,125.4 196.4,125.0 197.6,124.6 198.8,124.2 200.0,123.8 201.1,123.3 202.3,122.9 203.5,122.4 204.7,122.1 205.9,121.4 207.1,121.1 208.3,120.7 209.5,120.3 210.6,119.9 211.8,119.4 213.0,118.9 214.2,118.4 215.4,118.0 216.6,117.3 217.8,117.1 218.9,116.6 220.1,116.3 221.3,115.5 222.5,115.2 223.7,114.7 224.9,114.4 226.1,113.5 227.3,112.8 228.4,112.2 229.6,111.2 230.8,110.6 232.0,109.6 233.2,109.1 234.4,108.1 235.6,107.6 236.7,106.7 237.9,106.2 239.1,105.1 240.3,104.5 241.5,103.4 242.7,102.8 243.9,101.7 245.1,101.1 246.2,99.9 247.4,99.3 248.6,98.2 249.8,97.5 251.0,96.3 252.2,95.6 253.4,94.4 254.5,93.7 255.7,92.5 256.9,91.8 258.1,90.5 259.3,89.8 260.5,88.5 261.7,87.7 262.9,86.4 264.0,85.6 265.2,84.2 266.4,83.4 267.6,82.0 268.8,81.3 270.0,79.8 271.2,79.0 272.3,77.6 273.5,76.8 274.7,75.3 275.9,74.5 277.1,73.0 278.3,72.1 279.5,70.6 280.7,69.8 281.8,68.3 283.0,67.4 284.2,65.9 285.4,65.0 286.6,63.4 287.8,62.5 289.0,60.9 290.1,60.0 291.3,58.4 292.5,58.2 293.7,57.4 294.9,57.3 296.1,56.6 297.3,56.6 298.5,55.9 299.6,56.0 300.8,55.4 302.0,55.5 303.2,55.0 304.4,55.2 305.6,54.7 306.8,55.0 307.9,54.6 309.1,54.8 310.3,54.4 311.5,54.7 312.7,54.3 313.9,54.5 315.1,54.1 316.3,54.3 317.4,54.0 318.6,54.3 319.8,54.0 321.0,54.4 322.2,54.2 323.4,54.6 324.6,54.5 325.7,55.0 326.9,54.9 328.1,55.3 329.3,55.2 330.5,55.6 331.7,55.5 332.9,55.9 334.1,55.9 335.2,56.4 336.4,56.4 337.6,57.0 338.8,57.0 340.0,57.6 341.2,57.6 342.4,58.1 343.5,58.1 344.7,58.7 345.9,58.8 347.1,59.5 348.3,59.6 349.5,60.2 350.7,60.3 351.9,60.9 353.0,61.1 354.2,61.7 355.4,62.0 356.6,62.7 357.8,63.0 359.0,63.7 360.2,63.9 361.3,64.6 362.5,64.9 363.7,65.6 364.9,65.9 366.1,66.7 367.3,66.9 368.5,67.7 369.7,67.9 370.8,68.7 372.0,69.0 373.2,69.7 374.4,70.0 375.6,70.8 376.8,71.1 378.0,71.9 379.1,72.2 380.3,72.9 381.5,73.2 382.7,74.0 383.9,74.3 385.1,75.1 386.3,75.4 387.5,76.2 388.6,76.5 389.8,77.3 391.0,77.6 392.2,78.4 393.4,78.8 394.6,79.5 395.8,79.9 396.9,80.7 398.1,81.0 399.3,81.8 400.5,82.2 401.7,83.0 402.9,83.3 404.1,84.1 405.3,84.5 406.4,85.3 407.6,85.7 408.8,86.5 410.0,86.9 411.2,87.7 412.4,88.0 413.6,88.9 414.7,89.2 415.9,90.1 417.1,90.4 418.3,91.3 419.5,91.7 420.7,92.5 421.9,92.9 423.1,93.7 424.2,94.1 425.4,94.9 426.6,95.4 427.8,96.2 429.0,96.6 430.2,97.5 431.4,97.9 432.5,98.7 433.7,99.2 434.9,100.0 436.1,100.5 437.3,101.3 438.5,101.8 439.7,102.6 440.9,103.1 442.0,103.9 443.2,104.4 444.4,105.3 445.6,105.7 446.8,106.6 448.0,107.1 449.2,107.9 450.3,108.4 451.5,109.3 452.7,109.7 453.9,110.6 455.1,111.1 456.3,112.0 457.5,112.5 458.7,113.3 459.8,113.8 461.0,114.7 462.2,115.2 463.4,116.1 464.6,116.6 465.8,117.4 467.0,117.9 468.1,118.8 469.3,119.3 470.5,120.2 471.7,120.7 472.9,121.6 474.1,122.1 475.3,123.0 476.5,123.5 477.6,124.4 478.8,124.9 480.0,125.8 481.2,126.4 482.4,127.2 483.6,127.8 484.8,128.7 485.9,129.2 487.1,130.1 488.3,130.6 489.5,131.5 490.7,132.1 491.9,133.0 493.1,133.5 494.3,134.4 495.4,135.0 496.6,135.9 497.8,136.4 499.0,137.3 500.2,137.9 501.4,138.8 502.6,139.3 503.7,140.2 504.9,140.8 506.1,141.7 507.3,142.3 508.5,143.2 509.7,143.8 510.9,144.7 512.1,145.2 513.2,146.2 514.4,146.7 515.6,147.6 516.8,148.2 518.0,149.1 519.2,149.7 520.4,150.6 521.5,151.2 522.7,152.1 523.9,152.7 525.1,153.6 526.3,154.2 527.5,155.2 528.7,155.8 529.9,156.7 531.0,157.3 532.2,158.2 533.4,158.8 534.6,159.7 535.8,160.3 537.0,161.2 538.2,161.9 539.3,162.8 540.5,163.4 541.7,164.3 542.9,164.9 544.1,165.9 545.3,166.5 546.5,167.4 547.7,168.0 548.8,169.0 550.0,169.6 551.2,170.5 552.4,171.1 553.6,172.1 554.8,172.7 556.0,173.6 557.1,174.3 558.3,175.2 559.5,175.8 560.7,176.7 561.9,177.3 563.1,178.2 564.3,178.8 565.5,179.7 566.6,180.2 567.8,181.1 569.0,181.7 570.2,182.5 571.4,183.1 572.6,183.9 573.8,184.5 574.9,185.3 576.1,185.8 577.3,186.6 578.5,187.2 579.7,188.0 580.9,188.6 582.1,189.4 583.3,189.9 584.4,190.7 585.6,191.2 586.8,192.0 588.0,192.5 589.2,193.3 590.4,193.8 591.6,194.6 592.7,195.0 593.9,195.8 595.1,196.3 596.3,197.0 597.5,197.5 598.7,198.2 599.9,198.7 601.1,199.5 602.2,199.9 603.4,200.7 604.6,201.2 605.8,201.9 607.0,202.4 608.2,203.1 609.4,203.6 610.5,204.3 611.7,204.8 612.9,205.5 614.1,206.0 615.3,206.6 616.5,207.1 617.7,207.8 618.9,208.3 620.0,209.0 621.2,209.4 622.4,210.1 623.6,210.6 624.8,211.3 626.0,211.8 627.2,212.4 628.3,212.9 629.5,213.6 630.7,214.0 631.9,214.7 633.1,215.2 634.3,215.8 635.5,216.3 636.7,216.9 637.8,217.4 639.0,218.0 640.2,218.5 641.4,219.1 642.6,219.6 643.8,220.2 645.0,220.8 646.1,221.3 647.3,221.8 648.5,222.4 649.7,222.9 650.9,223.5 652.1,224.0 653.3,224.6 654.5,225.1 655.6,225.6 656.8,226.2 658.0,226.7 659.2,227.2 660.4,227.8 661.6,228.3 662.8,228.8 663.9,229.4 665.1,229.9 666.3,230.4 667.5,230.9 668.7,231.5 669.9,232.0 671.1,232.5 672.3,233.0 673.4,233.5 674.6,234.1 675.8,234.6 677.0,235.1 678.2,235.6 679.4,236.1 680.6,236.6 681.7,237.1 682.9,237.7 684.1,238.2 685.3,238.7 686.5,239.2 687.7,239.7 688.9,240.2 690.1,240.7 691.2,241.2 692.4,241.7 693.6,242.1 694.8,242.6 696.0,243.1 697.2,243.6 698.4,244.1 699.5,244.5 700.7,245.0 701.9,245.4 703.1,245.9 704.3,246.3 705.5,246.8 706.7,247.2 707.9,247.7 709.0,248.1 710.2,248.6 711.4,249.0 712.6,249.4 713.8,249.9 715.0,250.3 716.2,250.7 717.3,251.1 718.5,251.5 719.7,251.9 720.9,252.4 722.1,252.8 723.3,253.2 724.5,253.6 725.7,254.0 726.8,254.4 728.0,254.8 729.2,255.1 730.4,255.5 731.6,255.9 732.8,256.3 734.0,256.7 735.1,257.1 736.3,257.4 737.5,257.8 738.7,258.2 739.9,258.5 741.1,258.9 742.3,259.3 743.5,259.6 744.6,260.0 745.8,260.3 747.0,260.7 748.2,261.0 749.4,261.4 750.6,261.7 751.8,262.1 752.9,262.4 754.1,262.7 755.3,263.1 756.5,263.4 757.7,263.7 758.9,264.1 760.1,264.4 761.3,264.7 762.4,265.0 763.6,265.4 764.8,265.7 766.0,266.0"/>
<line x1="606" y1="42" x2="628" y2="42" stroke="#0f62fe" stroke-width="2.2"/>
<text x="634" y="46" font-family="Arial" font-size="12">vz_mps</text>
</svg>