<svg xmlns="http://www.w3.org/2000/svg" width="820" height="320" viewBox="0 0 820 320">
<rect width="100%" height="100%" fill="#ffffff"/>
<text x="54" y="28" font-family="Arial" font-size="18" font-weight="700">Alpha/Beta</text>
<line x1="54" y1="266" x2="766" y2="266" stroke="#1f2933"/>
<line x1="54" y1="54" x2="54" y2="266" stroke="#1f2933"/>
<text x="54" y="306" font-family="Arial" font-size="12">time (s)</text>
<text x="596" y="306" font-family="Arial" font-size="12">angle (deg)</text>
<text x="58" y="68" font-family="Arial" font-size="11">4.77</text>
<text x="58" y="260" font-family="Arial" font-size="11">-0.539</text>
<polyline fill="none" stroke="#0f62fe" stroke-width="2.2" points="54.0,266.0 55.2,242.7 56.4,221.7 57.6,210.1 58.7,202.5 59.9,193.6 61.1,183.7 62.3,175.0 63.5,168.0 64.7,161.8 65.9,155.9 67.1,150.4 68.2,145.6 69.4,141.2 70.6,137.3 71.8,133.7 73.0,130.4 74.2,127.4 75.4,124.6 76.5,122.1 77.7,119.8 78.9,117.7 80.1,115.8 81.3,114.0 82.5,112.3 83.7,110.8 84.9,109.4 86.0,108.1 87.2,106.9 88.4,105.8 89.6,104.7 90.8,103.7 92.0,102.8 93.2,102.0 94.3,101.2 95.5,100.5 96.7,99.8 97.9,99.1 99.1,98.5 100.3,97.9 101.5,97.4 102.7,96.9 103.8,96.4 105.0,96.0 106.2,95.6 107.4,95.2 108.6,94.8 109.8,94.5 111.0,94.2 112.1,93.9 113.3,93.6 114.5,93.4 115.7,93.2 116.9,93.0 118.1,92.8 119.3,92.6 120.5,92.4 121.6,92.3 122.8,92.2 124.0,92.1 125.2,92.0 126.4,91.9 127.6,91.8 128.8,91.8 129.9,91.7 131.1,91.7 132.3,91.7 133.5,91.7 134.7,91.7 135.9,91.8 137.1,91.8 138.3,91.8 139.4,91.9 140.6,92.0 141.8,92.1 143.0,92.2 144.2,92.3 145.4,92.4 146.6,92.5 147.7,92.6 148.9,92.6 150.1,92.5 151.3,92.5 152.5,92.4 153.7,92.2 154.9,92.1 156.1,91.9 157.2,91.8 158.4,91.6 159.6,91.4 160.8,91.2 162.0,91.0 163.2,90.9 164.4,90.7 165.5,90.5 166.7,90.3 167.9,90.2 169.1,90.0 170.3,89.9 171.5,89.7 172.7,89.6 173.9,89.5 175.0,89.4 176.2,89.3 177.4,89.3 178.6,89.2 179.8,89.2 181.0,89.1 182.2,89.1 183.3,89.1 184.5,89.1 185.7,89.2 186.9,89.2 188.1,89.3 189.3,89.3 190.5,89.4 191.7,89.6 192.8,89.6 194.0,89.8 195.2,89.9 196.4,90.2 197.6,90.1 198.8,90.8 200.0,90.0 201.1,92.2 202.3,88.8 203.5,95.9 204.7,82.8 205.9,104.3 207.1,99.1 208.3,99.0 209.5,98.4 210.6,97.5 211.8,98.1 213.0,95.7 214.2,100.2 215.4,89.7 216.6,112.6 217.8,103.8 218.9,110.4 220.1,92.1 221.3,111.6 222.5,102.4 223.7,113.4 224.9,84.5 226.1,87.9 227.3,97.6 228.4,77.1 229.6,94.0 230.8,80.1 232.0,101.3 233.2,87.4 234.4,106.0 235.6,87.8 236.7,103.4 237.9,83.7 239.1,100.3 240.3,82.4 241.5,101.5 242.7,84.6 243.9,104.0 245.1,85.9 246.2,104.2 247.4,85.0 248.6,103.3 249.8,84.1 251.0,103.3 252.2,84.5 253.4,104.3 254.5,85.2 255.7,104.9 256.9,85.1 258.1,104.8 259.3,84.7 260.5,104.9 261.7,84.8 262.9,105.4 264.0,85.1 265.2,105.8 266.4,85.6 267.6,106.2 268.8,86.0 270.0,106.7 271.2,86.5 272.3,107.3 273.5,87.1 274.7,107.9 275.9,87.7 277.1,108.5 278.3,88.4 279.5,109.2 280.7,89.1 281.8,109.9 283.0,89.8 284.2,110.6 285.4,90.5 286.6,111.4 287.8,91.4 289.0,112.3 290.1,92.2 291.3,113.2 292.5,94.6 293.7,116.9 294.9,98.3 296.1,120.4 297.3,101.5 298.5,123.5 299.6,104.5 300.8,126.3 302.0,107.2 303.2,128.9 304.4,109.7 305.6,131.2 306.8,111.9 307.9,132.2 309.1,111.7 310.3,131.9 311.5,111.3 312.7,131.5 313.9,110.9 315.1,131.1 316.3,112.7 317.4,135.0 318.6,116.4 319.8,138.6 321.0,119.8 322.2,141.8 323.4,122.9 324.6,143.8 325.7,123.8 326.9,143.2 328.1,121.8 329.3,141.2 330.5,122.0 331.7,143.5 332.9,124.9 334.1,147.0 335.2,128.2 336.4,149.1 337.6,129.1 338.8,148.4 340.0,126.9 341.2,145.9 342.4,127.5 343.5,149.8 344.7,132.2 345.9,153.6 347.1,134.1 348.3,153.0 349.5,131.6 350.7,150.0 351.9,132.3 353.0,155.3 354.2,138.7 355.4,159.4 356.6,139.4 357.8,156.9 359.0,137.0 360.2,156.8 361.3,138.9 362.5,159.1 363.7,140.6 364.9,159.3 366.1,139.8 367.3,157.9 368.5,138.7 369.7,157.3 370.8,139.0 372.0,157.9 373.2,139.6 374.4,158.1 375.6,139.6 376.8,157.7 378.0,139.2 379.1,157.3 380.3,139.2 381.5,157.3 382.7,139.4 383.9,157.4 385.1,139.5 386.3,157.3 387.5,139.4 388.6,157.0 389.8,139.3 391.0,156.9 392.2,139.3 393.4,156.9 394.6,139.4 395.8,156.8 396.9,139.4 398.1,156.6 399.3,139.4 400.5,156.5 401.7,139.4 402.9,156.4 404.1,139.4 405.3,156.3 406.4,139.4 407.6,156.2 408.8,139.4 410.0,156.1 411.2,139.4 412.4,156.0 413.6,139.4 414.7,155.9 415.9,139.4 417.1,155.8 418.3,139.4 419.5,155.7 420.7,139.4 421.9,155.8 423.1,139.6 424.2,155.8 425.4,139.6 426.6,155.6 427.8,139.8 429.0,156.0 430.2,140.4 431.4,156.4 432.5,140.5 433.7,156.1 434.9,140.3 436.1,156.1 437.3,140.6 438.5,156.3 439.7,140.8 440.9,156.3 442.0,140.7 443.2,156.0 444.4,140.5 445.6,155.8 446.8,140.5 448.0,155.8 449.2,140.6 450.3,155.8 451.5,140.6 452.7,155.7 453.9,140.6 455.1,155.5 456.3,140.5 457.5,155.4 458.7,140.5 459.8,155.4 461.0,140.6 462.2,155.3 463.4,140.6 464.6,155.2 465.8,140.5 467.0,155.1 468.1,140.5 469.3,155.0 470.5,140.5 471.7,154.9 472.9,140.5 474.1,154.9 475.3,140.5 476.5,154.8 477.6,140.5 478.8,154.7 480.0,140.5 481.2,154.6 482.4,140.5 483.6,154.5 484.8,140.5 485.9,154.4 487.1,140.5 488.3,154.4 489.5,140.4 490.7,154.3 491.9,140.4 493.1,154.2 494.3,140.4 495.4,154.1 496.6,140.4 497.8,154.0 499.0,140.4 500.2,154.0 501.4,140.4 502.6,153.9 503.7,140.4 504.9,153.8 506.1,140.4 507.3,153.7 508.5,140.4 509.7,153.6 510.9,140.3 512.1,153.6 513.2,140.3 514.4,153.5 515.6,140.3 516.8,153.4 518.0,140.3 519.2,153.3 520.4,140.3 521.5,153.3 522.7,140.3 523.9,153.2 525.1,140.3 526.3,153.1 527.5,140.3 528.7,153.1 529.9,140.2 531.0,153.0 532.2,140.2 533.4,152.9 534.6,140.2 535.8,152.8 537.0,140.2 538.2,152.8 539.3,140.2 540.5,152.7 541.7,140.2 542.9,152.6 544.1,140.2 545.3,152.6 546.5,140.2 547.7,152.5 548.8,140.1 550.0,152.4 551.2,140.1 552.4,152.4 553.6,140.1 554.8,151.9 556.0,139.1 557.1,150.7 558.3,138.2 559.5,150.1 560.7,138.2 561.9,148.8 563.1,134.6 564.3,144.4 565.5,131.0 566.6,142.4 567.8,130.9 569.0,142.5 570.2,129.9 571.4,140.9 572.6,128.3 573.8,139.7 574.9,127.9 576.1,139.7 577.3,128.2 578.5,138.9 579.7,125.5 580.9,135.3 582.1,123.0 583.3,134.9 584.4,124.4 585.6,133.9 586.8,121.2 588.0,132.5 589.2,121.8 590.4,132.0 591.6,118.8 592.7,128.5 593.9,117.8 595.1,129.1 596.3,117.1 597.5,127.3 598.7,115.7 599.9,127.1 601.1,116.5 602.2,126.4 603.4,114.7 604.6,126.1 605.8,115.8 607.0,124.9 608.2,114.3 609.4,124.7 610.5,112.5 611.7,122.2 612.9,112.2 614.1,121.7 615.3,111.1 616.5,121.4 617.7,110.1 618.9,120.9 620.0,110.2 621.2,119.7 622.4,109.6 623.6,118.8 624.8,109.0 626.0,117.8 627.2,108.5 628.3,116.7 629.5,108.2 630.7,115.5 631.9,107.9 633.1,114.3 634.3,107.7 635.5,113.0 636.7,107.6 637.8,111.7 639.0,107.4 640.2,110.5 641.4,107.1 642.6,109.3 643.8,106.8 645.0,108.3 646.1,106.4 647.3,107.3 648.5,105.9 649.7,106.4 650.9,105.4 652.1,105.5 653.3,104.8 654.5,104.7 655.6,104.2 656.8,104.0 658.0,103.5 659.2,103.2 660.4,102.8 661.6,102.5 662.8,102.2 663.9,101.8 665.1,101.5 666.3,101.1 667.5,100.8 668.7,100.5 669.9,100.1 671.1,99.8 672.3,99.4 673.4,99.1 674.6,98.8 675.8,98.4 677.0,98.1 678.2,97.7 679.4,97.4 680.6,97.1 681.7,96.7 682.9,96.4 684.1,96.1 685.3,95.7 686.5,95.4 687.7,95.1 688.9,93.9 690.1,93.3 691.2,92.5 692.4,91.8 693.6,91.1 694.8,90.3 696.0,89.7 697.2,89.0 698.4,88.3 699.5,87.7 700.7,87.0 701.9,86.4 703.1,85.7 704.3,85.0 705.5,84.4 706.7,83.8 707.9,83.1 709.0,82.5 710.2,81.8 711.4,81.2 712.6,80.6 713.8,79.9 715.0,79.3 716.2,78.7 717.3,78.0 718.5,77.4 719.7,76.8 720.9,76.2 722.1,75.6 723.3,74.9 724.5,74.3 725.7,73.7 726.8,73.1 728.0,72.5 729.2,71.9 730.4,71.3 731.6,70.7 732.8,70.1 734.0,69.5 735.1,68.9 736.3,68.3 737.5,67.7 738.7,67.1 739.9,66.5 741.1,66.0 742.3,65.4 743.5,64.8 744.6,64.2 745.8,63.6 747.0,63.0 748.2,62.5 749.4,61.9 750.6,61.3 751.8,60.8 752.9,60.2 754.1,59.6 755.3,59.0 756.5,58.5 757.7,57.9 758.9,57.3 760.1,56.8 761.3,56.2 762.4,55.7 763.6,55.1 764.8,54.6 766.0,54.0"/>
<line x1="606" y1="42" x2="628" y2="42" stroke="#0f62fe" stroke-width="2.2"/>
<text x="634" y="46" font-family="Arial" font-size="12">alpha_deg</text>
<polyline fill="none" stroke="#24a148" stroke-width="2.2" points="54.0,244.5 55.2,244.5 56.4,244.5 57.6,244.5 58.7,244.5 59.9,244.5 61.1,244.5 62.3,244.5 63.5,244.5 64.7,244.5 65.9,244.5 67.1,244.5 68.2,244.5 69.4,244.5 70.6,244.5 71.8,244.5 73.0,244.5 74.2,244.5 75.4,244.5 76.5,244.5 77.7,244.5 78.9,244.5 80.1,244.5 81.3,244.5 82.5,244.5 83.7,244.5 84.9,244.5 86.0,244.5 87.2,244.5 88.4,244.5 89.6,244.5 90.8,244.5 92.0,244.5 93.2,244.5 94.3,244.5 95.5,244.5 96.7,244.5 97.9,244.5 99.1,244.5 100.3,244.5 101.5,244.5 102.7,244.5 103.8,244.5 105.0,244.5 106.2,244.5 107.4,244.5 108.6,244.5 109.8,244.5 111.0,244.5 112.1,244.5 113.3,244.5 114.5,244.5 115.7,244.5 116.9,244.5 118.1,244.5 119.3,244.5 120.5,244.5 121.6,244.5 122.8,244.5 124.0,244.5 125.2,244.5 126.4,244.5 127.6,244.5 128.8,244.5 129.9,244.5 131.1,244.5 132.3,244.5 133.5,244.5 134.7,244.5 135.9,244.5 137.1,244.5 138.3,244.5 139.4,244.5 140.6,244.5 141.8,244.5 143.0,244.5 144.2,244.5 145.4,244.5 146.6,244.5 147.7,244.5 148.9,244.5 150.1,244.5 151.3,244.5 152.5,244.5 153.7,244.5 154.9,244.5 156.1,244.5 157.2,244.5 158.4,244.5 159.6,244.5 160.8,244.5 162.0,244.5 163.2,244.5 164.4,244.5 165.5,244.5 166.7,244.5 167.9,244.5 169.1,244.5 170.3,244.5 171.5,244.5 172.7,244.5 173.9,244.5 175.0,244.5 176.2,244.5 177.4,244.5 178.6,244.5 179.8,244.5 181.0,244.5 182.2,244.5 183.3,244.5 184.5,244.5 185.7,244.5 186.9,244.5 188.1,244.5 189.3,244.5 190.5,244.5 191.7,244.5 192.8,244.5 194.0,244.5 195.2,244.5 196.4,244.5 197.6,244.5 198.8,244.5 200.0,244.5 201.1,244.5 202.3,244.5 203.5,244.5 204.7,244.5 205.9,244.5 207.1,244.5 208.3,244.5 209.5,244.5 210.6,244.5 211.8,244.5 213.0,244.5 214.2,244.5 215.4,244.5 216.6,244.5 217.8,244.5 218.9,244.5 220.1,244.5 221.3,244.5 222.5,244.5 223.7,244.5 224.9,244.5 226.1,244.5 227.3,244.5 228.4,244.5 229.6,244.5 230.8,244.5 232.0,244.5 233.2,244.5 234.4,244.5 235.6,244.5 236.7,244.5 237.9,244.5 239.1,244.5 240.3,244.5 241.5,244.5 242.7,244.5 243.9,244.5 245.1,244.5 246.2,244.5 247.4,244.5 248.6,244.5 249.8,244.5 251.0,244.5 252.2,244.5 253.4,244.5 254.5,244.5 255.7,244.5 256.9,244.5 258.1,244.5 259.3,244.5 260.5,244.5 261.7,244.5 262.9,244.5 264.0,244.5 265.2,244.5 266.4,244.5 267.6,244.5 268.8,244.5 270.0,244.5 271.2,244.5 272.3,244.5 273.5,244.5 274.7,244.5 275.9,244.5 277.1,244.5 278.3,244.5 279.5,244.5 280.7,244.5 281.8,244.5 283.0,244.5 284.2,244.5 285.4,244.5 286.6,244.5 287.8,244.5 289.0,244.5 290.1,244.5 291.3,244.5 292.5,244.5 293.7,244.5 294.9,244.5 296.1,244.5 297.3,244.5 298.5,244.5 299.6,244.5 300.8,244.5 302.0,244.5 303.2,244.5 304.4,244.5 305.6,244.5 306.8,244.5 307.9,244.5 309.1,244.5 310.3,244.5 311.5,244.5 312.7,244.5 313.9,244.5 315.1,244.5 316.3,244.5 317.4,244.5 318.6,244.5 319.8,244.5 321.0,244.5 322.2,244.5 323.4,244.5 324.6,244.5 325.7,244.5 326.9,244.5 328.1,244.5 329.3,244.5 330.5,244.5 331.7,244.5 332.9,244.5 334.1,244.5 335.2,244.5 336.4,244.5 337.6,244.5 338.8,244.5 340.0,244.5 341.2,244.5 342.4,244.5 343.5,244.5 344.7,244.5 345.9,244.5 347.1,244.5 348.3,244.5 349.5,244.5 350.7,244.5 351.9,244.5 353.0,244.5 354.2,244.5 355.4,244.5 356.6,244.5 357.8,244.5 359.0,244.5 360.2,244.5 361.3,244.5 362.5,244.5 363.7,244.5 364.9,244.5 366.1,244.5 367.3,244.5 368.5,244.5 369.7,244.5 370.8,244.5 372.0,244.5 373.2,244.5 374.4,244.5 375.6,244.5 376.8,244.5 378.0,244.5 379.1,244.5 380.3,244.5 381.5,244.5 382.7,244.5 383.9,244.5 385.1,244.5 386.3,244.5 387.5,244.5 388.6,244.5 389.8,244.5 391.0,244.5 392.2,244.5 393.4,244.5 394.6,244.5 395.8,244.5 396.9,244.5 398.1,244.5 399.3,244.5 400.5,244.5 401.7,244.5 402.9,244.5 404.1,244.5 405.3,244.5 406.4,244.5 407.6,244.5 408.8,244.5 410.0,244.5 411.2,244.5 412.4,244.5 413.6,244.5 414.7,244.5 415.9,244.5 417.1,244.5 418.3,244.5 419.5,244.5 420.7,244.5 421.9,244.5 423.1,244.5 424.2,244.5 425.4,244.5 426.6,244.5 427.8,244.5 429.0,244.5 430.2,244.5 431.4,244.5 432.5,244.5 433.7,244.5 434.9,244.5 436.1,244.5 437.3,244.5 438.5,244.5 439.7,244.5 440.9,244.5 442.0,244.5 443.2,244.5 444.4,244.5 445.6,244.5 446.8,244.5 448.0,244.5 449.2,244.5 450.3,244.5 451.5,244.5 452.7,244.5 453.9,244.5 455.1,244.5 456.3,244.5 457.5,244.5 458.7,244.5 459.8,244.5 461.0,244.5 462.2,244.5 463.4,244.5 464.6,244.5 465.8,244.5 467.0,244.5 468.1,244.5 469.3,244.5 470.5,244.5 471.7,244.5 472.9,244.5 474.1,244.5 475.3,244.5 476.5,244.5 477.6,244.5 478.8,244.5 480.0,244.5 481.2,244.5 482.4,244.5 483.6,244.5 484.8,244.5 485.9,244.5 487.1,244.5 488.3,244.5 489.5,244.5 490.7,244.5 491.9,244.5 493.1,244.5 494.3,244.5 495.4,244.5 496.6,244.5 497.8,244.5 499.0,244.5 500.2,244.5 501.4,244.5 502.6,244.5 503.7,244.5 504.9,244.5 506.1,244.5 507.3,244.5 508.5,244.5 509.7,244.5 510.9,244.5 512.1,244.5 513.2,244.5 514.4,244.5 515.6,244.5 516.8,244.5 518.0,244.5 519.2,244.5 520.4,244.5 521.5,244.5 522.7,244.5 523.9,244.5 525.1,244.5 526.3,244.5 527.5,244.5 528.7,244.5 529.9,244.5 531.0,244.5 532.2,244.5 533.4,244.5 534.6,244.5 535.8,244.5 537.0,244.5 538.2,244.5 539.3,244.5 540.5,244.5 541.7,244.5 542.9,244.5 544.1,244.5 545.3,244.5 546.5,244.5 547.7,244.5 548.8,244.5 550.0,244.5 551.2,244.5 552.4,244.5 553.6,244.5 554.8,244.5 556.0,244.5 557.1,244.5 558.3,244.5 559.5,244.5 560.7,244.5 561.9,244.5 563.1,244.5 564.3,244.5 565.5,244.5 566.6,244.5 567.8,244.5 569.0,244.5 570.2,244.5 571.4,244.5 572.6,244.5 573.8,244.5 574.9,244.5 576.1,244.5 577.3,244.5 578.5,244.5 579.7,244.5 580.9,244.5 582.1,244.5 583.3,244.5 584.4,244.5 585.6,244.5 586.8,244.5 588.0,244.5 589.2,244.5 590.4,244.5 591.6,244.5 592.7,244.5 593.9,244.5 595.1,244.5 596.3,244.5 597.5,244.5 598.7,244.5 599.9,244.5 601.1,244.5 602.2,244.5 603.4,244.5 604.6,244.5 605.8,244.5 607.0,244.5 608.2,244.5 609.4,244.5 610.5,244.5 611.7,244.5 612.9,244.5 614.1,244.5 615.3,244.5 616.5,244.5 617.7,244.5 618.9,244.5 620.0,244.5 621.2,244.5 622.4,244.5 623.6,244.5 624.8,244.5 626.0,244.5 627.2,244.5 628.3,244.5 629.5,244.5 630.7,244.5 631.9,244.5 633.1,244.5 634.3,244.5 635.5,244.5 636.7,244.5 637.8,244.5 639.0,244.5 640.2,244.5 641.4,244.5 642.6,244.5 643.8,244.5 645.0,244.5 646.1,244.5 647.3,244.5 648.5,244.5 649.7,244.5 650.9,244.5 652.1,244.5 653.3,244.5 654.5,244.5 655.6,244.5 656.8,244.5 658.0,244.5 659.2,244.5 660.4,244.5 661.6,244.5 662.8,244.5 663.9,244.5 665.1,244.5 666.3,244.5 667.5,244.5 668.7,244.5 669.9,244.5 671.1,244.5 672.3,244.5 673.4,244.5 674.6,244.5 675.8,244.5 677.0,244.5 678.2,244.5 679.4,244.5 680.6,244.5 681.7,244.5 682.9,244.5 684.1,244.5 685.3,244.5 686.5,244.5 687.7,244.5 688.9,244.5 690.1,244.5 691.2,244.5 692.4,244.5 693.6,244.5 694.8,244.5 696.0,244.5 697.2,244.5 698.4,244.5 699.5,244.5 700.7,244.5 701.9,244.5 703.1,244.5 704.3,244.5 705.5,244.5 706.7,244.5 707.9,244.5 709.0,244.5 710.2,244.5 711.4,244.5 712.6,244.5 713.8,244.5 715.0,244.5 716.2,244.5 717.3,244.5 718.5,244.5 719.7,244.5 720.9,244.5 722.1,244.5 723.3,244.5 724.5,244.5 725.7,244.5 726.8,244.5 728.0,244.5 729.2,244.5 730.4,244.5 731.6,244.5 732.8,244.5 734.0,244.5 735.1,244.5 736.3,244.5 737.5,244.5 738.7,244.5 739.9,244.5 741.1,244.5 742.3,244.5 743.5,244.5 744.6,244.5 745.8,244.5 747.0,244.5 748.2,244.5 749.4,244.5 750.6,244.5 751.8,244.5 752.9,244.5 754.1,244.5 755.3,244.5 756.5,244.5 757.7,244.5 758.9,244.5 760.1,244.5 761.3,244.5 762.4,244.5 763.6,244.5 764.8,244.5 766.0,244.5"/>
<line x1="606" y1="60" x2="628" y2="60" stroke="#24a148" stroke-width="2.2"/>
<text x="634" y="64" font-family="Arial" font-size="12">beta_deg</text>
</svg>