<svg xmlns="http://www.w3.org/2000/svg" width="820" height="320" viewBox="0 0 820 320">
<rect width="100%" height="100%" fill="#ffffff"/>
<text x="54" y="28" font-family="Arial" font-size="18" font-weight="700">Dynamic Pressure</text>
<line x1="54" y1="266" x2="766" y2="266" stroke="#1f2933"/>
<line x1="54" y1="54" x2="54" y2="266" stroke="#1f2933"/>
<text x="54" y="306" font-family="Arial" font-size="12">time (s)</text>
<text x="596" y="306" font-family="Arial" font-size="12">qbar (Pa)</text>
<text x="58" y="68" font-family="Arial" font-size="11">2.23e+04</text>
<text x="58" y="260" font-family="Arial" font-size="11">4.63e+03</text>
<polyline fill="none" stroke="#0f62fe" stroke-width="2.2" points="54.0,266.0 55.2,265.4 56.4,264.8 57.6,264.2 58.7,263.5 59.9,262.8 61.1,262.2 62.3,261.5 63.5,260.8 64.7,260.0 65.9,259.3 67.1,258.5 68.2,257.7 69.4,256.9 70.6,256.1 71.8,255.3 73.0,254.5 74.2,253.6 75.4,252.8 76.5,252.0 77.7,251.1 78.9,250.3 80.1,249.4 81.3,248.6 82.5,247.7 83.7,246.8 84.9,246.0 86.0,245.1 87.2,244.2 88.4,243.3 89.6,242.4 90.8,241.5 92.0,240.6 93.2,239.7 94.3,238.8 95.5,237.9 96.7,237.0 97.9,236.1 99.1,235.2 100.3,234.2 101.5,233.3 102.7,232.4 103.8,231.4 105.0,230.5 106.2,229.5 107.4,228.6 108.6,227.6 109.8,226.7 111.0,225.7 112.1,224.7 113.3,223.8 114.5,222.8 115.7,221.8 116.9,220.8 118.1,219.8 119.3,218.8 120.5,217.8 121.6,216.8 122.8,215.8 124.0,214.8 125.2,213.8 126.4,212.8 127.6,211.8 128.8,210.8 129.9,209.8 131.1,208.7 132.3,207.7 133.5,206.7 134.7,205.6 135.9,204.6 137.1,203.6 138.3,202.5 139.4,201.5 140.6,200.4 141.8,199.3 143.0,198.3 144.2,197.2 145.4,196.2 146.6,195.1 147.7,194.0 148.9,192.9 150.1,191.9 151.3,190.8 152.5,189.7 153.7,188.6 154.9,187.5 156.1,186.4 157.2,185.3 158.4,184.2 159.6,183.1 160.8,182.0 162.0,180.9 163.2,179.8 164.4,178.7 165.5,177.6 166.7,176.5 167.9,175.4 169.1,174.3 170.3,173.2 171.5,172.0 172.7,170.9 173.9,169.8 175.0,168.7 176.2,167.5 177.4,166.4 178.6,165.3 179.8,164.1 181.0,163.0 182.2,161.9 183.3,160.7 184.5,159.6 185.7,158.4 186.9,157.3 188.1,156.1 189.3,155.0 190.5,153.8 191.7,152.7 192.8,151.5 194.0,150.4 195.2,149.2 196.4,148.1 197.6,146.9 198.8,145.8 200.0,144.6 201.1,143.4 202.3,142.3 203.5,141.1 204.7,139.9 205.9,138.8 207.1,137.6 208.3,136.4 209.5,135.2 210.6,134.0 211.8,132.9 213.0,131.7 214.2,130.5 215.4,129.3 216.6,128.1 217.8,126.9 218.9,125.7 220.1,124.5 221.3,123.4 222.5,122.1 223.7,120.9 224.9,119.7 226.1,118.6 227.3,117.4 228.4,116.2 229.6,115.0 230.8,113.9 232.0,112.7 233.2,111.5 234.4,110.3 235.6,109.1 236.7,108.0 237.9,106.7 239.1,105.6 240.3,104.4 241.5,103.2 242.7,102.0 243.9,100.9 245.1,99.7 246.2,98.5 247.4,97.3 248.6,96.1 249.8,94.9 251.0,93.8 252.2,92.6 253.4,91.4 254.5,90.2 255.7,89.1 256.9,87.9 258.1,86.7 259.3,85.5 260.5,84.3 261.7,83.1 262.9,82.0 264.0,80.8 265.2,79.6 266.4,78.5 267.6,77.3 268.8,76.1 270.0,75.0 271.2,73.8 272.3,72.6 273.5,71.4 274.7,70.3 275.9,69.1 277.1,68.0 278.3,66.8 279.5,65.6 280.7,64.4 281.8,63.3 283.0,62.1 284.2,61.0 285.4,59.8 286.6,58.6 287.8,57.4 289.0,56.3 290.1,55.1 291.3,54.0 292.5,54.8 293.7,55.7 294.9,56.6 296.1,57.4 297.3,58.2 298.5,59.1 299.6,59.9 300.8,60.7 302.0,61.5 303.2,62.4 304.4,63.1 305.6,63.9 306.8,64.7 307.9,65.5 309.1,66.3 310.3,67.1 311.5,67.8 312.7,68.6 313.9,69.4 315.1,70.1 316.3,70.9 317.4,71.7 318.6,72.4 319.8,73.1 321.0,73.9 322.2,74.6 323.4,75.3 324.6,76.1 325.7,76.7 326.9,77.5 328.1,78.2 329.3,78.9 330.5,79.6 331.7,80.3 332.9,81.0 334.1,81.7 335.2,82.3 336.4,83.0 337.6,83.7 338.8,84.4 340.0,85.0 341.2,85.7 342.4,86.4 343.5,87.1 344.7,87.7 345.9,88.4 347.1,89.0 348.3,89.7 349.5,90.3 350.7,90.9 351.9,91.6 353.0,92.2 354.2,92.8 355.4,93.4 356.6,94.0 357.8,94.7 359.0,95.3 360.2,95.9 361.3,96.5 362.5,97.1 363.7,97.7 364.9,98.3 366.1,98.9 367.3,99.5 368.5,100.0 369.7,100.7 370.8,101.2 372.0,101.8 373.2,102.4 374.4,103.0 375.6,103.5 376.8,104.1 378.0,104.7 379.1,105.3 380.3,105.8 381.5,106.4 382.7,106.9 383.9,107.5 385.1,108.0 386.3,108.6 387.5,109.1 388.6,109.7 389.8,110.2 391.0,110.8 392.2,111.3 393.4,111.9 394.6,112.4 395.8,112.9 396.9,113.5 398.1,114.0 399.3,114.5 400.5,115.1 401.7,115.6 402.9,116.1 404.1,116.6 405.3,117.1 406.4,117.6 407.6,118.2 408.8,118.7 410.0,119.2 411.2,119.7 412.4,120.2 413.6,120.7 414.7,121.2 415.9,121.7 417.1,122.2 418.3,122.7 419.5,123.2 420.7,123.6 421.9,124.1 423.1,124.6 424.2,125.1 425.4,125.6 426.6,126.1 427.8,126.5 429.0,127.0 430.2,127.5 431.4,128.0 432.5,128.4 433.7,128.9 434.9,129.3 436.1,129.8 437.3,130.3 438.5,130.7 439.7,131.2 440.9,131.6 442.0,132.1 443.2,132.5 444.4,133.0 445.6,133.4 446.8,133.9 448.0,134.3 449.2,134.7 450.3,135.2 451.5,135.6 452.7,136.1 453.9,136.5 455.1,136.9 456.3,137.3 457.5,137.8 458.7,138.2 459.8,138.6 461.0,139.0 462.2,139.5 463.4,139.9 464.6,140.3 465.8,140.7 467.0,141.1 468.1,141.5 469.3,141.9 470.5,142.3 471.7,142.7 472.9,143.1 474.1,143.5 475.3,143.9 476.5,144.3 477.6,144.7 478.8,145.1 480.0,145.5 481.2,145.9 482.4,146.3 483.6,146.7 484.8,147.0 485.9,147.4 487.1,147.8 488.3,148.2 489.5,148.6 490.7,148.9 491.9,149.3 493.1,149.7 494.3,150.1 495.4,150.4 496.6,150.8 497.8,151.2 499.0,151.5 500.2,151.9 501.4,152.2 502.6,152.6 503.7,153.0 504.9,153.3 506.1,153.7 507.3,154.0 508.5,154.4 509.7,154.7 510.9,155.1 512.1,155.4 513.2,155.8 514.4,156.1 515.6,156.4 516.8,156.8 518.0,157.1 519.2,157.5 520.4,157.8 521.5,158.1 522.7,158.5 523.9,158.8 525.1,159.1 526.3,159.5 527.5,159.8 528.7,160.1 529.9,160.4 531.0,160.7 532.2,161.1 533.4,161.4 534.6,161.7 535.8,162.0 537.0,162.3 538.2,162.6 539.3,162.9 540.5,163.3 541.7,163.6 542.9,163.9 544.1,164.2 545.3,164.5 546.5,164.8 547.7,165.1 548.8,165.4 550.0,165.7 551.2,166.0 552.4,166.3 553.6,166.6 554.8,166.9 556.0,167.1 557.1,167.4 558.3,167.7 559.5,168.0 560.7,168.3 561.9,168.6 563.1,168.9 564.3,169.1 565.5,169.4 566.6,169.7 567.8,170.0 569.0,170.3 570.2,170.6 571.4,170.8 572.6,171.1 573.8,171.4 574.9,171.7 576.1,172.0 577.3,172.2 578.5,172.5 579.7,172.8 580.9,173.1 582.1,173.3 583.3,173.6 584.4,173.9 585.6,174.1 586.8,174.4 588.0,174.7 589.2,174.9 590.4,175.2 591.6,175.5 592.7,175.8 593.9,176.0 595.1,176.3 596.3,176.5 597.5,176.8 598.7,177.1 599.9,177.3 601.1,177.6 602.2,177.9 603.4,178.1 604.6,178.4 605.8,178.6 607.0,178.9 608.2,179.1 609.4,179.4 610.5,179.6 611.7,179.9 612.9,180.1 614.1,180.4 615.3,180.6 616.5,180.9 617.7,181.1 618.9,181.4 620.0,181.6 621.2,181.9 622.4,182.1 623.6,182.4 624.8,182.6 626.0,182.9 627.2,183.1 628.3,183.3 629.5,183.6 630.7,183.8 631.9,184.0 633.1,184.3 634.3,184.5 635.5,184.8 636.7,185.0 637.8,185.2 639.0,185.5 640.2,185.7 641.4,185.9 642.6,186.1 643.8,186.4 645.0,186.6 646.1,186.8 647.3,187.1 648.5,187.3 649.7,187.5 650.9,187.7 652.1,188.0 653.3,188.2 654.5,188.4 655.6,188.6 656.8,188.8 658.0,189.1 659.2,189.3 660.4,189.5 661.6,189.7 662.8,189.9 663.9,190.1 665.1,190.4 666.3,190.6 667.5,190.8 668.7,191.0 669.9,191.2 671.1,191.4 672.3,191.6 673.4,191.8 674.6,192.1 675.8,192.3 677.0,192.5 678.2,192.7 679.4,192.9 680.6,193.1 681.7,193.3 682.9,193.5 684.1,193.7 685.3,193.9 686.5,194.1 687.7,194.3 688.9,194.5 690.1,194.7 691.2,194.9 692.4,195.1 693.6,195.3 694.8,195.5 696.0,195.7 697.2,195.9 698.4,196.1 699.5,196.3 700.7,196.5 701.9,196.7 703.1,196.9 704.3,197.1 705.5,197.3 706.7,197.4 707.9,197.6 709.0,197.8 710.2,198.0 711.4,198.2 712.6,198.4 713.8,198.6 715.0,198.8 716.2,199.0 717.3,199.2 718.5,199.4 719.7,199.5 720.9,199.7 722.1,199.9 723.3,200.1 724.5,200.3 725.7,200.5 726.8,200.7 728.0,200.9 729.2,201.0 730.4,201.2 731.6,201.4 732.8,201.6 734.0,201.8 735.1,202.0 736.3,202.1 737.5,202.3 738.7,202.5 739.9,202.7 741.1,202.9 742.3,203.1 743.5,203.2 744.6,203.4 745.8,203.6 747.0,203.8 748.2,204.0 749.4,204.1 750.6,204.3 751.8,204.5 752.9,204.7 754.1,204.8 755.3,205.0 756.5,205.2 757.7,205.4 758.9,205.5 760.1,205.7 761.3,205.9 762.4,206.1 763.6,206.2 764.8,206.4 766.0,206.6"/>
<line x1="606" y1="42" x2="628" y2="42" stroke="#0f62fe" stroke-width="2.2"/>
<text x="634" y="46" font-family="Arial" font-size="12">qbar_pa</text>
</svg>