<svg xmlns="http://www.w3.org/2000/svg" width="820" height="320" viewBox="0 0 820 320">
<rect width="100%" height="100%" fill="#ffffff"/>
<text x="54" y="28" font-family="Arial" font-size="18" font-weight="700">Pitch Command Tracking</text>
<line x1="54" y1="266" x2="766" y2="266" stroke="#1f2933"/>
<line x1="54" y1="54" x2="54" y2="266" stroke="#1f2933"/>
<text x="54" y="306" font-family="Arial" font-size="12">time (s)</text>
<text x="596" y="306" font-family="Arial" font-size="12">pitch (deg)</text>
<text x="58" y="68" font-family="Arial" font-size="11">15</text>
<text x="58" y="260" font-family="Arial" font-size="11">-1.01</text>
<polyline fill="none" stroke="#0f62fe" stroke-width="2.2" points="54.0,54.0 55.2,54.3 56.4,54.6 57.6,54.9 58.7,55.2 59.9,55.5 61.1,55.8 62.3,56.1 63.5,56.4 64.7,56.7 65.9,57.0 67.1,57.3 68.2,57.6 69.4,57.9 70.6,58.2 71.8,58.5 73.0,58.8 74.2,59.1 75.4,59.4 76.5,59.7 77.7,60.0 78.9,60.3 80.1,60.6 81.3,60.9 82.5,61.1 83.7,61.4 84.9,61.7 86.0,62.0 87.2,62.3 88.4,62.6 89.6,62.9 90.8,63.2 92.0,63.5 93.2,63.8 94.3,64.1 95.5,64.4 96.7,64.7 97.9,65.0 99.1,65.3 100.3,65.6 101.5,65.9 102.7,66.2 103.8,66.5 105.0,66.8 106.2,67.1 107.4,67.4 108.6,67.7 109.8,68.0 111.0,68.3 112.1,68.6 113.3,68.9 114.5,69.2 115.7,69.5 116.9,69.8 118.1,70.1 119.3,70.4 120.5,70.7 121.6,71.0 122.8,71.3 124.0,71.6 125.2,71.9 126.4,72.2 127.6,72.5 128.8,72.8 129.9,73.1 131.1,73.4 132.3,73.7 133.5,74.0 134.7,74.3 135.9,74.6 137.1,74.9 138.3,75.1 139.4,75.4 140.6,75.7 141.8,76.0 143.0,76.3 144.2,76.6 145.4,76.9 146.6,77.2 147.7,77.5 148.9,77.8 150.1,78.1 151.3,78.4 152.5,78.7 153.7,79.0 154.9,79.3 156.1,79.6 157.2,79.9 158.4,80.2 159.6,80.5 160.8,80.8 162.0,81.1 163.2,81.4 164.4,81.7 165.5,82.0 166.7,82.3 167.9,82.6 169.1,82.9 170.3,83.2 171.5,83.5 172.7,83.8 173.9,84.1 175.0,84.4 176.2,84.7 177.4,85.0 178.6,85.3 179.8,85.6 181.0,85.9 182.2,86.2 183.3,86.5 184.5,86.8 185.7,87.1 186.9,87.4 188.1,87.7 189.3,88.0 190.5,88.3 191.7,88.6 192.8,88.9 194.0,89.1 195.2,89.4 196.4,89.7 197.6,90.0 198.8,90.3 200.0,90.6 201.1,90.9 202.3,91.2 203.5,91.5 204.7,91.8 205.9,92.1 207.1,92.4 208.3,92.7 209.5,93.0 210.6,93.3 211.8,93.6 213.0,93.9 214.2,94.2 215.4,94.5 216.6,94.8 217.8,95.1 218.9,95.4 220.1,95.7 221.3,96.0 222.5,96.3 223.7,96.6 224.9,96.9 226.1,97.2 227.3,97.5 228.4,97.8 229.6,98.1 230.8,98.4 232.0,98.7 233.2,99.0 234.4,99.3 235.6,99.6 236.7,99.9 237.9,100.2 239.1,100.5 240.3,100.8 241.5,101.1 242.7,101.4 243.9,101.7 245.1,102.0 246.2,102.3 247.4,102.6 248.6,102.8 249.8,103.1 251.0,103.4 252.2,103.7 253.4,104.0 254.5,104.3 255.7,104.6 256.9,104.9 258.1,105.2 259.3,105.5 260.5,105.8 261.7,106.1 262.9,106.4 264.0,106.7 265.2,107.0 266.4,107.3 267.6,107.6 268.8,107.9 270.0,108.2 271.2,108.5 272.3,108.8 273.5,109.1 274.7,109.4 275.9,109.7 277.1,110.0 278.3,110.3 279.5,110.6 280.7,110.9 281.8,111.2 283.0,111.5 284.2,111.8 285.4,112.1 286.6,112.4 287.8,112.7 289.0,113.0 290.1,113.3 291.3,113.6 292.5,113.9 293.7,114.2 294.9,114.5 296.1,114.8 297.3,115.1 298.5,115.4 299.6,115.7 300.8,116.0 302.0,116.3 303.2,116.6 304.4,116.8 305.6,117.1 306.8,117.4 307.9,117.7 309.1,118.0 310.3,118.3 311.5,118.6 312.7,118.9 313.9,119.2 315.1,119.5 316.3,119.8 317.4,120.1 318.6,120.4 319.8,120.7 321.0,121.0 322.2,121.3 323.4,121.6 324.6,121.9 325.7,122.2 326.9,122.5 328.1,122.8 329.3,123.1 330.5,123.4 331.7,123.7 332.9,124.0 334.1,124.3 335.2,124.6 336.4,124.9 337.6,125.2 338.8,125.5 340.0,125.8 341.2,126.1 342.4,126.4 343.5,126.7 344.7,127.0 345.9,127.3 347.1,127.6 348.3,127.9 349.5,128.2 350.7,128.5 351.9,128.8 353.0,129.1 354.2,129.4 355.4,129.7 356.6,130.0 357.8,130.3 359.0,130.6 360.2,130.8 361.3,131.1 362.5,131.4 363.7,131.7 364.9,132.0 366.1,132.3 367.3,132.6 368.5,132.9 369.7,133.2 370.8,133.5 372.0,133.8 373.2,134.0 374.4,134.3 375.6,134.5 376.8,134.8 378.0,135.0 379.1,135.3 380.3,135.5 381.5,135.7 382.7,136.0 383.9,136.2 385.1,136.5 386.3,136.7 387.5,137.0 388.6,137.2 389.8,137.5 391.0,137.7 392.2,138.0 393.4,138.2 394.6,138.5 395.8,138.7 396.9,139.0 398.1,139.2 399.3,139.5 400.5,139.7 401.7,140.0 402.9,140.2 404.1,140.5 405.3,140.7 406.4,141.0 407.6,141.2 408.8,141.5 410.0,141.7 411.2,142.0 412.4,142.2 413.6,142.4 414.7,142.7 415.9,142.9 417.1,143.2 418.3,143.4 419.5,143.7 420.7,143.9 421.9,144.2 423.1,144.4 424.2,144.7 425.4,144.9 426.6,145.2 427.8,145.4 429.0,145.7 430.2,145.9 431.4,146.2 432.5,146.4 433.7,146.7 434.9,146.9 436.1,147.2 437.3,147.4 438.5,147.7 439.7,147.9 440.9,148.2 442.0,148.4 443.2,148.7 444.4,148.9 445.6,149.2 446.8,149.4 448.0,149.6 449.2,149.9 450.3,150.1 451.5,150.4 452.7,150.6 453.9,150.9 455.1,151.1 456.3,151.4 457.5,151.6 458.7,151.9 459.8,152.1 461.0,152.4 462.2,152.6 463.4,152.9 464.6,153.1 465.8,153.4 467.0,153.6 468.1,153.9 469.3,154.1 470.5,154.4 471.7,154.6 472.9,154.9 474.1,155.1 475.3,155.4 476.5,155.6 477.6,155.9 478.8,156.1 480.0,156.3 481.2,156.6 482.4,156.8 483.6,157.1 484.8,157.3 485.9,157.6 487.1,157.8 488.3,158.1 489.5,158.3 490.7,158.6 491.9,158.8 493.1,159.1 494.3,159.3 495.4,159.6 496.6,159.8 497.8,160.1 499.0,160.3 500.2,160.6 501.4,160.8 502.6,161.1 503.7,161.3 504.9,161.6 506.1,161.8 507.3,162.1 508.5,162.3 509.7,162.6 510.9,162.8 512.1,163.1 513.2,163.3 514.4,163.5 515.6,163.8 516.8,164.0 518.0,164.3 519.2,164.5 520.4,164.8 521.5,165.0 522.7,165.3 523.9,165.5 525.1,165.8 526.3,166.0 527.5,166.3 528.7,166.5 529.9,166.8 531.0,167.0 532.2,167.3 533.4,167.5 534.6,167.8 535.8,168.0 537.0,168.3 538.2,168.5 539.3,168.8 540.5,169.0 541.7,169.3 542.9,169.5 544.1,169.8 545.3,170.0 546.5,170.2 547.7,170.5 548.8,170.7 550.0,171.0 551.2,171.2 552.4,171.5 553.6,171.7 554.8,172.0 556.0,172.2 557.1,172.5 558.3,172.7 559.5,173.0 560.7,173.2 561.9,173.5 563.1,173.7 564.3,174.0 565.5,174.2 566.6,174.5 567.8,174.7 569.0,175.0 570.2,175.2 571.4,175.5 572.6,175.7 573.8,176.0 574.9,176.2 576.1,176.5 577.3,176.7 578.5,177.0 579.7,177.2 580.9,177.4 582.1,177.7 583.3,177.9 584.4,178.2 585.6,178.4 586.8,178.7 588.0,178.9 589.2,179.2 590.4,179.4 591.6,179.7 592.7,179.9 593.9,180.2 595.1,180.4 596.3,180.7 597.5,180.9 598.7,181.2 599.9,181.4 601.1,181.7 602.2,181.9 603.4,182.2 604.6,182.4 605.8,182.7 607.0,182.9 608.2,183.2 609.4,183.4 610.5,183.7 611.7,183.9 612.9,184.1 614.1,184.4 615.3,184.6 616.5,184.9 617.7,185.1 618.9,185.4 620.0,185.6 621.2,185.9 622.4,186.1 623.6,186.4 624.8,186.6 626.0,186.9 627.2,187.1 628.3,187.4 629.5,187.6 630.7,187.9 631.9,188.1 633.1,188.4 634.3,188.6 635.5,188.9 636.7,189.1 637.8,189.4 639.0,189.6 640.2,189.9 641.4,190.1 642.6,190.4 643.8,190.6 645.0,190.9 646.1,191.1 647.3,191.3 648.5,191.6 649.7,191.8 650.9,192.1 652.1,192.3 653.3,192.6 654.5,192.8 655.6,193.1 656.8,193.3 658.0,193.6 659.2,193.8 660.4,194.1 661.6,194.3 662.8,194.6 663.9,194.8 665.1,195.1 666.3,195.3 667.5,195.6 668.7,195.8 669.9,196.1 671.1,196.3 672.3,196.6 673.4,196.8 674.6,197.1 675.8,197.3 677.0,197.6 678.2,197.8 679.4,198.0 680.6,198.3 681.7,198.5 682.9,198.8 684.1,199.0 685.3,199.3 686.5,199.5 687.7,199.6 688.9,199.6 690.1,199.6 691.2,199.6 692.4,199.6 693.6,199.6 694.8,199.6 696.0,199.6 697.2,199.6 698.4,199.6 699.5,199.6 700.7,199.6 701.9,199.6 703.1,199.6 704.3,199.6 705.5,199.6 706.7,199.6 707.9,199.6 709.0,199.6 710.2,199.6 711.4,199.6 712.6,199.6 713.8,199.6 715.0,199.6 716.2,199.6 717.3,199.6 718.5,199.6 719.7,199.6 720.9,199.6 722.1,199.6 723.3,199.6 724.5,199.6 725.7,199.6 726.8,199.6 728.0,199.6 729.2,199.6 730.4,199.6 731.6,199.6 732.8,199.6 734.0,199.6 735.1,199.6 736.3,199.6 737.5,199.6 738.7,199.6 739.9,199.6 741.1,199.6 742.3,199.6 743.5,199.6 744.6,199.6 745.8,199.6 747.0,199.6 748.2,199.6 749.4,199.6 750.6,199.6 751.8,199.6 752.9,199.6 754.1,199.6 755.3,199.6 756.5,199.6 757.7,199.6 758.9,199.6 760.1,199.6 761.3,199.6 762.4,199.6 763.6,199.6 764.8,199.6 766.0,199.6"/>
<line x1="606" y1="42" x2="628" y2="42" stroke="#0f62fe" stroke-width="2.2"/>
<text x="634" y="46" font-family="Arial" font-size="12">pitch_command_deg</text>
<polyline fill="none" stroke="#24a148" stroke-width="2.2" points="54.0,120.2 55.2,115.2 56.4,110.7 57.6,109.1 58.7,108.8 59.9,108.0 61.1,106.8 62.3,105.9 63.5,105.5 64.7,105.3 65.9,105.2 67.1,105.1 68.2,105.2 69.4,105.3 70.6,105.6 71.8,105.9 73.0,106.3 74.2,106.8 75.4,107.3 76.5,107.8 77.7,108.4 78.9,109.0 80.1,109.6 81.3,110.3 82.5,110.9 83.7,111.6 84.9,112.3 86.0,113.0 87.2,113.7 88.4,114.4 89.6,115.1 90.8,115.8 92.0,116.5 93.2,117.2 94.3,118.0 95.5,118.7 96.7,119.4 97.9,120.1 99.1,120.7 100.3,121.4 101.5,122.1 102.7,122.8 103.8,123.4 105.0,124.1 106.2,124.7 107.4,125.4 108.6,126.0 109.8,126.6 111.0,127.2 112.1,127.8 113.3,128.4 114.5,129.0 115.7,129.6 116.9,130.2 118.1,130.7 119.3,131.3 120.5,131.8 121.6,132.3 122.8,132.9 124.0,133.4 125.2,133.9 126.4,134.4 127.6,134.9 128.8,135.4 129.9,135.8 131.1,136.3 132.3,136.8 133.5,137.2 134.7,137.7 135.9,138.1 137.1,138.5 138.3,138.9 139.4,139.3 140.6,139.7 141.8,140.1 143.0,140.5 144.2,140.9 145.4,141.3 146.6,141.6 147.7,142.0 148.9,142.3 150.1,142.5 151.3,142.8 152.5,143.0 153.7,143.2 154.9,143.4 156.1,143.6 157.2,143.8 158.4,143.9 159.6,144.1 160.8,144.2 162.0,144.3 163.2,144.4 164.4,144.5 165.5,144.5 166.7,144.6 167.9,144.6 169.1,144.7 170.3,144.7 171.5,144.7 172.7,144.7 173.9,144.8 175.0,144.8 176.2,144.8 177.4,144.7 178.6,144.7 179.8,144.7 181.0,144.7 182.2,144.6 183.3,144.6 184.5,144.5 185.7,144.5 186.9,144.4 188.1,144.4 189.3,144.3 190.5,144.2 191.7,144.1 192.8,144.1 194.0,144.0 195.2,143.9 196.4,143.8 197.6,143.7 198.8,143.7 200.0,143.3 201.1,143.8 202.3,142.6 203.5,144.7 204.7,140.2 205.9,147.0 207.1,145.2 208.3,145.0 209.5,144.7 210.6,144.2 211.8,144.2 213.0,143.2 214.2,144.5 215.4,140.9 216.6,148.1 217.8,145.2 218.9,147.2 220.1,141.0 221.3,147.1 222.5,144.0 223.7,147.4 224.9,137.8 226.1,138.4 227.3,141.2 228.4,134.2 229.6,139.1 230.8,134.3 232.0,140.6 233.2,135.8 234.4,141.4 235.6,135.2 236.7,139.8 237.9,133.1 239.1,138.0 240.3,131.8 241.5,137.4 242.7,131.6 243.9,137.3 245.1,131.1 246.2,136.5 247.4,129.8 248.6,135.2 249.8,128.5 251.0,134.2 252.2,127.7 253.4,133.5 254.5,126.8 255.7,132.6 256.9,125.7 258.1,131.5 259.3,124.5 260.5,130.4 261.7,123.4 262.9,129.4 264.0,122.4 265.2,128.4 266.4,121.3 267.6,127.4 268.8,120.3 270.0,126.3 271.2,119.3 272.3,125.3 273.5,118.2 274.7,124.3 275.9,117.2 277.1,123.2 278.3,116.1 279.5,122.2 280.7,115.1 281.8,121.1 283.0,114.1 284.2,120.1 285.4,113.0 286.6,119.1 287.8,112.0 289.0,118.0 290.1,110.9 291.3,117.0 292.5,110.6 293.7,117.3 294.9,110.8 296.1,117.5 297.3,111.1 298.5,117.8 299.6,111.4 300.8,118.1 302.0,111.7 303.2,118.4 304.4,112.0 305.6,118.7 306.8,112.3 307.9,118.6 309.1,111.8 310.3,118.1 311.5,111.3 312.7,117.6 313.9,110.7 315.1,117.0 316.3,110.9 317.4,117.9 318.6,111.8 319.8,118.8 321.0,112.7 322.2,119.8 323.4,113.7 324.6,120.3 325.7,113.9 326.9,120.1 328.1,113.2 329.3,119.4 330.5,113.2 331.7,120.1 332.9,114.1 334.1,121.3 335.2,115.3 336.4,122.1 337.6,115.7 338.8,122.0 340.0,115.2 341.2,121.3 342.4,115.5 343.5,122.7 344.7,117.2 345.9,124.2 347.1,118.1 348.3,124.4 349.5,117.6 350.7,123.6 351.9,118.1 353.0,125.7 354.2,120.6 355.4,127.5 356.6,121.3 357.8,127.1 359.0,121.0 360.2,127.5 361.3,122.0 362.5,128.8 363.7,123.1 364.9,129.4 366.1,123.4 367.3,129.4 368.5,123.5 369.7,129.8 370.8,124.1 372.0,130.5 373.2,124.9 374.4,131.1 375.6,125.5 376.8,131.6 378.0,125.9 379.1,132.0 380.3,126.5 381.5,132.6 382.7,127.1 383.9,133.2 385.1,127.8 386.3,133.8 387.5,128.4 388.6,134.3 389.8,129.0 391.0,134.9 392.2,129.6 393.4,135.6 394.6,130.3 395.8,136.2 396.9,131.0 398.1,136.8 399.3,131.6 400.5,137.5 401.7,132.3 402.9,138.1 404.1,133.0 405.3,138.8 406.4,133.7 407.6,139.5 408.8,134.4 410.0,140.2 411.2,135.2 412.4,140.9 413.6,135.9 414.7,141.6 415.9,136.7 417.1,142.3 418.3,137.4 419.5,143.1 420.7,138.2 421.9,143.9 423.1,139.1 424.2,144.7 425.4,139.9 426.6,145.4 427.8,140.7 429.0,146.4 430.2,141.8 431.4,147.3 432.5,142.7 433.7,148.1 434.9,143.5 436.1,149.0 437.3,144.4 438.5,149.9 439.7,145.4 440.9,150.8 442.0,146.2 443.2,151.6 444.4,147.1 445.6,152.5 446.8,148.0 448.0,153.4 449.2,149.0 450.3,154.3 451.5,149.9 452.7,155.2 453.9,150.9 455.1,156.1 456.3,151.8 457.5,157.1 458.7,152.8 459.8,158.0 461.0,153.8 462.2,159.0 463.4,154.8 464.6,160.0 465.8,155.8 467.0,160.9 468.1,156.8 469.3,161.9 470.5,157.8 471.7,162.9 472.9,158.8 474.1,164.0 475.3,159.9 476.5,165.0 477.6,160.9 478.8,166.0 480.0,162.0 481.2,167.0 482.4,163.0 483.6,168.1 484.8,164.1 485.9,169.2 487.1,165.2 488.3,170.2 489.5,166.3 490.7,171.3 491.9,167.4 493.1,172.4 494.3,168.6 495.4,173.5 496.6,169.7 497.8,174.6 499.0,170.8 500.2,175.8 501.4,172.0 502.6,176.9 503.7,173.1 504.9,178.0 506.1,174.3 507.3,179.2 508.5,175.5 509.7,180.3 510.9,176.7 512.1,181.5 513.2,177.9 514.4,182.7 515.6,179.1 516.8,183.9 518.0,180.3 519.2,185.1 520.4,181.5 521.5,186.3 522.7,182.8 523.9,187.5 525.1,184.0 526.3,188.8 527.5,185.3 528.7,190.0 529.9,186.5 531.0,191.2 532.2,187.8 533.4,192.5 534.6,189.1 535.8,193.8 537.0,190.4 538.2,195.0 539.3,191.7 540.5,196.3 541.7,193.0 542.9,197.6 544.1,194.3 545.3,198.9 546.5,195.6 547.7,200.2 548.8,196.9 550.0,201.6 551.2,198.3 552.4,202.9 553.6,199.6 554.8,204.1 556.0,200.7 557.1,205.1 558.3,201.7 559.5,206.2 560.7,203.1 561.9,207.2 563.1,203.2 564.3,207.0 565.5,203.3 566.6,207.6 567.8,204.5 569.0,208.9 570.2,205.5 571.4,209.6 572.6,206.2 573.8,210.5 574.9,207.3 576.1,211.7 577.3,208.6 578.5,212.7 579.7,209.0 580.9,212.8 582.1,209.4 583.3,213.8 584.4,211.0 585.6,214.7 586.8,211.2 588.0,215.4 589.2,212.5 590.4,216.4 591.6,212.8 592.7,216.4 593.9,213.6 595.1,217.8 596.3,214.5 597.5,218.3 598.7,215.1 599.9,219.4 601.1,216.6 602.2,220.3 603.4,217.1 604.6,221.4 605.8,218.6 607.0,222.1 608.2,219.3 609.4,223.2 610.5,219.8 611.7,223.5 612.9,220.8 614.1,224.4 615.3,221.6 616.5,225.4 617.7,222.4 618.9,226.4 620.0,223.5 621.2,227.2 622.4,224.4 623.6,228.0 624.8,225.4 626.0,228.8 627.2,226.3 628.3,229.5 629.5,227.3 630.7,230.2 631.9,228.3 633.1,230.9 634.3,229.4 635.5,231.6 636.7,230.4 637.8,232.3 639.0,231.5 640.2,233.0 641.4,232.5 642.6,233.7 643.8,233.5 645.0,234.5 646.1,234.4 647.3,235.2 648.5,235.4 649.7,236.0 650.9,236.3 652.1,236.9 653.3,237.2 654.5,237.7 655.6,238.1 656.8,238.5 658.0,238.9 659.2,239.4 660.4,239.8 661.6,240.2 662.8,240.7 663.9,241.1 665.1,241.5 666.3,241.9 667.5,242.4 668.7,242.8 669.9,243.2 671.1,243.7 672.3,244.1 673.4,244.5 674.6,244.9 675.8,245.4 677.0,245.8 678.2,246.2 679.4,246.7 680.6,247.1 681.7,247.5 682.9,247.9 684.1,248.4 685.3,248.8 686.5,249.2 687.7,249.6 688.9,249.8 690.1,250.1 691.2,250.4 692.4,250.7 693.6,251.0 694.8,251.2 696.0,251.5 697.2,251.8 698.4,252.1 699.5,252.4 700.7,252.7 701.9,253.0 703.1,253.2 704.3,253.5 705.5,253.8 706.7,254.1 707.9,254.4 709.0,254.6 710.2,254.9 711.4,255.2 712.6,255.4 713.8,255.7 715.0,256.0 716.2,256.2 717.3,256.5 718.5,256.8 719.7,257.0 720.9,257.3 722.1,257.5 723.3,257.8 724.5,258.0 725.7,258.3 726.8,258.5 728.0,258.8 729.2,259.0 730.4,259.3 731.6,259.5 732.8,259.8 734.0,260.0 735.1,260.2 736.3,260.5 737.5,260.7 738.7,260.9 739.9,261.2 741.1,261.4 742.3,261.6 743.5,261.9 744.6,262.1 745.8,262.3 747.0,262.6 748.2,262.8 749.4,263.0 750.6,263.2 751.8,263.4 752.9,263.7 754.1,263.9 755.3,264.1 756.5,264.3 757.7,264.5 758.9,264.7 760.1,265.0 761.3,265.2 762.4,265.4 763.6,265.6 764.8,265.8 766.0,266.0"/>
<line x1="606" y1="60" x2="628" y2="60" stroke="#24a148" stroke-width="2.2"/>
<text x="634" y="64" font-family="Arial" font-size="12">pitch_deg</text>
</svg>