<svg xmlns="http://www.w3.org/2000/svg" width="820" height="320" viewBox="0 0 820 320">
<rect width="100%" height="100%" fill="#ffffff"/>
<text x="54" y="28" font-family="Arial" font-size="18" font-weight="700">Wind Components</text>
<line x1="54" y1="266" x2="766" y2="266" stroke="#1f2933"/>
<line x1="54" y1="54" x2="54" y2="266" stroke="#1f2933"/>
<text x="54" y="306" font-family="Arial" font-size="12">time (s)</text>
<text x="596" y="306" font-family="Arial" font-size="12">wind (m/s)</text>
<text x="58" y="68" font-family="Arial" font-size="11">11</text>
<text x="58" y="260" font-family="Arial" font-size="11">-4.51</text>
<polyline fill="none" stroke="#0f62fe" stroke-width="2.2" points="54.0,228.8 55.2,228.2 56.4,227.6 57.6,227.1 58.7,226.6 59.9,226.2 61.1,225.8 62.3,225.5 63.5,225.2 64.7,225.0 65.9,224.9 67.1,224.8 68.2,224.8 69.4,224.9 70.6,225.0 71.8,225.1 73.0,225.3 74.2,225.6 75.4,225.9 76.5,226.3 77.7,226.8 78.9,227.2 80.1,227.8 81.3,228.4 82.5,229.0 83.7,229.7 84.9,230.4 86.0,231.1 87.2,231.9 88.4,232.7 89.6,233.5 90.8,234.3 92.0,235.2 93.2,236.1 94.3,237.0 95.5,237.9 96.7,238.8 97.9,239.6 99.1,240.5 100.3,241.4 101.5,242.3 102.7,243.1 103.8,243.9 105.0,244.7 106.2,245.5 107.4,246.3 108.6,247.0 109.8,247.6 111.0,248.3 112.1,248.8 113.3,249.4 114.5,249.9 115.7,250.3 116.9,250.7 118.1,251.0 119.3,251.3 120.5,251.5 121.6,251.7 122.8,251.8 124.0,251.8 125.2,251.8 126.4,251.7 127.6,251.6 128.8,251.4 129.9,251.1 131.1,250.8 132.3,250.5 133.5,250.1 134.7,249.6 135.9,249.1 137.1,248.5 138.3,247.9 139.4,247.3 140.6,246.6 141.8,245.8 143.0,245.1 144.2,244.3 145.4,243.5 146.6,242.6 147.7,241.8 148.9,240.9 150.1,240.0 151.3,239.1 152.5,238.2 153.7,237.3 154.9,236.4 156.1,235.5 157.2,234.7 158.4,233.8 159.6,233.0 160.8,232.1 162.0,231.3 163.2,230.6 164.4,229.8 165.5,229.1 166.7,228.5 167.9,227.9 169.1,227.3 170.3,226.8 171.5,226.3 172.7,225.9 173.9,225.5 175.0,225.2 176.2,225.0 177.4,224.8 178.6,224.6 179.8,224.6 181.0,224.5 182.2,224.6 183.3,224.7 184.5,224.8 185.7,225.0 186.9,225.3 188.1,225.7 189.3,226.0 190.5,226.5 191.7,227.0 192.8,227.5 194.0,228.1 195.2,228.7 196.4,229.4 197.6,230.1 198.8,230.9 200.0,231.6 201.1,232.5 202.3,233.3 203.5,234.1 204.7,235.0 205.9,235.9 207.1,236.8 208.3,237.7 209.5,238.6 210.6,239.5 211.8,240.4 213.0,241.3 214.2,242.2 215.4,243.1 216.6,243.9 217.8,244.8 218.9,245.6 220.1,246.3 221.3,247.0 222.5,247.7 223.7,248.4 224.9,249.0 226.1,249.6 227.3,250.1 228.4,250.5 229.6,251.0 230.8,251.3 232.0,251.6 233.2,251.9 234.4,252.1 235.6,252.2 236.7,252.3 237.9,252.3 239.1,252.2 240.3,252.1 241.5,251.9 242.7,251.7 243.9,251.4 245.1,251.1 246.2,250.7 247.4,250.3 248.6,249.8 249.8,249.2 251.0,248.6 252.2,248.0 253.4,247.3 254.5,246.6 255.7,245.9 256.9,245.1 258.1,244.3 259.3,243.5 260.5,242.7 261.7,241.8 262.9,240.9 264.0,240.0 265.2,239.2 266.4,238.3 267.6,237.4 268.8,236.5 270.0,235.6 271.2,234.8 272.3,234.0 273.5,233.1 274.7,232.4 275.9,231.6 277.1,230.9 278.3,230.2 279.5,229.5 280.7,228.9 281.8,228.4 283.0,227.8 284.2,227.4 285.4,227.0 286.6,226.6 287.8,226.3 289.0,226.0 290.1,225.8 291.3,225.7 292.5,225.6 293.7,225.6 294.9,225.7 296.1,225.8 297.3,225.9 298.5,226.1 299.6,226.4 300.8,226.7 302.0,227.1 303.2,227.6 304.4,228.1 305.6,228.6 306.8,229.2 307.9,229.9 309.1,230.5 310.3,231.3 311.5,232.0 312.7,232.8 313.9,233.6 315.1,234.5 316.3,235.3 317.4,236.2 318.6,237.1 319.8,238.1 321.0,239.0 322.2,239.9 323.4,240.8 324.6,241.8 325.7,242.7 326.9,243.6 328.1,244.5 329.3,245.3 330.5,246.2 331.7,247.0 332.9,247.8 334.1,248.5 335.2,249.3 336.4,249.9 337.6,250.6 338.8,251.2 340.0,251.7 341.2,252.2 342.4,252.6 343.5,253.0 344.7,253.4 345.9,253.6 347.1,253.9 348.3,254.0 349.5,254.1 350.7,254.2 351.9,254.2 353.0,254.1 354.2,253.9 355.4,253.7 356.6,253.5 357.8,253.2 359.0,252.8 360.2,252.4 361.3,251.9 362.5,251.4 363.7,250.9 364.9,250.3 366.1,249.6 367.3,248.9 368.5,248.2 369.7,247.5 370.8,246.7 372.0,245.9 373.2,245.0 374.4,244.2 375.6,243.3 376.8,242.5 378.0,241.6 379.1,240.7 380.3,239.8 381.5,239.0 382.7,238.1 383.9,237.2 385.1,236.4 386.3,235.6 387.5,234.8 388.6,234.0 389.8,233.3 391.0,232.6 392.2,232.0 393.4,231.4 394.6,230.8 395.8,230.3 396.9,229.8 398.1,229.4 399.3,229.0 400.5,228.7 401.7,228.4 402.9,228.2 404.1,228.1 405.3,228.0 406.4,228.0 407.6,228.0 408.8,228.1 410.0,228.2 411.2,228.4 412.4,228.7 413.6,229.0 414.7,229.4 415.9,229.8 417.1,230.3 418.3,230.9 419.5,231.4 420.7,232.1 421.9,232.8 423.1,233.5 424.2,234.2 425.4,235.0 426.6,235.8 427.8,236.7 429.0,237.5 430.2,238.4 431.4,239.3 432.5,240.2 433.7,241.2 434.9,242.1 436.1,243.0 437.3,244.0 438.5,244.9 439.7,245.8 440.9,246.7 442.0,247.6 443.2,248.4 444.4,249.3 445.6,250.1 446.8,250.8 448.0,251.5 449.2,252.2 450.3,252.9 451.5,253.5 452.7,254.1 453.9,254.6 455.1,255.0 456.3,255.4 457.5,255.8 458.7,256.1 459.8,256.3 461.0,256.5 462.2,256.6 463.4,256.7 464.6,256.7 465.8,256.6 467.0,256.5 468.1,256.3 469.3,256.1 470.5,255.8 471.7,255.4 472.9,255.1 474.1,254.6 475.3,254.1 476.5,253.6 477.6,253.0 478.8,252.4 480.0,251.7 481.2,251.0 482.4,250.3 483.6,249.5 484.8,248.7 485.9,247.9 487.1,247.1 488.3,246.3 489.5,245.4 490.7,244.5 491.9,243.7 493.1,242.8 494.3,242.0 495.4,241.1 496.6,240.3 497.8,239.5 499.0,238.7 500.2,237.9 501.4,237.2 502.6,236.4 503.7,235.7 504.9,235.1 506.1,234.5 507.3,233.9 508.5,233.4 509.7,232.9 510.9,232.5 512.1,232.2 513.2,231.8 514.4,231.6 515.6,231.4 516.8,231.2 518.0,231.2 519.2,231.1 520.4,231.2 521.5,231.3 522.7,231.4 523.9,231.7 525.1,231.9 526.3,232.3 527.5,232.6 528.7,233.1 529.9,233.6 531.0,234.1 532.2,234.7 533.4,235.4 534.6,236.0 535.8,236.8 537.0,237.5 538.2,238.3 539.3,239.2 540.5,240.0 541.7,240.9 542.9,241.8 544.1,242.7 545.3,243.7 546.5,244.6 547.7,245.6 548.8,246.5 550.0,247.5 551.2,248.4 552.4,249.4 553.6,250.3 554.8,251.2 556.0,252.1 557.1,252.9 558.3,253.8 559.5,254.6 560.7,255.3 561.9,256.1 563.1,256.7 564.3,257.4 565.5,258.0 566.6,258.5 567.8,259.0 569.0,259.5 570.2,259.9 571.4,260.2 572.6,260.5 573.8,260.7 574.9,260.9 576.1,261.0 577.3,261.0 578.5,261.0 579.7,260.9 580.9,260.8 582.1,260.6 583.3,260.3 584.4,260.0 585.6,259.6 586.8,259.2 588.0,258.8 589.2,258.3 590.4,257.7 591.6,257.1 592.7,256.5 593.9,255.8 595.1,255.1 596.3,254.4 597.5,253.6 598.7,252.8 599.9,252.0 601.1,251.2 602.2,250.3 603.4,249.5 604.6,248.6 605.8,247.8 607.0,247.0 608.2,246.1 609.4,245.3 610.5,244.5 611.7,243.7 612.9,242.9 614.1,242.2 615.3,241.5 616.5,240.8 617.7,240.1 618.9,239.5 620.0,239.0 621.2,238.5 622.4,238.0 623.6,237.6 624.8,237.2 626.0,236.9 627.2,236.6 628.3,236.4 629.5,236.3 630.7,236.2 631.9,236.2 633.1,236.2 634.3,236.3 635.5,236.4 636.7,236.6 637.8,236.9 639.0,237.2 640.2,237.6 641.4,238.0 642.6,238.5 643.8,239.1 645.0,239.6 646.1,240.3 647.3,241.0 648.5,241.7 649.7,242.4 650.9,243.2 652.1,244.1 653.3,244.9 654.5,245.8 655.6,246.7 656.8,247.6 658.0,248.5 659.2,249.5 660.4,250.4 661.6,251.4 662.8,252.3 663.9,253.3 665.1,254.2 666.3,255.2 667.5,256.1 668.7,257.0 669.9,257.8 671.1,258.7 672.3,259.5 673.4,260.2 674.6,261.0 675.8,261.7 677.0,262.3 678.2,262.9 679.4,263.5 680.6,264.0 681.7,264.4 682.9,264.8 684.1,265.2 685.3,265.4 686.5,265.7 687.7,265.8 688.9,265.9 690.1,266.0 691.2,266.0 692.4,265.9 693.6,265.8 694.8,265.6 696.0,265.4 697.2,265.1 698.4,264.7 699.5,264.3 700.7,263.9 701.9,263.4 703.1,262.8 704.3,262.2 705.5,261.6 706.7,260.9 707.9,260.2 709.0,259.5 710.2,258.7 711.4,257.9 712.6,257.1 713.8,256.3 715.0,255.5 716.2,254.6 717.3,253.8 718.5,252.9 719.7,252.1 720.9,251.2 722.1,250.4 723.3,249.6 724.5,248.8 725.7,248.0 726.8,247.2 728.0,246.5 729.2,245.8 730.4,245.2 731.6,244.5 732.8,244.0 734.0,243.4 735.1,242.9 736.3,242.5 737.5,242.1 738.7,241.8 739.9,241.5 741.1,241.3 742.3,241.1 743.5,241.0 744.6,241.0 745.8,241.0 747.0,241.1 748.2,241.2 749.4,241.4 750.6,241.6 751.8,241.9 752.9,242.3 754.1,242.7 755.3,243.2 756.5,243.7 757.7,244.3 758.9,244.9 760.1,245.6 761.3,246.3 762.4,247.0 763.6,247.8 764.8,248.6 766.0,249.4"/>
<line x1="606" y1="42" x2="628" y2="42" stroke="#0f62fe" stroke-width="2.2"/>
<text x="634" y="46" font-family="Arial" font-size="12">wind_x_mps</text>
<polyline fill="none" stroke="#24a148" stroke-width="2.2" points="54.0,69.5 55.2,67.0 56.4,64.8 57.6,62.7 58.7,60.9 59.9,59.2 61.1,57.8 62.3,56.6 63.5,55.6 64.7,54.9 65.9,54.3 67.1,54.1 68.2,54.0 69.4,54.2 70.6,54.6 71.8,55.3 73.0,56.2 74.2,57.3 75.4,58.7 76.5,60.2 77.7,62.0 78.9,64.0 80.1,66.2 81.3,68.5 82.5,71.1 83.7,73.8 84.9,76.6 86.0,79.6 87.2,82.7 88.4,86.0 89.6,89.3 90.8,92.7 92.0,96.2 93.2,99.7 94.3,103.3 95.5,106.9 96.7,110.5 97.9,114.1 99.1,117.7 100.3,121.2 101.5,124.7 102.7,128.1 103.8,131.5 105.0,134.7 106.2,137.8 107.4,140.8 108.6,143.6 109.8,146.3 111.0,148.9 112.1,151.2 113.3,153.4 114.5,155.4 115.7,157.2 116.9,158.7 118.1,160.1 119.3,161.2 120.5,162.1 121.6,162.7 122.8,163.2 124.0,163.4 125.2,163.3 126.4,163.0 127.6,162.5 128.8,161.8 129.9,160.8 131.1,159.6 132.3,158.1 133.5,156.5 134.7,154.6 135.9,152.6 137.1,150.3 138.3,147.9 139.4,145.3 140.6,142.5 141.8,139.6 143.0,136.6 144.2,133.4 145.4,130.1 146.6,126.8 147.7,123.3 148.9,119.8 150.1,116.3 151.3,112.7 152.5,109.1 153.7,105.5 154.9,101.9 156.1,98.3 157.2,94.8 158.4,91.4 159.6,88.0 160.8,84.7 162.0,81.5 163.2,78.4 164.4,75.5 165.5,72.7 166.7,70.1 167.9,67.6 169.1,65.3 170.3,63.2 171.5,61.3 172.7,59.6 173.9,58.1 175.0,56.9 176.2,55.8 177.4,55.0 178.6,54.4 179.8,54.1 181.0,54.0 182.2,54.1 183.3,54.5 184.5,55.1 185.7,56.0 186.9,57.0 188.1,58.3 189.3,59.9 190.5,61.6 191.7,63.5 192.8,65.6 194.0,68.0 195.2,70.5 196.4,73.1 197.6,75.9 198.8,78.9 200.0,82.0 201.1,85.2 202.3,88.5 203.5,91.9 204.7,95.4 205.9,98.9 207.1,102.5 208.3,106.1 209.5,109.7 210.6,113.3 211.8,116.8 213.0,120.4 214.2,123.9 215.4,127.3 216.6,130.7 217.8,133.9 218.9,137.1 220.1,140.1 221.3,143.0 222.5,145.7 223.7,148.3 224.9,150.7 226.1,152.9 227.3,154.9 228.4,156.7 229.6,158.4 230.8,159.8 232.0,160.9 233.2,161.9 234.4,162.6 235.6,163.1 236.7,163.3 237.9,163.4 239.1,163.1 240.3,162.7 241.5,162.0 242.7,161.0 243.9,159.9 245.1,158.5 246.2,156.9 247.4,155.1 248.6,153.1 249.8,150.9 251.0,148.5 252.2,145.9 253.4,143.5 254.5,141.1 255.7,139.0 256.9,137.0 258.1,135.2 259.3,133.5 260.5,132.0 261.7,130.7 262.9,129.5 264.0,128.5 265.2,127.7 266.4,127.0 267.6,126.4 268.8,125.9 270.0,125.5 271.2,125.3 272.3,125.1 273.5,125.0 274.7,124.9 275.9,124.9 277.1,124.9 278.3,124.9 279.5,124.9 280.7,124.9 281.8,124.9 283.0,124.9 284.2,124.8 285.4,124.6 286.6,124.4 287.8,124.1 289.0,123.8 290.1,123.4 291.3,122.9 292.5,122.4 293.7,121.8 294.9,121.1 296.1,120.4 297.3,119.6 298.5,118.8 299.6,118.0 300.8,117.1 302.0,116.3 303.2,115.4 304.4,114.6 305.6,113.9 306.8,113.2 307.9,112.5 309.1,112.0 310.3,111.6 311.5,111.3 312.7,111.1 313.9,111.1 315.1,111.3 316.3,111.7 317.4,112.2 318.6,113.0 319.8,114.0 321.0,115.2 322.2,116.6 323.4,118.3 324.6,120.2 325.7,122.4 326.9,124.7 328.1,127.3 329.3,130.1 330.5,133.2 331.7,136.3 332.9,139.4 334.1,142.3 335.2,145.1 336.4,147.7 337.6,150.1 338.8,152.4 340.0,154.5 341.2,156.3 342.4,158.0 343.5,159.5 344.7,160.7 345.9,161.7 347.1,162.5 348.3,163.0 349.5,163.3 350.7,163.4 351.9,163.2 353.0,162.8 354.2,162.1 355.4,161.3 356.6,160.2 357.8,158.8 359.0,157.3 360.2,155.5 361.3,153.6 362.5,151.4 363.7,149.1 364.9,146.5 366.1,143.9 367.3,141.0 368.5,138.0 369.7,134.9 370.8,131.7 372.0,128.4 373.2,125.0 374.4,121.5 375.6,118.0 376.8,114.4 378.0,110.8 379.1,107.2 380.3,103.6 381.5,100.0 382.7,96.5 383.9,93.0 385.1,89.6 386.3,86.2 387.5,83.0 388.6,79.9 389.8,76.9 391.0,74.0 392.2,71.3 393.4,68.7 394.6,66.4 395.8,64.2 396.9,62.2 398.1,60.4 399.3,58.8 400.5,57.4 401.7,56.3 402.9,55.4 404.1,54.7 405.3,54.2 406.4,54.0 407.6,54.0 408.8,54.3 410.0,54.8 411.2,55.5 412.4,56.5 413.6,57.7 414.7,59.1 415.9,60.7 417.1,62.6 418.3,64.6 419.5,66.8 420.7,69.3 421.9,71.8 423.1,74.6 424.2,77.5 425.4,80.5 426.6,83.7 427.8,86.9 429.0,90.3 430.2,93.7 431.4,97.2 432.5,100.8 433.7,104.3 434.9,107.9 436.1,111.5 437.3,115.1 438.5,118.7 439.7,122.2 440.9,125.7 442.0,129.1 443.2,132.4 444.4,135.6 445.6,138.7 446.8,141.6 448.0,144.4 449.2,147.1 450.3,149.6 451.5,151.9 452.7,154.0 453.9,155.9 455.1,157.6 456.3,159.1 457.5,160.4 458.7,161.5 459.8,162.3 461.0,162.9 462.2,163.3 463.4,163.4 464.6,163.3 465.8,162.9 467.0,162.3 468.1,161.5 469.3,160.4 470.5,159.2 471.7,157.7 472.9,156.0 474.1,154.1 475.3,151.9 476.5,149.6 477.6,147.2 478.8,144.5 480.0,141.7 481.2,138.8 482.4,135.7 483.6,132.5 484.8,129.2 485.9,125.8 487.1,122.3 488.3,118.8 489.5,115.3 490.7,111.7 491.9,108.1 493.1,104.5 494.3,100.9 495.4,97.3 496.6,93.8 497.8,90.4 499.0,87.0 500.2,83.8 501.4,80.6 502.6,77.6 503.7,74.7 504.9,71.9 506.1,69.3 507.3,66.9 508.5,64.7 509.7,62.6 510.9,60.8 512.1,59.2 513.2,57.7 514.4,56.5 515.6,55.6 516.8,54.8 518.0,54.3 519.2,54.0 520.4,54.0 521.5,54.2 522.7,54.7 523.9,55.3 525.1,56.3 526.3,57.4 527.5,58.7 528.7,60.3 529.9,62.1 531.0,64.1 532.2,66.3 533.4,68.7 534.6,71.2 535.8,73.9 537.0,76.8 538.2,79.8 539.3,82.9 540.5,86.1 541.7,89.5 542.9,92.9 544.1,96.4 545.3,99.9 546.5,103.5 547.7,107.1 548.8,110.7 550.0,114.3 551.2,117.9 552.4,121.4 553.6,124.9 554.8,128.3 556.0,131.6 557.1,134.8 558.3,137.9 559.5,140.9 560.7,143.8 561.9,146.5 563.1,149.0 564.3,151.3 565.5,153.5 566.6,155.5 567.8,157.2 569.0,158.8 570.2,160.1 571.4,161.2 572.6,162.1 573.8,162.8 574.9,163.2 576.1,163.4 577.3,163.3 578.5,163.0 579.7,162.5 580.9,161.7 582.1,160.7 583.3,159.5 584.4,158.1 585.6,156.4 586.8,154.5 588.0,152.5 589.2,150.2 590.4,147.8 591.6,145.2 592.7,142.4 593.9,139.5 595.1,136.4 596.3,133.3 597.5,130.0 598.7,126.6 599.9,123.2 601.1,119.7 602.2,116.1 603.4,112.5 604.6,108.9 605.8,105.3 607.0,101.7 608.2,98.2 609.4,94.6 610.5,91.2 611.7,87.8 612.9,84.5 614.1,81.3 615.3,78.3 616.5,75.4 617.7,72.6 618.9,69.9 620.0,67.5 621.2,65.2 622.4,63.1 623.6,61.2 624.8,59.5 626.0,58.1 627.2,56.8 628.3,55.8 629.5,55.0 630.7,54.4 631.9,54.1 633.1,54.0 634.3,54.2 635.5,54.5 636.7,55.2 637.8,56.0 639.0,57.1 640.2,58.4 641.4,59.9 642.6,61.7 643.8,63.6 645.0,65.8 646.1,68.1 647.3,70.6 648.5,73.3 649.7,76.1 650.9,79.0 652.1,82.1 653.3,85.3 654.5,88.7 655.6,92.1 656.8,95.5 658.0,99.1 659.2,102.6 660.4,106.2 661.6,109.8 662.8,113.4 663.9,117.0 665.1,120.6 666.3,124.1 667.5,127.5 668.7,130.8 669.9,134.1 671.1,137.2 672.3,140.2 673.4,143.1 674.6,145.8 675.8,148.4 677.0,150.8 678.2,153.0 679.4,155.0 680.6,156.8 681.7,158.4 682.9,159.8 684.1,161.0 685.3,161.9 686.5,162.6 687.7,163.1 688.9,163.3 690.1,163.3 691.2,163.1 692.4,162.6 693.6,161.9 694.8,161.0 696.0,159.8 697.2,158.4 698.4,156.8 699.5,155.0 700.7,153.0 701.9,150.8 703.1,148.4 704.3,145.8 705.5,143.1 706.7,140.2 707.9,137.2 709.0,134.0 710.2,130.8 711.4,127.4 712.6,124.0 713.8,120.5 715.0,117.0 716.2,113.4 717.3,109.8 718.5,106.2 719.7,102.6 720.9,99.0 722.1,95.5 723.3,92.0 724.5,88.6 725.7,85.3 726.8,82.1 728.0,79.0 729.2,76.0 730.4,73.2 731.6,70.5 732.8,68.0 734.0,65.7 735.1,63.6 736.3,61.6 737.5,59.9 738.7,58.4 739.9,57.1 741.1,56.0 742.3,55.1 743.5,54.5 744.6,54.1 745.8,54.0 747.0,54.1 748.2,54.4 749.4,55.0 750.6,55.8 751.8,56.8 752.9,58.1 754.1,59.5 755.3,61.2 756.5,63.1 757.7,65.2 758.9,67.5 760.1,70.0 761.3,72.6 762.4,75.4 763.6,78.3 764.8,81.4 766.0,84.6"/>
<line x1="606" y1="60" x2="628" y2="60" stroke="#24a148" stroke-width="2.2"/>
<text x="634" y="64" font-family="Arial" font-size="12">wind_y_mps</text>
<polyline fill="none" stroke="#da1e28" stroke-width="2.2" points="54.0,199.5 55.2,199.2 56.4,198.9 57.6,198.7 58.7,198.4 59.9,198.2 61.1,198.0 62.3,197.9 63.5,197.8 64.7,197.7 65.9,197.6 67.1,197.6 68.2,197.6 69.4,197.6 70.6,197.6 71.8,197.7 73.0,197.8 74.2,198.0 75.4,198.1 76.5,198.3 77.7,198.6 78.9,198.8 80.1,199.1 81.3,199.4 82.5,199.7 83.7,200.0 84.9,200.4 86.0,200.8 87.2,201.2 88.4,201.6 89.6,202.0 90.8,202.4 92.0,202.8 93.2,203.3 94.3,203.7 95.5,204.2 96.7,204.6 97.9,205.1 99.1,205.5 100.3,206.0 101.5,206.4 102.7,206.8 103.8,207.2 105.0,207.6 106.2,208.0 107.4,208.4 108.6,208.8 109.8,209.1 111.0,209.4 112.1,209.7 113.3,210.0 114.5,210.2 115.7,210.5 116.9,210.6 118.1,210.8 119.3,211.0 120.5,211.1 121.6,211.2 122.8,211.2 124.0,211.2 125.2,211.2 126.4,211.2 127.6,211.1 128.8,211.0 129.9,210.9 131.1,210.8 132.3,210.6 133.5,210.4 134.7,210.1 135.9,209.9 137.1,209.6 138.3,209.3 139.4,209.0 140.6,208.6 141.8,208.3 143.0,207.9 144.2,207.5 145.4,207.1 146.6,206.7 147.7,206.2 148.9,205.8 150.1,205.3 151.3,204.9 152.5,204.4 153.7,204.0 154.9,203.5 156.1,203.1 157.2,202.7 158.4,202.2 159.6,201.8 160.8,201.4 162.0,201.0 163.2,200.6 164.4,200.2 165.5,199.9 166.7,199.6 167.9,199.3 169.1,199.0 170.3,198.7 171.5,198.5 172.7,198.3 173.9,198.1 175.0,197.9 176.2,197.8 177.4,197.7 178.6,197.6 179.8,197.6 181.0,197.6 182.2,197.6 183.3,197.6 184.5,197.7 185.7,197.8 186.9,197.9 188.1,198.1 189.3,198.3 190.5,198.5 191.7,198.7 192.8,199.0 194.0,199.3 195.2,199.6 196.4,200.0 197.6,200.3 198.8,200.7 200.0,201.1 201.1,201.5 202.3,201.9 203.5,202.3 204.7,202.7 205.9,203.2 207.1,203.6 208.3,204.1 209.5,204.5 210.6,205.0 211.8,205.4 213.0,205.9 214.2,206.3 215.4,206.7 216.6,207.1 217.8,207.6 218.9,207.9 220.1,208.3 221.3,208.7 222.5,209.0 223.7,209.3 224.9,209.6 226.1,209.9 227.3,210.2 228.4,210.4 229.6,210.6 230.8,210.8 232.0,210.9 233.2,211.0 234.4,211.1 235.6,211.2 236.7,211.2 237.9,211.2 239.1,211.2 240.3,211.1 241.5,211.1 242.7,210.9 243.9,210.8 245.1,210.6 246.2,210.4 247.4,210.2 248.6,209.9 249.8,209.7 251.0,209.4 252.2,209.0 253.4,208.7 254.5,208.2 255.7,207.6 256.9,207.0 258.1,206.3 259.3,205.6 260.5,204.8 261.7,203.9 262.9,203.0 264.0,202.0 265.2,201.0 266.4,200.0 267.6,198.9 268.8,197.9 270.0,196.8 271.2,195.7 272.3,194.6 273.5,193.6 274.7,192.6 275.9,191.6 277.1,190.6 278.3,189.7 279.5,188.8 280.7,188.0 281.8,187.2 283.0,186.5 284.2,185.9 285.4,185.4 286.6,184.9 287.8,184.6 289.0,184.3 290.1,184.1 291.3,184.0 292.5,183.9 293.7,184.0 294.9,184.2 296.1,184.4 297.3,184.8 298.5,185.2 299.6,185.7 300.8,186.2 302.0,186.9 303.2,187.6 304.4,188.4 305.6,189.2 306.8,190.1 307.9,191.0 309.1,192.0 310.3,193.0 311.5,194.0 312.7,195.0 313.9,196.0 315.1,197.0 316.3,198.1 317.4,199.1 318.6,200.1 319.8,201.0 321.0,202.0 322.2,202.8 323.4,203.7 324.6,204.5 325.7,205.2 326.9,205.9 328.1,206.5 329.3,207.0 330.5,207.5 331.7,207.9 332.9,208.2 334.1,208.6 335.2,208.9 336.4,209.3 337.6,209.6 338.8,209.9 340.0,210.1 341.2,210.4 342.4,210.6 343.5,210.7 344.7,210.9 345.9,211.0 347.1,211.1 348.3,211.2 349.5,211.2 350.7,211.2 351.9,211.2 353.0,211.2 354.2,211.1 355.4,211.0 356.6,210.8 357.8,210.7 359.0,210.5 360.2,210.3 361.3,210.0 362.5,209.7 363.7,209.4 364.9,209.1 366.1,208.8 367.3,208.4 368.5,208.1 369.7,207.7 370.8,207.3 372.0,206.9 373.2,206.4 374.4,206.0 375.6,205.6 376.8,205.1 378.0,204.7 379.1,204.2 380.3,203.8 381.5,203.3 382.7,202.9 383.9,202.4 385.1,202.0 386.3,201.6 387.5,201.2 388.6,200.8 389.8,200.4 391.0,200.1 392.2,199.7 393.4,199.4 394.6,199.1 395.8,198.8 396.9,198.6 398.1,198.4 399.3,198.2 400.5,198.0 401.7,197.8 402.9,197.7 404.1,197.6 405.3,197.6 406.4,197.6 407.6,197.6 408.8,197.6 410.0,197.7 411.2,197.8 412.4,197.9 413.6,198.0 414.7,198.2 415.9,198.4 417.1,198.6 418.3,198.9 419.5,199.2 420.7,199.5 421.9,199.8 423.1,200.1 424.2,200.5 425.4,200.9 426.6,201.3 427.8,201.7 429.0,202.1 430.2,202.5 431.4,203.0 432.5,203.4 433.7,203.9 434.9,204.3 436.1,204.8 437.3,205.2 438.5,205.6 439.7,206.1 440.9,206.5 442.0,206.9 443.2,207.4 444.4,207.8 445.6,208.1 446.8,208.5 448.0,208.9 449.2,209.2 450.3,209.5 451.5,209.8 452.7,210.1 453.9,210.3 455.1,210.5 456.3,210.7 457.5,210.9 458.7,211.0 459.8,211.1 461.0,211.2 462.2,211.2 463.4,211.2 464.6,211.2 465.8,211.2 467.0,211.1 468.1,211.0 469.3,210.9 470.5,210.7 471.7,210.5 472.9,210.3 474.1,210.1 475.3,209.8 476.5,209.5 477.6,209.2 478.8,208.9 480.0,208.5 481.2,208.2 482.4,207.8 483.6,207.4 484.8,207.0 485.9,206.5 487.1,206.1 488.3,205.7 489.5,205.2 490.7,204.8 491.9,204.3 493.1,203.9 494.3,203.4 495.4,203.0 496.6,202.5 497.8,202.1 499.0,201.7 500.2,201.3 501.4,200.9 502.6,200.5 503.7,200.1 504.9,199.8 506.1,199.5 507.3,199.2 508.5,198.9 509.7,198.6 510.9,198.4 512.1,198.2 513.2,198.0 514.4,197.9 515.6,197.8 516.8,197.7 518.0,197.6 519.2,197.6 520.4,197.6 521.5,197.6 522.7,197.6 523.9,197.7 525.1,197.8 526.3,198.0 527.5,198.2 528.7,198.4 529.9,198.6 531.0,198.8 532.2,199.1 533.4,199.4 534.6,199.7 535.8,200.0 537.0,200.4 538.2,200.8 539.3,201.2 540.5,201.6 541.7,202.0 542.9,202.4 544.1,202.9 545.3,203.3 546.5,203.7 547.7,204.2 548.8,204.6 550.0,205.1 551.2,205.5 552.4,206.0 553.6,206.4 554.8,206.8 556.0,207.3 557.1,207.7 558.3,208.1 559.5,208.4 560.7,208.8 561.9,209.1 563.1,209.4 564.3,209.7 565.5,210.0 566.6,210.2 567.8,210.5 569.0,210.7 570.2,210.8 571.4,211.0 572.6,211.1 573.8,211.2 574.9,211.2 576.1,211.2 577.3,211.2 578.5,211.2 579.7,211.1 580.9,211.0 582.1,210.9 583.3,210.7 584.4,210.6 585.6,210.4 586.8,210.1 588.0,209.9 589.2,209.6 590.4,209.3 591.6,209.0 592.7,208.6 593.9,208.2 595.1,207.9 596.3,207.5 597.5,207.1 598.7,206.6 599.9,206.2 601.1,205.8 602.2,205.3 603.4,204.9 604.6,204.4 605.8,204.0 607.0,203.5 608.2,203.1 609.4,202.6 610.5,202.2 611.7,201.8 612.9,201.4 614.1,201.0 615.3,200.6 616.5,200.2 617.7,199.9 618.9,199.6 620.0,199.2 621.2,199.0 622.4,198.7 623.6,198.5 624.8,198.3 626.0,198.1 627.2,197.9 628.3,197.8 629.5,197.7 630.7,197.6 631.9,197.6 633.1,197.6 634.3,197.6 635.5,197.6 636.7,197.7 637.8,197.8 639.0,197.9 640.2,198.1 641.4,198.3 642.6,198.5 643.8,198.8 645.0,199.0 646.1,199.3 647.3,199.6 648.5,200.0 649.7,200.3 650.9,200.7 652.1,201.1 653.3,201.5 654.5,201.9 655.6,202.3 656.8,202.8 658.0,203.2 659.2,203.6 660.4,204.1 661.6,204.5 662.8,205.0 663.9,205.4 665.1,205.9 666.3,206.3 667.5,206.7 668.7,207.2 669.9,207.6 671.1,208.0 672.3,208.3 673.4,208.7 674.6,209.0 675.8,209.4 677.0,209.7 678.2,209.9 679.4,210.2 680.6,210.4 681.7,210.6 682.9,210.8 684.1,210.9 685.3,211.1 686.5,211.1 687.7,211.2 688.9,211.2 690.1,211.2 691.2,211.2 692.4,211.1 693.6,211.1 694.8,210.9 696.0,210.8 697.2,210.6 698.4,210.4 699.5,210.2 700.7,209.9 701.9,209.7 703.1,209.4 704.3,209.0 705.5,208.7 706.7,208.3 707.9,208.0 709.0,207.6 710.2,207.2 711.4,206.7 712.6,206.3 713.8,205.9 715.0,205.4 716.2,205.0 717.3,204.5 718.5,204.1 719.7,203.6 720.9,203.2 722.1,202.7 723.3,202.3 724.5,201.9 725.7,201.5 726.8,201.1 728.0,200.7 729.2,200.3 730.4,200.0 731.6,199.6 732.8,199.3 734.0,199.0 735.1,198.8 736.3,198.5 737.5,198.3 738.7,198.1 739.9,197.9 741.1,197.8 742.3,197.7 743.5,197.6 744.6,197.6 745.8,197.6 747.0,197.6 748.2,197.6 749.4,197.7 750.6,197.8 751.8,197.9 752.9,198.1 754.1,198.3 755.3,198.5 756.5,198.7 757.7,199.0 758.9,199.2 760.1,199.6 761.3,199.9 762.4,200.2 763.6,200.6 764.8,201.0 766.0,201.4"/>
<line x1="606" y1="78" x2="628" y2="78" stroke="#da1e28" stroke-width="2.2"/>
<text x="634" y="82" font-family="Arial" font-size="12">wind_z_mps</text>
</svg>