<svg xmlns="http://www.w3.org/2000/svg" width="820" height="320" viewBox="0 0 820 320">
<rect width="100%" height="100%" fill="#ffffff"/>
<text x="54" y="28" font-family="Arial" font-size="18" font-weight="700">Altitude Position</text>
<line x1="54" y1="266" x2="766" y2="266" stroke="#1f2933"/>
<line x1="54" y1="54" x2="54" y2="266" stroke="#1f2933"/>
<text x="54" y="306" font-family="Arial" font-size="12">time (s)</text>
<text x="596" y="306" font-family="Arial" font-size="12">z (m)</text>
<text x="58" y="68" font-family="Arial" font-size="11">1.47e+03</text>
<text x="58" y="260" font-family="Arial" font-size="11">20</text>
<polyline fill="none" stroke="#0f62fe" stroke-width="2.2" points="54.0,266.0 55.2,266.0 56.4,265.9 57.6,265.9 58.7,265.9 59.9,265.8 61.1,265.8 62.3,265.8 63.5,265.8 64.7,265.7 65.9,265.7 67.1,265.7 68.2,265.6 69.4,265.6 70.6,265.6 71.8,265.6 73.0,265.5 74.2,265.5 75.4,265.5 76.5,265.5 77.7,265.5 78.9,265.4 80.1,265.4 81.3,265.4 82.5,265.4 83.7,265.4 84.9,265.3 86.0,265.3 87.2,265.3 88.4,265.3 89.6,265.3 90.8,265.2 92.0,265.2 93.2,265.2 94.3,265.2 95.5,265.2 96.7,265.2 97.9,265.1 99.1,265.1 100.3,265.1 101.5,265.1 102.7,265.1 103.8,265.1 105.0,265.1 106.2,265.0 107.4,265.0 108.6,265.0 109.8,265.0 111.0,265.0 112.1,265.0 113.3,265.0 114.5,265.0 115.7,264.9 116.9,264.9 118.1,264.9 119.3,264.9 120.5,264.9 121.6,264.9 122.8,264.9 124.0,264.9 125.2,264.9 126.4,264.8 127.6,264.8 128.8,264.8 129.9,264.8 131.1,264.8 132.3,264.8 133.5,264.8 134.7,264.8 135.9,264.8 137.1,264.8 138.3,264.7 139.4,264.7 140.6,264.7 141.8,264.7 143.0,264.7 144.2,264.7 145.4,264.7 146.6,264.7 147.7,264.7 148.9,264.7 150.1,264.6 151.3,264.6 152.5,264.6 153.7,264.6 154.9,264.6 156.1,264.6 157.2,264.6 158.4,264.6 159.6,264.6 160.8,264.6 162.0,264.6 163.2,264.5 164.4,264.5 165.5,264.5 166.7,264.5 167.9,264.5 169.1,264.5 170.3,264.5 171.5,264.5 172.7,264.5 173.9,264.4 175.0,264.4 176.2,264.4 177.4,264.4 178.6,264.4 179.8,264.4 181.0,264.4 182.2,264.4 183.3,264.3 184.5,264.3 185.7,264.3 186.9,264.3 188.1,264.3 189.3,264.3 190.5,264.2 191.7,264.2 192.8,264.2 194.0,264.2 195.2,264.2 196.4,264.2 197.6,264.1 198.8,264.1 200.0,264.1 201.1,264.1 202.3,264.1 203.5,264.0 204.7,264.0 205.9,264.0 207.1,264.0 208.3,264.0 209.5,263.9 210.6,263.9 211.8,263.9 213.0,263.9 214.2,263.8 215.4,263.8 216.6,263.8 217.8,263.8 218.9,263.7 220.1,263.7 221.3,263.7 222.5,263.6 223.7,263.6 224.9,263.6 226.1,263.6 227.3,263.5 228.4,263.5 229.6,263.5 230.8,263.4 232.0,263.4 233.2,263.4 234.4,263.3 235.6,263.3 236.7,263.2 237.9,263.2 239.1,263.2 240.3,263.1 241.5,263.1 242.7,263.1 243.9,263.0 245.1,263.0 246.2,262.9 247.4,262.9 248.6,262.8 249.8,262.8 251.0,262.7 252.2,262.7 253.4,262.7 254.5,262.6 255.7,262.6 256.9,262.5 258.1,262.5 259.3,262.4 260.5,262.3 261.7,262.3 262.9,262.2 264.0,262.2 265.2,262.1 266.4,262.1 267.6,262.0 268.8,261.9 270.0,261.9 271.2,261.8 272.3,261.8 273.5,261.7 274.7,261.6 275.9,261.6 277.1,261.5 278.3,261.4 279.5,261.4 280.7,261.3 281.8,261.2 283.0,261.1 284.2,261.1 285.4,261.0 286.6,260.9 287.8,260.8 289.0,260.8 290.1,260.7 291.3,260.6 292.5,260.5 293.7,260.4 294.9,260.4 296.1,260.3 297.3,260.2 298.5,260.1 299.6,260.0 300.8,259.9 302.0,259.8 303.2,259.7 304.4,259.6 305.6,259.5 306.8,259.4 307.9,259.2 309.1,259.1 310.3,259.0 311.5,258.9 312.7,258.8 313.9,258.6 315.1,258.5 316.3,258.4 317.4,258.2 318.6,258.1 319.8,258.0 321.0,257.8 322.2,257.7 323.4,257.5 324.6,257.4 325.7,257.2 326.9,257.1 328.1,256.9 329.3,256.7 330.5,256.6 331.7,256.4 332.9,256.2 334.1,256.0 335.2,255.9 336.4,255.7 337.6,255.5 338.8,255.3 340.0,255.1 341.2,254.9 342.4,254.7 343.5,254.5 344.7,254.3 345.9,254.1 347.1,253.9 348.3,253.7 349.5,253.5 350.7,253.3 351.9,253.1 353.0,252.9 354.2,252.6 355.4,252.4 356.6,252.2 357.8,251.9 359.0,251.7 360.2,251.5 361.3,251.2 362.5,251.0 363.7,250.7 364.9,250.5 366.1,250.2 367.3,250.0 368.5,249.7 369.7,249.4 370.8,249.2 372.0,248.9 373.2,248.6 374.4,248.4 375.6,248.1 376.8,247.8 378.0,247.5 379.1,247.2 380.3,246.9 381.5,246.6 382.7,246.3 383.9,246.0 385.1,245.7 386.3,245.4 387.5,245.1 388.6,244.8 389.8,244.5 391.0,244.1 392.2,243.8 393.4,243.5 394.6,243.2 395.8,242.8 396.9,242.5 398.1,242.2 399.3,241.8 400.5,241.5 401.7,241.1 402.9,240.8 404.1,240.4 405.3,240.0 406.4,239.7 407.6,239.3 408.8,238.9 410.0,238.6 411.2,238.2 412.4,237.8 413.6,237.4 414.7,237.1 415.9,236.7 417.1,236.3 418.3,235.9 419.5,235.5 420.7,235.1 421.9,234.7 423.1,234.3 424.2,233.9 425.4,233.5 426.6,233.0 427.8,232.6 429.0,232.2 430.2,231.8 431.4,231.3 432.5,230.9 433.7,230.5 434.9,230.0 436.1,229.6 437.3,229.1 438.5,228.7 439.7,228.2 440.9,227.8 442.0,227.3 443.2,226.9 444.4,226.4 445.6,225.9 446.8,225.5 448.0,225.0 449.2,224.5 450.3,224.0 451.5,223.6 452.7,223.1 453.9,222.6 455.1,222.1 456.3,221.6 457.5,221.1 458.7,220.6 459.8,220.1 461.0,219.6 462.2,219.1 463.4,218.6 464.6,218.0 465.8,217.5 467.0,217.0 468.1,216.5 469.3,216.0 470.5,215.4 471.7,214.9 472.9,214.3 474.1,213.8 475.3,213.3 476.5,212.7 477.6,212.2 478.8,211.6 480.0,211.1 481.2,210.5 482.4,209.9 483.6,209.4 484.8,208.8 485.9,208.2 487.1,207.7 488.3,207.1 489.5,206.5 490.7,205.9 491.9,205.3 493.1,204.8 494.3,204.2 495.4,203.6 496.6,203.0 497.8,202.4 499.0,201.8 500.2,201.2 501.4,200.6 502.6,200.0 503.7,199.3 504.9,198.7 506.1,198.1 507.3,197.5 508.5,196.9 509.7,196.2 510.9,195.6 512.1,195.0 513.2,194.3 514.4,193.7 515.6,193.1 516.8,192.4 518.0,191.8 519.2,191.1 520.4,190.5 521.5,189.8 522.7,189.2 523.9,188.5 525.1,187.8 526.3,187.2 527.5,186.5 528.7,185.8 529.9,185.2 531.0,184.5 532.2,183.8 533.4,183.1 534.6,182.5 535.8,181.8 537.0,181.1 538.2,180.4 539.3,179.7 540.5,179.0 541.7,178.3 542.9,177.6 544.1,176.9 545.3,176.2 546.5,175.5 547.7,174.8 548.8,174.1 550.0,173.4 551.2,172.6 552.4,171.9 553.6,171.2 554.8,170.5 556.0,169.8 557.1,169.0 558.3,168.3 559.5,167.6 560.7,166.8 561.9,166.1 563.1,165.4 564.3,164.6 565.5,163.9 566.6,163.1 567.8,162.4 569.0,161.6 570.2,160.9 571.4,160.1 572.6,159.4 573.8,158.6 574.9,157.9 576.1,157.2 577.3,156.4 578.5,155.7 579.7,154.9 580.9,154.2 582.1,153.4 583.3,152.7 584.4,151.9 585.6,151.2 586.8,150.5 588.0,149.7 589.2,149.0 590.4,148.3 591.6,147.5 592.7,146.8 593.9,146.0 595.1,145.3 596.3,144.6 597.5,143.9 598.7,143.1 599.9,142.4 601.1,141.7 602.2,140.9 603.4,140.2 604.6,139.5 605.8,138.8 607.0,138.0 608.2,137.3 609.4,136.6 610.5,135.9 611.7,135.2 612.9,134.4 614.1,133.7 615.3,133.0 616.5,132.3 617.7,131.6 618.9,130.9 620.0,130.1 621.2,129.4 622.4,128.7 623.6,128.0 624.8,127.3 626.0,126.6 627.2,125.9 628.3,125.2 629.5,124.5 630.7,123.8 631.9,123.1 633.1,122.4 634.3,121.7 635.5,121.0 636.7,120.3 637.8,119.6 639.0,118.9 640.2,118.3 641.4,117.6 642.6,116.9 643.8,116.2 645.0,115.5 646.1,114.8 647.3,114.1 648.5,113.5 649.7,112.8 650.9,112.1 652.1,111.4 653.3,110.8 654.5,110.1 655.6,109.4 656.8,108.8 658.0,108.1 659.2,107.4 660.4,106.8 661.6,106.1 662.8,105.4 663.9,104.8 665.1,104.1 666.3,103.5 667.5,102.8 668.7,102.1 669.9,101.5 671.1,100.8 672.3,100.2 673.4,99.5 674.6,98.9 675.8,98.3 677.0,97.6 678.2,97.0 679.4,96.3 680.6,95.7 681.7,95.1 682.9,94.4 684.1,93.8 685.3,93.1 686.5,92.5 687.7,91.9 688.9,91.3 690.1,90.6 691.2,90.0 692.4,89.4 693.6,88.8 694.8,88.1 696.0,87.5 697.2,86.9 698.4,86.3 699.5,85.7 700.7,85.1 701.9,84.5 703.1,83.9 704.3,83.3 705.5,82.6 706.7,82.0 707.9,81.4 709.0,80.8 710.2,80.2 711.4,79.6 712.6,79.1 713.8,78.5 715.0,77.9 716.2,77.3 717.3,76.7 718.5,76.1 719.7,75.5 720.9,74.9 722.1,74.3 723.3,73.8 724.5,73.2 725.7,72.6 726.8,72.0 728.0,71.5 729.2,70.9 730.4,70.3 731.6,69.8 732.8,69.2 734.0,68.6 735.1,68.1 736.3,67.5 737.5,66.9 738.7,66.4 739.9,65.8 741.1,65.3 742.3,64.7 743.5,64.2 744.6,63.6 745.8,63.1 747.0,62.5 748.2,62.0 749.4,61.4 750.6,60.9 751.8,60.3 752.9,59.8 754.1,59.3 755.3,58.7 756.5,58.2 757.7,57.7 758.9,57.1 760.1,56.6 761.3,56.1 762.4,55.6 763.6,55.0 764.8,54.5 766.0,54.0"/>
<line x1="606" y1="42" x2="628" y2="42" stroke="#0f62fe" stroke-width="2.2"/>
<text x="634" y="46" font-family="Arial" font-size="12">altitude_m</text>
</svg>