<svg xmlns="http://www.w3.org/2000/svg" width="820" height="320" viewBox="0 0 820 320">
<rect width="100%" height="100%" fill="#ffffff"/>
<text x="54" y="28" font-family="Arial" font-size="18" font-weight="700">Speed</text>
<line x1="54" y1="266" x2="766" y2="266" stroke="#1f2933"/>
<line x1="54" y1="54" x2="54" y2="266" stroke="#1f2933"/>
<text x="54" y="306" font-family="Arial" font-size="12">time (s)</text>
<text x="596" y="306" font-family="Arial" font-size="12">speed (m/s)</text>
<text x="58" y="68" font-family="Arial" font-size="11">214</text>
<text x="58" y="260" font-family="Arial" font-size="11">85.4</text>
<polyline fill="none" stroke="#0f62fe" stroke-width="2.2" points="54.0,266.0 55.2,265.2 56.4,264.4 57.6,263.6 58.7,262.7 59.9,261.9 61.1,261.0 62.3,260.1 63.5,259.2 64.7,258.3 65.9,257.4 67.1,256.4 68.2,255.5 69.4,254.5 70.6,253.5 71.8,252.5 73.0,251.5 74.2,250.6 75.4,249.6 76.5,248.6 77.7,247.6 78.9,246.6 80.1,245.6 81.3,244.7 82.5,243.7 83.7,242.7 84.9,241.7 86.0,240.8 87.2,239.8 88.4,238.8 89.6,237.9 90.8,236.9 92.0,235.9 93.2,234.9 94.3,234.0 95.5,233.0 96.7,232.1 97.9,231.1 99.1,230.1 100.3,229.2 101.5,228.2 102.7,227.3 103.8,226.3 105.0,225.3 106.2,224.4 107.4,223.4 108.6,222.5 109.8,221.5 111.0,220.6 112.1,219.6 113.3,218.7 114.5,217.7 115.7,216.8 116.9,215.9 118.1,214.9 119.3,214.0 120.5,213.0 121.6,212.1 122.8,211.2 124.0,210.2 125.2,209.3 126.4,208.4 127.6,207.4 128.8,206.5 129.9,205.6 131.1,204.6 132.3,203.7 133.5,202.8 134.7,201.9 135.9,200.9 137.1,200.0 138.3,199.1 139.4,198.2 140.6,197.3 141.8,196.3 143.0,195.4 144.2,194.5 145.4,193.6 146.6,192.7 147.7,191.8 148.9,190.9 150.1,190.0 151.3,189.1 152.5,188.2 153.7,187.3 154.9,186.4 156.1,185.5 157.2,184.6 158.4,183.7 159.6,182.8 160.8,181.9 162.0,181.0 163.2,180.1 164.4,179.2 165.5,178.4 166.7,177.5 167.9,176.6 169.1,175.7 170.3,174.8 171.5,174.0 172.7,173.1 173.9,172.2 175.0,171.4 176.2,170.5 177.4,169.6 178.6,168.8 179.8,167.9 181.0,167.1 182.2,166.2 183.3,165.4 184.5,164.5 185.7,163.7 186.9,162.8 188.1,162.0 189.3,161.1 190.5,160.3 191.7,159.4 192.8,158.6 194.0,157.8 195.2,156.9 196.4,156.1 197.6,155.3 198.8,154.4 200.0,153.6 201.1,152.8 202.3,152.0 203.5,151.2 204.7,150.3 205.9,149.5 207.1,148.7 208.3,147.9 209.5,147.1 210.6,146.3 211.8,145.5 213.0,144.7 214.2,143.8 215.4,143.0 216.6,142.2 217.8,141.4 218.9,140.6 220.1,139.8 221.3,139.0 222.5,138.3 223.7,137.5 224.9,136.7 226.1,135.9 227.3,135.1 228.4,134.3 229.6,133.6 230.8,132.8 232.0,132.0 233.2,131.2 234.4,130.5 235.6,129.7 236.7,128.9 237.9,128.2 239.1,127.4 240.3,126.6 241.5,125.9 242.7,125.1 243.9,124.4 245.1,123.6 246.2,122.9 247.4,122.1 248.6,121.4 249.8,120.7 251.0,119.9 252.2,119.2 253.4,118.5 254.5,117.7 255.7,117.0 256.9,116.3 258.1,115.6 259.3,114.8 260.5,114.1 261.7,113.4 262.9,112.7 264.0,112.0 265.2,111.3 266.4,110.5 267.6,109.9 268.8,109.1 270.0,108.5 271.2,107.7 272.3,107.1 273.5,106.4 274.7,105.7 275.9,105.0 277.1,104.3 278.3,103.6 279.5,102.9 280.7,102.2 281.8,101.6 283.0,100.9 284.2,100.2 285.4,99.6 286.6,98.9 287.8,98.2 289.0,97.6 290.1,96.9 291.3,96.2 292.5,95.5 293.7,94.9 294.9,94.3 296.1,93.9 297.3,93.5 298.5,93.1 299.6,92.7 300.8,92.2 302.0,91.7 303.2,91.1 304.4,90.7 305.6,90.2 306.8,89.8 307.9,89.4 309.1,88.9 310.3,88.5 311.5,88.0 312.7,87.5 313.9,87.1 315.1,86.7 316.3,86.3 317.4,85.8 318.6,85.4 319.8,85.0 321.0,84.5 322.2,84.1 323.4,83.7 324.6,83.3 325.7,82.9 326.9,82.5 328.1,82.1 329.3,81.7 330.5,81.3 331.7,80.9 332.9,80.5 334.1,80.1 335.2,79.7 336.4,79.4 337.6,79.0 338.8,78.6 340.0,78.2 341.2,77.9 342.4,77.5 343.5,77.1 344.7,76.8 345.9,76.4 347.1,76.1 348.3,75.7 349.5,75.4 350.7,75.0 351.9,74.7 353.0,74.3 354.2,74.0 355.4,73.7 356.6,73.3 357.8,73.0 359.0,72.7 360.2,72.3 361.3,72.0 362.5,71.7 363.7,71.4 364.9,71.1 366.1,70.8 367.3,70.5 368.5,70.2 369.7,69.9 370.8,69.6 372.0,69.3 373.2,69.0 374.4,68.7 375.6,68.4 376.8,68.1 378.0,67.8 379.1,67.6 380.3,67.3 381.5,67.0 382.7,66.8 383.9,66.5 385.1,66.2 386.3,66.0 387.5,65.7 388.6,65.5 389.8,65.2 391.0,65.0 392.2,64.7 393.4,64.5 394.6,64.3 395.8,64.0 396.9,63.8 398.1,63.6 399.3,63.4 400.5,63.2 401.7,62.9 402.9,62.7 404.1,62.5 405.3,62.3 406.4,62.1 407.6,61.9 408.8,61.7 410.0,61.5 411.2,61.3 412.4,61.1 413.6,61.0 414.7,60.8 415.9,60.6 417.1,60.4 418.3,60.2 419.5,60.1 420.7,59.9 421.9,59.7 423.1,59.6 424.2,59.4 425.4,59.3 426.6,59.1 427.8,58.9 429.0,58.8 430.2,58.7 431.4,58.5 432.5,58.4 433.7,58.2 434.9,58.1 436.1,58.0 437.3,57.8 438.5,57.7 439.7,57.6 440.9,57.4 442.0,57.3 443.2,57.2 444.4,57.1 445.6,57.0 446.8,56.9 448.0,56.8 449.2,56.6 450.3,56.5 451.5,56.4 452.7,56.3 453.9,56.2 455.1,56.1 456.3,56.1 457.5,56.0 458.7,55.9 459.8,55.8 461.0,55.7 462.2,55.6 463.4,55.5 464.6,55.5 465.8,55.4 467.0,55.3 468.1,55.3 469.3,55.2 470.5,55.1 471.7,55.1 472.9,55.0 474.1,54.9 475.3,54.9 476.5,54.8 477.6,54.8 478.8,54.7 480.0,54.7 481.2,54.6 482.4,54.6 483.6,54.5 484.8,54.5 485.9,54.4 487.1,54.4 488.3,54.4 489.5,54.3 490.7,54.3 491.9,54.3 493.1,54.2 494.3,54.2 495.4,54.2 496.6,54.2 497.8,54.1 499.0,54.1 500.2,54.1 501.4,54.1 502.6,54.1 503.7,54.0 504.9,54.0 506.1,54.0 507.3,54.0 508.5,54.0 509.7,54.0 510.9,54.0 512.1,54.0 513.2,54.0 514.4,54.0 515.6,54.0 516.8,54.0 518.0,54.0 519.2,54.0 520.4,54.0 521.5,54.0 522.7,54.1 523.9,54.1 525.1,54.1 526.3,54.1 527.5,54.1 528.7,54.1 529.9,54.2 531.0,54.2 532.2,54.2 533.4,54.2 534.6,54.2 535.8,54.3 537.0,54.3 538.2,54.3 539.3,54.4 540.5,54.4 541.7,54.4 542.9,54.5 544.1,54.5 545.3,54.5 546.5,54.6 547.7,54.6 548.8,54.7 550.0,54.7 551.2,54.7 552.4,54.8 553.6,54.8 554.8,54.9 556.0,54.9 557.1,55.0 558.3,55.0 559.5,55.1 560.7,55.1 561.9,55.2 563.1,55.2 564.3,55.3 565.5,55.3 566.6,55.4 567.8,55.5 569.0,55.5 570.2,56.7 571.4,58.0 572.6,59.2 573.8,60.4 574.9,61.6 576.1,62.8 577.3,63.9 578.5,65.1 579.7,66.3 580.9,67.5 582.1,68.6 583.3,69.8 584.4,70.9 585.6,72.1 586.8,73.2 588.0,74.3 589.2,75.5 590.4,76.6 591.6,77.7 592.7,78.8 593.9,79.9 595.1,81.1 596.3,82.2 597.5,83.3 598.7,84.4 599.9,85.4 601.1,86.5 602.2,87.6 603.4,88.7 604.6,89.8 605.8,90.8 607.0,91.9 608.2,93.0 609.4,94.0 610.5,95.1 611.7,96.1 612.9,97.2 614.1,98.2 615.3,99.3 616.5,100.3 617.7,101.3 618.9,102.4 620.0,103.4 621.2,104.4 622.4,105.4 623.6,106.4 624.8,107.5 626.0,108.5 627.2,109.5 628.3,110.5 629.5,111.5 630.7,112.5 631.9,113.5 633.1,114.4 634.3,115.4 635.5,116.4 636.7,117.4 637.8,118.4 639.0,119.3 640.2,120.3 641.4,121.3 642.6,122.2 643.8,123.2 645.0,124.1 646.1,125.1 647.3,126.0 648.5,127.0 649.7,127.9 650.9,128.9 652.1,129.8 653.3,130.7 654.5,131.6 655.6,132.6 656.8,133.5 658.0,134.4 659.2,135.3 660.4,136.3 661.6,137.2 662.8,138.1 663.9,139.0 665.1,139.9 666.3,140.8 667.5,141.7 668.7,142.6 669.9,143.5 671.1,144.4 672.3,145.2 673.4,146.1 674.6,147.0 675.8,147.9 677.0,148.8 678.2,149.6 679.4,150.5 680.6,151.4 681.7,152.3 682.9,153.1 684.1,154.0 685.3,154.8 686.5,155.7 687.7,156.5 688.9,157.4 690.1,158.2 691.2,159.1 692.4,159.9 693.6,160.8 694.8,161.6 696.0,162.5 697.2,163.3 698.4,164.1 699.5,164.9 700.7,165.8 701.9,166.6 703.1,167.4 704.3,168.2 705.5,169.1 706.7,169.9 707.9,170.7 709.0,171.5 710.2,172.3 711.4,173.1 712.6,173.9 713.8,174.7 715.0,175.5 716.2,176.3 717.3,177.1 718.5,177.9 719.7,178.7 720.9,179.5 722.1,180.3 723.3,181.1 724.5,181.9 725.7,182.6 726.8,183.4 728.0,184.2 729.2,185.0 730.4,185.7 731.6,186.5 732.8,187.3 734.0,188.0 735.1,188.8 736.3,189.6 737.5,190.3 738.7,191.1 739.9,191.9 741.1,192.6 742.3,193.4 743.5,194.1 744.6,194.9 745.8,195.6 747.0,196.4 748.2,197.1 749.4,197.9 750.6,198.6 751.8,199.3 752.9,200.1 754.1,200.8 755.3,201.5 756.5,202.3 757.7,203.0 758.9,203.7 760.1,204.5 761.3,205.2 762.4,205.9 763.6,206.6 764.8,207.4 766.0,208.1"/>
<line x1="606" y1="42" x2="628" y2="42" stroke="#0f62fe" stroke-width="2.2"/>
<text x="634" y="46" font-family="Arial" font-size="12">speed_mps</text>
<polyline fill="none" stroke="#24a148" stroke-width="2.2" points="54.0,266.0 55.2,265.2 56.4,264.4 57.6,263.6 58.7,262.7 59.9,261.9 61.1,261.0 62.3,260.1 63.5,259.2 64.7,258.3 65.9,257.4 67.1,256.4 68.2,255.5 69.4,254.5 70.6,253.5 71.8,252.5 73.0,251.5 74.2,250.6 75.4,249.6 76.5,248.6 77.7,247.6 78.9,246.6 80.1,245.6 81.3,244.7 82.5,243.7 83.7,242.7 84.9,241.7 86.0,240.8 87.2,239.8 88.4,238.8 89.6,237.9 90.8,236.9 92.0,235.9 93.2,234.9 94.3,234.0 95.5,233.0 96.7,232.1 97.9,231.1 99.1,230.1 100.3,229.2 101.5,228.2 102.7,227.3 103.8,226.3 105.0,225.3 106.2,224.4 107.4,223.4 108.6,222.5 109.8,221.5 111.0,220.6 112.1,219.6 113.3,218.7 114.5,217.7 115.7,216.8 116.9,215.9 118.1,214.9 119.3,214.0 120.5,213.0 121.6,212.1 122.8,211.2 124.0,210.2 125.2,209.3 126.4,208.4 127.6,207.4 128.8,206.5 129.9,205.6 131.1,204.6 132.3,203.7 133.5,202.8 134.7,201.9 135.9,200.9 137.1,200.0 138.3,199.1 139.4,198.2 140.6,197.3 141.8,196.3 143.0,195.4 144.2,194.5 145.4,193.6 146.6,192.7 147.7,191.8 148.9,190.9 150.1,190.0 151.3,189.1 152.5,188.2 153.7,187.3 154.9,186.4 156.1,185.5 157.2,184.6 158.4,183.7 159.6,182.8 160.8,181.9 162.0,181.0 163.2,180.1 164.4,179.2 165.5,178.4 166.7,177.5 167.9,176.6 169.1,175.7 170.3,174.8 171.5,174.0 172.7,173.1 173.9,172.2 175.0,171.4 176.2,170.5 177.4,169.6 178.6,168.8 179.8,167.9 181.0,167.1 182.2,166.2 183.3,165.4 184.5,164.5 185.7,163.7 186.9,162.8 188.1,162.0 189.3,161.1 190.5,160.3 191.7,159.4 192.8,158.6 194.0,157.8 195.2,156.9 196.4,156.1 197.6,155.3 198.8,154.4 200.0,153.6 201.1,152.8 202.3,152.0 203.5,151.2 204.7,150.3 205.9,149.5 207.1,148.7 208.3,147.9 209.5,147.1 210.6,146.3 211.8,145.5 213.0,144.7 214.2,143.8 215.4,143.0 216.6,142.2 217.8,141.4 218.9,140.6 220.1,139.8 221.3,139.0 222.5,138.3 223.7,137.5 224.9,136.7 226.1,135.9 227.3,135.1 228.4,134.3 229.6,133.6 230.8,132.8 232.0,132.0 233.2,131.2 234.4,130.5 235.6,129.7 236.7,128.9 237.9,128.2 239.1,127.4 240.3,126.6 241.5,125.9 242.7,125.1 243.9,124.4 245.1,123.6 246.2,122.9 247.4,122.1 248.6,121.4 249.8,120.7 251.0,119.9 252.2,119.2 253.4,118.5 254.5,117.7 255.7,117.0 256.9,116.3 258.1,115.6 259.3,114.8 260.5,114.1 261.7,113.4 262.9,112.7 264.0,112.0 265.2,111.3 266.4,110.5 267.6,109.9 268.8,109.1 270.0,108.5 271.2,107.7 272.3,107.1 273.5,106.4 274.7,105.7 275.9,105.0 277.1,104.3 278.3,103.6 279.5,102.9 280.7,102.2 281.8,101.6 283.0,100.9 284.2,100.2 285.4,99.6 286.6,98.9 287.8,98.2 289.0,97.6 290.1,96.9 291.3,96.2 292.5,95.5 293.7,94.9 294.9,94.3 296.1,93.9 297.3,93.5 298.5,93.1 299.6,92.7 300.8,92.2 302.0,91.7 303.2,91.1 304.4,90.7 305.6,90.2 306.8,89.8 307.9,89.4 309.1,88.9 310.3,88.5 311.5,88.0 312.7,87.5 313.9,87.1 315.1,86.7 316.3,86.3 317.4,85.8 318.6,85.4 319.8,85.0 321.0,84.5 322.2,84.1 323.4,83.7 324.6,83.3 325.7,82.9 326.9,82.5 328.1,82.1 329.3,81.7 330.5,81.3 331.7,80.9 332.9,80.5 334.1,80.1 335.2,79.7 336.4,79.4 337.6,79.0 338.8,78.6 340.0,78.2 341.2,77.9 342.4,77.5 343.5,77.1 344.7,76.8 345.9,76.4 347.1,76.1 348.3,75.7 349.5,75.4 350.7,75.0 351.9,74.7 353.0,74.3 354.2,74.0 355.4,73.7 356.6,73.3 357.8,73.0 359.0,72.7 360.2,72.3 361.3,72.0 362.5,71.7 363.7,71.4 364.9,71.1 366.1,70.8 367.3,70.5 368.5,70.2 369.7,69.9 370.8,69.6 372.0,69.3 373.2,69.0 374.4,68.7 375.6,68.4 376.8,68.1 378.0,67.8 379.1,67.6 380.3,67.3 381.5,67.0 382.7,66.8 383.9,66.5 385.1,66.2 386.3,66.0 387.5,65.7 388.6,65.5 389.8,65.2 391.0,65.0 392.2,64.7 393.4,64.5 394.6,64.3 395.8,64.0 396.9,63.8 398.1,63.6 399.3,63.4 400.5,63.2 401.7,62.9 402.9,62.7 404.1,62.5 405.3,62.3 406.4,62.1 407.6,61.9 408.8,61.7 410.0,61.5 411.2,61.3 412.4,61.1 413.6,61.0 414.7,60.8 415.9,60.6 417.1,60.4 418.3,60.2 419.5,60.1 420.7,59.9 421.9,59.7 423.1,59.6 424.2,59.4 425.4,59.3 426.6,59.1 427.8,58.9 429.0,58.8 430.2,58.7 431.4,58.5 432.5,58.4 433.7,58.2 434.9,58.1 436.1,58.0 437.3,57.8 438.5,57.7 439.7,57.6 440.9,57.4 442.0,57.3 443.2,57.2 444.4,57.1 445.6,57.0 446.8,56.9 448.0,56.8 449.2,56.6 450.3,56.5 451.5,56.4 452.7,56.3 453.9,56.2 455.1,56.1 456.3,56.1 457.5,56.0 458.7,55.9 459.8,55.8 461.0,55.7 462.2,55.6 463.4,55.5 464.6,55.5 465.8,55.4 467.0,55.3 468.1,55.3 469.3,55.2 470.5,55.1 471.7,55.1 472.9,55.0 474.1,54.9 475.3,54.9 476.5,54.8 477.6,54.8 478.8,54.7 480.0,54.7 481.2,54.6 482.4,54.6 483.6,54.5 484.8,54.5 485.9,54.4 487.1,54.4 488.3,54.4 489.5,54.3 490.7,54.3 491.9,54.3 493.1,54.2 494.3,54.2 495.4,54.2 496.6,54.2 497.8,54.1 499.0,54.1 500.2,54.1 501.4,54.1 502.6,54.1 503.7,54.0 504.9,54.0 506.1,54.0 507.3,54.0 508.5,54.0 509.7,54.0 510.9,54.0 512.1,54.0 513.2,54.0 514.4,54.0 515.6,54.0 516.8,54.0 518.0,54.0 519.2,54.0 520.4,54.0 521.5,54.0 522.7,54.1 523.9,54.1 525.1,54.1 526.3,54.1 527.5,54.1 528.7,54.1 529.9,54.2 531.0,54.2 532.2,54.2 533.4,54.2 534.6,54.2 535.8,54.3 537.0,54.3 538.2,54.3 539.3,54.4 540.5,54.4 541.7,54.4 542.9,54.5 544.1,54.5 545.3,54.5 546.5,54.6 547.7,54.6 548.8,54.7 550.0,54.7 551.2,54.7 552.4,54.8 553.6,54.8 554.8,54.9 556.0,54.9 557.1,55.0 558.3,55.0 559.5,55.1 560.7,55.1 561.9,55.2 563.1,55.2 564.3,55.3 565.5,55.3 566.6,55.4 567.8,55.5 569.0,55.5 570.2,56.7 571.4,58.0 572.6,59.2 573.8,60.4 574.9,61.6 576.1,62.8 577.3,63.9 578.5,65.1 579.7,66.3 580.9,67.5 582.1,68.6 583.3,69.8 584.4,70.9 585.6,72.1 586.8,73.2 588.0,74.3 589.2,75.5 590.4,76.6 591.6,77.7 592.7,78.8 593.9,79.9 595.1,81.1 596.3,82.2 597.5,83.3 598.7,84.4 599.9,85.4 601.1,86.5 602.2,87.6 603.4,88.7 604.6,89.8 605.8,90.8 607.0,91.9 608.2,93.0 609.4,94.0 610.5,95.1 611.7,96.1 612.9,97.2 614.1,98.2 615.3,99.3 616.5,100.3 617.7,101.3 618.9,102.4 620.0,103.4 621.2,104.4 622.4,105.4 623.6,106.4 624.8,107.5 626.0,108.5 627.2,109.5 628.3,110.5 629.5,111.5 630.7,112.5 631.9,113.5 633.1,114.4 634.3,115.4 635.5,116.4 636.7,117.4 637.8,118.4 639.0,119.3 640.2,120.3 641.4,121.3 642.6,122.2 643.8,123.2 645.0,124.1 646.1,125.1 647.3,126.0 648.5,127.0 649.7,127.9 650.9,128.9 652.1,129.8 653.3,130.7 654.5,131.6 655.6,132.6 656.8,133.5 658.0,134.4 659.2,135.3 660.4,136.3 661.6,137.2 662.8,138.1 663.9,139.0 665.1,139.9 666.3,140.8 667.5,141.7 668.7,142.6 669.9,143.5 671.1,144.4 672.3,145.2 673.4,146.1 674.6,147.0 675.8,147.9 677.0,148.8 678.2,149.6 679.4,150.5 680.6,151.4 681.7,152.3 682.9,153.1 684.1,154.0 685.3,154.8 686.5,155.7 687.7,156.5 688.9,157.4 690.1,158.2 691.2,159.1 692.4,159.9 693.6,160.8 694.8,161.6 696.0,162.5 697.2,163.3 698.4,164.1 699.5,164.9 700.7,165.8 701.9,166.6 703.1,167.4 704.3,168.2 705.5,169.1 706.7,169.9 707.9,170.7 709.0,171.5 710.2,172.3 711.4,173.1 712.6,173.9 713.8,174.7 715.0,175.5 716.2,176.3 717.3,177.1 718.5,177.9 719.7,178.7 720.9,179.5 722.1,180.3 723.3,181.1 724.5,181.9 725.7,182.6 726.8,183.4 728.0,184.2 729.2,185.0 730.4,185.7 731.6,186.5 732.8,187.3 734.0,188.0 735.1,188.8 736.3,189.6 737.5,190.3 738.7,191.1 739.9,191.9 741.1,192.6 742.3,193.4 743.5,194.1 744.6,194.9 745.8,195.6 747.0,196.4 748.2,197.1 749.4,197.9 750.6,198.6 751.8,199.3 752.9,200.1 754.1,200.8 755.3,201.5 756.5,202.3 757.7,203.0 758.9,203.7 760.1,204.5 761.3,205.2 762.4,205.9 763.6,206.6 764.8,207.4 766.0,208.1"/>
<line x1="606" y1="60" x2="628" y2="60" stroke="#24a148" stroke-width="2.2"/>
<text x="634" y="64" font-family="Arial" font-size="12">airspeed_mps</text>
</svg>