<svg xmlns="http://www.w3.org/2000/svg" width="820" height="320" viewBox="0 0 820 320">
<rect width="100%" height="100%" fill="#ffffff"/>
<text x="54" y="28" font-family="Arial" font-size="18" font-weight="700">Euler Angles</text>
<line x1="54" y1="266" x2="766" y2="266" stroke="#1f2933"/>
<line x1="54" y1="54" x2="54" y2="266" stroke="#1f2933"/>
<text x="54" y="306" font-family="Arial" font-size="12">time (s)</text>
<text x="596" y="306" font-family="Arial" font-size="12">angle (deg)</text>
<text x="58" y="68" font-family="Arial" font-size="11">86.2</text>
<text x="58" y="260" font-family="Arial" font-size="11">0</text>
<polyline fill="none" stroke="#0f62fe" stroke-width="2.2" points="54.0,266.0 55.2,266.0 56.4,266.0 57.6,266.0 58.7,266.0 59.9,266.0 61.1,266.0 62.3,266.0 63.5,266.0 64.7,266.0 65.9,266.0 67.1,266.0 68.2,266.0 69.4,266.0 70.6,266.0 71.8,266.0 73.0,266.0 74.2,266.0 75.4,266.0 76.5,266.0 77.7,266.0 78.9,266.0 80.1,266.0 81.3,266.0 82.5,266.0 83.7,266.0 84.9,266.0 86.0,266.0 87.2,266.0 88.4,266.0 89.6,266.0 90.8,266.0 92.0,266.0 93.2,266.0 94.3,266.0 95.5,266.0 96.7,266.0 97.9,266.0 99.1,266.0 100.3,266.0 101.5,266.0 102.7,266.0 103.8,266.0 105.0,266.0 106.2,266.0 107.4,266.0 108.6,266.0 109.8,266.0 111.0,266.0 112.1,266.0 113.3,266.0 114.5,266.0 115.7,266.0 116.9,266.0 118.1,266.0 119.3,266.0 120.5,266.0 121.6,266.0 122.8,266.0 124.0,266.0 125.2,266.0 126.4,266.0 127.6,266.0 128.8,266.0 129.9,266.0 131.1,266.0 132.3,266.0 133.5,266.0 134.7,266.0 135.9,266.0 137.1,266.0 138.3,266.0 139.4,266.0 140.6,266.0 141.8,266.0 143.0,266.0 144.2,266.0 145.4,266.0 146.6,266.0 147.7,266.0 148.9,266.0 150.1,266.0 151.3,266.0 152.5,266.0 153.7,266.0 154.9,266.0 156.1,266.0 157.2,266.0 158.4,266.0 159.6,266.0 160.8,266.0 162.0,266.0 163.2,266.0 164.4,266.0 165.5,266.0 166.7,266.0 167.9,266.0 169.1,266.0 170.3,266.0 171.5,266.0 172.7,266.0 173.9,266.0 175.0,266.0 176.2,266.0 177.4,266.0 178.6,266.0 179.8,266.0 181.0,266.0 182.2,266.0 183.3,266.0 184.5,266.0 185.7,266.0 186.9,266.0 188.1,266.0 189.3,266.0 190.5,266.0 191.7,266.0 192.8,266.0 194.0,266.0 195.2,266.0 196.4,266.0 197.6,266.0 198.8,266.0 200.0,266.0 201.1,266.0 202.3,266.0 203.5,266.0 204.7,266.0 205.9,266.0 207.1,266.0 208.3,266.0 209.5,266.0 210.6,266.0 211.8,266.0 213.0,266.0 214.2,266.0 215.4,266.0 216.6,266.0 217.8,266.0 218.9,266.0 220.1,266.0 221.3,266.0 222.5,266.0 223.7,266.0 224.9,266.0 226.1,266.0 227.3,266.0 228.4,266.0 229.6,266.0 230.8,266.0 232.0,266.0 233.2,266.0 234.4,266.0 235.6,266.0 236.7,266.0 237.9,266.0 239.1,266.0 240.3,266.0 241.5,266.0 242.7,266.0 243.9,266.0 245.1,266.0 246.2,266.0 247.4,266.0 248.6,266.0 249.8,266.0 251.0,266.0 252.2,266.0 253.4,266.0 254.5,266.0 255.7,266.0 256.9,266.0 258.1,266.0 259.3,266.0 260.5,266.0 261.7,266.0 262.9,266.0 264.0,266.0 265.2,266.0 266.4,266.0 267.6,266.0 268.8,266.0 270.0,266.0 271.2,266.0 272.3,266.0 273.5,266.0 274.7,266.0 275.9,266.0 277.1,266.0 278.3,266.0 279.5,266.0 280.7,266.0 281.8,266.0 283.0,266.0 284.2,266.0 285.4,266.0 286.6,266.0 287.8,266.0 289.0,266.0 290.1,266.0 291.3,266.0 292.5,266.0 293.7,266.0 294.9,266.0 296.1,266.0 297.3,266.0 298.5,266.0 299.6,266.0 300.8,266.0 302.0,266.0 303.2,266.0 304.4,266.0 305.6,266.0 306.8,266.0 307.9,266.0 309.1,266.0 310.3,266.0 311.5,266.0 312.7,266.0 313.9,266.0 315.1,266.0 316.3,266.0 317.4,266.0 318.6,266.0 319.8,266.0 321.0,266.0 322.2,266.0 323.4,266.0 324.6,266.0 325.7,266.0 326.9,266.0 328.1,266.0 329.3,266.0 330.5,266.0 331.7,266.0 332.9,266.0 334.1,266.0 335.2,266.0 336.4,266.0 337.6,266.0 338.8,266.0 340.0,266.0 341.2,266.0 342.4,266.0 343.5,266.0 344.7,266.0 345.9,266.0 347.1,266.0 348.3,266.0 349.5,266.0 350.7,266.0 351.9,266.0 353.0,266.0 354.2,266.0 355.4,266.0 356.6,266.0 357.8,266.0 359.0,266.0 360.2,266.0 361.3,266.0 362.5,266.0 363.7,266.0 364.9,266.0 366.1,266.0 367.3,266.0 368.5,266.0 369.7,266.0 370.8,266.0 372.0,266.0 373.2,266.0 374.4,266.0 375.6,266.0 376.8,266.0 378.0,266.0 379.1,266.0 380.3,266.0 381.5,266.0 382.7,266.0 383.9,266.0 385.1,266.0 386.3,266.0 387.5,266.0 388.6,266.0 389.8,266.0 391.0,266.0 392.2,266.0 393.4,266.0 394.6,266.0 395.8,266.0 396.9,266.0 398.1,266.0 399.3,266.0 400.5,266.0 401.7,266.0 402.9,266.0 404.1,266.0 405.3,266.0 406.4,266.0 407.6,266.0 408.8,266.0 410.0,266.0 411.2,266.0 412.4,266.0 413.6,266.0 414.7,266.0 415.9,266.0 417.1,266.0 418.3,266.0 419.5,266.0 420.7,266.0 421.9,266.0 423.1,266.0 424.2,266.0 425.4,266.0 426.6,266.0 427.8,266.0 429.0,266.0 430.2,266.0 431.4,266.0 432.5,266.0 433.7,266.0 434.9,266.0 436.1,266.0 437.3,266.0 438.5,266.0 439.7,266.0 440.9,266.0 442.0,266.0 443.2,266.0 444.4,266.0 445.6,266.0 446.8,266.0 448.0,266.0 449.2,266.0 450.3,266.0 451.5,266.0 452.7,266.0 453.9,266.0 455.1,266.0 456.3,266.0 457.5,266.0 458.7,266.0 459.8,266.0 461.0,266.0 462.2,266.0 463.4,266.0 464.6,266.0 465.8,266.0 467.0,266.0 468.1,266.0 469.3,266.0 470.5,266.0 471.7,266.0 472.9,266.0 474.1,266.0 475.3,266.0 476.5,266.0 477.6,266.0 478.8,266.0 480.0,266.0 481.2,266.0 482.4,266.0 483.6,266.0 484.8,266.0 485.9,266.0 487.1,266.0 488.3,266.0 489.5,266.0 490.7,266.0 491.9,266.0 493.1,266.0 494.3,266.0 495.4,266.0 496.6,266.0 497.8,266.0 499.0,266.0 500.2,266.0 501.4,266.0 502.6,266.0 503.7,266.0 504.9,266.0 506.1,266.0 507.3,266.0 508.5,266.0 509.7,266.0 510.9,266.0 512.1,266.0 513.2,266.0 514.4,266.0 515.6,266.0 516.8,266.0 518.0,266.0 519.2,266.0 520.4,266.0 521.5,266.0 522.7,266.0 523.9,266.0 525.1,266.0 526.3,266.0 527.5,266.0 528.7,266.0 529.9,266.0 531.0,266.0 532.2,266.0 533.4,266.0 534.6,266.0 535.8,266.0 537.0,266.0 538.2,266.0 539.3,266.0 540.5,266.0 541.7,266.0 542.9,266.0 544.1,266.0 545.3,266.0 546.5,266.0 547.7,266.0 548.8,266.0 550.0,266.0 551.2,266.0 552.4,266.0 553.6,266.0 554.8,266.0 556.0,266.0 557.1,266.0 558.3,266.0 559.5,266.0 560.7,266.0 561.9,266.0 563.1,266.0 564.3,266.0 565.5,266.0 566.6,266.0 567.8,266.0 569.0,266.0 570.2,266.0 571.4,266.0 572.6,266.0 573.8,266.0 574.9,266.0 576.1,266.0 577.3,266.0 578.5,266.0 579.7,266.0 580.9,266.0 582.1,266.0 583.3,266.0 584.4,266.0 585.6,266.0 586.8,266.0 588.0,266.0 589.2,266.0 590.4,266.0 591.6,266.0 592.7,266.0 593.9,266.0 595.1,266.0 596.3,266.0 597.5,266.0 598.7,266.0 599.9,266.0 601.1,266.0 602.2,266.0 603.4,266.0 604.6,266.0 605.8,266.0 607.0,266.0 608.2,266.0 609.4,266.0 610.5,266.0 611.7,266.0 612.9,266.0 614.1,266.0 615.3,266.0 616.5,266.0 617.7,266.0 618.9,266.0 620.0,266.0 621.2,266.0 622.4,266.0 623.6,266.0 624.8,266.0 626.0,266.0 627.2,266.0 628.3,266.0 629.5,266.0 630.7,266.0 631.9,266.0 633.1,266.0 634.3,266.0 635.5,266.0 636.7,266.0 637.8,266.0 639.0,266.0 640.2,266.0 641.4,266.0 642.6,266.0 643.8,266.0 645.0,266.0 646.1,266.0 647.3,266.0 648.5,266.0 649.7,266.0 650.9,266.0 652.1,266.0 653.3,266.0 654.5,266.0 655.6,266.0 656.8,266.0 658.0,266.0 659.2,266.0 660.4,266.0 661.6,266.0 662.8,266.0 663.9,266.0 665.1,266.0 666.3,266.0 667.5,266.0 668.7,266.0 669.9,266.0 671.1,266.0 672.3,266.0 673.4,266.0 674.6,266.0 675.8,266.0 677.0,266.0 678.2,266.0 679.4,266.0 680.6,266.0 681.7,266.0 682.9,266.0 684.1,266.0 685.3,266.0 686.5,266.0 687.7,266.0 688.9,266.0 690.1,266.0 691.2,266.0 692.4,266.0 693.6,266.0 694.8,266.0 696.0,266.0 697.2,266.0 698.4,266.0 699.5,266.0 700.7,266.0 701.9,266.0 703.1,266.0 704.3,266.0 705.5,266.0 706.7,266.0 707.9,266.0 709.0,266.0 710.2,266.0 711.4,266.0 712.6,266.0 713.8,266.0 715.0,266.0 716.2,266.0 717.3,266.0 718.5,266.0 719.7,266.0 720.9,266.0 722.1,266.0 723.3,266.0 724.5,266.0 725.7,266.0 726.8,266.0 728.0,266.0 729.2,266.0 730.4,266.0 731.6,266.0 732.8,266.0 734.0,266.0 735.1,266.0 736.3,266.0 737.5,266.0 738.7,266.0 739.9,266.0 741.1,266.0 742.3,266.0 743.5,266.0 744.6,266.0 745.8,266.0 747.0,266.0 748.2,266.0 749.4,266.0 750.6,266.0 751.8,266.0 752.9,266.0 754.1,266.0 755.3,266.0 756.5,266.0 757.7,266.0 758.9,266.0 760.1,266.0 761.3,266.0 762.4,266.0 763.6,266.0 764.8,266.0 766.0,266.0"/>
<line x1="606" y1="42" x2="628" y2="42" stroke="#0f62fe" stroke-width="2.2"/>
<text x="634" y="46" font-family="Arial" font-size="12">roll_deg</text>
<polyline fill="none" stroke="#24a148" stroke-width="2.2" points="54.0,251.2 55.2,250.6 56.4,249.8 57.6,249.4 58.7,249.1 59.9,248.9 61.1,248.7 62.3,248.4 63.5,248.3 64.7,248.2 65.9,248.1 67.1,248.0 68.2,248.0 69.4,248.0 70.6,248.0 71.8,248.0 73.0,248.0 74.2,248.1 75.4,248.1 76.5,248.2 77.7,248.2 78.9,248.3 80.1,248.4 81.3,248.4 82.5,248.5 83.7,248.6 84.9,248.7 86.0,248.8 87.2,248.9 88.4,249.0 89.6,249.1 90.8,249.2 92.0,249.2 93.2,249.3 94.3,249.4 95.5,249.5 96.7,249.6 97.9,249.7 99.1,249.8 100.3,249.9 101.5,250.0 102.7,250.1 103.8,250.1 105.0,250.2 106.2,250.3 107.4,250.4 108.6,250.5 109.8,250.5 111.0,250.6 112.1,250.7 113.3,250.8 114.5,250.8 115.7,250.9 116.9,251.0 118.1,251.0 119.3,251.1 120.5,251.2 121.6,251.2 122.8,251.3 124.0,251.3 125.2,251.4 126.4,251.4 127.6,251.5 128.8,251.5 129.9,251.6 131.1,251.6 132.3,251.7 133.5,251.7 134.7,251.8 135.9,251.8 137.1,251.9 138.3,251.9 139.4,251.9 140.6,252.0 141.8,252.0 143.0,252.0 144.2,252.1 145.4,252.1 146.6,252.1 147.7,252.2 148.9,252.2 150.1,252.2 151.3,252.2 152.5,252.2 153.7,252.3 154.9,252.3 156.1,252.3 157.2,252.2 158.4,252.2 159.6,252.2 160.8,252.2 162.0,252.2 163.2,252.2 164.4,252.1 165.5,252.1 166.7,252.1 167.9,252.0 169.1,252.0 170.3,252.0 171.5,251.9 172.7,251.9 173.9,251.8 175.0,251.8 176.2,251.8 177.4,251.7 178.6,251.7 179.8,251.6 181.0,251.6 182.2,251.5 183.3,251.5 184.5,251.4 185.7,251.4 186.9,251.3 188.1,251.3 189.3,251.2 190.5,251.1 191.7,251.1 192.8,251.0 194.0,251.0 195.2,250.9 196.4,250.9 197.6,250.8 198.8,250.7 200.0,250.7 201.1,250.6 202.3,250.5 203.5,250.6 204.7,250.2 205.9,250.7 207.1,249.7 208.3,250.5 209.5,249.8 210.6,250.8 211.8,250.0 213.0,250.9 214.2,249.9 215.4,250.6 216.6,249.5 217.8,250.2 218.9,249.2 220.1,250.0 221.3,249.1 222.5,250.0 223.7,249.0 224.9,249.9 226.1,248.8 227.3,249.6 228.4,248.5 229.6,249.4 230.8,248.3 232.0,249.2 233.2,248.1 234.4,249.0 235.6,247.9 236.7,248.8 237.9,247.7 239.1,248.6 240.3,247.4 241.5,248.3 242.7,247.2 243.9,248.1 245.1,246.9 246.2,247.9 247.4,246.7 248.6,247.6 249.8,246.4 251.0,247.4 252.2,246.2 253.4,247.1 254.5,245.9 255.7,246.9 256.9,245.6 258.1,246.6 259.3,245.3 260.5,246.3 261.7,245.0 262.9,246.1 264.0,244.8 265.2,245.8 266.4,244.5 267.6,245.5 268.8,244.1 270.0,245.2 271.2,243.9 272.3,244.9 273.5,243.6 274.7,244.6 275.9,243.3 277.1,244.3 278.3,243.0 279.5,244.0 280.7,242.7 281.8,243.7 283.0,242.4 284.2,243.4 285.4,242.2 286.6,243.4 287.8,242.1 289.0,243.3 290.1,242.0 291.3,243.2 292.5,241.9 293.7,238.2 294.9,234.0 296.1,231.5 297.3,231.3 298.5,232.8 299.6,234.5 300.8,235.1 302.0,234.4 303.2,232.9 304.4,231.5 305.6,230.6 306.8,230.4 307.9,230.6 309.1,230.8 310.3,230.6 311.5,230.0 312.7,229.2 313.9,228.5 315.1,228.0 316.3,227.8 317.4,227.5 318.6,227.2 319.8,226.8 321.0,226.3 322.2,225.8 323.4,225.3 324.6,224.9 325.7,224.5 326.9,224.1 328.1,223.7 329.3,223.3 330.5,222.8 331.7,222.4 332.9,221.9 334.1,221.5 335.2,221.1 336.4,220.7 337.6,220.2 338.8,219.8 340.0,219.3 341.2,218.9 342.4,218.4 343.5,218.0 344.7,217.6 345.9,217.1 347.1,216.7 348.3,216.2 349.5,215.8 350.7,215.3 351.9,214.9 353.0,214.4 354.2,214.0 355.4,213.5 356.6,213.0 357.8,212.6 359.0,212.1 360.2,211.7 361.3,211.2 362.5,210.8 363.7,210.3 364.9,209.8 366.1,209.4 367.3,208.9 368.5,208.4 369.7,208.0 370.8,207.5 372.0,207.0 373.2,206.6 374.4,206.1 375.6,205.6 376.8,205.1 378.0,204.7 379.1,204.2 380.3,203.7 381.5,203.3 382.7,202.8 383.9,202.3 385.1,201.8 386.3,201.3 387.5,200.9 388.6,200.4 389.8,199.9 391.0,199.4 392.2,198.9 393.4,198.4 394.6,198.0 395.8,197.5 396.9,197.0 398.1,196.5 399.3,196.0 400.5,195.5 401.7,195.0 402.9,194.5 404.1,194.0 405.3,193.5 406.4,193.1 407.6,192.6 408.8,192.1 410.0,191.6 411.2,191.1 412.4,190.6 413.6,190.1 414.7,189.6 415.9,189.1 417.1,188.6 418.3,188.1 419.5,187.6 420.7,187.1 421.9,186.6 423.1,186.1 424.2,185.6 425.4,185.0 426.6,184.5 427.8,184.0 429.0,183.5 430.2,183.0 431.4,182.5 432.5,182.0 433.7,181.5 434.9,181.0 436.1,180.5 437.3,179.9 438.5,179.4 439.7,178.9 440.9,178.4 442.0,177.9 443.2,177.4 444.4,176.9 445.6,176.3 446.8,175.8 448.0,175.3 449.2,174.8 450.3,174.3 451.5,173.7 452.7,173.2 453.9,172.7 455.1,172.2 456.3,171.6 457.5,171.1 458.7,170.6 459.8,170.1 461.0,169.5 462.2,169.0 463.4,168.5 464.6,168.0 465.8,167.4 467.0,166.9 468.1,166.4 469.3,165.8 470.5,165.3 471.7,164.8 472.9,164.3 474.1,163.7 475.3,163.2 476.5,162.7 477.6,162.1 478.8,161.6 480.0,161.1 481.2,160.5 482.4,160.0 483.6,159.4 484.8,158.9 485.9,158.4 487.1,157.8 488.3,157.3 489.5,156.8 490.7,156.2 491.9,155.7 493.1,155.1 494.3,154.6 495.4,154.0 496.6,153.5 497.8,153.0 499.0,152.4 500.2,151.9 501.4,151.3 502.6,150.8 503.7,150.2 504.9,149.7 506.1,149.1 507.3,148.6 508.5,148.1 509.7,147.5 510.9,147.0 512.1,146.4 513.2,145.9 514.4,145.3 515.6,144.8 516.8,144.2 518.0,143.7 519.2,143.1 520.4,142.5 521.5,142.0 522.7,141.4 523.9,140.9 525.1,140.3 526.3,139.8 527.5,139.2 528.7,138.7 529.9,138.1 531.0,137.6 532.2,137.0 533.4,136.4 534.6,135.9 535.8,135.3 537.0,134.8 538.2,134.2 539.3,133.6 540.5,133.1 541.7,132.5 542.9,132.0 544.1,131.4 545.3,130.8 546.5,130.3 547.7,129.7 548.8,129.2 550.0,128.6 551.2,128.0 552.4,127.5 553.6,126.9 554.8,126.3 556.0,125.8 557.1,125.2 558.3,124.6 559.5,124.1 560.7,123.5 561.9,122.9 563.1,122.4 564.3,121.8 565.5,121.2 566.6,120.6 567.8,120.1 569.0,119.5 570.2,118.9 571.4,118.4 572.6,117.9 573.8,117.4 574.9,116.8 576.1,116.3 577.3,115.8 578.5,115.3 579.7,114.7 580.9,114.2 582.1,113.7 583.3,113.2 584.4,112.7 585.6,112.2 586.8,111.7 588.0,111.2 589.2,110.7 590.4,110.2 591.6,109.7 592.7,109.2 593.9,108.7 595.1,108.2 596.3,107.7 597.5,107.2 598.7,106.8 599.9,106.3 601.1,105.8 602.2,105.3 603.4,104.8 604.6,104.4 605.8,103.9 607.0,103.4 608.2,103.0 609.4,102.5 610.5,102.0 611.7,101.6 612.9,101.1 614.1,100.6 615.3,100.2 616.5,99.7 617.7,99.3 618.9,98.8 620.0,98.4 621.2,97.9 622.4,97.5 623.6,97.0 624.8,96.6 626.0,96.1 627.2,95.7 628.3,95.3 629.5,94.8 630.7,94.4 631.9,94.0 633.1,93.5 634.3,93.1 635.5,92.7 636.7,92.3 637.8,91.8 639.0,91.4 640.2,91.0 641.4,90.6 642.6,90.1 643.8,89.7 645.0,89.3 646.1,88.9 647.3,88.5 648.5,88.1 649.7,87.7 650.9,87.3 652.1,86.9 653.3,86.5 654.5,86.1 655.6,85.7 656.8,85.3 658.0,84.9 659.2,84.5 660.4,84.1 661.6,83.7 662.8,83.3 663.9,82.9 665.1,82.5 666.3,82.1 667.5,81.7 668.7,81.3 669.9,81.0 671.1,80.6 672.3,80.2 673.4,79.8 674.6,79.4 675.8,79.1 677.0,78.7 678.2,78.3 679.4,77.9 680.6,77.6 681.7,77.2 682.9,76.8 684.1,76.5 685.3,76.1 686.5,75.7 687.7,75.4 688.9,75.0 690.1,74.7 691.2,74.3 692.4,73.9 693.6,73.6 694.8,73.2 696.0,72.9 697.2,72.5 698.4,72.2 699.5,71.8 700.7,71.5 701.9,71.1 703.1,70.8 704.3,70.4 705.5,70.1 706.7,69.7 707.9,69.4 709.0,69.1 710.2,68.7 711.4,68.4 712.6,68.0 713.8,67.7 715.0,67.4 716.2,67.0 717.3,66.7 718.5,66.4 719.7,66.0 720.9,65.7 722.1,65.4 723.3,65.1 724.5,64.7 725.7,64.4 726.8,64.1 728.0,63.8 729.2,63.4 730.4,63.1 731.6,62.8 732.8,62.5 734.0,62.2 735.1,61.9 736.3,61.5 737.5,61.2 738.7,60.9 739.9,60.6 741.1,60.3 742.3,60.0 743.5,59.7 744.6,59.4 745.8,59.1 747.0,58.8 748.2,58.5 749.4,58.1 750.6,57.8 751.8,57.5 752.9,57.2 754.1,56.9 755.3,56.6 756.5,56.3 757.7,56.1 758.9,55.8 760.1,55.5 761.3,55.2 762.4,54.9 763.6,54.6 764.8,54.3 766.0,54.0"/>
<line x1="606" y1="60" x2="628" y2="60" stroke="#24a148" stroke-width="2.2"/>
<text x="634" y="64" font-family="Arial" font-size="12">pitch_deg</text>
<polyline fill="none" stroke="#da1e28" stroke-width="2.2" points="54.0,266.0 55.2,266.0 56.4,266.0 57.6,266.0 58.7,266.0 59.9,266.0 61.1,266.0 62.3,266.0 63.5,266.0 64.7,266.0 65.9,266.0 67.1,266.0 68.2,266.0 69.4,266.0 70.6,266.0 71.8,266.0 73.0,266.0 74.2,266.0 75.4,266.0 76.5,266.0 77.7,266.0 78.9,266.0 80.1,266.0 81.3,266.0 82.5,266.0 83.7,266.0 84.9,266.0 86.0,266.0 87.2,266.0 88.4,266.0 89.6,266.0 90.8,266.0 92.0,266.0 93.2,266.0 94.3,266.0 95.5,266.0 96.7,266.0 97.9,266.0 99.1,266.0 100.3,266.0 101.5,266.0 102.7,266.0 103.8,266.0 105.0,266.0 106.2,266.0 107.4,266.0 108.6,266.0 109.8,266.0 111.0,266.0 112.1,266.0 113.3,266.0 114.5,266.0 115.7,266.0 116.9,266.0 118.1,266.0 119.3,266.0 120.5,266.0 121.6,266.0 122.8,266.0 124.0,266.0 125.2,266.0 126.4,266.0 127.6,266.0 128.8,266.0 129.9,266.0 131.1,266.0 132.3,266.0 133.5,266.0 134.7,266.0 135.9,266.0 137.1,266.0 138.3,266.0 139.4,266.0 140.6,266.0 141.8,266.0 143.0,266.0 144.2,266.0 145.4,266.0 146.6,266.0 147.7,266.0 148.9,266.0 150.1,266.0 151.3,266.0 152.5,266.0 153.7,266.0 154.9,266.0 156.1,266.0 157.2,266.0 158.4,266.0 159.6,266.0 160.8,266.0 162.0,266.0 163.2,266.0 164.4,266.0 165.5,266.0 166.7,266.0 167.9,266.0 169.1,266.0 170.3,266.0 171.5,266.0 172.7,266.0 173.9,266.0 175.0,266.0 176.2,266.0 177.4,266.0 178.6,266.0 179.8,266.0 181.0,266.0 182.2,266.0 183.3,266.0 184.5,266.0 185.7,266.0 186.9,266.0 188.1,266.0 189.3,266.0 190.5,266.0 191.7,266.0 192.8,266.0 194.0,266.0 195.2,266.0 196.4,266.0 197.6,266.0 198.8,266.0 200.0,266.0 201.1,266.0 202.3,266.0 203.5,266.0 204.7,266.0 205.9,266.0 207.1,266.0 208.3,266.0 209.5,266.0 210.6,266.0 211.8,266.0 213.0,266.0 214.2,266.0 215.4,266.0 216.6,266.0 217.8,266.0 218.9,266.0 220.1,266.0 221.3,266.0 222.5,266.0 223.7,266.0 224.9,266.0 226.1,266.0 227.3,266.0 228.4,266.0 229.6,266.0 230.8,266.0 232.0,266.0 233.2,266.0 234.4,266.0 235.6,266.0 236.7,266.0 237.9,266.0 239.1,266.0 240.3,266.0 241.5,266.0 242.7,266.0 243.9,266.0 245.1,266.0 246.2,266.0 247.4,266.0 248.6,266.0 249.8,266.0 251.0,266.0 252.2,266.0 253.4,266.0 254.5,266.0 255.7,266.0 256.9,266.0 258.1,266.0 259.3,266.0 260.5,266.0 261.7,266.0 262.9,266.0 264.0,266.0 265.2,266.0 266.4,266.0 267.6,266.0 268.8,266.0 270.0,266.0 271.2,266.0 272.3,266.0 273.5,266.0 274.7,266.0 275.9,266.0 277.1,266.0 278.3,266.0 279.5,266.0 280.7,266.0 281.8,266.0 283.0,266.0 284.2,266.0 285.4,266.0 286.6,266.0 287.8,266.0 289.0,266.0 290.1,266.0 291.3,266.0 292.5,266.0 293.7,266.0 294.9,266.0 296.1,266.0 297.3,266.0 298.5,266.0 299.6,266.0 300.8,266.0 302.0,266.0 303.2,266.0 304.4,266.0 305.6,266.0 306.8,266.0 307.9,266.0 309.1,266.0 310.3,266.0 311.5,266.0 312.7,266.0 313.9,266.0 315.1,266.0 316.3,266.0 317.4,266.0 318.6,266.0 319.8,266.0 321.0,266.0 322.2,266.0 323.4,266.0 324.6,266.0 325.7,266.0 326.9,266.0 328.1,266.0 329.3,266.0 330.5,266.0 331.7,266.0 332.9,266.0 334.1,266.0 335.2,266.0 336.4,266.0 337.6,266.0 338.8,266.0 340.0,266.0 341.2,266.0 342.4,266.0 343.5,266.0 344.7,266.0 345.9,266.0 347.1,266.0 348.3,266.0 349.5,266.0 350.7,266.0 351.9,266.0 353.0,266.0 354.2,266.0 355.4,266.0 356.6,266.0 357.8,266.0 359.0,266.0 360.2,266.0 361.3,266.0 362.5,266.0 363.7,266.0 364.9,266.0 366.1,266.0 367.3,266.0 368.5,266.0 369.7,266.0 370.8,266.0 372.0,266.0 373.2,266.0 374.4,266.0 375.6,266.0 376.8,266.0 378.0,266.0 379.1,266.0 380.3,266.0 381.5,266.0 382.7,266.0 383.9,266.0 385.1,266.0 386.3,266.0 387.5,266.0 388.6,266.0 389.8,266.0 391.0,266.0 392.2,266.0 393.4,266.0 394.6,266.0 395.8,266.0 396.9,266.0 398.1,266.0 399.3,266.0 400.5,266.0 401.7,266.0 402.9,266.0 404.1,266.0 405.3,266.0 406.4,266.0 407.6,266.0 408.8,266.0 410.0,266.0 411.2,266.0 412.4,266.0 413.6,266.0 414.7,266.0 415.9,266.0 417.1,266.0 418.3,266.0 419.5,266.0 420.7,266.0 421.9,266.0 423.1,266.0 424.2,266.0 425.4,266.0 426.6,266.0 427.8,266.0 429.0,266.0 430.2,266.0 431.4,266.0 432.5,266.0 433.7,266.0 434.9,266.0 436.1,266.0 437.3,266.0 438.5,266.0 439.7,266.0 440.9,266.0 442.0,266.0 443.2,266.0 444.4,266.0 445.6,266.0 446.8,266.0 448.0,266.0 449.2,266.0 450.3,266.0 451.5,266.0 452.7,266.0 453.9,266.0 455.1,266.0 456.3,266.0 457.5,266.0 458.7,266.0 459.8,266.0 461.0,266.0 462.2,266.0 463.4,266.0 464.6,266.0 465.8,266.0 467.0,266.0 468.1,266.0 469.3,266.0 470.5,266.0 471.7,266.0 472.9,266.0 474.1,266.0 475.3,266.0 476.5,266.0 477.6,266.0 478.8,266.0 480.0,266.0 481.2,266.0 482.4,266.0 483.6,266.0 484.8,266.0 485.9,266.0 487.1,266.0 488.3,266.0 489.5,266.0 490.7,266.0 491.9,266.0 493.1,266.0 494.3,266.0 495.4,266.0 496.6,266.0 497.8,266.0 499.0,266.0 500.2,266.0 501.4,266.0 502.6,266.0 503.7,266.0 504.9,266.0 506.1,266.0 507.3,266.0 508.5,266.0 509.7,266.0 510.9,266.0 512.1,266.0 513.2,266.0 514.4,266.0 515.6,266.0 516.8,266.0 518.0,266.0 519.2,266.0 520.4,266.0 521.5,266.0 522.7,266.0 523.9,266.0 525.1,266.0 526.3,266.0 527.5,266.0 528.7,266.0 529.9,266.0 531.0,266.0 532.2,266.0 533.4,266.0 534.6,266.0 535.8,266.0 537.0,266.0 538.2,266.0 539.3,266.0 540.5,266.0 541.7,266.0 542.9,266.0 544.1,266.0 545.3,266.0 546.5,266.0 547.7,266.0 548.8,266.0 550.0,266.0 551.2,266.0 552.4,266.0 553.6,266.0 554.8,266.0 556.0,266.0 557.1,266.0 558.3,266.0 559.5,266.0 560.7,266.0 561.9,266.0 563.1,266.0 564.3,266.0 565.5,266.0 566.6,266.0 567.8,266.0 569.0,266.0 570.2,266.0 571.4,266.0 572.6,266.0 573.8,266.0 574.9,266.0 576.1,266.0 577.3,266.0 578.5,266.0 579.7,266.0 580.9,266.0 582.1,266.0 583.3,266.0 584.4,266.0 585.6,266.0 586.8,266.0 588.0,266.0 589.2,266.0 590.4,266.0 591.6,266.0 592.7,266.0 593.9,266.0 595.1,266.0 596.3,266.0 597.5,266.0 598.7,266.0 599.9,266.0 601.1,266.0 602.2,266.0 603.4,266.0 604.6,266.0 605.8,266.0 607.0,266.0 608.2,266.0 609.4,266.0 610.5,266.0 611.7,266.0 612.9,266.0 614.1,266.0 615.3,266.0 616.5,266.0 617.7,266.0 618.9,266.0 620.0,266.0 621.2,266.0 622.4,266.0 623.6,266.0 624.8,266.0 626.0,266.0 627.2,266.0 628.3,266.0 629.5,266.0 630.7,266.0 631.9,266.0 633.1,266.0 634.3,266.0 635.5,266.0 636.7,266.0 637.8,266.0 639.0,266.0 640.2,266.0 641.4,266.0 642.6,266.0 643.8,266.0 645.0,266.0 646.1,266.0 647.3,266.0 648.5,266.0 649.7,266.0 650.9,266.0 652.1,266.0 653.3,266.0 654.5,266.0 655.6,266.0 656.8,266.0 658.0,266.0 659.2,266.0 660.4,266.0 661.6,266.0 662.8,266.0 663.9,266.0 665.1,266.0 666.3,266.0 667.5,266.0 668.7,266.0 669.9,266.0 671.1,266.0 672.3,266.0 673.4,266.0 674.6,266.0 675.8,266.0 677.0,266.0 678.2,266.0 679.4,266.0 680.6,266.0 681.7,266.0 682.9,266.0 684.1,266.0 685.3,266.0 686.5,266.0 687.7,266.0 688.9,266.0 690.1,266.0 691.2,266.0 692.4,266.0 693.6,266.0 694.8,266.0 696.0,266.0 697.2,266.0 698.4,266.0 699.5,266.0 700.7,266.0 701.9,266.0 703.1,266.0 704.3,266.0 705.5,266.0 706.7,266.0 707.9,266.0 709.0,266.0 710.2,266.0 711.4,266.0 712.6,266.0 713.8,266.0 715.0,266.0 716.2,266.0 717.3,266.0 718.5,266.0 719.7,266.0 720.9,266.0 722.1,266.0 723.3,266.0 724.5,266.0 725.7,266.0 726.8,266.0 728.0,266.0 729.2,266.0 730.4,266.0 731.6,266.0 732.8,266.0 734.0,266.0 735.1,266.0 736.3,266.0 737.5,266.0 738.7,266.0 739.9,266.0 741.1,266.0 742.3,266.0 743.5,266.0 744.6,266.0 745.8,266.0 747.0,266.0 748.2,266.0 749.4,266.0 750.6,266.0 751.8,266.0 752.9,266.0 754.1,266.0 755.3,266.0 756.5,266.0 757.7,266.0 758.9,266.0 760.1,266.0 761.3,266.0 762.4,266.0 763.6,266.0 764.8,266.0 766.0,266.0"/>
<line x1="606" y1="78" x2="628" y2="78" stroke="#da1e28" stroke-width="2.2"/>
<text x="634" y="82" font-family="Arial" font-size="12">yaw_deg</text>
</svg>