<svg xmlns="http://www.w3.org/2000/svg" width="820" height="320" viewBox="0 0 820 320">
<rect width="100%" height="100%" fill="#ffffff"/>
<text x="54" y="28" font-family="Arial" font-size="18" font-weight="700">Body Rates</text>
<line x1="54" y1="266" x2="766" y2="266" stroke="#1f2933"/>
<line x1="54" y1="54" x2="54" y2="266" stroke="#1f2933"/>
<text x="54" y="306" font-family="Arial" font-size="12">time (s)</text>
<text x="596" y="306" font-family="Arial" font-size="12">rate (deg/s)</text>
<text x="58" y="68" font-family="Arial" font-size="11">22.4</text>
<text x="58" y="260" font-family="Arial" font-size="11">-57.4</text>
<polyline fill="none" stroke="#0f62fe" stroke-width="2.2" points="54.0,113.5 55.2,113.5 56.4,113.5 57.6,113.5 58.7,113.5 59.9,113.5 61.1,113.5 62.3,113.5 63.5,113.5 64.7,113.5 65.9,113.5 67.1,113.5 68.2,113.5 69.4,113.5 70.6,113.5 71.8,113.5 73.0,113.5 74.2,113.5 75.4,113.5 76.5,113.5 77.7,113.5 78.9,113.5 80.1,113.5 81.3,113.5 82.5,113.5 83.7,113.5 84.9,113.5 86.0,113.5 87.2,113.5 88.4,113.5 89.6,113.5 90.8,113.5 92.0,113.5 93.2,113.5 94.3,113.5 95.5,113.5 96.7,113.5 97.9,113.5 99.1,113.5 100.3,113.5 101.5,113.5 102.7,113.5 103.8,113.5 105.0,113.5 106.2,113.5 107.4,113.5 108.6,113.5 109.8,113.5 111.0,113.5 112.1,113.5 113.3,113.5 114.5,113.5 115.7,113.5 116.9,113.5 118.1,113.5 119.3,113.5 120.5,113.5 121.6,113.5 122.8,113.5 124.0,113.5 125.2,113.5 126.4,113.5 127.6,113.5 128.8,113.5 129.9,113.5 131.1,113.5 132.3,113.5 133.5,113.5 134.7,113.5 135.9,113.5 137.1,113.5 138.3,113.5 139.4,113.5 140.6,113.5 141.8,113.5 143.0,113.5 144.2,113.5 145.4,113.5 146.6,113.5 147.7,113.5 148.9,113.5 150.1,113.5 151.3,113.5 152.5,113.5 153.7,113.5 154.9,113.5 156.1,113.5 157.2,113.5 158.4,113.5 159.6,113.5 160.8,113.5 162.0,113.5 163.2,113.5 164.4,113.5 165.5,113.5 166.7,113.5 167.9,113.5 169.1,113.5 170.3,113.5 171.5,113.5 172.7,113.5 173.9,113.5 175.0,113.5 176.2,113.5 177.4,113.5 178.6,113.5 179.8,113.5 181.0,113.5 182.2,113.5 183.3,113.5 184.5,113.5 185.7,113.5 186.9,113.5 188.1,113.5 189.3,113.5 190.5,113.5 191.7,113.5 192.8,113.5 194.0,113.5 195.2,113.5 196.4,113.5 197.6,113.5 198.8,113.5 200.0,113.5 201.1,113.5 202.3,113.5 203.5,113.5 204.7,113.5 205.9,113.5 207.1,113.5 208.3,113.5 209.5,113.5 210.6,113.5 211.8,113.5 213.0,113.5 214.2,113.5 215.4,113.5 216.6,113.5 217.8,113.5 218.9,113.5 220.1,113.5 221.3,113.5 222.5,113.5 223.7,113.5 224.9,113.5 226.1,113.5 227.3,113.5 228.4,113.5 229.6,113.5 230.8,113.5 232.0,113.5 233.2,113.5 234.4,113.5 235.6,113.5 236.7,113.5 237.9,113.5 239.1,113.5 240.3,113.5 241.5,113.5 242.7,113.5 243.9,113.5 245.1,113.5 246.2,113.5 247.4,113.5 248.6,113.5 249.8,113.5 251.0,113.5 252.2,113.5 253.4,113.5 254.5,113.5 255.7,113.5 256.9,113.5 258.1,113.5 259.3,113.5 260.5,113.5 261.7,113.5 262.9,113.5 264.0,113.5 265.2,113.5 266.4,113.5 267.6,113.5 268.8,113.5 270.0,113.5 271.2,113.5 272.3,113.5 273.5,113.5 274.7,113.5 275.9,113.5 277.1,113.5 278.3,113.5 279.5,113.5 280.7,113.5 281.8,113.5 283.0,113.5 284.2,113.5 285.4,113.5 286.6,113.5 287.8,113.5 289.0,113.5 290.1,113.5 291.3,113.5 292.5,113.5 293.7,113.5 294.9,113.5 296.1,113.5 297.3,113.5 298.5,113.5 299.6,113.5 300.8,113.5 302.0,113.5 303.2,113.5 304.4,113.5 305.6,113.5 306.8,113.5 307.9,113.5 309.1,113.5 310.3,113.5 311.5,113.5 312.7,113.5 313.9,113.5 315.1,113.5 316.3,113.5 317.4,113.5 318.6,113.5 319.8,113.5 321.0,113.5 322.2,113.5 323.4,113.5 324.6,113.5 325.7,113.5 326.9,113.5 328.1,113.5 329.3,113.5 330.5,113.5 331.7,113.5 332.9,113.5 334.1,113.5 335.2,113.5 336.4,113.5 337.6,113.5 338.8,113.5 340.0,113.5 341.2,113.5 342.4,113.5 343.5,113.5 344.7,113.5 345.9,113.5 347.1,113.5 348.3,113.5 349.5,113.5 350.7,113.5 351.9,113.5 353.0,113.5 354.2,113.5 355.4,113.5 356.6,113.5 357.8,113.5 359.0,113.5 360.2,113.5 361.3,113.5 362.5,113.5 363.7,113.5 364.9,113.5 366.1,113.5 367.3,113.5 368.5,113.5 369.7,113.5 370.8,113.5 372.0,113.5 373.2,113.5 374.4,113.5 375.6,113.5 376.8,113.5 378.0,113.5 379.1,113.5 380.3,113.5 381.5,113.5 382.7,113.5 383.9,113.5 385.1,113.5 386.3,113.5 387.5,113.5 388.6,113.5 389.8,113.5 391.0,113.5 392.2,113.5 393.4,113.5 394.6,113.5 395.8,113.5 396.9,113.5 398.1,113.5 399.3,113.5 400.5,113.5 401.7,113.5 402.9,113.5 404.1,113.5 405.3,113.5 406.4,113.5 407.6,113.5 408.8,113.5 410.0,113.5 411.2,113.5 412.4,113.5 413.6,113.5 414.7,113.5 415.9,113.5 417.1,113.5 418.3,113.5 419.5,113.5 420.7,113.5 421.9,113.5 423.1,113.5 424.2,113.5 425.4,113.5 426.6,113.5 427.8,113.5 429.0,113.5 430.2,113.5 431.4,113.5 432.5,113.5 433.7,113.5 434.9,113.5 436.1,113.5 437.3,113.5 438.5,113.5 439.7,113.5 440.9,113.5 442.0,113.5 443.2,113.5 444.4,113.5 445.6,113.5 446.8,113.5 448.0,113.5 449.2,113.5 450.3,113.5 451.5,113.5 452.7,113.5 453.9,113.5 455.1,113.5 456.3,113.5 457.5,113.5 458.7,113.5 459.8,113.5 461.0,113.5 462.2,113.5 463.4,113.5 464.6,113.5 465.8,113.5 467.0,113.5 468.1,113.5 469.3,113.5 470.5,113.5 471.7,113.5 472.9,113.5 474.1,113.5 475.3,113.5 476.5,113.5 477.6,113.5 478.8,113.5 480.0,113.5 481.2,113.5 482.4,113.5 483.6,113.5 484.8,113.5 485.9,113.5 487.1,113.5 488.3,113.5 489.5,113.5 490.7,113.5 491.9,113.5 493.1,113.5 494.3,113.5 495.4,113.5 496.6,113.5 497.8,113.5 499.0,113.5 500.2,113.5 501.4,113.5 502.6,113.5 503.7,113.5 504.9,113.5 506.1,113.5 507.3,113.5 508.5,113.5 509.7,113.5 510.9,113.5 512.1,113.5 513.2,113.5 514.4,113.5 515.6,113.5 516.8,113.5 518.0,113.5 519.2,113.5 520.4,113.5 521.5,113.5 522.7,113.5 523.9,113.5 525.1,113.5 526.3,113.5 527.5,113.5 528.7,113.5 529.9,113.5 531.0,113.5 532.2,113.5 533.4,113.5 534.6,113.5 535.8,113.5 537.0,113.5 538.2,113.5 539.3,113.5 540.5,113.5 541.7,113.5 542.9,113.5 544.1,113.5 545.3,113.5 546.5,113.5 547.7,113.5 548.8,113.5 550.0,113.5 551.2,113.5 552.4,113.5 553.6,113.5 554.8,113.5 556.0,113.5 557.1,113.5 558.3,113.5 559.5,113.5 560.7,113.5 561.9,113.5 563.1,113.5 564.3,113.5 565.5,113.5 566.6,113.5 567.8,113.5 569.0,113.5 570.2,113.5 571.4,113.5 572.6,113.5 573.8,113.5 574.9,113.5 576.1,113.5 577.3,113.5 578.5,113.5 579.7,113.5 580.9,113.5 582.1,113.5 583.3,113.5 584.4,113.5 585.6,113.5 586.8,113.5 588.0,113.5 589.2,113.5 590.4,113.5 591.6,113.5 592.7,113.5 593.9,113.5 595.1,113.5 596.3,113.5 597.5,113.5 598.7,113.5 599.9,113.5 601.1,113.5 602.2,113.5 603.4,113.5 604.6,113.5 605.8,113.5 607.0,113.5 608.2,113.5 609.4,113.5 610.5,113.5 611.7,113.5 612.9,113.5 614.1,113.5 615.3,113.5 616.5,113.5 617.7,113.5 618.9,113.5 620.0,113.5 621.2,113.5 622.4,113.5 623.6,113.5 624.8,113.5 626.0,113.5 627.2,113.5 628.3,113.5 629.5,113.5 630.7,113.5 631.9,113.5 633.1,113.5 634.3,113.5 635.5,113.5 636.7,113.5 637.8,113.5 639.0,113.5 640.2,113.5 641.4,113.5 642.6,113.5 643.8,113.5 645.0,113.5 646.1,113.5 647.3,113.5 648.5,113.5 649.7,113.5 650.9,113.5 652.1,113.5 653.3,113.5 654.5,113.5 655.6,113.5 656.8,113.5 658.0,113.5 659.2,113.5 660.4,113.5 661.6,113.5 662.8,113.5 663.9,113.5 665.1,113.5 666.3,113.5 667.5,113.5 668.7,113.5 669.9,113.5 671.1,113.5 672.3,113.5 673.4,113.5 674.6,113.5 675.8,113.5 677.0,113.5 678.2,113.5 679.4,113.5 680.6,113.5 681.7,113.5 682.9,113.5 684.1,113.5 685.3,113.5 686.5,113.5 687.7,113.5 688.9,113.5 690.1,113.5 691.2,113.5 692.4,113.5 693.6,113.5 694.8,113.5 696.0,113.5 697.2,113.5 698.4,113.5 699.5,113.5 700.7,113.5 701.9,113.5 703.1,113.5 704.3,113.5 705.5,113.5 706.7,113.5 707.9,113.5 709.0,113.5 710.2,113.5 711.4,113.5 712.6,113.5 713.8,113.5 715.0,113.5 716.2,113.5 717.3,113.5 718.5,113.5 719.7,113.5 720.9,113.5 722.1,113.5 723.3,113.5 724.5,113.5 725.7,113.5 726.8,113.5 728.0,113.5 729.2,113.5 730.4,113.5 731.6,113.5 732.8,113.5 734.0,113.5 735.1,113.5 736.3,113.5 737.5,113.5 738.7,113.5 739.9,113.5 741.1,113.5 742.3,113.5 743.5,113.5 744.6,113.5 745.8,113.5 747.0,113.5 748.2,113.5 749.4,113.5 750.6,113.5 751.8,113.5 752.9,113.5 754.1,113.5 755.3,113.5 756.5,113.5 757.7,113.5 758.9,113.5 760.1,113.5 761.3,113.5 762.4,113.5 763.6,113.5 764.8,113.5 766.0,113.5"/>
<line x1="606" y1="42" x2="628" y2="42" stroke="#0f62fe" stroke-width="2.2"/>
<text x="634" y="46" font-family="Arial" font-size="12">p_dps</text>
<polyline fill="none" stroke="#24a148" stroke-width="2.2" points="54.0,113.5 55.2,137.0 56.4,141.1 57.6,130.6 58.7,122.2 59.9,121.0 61.1,122.2 62.3,121.4 63.5,119.1 64.7,117.3 65.9,116.4 67.1,115.8 68.2,115.0 69.4,114.2 70.6,113.5 71.8,113.0 73.0,112.6 74.2,112.2 75.4,111.8 76.5,111.5 77.7,111.3 78.9,111.0 80.1,110.9 81.3,110.7 82.5,110.6 83.7,110.5 84.9,110.4 86.0,110.3 87.2,110.3 88.4,110.2 89.6,110.2 90.8,110.2 92.0,110.2 93.2,110.2 94.3,110.2 95.5,110.2 96.7,110.2 97.9,110.3 99.1,110.3 100.3,110.4 101.5,110.4 102.7,110.4 103.8,110.5 105.0,110.5 106.2,110.6 107.4,110.6 108.6,110.7 109.8,110.8 111.0,110.8 112.1,110.9 113.3,110.9 114.5,111.0 115.7,111.0 116.9,111.1 118.1,111.2 119.3,111.2 120.5,111.3 121.6,111.3 122.8,111.4 124.0,111.5 125.2,111.5 126.4,111.6 127.6,111.6 128.8,111.7 129.9,111.7 131.1,111.8 132.3,111.8 133.5,111.9 134.7,111.9 135.9,112.0 137.1,112.0 138.3,112.1 139.4,112.1 140.6,112.2 141.8,112.2 143.0,112.3 144.2,112.3 145.4,112.4 146.6,112.4 147.7,112.5 148.9,112.5 150.1,112.6 151.3,113.0 152.5,113.1 153.7,113.3 154.9,113.5 156.1,113.6 157.2,113.8 158.4,113.9 159.6,114.0 160.8,114.2 162.0,114.3 163.2,114.4 164.4,114.5 165.5,114.5 166.7,114.6 167.9,114.7 169.1,114.8 170.3,114.8 171.5,114.9 172.7,115.0 173.9,115.0 175.0,115.1 176.2,115.1 177.4,115.2 178.6,115.2 179.8,115.3 181.0,115.3 182.2,115.3 183.3,115.4 184.5,115.4 185.7,115.4 186.9,115.5 188.1,115.5 189.3,115.5 190.5,115.6 191.7,115.5 192.8,115.6 194.0,115.5 195.2,115.7 196.4,115.5 197.6,116.0 198.8,115.2 200.0,116.6 201.1,114.1 202.3,118.6 203.5,110.5 204.7,125.5 205.9,97.5 207.1,150.6 208.3,82.7 209.5,139.3 210.6,76.8 211.8,141.4 213.0,82.9 214.2,150.0 215.4,88.9 216.6,153.3 217.8,87.3 218.9,150.1 220.1,82.5 221.3,147.4 222.5,81.0 223.7,149.1 224.9,82.9 226.1,152.1 227.3,84.1 228.4,153.0 229.6,82.9 230.8,152.2 232.0,81.2 233.2,152.2 234.4,80.9 235.6,153.4 236.7,81.3 237.9,154.7 239.1,81.1 240.3,155.1 241.5,80.2 242.7,155.3 243.9,79.6 245.1,155.9 246.2,79.4 247.4,156.8 248.6,79.1 249.8,157.5 251.0,78.6 252.2,158.0 253.4,78.1 254.5,158.6 255.7,77.7 256.9,159.3 258.1,77.3 259.3,159.9 260.5,76.9 261.7,160.6 262.9,76.4 264.0,161.2 265.2,75.9 266.4,161.8 267.6,75.5 268.8,162.5 270.0,75.1 271.2,162.7 272.3,75.1 273.5,162.7 274.7,75.1 275.9,162.7 277.1,75.1 278.3,162.7 279.5,75.1 280.7,162.7 281.8,75.1 283.0,162.7 284.2,75.1 285.4,158.7 286.6,71.1 287.8,158.7 289.0,71.1 290.1,158.7 291.3,71.1 292.5,158.7 293.7,246.4 294.9,266.0 296.1,205.2 297.3,118.2 298.5,59.6 299.6,54.0 300.8,90.6 302.0,138.1 303.2,167.4 304.4,166.9 305.6,144.8 306.8,119.3 307.9,105.7 309.1,108.4 310.3,121.7 311.5,135.1 312.7,141.1 313.9,138.2 315.1,130.5 316.3,123.7 317.4,121.6 318.6,124.1 319.8,128.6 321.0,131.9 322.2,132.4 323.4,130.7 324.6,128.3 325.7,126.9 326.9,127.1 328.1,128.3 329.3,129.6 330.5,130.2 331.7,129.9 332.9,129.3 334.1,128.7 335.2,128.6 336.4,128.9 337.6,129.3 338.8,129.6 340.0,129.7 341.2,129.5 342.4,129.4 343.5,129.3 344.7,129.4 345.9,129.6 347.1,129.7 348.3,129.8 349.5,129.7 350.7,129.7 351.9,129.7 353.0,129.8 354.2,129.8 355.4,129.9 356.6,130.0 357.8,130.0 359.0,130.0 360.2,130.0 361.3,130.1 362.5,130.1 363.7,130.2 364.9,130.2 366.1,130.2 367.3,130.2 368.5,130.3 369.7,130.3 370.8,130.3 372.0,130.4 373.2,130.4 374.4,130.5 375.6,130.5 376.8,130.5 378.0,130.5 379.1,130.6 380.3,130.6 381.5,130.7 382.7,130.7 383.9,130.7 385.1,130.7 386.3,130.8 387.5,130.8 388.6,130.8 389.8,130.9 391.0,130.9 392.2,130.9 393.4,131.0 394.6,131.0 395.8,131.0 396.9,131.1 398.1,131.1 399.3,131.1 400.5,131.2 401.7,131.2 402.9,131.2 404.1,131.2 405.3,131.3 406.4,131.3 407.6,131.3 408.8,131.4 410.0,131.4 411.2,131.4 412.4,131.4 413.6,131.5 414.7,131.5 415.9,131.5 417.1,131.6 418.3,131.6 419.5,131.6 420.7,131.6 421.9,131.7 423.1,131.7 424.2,131.7 425.4,131.7 426.6,131.8 427.8,131.8 429.0,131.8 430.2,131.8 431.4,131.9 432.5,131.9 433.7,131.9 434.9,131.9 436.1,132.0 437.3,132.0 438.5,132.0 439.7,132.0 440.9,132.1 442.0,132.1 443.2,132.1 444.4,132.1 445.6,132.2 446.8,132.2 448.0,132.2 449.2,132.2 450.3,132.2 451.5,132.3 452.7,132.3 453.9,132.3 455.1,132.3 456.3,132.4 457.5,132.4 458.7,132.4 459.8,132.4 461.0,132.4 462.2,132.5 463.4,132.5 464.6,132.5 465.8,132.5 467.0,132.6 468.1,132.6 469.3,132.6 470.5,132.6 471.7,132.6 472.9,132.7 474.1,132.7 475.3,132.7 476.5,132.7 477.6,132.7 478.8,132.8 480.0,132.8 481.2,132.8 482.4,132.8 483.6,132.8 484.8,132.9 485.9,132.9 487.1,132.9 488.3,132.9 489.5,132.9 490.7,133.0 491.9,133.0 493.1,133.0 494.3,133.0 495.4,133.0 496.6,133.0 497.8,133.1 499.0,133.1 500.2,133.1 501.4,133.1 502.6,133.1 503.7,133.2 504.9,133.2 506.1,133.2 507.3,133.2 508.5,133.2 509.7,133.2 510.9,133.3 512.1,133.3 513.2,133.3 514.4,133.3 515.6,133.3 516.8,133.4 518.0,133.4 519.2,133.4 520.4,133.4 521.5,133.4 522.7,133.4 523.9,133.5 525.1,133.5 526.3,133.5 527.5,133.5 528.7,133.5 529.9,133.5 531.0,133.6 532.2,133.6 533.4,133.6 534.6,133.6 535.8,133.6 537.0,133.6 538.2,133.7 539.3,133.7 540.5,133.7 541.7,133.7 542.9,133.7 544.1,133.7 545.3,133.8 546.5,133.8 547.7,133.8 548.8,133.8 550.0,133.8 551.2,133.8 552.4,133.8 553.6,133.9 554.8,133.9 556.0,133.9 557.1,133.9 558.3,133.9 559.5,133.9 560.7,134.0 561.9,134.0 563.1,134.0 564.3,134.0 565.5,134.0 566.6,134.0 567.8,134.1 569.0,134.1 570.2,134.1 571.4,133.2 572.6,132.2 573.8,131.8 574.9,132.0 576.1,132.5 577.3,132.7 578.5,132.6 579.7,132.3 580.9,132.0 582.1,131.8 583.3,131.8 584.4,131.9 585.6,131.9 586.8,131.8 588.0,131.7 589.2,131.5 590.4,131.4 591.6,131.3 592.7,131.2 593.9,131.2 595.1,131.2 596.3,131.1 597.5,131.0 598.7,130.9 599.9,130.8 601.1,130.8 602.2,130.7 603.4,130.7 604.6,130.6 605.8,130.5 607.0,130.4 608.2,130.4 609.4,130.3 610.5,130.2 611.7,130.2 612.9,130.1 614.1,130.0 615.3,130.0 616.5,129.9 617.7,129.8 618.9,129.8 620.0,129.7 621.2,129.7 622.4,129.6 623.6,129.5 624.8,129.5 626.0,129.4 627.2,129.3 628.3,129.3 629.5,129.2 630.7,129.2 631.9,129.1 633.1,129.0 634.3,129.0 635.5,128.9 636.7,128.9 637.8,128.8 639.0,128.7 640.2,128.7 641.4,128.6 642.6,128.6 643.8,128.5 645.0,128.5 646.1,128.4 647.3,128.3 648.5,128.3 649.7,128.2 650.9,128.2 652.1,128.1 653.3,128.1 654.5,128.0 655.6,128.0 656.8,127.9 658.0,127.8 659.2,127.8 660.4,127.7 661.6,127.7 662.8,127.6 663.9,127.6 665.1,127.5 666.3,127.5 667.5,127.4 668.7,127.4 669.9,127.3 671.1,127.3 672.3,127.2 673.4,127.2 674.6,127.1 675.8,127.1 677.0,127.0 678.2,127.0 679.4,126.9 680.6,126.9 681.7,126.8 682.9,126.8 684.1,126.7 685.3,126.7 686.5,126.6 687.7,126.6 688.9,126.5 690.1,126.5 691.2,126.4 692.4,126.4 693.6,126.3 694.8,126.3 696.0,126.3 697.2,126.2 698.4,126.2 699.5,126.1 700.7,126.1 701.9,126.0 703.1,126.0 704.3,125.9 705.5,125.9 706.7,125.9 707.9,125.8 709.0,125.8 710.2,125.7 711.4,125.7 712.6,125.6 713.8,125.6 715.0,125.6 716.2,125.5 717.3,125.5 718.5,125.4 719.7,125.4 720.9,125.4 722.1,125.3 723.3,125.3 724.5,125.2 725.7,125.2 726.8,125.2 728.0,125.1 729.2,125.1 730.4,125.0 731.6,125.0 732.8,125.0 734.0,124.9 735.1,124.9 736.3,124.8 737.5,124.8 738.7,124.8 739.9,124.7 741.1,124.7 742.3,124.7 743.5,124.6 744.6,124.6 745.8,124.6 747.0,124.5 748.2,124.5 749.4,124.4 750.6,124.4 751.8,124.4 752.9,124.3 754.1,124.3 755.3,124.3 756.5,124.2 757.7,124.2 758.9,124.2 760.1,124.1 761.3,124.1 762.4,124.1 763.6,124.0 764.8,124.0 766.0,124.0"/>
<line x1="606" y1="60" x2="628" y2="60" stroke="#24a148" stroke-width="2.2"/>
<text x="634" y="64" font-family="Arial" font-size="12">q_dps</text>
<polyline fill="none" stroke="#da1e28" stroke-width="2.2" points="54.0,113.5 55.2,113.5 56.4,113.5 57.6,113.5 58.7,113.5 59.9,113.5 61.1,113.5 62.3,113.5 63.5,113.5 64.7,113.5 65.9,113.5 67.1,113.5 68.2,113.5 69.4,113.5 70.6,113.5 71.8,113.5 73.0,113.5 74.2,113.5 75.4,113.5 76.5,113.5 77.7,113.5 78.9,113.5 80.1,113.5 81.3,113.5 82.5,113.5 83.7,113.5 84.9,113.5 86.0,113.5 87.2,113.5 88.4,113.5 89.6,113.5 90.8,113.5 92.0,113.5 93.2,113.5 94.3,113.5 95.5,113.5 96.7,113.5 97.9,113.5 99.1,113.5 100.3,113.5 101.5,113.5 102.7,113.5 103.8,113.5 105.0,113.5 106.2,113.5 107.4,113.5 108.6,113.5 109.8,113.5 111.0,113.5 112.1,113.5 113.3,113.5 114.5,113.5 115.7,113.5 116.9,113.5 118.1,113.5 119.3,113.5 120.5,113.5 121.6,113.5 122.8,113.5 124.0,113.5 125.2,113.5 126.4,113.5 127.6,113.5 128.8,113.5 129.9,113.5 131.1,113.5 132.3,113.5 133.5,113.5 134.7,113.5 135.9,113.5 137.1,113.5 138.3,113.5 139.4,113.5 140.6,113.5 141.8,113.5 143.0,113.5 144.2,113.5 145.4,113.5 146.6,113.5 147.7,113.5 148.9,113.5 150.1,113.5 151.3,113.5 152.5,113.5 153.7,113.5 154.9,113.5 156.1,113.5 157.2,113.5 158.4,113.5 159.6,113.5 160.8,113.5 162.0,113.5 163.2,113.5 164.4,113.5 165.5,113.5 166.7,113.5 167.9,113.5 169.1,113.5 170.3,113.5 171.5,113.5 172.7,113.5 173.9,113.5 175.0,113.5 176.2,113.5 177.4,113.5 178.6,113.5 179.8,113.5 181.0,113.5 182.2,113.5 183.3,113.5 184.5,113.5 185.7,113.5 186.9,113.5 188.1,113.5 189.3,113.5 190.5,113.5 191.7,113.5 192.8,113.5 194.0,113.5 195.2,113.5 196.4,113.5 197.6,113.5 198.8,113.5 200.0,113.5 201.1,113.5 202.3,113.5 203.5,113.5 204.7,113.5 205.9,113.5 207.1,113.5 208.3,113.5 209.5,113.5 210.6,113.5 211.8,113.5 213.0,113.5 214.2,113.5 215.4,113.5 216.6,113.5 217.8,113.5 218.9,113.5 220.1,113.5 221.3,113.5 222.5,113.5 223.7,113.5 224.9,113.5 226.1,113.5 227.3,113.5 228.4,113.5 229.6,113.5 230.8,113.5 232.0,113.5 233.2,113.5 234.4,113.5 235.6,113.5 236.7,113.5 237.9,113.5 239.1,113.5 240.3,113.5 241.5,113.5 242.7,113.5 243.9,113.5 245.1,113.5 246.2,113.5 247.4,113.5 248.6,113.5 249.8,113.5 251.0,113.5 252.2,113.5 253.4,113.5 254.5,113.5 255.7,113.5 256.9,113.5 258.1,113.5 259.3,113.5 260.5,113.5 261.7,113.5 262.9,113.5 264.0,113.5 265.2,113.5 266.4,113.5 267.6,113.5 268.8,113.5 270.0,113.5 271.2,113.5 272.3,113.5 273.5,113.5 274.7,113.5 275.9,113.5 277.1,113.5 278.3,113.5 279.5,113.5 280.7,113.5 281.8,113.5 283.0,113.5 284.2,113.5 285.4,113.5 286.6,113.5 287.8,113.5 289.0,113.5 290.1,113.5 291.3,113.5 292.5,113.5 293.7,113.5 294.9,113.5 296.1,113.5 297.3,113.5 298.5,113.5 299.6,113.5 300.8,113.5 302.0,113.5 303.2,113.5 304.4,113.5 305.6,113.5 306.8,113.5 307.9,113.5 309.1,113.5 310.3,113.5 311.5,113.5 312.7,113.5 313.9,113.5 315.1,113.5 316.3,113.5 317.4,113.5 318.6,113.5 319.8,113.5 321.0,113.5 322.2,113.5 323.4,113.5 324.6,113.5 325.7,113.5 326.9,113.5 328.1,113.5 329.3,113.5 330.5,113.5 331.7,113.5 332.9,113.5 334.1,113.5 335.2,113.5 336.4,113.5 337.6,113.5 338.8,113.5 340.0,113.5 341.2,113.5 342.4,113.5 343.5,113.5 344.7,113.5 345.9,113.5 347.1,113.5 348.3,113.5 349.5,113.5 350.7,113.5 351.9,113.5 353.0,113.5 354.2,113.5 355.4,113.5 356.6,113.5 357.8,113.5 359.0,113.5 360.2,113.5 361.3,113.5 362.5,113.5 363.7,113.5 364.9,113.5 366.1,113.5 367.3,113.5 368.5,113.5 369.7,113.5 370.8,113.5 372.0,113.5 373.2,113.5 374.4,113.5 375.6,113.5 376.8,113.5 378.0,113.5 379.1,113.5 380.3,113.5 381.5,113.5 382.7,113.5 383.9,113.5 385.1,113.5 386.3,113.5 387.5,113.5 388.6,113.5 389.8,113.5 391.0,113.5 392.2,113.5 393.4,113.5 394.6,113.5 395.8,113.5 396.9,113.5 398.1,113.5 399.3,113.5 400.5,113.5 401.7,113.5 402.9,113.5 404.1,113.5 405.3,113.5 406.4,113.5 407.6,113.5 408.8,113.5 410.0,113.5 411.2,113.5 412.4,113.5 413.6,113.5 414.7,113.5 415.9,113.5 417.1,113.5 418.3,113.5 419.5,113.5 420.7,113.5 421.9,113.5 423.1,113.5 424.2,113.5 425.4,113.5 426.6,113.5 427.8,113.5 429.0,113.5 430.2,113.5 431.4,113.5 432.5,113.5 433.7,113.5 434.9,113.5 436.1,113.5 437.3,113.5 438.5,113.5 439.7,113.5 440.9,113.5 442.0,113.5 443.2,113.5 444.4,113.5 445.6,113.5 446.8,113.5 448.0,113.5 449.2,113.5 450.3,113.5 451.5,113.5 452.7,113.5 453.9,113.5 455.1,113.5 456.3,113.5 457.5,113.5 458.7,113.5 459.8,113.5 461.0,113.5 462.2,113.5 463.4,113.5 464.6,113.5 465.8,113.5 467.0,113.5 468.1,113.5 469.3,113.5 470.5,113.5 471.7,113.5 472.9,113.5 474.1,113.5 475.3,113.5 476.5,113.5 477.6,113.5 478.8,113.5 480.0,113.5 481.2,113.5 482.4,113.5 483.6,113.5 484.8,113.5 485.9,113.5 487.1,113.5 488.3,113.5 489.5,113.5 490.7,113.5 491.9,113.5 493.1,113.5 494.3,113.5 495.4,113.5 496.6,113.5 497.8,113.5 499.0,113.5 500.2,113.5 501.4,113.5 502.6,113.5 503.7,113.5 504.9,113.5 506.1,113.5 507.3,113.5 508.5,113.5 509.7,113.5 510.9,113.5 512.1,113.5 513.2,113.5 514.4,113.5 515.6,113.5 516.8,113.5 518.0,113.5 519.2,113.5 520.4,113.5 521.5,113.5 522.7,113.5 523.9,113.5 525.1,113.5 526.3,113.5 527.5,113.5 528.7,113.5 529.9,113.5 531.0,113.5 532.2,113.5 533.4,113.5 534.6,113.5 535.8,113.5 537.0,113.5 538.2,113.5 539.3,113.5 540.5,113.5 541.7,113.5 542.9,113.5 544.1,113.5 545.3,113.5 546.5,113.5 547.7,113.5 548.8,113.5 550.0,113.5 551.2,113.5 552.4,113.5 553.6,113.5 554.8,113.5 556.0,113.5 557.1,113.5 558.3,113.5 559.5,113.5 560.7,113.5 561.9,113.5 563.1,113.5 564.3,113.5 565.5,113.5 566.6,113.5 567.8,113.5 569.0,113.5 570.2,113.5 571.4,113.5 572.6,113.5 573.8,113.5 574.9,113.5 576.1,113.5 577.3,113.5 578.5,113.5 579.7,113.5 580.9,113.5 582.1,113.5 583.3,113.5 584.4,113.5 585.6,113.5 586.8,113.5 588.0,113.5 589.2,113.5 590.4,113.5 591.6,113.5 592.7,113.5 593.9,113.5 595.1,113.5 596.3,113.5 597.5,113.5 598.7,113.5 599.9,113.5 601.1,113.5 602.2,113.5 603.4,113.5 604.6,113.5 605.8,113.5 607.0,113.5 608.2,113.5 609.4,113.5 610.5,113.5 611.7,113.5 612.9,113.5 614.1,113.5 615.3,113.5 616.5,113.5 617.7,113.5 618.9,113.5 620.0,113.5 621.2,113.5 622.4,113.5 623.6,113.5 624.8,113.5 626.0,113.5 627.2,113.5 628.3,113.5 629.5,113.5 630.7,113.5 631.9,113.5 633.1,113.5 634.3,113.5 635.5,113.5 636.7,113.5 637.8,113.5 639.0,113.5 640.2,113.5 641.4,113.5 642.6,113.5 643.8,113.5 645.0,113.5 646.1,113.5 647.3,113.5 648.5,113.5 649.7,113.5 650.9,113.5 652.1,113.5 653.3,113.5 654.5,113.5 655.6,113.5 656.8,113.5 658.0,113.5 659.2,113.5 660.4,113.5 661.6,113.5 662.8,113.5 663.9,113.5 665.1,113.5 666.3,113.5 667.5,113.5 668.7,113.5 669.9,113.5 671.1,113.5 672.3,113.5 673.4,113.5 674.6,113.5 675.8,113.5 677.0,113.5 678.2,113.5 679.4,113.5 680.6,113.5 681.7,113.5 682.9,113.5 684.1,113.5 685.3,113.5 686.5,113.5 687.7,113.5 688.9,113.5 690.1,113.5 691.2,113.5 692.4,113.5 693.6,113.5 694.8,113.5 696.0,113.5 697.2,113.5 698.4,113.5 699.5,113.5 700.7,113.5 701.9,113.5 703.1,113.5 704.3,113.5 705.5,113.5 706.7,113.5 707.9,113.5 709.0,113.5 710.2,113.5 711.4,113.5 712.6,113.5 713.8,113.5 715.0,113.5 716.2,113.5 717.3,113.5 718.5,113.5 719.7,113.5 720.9,113.5 722.1,113.5 723.3,113.5 724.5,113.5 725.7,113.5 726.8,113.5 728.0,113.5 729.2,113.5 730.4,113.5 731.6,113.5 732.8,113.5 734.0,113.5 735.1,113.5 736.3,113.5 737.5,113.5 738.7,113.5 739.9,113.5 741.1,113.5 742.3,113.5 743.5,113.5 744.6,113.5 745.8,113.5 747.0,113.5 748.2,113.5 749.4,113.5 750.6,113.5 751.8,113.5 752.9,113.5 754.1,113.5 755.3,113.5 756.5,113.5 757.7,113.5 758.9,113.5 760.1,113.5 761.3,113.5 762.4,113.5 763.6,113.5 764.8,113.5 766.0,113.5"/>
<line x1="606" y1="78" x2="628" y2="78" stroke="#da1e28" stroke-width="2.2"/>
<text x="634" y="82" font-family="Arial" font-size="12">r_dps</text>
</svg>