<svg xmlns="http://www.w3.org/2000/svg" width="820" height="320" viewBox="0 0 820 320">
<rect width="100%" height="100%" fill="#ffffff"/>
<text x="54" y="28" font-family="Arial" font-size="18" font-weight="700">Dynamic Pressure</text>
<line x1="54" y1="266" x2="766" y2="266" stroke="#1f2933"/>
<line x1="54" y1="54" x2="54" y2="266" stroke="#1f2933"/>
<text x="54" y="306" font-family="Arial" font-size="12">time (s)</text>
<text x="596" y="306" font-family="Arial" font-size="12">qbar (Pa)</text>
<text x="58" y="68" font-family="Arial" font-size="11">2.7e+04</text>
<text x="58" y="260" font-family="Arial" font-size="11">4.46e+03</text>
<polyline fill="none" stroke="#0f62fe" stroke-width="2.2" points="54.0,266.0 55.2,265.5 56.4,265.0 57.6,264.5 58.7,264.0 59.9,263.5 61.1,263.0 62.3,262.4 63.5,261.9 64.7,261.3 65.9,260.7 67.1,260.1 68.2,259.5 69.4,258.9 70.6,258.2 71.8,257.6 73.0,256.9 74.2,256.3 75.4,255.6 76.5,255.0 77.7,254.3 78.9,253.6 80.1,253.0 81.3,252.3 82.5,251.6 83.7,251.0 84.9,250.3 86.0,249.6 87.2,248.9 88.4,248.2 89.6,247.5 90.8,246.8 92.0,246.1 93.2,245.4 94.3,244.7 95.5,244.0 96.7,243.3 97.9,242.6 99.1,241.9 100.3,241.2 101.5,240.4 102.7,239.7 103.8,239.0 105.0,238.2 106.2,237.5 107.4,236.8 108.6,236.0 109.8,235.3 111.0,234.5 112.1,233.8 113.3,233.0 114.5,232.3 115.7,231.5 116.9,230.7 118.1,230.0 119.3,229.2 120.5,228.4 121.6,227.7 122.8,226.9 124.0,226.1 125.2,225.3 126.4,224.6 127.6,223.8 128.8,223.0 129.9,222.2 131.1,221.4 132.3,220.6 133.5,219.8 134.7,219.0 135.9,218.2 137.1,217.4 138.3,216.6 139.4,215.8 140.6,215.0 141.8,214.1 143.0,213.3 144.2,212.5 145.4,211.7 146.6,210.9 147.7,210.0 148.9,209.2 150.1,208.4 151.3,207.5 152.5,206.7 153.7,205.9 154.9,205.0 156.1,204.2 157.2,203.4 158.4,202.5 159.6,201.7 160.8,200.8 162.0,200.0 163.2,199.1 164.4,198.3 165.5,197.4 166.7,196.6 167.9,195.7 169.1,194.8 170.3,194.0 171.5,193.1 172.7,192.3 173.9,191.4 175.0,190.5 176.2,189.7 177.4,188.8 178.6,187.9 179.8,187.1 181.0,186.2 182.2,185.3 183.3,184.5 184.5,183.6 185.7,182.7 186.9,181.8 188.1,181.0 189.3,180.1 190.5,179.2 191.7,178.3 192.8,177.5 194.0,176.6 195.2,175.7 196.4,174.8 197.6,173.9 198.8,173.0 200.0,172.2 201.1,171.3 202.3,170.4 203.5,169.5 204.7,168.6 205.9,167.7 207.1,166.8 208.3,166.0 209.5,165.1 210.6,164.2 211.8,163.3 213.0,162.4 214.2,161.5 215.4,160.6 216.6,159.7 217.8,158.8 218.9,157.9 220.1,157.0 221.3,156.1 222.5,155.2 223.7,154.3 224.9,153.4 226.1,152.5 227.3,151.6 228.4,150.7 229.6,149.8 230.8,148.9 232.0,148.0 233.2,147.1 234.4,146.2 235.6,145.3 236.7,144.4 237.9,143.5 239.1,142.7 240.3,141.7 241.5,140.9 242.7,140.0 243.9,139.1 245.1,138.2 246.2,137.3 247.4,136.4 248.6,135.5 249.8,134.6 251.0,133.7 252.2,132.8 253.4,131.9 254.5,131.0 255.7,130.2 256.9,129.3 258.1,128.4 259.3,127.5 260.5,126.6 261.7,125.7 262.9,124.9 264.0,124.0 265.2,123.1 266.4,122.2 267.6,121.3 268.8,120.4 270.0,119.6 271.2,118.7 272.3,117.8 273.5,116.9 274.7,116.1 275.9,115.2 277.1,114.4 278.3,113.5 279.5,112.6 280.7,111.7 281.8,110.9 283.0,110.0 284.2,109.2 285.4,108.3 286.6,107.4 287.8,106.5 289.0,105.7 290.1,104.8 291.3,104.0 292.5,103.1 293.7,102.2 294.9,101.5 296.1,100.9 297.3,100.4 298.5,100.0 299.6,99.4 300.8,98.7 302.0,98.0 303.2,97.4 304.4,96.7 305.6,96.2 306.8,95.6 307.9,95.0 309.1,94.5 310.3,93.9 311.5,93.3 312.7,92.7 313.9,92.1 315.1,91.5 316.3,91.0 317.4,90.4 318.6,89.9 319.8,89.3 321.0,88.7 322.2,88.2 323.4,87.6 324.6,87.1 325.7,86.6 326.9,86.0 328.1,85.5 329.3,85.0 330.5,84.5 331.7,83.9 332.9,83.4 334.1,82.9 335.2,82.4 336.4,81.9 337.6,81.4 338.8,80.9 340.0,80.5 341.2,80.0 342.4,79.5 343.5,79.0 344.7,78.5 345.9,78.1 347.1,77.6 348.3,77.2 349.5,76.7 350.7,76.2 351.9,75.8 353.0,75.4 354.2,74.9 355.4,74.5 356.6,74.0 357.8,73.6 359.0,73.2 360.2,72.8 361.3,72.4 362.5,72.0 363.7,71.5 364.9,71.1 366.1,70.7 367.3,70.4 368.5,70.0 369.7,69.6 370.8,69.2 372.0,68.8 373.2,68.4 374.4,68.1 375.6,67.7 376.8,67.4 378.0,67.0 379.1,66.7 380.3,66.3 381.5,66.0 382.7,65.7 383.9,65.3 385.1,65.0 386.3,64.7 387.5,64.4 388.6,64.1 389.8,63.8 391.0,63.5 392.2,63.2 393.4,62.9 394.6,62.6 395.8,62.4 396.9,62.1 398.1,61.8 399.3,61.6 400.5,61.3 401.7,61.0 402.9,60.8 404.1,60.6 405.3,60.3 406.4,60.1 407.6,59.9 408.8,59.6 410.0,59.4 411.2,59.2 412.4,59.0 413.6,58.8 414.7,58.6 415.9,58.4 417.1,58.2 418.3,58.0 419.5,57.8 420.7,57.6 421.9,57.5 423.1,57.3 424.2,57.1 425.4,57.0 426.6,56.8 427.8,56.7 429.0,56.5 430.2,56.4 431.4,56.3 432.5,56.1 433.7,56.0 434.9,55.9 436.1,55.7 437.3,55.6 438.5,55.5 439.7,55.4 440.9,55.3 442.0,55.2 443.2,55.1 444.4,55.0 445.6,54.9 446.8,54.8 448.0,54.8 449.2,54.7 450.3,54.6 451.5,54.6 452.7,54.5 453.9,54.4 455.1,54.4 456.3,54.3 457.5,54.3 458.7,54.2 459.8,54.2 461.0,54.2 462.2,54.1 463.4,54.1 464.6,54.1 465.8,54.1 467.0,54.0 468.1,54.0 469.3,54.0 470.5,54.0 471.7,54.0 472.9,54.0 474.1,54.0 475.3,54.0 476.5,54.0 477.6,54.0 478.8,54.1 480.0,54.1 481.2,54.1 482.4,54.1 483.6,54.2 484.8,54.2 485.9,54.2 487.1,54.3 488.3,54.3 489.5,54.4 490.7,54.4 491.9,54.5 493.1,54.5 494.3,54.6 495.4,54.6 496.6,54.7 497.8,54.8 499.0,54.9 500.2,54.9 501.4,55.0 502.6,55.1 503.7,55.2 504.9,55.3 506.1,55.3 507.3,55.4 508.5,55.5 509.7,55.6 510.9,55.7 512.1,55.8 513.2,55.9 514.4,56.0 515.6,56.2 516.8,56.3 518.0,56.4 519.2,56.5 520.4,56.6 521.5,56.7 522.7,56.9 523.9,57.0 525.1,57.1 526.3,57.3 527.5,57.4 528.7,57.5 529.9,57.7 531.0,57.8 532.2,58.0 533.4,58.1 534.6,58.3 535.8,58.4 537.0,58.6 538.2,58.7 539.3,58.9 540.5,59.0 541.7,59.2 542.9,59.4 544.1,59.5 545.3,59.7 546.5,59.9 547.7,60.1 548.8,60.2 550.0,60.4 551.2,60.6 552.4,60.8 553.6,60.9 554.8,61.1 556.0,61.3 557.1,61.5 558.3,61.7 559.5,61.9 560.7,62.1 561.9,62.3 563.1,62.5 564.3,62.7 565.5,62.9 566.6,63.1 567.8,63.3 569.0,63.5 570.2,65.3 571.4,67.1 572.6,68.9 573.8,70.7 574.9,72.4 576.1,74.2 577.3,75.9 578.5,77.6 579.7,79.3 580.9,81.0 582.1,82.6 583.3,84.3 584.4,85.9 585.6,87.5 586.8,89.1 588.0,90.7 589.2,92.3 590.4,93.9 591.6,95.4 592.7,97.0 593.9,98.5 595.1,100.0 596.3,101.6 597.5,103.1 598.7,104.5 599.9,106.0 601.1,107.5 602.2,108.9 603.4,110.4 604.6,111.8 605.8,113.2 607.0,114.6 608.2,116.0 609.4,117.4 610.5,118.8 611.7,120.2 612.9,121.5 614.1,122.9 615.3,124.2 616.5,125.5 617.7,126.8 618.9,128.1 620.0,129.4 621.2,130.7 622.4,132.0 623.6,133.3 624.8,134.5 626.0,135.8 627.2,137.0 628.3,138.2 629.5,139.5 630.7,140.7 631.9,141.9 633.1,143.1 634.3,144.3 635.5,145.4 636.7,146.6 637.8,147.8 639.0,148.9 640.2,150.1 641.4,151.2 642.6,152.3 643.8,153.4 645.0,154.5 646.1,155.6 647.3,156.7 648.5,157.8 649.7,158.9 650.9,160.0 652.1,161.0 653.3,162.1 654.5,163.1 655.6,164.2 656.8,165.2 658.0,166.2 659.2,167.3 660.4,168.3 661.6,169.3 662.8,170.3 663.9,171.3 665.1,172.2 666.3,173.2 667.5,174.2 668.7,175.1 669.9,176.1 671.1,177.1 672.3,178.0 673.4,178.9 674.6,179.9 675.8,180.8 677.0,181.7 678.2,182.6 679.4,183.5 680.6,184.4 681.7,185.3 682.9,186.2 684.1,187.1 685.3,187.9 686.5,188.8 687.7,189.7 688.9,190.5 690.1,191.4 691.2,192.2 692.4,193.0 693.6,193.9 694.8,194.7 696.0,195.5 697.2,196.3 698.4,197.1 699.5,197.9 700.7,198.7 701.9,199.5 703.1,200.3 704.3,201.1 705.5,201.9 706.7,202.6 707.9,203.4 709.0,204.2 710.2,204.9 711.4,205.7 712.6,206.4 713.8,207.2 715.0,207.9 716.2,208.6 717.3,209.4 718.5,210.1 719.7,210.8 720.9,211.5 722.1,212.2 723.3,212.9 724.5,213.6 725.7,214.3 726.8,215.0 728.0,215.7 729.2,216.3 730.4,217.0 731.6,217.7 732.8,218.4 734.0,219.0 735.1,219.7 736.3,220.3 737.5,221.0 738.7,221.6 739.9,222.3 741.1,222.9 742.3,223.5 743.5,224.1 744.6,224.8 745.8,225.4 747.0,226.0 748.2,226.6 749.4,227.2 750.6,227.8 751.8,228.4 752.9,229.0 754.1,229.6 755.3,230.2 756.5,230.8 757.7,231.3 758.9,231.9 760.1,232.5 761.3,233.1 762.4,233.6 763.6,234.2 764.8,234.7 766.0,235.3"/>
<line x1="606" y1="42" x2="628" y2="42" stroke="#0f62fe" stroke-width="2.2"/>
<text x="634" y="46" font-family="Arial" font-size="12">qbar_pa</text>
</svg>