<svg xmlns="http://www.w3.org/2000/svg" width="820" height="320" viewBox="0 0 820 320">
<rect width="100%" height="100%" fill="#ffffff"/>
<text x="54" y="28" font-family="Arial" font-size="18" font-weight="700">Downrange/Crossrange</text>
<line x1="54" y1="266" x2="766" y2="266" stroke="#1f2933"/>
<line x1="54" y1="54" x2="54" y2="266" stroke="#1f2933"/>
<text x="54" y="306" font-family="Arial" font-size="12">downrange (m)</text>
<text x="596" y="306" font-family="Arial" font-size="12">crossrange (m)</text>
<text x="58" y="68" font-family="Arial" font-size="11">258</text>
<text x="58" y="260" font-family="Arial" font-size="11">141</text>
<polyline fill="none" stroke="#0f62fe" stroke-width="2.2" points="54.0,69.1 57.8,69.3 61.6,69.6 65.4,69.8 69.2,70.0 72.9,70.2 76.7,70.4 80.4,70.6 84.1,70.8 87.8,70.9 91.5,71.0 95.1,71.1 98.8,71.3 102.4,71.5 106.1,71.7 109.7,71.9 113.3,72.2 116.9,72.5 120.5,72.7 124.0,72.8 127.4,72.8 130.8,72.8 134.1,72.8 137.4,72.7 140.7,72.6 143.9,72.4 147.0,72.2 150.1,72.1 153.2,71.8 156.2,71.6 159.2,71.4 162.1,71.2 164.9,70.9 167.7,70.7 170.5,70.4 173.2,70.2 175.9,69.9 178.5,69.7 181.1,69.4 183.6,69.2 186.1,68.9 188.5,68.7 190.9,68.5 193.2,68.2 195.5,68.0 197.8,67.8 200.0,67.6 202.2,67.3 204.3,67.1 206.4,66.8 208.5,66.6 210.5,66.3 212.5,66.1 214.5,65.8 216.4,65.5 218.3,65.2 220.2,64.9 222.0,64.6 223.8,64.2 225.5,63.9 227.2,63.6 228.9,63.3 230.5,63.0 232.1,62.7 233.7,62.5 235.2,62.2 236.8,62.0 238.3,61.7 239.8,61.4 241.3,61.1 242.8,60.8 244.2,60.5 245.6,60.3 247.0,60.0 248.4,59.7 249.7,59.4 251.0,59.2 252.2,58.9 253.5,58.7 254.7,58.4 256.0,58.2 257.2,58.0 258.4,57.8 259.6,57.6 260.7,57.4 261.9,57.3 263.0,57.1 264.1,56.9 265.1,56.8 266.2,56.7 267.2,56.5 268.1,56.4 269.1,56.3 270.0,56.2 270.9,56.1 271.8,56.0 272.7,55.9 273.6,55.7 274.4,55.5 275.2,55.3 276.0,55.1 276.8,54.9 277.7,54.8 278.5,54.6 279.3,54.5 280.2,54.4 281.0,54.3 281.9,54.2 282.7,54.1 283.6,54.0 284.4,54.0 285.3,54.0 286.1,54.0 287.0,54.0 287.8,54.0 288.7,54.1 289.5,54.1 290.3,54.2 291.1,54.3 291.8,54.4 292.5,54.5 293.2,54.6 293.9,54.7 294.5,54.8 295.2,55.0 295.8,55.1 296.4,55.3 296.9,55.5 297.5,55.7 298.0,55.9 298.6,56.1 299.1,56.3 299.6,56.5 300.0,56.7 300.5,57.0 300.9,57.2 301.4,57.4 301.8,57.7 302.1,57.9 302.5,58.2 302.9,58.5 303.2,58.7 303.5,59.0 303.9,59.3 304.2,59.6 304.4,59.9 304.7,60.2 305.0,60.5 305.3,60.8 305.5,61.2 305.7,61.5 306.0,61.8 306.2,62.2 306.4,62.5 306.6,62.9 306.8,63.3 307.0,63.6 307.1,64.0 307.3,64.4 307.5,64.8 307.6,65.2 307.8,65.6 307.9,66.1 308.1,66.5 308.2,66.9 308.4,67.4 308.5,67.8 308.7,68.3 308.8,68.8 309.0,69.3 309.1,69.8 309.3,70.3 309.4,70.8 309.6,71.3 309.8,71.8 309.9,72.3 310.1,72.9 310.3,73.4 310.6,73.9 310.8,74.5 311.0,75.0 311.3,75.6 311.6,76.1 311.9,76.7 312.2,77.2 312.5,77.8 312.8,78.3 313.1,78.9 313.5,79.4 313.8,79.9 314.2,80.4 314.6,80.8 314.9,81.3 315.3,81.7 315.7,82.1 316.1,82.5 316.5,82.9 316.9,83.2 317.3,83.6 317.7,83.9 318.2,84.3 318.6,84.7 319.0,85.0 319.5,85.4 320.0,85.8 320.5,86.1 321.0,86.5 321.5,86.9 322.0,87.3 322.6,87.6 323.1,88.0 323.7,88.4 324.3,88.7 324.9,89.0 325.5,89.3 326.1,89.6 326.7,89.8 327.3,90.1 328.0,90.3 328.6,90.4 329.3,90.6 329.9,90.7 330.6,90.9 331.3,91.0 332.0,91.1 332.7,91.2 333.5,91.3 334.2,91.4 335.0,91.5 335.7,91.5 336.5,91.6 337.3,91.6 338.0,91.6 338.8,91.6 339.6,91.6 340.3,91.6 341.1,91.5 341.9,91.5 342.6,91.4 343.4,91.3 344.2,91.2 345.0,91.1 345.9,91.0 346.7,90.9 347.5,90.8 348.4,90.6 349.2,90.5 350.1,90.4 351.0,90.3 351.9,90.1 352.7,89.9 353.7,89.8 354.6,89.6 355.5,89.4 356.4,89.3 357.4,89.1 358.4,88.9 359.3,88.7 360.3,88.5 361.4,88.4 362.4,88.2 363.4,88.1 364.5,87.9 365.5,87.8 366.6,87.7 367.7,87.6 368.7,87.5 369.8,87.5 370.9,87.4 372.0,87.4 373.1,87.3 374.3,87.3 375.4,87.2 376.6,87.2 377.7,87.1 378.9,87.1 380.1,87.0 381.3,87.0 382.5,86.9 383.7,86.9 385.0,86.9 386.2,87.0 387.4,87.0 388.6,87.1 389.8,87.2 390.9,87.3 392.1,87.4 393.3,87.6 394.4,87.8 395.6,87.9 396.7,88.2 397.9,88.4 399.0,88.6 400.1,88.9 401.3,89.1 402.4,89.4 403.6,89.7 404.7,90.0 405.9,90.4 407.0,90.7 408.1,91.1 409.2,91.5 410.2,92.0 411.3,92.4 412.3,92.9 413.3,93.3 414.4,93.8 415.3,94.4 416.3,94.9 417.3,95.4 418.3,96.0 419.2,96.6 420.1,97.1 421.0,97.7 421.9,98.3 422.8,99.0 423.7,99.6 424.5,100.2 425.3,100.9 426.1,101.5 426.9,102.2 427.7,102.8 428.4,103.5 429.1,104.2 429.9,104.8 430.5,105.5 431.2,106.2 431.9,106.9 432.5,107.6 433.2,108.2 433.8,108.9 434.4,109.6 434.9,110.3 435.5,111.0 436.0,111.7 436.6,112.4 437.1,113.1 437.5,113.8 438.0,114.5 438.5,115.2 438.9,115.9 439.3,116.6 439.7,117.3 440.1,117.9 440.5,118.6 440.8,119.3 441.2,120.0 441.5,120.7 441.8,121.4 442.1,122.1 442.4,122.8 442.6,123.4 442.9,124.1 443.1,124.8 443.3,125.5 443.5,126.1 443.7,126.8 443.8,127.5 444.0,128.1 444.1,128.8 444.3,129.5 444.4,130.1 444.5,130.8 444.6,131.5 444.6,132.1 444.7,132.8 444.7,133.4 444.8,134.1 444.8,134.7 444.8,135.4 444.8,136.0 444.8,136.7 444.8,137.3 444.7,138.0 444.7,138.6 444.6,139.2 444.6,139.9 444.5,140.5 444.4,141.2 444.3,141.8 444.2,142.5 444.1,143.1 444.0,143.8 443.8,144.4 443.7,145.1 443.5,145.8 443.4,146.5 443.2,147.1 443.0,147.8 442.8,148.5 442.7,149.2 442.5,149.9 442.3,150.7 442.1,151.4 441.9,152.1 441.7,152.9 441.5,153.7 441.3,154.4 441.1,155.2 440.9,156.0 440.7,156.9 440.6,157.7 440.4,158.5 440.3,159.4 440.1,160.3 440.0,161.1 439.9,162.0 439.9,162.9 439.8,163.8 439.8,164.7 439.8,165.6 439.8,166.6 439.9,167.5 439.9,168.4 440.1,169.3 440.2,170.2 440.3,171.0 440.5,171.9 440.7,172.8 440.9,173.6 441.2,174.5 441.4,175.3 441.7,176.1 442.0,176.8 442.3,177.6 442.6,178.3 442.8,179.0 443.1,179.7 443.4,180.4 443.7,181.0 444.0,181.6 444.3,182.2 444.6,182.8 444.9,183.3 445.2,183.8 445.5,184.3 445.8,184.8 446.1,185.3 446.5,185.8 446.8,186.2 447.2,186.7 447.6,187.1 448.0,187.6 448.4,188.0 448.8,188.5 449.3,188.9 449.7,189.3 450.2,189.7 450.7,190.1 451.1,190.4 451.6,190.8 452.1,191.1 452.6,191.4 453.1,191.6 453.5,191.8 454.0,192.0 454.5,192.2 455.0,192.4 455.5,192.5 456.0,192.6 456.5,192.7 457.0,192.8 457.5,192.8 458.0,192.9 458.5,192.9 459.0,192.9 459.5,192.9 460.0,192.9 460.5,192.9 461.0,192.8 461.5,192.8 462.0,192.7 462.5,192.6 463.0,192.5 463.5,192.4 464.0,192.3 464.5,192.2 465.0,192.1 465.5,191.9 466.1,191.8 466.6,191.6 467.2,191.5 467.7,191.3 468.3,191.1 468.8,190.9 469.4,190.8 470.0,190.6 470.6,190.4 471.2,190.2 471.8,190.0 472.5,189.8 473.1,189.6 473.8,189.4 474.4,189.2 475.1,189.0 475.8,188.8 476.5,188.7 477.2,188.5 477.9,188.4 478.6,188.2 479.3,188.1 480.0,188.0 480.7,187.9 481.4,187.9 482.1,187.8 482.8,187.7 483.6,187.6 484.3,187.6 485.1,187.5 485.9,187.4 486.7,187.3 487.5,187.2 488.3,187.1 489.1,187.0 490.0,186.9 490.8,186.7 491.7,186.7 492.6,186.6 493.5,186.5 494.4,186.5 495.3,186.5 496.2,186.5 497.1,186.6 498.0,186.6 498.9,186.7 499.8,186.8 500.7,186.9 501.7,187.1 502.6,187.2 503.6,187.4 504.6,187.5 505.6,187.7 506.6,187.8 507.6,188.0 508.7,188.2 509.7,188.3 510.8,188.5 511.8,188.7 512.9,189.0 513.9,189.2 514.9,189.5 516.0,189.8 517.0,190.2 518.0,190.5 518.9,190.9 519.9,191.3 520.9,191.7 521.9,192.1 522.9,192.6 523.9,193.0 524.9,193.5 525.9,194.0 526.9,194.5 527.9,195.0 528.8,195.5 529.8,196.1 530.8,196.6 531.8,197.2 532.7,197.8 533.7,198.5 534.6,199.1 535.6,199.8 536.5,200.4 537.5,201.1 538.4,201.8 539.3,202.5 540.3,203.3 541.2,204.0 542.2,204.8 543.1,205.5 544.1,206.3 545.0,207.1 546.0,207.9 547.0,208.8 547.9,209.6 548.9,210.5 549.9,211.3 550.9,212.2 551.9,213.1 552.9,214.0 553.9,214.9 555.0,215.8 556.0,216.7 557.1,217.6 558.2,218.5 559.3,219.4 560.4,220.3 561.5,221.2 562.7,222.1 563.9,223.0 565.0,223.9 566.3,224.8 567.5,225.6 568.7,226.5 570.0,227.3 571.2,228.1 572.4,228.8 573.7,229.5 574.9,230.2 576.1,230.9 577.3,231.6 578.5,232.2 579.7,232.8 580.8,233.3 582.0,233.9 583.1,234.4 584.3,234.9 585.4,235.4 586.5,235.9 587.5,236.3 588.6,236.7 589.6,237.2 590.7,237.5 591.7,237.9 592.7,238.3 593.6,238.6 594.6,239.0 595.5,239.3 596.4,239.6 597.3,239.9 598.2,240.1 599.0,240.4 599.8,240.7 600.6,240.9 601.4,241.2 602.2,241.4 602.9,241.6 603.6,241.8 604.3,242.0 605.0,242.2 605.7,242.4 606.3,242.6 607.0,242.8 607.6,242.9 608.2,243.0 608.8,243.2 609.4,243.3 610.0,243.4 610.5,243.4 611.1,243.5 611.7,243.6 612.2,243.6 612.8,243.7 613.3,243.7 613.9,243.7 614.4,243.7 614.9,243.7 615.4,243.7 615.9,243.7 616.4,243.7 616.8,243.6 617.3,243.6 617.8,243.5 618.2,243.5 618.6,243.4 619.0,243.3 619.4,243.2 619.8,243.1 620.2,243.0 620.6,242.9 621.0,242.7 621.4,242.6 621.8,242.4 622.1,242.3 622.5,242.1 622.9,241.9 623.2,241.7 623.6,241.5 624.0,241.3 624.3,241.1 624.7,240.9 625.0,240.6 625.4,240.4 625.7,240.2 626.1,239.9 626.4,239.6 626.8,239.4 627.2,239.1 627.5,238.8 627.9,238.5 628.2,238.2 628.6,237.9 629.0,237.6 629.4,237.3 629.7,237.0 630.1,236.7 630.5,236.4 630.9,236.1 631.3,235.8 631.8,235.5 632.2,235.1 632.6,234.8 633.0,234.5 633.5,234.2 633.9,233.9 634.4,233.6 634.9,233.3 635.3,233.0 635.8,232.8 636.3,232.5 636.7,232.3 637.2,232.0 637.7,231.8 638.1,231.6 638.6,231.5 639.1,231.3 639.5,231.2 640.0,231.0 640.5,230.9 640.9,230.8 641.4,230.6 641.9,230.5 642.4,230.4 642.9,230.3 643.4,230.1 643.9,230.0 644.4,229.8 645.0,229.7 645.5,229.5 646.1,229.4 646.7,229.3 647.3,229.1 647.9,229.0 648.5,229.0 649.1,228.9 649.7,228.9 650.3,228.8 650.9,228.8 651.5,228.9 652.1,228.9 652.7,229.0 653.4,229.0 654.0,229.1 654.6,229.2 655.3,229.3 655.9,229.5 656.6,229.6 657.3,229.7 657.9,229.8 658.6,229.9 659.3,230.0 660.1,230.1 660.8,230.3 661.6,230.4 662.3,230.6 663.1,230.8 663.9,231.0 664.6,231.2 665.4,231.4 666.1,231.7 666.8,232.0 667.5,232.3 668.2,232.6 668.9,232.9 669.6,233.2 670.3,233.6 671.0,234.0 671.7,234.4 672.4,234.7 673.2,235.1 673.9,235.5 674.7,235.9 675.4,236.3 676.2,236.6 677.0,237.0 677.8,237.4 678.6,237.8 679.4,238.2 680.1,238.6 680.9,239.0 681.7,239.5 682.4,239.9 683.2,240.4 683.9,240.8 684.6,241.3 685.3,241.8 686.0,242.3 686.8,242.8 687.5,243.3 688.2,243.8 688.9,244.3 689.6,244.8 690.3,245.3 691.0,245.8 691.8,246.3 692.5,246.8 693.3,247.3 694.0,247.8 694.7,248.2 695.5,248.7 696.2,249.2 697.0,249.7 697.7,250.2 698.4,250.7 699.2,251.2 699.9,251.7 700.6,252.2 701.4,252.8 702.1,253.3 702.9,253.8 703.7,254.3 704.5,254.8 705.2,255.3 706.0,255.7 706.8,256.2 707.6,256.6 708.4,257.0 709.2,257.4 710.0,257.8 710.8,258.2 711.5,258.5 712.3,258.9 713.1,259.2 713.9,259.6 714.7,259.9 715.5,260.3 716.3,260.6 717.2,261.0 718.0,261.4 718.8,261.7 719.7,262.1 720.5,262.4 721.4,262.8 722.3,263.1 723.2,263.4 724.1,263.6 725.0,263.9 725.8,264.1 726.7,264.3 727.6,264.5 728.5,264.7 729.4,264.8 730.3,265.0 731.1,265.1 732.0,265.2 732.9,265.3 733.8,265.4 734.7,265.5 735.6,265.6 736.5,265.7 737.5,265.8 738.4,265.8 739.3,265.9 740.2,265.9 741.1,266.0 742.1,266.0 743.0,266.0 743.8,266.0 744.7,266.0 745.6,265.9 746.4,265.9 747.3,265.8 748.1,265.7 748.9,265.7 749.7,265.6 750.6,265.5 751.4,265.4 752.2,265.2 753.0,265.1 753.8,265.0 754.6,264.8 755.4,264.7 756.2,264.5 757.0,264.4 757.8,264.2 758.5,264.0 759.3,263.8 760.1,263.7 760.8,263.5 761.6,263.2 762.3,263.0 763.1,262.8 763.8,262.6 764.5,262.3 765.3,262.1 766.0,261.9"/>
<line x1="606" y1="42" x2="628" y2="42" stroke="#0f62fe" stroke-width="2.2"/>
<text x="634" y="46" font-family="Arial" font-size="12">y_m</text>
</svg>