<svg xmlns="http://www.w3.org/2000/svg" width="820" height="320" viewBox="0 0 820 320">
<rect width="100%" height="100%" fill="#ffffff"/>
<text x="54" y="28" font-family="Arial" font-size="18" font-weight="700">Alpha/Beta</text>
<line x1="54" y1="266" x2="766" y2="266" stroke="#1f2933"/>
<line x1="54" y1="54" x2="54" y2="266" stroke="#1f2933"/>
<text x="54" y="306" font-family="Arial" font-size="12">time (s)</text>
<text x="596" y="306" font-family="Arial" font-size="12">angle (deg)</text>
<text x="58" y="68" font-family="Arial" font-size="11">35</text>
<text x="58" y="260" font-family="Arial" font-size="11">-35</text>
<polyline fill="none" stroke="#0f62fe" stroke-width="2.2" points="54.0,162.4 54.8,163.3 55.6,164.7 56.4,165.4 57.3,166.5 58.1,168.8 58.9,171.1 59.7,172.0 60.5,170.3 61.3,165.0 62.1,157.0 63.0,149.4 63.8,145.5 64.6,146.2 65.4,151.0 66.2,160.3 67.0,174.9 67.8,194.5 68.6,212.9 69.5,226.1 70.3,233.6 71.1,235.8 71.9,236.1 72.7,237.0 73.5,240.9 74.3,247.8 75.2,257.3 76.0,266.0 76.8,266.0 77.6,266.0 78.4,266.0 79.2,266.0 80.0,266.0 80.9,266.0 81.7,266.0 82.5,266.0 83.3,266.0 84.1,266.0 84.9,266.0 85.7,266.0 86.5,266.0 87.4,266.0 88.2,266.0 89.0,266.0 89.8,266.0 90.6,266.0 91.4,266.0 92.2,266.0 93.1,266.0 93.9,266.0 94.7,266.0 95.5,266.0 96.3,266.0 97.1,266.0 97.9,266.0 98.8,266.0 99.6,266.0 100.4,266.0 101.2,266.0 102.0,266.0 102.8,266.0 103.6,266.0 104.5,266.0 105.3,232.3 106.1,176.0 106.9,119.3 107.7,69.8 108.5,54.0 109.3,54.0 110.1,54.0 111.0,54.0 111.8,54.0 112.6,54.0 113.4,54.0 114.2,54.0 115.0,54.0 115.8,54.0 116.7,54.0 117.5,54.0 118.3,54.0 119.1,68.2 119.9,75.5 120.7,73.1 121.5,63.5 122.4,54.0 123.2,54.0 124.0,54.0 124.8,54.0 125.6,54.0 126.4,54.0 127.2,54.0 128.0,54.0 128.9,98.5 129.7,155.2 130.5,187.5 131.3,199.2 132.1,199.1 132.9,191.4 133.7,178.3 134.6,159.4 135.4,137.3 136.2,114.5 137.0,93.7 137.8,76.7 138.6,65.2 139.4,61.1 140.3,65.4 141.1,76.6 141.9,92.2 142.7,109.5 143.5,125.0 144.3,135.3 145.1,139.0 145.9,136.9 146.8,130.9 147.6,122.7 148.4,113.4 149.2,104.1 150.0,95.6 150.8,88.2 151.6,82.0 152.5,76.7 153.3,71.8 154.1,67.5 154.9,63.7 155.7,60.2 156.5,57.0 157.3,54.0 158.2,54.0 159.0,54.0 159.8,54.0 160.6,54.0 161.4,54.0 162.2,54.0 163.0,54.0 163.9,54.0 164.7,54.0 165.5,54.0 166.3,54.0 167.1,54.0 167.9,54.0 168.7,54.0 169.5,54.0 170.4,54.0 171.2,54.0 172.0,54.0 172.8,54.0 173.6,54.0 174.4,54.0 175.2,54.0 176.1,54.0 176.9,54.0 177.7,54.0 178.5,54.0 179.3,54.0 180.1,54.0 180.9,54.0 181.8,54.0 182.6,54.0 183.4,54.9 184.2,56.1 185.0,57.2 185.8,58.3 186.6,59.3 187.4,60.4 188.3,61.5 189.1,62.7 189.9,64.0 190.7,65.3 191.5,66.8 192.3,68.2 193.1,69.6 194.0,71.0 194.8,72.3 195.6,73.5 196.4,74.6 197.2,75.4 198.0,76.2 198.8,76.7 199.7,77.1 200.5,77.0 201.3,76.1 202.1,74.1 202.9,70.7 203.7,65.4 204.5,58.2 205.4,54.0 206.2,54.0 207.0,54.0 207.8,54.0 208.6,54.0 209.4,54.0 210.2,54.0 211.0,54.0 211.9,54.0 212.7,54.0 213.5,54.0 214.3,54.0 215.1,54.0 215.9,54.0 216.7,54.0 217.6,60.5 218.4,74.2 219.2,90.6 220.0,108.1 220.8,124.0 221.6,135.5 222.4,141.0 223.3,140.5 224.1,135.3 224.9,126.8 225.7,116.5 226.5,105.8 227.3,96.3 228.1,89.5 228.9,85.5 229.8,83.5 230.6,82.4 231.4,81.5 232.2,80.6 233.0,79.6 233.8,78.7 234.6,78.4 235.5,78.9 236.3,80.2 237.1,81.9 237.9,82.8 238.7,82.5 239.5,80.5 240.3,77.1 241.2,73.2 242.0,70.3 242.8,69.6 243.6,70.9 244.4,73.4 245.2,76.0 246.0,78.0 246.9,79.1 247.7,79.6 248.5,79.7 249.3,79.5 250.1,79.5 250.9,79.7 251.7,80.1 252.5,80.5 253.4,80.9 254.2,81.3 255.0,82.1 255.8,83.9 256.6,86.7 257.4,90.6 258.2,94.9 259.1,99.0 259.9,102.3 260.7,104.2 261.5,104.6 262.3,103.3 263.1,100.7 263.9,97.1 264.8,93.2 265.6,89.5 266.4,86.9 267.2,85.6 268.0,86.0 268.8,87.6 269.6,89.6 270.4,91.5 271.3,92.9 272.1,94.8 272.9,98.6 273.7,105.5 274.5,115.0 275.3,125.1 276.1,133.6 277.0,138.8 277.8,139.7 278.6,136.2 279.4,129.0 280.2,119.1 281.0,107.4 281.8,95.3 282.7,84.7 283.5,76.5 284.3,71.6 285.1,69.8 285.9,70.2 286.7,71.9 287.5,74.3 288.3,77.1 289.2,80.6 290.0,84.8 290.8,89.9 291.6,95.5 292.4,100.5 293.2,104.4 294.0,106.2 294.9,105.6 295.7,102.8 296.5,98.8 297.3,94.6 298.1,90.4 298.9,87.1 299.7,85.0 300.6,83.9 301.4,83.7 302.2,84.0 303.0,84.6 303.8,85.1 304.6,85.4 305.4,85.0 306.3,83.9 307.1,81.9 307.9,79.4 308.7,76.4 309.5,73.5 310.3,70.7 311.1,68.3 311.9,66.2 312.8,64.6 313.6,63.4 314.4,62.4 315.2,61.6 316.0,60.8 316.8,60.0 317.6,59.1 318.5,58.2 319.3,57.0 320.1,55.8 320.9,54.4 321.7,54.0 322.5,54.0 323.3,54.0 324.2,54.0 325.0,54.0 325.8,54.0 326.6,54.0 327.4,54.0 328.2,54.0 329.0,54.0 329.8,54.0 330.7,54.0 331.5,54.0 332.3,54.0 333.1,54.0 333.9,54.0 334.7,54.0 335.5,54.0 336.4,54.0 337.2,54.0 338.0,54.0 338.8,54.0 339.6,54.0 340.4,54.0 341.2,54.0 342.1,54.0 342.9,54.0 343.7,54.0 344.5,54.0 345.3,54.0 346.1,54.0 346.9,54.0 347.8,54.0 348.6,54.0 349.4,54.0 350.2,54.0 351.0,54.0 351.8,54.0 352.6,54.0 353.4,54.0 354.3,54.0 355.1,54.2 355.9,55.2 356.7,56.3 357.5,57.4 358.3,58.5 359.1,59.7 360.0,60.9 360.8,62.1 361.6,63.5 362.4,64.8 363.2,66.2 364.0,67.7 364.8,69.2 365.7,70.7 366.5,72.3 367.3,74.0 368.1,75.7 368.9,77.4 369.7,79.2 370.5,81.0 371.3,82.8 372.2,84.7 373.0,86.6 373.8,88.6 374.6,90.5 375.4,92.5 376.2,94.5 377.0,96.5 377.9,98.5 378.7,100.5 379.5,102.3 380.3,104.0 381.1,105.2 381.9,106.1 382.7,106.6 383.6,106.8 384.4,106.6 385.2,106.2 386.0,105.6 386.8,104.8 387.6,103.7 388.4,102.5 389.3,101.1 390.1,99.5 390.9,97.5 391.7,95.1 392.5,92.1 393.3,88.4 394.1,83.7 394.9,77.7 395.8,70.0 396.6,60.3 397.4,54.0 398.2,54.0 399.0,54.0 399.8,54.0 400.6,54.0 401.5,54.0 402.3,54.0 403.1,54.0 403.9,54.0 404.7,54.0 405.5,54.0 406.3,54.0 407.2,54.0 408.0,54.0 408.8,54.0 409.6,54.0 410.4,54.0 411.2,57.0 412.0,73.6 412.8,91.5 413.7,109.0 414.5,123.5 415.3,132.9 416.1,136.6 416.9,135.4 417.7,130.5 418.5,123.3 419.4,114.6 420.2,105.7 421.0,97.3 421.8,91.0 422.6,86.5 423.4,83.0 424.2,79.9 425.1,76.9 425.9,74.0 426.7,71.3 427.5,68.7 428.3,66.5 429.1,64.3 429.9,62.4 430.7,60.5 431.6,58.9 432.4,57.7 433.2,56.9 434.0,56.6 434.8,56.7 435.6,57.2 436.4,57.8 437.3,58.5 438.1,59.2 438.9,59.8 439.7,60.3 440.5,60.8 441.3,61.3 442.1,61.9 443.0,62.6 443.8,63.4 444.6,64.4 445.4,65.7 446.2,67.1 447.0,68.6 447.8,70.2 448.7,71.9 449.5,73.5 450.3,75.0 451.1,76.1 451.9,76.5 452.7,75.9 453.5,74.0 454.3,71.0 455.2,66.9 456.0,62.4 456.8,58.4 457.6,55.9 458.4,55.7 459.2,57.9 460.0,61.7 460.9,66.0 461.7,69.4 462.5,70.8 463.3,70.1 464.1,68.4 464.9,67.9 465.7,70.8 466.6,78.0 467.4,88.8 468.2,102.1 469.0,115.6 469.8,126.9 470.6,133.9 471.4,135.5 472.2,132.0 473.1,124.5 473.9,114.6 474.7,103.8 475.5,94.7 476.3,88.7 477.1,86.1 477.9,86.3 478.8,87.7 479.6,89.2 480.4,90.0 481.2,90.3 482.0,90.8 482.8,93.1 483.6,98.4 484.5,107.1 485.3,117.4 486.1,127.0 486.9,134.2 487.7,137.5 488.5,136.1 489.3,130.2 490.2,120.9 491.0,109.6 491.8,98.5 492.6,90.0 493.4,84.5 494.2,82.6 495.0,83.4 495.8,85.2 496.7,87.0 497.5,88.6 498.3,90.3 499.1,92.3 499.9,95.0 500.7,98.0 501.5,100.6 502.4,101.8 503.2,101.5 504.0,99.7 504.8,97.4 505.6,95.3 506.4,94.5 507.2,94.9 508.1,96.3 508.9,98.0 509.7,99.8 510.5,101.4 511.3,102.9 512.1,104.0 512.9,105.0 513.7,105.9 514.6,106.7 515.4,107.4 516.2,108.3 517.0,109.4 517.8,110.6 518.6,112.0 519.4,113.4 520.3,114.7 521.1,116.0 521.9,117.1 522.7,118.1 523.5,119.1 524.3,120.0 525.1,121.1 526.0,122.2 526.8,123.4 527.6,124.7 528.4,126.1 529.2,127.4 530.0,128.4 530.8,128.9 531.7,128.6 532.5,127.1 533.3,124.2 534.1,119.7 534.9,113.3 535.7,105.2 536.5,95.7 537.3,84.7 538.2,72.2 539.0,58.7 539.8,54.0 540.6,54.0 541.4,54.0 542.2,54.0 543.0,54.0 543.9,54.0 544.7,54.0 545.5,54.0 546.3,54.0 547.1,54.0 547.9,54.0 548.7,54.0 549.6,54.0 550.4,54.0 551.2,54.0 552.0,54.0 552.8,54.0 553.6,54.0 554.4,54.0 555.2,54.0 556.1,54.0 556.9,54.0 557.7,54.0 558.5,54.0 559.3,54.0 560.1,54.0 560.9,54.0 561.8,54.0 562.6,54.0 563.4,54.0 564.2,54.0 565.0,54.0 565.8,54.0 566.6,54.0 567.5,54.0 568.3,54.0 569.1,54.0 569.9,54.0 570.7,54.0 571.5,54.0 572.3,54.0 573.1,54.0 574.0,54.0 574.8,54.0 575.6,54.0 576.4,54.0 577.2,54.0 578.0,54.0 578.8,54.0 579.7,54.0 580.5,54.0 581.3,54.0 582.1,54.0 582.9,54.0 583.7,54.0 584.5,54.0 585.4,54.0 586.2,54.0 587.0,54.0 587.8,54.0 588.6,54.0 589.4,54.0 590.2,54.0 591.1,54.0 591.9,54.0 592.7,54.0 593.5,54.0 594.3,54.0 595.1,54.0 595.9,54.0 596.7,54.0 597.6,54.0 598.4,54.0 599.2,54.0 600.0,54.0 600.8,54.0 601.6,54.0 602.4,54.0 603.3,54.0 604.1,54.0 604.9,54.0 605.7,54.0 606.5,54.0 607.3,54.0 608.1,54.0 609.0,54.0 609.8,54.0 610.6,54.0 611.4,54.0 612.2,54.0 613.0,54.0 613.8,54.0 614.6,54.0 615.5,54.0 616.3,54.0 617.1,54.0 617.9,54.0 618.7,54.0 619.5,54.0 620.3,54.0 621.2,54.0 622.0,54.0 622.8,54.0 623.6,54.0 624.4,54.0 625.2,54.0 626.0,54.0 626.9,54.0 627.7,54.0 628.5,54.0 629.3,54.0 630.1,54.0 630.9,54.0 631.7,54.0 632.6,54.0 633.4,54.0 634.2,54.0 635.0,54.4 635.8,69.0 636.6,84.1 637.4,97.8 638.2,108.2 639.1,113.6 639.9,113.8 640.7,109.5 641.5,102.6 642.3,95.1 643.1,88.4 643.9,84.5 644.8,83.8 645.6,85.2 646.4,87.1 647.2,87.9 648.0,86.5 648.8,82.7 649.6,77.4 650.5,72.2 651.3,68.5 652.1,67.8 652.9,70.8 653.7,76.9 654.5,85.3 655.3,94.4 656.1,102.9 657.0,109.3 657.8,112.1 658.6,110.6 659.4,104.9 660.2,97.1 661.0,89.2 661.8,82.9 662.7,80.0 663.5,80.8 664.3,84.2 665.1,88.4 665.9,91.5 666.7,92.2 667.5,89.8 668.4,85.1 669.2,79.5 670.0,74.5 670.8,71.5 671.6,71.1 672.4,73.1 673.2,76.9 674.1,81.1 674.9,84.5 675.7,86.3 676.5,85.4 677.3,81.5 678.1,75.2 678.9,68.3 679.7,62.7 680.6,60.1 681.4,60.7 682.2,63.8 683.0,68.2 683.8,72.3 684.6,74.5 685.4,74.6 686.3,72.8 687.1,69.6 687.9,65.7 688.7,61.9 689.5,58.8 690.3,56.8 691.1,56.0 692.0,55.8 692.8,55.8 693.6,55.3 694.4,54.5 695.2,54.0 696.0,54.7 696.8,57.3 697.6,61.7 698.5,67.3 699.3,73.1 700.1,78.3 700.9,82.2 701.7,84.2 702.5,83.7 703.3,80.7 704.2,75.4 705.0,68.3 705.8,60.2 706.6,54.0 707.4,54.0 708.2,54.0 709.0,54.0 709.9,54.0 710.7,54.0 711.5,54.0 712.3,54.0 713.1,54.0 713.9,54.0 714.7,54.0 715.5,54.3 716.4,61.6 717.2,71.0 718.0,81.8 718.8,92.9 719.6,102.7 720.4,109.7 721.2,112.6 722.1,111.1 722.9,106.0 723.7,98.8 724.5,91.5 725.3,85.0 726.1,79.7 726.9,76.3 727.8,74.4 728.6,73.1 729.4,71.7 730.2,70.1 731.0,68.3 731.8,66.7 732.6,65.9 733.5,66.3 734.3,68.3 735.1,71.1 735.9,74.0 736.7,76.3 737.5,77.2 738.3,75.7 739.1,71.7 740.0,65.9 740.8,59.2 741.6,54.0 742.4,54.0 743.2,54.0 744.0,54.0 744.8,54.0 745.7,54.0 746.5,54.0 747.3,54.0 748.1,54.0 748.9,54.0 749.7,54.0 750.5,54.0 751.4,54.0 752.2,54.0 753.0,54.0 753.8,54.0 754.6,54.0 755.4,54.0 756.2,54.0 757.0,54.0 757.9,54.0 758.7,54.0 759.5,54.0 760.3,54.0 761.1,54.0 761.9,54.0 762.7,54.0 763.6,54.0 764.4,54.0 765.2,54.0 766.0,54.0"/>
<line x1="606" y1="42" x2="628" y2="42" stroke="#0f62fe" stroke-width="2.2"/>
<text x="634" y="46" font-family="Arial" font-size="12">alpha_deg</text>
<polyline fill="none" stroke="#24a148" stroke-width="2.2" points="54.0,155.7 54.8,161.4 55.6,171.6 56.4,183.5 57.3,193.4 58.1,197.4 58.9,195.7 59.7,188.5 60.5,176.1 61.3,161.1 62.1,147.9 63.0,140.1 63.8,138.2 64.6,142.0 65.4,151.1 66.2,165.0 67.0,180.8 67.8,191.7 68.6,194.8 69.5,191.0 70.3,185.0 71.1,181.2 71.9,180.8 72.7,182.5 73.5,184.4 74.3,185.1 75.2,184.1 76.0,181.9 76.8,179.0 77.6,175.9 78.4,172.9 79.2,169.7 80.0,166.1 80.9,161.6 81.7,154.8 82.5,146.2 83.3,140.4 84.1,137.6 84.9,138.1 85.7,135.7 86.5,131.4 87.4,126.1 88.2,123.4 89.0,122.8 89.8,122.9 90.6,123.4 91.4,123.5 92.2,123.1 93.1,122.1 93.9,120.0 94.7,116.5 95.5,111.6 96.3,104.6 97.1,95.1 97.9,82.7 98.8,69.1 99.6,69.1 100.4,69.1 101.2,69.1 102.0,69.1 102.8,69.1 103.6,83.4 104.5,119.5 105.3,151.5 106.1,176.6 106.9,194.7 107.7,207.5 108.5,215.9 109.3,220.8 110.1,223.8 111.0,226.9 111.8,231.8 112.6,239.7 113.4,250.9 114.2,250.9 115.0,250.9 115.8,250.9 116.7,250.9 117.5,250.9 118.3,247.3 119.1,210.1 119.9,169.7 120.7,132.6 121.5,100.2 122.4,72.1 123.2,69.1 124.0,69.1 124.8,69.1 125.6,69.1 126.4,69.1 127.2,69.1 128.0,69.1 128.9,69.1 129.7,69.1 130.5,69.1 131.3,69.1 132.1,69.1 132.9,69.1 133.7,102.5 134.6,142.0 135.4,174.1 136.2,199.3 137.0,218.8 137.8,234.2 138.6,246.5 139.4,250.9 140.3,250.9 141.1,250.9 141.9,250.9 142.7,250.9 143.5,234.2 144.3,209.9 145.1,183.0 145.9,158.7 146.8,140.1 147.6,127.1 148.4,119.1 149.2,115.0 150.0,113.8 150.8,114.2 151.6,115.8 152.5,118.9 153.3,123.2 154.1,128.0 154.9,132.6 155.7,136.3 156.5,138.7 157.3,139.7 158.2,139.3 159.0,137.7 159.8,135.0 160.6,131.8 161.4,128.3 162.2,125.0 163.0,122.3 163.9,120.2 164.7,119.1 165.5,118.9 166.3,119.6 167.1,120.9 167.9,122.7 168.7,124.7 169.5,126.7 170.4,128.4 171.2,129.6 172.0,130.2 172.8,130.3 173.6,129.8 174.4,128.9 175.2,127.6 176.1,126.2 176.9,124.8 177.7,123.6 178.5,122.6 179.3,122.0 180.1,121.6 180.9,121.7 181.8,121.9 182.6,122.4 183.4,122.9 184.2,123.4 185.0,123.8 185.8,124.0 186.6,123.9 187.4,123.7 188.3,123.3 189.1,122.8 189.9,122.2 190.7,121.6 191.5,121.0 192.3,120.5 193.1,120.1 194.0,119.7 194.8,119.5 195.6,119.3 196.4,119.2 197.2,119.0 198.0,118.7 198.8,118.6 199.7,119.1 200.5,120.8 201.3,124.1 202.1,129.4 202.9,137.0 203.7,147.1 204.5,159.4 205.4,172.9 206.2,186.3 207.0,198.4 207.8,208.5 208.6,215.9 209.4,220.4 210.2,221.6 211.0,218.9 211.9,211.4 212.7,199.2 213.5,182.6 214.3,163.0 215.1,141.4 215.9,120.3 216.7,102.0 217.6,87.3 218.4,77.1 219.2,72.2 220.0,73.7 220.8,82.0 221.6,97.1 222.4,116.2 223.3,136.5 224.1,155.4 224.9,171.7 225.7,185.3 226.5,196.2 227.3,204.4 228.1,209.9 228.9,212.2 229.8,211.1 230.6,207.2 231.4,201.2 232.2,193.1 233.0,183.5 233.8,173.1 234.6,162.8 235.5,154.1 236.3,148.2 237.1,146.8 237.9,150.4 238.7,159.3 239.5,171.3 240.3,184.3 241.2,196.3 242.0,205.9 242.8,212.2 243.6,214.7 244.4,213.7 245.2,209.7 246.0,203.9 246.9,197.0 247.7,189.5 248.5,182.1 249.3,175.2 250.1,169.8 250.9,166.5 251.7,166.1 252.5,169.1 253.4,175.2 254.2,183.1 255.0,191.3 255.8,198.6 256.6,204.1 257.4,207.1 258.2,207.6 259.1,205.9 259.9,202.3 260.7,196.9 261.5,189.6 262.3,180.8 263.1,170.8 263.9,160.0 264.8,149.2 265.6,138.9 266.4,130.3 267.2,124.3 268.0,122.1 268.8,124.4 269.6,132.0 270.4,144.5 271.3,160.8 272.1,179.2 272.9,196.7 273.7,210.4 274.5,219.0 275.3,222.0 276.1,219.0 277.0,210.5 277.8,197.7 278.6,182.5 279.4,166.9 280.2,152.1 281.0,138.3 281.8,126.8 282.7,118.4 283.5,113.5 284.3,112.1 285.1,113.9 285.9,118.1 286.7,124.8 287.5,133.7 288.3,144.1 289.2,155.1 290.0,165.3 290.8,173.2 291.6,177.4 292.4,176.7 293.2,170.9 294.0,160.3 294.9,147.5 295.7,135.0 296.5,124.8 297.3,117.9 298.1,114.5 298.9,114.5 299.7,117.2 300.6,121.8 301.4,127.1 302.2,132.3 303.0,136.6 303.8,139.4 304.6,140.6 305.4,140.4 306.3,139.0 307.1,136.9 307.9,134.6 308.7,132.5 309.5,130.8 310.3,129.7 311.1,129.2 311.9,129.3 312.8,129.9 313.6,130.8 314.4,131.8 315.2,132.8 316.0,133.7 316.8,134.3 317.6,134.6 318.5,134.6 319.3,134.4 320.1,134.1 320.9,133.6 321.7,133.1 322.5,132.6 323.3,132.2 324.2,131.9 325.0,131.7 325.8,131.6 326.6,131.6 327.4,131.7 328.2,131.8 329.0,131.9 329.8,132.0 330.7,132.1 331.5,132.1 332.3,132.0 333.1,131.9 333.9,131.8 334.7,131.6 335.5,131.3 336.4,131.1 337.2,130.9 338.0,130.6 338.8,130.4 339.6,130.2 340.4,130.1 341.2,130.0 342.1,129.8 342.9,129.7 343.7,129.6 344.5,129.5 345.3,129.5 346.1,129.3 346.9,129.2 347.8,129.1 348.6,128.9 349.4,128.8 350.2,128.6 351.0,128.4 351.8,128.2 352.6,128.1 353.4,127.9 354.3,127.7 355.1,127.5 355.9,127.4 356.7,127.2 357.5,127.1 358.3,126.9 359.1,126.8 360.0,126.6 360.8,126.4 361.6,126.2 362.4,126.1 363.2,125.9 364.0,125.7 364.8,125.5 365.7,125.3 366.5,125.1 367.3,124.9 368.1,124.7 368.9,124.5 369.7,124.3 370.5,124.1 371.3,123.9 372.2,123.7 373.0,123.5 373.8,123.3 374.6,123.1 375.4,122.9 376.2,122.6 377.0,122.4 377.9,122.2 378.7,121.9 379.5,121.7 380.3,121.6 381.1,121.5 381.9,121.6 382.7,121.6 383.6,121.7 384.4,121.6 385.2,121.4 386.0,121.2 386.8,120.8 387.6,120.5 388.4,120.1 389.3,119.7 390.1,119.3 390.9,119.1 391.7,119.7 392.5,121.7 393.3,125.5 394.1,131.5 394.9,139.5 395.8,149.4 396.6,160.6 397.4,172.5 398.2,184.0 399.0,194.7 399.8,204.7 400.6,213.2 401.5,219.2 402.3,222.3 403.1,222.3 403.9,219.3 404.7,212.9 405.5,202.8 406.3,188.8 407.2,171.6 408.0,151.9 408.8,131.8 409.6,113.3 410.4,97.9 411.2,86.5 412.0,80.1 412.8,79.7 413.7,86.0 414.5,99.2 415.3,117.1 416.1,136.1 416.9,153.6 417.7,168.4 418.5,180.2 419.4,190.0 420.2,197.3 421.0,202.3 421.8,205.6 422.6,206.7 423.4,205.6 424.2,202.4 425.1,198.1 425.9,193.4 426.7,189.2 427.5,186.1 428.3,184.5 429.1,184.3 429.9,185.4 430.7,187.6 431.6,190.3 432.4,193.1 433.2,195.7 434.0,197.7 434.8,199.0 435.6,199.5 436.4,199.3 437.3,198.5 438.1,197.3 438.9,196.0 439.7,194.9 440.5,194.1 441.3,193.6 442.1,193.6 443.0,194.0 443.8,194.7 444.6,195.6 445.4,196.5 446.2,197.4 447.0,198.2 447.8,198.8 448.7,199.0 449.5,198.6 450.3,197.2 451.1,194.4 451.9,190.0 452.7,183.7 453.5,175.5 454.3,165.5 455.2,153.9 456.0,141.1 456.8,128.7 457.6,118.0 458.4,109.9 459.2,105.5 460.0,105.4 460.9,110.2 461.7,120.5 462.5,136.3 463.3,156.1 464.1,177.8 464.9,198.4 465.7,216.1 466.6,229.9 467.4,239.0 468.2,242.7 469.0,240.2 469.8,231.3 470.6,216.2 471.4,197.4 472.2,177.8 473.1,159.3 473.9,142.9 474.7,128.5 475.5,116.9 476.3,109.1 477.1,105.5 477.9,106.1 478.8,111.0 479.6,120.6 480.4,134.3 481.2,150.9 482.0,169.1 482.8,187.5 483.6,203.3 484.5,214.4 485.3,219.9 486.1,219.5 486.9,213.1 487.7,200.9 488.5,183.5 489.3,163.6 490.2,143.7 491.0,126.9 491.8,114.4 492.6,105.6 493.4,100.7 494.2,100.5 495.0,105.1 495.8,113.0 496.7,123.0 497.5,134.3 498.3,145.7 499.1,155.7 499.9,162.9 500.7,165.8 501.5,163.7 502.4,156.4 503.2,146.0 504.0,135.1 504.8,125.5 505.6,118.5 506.4,114.6 507.2,114.0 508.1,115.9 508.9,119.7 509.7,124.2 510.5,128.6 511.3,132.0 512.1,134.0 512.9,134.6 513.7,133.9 514.6,132.3 515.4,130.3 516.2,128.2 517.0,126.5 517.8,125.2 518.6,124.6 519.4,124.6 520.3,125.0 521.1,125.5 521.9,126.1 522.7,126.6 523.5,126.8 524.3,126.7 525.1,126.4 526.0,125.9 526.8,125.3 527.6,124.7 528.4,124.1 529.2,123.8 530.0,124.1 530.8,125.2 531.7,127.4 532.5,130.8 533.3,135.3 534.1,141.0 534.9,147.8 535.7,155.5 536.5,164.1 537.3,173.3 538.2,181.1 539.0,186.7 539.8,189.9 540.6,191.0 541.4,190.3 542.2,188.2 543.0,185.3 543.9,181.8 544.7,178.3 545.5,175.1 546.3,172.6 547.1,170.8 547.9,169.6 548.7,169.0 549.6,169.1 550.4,169.8 551.2,171.0 552.0,172.7 552.8,174.9 553.6,177.4 554.4,180.4 555.2,183.6 556.1,187.0 556.9,190.7 557.7,194.5 558.5,198.5 559.3,202.5 560.1,206.4 560.9,210.0 561.8,213.1 562.6,215.4 563.4,216.7 564.2,216.7 565.0,215.3 565.8,212.6 566.6,208.6 567.5,203.6 568.3,198.1 569.1,192.4 569.9,186.9 570.7,182.0 571.5,178.1 572.3,175.2 573.1,173.7 574.0,173.5 574.8,174.4 575.6,176.5 576.4,179.4 577.2,182.9 578.0,186.7 578.8,190.6 579.7,194.4 580.5,197.8 581.3,200.7 582.1,203.0 582.9,204.5 583.7,205.2 584.5,205.1 585.4,204.3 586.2,202.8 587.0,200.9 587.8,198.7 588.6,196.5 589.4,194.4 590.2,192.7 591.1,191.5 591.9,190.7 592.7,190.6 593.5,190.9 594.3,191.7 595.1,192.9 595.9,194.2 596.7,195.7 597.6,197.1 598.4,198.4 599.2,199.4 600.0,200.2 600.8,200.7 601.6,200.9 602.4,200.9 603.3,200.6 604.1,200.3 604.9,199.9 605.7,199.6 606.5,199.5 607.3,199.4 608.1,199.6 609.0,199.9 609.8,200.4 610.6,201.0 611.4,201.7 612.2,202.5 613.0,202.8 613.8,202.5 614.6,201.0 615.5,198.0 616.3,193.1 617.1,186.0 617.9,176.8 618.7,165.4 619.5,152.7 620.3,140.1 621.2,128.3 622.0,118.0 622.8,109.6 623.6,103.3 624.4,99.3 625.2,97.7 626.0,99.1 626.9,104.6 627.7,114.2 628.5,127.9 629.3,145.0 630.1,164.4 630.9,184.4 631.7,203.2 632.6,220.2 633.4,234.6 634.2,245.6 635.0,250.9 635.8,250.9 636.6,249.4 637.4,238.4 638.2,220.7 639.1,198.6 639.9,175.0 640.7,152.3 641.5,131.8 642.3,115.4 643.1,102.7 643.9,93.4 644.8,87.9 645.6,86.9 646.4,91.1 647.2,100.4 648.0,114.0 648.8,130.9 649.6,149.7 650.5,169.2 651.3,188.5 652.1,205.7 652.9,219.1 653.7,228.2 654.5,232.4 655.3,231.2 656.1,224.1 657.0,211.1 657.8,192.4 658.6,169.1 659.4,145.5 660.2,125.0 661.0,108.5 661.8,95.5 662.7,85.7 663.5,79.9 664.3,78.8 665.1,82.8 665.9,92.3 666.7,106.0 667.5,122.5 668.4,140.4 669.2,158.6 670.0,176.1 670.8,191.1 671.6,202.3 672.4,209.5 673.2,212.3 674.1,210.3 674.9,203.2 675.7,190.7 676.5,172.7 677.3,152.4 678.1,132.8 678.9,116.4 679.7,103.4 680.6,93.9 681.4,88.2 682.2,86.6 683.0,89.6 683.8,96.9 684.6,106.7 685.4,118.4 686.3,131.1 687.1,144.0 687.9,156.2 688.7,166.7 689.5,174.7 690.3,179.4 691.1,180.1 692.0,176.2 692.8,167.7 693.6,155.5 694.4,141.7 695.2,128.0 696.0,116.1 696.8,106.9 697.6,101.2 698.5,99.2 699.3,100.6 700.1,105.3 700.9,113.2 701.7,124.0 702.5,137.1 703.3,151.7 704.2,166.9 705.0,181.7 705.8,194.5 706.6,204.4 707.4,211.1 708.2,214.6 709.0,214.5 709.9,210.4 710.7,202.0 711.5,189.4 712.3,173.6 713.1,155.4 713.9,136.4 714.7,118.7 715.5,103.9 716.4,92.7 717.2,85.8 718.0,83.9 718.8,87.8 719.6,97.7 720.4,113.6 721.2,133.7 722.1,155.1 722.9,176.0 723.7,193.9 724.5,207.7 725.3,217.7 726.1,223.8 726.9,225.6 727.8,222.7 728.6,216.2 729.4,206.5 730.2,194.1 731.0,179.9 731.8,165.1 732.6,151.1 733.5,139.2 734.3,131.0 735.1,126.9 735.9,127.4 736.7,132.7 737.5,143.1 738.3,157.3 739.1,172.5 740.0,186.8 740.8,198.6 741.6,207.4 742.4,212.7 743.2,214.8 744.0,213.9 744.8,210.6 745.7,205.7 746.5,200.0 747.3,194.3 748.1,189.2 748.9,185.2 749.7,182.5 750.5,181.3 751.4,181.3 752.2,182.4 753.0,184.3 753.8,186.7 754.6,189.3 755.4,191.8 756.2,194.1 757.0,196.0 757.9,197.3 758.7,198.2 759.5,198.6 760.3,198.7 761.1,198.4 761.9,197.9 762.7,197.3 763.6,196.8 764.4,196.4 765.2,196.1 766.0,196.1"/>
<line x1="606" y1="60" x2="628" y2="60" stroke="#24a148" stroke-width="2.2"/>
<text x="634" y="64" font-family="Arial" font-size="12">beta_deg</text>
</svg>