<svg xmlns="http://www.w3.org/2000/svg" width="820" height="320" viewBox="0 0 820 320">
<rect width="100%" height="100%" fill="#ffffff"/>
<text x="54" y="28" font-family="Arial" font-size="18" font-weight="700">Dynamic Pressure</text>
<line x1="54" y1="266" x2="766" y2="266" stroke="#1f2933"/>
<line x1="54" y1="54" x2="54" y2="266" stroke="#1f2933"/>
<text x="54" y="306" font-family="Arial" font-size="12">time (s)</text>
<text x="596" y="306" font-family="Arial" font-size="12">qbar (Pa)</text>
<text x="58" y="68" font-family="Arial" font-size="11">1.26e+03</text>
<text x="58" y="260" font-family="Arial" font-size="11">285</text>
<polyline fill="none" stroke="#0f62fe" stroke-width="2.2" points="54.0,54.0 54.8,55.5 55.6,57.0 56.4,58.3 57.3,59.7 58.1,61.3 58.9,63.1 59.7,65.0 60.5,66.7 61.3,68.0 62.1,68.7 63.0,69.4 63.8,70.8 64.6,72.6 65.4,74.4 66.2,75.5 67.0,75.7 67.8,76.7 68.6,80.9 69.5,87.5 70.3,94.5 71.1,101.3 71.9,107.5 72.7,113.2 73.5,118.5 74.3,123.5 75.2,128.6 76.0,133.8 76.8,139.2 77.6,144.5 78.4,149.7 79.2,154.9 80.0,159.9 80.9,164.9 81.7,169.8 82.5,174.5 83.3,179.1 84.1,183.5 84.9,187.6 85.7,191.5 86.5,195.2 87.4,198.6 88.2,201.9 89.0,205.0 89.8,207.9 90.6,210.4 91.4,212.6 92.2,214.7 93.1,216.5 93.9,218.1 94.7,219.7 95.5,221.1 96.3,222.5 97.1,223.9 97.9,225.4 98.8,227.1 99.6,229.2 100.4,231.4 101.2,233.8 102.0,236.3 102.8,238.7 103.6,240.9 104.5,242.5 105.3,243.4 106.1,243.5 106.9,242.0 107.7,241.5 108.5,242.3 109.3,243.6 110.1,245.3 111.0,247.1 111.8,249.0 112.6,250.9 113.4,252.9 114.2,254.9 115.0,256.8 115.8,258.6 116.7,260.1 117.5,261.5 118.3,262.5 119.1,263.1 119.9,263.2 120.7,263.0 121.5,262.7 122.4,262.6 123.2,262.8 124.0,263.2 124.8,263.7 125.6,264.2 126.4,264.8 127.2,265.3 128.0,265.7 128.9,266.0 129.7,266.0 130.5,265.1 131.3,264.5 132.1,264.2 132.9,263.7 133.7,262.9 134.6,261.3 135.4,259.3 136.2,257.5 137.0,256.5 137.8,256.3 138.6,256.5 139.4,256.9 140.3,257.4 141.1,257.9 141.9,258.2 142.7,258.4 143.5,258.1 144.3,257.0 145.1,255.4 145.9,253.5 146.8,251.5 147.6,249.8 148.4,248.3 149.2,247.3 150.0,246.6 150.8,246.2 151.6,245.9 152.5,245.7 153.3,245.6 154.1,245.4 154.9,245.3 155.7,245.1 156.5,245.0 157.3,244.9 158.2,244.8 159.0,244.8 159.8,244.7 160.6,244.7 161.4,244.8 162.2,244.9 163.0,245.0 163.9,245.1 164.7,245.2 165.5,245.3 166.3,245.5 167.1,245.6 167.9,245.6 168.7,245.7 169.5,245.7 170.4,245.8 171.2,245.8 172.0,245.8 172.8,245.8 173.6,245.8 174.4,245.8 175.2,245.8 176.1,245.8 176.9,245.8 177.7,245.8 178.5,245.7 179.3,245.7 180.1,245.7 180.9,245.7 181.8,245.6 182.6,245.6 183.4,245.5 184.2,245.5 185.0,245.4 185.8,245.2 186.6,245.1 187.4,245.0 188.3,244.8 189.1,244.7 189.9,244.6 190.7,244.4 191.5,244.3 192.3,244.1 193.1,244.0 194.0,243.8 194.8,243.6 195.6,243.4 196.4,243.3 197.2,243.1 198.0,242.9 198.8,242.7 199.7,242.6 200.5,242.4 201.3,242.2 202.1,242.1 202.9,241.9 203.7,241.8 204.5,241.7 205.4,241.6 206.2,241.7 207.0,241.9 207.8,242.3 208.6,242.8 209.4,243.4 210.2,243.9 211.0,244.4 211.9,244.8 212.7,245.1 213.5,245.4 214.3,245.5 215.1,245.6 215.9,245.8 216.7,246.0 217.6,246.2 218.4,246.4 219.2,246.5 220.0,246.5 220.8,246.1 221.6,244.9 222.4,243.2 223.3,241.2 224.1,239.1 224.9,237.0 225.7,235.3 226.5,234.1 227.3,233.5 228.1,233.5 228.9,233.6 229.8,233.9 230.6,234.1 231.4,234.2 232.2,234.3 233.0,234.4 233.8,234.5 234.6,234.5 235.5,234.6 236.3,234.6 237.1,234.6 237.9,234.6 238.7,234.5 239.5,234.4 240.3,234.3 241.2,234.3 242.0,234.5 242.8,234.8 243.6,235.1 244.4,235.4 245.2,235.7 246.0,235.8 246.9,235.9 247.7,236.0 248.5,236.0 249.3,236.1 250.1,236.1 250.9,236.1 251.7,236.1 252.5,236.1 253.4,236.1 254.2,236.1 255.0,236.1 255.8,236.2 256.6,236.3 257.4,236.3 258.2,236.4 259.1,236.4 259.9,236.3 260.7,236.1 261.5,235.7 262.3,235.3 263.1,235.0 263.9,234.9 264.8,234.8 265.6,234.9 266.4,235.0 267.2,235.2 268.0,235.4 268.8,235.7 269.6,235.9 270.4,236.0 271.3,236.1 272.1,236.2 272.9,236.3 273.7,236.4 274.5,236.3 275.3,235.7 276.1,234.6 277.0,233.2 277.8,231.5 278.6,229.8 279.4,228.0 280.2,226.5 281.0,225.5 281.8,225.2 282.7,225.6 283.5,226.3 284.3,227.2 285.1,228.1 285.9,228.9 286.7,229.7 287.5,230.4 288.3,230.9 289.2,231.4 290.0,231.8 290.8,232.1 291.6,232.3 292.4,232.4 293.2,232.5 294.0,232.3 294.9,231.9 295.7,231.6 296.5,231.5 297.3,231.6 298.1,231.8 298.9,232.1 299.7,232.6 300.6,233.0 301.4,233.4 302.2,233.7 303.0,234.0 303.8,234.2 304.6,234.3 305.4,234.5 306.3,234.6 307.1,234.7 307.9,234.8 308.7,235.0 309.5,235.3 310.3,235.5 311.1,235.9 311.9,236.2 312.8,236.5 313.6,236.9 314.4,237.2 315.2,237.5 316.0,237.8 316.8,238.1 317.6,238.4 318.5,238.6 319.3,238.9 320.1,239.1 320.9,239.4 321.7,239.7 322.5,240.0 323.3,240.3 324.2,240.7 325.0,241.0 325.8,241.3 326.6,241.6 327.4,241.8 328.2,242.1 329.0,242.4 329.8,242.6 330.7,242.9 331.5,243.1 332.3,243.3 333.1,243.5 333.9,243.7 334.7,243.9 335.5,244.1 336.4,244.3 337.2,244.4 338.0,244.6 338.8,244.8 339.6,244.9 340.4,245.1 341.2,245.2 342.1,245.3 342.9,245.4 343.7,245.5 344.5,245.6 345.3,245.7 346.1,245.8 346.9,245.9 347.8,245.9 348.6,246.0 349.4,246.0 350.2,246.1 351.0,246.1 351.8,246.1 352.6,246.2 353.4,246.2 354.3,246.2 355.1,246.2 355.9,246.2 356.7,246.1 357.5,246.1 358.3,246.0 359.1,245.9 360.0,245.8 360.8,245.7 361.6,245.6 362.4,245.5 363.2,245.4 364.0,245.3 364.8,245.1 365.7,245.0 366.5,244.8 367.3,244.7 368.1,244.5 368.9,244.3 369.7,244.2 370.5,244.0 371.3,243.8 372.2,243.6 373.0,243.4 373.8,243.2 374.6,242.9 375.4,242.7 376.2,242.5 377.0,242.2 377.9,242.0 378.7,241.7 379.5,241.4 380.3,241.0 381.1,240.6 381.9,240.1 382.7,239.6 383.6,239.1 384.4,238.5 385.2,238.0 386.0,237.6 386.8,237.2 387.6,236.8 388.4,236.5 389.3,236.2 390.1,236.1 390.9,236.0 391.7,235.9 392.5,235.9 393.3,235.9 394.1,236.0 394.9,236.0 395.8,236.1 396.6,236.2 397.4,236.4 398.2,236.7 399.0,237.2 399.8,237.8 400.6,238.5 401.5,239.5 402.3,240.5 403.1,241.4 403.9,242.2 404.7,243.0 405.5,243.6 406.3,244.2 407.2,244.6 408.0,245.0 408.8,245.4 409.6,245.7 410.4,246.1 411.2,246.4 412.0,246.6 412.8,246.7 413.7,246.6 414.5,246.0 415.3,244.6 416.1,242.8 416.9,240.8 417.7,238.7 418.5,236.7 419.4,235.1 420.2,234.0 421.0,233.4 421.8,233.3 422.6,233.3 423.4,233.4 424.2,233.4 425.1,233.5 425.9,233.6 426.7,233.7 427.5,233.8 428.3,233.9 429.1,234.0 429.9,234.1 430.7,234.2 431.6,234.4 432.4,234.5 433.2,234.8 434.0,235.0 434.8,235.2 435.6,235.5 436.4,235.7 437.3,235.9 438.1,236.1 438.9,236.3 439.7,236.4 440.5,236.5 441.3,236.6 442.1,236.8 443.0,236.9 443.8,237.0 444.6,237.1 445.4,237.1 446.2,237.2 447.0,237.3 447.8,237.3 448.7,237.4 449.5,237.4 450.3,237.4 451.1,237.4 451.9,237.4 452.7,237.4 453.5,237.3 454.3,237.3 455.2,237.2 456.0,237.3 456.8,237.4 457.6,237.6 458.4,238.0 459.2,238.4 460.0,238.7 460.9,239.0 461.7,239.3 462.5,239.4 463.3,239.4 464.1,239.4 464.9,239.4 465.7,239.6 466.6,239.9 467.4,240.2 468.2,240.4 469.0,240.4 469.8,239.8 470.6,238.5 471.4,236.8 472.2,235.0 473.1,233.1 473.9,231.6 474.7,230.6 475.5,230.3 476.3,230.5 477.1,230.9 477.9,231.4 478.8,231.8 479.6,232.1 480.4,232.4 481.2,232.5 482.0,232.7 482.8,232.8 483.6,233.0 484.5,233.1 485.3,232.9 486.1,232.2 486.9,231.0 487.7,229.4 488.5,227.7 489.3,225.8 490.2,224.1 491.0,223.0 491.8,222.6 492.6,223.0 493.4,223.7 494.2,224.6 495.0,225.5 495.8,226.3 496.7,226.9 497.5,227.4 498.3,227.8 499.1,228.1 499.9,228.4 500.7,228.7 501.5,228.8 502.4,228.8 503.2,228.8 504.0,228.7 504.8,228.8 505.6,229.1 506.4,229.4 507.2,229.8 508.1,230.2 508.9,230.5 509.7,230.8 510.5,231.0 511.3,231.1 512.1,231.1 512.9,231.0 513.7,230.9 514.6,230.7 515.4,230.6 516.2,230.3 517.0,230.1 517.8,229.9 518.6,229.6 519.4,229.2 520.3,228.8 521.1,228.3 521.9,227.7 522.7,227.1 523.5,226.5 524.3,225.8 525.1,225.1 526.0,224.4 526.8,223.6 527.6,222.7 528.4,221.8 529.2,220.8 530.0,219.8 530.8,218.7 531.7,217.5 532.5,216.4 533.3,215.4 534.1,214.6 534.9,214.0 535.7,213.9 536.5,214.3 537.3,215.2 538.2,216.1 539.0,217.3 539.8,218.6 540.6,220.3 541.4,222.0 542.2,223.7 543.0,225.3 543.9,226.9 544.7,228.3 545.5,229.6 546.3,230.8 547.1,231.9 547.9,232.9 548.7,234.0 549.6,235.0 550.4,236.0 551.2,236.9 552.0,237.9 552.8,238.8 553.6,239.8 554.4,240.8 555.2,241.9 556.1,242.9 556.9,243.9 557.7,244.9 558.5,245.8 559.3,246.7 560.1,247.6 560.9,248.3 561.8,249.1 562.6,249.7 563.4,250.4 564.2,251.0 565.0,251.5 565.8,252.0 566.6,252.4 567.5,252.8 568.3,253.1 569.1,253.4 569.9,253.6 570.7,253.7 571.5,253.8 572.3,253.9 573.1,253.9 574.0,253.9 574.8,253.8 575.6,253.8 576.4,253.8 577.2,253.7 578.0,253.7 578.8,253.7 579.7,253.8 580.5,253.8 581.3,253.9 582.1,254.0 582.9,254.0 583.7,254.1 584.5,254.2 585.4,254.2 586.2,254.2 587.0,254.2 587.8,254.1 588.6,254.1 589.4,254.0 590.2,253.9 591.1,253.8 591.9,253.7 592.7,253.6 593.5,253.4 594.3,253.3 595.1,253.2 595.9,253.1 596.7,253.0 597.6,252.8 598.4,252.7 599.2,252.6 600.0,252.5 600.8,252.4 601.6,252.2 602.4,252.1 603.3,252.0 604.1,251.8 604.9,251.7 605.7,251.5 606.5,251.4 607.3,251.2 608.1,251.1 609.0,251.0 609.8,250.8 610.6,250.7 611.4,250.6 612.2,250.4 613.0,250.3 613.8,250.2 614.6,250.1 615.5,250.0 616.3,249.9 617.1,249.7 617.9,249.6 618.7,249.5 619.5,249.4 620.3,249.3 621.2,249.4 622.0,249.6 622.8,249.8 623.6,250.2 624.4,250.5 625.2,250.8 626.0,251.1 626.9,251.3 627.7,251.5 628.5,251.6 629.3,251.6 630.1,251.6 630.9,251.6 631.7,251.7 632.6,251.8 633.4,252.0 634.2,252.2 635.0,252.4 635.8,252.6 636.6,252.6 637.4,252.5 638.2,252.2 639.1,251.4 639.9,250.3 640.7,249.1 641.5,248.0 642.3,247.2 643.1,246.7 643.9,246.4 644.8,246.3 645.6,246.3 646.4,246.2 647.2,246.0 648.0,245.8 648.8,245.5 649.6,245.3 650.5,245.0 651.3,244.9 652.1,244.9 652.9,244.9 653.7,245.0 654.5,245.0 655.3,245.1 656.1,245.0 657.0,244.8 657.8,244.1 658.6,243.2 659.4,242.2 660.2,241.5 661.0,241.2 661.8,241.0 662.7,241.2 663.5,241.4 664.3,241.8 665.1,242.0 665.9,242.1 666.7,242.1 667.5,242.0 668.4,241.8 669.2,241.7 670.0,241.6 670.8,241.6 671.6,241.8 672.4,241.9 673.2,242.1 674.1,242.3 674.9,242.4 675.7,242.4 676.5,242.3 677.3,242.1 678.1,241.9 678.9,241.8 679.7,241.9 680.6,242.2 681.4,242.6 682.2,243.1 683.0,243.5 683.8,243.7 684.6,243.9 685.4,243.9 686.3,243.9 687.1,243.8 687.9,243.8 688.7,243.8 689.5,243.9 690.3,244.0 691.1,244.2 692.0,244.4 692.8,244.5 693.6,244.6 694.4,244.7 695.2,244.9 696.0,245.1 696.8,245.3 697.6,245.5 698.5,245.7 699.3,245.8 700.1,245.8 700.9,245.8 701.7,245.7 702.5,245.5 703.3,245.3 704.2,245.1 705.0,244.9 705.8,244.9 706.6,244.9 707.4,245.2 708.2,245.6 709.0,246.0 709.9,246.4 710.7,246.8 711.5,247.1 712.3,247.3 713.1,247.5 713.9,247.6 714.7,247.8 715.5,248.0 716.4,248.2 717.2,248.4 718.0,248.5 718.8,248.6 719.6,248.5 720.4,248.2 721.2,247.5 722.1,246.6 722.9,245.6 723.7,244.9 724.5,244.6 725.3,244.4 726.1,244.3 726.9,244.4 727.8,244.6 728.6,244.8 729.4,244.9 730.2,245.0 731.0,245.0 731.8,245.0 732.6,245.1 733.5,245.1 734.3,245.1 735.1,245.1 735.9,245.1 736.7,245.0 737.5,244.9 738.3,244.8 739.1,244.6 740.0,244.5 740.8,244.4 741.6,244.5 742.4,244.7 743.2,245.0 744.0,245.4 744.8,245.8 745.7,246.1 746.5,246.4 747.3,246.6 748.1,246.8 748.9,247.0 749.7,247.1 750.5,247.2 751.4,247.4 752.2,247.5 753.0,247.6 753.8,247.7 754.6,247.8 755.4,248.0 756.2,248.1 757.0,248.3 757.9,248.5 758.7,248.7 759.5,248.8 760.3,249.0 761.1,249.2 761.9,249.3 762.7,249.4 763.6,249.6 764.4,249.7 765.2,249.8 766.0,249.8"/>
<line x1="606" y1="42" x2="628" y2="42" stroke="#0f62fe" stroke-width="2.2"/>
<text x="634" y="46" font-family="Arial" font-size="12">qbar_pa</text>
</svg>