<svg xmlns="http://www.w3.org/2000/svg" width="820" height="320" viewBox="0 0 820 320">
<rect width="100%" height="100%" fill="#ffffff"/>
<text x="54" y="28" font-family="Arial" font-size="18" font-weight="700">Pitch Command Tracking</text>
<line x1="54" y1="266" x2="766" y2="266" stroke="#1f2933"/>
<line x1="54" y1="54" x2="54" y2="266" stroke="#1f2933"/>
<text x="54" y="306" font-family="Arial" font-size="12">time (s)</text>
<text x="596" y="306" font-family="Arial" font-size="12">pitch (deg)</text>
<text x="58" y="68" font-family="Arial" font-size="11">78.7</text>
<text x="58" y="260" font-family="Arial" font-size="11">-83.7</text>
<polyline fill="none" stroke="#0f62fe" stroke-width="2.2" points="54.0,176.3 54.8,176.3 55.6,176.3 56.4,176.3 57.3,176.3 58.1,176.3 58.9,176.3 59.7,176.3 60.5,176.3 61.3,176.3 62.1,176.3 63.0,176.3 63.8,176.3 64.6,176.3 65.4,176.3 66.2,176.3 67.0,176.3 67.8,176.3 68.6,176.3 69.5,176.3 70.3,176.3 71.1,176.3 71.9,176.3 72.7,176.3 73.5,176.3 74.3,176.3 75.2,176.3 76.0,176.3 76.8,176.3 77.6,176.3 78.4,176.3 79.2,176.3 80.0,176.3 80.9,176.3 81.7,176.3 82.5,176.3 83.3,176.3 84.1,176.3 84.9,176.3 85.7,176.3 86.5,176.3 87.4,176.3 88.2,176.3 89.0,176.3 89.8,176.3 90.6,176.3 91.4,176.3 92.2,176.3 93.1,176.3 93.9,176.3 94.7,176.3 95.5,176.3 96.3,176.3 97.1,176.3 97.9,176.3 98.8,176.3 99.6,176.3 100.4,176.3 101.2,176.3 102.0,176.3 102.8,176.3 103.6,176.3 104.5,176.3 105.3,176.3 106.1,176.3 106.9,176.3 107.7,176.3 108.5,176.3 109.3,176.3 110.1,176.3 111.0,176.3 111.8,176.3 112.6,176.3 113.4,176.3 114.2,176.3 115.0,176.3 115.8,176.3 116.7,176.3 117.5,176.3 118.3,176.3 119.1,176.3 119.9,176.3 120.7,176.3 121.5,176.3 122.4,176.3 123.2,176.3 124.0,176.3 124.8,176.3 125.6,176.3 126.4,176.3 127.2,176.3 128.0,176.3 128.9,176.3 129.7,176.3 130.5,176.3 131.3,176.3 132.1,176.3 132.9,176.3 133.7,176.3 134.6,176.3 135.4,176.3 136.2,176.3 137.0,176.3 137.8,176.3 138.6,176.3 139.4,176.3 140.3,176.3 141.1,176.3 141.9,176.3 142.7,176.3 143.5,176.3 144.3,176.3 145.1,176.3 145.9,176.3 146.8,176.3 147.6,176.3 148.4,176.3 149.2,176.3 150.0,176.3 150.8,176.3 151.6,176.3 152.5,176.3 153.3,176.3 154.1,176.3 154.9,176.3 155.7,176.3 156.5,176.3 157.3,176.3 158.2,176.3 159.0,176.3 159.8,176.3 160.6,176.3 161.4,176.3 162.2,176.3 163.0,176.3 163.9,176.3 164.7,176.3 165.5,176.3 166.3,176.3 167.1,176.3 167.9,176.3 168.7,176.3 169.5,176.3 170.4,176.3 171.2,176.3 172.0,176.3 172.8,176.3 173.6,176.3 174.4,176.3 175.2,176.3 176.1,176.3 176.9,176.3 177.7,176.3 178.5,176.3 179.3,176.3 180.1,176.3 180.9,176.3 181.8,176.3 182.6,176.3 183.4,176.3 184.2,176.3 185.0,176.3 185.8,176.3 186.6,176.3 187.4,176.3 188.3,176.3 189.1,176.3 189.9,176.3 190.7,176.3 191.5,176.3 192.3,176.3 193.1,176.3 194.0,176.3 194.8,176.3 195.6,176.3 196.4,176.3 197.2,176.3 198.0,176.3 198.8,176.3 199.7,176.3 200.5,176.3 201.3,176.3 202.1,176.3 202.9,176.3 203.7,176.3 204.5,176.3 205.4,176.3 206.2,176.3 207.0,176.3 207.8,176.3 208.6,176.3 209.4,176.3 210.2,176.3 211.0,176.3 211.9,176.3 212.7,176.3 213.5,176.3 214.3,176.3 215.1,176.3 215.9,176.3 216.7,176.3 217.6,176.3 218.4,176.3 219.2,176.3 220.0,176.3 220.8,176.3 221.6,176.3 222.4,176.3 223.3,176.3 224.1,176.3 224.9,176.3 225.7,176.3 226.5,176.3 227.3,176.3 228.1,176.3 228.9,176.3 229.8,176.3 230.6,176.3 231.4,176.3 232.2,176.3 233.0,176.3 233.8,176.3 234.6,176.3 235.5,176.3 236.3,176.3 237.1,176.3 237.9,176.3 238.7,176.3 239.5,176.3 240.3,176.3 241.2,176.3 242.0,176.3 242.8,176.3 243.6,176.3 244.4,176.3 245.2,176.3 246.0,176.3 246.9,176.3 247.7,176.3 248.5,176.3 249.3,176.3 250.1,176.3 250.9,176.3 251.7,176.3 252.5,176.3 253.4,176.3 254.2,176.3 255.0,176.3 255.8,176.3 256.6,176.3 257.4,176.3 258.2,176.3 259.1,176.3 259.9,176.3 260.7,176.3 261.5,176.3 262.3,176.3 263.1,176.3 263.9,176.3 264.8,176.3 265.6,176.3 266.4,176.3 267.2,176.3 268.0,176.3 268.8,176.3 269.6,176.3 270.4,176.3 271.3,176.3 272.1,176.3 272.9,176.3 273.7,176.3 274.5,176.3 275.3,176.3 276.1,176.3 277.0,176.3 277.8,176.3 278.6,176.3 279.4,176.3 280.2,176.3 281.0,176.3 281.8,176.3 282.7,176.3 283.5,176.3 284.3,176.3 285.1,176.3 285.9,176.3 286.7,176.3 287.5,176.3 288.3,176.3 289.2,176.3 290.0,176.3 290.8,176.3 291.6,176.3 292.4,176.3 293.2,176.3 294.0,176.3 294.9,176.3 295.7,176.3 296.5,176.3 297.3,176.3 298.1,176.3 298.9,176.3 299.7,176.3 300.6,176.3 301.4,176.3 302.2,176.3 303.0,176.3 303.8,176.3 304.6,176.3 305.4,176.3 306.3,176.3 307.1,176.3 307.9,176.3 308.7,176.3 309.5,176.3 310.3,176.3 311.1,176.3 311.9,176.3 312.8,176.3 313.6,176.3 314.4,176.3 315.2,176.3 316.0,176.3 316.8,176.3 317.6,176.3 318.5,176.3 319.3,176.3 320.1,176.3 320.9,176.3 321.7,176.3 322.5,176.3 323.3,176.3 324.2,176.3 325.0,176.3 325.8,176.3 326.6,176.3 327.4,176.3 328.2,176.3 329.0,176.3 329.8,176.3 330.7,176.3 331.5,176.3 332.3,176.3 333.1,176.3 333.9,176.3 334.7,176.3 335.5,176.3 336.4,176.3 337.2,176.3 338.0,176.3 338.8,176.3 339.6,176.3 340.4,176.3 341.2,176.3 342.1,176.3 342.9,176.3 343.7,176.3 344.5,176.3 345.3,176.3 346.1,176.3 346.9,176.3 347.8,176.3 348.6,176.3 349.4,176.3 350.2,176.3 351.0,176.3 351.8,176.3 352.6,176.3 353.4,176.3 354.3,176.3 355.1,176.3 355.9,176.3 356.7,176.3 357.5,176.3 358.3,176.3 359.1,176.3 360.0,176.3 360.8,176.3 361.6,176.3 362.4,176.3 363.2,176.3 364.0,176.3 364.8,176.3 365.7,176.3 366.5,176.3 367.3,176.3 368.1,176.3 368.9,176.3 369.7,176.3 370.5,176.3 371.3,176.3 372.2,176.3 373.0,176.3 373.8,176.3 374.6,176.3 375.4,176.3 376.2,176.3 377.0,176.3 377.9,176.3 378.7,176.3 379.5,176.3 380.3,176.3 381.1,176.3 381.9,176.3 382.7,176.3 383.6,176.3 384.4,176.3 385.2,176.3 386.0,176.3 386.8,176.3 387.6,176.3 388.4,176.3 389.3,176.3 390.1,176.3 390.9,176.3 391.7,176.3 392.5,176.3 393.3,176.3 394.1,176.3 394.9,176.3 395.8,176.3 396.6,176.3 397.4,176.3 398.2,176.3 399.0,176.3 399.8,176.3 400.6,176.3 401.5,176.3 402.3,176.3 403.1,176.3 403.9,176.3 404.7,176.3 405.5,176.3 406.3,176.3 407.2,176.3 408.0,176.3 408.8,176.3 409.6,176.3 410.4,176.3 411.2,176.3 412.0,176.3 412.8,176.3 413.7,176.3 414.5,176.3 415.3,176.3 416.1,176.3 416.9,176.3 417.7,176.3 418.5,176.3 419.4,176.3 420.2,176.3 421.0,176.3 421.8,176.3 422.6,176.3 423.4,176.3 424.2,176.3 425.1,176.3 425.9,176.3 426.7,176.3 427.5,176.3 428.3,176.3 429.1,176.3 429.9,176.3 430.7,176.3 431.6,176.3 432.4,176.3 433.2,176.3 434.0,176.3 434.8,176.3 435.6,176.3 436.4,176.3 437.3,176.3 438.1,176.3 438.9,176.3 439.7,176.3 440.5,176.3 441.3,176.3 442.1,176.3 443.0,176.3 443.8,176.3 444.6,176.3 445.4,176.3 446.2,176.3 447.0,176.3 447.8,176.3 448.7,176.3 449.5,176.3 450.3,176.3 451.1,176.3 451.9,176.3 452.7,176.3 453.5,176.3 454.3,176.3 455.2,176.3 456.0,176.3 456.8,176.3 457.6,176.3 458.4,176.3 459.2,176.3 460.0,176.3 460.9,176.3 461.7,176.3 462.5,176.3 463.3,176.3 464.1,176.3 464.9,176.3 465.7,176.3 466.6,176.3 467.4,176.3 468.2,176.3 469.0,176.3 469.8,176.3 470.6,176.3 471.4,176.3 472.2,176.3 473.1,176.3 473.9,176.3 474.7,176.3 475.5,176.3 476.3,176.3 477.1,176.3 477.9,176.3 478.8,176.3 479.6,176.3 480.4,176.3 481.2,176.3 482.0,176.3 482.8,176.3 483.6,176.3 484.5,176.3 485.3,176.3 486.1,176.3 486.9,176.3 487.7,176.3 488.5,176.3 489.3,176.3 490.2,176.3 491.0,176.3 491.8,176.3 492.6,176.3 493.4,176.3 494.2,176.3 495.0,176.3 495.8,176.3 496.7,176.3 497.5,176.3 498.3,176.3 499.1,176.3 499.9,176.3 500.7,176.3 501.5,176.3 502.4,176.3 503.2,176.3 504.0,176.3 504.8,176.2 505.6,176.2 506.4,176.1 507.2,176.0 508.1,176.0 508.9,175.9 509.7,175.9 510.5,175.8 511.3,175.8 512.1,175.7 512.9,175.7 513.7,175.6 514.6,175.6 515.4,175.5 516.2,175.4 517.0,175.4 517.8,175.3 518.6,175.3 519.4,175.2 520.3,175.2 521.1,175.1 521.9,175.1 522.7,175.0 523.5,175.0 524.3,174.9 525.1,174.9 526.0,174.8 526.8,174.8 527.6,174.7 528.4,174.6 529.2,174.6 530.0,174.5 530.8,174.5 531.7,174.4 532.5,174.4 533.3,174.3 534.1,174.3 534.9,174.2 535.7,174.2 536.5,174.1 537.3,174.1 538.2,174.0 539.0,173.9 539.8,173.9 540.6,173.8 541.4,173.8 542.2,173.7 543.0,173.7 543.9,173.6 544.7,173.6 545.5,173.5 546.3,173.5 547.1,173.4 547.9,173.3 548.7,173.3 549.6,173.2 550.4,173.2 551.2,173.1 552.0,173.1 552.8,173.0 553.6,172.9 554.4,172.9 555.2,172.8 556.1,172.8 556.9,172.7 557.7,172.7 558.5,172.6 559.3,172.5 560.1,172.5 560.9,172.4 561.8,172.4 562.6,172.3 563.4,172.2 564.2,172.2 565.0,172.1 565.8,172.1 566.6,172.0 567.5,171.9 568.3,171.9 569.1,171.8 569.9,171.7 570.7,171.7 571.5,171.6 572.3,171.6 573.1,171.5 574.0,171.4 574.8,171.4 575.6,171.3 576.4,171.2 577.2,171.2 578.0,171.1 578.8,171.0 579.7,171.0 580.5,170.9 581.3,170.8 582.1,170.8 582.9,170.7 583.7,170.6 584.5,170.6 585.4,170.5 586.2,170.4 587.0,170.4 587.8,170.3 588.6,170.2 589.4,170.2 590.2,170.1 591.1,170.0 591.9,170.0 592.7,169.9 593.5,169.8 594.3,169.8 595.1,169.7 595.9,169.6 596.7,169.6 597.6,169.5 598.4,169.4 599.2,169.4 600.0,169.3 600.8,169.2 601.6,169.1 602.4,169.1 603.3,169.0 604.1,168.9 604.9,168.9 605.7,168.8 606.5,168.7 607.3,168.7 608.1,168.6 609.0,168.5 609.8,168.4 610.6,168.4 611.4,168.3 612.2,168.2 613.0,168.2 613.8,168.1 614.6,168.0 615.5,168.0 616.3,167.9 617.1,167.8 617.9,167.7 618.7,167.7 619.5,167.6 620.3,167.5 621.2,167.5 622.0,167.4 622.8,167.3 623.6,167.3 624.4,167.2 625.2,167.1 626.0,167.0 626.9,167.0 627.7,166.9 628.5,166.8 629.3,166.8 630.1,166.7 630.9,166.6 631.7,166.6 632.6,166.5 633.4,166.4 634.2,166.3 635.0,166.3 635.8,166.2 636.6,166.1 637.4,166.1 638.2,166.0 639.1,165.9 639.9,165.9 640.7,165.8 641.5,165.7 642.3,165.7 643.1,165.6 643.9,165.5 644.8,165.4 645.6,165.4 646.4,165.3 647.2,165.2 648.0,165.2 648.8,165.1 649.6,165.0 650.5,164.9 651.3,164.9 652.1,164.8 652.9,164.7 653.7,164.6 654.5,164.6 655.3,164.5 656.1,164.4 657.0,164.4 657.8,164.3 658.6,164.2 659.4,164.2 660.2,164.1 661.0,164.0 661.8,163.9 662.7,163.9 663.5,163.8 664.3,163.7 665.1,163.6 665.9,163.6 666.7,163.5 667.5,163.4 668.4,163.4 669.2,163.3 670.0,163.2 670.8,163.1 671.6,163.1 672.4,163.0 673.2,162.9 674.1,162.9 674.9,162.8 675.7,162.7 676.5,162.6 677.3,162.6 678.1,162.5 678.9,162.4 679.7,162.4 680.6,162.3 681.4,162.2 682.2,162.1 683.0,162.1 683.8,162.0 684.6,161.9 685.4,161.9 686.3,161.8 687.1,161.7 687.9,161.7 688.7,161.6 689.5,161.5 690.3,161.4 691.1,161.4 692.0,161.3 692.8,161.2 693.6,161.2 694.4,161.1 695.2,161.0 696.0,160.9 696.8,160.9 697.6,160.8 698.5,160.7 699.3,160.7 700.1,160.6 700.9,160.5 701.7,160.5 702.5,160.4 703.3,160.3 704.2,160.2 705.0,160.2 705.8,160.1 706.6,160.0 707.4,160.0 708.2,159.9 709.0,159.8 709.9,159.7 710.7,159.7 711.5,159.6 712.3,159.5 713.1,159.5 713.9,159.4 714.7,159.3 715.5,159.2 716.4,159.2 717.2,159.1 718.0,159.0 718.8,159.0 719.6,158.9 720.4,158.8 721.2,158.8 722.1,158.7 722.9,158.6 723.7,158.5 724.5,158.5 725.3,158.4 726.1,158.3 726.9,158.2 727.8,158.2 728.6,158.1 729.4,158.0 730.2,158.0 731.0,157.9 731.8,157.8 732.6,157.7 733.5,157.7 734.3,157.6 735.1,157.5 735.9,157.4 736.7,157.4 737.5,157.3 738.3,157.2 739.1,157.1 740.0,157.1 740.8,157.0 741.6,156.9 742.4,156.8 743.2,156.8 744.0,156.7 744.8,156.6 745.7,156.5 746.5,156.5 747.3,156.4 748.1,156.3 748.9,156.2 749.7,156.2 750.5,156.1 751.4,156.0 752.2,155.9 753.0,155.9 753.8,155.8 754.6,155.7 755.4,155.6 756.2,155.6 757.0,155.5 757.9,155.4 758.7,155.3 759.5,155.3 760.3,155.2 761.1,155.1 761.9,155.0 762.7,155.0 763.6,154.9 764.4,154.8 765.2,154.7 766.0,154.7"/>
<line x1="606" y1="42" x2="628" y2="42" stroke="#0f62fe" stroke-width="2.2"/>
<text x="634" y="46" font-family="Arial" font-size="12">pitch_command_deg</text>
<polyline fill="none" stroke="#24a148" stroke-width="2.2" points="54.0,159.4 54.8,160.3 55.6,161.6 56.4,162.5 57.3,163.3 58.1,164.0 58.9,164.8 59.7,165.7 60.5,166.8 61.3,168.0 62.1,168.8 63.0,169.0 63.8,169.1 64.6,169.0 65.4,168.4 66.2,166.9 67.0,164.7 67.8,163.5 68.6,163.2 69.5,163.8 70.3,164.0 71.1,163.0 71.9,160.5 72.7,157.0 73.5,153.0 74.3,148.8 75.2,144.4 76.0,139.5 76.8,133.8 77.6,127.1 78.4,119.3 79.2,110.5 80.0,100.8 80.9,90.5 81.7,80.4 82.5,70.9 83.3,62.6 84.1,56.4 84.9,54.0 85.7,55.8 86.5,61.1 87.4,68.4 88.2,76.3 89.0,83.8 89.8,90.2 90.6,95.7 91.4,100.4 92.2,104.6 93.1,108.4 93.9,112.0 94.7,115.4 95.5,118.8 96.3,122.6 97.1,127.0 97.9,132.6 98.8,140.1 99.6,149.9 100.4,162.1 101.2,176.1 102.0,191.4 102.8,207.4 103.6,223.0 104.5,234.4 105.3,233.4 106.1,220.0 106.9,200.9 107.7,181.2 108.5,162.6 109.3,145.8 110.1,131.0 111.0,118.4 111.8,108.3 112.6,101.3 113.4,98.2 114.2,100.2 115.0,107.3 115.8,118.8 116.7,134.0 117.5,152.2 118.3,173.1 119.1,196.2 119.9,219.0 120.7,239.4 121.5,256.5 122.4,263.5 123.2,254.1 124.0,242.8 124.8,233.2 125.6,225.9 126.4,220.9 127.2,218.4 128.0,218.0 128.9,219.8 129.7,223.5 130.5,229.2 131.3,237.3 132.1,247.7 132.9,259.2 133.7,261.1 134.6,247.3 135.4,232.2 136.2,218.3 137.0,206.3 137.8,196.8 138.6,190.1 139.4,186.4 140.3,185.7 141.1,187.9 141.9,192.6 142.7,199.7 143.5,209.1 144.3,220.8 145.1,233.3 145.9,244.9 146.8,254.4 147.6,261.7 148.4,266.0 149.2,265.5 150.0,261.9 150.8,257.3 151.6,252.9 152.5,248.8 153.3,245.0 154.1,241.7 154.9,238.9 155.7,236.5 156.5,234.6 157.3,233.0 158.2,231.6 159.0,230.3 159.8,229.0 160.6,227.5 161.4,226.1 162.2,224.7 163.0,223.4 163.9,222.2 164.7,221.1 165.5,220.2 166.3,219.4 167.1,218.6 167.9,217.9 168.7,217.2 169.5,216.6 170.4,216.1 171.2,215.6 172.0,215.1 172.8,214.7 173.6,214.4 174.4,214.1 175.2,213.8 176.1,213.6 176.9,213.3 177.7,213.1 178.5,213.0 179.3,212.8 180.1,212.7 180.9,212.6 181.8,212.5 182.6,212.4 183.4,212.3 184.2,212.2 185.0,212.1 185.8,212.0 186.6,211.8 187.4,211.7 188.3,211.6 189.1,211.5 189.9,211.5 190.7,211.4 191.5,211.5 192.3,211.5 193.1,211.6 194.0,211.7 194.8,211.8 195.6,212.0 196.4,212.1 197.2,212.3 198.0,212.4 198.8,212.6 199.7,213.0 200.5,213.6 201.3,214.5 202.1,215.8 202.9,217.2 203.7,218.6 204.5,219.5 205.4,219.2 206.2,217.4 207.0,214.8 207.8,212.0 208.6,209.9 209.4,208.7 210.2,208.2 211.0,208.2 211.9,208.2 212.7,208.0 213.5,207.1 214.3,205.4 215.1,203.3 215.9,201.4 216.7,200.4 217.6,200.6 218.4,202.0 219.2,204.6 220.0,208.6 220.8,214.2 221.6,221.5 222.4,229.6 223.3,237.5 224.1,243.9 224.9,247.6 225.7,247.9 226.5,245.2 227.3,240.8 228.1,236.3 228.9,232.6 229.8,229.8 230.6,227.6 231.4,225.6 232.2,223.8 233.0,222.0 233.8,220.2 234.6,218.6 235.5,217.4 236.3,216.9 237.1,217.3 237.9,218.3 238.7,219.7 239.5,220.8 240.3,220.9 241.2,219.8 242.0,218.2 242.8,216.8 243.6,215.9 244.4,215.3 245.2,215.0 246.0,214.7 246.9,214.2 247.7,213.6 248.5,213.0 249.3,212.3 250.1,211.7 250.9,211.3 251.7,211.0 252.5,210.9 253.4,210.8 254.2,210.6 255.0,210.3 255.8,210.0 256.6,209.9 257.4,210.1 258.2,210.6 259.1,211.3 259.9,212.0 260.7,212.6 261.5,213.1 262.3,213.3 263.1,213.3 263.9,212.9 264.8,212.2 265.6,211.2 266.4,210.2 267.2,209.3 268.0,208.6 268.8,208.3 269.6,208.1 270.4,207.7 271.3,207.0 272.1,205.9 272.9,204.7 273.7,204.3 274.5,204.9 275.3,206.3 276.1,208.5 277.0,211.6 277.8,215.2 278.6,218.7 279.4,221.4 280.2,222.7 281.0,222.4 281.8,220.3 282.7,217.1 283.5,213.6 284.3,210.7 285.1,208.6 285.9,207.3 286.7,206.5 287.5,205.8 288.3,205.2 289.2,204.8 290.0,204.8 290.8,205.3 291.6,206.6 292.4,208.8 293.2,212.1 294.0,216.1 294.9,220.1 295.7,223.1 296.5,224.5 297.3,224.3 298.1,222.9 298.9,220.9 299.7,218.9 300.6,217.1 301.4,215.7 302.2,214.8 303.0,214.3 303.8,214.2 304.6,214.4 305.4,214.8 306.3,215.2 307.1,215.4 307.9,215.4 308.7,215.1 309.5,214.6 310.3,214.0 311.1,213.4 311.9,212.7 312.8,212.2 313.6,211.7 314.4,211.4 315.2,211.2 316.0,211.1 316.8,211.1 317.6,211.1 318.5,211.2 319.3,211.2 320.1,211.2 320.9,211.2 321.7,211.2 322.5,211.1 323.3,211.0 324.2,210.8 325.0,210.7 325.8,210.5 326.6,210.4 327.4,210.3 328.2,210.2 329.0,210.1 329.8,210.1 330.7,210.0 331.5,210.0 332.3,210.0 333.1,210.0 333.9,209.9 334.7,209.9 335.5,209.9 336.4,209.9 337.2,209.8 338.0,209.8 338.8,209.7 339.6,209.7 340.4,209.6 341.2,209.6 342.1,209.6 342.9,209.5 343.7,209.5 344.5,209.5 345.3,209.5 346.1,209.5 346.9,209.4 347.8,209.4 348.6,209.4 349.4,209.4 350.2,209.4 351.0,209.4 351.8,209.4 352.6,209.4 353.4,209.4 354.3,209.4 355.1,209.4 355.9,209.4 356.7,209.4 357.5,209.4 358.3,209.4 359.1,209.4 360.0,209.4 360.8,209.4 361.6,209.4 362.4,209.4 363.2,209.4 364.0,209.5 364.8,209.5 365.7,209.5 366.5,209.6 367.3,209.6 368.1,209.6 368.9,209.7 369.7,209.7 370.5,209.8 371.3,209.8 372.2,209.9 373.0,210.0 373.8,210.1 374.6,210.2 375.4,210.3 376.2,210.4 377.0,210.6 377.9,210.7 378.7,210.9 379.5,211.1 380.3,211.3 381.1,211.4 381.9,211.6 382.7,211.7 383.6,211.8 384.4,211.8 385.2,211.9 386.0,212.0 386.8,212.1 387.6,212.3 388.4,212.6 389.3,212.9 390.1,213.3 390.9,213.9 391.7,214.9 392.5,216.5 393.3,218.8 394.1,221.9 394.9,225.7 395.8,229.8 396.6,233.3 397.4,235.1 398.2,234.3 399.0,231.1 399.8,226.7 400.6,222.2 401.5,218.6 402.3,216.2 403.1,214.7 403.9,213.6 404.7,212.5 405.5,211.2 406.3,209.4 407.2,207.1 408.0,204.7 408.8,202.5 409.6,201.2 410.4,201.2 411.2,202.5 412.0,205.2 412.8,209.3 413.7,215.1 414.5,222.9 415.3,231.8 416.1,240.7 416.9,248.8 417.7,255.4 418.5,259.6 419.4,260.2 420.2,257.5 421.0,253.2 421.8,248.8 422.6,245.0 423.4,241.6 424.2,238.7 425.1,235.9 425.9,233.4 426.7,231.1 427.5,229.1 428.3,227.3 429.1,225.9 429.9,224.6 430.7,223.3 431.6,222.2 432.4,221.0 433.2,220.0 434.0,219.1 434.8,218.3 435.6,217.5 436.4,216.9 437.3,216.4 438.1,215.8 438.9,215.3 439.7,214.8 440.5,214.3 441.3,213.8 442.1,213.4 443.0,213.0 443.8,212.7 444.6,212.4 445.4,212.2 446.2,212.0 447.0,211.9 447.8,211.9 448.7,211.9 449.5,212.0 450.3,212.2 451.1,212.5 451.9,212.9 452.7,213.3 453.5,213.6 454.3,213.5 455.2,213.1 456.0,212.2 456.8,211.0 457.6,209.7 458.4,208.9 459.2,208.6 460.0,208.9 460.9,209.5 461.7,210.2 462.5,210.5 463.3,209.8 464.1,208.2 464.9,206.2 465.7,204.8 466.6,204.4 467.4,205.1 468.2,207.0 469.0,210.0 469.8,214.3 470.6,219.7 471.4,225.4 472.2,230.1 473.1,232.8 473.9,232.8 474.7,230.4 475.5,226.7 476.3,223.0 477.1,220.1 477.9,218.2 478.8,217.0 479.6,216.1 480.4,215.0 481.2,213.5 482.0,211.7 482.8,209.8 483.6,208.5 484.5,208.4 485.3,209.3 486.1,211.3 486.9,214.3 487.7,218.5 488.5,223.5 489.3,228.2 490.2,231.0 491.0,230.7 491.8,227.8 492.6,223.8 493.4,219.9 494.2,216.9 495.0,214.9 495.8,213.6 496.7,212.5 497.5,211.5 498.3,210.6 499.1,210.0 499.9,209.9 500.7,210.5 501.5,211.7 502.4,213.4 503.2,214.8 504.0,215.6 504.8,215.4 505.6,214.5 506.4,213.5 507.2,212.5 508.1,211.7 508.9,211.2 509.7,210.7 510.5,210.4 511.3,210.1 512.1,209.8 512.9,209.6 513.7,209.4 514.6,209.2 515.4,208.9 516.2,208.6 517.0,208.2 517.8,207.9 518.6,207.6 519.4,207.2 520.3,206.9 521.1,206.6 521.9,206.2 522.7,205.8 523.5,205.4 524.3,204.9 525.1,204.5 526.0,204.0 526.8,203.6 527.6,203.3 528.4,203.0 529.2,202.7 530.0,202.6 530.8,202.7 531.7,203.0 532.5,203.5 533.3,204.3 534.1,205.4 534.9,206.5 535.7,207.9 536.5,209.4 537.3,210.9 538.2,211.6 539.0,211.1 539.8,209.5 540.6,207.6 541.4,205.8 542.2,204.5 543.0,203.6 543.9,203.4 544.7,203.6 545.5,204.3 546.3,205.4 547.1,206.7 547.9,208.1 548.7,209.6 549.6,210.9 550.4,212.0 551.2,212.6 552.0,212.6 552.8,212.0 553.6,210.9 554.4,209.6 555.2,208.3 556.1,207.0 556.9,205.8 557.7,204.9 558.5,204.3 559.3,203.8 560.1,203.6 560.9,203.5 561.8,203.6 562.6,203.7 563.4,203.9 564.2,203.9 565.0,203.8 565.8,203.5 566.6,203.0 567.5,202.5 568.3,202.0 569.1,201.5 569.9,201.3 570.7,201.3 571.5,201.6 572.3,202.1 573.1,202.8 574.0,203.6 574.8,204.4 575.6,204.9 576.4,205.3 577.2,205.4 578.0,205.4 578.8,205.1 579.7,204.8 580.5,204.4 581.3,204.1 582.1,203.8 582.9,203.7 583.7,203.6 584.5,203.5 585.4,203.4 586.2,203.4 587.0,203.3 587.8,203.2 588.6,203.0 589.4,202.9 590.2,202.7 591.1,202.6 591.9,202.5 592.7,202.4 593.5,202.4 594.3,202.3 595.1,202.3 595.9,202.3 596.7,202.3 597.6,202.3 598.4,202.3 599.2,202.4 600.0,202.5 600.8,202.5 601.6,202.6 602.4,202.7 603.3,202.8 604.1,202.8 604.9,202.9 605.7,202.9 606.5,202.8 607.3,202.8 608.1,202.8 609.0,202.7 609.8,202.7 610.6,202.7 611.4,202.7 612.2,202.8 613.0,203.0 613.8,203.4 614.6,204.0 615.5,204.7 616.3,205.7 617.1,206.7 617.9,207.6 618.7,208.1 619.5,207.7 620.3,206.3 621.2,204.3 622.0,202.2 622.8,200.5 623.6,199.3 624.4,198.8 625.2,198.7 626.0,199.0 626.9,199.5 627.7,199.8 628.5,199.5 629.3,198.6 630.1,196.9 630.9,194.9 631.7,193.2 632.6,192.2 633.4,192.3 634.2,193.4 635.0,195.6 635.8,199.0 636.6,203.8 637.4,210.1 638.2,217.9 639.1,226.2 639.9,233.5 640.7,238.1 641.5,239.1 642.3,237.0 643.1,233.4 643.9,229.6 644.8,226.7 645.6,224.7 646.4,223.5 647.2,222.5 648.0,221.2 648.8,219.0 649.6,215.9 650.5,212.3 651.3,208.7 652.1,205.9 652.9,204.3 653.7,204.0 654.5,205.0 655.3,207.3 656.1,210.8 657.0,215.7 657.8,221.5 658.6,227.2 659.4,230.7 660.2,230.8 661.0,228.4 661.8,224.8 662.7,221.4 663.5,218.8 664.3,217.3 665.1,216.5 665.9,216.1 666.7,215.6 667.5,214.3 668.4,212.2 669.2,209.3 670.0,206.4 670.8,203.8 671.6,202.2 672.4,201.5 673.2,201.8 674.1,202.8 674.9,204.6 675.7,207.0 676.5,209.5 677.3,211.1 678.1,210.9 678.9,209.1 679.7,206.7 680.6,204.6 681.4,203.1 682.2,202.5 683.0,202.4 683.8,202.7 684.6,202.8 685.4,202.5 686.3,201.9 687.1,200.8 687.9,199.5 688.7,198.1 689.5,196.8 690.3,195.9 691.1,195.3 692.0,195.0 692.8,194.8 693.6,194.4 694.4,193.8 695.2,193.1 696.0,192.6 696.8,192.5 697.6,193.0 698.5,194.2 699.3,195.8 700.1,197.7 700.9,200.0 701.7,202.5 702.5,204.9 703.3,206.8 704.2,207.9 705.0,207.8 705.8,206.5 706.6,204.4 707.4,202.2 708.2,200.3 709.0,198.8 709.9,197.6 710.7,196.6 711.5,195.5 712.3,194.2 713.1,192.6 713.9,190.9 714.7,189.6 715.5,189.2 716.4,189.7 717.2,191.1 718.0,193.7 718.8,197.4 719.6,202.6 720.4,209.1 721.2,216.1 722.1,222.5 722.9,227.1 723.7,229.0 724.5,228.4 725.3,226.1 726.1,222.9 726.9,219.7 727.8,216.7 728.6,214.0 729.4,211.4 730.2,208.8 731.0,206.1 731.8,203.5 732.6,201.3 733.5,199.8 734.3,199.3 735.1,199.8 735.9,201.2 736.7,203.7 737.5,207.0 738.3,210.6 739.1,213.4 740.0,214.7 740.8,214.4 741.6,212.8 742.4,210.5 743.2,208.1 744.0,205.8 744.8,203.8 745.7,201.9 746.5,200.3 747.3,198.9 748.1,197.8 748.9,196.8 749.7,196.1 750.5,195.6 751.4,195.2 752.2,194.9 753.0,194.6 753.8,194.2 754.6,193.7 755.4,193.3 756.2,192.8 757.0,192.3 757.9,191.8 758.7,191.4 759.5,191.0 760.3,190.7 761.1,190.4 761.9,190.2 762.7,189.9 763.6,189.7 764.4,189.5 765.2,189.3 766.0,189.2"/>
<line x1="606" y1="60" x2="628" y2="60" stroke="#24a148" stroke-width="2.2"/>
<text x="634" y="64" font-family="Arial" font-size="12">pitch_deg</text>
</svg>