<svg xmlns="http://www.w3.org/2000/svg" width="820" height="320" viewBox="0 0 820 320">
<rect width="100%" height="100%" fill="#ffffff"/>
<text x="54" y="28" font-family="Arial" font-size="18" font-weight="700">Heading Command Tracking</text>
<line x1="54" y1="266" x2="766" y2="266" stroke="#1f2933"/>
<line x1="54" y1="54" x2="54" y2="266" stroke="#1f2933"/>
<text x="54" y="306" font-family="Arial" font-size="12">time (s)</text>
<text x="596" y="306" font-family="Arial" font-size="12">heading (deg)</text>
<text x="58" y="68" font-family="Arial" font-size="11">179</text>
<text x="58" y="260" font-family="Arial" font-size="11">-169</text>
<polyline fill="none" stroke="#0f62fe" stroke-width="2.2" points="54.0,170.0 54.8,170.0 55.6,170.0 56.4,170.0 57.3,170.0 58.1,170.0 58.9,170.0 59.7,170.0 60.5,170.0 61.3,170.0 62.1,170.0 63.0,170.0 63.8,170.1 64.6,170.1 65.4,170.1 66.2,170.1 67.0,170.1 67.8,170.1 68.6,170.1 69.5,170.1 70.3,170.1 71.1,170.1 71.9,170.1 72.7,170.1 73.5,170.2 74.3,170.2 75.2,170.2 76.0,170.2 76.8,170.2 77.6,170.2 78.4,170.2 79.2,170.2 80.0,170.2 80.9,170.3 81.7,170.3 82.5,170.3 83.3,170.3 84.1,170.3 84.9,170.3 85.7,170.3 86.5,170.3 87.4,170.4 88.2,170.4 89.0,170.4 89.8,170.4 90.6,170.4 91.4,170.4 92.2,170.4 93.1,170.4 93.9,170.4 94.7,170.4 95.5,170.5 96.3,170.5 97.1,170.5 97.9,170.5 98.8,170.5 99.6,170.5 100.4,170.5 101.2,170.5 102.0,170.5 102.8,170.6 103.6,170.6 104.5,170.6 105.3,170.6 106.1,170.6 106.9,170.6 107.7,170.6 108.5,170.6 109.3,170.6 110.1,170.6 111.0,170.6 111.8,170.7 112.6,170.7 113.4,170.7 114.2,170.7 115.0,170.7 115.8,170.7 116.7,170.7 117.5,170.7 118.3,170.7 119.1,170.7 119.9,170.7 120.7,170.7 121.5,170.8 122.4,170.8 123.2,170.8 124.0,170.8 124.8,170.8 125.6,170.8 126.4,170.8 127.2,170.8 128.0,170.8 128.9,170.8 129.7,170.8 130.5,170.8 131.3,170.8 132.1,170.8 132.9,170.8 133.7,170.8 134.6,170.8 135.4,170.8 136.2,170.8 137.0,170.9 137.8,170.9 138.6,170.9 139.4,170.9 140.3,170.9 141.1,170.9 141.9,170.9 142.7,170.9 143.5,170.9 144.3,170.9 145.1,170.9 145.9,170.9 146.8,170.9 147.6,170.9 148.4,170.9 149.2,170.9 150.0,170.9 150.8,170.9 151.6,170.9 152.5,170.9 153.3,170.9 154.1,170.9 154.9,170.9 155.7,170.9 156.5,170.9 157.3,170.9 158.2,170.9 159.0,170.9 159.8,170.9 160.6,170.9 161.4,170.9 162.2,170.9 163.0,170.9 163.9,170.9 164.7,170.9 165.5,170.9 166.3,170.9 167.1,170.9 167.9,170.9 168.7,170.9 169.5,170.9 170.4,170.9 171.2,170.9 172.0,170.9 172.8,170.9 173.6,170.9 174.4,170.8 175.2,170.8 176.1,170.8 176.9,170.8 177.7,170.8 178.5,170.8 179.3,170.8 180.1,170.8 180.9,170.8 181.8,170.8 182.6,170.8 183.4,170.8 184.2,170.8 185.0,170.8 185.8,170.8 186.6,170.8 187.4,170.8 188.3,170.8 189.1,170.7 189.9,170.7 190.7,170.7 191.5,170.7 192.3,170.7 193.1,170.7 194.0,170.7 194.8,170.7 195.6,170.7 196.4,170.7 197.2,170.7 198.0,170.7 198.8,170.7 199.7,170.6 200.5,170.6 201.3,170.6 202.1,170.6 202.9,170.6 203.7,170.6 204.5,170.6 205.4,170.6 206.2,170.6 207.0,170.6 207.8,170.6 208.6,170.6 209.4,170.6 210.2,170.5 211.0,170.5 211.9,170.5 212.7,170.5 213.5,170.5 214.3,170.5 215.1,170.5 215.9,170.5 216.7,170.5 217.6,170.5 218.4,170.5 219.2,170.5 220.0,170.5 220.8,170.5 221.6,170.5 222.4,170.5 223.3,170.5 224.1,170.5 224.9,170.5 225.7,170.5 226.5,170.5 227.3,170.5 228.1,170.4 228.9,170.4 229.8,170.4 230.6,170.4 231.4,170.4 232.2,170.4 233.0,170.4 233.8,170.4 234.6,170.4 235.5,170.4 236.3,170.4 237.1,170.4 237.9,170.4 238.7,170.4 239.5,170.4 240.3,170.4 241.2,170.4 242.0,170.4 242.8,170.5 243.6,170.5 244.4,170.5 245.2,170.5 246.0,170.5 246.9,170.5 247.7,170.5 248.5,170.5 249.3,170.5 250.1,170.5 250.9,170.5 251.7,170.5 252.5,170.5 253.4,170.5 254.2,170.5 255.0,170.5 255.8,170.5 256.6,170.5 257.4,170.5 258.2,170.5 259.1,170.5 259.9,170.5 260.7,170.6 261.5,170.6 262.3,170.6 263.1,170.6 263.9,170.6 264.8,170.6 265.6,170.6 266.4,170.6 267.2,170.6 268.0,170.6 268.8,170.6 269.6,170.6 270.4,170.6 271.3,170.6 272.1,170.6 272.9,170.6 273.7,170.6 274.5,170.6 275.3,170.6 276.1,170.7 277.0,170.7 277.8,170.7 278.6,170.7 279.4,170.7 280.2,170.7 281.0,170.7 281.8,170.7 282.7,170.7 283.5,170.7 284.3,170.7 285.1,170.7 285.9,170.7 286.7,170.7 287.5,170.7 288.3,170.7 289.2,170.7 290.0,170.7 290.8,170.7 291.6,170.7 292.4,170.7 293.2,170.7 294.0,170.7 294.9,170.7 295.7,170.7 296.5,170.7 297.3,170.7 298.1,170.7 298.9,170.7 299.7,170.7 300.6,170.7 301.4,170.7 302.2,170.7 303.0,170.7 303.8,170.7 304.6,170.7 305.4,170.7 306.3,170.6 307.1,170.6 307.9,170.6 308.7,170.6 309.5,170.6 310.3,170.6 311.1,170.6 311.9,170.6 312.8,170.6 313.6,170.6 314.4,170.6 315.2,170.6 316.0,170.6 316.8,170.5 317.6,170.5 318.5,170.5 319.3,170.5 320.1,170.5 320.9,170.5 321.7,170.5 322.5,170.5 323.3,170.5 324.2,170.5 325.0,170.4 325.8,170.4 326.6,170.4 327.4,170.4 328.2,170.4 329.0,170.4 329.8,170.4 330.7,170.4 331.5,170.4 332.3,170.4 333.1,170.3 333.9,170.3 334.7,170.3 335.5,170.3 336.4,170.3 337.2,170.3 338.0,170.3 338.8,170.3 339.6,170.3 340.4,170.2 341.2,170.2 342.1,170.2 342.9,170.2 343.7,170.2 344.5,170.2 345.3,170.2 346.1,170.2 346.9,170.2 347.8,170.1 348.6,170.1 349.4,170.1 350.2,170.1 351.0,170.1 351.8,170.1 352.6,170.1 353.4,170.1 354.3,170.1 355.1,170.0 355.9,170.0 356.7,170.0 357.5,170.0 358.3,170.0 359.1,170.0 360.0,170.0 360.8,170.0 361.6,169.9 362.4,169.9 363.2,169.9 364.0,169.9 364.8,169.9 365.7,169.9 366.5,169.9 367.3,169.9 368.1,169.9 368.9,169.8 369.7,169.8 370.5,169.8 371.3,169.8 372.2,169.8 373.0,169.8 373.8,169.8 374.6,169.7 375.4,169.7 376.2,169.7 377.0,169.7 377.9,169.7 378.7,169.7 379.5,169.7 380.3,169.6 381.1,169.6 381.9,169.6 382.7,169.6 383.6,169.6 384.4,169.6 385.2,169.6 386.0,169.5 386.8,169.5 387.6,169.5 388.4,169.5 389.3,169.5 390.1,169.5 390.9,169.4 391.7,169.4 392.5,169.4 393.3,169.4 394.1,169.4 394.9,169.4 395.8,169.4 396.6,169.3 397.4,169.3 398.2,169.3 399.0,169.3 399.8,169.3 400.6,169.3 401.5,169.3 402.3,169.3 403.1,169.2 403.9,169.2 404.7,169.2 405.5,169.2 406.3,169.2 407.2,169.2 408.0,169.2 408.8,169.2 409.6,169.2 410.4,169.2 411.2,169.2 412.0,169.2 412.8,169.1 413.7,169.1 414.5,169.1 415.3,169.1 416.1,169.1 416.9,169.1 417.7,169.1 418.5,169.1 419.4,169.1 420.2,169.1 421.0,169.1 421.8,169.1 422.6,169.1 423.4,169.1 424.2,169.1 425.1,169.1 425.9,169.1 426.7,169.1 427.5,169.1 428.3,169.1 429.1,169.1 429.9,169.1 430.7,169.1 431.6,169.1 432.4,169.1 433.2,169.1 434.0,169.1 434.8,169.1 435.6,169.1 436.4,169.1 437.3,169.1 438.1,169.1 438.9,169.1 439.7,169.1 440.5,169.1 441.3,169.1 442.1,169.1 443.0,169.1 443.8,169.1 444.6,169.1 445.4,169.1 446.2,169.1 447.0,169.1 447.8,169.1 448.7,169.1 449.5,169.2 450.3,169.2 451.1,169.2 451.9,169.2 452.7,169.2 453.5,169.2 454.3,169.2 455.2,169.2 456.0,169.2 456.8,169.2 457.6,169.2 458.4,169.2 459.2,169.2 460.0,169.2 460.9,169.2 461.7,169.2 462.5,169.2 463.3,169.2 464.1,169.2 464.9,169.2 465.7,169.2 466.6,169.2 467.4,169.3 468.2,169.3 469.0,169.3 469.8,169.3 470.6,169.3 471.4,169.3 472.2,169.3 473.1,169.3 473.9,169.3 474.7,169.3 475.5,169.3 476.3,169.3 477.1,169.3 477.9,169.3 478.8,169.3 479.6,169.3 480.4,169.3 481.2,169.3 482.0,169.3 482.8,169.3 483.6,169.3 484.5,169.3 485.3,169.3 486.1,169.3 486.9,169.3 487.7,169.3 488.5,169.3 489.3,169.3 490.2,169.3 491.0,169.3 491.8,169.3 492.6,169.3 493.4,169.3 494.2,169.3 495.0,169.3 495.8,169.3 496.7,169.3 497.5,169.3 498.3,169.3 499.1,169.3 499.9,169.3 500.7,169.3 501.5,169.3 502.4,169.3 503.2,169.2 504.0,169.2 504.8,169.2 505.6,169.2 506.4,169.2 507.2,169.2 508.1,169.2 508.9,169.2 509.7,169.2 510.5,169.2 511.3,169.2 512.1,169.2 512.9,169.1 513.7,169.1 514.6,169.1 515.4,169.1 516.2,169.1 517.0,169.1 517.8,169.1 518.6,169.1 519.4,169.1 520.3,169.0 521.1,169.0 521.9,169.0 522.7,169.0 523.5,169.0 524.3,169.0 525.1,169.0 526.0,169.0 526.8,168.9 527.6,168.9 528.4,168.9 529.2,168.9 530.0,168.9 530.8,168.9 531.7,168.9 532.5,168.8 533.3,168.8 534.1,168.8 534.9,168.8 535.7,168.8 536.5,168.8 537.3,168.8 538.2,168.8 539.0,168.7 539.8,168.7 540.6,168.7 541.4,168.7 542.2,168.7 543.0,168.7 543.9,168.7 544.7,168.7 545.5,168.7 546.3,168.7 547.1,168.7 547.9,168.7 548.7,168.6 549.6,168.6 550.4,168.6 551.2,168.6 552.0,168.6 552.8,168.6 553.6,168.6 554.4,168.6 555.2,168.6 556.1,168.6 556.9,168.6 557.7,168.6 558.5,168.6 559.3,168.6 560.1,168.6 560.9,168.6 561.8,168.6 562.6,168.6 563.4,168.6 564.2,168.6 565.0,168.6 565.8,168.6 566.6,168.6 567.5,168.6 568.3,168.6 569.1,168.6 569.9,168.6 570.7,168.6 571.5,168.6 572.3,168.6 573.1,168.6 574.0,168.6 574.8,168.6 575.6,168.6 576.4,168.6 577.2,168.6 578.0,168.6 578.8,168.6 579.7,168.6 580.5,168.6 581.3,168.6 582.1,168.6 582.9,168.6 583.7,168.6 584.5,168.6 585.4,168.6 586.2,168.6 587.0,168.6 587.8,168.6 588.6,168.6 589.4,168.6 590.2,168.6 591.1,168.6 591.9,168.6 592.7,168.6 593.5,168.6 594.3,168.6 595.1,168.6 595.9,168.6 596.7,168.6 597.6,168.6 598.4,168.7 599.2,168.7 600.0,168.7 600.8,168.7 601.6,168.7 602.4,168.7 603.3,168.7 604.1,168.7 604.9,168.7 605.7,168.7 606.5,168.7 607.3,168.7 608.1,168.7 609.0,168.7 609.8,168.7 610.6,168.7 611.4,168.8 612.2,168.8 613.0,168.8 613.8,168.8 614.6,168.8 615.5,168.8 616.3,168.8 617.1,168.8 617.9,168.8 618.7,168.8 619.5,168.8 620.3,168.8 621.2,168.8 622.0,168.8 622.8,168.9 623.6,168.9 624.4,168.9 625.2,168.9 626.0,168.9 626.9,168.9 627.7,168.9 628.5,168.9 629.3,168.9 630.1,168.9 630.9,168.9 631.7,168.9 632.6,168.9 633.4,168.9 634.2,168.9 635.0,168.9 635.8,168.9 636.6,168.9 637.4,168.9 638.2,168.9 639.1,168.9 639.9,168.9 640.7,169.0 641.5,169.0 642.3,169.0 643.1,169.0 643.9,169.0 644.8,169.0 645.6,169.0 646.4,169.0 647.2,169.0 648.0,169.0 648.8,169.0 649.6,169.0 650.5,169.0 651.3,169.0 652.1,169.0 652.9,169.0 653.7,169.0 654.5,169.0 655.3,169.0 656.1,169.0 657.0,169.0 657.8,169.0 658.6,169.0 659.4,169.0 660.2,169.0 661.0,169.0 661.8,169.0 662.7,169.0 663.5,169.0 664.3,169.0 665.1,169.0 665.9,169.0 666.7,168.9 667.5,168.9 668.4,168.9 669.2,168.9 670.0,168.9 670.8,168.9 671.6,168.9 672.4,168.9 673.2,168.9 674.1,168.9 674.9,168.9 675.7,168.9 676.5,168.9 677.3,168.9 678.1,168.9 678.9,168.9 679.7,168.9 680.6,168.9 681.4,168.8 682.2,168.8 683.0,168.8 683.8,168.8 684.6,168.8 685.4,168.8 686.3,168.8 687.1,168.8 687.9,168.8 688.7,168.8 689.5,168.8 690.3,168.8 691.1,168.8 692.0,168.7 692.8,168.7 693.6,168.7 694.4,168.7 695.2,168.7 696.0,168.7 696.8,168.7 697.6,168.7 698.5,168.7 699.3,168.7 700.1,168.7 700.9,168.7 701.7,168.7 702.5,168.6 703.3,168.6 704.2,168.6 705.0,168.6 705.8,168.6 706.6,168.6 707.4,168.6 708.2,168.6 709.0,168.6 709.9,168.6 710.7,168.6 711.5,168.6 712.3,168.6 713.1,168.6 713.9,168.6 714.7,168.5 715.5,168.5 716.4,168.5 717.2,168.5 718.0,168.5 718.8,168.5 719.6,168.5 720.4,168.5 721.2,168.5 722.1,168.5 722.9,168.5 723.7,168.5 724.5,168.5 725.3,168.5 726.1,168.5 726.9,168.5 727.8,168.5 728.6,168.5 729.4,168.5 730.2,168.5 731.0,168.5 731.8,168.5 732.6,168.5 733.5,168.5 734.3,168.5 735.1,168.5 735.9,168.5 736.7,168.5 737.5,168.5 738.3,168.5 739.1,168.5 740.0,168.5 740.8,168.5 741.6,168.5 742.4,168.5 743.2,168.5 744.0,168.5 744.8,168.5 745.7,168.5 746.5,168.5 747.3,168.5 748.1,168.5 748.9,168.5 749.7,168.5 750.5,168.5 751.4,168.5 752.2,168.5 753.0,168.6 753.8,168.6 754.6,168.6 755.4,168.6 756.2,168.6 757.0,168.6 757.9,168.6 758.7,168.6 759.5,168.6 760.3,168.6 761.1,168.6 761.9,168.6 762.7,168.6 763.6,168.6 764.4,168.6 765.2,168.6 766.0,168.7"/>
<line x1="606" y1="42" x2="628" y2="42" stroke="#0f62fe" stroke-width="2.2"/>
<text x="634" y="46" font-family="Arial" font-size="12">heading_command_deg</text>
<polyline fill="none" stroke="#24a148" stroke-width="2.2" points="54.0,166.1 54.8,165.1 55.6,163.0 56.4,160.6 57.3,158.6 58.1,157.6 58.9,157.6 59.7,158.7 60.5,160.9 61.3,163.8 62.1,166.8 63.0,169.0 63.8,170.0 64.6,169.6 65.4,168.0 66.2,165.0 67.0,161.1 67.8,156.7 68.6,152.9 69.5,150.2 70.3,148.5 71.1,147.9 71.9,147.9 72.7,148.1 73.5,148.1 74.3,147.7 75.2,147.1 76.0,146.2 76.8,145.4 77.6,144.7 78.4,144.4 79.2,144.6 80.0,145.6 80.9,148.0 81.7,151.6 82.5,157.1 83.3,166.0 84.1,181.0 84.9,202.5 85.7,223.8 86.5,238.3 87.4,246.8 88.2,251.3 89.0,253.5 89.8,254.6 90.6,255.0 91.4,255.1 92.2,255.1 93.1,254.9 93.9,254.7 94.7,254.3 95.5,253.7 96.3,252.8 97.1,251.4 97.9,249.3 98.8,246.4 99.6,242.9 100.4,238.8 101.2,234.1 102.0,228.5 102.8,221.3 103.6,210.7 104.5,193.4 105.3,171.0 106.1,154.5 106.9,145.2 107.7,140.0 108.5,137.0 109.3,135.5 110.1,135.3 111.0,136.3 111.8,138.8 112.6,142.9 113.4,148.8 114.2,155.7 115.0,162.1 115.8,167.3 116.7,171.3 117.5,174.4 118.3,177.0 119.1,179.5 119.9,182.3 120.7,186.7 121.5,198.2 122.4,238.9 123.2,266.0 124.0,54.0 124.8,56.6 125.6,57.8 126.4,58.7 127.2,59.8 128.0,61.1 128.9,62.7 129.7,64.8 130.5,67.2 131.3,70.1 132.1,75.0 132.9,89.1 133.7,133.4 134.6,154.9 135.4,161.7 136.2,165.3 137.0,167.8 137.8,169.7 138.6,171.3 139.4,172.7 140.3,173.7 141.1,174.5 141.9,174.9 142.7,175.1 143.5,175.1 144.3,174.8 145.1,174.5 145.9,174.4 146.8,175.9 147.6,181.6 148.4,197.6 149.2,219.9 150.0,230.5 150.8,233.2 151.6,233.0 152.5,231.8 153.3,230.4 154.1,229.3 154.9,228.5 155.7,228.4 156.5,228.8 157.3,229.8 158.2,231.3 159.0,233.1 159.8,235.0 160.6,236.8 161.4,238.3 162.2,239.4 163.0,240.0 163.9,240.1 164.7,239.8 165.5,239.0 166.3,238.0 167.1,236.8 167.9,235.5 168.7,234.2 169.5,233.0 170.4,232.0 171.2,231.3 172.0,230.7 172.8,230.4 173.6,230.2 174.4,230.1 175.2,230.0 176.1,229.9 176.9,229.7 177.7,229.4 178.5,228.9 179.3,228.2 180.1,227.4 180.9,226.5 181.8,225.4 182.6,224.3 183.4,223.1 184.2,222.0 185.0,220.9 185.8,219.8 186.6,218.7 187.4,217.7 188.3,216.6 189.1,215.6 189.9,214.5 190.7,213.4 191.5,212.2 192.3,210.9 193.1,209.6 194.0,208.1 194.8,206.5 195.6,204.9 196.4,203.1 197.2,201.3 198.0,199.4 198.8,197.4 199.7,195.1 200.5,192.4 201.3,189.2 202.1,185.3 202.9,180.6 203.7,175.0 204.5,168.7 205.4,162.0 206.2,156.1 207.0,151.5 207.8,148.5 208.6,147.2 209.4,147.3 210.2,148.6 211.0,151.1 211.9,155.0 212.7,160.0 213.5,165.7 214.3,171.6 215.1,177.2 215.9,182.0 216.7,185.6 217.6,188.4 218.4,190.3 219.2,191.5 220.0,191.8 220.8,191.2 221.6,189.6 222.4,186.6 223.3,181.8 224.1,174.3 224.9,164.1 225.7,153.0 226.5,144.2 227.3,139.0 228.1,136.9 228.9,137.0 229.8,138.5 230.6,140.8 231.4,143.5 232.2,146.6 233.0,149.8 233.8,152.8 234.6,155.3 235.5,157.1 236.3,157.8 237.1,157.0 237.9,154.8 238.7,151.0 239.5,146.2 240.3,141.3 241.2,137.1 242.0,134.4 242.8,133.3 243.6,133.5 244.4,134.9 245.2,137.1 246.0,139.7 246.9,142.5 247.7,145.2 248.5,147.8 249.3,150.0 250.1,151.6 250.9,152.4 251.7,152.4 252.5,151.5 253.4,149.7 254.2,147.6 255.0,145.6 255.8,144.1 256.6,143.4 257.4,143.4 258.2,144.1 259.1,145.4 259.9,147.3 260.7,149.8 261.5,152.8 262.3,156.2 263.1,160.0 263.9,163.9 264.8,167.7 265.6,171.0 266.4,173.6 267.2,175.1 268.0,175.5 268.8,174.6 269.6,172.2 270.4,168.7 271.3,164.5 272.1,160.0 272.9,156.1 273.7,153.3 274.5,151.6 275.3,151.0 276.1,151.7 277.0,153.7 277.8,157.1 278.6,161.7 279.4,167.5 280.2,173.9 281.0,180.4 281.8,186.0 282.7,190.0 283.5,192.2 284.3,193.0 285.1,192.6 285.9,191.4 286.7,189.7 287.5,187.5 288.3,185.1 289.2,182.8 290.0,180.9 290.8,179.5 291.6,179.1 292.4,179.8 293.2,181.7 294.0,185.0 294.9,189.2 295.7,193.9 296.5,198.3 297.3,201.7 298.1,203.8 298.9,204.7 299.7,204.6 300.6,203.9 301.4,203.0 302.2,202.2 303.0,201.8 303.8,201.9 304.6,202.4 305.4,203.5 306.3,204.9 307.1,206.6 307.9,208.4 308.7,210.2 309.5,211.8 310.3,213.1 311.1,214.2 311.9,215.1 312.8,215.8 313.6,216.4 314.4,216.9 315.2,217.5 316.0,218.1 316.8,218.8 317.6,219.6 318.5,220.5 319.3,221.5 320.1,222.5 320.9,223.6 321.7,224.7 322.5,225.7 323.3,226.7 324.2,227.6 325.0,228.5 325.8,229.3 326.6,230.0 327.4,230.7 328.2,231.4 329.0,232.1 329.8,232.7 330.7,233.4 331.5,234.0 332.3,234.7 333.1,235.3 333.9,236.0 334.7,236.6 335.5,237.2 336.4,237.8 337.2,238.4 338.0,238.9 338.8,239.4 339.6,239.8 340.4,240.2 341.2,240.6 342.1,240.9 342.9,241.3 343.7,241.5 344.5,241.8 345.3,242.0 346.1,242.2 346.9,242.4 347.8,242.6 348.6,242.7 349.4,242.8 350.2,242.9 351.0,243.0 351.8,243.0 352.6,243.0 353.4,243.0 354.3,242.9 355.1,242.8 355.9,242.7 356.7,242.5 357.5,242.4 358.3,242.1 359.1,241.9 360.0,241.6 360.8,241.3 361.6,241.0 362.4,240.6 363.2,240.2 364.0,239.8 364.8,239.3 365.7,238.8 366.5,238.3 367.3,237.7 368.1,237.1 368.9,236.5 369.7,235.8 370.5,235.1 371.3,234.3 372.2,233.5 373.0,232.7 373.8,231.8 374.6,230.9 375.4,229.9 376.2,228.9 377.0,227.8 377.9,226.6 378.7,225.4 379.5,224.2 380.3,222.8 381.1,221.4 381.9,219.9 382.7,218.3 383.6,216.6 384.4,214.8 385.2,213.0 386.0,211.1 386.8,209.2 387.6,207.1 388.4,205.0 389.3,202.8 390.1,200.4 390.9,198.0 391.7,195.2 392.5,192.0 393.3,188.4 394.1,184.0 394.9,178.7 395.8,172.1 396.6,164.1 397.4,154.9 398.2,146.0 399.0,138.9 399.8,134.3 400.6,132.1 401.5,131.8 402.3,133.0 403.1,135.3 403.9,138.6 404.7,142.6 405.5,147.3 406.3,152.5 407.2,157.8 408.0,163.0 408.8,167.6 409.6,171.5 410.4,174.6 411.2,177.0 412.0,178.7 412.8,179.8 413.7,180.3 414.5,180.2 415.3,179.5 416.1,177.8 416.9,174.4 417.7,167.7 418.5,155.5 419.4,139.4 420.2,127.2 421.0,121.6 421.8,120.1 422.6,120.7 423.4,122.5 424.2,124.8 425.1,127.2 425.9,129.2 426.7,130.7 427.5,131.6 428.3,131.9 429.1,131.6 429.9,131.0 430.7,130.2 431.6,129.4 432.4,128.8 433.2,128.4 434.0,128.4 434.8,128.7 435.6,129.4 436.4,130.4 437.3,131.5 438.1,132.8 438.9,134.0 439.7,135.2 440.5,136.3 441.3,137.2 442.1,138.1 443.0,138.8 443.8,139.5 444.6,140.2 445.4,141.0 446.2,141.8 447.0,142.7 447.8,143.8 448.7,145.0 449.5,146.4 450.3,148.2 451.1,150.4 451.9,153.0 452.7,156.2 453.5,159.9 454.3,164.1 455.2,168.5 456.0,172.9 456.8,176.7 457.6,179.4 458.4,181.0 459.2,181.2 460.0,180.0 460.9,177.5 461.7,173.5 462.5,168.1 463.3,162.0 464.1,156.0 464.9,151.0 465.7,147.4 466.6,144.9 467.4,143.5 468.2,143.1 469.0,143.8 469.8,145.7 470.6,149.2 471.4,154.3 472.2,161.1 473.1,169.2 473.9,177.3 474.7,184.4 475.5,189.1 476.3,191.5 477.1,192.0 477.9,191.0 478.8,188.7 479.6,185.3 480.4,181.0 481.2,176.3 482.0,171.6 482.8,167.4 483.6,164.1 484.5,161.9 485.3,160.8 486.1,160.9 486.9,162.3 487.7,165.2 488.5,170.1 489.3,177.0 490.2,185.4 491.0,193.6 491.8,199.7 492.6,203.3 493.4,204.6 494.2,204.1 495.0,202.1 495.8,199.3 496.7,196.2 497.5,193.1 498.3,190.2 499.1,187.9 499.9,186.5 500.7,186.3 501.5,187.4 502.4,190.1 503.2,193.6 504.0,197.3 504.8,200.6 505.6,202.8 506.4,203.9 507.2,204.0 508.1,203.2 508.9,202.0 509.7,200.6 510.5,199.4 511.3,198.5 512.1,197.9 512.9,197.8 513.7,198.0 514.6,198.4 515.4,198.9 516.2,199.4 517.0,199.7 517.8,199.8 518.6,199.7 519.4,199.4 520.3,198.9 521.1,198.4 521.9,197.8 522.7,197.3 523.5,196.7 524.3,196.2 525.1,195.6 526.0,195.1 526.8,194.5 527.6,193.9 528.4,193.1 529.2,192.3 530.0,191.3 530.8,190.0 531.7,188.4 532.5,186.5 533.3,184.0 534.1,181.1 534.9,177.6 535.7,173.5 536.5,168.9 537.3,163.8 538.2,158.6 539.0,153.7 539.8,149.5 540.6,146.3 541.4,143.9 542.2,142.1 543.0,140.8 543.9,139.6 544.7,138.3 545.5,136.8 546.3,134.9 547.1,132.6 547.9,129.7 548.7,126.5 549.6,122.8 550.4,118.7 551.2,114.4 552.0,110.0 552.8,105.6 553.6,101.5 554.4,97.7 555.2,94.4 556.1,91.7 556.9,89.4 557.7,87.8 558.5,86.6 559.3,86.1 560.1,86.1 560.9,86.7 561.8,87.9 562.6,89.7 563.4,92.0 564.2,94.7 565.0,97.8 565.8,101.1 566.6,104.4 567.5,107.6 568.3,110.6 569.1,113.1 569.9,115.1 570.7,116.5 571.5,117.3 572.3,117.5 573.1,117.1 574.0,116.2 574.8,114.8 575.6,113.1 576.4,111.2 577.2,109.2 578.0,107.3 578.8,105.7 579.7,104.5 580.5,103.6 581.3,103.2 582.1,103.2 582.9,103.6 583.7,104.4 584.5,105.6 585.4,106.9 586.2,108.5 587.0,110.1 587.8,111.7 588.6,113.2 589.4,114.6 590.2,115.8 591.1,116.8 591.9,117.5 592.7,118.1 593.5,118.5 594.3,118.8 595.1,119.1 595.9,119.3 596.7,119.6 597.6,120.0 598.4,120.6 599.2,121.2 600.0,122.1 600.8,123.0 601.6,124.1 602.4,125.3 603.3,126.7 604.1,128.0 604.9,129.4 605.7,130.8 606.5,132.3 607.3,133.7 608.1,135.1 609.0,136.5 609.8,138.0 610.6,139.5 611.4,141.0 612.2,142.6 613.0,144.3 613.8,146.4 614.6,148.9 615.5,151.8 616.3,155.4 617.1,159.6 617.9,164.5 618.7,170.0 619.5,175.8 620.3,181.1 621.2,185.6 622.0,188.9 622.8,190.9 623.6,191.7 624.4,191.5 625.2,190.2 626.0,187.8 626.9,184.3 627.7,179.7 628.5,174.3 629.3,168.4 630.1,162.4 630.9,156.9 631.7,152.6 632.6,149.3 633.4,147.0 634.2,145.7 635.0,145.3 635.8,145.9 636.6,147.4 637.4,150.0 638.2,154.0 639.1,159.8 639.9,167.8 640.7,177.9 641.5,188.6 642.3,196.9 643.1,202.0 643.9,204.4 644.8,204.6 645.6,203.1 646.4,199.9 647.2,195.3 648.0,189.6 648.8,183.4 649.6,177.4 650.5,172.0 651.3,167.5 652.1,164.1 652.9,162.0 653.7,161.0 654.5,161.1 655.3,162.3 656.1,164.6 657.0,168.4 657.8,173.9 658.6,181.8 659.4,191.3 660.2,200.3 661.0,207.1 661.8,211.3 662.7,213.3 663.5,213.6 664.3,212.2 665.1,209.4 665.9,205.1 666.7,199.8 667.5,193.9 668.4,188.0 669.2,182.6 670.0,178.1 670.8,174.7 671.6,172.8 672.4,172.0 673.2,172.5 674.1,174.1 674.9,177.1 675.7,181.5 676.5,187.4 677.3,194.1 678.1,200.5 678.9,205.4 679.7,208.7 680.6,210.5 681.4,210.9 682.2,210.0 683.0,207.9 683.8,204.6 684.6,200.8 685.4,196.6 686.3,192.2 687.1,188.0 687.9,184.2 688.7,181.2 689.5,179.0 690.3,177.9 691.1,178.0 692.0,179.4 692.8,181.9 693.6,185.2 694.4,188.8 695.2,191.9 696.0,194.3 696.8,195.6 697.6,195.9 698.5,195.2 699.3,193.6 700.1,191.2 700.9,188.0 701.7,184.1 702.5,179.4 703.3,174.3 704.2,168.8 705.0,163.6 705.8,159.1 706.6,155.9 707.4,154.1 708.2,153.5 709.0,154.1 709.9,155.9 710.7,158.9 711.5,162.7 712.3,167.1 713.1,171.7 713.9,176.0 714.7,179.7 715.5,182.2 716.4,183.8 717.2,184.4 718.0,184.0 718.8,182.6 719.6,180.2 720.4,176.5 721.2,171.4 722.1,165.0 722.9,157.3 723.7,149.7 724.5,143.5 725.3,139.3 726.1,137.3 726.9,137.2 727.8,138.7 728.6,141.2 729.4,144.4 730.2,148.1 731.0,151.8 731.8,155.3 732.6,158.2 733.5,160.2 734.3,161.1 735.1,160.9 735.9,159.6 736.7,157.0 737.5,153.1 738.3,148.0 739.1,142.3 740.0,136.8 740.8,132.1 741.6,128.9 742.4,127.1 743.2,126.8 744.0,127.5 744.8,128.9 745.7,130.7 746.5,132.6 747.3,134.4 748.1,135.8 748.9,136.8 749.7,137.3 750.5,137.4 751.4,137.1 752.2,136.5 753.0,135.7 753.8,134.8 754.6,133.9 755.4,133.2 756.2,132.7 757.0,132.4 757.9,132.3 758.7,132.5 759.5,132.9 760.3,133.4 761.1,134.1 761.9,134.8 762.7,135.7 763.6,136.5 764.4,137.3 765.2,138.2 766.0,139.0"/>
<line x1="606" y1="60" x2="628" y2="60" stroke="#24a148" stroke-width="2.2"/>
<text x="634" y="64" font-family="Arial" font-size="12">yaw_deg</text>
</svg>