<svg xmlns="http://www.w3.org/2000/svg" width="820" height="320" viewBox="0 0 820 320">
<rect width="100%" height="100%" fill="#ffffff"/>
<text x="54" y="28" font-family="Arial" font-size="18" font-weight="700">Altitude</text>
<line x1="54" y1="266" x2="766" y2="266" stroke="#1f2933"/>
<line x1="54" y1="54" x2="54" y2="266" stroke="#1f2933"/>
<text x="54" y="306" font-family="Arial" font-size="12">time (s)</text>
<text x="596" y="306" font-family="Arial" font-size="12">altitude (m)</text>
<text x="58" y="68" font-family="Arial" font-size="11">333</text>
<text x="58" y="260" font-family="Arial" font-size="11">20</text>
<polyline fill="none" stroke="#0f62fe" stroke-width="2.2" points="54.0,266.0 55.2,265.8 56.4,265.7 57.6,265.5 58.7,265.4 59.9,265.3 61.1,265.1 62.3,265.0 63.5,264.8 64.7,264.7 65.9,264.6 67.1,264.5 68.2,264.4 69.4,264.2 70.6,264.1 71.8,264.0 73.0,263.9 74.2,263.8 75.4,263.7 76.5,263.6 77.7,263.5 78.9,263.4 80.1,263.3 81.3,263.2 82.5,263.1 83.7,263.0 84.9,262.9 86.0,262.8 87.2,262.7 88.4,262.7 89.6,262.6 90.8,262.5 92.0,262.4 93.2,262.3 94.3,262.3 95.5,262.2 96.7,262.1 97.9,262.1 99.1,262.0 100.3,261.9 101.5,261.9 102.7,261.8 103.8,261.7 105.0,261.7 106.2,261.6 107.4,261.6 108.6,261.5 109.8,261.4 111.0,261.4 112.1,261.3 113.3,261.3 114.5,261.2 115.7,261.2 116.9,261.1 118.1,261.1 119.3,261.0 120.5,261.0 121.6,260.9 122.8,260.9 124.0,260.9 125.2,260.8 126.4,260.8 127.6,260.7 128.8,260.7 129.9,260.7 131.1,260.6 132.3,260.6 133.5,260.5 134.7,260.5 135.9,260.5 137.1,260.4 138.3,260.4 139.4,260.4 140.6,260.3 141.8,260.3 143.0,260.3 144.2,260.2 145.4,260.2 146.6,260.2 147.7,260.1 148.9,260.1 150.1,260.1 151.3,260.0 152.5,260.0 153.7,260.0 154.9,259.9 156.1,259.9 157.2,259.9 158.4,259.8 159.6,259.8 160.8,259.8 162.0,259.7 163.2,259.7 164.4,259.7 165.5,259.6 166.7,259.6 167.9,259.6 169.1,259.5 170.3,259.5 171.5,259.5 172.7,259.4 173.9,259.4 175.0,259.3 176.2,259.3 177.4,259.3 178.6,259.2 179.8,259.2 181.0,259.1 182.2,259.1 183.3,259.0 184.5,259.0 185.7,258.9 186.9,258.9 188.1,258.8 189.3,258.8 190.5,258.7 191.7,258.7 192.8,258.6 194.0,258.6 195.2,258.5 196.4,258.4 197.6,258.4 198.8,258.3 200.0,258.2 201.1,258.2 202.3,258.1 203.5,258.0 204.7,257.9 205.9,257.9 207.1,257.8 208.3,257.7 209.5,257.6 210.6,257.5 211.8,257.4 213.0,257.4 214.2,257.3 215.4,257.2 216.6,257.1 217.8,257.0 218.9,256.9 220.1,256.8 221.3,256.7 222.5,256.6 223.7,256.4 224.9,256.3 226.1,256.2 227.3,256.1 228.4,256.0 229.6,255.8 230.8,255.7 232.0,255.6 233.2,255.5 234.4,255.3 235.6,255.2 236.7,255.0 237.9,254.9 239.1,254.8 240.3,254.6 241.5,254.5 242.7,254.3 243.9,254.1 245.1,254.0 246.2,253.8 247.4,253.7 248.6,253.5 249.8,253.3 251.0,253.1 252.2,253.0 253.4,252.8 254.5,252.6 255.7,252.4 256.9,252.2 258.1,252.0 259.3,251.8 260.5,251.6 261.7,251.4 262.9,251.2 264.0,251.0 265.2,250.8 266.4,250.6 267.6,250.4 268.8,250.2 270.0,249.9 271.2,249.7 272.3,249.5 273.5,249.2 274.7,249.0 275.9,248.8 277.1,248.5 278.3,248.3 279.5,248.0 280.7,247.8 281.8,247.5 283.0,247.3 284.2,247.0 285.4,246.8 286.6,246.5 287.8,246.2 289.0,246.0 290.1,245.7 291.3,245.4 292.5,245.1 293.7,244.8 294.9,244.6 296.1,244.3 297.3,244.0 298.5,243.7 299.6,243.4 300.8,243.1 302.0,242.8 303.2,242.5 304.4,242.2 305.6,241.9 306.8,241.6 307.9,241.2 309.1,240.9 310.3,240.6 311.5,240.3 312.7,239.9 313.9,239.6 315.1,239.3 316.3,238.9 317.4,238.6 318.6,238.3 319.8,237.9 321.0,237.6 322.2,237.2 323.4,236.9 324.6,236.5 325.7,236.2 326.9,235.8 328.1,235.4 329.3,235.1 330.5,234.7 331.7,234.3 332.9,233.9 334.1,233.5 335.2,233.1 336.4,232.7 337.6,232.3 338.8,231.9 340.0,231.5 341.2,231.1 342.4,230.7 343.5,230.3 344.7,229.9 345.9,229.4 347.1,229.0 348.3,228.6 349.5,228.1 350.7,227.7 351.9,227.3 353.0,226.8 354.2,226.4 355.4,225.9 356.6,225.4 357.8,225.0 359.0,224.5 360.2,224.0 361.3,223.6 362.5,223.1 363.7,222.6 364.9,222.1 366.1,221.6 367.3,221.1 368.5,220.7 369.7,220.2 370.8,219.7 372.0,219.2 373.2,218.7 374.4,218.2 375.6,217.7 376.8,217.1 378.0,216.6 379.1,216.1 380.3,215.6 381.5,215.1 382.7,214.6 383.9,214.1 385.1,213.5 386.3,213.0 387.5,212.5 388.6,212.0 389.8,211.4 391.0,210.9 392.2,210.4 393.4,209.8 394.6,209.3 395.8,208.8 396.9,208.2 398.1,207.7 399.3,207.1 400.5,206.6 401.7,206.1 402.9,205.5 404.1,205.0 405.3,204.4 406.4,203.9 407.6,203.3 408.8,202.8 410.0,202.2 411.2,201.7 412.4,201.1 413.6,200.6 414.7,200.0 415.9,199.5 417.1,198.9 418.3,198.4 419.5,197.8 420.7,197.3 421.9,196.7 423.1,196.2 424.2,195.6 425.4,195.0 426.6,194.5 427.8,193.9 429.0,193.4 430.2,192.8 431.4,192.2 432.5,191.7 433.7,191.1 434.9,190.5 436.1,190.0 437.3,189.4 438.5,188.8 439.7,188.3 440.9,187.7 442.0,187.2 443.2,186.6 444.4,186.0 445.6,185.4 446.8,184.9 448.0,184.3 449.2,183.7 450.3,183.2 451.5,182.6 452.7,182.0 453.9,181.5 455.1,180.9 456.3,180.3 457.5,179.8 458.7,179.2 459.8,178.6 461.0,178.0 462.2,177.5 463.4,176.9 464.6,176.3 465.8,175.7 467.0,175.2 468.1,174.6 469.3,174.0 470.5,173.4 471.7,172.9 472.9,172.3 474.1,171.7 475.3,171.1 476.5,170.6 477.6,170.0 478.8,169.4 480.0,168.8 481.2,168.3 482.4,167.7 483.6,167.1 484.8,166.5 485.9,166.0 487.1,165.4 488.3,164.8 489.5,164.2 490.7,163.7 491.9,163.1 493.1,162.5 494.3,161.9 495.4,161.3 496.6,160.8 497.8,160.2 499.0,159.6 500.2,159.0 501.4,158.5 502.6,157.9 503.7,157.3 504.9,156.7 506.1,156.1 507.3,155.6 508.5,155.0 509.7,154.4 510.9,153.8 512.1,153.2 513.2,152.7 514.4,152.1 515.6,151.5 516.8,150.9 518.0,150.4 519.2,149.8 520.4,149.2 521.5,148.6 522.7,148.0 523.9,147.5 525.1,146.9 526.3,146.3 527.5,145.7 528.7,145.1 529.9,144.6 531.0,144.0 532.2,143.4 533.4,142.8 534.6,142.2 535.8,141.7 537.0,141.1 538.2,140.5 539.3,139.9 540.5,139.3 541.7,138.8 542.9,138.2 544.1,137.6 545.3,137.0 546.5,136.4 547.7,135.9 548.8,135.3 550.0,134.7 551.2,134.1 552.4,133.5 553.6,133.0 554.8,132.4 556.0,131.8 557.1,131.2 558.3,130.6 559.5,130.1 560.7,129.5 561.9,128.9 563.1,128.3 564.3,127.7 565.5,127.2 566.6,126.6 567.8,126.0 569.0,125.4 570.2,124.8 571.4,124.3 572.6,123.7 573.8,123.1 574.9,122.6 576.1,122.0 577.3,121.4 578.5,120.9 579.7,120.3 580.9,119.7 582.1,119.2 583.3,118.6 584.4,118.1 585.6,117.5 586.8,117.0 588.0,116.4 589.2,115.9 590.4,115.3 591.6,114.8 592.7,114.2 593.9,113.7 595.1,113.2 596.3,112.6 597.5,112.1 598.7,111.6 599.9,111.0 601.1,110.5 602.2,110.0 603.4,109.5 604.6,108.9 605.8,108.4 607.0,107.9 608.2,107.4 609.4,106.9 610.5,106.4 611.7,105.8 612.9,105.3 614.1,104.8 615.3,104.3 616.5,103.8 617.7,103.3 618.9,102.8 620.0,102.3 621.2,101.8 622.4,101.3 623.6,100.8 624.8,100.4 626.0,99.9 627.2,99.4 628.3,98.9 629.5,98.4 630.7,97.9 631.9,97.5 633.1,97.0 634.3,96.5 635.5,96.0 636.7,95.6 637.8,95.1 639.0,94.6 640.2,94.2 641.4,93.7 642.6,93.2 643.8,92.8 645.0,92.3 646.1,91.8 647.3,91.4 648.5,90.9 649.7,90.5 650.9,90.0 652.1,89.6 653.3,89.1 654.5,88.7 655.6,88.3 656.8,87.8 658.0,87.4 659.2,86.9 660.4,86.5 661.6,86.1 662.8,85.6 663.9,85.2 665.1,84.8 666.3,84.3 667.5,83.9 668.7,83.5 669.9,83.1 671.1,82.6 672.3,82.2 673.4,81.8 674.6,81.4 675.8,81.0 677.0,80.6 678.2,80.2 679.4,79.7 680.6,79.3 681.7,78.9 682.9,78.5 684.1,78.1 685.3,77.7 686.5,77.3 687.7,76.9 688.9,76.5 690.1,76.1 691.2,75.7 692.4,75.3 693.6,75.0 694.8,74.6 696.0,74.2 697.2,73.8 698.4,73.4 699.5,73.0 700.7,72.6 701.9,72.3 703.1,71.9 704.3,71.5 705.5,71.1 706.7,70.8 707.9,70.4 709.0,70.0 710.2,69.7 711.4,69.3 712.6,68.9 713.8,68.6 715.0,68.2 716.2,67.8 717.3,67.5 718.5,67.1 719.7,66.8 720.9,66.4 722.1,66.1 723.3,65.7 724.5,65.4 725.7,65.0 726.8,64.7 728.0,64.3 729.2,64.0 730.4,63.6 731.6,63.3 732.8,62.9 734.0,62.6 735.1,62.3 736.3,61.9 737.5,61.6 738.7,61.3 739.9,60.9 741.1,60.6 742.3,60.3 743.5,59.9 744.6,59.6 745.8,59.3 747.0,59.0 748.2,58.7 749.4,58.3 750.6,58.0 751.8,57.7 752.9,57.4 754.1,57.1 755.3,56.8 756.5,56.4 757.7,56.1 758.9,55.8 760.1,55.5 761.3,55.2 762.4,54.9 763.6,54.6 764.8,54.3 766.0,54.0"/>
<line x1="606" y1="42" x2="628" y2="42" stroke="#0f62fe" stroke-width="2.2"/>
<text x="634" y="46" font-family="Arial" font-size="12">altitude_m</text>
</svg>