<svg xmlns="http://www.w3.org/2000/svg" width="820" height="320" viewBox="0 0 820 320">
<rect width="100%" height="100%" fill="#ffffff"/>
<text x="54" y="28" font-family="Arial" font-size="18" font-weight="700">Velocity X</text>
<line x1="54" y1="266" x2="766" y2="266" stroke="#1f2933"/>
<line x1="54" y1="54" x2="54" y2="266" stroke="#1f2933"/>
<text x="54" y="306" font-family="Arial" font-size="12">time (s)</text>
<text x="596" y="306" font-family="Arial" font-size="12">vx (m/s)</text>
<text x="58" y="68" font-family="Arial" font-size="11">255</text>
<text x="58" y="260" font-family="Arial" font-size="11">85</text>
<polyline fill="none" stroke="#0f62fe" stroke-width="2.2" points="54.0,266.0 55.2,265.4 56.4,264.8 57.6,264.2 58.7,263.5 59.9,262.9 61.1,262.3 62.3,261.6 63.5,261.0 64.7,260.3 65.9,259.6 67.1,258.9 68.2,258.2 69.4,257.5 70.6,256.8 71.8,256.1 73.0,255.3 74.2,254.6 75.4,253.9 76.5,253.2 77.7,252.5 78.9,251.8 80.1,251.1 81.3,250.3 82.5,249.6 83.7,248.9 84.9,248.2 86.0,247.5 87.2,246.8 88.4,246.1 89.6,245.4 90.8,244.7 92.0,244.0 93.2,243.3 94.3,242.6 95.5,241.9 96.7,241.2 97.9,240.5 99.1,239.8 100.3,239.1 101.5,238.4 102.7,237.7 103.8,237.0 105.0,236.3 106.2,235.6 107.4,234.9 108.6,234.3 109.8,233.6 111.0,232.9 112.1,232.2 113.3,231.5 114.5,230.8 115.7,230.1 116.9,229.5 118.1,228.8 119.3,228.1 120.5,227.4 121.6,226.7 122.8,226.1 124.0,225.4 125.2,224.7 126.4,224.0 127.6,223.4 128.8,222.7 129.9,222.0 131.1,221.4 132.3,220.7 133.5,220.0 134.7,219.4 135.9,218.7 137.1,218.0 138.3,217.4 139.4,216.7 140.6,216.0 141.8,215.4 143.0,214.7 144.2,214.1 145.4,213.4 146.6,212.7 147.7,212.1 148.9,211.4 150.1,210.8 151.3,210.1 152.5,209.5 153.7,208.8 154.9,208.2 156.1,207.5 157.2,206.9 158.4,206.3 159.6,205.6 160.8,205.0 162.0,204.3 163.2,203.7 164.4,203.0 165.5,202.4 166.7,201.8 167.9,201.1 169.1,200.5 170.3,199.9 171.5,199.2 172.7,198.6 173.9,198.0 175.0,197.4 176.2,196.7 177.4,196.1 178.6,195.5 179.8,194.9 181.0,194.3 182.2,193.7 183.3,193.0 184.5,192.4 185.7,191.8 186.9,191.2 188.1,190.6 189.3,190.0 190.5,189.4 191.7,188.8 192.8,188.2 194.0,187.6 195.2,187.0 196.4,186.4 197.6,185.8 198.8,185.2 200.0,184.6 201.1,184.0 202.3,183.4 203.5,182.8 204.7,182.3 205.9,181.7 207.1,181.1 208.3,180.5 209.5,179.9 210.6,179.3 211.8,178.8 213.0,178.2 214.2,177.6 215.4,177.0 216.6,176.5 217.8,175.9 218.9,175.3 220.1,174.8 221.3,174.2 222.5,173.6 223.7,173.1 224.9,172.5 226.1,171.9 227.3,171.4 228.4,170.8 229.6,170.3 230.8,169.7 232.0,169.2 233.2,168.6 234.4,168.1 235.6,167.5 236.7,167.0 237.9,166.4 239.1,165.9 240.3,165.3 241.5,164.8 242.7,164.2 243.9,163.7 245.1,163.2 246.2,162.6 247.4,162.1 248.6,161.5 249.8,161.0 251.0,160.5 252.2,159.9 253.4,159.4 254.5,158.9 255.7,158.3 256.9,157.8 258.1,157.3 259.3,156.8 260.5,156.2 261.7,155.7 262.9,155.2 264.0,154.7 265.2,154.1 266.4,153.6 267.6,153.1 268.8,152.6 270.0,152.1 271.2,151.5 272.3,151.0 273.5,150.5 274.7,150.0 275.9,149.5 277.1,149.0 278.3,148.5 279.5,147.9 280.7,147.4 281.8,146.9 283.0,146.4 284.2,145.9 285.4,145.4 286.6,144.9 287.8,144.4 289.0,143.9 290.1,143.4 291.3,142.9 292.5,142.4 293.7,141.9 294.9,141.4 296.1,140.9 297.3,140.3 298.5,139.9 299.6,139.4 300.8,138.9 302.0,138.4 303.2,137.9 304.4,137.4 305.6,137.0 306.8,136.5 307.9,136.0 309.1,135.5 310.3,135.0 311.5,134.5 312.7,134.0 313.9,133.5 315.1,133.0 316.3,132.5 317.4,132.0 318.6,131.5 319.8,131.0 321.0,130.5 322.2,130.1 323.4,129.6 324.6,129.2 325.7,128.7 326.9,128.3 328.1,127.8 329.3,127.4 330.5,126.9 331.7,126.5 332.9,126.0 334.1,125.6 335.2,125.1 336.4,124.7 337.6,124.2 338.8,123.8 340.0,123.3 341.2,122.9 342.4,122.5 343.5,122.0 344.7,121.6 345.9,121.2 347.1,120.7 348.3,120.3 349.5,119.8 350.7,119.4 351.9,119.0 353.0,118.6 354.2,118.1 355.4,117.7 356.6,117.2 357.8,116.8 359.0,116.4 360.2,116.0 361.3,115.5 362.5,115.1 363.7,114.7 364.9,114.2 366.1,113.8 367.3,113.4 368.5,112.9 369.7,112.5 370.8,112.0 372.0,111.6 373.2,111.2 374.4,110.7 375.6,110.3 376.8,109.9 378.0,109.4 379.1,109.0 380.3,108.5 381.5,108.1 382.7,107.7 383.9,107.2 385.1,106.8 386.3,106.4 387.5,105.9 388.6,105.5 389.8,105.1 391.0,104.6 392.2,104.2 393.4,103.8 394.6,103.3 395.8,102.9 396.9,102.5 398.1,102.1 399.3,101.6 400.5,101.2 401.7,100.8 402.9,100.4 404.1,99.9 405.3,99.5 406.4,99.1 407.6,98.7 408.8,98.2 410.0,97.8 411.2,97.4 412.4,97.0 413.6,96.6 414.7,96.2 415.9,95.7 417.1,95.4 418.3,94.9 419.5,94.5 420.7,94.1 421.9,93.7 423.1,93.3 424.2,92.9 425.4,92.5 426.6,92.1 427.8,91.7 429.0,91.3 430.2,90.9 431.4,90.5 432.5,90.1 433.7,89.7 434.9,89.3 436.1,89.0 437.3,88.5 438.5,88.2 439.7,87.8 440.9,87.4 442.0,87.0 443.2,86.6 444.4,86.2 445.6,85.9 446.8,85.5 448.0,85.1 449.2,84.7 450.3,84.4 451.5,84.0 452.7,83.6 453.9,83.2 455.1,82.9 456.3,82.5 457.5,82.2 458.7,81.8 459.8,81.4 461.0,81.0 462.2,80.7 463.4,80.3 464.6,80.0 465.8,79.6 467.0,79.3 468.1,78.9 469.3,78.6 470.5,78.2 471.7,77.9 472.9,77.5 474.1,77.2 475.3,76.8 476.5,76.5 477.6,76.1 478.8,75.8 480.0,75.4 481.2,75.1 482.4,74.8 483.6,74.5 484.8,74.1 485.9,73.8 487.1,73.4 488.3,73.1 489.5,72.8 490.7,72.5 491.9,72.1 493.1,71.8 494.3,71.5 495.4,71.2 496.6,70.8 497.8,70.6 499.0,70.2 500.2,69.9 501.4,69.6 502.6,69.3 503.7,69.0 504.9,68.7 506.1,68.3 507.3,68.1 508.5,67.7 509.7,67.5 510.9,67.1 512.1,66.9 513.2,66.5 514.4,66.3 515.6,65.9 516.8,65.7 518.0,65.3 519.2,65.1 520.4,64.8 521.5,64.5 522.7,64.2 523.9,63.9 525.1,63.6 526.3,63.4 527.5,63.0 528.7,62.8 529.9,62.5 531.0,62.2 532.2,61.9 533.4,61.7 534.6,61.4 535.8,61.1 537.0,60.8 538.2,60.6 539.3,60.3 540.5,60.1 541.7,59.8 542.9,59.5 544.1,59.2 545.3,59.0 546.5,58.7 547.7,58.5 548.8,58.2 550.0,58.0 551.2,57.7 552.4,57.4 553.6,57.2 554.8,56.9 556.0,56.7 557.1,56.4 558.3,56.2 559.5,55.9 560.7,55.7 561.9,55.4 563.1,55.2 564.3,55.0 565.5,54.7 566.6,54.5 567.8,54.2 569.0,54.0 570.2,54.6 571.4,55.2 572.6,55.7 573.8,56.4 574.9,56.9 576.1,57.5 577.3,58.1 578.5,58.7 579.7,59.2 580.9,59.8 582.1,60.3 583.3,60.9 584.4,61.5 585.6,62.0 586.8,62.6 588.0,63.1 589.2,63.7 590.4,64.2 591.6,64.8 592.7,65.3 593.9,65.8 595.1,66.4 596.3,66.9 597.5,67.5 598.7,68.0 599.9,68.5 601.1,69.0 602.2,69.6 603.4,70.1 604.6,70.6 605.8,71.1 607.0,71.7 608.2,72.2 609.4,72.7 610.5,73.2 611.7,73.7 612.9,74.2 614.1,74.7 615.3,75.2 616.5,75.7 617.7,76.2 618.9,76.7 620.0,77.2 621.2,77.7 622.4,78.2 623.6,78.7 624.8,79.1 626.0,79.6 627.2,80.1 628.3,80.6 629.5,81.1 630.7,81.6 631.9,82.0 633.1,82.5 634.3,83.0 635.5,83.5 636.7,83.9 637.8,84.4 639.0,84.8 640.2,85.3 641.4,85.7 642.6,86.2 643.8,86.7 645.0,87.1 646.1,87.6 647.3,88.0 648.5,88.5 649.7,88.9 650.9,89.4 652.1,89.8 653.3,90.3 654.5,90.7 655.6,91.1 656.8,91.6 658.0,92.0 659.2,92.5 660.4,92.9 661.6,93.4 662.8,93.8 663.9,94.2 665.1,94.6 666.3,95.1 667.5,95.5 668.7,95.9 669.9,96.3 671.1,96.8 672.3,97.2 673.4,97.6 674.6,98.0 675.8,98.4 677.0,98.8 678.2,99.3 679.4,99.7 680.6,100.1 681.7,100.5 682.9,100.9 684.1,101.3 685.3,101.7 686.5,102.1 687.7,102.5 688.9,102.9 690.1,103.3 691.2,103.7 692.4,104.1 693.6,104.5 694.8,104.9 696.0,105.3 697.2,105.7 698.4,106.1 699.5,106.5 700.7,106.8 701.9,107.2 703.1,107.6 704.3,108.0 705.5,108.4 706.7,108.8 707.9,109.1 709.0,109.5 710.2,109.9 711.4,110.3 712.6,110.6 713.8,111.0 715.0,111.4 716.2,111.8 717.3,112.1 718.5,112.5 719.7,112.9 720.9,113.3 722.1,113.6 723.3,114.0 724.5,114.3 725.7,114.7 726.8,115.1 728.0,115.4 729.2,115.8 730.4,116.2 731.6,116.5 732.8,116.9 734.0,117.2 735.1,117.6 736.3,117.9 737.5,118.3 738.7,118.6 739.9,119.0 741.1,119.3 742.3,119.7 743.5,120.0 744.6,120.4 745.8,120.7 747.0,121.1 748.2,121.4 749.4,121.8 750.6,122.1 751.8,122.4 752.9,122.8 754.1,123.1 755.3,123.4 756.5,123.8 757.7,124.1 758.9,124.5 760.1,124.8 761.3,125.1 762.4,125.5 763.6,125.8 764.8,126.1 766.0,126.5"/>
<line x1="606" y1="42" x2="628" y2="42" stroke="#0f62fe" stroke-width="2.2"/>
<text x="634" y="46" font-family="Arial" font-size="12">vx_mps</text>
</svg>