<svg xmlns="http://www.w3.org/2000/svg" width="820" height="320" viewBox="0 0 820 320">
<rect width="100%" height="100%" fill="#ffffff"/>
<text x="54" y="28" font-family="Arial" font-size="18" font-weight="700">Body Rates</text>
<line x1="54" y1="266" x2="766" y2="266" stroke="#1f2933"/>
<line x1="54" y1="54" x2="54" y2="266" stroke="#1f2933"/>
<text x="54" y="306" font-family="Arial" font-size="12">time (s)</text>
<text x="596" y="306" font-family="Arial" font-size="12">rate (deg/s)</text>
<text x="58" y="68" font-family="Arial" font-size="11">19.6</text>
<text x="58" y="260" font-family="Arial" font-size="11">-21.1</text>
<polyline fill="none" stroke="#0f62fe" stroke-width="2.2" points="54.0,156.1 55.2,156.1 56.4,156.1 57.6,156.1 58.7,156.1 59.9,156.1 61.1,156.1 62.3,156.1 63.5,156.1 64.7,156.1 65.9,156.1 67.1,156.1 68.2,156.1 69.4,156.1 70.6,156.1 71.8,156.1 73.0,156.1 74.2,156.1 75.4,156.1 76.5,156.1 77.7,156.1 78.9,156.1 80.1,156.1 81.3,156.1 82.5,156.1 83.7,156.1 84.9,156.1 86.0,156.1 87.2,156.1 88.4,156.1 89.6,156.1 90.8,156.1 92.0,156.1 93.2,156.1 94.3,156.1 95.5,156.1 96.7,156.1 97.9,156.1 99.1,156.1 100.3,156.1 101.5,156.1 102.7,156.1 103.8,156.1 105.0,156.1 106.2,156.1 107.4,156.1 108.6,156.1 109.8,156.1 111.0,156.1 112.1,156.1 113.3,156.1 114.5,156.1 115.7,156.1 116.9,156.1 118.1,156.1 119.3,156.1 120.5,156.1 121.6,156.1 122.8,156.1 124.0,156.1 125.2,156.1 126.4,156.1 127.6,156.1 128.8,156.1 129.9,156.1 131.1,156.1 132.3,156.1 133.5,156.1 134.7,156.1 135.9,156.1 137.1,156.1 138.3,156.1 139.4,156.1 140.6,156.1 141.8,156.1 143.0,156.1 144.2,156.1 145.4,156.1 146.6,156.1 147.7,156.1 148.9,156.1 150.1,156.1 151.3,156.1 152.5,156.1 153.7,156.1 154.9,156.1 156.1,156.1 157.2,156.1 158.4,156.1 159.6,156.1 160.8,156.1 162.0,156.1 163.2,156.1 164.4,156.1 165.5,156.1 166.7,156.1 167.9,156.1 169.1,156.1 170.3,156.1 171.5,156.1 172.7,156.1 173.9,156.1 175.0,156.1 176.2,156.1 177.4,156.1 178.6,156.1 179.8,156.1 181.0,156.1 182.2,156.1 183.3,156.1 184.5,156.1 185.7,156.1 186.9,156.1 188.1,156.1 189.3,156.1 190.5,156.1 191.7,156.1 192.8,156.1 194.0,156.1 195.2,156.1 196.4,156.1 197.6,156.1 198.8,156.1 200.0,156.1 201.1,156.1 202.3,156.1 203.5,156.1 204.7,156.1 205.9,156.1 207.1,156.1 208.3,156.1 209.5,156.1 210.6,156.1 211.8,156.1 213.0,156.1 214.2,156.1 215.4,156.1 216.6,156.1 217.8,156.1 218.9,156.1 220.1,156.1 221.3,156.1 222.5,156.1 223.7,156.1 224.9,156.1 226.1,156.1 227.3,156.1 228.4,156.1 229.6,156.1 230.8,156.1 232.0,156.1 233.2,156.1 234.4,156.1 235.6,156.1 236.7,156.1 237.9,156.1 239.1,156.1 240.3,156.1 241.5,156.1 242.7,156.1 243.9,156.1 245.1,156.1 246.2,156.1 247.4,156.1 248.6,156.1 249.8,156.1 251.0,156.1 252.2,156.1 253.4,156.1 254.5,156.1 255.7,156.1 256.9,156.1 258.1,156.1 259.3,156.1 260.5,156.1 261.7,156.1 262.9,156.1 264.0,156.1 265.2,156.1 266.4,156.1 267.6,156.1 268.8,156.1 270.0,156.1 271.2,156.1 272.3,156.1 273.5,156.1 274.7,156.1 275.9,156.1 277.1,156.1 278.3,156.1 279.5,156.1 280.7,156.1 281.8,156.1 283.0,156.1 284.2,156.1 285.4,156.1 286.6,156.1 287.8,156.1 289.0,156.1 290.1,156.1 291.3,156.1 292.5,156.1 293.7,156.1 294.9,156.1 296.1,156.1 297.3,156.1 298.5,156.1 299.6,156.1 300.8,156.1 302.0,156.1 303.2,156.1 304.4,156.1 305.6,156.1 306.8,156.1 307.9,156.1 309.1,156.1 310.3,156.1 311.5,156.1 312.7,156.1 313.9,156.1 315.1,156.1 316.3,156.1 317.4,156.1 318.6,156.1 319.8,156.1 321.0,156.1 322.2,156.1 323.4,156.1 324.6,156.1 325.7,156.1 326.9,156.1 328.1,156.1 329.3,156.1 330.5,156.1 331.7,156.1 332.9,156.1 334.1,156.1 335.2,156.1 336.4,156.1 337.6,156.1 338.8,156.1 340.0,156.1 341.2,156.1 342.4,156.1 343.5,156.1 344.7,156.1 345.9,156.1 347.1,156.1 348.3,156.1 349.5,156.1 350.7,156.1 351.9,156.1 353.0,156.1 354.2,156.1 355.4,156.1 356.6,156.1 357.8,156.1 359.0,156.1 360.2,156.1 361.3,156.1 362.5,156.1 363.7,156.1 364.9,156.1 366.1,156.1 367.3,156.1 368.5,156.1 369.7,156.1 370.8,156.1 372.0,156.1 373.2,156.1 374.4,156.1 375.6,156.1 376.8,156.1 378.0,156.1 379.1,156.1 380.3,156.1 381.5,156.1 382.7,156.1 383.9,156.1 385.1,156.1 386.3,156.1 387.5,156.1 388.6,156.1 389.8,156.1 391.0,156.1 392.2,156.1 393.4,156.1 394.6,156.1 395.8,156.1 396.9,156.1 398.1,156.1 399.3,156.1 400.5,156.1 401.7,156.1 402.9,156.1 404.1,156.1 405.3,156.1 406.4,156.1 407.6,156.1 408.8,156.1 410.0,156.1 411.2,156.1 412.4,156.1 413.6,156.1 414.7,156.1 415.9,156.1 417.1,156.1 418.3,156.1 419.5,156.1 420.7,156.1 421.9,156.1 423.1,156.1 424.2,156.1 425.4,156.1 426.6,156.1 427.8,156.1 429.0,156.1 430.2,156.1 431.4,156.1 432.5,156.1 433.7,156.1 434.9,156.1 436.1,156.1 437.3,156.1 438.5,156.1 439.7,156.1 440.9,156.1 442.0,156.1 443.2,156.1 444.4,156.1 445.6,156.1 446.8,156.1 448.0,156.1 449.2,156.1 450.3,156.1 451.5,156.1 452.7,156.1 453.9,156.1 455.1,156.1 456.3,156.1 457.5,156.1 458.7,156.1 459.8,156.1 461.0,156.1 462.2,156.1 463.4,156.1 464.6,156.1 465.8,156.1 467.0,156.1 468.1,156.1 469.3,156.1 470.5,156.1 471.7,156.1 472.9,156.1 474.1,156.1 475.3,156.1 476.5,156.1 477.6,156.1 478.8,156.1 480.0,156.1 481.2,156.1 482.4,156.1 483.6,156.1 484.8,156.1 485.9,156.1 487.1,156.1 488.3,156.1 489.5,156.1 490.7,156.1 491.9,156.1 493.1,156.1 494.3,156.1 495.4,156.1 496.6,156.1 497.8,156.1 499.0,156.1 500.2,156.1 501.4,156.1 502.6,156.1 503.7,156.1 504.9,156.1 506.1,156.1 507.3,156.1 508.5,156.1 509.7,156.1 510.9,156.1 512.1,156.1 513.2,156.1 514.4,156.1 515.6,156.1 516.8,156.1 518.0,156.1 519.2,156.1 520.4,156.1 521.5,156.1 522.7,156.1 523.9,156.1 525.1,156.1 526.3,156.1 527.5,156.1 528.7,156.1 529.9,156.1 531.0,156.1 532.2,156.1 533.4,156.1 534.6,156.1 535.8,156.1 537.0,156.1 538.2,156.1 539.3,156.1 540.5,156.1 541.7,156.1 542.9,156.1 544.1,156.1 545.3,156.1 546.5,156.1 547.7,156.1 548.8,156.1 550.0,156.1 551.2,156.1 552.4,156.1 553.6,156.1 554.8,156.1 556.0,156.1 557.1,156.1 558.3,156.1 559.5,156.1 560.7,156.1 561.9,156.1 563.1,156.1 564.3,156.1 565.5,156.1 566.6,156.1 567.8,156.1 569.0,156.1 570.2,156.1 571.4,156.1 572.6,156.1 573.8,156.1 574.9,156.1 576.1,156.1 577.3,156.1 578.5,156.1 579.7,156.1 580.9,156.1 582.1,156.1 583.3,156.1 584.4,156.1 585.6,156.1 586.8,156.1 588.0,156.1 589.2,156.1 590.4,156.1 591.6,156.1 592.7,156.1 593.9,156.1 595.1,156.1 596.3,156.1 597.5,156.1 598.7,156.1 599.9,156.1 601.1,156.1 602.2,156.1 603.4,156.1 604.6,156.1 605.8,156.1 607.0,156.1 608.2,156.1 609.4,156.1 610.5,156.1 611.7,156.1 612.9,156.1 614.1,156.1 615.3,156.1 616.5,156.1 617.7,156.1 618.9,156.1 620.0,156.1 621.2,156.1 622.4,156.1 623.6,156.1 624.8,156.1 626.0,156.1 627.2,156.1 628.3,156.1 629.5,156.1 630.7,156.1 631.9,156.1 633.1,156.1 634.3,156.1 635.5,156.1 636.7,156.1 637.8,156.1 639.0,156.1 640.2,156.1 641.4,156.1 642.6,156.1 643.8,156.1 645.0,156.1 646.1,156.1 647.3,156.1 648.5,156.1 649.7,156.1 650.9,156.1 652.1,156.1 653.3,156.1 654.5,156.1 655.6,156.1 656.8,156.1 658.0,156.1 659.2,156.1 660.4,156.1 661.6,156.1 662.8,156.1 663.9,156.1 665.1,156.1 666.3,156.1 667.5,156.1 668.7,156.1 669.9,156.1 671.1,156.1 672.3,156.1 673.4,156.1 674.6,156.1 675.8,156.1 677.0,156.1 678.2,156.1 679.4,156.1 680.6,156.1 681.7,156.1 682.9,156.1 684.1,156.1 685.3,156.1 686.5,156.1 687.7,156.1 688.9,156.1 690.1,156.1 691.2,156.1 692.4,156.1 693.6,156.1 694.8,156.1 696.0,156.1 697.2,156.1 698.4,156.1 699.5,156.1 700.7,156.1 701.9,156.1 703.1,156.1 704.3,156.1 705.5,156.1 706.7,156.1 707.9,156.1 709.0,156.1 710.2,156.1 711.4,156.1 712.6,156.1 713.8,156.1 715.0,156.1 716.2,156.1 717.3,156.1 718.5,156.1 719.7,156.1 720.9,156.1 722.1,156.1 723.3,156.1 724.5,156.1 725.7,156.1 726.8,156.1 728.0,156.1 729.2,156.1 730.4,156.1 731.6,156.1 732.8,156.1 734.0,156.1 735.1,156.1 736.3,156.1 737.5,156.1 738.7,156.1 739.9,156.1 741.1,156.1 742.3,156.1 743.5,156.1 744.6,156.1 745.8,156.1 747.0,156.1 748.2,156.1 749.4,156.1 750.6,156.1 751.8,156.1 752.9,156.1 754.1,156.1 755.3,156.1 756.5,156.1 757.7,156.1 758.9,156.1 760.1,156.1 761.3,156.1 762.4,156.1 763.6,156.1 764.8,156.1 766.0,156.1"/>
<line x1="606" y1="42" x2="628" y2="42" stroke="#0f62fe" stroke-width="2.2"/>
<text x="634" y="46" font-family="Arial" font-size="12">p_dps</text>
<polyline fill="none" stroke="#24a148" stroke-width="2.2" points="54.0,156.1 55.2,202.3 56.4,221.4 57.6,209.1 58.7,187.1 59.9,172.6 61.1,168.2 62.3,168.1 63.5,167.0 64.7,163.9 65.9,160.2 67.1,157.4 68.2,155.7 69.4,154.5 70.6,153.4 71.8,152.4 73.0,151.4 74.2,150.7 75.4,150.1 76.5,149.6 77.7,149.3 78.9,149.0 80.1,148.7 81.3,148.6 82.5,148.5 83.7,148.4 84.9,148.3 86.0,148.3 87.2,148.3 88.4,148.4 89.6,148.4 90.8,148.5 92.0,148.6 93.2,148.7 94.3,148.8 95.5,148.9 96.7,149.0 97.9,149.1 99.1,149.2 100.3,149.3 101.5,149.5 102.7,149.6 103.8,149.7 105.0,149.9 106.2,150.0 107.4,150.1 108.6,150.3 109.8,150.4 111.0,150.5 112.1,150.7 113.3,150.8 114.5,150.9 115.7,151.0 116.9,151.2 118.1,151.3 119.3,151.4 120.5,151.5 121.6,151.7 122.8,151.8 124.0,151.9 125.2,152.0 126.4,152.1 127.6,152.3 128.8,152.4 129.9,152.5 131.1,152.6 132.3,152.7 133.5,152.8 134.7,152.9 135.9,153.0 137.1,153.1 138.3,153.2 139.4,153.3 140.6,153.4 141.8,153.5 143.0,153.6 144.2,153.7 145.4,153.8 146.6,153.9 147.7,154.0 148.9,154.1 150.1,154.2 151.3,154.3 152.5,154.3 153.7,154.4 154.9,154.5 156.1,155.0 157.2,155.7 158.4,156.1 159.6,156.4 160.8,156.8 162.0,157.1 163.2,157.3 164.4,157.6 165.5,157.8 166.7,158.0 167.9,158.2 169.1,158.4 170.3,158.5 171.5,158.7 172.7,158.8 173.9,158.9 175.0,159.1 176.2,159.2 177.4,159.3 178.6,159.4 179.8,159.4 181.0,159.5 182.2,159.6 183.3,159.7 184.5,159.7 185.7,159.8 186.9,159.9 188.1,159.9 189.3,160.0 190.5,160.0 191.7,160.1 192.8,160.1 194.0,160.2 195.2,160.2 196.4,160.2 197.6,160.3 198.8,160.3 200.0,160.3 201.1,160.4 202.3,160.4 203.5,160.4 204.7,160.4 205.9,160.4 207.1,160.5 208.3,160.5 209.5,160.5 210.6,160.5 211.8,160.5 213.0,160.5 214.2,160.5 215.4,160.5 216.6,160.5 217.8,160.5 218.9,160.5 220.1,160.5 221.3,160.5 222.5,160.5 223.7,160.5 224.9,160.5 226.1,160.5 227.3,160.5 228.4,160.5 229.6,160.5 230.8,160.4 232.0,160.4 233.2,160.4 234.4,160.4 235.6,160.4 236.7,160.3 237.9,160.3 239.1,160.3 240.3,160.3 241.5,160.3 242.7,160.2 243.9,160.2 245.1,160.2 246.2,160.1 247.4,160.1 248.6,160.1 249.8,160.1 251.0,160.0 252.2,160.0 253.4,160.0 254.5,159.9 255.7,159.9 256.9,159.9 258.1,159.8 259.3,159.8 260.5,159.7 261.7,159.7 262.9,159.7 264.0,159.6 265.2,159.6 266.4,159.5 267.6,159.5 268.8,159.5 270.0,159.4 271.2,159.4 272.3,159.3 273.5,159.3 274.7,159.3 275.9,159.2 277.1,159.2 278.3,159.1 279.5,159.1 280.7,159.1 281.8,159.0 283.0,159.0 284.2,158.7 285.4,159.2 286.6,158.0 287.8,160.6 289.0,154.8 290.1,167.6 291.3,138.5 292.5,204.8 293.7,54.0 294.9,226.0 296.1,90.3 297.3,262.3 298.5,100.6 299.6,266.0 300.8,94.0 302.0,235.3 303.2,63.3 304.4,228.4 305.6,56.4 306.8,228.4 307.9,56.4 309.1,228.4 310.3,69.1 311.5,241.0 312.7,82.1 313.9,254.1 315.1,82.1 316.3,254.1 317.4,82.1 318.6,254.1 319.8,82.1 321.0,254.1 322.2,82.1 323.4,254.1 324.6,82.1 325.7,254.1 326.9,82.1 328.1,254.1 329.3,82.1 330.5,245.8 331.7,73.8 332.9,245.8 334.1,73.8 335.2,245.8 336.4,73.8 337.6,245.8 338.8,73.8 340.0,245.8 341.2,73.8 342.4,245.8 343.5,73.8 344.7,245.8 345.9,73.8 347.1,245.8 348.3,73.8 349.5,245.8 350.7,73.8 351.9,245.8 353.0,73.8 354.2,245.8 355.4,73.8 356.6,245.8 357.8,73.8 359.0,240.4 360.2,68.5 361.3,240.4 362.5,68.5 363.7,240.4 364.9,68.5 366.1,240.4 367.3,68.5 368.5,240.4 369.7,68.5 370.8,240.4 372.0,68.5 373.2,240.4 374.4,68.5 375.6,240.4 376.8,68.5 378.0,240.4 379.1,68.5 380.3,240.4 381.5,68.5 382.7,240.4 383.9,68.5 385.1,240.4 386.3,68.5 387.5,240.4 388.6,68.5 389.8,240.4 391.0,68.5 392.2,240.4 393.4,68.5 394.6,240.4 395.8,68.5 396.9,240.4 398.1,68.5 399.3,240.4 400.5,68.5 401.7,240.4 402.9,68.5 404.1,240.4 405.3,68.5 406.4,240.4 407.6,68.5 408.8,240.4 410.0,68.5 411.2,240.4 412.4,68.5 413.6,240.4 414.7,68.5 415.9,240.4 417.1,68.5 418.3,240.4 419.5,68.5 420.7,240.4 421.9,68.5 423.1,240.4 424.2,68.5 425.4,240.4 426.6,68.5 427.8,240.4 429.0,68.5 430.2,240.4 431.4,68.5 432.5,240.4 433.7,68.5 434.9,240.4 436.1,68.5 437.3,240.4 438.5,68.5 439.7,240.4 440.9,68.5 442.0,240.4 443.2,68.5 444.4,240.4 445.6,68.5 446.8,240.4 448.0,68.5 449.2,240.4 450.3,68.5 451.5,240.4 452.7,68.5 453.9,240.4 455.1,68.5 456.3,240.4 457.5,68.5 458.7,240.4 459.8,68.5 461.0,240.4 462.2,68.5 463.4,240.4 464.6,68.5 465.8,240.4 467.0,68.5 468.1,240.4 469.3,68.5 470.5,240.4 471.7,68.5 472.9,240.4 474.1,68.5 475.3,240.4 476.5,68.5 477.6,240.4 478.8,68.5 480.0,240.4 481.2,68.7 482.4,240.7 483.6,68.7 484.8,240.7 485.9,68.7 487.1,240.7 488.3,68.7 489.5,240.7 490.7,68.7 491.9,240.7 493.1,68.7 494.3,240.7 495.4,68.7 496.6,240.7 497.8,68.7 499.0,240.7 500.2,68.7 501.4,240.7 502.6,68.7 503.7,240.7 504.9,68.7 506.1,240.7 507.3,68.7 508.5,240.7 509.7,68.7 510.9,240.7 512.1,68.7 513.2,240.7 514.4,68.7 515.6,240.7 516.8,68.7 518.0,240.7 519.2,68.7 520.4,240.7 521.5,68.7 522.7,240.7 523.9,68.7 525.1,240.7 526.3,68.7 527.5,240.7 528.7,68.7 529.9,240.7 531.0,68.7 532.2,240.7 533.4,68.7 534.6,240.7 535.8,68.7 537.0,240.7 538.2,68.7 539.3,240.7 540.5,68.7 541.7,240.7 542.9,68.7 544.1,240.7 545.3,68.7 546.5,240.7 547.7,68.7 548.8,240.7 550.0,68.7 551.2,240.7 552.4,68.7 553.6,240.7 554.8,68.7 556.0,240.7 557.1,68.7 558.3,240.7 559.5,68.7 560.7,240.7 561.9,68.7 563.1,240.7 564.3,68.7 565.5,240.7 566.6,68.7 567.8,240.7 569.0,68.7 570.2,240.7 571.4,68.7 572.6,240.7 573.8,68.7 574.9,240.7 576.1,68.7 577.3,240.7 578.5,68.7 579.7,240.7 580.9,68.7 582.1,240.7 583.3,68.7 584.4,240.7 585.6,68.7 586.8,240.7 588.0,68.7 589.2,240.7 590.4,68.7 591.6,240.7 592.7,68.7 593.9,240.7 595.1,68.7 596.3,240.7 597.5,68.7 598.7,240.7 599.9,68.7 601.1,240.7 602.2,68.7 603.4,240.7 604.6,68.7 605.8,240.7 607.0,68.7 608.2,240.7 609.4,68.7 610.5,240.7 611.7,68.7 612.9,240.7 614.1,68.7 615.3,240.7 616.5,68.7 617.7,240.7 618.9,68.7 620.0,240.7 621.2,68.7 622.4,240.7 623.6,68.7 624.8,240.7 626.0,68.7 627.2,240.7 628.3,68.7 629.5,240.7 630.7,68.7 631.9,240.7 633.1,68.7 634.3,240.7 635.5,68.7 636.7,240.7 637.8,68.7 639.0,240.7 640.2,68.7 641.4,240.7 642.6,68.7 643.8,240.7 645.0,68.7 646.1,240.7 647.3,68.7 648.5,240.7 649.7,68.7 650.9,240.7 652.1,68.7 653.3,240.7 654.5,68.7 655.6,240.7 656.8,68.7 658.0,240.7 659.2,68.7 660.4,240.7 661.6,68.7 662.8,240.7 663.9,68.7 665.1,240.7 666.3,68.7 667.5,240.7 668.7,68.7 669.9,240.7 671.1,68.7 672.3,240.7 673.4,68.7 674.6,240.7 675.8,68.7 677.0,240.7 678.2,68.7 679.4,240.7 680.6,68.7 681.7,240.7 682.9,68.7 684.1,240.7 685.3,68.7 686.5,240.7 687.7,68.7 688.9,240.7 690.1,68.7 691.2,240.7 692.4,68.7 693.6,240.7 694.8,68.7 696.0,240.7 697.2,68.7 698.4,240.7 699.5,68.7 700.7,240.7 701.9,68.7 703.1,240.7 704.3,68.7 705.5,240.7 706.7,68.7 707.9,240.7 709.0,68.7 710.2,240.7 711.4,68.7 712.6,240.7 713.8,68.7 715.0,240.7 716.2,68.7 717.3,240.7 718.5,68.7 719.7,240.7 720.9,68.7 722.1,240.7 723.3,68.7 724.5,240.7 725.7,68.7 726.8,240.7 728.0,68.7 729.2,240.7 730.4,68.7 731.6,240.7 732.8,68.7 734.0,240.7 735.1,68.7 736.3,240.7 737.5,68.7 738.7,240.7 739.9,68.7 741.1,240.7 742.3,68.7 743.5,240.7 744.6,68.7 745.8,240.7 747.0,68.7 748.2,240.7 749.4,68.7 750.6,240.7 751.8,68.7 752.9,240.7 754.1,68.7 755.3,240.7 756.5,68.7 757.7,240.7 758.9,68.7 760.1,240.7 761.3,68.7 762.4,240.7 763.6,68.7 764.8,240.7 766.0,68.7"/>
<line x1="606" y1="60" x2="628" y2="60" stroke="#24a148" stroke-width="2.2"/>
<text x="634" y="64" font-family="Arial" font-size="12">q_dps</text>
<polyline fill="none" stroke="#da1e28" stroke-width="2.2" points="54.0,156.1 55.2,156.1 56.4,156.1 57.6,156.1 58.7,156.1 59.9,156.1 61.1,156.1 62.3,156.1 63.5,156.1 64.7,156.1 65.9,156.1 67.1,156.1 68.2,156.1 69.4,156.1 70.6,156.1 71.8,156.1 73.0,156.1 74.2,156.1 75.4,156.1 76.5,156.1 77.7,156.1 78.9,156.1 80.1,156.1 81.3,156.1 82.5,156.1 83.7,156.1 84.9,156.1 86.0,156.1 87.2,156.1 88.4,156.1 89.6,156.1 90.8,156.1 92.0,156.1 93.2,156.1 94.3,156.1 95.5,156.1 96.7,156.1 97.9,156.1 99.1,156.1 100.3,156.1 101.5,156.1 102.7,156.1 103.8,156.1 105.0,156.1 106.2,156.1 107.4,156.1 108.6,156.1 109.8,156.1 111.0,156.1 112.1,156.1 113.3,156.1 114.5,156.1 115.7,156.1 116.9,156.1 118.1,156.1 119.3,156.1 120.5,156.1 121.6,156.1 122.8,156.1 124.0,156.1 125.2,156.1 126.4,156.1 127.6,156.1 128.8,156.1 129.9,156.1 131.1,156.1 132.3,156.1 133.5,156.1 134.7,156.1 135.9,156.1 137.1,156.1 138.3,156.1 139.4,156.1 140.6,156.1 141.8,156.1 143.0,156.1 144.2,156.1 145.4,156.1 146.6,156.1 147.7,156.1 148.9,156.1 150.1,156.1 151.3,156.1 152.5,156.1 153.7,156.1 154.9,156.1 156.1,156.1 157.2,156.1 158.4,156.1 159.6,156.1 160.8,156.1 162.0,156.1 163.2,156.1 164.4,156.1 165.5,156.1 166.7,156.1 167.9,156.1 169.1,156.1 170.3,156.1 171.5,156.1 172.7,156.1 173.9,156.1 175.0,156.1 176.2,156.1 177.4,156.1 178.6,156.1 179.8,156.1 181.0,156.1 182.2,156.1 183.3,156.1 184.5,156.1 185.7,156.1 186.9,156.1 188.1,156.1 189.3,156.1 190.5,156.1 191.7,156.1 192.8,156.1 194.0,156.1 195.2,156.1 196.4,156.1 197.6,156.1 198.8,156.1 200.0,156.1 201.1,156.1 202.3,156.1 203.5,156.1 204.7,156.1 205.9,156.1 207.1,156.1 208.3,156.1 209.5,156.1 210.6,156.1 211.8,156.1 213.0,156.1 214.2,156.1 215.4,156.1 216.6,156.1 217.8,156.1 218.9,156.1 220.1,156.1 221.3,156.1 222.5,156.1 223.7,156.1 224.9,156.1 226.1,156.1 227.3,156.1 228.4,156.1 229.6,156.1 230.8,156.1 232.0,156.1 233.2,156.1 234.4,156.1 235.6,156.1 236.7,156.1 237.9,156.1 239.1,156.1 240.3,156.1 241.5,156.1 242.7,156.1 243.9,156.1 245.1,156.1 246.2,156.1 247.4,156.1 248.6,156.1 249.8,156.1 251.0,156.1 252.2,156.1 253.4,156.1 254.5,156.1 255.7,156.1 256.9,156.1 258.1,156.1 259.3,156.1 260.5,156.1 261.7,156.1 262.9,156.1 264.0,156.1 265.2,156.1 266.4,156.1 267.6,156.1 268.8,156.1 270.0,156.1 271.2,156.1 272.3,156.1 273.5,156.1 274.7,156.1 275.9,156.1 277.1,156.1 278.3,156.1 279.5,156.1 280.7,156.1 281.8,156.1 283.0,156.1 284.2,156.1 285.4,156.1 286.6,156.1 287.8,156.1 289.0,156.1 290.1,156.1 291.3,156.1 292.5,156.1 293.7,156.1 294.9,156.1 296.1,156.1 297.3,156.1 298.5,156.1 299.6,156.1 300.8,156.1 302.0,156.1 303.2,156.1 304.4,156.1 305.6,156.1 306.8,156.1 307.9,156.1 309.1,156.1 310.3,156.1 311.5,156.1 312.7,156.1 313.9,156.1 315.1,156.1 316.3,156.1 317.4,156.1 318.6,156.1 319.8,156.1 321.0,156.1 322.2,156.1 323.4,156.1 324.6,156.1 325.7,156.1 326.9,156.1 328.1,156.1 329.3,156.1 330.5,156.1 331.7,156.1 332.9,156.1 334.1,156.1 335.2,156.1 336.4,156.1 337.6,156.1 338.8,156.1 340.0,156.1 341.2,156.1 342.4,156.1 343.5,156.1 344.7,156.1 345.9,156.1 347.1,156.1 348.3,156.1 349.5,156.1 350.7,156.1 351.9,156.1 353.0,156.1 354.2,156.1 355.4,156.1 356.6,156.1 357.8,156.1 359.0,156.1 360.2,156.1 361.3,156.1 362.5,156.1 363.7,156.1 364.9,156.1 366.1,156.1 367.3,156.1 368.5,156.1 369.7,156.1 370.8,156.1 372.0,156.1 373.2,156.1 374.4,156.1 375.6,156.1 376.8,156.1 378.0,156.1 379.1,156.1 380.3,156.1 381.5,156.1 382.7,156.1 383.9,156.1 385.1,156.1 386.3,156.1 387.5,156.1 388.6,156.1 389.8,156.1 391.0,156.1 392.2,156.1 393.4,156.1 394.6,156.1 395.8,156.1 396.9,156.1 398.1,156.1 399.3,156.1 400.5,156.1 401.7,156.1 402.9,156.1 404.1,156.1 405.3,156.1 406.4,156.1 407.6,156.1 408.8,156.1 410.0,156.1 411.2,156.1 412.4,156.1 413.6,156.1 414.7,156.1 415.9,156.1 417.1,156.1 418.3,156.1 419.5,156.1 420.7,156.1 421.9,156.1 423.1,156.1 424.2,156.1 425.4,156.1 426.6,156.1 427.8,156.1 429.0,156.1 430.2,156.1 431.4,156.1 432.5,156.1 433.7,156.1 434.9,156.1 436.1,156.1 437.3,156.1 438.5,156.1 439.7,156.1 440.9,156.1 442.0,156.1 443.2,156.1 444.4,156.1 445.6,156.1 446.8,156.1 448.0,156.1 449.2,156.1 450.3,156.1 451.5,156.1 452.7,156.1 453.9,156.1 455.1,156.1 456.3,156.1 457.5,156.1 458.7,156.1 459.8,156.1 461.0,156.1 462.2,156.1 463.4,156.1 464.6,156.1 465.8,156.1 467.0,156.1 468.1,156.1 469.3,156.1 470.5,156.1 471.7,156.1 472.9,156.1 474.1,156.1 475.3,156.1 476.5,156.1 477.6,156.1 478.8,156.1 480.0,156.1 481.2,156.1 482.4,156.1 483.6,156.1 484.8,156.1 485.9,156.1 487.1,156.1 488.3,156.1 489.5,156.1 490.7,156.1 491.9,156.1 493.1,156.1 494.3,156.1 495.4,156.1 496.6,156.1 497.8,156.1 499.0,156.1 500.2,156.1 501.4,156.1 502.6,156.1 503.7,156.1 504.9,156.1 506.1,156.1 507.3,156.1 508.5,156.1 509.7,156.1 510.9,156.1 512.1,156.1 513.2,156.1 514.4,156.1 515.6,156.1 516.8,156.1 518.0,156.1 519.2,156.1 520.4,156.1 521.5,156.1 522.7,156.1 523.9,156.1 525.1,156.1 526.3,156.1 527.5,156.1 528.7,156.1 529.9,156.1 531.0,156.1 532.2,156.1 533.4,156.1 534.6,156.1 535.8,156.1 537.0,156.1 538.2,156.1 539.3,156.1 540.5,156.1 541.7,156.1 542.9,156.1 544.1,156.1 545.3,156.1 546.5,156.1 547.7,156.1 548.8,156.1 550.0,156.1 551.2,156.1 552.4,156.1 553.6,156.1 554.8,156.1 556.0,156.1 557.1,156.1 558.3,156.1 559.5,156.1 560.7,156.1 561.9,156.1 563.1,156.1 564.3,156.1 565.5,156.1 566.6,156.1 567.8,156.1 569.0,156.1 570.2,156.1 571.4,156.1 572.6,156.1 573.8,156.1 574.9,156.1 576.1,156.1 577.3,156.1 578.5,156.1 579.7,156.1 580.9,156.1 582.1,156.1 583.3,156.1 584.4,156.1 585.6,156.1 586.8,156.1 588.0,156.1 589.2,156.1 590.4,156.1 591.6,156.1 592.7,156.1 593.9,156.1 595.1,156.1 596.3,156.1 597.5,156.1 598.7,156.1 599.9,156.1 601.1,156.1 602.2,156.1 603.4,156.1 604.6,156.1 605.8,156.1 607.0,156.1 608.2,156.1 609.4,156.1 610.5,156.1 611.7,156.1 612.9,156.1 614.1,156.1 615.3,156.1 616.5,156.1 617.7,156.1 618.9,156.1 620.0,156.1 621.2,156.1 622.4,156.1 623.6,156.1 624.8,156.1 626.0,156.1 627.2,156.1 628.3,156.1 629.5,156.1 630.7,156.1 631.9,156.1 633.1,156.1 634.3,156.1 635.5,156.1 636.7,156.1 637.8,156.1 639.0,156.1 640.2,156.1 641.4,156.1 642.6,156.1 643.8,156.1 645.0,156.1 646.1,156.1 647.3,156.1 648.5,156.1 649.7,156.1 650.9,156.1 652.1,156.1 653.3,156.1 654.5,156.1 655.6,156.1 656.8,156.1 658.0,156.1 659.2,156.1 660.4,156.1 661.6,156.1 662.8,156.1 663.9,156.1 665.1,156.1 666.3,156.1 667.5,156.1 668.7,156.1 669.9,156.1 671.1,156.1 672.3,156.1 673.4,156.1 674.6,156.1 675.8,156.1 677.0,156.1 678.2,156.1 679.4,156.1 680.6,156.1 681.7,156.1 682.9,156.1 684.1,156.1 685.3,156.1 686.5,156.1 687.7,156.1 688.9,156.1 690.1,156.1 691.2,156.1 692.4,156.1 693.6,156.1 694.8,156.1 696.0,156.1 697.2,156.1 698.4,156.1 699.5,156.1 700.7,156.1 701.9,156.1 703.1,156.1 704.3,156.1 705.5,156.1 706.7,156.1 707.9,156.1 709.0,156.1 710.2,156.1 711.4,156.1 712.6,156.1 713.8,156.1 715.0,156.1 716.2,156.1 717.3,156.1 718.5,156.1 719.7,156.1 720.9,156.1 722.1,156.1 723.3,156.1 724.5,156.1 725.7,156.1 726.8,156.1 728.0,156.1 729.2,156.1 730.4,156.1 731.6,156.1 732.8,156.1 734.0,156.1 735.1,156.1 736.3,156.1 737.5,156.1 738.7,156.1 739.9,156.1 741.1,156.1 742.3,156.1 743.5,156.1 744.6,156.1 745.8,156.1 747.0,156.1 748.2,156.1 749.4,156.1 750.6,156.1 751.8,156.1 752.9,156.1 754.1,156.1 755.3,156.1 756.5,156.1 757.7,156.1 758.9,156.1 760.1,156.1 761.3,156.1 762.4,156.1 763.6,156.1 764.8,156.1 766.0,156.1"/>
<line x1="606" y1="78" x2="628" y2="78" stroke="#da1e28" stroke-width="2.2"/>
<text x="634" y="82" font-family="Arial" font-size="12">r_dps</text>
</svg>