<svg xmlns="http://www.w3.org/2000/svg" width="820" height="320" viewBox="0 0 820 320">
<rect width="100%" height="100%" fill="#ffffff"/>
<text x="54" y="28" font-family="Arial" font-size="18" font-weight="700">GPS Altitude vs Truth</text>
<line x1="54" y1="266" x2="766" y2="266" stroke="#1f2933"/>
<line x1="54" y1="54" x2="54" y2="266" stroke="#1f2933"/>
<text x="54" y="306" font-family="Arial" font-size="12">time (s)</text>
<text x="596" y="306" font-family="Arial" font-size="12">altitude (m)</text>
<text x="58" y="68" font-family="Arial" font-size="11">333</text>
<text x="58" y="260" font-family="Arial" font-size="11">19.1</text>
<polyline fill="none" stroke="#0f62fe" stroke-width="2.2" points="54.0,265.4 55.2,265.2 56.4,265.1 57.6,264.9 58.7,264.8 59.9,264.7 61.1,264.5 62.3,264.4 63.5,264.3 64.7,264.1 65.9,264.0 67.1,263.9 68.2,263.8 69.4,263.6 70.6,263.5 71.8,263.4 73.0,263.3 74.2,263.2 75.4,263.1 76.5,263.0 77.7,262.9 78.9,262.8 80.1,262.7 81.3,262.6 82.5,262.5 83.7,262.4 84.9,262.3 86.0,262.2 87.2,262.2 88.4,262.1 89.6,262.0 90.8,261.9 92.0,261.8 93.2,261.8 94.3,261.7 95.5,261.6 96.7,261.5 97.9,261.5 99.1,261.4 100.3,261.3 101.5,261.3 102.7,261.2 103.8,261.1 105.0,261.1 106.2,261.0 107.4,261.0 108.6,260.9 109.8,260.9 111.0,260.8 112.1,260.8 113.3,260.7 114.5,260.6 115.7,260.6 116.9,260.6 118.1,260.5 119.3,260.5 120.5,260.4 121.6,260.4 122.8,260.3 124.0,260.3 125.2,260.2 126.4,260.2 127.6,260.2 128.8,260.1 129.9,260.1 131.1,260.0 132.3,260.0 133.5,260.0 134.7,259.9 135.9,259.9 137.1,259.9 138.3,259.8 139.4,259.8 140.6,259.8 141.8,259.7 143.0,259.7 144.2,259.7 145.4,259.6 146.6,259.6 147.7,259.6 148.9,259.5 150.1,259.5 151.3,259.5 152.5,259.4 153.7,259.4 154.9,259.4 156.1,259.3 157.2,259.3 158.4,259.3 159.6,259.2 160.8,259.2 162.0,259.2 163.2,259.1 164.4,259.1 165.5,259.1 166.7,259.0 167.9,259.0 169.1,258.9 170.3,258.9 171.5,258.9 172.7,258.8 173.9,258.8 175.0,258.8 176.2,258.7 177.4,258.7 178.6,258.6 179.8,258.6 181.0,258.5 182.2,258.5 183.3,258.5 184.5,258.4 185.7,258.4 186.9,258.3 188.1,258.3 189.3,258.2 190.5,258.2 191.7,258.1 192.8,258.0 194.0,258.0 195.2,257.9 196.4,257.9 197.6,257.8 198.8,257.7 200.0,257.7 201.1,257.6 202.3,257.5 203.5,257.4 204.7,257.4 205.9,257.3 207.1,257.2 208.3,257.1 209.5,257.0 210.6,257.0 211.8,256.9 213.0,256.8 214.2,256.7 215.4,256.6 216.6,256.5 217.8,256.4 218.9,256.3 220.1,256.2 221.3,256.1 222.5,256.0 223.7,255.9 224.9,255.8 226.1,255.6 227.3,255.5 228.4,255.4 229.6,255.3 230.8,255.2 232.0,255.0 233.2,254.9 234.4,254.8 235.6,254.6 236.7,254.5 237.9,254.3 239.1,254.2 240.3,254.0 241.5,253.9 242.7,253.7 243.9,253.6 245.1,253.4 246.2,253.3 247.4,253.1 248.6,252.9 249.8,252.8 251.0,252.6 252.2,252.4 253.4,252.2 254.5,252.0 255.7,251.9 256.9,251.7 258.1,251.5 259.3,251.3 260.5,251.1 261.7,250.9 262.9,250.7 264.0,250.5 265.2,250.3 266.4,250.0 267.6,249.8 268.8,249.6 270.0,249.4 271.2,249.2 272.3,248.9 273.5,248.7 274.7,248.5 275.9,248.2 277.1,248.0 278.3,247.7 279.5,247.5 280.7,247.2 281.8,247.0 283.0,246.7 284.2,246.5 285.4,246.2 286.6,246.0 287.8,245.7 289.0,245.4 290.1,245.1 291.3,244.9 292.5,244.6 293.7,244.3 294.9,244.0 296.1,243.7 297.3,243.5 298.5,243.2 299.6,242.9 300.8,242.6 302.0,242.3 303.2,242.0 304.4,241.7 305.6,241.3 306.8,241.0 307.9,240.7 309.1,240.4 310.3,240.1 311.5,239.7 312.7,239.4 313.9,239.1 315.1,238.8 316.3,238.4 317.4,238.1 318.6,237.7 319.8,237.4 321.0,237.1 322.2,236.7 323.4,236.4 324.6,236.0 325.7,235.6 326.9,235.3 328.1,234.9 329.3,234.5 330.5,234.2 331.7,233.8 332.9,233.4 334.1,233.0 335.2,232.6 336.4,232.2 337.6,231.8 338.8,231.4 340.0,231.0 341.2,230.6 342.4,230.2 343.5,229.8 344.7,229.4 345.9,228.9 347.1,228.5 348.3,228.1 349.5,227.6 350.7,227.2 351.9,226.8 353.0,226.3 354.2,225.9 355.4,225.4 356.6,225.0 357.8,224.5 359.0,224.0 360.2,223.6 361.3,223.1 362.5,222.6 363.7,222.1 364.9,221.7 366.1,221.2 367.3,220.7 368.5,220.2 369.7,219.7 370.8,219.2 372.0,218.7 373.2,218.2 374.4,217.7 375.6,217.2 376.8,216.7 378.0,216.2 379.1,215.7 380.3,215.2 381.5,214.6 382.7,214.1 383.9,213.6 385.1,213.1 386.3,212.6 387.5,212.0 388.6,211.5 389.8,211.0 391.0,210.5 392.2,209.9 393.4,209.4 394.6,208.9 395.8,208.3 396.9,207.8 398.1,207.3 399.3,206.7 400.5,206.2 401.7,205.6 402.9,205.1 404.1,204.6 405.3,204.0 406.4,203.5 407.6,202.9 408.8,202.4 410.0,201.8 411.2,201.3 412.4,200.7 413.6,200.2 414.7,199.6 415.9,199.1 417.1,198.5 418.3,198.0 419.5,197.4 420.7,196.9 421.9,196.3 423.1,195.8 424.2,195.2 425.4,194.6 426.6,194.1 427.8,193.5 429.0,193.0 430.2,192.4 431.4,191.8 432.5,191.3 433.7,190.7 434.9,190.2 436.1,189.6 437.3,189.0 438.5,188.5 439.7,187.9 440.9,187.3 442.0,186.8 443.2,186.2 444.4,185.6 445.6,185.1 446.8,184.5 448.0,183.9 449.2,183.4 450.3,182.8 451.5,182.2 452.7,181.7 453.9,181.1 455.1,180.5 456.3,180.0 457.5,179.4 458.7,178.8 459.8,178.3 461.0,177.7 462.2,177.1 463.4,176.5 464.6,176.0 465.8,175.4 467.0,174.8 468.1,174.3 469.3,173.7 470.5,173.1 471.7,172.5 472.9,172.0 474.1,171.4 475.3,170.8 476.5,170.2 477.6,169.7 478.8,169.1 480.0,168.5 481.2,167.9 482.4,167.4 483.6,166.8 484.8,166.2 485.9,165.6 487.1,165.1 488.3,164.5 489.5,163.9 490.7,163.3 491.9,162.8 493.1,162.2 494.3,161.6 495.4,161.0 496.6,160.5 497.8,159.9 499.0,159.3 500.2,158.7 501.4,158.2 502.6,157.6 503.7,157.0 504.9,156.4 506.1,155.9 507.3,155.3 508.5,154.7 509.7,154.1 510.9,153.5 512.1,153.0 513.2,152.4 514.4,151.8 515.6,151.2 516.8,150.7 518.0,150.1 519.2,149.5 520.4,148.9 521.5,148.3 522.7,147.8 523.9,147.2 525.1,146.6 526.3,146.0 527.5,145.5 528.7,144.9 529.9,144.3 531.0,143.7 532.2,143.1 533.4,142.6 534.6,142.0 535.8,141.4 537.0,140.8 538.2,140.3 539.3,139.7 540.5,139.1 541.7,138.5 542.9,137.9 544.1,137.4 545.3,136.8 546.5,136.2 547.7,135.6 548.8,135.0 550.0,134.5 551.2,133.9 552.4,133.3 553.6,132.7 554.8,132.2 556.0,131.6 557.1,131.0 558.3,130.4 559.5,129.8 560.7,129.3 561.9,128.7 563.1,128.1 564.3,127.5 565.5,127.0 566.6,126.4 567.8,125.8 569.0,125.2 570.2,124.6 571.4,124.1 572.6,123.5 573.8,122.9 574.9,122.4 576.1,121.8 577.3,121.2 578.5,120.7 579.7,120.1 580.9,119.5 582.1,119.0 583.3,118.4 584.4,117.9 585.6,117.3 586.8,116.8 588.0,116.2 589.2,115.7 590.4,115.1 591.6,114.6 592.7,114.1 593.9,113.5 595.1,113.0 596.3,112.5 597.5,111.9 598.7,111.4 599.9,110.9 601.1,110.3 602.2,109.8 603.4,109.3 604.6,108.8 605.8,108.3 607.0,107.7 608.2,107.2 609.4,106.7 610.5,106.2 611.7,105.7 612.9,105.2 614.1,104.7 615.3,104.2 616.5,103.7 617.7,103.2 618.9,102.7 620.0,102.2 621.2,101.7 622.4,101.2 623.6,100.7 624.8,100.2 626.0,99.7 627.2,99.3 628.3,98.8 629.5,98.3 630.7,97.8 631.9,97.3 633.1,96.9 634.3,96.4 635.5,95.9 636.7,95.4 637.8,95.0 639.0,94.5 640.2,94.0 641.4,93.6 642.6,93.1 643.8,92.7 645.0,92.2 646.1,91.7 647.3,91.3 648.5,90.8 649.7,90.4 650.9,89.9 652.1,89.5 653.3,89.0 654.5,88.6 655.6,88.2 656.8,87.7 658.0,87.3 659.2,86.8 660.4,86.4 661.6,86.0 662.8,85.5 663.9,85.1 665.1,84.7 666.3,84.3 667.5,83.8 668.7,83.4 669.9,83.0 671.1,82.6 672.3,82.1 673.4,81.7 674.6,81.3 675.8,80.9 677.0,80.5 678.2,80.1 679.4,79.7 680.6,79.3 681.7,78.9 682.9,78.5 684.1,78.1 685.3,77.7 686.5,77.3 687.7,76.9 688.9,76.5 690.1,76.1 691.2,75.7 692.4,75.3 693.6,74.9 694.8,74.5 696.0,74.1 697.2,73.7 698.4,73.4 699.5,73.0 700.7,72.6 701.9,72.2 703.1,71.8 704.3,71.5 705.5,71.1 706.7,70.7 707.9,70.4 709.0,70.0 710.2,69.6 711.4,69.2 712.6,68.9 713.8,68.5 715.0,68.2 716.2,67.8 717.3,67.4 718.5,67.1 719.7,66.7 720.9,66.4 722.1,66.0 723.3,65.7 724.5,65.3 725.7,65.0 726.8,64.6 728.0,64.3 729.2,63.9 730.4,63.6 731.6,63.3 732.8,62.9 734.0,62.6 735.1,62.2 736.3,61.9 737.5,61.6 738.7,61.2 739.9,60.9 741.1,60.6 742.3,60.3 743.5,59.9 744.6,59.6 745.8,59.3 747.0,59.0 748.2,58.6 749.4,58.3 750.6,58.0 751.8,57.7 752.9,57.4 754.1,57.1 755.3,56.7 756.5,56.4 757.7,56.1 758.9,55.8 760.1,55.5 761.3,55.2 762.4,54.9 763.6,54.6 764.8,54.3 766.0,54.0"/>
<line x1="606" y1="42" x2="628" y2="42" stroke="#0f62fe" stroke-width="2.2"/>
<text x="634" y="46" font-family="Arial" font-size="12">altitude_m</text>
<polyline fill="none" stroke="#24a148" stroke-width="2.2" points="54.0,264.6 55.2,264.6 56.4,264.6 57.6,264.6 58.7,264.6 59.9,264.6 61.1,264.6 62.3,266.0 63.5,266.0 64.7,266.0 65.9,266.0 67.1,266.0 68.2,266.0 69.4,266.0 70.6,263.9 71.8,263.9 73.0,263.9 74.2,263.9 75.4,263.9 76.5,263.9 77.7,263.9 78.9,263.5 80.1,263.5 81.3,263.5 82.5,263.5 83.7,263.5 84.9,263.5 86.0,263.5 87.2,263.0 88.4,263.0 89.6,263.0 90.8,263.0 92.0,263.0 93.2,263.0 94.3,263.0 95.5,260.7 96.7,260.7 97.9,260.7 99.1,260.7 100.3,260.7 101.5,260.7 102.7,260.7 103.8,261.3 105.0,261.3 106.2,261.3 107.4,261.3 108.6,261.3 109.8,261.3 111.0,261.3 112.1,259.5 113.3,259.5 114.5,259.5 115.7,259.5 116.9,259.5 118.1,259.5 119.3,259.5 120.5,260.7 121.6,260.7 122.8,260.7 124.0,260.7 125.2,260.7 126.4,260.7 127.6,260.7 128.8,260.3 129.9,260.3 131.1,260.3 132.3,260.3 133.5,260.3 134.7,260.3 135.9,260.3 137.1,259.2 138.3,259.2 139.4,259.2 140.6,259.2 141.8,259.2 143.0,259.2 144.2,259.2 145.4,260.7 146.6,260.7 147.7,260.7 148.9,260.7 150.1,260.7 151.3,260.7 152.5,260.7 153.7,261.8 154.9,261.8 156.1,261.8 157.2,261.8 158.4,261.8 159.6,261.8 160.8,261.8 162.0,259.9 163.2,259.9 164.4,259.9 165.5,259.9 166.7,259.9 167.9,259.9 169.1,259.9 170.3,258.2 171.5,258.2 172.7,258.2 173.9,258.2 175.0,258.2 176.2,258.2 177.4,258.2 178.6,258.8 179.8,258.8 181.0,258.8 182.2,258.8 183.3,258.8 184.5,258.8 185.7,258.8 186.9,256.9 188.1,256.9 189.3,256.9 190.5,256.9 191.7,256.9 192.8,256.9 194.0,256.9 195.2,257.0 196.4,257.0 197.6,257.0 198.8,257.0 200.0,257.0 201.1,257.0 202.3,257.0 203.5,257.7 204.7,257.7 205.9,257.7 207.1,257.7 208.3,257.7 209.5,257.7 210.6,257.7 211.8,255.9 213.0,255.9 214.2,255.9 215.4,255.9 216.6,255.9 217.8,255.9 218.9,255.9 220.1,255.9 221.3,255.9 222.5,255.9 223.7,255.9 224.9,255.9 226.1,255.9 227.3,255.9 228.4,255.5 229.6,255.5 230.8,255.5 232.0,255.5 233.2,255.5 234.4,255.5 235.6,255.5 236.7,255.0 237.9,255.0 239.1,255.0 240.3,255.0 241.5,255.0 242.7,255.0 243.9,255.0 245.1,254.0 246.2,254.0 247.4,254.0 248.6,254.0 249.8,254.0 251.0,254.0 252.2,254.0 253.4,252.9 254.5,252.9 255.7,252.9 256.9,252.9 258.1,252.9 259.3,252.9 260.5,252.9 261.7,249.1 262.9,249.1 264.0,249.1 265.2,249.1 266.4,249.1 267.6,249.1 268.8,249.1 270.0,249.1 271.2,249.1 272.3,249.1 273.5,249.1 274.7,249.1 275.9,249.1 277.1,249.1 278.3,248.0 279.5,248.0 280.7,248.0 281.8,248.0 283.0,248.0 284.2,248.0 285.4,248.0 286.6,246.6 287.8,246.6 289.0,246.6 290.1,246.6 291.3,246.6 292.5,246.6 293.7,246.6 294.9,243.8 296.1,243.8 297.3,243.8 298.5,243.8 299.6,243.8 300.8,243.8 302.0,243.8 303.2,241.9 304.4,241.9 305.6,241.9 306.8,241.9 307.9,241.9 309.1,241.9 310.3,241.9 311.5,239.0 312.7,239.0 313.9,239.0 315.1,239.0 316.3,239.0 317.4,239.0 318.6,239.0 319.8,237.7 321.0,237.7 322.2,237.7 323.4,237.7 324.6,237.7 325.7,237.7 326.9,237.7 328.1,235.8 329.3,235.8 330.5,235.8 331.7,235.8 332.9,235.8 334.1,235.8 335.2,235.8 336.4,232.3 337.6,232.3 338.8,232.3 340.0,232.3 341.2,232.3 342.4,232.3 343.5,232.3 344.7,229.5 345.9,229.5 347.1,229.5 348.3,229.5 349.5,229.5 350.7,229.5 351.9,229.5 353.0,226.7 354.2,226.7 355.4,226.7 356.6,226.7 357.8,226.7 359.0,226.7 360.2,226.7 361.3,224.9 362.5,224.9 363.7,224.9 364.9,224.9 366.1,224.9 367.3,224.9 368.5,224.9 369.7,218.9 370.8,218.9 372.0,218.9 373.2,218.9 374.4,218.9 375.6,218.9 376.8,218.9 378.0,216.5 379.1,216.5 380.3,216.5 381.5,216.5 382.7,216.5 383.9,216.5 385.1,216.5 386.3,212.3 387.5,212.3 388.6,212.3 389.8,212.3 391.0,212.3 392.2,212.3 393.4,212.3 394.6,208.2 395.8,208.2 396.9,208.2 398.1,208.2 399.3,208.2 400.5,208.2 401.7,208.2 402.9,205.9 404.1,205.9 405.3,205.9 406.4,205.9 407.6,205.9 408.8,205.9 410.0,205.9 411.2,201.8 412.4,201.8 413.6,201.8 414.7,201.8 415.9,201.8 417.1,201.8 418.3,201.8 419.5,197.4 420.7,197.4 421.9,197.4 423.1,197.4 424.2,197.4 425.4,197.4 426.6,197.4 427.8,192.4 429.0,192.4 430.2,192.4 431.4,192.4 432.5,192.4 433.7,192.4 434.9,192.4 436.1,191.3 437.3,191.3 438.5,191.3 439.7,191.3 440.9,191.3 442.0,191.3 443.2,191.3 444.4,187.0 445.6,187.0 446.8,187.0 448.0,187.0 449.2,187.0 450.3,187.0 451.5,187.0 452.7,181.3 453.9,181.3 455.1,181.3 456.3,181.3 457.5,181.3 458.7,181.3 459.8,181.3 461.0,177.1 462.2,177.1 463.4,177.1 464.6,177.1 465.8,177.1 467.0,177.1 468.1,177.1 469.3,173.8 470.5,173.8 471.7,173.8 472.9,173.8 474.1,173.8 475.3,173.8 476.5,173.8 477.6,170.3 478.8,170.3 480.0,170.3 481.2,170.3 482.4,170.3 483.6,170.3 484.8,170.3 485.9,164.3 487.1,164.3 488.3,164.3 489.5,164.3 490.7,164.3 491.9,164.3 493.1,164.3 494.3,160.7 495.4,160.7 496.6,160.7 497.8,160.7 499.0,160.7 500.2,160.7 501.4,160.7 502.6,157.2 503.7,157.2 504.9,157.2 506.1,157.2 507.3,157.2 508.5,157.2 509.7,157.2 510.9,154.8 512.1,154.8 513.2,154.8 514.4,154.8 515.6,154.8 516.8,154.8 518.0,154.8 519.2,150.4 520.4,150.4 521.5,150.4 522.7,150.4 523.9,150.4 525.1,150.4 526.3,150.4 527.5,145.7 528.7,145.7 529.9,145.7 531.0,145.7 532.2,145.7 533.4,145.7 534.6,145.7 535.8,142.3 537.0,142.3 538.2,142.3 539.3,142.3 540.5,142.3 541.7,142.3 542.9,142.3 544.1,137.9 545.3,137.9 546.5,137.9 547.7,137.9 548.8,137.9 550.0,137.9 551.2,137.9 552.4,132.8 553.6,132.8 554.8,132.8 556.0,132.8 557.1,132.8 558.3,132.8 559.5,132.8 560.7,129.0 561.9,129.0 563.1,129.0 564.3,129.0 565.5,129.0 566.6,129.0 567.8,129.0 569.0,124.9 570.2,124.9 571.4,124.9 572.6,124.9 573.8,124.9 574.9,124.9 576.1,124.9 577.3,120.8 578.5,120.8 579.7,120.8 580.9,120.8 582.1,120.8 583.3,120.8 584.4,120.8 585.6,119.6 586.8,119.6 588.0,119.6 589.2,119.6 590.4,119.6 591.6,119.6 592.7,119.6 593.9,113.1 595.1,113.1 596.3,113.1 597.5,113.1 598.7,113.1 599.9,113.1 601.1,113.1 602.2,109.4 603.4,109.4 604.6,109.4 605.8,109.4 607.0,109.4 608.2,109.4 609.4,109.4 610.5,105.7 611.7,105.7 612.9,105.7 614.1,105.7 615.3,105.7 616.5,105.7 617.7,105.7 618.9,103.2 620.0,103.2 621.2,103.2 622.4,103.2 623.6,103.2 624.8,103.2 626.0,103.2 627.2,98.6 628.3,98.6 629.5,98.6 630.7,98.6 631.9,98.6 633.1,98.6 634.3,98.6 635.5,97.9 636.7,97.9 637.8,97.9 639.0,97.9 640.2,97.9 641.4,97.9 642.6,97.9 643.8,91.5 645.0,91.5 646.1,91.5 647.3,91.5 648.5,91.5 649.7,91.5 650.9,91.5 652.1,89.1 653.3,89.1 654.5,89.1 655.6,89.1 656.8,89.1 658.0,89.1 659.2,89.1 660.4,86.2 661.6,86.2 662.8,86.2 663.9,86.2 665.1,86.2 666.3,86.2 667.5,86.2 668.7,82.6 669.9,82.6 671.1,82.6 672.3,82.6 673.4,82.6 674.6,82.6 675.8,82.6 677.0,80.1 678.2,80.1 679.4,80.1 680.6,80.1 681.7,80.1 682.9,80.1 684.1,80.1 685.3,77.8 686.5,77.8 687.7,77.8 688.9,77.8 690.1,77.8 691.2,77.8 692.4,77.8 693.6,74.3 694.8,74.3 696.0,74.3 697.2,74.3 698.4,74.3 699.5,74.3 700.7,74.3 701.9,73.8 703.1,73.8 704.3,73.8 705.5,73.8 706.7,73.8 707.9,73.8 709.0,73.8 710.2,69.5 711.4,69.5 712.6,69.5 713.8,69.5 715.0,69.5 716.2,69.5 717.3,69.5 718.5,66.4 719.7,66.4 720.9,66.4 722.1,66.4 723.3,66.4 724.5,66.4 725.7,66.4 726.8,64.1 728.0,64.1 729.2,64.1 730.4,64.1 731.6,64.1 732.8,64.1 734.0,64.1 735.1,62.3 736.3,62.3 737.5,62.3 738.7,62.3 739.9,62.3 741.1,62.3 742.3,62.3 743.5,59.7 744.6,59.7 745.8,59.7 747.0,59.7 748.2,59.7 749.4,59.7 750.6,59.7 751.8,57.3 752.9,57.3 754.1,57.3 755.3,57.3 756.5,57.3 757.7,57.3 758.9,57.3 760.1,54.9 761.3,54.9 762.4,54.9 763.6,54.9 764.8,54.9 766.0,54.9"/>
<line x1="606" y1="60" x2="628" y2="60" stroke="#24a148" stroke-width="2.2"/>
<text x="634" y="64" font-family="Arial" font-size="12">gps_z_m</text>
</svg>