<svg xmlns="http://www.w3.org/2000/svg" width="820" height="320" viewBox="0 0 820 320">
<rect width="100%" height="100%" fill="#ffffff"/>
<text x="54" y="28" font-family="Arial" font-size="18" font-weight="700">Barometer vs Truth</text>
<line x1="54" y1="266" x2="766" y2="266" stroke="#1f2933"/>
<line x1="54" y1="54" x2="54" y2="266" stroke="#1f2933"/>
<text x="54" y="306" font-family="Arial" font-size="12">time (s)</text>
<text x="596" y="306" font-family="Arial" font-size="12">altitude (m)</text>
<text x="58" y="68" font-family="Arial" font-size="11">333</text>
<text x="58" y="260" font-family="Arial" font-size="11">20</text>
<polyline fill="none" stroke="#0f62fe" stroke-width="2.2" points="54.0,266.0 55.2,265.8 56.4,265.7 57.6,265.5 58.7,265.4 59.9,265.3 61.1,265.1 62.3,265.0 63.5,264.8 64.7,264.7 65.9,264.6 67.1,264.5 68.2,264.4 69.4,264.2 70.6,264.1 71.8,264.0 73.0,263.9 74.2,263.8 75.4,263.7 76.5,263.6 77.7,263.5 78.9,263.4 80.1,263.3 81.3,263.2 82.5,263.1 83.7,263.0 84.9,262.9 86.0,262.8 87.2,262.7 88.4,262.7 89.6,262.6 90.8,262.5 92.0,262.4 93.2,262.3 94.3,262.3 95.5,262.2 96.7,262.1 97.9,262.1 99.1,262.0 100.3,261.9 101.5,261.9 102.7,261.8 103.8,261.7 105.0,261.7 106.2,261.6 107.4,261.6 108.6,261.5 109.8,261.4 111.0,261.4 112.1,261.3 113.3,261.3 114.5,261.2 115.7,261.2 116.9,261.1 118.1,261.1 119.3,261.0 120.5,261.0 121.6,261.0 122.8,260.9 124.0,260.9 125.2,260.8 126.4,260.8 127.6,260.7 128.8,260.7 129.9,260.7 131.1,260.6 132.3,260.6 133.5,260.5 134.7,260.5 135.9,260.5 137.1,260.4 138.3,260.4 139.4,260.4 140.6,260.3 141.8,260.3 143.0,260.3 144.2,260.2 145.4,260.2 146.6,260.2 147.7,260.1 148.9,260.1 150.1,260.1 151.3,260.0 152.5,260.0 153.7,260.0 154.9,259.9 156.1,259.9 157.2,259.9 158.4,259.8 159.6,259.8 160.8,259.8 162.0,259.7 163.2,259.7 164.4,259.7 165.5,259.6 166.7,259.6 167.9,259.6 169.1,259.5 170.3,259.5 171.5,259.5 172.7,259.4 173.9,259.4 175.0,259.3 176.2,259.3 177.4,259.3 178.6,259.2 179.8,259.2 181.0,259.1 182.2,259.1 183.3,259.0 184.5,259.0 185.7,258.9 186.9,258.9 188.1,258.8 189.3,258.8 190.5,258.7 191.7,258.7 192.8,258.6 194.0,258.6 195.2,258.5 196.4,258.4 197.6,258.4 198.8,258.3 200.0,258.2 201.1,258.2 202.3,258.1 203.5,258.0 204.7,257.9 205.9,257.9 207.1,257.8 208.3,257.7 209.5,257.6 210.6,257.5 211.8,257.5 213.0,257.4 214.2,257.3 215.4,257.2 216.6,257.1 217.8,257.0 218.9,256.9 220.1,256.8 221.3,256.7 222.5,256.6 223.7,256.4 224.9,256.3 226.1,256.2 227.3,256.1 228.4,256.0 229.6,255.9 230.8,255.7 232.0,255.6 233.2,255.5 234.4,255.3 235.6,255.2 236.7,255.1 237.9,254.9 239.1,254.8 240.3,254.6 241.5,254.5 242.7,254.3 243.9,254.1 245.1,254.0 246.2,253.8 247.4,253.7 248.6,253.5 249.8,253.3 251.0,253.1 252.2,253.0 253.4,252.8 254.5,252.6 255.7,252.4 256.9,252.2 258.1,252.0 259.3,251.8 260.5,251.6 261.7,251.4 262.9,251.2 264.0,251.0 265.2,250.8 266.4,250.6 267.6,250.4 268.8,250.2 270.0,249.9 271.2,249.7 272.3,249.5 273.5,249.3 274.7,249.0 275.9,248.8 277.1,248.5 278.3,248.3 279.5,248.1 280.7,247.8 281.8,247.6 283.0,247.3 284.2,247.0 285.4,246.8 286.6,246.5 287.8,246.2 289.0,246.0 290.1,245.7 291.3,245.4 292.5,245.1 293.7,244.9 294.9,244.6 296.1,244.3 297.3,244.0 298.5,243.7 299.6,243.4 300.8,243.1 302.0,242.8 303.2,242.5 304.4,242.2 305.6,241.9 306.8,241.6 307.9,241.2 309.1,240.9 310.3,240.6 311.5,240.3 312.7,240.0 313.9,239.6 315.1,239.3 316.3,239.0 317.4,238.6 318.6,238.3 319.8,237.9 321.0,237.6 322.2,237.2 323.4,236.9 324.6,236.5 325.7,236.2 326.9,235.8 328.1,235.4 329.3,235.1 330.5,234.7 331.7,234.3 332.9,233.9 334.1,233.5 335.2,233.2 336.4,232.8 337.6,232.4 338.8,232.0 340.0,231.6 341.2,231.1 342.4,230.7 343.5,230.3 344.7,229.9 345.9,229.5 347.1,229.0 348.3,228.6 349.5,228.2 350.7,227.7 351.9,227.3 353.0,226.8 354.2,226.4 355.4,225.9 356.6,225.5 357.8,225.0 359.0,224.5 360.2,224.1 361.3,223.6 362.5,223.1 363.7,222.6 364.9,222.2 366.1,221.7 367.3,221.2 368.5,220.7 369.7,220.2 370.8,219.7 372.0,219.2 373.2,218.7 374.4,218.2 375.6,217.7 376.8,217.2 378.0,216.7 379.1,216.2 380.3,215.6 381.5,215.1 382.7,214.6 383.9,214.1 385.1,213.6 386.3,213.0 387.5,212.5 388.6,212.0 389.8,211.5 391.0,210.9 392.2,210.4 393.4,209.9 394.6,209.3 395.8,208.8 396.9,208.3 398.1,207.7 399.3,207.2 400.5,206.6 401.7,206.1 402.9,205.6 404.1,205.0 405.3,204.5 406.4,203.9 407.6,203.4 408.8,202.8 410.0,202.3 411.2,201.7 412.4,201.2 413.6,200.6 414.7,200.1 415.9,199.5 417.1,199.0 418.3,198.4 419.5,197.9 420.7,197.3 421.9,196.8 423.1,196.2 424.2,195.6 425.4,195.1 426.6,194.5 427.8,194.0 429.0,193.4 430.2,192.8 431.4,192.3 432.5,191.7 433.7,191.2 434.9,190.6 436.1,190.0 437.3,189.5 438.5,188.9 439.7,188.3 440.9,187.8 442.0,187.2 443.2,186.6 444.4,186.1 445.6,185.5 446.8,184.9 448.0,184.4 449.2,183.8 450.3,183.2 451.5,182.7 452.7,182.1 453.9,181.5 455.1,180.9 456.3,180.4 457.5,179.8 458.7,179.2 459.8,178.7 461.0,178.1 462.2,177.5 463.4,176.9 464.6,176.4 465.8,175.8 467.0,175.2 468.1,174.7 469.3,174.1 470.5,173.5 471.7,172.9 472.9,172.4 474.1,171.8 475.3,171.2 476.5,170.6 477.6,170.1 478.8,169.5 480.0,168.9 481.2,168.3 482.4,167.8 483.6,167.2 484.8,166.6 485.9,166.0 487.1,165.5 488.3,164.9 489.5,164.3 490.7,163.7 491.9,163.1 493.1,162.6 494.3,162.0 495.4,161.4 496.6,160.8 497.8,160.3 499.0,159.7 500.2,159.1 501.4,158.5 502.6,157.9 503.7,157.4 504.9,156.8 506.1,156.2 507.3,155.6 508.5,155.1 509.7,154.5 510.9,153.9 512.1,153.3 513.2,152.7 514.4,152.2 515.6,151.6 516.8,151.0 518.0,150.4 519.2,149.8 520.4,149.3 521.5,148.7 522.7,148.1 523.9,147.5 525.1,147.0 526.3,146.4 527.5,145.8 528.7,145.2 529.9,144.6 531.0,144.1 532.2,143.5 533.4,142.9 534.6,142.3 535.8,141.7 537.0,141.2 538.2,140.6 539.3,140.0 540.5,139.4 541.7,138.8 542.9,138.3 544.1,137.7 545.3,137.1 546.5,136.5 547.7,135.9 548.8,135.4 550.0,134.8 551.2,134.2 552.4,133.6 553.6,133.0 554.8,132.5 556.0,131.9 557.1,131.3 558.3,130.7 559.5,130.1 560.7,129.6 561.9,129.0 563.1,128.4 564.3,127.8 565.5,127.2 566.6,126.7 567.8,126.1 569.0,125.5 570.2,124.9 571.4,124.4 572.6,123.8 573.8,123.2 574.9,122.6 576.1,122.1 577.3,121.5 578.5,120.9 579.7,120.4 580.9,119.8 582.1,119.3 583.3,118.7 584.4,118.2 585.6,117.6 586.8,117.1 588.0,116.5 589.2,116.0 590.4,115.4 591.6,114.9 592.7,114.3 593.9,113.8 595.1,113.3 596.3,112.7 597.5,112.2 598.7,111.7 599.9,111.1 601.1,110.6 602.2,110.1 603.4,109.6 604.6,109.0 605.8,108.5 607.0,108.0 608.2,107.5 609.4,107.0 610.5,106.5 611.7,105.9 612.9,105.4 614.1,104.9 615.3,104.4 616.5,103.9 617.7,103.4 618.9,102.9 620.0,102.4 621.2,101.9 622.4,101.4 623.6,100.9 624.8,100.5 626.0,100.0 627.2,99.5 628.3,99.0 629.5,98.5 630.7,98.0 631.9,97.6 633.1,97.1 634.3,96.6 635.5,96.1 636.7,95.7 637.8,95.2 639.0,94.7 640.2,94.3 641.4,93.8 642.6,93.3 643.8,92.9 645.0,92.4 646.1,92.0 647.3,91.5 648.5,91.1 649.7,90.6 650.9,90.1 652.1,89.7 653.3,89.3 654.5,88.8 655.6,88.4 656.8,87.9 658.0,87.5 659.2,87.0 660.4,86.6 661.6,86.2 662.8,85.7 663.9,85.3 665.1,84.9 666.3,84.5 667.5,84.0 668.7,83.6 669.9,83.2 671.1,82.8 672.3,82.3 673.4,81.9 674.6,81.5 675.8,81.1 677.0,80.7 678.2,80.3 679.4,79.9 680.6,79.5 681.7,79.1 682.9,78.6 684.1,78.2 685.3,77.8 686.5,77.4 687.7,77.0 688.9,76.6 690.1,76.3 691.2,75.9 692.4,75.5 693.6,75.1 694.8,74.7 696.0,74.3 697.2,73.9 698.4,73.5 699.5,73.2 700.7,72.8 701.9,72.4 703.1,72.0 704.3,71.6 705.5,71.3 706.7,70.9 707.9,70.5 709.0,70.2 710.2,69.8 711.4,69.4 712.6,69.1 713.8,68.7 715.0,68.3 716.2,68.0 717.3,67.6 718.5,67.2 719.7,66.9 720.9,66.5 722.1,66.2 723.3,65.8 724.5,65.5 725.7,65.1 726.8,64.8 728.0,64.4 729.2,64.1 730.4,63.8 731.6,63.4 732.8,63.1 734.0,62.7 735.1,62.4 736.3,62.1 737.5,61.7 738.7,61.4 739.9,61.1 741.1,60.7 742.3,60.4 743.5,60.1 744.6,59.8 745.8,59.4 747.0,59.1 748.2,58.8 749.4,58.5 750.6,58.2 751.8,57.8 752.9,57.5 754.1,57.2 755.3,56.9 756.5,56.6 757.7,56.3 758.9,56.0 760.1,55.7 761.3,55.3 762.4,55.0 763.6,54.7 764.8,54.4 766.0,54.1"/>
<line x1="606" y1="42" x2="628" y2="42" stroke="#0f62fe" stroke-width="2.2"/>
<text x="634" y="46" font-family="Arial" font-size="12">altitude_m</text>
<polyline fill="none" stroke="#24a148" stroke-width="2.2" points="54.0,265.5 55.2,265.5 56.4,265.8 57.6,265.8 58.7,265.6 59.9,265.6 61.1,264.4 62.3,264.4 63.5,265.1 64.7,265.1 65.9,264.7 67.1,264.7 68.2,264.8 69.4,264.8 70.6,264.3 71.8,264.3 73.0,263.8 74.2,263.8 75.4,263.6 76.5,263.6 77.7,263.2 78.9,263.2 80.1,264.3 81.3,264.3 82.5,262.5 83.7,262.5 84.9,263.7 86.0,263.7 87.2,263.5 88.4,263.5 89.6,262.6 90.8,262.6 92.0,262.9 93.2,262.9 94.3,262.2 95.5,262.2 96.7,262.4 97.9,262.4 99.1,262.2 100.3,262.2 101.5,262.0 102.7,262.0 103.8,261.5 105.0,261.5 106.2,261.9 107.4,261.9 108.6,261.7 109.8,261.7 111.0,260.9 112.1,260.9 113.3,260.8 114.5,260.8 115.7,260.9 116.9,260.9 118.1,261.4 119.3,261.4 120.5,261.0 121.6,261.0 122.8,261.4 124.0,261.4 125.2,261.0 126.4,261.0 127.6,260.5 128.8,260.5 129.9,260.7 131.1,260.7 132.3,260.9 133.5,260.9 134.7,260.7 135.9,260.7 137.1,261.1 138.3,261.1 139.4,260.3 140.6,260.3 141.8,260.9 143.0,260.9 144.2,260.7 145.4,260.7 146.6,260.2 147.7,260.2 148.9,260.0 150.1,260.0 151.3,260.0 152.5,260.0 153.7,259.7 154.9,259.7 156.1,259.7 157.2,259.7 158.4,259.6 159.6,259.6 160.8,259.5 162.0,259.5 163.2,259.3 164.4,259.3 165.5,259.8 166.7,259.8 167.9,260.0 169.1,260.0 170.3,259.2 171.5,259.2 172.7,259.5 173.9,259.5 175.0,258.8 176.2,258.8 177.4,259.0 178.6,259.0 179.8,258.9 181.0,258.9 182.2,258.9 183.3,258.9 184.5,258.4 185.7,258.4 186.9,258.9 188.1,258.9 189.3,258.9 190.5,258.9 191.7,258.8 192.8,258.8 194.0,258.6 195.2,258.6 196.4,258.7 197.6,258.7 198.8,257.6 200.0,257.6 201.1,258.2 202.3,258.2 203.5,258.6 204.7,258.6 205.9,257.4 207.1,257.4 208.3,257.2 209.5,257.2 210.6,257.2 211.8,257.2 213.0,257.5 214.2,257.5 215.4,256.7 216.6,256.7 217.8,256.8 218.9,256.8 220.1,257.3 221.3,257.3 222.5,257.4 223.7,257.4 224.9,256.8 226.1,256.8 227.3,256.0 228.4,256.0 229.6,255.6 230.8,255.6 232.0,255.3 233.2,255.3 234.4,255.2 235.6,255.2 236.7,255.1 237.9,255.1 239.1,254.9 240.3,254.9 241.5,253.9 242.7,253.9 243.9,253.6 245.1,253.6 246.2,254.0 247.4,254.0 248.6,253.7 249.8,253.7 251.0,253.2 252.2,253.2 253.4,253.1 254.5,253.1 255.7,252.8 256.9,252.8 258.1,251.5 259.3,251.5 260.5,251.8 261.7,251.8 262.9,251.1 264.0,251.1 265.2,251.3 266.4,251.3 267.6,250.5 268.8,250.5 270.0,249.9 271.2,249.9 272.3,249.0 273.5,249.0 274.7,248.6 275.9,248.6 277.1,248.4 278.3,248.4 279.5,248.4 280.7,248.4 281.8,247.9 283.0,247.9 284.2,247.1 285.4,247.1 286.6,246.4 287.8,246.4 289.0,245.1 290.1,245.1 291.3,245.9 292.5,245.9 293.7,244.8 294.9,244.8 296.1,244.1 297.3,244.1 298.5,244.1 299.6,244.1 300.8,243.3 302.0,243.3 303.2,243.2 304.4,243.2 305.6,241.9 306.8,241.9 307.9,241.3 309.1,241.3 310.3,240.6 311.5,240.6 312.7,240.5 313.9,240.5 315.1,239.3 316.3,239.3 317.4,238.9 318.6,238.9 319.8,237.9 321.0,237.9 322.2,237.0 323.4,237.0 324.6,236.1 325.7,236.1 326.9,235.6 328.1,235.6 329.3,235.2 330.5,235.2 331.7,234.6 332.9,234.6 334.1,233.7 335.2,233.7 336.4,233.2 337.6,233.2 338.8,232.3 340.0,232.3 341.2,231.0 342.4,231.0 343.5,229.3 344.7,229.3 345.9,229.5 347.1,229.5 348.3,228.8 349.5,228.8 350.7,227.6 351.9,227.6 353.0,226.7 354.2,226.7 355.4,226.0 356.6,226.0 357.8,225.0 359.0,225.0 360.2,222.8 361.3,222.8 362.5,223.3 363.7,223.3 364.9,221.7 366.1,221.7 367.3,221.5 368.5,221.5 369.7,220.0 370.8,220.0 372.0,219.4 373.2,219.4 374.4,218.5 375.6,218.5 376.8,217.2 378.0,217.2 379.1,215.9 380.3,215.9 381.5,215.1 382.7,215.1 383.9,214.2 385.1,214.2 386.3,212.7 387.5,212.7 388.6,212.3 389.8,212.3 391.0,210.9 392.2,210.9 393.4,209.6 394.6,209.6 395.8,208.7 396.9,208.7 398.1,207.3 399.3,207.3 400.5,207.0 401.7,207.0 402.9,205.9 404.1,205.9 405.3,204.7 406.4,204.7 407.6,203.3 408.8,203.3 410.0,202.6 411.2,202.6 412.4,200.8 413.6,200.8 414.7,199.8 415.9,199.8 417.1,198.6 418.3,198.6 419.5,198.1 420.7,198.1 421.9,196.7 423.1,196.7 424.2,196.3 425.4,196.3 426.6,194.7 427.8,194.7 429.0,193.4 430.2,193.4 431.4,192.7 432.5,192.7 433.7,191.3 434.9,191.3 436.1,190.3 437.3,190.3 438.5,189.0 439.7,189.0 440.9,188.0 442.0,188.0 443.2,186.8 444.4,186.8 445.6,186.3 446.8,186.3 448.0,184.5 449.2,184.5 450.3,183.1 451.5,183.1 452.7,182.7 453.9,182.7 455.1,180.9 456.3,180.9 457.5,180.1 458.7,180.1 459.8,178.9 461.0,178.9 462.2,177.3 463.4,177.3 464.6,176.6 465.8,176.6 467.0,174.9 468.1,174.9 469.3,174.6 470.5,174.6 471.7,172.4 472.9,172.4 474.1,171.9 475.3,171.9 476.5,171.3 477.6,171.3 478.8,169.7 480.0,169.7 481.2,168.0 482.4,168.0 483.6,167.6 484.8,167.6 485.9,165.1 487.1,165.1 488.3,164.7 489.5,164.7 490.7,163.6 491.9,163.6 493.1,162.5 494.3,162.5 495.4,161.5 496.6,161.5 497.8,160.5 499.0,160.5 500.2,158.7 501.4,158.7 502.6,158.1 503.7,158.1 504.9,156.8 506.1,156.8 507.3,155.3 508.5,155.3 509.7,154.1 510.9,154.1 512.1,152.9 513.2,152.9 514.4,152.3 515.6,152.3 516.8,151.1 518.0,151.1 519.2,150.3 520.4,150.3 521.5,149.0 522.7,149.0 523.9,147.4 525.1,147.4 526.3,145.5 527.5,145.5 528.7,144.5 529.9,144.5 531.0,143.6 532.2,143.6 533.4,142.8 534.6,142.8 535.8,141.3 537.0,141.3 538.2,140.6 539.3,140.6 540.5,139.5 541.7,139.5 542.9,137.9 544.1,137.9 545.3,136.8 546.5,136.8 547.7,135.7 548.8,135.7 550.0,134.4 551.2,134.4 552.4,133.3 553.6,133.3 554.8,132.4 556.0,132.4 557.1,130.9 558.3,130.9 559.5,130.5 560.7,130.5 561.9,129.1 563.1,129.1 564.3,127.7 565.5,127.7 566.6,126.3 567.8,126.3 569.0,125.6 570.2,125.6 571.4,124.8 572.6,124.8 573.8,123.0 574.9,123.0 576.1,122.4 577.3,122.4 578.5,120.8 579.7,120.8 580.9,119.4 582.1,119.4 583.3,119.0 584.4,119.0 585.6,117.5 586.8,117.5 588.0,116.4 589.2,116.4 590.4,115.9 591.6,115.9 592.7,114.5 593.9,114.5 595.1,113.5 596.3,113.5 597.5,111.7 598.7,111.7 599.9,111.0 601.1,111.0 602.2,110.0 603.4,110.0 604.6,109.2 605.8,109.2 607.0,107.9 608.2,107.9 609.4,107.1 610.5,107.1 611.7,105.5 612.9,105.5 614.1,105.0 615.3,105.0 616.5,104.6 617.7,104.6 618.9,102.1 620.0,102.1 621.2,102.1 622.4,102.1 623.6,101.1 624.8,101.1 626.0,99.9 627.2,99.9 628.3,98.2 629.5,98.2 630.7,97.6 631.9,97.6 633.1,97.1 634.3,97.1 635.5,96.1 636.7,96.1 637.8,95.7 639.0,95.7 640.2,94.3 641.4,94.3 642.6,93.3 643.8,93.3 645.0,93.5 646.1,93.5 647.3,91.6 648.5,91.6 649.7,90.3 650.9,90.3 652.1,89.9 653.3,89.9 654.5,89.2 655.6,89.2 656.8,88.0 658.0,88.0 659.2,87.7 660.4,87.7 661.6,86.9 662.8,86.9 663.9,85.0 665.1,85.0 666.3,83.8 667.5,83.8 668.7,83.9 669.9,83.9 671.1,82.8 672.3,82.8 673.4,82.4 674.6,82.4 675.8,81.2 677.0,81.2 678.2,80.3 679.4,80.3 680.6,79.2 681.7,79.2 682.9,78.9 684.1,78.9 685.3,78.0 686.5,78.0 687.7,76.5 688.9,76.5 690.1,76.6 691.2,76.6 692.4,74.9 693.6,74.9 694.8,75.3 696.0,75.3 697.2,74.0 698.4,74.0 699.5,73.6 700.7,73.6 701.9,73.0 703.1,73.0 704.3,71.9 705.5,71.9 706.7,71.0 707.9,71.0 709.0,69.7 710.2,69.7 711.4,69.4 712.6,69.4 713.8,67.9 715.0,67.9 716.2,67.6 717.3,67.6 718.5,67.1 719.7,67.1 720.9,66.3 722.1,66.3 723.3,66.1 724.5,66.1 725.7,64.9 726.8,64.9 728.0,64.0 729.2,64.0 730.4,63.6 731.6,63.6 732.8,62.6 734.0,62.6 735.1,62.6 736.3,62.6 737.5,62.0 738.7,62.0 739.9,61.3 741.1,61.3 742.3,60.9 743.5,60.9 744.6,60.1 745.8,60.1 747.0,59.0 748.2,59.0 749.4,58.7 750.6,58.7 751.8,57.9 752.9,57.9 754.1,57.7 755.3,57.7 756.5,57.3 757.7,57.3 758.9,56.9 760.1,56.9 761.3,54.7 762.4,54.7 763.6,54.8 764.8,54.8 766.0,54.0"/>
<line x1="606" y1="60" x2="628" y2="60" stroke="#24a148" stroke-width="2.2"/>
<text x="634" y="64" font-family="Arial" font-size="12">baro_alt_m</text>
</svg>