<svg xmlns="http://www.w3.org/2000/svg" width="820" height="320" viewBox="0 0 820 320">
<rect width="100%" height="100%" fill="#ffffff"/>
<text x="54" y="28" font-family="Arial" font-size="18" font-weight="700">Qbar/Load Envelope</text>
<line x1="54" y1="266" x2="766" y2="266" stroke="#1f2933"/>
<line x1="54" y1="54" x2="54" y2="266" stroke="#1f2933"/>
<text x="54" y="306" font-family="Arial" font-size="12">qbar (Pa)</text>
<text x="596" y="306" font-family="Arial" font-size="12">load factor (g)</text>
<text x="58" y="68" font-family="Arial" font-size="11">2.22</text>
<text x="58" y="260" font-family="Arial" font-size="11">0.957</text>
<polyline fill="none" stroke="#0f62fe" stroke-width="2.2" points="54.0,148.4 55.0,144.0 56.0,139.4 57.0,134.6 58.1,129.8 59.1,125.0 60.2,120.0 61.3,115.0 62.5,110.0 63.6,105.0 64.8,99.9 66.1,94.9 67.3,89.8 68.6,84.7 69.9,83.1 71.2,83.3 72.5,83.4 73.8,83.6 75.2,83.7 76.5,83.8 77.9,83.9 79.2,84.0 80.6,84.2 81.9,84.3 83.3,84.4 84.7,84.5 86.1,84.6 87.5,84.7 88.9,84.8 90.3,84.9 91.7,85.0 93.1,85.1 94.5,85.2 96.0,85.2 97.4,85.3 98.8,85.4 100.3,85.5 101.7,85.5 103.2,85.6 104.7,85.7 106.1,85.8 107.6,85.8 109.1,85.9 110.6,85.9 112.1,86.0 113.6,86.0 115.1,86.1 116.6,86.1 118.1,86.2 119.7,86.2 121.2,86.3 122.7,86.3 124.3,86.3 125.8,86.4 127.4,86.4 128.9,86.4 130.5,86.4 132.0,86.5 133.6,86.5 135.2,86.5 136.8,86.5 138.4,86.5 140.0,86.5 141.5,86.6 143.1,86.6 144.8,86.6 146.4,86.6 148.0,86.6 149.6,86.6 151.2,86.6 152.9,86.6 154.5,86.6 156.1,86.6 157.8,86.5 159.4,86.5 161.1,86.5 162.7,86.5 164.4,86.5 166.0,86.5 167.7,86.5 169.4,86.5 171.1,86.4 172.7,86.4 174.4,86.4 176.1,86.4 177.8,86.4 179.5,86.4 181.2,86.3 182.9,86.2 184.6,86.1 186.3,86.0 188.0,85.8 189.8,85.7 191.5,85.6 193.2,85.4 194.9,85.2 196.7,85.0 198.4,84.9 200.1,84.7 201.9,84.5 203.6,84.3 205.3,84.1 207.1,83.8 208.8,83.6 210.6,83.4 212.3,83.2 214.1,83.0 215.8,82.7 217.6,82.5 219.3,82.3 221.1,82.1 222.8,81.8 224.6,81.6 226.3,81.4 228.1,81.2 229.9,80.9 231.6,80.7 233.4,80.5 235.2,80.3 236.9,80.1 238.7,79.9 240.5,79.7 242.3,79.5 244.0,79.3 245.8,79.1 247.6,78.9 249.4,78.7 251.1,78.5 252.9,78.4 254.7,78.2 256.5,78.1 258.3,77.9 260.1,77.8 261.8,77.6 263.6,77.5 265.4,77.4 267.2,77.2 269.0,77.1 270.8,77.0 272.6,76.9 274.4,76.8 276.2,76.8 278.0,76.7 279.8,76.6 281.6,76.6 283.4,76.5 285.2,76.5 287.0,76.4 288.8,76.4 290.6,76.4 292.4,76.4 294.2,76.4 296.0,76.4 297.8,76.5 299.7,76.5 301.5,76.5 303.3,76.6 305.1,76.6 306.9,76.7 308.7,76.8 310.5,76.9 312.4,77.0 314.2,77.1 316.0,77.2 317.8,77.3 319.7,77.5 321.5,77.6 323.3,77.8 325.1,77.9 327.0,78.1 328.8,78.3 330.6,78.5 332.5,78.7 334.3,78.9 336.1,79.1 338.0,79.3 339.8,79.6 341.6,79.8 343.5,80.0 345.3,80.3 347.2,80.6 349.0,80.9 350.8,81.1 352.7,81.4 354.5,81.7 356.4,82.1 358.2,82.4 360.1,82.7 361.9,83.0 363.8,83.4 365.6,83.7 367.5,84.1 369.4,84.5 371.2,84.8 373.1,85.3 374.9,85.5 376.8,86.2 378.7,85.8 380.5,88.0 382.4,84.4 384.2,93.8 386.1,73.0 388.0,111.6 389.9,82.3 391.8,112.4 393.7,74.0 395.5,103.2 397.4,60.6 399.2,95.1 401.1,58.6 402.9,101.3 404.8,67.2 406.6,109.7 408.5,76.7 410.4,117.0 412.3,85.3 414.2,121.2 416.2,86.9 418.0,120.5 420.0,82.0 421.9,117.5 423.8,77.2 425.6,114.5 427.6,72.5 429.4,111.6 431.3,68.1 433.1,108.7 435.0,63.9 436.8,106.0 438.7,59.9 440.4,103.2 442.3,55.8 444.1,99.9 445.9,54.0 447.7,102.1 449.5,55.9 451.3,104.1 453.1,57.7 454.9,106.0 456.8,59.4 458.5,107.9 460.4,61.0 462.1,109.4 464.0,62.2 465.8,110.7 467.6,63.2 469.4,111.9 471.2,63.9 473.0,113.0 474.9,64.6 476.6,114.0 478.5,65.3 480.3,115.0 482.1,65.9 483.9,116.2 485.8,66.6 487.5,117.2 489.4,69.1 491.1,121.7 493.0,74.0 494.8,125.9 496.6,78.5 498.4,129.7 500.3,82.6 502.1,133.3 504.0,86.4 505.8,136.6 507.7,90.0 509.5,139.8 511.4,93.5 513.2,143.0 515.1,96.7 516.9,145.9 518.8,99.8 520.6,148.7 522.5,102.7 524.2,151.4 526.1,105.4 527.9,153.9 529.8,108.0 531.6,156.4 533.5,110.4 535.3,158.7 537.2,112.7 539.0,161.0 540.9,114.8 542.6,163.1 544.5,116.9 546.3,165.2 548.2,118.9 550.0,167.3 551.8,120.7 553.6,169.2 555.5,122.5 557.2,171.2 559.1,124.2 560.9,173.0 562.7,125.9 564.5,174.9 566.3,127.4 568.1,176.7 569.9,129.0 571.6,178.4 573.5,130.4 575.2,180.2 577.1,131.8 578.8,181.9 580.6,133.2 582.3,183.6 584.1,134.5 585.8,185.2 587.7,135.8 589.3,186.9 591.2,137.1 592.8,188.5 594.6,138.3 596.3,190.1 598.1,139.5 599.8,191.7 601.6,140.6 603.2,193.2 605.0,141.7 606.7,194.8 608.4,142.8 610.1,196.3 611.8,143.9 613.5,197.8 615.2,144.9 616.9,199.4 618.6,146.0 620.2,200.9 622.0,147.0 623.6,202.4 625.3,147.9 626.9,203.9 628.6,148.9 630.2,205.3 631.9,149.9 633.5,206.8 635.2,150.8 636.7,208.3 638.4,151.7 640.0,209.7 641.7,152.6 643.2,211.2 644.9,153.5 646.4,212.6 648.1,154.4 649.6,214.0 651.3,155.2 652.8,215.4 654.4,156.1 655.9,216.9 657.6,156.9 659.0,218.3 660.7,157.7 662.1,219.7 663.8,158.5 665.2,221.1 666.8,159.3 668.3,222.4 669.9,159.9 671.3,223.7 672.9,160.4 674.4,225.0 675.9,161.0 677.4,226.3 678.9,161.6 680.3,227.6 681.9,162.2 683.3,228.9 684.8,162.8 686.2,230.2 687.8,163.4 689.1,231.5 690.7,163.9 692.0,232.7 693.5,164.5 694.9,234.0 696.4,165.1 697.7,235.3 699.2,165.7 700.5,236.6 702.0,166.3 703.3,237.9 704.8,166.9 706.1,239.1 707.6,167.4 708.9,240.3 710.3,167.8 711.6,241.5 713.0,168.3 714.3,242.7 715.7,168.8 717.0,243.9 718.4,169.3 719.6,245.1 721.0,169.7 722.3,246.3 723.7,170.2 724.9,247.5 726.3,170.7 727.5,248.7 728.9,171.1 730.1,249.9 731.4,171.6 732.6,251.1 734.0,172.1 735.1,252.2 736.5,172.5 737.6,253.4 739.0,173.0 740.1,254.6 741.5,173.5 742.6,255.7 743.9,173.9 745.0,256.9 746.3,174.4 747.4,258.1 748.7,174.8 749.8,259.2 751.1,175.2 752.2,260.4 753.5,175.7 754.6,261.5 755.8,176.1 756.9,262.6 758.1,176.5 759.2,263.8 760.4,176.9 761.5,264.9 762.7,177.3 763.8,266.0 765.0,177.7 766.0,166.9 763.0,90.5 759.9,169.4 756.9,93.4 753.8,171.7 750.9,96.1 747.8,174.0 744.9,98.7 741.9,176.1 739.1,101.2 736.1,178.3 733.3,103.7 730.3,180.3 727.6,106.0 724.7,182.3 721.9,108.3 719.0,184.2 716.4,110.5 713.5,186.1 710.9,112.6 708.0,187.9 705.4,114.7 702.6,189.7 700.0,116.7 697.3,191.4 694.7,118.7 692.0,193.1 689.5,120.6 686.8,194.8 684.3,122.5 681.7,196.4 679.2,124.3 676.6,198.0 674.1,126.1 671.6,199.6 669.1,128.0 666.6,201.1 664.2,129.8 661.7,202.7 659.3,131.6 656.8,204.1 654.5,133.3 652.0,205.6 649.7,135.0 647.3,207.0 645.0,136.6 642.6,208.4 640.3,138.2 638.0,209.7 635.7,139.7 633.4,211.1 631.2,141.3 628.8,212.4 626.7,142.8 624.4,213.6 622.2,144.2 619.9,214.9 617.8,145.7 615.5,216.1 613.4,147.1 611.2,217.2 609.1,148.5 606.9,218.4 604.8,149.8 602.7,219.6 600.6,151.2 598.5,220.7 596.4,152.5 594.3,221.8 592.3,153.8 590.2,222.8 588.2,155.0 586.1,223.9 584.2,156.3 582.1,224.9 580.2,157.5 578.1,225.9 576.2,158.7 574.2,226.9 572.3,159.9 570.3,227.9 568.4,161.1 566.4,228.9 564.6,162.2 562.6,229.8 560.8,163.3 558.8,230.7 557.0,164.5 555.1,231.6 553.3,165.6 551.4,232.5 549.6,166.6 547.7,233.4 545.9,167.7 544.1,234.3 542.3,168.8 540.5,235.1 538.7,169.8 536.9,235.9 535.2,170.8 533.4,236.7 531.7,171.8 529.9,237.5 528.2,172.8 526.4,238.3 524.8,173.8 523.0,239.1 521.4,174.7 519.6,239.9 518.0,175.7 516.3,240.6 514.6,176.6 512.9,241.3 511.3,177.6 509.6,242.1 508.1,178.5 506.4,242.8 504.8,179.4 503.2,243.5 501.6,180.3 500.0,244.1 498.4,181.1 496.8,244.8 495.3,182.0 493.6,245.5 492.1,182.8 490.5,246.1 489.0,183.7 487.5,246.7 486.0,184.5 484.4,247.4 482.9,185.3 481.4,248.0 479.9,186.1 478.4,248.6 476.9,186.9 475.4,249.2 474.0,187.7 472.5,249.8 471.1,188.5 469.6,250.3 468.2,189.3 466.7,250.9 465.3,190.0 463.8,251.4 462.4,190.7 461.0,251.9 459.6,191.3 458.2,252.3 456.8,191.9 455.4,252.7 454.0,192.5 452.6,253.0 451.3,193.1 449.8,253.4 448.5,193.7 447.1,253.8 445.8,194.3 444.4,254.2 443.1,194.9 441.7,254.6 440.4,195.5 439.1,254.9 437.8,196.1 436.4,255.3 435.2,196.6 433.8,255.6"/>
<line x1="606" y1="42" x2="628" y2="42" stroke="#0f62fe" stroke-width="2.2"/>
<text x="634" y="46" font-family="Arial" font-size="12">load_factor_g</text>
</svg>