<svg xmlns="http://www.w3.org/2000/svg" width="820" height="320" viewBox="0 0 820 320">
<rect width="100%" height="100%" fill="#ffffff"/>
<text x="54" y="28" font-family="Arial" font-size="18" font-weight="700">Euler Angles</text>
<line x1="54" y1="266" x2="766" y2="266" stroke="#1f2933"/>
<line x1="54" y1="54" x2="54" y2="266" stroke="#1f2933"/>
<text x="54" y="306" font-family="Arial" font-size="12">time (s)</text>
<text x="596" y="306" font-family="Arial" font-size="12">angle (deg)</text>
<text x="58" y="68" font-family="Arial" font-size="11">180</text>
<text x="58" y="260" font-family="Arial" font-size="11">-179</text>
<polyline fill="none" stroke="#0f62fe" stroke-width="2.2" points="54.0,160.4 55.3,159.3 56.6,157.4 57.9,155.5 59.2,153.9 60.5,152.8 61.8,152.4 63.1,152.8 64.4,153.8 65.7,155.4 67.0,157.2 68.3,159.2 69.6,161.2 70.9,163.0 72.2,164.4 73.5,165.6 74.8,166.6 76.0,167.8 77.3,169.3 78.6,171.5 79.9,174.7 81.2,178.6 82.5,182.6 83.8,186.5 85.1,190.3 86.4,193.9 87.7,197.3 89.0,200.6 90.3,203.7 91.6,206.6 92.9,209.4 94.2,212.0 95.5,214.3 96.8,216.3 98.1,217.8 99.4,218.9 100.7,219.3 102.0,219.2 103.3,218.7 104.6,217.8 105.9,216.4 107.2,214.4 108.5,211.5 109.8,206.9 111.1,199.2 112.4,185.4 113.7,167.5 115.0,153.3 116.3,144.9 117.5,139.9 118.8,136.6 120.1,134.6 121.4,133.6 122.7,133.3 124.0,133.6 125.3,134.1 126.6,134.6 127.9,134.9 129.2,134.6 130.5,133.6 131.8,131.9 133.1,129.7 134.4,127.1 135.7,124.3 137.0,121.4 138.3,118.6 139.6,116.1 140.9,114.2 142.2,113.1 143.5,112.9 144.8,113.5 146.1,114.7 147.4,116.5 148.7,118.5 150.0,120.7 151.3,122.7 152.6,124.5 153.9,126.1 155.2,127.5 156.5,128.6 157.8,129.5 159.0,130.3 160.3,131.1 161.6,131.9 162.9,132.8 164.2,133.8 165.5,135.0 166.8,136.6 168.1,138.7 169.4,141.5 170.7,144.7 172.0,148.0 173.3,151.2 174.6,153.9 175.9,156.1 177.2,157.6 178.5,158.8 179.8,159.6 181.1,160.4 182.4,161.1 183.7,161.8 185.0,162.6 186.3,163.5 187.6,164.6 188.9,166.0 190.2,167.7 191.5,170.0 192.8,172.7 194.1,175.7 195.4,178.9 196.7,182.1 198.0,185.2 199.3,188.1 200.6,190.8 201.8,193.1 203.1,194.6 204.4,195.1 205.7,193.7 207.0,189.9 208.3,184.1 209.6,177.9 210.9,172.6 212.2,168.6 213.5,165.9 214.8,164.3 216.1,163.4 217.4,163.2 218.7,163.5 220.0,164.3 221.3,165.5 222.6,167.2 223.9,169.2 225.2,171.5 226.5,174.0 227.8,176.8 229.1,179.6 230.4,182.4 231.7,185.0 233.0,187.2 234.3,188.8 235.6,189.4 236.9,188.5 238.2,185.6 239.5,180.9 240.8,175.3 242.1,169.8 243.3,165.1 244.6,161.4 245.9,158.7 247.2,156.9 248.5,156.0 249.8,155.8 251.1,156.5 252.4,157.9 253.7,159.8 255.0,162.0 256.3,164.4 257.6,166.8 258.9,169.1 260.2,171.5 261.5,173.8 262.8,176.2 264.1,178.5 265.4,180.6 266.7,182.1 268.0,182.8 269.3,182.5 270.6,180.8 271.9,178.0 273.2,174.5 274.5,171.1 275.8,168.1 277.1,165.7 278.4,164.0 279.7,162.8 281.0,162.2 282.3,162.1 283.6,162.4 284.8,162.9 286.1,163.5 287.4,164.0 288.7,164.4 290.0,164.7 291.3,164.8 292.6,164.7 293.9,164.4 295.2,163.9 296.5,163.3 297.8,162.6 299.1,161.9 300.4,161.1 301.7,160.3 303.0,159.5 304.3,158.7 305.6,157.9 306.9,157.0 308.2,156.2 309.5,155.2 310.8,154.2 312.1,153.1 313.4,152.0 314.7,150.7 316.0,149.3 317.3,147.9 318.6,146.3 319.9,144.7 321.2,143.1 322.5,141.5 323.8,140.2 325.1,139.3 326.3,139.0 327.6,139.4 328.9,140.6 330.2,142.5 331.5,144.9 332.8,147.2 334.1,149.4 335.4,151.3 336.7,152.8 338.0,153.9 339.3,154.8 340.6,155.5 341.9,156.2 343.2,156.7 344.5,157.2 345.8,157.6 347.1,158.1 348.4,158.5 349.7,159.0 351.0,159.5 352.3,160.0 353.6,160.6 354.9,161.2 356.2,161.8 357.5,162.4 358.8,163.2 360.1,163.9 361.4,164.6 362.7,165.2 364.0,165.8 365.3,166.1 366.6,166.2 367.9,166.0 369.1,165.5 370.4,165.0 371.7,164.3 373.0,163.5 374.3,162.8 375.6,161.9 376.9,161.0 378.2,160.0 379.5,159.0 380.8,157.9 382.1,156.7 383.4,155.5 384.7,154.3 386.0,153.0 387.3,151.8 388.6,150.6 389.9,149.5 391.2,148.5 392.5,147.7 393.8,147.0 395.1,146.5 396.4,146.2 397.7,146.0 399.0,146.0 400.3,145.9 401.6,145.8 402.9,145.6 404.2,145.3 405.5,145.0 406.8,144.5 408.1,144.0 409.4,143.4 410.6,142.7 411.9,142.0 413.2,141.4 414.5,140.9 415.8,140.5 417.1,140.5 418.4,140.9 419.7,142.0 421.0,143.8 422.3,146.3 423.6,149.3 424.9,152.3 426.2,154.7 427.5,156.4 428.8,157.3 430.1,157.6 431.4,157.4 432.7,156.9 434.0,156.1 435.3,155.0 436.6,153.8 437.9,152.3 439.2,150.8 440.5,149.2 441.8,147.6 443.1,146.4 444.4,145.7 445.7,145.7 447.0,146.6 448.3,148.2 449.6,150.1 450.9,151.9 452.1,153.5 453.4,154.7 454.7,155.5 456.0,156.1 457.3,156.5 458.6,156.8 459.9,157.0 461.2,157.1 462.5,157.1 463.8,157.1 465.1,157.0 466.4,156.7 467.7,156.4 469.0,155.9 470.3,155.4 471.6,154.7 472.9,153.9 474.2,153.0 475.5,151.9 476.8,150.8 478.1,149.6 479.4,148.3 480.7,147.0 482.0,145.7 483.3,144.6 484.6,143.7 485.9,143.1 487.2,142.9 488.5,143.3 489.8,144.0 491.1,145.0 492.4,146.2 493.7,147.2 494.9,148.1 496.2,148.6 497.5,148.8 498.8,148.6 500.1,148.2 501.4,147.6 502.7,146.9 504.0,146.0 505.3,145.2 506.6,144.4 507.9,143.6 509.2,143.0 510.5,142.4 511.8,141.8 513.1,141.1 514.4,140.5 515.7,140.1 517.0,140.0 518.3,140.4 519.6,141.2 520.9,142.6 522.2,144.2 523.5,145.7 524.8,146.7 526.1,146.9 527.4,146.3 528.7,144.8 530.0,142.8 531.3,140.3 532.6,137.6 533.9,135.2 535.2,133.3 536.4,132.0 537.7,131.4 539.0,131.6 540.3,132.8 541.6,135.1 542.9,138.6 544.2,142.8 545.5,146.8 546.8,149.7 548.1,151.2 549.4,151.3 550.7,150.0 552.0,147.5 553.3,143.9 554.6,139.8 555.9,135.9 557.2,132.8 558.5,130.8 559.8,130.0 561.1,130.3 562.4,131.7 563.7,134.3 565.0,138.2 566.3,142.9 567.6,147.5 568.9,151.2 570.2,153.7 571.5,155.1 572.8,155.8 574.1,156.0 575.4,155.8 576.7,155.4 577.9,154.8 579.2,154.0 580.5,153.0 581.8,151.9 583.1,150.5 584.4,149.0 585.7,147.3 587.0,145.4 588.3,143.6 589.6,142.0 590.9,141.0 592.2,141.0 593.5,142.4 594.8,145.4 596.1,149.6 597.4,153.9 598.7,157.6 600.0,160.6 601.3,162.7 602.6,164.3 603.9,165.4 605.2,166.4 606.5,167.3 607.8,168.2 609.1,169.1 610.4,170.1 611.7,171.2 613.0,172.4 614.3,173.5 615.6,174.5 616.9,175.1 618.2,175.2 619.4,174.4 620.7,172.6 622.0,169.8 623.3,166.4 624.6,163.1 625.9,160.4 627.2,158.4 628.5,156.9 629.8,155.7 631.1,154.7 632.4,153.8 633.7,152.8 635.0,151.6 636.3,150.3 637.6,148.8 638.9,147.2 640.2,145.4 641.5,143.7 642.8,142.1 644.1,140.9 645.4,140.3 646.7,141.0 648.0,143.4 649.3,147.6 650.6,153.0 651.9,158.1 653.2,162.4 654.5,165.9 655.8,168.6 657.1,170.8 658.4,172.9 659.7,175.1 661.0,177.4 662.2,179.9 663.5,182.6 664.8,185.2 666.1,187.6 667.4,189.6 668.7,191.1 670.0,191.8 671.3,191.0 672.6,187.7 673.9,180.7 675.2,171.1 676.5,161.9 677.8,154.8 679.1,149.6 680.4,145.4 681.7,141.8 683.0,138.7 684.3,136.0 685.6,133.8 686.9,132.1 688.2,131.0 689.5,130.7 690.8,131.4 692.1,133.9 693.4,139.5 694.7,147.2 696.0,154.6 697.3,160.5 698.6,165.0 699.9,168.6 701.2,171.5 702.5,174.1 703.7,176.3 705.0,178.1 706.3,179.5 707.6,180.3 708.9,180.3 710.2,179.3 711.5,177.0 712.8,172.9 714.1,167.6 715.4,162.7 716.7,158.5 718.0,154.9 719.3,151.8 720.6,148.9 721.9,145.8 723.2,142.7 724.5,139.6 725.8,136.7 727.1,134.0 728.4,131.6 729.7,129.7 731.0,128.4 732.3,128.2 733.6,129.8 734.9,134.4 736.2,144.0 737.5,155.5 738.8,164.8 740.1,171.2 741.4,176.0 742.7,180.1 744.0,183.8 745.2,187.2 746.5,190.2 747.8,193.0 749.1,195.5 750.4,197.5 751.7,199.0 753.0,199.5 754.3,198.3 755.6,193.6 756.9,184.0 758.2,172.4 759.5,162.9 760.8,156.6 762.1,152.1 763.4,148.5 764.7,145.7 766.0,143.6"/>
<line x1="606" y1="42" x2="628" y2="42" stroke="#0f62fe" stroke-width="2.2"/>
<text x="634" y="46" font-family="Arial" font-size="12">roll_deg</text>
<polyline fill="none" stroke="#24a148" stroke-width="2.2" points="54.0,158.6 55.3,158.5 56.6,158.7 57.9,159.1 59.2,159.5 60.5,159.9 61.8,160.0 63.1,160.1 64.4,160.3 65.7,160.4 67.0,160.4 68.3,160.4 69.6,160.4 70.9,160.3 72.2,160.3 73.5,160.2 74.8,160.1 76.0,160.0 77.3,159.8 78.6,159.5 79.9,159.7 81.2,159.8 82.5,160.1 83.8,160.1 85.1,160.1 86.4,160.3 87.7,160.6 89.0,161.0 90.3,161.6 91.6,162.4 92.9,163.4 94.2,164.7 95.5,166.5 96.8,168.8 98.1,171.7 99.4,174.8 100.7,177.6 102.0,180.1 103.3,182.4 104.6,184.5 105.9,186.9 107.2,189.5 108.5,192.4 109.8,195.5 111.1,198.6 112.4,200.7 113.7,199.8 115.0,195.2 116.3,188.4 117.5,180.8 118.8,173.2 120.1,166.1 121.4,160.0 122.7,155.1 124.0,151.6 125.3,149.5 126.6,149.1 127.9,150.0 129.2,152.1 130.5,155.2 131.8,159.0 133.1,163.4 134.4,168.3 135.7,173.5 137.0,178.3 138.3,182.2 139.6,185.0 140.9,186.5 142.2,187.0 143.5,186.9 144.8,186.9 146.1,186.9 147.4,186.9 148.7,186.8 150.0,186.4 151.3,185.8 152.6,185.1 153.9,184.2 155.2,183.3 156.5,182.4 157.8,181.6 159.0,181.0 160.3,180.6 161.6,180.3 162.9,180.2 164.2,180.1 165.5,180.3 166.8,180.5 168.1,180.8 169.4,181.0 170.7,180.8 172.0,180.0 173.3,178.6 174.6,176.8 175.9,174.9 177.2,173.1 178.5,171.6 179.8,170.3 181.1,169.2 182.4,168.2 183.7,167.2 185.0,166.3 186.3,165.4 187.6,164.6 188.9,164.1 190.2,163.9 191.5,163.8 192.8,164.0 194.1,164.4 195.4,165.1 196.7,166.1 198.0,167.5 199.3,169.4 200.6,171.9 201.8,175.0 203.1,178.6 204.4,182.6 205.7,186.7 207.0,189.9 208.3,191.3 209.6,190.7 210.9,188.6 212.2,185.9 213.5,183.1 214.8,180.5 216.1,178.6 217.4,177.1 218.7,175.9 220.0,174.9 221.3,173.9 222.6,172.9 223.9,172.0 225.2,171.3 226.5,170.9 227.8,170.8 229.1,171.2 230.4,171.9 231.7,173.2 233.0,175.1 234.3,177.6 235.6,180.8 236.9,184.5 238.2,187.9 239.5,190.2 240.8,191.0 242.1,190.4 243.3,189.0 244.6,187.2 245.9,185.4 247.2,183.9 248.5,182.6 249.8,181.6 251.1,180.6 252.4,179.5 253.7,178.2 255.0,176.7 256.3,175.2 257.6,173.9 258.9,172.9 260.2,172.3 261.5,172.1 262.8,172.3 264.1,172.8 265.4,173.8 266.7,175.2 268.0,177.2 269.3,179.6 270.6,181.9 271.9,183.5 273.2,184.0 274.5,183.5 275.8,182.2 277.1,180.7 278.4,179.1 279.7,177.7 281.0,176.5 282.3,175.5 283.6,174.5 284.8,173.6 286.1,172.7 287.4,172.1 288.7,171.5 290.0,171.2 291.3,170.9 292.6,170.8 293.9,170.6 295.2,170.4 296.5,170.1 297.8,169.8 299.1,169.5 300.4,169.3 301.7,169.0 303.0,168.8 304.3,168.6 305.6,168.5 306.9,168.3 308.2,168.2 309.5,168.1 310.8,168.0 312.1,168.0 313.4,167.9 314.7,167.9 316.0,167.9 317.3,167.9 318.6,168.0 319.9,168.3 321.2,168.7 322.5,169.5 323.8,170.5 325.1,171.9 326.3,173.6 327.6,175.5 328.9,177.0 330.2,178.0 331.5,178.3 332.8,177.8 334.1,176.7 335.4,175.2 336.7,173.7 338.0,172.3 339.3,171.1 340.6,170.1 341.9,169.3 343.2,168.6 344.5,168.1 345.8,167.7 347.1,167.3 348.4,167.0 349.7,166.8 351.0,166.6 352.3,166.4 353.6,166.2 354.9,166.1 356.2,166.0 357.5,166.0 358.8,165.9 360.1,165.9 361.4,166.0 362.7,166.1 364.0,166.2 365.3,166.4 366.6,166.6 367.9,166.6 369.1,166.4 370.4,166.1 371.7,165.6 373.0,165.1 374.3,164.5 375.6,164.1 376.9,163.8 378.2,163.6 379.5,163.5 380.8,163.5 382.1,163.7 383.4,163.8 384.7,164.1 386.0,164.3 387.3,164.6 388.6,164.9 389.9,165.2 391.2,165.6 392.5,166.0 393.8,166.3 395.1,166.7 396.4,167.0 397.7,167.2 399.0,167.2 400.3,166.9 401.6,166.6 402.9,166.2 404.2,165.9 405.5,165.7 406.8,165.6 408.1,165.6 409.4,165.8 410.6,166.1 411.9,166.7 413.2,167.4 414.5,168.4 415.8,169.6 417.1,171.0 418.4,172.5 419.7,174.1 421.0,175.3 422.3,176.1 423.6,176.0 424.9,174.8 426.2,173.0 427.5,170.7 428.8,168.4 430.1,166.3 431.4,164.8 432.7,163.7 434.0,163.0 435.3,162.5 436.6,162.4 437.9,162.5 439.2,162.8 440.5,163.5 441.8,164.6 443.1,166.1 444.4,167.8 445.7,169.7 447.0,171.1 448.3,171.8 449.6,171.6 450.9,170.5 452.1,168.9 453.4,167.1 454.7,165.4 456.0,164.0 457.3,163.0 458.6,162.2 459.9,161.7 461.2,161.3 462.5,161.1 463.8,161.1 465.1,161.1 466.4,161.2 467.7,161.3 469.0,161.6 470.3,161.9 471.6,162.3 472.9,162.7 474.2,163.1 475.5,163.6 476.8,164.1 478.1,164.6 479.4,165.1 480.7,165.6 482.0,166.2 483.3,166.9 484.6,167.7 485.9,168.6 487.2,169.5 488.5,170.2 489.8,170.7 491.1,170.8 492.4,170.3 493.7,169.4 494.9,168.2 496.2,166.9 497.5,165.8 498.8,165.0 500.1,164.4 501.4,164.1 502.7,164.1 504.0,164.4 505.3,165.0 506.6,165.7 507.9,166.5 509.2,167.2 510.5,167.7 511.8,168.0 513.1,168.2 514.4,168.5 515.7,169.0 517.0,169.6 518.3,170.4 519.6,171.0 520.9,171.3 522.2,170.9 523.5,169.7 524.8,167.8 526.1,165.4 527.4,163.2 528.7,161.4 530.0,160.6 531.3,160.6 532.6,161.6 533.9,163.3 535.2,165.4 536.4,167.5 537.7,169.7 539.0,172.1 540.3,174.3 541.6,176.2 542.9,177.1 544.2,176.8 545.5,174.6 546.8,171.0 548.1,166.7 549.4,162.4 550.7,158.6 552.0,155.9 553.3,154.9 554.6,155.7 555.9,158.2 557.2,161.8 558.5,165.9 559.8,170.0 561.1,173.6 562.4,176.6 563.7,179.0 565.0,180.3 566.3,180.0 567.6,177.9 568.9,174.6 570.2,170.5 571.5,166.4 572.8,162.6 574.1,159.4 575.4,156.9 576.7,155.2 577.9,154.3 579.2,153.9 580.5,154.0 581.8,154.5 583.1,155.3 584.4,156.3 585.7,157.7 587.0,159.5 588.3,161.7 589.6,164.6 590.9,167.9 592.2,171.6 593.5,175.2 594.8,177.8 596.1,178.8 597.4,178.0 598.7,175.9 600.0,173.0 601.3,170.0 602.6,167.3 603.9,165.0 605.2,163.4 606.5,162.4 607.8,161.9 609.1,161.8 610.4,162.1 611.7,162.6 613.0,163.4 614.3,164.6 615.6,166.1 616.9,167.9 618.2,170.0 619.4,172.2 620.7,174.0 622.0,174.9 623.3,174.6 624.6,173.0 625.9,170.6 627.2,167.9 628.5,165.3 629.8,163.1 631.1,161.6 632.4,160.6 633.7,160.1 635.0,160.0 636.3,160.3 637.6,160.8 638.9,161.6 640.2,162.7 641.5,164.3 642.8,166.4 644.1,169.1 645.4,172.1 646.7,175.4 648.0,178.6 649.3,180.7 650.6,180.9 651.9,179.4 653.2,176.6 654.5,173.3 655.8,170.1 657.1,167.3 658.4,165.2 659.7,163.9 661.0,163.3 662.2,163.4 663.5,164.2 664.8,165.5 666.1,167.5 667.4,170.3 668.7,173.8 670.0,178.1 671.3,183.0 672.6,188.1 673.9,191.9 675.2,193.3 676.5,192.1 677.8,189.4 679.1,186.2 680.4,183.2 681.7,180.9 683.0,179.3 684.3,178.5 685.6,178.4 686.9,179.0 688.2,180.4 689.5,182.5 690.8,185.3 692.1,188.4 693.4,191.2 694.7,192.2 696.0,191.1 697.3,188.7 698.6,185.9 699.9,183.1 701.2,180.9 702.5,179.3 703.7,178.2 705.0,177.7 706.3,177.7 707.6,178.2 708.9,179.2 710.2,180.4 711.5,181.6 712.8,182.3 714.1,181.6 715.4,179.4 716.7,176.3 718.0,173.1 719.3,170.2 720.6,168.0 721.9,166.6 723.2,165.9 724.5,166.0 725.8,166.7 727.1,168.1 728.4,170.2 729.7,173.0 731.0,176.7 732.3,181.0 733.6,186.0 734.9,190.9 736.2,194.2 737.5,194.1 738.8,191.3 740.1,187.4 741.4,183.4 742.7,180.0 744.0,177.5 745.2,176.0 746.5,175.4 747.8,175.6 749.1,176.7 750.4,178.7 751.7,181.6 753.0,185.3 754.3,189.7 755.6,194.3 756.9,197.4 758.2,197.5 759.5,195.3 760.8,192.1 762.1,188.8 763.4,186.1 764.7,184.1 766.0,182.7"/>
<line x1="606" y1="60" x2="628" y2="60" stroke="#24a148" stroke-width="2.2"/>
<text x="634" y="64" font-family="Arial" font-size="12">pitch_deg</text>
<polyline fill="none" stroke="#da1e28" stroke-width="2.2" points="54.0,158.0 55.3,159.1 56.6,161.1 57.9,164.2 59.2,168.4 60.5,172.8 61.8,176.2 63.1,178.5 64.4,179.8 65.7,180.0 67.0,179.2 68.3,177.3 69.6,174.4 70.9,171.3 72.2,169.0 73.5,167.7 74.8,167.4 76.0,168.2 77.3,170.0 78.6,172.4 79.9,173.9 81.2,174.3 82.5,173.6 83.8,172.2 85.1,170.4 86.4,168.3 87.7,166.0 89.0,163.7 90.3,161.4 91.6,159.0 92.9,156.6 94.2,154.0 95.5,151.0 96.8,147.9 98.1,144.6 99.4,141.3 100.7,137.6 102.0,133.6 103.3,129.2 104.6,124.5 105.9,119.5 107.2,113.8 108.5,107.2 109.8,98.9 111.1,87.4 112.4,70.4 113.7,262.4 115.0,245.6 116.3,234.7 117.5,227.4 118.8,221.7 120.1,216.7 121.4,211.9 122.7,207.1 124.0,202.1 125.3,196.9 126.6,191.7 127.9,186.6 129.2,181.9 130.5,177.7 131.8,174.0 133.1,170.8 134.4,168.0 135.7,165.5 137.0,163.2 138.3,161.3 139.6,159.8 140.9,159.0 142.2,159.4 143.5,161.0 144.8,163.8 146.1,167.6 147.4,172.2 148.7,177.2 150.0,182.3 151.3,187.3 152.6,192.2 153.9,196.9 155.2,201.4 156.5,205.7 157.8,209.9 159.0,214.0 160.3,218.3 161.6,222.7 162.9,227.5 164.2,232.6 165.5,238.2 166.8,244.3 168.1,251.2 169.4,258.8 170.7,54.2 172.0,62.5 173.3,70.6 174.6,78.4 175.9,85.8 177.2,92.8 178.5,99.9 179.8,107.2 181.1,114.9 182.4,123.4 183.7,132.3 185.0,141.4 186.3,150.1 187.6,158.0 188.9,164.9 190.2,170.8 191.5,175.7 192.8,179.7 194.1,182.8 195.4,185.1 196.7,186.5 198.0,187.1 199.3,186.9 200.6,185.9 201.8,183.9 203.1,180.8 204.4,176.1 205.7,169.4 207.0,160.6 208.3,150.7 209.6,141.6 210.9,134.5 212.2,130.0 213.5,127.6 214.8,127.0 216.1,127.9 217.4,129.7 218.7,132.4 220.0,135.9 221.3,139.8 222.6,144.0 223.9,148.0 225.2,151.5 226.5,154.2 227.8,155.9 229.1,156.6 230.4,156.4 231.7,155.2 233.0,153.1 234.3,150.0 235.6,145.7 236.9,139.9 238.2,132.6 239.5,124.3 240.8,116.5 242.1,110.0 243.3,105.5 244.6,103.0 245.9,102.4 247.2,103.3 248.5,105.5 249.8,109.0 251.1,113.7 252.4,119.2 253.7,125.0 255.0,130.6 256.3,135.8 257.6,140.1 258.9,143.2 260.2,145.3 261.5,146.3 262.8,146.3 264.1,145.2 265.4,143.1 266.7,140.0 268.0,135.8 269.3,130.2 270.6,123.5 271.9,116.5 273.2,110.1 274.5,105.0 275.8,101.2 277.1,99.0 278.4,98.2 279.7,98.8 281.0,100.6 282.3,103.5 283.6,107.0 284.8,110.7 286.1,113.9 287.4,116.5 288.7,118.2 290.0,119.1 291.3,119.1 292.6,118.4 293.9,117.4 295.2,116.1 296.5,114.9 297.8,114.0 299.1,113.3 300.4,113.0 301.7,113.1 303.0,113.5 304.3,114.2 305.6,115.1 306.9,116.1 308.2,117.2 309.5,118.4 310.8,119.5 312.1,120.7 313.4,122.0 314.7,123.3 316.0,124.7 317.3,126.2 318.6,128.0 319.9,130.2 321.2,132.9 322.5,136.2 323.8,140.2 325.1,145.0 326.3,150.6 327.6,157.0 328.9,163.8 330.2,170.8 331.5,177.4 332.8,183.5 334.1,188.6 335.4,192.7 336.7,195.9 338.0,198.2 339.3,199.8 340.6,200.8 341.9,201.4 343.2,201.5 344.5,201.2 345.8,200.6 347.1,199.8 348.4,198.7 349.7,197.3 351.0,195.7 352.3,194.0 353.6,192.0 354.9,189.8 356.2,187.3 357.5,184.7 358.8,181.9 360.1,178.7 361.4,175.1 362.7,170.8 364.0,165.8 365.3,160.2 366.6,153.8 367.9,147.1 369.1,140.4 370.4,134.1 371.7,128.7 373.0,124.2 374.3,120.7 375.6,118.4 376.9,117.1 378.2,116.7 379.5,117.2 380.8,118.4 382.1,120.2 383.4,122.4 384.7,124.8 386.0,127.6 387.3,130.6 388.6,133.9 389.9,137.5 391.2,141.5 392.5,145.7 393.8,150.1 395.1,154.9 396.4,159.7 397.7,164.5 399.0,169.0 400.3,173.2 401.6,177.2 402.9,180.8 404.2,184.3 405.5,187.7 406.8,191.0 408.1,194.5 409.4,198.2 410.6,202.2 411.9,206.7 413.2,211.6 414.5,217.0 415.8,223.0 417.1,229.7 418.4,237.1 419.7,245.3 421.0,254.3 422.3,264.1 423.6,61.2 424.9,70.8 426.2,79.5 427.5,86.9 428.8,93.2 430.1,98.5 431.4,102.9 432.7,106.9 434.0,110.6 435.3,114.3 436.6,118.1 437.9,122.2 439.2,126.9 440.5,132.6 441.8,139.2 443.1,146.9 444.4,155.6 445.7,165.1 447.0,175.0 448.3,184.9 449.6,194.1 450.9,202.4 452.1,209.5 453.4,215.4 454.7,220.4 456.0,224.5 457.3,228.0 458.6,231.2 459.9,234.0 461.2,236.8 462.5,239.6 463.8,242.5 465.1,245.7 466.4,249.2 467.7,253.2 469.0,257.7 470.3,263.0 471.6,55.9 472.9,62.0 474.2,68.5 475.5,75.3 476.8,82.1 478.1,89.0 479.4,96.0 480.7,103.1 482.0,110.3 483.3,117.8 484.6,125.7 485.9,134.0 487.2,142.6 488.5,151.7 489.8,161.0 491.1,170.3 492.4,179.4 493.7,188.1 494.9,196.5 496.2,204.5 497.5,212.3 498.8,220.0 500.1,227.8 501.4,235.8 502.7,244.1 504.0,252.9 505.3,262.2 506.6,59.0 507.9,68.8 509.2,78.7 510.5,88.5 511.8,98.2 513.1,107.9 514.4,118.0 515.7,128.5 517.0,139.6 518.3,151.6 519.6,164.3 520.9,177.7 522.2,191.7 523.5,205.6 524.8,219.0 526.1,231.6 527.4,243.4 528.7,254.6 530.0,265.4 531.3,63.2 532.6,73.6 533.9,84.1 535.2,94.5 536.4,104.8 537.7,115.3 539.0,126.4 540.3,138.2 541.6,151.0 542.9,164.8 544.2,179.3 545.5,193.3 546.8,205.9 548.1,217.0 549.4,227.1 550.7,236.6 552.0,246.0 553.3,255.8 554.6,266.0 555.9,63.4 557.2,73.5 558.5,83.2 559.8,92.9 561.1,102.8 562.4,113.3 563.7,124.6 565.0,136.9 566.3,149.4 567.6,160.9 568.9,170.7 570.2,178.5 571.5,184.7 572.8,189.8 574.1,193.9 575.4,197.4 576.7,200.5 577.9,203.3 579.2,206.1 580.5,208.9 581.8,212.0 583.1,215.4 584.4,219.3 585.7,223.8 587.0,229.1 588.3,235.1 589.6,242.1 590.9,250.0 592.2,259.1 593.5,56.7 594.8,68.1 596.1,79.7 597.4,90.3 598.7,99.4 600.0,106.7 601.3,112.5 602.6,116.9 603.9,120.2 605.2,122.4 606.5,123.7 607.8,124.0 609.1,123.3 610.4,121.6 611.7,118.8 613.0,115.1 614.3,110.4 615.6,104.6 616.9,97.7 618.2,89.7 619.4,80.5 620.7,70.1 622.0,59.0 623.3,260.6 624.6,250.3 625.9,241.4 627.2,234.1 628.5,228.0 629.8,223.1 631.1,219.2 632.4,216.3 633.7,214.3 635.0,213.3 636.3,213.3 637.6,214.3 638.9,216.3 640.2,219.3 641.5,223.2 642.8,228.1 644.1,234.1 645.4,241.1 646.7,249.6 648.0,259.8 649.3,58.5 650.6,70.4 651.9,81.0 653.2,89.6 654.5,96.3 655.8,101.4 657.1,105.2 658.4,108.1 659.7,110.0 661.0,111.1 662.2,111.4 663.5,110.8 664.8,109.5 666.1,107.4 667.4,104.4 668.7,100.6 670.0,95.8 671.3,89.5 672.6,80.7 673.9,69.1 675.2,55.8 676.5,257.0 677.8,248.6 679.1,243.2 680.4,240.0 681.7,238.4 683.0,237.9 684.3,238.3 685.6,239.8 686.9,242.2 688.2,245.6 689.5,250.0 690.8,255.9 692.1,263.7 693.4,61.3 694.7,73.0 696.0,83.2 697.3,90.6 698.6,95.4 699.9,98.0 701.2,99.1 702.5,98.8 703.7,97.4 705.0,94.9 706.3,91.3 707.6,86.5 708.9,80.5 710.2,73.2 711.5,64.4 712.8,54.0 714.1,255.9 715.4,246.7 716.7,239.5 718.0,234.1 719.3,230.3 720.6,227.6 721.9,225.8 723.2,225.0 724.5,224.9 725.8,225.6 727.1,227.2 728.4,229.6 729.7,232.8 731.0,236.9 732.3,242.2 733.6,249.4 734.9,259.6 736.2,61.3 737.5,76.5 738.8,88.3 740.1,95.8 741.4,100.5 742.7,103.3 744.0,104.9 745.2,105.7 746.5,105.9 747.8,105.3 749.1,104.0 750.4,102.0 751.7,99.1 753.0,95.1 754.3,89.2 755.6,80.0 756.9,66.9 758.2,265.7 759.5,255.1 760.8,248.9 762.1,245.8 763.4,244.9 764.7,245.4 766.0,247.2"/>
<line x1="606" y1="78" x2="628" y2="78" stroke="#da1e28" stroke-width="2.2"/>
<text x="634" y="82" font-family="Arial" font-size="12">yaw_deg</text>
</svg>