<svg xmlns="http://www.w3.org/2000/svg" width="820" height="320" viewBox="0 0 820 320">
<rect width="100%" height="100%" fill="#ffffff"/>
<text x="54" y="28" font-family="Arial" font-size="18" font-weight="700">Target Distance</text>
<line x1="54" y1="266" x2="766" y2="266" stroke="#1f2933"/>
<line x1="54" y1="54" x2="54" y2="266" stroke="#1f2933"/>
<text x="54" y="306" font-family="Arial" font-size="12">time (s)</text>
<text x="596" y="306" font-family="Arial" font-size="12">distance (m)</text>
<text x="58" y="68" font-family="Arial" font-size="11">940</text>
<text x="58" y="260" font-family="Arial" font-size="11">812</text>
<polyline fill="none" stroke="#0f62fe" stroke-width="2.2" points="54.0,54.3 55.3,57.0 56.6,59.7 57.9,62.4 59.2,65.1 60.5,67.8 61.8,70.5 63.1,73.2 64.4,75.8 65.7,78.4 67.0,81.0 68.3,83.6 69.6,86.1 70.9,88.7 72.2,91.2 73.5,93.8 74.8,96.3 76.0,98.9 77.3,101.4 78.6,104.0 79.9,106.5 81.2,109.1 82.5,111.6 83.8,114.1 85.1,116.6 86.4,119.1 87.7,121.6 89.0,124.1 90.3,126.6 91.6,129.1 92.9,131.7 94.2,134.2 95.5,136.7 96.8,139.2 98.1,141.6 99.4,144.1 100.7,146.4 102.0,148.7 103.3,151.0 104.6,153.2 105.9,155.3 107.2,157.4 108.5,159.4 109.8,161.3 111.1,163.2 112.4,165.1 113.7,166.9 115.0,168.6 116.3,170.2 117.5,171.8 118.8,173.4 120.1,174.9 121.4,176.3 122.7,177.7 124.0,179.0 125.3,180.3 126.6,181.6 127.9,182.8 129.2,184.0 130.5,185.2 131.8,186.4 133.1,187.6 134.4,188.7 135.7,189.9 137.0,191.0 138.3,192.2 139.6,193.4 140.9,194.6 142.2,195.8 143.5,197.0 144.8,198.1 146.1,199.3 147.4,200.5 148.7,201.7 150.0,202.9 151.3,204.1 152.6,205.2 153.9,206.3 155.2,207.4 156.5,208.4 157.8,209.4 159.0,210.4 160.3,211.3 161.6,212.2 162.9,213.1 164.2,214.0 165.5,214.8 166.8,215.5 168.1,216.3 169.4,217.0 170.7,217.7 172.0,218.3 173.3,218.9 174.6,219.5 175.9,220.0 177.2,220.6 178.5,221.1 179.8,221.5 181.1,222.0 182.4,222.4 183.7,222.9 185.0,223.3 186.3,223.8 187.6,224.2 188.9,224.7 190.2,225.1 191.5,225.6 192.8,226.1 194.1,226.5 195.4,227.0 196.7,227.4 198.0,227.9 199.3,228.3 200.6,228.7 201.8,229.2 203.1,229.6 204.4,230.1 205.7,230.5 207.0,230.9 208.3,231.3 209.6,231.8 210.9,232.2 212.2,232.6 213.5,233.1 214.8,233.5 216.1,233.9 217.4,234.4 218.7,234.8 220.0,235.2 221.3,235.7 222.6,236.1 223.9,236.5 225.2,237.0 226.5,237.4 227.8,237.9 229.1,238.4 230.4,238.9 231.7,239.3 233.0,239.8 234.3,240.3 235.6,240.9 236.9,241.4 238.2,241.9 239.5,242.5 240.8,243.0 242.1,243.5 243.3,244.0 244.6,244.5 245.9,245.0 247.2,245.4 248.5,245.8 249.8,246.2 251.1,246.6 252.4,246.9 253.7,247.3 255.0,247.7 256.3,248.0 257.6,248.4 258.9,248.8 260.2,249.1 261.5,249.5 262.8,249.9 264.1,250.3 265.4,250.8 266.7,251.2 268.0,251.6 269.3,252.1 270.6,252.5 271.9,253.0 273.2,253.4 274.5,253.9 275.8,254.3 277.1,254.6 278.4,255.0 279.7,255.3 281.0,255.6 282.3,255.9 283.6,256.2 284.8,256.4 286.1,256.7 287.4,256.9 288.7,257.1 290.0,257.3 291.3,257.5 292.6,257.7 293.9,258.0 295.2,258.2 296.5,258.4 297.8,258.6 299.1,258.7 300.4,258.9 301.7,259.1 303.0,259.3 304.3,259.4 305.6,259.6 306.9,259.7 308.2,259.8 309.5,260.0 310.8,260.1 312.1,260.2 313.4,260.4 314.7,260.5 316.0,260.6 317.3,260.8 318.6,260.9 319.9,261.1 321.2,261.2 322.5,261.3 323.8,261.5 325.1,261.7 326.3,261.8 327.6,262.0 328.9,262.2 330.2,262.4 331.5,262.6 332.8,262.8 334.1,263.0 335.4,263.1 336.7,263.3 338.0,263.5 339.3,263.6 340.6,263.8 341.9,263.9 343.2,264.0 344.5,264.1 345.8,264.2 347.1,264.3 348.4,264.4 349.7,264.4 351.0,264.5 352.3,264.5 353.6,264.6 354.9,264.6 356.2,264.6 357.5,264.7 358.8,264.7 360.1,264.7 361.4,264.7 362.7,264.7 364.0,264.8 365.3,264.8 366.6,264.8 367.9,264.9 369.1,264.9 370.4,265.0 371.7,265.0 373.0,265.1 374.3,265.1 375.6,265.2 376.9,265.2 378.2,265.3 379.5,265.3 380.8,265.3 382.1,265.4 383.4,265.4 384.7,265.4 386.0,265.4 387.3,265.4 388.6,265.4 389.9,265.4 391.2,265.5 392.5,265.5 393.8,265.5 395.1,265.5 396.4,265.6 397.7,265.6 399.0,265.7 400.3,265.7 401.6,265.8 402.9,265.8 404.2,265.8 405.5,265.9 406.8,265.9 408.1,266.0 409.4,266.0 410.6,266.0 411.9,266.0 413.2,266.0 414.5,266.0 415.8,266.0 417.1,265.9 418.4,265.9 419.7,265.8 421.0,265.7 422.3,265.5 423.6,265.4 424.9,265.2 426.2,265.0 427.5,264.8 428.8,264.5 430.1,264.3 431.4,264.0 432.7,263.7 434.0,263.4 435.3,263.2 436.6,262.9 437.9,262.6 439.2,262.3 440.5,262.0 441.8,261.8 443.1,261.5 444.4,261.2 445.7,261.0 447.0,260.8 448.3,260.5 449.6,260.3 450.9,260.1 452.1,259.8 453.4,259.6 454.7,259.4 456.0,259.1 457.3,258.8 458.6,258.5 459.9,258.2 461.2,257.9 462.5,257.5 463.8,257.2 465.1,256.8 466.4,256.4 467.7,256.0 469.0,255.5 470.3,255.1 471.6,254.6 472.9,254.1 474.2,253.6 475.5,253.1 476.8,252.5 478.1,251.9 479.4,251.3 480.7,250.7 482.0,250.1 483.3,249.5 484.6,248.9 485.9,248.3 487.2,247.7 488.5,247.1 489.8,246.5 491.1,245.9 492.4,245.4 493.7,244.8 494.9,244.2 496.2,243.7 497.5,243.2 498.8,242.6 500.1,242.0 501.4,241.5 502.7,240.9 504.0,240.3 505.3,239.7 506.6,239.1 507.9,238.4 509.2,237.7 510.5,237.1 511.8,236.4 513.1,235.7 514.4,235.0 515.7,234.3 517.0,233.6 518.3,232.9 519.6,232.2 520.9,231.6 522.2,231.0 523.5,230.4 524.8,229.7 526.1,229.1 527.4,228.5 528.7,227.9 530.0,227.2 531.3,226.6 532.6,225.9 533.9,225.2 535.2,224.5 536.4,223.8 537.7,223.2 539.0,222.5 540.3,221.8 541.6,221.1 542.9,220.5 544.2,219.8 545.5,219.2 546.8,218.6 548.1,218.0 549.4,217.3 550.7,216.7 552.0,216.1 553.3,215.4 554.6,214.8 555.9,214.1 557.2,213.4 558.5,212.7 559.8,212.0 561.1,211.3 562.4,210.6 563.7,209.9 565.0,209.2 566.3,208.5 567.6,207.8 568.9,207.1 570.2,206.4 571.5,205.7 572.8,205.1 574.1,204.4 575.4,203.7 576.7,203.1 577.9,202.4 579.2,201.7 580.5,201.1 581.8,200.4 583.1,199.7 584.4,199.1 585.7,198.4 587.0,197.7 588.3,197.0 589.6,196.3 590.9,195.6 592.2,194.9 593.5,194.1 594.8,193.3 596.1,192.6 597.4,191.7 598.7,190.9 600.0,190.1 601.3,189.3 602.6,188.4 603.9,187.6 605.2,186.8 606.5,186.0 607.8,185.2 609.1,184.4 610.4,183.7 611.7,182.9 613.0,182.2 614.3,181.4 615.6,180.7 616.9,180.0 618.2,179.3 619.4,178.5 620.7,177.8 622.0,177.1 623.3,176.3 624.6,175.5 625.9,174.7 627.2,173.9 628.5,173.1 629.8,172.3 631.1,171.4 632.4,170.6 633.7,169.8 635.0,169.0 636.3,168.1 637.6,167.3 638.9,166.5 640.2,165.7 641.5,164.9 642.8,164.0 644.1,163.2 645.4,162.4 646.7,161.6 648.0,160.7 649.3,159.8 650.6,158.9 651.9,158.0 653.2,157.1 654.5,156.1 655.8,155.1 657.1,154.2 658.4,153.2 659.7,152.3 661.0,151.4 662.2,150.4 663.5,149.5 664.8,148.6 666.1,147.7 667.4,146.8 668.7,146.0 670.0,145.1 671.3,144.2 672.6,143.3 673.9,142.4 675.2,141.4 676.5,140.4 677.8,139.4 679.1,138.4 680.4,137.4 681.7,136.3 683.0,135.3 684.3,134.2 685.6,133.1 686.9,132.0 688.2,130.9 689.5,129.7 690.8,128.6 692.1,127.4 693.4,126.2 694.7,125.0 696.0,123.8 697.3,122.5 698.6,121.3 699.9,120.0 701.2,118.8 702.5,117.6 703.7,116.4 705.0,115.2 706.3,114.0 707.6,112.8 708.9,111.6 710.2,110.4 711.5,109.2 712.8,108.0 714.1,106.8 715.4,105.6 716.7,104.3 718.0,103.0 719.3,101.8 720.6,100.5 721.9,99.3 723.2,98.0 724.5,96.8 725.8,95.6 727.1,94.4 728.4,93.2 729.7,92.0 731.0,90.8 732.3,89.5 733.6,88.3 734.9,87.0 736.2,85.7 737.5,84.4 738.8,83.0 740.1,81.7 741.4,80.3 742.7,79.0 744.0,77.7 745.2,76.4 746.5,75.0 747.8,73.7 749.1,72.4 750.4,71.1 751.7,69.8 753.0,68.5 754.3,67.2 755.6,65.8 756.9,64.4 758.2,63.0 759.5,61.5 760.8,60.0 762.1,58.5 763.4,57.0 764.7,55.5 766.0,54.0"/>
<line x1="606" y1="42" x2="628" y2="42" stroke="#0f62fe" stroke-width="2.2"/>
<text x="634" y="46" font-family="Arial" font-size="12">target_distance_m</text>
</svg>