<svg xmlns="http://www.w3.org/2000/svg" width="820" height="320" viewBox="0 0 820 320">
<rect width="100%" height="100%" fill="#ffffff"/>
<text x="54" y="28" font-family="Arial" font-size="18" font-weight="700">Velocity X</text>
<line x1="54" y1="266" x2="766" y2="266" stroke="#1f2933"/>
<line x1="54" y1="54" x2="54" y2="266" stroke="#1f2933"/>
<text x="54" y="306" font-family="Arial" font-size="12">time (s)</text>
<text x="596" y="306" font-family="Arial" font-size="12">vx (m/s)</text>
<text x="58" y="68" font-family="Arial" font-size="11">48</text>
<text x="58" y="260" font-family="Arial" font-size="11">-2.5</text>
<polyline fill="none" stroke="#0f62fe" stroke-width="2.2" points="54.0,54.0 54.8,54.6 55.6,55.2 56.4,55.9 57.3,56.5 58.1,57.2 58.9,58.0 59.7,58.9 60.5,59.8 61.3,60.6 62.1,61.1 63.0,61.6 63.8,62.2 64.6,63.1 65.4,63.9 66.2,64.6 67.0,65.0 67.8,65.6 68.6,67.5 69.5,70.3 70.3,73.3 71.1,76.4 71.9,79.3 72.7,81.9 73.5,84.4 74.3,86.8 75.2,89.2 76.0,91.6 76.8,94.2 77.6,96.8 78.4,99.3 79.2,101.9 80.0,104.5 80.9,107.1 81.7,109.6 82.5,112.2 83.3,114.8 84.1,117.3 84.9,119.8 85.7,122.2 86.5,124.6 87.4,127.0 88.2,129.4 89.0,131.8 89.8,134.2 90.6,136.5 91.4,138.6 92.2,140.7 93.1,142.7 93.9,144.6 94.7,146.5 95.5,148.3 96.3,150.1 97.1,151.9 97.9,153.7 98.8,155.6 99.6,157.5 100.4,159.5 101.2,161.6 102.0,163.7 102.8,165.8 103.6,167.8 104.5,169.5 105.3,171.1 106.1,172.8 106.9,173.5 107.7,173.4 108.5,174.1 109.3,175.2 110.1,176.5 111.0,177.9 111.8,179.4 112.6,181.0 113.4,182.7 114.2,184.4 115.0,186.0 115.8,187.4 116.7,188.6 117.5,189.6 118.3,190.2 119.1,190.7 119.9,191.1 120.7,191.7 121.5,192.6 122.4,193.8 123.2,195.3 124.0,196.8 124.8,198.3 125.6,199.8 126.4,201.2 127.2,202.6 128.0,203.9 128.9,205.2 129.7,206.4 130.5,207.2 131.3,208.1 132.1,209.1 132.9,210.4 133.7,211.7 134.6,212.6 135.4,212.8 136.2,212.5 137.0,211.9 137.8,211.4 138.6,211.1 139.4,210.9 140.3,210.8 141.1,210.8 141.9,210.7 142.7,210.8 143.5,210.7 144.3,210.6 145.1,210.5 145.9,210.5 146.8,210.7 147.6,211.3 148.4,212.2 149.2,213.4 150.0,214.8 150.8,216.2 151.6,217.6 152.5,218.9 153.3,220.2 154.1,221.3 154.9,222.4 155.7,223.4 156.5,224.3 157.3,225.1 158.2,226.0 159.0,226.8 159.8,227.7 160.6,228.6 161.4,229.5 162.2,230.5 163.0,231.4 163.9,232.4 164.7,233.3 165.5,234.2 166.3,235.1 167.1,236.0 167.9,236.8 168.7,237.5 169.5,238.2 170.4,238.9 171.2,239.6 172.0,240.2 172.8,240.7 173.6,241.3 174.4,241.8 175.2,242.4 176.1,242.9 176.9,243.4 177.7,243.9 178.5,244.4 179.3,244.9 180.1,245.4 180.9,245.8 181.8,246.2 182.6,246.6 183.4,246.9 184.2,247.1 185.0,247.4 185.8,247.6 186.6,247.7 187.4,247.8 188.3,247.9 189.1,247.9 189.9,247.9 190.7,247.8 191.5,247.7 192.3,247.6 193.1,247.3 194.0,247.1 194.8,246.7 195.6,246.3 196.4,245.8 197.2,245.3 198.0,244.7 198.8,244.0 199.7,243.3 200.5,242.6 201.3,241.8 202.1,241.1 202.9,240.3 203.7,239.6 204.5,238.9 205.4,238.3 206.2,237.8 207.0,237.3 207.8,236.9 208.6,236.5 209.4,236.2 210.2,235.9 211.0,235.6 211.9,235.4 212.7,235.0 213.5,234.6 214.3,234.1 215.1,233.6 215.9,233.1 216.7,232.6 217.6,232.2 218.4,231.8 219.2,231.2 220.0,230.4 220.8,229.4 221.6,228.5 222.4,227.8 223.3,227.3 224.1,226.9 224.9,226.3 225.7,225.6 226.5,224.9 227.3,224.3 228.1,223.8 228.9,223.2 229.8,222.8 230.6,222.3 231.4,221.8 232.2,221.3 233.0,220.7 233.8,220.2 234.6,219.6 235.5,218.9 236.3,218.3 237.1,217.6 237.9,217.0 238.7,216.3 239.5,215.8 240.3,215.4 241.2,215.2 242.0,215.1 242.8,215.1 243.6,215.2 244.4,215.2 245.2,215.1 246.0,214.9 246.9,214.7 247.7,214.3 248.5,213.9 249.3,213.4 250.1,212.9 250.9,212.3 251.7,211.8 252.5,211.2 253.4,210.7 254.2,210.2 255.0,209.7 255.8,209.3 256.6,208.8 257.4,208.3 258.2,207.8 259.1,207.2 259.9,206.5 260.7,205.8 261.5,205.0 262.3,204.2 263.1,203.4 263.9,202.7 264.8,201.9 265.6,201.3 266.4,200.8 267.2,200.3 268.0,199.9 268.8,199.6 269.6,199.2 270.4,198.8 271.3,198.4 272.1,197.8 272.9,197.1 273.7,196.4 274.5,195.6 275.3,194.8 276.1,194.1 277.0,193.6 277.8,193.1 278.6,192.7 279.4,192.2 280.2,191.7 281.0,191.3 281.8,191.2 282.7,191.3 283.5,191.7 284.3,192.3 285.1,192.8 285.9,193.4 286.7,193.9 287.5,194.4 288.3,194.7 289.2,195.0 290.0,195.1 290.8,195.1 291.6,195.1 292.4,195.0 293.2,194.9 294.0,194.8 294.9,194.8 295.7,195.1 296.5,195.7 297.3,196.4 298.1,197.3 298.9,198.3 299.7,199.2 300.6,200.1 301.4,201.0 302.2,201.7 303.0,202.4 303.8,203.1 304.6,203.7 305.4,204.4 306.3,205.0 307.1,205.8 307.9,206.6 308.7,207.4 309.5,208.4 310.3,209.3 311.1,210.3 311.9,211.3 312.8,212.2 313.6,213.2 314.4,214.2 315.2,215.1 316.0,216.0 316.8,216.9 317.6,217.8 318.5,218.7 319.3,219.6 320.1,220.5 320.9,221.4 321.7,222.4 322.5,223.3 323.3,224.2 324.2,225.2 325.0,226.1 325.8,227.1 326.6,228.0 327.4,228.9 328.2,229.8 329.0,230.7 329.8,231.6 330.7,232.5 331.5,233.4 332.3,234.3 333.1,235.2 333.9,236.0 334.7,236.9 335.5,237.7 336.4,238.6 337.2,239.4 338.0,240.3 338.8,241.1 339.6,241.9 340.4,242.7 341.2,243.5 342.1,244.3 342.9,245.1 343.7,245.8 344.5,246.6 345.3,247.3 346.1,248.1 346.9,248.8 347.8,249.5 348.6,250.2 349.4,250.9 350.2,251.6 351.0,252.3 351.8,253.0 352.6,253.6 353.4,254.3 354.3,254.9 355.1,255.5 355.9,256.2 356.7,256.8 357.5,257.3 358.3,257.9 359.1,258.5 360.0,259.0 360.8,259.6 361.6,260.1 362.4,260.6 363.2,261.2 364.0,261.7 364.8,262.2 365.7,262.7 366.5,263.1 367.3,263.6 368.1,264.0 368.9,264.4 369.7,264.7 370.5,265.1 371.3,265.3 372.2,265.6 373.0,265.8 373.8,265.9 374.6,266.0 375.4,266.0 376.2,265.9 377.0,265.8 377.9,265.5 378.7,265.2 379.5,264.8 380.3,264.3 381.1,263.6 381.9,262.9 382.7,262.1 383.6,261.3 384.4,260.3 385.2,259.2 386.0,258.0 386.8,256.8 387.6,255.5 388.4,254.2 389.3,252.8 390.1,251.4 390.9,250.0 391.7,248.6 392.5,247.3 393.3,246.0 394.1,244.8 394.9,243.7 395.8,242.7 396.6,241.9 397.4,241.3 398.2,240.9 399.0,240.6 399.8,240.4 400.6,240.4 401.5,240.4 402.3,240.3 403.1,240.3 403.9,240.3 404.7,240.2 405.5,240.1 406.3,239.9 407.2,239.6 408.0,239.1 408.8,238.6 409.6,238.1 410.4,237.5 411.2,237.0 412.0,236.4 412.8,235.6 413.7,234.6 414.5,233.5 415.3,232.5 416.1,231.8 416.9,231.2 417.7,230.8 418.5,230.5 419.4,230.2 420.2,230.1 421.0,230.0 421.8,230.1 422.6,230.1 423.4,230.1 424.2,230.1 425.1,230.1 425.9,230.0 426.7,229.8 427.5,229.6 428.3,229.5 429.1,229.3 429.9,229.2 430.7,229.1 431.6,229.0 432.4,229.0 433.2,229.0 434.0,229.1 434.8,229.1 435.6,229.1 436.4,229.1 437.3,229.1 438.1,229.0 438.9,228.9 439.7,228.7 440.5,228.5 441.3,228.3 442.1,228.0 443.0,227.8 443.8,227.4 444.6,227.1 445.4,226.7 446.2,226.3 447.0,225.9 447.8,225.5 448.7,225.0 449.5,224.4 450.3,223.9 451.1,223.3 451.9,222.7 452.7,222.0 453.5,221.4 454.3,220.8 455.2,220.3 456.0,219.8 456.8,219.5 457.6,219.2 458.4,219.1 459.2,219.0 460.0,218.9 460.9,218.8 461.7,218.6 462.5,218.2 463.3,217.8 464.1,217.3 464.9,216.8 465.7,216.3 466.6,215.9 467.4,215.3 468.2,214.7 469.0,213.9 469.8,213.0 470.6,212.2 471.4,211.5 472.2,210.8 473.1,210.2 473.9,209.5 474.7,208.9 475.5,208.5 476.3,208.3 477.1,208.1 477.9,207.9 478.8,207.8 479.6,207.6 480.4,207.4 481.2,207.0 482.0,206.5 482.8,205.9 483.6,205.2 484.5,204.4 485.3,203.5 486.1,202.7 486.9,201.9 487.7,201.2 488.5,200.6 489.3,200.1 490.2,199.7 491.0,199.6 491.8,199.9 492.6,200.5 493.4,201.2 494.2,201.9 495.0,202.5 495.8,203.0 496.7,203.4 497.5,203.6 498.3,203.7 499.1,203.7 499.9,203.6 500.7,203.3 501.5,203.1 502.4,202.9 503.2,202.8 504.0,202.8 504.8,203.1 505.6,203.5 506.4,204.0 507.2,204.5 508.1,204.9 508.9,205.3 509.7,205.6 510.5,205.8 511.3,205.8 512.1,205.8 512.9,205.8 513.7,205.7 514.6,205.6 515.4,205.5 516.2,205.4 517.0,205.3 517.8,205.2 518.6,205.1 519.4,204.9 520.3,204.6 521.1,204.3 521.9,204.0 522.7,203.5 523.5,203.0 524.3,202.5 525.1,201.9 526.0,201.2 526.8,200.5 527.6,199.8 528.4,199.0 529.2,198.2 530.0,197.3 530.8,196.4 531.7,195.5 532.5,194.6 533.3,193.7 534.1,192.8 534.9,191.9 535.7,191.0 536.5,190.3 537.3,189.8 538.2,189.6 539.0,189.8 539.8,190.2 540.6,190.8 541.4,191.4 542.2,192.1 543.0,192.8 543.9,193.5 544.7,194.3 545.5,195.0 546.3,195.6 547.1,196.3 547.9,197.0 548.7,197.8 549.6,198.6 550.4,199.4 551.2,200.2 552.0,201.2 552.8,202.1 553.6,203.1 554.4,204.2 555.2,205.3 556.1,206.5 556.9,207.6 557.7,208.7 558.5,209.9 559.3,211.0 560.1,212.2 560.9,213.3 561.8,214.4 562.6,215.5 563.4,216.6 564.2,217.7 565.0,218.7 565.8,219.7 566.6,220.6 567.5,221.4 568.3,222.1 569.1,222.7 569.9,223.3 570.7,223.8 571.5,224.2 572.3,224.6 573.1,224.9 574.0,225.3 574.8,225.6 575.6,226.0 576.4,226.4 577.2,226.8 578.0,227.3 578.8,227.8 579.7,228.4 580.5,229.0 581.3,229.6 582.1,230.2 582.9,230.8 583.7,231.4 584.5,232.0 585.4,232.6 586.2,233.1 587.0,233.6 587.8,234.0 588.6,234.4 589.4,234.7 590.2,235.0 591.1,235.2 591.9,235.4 592.7,235.6 593.5,235.7 594.3,235.9 595.1,236.0 595.9,236.2 596.7,236.3 597.6,236.4 598.4,236.6 599.2,236.7 600.0,236.7 600.8,236.8 601.6,236.9 602.4,236.9 603.3,236.9 604.1,236.8 604.9,236.7 605.7,236.6 606.5,236.4 607.3,236.3 608.1,236.1 609.0,235.8 609.8,235.5 610.6,235.3 611.4,235.0 612.2,234.6 613.0,234.3 613.8,234.0 614.6,233.6 615.5,233.2 616.3,232.9 617.1,232.5 617.9,232.1 618.7,231.7 619.5,231.3 620.3,231.0 621.2,230.8 622.0,230.7 622.8,230.7 623.6,230.7 624.4,230.8 625.2,230.9 626.0,231.0 626.9,231.1 627.7,231.1 628.5,231.1 629.3,230.9 630.1,230.7 630.9,230.3 631.7,230.0 632.6,229.6 633.4,229.4 634.2,229.1 635.0,228.9 635.8,228.7 636.6,228.2 637.4,227.5 638.2,226.6 639.1,225.7 639.9,224.8 640.7,224.1 641.5,223.5 642.3,223.2 643.1,223.1 643.9,223.2 644.8,223.3 645.6,223.4 646.4,223.4 647.2,223.4 648.0,223.2 648.8,222.9 649.6,222.5 650.5,222.0 651.3,221.5 652.1,221.0 652.9,220.5 653.7,220.0 654.5,219.4 655.3,218.7 656.1,217.9 657.0,217.1 657.8,216.3 658.6,215.6 659.4,215.2 660.2,215.1 661.0,215.3 661.8,215.8 662.7,216.4 663.5,217.1 664.3,217.7 665.1,218.2 665.9,218.6 666.7,218.7 667.5,218.7 668.4,218.5 669.2,218.2 670.0,217.7 670.8,217.3 671.6,216.8 672.4,216.4 673.2,215.9 674.1,215.4 674.9,214.8 675.7,214.3 676.5,213.8 677.3,213.5 678.1,213.5 678.9,213.8 679.7,214.3 680.6,215.0 681.4,215.7 682.2,216.5 683.0,217.2 683.8,217.7 684.6,218.0 685.4,218.2 686.3,218.3 687.1,218.2 687.9,218.0 688.7,217.8 689.5,217.6 690.3,217.4 691.1,217.1 692.0,216.9 692.8,216.7 693.6,216.4 694.4,216.3 695.2,216.3 696.0,216.3 696.8,216.5 697.6,216.7 698.5,216.9 699.3,216.9 700.1,216.9 700.9,216.7 701.7,216.4 702.5,215.9 703.3,215.4 704.2,214.9 705.0,214.5 705.8,214.3 706.6,214.1 707.4,214.0 708.2,214.0 709.0,214.0 709.9,214.0 710.7,214.0 711.5,213.9 712.3,213.8 713.1,213.7 713.9,213.5 714.7,213.4 715.5,213.3 716.4,213.3 717.2,213.3 718.0,213.1 718.8,212.8 719.6,212.2 720.4,211.5 721.2,210.7 722.1,209.9 722.9,209.2 723.7,208.7 724.5,208.4 725.3,208.4 726.1,208.5 726.9,208.6 727.8,208.8 728.6,208.9 729.4,208.9 730.2,208.9 731.0,208.9 731.8,208.8 732.6,208.6 733.5,208.4 734.3,208.2 735.1,208.0 735.9,207.7 736.7,207.4 737.5,207.1 738.3,206.8 739.1,206.7 740.0,206.8 740.8,207.1 741.6,207.6 742.4,208.2 743.2,208.8 744.0,209.5 744.8,210.1 745.7,210.6 746.5,211.1 747.3,211.5 748.1,211.8 748.9,212.0 749.7,212.2 750.5,212.4 751.4,212.6 752.2,212.8 753.0,213.0 753.8,213.2 754.6,213.5 755.4,213.8 756.2,214.0 757.0,214.3 757.9,214.7 758.7,215.0 759.5,215.3 760.3,215.5 761.1,215.8 761.9,216.1 762.7,216.3 763.6,216.5 764.4,216.6 765.2,216.8 766.0,216.9"/>
<line x1="606" y1="42" x2="628" y2="42" stroke="#0f62fe" stroke-width="2.2"/>
<text x="634" y="46" font-family="Arial" font-size="12">vx_mps</text>
</svg>