<svg xmlns="http://www.w3.org/2000/svg" width="820" height="320" viewBox="0 0 820 320">
<rect width="100%" height="100%" fill="#ffffff"/>
<text x="54" y="28" font-family="Arial" font-size="18" font-weight="700">Velocity Y</text>
<line x1="54" y1="266" x2="766" y2="266" stroke="#1f2933"/>
<line x1="54" y1="54" x2="54" y2="266" stroke="#1f2933"/>
<text x="54" y="306" font-family="Arial" font-size="12">time (s)</text>
<text x="596" y="306" font-family="Arial" font-size="12">vy (m/s)</text>
<text x="58" y="68" font-family="Arial" font-size="11">4.59</text>
<text x="58" y="260" font-family="Arial" font-size="11">-12.6</text>
<polyline fill="none" stroke="#0f62fe" stroke-width="2.2" points="54.0,147.8 54.8,148.9 55.6,149.6 56.4,149.6 57.3,148.8 58.1,146.9 58.9,144.1 59.7,140.6 60.5,137.0 61.3,133.8 62.1,132.0 63.0,132.8 63.8,136.7 64.6,142.4 65.4,148.3 66.2,153.1 67.0,155.4 67.8,153.2 68.6,143.9 69.5,131.6 70.3,120.6 71.1,111.0 71.9,102.8 72.7,95.6 73.5,89.6 74.3,84.6 75.2,80.5 76.0,77.6 76.8,75.3 77.6,73.3 78.4,71.6 79.2,70.2 80.0,69.1 80.9,68.2 81.7,67.8 82.5,67.9 83.3,68.0 84.1,68.4 84.9,69.1 85.7,69.9 86.5,70.6 87.4,71.1 88.2,71.4 89.0,71.5 89.8,71.6 90.6,71.6 91.4,71.4 92.2,71.0 93.1,70.5 93.9,69.7 94.7,68.7 95.5,67.4 96.3,65.8 97.1,63.9 97.9,61.7 98.8,59.2 99.6,56.8 100.4,55.0 101.2,54.0 102.0,54.1 102.8,55.3 103.6,57.8 104.5,61.1 105.3,64.1 106.1,67.4 106.9,68.9 107.7,66.3 108.5,64.5 109.3,63.2 110.1,62.4 111.0,62.1 111.8,62.2 112.6,62.7 113.4,63.2 114.2,63.6 115.0,64.3 115.8,65.1 116.7,66.2 117.5,67.6 118.3,69.4 119.1,71.7 119.9,74.7 120.7,77.7 121.5,80.2 122.4,81.7 123.2,82.6 124.0,83.4 124.8,84.4 125.6,85.6 126.4,87.1 127.2,88.9 128.0,90.7 128.9,92.4 129.7,95.6 130.5,95.0 131.3,91.5 132.1,87.2 132.9,83.0 133.7,79.6 134.6,77.2 135.4,76.4 136.2,78.1 137.0,81.5 137.8,84.9 138.6,87.6 139.4,89.8 140.3,92.2 141.1,94.8 141.9,98.0 142.7,102.0 143.5,106.2 144.3,109.7 145.1,112.0 145.9,113.5 146.8,114.9 147.6,116.7 148.4,118.8 149.2,121.1 150.0,123.4 150.8,125.7 151.6,128.0 152.5,130.2 153.3,132.4 154.1,134.4 154.9,136.4 155.7,138.2 156.5,139.8 157.3,141.4 158.2,142.9 159.0,144.3 159.8,145.6 160.6,146.8 161.4,148.0 162.2,149.0 163.0,150.0 163.9,150.9 164.7,151.8 165.5,152.7 166.3,153.7 167.1,154.7 167.9,155.7 168.7,156.8 169.5,157.9 170.4,159.1 171.2,160.4 172.0,161.6 172.8,162.9 173.6,164.1 174.4,165.3 175.2,166.6 176.1,167.8 176.9,169.0 177.7,170.2 178.5,171.4 179.3,172.6 180.1,173.8 180.9,175.1 181.8,176.3 182.6,177.6 183.4,178.9 184.2,180.2 185.0,181.5 185.8,182.8 186.6,184.2 187.4,185.6 188.3,187.0 189.1,188.4 189.9,189.8 190.7,191.3 191.5,192.7 192.3,194.2 193.1,195.6 194.0,197.0 194.8,198.4 195.6,199.6 196.4,200.8 197.2,201.9 198.0,202.8 198.8,203.6 199.7,204.2 200.5,204.7 201.3,204.9 202.1,205.0 202.9,204.9 203.7,204.4 204.5,203.7 205.4,202.5 206.2,200.7 207.0,198.3 207.8,195.6 208.6,192.5 209.4,189.4 210.2,186.4 211.0,183.4 211.9,180.4 212.7,177.7 213.5,175.3 214.3,173.4 215.1,172.0 215.9,171.4 216.7,171.3 217.6,171.7 218.4,172.3 219.2,173.1 220.0,173.7 220.8,174.1 221.6,174.6 222.4,175.3 223.3,175.8 224.1,175.8 224.9,174.7 225.7,172.4 226.5,169.0 227.3,164.9 228.1,160.3 228.9,155.8 229.8,151.6 230.6,147.8 231.4,144.4 232.2,141.2 233.0,138.3 233.8,135.7 234.6,133.4 235.5,131.5 236.3,129.8 237.1,128.4 237.9,127.2 238.7,125.7 239.5,123.8 240.3,121.6 241.2,119.0 242.0,116.2 242.8,113.2 243.6,110.3 244.4,107.3 245.2,104.6 246.0,102.1 246.9,99.8 247.7,97.7 248.5,96.0 249.3,94.5 250.1,93.3 250.9,92.4 251.7,91.6 252.5,91.1 253.4,90.4 254.2,89.6 255.0,88.5 255.8,87.2 256.6,85.7 257.4,84.2 258.2,82.8 259.1,81.6 259.9,80.6 260.7,79.9 261.5,79.5 262.3,79.5 263.1,79.9 263.9,80.8 264.8,82.1 265.6,83.7 266.4,85.7 267.2,87.9 268.0,90.3 268.8,92.8 269.6,95.3 270.4,97.6 271.3,99.6 272.1,101.1 272.9,102.1 273.7,102.7 274.5,102.9 275.3,103.0 276.1,102.9 277.0,102.5 277.8,102.0 278.6,101.8 279.4,102.4 280.2,104.4 281.0,107.5 281.8,111.4 282.7,115.8 283.5,119.9 284.3,123.8 285.1,127.5 285.9,130.8 286.7,133.9 287.5,136.9 288.3,139.8 289.2,142.6 290.0,145.2 290.8,147.8 291.6,150.4 292.4,153.0 293.2,155.9 294.0,158.8 294.9,162.1 295.7,165.7 296.5,169.4 297.3,173.1 298.1,176.6 298.9,180.0 299.7,183.4 300.6,186.6 301.4,189.7 302.2,192.7 303.0,195.5 303.8,198.2 304.6,200.8 305.4,203.3 306.3,205.7 307.1,208.0 307.9,210.2 308.7,212.2 309.5,214.1 310.3,215.8 311.1,217.4 311.9,218.8 312.8,220.0 313.6,221.2 314.4,222.2 315.2,223.2 316.0,224.0 316.8,224.8 317.6,225.5 318.5,226.1 319.3,226.7 320.1,227.2 320.9,227.6 321.7,227.9 322.5,228.2 323.3,228.5 324.2,228.7 325.0,228.9 325.8,229.0 326.6,229.1 327.4,229.1 328.2,229.1 329.0,229.1 329.8,229.1 330.7,229.0 331.5,229.0 332.3,228.8 333.1,228.7 333.9,228.5 334.7,228.4 335.5,228.1 336.4,227.9 337.2,227.7 338.0,227.4 338.8,227.1 339.6,226.8 340.4,226.5 341.2,226.1 342.1,225.8 342.9,225.5 343.7,225.1 344.5,224.8 345.3,224.4 346.1,224.1 346.9,223.8 347.8,223.5 348.6,223.1 349.4,222.8 350.2,222.5 351.0,222.2 351.8,222.0 352.6,221.7 353.4,221.5 354.3,221.3 355.1,221.1 355.9,220.9 356.7,220.7 357.5,220.6 358.3,220.6 359.1,220.6 360.0,220.6 360.8,220.7 361.6,220.9 362.4,221.2 363.2,221.6 364.0,222.1 364.8,222.6 365.7,223.2 366.5,224.0 367.3,224.8 368.1,225.8 368.9,226.9 369.7,228.0 370.5,229.3 371.3,230.7 372.2,232.3 373.0,233.9 373.8,235.7 374.6,237.5 375.4,239.5 376.2,241.6 377.0,243.7 377.9,245.9 378.7,248.1 379.5,250.4 380.3,252.6 381.1,254.7 381.9,256.8 382.7,258.7 383.6,260.5 384.4,262.0 385.2,263.4 386.0,264.5 386.8,265.3 387.6,265.7 388.4,265.9 389.3,265.7 390.1,265.1 390.9,264.1 391.7,262.8 392.5,261.2 393.3,259.4 394.1,257.4 394.9,255.0 395.8,252.5 396.6,249.7 397.4,246.7 398.2,243.2 399.0,239.5 399.8,235.5 400.6,231.2 401.5,226.8 402.3,222.4 403.1,218.2 403.9,214.2 404.7,210.3 405.5,206.5 406.3,202.9 407.2,199.6 408.0,196.7 408.8,194.3 409.6,192.3 410.4,190.9 411.2,189.8 412.0,189.1 412.8,188.1 413.7,186.6 414.5,184.9 415.3,183.4 416.1,182.1 416.9,181.0 417.7,179.3 418.5,176.6 419.4,173.1 420.2,168.7 421.0,163.9 421.8,158.6 422.6,153.4 423.4,148.6 424.2,144.1 425.1,140.0 425.9,136.1 426.7,132.5 427.5,129.3 428.3,126.2 429.1,123.4 429.9,120.7 430.7,118.1 431.6,115.6 432.4,113.1 433.2,110.7 434.0,108.3 434.8,105.9 435.6,103.6 436.4,101.4 437.3,99.3 438.1,97.2 438.9,95.3 439.7,93.4 440.5,91.7 441.3,90.0 442.1,88.5 443.0,87.0 443.8,85.7 444.6,84.4 445.4,83.1 446.2,82.0 447.0,80.9 447.8,79.9 448.7,79.1 449.5,78.3 450.3,77.7 451.1,77.2 451.9,76.9 452.7,76.8 453.5,77.0 454.3,77.4 455.2,78.1 456.0,79.1 456.8,80.6 457.6,82.4 458.4,84.5 459.2,86.7 460.0,89.1 460.9,91.6 461.7,94.0 462.5,96.0 463.3,97.6 464.1,98.4 464.9,98.5 465.7,97.9 466.6,96.9 467.4,95.7 468.2,94.6 469.0,93.7 469.8,93.0 470.6,92.5 471.4,92.0 472.2,92.1 473.1,93.1 473.9,95.3 474.7,98.4 475.5,102.4 476.3,106.7 477.1,110.9 477.9,114.8 478.8,118.4 479.6,121.9 480.4,125.0 481.2,127.9 482.0,130.3 482.8,132.5 483.6,134.2 484.5,135.8 485.3,137.1 486.1,138.1 486.9,138.7 487.7,139.0 488.5,139.3 489.3,140.3 490.2,142.6 491.0,146.1 491.8,150.3 492.6,154.9 493.4,159.3 494.2,163.5 495.0,167.4 495.8,171.0 496.7,174.4 497.5,177.6 498.3,180.6 499.1,183.4 499.9,186.0 500.7,188.4 501.5,190.7 502.4,193.1 503.2,195.7 504.0,198.6 504.8,201.6 505.6,204.7 506.4,207.9 507.2,211.1 508.1,214.2 508.9,217.2 509.7,220.1 510.5,222.9 511.3,225.5 512.1,228.1 512.9,230.5 513.7,232.9 514.6,235.3 515.4,237.7 516.2,240.1 517.0,242.5 517.8,244.9 518.6,247.2 519.4,249.4 520.3,251.6 521.1,253.7 521.9,255.6 522.7,257.5 523.5,259.1 524.3,260.6 525.1,262.0 526.0,263.2 526.8,264.1 527.6,264.9 528.4,265.5 529.2,265.9 530.0,266.0 530.8,265.9 531.7,265.6 532.5,264.9 533.3,263.9 534.1,262.3 534.9,260.1 535.7,257.0 536.5,253.1 537.3,248.6 538.2,243.9 539.0,239.3 539.8,234.8 540.6,230.1 541.4,225.3 542.2,220.6 543.0,216.1 543.9,211.9 544.7,207.9 545.5,204.0 546.3,200.4 547.1,196.9 547.9,193.5 548.7,190.2 549.6,186.9 550.4,183.7 551.2,180.5 552.0,177.6 552.8,174.7 553.6,171.9 554.4,169.3 555.2,166.8 556.1,164.5 556.9,162.3 557.7,160.3 558.5,158.5 559.3,156.7 560.1,155.1 560.9,153.5 561.8,152.0 562.6,150.5 563.4,149.0 564.2,147.4 565.0,145.7 565.8,143.8 566.6,141.9 567.5,139.9 568.3,137.8 569.1,135.6 569.9,133.5 570.7,131.4 571.5,129.3 572.3,127.3 573.1,125.4 574.0,123.5 574.8,121.6 575.6,119.7 576.4,117.8 577.2,116.0 578.0,114.2 578.8,112.4 579.7,110.6 580.5,108.9 581.3,107.2 582.1,105.6 582.9,104.0 583.7,102.4 584.5,100.7 585.4,99.1 586.2,97.5 587.0,95.8 587.8,94.2 588.6,92.5 589.4,90.9 590.2,89.2 591.1,87.6 591.9,86.1 592.7,84.5 593.5,83.0 594.3,81.5 595.1,80.0 595.9,78.6 596.7,77.1 597.6,75.7 598.4,74.3 599.2,72.9 600.0,71.5 600.8,70.1 601.6,68.8 602.4,67.5 603.3,66.2 604.1,65.0 604.9,63.9 605.7,62.8 606.5,61.9 607.3,61.0 608.1,60.2 609.0,59.5 609.8,58.8 610.6,58.3 611.4,57.8 612.2,57.5 613.0,57.2 613.8,57.0 614.6,56.9 615.5,56.8 616.3,56.9 617.1,57.1 617.9,57.6 618.7,58.2 619.5,59.3 620.3,60.8 621.2,62.8 622.0,65.1 622.8,67.6 623.6,70.2 624.4,72.8 625.2,75.3 626.0,77.9 626.9,80.4 627.7,82.9 628.5,85.3 629.3,87.3 630.1,88.9 630.9,89.8 631.7,90.1 632.6,89.9 633.4,89.3 634.2,88.4 635.0,87.3 635.8,86.3 636.6,85.6 637.4,85.3 638.2,85.7 639.1,86.6 639.9,88.1 640.7,90.3 641.5,93.1 642.3,96.6 643.1,100.2 643.9,103.9 644.8,107.7 645.6,111.3 646.4,114.8 647.2,118.0 648.0,121.0 648.8,123.7 649.6,126.0 650.5,127.8 651.3,129.1 652.1,129.8 652.9,130.1 653.7,130.1 654.5,130.0 655.3,130.1 656.1,130.6 657.0,131.6 657.8,133.1 658.6,135.2 659.4,138.0 660.2,141.3 661.0,144.9 661.8,148.2 662.7,151.6 663.5,154.8 664.3,158.0 665.1,161.2 665.9,164.2 666.7,167.1 667.5,169.8 668.4,172.1 669.2,173.9 670.0,175.3 670.8,176.0 671.6,176.1 672.4,175.9 673.2,175.4 674.1,175.0 674.9,174.7 675.7,175.0 676.5,175.8 677.3,177.3 678.1,179.1 678.9,180.9 679.7,182.8 680.6,184.6 681.4,186.2 682.2,187.9 683.0,189.6 683.8,191.3 684.6,193.0 685.4,194.5 686.3,195.9 687.1,197.0 687.9,197.6 688.7,197.8 689.5,197.6 690.3,197.0 691.1,196.1 692.0,195.1 692.8,194.1 693.6,193.3 694.4,192.9 695.2,192.9 696.0,193.3 696.8,193.9 697.6,194.7 698.5,195.5 699.3,196.4 700.1,197.2 700.9,198.0 701.7,198.5 702.5,198.7 703.3,198.4 704.2,197.7 705.0,196.4 705.8,194.7 706.6,192.5 707.4,189.9 708.2,187.1 709.0,184.4 709.9,181.5 710.7,178.8 711.5,176.3 712.3,174.1 713.1,172.3 713.9,171.1 714.7,170.5 715.5,170.4 716.4,170.7 717.2,171.1 718.0,171.6 718.8,172.0 719.6,172.0 720.4,171.6 721.2,170.9 722.1,169.5 722.9,167.4 723.7,164.4 724.5,160.7 725.3,157.0 726.1,153.2 726.9,149.5 727.8,145.8 728.6,142.4 729.4,139.3 730.2,136.4 731.0,133.8 731.8,131.7 732.6,129.9 733.5,128.6 734.3,127.7 735.1,127.0 735.9,126.4 736.7,125.8 737.5,124.8 738.3,123.3 739.1,121.3 740.0,119.0 740.8,116.7 741.6,114.3 742.4,111.9 743.2,109.4 744.0,106.9 744.8,104.6 745.7,102.3 746.5,100.2 747.3,98.2 748.1,96.5 748.9,94.9 749.7,93.4 750.5,92.1 751.4,90.8 752.2,89.6 753.0,88.3 753.8,87.0 754.6,85.7 755.4,84.4 756.2,83.0 757.0,81.6 757.9,80.3 758.7,78.9 759.5,77.6 760.3,76.3 761.1,75.1 761.9,73.9 762.7,72.8 763.6,71.8 764.4,70.8 765.2,70.0 766.0,69.1"/>
<line x1="606" y1="42" x2="628" y2="42" stroke="#0f62fe" stroke-width="2.2"/>
<text x="634" y="46" font-family="Arial" font-size="12">vy_mps</text>
</svg>