<svg xmlns="http://www.w3.org/2000/svg" width="820" height="320" viewBox="0 0 820 320">
<rect width="100%" height="100%" fill="#ffffff"/>
<text x="54" y="28" font-family="Arial" font-size="18" font-weight="700">Speed</text>
<line x1="54" y1="266" x2="766" y2="266" stroke="#1f2933"/>
<line x1="54" y1="54" x2="54" y2="266" stroke="#1f2933"/>
<text x="54" y="306" font-family="Arial" font-size="12">time (s)</text>
<text x="596" y="306" font-family="Arial" font-size="12">speed (m/s)</text>
<text x="58" y="68" font-family="Arial" font-size="11">48.1</text>
<text x="58" y="260" font-family="Arial" font-size="11">22.8</text>
<polyline fill="none" stroke="#0f62fe" stroke-width="2.2" points="54.0,54.0 54.8,55.1 55.6,56.2 56.4,57.2 57.3,58.3 58.1,59.4 58.9,60.8 59.7,62.2 60.5,63.5 61.3,64.5 62.1,65.0 63.0,65.5 63.8,66.6 64.6,68.0 65.4,69.3 66.2,70.2 67.0,70.4 67.8,71.2 68.6,74.4 69.5,79.5 70.3,85.1 71.1,90.5 71.9,95.6 72.7,100.3 73.5,104.7 74.3,109.1 75.2,113.4 76.0,117.9 76.8,122.7 77.6,127.4 78.4,132.2 79.2,136.9 80.0,141.6 80.9,146.3 81.7,151.0 82.5,155.6 83.3,160.2 84.1,164.6 84.9,168.9 85.7,172.9 86.5,176.7 87.4,180.4 88.2,183.9 89.0,187.3 89.8,190.5 90.6,193.3 91.4,195.9 92.2,198.2 93.1,200.3 93.9,202.2 94.7,204.0 95.5,205.7 96.3,207.4 97.1,209.1 97.9,210.9 98.8,212.9 99.6,215.4 100.4,218.1 101.2,221.2 102.0,224.3 102.8,227.5 103.6,230.3 104.5,232.4 105.3,233.5 106.1,233.7 106.9,231.8 107.7,231.1 108.5,232.2 109.3,233.9 110.1,236.1 111.0,238.5 111.8,241.1 112.6,243.9 113.4,246.6 114.2,249.4 115.0,252.2 115.8,254.7 116.7,257.0 117.5,259.0 118.3,260.6 119.1,261.5 119.9,261.6 120.7,261.3 121.5,260.9 122.4,260.7 123.2,261.1 124.0,261.6 124.8,262.4 125.6,263.2 126.4,264.1 127.2,264.9 128.0,265.5 128.9,266.0 129.7,266.0 130.5,264.7 131.3,263.8 132.1,263.2 132.9,262.6 133.7,261.3 134.6,259.0 135.4,255.9 136.2,253.3 137.0,251.9 137.8,251.7 138.6,251.9 139.4,252.5 140.3,253.3 141.1,254.0 141.9,254.5 142.7,254.7 143.5,254.2 144.3,252.7 145.1,250.4 145.9,247.7 146.8,245.0 147.6,242.6 148.4,240.6 149.2,239.2 150.0,238.3 150.8,237.8 151.6,237.4 152.5,237.2 153.3,237.0 154.1,236.8 154.9,236.6 155.7,236.4 156.5,236.2 157.3,236.1 158.2,236.0 159.0,236.0 159.8,235.9 160.6,236.0 161.4,236.0 162.2,236.1 163.0,236.3 163.9,236.5 164.7,236.7 165.5,236.8 166.3,237.0 167.1,237.1 167.9,237.3 168.7,237.4 169.5,237.4 170.4,237.5 171.2,237.5 172.0,237.5 172.8,237.6 173.6,237.6 174.4,237.6 175.2,237.6 176.1,237.6 176.9,237.6 177.7,237.6 178.5,237.5 179.3,237.5 180.1,237.5 180.9,237.5 181.8,237.5 182.6,237.4 183.4,237.3 184.2,237.2 185.0,237.1 185.8,237.0 186.6,236.8 187.4,236.6 188.3,236.5 189.1,236.3 189.9,236.1 190.7,235.9 191.5,235.8 192.3,235.6 193.1,235.4 194.0,235.2 194.8,234.9 195.6,234.7 196.4,234.5 197.2,234.3 198.0,234.0 198.8,233.8 199.7,233.6 200.5,233.4 201.3,233.2 202.1,233.0 202.9,232.8 203.7,232.7 204.5,232.5 205.4,232.5 206.2,232.6 207.0,232.9 207.8,233.4 208.6,234.1 209.4,234.8 210.2,235.6 211.0,236.2 211.9,236.8 212.7,237.2 213.5,237.5 214.3,237.7 215.1,237.9 215.9,238.1 216.7,238.4 217.6,238.7 218.4,239.0 219.2,239.1 220.0,239.2 220.8,238.6 221.6,237.0 222.4,234.8 223.3,232.2 224.1,229.4 224.9,226.8 225.7,224.7 226.5,223.2 227.3,222.5 228.1,222.5 228.9,222.7 229.8,222.9 230.6,223.2 231.4,223.4 232.2,223.5 233.0,223.7 233.8,223.8 234.6,223.9 235.5,223.9 236.3,224.0 237.1,224.0 237.9,224.0 238.7,223.9 239.5,223.8 240.3,223.7 241.2,223.7 242.0,223.9 242.8,224.3 243.6,224.7 244.4,225.1 245.2,225.4 246.0,225.6 246.9,225.8 247.7,225.9 248.5,226.0 249.3,226.0 250.1,226.0 250.9,226.1 251.7,226.1 252.5,226.1 253.4,226.1 254.2,226.1 255.0,226.2 255.8,226.2 256.6,226.3 257.4,226.4 258.2,226.5 259.1,226.5 259.9,226.4 260.7,226.1 261.5,225.7 262.3,225.3 263.1,224.9 263.9,224.7 264.8,224.7 265.6,224.7 266.4,224.9 267.2,225.1 268.0,225.4 268.8,225.7 269.6,226.0 270.4,226.2 271.3,226.4 272.1,226.5 272.9,226.6 273.7,226.7 274.5,226.6 275.3,225.9 276.1,224.5 277.0,222.8 277.8,220.8 278.6,218.6 279.4,216.5 280.2,214.6 281.0,213.5 281.8,213.2 282.7,213.7 283.5,214.5 284.3,215.5 285.1,216.7 285.9,217.7 286.7,218.7 287.5,219.5 288.3,220.2 289.2,220.7 290.0,221.2 290.8,221.6 291.6,221.9 292.4,222.1 293.2,222.1 294.0,221.9 294.9,221.5 295.7,221.1 296.5,220.9 297.3,221.1 298.1,221.4 298.9,221.8 299.7,222.3 300.6,222.8 301.4,223.3 302.2,223.7 303.0,224.1 303.8,224.4 304.6,224.6 305.4,224.7 306.3,224.9 307.1,225.0 307.9,225.2 308.7,225.5 309.5,225.8 310.3,226.2 311.1,226.6 311.9,227.0 312.8,227.4 313.6,227.9 314.4,228.3 315.2,228.7 316.0,229.1 316.8,229.4 317.6,229.8 318.5,230.1 319.3,230.5 320.1,230.8 320.9,231.2 321.7,231.6 322.5,232.0 323.3,232.4 324.2,232.8 325.0,233.2 325.8,233.6 326.6,234.0 327.4,234.4 328.2,234.7 329.0,235.1 329.8,235.4 330.7,235.8 331.5,236.1 332.3,236.4 333.1,236.6 333.9,236.9 334.7,237.2 335.5,237.4 336.4,237.7 337.2,237.9 338.0,238.1 338.8,238.4 339.6,238.6 340.4,238.8 341.2,238.9 342.1,239.1 342.9,239.3 343.7,239.4 344.5,239.6 345.3,239.7 346.1,239.8 346.9,239.9 347.8,240.0 348.6,240.1 349.4,240.2 350.2,240.2 351.0,240.3 351.8,240.3 352.6,240.4 353.4,240.4 354.3,240.4 355.1,240.4 355.9,240.4 356.7,240.4 357.5,240.3 358.3,240.3 359.1,240.2 360.0,240.0 360.8,239.9 361.6,239.8 362.4,239.6 363.2,239.5 364.0,239.3 364.8,239.2 365.7,239.0 366.5,238.8 367.3,238.6 368.1,238.4 368.9,238.2 369.7,238.0 370.5,237.7 371.3,237.5 372.2,237.2 373.0,237.0 373.8,236.7 374.6,236.4 375.4,236.1 376.2,235.8 377.0,235.5 377.9,235.2 378.7,234.9 379.5,234.5 380.3,234.1 381.1,233.5 381.9,232.9 382.7,232.2 383.6,231.6 384.4,230.9 385.2,230.3 386.0,229.7 386.8,229.2 387.6,228.8 388.4,228.4 389.3,228.1 390.1,227.9 390.9,227.8 391.7,227.7 392.5,227.7 393.3,227.7 394.1,227.8 394.9,227.9 395.8,228.0 396.6,228.2 397.4,228.4 398.2,228.8 399.0,229.4 399.8,230.1 400.6,231.1 401.5,232.3 402.3,233.6 403.1,234.8 403.9,235.9 404.7,236.9 405.5,237.7 406.3,238.4 407.2,239.1 408.0,239.6 408.8,240.1 409.6,240.6 410.4,241.0 411.2,241.4 412.0,241.7 412.8,241.8 413.7,241.7 414.5,240.9 415.3,239.2 416.1,236.8 416.9,234.2 417.7,231.5 418.5,229.1 419.4,227.1 420.2,225.7 421.0,225.0 421.8,224.9 422.6,224.9 423.4,225.0 424.2,225.1 425.1,225.2 425.9,225.3 426.7,225.4 427.5,225.6 428.3,225.7 429.1,225.8 429.9,226.0 430.7,226.1 431.6,226.4 432.4,226.6 433.2,226.9 434.0,227.2 434.8,227.5 435.6,227.8 436.4,228.1 437.3,228.4 438.1,228.6 438.9,228.8 439.7,229.0 440.5,229.2 441.3,229.3 442.1,229.5 443.0,229.6 443.8,229.8 444.6,229.9 445.4,230.0 446.2,230.1 447.0,230.2 447.8,230.3 448.7,230.3 449.5,230.4 450.3,230.4 451.1,230.4 451.9,230.4 452.7,230.4 453.5,230.3 454.3,230.3 455.2,230.3 456.0,230.3 456.8,230.5 457.6,230.8 458.4,231.2 459.2,231.7 460.0,232.2 460.9,232.6 461.7,232.9 462.5,233.0 463.3,233.1 464.1,233.1 464.9,233.2 465.7,233.4 466.6,233.8 467.4,234.1 468.2,234.4 469.0,234.5 469.8,233.6 470.6,232.0 471.4,230.0 472.2,227.7 473.1,225.4 473.9,223.5 474.7,222.3 475.5,222.0 476.3,222.3 477.1,222.8 477.9,223.4 478.8,223.9 479.6,224.3 480.4,224.6 481.2,224.8 482.0,225.0 482.8,225.2 483.6,225.4 484.5,225.6 485.3,225.3 486.1,224.5 486.9,223.0 487.7,221.2 488.5,219.1 489.3,216.9 490.2,214.9 491.0,213.6 491.8,213.1 492.6,213.7 493.4,214.5 494.2,215.6 495.0,216.6 495.8,217.5 496.7,218.3 497.5,218.9 498.3,219.4 499.1,219.8 499.9,220.1 500.7,220.4 501.5,220.6 502.4,220.6 503.2,220.6 504.0,220.6 504.8,220.7 505.6,221.0 506.4,221.4 507.2,221.9 508.1,222.4 508.9,222.8 509.7,223.1 510.5,223.4 511.3,223.5 512.1,223.5 512.9,223.4 513.7,223.3 514.6,223.1 515.4,222.9 516.2,222.6 517.0,222.4 517.8,222.1 518.6,221.7 519.4,221.3 520.3,220.8 521.1,220.2 521.9,219.6 522.7,218.9 523.5,218.2 524.3,217.4 525.1,216.6 526.0,215.7 526.8,214.8 527.6,213.8 528.4,212.7 529.2,211.6 530.0,210.4 530.8,209.2 531.7,207.9 532.5,206.7 533.3,205.6 534.1,204.6 534.9,204.0 535.7,203.9 536.5,204.4 537.3,205.3 538.2,206.5 539.0,207.7 539.8,209.3 540.6,211.1 541.4,213.1 542.2,215.1 543.0,217.0 543.9,218.8 544.7,220.5 545.5,222.1 546.3,223.6 547.1,224.9 547.9,226.2 548.7,227.5 549.6,228.7 550.4,229.9 551.2,231.1 552.0,232.3 552.8,233.5 553.6,234.8 554.4,236.1 555.2,237.4 556.1,238.8 556.9,240.1 557.7,241.4 558.5,242.6 559.3,243.7 560.1,244.8 560.9,245.9 561.8,246.9 562.6,247.8 563.4,248.7 564.2,249.5 565.0,250.2 565.8,250.9 566.6,251.5 567.5,252.0 568.3,252.4 569.1,252.8 569.9,253.1 570.7,253.3 571.5,253.4 572.3,253.5 573.1,253.5 574.0,253.5 574.8,253.5 575.6,253.4 576.4,253.4 577.2,253.4 578.0,253.4 578.8,253.4 579.7,253.5 580.5,253.5 581.3,253.7 582.1,253.8 582.9,253.9 583.7,254.0 584.5,254.0 585.4,254.1 586.2,254.1 587.0,254.1 587.8,254.0 588.6,254.0 589.4,253.9 590.2,253.7 591.1,253.6 591.9,253.5 592.7,253.3 593.5,253.2 594.3,253.0 595.1,252.8 595.9,252.7 596.7,252.5 597.6,252.4 598.4,252.2 599.2,252.1 600.0,251.9 600.8,251.8 601.6,251.6 602.4,251.4 603.3,251.3 604.1,251.1 604.9,250.9 605.7,250.7 606.5,250.5 607.3,250.3 608.1,250.2 609.0,250.0 609.8,249.8 610.6,249.6 611.4,249.5 612.2,249.3 613.0,249.2 613.8,249.0 614.6,248.9 615.5,248.7 616.3,248.6 617.1,248.4 617.9,248.3 618.7,248.1 619.5,248.0 620.3,247.9 621.2,248.0 622.0,248.2 622.8,248.6 623.6,249.1 624.4,249.5 625.2,250.0 626.0,250.4 626.9,250.7 627.7,250.9 628.5,251.1 629.3,251.1 630.1,251.1 630.9,251.1 631.7,251.2 632.6,251.4 633.4,251.6 634.2,251.9 635.0,252.2 635.8,252.5 636.6,252.5 637.4,252.4 638.2,252.0 639.1,251.0 639.9,249.5 640.7,247.8 641.5,246.4 642.3,245.4 643.1,244.7 643.9,244.4 644.8,244.3 645.6,244.2 646.4,244.1 647.2,243.9 648.0,243.6 648.8,243.3 649.6,242.9 650.5,242.7 651.3,242.5 652.1,242.4 652.9,242.5 653.7,242.6 654.5,242.7 655.3,242.8 656.1,242.7 657.0,242.4 657.8,241.5 658.6,240.4 659.4,239.1 660.2,238.2 661.0,237.8 661.8,237.7 662.7,237.8 663.5,238.2 664.3,238.6 665.1,239.0 665.9,239.1 666.7,239.1 667.5,238.9 668.4,238.7 669.2,238.6 670.0,238.5 670.8,238.6 671.6,238.7 672.4,238.9 673.2,239.2 674.1,239.4 674.9,239.5 675.7,239.5 676.5,239.4 677.3,239.2 678.1,238.9 678.9,238.8 679.7,239.0 680.6,239.4 681.4,240.0 682.2,240.5 683.0,241.0 683.8,241.4 684.6,241.5 685.4,241.6 686.3,241.6 687.1,241.6 687.9,241.5 688.7,241.6 689.5,241.7 690.3,241.8 691.1,242.1 692.0,242.3 692.8,242.5 693.6,242.6 694.4,242.8 695.2,243.0 696.0,243.2 696.8,243.5 697.6,243.8 698.5,244.0 699.3,244.2 700.1,244.2 700.9,244.2 701.7,244.1 702.5,243.9 703.3,243.7 704.2,243.4 705.0,243.2 705.8,243.1 706.6,243.2 707.4,243.5 708.2,244.0 709.0,244.6 709.9,245.2 710.7,245.7 711.5,246.1 712.3,246.4 713.1,246.6 713.9,246.8 714.7,247.0 715.5,247.3 716.4,247.6 717.2,247.8 718.0,248.0 718.8,248.1 719.6,248.0 720.4,247.7 721.2,246.7 722.1,245.5 722.9,244.3 723.7,243.4 724.5,242.9 725.3,242.7 726.1,242.6 726.9,242.8 727.8,243.0 728.6,243.2 729.4,243.4 730.2,243.5 731.0,243.6 731.8,243.6 732.6,243.6 733.5,243.7 734.3,243.7 735.1,243.7 735.9,243.7 736.7,243.7 737.5,243.6 738.3,243.4 739.1,243.2 740.0,243.0 740.8,242.9 741.6,243.0 742.4,243.3 743.2,243.7 744.0,244.2 744.8,244.7 745.7,245.1 746.5,245.5 747.3,245.8 748.1,246.1 748.9,246.3 749.7,246.5 750.5,246.7 751.4,246.8 752.2,247.0 753.0,247.1 753.8,247.3 754.6,247.5 755.4,247.7 756.2,247.9 757.0,248.1 757.9,248.4 758.7,248.6 759.5,248.9 760.3,249.1 761.1,249.3 761.9,249.5 762.7,249.7 763.6,249.9 764.4,250.0 765.2,250.2 766.0,250.3"/>
<line x1="606" y1="42" x2="628" y2="42" stroke="#0f62fe" stroke-width="2.2"/>
<text x="634" y="46" font-family="Arial" font-size="12">speed_mps</text>
<polyline fill="none" stroke="#24a148" stroke-width="2.2" points="54.0,54.0 54.8,55.1 55.6,56.2 56.4,57.2 57.3,58.3 58.1,59.4 58.9,60.8 59.7,62.2 60.5,63.5 61.3,64.5 62.1,65.0 63.0,65.5 63.8,66.6 64.6,68.0 65.4,69.3 66.2,70.2 67.0,70.4 67.8,71.2 68.6,74.4 69.5,79.5 70.3,85.1 71.1,90.5 71.9,95.6 72.7,100.3 73.5,104.7 74.3,109.1 75.2,113.4 76.0,117.9 76.8,122.7 77.6,127.4 78.4,132.2 79.2,136.9 80.0,141.6 80.9,146.3 81.7,151.0 82.5,155.6 83.3,160.2 84.1,164.6 84.9,168.9 85.7,172.9 86.5,176.7 87.4,180.4 88.2,183.9 89.0,187.3 89.8,190.5 90.6,193.3 91.4,195.9 92.2,198.2 93.1,200.3 93.9,202.2 94.7,204.0 95.5,205.7 96.3,207.4 97.1,209.1 97.9,210.9 98.8,212.9 99.6,215.4 100.4,218.1 101.2,221.2 102.0,224.3 102.8,227.5 103.6,230.3 104.5,232.4 105.3,233.5 106.1,233.7 106.9,231.8 107.7,231.1 108.5,232.2 109.3,233.9 110.1,236.1 111.0,238.5 111.8,241.1 112.6,243.9 113.4,246.6 114.2,249.4 115.0,252.2 115.8,254.7 116.7,257.0 117.5,259.0 118.3,260.6 119.1,261.5 119.9,261.6 120.7,261.3 121.5,260.9 122.4,260.7 123.2,261.1 124.0,261.6 124.8,262.4 125.6,263.2 126.4,264.1 127.2,264.9 128.0,265.5 128.9,266.0 129.7,266.0 130.5,264.7 131.3,263.8 132.1,263.2 132.9,262.6 133.7,261.3 134.6,259.0 135.4,255.9 136.2,253.3 137.0,251.9 137.8,251.7 138.6,251.9 139.4,252.5 140.3,253.3 141.1,254.0 141.9,254.5 142.7,254.7 143.5,254.2 144.3,252.7 145.1,250.4 145.9,247.7 146.8,245.0 147.6,242.6 148.4,240.6 149.2,239.2 150.0,238.3 150.8,237.8 151.6,237.4 152.5,237.2 153.3,237.0 154.1,236.8 154.9,236.6 155.7,236.4 156.5,236.2 157.3,236.1 158.2,236.0 159.0,236.0 159.8,235.9 160.6,236.0 161.4,236.0 162.2,236.1 163.0,236.3 163.9,236.5 164.7,236.7 165.5,236.8 166.3,237.0 167.1,237.1 167.9,237.3 168.7,237.4 169.5,237.4 170.4,237.5 171.2,237.5 172.0,237.5 172.8,237.6 173.6,237.6 174.4,237.6 175.2,237.6 176.1,237.6 176.9,237.6 177.7,237.6 178.5,237.5 179.3,237.5 180.1,237.5 180.9,237.5 181.8,237.5 182.6,237.4 183.4,237.3 184.2,237.2 185.0,237.1 185.8,237.0 186.6,236.8 187.4,236.6 188.3,236.5 189.1,236.3 189.9,236.1 190.7,235.9 191.5,235.8 192.3,235.6 193.1,235.4 194.0,235.2 194.8,234.9 195.6,234.7 196.4,234.5 197.2,234.3 198.0,234.0 198.8,233.8 199.7,233.6 200.5,233.4 201.3,233.2 202.1,233.0 202.9,232.8 203.7,232.7 204.5,232.5 205.4,232.5 206.2,232.6 207.0,232.9 207.8,233.4 208.6,234.1 209.4,234.8 210.2,235.6 211.0,236.2 211.9,236.8 212.7,237.2 213.5,237.5 214.3,237.7 215.1,237.9 215.9,238.1 216.7,238.4 217.6,238.7 218.4,239.0 219.2,239.1 220.0,239.2 220.8,238.6 221.6,237.0 222.4,234.8 223.3,232.2 224.1,229.4 224.9,226.8 225.7,224.7 226.5,223.2 227.3,222.5 228.1,222.5 228.9,222.7 229.8,222.9 230.6,223.2 231.4,223.4 232.2,223.5 233.0,223.7 233.8,223.8 234.6,223.9 235.5,223.9 236.3,224.0 237.1,224.0 237.9,224.0 238.7,223.9 239.5,223.8 240.3,223.7 241.2,223.7 242.0,223.9 242.8,224.3 243.6,224.7 244.4,225.1 245.2,225.4 246.0,225.6 246.9,225.8 247.7,225.9 248.5,226.0 249.3,226.0 250.1,226.0 250.9,226.1 251.7,226.1 252.5,226.1 253.4,226.1 254.2,226.1 255.0,226.2 255.8,226.2 256.6,226.3 257.4,226.4 258.2,226.5 259.1,226.5 259.9,226.4 260.7,226.1 261.5,225.7 262.3,225.3 263.1,224.9 263.9,224.7 264.8,224.7 265.6,224.7 266.4,224.9 267.2,225.1 268.0,225.4 268.8,225.7 269.6,226.0 270.4,226.2 271.3,226.4 272.1,226.5 272.9,226.6 273.7,226.7 274.5,226.6 275.3,225.9 276.1,224.5 277.0,222.8 277.8,220.8 278.6,218.6 279.4,216.5 280.2,214.6 281.0,213.5 281.8,213.2 282.7,213.7 283.5,214.5 284.3,215.5 285.1,216.7 285.9,217.7 286.7,218.7 287.5,219.5 288.3,220.2 289.2,220.7 290.0,221.2 290.8,221.6 291.6,221.9 292.4,222.1 293.2,222.1 294.0,221.9 294.9,221.5 295.7,221.1 296.5,220.9 297.3,221.1 298.1,221.4 298.9,221.8 299.7,222.3 300.6,222.8 301.4,223.3 302.2,223.7 303.0,224.1 303.8,224.4 304.6,224.6 305.4,224.7 306.3,224.9 307.1,225.0 307.9,225.2 308.7,225.5 309.5,225.8 310.3,226.2 311.1,226.6 311.9,227.0 312.8,227.4 313.6,227.9 314.4,228.3 315.2,228.7 316.0,229.1 316.8,229.4 317.6,229.8 318.5,230.1 319.3,230.5 320.1,230.8 320.9,231.2 321.7,231.6 322.5,232.0 323.3,232.4 324.2,232.8 325.0,233.2 325.8,233.6 326.6,234.0 327.4,234.4 328.2,234.7 329.0,235.1 329.8,235.4 330.7,235.8 331.5,236.1 332.3,236.4 333.1,236.6 333.9,236.9 334.7,237.2 335.5,237.4 336.4,237.7 337.2,237.9 338.0,238.1 338.8,238.4 339.6,238.6 340.4,238.8 341.2,238.9 342.1,239.1 342.9,239.3 343.7,239.4 344.5,239.6 345.3,239.7 346.1,239.8 346.9,239.9 347.8,240.0 348.6,240.1 349.4,240.2 350.2,240.2 351.0,240.3 351.8,240.3 352.6,240.4 353.4,240.4 354.3,240.4 355.1,240.4 355.9,240.4 356.7,240.4 357.5,240.3 358.3,240.3 359.1,240.2 360.0,240.0 360.8,239.9 361.6,239.8 362.4,239.6 363.2,239.5 364.0,239.3 364.8,239.2 365.7,239.0 366.5,238.8 367.3,238.6 368.1,238.4 368.9,238.2 369.7,238.0 370.5,237.7 371.3,237.5 372.2,237.2 373.0,237.0 373.8,236.7 374.6,236.4 375.4,236.1 376.2,235.8 377.0,235.5 377.9,235.2 378.7,234.9 379.5,234.5 380.3,234.1 381.1,233.5 381.9,232.9 382.7,232.2 383.6,231.6 384.4,230.9 385.2,230.3 386.0,229.7 386.8,229.2 387.6,228.8 388.4,228.4 389.3,228.1 390.1,227.9 390.9,227.8 391.7,227.7 392.5,227.7 393.3,227.7 394.1,227.8 394.9,227.9 395.8,228.0 396.6,228.2 397.4,228.4 398.2,228.8 399.0,229.4 399.8,230.1 400.6,231.1 401.5,232.3 402.3,233.6 403.1,234.8 403.9,235.9 404.7,236.9 405.5,237.7 406.3,238.4 407.2,239.1 408.0,239.6 408.8,240.1 409.6,240.6 410.4,241.0 411.2,241.4 412.0,241.7 412.8,241.8 413.7,241.7 414.5,240.9 415.3,239.2 416.1,236.8 416.9,234.2 417.7,231.5 418.5,229.1 419.4,227.1 420.2,225.7 421.0,225.0 421.8,224.9 422.6,224.9 423.4,225.0 424.2,225.1 425.1,225.2 425.9,225.3 426.7,225.4 427.5,225.6 428.3,225.7 429.1,225.8 429.9,226.0 430.7,226.1 431.6,226.4 432.4,226.6 433.2,226.9 434.0,227.2 434.8,227.5 435.6,227.8 436.4,228.1 437.3,228.4 438.1,228.6 438.9,228.8 439.7,229.0 440.5,229.2 441.3,229.3 442.1,229.5 443.0,229.6 443.8,229.8 444.6,229.9 445.4,230.0 446.2,230.1 447.0,230.2 447.8,230.3 448.7,230.3 449.5,230.4 450.3,230.4 451.1,230.4 451.9,230.4 452.7,230.4 453.5,230.3 454.3,230.3 455.2,230.3 456.0,230.3 456.8,230.5 457.6,230.8 458.4,231.2 459.2,231.7 460.0,232.2 460.9,232.6 461.7,232.9 462.5,233.0 463.3,233.1 464.1,233.1 464.9,233.2 465.7,233.4 466.6,233.8 467.4,234.1 468.2,234.4 469.0,234.5 469.8,233.6 470.6,232.0 471.4,230.0 472.2,227.7 473.1,225.4 473.9,223.5 474.7,222.3 475.5,222.0 476.3,222.3 477.1,222.8 477.9,223.4 478.8,223.9 479.6,224.3 480.4,224.6 481.2,224.8 482.0,225.0 482.8,225.2 483.6,225.4 484.5,225.6 485.3,225.3 486.1,224.5 486.9,223.0 487.7,221.2 488.5,219.1 489.3,216.9 490.2,214.9 491.0,213.6 491.8,213.1 492.6,213.7 493.4,214.5 494.2,215.6 495.0,216.6 495.8,217.5 496.7,218.3 497.5,218.9 498.3,219.4 499.1,219.8 499.9,220.1 500.7,220.4 501.5,220.6 502.4,220.6 503.2,220.6 504.0,220.6 504.8,220.7 505.6,221.0 506.4,221.4 507.2,221.9 508.1,222.4 508.9,222.8 509.7,223.1 510.5,223.4 511.3,223.5 512.1,223.5 512.9,223.4 513.7,223.3 514.6,223.1 515.4,222.9 516.2,222.6 517.0,222.4 517.8,222.1 518.6,221.7 519.4,221.3 520.3,220.8 521.1,220.2 521.9,219.6 522.7,218.9 523.5,218.2 524.3,217.4 525.1,216.6 526.0,215.7 526.8,214.8 527.6,213.8 528.4,212.7 529.2,211.6 530.0,210.4 530.8,209.2 531.7,207.9 532.5,206.7 533.3,205.6 534.1,204.6 534.9,204.0 535.7,203.9 536.5,204.4 537.3,205.3 538.2,206.5 539.0,207.7 539.8,209.3 540.6,211.1 541.4,213.1 542.2,215.1 543.0,217.0 543.9,218.8 544.7,220.5 545.5,222.1 546.3,223.6 547.1,224.9 547.9,226.2 548.7,227.5 549.6,228.7 550.4,229.9 551.2,231.1 552.0,232.3 552.8,233.5 553.6,234.8 554.4,236.1 555.2,237.4 556.1,238.8 556.9,240.1 557.7,241.4 558.5,242.6 559.3,243.7 560.1,244.8 560.9,245.9 561.8,246.9 562.6,247.8 563.4,248.7 564.2,249.5 565.0,250.2 565.8,250.9 566.6,251.5 567.5,252.0 568.3,252.4 569.1,252.8 569.9,253.1 570.7,253.3 571.5,253.4 572.3,253.5 573.1,253.5 574.0,253.5 574.8,253.5 575.6,253.4 576.4,253.4 577.2,253.4 578.0,253.4 578.8,253.4 579.7,253.5 580.5,253.5 581.3,253.7 582.1,253.8 582.9,253.9 583.7,254.0 584.5,254.0 585.4,254.1 586.2,254.1 587.0,254.1 587.8,254.0 588.6,254.0 589.4,253.9 590.2,253.7 591.1,253.6 591.9,253.5 592.7,253.3 593.5,253.2 594.3,253.0 595.1,252.8 595.9,252.7 596.7,252.5 597.6,252.4 598.4,252.2 599.2,252.1 600.0,251.9 600.8,251.8 601.6,251.6 602.4,251.4 603.3,251.3 604.1,251.1 604.9,250.9 605.7,250.7 606.5,250.5 607.3,250.3 608.1,250.2 609.0,250.0 609.8,249.8 610.6,249.6 611.4,249.5 612.2,249.3 613.0,249.2 613.8,249.0 614.6,248.9 615.5,248.7 616.3,248.6 617.1,248.4 617.9,248.3 618.7,248.1 619.5,248.0 620.3,247.9 621.2,248.0 622.0,248.2 622.8,248.6 623.6,249.1 624.4,249.5 625.2,250.0 626.0,250.4 626.9,250.7 627.7,250.9 628.5,251.1 629.3,251.1 630.1,251.1 630.9,251.1 631.7,251.2 632.6,251.4 633.4,251.6 634.2,251.9 635.0,252.2 635.8,252.5 636.6,252.5 637.4,252.4 638.2,252.0 639.1,251.0 639.9,249.5 640.7,247.8 641.5,246.4 642.3,245.4 643.1,244.7 643.9,244.4 644.8,244.3 645.6,244.2 646.4,244.1 647.2,243.9 648.0,243.6 648.8,243.3 649.6,242.9 650.5,242.7 651.3,242.5 652.1,242.4 652.9,242.5 653.7,242.6 654.5,242.7 655.3,242.8 656.1,242.7 657.0,242.4 657.8,241.5 658.6,240.4 659.4,239.1 660.2,238.2 661.0,237.8 661.8,237.7 662.7,237.8 663.5,238.2 664.3,238.6 665.1,239.0 665.9,239.1 666.7,239.1 667.5,238.9 668.4,238.7 669.2,238.6 670.0,238.5 670.8,238.6 671.6,238.7 672.4,238.9 673.2,239.2 674.1,239.4 674.9,239.5 675.7,239.5 676.5,239.4 677.3,239.2 678.1,238.9 678.9,238.8 679.7,239.0 680.6,239.4 681.4,240.0 682.2,240.5 683.0,241.0 683.8,241.4 684.6,241.5 685.4,241.6 686.3,241.6 687.1,241.6 687.9,241.5 688.7,241.6 689.5,241.7 690.3,241.8 691.1,242.1 692.0,242.3 692.8,242.5 693.6,242.6 694.4,242.8 695.2,243.0 696.0,243.2 696.8,243.5 697.6,243.8 698.5,244.0 699.3,244.2 700.1,244.2 700.9,244.2 701.7,244.1 702.5,243.9 703.3,243.7 704.2,243.4 705.0,243.2 705.8,243.1 706.6,243.2 707.4,243.5 708.2,244.0 709.0,244.6 709.9,245.2 710.7,245.7 711.5,246.1 712.3,246.4 713.1,246.6 713.9,246.8 714.7,247.0 715.5,247.3 716.4,247.6 717.2,247.8 718.0,248.0 718.8,248.1 719.6,248.0 720.4,247.7 721.2,246.7 722.1,245.5 722.9,244.3 723.7,243.4 724.5,242.9 725.3,242.7 726.1,242.6 726.9,242.8 727.8,243.0 728.6,243.2 729.4,243.4 730.2,243.5 731.0,243.6 731.8,243.6 732.6,243.6 733.5,243.7 734.3,243.7 735.1,243.7 735.9,243.7 736.7,243.7 737.5,243.6 738.3,243.4 739.1,243.2 740.0,243.0 740.8,242.9 741.6,243.0 742.4,243.3 743.2,243.7 744.0,244.2 744.8,244.7 745.7,245.1 746.5,245.5 747.3,245.8 748.1,246.1 748.9,246.3 749.7,246.5 750.5,246.7 751.4,246.8 752.2,247.0 753.0,247.1 753.8,247.3 754.6,247.5 755.4,247.7 756.2,247.9 757.0,248.1 757.9,248.4 758.7,248.6 759.5,248.9 760.3,249.1 761.1,249.3 761.9,249.5 762.7,249.7 763.6,249.9 764.4,250.0 765.2,250.2 766.0,250.3"/>
<line x1="606" y1="60" x2="628" y2="60" stroke="#24a148" stroke-width="2.2"/>
<text x="634" y="64" font-family="Arial" font-size="12">airspeed_mps</text>
</svg>