<svg xmlns="http://www.w3.org/2000/svg" width="820" height="320" viewBox="0 0 820 320">
<rect width="100%" height="100%" fill="#ffffff"/>
<text x="54" y="28" font-family="Arial" font-size="18" font-weight="700">Thrust</text>
<line x1="54" y1="266" x2="766" y2="266" stroke="#1f2933"/>
<line x1="54" y1="54" x2="54" y2="266" stroke="#1f2933"/>
<text x="54" y="306" font-family="Arial" font-size="12">time (s)</text>
<text x="596" y="306" font-family="Arial" font-size="12">thrust (N)</text>
<text x="58" y="68" font-family="Arial" font-size="11">14.8</text>
<text x="58" y="260" font-family="Arial" font-size="11">2.7</text>
<polyline fill="none" stroke="#0f62fe" stroke-width="2.2" points="54.0,266.0 54.8,228.9 55.6,200.0 56.4,177.5 57.3,159.9 58.1,146.1 58.9,135.2 59.7,126.7 60.5,120.1 61.3,114.9 62.1,110.9 63.0,107.7 63.8,105.2 64.6,103.0 65.4,101.3 66.2,100.0 67.0,99.1 67.8,98.3 68.6,97.1 69.5,95.6 70.3,94.1 71.1,92.6 71.9,91.4 72.7,90.2 73.5,89.1 74.3,88.1 75.2,87.1 76.0,86.1 76.8,85.0 77.6,83.9 78.4,82.9 79.2,81.9 80.0,80.8 80.9,79.8 81.7,78.8 82.5,77.8 83.3,76.8 84.1,75.8 84.9,74.9 85.7,74.0 86.5,73.2 87.4,72.4 88.2,71.7 89.0,70.9 89.8,70.3 90.6,69.6 91.4,69.1 92.2,68.6 93.1,68.1 93.9,67.7 94.7,67.3 95.5,67.0 96.3,66.6 97.1,66.3 97.9,65.9 98.8,65.4 99.6,64.9 100.4,64.3 101.2,63.7 102.0,63.0 102.8,62.3 103.6,61.7 104.5,61.2 105.3,61.0 106.1,61.0 106.9,61.4 107.7,61.5 108.5,61.3 109.3,60.9 110.1,60.4 111.0,59.9 111.8,59.3 112.6,58.8 113.4,58.2 114.2,57.6 115.0,57.0 115.8,56.4 116.7,55.9 117.5,55.5 118.3,55.2 119.1,55.0 119.9,54.9 120.7,55.0 121.5,55.1 122.4,55.1 123.2,55.1 124.0,54.9 124.8,54.8 125.6,54.6 126.4,54.4 127.2,54.2 128.0,54.1 128.9,54.0 129.7,54.0 130.5,54.3 131.3,54.5 132.1,54.6 132.9,54.7 133.7,55.0 134.6,55.5 135.4,56.2 136.2,56.7 137.0,57.0 137.8,57.1 138.6,57.0 139.4,56.9 140.3,56.7 141.1,56.6 141.9,56.5 142.7,56.4 143.5,56.5 144.3,56.9 145.1,57.4 145.9,57.9 146.8,58.5 147.6,59.0 148.4,59.5 149.2,59.8 150.0,60.0 150.8,60.1 151.6,60.1 152.5,60.2 153.3,60.2 154.1,60.3 154.9,60.3 155.7,60.4 156.5,60.4 157.3,60.4 158.2,60.5 159.0,60.5 159.8,60.5 160.6,60.5 161.4,60.4 162.2,60.4 163.0,60.4 163.9,60.4 164.7,60.3 165.5,60.3 166.3,60.2 167.1,60.2 167.9,60.2 168.7,60.2 169.5,60.1 170.4,60.1 171.2,60.1 172.0,60.1 172.8,60.1 173.6,60.1 174.4,60.1 175.2,60.1 176.1,60.1 176.9,60.1 177.7,60.1 178.5,60.1 179.3,60.1 180.1,60.1 180.9,60.1 181.8,60.1 182.6,60.2 183.4,60.2 184.2,60.2 185.0,60.2 185.8,60.2 186.6,60.3 187.4,60.3 188.3,60.4 189.1,60.4 189.9,60.4 190.7,60.5 191.5,60.5 192.3,60.5 193.1,60.6 194.0,60.6 194.8,60.7 195.6,60.7 196.4,60.8 197.2,60.8 198.0,60.9 198.8,60.9 199.7,61.0 200.5,61.0 201.3,61.1 202.1,61.1 202.9,61.1 203.7,61.2 204.5,61.2 205.4,61.2 206.2,61.2 207.0,61.1 207.8,61.0 208.6,60.9 209.4,60.7 210.2,60.6 211.0,60.4 211.9,60.3 212.7,60.2 213.5,60.1 214.3,60.1 215.1,60.0 215.9,60.0 216.7,59.9 217.6,59.9 218.4,59.8 219.2,59.8 220.0,59.8 220.8,59.9 221.6,60.2 222.4,60.7 223.3,61.3 224.1,61.9 224.9,62.4 225.7,62.9 226.5,63.2 227.3,63.4 228.1,63.4 228.9,63.3 229.8,63.3 230.6,63.2 231.4,63.2 232.2,63.1 233.0,63.1 233.8,63.1 234.6,63.1 235.5,63.1 236.3,63.0 237.1,63.0 237.9,63.0 238.7,63.1 239.5,63.1 240.3,63.1 241.2,63.1 242.0,63.1 242.8,63.0 243.6,62.9 244.4,62.8 245.2,62.7 246.0,62.7 246.9,62.7 247.7,62.6 248.5,62.6 249.3,62.6 250.1,62.6 250.9,62.6 251.7,62.6 252.5,62.6 253.4,62.6 254.2,62.6 255.0,62.6 255.8,62.6 256.6,62.5 257.4,62.5 258.2,62.5 259.1,62.5 259.9,62.5 260.7,62.6 261.5,62.7 262.3,62.8 263.1,62.8 263.9,62.9 264.8,62.9 265.6,62.9 266.4,62.9 267.2,62.8 268.0,62.7 268.8,62.7 269.6,62.6 270.4,62.6 271.3,62.5 272.1,62.5 272.9,62.5 273.7,62.4 274.5,62.5 275.3,62.6 276.1,62.9 277.0,63.3 277.8,63.7 278.6,64.2 279.4,64.7 280.2,65.1 281.0,65.3 281.8,65.4 282.7,65.3 283.5,65.1 284.3,64.9 285.1,64.6 285.9,64.4 286.7,64.2 287.5,64.0 288.3,63.9 289.2,63.7 290.0,63.6 290.8,63.6 291.6,63.5 292.4,63.5 293.2,63.4 294.0,63.5 294.9,63.6 295.7,63.7 296.5,63.7 297.3,63.7 298.1,63.6 298.9,63.5 299.7,63.4 300.6,63.3 301.4,63.2 302.2,63.1 303.0,63.0 303.8,63.0 304.6,62.9 305.4,62.9 306.3,62.8 307.1,62.8 307.9,62.8 308.7,62.7 309.5,62.7 310.3,62.6 311.1,62.5 311.9,62.4 312.8,62.3 313.6,62.2 314.4,62.1 315.2,62.0 316.0,61.9 316.8,61.9 317.6,61.8 318.5,61.7 319.3,61.6 320.1,61.6 320.9,61.5 321.7,61.4 322.5,61.3 323.3,61.2 324.2,61.1 325.0,61.1 325.8,61.0 326.6,60.9 327.4,60.8 328.2,60.7 329.0,60.6 329.8,60.6 330.7,60.5 331.5,60.4 332.3,60.4 333.1,60.3 333.9,60.3 334.7,60.2 335.5,60.1 336.4,60.1 337.2,60.0 338.0,60.0 338.8,59.9 339.6,59.9 340.4,59.9 341.2,59.8 342.1,59.8 342.9,59.8 343.7,59.7 344.5,59.7 345.3,59.7 346.1,59.6 346.9,59.6 347.8,59.6 348.6,59.6 349.4,59.6 350.2,59.5 351.0,59.5 351.8,59.5 352.6,59.5 353.4,59.5 354.3,59.5 355.1,59.5 355.9,59.5 356.7,59.5 357.5,59.5 358.3,59.5 359.1,59.6 360.0,59.6 360.8,59.6 361.6,59.6 362.4,59.7 363.2,59.7 364.0,59.7 364.8,59.8 365.7,59.8 366.5,59.9 367.3,59.9 368.1,59.9 368.9,60.0 369.7,60.0 370.5,60.1 371.3,60.1 372.2,60.2 373.0,60.2 373.8,60.3 374.6,60.4 375.4,60.4 376.2,60.5 377.0,60.6 377.9,60.6 378.7,60.7 379.5,60.8 380.3,60.9 381.1,61.0 381.9,61.1 382.7,61.3 383.6,61.4 384.4,61.5 385.2,61.7 386.0,61.8 386.8,61.9 387.6,62.0 388.4,62.1 389.3,62.2 390.1,62.2 390.9,62.2 391.7,62.2 392.5,62.2 393.3,62.2 394.1,62.2 394.9,62.2 395.8,62.2 396.6,62.1 397.4,62.1 398.2,62.0 399.0,61.9 399.8,61.7 400.6,61.5 401.5,61.2 402.3,61.0 403.1,60.7 403.9,60.5 404.7,60.3 405.5,60.1 406.3,59.9 407.2,59.8 408.0,59.7 408.8,59.6 409.6,59.5 410.4,59.4 411.2,59.3 412.0,59.2 412.8,59.2 413.7,59.2 414.5,59.4 415.3,59.8 416.1,60.3 416.9,60.9 417.7,61.4 418.5,61.9 419.4,62.4 420.2,62.7 421.0,62.8 421.8,62.9 422.6,62.8 423.4,62.8 424.2,62.8 425.1,62.8 425.9,62.8 426.7,62.7 427.5,62.7 428.3,62.7 429.1,62.6 429.9,62.6 430.7,62.6 431.6,62.5 432.4,62.5 433.2,62.4 434.0,62.4 434.8,62.3 435.6,62.2 436.4,62.2 437.3,62.1 438.1,62.1 438.9,62.0 439.7,62.0 440.5,61.9 441.3,61.9 442.1,61.9 443.0,61.8 443.8,61.8 444.6,61.8 445.4,61.7 446.2,61.7 447.0,61.7 447.8,61.7 448.7,61.7 449.5,61.7 450.3,61.7 451.1,61.7 451.9,61.7 452.7,61.7 453.5,61.7 454.3,61.7 455.2,61.7 456.0,61.7 456.8,61.6 457.6,61.6 458.4,61.5 459.2,61.4 460.0,61.3 460.9,61.2 461.7,61.1 462.5,61.1 463.3,61.1 464.1,61.1 464.9,61.1 465.7,61.0 466.6,60.9 467.4,60.9 468.2,60.8 469.0,60.8 469.8,61.0 470.6,61.3 471.4,61.8 472.2,62.2 473.1,62.7 473.9,63.1 474.7,63.4 475.5,63.5 476.3,63.4 477.1,63.3 477.9,63.2 478.8,63.1 479.6,63.0 480.4,62.9 481.2,62.9 482.0,62.8 482.8,62.8 483.6,62.7 484.5,62.7 485.3,62.8 486.1,62.9 486.9,63.3 487.7,63.6 488.5,64.1 489.3,64.6 490.2,65.0 491.0,65.3 491.8,65.4 492.6,65.3 493.4,65.1 494.2,64.9 495.0,64.6 495.8,64.4 496.7,64.3 497.5,64.1 498.3,64.0 499.1,63.9 499.9,63.9 500.7,63.8 501.5,63.8 502.4,63.8 503.2,63.8 504.0,63.8 504.8,63.8 505.6,63.7 506.4,63.6 507.2,63.5 508.1,63.4 508.9,63.3 509.7,63.2 510.5,63.2 511.3,63.1 512.1,63.1 512.9,63.2 513.7,63.2 514.6,63.2 515.4,63.3 516.2,63.3 517.0,63.4 517.8,63.5 518.6,63.5 519.4,63.6 520.3,63.7 521.1,63.8 521.9,64.0 522.7,64.1 523.5,64.3 524.3,64.5 525.1,64.6 526.0,64.8 526.8,65.0 527.6,65.2 528.4,65.5 529.2,65.7 530.0,66.0 530.8,66.2 531.7,66.5 532.5,66.8 533.3,67.0 534.1,67.2 534.9,67.3 535.7,67.4 536.5,67.3 537.3,67.1 538.2,66.8 539.0,66.5 539.8,66.2 540.6,65.8 541.4,65.4 542.2,65.0 543.0,64.5 543.9,64.1 544.7,63.8 545.5,63.4 546.3,63.1 547.1,62.8 547.9,62.6 548.7,62.3 549.6,62.0 550.4,61.8 551.2,61.5 552.0,61.3 552.8,61.0 553.6,60.7 554.4,60.4 555.2,60.1 556.1,59.9 556.9,59.6 557.7,59.3 558.5,59.0 559.3,58.8 560.1,58.6 560.9,58.3 561.8,58.1 562.6,57.9 563.4,57.7 564.2,57.6 565.0,57.4 565.8,57.3 566.6,57.1 567.5,57.0 568.3,56.9 569.1,56.8 569.9,56.8 570.7,56.7 571.5,56.7 572.3,56.7 573.1,56.7 574.0,56.7 574.8,56.7 575.6,56.7 576.4,56.7 577.2,56.7 578.0,56.7 578.8,56.7 579.7,56.7 580.5,56.7 581.3,56.7 582.1,56.6 582.9,56.6 583.7,56.6 584.5,56.6 585.4,56.6 586.2,56.6 587.0,56.6 587.8,56.6 588.6,56.6 589.4,56.6 590.2,56.6 591.1,56.7 591.9,56.7 592.7,56.7 593.5,56.8 594.3,56.8 595.1,56.8 595.9,56.9 596.7,56.9 597.6,56.9 598.4,57.0 599.2,57.0 600.0,57.0 600.8,57.1 601.6,57.1 602.4,57.1 603.3,57.2 604.1,57.2 604.9,57.3 605.7,57.3 606.5,57.3 607.3,57.4 608.1,57.4 609.0,57.4 609.8,57.5 610.6,57.5 611.4,57.6 612.2,57.6 613.0,57.6 613.8,57.7 614.6,57.7 615.5,57.7 616.3,57.7 617.1,57.8 617.9,57.8 618.7,57.8 619.5,57.9 620.3,57.9 621.2,57.9 622.0,57.8 622.8,57.7 623.6,57.6 624.4,57.5 625.2,57.4 626.0,57.4 626.9,57.3 627.7,57.2 628.5,57.2 629.3,57.2 630.1,57.2 630.9,57.2 631.7,57.2 632.6,57.1 633.4,57.1 634.2,57.0 635.0,57.0 635.8,56.9 636.6,56.9 637.4,56.9 638.2,57.0 639.1,57.2 639.9,57.6 640.7,57.9 641.5,58.2 642.3,58.4 643.1,58.6 643.9,58.6 644.8,58.7 645.6,58.7 646.4,58.7 647.2,58.8 648.0,58.8 648.8,58.9 649.6,59.0 650.5,59.0 651.3,59.1 652.1,59.1 652.9,59.1 653.7,59.0 654.5,59.0 655.3,59.0 656.1,59.0 657.0,59.1 657.8,59.3 658.6,59.5 659.4,59.8 660.2,60.0 661.0,60.1 661.8,60.1 662.7,60.1 663.5,60.0 664.3,59.9 665.1,59.8 665.9,59.8 666.7,59.8 667.5,59.8 668.4,59.9 669.2,59.9 670.0,59.9 670.8,59.9 671.6,59.9 672.4,59.8 673.2,59.8 674.1,59.7 674.9,59.7 675.7,59.7 676.5,59.7 677.3,59.8 678.1,59.8 678.9,59.8 679.7,59.8 680.6,59.7 681.4,59.6 682.2,59.5 683.0,59.4 683.8,59.3 684.6,59.3 685.4,59.3 686.3,59.3 687.1,59.3 687.9,59.3 688.7,59.3 689.5,59.2 690.3,59.2 691.1,59.2 692.0,59.1 692.8,59.1 693.6,59.0 694.4,59.0 695.2,59.0 696.0,58.9 696.8,58.8 697.6,58.8 698.5,58.7 699.3,58.7 700.1,58.7 700.9,58.7 701.7,58.7 702.5,58.7 703.3,58.8 704.2,58.9 705.0,58.9 705.8,58.9 706.6,58.9 707.4,58.8 708.2,58.7 709.0,58.6 709.9,58.5 710.7,58.4 711.5,58.3 712.3,58.2 713.1,58.2 713.9,58.1 714.7,58.1 715.5,58.0 716.4,58.0 717.2,57.9 718.0,57.9 718.8,57.9 719.6,57.9 720.4,57.9 721.2,58.1 722.1,58.4 722.9,58.7 723.7,58.9 724.5,59.0 725.3,59.0 726.1,59.0 726.9,59.0 727.8,58.9 728.6,58.9 729.4,58.9 730.2,58.8 731.0,58.8 731.8,58.8 732.6,58.8 733.5,58.8 734.3,58.8 735.1,58.8 735.9,58.8 736.7,58.8 737.5,58.8 738.3,58.9 739.1,58.9 740.0,59.0 740.8,59.0 741.6,59.0 742.4,58.9 743.2,58.8 744.0,58.7 744.8,58.6 745.7,58.5 746.5,58.4 747.3,58.3 748.1,58.3 748.9,58.2 749.7,58.2 750.5,58.2 751.4,58.1 752.2,58.1 753.0,58.1 753.8,58.0 754.6,58.0 755.4,57.9 756.2,57.9 757.0,57.8 757.9,57.8 758.7,57.7 759.5,57.7 760.3,57.6 761.1,57.6 761.9,57.5 762.7,57.5 763.6,57.5 764.4,57.4 765.2,57.4 766.0,57.4"/>
<line x1="606" y1="42" x2="628" y2="42" stroke="#0f62fe" stroke-width="2.2"/>
<text x="634" y="46" font-family="Arial" font-size="12">thrust_n</text>
</svg>