<svg xmlns="http://www.w3.org/2000/svg" width="820" height="320" viewBox="0 0 820 320">
<rect width="100%" height="100%" fill="#ffffff"/>
<text x="54" y="28" font-family="Arial" font-size="18" font-weight="700">GPS Altitude vs Truth</text>
<line x1="54" y1="266" x2="766" y2="266" stroke="#1f2933"/>
<line x1="54" y1="54" x2="54" y2="266" stroke="#1f2933"/>
<text x="54" y="306" font-family="Arial" font-size="12">time (s)</text>
<text x="596" y="306" font-family="Arial" font-size="12">altitude (m)</text>
<text x="58" y="68" font-family="Arial" font-size="11">1.2e+03</text>
<text x="58" y="260" font-family="Arial" font-size="11">392</text>
<polyline fill="none" stroke="#0f62fe" stroke-width="2.2" points="54.0,54.2 54.8,54.2 55.6,54.2 56.4,54.2 57.3,54.3 58.1,54.3 58.9,54.3 59.7,54.4 60.5,54.5 61.3,54.5 62.1,54.6 63.0,54.7 63.8,54.7 64.6,54.8 65.4,54.9 66.2,55.0 67.0,55.0 67.8,55.1 68.6,55.2 69.5,55.3 70.3,55.4 71.1,55.5 71.9,55.6 72.7,55.7 73.5,55.8 74.3,55.9 75.2,56.0 76.0,56.1 76.8,56.2 77.6,56.4 78.4,56.5 79.2,56.6 80.0,56.7 80.9,56.8 81.7,56.9 82.5,57.0 83.3,57.1 84.1,57.3 84.9,57.4 85.7,57.5 86.5,57.6 87.4,57.7 88.2,57.9 89.0,58.0 89.8,58.1 90.6,58.3 91.4,58.4 92.2,58.6 93.1,58.7 93.9,58.9 94.7,59.0 95.5,59.2 96.3,59.4 97.1,59.5 97.9,59.7 98.8,59.9 99.6,60.0 100.4,60.2 101.2,60.4 102.0,60.6 102.8,60.7 103.6,60.9 104.5,61.1 105.3,61.3 106.1,61.4 106.9,61.6 107.7,61.8 108.5,62.0 109.3,62.2 110.1,62.4 111.0,62.6 111.8,62.8 112.6,63.0 113.4,63.1 114.2,63.3 115.0,63.5 115.8,63.7 116.7,63.9 117.5,64.1 118.3,64.2 119.1,64.4 119.9,64.6 120.7,64.8 121.5,65.0 122.4,65.2 123.2,65.4 124.0,65.6 124.8,65.8 125.6,66.0 126.4,66.2 127.2,66.4 128.0,66.6 128.9,66.8 129.7,67.0 130.5,67.2 131.3,67.4 132.1,67.6 132.9,67.8 133.7,68.0 134.6,68.2 135.4,68.5 136.2,68.7 137.0,68.9 137.8,69.2 138.6,69.4 139.4,69.6 140.3,69.9 141.1,70.1 141.9,70.3 142.7,70.5 143.5,70.8 144.3,71.0 145.1,71.2 145.9,71.5 146.8,71.7 147.6,71.9 148.4,72.2 149.2,72.4 150.0,72.7 150.8,73.0 151.6,73.2 152.5,73.5 153.3,73.7 154.1,74.0 154.9,74.3 155.7,74.5 156.5,74.8 157.3,75.1 158.2,75.3 159.0,75.6 159.8,75.9 160.6,76.1 161.4,76.4 162.2,76.7 163.0,76.9 163.9,77.2 164.7,77.5 165.5,77.7 166.3,78.0 167.1,78.3 167.9,78.5 168.7,78.8 169.5,79.1 170.4,79.3 171.2,79.6 172.0,79.9 172.8,80.1 173.6,80.4 174.4,80.7 175.2,80.9 176.1,81.2 176.9,81.5 177.7,81.8 178.5,82.0 179.3,82.3 180.1,82.6 180.9,82.8 181.8,83.1 182.6,83.4 183.4,83.6 184.2,83.9 185.0,84.2 185.8,84.4 186.6,84.7 187.4,85.0 188.3,85.2 189.1,85.5 189.9,85.8 190.7,86.0 191.5,86.3 192.3,86.6 193.1,86.8 194.0,87.1 194.8,87.4 195.6,87.6 196.4,87.9 197.2,88.2 198.0,88.4 198.8,88.7 199.7,89.0 200.5,89.2 201.3,89.5 202.1,89.8 202.9,90.0 203.7,90.3 204.5,90.6 205.4,90.8 206.2,91.1 207.0,91.4 207.8,91.6 208.6,91.9 209.4,92.2 210.2,92.4 211.0,92.7 211.9,93.0 212.7,93.2 213.5,93.5 214.3,93.8 215.1,94.0 215.9,94.3 216.7,94.6 217.6,94.8 218.4,95.1 219.2,95.3 220.0,95.6 220.8,95.9 221.6,96.1 222.4,96.4 223.3,96.6 224.1,96.9 224.9,97.2 225.7,97.5 226.5,97.7 227.3,98.0 228.1,98.3 228.9,98.6 229.8,98.9 230.6,99.1 231.4,99.4 232.2,99.7 233.0,100.0 233.8,100.3 234.6,100.5 235.5,100.8 236.3,101.1 237.1,101.4 237.9,101.6 238.7,101.9 239.5,102.2 240.3,102.5 241.2,102.7 242.0,103.0 242.8,103.3 243.6,103.6 244.4,103.8 245.2,104.1 246.0,104.4 246.9,104.6 247.7,104.9 248.5,105.2 249.3,105.4 250.1,105.7 250.9,106.0 251.7,106.3 252.5,106.5 253.4,106.8 254.2,107.1 255.0,107.3 255.8,107.6 256.6,107.8 257.4,108.1 258.2,108.4 259.1,108.6 259.9,108.9 260.7,109.1 261.5,109.4 262.3,109.7 263.1,109.9 263.9,110.2 264.8,110.4 265.6,110.7 266.4,111.0 267.2,111.2 268.0,111.5 268.8,111.7 269.6,112.0 270.4,112.2 271.3,112.5 272.1,112.7 272.9,113.0 273.7,113.2 274.5,113.5 275.3,113.7 276.1,114.0 277.0,114.2 277.8,114.5 278.6,114.7 279.4,115.0 280.2,115.2 281.0,115.5 281.8,115.7 282.7,116.0 283.5,116.3 284.3,116.5 285.1,116.8 285.9,117.0 286.7,117.3 287.5,117.5 288.3,117.8 289.2,118.0 290.0,118.3 290.8,118.6 291.6,118.8 292.4,119.1 293.2,119.3 294.0,119.5 294.9,119.8 295.7,120.0 296.5,120.3 297.3,120.5 298.1,120.8 298.9,121.0 299.7,121.3 300.6,121.6 301.4,121.8 302.2,122.1 303.0,122.3 303.8,122.5 304.6,122.8 305.4,123.0 306.3,123.3 307.1,123.5 307.9,123.8 308.7,124.0 309.5,124.3 310.3,124.5 311.1,124.8 311.9,125.0 312.8,125.3 313.6,125.5 314.4,125.8 315.2,126.0 316.0,126.3 316.8,126.5 317.6,126.8 318.5,127.0 319.3,127.3 320.1,127.5 320.9,127.8 321.7,128.0 322.5,128.3 323.3,128.5 324.2,128.8 325.0,129.1 325.8,129.3 326.6,129.6 327.4,129.8 328.2,130.1 329.0,130.3 329.8,130.6 330.7,130.8 331.5,131.1 332.3,131.3 333.1,131.6 333.9,131.8 334.7,132.1 335.5,132.3 336.4,132.6 337.2,132.8 338.0,133.1 338.8,133.3 339.6,133.6 340.4,133.8 341.2,134.1 342.1,134.3 342.9,134.6 343.7,134.9 344.5,135.1 345.3,135.4 346.1,135.6 346.9,135.9 347.8,136.1 348.6,136.4 349.4,136.6 350.2,136.9 351.0,137.1 351.8,137.4 352.6,137.6 353.4,137.9 354.3,138.2 355.1,138.4 355.9,138.7 356.7,138.9 357.5,139.2 358.3,139.4 359.1,139.7 360.0,139.9 360.8,140.2 361.6,140.4 362.4,140.7 363.2,141.0 364.0,141.2 364.8,141.5 365.7,141.7 366.5,142.0 367.3,142.2 368.1,142.5 368.9,142.7 369.7,143.0 370.5,143.3 371.3,143.5 372.2,143.8 373.0,144.0 373.8,144.3 374.6,144.5 375.4,144.8 376.2,145.0 377.0,145.3 377.9,145.5 378.7,145.8 379.5,146.0 380.3,146.3 381.1,146.5 381.9,146.8 382.7,147.0 383.6,147.3 384.4,147.5 385.2,147.8 386.0,148.0 386.8,148.3 387.6,148.6 388.4,148.8 389.3,149.1 390.1,149.3 390.9,149.6 391.7,149.8 392.5,150.1 393.3,150.3 394.1,150.6 394.9,150.9 395.8,151.1 396.6,151.4 397.4,151.6 398.2,151.9 399.0,152.2 399.8,152.4 400.6,152.7 401.5,152.9 402.3,153.2 403.1,153.5 403.9,153.7 404.7,154.0 405.5,154.2 406.3,154.5 407.2,154.8 408.0,155.0 408.8,155.3 409.6,155.5 410.4,155.8 411.2,156.0 412.0,156.3 412.8,156.6 413.7,156.8 414.5,157.1 415.3,157.3 416.1,157.6 416.9,157.9 417.7,158.1 418.5,158.4 419.4,158.7 420.2,159.0 421.0,159.2 421.8,159.5 422.6,159.8 423.4,160.1 424.2,160.4 425.1,160.6 425.9,160.9 426.7,161.2 427.5,161.5 428.3,161.8 429.1,162.1 429.9,162.3 430.7,162.6 431.6,162.9 432.4,163.2 433.2,163.5 434.0,163.7 434.8,164.0 435.6,164.3 436.4,164.6 437.3,164.9 438.1,165.1 438.9,165.4 439.7,165.7 440.5,166.0 441.3,166.2 442.1,166.5 443.0,166.8 443.8,167.1 444.6,167.3 445.4,167.6 446.2,167.9 447.0,168.2 447.8,168.4 448.7,168.7 449.5,169.0 450.3,169.3 451.1,169.5 451.9,169.8 452.7,170.1 453.5,170.3 454.3,170.6 455.2,170.9 456.0,171.1 456.8,171.4 457.6,171.7 458.4,171.9 459.2,172.2 460.0,172.5 460.9,172.7 461.7,173.0 462.5,173.3 463.3,173.5 464.1,173.8 464.9,174.1 465.7,174.3 466.6,174.6 467.4,174.8 468.2,175.1 469.0,175.4 469.8,175.6 470.6,175.9 471.4,176.1 472.2,176.4 473.1,176.7 473.9,176.9 474.7,177.2 475.5,177.5 476.3,177.7 477.1,178.0 477.9,178.3 478.8,178.5 479.6,178.8 480.4,179.1 481.2,179.3 482.0,179.6 482.8,179.9 483.6,180.1 484.5,180.4 485.3,180.6 486.1,180.9 486.9,181.2 487.7,181.4 488.5,181.7 489.3,182.0 490.2,182.2 491.0,182.5 491.8,182.8 492.6,183.0 493.4,183.3 494.2,183.6 495.0,183.8 495.8,184.1 496.7,184.4 497.5,184.6 498.3,184.9 499.1,185.1 499.9,185.4 500.7,185.7 501.5,185.9 502.4,186.2 503.2,186.4 504.0,186.7 504.8,186.9 505.6,187.2 506.4,187.4 507.2,187.7 508.1,187.9 508.9,188.2 509.7,188.4 510.5,188.7 511.3,188.9 512.1,189.2 512.9,189.4 513.7,189.7 514.6,189.9 515.4,190.2 516.2,190.4 517.0,190.6 517.8,190.9 518.6,191.1 519.4,191.4 520.3,191.6 521.1,191.8 521.9,192.1 522.7,192.3 523.5,192.5 524.3,192.8 525.1,193.0 526.0,193.3 526.8,193.5 527.6,193.7 528.4,194.0 529.2,194.2 530.0,194.4 530.8,194.7 531.7,194.9 532.5,195.2 533.3,195.4 534.1,195.6 534.9,195.9 535.7,196.1 536.5,196.4 537.3,196.6 538.2,196.9 539.0,197.1 539.8,197.3 540.6,197.6 541.4,197.8 542.2,198.1 543.0,198.3 543.9,198.5 544.7,198.8 545.5,199.0 546.3,199.3 547.1,199.5 547.9,199.7 548.7,200.0 549.6,200.2 550.4,200.5 551.2,200.7 552.0,200.9 552.8,201.2 553.6,201.4 554.4,201.7 555.2,201.9 556.1,202.1 556.9,202.4 557.7,202.6 558.5,202.9 559.3,203.1 560.1,203.3 560.9,203.6 561.8,203.8 562.6,204.1 563.4,204.3 564.2,204.5 565.0,204.8 565.8,205.0 566.6,205.3 567.5,205.5 568.3,205.7 569.1,206.0 569.9,206.2 570.7,206.5 571.5,206.7 572.3,207.0 573.1,207.2 574.0,207.4 574.8,207.7 575.6,207.9 576.4,208.2 577.2,208.4 578.0,208.7 578.8,208.9 579.7,209.2 580.5,209.4 581.3,209.6 582.1,209.9 582.9,210.1 583.7,210.4 584.5,210.6 585.4,210.9 586.2,211.1 587.0,211.4 587.8,211.6 588.6,211.9 589.4,212.1 590.2,212.4 591.1,212.6 591.9,212.9 592.7,213.1 593.5,213.4 594.3,213.6 595.1,213.9 595.9,214.1 596.7,214.4 597.6,214.6 598.4,214.9 599.2,215.1 600.0,215.4 600.8,215.6 601.6,215.9 602.4,216.1 603.3,216.4 604.1,216.6 604.9,216.9 605.7,217.1 606.5,217.4 607.3,217.6 608.1,217.9 609.0,218.1 609.8,218.4 610.6,218.6 611.4,218.9 612.2,219.1 613.0,219.4 613.8,219.6 614.6,219.9 615.5,220.1 616.3,220.4 617.1,220.6 617.9,220.9 618.7,221.1 619.5,221.4 620.3,221.6 621.2,221.9 622.0,222.1 622.8,222.4 623.6,222.6 624.4,222.9 625.2,223.1 626.0,223.4 626.9,223.6 627.7,223.9 628.5,224.1 629.3,224.4 630.1,224.6 630.9,224.9 631.7,225.1 632.6,225.4 633.4,225.6 634.2,225.9 635.0,226.1 635.8,226.4 636.6,226.6 637.4,226.9 638.2,227.1 639.1,227.4 639.9,227.6 640.7,227.9 641.5,228.1 642.3,228.4 643.1,228.6 643.9,228.9 644.8,229.1 645.6,229.4 646.4,229.6 647.2,229.9 648.0,230.1 648.8,230.4 649.6,230.6 650.5,230.9 651.3,231.2 652.1,231.4 652.9,231.7 653.7,231.9 654.5,232.2 655.3,232.4 656.1,232.7 657.0,232.9 657.8,233.2 658.6,233.4 659.4,233.7 660.2,233.9 661.0,234.2 661.8,234.4 662.7,234.7 663.5,234.9 664.3,235.2 665.1,235.4 665.9,235.7 666.7,236.0 667.5,236.2 668.4,236.5 669.2,236.7 670.0,237.0 670.8,237.2 671.6,237.5 672.4,237.7 673.2,238.0 674.1,238.2 674.9,238.4 675.7,238.7 676.5,238.9 677.3,239.2 678.1,239.4 678.9,239.7 679.7,239.9 680.6,240.2 681.4,240.4 682.2,240.7 683.0,240.9 683.8,241.1 684.6,241.4 685.4,241.6 686.3,241.9 687.1,242.1 687.9,242.4 688.7,242.6 689.5,242.8 690.3,243.1 691.1,243.3 692.0,243.6 692.8,243.8 693.6,244.0 694.4,244.3 695.2,244.5 696.0,244.8 696.8,245.0 697.6,245.2 698.5,245.5 699.3,245.7 700.1,246.0 700.9,246.2 701.7,246.4 702.5,246.7 703.3,246.9 704.2,247.1 705.0,247.4 705.8,247.6 706.6,247.8 707.4,248.1 708.2,248.3 709.0,248.6 709.9,248.8 710.7,249.0 711.5,249.3 712.3,249.5 713.1,249.7 713.9,250.0 714.7,250.2 715.5,250.4 716.4,250.7 717.2,250.9 718.0,251.1 718.8,251.4 719.6,251.6 720.4,251.8 721.2,252.1 722.1,252.3 722.9,252.5 723.7,252.8 724.5,253.0 725.3,253.3 726.1,253.5 726.9,253.7 727.8,254.0 728.6,254.2 729.4,254.5 730.2,254.7 731.0,254.9 731.8,255.2 732.6,255.4 733.5,255.7 734.3,255.9 735.1,256.1 735.9,256.4 736.7,256.6 737.5,256.8 738.3,257.1 739.1,257.3 740.0,257.6 740.8,257.8 741.6,258.0 742.4,258.3 743.2,258.5 744.0,258.8 744.8,259.0 745.7,259.2 746.5,259.5 747.3,259.7 748.1,260.0 748.9,260.2 749.7,260.4 750.5,260.7 751.4,260.9 752.2,261.2 753.0,261.4 753.8,261.6 754.6,261.9 755.4,262.1 756.2,262.4 757.0,262.6 757.9,262.8 758.7,263.1 759.5,263.3 760.3,263.6 761.1,263.8 761.9,264.0 762.7,264.3 763.6,264.5 764.4,264.7 765.2,265.0 766.0,265.2"/>
<line x1="606" y1="42" x2="628" y2="42" stroke="#0f62fe" stroke-width="2.2"/>
<text x="634" y="46" font-family="Arial" font-size="12">altitude_m</text>
<polyline fill="none" stroke="#24a148" stroke-width="2.2" points="54.0,54.3 54.8,54.3 55.6,54.3 56.4,54.3 57.3,54.3 58.1,54.0 58.9,54.0 59.7,54.0 60.5,54.0 61.3,54.0 62.1,54.0 63.0,54.0 63.8,54.0 64.6,54.0 65.4,54.0 66.2,54.8 67.0,54.8 67.8,54.8 68.6,54.8 69.5,54.8 70.3,55.2 71.1,55.2 71.9,55.2 72.7,55.2 73.5,55.2 74.3,56.0 75.2,56.0 76.0,56.0 76.8,56.0 77.6,56.0 78.4,56.2 79.2,56.2 80.0,56.2 80.9,56.2 81.7,56.2 82.5,57.3 83.3,57.3 84.1,57.3 84.9,57.3 85.7,57.3 86.5,57.8 87.4,57.8 88.2,57.8 89.0,57.8 89.8,57.8 90.6,58.3 91.4,58.3 92.2,58.3 93.1,58.3 93.9,58.3 94.7,59.2 95.5,59.2 96.3,59.2 97.1,59.2 97.9,59.2 98.8,59.4 99.6,59.4 100.4,59.4 101.2,59.4 102.0,59.4 102.8,60.6 103.6,60.6 104.5,60.6 105.3,60.6 106.1,60.6 106.9,61.9 107.7,61.9 108.5,61.9 109.3,61.9 110.1,61.9 111.0,62.6 111.8,62.6 112.6,62.6 113.4,62.6 114.2,62.6 115.0,63.0 115.8,63.0 116.7,63.0 117.5,63.0 118.3,63.0 119.1,64.1 119.9,64.1 120.7,64.1 121.5,64.1 122.4,64.1 123.2,65.8 124.0,65.8 124.8,65.8 125.6,65.8 126.4,65.8 127.2,65.7 128.0,65.7 128.9,65.7 129.7,65.7 130.5,65.7 131.3,68.0 132.1,68.0 132.9,68.0 133.7,68.0 134.6,68.0 135.4,68.3 136.2,68.3 137.0,68.3 137.8,68.3 138.6,68.3 139.4,69.4 140.3,69.4 141.1,69.4 141.9,69.4 142.7,69.4 143.5,71.3 144.3,71.3 145.1,71.3 145.9,71.3 146.8,71.3 147.6,72.6 148.4,72.6 149.2,72.6 150.0,72.6 150.8,72.6 151.6,73.2 152.5,73.2 153.3,73.2 154.1,73.2 154.9,73.2 155.7,74.7 156.5,74.7 157.3,74.7 158.2,74.7 159.0,74.7 159.8,75.6 160.6,75.6 161.4,75.6 162.2,75.6 163.0,75.6 163.9,76.7 164.7,76.7 165.5,76.7 166.3,76.7 167.1,76.7 167.9,78.9 168.7,78.9 169.5,78.9 170.4,78.9 171.2,78.9 172.0,79.6 172.8,79.6 173.6,79.6 174.4,79.6 175.2,79.6 176.1,81.2 176.9,81.2 177.7,81.2 178.5,81.2 179.3,81.2 180.1,81.9 180.9,81.9 181.8,81.9 182.6,81.9 183.4,81.9 184.2,83.2 185.0,83.2 185.8,83.2 186.6,83.2 187.4,83.2 188.3,85.5 189.1,85.5 189.9,85.5 190.7,85.5 191.5,85.5 192.3,86.5 193.1,86.5 194.0,86.5 194.8,86.5 195.6,86.5 196.4,87.7 197.2,87.7 198.0,87.7 198.8,87.7 199.7,87.7 200.5,88.7 201.3,88.7 202.1,88.7 202.9,88.7 203.7,88.7 204.5,90.4 205.4,90.4 206.2,90.4 207.0,90.4 207.8,90.4 208.6,91.4 209.4,91.4 210.2,91.4 211.0,91.4 211.9,91.4 212.7,92.7 213.5,92.7 214.3,92.7 215.1,92.7 215.9,92.7 216.7,95.3 217.6,95.3 218.4,95.3 219.2,95.3 220.0,95.3 220.8,96.2 221.6,96.2 222.4,96.2 223.3,96.2 224.1,96.2 224.9,97.4 225.7,97.4 226.5,97.4 227.3,97.4 228.1,97.4 228.9,98.6 229.8,98.6 230.6,98.6 231.4,98.6 232.2,98.6 233.0,100.1 233.8,100.1 234.6,100.1 235.5,100.1 236.3,100.1 237.1,100.7 237.9,100.7 238.7,100.7 239.5,100.7 240.3,100.7 241.2,102.4 242.0,102.4 242.8,102.4 243.6,102.4 244.4,102.4 245.2,103.8 246.0,103.8 246.9,103.8 247.7,103.8 248.5,103.8 249.3,105.9 250.1,105.9 250.9,105.9 251.7,105.9 252.5,105.9 253.4,106.5 254.2,106.5 255.0,106.5 255.8,106.5 256.6,106.5 257.4,108.4 258.2,108.4 259.1,108.4 259.9,108.4 260.7,108.4 261.5,109.0 262.3,109.0 263.1,109.0 263.9,109.0 264.8,109.0 265.6,111.0 266.4,111.0 267.2,111.0 268.0,111.0 268.8,111.0 269.6,112.3 270.4,112.3 271.3,112.3 272.1,112.3 272.9,112.3 273.7,112.5 274.5,112.5 275.3,112.5 276.1,112.5 277.0,112.5 277.8,114.5 278.6,114.5 279.4,114.5 280.2,114.5 281.0,114.5 281.8,115.9 282.7,115.9 283.5,115.9 284.3,115.9 285.1,115.9 285.9,116.4 286.7,116.4 287.5,116.4 288.3,116.4 289.2,116.4 290.0,117.7 290.8,117.7 291.6,117.7 292.4,117.7 293.2,117.7 294.0,119.2 294.9,119.2 295.7,119.2 296.5,119.2 297.3,119.2 298.1,120.6 298.9,120.6 299.7,120.6 300.6,120.6 301.4,120.6 302.2,121.9 303.0,121.9 303.8,121.9 304.6,121.9 305.4,121.9 306.3,123.5 307.1,123.5 307.9,123.5 308.7,123.5 309.5,123.5 310.3,124.8 311.1,124.8 311.9,124.8 312.8,124.8 313.6,124.8 314.4,125.9 315.2,125.9 316.0,125.9 316.8,125.9 317.6,125.9 318.5,127.3 319.3,127.3 320.1,127.3 320.9,127.3 321.7,127.3 322.5,128.4 323.3,128.4 324.2,128.4 325.0,128.4 325.8,128.4 326.6,129.8 327.4,129.8 328.2,129.8 329.0,129.8 329.8,129.8 330.7,130.7 331.5,130.7 332.3,130.7 333.1,130.7 333.9,130.7 334.7,131.9 335.5,131.9 336.4,131.9 337.2,131.9 338.0,131.9 338.8,133.8 339.6,133.8 340.4,133.8 341.2,133.8 342.1,133.8 342.9,134.9 343.7,134.9 344.5,134.9 345.3,134.9 346.1,134.9 346.9,136.3 347.8,136.3 348.6,136.3 349.4,136.3 350.2,136.3 351.0,137.7 351.8,137.7 352.6,137.7 353.4,137.7 354.3,137.7 355.1,138.7 355.9,138.7 356.7,138.7 357.5,138.7 358.3,138.7 359.1,139.6 360.0,139.6 360.8,139.6 361.6,139.6 362.4,139.6 363.2,140.6 364.0,140.6 364.8,140.6 365.7,140.6 366.5,140.6 367.3,141.9 368.1,141.9 368.9,141.9 369.7,141.9 370.5,141.9 371.3,143.6 372.2,143.6 373.0,143.6 373.8,143.6 374.6,143.6 375.4,144.9 376.2,144.9 377.0,144.9 377.9,144.9 378.7,144.9 379.5,146.0 380.3,146.0 381.1,146.0 381.9,146.0 382.7,146.0 383.6,147.7 384.4,147.7 385.2,147.7 386.0,147.7 386.8,147.7 387.6,148.3 388.4,148.3 389.3,148.3 390.1,148.3 390.9,148.3 391.7,150.0 392.5,150.0 393.3,150.0 394.1,150.0 394.9,150.0 395.8,150.8 396.6,150.8 397.4,150.8 398.2,150.8 399.0,150.8 399.8,152.5 400.6,152.5 401.5,152.5 402.3,152.5 403.1,152.5 403.9,154.3 404.7,154.3 405.5,154.3 406.3,154.3 407.2,154.3 408.0,155.3 408.8,155.3 409.6,155.3 410.4,155.3 411.2,155.3 412.0,156.3 412.8,156.3 413.7,156.3 414.5,156.3 415.3,156.3 416.1,157.2 416.9,157.2 417.7,157.2 418.5,157.2 419.4,157.2 420.2,159.1 421.0,159.1 421.8,159.1 422.6,159.1 423.4,159.1 424.2,159.6 425.1,159.6 425.9,159.6 426.7,159.6 427.5,159.6 428.3,162.1 429.1,162.1 429.9,162.1 430.7,162.1 431.6,162.1 432.4,163.1 433.2,163.1 434.0,163.1 434.8,163.1 435.6,163.1 436.4,165.0 437.3,165.0 438.1,165.0 438.9,165.0 439.7,165.0 440.5,166.2 441.3,166.2 442.1,166.2 443.0,166.2 443.8,166.2 444.6,167.7 445.4,167.7 446.2,167.7 447.0,167.7 447.8,167.7 448.7,169.2 449.5,169.2 450.3,169.2 451.1,169.2 451.9,169.2 452.7,170.4 453.5,170.4 454.3,170.4 455.2,170.4 456.0,170.4 456.8,171.4 457.6,171.4 458.4,171.4 459.2,171.4 460.0,171.4 460.9,172.9 461.7,172.9 462.5,172.9 463.3,172.9 464.1,172.9 464.9,173.8 465.7,173.8 466.6,173.8 467.4,173.8 468.2,173.8 469.0,175.3 469.8,175.3 470.6,175.3 471.4,175.3 472.2,175.3 473.1,176.3 473.9,176.3 474.7,176.3 475.5,176.3 476.3,176.3 477.1,178.1 477.9,178.1 478.8,178.1 479.6,178.1 480.4,178.1 481.2,179.3 482.0,179.3 482.8,179.3 483.6,179.3 484.5,179.3 485.3,180.8 486.1,180.8 486.9,180.8 487.7,180.8 488.5,180.8 489.3,181.9 490.2,181.9 491.0,181.9 491.8,181.9 492.6,181.9 493.4,183.3 494.2,183.3 495.0,183.3 495.8,183.3 496.7,183.3 497.5,184.3 498.3,184.3 499.1,184.3 499.9,184.3 500.7,184.3 501.5,185.8 502.4,185.8 503.2,185.8 504.0,185.8 504.8,185.8 505.6,186.5 506.4,186.5 507.2,186.5 508.1,186.5 508.9,186.5 509.7,188.5 510.5,188.5 511.3,188.5 512.1,188.5 512.9,188.5 513.7,190.1 514.6,190.1 515.4,190.1 516.2,190.1 517.0,190.1 517.8,190.4 518.6,190.4 519.4,190.4 520.3,190.4 521.1,190.4 521.9,191.4 522.7,191.4 523.5,191.4 524.3,191.4 525.1,191.4 526.0,193.4 526.8,193.4 527.6,193.4 528.4,193.4 529.2,193.4 530.0,194.6 530.8,194.6 531.7,194.6 532.5,194.6 533.3,194.6 534.1,195.5 534.9,195.5 535.7,195.5 536.5,195.5 537.3,195.5 538.2,196.6 539.0,196.6 539.8,196.6 540.6,196.6 541.4,196.6 542.2,197.7 543.0,197.7 543.9,197.7 544.7,197.7 545.5,197.7 546.3,200.3 547.1,200.3 547.9,200.3 548.7,200.3 549.6,200.3 550.4,200.8 551.2,200.8 552.0,200.8 552.8,200.8 553.6,200.8 554.4,201.6 555.2,201.6 556.1,201.6 556.9,201.6 557.7,201.6 558.5,202.7 559.3,202.7 560.1,202.7 560.9,202.7 561.8,202.7 562.6,204.1 563.4,204.1 564.2,204.1 565.0,204.1 565.8,204.1 566.6,205.5 567.5,205.5 568.3,205.5 569.1,205.5 569.9,205.5 570.7,206.6 571.5,206.6 572.3,206.6 573.1,206.6 574.0,206.6 574.8,207.7 575.6,207.7 576.4,207.7 577.2,207.7 578.0,207.7 578.8,209.2 579.7,209.2 580.5,209.2 581.3,209.2 582.1,209.2 582.9,210.5 583.7,210.5 584.5,210.5 585.4,210.5 586.2,210.5 587.0,212.0 587.8,212.0 588.6,212.0 589.4,212.0 590.2,212.0 591.1,213.5 591.9,213.5 592.7,213.5 593.5,213.5 594.3,213.5 595.1,214.3 595.9,214.3 596.7,214.3 597.6,214.3 598.4,214.3 599.2,214.3 600.0,214.3 600.8,214.3 601.6,214.3 602.4,214.3 603.3,216.4 604.1,216.4 604.9,216.4 605.7,216.4 606.5,216.4 607.3,217.9 608.1,217.9 609.0,217.9 609.8,217.9 610.6,217.9 611.4,219.1 612.2,219.1 613.0,219.1 613.8,219.1 614.6,219.1 615.5,220.1 616.3,220.1 617.1,220.1 617.9,220.1 618.7,220.1 619.5,221.4 620.3,221.4 621.2,221.4 622.0,221.4 622.8,221.4 623.6,222.5 624.4,222.5 625.2,222.5 626.0,222.5 626.9,222.5 627.7,223.5 628.5,223.5 629.3,223.5 630.1,223.5 630.9,223.5 631.7,225.3 632.6,225.3 633.4,225.3 634.2,225.3 635.0,225.3 635.8,226.0 636.6,226.0 637.4,226.0 638.2,226.0 639.1,226.0 639.9,227.4 640.7,227.4 641.5,227.4 642.3,227.4 643.1,227.4 643.9,228.9 644.8,228.9 645.6,228.9 646.4,228.9 647.2,228.9 648.0,231.4 648.8,231.4 649.6,231.4 650.5,231.4 651.3,231.4 652.1,231.0 652.9,231.0 653.7,231.0 654.5,231.0 655.3,231.0 656.1,233.1 657.0,233.1 657.8,233.1 658.6,233.1 659.4,233.1 660.2,234.0 661.0,234.0 661.8,234.0 662.7,234.0 663.5,234.0 664.3,235.3 665.1,235.3 665.9,235.3 666.7,235.3 667.5,235.3 668.4,236.1 669.2,236.1 670.0,236.1 670.8,236.1 671.6,236.1 672.4,238.6 673.2,238.6 674.1,238.6 674.9,238.6 675.7,238.6 676.5,238.5 677.3,238.5 678.1,238.5 678.9,238.5 679.7,238.5 680.6,240.7 681.4,240.7 682.2,240.7 683.0,240.7 683.8,240.7 684.6,241.6 685.4,241.6 686.3,241.6 687.1,241.6 687.9,241.6 688.7,242.3 689.5,242.3 690.3,242.3 691.1,242.3 692.0,242.3 692.8,243.0 693.6,243.0 694.4,243.0 695.2,243.0 696.0,243.0 696.8,244.5 697.6,244.5 698.5,244.5 699.3,244.5 700.1,244.5 700.9,245.9 701.7,245.9 702.5,245.9 703.3,245.9 704.2,245.9 705.0,247.2 705.8,247.2 706.6,247.2 707.4,247.2 708.2,247.2 709.0,248.4 709.9,248.4 710.7,248.4 711.5,248.4 712.3,248.4 713.1,249.6 713.9,249.6 714.7,249.6 715.5,249.6 716.4,249.6 717.2,250.9 718.0,250.9 718.8,250.9 719.6,250.9 720.4,250.9 721.2,252.4 722.1,252.4 722.9,252.4 723.7,252.4 724.5,252.4 725.3,253.4 726.1,253.4 726.9,253.4 727.8,253.4 728.6,253.4 729.4,255.2 730.2,255.2 731.0,255.2 731.8,255.2 732.6,255.2 733.5,256.2 734.3,256.2 735.1,256.2 735.9,256.2 736.7,256.2 737.5,256.6 738.3,256.6 739.1,256.6 740.0,256.6 740.8,256.6 741.6,258.3 742.4,258.3 743.2,258.3 744.0,258.3 744.8,258.3 745.7,260.2 746.5,260.2 747.3,260.2 748.1,260.2 748.9,260.2 749.7,259.9 750.5,259.9 751.4,259.9 752.2,259.9 753.0,259.9 753.8,262.0 754.6,262.0 755.4,262.0 756.2,262.0 757.0,262.0 757.9,263.3 758.7,263.3 759.5,263.3 760.3,263.3 761.1,263.3 761.9,263.6 762.7,263.6 763.6,263.6 764.4,263.6 765.2,263.6 766.0,266.0"/>
<line x1="606" y1="60" x2="628" y2="60" stroke="#24a148" stroke-width="2.2"/>
<text x="634" y="64" font-family="Arial" font-size="12">gps_z_m</text>
</svg>