<svg xmlns="http://www.w3.org/2000/svg" width="820" height="320" viewBox="0 0 820 320">
<rect width="100%" height="100%" fill="#ffffff"/>
<text x="54" y="28" font-family="Arial" font-size="18" font-weight="700">Target Distance</text>
<line x1="54" y1="266" x2="766" y2="266" stroke="#1f2933"/>
<line x1="54" y1="54" x2="54" y2="266" stroke="#1f2933"/>
<text x="54" y="306" font-family="Arial" font-size="12">time (s)</text>
<text x="596" y="306" font-family="Arial" font-size="12">distance (m)</text>
<text x="58" y="68" font-family="Arial" font-size="11">1.49e+03</text>
<text x="58" y="260" font-family="Arial" font-size="11">904</text>
<polyline fill="none" stroke="#0f62fe" stroke-width="2.2" points="54.0,54.0 54.8,54.6 55.6,55.2 56.4,55.8 57.3,56.4 58.1,57.0 58.9,57.6 59.7,58.2 60.5,58.8 61.3,59.4 62.1,60.0 63.0,60.6 63.8,61.2 64.6,61.8 65.4,62.4 66.2,63.0 67.0,63.6 67.8,64.2 68.6,64.9 69.5,65.5 70.3,66.0 71.1,66.6 71.9,67.2 72.7,67.8 73.5,68.3 74.3,68.9 75.2,69.4 76.0,70.0 76.8,70.5 77.6,71.0 78.4,71.5 79.2,72.0 80.0,72.5 80.9,73.0 81.7,73.5 82.5,74.0 83.3,74.5 84.1,74.9 84.9,75.4 85.7,75.9 86.5,76.3 87.4,76.8 88.2,77.2 89.0,77.6 89.8,78.1 90.6,78.5 91.4,78.9 92.2,79.3 93.1,79.8 93.9,80.2 94.7,80.6 95.5,81.0 96.3,81.4 97.1,81.8 97.9,82.2 98.8,82.6 99.6,83.0 100.4,83.4 101.2,83.8 102.0,84.2 102.8,84.5 103.6,84.9 104.5,85.3 105.3,85.6 106.1,86.0 106.9,86.3 107.7,86.7 108.5,87.1 109.3,87.4 110.1,87.8 111.0,88.1 111.8,88.5 112.6,88.8 113.4,89.1 114.2,89.4 115.0,89.8 115.8,90.1 116.7,90.4 117.5,90.7 118.3,91.0 119.1,91.3 119.9,91.6 120.7,91.9 121.5,92.2 122.4,92.6 123.2,92.9 124.0,93.2 124.8,93.5 125.6,93.8 126.4,94.0 127.2,94.3 128.0,94.6 128.9,94.9 129.7,95.2 130.5,95.5 131.3,95.8 132.1,96.0 132.9,96.3 133.7,96.6 134.6,96.9 135.4,97.1 136.2,97.4 137.0,97.7 137.8,98.0 138.6,98.3 139.4,98.6 140.3,98.9 141.1,99.1 141.9,99.4 142.7,99.7 143.5,100.0 144.3,100.3 145.1,100.6 145.9,100.9 146.8,101.2 147.6,101.5 148.4,101.8 149.2,102.1 150.0,102.4 150.8,102.7 151.6,103.0 152.5,103.3 153.3,103.6 154.1,103.9 154.9,104.2 155.7,104.4 156.5,104.7 157.3,105.0 158.2,105.3 159.0,105.6 159.8,105.8 160.6,106.1 161.4,106.4 162.2,106.7 163.0,106.9 163.9,107.2 164.7,107.4 165.5,107.7 166.3,108.0 167.1,108.2 167.9,108.5 168.7,108.7 169.5,109.0 170.4,109.2 171.2,109.5 172.0,109.7 172.8,109.9 173.6,110.2 174.4,110.4 175.2,110.7 176.1,110.9 176.9,111.1 177.7,111.4 178.5,111.6 179.3,111.8 180.1,112.0 180.9,112.3 181.8,112.5 182.6,112.7 183.4,112.9 184.2,113.2 185.0,113.4 185.8,113.6 186.6,113.8 187.4,114.1 188.3,114.3 189.1,114.5 189.9,114.7 190.7,114.9 191.5,115.2 192.3,115.4 193.1,115.6 194.0,115.8 194.8,116.1 195.6,116.3 196.4,116.5 197.2,116.7 198.0,117.0 198.8,117.2 199.7,117.4 200.5,117.7 201.3,117.9 202.1,118.2 202.9,118.4 203.7,118.7 204.5,118.9 205.4,119.1 206.2,119.4 207.0,119.6 207.8,119.9 208.6,120.1 209.4,120.4 210.2,120.6 211.0,120.9 211.9,121.1 212.7,121.4 213.5,121.6 214.3,121.9 215.1,122.1 215.9,122.4 216.7,122.7 217.6,122.9 218.4,123.2 219.2,123.4 220.0,123.7 220.8,123.9 221.6,124.2 222.4,124.5 223.3,124.7 224.1,125.0 224.9,125.3 225.7,125.6 226.5,125.9 227.3,126.1 228.1,126.4 228.9,126.7 229.8,127.0 230.6,127.3 231.4,127.6 232.2,127.9 233.0,128.1 233.8,128.4 234.6,128.7 235.5,129.0 236.3,129.3 237.1,129.6 237.9,129.9 238.7,130.2 239.5,130.5 240.3,130.8 241.2,131.1 242.0,131.4 242.8,131.7 243.6,132.0 244.4,132.2 245.2,132.5 246.0,132.8 246.9,133.1 247.7,133.4 248.5,133.7 249.3,134.0 250.1,134.3 250.9,134.6 251.7,134.9 252.5,135.2 253.4,135.5 254.2,135.7 255.0,136.0 255.8,136.3 256.6,136.6 257.4,136.9 258.2,137.2 259.1,137.5 259.9,137.8 260.7,138.1 261.5,138.4 262.3,138.7 263.1,139.1 263.9,139.4 264.8,139.7 265.6,140.0 266.4,140.3 267.2,140.6 268.0,140.9 268.8,141.3 269.6,141.6 270.4,141.9 271.3,142.2 272.1,142.5 272.9,142.9 273.7,143.2 274.5,143.5 275.3,143.9 276.1,144.2 277.0,144.5 277.8,144.9 278.6,145.2 279.4,145.5 280.2,145.9 281.0,146.2 281.8,146.6 282.7,146.9 283.5,147.3 284.3,147.6 285.1,148.0 285.9,148.3 286.7,148.7 287.5,149.0 288.3,149.3 289.2,149.7 290.0,150.0 290.8,150.4 291.6,150.7 292.4,151.0 293.2,151.4 294.0,151.7 294.9,152.1 295.7,152.4 296.5,152.8 297.3,153.1 298.1,153.4 298.9,153.8 299.7,154.1 300.6,154.4 301.4,154.8 302.2,155.1 303.0,155.4 303.8,155.7 304.6,156.1 305.4,156.4 306.3,156.7 307.1,157.0 307.9,157.3 308.7,157.7 309.5,158.0 310.3,158.3 311.1,158.6 311.9,158.9 312.8,159.2 313.6,159.5 314.4,159.8 315.2,160.1 316.0,160.4 316.8,160.6 317.6,160.9 318.5,161.2 319.3,161.5 320.1,161.8 320.9,162.0 321.7,162.3 322.5,162.6 323.3,162.8 324.2,163.1 325.0,163.4 325.8,163.6 326.6,163.9 327.4,164.1 328.2,164.4 329.0,164.6 329.8,164.8 330.7,165.1 331.5,165.3 332.3,165.6 333.1,165.8 333.9,166.0 334.7,166.2 335.5,166.5 336.4,166.7 337.2,166.9 338.0,167.1 338.8,167.3 339.6,167.5 340.4,167.7 341.2,167.9 342.1,168.1 342.9,168.3 343.7,168.5 344.5,168.7 345.3,168.9 346.1,169.1 346.9,169.3 347.8,169.4 348.6,169.6 349.4,169.8 350.2,170.0 351.0,170.1 351.8,170.3 352.6,170.5 353.4,170.6 354.3,170.8 355.1,171.0 355.9,171.1 356.7,171.3 357.5,171.4 358.3,171.6 359.1,171.7 360.0,171.9 360.8,172.0 361.6,172.2 362.4,172.3 363.2,172.5 364.0,172.6 364.8,172.7 365.7,172.9 366.5,173.0 367.3,173.1 368.1,173.3 368.9,173.4 369.7,173.5 370.5,173.7 371.3,173.8 372.2,173.9 373.0,174.0 373.8,174.2 374.6,174.3 375.4,174.4 376.2,174.5 377.0,174.6 377.9,174.8 378.7,174.9 379.5,175.0 380.3,175.2 381.1,175.3 381.9,175.4 382.7,175.6 383.6,175.7 384.4,175.8 385.2,176.0 386.0,176.1 386.8,176.3 387.6,176.4 388.4,176.6 389.3,176.8 390.1,176.9 390.9,177.1 391.7,177.3 392.5,177.5 393.3,177.7 394.1,177.8 394.9,178.0 395.8,178.2 396.6,178.4 397.4,178.6 398.2,178.8 399.0,179.0 399.8,179.2 400.6,179.4 401.5,179.6 402.3,179.8 403.1,180.0 403.9,180.2 404.7,180.4 405.5,180.6 406.3,180.8 407.2,181.0 408.0,181.1 408.8,181.3 409.6,181.5 410.4,181.7 411.2,181.9 412.0,182.1 412.8,182.3 413.7,182.5 414.5,182.7 415.3,182.9 416.1,183.1 416.9,183.3 417.7,183.6 418.5,183.8 419.4,184.0 420.2,184.2 421.0,184.4 421.8,184.7 422.6,184.9 423.4,185.1 424.2,185.3 425.1,185.5 425.9,185.7 426.7,185.9 427.5,186.2 428.3,186.4 429.1,186.6 429.9,186.8 430.7,187.0 431.6,187.2 432.4,187.4 433.2,187.6 434.0,187.8 434.8,188.1 435.6,188.3 436.4,188.5 437.3,188.7 438.1,188.9 438.9,189.1 439.7,189.3 440.5,189.5 441.3,189.7 442.1,189.9 443.0,190.1 443.8,190.3 444.6,190.5 445.4,190.7 446.2,190.9 447.0,191.1 447.8,191.3 448.7,191.5 449.5,191.7 450.3,191.9 451.1,192.1 451.9,192.4 452.7,192.6 453.5,192.8 454.3,193.0 455.2,193.2 456.0,193.4 456.8,193.7 457.6,193.9 458.4,194.1 459.2,194.3 460.0,194.5 460.9,194.8 461.7,195.0 462.5,195.2 463.3,195.4 464.1,195.7 464.9,195.9 465.7,196.1 466.6,196.4 467.4,196.6 468.2,196.8 469.0,197.1 469.8,197.3 470.6,197.5 471.4,197.8 472.2,198.0 473.1,198.3 473.9,198.5 474.7,198.8 475.5,199.0 476.3,199.3 477.1,199.5 477.9,199.8 478.8,200.0 479.6,200.3 480.4,200.6 481.2,200.8 482.0,201.1 482.8,201.4 483.6,201.6 484.5,201.9 485.3,202.2 486.1,202.4 486.9,202.7 487.7,203.0 488.5,203.3 489.3,203.6 490.2,203.8 491.0,204.1 491.8,204.4 492.6,204.7 493.4,205.0 494.2,205.3 495.0,205.5 495.8,205.8 496.7,206.1 497.5,206.4 498.3,206.7 499.1,206.9 499.9,207.2 500.7,207.5 501.5,207.8 502.4,208.0 503.2,208.3 504.0,208.6 504.8,208.9 505.6,209.2 506.4,209.4 507.2,209.7 508.1,210.0 508.9,210.2 509.7,210.5 510.5,210.8 511.3,211.1 512.1,211.3 512.9,211.6 513.7,211.9 514.6,212.1 515.4,212.4 516.2,212.7 517.0,212.9 517.8,213.2 518.6,213.5 519.4,213.8 520.3,214.0 521.1,214.3 521.9,214.6 522.7,214.9 523.5,215.1 524.3,215.4 525.1,215.7 526.0,216.0 526.8,216.3 527.6,216.6 528.4,216.9 529.2,217.1 530.0,217.4 530.8,217.7 531.7,218.0 532.5,218.3 533.3,218.7 534.1,219.0 534.9,219.3 535.7,219.6 536.5,219.9 537.3,220.2 538.2,220.5 539.0,220.9 539.8,221.2 540.6,221.5 541.4,221.8 542.2,222.1 543.0,222.4 543.9,222.7 544.7,223.0 545.5,223.3 546.3,223.6 547.1,223.8 547.9,224.1 548.7,224.4 549.6,224.7 550.4,224.9 551.2,225.2 552.0,225.5 552.8,225.7 553.6,226.0 554.4,226.2 555.2,226.5 556.1,226.7 556.9,227.0 557.7,227.2 558.5,227.4 559.3,227.6 560.1,227.9 560.9,228.1 561.8,228.3 562.6,228.5 563.4,228.7 564.2,228.9 565.0,229.1 565.8,229.3 566.6,229.5 567.5,229.7 568.3,229.8 569.1,230.0 569.9,230.2 570.7,230.4 571.5,230.5 572.3,230.7 573.1,230.9 574.0,231.0 574.8,231.2 575.6,231.4 576.4,231.5 577.2,231.7 578.0,231.9 578.8,232.0 579.7,232.2 580.5,232.3 581.3,232.5 582.1,232.6 582.9,232.8 583.7,232.9 584.5,233.0 585.4,233.2 586.2,233.3 587.0,233.4 587.8,233.6 588.6,233.7 589.4,233.8 590.2,233.9 591.1,234.1 591.9,234.2 592.7,234.3 593.5,234.4 594.3,234.6 595.1,234.7 595.9,234.8 596.7,234.9 597.6,235.0 598.4,235.1 599.2,235.2 600.0,235.4 600.8,235.5 601.6,235.6 602.4,235.7 603.3,235.8 604.1,235.9 604.9,236.0 605.7,236.1 606.5,236.2 607.3,236.4 608.1,236.5 609.0,236.6 609.8,236.7 610.6,236.8 611.4,236.9 612.2,237.0 613.0,237.1 613.8,237.2 614.6,237.4 615.5,237.5 616.3,237.6 617.1,237.7 617.9,237.8 618.7,237.9 619.5,238.1 620.3,238.2 621.2,238.3 622.0,238.4 622.8,238.6 623.6,238.7 624.4,238.8 625.2,238.9 626.0,239.1 626.9,239.2 627.7,239.3 628.5,239.4 629.3,239.5 630.1,239.7 630.9,239.8 631.7,239.9 632.6,240.0 633.4,240.2 634.2,240.3 635.0,240.4 635.8,240.6 636.6,240.7 637.4,240.8 638.2,241.0 639.1,241.1 639.9,241.2 640.7,241.4 641.5,241.5 642.3,241.7 643.1,241.8 643.9,242.0 644.8,242.1 645.6,242.3 646.4,242.4 647.2,242.5 648.0,242.7 648.8,242.8 649.6,243.0 650.5,243.2 651.3,243.3 652.1,243.5 652.9,243.6 653.7,243.8 654.5,243.9 655.3,244.1 656.1,244.3 657.0,244.4 657.8,244.6 658.6,244.8 659.4,245.0 660.2,245.1 661.0,245.3 661.8,245.5 662.7,245.7 663.5,245.8 664.3,246.0 665.1,246.2 665.9,246.3 666.7,246.5 667.5,246.7 668.4,246.8 669.2,247.0 670.0,247.2 670.8,247.3 671.6,247.5 672.4,247.7 673.2,247.9 674.1,248.0 674.9,248.2 675.7,248.4 676.5,248.6 677.3,248.7 678.1,248.9 678.9,249.1 679.7,249.3 680.6,249.5 681.4,249.6 682.2,249.8 683.0,250.0 683.8,250.1 684.6,250.3 685.4,250.5 686.3,250.6 687.1,250.8 687.9,251.0 688.7,251.1 689.5,251.3 690.3,251.4 691.1,251.6 692.0,251.8 692.8,251.9 693.6,252.1 694.4,252.3 695.2,252.4 696.0,252.6 696.8,252.8 697.6,252.9 698.5,253.1 699.3,253.3 700.1,253.4 700.9,253.6 701.7,253.8 702.5,253.9 703.3,254.1 704.2,254.3 705.0,254.4 705.8,254.6 706.6,254.8 707.4,254.9 708.2,255.1 709.0,255.3 709.9,255.4 710.7,255.6 711.5,255.8 712.3,255.9 713.1,256.1 713.9,256.3 714.7,256.4 715.5,256.6 716.4,256.8 717.2,256.9 718.0,257.1 718.8,257.2 719.6,257.4 720.4,257.6 721.2,257.8 722.1,257.9 722.9,258.1 723.7,258.3 724.5,258.4 725.3,258.6 726.1,258.8 726.9,259.0 727.8,259.1 728.6,259.3 729.4,259.5 730.2,259.6 731.0,259.8 731.8,260.0 732.6,260.1 733.5,260.3 734.3,260.5 735.1,260.6 735.9,260.8 736.7,261.0 737.5,261.1 738.3,261.3 739.1,261.5 740.0,261.7 740.8,261.8 741.6,262.0 742.4,262.1 743.2,262.3 744.0,262.5 744.8,262.6 745.7,262.8 746.5,262.9 747.3,263.1 748.1,263.2 748.9,263.3 749.7,263.5 750.5,263.6 751.4,263.8 752.2,263.9 753.0,264.0 753.8,264.2 754.6,264.3 755.4,264.4 756.2,264.6 757.0,264.7 757.9,264.8 758.7,264.9 759.5,265.1 760.3,265.2 761.1,265.3 761.9,265.4 762.7,265.5 763.6,265.7 764.4,265.8 765.2,265.9 766.0,266.0"/>
<line x1="606" y1="42" x2="628" y2="42" stroke="#0f62fe" stroke-width="2.2"/>
<text x="634" y="46" font-family="Arial" font-size="12">target_distance_m</text>
</svg>