<svg xmlns="http://www.w3.org/2000/svg" width="820" height="320" viewBox="0 0 820 320">
<rect width="100%" height="100%" fill="#ffffff"/>
<text x="54" y="28" font-family="Arial" font-size="18" font-weight="700">Downrange Position</text>
<line x1="54" y1="266" x2="766" y2="266" stroke="#1f2933"/>
<line x1="54" y1="54" x2="54" y2="266" stroke="#1f2933"/>
<text x="54" y="306" font-family="Arial" font-size="12">time (s)</text>
<text x="596" y="306" font-family="Arial" font-size="12">x (m)</text>
<text x="58" y="68" font-family="Arial" font-size="11">553</text>
<text x="58" y="260" font-family="Arial" font-size="11">0</text>
<polyline fill="none" stroke="#0f62fe" stroke-width="2.2" points="54.0,266.0 58.5,265.0 63.0,264.0 67.4,263.0 71.9,262.0 76.4,261.0 80.9,260.0 85.3,259.0 89.8,258.0 94.3,256.9 98.8,255.9 103.3,254.8 107.7,253.8 112.2,252.7 116.7,251.7 121.2,250.6 125.6,249.5 130.1,248.4 134.6,247.3 139.1,246.2 143.6,245.1 148.0,244.0 152.5,242.9 157.0,241.8 161.5,240.6 165.9,239.5 170.4,238.3 174.9,237.2 179.4,236.0 183.9,234.9 188.3,233.7 192.8,232.5 197.3,231.3 201.8,230.1 206.3,228.9 210.7,227.7 215.2,226.5 219.7,225.3 224.2,224.0 228.6,222.8 233.1,221.6 237.6,220.3 242.1,219.0 246.6,217.8 251.0,216.5 255.5,215.2 260.0,214.0 264.5,212.7 268.9,211.4 273.4,210.1 277.9,208.8 282.4,207.4 286.9,206.1 291.3,204.8 295.8,203.5 300.3,202.1 304.8,200.8 309.2,199.4 313.7,198.0 318.2,196.7 322.7,195.3 327.2,193.9 331.6,192.5 336.1,191.1 340.6,189.7 345.1,188.3 349.5,186.9 354.0,185.5 358.5,184.1 363.0,182.6 367.5,181.2 371.9,179.8 376.4,178.3 380.9,176.8 385.4,175.4 389.8,173.9 394.3,172.4 398.8,171.0 403.3,169.5 407.8,168.0 412.2,166.5 416.7,165.0 421.2,163.4 425.7,161.9 430.2,160.4 434.6,158.9 439.1,157.3 443.6,155.8 448.1,154.3 452.5,152.8 457.0,151.2 461.5,149.7 466.0,148.2 470.5,146.7 474.9,145.2 479.4,143.7 483.9,142.2 488.4,140.7 492.8,139.2 497.3,137.7 501.8,136.2 506.3,134.8 510.8,133.3 515.2,131.9 519.7,130.4 524.2,128.9 528.7,127.5 533.1,126.0 537.6,124.6 542.1,123.1 546.6,121.6 551.1,120.2 555.5,118.7 560.0,117.3 564.5,115.9 569.0,114.4 573.4,113.0 577.9,111.6 582.4,110.2 586.9,108.8 591.4,107.3 595.8,105.9 600.3,104.5 604.8,103.1 609.3,101.7 613.7,100.3 618.2,98.9 622.7,97.5 627.2,96.1 631.7,94.7 636.1,93.4 640.6,92.0 645.1,90.6 649.6,89.2 654.1,87.8 658.5,86.4 663.0,85.1 667.5,83.7 672.0,82.3 676.4,81.0 680.9,79.6 685.4,78.2 689.9,76.9 694.4,75.5 698.8,74.2 703.3,72.8 707.8,71.5 712.3,70.1 716.7,68.7 721.2,67.4 725.7,66.0 730.2,64.7 734.7,63.3 739.1,62.0 743.6,60.6 748.1,59.3 752.6,58.0 757.0,56.6 761.5,55.3 766.0,54.0"/>
<line x1="606" y1="42" x2="628" y2="42" stroke="#0f62fe" stroke-width="2.2"/>
<text x="634" y="46" font-family="Arial" font-size="12">x_m</text>
</svg>