<svg xmlns="http://www.w3.org/2000/svg" width="820" height="320" viewBox="0 0 820 320">
<rect width="100%" height="100%" fill="#ffffff"/>
<text x="54" y="28" font-family="Arial" font-size="18" font-weight="700">Crossrange Position</text>
<line x1="54" y1="266" x2="766" y2="266" stroke="#1f2933"/>
<line x1="54" y1="54" x2="54" y2="266" stroke="#1f2933"/>
<text x="54" y="306" font-family="Arial" font-size="12">time (s)</text>
<text x="596" y="306" font-family="Arial" font-size="12">y (m)</text>
<text x="58" y="68" font-family="Arial" font-size="11">15.7</text>
<text x="58" y="260" font-family="Arial" font-size="11">-0.053</text>
<polyline fill="none" stroke="#0f62fe" stroke-width="2.2" points="54.0,265.3 58.5,265.3 63.0,265.3 67.4,265.3 71.9,265.3 76.4,265.3 80.9,265.3 85.3,265.3 89.8,265.3 94.3,265.3 98.8,265.3 103.3,265.3 107.7,265.3 112.2,265.3 116.7,265.3 121.2,265.3 125.6,265.3 130.1,265.3 134.6,265.3 139.1,265.3 143.6,265.3 148.0,265.3 152.5,265.3 157.0,265.3 161.5,265.3 165.9,265.4 170.4,265.4 174.9,265.4 179.4,265.4 183.9,265.4 188.3,265.4 192.8,265.5 197.3,265.5 201.8,265.5 206.3,265.5 210.7,265.6 215.2,265.6 219.7,265.6 224.2,265.6 228.6,265.7 233.1,265.7 237.6,265.7 242.1,265.8 246.6,265.8 251.0,265.8 255.5,265.8 260.0,265.9 264.5,265.9 268.9,265.9 273.4,265.9 277.9,266.0 282.4,266.0 286.9,266.0 291.3,266.0 295.8,266.0 300.3,266.0 304.8,266.0 309.2,266.0 313.7,266.0 318.2,266.0 322.7,266.0 327.2,265.9 331.6,265.9 336.1,265.9 340.6,265.8 345.1,265.8 349.5,265.7 354.0,265.7 358.5,265.6 363.0,265.5 367.5,265.3 371.9,265.2 376.4,265.0 380.9,264.8 385.4,264.6 389.8,264.3 394.3,263.9 398.8,263.5 403.3,263.0 407.8,262.5 412.2,261.8 416.7,261.0 421.2,260.0 425.7,258.9 430.2,257.5 434.6,255.9 439.1,254.0 443.6,251.8 448.1,249.2 452.5,246.4 457.0,243.2 461.5,239.7 466.0,236.1 470.5,232.1 474.9,228.1 479.4,224.0 483.9,220.0 488.4,216.3 492.8,213.0 497.3,209.7 501.8,206.6 506.3,203.9 510.8,201.5 515.2,199.4 519.7,197.7 524.2,196.1 528.7,194.7 533.1,193.3 537.6,191.7 542.1,189.8 546.6,187.6 551.1,184.9 555.5,181.9 560.0,178.6 564.5,175.3 569.0,172.1 573.4,169.1 577.9,166.4 582.4,164.1 586.9,162.1 591.4,160.3 595.8,158.5 600.3,156.7 604.8,154.7 609.3,152.4 613.7,149.8 618.2,146.9 622.7,143.7 627.2,140.4 631.7,137.0 636.1,133.8 640.6,130.9 645.1,128.3 649.6,126.1 654.1,124.1 658.5,122.3 663.0,120.6 667.5,118.7 672.0,116.6 676.4,114.2 680.9,111.6 685.4,108.6 689.9,105.4 694.4,101.9 698.8,98.2 703.3,94.5 707.8,91.0 712.3,87.7 716.7,84.8 721.2,82.3 725.7,80.0 730.2,77.8 734.7,75.7 739.1,73.4 743.6,70.8 748.1,68.1 752.6,65.0 757.0,61.6 761.5,58.0 766.0,54.0"/>
<line x1="606" y1="42" x2="628" y2="42" stroke="#0f62fe" stroke-width="2.2"/>
<text x="634" y="46" font-family="Arial" font-size="12">y_m</text>
</svg>