<svg xmlns="http://www.w3.org/2000/svg" width="820" height="320" viewBox="0 0 820 320">
<rect width="100%" height="100%" fill="#ffffff"/>
<text x="54" y="28" font-family="Arial" font-size="18" font-weight="700">Alpha/Beta</text>
<line x1="54" y1="266" x2="766" y2="266" stroke="#1f2933"/>
<line x1="54" y1="54" x2="54" y2="266" stroke="#1f2933"/>
<text x="54" y="306" font-family="Arial" font-size="12">time (s)</text>
<text x="596" y="306" font-family="Arial" font-size="12">angle (deg)</text>
<text x="58" y="68" font-family="Arial" font-size="11">35</text>
<text x="58" y="260" font-family="Arial" font-size="11">-35</text>
<polyline fill="none" stroke="#0f62fe" stroke-width="2.2" points="54.0,158.0 58.5,156.6 63.0,155.0 67.4,153.6 71.9,152.6 76.4,151.9 80.9,151.3 85.3,150.7 89.8,150.1 94.3,149.6 98.8,149.2 103.3,148.8 107.7,148.5 112.2,148.2 116.7,148.0 121.2,147.8 125.6,147.6 130.1,147.4 134.6,147.3 139.1,147.1 143.6,147.0 148.0,146.9 152.5,146.8 157.0,146.7 161.5,146.6 165.9,146.5 170.4,146.4 174.9,146.4 179.4,146.3 183.9,146.2 188.3,146.2 192.8,146.1 197.3,146.1 201.8,146.0 206.3,146.0 210.7,146.0 215.2,145.9 219.7,145.9 224.2,145.9 228.6,145.8 233.1,145.8 237.6,145.8 242.1,145.7 246.6,145.7 251.0,145.7 255.5,145.7 260.0,145.7 264.5,145.6 268.9,145.6 273.4,145.6 277.9,145.6 282.4,145.6 286.9,145.6 291.3,145.6 295.8,145.6 300.3,145.6 304.8,145.6 309.2,145.6 313.7,145.6 318.2,145.6 322.7,145.6 327.2,145.6 331.6,145.6 336.1,145.6 340.6,145.6 345.1,145.6 349.5,145.6 354.0,145.6 358.5,145.5 363.0,145.5 367.5,145.4 371.9,145.4 376.4,145.2 380.9,145.1 385.4,144.8 389.8,144.5 394.3,144.1 398.8,143.4 403.3,142.6 407.8,141.5 412.2,140.0 416.7,137.9 421.2,135.2 425.7,131.5 430.2,126.4 434.6,118.7 439.1,108.6 443.6,96.5 448.1,82.7 452.5,67.8 457.0,54.0 461.5,54.0 466.0,54.0 470.5,54.0 474.9,54.0 479.4,54.0 483.9,56.4 488.4,114.2 492.8,192.0 497.3,243.7 501.8,266.0 506.3,266.0 510.8,266.0 515.2,255.5 519.7,242.1 524.2,230.7 528.7,223.1 533.1,221.1 537.6,223.8 542.1,229.6 546.6,236.7 551.1,245.0 555.5,254.6 560.0,266.0 564.5,266.0 569.0,266.0 573.4,266.0 577.9,266.0 582.4,266.0 586.9,266.0 591.4,266.0 595.8,266.0 600.3,266.0 604.8,266.0 609.3,266.0 613.7,266.0 618.2,266.0 622.7,266.0 627.2,266.0 631.7,258.6 636.1,254.6 640.6,257.5 645.1,266.0 649.6,266.0 654.1,266.0 658.5,266.0 663.0,266.0 667.5,266.0 672.0,266.0 676.4,266.0 680.9,266.0 685.4,266.0 689.9,266.0 694.4,266.0 698.8,242.9 703.3,221.7 707.8,206.7 712.3,200.6 716.7,212.1 721.2,250.2 725.7,266.0 730.2,266.0 734.7,266.0 739.1,266.0 743.6,266.0 748.1,266.0 752.6,266.0 757.0,266.0 761.5,266.0 766.0,237.0"/>
<line x1="606" y1="42" x2="628" y2="42" stroke="#0f62fe" stroke-width="2.2"/>
<text x="634" y="46" font-family="Arial" font-size="12">alpha_deg</text>
<polyline fill="none" stroke="#24a148" stroke-width="2.2" points="54.0,160.2 58.5,160.2 63.0,160.2 67.4,160.2 71.9,160.2 76.4,160.2 80.9,160.1 85.3,160.1 89.8,160.1 94.3,160.0 98.8,160.0 103.3,160.0 107.7,159.9 112.2,159.9 116.7,159.9 121.2,159.8 125.6,159.8 130.1,159.7 134.6,159.7 139.1,159.7 143.6,159.6 148.0,159.6 152.5,159.6 157.0,159.6 161.5,159.5 165.9,159.5 170.4,159.5 174.9,159.5 179.4,159.5 183.9,159.5 188.3,159.6 192.8,159.6 197.3,159.6 201.8,159.6 206.3,159.7 210.7,159.7 215.2,159.8 219.7,159.9 224.2,159.9 228.6,160.0 233.1,160.1 237.6,160.1 242.1,160.2 246.6,160.2 251.0,160.3 255.5,160.3 260.0,160.3 264.5,160.3 268.9,160.4 273.4,160.3 277.9,160.3 282.4,160.3 286.9,160.3 291.3,160.2 295.8,160.2 300.3,160.1 304.8,160.1 309.2,160.0 313.7,159.9 318.2,159.8 322.7,159.7 327.2,159.6 331.6,159.6 336.1,159.5 340.6,159.4 345.1,159.4 349.5,159.4 354.0,159.4 358.5,159.4 363.0,159.4 367.5,159.4 371.9,159.5 376.4,159.6 380.9,159.7 385.4,159.9 389.8,160.0 394.3,160.1 398.8,160.3 403.3,160.4 407.8,160.5 412.2,160.6 416.7,160.6 421.2,160.4 425.7,160.0 430.2,159.1 434.6,157.5 439.1,154.6 443.6,149.7 448.1,142.2 452.5,131.3 457.0,116.8 461.5,98.3 466.0,75.9 470.5,69.1 474.9,69.1 479.4,69.1 483.9,69.1 488.4,69.1 492.8,69.1 497.3,69.1 501.8,69.1 506.3,69.1 510.8,69.1 515.2,69.1 519.7,69.1 524.2,69.1 528.7,69.1 533.1,69.1 537.6,69.1 542.1,69.1 546.6,69.1 551.1,69.1 555.5,69.1 560.0,69.1 564.5,69.1 569.0,69.1 573.4,69.1 577.9,69.1 582.4,69.1 586.9,69.1 591.4,78.3 595.8,89.9 600.3,98.8 604.8,104.7 609.3,107.9 613.7,108.3 618.2,105.7 622.7,99.5 627.2,89.4 631.7,76.1 636.1,69.1 640.6,69.1 645.1,69.1 649.6,69.1 654.1,69.1 658.5,69.1 663.0,69.1 667.5,91.2 672.0,116.5 676.4,140.1 680.9,159.3 685.4,171.6 689.9,174.4 694.4,166.7 698.8,149.0 703.3,123.2 707.8,91.6 712.3,69.1 716.7,69.1 721.2,69.1 725.7,69.1 730.2,69.1 734.7,69.1 739.1,85.6 743.6,128.2 748.1,168.5 752.6,201.4 757.0,220.7 761.5,221.6 766.0,203.9"/>
<line x1="606" y1="60" x2="628" y2="60" stroke="#24a148" stroke-width="2.2"/>
<text x="634" y="64" font-family="Arial" font-size="12">beta_deg</text>
</svg>