<svg xmlns="http://www.w3.org/2000/svg" width="820" height="320" viewBox="0 0 820 320">
<rect width="100%" height="100%" fill="#ffffff"/>
<text x="54" y="28" font-family="Arial" font-size="18" font-weight="700">Mach Number</text>
<line x1="54" y1="266" x2="766" y2="266" stroke="#1f2933"/>
<line x1="54" y1="54" x2="54" y2="266" stroke="#1f2933"/>
<text x="54" y="306" font-family="Arial" font-size="12">time (s)</text>
<text x="596" y="306" font-family="Arial" font-size="12">Mach</text>
<text x="58" y="68" font-family="Arial" font-size="11">0.392</text>
<text x="58" y="260" font-family="Arial" font-size="11">0.251</text>
<polyline fill="none" stroke="#0f62fe" stroke-width="2.2" points="54.0,266.0 58.5,263.9 63.0,261.7 67.4,259.5 71.9,257.3 76.4,255.0 80.9,252.7 85.3,250.3 89.8,248.0 94.3,245.5 98.8,243.1 103.3,240.6 107.7,238.0 112.2,235.5 116.7,232.8 121.2,230.2 125.6,227.6 130.1,225.0 134.6,222.3 139.1,219.7 143.6,217.1 148.0,214.5 152.5,211.9 157.0,209.3 161.5,206.7 165.9,204.1 170.4,201.5 174.9,198.9 179.4,196.3 183.9,193.7 188.3,191.1 192.8,188.5 197.3,186.0 201.8,183.4 206.3,180.8 210.7,178.2 215.2,175.7 219.7,173.1 224.2,170.5 228.6,168.0 233.1,165.4 237.6,162.9 242.1,160.3 246.6,157.8 251.0,155.2 255.5,152.7 260.0,150.1 264.5,147.6 268.9,145.1 273.4,142.5 277.9,140.0 282.4,137.5 286.9,135.0 291.3,132.4 295.8,129.9 300.3,127.4 304.8,124.9 309.2,122.4 313.7,119.9 318.2,117.4 322.7,114.9 327.2,112.4 331.6,109.9 336.1,107.5 340.6,105.0 345.1,102.5 349.5,100.0 354.0,97.6 358.5,95.1 363.0,92.6 367.5,90.2 371.9,87.7 376.4,85.3 380.9,82.9 385.4,80.4 389.8,78.0 394.3,75.6 398.8,73.2 403.3,70.9 407.8,68.5 412.2,66.2 416.7,63.9 421.2,61.8 425.7,59.7 430.2,57.7 434.6,56.0 439.1,54.7 443.6,54.0 448.1,54.0 452.5,54.2 457.0,54.7 461.5,55.7 466.0,57.1 470.5,59.2 474.9,61.7 479.4,64.5 483.9,67.3 488.4,70.1 492.8,71.9 497.3,73.1 501.8,74.8 506.3,76.4 510.8,77.7 515.2,78.8 519.7,79.5 524.2,79.9 528.7,80.1 533.1,80.3 537.6,80.7 542.1,81.3 546.6,82.2 551.1,83.2 555.5,84.4 560.0,85.8 564.5,87.3 569.0,88.9 573.4,90.7 577.9,92.5 582.4,94.4 586.9,96.0 591.4,97.6 595.8,98.9 600.3,99.8 604.8,100.6 609.3,101.1 613.7,101.6 618.2,101.9 622.7,102.2 627.2,102.3 631.7,102.5 636.1,102.7 640.6,103.0 645.1,103.5 649.6,104.3 654.1,105.4 658.5,106.9 663.0,108.5 667.5,110.3 672.0,111.8 676.4,113.1 680.9,114.1 685.4,114.8 689.9,115.1 694.4,115.0 698.8,114.4 703.3,113.4 707.8,112.3 712.3,111.3 716.7,110.6 721.2,110.7 725.7,111.5 730.2,113.2 734.7,115.4 739.1,118.0 743.6,120.5 748.1,122.7 752.6,124.5 757.0,125.9 761.5,126.7 766.0,126.6"/>
<line x1="606" y1="42" x2="628" y2="42" stroke="#0f62fe" stroke-width="2.2"/>
<text x="634" y="46" font-family="Arial" font-size="12">mach</text>
</svg>