<svg xmlns="http://www.w3.org/2000/svg" width="820" height="320" viewBox="0 0 820 320">
<rect width="100%" height="100%" fill="#ffffff"/>
<text x="54" y="28" font-family="Arial" font-size="18" font-weight="700">Load Factor</text>
<line x1="54" y1="266" x2="766" y2="266" stroke="#1f2933"/>
<line x1="54" y1="54" x2="54" y2="266" stroke="#1f2933"/>
<text x="54" y="306" font-family="Arial" font-size="12">time (s)</text>
<text x="596" y="306" font-family="Arial" font-size="12">g</text>
<text x="58" y="68" font-family="Arial" font-size="11">3.74</text>
<text x="58" y="260" font-family="Arial" font-size="11">1.73</text>
<polyline fill="none" stroke="#0f62fe" stroke-width="2.2" points="54.0,266.0 58.5,263.1 63.0,260.0 67.4,256.9 71.9,253.8 76.4,250.6 80.9,247.3 85.3,244.0 89.8,240.7 94.3,237.4 98.8,234.1 103.3,230.8 107.7,227.5 112.2,224.2 116.7,223.1 121.2,223.2 125.6,223.3 130.1,223.4 134.6,223.5 139.1,223.6 143.6,223.7 148.0,223.8 152.5,223.8 157.0,223.9 161.5,224.0 165.9,224.1 170.4,224.1 174.9,224.2 179.4,224.3 183.9,224.4 188.3,224.4 192.8,224.5 197.3,224.5 201.8,224.6 206.3,224.7 210.7,224.7 215.2,224.8 219.7,224.8 224.2,224.9 228.6,224.9 233.1,225.0 237.6,225.0 242.1,225.1 246.6,225.1 251.0,225.2 255.5,225.2 260.0,225.3 264.5,225.3 268.9,225.3 273.4,225.4 277.9,225.4 282.4,225.4 286.9,225.5 291.3,225.5 295.8,225.5 300.3,225.5 304.8,225.6 309.2,225.6 313.7,225.6 318.2,225.6 322.7,225.7 327.2,225.7 331.6,225.7 336.1,225.7 340.6,225.7 345.1,225.7 349.5,225.7 354.0,225.7 358.5,225.7 363.0,225.7 367.5,225.6 371.9,225.5 376.4,225.3 380.9,225.1 385.4,224.7 389.8,224.2 394.3,223.5 398.8,222.5 403.3,220.9 407.8,218.6 412.2,215.2 416.7,210.1 421.2,202.3 425.7,190.2 430.2,182.9 434.6,174.9 439.1,154.6 443.6,139.0 448.1,149.7 452.5,154.9 457.0,148.4 461.5,114.8 466.0,75.9 470.5,58.9 474.9,54.0 479.4,54.6 483.9,57.8 488.4,70.3 492.8,86.3 497.3,77.9 501.8,105.6 506.3,116.1 510.8,123.8 515.2,122.8 519.7,117.0 524.2,110.3 528.7,96.4 533.1,85.6 537.6,78.9 542.1,75.6 546.6,75.8 551.1,80.2 555.5,87.3 560.0,94.8 564.5,96.1 569.0,97.8 573.4,100.6 577.9,105.3 582.4,112.3 586.9,115.9 591.4,127.7 595.8,141.4 600.3,148.2 604.8,152.3 609.3,153.8 613.7,152.9 618.2,154.0 622.7,152.6 627.2,147.4 631.7,134.2 636.1,127.3 640.6,130.4 645.1,135.2 649.6,130.2 654.1,122.2 658.5,117.3 663.0,116.2 667.5,128.5 672.0,141.7 676.4,152.1 680.9,160.4 685.4,168.8 689.9,178.6 694.4,190.0 698.8,162.3 703.3,135.8 707.8,119.4 712.3,121.1 716.7,102.2 721.2,122.9 725.7,115.9 730.2,103.6 734.7,93.9 739.1,100.9 743.6,120.5 748.1,132.0 752.6,139.0 757.0,147.0 761.5,164.5 766.0,149.4"/>
<line x1="606" y1="42" x2="628" y2="42" stroke="#0f62fe" stroke-width="2.2"/>
<text x="634" y="46" font-family="Arial" font-size="12">load_factor_g</text>
</svg>