<svg xmlns="http://www.w3.org/2000/svg" width="820" height="320" viewBox="0 0 820 320">
<rect width="100%" height="100%" fill="#ffffff"/>
<text x="54" y="28" font-family="Arial" font-size="18" font-weight="700">Mass</text>
<line x1="54" y1="266" x2="766" y2="266" stroke="#1f2933"/>
<line x1="54" y1="54" x2="54" y2="266" stroke="#1f2933"/>
<text x="54" y="306" font-family="Arial" font-size="12">time (s)</text>
<text x="596" y="306" font-family="Arial" font-size="12">mass (kg)</text>
<text x="58" y="68" font-family="Arial" font-size="11">18.2</text>
<text x="58" y="260" font-family="Arial" font-size="11">17.1</text>
<polyline fill="none" stroke="#0f62fe" stroke-width="2.2" points="54.0,54.0 58.5,55.1 63.0,56.2 67.4,57.3 71.9,58.5 76.4,59.7 80.9,60.9 85.3,62.1 89.8,63.3 94.3,64.5 98.8,65.8 103.3,67.1 107.7,68.4 112.2,69.7 116.7,71.1 121.2,72.4 125.6,73.8 130.1,75.1 134.6,76.5 139.1,77.8 143.6,79.2 148.0,80.5 152.5,81.9 157.0,83.2 161.5,84.6 165.9,85.9 170.4,87.3 174.9,88.7 179.4,90.0 183.9,91.4 188.3,92.7 192.8,94.1 197.3,95.4 201.8,96.8 206.3,98.1 210.7,99.5 215.2,100.8 219.7,102.2 224.2,103.5 228.6,104.9 233.1,106.2 237.6,107.6 242.1,108.9 246.6,110.3 251.0,111.6 255.5,113.0 260.0,114.3 264.5,115.6 268.9,117.0 273.4,118.3 277.9,119.7 282.4,121.0 286.9,122.4 291.3,123.7 295.8,125.1 300.3,126.4 304.8,127.8 309.2,129.1 313.7,130.5 318.2,131.8 322.7,133.2 327.2,134.5 331.6,135.9 336.1,137.2 340.6,138.6 345.1,139.9 349.5,141.3 354.0,142.6 358.5,143.9 363.0,145.3 367.5,146.6 371.9,148.0 376.4,149.3 380.9,150.7 385.4,152.0 389.8,153.4 394.3,154.7 398.8,156.1 403.3,157.4 407.8,158.8 412.2,160.1 416.7,161.4 421.2,162.8 425.7,164.1 430.2,165.5 434.6,166.8 439.1,168.2 443.6,169.5 448.1,170.9 452.5,172.2 457.0,173.5 461.5,174.9 466.0,176.2 470.5,177.6 474.9,178.9 479.4,180.3 483.9,181.6 488.4,182.9 492.8,184.3 497.3,185.6 501.8,187.0 506.3,188.3 510.8,189.7 515.2,191.0 519.7,192.3 524.2,193.7 528.7,195.0 533.1,196.4 537.6,197.7 542.1,199.1 546.6,200.4 551.1,201.7 555.5,203.1 560.0,204.4 564.5,205.8 569.0,207.1 573.4,208.4 577.9,209.8 582.4,211.1 586.9,212.5 591.4,213.8 595.8,215.1 600.3,216.5 604.8,217.8 609.3,219.2 613.7,220.5 618.2,221.8 622.7,223.2 627.2,224.5 631.7,225.9 636.1,227.2 640.6,228.5 645.1,229.9 649.6,231.2 654.1,232.6 658.5,233.9 663.0,235.2 667.5,236.6 672.0,237.9 676.4,239.3 680.9,240.6 685.4,241.9 689.9,243.3 694.4,244.6 698.8,245.9 703.3,247.3 707.8,248.6 712.3,250.0 716.7,251.3 721.2,252.6 725.7,254.0 730.2,255.3 734.7,256.6 739.1,258.0 743.6,259.3 748.1,260.7 752.6,262.0 757.0,263.3 761.5,264.7 766.0,266.0"/>
<line x1="606" y1="42" x2="628" y2="42" stroke="#0f62fe" stroke-width="2.2"/>
<text x="634" y="46" font-family="Arial" font-size="12">mass_kg</text>
</svg>