<svg xmlns="http://www.w3.org/2000/svg" width="820" height="320" viewBox="0 0 820 320">
<rect width="100%" height="100%" fill="#ffffff"/>
<text x="54" y="28" font-family="Arial" font-size="18" font-weight="700">Specific Energy</text>
<line x1="54" y1="266" x2="766" y2="266" stroke="#1f2933"/>
<line x1="54" y1="54" x2="54" y2="266" stroke="#1f2933"/>
<text x="54" y="306" font-family="Arial" font-size="12">time (s)</text>
<text x="596" y="306" font-family="Arial" font-size="12">J/kg</text>
<text x="58" y="68" font-family="Arial" font-size="11">9.18e+03</text>
<text x="58" y="260" font-family="Arial" font-size="11">3.84e+03</text>
<polyline fill="none" stroke="#0f62fe" stroke-width="2.2" points="54.0,266.0 58.5,264.3 63.0,262.5 67.4,260.7 71.9,258.9 76.4,257.0 80.9,255.1 85.3,253.2 89.8,251.2 94.3,249.1 98.8,247.1 103.3,245.0 107.7,242.8 112.2,240.6 116.7,238.4 121.2,236.1 125.6,233.8 130.1,231.5 134.6,229.2 139.1,226.9 143.6,224.6 148.0,222.3 152.5,220.0 157.0,217.6 161.5,215.2 165.9,212.9 170.4,210.5 174.9,208.1 179.4,205.7 183.9,203.3 188.3,200.9 192.8,198.5 197.3,196.0 201.8,193.6 206.3,191.1 210.7,188.6 215.2,186.2 219.7,183.7 224.2,181.2 228.6,178.7 233.1,176.1 237.6,173.6 242.1,171.1 246.6,168.5 251.0,166.0 255.5,163.4 260.0,160.8 264.5,158.2 268.9,155.7 273.4,153.1 277.9,150.4 282.4,147.8 286.9,145.2 291.3,142.6 295.8,139.9 300.3,137.3 304.8,134.6 309.2,131.9 313.7,129.2 318.2,126.5 322.7,123.8 327.2,121.1 331.6,118.4 336.1,115.7 340.6,113.0 345.1,110.2 349.5,107.5 354.0,104.7 358.5,102.0 363.0,99.2 367.5,96.4 371.9,93.6 376.4,90.8 380.9,88.0 385.4,85.2 389.8,82.4 394.3,79.7 398.8,76.9 403.3,74.1 407.8,71.3 412.2,68.6 416.7,65.9 421.2,63.3 425.7,60.8 430.2,58.5 434.6,56.4 439.1,54.9 443.6,54.1 448.1,54.0 452.5,54.2 457.0,54.9 461.5,56.0 466.0,57.8 470.5,60.3 474.9,63.3 479.4,66.7 483.9,70.1 488.4,73.4 492.8,75.6 497.3,77.2 501.8,79.2 506.3,81.2 510.8,82.9 515.2,84.2 519.7,85.2 524.2,85.8 528.7,86.2 533.1,86.5 537.6,87.1 542.1,87.9 546.6,88.9 551.1,90.2 555.5,91.7 560.0,93.4 564.5,95.2 569.0,97.3 573.4,99.4 577.9,101.6 582.4,103.8 586.9,105.9 591.4,107.8 595.8,109.4 600.3,110.6 604.8,111.5 609.3,112.3 613.7,112.9 618.2,113.5 622.7,113.9 627.2,114.2 631.7,114.6 636.1,115.0 640.6,115.6 645.1,116.4 649.6,117.5 654.1,118.9 658.5,120.7 663.0,122.7 667.5,124.8 672.0,126.6 676.4,128.2 680.9,129.4 685.4,130.4 689.9,130.9 694.4,131.0 698.8,130.6 703.3,129.8 707.8,128.8 712.3,128.0 716.7,127.5 721.2,127.8 725.7,129.0 730.2,131.0 734.7,133.7 739.1,136.6 743.6,139.6 748.1,142.1 752.6,144.2 757.0,146.0 761.5,147.0 766.0,147.2"/>
<line x1="606" y1="42" x2="628" y2="42" stroke="#0f62fe" stroke-width="2.2"/>
<text x="634" y="46" font-family="Arial" font-size="12">energy_j_per_kg</text>
</svg>