<svg xmlns="http://www.w3.org/2000/svg" width="820" height="320" viewBox="0 0 820 320">
<rect width="100%" height="100%" fill="#ffffff"/>
<text x="54" y="28" font-family="Arial" font-size="18" font-weight="700">Altitude</text>
<line x1="54" y1="266" x2="766" y2="266" stroke="#1f2933"/>
<line x1="54" y1="54" x2="54" y2="266" stroke="#1f2933"/>
<text x="54" y="306" font-family="Arial" font-size="12">time (s)</text>
<text x="596" y="306" font-family="Arial" font-size="12">altitude (m)</text>
<text x="58" y="68" font-family="Arial" font-size="11">1.1e+03</text>
<text x="58" y="260" font-family="Arial" font-size="11">440</text>
<polyline fill="none" stroke="#0f62fe" stroke-width="2.2" points="54.0,85.1 55.2,85.0 56.4,84.9 57.6,84.8 58.7,84.6 59.9,84.5 61.1,84.4 62.3,84.3 63.5,84.1 64.7,84.0 65.9,83.9 67.1,83.8 68.2,83.7 69.4,83.5 70.6,83.4 71.8,83.3 73.0,83.2 74.2,83.1 75.4,83.0 76.5,82.9 77.7,82.8 78.9,82.6 80.1,82.5 81.3,82.4 82.5,82.3 83.7,82.2 84.9,82.1 86.0,82.0 87.2,81.9 88.4,81.8 89.6,81.6 90.8,81.5 92.0,81.4 93.2,81.3 94.3,81.2 95.5,81.1 96.7,81.0 97.9,80.9 99.1,80.8 100.3,80.7 101.5,80.5 102.7,80.4 103.8,80.3 105.0,80.2 106.2,80.1 107.4,80.0 108.6,79.9 109.8,79.8 111.0,79.7 112.1,79.5 113.3,79.4 114.5,79.3 115.7,79.2 116.9,79.1 118.1,79.0 119.3,78.9 120.5,78.7 121.6,78.6 122.8,78.5 124.0,78.4 125.2,78.3 126.4,78.2 127.6,78.0 128.8,77.9 129.9,77.8 131.1,77.7 132.3,77.5 133.5,77.4 134.7,77.3 135.9,77.2 137.1,77.0 138.3,76.9 139.4,76.8 140.6,76.7 141.8,76.5 143.0,76.4 144.2,76.3 145.4,76.1 146.6,76.0 147.7,75.9 148.9,75.7 150.1,75.6 151.3,75.5 152.5,75.3 153.7,75.2 154.9,75.0 156.1,74.9 157.2,74.7 158.4,74.6 159.6,74.5 160.8,74.3 162.0,74.2 163.2,74.0 164.4,73.9 165.5,73.7 166.7,73.6 167.9,73.4 169.1,73.3 170.3,73.1 171.5,73.0 172.7,72.8 173.9,72.7 175.0,72.5 176.2,72.3 177.4,72.2 178.6,72.0 179.8,71.9 181.0,71.7 182.2,71.5 183.3,71.4 184.5,71.2 185.7,71.1 186.9,70.9 188.1,70.7 189.3,70.6 190.5,70.4 191.7,70.2 192.8,70.1 194.0,69.9 195.2,69.7 196.4,69.5 197.6,69.4 198.8,69.2 200.0,69.0 201.1,68.9 202.3,68.7 203.5,68.5 204.7,68.3 205.9,68.2 207.1,68.0 208.3,67.8 209.5,67.6 210.6,67.5 211.8,67.3 213.0,67.1 214.2,66.9 215.4,66.7 216.6,66.6 217.8,66.4 218.9,66.2 220.1,66.0 221.3,65.8 222.5,65.7 223.7,65.5 224.9,65.3 226.1,65.1 227.3,64.9 228.4,64.8 229.6,64.6 230.8,64.4 232.0,64.2 233.2,64.0 234.4,63.8 235.6,63.7 236.7,63.5 237.9,63.3 239.1,63.1 240.3,62.9 241.5,62.8 242.7,62.6 243.9,62.4 245.1,62.2 246.2,62.0 247.4,61.9 248.6,61.7 249.8,61.5 251.0,61.3 252.2,61.2 253.4,61.0 254.5,60.8 255.7,60.6 256.9,60.5 258.1,60.3 259.3,60.1 260.5,59.9 261.7,59.8 262.9,59.6 264.0,59.4 265.2,59.3 266.4,59.1 267.6,58.9 268.8,58.8 270.0,58.6 271.2,58.5 272.3,58.3 273.5,58.1 274.7,58.0 275.9,57.8 277.1,57.7 278.3,57.5 279.5,57.4 280.7,57.3 281.8,57.1 283.0,57.0 284.2,56.8 285.4,56.7 286.6,56.6 287.8,56.4 289.0,56.3 290.1,56.2 291.3,56.1 292.5,55.9 293.7,55.8 294.9,55.7 296.1,55.6 297.3,55.5 298.5,55.4 299.6,55.3 300.8,55.2 302.0,55.1 303.2,55.0 304.4,54.9 305.6,54.8 306.8,54.8 307.9,54.7 309.1,54.6 310.3,54.6 311.5,54.5 312.7,54.4 313.9,54.4 315.1,54.3 316.3,54.3 317.4,54.2 318.6,54.2 319.8,54.1 321.0,54.1 322.2,54.1 323.4,54.1 324.6,54.0 325.7,54.0 326.9,54.0 328.1,54.0 329.3,54.0 330.5,54.0 331.7,54.0 332.9,54.0 334.1,54.0 335.2,54.0 336.4,54.1 337.6,54.1 338.8,54.1 340.0,54.1 341.2,54.2 342.4,54.2 343.5,54.3 344.7,54.3 345.9,54.4 347.1,54.4 348.3,54.5 349.5,54.6 350.7,54.6 351.9,54.7 353.0,54.8 354.2,54.9 355.4,55.0 356.6,55.0 357.8,55.1 359.0,55.2 360.2,55.3 361.3,55.4 362.5,55.6 363.7,55.7 364.9,55.8 366.1,55.9 367.3,56.1 368.5,56.2 369.7,56.3 370.8,56.5 372.0,56.6 373.2,56.8 374.4,56.9 375.6,57.1 376.8,57.2 378.0,57.4 379.1,57.6 380.3,57.8 381.5,57.9 382.7,58.1 383.9,58.3 385.1,58.5 386.3,58.7 387.5,58.9 388.6,59.1 389.8,59.3 391.0,59.5 392.2,59.7 393.4,59.9 394.6,60.1 395.8,60.3 396.9,60.6 398.1,60.8 399.3,61.0 400.5,61.2 401.7,61.5 402.9,61.7 404.1,61.9 405.3,62.2 406.4,62.4 407.6,62.7 408.8,62.9 410.0,63.1 411.2,63.4 412.4,63.6 413.6,63.9 414.7,64.2 415.9,64.4 417.1,64.7 418.3,65.0 419.5,65.2 420.7,65.5 421.9,65.8 423.1,66.1 424.2,66.4 425.4,66.7 426.6,67.0 427.8,67.3 429.0,67.6 430.2,67.9 431.4,68.2 432.5,68.6 433.7,68.9 434.9,69.3 436.1,69.7 437.3,70.0 438.5,70.4 439.7,70.8 440.9,71.2 442.0,71.6 443.2,72.0 444.4,72.5 445.6,72.9 446.8,73.3 448.0,73.8 449.2,74.2 450.3,74.7 451.5,75.1 452.7,75.6 453.9,76.0 455.1,76.5 456.3,77.0 457.5,77.4 458.7,77.9 459.8,78.3 461.0,78.8 462.2,79.3 463.4,79.7 464.6,80.2 465.8,80.7 467.0,81.2 468.1,81.7 469.3,82.2 470.5,82.7 471.7,83.2 472.9,83.7 474.1,84.2 475.3,84.7 476.5,85.2 477.6,85.8 478.8,86.3 480.0,86.9 481.2,87.4 482.4,88.0 483.6,88.6 484.8,89.2 485.9,89.8 487.1,90.4 488.3,91.0 489.5,91.6 490.7,92.2 491.9,92.8 493.1,93.4 494.3,94.0 495.4,94.7 496.6,95.3 497.8,95.9 499.0,96.6 500.2,97.2 501.4,97.9 502.6,98.5 503.7,99.2 504.9,99.9 506.1,100.5 507.3,101.2 508.5,101.9 509.7,102.6 510.9,103.3 512.1,104.0 513.2,104.7 514.4,105.4 515.6,106.1 516.8,106.8 518.0,107.5 519.2,108.2 520.4,109.0 521.5,109.7 522.7,110.4 523.9,111.2 525.1,111.9 526.3,112.7 527.5,113.4 528.7,114.2 529.9,115.0 531.0,115.7 532.2,116.5 533.4,117.3 534.6,118.0 535.8,118.8 537.0,119.6 538.2,120.4 539.3,121.2 540.5,122.0 541.7,122.8 542.9,123.6 544.1,124.4 545.3,125.2 546.5,126.0 547.7,126.8 548.8,127.6 550.0,128.4 551.2,129.2 552.4,130.0 553.6,130.9 554.8,131.7 556.0,132.5 557.1,133.3 558.3,134.1 559.5,135.0 560.7,135.8 561.9,136.6 563.1,137.4 564.3,138.3 565.5,139.1 566.6,139.9 567.8,140.7 569.0,141.6 570.2,142.4 571.4,143.2 572.6,144.0 573.8,144.8 574.9,145.6 576.1,146.5 577.3,147.3 578.5,148.1 579.7,148.9 580.9,149.7 582.1,150.5 583.3,151.3 584.4,152.1 585.6,152.9 586.8,153.7 588.0,154.5 589.2,155.3 590.4,156.1 591.6,156.9 592.7,157.7 593.9,158.5 595.1,159.3 596.3,160.1 597.5,160.9 598.7,161.7 599.9,162.5 601.1,163.3 602.2,164.1 603.4,164.9 604.6,165.7 605.8,166.5 607.0,167.3 608.2,168.1 609.4,168.8 610.5,169.6 611.7,170.4 612.9,171.2 614.1,172.0 615.3,172.7 616.5,173.5 617.7,174.3 618.9,175.1 620.0,175.8 621.2,176.6 622.4,177.4 623.6,178.1 624.8,178.9 626.0,179.7 627.2,180.4 628.3,181.2 629.5,182.0 630.7,182.7 631.9,183.5 633.1,184.3 634.3,185.0 635.5,185.8 636.7,186.5 637.8,187.3 639.0,188.0 640.2,188.8 641.4,189.6 642.6,190.3 643.8,191.1 645.0,191.8 646.1,192.6 647.3,193.3 648.5,194.0 649.7,194.8 650.9,195.5 652.1,196.3 653.3,197.0 654.5,197.7 655.6,198.5 656.8,199.2 658.0,199.9 659.2,200.7 660.4,201.4 661.6,202.1 662.8,202.9 663.9,203.6 665.1,204.3 666.3,205.1 667.5,205.8 668.7,206.5 669.9,207.3 671.1,208.0 672.3,208.7 673.4,209.5 674.6,210.2 675.8,210.9 677.0,211.7 678.2,212.4 679.4,213.1 680.6,213.9 681.7,214.6 682.9,215.3 684.1,216.1 685.3,216.8 686.5,217.6 687.7,218.3 688.9,219.0 690.1,219.8 691.2,220.5 692.4,221.2 693.6,222.0 694.8,222.7 696.0,223.4 697.2,224.2 698.4,224.9 699.5,225.6 700.7,226.4 701.9,227.1 703.1,227.8 704.3,228.6 705.5,229.3 706.7,230.0 707.9,230.7 709.0,231.5 710.2,232.2 711.4,232.9 712.6,233.7 713.8,234.4 715.0,235.1 716.2,235.8 717.3,236.6 718.5,237.3 719.7,238.0 720.9,238.7 722.1,239.5 723.3,240.2 724.5,240.9 725.7,241.6 726.8,242.4 728.0,243.1 729.2,243.8 730.4,244.5 731.6,245.2 732.8,246.0 734.0,246.7 735.1,247.4 736.3,248.1 737.5,248.8 738.7,249.6 739.9,250.3 741.1,251.0 742.3,251.7 743.5,252.4 744.6,253.1 745.8,253.9 747.0,254.6 748.2,255.3 749.4,256.0 750.6,256.7 751.8,257.4 752.9,258.2 754.1,258.9 755.3,259.6 756.5,260.3 757.7,261.0 758.9,261.7 760.1,262.4 761.3,263.2 762.4,263.9 763.6,264.6 764.8,265.3 766.0,266.0"/>
<line x1="606" y1="42" x2="628" y2="42" stroke="#0f62fe" stroke-width="2.2"/>
<text x="634" y="46" font-family="Arial" font-size="12">altitude_m</text>
</svg>