<svg xmlns="http://www.w3.org/2000/svg" width="820" height="320" viewBox="0 0 820 320">
<rect width="100%" height="100%" fill="#ffffff"/>
<text x="54" y="28" font-family="Arial" font-size="18" font-weight="700">Downrange Position</text>
<line x1="54" y1="266" x2="766" y2="266" stroke="#1f2933"/>
<line x1="54" y1="54" x2="54" y2="266" stroke="#1f2933"/>
<text x="54" y="306" font-family="Arial" font-size="12">time (s)</text>
<text x="596" y="306" font-family="Arial" font-size="12">x (m)</text>
<text x="58" y="68" font-family="Arial" font-size="11">982</text>
<text x="58" y="260" font-family="Arial" font-size="11">0</text>
<polyline fill="none" stroke="#0f62fe" stroke-width="2.2" points="54.0,266.0 55.2,265.5 56.4,264.9 57.6,264.4 58.7,263.8 59.9,263.3 61.1,262.7 62.3,262.1 63.5,261.6 64.7,261.0 65.9,260.4 67.1,259.9 68.2,259.3 69.4,258.7 70.6,258.1 71.8,257.5 73.0,256.9 74.2,256.3 75.4,255.7 76.5,255.1 77.7,254.5 78.9,253.9 80.1,253.3 81.3,252.7 82.5,252.1 83.7,251.4 84.9,250.8 86.0,250.2 87.2,249.5 88.4,248.9 89.6,248.2 90.8,247.6 92.0,246.9 93.2,246.3 94.3,245.6 95.5,245.0 96.7,244.3 97.9,243.6 99.1,243.0 100.3,242.3 101.5,241.6 102.7,240.9 103.8,240.2 105.0,239.6 106.2,238.9 107.4,238.2 108.6,237.5 109.8,236.8 111.0,236.1 112.1,235.4 113.3,234.6 114.5,233.9 115.7,233.2 116.9,232.5 118.1,231.8 119.3,231.0 120.5,230.3 121.6,229.6 122.8,228.8 124.0,228.1 125.2,227.4 126.4,226.6 127.6,225.9 128.8,225.1 129.9,224.4 131.1,223.6 132.3,222.9 133.5,222.1 134.7,221.3 135.9,220.6 137.1,219.8 138.3,219.0 139.4,218.3 140.6,217.5 141.8,216.7 143.0,216.0 144.2,215.2 145.4,214.4 146.6,213.6 147.7,212.8 148.9,212.0 150.1,211.2 151.3,210.4 152.5,209.7 153.7,208.9 154.9,208.1 156.1,207.3 157.2,206.5 158.4,205.7 159.6,204.9 160.8,204.1 162.0,203.2 163.2,202.4 164.4,201.6 165.5,200.8 166.7,200.0 167.9,199.2 169.1,198.4 170.3,197.6 171.5,196.8 172.7,195.9 173.9,195.1 175.0,194.3 176.2,193.5 177.4,192.7 178.6,191.8 179.8,191.0 181.0,190.2 182.2,189.4 183.3,188.6 184.5,187.7 185.7,186.9 186.9,186.1 188.1,185.3 189.3,184.4 190.5,183.6 191.7,182.8 192.8,182.0 194.0,181.1 195.2,180.3 196.4,179.5 197.6,178.7 198.8,177.8 200.0,177.0 201.1,176.2 202.3,175.4 203.5,174.5 204.7,173.7 205.9,172.9 207.1,172.1 208.3,171.2 209.5,170.4 210.6,169.6 211.8,168.8 213.0,168.0 214.2,167.1 215.4,166.3 216.6,165.5 217.8,164.7 218.9,163.9 220.1,163.1 221.3,162.2 222.5,161.4 223.7,160.6 224.9,159.8 226.1,159.0 227.3,158.2 228.4,157.4 229.6,156.6 230.8,155.8 232.0,155.0 233.2,154.2 234.4,153.4 235.6,152.6 236.7,151.8 237.9,151.0 239.1,150.3 240.3,149.5 241.5,148.7 242.7,147.9 243.9,147.1 245.1,146.4 246.2,145.6 247.4,144.8 248.6,144.0 249.8,143.3 251.0,142.5 252.2,141.8 253.4,141.0 254.5,140.2 255.7,139.5 256.9,138.8 258.1,138.0 259.3,137.3 260.5,136.5 261.7,135.8 262.9,135.1 264.0,134.4 265.2,133.7 266.4,132.9 267.6,132.2 268.8,131.5 270.0,130.8 271.2,130.1 272.3,129.5 273.5,128.8 274.7,128.1 275.9,127.4 277.1,126.8 278.3,126.1 279.5,125.4 280.7,124.8 281.8,124.1 283.0,123.5 284.2,122.8 285.4,122.2 286.6,121.6 287.8,120.9 289.0,120.3 290.1,119.7 291.3,119.1 292.5,118.5 293.7,117.9 294.9,117.3 296.1,116.7 297.3,116.1 298.5,115.5 299.6,114.9 300.8,114.4 302.0,113.8 303.2,113.2 304.4,112.7 305.6,112.1 306.8,111.5 307.9,111.0 309.1,110.5 310.3,109.9 311.5,109.4 312.7,108.9 313.9,108.3 315.1,107.8 316.3,107.3 317.4,106.8 318.6,106.3 319.8,105.8 321.0,105.3 322.2,104.8 323.4,104.4 324.6,103.9 325.7,103.4 326.9,103.0 328.1,102.5 329.3,102.1 330.5,101.6 331.7,101.2 332.9,100.7 334.1,100.3 335.2,99.9 336.4,99.5 337.6,99.1 338.8,98.7 340.0,98.3 341.2,97.9 342.4,97.5 343.5,97.1 344.7,96.8 345.9,96.4 347.1,96.1 348.3,95.7 349.5,95.4 350.7,95.0 351.9,94.7 353.0,94.4 354.2,94.1 355.4,93.7 356.6,93.4 357.8,93.1 359.0,92.8 360.2,92.5 361.3,92.3 362.5,92.0 363.7,91.7 364.9,91.4 366.1,91.2 367.3,90.9 368.5,90.7 369.7,90.4 370.8,90.2 372.0,89.9 373.2,89.7 374.4,89.5 375.6,89.3 376.8,89.0 378.0,88.8 379.1,88.6 380.3,88.4 381.5,88.2 382.7,88.0 383.9,87.8 385.1,87.6 386.3,87.4 387.5,87.2 388.6,87.1 389.8,86.9 391.0,86.7 392.2,86.6 393.4,86.4 394.6,86.2 395.8,86.1 396.9,85.9 398.1,85.8 399.3,85.6 400.5,85.5 401.7,85.4 402.9,85.2 404.1,85.1 405.3,85.0 406.4,84.9 407.6,84.7 408.8,84.6 410.0,84.5 411.2,84.4 412.4,84.3 413.6,84.2 414.7,84.1 415.9,84.0 417.1,83.9 418.3,83.8 419.5,83.8 420.7,83.7 421.9,83.6 423.1,83.5 424.2,83.4 425.4,83.4 426.6,83.3 427.8,83.2 429.0,83.1 430.2,83.1 431.4,83.0 432.5,82.9 433.7,82.8 434.9,82.8 436.1,82.7 437.3,82.6 438.5,82.5 439.7,82.5 440.9,82.4 442.0,82.3 443.2,82.2 444.4,82.1 445.6,82.0 446.8,81.9 448.0,81.8 449.2,81.7 450.3,81.6 451.5,81.5 452.7,81.4 453.9,81.3 455.1,81.2 456.3,81.1 457.5,81.0 458.7,81.0 459.8,80.9 461.0,80.8 462.2,80.7 463.4,80.6 464.6,80.5 465.8,80.4 467.0,80.4 468.1,80.3 469.3,80.2 470.5,80.1 471.7,80.0 472.9,79.8 474.1,79.7 475.3,79.6 476.5,79.5 477.6,79.4 478.8,79.3 480.0,79.1 481.2,79.0 482.4,78.9 483.6,78.7 484.8,78.6 485.9,78.5 487.1,78.3 488.3,78.2 489.5,78.0 490.7,77.9 491.9,77.7 493.1,77.6 494.3,77.4 495.4,77.2 496.6,77.1 497.8,76.9 499.0,76.7 500.2,76.5 501.4,76.3 502.6,76.1 503.7,76.0 504.9,75.8 506.1,75.6 507.3,75.4 508.5,75.2 509.7,75.0 510.9,74.8 512.1,74.6 513.2,74.3 514.4,74.1 515.6,73.9 516.8,73.7 518.0,73.5 519.2,73.3 520.4,73.1 521.5,72.9 522.7,72.7 523.9,72.5 525.1,72.3 526.3,72.1 527.5,71.8 528.7,71.6 529.9,71.4 531.0,71.2 532.2,71.0 533.4,70.8 534.6,70.6 535.8,70.4 537.0,70.2 538.2,70.1 539.3,69.9 540.5,69.7 541.7,69.5 542.9,69.3 544.1,69.2 545.3,69.0 546.5,68.8 547.7,68.7 548.8,68.5 550.0,68.4 551.2,68.2 552.4,68.1 553.6,67.9 554.8,67.8 556.0,67.7 557.1,67.6 558.3,67.5 559.5,67.4 560.7,67.2 561.9,67.1 563.1,67.1 564.3,67.0 565.5,66.9 566.6,66.8 567.8,66.7 569.0,66.6 570.2,66.6 571.4,66.5 572.6,66.4 573.8,66.3 574.9,66.3 576.1,66.2 577.3,66.1 578.5,66.0 579.7,66.0 580.9,65.9 582.1,65.8 583.3,65.8 584.4,65.7 585.6,65.6 586.8,65.5 588.0,65.5 589.2,65.4 590.4,65.3 591.6,65.3 592.7,65.2 593.9,65.1 595.1,65.1 596.3,65.0 597.5,64.9 598.7,64.9 599.9,64.8 601.1,64.7 602.2,64.7 603.4,64.6 604.6,64.5 605.8,64.5 607.0,64.4 608.2,64.4 609.4,64.3 610.5,64.2 611.7,64.2 612.9,64.1 614.1,64.0 615.3,64.0 616.5,63.9 617.7,63.8 618.9,63.8 620.0,63.7 621.2,63.6 622.4,63.6 623.6,63.5 624.8,63.5 626.0,63.4 627.2,63.3 628.3,63.3 629.5,63.2 630.7,63.1 631.9,63.1 633.1,63.0 634.3,62.9 635.5,62.9 636.7,62.8 637.8,62.7 639.0,62.7 640.2,62.6 641.4,62.5 642.6,62.4 643.8,62.4 645.0,62.3 646.1,62.2 647.3,62.2 648.5,62.1 649.7,62.0 650.9,62.0 652.1,61.9 653.3,61.9 654.5,61.8 655.6,61.7 656.8,61.6 658.0,61.6 659.2,61.5 660.4,61.4 661.6,61.4 662.8,61.3 663.9,61.2 665.1,61.1 666.3,61.0 667.5,61.0 668.7,60.9 669.9,60.8 671.1,60.7 672.3,60.6 673.4,60.5 674.6,60.5 675.8,60.4 677.0,60.3 678.2,60.2 679.4,60.1 680.6,60.0 681.7,60.0 682.9,59.9 684.1,59.8 685.3,59.7 686.5,59.6 687.7,59.5 688.9,59.5 690.1,59.4 691.2,59.3 692.4,59.2 693.6,59.1 694.8,59.0 696.0,58.9 697.2,58.9 698.4,58.8 699.5,58.7 700.7,58.6 701.9,58.5 703.1,58.4 704.3,58.3 705.5,58.3 706.7,58.2 707.9,58.1 709.0,58.0 710.2,57.9 711.4,57.8 712.6,57.7 713.8,57.7 715.0,57.6 716.2,57.5 717.3,57.4 718.5,57.3 719.7,57.2 720.9,57.2 722.1,57.1 723.3,57.0 724.5,56.9 725.7,56.8 726.8,56.7 728.0,56.7 729.2,56.6 730.4,56.5 731.6,56.4 732.8,56.3 734.0,56.2 735.1,56.1 736.3,56.1 737.5,56.0 738.7,55.9 739.9,55.8 741.1,55.7 742.3,55.6 743.5,55.6 744.6,55.5 745.8,55.4 747.0,55.3 748.2,55.2 749.4,55.1 750.6,55.1 751.8,55.0 752.9,54.9 754.1,54.8 755.3,54.7 756.5,54.6 757.7,54.6 758.9,54.5 760.1,54.4 761.3,54.3 762.4,54.2 763.6,54.2 764.8,54.1 766.0,54.0"/>
<line x1="606" y1="42" x2="628" y2="42" stroke="#0f62fe" stroke-width="2.2"/>
<text x="634" y="46" font-family="Arial" font-size="12">x_m</text>
</svg>