<svg xmlns="http://www.w3.org/2000/svg" width="820" height="320" viewBox="0 0 820 320">
<rect width="100%" height="100%" fill="#ffffff"/>
<text x="54" y="28" font-family="Arial" font-size="18" font-weight="700">Speed</text>
<line x1="54" y1="266" x2="766" y2="266" stroke="#1f2933"/>
<line x1="54" y1="54" x2="54" y2="266" stroke="#1f2933"/>
<text x="54" y="306" font-family="Arial" font-size="12">time (s)</text>
<text x="596" y="306" font-family="Arial" font-size="12">speed (m/s)</text>
<text x="58" y="68" font-family="Arial" font-size="11">146</text>
<text x="58" y="260" font-family="Arial" font-size="11">69.2</text>
<polyline fill="none" stroke="#0f62fe" stroke-width="2.2" points="54.0,224.8 55.2,223.5 56.4,222.2 57.6,220.9 58.7,219.6 59.9,218.2 61.1,216.9 62.3,215.5 63.5,214.0 64.7,212.6 65.9,211.1 67.1,209.7 68.2,208.2 69.4,206.6 70.6,205.1 71.8,203.5 73.0,202.0 74.2,200.5 75.4,198.9 76.5,197.4 77.7,195.9 78.9,194.4 80.1,192.9 81.3,191.4 82.5,189.8 83.7,188.4 84.9,186.9 86.0,185.4 87.2,183.9 88.4,182.4 89.6,180.9 90.8,179.5 92.0,178.0 93.2,176.5 94.3,175.1 95.5,173.6 96.7,172.2 97.9,170.7 99.1,169.3 100.3,167.9 101.5,166.5 102.7,165.0 103.8,163.6 105.0,162.2 106.2,160.8 107.4,159.5 108.6,158.1 109.8,156.7 111.0,155.4 112.1,154.0 113.3,152.7 114.5,151.3 115.7,150.0 116.9,148.7 118.1,147.4 119.3,146.1 120.5,144.8 121.6,143.5 122.8,142.3 124.0,141.0 125.2,139.7 126.4,138.5 127.6,137.3 128.8,136.1 129.9,134.9 131.1,133.7 132.3,132.5 133.5,131.3 134.7,130.2 135.9,129.1 137.1,127.9 138.3,126.8 139.4,125.7 140.6,124.6 141.8,123.5 143.0,122.4 144.2,121.4 145.4,120.3 146.6,119.3 147.7,118.3 148.9,117.3 150.1,116.3 151.3,115.3 152.5,114.4 153.7,113.4 154.9,112.5 156.1,111.6 157.2,110.6 158.4,109.8 159.6,108.9 160.8,108.0 162.0,107.2 163.2,106.3 164.4,105.5 165.5,104.7 166.7,103.9 167.9,103.1 169.1,102.3 170.3,101.5 171.5,100.7 172.7,100.0 173.9,99.2 175.0,98.4 176.2,97.7 177.4,97.0 178.6,96.2 179.8,95.5 181.0,94.8 182.2,94.1 183.3,93.4 184.5,92.7 185.7,92.0 186.9,91.3 188.1,90.7 189.3,90.0 190.5,89.3 191.7,88.7 192.8,88.1 194.0,87.5 195.2,87.0 196.4,86.4 197.6,85.9 198.8,85.4 200.0,84.9 201.1,84.4 202.3,83.8 203.5,83.3 204.7,82.8 205.9,82.3 207.1,81.8 208.3,81.4 209.5,80.9 210.6,80.4 211.8,79.9 213.0,79.5 214.2,79.0 215.4,78.6 216.6,78.1 217.8,77.7 218.9,77.2 220.1,76.8 221.3,76.5 222.5,76.1 223.7,75.8 224.9,75.5 226.1,75.2 227.3,75.0 228.4,74.7 229.6,74.5 230.8,74.2 232.0,74.0 233.2,73.8 234.4,73.6 235.6,73.3 236.7,73.1 237.9,72.9 239.1,72.6 240.3,72.3 241.5,72.0 242.7,71.7 243.9,71.5 245.1,71.3 246.2,71.1 247.4,70.9 248.6,70.8 249.8,70.8 251.0,70.8 252.2,70.8 253.4,70.8 254.5,70.8 255.7,70.9 256.9,71.1 258.1,71.3 259.3,71.6 260.5,71.9 261.7,72.2 262.9,72.6 264.0,73.0 265.2,73.4 266.4,73.8 267.6,74.3 268.8,74.7 270.0,75.2 271.2,75.6 272.3,76.0 273.5,76.4 274.7,76.8 275.9,77.2 277.1,77.6 278.3,78.0 279.5,78.4 280.7,78.8 281.8,79.2 283.0,79.6 284.2,80.0 285.4,80.4 286.6,80.8 287.8,81.2 289.0,81.6 290.1,82.0 291.3,82.5 292.5,83.0 293.7,83.5 294.9,84.0 296.1,84.5 297.3,85.0 298.5,85.5 299.6,86.1 300.8,86.6 302.0,87.1 303.2,87.7 304.4,88.3 305.6,88.9 306.8,89.5 307.9,90.1 309.1,90.8 310.3,91.5 311.5,92.2 312.7,92.9 313.9,93.7 315.1,94.4 316.3,95.3 317.4,96.1 318.6,97.0 319.8,97.9 321.0,98.9 322.2,99.9 323.4,101.0 324.6,102.1 325.7,103.2 326.9,104.3 328.1,105.5 329.3,106.7 330.5,108.0 331.7,109.2 332.9,110.6 334.1,111.9 335.2,113.3 336.4,114.7 337.6,116.2 338.8,117.7 340.0,119.2 341.2,120.7 342.4,122.3 343.5,124.0 344.7,125.6 345.9,127.3 347.1,129.1 348.3,130.8 349.5,132.6 350.7,134.4 351.9,136.2 353.0,138.0 354.2,139.9 355.4,141.8 356.6,143.7 357.8,145.6 359.0,147.6 360.2,149.6 361.3,151.6 362.5,153.6 363.7,155.6 364.9,157.7 366.1,159.8 367.3,161.9 368.5,164.1 369.7,166.2 370.8,168.4 372.0,170.6 373.2,172.8 374.4,175.0 375.6,177.3 376.8,179.6 378.0,181.8 379.1,184.1 380.3,186.4 381.5,188.7 382.7,191.0 383.9,193.3 385.1,195.6 386.3,197.8 387.5,200.1 388.6,202.3 389.8,204.5 391.0,206.8 392.2,209.0 393.4,211.2 394.6,213.3 395.8,215.5 396.9,217.6 398.1,219.8 399.3,221.9 400.5,224.0 401.7,226.1 402.9,228.1 404.1,230.2 405.3,232.2 406.4,234.2 407.6,236.2 408.8,238.1 410.0,240.1 411.2,242.0 412.4,243.9 413.6,245.9 414.7,247.8 415.9,249.7 417.1,251.6 418.3,253.4 419.5,255.1 420.7,256.8 421.9,258.3 423.1,259.8 424.2,261.1 425.4,262.3 426.6,263.4 427.8,264.3 429.0,265.0 430.2,265.6 431.4,265.9 432.5,266.0 433.7,265.9 434.9,265.4 436.1,264.6 437.3,263.6 438.5,262.4 439.7,261.0 440.9,259.4 442.0,257.8 443.2,256.0 444.4,254.1 445.6,252.1 446.8,249.9 448.0,247.8 449.2,245.6 450.3,243.4 451.5,241.3 452.7,239.5 453.9,237.8 455.1,236.4 456.3,235.0 457.5,233.7 458.7,232.3 459.8,231.0 461.0,229.5 462.2,227.9 463.4,226.0 464.6,224.0 465.8,222.0 467.0,220.0 468.1,218.1 469.3,216.3 470.5,214.6 471.7,212.9 472.9,211.4 474.1,210.0 475.3,208.6 476.5,207.2 477.6,205.8 478.8,204.5 480.0,203.3 481.2,202.1 482.4,200.9 483.6,199.8 484.8,198.7 485.9,197.7 487.1,196.8 488.3,196.0 489.5,195.2 490.7,194.5 491.9,193.8 493.1,193.2 494.3,192.7 495.4,192.2 496.6,191.7 497.8,191.3 499.0,190.9 500.2,190.6 501.4,190.3 502.6,190.0 503.7,189.8 504.9,189.6 506.1,189.4 507.3,189.2 508.5,189.1 509.7,189.0 510.9,189.0 512.1,189.0 513.2,189.0 514.4,189.1 515.6,189.2 516.8,189.3 518.0,189.4 519.2,189.6 520.4,189.8 521.5,190.0 522.7,190.3 523.9,190.6 525.1,190.9 526.3,191.2 527.5,191.6 528.7,192.0 529.9,192.4 531.0,192.8 532.2,193.2 533.4,193.6 534.6,194.0 535.8,194.4 537.0,194.9 538.2,195.3 539.3,195.7 540.5,196.1 541.7,196.5 542.9,196.9 544.1,197.3 545.3,197.6 546.5,198.0 547.7,198.3 548.8,198.6 550.0,198.9 551.2,199.1 552.4,199.3 553.6,199.5 554.8,199.6 556.0,199.7 557.1,199.7 558.3,199.7 559.5,199.7 560.7,199.7 561.9,199.6 563.1,199.6 564.3,199.5 565.5,199.5 566.6,199.4 567.8,199.3 569.0,199.3 570.2,199.8 571.4,200.3 572.6,200.8 573.8,201.3 574.9,201.9 576.1,202.4 577.3,202.9 578.5,203.4 579.7,203.9 580.9,204.3 582.1,204.8 583.3,205.3 584.4,205.8 585.6,206.3 586.8,206.7 588.0,207.2 589.2,207.7 590.4,208.1 591.6,208.6 592.7,209.1 593.9,209.5 595.1,210.0 596.3,210.4 597.5,210.9 598.7,211.4 599.9,211.9 601.1,212.3 602.2,212.8 603.4,213.3 604.6,213.8 605.8,214.3 607.0,214.9 608.2,215.4 609.4,215.9 610.5,216.5 611.7,217.0 612.9,217.6 614.1,218.1 615.3,218.7 616.5,219.2 617.7,219.7 618.9,220.3 620.0,220.8 621.2,221.3 622.4,221.8 623.6,222.3 624.8,222.8 626.0,223.2 627.2,223.7 628.3,224.1 629.5,224.5 630.7,224.9 631.9,225.3 633.1,225.6 634.3,225.9 635.5,226.2 636.7,226.5 637.8,226.8 639.0,227.1 640.2,227.4 641.4,227.8 642.6,228.3 643.8,228.8 645.0,229.4 646.1,229.9 647.3,230.5 648.5,231.0 649.7,231.4 650.9,231.9 652.1,232.3 653.3,232.7 654.5,233.0 655.6,233.3 656.8,233.6 658.0,233.8 659.2,234.0 660.4,234.2 661.6,234.3 662.8,234.4 663.9,234.4 665.1,234.4 666.3,234.3 667.5,234.3 668.7,234.3 669.9,234.2 671.1,234.2 672.3,234.3 673.4,234.3 674.6,234.5 675.8,234.6 677.0,234.8 678.2,234.9 679.4,235.1 680.6,235.3 681.7,235.5 682.9,235.8 684.1,236.0 685.3,236.1 686.5,236.3 687.7,236.5 688.9,236.7 690.1,236.8 691.2,236.9 692.4,237.0 693.6,237.1 694.8,237.2 696.0,237.3 697.2,237.4 698.4,237.5 699.5,237.6 700.7,237.7 701.9,237.8 703.1,237.9 704.3,238.0 705.5,238.2 706.7,238.3 707.9,238.5 709.0,238.7 710.2,238.9 711.4,239.1 712.6,239.2 713.8,239.4 715.0,239.6 716.2,239.8 717.3,240.0 718.5,240.1 719.7,240.3 720.9,240.5 722.1,240.7 723.3,240.8 724.5,241.0 725.7,241.2 726.8,241.3 728.0,241.5 729.2,241.7 730.4,241.8 731.6,242.0 732.8,242.2 734.0,242.4 735.1,242.5 736.3,242.7 737.5,242.9 738.7,243.0 739.9,243.2 741.1,243.4 742.3,243.6 743.5,243.7 744.6,243.9 745.8,244.1 747.0,244.3 748.2,244.5 749.4,244.7 750.6,244.9 751.8,245.1 752.9,245.3 754.1,245.4 755.3,245.6 756.5,245.8 757.7,246.0 758.9,246.2 760.1,246.4 761.3,246.6 762.4,246.8 763.6,247.0 764.8,247.2 766.0,247.5"/>
<line x1="606" y1="42" x2="628" y2="42" stroke="#0f62fe" stroke-width="2.2"/>
<text x="634" y="46" font-family="Arial" font-size="12">speed_mps</text>
<polyline fill="none" stroke="#24a148" stroke-width="2.2" points="54.0,219.7 55.2,218.0 56.4,217.9 57.6,216.7 58.7,216.1 59.9,214.5 61.1,214.4 62.3,210.4 63.5,209.2 64.7,207.0 65.9,206.1 67.1,204.5 68.2,203.6 69.4,201.6 70.6,200.1 71.8,199.2 73.0,196.3 74.2,194.4 75.4,192.9 76.5,191.2 77.7,188.8 78.9,187.2 80.1,186.0 81.3,184.7 82.5,184.5 83.7,183.5 84.9,182.1 86.0,180.0 87.2,179.0 88.4,176.8 89.6,175.2 90.8,174.2 92.0,172.0 93.2,171.8 94.3,171.5 95.5,169.5 96.7,169.4 97.9,168.4 99.1,166.9 100.3,165.1 101.5,163.6 102.7,161.3 103.8,159.7 105.0,157.8 106.2,156.2 107.4,152.9 108.6,153.0 109.8,151.1 111.0,148.9 112.1,146.7 113.3,145.2 114.5,144.9 115.7,144.8 116.9,143.5 118.1,141.8 119.3,139.7 120.5,138.9 121.6,135.9 122.8,135.5 124.0,131.7 125.2,129.8 126.4,129.3 127.6,125.9 128.8,125.2 129.9,123.6 131.1,121.3 132.3,119.5 133.5,118.3 134.7,117.5 135.9,116.0 137.1,116.1 138.3,116.2 139.4,114.1 140.6,113.1 141.8,112.1 143.0,110.9 144.2,110.2 145.4,107.8 146.6,107.0 147.7,105.6 148.9,104.9 150.1,102.8 151.3,102.9 152.5,101.2 153.7,100.6 154.9,100.7 156.1,100.1 157.2,98.7 158.4,97.6 159.6,96.0 160.8,94.9 162.0,93.3 163.2,94.1 164.4,95.2 165.5,92.6 166.7,90.7 167.9,89.4 169.1,87.7 170.3,88.2 171.5,88.1 172.7,88.1 173.9,86.6 175.0,85.1 176.2,84.6 177.4,83.6 178.6,81.3 179.8,79.2 181.0,79.8 182.2,78.8 183.3,78.0 184.5,77.6 185.7,77.1 186.9,77.0 188.1,77.5 189.3,77.4 190.5,76.1 191.7,76.1 192.8,77.4 194.0,77.6 195.2,76.7 196.4,75.7 197.6,74.7 198.8,74.7 200.0,73.5 201.1,72.4 202.3,71.0 203.5,70.9 204.7,70.7 205.9,68.3 207.1,68.4 208.3,67.8 209.5,67.6 210.6,67.4 211.8,68.4 213.0,67.5 214.2,67.6 215.4,67.9 216.6,67.2 217.8,66.9 218.9,65.9 220.1,66.8 221.3,65.3 222.5,64.9 223.7,65.2 224.9,64.0 226.1,64.4 227.3,64.0 228.4,65.1 229.6,64.7 230.8,65.2 232.0,63.9 233.2,62.7 234.4,63.3 235.6,64.1 236.7,64.1 237.9,63.8 239.1,63.0 240.3,61.7 241.5,62.4 242.7,60.8 243.9,60.8 245.1,60.9 246.2,59.6 247.4,57.8 248.6,55.6 249.8,55.0 251.0,55.5 252.2,55.7 253.4,56.0 254.5,55.9 255.7,56.2 256.9,54.6 258.1,54.2 259.3,54.3 260.5,54.0 261.7,55.0 262.9,56.4 264.0,57.0 265.2,57.8 266.4,56.9 267.6,57.8 268.8,59.7 270.0,61.5 271.2,63.3 272.3,63.3 273.5,64.3 274.7,64.0 275.9,65.4 277.1,65.4 278.3,67.6 279.5,67.2 280.7,67.9 281.8,68.5 283.0,70.2 284.2,72.1 285.4,71.9 286.6,72.1 287.8,72.5 289.0,72.3 290.1,72.8 291.3,71.8 292.5,71.4 293.7,73.6 294.9,74.5 296.1,74.4 297.3,73.7 298.5,73.9 299.6,74.6 300.8,74.1 302.0,74.1 303.2,73.0 304.4,73.5 305.6,72.8 306.8,73.8 307.9,73.7 309.1,74.7 310.3,75.5 311.5,77.3 312.7,79.0 313.9,79.3 315.1,78.3 316.3,78.6 317.4,79.9 318.6,80.3 319.8,79.9 321.0,82.0 322.2,81.4 323.4,82.6 324.6,84.1 325.7,84.7 326.9,86.9 328.1,88.1 329.3,89.3 330.5,90.6 331.7,91.9 332.9,92.6 334.1,96.6 335.2,97.3 336.4,98.6 337.6,101.4 338.8,103.5 340.0,103.6 341.2,105.4 342.4,107.0 343.5,108.6 344.7,111.8 345.9,112.5 347.1,116.0 348.3,119.2 349.5,120.5 350.7,122.9 351.9,125.3 353.0,126.8 354.2,129.9 355.4,132.3 356.6,134.2 357.8,136.8 359.0,139.3 360.2,140.5 361.3,141.2 362.5,144.5 363.7,146.7 364.9,149.2 366.1,149.5 367.3,150.0 368.5,150.7 369.7,152.6 370.8,154.7 372.0,157.9 373.2,158.0 374.4,160.0 375.6,161.8 376.8,162.0 378.0,163.7 379.1,166.2 380.3,167.4 381.5,168.2 382.7,168.7 383.9,171.1 385.1,172.2 386.3,173.2 387.5,174.0 388.6,174.5 389.8,175.9 391.0,178.0 392.2,180.9 393.4,182.1 394.6,182.9 395.8,183.9 396.9,185.2 398.1,185.6 399.3,187.3 400.5,189.0 401.7,190.5 402.9,194.2 404.1,195.4 405.3,198.1 406.4,201.0 407.6,203.6 408.8,205.3 410.0,207.4 411.2,210.3 412.4,212.3 413.6,213.9 414.7,214.9 415.9,217.3 417.1,217.8 418.3,220.9 419.5,222.6 420.7,224.4 421.9,226.3 423.1,228.4 424.2,229.7 425.4,231.6 426.6,233.8 427.8,235.4 429.0,236.7 430.2,237.6 431.4,239.0 432.5,240.3 433.7,241.7 434.9,242.8 436.1,242.1 437.3,243.1 438.5,242.7 439.7,242.9 440.9,242.2 442.0,241.9 443.2,240.6 444.4,239.7 445.6,238.4 446.8,238.6 448.0,237.0 449.2,233.9 450.3,233.1 451.5,230.6 452.7,228.1 453.9,227.6 455.1,226.1 456.3,224.6 457.5,223.0 458.7,221.2 459.8,220.9 461.0,219.2 462.2,217.9 463.4,215.6 464.6,213.9 465.8,212.5 467.0,210.6 468.1,209.1 469.3,207.1 470.5,204.7 471.7,203.0 472.9,201.7 474.1,199.5 475.3,197.2 476.5,195.5 477.6,194.3 478.8,192.7 480.0,191.7 481.2,189.0 482.4,186.9 483.6,185.6 484.8,183.6 485.9,181.0 487.1,179.2 488.3,178.3 489.5,177.3 490.7,176.5 491.9,174.1 493.1,173.8 494.3,172.3 495.4,173.1 496.6,172.8 497.8,173.2 499.0,172.5 500.2,171.5 501.4,170.7 502.6,169.2 503.7,169.1 504.9,169.0 506.1,169.1 507.3,167.7 508.5,167.9 509.7,168.2 510.9,167.6 512.1,167.1 513.2,166.8 514.4,167.5 515.6,167.0 516.8,168.7 518.0,168.4 519.2,168.1 520.4,169.1 521.5,169.4 522.7,169.6 523.9,170.3 525.1,170.9 526.3,172.1 527.5,171.9 528.7,172.9 529.9,174.5 531.0,176.3 532.2,177.5 533.4,179.2 534.6,180.0 535.8,180.9 537.0,183.0 538.2,183.1 539.3,184.2 540.5,185.6 541.7,186.7 542.9,187.5 544.1,188.0 545.3,190.0 546.5,189.7 547.7,190.3 548.8,191.1 550.0,192.5 551.2,192.4 552.4,193.3 553.6,193.8 554.8,194.2 556.0,194.7 557.1,195.6 558.3,195.7 559.5,196.0 560.7,196.3 561.9,196.4 563.1,195.8 564.3,196.0 565.5,195.7 566.6,195.4 567.8,195.1 569.0,196.3 570.2,197.9 571.4,198.1 572.6,198.1 573.8,199.0 574.9,199.8 576.1,199.8 577.3,200.0 578.5,199.9 579.7,200.9 580.9,201.4 582.1,201.5 583.3,202.0 584.4,202.1 585.6,201.9 586.8,202.4 588.0,202.7 589.2,203.1 590.4,204.0 591.6,204.0 592.7,203.5 593.9,204.0 595.1,203.8 596.3,202.9 597.5,202.9 598.7,202.6 599.9,203.2 601.1,203.2 602.2,202.8 603.4,203.2 604.6,203.0 605.8,203.0 607.0,203.1 608.2,204.2 609.4,204.6 610.5,205.1 611.7,205.5 612.9,204.7 614.1,204.9 615.3,205.9 616.5,207.0 617.7,207.6 618.9,207.5 620.0,207.5 621.2,207.9 622.4,208.6 623.6,209.3 624.8,210.2 626.0,209.7 627.2,209.5 628.3,210.1 629.5,210.4 630.7,210.4 631.9,210.8 633.1,211.1 634.3,211.5 635.5,212.9 636.7,212.7 637.8,213.6 639.0,213.7 640.2,213.7 641.4,214.3 642.6,215.2 643.8,216.2 645.0,216.6 646.1,218.2 647.3,219.2 648.5,219.9 649.7,221.6 650.9,221.7 652.1,222.4 653.3,223.1 654.5,224.0 655.6,224.4 656.8,224.2 658.0,224.6 659.2,224.6 660.4,225.2 661.6,225.8 662.8,226.0 663.9,227.3 665.1,227.2 666.3,228.1 667.5,228.9 668.7,229.2 669.9,229.4 671.1,230.0 672.3,230.0 673.4,230.3 674.6,231.6 675.8,231.6 677.0,232.6 678.2,232.9 679.4,233.7 680.6,234.0 681.7,234.3 682.9,235.0 684.1,235.2 685.3,235.2 686.5,234.7 687.7,234.3 688.9,233.9 690.1,233.7 691.2,233.8 692.4,234.0 693.6,234.2 694.8,234.5 696.0,233.9 697.2,233.7 698.4,233.8 699.5,233.8 700.7,233.2 701.9,232.7 703.1,232.7 704.3,232.1 705.5,232.0 706.7,231.7 707.9,231.5 709.0,231.6 710.2,232.0 711.4,231.9 712.6,232.5 713.8,232.4 715.0,232.6 716.2,231.6 717.3,231.4 718.5,230.9 719.7,230.8 720.9,230.8 722.1,230.7 723.3,231.0 724.5,230.5 725.7,230.2 726.8,230.1 728.0,229.9 729.2,229.9 730.4,229.7 731.6,229.8 732.8,229.9 734.0,230.5 735.1,230.6 736.3,231.2 737.5,231.4 738.7,231.7 739.9,232.0 741.1,231.5 742.3,231.5 743.5,231.8 744.6,232.0 745.8,232.3 747.0,233.0 748.2,233.0 749.4,232.6 750.6,233.8 751.8,233.7 752.9,234.6 754.1,234.3 755.3,235.2 756.5,236.0 757.7,235.7 758.9,236.3 760.1,236.1 761.3,236.7 762.4,237.4 763.6,237.9 764.8,237.7 766.0,237.8"/>
<line x1="606" y1="60" x2="628" y2="60" stroke="#24a148" stroke-width="2.2"/>
<text x="634" y="64" font-family="Arial" font-size="12">airspeed_mps</text>
</svg>