<svg xmlns="http://www.w3.org/2000/svg" width="820" height="320" viewBox="0 0 820 320">
<rect width="100%" height="100%" fill="#ffffff"/>
<text x="54" y="28" font-family="Arial" font-size="18" font-weight="700">Body Rates</text>
<line x1="54" y1="266" x2="766" y2="266" stroke="#1f2933"/>
<line x1="54" y1="54" x2="54" y2="266" stroke="#1f2933"/>
<text x="54" y="306" font-family="Arial" font-size="12">time (s)</text>
<text x="596" y="306" font-family="Arial" font-size="12">rate (deg/s)</text>
<text x="58" y="68" font-family="Arial" font-size="11">208</text>
<text x="58" y="260" font-family="Arial" font-size="11">-303</text>
<polyline fill="none" stroke="#0f62fe" stroke-width="2.2" points="54.0,140.3 55.2,139.1 56.4,138.4 57.6,138.1 58.7,138.0 59.9,138.0 61.1,138.1 62.3,138.1 63.5,138.1 64.7,138.1 65.9,138.1 67.1,138.1 68.2,138.0 69.4,137.9 70.6,137.9 71.8,137.8 73.0,137.7 74.2,137.7 75.4,137.6 76.5,137.5 77.7,137.4 78.9,137.4 80.1,137.3 81.3,137.3 82.5,137.2 83.7,137.1 84.9,137.0 86.0,137.0 87.2,136.9 88.4,136.8 89.6,136.7 90.8,136.6 92.0,136.5 93.2,136.5 94.3,136.4 95.5,136.3 96.7,136.2 97.9,136.1 99.1,136.0 100.3,135.9 101.5,135.8 102.7,135.8 103.8,135.7 105.0,135.6 106.2,135.5 107.4,135.3 108.6,135.2 109.8,135.0 111.0,134.8 112.1,134.7 113.3,134.5 114.5,134.5 115.7,134.5 116.9,134.5 118.1,134.6 119.3,134.7 120.5,134.8 121.6,134.8 122.8,134.8 124.0,134.8 125.2,134.9 126.4,134.9 127.6,134.9 128.8,134.9 129.9,134.9 131.1,135.0 132.3,135.0 133.5,135.0 134.7,135.1 135.9,135.1 137.1,135.1 138.3,135.1 139.4,135.2 140.6,135.3 141.8,135.4 143.0,135.4 144.2,135.4 145.4,135.4 146.6,135.4 147.7,135.4 148.9,135.4 150.1,135.5 151.3,135.5 152.5,135.5 153.7,135.4 154.9,135.4 156.1,135.5 157.2,135.6 158.4,135.5 159.6,135.6 160.8,135.6 162.0,135.6 163.2,135.5 164.4,135.5 165.5,135.5 166.7,135.5 167.9,135.5 169.1,135.5 170.3,135.5 171.5,135.5 172.7,135.4 173.9,135.4 175.0,135.4 176.2,135.4 177.4,135.5 178.6,135.5 179.8,135.5 181.0,135.4 182.2,135.4 183.3,135.4 184.5,135.4 185.7,135.4 186.9,135.4 188.1,135.4 189.3,135.4 190.5,135.5 191.7,135.5 192.8,135.5 194.0,135.5 195.2,135.6 196.4,135.6 197.6,135.5 198.8,135.5 200.0,135.5 201.1,135.5 202.3,135.5 203.5,135.4 204.7,135.4 205.9,135.5 207.1,135.5 208.3,135.5 209.5,135.4 210.6,135.4 211.8,135.4 213.0,135.4 214.2,135.4 215.4,135.4 216.6,135.4 217.8,135.4 218.9,135.4 220.1,135.4 221.3,135.4 222.5,135.5 223.7,135.5 224.9,135.5 226.1,135.6 227.3,135.5 228.4,135.5 229.6,135.5 230.8,135.5 232.0,135.5 233.2,135.5 234.4,135.4 235.6,135.4 236.7,135.4 237.9,135.4 239.1,135.4 240.3,135.3 241.5,135.3 242.7,135.3 243.9,135.4 245.1,135.4 246.2,135.4 247.4,135.4 248.6,135.4 249.8,135.4 251.0,135.4 252.2,135.4 253.4,135.4 254.5,135.4 255.7,135.4 256.9,135.5 258.1,135.5 259.3,135.5 260.5,135.5 261.7,135.5 262.9,135.5 264.0,135.5 265.2,135.5 266.4,135.5 267.6,135.5 268.8,135.4 270.0,135.5 271.2,135.4 272.3,135.5 273.5,135.4 274.7,135.4 275.9,135.4 277.1,135.4 278.3,135.4 279.5,135.4 280.7,135.4 281.8,135.4 283.0,135.4 284.2,135.4 285.4,135.4 286.6,135.4 287.8,135.5 289.0,135.5 290.1,135.5 291.3,135.5 292.5,135.5 293.7,135.4 294.9,135.5 296.1,135.5 297.3,135.4 298.5,135.4 299.6,135.4 300.8,135.4 302.0,135.4 303.2,135.4 304.4,135.4 305.6,135.4 306.8,135.4 307.9,135.4 309.1,135.3 310.3,135.3 311.5,135.3 312.7,135.3 313.9,135.4 315.1,135.4 316.3,135.4 317.4,135.3 318.6,135.3 319.8,135.3 321.0,135.3 322.2,135.3 323.4,135.3 324.6,135.2 325.7,135.2 326.9,135.2 328.1,135.2 329.3,135.1 330.5,135.1 331.7,135.0 332.9,135.0 334.1,135.0 335.2,134.9 336.4,134.9 337.6,134.8 338.8,134.8 340.0,134.7 341.2,134.7 342.4,134.6 343.5,134.5 344.7,134.4 345.9,134.3 347.1,134.3 348.3,134.2 349.5,134.1 350.7,134.0 351.9,133.9 353.0,133.8 354.2,133.7 355.4,133.6 356.6,133.4 357.8,133.3 359.0,133.2 360.2,133.1 361.3,132.9 362.5,132.8 363.7,132.6 364.9,132.5 366.1,132.3 367.3,132.2 368.5,132.0 369.7,131.9 370.8,131.7 372.0,131.5 373.2,131.4 374.4,131.3 375.6,131.2 376.8,131.2 378.0,131.1 379.1,131.1 380.3,131.0 381.5,130.9 382.7,130.9 383.9,130.9 385.1,130.8 386.3,130.7 387.5,130.6 388.6,130.6 389.8,130.5 391.0,130.5 392.2,130.4 393.4,130.3 394.6,130.2 395.8,130.2 396.9,130.1 398.1,130.0 399.3,129.9 400.5,129.9 401.7,129.8 402.9,129.6 404.1,129.5 405.3,129.4 406.4,129.2 407.6,129.1 408.8,128.9 410.0,128.7 411.2,128.4 412.4,128.2 413.6,127.8 414.7,127.6 415.9,127.5 417.1,127.5 418.3,127.5 419.5,127.5 420.7,127.5 421.9,127.5 423.1,127.5 424.2,127.4 425.4,127.4 426.6,127.3 427.8,127.3 429.0,127.3 430.2,127.2 431.4,127.2 432.5,127.1 433.7,127.1 434.9,127.1 436.1,127.5 437.3,128.4 438.5,129.3 439.7,130.2 440.9,131.2 442.0,132.2 443.2,133.7 444.4,136.0 445.6,139.4 446.8,143.7 448.0,148.3 449.2,153.2 450.3,158.3 451.5,163.3 452.7,168.1 453.9,172.4 455.1,176.2 456.3,179.3 457.5,181.6 458.7,183.4 459.8,184.5 461.0,184.8 462.2,184.3 463.4,183.0 464.6,180.8 465.8,177.9 467.0,174.4 468.1,170.5 469.3,166.3 470.5,161.6 471.7,156.6 472.9,151.3 474.1,146.6 475.3,142.4 476.5,138.8 477.6,135.8 478.8,133.6 480.0,132.1 481.2,131.4 482.4,131.5 483.6,132.5 484.8,134.4 485.9,137.2 487.1,141.1 488.3,146.2 489.5,150.4 490.7,154.0 491.9,156.9 493.1,159.0 494.3,160.3 495.4,160.8 496.6,160.6 497.8,159.5 499.0,157.6 500.2,154.7 501.4,151.0 502.6,148.4 503.7,146.6 504.9,145.9 506.1,146.1 507.3,147.3 508.5,149.4 509.7,150.7 510.9,151.1 512.1,150.7 513.2,150.4 514.4,150.2 515.6,150.3 516.8,150.5 518.0,150.6 519.2,150.6 520.4,150.7 521.5,150.8 522.7,150.9 523.9,151.0 525.1,151.1 526.3,151.1 527.5,151.2 528.7,151.4 529.9,151.5 531.0,151.6 532.2,151.7 533.4,151.8 534.6,151.7 535.8,151.1 537.0,150.0 538.2,148.6 539.3,147.1 540.5,145.6 541.7,144.1 542.9,142.7 544.1,141.2 545.3,139.7 546.5,138.3 547.7,137.0 548.8,136.0 550.0,135.5 551.2,135.3 552.4,135.2 553.6,135.1 554.8,134.8 556.0,134.4 557.1,134.0 558.3,133.7 559.5,133.3 560.7,133.0 561.9,132.8 563.1,132.6 564.3,132.4 565.5,132.2 566.6,132.1 567.8,131.9 569.0,131.8 570.2,131.7 571.4,131.6 572.6,131.5 573.8,131.5 574.9,131.4 576.1,131.4 577.3,131.4 578.5,131.4 579.7,131.3 580.9,131.2 582.1,131.1 583.3,131.1 584.4,131.0 585.6,131.0 586.8,131.0 588.0,130.9 589.2,130.9 590.4,130.8 591.6,130.6 592.7,130.5 593.9,130.4 595.1,130.2 596.3,130.1 597.5,130.0 598.7,129.9 599.9,129.8 601.1,129.6 602.2,129.4 603.4,129.2 604.6,128.9 605.8,128.7 607.0,128.4 608.2,128.1 609.4,127.8 610.5,127.5 611.7,127.4 612.9,127.3 614.1,127.4 615.3,127.4 616.5,127.4 617.7,127.4 618.9,127.3 620.0,127.3 621.2,127.2 622.4,127.2 623.6,127.2 624.8,127.5 626.0,128.6 627.2,130.2 628.3,132.0 629.5,133.8 630.7,135.6 631.9,137.4 633.1,139.7 634.3,142.7 635.5,145.8 636.7,149.2 637.8,152.9 639.0,156.9 640.2,160.9 641.4,165.0 642.6,169.0 643.8,172.9 645.0,175.9 646.1,178.0 647.3,179.4 648.5,179.9 649.7,179.7 650.9,178.8 652.1,177.2 653.3,175.2 654.5,173.1 655.6,171.1 656.8,169.0 658.0,167.1 659.2,165.1 660.4,163.2 661.6,161.4 662.8,159.2 663.9,156.6 665.1,153.4 666.3,150.3 667.5,147.4 668.7,144.6 669.9,141.4 671.1,137.3 672.3,133.3 673.4,129.5 674.6,126.0 675.8,122.9 677.0,120.1 678.2,117.8 679.4,115.9 680.6,114.5 681.7,113.6 682.9,113.2 684.1,113.4 685.3,114.2 686.5,115.6 687.7,117.5 688.9,119.7 690.1,122.1 691.2,124.7 692.4,127.4 693.6,130.5 694.8,133.7 696.0,137.3 697.2,140.8 698.4,144.1 699.5,147.0 700.7,149.5 701.9,151.6 703.1,153.4 704.3,154.8 705.5,155.7 706.7,156.3 707.9,156.4 709.0,156.0 710.2,155.1 711.4,153.7 712.6,151.9 713.8,150.5 715.0,149.8 716.2,149.7 717.3,149.9 718.5,150.0 719.7,150.1 720.9,150.1 722.1,150.1 723.3,150.0 724.5,149.8 725.7,149.8 726.8,149.7 728.0,149.6 729.2,149.6 730.4,149.6 731.6,149.7 732.8,149.8 734.0,149.8 735.1,149.8 736.3,149.9 737.5,150.0 738.7,150.0 739.9,150.1 741.1,150.2 742.3,150.3 743.5,150.4 744.6,150.6 745.8,150.7 747.0,150.9 748.2,151.0 749.4,151.1 750.6,151.2 751.8,151.3 752.9,151.4 754.1,151.5 755.3,151.7 756.5,151.8 757.7,152.0 758.9,152.2 760.1,152.3 761.3,152.4 762.4,152.5 763.6,152.6 764.8,152.8 766.0,152.9"/>
<line x1="606" y1="42" x2="628" y2="42" stroke="#0f62fe" stroke-width="2.2"/>
<text x="634" y="46" font-family="Arial" font-size="12">p_dps</text>
<polyline fill="none" stroke="#24a148" stroke-width="2.2" points="54.0,140.3 55.2,145.5 56.4,148.6 57.6,148.0 58.7,145.8 59.9,144.5 61.1,144.2 62.3,144.2 63.5,143.8 64.7,143.1 65.9,142.9 67.1,142.5 68.2,142.2 69.4,142.0 70.6,141.8 71.8,141.6 73.0,141.6 74.2,141.5 75.4,141.4 76.5,142.1 77.7,140.9 78.9,140.4 80.1,140.6 81.3,140.8 82.5,141.0 83.7,140.7 84.9,140.7 86.0,140.6 87.2,140.6 88.4,140.5 89.6,140.5 90.8,140.8 92.0,140.7 93.2,140.5 94.3,140.6 95.5,140.9 96.7,139.8 97.9,140.7 99.1,141.0 100.3,140.5 101.5,140.4 102.7,140.6 103.8,140.6 105.0,140.5 106.2,140.3 107.4,140.4 108.6,140.8 109.8,140.7 111.0,140.6 112.1,140.6 113.3,140.5 114.5,140.5 115.7,140.5 116.9,138.6 118.1,140.8 119.3,141.4 120.5,140.1 121.6,140.5 122.8,141.2 124.0,140.9 125.2,140.7 126.4,140.8 127.6,141.1 128.8,141.0 129.9,141.2 131.1,140.9 132.3,141.5 133.5,141.2 134.7,141.2 135.9,141.6 137.1,138.7 138.3,143.2 139.4,143.0 140.6,141.0 141.8,142.0 143.0,142.1 144.2,141.6 145.4,142.0 146.6,142.0 147.7,142.6 148.9,141.8 150.1,142.3 151.3,142.5 152.5,142.5 153.7,143.0 154.9,142.0 156.1,142.6 157.2,141.5 158.4,142.9 159.6,142.7 160.8,142.2 162.0,142.3 163.2,142.4 164.4,142.4 165.5,142.0 166.7,142.1 167.9,141.9 169.1,141.8 170.3,141.9 171.5,141.7 172.7,141.7 173.9,142.0 175.0,141.7 176.2,141.9 177.4,138.1 178.6,143.7 179.8,142.0 181.0,141.0 182.2,142.4 183.3,142.5 184.5,141.7 185.7,142.7 186.9,142.7 188.1,142.8 189.3,142.9 190.5,143.0 191.7,142.8 192.8,142.9 194.0,142.7 195.2,142.0 196.4,142.7 197.6,143.2 198.8,141.2 200.0,142.1 201.1,141.9 202.3,141.9 203.5,142.0 204.7,142.0 205.9,142.1 207.1,142.3 208.3,141.9 209.5,142.1 210.6,142.4 211.8,142.2 213.0,142.5 214.2,142.9 215.4,142.9 216.6,143.5 217.8,140.1 218.9,144.8 220.1,144.6 221.3,143.5 222.5,143.9 223.7,144.4 224.9,143.7 226.1,143.6 227.3,143.3 228.4,143.5 229.6,142.9 230.8,143.0 232.0,142.5 233.2,142.3 234.4,142.3 235.6,142.7 236.7,142.5 237.9,134.3 239.1,140.1 240.3,148.3 241.5,144.0 242.7,143.3 243.9,145.7 245.1,146.2 246.2,145.7 247.4,146.4 248.6,147.3 249.8,147.4 251.0,147.5 252.2,148.4 253.4,148.2 254.5,148.6 255.7,148.8 256.9,148.1 258.1,146.4 259.3,148.7 260.5,148.5 261.7,147.5 262.9,147.2 264.0,147.1 265.2,146.9 266.4,146.1 267.6,146.0 268.8,146.4 270.0,146.3 271.2,145.9 272.3,146.0 273.5,146.2 274.7,146.4 275.9,146.7 277.1,146.9 278.3,145.8 279.5,147.2 280.7,148.3 281.8,148.5 283.0,148.8 284.2,149.3 285.4,149.7 286.6,150.3 287.8,150.7 289.0,150.8 290.1,151.1 291.3,151.2 292.5,151.3 293.7,151.4 294.9,151.2 296.1,151.0 297.3,151.1 298.5,141.4 299.6,144.5 300.8,153.2 302.0,155.0 303.2,152.9 304.4,152.2 305.6,153.3 306.8,154.7 307.9,155.2 309.1,155.6 310.3,156.3 311.5,157.0 312.7,157.4 313.9,157.9 315.1,158.1 316.3,158.3 317.4,158.6 318.6,164.2 319.8,162.0 321.0,159.7 322.2,160.0 323.4,161.3 324.6,162.1 325.7,162.5 326.9,162.9 328.1,163.2 329.3,163.7 330.5,164.2 331.7,164.8 332.9,165.3 334.1,165.7 335.2,166.1 336.4,166.6 337.6,167.0 338.8,165.4 340.0,165.8 341.2,166.7 342.4,167.1 343.5,167.2 344.7,167.1 345.9,167.1 347.1,167.0 348.3,167.1 349.5,167.1 350.7,167.1 351.9,167.2 353.0,167.2 354.2,167.2 355.4,167.2 356.6,167.2 357.8,167.2 359.0,167.3 360.2,167.3 361.3,167.3 362.5,167.3 363.7,167.3 364.9,167.3 366.1,167.4 367.3,167.4 368.5,167.4 369.7,167.4 370.8,167.4 372.0,167.4 373.2,167.4 374.4,167.3 375.6,166.7 376.8,163.0 378.0,157.6 379.1,155.2 380.3,151.8 381.5,149.4 382.7,148.1 383.9,147.7 385.1,147.4 386.3,147.3 387.5,146.8 388.6,146.3 389.8,145.7 391.0,145.2 392.2,144.6 393.4,144.4 394.6,143.9 395.8,143.5 396.9,142.9 398.1,142.7 399.3,143.3 400.5,143.2 401.7,143.2 402.9,143.6 404.1,144.8 405.3,146.7 406.4,149.4 407.6,152.9 408.8,157.2 410.0,162.1 411.2,165.6 412.4,167.5 413.6,168.2 414.7,168.3 415.9,168.2 417.1,168.1 418.3,168.0 419.5,168.0 420.7,168.0 421.9,168.1 423.1,168.2 424.2,168.2 425.4,168.3 426.6,168.3 427.8,168.4 429.0,168.4 430.2,168.4 431.4,168.5 432.5,168.5 433.7,168.6 434.9,171.2 436.1,176.3 437.3,182.0 438.5,185.5 439.7,184.3 440.9,178.2 442.0,168.3 443.2,155.2 444.4,141.5 445.6,127.8 446.8,114.2 448.0,100.5 449.2,91.8 450.3,91.4 451.5,96.1 452.7,105.0 453.9,117.5 455.1,131.1 456.3,144.8 457.5,158.5 458.7,172.2 459.8,185.9 461.0,199.6 462.2,213.3 463.4,223.5 464.6,222.5 465.8,214.2 467.0,202.4 468.1,190.3 469.3,181.8 470.5,176.5 471.7,172.9 472.9,170.2 474.1,168.0 475.3,166.9 476.5,166.7 477.6,166.8 478.8,167.1 480.0,167.3 481.2,167.4 482.4,167.5 483.6,167.5 484.8,167.5 485.9,167.5 487.1,167.5 488.3,167.4 489.5,167.3 490.7,167.3 491.9,167.3 493.1,167.3 494.3,167.4 495.4,167.4 496.6,167.5 497.8,167.6 499.0,167.6 500.2,167.6 501.4,167.6 502.6,167.6 503.7,167.5 504.9,167.5 506.1,167.5 507.3,167.5 508.5,167.5 509.7,167.5 510.9,167.6 512.1,167.6 513.2,167.6 514.4,167.5 515.6,167.5 516.8,167.5 518.0,167.5 519.2,167.6 520.4,167.6 521.5,167.6 522.7,167.6 523.9,167.6 525.1,167.6 526.3,167.6 527.5,167.6 528.7,167.6 529.9,167.7 531.0,167.7 532.2,167.7 533.4,167.7 534.6,167.8 535.8,167.8 537.0,167.8 538.2,167.8 539.3,167.8 540.5,167.8 541.7,167.7 542.9,167.6 544.1,167.6 545.3,167.5 546.5,165.3 547.7,161.1 548.8,157.3 550.0,154.4 551.2,151.6 552.4,148.7 553.6,145.9 554.8,143.6 556.0,141.6 557.1,139.9 558.3,138.7 559.5,137.9 560.7,142.9 561.9,141.7 563.1,137.8 564.3,138.0 565.5,140.9 566.6,143.6 567.8,145.6 569.0,147.8 570.2,150.5 571.4,153.1 572.6,155.4 573.8,157.6 574.9,159.5 576.1,161.3 577.3,162.8 578.5,164.0 579.7,164.8 580.9,166.2 582.1,166.5 583.3,166.2 584.4,166.0 585.6,165.6 586.8,165.0 588.0,164.1 589.2,163.2 590.4,162.4 591.6,161.7 592.7,161.2 593.9,160.8 595.1,160.5 596.3,160.3 597.5,160.2 598.7,160.3 599.9,160.5 601.1,163.1 602.2,163.7 603.4,162.9 604.6,164.1 605.8,165.3 607.0,166.7 608.2,167.6 609.4,168.1 610.5,168.3 611.7,168.3 612.9,168.3 614.1,168.3 615.3,168.4 616.5,168.4 617.7,168.5 618.9,168.6 620.0,168.6 621.2,168.7 622.4,168.8 623.6,168.9 624.8,168.9 626.0,169.0 627.2,169.0 628.3,168.8 629.5,168.7 630.7,168.5 631.9,168.2 633.1,167.4 634.3,161.3 635.5,150.5 636.7,136.8 637.8,128.0 639.0,123.2 640.2,120.6 641.4,116.8 642.6,115.6 643.8,117.1 645.0,120.3 646.1,124.6 647.3,130.1 648.5,137.0 649.7,145.2 650.9,154.2 652.1,161.9 653.3,166.8 654.5,169.4 655.6,170.3 656.8,170.5 658.0,170.3 659.2,170.1 660.4,170.6 661.6,171.0 662.8,171.3 663.9,170.9 665.1,170.1 666.3,169.4 667.5,168.8 668.7,168.3 669.9,167.9 671.1,167.5 672.3,167.2 673.4,166.9 674.6,166.6 675.8,166.4 677.0,166.4 678.2,166.5 679.4,166.6 680.6,166.9 681.7,167.2 682.9,167.5 684.1,167.8 685.3,168.1 686.5,168.4 687.7,168.6 688.9,168.7 690.1,168.8 691.2,168.2 692.4,166.3 693.6,163.9 694.8,161.6 696.0,159.5 697.2,157.5 698.4,155.4 699.5,153.5 700.7,151.7 701.9,150.3 703.1,149.1 704.3,148.3 705.5,147.8 706.7,147.8 707.9,148.0 709.0,148.5 710.2,149.2 711.4,150.0 712.6,151.0 713.8,152.0 715.0,152.9 716.2,153.8 717.3,154.5 718.5,155.1 719.7,155.5 720.9,155.8 722.1,155.9 723.3,155.8 724.5,155.5 725.7,155.0 726.8,154.4 728.0,153.8 729.2,153.2 730.4,152.6 731.6,151.9 732.8,151.3 734.0,150.7 735.1,150.1 736.3,149.6 737.5,149.0 738.7,148.5 739.9,148.1 741.1,147.7 742.3,147.3 743.5,147.1 744.6,146.9 745.8,146.9 747.0,147.0 748.2,147.2 749.4,147.6 750.6,148.1 751.8,148.7 752.9,149.5 754.1,150.4 755.3,151.5 756.5,152.8 757.7,154.3 758.9,156.0 760.1,158.0 761.3,160.3 762.4,162.7 763.6,164.9 764.8,166.5 766.0,167.4"/>
<line x1="606" y1="60" x2="628" y2="60" stroke="#24a148" stroke-width="2.2"/>
<text x="634" y="64" font-family="Arial" font-size="12">q_dps</text>
<polyline fill="none" stroke="#da1e28" stroke-width="2.2" points="54.0,140.3 55.2,141.9 56.4,142.9 57.6,143.6 58.7,144.0 59.9,144.2 61.1,144.3 62.3,144.4 63.5,144.4 64.7,144.4 65.9,144.4 67.1,144.4 68.2,144.4 69.4,144.4 70.6,144.5 71.8,144.5 73.0,144.6 74.2,144.6 75.4,144.7 76.5,144.8 77.7,144.8 78.9,144.8 80.1,144.8 81.3,144.8 82.5,144.8 83.7,144.9 84.9,144.9 86.0,144.9 87.2,144.9 88.4,145.0 89.6,145.1 90.8,145.1 92.0,145.1 93.2,145.1 94.3,145.0 95.5,145.0 96.7,145.0 97.9,145.0 99.1,145.0 100.3,145.0 101.5,145.0 102.7,145.0 103.8,144.9 105.0,144.9 106.2,144.9 107.4,144.9 108.6,144.9 109.8,145.0 111.0,145.1 112.1,145.1 113.3,145.2 114.5,145.2 115.7,145.2 116.9,145.3 118.1,145.3 119.3,145.3 120.5,145.4 121.6,145.5 122.8,145.6 124.0,145.7 125.2,145.8 126.4,145.9 127.6,146.1 128.8,146.3 129.9,146.5 131.1,146.6 132.3,146.8 133.5,147.0 134.7,147.2 135.9,147.5 137.1,147.6 138.3,147.6 139.4,147.5 140.6,147.3 141.8,147.1 143.0,147.0 144.2,146.9 145.4,147.0 146.6,146.9 147.7,147.0 148.9,147.0 150.1,146.9 151.3,146.8 152.5,146.8 153.7,146.9 154.9,146.8 156.1,146.6 157.2,146.4 158.4,146.2 159.6,145.9 160.8,145.5 162.0,145.1 163.2,144.9 164.4,144.7 165.5,144.4 166.7,144.2 167.9,143.9 169.1,143.6 170.3,143.4 171.5,143.2 172.7,143.2 173.9,143.3 175.0,143.3 176.2,143.4 177.4,143.2 178.6,143.1 179.8,143.0 181.0,143.1 182.2,143.2 183.3,143.4 184.5,143.6 185.7,143.8 186.9,144.1 188.1,144.3 189.3,144.4 190.5,144.4 191.7,144.3 192.8,144.3 194.0,144.1 195.2,143.7 196.4,143.4 197.6,143.0 198.8,142.7 200.0,142.4 201.1,142.2 202.3,142.1 203.5,142.1 204.7,142.1 205.9,142.0 207.1,142.0 208.3,142.0 209.5,142.1 210.6,142.3 211.8,142.5 213.0,142.8 214.2,143.1 215.4,143.4 216.6,143.7 217.8,144.1 218.9,144.2 220.1,144.5 221.3,144.6 222.5,144.5 223.7,144.5 224.9,144.3 226.1,144.0 227.3,143.6 228.4,143.3 229.6,143.0 230.8,142.6 232.0,142.3 233.2,142.2 234.4,142.2 235.6,142.3 236.7,142.4 237.9,142.6 239.1,142.8 240.3,143.2 241.5,143.7 242.7,144.2 243.9,144.7 245.1,145.1 246.2,145.5 247.4,145.8 248.6,146.1 249.8,146.3 251.0,146.5 252.2,146.7 253.4,146.9 254.5,147.0 255.7,146.9 256.9,146.8 258.1,146.7 259.3,146.6 260.5,146.3 261.7,146.0 262.9,145.7 264.0,145.4 265.2,145.2 266.4,145.0 267.6,144.8 268.8,144.7 270.0,144.6 271.2,144.6 272.3,144.5 273.5,144.5 274.7,144.6 275.9,144.7 277.1,144.8 278.3,144.9 279.5,145.1 280.7,145.3 281.8,145.6 283.0,145.9 284.2,146.1 285.4,146.3 286.6,146.4 287.8,146.3 289.0,146.3 290.1,146.2 291.3,146.0 292.5,145.8 293.7,145.6 294.9,145.5 296.1,145.3 297.3,145.3 298.5,145.2 299.6,145.3 300.8,145.3 302.0,145.4 303.2,145.4 304.4,145.6 305.6,145.8 306.8,146.1 307.9,146.3 309.1,146.6 310.3,146.9 311.5,147.0 312.7,147.1 313.9,147.0 315.1,146.9 316.3,146.8 317.4,146.9 318.6,146.9 319.8,147.0 321.0,147.1 322.2,147.1 323.4,147.1 324.6,147.2 325.7,147.3 326.9,147.3 328.1,147.4 329.3,147.5 330.5,147.6 331.7,147.6 332.9,147.7 334.1,147.7 335.2,147.9 336.4,148.0 337.6,148.1 338.8,148.2 340.0,148.4 341.2,148.5 342.4,148.6 343.5,148.8 344.7,149.0 345.9,149.2 347.1,149.4 348.3,149.6 349.5,149.9 350.7,150.1 351.9,150.2 353.0,150.5 354.2,150.7 355.4,151.0 356.6,151.2 357.8,151.5 359.0,151.8 360.2,152.1 361.3,152.4 362.5,152.7 363.7,153.1 364.9,153.5 366.1,153.3 367.3,152.7 368.5,151.6 369.7,150.1 370.8,148.2 372.0,146.0 373.2,143.3 374.4,140.2 375.6,137.3 376.8,134.6 378.0,132.8 379.1,131.8 380.3,131.4 381.5,131.4 382.7,131.6 383.9,131.8 385.1,132.0 386.3,132.3 387.5,132.5 388.6,132.7 389.8,132.9 391.0,133.0 392.2,133.2 393.4,133.4 394.6,133.5 395.8,133.7 396.9,133.9 398.1,134.2 399.3,134.7 400.5,135.4 401.7,136.2 402.9,137.3 404.1,138.7 405.3,140.2 406.4,142.0 407.6,144.0 408.8,146.3 410.0,148.9 411.2,151.7 412.4,155.0 413.6,158.6 414.7,162.4 415.9,166.2 417.1,169.9 418.3,173.6 419.5,177.1 420.7,180.6 421.9,184.1 423.1,187.4 424.2,190.7 425.4,194.0 426.6,197.2 427.8,200.3 429.0,203.3 430.2,206.3 431.4,209.3 432.5,212.2 433.7,215.1 434.9,217.9 436.1,220.7 437.3,223.4 438.5,226.1 439.7,228.8 440.9,231.5 442.0,234.4 443.2,236.8 444.4,237.6 445.6,236.8 446.8,234.2 448.0,229.9 449.2,223.7 450.3,215.6 451.5,205.9 452.7,194.7 453.9,182.5 455.1,170.3 456.3,158.7 457.5,148.0 458.7,138.2 459.8,129.4 461.0,122.2 462.2,116.6 463.4,112.6 464.6,110.1 465.8,108.5 467.0,107.6 468.1,107.4 469.3,107.8 470.5,109.1 471.7,111.4 472.9,114.5 474.1,118.1 475.3,122.1 476.5,126.4 477.6,131.1 478.8,135.9 480.0,140.7 481.2,144.9 482.4,148.4 483.6,151.2 484.8,153.2 485.9,154.4 487.1,154.6 488.3,153.7 489.5,151.7 490.7,148.5 491.9,144.2 493.1,140.2 494.3,136.6 495.4,133.4 496.6,130.6 497.8,128.2 499.0,126.5 500.2,125.3 501.4,124.2 502.6,123.2 503.7,122.6 504.9,122.2 506.1,122.2 507.3,122.2 508.5,122.3 509.7,122.4 510.9,122.4 512.1,122.4 513.2,122.3 514.4,122.2 515.6,122.0 516.8,121.9 518.0,121.7 519.2,121.6 520.4,121.4 521.5,121.3 522.7,120.8 523.9,120.2 525.1,119.5 526.3,118.6 527.5,117.4 528.7,116.0 529.9,114.3 531.0,112.5 532.2,110.5 533.4,108.2 534.6,105.7 535.8,103.0 537.0,100.1 538.2,97.2 539.3,94.3 540.5,91.4 541.7,88.5 542.9,85.8 544.1,83.3 545.3,81.1 546.5,79.2 547.7,77.8 548.8,76.8 550.0,76.3 551.2,76.3 552.4,76.8 553.6,77.8 554.8,79.5 556.0,81.8 557.1,84.7 558.3,88.3 559.5,92.6 560.7,97.5 561.9,102.9 563.1,108.8 564.3,115.1 565.5,121.9 566.6,129.0 567.8,136.4 569.0,143.5 570.2,150.1 571.4,155.9 572.6,161.2 573.8,165.9 574.9,169.9 576.1,173.2 577.3,175.8 578.5,177.6 579.7,178.9 580.9,179.7 582.1,179.8 583.3,179.3 584.4,178.3 585.6,176.6 586.8,174.7 588.0,172.6 589.2,170.6 590.4,168.9 591.6,167.5 592.7,166.4 593.9,165.4 595.1,164.7 596.3,164.3 597.5,164.1 598.7,164.2 599.9,164.6 601.1,165.3 602.2,166.4 603.4,167.8 604.6,169.7 605.8,172.0 607.0,174.8 608.2,178.0 609.4,181.8 610.5,186.1 611.7,190.5 612.9,194.8 614.1,199.2 615.3,203.5 616.5,207.8 617.7,212.1 618.9,216.3 620.0,220.5 621.2,224.7 622.4,228.9 623.6,233.0 624.8,237.1 626.0,241.2 627.2,245.3 628.3,249.5 629.5,253.6 630.7,257.8 631.9,262.1 633.1,265.0 634.3,266.0 635.5,265.1 636.7,262.1 637.8,257.0 639.0,249.7 640.2,240.4 641.4,229.1 642.6,215.8 643.8,202.1 645.0,188.4 646.1,174.7 647.3,161.1 648.5,148.2 649.7,136.2 650.9,125.3 652.1,115.2 653.3,106.1 654.5,97.6 655.6,89.8 656.8,82.6 658.0,76.0 659.2,69.8 660.4,64.2 661.6,59.1 662.8,55.6 663.9,54.0 665.1,54.1 666.3,55.8 667.5,58.8 668.7,63.1 669.9,68.6 671.1,75.2 672.3,82.6 673.4,91.0 674.6,100.2 675.8,109.4 677.0,118.7 678.2,127.8 679.4,136.7 680.6,145.2 681.7,153.5 682.9,161.3 684.1,168.5 685.3,175.1 686.5,181.0 687.7,186.2 688.9,190.6 690.1,194.1 691.2,196.7 692.4,198.3 693.6,198.8 694.8,198.5 696.0,197.6 697.2,196.0 698.4,193.7 699.5,190.7 700.7,187.2 701.9,183.0 703.1,178.1 704.3,172.8 705.5,167.0 706.7,161.2 707.9,155.4 709.0,149.8 710.2,144.3 711.4,139.1 712.6,134.4 713.8,130.2 715.0,126.4 716.2,123.3 717.3,120.8 718.5,119.0 719.7,117.8 720.9,117.2 722.1,117.3 723.3,118.0 724.5,119.2 725.7,120.6 726.8,122.2 728.0,123.8 729.2,125.4 730.4,127.0 731.6,128.4 732.8,129.8 734.0,131.1 735.1,132.3 736.3,133.4 737.5,134.3 738.7,135.2 739.9,135.8 741.1,136.3 742.3,136.7 743.5,136.8 744.6,136.7 745.8,136.4 747.0,135.8 748.2,135.1 749.4,134.2 750.6,133.1 751.8,131.9 752.9,130.5 754.1,128.9 755.3,127.1 756.5,125.1 757.7,122.9 758.9,120.4 760.1,117.9 761.3,115.2 762.4,112.5 763.6,109.7 764.8,106.8 766.0,103.8"/>
<line x1="606" y1="78" x2="628" y2="78" stroke="#da1e28" stroke-width="2.2"/>
<text x="634" y="82" font-family="Arial" font-size="12">r_dps</text>
</svg>