<svg xmlns="http://www.w3.org/2000/svg" width="820" height="320" viewBox="0 0 820 320">
<rect width="100%" height="100%" fill="#ffffff"/>
<text x="54" y="28" font-family="Arial" font-size="18" font-weight="700">Alpha/Beta</text>
<line x1="54" y1="266" x2="766" y2="266" stroke="#1f2933"/>
<line x1="54" y1="54" x2="54" y2="266" stroke="#1f2933"/>
<text x="54" y="306" font-family="Arial" font-size="12">time (s)</text>
<text x="596" y="306" font-family="Arial" font-size="12">angle (deg)</text>
<text x="58" y="68" font-family="Arial" font-size="11">35</text>
<text x="58" y="260" font-family="Arial" font-size="11">-30</text>
<polyline fill="none" stroke="#0f62fe" stroke-width="2.2" points="54.0,171.7 55.2,170.1 56.4,167.3 57.6,165.0 58.7,163.7 59.9,162.1 61.1,161.2 62.3,159.5 63.5,158.3 64.7,157.6 65.9,156.3 67.1,155.4 68.2,154.6 69.4,154.0 70.6,153.4 71.8,153.2 73.0,152.8 74.2,152.6 75.4,152.0 76.5,150.4 77.7,150.1 78.9,149.7 80.1,149.4 81.3,149.7 82.5,149.2 83.7,149.2 84.9,148.8 86.0,148.6 87.2,148.2 88.4,148.0 89.6,148.3 90.8,147.9 92.0,147.6 93.2,147.6 94.3,147.8 95.5,147.2 96.7,147.6 97.9,147.3 99.1,146.7 100.3,146.5 101.5,146.4 102.7,146.0 103.8,145.8 105.0,145.1 106.2,144.8 107.4,145.1 108.6,144.9 109.8,144.7 111.0,144.4 112.1,144.0 113.3,143.6 114.5,143.2 115.7,142.7 116.9,142.7 118.1,142.5 119.3,141.5 120.5,141.7 121.6,141.9 122.8,141.6 124.0,141.3 125.2,140.8 126.4,140.6 127.6,140.3 128.8,140.2 129.9,139.5 131.1,139.6 132.3,139.0 133.5,138.5 134.7,138.2 135.9,138.2 137.1,138.8 138.3,138.7 139.4,137.9 140.6,138.0 141.8,137.4 143.0,136.8 144.2,136.8 145.4,136.5 146.6,137.0 147.7,136.2 148.9,136.0 150.1,136.0 151.3,136.0 152.5,136.5 153.7,135.3 154.9,135.0 156.1,135.0 157.2,134.8 158.4,134.4 159.6,134.4 160.8,134.2 162.0,134.2 163.2,134.4 164.4,133.8 165.5,133.8 166.7,133.3 167.9,133.0 169.1,133.1 170.3,132.8 171.5,132.9 172.7,133.2 173.9,132.7 175.0,132.4 176.2,132.0 177.4,132.6 178.6,131.8 179.8,131.8 181.0,132.0 182.2,132.2 183.3,131.4 184.5,131.7 185.7,131.4 186.9,131.5 188.1,131.3 189.3,131.0 190.5,130.1 191.7,129.6 192.8,129.0 194.0,127.7 195.2,127.9 196.4,126.8 197.6,126.3 198.8,126.9 200.0,126.5 201.1,126.7 202.3,126.7 203.5,126.6 204.7,126.7 205.9,126.6 207.1,126.2 208.3,126.0 209.5,126.1 210.6,125.5 211.8,125.4 213.0,125.2 214.2,124.8 215.4,124.9 216.6,124.5 217.8,123.8 218.9,123.1 220.1,122.8 221.3,122.0 222.5,121.6 223.7,120.6 224.9,119.9 226.1,119.1 227.3,119.3 228.4,118.9 229.6,119.1 230.8,118.8 232.0,118.4 233.2,117.8 234.4,117.9 235.6,117.4 236.7,118.0 237.9,119.4 239.1,120.2 240.3,118.7 241.5,118.8 242.7,118.2 243.9,117.8 245.1,117.0 246.2,116.4 247.4,115.9 248.6,114.9 249.8,114.0 251.0,114.2 252.2,113.4 253.4,113.0 254.5,112.5 255.7,111.1 256.9,109.8 258.1,109.1 259.3,107.7 260.5,106.8 261.7,106.0 262.9,105.6 264.0,105.1 265.2,104.0 266.4,102.9 267.6,102.8 268.8,102.1 270.0,101.4 271.2,100.1 272.3,99.8 273.5,98.5 274.7,98.2 275.9,96.6 277.1,96.2 278.3,95.3 279.5,94.6 280.7,93.4 281.8,92.7 283.0,92.5 284.2,91.1 285.4,89.2 286.6,87.5 287.8,85.5 289.0,84.1 290.1,82.1 291.3,80.1 292.5,78.3 293.7,76.1 294.9,74.7 296.1,72.6 297.3,71.2 298.5,72.1 299.6,71.4 300.8,68.9 302.0,66.5 303.2,64.1 304.4,61.3 305.6,59.5 306.8,56.8 307.9,54.4 309.1,54.0 310.3,54.0 311.5,54.0 312.7,54.0 313.9,54.0 315.1,54.0 316.3,54.0 317.4,54.0 318.6,54.0 319.8,54.0 321.0,54.0 322.2,54.0 323.4,54.0 324.6,54.0 325.7,54.0 326.9,54.0 328.1,54.0 329.3,54.0 330.5,54.0 331.7,54.0 332.9,54.0 334.1,54.0 335.2,54.0 336.4,54.0 337.6,54.0 338.8,54.0 340.0,54.0 341.2,54.0 342.4,54.0 343.5,54.0 344.7,54.0 345.9,54.0 347.1,54.0 348.3,54.0 349.5,54.0 350.7,54.0 351.9,54.0 353.0,54.0 354.2,54.0 355.4,54.0 356.6,54.0 357.8,54.0 359.0,54.0 360.2,54.0 361.3,54.0 362.5,54.0 363.7,54.0 364.9,54.0 366.1,54.0 367.3,54.0 368.5,54.0 369.7,54.0 370.8,54.0 372.0,54.0 373.2,54.0 374.4,54.0 375.6,54.0 376.8,54.0 378.0,54.0 379.1,54.0 380.3,54.0 381.5,54.0 382.7,54.0 383.9,54.0 385.1,54.0 386.3,54.0 387.5,54.0 388.6,54.0 389.8,54.0 391.0,54.0 392.2,54.0 393.4,54.0 394.6,54.0 395.8,54.0 396.9,54.0 398.1,54.0 399.3,54.0 400.5,54.0 401.7,54.0 402.9,54.0 404.1,54.0 405.3,54.0 406.4,54.0 407.6,54.0 408.8,54.0 410.0,54.0 411.2,54.0 412.4,54.0 413.6,54.0 414.7,54.0 415.9,54.0 417.1,54.0 418.3,54.0 419.5,54.0 420.7,54.0 421.9,54.0 423.1,54.0 424.2,54.0 425.4,54.0 426.6,54.0 427.8,54.0 429.0,54.0 430.2,54.0 431.4,54.0 432.5,72.9 433.7,116.8 434.9,135.1 436.1,141.8 437.3,141.8 438.5,139.4 439.7,135.1 440.9,132.2 442.0,130.5 443.2,130.4 444.4,133.5 445.6,137.9 446.8,145.4 448.0,155.7 449.2,168.5 450.3,180.8 451.5,193.9 452.7,205.4 453.9,213.7 455.1,220.7 456.3,225.4 457.5,226.3 458.7,223.5 459.8,217.0 461.0,207.3 462.2,193.9 463.4,177.1 464.6,161.3 465.8,147.8 467.0,136.1 468.1,128.2 469.3,121.8 470.5,115.2 471.7,109.0 472.9,104.0 474.1,98.1 475.3,92.5 476.5,88.1 477.6,82.0 478.8,76.8 480.0,71.4 481.2,65.0 482.4,58.7 483.6,54.0 484.8,54.0 485.9,54.0 487.1,54.0 488.3,54.0 489.5,54.0 490.7,54.0 491.9,54.0 493.1,54.0 494.3,54.0 495.4,54.0 496.6,54.0 497.8,54.0 499.0,54.0 500.2,54.0 501.4,54.0 502.6,54.0 503.7,54.0 504.9,54.0 506.1,54.0 507.3,54.0 508.5,54.0 509.7,54.0 510.9,54.0 512.1,54.0 513.2,54.0 514.4,54.0 515.6,54.0 516.8,54.0 518.0,54.0 519.2,54.0 520.4,54.0 521.5,54.0 522.7,54.0 523.9,54.0 525.1,54.0 526.3,54.0 527.5,54.0 528.7,54.0 529.9,54.0 531.0,54.0 532.2,54.0 533.4,54.0 534.6,54.0 535.8,54.0 537.0,54.0 538.2,54.0 539.3,54.0 540.5,54.0 541.7,54.0 542.9,54.0 544.1,54.0 545.3,54.0 546.5,54.0 547.7,54.0 548.8,54.0 550.0,54.0 551.2,54.0 552.4,54.0 553.6,54.0 554.8,54.0 556.0,54.0 557.1,54.0 558.3,54.0 559.5,54.0 560.7,54.0 561.9,54.0 563.1,54.0 564.3,54.0 565.5,54.0 566.6,54.0 567.8,54.0 569.0,54.0 570.2,54.0 571.4,54.0 572.6,54.0 573.8,54.0 574.9,54.0 576.1,54.0 577.3,54.0 578.5,54.0 579.7,54.0 580.9,54.0 582.1,54.0 583.3,54.0 584.4,54.0 585.6,54.0 586.8,54.0 588.0,54.0 589.2,54.0 590.4,54.0 591.6,54.0 592.7,54.0 593.9,54.0 595.1,54.0 596.3,54.0 597.5,54.0 598.7,54.0 599.9,54.0 601.1,54.0 602.2,54.0 603.4,54.0 604.6,54.0 605.8,54.0 607.0,54.0 608.2,54.0 609.4,54.0 610.5,54.0 611.7,54.0 612.9,54.0 614.1,54.0 615.3,54.0 616.5,54.0 617.7,54.0 618.9,54.0 620.0,54.0 621.2,54.0 622.4,54.0 623.6,54.0 624.8,54.0 626.0,54.0 627.2,54.0 628.3,54.0 629.5,54.0 630.7,54.0 631.9,54.0 633.1,54.0 634.3,54.0 635.5,54.0 636.7,54.0 637.8,54.0 639.0,54.0 640.2,54.0 641.4,54.0 642.6,54.0 643.8,54.0 645.0,54.0 646.1,54.0 647.3,54.0 648.5,54.0 649.7,59.2 650.9,67.5 652.1,74.5 653.3,80.7 654.5,86.2 655.6,91.7 656.8,97.2 658.0,101.9 659.2,105.7 660.4,106.1 661.6,106.6 662.8,104.4 663.9,101.3 665.1,98.6 666.3,94.1 667.5,88.2 668.7,82.0 669.9,74.6 671.1,68.4 672.3,61.5 673.4,55.9 674.6,54.0 675.8,54.0 677.0,54.0 678.2,54.0 679.4,54.0 680.6,54.0 681.7,54.0 682.9,54.0 684.1,54.0 685.3,54.0 686.5,54.0 687.7,54.0 688.9,54.0 690.1,54.0 691.2,54.0 692.4,54.0 693.6,54.0 694.8,54.0 696.0,54.0 697.2,54.0 698.4,54.0 699.5,54.0 700.7,54.0 701.9,54.0 703.1,54.0 704.3,54.0 705.5,54.0 706.7,54.0 707.9,54.0 709.0,54.0 710.2,54.0 711.4,54.0 712.6,54.0 713.8,54.0 715.0,54.0 716.2,54.0 717.3,54.0 718.5,54.0 719.7,54.0 720.9,54.0 722.1,54.0 723.3,54.0 724.5,54.0 725.7,54.0 726.8,54.0 728.0,54.0 729.2,54.0 730.4,54.0 731.6,54.0 732.8,54.0 734.0,54.0 735.1,54.0 736.3,54.0 737.5,54.0 738.7,54.0 739.9,54.0 741.1,54.0 742.3,54.0 743.5,54.0 744.6,54.0 745.8,54.0 747.0,54.0 748.2,54.0 749.4,54.0 750.6,54.0 751.8,54.0 752.9,54.0 754.1,54.0 755.3,54.0 756.5,54.0 757.7,54.0 758.9,54.0 760.1,54.0 761.3,54.0 762.4,54.0 763.6,54.0 764.8,54.0 766.0,54.0"/>
<line x1="606" y1="42" x2="628" y2="42" stroke="#0f62fe" stroke-width="2.2"/>
<text x="634" y="46" font-family="Arial" font-size="12">alpha_deg</text>
<polyline fill="none" stroke="#24a148" stroke-width="2.2" points="54.0,188.9 55.2,188.5 56.4,189.3 57.6,189.6 58.7,189.4 59.9,187.2 61.1,186.8 62.3,184.7 63.5,183.3 64.7,182.6 65.9,181.1 67.1,180.4 68.2,180.2 69.4,178.9 70.6,177.3 71.8,177.6 73.0,176.4 74.2,175.7 75.4,175.1 76.5,174.2 77.7,172.3 78.9,170.8 80.1,169.3 81.3,168.3 82.5,168.3 83.7,167.2 84.9,164.7 86.0,164.2 87.2,163.9 88.4,163.1 89.6,161.4 90.8,160.1 92.0,158.1 93.2,156.9 94.3,155.3 95.5,154.2 96.7,153.0 97.9,151.9 99.1,150.3 100.3,148.9 101.5,147.4 102.7,145.8 103.8,144.5 105.0,143.1 106.2,141.8 107.4,140.5 108.6,140.8 109.8,139.9 111.0,138.4 112.1,137.4 113.3,136.2 114.5,135.1 115.7,134.5 116.9,133.3 118.1,132.4 119.3,131.2 120.5,130.6 121.6,130.0 122.8,129.2 124.0,128.6 125.2,127.7 126.4,127.5 127.6,126.9 128.8,126.9 129.9,125.7 131.1,125.3 132.3,125.5 133.5,124.5 134.7,124.3 135.9,123.8 137.1,123.2 138.3,122.1 139.4,120.5 140.6,119.6 141.8,118.6 143.0,118.3 144.2,118.6 145.4,117.9 146.6,118.4 147.7,117.9 148.9,117.0 150.1,116.9 151.3,116.8 152.5,117.1 153.7,116.5 154.9,115.6 156.1,115.5 157.2,115.7 158.4,114.7 159.6,114.7 160.8,114.6 162.0,115.4 163.2,115.3 164.4,115.2 165.5,115.4 166.7,115.3 167.9,115.1 169.1,115.4 170.3,115.3 171.5,116.7 172.7,116.9 173.9,116.9 175.0,117.0 176.2,115.7 177.4,115.8 178.6,116.1 179.8,117.0 181.0,117.3 182.2,117.6 183.3,117.5 184.5,117.6 185.7,117.6 186.9,117.6 188.1,117.0 189.3,116.7 190.5,116.5 191.7,116.5 192.8,115.5 194.0,114.9 195.2,114.9 196.4,114.9 197.6,115.1 198.8,115.2 200.0,115.3 201.1,116.0 202.3,116.6 203.5,116.4 204.7,116.4 205.9,116.6 207.1,116.5 208.3,116.9 209.5,117.4 210.6,117.6 211.8,117.6 213.0,118.1 214.2,118.0 215.4,118.1 216.6,118.0 217.8,117.3 218.9,117.7 220.1,117.1 221.3,116.4 222.5,116.4 223.7,115.7 224.9,115.1 226.1,115.1 227.3,115.2 228.4,115.2 229.6,114.9 230.8,115.2 232.0,115.9 233.2,116.8 234.4,117.2 235.6,117.0 236.7,117.3 237.9,117.4 239.1,118.1 240.3,118.7 241.5,119.0 242.7,118.6 243.9,118.5 245.1,118.2 246.2,118.0 247.4,118.0 248.6,117.6 249.8,117.6 251.0,117.5 252.2,117.7 253.4,117.5 254.5,117.1 255.7,116.6 256.9,116.3 258.1,116.2 259.3,115.7 260.5,115.6 261.7,115.2 262.9,115.6 264.0,115.7 265.2,115.6 266.4,115.9 267.6,116.2 268.8,116.1 270.0,116.7 271.2,116.3 272.3,116.7 273.5,117.0 274.7,117.0 275.9,117.1 277.1,117.4 278.3,117.4 279.5,117.7 280.7,117.9 281.8,117.9 283.0,117.8 284.2,117.5 285.4,117.1 286.6,116.6 287.8,116.6 289.0,116.2 290.1,115.8 291.3,115.9 292.5,116.2 293.7,115.9 294.9,116.1 296.1,116.5 297.3,116.4 298.5,116.9 299.6,116.8 300.8,117.0 302.0,117.1 303.2,117.7 304.4,117.7 305.6,117.8 306.8,117.9 307.9,118.3 309.1,118.3 310.3,118.3 311.5,118.6 312.7,118.0 313.9,117.9 315.1,117.6 316.3,118.2 317.4,118.2 318.6,119.0 319.8,119.1 321.0,119.3 322.2,119.5 323.4,120.4 324.6,120.7 325.7,120.9 326.9,121.6 328.1,122.2 329.3,123.0 330.5,123.4 331.7,124.0 332.9,124.6 334.1,125.6 335.2,126.3 336.4,127.1 337.6,128.5 338.8,129.4 340.0,130.1 341.2,131.7 342.4,133.4 343.5,134.4 344.7,136.2 345.9,137.6 347.1,139.5 348.3,141.6 349.5,143.0 350.7,144.6 351.9,146.7 353.0,148.6 354.2,150.8 355.4,153.1 356.6,155.5 357.8,157.8 359.0,160.3 360.2,162.9 361.3,165.5 362.5,168.8 363.7,171.5 364.9,174.4 366.1,177.6 367.3,180.6 368.5,183.8 369.7,187.4 370.8,190.8 372.0,193.7 373.2,195.6 374.4,197.8 375.6,199.3 376.8,201.2 378.0,202.6 379.1,203.4 380.3,204.8 381.5,205.7 382.7,206.3 383.9,207.8 385.1,209.0 386.3,210.5 387.5,211.5 388.6,213.0 389.8,213.8 391.0,215.5 392.2,217.1 393.4,218.2 394.6,219.5 395.8,221.2 396.9,222.4 398.1,224.2 399.3,225.6 400.5,227.8 401.7,230.2 402.9,232.8 404.1,235.0 405.3,238.0 406.4,241.2 407.6,244.4 408.8,248.4 410.0,252.6 411.2,257.5 412.4,263.6 413.6,266.0 414.7,266.0 415.9,266.0 417.1,266.0 418.3,266.0 419.5,266.0 420.7,266.0 421.9,266.0 423.1,266.0 424.2,266.0 425.4,266.0 426.6,266.0 427.8,266.0 429.0,266.0 430.2,266.0 431.4,266.0 432.5,266.0 433.7,266.0 434.9,266.0 436.1,266.0 437.3,266.0 438.5,266.0 439.7,266.0 440.9,266.0 442.0,258.7 443.2,234.5 444.4,210.4 445.6,187.0 446.8,163.5 448.0,141.9 449.2,122.3 450.3,104.2 451.5,90.0 452.7,78.7 453.9,71.1 455.1,70.3 456.3,70.3 457.5,70.3 458.7,72.5 459.8,78.0 461.0,85.6 462.2,93.2 463.4,101.2 464.6,108.5 465.8,115.4 467.0,121.8 468.1,128.2 469.3,134.6 470.5,140.9 471.7,145.9 472.9,150.0 474.1,154.2 475.3,157.7 476.5,160.8 477.6,162.3 478.8,163.0 480.0,163.3 481.2,163.5 482.4,162.7 483.6,161.7 484.8,160.3 485.9,158.0 487.1,154.5 488.3,150.6 489.5,145.9 490.7,141.9 491.9,138.9 493.1,135.6 494.3,132.1 495.4,128.8 496.6,126.0 497.8,124.3 499.0,123.3 500.2,122.3 501.4,121.6 502.6,122.2 503.7,122.9 504.9,124.0 506.1,124.6 507.3,125.0 508.5,124.6 509.7,123.7 510.9,122.8 512.1,122.1 513.2,121.5 514.4,119.8 515.6,118.8 516.8,118.0 518.0,116.9 519.2,115.3 520.4,113.9 521.5,111.1 522.7,110.2 523.9,108.8 525.1,107.0 526.3,105.2 527.5,103.0 528.7,101.4 529.9,99.7 531.0,97.7 532.2,95.6 533.4,93.0 534.6,91.6 535.8,90.2 537.0,89.5 538.2,89.5 539.3,90.2 540.5,89.9 541.7,91.1 542.9,93.2 544.1,96.1 545.3,99.6 546.5,103.4 547.7,106.9 548.8,111.2 550.0,116.0 551.2,120.1 552.4,125.0 553.6,130.3 554.8,136.4 556.0,142.2 557.1,148.4 558.3,154.5 559.5,160.5 560.7,165.6 561.9,169.6 563.1,173.9 564.3,177.6 565.5,181.3 566.6,184.2 567.8,187.5 569.0,189.7 570.2,190.9 571.4,192.2 572.6,192.9 573.8,193.8 574.9,193.8 576.1,193.2 577.3,193.1 578.5,194.6 579.7,195.8 580.9,196.1 582.1,197.0 583.3,197.9 584.4,198.8 585.6,200.1 586.8,201.0 588.0,203.3 589.2,205.2 590.4,208.2 591.6,210.9 592.7,212.9 593.9,215.5 595.1,217.9 596.3,219.6 597.5,222.7 598.7,225.5 599.9,229.2 601.1,232.3 602.2,235.7 603.4,241.3 604.6,244.5 605.8,248.9 607.0,254.2 608.2,259.8 609.4,265.1 610.5,266.0 611.7,266.0 612.9,266.0 614.1,266.0 615.3,266.0 616.5,266.0 617.7,266.0 618.9,266.0 620.0,266.0 621.2,266.0 622.4,266.0 623.6,266.0 624.8,266.0 626.0,266.0 627.2,266.0 628.3,266.0 629.5,266.0 630.7,266.0 631.9,252.5 633.1,232.9 634.3,212.4 635.5,191.0 636.7,169.8 637.8,148.4 639.0,127.7 640.2,107.8 641.4,88.3 642.6,70.9 643.8,70.3 645.0,70.3 646.1,70.3 647.3,70.3 648.5,70.3 649.7,70.3 650.9,70.3 652.1,70.3 653.3,70.3 654.5,70.3 655.6,70.3 656.8,70.3 658.0,70.3 659.2,70.3 660.4,70.3 661.6,81.2 662.8,98.1 663.9,114.0 665.1,131.4 666.3,148.0 667.5,163.5 668.7,177.9 669.9,192.6 671.1,204.1 672.3,216.6 673.4,226.9 674.6,235.4 675.8,242.9 677.0,249.0 678.2,254.2 679.4,257.7 680.6,261.3 681.7,263.1 682.9,262.7 684.1,262.2 685.3,260.0 686.5,257.2 687.7,252.4 688.9,247.8 690.1,241.8 691.2,234.8 692.4,226.8 693.6,218.3 694.8,210.8 696.0,202.1 697.2,192.7 698.4,184.2 699.5,176.6 700.7,168.7 701.9,161.4 703.1,154.9 704.3,147.6 705.5,141.1 706.7,135.1 707.9,130.6 709.0,126.4 710.2,122.3 711.4,121.5 712.6,121.0 713.8,120.9 715.0,121.6 716.2,122.9 717.3,124.1 718.5,125.6 719.7,126.6 720.9,127.8 722.1,129.8 723.3,131.2 724.5,132.3 725.7,133.3 726.8,134.0 728.0,133.8 729.2,133.4 730.4,131.8 731.6,131.4 732.8,130.6 734.0,129.5 735.1,128.3 736.3,126.4 737.5,125.4 738.7,123.8 739.9,121.6 741.1,119.7 742.3,116.8 743.5,115.2 744.6,111.5 745.8,109.2 747.0,107.3 748.2,104.5 749.4,102.6 750.6,100.4 751.8,98.4 752.9,96.0 754.1,93.4 755.3,90.3 756.5,87.3 757.7,84.7 758.9,82.3 760.1,81.4 761.3,79.8 762.4,78.0 763.6,76.0 764.8,75.4 766.0,73.1"/>
<line x1="606" y1="60" x2="628" y2="60" stroke="#24a148" stroke-width="2.2"/>
<text x="634" y="64" font-family="Arial" font-size="12">beta_deg</text>
</svg>