<svg xmlns="http://www.w3.org/2000/svg" width="820" height="320" viewBox="0 0 820 320">
<rect width="100%" height="100%" fill="#ffffff"/>
<text x="54" y="28" font-family="Arial" font-size="18" font-weight="700">Dynamic Pressure</text>
<line x1="54" y1="266" x2="766" y2="266" stroke="#1f2933"/>
<line x1="54" y1="54" x2="54" y2="266" stroke="#1f2933"/>
<text x="54" y="306" font-family="Arial" font-size="12">time (s)</text>
<text x="596" y="306" font-family="Arial" font-size="12">qbar (Pa)</text>
<text x="58" y="68" font-family="Arial" font-size="11">1.18e+04</text>
<text x="58" y="260" font-family="Arial" font-size="11">3.32e+03</text>
<polyline fill="none" stroke="#0f62fe" stroke-width="2.2" points="54.0,246.3 55.2,244.8 56.4,244.7 57.6,243.7 58.7,243.2 59.9,241.8 61.1,241.7 62.3,238.1 63.5,237.1 64.7,235.0 65.9,234.2 67.1,232.7 68.2,231.9 69.4,230.1 70.6,228.6 71.8,227.8 73.0,225.0 74.2,223.2 75.4,221.8 76.5,220.1 77.7,217.8 78.9,216.3 80.1,215.0 81.3,213.7 82.5,213.5 83.7,212.6 84.9,211.1 86.0,209.1 87.2,208.0 88.4,205.7 89.6,204.2 90.8,203.1 92.0,200.9 93.2,200.7 94.3,200.3 95.5,198.3 96.7,198.1 97.9,197.0 99.1,195.5 100.3,193.5 101.5,191.9 102.7,189.5 103.8,187.7 105.0,185.6 106.2,184.0 107.4,180.3 108.6,180.4 109.8,178.3 111.0,175.8 112.1,173.4 113.3,171.7 114.5,171.3 115.7,171.2 116.9,169.7 118.1,167.8 119.3,165.3 120.5,164.5 121.6,161.0 122.8,160.5 124.0,155.9 125.2,153.7 126.4,153.1 127.6,149.0 128.8,148.2 129.9,146.2 131.1,143.4 132.3,141.2 133.5,139.7 134.7,138.7 135.9,136.9 137.1,137.0 138.3,137.1 139.4,134.6 140.6,133.3 141.8,132.1 143.0,130.5 144.2,129.6 145.4,126.6 146.6,125.6 147.7,123.8 148.9,123.0 150.1,120.3 151.3,120.3 152.5,118.1 153.7,117.3 154.9,117.6 156.1,116.8 157.2,114.9 158.4,113.5 159.6,111.4 160.8,110.0 162.0,107.8 163.2,109.0 164.4,110.3 165.5,107.0 166.7,104.5 167.9,102.6 169.1,100.4 170.3,101.1 171.5,101.0 172.7,100.9 173.9,99.0 175.0,96.9 176.2,96.2 177.4,94.9 178.6,91.7 179.8,89.0 181.0,89.8 182.2,88.4 183.3,87.3 184.5,86.8 185.7,86.1 186.9,85.9 188.1,86.6 189.3,86.5 190.5,84.8 191.7,84.7 192.8,86.5 194.0,86.8 195.2,85.6 196.4,84.2 197.6,82.8 198.8,82.9 200.0,81.3 201.1,79.6 202.3,77.7 203.5,77.6 204.7,77.4 205.9,73.9 207.1,74.1 208.3,73.3 209.5,73.1 210.6,72.7 211.8,74.1 213.0,72.8 214.2,73.0 215.4,73.5 216.6,72.5 217.8,72.1 218.9,70.7 220.1,72.0 221.3,69.8 222.5,69.3 223.7,69.7 224.9,68.1 226.1,68.6 227.3,68.0 228.4,69.7 229.6,69.1 230.8,69.9 232.0,68.0 233.2,66.3 234.4,67.2 235.6,68.3 236.7,68.3 237.9,67.9 239.1,66.7 240.3,64.9 241.5,66.0 242.7,63.7 243.9,63.6 245.1,63.9 246.2,61.9 247.4,59.4 248.6,56.1 249.8,55.4 251.0,56.1 252.2,56.4 253.4,56.9 254.5,56.7 255.7,57.2 256.9,54.9 258.1,54.3 259.3,54.5 260.5,54.0 261.7,55.5 262.9,57.5 264.0,58.4 265.2,59.6 266.4,58.3 267.6,59.6 268.8,62.5 270.0,65.0 271.2,67.6 272.3,67.6 273.5,69.1 274.7,68.7 275.9,70.7 277.1,70.7 278.3,73.8 279.5,73.3 280.7,74.3 281.8,75.1 283.0,77.6 284.2,80.2 285.4,80.0 286.6,80.2 287.8,80.8 289.0,80.5 290.1,81.3 291.3,79.9 292.5,79.4 293.7,82.4 294.9,83.6 296.1,83.5 297.3,82.6 298.5,82.9 299.6,83.8 300.8,83.2 302.0,83.1 303.2,81.7 304.4,82.3 305.6,81.3 306.8,82.8 307.9,82.7 309.1,84.1 310.3,85.2 311.5,87.7 312.7,90.0 313.9,90.4 315.1,89.0 316.3,89.4 317.4,91.3 318.6,91.8 319.8,91.2 321.0,94.1 322.2,93.3 323.4,95.0 324.6,97.0 325.7,97.8 326.9,100.7 328.1,102.4 329.3,103.9 330.5,105.8 331.7,107.4 332.9,108.3 334.1,113.7 335.2,114.6 336.4,116.2 337.6,119.9 338.8,122.6 340.0,122.7 341.2,125.1 342.4,127.0 343.5,129.0 344.7,133.2 345.9,133.9 347.1,138.4 348.3,142.3 349.5,143.9 350.7,146.8 351.9,149.7 353.0,151.5 354.2,155.2 355.4,158.1 356.6,160.3 357.8,163.3 359.0,166.2 360.2,167.6 361.3,168.4 362.5,172.1 363.7,174.6 364.9,177.4 366.1,177.8 367.3,178.3 368.5,179.0 369.7,181.2 370.8,183.5 372.0,186.9 373.2,187.0 374.4,189.2 375.6,191.1 376.8,191.4 378.0,193.2 379.1,195.8 380.3,197.1 381.5,197.9 382.7,198.5 383.9,201.0 385.1,202.1 386.3,203.0 387.5,203.9 388.6,204.4 389.8,205.8 391.0,208.0 392.2,210.9 393.4,212.1 394.6,212.9 395.8,213.9 396.9,215.1 398.1,215.6 399.3,217.2 400.5,218.9 401.7,220.3 402.9,223.9 404.1,224.9 405.3,227.5 406.4,230.2 407.6,232.6 408.8,234.2 410.0,236.1 411.2,238.7 412.4,240.5 413.6,241.9 414.7,242.8 415.9,244.9 417.1,245.3 418.3,247.9 419.5,249.4 420.7,251.0 421.9,252.6 423.1,254.3 424.2,255.4 425.4,256.9 426.6,258.7 427.8,260.0 429.0,261.0 430.2,261.7 431.4,262.9 432.5,263.9 433.7,264.9 434.9,265.8 436.1,265.3 437.3,266.0 438.5,265.7 439.7,265.8 440.9,265.3 442.0,265.0 443.2,264.0 444.4,263.3 445.6,262.2 446.8,262.4 448.0,261.1 449.2,258.5 450.3,257.9 451.5,255.8 452.7,253.7 453.9,253.3 455.1,252.0 456.3,250.8 457.5,249.4 458.7,247.9 459.8,247.5 461.0,246.0 462.2,244.9 463.4,242.9 464.6,241.4 465.8,240.1 467.0,238.4 468.1,237.0 469.3,235.1 470.5,232.9 471.7,231.3 472.9,230.2 474.1,228.1 475.3,225.9 476.5,224.2 477.6,223.0 478.8,221.4 480.0,220.5 481.2,217.8 482.4,215.7 483.6,214.3 484.8,212.3 485.9,209.8 487.1,207.8 488.3,206.9 489.5,205.9 490.7,205.0 491.9,202.5 493.1,202.2 494.3,200.5 495.4,201.4 496.6,201.1 497.8,201.5 499.0,200.6 500.2,199.6 501.4,198.7 502.6,197.1 503.7,197.0 504.9,196.8 506.1,196.9 507.3,195.3 508.5,195.6 509.7,195.8 510.9,195.2 512.1,194.6 513.2,194.2 514.4,195.0 515.6,194.4 516.8,196.2 518.0,195.8 519.2,195.5 520.4,196.5 521.5,196.8 522.7,196.9 523.9,197.7 525.1,198.3 526.3,199.5 527.5,199.2 528.7,200.3 529.9,202.0 531.0,203.8 532.2,205.0 533.4,206.7 534.6,207.5 535.8,208.3 537.0,210.4 538.2,210.5 539.3,211.6 540.5,213.0 541.7,214.1 542.9,214.8 544.1,215.4 545.3,217.3 546.5,217.0 547.7,217.5 548.8,218.3 550.0,219.6 551.2,219.4 552.4,220.4 553.6,220.7 554.8,221.2 556.0,221.6 557.1,222.4 558.3,222.5 559.5,222.8 560.7,223.1 561.9,223.1 563.1,222.5 564.3,222.6 565.5,222.3 566.6,222.0 567.8,221.7 569.0,222.8 570.2,224.4 571.4,224.5 572.6,224.5 573.8,225.3 574.9,226.0 576.1,226.0 577.3,226.1 578.5,226.1 579.7,227.0 580.9,227.5 582.1,227.5 583.3,227.9 584.4,228.0 585.6,227.8 586.8,228.2 588.0,228.5 589.2,228.9 590.4,229.6 591.6,229.6 592.7,229.1 593.9,229.6 595.1,229.4 596.3,228.5 597.5,228.4 598.7,228.1 599.9,228.7 601.1,228.6 602.2,228.2 603.4,228.6 604.6,228.3 605.8,228.3 607.0,228.4 608.2,229.4 609.4,229.8 610.5,230.2 611.7,230.6 612.9,229.8 614.1,229.9 615.3,230.9 616.5,231.9 617.7,232.5 618.9,232.3 620.0,232.2 621.2,232.6 622.4,233.3 623.6,233.9 624.8,234.7 626.0,234.2 627.2,234.0 628.3,234.5 629.5,234.7 630.7,234.7 631.9,235.0 633.1,235.4 634.3,235.7 635.5,237.0 636.7,236.7 637.8,237.5 639.0,237.6 640.2,237.6 641.4,238.1 642.6,238.9 643.8,239.8 645.0,240.1 646.1,241.5 647.3,242.4 648.5,243.1 649.7,244.5 650.9,244.6 652.1,245.2 653.3,245.8 654.5,246.6 655.6,246.9 656.8,246.7 658.0,247.1 659.2,247.0 660.4,247.5 661.6,248.0 662.8,248.2 663.9,249.3 665.1,249.2 666.3,250.0 667.5,250.6 668.7,250.8 669.9,251.0 671.1,251.5 672.3,251.5 673.4,251.7 674.6,252.8 675.8,252.8 677.0,253.7 678.2,253.8 679.4,254.5 680.6,254.7 681.7,255.0 682.9,255.6 684.1,255.7 685.3,255.7 686.5,255.3 687.7,254.9 688.9,254.6 690.1,254.4 691.2,254.4 692.4,254.6 693.6,254.7 694.8,255.0 696.0,254.4 697.2,254.2 698.4,254.3 699.5,254.3 700.7,253.7 701.9,253.3 703.1,253.2 704.3,252.7 705.5,252.6 706.7,252.3 707.9,252.1 709.0,252.2 710.2,252.5 711.4,252.4 712.6,252.9 713.8,252.8 715.0,252.9 716.2,252.0 717.3,251.9 718.5,251.4 719.7,251.3 720.9,251.3 722.1,251.2 723.3,251.4 724.5,251.0 725.7,250.7 726.8,250.5 728.0,250.4 729.2,250.3 730.4,250.1 731.6,250.2 732.8,250.3 734.0,250.8 735.1,250.9 736.3,251.4 737.5,251.5 738.7,251.8 739.9,252.0 741.1,251.5 742.3,251.5 743.5,251.8 744.6,251.9 745.8,252.2 747.0,252.7 748.2,252.7 749.4,252.4 750.6,253.4 751.8,253.3 752.9,254.0 754.1,253.8 755.3,254.5 756.5,255.1 757.7,254.9 758.9,255.4 760.1,255.2 761.3,255.6 762.4,256.2 763.6,256.6 764.8,256.5 766.0,256.5"/>
<line x1="606" y1="42" x2="628" y2="42" stroke="#0f62fe" stroke-width="2.2"/>
<text x="634" y="46" font-family="Arial" font-size="12">qbar_pa</text>
</svg>