<svg xmlns="http://www.w3.org/2000/svg" width="820" height="320" viewBox="0 0 820 320">
<rect width="100%" height="100%" fill="#ffffff"/>
<text x="54" y="28" font-family="Arial" font-size="18" font-weight="700">Specific Energy</text>
<line x1="54" y1="266" x2="766" y2="266" stroke="#1f2933"/>
<line x1="54" y1="54" x2="54" y2="266" stroke="#1f2933"/>
<text x="54" y="306" font-family="Arial" font-size="12">time (s)</text>
<text x="596" y="306" font-family="Arial" font-size="12">J/kg</text>
<text x="58" y="68" font-family="Arial" font-size="11">2.04e+04</text>
<text x="58" y="260" font-family="Arial" font-size="11">7.19e+03</text>
<polyline fill="none" stroke="#0f62fe" stroke-width="2.2" points="54.0,167.1 55.2,166.4 56.4,165.7 57.6,165.0 58.7,164.2 59.9,163.5 61.1,162.7 62.3,162.0 63.5,161.2 64.7,160.4 65.9,159.6 67.1,158.7 68.2,157.9 69.4,157.0 70.6,156.1 71.8,155.2 73.0,154.3 74.2,153.5 75.4,152.6 76.5,151.7 77.7,150.8 78.9,149.9 80.1,149.0 81.3,148.1 82.5,147.2 83.7,146.3 84.9,145.4 86.0,144.4 87.2,143.5 88.4,142.6 89.6,141.7 90.8,140.8 92.0,139.9 93.2,138.9 94.3,138.0 95.5,137.1 96.7,136.2 97.9,135.2 99.1,134.3 100.3,133.4 101.5,132.4 102.7,131.5 103.8,130.6 105.0,129.7 106.2,128.7 107.4,127.8 108.6,126.9 109.8,126.0 111.0,125.0 112.1,124.1 113.3,123.2 114.5,122.3 115.7,121.4 116.9,120.4 118.1,119.5 119.3,118.6 120.5,117.7 121.6,116.8 122.8,115.9 124.0,115.0 125.2,114.1 126.4,113.2 127.6,112.3 128.8,111.4 129.9,110.5 131.1,109.7 132.3,108.8 133.5,107.9 134.7,107.1 135.9,106.2 137.1,105.4 138.3,104.5 139.4,103.7 140.6,102.8 141.8,102.0 143.0,101.2 144.2,100.4 145.4,99.5 146.6,98.7 147.7,97.9 148.9,97.2 150.1,96.4 151.3,95.6 152.5,94.8 153.7,94.1 154.9,93.3 156.1,92.6 157.2,91.8 158.4,91.1 159.6,90.4 160.8,89.7 162.0,89.0 163.2,88.3 164.4,87.6 165.5,86.9 166.7,86.2 167.9,85.5 169.1,84.9 170.3,84.2 171.5,83.6 172.7,82.9 173.9,82.2 175.0,81.6 176.2,80.9 177.4,80.3 178.6,79.7 179.8,79.0 181.0,78.4 182.2,77.8 183.3,77.2 184.5,76.6 185.7,75.9 186.9,75.3 188.1,74.7 189.3,74.1 190.5,73.5 191.7,73.0 192.8,72.4 194.0,71.9 195.2,71.3 196.4,70.8 197.6,70.3 198.8,69.8 200.0,69.3 201.1,68.8 202.3,68.4 203.5,67.9 204.7,67.4 205.9,66.9 207.1,66.4 208.3,66.0 209.5,65.5 210.6,65.0 211.8,64.6 213.0,64.1 214.2,63.6 215.4,63.2 216.6,62.7 217.8,62.3 218.9,61.8 220.1,61.4 221.3,61.0 222.5,60.7 223.7,60.3 224.9,60.0 226.1,59.7 227.3,59.4 228.4,59.1 229.6,58.8 230.8,58.5 232.0,58.3 233.2,58.0 234.4,57.7 235.6,57.5 236.7,57.2 237.9,56.9 239.1,56.6 240.3,56.2 241.5,55.9 242.7,55.6 243.9,55.3 245.1,55.1 246.2,54.8 247.4,54.6 248.6,54.4 249.8,54.3 251.0,54.2 252.2,54.1 253.4,54.0 254.5,54.0 255.7,54.0 256.9,54.0 258.1,54.1 259.3,54.3 260.5,54.4 261.7,54.6 262.9,54.9 264.0,55.1 265.2,55.3 266.4,55.6 267.6,55.9 268.8,56.2 270.0,56.5 271.2,56.7 272.3,57.0 273.5,57.3 274.7,57.5 275.9,57.8 277.1,58.0 278.3,58.3 279.5,58.5 280.7,58.7 281.8,59.0 283.0,59.2 284.2,59.5 285.4,59.7 286.6,60.0 287.8,60.3 289.0,60.5 290.1,60.8 291.3,61.1 292.5,61.5 293.7,61.8 294.9,62.1 296.1,62.5 297.3,62.8 298.5,63.2 299.6,63.6 300.8,63.9 302.0,64.3 303.2,64.7 304.4,65.1 305.6,65.6 306.8,66.0 307.9,66.5 309.1,67.0 310.3,67.5 311.5,68.0 312.7,68.5 313.9,69.1 315.1,69.6 316.3,70.3 317.4,70.9 318.6,71.5 319.8,72.2 321.0,73.0 322.2,73.7 323.4,74.5 324.6,75.3 325.7,76.2 326.9,77.0 328.1,77.9 329.3,78.8 330.5,79.7 331.7,80.7 332.9,81.6 334.1,82.7 335.2,83.7 336.4,84.7 337.6,85.8 338.8,86.9 340.0,88.0 341.2,89.1 342.4,90.3 343.5,91.5 344.7,92.7 345.9,93.9 347.1,95.1 348.3,96.4 349.5,97.6 350.7,98.9 351.9,100.2 353.0,101.4 354.2,102.8 355.4,104.1 356.6,105.4 357.8,106.7 359.0,108.1 360.2,109.4 361.3,110.8 362.5,112.1 363.7,113.5 364.9,114.9 366.1,116.3 367.3,117.7 368.5,119.1 369.7,120.5 370.8,121.9 372.0,123.3 373.2,124.7 374.4,126.1 375.6,127.6 376.8,129.0 378.0,130.4 379.1,131.8 380.3,133.2 381.5,134.6 382.7,136.0 383.9,137.4 385.1,138.8 386.3,140.1 387.5,141.4 388.6,142.7 389.8,144.0 391.0,145.3 392.2,146.6 393.4,147.9 394.6,149.1 395.8,150.3 396.9,151.5 398.1,152.7 399.3,153.9 400.5,155.0 401.7,156.2 402.9,157.3 404.1,158.4 405.3,159.5 406.4,160.5 407.6,161.6 408.8,162.6 410.0,163.6 411.2,164.6 412.4,165.6 413.6,166.6 414.7,167.6 415.9,168.6 417.1,169.5 418.3,170.4 419.5,171.3 420.7,172.2 421.9,173.0 423.1,173.7 424.2,174.4 425.4,175.1 426.6,175.7 427.8,176.2 429.0,176.6 430.2,177.0 431.4,177.3 432.5,177.5 433.7,177.6 434.9,177.6 436.1,177.5 437.3,177.2 438.5,176.9 439.7,176.5 440.9,176.1 442.0,175.6 443.2,175.0 444.4,174.4 445.6,173.8 446.8,173.0 448.0,172.3 449.2,171.5 450.3,170.8 451.5,170.1 452.7,169.4 453.9,168.9 455.1,168.4 456.3,168.0 457.5,167.6 458.7,167.2 459.8,166.8 461.0,166.3 462.2,165.7 463.4,165.1 464.6,164.3 465.8,163.5 467.0,162.8 468.1,162.0 469.3,161.4 470.5,160.7 471.7,160.1 472.9,159.6 474.1,159.1 475.3,158.6 476.5,158.1 477.6,157.7 478.8,157.2 480.0,156.8 481.2,156.5 482.4,156.1 483.6,155.8 484.8,155.5 485.9,155.2 487.1,155.0 488.3,154.8 489.5,154.7 490.7,154.6 491.9,154.5 493.1,154.5 494.3,154.5 495.4,154.5 496.6,154.6 497.8,154.7 499.0,154.8 500.2,154.9 501.4,155.0 502.6,155.2 503.7,155.4 504.9,155.6 506.1,155.8 507.3,156.0 508.5,156.3 509.7,156.6 510.9,156.9 512.1,157.3 513.2,157.6 514.4,158.0 515.6,158.4 516.8,158.8 518.0,159.2 519.2,159.7 520.4,160.2 521.5,160.7 522.7,161.2 523.9,161.7 525.1,162.2 526.3,162.8 527.5,163.3 528.7,163.9 529.9,164.5 531.0,165.1 532.2,165.7 533.4,166.3 534.6,167.0 535.8,167.6 537.0,168.2 538.2,168.8 539.3,169.4 540.5,170.1 541.7,170.7 542.9,171.3 544.1,171.9 545.3,172.4 546.5,173.0 547.7,173.6 548.8,174.2 550.0,174.7 551.2,175.2 552.4,175.7 553.6,176.2 554.8,176.7 556.0,177.1 557.1,177.6 558.3,178.0 559.5,178.4 560.7,178.8 561.9,179.1 563.1,179.5 564.3,179.9 565.5,180.2 566.6,180.6 567.8,181.0 569.0,181.3 570.2,182.0 571.4,182.7 572.6,183.4 573.8,184.1 574.9,184.8 576.1,185.4 577.3,186.1 578.5,186.8 579.7,187.4 580.9,188.1 582.1,188.7 583.3,189.4 584.4,190.0 585.6,190.7 586.8,191.3 588.0,192.0 589.2,192.6 590.4,193.2 591.6,193.9 592.7,194.5 593.9,195.1 595.1,195.8 596.3,196.4 597.5,197.0 598.7,197.7 599.9,198.3 601.1,198.9 602.2,199.6 603.4,200.2 604.6,200.9 605.8,201.5 607.0,202.2 608.2,202.8 609.4,203.5 610.5,204.2 611.7,204.8 612.9,205.5 614.1,206.1 615.3,206.8 616.5,207.4 617.7,208.1 618.9,208.7 620.0,209.4 621.2,210.0 622.4,210.6 623.6,211.2 624.8,211.9 626.0,212.5 627.2,213.1 628.3,213.7 629.5,214.2 630.7,214.8 631.9,215.4 633.1,215.9 634.3,216.4 635.5,216.9 636.7,217.4 637.8,217.9 639.0,218.4 640.2,219.0 641.4,219.5 642.6,220.1 643.8,220.8 645.0,221.4 646.1,222.0 647.3,222.6 648.5,223.3 649.7,223.8 650.9,224.4 652.1,225.0 653.3,225.5 654.5,226.0 655.6,226.5 656.8,227.0 658.0,227.5 659.2,227.9 660.4,228.4 661.6,228.8 662.8,229.2 663.9,229.5 665.1,229.9 666.3,230.2 667.5,230.6 668.7,230.9 669.9,231.3 671.1,231.6 672.3,232.0 673.4,232.4 674.6,232.8 675.8,233.2 677.0,233.7 678.2,234.1 679.4,234.6 680.6,235.0 681.7,235.5 682.9,235.9 684.1,236.4 685.3,236.8 686.5,237.3 687.7,237.7 688.9,238.1 690.1,238.6 691.2,239.0 692.4,239.4 693.6,239.8 694.8,240.2 696.0,240.6 697.2,241.0 698.4,241.4 699.5,241.8 700.7,242.2 701.9,242.6 703.1,243.0 704.3,243.4 705.5,243.9 706.7,244.3 707.9,244.7 709.0,245.2 710.2,245.6 711.4,246.0 712.6,246.5 713.8,246.9 715.0,247.4 716.2,247.8 717.3,248.2 718.5,248.7 719.7,249.1 720.9,249.5 722.1,250.0 723.3,250.4 724.5,250.8 725.7,251.3 726.8,251.7 728.0,252.1 729.2,252.5 730.4,253.0 731.6,253.4 732.8,253.8 734.0,254.3 735.1,254.7 736.3,255.1 737.5,255.6 738.7,256.0 739.9,256.4 741.1,256.8 742.3,257.3 743.5,257.7 744.6,258.1 745.8,258.6 747.0,259.0 748.2,259.4 749.4,259.9 750.6,260.3 751.8,260.8 752.9,261.2 754.1,261.6 755.3,262.1 756.5,262.5 757.7,262.9 758.9,263.4 760.1,263.8 761.3,264.2 762.4,264.7 763.6,265.1 764.8,265.6 766.0,266.0"/>
<line x1="606" y1="42" x2="628" y2="42" stroke="#0f62fe" stroke-width="2.2"/>
<text x="634" y="46" font-family="Arial" font-size="12">energy_j_per_kg</text>
</svg>