<svg xmlns="http://www.w3.org/2000/svg" width="820" height="320" viewBox="0 0 820 320">
<rect width="100%" height="100%" fill="#ffffff"/>
<text x="54" y="28" font-family="Arial" font-size="18" font-weight="700">Altitude</text>
<line x1="54" y1="266" x2="766" y2="266" stroke="#1f2933"/>
<line x1="54" y1="54" x2="54" y2="266" stroke="#1f2933"/>
<text x="54" y="306" font-family="Arial" font-size="12">time (s)</text>
<text x="596" y="306" font-family="Arial" font-size="12">altitude (m)</text>
<text x="58" y="68" font-family="Arial" font-size="11">116</text>
<text x="58" y="260" font-family="Arial" font-size="11">-1.61</text>
<polyline fill="none" stroke="#0f62fe" stroke-width="2.2" points="54.0,227.0 55.8,226.6 57.6,226.2 59.4,225.8 61.2,225.4 62.9,225.0 64.7,224.6 66.5,224.3 68.3,223.9 70.1,223.6 71.9,223.2 73.7,222.9 75.5,222.6 77.3,222.3 79.0,222.0 80.8,221.7 82.6,221.4 84.4,221.1 86.2,220.8 88.0,220.5 89.8,220.3 91.6,220.0 93.4,219.7 95.1,219.5 96.9,219.2 98.7,219.0 100.5,218.8 102.3,218.5 104.1,218.3 105.9,218.1 107.7,217.8 109.5,217.6 111.2,217.4 113.0,217.2 114.8,217.0 116.6,216.8 118.4,216.6 120.2,216.4 122.0,216.2 123.8,216.0 125.6,215.9 127.3,215.7 129.1,215.5 130.9,215.3 132.7,215.2 134.5,215.0 136.3,214.8 138.1,214.7 139.9,214.5 141.7,214.4 143.4,214.2 145.2,214.1 147.0,213.9 148.8,213.8 150.6,213.6 152.4,213.5 154.2,213.4 156.0,213.2 157.8,213.1 159.5,213.0 161.3,212.8 163.1,212.7 164.9,212.6 166.7,212.4 168.5,212.3 170.3,212.2 172.1,212.1 173.9,212.0 175.6,211.8 177.4,211.7 179.2,211.6 181.0,211.5 182.8,211.4 184.6,211.2 186.4,211.1 188.2,211.0 190.0,210.9 191.7,210.8 193.5,210.7 195.3,210.5 197.1,210.4 198.9,210.3 200.7,210.2 202.5,210.1 204.3,209.9 206.1,209.8 207.8,209.7 209.6,209.6 211.4,209.5 213.2,209.3 215.0,209.2 216.8,209.1 218.6,209.0 220.4,208.8 222.2,208.7 223.9,208.6 225.7,208.4 227.5,208.3 229.3,208.2 231.1,208.0 232.9,207.9 234.7,207.7 236.5,207.6 238.3,207.4 240.1,207.3 241.8,207.1 243.6,207.0 245.4,206.8 247.2,206.6 249.0,206.5 250.8,206.3 252.6,206.1 254.4,205.9 256.2,205.7 257.9,205.5 259.7,205.3 261.5,205.1 263.3,204.9 265.1,204.7 266.9,204.5 268.7,204.3 270.5,204.0 272.3,203.8 274.0,203.6 275.8,203.3 277.6,203.1 279.4,202.8 281.2,202.6 283.0,202.3 284.8,202.0 286.6,201.7 288.4,201.5 290.1,201.2 291.9,200.9 293.7,200.6 295.5,200.3 297.3,199.9 299.1,199.6 300.9,199.3 302.7,199.0 304.5,198.6 306.2,198.3 308.0,197.9 309.8,197.5 311.6,197.2 313.4,196.8 315.2,196.4 317.0,196.0 318.8,195.6 320.6,195.2 322.3,194.8 324.1,194.3 325.9,193.9 327.7,193.5 329.5,193.0 331.3,192.5 333.1,192.1 334.9,191.6 336.7,191.1 338.4,190.6 340.2,190.1 342.0,189.6 343.8,189.1 345.6,188.5 347.4,188.0 349.2,187.4 351.0,186.8 352.8,186.3 354.5,185.7 356.3,185.1 358.1,184.5 359.9,183.8 361.7,183.2 363.5,182.6 365.3,181.9 367.1,181.2 368.9,180.6 370.6,179.9 372.4,179.2 374.2,178.5 376.0,177.7 377.8,177.0 379.6,176.2 381.4,175.5 383.2,174.7 385.0,173.9 386.7,173.1 388.5,172.3 390.3,171.5 392.1,170.6 393.9,169.8 395.7,168.9 397.5,168.0 399.3,167.1 401.1,166.2 402.8,165.3 404.6,164.4 406.4,163.4 408.2,162.5 410.0,161.5 411.8,160.5 413.6,159.5 415.4,158.5 417.2,157.5 418.9,156.4 420.7,155.4 422.5,154.3 424.3,153.2 426.1,152.1 427.9,151.0 429.7,149.9 431.5,148.8 433.3,147.7 435.0,146.5 436.8,145.4 438.6,144.2 440.4,143.0 442.2,141.8 444.0,140.7 445.8,139.5 447.6,138.2 449.4,137.0 451.1,135.8 452.9,134.6 454.7,133.3 456.5,132.1 458.3,130.8 460.1,129.6 461.9,128.3 463.7,127.1 465.5,125.8 467.2,124.5 469.0,123.2 470.8,121.9 472.6,120.6 474.4,119.2 476.2,117.9 478.0,116.6 479.8,115.2 481.6,113.9 483.3,112.5 485.1,111.1 486.9,109.8 488.7,108.4 490.5,107.0 492.3,105.6 494.1,104.2 495.9,102.8 497.7,101.4 499.4,100.0 501.2,98.6 503.0,97.2 504.8,95.8 506.6,94.4 508.4,93.0 510.2,91.6 512.0,90.2 513.8,88.8 515.5,87.4 517.3,86.1 519.1,84.7 520.9,83.4 522.7,82.1 524.5,80.7 526.3,79.5 528.1,78.2 529.9,76.9 531.6,75.7 533.4,74.5 535.2,73.3 537.0,72.1 538.8,71.0 540.6,69.9 542.4,68.8 544.2,67.7 546.0,66.7 547.7,65.8 549.5,64.8 551.3,63.9 553.1,63.0 554.9,62.2 556.7,61.4 558.5,60.6 560.3,59.9 562.1,59.2 563.8,58.6 565.6,58.0 567.4,57.4 569.2,56.9 571.0,56.4 572.8,56.0 574.6,55.6 576.4,55.2 578.2,54.9 579.9,54.6 581.7,54.4 583.5,54.2 585.3,54.1 587.1,54.0 588.9,54.0 590.7,54.0 592.5,54.1 594.3,54.2 596.1,54.3 597.8,54.5 599.6,54.8 601.4,55.1 603.2,55.5 605.0,55.9 606.8,56.3 608.6,56.8 610.4,57.4 612.2,58.0 613.9,58.7 615.7,59.4 617.5,60.2 619.3,61.0 621.1,61.8 622.9,62.8 624.7,63.7 626.5,64.8 628.3,65.8 630.0,66.9 631.8,68.1 633.6,69.3 635.4,70.6 637.2,71.9 639.0,73.2 640.8,74.6 642.6,76.1 644.4,77.5 646.1,79.0 647.9,80.6 649.7,82.2 651.5,83.8 653.3,85.4 655.1,87.1 656.9,88.8 658.7,90.5 660.5,92.3 662.2,94.1 664.0,95.9 665.8,97.8 667.6,99.7 669.4,101.6 671.2,103.7 673.0,105.7 674.8,107.8 676.6,109.9 678.3,112.1 680.1,114.4 681.9,116.7 683.7,119.0 685.5,121.4 687.3,123.8 689.1,126.3 690.9,128.8 692.7,131.4 694.4,134.0 696.2,136.6 698.0,139.3 699.8,142.1 701.6,144.9 703.4,147.7 705.2,150.6 707.0,153.5 708.8,156.5 710.5,159.5 712.3,162.5 714.1,165.6 715.9,168.7 717.7,171.8 719.5,175.0 721.3,178.2 723.1,181.5 724.9,184.7 726.6,188.0 728.4,191.3 730.2,194.7 732.0,198.1 733.8,201.5 735.6,204.9 737.4,208.4 739.2,211.8 741.0,215.3 742.7,218.9 744.5,222.4 746.3,226.0 748.1,229.5 749.9,233.1 751.7,236.7 753.5,240.3 755.3,244.0 757.1,247.6 758.8,251.3 760.6,254.9 762.4,258.6 764.2,262.3 766.0,266.0"/>
<line x1="606" y1="42" x2="628" y2="42" stroke="#0f62fe" stroke-width="2.2"/>
<text x="634" y="46" font-family="Arial" font-size="12">altitude_m</text>
</svg>