<svg xmlns="http://www.w3.org/2000/svg" width="820" height="320" viewBox="0 0 820 320">
<rect width="100%" height="100%" fill="#ffffff"/>
<text x="54" y="28" font-family="Arial" font-size="18" font-weight="700">Velocity X</text>
<line x1="54" y1="266" x2="766" y2="266" stroke="#1f2933"/>
<line x1="54" y1="54" x2="54" y2="266" stroke="#1f2933"/>
<text x="54" y="306" font-family="Arial" font-size="12">time (s)</text>
<text x="596" y="306" font-family="Arial" font-size="12">vx (m/s)</text>
<text x="58" y="68" font-family="Arial" font-size="11">198</text>
<text x="58" y="260" font-family="Arial" font-size="11">74.1</text>
<polyline fill="none" stroke="#0f62fe" stroke-width="2.2" points="54.0,247.4 55.8,246.5 57.6,245.6 59.4,244.7 61.2,243.8 62.9,242.9 64.7,242.0 66.5,241.0 68.3,240.1 70.1,239.1 71.9,238.1 73.7,237.1 75.5,236.1 77.3,235.1 79.0,234.1 80.8,233.0 82.6,232.0 84.4,230.9 86.2,229.9 88.0,228.9 89.8,227.8 91.6,226.8 93.4,225.8 95.1,224.7 96.9,223.7 98.7,222.7 100.5,221.7 102.3,220.7 104.1,219.6 105.9,218.6 107.7,217.6 109.5,216.6 111.2,215.6 113.0,214.6 114.8,213.6 116.6,212.5 118.4,211.5 120.2,210.5 122.0,209.5 123.8,208.5 125.6,207.5 127.3,206.5 129.1,205.5 130.9,204.5 132.7,203.5 134.5,202.5 136.3,201.5 138.1,200.6 139.9,199.6 141.7,198.6 143.4,197.6 145.2,196.6 147.0,195.6 148.8,194.6 150.6,193.7 152.4,192.7 154.2,191.7 156.0,190.7 157.8,189.7 159.5,188.8 161.3,187.8 163.1,186.8 164.9,185.9 166.7,184.9 168.5,183.9 170.3,182.9 172.1,182.0 173.9,181.0 175.6,180.1 177.4,179.1 179.2,178.1 181.0,177.2 182.8,176.2 184.6,175.3 186.4,174.3 188.2,173.4 190.0,172.4 191.7,171.5 193.5,170.5 195.3,169.6 197.1,168.6 198.9,167.7 200.7,166.8 202.5,165.8 204.3,164.9 206.1,164.0 207.8,163.0 209.6,162.1 211.4,161.2 213.2,160.2 215.0,159.3 216.8,158.4 218.6,157.5 220.4,156.5 222.2,155.6 223.9,154.7 225.7,153.8 227.5,152.9 229.3,152.0 231.1,151.1 232.9,150.2 234.7,149.3 236.5,148.4 238.3,147.5 240.1,146.6 241.8,145.7 243.6,144.8 245.4,143.9 247.2,143.0 249.0,142.1 250.8,141.2 252.6,140.4 254.4,139.5 256.2,138.6 257.9,137.7 259.7,136.9 261.5,136.0 263.3,135.1 265.1,134.3 266.9,133.4 268.7,132.5 270.5,131.7 272.3,130.8 274.0,130.0 275.8,129.1 277.6,128.3 279.4,127.4 281.2,126.6 283.0,125.7 284.8,124.9 286.6,124.1 288.4,123.2 290.1,122.4 291.9,121.5 293.7,120.7 295.5,119.9 297.3,119.0 299.1,118.2 300.9,117.4 302.7,116.5 304.5,115.7 306.2,114.9 308.0,114.1 309.8,113.3 311.6,112.5 313.4,111.7 315.2,110.9 317.0,110.1 318.8,109.3 320.6,108.5 322.3,107.7 324.1,106.9 325.9,106.1 327.7,105.3 329.5,104.5 331.3,103.7 333.1,103.0 334.9,102.2 336.7,101.4 338.4,100.6 340.2,99.9 342.0,99.1 343.8,98.4 345.6,97.6 347.4,96.9 349.2,96.1 351.0,95.3 352.8,94.6 354.5,93.9 356.3,93.1 358.1,92.4 359.9,91.6 361.7,90.9 363.5,90.2 365.3,89.5 367.1,88.7 368.9,88.0 370.6,87.3 372.4,86.6 374.2,85.9 376.0,85.2 377.8,84.5 379.6,83.8 381.4,83.1 383.2,82.4 385.0,81.7 386.7,81.0 388.5,80.3 390.3,79.6 392.1,78.9 393.9,78.3 395.7,77.6 397.5,77.0 399.3,76.3 401.1,75.6 402.8,74.9 404.6,74.3 406.4,73.6 408.2,73.0 410.0,72.3 411.8,71.7 413.6,71.1 415.4,70.4 417.2,69.8 418.9,69.2 420.7,68.5 422.5,67.9 424.3,67.3 426.1,66.7 427.9,66.1 429.7,65.5 431.5,64.9 433.3,64.3 435.0,63.7 436.8,63.1 438.6,62.5 440.4,62.0 442.2,61.4 444.0,60.9 445.8,60.3 447.6,59.8 449.4,59.2 451.1,58.7 452.9,58.1 454.7,57.6 456.5,57.1 458.3,56.6 460.1,56.1 461.9,55.8 463.7,55.4 465.5,55.1 467.2,54.8 469.0,54.6 470.8,54.4 472.6,54.3 474.4,54.2 476.2,54.1 478.0,54.0 479.8,54.0 481.6,54.0 483.3,54.1 485.1,54.2 486.9,54.4 488.7,54.6 490.5,54.9 492.3,55.1 494.1,55.4 495.9,55.6 497.7,56.1 499.4,56.5 501.2,57.0 503.0,57.5 504.8,58.2 506.6,58.8 508.4,59.5 510.2,60.2 512.0,61.1 513.8,61.9 515.5,62.9 517.3,63.9 519.1,65.0 520.9,66.2 522.7,67.5 524.5,68.8 526.3,70.3 528.1,71.8 529.9,73.5 531.6,75.3 533.4,77.1 535.2,79.1 537.0,81.2 538.8,83.5 540.6,85.8 542.4,88.2 544.2,90.7 546.0,93.1 547.7,95.5 549.5,97.9 551.3,100.3 553.1,102.6 554.9,105.0 556.7,107.3 558.5,109.6 560.3,111.8 562.1,114.1 563.8,116.3 565.6,118.6 567.4,120.9 569.2,123.2 571.0,125.6 572.8,127.9 574.6,130.2 576.4,132.6 578.2,135.0 579.9,137.3 581.7,139.7 583.5,142.0 585.3,144.4 587.1,146.8 588.9,149.1 590.7,151.5 592.5,153.8 594.3,156.1 596.1,158.4 597.8,160.7 599.6,163.0 601.4,165.3 603.2,167.5 605.0,169.7 606.8,171.9 608.6,174.1 610.4,176.2 612.2,178.3 613.9,180.4 615.7,182.4 617.5,184.4 619.3,186.4 621.1,188.3 622.9,190.1 624.7,191.9 626.5,193.7 628.3,195.4 630.0,197.0 631.8,198.5 633.6,199.9 635.4,201.3 637.2,202.6 639.0,203.7 640.8,204.7 642.6,205.6 644.4,206.2 646.1,206.7 647.9,207.0 649.7,207.2 651.5,207.2 653.3,207.1 655.1,206.9 656.9,206.7 658.7,206.5 660.5,206.2 662.2,206.0 664.0,205.9 665.8,205.9 667.6,206.0 669.4,206.2 671.2,206.5 673.0,206.8 674.8,207.2 676.6,207.6 678.3,208.1 680.1,208.7 681.9,209.3 683.7,209.9 685.5,210.6 687.3,211.4 689.1,212.3 690.9,213.2 692.7,214.2 694.4,215.2 696.2,216.3 698.0,217.5 699.8,218.7 701.6,220.0 703.4,221.3 705.2,222.7 707.0,224.1 708.8,225.6 710.5,227.2 712.3,228.7 714.1,230.4 715.9,232.0 717.7,233.7 719.5,235.3 721.3,237.0 723.1,238.7 724.9,240.3 726.6,241.9 728.4,243.5 730.2,245.1 732.0,246.6 733.8,248.0 735.6,249.4 737.4,250.6 739.2,251.8 741.0,253.0 742.7,254.0 744.5,255.0 746.3,255.9 748.1,256.7 749.9,257.6 751.7,258.4 753.5,259.2 755.3,260.0 757.1,260.9 758.8,261.8 760.6,262.7 762.4,263.8 764.2,264.9 766.0,266.0"/>
<line x1="606" y1="42" x2="628" y2="42" stroke="#0f62fe" stroke-width="2.2"/>
<text x="634" y="46" font-family="Arial" font-size="12">vx_mps</text>
</svg>