<svg xmlns="http://www.w3.org/2000/svg" width="820" height="320" viewBox="0 0 820 320">
<rect width="100%" height="100%" fill="#ffffff"/>
<text x="54" y="28" font-family="Arial" font-size="18" font-weight="700">Velocity Y</text>
<line x1="54" y1="266" x2="766" y2="266" stroke="#1f2933"/>
<line x1="54" y1="54" x2="54" y2="266" stroke="#1f2933"/>
<text x="54" y="306" font-family="Arial" font-size="12">time (s)</text>
<text x="596" y="306" font-family="Arial" font-size="12">vy (m/s)</text>
<text x="58" y="68" font-family="Arial" font-size="11">88.3</text>
<text x="58" y="260" font-family="Arial" font-size="11">-0.0543</text>
<polyline fill="none" stroke="#0f62fe" stroke-width="2.2" points="54.0,265.9 55.8,265.9 57.6,265.9 59.4,265.9 61.2,265.9 62.9,265.9 64.7,265.9 66.5,265.9 68.3,265.9 70.1,265.9 71.9,265.9 73.7,265.9 75.5,265.9 77.3,265.9 79.0,265.9 80.8,265.9 82.6,265.9 84.4,265.9 86.2,265.9 88.0,265.9 89.8,265.9 91.6,265.9 93.4,265.9 95.1,265.9 96.9,265.9 98.7,265.9 100.5,265.9 102.3,265.9 104.1,265.9 105.9,265.9 107.7,265.9 109.5,265.9 111.2,265.9 113.0,265.9 114.8,266.0 116.6,266.0 118.4,266.0 120.2,266.0 122.0,266.0 123.8,266.0 125.6,266.0 127.3,266.0 129.1,266.0 130.9,266.0 132.7,266.0 134.5,266.0 136.3,266.0 138.1,266.0 139.9,266.0 141.7,266.0 143.4,266.0 145.2,266.0 147.0,266.0 148.8,266.0 150.6,266.0 152.4,266.0 154.2,266.0 156.0,266.0 157.8,266.0 159.5,266.0 161.3,266.0 163.1,266.0 164.9,266.0 166.7,266.0 168.5,266.0 170.3,266.0 172.1,266.0 173.9,266.0 175.6,266.0 177.4,266.0 179.2,266.0 181.0,266.0 182.8,266.0 184.6,266.0 186.4,266.0 188.2,266.0 190.0,266.0 191.7,266.0 193.5,266.0 195.3,266.0 197.1,266.0 198.9,266.0 200.7,266.0 202.5,266.0 204.3,266.0 206.1,266.0 207.8,266.0 209.6,266.0 211.4,266.0 213.2,266.0 215.0,266.0 216.8,266.0 218.6,266.0 220.4,266.0 222.2,266.0 223.9,266.0 225.7,266.0 227.5,266.0 229.3,266.0 231.1,266.0 232.9,266.0 234.7,266.0 236.5,266.0 238.3,266.0 240.1,266.0 241.8,266.0 243.6,266.0 245.4,266.0 247.2,266.0 249.0,266.0 250.8,266.0 252.6,266.0 254.4,266.0 256.2,266.0 257.9,266.0 259.7,266.0 261.5,266.0 263.3,266.0 265.1,266.0 266.9,266.0 268.7,266.0 270.5,266.0 272.3,265.9 274.0,265.9 275.8,265.9 277.6,265.9 279.4,265.9 281.2,265.9 283.0,265.9 284.8,265.9 286.6,265.9 288.4,265.9 290.1,265.9 291.9,265.9 293.7,265.9 295.5,265.9 297.3,265.9 299.1,265.9 300.9,265.9 302.7,265.9 304.5,265.9 306.2,265.8 308.0,265.8 309.8,265.8 311.6,265.8 313.4,265.8 315.2,265.8 317.0,265.8 318.8,265.8 320.6,265.8 322.3,265.7 324.1,265.7 325.9,265.7 327.7,265.7 329.5,265.7 331.3,265.7 333.1,265.6 334.9,265.6 336.7,265.6 338.4,265.6 340.2,265.5 342.0,265.5 343.8,265.5 345.6,265.4 347.4,265.4 349.2,265.4 351.0,265.3 352.8,265.3 354.5,265.2 356.3,265.2 358.1,265.1 359.9,265.1 361.7,265.0 363.5,264.9 365.3,264.9 367.1,264.8 368.9,264.7 370.6,264.6 372.4,264.5 374.2,264.4 376.0,264.3 377.8,264.2 379.6,264.1 381.4,264.0 383.2,263.8 385.0,263.7 386.7,263.5 388.5,263.3 390.3,263.1 392.1,263.0 393.9,262.7 395.7,262.5 397.5,262.2 399.3,262.0 401.1,261.7 402.8,261.4 404.6,261.1 406.4,260.7 408.2,260.3 410.0,260.0 411.8,259.5 413.6,259.1 415.4,258.5 417.2,258.0 418.9,257.4 420.7,256.9 422.5,256.2 424.3,255.6 426.1,254.8 427.9,254.1 429.7,253.3 431.5,252.5 433.3,251.6 435.0,250.8 436.8,249.8 438.6,248.9 440.4,247.8 442.2,246.9 444.0,245.7 445.8,244.7 447.6,243.4 449.4,242.3 451.1,241.0 452.9,239.8 454.7,238.4 456.5,237.2 458.3,235.7 460.1,234.3 461.9,232.6 463.7,230.9 465.5,228.9 467.2,226.9 469.0,224.8 470.8,222.6 472.6,220.2 474.4,217.9 476.2,215.4 478.0,213.0 479.8,210.4 481.6,207.9 483.3,205.0 485.1,202.3 486.9,199.3 488.7,196.4 490.5,193.2 492.3,190.3 494.1,187.2 495.9,184.1 497.7,180.7 499.4,177.5 501.2,174.1 503.0,170.8 504.8,167.3 506.6,163.9 508.4,160.4 510.2,157.0 512.0,153.5 513.8,150.0 515.5,146.4 517.3,142.9 519.1,139.3 520.9,135.8 522.7,132.2 524.5,128.6 526.3,125.0 528.1,121.4 529.9,117.8 531.6,114.2 533.4,110.6 535.2,107.1 537.0,103.5 538.8,100.0 540.6,96.6 542.4,93.3 544.2,90.2 546.0,87.2 547.7,84.4 549.5,81.7 551.3,79.3 553.1,77.0 554.9,75.0 556.7,73.0 558.5,71.3 560.3,69.7 562.1,68.3 563.8,66.9 565.6,65.6 567.4,64.3 569.2,63.1 571.0,62.0 572.8,60.9 574.6,60.0 576.4,59.0 578.2,58.2 579.9,57.4 581.7,56.7 583.5,56.1 585.3,55.6 587.1,55.1 588.9,54.7 590.7,54.4 592.5,54.2 594.3,54.1 596.1,54.0 597.8,54.0 599.6,54.1 601.4,54.3 603.2,54.6 605.0,55.0 606.8,55.4 608.6,56.0 610.4,56.6 612.2,57.4 613.9,58.2 615.7,59.1 617.5,60.2 619.3,61.3 621.1,62.5 622.9,63.8 624.7,65.3 626.5,66.8 628.3,68.5 630.0,70.3 631.8,72.2 633.6,74.2 635.4,76.3 637.2,78.5 639.0,80.7 640.8,83.0 642.6,85.4 644.4,87.8 646.1,90.2 647.9,92.6 649.7,94.9 651.5,97.2 653.3,99.3 655.1,101.4 656.9,103.3 658.7,105.2 660.5,107.0 662.2,108.8 664.0,110.5 665.8,112.3 667.6,114.1 669.4,115.7 671.2,117.4 673.0,119.0 674.8,120.7 676.6,122.3 678.3,123.9 680.1,125.6 681.9,127.2 683.7,128.7 685.5,130.3 687.3,131.8 689.1,133.2 690.9,134.6 692.7,136.0 694.4,137.2 696.2,138.4 698.0,139.6 699.8,140.7 701.6,141.7 703.4,142.6 705.2,143.5 707.0,144.2 708.8,144.9 710.5,145.4 712.3,145.9 714.1,146.3 715.9,146.7 717.7,147.2 719.5,147.7 721.3,148.3 723.1,149.0 724.9,149.7 726.6,150.6 728.4,151.6 730.2,152.8 732.0,154.1 733.8,155.5 735.6,157.0 737.4,158.7 739.2,160.4 741.0,162.3 742.7,164.2 744.5,166.2 746.3,168.2 748.1,170.3 749.9,172.3 751.7,174.4 753.5,176.5 755.3,178.5 757.1,180.6 758.8,182.5 760.6,184.5 762.4,186.4 764.2,188.2 766.0,190.0"/>
<line x1="606" y1="42" x2="628" y2="42" stroke="#0f62fe" stroke-width="2.2"/>
<text x="634" y="46" font-family="Arial" font-size="12">vy_mps</text>
</svg>