<svg xmlns="http://www.w3.org/2000/svg" width="820" height="320" viewBox="0 0 820 320">
<rect width="100%" height="100%" fill="#ffffff"/>
<text x="54" y="28" font-family="Arial" font-size="18" font-weight="700">Velocity Z</text>
<line x1="54" y1="266" x2="766" y2="266" stroke="#1f2933"/>
<line x1="54" y1="54" x2="54" y2="266" stroke="#1f2933"/>
<text x="54" y="306" font-family="Arial" font-size="12">time (s)</text>
<text x="596" y="306" font-family="Arial" font-size="12">vz (m/s)</text>
<text x="58" y="68" font-family="Arial" font-size="11">26</text>
<text x="58" y="260" font-family="Arial" font-size="11">-68.4</text>
<polyline fill="none" stroke="#0f62fe" stroke-width="2.2" points="54.0,94.3 55.8,94.9 57.6,95.3 59.4,95.8 61.2,96.2 62.9,96.6 64.7,97.0 66.5,97.4 68.3,97.7 70.1,98.1 71.9,98.4 73.7,98.7 75.5,99.0 77.3,99.3 79.0,99.6 80.8,99.9 82.6,100.1 84.4,100.4 86.2,100.6 88.0,100.9 89.8,101.1 91.6,101.3 93.4,101.6 95.1,101.8 96.9,102.0 98.7,102.2 100.5,102.4 102.3,102.6 104.1,102.8 105.9,103.0 107.7,103.2 109.5,103.3 111.2,103.5 113.0,103.7 114.8,103.9 116.6,104.0 118.4,104.2 120.2,104.3 122.0,104.5 123.8,104.6 125.6,104.8 127.3,104.9 129.1,105.1 130.9,105.2 132.7,105.3 134.5,105.4 136.3,105.6 138.1,105.7 139.9,105.8 141.7,105.9 143.4,106.0 145.2,106.1 147.0,106.2 148.8,106.3 150.6,106.4 152.4,106.5 154.2,106.6 156.0,106.6 157.8,106.7 159.5,106.8 161.3,106.9 163.1,106.9 164.9,107.0 166.7,107.0 168.5,107.1 170.3,107.1 172.1,107.2 173.9,107.2 175.6,107.3 177.4,107.3 179.2,107.3 181.0,107.4 182.8,107.4 184.6,107.4 186.4,107.4 188.2,107.4 190.0,107.4 191.7,107.4 193.5,107.5 195.3,107.4 197.1,107.4 198.9,107.4 200.7,107.4 202.5,107.4 204.3,107.4 206.1,107.4 207.8,107.3 209.6,107.3 211.4,107.2 213.2,107.2 215.0,107.2 216.8,107.1 218.6,107.0 220.4,107.0 222.2,106.9 223.9,106.8 225.7,106.7 227.5,106.6 229.3,106.5 231.1,106.4 232.9,106.3 234.7,106.2 236.5,106.1 238.3,106.0 240.1,105.9 241.8,105.7 243.6,105.6 245.4,105.4 247.2,105.3 249.0,105.1 250.8,105.0 252.6,104.8 254.4,104.6 256.2,104.5 257.9,104.3 259.7,104.1 261.5,103.9 263.3,103.7 265.1,103.5 266.9,103.3 268.7,103.1 270.5,102.9 272.3,102.6 274.0,102.4 275.8,102.2 277.6,102.0 279.4,101.7 281.2,101.5 283.0,101.2 284.8,101.0 286.6,100.7 288.4,100.5 290.1,100.1 291.9,100.0 293.7,99.6 295.5,99.5 297.3,99.2 299.1,99.0 300.9,98.6 302.7,98.4 304.5,98.0 306.2,97.8 308.0,97.4 309.8,97.2 311.6,96.8 313.4,96.6 315.2,96.2 317.0,96.0 318.8,95.6 320.6,95.3 322.3,94.9 324.1,94.6 325.9,94.2 327.7,93.9 329.5,93.5 331.3,93.2 333.1,92.7 334.9,92.4 336.7,91.9 338.4,91.7 340.2,91.2 342.0,90.9 343.8,90.4 345.6,90.0 347.4,89.5 349.2,89.2 351.0,88.7 352.8,88.3 354.5,87.8 356.3,87.5 358.1,86.9 359.9,86.5 361.7,86.0 363.5,85.6 365.3,85.0 367.1,84.7 368.9,84.1 370.6,83.7 372.4,83.1 374.2,82.7 376.0,82.1 377.8,81.7 379.6,81.1 381.4,80.7 383.2,80.0 385.0,79.6 386.7,79.0 388.5,78.6 390.3,77.9 392.1,77.5 393.9,76.8 395.7,76.4 397.5,75.7 399.3,75.3 401.1,74.6 402.8,74.2 404.6,73.5 406.4,73.1 408.2,72.4 410.0,72.0 411.8,71.3 413.6,70.9 415.4,70.2 417.2,69.8 418.9,69.1 420.7,68.7 422.5,68.1 424.3,67.7 426.1,67.1 427.9,66.7 429.7,66.1 431.5,65.8 433.3,65.2 435.0,64.9 436.8,64.3 438.6,64.0 440.4,63.5 442.2,63.2 444.0,62.7 445.8,62.5 447.6,62.1 449.4,61.9 451.1,61.4 452.9,61.3 454.7,60.9 456.5,60.8 458.3,60.5 460.1,60.4 461.9,59.9 463.7,59.6 465.5,59.1 467.2,58.8 469.0,58.5 470.8,58.1 472.6,57.6 474.4,57.4 476.2,56.9 478.0,56.7 479.8,56.4 481.6,56.1 483.3,55.8 485.1,55.6 486.9,55.2 488.7,55.0 490.5,54.7 492.3,54.6 494.1,54.4 495.9,54.3 497.7,54.1 499.4,54.1 501.2,54.0 503.0,54.0 504.8,54.0 506.6,54.2 508.4,54.3 510.2,54.5 512.0,54.7 513.8,55.0 515.5,55.4 517.3,55.8 519.1,56.2 520.9,56.7 522.7,57.3 524.5,57.9 526.3,58.6 528.1,59.3 529.9,60.1 531.6,61.0 533.4,61.9 535.2,62.9 537.0,64.0 538.8,65.1 540.6,66.3 542.4,67.6 544.2,68.9 546.0,70.3 547.7,71.7 549.5,73.1 551.3,74.6 553.1,76.1 554.9,77.6 556.7,79.2 558.5,80.7 560.3,82.3 562.1,83.9 563.8,85.5 565.6,87.2 567.4,88.9 569.2,90.6 571.0,92.3 572.8,94.0 574.6,95.8 576.4,97.6 578.2,99.4 579.9,101.3 581.7,103.2 583.5,105.1 585.3,107.0 587.1,108.9 588.9,110.9 590.7,112.8 592.5,114.8 594.3,116.8 596.1,118.9 597.8,120.9 599.6,123.0 601.4,125.0 603.2,127.1 605.0,129.2 606.8,131.3 608.6,133.4 610.4,135.5 612.2,137.7 613.9,139.8 615.7,141.9 617.5,144.1 619.3,146.2 621.1,148.3 622.9,150.4 624.7,152.5 626.5,154.6 628.3,156.7 630.0,158.7 631.8,160.7 633.6,162.6 635.4,164.5 637.2,166.4 639.0,168.2 640.8,169.9 642.6,171.7 644.4,173.3 646.1,174.9 647.9,176.3 649.7,177.7 651.5,179.0 653.3,180.3 655.1,181.6 656.9,182.8 658.7,184.1 660.5,185.4 662.2,186.8 664.0,188.3 665.8,190.0 667.6,191.8 669.4,193.6 671.2,195.5 673.0,197.4 674.8,199.3 676.6,201.3 678.3,203.2 680.1,205.1 681.9,207.1 683.7,209.0 685.5,210.9 687.3,212.9 689.1,214.8 690.9,216.8 692.7,218.7 694.4,220.7 696.2,222.6 698.0,224.5 699.8,226.3 701.6,228.2 703.4,230.0 705.2,231.8 707.0,233.5 708.8,235.1 710.5,236.7 712.3,238.3 714.1,239.8 715.9,241.2 717.7,242.6 719.5,243.9 721.3,245.2 723.1,246.5 724.9,247.7 726.6,249.0 728.4,250.2 730.2,251.4 732.0,252.5 733.8,253.6 735.6,254.6 737.4,255.6 739.2,256.5 741.0,257.4 742.7,258.2 744.5,259.0 746.3,259.7 748.1,260.4 749.9,261.1 751.7,261.7 753.5,262.2 755.3,262.8 757.1,263.4 758.8,263.9 760.6,264.4 762.4,264.9 764.2,265.5 766.0,266.0"/>
<line x1="606" y1="42" x2="628" y2="42" stroke="#0f62fe" stroke-width="2.2"/>
<text x="634" y="46" font-family="Arial" font-size="12">vz_mps</text>
</svg>