<svg xmlns="http://www.w3.org/2000/svg" width="820" height="320" viewBox="0 0 820 320">
<rect width="100%" height="100%" fill="#ffffff"/>
<text x="54" y="28" font-family="Arial" font-size="18" font-weight="700">Speed</text>
<line x1="54" y1="266" x2="766" y2="266" stroke="#1f2933"/>
<line x1="54" y1="54" x2="54" y2="266" stroke="#1f2933"/>
<text x="54" y="306" font-family="Arial" font-size="12">time (s)</text>
<text x="596" y="306" font-family="Arial" font-size="12">speed (m/s)</text>
<text x="58" y="68" font-family="Arial" font-size="11">202</text>
<text x="58" y="260" font-family="Arial" font-size="11">85.4</text>
<polyline fill="none" stroke="#0f62fe" stroke-width="2.2" points="54.0,266.0 55.8,265.1 57.6,264.2 59.4,263.3 61.2,262.4 62.9,261.4 64.7,260.5 66.5,259.5 68.3,258.5 70.1,257.5 71.9,256.4 73.7,255.4 75.5,254.3 77.3,253.3 79.0,252.2 80.8,251.1 82.6,250.0 84.4,248.9 86.2,247.8 88.0,246.7 89.8,245.6 91.6,244.5 93.4,243.4 95.1,242.4 96.9,241.3 98.7,240.2 100.5,239.1 102.3,238.0 104.1,237.0 105.9,235.9 107.7,234.8 109.5,233.7 111.2,232.7 113.0,231.6 114.8,230.5 116.6,229.4 118.4,228.4 120.2,227.3 122.0,226.2 123.8,225.2 125.6,224.1 127.3,223.1 129.1,222.0 130.9,220.9 132.7,219.9 134.5,218.8 136.3,217.8 138.1,216.7 139.9,215.7 141.7,214.6 143.4,213.6 145.2,212.5 147.0,211.5 148.8,210.4 150.6,209.4 152.4,208.3 154.2,207.3 156.0,206.2 157.8,205.2 159.5,204.2 161.3,203.1 163.1,202.1 164.9,201.1 166.7,200.0 168.5,199.0 170.3,198.0 172.1,197.0 173.9,195.9 175.6,194.9 177.4,193.9 179.2,192.9 181.0,191.8 182.8,190.8 184.6,189.8 186.4,188.8 188.2,187.8 190.0,186.8 191.7,185.8 193.5,184.8 195.3,183.7 197.1,182.7 198.9,181.7 200.7,180.7 202.5,179.7 204.3,178.7 206.1,177.7 207.8,176.7 209.6,175.8 211.4,174.8 213.2,173.8 215.0,172.8 216.8,171.8 218.6,170.8 220.4,169.8 222.2,168.9 223.9,167.9 225.7,166.9 227.5,165.9 229.3,165.0 231.1,164.0 232.9,163.0 234.7,162.1 236.5,161.1 238.3,160.1 240.1,159.2 241.8,158.2 243.6,157.3 245.4,156.3 247.2,155.4 249.0,154.4 250.8,153.5 252.6,152.6 254.4,151.6 256.2,150.7 257.9,149.7 259.7,148.8 261.5,147.9 263.3,147.0 265.1,146.0 266.9,145.1 268.7,144.2 270.5,143.3 272.3,142.4 274.0,141.4 275.8,140.5 277.6,139.6 279.4,138.7 281.2,137.8 283.0,136.9 284.8,136.0 286.6,135.1 288.4,134.2 290.1,133.3 291.9,132.4 293.7,131.5 295.5,130.6 297.3,129.7 299.1,128.8 300.9,127.9 302.7,127.0 304.5,126.2 306.2,125.3 308.0,124.4 309.8,123.5 311.6,122.7 313.4,121.8 315.2,120.9 317.0,120.0 318.8,119.2 320.6,118.3 322.3,117.5 324.1,116.6 325.9,115.8 327.7,114.9 329.5,114.1 331.3,113.2 333.1,112.4 334.9,111.5 336.7,110.7 338.4,109.9 340.2,109.0 342.0,108.2 343.8,107.4 345.6,106.5 347.4,105.7 349.2,104.9 351.0,104.1 352.8,103.3 354.5,102.5 356.3,101.6 358.1,100.8 359.9,100.0 361.7,99.2 363.5,98.4 365.3,97.6 367.1,96.8 368.9,96.1 370.6,95.2 372.4,94.5 374.2,93.7 376.0,92.9 377.8,92.1 379.6,91.4 381.4,90.6 383.2,89.8 385.0,89.0 386.7,88.3 388.5,87.5 390.3,86.8 392.1,86.0 393.9,85.3 395.7,84.5 397.5,83.7 399.3,83.0 401.1,82.3 402.8,81.5 404.6,80.8 406.4,80.0 408.2,79.3 410.0,78.6 411.8,77.8 413.6,77.1 415.4,76.4 417.2,75.7 418.9,75.0 420.7,74.2 422.5,73.5 424.3,72.8 426.1,72.1 427.9,71.4 429.7,70.7 431.5,70.0 433.3,69.4 435.0,68.7 436.8,68.0 438.6,67.3 440.4,66.6 442.2,66.0 444.0,65.3 445.8,64.6 447.6,64.0 449.4,63.3 451.1,62.7 452.9,62.1 454.7,61.5 456.5,60.8 458.3,60.2 460.1,59.6 461.9,59.1 463.7,58.6 465.5,58.1 467.2,57.7 469.0,57.3 470.8,56.9 472.6,56.6 474.4,56.2 476.2,56.0 478.0,55.6 479.8,55.4 481.6,55.1 483.3,54.9 485.1,54.7 486.9,54.6 488.7,54.4 490.5,54.3 492.3,54.2 494.1,54.1 495.9,54.0 497.7,54.0 499.4,54.0 501.2,54.1 503.0,54.1 504.8,54.2 506.6,54.3 508.4,54.5 510.2,54.7 512.0,55.0 513.8,55.3 515.5,55.7 517.3,56.0 519.1,56.5 520.9,57.1 522.7,57.7 524.5,58.3 526.3,59.1 528.1,59.9 529.9,60.8 531.6,61.8 533.4,62.9 535.2,64.0 537.0,65.3 538.8,66.7 540.6,68.2 542.4,69.7 544.2,71.3 546.0,72.9 547.7,74.5 549.5,76.2 551.3,77.8 553.1,79.5 554.9,81.2 556.7,82.9 558.5,84.6 560.3,86.3 562.1,88.1 563.8,89.8 565.6,91.6 567.4,93.4 569.2,95.2 571.0,97.1 572.8,98.9 574.6,100.8 576.4,102.7 578.2,104.6 579.9,106.6 581.7,108.5 583.5,110.5 585.3,112.4 587.1,114.4 588.9,116.4 590.7,118.4 592.5,120.4 594.3,122.4 596.1,124.5 597.8,126.5 599.6,128.5 601.4,130.6 603.2,132.6 605.0,134.7 606.8,136.7 608.6,138.7 610.4,140.8 612.2,142.8 613.9,144.9 615.7,146.9 617.5,148.9 619.3,150.9 621.1,152.9 622.9,154.9 624.7,156.9 626.5,158.8 628.3,160.8 630.0,162.7 631.8,164.6 633.6,166.5 635.4,168.3 637.2,170.1 639.0,171.8 640.8,173.3 642.6,174.8 644.4,176.1 646.1,177.3 647.9,178.3 649.7,179.1 651.5,179.8 653.3,180.4 655.1,180.8 656.9,181.1 658.7,181.4 660.5,181.6 662.2,181.8 664.0,182.1 665.8,182.4 667.6,182.7 669.4,183.1 671.2,183.5 673.0,184.0 674.8,184.4 676.6,184.9 678.3,185.4 680.1,186.0 681.9,186.5 683.7,187.1 685.5,187.8 687.3,188.4 689.1,189.1 690.9,189.8 692.7,190.5 694.4,191.2 696.2,192.0 698.0,192.8 699.8,193.5 701.6,194.4 703.4,195.2 705.2,196.0 707.0,196.9 708.8,197.8 710.5,198.7 712.3,199.6 714.1,200.5 715.9,201.5 717.7,202.4 719.5,203.4 721.3,204.5 723.1,205.5 724.9,206.5 726.6,207.6 728.4,208.7 730.2,209.8 732.0,210.8 733.8,211.9 735.6,213.0 737.4,214.0 739.2,215.1 741.0,216.1 742.7,217.0 744.5,218.0 746.3,218.9 748.1,219.8 749.9,220.7 751.7,221.5 753.5,222.4 755.3,223.3 757.1,224.2 758.8,225.1 760.6,226.0 762.4,227.0 764.2,227.9 766.0,228.9"/>
<line x1="606" y1="42" x2="628" y2="42" stroke="#0f62fe" stroke-width="2.2"/>
<text x="634" y="46" font-family="Arial" font-size="12">speed_mps</text>
<polyline fill="none" stroke="#24a148" stroke-width="2.2" points="54.0,266.0 55.8,265.1 57.6,264.2 59.4,263.3 61.2,262.4 62.9,261.4 64.7,260.5 66.5,259.5 68.3,258.5 70.1,257.5 71.9,256.4 73.7,255.4 75.5,254.3 77.3,253.3 79.0,252.2 80.8,251.1 82.6,250.0 84.4,248.9 86.2,247.8 88.0,246.7 89.8,245.6 91.6,244.5 93.4,243.4 95.1,242.4 96.9,241.3 98.7,240.2 100.5,239.1 102.3,238.0 104.1,237.0 105.9,235.9 107.7,234.8 109.5,233.7 111.2,232.7 113.0,231.6 114.8,230.5 116.6,229.4 118.4,228.4 120.2,227.3 122.0,226.2 123.8,225.2 125.6,224.1 127.3,223.1 129.1,222.0 130.9,220.9 132.7,219.9 134.5,218.8 136.3,217.8 138.1,216.7 139.9,215.7 141.7,214.6 143.4,213.6 145.2,212.5 147.0,211.5 148.8,210.4 150.6,209.4 152.4,208.3 154.2,207.3 156.0,206.2 157.8,205.2 159.5,204.2 161.3,203.1 163.1,202.1 164.9,201.1 166.7,200.0 168.5,199.0 170.3,198.0 172.1,197.0 173.9,195.9 175.6,194.9 177.4,193.9 179.2,192.9 181.0,191.8 182.8,190.8 184.6,189.8 186.4,188.8 188.2,187.8 190.0,186.8 191.7,185.8 193.5,184.8 195.3,183.7 197.1,182.7 198.9,181.7 200.7,180.7 202.5,179.7 204.3,178.7 206.1,177.7 207.8,176.7 209.6,175.8 211.4,174.8 213.2,173.8 215.0,172.8 216.8,171.8 218.6,170.8 220.4,169.8 222.2,168.9 223.9,167.9 225.7,166.9 227.5,165.9 229.3,165.0 231.1,164.0 232.9,163.0 234.7,162.1 236.5,161.1 238.3,160.1 240.1,159.2 241.8,158.2 243.6,157.3 245.4,156.3 247.2,155.4 249.0,154.4 250.8,153.5 252.6,152.6 254.4,151.6 256.2,150.7 257.9,149.7 259.7,148.8 261.5,147.9 263.3,147.0 265.1,146.0 266.9,145.1 268.7,144.2 270.5,143.3 272.3,142.4 274.0,141.4 275.8,140.5 277.6,139.6 279.4,138.7 281.2,137.8 283.0,136.9 284.8,136.0 286.6,135.1 288.4,134.2 290.1,133.3 291.9,132.4 293.7,131.5 295.5,130.6 297.3,129.7 299.1,128.8 300.9,127.9 302.7,127.0 304.5,126.2 306.2,125.3 308.0,124.4 309.8,123.5 311.6,122.7 313.4,121.8 315.2,120.9 317.0,120.0 318.8,119.2 320.6,118.3 322.3,117.5 324.1,116.6 325.9,115.8 327.7,114.9 329.5,114.1 331.3,113.2 333.1,112.4 334.9,111.5 336.7,110.7 338.4,109.9 340.2,109.0 342.0,108.2 343.8,107.4 345.6,106.5 347.4,105.7 349.2,104.9 351.0,104.1 352.8,103.3 354.5,102.5 356.3,101.6 358.1,100.8 359.9,100.0 361.7,99.2 363.5,98.4 365.3,97.6 367.1,96.8 368.9,96.1 370.6,95.2 372.4,94.5 374.2,93.7 376.0,92.9 377.8,92.1 379.6,91.4 381.4,90.6 383.2,89.8 385.0,89.0 386.7,88.3 388.5,87.5 390.3,86.8 392.1,86.0 393.9,85.3 395.7,84.5 397.5,83.7 399.3,83.0 401.1,82.3 402.8,81.5 404.6,80.8 406.4,80.0 408.2,79.3 410.0,78.6 411.8,77.8 413.6,77.1 415.4,76.4 417.2,75.7 418.9,75.0 420.7,74.2 422.5,73.5 424.3,72.8 426.1,72.1 427.9,71.4 429.7,70.7 431.5,70.0 433.3,69.4 435.0,68.7 436.8,68.0 438.6,67.3 440.4,66.7 442.2,66.0 444.0,65.3 445.8,64.7 447.6,64.0 449.4,63.4 451.1,62.7 452.9,62.1 454.7,61.5 456.5,60.8 458.3,60.2 460.1,59.6 461.9,59.1 463.7,58.6 465.5,58.2 467.2,57.7 469.0,57.3 470.8,56.9 472.6,56.6 474.4,56.2 476.2,56.0 478.0,55.6 479.8,55.4 481.6,55.1 483.3,54.9 485.1,54.7 486.9,54.6 488.7,54.4 490.5,54.4 492.3,54.2 494.1,54.1 495.9,54.0 497.7,54.1 499.4,54.0 501.2,54.1 503.0,54.1 504.8,54.3 506.6,54.4 508.4,54.6 510.2,54.7 512.0,55.0 513.8,55.3 515.5,55.7 517.3,56.1 519.1,56.6 520.9,57.1 522.7,57.7 524.5,58.4 526.3,59.1 528.1,59.9 529.9,60.8 531.6,61.8 533.4,62.9 535.2,64.1 537.0,65.4 538.8,66.7 540.6,68.2 542.4,69.8 544.2,71.4 546.0,73.0 547.7,74.6 549.5,76.2 551.3,77.9 553.1,79.6 554.9,81.3 556.7,83.0 558.5,84.7 560.3,86.4 562.1,88.1 563.8,89.9 565.6,91.7 567.4,93.5 569.2,95.3 571.0,97.2 572.8,99.0 574.6,100.9 576.4,102.8 578.2,104.7 579.9,106.7 581.7,108.6 583.5,110.6 585.3,112.5 587.1,114.5 588.9,116.5 590.7,118.5 592.5,120.5 594.3,122.5 596.1,124.6 597.8,126.6 599.6,128.6 601.4,130.7 603.2,132.7 605.0,134.8 606.8,136.8 608.6,138.8 610.4,140.9 612.2,142.9 613.9,145.0 615.7,147.0 617.5,149.0 619.3,151.0 621.1,153.0 622.9,155.0 624.7,157.0 626.5,159.0 628.3,160.9 630.0,162.8 631.8,164.7 633.6,166.6 635.4,168.4 637.2,170.2 639.0,171.9 640.8,173.4 642.6,174.9 644.4,176.2 646.1,177.4 647.9,178.4 649.7,179.2 651.5,179.9 653.3,180.5 655.1,180.9 656.9,181.2 658.7,181.5 660.5,181.7 662.2,181.9 664.0,182.2 665.8,182.5 667.6,182.8 669.4,183.2 671.2,183.6 673.0,184.0 674.8,184.5 676.6,185.0 678.3,185.5 680.1,186.0 681.9,186.6 683.7,187.2 685.5,187.8 687.3,188.5 689.1,189.2 690.9,189.8 692.7,190.6 694.4,191.3 696.2,192.1 698.0,192.8 699.8,193.6 701.6,194.4 703.4,195.3 705.2,196.1 707.0,197.0 708.8,197.8 710.5,198.7 712.3,199.6 714.1,200.6 715.9,201.5 717.7,202.5 719.5,203.5 721.3,204.5 723.1,205.6 724.9,206.6 726.6,207.7 728.4,208.8 730.2,209.8 732.0,210.9 733.8,212.0 735.6,213.1 737.4,214.1 739.2,215.1 741.0,216.1 742.7,217.1 744.5,218.0 746.3,219.0 748.1,219.9 749.9,220.7 751.7,221.6 753.5,222.5 755.3,223.3 757.1,224.2 758.8,225.1 760.6,226.1 762.4,227.0 764.2,228.0 766.0,229.0"/>
<line x1="606" y1="60" x2="628" y2="60" stroke="#24a148" stroke-width="2.2"/>
<text x="634" y="64" font-family="Arial" font-size="12">airspeed_mps</text>
</svg>