<svg xmlns="http://www.w3.org/2000/svg" width="820" height="320" viewBox="0 0 820 320">
<rect width="100%" height="100%" fill="#ffffff"/>
<text x="54" y="28" font-family="Arial" font-size="18" font-weight="700">Alpha/Beta</text>
<line x1="54" y1="266" x2="766" y2="266" stroke="#1f2933"/>
<line x1="54" y1="54" x2="54" y2="266" stroke="#1f2933"/>
<text x="54" y="306" font-family="Arial" font-size="12">time (s)</text>
<text x="596" y="306" font-family="Arial" font-size="12">angle (deg)</text>
<text x="58" y="68" font-family="Arial" font-size="11">35</text>
<text x="58" y="260" font-family="Arial" font-size="11">-14.8</text>
<polyline fill="none" stroke="#0f62fe" stroke-width="2.2" points="54.0,200.3 55.8,198.3 57.6,196.3 59.4,194.8 61.2,193.7 62.9,192.7 64.7,191.7 66.5,190.7 68.3,189.9 70.1,189.2 71.9,188.6 73.7,188.0 75.5,187.5 77.3,187.0 79.0,186.6 80.8,186.2 82.6,185.8 84.4,185.5 86.2,185.2 88.0,185.0 89.8,184.7 91.6,184.5 93.4,184.3 95.1,184.2 96.9,184.0 98.7,183.8 100.5,183.7 102.3,183.6 104.1,183.5 105.9,183.4 107.7,183.3 109.5,183.2 111.2,183.1 113.0,183.0 114.8,183.0 116.6,182.9 118.4,182.9 120.2,182.8 122.0,182.8 123.8,182.7 125.6,182.7 127.3,182.7 129.1,182.6 130.9,182.6 132.7,182.6 134.5,182.6 136.3,182.6 138.1,182.5 139.9,182.5 141.7,182.5 143.4,182.5 145.2,182.5 147.0,182.5 148.8,182.5 150.6,182.5 152.4,182.5 154.2,182.5 156.0,182.5 157.8,182.5 159.5,182.5 161.3,182.6 163.1,182.6 164.9,182.6 166.7,182.6 168.5,182.6 170.3,182.6 172.1,182.7 173.9,182.7 175.6,182.7 177.4,182.7 179.2,182.7 181.0,182.8 182.8,182.8 184.6,182.8 186.4,182.9 188.2,182.9 190.0,182.9 191.7,183.0 193.5,183.0 195.3,183.0 197.1,183.1 198.9,183.1 200.7,183.1 202.5,183.1 204.3,183.1 206.1,183.1 207.8,183.2 209.6,183.1 211.4,183.1 213.2,183.1 215.0,183.1 216.8,183.1 218.6,183.1 220.4,183.1 222.2,183.1 223.9,183.1 225.7,183.1 227.5,183.1 229.3,183.1 231.1,183.1 232.9,183.1 234.7,183.1 236.5,183.1 238.3,183.1 240.1,183.1 241.8,183.1 243.6,183.1 245.4,183.1 247.2,183.1 249.0,183.1 250.8,183.1 252.6,183.1 254.4,183.1 256.2,183.1 257.9,183.1 259.7,183.2 261.5,183.2 263.3,183.2 265.1,183.2 266.9,183.2 268.7,183.3 270.5,183.3 272.3,183.4 274.0,183.3 275.8,183.5 277.6,183.4 279.4,183.6 281.2,183.2 283.0,184.1 284.8,182.5 286.6,184.2 288.4,183.0 290.1,185.0 291.9,183.8 293.7,185.4 295.5,183.8 297.3,185.2 299.1,183.3 300.9,184.8 302.7,183.2 304.5,184.9 306.2,183.4 308.0,185.2 309.8,183.6 311.6,185.3 313.4,183.5 315.2,185.2 317.0,183.4 318.8,185.1 320.6,183.4 322.3,185.2 324.1,183.5 325.9,185.3 327.7,183.5 329.5,185.3 331.3,183.5 333.1,185.3 334.9,183.5 336.7,185.3 338.4,183.5 340.2,185.4 342.0,183.5 343.8,185.4 345.6,183.5 347.4,185.5 349.2,183.5 351.0,185.5 352.8,183.5 354.5,185.5 356.3,183.5 358.1,185.6 359.9,183.5 361.7,185.6 363.5,183.5 365.3,185.6 367.1,183.6 368.9,185.7 370.6,183.6 372.4,185.7 374.2,183.6 376.0,185.7 377.8,183.6 379.6,185.8 381.4,183.6 383.2,185.8 385.0,183.6 386.7,185.8 388.5,183.6 390.3,185.8 392.1,183.7 393.9,185.9 395.7,183.7 397.5,185.9 399.3,183.7 401.1,185.9 402.8,183.8 404.6,186.0 406.4,183.8 408.2,186.0 410.0,183.8 411.8,185.9 413.6,183.7 415.4,185.9 417.2,183.7 418.9,185.9 420.7,183.7 422.5,185.8 424.3,183.6 426.1,185.7 427.9,183.5 429.7,185.7 431.5,183.4 433.3,185.5 435.0,183.3 436.8,185.4 438.6,183.2 440.4,185.3 442.2,183.0 444.0,185.1 445.8,182.8 447.6,184.9 449.4,182.6 451.1,184.7 452.9,182.4 454.7,184.5 456.5,182.2 458.3,182.3 460.1,178.2 461.9,178.4 463.7,175.2 465.5,176.3 467.2,174.1 469.0,173.2 470.8,170.6 472.6,172.3 474.4,169.6 476.2,171.3 478.0,168.7 479.8,169.7 481.6,166.3 483.3,167.3 485.1,164.1 486.9,165.2 488.7,162.9 490.5,164.9 492.3,162.6 494.1,163.3 495.9,159.8 497.7,160.7 499.4,158.9 501.2,159.6 503.0,156.4 504.8,157.6 506.6,154.6 508.4,156.0 510.2,153.0 512.0,153.0 513.8,150.5 515.5,150.3 517.3,147.7 519.1,147.1 520.9,144.7 522.7,143.3 524.5,141.3 526.3,139.3 528.1,137.2 529.9,134.9 531.6,132.6 533.4,130.0 535.2,127.3 537.0,124.5 538.8,121.4 540.6,118.1 542.4,114.6 544.2,109.7 546.0,103.7 547.7,97.5 549.5,91.4 551.3,85.4 553.1,79.2 554.9,72.8 556.7,66.5 558.5,60.1 560.3,54.0 562.1,54.0 563.8,54.0 565.6,54.0 567.4,54.0 569.2,54.0 571.0,54.0 572.8,54.0 574.6,54.0 576.4,54.0 578.2,54.0 579.9,54.0 581.7,54.0 583.5,54.0 585.3,54.0 587.1,54.0 588.9,54.0 590.7,54.0 592.5,54.0 594.3,54.0 596.1,54.0 597.8,54.0 599.6,54.0 601.4,54.0 603.2,54.0 605.0,54.0 606.8,54.0 608.6,54.0 610.4,54.0 612.2,54.0 613.9,54.0 615.7,54.0 617.5,54.0 619.3,54.0 621.1,54.0 622.9,54.0 624.7,54.0 626.5,54.0 628.3,54.0 630.0,54.0 631.8,54.0 633.6,54.0 635.4,54.0 637.2,54.0 639.0,54.0 640.8,54.0 642.6,54.0 644.4,54.0 646.1,54.0 647.9,54.0 649.7,54.0 651.5,54.0 653.3,54.0 655.1,54.0 656.9,54.0 658.7,54.0 660.5,54.0 662.2,54.0 664.0,54.0 665.8,54.0 667.6,54.0 669.4,54.0 671.2,54.0 673.0,54.0 674.8,54.0 676.6,54.0 678.3,54.0 680.1,54.0 681.9,54.0 683.7,54.0 685.5,54.0 687.3,54.0 689.1,54.0 690.9,54.0 692.7,54.0 694.4,54.0 696.2,54.0 698.0,54.0 699.8,54.0 701.6,54.0 703.4,54.0 705.2,54.0 707.0,54.0 708.8,54.0 710.5,54.0 712.3,54.0 714.1,54.0 715.9,54.0 717.7,54.0 719.5,54.0 721.3,54.0 723.1,54.0 724.9,54.0 726.6,54.0 728.4,54.0 730.2,54.0 732.0,54.0 733.8,54.0 735.6,54.0 737.4,54.0 739.2,54.0 741.0,54.0 742.7,54.0 744.5,54.0 746.3,54.0 748.1,54.0 749.9,54.0 751.7,54.0 753.5,54.0 755.3,54.0 757.1,54.0 758.8,54.0 760.6,54.0 762.4,54.0 764.2,54.0 766.0,54.0"/>
<line x1="606" y1="42" x2="628" y2="42" stroke="#0f62fe" stroke-width="2.2"/>
<text x="634" y="46" font-family="Arial" font-size="12">alpha_deg</text>
<polyline fill="none" stroke="#24a148" stroke-width="2.2" points="54.0,203.2 55.8,203.2 57.6,203.2 59.4,203.2 61.2,203.1 62.9,203.1 64.7,203.1 66.5,203.0 68.3,203.0 70.1,203.0 71.9,202.9 73.7,202.9 75.5,202.9 77.3,202.8 79.0,202.8 80.8,202.8 82.6,202.7 84.4,202.7 86.2,202.7 88.0,202.7 89.8,202.7 91.6,202.7 93.4,202.7 95.1,202.7 96.9,202.7 98.7,202.7 100.5,202.7 102.3,202.8 104.1,202.8 105.9,202.8 107.7,202.8 109.5,202.8 111.2,202.8 113.0,202.8 114.8,202.8 116.6,202.8 118.4,202.9 120.2,202.9 122.0,202.9 123.8,202.9 125.6,202.9 127.3,202.9 129.1,202.9 130.9,203.0 132.7,203.0 134.5,203.0 136.3,203.0 138.1,203.0 139.9,203.0 141.7,203.0 143.4,203.0 145.2,203.0 147.0,203.0 148.8,203.0 150.6,203.0 152.4,202.9 154.2,202.9 156.0,202.9 157.8,202.9 159.5,202.9 161.3,202.9 163.1,202.9 164.9,202.9 166.7,202.9 168.5,202.9 170.3,202.9 172.1,202.9 173.9,202.9 175.6,202.9 177.4,202.9 179.2,202.9 181.0,202.9 182.8,202.9 184.6,202.9 186.4,202.9 188.2,202.9 190.0,203.0 191.7,203.0 193.5,203.0 195.3,203.0 197.1,203.0 198.9,203.0 200.7,203.0 202.5,203.0 204.3,202.9 206.1,202.9 207.8,202.9 209.6,202.9 211.4,202.9 213.2,202.9 215.0,202.9 216.8,202.9 218.6,202.9 220.4,202.9 222.2,202.9 223.9,202.9 225.7,202.9 227.5,202.9 229.3,202.9 231.1,202.9 232.9,202.9 234.7,202.9 236.5,202.9 238.3,202.9 240.1,203.0 241.8,203.0 243.6,203.0 245.4,203.0 247.2,203.0 249.0,203.0 250.8,202.9 252.6,202.9 254.4,202.9 256.2,202.9 257.9,202.9 259.7,202.9 261.5,202.9 263.3,202.9 265.1,202.9 266.9,202.9 268.7,202.9 270.5,202.9 272.3,202.9 274.0,202.9 275.8,202.9 277.6,202.9 279.4,202.9 281.2,202.9 283.0,202.9 284.8,202.9 286.6,202.9 288.4,202.9 290.1,202.9 291.9,202.9 293.7,202.9 295.5,202.9 297.3,202.9 299.1,202.9 300.9,202.9 302.7,202.9 304.5,202.9 306.2,202.9 308.0,202.9 309.8,202.9 311.6,202.9 313.4,202.9 315.2,202.9 317.0,202.9 318.8,202.9 320.6,202.9 322.3,202.9 324.1,202.9 325.9,202.9 327.7,202.9 329.5,202.9 331.3,202.9 333.1,202.9 334.9,202.9 336.7,202.9 338.4,202.9 340.2,202.9 342.0,202.9 343.8,203.0 345.6,203.0 347.4,203.0 349.2,203.0 351.0,203.1 352.8,203.1 354.5,203.1 356.3,203.1 358.1,203.2 359.9,203.2 361.7,203.2 363.5,203.3 365.3,203.3 367.1,203.4 368.9,203.4 370.6,203.5 372.4,203.6 374.2,203.6 376.0,203.7 377.8,203.8 379.6,203.9 381.4,203.9 383.2,204.1 385.0,204.1 386.7,204.3 388.5,204.4 390.3,204.5 392.1,204.6 393.9,204.8 395.7,205.0 397.5,205.1 399.3,205.3 401.1,205.5 402.8,205.7 404.6,206.0 406.4,206.2 408.2,206.5 410.0,206.7 411.8,207.0 413.6,207.4 415.4,207.8 417.2,208.2 418.9,208.7 420.7,209.2 422.5,209.8 424.3,210.4 426.1,211.1 427.9,211.7 429.7,212.4 431.5,213.1 433.3,213.9 435.0,214.6 436.8,215.5 438.6,216.2 440.4,217.1 442.2,217.9 444.0,218.8 445.8,219.6 447.6,220.6 449.4,221.4 451.1,222.4 452.9,223.2 454.7,224.2 456.5,225.0 458.3,226.0 460.1,227.0 461.9,228.6 463.7,230.1 465.5,231.7 467.2,233.2 469.0,234.3 470.8,235.3 472.6,236.1 474.4,236.7 476.2,237.3 478.0,237.7 479.8,238.1 481.6,238.4 483.3,238.6 485.1,238.8 486.9,238.9 488.7,239.0 490.5,239.1 492.3,239.2 494.1,239.3 495.9,239.3 497.7,239.3 499.4,239.3 501.2,239.2 503.0,239.2 504.8,239.2 506.6,239.1 508.4,239.0 510.2,239.0 512.0,238.9 513.8,238.8 515.5,238.7 517.3,238.6 519.1,238.5 520.9,238.4 522.7,238.2 524.5,238.1 526.3,237.9 528.1,237.8 529.9,237.6 531.6,237.4 533.4,237.2 535.2,237.0 537.0,236.8 538.8,236.5 540.6,236.3 542.4,236.0 544.2,235.7 546.0,235.3 547.7,234.8 549.5,234.3 551.3,233.7 553.1,233.1 554.9,232.5 556.7,231.8 558.5,231.1 560.3,230.3 562.1,229.5 563.8,228.7 565.6,227.8 567.4,226.9 569.2,225.9 571.0,224.9 572.8,223.8 574.6,222.7 576.4,221.5 578.2,220.3 579.9,218.9 581.7,217.6 583.5,216.1 585.3,214.6 587.1,213.0 588.9,211.3 590.7,209.4 592.5,207.5 594.3,205.5 596.1,203.3 597.8,201.1 599.6,198.6 601.4,196.0 603.2,193.3 605.0,190.4 606.8,187.2 608.6,183.9 610.4,180.4 612.2,176.6 613.9,172.6 615.7,168.3 617.5,163.8 619.3,159.0 621.1,154.0 622.9,148.6 624.7,143.0 626.5,137.2 628.3,131.6 630.0,126.8 631.8,123.2 633.6,121.5 635.4,122.4 637.2,126.1 639.0,132.5 640.8,141.1 642.6,151.6 644.4,163.6 646.1,176.3 647.9,188.8 649.7,200.3 651.5,210.1 653.3,217.8 655.1,223.1 656.9,225.9 658.7,226.5 660.5,225.3 662.2,222.9 664.0,219.9 665.8,217.0 667.6,214.6 669.4,213.0 671.2,212.1 673.0,212.0 674.8,212.3 676.6,212.9 678.3,213.5 680.1,214.2 681.9,214.8 683.7,215.3 685.5,215.8 687.3,216.3 689.1,216.9 690.9,217.7 692.7,218.5 694.4,219.6 696.2,220.8 698.0,222.2 699.8,223.7 701.6,224.8 703.4,225.1 705.2,224.5 707.0,222.4 708.8,218.6 710.5,213.7 712.3,208.1 714.1,202.1 715.9,195.9 717.7,189.7 719.5,183.7 721.3,178.2 723.1,173.2 724.9,169.1 726.6,166.2 728.4,164.6 730.2,164.5 732.0,165.5 733.8,167.4 735.6,170.1 737.4,173.5 739.2,177.4 741.0,181.7 742.7,186.3 744.5,191.1 746.3,196.2 748.1,201.3 749.9,206.5 751.7,211.7 753.5,217.1 755.3,222.7 757.1,228.6 758.8,234.9 760.6,241.7 762.4,249.2 764.2,257.3 766.0,266.0"/>
<line x1="606" y1="60" x2="628" y2="60" stroke="#24a148" stroke-width="2.2"/>
<text x="634" y="64" font-family="Arial" font-size="12">beta_deg</text>
</svg>