<svg xmlns="http://www.w3.org/2000/svg" width="820" height="320" viewBox="0 0 820 320">
<rect width="100%" height="100%" fill="#ffffff"/>
<text x="54" y="28" font-family="Arial" font-size="18" font-weight="700">Load Factor</text>
<line x1="54" y1="266" x2="766" y2="266" stroke="#1f2933"/>
<line x1="54" y1="54" x2="54" y2="266" stroke="#1f2933"/>
<text x="54" y="306" font-family="Arial" font-size="12">time (s)</text>
<text x="596" y="306" font-family="Arial" font-size="12">g</text>
<text x="58" y="68" font-family="Arial" font-size="11">6.79</text>
<text x="58" y="260" font-family="Arial" font-size="11">1.75</text>
<polyline fill="none" stroke="#0f62fe" stroke-width="2.2" points="54.0,266.0 55.8,264.8 57.6,263.6 59.4,262.3 61.2,261.1 62.9,259.8 64.7,258.5 66.5,257.2 68.3,255.9 70.1,254.5 71.9,253.2 73.7,251.9 75.5,250.6 77.3,249.2 79.0,248.8 80.8,248.9 82.6,248.9 84.4,248.9 86.2,249.0 88.0,249.0 89.8,249.0 91.6,249.1 93.4,249.1 95.1,249.1 96.9,249.2 98.7,249.2 100.5,249.2 102.3,249.2 104.1,249.3 105.9,249.3 107.7,249.3 109.5,249.3 111.2,249.4 113.0,249.4 114.8,249.4 116.6,249.4 118.4,249.5 120.2,249.5 122.0,249.5 123.8,249.5 125.6,249.5 127.3,249.5 129.1,249.6 130.9,249.6 132.7,249.6 134.5,249.6 136.3,249.6 138.1,249.6 139.9,249.7 141.7,249.7 143.4,249.7 145.2,249.7 147.0,249.7 148.8,249.7 150.6,249.7 152.4,249.8 154.2,249.8 156.0,249.8 157.8,249.8 159.5,249.8 161.3,249.8 163.1,249.8 164.9,249.8 166.7,249.8 168.5,249.8 170.3,249.8 172.1,249.8 173.9,249.9 175.6,249.9 177.4,249.9 179.2,249.9 181.0,249.9 182.8,249.9 184.6,249.9 186.4,249.9 188.2,249.9 190.0,249.9 191.7,249.9 193.5,249.9 195.3,249.9 197.1,249.9 198.9,249.9 200.7,249.9 202.5,249.9 204.3,249.9 206.1,249.9 207.8,249.9 209.6,249.9 211.4,249.8 213.2,249.8 215.0,249.8 216.8,249.8 218.6,249.7 220.4,249.7 222.2,249.7 223.9,249.6 225.7,249.6 227.5,249.5 229.3,249.5 231.1,249.5 232.9,249.4 234.7,249.4 236.5,249.3 238.3,249.3 240.1,249.2 241.8,249.2 243.6,249.1 245.4,249.1 247.2,249.1 249.0,249.0 250.8,249.0 252.6,248.9 254.4,248.9 256.2,248.8 257.9,248.8 259.7,248.7 261.5,248.7 263.3,248.6 265.1,248.6 266.9,248.6 268.7,248.5 270.5,248.5 272.3,248.5 274.0,248.3 275.8,248.5 277.6,248.1 279.4,248.8 281.2,247.3 283.0,250.0 284.8,245.3 286.6,249.9 288.4,245.9 290.1,250.8 291.9,246.7 293.7,251.3 295.5,246.5 297.3,250.8 299.1,245.7 300.9,250.3 302.7,245.1 304.5,250.3 306.2,245.2 308.0,250.6 309.8,245.3 311.6,250.6 313.4,245.0 315.2,250.4 317.0,244.5 318.8,250.2 320.6,244.2 322.3,250.1 324.1,244.1 325.9,250.2 327.7,243.9 329.5,250.1 331.3,243.6 333.1,249.9 334.9,243.2 336.7,249.8 338.4,243.0 340.2,249.8 342.0,242.7 343.8,249.7 345.6,242.4 347.4,249.6 349.2,242.1 351.0,249.5 352.8,241.8 354.5,249.4 356.3,241.5 358.1,249.3 359.9,241.2 361.7,249.2 363.5,240.8 365.3,249.1 367.1,240.5 368.9,249.0 370.6,240.1 372.4,248.9 374.2,239.8 376.0,248.8 377.8,239.4 379.6,248.7 381.4,239.1 383.2,248.5 385.0,238.8 386.7,248.4 388.5,238.5 390.3,248.3 392.1,238.2 393.9,248.1 395.7,237.9 397.5,248.0 399.3,237.6 401.1,247.9 402.8,237.3 404.6,247.7 406.4,236.9 408.2,247.5 410.0,236.5 411.8,247.2 413.6,236.0 415.4,246.9 417.2,235.4 418.9,246.5 420.7,234.9 422.5,246.1 424.3,234.2 426.1,245.6 427.9,233.5 429.7,245.1 431.5,232.7 433.3,244.4 435.0,231.8 436.8,243.7 438.6,230.7 440.4,242.8 442.2,229.6 444.0,241.9 445.8,228.4 447.6,240.9 449.4,227.2 451.1,239.8 452.9,227.0 454.7,239.7 456.5,227.1 458.3,232.8 460.1,210.0 461.9,217.0 463.7,196.5 465.5,207.4 467.2,195.6 469.0,193.9 470.8,176.8 472.6,191.3 474.4,173.1 476.2,187.9 478.0,169.5 479.8,180.7 481.6,157.0 483.3,169.1 485.1,145.6 486.9,158.4 488.7,141.2 490.5,158.4 492.3,141.1 494.1,150.6 495.9,126.8 497.7,136.8 499.4,128.3 501.2,134.5 503.0,120.3 504.8,130.8 506.6,117.5 508.4,128.6 510.2,115.5 512.0,120.0 513.8,110.8 515.5,114.2 517.3,105.1 519.1,106.9 520.9,99.5 522.7,98.1 524.5,93.0 526.3,88.9 528.1,84.5 529.9,79.4 531.6,74.3 533.4,68.8 535.2,62.9 537.0,59.2 538.8,56.7 540.6,54.0 542.4,60.0 544.2,66.8 546.0,73.7 547.7,80.8 549.5,88.0 551.3,94.9 553.1,101.4 554.9,107.8 556.7,113.9 558.5,119.8 560.3,125.0 562.1,124.5 563.8,124.0 565.6,123.7 567.4,123.4 569.2,123.3 571.0,123.2 572.8,123.1 574.6,123.2 576.4,123.3 578.2,123.5 579.9,123.7 581.7,124.0 583.5,124.4 585.3,124.8 587.1,125.3 588.9,125.8 590.7,126.4 592.5,127.0 594.3,127.7 596.1,128.4 597.8,129.2 599.6,130.0 601.4,130.8 603.2,131.7 605.0,132.6 606.8,133.6 608.6,134.6 610.4,135.6 612.2,136.7 613.9,137.8 615.7,138.9 617.5,140.1 619.3,141.3 621.1,142.5 622.9,143.8 624.7,145.1 626.5,146.7 628.3,148.0 630.0,149.9 631.8,150.9 633.6,152.0 635.4,155.5 637.2,159.2 639.0,163.4 640.8,168.6 642.6,174.2 644.4,180.2 646.1,186.3 647.9,192.4 649.7,198.8 651.5,205.0 653.3,210.7 655.1,215.8 656.9,219.9 658.7,222.2 660.5,222.0 662.2,220.0 664.0,216.7 665.8,213.9 667.6,212.6 669.4,211.8 671.2,210.8 673.0,209.6 674.8,208.2 676.6,206.9 678.3,205.6 680.1,204.5 681.9,203.5 683.7,202.5 685.5,201.6 687.3,200.7 689.1,199.9 690.9,199.1 692.7,198.4 694.4,197.6 696.2,197.0 698.0,196.3 699.8,195.8 701.6,195.3 703.4,194.9 705.2,194.7 707.0,194.3 708.8,193.9 710.5,193.2 712.3,192.4 714.1,191.6 715.9,191.0 717.7,190.4 719.5,190.0 721.3,189.6 723.1,189.5 724.9,189.5 726.6,189.7 728.4,190.0 730.2,190.6 732.0,190.8 733.8,190.8 735.6,192.1 737.4,193.2 739.2,194.1 741.0,195.2 742.7,196.3 744.5,197.1 746.3,197.9 748.1,198.4 749.9,198.8 751.7,199.1 753.5,199.1 755.3,199.0 757.1,198.5 758.8,198.0 760.6,197.6 762.4,197.3 764.2,197.2 766.0,197.2"/>
<line x1="606" y1="42" x2="628" y2="42" stroke="#0f62fe" stroke-width="2.2"/>
<text x="634" y="46" font-family="Arial" font-size="12">load_factor_g</text>
</svg>