<svg xmlns="http://www.w3.org/2000/svg" width="820" height="320" viewBox="0 0 820 320">
<rect width="100%" height="100%" fill="#ffffff"/>
<text x="54" y="28" font-family="Arial" font-size="18" font-weight="700">Mass</text>
<line x1="54" y1="266" x2="766" y2="266" stroke="#1f2933"/>
<line x1="54" y1="54" x2="54" y2="266" stroke="#1f2933"/>
<text x="54" y="306" font-family="Arial" font-size="12">time (s)</text>
<text x="596" y="306" font-family="Arial" font-size="12">mass (kg)</text>
<text x="58" y="68" font-family="Arial" font-size="11">18</text>
<text x="58" y="260" font-family="Arial" font-size="11">15.5</text>
<polyline fill="none" stroke="#0f62fe" stroke-width="2.2" points="54.0,54.0 55.8,54.4 57.6,54.9 59.4,55.4 61.2,55.8 62.9,56.3 64.7,56.8 66.5,57.3 68.3,57.8 70.1,58.3 71.9,58.8 73.7,59.3 75.5,59.8 77.3,60.4 79.0,60.9 80.8,61.5 82.6,62.0 84.4,62.6 86.2,63.1 88.0,63.7 89.8,64.2 91.6,64.8 93.4,65.3 95.1,65.9 96.9,66.4 98.7,66.9 100.5,67.5 102.3,68.0 104.1,68.6 105.9,69.1 107.7,69.7 109.5,70.2 111.2,70.8 113.0,71.3 114.8,71.9 116.6,72.4 118.4,73.0 120.2,73.5 122.0,74.1 123.8,74.6 125.6,75.2 127.3,75.7 129.1,76.2 130.9,76.8 132.7,77.3 134.5,77.9 136.3,78.4 138.1,79.0 139.9,79.5 141.7,80.1 143.4,80.6 145.2,81.2 147.0,81.7 148.8,82.3 150.6,82.8 152.4,83.4 154.2,83.9 156.0,84.4 157.8,85.0 159.5,85.5 161.3,86.1 163.1,86.6 164.9,87.2 166.7,87.7 168.5,88.3 170.3,88.8 172.1,89.4 173.9,89.9 175.6,90.5 177.4,91.0 179.2,91.5 181.0,92.1 182.8,92.6 184.6,93.2 186.4,93.7 188.2,94.3 190.0,94.8 191.7,95.4 193.5,95.9 195.3,96.5 197.1,97.0 198.9,97.5 200.7,98.1 202.5,98.6 204.3,99.2 206.1,99.7 207.8,100.3 209.6,100.8 211.4,101.4 213.2,101.9 215.0,102.4 216.8,103.0 218.6,103.5 220.4,104.1 222.2,104.6 223.9,105.2 225.7,105.7 227.5,106.3 229.3,106.8 231.1,107.3 232.9,107.9 234.7,108.4 236.5,109.0 238.3,109.5 240.1,110.1 241.8,110.6 243.6,111.2 245.4,111.7 247.2,112.2 249.0,112.8 250.8,113.3 252.6,113.9 254.4,114.4 256.2,115.0 257.9,115.5 259.7,116.0 261.5,116.6 263.3,117.1 265.1,117.7 266.9,118.2 268.7,118.8 270.5,119.3 272.3,119.8 274.0,120.4 275.8,120.9 277.6,121.5 279.4,122.0 281.2,122.6 283.0,123.1 284.8,123.6 286.6,124.2 288.4,124.7 290.1,125.3 291.9,125.8 293.7,126.4 295.5,126.9 297.3,127.4 299.1,128.0 300.9,128.5 302.7,129.1 304.5,129.6 306.2,130.2 308.0,130.7 309.8,131.2 311.6,131.8 313.4,132.3 315.2,132.9 317.0,133.4 318.8,134.0 320.6,134.5 322.3,135.0 324.1,135.6 325.9,136.1 327.7,136.7 329.5,137.2 331.3,137.7 333.1,138.3 334.9,138.8 336.7,139.4 338.4,139.9 340.2,140.5 342.0,141.0 343.8,141.5 345.6,142.1 347.4,142.6 349.2,143.2 351.0,143.7 352.8,144.2 354.5,144.8 356.3,145.3 358.1,145.9 359.9,146.4 361.7,146.9 363.5,147.5 365.3,148.0 367.1,148.6 368.9,149.1 370.6,149.7 372.4,150.2 374.2,150.7 376.0,151.3 377.8,151.8 379.6,152.4 381.4,152.9 383.2,153.4 385.0,154.0 386.7,154.5 388.5,155.1 390.3,155.6 392.1,156.1 393.9,156.7 395.7,157.2 397.5,157.8 399.3,158.3 401.1,158.8 402.8,159.4 404.6,159.9 406.4,160.5 408.2,161.0 410.0,161.5 411.8,162.1 413.6,162.6 415.4,163.2 417.2,163.7 418.9,164.2 420.7,164.8 422.5,165.3 424.3,165.8 426.1,166.4 427.9,166.9 429.7,167.5 431.5,168.0 433.3,168.5 435.0,169.1 436.8,169.6 438.6,170.2 440.4,170.7 442.2,171.2 444.0,171.8 445.8,172.3 447.6,172.9 449.4,173.4 451.1,173.9 452.9,174.5 454.7,175.0 456.5,175.5 458.3,176.1 460.1,176.6 461.9,177.2 463.7,177.7 465.5,178.2 467.2,178.8 469.0,179.3 470.8,179.9 472.6,180.4 474.4,180.9 476.2,181.5 478.0,182.0 479.8,182.5 481.6,183.1 483.3,183.6 485.1,184.2 486.9,184.7 488.7,185.2 490.5,185.8 492.3,186.3 494.1,186.8 495.9,187.4 497.7,187.9 499.4,188.5 501.2,189.0 503.0,189.5 504.8,190.1 506.6,190.6 508.4,191.1 510.2,191.7 512.0,192.2 513.8,192.8 515.5,193.3 517.3,193.8 519.1,194.4 520.9,194.9 522.7,195.4 524.5,196.0 526.3,196.5 528.1,197.0 529.9,197.6 531.6,198.1 533.4,198.7 535.2,199.2 537.0,199.7 538.8,200.3 540.6,200.8 542.4,201.3 544.2,201.9 546.0,202.4 547.7,202.9 549.5,203.5 551.3,204.0 553.1,204.5 554.9,205.1 556.7,205.6 558.5,206.1 560.3,206.7 562.1,207.2 563.8,207.7 565.6,208.3 567.4,208.8 569.2,209.3 571.0,209.9 572.8,210.4 574.6,210.9 576.4,211.4 578.2,212.0 579.9,212.5 581.7,213.0 583.5,213.6 585.3,214.1 587.1,214.6 588.9,215.1 590.7,215.7 592.5,216.2 594.3,216.7 596.1,217.3 597.8,217.8 599.6,218.3 601.4,218.8 603.2,219.4 605.0,219.9 606.8,220.4 608.6,220.9 610.4,221.5 612.2,222.0 613.9,222.5 615.7,223.0 617.5,223.5 619.3,224.1 621.1,224.6 622.9,225.1 624.7,225.6 626.5,226.2 628.3,226.7 630.0,227.2 631.8,227.7 633.6,228.2 635.4,228.8 637.2,229.3 639.0,229.8 640.8,230.3 642.6,230.8 644.4,231.4 646.1,231.9 647.9,232.4 649.7,232.9 651.5,233.4 653.3,234.0 655.1,234.5 656.9,235.0 658.7,235.5 660.5,236.0 662.2,236.5 664.0,237.1 665.8,237.6 667.6,238.1 669.4,238.6 671.2,239.1 673.0,239.6 674.8,240.1 676.6,240.7 678.3,241.2 680.1,241.7 681.9,242.2 683.7,242.7 685.5,243.2 687.3,243.7 689.1,244.2 690.9,244.8 692.7,245.3 694.4,245.8 696.2,246.3 698.0,246.8 699.8,247.3 701.6,247.8 703.4,248.3 705.2,248.8 707.0,249.4 708.8,249.9 710.5,250.4 712.3,250.9 714.1,251.4 715.9,251.9 717.7,252.4 719.5,252.9 721.3,253.4 723.1,253.9 724.9,254.4 726.6,254.9 728.4,255.4 730.2,255.9 732.0,256.5 733.8,257.0 735.6,257.5 737.4,258.0 739.2,258.5 741.0,259.0 742.7,259.5 744.5,260.0 746.3,260.5 748.1,261.0 749.9,261.5 751.7,262.0 753.5,262.5 755.3,263.0 757.1,263.5 758.8,264.0 760.6,264.5 762.4,265.0 764.2,265.5 766.0,266.0"/>
<line x1="606" y1="42" x2="628" y2="42" stroke="#0f62fe" stroke-width="2.2"/>
<text x="634" y="46" font-family="Arial" font-size="12">mass_kg</text>
</svg>