<svg xmlns="http://www.w3.org/2000/svg" width="820" height="320" viewBox="0 0 820 320">
<rect width="100%" height="100%" fill="#ffffff"/>
<text x="54" y="28" font-family="Arial" font-size="18" font-weight="700">Specific Energy</text>
<line x1="54" y1="266" x2="766" y2="266" stroke="#1f2933"/>
<line x1="54" y1="54" x2="54" y2="266" stroke="#1f2933"/>
<text x="54" y="306" font-family="Arial" font-size="12">time (s)</text>
<text x="596" y="306" font-family="Arial" font-size="12">J/kg</text>
<text x="58" y="68" font-family="Arial" font-size="11">2.12e+04</text>
<text x="58" y="260" font-family="Arial" font-size="11">3.84e+03</text>
<polyline fill="none" stroke="#0f62fe" stroke-width="2.2" points="54.0,266.0 55.8,265.5 57.6,264.9 59.4,264.4 61.2,263.8 62.9,263.2 64.7,262.6 66.5,262.0 68.3,261.4 70.1,260.8 71.9,260.1 73.7,259.5 75.5,258.8 77.3,258.1 79.0,257.4 80.8,256.7 82.6,256.0 84.4,255.3 86.2,254.6 88.0,253.9 89.8,253.2 91.6,252.4 93.4,251.7 95.1,251.0 96.9,250.2 98.7,249.5 100.5,248.8 102.3,248.0 104.1,247.3 105.9,246.5 107.7,245.8 109.5,245.0 111.2,244.3 113.0,243.5 114.8,242.8 116.6,242.0 118.4,241.2 120.2,240.5 122.0,239.7 123.8,238.9 125.6,238.1 127.3,237.3 129.1,236.6 130.9,235.8 132.7,235.0 134.5,234.2 136.3,233.4 138.1,232.6 139.9,231.8 141.7,231.0 143.4,230.2 145.2,229.4 147.0,228.5 148.8,227.7 150.6,226.9 152.4,226.1 154.2,225.3 156.0,224.4 157.8,223.6 159.5,222.8 161.3,221.9 163.1,221.1 164.9,220.2 166.7,219.4 168.5,218.5 170.3,217.7 172.1,216.8 173.9,216.0 175.6,215.1 177.4,214.3 179.2,213.4 181.0,212.5 182.8,211.7 184.6,210.8 186.4,209.9 188.2,209.1 190.0,208.2 191.7,207.3 193.5,206.4 195.3,205.5 197.1,204.6 198.9,203.8 200.7,202.9 202.5,202.0 204.3,201.1 206.1,200.2 207.8,199.3 209.6,198.4 211.4,197.5 213.2,196.6 215.0,195.7 216.8,194.8 218.6,193.8 220.4,192.9 222.2,192.0 223.9,191.1 225.7,190.2 227.5,189.3 229.3,188.3 231.1,187.4 232.9,186.5 234.7,185.6 236.5,184.6 238.3,183.7 240.1,182.8 241.8,181.9 243.6,180.9 245.4,180.0 247.2,179.1 249.0,178.1 250.8,177.2 252.6,176.2 254.4,175.3 256.2,174.4 257.9,173.4 259.7,172.5 261.5,171.5 263.3,170.6 265.1,169.6 266.9,168.7 268.7,167.7 270.5,166.8 272.3,165.8 274.0,164.9 275.8,163.9 277.6,163.0 279.4,162.0 281.2,161.0 283.0,160.1 284.8,159.1 286.6,158.2 288.4,157.2 290.1,156.2 291.9,155.2 293.7,154.3 295.5,153.3 297.3,152.3 299.1,151.3 300.9,150.4 302.7,149.4 304.5,148.4 306.2,147.4 308.0,146.5 309.8,145.5 311.6,144.5 313.4,143.5 315.2,142.5 317.0,141.5 318.8,140.6 320.6,139.6 322.3,138.6 324.1,137.6 325.9,136.6 327.7,135.6 329.5,134.7 331.3,133.7 333.1,132.7 334.9,131.7 336.7,130.7 338.4,129.7 340.2,128.7 342.0,127.7 343.8,126.8 345.6,125.8 347.4,124.8 349.2,123.8 351.0,122.8 352.8,121.8 354.5,120.8 356.3,119.8 358.1,118.9 359.9,117.8 361.7,116.9 363.5,115.9 365.3,114.9 367.1,113.9 368.9,112.9 370.6,111.9 372.4,110.9 374.2,109.9 376.0,109.0 377.8,107.9 379.6,107.0 381.4,106.0 383.2,105.0 385.0,104.0 386.7,103.0 388.5,102.0 390.3,101.1 392.1,100.0 393.9,99.1 395.7,98.1 397.5,97.1 399.3,96.1 401.1,95.1 402.8,94.1 404.6,93.2 406.4,92.2 408.2,91.2 410.0,90.2 411.8,89.2 413.6,88.2 415.4,87.3 417.2,86.3 418.9,85.3 420.7,84.3 422.5,83.4 424.3,82.3 426.1,81.4 427.9,80.4 429.7,79.5 431.5,78.5 433.3,77.5 435.0,76.5 436.8,75.6 438.6,74.6 440.4,73.7 442.2,72.7 444.0,71.8 445.8,70.9 447.6,70.0 449.4,69.0 451.1,68.1 452.9,67.2 454.7,66.3 456.5,65.3 458.3,64.4 460.1,63.6 461.9,62.8 463.7,62.0 465.5,61.4 467.2,60.7 469.0,60.0 470.8,59.4 472.6,58.9 474.4,58.4 476.2,57.9 478.0,57.4 479.8,57.0 481.6,56.5 483.3,56.1 485.1,55.8 486.9,55.5 488.7,55.2 490.5,55.0 492.3,54.7 494.1,54.5 495.9,54.3 497.7,54.2 499.4,54.1 501.2,54.1 503.0,54.0 504.8,54.1 506.6,54.2 508.4,54.4 510.2,54.5 512.0,54.8 513.8,55.1 515.5,55.5 517.3,55.9 519.1,56.5 520.9,57.1 522.7,57.8 524.5,58.6 526.3,59.5 528.1,60.5 529.9,61.6 531.6,62.9 533.4,64.2 535.2,65.7 537.0,67.3 538.8,69.0 540.6,70.8 542.4,72.8 544.2,74.8 546.0,76.8 547.7,78.8 549.5,80.8 551.3,82.8 553.1,84.9 554.9,86.9 556.7,89.0 558.5,91.0 560.3,93.1 562.1,95.2 563.8,97.3 565.6,99.4 567.4,101.6 569.2,103.7 571.0,105.9 572.8,108.1 574.6,110.3 576.4,112.5 578.2,114.7 579.9,116.9 581.7,119.2 583.5,121.4 585.3,123.6 587.1,125.9 588.9,128.1 590.7,130.3 592.5,132.6 594.3,134.8 596.1,137.0 597.8,139.2 599.6,141.5 601.4,143.7 603.2,145.9 605.0,148.0 606.8,150.2 608.6,152.4 610.4,154.5 612.2,156.7 613.9,158.8 615.7,160.9 617.5,162.9 619.3,165.0 621.1,167.0 622.9,169.1 624.7,171.1 626.5,173.0 628.3,175.0 630.0,176.9 631.8,178.7 633.6,180.6 635.4,182.4 637.2,184.1 639.0,185.7 640.8,187.3 642.6,188.7 644.4,190.0 646.1,191.1 647.9,192.1 649.7,193.0 651.5,193.7 653.3,194.3 655.1,194.8 656.9,195.2 658.7,195.5 660.5,195.8 662.2,196.2 664.0,196.5 665.8,196.9 667.6,197.3 669.4,197.8 671.2,198.3 673.0,198.8 674.8,199.3 676.6,199.9 678.3,200.5 680.1,201.1 681.9,201.7 683.7,202.4 685.5,203.1 687.3,203.8 689.1,204.6 690.9,205.3 692.7,206.1 694.4,206.9 696.2,207.7 698.0,208.5 699.8,209.4 701.6,210.2 703.4,211.1 705.2,212.0 707.0,212.9 708.8,213.8 710.5,214.8 712.3,215.7 714.1,216.7 715.9,217.6 717.7,218.6 719.5,219.7 721.3,220.7 723.1,221.7 724.9,222.8 726.6,223.8 728.4,224.9 730.2,225.9 732.0,227.0 733.8,228.1 735.6,229.1 737.4,230.1 739.2,231.2 741.0,232.1 742.7,233.1 744.5,234.0 746.3,235.0 748.1,235.9 749.9,236.8 751.7,237.6 753.5,238.5 755.3,239.4 757.1,240.3 758.8,241.2 760.6,242.1 762.4,243.0 764.2,244.0 766.0,244.9"/>
<line x1="606" y1="42" x2="628" y2="42" stroke="#0f62fe" stroke-width="2.2"/>
<text x="634" y="46" font-family="Arial" font-size="12">energy_j_per_kg</text>
</svg>