<svg xmlns="http://www.w3.org/2000/svg" width="820" height="320" viewBox="0 0 820 320">
<rect width="100%" height="100%" fill="#ffffff"/>
<text x="54" y="28" font-family="Arial" font-size="18" font-weight="700">Qbar/Load Envelope</text>
<line x1="54" y1="266" x2="766" y2="266" stroke="#1f2933"/>
<line x1="54" y1="54" x2="54" y2="266" stroke="#1f2933"/>
<text x="54" y="306" font-family="Arial" font-size="12">qbar (Pa)</text>
<text x="596" y="306" font-family="Arial" font-size="12">load factor (g)</text>
<text x="58" y="68" font-family="Arial" font-size="11">6.79</text>
<text x="58" y="260" font-family="Arial" font-size="11">1.75</text>
<polyline fill="none" stroke="#0f62fe" stroke-width="2.2" points="54.0,266.0 55.8,264.8 57.6,263.6 59.5,262.3 61.4,261.1 63.4,259.8 65.4,258.5 67.4,257.2 69.5,255.9 71.6,254.5 73.8,253.2 76.1,251.9 78.3,250.6 80.7,249.2 83.0,248.8 85.5,248.9 87.9,248.9 90.3,248.9 92.8,249.0 95.2,249.0 97.7,249.0 100.2,249.1 102.7,249.1 105.2,249.1 107.7,249.2 110.2,249.2 112.7,249.2 115.3,249.2 117.9,249.3 120.4,249.3 123.0,249.3 125.6,249.3 128.2,249.4 130.9,249.4 133.5,249.4 136.2,249.4 138.8,249.5 141.5,249.5 144.2,249.5 146.9,249.5 149.6,249.5 152.3,249.5 155.0,249.6 157.8,249.6 160.5,249.6 163.3,249.6 166.1,249.6 168.8,249.6 171.6,249.7 174.4,249.7 177.3,249.7 180.1,249.7 182.9,249.7 185.8,249.7 188.6,249.7 191.5,249.8 194.4,249.8 197.3,249.8 200.1,249.8 203.1,249.8 206.0,249.8 208.9,249.8 211.8,249.8 214.8,249.8 217.7,249.8 220.7,249.8 223.7,249.8 226.7,249.9 229.7,249.9 232.7,249.9 235.7,249.9 238.7,249.9 241.7,249.9 244.8,249.9 247.8,249.9 250.9,249.9 253.9,249.9 257.0,249.9 260.1,249.9 263.2,249.9 266.3,249.9 269.4,249.9 272.5,249.9 275.6,249.9 278.7,249.9 281.9,249.9 285.0,249.9 288.1,249.9 291.3,249.8 294.5,249.8 297.6,249.8 300.8,249.8 304.0,249.7 307.2,249.7 310.3,249.7 313.5,249.6 316.7,249.6 319.9,249.5 323.2,249.5 326.4,249.5 329.6,249.4 332.8,249.4 336.0,249.3 339.3,249.3 342.5,249.2 345.7,249.2 349.0,249.1 352.2,249.1 355.5,249.1 358.8,249.0 362.0,249.0 365.3,248.9 368.5,248.9 371.8,248.8 375.1,248.8 378.4,248.7 381.6,248.7 384.9,248.6 388.2,248.6 391.5,248.6 394.8,248.5 398.1,248.5 401.4,248.5 404.7,248.3 408.0,248.5 411.3,248.1 414.6,248.8 418.0,247.3 421.3,250.0 424.6,245.3 427.9,249.9 431.2,245.9 434.5,250.8 437.9,246.7 441.2,251.3 444.6,246.5 448.0,250.8 451.4,245.7 454.7,250.3 458.1,245.1 461.4,250.3 464.8,245.2 468.1,250.6 471.5,245.3 474.8,250.6 478.2,245.0 481.5,250.4 484.9,244.5 488.2,250.2 491.6,244.2 494.9,250.1 498.3,244.1 501.6,250.2 505.0,243.9 508.3,250.1 511.7,243.6 515.0,249.9 518.4,243.2 521.7,249.8 525.1,243.0 528.4,249.8 531.8,242.7 535.1,249.7 538.5,242.4 541.8,249.6 545.2,242.1 548.4,249.5 551.8,241.8 555.1,249.4 558.5,241.5 561.7,249.3 565.1,241.2 568.3,249.2 571.7,240.8 575.0,249.1 578.3,240.5 581.6,249.0 584.9,240.1 588.1,248.9 591.5,239.8 594.7,248.8 598.1,239.4 601.3,248.7 604.6,239.1 607.8,248.5 611.1,238.8 614.3,248.4 617.7,238.5 620.8,248.3 624.2,238.2 627.3,248.1 630.6,237.9 633.8,248.0 637.1,237.6 640.2,247.9 643.5,237.3 646.7,247.7 649.9,236.9 653.1,247.5 656.3,236.5 659.4,247.2 662.7,236.0 665.8,246.9 669.0,235.4 672.1,246.5 675.3,234.9 678.4,246.1 681.6,234.2 684.6,245.6 687.8,233.5 690.8,245.1 694.0,232.7 697.0,244.4 700.1,231.8 703.1,243.7 706.2,230.7 709.1,242.8 712.2,229.6 715.1,241.9 718.1,228.4 721.0,240.9 724.0,227.2 726.8,239.8 729.8,227.0 732.6,239.7 735.5,227.1 738.3,232.8 741.0,210.0 743.4,217.0 745.7,196.5 747.7,207.4 749.8,195.6 751.6,193.9 753.3,176.8 754.7,191.3 756.3,173.1 757.6,187.9 759.1,169.5 760.2,180.7 761.4,157.0 762.2,169.1 763.2,145.6 763.7,158.4 764.3,141.2 764.7,158.4 765.3,141.1 765.6,150.6 766.0,126.8 765.8,136.8 765.9,128.3 765.6,134.5 765.4,120.3 764.6,130.8 764.1,117.5 763.0,128.6 762.2,115.5 760.7,120.0 759.3,110.8 757.4,114.2 755.6,105.1 753.2,106.9 750.7,99.5 747.7,98.1 744.6,93.0 741.1,88.9 737.2,84.5 733.0,79.4 728.3,74.3 723.3,68.8 717.8,62.9 711.9,59.2 705.6,56.7 698.8,54.0 691.6,60.0 684.4,66.8 677.2,73.7 670.0,80.8 662.6,88.0 655.3,94.9 647.9,101.4 640.5,107.8 633.0,113.9 625.6,119.8 618.1,125.0 610.6,124.5 603.1,124.0 595.5,123.7 587.9,123.4 580.2,123.3 572.5,123.2 564.7,123.1 556.9,123.2 549.1,123.3 541.3,123.5 533.4,123.7 525.6,124.0 517.8,124.4 509.9,124.8 502.1,125.3 494.2,125.8 486.4,126.4 478.6,127.0 470.9,127.7 463.1,128.4 455.4,129.2 447.8,130.0 440.1,130.8 432.5,131.7 425.0,132.6 417.5,133.6 410.1,134.6 402.7,135.6 395.4,136.7 388.2,137.8 381.1,138.9 374.0,140.1 367.0,141.3 360.1,142.5 353.3,143.8 346.6,145.1 339.9,146.7 333.5,148.0 327.1,149.9 320.9,150.9 314.8,152.0 308.8,155.5 303.1,159.2 297.7,163.4 292.6,168.6 288.0,174.2 283.9,180.2 280.3,186.3 277.2,192.4 274.6,198.8 272.5,205.0 270.8,210.7 269.6,215.8 268.6,219.9 267.8,222.2 267.1,222.0 266.5,220.0 265.7,216.7 264.8,213.9 263.8,212.6 262.7,211.8 261.5,210.8 260.2,209.6 258.8,208.2 257.4,206.9 255.9,205.6 254.3,204.5 252.6,203.5 250.8,202.5 249.0,201.6 247.1,200.7 245.1,199.9 243.1,199.1 241.0,198.4 238.9,197.6 236.7,197.0 234.5,196.3 232.2,195.8 229.8,195.3 227.5,194.9 225.0,194.7 222.6,194.3 220.1,193.9 217.6,193.2 215.1,192.4 212.5,191.6 209.8,191.0 207.1,190.4 204.3,190.0 201.5,189.6 198.6,189.5 195.8,189.5 192.9,189.7 190.0,190.0 187.1,190.6 184.2,190.8 181.3,190.8 178.5,192.1 175.7,193.2 173.0,194.1 170.4,195.2 167.9,196.3 165.4,197.1 163.1,197.9 160.8,198.4 158.5,198.8 156.3,199.1 154.1,199.1 151.9,199.0 149.7,198.5 147.4,198.0 145.1,197.6 142.7,197.3 140.3,197.2 137.9,197.2"/>
<line x1="606" y1="42" x2="628" y2="42" stroke="#0f62fe" stroke-width="2.2"/>
<text x="634" y="46" font-family="Arial" font-size="12">load_factor_g</text>
</svg>