<svg xmlns="http://www.w3.org/2000/svg" width="820" height="320" viewBox="0 0 820 320">
<rect width="100%" height="100%" fill="#ffffff"/>
<text x="54" y="28" font-family="Arial" font-size="18" font-weight="700">Altitude</text>
<line x1="54" y1="266" x2="766" y2="266" stroke="#1f2933"/>
<line x1="54" y1="54" x2="54" y2="266" stroke="#1f2933"/>
<text x="54" y="306" font-family="Arial" font-size="12">time (s)</text>
<text x="596" y="306" font-family="Arial" font-size="12">altitude (m)</text>
<text x="58" y="68" font-family="Arial" font-size="11">347</text>
<text x="58" y="260" font-family="Arial" font-size="11">20</text>
<polyline fill="none" stroke="#0f62fe" stroke-width="2.2" points="54.0,266.0 55.2,265.8 56.4,265.7 57.6,265.6 58.7,265.4 59.9,265.3 61.1,265.2 62.3,265.0 63.5,264.9 64.7,264.8 65.9,264.6 67.1,264.5 68.2,264.4 69.4,264.3 70.6,264.2 71.8,264.1 73.0,264.0 74.2,263.9 75.4,263.8 76.5,263.7 77.7,263.6 78.9,263.5 80.1,263.4 81.3,263.3 82.5,263.2 83.7,263.1 84.9,263.0 86.0,262.9 87.2,262.8 88.4,262.8 89.6,262.7 90.8,262.6 92.0,262.5 93.2,262.5 94.3,262.4 95.5,262.3 96.7,262.2 97.9,262.2 99.1,262.1 100.3,262.0 101.5,262.0 102.7,261.9 103.8,261.8 105.0,261.8 106.2,261.7 107.4,261.7 108.6,261.6 109.8,261.5 111.0,261.5 112.1,261.4 113.3,261.4 114.5,261.3 115.7,261.3 116.9,261.2 118.1,261.2 119.3,261.1 120.5,261.1 121.6,261.0 122.8,261.0 124.0,260.9 125.2,260.9 126.4,260.8 127.6,260.8 128.8,260.7 129.9,260.7 131.1,260.7 132.3,260.6 133.5,260.6 134.7,260.5 135.9,260.5 137.1,260.4 138.3,260.4 139.4,260.4 140.6,260.3 141.8,260.3 143.0,260.2 144.2,260.2 145.4,260.2 146.6,260.1 147.7,260.1 148.9,260.0 150.1,260.0 151.3,260.0 152.5,259.9 153.7,259.9 154.9,259.8 156.1,259.8 157.2,259.8 158.4,259.7 159.6,259.7 160.8,259.6 162.0,259.6 163.2,259.5 164.4,259.5 165.5,259.5 166.7,259.4 167.9,259.4 169.1,259.3 170.3,259.3 171.5,259.2 172.7,259.2 173.9,259.1 175.0,259.1 176.2,259.0 177.4,259.0 178.6,258.9 179.8,258.8 181.0,258.8 182.2,258.7 183.3,258.7 184.5,258.6 185.7,258.5 186.9,258.5 188.1,258.4 189.3,258.3 190.5,258.3 191.7,258.2 192.8,258.1 194.0,258.1 195.2,258.0 196.4,257.9 197.6,257.8 198.8,257.7 200.0,257.6 201.1,257.6 202.3,257.5 203.5,257.4 204.7,257.3 205.9,257.2 207.1,257.1 208.3,257.0 209.5,256.9 210.6,256.8 211.8,256.7 213.0,256.6 214.2,256.5 215.4,256.3 216.6,256.2 217.8,256.1 218.9,256.0 220.1,255.9 221.3,255.7 222.5,255.6 223.7,255.5 224.9,255.3 226.1,255.2 227.3,255.1 228.4,254.9 229.6,254.8 230.8,254.6 232.0,254.5 233.2,254.3 234.4,254.2 235.6,254.0 236.7,253.8 237.9,253.7 239.1,253.5 240.3,253.3 241.5,253.1 242.7,253.0 243.9,252.8 245.1,252.6 246.2,252.4 247.4,252.2 248.6,252.0 249.8,251.8 251.0,251.6 252.2,251.4 253.4,251.2 254.5,251.0 255.7,250.8 256.9,250.6 258.1,250.4 259.3,250.2 260.5,249.9 261.7,249.7 262.9,249.5 264.0,249.3 265.2,249.0 266.4,248.8 267.6,248.5 268.8,248.3 270.0,248.0 271.2,247.8 272.3,247.5 273.5,247.3 274.7,247.0 275.9,246.8 277.1,246.5 278.3,246.2 279.5,246.0 280.7,245.7 281.8,245.4 283.0,245.1 284.2,244.8 285.4,244.5 286.6,244.3 287.8,244.0 289.0,243.7 290.1,243.4 291.3,243.1 292.5,242.8 293.7,242.5 294.9,242.2 296.1,241.9 297.3,241.5 298.5,241.2 299.6,240.9 300.8,240.6 302.0,240.3 303.2,239.9 304.4,239.6 305.6,239.3 306.8,238.9 307.9,238.6 309.1,238.3 310.3,237.9 311.5,237.6 312.7,237.2 313.9,236.9 315.1,236.5 316.3,236.1 317.4,235.8 318.6,235.4 319.8,235.1 321.0,234.7 322.2,234.3 323.4,234.0 324.6,233.6 325.7,233.2 326.9,232.8 328.1,232.5 329.3,232.1 330.5,231.7 331.7,231.3 332.9,230.9 334.1,230.5 335.2,230.1 336.4,229.7 337.6,229.3 338.8,228.9 340.0,228.5 341.2,228.1 342.4,227.7 343.5,227.2 344.7,226.8 345.9,226.4 347.1,225.9 348.3,225.5 349.5,225.0 350.7,224.6 351.9,224.1 353.0,223.7 354.2,223.2 355.4,222.8 356.6,222.3 357.8,221.8 359.0,221.3 360.2,220.8 361.3,220.4 362.5,219.9 363.7,219.4 364.9,218.9 366.1,218.4 367.3,217.9 368.5,217.4 369.7,216.9 370.8,216.4 372.0,215.9 373.2,215.4 374.4,214.9 375.6,214.4 376.8,213.8 378.0,213.3 379.1,212.8 380.3,212.3 381.5,211.8 382.7,211.3 383.9,210.7 385.1,210.2 386.3,209.7 387.5,209.1 388.6,208.6 389.8,208.1 391.0,207.6 392.2,207.0 393.4,206.5 394.6,206.0 395.8,205.4 396.9,204.9 398.1,204.4 399.3,203.8 400.5,203.3 401.7,202.7 402.9,202.2 404.1,201.7 405.3,201.1 406.4,200.6 407.6,200.0 408.8,199.5 410.0,198.9 411.2,198.4 412.4,197.9 413.6,197.3 414.7,196.8 415.9,196.2 417.1,195.7 418.3,195.1 419.5,194.6 420.7,194.0 421.9,193.5 423.1,192.9 424.2,192.4 425.4,191.8 426.6,191.3 427.8,190.7 429.0,190.2 430.2,189.6 431.4,189.1 432.5,188.5 433.7,188.0 434.9,187.4 436.1,186.9 437.3,186.3 438.5,185.8 439.7,185.2 440.9,184.7 442.0,184.1 443.2,183.6 444.4,183.0 445.6,182.5 446.8,181.9 448.0,181.4 449.2,180.8 450.3,180.3 451.5,179.7 452.7,179.2 453.9,178.6 455.1,178.1 456.3,177.5 457.5,176.9 458.7,176.4 459.8,175.8 461.0,175.3 462.2,174.7 463.4,174.2 464.6,173.6 465.8,173.1 467.0,172.5 468.1,172.0 469.3,171.4 470.5,170.8 471.7,170.3 472.9,169.7 474.1,169.2 475.3,168.6 476.5,168.1 477.6,167.5 478.8,167.0 480.0,166.4 481.2,165.8 482.4,165.3 483.6,164.7 484.8,164.2 485.9,163.6 487.1,163.1 488.3,162.5 489.5,161.9 490.7,161.4 491.9,160.8 493.1,160.3 494.3,159.7 495.4,159.2 496.6,158.6 497.8,158.0 499.0,157.5 500.2,156.9 501.4,156.4 502.6,155.8 503.7,155.3 504.9,154.7 506.1,154.1 507.3,153.6 508.5,153.0 509.7,152.5 510.9,151.9 512.1,151.4 513.2,150.8 514.4,150.2 515.6,149.7 516.8,149.1 518.0,148.6 519.2,148.0 520.4,147.5 521.5,146.9 522.7,146.3 523.9,145.8 525.1,145.2 526.3,144.7 527.5,144.1 528.7,143.6 529.9,143.0 531.0,142.5 532.2,141.9 533.4,141.3 534.6,140.8 535.8,140.2 537.0,139.7 538.2,139.1 539.3,138.6 540.5,138.0 541.7,137.5 542.9,136.9 544.1,136.4 545.3,135.8 546.5,135.2 547.7,134.7 548.8,134.1 550.0,133.6 551.2,133.0 552.4,132.5 553.6,131.9 554.8,131.4 556.0,130.8 557.1,130.3 558.3,129.7 559.5,129.2 560.7,128.6 561.9,128.1 563.1,127.5 564.3,127.0 565.5,126.4 566.6,125.9 567.8,125.3 569.0,124.8 570.2,124.2 571.4,123.7 572.6,123.1 573.8,122.6 574.9,122.0 576.1,121.5 577.3,121.0 578.5,120.4 579.7,119.9 580.9,119.4 582.1,118.8 583.3,118.3 584.4,117.8 585.6,117.3 586.8,116.7 588.0,116.2 589.2,115.7 590.4,115.2 591.6,114.7 592.7,114.2 593.9,113.7 595.1,113.1 596.3,112.6 597.5,112.1 598.7,111.6 599.9,111.1 601.1,110.6 602.2,110.1 603.4,109.6 604.6,109.1 605.8,108.6 607.0,108.1 608.2,107.6 609.4,107.2 610.5,106.7 611.7,106.2 612.9,105.7 614.1,105.2 615.3,104.7 616.5,104.2 617.7,103.8 618.9,103.3 620.0,102.8 621.2,102.3 622.4,101.8 623.6,101.4 624.8,100.9 626.0,100.4 627.2,100.0 628.3,99.5 629.5,99.0 630.7,98.6 631.9,98.1 633.1,97.6 634.3,97.2 635.5,96.7 636.7,96.3 637.8,95.8 639.0,95.4 640.2,94.9 641.4,94.5 642.6,94.0 643.8,93.6 645.0,93.1 646.1,92.7 647.3,92.2 648.5,91.8 649.7,91.3 650.9,90.9 652.1,90.4 653.3,90.0 654.5,89.6 655.6,89.1 656.8,88.7 658.0,88.3 659.2,87.8 660.4,87.4 661.6,87.0 662.8,86.6 663.9,86.1 665.1,85.7 666.3,85.3 667.5,84.9 668.7,84.4 669.9,84.0 671.1,83.6 672.3,83.2 673.4,82.8 674.6,82.3 675.8,81.9 677.0,81.5 678.2,81.1 679.4,80.7 680.6,80.3 681.7,79.9 682.9,79.5 684.1,79.1 685.3,78.7 686.5,78.3 687.7,77.9 688.9,77.5 690.1,77.1 691.2,76.7 692.4,76.3 693.6,75.9 694.8,75.5 696.0,75.1 697.2,74.7 698.4,74.3 699.5,73.9 700.7,73.5 701.9,73.2 703.1,72.8 704.3,72.4 705.5,72.0 706.7,71.6 707.9,71.2 709.0,70.9 710.2,70.5 711.4,70.1 712.6,69.7 713.8,69.4 715.0,69.0 716.2,68.6 717.3,68.2 718.5,67.9 719.7,67.5 720.9,67.1 722.1,66.8 723.3,66.4 724.5,66.0 725.7,65.7 726.8,65.3 728.0,65.0 729.2,64.6 730.4,64.2 731.6,63.9 732.8,63.5 734.0,63.2 735.1,62.8 736.3,62.5 737.5,62.1 738.7,61.8 739.9,61.4 741.1,61.1 742.3,60.7 743.5,60.4 744.6,60.0 745.8,59.7 747.0,59.3 748.2,59.0 749.4,58.7 750.6,58.3 751.8,58.0 752.9,57.6 754.1,57.3 755.3,57.0 756.5,56.6 757.7,56.3 758.9,56.0 760.1,55.6 761.3,55.3 762.4,55.0 763.6,54.7 764.8,54.3 766.0,54.0"/>
<line x1="606" y1="42" x2="628" y2="42" stroke="#0f62fe" stroke-width="2.2"/>
<text x="634" y="46" font-family="Arial" font-size="12">altitude_m</text>
</svg>