<svg xmlns="http://www.w3.org/2000/svg" width="820" height="320" viewBox="0 0 820 320">
<rect width="100%" height="100%" fill="#ffffff"/>
<text x="54" y="28" font-family="Arial" font-size="18" font-weight="700">Velocity Z</text>
<line x1="54" y1="266" x2="766" y2="266" stroke="#1f2933"/>
<line x1="54" y1="54" x2="54" y2="266" stroke="#1f2933"/>
<text x="54" y="306" font-family="Arial" font-size="12">time (s)</text>
<text x="596" y="306" font-family="Arial" font-size="12">vz (m/s)</text>
<text x="58" y="68" font-family="Arial" font-size="11">28.7</text>
<text x="58" y="260" font-family="Arial" font-size="11">2.07</text>
<polyline fill="none" stroke="#0f62fe" stroke-width="2.2" points="54.0,218.8 55.2,220.7 56.4,222.4 57.6,224.0 58.7,225.4 59.9,226.8 61.1,228.1 62.3,229.4 63.5,230.6 64.7,231.8 65.9,232.9 67.1,233.9 68.2,235.0 69.4,236.0 70.6,236.9 71.8,237.8 73.0,238.7 74.2,239.6 75.4,240.5 76.5,241.3 77.7,242.1 78.9,242.9 80.1,243.7 81.3,244.5 82.5,245.3 83.7,246.0 84.9,246.8 86.0,247.5 87.2,248.2 88.4,248.9 89.6,249.5 90.8,250.2 92.0,250.8 93.2,251.5 94.3,252.1 95.5,252.7 96.7,253.3 97.9,253.9 99.1,254.5 100.3,255.0 101.5,255.6 102.7,256.1 103.8,256.6 105.0,257.1 106.2,257.6 107.4,258.1 108.6,258.5 109.8,259.0 111.0,259.4 112.1,259.8 113.3,260.2 114.5,260.6 115.7,261.0 116.9,261.4 118.1,261.7 119.3,262.1 120.5,262.4 121.6,262.7 122.8,263.0 124.0,263.3 125.2,263.5 126.4,263.8 127.6,264.0 128.8,264.3 129.9,264.5 131.1,264.7 132.3,264.9 133.5,265.0 134.7,265.2 135.9,265.3 137.1,265.5 138.3,265.6 139.4,265.7 140.6,265.8 141.8,265.8 143.0,265.9 144.2,265.9 145.4,266.0 146.6,266.0 147.7,266.0 148.9,266.0 150.1,266.0 151.3,265.9 152.5,265.9 153.7,265.8 154.9,265.7 156.1,265.6 157.2,265.5 158.4,265.4 159.6,265.2 160.8,265.1 162.0,264.9 163.2,264.6 164.4,264.4 165.5,264.1 166.7,263.9 167.9,263.5 169.1,263.2 170.3,262.9 171.5,262.5 172.7,262.1 173.9,261.7 175.0,261.3 176.2,260.8 177.4,260.4 178.6,259.9 179.8,259.4 181.0,258.8 182.2,258.3 183.3,257.7 184.5,257.1 185.7,256.5 186.9,255.9 188.1,255.2 189.3,254.5 190.5,253.9 191.7,253.1 192.8,252.4 194.0,251.7 195.2,250.9 196.4,250.1 197.6,249.4 198.8,248.5 200.0,247.7 201.1,246.9 202.3,246.0 203.5,245.1 204.7,244.3 205.9,243.3 207.1,242.4 208.3,241.5 209.5,240.6 210.6,239.6 211.8,238.6 213.0,237.6 214.2,236.6 215.4,235.6 216.6,234.6 217.8,233.6 218.9,232.5 220.1,231.5 221.3,230.4 222.5,229.3 223.7,228.2 224.9,227.1 226.1,226.0 227.3,224.9 228.4,223.8 229.6,222.6 230.8,221.5 232.0,220.3 233.2,219.2 234.4,218.0 235.6,216.8 236.7,215.6 237.9,214.5 239.1,213.3 240.3,212.1 241.5,210.9 242.7,209.6 243.9,208.4 245.1,207.2 246.2,206.0 247.4,204.8 248.6,203.5 249.8,202.3 251.0,201.1 252.2,199.8 253.4,198.6 254.5,197.3 255.7,196.1 256.9,194.8 258.1,193.6 259.3,192.3 260.5,191.1 261.7,189.8 262.9,188.5 264.0,187.3 265.2,186.0 266.4,184.8 267.6,183.5 268.8,182.3 270.0,181.0 271.2,179.8 272.3,178.5 273.5,177.3 274.7,176.0 275.9,174.8 277.1,173.5 278.3,172.3 279.5,171.1 280.7,169.8 281.8,168.7 283.0,167.1 284.2,166.6 285.4,165.4 286.6,164.7 287.8,163.0 289.0,162.2 290.1,160.7 291.3,160.2 292.5,159.0 293.7,158.6 294.9,157.1 296.1,156.4 297.3,154.5 298.5,153.3 299.6,151.4 300.8,150.6 302.0,149.0 303.2,148.7 304.4,147.5 305.6,147.0 306.8,145.4 307.9,144.5 309.1,142.5 310.3,141.5 311.5,139.7 312.7,139.0 313.9,137.4 315.1,136.9 316.3,135.5 317.4,135.2 318.6,134.0 319.8,133.9 321.0,132.9 322.2,132.9 323.4,131.7 324.6,131.5 325.7,130.1 326.9,129.6 328.1,128.0 329.3,127.4 330.5,125.6 331.7,124.8 332.9,122.8 334.1,121.9 335.2,119.7 336.4,118.6 337.6,116.3 338.8,115.1 340.0,112.8 341.2,111.6 342.4,109.3 343.5,108.2 344.7,105.9 345.9,104.8 347.1,102.6 348.3,101.5 349.5,99.2 350.7,98.1 351.9,95.9 353.0,94.8 354.2,92.6 355.4,91.7 356.6,89.6 357.8,88.8 359.0,86.8 360.2,86.1 361.3,84.2 362.5,83.6 363.7,81.9 364.9,81.4 366.1,79.7 367.3,79.3 368.5,77.7 369.7,77.3 370.8,75.8 372.0,75.5 373.2,74.1 374.4,73.9 375.6,72.5 376.8,72.4 378.0,71.0 379.1,71.0 380.3,69.7 381.5,69.7 382.7,68.4 383.9,68.5 385.1,67.3 386.3,67.4 387.5,66.2 388.6,66.4 389.8,65.3 391.0,65.5 392.2,64.4 393.4,64.6 394.6,63.6 395.8,63.8 396.9,62.8 398.1,63.1 399.3,62.1 400.5,62.5 401.7,61.5 402.9,61.9 404.1,60.9 405.3,61.3 406.4,60.4 407.6,60.8 408.8,59.9 410.0,60.4 411.2,59.5 412.4,59.9 413.6,59.1 414.7,59.6 415.9,58.7 417.1,59.2 418.3,58.4 419.5,58.9 420.7,58.1 421.9,58.7 423.1,57.8 424.2,58.4 425.4,57.6 426.6,58.2 427.8,57.4 429.0,58.0 430.2,57.2 431.4,57.9 432.5,57.1 433.7,57.7 434.9,56.9 436.1,57.6 437.3,56.7 438.5,57.4 439.7,56.6 440.9,57.2 442.0,56.4 443.2,57.1 444.4,56.2 445.6,56.9 446.8,56.1 448.0,56.8 449.2,55.9 450.3,56.6 451.5,55.8 452.7,56.5 453.9,55.6 455.1,56.3 456.3,55.4 457.5,56.2 458.7,55.3 459.8,56.0 461.0,55.2 462.2,55.9 463.4,55.0 464.6,55.8 465.8,54.9 467.0,55.7 468.1,54.8 469.3,55.6 470.5,54.7 471.7,55.5 472.9,54.6 474.1,55.4 475.3,54.5 476.5,55.3 477.6,54.4 478.8,55.2 480.0,54.3 481.2,55.1 482.4,54.2 483.6,55.1 484.8,54.2 485.9,55.0 487.1,54.1 488.3,55.0 489.5,54.1 490.7,54.9 491.9,54.1 493.1,54.9 494.3,54.0 495.4,54.9 496.6,54.0 497.8,54.9 499.0,54.0 500.2,54.9 501.4,54.0 502.6,54.9 503.7,54.0 504.9,54.9 506.1,54.0 507.3,54.9 508.5,54.1 509.7,55.0 510.9,54.1 512.1,55.0 513.2,54.1 514.4,55.1 515.6,54.2 516.8,55.1 518.0,54.2 519.2,55.2 520.4,54.3 521.5,55.3 522.7,54.4 523.9,55.4 525.1,54.5 526.3,55.4 527.5,54.6 528.7,55.5 529.9,54.7 531.0,55.7 532.2,54.8 533.4,55.8 534.6,54.9 535.8,55.9 537.0,55.0 538.2,56.0 539.3,55.1 540.5,56.1 541.7,55.2 542.9,56.2 544.1,55.3 545.3,56.4 546.5,55.5 547.7,56.5 548.8,55.6 550.0,56.6 551.2,55.8 552.4,56.8 553.6,55.9 554.8,56.9 556.0,56.1 557.1,57.1 558.3,56.2 559.5,57.3 560.7,56.4 561.9,57.4 563.1,56.6 564.3,57.6 565.5,56.7 566.6,57.8 567.8,56.9 569.0,58.0 570.2,57.8 571.4,59.6 572.6,59.4 573.8,61.2 574.9,61.0 576.1,62.8 577.3,62.6 578.5,64.3 579.7,64.1 580.9,65.8 582.1,65.6 583.3,67.3 584.4,67.1 585.6,68.7 586.8,68.5 588.0,70.1 589.2,69.9 590.4,71.5 591.6,71.3 592.7,72.9 593.9,72.7 595.1,74.3 596.3,74.1 597.5,75.6 598.7,75.4 599.9,77.0 601.1,76.8 602.2,78.3 603.4,78.0 604.6,79.5 605.8,79.3 607.0,80.8 608.2,80.6 609.4,82.0 610.5,81.8 611.7,83.2 612.9,83.0 614.1,84.5 615.3,84.2 616.5,85.7 617.7,85.4 618.9,86.9 620.0,86.6 621.2,88.1 622.4,87.8 623.6,89.2 624.8,89.0 626.0,90.4 627.2,90.2 628.3,91.6 629.5,91.4 630.7,92.8 631.9,92.6 633.1,93.9 634.3,93.7 635.5,95.1 636.7,94.9 637.8,96.2 639.0,96.0 640.2,97.4 641.4,97.2 642.6,98.5 643.8,98.3 645.0,99.6 646.1,99.4 647.3,100.7 648.5,100.6 649.7,101.9 650.9,101.7 652.1,103.0 653.3,102.8 654.5,104.1 655.6,103.9 656.8,105.2 658.0,105.0 659.2,106.2 660.4,106.1 661.6,107.3 662.8,107.2 663.9,108.4 665.1,108.2 666.3,109.5 667.5,109.3 668.7,110.5 669.9,110.4 671.1,111.6 672.3,111.4 673.4,112.6 674.6,112.5 675.8,113.7 677.0,113.5 678.2,114.7 679.4,114.5 680.6,115.7 681.7,115.6 682.9,116.8 684.1,116.6 685.3,117.8 686.5,117.6 687.7,118.8 688.9,118.6 690.1,119.8 691.2,119.7 692.4,120.8 693.6,120.7 694.8,121.8 696.0,121.7 697.2,122.8 698.4,122.6 699.5,123.8 700.7,123.6 701.9,124.8 703.1,124.6 704.3,125.7 705.5,125.6 706.7,126.7 707.9,126.6 709.0,127.7 710.2,127.5 711.4,128.6 712.6,128.5 713.8,129.6 715.0,129.4 716.2,130.5 717.3,130.4 718.5,131.5 719.7,131.3 720.9,132.4 722.1,132.3 723.3,133.3 724.5,133.2 725.7,134.3 726.8,134.2 728.0,135.2 729.2,135.1 730.4,136.1 731.6,136.0 732.8,137.0 734.0,136.9 735.1,138.0 736.3,137.8 737.5,138.9 738.7,138.7 739.9,139.8 741.1,139.6 742.3,140.7 743.5,140.5 744.6,141.5 745.8,141.4 747.0,142.4 748.2,142.3 749.4,143.3 750.6,143.2 751.8,144.2 752.9,144.1 754.1,145.1 755.3,145.0 756.5,145.9 757.7,145.8 758.9,146.8 760.1,146.7 761.3,147.7 762.4,147.6 763.6,148.5 764.8,148.4 766.0,149.4"/>
<line x1="606" y1="42" x2="628" y2="42" stroke="#0f62fe" stroke-width="2.2"/>
<text x="634" y="46" font-family="Arial" font-size="12">vz_mps</text>
</svg>