<svg xmlns="http://www.w3.org/2000/svg" width="820" height="320" viewBox="0 0 820 320">
<rect width="100%" height="100%" fill="#ffffff"/>
<text x="54" y="28" font-family="Arial" font-size="18" font-weight="700">Body Rates</text>
<line x1="54" y1="266" x2="766" y2="266" stroke="#1f2933"/>
<line x1="54" y1="54" x2="54" y2="266" stroke="#1f2933"/>
<text x="54" y="306" font-family="Arial" font-size="12">time (s)</text>
<text x="596" y="306" font-family="Arial" font-size="12">rate (deg/s)</text>
<text x="58" y="68" font-family="Arial" font-size="11">22.5</text>
<text x="58" y="260" font-family="Arial" font-size="11">-23.3</text>
<polyline fill="none" stroke="#0f62fe" stroke-width="2.2" points="54.0,158.0 55.2,158.0 56.4,158.0 57.6,158.0 58.7,158.0 59.9,158.0 61.1,158.0 62.3,158.0 63.5,158.0 64.7,158.0 65.9,158.0 67.1,158.0 68.2,158.0 69.4,158.0 70.6,158.0 71.8,158.0 73.0,158.0 74.2,158.0 75.4,158.0 76.5,158.0 77.7,158.0 78.9,158.0 80.1,158.0 81.3,158.0 82.5,158.0 83.7,158.0 84.9,158.0 86.0,158.0 87.2,158.0 88.4,158.0 89.6,158.0 90.8,158.0 92.0,158.0 93.2,158.0 94.3,158.0 95.5,158.0 96.7,158.0 97.9,158.0 99.1,158.0 100.3,158.0 101.5,158.0 102.7,158.0 103.8,158.0 105.0,158.0 106.2,158.0 107.4,158.0 108.6,158.0 109.8,158.0 111.0,158.0 112.1,158.0 113.3,158.0 114.5,158.0 115.7,158.0 116.9,158.0 118.1,158.0 119.3,158.0 120.5,158.0 121.6,158.0 122.8,158.0 124.0,158.0 125.2,158.0 126.4,158.0 127.6,158.0 128.8,158.0 129.9,158.0 131.1,158.0 132.3,158.0 133.5,158.0 134.7,158.0 135.9,158.0 137.1,158.0 138.3,158.0 139.4,158.0 140.6,158.0 141.8,158.0 143.0,158.0 144.2,158.0 145.4,158.0 146.6,158.0 147.7,158.0 148.9,158.0 150.1,158.0 151.3,158.0 152.5,158.0 153.7,158.0 154.9,158.0 156.1,158.0 157.2,158.0 158.4,158.0 159.6,158.0 160.8,158.0 162.0,158.0 163.2,158.0 164.4,158.0 165.5,158.0 166.7,158.0 167.9,158.0 169.1,158.0 170.3,158.0 171.5,158.0 172.7,158.0 173.9,158.0 175.0,158.0 176.2,158.0 177.4,158.0 178.6,158.0 179.8,158.0 181.0,158.0 182.2,158.0 183.3,158.0 184.5,158.0 185.7,158.0 186.9,158.0 188.1,158.0 189.3,158.0 190.5,158.0 191.7,158.0 192.8,158.0 194.0,158.0 195.2,158.0 196.4,158.0 197.6,158.0 198.8,158.0 200.0,158.0 201.1,158.0 202.3,158.0 203.5,158.0 204.7,158.0 205.9,158.0 207.1,158.0 208.3,158.0 209.5,158.0 210.6,158.0 211.8,158.0 213.0,158.0 214.2,158.0 215.4,158.0 216.6,158.0 217.8,158.0 218.9,158.0 220.1,158.0 221.3,158.0 222.5,158.0 223.7,158.0 224.9,158.0 226.1,158.0 227.3,158.0 228.4,158.0 229.6,158.0 230.8,158.0 232.0,158.0 233.2,158.0 234.4,158.0 235.6,158.0 236.7,158.0 237.9,158.0 239.1,158.0 240.3,158.0 241.5,158.0 242.7,158.0 243.9,158.0 245.1,158.0 246.2,158.0 247.4,158.0 248.6,158.0 249.8,158.0 251.0,158.0 252.2,158.0 253.4,158.0 254.5,158.0 255.7,158.0 256.9,158.0 258.1,158.0 259.3,158.0 260.5,158.0 261.7,158.0 262.9,158.0 264.0,158.0 265.2,158.0 266.4,158.0 267.6,158.0 268.8,158.0 270.0,158.0 271.2,158.0 272.3,158.0 273.5,158.0 274.7,158.0 275.9,158.0 277.1,158.0 278.3,158.0 279.5,158.0 280.7,158.0 281.8,158.0 283.0,158.0 284.2,158.0 285.4,158.0 286.6,158.0 287.8,158.0 289.0,158.0 290.1,158.0 291.3,158.0 292.5,158.0 293.7,158.0 294.9,158.0 296.1,158.0 297.3,158.0 298.5,158.0 299.6,158.0 300.8,158.0 302.0,158.0 303.2,158.0 304.4,158.0 305.6,158.0 306.8,158.0 307.9,158.0 309.1,158.0 310.3,158.0 311.5,158.0 312.7,158.0 313.9,158.0 315.1,158.0 316.3,158.0 317.4,158.0 318.6,158.0 319.8,158.0 321.0,158.0 322.2,158.0 323.4,158.0 324.6,158.0 325.7,158.0 326.9,158.0 328.1,158.0 329.3,158.0 330.5,158.0 331.7,158.0 332.9,158.0 334.1,158.0 335.2,158.0 336.4,158.0 337.6,158.0 338.8,158.0 340.0,158.0 341.2,158.0 342.4,158.0 343.5,158.0 344.7,158.0 345.9,158.0 347.1,158.0 348.3,158.0 349.5,158.0 350.7,158.0 351.9,158.0 353.0,158.0 354.2,158.0 355.4,158.0 356.6,158.0 357.8,158.0 359.0,158.0 360.2,158.0 361.3,158.0 362.5,158.0 363.7,158.0 364.9,158.0 366.1,158.0 367.3,158.0 368.5,158.0 369.7,158.0 370.8,158.0 372.0,158.0 373.2,158.0 374.4,158.0 375.6,158.0 376.8,158.0 378.0,158.0 379.1,158.0 380.3,158.0 381.5,158.0 382.7,158.0 383.9,158.0 385.1,158.0 386.3,158.0 387.5,158.0 388.6,158.0 389.8,158.0 391.0,158.0 392.2,158.0 393.4,158.0 394.6,158.0 395.8,158.0 396.9,158.0 398.1,158.0 399.3,158.0 400.5,158.0 401.7,158.0 402.9,158.0 404.1,158.0 405.3,158.0 406.4,158.0 407.6,158.0 408.8,158.0 410.0,158.0 411.2,158.0 412.4,158.0 413.6,158.0 414.7,158.0 415.9,158.0 417.1,158.0 418.3,158.0 419.5,158.0 420.7,158.0 421.9,158.0 423.1,158.0 424.2,158.0 425.4,158.0 426.6,158.0 427.8,158.0 429.0,158.0 430.2,158.0 431.4,158.0 432.5,158.0 433.7,158.0 434.9,158.0 436.1,158.0 437.3,158.0 438.5,158.0 439.7,158.0 440.9,158.0 442.0,158.0 443.2,158.0 444.4,158.0 445.6,158.0 446.8,158.0 448.0,158.0 449.2,158.0 450.3,158.0 451.5,158.0 452.7,158.0 453.9,158.0 455.1,158.0 456.3,158.0 457.5,158.0 458.7,158.0 459.8,158.0 461.0,158.0 462.2,158.0 463.4,158.0 464.6,158.0 465.8,158.0 467.0,158.0 468.1,158.0 469.3,158.0 470.5,158.0 471.7,158.0 472.9,158.0 474.1,158.0 475.3,158.0 476.5,158.0 477.6,158.0 478.8,158.0 480.0,158.0 481.2,158.0 482.4,158.0 483.6,158.0 484.8,158.0 485.9,158.0 487.1,158.0 488.3,158.0 489.5,158.0 490.7,158.0 491.9,158.0 493.1,158.0 494.3,158.0 495.4,158.0 496.6,158.0 497.8,158.0 499.0,158.0 500.2,158.0 501.4,158.0 502.6,158.0 503.7,158.0 504.9,158.0 506.1,158.0 507.3,158.0 508.5,158.0 509.7,158.0 510.9,158.0 512.1,158.0 513.2,158.0 514.4,158.0 515.6,158.0 516.8,158.0 518.0,158.0 519.2,158.0 520.4,158.0 521.5,158.0 522.7,158.0 523.9,158.0 525.1,158.0 526.3,158.0 527.5,158.0 528.7,158.0 529.9,158.0 531.0,158.0 532.2,158.0 533.4,158.0 534.6,158.0 535.8,158.0 537.0,158.0 538.2,158.0 539.3,158.0 540.5,158.0 541.7,158.0 542.9,158.0 544.1,158.0 545.3,158.0 546.5,158.0 547.7,158.0 548.8,158.0 550.0,158.0 551.2,158.0 552.4,158.0 553.6,158.0 554.8,158.0 556.0,158.0 557.1,158.0 558.3,158.0 559.5,158.0 560.7,158.0 561.9,158.0 563.1,158.0 564.3,158.0 565.5,158.0 566.6,158.0 567.8,158.0 569.0,158.0 570.2,158.0 571.4,158.0 572.6,158.0 573.8,158.0 574.9,158.0 576.1,158.0 577.3,158.0 578.5,158.0 579.7,158.0 580.9,158.0 582.1,158.0 583.3,158.0 584.4,158.0 585.6,158.0 586.8,158.0 588.0,158.0 589.2,158.0 590.4,158.0 591.6,158.0 592.7,158.0 593.9,158.0 595.1,158.0 596.3,158.0 597.5,158.0 598.7,158.0 599.9,158.0 601.1,158.0 602.2,158.0 603.4,158.0 604.6,158.0 605.8,158.0 607.0,158.0 608.2,158.0 609.4,158.0 610.5,158.0 611.7,158.0 612.9,158.0 614.1,158.0 615.3,158.0 616.5,158.0 617.7,158.0 618.9,158.0 620.0,158.0 621.2,158.0 622.4,158.0 623.6,158.0 624.8,158.0 626.0,158.0 627.2,158.0 628.3,158.0 629.5,158.0 630.7,158.0 631.9,158.0 633.1,158.0 634.3,158.0 635.5,158.0 636.7,158.0 637.8,158.0 639.0,158.0 640.2,158.0 641.4,158.0 642.6,158.0 643.8,158.0 645.0,158.0 646.1,158.0 647.3,158.0 648.5,158.0 649.7,158.0 650.9,158.0 652.1,158.0 653.3,158.0 654.5,158.0 655.6,158.0 656.8,158.0 658.0,158.0 659.2,158.0 660.4,158.0 661.6,158.0 662.8,158.0 663.9,158.0 665.1,158.0 666.3,158.0 667.5,158.0 668.7,158.0 669.9,158.0 671.1,158.0 672.3,158.0 673.4,158.0 674.6,158.0 675.8,158.0 677.0,158.0 678.2,158.0 679.4,158.0 680.6,158.0 681.7,158.0 682.9,158.0 684.1,158.0 685.3,158.0 686.5,158.0 687.7,158.0 688.9,158.0 690.1,158.0 691.2,158.0 692.4,158.0 693.6,158.0 694.8,158.0 696.0,158.0 697.2,158.0 698.4,158.0 699.5,158.0 700.7,158.0 701.9,158.0 703.1,158.0 704.3,158.0 705.5,158.0 706.7,158.0 707.9,158.0 709.0,158.0 710.2,158.0 711.4,158.0 712.6,158.0 713.8,158.0 715.0,158.0 716.2,158.0 717.3,158.0 718.5,158.0 719.7,158.0 720.9,158.0 722.1,158.0 723.3,158.0 724.5,158.0 725.7,158.0 726.8,158.0 728.0,158.0 729.2,158.0 730.4,158.0 731.6,158.0 732.8,158.0 734.0,158.0 735.1,158.0 736.3,158.0 737.5,158.0 738.7,158.0 739.9,158.0 741.1,158.0 742.3,158.0 743.5,158.0 744.6,158.0 745.8,158.0 747.0,158.0 748.2,158.0 749.4,158.0 750.6,158.0 751.8,158.0 752.9,158.0 754.1,158.0 755.3,158.0 756.5,158.0 757.7,158.0 758.9,158.0 760.1,158.0 761.3,158.0 762.4,158.0 763.6,158.0 764.8,158.0 766.0,158.0"/>
<line x1="606" y1="42" x2="628" y2="42" stroke="#0f62fe" stroke-width="2.2"/>
<text x="634" y="46" font-family="Arial" font-size="12">p_dps</text>
<polyline fill="none" stroke="#24a148" stroke-width="2.2" points="54.0,158.0 55.2,199.0 56.4,216.0 57.6,205.1 58.7,185.5 59.9,172.7 61.1,168.8 62.3,168.7 63.5,167.8 64.7,165.0 65.9,161.7 67.1,159.2 68.2,157.7 69.4,156.7 70.6,155.7 71.8,154.8 73.0,153.9 74.2,153.3 75.4,152.8 76.5,152.4 77.7,152.1 78.9,151.8 80.1,151.6 81.3,151.5 82.5,151.4 83.7,151.3 84.9,151.3 86.0,151.2 87.2,151.3 88.4,151.3 89.6,151.3 90.8,151.4 92.0,151.5 93.2,151.6 94.3,151.7 95.5,151.8 96.7,151.9 97.9,152.0 99.1,152.1 100.3,152.2 101.5,152.3 102.7,152.4 103.8,152.5 105.0,152.7 106.2,152.8 107.4,152.9 108.6,153.0 109.8,153.1 111.0,153.3 112.1,153.4 113.3,153.5 114.5,153.6 115.7,153.7 116.9,153.8 118.1,153.9 119.3,154.1 120.5,154.2 121.6,154.3 122.8,154.4 124.0,154.5 125.2,154.6 126.4,154.7 127.6,154.8 128.8,154.9 129.9,155.0 131.1,155.1 132.3,155.2 133.5,155.3 134.7,155.4 135.9,155.5 137.1,155.6 138.3,155.7 139.4,155.8 140.6,155.8 141.8,155.9 143.0,156.0 144.2,156.1 145.4,156.2 146.6,156.3 147.7,156.3 148.9,156.4 150.1,156.5 151.3,157.3 152.5,157.8 153.7,158.0 154.9,158.4 156.1,158.7 157.2,159.0 158.4,159.2 159.6,159.5 160.8,159.6 162.0,159.8 163.2,160.0 164.4,160.2 165.5,160.3 166.7,160.4 167.9,160.5 169.1,160.7 170.3,160.8 171.5,160.9 172.7,160.9 173.9,161.0 175.0,161.1 176.2,161.2 177.4,161.3 178.6,161.3 179.8,161.4 181.0,161.4 182.2,161.5 183.3,161.5 184.5,161.6 185.7,161.6 186.9,161.7 188.1,161.7 189.3,161.8 190.5,161.8 191.7,161.8 192.8,161.9 194.0,161.9 195.2,161.9 196.4,161.9 197.6,161.9 198.8,162.0 200.0,162.0 201.1,162.0 202.3,162.0 203.5,162.0 204.7,162.0 205.9,162.0 207.1,162.1 208.3,162.1 209.5,162.1 210.6,162.1 211.8,162.1 213.0,162.1 214.2,162.1 215.4,162.1 216.6,162.0 217.8,162.0 218.9,162.0 220.1,162.0 221.3,162.0 222.5,162.0 223.7,162.0 224.9,162.0 226.1,162.0 227.3,161.9 228.4,161.9 229.6,161.9 230.8,161.9 232.0,161.9 233.2,161.8 234.4,161.8 235.6,161.8 236.7,161.8 237.9,161.7 239.1,161.7 240.3,161.7 241.5,161.7 242.7,161.6 243.9,161.6 245.1,161.6 246.2,161.5 247.4,161.5 248.6,161.5 249.8,161.4 251.0,161.4 252.2,161.4 253.4,161.3 254.5,161.3 255.7,161.3 256.9,161.2 258.1,161.2 259.3,161.1 260.5,161.1 261.7,161.1 262.9,161.0 264.0,161.0 265.2,160.9 266.4,160.9 267.6,160.9 268.8,160.8 270.0,160.8 271.2,160.7 272.3,160.8 273.5,160.5 274.7,160.9 275.9,159.9 277.1,162.1 278.3,157.0 279.5,168.6 280.7,141.4 281.8,205.1 283.0,54.0 284.2,206.8 285.4,131.6 286.6,244.7 287.8,91.8 289.0,210.1 290.1,65.0 291.3,217.8 292.5,101.4 293.7,254.2 294.9,110.0 296.1,262.8 297.3,110.0 298.5,216.2 299.6,63.3 300.8,209.6 302.0,60.5 303.2,213.4 304.4,113.2 305.6,266.0 306.8,113.2 307.9,240.6 309.1,87.7 310.3,222.7 311.5,69.9 312.7,222.7 313.9,69.9 315.1,222.7 316.3,69.9 317.4,222.7 318.6,69.9 319.8,222.7 321.0,91.8 322.2,244.6 323.4,95.8 324.6,248.6 325.7,95.8 326.9,248.6 328.1,95.8 329.3,248.6 330.5,95.8 331.7,248.6 332.9,95.8 334.1,248.6 335.2,95.8 336.4,243.2 337.6,90.4 338.8,238.6 340.0,85.8 341.2,238.6 342.4,85.8 343.5,238.6 344.7,85.8 345.9,238.6 347.1,85.8 348.3,238.6 349.5,85.8 350.7,238.6 351.9,85.8 353.0,232.3 354.2,79.5 355.4,232.3 356.6,79.5 357.8,232.3 359.0,79.5 360.2,232.3 361.3,79.5 362.5,232.3 363.7,79.5 364.9,232.3 366.1,79.5 367.3,232.3 368.5,79.5 369.7,232.3 370.8,79.5 372.0,232.3 373.2,79.5 374.4,232.3 375.6,79.5 376.8,232.3 378.0,79.5 379.1,232.3 380.3,79.5 381.5,232.3 382.7,79.5 383.9,232.3 385.1,79.5 386.3,232.3 387.5,79.5 388.6,232.3 389.8,79.5 391.0,232.3 392.2,79.5 393.4,232.3 394.6,79.5 395.8,232.3 396.9,79.5 398.1,232.3 399.3,79.5 400.5,232.3 401.7,79.5 402.9,232.3 404.1,79.5 405.3,232.3 406.4,79.5 407.6,232.3 408.8,79.5 410.0,232.3 411.2,79.5 412.4,232.3 413.6,79.5 414.7,232.3 415.9,79.5 417.1,232.3 418.3,79.5 419.5,232.3 420.7,79.5 421.9,232.3 423.1,79.5 424.2,232.3 425.4,79.5 426.6,232.3 427.8,79.5 429.0,232.3 430.2,79.9 431.4,232.7 432.5,80.1 433.7,233.0 434.9,80.1 436.1,233.0 437.3,80.1 438.5,233.0 439.7,80.1 440.9,233.0 442.0,80.1 443.2,233.0 444.4,80.1 445.6,233.0 446.8,80.1 448.0,233.0 449.2,80.1 450.3,233.0 451.5,80.1 452.7,233.0 453.9,80.1 455.1,233.0 456.3,80.1 457.5,233.0 458.7,80.1 459.8,233.0 461.0,80.1 462.2,233.0 463.4,80.1 464.6,233.0 465.8,80.1 467.0,233.0 468.1,80.1 469.3,233.0 470.5,80.1 471.7,233.0 472.9,80.1 474.1,233.0 475.3,80.1 476.5,233.0 477.6,80.1 478.8,233.0 480.0,80.1 481.2,233.0 482.4,80.1 483.6,233.0 484.8,80.1 485.9,233.0 487.1,80.1 488.3,233.0 489.5,80.1 490.7,233.0 491.9,80.1 493.1,233.0 494.3,80.1 495.4,233.0 496.6,80.1 497.8,233.0 499.0,80.1 500.2,233.0 501.4,80.1 502.6,233.0 503.7,80.1 504.9,233.0 506.1,80.1 507.3,233.0 508.5,80.1 509.7,233.0 510.9,80.1 512.1,233.0 513.2,80.1 514.4,233.0 515.6,80.1 516.8,233.0 518.0,80.1 519.2,233.0 520.4,80.1 521.5,233.0 522.7,80.1 523.9,233.0 525.1,80.1 526.3,233.0 527.5,80.2 528.7,233.1 529.9,80.2 531.0,233.1 532.2,80.2 533.4,233.1 534.6,80.2 535.8,233.1 537.0,80.2 538.2,233.1 539.3,80.2 540.5,233.1 541.7,80.2 542.9,233.1 544.1,80.2 545.3,233.1 546.5,80.2 547.7,233.1 548.8,80.2 550.0,233.1 551.2,80.2 552.4,233.1 553.6,80.2 554.8,233.1 556.0,80.2 557.1,233.1 558.3,80.2 559.5,233.1 560.7,80.2 561.9,233.1 563.1,80.3 564.3,233.1 565.5,80.3 566.6,233.1 567.8,80.3 569.0,233.1 570.2,80.3 571.4,233.1 572.6,81.1 573.8,234.0 574.9,81.1 576.1,234.0 577.3,81.1 578.5,234.0 579.7,81.1 580.9,234.0 582.1,81.1 583.3,234.0 584.4,81.1 585.6,234.0 586.8,81.1 588.0,234.0 589.2,81.1 590.4,234.0 591.6,81.1 592.7,234.0 593.9,81.1 595.1,234.0 596.3,81.1 597.5,234.0 598.7,81.1 599.9,234.0 601.1,81.1 602.2,234.0 603.4,81.1 604.6,234.0 605.8,81.1 607.0,234.0 608.2,81.1 609.4,234.0 610.5,81.1 611.7,234.0 612.9,81.1 614.1,234.0 615.3,81.1 616.5,234.0 617.7,81.1 618.9,234.0 620.0,81.1 621.2,234.0 622.4,81.1 623.6,234.0 624.8,81.1 626.0,234.0 627.2,81.1 628.3,234.0 629.5,81.1 630.7,234.0 631.9,81.1 633.1,234.0 634.3,81.1 635.5,234.0 636.7,81.1 637.8,234.0 639.0,81.1 640.2,234.0 641.4,81.1 642.6,234.0 643.8,81.1 645.0,234.0 646.1,81.1 647.3,234.0 648.5,81.1 649.7,234.0 650.9,81.1 652.1,234.0 653.3,81.1 654.5,234.0 655.6,81.1 656.8,234.0 658.0,81.1 659.2,234.0 660.4,81.1 661.6,234.0 662.8,81.1 663.9,234.0 665.1,81.1 666.3,234.0 667.5,81.1 668.7,234.0 669.9,81.1 671.1,234.0 672.3,81.1 673.4,234.0 674.6,81.1 675.8,234.0 677.0,81.1 678.2,234.0 679.4,81.1 680.6,234.0 681.7,81.1 682.9,234.0 684.1,81.1 685.3,234.0 686.5,81.1 687.7,234.0 688.9,81.1 690.1,234.0 691.2,81.1 692.4,234.0 693.6,81.1 694.8,234.0 696.0,81.1 697.2,234.0 698.4,81.1 699.5,234.0 700.7,81.1 701.9,234.0 703.1,81.1 704.3,234.0 705.5,81.1 706.7,234.0 707.9,81.1 709.0,234.0 710.2,81.1 711.4,234.0 712.6,81.1 713.8,234.0 715.0,81.1 716.2,234.0 717.3,81.1 718.5,234.0 719.7,81.1 720.9,234.0 722.1,81.1 723.3,234.0 724.5,81.1 725.7,234.0 726.8,81.1 728.0,234.0 729.2,81.1 730.4,234.0 731.6,81.1 732.8,234.0 734.0,81.1 735.1,234.0 736.3,81.1 737.5,234.0 738.7,81.1 739.9,234.0 741.1,81.1 742.3,234.0 743.5,81.1 744.6,234.0 745.8,81.1 747.0,234.0 748.2,81.1 749.4,234.0 750.6,81.1 751.8,234.0 752.9,81.1 754.1,234.0 755.3,81.1 756.5,234.0 757.7,81.1 758.9,234.0 760.1,81.1 761.3,234.0 762.4,81.1 763.6,234.0 764.8,81.1 766.0,234.0"/>
<line x1="606" y1="60" x2="628" y2="60" stroke="#24a148" stroke-width="2.2"/>
<text x="634" y="64" font-family="Arial" font-size="12">q_dps</text>
<polyline fill="none" stroke="#da1e28" stroke-width="2.2" points="54.0,158.0 55.2,158.0 56.4,158.0 57.6,158.0 58.7,158.0 59.9,158.0 61.1,158.0 62.3,158.0 63.5,158.0 64.7,158.0 65.9,158.0 67.1,158.0 68.2,158.0 69.4,158.0 70.6,158.0 71.8,158.0 73.0,158.0 74.2,158.0 75.4,158.0 76.5,158.0 77.7,158.0 78.9,158.0 80.1,158.0 81.3,158.0 82.5,158.0 83.7,158.0 84.9,158.0 86.0,158.0 87.2,158.0 88.4,158.0 89.6,158.0 90.8,158.0 92.0,158.0 93.2,158.0 94.3,158.0 95.5,158.0 96.7,158.0 97.9,158.0 99.1,158.0 100.3,158.0 101.5,158.0 102.7,158.0 103.8,158.0 105.0,158.0 106.2,158.0 107.4,158.0 108.6,158.0 109.8,158.0 111.0,158.0 112.1,158.0 113.3,158.0 114.5,158.0 115.7,158.0 116.9,158.0 118.1,158.0 119.3,158.0 120.5,158.0 121.6,158.0 122.8,158.0 124.0,158.0 125.2,158.0 126.4,158.0 127.6,158.0 128.8,158.0 129.9,158.0 131.1,158.0 132.3,158.0 133.5,158.0 134.7,158.0 135.9,158.0 137.1,158.0 138.3,158.0 139.4,158.0 140.6,158.0 141.8,158.0 143.0,158.0 144.2,158.0 145.4,158.0 146.6,158.0 147.7,158.0 148.9,158.0 150.1,158.0 151.3,158.0 152.5,158.0 153.7,158.0 154.9,158.0 156.1,158.0 157.2,158.0 158.4,158.0 159.6,158.0 160.8,158.0 162.0,158.0 163.2,158.0 164.4,158.0 165.5,158.0 166.7,158.0 167.9,158.0 169.1,158.0 170.3,158.0 171.5,158.0 172.7,158.0 173.9,158.0 175.0,158.0 176.2,158.0 177.4,158.0 178.6,158.0 179.8,158.0 181.0,158.0 182.2,158.0 183.3,158.0 184.5,158.0 185.7,158.0 186.9,158.0 188.1,158.0 189.3,158.0 190.5,158.0 191.7,158.0 192.8,158.0 194.0,158.0 195.2,158.0 196.4,158.0 197.6,158.0 198.8,158.0 200.0,158.0 201.1,158.0 202.3,158.0 203.5,158.0 204.7,158.0 205.9,158.0 207.1,158.0 208.3,158.0 209.5,158.0 210.6,158.0 211.8,158.0 213.0,158.0 214.2,158.0 215.4,158.0 216.6,158.0 217.8,158.0 218.9,158.0 220.1,158.0 221.3,158.0 222.5,158.0 223.7,158.0 224.9,158.0 226.1,158.0 227.3,158.0 228.4,158.0 229.6,158.0 230.8,158.0 232.0,158.0 233.2,158.0 234.4,158.0 235.6,158.0 236.7,158.0 237.9,158.0 239.1,158.0 240.3,158.0 241.5,158.0 242.7,158.0 243.9,158.0 245.1,158.0 246.2,158.0 247.4,158.0 248.6,158.0 249.8,158.0 251.0,158.0 252.2,158.0 253.4,158.0 254.5,158.0 255.7,158.0 256.9,158.0 258.1,158.0 259.3,158.0 260.5,158.0 261.7,158.0 262.9,158.0 264.0,158.0 265.2,158.0 266.4,158.0 267.6,158.0 268.8,158.0 270.0,158.0 271.2,158.0 272.3,158.0 273.5,158.0 274.7,158.0 275.9,158.0 277.1,158.0 278.3,158.0 279.5,158.0 280.7,158.0 281.8,158.0 283.0,158.0 284.2,158.0 285.4,158.0 286.6,158.0 287.8,158.0 289.0,158.0 290.1,158.0 291.3,158.0 292.5,158.0 293.7,158.0 294.9,158.0 296.1,158.0 297.3,158.0 298.5,158.0 299.6,158.0 300.8,158.0 302.0,158.0 303.2,158.0 304.4,158.0 305.6,158.0 306.8,158.0 307.9,158.0 309.1,158.0 310.3,158.0 311.5,158.0 312.7,158.0 313.9,158.0 315.1,158.0 316.3,158.0 317.4,158.0 318.6,158.0 319.8,158.0 321.0,158.0 322.2,158.0 323.4,158.0 324.6,158.0 325.7,158.0 326.9,158.0 328.1,158.0 329.3,158.0 330.5,158.0 331.7,158.0 332.9,158.0 334.1,158.0 335.2,158.0 336.4,158.0 337.6,158.0 338.8,158.0 340.0,158.0 341.2,158.0 342.4,158.0 343.5,158.0 344.7,158.0 345.9,158.0 347.1,158.0 348.3,158.0 349.5,158.0 350.7,158.0 351.9,158.0 353.0,158.0 354.2,158.0 355.4,158.0 356.6,158.0 357.8,158.0 359.0,158.0 360.2,158.0 361.3,158.0 362.5,158.0 363.7,158.0 364.9,158.0 366.1,158.0 367.3,158.0 368.5,158.0 369.7,158.0 370.8,158.0 372.0,158.0 373.2,158.0 374.4,158.0 375.6,158.0 376.8,158.0 378.0,158.0 379.1,158.0 380.3,158.0 381.5,158.0 382.7,158.0 383.9,158.0 385.1,158.0 386.3,158.0 387.5,158.0 388.6,158.0 389.8,158.0 391.0,158.0 392.2,158.0 393.4,158.0 394.6,158.0 395.8,158.0 396.9,158.0 398.1,158.0 399.3,158.0 400.5,158.0 401.7,158.0 402.9,158.0 404.1,158.0 405.3,158.0 406.4,158.0 407.6,158.0 408.8,158.0 410.0,158.0 411.2,158.0 412.4,158.0 413.6,158.0 414.7,158.0 415.9,158.0 417.1,158.0 418.3,158.0 419.5,158.0 420.7,158.0 421.9,158.0 423.1,158.0 424.2,158.0 425.4,158.0 426.6,158.0 427.8,158.0 429.0,158.0 430.2,158.0 431.4,158.0 432.5,158.0 433.7,158.0 434.9,158.0 436.1,158.0 437.3,158.0 438.5,158.0 439.7,158.0 440.9,158.0 442.0,158.0 443.2,158.0 444.4,158.0 445.6,158.0 446.8,158.0 448.0,158.0 449.2,158.0 450.3,158.0 451.5,158.0 452.7,158.0 453.9,158.0 455.1,158.0 456.3,158.0 457.5,158.0 458.7,158.0 459.8,158.0 461.0,158.0 462.2,158.0 463.4,158.0 464.6,158.0 465.8,158.0 467.0,158.0 468.1,158.0 469.3,158.0 470.5,158.0 471.7,158.0 472.9,158.0 474.1,158.0 475.3,158.0 476.5,158.0 477.6,158.0 478.8,158.0 480.0,158.0 481.2,158.0 482.4,158.0 483.6,158.0 484.8,158.0 485.9,158.0 487.1,158.0 488.3,158.0 489.5,158.0 490.7,158.0 491.9,158.0 493.1,158.0 494.3,158.0 495.4,158.0 496.6,158.0 497.8,158.0 499.0,158.0 500.2,158.0 501.4,158.0 502.6,158.0 503.7,158.0 504.9,158.0 506.1,158.0 507.3,158.0 508.5,158.0 509.7,158.0 510.9,158.0 512.1,158.0 513.2,158.0 514.4,158.0 515.6,158.0 516.8,158.0 518.0,158.0 519.2,158.0 520.4,158.0 521.5,158.0 522.7,158.0 523.9,158.0 525.1,158.0 526.3,158.0 527.5,158.0 528.7,158.0 529.9,158.0 531.0,158.0 532.2,158.0 533.4,158.0 534.6,158.0 535.8,158.0 537.0,158.0 538.2,158.0 539.3,158.0 540.5,158.0 541.7,158.0 542.9,158.0 544.1,158.0 545.3,158.0 546.5,158.0 547.7,158.0 548.8,158.0 550.0,158.0 551.2,158.0 552.4,158.0 553.6,158.0 554.8,158.0 556.0,158.0 557.1,158.0 558.3,158.0 559.5,158.0 560.7,158.0 561.9,158.0 563.1,158.0 564.3,158.0 565.5,158.0 566.6,158.0 567.8,158.0 569.0,158.0 570.2,158.0 571.4,158.0 572.6,158.0 573.8,158.0 574.9,158.0 576.1,158.0 577.3,158.0 578.5,158.0 579.7,158.0 580.9,158.0 582.1,158.0 583.3,158.0 584.4,158.0 585.6,158.0 586.8,158.0 588.0,158.0 589.2,158.0 590.4,158.0 591.6,158.0 592.7,158.0 593.9,158.0 595.1,158.0 596.3,158.0 597.5,158.0 598.7,158.0 599.9,158.0 601.1,158.0 602.2,158.0 603.4,158.0 604.6,158.0 605.8,158.0 607.0,158.0 608.2,158.0 609.4,158.0 610.5,158.0 611.7,158.0 612.9,158.0 614.1,158.0 615.3,158.0 616.5,158.0 617.7,158.0 618.9,158.0 620.0,158.0 621.2,158.0 622.4,158.0 623.6,158.0 624.8,158.0 626.0,158.0 627.2,158.0 628.3,158.0 629.5,158.0 630.7,158.0 631.9,158.0 633.1,158.0 634.3,158.0 635.5,158.0 636.7,158.0 637.8,158.0 639.0,158.0 640.2,158.0 641.4,158.0 642.6,158.0 643.8,158.0 645.0,158.0 646.1,158.0 647.3,158.0 648.5,158.0 649.7,158.0 650.9,158.0 652.1,158.0 653.3,158.0 654.5,158.0 655.6,158.0 656.8,158.0 658.0,158.0 659.2,158.0 660.4,158.0 661.6,158.0 662.8,158.0 663.9,158.0 665.1,158.0 666.3,158.0 667.5,158.0 668.7,158.0 669.9,158.0 671.1,158.0 672.3,158.0 673.4,158.0 674.6,158.0 675.8,158.0 677.0,158.0 678.2,158.0 679.4,158.0 680.6,158.0 681.7,158.0 682.9,158.0 684.1,158.0 685.3,158.0 686.5,158.0 687.7,158.0 688.9,158.0 690.1,158.0 691.2,158.0 692.4,158.0 693.6,158.0 694.8,158.0 696.0,158.0 697.2,158.0 698.4,158.0 699.5,158.0 700.7,158.0 701.9,158.0 703.1,158.0 704.3,158.0 705.5,158.0 706.7,158.0 707.9,158.0 709.0,158.0 710.2,158.0 711.4,158.0 712.6,158.0 713.8,158.0 715.0,158.0 716.2,158.0 717.3,158.0 718.5,158.0 719.7,158.0 720.9,158.0 722.1,158.0 723.3,158.0 724.5,158.0 725.7,158.0 726.8,158.0 728.0,158.0 729.2,158.0 730.4,158.0 731.6,158.0 732.8,158.0 734.0,158.0 735.1,158.0 736.3,158.0 737.5,158.0 738.7,158.0 739.9,158.0 741.1,158.0 742.3,158.0 743.5,158.0 744.6,158.0 745.8,158.0 747.0,158.0 748.2,158.0 749.4,158.0 750.6,158.0 751.8,158.0 752.9,158.0 754.1,158.0 755.3,158.0 756.5,158.0 757.7,158.0 758.9,158.0 760.1,158.0 761.3,158.0 762.4,158.0 763.6,158.0 764.8,158.0 766.0,158.0"/>
<line x1="606" y1="78" x2="628" y2="78" stroke="#da1e28" stroke-width="2.2"/>
<text x="634" y="82" font-family="Arial" font-size="12">r_dps</text>
</svg>