<svg xmlns="http://www.w3.org/2000/svg" width="820" height="320" viewBox="0 0 820 320">
<rect width="100%" height="100%" fill="#ffffff"/>
<text x="54" y="28" font-family="Arial" font-size="18" font-weight="700">Mach Number</text>
<line x1="54" y1="266" x2="766" y2="266" stroke="#1f2933"/>
<line x1="54" y1="54" x2="54" y2="266" stroke="#1f2933"/>
<text x="54" y="306" font-family="Arial" font-size="12">time (s)</text>
<text x="596" y="306" font-family="Arial" font-size="12">Mach</text>
<text x="58" y="68" font-family="Arial" font-size="11">0.78</text>
<text x="58" y="260" font-family="Arial" font-size="11">0.251</text>
<polyline fill="none" stroke="#0f62fe" stroke-width="2.2" points="54.0,266.0 55.2,265.4 56.4,264.8 57.6,264.3 58.7,263.7 59.9,263.0 61.1,262.4 62.3,261.8 63.5,261.2 64.7,260.5 65.9,259.8 67.1,259.2 68.2,258.5 69.4,257.8 70.6,257.1 71.8,256.4 73.0,255.7 74.2,255.0 75.4,254.3 76.5,253.6 77.7,252.9 78.9,252.2 80.1,251.5 81.3,250.8 82.5,250.1 83.7,249.4 84.9,248.7 86.0,248.0 87.2,247.3 88.4,246.6 89.6,245.9 90.8,245.2 92.0,244.5 93.2,243.8 94.3,243.1 95.5,242.4 96.7,241.7 97.9,241.0 99.1,240.4 100.3,239.7 101.5,239.0 102.7,238.3 103.8,237.6 105.0,236.9 106.2,236.2 107.4,235.6 108.6,234.9 109.8,234.2 111.0,233.5 112.1,232.8 113.3,232.1 114.5,231.5 115.7,230.8 116.9,230.1 118.1,229.4 119.3,228.8 120.5,228.1 121.6,227.4 122.8,226.8 124.0,226.1 125.2,225.4 126.4,224.7 127.6,224.1 128.8,223.4 129.9,222.7 131.1,222.1 132.3,221.4 133.5,220.8 134.7,220.1 135.9,219.4 137.1,218.8 138.3,218.1 139.4,217.5 140.6,216.8 141.8,216.1 143.0,215.5 144.2,214.8 145.4,214.2 146.6,213.5 147.7,212.9 148.9,212.2 150.1,211.6 151.3,210.9 152.5,210.3 153.7,209.6 154.9,209.0 156.1,208.4 157.2,207.7 158.4,207.1 159.6,206.4 160.8,205.8 162.0,205.2 163.2,204.5 164.4,203.9 165.5,203.3 166.7,202.6 167.9,202.0 169.1,201.4 170.3,200.8 171.5,200.1 172.7,199.5 173.9,198.9 175.0,198.3 176.2,197.7 177.4,197.0 178.6,196.4 179.8,195.8 181.0,195.2 182.2,194.6 183.3,194.0 184.5,193.4 185.7,192.8 186.9,192.2 188.1,191.5 189.3,190.9 190.5,190.3 191.7,189.7 192.8,189.1 194.0,188.6 195.2,188.0 196.4,187.4 197.6,186.8 198.8,186.2 200.0,185.6 201.1,185.0 202.3,184.4 203.5,183.8 204.7,183.2 205.9,182.7 207.1,182.1 208.3,181.5 209.5,180.9 210.6,180.3 211.8,179.8 213.0,179.2 214.2,178.6 215.4,178.0 216.6,177.5 217.8,176.9 218.9,176.3 220.1,175.8 221.3,175.2 222.5,174.6 223.7,174.1 224.9,173.5 226.1,172.9 227.3,172.4 228.4,171.8 229.6,171.3 230.8,170.7 232.0,170.1 233.2,169.6 234.4,169.0 235.6,168.5 236.7,167.9 237.9,167.4 239.1,166.8 240.3,166.3 241.5,165.7 242.7,165.2 243.9,164.6 245.1,164.1 246.2,163.5 247.4,163.0 248.6,162.5 249.8,161.9 251.0,161.4 252.2,160.8 253.4,160.3 254.5,159.8 255.7,159.2 256.9,158.7 258.1,158.2 259.3,157.6 260.5,157.1 261.7,156.5 262.9,156.0 264.0,155.5 265.2,155.0 266.4,154.4 267.6,153.9 268.8,153.4 270.0,152.8 271.2,152.3 272.3,151.8 273.5,151.3 274.7,150.7 275.9,150.2 277.1,149.7 278.3,149.2 279.5,148.6 280.7,148.1 281.8,147.6 283.0,147.1 284.2,146.6 285.4,146.0 286.6,145.5 287.8,145.0 289.0,144.5 290.1,144.0 291.3,143.4 292.5,142.9 293.7,142.4 294.9,141.9 296.1,141.4 297.3,140.9 298.5,140.4 299.6,139.9 300.8,139.4 302.0,138.9 303.2,138.3 304.4,137.8 305.6,137.3 306.8,136.8 307.9,136.3 309.1,135.8 310.3,135.3 311.5,134.8 312.7,134.3 313.9,133.8 315.1,133.3 316.3,132.8 317.4,132.3 318.6,131.8 319.8,131.3 321.0,130.8 322.2,130.2 323.4,129.8 324.6,129.2 325.7,128.7 326.9,128.2 328.1,127.8 329.3,127.3 330.5,126.8 331.7,126.3 332.9,125.8 334.1,125.4 335.2,124.9 336.4,124.4 337.6,124.0 338.8,123.5 340.0,123.1 341.2,122.6 342.4,122.2 343.5,121.7 344.7,121.3 345.9,120.8 347.1,120.4 348.3,119.9 349.5,119.5 350.7,119.0 351.9,118.6 353.0,118.1 354.2,117.7 355.4,117.2 356.6,116.8 357.8,116.3 359.0,115.9 360.2,115.4 361.3,115.0 362.5,114.5 363.7,114.1 364.9,113.6 366.1,113.2 367.3,112.7 368.5,112.3 369.7,111.8 370.8,111.4 372.0,110.9 373.2,110.4 374.4,110.0 375.6,109.5 376.8,109.1 378.0,108.6 379.1,108.2 380.3,107.8 381.5,107.3 382.7,106.9 383.9,106.4 385.1,106.0 386.3,105.5 387.5,105.1 388.6,104.6 389.8,104.2 391.0,103.8 392.2,103.3 393.4,102.9 394.6,102.5 395.8,102.0 396.9,101.6 398.1,101.1 399.3,100.7 400.5,100.3 401.7,99.9 402.9,99.4 404.1,99.0 405.3,98.6 406.4,98.2 407.6,97.7 408.8,97.3 410.0,96.9 411.2,96.5 412.4,96.1 413.6,95.7 414.7,95.2 415.9,94.8 417.1,94.4 418.3,94.0 419.5,93.6 420.7,93.2 421.9,92.8 423.1,92.4 424.2,92.0 425.4,91.6 426.6,91.2 427.8,90.8 429.0,90.4 430.2,90.0 431.4,89.6 432.5,89.2 433.7,88.8 434.9,88.4 436.1,88.0 437.3,87.6 438.5,87.2 439.7,86.9 440.9,86.5 442.0,86.1 443.2,85.7 444.4,85.4 445.6,85.0 446.8,84.6 448.0,84.2 449.2,83.9 450.3,83.5 451.5,83.1 452.7,82.7 453.9,82.4 455.1,82.0 456.3,81.7 457.5,81.3 458.7,81.0 459.8,80.6 461.0,80.2 462.2,79.9 463.4,79.5 464.6,79.2 465.8,78.8 467.0,78.5 468.1,78.2 469.3,77.8 470.5,77.5 471.7,77.1 472.9,76.8 474.1,76.4 475.3,76.1 476.5,75.8 477.6,75.4 478.8,75.1 480.0,74.8 481.2,74.4 482.4,74.1 483.6,73.8 484.8,73.5 485.9,73.1 487.1,72.8 488.3,72.5 489.5,72.2 490.7,71.9 491.9,71.6 493.1,71.2 494.3,70.9 495.4,70.6 496.6,70.3 497.8,70.0 499.0,69.7 500.2,69.4 501.4,69.1 502.6,68.8 503.7,68.5 504.9,68.2 506.1,67.9 507.3,67.6 508.5,67.3 509.7,67.0 510.9,66.7 512.1,66.4 513.2,66.1 514.4,65.8 515.6,65.5 516.8,65.2 518.0,65.0 519.2,64.7 520.4,64.4 521.5,64.1 522.7,63.8 523.9,63.5 525.1,63.3 526.3,63.0 527.5,62.7 528.7,62.4 529.9,62.2 531.0,61.9 532.2,61.7 533.4,61.4 534.6,61.1 535.8,60.8 537.0,60.6 538.2,60.3 539.3,60.1 540.5,59.8 541.7,59.6 542.9,59.3 544.1,59.1 545.3,58.8 546.5,58.5 547.7,58.3 548.8,58.1 550.0,57.8 551.2,57.6 552.4,57.3 553.6,57.1 554.8,56.8 556.0,56.6 557.1,56.3 558.3,56.1 559.5,55.9 560.7,55.6 561.9,55.4 563.1,55.2 564.3,54.9 565.5,54.7 566.6,54.5 567.8,54.2 569.0,54.0 570.2,54.6 571.4,55.2 572.6,55.8 573.8,56.4 574.9,57.0 576.1,57.6 577.3,58.2 578.5,58.8 579.7,59.4 580.9,60.0 582.1,60.6 583.3,61.1 584.4,61.7 585.6,62.3 586.8,62.9 588.0,63.5 589.2,64.0 590.4,64.6 591.6,65.2 592.7,65.7 593.9,66.3 595.1,66.8 596.3,67.4 597.5,67.9 598.7,68.5 599.9,69.0 601.1,69.6 602.2,70.1 603.4,70.7 604.6,71.2 605.8,71.8 607.0,72.3 608.2,72.8 609.4,73.4 610.5,73.9 611.7,74.4 612.9,74.9 614.1,75.5 615.3,76.0 616.5,76.5 617.7,77.0 618.9,77.5 620.0,78.0 621.2,78.5 622.4,79.1 623.6,79.6 624.8,80.1 626.0,80.6 627.2,81.1 628.3,81.6 629.5,82.1 630.7,82.5 631.9,83.1 633.1,83.5 634.3,84.0 635.5,84.5 636.7,85.0 637.8,85.5 639.0,86.0 640.2,86.4 641.4,86.9 642.6,87.4 643.8,87.9 645.0,88.3 646.1,88.8 647.3,89.3 648.5,89.7 649.7,90.2 650.9,90.7 652.1,91.1 653.3,91.6 654.5,92.0 655.6,92.5 656.8,92.9 658.0,93.4 659.2,93.8 660.4,94.3 661.6,94.7 662.8,95.2 663.9,95.6 665.1,96.1 666.3,96.5 667.5,97.0 668.7,97.4 669.9,97.8 671.1,98.3 672.3,98.7 673.4,99.1 674.6,99.6 675.8,100.0 677.0,100.4 678.2,100.8 679.4,101.3 680.6,101.7 681.7,102.1 682.9,102.5 684.1,103.0 685.3,103.4 686.5,103.8 687.7,104.2 688.9,104.6 690.1,105.0 691.2,105.4 692.4,105.8 693.6,106.3 694.8,106.6 696.0,107.1 697.2,107.5 698.4,107.9 699.5,108.3 700.7,108.7 701.9,109.1 703.1,109.5 704.3,109.8 705.5,110.3 706.7,110.6 707.9,111.0 709.0,111.4 710.2,111.8 711.4,112.2 712.6,112.6 713.8,113.0 715.0,113.4 716.2,113.7 717.3,114.1 718.5,114.5 719.7,114.9 720.9,115.2 722.1,115.6 723.3,116.0 724.5,116.4 725.7,116.7 726.8,117.1 728.0,117.5 729.2,117.9 730.4,118.2 731.6,118.6 732.8,119.0 734.0,119.3 735.1,119.7 736.3,120.1 737.5,120.4 738.7,120.8 739.9,121.1 741.1,121.5 742.3,121.8 743.5,122.2 744.6,122.6 745.8,122.9 747.0,123.3 748.2,123.6 749.4,124.0 750.6,124.3 751.8,124.7 752.9,125.0 754.1,125.3 755.3,125.7 756.5,126.0 757.7,126.4 758.9,126.7 760.1,127.1 761.3,127.4 762.4,127.8 763.6,128.1 764.8,128.4 766.0,128.8"/>
<line x1="606" y1="42" x2="628" y2="42" stroke="#0f62fe" stroke-width="2.2"/>
<text x="634" y="46" font-family="Arial" font-size="12">mach</text>
</svg>