<svg xmlns="http://www.w3.org/2000/svg" width="820" height="320" viewBox="0 0 820 320">
<rect width="100%" height="100%" fill="#ffffff"/>
<text x="54" y="28" font-family="Arial" font-size="18" font-weight="700">Load Factor</text>
<line x1="54" y1="266" x2="766" y2="266" stroke="#1f2933"/>
<line x1="54" y1="54" x2="54" y2="266" stroke="#1f2933"/>
<text x="54" y="306" font-family="Arial" font-size="12">time (s)</text>
<text x="596" y="306" font-family="Arial" font-size="12">g</text>
<text x="58" y="68" font-family="Arial" font-size="11">2.3</text>
<text x="58" y="260" font-family="Arial" font-size="11">0.926</text>
<polyline fill="none" stroke="#0f62fe" stroke-width="2.2" points="54.0,140.1 55.2,135.8 56.4,131.4 57.6,126.8 58.7,122.2 59.9,117.5 61.1,112.7 62.3,107.9 63.5,103.1 64.7,98.2 65.9,93.3 67.1,88.5 68.2,83.6 69.4,78.7 70.6,77.2 71.8,77.3 73.0,77.5 74.2,77.6 75.4,77.7 76.5,77.9 77.7,78.0 78.9,78.1 80.1,78.2 81.3,78.4 82.5,78.5 83.7,78.6 84.9,78.7 86.0,78.8 87.2,78.9 88.4,79.0 89.6,79.1 90.8,79.2 92.0,79.3 93.2,79.4 94.3,79.5 95.5,79.6 96.7,79.7 97.9,79.7 99.1,79.8 100.3,79.9 101.5,80.0 102.7,80.1 103.8,80.1 105.0,80.2 106.2,80.3 107.4,80.3 108.6,80.4 109.8,80.4 111.0,80.5 112.1,80.6 113.3,80.6 114.5,80.7 115.7,80.7 116.9,80.8 118.1,80.8 119.3,80.8 120.5,80.9 121.6,80.9 122.8,81.0 124.0,81.0 125.2,81.0 126.4,81.1 127.6,81.1 128.8,81.1 129.9,81.1 131.1,81.2 132.3,81.2 133.5,81.2 134.7,81.2 135.9,81.2 137.1,81.3 138.3,81.3 139.4,81.3 140.6,81.3 141.8,81.3 143.0,81.3 144.2,81.3 145.4,81.3 146.6,81.3 147.7,81.3 148.9,81.4 150.1,81.4 151.3,81.4 152.5,81.3 153.7,81.2 154.9,81.2 156.1,81.1 157.2,81.0 158.4,80.9 159.6,80.8 160.8,80.6 162.0,80.5 163.2,80.4 164.4,80.2 165.5,80.0 166.7,79.9 167.9,79.7 169.1,79.5 170.3,79.4 171.5,79.2 172.7,79.0 173.9,78.8 175.0,78.6 176.2,78.5 177.4,78.3 178.6,78.1 179.8,77.9 181.0,77.7 182.2,77.5 183.3,77.3 184.5,77.1 185.7,77.0 186.9,76.8 188.1,76.6 189.3,76.4 190.5,76.2 191.7,76.1 192.8,75.9 194.0,75.7 195.2,75.6 196.4,75.4 197.6,75.2 198.8,75.1 200.0,74.9 201.1,74.8 202.3,74.7 203.5,74.5 204.7,74.4 205.9,74.3 207.1,74.2 208.3,74.1 209.5,74.0 210.6,73.9 211.8,73.8 213.0,73.7 214.2,73.7 215.4,73.6 216.6,73.6 217.8,73.5 218.9,73.5 220.1,73.4 221.3,73.4 222.5,73.4 223.7,73.4 224.9,73.4 226.1,73.4 227.3,73.4 228.4,73.5 229.6,73.5 230.8,73.5 232.0,73.6 233.2,73.7 234.4,73.7 235.6,73.8 236.7,73.9 237.9,74.0 239.1,74.1 240.3,74.2 241.5,74.4 242.7,74.5 243.9,74.6 245.1,74.8 246.2,75.0 247.4,75.1 248.6,75.3 249.8,75.5 251.0,75.7 252.2,75.9 253.4,76.1 254.5,76.4 255.7,76.6 256.9,76.8 258.1,77.1 259.3,77.4 260.5,77.6 261.7,77.9 262.9,78.2 264.0,78.5 265.2,78.8 266.4,79.1 267.6,79.4 268.8,79.7 270.0,80.1 271.2,80.4 272.3,80.7 273.5,81.2 274.7,81.4 275.9,82.1 277.1,81.7 278.3,83.7 279.5,80.4 280.7,89.3 281.8,68.7 283.0,106.2 284.2,85.9 285.4,100.7 286.6,66.9 287.8,98.6 289.0,75.3 290.1,110.4 291.3,85.2 292.5,111.5 293.7,76.5 294.9,103.0 296.1,61.9 297.3,91.0 298.5,60.0 299.6,102.3 300.8,76.8 302.0,115.0 303.2,90.3 304.4,114.1 305.6,73.1 306.8,100.4 307.9,61.8 309.1,100.4 310.3,66.6 311.5,108.4 312.7,75.9 313.9,115.4 315.1,84.2 316.3,121.5 317.4,91.8 318.6,126.7 319.8,99.2 321.0,128.3 322.2,94.1 323.4,124.9 324.6,86.8 325.7,120.5 326.9,79.7 328.1,116.0 329.3,72.7 330.5,111.4 331.7,66.0 332.9,106.8 334.1,59.4 335.2,101.4 336.4,54.0 337.6,100.6 338.8,54.0 340.0,102.5 341.2,55.6 342.4,104.4 343.5,57.2 344.7,106.0 345.9,58.4 347.1,107.3 348.3,59.2 349.5,108.3 350.7,59.8 351.9,109.3 353.0,62.8 354.2,114.7 355.4,68.7 356.6,119.6 357.8,74.2 359.0,124.1 360.2,79.1 361.3,128.2 362.5,83.6 363.7,131.9 364.9,87.8 366.1,135.4 367.3,91.7 368.5,138.5 369.7,95.2 370.8,141.5 372.0,98.6 373.2,144.5 374.4,101.9 375.6,147.4 376.8,105.0 378.0,150.0 379.1,107.8 380.3,152.6 381.5,110.5 382.7,155.0 383.9,113.1 385.1,157.3 386.3,115.5 387.5,159.6 388.6,117.7 389.8,161.7 391.0,119.9 392.2,163.8 393.4,121.9 394.6,165.8 395.8,123.9 396.9,167.7 398.1,125.7 399.3,169.6 400.5,127.5 401.7,171.5 402.9,129.2 404.1,173.3 405.3,130.8 406.4,175.1 407.6,132.4 408.8,176.8 410.0,133.9 411.2,178.5 412.4,135.4 413.6,180.2 414.7,136.8 415.9,181.9 417.1,138.2 418.3,183.5 419.5,139.5 420.7,185.1 421.9,140.8 423.1,186.7 424.2,142.1 425.4,188.3 426.6,143.3 427.8,189.9 429.0,144.5 430.2,191.4 431.4,145.4 432.5,192.8 433.7,146.0 434.9,194.1 436.1,146.6 437.3,195.4 438.5,147.2 439.7,196.8 440.9,147.9 442.0,198.1 443.2,148.5 444.4,199.5 445.6,149.2 446.8,200.8 448.0,149.9 449.2,202.2 450.3,150.6 451.5,203.6 452.7,151.3 453.9,204.9 455.1,152.0 456.3,206.3 457.5,152.7 458.7,207.7 459.8,153.4 461.0,209.0 462.2,154.2 463.4,210.4 464.6,154.9 465.8,211.8 467.0,155.6 468.1,213.1 469.3,156.3 470.5,214.5 471.7,157.0 472.9,215.9 474.1,157.7 475.3,217.2 476.5,158.5 477.6,218.6 478.8,159.2 480.0,219.9 481.2,159.9 482.4,221.3 483.6,160.6 484.8,222.6 485.9,161.3 487.1,224.0 488.3,161.9 489.5,225.3 490.7,162.6 491.9,226.6 493.1,163.3 494.3,228.0 495.4,164.0 496.6,229.3 497.8,164.6 499.0,230.6 500.2,165.3 501.4,232.0 502.6,165.9 503.7,233.3 504.9,166.6 506.1,234.6 507.3,167.2 508.5,235.9 509.7,167.9 510.9,237.2 512.1,168.5 513.2,238.5 514.4,169.1 515.6,239.8 516.8,169.7 518.0,241.0 519.2,170.3 520.4,242.3 521.5,170.9 522.7,243.6 523.9,171.5 525.1,244.9 526.3,172.0 527.5,246.1 528.7,172.4 529.9,247.3 531.0,172.9 532.2,248.5 533.4,173.3 534.6,249.7 535.8,173.7 537.0,250.9 538.2,174.2 539.3,252.1 540.5,174.6 541.7,253.3 542.9,175.1 544.1,254.4 545.3,175.5 546.5,255.6 547.7,175.9 548.8,256.8 550.0,176.4 551.2,258.0 552.4,176.8 553.6,259.2 554.8,177.2 556.0,260.3 557.1,177.7 558.3,261.5 559.5,178.1 560.7,262.6 561.9,178.5 563.1,263.8 564.3,178.9 565.5,264.9 566.6,179.2 567.8,266.0 569.0,80.8 570.2,154.7 571.4,83.8 572.6,156.8 573.8,85.4 574.9,158.5 576.1,87.0 577.3,160.2 578.5,88.7 579.7,161.9 580.9,90.4 582.1,163.6 583.3,92.2 584.4,165.3 585.6,93.9 586.8,166.9 588.0,95.7 589.2,168.6 590.4,97.5 591.6,170.3 592.7,99.3 593.9,171.9 595.1,101.0 596.3,173.5 597.5,102.8 598.7,175.0 599.9,104.4 601.1,176.5 602.2,105.8 603.4,177.9 604.6,107.3 605.8,179.3 607.0,108.8 608.2,180.8 609.4,110.5 610.5,182.4 611.7,112.3 612.9,184.0 614.1,114.1 615.3,185.5 616.5,115.8 617.7,187.0 618.9,117.5 620.0,188.5 621.2,119.2 622.4,189.9 623.6,120.8 624.8,191.3 626.0,122.5 627.2,192.7 628.3,124.1 629.5,194.1 630.7,125.6 631.9,195.4 633.1,127.2 634.3,196.7 635.5,128.7 636.7,198.0 637.8,130.2 639.0,199.2 640.2,131.6 641.4,200.5 642.6,133.1 643.8,201.7 645.0,134.5 646.1,202.9 647.3,135.9 648.5,204.0 649.7,137.2 650.9,205.2 652.1,138.6 653.3,206.3 654.5,139.9 655.6,207.4 656.8,141.2 658.0,208.5 659.2,142.5 660.4,209.6 661.6,143.8 662.8,210.6 663.9,145.0 665.1,211.6 666.3,146.3 667.5,212.6 668.7,147.5 669.9,213.6 671.1,148.7 672.3,214.6 673.4,149.9 674.6,215.6 675.8,151.0 677.0,216.5 678.2,152.2 679.4,217.4 680.6,153.3 681.7,218.3 682.9,154.4 684.1,219.2 685.3,155.5 686.5,220.1 687.7,156.6 688.9,221.0 690.1,157.7 691.2,221.8 692.4,158.7 693.6,222.6 694.8,159.8 696.0,223.5 697.2,160.8 698.4,224.3 699.5,161.8 700.7,225.1 701.9,162.8 703.1,225.8 704.3,163.8 705.5,226.6 706.7,164.7 707.9,227.3 709.0,165.7 710.2,228.1 711.4,166.6 712.6,228.8 713.8,167.6 715.0,229.5 716.2,168.5 717.3,230.2 718.5,169.4 719.7,230.9 720.9,170.3 722.1,231.6 723.3,171.2 724.5,232.2 725.7,172.0 726.8,232.9 728.0,172.9 729.2,233.5 730.4,173.7 731.6,234.2 732.8,174.6 734.0,234.8 735.1,175.4 736.3,235.4 737.5,176.2 738.7,236.0 739.9,177.0 741.1,236.6 742.3,177.8 743.5,237.2 744.6,178.6 745.8,237.7 747.0,179.3 748.2,238.3 749.4,180.1 750.6,238.8 751.8,180.9 752.9,239.4 754.1,181.6 755.3,239.9 756.5,182.3 757.7,240.4 758.9,183.0 760.1,240.8 761.3,183.6 762.4,241.2 763.6,184.2 764.8,241.5 766.0,184.8"/>
<line x1="606" y1="42" x2="628" y2="42" stroke="#0f62fe" stroke-width="2.2"/>
<text x="634" y="46" font-family="Arial" font-size="12">load_factor_g</text>
</svg>