<svg xmlns="http://www.w3.org/2000/svg" width="820" height="320" viewBox="0 0 820 320">
<rect width="100%" height="100%" fill="#ffffff"/>
<text x="54" y="28" font-family="Arial" font-size="18" font-weight="700">Pitch Command Tracking</text>
<line x1="54" y1="266" x2="766" y2="266" stroke="#1f2933"/>
<line x1="54" y1="54" x2="54" y2="266" stroke="#1f2933"/>
<text x="54" y="306" font-family="Arial" font-size="12">time (s)</text>
<text x="596" y="306" font-family="Arial" font-size="12">pitch (deg)</text>
<text x="58" y="68" font-family="Arial" font-size="11">13</text>
<text x="58" y="260" font-family="Arial" font-size="11">5.54</text>
<polyline fill="none" stroke="#0f62fe" stroke-width="2.2" points="54.0,54.0 55.2,54.4 56.4,54.9 57.6,55.3 58.7,55.7 59.9,56.1 61.1,56.6 62.3,57.0 63.5,57.4 64.7,57.8 65.9,58.3 67.1,58.7 68.2,59.1 69.4,59.5 70.6,60.0 71.8,60.4 73.0,60.8 74.2,61.2 75.4,61.7 76.5,62.1 77.7,62.5 78.9,63.0 80.1,63.4 81.3,63.8 82.5,64.2 83.7,64.7 84.9,65.1 86.0,65.5 87.2,65.9 88.4,66.4 89.6,66.8 90.8,67.2 92.0,67.6 93.2,68.1 94.3,68.5 95.5,68.9 96.7,69.3 97.9,69.8 99.1,70.2 100.3,70.6 101.5,71.0 102.7,71.5 103.8,71.9 105.0,72.3 106.2,72.8 107.4,73.2 108.6,73.6 109.8,74.0 111.0,74.5 112.1,74.9 113.3,75.3 114.5,75.7 115.7,76.2 116.9,76.6 118.1,77.0 119.3,77.4 120.5,77.9 121.6,78.3 122.8,78.7 124.0,79.1 125.2,79.6 126.4,80.0 127.6,80.4 128.8,80.9 129.9,81.3 131.1,81.7 132.3,82.1 133.5,82.6 134.7,83.0 135.9,83.4 137.1,83.8 138.3,84.3 139.4,84.7 140.6,85.1 141.8,85.5 143.0,86.0 144.2,86.4 145.4,86.8 146.6,87.2 147.7,87.7 148.9,88.1 150.1,88.5 151.3,89.0 152.5,89.4 153.7,89.8 154.9,90.2 156.1,90.7 157.2,91.1 158.4,91.5 159.6,91.9 160.8,92.4 162.0,92.8 163.2,93.2 164.4,93.6 165.5,94.1 166.7,94.5 167.9,94.9 169.1,95.3 170.3,95.8 171.5,96.2 172.7,96.6 173.9,97.0 175.0,97.5 176.2,97.9 177.4,98.3 178.6,98.8 179.8,99.2 181.0,99.6 182.2,100.0 183.3,100.5 184.5,100.9 185.7,101.3 186.9,101.7 188.1,102.2 189.3,102.6 190.5,103.0 191.7,103.4 192.8,103.9 194.0,104.3 195.2,104.7 196.4,105.1 197.6,105.6 198.8,106.0 200.0,106.4 201.1,106.9 202.3,107.3 203.5,107.7 204.7,108.1 205.9,108.6 207.1,109.0 208.3,109.4 209.5,109.8 210.6,110.3 211.8,110.7 213.0,111.1 214.2,111.5 215.4,112.0 216.6,112.4 217.8,112.8 218.9,113.2 220.1,113.7 221.3,114.1 222.5,114.5 223.7,115.0 224.9,115.4 226.1,115.8 227.3,116.2 228.4,116.7 229.6,117.1 230.8,117.5 232.0,117.9 233.2,118.4 234.4,118.8 235.6,119.2 236.7,119.6 237.9,120.1 239.1,120.5 240.3,120.9 241.5,121.3 242.7,121.8 243.9,122.2 245.1,122.6 246.2,123.0 247.4,123.5 248.6,123.9 249.8,124.3 251.0,124.8 252.2,125.2 253.4,125.6 254.5,126.0 255.7,126.5 256.9,126.9 258.1,127.3 259.3,127.7 260.5,128.2 261.7,128.6 262.9,129.0 264.0,129.4 265.2,129.9 266.4,130.3 267.6,130.7 268.8,131.1 270.0,131.6 271.2,132.0 272.3,132.4 273.5,132.9 274.7,133.3 275.9,133.7 277.1,134.1 278.3,134.6 279.5,135.0 280.7,135.4 281.8,135.8 283.0,136.3 284.2,136.7 285.4,137.1 286.6,137.5 287.8,138.0 289.0,138.4 290.1,138.8 291.3,139.2 292.5,139.6 293.7,139.9 294.9,140.2 296.1,140.5 297.3,140.8 298.5,141.2 299.6,141.5 300.8,141.8 302.0,142.1 303.2,142.4 304.4,142.8 305.6,143.1 306.8,143.4 307.9,143.7 309.1,144.0 310.3,144.4 311.5,144.7 312.7,145.0 313.9,145.3 315.1,145.6 316.3,146.0 317.4,146.3 318.6,146.6 319.8,146.9 321.0,147.2 322.2,147.6 323.4,147.9 324.6,148.2 325.7,148.5 326.9,148.8 328.1,149.2 329.3,149.5 330.5,149.8 331.7,150.1 332.9,150.4 334.1,150.8 335.2,151.1 336.4,151.4 337.6,151.7 338.8,152.0 340.0,152.4 341.2,152.7 342.4,153.0 343.5,153.3 344.7,153.6 345.9,154.0 347.1,154.3 348.3,154.6 349.5,154.9 350.7,155.2 351.9,155.5 353.0,155.9 354.2,156.2 355.4,156.5 356.6,156.8 357.8,157.1 359.0,157.5 360.2,157.8 361.3,158.1 362.5,158.4 363.7,158.7 364.9,159.1 366.1,159.4 367.3,159.7 368.5,160.0 369.7,160.3 370.8,160.7 372.0,161.0 373.2,161.3 374.4,161.6 375.6,161.9 376.8,162.3 378.0,162.6 379.1,162.9 380.3,163.2 381.5,163.5 382.7,163.9 383.9,164.2 385.1,164.5 386.3,164.8 387.5,165.1 388.6,165.5 389.8,165.8 391.0,166.1 392.2,166.4 393.4,166.7 394.6,167.1 395.8,167.4 396.9,167.7 398.1,168.0 399.3,168.3 400.5,168.7 401.7,169.0 402.9,169.3 404.1,169.6 405.3,169.9 406.4,170.3 407.6,170.6 408.8,170.9 410.0,171.2 411.2,171.5 412.4,171.9 413.6,172.2 414.7,172.5 415.9,172.8 417.1,173.1 418.3,173.5 419.5,173.8 420.7,174.1 421.9,174.4 423.1,174.7 424.2,175.1 425.4,175.4 426.6,175.7 427.8,176.0 429.0,176.3 430.2,176.6 431.4,177.0 432.5,177.3 433.7,177.6 434.9,177.9 436.1,178.2 437.3,178.6 438.5,178.9 439.7,179.2 440.9,179.5 442.0,179.8 443.2,180.2 444.4,180.5 445.6,180.8 446.8,181.1 448.0,181.4 449.2,181.8 450.3,182.1 451.5,182.4 452.7,182.7 453.9,183.0 455.1,183.4 456.3,183.7 457.5,184.0 458.7,184.3 459.8,184.6 461.0,185.0 462.2,185.3 463.4,185.6 464.6,185.9 465.8,186.2 467.0,186.6 468.1,186.9 469.3,187.2 470.5,187.5 471.7,187.8 472.9,188.2 474.1,188.5 475.3,188.8 476.5,189.1 477.6,189.4 478.8,189.8 480.0,190.1 481.2,190.4 482.4,190.7 483.6,191.0 484.8,191.4 485.9,191.7 487.1,192.0 488.3,192.3 489.5,192.6 490.7,193.0 491.9,193.3 493.1,193.6 494.3,193.9 495.4,194.2 496.6,194.6 497.8,194.9 499.0,195.2 500.2,195.5 501.4,195.8 502.6,196.1 503.7,196.5 504.9,196.8 506.1,197.1 507.3,197.4 508.5,197.7 509.7,198.1 510.9,198.4 512.1,198.7 513.2,199.0 514.4,199.3 515.6,199.7 516.8,200.0 518.0,200.3 519.2,200.6 520.4,200.9 521.5,201.3 522.7,201.6 523.9,201.9 525.1,202.2 526.3,202.5 527.5,202.9 528.7,203.2 529.9,203.5 531.0,203.8 532.2,204.1 533.4,204.5 534.6,204.8 535.8,205.1 537.0,205.4 538.2,205.7 539.3,206.1 540.5,206.4 541.7,206.7 542.9,207.0 544.1,207.3 545.3,207.7 546.5,208.0 547.7,208.3 548.8,208.6 550.0,208.9 551.2,209.3 552.4,209.6 553.6,209.9 554.8,210.2 556.0,210.5 557.1,210.9 558.3,211.2 559.5,211.5 560.7,211.8 561.9,212.1 563.1,212.5 564.3,212.8 565.5,213.1 566.6,213.4 567.8,213.7 569.0,214.1 570.2,214.4 571.4,214.7 572.6,215.0 573.8,215.3 574.9,215.6 576.1,216.0 577.3,216.3 578.5,216.6 579.7,216.9 580.9,217.2 582.1,217.6 583.3,217.9 584.4,218.2 585.6,218.5 586.8,218.8 588.0,219.2 589.2,219.5 590.4,219.8 591.6,220.1 592.7,220.4 593.9,220.8 595.1,221.1 596.3,221.4 597.5,221.7 598.7,222.0 599.9,222.4 601.1,222.7 602.2,223.0 603.4,223.3 604.6,223.6 605.8,224.0 607.0,224.3 608.2,224.5 609.4,224.5 610.5,224.5 611.7,224.5 612.9,224.5 614.1,224.5 615.3,224.5 616.5,224.5 617.7,224.5 618.9,224.5 620.0,224.5 621.2,224.5 622.4,224.5 623.6,224.5 624.8,224.5 626.0,224.5 627.2,224.5 628.3,224.5 629.5,224.5 630.7,224.5 631.9,224.5 633.1,224.5 634.3,224.5 635.5,224.5 636.7,224.5 637.8,224.5 639.0,224.5 640.2,224.5 641.4,224.5 642.6,224.5 643.8,224.5 645.0,224.5 646.1,224.5 647.3,224.5 648.5,224.5 649.7,224.5 650.9,224.5 652.1,224.5 653.3,224.5 654.5,224.5 655.6,224.5 656.8,224.5 658.0,224.5 659.2,224.5 660.4,224.5 661.6,224.5 662.8,224.5 663.9,224.5 665.1,224.5 666.3,224.5 667.5,224.5 668.7,224.5 669.9,224.5 671.1,224.5 672.3,224.5 673.4,224.5 674.6,224.5 675.8,224.5 677.0,224.5 678.2,224.5 679.4,224.5 680.6,224.5 681.7,224.5 682.9,224.5 684.1,224.5 685.3,224.5 686.5,224.5 687.7,224.5 688.9,224.5 690.1,224.5 691.2,224.5 692.4,224.5 693.6,224.5 694.8,224.5 696.0,224.5 697.2,224.5 698.4,224.5 699.5,224.5 700.7,224.5 701.9,224.5 703.1,224.5 704.3,224.5 705.5,224.5 706.7,224.5 707.9,224.5 709.0,224.5 710.2,224.5 711.4,224.5 712.6,224.5 713.8,224.5 715.0,224.5 716.2,224.5 717.3,224.5 718.5,224.5 719.7,224.5 720.9,224.5 722.1,224.5 723.3,224.5 724.5,224.5 725.7,224.5 726.8,224.5 728.0,224.5 729.2,224.5 730.4,224.5 731.6,224.5 732.8,224.5 734.0,224.5 735.1,224.5 736.3,224.5 737.5,224.5 738.7,224.5 739.9,224.5 741.1,224.5 742.3,224.5 743.5,224.5 744.6,224.5 745.8,224.5 747.0,224.5 748.2,224.5 749.4,224.5 750.6,224.5 751.8,224.5 752.9,224.5 754.1,224.5 755.3,224.5 756.5,224.5 757.7,224.5 758.9,224.5 760.1,224.5 761.3,224.5 762.4,224.5 763.6,224.5 764.8,224.5 766.0,224.5"/>
<line x1="606" y1="42" x2="628" y2="42" stroke="#0f62fe" stroke-width="2.2"/>
<text x="634" y="46" font-family="Arial" font-size="12">pitch_command_deg</text>
<polyline fill="none" stroke="#24a148" stroke-width="2.2" points="54.0,252.9 55.2,245.4 56.4,234.7 57.6,226.0 58.7,221.0 59.9,218.3 61.1,216.3 62.3,214.3 63.5,212.5 64.7,211.2 65.9,210.6 67.1,210.3 68.2,210.4 69.4,210.7 70.6,211.1 71.8,211.7 73.0,212.4 74.2,213.3 75.4,214.3 76.5,215.3 77.7,216.4 78.9,217.6 80.1,218.7 81.3,220.0 82.5,221.2 83.7,222.4 84.9,223.7 86.0,224.9 87.2,226.2 88.4,227.4 89.6,228.6 90.8,229.8 92.0,231.1 93.2,232.2 94.3,233.4 95.5,234.6 96.7,235.7 97.9,236.8 99.1,237.9 100.3,239.0 101.5,240.0 102.7,241.1 103.8,242.1 105.0,243.1 106.2,244.0 107.4,245.0 108.6,245.9 109.8,246.8 111.0,247.7 112.1,248.5 113.3,249.4 114.5,250.2 115.7,251.0 116.9,251.7 118.1,252.5 119.3,253.2 120.5,253.9 121.6,254.6 122.8,255.3 124.0,256.0 125.2,256.6 126.4,257.2 127.6,257.8 128.8,258.4 129.9,258.9 131.1,259.5 132.3,260.0 133.5,260.5 134.7,261.0 135.9,261.4 137.1,261.9 138.3,262.3 139.4,262.7 140.6,263.1 141.8,263.5 143.0,263.9 144.2,264.3 145.4,264.6 146.6,264.9 147.7,265.2 148.9,265.5 150.1,265.8 151.3,265.9 152.5,266.0 153.7,266.0 154.9,265.9 156.1,265.8 157.2,265.6 158.4,265.4 159.6,265.2 160.8,264.9 162.0,264.5 163.2,264.2 164.4,263.8 165.5,263.4 166.7,262.9 167.9,262.4 169.1,262.0 170.3,261.5 171.5,260.9 172.7,260.4 173.9,259.8 175.0,259.3 176.2,258.7 177.4,258.1 178.6,257.5 179.8,256.9 181.0,256.3 182.2,255.6 183.3,255.0 184.5,254.3 185.7,253.7 186.9,253.0 188.1,252.3 189.3,251.6 190.5,250.9 191.7,250.2 192.8,249.5 194.0,248.8 195.2,248.1 196.4,247.4 197.6,246.7 198.8,245.9 200.0,245.2 201.1,244.5 202.3,243.7 203.5,243.0 204.7,242.3 205.9,241.5 207.1,240.8 208.3,240.0 209.5,239.3 210.6,238.6 211.8,237.8 213.0,237.1 214.2,236.3 215.4,235.6 216.6,234.9 217.8,234.1 218.9,233.4 220.1,232.6 221.3,231.9 222.5,231.2 223.7,230.5 224.9,229.7 226.1,229.0 227.3,228.3 228.4,227.6 229.6,226.9 230.8,226.1 232.0,225.4 233.2,224.7 234.4,224.0 235.6,223.4 236.7,222.7 237.9,222.0 239.1,221.3 240.3,220.6 241.5,220.0 242.7,219.3 243.9,218.7 245.1,218.0 246.2,217.4 247.4,216.7 248.6,216.1 249.8,215.5 251.0,214.8 252.2,214.2 253.4,213.6 254.5,213.0 255.7,212.4 256.9,211.8 258.1,211.3 259.3,210.7 260.5,210.1 261.7,209.6 262.9,209.0 264.0,208.5 265.2,207.9 266.4,207.4 267.6,206.9 268.8,206.4 270.0,205.9 271.2,205.4 272.3,204.9 273.5,204.4 274.7,203.9 275.9,203.5 277.1,202.8 278.3,203.0 279.5,201.0 280.7,204.1 281.8,195.4 283.0,214.6 284.2,205.6 285.4,210.4 286.6,194.5 287.8,206.7 289.0,197.1 290.1,214.2 291.3,203.2 292.5,213.7 293.7,196.0 294.9,204.8 296.1,185.5 297.3,194.4 298.5,183.7 299.6,201.1 300.8,191.6 302.0,209.5 303.2,199.4 304.4,207.6 305.6,187.7 306.8,196.0 307.9,180.8 309.1,193.7 310.3,181.8 311.5,198.1 312.7,186.1 313.9,202.4 315.1,190.5 316.3,206.7 317.4,194.8 318.6,211.0 319.8,199.1 321.0,211.3 322.2,195.3 323.4,206.8 324.6,190.1 325.7,201.6 326.9,184.9 328.1,196.4 329.3,179.7 330.5,191.1 331.7,174.5 332.9,185.9 334.1,169.2 335.2,180.7 336.4,165.0 337.6,177.5 338.8,162.6 340.0,175.9 341.2,161.1 342.4,174.4 343.5,159.5 344.7,172.8 345.9,158.0 347.1,171.3 348.3,156.5 349.5,169.8 350.7,154.9 351.9,168.2 353.0,154.5 354.2,169.0 355.4,155.3 356.6,169.8 357.8,156.1 359.0,170.6 360.2,156.9 361.3,171.4 362.5,157.7 363.7,172.2 364.9,158.5 366.1,173.0 367.3,159.3 368.5,173.7 369.7,160.1 370.8,174.5 372.0,160.9 373.2,175.3 374.4,161.6 375.6,176.1 376.8,162.4 378.0,176.9 379.1,163.2 380.3,177.7 381.5,164.0 382.7,178.5 383.9,164.8 385.1,179.3 386.3,165.6 387.5,180.0 388.6,166.4 389.8,180.8 391.0,167.2 392.2,181.6 393.4,168.0 394.6,182.4 395.8,168.7 396.9,183.2 398.1,169.5 399.3,184.0 400.5,170.3 401.7,184.8 402.9,171.1 404.1,185.6 405.3,171.9 406.4,186.4 407.6,172.7 408.8,187.1 410.0,173.5 411.2,187.9 412.4,174.3 413.6,188.7 414.7,175.1 415.9,189.5 417.1,175.8 418.3,190.3 419.5,176.6 420.7,191.1 421.9,177.4 423.1,191.9 424.2,178.2 425.4,192.7 426.6,179.0 427.8,193.5 429.0,179.8 430.2,194.2 431.4,180.4 432.5,194.8 433.7,181.0 434.9,195.3 436.1,181.5 437.3,195.8 438.5,182.1 439.7,196.4 440.9,182.6 442.0,196.9 443.2,183.1 444.4,197.5 445.6,183.7 446.8,198.0 448.0,184.2 449.2,198.5 450.3,184.8 451.5,199.1 452.7,185.3 453.9,199.6 455.1,185.8 456.3,200.2 457.5,186.4 458.7,200.7 459.8,186.9 461.0,201.3 462.2,187.5 463.4,201.8 464.6,188.0 465.8,202.3 467.0,188.5 468.1,202.9 469.3,189.1 470.5,203.4 471.7,189.6 472.9,204.0 474.1,190.2 475.3,204.5 476.5,190.7 477.6,205.0 478.8,191.2 480.0,205.6 481.2,191.8 482.4,206.1 483.6,192.3 484.8,206.7 485.9,192.9 487.1,207.2 488.3,193.4 489.5,207.7 490.7,193.9 491.9,208.3 493.1,194.5 494.3,208.8 495.4,195.0 496.6,209.4 497.8,195.6 499.0,209.9 500.2,196.1 501.4,210.4 502.6,196.6 503.7,211.0 504.9,197.2 506.1,211.5 507.3,197.7 508.5,212.1 509.7,198.3 510.9,212.6 512.1,198.8 513.2,213.1 514.4,199.4 515.6,213.7 516.8,199.9 518.0,214.2 519.2,200.4 520.4,214.8 521.5,201.0 522.7,215.3 523.9,201.5 525.1,215.9 526.3,202.1 527.5,216.4 528.7,202.6 529.9,216.9 531.0,203.1 532.2,217.4 533.4,203.6 534.6,217.9 535.8,204.1 537.0,218.4 538.2,204.6 539.3,218.9 540.5,205.1 541.7,219.4 542.9,205.6 544.1,219.9 545.3,206.1 546.5,220.4 547.7,206.6 548.8,220.9 550.0,207.1 551.2,221.4 552.4,207.6 553.6,221.9 554.8,208.1 556.0,222.4 557.1,208.6 558.3,222.9 559.5,209.1 560.7,223.4 561.9,209.6 563.1,223.9 564.3,210.1 565.5,224.4 566.6,210.5 567.8,224.9 569.0,211.0 570.2,225.3 571.4,211.5 572.6,225.7 573.8,211.7 574.9,225.8 576.1,211.9 577.3,226.0 578.5,212.0 579.7,226.2 580.9,212.2 582.1,226.4 583.3,212.4 584.4,226.5 585.6,212.6 586.8,226.7 588.0,212.7 589.2,226.9 590.4,212.9 591.6,227.1 592.7,213.1 593.9,227.2 595.1,213.3 596.3,227.4 597.5,213.4 598.7,227.6 599.9,213.6 601.1,227.8 602.2,213.8 603.4,227.9 604.6,214.0 605.8,228.1 607.0,214.1 608.2,228.3 609.4,214.3 610.5,228.5 611.7,214.5 612.9,228.6 614.1,214.7 615.3,228.8 616.5,214.8 617.7,229.0 618.9,215.0 620.0,229.2 621.2,215.2 622.4,229.3 623.6,215.4 624.8,229.5 626.0,215.5 627.2,229.7 628.3,215.7 629.5,229.9 630.7,215.9 631.9,230.0 633.1,216.0 634.3,230.2 635.5,216.2 636.7,230.4 637.8,216.4 639.0,230.6 640.2,216.6 641.4,230.7 642.6,216.7 643.8,230.9 645.0,216.9 646.1,231.1 647.3,217.1 648.5,231.3 649.7,217.3 650.9,231.4 652.1,217.4 653.3,231.6 654.5,217.6 655.6,231.8 656.8,217.8 658.0,232.0 659.2,218.0 660.4,232.1 661.6,218.1 662.8,232.3 663.9,218.3 665.1,232.5 666.3,218.5 667.5,232.6 668.7,218.7 669.9,232.8 671.1,218.8 672.3,233.0 673.4,219.0 674.6,233.2 675.8,219.2 677.0,233.3 678.2,219.4 679.4,233.5 680.6,219.5 681.7,233.7 682.9,219.7 684.1,233.9 685.3,219.9 686.5,234.0 687.7,220.1 688.9,234.2 690.1,220.2 691.2,234.4 692.4,220.4 693.6,234.6 694.8,220.6 696.0,234.7 697.2,220.8 698.4,234.9 699.5,220.9 700.7,235.1 701.9,221.1 703.1,235.3 704.3,221.3 705.5,235.4 706.7,221.5 707.9,235.6 709.0,221.6 710.2,235.8 711.4,221.8 712.6,236.0 713.8,222.0 715.0,236.1 716.2,222.2 717.3,236.3 718.5,222.3 719.7,236.5 720.9,222.5 722.1,236.7 723.3,222.7 724.5,236.8 725.7,222.9 726.8,237.0 728.0,223.0 729.2,237.2 730.4,223.2 731.6,237.4 732.8,223.4 734.0,237.5 735.1,223.6 736.3,237.7 737.5,223.7 738.7,237.9 739.9,223.9 741.1,238.1 742.3,224.1 743.5,238.2 744.6,224.3 745.8,238.4 747.0,224.4 748.2,238.6 749.4,224.6 750.6,238.8 751.8,224.8 752.9,238.9 754.1,225.0 755.3,239.1 756.5,225.1 757.7,239.3 758.9,225.3 760.1,239.5 761.3,225.5 762.4,239.6 763.6,225.7 764.8,239.8 766.0,225.8"/>
<line x1="606" y1="60" x2="628" y2="60" stroke="#24a148" stroke-width="2.2"/>
<text x="634" y="64" font-family="Arial" font-size="12">pitch_deg</text>
</svg>