<svg xmlns="http://www.w3.org/2000/svg" width="820" height="320" viewBox="0 0 820 320">
<rect width="100%" height="100%" fill="#ffffff"/>
<text x="54" y="28" font-family="Arial" font-size="18" font-weight="700">Speed</text>
<line x1="54" y1="266" x2="766" y2="266" stroke="#1f2933"/>
<line x1="54" y1="54" x2="54" y2="266" stroke="#1f2933"/>
<text x="54" y="306" font-family="Arial" font-size="12">time (s)</text>
<text x="596" y="306" font-family="Arial" font-size="12">speed (m/s)</text>
<text x="58" y="68" font-family="Arial" font-size="11">202</text>
<text x="58" y="260" font-family="Arial" font-size="11">70.1</text>
<polyline fill="none" stroke="#0f62fe" stroke-width="2.2" points="54.0,266.0 55.5,265.6 57.0,265.1 58.5,264.7 59.9,264.2 61.4,263.7 62.9,263.1 64.4,262.6 65.9,262.0 67.3,261.5 68.8,260.9 70.3,260.3 71.8,259.8 73.3,259.2 74.8,258.6 76.2,258.0 77.7,257.4 79.2,256.7 80.7,256.1 82.2,255.5 83.7,254.8 85.2,254.2 86.6,253.6 88.1,253.0 89.6,252.4 91.1,251.7 92.6,251.1 94.1,250.5 95.5,249.9 97.0,249.2 98.5,248.6 100.0,248.0 101.5,247.4 103.0,246.8 104.4,246.2 105.9,245.5 107.4,244.9 108.9,244.3 110.4,243.7 111.8,243.1 113.3,242.5 114.8,241.9 116.3,241.3 117.8,240.6 119.3,240.0 120.8,239.4 122.2,238.8 123.7,238.2 125.2,237.6 126.7,237.0 128.2,236.4 129.7,235.8 131.1,235.2 132.6,234.6 134.1,234.0 135.6,233.4 137.1,232.8 138.6,232.2 140.0,231.6 141.5,231.0 143.0,230.5 144.5,229.9 146.0,229.3 147.4,228.7 148.9,228.1 150.4,227.5 151.9,226.9 153.4,226.3 154.9,225.7 156.4,225.2 157.8,224.6 159.3,224.0 160.8,223.4 162.3,222.8 163.8,222.3 165.2,221.7 166.7,221.1 168.2,220.5 169.7,220.0 171.2,219.4 172.7,218.8 174.1,218.2 175.6,217.7 177.1,217.1 178.6,216.5 180.1,216.0 181.6,215.4 183.1,214.8 184.5,214.3 186.0,213.7 187.5,213.1 189.0,212.6 190.5,212.0 192.0,211.4 193.4,210.9 194.9,210.3 196.4,209.8 197.9,209.2 199.4,208.7 200.9,208.1 202.3,207.6 203.8,207.0 205.3,206.5 206.8,205.9 208.3,205.4 209.8,204.8 211.2,204.3 212.7,203.7 214.2,203.2 215.7,202.6 217.2,202.1 218.7,201.5 220.1,201.0 221.6,200.5 223.1,199.9 224.6,199.4 226.1,198.9 227.6,198.3 229.0,197.8 230.5,197.3 232.0,196.7 233.5,196.2 235.0,195.7 236.5,195.1 237.9,194.6 239.4,194.1 240.9,193.5 242.4,193.0 243.9,192.5 245.3,192.0 246.8,191.5 248.3,190.9 249.8,190.4 251.3,189.9 252.8,189.4 254.2,188.9 255.7,188.3 257.2,187.8 258.7,187.3 260.2,186.8 261.7,186.3 263.1,185.8 264.6,185.3 266.1,184.8 267.6,184.2 269.1,183.7 270.6,183.2 272.1,182.7 273.5,182.2 275.0,181.7 276.5,181.2 278.0,180.7 279.5,180.2 281.0,179.7 282.4,179.2 283.9,178.7 285.4,178.2 286.9,177.7 288.4,177.2 289.9,176.7 291.3,176.2 292.8,175.7 294.3,175.2 295.8,174.8 297.3,174.3 298.8,173.8 300.2,173.3 301.7,172.8 303.2,172.3 304.7,171.8 306.2,171.3 307.6,170.9 309.1,170.4 310.6,169.9 312.1,169.4 313.6,168.9 315.1,168.4 316.5,168.0 318.0,167.5 319.5,167.0 321.0,166.5 322.5,166.1 324.0,165.6 325.5,165.1 326.9,164.6 328.4,164.2 329.9,163.7 331.4,163.2 332.9,162.7 334.4,162.3 335.8,161.8 337.3,161.3 338.8,160.9 340.3,160.4 341.8,159.9 343.2,159.5 344.7,159.0 346.2,158.5 347.7,158.1 349.2,157.6 350.7,157.2 352.2,156.7 353.6,156.2 355.1,155.8 356.6,155.3 358.1,154.9 359.6,154.4 361.1,153.9 362.5,153.5 364.0,153.0 365.5,152.6 367.0,152.1 368.5,151.7 370.0,151.2 371.4,150.8 372.9,150.3 374.4,149.9 375.9,149.4 377.4,149.0 378.9,148.5 380.3,148.1 381.8,147.7 383.3,147.2 384.8,146.8 386.3,146.3 387.8,145.9 389.2,145.4 390.7,145.0 392.2,144.6 393.7,144.1 395.2,143.7 396.7,143.3 398.1,142.8 399.6,142.4 401.1,142.0 402.6,141.5 404.1,141.1 405.6,140.7 407.0,140.3 408.5,139.8 410.0,139.4 411.5,139.0 413.0,138.6 414.4,138.1 415.9,137.7 417.4,137.3 418.9,136.9 420.4,136.4 421.9,136.0 423.4,135.6 424.8,135.2 426.3,134.8 427.8,134.4 429.3,133.9 430.8,133.5 432.2,133.1 433.7,132.7 435.2,132.3 436.7,131.9 438.2,131.5 439.7,131.0 441.2,130.6 442.6,130.2 444.1,129.8 445.6,129.4 447.1,129.0 448.6,128.6 450.1,128.2 451.5,127.8 453.0,127.4 454.5,127.0 456.0,126.6 457.5,126.2 458.9,125.8 460.4,125.4 461.9,125.0 463.4,124.6 464.9,124.2 466.4,123.8 467.9,123.4 469.3,123.0 470.8,122.6 472.3,122.2 473.8,121.8 475.3,121.4 476.8,121.0 478.2,120.6 479.7,120.2 481.2,119.8 482.7,119.4 484.2,119.0 485.7,118.6 487.1,118.2 488.6,117.8 490.1,117.4 491.6,117.0 493.1,116.7 494.6,116.3 496.0,115.9 497.5,115.5 499.0,115.1 500.5,114.7 502.0,114.3 503.4,113.9 504.9,113.5 506.4,113.2 507.9,112.8 509.4,112.4 510.9,112.0 512.4,111.6 513.8,111.2 515.3,110.9 516.8,110.5 518.3,110.1 519.8,109.7 521.2,109.3 522.7,108.9 524.2,108.6 525.7,108.2 527.2,107.8 528.7,107.4 530.2,107.0 531.6,106.7 533.1,106.3 534.6,105.9 536.1,105.5 537.6,105.1 539.0,104.8 540.5,104.4 542.0,104.0 543.5,103.6 545.0,103.3 546.5,102.9 548.0,102.5 549.4,102.2 550.9,101.8 552.4,101.4 553.9,101.0 555.4,100.7 556.8,100.3 558.3,99.9 559.8,99.6 561.3,99.2 562.8,98.8 564.3,98.5 565.8,98.1 567.2,97.7 568.7,97.4 570.2,97.0 571.7,96.7 573.2,96.3 574.7,95.9 576.1,95.6 577.6,95.2 579.1,94.9 580.6,94.5 582.1,94.1 583.6,93.8 585.0,93.4 586.5,93.1 588.0,92.7 589.5,92.3 591.0,92.0 592.5,91.6 593.9,91.3 595.4,90.9 596.9,90.6 598.4,90.2 599.9,89.9 601.3,89.5 602.8,89.2 604.3,88.8 605.8,88.5 607.3,88.1 608.8,87.8 610.2,87.4 611.7,87.1 613.2,86.7 614.7,86.4 616.2,86.0 617.7,85.7 619.2,85.4 620.6,85.0 622.1,84.7 623.6,84.3 625.1,84.0 626.6,83.6 628.1,83.3 629.5,83.0 631.0,82.6 632.5,82.3 634.0,81.9 635.5,81.6 637.0,81.3 638.4,80.9 639.9,80.6 641.4,80.2 642.9,79.9 644.4,79.6 645.9,79.2 647.3,78.9 648.8,78.6 650.3,78.2 651.8,77.9 653.3,77.6 654.8,77.2 656.2,76.9 657.7,76.6 659.2,76.2 660.7,75.9 662.2,75.6 663.7,75.3 665.1,74.9 666.6,74.6 668.1,74.3 669.6,73.9 671.1,73.6 672.6,73.3 674.0,73.0 675.5,72.6 677.0,72.3 678.5,72.0 680.0,71.7 681.5,71.4 682.9,71.0 684.4,70.7 685.9,70.4 687.4,70.1 688.9,69.7 690.4,69.4 691.8,69.1 693.3,68.8 694.8,68.5 696.3,68.2 697.8,67.8 699.2,67.5 700.7,67.2 702.2,66.9 703.7,66.6 705.2,66.3 706.7,66.0 708.2,65.6 709.6,65.3 711.1,65.0 712.6,64.7 714.1,64.4 715.6,64.1 717.1,63.8 718.5,63.5 720.0,63.2 721.5,62.9 723.0,62.6 724.5,62.3 726.0,61.9 727.4,61.6 728.9,61.3 730.4,61.0 731.9,60.7 733.4,60.4 734.9,60.1 736.3,59.8 737.8,59.5 739.3,59.2 740.8,58.9 742.3,58.6 743.8,58.3 745.2,58.0 746.7,57.7 748.2,57.5 749.7,57.2 751.2,56.9 752.7,56.6 754.1,56.3 755.6,56.0 757.1,55.7 758.6,55.4 760.1,55.1 761.6,54.9 763.0,54.6 764.5,54.3 766.0,54.0"/>
<line x1="606" y1="42" x2="628" y2="42" stroke="#0f62fe" stroke-width="2.2"/>
<text x="634" y="46" font-family="Arial" font-size="12">speed_mps</text>
<polyline fill="none" stroke="#24a148" stroke-width="2.2" points="54.0,266.0 55.5,265.6 57.0,265.1 58.5,264.7 59.9,264.2 61.4,263.7 62.9,263.1 64.4,262.6 65.9,262.0 67.3,261.5 68.8,260.9 70.3,260.3 71.8,259.8 73.3,259.2 74.8,258.6 76.2,258.0 77.7,257.4 79.2,256.7 80.7,256.1 82.2,255.5 83.7,254.8 85.2,254.2 86.6,253.6 88.1,253.0 89.6,252.4 91.1,251.7 92.6,251.1 94.1,250.5 95.5,249.9 97.0,249.2 98.5,248.6 100.0,248.0 101.5,247.4 103.0,246.8 104.4,246.2 105.9,245.5 107.4,244.9 108.9,244.3 110.4,243.7 111.8,243.1 113.3,242.5 114.8,241.9 116.3,241.3 117.8,240.6 119.3,240.0 120.8,239.4 122.2,238.8 123.7,238.2 125.2,237.6 126.7,237.0 128.2,236.4 129.7,235.8 131.1,235.2 132.6,234.6 134.1,234.0 135.6,233.4 137.1,232.8 138.6,232.2 140.0,231.6 141.5,231.0 143.0,230.5 144.5,229.9 146.0,229.3 147.4,228.7 148.9,228.1 150.4,227.5 151.9,226.9 153.4,226.3 154.9,225.7 156.4,225.2 157.8,224.6 159.3,224.0 160.8,223.4 162.3,222.8 163.8,222.3 165.2,221.7 166.7,221.1 168.2,220.5 169.7,220.0 171.2,219.4 172.7,218.8 174.1,218.2 175.6,217.7 177.1,217.1 178.6,216.5 180.1,216.0 181.6,215.4 183.1,214.8 184.5,214.3 186.0,213.7 187.5,213.1 189.0,212.6 190.5,212.0 192.0,211.4 193.4,210.9 194.9,210.3 196.4,209.8 197.9,209.2 199.4,208.7 200.9,208.1 202.3,207.6 203.8,207.0 205.3,206.5 206.8,205.9 208.3,205.4 209.8,204.8 211.2,204.3 212.7,203.7 214.2,203.2 215.7,202.6 217.2,202.1 218.7,201.5 220.1,201.0 221.6,200.5 223.1,199.9 224.6,199.4 226.1,198.9 227.6,198.3 229.0,197.8 230.5,197.3 232.0,196.7 233.5,196.2 235.0,195.7 236.5,195.1 237.9,194.6 239.4,194.1 240.9,193.5 242.4,193.0 243.9,192.5 245.3,192.0 246.8,191.5 248.3,190.9 249.8,190.4 251.3,189.9 252.8,189.4 254.2,188.9 255.7,188.3 257.2,187.8 258.7,187.3 260.2,186.8 261.7,186.3 263.1,185.8 264.6,185.3 266.1,184.8 267.6,184.2 269.1,183.7 270.6,183.2 272.1,182.7 273.5,182.2 275.0,181.7 276.5,181.2 278.0,180.7 279.5,180.2 281.0,179.7 282.4,179.2 283.9,178.7 285.4,178.2 286.9,177.7 288.4,177.2 289.9,176.7 291.3,176.2 292.8,175.7 294.3,175.2 295.8,174.8 297.3,174.3 298.8,173.8 300.2,173.3 301.7,172.8 303.2,172.3 304.7,171.8 306.2,171.3 307.6,170.9 309.1,170.4 310.6,169.9 312.1,169.4 313.6,168.9 315.1,168.4 316.5,168.0 318.0,167.5 319.5,167.0 321.0,166.5 322.5,166.1 324.0,165.6 325.5,165.1 326.9,164.6 328.4,164.2 329.9,163.7 331.4,163.2 332.9,162.7 334.4,162.3 335.8,161.8 337.3,161.3 338.8,160.9 340.3,160.4 341.8,159.9 343.2,159.5 344.7,159.0 346.2,158.5 347.7,158.1 349.2,157.6 350.7,157.2 352.2,156.7 353.6,156.2 355.1,155.8 356.6,155.3 358.1,154.9 359.6,154.4 361.1,153.9 362.5,153.5 364.0,153.0 365.5,152.6 367.0,152.1 368.5,151.7 370.0,151.2 371.4,150.8 372.9,150.3 374.4,149.9 375.9,149.4 377.4,149.0 378.9,148.5 380.3,148.1 381.8,147.7 383.3,147.2 384.8,146.8 386.3,146.3 387.8,145.9 389.2,145.4 390.7,145.0 392.2,144.6 393.7,144.1 395.2,143.7 396.7,143.3 398.1,142.8 399.6,142.4 401.1,142.0 402.6,141.5 404.1,141.1 405.6,140.7 407.0,140.3 408.5,139.8 410.0,139.4 411.5,139.0 413.0,138.6 414.4,138.1 415.9,137.7 417.4,137.3 418.9,136.9 420.4,136.4 421.9,136.0 423.4,135.6 424.8,135.2 426.3,134.8 427.8,134.4 429.3,133.9 430.8,133.5 432.2,133.1 433.7,132.7 435.2,132.3 436.7,131.9 438.2,131.5 439.7,131.0 441.2,130.6 442.6,130.2 444.1,129.8 445.6,129.4 447.1,129.0 448.6,128.6 450.1,128.2 451.5,127.8 453.0,127.4 454.5,127.0 456.0,126.6 457.5,126.2 458.9,125.8 460.4,125.4 461.9,125.0 463.4,124.6 464.9,124.2 466.4,123.8 467.9,123.4 469.3,123.0 470.8,122.6 472.3,122.2 473.8,121.8 475.3,121.4 476.8,121.0 478.2,120.6 479.7,120.2 481.2,119.8 482.7,119.4 484.2,119.0 485.7,118.6 487.1,118.2 488.6,117.8 490.1,117.4 491.6,117.0 493.1,116.7 494.6,116.3 496.0,115.9 497.5,115.5 499.0,115.1 500.5,114.7 502.0,114.3 503.4,113.9 504.9,113.5 506.4,113.2 507.9,112.8 509.4,112.4 510.9,112.0 512.4,111.6 513.8,111.2 515.3,110.9 516.8,110.5 518.3,110.1 519.8,109.7 521.2,109.3 522.7,108.9 524.2,108.6 525.7,108.2 527.2,107.8 528.7,107.4 530.2,107.0 531.6,106.7 533.1,106.3 534.6,105.9 536.1,105.5 537.6,105.1 539.0,104.8 540.5,104.4 542.0,104.0 543.5,103.6 545.0,103.3 546.5,102.9 548.0,102.5 549.4,102.2 550.9,101.8 552.4,101.4 553.9,101.0 555.4,100.7 556.8,100.3 558.3,99.9 559.8,99.6 561.3,99.2 562.8,98.8 564.3,98.5 565.8,98.1 567.2,97.7 568.7,97.4 570.2,97.0 571.7,96.7 573.2,96.3 574.7,95.9 576.1,95.6 577.6,95.2 579.1,94.9 580.6,94.5 582.1,94.1 583.6,93.8 585.0,93.4 586.5,93.1 588.0,92.7 589.5,92.3 591.0,92.0 592.5,91.6 593.9,91.3 595.4,90.9 596.9,90.6 598.4,90.2 599.9,89.9 601.3,89.5 602.8,89.2 604.3,88.8 605.8,88.5 607.3,88.1 608.8,87.8 610.2,87.4 611.7,87.1 613.2,86.7 614.7,86.4 616.2,86.0 617.7,85.7 619.2,85.4 620.6,85.0 622.1,84.7 623.6,84.3 625.1,84.0 626.6,83.6 628.1,83.3 629.5,83.0 631.0,82.6 632.5,82.3 634.0,81.9 635.5,81.6 637.0,81.3 638.4,80.9 639.9,80.6 641.4,80.2 642.9,79.9 644.4,79.6 645.9,79.2 647.3,78.9 648.8,78.6 650.3,78.2 651.8,77.9 653.3,77.6 654.8,77.2 656.2,76.9 657.7,76.6 659.2,76.2 660.7,75.9 662.2,75.6 663.7,75.3 665.1,74.9 666.6,74.6 668.1,74.3 669.6,73.9 671.1,73.6 672.6,73.3 674.0,73.0 675.5,72.6 677.0,72.3 678.5,72.0 680.0,71.7 681.5,71.4 682.9,71.0 684.4,70.7 685.9,70.4 687.4,70.1 688.9,69.7 690.4,69.4 691.8,69.1 693.3,68.8 694.8,68.5 696.3,68.2 697.8,67.8 699.2,67.5 700.7,67.2 702.2,66.9 703.7,66.6 705.2,66.3 706.7,66.0 708.2,65.6 709.6,65.3 711.1,65.0 712.6,64.7 714.1,64.4 715.6,64.1 717.1,63.8 718.5,63.5 720.0,63.2 721.5,62.9 723.0,62.6 724.5,62.3 726.0,61.9 727.4,61.6 728.9,61.3 730.4,61.0 731.9,60.7 733.4,60.4 734.9,60.1 736.3,59.8 737.8,59.5 739.3,59.2 740.8,58.9 742.3,58.6 743.8,58.3 745.2,58.0 746.7,57.7 748.2,57.5 749.7,57.2 751.2,56.9 752.7,56.6 754.1,56.3 755.6,56.0 757.1,55.7 758.6,55.4 760.1,55.1 761.6,54.9 763.0,54.6 764.5,54.3 766.0,54.0"/>
<line x1="606" y1="60" x2="628" y2="60" stroke="#24a148" stroke-width="2.2"/>
<text x="634" y="64" font-family="Arial" font-size="12">airspeed_mps</text>
</svg>