<svg xmlns="http://www.w3.org/2000/svg" width="820" height="320" viewBox="0 0 820 320">
<rect width="100%" height="100%" fill="#ffffff"/>
<text x="54" y="28" font-family="Arial" font-size="18" font-weight="700">Euler Angles</text>
<line x1="54" y1="266" x2="766" y2="266" stroke="#1f2933"/>
<line x1="54" y1="54" x2="54" y2="266" stroke="#1f2933"/>
<text x="54" y="306" font-family="Arial" font-size="12">time (s)</text>
<text x="596" y="306" font-family="Arial" font-size="12">angle (deg)</text>
<text x="58" y="68" font-family="Arial" font-size="11">25.2</text>
<text x="58" y="260" font-family="Arial" font-size="11">0</text>
<polyline fill="none" stroke="#0f62fe" stroke-width="2.2" points="54.0,266.0 55.5,266.0 57.0,266.0 58.5,266.0 59.9,266.0 61.4,266.0 62.9,266.0 64.4,266.0 65.9,266.0 67.3,266.0 68.8,266.0 70.3,266.0 71.8,266.0 73.3,266.0 74.8,266.0 76.2,266.0 77.7,266.0 79.2,266.0 80.7,266.0 82.2,266.0 83.7,266.0 85.2,266.0 86.6,266.0 88.1,266.0 89.6,266.0 91.1,266.0 92.6,266.0 94.1,266.0 95.5,266.0 97.0,266.0 98.5,266.0 100.0,266.0 101.5,266.0 103.0,266.0 104.4,266.0 105.9,266.0 107.4,266.0 108.9,266.0 110.4,266.0 111.8,266.0 113.3,266.0 114.8,266.0 116.3,266.0 117.8,266.0 119.3,266.0 120.8,266.0 122.2,266.0 123.7,266.0 125.2,266.0 126.7,266.0 128.2,266.0 129.7,266.0 131.1,266.0 132.6,266.0 134.1,266.0 135.6,266.0 137.1,266.0 138.6,266.0 140.0,266.0 141.5,266.0 143.0,266.0 144.5,266.0 146.0,266.0 147.4,266.0 148.9,266.0 150.4,266.0 151.9,266.0 153.4,266.0 154.9,266.0 156.4,266.0 157.8,266.0 159.3,266.0 160.8,266.0 162.3,266.0 163.8,266.0 165.2,266.0 166.7,266.0 168.2,266.0 169.7,266.0 171.2,266.0 172.7,266.0 174.1,266.0 175.6,266.0 177.1,266.0 178.6,266.0 180.1,266.0 181.6,266.0 183.1,266.0 184.5,266.0 186.0,266.0 187.5,266.0 189.0,266.0 190.5,266.0 192.0,266.0 193.4,266.0 194.9,266.0 196.4,266.0 197.9,266.0 199.4,266.0 200.9,266.0 202.3,266.0 203.8,266.0 205.3,266.0 206.8,266.0 208.3,266.0 209.8,266.0 211.2,266.0 212.7,266.0 214.2,266.0 215.7,266.0 217.2,266.0 218.7,266.0 220.1,266.0 221.6,266.0 223.1,266.0 224.6,266.0 226.1,266.0 227.6,266.0 229.0,266.0 230.5,266.0 232.0,266.0 233.5,266.0 235.0,266.0 236.5,266.0 237.9,266.0 239.4,266.0 240.9,266.0 242.4,266.0 243.9,266.0 245.3,266.0 246.8,266.0 248.3,266.0 249.8,266.0 251.3,266.0 252.8,266.0 254.2,266.0 255.7,266.0 257.2,266.0 258.7,266.0 260.2,266.0 261.7,266.0 263.1,266.0 264.6,266.0 266.1,266.0 267.6,266.0 269.1,266.0 270.6,266.0 272.1,266.0 273.5,266.0 275.0,266.0 276.5,266.0 278.0,266.0 279.5,266.0 281.0,266.0 282.4,266.0 283.9,266.0 285.4,266.0 286.9,266.0 288.4,266.0 289.9,266.0 291.3,266.0 292.8,266.0 294.3,266.0 295.8,266.0 297.3,266.0 298.8,266.0 300.2,266.0 301.7,266.0 303.2,266.0 304.7,266.0 306.2,266.0 307.6,266.0 309.1,266.0 310.6,266.0 312.1,266.0 313.6,266.0 315.1,266.0 316.5,266.0 318.0,266.0 319.5,266.0 321.0,266.0 322.5,266.0 324.0,266.0 325.5,266.0 326.9,266.0 328.4,266.0 329.9,266.0 331.4,266.0 332.9,266.0 334.4,266.0 335.8,266.0 337.3,266.0 338.8,266.0 340.3,266.0 341.8,266.0 343.2,266.0 344.7,266.0 346.2,266.0 347.7,266.0 349.2,266.0 350.7,266.0 352.2,266.0 353.6,266.0 355.1,266.0 356.6,266.0 358.1,266.0 359.6,266.0 361.1,266.0 362.5,266.0 364.0,266.0 365.5,266.0 367.0,266.0 368.5,266.0 370.0,266.0 371.4,266.0 372.9,266.0 374.4,266.0 375.9,266.0 377.4,266.0 378.9,266.0 380.3,266.0 381.8,266.0 383.3,266.0 384.8,266.0 386.3,266.0 387.8,266.0 389.2,266.0 390.7,266.0 392.2,266.0 393.7,266.0 395.2,266.0 396.7,266.0 398.1,266.0 399.6,266.0 401.1,266.0 402.6,266.0 404.1,266.0 405.6,266.0 407.0,266.0 408.5,266.0 410.0,266.0 411.5,266.0 413.0,266.0 414.4,266.0 415.9,266.0 417.4,266.0 418.9,266.0 420.4,266.0 421.9,266.0 423.4,266.0 424.8,266.0 426.3,266.0 427.8,266.0 429.3,266.0 430.8,266.0 432.2,266.0 433.7,266.0 435.2,266.0 436.7,266.0 438.2,266.0 439.7,266.0 441.2,266.0 442.6,266.0 444.1,266.0 445.6,266.0 447.1,266.0 448.6,266.0 450.1,266.0 451.5,266.0 453.0,266.0 454.5,266.0 456.0,266.0 457.5,266.0 458.9,266.0 460.4,266.0 461.9,266.0 463.4,266.0 464.9,266.0 466.4,266.0 467.9,266.0 469.3,266.0 470.8,266.0 472.3,266.0 473.8,266.0 475.3,266.0 476.8,266.0 478.2,266.0 479.7,266.0 481.2,266.0 482.7,266.0 484.2,266.0 485.7,266.0 487.1,266.0 488.6,266.0 490.1,266.0 491.6,266.0 493.1,266.0 494.6,266.0 496.0,266.0 497.5,266.0 499.0,266.0 500.5,266.0 502.0,266.0 503.4,266.0 504.9,266.0 506.4,266.0 507.9,266.0 509.4,266.0 510.9,266.0 512.4,266.0 513.8,266.0 515.3,266.0 516.8,266.0 518.3,266.0 519.8,266.0 521.2,266.0 522.7,266.0 524.2,266.0 525.7,266.0 527.2,266.0 528.7,266.0 530.2,266.0 531.6,266.0 533.1,266.0 534.6,266.0 536.1,266.0 537.6,266.0 539.0,266.0 540.5,266.0 542.0,266.0 543.5,266.0 545.0,266.0 546.5,266.0 548.0,266.0 549.4,266.0 550.9,266.0 552.4,266.0 553.9,266.0 555.4,266.0 556.8,266.0 558.3,266.0 559.8,266.0 561.3,266.0 562.8,266.0 564.3,266.0 565.8,266.0 567.2,266.0 568.7,266.0 570.2,266.0 571.7,266.0 573.2,266.0 574.7,266.0 576.1,266.0 577.6,266.0 579.1,266.0 580.6,266.0 582.1,266.0 583.6,266.0 585.0,266.0 586.5,266.0 588.0,266.0 589.5,266.0 591.0,266.0 592.5,266.0 593.9,266.0 595.4,266.0 596.9,266.0 598.4,266.0 599.9,266.0 601.3,266.0 602.8,266.0 604.3,266.0 605.8,266.0 607.3,266.0 608.8,266.0 610.2,266.0 611.7,266.0 613.2,266.0 614.7,266.0 616.2,266.0 617.7,266.0 619.2,266.0 620.6,266.0 622.1,266.0 623.6,266.0 625.1,266.0 626.6,266.0 628.1,266.0 629.5,266.0 631.0,266.0 632.5,266.0 634.0,266.0 635.5,266.0 637.0,266.0 638.4,266.0 639.9,266.0 641.4,266.0 642.9,266.0 644.4,266.0 645.9,266.0 647.3,266.0 648.8,266.0 650.3,266.0 651.8,266.0 653.3,266.0 654.8,266.0 656.2,266.0 657.7,266.0 659.2,266.0 660.7,266.0 662.2,266.0 663.7,266.0 665.1,266.0 666.6,266.0 668.1,266.0 669.6,266.0 671.1,266.0 672.6,266.0 674.0,266.0 675.5,266.0 677.0,266.0 678.5,266.0 680.0,266.0 681.5,266.0 682.9,266.0 684.4,266.0 685.9,266.0 687.4,266.0 688.9,266.0 690.4,266.0 691.8,266.0 693.3,266.0 694.8,266.0 696.3,266.0 697.8,266.0 699.2,266.0 700.7,266.0 702.2,266.0 703.7,266.0 705.2,266.0 706.7,266.0 708.2,266.0 709.6,266.0 711.1,266.0 712.6,266.0 714.1,266.0 715.6,266.0 717.1,266.0 718.5,266.0 720.0,266.0 721.5,266.0 723.0,266.0 724.5,266.0 726.0,266.0 727.4,266.0 728.9,266.0 730.4,266.0 731.9,266.0 733.4,266.0 734.9,266.0 736.3,266.0 737.8,266.0 739.3,266.0 740.8,266.0 742.3,266.0 743.8,266.0 745.2,266.0 746.7,266.0 748.2,266.0 749.7,266.0 751.2,266.0 752.7,266.0 754.1,266.0 755.6,266.0 757.1,266.0 758.6,266.0 760.1,266.0 761.6,266.0 763.0,266.0 764.5,266.0 766.0,266.0"/>
<line x1="606" y1="42" x2="628" y2="42" stroke="#0f62fe" stroke-width="2.2"/>
<text x="634" y="46" font-family="Arial" font-size="12">roll_deg</text>
<polyline fill="none" stroke="#24a148" stroke-width="2.2" points="54.0,114.7 55.5,118.1 57.0,123.8 58.5,130.8 59.9,137.9 61.4,144.3 62.9,149.0 64.4,151.1 65.9,151.4 67.3,150.8 68.8,150.2 70.3,150.1 71.8,150.7 73.3,151.5 74.8,152.3 76.2,153.0 77.7,153.5 79.2,153.9 80.7,154.2 82.2,154.6 83.7,154.9 85.2,155.3 86.6,155.6 88.1,155.9 89.6,156.2 91.1,156.5 92.6,156.7 94.1,156.9 95.5,157.2 97.0,157.4 98.5,157.6 100.0,157.8 101.5,157.9 103.0,158.1 104.4,158.2 105.9,158.4 107.4,158.5 108.9,158.6 110.4,158.7 111.8,158.8 113.3,158.9 114.8,159.0 116.3,159.1 117.8,159.1 119.3,159.2 120.8,159.3 122.2,159.3 123.7,159.4 125.2,159.4 126.7,159.5 128.2,159.5 129.7,159.5 131.1,159.5 132.6,159.6 134.1,159.6 135.6,159.6 137.1,159.6 138.6,159.6 140.0,159.6 141.5,159.6 143.0,159.6 144.5,159.6 146.0,159.5 147.4,159.5 148.9,159.5 150.4,159.5 151.9,159.4 153.4,159.4 154.9,159.3 156.4,159.3 157.8,159.2 159.3,159.2 160.8,159.1 162.3,159.1 163.8,159.0 165.2,158.9 166.7,158.9 168.2,158.8 169.7,158.7 171.2,158.6 172.7,158.6 174.1,158.5 175.6,158.4 177.1,158.3 178.6,158.2 180.1,158.0 181.6,157.9 183.1,157.8 184.5,157.7 186.0,157.5 187.5,157.4 189.0,157.3 190.5,157.1 192.0,157.0 193.4,156.8 194.9,156.7 196.4,156.5 197.9,156.4 199.4,156.2 200.9,156.0 202.3,155.8 203.8,155.7 205.3,155.5 206.8,155.3 208.3,155.1 209.8,154.9 211.2,154.8 212.7,154.6 214.2,154.4 215.7,154.2 217.2,154.0 218.7,153.8 220.1,153.6 221.6,153.4 223.1,153.2 224.6,152.9 226.1,152.7 227.6,152.5 229.0,152.3 230.5,152.1 232.0,151.8 233.5,151.6 235.0,151.4 236.5,151.2 237.9,150.9 239.4,150.7 240.9,150.5 242.4,150.2 243.9,150.0 245.3,149.7 246.8,149.5 248.3,149.2 249.8,149.0 251.3,148.7 252.8,148.5 254.2,148.2 255.7,148.0 257.2,147.7 258.7,147.5 260.2,147.2 261.7,146.9 263.1,146.7 264.6,146.4 266.1,146.2 267.6,145.9 269.1,145.6 270.6,145.3 272.1,145.1 273.5,144.8 275.0,144.5 276.5,144.2 278.0,144.0 279.5,143.7 281.0,143.4 282.4,143.1 283.9,142.8 285.4,142.6 286.9,142.3 288.4,142.0 289.9,141.7 291.3,141.4 292.8,141.1 294.3,140.8 295.8,140.5 297.3,140.3 298.8,140.0 300.2,139.7 301.7,139.4 303.2,139.1 304.7,138.8 306.2,138.5 307.6,138.2 309.1,137.9 310.6,137.6 312.1,137.3 313.6,137.0 315.1,136.7 316.5,136.4 318.0,136.1 319.5,135.8 321.0,135.5 322.5,135.1 324.0,134.8 325.5,134.5 326.9,134.2 328.4,133.9 329.9,133.6 331.4,133.3 332.9,133.0 334.4,132.7 335.8,132.4 337.3,132.1 338.8,131.8 340.3,131.5 341.8,131.2 343.2,130.9 344.7,130.6 346.2,130.3 347.7,130.0 349.2,129.7 350.7,129.4 352.2,129.1 353.6,128.7 355.1,128.4 356.6,128.1 358.1,127.7 359.6,127.4 361.1,127.0 362.5,126.6 364.0,126.3 365.5,125.9 367.0,125.5 368.5,125.1 370.0,124.7 371.4,124.3 372.9,124.0 374.4,123.6 375.9,123.2 377.4,122.8 378.9,122.4 380.3,122.0 381.8,121.6 383.3,121.2 384.8,120.8 386.3,120.4 387.8,120.0 389.2,119.6 390.7,119.2 392.2,118.7 393.7,118.3 395.2,117.9 396.7,117.5 398.1,117.1 399.6,116.7 401.1,116.3 402.6,115.9 404.1,115.5 405.6,115.1 407.0,114.7 408.5,114.3 410.0,113.9 411.5,113.5 413.0,113.1 414.4,112.7 415.9,112.3 417.4,111.9 418.9,111.5 420.4,111.1 421.9,110.7 423.4,110.3 424.8,109.9 426.3,109.5 427.8,109.1 429.3,108.7 430.8,108.3 432.2,107.9 433.7,107.6 435.2,107.2 436.7,106.8 438.2,106.4 439.7,106.0 441.2,105.6 442.6,105.2 444.1,104.9 445.6,104.5 447.1,104.1 448.6,103.7 450.1,103.3 451.5,103.0 453.0,102.6 454.5,102.2 456.0,101.8 457.5,101.5 458.9,101.1 460.4,100.7 461.9,100.4 463.4,100.0 464.9,99.6 466.4,99.3 467.9,98.9 469.3,98.5 470.8,98.2 472.3,97.8 473.8,97.5 475.3,97.1 476.8,96.8 478.2,96.4 479.7,96.1 481.2,95.7 482.7,95.4 484.2,95.0 485.7,94.7 487.1,94.3 488.6,94.0 490.1,93.6 491.6,93.3 493.1,93.0 494.6,92.6 496.0,92.3 497.5,92.0 499.0,91.6 500.5,91.3 502.0,91.0 503.4,90.6 504.9,90.3 506.4,90.0 507.9,89.7 509.4,89.4 510.9,89.0 512.4,88.7 513.8,88.4 515.3,88.1 516.8,87.8 518.3,87.5 519.8,87.2 521.2,86.9 522.7,86.6 524.2,86.3 525.7,86.0 527.2,85.7 528.7,85.4 530.2,85.1 531.6,84.8 533.1,84.5 534.6,84.2 536.1,83.9 537.6,83.6 539.0,83.3 540.5,83.0 542.0,82.7 543.5,82.5 545.0,82.2 546.5,81.9 548.0,81.6 549.4,81.4 550.9,81.1 552.4,80.8 553.9,80.5 555.4,80.3 556.8,80.0 558.3,79.7 559.8,79.5 561.3,79.2 562.8,79.0 564.3,78.7 565.8,78.4 567.2,78.2 568.7,77.9 570.2,77.7 571.7,77.4 573.2,77.2 574.7,76.9 576.1,76.7 577.6,76.5 579.1,76.2 580.6,76.0 582.1,75.7 583.6,75.5 585.0,75.3 586.5,75.0 588.0,74.8 589.5,74.6 591.0,74.3 592.5,74.1 593.9,73.9 595.4,73.7 596.9,73.5 598.4,73.2 599.9,73.0 601.3,72.8 602.8,72.6 604.3,72.4 605.8,72.2 607.3,72.0 608.8,71.7 610.2,71.5 611.7,71.3 613.2,71.1 614.7,70.9 616.2,70.7 617.7,70.5 619.2,70.3 620.6,70.1 622.1,69.9 623.6,69.7 625.1,69.5 626.6,69.4 628.1,69.2 629.5,69.0 631.0,68.8 632.5,68.6 634.0,68.4 635.5,68.2 637.0,68.1 638.4,67.9 639.9,67.7 641.4,67.5 642.9,67.4 644.4,67.2 645.9,67.0 647.3,66.9 648.8,66.7 650.3,66.5 651.8,66.3 653.3,66.2 654.8,66.0 656.2,65.9 657.7,65.7 659.2,65.5 660.7,65.4 662.2,65.2 663.7,65.1 665.1,64.9 666.6,64.8 668.1,64.6 669.6,64.5 671.1,64.3 672.6,64.2 674.0,64.0 675.5,63.9 677.0,63.7 678.5,63.6 680.0,63.4 681.5,63.3 682.9,63.2 684.4,63.0 685.9,62.9 687.4,62.8 688.9,62.6 690.4,62.5 691.8,62.4 693.3,62.2 694.8,62.1 696.3,62.0 697.8,61.9 699.2,61.7 700.7,61.6 702.2,61.4 703.7,61.4 705.2,61.1 706.7,61.4 708.2,60.5 709.6,61.8 711.1,59.1 712.6,60.5 714.1,58.6 715.6,61.2 717.1,59.8 718.5,61.2 720.0,58.3 721.5,59.6 723.0,58.2 724.5,60.7 726.0,58.6 727.4,60.3 728.9,57.6 730.4,59.0 731.9,57.2 733.4,60.2 734.9,59.1 736.3,59.6 737.8,58.5 739.3,60.2 740.8,56.5 742.3,56.8 743.8,58.2 745.2,55.1 746.7,56.3 748.2,55.7 749.7,57.1 751.2,54.6 752.7,56.9 754.1,55.0 755.6,57.4 757.1,55.3 758.6,57.2 760.1,54.6 761.6,56.3 763.0,54.0 764.5,56.3 766.0,54.3"/>
<line x1="606" y1="60" x2="628" y2="60" stroke="#24a148" stroke-width="2.2"/>
<text x="634" y="64" font-family="Arial" font-size="12">pitch_deg</text>
<polyline fill="none" stroke="#da1e28" stroke-width="2.2" points="54.0,266.0 55.5,266.0 57.0,266.0 58.5,266.0 59.9,266.0 61.4,266.0 62.9,266.0 64.4,266.0 65.9,266.0 67.3,266.0 68.8,266.0 70.3,266.0 71.8,266.0 73.3,266.0 74.8,266.0 76.2,266.0 77.7,266.0 79.2,266.0 80.7,266.0 82.2,266.0 83.7,266.0 85.2,266.0 86.6,266.0 88.1,266.0 89.6,266.0 91.1,266.0 92.6,266.0 94.1,266.0 95.5,266.0 97.0,266.0 98.5,266.0 100.0,266.0 101.5,266.0 103.0,266.0 104.4,266.0 105.9,266.0 107.4,266.0 108.9,266.0 110.4,266.0 111.8,266.0 113.3,266.0 114.8,266.0 116.3,266.0 117.8,266.0 119.3,266.0 120.8,266.0 122.2,266.0 123.7,266.0 125.2,266.0 126.7,266.0 128.2,266.0 129.7,266.0 131.1,266.0 132.6,266.0 134.1,266.0 135.6,266.0 137.1,266.0 138.6,266.0 140.0,266.0 141.5,266.0 143.0,266.0 144.5,266.0 146.0,266.0 147.4,266.0 148.9,266.0 150.4,266.0 151.9,266.0 153.4,266.0 154.9,266.0 156.4,266.0 157.8,266.0 159.3,266.0 160.8,266.0 162.3,266.0 163.8,266.0 165.2,266.0 166.7,266.0 168.2,266.0 169.7,266.0 171.2,266.0 172.7,266.0 174.1,266.0 175.6,266.0 177.1,266.0 178.6,266.0 180.1,266.0 181.6,266.0 183.1,266.0 184.5,266.0 186.0,266.0 187.5,266.0 189.0,266.0 190.5,266.0 192.0,266.0 193.4,266.0 194.9,266.0 196.4,266.0 197.9,266.0 199.4,266.0 200.9,266.0 202.3,266.0 203.8,266.0 205.3,266.0 206.8,266.0 208.3,266.0 209.8,266.0 211.2,266.0 212.7,266.0 214.2,266.0 215.7,266.0 217.2,266.0 218.7,266.0 220.1,266.0 221.6,266.0 223.1,266.0 224.6,266.0 226.1,266.0 227.6,266.0 229.0,266.0 230.5,266.0 232.0,266.0 233.5,266.0 235.0,266.0 236.5,266.0 237.9,266.0 239.4,266.0 240.9,266.0 242.4,266.0 243.9,266.0 245.3,266.0 246.8,266.0 248.3,266.0 249.8,266.0 251.3,266.0 252.8,266.0 254.2,266.0 255.7,266.0 257.2,266.0 258.7,266.0 260.2,266.0 261.7,266.0 263.1,266.0 264.6,266.0 266.1,266.0 267.6,266.0 269.1,266.0 270.6,266.0 272.1,266.0 273.5,266.0 275.0,266.0 276.5,266.0 278.0,266.0 279.5,266.0 281.0,266.0 282.4,266.0 283.9,266.0 285.4,266.0 286.9,266.0 288.4,266.0 289.9,266.0 291.3,266.0 292.8,266.0 294.3,266.0 295.8,266.0 297.3,266.0 298.8,266.0 300.2,266.0 301.7,266.0 303.2,266.0 304.7,266.0 306.2,266.0 307.6,266.0 309.1,266.0 310.6,266.0 312.1,266.0 313.6,266.0 315.1,266.0 316.5,266.0 318.0,266.0 319.5,266.0 321.0,266.0 322.5,266.0 324.0,266.0 325.5,266.0 326.9,266.0 328.4,266.0 329.9,266.0 331.4,266.0 332.9,266.0 334.4,266.0 335.8,266.0 337.3,266.0 338.8,266.0 340.3,266.0 341.8,266.0 343.2,266.0 344.7,266.0 346.2,266.0 347.7,266.0 349.2,266.0 350.7,266.0 352.2,266.0 353.6,266.0 355.1,266.0 356.6,266.0 358.1,266.0 359.6,266.0 361.1,266.0 362.5,266.0 364.0,266.0 365.5,266.0 367.0,266.0 368.5,266.0 370.0,266.0 371.4,266.0 372.9,266.0 374.4,266.0 375.9,266.0 377.4,266.0 378.9,266.0 380.3,266.0 381.8,266.0 383.3,266.0 384.8,266.0 386.3,266.0 387.8,266.0 389.2,266.0 390.7,266.0 392.2,266.0 393.7,266.0 395.2,266.0 396.7,266.0 398.1,266.0 399.6,266.0 401.1,266.0 402.6,266.0 404.1,266.0 405.6,266.0 407.0,266.0 408.5,266.0 410.0,266.0 411.5,266.0 413.0,266.0 414.4,266.0 415.9,266.0 417.4,266.0 418.9,266.0 420.4,266.0 421.9,266.0 423.4,266.0 424.8,266.0 426.3,266.0 427.8,266.0 429.3,266.0 430.8,266.0 432.2,266.0 433.7,266.0 435.2,266.0 436.7,266.0 438.2,266.0 439.7,266.0 441.2,266.0 442.6,266.0 444.1,266.0 445.6,266.0 447.1,266.0 448.6,266.0 450.1,266.0 451.5,266.0 453.0,266.0 454.5,266.0 456.0,266.0 457.5,266.0 458.9,266.0 460.4,266.0 461.9,266.0 463.4,266.0 464.9,266.0 466.4,266.0 467.9,266.0 469.3,266.0 470.8,266.0 472.3,266.0 473.8,266.0 475.3,266.0 476.8,266.0 478.2,266.0 479.7,266.0 481.2,266.0 482.7,266.0 484.2,266.0 485.7,266.0 487.1,266.0 488.6,266.0 490.1,266.0 491.6,266.0 493.1,266.0 494.6,266.0 496.0,266.0 497.5,266.0 499.0,266.0 500.5,266.0 502.0,266.0 503.4,266.0 504.9,266.0 506.4,266.0 507.9,266.0 509.4,266.0 510.9,266.0 512.4,266.0 513.8,266.0 515.3,266.0 516.8,266.0 518.3,266.0 519.8,266.0 521.2,266.0 522.7,266.0 524.2,266.0 525.7,266.0 527.2,266.0 528.7,266.0 530.2,266.0 531.6,266.0 533.1,266.0 534.6,266.0 536.1,266.0 537.6,266.0 539.0,266.0 540.5,266.0 542.0,266.0 543.5,266.0 545.0,266.0 546.5,266.0 548.0,266.0 549.4,266.0 550.9,266.0 552.4,266.0 553.9,266.0 555.4,266.0 556.8,266.0 558.3,266.0 559.8,266.0 561.3,266.0 562.8,266.0 564.3,266.0 565.8,266.0 567.2,266.0 568.7,266.0 570.2,266.0 571.7,266.0 573.2,266.0 574.7,266.0 576.1,266.0 577.6,266.0 579.1,266.0 580.6,266.0 582.1,266.0 583.6,266.0 585.0,266.0 586.5,266.0 588.0,266.0 589.5,266.0 591.0,266.0 592.5,266.0 593.9,266.0 595.4,266.0 596.9,266.0 598.4,266.0 599.9,266.0 601.3,266.0 602.8,266.0 604.3,266.0 605.8,266.0 607.3,266.0 608.8,266.0 610.2,266.0 611.7,266.0 613.2,266.0 614.7,266.0 616.2,266.0 617.7,266.0 619.2,266.0 620.6,266.0 622.1,266.0 623.6,266.0 625.1,266.0 626.6,266.0 628.1,266.0 629.5,266.0 631.0,266.0 632.5,266.0 634.0,266.0 635.5,266.0 637.0,266.0 638.4,266.0 639.9,266.0 641.4,266.0 642.9,266.0 644.4,266.0 645.9,266.0 647.3,266.0 648.8,266.0 650.3,266.0 651.8,266.0 653.3,266.0 654.8,266.0 656.2,266.0 657.7,266.0 659.2,266.0 660.7,266.0 662.2,266.0 663.7,266.0 665.1,266.0 666.6,266.0 668.1,266.0 669.6,266.0 671.1,266.0 672.6,266.0 674.0,266.0 675.5,266.0 677.0,266.0 678.5,266.0 680.0,266.0 681.5,266.0 682.9,266.0 684.4,266.0 685.9,266.0 687.4,266.0 688.9,266.0 690.4,266.0 691.8,266.0 693.3,266.0 694.8,266.0 696.3,266.0 697.8,266.0 699.2,266.0 700.7,266.0 702.2,266.0 703.7,266.0 705.2,266.0 706.7,266.0 708.2,266.0 709.6,266.0 711.1,266.0 712.6,266.0 714.1,266.0 715.6,266.0 717.1,266.0 718.5,266.0 720.0,266.0 721.5,266.0 723.0,266.0 724.5,266.0 726.0,266.0 727.4,266.0 728.9,266.0 730.4,266.0 731.9,266.0 733.4,266.0 734.9,266.0 736.3,266.0 737.8,266.0 739.3,266.0 740.8,266.0 742.3,266.0 743.8,266.0 745.2,266.0 746.7,266.0 748.2,266.0 749.7,266.0 751.2,266.0 752.7,266.0 754.1,266.0 755.6,266.0 757.1,266.0 758.6,266.0 760.1,266.0 761.6,266.0 763.0,266.0 764.5,266.0 766.0,266.0"/>
<line x1="606" y1="78" x2="628" y2="78" stroke="#da1e28" stroke-width="2.2"/>
<text x="634" y="82" font-family="Arial" font-size="12">yaw_deg</text>
</svg>