<svg xmlns="http://www.w3.org/2000/svg" width="820" height="320" viewBox="0 0 820 320">
<rect width="100%" height="100%" fill="#ffffff"/>
<text x="54" y="28" font-family="Arial" font-size="18" font-weight="700">Control Surfaces</text>
<line x1="54" y1="266" x2="766" y2="266" stroke="#1f2933"/>
<line x1="54" y1="54" x2="54" y2="266" stroke="#1f2933"/>
<text x="54" y="306" font-family="Arial" font-size="12">time (s)</text>
<text x="596" y="306" font-family="Arial" font-size="12">deflection (deg)</text>
<text x="58" y="68" font-family="Arial" font-size="11">0</text>
<text x="58" y="260" font-family="Arial" font-size="11">-12.9</text>
<polyline fill="none" stroke="#0f62fe" stroke-width="2.2" points="54.0,84.8 55.5,115.7 57.0,146.5 58.5,177.3 59.9,208.2 61.4,239.0 62.9,266.0 64.4,246.5 65.9,215.7 67.3,184.9 68.8,168.2 70.3,167.3 71.8,174.7 73.3,182.9 74.8,187.9 76.2,188.9 77.7,187.4 79.2,185.2 80.7,183.6 82.2,183.0 83.7,183.1 85.2,183.4 86.6,183.7 88.1,183.7 89.6,183.6 91.1,183.4 92.6,183.2 94.1,183.1 95.5,183.1 97.0,183.1 98.5,183.0 100.0,183.0 101.5,183.0 103.0,182.9 104.4,182.9 105.9,182.8 107.4,182.8 108.9,182.8 110.4,182.7 111.8,182.7 113.3,182.7 114.8,182.7 116.3,182.7 117.8,182.8 119.3,182.8 120.8,182.8 122.2,182.8 123.7,182.9 125.2,182.9 126.7,182.9 128.2,182.9 129.7,182.9 131.1,182.9 132.6,182.9 134.1,182.9 135.6,182.9 137.1,182.9 138.6,182.9 140.0,182.9 141.5,182.9 143.0,182.9 144.5,182.8 146.0,182.8 147.4,182.8 148.9,182.8 150.4,182.7 151.9,182.7 153.4,182.7 154.9,182.6 156.4,182.6 157.8,182.6 159.3,182.5 160.8,182.5 162.3,182.4 163.8,182.4 165.2,182.3 166.7,182.3 168.2,182.2 169.7,182.1 171.2,182.1 172.7,182.0 174.1,181.9 175.6,181.7 177.1,181.5 178.6,181.4 180.1,181.2 181.6,181.1 183.1,180.9 184.5,180.8 186.0,180.6 187.5,180.5 189.0,180.3 190.5,180.2 192.0,180.0 193.4,179.9 194.9,179.7 196.4,179.5 197.9,179.4 199.4,179.2 200.9,179.0 202.3,178.9 203.8,178.7 205.3,178.5 206.8,178.4 208.3,178.2 209.8,178.0 211.2,177.8 212.7,177.7 214.2,177.5 215.7,177.3 217.2,177.1 218.7,176.9 220.1,176.7 221.6,176.5 223.1,176.3 224.6,176.2 226.1,176.0 227.6,175.8 229.0,175.6 230.5,175.4 232.0,175.2 233.5,175.0 235.0,174.7 236.5,174.5 237.9,174.3 239.4,174.1 240.9,173.9 242.4,173.7 243.9,173.5 245.3,173.3 246.8,173.0 248.3,172.8 249.8,172.6 251.3,172.4 252.8,172.2 254.2,171.9 255.7,171.7 257.2,171.5 258.7,171.2 260.2,171.0 261.7,170.8 263.1,170.5 264.6,170.3 266.1,170.1 267.6,169.8 269.1,169.6 270.6,169.4 272.1,169.1 273.5,168.9 275.0,168.6 276.5,168.4 278.0,168.1 279.5,167.9 281.0,167.7 282.4,167.4 283.9,167.2 285.4,166.9 286.9,166.7 288.4,166.4 289.9,166.2 291.3,165.9 292.8,165.6 294.3,165.4 295.8,165.1 297.3,164.9 298.8,164.6 300.2,164.4 301.7,164.1 303.2,163.8 304.7,163.6 306.2,163.3 307.6,163.1 309.1,162.8 310.6,162.5 312.1,162.3 313.6,162.0 315.1,161.7 316.5,161.5 318.0,161.2 319.5,160.9 321.0,160.7 322.5,160.4 324.0,160.1 325.5,159.9 326.9,159.6 328.4,159.3 329.9,159.0 331.4,158.7 332.9,158.5 334.4,158.2 335.8,157.9 337.3,157.6 338.8,157.3 340.3,157.0 341.8,156.7 343.2,156.4 344.7,156.1 346.2,155.8 347.7,155.5 349.2,155.4 350.7,155.1 352.2,154.8 353.6,154.5 355.1,154.3 356.6,154.1 358.1,153.9 359.6,153.7 361.1,153.5 362.5,153.3 364.0,153.1 365.5,152.9 367.0,152.7 368.5,152.5 370.0,152.3 371.4,152.2 372.9,152.0 374.4,151.8 375.9,151.6 377.4,151.5 378.9,151.3 380.3,151.1 381.8,150.9 383.3,150.8 384.8,150.6 386.3,150.4 387.8,150.2 389.2,150.1 390.7,149.9 392.2,149.7 393.7,149.5 395.2,149.3 396.7,149.1 398.1,149.0 399.6,148.8 401.1,148.6 402.6,148.4 404.1,148.2 405.6,148.0 407.0,147.8 408.5,147.6 410.0,147.4 411.5,147.2 413.0,147.0 414.4,146.8 415.9,146.6 417.4,146.3 418.9,146.1 420.4,145.9 421.9,145.7 423.4,145.5 424.8,145.2 426.3,145.0 427.8,144.8 429.3,144.6 430.8,144.3 432.2,144.1 433.7,143.9 435.2,143.7 436.7,143.4 438.2,143.2 439.7,142.9 441.2,142.7 442.6,142.5 444.1,142.2 445.6,142.0 447.1,141.7 448.6,141.5 450.1,141.2 451.5,141.0 453.0,140.7 454.5,140.5 456.0,140.2 457.5,140.0 458.9,139.7 460.4,139.5 461.9,139.2 463.4,139.0 464.9,138.7 466.4,138.4 467.9,138.2 469.3,137.9 470.8,137.6 472.3,137.4 473.8,137.1 475.3,136.9 476.8,136.6 478.2,136.3 479.7,136.1 481.2,135.8 482.7,135.5 484.2,135.3 485.7,135.0 487.1,134.7 488.6,134.4 490.1,134.2 491.6,133.9 493.1,133.6 494.6,133.4 496.0,133.1 497.5,132.8 499.0,132.5 500.5,132.3 502.0,132.0 503.4,131.7 504.9,131.4 506.4,131.2 507.9,130.9 509.4,130.6 510.9,130.3 512.4,130.1 513.8,129.8 515.3,129.5 516.8,129.2 518.3,128.9 519.8,128.7 521.2,128.4 522.7,128.1 524.2,127.8 525.7,127.6 527.2,127.3 528.7,127.0 530.2,126.7 531.6,126.5 533.1,126.2 534.6,125.9 536.1,125.6 537.6,125.4 539.0,125.1 540.5,124.8 542.0,124.5 543.5,124.3 545.0,124.0 546.5,123.7 548.0,123.4 549.4,123.2 550.9,122.9 552.4,122.6 553.9,122.4 555.4,122.1 556.8,121.8 558.3,121.5 559.8,121.3 561.3,121.0 562.8,120.7 564.3,120.5 565.8,120.2 567.2,119.9 568.7,119.7 570.2,119.4 571.7,119.1 573.2,118.9 574.7,118.6 576.1,118.4 577.6,118.1 579.1,117.8 580.6,117.6 582.1,117.3 583.6,117.1 585.0,116.8 586.5,116.5 588.0,116.3 589.5,116.0 591.0,115.8 592.5,115.5 593.9,115.3 595.4,115.0 596.9,114.8 598.4,114.5 599.9,114.3 601.3,114.0 602.8,113.8 604.3,113.5 605.8,113.3 607.3,113.0 608.8,112.8 610.2,112.5 611.7,112.3 613.2,112.0 614.7,111.8 616.2,111.6 617.7,111.3 619.2,111.1 620.6,110.8 622.1,110.6 623.6,110.4 625.1,110.1 626.6,109.9 628.1,109.7 629.5,109.4 631.0,109.2 632.5,109.0 634.0,108.7 635.5,108.5 637.0,108.3 638.4,108.1 639.9,107.8 641.4,107.6 642.9,107.4 644.4,107.2 645.9,107.0 647.3,106.7 648.8,106.5 650.3,106.3 651.8,106.1 653.3,105.9 654.8,105.7 656.2,105.4 657.7,105.2 659.2,105.0 660.7,104.8 662.2,104.6 663.7,104.4 665.1,104.2 666.6,104.0 668.1,103.8 669.6,103.6 671.1,103.4 672.6,103.2 674.0,103.0 675.5,102.8 677.0,102.6 678.5,102.4 680.0,102.2 681.5,102.0 682.9,101.8 684.4,101.6 685.9,101.4 687.4,101.2 688.9,101.0 690.4,100.8 691.8,100.7 693.3,100.4 694.8,100.3 696.3,100.0 697.8,100.1 699.2,99.5 700.7,100.0 702.2,98.5 703.7,100.7 705.2,96.3 706.7,103.7 708.2,89.8 709.6,114.6 711.1,83.8 712.6,112.7 714.1,81.8 715.6,112.7 717.1,86.1 718.5,114.2 720.0,83.4 721.5,109.0 723.0,82.7 724.5,113.6 726.0,82.7 727.4,113.6 728.9,82.7 730.4,109.6 731.9,78.8 733.4,109.6 734.9,88.9 736.3,100.6 737.8,84.1 739.3,114.9 740.8,84.1 742.3,92.0 743.8,113.9 745.2,83.1 746.7,104.3 748.2,89.5 749.7,111.0 751.2,80.1 752.7,111.0 754.1,80.1 755.6,111.0 757.1,80.1 758.6,111.0 760.1,80.1 761.6,109.8 763.0,78.9 764.5,109.8 766.0,78.9"/>
<line x1="606" y1="42" x2="628" y2="42" stroke="#0f62fe" stroke-width="2.2"/>
<text x="634" y="46" font-family="Arial" font-size="12">elevator_deg</text>
<polyline fill="none" stroke="#24a148" stroke-width="2.2" points="54.0,54.0 55.5,54.0 57.0,54.0 58.5,54.0 59.9,54.0 61.4,54.0 62.9,54.0 64.4,54.0 65.9,54.0 67.3,54.0 68.8,54.0 70.3,54.0 71.8,54.0 73.3,54.0 74.8,54.0 76.2,54.0 77.7,54.0 79.2,54.0 80.7,54.0 82.2,54.0 83.7,54.0 85.2,54.0 86.6,54.0 88.1,54.0 89.6,54.0 91.1,54.0 92.6,54.0 94.1,54.0 95.5,54.0 97.0,54.0 98.5,54.0 100.0,54.0 101.5,54.0 103.0,54.0 104.4,54.0 105.9,54.0 107.4,54.0 108.9,54.0 110.4,54.0 111.8,54.0 113.3,54.0 114.8,54.0 116.3,54.0 117.8,54.0 119.3,54.0 120.8,54.0 122.2,54.0 123.7,54.0 125.2,54.0 126.7,54.0 128.2,54.0 129.7,54.0 131.1,54.0 132.6,54.0 134.1,54.0 135.6,54.0 137.1,54.0 138.6,54.0 140.0,54.0 141.5,54.0 143.0,54.0 144.5,54.0 146.0,54.0 147.4,54.0 148.9,54.0 150.4,54.0 151.9,54.0 153.4,54.0 154.9,54.0 156.4,54.0 157.8,54.0 159.3,54.0 160.8,54.0 162.3,54.0 163.8,54.0 165.2,54.0 166.7,54.0 168.2,54.0 169.7,54.0 171.2,54.0 172.7,54.0 174.1,54.0 175.6,54.0 177.1,54.0 178.6,54.0 180.1,54.0 181.6,54.0 183.1,54.0 184.5,54.0 186.0,54.0 187.5,54.0 189.0,54.0 190.5,54.0 192.0,54.0 193.4,54.0 194.9,54.0 196.4,54.0 197.9,54.0 199.4,54.0 200.9,54.0 202.3,54.0 203.8,54.0 205.3,54.0 206.8,54.0 208.3,54.0 209.8,54.0 211.2,54.0 212.7,54.0 214.2,54.0 215.7,54.0 217.2,54.0 218.7,54.0 220.1,54.0 221.6,54.0 223.1,54.0 224.6,54.0 226.1,54.0 227.6,54.0 229.0,54.0 230.5,54.0 232.0,54.0 233.5,54.0 235.0,54.0 236.5,54.0 237.9,54.0 239.4,54.0 240.9,54.0 242.4,54.0 243.9,54.0 245.3,54.0 246.8,54.0 248.3,54.0 249.8,54.0 251.3,54.0 252.8,54.0 254.2,54.0 255.7,54.0 257.2,54.0 258.7,54.0 260.2,54.0 261.7,54.0 263.1,54.0 264.6,54.0 266.1,54.0 267.6,54.0 269.1,54.0 270.6,54.0 272.1,54.0 273.5,54.0 275.0,54.0 276.5,54.0 278.0,54.0 279.5,54.0 281.0,54.0 282.4,54.0 283.9,54.0 285.4,54.0 286.9,54.0 288.4,54.0 289.9,54.0 291.3,54.0 292.8,54.0 294.3,54.0 295.8,54.0 297.3,54.0 298.8,54.0 300.2,54.0 301.7,54.0 303.2,54.0 304.7,54.0 306.2,54.0 307.6,54.0 309.1,54.0 310.6,54.0 312.1,54.0 313.6,54.0 315.1,54.0 316.5,54.0 318.0,54.0 319.5,54.0 321.0,54.0 322.5,54.0 324.0,54.0 325.5,54.0 326.9,54.0 328.4,54.0 329.9,54.0 331.4,54.0 332.9,54.0 334.4,54.0 335.8,54.0 337.3,54.0 338.8,54.0 340.3,54.0 341.8,54.0 343.2,54.0 344.7,54.0 346.2,54.0 347.7,54.0 349.2,54.0 350.7,54.0 352.2,54.0 353.6,54.0 355.1,54.0 356.6,54.0 358.1,54.0 359.6,54.0 361.1,54.0 362.5,54.0 364.0,54.0 365.5,54.0 367.0,54.0 368.5,54.0 370.0,54.0 371.4,54.0 372.9,54.0 374.4,54.0 375.9,54.0 377.4,54.0 378.9,54.0 380.3,54.0 381.8,54.0 383.3,54.0 384.8,54.0 386.3,54.0 387.8,54.0 389.2,54.0 390.7,54.0 392.2,54.0 393.7,54.0 395.2,54.0 396.7,54.0 398.1,54.0 399.6,54.0 401.1,54.0 402.6,54.0 404.1,54.0 405.6,54.0 407.0,54.0 408.5,54.0 410.0,54.0 411.5,54.0 413.0,54.0 414.4,54.0 415.9,54.0 417.4,54.0 418.9,54.0 420.4,54.0 421.9,54.0 423.4,54.0 424.8,54.0 426.3,54.0 427.8,54.0 429.3,54.0 430.8,54.0 432.2,54.0 433.7,54.0 435.2,54.0 436.7,54.0 438.2,54.0 439.7,54.0 441.2,54.0 442.6,54.0 444.1,54.0 445.6,54.0 447.1,54.0 448.6,54.0 450.1,54.0 451.5,54.0 453.0,54.0 454.5,54.0 456.0,54.0 457.5,54.0 458.9,54.0 460.4,54.0 461.9,54.0 463.4,54.0 464.9,54.0 466.4,54.0 467.9,54.0 469.3,54.0 470.8,54.0 472.3,54.0 473.8,54.0 475.3,54.0 476.8,54.0 478.2,54.0 479.7,54.0 481.2,54.0 482.7,54.0 484.2,54.0 485.7,54.0 487.1,54.0 488.6,54.0 490.1,54.0 491.6,54.0 493.1,54.0 494.6,54.0 496.0,54.0 497.5,54.0 499.0,54.0 500.5,54.0 502.0,54.0 503.4,54.0 504.9,54.0 506.4,54.0 507.9,54.0 509.4,54.0 510.9,54.0 512.4,54.0 513.8,54.0 515.3,54.0 516.8,54.0 518.3,54.0 519.8,54.0 521.2,54.0 522.7,54.0 524.2,54.0 525.7,54.0 527.2,54.0 528.7,54.0 530.2,54.0 531.6,54.0 533.1,54.0 534.6,54.0 536.1,54.0 537.6,54.0 539.0,54.0 540.5,54.0 542.0,54.0 543.5,54.0 545.0,54.0 546.5,54.0 548.0,54.0 549.4,54.0 550.9,54.0 552.4,54.0 553.9,54.0 555.4,54.0 556.8,54.0 558.3,54.0 559.8,54.0 561.3,54.0 562.8,54.0 564.3,54.0 565.8,54.0 567.2,54.0 568.7,54.0 570.2,54.0 571.7,54.0 573.2,54.0 574.7,54.0 576.1,54.0 577.6,54.0 579.1,54.0 580.6,54.0 582.1,54.0 583.6,54.0 585.0,54.0 586.5,54.0 588.0,54.0 589.5,54.0 591.0,54.0 592.5,54.0 593.9,54.0 595.4,54.0 596.9,54.0 598.4,54.0 599.9,54.0 601.3,54.0 602.8,54.0 604.3,54.0 605.8,54.0 607.3,54.0 608.8,54.0 610.2,54.0 611.7,54.0 613.2,54.0 614.7,54.0 616.2,54.0 617.7,54.0 619.2,54.0 620.6,54.0 622.1,54.0 623.6,54.0 625.1,54.0 626.6,54.0 628.1,54.0 629.5,54.0 631.0,54.0 632.5,54.0 634.0,54.0 635.5,54.0 637.0,54.0 638.4,54.0 639.9,54.0 641.4,54.0 642.9,54.0 644.4,54.0 645.9,54.0 647.3,54.0 648.8,54.0 650.3,54.0 651.8,54.0 653.3,54.0 654.8,54.0 656.2,54.0 657.7,54.0 659.2,54.0 660.7,54.0 662.2,54.0 663.7,54.0 665.1,54.0 666.6,54.0 668.1,54.0 669.6,54.0 671.1,54.0 672.6,54.0 674.0,54.0 675.5,54.0 677.0,54.0 678.5,54.0 680.0,54.0 681.5,54.0 682.9,54.0 684.4,54.0 685.9,54.0 687.4,54.0 688.9,54.0 690.4,54.0 691.8,54.0 693.3,54.0 694.8,54.0 696.3,54.0 697.8,54.0 699.2,54.0 700.7,54.0 702.2,54.0 703.7,54.0 705.2,54.0 706.7,54.0 708.2,54.0 709.6,54.0 711.1,54.0 712.6,54.0 714.1,54.0 715.6,54.0 717.1,54.0 718.5,54.0 720.0,54.0 721.5,54.0 723.0,54.0 724.5,54.0 726.0,54.0 727.4,54.0 728.9,54.0 730.4,54.0 731.9,54.0 733.4,54.0 734.9,54.0 736.3,54.0 737.8,54.0 739.3,54.0 740.8,54.0 742.3,54.0 743.8,54.0 745.2,54.0 746.7,54.0 748.2,54.0 749.7,54.0 751.2,54.0 752.7,54.0 754.1,54.0 755.6,54.0 757.1,54.0 758.6,54.0 760.1,54.0 761.6,54.0 763.0,54.0 764.5,54.0 766.0,54.0"/>
<line x1="606" y1="60" x2="628" y2="60" stroke="#24a148" stroke-width="2.2"/>
<text x="634" y="64" font-family="Arial" font-size="12">aileron_deg</text>
<polyline fill="none" stroke="#da1e28" stroke-width="2.2" points="54.0,54.0 55.5,54.0 57.0,54.0 58.5,54.0 59.9,54.0 61.4,54.0 62.9,54.0 64.4,54.0 65.9,54.0 67.3,54.0 68.8,54.0 70.3,54.0 71.8,54.0 73.3,54.0 74.8,54.0 76.2,54.0 77.7,54.0 79.2,54.0 80.7,54.0 82.2,54.0 83.7,54.0 85.2,54.0 86.6,54.0 88.1,54.0 89.6,54.0 91.1,54.0 92.6,54.0 94.1,54.0 95.5,54.0 97.0,54.0 98.5,54.0 100.0,54.0 101.5,54.0 103.0,54.0 104.4,54.0 105.9,54.0 107.4,54.0 108.9,54.0 110.4,54.0 111.8,54.0 113.3,54.0 114.8,54.0 116.3,54.0 117.8,54.0 119.3,54.0 120.8,54.0 122.2,54.0 123.7,54.0 125.2,54.0 126.7,54.0 128.2,54.0 129.7,54.0 131.1,54.0 132.6,54.0 134.1,54.0 135.6,54.0 137.1,54.0 138.6,54.0 140.0,54.0 141.5,54.0 143.0,54.0 144.5,54.0 146.0,54.0 147.4,54.0 148.9,54.0 150.4,54.0 151.9,54.0 153.4,54.0 154.9,54.0 156.4,54.0 157.8,54.0 159.3,54.0 160.8,54.0 162.3,54.0 163.8,54.0 165.2,54.0 166.7,54.0 168.2,54.0 169.7,54.0 171.2,54.0 172.7,54.0 174.1,54.0 175.6,54.0 177.1,54.0 178.6,54.0 180.1,54.0 181.6,54.0 183.1,54.0 184.5,54.0 186.0,54.0 187.5,54.0 189.0,54.0 190.5,54.0 192.0,54.0 193.4,54.0 194.9,54.0 196.4,54.0 197.9,54.0 199.4,54.0 200.9,54.0 202.3,54.0 203.8,54.0 205.3,54.0 206.8,54.0 208.3,54.0 209.8,54.0 211.2,54.0 212.7,54.0 214.2,54.0 215.7,54.0 217.2,54.0 218.7,54.0 220.1,54.0 221.6,54.0 223.1,54.0 224.6,54.0 226.1,54.0 227.6,54.0 229.0,54.0 230.5,54.0 232.0,54.0 233.5,54.0 235.0,54.0 236.5,54.0 237.9,54.0 239.4,54.0 240.9,54.0 242.4,54.0 243.9,54.0 245.3,54.0 246.8,54.0 248.3,54.0 249.8,54.0 251.3,54.0 252.8,54.0 254.2,54.0 255.7,54.0 257.2,54.0 258.7,54.0 260.2,54.0 261.7,54.0 263.1,54.0 264.6,54.0 266.1,54.0 267.6,54.0 269.1,54.0 270.6,54.0 272.1,54.0 273.5,54.0 275.0,54.0 276.5,54.0 278.0,54.0 279.5,54.0 281.0,54.0 282.4,54.0 283.9,54.0 285.4,54.0 286.9,54.0 288.4,54.0 289.9,54.0 291.3,54.0 292.8,54.0 294.3,54.0 295.8,54.0 297.3,54.0 298.8,54.0 300.2,54.0 301.7,54.0 303.2,54.0 304.7,54.0 306.2,54.0 307.6,54.0 309.1,54.0 310.6,54.0 312.1,54.0 313.6,54.0 315.1,54.0 316.5,54.0 318.0,54.0 319.5,54.0 321.0,54.0 322.5,54.0 324.0,54.0 325.5,54.0 326.9,54.0 328.4,54.0 329.9,54.0 331.4,54.0 332.9,54.0 334.4,54.0 335.8,54.0 337.3,54.0 338.8,54.0 340.3,54.0 341.8,54.0 343.2,54.0 344.7,54.0 346.2,54.0 347.7,54.0 349.2,54.0 350.7,54.0 352.2,54.0 353.6,54.0 355.1,54.0 356.6,54.0 358.1,54.0 359.6,54.0 361.1,54.0 362.5,54.0 364.0,54.0 365.5,54.0 367.0,54.0 368.5,54.0 370.0,54.0 371.4,54.0 372.9,54.0 374.4,54.0 375.9,54.0 377.4,54.0 378.9,54.0 380.3,54.0 381.8,54.0 383.3,54.0 384.8,54.0 386.3,54.0 387.8,54.0 389.2,54.0 390.7,54.0 392.2,54.0 393.7,54.0 395.2,54.0 396.7,54.0 398.1,54.0 399.6,54.0 401.1,54.0 402.6,54.0 404.1,54.0 405.6,54.0 407.0,54.0 408.5,54.0 410.0,54.0 411.5,54.0 413.0,54.0 414.4,54.0 415.9,54.0 417.4,54.0 418.9,54.0 420.4,54.0 421.9,54.0 423.4,54.0 424.8,54.0 426.3,54.0 427.8,54.0 429.3,54.0 430.8,54.0 432.2,54.0 433.7,54.0 435.2,54.0 436.7,54.0 438.2,54.0 439.7,54.0 441.2,54.0 442.6,54.0 444.1,54.0 445.6,54.0 447.1,54.0 448.6,54.0 450.1,54.0 451.5,54.0 453.0,54.0 454.5,54.0 456.0,54.0 457.5,54.0 458.9,54.0 460.4,54.0 461.9,54.0 463.4,54.0 464.9,54.0 466.4,54.0 467.9,54.0 469.3,54.0 470.8,54.0 472.3,54.0 473.8,54.0 475.3,54.0 476.8,54.0 478.2,54.0 479.7,54.0 481.2,54.0 482.7,54.0 484.2,54.0 485.7,54.0 487.1,54.0 488.6,54.0 490.1,54.0 491.6,54.0 493.1,54.0 494.6,54.0 496.0,54.0 497.5,54.0 499.0,54.0 500.5,54.0 502.0,54.0 503.4,54.0 504.9,54.0 506.4,54.0 507.9,54.0 509.4,54.0 510.9,54.0 512.4,54.0 513.8,54.0 515.3,54.0 516.8,54.0 518.3,54.0 519.8,54.0 521.2,54.0 522.7,54.0 524.2,54.0 525.7,54.0 527.2,54.0 528.7,54.0 530.2,54.0 531.6,54.0 533.1,54.0 534.6,54.0 536.1,54.0 537.6,54.0 539.0,54.0 540.5,54.0 542.0,54.0 543.5,54.0 545.0,54.0 546.5,54.0 548.0,54.0 549.4,54.0 550.9,54.0 552.4,54.0 553.9,54.0 555.4,54.0 556.8,54.0 558.3,54.0 559.8,54.0 561.3,54.0 562.8,54.0 564.3,54.0 565.8,54.0 567.2,54.0 568.7,54.0 570.2,54.0 571.7,54.0 573.2,54.0 574.7,54.0 576.1,54.0 577.6,54.0 579.1,54.0 580.6,54.0 582.1,54.0 583.6,54.0 585.0,54.0 586.5,54.0 588.0,54.0 589.5,54.0 591.0,54.0 592.5,54.0 593.9,54.0 595.4,54.0 596.9,54.0 598.4,54.0 599.9,54.0 601.3,54.0 602.8,54.0 604.3,54.0 605.8,54.0 607.3,54.0 608.8,54.0 610.2,54.0 611.7,54.0 613.2,54.0 614.7,54.0 616.2,54.0 617.7,54.0 619.2,54.0 620.6,54.0 622.1,54.0 623.6,54.0 625.1,54.0 626.6,54.0 628.1,54.0 629.5,54.0 631.0,54.0 632.5,54.0 634.0,54.0 635.5,54.0 637.0,54.0 638.4,54.0 639.9,54.0 641.4,54.0 642.9,54.0 644.4,54.0 645.9,54.0 647.3,54.0 648.8,54.0 650.3,54.0 651.8,54.0 653.3,54.0 654.8,54.0 656.2,54.0 657.7,54.0 659.2,54.0 660.7,54.0 662.2,54.0 663.7,54.0 665.1,54.0 666.6,54.0 668.1,54.0 669.6,54.0 671.1,54.0 672.6,54.0 674.0,54.0 675.5,54.0 677.0,54.0 678.5,54.0 680.0,54.0 681.5,54.0 682.9,54.0 684.4,54.0 685.9,54.0 687.4,54.0 688.9,54.0 690.4,54.0 691.8,54.0 693.3,54.0 694.8,54.0 696.3,54.0 697.8,54.0 699.2,54.0 700.7,54.0 702.2,54.0 703.7,54.0 705.2,54.0 706.7,54.0 708.2,54.0 709.6,54.0 711.1,54.0 712.6,54.0 714.1,54.0 715.6,54.0 717.1,54.0 718.5,54.0 720.0,54.0 721.5,54.0 723.0,54.0 724.5,54.0 726.0,54.0 727.4,54.0 728.9,54.0 730.4,54.0 731.9,54.0 733.4,54.0 734.9,54.0 736.3,54.0 737.8,54.0 739.3,54.0 740.8,54.0 742.3,54.0 743.8,54.0 745.2,54.0 746.7,54.0 748.2,54.0 749.7,54.0 751.2,54.0 752.7,54.0 754.1,54.0 755.6,54.0 757.1,54.0 758.6,54.0 760.1,54.0 761.6,54.0 763.0,54.0 764.5,54.0 766.0,54.0"/>
<line x1="606" y1="78" x2="628" y2="78" stroke="#da1e28" stroke-width="2.2"/>
<text x="634" y="82" font-family="Arial" font-size="12">rudder_deg</text>
</svg>