<svg xmlns="http://www.w3.org/2000/svg" width="820" height="320" viewBox="0 0 820 320">
<rect width="100%" height="100%" fill="#ffffff"/>
<text x="54" y="28" font-family="Arial" font-size="18" font-weight="700">Pitch Command Tracking</text>
<line x1="54" y1="266" x2="766" y2="266" stroke="#1f2933"/>
<line x1="54" y1="54" x2="54" y2="266" stroke="#1f2933"/>
<text x="54" y="306" font-family="Arial" font-size="12">time (s)</text>
<text x="596" y="306" font-family="Arial" font-size="12">pitch (deg)</text>
<text x="58" y="68" font-family="Arial" font-size="11">26</text>
<text x="58" y="260" font-family="Arial" font-size="11">12.7</text>
<polyline fill="none" stroke="#0f62fe" stroke-width="2.2" points="54.0,54.0 55.5,54.0 57.0,54.0 58.5,54.0 59.9,54.0 61.4,54.0 62.9,54.0 64.4,54.0 65.9,54.0 67.3,54.0 68.8,54.0 70.3,54.0 71.8,54.0 73.3,54.0 74.8,54.0 76.2,54.0 77.7,54.0 79.2,54.0 80.7,54.0 82.2,54.0 83.7,54.0 85.2,54.0 86.6,54.0 88.1,54.0 89.6,54.0 91.1,54.0 92.6,54.0 94.1,54.0 95.5,54.0 97.0,54.0 98.5,54.0 100.0,54.0 101.5,54.0 103.0,54.0 104.4,54.0 105.9,54.0 107.4,54.0 108.9,54.0 110.4,54.0 111.8,54.0 113.3,54.0 114.8,54.0 116.3,54.0 117.8,54.0 119.3,54.0 120.8,54.0 122.2,54.0 123.7,54.0 125.2,54.0 126.7,54.0 128.2,54.0 129.7,54.0 131.1,54.0 132.6,54.0 134.1,54.0 135.6,54.0 137.1,54.0 138.6,54.0 140.0,54.0 141.5,54.0 143.0,54.0 144.5,54.0 146.0,54.0 147.4,54.0 148.9,54.0 150.4,54.0 151.9,54.0 153.4,54.0 154.9,54.0 156.4,54.0 157.8,54.0 159.3,54.0 160.8,54.0 162.3,54.0 163.8,54.0 165.2,54.0 166.7,54.0 168.2,54.0 169.7,54.0 171.2,54.0 172.7,54.0 174.1,54.0 175.6,54.0 177.1,54.0 178.6,54.0 180.1,54.0 181.6,54.0 183.1,54.0 184.5,54.0 186.0,54.0 187.5,54.0 189.0,54.0 190.5,54.0 192.0,54.0 193.4,54.0 194.9,54.0 196.4,54.0 197.9,54.0 199.4,54.0 200.9,54.0 202.3,54.0 203.8,54.0 205.3,54.0 206.8,54.0 208.3,54.0 209.8,54.0 211.2,54.0 212.7,54.0 214.2,54.0 215.7,54.0 217.2,54.0 218.7,54.0 220.1,54.0 221.6,54.0 223.1,54.0 224.6,54.0 226.1,54.0 227.6,54.0 229.0,54.0 230.5,54.0 232.0,54.0 233.5,54.0 235.0,54.0 236.5,54.0 237.9,54.0 239.4,54.0 240.9,54.0 242.4,54.0 243.9,54.0 245.3,54.0 246.8,54.0 248.3,54.0 249.8,54.0 251.3,54.0 252.8,54.0 254.2,54.0 255.7,54.0 257.2,54.0 258.7,54.0 260.2,54.0 261.7,54.0 263.1,54.0 264.6,54.0 266.1,54.0 267.6,54.0 269.1,54.0 270.6,54.0 272.1,54.0 273.5,54.0 275.0,54.0 276.5,54.0 278.0,54.0 279.5,54.0 281.0,54.0 282.4,54.0 283.9,54.0 285.4,54.0 286.9,54.0 288.4,54.0 289.9,54.0 291.3,54.0 292.8,54.0 294.3,54.0 295.8,54.0 297.3,54.0 298.8,54.0 300.2,54.0 301.7,54.0 303.2,54.0 304.7,54.0 306.2,54.0 307.6,54.0 309.1,54.0 310.6,54.0 312.1,54.0 313.6,54.0 315.1,54.0 316.5,54.0 318.0,54.0 319.5,54.0 321.0,54.0 322.5,54.0 324.0,54.0 325.5,54.0 326.9,54.0 328.4,54.0 329.9,54.0 331.4,54.0 332.9,54.0 334.4,54.0 335.8,54.0 337.3,54.0 338.8,54.0 340.3,54.0 341.8,54.0 343.2,54.0 344.7,54.0 346.2,54.0 347.7,54.0 349.2,54.0 350.7,54.0 352.2,54.0 353.6,54.0 355.1,54.0 356.6,54.0 358.1,54.0 359.6,54.0 361.1,54.0 362.5,54.0 364.0,54.0 365.5,54.0 367.0,54.0 368.5,54.0 370.0,54.0 371.4,54.0 372.9,54.0 374.4,54.0 375.9,54.0 377.4,54.0 378.9,54.0 380.3,54.0 381.8,54.0 383.3,54.0 384.8,54.0 386.3,54.0 387.8,54.0 389.2,54.0 390.7,54.0 392.2,54.0 393.7,54.0 395.2,54.0 396.7,54.0 398.1,54.0 399.6,54.0 401.1,54.0 402.6,54.0 404.1,54.0 405.6,54.0 407.0,54.0 408.5,54.0 410.0,54.0 411.5,54.0 413.0,54.0 414.4,54.0 415.9,54.0 417.4,54.0 418.9,54.0 420.4,54.0 421.9,54.0 423.4,54.0 424.8,54.0 426.3,54.0 427.8,54.0 429.3,54.0 430.8,54.0 432.2,54.0 433.7,54.0 435.2,54.0 436.7,54.0 438.2,54.0 439.7,54.0 441.2,54.0 442.6,54.0 444.1,54.0 445.6,54.0 447.1,54.0 448.6,54.0 450.1,54.0 451.5,54.0 453.0,54.0 454.5,54.0 456.0,54.0 457.5,54.0 458.9,54.0 460.4,54.0 461.9,54.0 463.4,54.0 464.9,54.0 466.4,54.0 467.9,54.0 469.3,54.0 470.8,54.0 472.3,54.0 473.8,54.0 475.3,54.0 476.8,54.0 478.2,54.0 479.7,54.0 481.2,54.0 482.7,54.0 484.2,54.0 485.7,54.0 487.1,54.0 488.6,54.0 490.1,54.0 491.6,54.0 493.1,54.0 494.6,54.0 496.0,54.0 497.5,54.0 499.0,54.0 500.5,54.0 502.0,54.0 503.4,54.0 504.9,54.0 506.4,54.0 507.9,54.0 509.4,54.0 510.9,54.0 512.4,54.0 513.8,54.0 515.3,54.0 516.8,54.0 518.3,54.0 519.8,54.0 521.2,54.0 522.7,54.0 524.2,54.0 525.7,54.0 527.2,54.0 528.7,54.0 530.2,54.0 531.6,54.0 533.1,54.0 534.6,54.0 536.1,54.0 537.6,54.0 539.0,54.0 540.5,54.0 542.0,54.0 543.5,54.0 545.0,54.0 546.5,54.0 548.0,54.0 549.4,54.0 550.9,54.0 552.4,54.0 553.9,54.0 555.4,54.0 556.8,54.0 558.3,54.0 559.8,54.0 561.3,54.0 562.8,54.0 564.3,54.0 565.8,54.0 567.2,54.0 568.7,54.0 570.2,54.0 571.7,54.0 573.2,54.0 574.7,54.0 576.1,54.0 577.6,54.0 579.1,54.0 580.6,54.0 582.1,54.0 583.6,54.0 585.0,54.0 586.5,54.0 588.0,54.0 589.5,54.0 591.0,54.0 592.5,54.0 593.9,54.0 595.4,54.0 596.9,54.0 598.4,54.0 599.9,54.0 601.3,54.0 602.8,54.0 604.3,54.0 605.8,54.0 607.3,54.0 608.8,54.0 610.2,54.0 611.7,54.0 613.2,54.0 614.7,54.0 616.2,54.0 617.7,54.0 619.2,54.0 620.6,54.0 622.1,54.0 623.6,54.0 625.1,54.0 626.6,54.0 628.1,54.0 629.5,54.0 631.0,54.0 632.5,54.0 634.0,54.0 635.5,54.0 637.0,54.0 638.4,54.0 639.9,54.0 641.4,54.0 642.9,54.0 644.4,54.0 645.9,54.0 647.3,54.0 648.8,54.0 650.3,54.0 651.8,54.0 653.3,54.0 654.8,54.0 656.2,54.0 657.7,54.0 659.2,54.0 660.7,54.0 662.2,54.0 663.7,54.0 665.1,54.0 666.6,54.0 668.1,54.0 669.6,54.0 671.1,54.0 672.6,54.0 674.0,54.0 675.5,54.0 677.0,54.0 678.5,54.0 680.0,54.0 681.5,54.0 682.9,54.0 684.4,54.0 685.9,54.0 687.4,54.0 688.9,54.0 690.4,54.0 691.8,54.0 693.3,54.0 694.8,54.0 696.3,54.0 697.8,54.0 699.2,54.0 700.7,54.0 702.2,54.0 703.7,54.0 705.2,54.0 706.7,54.0 708.2,54.0 709.6,54.0 711.1,54.0 712.6,54.0 714.1,54.0 715.6,54.0 717.1,54.0 718.5,54.0 720.0,54.0 721.5,54.0 723.0,54.0 724.5,54.0 726.0,54.0 727.4,54.0 728.9,54.0 730.4,54.0 731.9,54.0 733.4,54.0 734.9,54.0 736.3,54.0 737.8,54.0 739.3,54.0 740.8,54.0 742.3,54.0 743.8,54.0 745.2,54.0 746.7,54.0 748.2,54.0 749.7,54.0 751.2,54.0 752.7,54.0 754.1,54.0 755.6,54.0 757.1,54.0 758.6,54.0 760.1,54.0 761.6,54.0 763.0,54.0 764.5,54.0 766.0,54.0"/>
<line x1="606" y1="42" x2="628" y2="42" stroke="#0f62fe" stroke-width="2.2"/>
<text x="634" y="46" font-family="Arial" font-size="12">pitch_command_deg</text>
<polyline fill="none" stroke="#24a148" stroke-width="2.2" points="54.0,181.1 55.5,187.5 57.0,198.3 58.5,211.5 59.9,225.0 61.4,237.1 62.9,245.9 64.4,250.0 65.9,250.5 67.3,249.3 68.8,248.2 70.3,248.1 71.8,249.1 73.3,250.6 74.8,252.2 76.2,253.5 77.7,254.5 79.2,255.2 80.7,255.8 82.2,256.5 83.7,257.1 85.2,257.8 86.6,258.4 88.1,259.0 89.6,259.6 91.1,260.1 92.6,260.5 94.1,261.0 95.5,261.4 97.0,261.8 98.5,262.2 100.0,262.5 101.5,262.8 103.0,263.1 104.4,263.4 105.9,263.7 107.4,263.9 108.9,264.1 110.4,264.3 111.8,264.5 113.3,264.7 114.8,264.8 116.3,265.0 117.8,265.1 119.3,265.3 120.8,265.4 122.2,265.5 123.7,265.6 125.2,265.7 126.7,265.7 128.2,265.8 129.7,265.9 131.1,265.9 132.6,265.9 134.1,266.0 135.6,266.0 137.1,266.0 138.6,266.0 140.0,266.0 141.5,266.0 143.0,266.0 144.5,265.9 146.0,265.9 147.4,265.9 148.9,265.8 150.4,265.7 151.9,265.7 153.4,265.6 154.9,265.5 156.4,265.4 157.8,265.3 159.3,265.2 160.8,265.1 162.3,265.0 163.8,264.9 165.2,264.8 166.7,264.6 168.2,264.5 169.7,264.4 171.2,264.2 172.7,264.0 174.1,263.9 175.6,263.7 177.1,263.5 178.6,263.3 180.1,263.1 181.6,262.8 183.1,262.6 184.5,262.4 186.0,262.1 187.5,261.9 189.0,261.6 190.5,261.3 192.0,261.1 193.4,260.8 194.9,260.5 196.4,260.2 197.9,259.9 199.4,259.6 200.9,259.2 202.3,258.9 203.8,258.6 205.3,258.3 206.8,257.9 208.3,257.6 209.8,257.2 211.2,256.9 212.7,256.5 214.2,256.1 215.7,255.8 217.2,255.4 218.7,255.0 220.1,254.6 221.6,254.2 223.1,253.8 224.6,253.4 226.1,253.0 227.6,252.6 229.0,252.2 230.5,251.8 232.0,251.3 233.5,250.9 235.0,250.5 236.5,250.0 237.9,249.6 239.4,249.2 240.9,248.7 242.4,248.3 243.9,247.8 245.3,247.4 246.8,246.9 248.3,246.4 249.8,246.0 251.3,245.5 252.8,245.0 254.2,244.5 255.7,244.0 257.2,243.6 258.7,243.1 260.2,242.6 261.7,242.1 263.1,241.6 264.6,241.1 266.1,240.6 267.6,240.1 269.1,239.6 270.6,239.1 272.1,238.5 273.5,238.0 275.0,237.5 276.5,237.0 278.0,236.5 279.5,235.9 281.0,235.4 282.4,234.9 283.9,234.3 285.4,233.8 286.9,233.3 288.4,232.7 289.9,232.2 291.3,231.6 292.8,231.1 294.3,230.5 295.8,230.0 297.3,229.4 298.8,228.9 300.2,228.3 301.7,227.8 303.2,227.2 304.7,226.6 306.2,226.1 307.6,225.5 309.1,224.9 310.6,224.4 312.1,223.8 313.6,223.2 315.1,222.6 316.5,222.1 318.0,221.5 319.5,220.9 321.0,220.3 322.5,219.8 324.0,219.2 325.5,218.6 326.9,218.0 328.4,217.4 329.9,216.8 331.4,216.3 332.9,215.7 334.4,215.1 335.8,214.5 337.3,214.0 338.8,213.4 340.3,212.8 341.8,212.3 343.2,211.7 344.7,211.2 346.2,210.6 347.7,210.0 349.2,209.5 350.7,208.9 352.2,208.3 353.6,207.7 355.1,207.0 356.6,206.4 358.1,205.7 359.6,205.0 361.1,204.3 362.5,203.7 364.0,203.0 365.5,202.2 367.0,201.5 368.5,200.8 370.0,200.1 371.4,199.3 372.9,198.6 374.4,197.9 375.9,197.1 377.4,196.4 378.9,195.6 380.3,194.9 381.8,194.1 383.3,193.3 384.8,192.6 386.3,191.8 387.8,191.0 389.2,190.3 390.7,189.5 392.2,188.8 393.7,188.0 395.2,187.2 396.7,186.5 398.1,185.7 399.6,184.9 401.1,184.2 402.6,183.4 404.1,182.6 405.6,181.9 407.0,181.1 408.5,180.3 410.0,179.6 411.5,178.8 413.0,178.1 414.4,177.3 415.9,176.5 417.4,175.8 418.9,175.0 420.4,174.3 421.9,173.5 423.4,172.8 424.8,172.0 426.3,171.3 427.8,170.5 429.3,169.8 430.8,169.1 432.2,168.3 433.7,167.6 435.2,166.8 436.7,166.1 438.2,165.4 439.7,164.7 441.2,163.9 442.6,163.2 444.1,162.5 445.6,161.8 447.1,161.0 448.6,160.3 450.1,159.6 451.5,158.9 453.0,158.2 454.5,157.5 456.0,156.8 457.5,156.1 458.9,155.4 460.4,154.7 461.9,154.0 463.4,153.3 464.9,152.6 466.4,151.9 467.9,151.2 469.3,150.5 470.8,149.9 472.3,149.2 473.8,148.5 475.3,147.8 476.8,147.2 478.2,146.5 479.7,145.8 481.2,145.2 482.7,144.5 484.2,143.9 485.7,143.2 487.1,142.6 488.6,141.9 490.1,141.3 491.6,140.6 493.1,140.0 494.6,139.4 496.0,138.7 497.5,138.1 499.0,137.5 500.5,136.9 502.0,136.2 503.4,135.6 504.9,135.0 506.4,134.4 507.9,133.8 509.4,133.2 510.9,132.6 512.4,132.0 513.8,131.4 515.3,130.8 516.8,130.2 518.3,129.6 519.8,129.0 521.2,128.5 522.7,127.9 524.2,127.3 525.7,126.7 527.2,126.2 528.7,125.6 530.2,125.0 531.6,124.5 533.1,123.9 534.6,123.4 536.1,122.8 537.6,122.3 539.0,121.7 540.5,121.2 542.0,120.7 543.5,120.1 545.0,119.6 546.5,119.1 548.0,118.6 549.4,118.0 550.9,117.5 552.4,117.0 553.9,116.5 555.4,116.0 556.8,115.5 558.3,115.0 559.8,114.5 561.3,114.0 562.8,113.5 564.3,113.0 565.8,112.5 567.2,112.1 568.7,111.6 570.2,111.1 571.7,110.6 573.2,110.2 574.7,109.7 576.1,109.2 577.6,108.8 579.1,108.3 580.6,107.9 582.1,107.4 583.6,107.0 585.0,106.5 586.5,106.1 588.0,105.7 589.5,105.2 591.0,104.8 592.5,104.4 593.9,103.9 595.4,103.5 596.9,103.1 598.4,102.7 599.9,102.3 601.3,101.9 602.8,101.5 604.3,101.1 605.8,100.7 607.3,100.3 608.8,99.9 610.2,99.5 611.7,99.1 613.2,98.7 614.7,98.3 616.2,97.9 617.7,97.6 619.2,97.2 620.6,96.8 622.1,96.4 623.6,96.1 625.1,95.7 626.6,95.4 628.1,95.0 629.5,94.6 631.0,94.3 632.5,93.9 634.0,93.6 635.5,93.3 637.0,92.9 638.4,92.6 639.9,92.2 641.4,91.9 642.9,91.6 644.4,91.3 645.9,90.9 647.3,90.6 648.8,90.3 650.3,90.0 651.8,89.7 653.3,89.4 654.8,89.0 656.2,88.7 657.7,88.4 659.2,88.1 660.7,87.8 662.2,87.5 663.7,87.2 665.1,87.0 666.6,86.7 668.1,86.4 669.6,86.1 671.1,85.8 672.6,85.5 674.0,85.3 675.5,85.0 677.0,84.7 678.5,84.4 680.0,84.2 681.5,83.9 682.9,83.7 684.4,83.4 685.9,83.1 687.4,82.9 688.9,82.6 690.4,82.4 691.8,82.1 693.3,81.9 694.8,81.6 696.3,81.4 697.8,81.2 699.2,80.9 700.7,80.7 702.2,80.3 703.7,80.4 705.2,79.7 706.7,80.3 708.2,78.6 709.6,81.0 711.1,75.9 712.6,78.7 714.1,75.1 715.6,79.9 717.1,77.2 718.5,79.9 720.0,74.5 721.5,77.0 723.0,74.2 724.5,78.9 726.0,75.0 727.4,78.2 728.9,73.1 730.4,75.8 731.9,72.4 733.4,78.1 734.9,76.0 736.3,76.9 737.8,74.8 739.3,78.0 740.8,71.1 742.3,71.5 743.8,74.2 745.2,68.3 746.7,70.6 748.2,69.5 749.7,72.1 751.2,67.5 752.7,71.7 754.1,68.2 755.6,72.8 757.1,68.7 758.6,72.4 760.1,67.5 761.6,70.7 763.0,66.3 764.5,70.6 766.0,66.8"/>
<line x1="606" y1="60" x2="628" y2="60" stroke="#24a148" stroke-width="2.2"/>
<text x="634" y="64" font-family="Arial" font-size="12">pitch_deg</text>
</svg>