<svg xmlns="http://www.w3.org/2000/svg" width="820" height="320" viewBox="0 0 820 320">
<rect width="100%" height="100%" fill="#ffffff"/>
<text x="54" y="28" font-family="Arial" font-size="18" font-weight="700">Downrange/Crossrange</text>
<line x1="54" y1="266" x2="766" y2="266" stroke="#1f2933"/>
<line x1="54" y1="54" x2="54" y2="266" stroke="#1f2933"/>
<text x="54" y="306" font-family="Arial" font-size="12">downrange (m)</text>
<text x="596" y="306" font-family="Arial" font-size="12">crossrange (m)</text>
<text x="58" y="68" font-family="Arial" font-size="11">0.000387</text>
<text x="58" y="260" font-family="Arial" font-size="11">-1.15e+03</text>
<polyline fill="none" stroke="#0f62fe" stroke-width="2.2" points="54.0,54.0 55.1,54.0 56.1,54.0 57.2,54.0 58.3,54.0 59.4,54.0 60.5,54.0 61.6,54.0 62.7,54.0 63.9,54.0 65.0,54.0 66.1,54.0 67.3,54.0 68.4,54.0 69.6,54.0 70.8,54.0 71.9,54.0 73.1,54.0 74.3,54.0 75.5,54.0 76.7,54.0 77.9,54.0 79.2,54.0 80.4,54.0 81.6,54.0 82.9,54.0 84.1,54.0 85.4,54.0 86.6,54.0 87.9,54.0 89.2,54.0 90.5,54.0 91.8,54.0 93.1,54.0 94.4,54.0 95.7,54.0 97.0,54.0 98.4,54.0 99.7,54.0 101.0,54.0 102.4,54.0 103.8,54.0 105.1,54.0 106.5,54.0 107.9,54.0 109.3,54.0 110.7,54.0 112.1,54.0 113.5,54.0 114.9,54.0 116.4,54.0 117.8,54.0 119.2,54.0 120.7,54.0 122.1,54.0 123.6,54.0 125.1,54.0 126.5,54.0 128.0,54.0 129.5,54.0 131.0,54.0 132.5,54.0 134.0,54.0 135.6,54.0 137.1,54.0 138.6,54.0 140.2,54.0 141.7,54.0 143.3,54.0 144.8,54.0 146.4,54.0 148.0,54.0 149.6,54.0 151.1,54.0 152.7,54.0 154.4,54.0 156.0,54.0 157.6,54.0 159.2,54.0 160.8,54.0 162.5,54.0 164.1,54.0 165.8,54.0 167.4,54.0 169.1,54.0 170.8,54.0 172.5,54.0 174.1,54.0 175.8,54.0 177.5,54.0 179.2,54.0 181.0,54.0 182.7,54.0 184.4,54.0 186.1,54.0 187.9,54.0 189.6,54.0 191.4,54.0 193.1,54.0 194.9,54.0 196.7,54.0 198.5,54.0 200.3,54.0 202.0,54.1 203.8,54.1 205.7,54.1 207.5,54.1 209.3,54.1 211.1,54.1 212.9,54.1 214.8,54.1 216.6,54.1 218.5,54.1 220.3,54.1 222.2,54.1 224.1,54.1 226.0,54.1 227.8,54.1 229.7,54.1 231.6,54.1 233.5,54.1 235.4,54.1 237.4,54.1 239.3,54.1 241.2,54.1 243.1,54.1 245.1,54.1 247.0,54.1 249.0,54.1 250.9,54.1 252.9,54.1 254.9,54.1 256.9,54.1 258.8,54.1 260.8,54.2 262.8,54.2 264.8,54.2 266.8,54.2 268.8,54.2 270.9,54.2 272.9,54.2 274.9,54.2 277.0,54.2 279.0,54.2 281.1,54.2 283.1,54.2 285.2,54.2 287.2,54.2 289.3,54.2 291.4,54.3 293.5,54.3 295.6,54.3 297.7,54.3 299.8,54.3 301.9,54.3 304.0,54.3 306.1,54.3 308.2,54.3 310.3,54.4 312.5,54.4 314.6,54.4 316.8,54.4 318.9,54.4 321.1,54.4 323.2,54.5 325.4,54.5 327.6,54.5 329.8,54.5 331.9,54.5 334.1,54.6 336.3,54.6 338.5,54.6 340.7,54.6 342.9,54.7 345.1,54.7 347.4,54.7 349.6,54.7 351.8,54.8 354.1,54.8 356.3,54.8 358.5,54.9 360.8,54.9 363.0,55.0 365.3,55.0 367.6,55.1 369.8,55.1 372.1,55.2 374.4,55.2 376.6,55.3 378.9,55.3 381.2,55.4 383.5,55.5 385.8,55.5 388.1,55.6 390.4,55.7 392.7,55.7 395.0,55.8 397.3,55.9 399.6,56.0 401.9,56.1 404.2,56.2 406.6,56.3 408.9,56.4 411.2,56.5 413.5,56.6 415.8,56.7 418.2,56.8 420.5,56.9 422.8,57.1 425.1,57.2 427.4,57.3 429.8,57.5 432.1,57.6 434.4,57.7 436.8,57.9 439.1,58.1 441.4,58.2 443.8,58.4 446.1,58.5 448.4,58.7 450.8,58.9 453.1,59.1 455.4,59.2 457.8,59.4 460.1,59.6 462.4,59.8 464.8,60.0 467.1,60.2 469.4,60.4 471.8,60.7 474.1,60.9 476.4,61.1 478.7,61.3 481.1,61.6 483.4,61.8 485.7,62.0 488.0,62.3 490.4,62.6 492.7,62.8 495.0,63.1 497.3,63.3 499.6,63.6 502.0,63.9 504.3,64.2 506.6,64.5 508.9,64.8 511.2,65.1 513.5,65.4 515.8,65.7 518.1,66.0 520.4,66.3 522.7,66.6 525.0,67.0 527.3,67.3 529.6,67.6 531.9,68.0 534.2,68.3 536.4,68.7 538.7,69.0 541.0,69.4 543.3,69.8 545.5,70.2 547.8,70.5 550.1,70.9 552.3,71.3 554.6,71.7 556.8,72.1 559.1,72.5 561.3,72.9 563.6,73.4 565.8,73.8 568.0,74.2 570.2,74.7 572.5,75.1 574.7,75.5 576.9,76.0 579.1,76.5 581.3,76.9 583.5,77.4 585.7,77.9 587.8,78.4 590.0,78.9 592.2,79.3 594.3,79.9 596.5,80.4 598.6,80.9 600.7,81.4 602.8,81.9 605.0,82.5 607.1,83.0 609.2,83.5 611.3,84.1 613.3,84.6 615.4,85.2 617.5,85.8 619.5,86.3 621.6,86.9 623.6,87.5 625.6,88.1 627.6,88.7 629.6,89.3 631.6,89.9 633.6,90.5 635.6,91.2 637.5,91.8 639.5,92.4 641.4,93.1 643.4,93.7 645.3,94.4 647.2,95.0 649.1,95.7 651.0,96.4 652.8,97.1 654.7,97.7 656.5,98.4 658.3,99.1 660.2,99.8 662.0,100.5 663.7,101.2 665.5,101.9 667.3,102.7 669.0,103.4 670.7,104.1 672.5,104.9 674.2,105.6 675.8,106.4 677.5,107.1 679.2,107.9 680.8,108.6 682.4,109.4 684.0,110.2 685.6,111.0 687.2,111.7 688.7,112.5 690.3,113.3 691.8,114.1 693.3,114.9 694.7,115.7 696.2,116.5 697.6,117.3 699.1,118.1 700.5,119.0 701.8,119.8 703.2,120.6 704.6,121.4 705.9,122.3 707.2,123.1 708.5,123.9 709.7,124.8 711.0,125.6 712.2,126.5 713.4,127.3 714.6,128.2 715.7,129.0 716.9,129.9 718.0,130.7 719.1,131.6 720.1,132.4 721.2,133.3 722.2,134.1 723.2,135.0 724.2,135.9 725.2,136.7 726.1,137.6 727.0,138.5 727.9,139.3 728.8,140.2 729.7,141.1 730.5,141.9 731.4,142.8 732.2,143.7 732.9,144.5 733.7,145.4 734.5,146.2 735.2,147.1 735.9,148.0 736.6,148.8 737.3,149.7 738.0,150.6 738.6,151.4 739.3,152.3 739.9,153.1 740.5,154.0 741.1,154.8 741.7,155.7 742.2,156.5 742.8,157.4 743.3,158.2 743.8,159.0 744.3,159.9 744.8,160.7 745.3,161.5 745.8,162.4 746.2,163.2 746.7,164.0 747.1,164.8 747.5,165.6 747.9,166.4 748.3,167.2 748.7,168.0 749.0,168.8 749.4,169.6 749.7,170.4 750.0,171.2 750.3,172.0 750.6,172.8 750.9,173.5 751.2,174.3 751.4,175.1 751.7,175.8 751.9,176.6 752.2,177.3 752.4,178.1 752.6,178.8 752.8,179.5 753.0,180.2 753.2,181.0 753.3,181.7 753.5,182.4 753.6,183.1 753.8,183.8 753.9,184.5 754.1,185.2 754.2,185.9 754.3,186.5 754.4,187.2 754.5,187.9 754.6,188.5 754.7,189.2 754.8,189.8 754.8,190.5 754.9,191.1 755.0,191.8 755.0,192.4 755.0,193.0 755.1,193.6 755.1,194.3 755.2,194.9 755.2,195.5 755.2,196.1 755.3,196.7 755.3,197.3 755.3,197.9 755.4,198.5 755.4,199.1 755.4,199.7 755.5,200.2 755.5,200.8 755.5,201.4 755.6,202.0 755.6,202.5 755.6,203.1 755.7,203.6 755.7,204.2 755.7,204.8 755.7,205.3 755.8,205.9 755.8,206.4 755.8,206.9 755.9,207.5 755.9,208.0 755.9,208.5 756.0,209.1 756.0,209.6 756.0,210.1 756.1,210.6 756.1,211.2 756.1,211.7 756.2,212.2 756.2,212.7 756.2,213.2 756.3,213.7 756.3,214.2 756.3,214.7 756.4,215.2 756.4,215.7 756.4,216.2 756.5,216.7 756.5,217.1 756.6,217.6 756.7,218.1 756.7,218.6 756.8,219.1 756.8,219.5 756.9,220.0 756.9,220.5 756.9,221.0 757.0,221.4 757.0,221.9 757.1,222.4 757.1,222.8 757.1,223.3 757.1,223.8 757.2,224.2 757.2,224.7 757.2,225.2 757.2,225.6 757.2,226.1 757.3,226.5 757.3,227.0 757.3,227.5 757.3,227.9 757.4,228.4 757.4,228.8 757.5,229.3 757.5,229.7 757.5,230.2 757.6,230.6 757.6,231.0 757.7,231.5 757.7,231.9 757.8,232.4 757.9,232.8 757.9,233.2 758.0,233.7 758.1,234.1 758.2,234.5 758.2,235.0 758.3,235.4 758.3,235.8 758.4,236.3 758.5,236.7 758.5,237.1 758.6,237.6 758.6,238.0 758.7,238.4 758.8,238.9 758.8,239.3 758.9,239.7 759.0,240.1 759.1,240.6 759.1,241.0 759.2,241.4 759.3,241.8 759.4,242.2 759.5,242.7 759.6,243.1 759.7,243.5 759.7,243.9 759.8,244.3 759.9,244.7 760.0,245.1 760.1,245.5 760.2,245.9 760.3,246.3 760.4,246.7 760.5,247.1 760.6,247.5 760.7,247.9 760.8,248.3 760.9,248.7 761.0,249.1 761.2,249.4 761.3,249.8 761.4,250.2 761.5,250.6 761.6,251.0 761.7,251.3 761.8,251.7 761.9,252.1 762.0,252.5 762.1,252.8 762.2,253.2 762.4,253.6 762.5,253.9 762.6,254.3 762.7,254.7 762.8,255.0 762.9,255.4 763.0,255.7 763.1,256.1 763.2,256.4 763.3,256.8 763.5,257.1 763.6,257.5 763.7,257.8 763.8,258.2 763.9,258.5 764.0,258.8 764.1,259.2 764.2,259.5 764.3,259.9 764.4,260.2 764.5,260.5 764.6,260.9 764.7,261.2 764.8,261.5 764.9,261.8 764.9,262.2 765.0,262.5 765.1,262.8 765.2,263.1 765.3,263.5 765.4,263.8 765.5,264.1 765.6,264.4 765.7,264.7 765.7,265.1 765.8,265.4 765.9,265.7 766.0,266.0"/>
<line x1="606" y1="42" x2="628" y2="42" stroke="#0f62fe" stroke-width="2.2"/>
<text x="634" y="46" font-family="Arial" font-size="12">y_m</text>
</svg>