<svg xmlns="http://www.w3.org/2000/svg" width="820" height="320" viewBox="0 0 820 320">
<rect width="100%" height="100%" fill="#ffffff"/>
<text x="54" y="28" font-family="Arial" font-size="18" font-weight="700">Velocity X</text>
<line x1="54" y1="266" x2="766" y2="266" stroke="#1f2933"/>
<line x1="54" y1="54" x2="54" y2="266" stroke="#1f2933"/>
<text x="54" y="306" font-family="Arial" font-size="12">time (s)</text>
<text x="596" y="306" font-family="Arial" font-size="12">vx (m/s)</text>
<text x="58" y="68" font-family="Arial" font-size="11">187</text>
<text x="58" y="260" font-family="Arial" font-size="11">1.31</text>
<polyline fill="none" stroke="#0f62fe" stroke-width="2.2" points="54.0,170.2 55.2,169.7 56.4,169.1 57.6,168.5 58.7,167.9 59.9,167.2 61.1,166.6 62.3,166.0 63.5,165.4 64.7,164.7 65.9,164.0 67.1,163.4 68.2,162.7 69.4,162.0 70.6,161.3 71.8,160.6 73.0,159.9 74.2,159.2 75.4,158.5 76.5,157.8 77.7,157.2 78.9,156.5 80.1,155.8 81.3,155.1 82.5,154.4 83.7,153.7 84.9,153.0 86.0,152.4 87.2,151.7 88.4,151.0 89.6,150.3 90.8,149.6 92.0,149.0 93.2,148.3 94.3,147.6 95.5,146.9 96.7,146.3 97.9,145.6 99.1,144.9 100.3,144.2 101.5,143.6 102.7,142.9 103.8,142.2 105.0,141.6 106.2,140.9 107.4,140.2 108.6,139.6 109.8,138.9 111.0,138.2 112.1,137.6 113.3,136.9 114.5,136.3 115.7,135.6 116.9,134.9 118.1,134.3 119.3,133.6 120.5,133.0 121.6,132.3 122.8,131.7 124.0,131.0 125.2,130.4 126.4,129.7 127.6,129.1 128.8,128.4 129.9,127.8 131.1,127.1 132.3,126.5 133.5,125.8 134.7,125.2 135.9,124.5 137.1,123.9 138.3,123.3 139.4,122.6 140.6,122.0 141.8,121.3 143.0,120.7 144.2,120.1 145.4,119.4 146.6,118.8 147.7,118.2 148.9,117.5 150.1,116.9 151.3,116.3 152.5,115.7 153.7,115.0 154.9,114.4 156.1,113.8 157.2,113.2 158.4,112.5 159.6,111.9 160.8,111.3 162.0,110.7 163.2,110.1 164.4,109.4 165.5,108.8 166.7,108.2 167.9,107.6 169.1,107.0 170.3,106.4 171.5,105.8 172.7,105.2 173.9,104.6 175.0,104.0 176.2,103.4 177.4,102.8 178.6,102.2 179.8,101.6 181.0,101.0 182.2,100.4 183.3,99.8 184.5,99.2 185.7,98.6 186.9,98.0 188.1,97.4 189.3,96.9 190.5,96.3 191.7,95.7 192.8,95.1 194.0,94.5 195.2,94.0 196.4,93.4 197.6,92.8 198.8,92.2 200.0,91.7 201.1,91.1 202.3,90.5 203.5,90.0 204.7,89.4 205.9,88.8 207.1,88.3 208.3,87.7 209.5,87.2 210.6,86.6 211.8,86.0 213.0,85.5 214.2,84.9 215.4,84.4 216.6,83.8 217.8,83.3 218.9,82.7 220.1,82.2 221.3,81.6 222.5,81.1 223.7,80.6 224.9,80.0 226.1,79.5 227.3,79.0 228.4,78.4 229.6,77.9 230.8,77.4 232.0,76.8 233.2,76.3 234.4,75.8 235.6,75.3 236.7,74.8 237.9,74.2 239.1,73.7 240.3,73.2 241.5,72.7 242.7,72.2 243.9,71.7 245.1,71.2 246.2,70.7 247.4,70.2 248.6,69.7 249.8,69.2 251.0,68.7 252.2,68.2 253.4,67.8 254.5,67.3 255.7,66.8 256.9,66.3 258.1,65.8 259.3,65.4 260.5,64.9 261.7,64.4 262.9,64.0 264.0,63.5 265.2,63.1 266.4,62.6 267.6,62.2 268.8,61.8 270.0,61.4 271.2,60.9 272.3,60.5 273.5,60.1 274.7,59.8 275.9,59.4 277.1,59.0 278.3,58.7 279.5,58.3 280.7,58.0 281.8,57.7 283.0,57.4 284.2,57.1 285.4,56.8 286.6,56.6 287.8,56.3 289.0,56.2 290.1,56.0 291.3,55.9 292.5,55.7 293.7,55.6 294.9,55.5 296.1,55.4 297.3,55.2 298.5,55.2 299.6,55.1 300.8,55.0 302.0,54.9 303.2,54.8 304.4,54.6 305.6,54.5 306.8,54.4 307.9,54.3 309.1,54.1 310.3,54.1 311.5,54.0 312.7,54.0 313.9,54.0 315.1,54.0 316.3,54.0 317.4,54.1 318.6,54.0 319.8,54.1 321.0,54.0 322.2,54.1 323.4,54.1 324.6,54.1 325.7,54.2 326.9,54.3 328.1,54.3 329.3,54.4 330.5,54.5 331.7,54.6 332.9,54.7 334.1,54.9 335.2,55.0 336.4,55.2 337.6,55.3 338.8,55.5 340.0,55.6 341.2,55.8 342.4,56.0 343.5,56.2 344.7,56.3 345.9,56.5 347.1,56.6 348.3,56.8 349.5,57.0 350.7,57.2 351.9,57.3 353.0,57.5 354.2,57.6 355.4,57.8 356.6,58.0 357.8,58.3 359.0,58.5 360.2,58.8 361.3,59.1 362.5,59.5 363.7,59.8 364.9,60.2 366.1,60.5 367.3,60.9 368.5,61.3 369.7,61.7 370.8,62.0 372.0,62.4 373.2,62.8 374.4,63.2 375.6,63.5 376.8,63.9 378.0,64.3 379.1,64.9 380.3,65.4 381.5,66.0 382.7,66.5 383.9,67.3 385.1,68.0 386.3,68.6 387.5,69.4 388.6,70.0 389.8,70.8 391.0,71.3 392.2,72.0 393.4,72.6 394.6,73.3 395.8,73.9 396.9,74.7 398.1,75.4 399.3,76.3 400.5,77.1 401.7,77.9 402.9,78.7 404.1,79.6 405.3,80.4 406.4,81.4 407.6,82.3 408.8,83.3 410.0,84.2 411.2,85.2 412.4,86.1 413.6,87.2 414.7,88.2 415.9,89.2 417.1,90.2 418.3,91.3 419.5,92.2 420.7,93.3 421.9,94.3 423.1,95.5 424.2,96.6 425.4,97.9 426.6,99.0 427.8,100.3 429.0,101.5 430.2,102.8 431.4,104.1 432.5,105.4 433.7,106.7 434.9,108.1 436.1,109.4 437.3,110.8 438.5,112.1 439.7,113.5 440.9,114.9 442.0,116.3 443.2,117.7 444.4,119.3 445.6,120.8 446.8,122.4 448.0,124.0 449.2,125.6 450.3,127.2 451.5,129.0 452.7,130.6 453.9,132.4 455.1,134.1 456.3,135.8 457.5,137.5 458.7,139.3 459.8,141.0 461.0,142.8 462.2,144.6 463.4,146.4 464.6,148.2 465.8,150.0 467.0,151.9 468.1,153.8 469.3,155.7 470.5,157.7 471.7,159.6 472.9,161.6 474.1,163.6 475.3,165.6 476.5,167.5 477.6,169.5 478.8,171.5 480.0,173.5 481.2,175.4 482.4,177.4 483.6,179.3 484.8,181.2 485.9,183.1 487.1,185.0 488.3,186.8 489.5,188.7 490.7,190.4 491.9,192.2 493.1,193.9 494.3,195.6 495.4,197.3 496.6,198.9 497.8,200.5 499.0,202.0 500.2,203.5 501.4,205.0 502.6,206.4 503.7,207.8 504.9,209.1 506.1,210.5 507.3,211.8 508.5,213.1 509.7,214.5 510.9,215.8 512.1,217.1 513.2,218.4 514.4,219.8 515.6,221.1 516.8,222.4 518.0,223.6 519.2,224.9 520.4,226.2 521.5,227.5 522.7,228.7 523.9,229.9 525.1,231.2 526.3,232.4 527.5,233.5 528.7,234.7 529.9,235.9 531.0,237.0 532.2,238.1 533.4,239.3 534.6,240.3 535.8,241.4 537.0,242.5 538.2,243.5 539.3,244.5 540.5,245.5 541.7,246.5 542.9,247.4 544.1,248.3 545.3,249.2 546.5,250.1 547.7,251.0 548.8,251.8 550.0,252.6 551.2,253.4 552.4,254.1 553.6,254.8 554.8,255.5 556.0,256.2 557.1,256.8 558.3,257.5 559.5,258.2 560.7,258.9 561.9,259.6 563.1,260.4 564.3,261.1 565.5,261.8 566.6,262.6 567.8,263.3 569.0,264.1 570.2,264.1 571.4,264.1 572.6,264.1 573.8,264.1 574.9,264.2 576.1,264.2 577.3,264.3 578.5,264.3 579.7,264.4 580.9,264.5 582.1,264.5 583.3,264.6 584.4,264.6 585.6,264.7 586.8,264.7 588.0,264.7 589.2,264.7 590.4,264.7 591.6,264.6 592.7,264.6 593.9,264.6 595.1,264.6 596.3,264.6 597.5,264.6 598.7,264.6 599.9,264.6 601.1,264.6 602.2,264.6 603.4,264.6 604.6,264.6 605.8,264.6 607.0,264.6 608.2,264.6 609.4,264.6 610.5,264.6 611.7,264.5 612.9,264.4 614.1,264.3 615.3,264.2 616.5,264.0 617.7,263.8 618.9,263.6 620.0,263.3 621.2,262.9 622.4,262.6 623.6,262.3 624.8,262.4 626.0,262.6 627.2,263.0 628.3,263.3 629.5,263.5 630.7,263.7 631.9,263.9 633.1,264.0 634.3,264.2 635.5,264.4 636.7,264.6 637.8,264.9 639.0,265.3 640.2,265.7 641.4,265.9 642.6,266.0 643.8,265.9 645.0,265.7 646.1,265.4 647.3,265.1 648.5,264.8 649.7,264.5 650.9,264.2 652.1,263.9 653.3,263.7 654.5,263.4 655.6,263.1 656.8,262.8 658.0,262.5 659.2,262.2 660.4,261.8 661.6,261.5 662.8,261.3 663.9,261.1 665.1,261.1 666.3,261.2 667.5,261.4 668.7,261.5 669.9,261.7 671.1,261.9 672.3,262.1 673.4,262.2 674.6,262.2 675.8,262.1 677.0,261.9 678.2,261.7 679.4,261.4 680.6,261.1 681.7,260.8 682.9,260.6 684.1,260.3 685.3,260.1 686.5,259.9 687.7,259.7 688.9,259.5 690.1,259.4 691.2,259.2 692.4,259.1 693.6,259.0 694.8,258.8 696.0,258.7 697.2,258.6 698.4,258.5 699.5,258.4 700.7,258.3 701.9,258.2 703.1,258.1 704.3,258.0 705.5,257.9 706.7,257.9 707.9,257.8 709.0,257.7 710.2,257.7 711.4,257.6 712.6,257.6 713.8,257.5 715.0,257.5 716.2,257.4 717.3,257.4 718.5,257.4 719.7,257.4 720.9,257.4 722.1,257.4 723.3,257.4 724.5,257.4 725.7,257.4 726.8,257.4 728.0,257.4 729.2,257.5 730.4,257.5 731.6,257.6 732.8,257.6 734.0,257.7 735.1,257.8 736.3,257.8 737.5,257.9 738.7,258.0 739.9,258.1 741.1,258.2 742.3,258.3 743.5,258.4 744.6,258.5 745.8,258.6 747.0,258.7 748.2,258.8 749.4,258.9 750.6,259.0 751.8,259.1 752.9,259.1 754.1,259.2 755.3,259.3 756.5,259.4 757.7,259.4 758.9,259.5 760.1,259.5 761.3,259.6 762.4,259.6 763.6,259.6 764.8,259.7 766.0,259.7"/>
<line x1="606" y1="42" x2="628" y2="42" stroke="#0f62fe" stroke-width="2.2"/>
<text x="634" y="46" font-family="Arial" font-size="12">vx_mps</text>
</svg>