<svg xmlns="http://www.w3.org/2000/svg" width="820" height="320" viewBox="0 0 820 320">
<rect width="100%" height="100%" fill="#ffffff"/>
<text x="54" y="28" font-family="Arial" font-size="18" font-weight="700">Velocity Z</text>
<line x1="54" y1="266" x2="766" y2="266" stroke="#1f2933"/>
<line x1="54" y1="54" x2="54" y2="266" stroke="#1f2933"/>
<text x="54" y="306" font-family="Arial" font-size="12">time (s)</text>
<text x="596" y="306" font-family="Arial" font-size="12">vz (m/s)</text>
<text x="58" y="68" font-family="Arial" font-size="11">40.1</text>
<text x="58" y="260" font-family="Arial" font-size="11">-44.5</text>
<polyline fill="none" stroke="#0f62fe" stroke-width="2.2" points="54.0,134.5 55.2,135.1 56.4,135.6 57.6,136.1 58.7,136.6 59.9,137.1 61.1,137.5 62.3,137.9 63.5,138.3 64.7,138.7 65.9,139.1 67.1,139.4 68.2,139.8 69.4,140.1 70.6,140.4 71.8,140.7 73.0,141.0 74.2,141.3 75.4,141.5 76.5,141.8 77.7,142.1 78.9,142.3 80.1,142.6 81.3,142.8 82.5,143.1 83.7,143.3 84.9,143.5 86.0,143.7 87.2,144.0 88.4,144.2 89.6,144.4 90.8,144.6 92.0,144.8 93.2,145.0 94.3,145.2 95.5,145.3 96.7,145.5 97.9,145.7 99.1,145.9 100.3,146.0 101.5,146.2 102.7,146.3 103.8,146.5 105.0,146.6 106.2,146.8 107.4,146.9 108.6,147.1 109.8,147.2 111.0,147.3 112.1,147.4 113.3,147.6 114.5,147.7 115.7,147.8 116.9,147.9 118.1,148.0 119.3,148.1 120.5,148.2 121.6,148.3 122.8,148.3 124.0,148.4 125.2,148.5 126.4,148.6 127.6,148.6 128.8,148.7 129.9,148.8 131.1,148.8 132.3,148.9 133.5,148.9 134.7,149.0 135.9,149.0 137.1,149.0 138.3,149.1 139.4,149.1 140.6,149.1 141.8,149.1 143.0,149.1 144.2,149.1 145.4,149.2 146.6,149.2 147.7,149.2 148.9,149.1 150.1,149.1 151.3,149.1 152.5,149.1 153.7,149.1 154.9,149.0 156.1,149.0 157.2,149.0 158.4,148.9 159.6,148.9 160.8,148.8 162.0,148.8 163.2,148.7 164.4,148.6 165.5,148.5 166.7,148.4 167.9,148.4 169.1,148.3 170.3,148.1 171.5,148.0 172.7,147.9 173.9,147.8 175.0,147.7 176.2,147.5 177.4,147.4 178.6,147.2 179.8,147.1 181.0,146.9 182.2,146.7 183.3,146.6 184.5,146.4 185.7,146.2 186.9,146.0 188.1,145.8 189.3,145.6 190.5,145.4 191.7,145.2 192.8,145.0 194.0,144.7 195.2,144.5 196.4,144.3 197.6,144.0 198.8,143.8 200.0,143.5 201.1,143.3 202.3,143.0 203.5,142.7 204.7,142.5 205.9,142.2 207.1,142.0 208.3,141.6 209.5,141.3 210.6,141.0 211.8,140.8 213.0,140.4 214.2,140.2 215.4,139.8 216.6,139.6 217.8,139.2 218.9,138.9 220.1,138.5 221.3,138.2 222.5,137.8 223.7,137.5 224.9,137.1 226.1,136.8 227.3,136.3 228.4,136.1 229.6,135.6 230.8,135.3 232.0,134.8 233.2,134.5 234.4,134.0 235.6,133.7 236.7,133.1 237.9,132.8 239.1,132.3 240.3,132.0 241.5,131.4 242.7,131.1 243.9,130.5 245.1,130.2 246.2,129.6 247.4,129.3 248.6,128.7 249.8,128.4 251.0,127.8 252.2,127.4 253.4,126.9 254.5,126.5 255.7,125.9 256.9,125.6 258.1,125.0 259.3,124.7 260.5,124.1 261.7,123.7 262.9,123.2 264.0,122.8 265.2,122.3 266.4,122.0 267.6,121.4 268.8,121.1 270.0,120.6 271.2,120.3 272.3,119.7 273.5,119.4 274.7,118.8 275.9,118.5 277.1,117.9 278.3,117.5 279.5,116.9 280.7,116.5 281.8,115.8 283.0,115.4 284.2,114.6 285.4,114.2 286.6,113.5 287.8,113.0 289.0,112.1 290.1,111.3 291.3,110.3 292.5,109.5 293.7,108.4 294.9,107.7 296.1,106.8 297.3,106.2 298.5,105.2 299.6,104.4 300.8,103.4 302.0,102.6 303.2,101.7 304.4,101.1 305.6,100.3 306.8,99.8 307.9,98.9 309.1,98.3 310.3,97.4 311.5,96.7 312.7,95.7 313.9,94.9 315.1,93.9 316.3,93.2 317.4,92.3 318.6,91.7 319.8,90.9 321.0,90.4 322.2,89.6 323.4,89.0 324.6,88.1 325.7,87.5 326.9,86.6 328.1,85.9 329.3,84.9 330.5,84.2 331.7,83.2 332.9,82.5 334.1,81.5 335.2,80.8 336.4,80.0 337.6,79.3 338.8,78.5 340.0,78.0 341.2,77.3 342.4,76.8 343.5,76.1 344.7,75.6 345.9,75.0 347.1,74.6 348.3,73.9 349.5,73.5 350.7,72.9 351.9,72.6 353.0,72.0 354.2,71.7 355.4,71.1 356.6,70.8 357.8,70.2 359.0,69.9 360.2,69.3 361.3,69.0 362.5,68.4 363.7,68.1 364.9,67.5 366.1,67.1 367.3,66.5 368.5,66.1 369.7,65.6 370.8,65.3 372.0,64.8 373.2,64.5 374.4,64.0 375.6,63.8 376.8,63.4 378.0,63.1 379.1,62.6 380.3,62.2 381.5,61.8 382.7,61.4 383.9,60.8 385.1,60.3 386.3,59.9 387.5,59.4 388.6,59.1 389.8,58.6 391.0,58.4 392.2,58.1 393.4,57.9 394.6,57.5 395.8,57.3 396.9,57.0 398.1,56.7 399.3,56.4 400.5,56.1 401.7,55.8 402.9,55.7 404.1,55.4 405.3,55.3 406.4,55.1 407.6,55.0 408.8,54.8 410.0,54.7 411.2,54.5 412.4,54.5 413.6,54.3 414.7,54.2 415.9,54.1 417.1,54.1 418.3,54.0 419.5,54.1 420.7,54.1 421.9,54.1 423.1,54.1 424.2,54.2 425.4,54.3 426.6,54.5 427.8,54.7 429.0,54.9 430.2,55.1 431.4,55.3 432.5,55.5 433.7,55.8 434.9,56.0 436.1,56.4 437.3,56.7 438.5,57.0 439.7,57.3 440.9,57.7 442.0,58.1 443.2,58.5 444.4,59.0 445.6,59.5 446.8,60.0 448.0,60.5 449.2,61.1 450.3,61.7 451.5,62.3 452.7,62.9 453.9,63.6 455.1,64.3 456.3,64.9 457.5,65.6 458.7,66.4 459.8,67.1 461.0,67.9 462.2,68.7 463.4,69.5 464.6,70.3 465.8,71.2 467.0,72.1 468.1,73.0 469.3,74.0 470.5,75.0 471.7,76.0 472.9,77.0 474.1,78.1 475.3,79.2 476.5,80.3 477.6,81.4 478.8,82.6 480.0,83.7 481.2,84.9 482.4,86.1 483.6,87.3 484.8,88.6 485.9,89.9 487.1,91.1 488.3,92.4 489.5,93.8 490.7,95.1 491.9,96.5 493.1,97.9 494.3,99.3 495.4,100.7 496.6,102.1 497.8,103.6 499.0,105.1 500.2,106.5 501.4,108.0 502.6,109.5 503.7,111.0 504.9,112.6 506.1,114.1 507.3,115.6 508.5,117.1 509.7,118.6 510.9,120.1 512.1,121.7 513.2,123.2 514.4,124.7 515.6,126.2 516.8,127.7 518.0,129.3 519.2,130.8 520.4,132.3 521.5,133.8 522.7,135.2 523.9,136.7 525.1,138.2 526.3,139.7 527.5,141.1 528.7,142.6 529.9,144.1 531.0,145.5 532.2,146.9 533.4,148.4 534.6,149.8 535.8,151.2 537.0,152.6 538.2,154.0 539.3,155.4 540.5,156.7 541.7,158.1 542.9,159.5 544.1,160.8 545.3,162.2 546.5,163.5 547.7,164.8 548.8,166.1 550.0,167.5 551.2,168.8 552.4,170.2 553.6,171.5 554.8,172.9 556.0,174.2 557.1,175.6 558.3,176.8 559.5,178.0 560.7,179.2 561.9,180.3 563.1,181.4 564.3,182.4 565.5,183.5 566.6,184.6 567.8,185.6 569.0,186.6 570.2,187.2 571.4,187.7 572.6,188.2 573.8,188.8 574.9,189.3 576.1,189.8 577.3,190.2 578.5,190.6 579.7,191.0 580.9,191.4 582.1,191.9 583.3,192.3 584.4,192.8 585.6,193.3 586.8,193.8 588.0,194.3 589.2,194.8 590.4,195.3 591.6,195.8 592.7,196.2 593.9,196.7 595.1,197.1 596.3,197.5 597.5,197.9 598.7,198.2 599.9,198.6 601.1,199.0 602.2,199.4 603.4,199.8 604.6,200.2 605.8,200.7 607.0,201.2 608.2,201.7 609.4,202.2 610.5,202.8 611.7,203.4 612.9,204.0 614.1,204.7 615.3,205.3 616.5,205.9 617.7,206.4 618.9,206.8 620.0,207.1 621.2,207.2 622.4,207.4 623.6,207.4 624.8,207.5 626.0,207.5 627.2,207.5 628.3,207.6 629.5,207.7 630.7,207.8 631.9,207.9 633.1,208.0 634.3,208.1 635.5,208.3 636.7,208.5 637.8,208.8 639.0,209.1 640.2,209.5 641.4,210.2 642.6,211.0 643.8,212.0 645.0,213.0 646.1,214.1 647.3,215.1 648.5,216.1 649.7,217.1 650.9,218.0 652.1,218.9 653.3,219.7 654.5,220.5 655.6,221.3 656.8,221.9 658.0,222.6 659.2,223.2 660.4,223.7 661.6,224.3 662.8,224.9 663.9,225.4 665.1,225.9 666.3,226.3 667.5,226.7 668.7,227.0 669.9,227.4 671.1,227.8 672.3,228.2 673.4,228.6 674.6,229.2 675.8,229.8 677.0,230.6 678.2,231.4 679.4,232.2 680.6,233.1 681.7,233.9 682.9,234.6 684.1,235.4 685.3,236.2 686.5,236.9 687.7,237.6 688.9,238.3 690.1,238.9 691.2,239.5 692.4,240.1 693.6,240.7 694.8,241.3 696.0,241.8 697.2,242.3 698.4,242.8 699.5,243.4 700.7,243.9 701.9,244.3 703.1,244.8 704.3,245.3 705.5,245.8 706.7,246.2 707.9,246.7 709.0,247.1 710.2,247.6 711.4,248.0 712.6,248.5 713.8,248.9 715.0,249.4 716.2,249.8 717.3,250.3 718.5,250.8 719.7,251.2 720.9,251.7 722.1,252.2 723.3,252.6 724.5,253.1 725.7,253.6 726.8,254.1 728.0,254.5 729.2,255.0 730.4,255.5 731.6,256.0 732.8,256.4 734.0,256.9 735.1,257.3 736.3,257.8 737.5,258.2 738.7,258.6 739.9,259.0 741.1,259.4 742.3,259.7 743.5,260.1 744.6,260.4 745.8,260.8 747.0,261.1 748.2,261.4 749.4,261.7 750.6,262.0 751.8,262.3 752.9,262.6 754.1,262.9 755.3,263.2 756.5,263.5 757.7,263.9 758.9,264.2 760.1,264.5 761.3,264.8 762.4,265.1 763.6,265.4 764.8,265.7 766.0,266.0"/>
<line x1="606" y1="42" x2="628" y2="42" stroke="#0f62fe" stroke-width="2.2"/>
<text x="634" y="46" font-family="Arial" font-size="12">vz_mps</text>
</svg>