<svg xmlns="http://www.w3.org/2000/svg" width="820" height="320" viewBox="0 0 820 320">
<rect width="100%" height="100%" fill="#ffffff"/>
<text x="54" y="28" font-family="Arial" font-size="18" font-weight="700">Euler Angles</text>
<line x1="54" y1="266" x2="766" y2="266" stroke="#1f2933"/>
<line x1="54" y1="54" x2="54" y2="266" stroke="#1f2933"/>
<text x="54" y="306" font-family="Arial" font-size="12">time (s)</text>
<text x="596" y="306" font-family="Arial" font-size="12">angle (deg)</text>
<text x="58" y="68" font-family="Arial" font-size="11">180</text>
<text x="58" y="260" font-family="Arial" font-size="11">-180</text>
<polyline fill="none" stroke="#0f62fe" stroke-width="2.2" points="54.0,160.1 55.2,160.1 56.4,160.1 57.6,160.1 58.7,160.0 59.9,160.0 61.1,160.0 62.3,160.0 63.5,160.0 64.7,160.0 65.9,160.0 67.1,160.0 68.2,160.0 69.4,160.0 70.6,160.0 71.8,160.0 73.0,160.0 74.2,160.0 75.4,160.0 76.5,160.0 77.7,160.0 78.9,160.0 80.1,160.0 81.3,160.0 82.5,160.0 83.7,160.0 84.9,160.0 86.0,160.0 87.2,160.0 88.4,160.0 89.6,160.0 90.8,160.0 92.0,160.0 93.2,160.0 94.3,160.0 95.5,160.0 96.7,160.0 97.9,160.0 99.1,160.0 100.3,160.0 101.5,160.0 102.7,160.0 103.8,160.0 105.0,160.0 106.2,160.0 107.4,160.0 108.6,160.0 109.8,160.0 111.0,160.0 112.1,160.0 113.3,160.0 114.5,160.0 115.7,160.0 116.9,160.0 118.1,160.0 119.3,160.0 120.5,160.0 121.6,160.0 122.8,160.0 124.0,160.0 125.2,160.0 126.4,160.0 127.6,160.0 128.8,160.0 129.9,160.0 131.1,160.0 132.3,159.9 133.5,159.9 134.7,159.9 135.9,159.9 137.1,159.9 138.3,159.9 139.4,159.9 140.6,159.9 141.8,159.9 143.0,159.9 144.2,159.9 145.4,159.9 146.6,159.9 147.7,159.9 148.9,159.9 150.1,159.9 151.3,159.9 152.5,159.9 153.7,159.9 154.9,159.9 156.1,159.9 157.2,159.9 158.4,159.9 159.6,159.9 160.8,159.9 162.0,159.8 163.2,159.8 164.4,159.8 165.5,159.8 166.7,159.8 167.9,159.8 169.1,159.8 170.3,159.8 171.5,159.8 172.7,159.8 173.9,159.8 175.0,159.8 176.2,159.8 177.4,159.7 178.6,159.7 179.8,159.7 181.0,159.7 182.2,159.7 183.3,159.7 184.5,159.7 185.7,159.7 186.9,159.6 188.1,159.6 189.3,159.6 190.5,159.6 191.7,159.6 192.8,159.5 194.0,159.5 195.2,159.5 196.4,159.5 197.6,159.5 198.8,159.4 200.0,159.4 201.1,159.4 202.3,159.3 203.5,159.3 204.7,159.3 205.9,159.3 207.1,159.2 208.3,159.2 209.5,159.1 210.6,159.1 211.8,159.0 213.0,159.0 214.2,159.0 215.4,158.9 216.6,158.8 217.8,158.8 218.9,158.7 220.1,158.7 221.3,158.6 222.5,158.5 223.7,158.4 224.9,158.4 226.1,158.3 227.3,158.2 228.4,158.1 229.6,158.0 230.8,157.9 232.0,157.7 233.2,157.6 234.4,157.5 235.6,157.3 236.7,157.2 237.9,157.0 239.1,156.9 240.3,156.7 241.5,156.5 242.7,156.3 243.9,156.1 245.1,155.8 246.2,155.6 247.4,155.3 248.6,155.1 249.8,154.8 251.0,154.5 252.2,154.1 253.4,153.8 254.5,153.5 255.7,153.2 256.9,152.9 258.1,152.6 259.3,152.3 260.5,152.0 261.7,151.7 262.9,151.4 264.0,151.1 265.2,150.8 266.4,150.5 267.6,150.2 268.8,149.9 270.0,149.6 271.2,149.3 272.3,149.0 273.5,148.8 274.7,148.5 275.9,148.2 277.1,148.0 278.3,147.7 279.5,147.5 280.7,147.2 281.8,147.0 283.0,146.7 284.2,146.5 285.4,146.2 286.6,146.0 287.8,145.8 289.0,145.5 290.1,145.3 291.3,145.1 292.5,144.8 293.7,144.6 294.9,144.4 296.1,144.2 297.3,144.0 298.5,143.8 299.6,143.6 300.8,143.4 302.0,143.2 303.2,143.0 304.4,142.7 305.6,142.5 306.8,142.3 307.9,142.1 309.1,141.8 310.3,141.6 311.5,141.4 312.7,141.1 313.9,140.9 315.1,140.7 316.3,140.5 317.4,140.3 318.6,140.0 319.8,139.8 321.0,139.6 322.2,139.4 323.4,139.2 324.6,139.0 325.7,138.8 326.9,138.6 328.1,138.3 329.3,138.1 330.5,137.9 331.7,137.6 332.9,137.4 334.1,137.2 335.2,136.9 336.4,136.7 337.6,136.5 338.8,136.3 340.0,136.1 341.2,135.9 342.4,135.6 343.5,135.4 344.7,135.2 345.9,135.0 347.1,134.8 348.3,134.6 349.5,134.4 350.7,134.2 351.9,133.9 353.0,133.7 354.2,133.5 355.4,133.3 356.6,133.0 357.8,132.8 359.0,132.6 360.2,132.4 361.3,132.1 362.5,131.9 363.7,131.7 364.9,131.5 366.1,131.3 367.3,131.1 368.5,130.9 369.7,130.7 370.8,130.4 372.0,130.2 373.2,130.0 374.4,129.8 375.6,129.5 376.8,129.3 378.0,129.1 379.1,128.9 380.3,128.6 381.5,128.4 382.7,128.2 383.9,128.0 385.1,127.8 386.3,127.5 387.5,127.3 388.6,127.1 389.8,126.9 391.0,126.7 392.2,126.5 393.4,126.2 394.6,126.0 395.8,125.8 396.9,125.6 398.1,125.4 399.3,125.1 400.5,124.9 401.7,124.7 402.9,124.5 404.1,124.3 405.3,124.0 406.4,123.8 407.6,123.6 408.8,123.4 410.0,123.2 411.2,123.0 412.4,122.7 413.6,122.5 414.7,122.3 415.9,122.1 417.1,121.9 418.3,121.7 419.5,121.4 420.7,121.2 421.9,121.0 423.1,120.8 424.2,120.6 425.4,120.4 426.6,120.2 427.8,119.9 429.0,119.7 430.2,119.5 431.4,119.3 432.5,119.1 433.7,118.9 434.9,118.7 436.1,118.5 437.3,118.2 438.5,118.0 439.7,117.8 440.9,117.6 442.0,117.4 443.2,117.2 444.4,117.0 445.6,116.8 446.8,116.6 448.0,116.4 449.2,116.1 450.3,115.9 451.5,115.7 452.7,115.5 453.9,115.3 455.1,115.1 456.3,114.9 457.5,114.7 458.7,114.5 459.8,114.3 461.0,114.1 462.2,113.9 463.4,113.7 464.6,113.5 465.8,113.3 467.0,113.1 468.1,113.0 469.3,112.8 470.5,112.6 471.7,112.4 472.9,112.2 474.1,112.0 475.3,111.9 476.5,111.7 477.6,111.5 478.8,111.3 480.0,111.1 481.2,110.9 482.4,110.8 483.6,110.6 484.8,110.4 485.9,110.3 487.1,110.1 488.3,109.9 489.5,109.8 490.7,109.7 491.9,109.5 493.1,109.4 494.3,109.3 495.4,109.2 496.6,109.1 497.8,109.0 499.0,108.9 500.2,108.8 501.4,108.7 502.6,108.7 503.7,108.6 504.9,108.6 506.1,108.5 507.3,108.5 508.5,108.5 509.7,108.5 510.9,108.5 512.1,108.5 513.2,108.6 514.4,108.6 515.6,108.7 516.8,108.7 518.0,108.8 519.2,108.8 520.4,108.9 521.5,109.0 522.7,109.1 523.9,109.2 525.1,109.3 526.3,109.4 527.5,109.6 528.7,109.7 529.9,109.8 531.0,110.0 532.2,110.1 533.4,110.3 534.6,110.5 535.8,110.6 537.0,110.8 538.2,111.0 539.3,111.2 540.5,111.4 541.7,111.6 542.9,111.9 544.1,112.1 545.3,112.3 546.5,112.6 547.7,112.8 548.8,113.1 550.0,113.4 551.2,113.6 552.4,113.9 553.6,114.1 554.8,114.2 556.0,114.1 557.1,113.9 558.3,113.4 559.5,112.9 560.7,112.4 561.9,111.8 563.1,111.3 564.3,110.8 565.5,110.3 566.6,109.7 567.8,109.2 569.0,108.7 570.2,108.1 571.4,107.6 572.6,107.0 573.8,106.4 574.9,105.9 576.1,105.3 577.3,104.8 578.5,104.3 579.7,103.9 580.9,103.6 582.1,103.5 583.3,103.4 584.4,103.4 585.6,103.4 586.8,103.4 588.0,103.4 589.2,103.5 590.4,103.7 591.6,103.9 592.7,104.2 593.9,104.5 595.1,105.0 596.3,105.6 597.5,106.4 598.7,107.5 599.9,109.0 601.1,111.2 602.2,114.7 603.4,120.8 604.6,132.1 605.8,151.4 607.0,170.6 608.2,181.9 609.4,188.6 610.5,193.3 611.7,197.2 612.9,200.5 614.1,203.4 615.3,205.8 616.5,207.9 617.7,209.7 618.9,211.1 620.0,212.2 621.2,212.8 622.4,213.1 623.6,213.2 624.8,213.3 626.0,213.5 627.2,213.8 628.3,214.2 629.5,214.9 630.7,215.7 631.9,216.7 633.1,217.8 634.3,218.9 635.5,220.0 636.7,220.9 637.8,221.5 639.0,221.8 640.2,221.6 641.4,220.9 642.6,219.8 643.8,218.5 645.0,217.1 646.1,215.7 647.3,214.4 648.5,213.3 649.7,212.1 650.9,211.0 652.1,209.9 653.3,209.1 654.5,208.7 655.6,208.7 656.8,209.2 658.0,210.1 659.2,211.3 660.4,212.7 661.6,214.1 662.8,215.6 663.9,216.9 665.1,218.2 666.3,219.4 667.5,220.6 668.7,221.7 669.9,222.7 671.1,223.6 672.3,224.3 673.4,224.8 674.6,225.0 675.8,224.9 677.0,224.8 678.2,224.5 679.4,224.3 680.6,224.0 681.7,223.8 682.9,223.6 684.1,223.5 685.3,223.4 686.5,223.4 687.7,223.4 688.9,223.3 690.1,223.3 691.2,223.2 692.4,223.2 693.6,223.2 694.8,223.2 696.0,223.2 697.2,223.2 698.4,223.3 699.5,223.3 700.7,223.3 701.9,223.2 703.1,223.2 704.3,223.2 705.5,223.2 706.7,223.1 707.9,223.1 709.0,223.0 710.2,222.9 711.4,222.8 712.6,222.7 713.8,222.5 715.0,222.3 716.2,222.1 717.3,221.8 718.5,221.4 719.7,220.9 720.9,220.2 722.1,219.4 723.3,218.4 724.5,217.0 725.7,215.1 726.8,212.4 728.0,208.4 729.2,202.3 730.4,193.0 731.6,180.3 732.8,166.9 734.0,156.3 735.1,149.1 736.3,144.2 737.5,140.9 738.7,138.2 739.9,136.0 741.1,134.1 742.3,132.4 743.5,130.9 744.6,129.7 745.8,128.7 747.0,127.9 748.2,127.4 749.4,127.0 750.6,126.7 751.8,126.5 752.9,126.4 754.1,126.3 755.3,126.3 756.5,126.2 757.7,126.2 758.9,126.2 760.1,126.2 761.3,126.2 762.4,126.2 763.6,126.1 764.8,126.0 766.0,125.9"/>
<line x1="606" y1="42" x2="628" y2="42" stroke="#0f62fe" stroke-width="2.2"/>
<text x="634" y="46" font-family="Arial" font-size="12">roll_deg</text>
<polyline fill="none" stroke="#24a148" stroke-width="2.2" points="54.0,156.5 55.2,156.4 56.4,156.2 57.6,156.1 58.7,156.0 59.9,156.0 61.1,155.9 62.3,155.8 63.5,155.8 64.7,155.8 65.9,155.8 67.1,155.7 68.2,155.7 69.4,155.7 70.6,155.7 71.8,155.7 73.0,155.7 74.2,155.8 75.4,155.8 76.5,155.8 77.7,155.8 78.9,155.8 80.1,155.8 81.3,155.8 82.5,155.9 83.7,155.9 84.9,155.9 86.0,155.9 87.2,155.9 88.4,156.0 89.6,156.0 90.8,156.0 92.0,156.0 93.2,156.1 94.3,156.1 95.5,156.1 96.7,156.1 97.9,156.1 99.1,156.2 100.3,156.2 101.5,156.2 102.7,156.2 103.8,156.3 105.0,156.3 106.2,156.3 107.4,156.3 108.6,156.3 109.8,156.3 111.0,156.4 112.1,156.4 113.3,156.4 114.5,156.4 115.7,156.4 116.9,156.4 118.1,156.5 119.3,156.5 120.5,156.5 121.6,156.5 122.8,156.5 124.0,156.5 125.2,156.5 126.4,156.6 127.6,156.6 128.8,156.6 129.9,156.6 131.1,156.6 132.3,156.6 133.5,156.6 134.7,156.6 135.9,156.7 137.1,156.7 138.3,156.7 139.4,156.7 140.6,156.7 141.8,156.7 143.0,156.7 144.2,156.7 145.4,156.7 146.6,156.7 147.7,156.7 148.9,156.7 150.1,156.8 151.3,156.8 152.5,156.8 153.7,156.8 154.9,156.8 156.1,156.8 157.2,156.8 158.4,156.8 159.6,156.8 160.8,156.7 162.0,156.7 163.2,156.7 164.4,156.7 165.5,156.7 166.7,156.7 167.9,156.7 169.1,156.7 170.3,156.7 171.5,156.7 172.7,156.7 173.9,156.7 175.0,156.7 176.2,156.6 177.4,156.6 178.6,156.6 179.8,156.6 181.0,156.6 182.2,156.6 183.3,156.6 184.5,156.6 185.7,156.5 186.9,156.5 188.1,156.5 189.3,156.5 190.5,156.5 191.7,156.5 192.8,156.5 194.0,156.5 195.2,156.4 196.4,156.4 197.6,156.4 198.8,156.4 200.0,156.4 201.1,156.4 202.3,156.3 203.5,156.4 204.7,156.3 205.9,156.4 207.1,156.1 208.3,156.4 209.5,156.2 210.6,156.4 211.8,156.2 213.0,156.4 214.2,156.1 215.4,156.3 216.6,156.0 217.8,156.2 218.9,156.0 220.1,156.2 221.3,156.0 222.5,156.2 223.7,156.0 224.9,156.2 226.1,155.9 227.3,156.1 228.4,155.8 229.6,156.1 230.8,155.8 232.0,156.0 233.2,155.8 234.4,156.0 235.6,155.7 236.7,156.0 237.9,155.7 239.1,155.9 240.3,155.7 241.5,155.9 242.7,155.7 243.9,155.9 245.1,155.6 246.2,155.9 247.4,155.6 248.6,155.9 249.8,155.6 251.0,155.9 252.2,155.7 253.4,156.0 254.5,155.7 255.7,156.0 256.9,155.8 258.1,156.1 259.3,155.9 260.5,156.2 261.7,156.0 262.9,156.3 264.0,156.1 265.2,156.5 266.4,156.3 267.6,156.7 268.8,156.5 270.0,156.8 271.2,156.6 272.3,157.0 273.5,156.8 274.7,157.1 275.9,156.9 277.1,157.2 278.3,157.1 279.5,157.4 280.7,157.1 281.8,157.4 283.0,157.2 284.2,157.5 285.4,157.4 286.6,157.5 287.8,157.2 289.0,157.3 290.1,157.0 291.3,157.2 292.5,157.1 293.7,157.4 294.9,157.3 296.1,157.5 297.3,157.2 298.5,157.3 299.6,157.0 300.8,157.3 302.0,157.1 303.2,157.4 304.4,157.2 305.6,157.4 306.8,157.2 307.9,157.3 309.1,157.0 310.3,157.2 311.5,157.0 312.7,157.2 313.9,157.1 315.1,157.4 316.3,157.3 317.4,157.6 318.6,157.5 319.8,157.7 321.0,157.4 322.2,157.6 323.4,157.2 324.6,157.4 325.7,157.1 326.9,157.2 328.1,156.9 329.3,157.1 330.5,156.9 331.7,157.1 332.9,157.0 334.1,157.3 335.2,157.2 336.4,157.5 337.6,157.4 338.8,157.7 340.0,157.5 341.2,157.8 342.4,157.6 343.5,157.8 344.7,157.6 345.9,157.8 347.1,157.5 348.3,157.7 349.5,157.5 350.7,157.8 351.9,157.6 353.0,157.9 354.2,157.7 355.4,158.0 356.6,157.8 357.8,158.1 359.0,157.9 360.2,158.2 361.3,158.0 362.5,158.2 363.7,158.0 364.9,158.2 366.1,158.0 367.3,158.1 368.5,157.9 369.7,158.1 370.8,157.9 372.0,158.1 373.2,158.0 374.4,158.2 375.6,158.1 376.8,158.2 378.0,158.0 379.1,158.2 380.3,158.2 381.5,158.3 382.7,158.1 383.9,158.2 385.1,158.3 386.3,158.1 387.5,158.3 388.6,158.2 389.8,158.4 391.0,158.3 392.2,158.4 393.4,158.3 394.6,158.4 395.8,158.2 396.9,158.4 398.1,158.3 399.3,158.5 400.5,158.4 401.7,158.7 402.9,158.6 404.1,158.8 405.3,158.7 406.4,158.9 407.6,158.8 408.8,158.9 410.0,158.8 411.2,158.9 412.4,158.7 413.6,158.8 414.7,158.7 415.9,158.9 417.1,158.8 418.3,159.0 419.5,159.0 420.7,159.1 421.9,159.1 423.1,159.3 424.2,159.2 425.4,159.4 426.6,159.4 427.8,159.5 429.0,159.5 430.2,159.6 431.4,159.5 432.5,159.6 433.7,159.5 434.9,159.6 436.1,159.6 437.3,159.7 438.5,159.7 439.7,159.8 440.9,159.8 442.0,159.9 443.2,159.9 444.4,160.1 445.6,160.1 446.8,160.3 448.0,160.3 449.2,160.4 450.3,160.4 451.5,160.5 452.7,160.5 453.9,160.6 455.1,160.6 456.3,160.7 457.5,160.7 458.7,160.8 459.8,160.9 461.0,161.0 462.2,161.1 463.4,161.2 464.6,161.3 465.8,161.4 467.0,161.5 468.1,161.6 469.3,161.7 470.5,161.9 471.7,162.0 472.9,162.1 474.1,162.2 475.3,162.3 476.5,162.4 477.6,162.5 478.8,162.6 480.0,162.7 481.2,162.8 482.4,162.9 483.6,163.0 484.8,163.2 485.9,163.3 487.1,163.4 488.3,163.6 489.5,163.7 490.7,163.9 491.9,164.1 493.1,164.2 494.3,164.4 495.4,164.6 496.6,164.8 497.8,164.9 499.0,165.1 500.2,165.3 501.4,165.4 502.6,165.6 503.7,165.8 504.9,166.0 506.1,166.2 507.3,166.4 508.5,166.6 509.7,166.8 510.9,167.0 512.1,167.3 513.2,167.5 514.4,167.8 515.6,168.0 516.8,168.2 518.0,168.5 519.2,168.7 520.4,168.9 521.5,169.2 522.7,169.4 523.9,169.6 525.1,169.9 526.3,170.1 527.5,170.3 528.7,170.6 529.9,170.8 531.0,171.1 532.2,171.3 533.4,171.5 534.6,171.8 535.8,172.0 537.0,172.2 538.2,172.5 539.3,172.7 540.5,173.0 541.7,173.2 542.9,173.5 544.1,173.7 545.3,173.9 546.5,174.2 547.7,174.4 548.8,174.7 550.0,174.9 551.2,175.0 552.4,175.1 553.6,175.0 554.8,174.7 556.0,174.4 557.1,173.9 558.3,173.4 559.5,172.8 560.7,172.3 561.9,171.8 563.1,171.3 564.3,170.9 565.5,170.4 566.6,170.0 567.8,169.6 569.0,169.2 570.2,168.7 571.4,168.3 572.6,167.9 573.8,167.5 574.9,167.1 576.1,166.9 577.3,166.9 578.5,167.1 579.7,167.6 580.9,168.4 582.1,169.4 583.3,170.5 584.4,171.8 585.6,173.2 586.8,174.6 588.0,176.1 589.2,177.7 590.4,179.3 591.6,180.9 592.7,182.6 593.9,184.4 595.1,186.3 596.3,188.4 597.5,190.6 598.7,193.0 599.9,195.5 601.1,198.2 602.2,201.0 603.4,203.8 604.6,206.1 605.8,207.0 607.0,205.7 608.2,202.7 609.4,199.0 610.5,195.1 611.7,191.0 612.9,186.8 614.1,182.3 615.3,177.7 616.5,173.1 617.7,168.4 618.9,163.9 620.0,159.7 621.2,155.9 622.4,152.5 623.6,149.8 624.8,147.6 626.0,146.0 627.2,144.9 628.3,144.4 629.5,144.5 630.7,145.2 631.9,146.5 633.1,148.2 634.3,150.5 635.5,153.2 636.7,156.2 637.8,159.6 639.0,163.1 640.2,166.8 641.4,170.3 642.6,173.5 643.8,176.2 645.0,178.3 646.1,179.9 647.3,181.0 648.5,181.6 649.7,181.7 650.9,181.4 652.1,180.7 653.3,179.7 654.5,178.4 655.6,176.9 656.8,175.3 658.0,173.7 659.2,172.0 660.4,170.3 661.6,168.6 662.8,167.0 663.9,165.6 665.1,164.4 666.3,163.6 667.5,163.0 668.7,162.8 669.9,163.0 671.1,163.4 672.3,164.2 673.4,165.2 674.6,166.5 675.8,167.8 677.0,168.9 678.2,169.9 679.4,170.7 680.6,171.3 681.7,171.8 682.9,172.2 684.1,172.6 685.3,172.9 686.5,173.1 687.7,173.3 688.9,173.4 690.1,173.5 691.2,173.6 692.4,173.7 693.6,173.7 694.8,173.7 696.0,173.8 697.2,173.9 698.4,174.1 699.5,174.3 700.7,174.6 701.9,175.0 703.1,175.5 704.3,176.1 705.5,176.7 706.7,177.4 707.9,178.2 709.0,179.2 710.2,180.2 711.4,181.3 712.6,182.5 713.8,183.8 715.0,185.1 716.2,186.6 717.3,188.2 718.5,189.8 719.7,191.5 720.9,193.3 722.1,195.1 723.3,196.9 724.5,198.8 725.7,200.7 726.8,202.6 728.0,204.3 729.2,205.9 730.4,207.2 731.6,207.7 732.8,207.4 734.0,206.3 735.1,204.8 736.3,203.0 737.5,201.1 738.7,199.2 739.9,197.4 741.1,195.7 742.3,194.2 743.5,192.7 744.6,191.3 745.8,190.0 747.0,188.9 748.2,187.8 749.4,186.8 750.6,185.9 751.8,185.1 752.9,184.3 754.1,183.6 755.3,182.9 756.5,182.3 757.7,181.7 758.9,181.1 760.1,180.6 761.3,180.1 762.4,179.6 763.6,179.1 764.8,178.7 766.0,178.2"/>
<line x1="606" y1="60" x2="628" y2="60" stroke="#24a148" stroke-width="2.2"/>
<text x="634" y="64" font-family="Arial" font-size="12">pitch_deg</text>
<polyline fill="none" stroke="#da1e28" stroke-width="2.2" points="54.0,160.1 55.2,160.1 56.4,160.1 57.6,160.1 58.7,160.1 59.9,160.1 61.1,160.1 62.3,160.1 63.5,160.1 64.7,160.1 65.9,160.1 67.1,160.1 68.2,160.1 69.4,160.1 70.6,160.1 71.8,160.1 73.0,160.1 74.2,160.1 75.4,160.1 76.5,160.1 77.7,160.1 78.9,160.1 80.1,160.1 81.3,160.1 82.5,160.1 83.7,160.1 84.9,160.1 86.0,160.1 87.2,160.1 88.4,160.1 89.6,160.1 90.8,160.1 92.0,160.1 93.2,160.1 94.3,160.1 95.5,160.1 96.7,160.1 97.9,160.1 99.1,160.1 100.3,160.1 101.5,160.1 102.7,160.1 103.8,160.1 105.0,160.1 106.2,160.1 107.4,160.1 108.6,160.1 109.8,160.1 111.0,160.1 112.1,160.1 113.3,160.1 114.5,160.2 115.7,160.2 116.9,160.2 118.1,160.2 119.3,160.2 120.5,160.2 121.6,160.2 122.8,160.2 124.0,160.2 125.2,160.2 126.4,160.2 127.6,160.2 128.8,160.2 129.9,160.2 131.1,160.2 132.3,160.2 133.5,160.2 134.7,160.2 135.9,160.2 137.1,160.2 138.3,160.2 139.4,160.2 140.6,160.2 141.8,160.2 143.0,160.2 144.2,160.2 145.4,160.2 146.6,160.2 147.7,160.2 148.9,160.2 150.1,160.2 151.3,160.2 152.5,160.2 153.7,160.3 154.9,160.3 156.1,160.3 157.2,160.3 158.4,160.3 159.6,160.3 160.8,160.3 162.0,160.3 163.2,160.3 164.4,160.3 165.5,160.3 166.7,160.3 167.9,160.3 169.1,160.3 170.3,160.3 171.5,160.3 172.7,160.3 173.9,160.4 175.0,160.4 176.2,160.4 177.4,160.4 178.6,160.4 179.8,160.4 181.0,160.4 182.2,160.4 183.3,160.4 184.5,160.4 185.7,160.5 186.9,160.5 188.1,160.5 189.3,160.5 190.5,160.5 191.7,160.5 192.8,160.5 194.0,160.6 195.2,160.6 196.4,160.6 197.6,160.6 198.8,160.6 200.0,160.7 201.1,160.7 202.3,160.7 203.5,160.7 204.7,160.7 205.9,160.8 207.1,160.8 208.3,160.8 209.5,160.8 210.6,160.9 211.8,160.9 213.0,160.9 214.2,161.0 215.4,161.0 216.6,161.1 217.8,161.1 218.9,161.1 220.1,161.2 221.3,161.2 222.5,161.3 223.7,161.3 224.9,161.4 226.1,161.4 227.3,161.5 228.4,161.6 229.6,161.6 230.8,161.7 232.0,161.7 233.2,161.8 234.4,161.9 235.6,162.0 236.7,162.1 237.9,162.2 239.1,162.3 240.3,162.4 241.5,162.5 242.7,162.6 243.9,162.7 245.1,162.9 246.2,163.0 247.4,163.1 248.6,163.2 249.8,163.4 251.0,163.6 252.2,163.8 253.4,163.9 254.5,164.2 255.7,164.3 256.9,164.6 258.1,164.7 259.3,165.0 260.5,165.2 261.7,165.6 262.9,165.8 264.0,166.1 265.2,166.3 266.4,166.7 267.6,167.0 268.8,167.4 270.0,167.7 271.2,168.2 272.3,168.4 273.5,168.9 274.7,169.1 275.9,169.6 277.1,169.8 278.3,170.2 279.5,170.4 280.7,170.9 281.8,171.1 283.0,171.5 284.2,171.7 285.4,172.0 286.6,172.3 287.8,172.7 289.0,173.0 290.1,173.4 291.3,173.6 292.5,173.9 293.7,173.9 294.9,174.2 296.1,174.2 297.3,174.4 298.5,174.4 299.6,174.5 300.8,174.3 302.0,174.4 303.2,174.2 304.4,174.3 305.6,174.3 306.8,174.5 307.9,174.6 309.1,175.0 310.3,175.1 311.5,175.5 312.7,175.7 313.9,176.1 315.1,176.1 316.3,176.4 317.4,176.4 318.6,176.6 319.8,176.6 321.0,176.8 322.2,176.7 323.4,177.0 324.6,176.8 325.7,177.1 326.9,177.0 328.1,177.3 329.3,177.3 330.5,177.7 331.7,177.7 332.9,178.1 334.1,178.1 335.2,178.5 336.4,178.5 337.6,178.9 338.8,178.9 340.0,179.2 341.2,179.2 342.4,179.5 343.5,179.3 344.7,179.6 345.9,179.4 347.1,179.7 348.3,179.5 349.5,179.8 350.7,179.7 351.9,180.0 353.0,179.9 354.2,180.3 355.4,180.4 356.6,180.8 357.8,180.9 359.0,181.4 360.2,181.4 361.3,181.8 362.5,181.8 363.7,182.2 364.9,182.2 366.1,182.5 367.3,182.3 368.5,182.6 369.7,182.5 370.8,182.8 372.0,182.7 373.2,183.0 374.4,182.9 375.6,183.3 376.8,183.5 378.0,184.1 379.1,184.2 380.3,184.6 381.5,184.8 382.7,185.4 383.9,185.5 385.1,185.6 386.3,186.0 387.5,185.8 388.6,186.1 389.8,185.9 391.0,186.2 392.2,186.2 393.4,186.6 394.6,186.6 395.8,187.1 396.9,187.1 398.1,187.7 399.3,187.7 400.5,188.2 401.7,188.2 402.9,188.6 404.1,188.6 405.3,189.2 406.4,189.1 407.6,189.6 408.8,189.6 410.0,190.1 411.2,190.0 412.4,190.5 413.6,190.5 414.7,190.9 415.9,190.8 417.1,191.2 418.3,191.1 419.5,191.6 420.7,191.8 421.9,192.4 423.1,192.5 424.2,193.0 425.4,193.1 426.6,193.6 427.8,193.7 429.0,194.2 430.2,194.2 431.4,194.8 432.5,194.8 433.7,195.2 434.9,195.2 436.1,195.6 437.3,195.7 438.5,196.2 439.7,196.2 440.9,196.8 442.0,197.0 443.2,197.6 444.4,197.7 445.6,198.4 446.8,198.6 448.0,199.2 449.2,199.3 450.3,199.9 451.5,200.0 452.7,200.5 453.9,200.7 455.1,201.1 456.3,201.3 457.5,201.7 458.7,201.9 459.8,202.3 461.0,202.6 462.2,203.0 463.4,203.4 464.6,203.8 465.8,204.2 467.0,204.7 468.1,205.1 469.3,205.6 470.5,206.0 471.7,206.5 472.9,206.9 474.1,207.3 475.3,207.7 476.5,208.0 477.6,208.4 478.8,208.8 480.0,209.1 481.2,209.5 482.4,209.9 483.6,210.3 484.8,210.7 485.9,211.2 487.1,211.7 488.3,212.3 489.5,212.9 490.7,213.5 491.9,214.2 493.1,214.9 494.3,215.6 495.4,216.4 496.6,217.2 497.8,218.0 499.0,218.8 500.2,219.6 501.4,220.5 502.6,221.4 503.7,222.3 504.9,223.2 506.1,224.2 507.3,225.2 508.5,226.3 509.7,227.5 510.9,228.6 512.1,229.8 513.2,230.9 514.4,232.0 515.6,233.2 516.8,234.3 518.0,235.5 519.2,236.6 520.4,237.8 521.5,238.9 522.7,240.1 523.9,241.3 525.1,242.5 526.3,243.6 527.5,244.8 528.7,246.0 529.9,247.2 531.0,248.4 532.2,249.6 533.4,250.9 534.6,252.1 535.8,253.3 537.0,254.5 538.2,255.8 539.3,257.0 540.5,258.3 541.7,259.6 542.9,260.8 544.1,262.1 545.3,263.4 546.5,264.7 547.7,266.0 548.8,55.1 550.0,56.4 551.2,57.7 552.4,59.0 553.6,60.3 554.8,61.3 556.0,61.8 557.1,61.9 558.3,61.7 559.5,61.2 560.7,60.5 561.9,59.9 563.1,59.3 564.3,58.8 565.5,58.2 566.6,57.6 567.8,57.0 569.0,56.3 570.2,55.6 571.4,54.8 572.6,54.0 573.8,265.3 574.9,264.4 576.1,263.6 577.3,262.8 578.5,262.4 579.7,262.5 580.9,263.1 582.1,264.2 583.3,265.4 584.4,54.5 585.6,55.6 586.8,56.8 588.0,57.9 589.2,59.0 590.4,60.2 591.6,61.4 592.7,62.7 593.9,64.0 595.1,65.5 596.3,67.0 597.5,68.7 598.7,70.7 599.9,73.2 601.1,76.3 602.2,80.7 603.4,87.6 604.6,99.9 605.8,119.9 607.0,139.8 608.2,151.8 609.4,159.0 610.5,164.4 611.7,169.0 612.9,173.1 614.1,177.0 615.3,180.8 616.5,184.6 617.7,188.5 618.9,192.6 620.0,197.0 621.2,201.9 622.4,206.9 623.6,211.5 624.8,215.5 626.0,219.1 627.2,222.0 628.3,224.4 629.5,226.1 630.7,227.2 631.9,227.7 633.1,227.7 634.3,227.3 635.5,226.4 636.7,225.0 637.8,223.2 639.0,220.9 640.2,218.0 641.4,214.6 642.6,211.3 643.8,208.3 645.0,205.7 646.1,203.6 647.3,201.9 648.5,200.5 649.7,199.3 650.9,198.1 652.1,196.8 653.3,195.9 654.5,195.4 655.6,195.6 656.8,196.5 658.0,197.9 659.2,199.9 660.4,202.3 661.6,205.0 662.8,207.5 663.9,209.8 665.1,211.5 666.3,212.7 667.5,213.3 668.7,213.4 669.9,213.0 671.1,212.0 672.3,210.6 673.4,208.6 674.6,206.2 675.8,203.8 677.0,201.7 678.2,199.9 679.4,198.4 680.6,197.1 681.7,195.9 682.9,194.8 684.1,193.7 685.3,192.5 686.5,191.3 687.7,190.1 688.9,188.8 690.1,187.6 691.2,186.4 692.4,185.2 693.6,184.0 694.8,182.9 696.0,181.9 697.2,180.8 698.4,179.7 699.5,178.6 700.7,177.4 701.9,176.2 703.1,175.0 704.3,173.9 705.5,172.7 706.7,171.6 707.9,170.5 709.0,169.4 710.2,168.4 711.4,167.3 712.6,166.2 713.8,165.2 715.0,164.1 716.2,163.0 717.3,161.8 718.5,160.6 719.7,159.4 720.9,158.0 722.1,156.5 723.3,154.7 724.5,152.6 725.7,150.0 726.8,146.6 728.0,141.9 729.2,135.2 730.4,125.3 731.6,112.0 732.8,98.1 734.0,87.1 735.1,79.6 736.3,74.7 737.5,71.3 738.7,68.8 739.9,66.7 741.1,64.9 742.3,63.4 743.5,62.2 744.6,61.3 745.8,60.6 747.0,60.1 748.2,59.8 749.4,59.7 750.6,59.7 751.8,59.9 752.9,60.3 754.1,60.7 755.3,61.2 756.5,61.8 757.7,62.4 758.9,63.0 760.1,63.7 761.3,64.4 762.4,65.0 763.6,65.6 764.8,66.2 766.0,66.7"/>
<line x1="606" y1="78" x2="628" y2="78" stroke="#da1e28" stroke-width="2.2"/>
<text x="634" y="82" font-family="Arial" font-size="12">yaw_deg</text>
</svg>