<svg xmlns="http://www.w3.org/2000/svg" width="820" height="320" viewBox="0 0 820 320">
<rect width="100%" height="100%" fill="#ffffff"/>
<text x="54" y="28" font-family="Arial" font-size="18" font-weight="700">Body Rates</text>
<line x1="54" y1="266" x2="766" y2="266" stroke="#1f2933"/>
<line x1="54" y1="54" x2="54" y2="266" stroke="#1f2933"/>
<text x="54" y="306" font-family="Arial" font-size="12">time (s)</text>
<text x="596" y="306" font-family="Arial" font-size="12">rate (deg/s)</text>
<text x="58" y="68" font-family="Arial" font-size="11">278</text>
<text x="58" y="260" font-family="Arial" font-size="11">-296</text>
<polyline fill="none" stroke="#0f62fe" stroke-width="2.2" points="54.0,156.5 55.2,156.5 56.4,156.5 57.6,156.5 58.7,156.5 59.9,156.5 61.1,156.5 62.3,156.5 63.5,156.5 64.7,156.5 65.9,156.5 67.1,156.5 68.2,156.5 69.4,156.5 70.6,156.5 71.8,156.5 73.0,156.5 74.2,156.5 75.4,156.5 76.5,156.5 77.7,156.5 78.9,156.5 80.1,156.5 81.3,156.5 82.5,156.5 83.7,156.5 84.9,156.5 86.0,156.5 87.2,156.5 88.4,156.5 89.6,156.5 90.8,156.5 92.0,156.5 93.2,156.5 94.3,156.5 95.5,156.5 96.7,156.5 97.9,156.5 99.1,156.5 100.3,156.5 101.5,156.5 102.7,156.5 103.8,156.5 105.0,156.5 106.2,156.5 107.4,156.5 108.6,156.5 109.8,156.5 111.0,156.5 112.1,156.5 113.3,156.5 114.5,156.5 115.7,156.5 116.9,156.5 118.1,156.5 119.3,156.5 120.5,156.5 121.6,156.5 122.8,156.5 124.0,156.5 125.2,156.5 126.4,156.5 127.6,156.5 128.8,156.5 129.9,156.5 131.1,156.5 132.3,156.5 133.5,156.5 134.7,156.5 135.9,156.5 137.1,156.5 138.3,156.5 139.4,156.5 140.6,156.5 141.8,156.5 143.0,156.5 144.2,156.5 145.4,156.5 146.6,156.5 147.7,156.5 148.9,156.5 150.1,156.5 151.3,156.5 152.5,156.4 153.7,156.4 154.9,156.4 156.1,156.4 157.2,156.4 158.4,156.4 159.6,156.4 160.8,156.4 162.0,156.4 163.2,156.4 164.4,156.4 165.5,156.4 166.7,156.4 167.9,156.4 169.1,156.4 170.3,156.4 171.5,156.4 172.7,156.4 173.9,156.4 175.0,156.3 176.2,156.3 177.4,156.3 178.6,156.3 179.8,156.3 181.0,156.3 182.2,156.3 183.3,156.3 184.5,156.3 185.7,156.2 186.9,156.2 188.1,156.2 189.3,156.2 190.5,156.2 191.7,156.2 192.8,156.2 194.0,156.1 195.2,156.1 196.4,156.1 197.6,156.1 198.8,156.0 200.0,156.0 201.1,156.0 202.3,156.0 203.5,155.9 204.7,155.9 205.9,155.9 207.1,155.8 208.3,155.8 209.5,155.8 210.6,155.7 211.8,155.7 213.0,155.6 214.2,155.6 215.4,155.5 216.6,155.5 217.8,155.4 218.9,155.3 220.1,155.3 221.3,155.2 222.5,155.1 223.7,155.0 224.9,154.9 226.1,154.8 227.3,154.7 228.4,154.6 229.6,154.5 230.8,154.4 232.0,154.3 233.2,154.1 234.4,154.0 235.6,153.8 236.7,153.6 237.9,153.5 239.1,153.2 240.3,153.1 241.5,152.8 242.7,152.6 243.9,152.3 245.1,152.1 246.2,151.7 247.4,151.5 248.6,151.1 249.8,150.8 251.0,150.3 252.2,150.4 253.4,150.6 254.5,150.6 255.7,150.5 256.9,150.6 258.1,150.7 259.3,150.7 260.5,150.8 261.7,150.8 262.9,150.9 264.0,150.9 265.2,151.0 266.4,151.1 267.6,151.1 268.8,151.2 270.0,151.3 271.2,151.4 272.3,151.4 273.5,151.5 274.7,151.5 275.9,151.6 277.1,151.7 278.3,151.8 279.5,151.8 280.7,151.9 281.8,151.9 283.0,152.0 284.2,152.0 285.4,152.1 286.6,152.1 287.8,152.1 289.0,152.2 290.1,152.2 291.3,152.2 292.5,152.3 293.7,152.3 294.9,152.3 296.1,152.3 297.3,152.3 298.5,152.2 299.6,152.2 300.8,152.2 302.0,152.1 303.2,152.1 304.4,152.1 305.6,152.1 306.8,152.1 307.9,152.1 309.1,152.1 310.3,152.1 311.5,152.2 312.7,152.2 313.9,152.2 315.1,152.2 316.3,152.3 317.4,152.3 318.6,152.3 319.8,152.3 321.0,152.2 322.2,152.2 323.4,152.2 324.6,152.1 325.7,152.1 326.9,152.1 328.1,152.1 329.3,152.1 330.5,152.1 331.7,152.1 332.9,152.1 334.1,152.1 335.2,152.2 336.4,152.2 337.6,152.3 338.8,152.2 340.0,152.3 341.2,152.3 342.4,152.3 343.5,152.2 344.7,152.2 345.9,152.2 347.1,152.1 348.3,152.1 349.5,152.1 350.7,152.1 351.9,152.1 353.0,152.1 354.2,152.1 355.4,152.1 356.6,152.2 357.8,152.2 359.0,152.2 360.2,152.2 361.3,152.3 362.5,152.2 363.7,152.3 364.9,152.2 366.1,152.2 367.3,152.2 368.5,152.2 369.7,152.1 370.8,152.1 372.0,152.1 373.2,152.1 374.4,152.1 375.6,152.1 376.8,152.1 378.0,152.2 379.1,152.2 380.3,152.2 381.5,152.2 382.7,152.2 383.9,152.2 385.1,152.2 386.3,152.2 387.5,152.2 388.6,152.2 389.8,152.2 391.0,152.2 392.2,152.1 393.4,152.1 394.6,152.1 395.8,152.1 396.9,152.1 398.1,152.2 399.3,152.1 400.5,152.2 401.7,152.2 402.9,152.2 404.1,152.2 405.3,152.2 406.4,152.2 407.6,152.2 408.8,152.2 410.0,152.2 411.2,152.2 412.4,152.2 413.6,152.1 414.7,152.1 415.9,152.1 417.1,152.1 418.3,152.1 419.5,152.2 420.7,152.1 421.9,152.2 423.1,152.2 424.2,152.2 425.4,152.2 426.6,152.2 427.8,152.2 429.0,152.2 430.2,152.2 431.4,152.2 432.5,152.2 433.7,152.2 434.9,152.1 436.1,152.1 437.3,152.1 438.5,152.1 439.7,152.1 440.9,152.1 442.0,152.1 443.2,152.2 444.4,152.2 445.6,152.2 446.8,152.2 448.0,152.2 449.2,152.2 450.3,152.2 451.5,152.2 452.7,152.2 453.9,152.2 455.1,152.2 456.3,152.2 457.5,152.2 458.7,152.1 459.8,152.1 461.0,152.1 462.2,152.1 463.4,152.1 464.6,152.1 465.8,152.2 467.0,152.2 468.1,152.2 469.3,152.2 470.5,152.2 471.7,152.2 472.9,152.2 474.1,152.2 475.3,152.2 476.5,152.2 477.6,152.2 478.8,152.2 480.0,152.2 481.2,152.1 482.4,152.1 483.6,152.1 484.8,152.1 485.9,152.1 487.1,152.1 488.3,152.1 489.5,152.1 490.7,152.2 491.9,152.2 493.1,152.2 494.3,152.2 495.4,152.2 496.6,152.2 497.8,152.2 499.0,152.2 500.2,152.2 501.4,152.2 502.6,152.1 503.7,152.1 504.9,152.1 506.1,152.1 507.3,152.1 508.5,152.1 509.7,152.1 510.9,152.1 512.1,152.1 513.2,152.1 514.4,152.1 515.6,152.0 516.8,152.0 518.0,152.0 519.2,152.0 520.4,152.0 521.5,151.9 522.7,151.9 523.9,151.9 525.1,151.8 526.3,151.8 527.5,151.8 528.7,151.7 529.9,151.7 531.0,151.6 532.2,151.6 533.4,151.5 534.6,151.5 535.8,151.4 537.0,151.4 538.2,151.3 539.3,151.2 540.5,151.2 541.7,151.1 542.9,151.0 544.1,150.9 545.3,150.8 546.5,150.7 547.7,150.7 548.8,150.6 550.0,150.4 551.2,150.3 552.4,150.2 553.6,150.2 554.8,150.1 556.0,150.0 557.1,149.9 558.3,149.9 559.5,149.8 560.7,149.7 561.9,149.6 563.1,149.6 564.3,149.5 565.5,149.4 566.6,149.3 567.8,149.2 569.0,149.1 570.2,149.0 571.4,148.9 572.6,148.8 573.8,148.7 574.9,148.5 576.1,148.4 577.3,148.3 578.5,148.2 579.7,148.1 580.9,148.0 582.1,147.9 583.3,147.7 584.4,147.6 585.6,147.4 586.8,147.3 588.0,147.2 589.2,147.0 590.4,146.8 591.6,146.6 592.7,146.5 593.9,146.2 595.1,146.0 596.3,145.8 597.5,145.6 598.7,145.3 599.9,145.0 601.1,144.9 602.2,144.9 603.4,145.0 604.6,145.8 605.8,147.5 607.0,149.4 608.2,151.5 609.4,153.6 610.5,155.7 611.7,158.1 612.9,159.8 614.1,161.5 615.3,163.4 616.5,165.5 617.7,168.0 618.9,170.8 620.0,174.0 621.2,177.4 622.4,180.9 623.6,184.1 624.8,186.6 626.0,188.0 627.2,188.3 628.3,187.7 629.5,186.3 630.7,184.2 631.9,181.8 633.1,179.5 634.3,176.9 635.5,174.0 636.7,170.8 637.8,167.4 639.0,164.4 640.2,161.7 641.4,159.3 642.6,157.2 643.8,155.2 645.0,153.3 646.1,151.6 647.3,150.1 648.5,149.0 649.7,148.3 650.9,148.3 652.1,149.0 653.3,150.3 654.5,152.5 655.6,155.4 656.8,159.2 658.0,162.7 659.2,165.9 660.4,168.9 661.6,171.8 662.8,174.3 663.9,176.4 665.1,178.0 666.3,179.1 667.5,179.5 668.7,179.3 669.9,178.5 671.1,177.1 672.3,175.0 673.4,172.3 674.6,168.9 675.8,166.0 677.0,163.6 678.2,161.9 679.4,160.7 680.6,160.2 681.7,160.2 682.9,160.9 684.1,162.2 685.3,163.8 686.5,165.0 687.7,165.5 688.9,165.6 690.1,165.5 691.2,165.5 692.4,165.5 693.6,165.6 694.8,165.8 696.0,165.9 697.2,166.1 698.4,166.2 699.5,166.4 700.7,166.5 701.9,166.6 703.1,166.7 704.3,166.8 705.5,166.9 706.7,167.0 707.9,167.0 709.0,167.1 710.2,167.1 711.4,167.2 712.6,167.2 713.8,167.2 715.0,167.2 716.2,167.2 717.3,167.2 718.5,167.2 719.7,167.1 720.9,167.1 722.1,167.0 723.3,166.9 724.5,166.9 725.7,166.8 726.8,166.7 728.0,166.6 729.2,166.5 730.4,165.9 731.6,164.6 732.8,162.8 734.0,160.5 735.1,158.0 736.3,155.3 737.5,153.0 738.7,151.2 739.9,149.7 741.1,148.5 742.3,147.7 743.5,147.3 744.6,147.2 745.8,147.5 747.0,148.1 748.2,148.9 749.4,149.5 750.6,149.7 751.8,149.7 752.9,149.5 754.1,149.3 755.3,149.1 756.5,148.9 757.7,148.8 758.9,148.7 760.1,148.5 761.3,148.4 762.4,148.3 763.6,148.2 764.8,148.1 766.0,147.9"/>
<line x1="606" y1="42" x2="628" y2="42" stroke="#0f62fe" stroke-width="2.2"/>
<text x="634" y="46" font-family="Arial" font-size="12">p_dps</text>
<polyline fill="none" stroke="#24a148" stroke-width="2.2" points="54.0,156.5 55.2,159.8 56.4,160.4 57.6,158.9 58.7,157.7 59.9,157.6 61.1,157.7 62.3,157.6 63.5,157.3 64.7,157.1 65.9,156.9 67.1,156.8 68.2,156.7 69.4,156.6 70.6,156.5 71.8,156.5 73.0,156.4 74.2,156.3 75.4,156.3 76.5,156.3 77.7,156.2 78.9,156.2 80.1,156.2 81.3,156.1 82.5,156.1 83.7,156.1 84.9,156.1 86.0,156.1 87.2,156.1 88.4,156.1 89.6,156.1 90.8,156.1 92.0,156.1 93.2,156.1 94.3,156.1 95.5,156.1 96.7,156.1 97.9,156.1 99.1,156.1 100.3,156.1 101.5,156.1 102.7,156.1 103.8,156.1 105.0,156.1 106.2,156.1 107.4,156.1 108.6,156.1 109.8,156.1 111.0,156.2 112.1,156.2 113.3,156.2 114.5,156.2 115.7,156.2 116.9,156.2 118.1,156.2 119.3,156.2 120.5,156.2 121.6,156.2 122.8,156.2 124.0,156.2 125.2,156.3 126.4,156.3 127.6,156.3 128.8,156.3 129.9,156.3 131.1,156.3 132.3,156.3 133.5,156.3 134.7,156.3 135.9,156.3 137.1,156.3 138.3,156.3 139.4,156.3 140.6,156.3 141.8,156.4 143.0,156.4 144.2,156.4 145.4,156.4 146.6,156.4 147.7,156.4 148.9,156.4 150.1,156.4 151.3,156.5 152.5,156.5 153.7,156.5 154.9,156.5 156.1,156.5 157.2,156.6 158.4,156.6 159.6,156.6 160.8,156.6 162.0,156.6 163.2,156.6 164.4,156.7 165.5,156.7 166.7,156.7 167.9,156.7 169.1,156.7 170.3,156.7 171.5,156.7 172.7,156.7 173.9,156.7 175.0,156.7 176.2,156.8 177.4,156.8 178.6,156.8 179.8,156.8 181.0,156.8 182.2,156.8 183.3,156.8 184.5,156.8 185.7,156.8 186.9,156.8 188.1,156.8 189.3,156.8 190.5,156.8 191.7,156.8 192.8,156.8 194.0,156.8 195.2,156.8 196.4,156.8 197.6,156.9 198.8,156.8 200.0,157.0 201.1,156.6 202.3,157.2 203.5,156.1 204.7,158.2 205.9,154.3 207.1,161.6 208.3,152.2 209.5,160.0 210.6,151.8 211.8,161.0 213.0,152.8 214.2,162.0 215.4,153.2 216.6,161.9 217.8,152.6 218.9,161.3 220.1,152.1 221.3,161.3 222.5,152.1 223.7,161.6 224.9,152.4 226.1,162.0 227.3,152.4 228.4,161.9 229.6,152.2 230.8,161.8 232.0,152.0 233.2,161.9 234.4,152.0 235.6,162.1 236.7,152.0 237.9,162.2 239.1,151.9 240.3,162.2 241.5,151.8 242.7,162.2 243.9,151.7 245.1,162.3 246.2,151.6 247.4,162.3 248.6,151.5 249.8,162.3 251.0,151.3 252.2,162.3 253.4,151.2 254.5,162.3 255.7,151.1 256.9,162.4 258.1,151.0 259.3,162.5 260.5,150.9 261.7,162.5 262.9,150.8 264.0,162.5 265.2,150.6 266.4,162.5 267.6,150.5 268.8,162.5 270.0,151.6 271.2,163.8 272.3,151.6 273.5,163.0 274.7,151.5 275.9,163.7 277.1,151.5 278.3,163.1 279.5,152.6 280.7,164.8 281.8,152.6 283.0,163.9 284.2,151.7 285.4,162.2 286.6,155.5 287.8,167.6 289.0,155.5 290.1,166.2 291.3,154.0 292.5,162.3 293.7,150.1 294.9,160.8 296.1,153.0 297.3,165.2 298.5,154.6 299.6,162.4 300.8,150.2 302.0,160.6 303.2,148.5 304.4,160.6 305.6,152.3 306.8,164.5 307.9,154.0 309.1,166.2 310.3,154.0 311.5,165.9 312.7,153.7 313.9,163.4 315.1,151.2 316.3,162.1 317.4,149.9 318.6,162.1 319.8,151.9 321.0,164.1 322.2,153.0 323.4,165.2 324.6,153.0 325.7,165.2 326.9,153.0 328.1,165.2 329.3,153.0 330.5,165.0 331.7,152.8 332.9,164.0 334.1,151.8 335.2,163.6 336.4,151.4 337.6,163.6 338.8,151.4 340.0,163.6 341.2,151.4 342.4,163.6 343.5,151.4 344.7,163.6 345.9,151.4 347.1,163.6 348.3,151.4 349.5,163.6 350.7,151.5 351.9,163.7 353.0,152.0 354.2,164.2 355.4,153.5 356.6,165.7 357.8,153.5 359.0,165.7 360.2,153.5 361.3,165.7 362.5,153.5 363.7,165.5 364.9,153.3 366.1,164.3 367.3,152.1 368.5,163.9 369.7,151.7 370.8,163.9 372.0,151.7 373.2,163.9 374.4,151.7 375.6,163.9 376.8,158.7 378.0,168.9 379.1,156.7 380.3,162.6 381.5,157.7 382.7,169.7 383.9,157.5 385.1,157.8 386.3,163.9 387.5,151.7 388.6,162.9 389.8,150.7 391.0,162.9 392.2,153.9 393.4,166.1 394.6,155.2 395.8,167.3 396.9,155.2 398.1,167.3 399.3,155.2 400.5,165.7 401.7,153.5 402.9,165.7 404.1,154.6 405.3,166.8 406.4,154.6 407.6,166.8 408.8,154.6 410.0,166.8 411.2,154.6 412.4,166.8 413.6,154.6 414.7,165.2 415.9,153.0 417.1,165.2 418.3,153.6 419.5,165.7 420.7,159.0 421.9,168.3 423.1,156.1 424.2,167.6 425.4,155.9 426.6,168.1 427.8,155.9 429.0,168.1 430.2,155.9 431.4,168.1 432.5,155.9 433.7,165.7 434.9,153.7 436.1,165.9 437.3,157.7 438.5,166.8 439.7,155.8 440.9,168.0 442.0,159.5 443.2,168.3 444.4,158.5 445.6,170.7 446.8,158.5 448.0,168.3 449.2,159.2 450.3,167.7 451.5,158.4 452.7,166.9 453.9,158.4 455.1,165.5 456.3,159.5 457.5,164.3 458.7,161.2 459.8,163.6 461.0,162.9 462.2,163.9 463.4,164.2 464.6,164.6 465.8,165.0 467.0,165.2 468.1,165.4 469.3,165.4 470.5,165.3 471.7,165.1 472.9,164.8 474.1,164.5 475.3,164.2 476.5,164.0 477.6,163.8 478.8,163.7 480.0,163.7 481.2,163.8 482.4,164.0 483.6,164.6 484.8,165.5 485.9,166.3 487.1,167.0 488.3,167.9 489.5,168.7 490.7,169.5 491.9,170.2 493.1,170.9 494.3,171.4 495.4,172.0 496.6,172.4 497.8,172.8 499.0,173.2 500.2,173.6 501.4,174.1 502.6,174.6 503.7,175.1 504.9,175.8 506.1,176.6 507.3,177.5 508.5,178.5 509.7,179.6 510.9,179.8 512.1,179.5 513.2,179.4 514.4,179.5 515.6,179.6 516.8,179.6 518.0,179.6 519.2,179.6 520.4,179.6 521.5,179.7 522.7,179.7 523.9,179.7 525.1,179.7 526.3,179.8 527.5,179.8 528.7,179.8 529.9,179.8 531.0,179.9 532.2,179.9 533.4,179.9 534.6,180.0 535.8,180.0 537.0,180.0 538.2,180.0 539.3,180.1 540.5,180.1 541.7,180.1 542.9,180.1 544.1,180.2 545.3,180.2 546.5,180.2 547.7,180.2 548.8,180.3 550.0,180.3 551.2,180.3 552.4,180.3 553.6,180.1 554.8,175.5 556.0,168.4 557.1,160.7 558.3,153.7 559.5,148.9 560.7,146.4 561.9,145.9 563.1,146.3 564.3,146.6 565.5,146.4 566.6,145.6 567.8,144.6 569.0,143.5 570.2,142.4 571.4,141.3 572.6,140.2 573.8,139.1 574.9,137.9 576.1,138.3 577.3,141.4 578.5,148.1 579.7,158.8 580.9,171.0 582.1,180.6 583.3,184.0 584.4,183.6 585.6,182.2 586.8,181.0 588.0,180.6 589.2,180.6 590.4,180.8 591.6,180.9 592.7,181.0 593.9,181.1 595.1,181.1 596.3,181.1 597.5,181.2 598.7,181.2 599.9,181.3 601.1,181.4 602.2,181.5 603.4,181.5 604.6,181.6 605.8,181.6 607.0,181.6 608.2,181.4 609.4,175.8 610.5,165.3 611.7,153.1 612.9,140.9 614.1,128.7 615.3,116.5 616.5,104.4 617.7,92.2 618.9,80.0 620.0,67.8 621.2,56.7 622.4,54.0 623.6,63.5 624.8,75.7 626.0,87.9 627.2,100.0 628.3,112.2 629.5,124.4 630.7,136.6 631.9,148.8 633.1,161.0 634.3,173.2 635.5,185.4 636.7,197.6 637.8,209.8 639.0,222.0 640.2,234.2 641.4,241.0 642.6,234.0 643.8,221.8 645.0,209.7 646.1,197.5 647.3,186.6 648.5,179.9 649.7,177.2 650.9,177.4 652.1,178.6 653.3,175.3 654.5,168.0 655.6,157.1 656.8,144.9 658.0,132.7 659.2,120.5 660.4,109.4 661.6,103.7 662.8,102.7 663.9,107.7 665.1,117.2 666.3,129.4 667.5,141.6 668.7,153.8 669.9,165.9 671.1,178.1 672.3,190.3 673.4,202.5 674.6,211.5 675.8,211.6 677.0,205.3 678.2,197.3 679.4,190.5 680.6,185.5 681.7,182.0 682.9,180.0 684.1,179.5 685.3,179.7 686.5,180.0 687.7,180.3 688.9,180.4 690.1,180.2 691.2,179.6 692.4,178.7 693.6,177.8 694.8,177.0 696.0,176.5 697.2,176.7 698.4,177.6 699.5,178.8 700.7,179.7 701.9,180.3 703.1,180.5 704.3,180.6 705.5,180.6 706.7,180.6 707.9,180.6 709.0,180.6 710.2,180.6 711.4,180.6 712.6,180.6 713.8,180.7 715.0,180.7 716.2,180.7 717.3,180.7 718.5,180.8 719.7,180.8 720.9,180.8 722.1,180.8 723.3,180.9 724.5,180.9 725.7,180.9 726.8,180.9 728.0,180.9 729.2,180.9 730.4,180.9 731.6,180.9 732.8,180.8 734.0,180.7 735.1,180.6 736.3,180.4 737.5,180.2 738.7,177.5 739.9,173.7 741.1,170.4 742.3,168.1 743.5,166.8 744.6,166.0 745.8,165.6 747.0,165.6 748.2,166.1 749.4,166.9 750.6,167.9 751.8,168.8 752.9,169.6 754.1,170.3 755.3,170.9 756.5,171.4 757.7,171.7 758.9,171.9 760.1,172.0 761.3,171.8 762.4,171.5 763.6,171.1 764.8,170.5 766.0,169.7"/>
<line x1="606" y1="60" x2="628" y2="60" stroke="#24a148" stroke-width="2.2"/>
<text x="634" y="64" font-family="Arial" font-size="12">q_dps</text>
<polyline fill="none" stroke="#da1e28" stroke-width="2.2" points="54.0,156.5 55.2,156.5 56.4,156.6 57.6,156.6 58.7,156.6 59.9,156.6 61.1,156.6 62.3,156.6 63.5,156.6 64.7,156.6 65.9,156.6 67.1,156.6 68.2,156.6 69.4,156.6 70.6,156.6 71.8,156.6 73.0,156.6 74.2,156.6 75.4,156.6 76.5,156.6 77.7,156.6 78.9,156.6 80.1,156.6 81.3,156.6 82.5,156.6 83.7,156.6 84.9,156.6 86.0,156.6 87.2,156.6 88.4,156.5 89.6,156.5 90.8,156.5 92.0,156.6 93.2,156.6 94.3,156.6 95.5,156.6 96.7,156.6 97.9,156.6 99.1,156.6 100.3,156.6 101.5,156.6 102.7,156.6 103.8,156.6 105.0,156.6 106.2,156.6 107.4,156.6 108.6,156.6 109.8,156.6 111.0,156.6 112.1,156.6 113.3,156.6 114.5,156.6 115.7,156.6 116.9,156.6 118.1,156.6 119.3,156.6 120.5,156.6 121.6,156.6 122.8,156.6 124.0,156.6 125.2,156.6 126.4,156.6 127.6,156.6 128.8,156.6 129.9,156.6 131.1,156.6 132.3,156.6 133.5,156.6 134.7,156.6 135.9,156.6 137.1,156.6 138.3,156.6 139.4,156.6 140.6,156.6 141.8,156.6 143.0,156.6 144.2,156.6 145.4,156.6 146.6,156.6 147.7,156.6 148.9,156.6 150.1,156.6 151.3,156.6 152.5,156.6 153.7,156.6 154.9,156.6 156.1,156.6 157.2,156.6 158.4,156.6 159.6,156.6 160.8,156.6 162.0,156.6 163.2,156.6 164.4,156.7 165.5,156.7 166.7,156.7 167.9,156.7 169.1,156.7 170.3,156.7 171.5,156.7 172.7,156.7 173.9,156.7 175.0,156.7 176.2,156.7 177.4,156.7 178.6,156.7 179.8,156.7 181.0,156.7 182.2,156.7 183.3,156.8 184.5,156.8 185.7,156.8 186.9,156.8 188.1,156.8 189.3,156.8 190.5,156.8 191.7,156.8 192.8,156.8 194.0,156.9 195.2,156.9 196.4,156.9 197.6,156.9 198.8,156.9 200.0,156.9 201.1,157.0 202.3,157.0 203.5,157.0 204.7,157.0 205.9,157.0 207.1,157.1 208.3,157.1 209.5,157.1 210.6,157.1 211.8,157.2 213.0,157.2 214.2,157.2 215.4,157.3 216.6,157.3 217.8,157.3 218.9,157.4 220.1,157.4 221.3,157.4 222.5,157.5 223.7,157.5 224.9,157.6 226.1,157.6 227.3,157.7 228.4,157.8 229.6,157.9 230.8,157.9 232.0,158.0 233.2,158.0 234.4,158.2 235.6,158.2 236.7,158.3 237.9,158.4 239.1,158.6 240.3,158.6 241.5,158.8 242.7,158.8 243.9,159.0 245.1,159.1 246.2,159.3 247.4,159.4 248.6,159.6 249.8,159.7 251.0,160.0 252.2,160.1 253.4,160.4 254.5,160.5 255.7,160.8 256.9,160.9 258.1,161.3 259.3,161.4 260.5,161.9 261.7,162.0 262.9,162.5 264.0,162.6 265.2,163.1 266.4,163.2 267.6,163.8 268.8,163.9 270.0,164.3 271.2,164.4 272.3,164.1 273.5,163.9 274.7,163.6 275.9,163.5 277.1,163.4 278.3,163.3 279.5,163.1 280.7,163.0 281.8,162.9 283.0,162.8 284.2,162.6 285.4,162.6 286.6,162.4 287.8,162.3 289.0,162.2 290.1,162.1 291.3,161.7 292.5,161.2 293.7,160.4 294.9,159.5 296.1,158.5 297.3,157.6 298.5,156.8 299.6,156.2 300.8,155.9 302.0,156.0 303.2,156.3 304.4,156.9 305.6,157.7 306.8,158.6 307.9,159.5 309.1,160.3 310.3,161.0 311.5,161.4 312.7,161.6 313.9,161.5 315.1,161.1 316.3,160.6 317.4,159.8 318.6,159.0 319.8,158.1 321.0,157.4 322.2,156.8 323.4,156.5 324.6,156.5 325.7,156.7 326.9,157.1 328.1,157.8 329.3,158.6 330.5,159.4 331.7,160.2 332.9,160.8 334.1,161.2 335.2,161.5 336.4,161.4 337.6,161.1 338.8,160.5 340.0,159.8 341.2,159.0 342.4,158.3 343.5,157.6 344.7,157.2 345.9,156.9 347.1,156.9 348.3,157.1 349.5,157.5 350.7,158.1 351.9,158.9 353.0,159.6 354.2,160.3 355.4,160.8 356.6,161.1 357.8,161.2 359.0,161.1 360.2,160.7 361.3,160.2 362.5,159.5 363.7,158.9 364.9,158.2 366.1,157.7 367.3,157.4 368.5,157.3 369.7,157.4 370.8,157.7 372.0,158.2 373.2,158.8 374.4,159.4 375.6,160.0 376.8,160.5 378.0,160.8 379.1,161.0 380.3,160.9 381.5,160.7 382.7,160.3 383.9,159.8 385.1,159.2 386.3,158.7 387.5,158.2 388.6,158.0 389.8,157.8 391.0,157.8 392.2,158.0 393.4,158.4 394.6,158.8 395.8,159.3 396.9,159.8 398.1,160.2 399.3,160.5 400.5,160.7 401.7,160.8 402.9,160.6 404.1,160.3 405.3,160.0 406.4,159.5 407.6,159.1 408.8,158.6 410.0,158.4 411.2,158.1 412.4,158.1 413.6,158.2 414.7,158.5 415.9,158.8 417.1,159.3 418.3,159.7 419.5,160.1 420.7,160.4 421.9,160.6 423.1,160.7 424.2,160.6 425.4,160.4 426.6,160.1 427.8,159.7 429.0,159.4 430.2,159.0 431.4,158.7 432.5,158.5 433.7,158.5 434.9,158.5 436.1,158.8 437.3,159.0 438.5,159.4 439.7,159.7 440.9,160.1 442.0,160.3 443.2,160.6 444.4,160.6 445.6,160.7 446.8,160.5 448.0,160.3 449.2,160.1 450.3,159.8 451.5,159.5 452.7,159.3 453.9,159.1 455.1,159.0 456.3,159.0 457.5,159.0 458.7,159.2 459.8,159.4 461.0,159.7 462.2,160.0 463.4,160.2 464.6,160.5 465.8,160.6 467.0,160.7 468.1,160.7 469.3,160.7 470.5,160.6 471.7,160.4 472.9,160.2 474.1,160.0 475.3,159.8 476.5,159.7 477.6,159.6 478.8,159.5 480.0,159.5 481.2,159.6 482.4,159.7 483.6,159.9 484.8,160.1 485.9,160.3 487.1,160.5 488.3,160.7 489.5,160.9 490.7,161.0 491.9,161.1 493.1,161.1 494.3,161.1 495.4,161.1 496.6,161.1 497.8,161.0 499.0,161.0 500.2,161.0 501.4,161.0 502.6,161.1 503.7,161.2 504.9,161.3 506.1,161.5 507.3,161.7 508.5,162.0 509.7,162.3 510.9,162.5 512.1,162.5 513.2,162.5 514.4,162.5 515.6,162.5 516.8,162.6 518.0,162.6 519.2,162.7 520.4,162.8 521.5,162.8 522.7,162.9 523.9,163.0 525.1,163.0 526.3,163.1 527.5,163.2 528.7,163.3 529.9,163.4 531.0,163.5 532.2,163.6 533.4,163.8 534.6,163.9 535.8,164.0 537.0,164.2 538.2,164.3 539.3,164.5 540.5,164.6 541.7,164.8 542.9,165.0 544.1,165.2 545.3,165.4 546.5,165.6 547.7,165.8 548.8,166.1 550.0,165.5 551.2,164.1 552.4,162.0 553.6,159.1 554.8,155.6 556.0,151.3 557.1,147.3 558.3,144.7 559.5,143.6 560.7,143.8 561.9,144.5 563.1,145.3 564.3,145.9 565.5,146.2 566.6,146.5 567.8,146.7 569.0,146.9 570.2,147.1 571.4,147.4 572.6,147.7 573.8,148.0 574.9,149.6 576.1,152.4 577.3,156.5 578.5,161.7 579.7,166.9 580.9,171.4 582.1,175.2 583.3,178.2 584.4,180.8 585.6,182.8 586.8,184.3 588.0,185.4 589.2,186.2 590.4,187.2 591.6,188.6 592.7,190.3 593.9,192.5 595.1,195.1 596.3,198.3 597.5,201.9 598.7,206.1 599.9,210.8 601.1,215.6 602.2,220.4 603.4,225.0 604.6,229.6 605.8,234.2 607.0,238.7 608.2,243.3 609.4,247.8 610.5,252.3 611.7,256.8 612.9,261.3 614.1,264.5 615.3,266.0 616.5,265.4 617.7,262.5 618.9,257.2 620.0,249.2 621.2,238.5 622.4,226.3 623.6,214.1 624.8,201.9 626.0,189.7 627.2,177.6 628.3,165.4 629.5,153.2 630.7,141.0 631.9,129.8 633.1,119.7 634.3,111.2 635.5,104.7 636.7,100.3 637.8,97.7 639.0,97.0 640.2,98.2 641.4,101.0 642.6,105.5 643.8,111.4 645.0,118.6 646.1,126.7 647.3,135.4 648.5,144.5 649.7,153.5 650.9,162.0 652.1,169.8 653.3,176.7 654.5,182.6 655.6,187.5 656.8,191.2 658.0,193.5 659.2,194.3 660.4,193.6 661.6,191.2 662.8,187.2 663.9,181.9 665.1,175.9 666.3,170.2 667.5,164.9 668.7,160.2 669.9,156.2 671.1,153.1 672.3,150.8 673.4,149.3 674.6,148.6 675.8,148.5 677.0,148.8 678.2,149.6 679.4,150.8 680.6,152.2 681.7,153.6 682.9,155.1 684.1,156.4 685.3,157.8 686.5,159.0 687.7,160.0 688.9,160.9 690.1,161.6 691.2,162.0 692.4,162.2 693.6,162.1 694.8,161.8 696.0,161.2 697.2,160.4 698.4,159.4 699.5,158.2 700.7,156.9 701.9,155.3 703.1,153.7 704.3,151.9 705.5,150.0 706.7,148.0 707.9,146.0 709.0,143.9 710.2,141.7 711.4,139.6 712.6,137.5 713.8,135.4 715.0,133.3 716.2,131.3 717.3,129.4 718.5,127.6 719.7,125.9 720.9,124.2 722.1,122.7 723.3,121.4 724.5,120.1 725.7,119.0 726.8,118.1 728.0,117.3 729.2,116.7 730.4,116.2 731.6,115.9 732.8,115.7 734.0,115.7 735.1,115.9 736.3,116.2 737.5,116.9 738.7,117.7 739.9,118.9 741.1,120.4 742.3,122.2 743.5,124.4 744.6,126.9 745.8,129.7 747.0,132.8 748.2,135.8 749.4,138.6 750.6,141.2 751.8,143.5 752.9,145.7 754.1,147.6 755.3,149.2 756.5,150.6 757.7,151.7 758.9,152.7 760.1,153.3 761.3,153.7 762.4,153.9 763.6,153.9 764.8,153.7 766.0,153.3"/>
<line x1="606" y1="78" x2="628" y2="78" stroke="#da1e28" stroke-width="2.2"/>
<text x="634" y="82" font-family="Arial" font-size="12">r_dps</text>
</svg>