<svg xmlns="http://www.w3.org/2000/svg" width="820" height="320" viewBox="0 0 820 320">
<rect width="100%" height="100%" fill="#ffffff"/>
<text x="54" y="28" font-family="Arial" font-size="18" font-weight="700">Mach Number</text>
<line x1="54" y1="266" x2="766" y2="266" stroke="#1f2933"/>
<line x1="54" y1="54" x2="54" y2="266" stroke="#1f2933"/>
<text x="54" y="306" font-family="Arial" font-size="12">time (s)</text>
<text x="596" y="306" font-family="Arial" font-size="12">Mach</text>
<text x="58" y="68" font-family="Arial" font-size="11">0.584</text>
<text x="58" y="260" font-family="Arial" font-size="11">0.212</text>
<polyline fill="none" stroke="#0f62fe" stroke-width="2.2" points="54.0,244.0 55.2,243.2 56.4,242.4 57.6,241.5 58.7,240.7 59.9,239.8 61.1,238.9 62.3,238.0 63.5,237.1 64.7,236.2 65.9,235.2 67.1,234.3 68.2,233.3 69.4,232.3 70.6,231.3 71.8,230.3 73.0,229.3 74.2,228.3 75.4,227.3 76.5,226.3 77.7,225.3 78.9,224.3 80.1,223.3 81.3,222.3 82.5,221.3 83.7,220.3 84.9,219.3 86.0,218.3 87.2,217.3 88.4,216.3 89.6,215.3 90.8,214.3 92.0,213.4 93.2,212.4 94.3,211.4 95.5,210.4 96.7,209.4 97.9,208.4 99.1,207.5 100.3,206.5 101.5,205.5 102.7,204.5 103.8,203.6 105.0,202.6 106.2,201.6 107.4,200.6 108.6,199.7 109.8,198.7 111.0,197.7 112.1,196.8 113.3,195.8 114.5,194.8 115.7,193.9 116.9,192.9 118.1,192.0 119.3,191.0 120.5,190.0 121.6,189.1 122.8,188.1 124.0,187.2 125.2,186.2 126.4,185.3 127.6,184.3 128.8,183.4 129.9,182.4 131.1,181.5 132.3,180.5 133.5,179.6 134.7,178.7 135.9,177.7 137.1,176.8 138.3,175.8 139.4,174.9 140.6,174.0 141.8,173.0 143.0,172.1 144.2,171.2 145.4,170.2 146.6,169.3 147.7,168.4 148.9,167.5 150.1,166.5 151.3,165.6 152.5,164.7 153.7,163.8 154.9,162.9 156.1,162.0 157.2,161.0 158.4,160.1 159.6,159.2 160.8,158.3 162.0,157.4 163.2,156.5 164.4,155.6 165.5,154.7 166.7,153.8 167.9,152.9 169.1,152.0 170.3,151.1 171.5,150.2 172.7,149.3 173.9,148.5 175.0,147.6 176.2,146.7 177.4,145.8 178.6,144.9 179.8,144.1 181.0,143.2 182.2,142.3 183.3,141.4 184.5,140.6 185.7,139.7 186.9,138.9 188.1,138.0 189.3,137.1 190.5,136.3 191.7,135.4 192.8,134.6 194.0,133.7 195.2,132.9 196.4,132.0 197.6,131.2 198.8,130.3 200.0,129.5 201.1,128.6 202.3,127.8 203.5,127.0 204.7,126.1 205.9,125.3 207.1,124.5 208.3,123.7 209.5,122.8 210.6,122.0 211.8,121.2 213.0,120.4 214.2,119.5 215.4,118.7 216.6,117.9 217.8,117.1 218.9,116.3 220.1,115.5 221.3,114.7 222.5,113.9 223.7,113.1 224.9,112.3 226.1,111.5 227.3,110.7 228.4,109.9 229.6,109.1 230.8,108.3 232.0,107.5 233.2,106.7 234.4,106.0 235.6,105.2 236.7,104.4 237.9,103.6 239.1,102.9 240.3,102.1 241.5,101.4 242.7,100.6 243.9,99.8 245.1,99.1 246.2,98.3 247.4,97.6 248.6,96.8 249.8,96.1 251.0,95.4 252.2,94.6 253.4,93.9 254.5,93.1 255.7,92.4 256.9,91.7 258.1,91.0 259.3,90.3 260.5,89.6 261.7,88.8 262.9,88.1 264.0,87.4 265.2,86.8 266.4,86.0 267.6,85.4 268.8,84.7 270.0,84.0 271.2,83.4 272.3,82.7 273.5,82.1 274.7,81.5 275.9,80.9 277.1,80.3 278.3,79.7 279.5,79.1 280.7,78.5 281.8,78.0 283.0,77.5 284.2,77.0 285.4,76.5 286.6,76.0 287.8,75.5 289.0,75.1 290.1,74.7 291.3,74.3 292.5,74.0 293.7,73.7 294.9,73.3 296.1,72.9 297.3,72.6 298.5,72.2 299.6,71.9 300.8,71.6 302.0,71.2 303.2,70.9 304.4,70.4 305.6,70.1 306.8,69.6 307.9,69.2 309.1,68.8 310.3,68.5 311.5,68.2 312.7,67.9 313.9,67.6 315.1,67.3 316.3,67.0 317.4,66.7 318.6,66.4 319.8,66.1 321.0,65.8 322.2,65.5 323.4,65.2 324.6,64.9 325.7,64.6 326.9,64.3 328.1,64.0 329.3,63.8 330.5,63.5 331.7,63.3 332.9,63.0 334.1,62.8 335.2,62.5 336.4,62.3 337.6,62.1 338.8,61.9 340.0,61.6 341.2,61.4 342.4,61.1 343.5,60.9 344.7,60.7 345.9,60.4 347.1,60.1 348.3,59.9 349.5,59.6 350.7,59.4 351.9,59.0 353.0,58.8 354.2,58.5 355.4,58.2 356.6,58.0 357.8,57.7 359.0,57.5 360.2,57.3 361.3,57.1 362.5,57.0 363.7,56.8 364.9,56.6 366.1,56.5 367.3,56.3 368.5,56.1 369.7,56.0 370.8,55.8 372.0,55.6 373.2,55.4 374.4,55.2 375.6,55.0 376.8,54.8 378.0,54.7 379.1,54.6 380.3,54.5 381.5,54.4 382.7,54.3 383.9,54.4 385.1,54.4 386.3,54.4 387.5,54.4 388.6,54.4 389.8,54.4 391.0,54.3 392.2,54.3 393.4,54.1 394.6,54.1 395.8,54.0 396.9,54.0 398.1,54.0 399.3,54.0 400.5,54.0 401.7,54.1 402.9,54.1 404.1,54.2 405.3,54.2 406.4,54.3 407.6,54.3 408.8,54.4 410.0,54.5 411.2,54.6 412.4,54.7 413.6,54.8 414.7,54.9 415.9,55.1 417.1,55.1 418.3,55.2 419.5,55.3 420.7,55.4 421.9,55.5 423.1,55.7 424.2,55.9 425.4,56.1 426.6,56.3 427.8,56.6 429.0,56.9 430.2,57.2 431.4,57.5 432.5,57.9 433.7,58.2 434.9,58.6 436.1,58.9 437.3,59.3 438.5,59.6 439.7,60.0 440.9,60.3 442.0,60.7 443.2,61.1 444.4,61.7 445.6,62.1 446.8,62.8 448.0,63.3 449.2,64.0 450.3,64.7 451.5,65.4 452.7,66.1 453.9,66.8 455.1,67.5 456.3,68.3 457.5,69.0 458.7,69.8 459.8,70.5 461.0,71.3 462.2,72.1 463.4,72.9 464.6,73.7 465.8,74.6 467.0,75.5 468.1,76.5 469.3,77.4 470.5,78.5 471.7,79.5 472.9,80.6 474.1,81.7 475.3,82.9 476.5,84.0 477.6,85.2 478.8,86.3 480.0,87.5 481.2,88.6 482.4,89.8 483.6,91.0 484.8,92.1 485.9,93.3 487.1,94.4 488.3,95.5 489.5,96.7 490.7,97.8 491.9,98.9 493.1,100.0 494.3,101.2 495.4,102.3 496.6,103.5 497.8,104.6 499.0,105.8 500.2,106.9 501.4,108.1 502.6,109.3 503.7,110.5 504.9,111.6 506.1,112.9 507.3,114.1 508.5,115.3 509.7,116.6 510.9,117.9 512.1,119.2 513.2,120.6 514.4,121.9 515.6,123.3 516.8,124.7 518.0,126.1 519.2,127.6 520.4,129.1 521.5,130.5 522.7,132.0 523.9,133.6 525.1,135.1 526.3,136.6 527.5,138.2 528.7,139.8 529.9,141.4 531.0,143.0 532.2,144.6 533.4,146.2 534.6,147.8 535.8,149.5 537.0,151.1 538.2,152.8 539.3,154.5 540.5,156.1 541.7,157.8 542.9,159.5 544.1,161.2 545.3,162.9 546.5,164.6 547.7,166.3 548.8,168.1 550.0,169.8 551.2,171.5 552.4,173.2 553.6,175.0 554.8,176.7 556.0,178.4 557.1,180.2 558.3,181.9 559.5,183.5 560.7,185.1 561.9,186.7 563.1,188.2 564.3,189.7 565.5,191.1 566.6,192.5 567.8,193.9 569.0,195.2 570.2,196.4 571.4,197.5 572.6,198.7 573.8,199.8 574.9,201.0 576.1,202.1 577.3,203.2 578.5,204.3 579.7,205.3 580.9,206.3 582.1,207.4 583.3,208.4 584.4,209.4 585.6,210.4 586.8,211.4 588.0,212.3 589.2,213.3 590.4,214.2 591.6,215.2 592.7,216.1 593.9,217.0 595.1,217.9 596.3,218.9 597.5,219.8 598.7,220.7 599.9,221.6 601.1,222.5 602.2,223.4 603.4,224.3 604.6,225.1 605.8,226.0 607.0,226.8 608.2,227.6 609.4,228.5 610.5,229.3 611.7,230.1 612.9,230.9 614.1,231.7 615.3,232.4 616.5,233.0 617.7,233.6 618.9,234.2 620.0,234.7 621.2,235.3 622.4,235.7 623.6,236.0 624.8,236.1 626.0,236.5 627.2,237.0 628.3,237.5 629.5,238.0 630.7,238.5 631.9,239.0 633.1,239.5 634.3,240.0 635.5,240.4 636.7,240.8 637.8,241.1 639.0,241.4 640.2,241.6 641.4,241.7 642.6,241.7 643.8,241.6 645.0,241.7 646.1,241.9 647.3,242.2 648.5,242.6 649.7,243.0 650.9,243.4 652.1,243.8 653.3,244.2 654.5,244.6 655.6,245.0 656.8,245.4 658.0,245.7 659.2,246.1 660.4,246.3 661.6,246.5 662.8,246.5 663.9,246.4 665.1,246.3 666.3,246.3 667.5,246.3 668.7,246.3 669.9,246.3 671.1,246.3 672.3,246.3 673.4,246.2 674.6,246.1 675.8,246.0 677.0,246.0 678.2,246.1 679.4,246.2 680.6,246.4 681.7,246.6 682.9,246.9 684.1,247.2 685.3,247.5 686.5,247.7 687.7,248.0 688.9,248.3 690.1,248.6 691.2,248.9 692.4,249.2 693.6,249.5 694.8,249.8 696.0,250.1 697.2,250.4 698.4,250.7 699.5,251.1 700.7,251.4 701.9,251.7 703.1,252.0 704.3,252.4 705.5,252.7 706.7,253.1 707.9,253.4 709.0,253.7 710.2,254.1 711.4,254.4 712.6,254.8 713.8,255.1 715.0,255.4 716.2,255.8 717.3,256.1 718.5,256.4 719.7,256.7 720.9,257.0 722.1,257.3 723.3,257.6 724.5,257.9 725.7,258.2 726.8,258.5 728.0,258.8 729.2,259.1 730.4,259.3 731.6,259.6 732.8,259.8 734.0,260.1 735.1,260.4 736.3,260.6 737.5,260.8 738.7,261.1 739.9,261.3 741.1,261.6 742.3,261.8 743.5,262.0 744.6,262.2 745.8,262.5 747.0,262.7 748.2,262.9 749.4,263.1 750.6,263.4 751.8,263.6 752.9,263.8 754.1,264.0 755.3,264.2 756.5,264.4 757.7,264.6 758.9,264.8 760.1,265.0 761.3,265.2 762.4,265.4 763.6,265.6 764.8,265.8 766.0,266.0"/>
<line x1="606" y1="42" x2="628" y2="42" stroke="#0f62fe" stroke-width="2.2"/>
<text x="634" y="46" font-family="Arial" font-size="12">mach</text>
</svg>