<svg xmlns="http://www.w3.org/2000/svg" width="820" height="320" viewBox="0 0 820 320">
<rect width="100%" height="100%" fill="#ffffff"/>
<text x="54" y="28" font-family="Arial" font-size="18" font-weight="700">Barometer vs Truth</text>
<line x1="54" y1="266" x2="766" y2="266" stroke="#1f2933"/>
<line x1="54" y1="54" x2="54" y2="266" stroke="#1f2933"/>
<text x="54" y="306" font-family="Arial" font-size="12">time (s)</text>
<text x="596" y="306" font-family="Arial" font-size="12">altitude (m)</text>
<text x="58" y="68" font-family="Arial" font-size="11">236</text>
<text x="58" y="260" font-family="Arial" font-size="11">20</text>
<polyline fill="none" stroke="#0f62fe" stroke-width="2.2" points="54.0,266.0 55.2,265.8 56.4,265.5 57.6,265.3 58.7,265.1 59.9,264.9 61.1,264.7 62.3,264.5 63.5,264.3 64.7,264.1 65.9,264.0 67.1,263.8 68.2,263.6 69.4,263.4 70.6,263.3 71.8,263.1 73.0,263.0 74.2,262.8 75.4,262.6 76.5,262.5 77.7,262.4 78.9,262.2 80.1,262.1 81.3,261.9 82.5,261.8 83.7,261.7 84.9,261.5 86.0,261.4 87.2,261.3 88.4,261.2 89.6,261.0 90.8,260.9 92.0,260.8 93.2,260.7 94.3,260.6 95.5,260.5 96.7,260.4 97.9,260.3 99.1,260.2 100.3,260.1 101.5,260.0 102.7,259.9 103.8,259.8 105.0,259.7 106.2,259.6 107.4,259.5 108.6,259.4 109.8,259.3 111.0,259.2 112.1,259.2 113.3,259.1 114.5,259.0 115.7,258.9 116.9,258.8 118.1,258.8 119.3,258.7 120.5,258.6 121.6,258.5 122.8,258.5 124.0,258.4 125.2,258.3 126.4,258.3 127.6,258.2 128.8,258.1 129.9,258.0 131.1,258.0 132.3,257.9 133.5,257.8 134.7,257.8 135.9,257.7 137.1,257.6 138.3,257.6 139.4,257.5 140.6,257.5 141.8,257.4 143.0,257.3 144.2,257.3 145.4,257.2 146.6,257.1 147.7,257.1 148.9,257.0 150.1,256.9 151.3,256.9 152.5,256.8 153.7,256.8 154.9,256.7 156.1,256.6 157.2,256.6 158.4,256.5 159.6,256.4 160.8,256.4 162.0,256.3 163.2,256.2 164.4,256.2 165.5,256.1 166.7,256.0 167.9,255.9 169.1,255.9 170.3,255.8 171.5,255.7 172.7,255.6 173.9,255.6 175.0,255.5 176.2,255.4 177.4,255.3 178.6,255.2 179.8,255.1 181.0,255.0 182.2,255.0 183.3,254.9 184.5,254.8 185.7,254.7 186.9,254.6 188.1,254.5 189.3,254.4 190.5,254.2 191.7,254.1 192.8,254.0 194.0,253.9 195.2,253.8 196.4,253.7 197.6,253.5 198.8,253.4 200.0,253.3 201.1,253.2 202.3,253.0 203.5,252.9 204.7,252.7 205.9,252.6 207.1,252.5 208.3,252.3 209.5,252.1 210.6,252.0 211.8,251.8 213.0,251.7 214.2,251.5 215.4,251.3 216.6,251.1 217.8,251.0 218.9,250.8 220.1,250.6 221.3,250.4 222.5,250.2 223.7,250.0 224.9,249.8 226.1,249.6 227.3,249.4 228.4,249.2 229.6,248.9 230.8,248.7 232.0,248.5 233.2,248.2 234.4,248.0 235.6,247.8 236.7,247.5 237.9,247.2 239.1,247.0 240.3,246.7 241.5,246.5 242.7,246.2 243.9,245.9 245.1,245.6 246.2,245.3 247.4,245.0 248.6,244.7 249.8,244.4 251.0,244.1 252.2,243.8 253.4,243.5 254.5,243.1 255.7,242.8 256.9,242.4 258.1,242.1 259.3,241.7 260.5,241.4 261.7,241.0 262.9,240.7 264.0,240.3 265.2,239.9 266.4,239.5 267.6,239.1 268.8,238.7 270.0,238.4 271.2,237.9 272.3,237.5 273.5,237.1 274.7,236.7 275.9,236.3 277.1,235.9 278.3,235.4 279.5,235.0 280.7,234.5 281.8,234.1 283.0,233.6 284.2,233.2 285.4,232.7 286.6,232.2 287.8,231.7 289.0,231.2 290.1,230.7 291.3,230.2 292.5,229.7 293.7,229.1 294.9,228.6 296.1,228.0 297.3,227.4 298.5,226.9 299.6,226.3 300.8,225.7 302.0,225.1 303.2,224.4 304.4,223.8 305.6,223.2 306.8,222.5 307.9,221.9 309.1,221.2 310.3,220.6 311.5,219.9 312.7,219.2 313.9,218.5 315.1,217.8 316.3,217.1 317.4,216.3 318.6,215.6 319.8,214.8 321.0,214.1 322.2,213.3 323.4,212.6 324.6,211.8 325.7,211.0 326.9,210.2 328.1,209.4 329.3,208.6 330.5,207.7 331.7,206.9 332.9,206.1 334.1,205.2 335.2,204.3 336.4,203.5 337.6,202.6 338.8,201.7 340.0,200.8 341.2,199.9 342.4,199.0 343.5,198.1 344.7,197.1 345.9,196.2 347.1,195.3 348.3,194.3 349.5,193.4 350.7,192.4 351.9,191.4 353.0,190.5 354.2,189.5 355.4,188.5 356.6,187.5 357.8,186.6 359.0,185.6 360.2,184.6 361.3,183.6 362.5,182.6 363.7,181.5 364.9,180.5 366.1,179.5 367.3,178.5 368.5,177.4 369.7,176.4 370.8,175.3 372.0,174.3 373.2,173.2 374.4,172.2 375.6,171.1 376.8,170.0 378.0,169.0 379.1,167.9 380.3,166.8 381.5,165.7 382.7,164.6 383.9,163.5 385.1,162.4 386.3,161.3 387.5,160.2 388.6,159.1 389.8,157.9 391.0,156.8 392.2,155.7 393.4,154.5 394.6,153.4 395.8,152.3 396.9,151.1 398.1,150.0 399.3,148.8 400.5,147.7 401.7,146.5 402.9,145.4 404.1,144.2 405.3,143.0 406.4,141.9 407.6,140.7 408.8,139.5 410.0,138.4 411.2,137.2 412.4,136.0 413.6,134.8 414.7,133.7 415.9,132.5 417.1,131.3 418.3,130.1 419.5,128.9 420.7,127.8 421.9,126.6 423.1,125.4 424.2,124.2 425.4,123.1 426.6,121.9 427.8,120.7 429.0,119.5 430.2,118.4 431.4,117.2 432.5,116.1 433.7,114.9 434.9,113.7 436.1,112.6 437.3,111.4 438.5,110.3 439.7,109.2 440.9,108.0 442.0,106.9 443.2,105.8 444.4,104.6 445.6,103.5 446.8,102.4 448.0,101.3 449.2,100.2 450.3,99.1 451.5,98.0 452.7,97.0 453.9,95.9 455.1,94.8 456.3,93.8 457.5,92.8 458.7,91.7 459.8,90.7 461.0,89.7 462.2,88.7 463.4,87.7 464.6,86.7 465.8,85.7 467.0,84.7 468.1,83.8 469.3,82.8 470.5,81.9 471.7,81.0 472.9,80.1 474.1,79.2 475.3,78.3 476.5,77.4 477.6,76.6 478.8,75.7 480.0,74.9 481.2,74.1 482.4,73.3 483.6,72.5 484.8,71.7 485.9,71.0 487.1,70.2 488.3,69.5 489.5,68.8 490.7,68.1 491.9,67.4 493.1,66.7 494.3,66.1 495.4,65.4 496.6,64.8 497.8,64.2 499.0,63.6 500.2,63.1 501.4,62.5 502.6,62.0 503.7,61.5 504.9,61.0 506.1,60.5 507.3,60.1 508.5,59.6 509.7,59.2 510.9,58.8 512.1,58.4 513.2,58.1 514.4,57.7 515.6,57.4 516.8,57.1 518.0,56.8 519.2,56.5 520.4,56.2 521.5,56.0 522.7,55.8 523.9,55.5 525.1,55.4 526.3,55.2 527.5,55.0 528.7,54.9 529.9,54.8 531.0,54.7 532.2,54.6 533.4,54.5 534.6,54.4 535.8,54.4 537.0,54.4 538.2,54.4 539.3,54.4 540.5,54.4 541.7,54.4 542.9,54.5 544.1,54.6 545.3,54.7 546.5,54.8 547.7,54.9 548.8,55.0 550.0,55.2 551.2,55.3 552.4,55.5 553.6,55.7 554.8,55.9 556.0,56.2 557.1,56.4 558.3,56.7 559.5,56.9 560.7,57.2 561.9,57.5 563.1,57.9 564.3,58.2 565.5,58.5 566.6,58.9 567.8,59.2 569.0,59.6 570.2,60.0 571.4,60.4 572.6,60.8 573.8,61.2 574.9,61.6 576.1,62.0 577.3,62.4 578.5,62.8 579.7,63.3 580.9,63.7 582.1,64.1 583.3,64.6 584.4,65.0 585.6,65.5 586.8,65.9 588.0,66.4 589.2,66.9 590.4,67.4 591.6,67.8 592.7,68.3 593.9,68.8 595.1,69.3 596.3,69.8 597.5,70.3 598.7,70.8 599.9,71.4 601.1,71.9 602.2,72.4 603.4,72.9 604.6,73.5 605.8,74.0 607.0,74.6 608.2,75.1 609.4,75.7 610.5,76.2 611.7,76.8 612.9,77.4 614.1,78.0 615.3,78.6 616.5,79.2 617.7,79.8 618.9,80.4 620.0,81.0 621.2,81.6 622.4,82.2 623.6,82.9 624.8,83.5 626.0,84.1 627.2,84.7 628.3,85.3 629.5,86.0 630.7,86.6 631.9,87.2 633.1,87.8 634.3,88.5 635.5,89.1 636.7,89.7 637.8,90.4 639.0,91.0 640.2,91.7 641.4,92.3 642.6,93.0 643.8,93.6 645.0,94.3 646.1,95.0 647.3,95.7 648.5,96.5 649.7,97.2 650.9,97.9 652.1,98.7 653.3,99.5 654.5,100.2 655.6,101.0 656.8,101.8 658.0,102.6 659.2,103.4 660.4,104.2 661.6,105.0 662.8,105.9 663.9,106.7 665.1,107.5 666.3,108.4 667.5,109.2 668.7,110.1 669.9,110.9 671.1,111.8 672.3,112.6 673.4,113.5 674.6,114.4 675.8,115.3 677.0,116.1 678.2,117.1 679.4,118.0 680.6,118.9 681.7,119.8 682.9,120.8 684.1,121.7 685.3,122.7 686.5,123.6 687.7,124.6 688.9,125.6 690.1,126.6 691.2,127.6 692.4,128.6 693.6,129.6 694.8,130.6 696.0,131.6 697.2,132.6 698.4,133.7 699.5,134.7 700.7,135.8 701.9,136.8 703.1,137.9 704.3,138.9 705.5,140.0 706.7,141.1 707.9,142.2 709.0,143.3 710.2,144.3 711.4,145.4 712.6,146.5 713.8,147.6 715.0,148.8 716.2,149.9 717.3,151.0 718.5,152.1 719.7,153.3 720.9,154.4 722.1,155.5 723.3,156.7 724.5,157.8 725.7,159.0 726.8,160.2 728.0,161.3 729.2,162.5 730.4,163.7 731.6,164.9 732.8,166.1 734.0,167.3 735.1,168.5 736.3,169.7 737.5,170.9 738.7,172.1 739.9,173.4 741.1,174.6 742.3,175.8 743.5,177.1 744.6,178.3 745.8,179.6 747.0,180.8 748.2,182.1 749.4,183.3 750.6,184.6 751.8,185.8 752.9,187.1 754.1,188.4 755.3,189.6 756.5,190.9 757.7,192.2 758.9,193.5 760.1,194.8 761.3,196.1 762.4,197.4 763.6,198.7 764.8,200.0 766.0,201.3"/>
<line x1="606" y1="42" x2="628" y2="42" stroke="#0f62fe" stroke-width="2.2"/>
<text x="634" y="46" font-family="Arial" font-size="12">altitude_m</text>
<polyline fill="none" stroke="#24a148" stroke-width="2.2" points="54.0,265.2 55.2,265.2 56.4,265.5 57.6,265.5 58.7,265.2 59.9,265.2 61.1,265.9 62.3,265.9 63.5,263.9 64.7,263.9 65.9,264.0 67.1,264.0 68.2,263.1 69.4,263.1 70.6,262.9 71.8,262.9 73.0,261.6 74.2,261.6 75.4,262.5 76.5,262.5 77.7,262.2 78.9,262.2 80.1,262.1 81.3,262.1 82.5,262.5 83.7,262.5 84.9,262.6 86.0,262.6 87.2,260.2 88.4,260.2 89.6,261.1 90.8,261.1 92.0,261.1 93.2,261.1 94.3,260.8 95.5,260.8 96.7,260.0 97.9,260.0 99.1,259.5 100.3,259.5 101.5,259.3 102.7,259.3 103.8,260.5 105.0,260.5 106.2,259.7 107.4,259.7 108.6,259.6 109.8,259.6 111.0,258.9 112.1,258.9 113.3,259.2 114.5,259.2 115.7,258.9 116.9,258.9 118.1,258.2 119.3,258.2 120.5,258.0 121.6,258.0 122.8,258.5 124.0,258.5 125.2,258.0 126.4,258.0 127.6,257.9 128.8,257.9 129.9,258.9 131.1,258.9 132.3,257.2 133.5,257.2 134.7,258.8 135.9,258.8 137.1,257.3 138.3,257.3 139.4,257.2 140.6,257.2 141.8,257.3 143.0,257.3 144.2,256.6 145.4,256.6 146.6,257.1 147.7,257.1 148.9,255.8 150.1,255.8 151.3,257.4 152.5,257.4 153.7,256.5 154.9,256.5 156.1,256.8 157.2,256.8 158.4,256.8 159.6,256.8 160.8,255.9 162.0,255.9 163.2,256.4 164.4,256.4 165.5,255.7 166.7,255.7 167.9,256.3 169.1,256.3 170.3,254.3 171.5,254.3 172.7,254.9 173.9,254.9 175.0,255.4 176.2,255.4 177.4,255.8 178.6,255.8 179.8,254.4 181.0,254.4 182.2,254.7 183.3,254.7 184.5,255.0 185.7,255.0 186.9,253.7 188.1,253.7 189.3,253.7 190.5,253.7 191.7,252.6 192.8,252.6 194.0,254.0 195.2,254.0 196.4,253.1 197.6,253.1 198.8,253.3 200.0,253.3 201.1,252.6 202.3,252.6 203.5,252.1 204.7,252.1 205.9,253.5 207.1,253.5 208.3,252.6 209.5,252.6 210.6,252.8 211.8,252.8 213.0,251.0 214.2,251.0 215.4,250.6 216.6,250.6 217.8,252.2 218.9,252.2 220.1,250.5 221.3,250.5 222.5,250.2 223.7,250.2 224.9,249.1 226.1,249.1 227.3,249.3 228.4,249.3 229.6,248.6 230.8,248.6 232.0,247.9 233.2,247.9 234.4,248.2 235.6,248.2 236.7,248.3 237.9,248.3 239.1,247.5 240.3,247.5 241.5,245.5 242.7,245.5 243.9,245.5 245.1,245.5 246.2,245.5 247.4,245.5 248.6,244.9 249.8,244.9 251.0,244.0 252.2,244.0 253.4,243.2 254.5,243.2 255.7,243.3 256.9,243.3 258.1,242.0 259.3,242.0 260.5,241.0 261.7,241.0 262.9,239.8 264.0,239.8 265.2,239.3 266.4,239.3 267.6,238.9 268.8,238.9 270.0,239.2 271.2,239.2 272.3,237.3 273.5,237.3 274.7,234.7 275.9,234.7 277.1,235.6 278.3,235.6 279.5,234.9 280.7,234.9 281.8,234.5 283.0,234.5 284.2,234.4 285.4,234.4 286.6,232.2 287.8,232.2 289.0,230.2 290.1,230.2 291.3,229.1 292.5,229.1 293.7,228.1 294.9,228.1 296.1,228.8 297.3,228.8 298.5,227.5 299.6,227.5 300.8,225.5 302.0,225.5 303.2,224.4 304.4,224.4 305.6,223.3 306.8,223.3 307.9,222.0 309.1,222.0 310.3,221.1 311.5,221.1 312.7,219.8 313.9,219.8 315.1,216.7 316.3,216.7 317.4,215.7 318.6,215.7 319.8,215.5 321.0,215.5 322.2,213.3 323.4,213.3 324.6,210.6 325.7,210.6 326.9,209.5 328.1,209.5 329.3,209.5 330.5,209.5 331.7,207.7 332.9,207.7 334.1,204.6 335.2,204.6 336.4,203.3 337.6,203.3 338.8,201.0 340.0,201.0 341.2,200.4 342.4,200.4 343.5,197.8 344.7,197.8 345.9,196.0 347.1,196.0 348.3,194.9 349.5,194.9 350.7,192.4 351.9,192.4 353.0,190.9 354.2,190.9 355.4,187.9 356.6,187.9 357.8,186.7 359.0,186.7 360.2,184.8 361.3,184.8 362.5,182.0 363.7,182.0 364.9,181.6 366.1,181.6 367.3,177.3 368.5,177.3 369.7,176.7 370.8,176.7 372.0,173.8 373.2,173.8 374.4,171.9 375.6,171.9 376.8,170.5 378.0,170.5 379.1,168.8 380.3,168.8 381.5,166.2 382.7,166.2 383.9,163.2 385.1,163.2 386.3,161.2 387.5,161.2 388.6,159.2 389.8,159.2 391.0,156.6 392.2,156.6 393.4,154.2 394.6,154.2 395.8,152.1 396.9,152.1 398.1,150.1 399.3,150.1 400.5,147.6 401.7,147.6 402.9,145.9 404.1,145.9 405.3,143.0 406.4,143.0 407.6,140.5 408.8,140.5 410.0,138.0 411.2,138.0 412.4,136.4 413.6,136.4 414.7,133.8 415.9,133.8 417.1,130.3 418.3,130.3 419.5,128.6 420.7,128.6 421.9,126.2 423.1,126.2 424.2,125.4 425.4,125.4 426.6,122.9 427.8,122.9 429.0,119.0 430.2,119.0 431.4,117.8 432.5,117.8 433.7,115.1 434.9,115.1 436.1,112.6 437.3,112.6 438.5,110.1 439.7,110.1 440.9,107.9 442.0,107.9 443.2,105.0 444.4,105.0 445.6,103.5 446.8,103.5 448.0,101.3 449.2,101.3 450.3,99.7 451.5,99.7 452.7,97.7 453.9,97.7 455.1,95.1 456.3,95.1 457.5,92.6 458.7,92.6 459.8,90.7 461.0,90.7 462.2,89.0 463.4,89.0 464.6,86.2 465.8,86.2 467.0,84.4 468.1,84.4 469.3,83.2 470.5,83.2 471.7,80.7 472.9,80.7 474.1,78.1 475.3,78.1 476.5,77.8 477.6,77.8 478.8,76.2 480.0,76.2 481.2,74.3 482.4,74.3 483.6,72.9 484.8,72.9 485.9,70.7 487.1,70.7 488.3,69.6 489.5,69.6 490.7,67.4 491.9,67.4 493.1,65.7 494.3,65.7 495.4,65.0 496.6,65.0 497.8,64.4 499.0,64.4 500.2,64.5 501.4,64.5 502.6,62.2 503.7,62.2 504.9,60.6 506.1,60.6 507.3,59.5 508.5,59.5 509.7,59.9 510.9,59.9 512.1,58.1 513.2,58.1 514.4,57.3 515.6,57.3 516.8,56.9 518.0,56.9 519.2,57.0 520.4,57.0 521.5,56.5 522.7,56.5 523.9,56.9 525.1,56.9 526.3,55.2 527.5,55.2 528.7,55.2 529.9,55.2 531.0,55.2 532.2,55.2 533.4,55.2 534.6,55.2 535.8,54.7 537.0,54.7 538.2,54.2 539.3,54.2 540.5,54.5 541.7,54.5 542.9,55.2 544.1,55.2 545.3,54.0 546.5,54.0 547.7,55.6 548.8,55.6 550.0,54.4 551.2,54.4 552.4,55.7 553.6,55.7 554.8,56.9 556.0,56.9 557.1,57.5 558.3,57.5 559.5,56.8 560.7,56.8 561.9,57.9 563.1,57.9 564.3,58.1 565.5,58.1 566.6,58.4 567.8,58.4 569.0,59.4 570.2,59.4 571.4,60.2 572.6,60.2 573.8,61.8 574.9,61.8 576.1,62.3 577.3,62.3 578.5,63.7 579.7,63.7 580.9,63.9 582.1,63.9 583.3,65.2 584.4,65.2 585.6,64.5 586.8,64.5 588.0,67.2 589.2,67.2 590.4,68.3 591.6,68.3 592.7,68.3 593.9,68.3 595.1,68.3 596.3,68.3 597.5,68.9 598.7,68.9 599.9,71.1 601.1,71.1 602.2,73.3 603.4,73.3 604.6,73.9 605.8,73.9 607.0,73.8 608.2,73.8 609.4,74.5 610.5,74.5 611.7,76.4 612.9,76.4 614.1,77.2 615.3,77.2 616.5,79.2 617.7,79.2 618.9,80.6 620.0,80.6 621.2,81.1 622.4,81.1 623.6,83.6 624.8,83.6 626.0,85.2 627.2,85.2 628.3,84.9 629.5,84.9 630.7,86.6 631.9,86.6 633.1,88.5 634.3,88.5 635.5,88.3 636.7,88.3 637.8,90.2 639.0,90.2 640.2,91.0 641.4,91.0 642.6,92.8 643.8,92.8 645.0,94.2 646.1,94.2 647.3,95.6 648.5,95.6 649.7,97.5 650.9,97.5 652.1,98.5 653.3,98.5 654.5,100.6 655.6,100.6 656.8,101.3 658.0,101.3 659.2,103.1 660.4,103.1 661.6,104.6 662.8,104.6 663.9,106.9 665.1,106.9 666.3,108.2 667.5,108.2 668.7,111.2 669.9,111.2 671.1,112.3 672.3,112.3 673.4,113.2 674.6,113.2 675.8,114.4 677.0,114.4 678.2,116.5 679.4,116.5 680.6,118.4 681.7,118.4 682.9,120.9 684.1,120.9 685.3,122.4 686.5,122.4 687.7,125.2 688.9,125.2 690.1,126.7 691.2,126.7 692.4,127.1 693.6,127.1 694.8,131.1 696.0,131.1 697.2,132.7 698.4,132.7 699.5,134.7 700.7,134.7 701.9,137.0 703.1,137.0 704.3,139.5 705.5,139.5 706.7,141.0 707.9,141.0 709.0,143.0 710.2,143.0 711.4,145.2 712.6,145.2 713.8,148.3 715.0,148.3 716.2,148.5 717.3,148.5 718.5,151.9 719.7,151.9 720.9,154.9 722.1,154.9 723.3,156.8 724.5,156.8 725.7,159.6 726.8,159.6 728.0,161.4 729.2,161.4 730.4,163.8 731.6,163.8 732.8,166.3 734.0,166.3 735.1,168.9 736.3,168.9 737.5,171.4 738.7,171.4 739.9,174.0 741.1,174.0 742.3,175.5 743.5,175.5 744.6,178.1 745.8,178.1 747.0,180.6 748.2,180.6 749.4,184.1 750.6,184.1 751.8,185.2 752.9,185.2 754.1,188.5 755.3,188.5 756.5,191.3 757.7,191.3 758.9,193.5 760.1,193.5 761.3,196.4 762.4,196.4 763.6,198.8 764.8,198.8 766.0,201.5"/>
<line x1="606" y1="60" x2="628" y2="60" stroke="#24a148" stroke-width="2.2"/>
<text x="634" y="64" font-family="Arial" font-size="12">baro_alt_m</text>
</svg>