<svg xmlns="http://www.w3.org/2000/svg" width="820" height="320" viewBox="0 0 820 320">
<rect width="100%" height="100%" fill="#ffffff"/>
<text x="54" y="28" font-family="Arial" font-size="18" font-weight="700">Heading Command Tracking</text>
<line x1="54" y1="266" x2="766" y2="266" stroke="#1f2933"/>
<line x1="54" y1="54" x2="54" y2="266" stroke="#1f2933"/>
<text x="54" y="306" font-family="Arial" font-size="12">time (s)</text>
<text x="596" y="306" font-family="Arial" font-size="12">heading (deg)</text>
<text x="58" y="68" font-family="Arial" font-size="11">180</text>
<text x="58" y="260" font-family="Arial" font-size="11">-180</text>
<polyline fill="none" stroke="#0f62fe" stroke-width="2.2" points="54.0,160.1 55.2,160.1 56.4,160.1 57.6,160.1 58.7,160.1 59.9,160.1 61.1,160.1 62.3,160.1 63.5,160.1 64.7,160.1 65.9,160.1 67.1,160.1 68.2,160.1 69.4,160.1 70.6,160.1 71.8,160.1 73.0,160.1 74.2,160.1 75.4,160.1 76.5,160.1 77.7,160.1 78.9,160.1 80.1,160.1 81.3,160.1 82.5,160.1 83.7,160.1 84.9,160.1 86.0,160.1 87.2,160.1 88.4,160.1 89.6,160.1 90.8,160.1 92.0,160.1 93.2,160.1 94.3,160.1 95.5,160.1 96.7,160.1 97.9,160.1 99.1,160.1 100.3,160.1 101.5,160.1 102.7,160.1 103.8,160.1 105.0,160.1 106.2,160.1 107.4,160.1 108.6,160.1 109.8,160.1 111.0,160.1 112.1,160.1 113.3,160.1 114.5,160.1 115.7,160.1 116.9,160.1 118.1,160.1 119.3,160.1 120.5,160.1 121.6,160.1 122.8,160.1 124.0,160.1 125.2,160.1 126.4,160.1 127.6,160.1 128.8,160.1 129.9,160.1 131.1,160.1 132.3,160.1 133.5,160.1 134.7,160.1 135.9,160.1 137.1,160.1 138.3,160.1 139.4,160.1 140.6,160.1 141.8,160.1 143.0,160.1 144.2,160.1 145.4,160.1 146.6,160.1 147.7,160.1 148.9,160.1 150.1,160.1 151.3,160.1 152.5,160.1 153.7,160.1 154.9,160.1 156.1,160.1 157.2,160.1 158.4,160.1 159.6,160.1 160.8,160.1 162.0,160.1 163.2,160.1 164.4,160.1 165.5,160.1 166.7,160.1 167.9,160.1 169.1,160.1 170.3,160.1 171.5,160.1 172.7,160.1 173.9,160.1 175.0,160.1 176.2,160.1 177.4,160.1 178.6,160.1 179.8,160.1 181.0,160.1 182.2,160.1 183.3,160.1 184.5,160.1 185.7,160.1 186.9,160.1 188.1,160.1 189.3,160.1 190.5,160.1 191.7,160.1 192.8,160.1 194.0,160.1 195.2,160.1 196.4,160.1 197.6,160.1 198.8,160.1 200.0,160.1 201.1,160.1 202.3,160.1 203.5,160.1 204.7,160.1 205.9,160.1 207.1,160.1 208.3,160.1 209.5,160.1 210.6,160.1 211.8,160.1 213.0,160.1 214.2,160.1 215.4,160.1 216.6,160.1 217.8,160.1 218.9,160.1 220.1,160.1 221.3,160.1 222.5,160.1 223.7,160.1 224.9,160.1 226.1,160.1 227.3,160.1 228.4,160.1 229.6,160.1 230.8,160.1 232.0,160.1 233.2,160.1 234.4,160.1 235.6,160.1 236.7,160.1 237.9,160.1 239.1,160.1 240.3,160.1 241.5,160.1 242.7,160.1 243.9,160.1 245.1,160.1 246.2,160.1 247.4,160.1 248.6,160.1 249.8,160.1 251.0,160.1 252.2,160.1 253.4,160.1 254.5,160.1 255.7,160.1 256.9,160.1 258.1,160.1 259.3,160.1 260.5,160.1 261.7,160.1 262.9,160.1 264.0,160.1 265.2,160.1 266.4,160.1 267.6,160.1 268.8,160.1 270.0,160.1 271.2,160.1 272.3,160.1 273.5,160.1 274.7,160.1 275.9,160.1 277.1,160.1 278.3,160.1 279.5,160.1 280.7,160.1 281.8,160.1 283.0,160.1 284.2,160.1 285.4,160.1 286.6,160.1 287.8,160.1 289.0,160.1 290.1,160.1 291.3,160.1 292.5,160.1 293.7,160.1 294.9,160.1 296.1,160.1 297.3,160.1 298.5,160.1 299.6,160.1 300.8,160.1 302.0,160.1 303.2,160.1 304.4,160.1 305.6,160.1 306.8,160.1 307.9,160.1 309.1,160.1 310.3,160.1 311.5,160.1 312.7,160.1 313.9,160.1 315.1,160.1 316.3,160.1 317.4,160.1 318.6,160.1 319.8,160.1 321.0,160.1 322.2,160.1 323.4,160.1 324.6,160.1 325.7,160.1 326.9,160.1 328.1,160.1 329.3,160.1 330.5,160.1 331.7,160.1 332.9,160.1 334.1,160.1 335.2,160.1 336.4,160.1 337.6,160.1 338.8,160.1 340.0,160.1 341.2,160.1 342.4,160.1 343.5,160.1 344.7,160.1 345.9,160.1 347.1,160.1 348.3,160.1 349.5,160.1 350.7,160.1 351.9,160.1 353.0,160.1 354.2,160.1 355.4,160.1 356.6,160.1 357.8,160.1 359.0,160.1 360.2,160.1 361.3,160.1 362.5,160.1 363.7,160.1 364.9,160.1 366.1,160.1 367.3,160.1 368.5,160.1 369.7,160.1 370.8,160.1 372.0,160.1 373.2,160.1 374.4,160.1 375.6,160.1 376.8,160.1 378.0,160.1 379.1,160.1 380.3,160.1 381.5,160.1 382.7,160.1 383.9,160.1 385.1,160.1 386.3,160.1 387.5,160.1 388.6,160.1 389.8,160.1 391.0,160.1 392.2,160.1 393.4,160.1 394.6,160.1 395.8,160.1 396.9,160.1 398.1,160.1 399.3,160.1 400.5,160.1 401.7,160.1 402.9,160.1 404.1,160.1 405.3,160.1 406.4,160.1 407.6,160.1 408.8,160.1 410.0,160.1 411.2,160.1 412.4,160.1 413.6,160.1 414.7,160.1 415.9,160.1 417.1,160.1 418.3,160.1 419.5,160.1 420.7,160.1 421.9,160.1 423.1,160.1 424.2,160.1 425.4,160.1 426.6,160.1 427.8,160.1 429.0,160.1 430.2,160.1 431.4,160.1 432.5,160.1 433.7,160.1 434.9,160.1 436.1,160.1 437.3,160.1 438.5,160.1 439.7,160.1 440.9,160.1 442.0,160.1 443.2,160.1 444.4,160.1 445.6,160.1 446.8,160.1 448.0,160.1 449.2,160.1 450.3,160.1 451.5,160.1 452.7,160.1 453.9,160.1 455.1,160.1 456.3,160.1 457.5,160.1 458.7,160.1 459.8,160.1 461.0,160.1 462.2,160.1 463.4,160.1 464.6,160.1 465.8,160.1 467.0,160.1 468.1,160.1 469.3,160.1 470.5,160.1 471.7,160.1 472.9,160.1 474.1,160.1 475.3,160.1 476.5,160.1 477.6,160.1 478.8,160.1 480.0,160.1 481.2,160.1 482.4,160.1 483.6,160.1 484.8,160.1 485.9,160.1 487.1,160.1 488.3,160.1 489.5,160.1 490.7,160.1 491.9,160.1 493.1,160.1 494.3,160.1 495.4,160.1 496.6,160.1 497.8,160.1 499.0,160.1 500.2,160.1 501.4,160.1 502.6,160.1 503.7,160.1 504.9,160.1 506.1,160.1 507.3,160.1 508.5,160.1 509.7,160.1 510.9,160.1 512.1,160.1 513.2,160.1 514.4,160.1 515.6,160.1 516.8,160.1 518.0,160.1 519.2,160.1 520.4,160.1 521.5,160.1 522.7,160.1 523.9,160.1 525.1,160.1 526.3,160.1 527.5,160.1 528.7,160.1 529.9,160.1 531.0,160.1 532.2,160.1 533.4,160.1 534.6,160.1 535.8,160.1 537.0,160.1 538.2,160.1 539.3,160.1 540.5,160.1 541.7,160.1 542.9,160.1 544.1,160.1 545.3,160.1 546.5,160.1 547.7,160.1 548.8,160.1 550.0,160.1 551.2,160.1 552.4,160.1 553.6,160.1 554.8,160.1 556.0,160.1 557.1,160.1 558.3,160.1 559.5,160.1 560.7,160.1 561.9,160.1 563.1,160.1 564.3,160.1 565.5,160.1 566.6,160.1 567.8,160.1 569.0,160.1 570.2,160.1 571.4,160.1 572.6,160.1 573.8,160.1 574.9,160.1 576.1,160.1 577.3,160.1 578.5,160.1 579.7,160.1 580.9,160.1 582.1,160.1 583.3,160.1 584.4,160.1 585.6,160.1 586.8,160.1 588.0,160.1 589.2,160.1 590.4,160.1 591.6,160.1 592.7,160.1 593.9,160.1 595.1,160.1 596.3,160.1 597.5,160.1 598.7,160.1 599.9,160.1 601.1,160.1 602.2,160.1 603.4,160.1 604.6,160.1 605.8,160.1 607.0,160.1 608.2,160.1 609.4,160.1 610.5,160.1 611.7,160.1 612.9,160.1 614.1,160.1 615.3,160.1 616.5,160.1 617.7,160.1 618.9,160.1 620.0,160.1 621.2,160.1 622.4,160.1 623.6,160.1 624.8,160.1 626.0,160.1 627.2,160.1 628.3,160.1 629.5,160.1 630.7,160.1 631.9,160.1 633.1,160.1 634.3,160.1 635.5,160.1 636.7,160.1 637.8,160.1 639.0,160.1 640.2,160.1 641.4,160.1 642.6,160.1 643.8,160.1 645.0,160.1 646.1,160.1 647.3,160.1 648.5,160.1 649.7,160.1 650.9,160.1 652.1,160.1 653.3,160.1 654.5,160.1 655.6,160.1 656.8,160.1 658.0,160.1 659.2,160.1 660.4,160.1 661.6,160.1 662.8,160.1 663.9,160.1 665.1,160.1 666.3,160.1 667.5,160.1 668.7,160.1 669.9,160.1 671.1,160.1 672.3,160.1 673.4,160.1 674.6,160.1 675.8,160.1 677.0,160.1 678.2,160.1 679.4,160.1 680.6,160.1 681.7,160.1 682.9,160.1 684.1,160.1 685.3,160.1 686.5,160.1 687.7,160.1 688.9,160.1 690.1,160.1 691.2,160.1 692.4,160.1 693.6,160.1 694.8,160.1 696.0,160.1 697.2,160.1 698.4,160.1 699.5,160.1 700.7,160.1 701.9,160.1 703.1,160.1 704.3,160.1 705.5,160.1 706.7,160.1 707.9,160.1 709.0,160.1 710.2,160.1 711.4,160.1 712.6,160.1 713.8,160.1 715.0,160.1 716.2,160.1 717.3,160.1 718.5,160.1 719.7,160.1 720.9,160.1 722.1,160.1 723.3,160.1 724.5,160.1 725.7,160.1 726.8,160.1 728.0,160.1 729.2,160.1 730.4,160.1 731.6,160.1 732.8,160.1 734.0,160.1 735.1,160.1 736.3,160.1 737.5,160.1 738.7,160.1 739.9,160.1 741.1,160.1 742.3,160.1 743.5,160.1 744.6,160.1 745.8,160.1 747.0,160.1 748.2,160.1 749.4,160.1 750.6,160.1 751.8,160.1 752.9,160.1 754.1,160.1 755.3,160.1 756.5,160.1 757.7,160.1 758.9,160.1 760.1,160.1 761.3,160.1 762.4,160.1 763.6,160.1 764.8,160.1 766.0,160.1"/>
<line x1="606" y1="42" x2="628" y2="42" stroke="#0f62fe" stroke-width="2.2"/>
<text x="634" y="46" font-family="Arial" font-size="12">heading_command_deg</text>
<polyline fill="none" stroke="#24a148" stroke-width="2.2" points="54.0,160.1 55.2,160.1 56.4,160.1 57.6,160.1 58.7,160.1 59.9,160.1 61.1,160.1 62.3,160.1 63.5,160.1 64.7,160.1 65.9,160.1 67.1,160.1 68.2,160.1 69.4,160.1 70.6,160.1 71.8,160.1 73.0,160.1 74.2,160.1 75.4,160.1 76.5,160.1 77.7,160.1 78.9,160.1 80.1,160.1 81.3,160.1 82.5,160.1 83.7,160.1 84.9,160.1 86.0,160.1 87.2,160.1 88.4,160.1 89.6,160.1 90.8,160.1 92.0,160.1 93.2,160.1 94.3,160.1 95.5,160.1 96.7,160.1 97.9,160.1 99.1,160.1 100.3,160.1 101.5,160.1 102.7,160.1 103.8,160.1 105.0,160.1 106.2,160.1 107.4,160.1 108.6,160.1 109.8,160.1 111.0,160.1 112.1,160.1 113.3,160.1 114.5,160.2 115.7,160.2 116.9,160.2 118.1,160.2 119.3,160.2 120.5,160.2 121.6,160.2 122.8,160.2 124.0,160.2 125.2,160.2 126.4,160.2 127.6,160.2 128.8,160.2 129.9,160.2 131.1,160.2 132.3,160.2 133.5,160.2 134.7,160.2 135.9,160.2 137.1,160.2 138.3,160.2 139.4,160.2 140.6,160.2 141.8,160.2 143.0,160.2 144.2,160.2 145.4,160.2 146.6,160.2 147.7,160.2 148.9,160.2 150.1,160.2 151.3,160.2 152.5,160.2 153.7,160.3 154.9,160.3 156.1,160.3 157.2,160.3 158.4,160.3 159.6,160.3 160.8,160.3 162.0,160.3 163.2,160.3 164.4,160.3 165.5,160.3 166.7,160.3 167.9,160.3 169.1,160.3 170.3,160.3 171.5,160.3 172.7,160.3 173.9,160.4 175.0,160.4 176.2,160.4 177.4,160.4 178.6,160.4 179.8,160.4 181.0,160.4 182.2,160.4 183.3,160.4 184.5,160.4 185.7,160.5 186.9,160.5 188.1,160.5 189.3,160.5 190.5,160.5 191.7,160.5 192.8,160.5 194.0,160.6 195.2,160.6 196.4,160.6 197.6,160.6 198.8,160.6 200.0,160.7 201.1,160.7 202.3,160.7 203.5,160.7 204.7,160.7 205.9,160.8 207.1,160.8 208.3,160.8 209.5,160.8 210.6,160.9 211.8,160.9 213.0,160.9 214.2,161.0 215.4,161.0 216.6,161.1 217.8,161.1 218.9,161.1 220.1,161.2 221.3,161.2 222.5,161.3 223.7,161.3 224.9,161.4 226.1,161.4 227.3,161.5 228.4,161.6 229.6,161.6 230.8,161.7 232.0,161.7 233.2,161.8 234.4,161.9 235.6,162.0 236.7,162.1 237.9,162.2 239.1,162.3 240.3,162.4 241.5,162.5 242.7,162.6 243.9,162.7 245.1,162.9 246.2,163.0 247.4,163.1 248.6,163.2 249.8,163.4 251.0,163.6 252.2,163.8 253.4,163.9 254.5,164.2 255.7,164.3 256.9,164.6 258.1,164.7 259.3,165.0 260.5,165.2 261.7,165.6 262.9,165.8 264.0,166.1 265.2,166.3 266.4,166.7 267.6,167.0 268.8,167.4 270.0,167.7 271.2,168.2 272.3,168.4 273.5,168.9 274.7,169.1 275.9,169.6 277.1,169.8 278.3,170.2 279.5,170.4 280.7,170.9 281.8,171.1 283.0,171.5 284.2,171.7 285.4,172.0 286.6,172.3 287.8,172.7 289.0,173.0 290.1,173.4 291.3,173.6 292.5,173.9 293.7,173.9 294.9,174.2 296.1,174.2 297.3,174.4 298.5,174.4 299.6,174.5 300.8,174.3 302.0,174.4 303.2,174.2 304.4,174.3 305.6,174.3 306.8,174.5 307.9,174.6 309.1,175.0 310.3,175.1 311.5,175.5 312.7,175.7 313.9,176.1 315.1,176.1 316.3,176.4 317.4,176.4 318.6,176.6 319.8,176.6 321.0,176.8 322.2,176.7 323.4,177.0 324.6,176.8 325.7,177.1 326.9,177.0 328.1,177.3 329.3,177.3 330.5,177.7 331.7,177.7 332.9,178.1 334.1,178.1 335.2,178.5 336.4,178.5 337.6,178.9 338.8,178.9 340.0,179.2 341.2,179.2 342.4,179.5 343.5,179.3 344.7,179.6 345.9,179.4 347.1,179.7 348.3,179.5 349.5,179.8 350.7,179.7 351.9,180.0 353.0,179.9 354.2,180.3 355.4,180.4 356.6,180.8 357.8,180.9 359.0,181.4 360.2,181.4 361.3,181.8 362.5,181.8 363.7,182.2 364.9,182.2 366.1,182.5 367.3,182.3 368.5,182.6 369.7,182.5 370.8,182.8 372.0,182.7 373.2,183.0 374.4,182.9 375.6,183.3 376.8,183.5 378.0,184.1 379.1,184.2 380.3,184.6 381.5,184.8 382.7,185.4 383.9,185.5 385.1,185.6 386.3,186.0 387.5,185.8 388.6,186.1 389.8,185.9 391.0,186.2 392.2,186.2 393.4,186.6 394.6,186.6 395.8,187.1 396.9,187.1 398.1,187.7 399.3,187.7 400.5,188.2 401.7,188.2 402.9,188.6 404.1,188.6 405.3,189.2 406.4,189.1 407.6,189.6 408.8,189.6 410.0,190.1 411.2,190.0 412.4,190.5 413.6,190.5 414.7,190.9 415.9,190.8 417.1,191.2 418.3,191.1 419.5,191.6 420.7,191.8 421.9,192.4 423.1,192.5 424.2,193.0 425.4,193.1 426.6,193.6 427.8,193.7 429.0,194.2 430.2,194.2 431.4,194.8 432.5,194.8 433.7,195.2 434.9,195.2 436.1,195.6 437.3,195.7 438.5,196.2 439.7,196.2 440.9,196.8 442.0,197.0 443.2,197.6 444.4,197.7 445.6,198.4 446.8,198.6 448.0,199.2 449.2,199.3 450.3,199.9 451.5,200.0 452.7,200.5 453.9,200.7 455.1,201.1 456.3,201.3 457.5,201.7 458.7,201.9 459.8,202.3 461.0,202.6 462.2,203.0 463.4,203.4 464.6,203.8 465.8,204.2 467.0,204.7 468.1,205.1 469.3,205.6 470.5,206.0 471.7,206.5 472.9,206.9 474.1,207.3 475.3,207.7 476.5,208.0 477.6,208.4 478.8,208.8 480.0,209.1 481.2,209.5 482.4,209.9 483.6,210.3 484.8,210.7 485.9,211.2 487.1,211.7 488.3,212.3 489.5,212.9 490.7,213.5 491.9,214.2 493.1,214.9 494.3,215.6 495.4,216.4 496.6,217.2 497.8,218.0 499.0,218.8 500.2,219.6 501.4,220.5 502.6,221.4 503.7,222.3 504.9,223.2 506.1,224.2 507.3,225.2 508.5,226.3 509.7,227.5 510.9,228.6 512.1,229.8 513.2,230.9 514.4,232.0 515.6,233.2 516.8,234.3 518.0,235.5 519.2,236.6 520.4,237.8 521.5,238.9 522.7,240.1 523.9,241.3 525.1,242.5 526.3,243.6 527.5,244.8 528.7,246.0 529.9,247.2 531.0,248.4 532.2,249.6 533.4,250.9 534.6,252.1 535.8,253.3 537.0,254.5 538.2,255.8 539.3,257.0 540.5,258.3 541.7,259.6 542.9,260.8 544.1,262.1 545.3,263.4 546.5,264.7 547.7,266.0 548.8,55.1 550.0,56.4 551.2,57.7 552.4,59.0 553.6,60.3 554.8,61.3 556.0,61.8 557.1,61.9 558.3,61.7 559.5,61.2 560.7,60.5 561.9,59.9 563.1,59.3 564.3,58.8 565.5,58.2 566.6,57.6 567.8,57.0 569.0,56.3 570.2,55.6 571.4,54.8 572.6,54.0 573.8,265.3 574.9,264.4 576.1,263.6 577.3,262.8 578.5,262.4 579.7,262.5 580.9,263.1 582.1,264.2 583.3,265.4 584.4,54.5 585.6,55.6 586.8,56.8 588.0,57.9 589.2,59.0 590.4,60.2 591.6,61.4 592.7,62.7 593.9,64.0 595.1,65.5 596.3,67.0 597.5,68.7 598.7,70.7 599.9,73.2 601.1,76.3 602.2,80.7 603.4,87.6 604.6,99.9 605.8,119.9 607.0,139.8 608.2,151.8 609.4,159.0 610.5,164.4 611.7,169.0 612.9,173.1 614.1,177.0 615.3,180.8 616.5,184.6 617.7,188.5 618.9,192.6 620.0,197.0 621.2,201.9 622.4,206.9 623.6,211.5 624.8,215.5 626.0,219.1 627.2,222.0 628.3,224.4 629.5,226.1 630.7,227.2 631.9,227.7 633.1,227.7 634.3,227.3 635.5,226.4 636.7,225.0 637.8,223.2 639.0,220.9 640.2,218.0 641.4,214.6 642.6,211.3 643.8,208.3 645.0,205.7 646.1,203.6 647.3,201.9 648.5,200.5 649.7,199.3 650.9,198.1 652.1,196.8 653.3,195.9 654.5,195.4 655.6,195.6 656.8,196.5 658.0,197.9 659.2,199.9 660.4,202.3 661.6,205.0 662.8,207.5 663.9,209.8 665.1,211.5 666.3,212.7 667.5,213.3 668.7,213.4 669.9,213.0 671.1,212.0 672.3,210.6 673.4,208.6 674.6,206.2 675.8,203.8 677.0,201.7 678.2,199.9 679.4,198.4 680.6,197.1 681.7,195.9 682.9,194.8 684.1,193.7 685.3,192.5 686.5,191.3 687.7,190.1 688.9,188.8 690.1,187.6 691.2,186.4 692.4,185.2 693.6,184.0 694.8,182.9 696.0,181.9 697.2,180.8 698.4,179.7 699.5,178.6 700.7,177.4 701.9,176.2 703.1,175.0 704.3,173.9 705.5,172.7 706.7,171.6 707.9,170.5 709.0,169.4 710.2,168.4 711.4,167.3 712.6,166.2 713.8,165.2 715.0,164.1 716.2,163.0 717.3,161.8 718.5,160.6 719.7,159.4 720.9,158.0 722.1,156.5 723.3,154.7 724.5,152.6 725.7,150.0 726.8,146.6 728.0,141.9 729.2,135.2 730.4,125.3 731.6,112.0 732.8,98.1 734.0,87.1 735.1,79.6 736.3,74.7 737.5,71.3 738.7,68.8 739.9,66.7 741.1,64.9 742.3,63.4 743.5,62.2 744.6,61.3 745.8,60.6 747.0,60.1 748.2,59.8 749.4,59.7 750.6,59.7 751.8,59.9 752.9,60.3 754.1,60.7 755.3,61.2 756.5,61.8 757.7,62.4 758.9,63.0 760.1,63.7 761.3,64.4 762.4,65.0 763.6,65.6 764.8,66.2 766.0,66.7"/>
<line x1="606" y1="60" x2="628" y2="60" stroke="#24a148" stroke-width="2.2"/>
<text x="634" y="64" font-family="Arial" font-size="12">yaw_deg</text>
</svg>