<svg xmlns="http://www.w3.org/2000/svg" width="820" height="320" viewBox="0 0 820 320">
<rect width="100%" height="100%" fill="#ffffff"/>
<text x="54" y="28" font-family="Arial" font-size="18" font-weight="700">Horizon Pitch</text>
<line x1="54" y1="266" x2="766" y2="266" stroke="#1f2933"/>
<line x1="54" y1="54" x2="54" y2="266" stroke="#1f2933"/>
<text x="54" y="306" font-family="Arial" font-size="12">time (s)</text>
<text x="596" y="306" font-family="Arial" font-size="12">pitch (deg)</text>
<text x="58" y="68" font-family="Arial" font-size="11">9.12</text>
<text x="58" y="260" font-family="Arial" font-size="11">-84.2</text>
<polyline fill="none" stroke="#0f62fe" stroke-width="2.2" points="54.0,58.8 55.2,58.3 56.4,57.5 57.6,56.9 58.7,56.5 59.9,56.2 61.1,55.9 62.3,55.6 63.5,55.4 64.7,55.2 65.9,55.1 67.1,55.0 68.2,54.9 69.4,54.9 70.6,54.7 71.8,54.6 73.0,54.7 74.2,54.7 75.4,54.8 76.5,54.8 77.7,54.8 78.9,54.9 80.1,55.0 81.3,55.1 82.5,55.1 83.7,55.2 84.9,55.5 86.0,55.6 87.2,55.6 88.4,55.7 89.6,55.8 90.8,55.9 92.0,56.0 93.2,56.2 94.3,56.3 95.5,56.4 96.7,56.5 97.9,56.7 99.1,56.9 100.3,57.0 101.5,57.2 102.7,57.4 103.8,57.4 105.0,57.6 106.2,57.7 107.4,57.9 108.6,58.0 109.8,58.2 111.0,58.4 112.1,58.6 113.3,58.7 114.5,58.9 115.7,59.1 116.9,59.3 118.1,59.4 119.3,59.5 120.5,59.7 121.6,59.9 122.8,60.0 124.0,60.2 125.2,60.2 126.4,60.3 127.6,60.5 128.8,60.4 129.9,60.4 131.1,60.5 132.3,60.5 133.5,60.4 134.7,60.5 135.9,60.6 137.1,60.6 138.3,60.7 139.4,60.8 140.6,60.8 141.8,61.1 143.0,61.1 144.2,61.2 145.4,61.4 146.6,61.6 147.7,61.8 148.9,62.0 150.1,62.2 151.3,62.4 152.5,62.6 153.7,62.8 154.9,63.0 156.1,63.4 157.2,63.4 158.4,63.7 159.6,63.9 160.8,64.0 162.0,64.2 163.2,64.3 164.4,64.4 165.5,64.5 166.7,64.6 167.9,64.7 169.1,64.7 170.3,64.8 171.5,64.9 172.7,65.0 173.9,65.1 175.0,65.2 176.2,65.3 177.4,65.5 178.6,65.7 179.8,65.8 181.0,66.0 182.2,66.2 183.3,66.4 184.5,66.9 185.7,66.8 186.9,67.1 188.1,67.2 189.3,67.3 190.5,67.3 191.7,67.3 192.8,67.3 194.0,67.3 195.2,67.2 196.4,67.2 197.6,67.1 198.8,67.2 200.0,67.0 201.1,67.1 202.3,67.2 203.5,67.2 204.7,67.3 205.9,67.4 207.1,67.4 208.3,67.6 209.5,67.7 210.6,68.0 211.8,68.1 213.0,68.3 214.2,68.3 215.4,68.4 216.6,68.4 217.8,68.4 218.9,68.4 220.1,68.4 221.3,68.3 222.5,68.1 223.7,68.1 224.9,67.9 226.1,67.8 227.3,68.2 228.4,67.7 229.6,67.9 230.8,67.9 232.0,67.9 233.2,68.0 234.4,68.1 235.6,68.2 236.7,68.4 237.9,68.6 239.1,68.9 240.3,69.1 241.5,69.5 242.7,69.6 243.9,69.8 245.1,70.0 246.2,70.1 247.4,70.4 248.6,70.5 249.8,70.7 251.0,70.7 252.2,70.9 253.4,70.9 254.5,71.0 255.7,71.3 256.9,71.1 258.1,71.2 259.3,71.2 260.5,71.2 261.7,71.3 262.9,71.4 264.0,71.5 265.2,71.7 266.4,71.8 267.6,72.0 268.8,72.3 270.0,72.9 271.2,73.0 272.3,73.3 273.5,73.7 274.7,74.0 275.9,74.3 277.1,74.6 278.3,74.9 279.5,75.0 280.7,75.2 281.8,75.3 283.0,75.4 284.2,75.6 285.4,75.5 286.6,75.5 287.8,75.5 289.0,75.4 290.1,75.4 291.3,75.4 292.5,75.5 293.7,75.6 294.9,75.9 296.1,76.2 297.3,76.6 298.5,77.1 299.6,77.5 300.8,77.8 302.0,78.3 303.2,78.7 304.4,79.0 305.6,79.4 306.8,79.8 307.9,80.1 309.1,80.4 310.3,80.7 311.5,80.9 312.7,81.2 313.9,81.3 315.1,81.3 316.3,81.4 317.4,81.4 318.6,81.4 319.8,81.5 321.0,81.5 322.2,81.7 323.4,81.9 324.6,82.1 325.7,82.3 326.9,82.9 328.1,83.3 329.3,83.7 330.5,84.2 331.7,84.8 332.9,85.3 334.1,85.8 335.2,86.3 336.4,86.8 337.6,87.3 338.8,87.7 340.0,88.0 341.2,88.5 342.4,88.8 343.5,89.1 344.7,89.5 345.9,89.9 347.1,90.2 348.3,90.6 349.5,90.9 350.7,91.3 351.9,91.8 353.0,92.2 354.2,92.7 355.4,93.2 356.6,93.8 357.8,94.3 359.0,94.9 360.2,95.5 361.3,96.0 362.5,96.6 363.7,97.1 364.9,97.7 366.1,98.2 367.3,98.8 368.5,99.3 369.7,99.9 370.8,100.4 372.0,100.9 373.2,101.5 374.4,102.0 375.6,102.5 376.8,103.1 378.0,103.7 379.1,104.2 380.3,104.8 381.5,105.4 382.7,106.0 383.9,106.6 385.1,107.2 386.3,107.8 387.5,108.4 388.6,109.0 389.8,109.6 391.0,110.2 392.2,110.8 393.4,111.4 394.6,112.0 395.8,112.6 396.9,113.3 398.1,113.9 399.3,114.6 400.5,115.2 401.7,115.9 402.9,116.6 404.1,117.3 405.3,118.0 406.4,118.7 407.6,119.5 408.8,120.3 410.0,120.9 411.2,121.4 412.4,121.5 413.6,121.2 414.7,120.4 415.9,119.1 417.1,117.5 418.3,115.6 419.5,113.6 420.7,111.7 421.9,109.8 423.1,107.9 424.2,106.2 425.4,104.5 426.6,102.9 427.8,101.3 429.0,99.8 430.2,98.3 431.4,96.8 432.5,95.4 433.7,94.0 434.9,92.7 436.1,91.4 437.3,90.1 438.5,88.8 439.7,87.5 440.9,86.3 442.0,85.1 443.2,84.1 444.4,83.5 445.6,83.5 446.8,84.3 448.0,86.1 449.2,88.9 450.3,92.5 451.5,96.8 452.7,101.7 453.9,107.0 455.1,112.6 456.3,118.7 457.5,125.1 458.7,132.0 459.8,139.4 461.0,147.3 462.2,155.8 463.4,164.7 464.6,174.3 465.8,184.4 467.0,195.1 468.1,206.4 469.3,218.2 470.5,230.5 471.7,243.2 472.9,255.7 474.1,266.0 475.3,264.8 476.5,253.1 477.6,239.4 478.8,225.7 480.0,212.3 481.2,199.3 482.4,186.5 483.6,174.1 484.8,161.9 485.9,149.9 487.1,138.4 488.3,127.1 489.5,116.5 490.7,106.6 491.9,98.2 493.1,91.8 494.3,87.8 495.4,86.1 496.6,86.6 497.8,89.0 499.0,93.2 500.2,98.9 501.4,106.0 502.6,114.2 503.7,123.3 504.9,133.2 506.1,143.4 507.3,153.3 508.5,162.3 509.7,168.1 510.9,170.4 512.1,169.6 513.2,166.4 514.4,161.5 515.6,155.4 516.8,148.8 518.0,142.0 519.2,135.4 520.4,129.2 521.5,124.1 522.7,120.7 523.9,119.1 525.1,119.4 526.3,121.6 527.5,125.6 528.7,131.3 529.9,137.8 531.0,143.9 532.2,149.3 533.4,154.0 534.6,158.4 535.8,162.4 537.0,165.9 538.2,169.0 539.3,171.6 540.5,174.0 541.7,176.1 542.9,178.1 544.1,179.8 545.3,181.5 546.5,182.9 547.7,184.3 548.8,185.4 550.0,186.5 551.2,187.7 552.4,188.9 553.6,190.4 554.8,192.0 556.0,193.9 557.1,196.0 558.3,198.5 559.5,201.4 560.7,204.6 561.9,208.2 563.1,212.1 564.3,216.4 565.5,220.8 566.6,225.3 567.8,229.8 569.0,234.2 570.2,238.2 571.4,241.6 572.6,244.4 573.8,246.2 574.9,246.8 576.1,246.3 577.3,244.7 578.5,242.1 579.7,238.9 580.9,235.2 582.1,231.2 583.3,226.9 584.4,222.4 585.6,217.8 586.8,213.2 588.0,208.4 589.2,203.7 590.4,198.9 591.6,194.1 592.7,189.3 593.9,184.6 595.1,179.8 596.3,175.4 597.5,170.9 598.7,166.8 599.9,163.0 601.1,159.2 602.2,155.6 603.4,152.2 604.6,149.0 605.8,145.8 607.0,142.9 608.2,140.0 609.4,137.3 610.5,134.7 611.7,131.3 612.9,128.2 614.1,126.3 615.3,124.4 616.5,122.2 617.7,120.1 618.9,118.3 620.0,116.5 621.2,114.8 622.4,113.2 623.6,111.7 624.8,110.3 626.0,108.3 627.2,106.7 628.3,105.9 629.5,105.2 630.7,104.4 631.9,103.8 633.1,103.4 634.3,103.2 635.5,103.3 636.7,103.6 637.8,104.1 639.0,105.0 640.2,106.2 641.4,108.0 642.6,110.3 643.8,113.2 645.0,116.6 646.1,120.4 647.3,124.5 648.5,128.9 649.7,133.4 650.9,137.9 652.1,142.1 653.3,146.0 654.5,149.1 655.6,151.3 656.8,152.3 658.0,151.7 659.2,149.5 660.4,145.3 661.6,140.2 662.8,134.9 663.9,130.1 665.1,125.4 666.3,120.5 667.5,115.7 668.7,110.8 669.9,106.7 671.1,103.4 672.3,100.6 673.4,98.4 674.6,96.6 675.8,95.4 677.0,94.8 678.2,94.6 679.4,95.0 680.6,96.1 681.7,98.2 682.9,101.6 684.1,106.3 685.3,112.4 686.5,120.0 687.7,128.6 688.9,138.0 690.1,147.6 691.2,156.9 692.4,165.7 693.6,173.5 694.8,180.0 696.0,184.9 697.2,188.1 698.4,189.5 699.5,189.3 700.7,187.6 701.9,184.8 703.1,181.2 704.3,176.8 705.5,171.8 706.7,166.7 707.9,161.8 709.0,157.0 710.2,152.4 711.4,147.1 712.6,142.1 713.8,137.7 715.0,133.6 716.2,129.6 717.3,125.7 718.5,122.2 719.7,119.2 720.9,116.6 722.1,114.4 723.3,112.6 724.5,111.3 725.7,109.9 726.8,109.1 728.0,108.8 729.2,108.9 730.4,109.3 731.6,110.1 732.8,111.2 734.0,112.4 735.1,113.8 736.3,115.1 737.5,116.3 738.7,117.2 739.9,117.8 741.1,118.0 742.3,118.0 743.5,117.5 744.6,116.8 745.8,115.8 747.0,114.7 748.2,113.7 749.4,112.8 750.6,112.0 751.8,111.2 752.9,110.6 754.1,109.9 755.3,109.2 756.5,108.7 757.7,108.2 758.9,107.7 760.1,107.3 761.3,106.9 762.4,106.6 763.6,106.3 764.8,106.1 766.0,106.1"/>
<line x1="606" y1="42" x2="628" y2="42" stroke="#0f62fe" stroke-width="2.2"/>
<text x="634" y="46" font-family="Arial" font-size="12">pitch_deg</text>
<polyline fill="none" stroke="#24a148" stroke-width="2.2" points="54.0,58.6 55.2,58.6 56.4,56.9 57.6,56.9 58.7,56.6 59.9,56.6 61.1,55.7 62.3,55.7 63.5,55.1 64.7,55.1 65.9,55.1 67.1,55.1 68.2,54.8 69.4,54.8 70.6,56.7 71.8,56.7 73.0,54.0 74.2,54.0 75.4,55.2 76.5,55.2 77.7,55.4 78.9,55.4 80.1,56.6 81.3,56.6 82.5,54.7 83.7,54.7 84.9,56.6 86.0,56.6 87.2,55.9 88.4,55.9 89.6,57.3 90.8,57.3 92.0,56.1 93.2,56.1 94.3,57.1 95.5,57.1 96.7,57.0 97.9,57.0 99.1,57.1 100.3,57.1 101.5,55.3 102.7,55.3 103.8,56.4 105.0,56.4 106.2,57.9 107.4,57.9 108.6,58.7 109.8,58.7 111.0,59.6 112.1,59.6 113.3,57.4 114.5,57.4 115.7,59.1 116.9,59.1 118.1,59.7 119.3,59.7 120.5,59.5 121.6,59.5 122.8,58.8 124.0,58.8 125.2,59.7 126.4,59.7 127.6,60.8 128.8,60.8 129.9,60.7 131.1,60.7 132.3,60.2 133.5,60.2 134.7,61.4 135.9,61.4 137.1,62.6 138.3,62.6 139.4,59.9 140.6,59.9 141.8,60.9 143.0,60.9 144.2,61.7 145.4,61.7 146.6,62.6 147.7,62.6 148.9,61.6 150.1,61.6 151.3,62.1 152.5,62.1 153.7,64.3 154.9,64.3 156.1,62.8 157.2,62.8 158.4,63.8 159.6,63.8 160.8,62.9 162.0,62.9 163.2,62.7 164.4,62.7 165.5,64.5 166.7,64.5 167.9,64.5 169.1,64.5 170.3,62.8 171.5,62.8 172.7,65.8 173.9,65.8 175.0,64.5 176.2,64.5 177.4,67.0 178.6,67.0 179.8,63.9 181.0,63.9 182.2,66.9 183.3,66.9 184.5,66.1 185.7,66.1 186.9,67.8 188.1,67.8 189.3,67.2 190.5,67.2 191.7,66.8 192.8,66.8 194.0,67.0 195.2,67.0 196.4,67.5 197.6,67.5 198.8,67.0 200.0,67.0 201.1,69.0 202.3,69.0 203.5,67.5 204.7,67.5 205.9,67.5 207.1,67.5 208.3,66.8 209.5,66.8 210.6,68.4 211.8,68.4 213.0,67.2 214.2,67.2 215.4,68.7 216.6,68.7 217.8,67.5 218.9,67.5 220.1,68.7 221.3,68.7 222.5,67.4 223.7,67.4 224.9,68.0 226.1,68.0 227.3,67.3 228.4,67.3 229.6,68.1 230.8,68.1 232.0,68.2 233.2,68.2 234.4,68.4 235.6,68.4 236.7,67.5 237.9,67.5 239.1,67.6 240.3,67.6 241.5,68.4 242.7,68.4 243.9,69.6 245.1,69.6 246.2,71.5 247.4,71.5 248.6,69.8 249.8,69.8 251.0,69.5 252.2,69.5 253.4,71.0 254.5,71.0 255.7,71.5 256.9,71.5 258.1,71.4 259.3,71.4 260.5,70.6 261.7,70.6 262.9,69.9 264.0,69.9 265.2,72.4 266.4,72.4 267.6,72.0 268.8,72.0 270.0,72.7 271.2,72.7 272.3,72.7 273.5,72.7 274.7,74.0 275.9,74.0 277.1,75.0 278.3,75.0 279.5,74.4 280.7,74.4 281.8,75.0 283.0,75.0 284.2,76.5 285.4,76.5 286.6,76.1 287.8,76.1 289.0,75.9 290.1,75.9 291.3,76.0 292.5,76.0 293.7,77.1 294.9,77.1 296.1,75.4 297.3,75.4 298.5,77.7 299.6,77.7 300.8,76.2 302.0,76.2 303.2,80.2 304.4,80.2 305.6,79.0 306.8,79.0 307.9,78.4 309.1,78.4 310.3,81.0 311.5,81.0 312.7,81.2 313.9,81.2 315.1,81.0 316.3,81.0 317.4,81.4 318.6,81.4 319.8,81.0 321.0,81.0 322.2,80.1 323.4,80.1 324.6,82.3 325.7,82.3 326.9,83.5 328.1,83.5 329.3,83.5 330.5,83.5 331.7,83.9 332.9,83.9 334.1,86.4 335.2,86.4 336.4,85.0 337.6,85.0 338.8,87.6 340.0,87.6 341.2,88.8 342.4,88.8 343.5,89.8 344.7,89.8 345.9,89.3 347.1,89.3 348.3,92.0 349.5,92.0 350.7,91.9 351.9,91.9 353.0,92.3 354.2,92.3 355.4,93.3 356.6,93.3 357.8,94.3 359.0,94.3 360.2,95.6 361.3,95.6 362.5,95.6 363.7,95.6 364.9,95.6 366.1,95.6 367.3,95.6 368.5,95.6 369.7,95.6 370.8,95.6 372.0,95.6 373.2,95.6 374.4,95.6 375.6,95.6 376.8,95.6 378.0,95.6 379.1,95.6 380.3,95.6 381.5,95.6 382.7,95.6 383.9,95.6 385.1,95.6 386.3,95.6 387.5,95.6 388.6,95.6 389.8,95.6 391.0,110.4 392.2,110.4 393.4,111.7 394.6,111.7 395.8,113.5 396.9,113.5 398.1,114.6 399.3,114.6 400.5,115.4 401.7,115.4 402.9,117.2 404.1,117.2 405.3,118.7 406.4,118.7 407.6,120.2 408.8,120.2 410.0,120.3 411.2,120.3 412.4,120.5 413.6,120.5 414.7,120.1 415.9,120.1 417.1,115.4 418.3,115.4 419.5,114.0 420.7,114.0 421.9,110.9 423.1,110.9 424.2,110.9 425.4,110.9 426.6,110.9 427.8,110.9 429.0,110.9 430.2,110.9 431.4,110.9 432.5,110.9 433.7,110.9 434.9,110.9 436.1,110.9 437.3,110.9 438.5,110.9 439.7,110.9 440.9,110.9 442.0,110.9 443.2,110.9 444.4,110.9 445.6,110.9 446.8,110.9 448.0,110.9 449.2,110.9 450.3,110.9 451.5,110.9 452.7,110.9 453.9,110.9 455.1,110.9 456.3,110.9 457.5,110.9 458.7,110.9 459.8,110.9 461.0,110.9 462.2,110.9 463.4,110.9 464.6,110.9 465.8,110.9 467.0,110.9 468.1,110.9 469.3,110.9 470.5,110.9 471.7,110.9 472.9,110.9 474.1,110.9 475.3,110.9 476.5,254.4 477.6,254.4 478.8,226.5 480.0,226.5 481.2,198.3 482.4,198.3 483.6,198.3 484.8,198.3 485.9,198.3 487.1,198.3 488.3,198.3 489.5,198.3 490.7,198.3 491.9,198.3 493.1,198.3 494.3,198.3 495.4,198.3 496.6,198.3 497.8,198.3 499.0,198.3 500.2,198.3 501.4,198.3 502.6,198.3 503.7,198.3 504.9,198.3 506.1,198.3 507.3,198.3 508.5,198.3 509.7,198.3 510.9,198.3 512.1,198.3 513.2,198.3 514.4,198.3 515.6,198.3 516.8,198.3 518.0,198.3 519.2,198.3 520.4,198.3 521.5,198.3 522.7,198.3 523.9,198.3 525.1,198.3 526.3,198.3 527.5,198.3 528.7,198.3 529.9,198.3 531.0,198.3 532.2,198.3 533.4,198.3 534.6,198.3 535.8,198.3 537.0,198.3 538.2,198.3 539.3,198.3 540.5,198.3 541.7,198.3 542.9,198.3 544.1,198.3 545.3,198.3 546.5,198.3 547.7,198.3 548.8,198.3 550.0,198.3 551.2,198.3 552.4,198.3 553.6,198.3 554.8,198.3 556.0,198.3 557.1,198.3 558.3,198.3 559.5,198.3 560.7,198.3 561.9,198.3 563.1,198.3 564.3,198.3 565.5,198.3 566.6,198.3 567.8,198.3 569.0,198.3 570.2,198.3 571.4,240.5 572.6,240.5 573.8,247.0 574.9,247.0 576.1,246.0 577.3,246.0 578.5,242.4 579.7,242.4 580.9,235.9 582.1,235.9 583.3,227.5 584.4,227.5 585.6,216.9 586.8,216.9 588.0,208.2 589.2,208.2 590.4,198.7 591.6,198.7 592.7,189.4 593.9,189.4 595.1,178.5 596.3,178.5 597.5,170.3 598.7,170.3 599.9,162.5 601.1,162.5 602.2,154.8 603.4,154.8 604.6,148.1 605.8,148.1 607.0,143.6 608.2,143.6 609.4,137.0 610.5,137.0 611.7,130.0 612.9,130.0 614.1,126.3 615.3,126.3 616.5,122.5 617.7,122.5 618.9,119.4 620.0,119.4 621.2,115.3 622.4,115.3 623.6,112.3 624.8,112.3 626.0,107.7 627.2,107.7 628.3,106.0 629.5,106.0 630.7,104.3 631.9,104.3 633.1,104.1 634.3,104.1 635.5,103.5 636.7,103.5 637.8,103.6 639.0,103.6 640.2,105.9 641.4,105.9 642.6,109.4 643.8,109.4 645.0,115.2 646.1,115.2 647.3,124.6 648.5,124.6 649.7,132.6 650.9,132.6 652.1,142.4 653.3,142.4 654.5,149.3 655.6,149.3 656.8,152.7 658.0,152.7 659.2,150.2 660.4,150.2 661.6,141.2 662.8,141.2 663.9,127.7 665.1,127.7 666.3,121.9 667.5,121.9 668.7,112.4 669.9,112.4 671.1,103.5 672.3,103.5 673.4,99.4 674.6,99.4 675.8,95.3 677.0,95.3 678.2,95.0 679.4,95.0 680.6,97.0 681.7,97.0 682.9,100.0 684.1,100.0 685.3,112.4 686.5,112.4 687.7,128.6 688.9,128.6 690.1,146.7 691.2,146.7 692.4,165.8 693.6,165.8 694.8,181.1 696.0,181.1 697.2,189.7 698.4,189.7 699.5,191.3 700.7,191.3 701.9,184.1 703.1,184.1 704.3,177.0 705.5,177.0 706.7,168.2 707.9,168.2 709.0,158.8 710.2,158.8 711.4,148.2 712.6,148.2 713.8,138.1 715.0,138.1 716.2,128.8 717.3,128.8 718.5,121.7 719.7,121.7 720.9,115.1 722.1,115.1 723.3,112.0 724.5,112.0 725.7,109.7 726.8,109.7 728.0,109.1 729.2,109.1 730.4,108.2 731.6,108.2 732.8,111.0 734.0,111.0 735.1,112.9 736.3,112.9 737.5,116.4 738.7,116.4 739.9,117.1 741.1,117.1 742.3,117.3 743.5,117.3 744.6,117.2 745.8,117.2 747.0,115.1 748.2,115.1 749.4,112.5 750.6,112.5 751.8,110.8 752.9,110.8 754.1,109.6 755.3,109.6 756.5,109.3 757.7,109.3 758.9,107.4 760.1,107.4 761.3,108.0 762.4,108.0 763.6,105.9 764.8,105.9 766.0,105.6"/>
<line x1="606" y1="60" x2="628" y2="60" stroke="#24a148" stroke-width="2.2"/>
<text x="634" y="64" font-family="Arial" font-size="12">horizon_pitch_deg</text>
</svg>