<svg xmlns="http://www.w3.org/2000/svg" width="820" height="320" viewBox="0 0 820 320">
<rect width="100%" height="100%" fill="#ffffff"/>
<text x="54" y="28" font-family="Arial" font-size="18" font-weight="700">IMU Norms</text>
<line x1="54" y1="266" x2="766" y2="266" stroke="#1f2933"/>
<line x1="54" y1="54" x2="54" y2="266" stroke="#1f2933"/>
<text x="54" y="306" font-family="Arial" font-size="12">time (s)</text>
<text x="596" y="306" font-family="Arial" font-size="12">norm</text>
<text x="58" y="68" font-family="Arial" font-size="11">39.3</text>
<text x="58" y="260" font-family="Arial" font-size="11">0.00303</text>
<polyline fill="none" stroke="#0f62fe" stroke-width="2.2" points="54.0,174.8 55.2,173.8 56.4,172.7 57.6,171.1 58.7,169.1 59.9,168.0 61.1,166.8 62.3,164.8 63.5,163.2 64.7,161.7 65.9,160.3 67.1,158.7 68.2,156.6 69.4,155.3 70.6,154.8 71.8,154.5 73.0,154.6 74.2,155.0 75.4,154.7 76.5,154.8 77.7,154.5 78.9,154.5 80.1,155.0 81.3,155.2 82.5,155.0 83.7,154.7 84.9,154.9 86.0,155.2 87.2,154.8 88.4,154.9 89.6,154.8 90.8,154.7 92.0,154.5 93.2,154.7 94.3,154.3 95.5,154.9 96.7,154.1 97.9,154.2 99.1,153.8 100.3,153.5 101.5,153.4 102.7,153.8 103.8,153.4 105.0,153.1 106.2,153.2 107.4,153.1 108.6,152.4 109.8,152.2 111.0,151.9 112.1,151.7 113.3,151.2 114.5,151.7 115.7,150.8 116.9,150.9 118.1,150.7 119.3,150.0 120.5,149.9 121.6,149.2 122.8,149.0 124.0,149.1 125.2,149.2 126.4,149.2 127.6,149.9 128.8,150.2 129.9,150.2 131.1,150.4 132.3,150.5 133.5,149.6 134.7,150.1 135.9,149.9 137.1,149.5 138.3,149.8 139.4,149.5 140.6,149.4 141.8,150.3 143.0,148.9 144.2,148.6 145.4,148.1 146.6,147.4 147.7,146.2 148.9,145.9 150.1,145.7 151.3,145.4 152.5,145.3 153.7,144.3 154.9,142.6 156.1,143.6 157.2,141.0 158.4,141.2 159.6,141.0 160.8,140.4 162.0,140.7 163.2,140.2 164.4,140.2 165.5,140.1 166.7,139.3 167.9,140.4 169.1,139.1 170.3,140.2 171.5,139.4 172.7,140.0 173.9,140.0 175.0,139.6 176.2,139.0 177.4,137.8 178.6,136.8 179.8,135.0 181.0,134.6 182.2,133.4 183.3,130.3 184.5,130.6 185.7,126.8 186.9,127.4 188.1,125.7 189.3,126.8 190.5,127.0 191.7,127.6 192.8,128.0 194.0,128.7 195.2,128.5 196.4,130.6 197.6,129.1 198.8,131.2 200.0,128.1 201.1,127.0 202.3,125.1 203.5,125.6 204.7,124.3 205.9,124.4 207.1,121.7 208.3,122.0 209.5,118.3 210.6,117.0 211.8,114.9 213.0,115.3 214.2,114.9 215.4,113.3 216.6,112.5 217.8,111.5 218.9,111.0 220.1,110.8 221.3,112.3 222.5,112.1 223.7,113.0 224.9,113.7 226.1,113.0 227.3,117.1 228.4,112.0 229.6,115.0 230.8,113.2 232.0,112.8 233.2,113.6 234.4,112.9 235.6,111.4 236.7,109.9 237.9,108.5 239.1,106.9 240.3,105.0 241.5,105.2 242.7,103.5 243.9,103.3 245.1,103.3 246.2,102.0 247.4,102.3 248.6,98.0 249.8,99.3 251.0,97.9 252.2,98.6 253.4,97.0 254.5,94.7 255.7,97.3 256.9,94.1 258.1,95.3 259.3,95.9 260.5,95.7 261.7,95.0 262.9,96.2 264.0,97.0 265.2,96.4 266.4,95.7 267.6,95.2 268.8,92.2 270.0,93.9 271.2,90.4 272.3,88.8 273.5,87.3 274.7,82.6 275.9,81.3 277.1,78.3 278.3,76.1 279.5,75.1 280.7,75.5 281.8,74.2 283.0,72.4 284.2,74.5 285.4,73.5 286.6,75.1 287.8,77.1 289.0,79.3 290.1,79.8 291.3,80.8 292.5,80.8 293.7,80.2 294.9,79.3 296.1,78.2 297.3,75.5 298.5,73.2 299.6,71.2 300.8,66.7 302.0,63.9 303.2,61.5 304.4,58.7 305.6,58.0 306.8,57.3 307.9,55.9 309.1,54.0 310.3,56.8 311.5,57.0 312.7,61.7 313.9,60.4 315.1,60.1 316.3,62.6 317.4,63.7 318.6,65.5 319.8,65.4 321.0,65.9 322.2,66.4 323.4,68.0 324.6,67.4 325.7,65.2 326.9,68.7 328.1,66.4 329.3,66.2 330.5,67.0 331.7,68.5 332.9,69.7 334.1,71.8 335.2,72.0 336.4,74.2 337.6,75.1 338.8,75.9 340.0,74.8 341.2,79.8 342.4,81.1 343.5,82.4 344.7,85.0 345.9,87.2 347.1,88.3 348.3,89.6 349.5,92.1 350.7,92.2 351.9,93.5 353.0,96.4 354.2,98.5 355.4,99.7 356.6,100.9 357.8,103.6 359.0,103.0 360.2,102.4 361.3,101.6 362.5,100.2 363.7,97.6 364.9,96.7 366.1,95.2 367.3,93.5 368.5,91.9 369.7,91.4 370.8,90.7 372.0,89.0 373.2,87.6 374.4,85.1 375.6,85.2 376.8,85.1 378.0,84.2 379.1,84.5 380.3,83.7 381.5,82.0 382.7,80.2 383.9,78.0 385.1,77.1 386.3,75.9 387.5,75.2 388.6,75.0 389.8,74.0 391.0,74.4 392.2,73.3 393.4,72.4 394.6,71.1 395.8,70.0 396.9,70.0 398.1,70.6 399.3,70.5 400.5,69.5 401.7,68.4 402.9,67.2 404.1,67.1 405.3,67.9 406.4,67.1 407.6,67.3 408.8,68.0 410.0,68.2 411.2,70.2 412.4,70.2 413.6,70.9 414.7,71.7 415.9,72.5 417.1,72.4 418.3,74.1 419.5,76.0 420.7,79.1 421.9,80.0 423.1,82.3 424.2,84.6 425.4,85.5 426.6,87.9 427.8,89.4 429.0,91.0 430.2,93.0 431.4,95.5 432.5,96.8 433.7,97.9 434.9,99.5 436.1,100.9 437.3,102.9 438.5,104.1 439.7,106.6 440.9,109.0 442.0,109.8 443.2,110.3 444.4,111.8 445.6,114.4 446.8,116.1 448.0,117.1 449.2,118.5 450.3,118.4 451.5,117.9 452.7,117.9 453.9,117.7 455.1,118.2 456.3,117.3 457.5,117.8 458.7,117.8 459.8,118.3 461.0,119.6 462.2,119.6 463.4,119.8 464.6,120.1 465.8,121.0 467.0,121.0 468.1,122.0 469.3,123.4 470.5,124.4 471.7,125.4 472.9,126.6 474.1,127.5 475.3,128.9 476.5,129.5 477.6,131.0 478.8,131.7 480.0,133.0 481.2,134.5 482.4,136.7 483.6,139.0 484.8,141.2 485.9,143.3 487.1,144.7 488.3,140.4 489.5,133.1 490.7,135.3 491.9,141.9 493.1,139.1 494.3,133.9 495.4,122.7 496.6,122.3 497.8,125.2 499.0,126.9 500.2,126.6 501.4,125.4 502.6,123.0 503.7,121.4 504.9,128.4 506.1,137.6 507.3,143.0 508.5,145.2 509.7,137.7 510.9,131.3 512.1,129.6 513.2,128.0 514.4,126.1 515.6,125.4 516.8,124.7 518.0,127.2 519.2,132.0 520.4,135.4 521.5,141.1 522.7,147.2 523.9,150.0 525.1,151.5 526.3,152.0 527.5,148.2 528.7,138.7 529.9,133.2 531.0,129.1 532.2,126.1 533.4,124.6 534.6,122.7 535.8,121.3 537.0,120.6 538.2,121.1 539.3,122.4 540.5,124.1 541.7,124.8 542.9,126.8 544.1,128.6 545.3,129.1 546.5,131.9 547.7,133.1 548.8,134.4 550.0,135.5 551.2,133.3 552.4,132.1 553.6,130.7 554.8,128.1 556.0,127.0 557.1,125.3 558.3,124.7 559.5,122.6 560.7,121.8 561.9,120.7 563.1,120.8 564.3,120.6 565.5,121.4 566.6,120.7 567.8,120.4 569.0,137.5 570.2,138.0 571.4,138.9 572.6,140.4 573.8,141.1 574.9,142.9 576.1,145.2 577.3,146.4 578.5,147.7 579.7,146.4 580.9,146.5 582.1,147.1 583.3,148.4 584.4,148.6 585.6,148.5 586.8,148.7 588.0,148.6 589.2,149.6 590.4,150.2 591.6,150.4 592.7,151.3 593.9,150.9 595.1,150.3 596.3,151.7 597.5,152.5 598.7,152.2 599.9,153.6 601.1,153.7 602.2,154.6 603.4,154.0 604.6,154.0 605.8,154.2 607.0,154.7 608.2,155.1 609.4,156.5 610.5,158.4 611.7,156.0 612.9,155.9 614.1,157.6 615.3,159.4 616.5,159.9 617.7,161.3 618.9,163.1 620.0,163.9 621.2,164.1 622.4,164.5 623.6,165.0 624.8,166.7 626.0,165.8 627.2,164.6 628.3,165.1 629.5,165.7 630.7,165.1 631.9,165.0 633.1,165.3 634.3,165.0 635.5,164.4 636.7,163.2 637.8,163.6 639.0,164.8 640.2,165.0 641.4,166.0 642.6,168.0 643.8,168.8 645.0,169.0 646.1,169.9 647.3,170.6 648.5,171.2 649.7,172.4 650.9,173.9 652.1,174.9 653.3,176.7 654.5,178.6 655.6,180.3 656.8,181.4 658.0,182.3 659.2,184.3 660.4,184.5 661.6,188.8 662.8,191.3 663.9,192.5 665.1,190.2 666.3,186.3 667.5,181.1 668.7,173.4 669.9,169.3 671.1,169.0 672.3,168.3 673.4,173.7 674.6,185.9 675.8,196.6 677.0,208.1 678.2,214.8 679.4,217.8 680.6,219.1 681.7,218.4 682.9,215.0 684.1,210.1 685.3,204.5 686.5,201.6 687.7,201.3 688.9,200.6 690.1,198.2 691.2,195.6 692.4,190.8 693.6,191.2 694.8,191.3 696.0,191.3 697.2,189.9 698.4,189.9 699.5,188.4 700.7,187.2 701.9,187.9 703.1,187.7 704.3,188.3 705.5,189.3 706.7,189.7 707.9,191.0 709.0,192.1 710.2,194.7 711.4,195.1 712.6,195.5 713.8,196.7 715.0,197.8 716.2,197.2 717.3,196.6 718.5,196.1 719.7,195.5 720.9,194.8 722.1,194.2 723.3,194.1 724.5,194.1 725.7,193.3 726.8,193.1 728.0,193.1 729.2,194.1 730.4,194.5 731.6,195.1 732.8,195.7 734.0,196.0 735.1,196.2 736.3,195.7 737.5,196.3 738.7,195.5 739.9,195.0 741.1,195.4 742.3,195.3 743.5,195.5 744.6,194.4 745.8,195.0 747.0,195.0 748.2,194.9 749.4,194.9 750.6,195.2 751.8,195.2 752.9,195.5 754.1,196.1 755.3,195.9 756.5,195.6 757.7,196.1 758.9,196.4 760.1,197.3 761.3,197.6 762.4,197.2 763.6,197.9 764.8,197.3 766.0,197.9"/>
<line x1="606" y1="42" x2="628" y2="42" stroke="#0f62fe" stroke-width="2.2"/>
<text x="634" y="46" font-family="Arial" font-size="12">imu_accel_norm_mps2</text>
<polyline fill="none" stroke="#24a148" stroke-width="2.2" points="54.0,266.0 55.2,265.0 56.4,264.6 57.6,264.5 58.7,264.5 59.9,264.6 61.1,264.6 62.3,264.6 63.5,264.6 64.7,264.6 65.9,264.6 67.1,264.7 68.2,264.7 69.4,264.6 70.6,264.6 71.8,264.6 73.0,264.6 74.2,264.6 75.4,264.5 76.5,264.5 77.7,264.5 78.9,264.5 80.1,264.5 81.3,264.5 82.5,264.5 83.7,264.5 84.9,264.5 86.0,264.5 87.2,264.5 88.4,264.5 89.6,264.5 90.8,264.5 92.0,264.5 93.2,264.5 94.3,264.6 95.5,264.6 96.7,264.6 97.9,264.6 99.1,264.6 100.3,264.6 101.5,264.6 102.7,264.5 103.8,264.5 105.0,264.5 106.2,264.5 107.4,264.4 108.6,264.4 109.8,264.4 111.0,264.4 112.1,264.4 113.3,264.4 114.5,264.5 115.7,264.5 116.9,264.6 118.1,264.7 119.3,264.8 120.5,265.0 121.6,265.1 122.8,265.2 124.0,265.3 125.2,265.4 126.4,265.4 127.6,265.3 128.8,265.4 129.9,265.3 131.1,265.3 132.3,265.2 133.5,265.2 134.7,265.2 135.9,265.2 137.1,265.1 138.3,265.1 139.4,265.0 140.6,264.9 141.8,264.7 143.0,264.6 144.2,264.5 145.4,264.4 146.6,264.3 147.7,264.2 148.9,264.2 150.1,264.2 151.3,264.1 152.5,264.1 153.7,264.2 154.9,264.2 156.1,264.2 157.2,264.3 158.4,264.4 159.6,264.5 160.8,264.6 162.0,264.7 163.2,264.7 164.4,264.7 165.5,264.8 166.7,264.8 167.9,264.8 169.1,264.8 170.3,264.8 171.5,264.7 172.7,264.7 173.9,264.6 175.0,264.5 176.2,264.4 177.4,264.3 178.6,264.2 179.8,264.1 181.0,264.1 182.2,264.1 183.3,264.1 184.5,264.3 185.7,264.2 186.9,264.6 188.1,264.7 189.3,264.8 190.5,264.9 191.7,264.9 192.8,264.9 194.0,264.9 195.2,264.9 196.4,264.9 197.6,264.9 198.8,264.9 200.0,264.8 201.1,264.8 202.3,264.7 203.5,264.6 204.7,264.5 205.9,264.4 207.1,264.3 208.3,264.3 209.5,264.2 210.6,264.3 211.8,264.2 213.0,264.4 214.2,264.5 215.4,264.7 216.6,264.8 217.8,264.9 218.9,264.9 220.1,264.9 221.3,264.9 222.5,264.8 223.7,264.8 224.9,264.8 226.1,264.8 227.3,264.4 228.4,264.5 229.6,264.8 230.8,264.8 232.0,264.7 233.2,264.7 234.4,264.5 235.6,264.3 236.7,264.2 237.9,264.1 239.1,264.0 240.3,264.0 241.5,264.1 242.7,263.9 243.9,264.1 245.1,264.1 246.2,264.2 247.4,264.3 248.6,264.3 249.8,264.5 251.0,264.4 252.2,264.6 253.4,264.6 254.5,264.6 255.7,264.8 256.9,264.4 258.1,264.8 259.3,264.7 260.5,264.6 261.7,264.6 262.9,264.5 264.0,264.4 265.2,264.3 266.4,264.1 267.6,264.0 268.8,263.9 270.0,264.1 271.2,263.3 272.3,263.6 273.5,263.7 274.7,263.6 275.9,263.7 277.1,263.8 278.3,263.9 279.5,264.1 280.7,264.4 281.8,264.5 283.0,264.6 284.2,264.9 285.4,264.6 286.6,264.8 287.8,264.8 289.0,264.8 290.1,264.8 291.3,264.7 292.5,264.5 293.7,264.4 294.9,264.2 296.1,263.8 297.3,263.6 298.5,263.5 299.6,263.1 300.8,263.1 302.0,263.4 303.2,263.4 304.4,263.4 305.6,263.6 306.8,263.6 307.9,263.8 309.1,263.9 310.3,264.2 311.5,264.2 312.7,264.7 313.9,264.5 315.1,264.5 316.3,264.7 317.4,264.7 318.6,264.7 319.8,264.7 321.0,264.6 322.2,264.6 323.4,264.6 324.6,264.3 325.7,264.1 326.9,264.4 328.1,263.8 329.3,263.4 330.5,263.6 331.7,263.3 332.9,263.1 334.1,263.0 335.2,263.1 336.4,263.0 337.6,263.0 338.8,263.0 340.0,263.0 341.2,263.5 342.4,263.2 343.5,263.0 344.7,263.2 345.9,263.2 347.1,263.1 348.3,263.2 349.5,263.0 350.7,262.9 351.9,262.7 353.0,262.5 354.2,262.4 355.4,262.2 356.6,262.0 357.8,261.7 359.0,261.6 360.2,261.6 361.3,261.5 362.5,261.5 363.7,261.4 364.9,261.2 366.1,261.2 367.3,261.1 368.5,261.1 369.7,261.0 370.8,260.9 372.0,260.9 373.2,260.8 374.4,260.7 375.6,260.6 376.8,260.5 378.0,260.6 379.1,260.5 380.3,260.5 381.5,260.4 382.7,260.3 383.9,260.1 385.1,260.0 386.3,260.0 387.5,259.9 388.6,259.9 389.8,259.8 391.0,259.8 392.2,259.7 393.4,259.6 394.6,259.5 395.8,259.5 396.9,259.5 398.1,259.5 399.3,259.5 400.5,259.5 401.7,259.5 402.9,259.4 404.1,259.4 405.3,259.4 406.4,259.4 407.6,259.3 408.8,259.3 410.0,259.4 411.2,259.4 412.4,259.5 413.6,259.6 414.7,260.1 415.9,261.0 417.1,262.2 418.3,262.8 419.5,262.7 420.7,262.4 421.9,262.3 423.1,262.3 424.2,262.4 425.4,262.5 426.6,262.5 427.8,262.5 429.0,262.4 430.2,262.4 431.4,262.3 432.5,262.2 433.7,262.2 434.9,262.1 436.1,262.0 437.3,261.9 438.5,261.8 439.7,261.6 440.9,261.6 442.0,261.5 443.2,261.4 444.4,261.6 445.6,262.1 446.8,262.7 448.0,262.5 449.2,261.0 450.3,258.9 451.5,257.5 452.7,256.8 453.9,256.5 455.1,256.2 456.3,255.9 457.5,255.5 458.7,255.1 459.8,254.5 461.0,253.9 462.2,253.3 463.4,252.6 464.6,251.9 465.8,251.2 467.0,250.4 468.1,249.6 469.3,248.8 470.5,248.0 471.7,247.3 472.9,246.6 474.1,246.0 475.3,245.5 476.5,245.1 477.6,245.1 478.8,245.4 480.0,245.6 481.2,245.5 482.4,245.1 483.6,244.6 484.8,243.9 485.9,243.0 487.1,241.9 488.3,240.5 489.5,239.7 490.7,239.6 491.9,241.3 493.1,244.3 494.3,246.9 495.4,249.0 496.6,250.7 497.8,252.0 499.0,252.9 500.2,253.7 501.4,254.0 502.6,253.8 503.7,253.2 504.9,252.0 506.1,250.2 507.3,247.9 508.5,245.4 509.7,247.0 510.9,249.7 512.1,252.0 513.2,253.9 514.4,255.4 515.6,256.3 516.8,256.7 518.0,256.2 519.2,255.0 520.4,254.0 521.5,254.6 522.7,256.2 523.9,256.5 525.1,255.5 526.3,253.6 527.5,251.4 528.7,249.1 529.9,248.3 531.0,249.5 532.2,251.1 533.4,252.6 534.6,253.9 535.8,255.2 537.0,256.8 538.2,258.2 539.3,259.4 540.5,259.8 541.7,259.8 542.9,259.7 544.1,259.6 545.3,259.6 546.5,259.6 547.7,259.7 548.8,259.8 550.0,259.7 551.2,259.4 552.4,259.0 553.6,258.6 554.8,258.2 556.0,258.0 557.1,257.9 558.3,258.0 559.5,258.2 560.7,258.4 561.9,258.5 563.1,258.5 564.3,258.2 565.5,257.9 566.6,257.6 567.8,257.4 569.0,257.1 570.2,257.0 571.4,257.0 572.6,257.1 573.8,257.2 574.9,257.5 576.1,257.8 577.3,258.2 578.5,258.3 579.7,258.3 580.9,258.1 582.1,257.9 583.3,257.8 584.4,257.7 585.6,257.8 586.8,257.9 588.0,258.2 589.2,258.5 590.4,258.8 591.6,259.1 592.7,259.3 593.9,259.3 595.1,259.3 596.3,259.7 597.5,259.5 598.7,260.0 599.9,260.3 601.1,260.4 602.2,260.6 603.4,260.9 604.6,261.1 605.8,261.2 607.0,261.4 608.2,261.5 609.4,261.7 610.5,261.8 611.7,260.8 612.9,261.2 614.1,262.5 615.3,262.5 616.5,262.2 617.7,262.3 618.9,262.6 620.0,262.6 621.2,262.7 622.4,262.8 623.6,262.8 624.8,262.9 626.0,262.1 627.2,262.5 628.3,263.0 629.5,262.8 630.7,262.3 631.9,261.8 633.1,261.2 634.3,260.4 635.5,259.5 636.7,258.3 637.8,256.9 639.0,255.5 640.2,254.4 641.4,253.3 642.6,252.3 643.8,251.3 645.0,250.3 646.1,249.3 647.3,248.2 648.5,247.2 649.7,246.1 650.9,245.1 652.1,244.1 653.3,243.1 654.5,242.1 655.6,241.1 656.8,240.2 658.0,239.2 659.2,238.2 660.4,237.2 661.6,236.5 662.8,236.5 663.9,236.9 665.1,237.6 666.3,238.9 667.5,240.6 668.7,243.1 669.9,245.4 671.1,247.7 672.3,250.1 673.4,252.4 674.6,254.6 675.8,256.3 677.0,256.8 678.2,255.8 679.4,253.7 680.6,251.2 681.7,249.1 682.9,247.7 684.1,246.9 685.3,246.5 686.5,246.2 687.7,245.8 688.9,245.5 690.1,245.6 691.2,246.0 692.4,246.7 693.6,247.8 694.8,249.2 696.0,250.6 697.2,252.3 698.4,254.0 699.5,255.8 700.7,257.4 701.9,258.6 703.1,259.2 704.3,259.1 705.5,258.5 706.7,258.0 707.9,257.6 709.0,256.9 710.2,256.2 711.4,255.3 712.6,254.9 713.8,254.6 715.0,254.6 716.2,254.8 717.3,255.3 718.5,256.2 719.7,257.2 720.9,258.4 722.1,259.5 723.3,260.3 724.5,260.7 725.7,260.2 726.8,259.8 728.0,259.3 729.2,258.5 730.4,257.7 731.6,257.1 732.8,256.6 734.0,256.3 735.1,256.2 736.3,256.2 737.5,256.3 738.7,256.6 739.9,256.9 741.1,257.3 742.3,257.6 743.5,258.0 744.6,258.3 745.8,258.6 747.0,258.9 748.2,259.2 749.4,259.4 750.6,259.4 751.8,259.3 752.9,259.2 754.1,258.9 755.3,258.8 756.5,258.7 757.7,258.7 758.9,258.6 760.1,258.5 761.3,258.4 762.4,258.3 763.6,258.2 764.8,258.0 766.0,257.8"/>
<line x1="606" y1="60" x2="628" y2="60" stroke="#24a148" stroke-width="2.2"/>
<text x="634" y="64" font-family="Arial" font-size="12">imu_gyro_norm_rps</text>
</svg>