<svg xmlns="http://www.w3.org/2000/svg" width="820" height="320" viewBox="0 0 820 320">
<rect width="100%" height="100%" fill="#ffffff"/>
<text x="54" y="28" font-family="Arial" font-size="18" font-weight="700">Magnetometer Heading</text>
<line x1="54" y1="266" x2="766" y2="266" stroke="#1f2933"/>
<line x1="54" y1="54" x2="54" y2="266" stroke="#1f2933"/>
<text x="54" y="306" font-family="Arial" font-size="12">time (s)</text>
<text x="596" y="306" font-family="Arial" font-size="12">heading (deg)</text>
<text x="58" y="68" font-family="Arial" font-size="11">180</text>
<text x="58" y="260" font-family="Arial" font-size="11">-180</text>
<polyline fill="none" stroke="#0f62fe" stroke-width="2.2" points="54.0,159.6 55.2,159.7 56.4,159.9 57.6,160.1 58.7,160.4 59.9,160.6 61.1,160.9 62.3,161.1 63.5,161.4 64.7,161.6 65.9,161.9 67.1,162.1 68.2,162.4 69.4,162.6 70.6,162.9 71.8,163.1 73.0,163.4 74.2,163.6 75.4,163.9 76.5,164.2 77.7,164.4 78.9,164.7 80.1,165.0 81.3,165.3 82.5,165.5 83.7,165.8 84.9,166.1 86.0,166.4 87.2,166.6 88.4,166.9 89.6,167.2 90.8,167.5 92.0,167.7 93.2,168.0 94.3,168.2 95.5,168.5 96.7,168.8 97.9,169.0 99.1,169.3 100.3,169.5 101.5,169.8 102.7,170.1 103.8,170.3 105.0,170.6 106.2,170.9 107.4,171.2 108.6,171.5 109.8,171.7 111.0,172.0 112.1,172.3 113.3,172.6 114.5,172.9 115.7,173.1 116.9,173.4 118.1,173.6 119.3,173.8 120.5,174.0 121.6,174.1 122.8,174.2 124.0,174.3 125.2,174.4 126.4,174.4 127.6,174.4 128.8,174.3 129.9,174.3 131.1,174.2 132.3,174.2 133.5,174.2 134.7,174.1 135.9,174.1 137.1,174.1 138.3,174.2 139.4,174.2 140.6,174.3 141.8,174.4 143.0,174.6 144.2,174.8 145.4,175.0 146.6,175.2 147.7,175.5 148.9,175.8 150.1,176.1 151.3,176.4 152.5,176.6 153.7,176.9 154.9,177.2 156.1,177.4 157.2,177.7 158.4,177.9 159.6,178.1 160.8,178.3 162.0,178.4 163.2,178.5 164.4,178.6 165.5,178.7 166.7,178.8 167.9,178.9 169.1,179.0 170.3,179.1 171.5,179.2 172.7,179.3 173.9,179.5 175.0,179.6 176.2,179.9 177.4,180.1 178.6,180.4 179.8,180.7 181.0,181.0 182.2,181.3 183.3,181.5 184.5,181.8 185.7,182.0 186.9,182.2 188.1,182.4 189.3,182.5 190.5,182.5 191.7,182.5 192.8,182.5 194.0,182.5 195.2,182.5 196.4,182.5 197.6,182.5 198.8,182.5 200.0,182.5 201.1,182.6 202.3,182.7 203.5,182.9 204.7,183.0 205.9,183.2 207.1,183.5 208.3,183.7 209.5,184.0 210.6,184.2 211.8,184.5 213.0,184.7 214.2,184.9 215.4,185.1 216.6,185.2 217.8,185.3 218.9,185.3 220.1,185.3 221.3,185.2 222.5,185.2 223.7,185.1 224.9,185.0 226.1,184.9 227.3,184.7 228.4,184.8 229.6,184.8 230.8,184.9 232.0,185.0 233.2,185.1 234.4,185.3 235.6,185.5 236.7,185.8 237.9,186.1 239.1,186.4 240.3,186.7 241.5,187.0 242.7,187.3 243.9,187.6 245.1,187.9 246.2,188.2 247.4,188.4 248.6,188.6 249.8,188.9 251.0,189.1 252.2,189.2 253.4,189.4 254.5,189.6 255.7,189.6 256.9,189.9 258.1,190.0 259.3,190.1 260.5,190.3 261.7,190.4 262.9,190.6 264.0,190.8 265.2,191.1 266.4,191.3 267.6,191.6 268.8,192.0 270.0,192.2 271.2,192.7 272.3,193.1 273.5,193.5 274.7,193.9 275.9,194.2 277.1,194.6 278.3,194.9 279.5,195.2 280.7,195.4 281.8,195.6 283.0,195.8 284.2,195.8 285.4,196.0 286.6,196.1 287.8,196.2 289.0,196.2 290.1,196.3 291.3,196.5 292.5,196.6 293.7,196.9 294.9,197.1 296.1,197.5 297.3,197.9 298.5,198.3 299.6,198.8 300.8,199.3 302.0,199.7 303.2,200.1 304.4,200.6 305.6,201.0 306.8,201.3 307.9,201.7 309.1,202.0 310.3,202.3 311.5,202.6 312.7,202.6 313.9,202.8 315.1,203.0 316.3,203.1 317.4,203.3 318.6,203.4 319.8,203.5 321.0,203.7 322.2,203.9 323.4,204.0 324.6,204.2 325.7,204.5 326.9,204.7 328.1,205.0 329.3,205.5 330.5,205.9 331.7,206.3 332.9,206.8 334.1,207.3 335.2,207.8 336.4,208.3 337.6,208.8 338.8,209.4 340.0,209.9 341.2,210.3 342.4,210.8 343.5,211.3 344.7,211.8 345.9,212.2 347.1,212.7 348.3,213.2 349.5,213.7 350.7,214.3 351.9,214.9 353.0,215.5 354.2,216.1 355.4,216.8 356.6,217.5 357.8,218.3 359.0,219.1 360.2,219.9 361.3,220.7 362.5,221.5 363.7,222.3 364.9,223.2 366.1,224.1 367.3,225.0 368.5,225.9 369.7,226.9 370.8,227.8 372.0,228.8 373.2,229.7 374.4,230.7 375.6,231.7 376.8,232.8 378.0,233.8 379.1,234.8 380.3,235.8 381.5,236.9 382.7,237.9 383.9,239.1 385.1,240.2 386.3,241.3 387.5,242.5 388.6,243.6 389.8,244.8 391.0,246.0 392.2,247.2 393.4,248.4 394.6,249.6 395.8,250.9 396.9,252.1 398.1,253.3 399.3,254.6 400.5,255.8 401.7,257.1 402.9,258.3 404.1,259.6 405.3,260.8 406.4,262.1 407.6,263.4 408.8,264.7 410.0,266.0 411.2,55.0 412.4,56.3 413.6,57.5 414.7,58.6 415.9,59.5 417.1,60.0 418.3,60.2 419.5,60.0 420.7,59.7 421.9,59.3 423.1,59.0 424.2,58.6 425.4,58.2 426.6,57.8 427.8,57.4 429.0,57.0 430.2,56.6 431.4,56.1 432.5,55.6 433.7,55.1 434.9,54.6 436.1,54.0 437.3,265.7 438.5,265.1 439.7,264.5 440.9,263.8 442.0,263.2 443.2,262.5 444.4,261.8 445.6,261.2 446.8,260.8 448.0,260.7 449.2,261.2 450.3,262.0 451.5,263.0 452.7,264.1 453.9,265.2 455.1,54.0 456.3,55.0 457.5,56.0 458.7,56.9 459.8,57.9 461.0,58.8 462.2,59.8 463.4,60.8 464.6,61.8 465.8,62.9 467.0,64.1 468.1,65.5 469.3,67.2 470.5,69.5 471.7,73.0 472.9,80.0 474.1,99.6 475.3,137.6 476.5,154.3 477.6,161.1 478.8,165.4 480.0,169.1 481.2,172.5 482.4,175.9 483.6,179.3 484.8,182.7 485.9,186.3 487.1,190.1 488.3,194.1 489.5,198.3 490.7,202.5 491.9,206.4 493.1,209.8 494.3,213.0 495.4,215.9 496.6,218.5 497.8,220.9 499.0,223.0 500.2,224.7 501.4,226.0 502.6,226.9 503.7,227.1 504.9,226.7 506.1,225.4 507.3,222.9 508.5,219.3 509.7,215.3 510.9,211.5 512.1,208.3 513.2,205.8 514.4,204.1 515.6,203.3 516.8,203.3 518.0,203.9 519.2,205.2 520.4,206.7 521.5,208.1 522.7,208.9 523.9,209.1 525.1,208.8 526.3,208.0 527.5,206.8 528.7,205.1 529.9,203.3 531.0,201.9 532.2,200.8 533.4,199.9 534.6,199.1 535.8,198.1 537.0,197.1 538.2,196.0 539.3,194.8 540.5,193.5 541.7,192.1 542.9,190.6 544.1,189.0 545.3,187.4 546.5,185.7 547.7,184.0 548.8,182.3 550.0,180.6 551.2,178.9 552.4,177.2 553.6,175.4 554.8,173.8 556.0,172.1 557.1,170.4 558.3,168.7 559.5,167.0 560.7,165.4 561.9,163.6 563.1,161.8 564.3,159.9 565.5,157.8 566.6,155.3 567.8,152.6 569.0,149.3 570.2,145.5 571.4,140.9 572.6,135.6 573.8,129.7 574.9,123.4 576.1,117.3 577.3,111.8 578.5,107.1 579.7,103.3 580.9,100.3 582.1,97.9 583.3,96.0 584.4,94.5 585.6,93.3 586.8,92.4 588.0,91.7 589.2,91.2 590.4,90.8 591.6,90.5 592.7,90.3 593.9,90.1 595.1,90.0 596.3,89.8 597.5,89.7 598.7,89.6 599.9,89.5 601.1,89.4 602.2,89.3 603.4,89.2 604.6,89.2 605.8,89.1 607.0,89.0 608.2,89.0 609.4,88.9 610.5,88.9 611.7,89.0 612.9,89.0 614.1,88.9 615.3,88.9 616.5,88.8 617.7,88.8 618.9,88.8 620.0,88.7 621.2,88.7 622.4,88.7 623.6,88.8 624.8,88.8 626.0,89.1 627.2,89.3 628.3,89.6 629.5,89.9 630.7,90.4 631.9,91.0 633.1,91.8 634.3,92.7 635.5,93.8 636.7,95.2 637.8,96.9 639.0,98.8 640.2,101.0 641.4,103.3 642.6,105.8 643.8,108.5 645.0,111.4 646.1,114.5 647.3,117.9 648.5,121.5 649.7,125.3 650.9,129.5 652.1,134.0 653.3,138.8 654.5,144.0 655.6,149.5 656.8,155.3 658.0,161.4 659.2,167.6 660.4,173.8 661.6,180.0 662.8,186.1 663.9,192.0 665.1,197.6 666.3,202.9 667.5,207.7 668.7,211.8 669.9,215.5 671.1,218.6 672.3,221.2 673.4,223.1 674.6,224.4 675.8,224.9 677.0,224.7 678.2,223.8 679.4,222.1 680.6,219.8 681.7,216.9 682.9,213.8 684.1,210.6 685.3,207.4 686.5,204.3 687.7,201.2 688.9,198.0 690.1,194.8 691.2,191.4 692.4,187.8 693.6,184.2 694.8,180.4 696.0,176.6 697.2,172.8 698.4,169.4 699.5,166.4 700.7,164.0 701.9,162.4 703.1,161.4 704.3,161.0 705.5,161.1 706.7,161.8 707.9,162.8 709.0,164.3 710.2,166.0 711.4,167.7 712.6,169.6 713.8,171.7 715.0,173.7 716.2,175.6 717.3,177.4 718.5,178.9 719.7,180.1 720.9,181.1 722.1,181.7 723.3,181.9 724.5,181.9 725.7,181.3 726.8,180.5 728.0,179.4 729.2,178.1 730.4,176.6 731.6,174.9 732.8,173.1 734.0,171.2 735.1,169.4 736.3,167.5 737.5,165.6 738.7,163.8 739.9,162.0 741.1,160.4 742.3,158.7 743.5,157.2 744.6,155.7 745.8,154.4 747.0,153.0 748.2,151.8 749.4,150.6 750.6,149.4 751.8,148.1 752.9,146.9 754.1,145.6 755.3,144.2 756.5,142.9 757.7,141.5 758.9,140.2 760.1,138.8 761.3,137.4 762.4,136.0 763.6,134.5 764.8,133.1 766.0,131.6"/>
<line x1="606" y1="42" x2="628" y2="42" stroke="#0f62fe" stroke-width="2.2"/>
<text x="634" y="46" font-family="Arial" font-size="12">yaw_deg</text>
<polyline fill="none" stroke="#24a148" stroke-width="2.2" points="54.0,159.7 55.2,159.7 56.4,159.7 57.6,159.7 58.7,160.2 59.9,160.2 61.1,161.0 62.3,161.0 63.5,161.3 64.7,161.3 65.9,162.4 67.1,162.4 68.2,162.6 69.4,162.6 70.6,162.4 71.8,162.4 73.0,164.2 74.2,164.2 75.4,164.5 76.5,164.5 77.7,164.3 78.9,164.3 80.1,165.1 81.3,165.1 82.5,164.7 83.7,164.7 84.9,166.6 86.0,166.6 87.2,166.4 88.4,166.4 89.6,167.6 90.8,167.6 92.0,167.6 93.2,167.6 94.3,168.6 95.5,168.6 96.7,168.8 97.9,168.8 99.1,168.9 100.3,168.9 101.5,169.3 102.7,169.3 103.8,169.9 105.0,169.9 106.2,171.1 107.4,171.1 108.6,171.4 109.8,171.4 111.0,172.2 112.1,172.2 113.3,173.9 114.5,173.9 115.7,172.3 116.9,172.3 118.1,174.3 119.3,174.3 120.5,174.7 121.6,174.7 122.8,174.4 124.0,174.4 125.2,174.0 126.4,174.0 127.6,174.2 128.8,174.2 129.9,174.2 131.1,174.2 132.3,173.7 133.5,173.7 134.7,173.9 135.9,173.9 137.1,173.6 138.3,173.6 139.4,175.0 140.6,175.0 141.8,174.2 143.0,174.2 144.2,174.7 145.4,174.7 146.6,175.8 147.7,175.8 148.9,175.3 150.1,175.3 151.3,176.3 152.5,176.3 153.7,177.1 154.9,177.1 156.1,177.2 157.2,177.2 158.4,178.0 159.6,178.0 160.8,177.7 162.0,177.7 163.2,177.8 164.4,177.8 165.5,179.2 166.7,179.2 167.9,178.7 169.1,178.7 170.3,180.7 171.5,180.7 172.7,179.5 173.9,179.5 175.0,180.5 176.2,180.5 177.4,180.5 178.6,180.5 179.8,179.7 181.0,179.7 182.2,181.4 183.3,181.4 184.5,181.6 185.7,181.6 186.9,182.2 188.1,182.2 189.3,183.0 190.5,183.0 191.7,182.6 192.8,182.6 194.0,182.2 195.2,182.2 196.4,182.5 197.6,182.5 198.8,181.6 200.0,181.6 201.1,183.1 202.3,183.1 203.5,183.5 204.7,183.5 205.9,182.1 207.1,182.1 208.3,182.9 209.5,182.9 210.6,183.4 211.8,183.4 213.0,184.7 214.2,184.7 215.4,184.6 216.6,184.6 217.8,185.8 218.9,185.8 220.1,186.3 221.3,186.3 222.5,184.5 223.7,184.5 224.9,185.3 226.1,185.3 227.3,183.8 228.4,183.8 229.6,184.9 230.8,184.9 232.0,185.9 233.2,185.9 234.4,185.2 235.6,185.2 236.7,185.8 237.9,185.8 239.1,185.9 240.3,185.9 241.5,187.0 242.7,187.0 243.9,186.9 245.1,186.9 246.2,188.3 247.4,188.3 248.6,189.5 249.8,189.5 251.0,189.9 252.2,189.9 253.4,189.6 254.5,189.6 255.7,190.3 256.9,190.3 258.1,189.4 259.3,189.4 260.5,190.2 261.7,190.2 262.9,190.7 264.0,190.7 265.2,190.9 266.4,190.9 267.6,190.9 268.8,190.9 270.0,193.1 271.2,193.1 272.3,192.9 273.5,192.9 274.7,194.4 275.9,194.4 277.1,194.8 278.3,194.8 279.5,196.3 280.7,196.3 281.8,196.2 283.0,196.2 284.2,195.8 285.4,195.8 286.6,195.5 287.8,195.5 289.0,196.8 290.1,196.8 291.3,196.7 292.5,196.7 293.7,196.5 294.9,196.5 296.1,198.1 297.3,198.1 298.5,197.8 299.6,197.8 300.8,199.9 302.0,199.9 303.2,200.4 304.4,200.4 305.6,201.1 306.8,201.1 307.9,201.4 309.1,201.4 310.3,202.4 311.5,202.4 312.7,202.1 313.9,202.1 315.1,202.1 316.3,202.1 317.4,203.2 318.6,203.2 319.8,204.0 321.0,204.0 322.2,203.5 323.4,203.5 324.6,203.7 325.7,203.7 326.9,204.9 328.1,204.9 329.3,206.4 330.5,206.4 331.7,206.6 332.9,206.6 334.1,208.2 335.2,208.2 336.4,208.1 337.6,208.1 338.8,209.5 340.0,209.5 341.2,210.3 342.4,210.3 343.5,211.0 344.7,211.0 345.9,212.4 347.1,212.4 348.3,212.5 349.5,212.5 350.7,212.7 351.9,212.7 353.0,216.1 354.2,216.1 355.4,217.1 356.6,217.1 357.8,217.5 359.0,217.5 360.2,219.9 361.3,219.9 362.5,221.3 363.7,221.3 364.9,223.2 366.1,223.2 367.3,224.4 368.5,224.4 369.7,226.6 370.8,226.6 372.0,228.4 373.2,228.4 374.4,231.0 375.6,231.0 376.8,232.0 378.0,232.0 379.1,235.5 380.3,235.5 381.5,237.4 382.7,237.4 383.9,239.2 385.1,239.2 386.3,239.7 387.5,239.7 388.6,243.1 389.8,243.1 391.0,246.0 392.2,246.0 393.4,247.8 394.6,247.8 395.8,249.9 396.9,249.9 398.1,253.6 399.3,253.6 400.5,255.3 401.7,255.3 402.9,259.1 404.1,259.1 405.3,260.8 406.4,260.8 407.6,264.0 408.8,264.0 410.0,266.0 411.2,266.0 412.4,56.0 413.6,56.0 414.7,58.5 415.9,58.5 417.1,61.0 418.3,61.0 419.5,59.2 420.7,59.2 421.9,59.0 423.1,59.0 424.2,59.2 425.4,59.2 426.6,57.9 427.8,57.9 429.0,56.3 430.2,56.3 431.4,56.0 432.5,56.0 433.7,55.0 434.9,55.0 436.1,265.5 437.3,265.5 438.5,265.3 439.7,265.3 440.9,264.3 442.0,264.3 443.2,261.7 444.4,261.7 445.6,261.3 446.8,261.3 448.0,261.4 449.2,261.4 450.3,261.1 451.5,261.1 452.7,264.1 453.9,264.1 455.1,54.6 456.3,54.6 457.5,56.0 458.7,56.0 459.8,58.2 461.0,58.2 462.2,59.4 463.4,59.4 464.6,61.7 465.8,61.7 467.0,64.1 468.1,64.1 469.3,68.2 470.5,68.2 471.7,73.4 472.9,73.4 474.1,99.4 475.3,99.4 476.5,154.2 477.6,154.2 478.8,165.2 480.0,165.2 481.2,171.5 482.4,171.5 483.6,178.8 484.8,178.8 485.9,186.6 487.1,186.6 488.3,193.7 489.5,193.7 490.7,201.4 491.9,201.4 493.1,209.6 494.3,209.6 495.4,216.0 496.6,216.0 497.8,221.0 499.0,221.0 500.2,224.3 501.4,224.3 502.6,227.4 503.7,227.4 504.9,227.5 506.1,227.5 507.3,223.1 508.5,223.1 509.7,213.6 510.9,213.6 512.1,208.3 513.2,208.3 514.4,204.1 515.6,204.1 516.8,204.1 518.0,204.1 519.2,204.8 520.4,204.8 521.5,209.4 522.7,209.4 523.9,208.2 525.1,208.2 526.3,208.9 527.5,208.9 528.7,205.3 529.9,205.3 531.0,201.4 532.2,201.4 533.4,199.2 534.6,199.2 535.8,197.9 537.0,197.9 538.2,196.2 539.3,196.2 540.5,192.6 541.7,192.6 542.9,190.4 544.1,190.4 545.3,186.6 546.5,186.6 547.7,183.7 548.8,183.7 550.0,180.2 551.2,180.2 552.4,176.5 553.6,176.5 554.8,174.3 556.0,174.3 557.1,171.2 558.3,171.2 559.5,167.4 560.7,167.4 561.9,164.2 563.1,164.2 564.3,161.1 565.5,161.1 566.6,155.9 567.8,155.9 569.0,148.9 570.2,148.9 571.4,141.2 572.6,141.2 573.8,129.6 574.9,129.6 576.1,117.7 577.3,117.7 578.5,106.6 579.7,106.6 580.9,100.5 582.1,100.5 583.3,95.6 584.4,95.6 585.6,93.5 586.8,93.5 588.0,91.7 589.2,91.7 590.4,91.1 591.6,91.1 592.7,90.8 593.9,90.8 595.1,89.1 596.3,89.1 597.5,89.6 598.7,89.6 599.9,89.3 601.1,89.3 602.2,90.4 603.4,90.4 604.6,88.9 605.8,88.9 607.0,89.2 608.2,89.2 609.4,89.6 610.5,89.6 611.7,89.6 612.9,89.6 614.1,89.7 615.3,89.7 616.5,89.0 617.7,89.0 618.9,88.2 620.0,88.2 621.2,87.5 622.4,87.5 623.6,87.1 624.8,87.1 626.0,89.4 627.2,89.4 628.3,90.0 629.5,90.0 630.7,90.3 631.9,90.3 633.1,91.6 634.3,91.6 635.5,93.2 636.7,93.2 637.8,97.2 639.0,97.2 640.2,100.5 641.4,100.5 642.6,105.4 643.8,105.4 645.0,111.7 646.1,111.7 647.3,117.3 648.5,117.3 649.7,125.9 650.9,125.9 652.1,134.2 653.3,134.2 654.5,143.6 655.6,143.6 656.8,155.8 658.0,155.8 659.2,167.2 660.4,167.2 661.6,180.6 662.8,180.6 663.9,192.5 665.1,192.5 666.3,202.8 667.5,202.8 668.7,210.6 669.9,210.6 671.1,219.1 672.3,219.1 673.4,223.6 674.6,223.6 675.8,224.6 677.0,224.6 678.2,223.6 679.4,223.6 680.6,219.6 681.7,219.6 682.9,213.3 684.1,213.3 685.3,206.9 686.5,206.9 687.7,200.6 688.9,200.6 690.1,194.8 691.2,194.8 692.4,187.4 693.6,187.4 694.8,180.5 696.0,180.5 697.2,173.4 698.4,173.4 699.5,166.6 700.7,166.6 701.9,161.8 703.1,161.8 704.3,160.6 705.5,160.6 706.7,161.5 707.9,161.5 709.0,164.0 710.2,164.0 711.4,167.6 712.6,167.6 713.8,172.0 715.0,172.0 716.2,175.7 717.3,175.7 718.5,179.3 719.7,179.3 720.9,182.0 722.1,182.0 723.3,181.4 724.5,181.4 725.7,181.5 726.8,181.5 728.0,179.3 729.2,179.3 730.4,176.5 731.6,176.5 732.8,173.6 734.0,173.6 735.1,168.9 736.3,168.9 737.5,164.9 738.7,164.9 739.9,162.4 741.1,162.4 742.3,159.1 743.5,159.1 744.6,154.5 745.8,154.5 747.0,153.8 748.2,153.8 749.4,151.3 750.6,151.3 751.8,147.4 752.9,147.4 754.1,145.8 755.3,145.8 756.5,142.6 757.7,142.6 758.9,140.6 760.1,140.6 761.3,137.5 762.4,137.5 763.6,133.9 764.8,133.9 766.0,131.6"/>
<line x1="606" y1="60" x2="628" y2="60" stroke="#24a148" stroke-width="2.2"/>
<text x="634" y="64" font-family="Arial" font-size="12">mag_heading_deg</text>
</svg>