<svg xmlns="http://www.w3.org/2000/svg" width="820" height="320" viewBox="0 0 820 320">
<rect width="100%" height="100%" fill="#ffffff"/>
<text x="54" y="28" font-family="Arial" font-size="18" font-weight="700">Pitot Airspeed</text>
<line x1="54" y1="266" x2="766" y2="266" stroke="#1f2933"/>
<line x1="54" y1="54" x2="54" y2="266" stroke="#1f2933"/>
<text x="54" y="306" font-family="Arial" font-size="12">time (s)</text>
<text x="596" y="306" font-family="Arial" font-size="12">airspeed (m/s)</text>
<text x="58" y="68" font-family="Arial" font-size="11">157</text>
<text x="58" y="260" font-family="Arial" font-size="11">82.8</text>
<polyline fill="none" stroke="#0f62fe" stroke-width="2.2" points="54.0,254.0 55.2,251.6 56.4,252.0 57.6,250.4 58.7,248.8 59.9,247.8 61.1,246.0 62.3,245.6 63.5,243.6 64.7,242.2 65.9,240.6 67.1,238.2 68.2,235.7 69.4,234.9 70.6,231.4 71.8,229.9 73.0,228.9 74.2,226.7 75.4,224.5 76.5,223.5 77.7,221.1 78.9,217.7 80.1,216.4 81.3,215.9 82.5,213.8 83.7,212.2 84.9,209.7 86.0,207.1 87.2,205.7 88.4,203.9 89.6,201.2 90.8,199.0 92.0,197.3 93.2,196.4 94.3,194.1 95.5,192.6 96.7,190.4 97.9,188.1 99.1,185.7 100.3,183.9 101.5,182.9 102.7,182.0 103.8,182.0 105.0,180.3 106.2,177.6 107.4,176.2 108.6,175.0 109.8,173.1 111.0,171.4 112.1,170.0 113.3,168.4 114.5,166.4 115.7,164.5 116.9,164.4 118.1,162.6 119.3,160.7 120.5,159.8 121.6,158.4 122.8,156.3 124.0,155.4 125.2,156.3 126.4,155.9 127.6,154.9 128.8,154.8 129.9,153.4 131.1,152.8 132.3,151.0 133.5,149.0 134.7,148.0 135.9,146.6 137.1,146.3 138.3,145.1 139.4,143.2 140.6,143.1 141.8,141.7 143.0,140.3 144.2,138.6 145.4,136.7 146.6,134.9 147.7,132.9 148.9,132.6 150.1,132.2 151.3,131.7 152.5,130.4 153.7,128.1 154.9,125.8 156.1,123.6 157.2,123.0 158.4,122.1 159.6,120.5 160.8,120.7 162.0,119.7 163.2,116.7 164.4,115.0 165.5,114.0 166.7,113.1 167.9,111.9 169.1,111.7 170.3,110.9 171.5,108.7 172.7,109.3 173.9,109.5 175.0,107.9 176.2,106.9 177.4,106.2 178.6,102.9 179.8,102.0 181.0,101.2 182.2,99.8 183.3,100.3 184.5,100.1 185.7,99.2 186.9,97.5 188.1,96.5 189.3,96.2 190.5,95.4 191.7,95.6 192.8,95.3 194.0,96.1 195.2,95.7 196.4,96.3 197.6,94.3 198.8,92.1 200.0,89.4 201.1,87.5 202.3,84.7 203.5,84.7 204.7,83.6 205.9,82.4 207.1,82.4 208.3,81.8 209.5,80.7 210.6,78.2 211.8,76.9 213.0,77.3 214.2,78.1 215.4,75.8 216.6,75.2 217.8,74.2 218.9,74.4 220.1,74.3 221.3,74.5 222.5,73.7 223.7,74.9 224.9,74.9 226.1,74.0 227.3,72.4 228.4,72.8 229.6,72.6 230.8,71.4 232.0,70.9 233.2,71.5 234.4,69.3 235.6,68.7 236.7,67.7 237.9,67.1 239.1,65.6 240.3,65.5 241.5,64.9 242.7,64.3 243.9,64.7 245.1,65.9 246.2,65.1 247.4,65.4 248.6,62.8 249.8,63.4 251.0,63.6 252.2,62.9 253.4,61.2 254.5,60.5 255.7,60.3 256.9,59.9 258.1,58.5 259.3,59.2 260.5,60.5 261.7,59.7 262.9,61.0 264.0,61.7 265.2,60.9 266.4,60.6 267.6,61.7 268.8,59.9 270.0,59.2 271.2,59.6 272.3,59.3 273.5,59.3 274.7,57.7 275.9,58.6 277.1,56.9 278.3,55.6 279.5,57.3 280.7,58.6 281.8,58.0 283.0,57.5 284.2,57.0 285.4,57.4 286.6,57.4 287.8,59.0 289.0,60.3 290.1,59.2 291.3,58.2 292.5,58.2 293.7,58.4 294.9,58.0 296.1,58.0 297.3,58.5 298.5,56.8 299.6,56.2 300.8,55.5 302.0,54.8 303.2,54.8 304.4,55.2 305.6,55.4 306.8,56.4 307.9,56.7 309.1,56.6 310.3,59.0 311.5,60.9 312.7,63.1 313.9,62.4 315.1,62.6 316.3,63.6 317.4,64.7 318.6,66.1 319.8,65.1 321.0,66.5 322.2,68.0 323.4,68.9 324.6,68.0 325.7,68.2 326.9,69.7 328.1,69.3 329.3,71.6 330.5,70.7 331.7,71.8 332.9,73.4 334.1,73.8 335.2,73.0 336.4,74.2 337.6,73.2 338.8,72.8 340.0,71.7 341.2,75.1 342.4,75.9 343.5,77.1 344.7,79.0 345.9,80.4 347.1,81.0 348.3,81.6 349.5,82.1 350.7,81.0 351.9,80.6 353.0,82.8 354.2,83.0 355.4,82.7 356.6,82.9 357.8,85.3 359.0,85.3 360.2,86.3 361.3,87.7 362.5,87.8 363.7,87.1 364.9,87.7 366.1,87.9 367.3,89.0 368.5,89.7 369.7,91.1 370.8,92.0 372.0,92.7 373.2,93.5 374.4,92.2 375.6,94.2 376.8,97.9 378.0,99.2 379.1,101.2 380.3,102.7 381.5,103.3 382.7,103.0 383.9,102.9 385.1,104.1 386.3,105.2 387.5,106.8 388.6,107.9 389.8,109.4 391.0,112.6 392.2,113.4 393.4,115.2 394.6,115.8 395.8,116.2 396.9,118.1 398.1,121.1 399.3,123.9 400.5,125.0 401.7,125.5 402.9,126.5 404.1,128.8 405.3,131.6 406.4,132.5 407.6,134.7 408.8,137.7 410.0,140.6 411.2,145.1 412.4,147.1 413.6,151.7 414.7,155.4 415.9,159.0 417.1,159.9 418.3,162.5 419.5,164.8 420.7,168.5 421.9,170.2 423.1,173.2 424.2,176.0 425.4,177.3 426.6,180.7 427.8,182.9 429.0,185.5 430.2,189.2 431.4,191.8 432.5,193.9 433.7,194.9 434.9,196.2 436.1,197.9 437.3,200.7 438.5,203.1 439.7,206.1 440.9,209.2 442.0,209.6 443.2,209.8 444.4,213.1 445.6,215.4 446.8,217.6 448.0,218.8 449.2,222.1 450.3,223.5 451.5,225.4 452.7,227.5 453.9,227.8 455.1,228.9 456.3,231.0 457.5,232.3 458.7,233.7 459.8,235.8 461.0,237.9 462.2,239.2 463.4,239.3 464.6,240.0 465.8,241.5 467.0,242.0 468.1,243.7 469.3,244.9 470.5,244.3 471.7,243.4 472.9,243.2 474.1,242.3 475.3,242.0 476.5,242.1 477.6,242.3 478.8,241.2 480.0,240.1 481.2,239.7 482.4,238.9 483.6,239.1 484.8,238.2 485.9,236.3 487.1,233.8 488.3,232.3 489.5,230.1 490.7,228.5 491.9,226.1 493.1,222.3 494.3,218.7 495.4,215.7 496.6,215.2 497.8,213.6 499.0,211.7 500.2,210.1 501.4,207.7 502.6,204.7 503.7,201.9 504.9,199.3 506.1,195.5 507.3,193.8 508.5,193.9 509.7,190.5 510.9,187.5 512.1,185.2 513.2,183.7 514.4,181.5 515.6,181.8 516.8,180.4 518.0,177.8 519.2,177.2 520.4,175.5 521.5,174.0 522.7,171.4 523.9,169.9 525.1,167.8 526.3,166.1 527.5,163.7 528.7,162.0 529.9,161.3 531.0,160.2 532.2,157.8 533.4,157.8 534.6,158.8 535.8,159.3 537.0,159.9 538.2,159.8 539.3,160.0 540.5,160.1 541.7,160.1 542.9,160.5 544.1,159.8 545.3,159.2 546.5,159.2 547.7,159.0 548.8,159.3 550.0,160.0 551.2,159.4 552.4,160.9 553.6,162.1 554.8,162.1 556.0,162.0 557.1,162.6 558.3,162.6 559.5,161.9 560.7,161.7 561.9,161.2 563.1,162.4 564.3,162.1 565.5,163.5 566.6,163.6 567.8,162.8 569.0,163.2 570.2,164.3 571.4,165.3 572.6,167.5 573.8,168.7 574.9,171.2 576.1,173.8 577.3,175.8 578.5,178.3 579.7,177.4 580.9,177.8 582.1,179.1 583.3,181.3 584.4,182.0 585.6,182.6 586.8,182.9 588.0,183.3 589.2,185.1 590.4,186.5 591.6,187.3 592.7,188.2 593.9,188.5 595.1,188.4 596.3,189.5 597.5,191.6 598.7,191.4 599.9,193.0 601.1,193.2 602.2,194.3 603.4,193.9 604.6,193.6 605.8,193.5 607.0,194.5 608.2,195.1 609.4,196.9 610.5,197.3 611.7,196.3 612.9,197.5 614.1,198.3 615.3,199.8 616.5,200.7 617.7,203.1 618.9,205.4 620.0,206.3 621.2,207.1 622.4,207.7 623.6,208.9 624.8,209.9 626.0,210.1 627.2,210.1 628.3,209.6 629.5,210.6 630.7,211.0 631.9,212.3 633.1,212.9 634.3,213.7 635.5,214.2 636.7,214.0 637.8,214.7 639.0,216.3 640.2,217.2 641.4,219.0 642.6,221.4 643.8,222.4 645.0,222.8 646.1,223.6 647.3,225.1 648.5,225.9 649.7,227.1 650.9,228.8 652.1,230.8 653.3,232.3 654.5,234.7 655.6,236.0 656.8,237.5 658.0,237.5 659.2,239.5 660.4,240.2 661.6,241.3 662.8,242.2 663.9,243.6 665.1,244.5 666.3,245.7 667.5,245.2 668.7,245.6 669.9,246.7 671.1,247.7 672.3,248.6 673.4,249.9 674.6,251.1 675.8,250.8 677.0,250.7 678.2,251.4 679.4,250.9 680.6,251.1 681.7,250.8 682.9,250.8 684.1,250.4 685.3,250.1 686.5,250.7 687.7,251.7 688.9,251.6 690.1,252.3 691.2,253.5 692.4,252.3 693.6,251.2 694.8,250.9 696.0,251.4 697.2,251.1 698.4,252.1 699.5,251.4 700.7,250.4 701.9,251.6 703.1,251.3 704.3,251.9 705.5,252.5 706.7,252.8 707.9,252.1 709.0,251.7 710.2,251.3 711.4,251.1 712.6,250.7 713.8,251.5 715.0,251.5 716.2,251.0 717.3,251.2 718.5,251.8 719.7,252.2 720.9,253.1 722.1,252.6 723.3,253.3 724.5,252.2 725.7,252.2 726.8,251.8 728.0,251.6 729.2,252.0 730.4,252.3 731.6,253.0 732.8,252.6 734.0,252.7 735.1,252.9 736.3,252.4 737.5,252.6 738.7,251.9 739.9,251.9 741.1,252.5 742.3,253.0 743.5,253.4 744.6,253.1 745.8,254.0 747.0,255.4 748.2,255.4 749.4,256.2 750.6,256.7 751.8,257.4 752.9,257.7 754.1,259.2 755.3,258.8 756.5,259.2 757.7,260.0 758.9,261.1 760.1,261.8 761.3,262.8 762.4,263.6 763.6,264.8 764.8,264.6 766.0,266.0"/>
<line x1="606" y1="42" x2="628" y2="42" stroke="#0f62fe" stroke-width="2.2"/>
<text x="634" y="46" font-family="Arial" font-size="12">airspeed_mps</text>
<polyline fill="none" stroke="#24a148" stroke-width="2.2" points="54.0,251.6 55.2,251.1 56.4,254.4 57.6,251.3 58.7,248.6 59.9,248.7 61.1,242.7 62.3,246.6 63.5,244.1 64.7,242.7 65.9,240.4 67.1,238.5 68.2,237.1 69.4,235.2 70.6,230.8 71.8,229.3 73.0,228.5 74.2,228.0 75.4,225.2 76.5,224.0 77.7,220.9 78.9,218.3 80.1,216.8 81.3,217.4 82.5,214.5 83.7,212.3 84.9,212.3 86.0,207.7 87.2,206.7 88.4,205.4 89.6,202.0 90.8,199.3 92.0,196.9 93.2,197.5 94.3,192.7 95.5,191.7 96.7,190.1 97.9,187.6 99.1,187.3 100.3,182.6 101.5,181.3 102.7,181.0 103.8,180.9 105.0,180.6 106.2,178.4 107.4,175.3 108.6,175.5 109.8,172.1 111.0,171.8 112.1,172.1 113.3,168.8 114.5,168.1 115.7,164.9 116.9,164.2 118.1,162.2 119.3,160.6 120.5,158.7 121.6,156.9 122.8,156.3 124.0,156.4 125.2,156.9 126.4,157.0 127.6,155.8 128.8,155.1 129.9,153.7 131.1,152.3 132.3,152.2 133.5,148.6 134.7,149.0 135.9,146.3 137.1,144.8 138.3,144.8 139.4,143.8 140.6,142.8 141.8,141.1 143.0,140.9 144.2,136.0 145.4,136.3 146.6,134.4 147.7,133.0 148.9,132.1 150.1,134.1 151.3,132.0 152.5,129.5 153.7,129.5 154.9,126.9 156.1,125.9 157.2,122.1 158.4,120.4 159.6,118.4 160.8,122.5 162.0,121.1 163.2,116.2 164.4,114.3 165.5,111.9 166.7,112.2 167.9,109.7 169.1,110.7 170.3,110.3 171.5,108.0 172.7,107.7 173.9,108.7 175.0,105.4 176.2,107.4 177.4,107.2 178.6,100.9 179.8,102.2 181.0,99.6 182.2,100.5 183.3,100.4 184.5,99.9 185.7,97.6 186.9,96.1 188.1,95.7 189.3,97.6 190.5,95.0 191.7,95.6 192.8,95.3 194.0,95.0 195.2,95.4 196.4,96.2 197.6,95.1 198.8,90.9 200.0,89.6 201.1,87.9 202.3,86.3 203.5,83.6 204.7,84.0 205.9,82.5 207.1,81.0 208.3,81.1 209.5,81.4 210.6,76.9 211.8,78.1 213.0,76.5 214.2,79.5 215.4,74.6 216.6,74.9 217.8,75.4 218.9,76.3 220.1,73.3 221.3,74.5 222.5,73.8 223.7,74.3 224.9,73.2 226.1,74.1 227.3,72.9 228.4,72.6 229.6,71.4 230.8,71.5 232.0,72.6 233.2,74.3 234.4,69.8 235.6,69.2 236.7,69.5 237.9,67.8 239.1,64.6 240.3,65.1 241.5,65.9 242.7,64.9 243.9,64.0 245.1,66.1 246.2,64.5 247.4,65.0 248.6,64.9 249.8,62.4 251.0,64.4 252.2,63.6 253.4,60.0 254.5,59.5 255.7,60.4 256.9,60.0 258.1,58.6 259.3,58.2 260.5,61.2 261.7,60.5 262.9,62.0 264.0,62.3 265.2,60.1 266.4,58.2 267.6,60.7 268.8,60.0 270.0,57.9 271.2,59.4 272.3,59.1 273.5,60.6 274.7,57.9 275.9,57.2 277.1,57.4 278.3,56.1 279.5,58.9 280.7,56.9 281.8,58.1 283.0,58.2 284.2,55.7 285.4,57.2 286.6,57.4 287.8,58.0 289.0,59.8 290.1,59.0 291.3,60.1 292.5,57.6 293.7,59.3 294.9,58.4 296.1,57.9 297.3,59.4 298.5,57.4 299.6,56.2 300.8,54.5 302.0,54.0 303.2,54.8 304.4,55.5 305.6,55.7 306.8,57.0 307.9,54.9 309.1,57.2 310.3,58.2 311.5,60.4 312.7,64.3 313.9,61.9 315.1,62.3 316.3,63.5 317.4,63.2 318.6,66.0 319.8,63.7 321.0,66.3 322.2,67.3 323.4,67.7 324.6,68.6 325.7,69.0 326.9,69.2 328.1,67.1 329.3,72.3 330.5,71.7 331.7,74.6 332.9,72.9 334.1,74.1 335.2,74.0 336.4,74.1 337.6,72.4 338.8,73.3 340.0,69.9 341.2,75.4 342.4,74.9 343.5,77.2 344.7,80.1 345.9,81.6 347.1,78.6 348.3,81.2 349.5,82.5 350.7,79.1 351.9,80.0 353.0,84.1 354.2,83.8 355.4,83.8 356.6,81.3 357.8,85.0 359.0,84.7 360.2,84.9 361.3,87.5 362.5,89.4 363.7,86.9 364.9,89.3 366.1,87.3 367.3,88.2 368.5,87.3 369.7,92.3 370.8,91.8 372.0,94.0 373.2,92.2 374.4,92.6 375.6,95.7 376.8,98.5 378.0,99.9 379.1,102.1 380.3,101.3 381.5,101.9 382.7,102.9 383.9,102.5 385.1,102.6 386.3,105.7 387.5,106.2 388.6,108.1 389.8,110.9 391.0,113.3 392.2,112.1 393.4,114.8 394.6,115.9 395.8,114.6 396.9,117.6 398.1,121.0 399.3,123.3 400.5,124.8 401.7,126.2 402.9,127.3 404.1,128.8 405.3,133.1 406.4,132.4 407.6,135.8 408.8,137.2 410.0,141.3 411.2,143.9 412.4,146.3 413.6,150.7 414.7,156.2 415.9,158.2 417.1,160.4 418.3,163.8 419.5,164.0 420.7,168.6 421.9,172.4 423.1,175.7 424.2,175.4 425.4,178.2 426.6,180.2 427.8,183.7 429.0,186.4 430.2,191.8 431.4,193.6 432.5,193.0 433.7,196.2 434.9,195.4 436.1,199.9 437.3,200.5 438.5,205.0 439.7,206.7 440.9,208.8 442.0,208.2 443.2,209.0 444.4,212.0 445.6,215.9 446.8,218.1 448.0,219.0 449.2,221.8 450.3,222.0 451.5,224.9 452.7,228.6 453.9,227.7 455.1,228.1 456.3,230.1 457.5,233.0 458.7,235.0 459.8,237.3 461.0,236.5 462.2,240.4 463.4,239.1 464.6,239.8 465.8,242.9 467.0,242.5 468.1,244.2 469.3,244.4 470.5,246.1 471.7,244.0 472.9,242.4 474.1,243.1 475.3,240.1 476.5,241.0 477.6,241.8 478.8,240.6 480.0,239.7 481.2,240.0 482.4,238.2 483.6,239.1 484.8,238.3 485.9,235.9 487.1,234.8 488.3,231.2 489.5,231.3 490.7,228.5 491.9,227.1 493.1,223.2 494.3,218.9 495.4,215.1 496.6,215.4 497.8,212.0 499.0,212.6 500.2,208.6 501.4,206.8 502.6,206.7 503.7,202.4 504.9,198.5 506.1,192.9 507.3,195.2 508.5,195.3 509.7,191.4 510.9,188.1 512.1,186.6 513.2,185.5 514.4,182.5 515.6,181.3 516.8,179.6 518.0,178.2 519.2,176.8 520.4,176.3 521.5,174.1 522.7,171.8 523.9,169.6 525.1,167.4 526.3,166.0 527.5,164.0 528.7,160.7 529.9,160.2 531.0,160.2 532.2,158.1 533.4,158.8 534.6,157.8 535.8,159.4 537.0,158.1 538.2,161.5 539.3,162.3 540.5,160.4 541.7,161.2 542.9,161.6 544.1,160.2 545.3,159.2 546.5,158.8 547.7,159.6 548.8,158.4 550.0,160.4 551.2,160.2 552.4,163.7 553.6,160.5 554.8,161.4 556.0,162.2 557.1,163.2 558.3,163.0 559.5,161.6 560.7,161.8 561.9,162.3 563.1,160.2 564.3,160.6 565.5,163.3 566.6,163.7 567.8,163.6 569.0,161.3 570.2,164.6 571.4,166.1 572.6,168.6 573.8,169.0 574.9,171.1 576.1,173.4 577.3,175.1 578.5,179.5 579.7,176.8 580.9,178.1 582.1,177.4 583.3,180.8 584.4,182.6 585.6,181.6 586.8,182.1 588.0,181.9 589.2,183.6 590.4,189.1 591.6,187.2 592.7,187.4 593.9,190.6 595.1,187.5 596.3,190.0 597.5,191.1 598.7,192.9 599.9,191.2 601.1,192.6 602.2,193.4 603.4,194.0 604.6,195.0 605.8,194.1 607.0,195.0 608.2,195.1 609.4,195.4 610.5,197.0 611.7,198.4 612.9,196.8 614.1,201.0 615.3,199.8 616.5,201.4 617.7,203.2 618.9,206.4 620.0,206.9 621.2,205.2 622.4,207.3 623.6,209.8 624.8,210.1 626.0,208.3 627.2,210.8 628.3,209.8 629.5,211.3 630.7,211.0 631.9,210.8 633.1,212.9 634.3,216.0 635.5,215.1 636.7,216.1 637.8,213.0 639.0,215.1 640.2,216.1 641.4,219.3 642.6,222.1 643.8,221.5 645.0,221.0 646.1,223.8 647.3,222.5 648.5,225.1 649.7,226.8 650.9,227.2 652.1,228.9 653.3,232.4 654.5,235.6 655.6,234.9 656.8,237.8 658.0,237.6 659.2,240.2 660.4,241.2 661.6,242.3 662.8,242.5 663.9,243.4 665.1,242.7 666.3,247.7 667.5,245.8 668.7,245.2 669.9,244.8 671.1,248.0 672.3,248.3 673.4,250.3 674.6,249.6 675.8,251.0 677.0,249.7 678.2,249.9 679.4,248.2 680.6,250.5 681.7,251.9 682.9,251.1 684.1,249.7 685.3,249.6 686.5,249.3 687.7,252.1 688.9,252.3 690.1,253.8 691.2,252.4 692.4,254.3 693.6,252.0 694.8,252.9 696.0,253.0 697.2,252.1 698.4,252.1 699.5,251.6 700.7,250.5 701.9,253.2 703.1,250.1 704.3,252.9 705.5,252.4 706.7,250.5 707.9,253.1 709.0,252.6 710.2,253.1 711.4,250.2 712.6,251.1 713.8,251.7 715.0,250.4 716.2,250.8 717.3,249.6 718.5,252.3 719.7,251.5 720.9,250.0 722.1,252.8 723.3,254.2 724.5,252.3 725.7,251.1 726.8,252.6 728.0,253.7 729.2,251.8 730.4,250.3 731.6,253.5 732.8,253.1 734.0,254.2 735.1,254.7 736.3,252.7 737.5,251.4 738.7,252.9 739.9,252.3 741.1,254.1 742.3,254.4 743.5,253.3 744.6,252.8 745.8,253.8 747.0,254.9 748.2,254.2 749.4,255.7 750.6,258.7 751.8,259.1 752.9,258.2 754.1,260.9 755.3,259.9 756.5,260.5 757.7,260.0 758.9,261.5 760.1,262.6 761.3,262.6 762.4,264.6 763.6,264.0 764.8,264.7 766.0,264.8"/>
<line x1="606" y1="60" x2="628" y2="60" stroke="#24a148" stroke-width="2.2"/>
<text x="634" y="64" font-family="Arial" font-size="12">pitot_airspeed_mps</text>
</svg>