<svg xmlns="http://www.w3.org/2000/svg" width="820" height="320" viewBox="0 0 820 320">
<rect width="100%" height="100%" fill="#ffffff"/>
<text x="54" y="28" font-family="Arial" font-size="18" font-weight="700">Downrange/Crossrange</text>
<line x1="54" y1="266" x2="766" y2="266" stroke="#1f2933"/>
<line x1="54" y1="54" x2="54" y2="266" stroke="#1f2933"/>
<text x="54" y="306" font-family="Arial" font-size="12">downrange (m)</text>
<text x="596" y="306" font-family="Arial" font-size="12">crossrange (m)</text>
<text x="58" y="68" font-family="Arial" font-size="11">89.1</text>
<text x="58" y="260" font-family="Arial" font-size="11">-22.2</text>
<polyline fill="none" stroke="#0f62fe" stroke-width="2.2" points="54.0,223.7 55.3,223.7 56.7,223.7 58.0,223.7 59.4,223.7 60.8,223.7 62.1,223.7 63.5,223.7 64.9,223.7 66.3,223.7 67.7,223.7 69.1,223.7 70.6,223.7 72.0,223.7 73.5,223.7 74.9,223.7 76.4,223.7 77.9,223.7 79.3,223.7 80.8,223.7 82.3,223.6 83.9,223.6 85.4,223.6 86.9,223.6 88.5,223.5 90.0,223.5 91.6,223.4 93.1,223.4 94.7,223.3 96.3,223.3 97.9,223.2 99.5,223.2 101.1,223.1 102.8,223.0 104.4,222.9 106.0,222.8 107.7,222.7 109.4,222.6 111.0,222.6 112.7,222.5 114.4,222.4 116.1,222.3 117.8,222.2 119.5,222.1 121.3,222.0 123.0,222.0 124.7,221.9 126.5,221.9 128.3,221.8 130.0,221.8 131.8,221.8 133.6,221.9 135.4,222.0 137.2,222.1 139.0,222.2 140.8,222.4 142.6,222.6 144.4,222.9 146.2,223.1 148.0,223.5 149.8,223.8 151.6,224.2 153.4,224.6 155.2,225.0 157.0,225.4 158.8,225.7 160.6,226.1 162.3,226.4 164.1,226.7 165.9,227.0 167.7,227.3 169.5,227.5 171.2,227.7 173.0,227.8 174.8,227.9 176.6,228.0 178.4,228.1 180.1,228.3 181.9,228.5 183.7,228.7 185.5,229.0 187.3,229.3 189.0,229.7 190.8,230.0 192.6,230.4 194.3,230.7 196.1,231.0 197.8,231.2 199.6,231.4 201.4,231.6 203.2,231.8 204.9,232.0 206.7,232.2 208.4,232.4 210.2,232.7 211.9,233.0 213.7,233.4 215.4,233.7 217.2,234.2 218.9,234.6 220.6,235.0 222.4,235.4 224.1,235.7 225.9,236.0 227.6,236.3 229.4,236.5 231.1,236.7 232.9,237.0 234.6,237.3 236.3,237.6 238.0,238.0 239.7,238.4 241.4,238.8 243.1,239.3 244.8,239.7 246.5,240.2 248.3,240.7 250.0,241.2 251.7,241.6 253.4,242.0 255.1,242.5 256.9,242.9 258.6,243.3 260.2,243.7 261.9,244.1 263.6,244.5 265.2,244.9 266.9,245.4 268.5,246.0 270.2,246.5 271.8,247.1 273.4,247.8 275.1,248.4 276.7,249.1 278.4,249.6 280.0,250.2 281.7,250.7 283.3,251.2 284.9,251.7 286.6,252.1 288.2,252.6 289.8,253.0 291.3,253.5 292.9,253.9 294.4,254.3 296.0,254.8 297.5,255.3 299.0,255.7 300.5,256.3 302.0,256.8 303.5,257.4 305.0,258.0 306.5,258.6 308.0,259.2 309.5,259.7 311.1,260.1 312.6,260.6 314.1,260.9 315.5,261.3 317.0,261.6 318.5,261.9 319.9,262.2 321.4,262.5 322.8,262.7 324.2,263.0 325.6,263.2 327.0,263.5 328.3,263.8 329.7,264.0 331.1,264.3 332.4,264.6 333.8,264.9 335.2,265.2 336.6,265.4 338.0,265.6 339.4,265.8 340.8,265.9 342.1,266.0 343.5,266.0 344.9,266.0 346.2,266.0 347.5,265.9 348.9,265.9 350.2,265.8 351.5,265.7 352.8,265.6 354.0,265.5 355.3,265.4 356.6,265.3 357.9,265.2 359.1,265.0 360.4,264.9 361.7,264.7 363.0,264.4 364.3,264.1 365.6,263.8 366.9,263.5 368.2,263.1 369.4,262.7 370.7,262.3 371.9,261.9 373.2,261.4 374.4,261.0 375.6,260.5 376.8,260.0 378.0,259.5 379.1,259.0 380.3,258.4 381.5,257.8 382.6,257.2 383.8,256.5 385.0,255.8 386.1,255.0 387.3,254.2 388.5,253.4 389.6,252.6 390.8,251.7 392.0,250.9 393.2,250.0 394.4,249.2 395.6,248.3 396.7,247.4 397.9,246.5 399.1,245.6 400.2,244.7 401.4,243.8 402.5,242.9 403.6,241.9 404.7,241.0 405.8,240.0 406.9,239.0 408.0,237.9 409.1,236.8 410.1,235.7 411.2,234.5 412.3,233.3 413.4,232.1 414.4,230.8 415.5,229.5 416.6,228.1 417.7,226.8 418.8,225.4 420.0,224.1 421.1,222.8 422.2,221.4 423.3,220.1 424.4,218.8 425.5,217.4 426.6,216.1 427.7,214.7 428.8,213.3 429.9,211.9 431.0,210.4 432.1,208.9 433.2,207.3 434.4,205.7 435.5,204.1 436.6,202.5 437.8,201.0 438.9,199.5 440.1,198.0 441.2,196.5 442.4,195.1 443.5,193.8 444.7,192.4 445.8,191.1 447.0,189.8 448.1,188.6 449.3,187.3 450.4,186.1 451.6,184.8 452.8,183.5 453.9,182.2 455.1,181.0 456.3,179.8 457.5,178.6 458.8,177.4 460.0,176.2 461.2,175.1 462.4,174.1 463.6,173.1 464.8,172.1 466.0,171.2 467.2,170.3 468.4,169.4 469.5,168.6 470.7,167.8 471.9,167.1 473.0,166.4 474.2,165.7 475.4,165.1 476.5,164.5 477.7,164.0 478.9,163.5 480.0,163.0 481.2,162.6 482.4,162.2 483.6,161.8 484.8,161.5 486.0,161.2 487.2,160.9 488.4,160.7 489.5,160.4 490.7,160.2 491.9,159.9 493.0,159.7 494.2,159.6 495.3,159.4 496.5,159.2 497.6,159.1 498.7,159.0 499.7,158.9 500.8,158.9 501.9,158.9 503.0,158.9 504.0,159.0 505.1,159.1 506.2,159.2 507.3,159.4 508.3,159.6 509.4,159.9 510.5,160.1 511.6,160.4 512.7,160.6 513.8,160.9 514.8,161.1 515.9,161.4 517.0,161.6 518.0,161.9 519.1,162.2 520.1,162.5 521.1,162.8 522.1,163.2 523.2,163.6 524.2,164.0 525.2,164.4 526.2,164.9 527.2,165.3 528.3,165.7 529.3,166.0 530.3,166.3 531.3,166.6 532.3,166.8 533.3,167.0 534.3,167.2 535.3,167.3 536.3,167.4 537.3,167.5 538.3,167.5 539.2,167.6 540.2,167.7 541.1,167.7 542.1,167.8 543.0,167.9 544.0,167.9 545.0,167.9 546.0,167.9 547.0,167.9 548.0,167.8 549.0,167.7 550.0,167.6 551.0,167.5 552.0,167.3 553.0,167.1 553.9,166.8 554.9,166.5 555.8,166.2 556.8,165.9 557.7,165.5 558.7,165.1 559.6,164.6 560.6,164.2 561.6,163.7 562.6,163.2 563.6,162.7 564.6,162.2 565.6,161.8 566.6,161.3 567.6,160.8 568.6,160.2 569.5,159.7 570.5,159.1 571.5,158.5 572.5,157.9 573.5,157.2 574.5,156.5 575.4,155.8 576.4,155.0 577.4,154.2 578.3,153.3 579.3,152.4 580.3,151.5 581.2,150.5 582.2,149.5 583.2,148.4 584.2,147.4 585.2,146.3 586.2,145.1 587.2,144.0 588.2,142.8 589.3,141.6 590.3,140.4 591.4,139.2 592.4,138.0 593.5,136.8 594.6,135.6 595.7,134.4 596.8,133.3 597.9,132.2 599.0,131.2 600.1,130.2 601.3,129.2 602.4,128.2 603.5,127.3 604.6,126.4 605.8,125.6 606.9,124.8 608.1,124.0 609.2,123.3 610.4,122.5 611.5,121.9 612.7,121.2 613.9,120.6 615.1,119.9 616.3,119.4 617.5,118.8 618.6,118.3 619.8,117.8 621.0,117.4 622.2,117.0 623.4,116.6 624.6,116.3 625.8,116.0 626.9,115.8 628.1,115.5 629.2,115.3 630.4,115.1 631.5,114.8 632.6,114.6 633.7,114.4 634.8,114.2 635.9,114.0 637.1,113.8 638.2,113.6 639.3,113.4 640.4,113.2 641.5,113.0 642.6,112.9 643.7,112.6 644.7,112.4 645.8,112.2 646.9,112.0 647.9,111.8 649.0,111.5 650.1,111.3 651.1,111.1 652.1,110.9 653.2,110.7 654.2,110.5 655.3,110.3 656.3,110.1 657.3,109.9 658.4,109.6 659.4,109.4 660.4,109.1 661.5,108.9 662.5,108.6 663.5,108.3 664.5,108.0 665.5,107.7 666.5,107.4 667.5,107.1 668.4,106.8 669.4,106.5 670.4,106.3 671.4,106.0 672.4,105.7 673.3,105.4 674.3,105.0 675.3,104.7 676.2,104.3 677.2,104.0 678.2,103.6 679.1,103.3 680.1,103.0 681.0,102.6 681.9,102.2 682.9,101.9 683.8,101.5 684.7,101.1 685.6,100.8 686.5,100.4 687.5,100.0 688.4,99.6 689.3,99.2 690.2,98.8 691.1,98.4 692.0,98.0 692.9,97.5 693.8,97.1 694.6,96.7 695.5,96.3 696.4,95.9 697.3,95.5 698.1,95.1 699.0,94.7 699.9,94.3 700.7,93.9 701.6,93.4 702.4,93.0 703.2,92.5 704.1,92.1 704.9,91.7 705.7,91.2 706.6,90.8 707.4,90.3 708.2,89.8 709.1,89.4 709.9,88.9 710.7,88.4 711.5,87.9 712.3,87.4 713.1,87.0 713.9,86.5 714.7,86.1 715.5,85.6 716.3,85.2 717.1,84.7 717.8,84.3 718.6,83.8 719.4,83.4 720.2,82.9 720.9,82.4 721.7,82.0 722.5,81.5 723.2,81.0 724.0,80.5 724.8,80.0 725.5,79.5 726.2,79.0 727.0,78.5 727.7,78.0 728.5,77.5 729.2,77.0 729.9,76.5 730.7,76.0 731.4,75.6 732.1,75.1 732.8,74.7 733.5,74.2 734.2,73.8 734.9,73.4 735.6,72.9 736.3,72.5 737.0,72.1 737.7,71.6 738.4,71.2 739.1,70.8 739.7,70.4 740.4,70.0 741.1,69.6 741.8,69.2 742.5,68.8 743.1,68.4 743.8,68.0 744.5,67.6 745.2,67.2 745.9,66.8 746.5,66.4 747.2,66.0 747.8,65.5 748.5,65.1 749.1,64.7 749.8,64.3 750.4,63.9 751.1,63.5 751.7,63.2 752.3,62.8 753.0,62.4 753.6,62.1 754.2,61.7 754.8,61.3 755.5,60.9 756.1,60.5 756.7,60.1 757.3,59.7 757.9,59.4 758.5,59.0 759.1,58.6 759.7,58.2 760.3,57.9 760.9,57.5 761.4,57.2 762.0,56.8 762.6,56.4 763.2,56.0 763.7,55.6 764.3,55.2 764.9,54.8 765.4,54.4 766.0,54.0"/>
<line x1="606" y1="42" x2="628" y2="42" stroke="#0f62fe" stroke-width="2.2"/>
<text x="634" y="46" font-family="Arial" font-size="12">y_m</text>
</svg>