<svg xmlns="http://www.w3.org/2000/svg" width="820" height="320" viewBox="0 0 820 320">
<rect width="100%" height="100%" fill="#ffffff"/>
<text x="54" y="28" font-family="Arial" font-size="18" font-weight="700">Crossrange Position</text>
<line x1="54" y1="266" x2="766" y2="266" stroke="#1f2933"/>
<line x1="54" y1="54" x2="54" y2="266" stroke="#1f2933"/>
<text x="54" y="306" font-family="Arial" font-size="12">time (s)</text>
<text x="596" y="306" font-family="Arial" font-size="12">y (m)</text>
<text x="58" y="68" font-family="Arial" font-size="11">89.1</text>
<text x="58" y="260" font-family="Arial" font-size="11">-22.2</text>
<polyline fill="none" stroke="#0f62fe" stroke-width="2.2" points="54.0,223.7 55.2,223.7 56.4,223.7 57.6,223.7 58.7,223.7 59.9,223.7 61.1,223.7 62.3,223.7 63.5,223.7 64.7,223.7 65.9,223.7 67.1,223.7 68.2,223.7 69.4,223.7 70.6,223.7 71.8,223.7 73.0,223.7 74.2,223.7 75.4,223.7 76.5,223.7 77.7,223.6 78.9,223.6 80.1,223.6 81.3,223.6 82.5,223.5 83.7,223.5 84.9,223.4 86.0,223.4 87.2,223.3 88.4,223.3 89.6,223.2 90.8,223.2 92.0,223.1 93.2,223.0 94.3,222.9 95.5,222.8 96.7,222.7 97.9,222.6 99.1,222.6 100.3,222.5 101.5,222.4 102.7,222.3 103.8,222.2 105.0,222.1 106.2,222.0 107.4,222.0 108.6,221.9 109.8,221.9 111.0,221.8 112.1,221.8 113.3,221.8 114.5,221.9 115.7,222.0 116.9,222.1 118.1,222.2 119.3,222.4 120.5,222.6 121.6,222.9 122.8,223.1 124.0,223.5 125.2,223.8 126.4,224.2 127.6,224.6 128.8,225.0 129.9,225.4 131.1,225.7 132.3,226.1 133.5,226.4 134.7,226.7 135.9,227.0 137.1,227.3 138.3,227.5 139.4,227.7 140.6,227.8 141.8,227.9 143.0,228.0 144.2,228.1 145.4,228.3 146.6,228.5 147.7,228.7 148.9,229.0 150.1,229.3 151.3,229.7 152.5,230.0 153.7,230.4 154.9,230.7 156.1,231.0 157.2,231.2 158.4,231.4 159.6,231.6 160.8,231.8 162.0,232.0 163.2,232.2 164.4,232.4 165.5,232.7 166.7,233.0 167.9,233.4 169.1,233.7 170.3,234.2 171.5,234.6 172.7,235.0 173.9,235.4 175.0,235.7 176.2,236.0 177.4,236.3 178.6,236.5 179.8,236.7 181.0,237.0 182.2,237.3 183.3,237.6 184.5,238.0 185.7,238.4 186.9,238.8 188.1,239.3 189.3,239.7 190.5,240.2 191.7,240.7 192.8,241.2 194.0,241.6 195.2,242.0 196.4,242.5 197.6,242.9 198.8,243.3 200.0,243.7 201.1,244.1 202.3,244.5 203.5,244.9 204.7,245.4 205.9,246.0 207.1,246.5 208.3,247.1 209.5,247.8 210.6,248.4 211.8,249.1 213.0,249.6 214.2,250.2 215.4,250.7 216.6,251.2 217.8,251.7 218.9,252.1 220.1,252.6 221.3,253.0 222.5,253.5 223.7,253.9 224.9,254.3 226.1,254.8 227.3,255.3 228.4,255.7 229.6,256.3 230.8,256.8 232.0,257.4 233.2,258.0 234.4,258.6 235.6,259.2 236.7,259.7 237.9,260.1 239.1,260.6 240.3,260.9 241.5,261.3 242.7,261.6 243.9,261.9 245.1,262.2 246.2,262.5 247.4,262.7 248.6,263.0 249.8,263.2 251.0,263.5 252.2,263.8 253.4,264.0 254.5,264.3 255.7,264.6 256.9,264.9 258.1,265.2 259.3,265.4 260.5,265.6 261.7,265.8 262.9,265.9 264.0,266.0 265.2,266.0 266.4,266.0 267.6,266.0 268.8,265.9 270.0,265.9 271.2,265.8 272.3,265.7 273.5,265.6 274.7,265.5 275.9,265.4 277.1,265.3 278.3,265.2 279.5,265.0 280.7,264.9 281.8,264.7 283.0,264.4 284.2,264.1 285.4,263.8 286.6,263.5 287.8,263.1 289.0,262.7 290.1,262.3 291.3,261.9 292.5,261.4 293.7,261.0 294.9,260.5 296.1,260.0 297.3,259.5 298.5,259.0 299.6,258.4 300.8,257.8 302.0,257.2 303.2,256.5 304.4,255.8 305.6,255.0 306.8,254.2 307.9,253.4 309.1,252.6 310.3,251.7 311.5,250.9 312.7,250.0 313.9,249.2 315.1,248.3 316.3,247.4 317.4,246.5 318.6,245.6 319.8,244.7 321.0,243.8 322.2,242.9 323.4,241.9 324.6,241.0 325.7,240.0 326.9,239.0 328.1,237.9 329.3,236.8 330.5,235.7 331.7,234.5 332.9,233.3 334.1,232.1 335.2,230.8 336.4,229.5 337.6,228.1 338.8,226.8 340.0,225.4 341.2,224.1 342.4,222.8 343.5,221.4 344.7,220.1 345.9,218.8 347.1,217.4 348.3,216.1 349.5,214.7 350.7,213.3 351.9,211.9 353.0,210.4 354.2,208.9 355.4,207.3 356.6,205.7 357.8,204.1 359.0,202.5 360.2,201.0 361.3,199.5 362.5,198.0 363.7,196.5 364.9,195.1 366.1,193.8 367.3,192.4 368.5,191.1 369.7,189.8 370.8,188.6 372.0,187.3 373.2,186.1 374.4,184.8 375.6,183.5 376.8,182.2 378.0,181.0 379.1,179.8 380.3,178.6 381.5,177.4 382.7,176.2 383.9,175.1 385.1,174.1 386.3,173.1 387.5,172.1 388.6,171.2 389.8,170.3 391.0,169.4 392.2,168.6 393.4,167.8 394.6,167.1 395.8,166.4 396.9,165.7 398.1,165.1 399.3,164.5 400.5,164.0 401.7,163.5 402.9,163.0 404.1,162.6 405.3,162.2 406.4,161.8 407.6,161.5 408.8,161.2 410.0,160.9 411.2,160.7 412.4,160.4 413.6,160.2 414.7,159.9 415.9,159.7 417.1,159.6 418.3,159.4 419.5,159.2 420.7,159.1 421.9,159.0 423.1,158.9 424.2,158.9 425.4,158.9 426.6,158.9 427.8,159.0 429.0,159.1 430.2,159.2 431.4,159.4 432.5,159.6 433.7,159.9 434.9,160.1 436.1,160.4 437.3,160.6 438.5,160.9 439.7,161.1 440.9,161.4 442.0,161.6 443.2,161.9 444.4,162.2 445.6,162.5 446.8,162.8 448.0,163.2 449.2,163.6 450.3,164.0 451.5,164.4 452.7,164.9 453.9,165.3 455.1,165.7 456.3,166.0 457.5,166.3 458.7,166.6 459.8,166.8 461.0,167.0 462.2,167.2 463.4,167.3 464.6,167.4 465.8,167.5 467.0,167.5 468.1,167.6 469.3,167.7 470.5,167.7 471.7,167.8 472.9,167.9 474.1,167.9 475.3,167.9 476.5,167.9 477.6,167.9 478.8,167.8 480.0,167.7 481.2,167.6 482.4,167.5 483.6,167.3 484.8,167.1 485.9,166.8 487.1,166.5 488.3,166.2 489.5,165.9 490.7,165.5 491.9,165.1 493.1,164.6 494.3,164.2 495.4,163.7 496.6,163.2 497.8,162.7 499.0,162.2 500.2,161.8 501.4,161.3 502.6,160.8 503.7,160.2 504.9,159.7 506.1,159.1 507.3,158.5 508.5,157.9 509.7,157.2 510.9,156.5 512.1,155.8 513.2,155.0 514.4,154.2 515.6,153.3 516.8,152.4 518.0,151.5 519.2,150.5 520.4,149.5 521.5,148.4 522.7,147.4 523.9,146.3 525.1,145.1 526.3,144.0 527.5,142.8 528.7,141.6 529.9,140.4 531.0,139.2 532.2,138.0 533.4,136.8 534.6,135.6 535.8,134.4 537.0,133.3 538.2,132.2 539.3,131.2 540.5,130.2 541.7,129.2 542.9,128.2 544.1,127.3 545.3,126.4 546.5,125.6 547.7,124.8 548.8,124.0 550.0,123.3 551.2,122.5 552.4,121.9 553.6,121.2 554.8,120.6 556.0,119.9 557.1,119.4 558.3,118.8 559.5,118.3 560.7,117.8 561.9,117.4 563.1,117.0 564.3,116.6 565.5,116.3 566.6,116.0 567.8,115.8 569.0,115.5 570.2,115.3 571.4,115.1 572.6,114.8 573.8,114.6 574.9,114.4 576.1,114.2 577.3,114.0 578.5,113.8 579.7,113.6 580.9,113.4 582.1,113.2 583.3,113.0 584.4,112.9 585.6,112.6 586.8,112.4 588.0,112.2 589.2,112.0 590.4,111.8 591.6,111.5 592.7,111.3 593.9,111.1 595.1,110.9 596.3,110.7 597.5,110.5 598.7,110.3 599.9,110.1 601.1,109.9 602.2,109.6 603.4,109.4 604.6,109.1 605.8,108.9 607.0,108.6 608.2,108.3 609.4,108.0 610.5,107.7 611.7,107.4 612.9,107.1 614.1,106.8 615.3,106.5 616.5,106.3 617.7,106.0 618.9,105.7 620.0,105.4 621.2,105.0 622.4,104.7 623.6,104.3 624.8,104.0 626.0,103.6 627.2,103.3 628.3,103.0 629.5,102.6 630.7,102.2 631.9,101.9 633.1,101.5 634.3,101.1 635.5,100.8 636.7,100.4 637.8,100.0 639.0,99.6 640.2,99.2 641.4,98.8 642.6,98.4 643.8,98.0 645.0,97.5 646.1,97.1 647.3,96.7 648.5,96.3 649.7,95.9 650.9,95.5 652.1,95.1 653.3,94.7 654.5,94.3 655.6,93.9 656.8,93.4 658.0,93.0 659.2,92.5 660.4,92.1 661.6,91.7 662.8,91.2 663.9,90.8 665.1,90.3 666.3,89.8 667.5,89.4 668.7,88.9 669.9,88.4 671.1,87.9 672.3,87.4 673.4,87.0 674.6,86.5 675.8,86.1 677.0,85.6 678.2,85.2 679.4,84.7 680.6,84.3 681.7,83.8 682.9,83.4 684.1,82.9 685.3,82.4 686.5,82.0 687.7,81.5 688.9,81.0 690.1,80.5 691.2,80.0 692.4,79.5 693.6,79.0 694.8,78.5 696.0,78.0 697.2,77.5 698.4,77.0 699.5,76.5 700.7,76.0 701.9,75.6 703.1,75.1 704.3,74.7 705.5,74.2 706.7,73.8 707.9,73.4 709.0,72.9 710.2,72.5 711.4,72.1 712.6,71.6 713.8,71.2 715.0,70.8 716.2,70.4 717.3,70.0 718.5,69.6 719.7,69.2 720.9,68.8 722.1,68.4 723.3,68.0 724.5,67.6 725.7,67.2 726.8,66.8 728.0,66.4 729.2,66.0 730.4,65.5 731.6,65.1 732.8,64.7 734.0,64.3 735.1,63.9 736.3,63.5 737.5,63.2 738.7,62.8 739.9,62.4 741.1,62.1 742.3,61.7 743.5,61.3 744.6,60.9 745.8,60.5 747.0,60.1 748.2,59.7 749.4,59.4 750.6,59.0 751.8,58.6 752.9,58.2 754.1,57.9 755.3,57.5 756.5,57.2 757.7,56.8 758.9,56.4 760.1,56.0 761.3,55.6 762.4,55.2 763.6,54.8 764.8,54.4 766.0,54.0"/>
<line x1="606" y1="42" x2="628" y2="42" stroke="#0f62fe" stroke-width="2.2"/>
<text x="634" y="46" font-family="Arial" font-size="12">y_m</text>
</svg>