<svg xmlns="http://www.w3.org/2000/svg" width="820" height="320" viewBox="0 0 820 320">
<rect width="100%" height="100%" fill="#ffffff"/>
<text x="54" y="28" font-family="Arial" font-size="18" font-weight="700">Barometer vs Truth</text>
<line x1="54" y1="266" x2="766" y2="266" stroke="#1f2933"/>
<line x1="54" y1="54" x2="54" y2="266" stroke="#1f2933"/>
<text x="54" y="306" font-family="Arial" font-size="12">time (s)</text>
<text x="596" y="306" font-family="Arial" font-size="12">altitude (m)</text>
<text x="58" y="68" font-family="Arial" font-size="11">1.02e+03</text>
<text x="58" y="260" font-family="Arial" font-size="11">196</text>
<polyline fill="none" stroke="#0f62fe" stroke-width="2.2" points="54.0,59.5 55.2,59.4 56.4,59.2 57.6,59.1 58.7,59.0 59.9,58.9 61.1,58.8 62.3,58.7 63.5,58.6 64.7,58.5 65.9,58.4 67.1,58.3 68.2,58.2 69.4,58.1 70.6,58.0 71.8,57.9 73.0,57.8 74.2,57.7 75.4,57.6 76.5,57.5 77.7,57.4 78.9,57.3 80.1,57.2 81.3,57.2 82.5,57.1 83.7,57.0 84.9,56.9 86.0,56.8 87.2,56.7 88.4,56.6 89.6,56.5 90.8,56.5 92.0,56.4 93.2,56.3 94.3,56.2 95.5,56.1 96.7,56.0 97.9,55.9 99.1,55.9 100.3,55.8 101.5,55.7 102.7,55.6 103.8,55.5 105.0,55.5 106.2,55.4 107.4,55.3 108.6,55.2 109.8,55.2 111.0,55.1 112.1,55.0 113.3,54.9 114.5,54.9 115.7,54.8 116.9,54.7 118.1,54.7 119.3,54.6 120.5,54.5 121.6,54.5 122.8,54.4 124.0,54.4 125.2,54.4 126.4,54.3 127.6,54.3 128.8,54.3 129.9,54.3 131.1,54.3 132.3,54.3 133.5,54.3 134.7,54.4 135.9,54.4 137.1,54.4 138.3,54.5 139.4,54.5 140.6,54.5 141.8,54.6 143.0,54.6 144.2,54.6 145.4,54.7 146.6,54.7 147.7,54.7 148.9,54.8 150.1,54.8 151.3,54.8 152.5,54.9 153.7,55.0 154.9,55.0 156.1,55.1 157.2,55.2 158.4,55.3 159.6,55.3 160.8,55.4 162.0,55.5 163.2,55.5 164.4,55.6 165.5,55.7 166.7,55.7 167.9,55.8 169.1,55.9 170.3,56.0 171.5,56.1 172.7,56.2 173.9,56.3 175.0,56.4 176.2,56.5 177.4,56.6 178.6,56.7 179.8,56.8 181.0,56.9 182.2,57.0 183.3,57.1 184.5,57.2 185.7,57.3 186.9,57.4 188.1,57.5 189.3,57.6 190.5,57.7 191.7,57.8 192.8,58.0 194.0,58.1 195.2,58.2 196.4,58.3 197.6,58.5 198.8,58.6 200.0,58.7 201.1,58.8 202.3,58.9 203.5,59.0 204.7,59.1 205.9,59.2 207.1,59.3 208.3,59.4 209.5,59.6 210.6,59.7 211.8,59.8 213.0,60.0 214.2,60.1 215.4,60.2 216.6,60.4 217.8,60.5 218.9,60.6 220.1,60.7 221.3,60.8 222.5,61.0 223.7,61.1 224.9,61.2 226.1,61.3 227.3,61.5 228.4,61.6 229.6,61.7 230.8,61.9 232.0,62.0 233.2,62.2 234.4,62.4 235.6,62.5 236.7,62.7 237.9,62.9 239.1,63.0 240.3,63.2 241.5,63.4 242.7,63.6 243.9,63.7 245.1,63.9 246.2,64.1 247.4,64.3 248.6,64.5 249.8,64.7 251.0,64.9 252.2,65.1 253.4,65.3 254.5,65.5 255.7,65.8 256.9,66.0 258.1,66.3 259.3,66.5 260.5,66.8 261.7,67.0 262.9,67.2 264.0,67.5 265.2,67.7 266.4,68.0 267.6,68.3 268.8,68.5 270.0,68.8 271.2,69.0 272.3,69.3 273.5,69.6 274.7,69.8 275.9,70.1 277.1,70.4 278.3,70.7 279.5,71.0 280.7,71.3 281.8,71.6 283.0,71.9 284.2,72.2 285.4,72.5 286.6,72.8 287.8,73.1 289.0,73.4 290.1,73.7 291.3,74.0 292.5,74.3 293.7,74.6 294.9,74.9 296.1,75.2 297.3,75.5 298.5,75.8 299.6,76.1 300.8,76.5 302.0,76.8 303.2,77.1 304.4,77.4 305.6,77.7 306.8,78.1 307.9,78.4 309.1,78.7 310.3,79.0 311.5,79.4 312.7,79.7 313.9,80.0 315.1,80.3 316.3,80.6 317.4,80.9 318.6,81.2 319.8,81.5 321.0,81.8 322.2,82.0 323.4,82.3 324.6,82.6 325.7,82.9 326.9,83.2 328.1,83.5 329.3,83.8 330.5,84.1 331.7,84.4 332.9,84.6 334.1,84.9 335.2,85.3 336.4,85.6 337.6,85.9 338.8,86.2 340.0,86.5 341.2,86.7 342.4,87.0 343.5,87.3 344.7,87.6 345.9,87.9 347.1,88.2 348.3,88.4 349.5,88.7 350.7,89.0 351.9,89.2 353.0,89.5 354.2,89.8 355.4,90.0 356.6,90.3 357.8,90.6 359.0,90.9 360.2,91.2 361.3,91.4 362.5,91.7 363.7,92.0 364.9,92.3 366.1,92.6 367.3,92.9 368.5,93.2 369.7,93.4 370.8,93.7 372.0,94.0 373.2,94.3 374.4,94.5 375.6,94.8 376.8,95.0 378.0,95.3 379.1,95.6 380.3,95.8 381.5,96.1 382.7,96.4 383.9,96.7 385.1,97.0 386.3,97.3 387.5,97.5 388.6,97.8 389.8,98.1 391.0,98.4 392.2,98.7 393.4,99.0 394.6,99.3 395.8,99.6 396.9,99.9 398.1,100.2 399.3,100.5 400.5,100.8 401.7,101.0 402.9,101.3 404.1,101.6 405.3,101.9 406.4,102.2 407.6,102.5 408.8,102.8 410.0,103.1 411.2,103.5 412.4,103.8 413.6,104.1 414.7,104.5 415.9,104.8 417.1,105.2 418.3,105.5 419.5,105.9 420.7,106.3 421.9,106.6 423.1,107.0 424.2,107.3 425.4,107.7 426.6,108.1 427.8,108.4 429.0,108.8 430.2,109.2 431.4,109.5 432.5,109.9 433.7,110.3 434.9,110.7 436.1,111.0 437.3,111.4 438.5,111.9 439.7,112.3 440.9,112.7 442.0,113.1 443.2,113.5 444.4,114.0 445.6,114.4 446.8,114.9 448.0,115.3 449.2,115.8 450.3,116.3 451.5,116.7 452.7,117.2 453.9,117.7 455.1,118.2 456.3,118.7 457.5,119.2 458.7,119.7 459.8,120.2 461.0,120.7 462.2,121.2 463.4,121.8 464.6,122.3 465.8,122.8 467.0,123.4 468.1,123.9 469.3,124.5 470.5,125.0 471.7,125.6 472.9,126.2 474.1,126.7 475.3,127.3 476.5,127.9 477.6,128.4 478.8,129.0 480.0,129.6 481.2,130.1 482.4,130.7 483.6,131.2 484.8,131.8 485.9,132.3 487.1,132.9 488.3,133.5 489.5,134.0 490.7,134.6 491.9,135.2 493.1,135.8 494.3,136.4 495.4,136.9 496.6,137.5 497.8,138.1 499.0,138.7 500.2,139.2 501.4,139.8 502.6,140.4 503.7,140.9 504.9,141.5 506.1,142.0 507.3,142.6 508.5,143.1 509.7,143.6 510.9,144.2 512.1,144.7 513.2,145.3 514.4,145.8 515.6,146.3 516.8,146.9 518.0,147.4 519.2,148.0 520.4,148.5 521.5,149.1 522.7,149.6 523.9,150.2 525.1,150.7 526.3,151.2 527.5,151.8 528.7,152.3 529.9,152.9 531.0,153.4 532.2,154.0 533.4,154.6 534.6,155.1 535.8,155.7 537.0,156.2 538.2,156.8 539.3,157.4 540.5,157.9 541.7,158.5 542.9,159.0 544.1,159.6 545.3,160.1 546.5,160.7 547.7,161.2 548.8,161.8 550.0,162.3 551.2,162.9 552.4,163.4 553.6,164.0 554.8,164.5 556.0,165.1 557.1,165.6 558.3,166.2 559.5,166.7 560.7,167.3 561.9,167.8 563.1,168.4 564.3,169.0 565.5,169.5 566.6,170.1 567.8,170.7 569.0,171.3 570.2,171.9 571.4,172.4 572.6,173.0 573.8,173.6 574.9,174.2 576.1,174.8 577.3,175.3 578.5,175.9 579.7,176.5 580.9,177.1 582.1,177.6 583.3,178.2 584.4,178.8 585.6,179.4 586.8,180.0 588.0,180.6 589.2,181.1 590.4,181.7 591.6,182.3 592.7,182.9 593.9,183.4 595.1,184.0 596.3,184.6 597.5,185.2 598.7,185.8 599.9,186.3 601.1,186.9 602.2,187.5 603.4,188.1 604.6,188.6 605.8,189.2 607.0,189.8 608.2,190.4 609.4,190.9 610.5,191.5 611.7,192.1 612.9,192.7 614.1,193.3 615.3,193.8 616.5,194.4 617.7,195.0 618.9,195.5 620.0,196.1 621.2,196.7 622.4,197.3 623.6,197.8 624.8,198.4 626.0,199.0 627.2,199.6 628.3,200.1 629.5,200.7 630.7,201.3 631.9,201.9 633.1,202.4 634.3,203.0 635.5,203.6 636.7,204.2 637.8,204.7 639.0,205.3 640.2,205.9 641.4,206.4 642.6,207.0 643.8,207.6 645.0,208.2 646.1,208.7 647.3,209.3 648.5,209.9 649.7,210.4 650.9,211.0 652.1,211.6 653.3,212.2 654.5,212.7 655.6,213.3 656.8,213.9 658.0,214.4 659.2,215.0 660.4,215.6 661.6,216.2 662.8,216.7 663.9,217.3 665.1,217.9 666.3,218.4 667.5,219.0 668.7,219.6 669.9,220.1 671.1,220.7 672.3,221.3 673.4,221.9 674.6,222.4 675.8,223.0 677.0,223.6 678.2,224.1 679.4,224.7 680.6,225.3 681.7,225.8 682.9,226.4 684.1,227.0 685.3,227.5 686.5,228.1 687.7,228.6 688.9,229.2 690.1,229.8 691.2,230.3 692.4,230.9 693.6,231.5 694.8,232.0 696.0,232.6 697.2,233.2 698.4,233.7 699.5,234.3 700.7,234.8 701.9,235.4 703.1,236.0 704.3,236.5 705.5,237.1 706.7,237.7 707.9,238.2 709.0,238.8 710.2,239.4 711.4,239.9 712.6,240.5 713.8,241.1 715.0,241.6 716.2,242.2 717.3,242.8 718.5,243.3 719.7,243.9 720.9,244.5 722.1,245.0 723.3,245.6 724.5,246.1 725.7,246.7 726.8,247.3 728.0,247.8 729.2,248.4 730.4,249.0 731.6,249.5 732.8,250.1 734.0,250.6 735.1,251.2 736.3,251.8 737.5,252.3 738.7,252.9 739.9,253.5 741.1,254.0 742.3,254.6 743.5,255.2 744.6,255.7 745.8,256.3 747.0,256.9 748.2,257.4 749.4,258.0 750.6,258.5 751.8,259.1 752.9,259.7 754.1,260.2 755.3,260.8 756.5,261.4 757.7,262.0 758.9,262.5 760.1,263.1 761.3,263.7 762.4,264.2 763.6,264.8 764.8,265.4 766.0,265.9"/>
<line x1="606" y1="42" x2="628" y2="42" stroke="#0f62fe" stroke-width="2.2"/>
<text x="634" y="46" font-family="Arial" font-size="12">altitude_m</text>
<polyline fill="none" stroke="#24a148" stroke-width="2.2" points="54.0,59.5 55.2,59.5 56.4,59.1 57.6,59.1 58.7,59.2 59.9,59.2 61.1,58.5 62.3,58.5 63.5,58.6 64.7,58.6 65.9,58.4 67.1,58.4 68.2,58.0 69.4,58.0 70.6,58.2 71.8,58.2 73.0,57.8 74.2,57.8 75.4,57.8 76.5,57.8 77.7,57.4 78.9,57.4 80.1,57.3 81.3,57.3 82.5,57.0 83.7,57.0 84.9,56.7 86.0,56.7 87.2,56.6 88.4,56.6 89.6,56.7 90.8,56.7 92.0,56.3 93.2,56.3 94.3,56.3 95.5,56.3 96.7,55.9 97.9,55.9 99.1,56.0 100.3,56.0 101.5,55.8 102.7,55.8 103.8,55.4 105.0,55.4 106.2,55.5 107.4,55.5 108.6,55.4 109.8,55.4 111.0,55.3 112.1,55.3 113.3,55.2 114.5,55.2 115.7,54.6 116.9,54.6 118.1,54.7 119.3,54.7 120.5,54.7 121.6,54.7 122.8,54.0 124.0,54.0 125.2,54.3 126.4,54.3 127.6,54.4 128.8,54.4 129.9,54.2 131.1,54.2 132.3,54.5 133.5,54.5 134.7,54.2 135.9,54.2 137.1,54.4 138.3,54.4 139.4,54.5 140.6,54.5 141.8,54.4 143.0,54.4 144.2,54.7 145.4,54.7 146.6,54.8 147.7,54.8 148.9,54.6 150.1,54.6 151.3,54.8 152.5,54.8 153.7,55.2 154.9,55.2 156.1,55.0 157.2,55.0 158.4,55.4 159.6,55.4 160.8,55.4 162.0,55.4 163.2,55.6 164.4,55.6 165.5,55.5 166.7,55.5 167.9,56.2 169.1,56.2 170.3,56.2 171.5,56.2 172.7,56.1 173.9,56.1 175.0,56.7 176.2,56.7 177.4,56.3 178.6,56.3 179.8,57.0 181.0,57.0 182.2,57.0 183.3,57.0 184.5,57.1 185.7,57.1 186.9,57.3 188.1,57.3 189.3,57.5 190.5,57.5 191.7,57.9 192.8,57.9 194.0,58.0 195.2,58.0 196.4,58.2 197.6,58.2 198.8,58.7 200.0,58.7 201.1,58.8 202.3,58.8 203.5,58.8 204.7,58.8 205.9,59.3 207.1,59.3 208.3,59.8 209.5,59.8 210.6,59.6 211.8,59.6 213.0,59.7 214.2,59.7 215.4,60.2 216.6,60.2 217.8,60.5 218.9,60.5 220.1,61.1 221.3,61.1 222.5,60.4 223.7,60.4 224.9,61.0 226.1,61.0 227.3,61.3 228.4,61.3 229.6,61.8 230.8,61.8 232.0,62.4 233.2,62.4 234.4,62.2 235.6,62.2 236.7,62.4 237.9,62.4 239.1,62.8 240.3,62.8 241.5,63.3 242.7,63.3 243.9,63.8 245.1,63.8 246.2,64.2 247.4,64.2 248.6,64.5 249.8,64.5 251.0,64.7 252.2,64.7 253.4,65.3 254.5,65.3 255.7,65.9 256.9,65.9 258.1,66.4 259.3,66.4 260.5,67.0 261.7,67.0 262.9,67.2 264.0,67.2 265.2,67.6 266.4,67.6 267.6,68.1 268.8,68.1 270.0,68.6 271.2,68.6 272.3,69.2 273.5,69.2 274.7,70.1 275.9,70.1 277.1,70.5 278.3,70.5 279.5,71.1 280.7,71.1 281.8,71.9 283.0,71.9 284.2,72.2 285.4,72.2 286.6,73.0 287.8,73.0 289.0,73.2 290.1,73.2 291.3,74.2 292.5,74.2 293.7,74.6 294.9,74.6 296.1,75.1 297.3,75.1 298.5,75.8 299.6,75.8 300.8,76.5 302.0,76.5 303.2,76.9 304.4,76.9 305.6,77.7 306.8,77.7 307.9,78.7 309.1,78.7 310.3,79.3 311.5,79.3 312.7,79.7 313.9,79.7 315.1,80.2 316.3,80.2 317.4,80.9 318.6,80.9 319.8,81.2 321.0,81.2 322.2,82.0 323.4,82.0 324.6,82.7 325.7,82.7 326.9,83.3 328.1,83.3 329.3,83.6 330.5,83.6 331.7,84.4 332.9,84.4 334.1,85.0 335.2,85.0 336.4,86.0 337.6,86.0 338.8,85.9 340.0,85.9 341.2,86.5 342.4,86.5 343.5,87.4 344.7,87.4 345.9,87.9 347.1,87.9 348.3,88.1 349.5,88.1 350.7,88.9 351.9,88.9 353.0,89.3 354.2,89.3 355.4,90.1 356.6,90.1 357.8,90.8 359.0,90.8 360.2,91.5 361.3,91.5 362.5,92.0 363.7,92.0 364.9,92.1 366.1,92.1 367.3,92.9 368.5,92.9 369.7,93.3 370.8,93.3 372.0,93.8 373.2,93.8 374.4,94.7 375.6,94.7 376.8,94.9 378.0,94.9 379.1,95.6 380.3,95.6 381.5,96.0 382.7,96.0 383.9,96.6 385.1,96.6 386.3,97.5 387.5,97.5 388.6,98.0 389.8,98.0 391.0,98.3 392.2,98.3 393.4,99.2 394.6,99.2 395.8,99.4 396.9,99.4 398.1,100.2 399.3,100.2 400.5,100.9 401.7,100.9 402.9,101.3 404.1,101.3 405.3,101.5 406.4,101.5 407.6,102.5 408.8,102.5 410.0,103.1 411.2,103.1 412.4,103.8 413.6,103.8 414.7,104.3 415.9,104.3 417.1,105.4 418.3,105.4 419.5,106.0 420.7,106.0 421.9,106.7 423.1,106.7 424.2,107.5 425.4,107.5 426.6,107.6 427.8,107.6 429.0,108.9 430.2,108.9 431.4,109.2 432.5,109.2 433.7,110.4 434.9,110.4 436.1,110.8 437.3,110.8 438.5,111.6 439.7,111.6 440.9,112.5 442.0,112.5 443.2,113.4 444.4,113.4 445.6,114.5 446.8,114.5 448.0,115.0 449.2,115.0 450.3,116.3 451.5,116.3 452.7,117.5 453.9,117.5 455.1,117.9 456.3,117.9 457.5,119.3 458.7,119.3 459.8,120.1 461.0,120.1 462.2,121.1 463.4,121.1 464.6,122.1 465.8,122.1 467.0,123.1 468.1,123.1 469.3,124.3 470.5,124.3 471.7,125.5 472.9,125.5 474.1,126.4 475.3,126.4 476.5,127.8 477.6,127.8 478.8,128.8 480.0,128.8 481.2,130.1 482.4,130.1 483.6,131.3 484.8,131.3 485.9,132.3 487.1,132.3 488.3,133.3 489.5,133.3 490.7,134.6 491.9,134.6 493.1,135.7 494.3,135.7 495.4,137.1 496.6,137.1 497.8,137.9 499.0,137.9 500.2,139.1 501.4,139.1 502.6,140.4 503.7,140.4 504.9,141.6 506.1,141.6 507.3,142.6 508.5,142.6 509.7,143.8 510.9,143.8 512.1,144.9 513.2,144.9 514.4,145.7 515.6,145.7 516.8,147.0 518.0,147.0 519.2,148.1 520.4,148.1 521.5,149.3 522.7,149.3 523.9,150.3 525.1,150.3 526.3,151.2 527.5,151.2 528.7,152.3 529.9,152.3 531.0,153.6 532.2,153.6 533.4,154.6 534.6,154.6 535.8,155.6 537.0,155.6 538.2,156.9 539.3,156.9 540.5,158.1 541.7,158.1 542.9,159.0 544.1,159.0 545.3,160.4 546.5,160.4 547.7,161.5 548.8,161.5 550.0,162.4 551.2,162.4 552.4,163.6 553.6,163.6 554.8,164.5 556.0,164.5 557.1,165.6 558.3,165.6 559.5,166.7 560.7,166.7 561.9,167.9 563.1,167.9 564.3,169.2 565.5,169.2 566.6,170.1 567.8,170.1 569.0,171.2 570.2,171.2 571.4,172.3 572.6,172.3 573.8,173.7 574.9,173.7 576.1,174.7 577.3,174.7 578.5,176.3 579.7,176.3 580.9,177.1 582.1,177.1 583.3,178.3 584.4,178.3 585.6,179.4 586.8,179.4 588.0,180.5 589.2,180.5 590.4,181.6 591.6,181.6 592.7,182.6 593.9,182.6 595.1,184.0 596.3,184.0 597.5,185.0 598.7,185.0 599.9,186.6 601.1,186.6 602.2,187.5 603.4,187.5 604.6,188.9 605.8,188.9 607.0,189.6 608.2,189.6 609.4,191.1 610.5,191.1 611.7,192.3 612.9,192.3 614.1,193.5 615.3,193.5 616.5,194.4 617.7,194.4 618.9,195.6 620.0,195.6 621.2,197.0 622.4,197.0 623.6,197.9 624.8,197.9 626.0,199.1 627.2,199.1 628.3,200.1 629.5,200.1 630.7,201.2 631.9,201.2 633.1,202.4 634.3,202.4 635.5,203.5 636.7,203.5 637.8,204.7 639.0,204.7 640.2,205.6 641.4,205.6 642.6,206.8 643.8,206.8 645.0,208.1 646.1,208.1 647.3,209.4 648.5,209.4 649.7,210.6 650.9,210.6 652.1,211.4 653.3,211.4 654.5,212.7 655.6,212.7 656.8,213.8 658.0,213.8 659.2,215.1 660.4,215.1 661.6,216.0 662.8,216.0 663.9,216.9 665.1,216.9 666.3,218.4 667.5,218.4 668.7,219.4 669.9,219.4 671.1,220.5 672.3,220.5 673.4,222.0 674.6,222.0 675.8,223.0 677.0,223.0 678.2,224.2 679.4,224.2 680.6,225.3 681.7,225.3 682.9,226.4 684.1,226.4 685.3,227.3 686.5,227.3 687.7,228.6 688.9,228.6 690.1,230.0 691.2,230.0 692.4,231.3 693.6,231.3 694.8,232.0 696.0,232.0 697.2,233.3 698.4,233.3 699.5,234.4 700.7,234.4 701.9,235.7 703.1,235.7 704.3,236.6 705.5,236.6 706.7,237.8 707.9,237.8 709.0,239.0 710.2,239.0 711.4,239.9 712.6,239.9 713.8,241.0 715.0,241.0 716.2,242.4 717.3,242.4 718.5,243.3 719.7,243.3 720.9,244.6 722.1,244.6 723.3,245.4 724.5,245.4 725.7,246.7 726.8,246.7 728.0,248.0 729.2,248.0 730.4,249.0 731.6,249.0 732.8,250.5 734.0,250.5 735.1,250.7 736.3,250.7 737.5,252.2 738.7,252.2 739.9,253.7 741.1,253.7 742.3,254.6 743.5,254.6 744.6,255.6 745.8,255.6 747.0,256.8 748.2,256.8 749.4,257.8 750.6,257.8 751.8,259.0 752.9,259.0 754.1,260.3 755.3,260.3 756.5,261.8 757.7,261.8 758.9,262.4 760.1,262.4 761.3,263.5 762.4,263.5 763.6,264.6 764.8,264.6 766.0,266.0"/>
<line x1="606" y1="60" x2="628" y2="60" stroke="#24a148" stroke-width="2.2"/>
<text x="634" y="64" font-family="Arial" font-size="12">baro_alt_m</text>
</svg>