<svg xmlns="http://www.w3.org/2000/svg" width="820" height="320" viewBox="0 0 820 320">
<rect width="100%" height="100%" fill="#ffffff"/>
<text x="54" y="28" font-family="Arial" font-size="18" font-weight="700">Downrange Position</text>
<line x1="54" y1="266" x2="766" y2="266" stroke="#1f2933"/>
<line x1="54" y1="54" x2="54" y2="266" stroke="#1f2933"/>
<text x="54" y="306" font-family="Arial" font-size="12">time (s)</text>
<text x="596" y="306" font-family="Arial" font-size="12">x (m)</text>
<text x="58" y="68" font-family="Arial" font-size="11">9.7e+03</text>
<text x="58" y="260" font-family="Arial" font-size="11">0</text>
<polyline fill="none" stroke="#0f62fe" stroke-width="2.2" points="54.0,266.0 55.2,265.9 56.4,265.7 57.6,265.6 58.7,265.4 59.9,265.3 61.1,265.1 62.3,265.0 63.5,264.8 64.7,264.6 65.9,264.5 67.1,264.3 68.2,264.2 69.4,264.0 70.6,263.9 71.8,263.7 73.0,263.5 74.2,263.4 75.4,263.2 76.5,263.1 77.7,262.9 78.9,262.7 80.1,262.6 81.3,262.4 82.5,262.2 83.7,262.1 84.9,261.9 86.0,261.7 87.2,261.6 88.4,261.4 89.6,261.2 90.8,261.0 92.0,260.9 93.2,260.7 94.3,260.5 95.5,260.3 96.7,260.2 97.9,260.0 99.1,259.8 100.3,259.6 101.5,259.4 102.7,259.3 103.8,259.1 105.0,258.9 106.2,258.7 107.4,258.5 108.6,258.3 109.8,258.1 111.0,258.0 112.1,257.8 113.3,257.6 114.5,257.4 115.7,257.2 116.9,257.0 118.1,256.8 119.3,256.6 120.5,256.4 121.6,256.2 122.8,256.0 124.0,255.8 125.2,255.6 126.4,255.4 127.6,255.2 128.8,255.0 129.9,254.8 131.1,254.6 132.3,254.4 133.5,254.2 134.7,254.0 135.9,253.8 137.1,253.6 138.3,253.3 139.4,253.1 140.6,252.9 141.8,252.7 143.0,252.5 144.2,252.3 145.4,252.1 146.6,251.8 147.7,251.6 148.9,251.4 150.1,251.2 151.3,251.0 152.5,250.7 153.7,250.5 154.9,250.3 156.1,250.1 157.2,249.8 158.4,249.6 159.6,249.4 160.8,249.2 162.0,248.9 163.2,248.7 164.4,248.5 165.5,248.2 166.7,248.0 167.9,247.8 169.1,247.5 170.3,247.3 171.5,247.1 172.7,246.8 173.9,246.6 175.0,246.4 176.2,246.1 177.4,245.9 178.6,245.6 179.8,245.4 181.0,245.2 182.2,244.9 183.3,244.7 184.5,244.4 185.7,244.2 186.9,243.9 188.1,243.7 189.3,243.4 190.5,243.2 191.7,242.9 192.8,242.7 194.0,242.4 195.2,242.2 196.4,241.9 197.6,241.7 198.8,241.4 200.0,241.1 201.1,240.9 202.3,240.6 203.5,240.4 204.7,240.1 205.9,239.9 207.1,239.6 208.3,239.3 209.5,239.1 210.6,238.8 211.8,238.5 213.0,238.3 214.2,238.0 215.4,237.7 216.6,237.5 217.8,237.2 218.9,236.9 220.1,236.7 221.3,236.4 222.5,236.1 223.7,235.8 224.9,235.6 226.1,235.3 227.3,235.0 228.4,234.7 229.6,234.5 230.8,234.2 232.0,233.9 233.2,233.6 234.4,233.3 235.6,233.0 236.7,232.8 237.9,232.5 239.1,232.2 240.3,231.9 241.5,231.6 242.7,231.3 243.9,231.1 245.1,230.8 246.2,230.5 247.4,230.2 248.6,229.9 249.8,229.6 251.0,229.3 252.2,229.0 253.4,228.7 254.5,228.4 255.7,228.1 256.9,227.8 258.1,227.5 259.3,227.2 260.5,226.9 261.7,226.6 262.9,226.3 264.0,226.0 265.2,225.7 266.4,225.4 267.6,225.1 268.8,224.8 270.0,224.5 271.2,224.2 272.3,223.9 273.5,223.6 274.7,223.3 275.9,223.0 277.1,222.7 278.3,222.4 279.5,222.1 280.7,221.7 281.8,221.4 283.0,221.1 284.2,220.8 285.4,220.5 286.6,220.2 287.8,219.9 289.0,219.5 290.1,219.2 291.3,218.9 292.5,218.6 293.7,218.3 294.9,217.9 296.1,217.6 297.3,217.3 298.5,217.0 299.6,216.6 300.8,216.3 302.0,216.0 303.2,215.7 304.4,215.3 305.6,215.0 306.8,214.7 307.9,214.4 309.1,214.0 310.3,213.7 311.5,213.4 312.7,213.0 313.9,212.7 315.1,212.4 316.3,212.0 317.4,211.7 318.6,211.4 319.8,211.0 321.0,210.7 322.2,210.3 323.4,210.0 324.6,209.7 325.7,209.3 326.9,209.0 328.1,208.6 329.3,208.3 330.5,208.0 331.7,207.6 332.9,207.3 334.1,206.9 335.2,206.6 336.4,206.2 337.6,205.9 338.8,205.5 340.0,205.2 341.2,204.8 342.4,204.5 343.5,204.1 344.7,203.8 345.9,203.4 347.1,203.1 348.3,202.7 349.5,202.4 350.7,202.0 351.9,201.7 353.0,201.3 354.2,201.0 355.4,200.6 356.6,200.2 357.8,199.9 359.0,199.5 360.2,199.2 361.3,198.8 362.5,198.4 363.7,198.1 364.9,197.7 366.1,197.3 367.3,197.0 368.5,196.6 369.7,196.3 370.8,195.9 372.0,195.5 373.2,195.1 374.4,194.8 375.6,194.4 376.8,194.0 378.0,193.7 379.1,193.3 380.3,192.9 381.5,192.6 382.7,192.2 383.9,191.8 385.1,191.4 386.3,191.1 387.5,190.7 388.6,190.3 389.8,189.9 391.0,189.5 392.2,189.2 393.4,188.8 394.6,188.4 395.8,188.0 396.9,187.7 398.1,187.3 399.3,186.9 400.5,186.5 401.7,186.1 402.9,185.7 404.1,185.4 405.3,185.0 406.4,184.6 407.6,184.2 408.8,183.8 410.0,183.4 411.2,183.0 412.4,182.6 413.6,182.2 414.7,181.9 415.9,181.5 417.1,181.1 418.3,180.7 419.5,180.3 420.7,179.9 421.9,179.5 423.1,179.1 424.2,178.7 425.4,178.3 426.6,177.9 427.8,177.5 429.0,177.1 430.2,176.7 431.4,176.3 432.5,175.9 433.7,175.5 434.9,175.1 436.1,174.7 437.3,174.3 438.5,173.9 439.7,173.5 440.9,173.1 442.0,172.7 443.2,172.3 444.4,171.9 445.6,171.5 446.8,171.1 448.0,170.7 449.2,170.3 450.3,169.9 451.5,169.4 452.7,169.0 453.9,168.6 455.1,168.2 456.3,167.8 457.5,167.4 458.7,167.0 459.8,166.6 461.0,166.1 462.2,165.7 463.4,165.3 464.6,164.9 465.8,164.5 467.0,164.1 468.1,163.6 469.3,163.2 470.5,162.8 471.7,162.4 472.9,162.0 474.1,161.6 475.3,161.1 476.5,160.7 477.6,160.3 478.8,159.9 480.0,159.4 481.2,159.0 482.4,158.6 483.6,158.2 484.8,157.7 485.9,157.3 487.1,156.9 488.3,156.5 489.5,156.0 490.7,155.6 491.9,155.2 493.1,154.7 494.3,154.3 495.4,153.9 496.6,153.5 497.8,153.0 499.0,152.6 500.2,152.2 501.4,151.7 502.6,151.3 503.7,150.9 504.9,150.4 506.1,150.0 507.3,149.6 508.5,149.1 509.7,148.7 510.9,148.2 512.1,147.8 513.2,147.4 514.4,146.9 515.6,146.5 516.8,146.0 518.0,145.6 519.2,145.2 520.4,144.7 521.5,144.3 522.7,143.8 523.9,143.4 525.1,142.9 526.3,142.5 527.5,142.1 528.7,141.6 529.9,141.2 531.0,140.7 532.2,140.3 533.4,139.8 534.6,139.4 535.8,138.9 537.0,138.5 538.2,138.0 539.3,137.6 540.5,137.1 541.7,136.7 542.9,136.2 544.1,135.8 545.3,135.3 546.5,134.9 547.7,134.4 548.8,134.0 550.0,133.5 551.2,133.1 552.4,132.6 553.6,132.1 554.8,131.7 556.0,131.2 557.1,130.8 558.3,130.3 559.5,129.9 560.7,129.4 561.9,128.9 563.1,128.5 564.3,128.0 565.5,127.6 566.6,127.1 567.8,126.6 569.0,126.2 570.2,125.7 571.4,125.3 572.6,124.8 573.8,124.3 574.9,123.9 576.1,123.4 577.3,122.9 578.5,122.5 579.7,122.0 580.9,121.5 582.1,121.1 583.3,120.6 584.4,120.1 585.6,119.7 586.8,119.2 588.0,118.7 589.2,118.3 590.4,117.8 591.6,117.3 592.7,116.9 593.9,116.4 595.1,115.9 596.3,115.5 597.5,115.0 598.7,114.5 599.9,114.1 601.1,113.6 602.2,113.1 603.4,112.7 604.6,112.2 605.8,111.7 607.0,111.3 608.2,110.8 609.4,110.4 610.5,109.9 611.7,109.4 612.9,109.0 614.1,108.5 615.3,108.1 616.5,107.6 617.7,107.2 618.9,106.7 620.0,106.3 621.2,105.8 622.4,105.3 623.6,104.9 624.8,104.4 626.0,104.0 627.2,103.5 628.3,103.1 629.5,102.6 630.7,102.2 631.9,101.7 633.1,101.3 634.3,100.8 635.5,100.4 636.7,99.9 637.8,99.5 639.0,99.0 640.2,98.6 641.4,98.2 642.6,97.7 643.8,97.3 645.0,96.8 646.1,96.4 647.3,95.9 648.5,95.5 649.7,95.0 650.9,94.6 652.1,94.2 653.3,93.7 654.5,93.3 655.6,92.8 656.8,92.4 658.0,92.0 659.2,91.5 660.4,91.1 661.6,90.7 662.8,90.2 663.9,89.8 665.1,89.3 666.3,88.9 667.5,88.5 668.7,88.0 669.9,87.6 671.1,87.2 672.3,86.7 673.4,86.3 674.6,85.9 675.8,85.4 677.0,85.0 678.2,84.6 679.4,84.1 680.6,83.7 681.7,83.3 682.9,82.9 684.1,82.4 685.3,82.0 686.5,81.6 687.7,81.2 688.9,80.7 690.1,80.3 691.2,79.9 692.4,79.5 693.6,79.0 694.8,78.6 696.0,78.2 697.2,77.8 698.4,77.3 699.5,76.9 700.7,76.5 701.9,76.1 703.1,75.6 704.3,75.2 705.5,74.8 706.7,74.4 707.9,74.0 709.0,73.6 710.2,73.1 711.4,72.7 712.6,72.3 713.8,71.9 715.0,71.5 716.2,71.1 717.3,70.6 718.5,70.2 719.7,69.8 720.9,69.4 722.1,69.0 723.3,68.6 724.5,68.2 725.7,67.7 726.8,67.3 728.0,66.9 729.2,66.5 730.4,66.1 731.6,65.7 732.8,65.3 734.0,64.9 735.1,64.5 736.3,64.1 737.5,63.6 738.7,63.2 739.9,62.8 741.1,62.4 742.3,62.0 743.5,61.6 744.6,61.2 745.8,60.8 747.0,60.4 748.2,60.0 749.4,59.6 750.6,59.2 751.8,58.8 752.9,58.4 754.1,58.0 755.3,57.6 756.5,57.2 757.7,56.8 758.9,56.4 760.1,56.0 761.3,55.6 762.4,55.2 763.6,54.8 764.8,54.4 766.0,54.0"/>
<line x1="606" y1="42" x2="628" y2="42" stroke="#0f62fe" stroke-width="2.2"/>
<text x="634" y="46" font-family="Arial" font-size="12">x_m</text>
</svg>