<svg xmlns="http://www.w3.org/2000/svg" width="820" height="320" viewBox="0 0 820 320">
<rect width="100%" height="100%" fill="#ffffff"/>
<text x="54" y="28" font-family="Arial" font-size="18" font-weight="700">Velocity X</text>
<line x1="54" y1="266" x2="766" y2="266" stroke="#1f2933"/>
<line x1="54" y1="54" x2="54" y2="266" stroke="#1f2933"/>
<text x="54" y="306" font-family="Arial" font-size="12">time (s)</text>
<text x="596" y="306" font-family="Arial" font-size="12">vx (m/s)</text>
<text x="58" y="68" font-family="Arial" font-size="11">537</text>
<text x="58" y="260" font-family="Arial" font-size="11">168</text>
<polyline fill="none" stroke="#0f62fe" stroke-width="2.2" points="54.0,266.0 55.2,265.5 56.4,265.0 57.6,264.5 58.7,264.0 59.9,263.4 61.1,262.9 62.3,262.4 63.5,261.8 64.7,261.3 65.9,260.7 67.1,260.2 68.2,259.6 69.4,259.1 70.6,258.5 71.8,257.9 73.0,257.4 74.2,256.8 75.4,256.2 76.5,255.6 77.7,255.0 78.9,254.4 80.1,253.8 81.3,253.2 82.5,252.6 83.7,252.0 84.9,251.3 86.0,250.7 87.2,250.1 88.4,249.5 89.6,248.8 90.8,248.2 92.0,247.6 93.2,247.0 94.3,246.4 95.5,245.8 96.7,245.1 97.9,244.5 99.1,243.9 100.3,243.3 101.5,242.7 102.7,242.1 103.8,241.4 105.0,240.8 106.2,240.2 107.4,239.6 108.6,239.0 109.8,238.4 111.0,237.7 112.1,237.1 113.3,236.5 114.5,235.9 115.7,235.3 116.9,234.7 118.1,234.1 119.3,233.5 120.5,232.9 121.6,232.2 122.8,231.6 124.0,231.0 125.2,230.4 126.4,229.8 127.6,229.2 128.8,228.6 129.9,228.0 131.1,227.4 132.3,226.8 133.5,226.2 134.7,225.6 135.9,225.0 137.1,224.4 138.3,223.8 139.4,223.2 140.6,222.6 141.8,222.0 143.0,221.4 144.2,220.8 145.4,220.2 146.6,219.6 147.7,219.0 148.9,218.4 150.1,217.8 151.3,217.2 152.5,216.6 153.7,216.0 154.9,215.4 156.1,214.8 157.2,214.2 158.4,213.6 159.6,213.0 160.8,212.4 162.0,211.9 163.2,211.3 164.4,210.7 165.5,210.1 166.7,209.5 167.9,208.9 169.1,208.3 170.3,207.8 171.5,207.2 172.7,206.6 173.9,206.0 175.0,205.4 176.2,204.8 177.4,204.3 178.6,203.7 179.8,203.1 181.0,202.5 182.2,201.9 183.3,201.4 184.5,200.8 185.7,200.3 186.9,199.7 188.1,199.1 189.3,198.5 190.5,197.9 191.7,197.3 192.8,196.8 194.0,196.2 195.2,195.6 196.4,195.0 197.6,194.4 198.8,193.9 200.0,193.4 201.1,192.8 202.3,192.3 203.5,191.7 204.7,191.1 205.9,190.5 207.1,190.0 208.3,189.5 209.5,189.0 210.6,188.4 211.8,187.8 213.0,187.2 214.2,186.7 215.4,186.2 216.6,185.6 217.8,185.0 218.9,184.5 220.1,183.9 221.3,183.4 222.5,182.8 223.7,182.3 224.9,181.8 226.1,181.2 227.3,180.6 228.4,180.1 229.6,179.6 230.8,179.0 232.0,178.5 233.2,177.9 234.4,177.3 235.6,176.8 236.7,176.3 237.9,175.9 239.1,175.3 240.3,174.8 241.5,174.2 242.7,173.6 243.9,173.1 245.1,172.7 246.2,172.2 247.4,171.7 248.6,171.1 249.8,170.6 251.0,170.0 252.2,169.5 253.4,169.0 254.5,168.5 255.7,168.0 256.9,167.4 258.1,166.8 259.3,166.3 260.5,165.8 261.7,165.3 262.9,164.8 264.0,164.3 265.2,163.8 266.4,163.2 267.6,162.7 268.8,162.2 270.0,161.8 271.2,161.3 272.3,160.8 273.5,160.3 274.7,159.7 275.9,159.2 277.1,158.6 278.3,158.2 279.5,157.7 280.7,157.2 281.8,156.6 283.0,156.1 284.2,155.5 285.4,155.0 286.6,154.5 287.8,154.1 289.0,153.7 290.1,153.3 291.3,152.7 292.5,152.2 293.7,151.6 294.9,151.0 296.1,150.6 297.3,150.2 298.5,149.8 299.6,149.3 300.8,148.8 302.0,148.2 303.2,147.6 304.4,147.1 305.6,146.6 306.8,146.3 307.9,145.9 309.1,145.4 310.3,144.9 311.5,144.4 312.7,143.8 313.9,143.3 315.1,142.9 316.3,142.5 317.4,142.1 318.6,141.7 319.8,141.2 321.0,140.6 322.2,140.1 323.4,139.6 324.6,139.1 325.7,138.8 326.9,138.4 328.1,138.0 329.3,137.5 330.5,136.9 331.7,136.3 332.9,135.8 334.1,135.4 335.2,135.0 336.4,134.7 337.6,134.2 338.8,133.7 340.0,133.1 341.2,132.6 342.4,132.1 343.5,131.6 344.7,131.3 345.9,130.9 347.1,130.5 348.3,129.9 349.5,129.4 350.7,128.8 351.9,128.3 353.0,127.9 354.2,127.5 355.4,127.2 356.6,126.8 357.8,126.3 359.0,125.7 360.2,125.1 361.3,124.6 362.5,124.2 363.7,123.9 364.9,123.6 366.1,123.2 367.3,122.7 368.5,122.1 369.7,121.6 370.8,121.1 372.0,120.7 373.2,120.4 374.4,120.1 375.6,119.7 376.8,119.2 378.0,118.6 379.1,118.1 380.3,117.6 381.5,117.2 382.7,116.9 383.9,116.6 385.1,116.2 386.3,115.7 387.5,115.2 388.6,114.7 389.8,114.2 391.0,113.8 392.2,113.5 393.4,113.2 394.6,112.8 395.8,112.3 396.9,111.8 398.1,111.3 399.3,110.8 400.5,110.4 401.7,110.1 402.9,109.8 404.1,109.5 405.3,109.0 406.4,108.4 407.6,107.9 408.8,107.4 410.0,107.1 411.2,106.8 412.4,106.5 413.6,106.1 414.7,105.7 415.9,105.1 417.1,104.6 418.3,104.1 419.5,103.8 420.7,103.5 421.9,103.2 423.1,102.9 424.2,102.4 425.4,101.9 426.6,101.3 427.8,100.9 429.0,100.5 430.2,100.3 431.4,100.0 432.5,99.7 433.7,99.2 434.9,98.7 436.1,98.1 437.3,97.7 438.5,97.3 439.7,97.1 440.9,96.8 442.0,96.5 443.2,96.0 444.4,95.5 445.6,95.0 446.8,94.5 448.0,94.2 449.2,93.9 450.3,93.7 451.5,93.3 452.7,92.8 453.9,92.3 455.1,91.9 456.3,91.4 457.5,91.0 458.7,90.8 459.8,90.6 461.0,90.2 462.2,89.8 463.4,89.3 464.6,88.8 465.8,88.3 467.0,88.0 468.1,87.8 469.3,87.5 470.5,87.2 471.7,86.8 472.9,86.3 474.1,85.8 475.3,85.3 476.5,85.0 477.6,84.8 478.8,84.5 480.0,84.2 481.2,83.8 482.4,83.3 483.6,82.8 484.8,82.4 485.9,82.0 487.1,81.8 488.3,81.6 489.5,81.3 490.7,80.8 491.9,80.4 493.1,79.9 494.3,79.5 495.4,79.1 496.6,78.9 497.8,78.7 499.0,78.4 500.2,78.0 501.4,77.5 502.6,77.1 503.7,76.6 504.9,76.3 506.1,76.1 507.3,75.9 508.5,75.6 509.7,75.1 510.9,74.7 512.1,74.3 513.2,73.8 514.4,73.5 515.6,73.3 516.8,73.1 518.0,72.8 519.2,72.4 520.4,72.0 521.5,71.5 522.7,71.1 523.9,70.8 525.1,70.6 526.3,70.4 527.5,70.1 528.7,69.6 529.9,69.2 531.0,68.8 532.2,68.4 533.4,68.1 534.6,67.9 535.8,67.7 537.0,67.4 538.2,67.0 539.3,66.6 540.5,66.2 541.7,65.8 542.9,65.5 544.1,65.3 545.3,65.1 546.5,64.8 547.7,64.4 548.8,64.0 550.0,63.6 551.2,63.2 552.4,62.9 553.6,62.7 554.8,62.6 556.0,62.3 557.1,61.9 558.3,61.5 559.5,61.1 560.7,60.7 561.9,60.4 563.1,60.3 564.3,60.1 565.5,59.9 566.6,59.5 567.8,59.1 569.0,58.7 570.2,58.3 571.4,58.0 572.6,57.8 573.8,57.7 574.9,57.4 576.1,57.0 577.3,56.6 578.5,56.3 579.7,55.9 580.9,55.6 582.1,55.5 583.3,55.4 584.4,55.1 585.6,54.7 586.8,54.4 588.0,54.0 589.2,54.2 590.4,54.5 591.6,55.0 592.7,55.5 593.9,55.9 595.1,56.2 596.3,56.5 597.5,56.8 598.7,57.1 599.9,57.4 601.1,57.9 602.2,58.4 603.4,58.8 604.6,59.1 605.8,59.4 607.0,59.6 608.2,59.9 609.4,60.3 610.5,60.8 611.7,61.2 612.9,61.6 614.1,61.9 615.3,62.2 616.5,62.4 617.7,62.7 618.9,63.1 620.0,63.5 621.2,64.0 622.4,64.4 623.6,64.6 624.8,64.9 626.0,65.2 627.2,65.4 628.3,65.8 629.5,66.3 630.7,66.8 631.9,67.1 633.1,67.4 634.3,67.7 635.5,67.9 636.7,68.2 637.8,68.5 639.0,69.0 640.2,69.4 641.4,69.8 642.6,70.0 643.8,70.3 645.0,70.6 646.1,70.8 647.3,71.2 648.5,71.6 649.7,72.1 650.9,72.5 652.1,72.7 653.3,73.0 654.5,73.2 655.6,73.5 656.8,73.8 658.0,74.2 659.2,74.7 660.4,75.0 661.6,75.2 662.8,75.5 663.9,75.7 665.1,76.0 666.3,76.3 667.5,76.8 668.7,77.2 669.9,77.6 671.1,77.8 672.3,78.1 673.4,78.3 674.6,78.6 675.8,78.9 677.0,79.4 678.2,79.8 679.4,80.2 680.6,80.4 681.7,80.7 682.9,80.9 684.1,81.1 685.3,81.5 686.5,81.9 687.7,82.3 688.9,82.6 690.1,82.9 691.2,83.1 692.4,83.3 693.6,83.5 694.8,83.9 696.0,84.3 697.2,84.8 698.4,85.1 699.5,85.4 700.7,85.6 701.9,85.8 703.1,86.0 704.3,86.3 705.5,86.7 706.7,87.1 707.9,87.4 709.0,87.6 710.2,87.9 711.4,88.1 712.6,88.3 713.8,88.6 715.0,89.0 716.2,89.5 717.3,89.9 718.5,90.1 719.7,90.3 720.9,90.5 722.1,90.8 723.3,91.2 724.5,91.6 725.7,92.0 726.8,92.2 728.0,92.4 729.2,92.7 730.4,92.9 731.6,93.2 732.8,93.7 734.0,94.1 735.1,94.4 736.3,94.6 737.5,94.8 738.7,95.0 739.9,95.2 741.1,95.5 742.3,95.9 743.5,96.3 744.6,96.7 745.8,97.0 747.0,97.2 748.2,97.4 749.4,97.6 750.6,97.8 751.8,98.2 752.9,98.6 754.1,99.0 755.3,99.2 756.5,99.4 757.7,99.7 758.9,99.9 760.1,100.1 761.3,100.3 762.4,100.8 763.6,101.3 764.8,102.0 766.0,102.6"/>
<line x1="606" y1="42" x2="628" y2="42" stroke="#0f62fe" stroke-width="2.2"/>
<text x="634" y="46" font-family="Arial" font-size="12">vx_mps</text>
</svg>