<svg xmlns="http://www.w3.org/2000/svg" width="820" height="320" viewBox="0 0 820 320">
<rect width="100%" height="100%" fill="#ffffff"/>
<text x="54" y="28" font-family="Arial" font-size="18" font-weight="700">Density Profile</text>
<line x1="54" y1="266" x2="766" y2="266" stroke="#1f2933"/>
<line x1="54" y1="54" x2="54" y2="266" stroke="#1f2933"/>
<text x="54" y="306" font-family="Arial" font-size="12">altitude (m)</text>
<text x="596" y="306" font-family="Arial" font-size="12">density (kg/m^3)</text>
<text x="58" y="68" font-family="Arial" font-size="11">1.23</text>
<text x="58" y="260" font-family="Arial" font-size="11">0.04</text>
<polyline fill="none" stroke="#0f62fe" stroke-width="2.2" points="54.0,54.0 61.1,59.2 68.2,64.3 75.4,69.4 82.5,74.3 89.6,79.1 96.7,83.9 103.8,88.5 111.0,93.1 118.1,97.6 125.2,102.0 132.3,106.3 139.4,110.5 146.6,114.7 153.7,118.7 160.8,122.7 167.9,126.6 175.0,130.4 182.2,134.2 189.3,137.9 196.4,141.5 203.5,145.0 210.6,148.4 217.8,151.8 224.9,155.1 232.0,158.4 239.1,161.6 246.2,164.7 253.4,167.7 260.5,170.7 267.6,173.6 274.7,176.4 281.8,179.2 289.0,181.9 296.1,184.6 303.2,187.2 310.3,189.7 317.4,192.2 324.6,194.6 331.7,197.0 338.8,199.3 345.9,201.6 353.0,203.8 360.2,205.9 367.3,208.1 374.4,210.6 381.5,213.0 388.6,215.3 395.8,217.6 402.9,219.7 410.0,221.8 417.1,223.8 424.2,225.7 431.4,227.5 438.5,229.3 445.6,231.0 452.7,232.6 459.8,234.2 467.0,235.7 474.1,237.1 481.2,238.5 488.3,239.8 495.4,241.1 502.6,242.4 509.7,243.6 516.8,244.7 523.9,245.8 531.0,246.9 538.2,247.9 545.3,248.9 552.4,249.8 559.5,250.7 566.6,251.6 573.8,252.4 580.9,253.2 588.0,254.0 595.1,254.7 602.2,255.4 609.4,256.1 616.5,256.8 623.6,257.4 630.7,258.0 637.8,258.6 645.0,259.2 652.1,259.7 659.2,260.2 666.3,260.7 673.4,261.2 680.6,261.7 687.7,262.1 694.8,262.5 701.9,263.0 709.0,263.3 716.2,263.7 723.3,264.1 730.4,264.4 737.5,264.8 744.6,265.1 751.8,265.4 758.9,265.7 766.0,266.0"/>
<line x1="606" y1="42" x2="628" y2="42" stroke="#0f62fe" stroke-width="2.2"/>
<text x="634" y="46" font-family="Arial" font-size="12">density_kgpm3</text>
</svg>