<svg xmlns="http://www.w3.org/2000/svg" width="820" height="320" viewBox="0 0 820 320">
<rect width="100%" height="100%" fill="#ffffff"/>
<text x="54" y="28" font-family="Arial" font-size="18" font-weight="700">Altitude Position</text>
<line x1="54" y1="266" x2="766" y2="266" stroke="#1f2933"/>
<line x1="54" y1="54" x2="54" y2="266" stroke="#1f2933"/>
<text x="54" y="306" font-family="Arial" font-size="12">time (s)</text>
<text x="596" y="306" font-family="Arial" font-size="12">z (m)</text>
<text x="58" y="68" font-family="Arial" font-size="11">29.4</text>
<text x="58" y="260" font-family="Arial" font-size="11">-0.142</text>
<polyline fill="none" stroke="#0f62fe" stroke-width="2.2" points="54.0,121.4 58.6,119.7 63.1,118.1 67.7,116.5 72.3,114.9 76.8,113.4 81.4,112.0 85.9,110.5 90.5,109.1 95.1,107.8 99.6,106.4 104.2,105.1 108.8,103.8 113.3,102.6 117.9,101.3 122.5,100.1 127.0,99.0 131.6,97.8 136.2,96.7 140.7,95.5 145.3,94.5 149.8,93.4 154.4,92.3 159.0,91.3 163.5,90.3 168.1,89.3 172.7,88.4 177.2,87.4 181.8,86.5 186.4,85.6 190.9,84.7 195.5,83.8 200.1,83.0 204.6,82.1 209.2,81.3 213.7,80.5 218.3,79.7 222.9,79.0 227.4,78.2 232.0,77.5 236.6,76.7 241.1,76.0 245.7,75.3 250.3,74.7 254.8,74.0 259.4,73.3 263.9,72.7 268.5,72.1 273.1,71.4 277.6,70.8 282.2,70.2 286.8,69.6 291.3,69.1 295.9,68.5 300.5,67.9 305.0,67.4 309.6,66.8 314.2,66.3 318.7,65.8 323.3,65.3 327.8,64.8 332.4,64.3 337.0,63.8 341.5,63.3 346.1,62.8 350.7,62.3 355.2,61.9 359.8,61.4 364.4,60.9 368.9,60.5 373.5,60.0 378.1,59.6 382.6,59.1 387.2,58.7 391.7,58.3 396.3,57.8 400.9,57.4 405.4,57.0 410.0,56.6 414.6,56.2 419.1,55.8 423.7,55.4 428.3,55.0 432.8,54.7 437.4,54.4 441.9,54.1 446.5,54.0 451.1,54.0 455.6,54.1 460.2,54.4 464.8,54.8 469.3,55.5 473.9,56.4 478.5,57.5 483.0,58.8 487.6,60.4 492.2,62.2 496.7,64.2 501.3,66.4 505.8,68.8 510.4,71.4 515.0,73.9 519.5,76.5 524.1,78.9 528.7,81.3 533.2,83.5 537.8,85.5 542.4,87.5 546.9,89.4 551.5,91.3 556.1,93.4 560.6,95.8 565.2,98.3 569.7,101.1 574.3,104.1 578.9,107.1 583.4,110.3 588.0,113.3 592.6,116.3 597.1,119.2 601.7,121.9 606.3,124.6 610.8,127.3 615.4,130.1 619.9,133.0 624.5,136.2 629.1,139.6 633.6,143.2 638.2,147.0 642.8,151.0 647.3,154.9 651.9,158.8 656.5,162.6 661.0,166.3 665.6,169.9 670.2,173.4 674.7,176.9 679.3,180.4 683.8,184.1 688.4,188.0 693.0,192.1 697.5,196.6 702.1,201.2 706.7,205.9 711.2,210.7 715.8,215.5 720.4,220.1 724.9,224.6 729.5,229.0 734.1,233.3 738.6,237.6 743.2,241.9 747.7,246.3 752.3,250.9 756.9,255.7 761.4,260.7 766.0,266.0"/>
<line x1="606" y1="42" x2="628" y2="42" stroke="#0f62fe" stroke-width="2.2"/>
<text x="634" y="46" font-family="Arial" font-size="12">altitude_m</text>
</svg>