<svg xmlns="http://www.w3.org/2000/svg" width="820" height="320" viewBox="0 0 820 320">
<rect width="100%" height="100%" fill="#ffffff"/>
<text x="54" y="28" font-family="Arial" font-size="18" font-weight="700">Speed</text>
<line x1="54" y1="266" x2="766" y2="266" stroke="#1f2933"/>
<line x1="54" y1="54" x2="54" y2="266" stroke="#1f2933"/>
<text x="54" y="306" font-family="Arial" font-size="12">time (s)</text>
<text x="596" y="306" font-family="Arial" font-size="12">speed (m/s)</text>
<text x="58" y="68" font-family="Arial" font-size="11">133</text>
<text x="58" y="260" font-family="Arial" font-size="11">85.3</text>
<polyline fill="none" stroke="#0f62fe" stroke-width="2.2" points="54.0,265.7 58.6,263.5 63.1,261.3 67.7,259.1 72.3,256.8 76.8,254.5 81.4,252.2 85.9,249.8 90.5,247.4 95.1,244.9 99.6,242.4 104.2,239.9 108.8,237.3 113.3,234.7 117.9,232.0 122.5,229.4 127.0,226.7 131.6,224.0 136.2,221.4 140.7,218.7 145.3,216.1 149.8,213.4 154.4,210.8 159.0,208.1 163.5,205.5 168.1,202.8 172.7,200.2 177.2,197.6 181.8,194.9 186.4,192.3 190.9,189.7 195.5,187.0 200.1,184.4 204.6,181.8 209.2,179.2 213.7,176.6 218.3,174.0 222.9,171.4 227.4,168.8 232.0,166.2 236.6,163.6 241.1,161.0 245.7,158.4 250.3,155.8 254.8,153.2 259.4,150.6 263.9,148.0 268.5,145.5 273.1,142.9 277.6,140.3 282.2,137.8 286.8,135.2 291.3,132.6 295.9,130.1 300.5,127.5 305.0,125.0 309.6,122.4 314.2,119.9 318.7,117.4 323.3,114.8 327.8,112.3 332.4,109.8 337.0,107.2 341.5,104.7 346.1,102.2 350.7,99.7 355.2,97.2 359.8,94.7 364.4,92.2 368.9,89.7 373.5,87.2 378.1,84.7 382.6,82.2 387.2,79.8 391.7,77.3 396.3,74.9 400.9,72.4 405.4,70.0 410.0,67.7 414.6,65.3 419.1,63.1 423.7,60.9 428.3,58.8 432.8,56.9 437.4,55.4 441.9,54.3 446.5,54.0 451.1,54.0 455.6,54.4 460.2,55.1 464.8,56.2 469.3,58.0 473.9,60.3 478.5,62.9 483.0,65.8 487.6,68.6 492.2,71.1 496.7,71.9 501.3,73.5 505.8,75.2 510.4,76.8 515.0,78.1 519.5,79.2 524.1,79.9 528.7,80.3 533.2,80.7 537.8,81.1 542.4,81.6 546.9,82.3 551.5,83.3 556.1,84.6 560.6,86.4 565.2,88.5 569.7,90.8 574.3,93.2 578.9,95.6 583.4,97.6 588.0,99.1 592.6,100.0 597.1,100.5 601.7,100.8 606.3,101.0 610.8,101.3 615.4,101.8 619.9,102.5 624.5,103.3 629.1,104.4 633.6,105.6 638.2,107.1 642.8,108.8 647.3,110.5 651.9,112.1 656.5,113.6 661.0,114.8 665.6,115.8 670.2,116.4 674.7,116.9 679.3,117.1 683.8,117.1 688.4,117.1 693.0,117.2 697.5,117.4 702.1,117.9 706.7,118.8 711.2,120.1 715.8,121.8 720.4,123.7 724.9,125.6 729.5,127.4 734.1,128.7 738.6,129.5 743.2,129.7 747.7,129.4 752.3,128.6 756.9,127.6 761.4,126.5 766.0,125.5"/>
<line x1="606" y1="42" x2="628" y2="42" stroke="#0f62fe" stroke-width="2.2"/>
<text x="634" y="46" font-family="Arial" font-size="12">speed_mps</text>
<polyline fill="none" stroke="#24a148" stroke-width="2.2" points="54.0,266.0 58.6,263.8 63.1,261.6 67.7,259.4 72.3,257.1 76.8,254.8 81.4,252.5 85.9,250.1 90.5,247.7 95.1,245.2 99.6,242.7 104.2,240.2 108.8,237.6 113.3,235.0 117.9,232.3 122.5,229.7 127.0,227.0 131.6,224.3 136.2,221.7 140.7,219.0 145.3,216.4 149.8,213.7 154.4,211.1 159.0,208.4 163.5,205.8 168.1,203.1 172.7,200.5 177.2,197.9 181.8,195.2 186.4,192.6 190.9,190.0 195.5,187.4 200.1,184.7 204.6,182.1 209.2,179.5 213.7,176.9 218.3,174.3 222.9,171.7 227.4,169.1 232.0,166.5 236.6,163.9 241.1,161.3 245.7,158.7 250.3,156.1 254.8,153.5 259.4,150.9 263.9,148.3 268.5,145.8 273.1,143.2 277.6,140.6 282.2,138.1 286.8,135.5 291.3,132.9 295.9,130.4 300.5,127.8 305.0,125.3 309.6,122.7 314.2,120.2 318.7,117.7 323.3,115.1 327.8,112.6 332.4,110.1 337.0,107.6 341.5,105.0 346.1,102.5 350.7,100.0 355.2,97.5 359.8,95.0 364.4,92.5 368.9,90.0 373.5,87.5 378.1,85.0 382.6,82.6 387.2,80.1 391.7,77.6 396.3,75.2 400.9,72.8 405.4,70.4 410.0,68.0 414.6,65.7 419.1,63.4 423.7,61.2 428.3,59.1 432.8,57.2 437.4,55.7 441.9,54.7 446.5,54.3 451.1,54.4 455.6,54.7 460.2,55.4 464.8,56.6 469.3,58.3 473.9,60.7 478.5,63.3 483.0,66.1 487.6,69.0 492.2,71.5 496.7,72.2 501.3,73.9 505.8,75.6 510.4,77.2 515.0,78.5 519.5,79.5 524.1,80.2 528.7,80.7 533.2,81.0 537.8,81.4 542.4,81.9 546.9,82.7 551.5,83.7 556.1,85.0 560.6,86.7 565.2,88.8 569.7,91.2 574.3,93.6 578.9,95.9 583.4,98.0 588.0,99.4 592.6,100.4 597.1,100.9 601.7,101.2 606.3,101.4 610.8,101.7 615.4,102.2 619.9,102.8 624.5,103.7 629.1,104.8 633.6,106.0 638.2,107.5 642.8,109.2 647.3,110.9 651.9,112.5 656.5,114.0 661.0,115.2 665.6,116.1 670.2,116.8 674.7,117.3 679.3,117.5 683.8,117.5 688.4,117.5 693.0,117.6 697.5,117.8 702.1,118.3 706.7,119.2 711.2,120.5 715.8,122.2 720.4,124.1 724.9,126.0 729.5,127.8 734.1,129.0 738.6,129.8 743.2,130.1 747.7,129.8 752.3,129.0 756.9,128.0 761.4,126.9 766.0,125.9"/>
<line x1="606" y1="60" x2="628" y2="60" stroke="#24a148" stroke-width="2.2"/>
<text x="634" y="64" font-family="Arial" font-size="12">airspeed_mps</text>
</svg>