<svg xmlns="http://www.w3.org/2000/svg" width="820" height="320" viewBox="0 0 820 320">
<rect width="100%" height="100%" fill="#ffffff"/>
<text x="54" y="28" font-family="Arial" font-size="18" font-weight="700">Thrust</text>
<line x1="54" y1="266" x2="766" y2="266" stroke="#1f2933"/>
<line x1="54" y1="54" x2="54" y2="266" stroke="#1f2933"/>
<text x="54" y="306" font-family="Arial" font-size="12">time (s)</text>
<text x="596" y="306" font-family="Arial" font-size="12">thrust (N)</text>
<text x="58" y="68" font-family="Arial" font-size="11">404</text>
<text x="58" y="260" font-family="Arial" font-size="11">327</text>
<polyline fill="none" stroke="#0f62fe" stroke-width="2.2" points="54.0,266.0 58.6,250.1 63.1,234.2 67.7,218.3 72.3,202.4 76.8,186.5 81.4,170.6 85.9,154.7 90.5,138.8 95.1,122.9 99.6,107.0 104.2,91.0 108.8,75.1 113.3,59.2 117.9,54.0 122.5,54.1 127.0,54.2 131.6,54.3 136.2,54.4 140.7,54.5 145.3,54.6 149.8,54.7 154.4,54.7 159.0,54.8 163.5,54.9 168.1,55.0 172.7,55.1 177.2,55.2 181.8,55.3 186.4,55.4 190.9,55.5 195.5,55.6 200.1,55.7 204.6,55.8 209.2,55.9 213.7,56.0 218.3,56.0 222.9,56.1 227.4,56.2 232.0,56.3 236.6,56.4 241.1,56.5 245.7,56.6 250.3,56.7 254.8,56.8 259.4,56.9 263.9,57.0 268.5,57.1 273.1,57.2 277.6,57.3 282.2,57.3 286.8,57.4 291.3,57.5 295.9,57.6 300.5,57.7 305.0,57.8 309.6,57.9 314.2,58.0 318.7,58.1 323.3,58.2 327.8,58.3 332.4,58.4 337.0,58.5 341.5,58.6 346.1,58.7 350.7,58.7 355.2,58.8 359.8,58.9 364.4,59.0 368.9,59.1 373.5,59.2 378.1,59.3 382.6,59.4 387.2,59.5 391.7,59.6 396.3,59.7 400.9,59.8 405.4,59.9 410.0,60.0 414.6,60.0 419.1,60.1 423.7,60.2 428.3,60.3 432.8,60.4 437.4,60.5 441.9,60.6 446.5,60.7 451.1,60.8 455.6,60.9 460.2,61.0 464.8,61.1 469.3,61.2 473.9,61.3 478.5,61.3 483.0,61.4 487.6,61.5 492.2,61.6 496.7,61.7 501.3,61.8 505.8,61.9 510.4,62.0 515.0,62.1 519.5,62.2 524.1,62.3 528.7,62.4 533.2,62.5 537.8,62.6 542.4,62.6 546.9,62.7 551.5,62.8 556.1,62.9 560.6,63.0 565.2,63.1 569.7,63.2 574.3,63.3 578.9,63.4 583.4,63.5 588.0,63.6 592.6,63.7 597.1,63.8 601.7,63.9 606.3,64.0 610.8,64.0 615.4,64.1 619.9,64.2 624.5,64.3 629.1,64.4 633.6,64.5 638.2,64.6 642.8,64.7 647.3,64.8 651.9,64.9 656.5,65.0 661.0,65.1 665.6,65.2 670.2,65.3 674.7,65.3 679.3,65.4 683.8,65.5 688.4,65.6 693.0,65.7 697.5,65.8 702.1,65.9 706.7,66.0 711.2,66.1 715.8,66.2 720.4,66.3 724.9,66.4 729.5,66.5 734.1,66.6 738.6,66.6 743.2,66.7 747.7,66.8 752.3,66.9 756.9,67.0 761.4,67.1 766.0,67.2"/>
<line x1="606" y1="42" x2="628" y2="42" stroke="#0f62fe" stroke-width="2.2"/>
<text x="634" y="46" font-family="Arial" font-size="12">thrust_n</text>
</svg>