<svg xmlns="http://www.w3.org/2000/svg" width="820" height="320" viewBox="0 0 820 320">
<rect width="100%" height="100%" fill="#ffffff"/>
<text x="54" y="28" font-family="Arial" font-size="18" font-weight="700">Downrange/Crossrange</text>
<line x1="54" y1="266" x2="766" y2="266" stroke="#1f2933"/>
<line x1="54" y1="54" x2="54" y2="266" stroke="#1f2933"/>
<text x="54" y="306" font-family="Arial" font-size="12">downrange (m)</text>
<text x="596" y="306" font-family="Arial" font-size="12">crossrange (m)</text>
<text x="58" y="68" font-family="Arial" font-size="11">1.16e+03</text>
<text x="58" y="260" font-family="Arial" font-size="11">-0.000634</text>
<polyline fill="none" stroke="#0f62fe" stroke-width="2.2" points="54.0,266.0 55.1,266.0 56.3,266.0 57.4,266.0 58.6,266.0 59.7,266.0 60.9,266.0 62.1,266.0 63.2,266.0 64.4,266.0 65.6,266.0 66.8,266.0 68.1,266.0 69.3,266.0 70.5,266.0 71.7,266.0 73.0,266.0 74.2,266.0 75.5,266.0 76.8,266.0 78.0,266.0 79.3,266.0 80.6,266.0 81.9,266.0 83.2,266.0 84.6,266.0 85.9,266.0 87.2,266.0 88.6,266.0 89.9,266.0 91.3,266.0 92.6,266.0 94.0,266.0 95.4,266.0 96.8,266.0 98.2,266.0 99.6,266.0 101.0,266.0 102.4,266.0 103.9,266.0 105.3,266.0 106.8,266.0 108.2,266.0 109.7,266.0 111.1,266.0 112.6,266.0 114.1,266.0 115.6,266.0 117.1,266.0 118.6,266.0 120.1,266.0 121.6,266.0 123.2,266.0 124.7,266.0 126.3,266.0 127.8,266.0 129.4,266.0 131.0,266.0 132.5,266.0 134.1,266.0 135.7,266.0 137.3,266.0 138.9,266.0 140.5,266.0 142.2,266.0 143.8,266.0 145.4,266.0 147.1,266.0 148.7,266.0 150.4,266.0 152.1,266.0 153.8,266.0 155.4,266.0 157.1,266.0 158.8,266.0 160.5,266.0 162.3,266.0 164.0,266.0 165.7,266.0 167.5,266.0 169.2,266.0 170.9,266.0 172.7,266.0 174.5,266.0 176.2,266.0 178.0,266.0 179.8,266.0 181.6,266.0 183.4,266.0 185.2,266.0 187.1,266.0 188.9,266.0 190.7,266.0 192.6,266.0 194.4,266.0 196.3,266.0 198.1,266.0 200.0,266.0 201.9,265.9 203.7,265.9 205.6,265.9 207.5,265.9 209.4,265.9 211.3,265.9 213.3,265.9 215.2,265.9 217.1,265.9 219.1,265.9 221.0,265.9 223.0,265.9 224.9,265.9 226.9,265.9 228.9,265.9 230.8,265.9 232.8,265.9 234.8,265.9 236.8,265.9 238.8,265.9 240.9,265.9 242.9,265.9 244.9,265.9 246.9,265.9 249.0,265.9 251.0,265.9 253.1,265.9 255.2,265.9 257.2,265.9 259.3,265.8 261.4,265.8 263.5,265.8 265.6,265.8 267.7,265.8 269.8,265.8 271.9,265.8 274.0,265.8 276.1,265.8 278.3,265.8 280.4,265.8 282.6,265.8 284.7,265.8 286.9,265.8 289.0,265.7 291.2,265.7 293.4,265.7 295.6,265.7 297.8,265.7 300.0,265.7 302.2,265.7 304.4,265.7 306.6,265.7 308.8,265.6 311.1,265.6 313.3,265.6 315.5,265.6 317.8,265.6 320.0,265.6 322.3,265.5 324.6,265.5 326.8,265.5 329.1,265.5 331.4,265.5 333.7,265.4 336.0,265.4 338.3,265.4 340.6,265.4 342.9,265.3 345.2,265.3 347.5,265.3 349.8,265.3 352.2,265.2 354.5,265.2 356.9,265.1 359.2,265.1 361.6,265.1 363.9,265.0 366.3,265.0 368.6,264.9 371.0,264.9 373.4,264.8 375.8,264.8 378.2,264.7 380.6,264.7 383.0,264.6 385.4,264.5 387.8,264.5 390.2,264.4 392.6,264.3 395.0,264.3 397.4,264.2 399.8,264.1 402.2,264.0 404.7,263.9 407.1,263.8 409.5,263.7 411.9,263.6 414.4,263.5 416.8,263.4 419.2,263.3 421.6,263.2 424.1,263.0 426.5,262.9 428.9,262.8 431.4,262.7 433.8,262.5 436.2,262.4 438.7,262.2 441.1,262.1 443.6,261.9 446.0,261.7 448.4,261.6 450.9,261.4 453.3,261.2 455.8,261.1 458.2,260.9 460.6,260.7 463.1,260.5 465.5,260.3 468.0,260.1 470.4,259.9 472.8,259.7 475.3,259.5 477.7,259.3 480.2,259.0 482.6,258.8 485.0,258.6 487.5,258.3 489.9,258.1 492.3,257.8 494.8,257.6 497.2,257.3 499.6,257.1 502.0,256.8 504.5,256.5 506.9,256.2 509.3,256.0 511.7,255.7 514.2,255.4 516.6,255.1 519.0,254.8 521.4,254.5 523.8,254.1 526.2,253.8 528.6,253.5 531.0,253.2 533.4,252.8 535.8,252.5 538.2,252.1 540.6,251.8 542.9,251.4 545.3,251.1 547.7,250.7 550.1,250.3 552.4,249.9 554.8,249.6 557.2,249.2 559.5,248.8 561.8,248.4 564.2,248.0 566.5,247.5 568.9,247.1 571.2,246.7 573.5,246.3 575.8,245.8 578.1,245.4 580.4,244.9 582.7,244.5 585.0,244.0 587.3,243.6 589.6,243.1 591.9,242.6 594.2,242.1 596.4,241.7 598.7,241.2 600.9,240.7 603.2,240.2 605.4,239.6 607.7,239.1 609.9,238.6 612.1,238.1 614.3,237.5 616.5,237.0 618.7,236.4 620.9,235.9 623.0,235.3 625.2,234.8 627.3,234.2 629.5,233.6 631.6,233.0 633.7,232.5 635.9,231.9 638.0,231.3 640.0,230.6 642.1,230.0 644.2,229.4 646.2,228.8 648.3,228.2 650.3,227.5 652.3,226.9 654.3,226.2 656.3,225.6 658.3,224.9 660.3,224.2 662.2,223.6 664.2,222.9 666.1,222.2 668.0,221.5 669.9,220.8 671.8,220.1 673.7,219.4 675.5,218.7 677.4,218.0 679.2,217.2 681.0,216.5 682.8,215.8 684.5,215.0 686.3,214.3 688.0,213.5 689.7,212.8 691.4,212.0 693.1,211.3 694.8,210.5 696.4,209.7 698.1,208.9 699.7,208.1 701.3,207.4 702.8,206.6 704.4,205.8 705.9,205.0 707.4,204.2 708.9,203.4 710.4,202.6 711.8,201.7 713.3,200.9 714.7,200.1 716.1,199.3 717.4,198.4 718.8,197.6 720.1,196.8 721.4,196.0 722.7,195.1 723.9,194.3 725.2,193.4 726.4,192.6 727.5,191.7 728.7,190.9 729.8,190.0 731.0,189.2 732.1,188.3 733.1,187.5 734.2,186.6 735.2,185.8 736.2,184.9 737.2,184.1 738.1,183.2 739.1,182.3 740.0,181.5 740.9,180.6 741.8,179.8 742.6,178.9 743.4,178.1 744.2,177.2 745.0,176.3 745.8,175.5 746.6,174.6 747.3,173.8 748.0,172.9 748.7,172.1 749.4,171.2 750.1,170.4 750.7,169.5 751.4,168.7 752.0,167.8 752.6,167.0 753.2,166.1 753.8,165.3 754.3,164.5 754.9,163.6 755.4,162.8 755.9,162.0 756.4,161.2 756.9,160.3 757.3,159.5 757.8,158.7 758.2,157.9 758.7,157.1 759.1,156.3 759.5,155.5 759.8,154.7 760.2,153.9 760.6,153.1 760.9,152.3 761.2,151.5 761.5,150.8 761.8,150.0 762.1,149.2 762.4,148.5 762.7,147.7 762.9,146.9 763.2,146.2 763.4,145.5 763.6,144.7 763.8,144.0 764.0,143.3 764.2,142.5 764.4,141.8 764.5,141.1 764.7,140.4 764.8,139.7 765.0,139.0 765.1,138.3 765.2,137.6 765.3,137.0 765.4,136.3 765.5,135.6 765.6,135.0 765.7,134.3 765.8,133.7 765.8,133.0 765.9,132.4 765.9,131.7 766.0,131.1 766.0,130.5 766.0,129.9 766.0,129.2 766.0,128.6 766.0,128.0 766.0,127.4 765.9,126.8 765.9,126.2 765.8,125.6 765.8,125.0 765.7,124.4 765.6,123.8 765.5,123.3 765.4,122.7 765.3,122.1 765.2,121.5 765.1,121.0 765.1,120.4 765.0,119.9 764.9,119.3 764.8,118.7 764.7,118.2 764.6,117.7 764.5,117.1 764.4,116.6 764.3,116.0 764.3,115.5 764.2,115.0 764.1,114.4 764.0,113.9 763.9,113.4 763.8,112.9 763.8,112.4 763.7,111.9 763.6,111.3 763.5,110.8 763.4,110.3 763.4,109.8 763.3,109.3 763.2,108.9 763.1,108.4 763.1,107.9 763.0,107.4 762.9,106.9 762.9,106.4 762.8,105.9 762.8,105.5 762.7,105.0 762.7,104.5 762.6,104.0 762.6,103.6 762.5,103.1 762.5,102.6 762.4,102.1 762.3,101.7 762.3,101.2 762.2,100.7 762.1,100.3 762.0,99.8 761.9,99.4 761.9,98.9 761.8,98.5 761.7,98.0 761.6,97.5 761.5,97.1 761.4,96.6 761.3,96.2 761.2,95.7 761.2,95.3 761.1,94.8 761.0,94.4 761.0,93.9 760.9,93.5 760.9,93.1 760.8,92.6 760.8,92.2 760.7,91.8 760.7,91.3 760.6,90.9 760.6,90.5 760.6,90.0 760.6,89.6 760.5,89.2 760.5,88.8 760.5,88.3 760.5,87.9 760.4,87.5 760.4,87.1 760.4,86.6 760.4,86.2 760.4,85.8 760.3,85.4 760.3,84.9 760.3,84.5 760.3,84.1 760.3,83.7 760.3,83.2 760.3,82.8 760.3,82.4 760.3,82.0 760.3,81.6 760.3,81.2 760.3,80.8 760.4,80.3 760.4,79.9 760.4,79.5 760.4,79.1 760.5,78.7 760.5,78.3 760.5,77.9 760.6,77.5 760.6,77.1 760.7,76.7 760.7,76.3 760.7,75.9 760.8,75.6 760.8,75.2 760.9,74.8 760.9,74.4 761.0,74.0 761.1,73.6 761.1,73.3 761.2,72.9 761.2,72.5 761.3,72.1 761.3,71.8 761.4,71.4 761.5,71.0 761.5,70.7 761.6,70.3 761.7,69.9 761.7,69.6 761.8,69.2 761.9,68.8 761.9,68.5 762.0,68.1 762.0,67.8 762.1,67.4 762.2,67.1 762.2,66.7 762.3,66.4 762.4,66.0 762.4,65.7 762.5,65.3 762.6,65.0 762.6,64.7 762.7,64.3 762.8,64.0 762.8,63.7 762.9,63.3 763.0,63.0 763.0,62.7 763.1,62.3 763.1,62.0 763.2,61.7 763.3,61.4 763.3,61.0 763.4,60.7 763.4,60.4 763.5,60.1 763.6,59.8 763.6,59.5 763.7,59.1 763.7,58.8 763.8,58.5 763.8,58.2 763.9,57.9 763.9,57.6 764.0,57.3 764.1,57.0 764.1,56.7 764.2,56.4 764.2,56.1 764.3,55.8 764.3,55.5 764.4,55.2 764.4,54.9 764.5,54.6 764.5,54.3 764.6,54.0"/>
<line x1="606" y1="42" x2="628" y2="42" stroke="#0f62fe" stroke-width="2.2"/>
<text x="634" y="46" font-family="Arial" font-size="12">y_m</text>
</svg>