<svg xmlns="http://www.w3.org/2000/svg" width="820" height="320" viewBox="0 0 820 320">
<rect width="100%" height="100%" fill="#ffffff"/>
<text x="54" y="28" font-family="Arial" font-size="18" font-weight="700">Crossrange Position</text>
<line x1="54" y1="266" x2="766" y2="266" stroke="#1f2933"/>
<line x1="54" y1="54" x2="54" y2="266" stroke="#1f2933"/>
<text x="54" y="306" font-family="Arial" font-size="12">time (s)</text>
<text x="596" y="306" font-family="Arial" font-size="12">y (m)</text>
<text x="58" y="68" font-family="Arial" font-size="11">1.16e+03</text>
<text x="58" y="260" font-family="Arial" font-size="11">-0.000634</text>
<polyline fill="none" stroke="#0f62fe" stroke-width="2.2" points="54.0,266.0 55.2,266.0 56.4,266.0 57.6,266.0 58.7,266.0 59.9,266.0 61.1,266.0 62.3,266.0 63.5,266.0 64.7,266.0 65.9,266.0 67.1,266.0 68.2,266.0 69.4,266.0 70.6,266.0 71.8,266.0 73.0,266.0 74.2,266.0 75.4,266.0 76.5,266.0 77.7,266.0 78.9,266.0 80.1,266.0 81.3,266.0 82.5,266.0 83.7,266.0 84.9,266.0 86.0,266.0 87.2,266.0 88.4,266.0 89.6,266.0 90.8,266.0 92.0,266.0 93.2,266.0 94.3,266.0 95.5,266.0 96.7,266.0 97.9,266.0 99.1,266.0 100.3,266.0 101.5,266.0 102.7,266.0 103.8,266.0 105.0,266.0 106.2,266.0 107.4,266.0 108.6,266.0 109.8,266.0 111.0,266.0 112.1,266.0 113.3,266.0 114.5,266.0 115.7,266.0 116.9,266.0 118.1,266.0 119.3,266.0 120.5,266.0 121.6,266.0 122.8,266.0 124.0,266.0 125.2,266.0 126.4,266.0 127.6,266.0 128.8,266.0 129.9,266.0 131.1,266.0 132.3,266.0 133.5,266.0 134.7,266.0 135.9,266.0 137.1,266.0 138.3,266.0 139.4,266.0 140.6,266.0 141.8,266.0 143.0,266.0 144.2,266.0 145.4,266.0 146.6,266.0 147.7,266.0 148.9,266.0 150.1,266.0 151.3,266.0 152.5,266.0 153.7,266.0 154.9,266.0 156.1,266.0 157.2,266.0 158.4,266.0 159.6,266.0 160.8,266.0 162.0,266.0 163.2,266.0 164.4,266.0 165.5,266.0 166.7,266.0 167.9,266.0 169.1,266.0 170.3,265.9 171.5,265.9 172.7,265.9 173.9,265.9 175.0,265.9 176.2,265.9 177.4,265.9 178.6,265.9 179.8,265.9 181.0,265.9 182.2,265.9 183.3,265.9 184.5,265.9 185.7,265.9 186.9,265.9 188.1,265.9 189.3,265.9 190.5,265.9 191.7,265.9 192.8,265.9 194.0,265.9 195.2,265.9 196.4,265.9 197.6,265.9 198.8,265.9 200.0,265.9 201.1,265.9 202.3,265.9 203.5,265.9 204.7,265.8 205.9,265.8 207.1,265.8 208.3,265.8 209.5,265.8 210.6,265.8 211.8,265.8 213.0,265.8 214.2,265.8 215.4,265.8 216.6,265.8 217.8,265.8 218.9,265.8 220.1,265.8 221.3,265.7 222.5,265.7 223.7,265.7 224.9,265.7 226.1,265.7 227.3,265.7 228.4,265.7 229.6,265.7 230.8,265.7 232.0,265.6 233.2,265.6 234.4,265.6 235.6,265.6 236.7,265.6 237.9,265.6 239.1,265.5 240.3,265.5 241.5,265.5 242.7,265.5 243.9,265.5 245.1,265.4 246.2,265.4 247.4,265.4 248.6,265.4 249.8,265.3 251.0,265.3 252.2,265.3 253.4,265.3 254.5,265.2 255.7,265.2 256.9,265.1 258.1,265.1 259.3,265.1 260.5,265.0 261.7,265.0 262.9,264.9 264.0,264.9 265.2,264.8 266.4,264.8 267.6,264.7 268.8,264.7 270.0,264.6 271.2,264.5 272.3,264.5 273.5,264.4 274.7,264.3 275.9,264.3 277.1,264.2 278.3,264.1 279.5,264.0 280.7,263.9 281.8,263.8 283.0,263.7 284.2,263.6 285.4,263.5 286.6,263.4 287.8,263.3 289.0,263.2 290.1,263.0 291.3,262.9 292.5,262.8 293.7,262.7 294.9,262.5 296.1,262.4 297.3,262.2 298.5,262.1 299.6,261.9 300.8,261.7 302.0,261.6 303.2,261.4 304.4,261.2 305.6,261.1 306.8,260.9 307.9,260.7 309.1,260.5 310.3,260.3 311.5,260.1 312.7,259.9 313.9,259.7 315.1,259.5 316.3,259.3 317.4,259.0 318.6,258.8 319.8,258.6 321.0,258.3 322.2,258.1 323.4,257.8 324.6,257.6 325.7,257.3 326.9,257.1 328.1,256.8 329.3,256.5 330.5,256.2 331.7,256.0 332.9,255.7 334.1,255.4 335.2,255.1 336.4,254.8 337.6,254.5 338.8,254.1 340.0,253.8 341.2,253.5 342.4,253.2 343.5,252.8 344.7,252.5 345.9,252.1 347.1,251.8 348.3,251.4 349.5,251.1 350.7,250.7 351.9,250.3 353.0,249.9 354.2,249.6 355.4,249.2 356.6,248.8 357.8,248.4 359.0,248.0 360.2,247.5 361.3,247.1 362.5,246.7 363.7,246.3 364.9,245.8 366.1,245.4 367.3,244.9 368.5,244.5 369.7,244.0 370.8,243.6 372.0,243.1 373.2,242.6 374.4,242.1 375.6,241.7 376.8,241.2 378.0,240.7 379.1,240.2 380.3,239.6 381.5,239.1 382.7,238.6 383.9,238.1 385.1,237.5 386.3,237.0 387.5,236.4 388.6,235.9 389.8,235.3 391.0,234.8 392.2,234.2 393.4,233.6 394.6,233.0 395.8,232.5 396.9,231.9 398.1,231.3 399.3,230.6 400.5,230.0 401.7,229.4 402.9,228.8 404.1,228.2 405.3,227.5 406.4,226.9 407.6,226.2 408.8,225.6 410.0,224.9 411.2,224.2 412.4,223.6 413.6,222.9 414.7,222.2 415.9,221.5 417.1,220.8 418.3,220.1 419.5,219.4 420.7,218.7 421.9,218.0 423.1,217.2 424.2,216.5 425.4,215.8 426.6,215.0 427.8,214.3 429.0,213.5 430.2,212.8 431.4,212.0 432.5,211.3 433.7,210.5 434.9,209.7 436.1,208.9 437.3,208.1 438.5,207.4 439.7,206.6 440.9,205.8 442.0,205.0 443.2,204.2 444.4,203.4 445.6,202.6 446.8,201.7 448.0,200.9 449.2,200.1 450.3,199.3 451.5,198.4 452.7,197.6 453.9,196.8 455.1,196.0 456.3,195.1 457.5,194.3 458.7,193.4 459.8,192.6 461.0,191.7 462.2,190.9 463.4,190.0 464.6,189.2 465.8,188.3 467.0,187.5 468.1,186.6 469.3,185.8 470.5,184.9 471.7,184.1 472.9,183.2 474.1,182.3 475.3,181.5 476.5,180.6 477.6,179.8 478.8,178.9 480.0,178.1 481.2,177.2 482.4,176.3 483.6,175.5 484.8,174.6 485.9,173.8 487.1,172.9 488.3,172.1 489.5,171.2 490.7,170.4 491.9,169.5 493.1,168.7 494.3,167.8 495.4,167.0 496.6,166.1 497.8,165.3 499.0,164.5 500.2,163.6 501.4,162.8 502.6,162.0 503.7,161.2 504.9,160.3 506.1,159.5 507.3,158.7 508.5,157.9 509.7,157.1 510.9,156.3 512.1,155.5 513.2,154.7 514.4,153.9 515.6,153.1 516.8,152.3 518.0,151.5 519.2,150.8 520.4,150.0 521.5,149.2 522.7,148.5 523.9,147.7 525.1,146.9 526.3,146.2 527.5,145.5 528.7,144.7 529.9,144.0 531.0,143.3 532.2,142.5 533.4,141.8 534.6,141.1 535.8,140.4 537.0,139.7 538.2,139.0 539.3,138.3 540.5,137.6 541.7,137.0 542.9,136.3 544.1,135.6 545.3,135.0 546.5,134.3 547.7,133.7 548.8,133.0 550.0,132.4 551.2,131.7 552.4,131.1 553.6,130.5 554.8,129.9 556.0,129.2 557.1,128.6 558.3,128.0 559.5,127.4 560.7,126.8 561.9,126.2 563.1,125.6 564.3,125.0 565.5,124.4 566.6,123.8 567.8,123.3 569.0,122.7 570.2,122.1 571.4,121.5 572.6,121.0 573.8,120.4 574.9,119.9 576.1,119.3 577.3,118.7 578.5,118.2 579.7,117.7 580.9,117.1 582.1,116.6 583.3,116.0 584.4,115.5 585.6,115.0 586.8,114.4 588.0,113.9 589.2,113.4 590.4,112.9 591.6,112.4 592.7,111.9 593.9,111.3 595.1,110.8 596.3,110.3 597.5,109.8 598.7,109.3 599.9,108.9 601.1,108.4 602.2,107.9 603.4,107.4 604.6,106.9 605.8,106.4 607.0,105.9 608.2,105.5 609.4,105.0 610.5,104.5 611.7,104.0 612.9,103.6 614.1,103.1 615.3,102.6 616.5,102.1 617.7,101.7 618.9,101.2 620.0,100.7 621.2,100.3 622.4,99.8 623.6,99.4 624.8,98.9 626.0,98.5 627.2,98.0 628.3,97.5 629.5,97.1 630.7,96.6 631.9,96.2 633.1,95.7 634.3,95.3 635.5,94.8 636.7,94.4 637.8,93.9 639.0,93.5 640.2,93.1 641.4,92.6 642.6,92.2 643.8,91.8 645.0,91.3 646.1,90.9 647.3,90.5 648.5,90.0 649.7,89.6 650.9,89.2 652.1,88.8 653.3,88.3 654.5,87.9 655.6,87.5 656.8,87.1 658.0,86.6 659.2,86.2 660.4,85.8 661.6,85.4 662.8,84.9 663.9,84.5 665.1,84.1 666.3,83.7 667.5,83.2 668.7,82.8 669.9,82.4 671.1,82.0 672.3,81.6 673.4,81.2 674.6,80.8 675.8,80.3 677.0,79.9 678.2,79.5 679.4,79.1 680.6,78.7 681.7,78.3 682.9,77.9 684.1,77.5 685.3,77.1 686.5,76.7 687.7,76.3 688.9,75.9 690.1,75.6 691.2,75.2 692.4,74.8 693.6,74.4 694.8,74.0 696.0,73.6 697.2,73.3 698.4,72.9 699.5,72.5 700.7,72.1 701.9,71.8 703.1,71.4 704.3,71.0 705.5,70.7 706.7,70.3 707.9,69.9 709.0,69.6 710.2,69.2 711.4,68.8 712.6,68.5 713.8,68.1 715.0,67.8 716.2,67.4 717.3,67.1 718.5,66.7 719.7,66.4 720.9,66.0 722.1,65.7 723.3,65.3 724.5,65.0 725.7,64.7 726.8,64.3 728.0,64.0 729.2,63.7 730.4,63.3 731.6,63.0 732.8,62.7 734.0,62.3 735.1,62.0 736.3,61.7 737.5,61.4 738.7,61.0 739.9,60.7 741.1,60.4 742.3,60.1 743.5,59.8 744.6,59.5 745.8,59.1 747.0,58.8 748.2,58.5 749.4,58.2 750.6,57.9 751.8,57.6 752.9,57.3 754.1,57.0 755.3,56.7 756.5,56.4 757.7,56.1 758.9,55.8 760.1,55.5 761.3,55.2 762.4,54.9 763.6,54.6 764.8,54.3 766.0,54.0"/>
<line x1="606" y1="42" x2="628" y2="42" stroke="#0f62fe" stroke-width="2.2"/>
<text x="634" y="46" font-family="Arial" font-size="12">y_m</text>
</svg>