<svg xmlns="http://www.w3.org/2000/svg" width="820" height="320" viewBox="0 0 820 320">
<rect width="100%" height="100%" fill="#ffffff"/>
<text x="54" y="28" font-family="Arial" font-size="18" font-weight="700">Speed</text>
<line x1="54" y1="266" x2="766" y2="266" stroke="#1f2933"/>
<line x1="54" y1="54" x2="54" y2="266" stroke="#1f2933"/>
<text x="54" y="306" font-family="Arial" font-size="12">time (s)</text>
<text x="596" y="306" font-family="Arial" font-size="12">speed (m/s)</text>
<text x="58" y="68" font-family="Arial" font-size="11">197</text>
<text x="58" y="260" font-family="Arial" font-size="11">71.1</text>
<polyline fill="none" stroke="#0f62fe" stroke-width="2.2" points="54.0,242.0 55.2,241.2 56.4,240.3 57.6,239.5 58.7,238.6 59.9,237.7 61.1,236.8 62.3,235.9 63.5,234.9 64.7,234.0 65.9,233.0 67.1,232.0 68.2,231.0 69.4,230.0 70.6,229.0 71.8,228.0 73.0,226.9 74.2,225.9 75.4,224.9 76.5,223.9 77.7,222.8 78.9,221.8 80.1,220.8 81.3,219.8 82.5,218.8 83.7,217.8 84.9,216.7 86.0,215.7 87.2,214.7 88.4,213.7 89.6,212.7 90.8,211.7 92.0,210.7 93.2,209.7 94.3,208.7 95.5,207.7 96.7,206.6 97.9,205.6 99.1,204.6 100.3,203.6 101.5,202.6 102.7,201.7 103.8,200.7 105.0,199.7 106.2,198.7 107.4,197.7 108.6,196.7 109.8,195.7 111.0,194.7 112.1,193.7 113.3,192.7 114.5,191.8 115.7,190.8 116.9,189.8 118.1,188.8 119.3,187.8 120.5,186.9 121.6,185.9 122.8,184.9 124.0,183.9 125.2,183.0 126.4,182.0 127.6,181.0 128.8,180.0 129.9,179.1 131.1,178.1 132.3,177.2 133.5,176.2 134.7,175.2 135.9,174.3 137.1,173.3 138.3,172.4 139.4,171.4 140.6,170.5 141.8,169.5 143.0,168.6 144.2,167.6 145.4,166.7 146.6,165.7 147.7,164.8 148.9,163.8 150.1,162.9 151.3,161.9 152.5,161.0 153.7,160.1 154.9,159.1 156.1,158.2 157.2,157.3 158.4,156.3 159.6,155.4 160.8,154.5 162.0,153.6 163.2,152.6 164.4,151.7 165.5,150.8 166.7,149.9 167.9,149.0 169.1,148.1 170.3,147.2 171.5,146.3 172.7,145.4 173.9,144.5 175.0,143.6 176.2,142.7 177.4,141.8 178.6,140.9 179.8,140.0 181.0,139.1 182.2,138.2 183.3,137.3 184.5,136.4 185.7,135.6 186.9,134.7 188.1,133.8 189.3,132.9 190.5,132.1 191.7,131.2 192.8,130.3 194.0,129.4 195.2,128.6 196.4,127.7 197.6,126.9 198.8,126.0 200.0,125.1 201.1,124.3 202.3,123.4 203.5,122.6 204.7,121.7 205.9,120.9 207.1,120.0 208.3,119.2 209.5,118.4 210.6,117.6 211.8,116.7 213.0,115.9 214.2,115.0 215.4,114.2 216.6,113.4 217.8,112.5 218.9,111.7 220.1,110.9 221.3,110.1 222.5,109.3 223.7,108.4 224.9,107.6 226.1,106.8 227.3,106.0 228.4,105.3 229.6,104.5 230.8,103.7 232.0,102.9 233.2,102.1 234.4,101.3 235.6,100.5 236.7,99.7 237.9,99.0 239.1,98.2 240.3,97.4 241.5,96.7 242.7,95.9 243.9,95.1 245.1,94.4 246.2,93.6 247.4,92.9 248.6,92.1 249.8,91.4 251.0,90.6 252.2,89.9 253.4,89.2 254.5,88.5 255.7,87.7 256.9,87.0 258.1,86.3 259.3,85.6 260.5,84.9 261.7,84.2 262.9,83.5 264.0,82.9 265.2,82.2 266.4,81.6 267.6,81.0 268.8,80.4 270.0,79.8 271.2,79.3 272.3,78.7 273.5,78.2 274.7,77.7 275.9,77.2 277.1,76.8 278.3,76.4 279.5,75.9 280.7,75.5 281.8,75.1 283.0,74.7 284.2,74.3 285.4,74.0 286.6,73.6 287.8,73.3 289.0,73.0 290.1,72.7 291.3,72.3 292.5,72.0 293.7,71.6 294.9,71.3 296.1,70.9 297.3,70.5 298.5,70.2 299.6,69.9 300.8,69.5 302.0,69.1 303.2,68.7 304.4,68.4 305.6,68.0 306.8,67.7 307.9,67.4 309.1,67.1 310.3,66.8 311.5,66.6 312.7,66.3 313.9,66.1 315.1,65.8 316.3,65.5 317.4,65.1 318.6,64.8 319.8,64.5 321.0,64.2 322.2,63.9 323.4,63.7 324.6,63.4 325.7,63.1 326.9,62.8 328.1,62.5 329.3,62.2 330.5,62.0 331.7,61.7 332.9,61.5 334.1,61.3 335.2,61.1 336.4,60.9 337.6,60.7 338.8,60.5 340.0,60.4 341.2,60.1 342.4,59.9 343.5,59.7 344.7,59.5 345.9,59.2 347.1,59.0 348.3,58.7 349.5,58.5 350.7,58.2 351.9,58.1 353.0,57.9 354.2,57.8 355.4,57.7 356.6,57.6 357.8,57.5 359.0,57.4 360.2,57.2 361.3,57.0 362.5,56.8 363.7,56.6 364.9,56.4 366.1,56.3 367.3,56.1 368.5,55.9 369.7,55.7 370.8,55.6 372.0,55.5 373.2,55.4 374.4,55.2 375.6,55.2 376.8,55.1 378.0,55.0 379.1,54.9 380.3,54.9 381.5,54.8 382.7,54.7 383.9,54.7 385.1,54.6 386.3,54.5 387.5,54.5 388.6,54.4 389.8,54.4 391.0,54.4 392.2,54.4 393.4,54.3 394.6,54.3 395.8,54.3 396.9,54.4 398.1,54.4 399.3,54.6 400.5,54.6 401.7,54.8 402.9,54.9 404.1,55.1 405.3,55.2 406.4,55.3 407.6,55.4 408.8,55.5 410.0,55.5 411.2,55.7 412.4,55.7 413.6,56.0 414.7,56.1 415.9,56.4 417.1,56.6 418.3,57.0 419.5,57.3 420.7,57.7 421.9,58.1 423.1,58.6 424.2,59.0 425.4,59.4 426.6,59.8 427.8,60.3 429.0,60.7 430.2,61.2 431.4,61.6 432.5,62.1 433.7,62.6 434.9,63.1 436.1,63.7 437.3,64.3 438.5,64.9 439.7,65.6 440.9,66.3 442.0,67.1 443.2,67.8 444.4,68.7 445.6,69.5 446.8,70.3 448.0,71.1 449.2,72.0 450.3,72.8 451.5,73.7 452.7,74.6 453.9,75.4 455.1,76.3 456.3,77.3 457.5,78.2 458.7,79.2 459.8,80.2 461.0,81.3 462.2,82.4 463.4,83.5 464.6,84.7 465.8,85.8 467.0,87.0 468.1,88.2 469.3,89.5 470.5,90.6 471.7,91.8 472.9,93.0 474.1,94.1 475.3,95.3 476.5,96.4 477.6,97.5 478.8,98.7 480.0,99.8 481.2,100.9 482.4,102.0 483.6,103.2 484.8,104.3 485.9,105.4 487.1,106.6 488.3,107.8 489.5,108.9 490.7,110.1 491.9,111.3 493.1,112.5 494.3,113.8 495.4,115.0 496.6,116.3 497.8,117.6 499.0,119.0 500.2,120.3 501.4,121.7 502.6,123.1 503.7,124.6 504.9,126.0 506.1,127.5 507.3,129.0 508.5,130.5 509.7,132.0 510.9,133.5 512.1,135.0 513.2,136.6 514.4,138.2 515.6,139.8 516.8,141.4 518.0,143.0 519.2,144.6 520.4,146.3 521.5,147.9 522.7,149.6 523.9,151.2 525.1,152.9 526.3,154.6 527.5,156.3 528.7,158.0 529.9,159.7 531.0,161.4 532.2,163.1 533.4,164.8 534.6,166.5 535.8,168.3 537.0,170.0 538.2,171.7 539.3,173.5 540.5,175.2 541.7,177.0 542.9,178.7 544.1,180.4 545.3,182.1 546.5,183.7 547.7,185.2 548.8,186.7 550.0,188.2 551.2,189.6 552.4,191.0 553.6,192.3 554.8,193.6 556.0,194.8 557.1,195.9 558.3,197.1 559.5,198.1 560.7,199.1 561.9,200.1 563.1,201.0 564.3,201.9 565.5,202.9 566.6,203.9 567.8,204.9 569.0,205.9 570.2,207.0 571.4,208.0 572.6,209.0 573.8,209.9 574.9,210.9 576.1,211.9 577.3,212.8 578.5,213.8 579.7,214.7 580.9,215.7 582.1,216.6 583.3,217.5 584.4,218.4 585.6,219.4 586.8,220.3 588.0,221.2 589.2,222.1 590.4,223.0 591.6,223.9 592.7,224.7 593.9,225.6 595.1,226.4 596.3,227.3 597.5,228.1 598.7,228.9 599.9,229.7 601.1,230.5 602.2,231.1 603.4,231.8 604.6,232.3 605.8,232.9 607.0,233.4 608.2,233.8 609.4,234.0 610.5,234.2 611.7,234.5 612.9,235.0 614.1,235.5 615.3,236.0 616.5,236.5 617.7,237.0 618.9,237.5 620.0,238.0 621.2,238.5 622.4,238.9 623.6,239.2 624.8,239.5 626.0,239.6 627.2,239.5 628.3,239.5 629.5,239.5 630.7,239.7 631.9,240.0 633.1,240.3 634.3,240.7 635.5,241.1 636.7,241.6 637.8,242.0 639.0,242.4 640.2,242.8 641.4,243.2 642.6,243.6 643.8,244.0 645.0,244.4 646.1,244.7 647.3,245.0 648.5,245.3 649.7,245.4 650.9,245.5 652.1,245.4 653.3,245.4 654.5,245.3 655.6,245.2 656.8,245.1 658.0,245.0 659.2,244.9 660.4,244.8 661.6,244.8 662.8,244.8 663.9,244.8 665.1,244.9 666.3,245.0 667.5,245.2 668.7,245.4 669.9,245.7 671.1,246.0 672.3,246.2 673.4,246.5 674.6,246.8 675.8,247.1 677.0,247.4 678.2,247.6 679.4,247.9 680.6,248.2 681.7,248.5 682.9,248.8 684.1,249.0 685.3,249.3 686.5,249.6 687.7,249.9 688.9,250.2 690.1,250.5 691.2,250.7 692.4,251.0 693.6,251.3 694.8,251.6 696.0,251.9 697.2,252.2 698.4,252.5 699.5,252.8 700.7,253.1 701.9,253.4 703.1,253.7 704.3,254.0 705.5,254.3 706.7,254.6 707.9,254.9 709.0,255.2 710.2,255.5 711.4,255.8 712.6,256.1 713.8,256.3 715.0,256.6 716.2,256.9 717.3,257.2 718.5,257.4 719.7,257.7 720.9,258.0 722.1,258.2 723.3,258.5 724.5,258.7 725.7,259.0 726.8,259.3 728.0,259.5 729.2,259.8 730.4,260.0 731.6,260.2 732.8,260.5 734.0,260.7 735.1,260.9 736.3,261.2 737.5,261.4 738.7,261.6 739.9,261.8 741.1,262.0 742.3,262.3 743.5,262.5 744.6,262.7 745.8,262.9 747.0,263.1 748.2,263.3 749.4,263.5 750.6,263.7 751.8,263.9 752.9,264.1 754.1,264.2 755.3,264.4 756.5,264.6 757.7,264.8 758.9,265.0 760.1,265.2 761.3,265.3 762.4,265.5 763.6,265.7 764.8,265.8 766.0,266.0"/>
<line x1="606" y1="42" x2="628" y2="42" stroke="#0f62fe" stroke-width="2.2"/>
<text x="634" y="46" font-family="Arial" font-size="12">speed_mps</text>
<polyline fill="none" stroke="#24a148" stroke-width="2.2" points="54.0,241.8 55.2,241.0 56.4,240.1 57.6,239.3 58.7,238.4 59.9,237.5 61.1,236.6 62.3,235.7 63.5,234.8 64.7,233.8 65.9,232.8 67.1,231.9 68.2,230.9 69.4,229.8 70.6,228.8 71.8,227.8 73.0,226.8 74.2,225.7 75.4,224.7 76.5,223.7 77.7,222.7 78.9,221.6 80.1,220.6 81.3,219.6 82.5,218.6 83.7,217.6 84.9,216.6 86.0,215.5 87.2,214.5 88.4,213.5 89.6,212.5 90.8,211.5 92.0,210.5 93.2,209.5 94.3,208.5 95.5,207.5 96.7,206.5 97.9,205.5 99.1,204.5 100.3,203.5 101.5,202.5 102.7,201.5 103.8,200.5 105.0,199.5 106.2,198.5 107.4,197.5 108.6,196.5 109.8,195.5 111.0,194.5 112.1,193.5 113.3,192.6 114.5,191.6 115.7,190.6 116.9,189.6 118.1,188.6 119.3,187.7 120.5,186.7 121.6,185.7 122.8,184.7 124.0,183.8 125.2,182.8 126.4,181.8 127.6,180.8 128.8,179.9 129.9,178.9 131.1,177.9 132.3,177.0 133.5,176.0 134.7,175.1 135.9,174.1 137.1,173.1 138.3,172.2 139.4,171.2 140.6,170.3 141.8,169.3 143.0,168.4 144.2,167.4 145.4,166.5 146.6,165.5 147.7,164.6 148.9,163.6 150.1,162.7 151.3,161.8 152.5,160.8 153.7,159.9 154.9,159.0 156.1,158.0 157.2,157.1 158.4,156.2 159.6,155.2 160.8,154.3 162.0,153.4 163.2,152.5 164.4,151.6 165.5,150.6 166.7,149.7 167.9,148.8 169.1,147.9 170.3,147.0 171.5,146.1 172.7,145.2 173.9,144.3 175.0,143.4 176.2,142.5 177.4,141.6 178.6,140.7 179.8,139.8 181.0,138.9 182.2,138.0 183.3,137.1 184.5,136.3 185.7,135.4 186.9,134.5 188.1,133.6 189.3,132.7 190.5,131.9 191.7,131.0 192.8,130.1 194.0,129.3 195.2,128.4 196.4,127.5 197.6,126.7 198.8,125.8 200.0,125.0 201.1,124.1 202.3,123.3 203.5,122.4 204.7,121.6 205.9,120.7 207.1,119.9 208.3,119.0 209.5,118.2 210.6,117.4 211.8,116.5 213.0,115.7 214.2,114.8 215.4,114.0 216.6,113.2 217.8,112.3 218.9,111.5 220.1,110.7 221.3,109.9 222.5,109.1 223.7,108.3 224.9,107.4 226.1,106.7 227.3,105.8 228.4,105.1 229.6,104.3 230.8,103.5 232.0,102.7 233.2,101.9 234.4,101.1 235.6,100.3 236.7,99.5 237.9,98.8 239.1,98.0 240.3,97.2 241.5,96.5 242.7,95.7 243.9,94.9 245.1,94.2 246.2,93.4 247.4,92.7 248.6,91.9 249.8,91.2 251.0,90.4 252.2,89.7 253.4,89.0 254.5,88.3 255.7,87.5 256.9,86.8 258.1,86.1 259.3,85.4 260.5,84.7 261.7,84.0 262.9,83.3 264.0,82.7 265.2,82.0 266.4,81.4 267.6,80.8 268.8,80.2 270.0,79.6 271.2,79.1 272.3,78.5 273.5,78.0 274.7,77.5 275.9,77.0 277.1,76.6 278.3,76.1 279.5,75.7 280.7,75.3 281.8,74.9 283.0,74.5 284.2,74.1 285.4,73.8 286.6,73.4 287.8,73.1 289.0,72.8 290.1,72.4 291.3,72.1 292.5,71.7 293.7,71.4 294.9,71.0 296.1,70.7 297.3,70.3 298.5,70.0 299.6,69.6 300.8,69.2 302.0,68.9 303.2,68.5 304.4,68.1 305.6,67.8 306.8,67.5 307.9,67.2 309.1,66.9 310.3,66.6 311.5,66.3 312.7,66.1 313.9,65.8 315.1,65.5 316.3,65.2 317.4,64.9 318.6,64.6 319.8,64.3 321.0,64.0 322.2,63.7 323.4,63.4 324.6,63.1 325.7,62.8 326.9,62.5 328.1,62.3 329.3,62.0 330.5,61.7 331.7,61.5 332.9,61.3 334.1,61.0 335.2,60.9 336.4,60.6 337.6,60.5 338.8,60.3 340.0,60.1 341.2,59.8 342.4,59.7 343.5,59.4 344.7,59.2 345.9,58.9 347.1,58.7 348.3,58.4 349.5,58.2 350.7,58.0 351.9,57.8 353.0,57.6 354.2,57.6 355.4,57.4 356.6,57.4 357.8,57.2 359.0,57.1 360.2,56.9 361.3,56.8 362.5,56.5 363.7,56.4 364.9,56.1 366.1,56.0 367.3,55.8 368.5,55.6 369.7,55.4 370.8,55.3 372.0,55.2 373.2,55.1 374.4,54.9 375.6,54.9 376.8,54.8 378.0,54.7 379.1,54.6 380.3,54.6 381.5,54.5 382.7,54.4 383.9,54.4 385.1,54.3 386.3,54.2 387.5,54.2 388.6,54.1 389.8,54.1 391.0,54.1 392.2,54.1 393.4,54.0 394.6,54.0 395.8,54.0 396.9,54.1 398.1,54.1 399.3,54.3 400.5,54.3 401.7,54.5 402.9,54.6 404.1,54.8 405.3,54.8 406.4,55.0 407.6,55.0 408.8,55.2 410.0,55.2 411.2,55.3 412.4,55.4 413.6,55.6 414.7,55.8 415.9,56.1 417.1,56.3 418.3,56.7 419.5,57.0 420.7,57.4 421.9,57.8 423.1,58.2 424.2,58.6 425.4,59.1 426.6,59.5 427.8,60.0 429.0,60.4 430.2,60.9 431.4,61.3 432.5,61.8 433.7,62.3 434.9,62.8 436.1,63.3 437.3,64.0 438.5,64.6 439.7,65.3 440.9,66.0 442.0,66.8 443.2,67.5 444.4,68.3 445.6,69.1 446.8,70.0 448.0,70.8 449.2,71.7 450.3,72.5 451.5,73.4 452.7,74.2 453.9,75.1 455.1,76.0 456.3,76.9 457.5,77.9 458.7,78.9 459.8,79.9 461.0,81.0 462.2,82.1 463.4,83.2 464.6,84.3 465.8,85.5 467.0,86.7 468.1,87.9 469.3,89.1 470.5,90.3 471.7,91.5 472.9,92.7 474.1,93.8 475.3,95.0 476.5,96.1 477.6,97.2 478.8,98.4 480.0,99.5 481.2,100.6 482.4,101.7 483.6,102.9 484.8,104.0 485.9,105.2 487.1,106.3 488.3,107.5 489.5,108.6 490.7,109.8 491.9,111.0 493.1,112.2 494.3,113.5 495.4,114.8 496.6,116.0 497.8,117.4 499.0,118.7 500.2,120.1 501.4,121.5 502.6,122.9 503.7,124.3 504.9,125.7 506.1,127.2 507.3,128.7 508.5,130.2 509.7,131.7 510.9,133.2 512.1,134.8 513.2,136.3 514.4,137.9 515.6,139.5 516.8,141.1 518.0,142.7 519.2,144.4 520.4,146.0 521.5,147.7 522.7,149.3 523.9,151.0 525.1,152.7 526.3,154.3 527.5,156.0 528.7,157.7 529.9,159.4 531.0,161.1 532.2,162.9 533.4,164.6 534.6,166.3 535.8,168.0 537.0,169.8 538.2,171.5 539.3,173.3 540.5,175.0 541.7,176.8 542.9,178.5 544.1,180.2 545.3,181.9 546.5,183.5 547.7,185.0 548.8,186.5 550.0,188.0 551.2,189.4 552.4,190.8 553.6,192.1 554.8,193.4 556.0,194.6 557.1,195.7 558.3,196.9 559.5,197.9 560.7,198.9 561.9,199.9 563.1,200.8 564.3,201.8 565.5,202.7 566.6,203.7 567.8,204.7 569.0,205.7 570.2,206.8 571.4,207.8 572.6,208.8 573.8,209.8 574.9,210.8 576.1,211.7 577.3,212.7 578.5,213.6 579.7,214.6 580.9,215.5 582.1,216.4 583.3,217.4 584.4,218.3 585.6,219.2 586.8,220.1 588.0,221.0 589.2,221.9 590.4,222.8 591.6,223.7 592.7,224.6 593.9,225.4 595.1,226.3 596.3,227.1 597.5,227.9 598.7,228.8 599.9,229.6 601.1,230.3 602.2,231.0 603.4,231.6 604.6,232.2 605.8,232.7 607.0,233.2 608.2,233.7 609.4,233.9 610.5,234.0 611.7,234.3 612.9,234.8 614.1,235.3 615.3,235.8 616.5,236.4 617.7,236.9 618.9,237.4 620.0,237.9 621.2,238.3 622.4,238.7 623.6,239.1 624.8,239.4 626.0,239.4 627.2,239.4 628.3,239.3 629.5,239.4 630.7,239.5 631.9,239.8 633.1,240.2 634.3,240.6 635.5,241.0 636.7,241.4 637.8,241.8 639.0,242.3 640.2,242.7 641.4,243.1 642.6,243.5 643.8,243.9 645.0,244.2 646.1,244.6 647.3,244.9 648.5,245.2 649.7,245.3 650.9,245.3 652.1,245.3 653.3,245.2 654.5,245.1 655.6,245.1 656.8,245.0 658.0,244.9 659.2,244.8 660.4,244.7 661.6,244.7 662.8,244.6 663.9,244.7 665.1,244.7 666.3,244.9 667.5,245.1 668.7,245.3 669.9,245.6 671.1,245.9 672.3,246.1 673.4,246.4 674.6,246.7 675.8,247.0 677.0,247.2 678.2,247.5 679.4,247.8 680.6,248.1 681.7,248.4 682.9,248.6 684.1,248.9 685.3,249.2 686.5,249.5 687.7,249.8 688.9,250.1 690.1,250.4 691.2,250.6 692.4,250.9 693.6,251.2 694.8,251.5 696.0,251.8 697.2,252.1 698.4,252.4 699.5,252.7 700.7,253.0 701.9,253.3 703.1,253.6 704.3,253.9 705.5,254.2 706.7,254.5 707.9,254.8 709.0,255.1 710.2,255.4 711.4,255.7 712.6,256.0 713.8,256.3 715.0,256.5 716.2,256.8 717.3,257.1 718.5,257.4 719.7,257.6 720.9,257.9 722.1,258.2 723.3,258.4 724.5,258.7 725.7,258.9 726.8,259.2 728.0,259.4 729.2,259.7 730.4,259.9 731.6,260.2 732.8,260.4 734.0,260.6 735.1,260.9 736.3,261.1 737.5,261.3 738.7,261.6 739.9,261.8 741.1,262.0 742.3,262.2 743.5,262.4 744.6,262.6 745.8,262.8 747.0,263.0 748.2,263.2 749.4,263.4 750.6,263.6 751.8,263.8 752.9,264.0 754.1,264.2 755.3,264.4 756.5,264.6 757.7,264.8 758.9,264.9 760.1,265.1 761.3,265.3 762.4,265.5 763.6,265.6 764.8,265.8 766.0,266.0"/>
<line x1="606" y1="60" x2="628" y2="60" stroke="#24a148" stroke-width="2.2"/>
<text x="634" y="64" font-family="Arial" font-size="12">airspeed_mps</text>
</svg>