<svg xmlns="http://www.w3.org/2000/svg" width="820" height="320" viewBox="0 0 820 320">
<rect width="100%" height="100%" fill="#ffffff"/>
<text x="54" y="28" font-family="Arial" font-size="18" font-weight="700">Body Rates</text>
<line x1="54" y1="266" x2="766" y2="266" stroke="#1f2933"/>
<line x1="54" y1="54" x2="54" y2="266" stroke="#1f2933"/>
<text x="54" y="306" font-family="Arial" font-size="12">time (s)</text>
<text x="596" y="306" font-family="Arial" font-size="12">rate (deg/s)</text>
<text x="58" y="68" font-family="Arial" font-size="11">298</text>
<text x="58" y="260" font-family="Arial" font-size="11">-213</text>
<polyline fill="none" stroke="#0f62fe" stroke-width="2.2" points="54.0,177.7 55.2,177.7 56.4,177.8 57.6,177.8 58.7,177.8 59.9,177.8 61.1,177.8 62.3,177.8 63.5,177.8 64.7,177.8 65.9,177.8 67.1,177.8 68.2,177.8 69.4,177.8 70.6,177.8 71.8,177.8 73.0,177.8 74.2,177.8 75.4,177.8 76.5,177.8 77.7,177.8 78.9,177.8 80.1,177.8 81.3,177.8 82.5,177.8 83.7,177.8 84.9,177.8 86.0,177.8 87.2,177.8 88.4,177.8 89.6,177.8 90.8,177.8 92.0,177.8 93.2,177.8 94.3,177.8 95.5,177.8 96.7,177.8 97.9,177.8 99.1,177.8 100.3,177.8 101.5,177.8 102.7,177.8 103.8,177.8 105.0,177.8 106.2,177.8 107.4,177.8 108.6,177.8 109.8,177.8 111.0,177.8 112.1,177.8 113.3,177.8 114.5,177.8 115.7,177.8 116.9,177.8 118.1,177.8 119.3,177.8 120.5,177.8 121.6,177.8 122.8,177.8 124.0,177.8 125.2,177.8 126.4,177.8 127.6,177.8 128.8,177.8 129.9,177.8 131.1,177.8 132.3,177.8 133.5,177.8 134.7,177.8 135.9,177.8 137.1,177.8 138.3,177.8 139.4,177.8 140.6,177.8 141.8,177.8 143.0,177.8 144.2,177.8 145.4,177.9 146.6,177.9 147.7,177.9 148.9,177.9 150.1,177.9 151.3,177.9 152.5,177.9 153.7,177.9 154.9,177.9 156.1,177.9 157.2,177.9 158.4,177.9 159.6,177.9 160.8,177.9 162.0,177.9 163.2,177.9 164.4,178.0 165.5,178.0 166.7,178.0 167.9,178.0 169.1,178.0 170.3,178.0 171.5,178.0 172.7,178.0 173.9,178.1 175.0,178.1 176.2,178.1 177.4,178.1 178.6,178.1 179.8,178.1 181.0,178.2 182.2,178.2 183.3,178.2 184.5,178.2 185.7,178.3 186.9,178.3 188.1,178.3 189.3,178.3 190.5,178.4 191.7,178.4 192.8,178.4 194.0,178.5 195.2,178.5 196.4,178.6 197.6,178.6 198.8,178.6 200.0,178.7 201.1,178.8 202.3,178.8 203.5,178.9 204.7,178.9 205.9,179.0 207.1,179.1 208.3,179.1 209.5,179.2 210.6,179.3 211.8,179.4 213.0,179.5 214.2,179.6 215.4,179.7 216.6,179.8 217.8,179.9 218.9,180.1 220.1,180.2 221.3,180.4 222.5,180.5 223.7,180.7 224.9,180.9 226.1,181.1 227.3,181.3 228.4,181.5 229.6,181.7 230.8,182.0 232.0,182.2 233.2,182.6 234.4,182.8 235.6,183.2 236.7,183.5 237.9,183.9 239.1,184.3 240.3,184.8 241.5,184.7 242.7,184.5 243.9,184.5 245.1,184.5 246.2,184.4 247.4,184.4 248.6,184.4 249.8,184.3 251.0,184.3 252.2,184.2 253.4,184.1 254.5,184.1 255.7,184.0 256.9,184.0 258.1,183.9 259.3,183.8 260.5,183.7 261.7,183.7 262.9,183.5 264.0,183.5 265.2,183.4 266.4,183.3 267.6,183.2 268.8,183.2 270.0,183.1 271.2,183.1 272.3,183.0 273.5,183.0 274.7,182.9 275.9,182.8 277.1,182.8 278.3,182.7 279.5,182.7 280.7,182.6 281.8,182.6 283.0,182.6 284.2,182.5 285.4,182.5 286.6,182.5 287.8,182.5 289.0,182.5 290.1,182.5 291.3,182.6 292.5,182.6 293.7,182.7 294.9,182.7 296.1,182.7 297.3,182.7 298.5,182.7 299.6,182.7 300.8,182.7 302.0,182.7 303.2,182.6 304.4,182.6 305.6,182.6 306.8,182.6 307.9,182.5 309.1,182.5 310.3,182.5 311.5,182.5 312.7,182.5 313.9,182.6 315.1,182.6 316.3,182.6 317.4,182.7 318.6,182.7 319.8,182.7 321.0,182.7 322.2,182.7 323.4,182.7 324.6,182.7 325.7,182.7 326.9,182.6 328.1,182.6 329.3,182.5 330.5,182.5 331.7,182.5 332.9,182.5 334.1,182.5 335.2,182.6 336.4,182.6 337.6,182.6 338.8,182.6 340.0,182.7 341.2,182.7 342.4,182.7 343.5,182.7 344.7,182.7 345.9,182.7 347.1,182.7 348.3,182.6 349.5,182.6 350.7,182.6 351.9,182.6 353.0,182.5 354.2,182.6 355.4,182.5 356.6,182.6 357.8,182.6 359.0,182.6 360.2,182.6 361.3,182.7 362.5,182.7 363.7,182.7 364.9,182.7 366.1,182.7 367.3,182.7 368.5,182.7 369.7,182.6 370.8,182.6 372.0,182.6 373.2,182.6 374.4,182.5 375.6,182.6 376.8,182.5 378.0,182.6 379.1,182.6 380.3,182.6 381.5,182.6 382.7,182.6 383.9,182.7 385.1,182.7 386.3,182.7 387.5,182.7 388.6,182.7 389.8,182.7 391.0,182.6 392.2,182.6 393.4,182.6 394.6,182.6 395.8,182.6 396.9,182.6 398.1,182.5 399.3,182.6 400.5,182.6 401.7,182.6 402.9,182.6 404.1,182.6 405.3,182.6 406.4,182.7 407.6,182.7 408.8,182.7 410.0,182.7 411.2,182.7 412.4,182.6 413.6,182.7 414.7,182.6 415.9,182.6 417.1,182.6 418.3,182.6 419.5,182.6 420.7,182.6 421.9,182.6 423.1,182.6 424.2,182.6 425.4,182.6 426.6,182.6 427.8,182.7 429.0,182.7 430.2,182.7 431.4,182.7 432.5,182.7 433.7,182.6 434.9,182.7 436.1,182.6 437.3,182.6 438.5,182.6 439.7,182.6 440.9,182.6 442.0,182.6 443.2,182.6 444.4,182.6 445.6,182.6 446.8,182.6 448.0,182.6 449.2,182.6 450.3,182.6 451.5,182.7 452.7,182.7 453.9,182.7 455.1,182.7 456.3,182.7 457.5,182.6 458.7,182.6 459.8,182.6 461.0,182.6 462.2,182.6 463.4,182.6 464.6,182.6 465.8,182.6 467.0,182.6 468.1,182.6 469.3,182.6 470.5,182.6 471.7,182.6 472.9,182.6 474.1,182.6 475.3,182.7 476.5,182.7 477.6,182.7 478.8,182.7 480.0,182.7 481.2,182.7 482.4,182.7 483.6,182.7 484.8,182.7 485.9,182.7 487.1,182.6 488.3,182.6 489.5,182.6 490.7,182.6 491.9,182.7 493.1,182.7 494.3,182.7 495.4,182.7 496.6,182.7 497.8,182.7 499.0,182.7 500.2,182.7 501.4,182.7 502.6,182.8 503.7,182.8 504.9,182.8 506.1,182.8 507.3,182.9 508.5,182.9 509.7,182.9 510.9,183.0 512.1,183.0 513.2,183.0 514.4,183.1 515.6,183.1 516.8,183.2 518.0,183.2 519.2,183.3 520.4,183.3 521.5,183.4 522.7,183.5 523.9,183.5 525.1,183.6 526.3,183.7 527.5,183.8 528.7,183.9 529.9,183.9 531.0,184.0 532.2,184.1 533.4,184.2 534.6,184.3 535.8,184.4 537.0,184.6 538.2,184.7 539.3,184.8 540.5,184.9 541.7,184.9 542.9,185.0 544.1,185.1 545.3,185.2 546.5,185.3 547.7,185.3 548.8,185.4 550.0,185.5 551.2,185.6 552.4,185.8 553.6,185.9 554.8,186.0 556.0,186.1 557.1,186.2 558.3,186.4 559.5,186.5 560.7,186.6 561.9,186.7 563.1,186.8 564.3,187.0 565.5,187.1 566.6,187.3 567.8,187.4 569.0,187.5 570.2,187.6 571.4,187.8 572.6,188.0 573.8,188.1 574.9,188.3 576.1,188.5 577.3,188.7 578.5,188.9 579.7,189.2 580.9,189.4 582.1,189.7 583.3,190.0 584.4,190.3 585.6,190.6 586.8,190.7 588.0,190.7 589.2,189.8 590.4,187.9 591.6,185.6 592.7,183.1 593.9,180.6 595.1,178.2 596.3,175.9 597.5,174.2 598.7,173.2 599.9,172.7 601.1,171.9 602.2,170.9 603.4,169.5 604.6,167.7 605.8,165.4 607.0,162.7 608.2,160.0 609.4,157.4 610.5,155.5 611.7,154.6 612.9,155.0 614.1,156.4 615.3,158.6 616.5,161.1 617.7,163.8 618.9,165.6 620.0,166.5 621.2,166.5 622.4,166.2 623.6,166.0 624.8,166.3 626.0,166.8 627.2,167.5 628.3,168.4 629.5,169.5 630.7,170.6 631.9,171.6 633.1,172.3 634.3,172.7 635.5,172.9 636.7,173.0 637.8,172.9 639.0,172.8 640.2,172.6 641.4,172.3 642.6,171.9 643.8,171.4 645.0,170.8 646.1,170.1 647.3,169.5 648.5,168.9 649.7,168.4 650.9,168.1 652.1,167.9 653.3,167.8 654.5,167.8 655.6,167.8 656.8,167.7 658.0,167.7 659.2,167.7 660.4,167.7 661.6,167.8 662.8,167.8 663.9,167.8 665.1,167.9 666.3,168.0 667.5,168.0 668.7,168.0 669.9,168.0 671.1,168.0 672.3,167.9 673.4,167.9 674.6,167.8 675.8,167.7 677.0,167.6 678.2,167.6 679.4,167.5 680.6,167.4 681.7,167.3 682.9,167.2 684.1,167.1 685.3,167.1 686.5,167.0 687.7,166.9 688.9,166.9 690.1,166.8 691.2,166.8 692.4,166.7 693.6,166.7 694.8,166.6 696.0,166.6 697.2,166.6 698.4,166.6 699.5,166.6 700.7,166.6 701.9,166.6 703.1,166.6 704.3,166.6 705.5,166.6 706.7,166.6 707.9,166.6 709.0,166.7 710.2,166.7 711.4,166.7 712.6,166.7 713.8,166.8 715.0,166.8 716.2,166.8 717.3,166.8 718.5,166.9 719.7,166.9 720.9,166.9 722.1,166.9 723.3,166.9 724.5,166.9 725.7,167.5 726.8,168.7 728.0,170.5 729.2,172.8 730.4,175.4 731.6,178.2 732.8,180.7 734.0,182.7 735.1,184.2 736.3,185.2 737.5,185.7 738.7,185.8 739.9,185.4 741.1,184.6 742.3,184.0 743.5,183.7 744.6,183.7 745.8,183.8 747.0,183.9 748.2,184.1 749.4,184.3 750.6,184.4 751.8,184.5 752.9,184.6 754.1,184.7 755.3,184.8 756.5,184.9 757.7,185.0 758.9,185.2 760.1,185.3 761.3,185.4 762.4,185.5 763.6,185.6 764.8,185.7 766.0,185.8"/>
<line x1="606" y1="42" x2="628" y2="42" stroke="#0f62fe" stroke-width="2.2"/>
<text x="634" y="46" font-family="Arial" font-size="12">p_dps</text>
<polyline fill="none" stroke="#24a148" stroke-width="2.2" points="54.0,177.7 55.2,181.5 56.4,182.1 57.6,180.4 58.7,179.1 59.9,178.9 61.1,179.1 62.3,179.0 63.5,178.6 64.7,178.3 65.9,178.2 67.1,178.1 68.2,178.0 69.4,177.9 70.6,177.8 71.8,177.7 73.0,177.6 74.2,177.5 75.4,177.5 76.5,177.4 77.7,177.4 78.9,177.4 80.1,177.3 81.3,177.3 82.5,177.3 83.7,177.3 84.9,177.3 86.0,177.2 87.2,177.2 88.4,177.2 89.6,177.2 90.8,177.2 92.0,177.2 93.2,177.2 94.3,177.2 95.5,177.2 96.7,177.2 97.9,177.2 99.1,177.2 100.3,177.3 101.5,177.3 102.7,177.3 103.8,177.3 105.0,177.3 106.2,177.3 107.4,177.3 108.6,177.3 109.8,177.3 111.0,177.3 112.1,177.3 113.3,177.3 114.5,177.4 115.7,177.4 116.9,177.4 118.1,177.4 119.3,177.4 120.5,177.4 121.6,177.4 122.8,177.4 124.0,177.4 125.2,177.4 126.4,177.4 127.6,177.5 128.8,177.5 129.9,177.5 131.1,177.5 132.3,177.5 133.5,177.5 134.7,177.5 135.9,177.5 137.1,177.5 138.3,177.5 139.4,177.5 140.6,177.5 141.8,177.5 143.0,177.6 144.2,177.6 145.4,177.6 146.6,177.6 147.7,177.6 148.9,177.6 150.1,177.7 151.3,177.7 152.5,177.7 153.7,177.7 154.9,177.8 156.1,177.8 157.2,177.8 158.4,177.8 159.6,177.8 160.8,177.9 162.0,177.9 163.2,177.9 164.4,177.9 165.5,177.9 166.7,177.9 167.9,177.9 169.1,178.0 170.3,178.0 171.5,178.0 172.7,178.0 173.9,178.0 175.0,178.0 176.2,178.0 177.4,178.0 178.6,178.0 179.8,178.0 181.0,178.0 182.2,178.0 183.3,178.0 184.5,178.0 185.7,178.0 186.9,178.1 188.1,178.1 189.3,178.1 190.5,178.1 191.7,178.1 192.8,178.1 194.0,178.1 195.2,178.1 196.4,178.0 197.6,178.1 198.8,178.0 200.0,178.3 201.1,177.7 202.3,178.8 203.5,176.7 204.7,180.8 205.9,172.9 207.1,184.1 208.3,175.2 209.5,181.9 210.6,170.2 211.8,179.8 213.0,178.5 214.2,177.7 215.4,179.9 216.6,174.9 217.8,186.1 218.9,175.4 220.1,180.9 221.3,171.3 222.5,183.5 223.7,174.0 224.9,185.3 226.1,174.2 227.3,184.1 228.4,172.0 229.6,182.7 230.8,171.6 232.0,183.4 233.2,172.6 234.4,184.5 235.6,173.0 236.7,184.5 237.9,172.4 239.1,183.9 240.3,171.8 241.5,183.7 242.7,171.8 243.9,184.1 245.1,172.0 246.2,184.4 247.4,171.9 248.6,184.3 249.8,171.6 251.0,184.2 252.2,171.4 253.4,184.3 254.5,171.4 255.7,184.4 256.9,171.3 258.1,184.4 259.3,171.5 260.5,184.8 261.7,172.5 262.9,186.1 264.0,172.4 265.2,184.7 266.4,174.5 267.6,188.2 268.8,174.5 270.0,186.1 271.2,172.4 272.3,183.4 273.5,177.1 274.7,190.7 275.9,177.1 277.1,185.4 278.3,171.8 279.5,181.5 280.7,179.7 281.8,181.9 283.0,174.8 284.2,188.5 285.4,176.9 286.6,184.4 287.8,170.7 289.0,181.4 290.1,173.3 291.3,187.0 292.5,176.4 293.7,179.1 294.9,173.8 296.1,187.5 297.3,174.8 298.5,184.6 299.6,170.9 300.8,183.3 302.0,169.6 303.2,183.3 304.4,178.7 305.6,188.2 306.8,174.5 307.9,182.6 309.1,175.7 310.3,189.4 311.5,176.3 312.7,183.4 313.9,169.7 315.1,181.8 316.3,171.3 317.4,185.0 318.6,174.9 319.8,188.6 321.0,174.9 322.2,186.6 323.4,172.9 324.6,184.9 325.7,171.2 326.9,184.9 328.1,173.9 329.3,187.6 330.5,174.3 331.7,188.0 332.9,174.3 334.1,188.0 335.2,174.3 336.4,188.0 337.6,174.3 338.8,185.7 340.0,172.0 341.2,185.4 342.4,171.7 343.5,185.4 344.7,171.7 345.9,185.4 347.1,172.4 348.3,186.1 349.5,177.0 350.7,190.7 351.9,177.0 353.0,190.7 354.2,177.0 355.4,184.8 356.6,171.1 357.8,184.8 359.0,171.1 360.2,184.8 361.3,172.1 362.5,185.7 363.7,174.1 364.9,187.8 366.1,174.6 367.3,188.2 368.5,174.6 369.7,188.2 370.8,174.6 372.0,188.2 373.2,174.6 374.4,188.2 375.6,174.6 376.8,188.2 378.0,174.6 379.1,188.2 380.3,174.6 381.5,188.2 382.7,174.6 383.9,188.2 385.1,174.6 386.3,188.2 387.5,174.6 388.6,188.2 389.8,174.6 391.0,188.2 392.2,175.8 393.4,189.5 394.6,176.7 395.8,190.4 396.9,176.7 398.1,190.4 399.3,176.7 400.5,190.4 401.7,176.7 402.9,187.8 404.1,174.1 405.3,187.7 406.4,174.0 407.6,187.7 408.8,175.2 410.0,188.9 411.2,178.2 412.4,191.9 413.6,178.2 414.7,191.9 415.9,178.2 417.1,191.7 418.3,178.0 419.5,191.7 420.7,178.0 421.9,191.5 423.1,177.8 424.2,187.9 425.4,176.7 426.6,190.3 427.8,176.7 429.0,189.6 430.2,176.2 431.4,189.8 432.5,180.8 433.7,189.6 434.9,181.4 436.1,191.2 437.3,181.4 438.5,191.8 439.7,181.5 440.9,190.9 442.0,182.1 443.2,188.9 444.4,183.0 445.6,186.6 446.8,183.8 448.0,185.1 449.2,184.5 450.3,184.8 451.5,185.1 452.7,185.4 453.9,185.9 455.1,186.4 456.3,186.9 457.5,187.4 458.7,187.8 459.8,188.0 461.0,188.2 462.2,188.2 463.4,188.1 464.6,187.9 465.8,187.6 467.0,187.2 468.1,187.2 469.3,187.6 470.5,187.6 471.7,187.6 472.9,187.9 474.1,188.4 475.3,188.9 476.5,189.5 477.6,190.4 478.8,191.3 480.0,192.3 481.2,193.3 482.4,194.4 483.6,195.4 484.8,196.5 485.9,197.4 487.1,198.3 488.3,199.1 489.5,199.9 490.7,200.6 491.9,201.2 493.1,201.9 494.3,202.6 495.4,203.3 496.6,203.7 497.8,203.5 499.0,203.4 500.2,203.5 501.4,203.5 502.6,203.6 503.7,203.6 504.9,203.6 506.1,203.7 507.3,203.7 508.5,203.7 509.7,203.7 510.9,203.8 512.1,203.8 513.2,203.8 514.4,203.9 515.6,203.9 516.8,203.9 518.0,204.0 519.2,204.0 520.4,204.0 521.5,204.0 522.7,204.1 523.9,204.1 525.1,204.1 526.3,204.2 527.5,204.2 528.7,204.2 529.9,204.2 531.0,204.3 532.2,204.3 533.4,204.3 534.6,204.4 535.8,204.4 537.0,204.4 538.2,204.4 539.3,203.1 540.5,197.4 541.7,189.4 542.9,180.7 544.1,172.9 545.3,167.5 546.5,164.9 547.7,164.4 548.8,165.0 550.0,165.3 551.2,164.9 552.4,164.0 553.6,162.7 554.8,161.4 556.0,160.1 557.1,158.7 558.3,159.3 559.5,163.1 560.7,170.9 561.9,183.2 563.1,196.8 564.3,206.3 565.5,208.8 566.6,207.7 567.8,205.9 569.0,204.9 570.2,204.6 571.4,204.7 572.6,204.9 573.8,205.1 574.9,205.1 576.1,205.1 577.3,205.1 578.5,205.1 579.7,205.2 580.9,205.2 582.1,205.3 583.3,205.3 584.4,205.4 585.6,205.5 586.8,205.6 588.0,205.7 589.2,205.7 590.4,205.8 591.6,205.7 592.7,205.6 593.9,205.4 595.1,198.9 596.3,186.9 597.5,173.2 598.7,159.5 599.9,145.8 601.1,132.1 602.2,118.5 603.4,104.8 604.6,91.1 605.8,77.4 607.0,65.6 608.2,63.7 609.4,74.5 610.5,88.1 611.7,101.8 612.9,115.5 614.1,129.2 615.3,142.9 616.5,156.5 617.7,170.2 618.9,183.9 620.0,197.6 621.2,211.3 622.4,225.0 623.6,238.6 624.8,252.3 626.0,266.0 627.2,264.6 628.3,251.6 629.5,237.9 630.7,224.2 631.9,212.4 633.1,204.9 634.3,201.8 635.5,201.7 636.7,202.8 637.8,203.8 639.0,202.8 640.2,196.8 641.4,186.5 642.6,172.8 643.8,159.1 645.0,145.5 646.1,134.6 647.3,126.5 648.5,121.9 649.7,122.1 650.9,126.4 652.1,136.3 653.3,149.4 654.5,163.1 655.6,176.8 656.8,189.2 658.0,199.7 659.2,207.8 660.4,213.3 661.6,216.3 662.8,217.0 663.9,215.8 665.1,214.1 666.3,211.7 667.5,208.7 668.7,205.2 669.9,201.6 671.1,199.0 672.3,197.1 673.4,195.7 674.6,194.6 675.8,193.7 677.0,193.2 678.2,192.9 679.4,192.9 680.6,193.3 681.7,194.2 682.9,195.6 684.1,197.5 685.3,200.0 686.5,202.3 687.7,203.8 688.9,204.6 690.1,204.9 691.2,204.9 692.4,204.9 693.6,204.8 694.8,204.7 696.0,204.7 697.2,204.7 698.4,204.7 699.5,204.7 700.7,204.7 701.9,204.7 703.1,204.7 704.3,204.7 705.5,204.8 706.7,204.8 707.9,204.8 709.0,204.8 710.2,204.8 711.4,204.8 712.6,204.8 713.8,204.8 715.0,204.8 716.2,204.8 717.3,204.8 718.5,204.8 719.7,204.8 720.9,204.8 722.1,204.8 723.3,204.8 724.5,204.8 725.7,204.8 726.8,204.7 728.0,204.7 729.2,204.6 730.4,204.5 731.6,204.4 732.8,204.3 734.0,204.1 735.1,204.0 736.3,203.9 737.5,202.4 738.7,199.8 739.9,197.3 741.1,195.3 742.3,194.0 743.5,193.1 744.6,192.2 745.8,191.5 747.0,190.9 748.2,190.3 749.4,189.6 750.6,188.9 751.8,188.2 752.9,187.4 754.1,186.7 755.3,186.0 756.5,185.3 757.7,184.6 758.9,184.0 760.1,183.3 761.3,182.7 762.4,182.1 763.6,181.6 764.8,181.0 766.0,180.5"/>
<line x1="606" y1="60" x2="628" y2="60" stroke="#24a148" stroke-width="2.2"/>
<text x="634" y="64" font-family="Arial" font-size="12">q_dps</text>
<polyline fill="none" stroke="#da1e28" stroke-width="2.2" points="54.0,177.7 55.2,177.7 56.4,177.7 57.6,177.7 58.7,177.7 59.9,177.7 61.1,177.7 62.3,177.7 63.5,177.7 64.7,177.7 65.9,177.7 67.1,177.7 68.2,177.7 69.4,177.7 70.6,177.7 71.8,177.7 73.0,177.7 74.2,177.7 75.4,177.7 76.5,177.7 77.7,177.7 78.9,177.7 80.1,177.7 81.3,177.7 82.5,177.7 83.7,177.7 84.9,177.7 86.0,177.7 87.2,177.7 88.4,177.7 89.6,177.7 90.8,177.7 92.0,177.7 93.2,177.7 94.3,177.7 95.5,177.7 96.7,177.7 97.9,177.7 99.1,177.7 100.3,177.7 101.5,177.7 102.7,177.7 103.8,177.7 105.0,177.7 106.2,177.7 107.4,177.7 108.6,177.7 109.8,177.7 111.0,177.7 112.1,177.7 113.3,177.7 114.5,177.7 115.7,177.7 116.9,177.7 118.1,177.7 119.3,177.7 120.5,177.7 121.6,177.7 122.8,177.7 124.0,177.7 125.2,177.7 126.4,177.7 127.6,177.6 128.8,177.6 129.9,177.6 131.1,177.6 132.3,177.6 133.5,177.6 134.7,177.6 135.9,177.6 137.1,177.6 138.3,177.6 139.4,177.6 140.6,177.6 141.8,177.6 143.0,177.6 144.2,177.6 145.4,177.6 146.6,177.6 147.7,177.6 148.9,177.6 150.1,177.6 151.3,177.6 152.5,177.6 153.7,177.6 154.9,177.6 156.1,177.6 157.2,177.6 158.4,177.6 159.6,177.6 160.8,177.6 162.0,177.6 163.2,177.6 164.4,177.5 165.5,177.5 166.7,177.5 167.9,177.5 169.1,177.5 170.3,177.5 171.5,177.5 172.7,177.5 173.9,177.5 175.0,177.5 176.2,177.5 177.4,177.4 178.6,177.4 179.8,177.4 181.0,177.4 182.2,177.4 183.3,177.4 184.5,177.4 185.7,177.4 186.9,177.3 188.1,177.3 189.3,177.3 190.5,177.3 191.7,177.3 192.8,177.2 194.0,177.2 195.2,177.2 196.4,177.2 197.6,177.2 198.8,177.1 200.0,177.1 201.1,177.1 202.3,177.0 203.5,177.0 204.7,177.0 205.9,176.9 207.1,176.9 208.3,176.8 209.5,176.8 210.6,176.8 211.8,176.7 213.0,176.7 214.2,176.6 215.4,176.6 216.6,176.5 217.8,176.5 218.9,176.3 220.1,176.3 221.3,176.2 222.5,176.2 223.7,176.1 224.9,176.0 226.1,175.8 227.3,175.8 228.4,175.6 229.6,175.6 230.8,175.4 232.0,175.4 233.2,175.2 234.4,175.1 235.6,174.9 236.7,174.8 237.9,174.5 239.1,174.4 240.3,174.2 241.5,174.1 242.7,173.8 243.9,173.7 245.1,173.3 246.2,173.3 247.4,172.8 248.6,172.7 249.8,172.3 251.0,172.2 252.2,171.7 253.4,171.6 254.5,171.1 255.7,171.0 256.9,170.3 258.1,170.2 259.3,169.6 260.5,169.4 261.7,169.0 262.9,168.8 264.0,169.1 265.2,169.5 266.4,169.7 267.6,169.8 268.8,170.0 270.0,170.1 271.2,170.3 272.3,170.4 273.5,170.6 274.7,170.7 275.9,170.8 277.1,170.9 278.3,171.0 279.5,171.1 280.7,171.3 281.8,171.4 283.0,171.6 284.2,172.1 285.4,172.9 286.6,173.8 287.8,174.9 289.0,175.9 290.1,176.9 291.3,177.6 292.5,178.1 293.7,178.3 294.9,178.1 296.1,177.6 297.3,176.9 298.5,175.9 299.6,174.9 300.8,173.9 302.0,173.0 303.2,172.4 304.4,172.0 305.6,172.0 306.8,172.3 307.9,172.8 309.1,173.6 310.3,174.5 311.5,175.4 312.7,176.3 313.9,177.0 315.1,177.5 316.3,177.7 317.4,177.6 318.6,177.2 319.8,176.6 321.0,175.8 322.2,174.9 323.4,174.1 324.6,173.3 325.7,172.7 326.9,172.3 328.1,172.3 329.3,172.5 330.5,173.0 331.7,173.6 332.9,174.4 334.1,175.2 335.2,176.0 336.4,176.6 337.6,177.1 338.8,177.2 340.0,177.1 341.2,176.7 342.4,176.1 343.5,175.4 344.7,174.6 345.9,173.8 347.1,173.2 348.3,172.7 349.5,172.5 350.7,172.5 351.9,172.8 353.0,173.3 354.2,174.0 355.4,174.7 356.6,175.4 357.8,176.0 359.0,176.4 360.2,176.6 361.3,176.7 362.5,176.4 363.7,176.0 364.9,175.5 366.1,174.9 367.3,174.2 368.5,173.6 369.7,173.1 370.8,172.9 372.0,172.8 373.2,172.9 374.4,173.2 375.6,173.7 376.8,174.3 378.0,174.9 379.1,175.4 380.3,175.9 381.5,176.1 382.7,176.3 383.9,176.2 385.1,175.9 386.3,175.4 387.5,174.9 388.6,174.3 389.8,173.8 391.0,173.3 392.2,173.1 393.4,172.9 394.6,173.0 395.8,173.2 396.9,173.6 398.1,174.0 399.3,174.6 400.5,175.0 401.7,175.5 402.9,175.7 404.1,175.9 405.3,175.8 406.4,175.6 407.6,175.3 408.8,174.9 410.0,174.4 411.2,173.9 412.4,173.5 413.6,173.2 414.7,173.0 415.9,173.1 417.1,173.2 418.3,173.5 419.5,173.8 420.7,174.2 421.9,174.6 423.1,175.0 424.2,175.2 425.4,175.4 426.6,175.4 427.8,175.3 429.0,175.0 430.2,174.7 431.4,174.3 432.5,174.0 433.7,173.6 434.9,173.3 436.1,173.1 437.3,173.1 438.5,173.1 439.7,173.2 440.9,173.4 442.0,173.7 443.2,174.0 444.4,174.3 445.6,174.5 446.8,174.7 448.0,174.8 449.2,174.8 450.3,174.7 451.5,174.6 452.7,174.3 453.9,174.0 455.1,173.8 456.3,173.5 457.5,173.2 458.7,173.1 459.8,172.9 461.0,172.9 462.2,173.0 463.4,173.1 464.6,173.2 465.8,173.4 467.0,173.6 468.1,173.8 469.3,174.0 470.5,174.1 471.7,174.1 472.9,174.1 474.1,174.1 475.3,173.9 476.5,173.7 477.6,173.5 478.8,173.3 480.0,173.0 481.2,172.7 482.4,172.5 483.6,172.3 484.8,172.2 485.9,172.0 487.1,171.9 488.3,171.9 489.5,171.8 490.7,171.8 491.9,171.7 493.1,171.7 494.3,171.6 495.4,171.5 496.6,171.3 497.8,171.1 499.0,171.1 500.2,171.1 501.4,171.1 502.6,171.0 503.7,171.0 504.9,170.9 506.1,170.8 507.3,170.8 508.5,170.7 509.7,170.6 510.9,170.5 512.1,170.4 513.2,170.4 514.4,170.2 515.6,170.1 516.8,170.0 518.0,169.9 519.2,169.8 520.4,169.6 521.5,169.5 522.7,169.3 523.9,169.2 525.1,169.0 526.3,168.8 527.5,168.6 528.7,168.4 529.9,168.2 531.0,168.0 532.2,167.8 533.4,167.5 534.6,167.3 535.8,168.0 537.0,169.6 538.2,172.1 539.3,175.3 540.5,179.4 541.7,184.3 542.9,188.8 544.1,191.5 545.3,192.7 546.5,192.3 547.7,191.4 548.8,190.5 550.0,189.9 551.2,189.4 552.4,189.2 553.6,188.9 554.8,188.7 556.0,188.4 557.1,186.6 558.3,183.4 559.5,178.7 560.7,172.7 561.9,166.8 563.1,161.7 564.3,157.5 565.5,154.0 566.6,151.3 567.8,149.3 569.0,147.8 570.2,147.0 571.4,146.6 572.6,146.8 573.8,146.8 574.9,146.6 576.1,145.8 577.3,144.6 578.5,142.8 579.7,140.5 580.9,137.6 582.1,134.2 583.3,130.1 584.4,125.3 585.6,120.0 586.8,114.5 588.0,109.0 589.2,103.7 590.4,98.4 591.6,93.1 592.7,87.8 593.9,82.6 595.1,77.4 596.3,72.2 597.5,67.0 598.7,61.9 599.9,57.2 601.1,54.5 602.2,54.0 603.4,56.0 604.6,60.7 605.8,68.3 607.0,78.7 608.2,92.0 609.4,105.7 610.5,119.3 611.7,133.0 612.9,146.7 614.1,160.4 615.3,174.1 616.5,187.6 617.7,200.0 618.9,211.5 620.0,222.1 621.2,231.8 622.4,239.4 623.6,244.8 624.8,247.8 626.0,248.4 627.2,246.7 628.3,242.8 629.5,237.1 630.7,229.8 631.9,221.4 633.1,212.2 634.3,202.5 635.5,192.4 636.7,182.3 637.8,172.9 639.0,164.4 640.2,156.9 641.4,150.7 642.6,145.8 643.8,142.4 645.0,140.4 646.1,140.1 647.3,141.2 648.5,143.9 649.7,148.1 650.9,153.5 652.1,158.9 653.3,164.1 654.5,169.0 655.6,173.3 656.8,177.2 658.0,180.3 659.2,182.8 660.4,184.6 661.6,185.6 662.8,186.0 663.9,185.6 665.1,184.9 666.3,183.9 667.5,182.9 668.7,181.9 669.9,181.0 671.1,180.2 672.3,179.5 673.4,178.9 674.6,178.4 675.8,178.1 677.0,177.9 678.2,177.8 679.4,177.9 680.6,178.2 681.7,178.6 682.9,179.1 684.1,179.7 685.3,180.4 686.5,181.2 687.7,182.1 688.9,183.0 690.1,184.0 691.2,185.1 692.4,186.2 693.6,187.4 694.8,188.6 696.0,189.9 697.2,191.1 698.4,192.3 699.5,193.6 700.7,194.8 701.9,196.0 703.1,197.1 704.3,198.2 705.5,199.3 706.7,200.3 707.9,201.2 709.0,202.1 710.2,203.0 711.4,203.7 712.6,204.5 713.8,205.1 715.0,205.7 716.2,206.3 717.3,206.8 718.5,207.2 719.7,207.6 720.9,208.0 722.1,208.4 723.3,208.7 724.5,209.0 725.7,209.2 726.8,209.5 728.0,209.8 729.2,210.0 730.4,210.2 731.6,210.3 732.8,210.4 734.0,210.2 735.1,210.0 736.3,209.5 737.5,208.8 738.7,207.8 739.9,206.7 741.1,205.3 742.3,203.7 743.5,201.9 744.6,200.1 745.8,198.4 747.0,197.0 748.2,195.9 749.4,195.0 750.6,194.3 751.8,193.7 752.9,193.2 754.1,192.7 755.3,192.4 756.5,192.0 757.7,191.7 758.9,191.4 760.1,191.1 761.3,190.8 762.4,190.5 763.6,190.2 764.8,190.0 766.0,189.7"/>
<line x1="606" y1="78" x2="628" y2="78" stroke="#da1e28" stroke-width="2.2"/>
<text x="634" y="82" font-family="Arial" font-size="12">r_dps</text>
</svg>