<svg xmlns="http://www.w3.org/2000/svg" width="820" height="320" viewBox="0 0 820 320">
<rect width="100%" height="100%" fill="#ffffff"/>
<text x="54" y="28" font-family="Arial" font-size="18" font-weight="700">Alpha/Beta</text>
<line x1="54" y1="266" x2="766" y2="266" stroke="#1f2933"/>
<line x1="54" y1="54" x2="54" y2="266" stroke="#1f2933"/>
<text x="54" y="306" font-family="Arial" font-size="12">time (s)</text>
<text x="596" y="306" font-family="Arial" font-size="12">angle (deg)</text>
<text x="58" y="68" font-family="Arial" font-size="11">35</text>
<text x="58" y="260" font-family="Arial" font-size="11">-30.4</text>
<polyline fill="none" stroke="#0f62fe" stroke-width="2.2" points="54.0,165.7 55.2,164.2 56.4,162.6 57.6,161.5 58.7,160.6 59.9,159.9 61.1,159.1 62.3,158.4 63.5,157.7 64.7,157.2 65.9,156.7 67.1,156.3 68.2,155.9 69.4,155.5 70.6,155.2 71.8,154.9 73.0,154.6 74.2,154.4 75.4,154.2 76.5,154.0 77.7,153.8 78.9,153.6 80.1,153.5 81.3,153.3 82.5,153.2 83.7,153.1 84.9,153.0 86.0,152.9 87.2,152.8 88.4,152.8 89.6,152.7 90.8,152.6 92.0,152.6 93.2,152.5 94.3,152.5 95.5,152.4 96.7,152.4 97.9,152.4 99.1,152.3 100.3,152.3 101.5,152.3 102.7,152.3 103.8,152.2 105.0,152.2 106.2,152.2 107.4,152.2 108.6,152.2 109.8,152.2 111.0,152.2 112.1,152.2 113.3,152.2 114.5,152.2 115.7,152.2 116.9,152.2 118.1,152.2 119.3,152.2 120.5,152.2 121.6,152.2 122.8,152.2 124.0,152.2 125.2,152.2 126.4,152.2 127.6,152.2 128.8,152.3 129.9,152.3 131.1,152.3 132.3,152.3 133.5,152.3 134.7,152.3 135.9,152.4 137.1,152.4 138.3,152.4 139.4,152.4 140.6,152.5 141.8,152.5 143.0,152.5 144.2,152.5 145.4,152.6 146.6,152.6 147.7,152.6 148.9,152.6 150.1,152.7 151.3,152.7 152.5,152.7 153.7,152.7 154.9,152.7 156.1,152.7 157.2,152.7 158.4,152.7 159.6,152.7 160.8,152.7 162.0,152.7 163.2,152.6 164.4,152.6 165.5,152.6 166.7,152.6 167.9,152.6 169.1,152.6 170.3,152.6 171.5,152.6 172.7,152.6 173.9,152.6 175.0,152.6 176.2,152.6 177.4,152.6 178.6,152.6 179.8,152.6 181.0,152.6 182.2,152.6 183.3,152.6 184.5,152.7 185.7,152.7 186.9,152.7 188.1,152.7 189.3,152.7 190.5,152.7 191.7,152.7 192.8,152.8 194.0,152.8 195.2,152.8 196.4,152.8 197.6,152.8 198.8,152.9 200.0,152.9 201.1,153.0 202.3,152.8 203.5,153.2 204.7,152.6 205.9,153.9 207.1,152.4 208.3,153.2 209.5,152.3 210.6,154.2 211.8,153.8 213.0,153.7 214.2,153.8 215.4,153.4 216.6,154.2 217.8,152.3 218.9,153.1 220.1,152.4 221.3,154.1 222.5,152.8 223.7,153.9 224.9,152.2 226.1,153.2 227.3,151.8 228.4,153.3 229.6,152.3 230.8,153.9 232.0,152.6 233.2,154.0 234.4,152.5 235.6,153.7 236.7,152.2 237.9,153.6 239.1,152.2 240.3,153.8 241.5,152.4 242.7,153.9 243.9,152.4 245.1,153.9 246.2,152.3 247.4,153.8 248.6,152.3 249.8,153.8 251.0,152.3 252.2,153.9 253.4,152.3 254.5,153.9 255.7,152.3 256.9,153.9 258.1,152.3 259.3,153.8 260.5,152.1 261.7,153.4 262.9,151.3 264.0,152.7 265.2,151.0 266.4,151.8 267.6,149.3 268.8,150.2 270.0,148.3 271.2,149.7 272.3,148.4 273.5,148.7 274.7,145.7 275.9,146.1 277.1,144.5 278.3,146.2 279.5,145.5 280.7,145.2 281.8,144.5 283.0,145.4 284.2,143.1 285.4,143.6 286.6,142.4 287.8,144.4 289.0,143.8 290.1,145.2 291.3,143.3 292.5,144.0 293.7,144.1 294.9,145.4 296.1,143.3 297.3,144.4 298.5,143.1 299.6,145.2 300.8,144.1 302.0,146.4 303.2,145.3 304.4,145.3 305.6,143.1 306.8,144.3 307.9,143.5 309.1,144.3 310.3,141.9 311.5,142.7 312.7,141.8 313.9,144.2 315.1,143.6 316.3,145.6 317.4,144.2 318.6,145.2 319.8,143.0 321.0,144.1 322.2,142.4 323.4,144.0 324.6,142.7 325.7,144.7 326.9,143.4 328.1,144.7 329.3,142.7 330.5,144.0 331.7,141.9 332.9,143.2 334.1,141.2 335.2,142.6 336.4,140.7 337.6,142.1 338.8,140.7 340.0,142.7 341.2,141.4 342.4,143.4 343.5,142.0 344.7,144.0 345.9,142.6 347.1,144.4 348.3,142.8 349.5,143.4 350.7,140.8 351.9,141.6 353.0,139.0 354.2,139.9 355.4,138.8 356.6,141.1 357.8,140.0 359.0,142.2 360.2,141.1 361.3,143.0 362.5,141.6 363.7,143.1 364.9,141.2 366.1,142.5 367.3,140.6 368.5,142.0 369.7,140.0 370.8,141.4 372.0,139.5 373.2,140.9 374.4,139.1 375.6,140.5 376.8,138.6 378.0,140.1 379.1,138.3 380.3,139.8 381.5,138.0 382.7,139.6 383.9,137.8 385.1,139.3 386.3,137.5 387.5,139.1 388.6,137.3 389.8,138.9 391.0,137.1 392.2,138.4 393.4,136.3 394.6,137.4 395.8,135.2 396.9,136.3 398.1,134.2 399.3,135.4 400.5,133.3 401.7,134.5 402.9,133.0 404.1,134.9 405.3,133.4 406.4,135.3 407.6,133.8 408.8,135.4 410.0,133.7 411.2,134.5 412.4,132.1 413.6,132.9 414.7,130.5 415.9,131.4 417.1,129.1 418.3,130.1 419.5,127.8 420.7,128.8 421.9,126.6 423.1,127.7 424.2,126.4 425.4,127.8 426.6,125.8 427.8,127.2 429.0,125.5 430.2,127.0 431.4,125.2 432.5,125.6 433.7,123.9 434.9,124.2 436.1,122.1 437.3,122.4 438.5,120.2 439.7,120.5 440.9,118.6 442.0,118.7 443.2,117.3 444.4,117.3 445.6,116.5 446.8,116.3 448.0,115.8 449.2,115.5 450.3,115.1 451.5,114.7 452.7,114.2 453.9,113.5 455.1,112.7 456.3,111.9 457.5,110.9 458.7,109.8 459.8,108.7 461.0,107.6 462.2,106.4 463.4,105.3 464.6,104.3 465.8,103.3 467.0,102.4 468.1,101.5 469.3,100.5 470.5,99.5 471.7,98.5 472.9,97.4 474.1,96.2 475.3,94.9 476.5,93.3 477.6,91.6 478.8,89.6 480.0,87.3 481.2,84.8 482.4,81.9 483.6,78.8 484.8,75.5 485.9,71.8 487.1,67.9 488.3,63.8 489.5,59.5 490.7,54.9 491.9,54.0 493.1,54.0 494.3,54.0 495.4,54.0 496.6,54.0 497.8,54.0 499.0,54.0 500.2,54.0 501.4,54.0 502.6,54.0 503.7,54.0 504.9,54.0 506.1,54.0 507.3,54.0 508.5,54.0 509.7,54.0 510.9,54.0 512.1,54.0 513.2,54.0 514.4,54.0 515.6,54.0 516.8,54.0 518.0,54.0 519.2,54.0 520.4,54.0 521.5,54.0 522.7,54.0 523.9,54.0 525.1,54.0 526.3,54.0 527.5,54.0 528.7,54.0 529.9,54.0 531.0,54.0 532.2,54.0 533.4,54.0 534.6,54.0 535.8,54.0 537.0,54.0 538.2,54.0 539.3,54.0 540.5,54.0 541.7,54.0 542.9,54.0 544.1,54.0 545.3,54.0 546.5,54.0 547.7,54.0 548.8,54.0 550.0,54.0 551.2,54.0 552.4,54.0 553.6,54.0 554.8,54.0 556.0,54.0 557.1,54.0 558.3,54.0 559.5,54.0 560.7,54.0 561.9,54.0 563.1,54.0 564.3,54.0 565.5,54.0 566.6,54.0 567.8,54.0 569.0,54.0 570.2,54.0 571.4,54.0 572.6,54.0 573.8,54.0 574.9,54.0 576.1,54.0 577.3,54.0 578.5,54.0 579.7,54.0 580.9,54.0 582.1,54.0 583.3,54.0 584.4,54.0 585.6,54.0 586.8,54.0 588.0,54.0 589.2,54.0 590.4,54.0 591.6,54.0 592.7,54.0 593.9,54.0 595.1,54.0 596.3,54.0 597.5,54.0 598.7,54.0 599.9,54.0 601.1,54.0 602.2,54.0 603.4,54.0 604.6,64.1 605.8,87.0 607.0,112.7 608.2,140.0 609.4,166.3 610.5,190.8 611.7,213.0 612.9,232.1 614.1,247.5 615.3,258.5 616.5,264.6 617.7,266.0 618.9,263.0 620.0,256.2 621.2,246.0 622.4,232.9 623.6,217.1 624.8,198.6 626.0,177.5 627.2,157.1 628.3,140.0 629.5,126.1 630.7,115.2 631.9,107.0 633.1,100.5 634.3,94.8 635.5,89.3 636.7,83.7 637.8,78.1 639.0,73.0 640.2,69.4 641.4,68.3 642.6,70.4 643.8,75.6 645.0,84.0 646.1,94.7 647.3,107.4 648.5,121.2 649.7,135.0 650.9,147.8 652.1,158.3 653.3,165.6 654.5,169.6 655.6,170.5 656.8,168.4 658.0,163.8 659.2,157.5 660.4,150.1 661.6,142.0 662.8,133.9 663.9,126.3 665.1,119.1 666.3,112.5 667.5,106.7 668.7,101.7 669.9,97.5 671.1,93.9 672.3,90.7 673.4,87.9 674.6,85.3 675.8,82.9 677.0,80.6 678.2,78.5 679.4,76.3 680.6,74.1 681.7,71.7 682.9,69.0 684.1,65.8 685.3,62.2 686.5,58.0 687.7,54.0 688.9,54.0 690.1,54.0 691.2,54.0 692.4,54.0 693.6,54.0 694.8,54.0 696.0,54.0 697.2,54.0 698.4,54.0 699.5,54.0 700.7,54.0 701.9,54.0 703.1,54.0 704.3,54.0 705.5,54.0 706.7,54.0 707.9,54.0 709.0,54.0 710.2,54.0 711.4,54.0 712.6,54.0 713.8,54.0 715.0,54.0 716.2,54.0 717.3,54.0 718.5,54.0 719.7,54.0 720.9,54.0 722.1,54.0 723.3,54.0 724.5,54.0 725.7,54.0 726.8,54.0 728.0,54.0 729.2,54.0 730.4,54.0 731.6,54.0 732.8,54.0 734.0,54.0 735.1,54.0 736.3,54.0 737.5,54.0 738.7,54.0 739.9,54.0 741.1,54.0 742.3,54.0 743.5,54.0 744.6,54.0 745.8,54.0 747.0,54.0 748.2,54.0 749.4,54.0 750.6,54.0 751.8,54.0 752.9,54.0 754.1,54.0 755.3,54.0 756.5,54.0 757.7,54.0 758.9,54.0 760.1,54.0 761.3,54.0 762.4,54.0 763.6,54.0 764.8,54.0 766.0,54.0"/>
<line x1="606" y1="42" x2="628" y2="42" stroke="#0f62fe" stroke-width="2.2"/>
<text x="634" y="46" font-family="Arial" font-size="12">alpha_deg</text>
<polyline fill="none" stroke="#24a148" stroke-width="2.2" points="54.0,167.2 55.2,167.2 56.4,167.2 57.6,167.2 58.7,167.2 59.9,167.2 61.1,167.2 62.3,167.2 63.5,167.3 64.7,167.3 65.9,167.3 67.1,167.3 68.2,167.3 69.4,167.3 70.6,167.3 71.8,167.3 73.0,167.3 74.2,167.4 75.4,167.4 76.5,167.4 77.7,167.4 78.9,167.4 80.1,167.4 81.3,167.5 82.5,167.5 83.7,167.5 84.9,167.5 86.0,167.5 87.2,167.5 88.4,167.5 89.6,167.6 90.8,167.6 92.0,167.6 93.2,167.6 94.3,167.6 95.5,167.6 96.7,167.6 97.9,167.6 99.1,167.6 100.3,167.6 101.5,167.6 102.7,167.7 103.8,167.7 105.0,167.7 106.2,167.7 107.4,167.7 108.6,167.7 109.8,167.7 111.0,167.7 112.1,167.7 113.3,167.8 114.5,167.8 115.7,167.8 116.9,167.8 118.1,167.8 119.3,167.8 120.5,167.8 121.6,167.8 122.8,167.8 124.0,167.9 125.2,167.9 126.4,167.9 127.6,167.9 128.8,167.9 129.9,167.9 131.1,167.9 132.3,168.0 133.5,168.0 134.7,168.0 135.9,168.0 137.1,168.0 138.3,168.0 139.4,168.0 140.6,168.1 141.8,168.1 143.0,168.1 144.2,168.1 145.4,168.1 146.6,168.1 147.7,168.1 148.9,168.2 150.1,168.2 151.3,168.2 152.5,168.2 153.7,168.2 154.9,168.3 156.1,168.3 157.2,168.3 158.4,168.3 159.6,168.3 160.8,168.4 162.0,168.4 163.2,168.4 164.4,168.5 165.5,168.5 166.7,168.5 167.9,168.5 169.1,168.6 170.3,168.6 171.5,168.7 172.7,168.7 173.9,168.7 175.0,168.8 176.2,168.8 177.4,168.9 178.6,168.9 179.8,169.0 181.0,169.0 182.2,169.1 183.3,169.1 184.5,169.2 185.7,169.2 186.9,169.3 188.1,169.4 189.3,169.4 190.5,169.5 191.7,169.6 192.8,169.6 194.0,169.7 195.2,169.8 196.4,169.9 197.6,170.0 198.8,170.1 200.0,170.2 201.1,170.3 202.3,170.4 203.5,170.5 204.7,170.7 205.9,170.8 207.1,170.9 208.3,171.1 209.5,171.2 210.6,171.4 211.8,171.5 213.0,171.7 214.2,171.9 215.4,172.1 216.6,172.3 217.8,172.5 218.9,172.7 220.1,172.9 221.3,173.2 222.5,173.4 223.7,173.7 224.9,174.0 226.1,174.3 227.3,174.6 228.4,174.9 229.6,175.3 230.8,175.6 232.0,176.0 233.2,176.4 234.4,176.8 235.6,177.3 236.7,177.8 237.9,178.3 239.1,178.8 240.3,179.4 241.5,180.0 242.7,180.6 243.9,181.3 245.1,182.1 246.2,182.8 247.4,183.7 248.6,184.5 249.8,185.5 251.0,186.5 252.2,187.6 253.4,188.7 254.5,189.9 255.7,191.1 256.9,192.5 258.1,193.8 259.3,195.4 260.5,196.9 261.7,198.6 262.9,200.2 264.0,201.8 265.2,203.3 266.4,204.7 267.6,206.0 268.8,207.3 270.0,208.6 271.2,209.8 272.3,211.0 273.5,212.1 274.7,213.2 275.9,214.2 277.1,215.3 278.3,216.2 279.5,217.2 280.7,218.1 281.8,219.0 283.0,219.8 284.2,220.4 285.4,220.9 286.6,221.2 287.8,221.2 289.0,221.0 290.1,220.5 291.3,219.9 292.5,219.2 293.7,218.4 294.9,217.7 296.1,217.1 297.3,216.7 298.5,216.5 299.6,216.5 300.8,216.8 302.0,217.3 303.2,217.9 304.4,218.6 305.6,219.3 306.8,220.0 307.9,220.5 309.1,220.8 310.3,220.8 311.5,220.7 312.7,220.4 313.9,219.9 315.1,219.2 316.3,218.6 317.4,218.0 318.6,217.5 319.8,217.1 321.0,216.9 322.2,216.9 323.4,217.1 324.6,217.5 325.7,218.0 326.9,218.6 328.1,219.2 329.3,219.8 330.5,220.2 331.7,220.5 332.9,220.5 334.1,220.4 335.2,220.1 336.4,219.6 337.6,219.1 338.8,218.5 340.0,218.0 341.2,217.5 342.4,217.2 343.5,217.1 344.7,217.2 345.9,217.4 347.1,217.8 348.3,218.3 349.5,218.8 350.7,219.3 351.9,219.8 353.0,220.1 354.2,220.2 355.4,220.2 356.6,220.0 357.8,219.7 359.0,219.3 360.2,218.8 361.3,218.4 362.5,218.0 363.7,217.7 364.9,217.5 366.1,217.4 367.3,217.6 368.5,217.8 369.7,218.2 370.8,218.6 372.0,219.0 373.2,219.4 374.4,219.7 375.6,219.9 376.8,220.0 378.0,219.9 379.1,219.7 380.3,219.4 381.5,219.0 382.7,218.6 383.9,218.2 385.1,217.9 386.3,217.7 387.5,217.6 388.6,217.7 389.8,217.8 391.0,218.1 392.2,218.5 393.4,218.8 394.6,219.2 395.8,219.5 396.9,219.7 398.1,219.8 399.3,219.7 400.5,219.6 401.7,219.3 402.9,219.0 404.1,218.7 405.3,218.4 406.4,218.1 407.6,217.9 408.8,217.8 410.0,217.8 411.2,217.9 412.4,218.1 413.6,218.4 414.7,218.7 415.9,219.0 417.1,219.2 418.3,219.4 419.5,219.5 420.7,219.5 421.9,219.5 423.1,219.3 424.2,219.1 425.4,218.8 426.6,218.5 427.8,218.3 429.0,218.1 430.2,218.0 431.4,217.9 432.5,218.0 433.7,218.1 434.9,218.3 436.1,218.5 437.3,218.8 438.5,219.0 439.7,219.2 440.9,219.3 442.0,219.4 443.2,219.3 444.4,219.3 445.6,219.1 446.8,218.9 448.0,218.7 449.2,218.5 450.3,218.3 451.5,218.2 452.7,218.1 453.9,218.0 455.1,218.1 456.3,218.1 457.5,218.3 458.7,218.4 459.8,218.6 461.0,218.8 462.2,218.9 463.4,219.1 464.6,219.1 465.8,219.2 467.0,219.1 468.1,219.1 469.3,219.0 470.5,218.8 471.7,218.6 472.9,218.5 474.1,218.3 475.3,218.2 476.5,218.1 477.6,218.0 478.8,217.9 480.0,217.9 481.2,218.0 482.4,218.0 483.6,218.1 484.8,218.2 485.9,218.3 487.1,218.3 488.3,218.4 489.5,218.4 490.7,218.4 491.9,218.3 493.1,218.2 494.3,218.1 495.4,217.9 496.6,217.8 497.8,217.6 499.0,217.4 500.2,217.1 501.4,216.8 502.6,216.4 503.7,216.0 504.9,215.6 506.1,215.1 507.3,214.5 508.5,213.9 509.7,213.3 510.9,212.6 512.1,211.9 513.2,211.1 514.4,210.2 515.6,209.3 516.8,208.4 518.0,207.4 519.2,206.3 520.4,205.1 521.5,204.0 522.7,202.7 523.9,201.4 525.1,200.0 526.3,198.5 527.5,196.9 528.7,195.3 529.9,193.6 531.0,191.8 532.2,189.9 533.4,187.9 534.6,185.9 535.8,183.7 537.0,181.5 538.2,179.3 539.3,177.1 540.5,175.1 541.7,173.4 542.9,171.8 544.1,170.4 545.3,168.9 546.5,167.4 547.7,165.7 548.8,163.9 550.0,161.9 551.2,159.9 552.4,157.7 553.6,155.4 554.8,153.1 556.0,150.6 557.1,148.1 558.3,145.6 559.5,143.1 560.7,140.8 561.9,138.7 563.1,136.7 564.3,134.7 565.5,132.6 566.6,130.3 567.8,127.8 569.0,125.2 570.2,122.4 571.4,119.3 572.6,116.1 573.8,112.7 574.9,109.0 576.1,105.2 577.3,101.2 578.5,97.0 579.7,92.5 580.9,87.7 582.1,82.7 583.3,77.4 584.4,71.8 585.6,70.2 586.8,70.2 588.0,70.2 589.2,70.2 590.4,70.2 591.6,70.2 592.7,70.2 593.9,70.2 595.1,70.2 596.3,70.2 597.5,70.2 598.7,72.8 599.9,88.6 601.1,107.3 602.2,128.6 603.4,151.8 604.6,176.1 605.8,200.4 607.0,223.6 608.2,244.3 609.4,261.7 610.5,264.7 611.7,264.7 612.9,264.7 614.1,264.7 615.3,264.7 616.5,264.7 617.7,264.7 618.9,264.7 620.0,264.1 621.2,251.9 622.4,237.9 623.6,222.5 624.8,206.4 626.0,190.2 627.2,174.6 628.3,160.4 629.5,147.8 630.7,137.2 631.9,128.7 633.1,122.3 634.3,118.2 635.5,116.4 636.7,116.7 637.8,119.1 639.0,123.3 640.2,128.9 641.4,135.8 642.6,143.7 643.8,152.4 645.0,161.6 646.1,171.0 647.3,180.3 648.5,189.0 649.7,196.8 650.9,203.2 652.1,208.2 653.3,211.8 654.5,214.3 655.6,215.7 656.8,216.2 658.0,216.1 659.2,215.4 660.4,214.5 661.6,213.4 662.8,212.3 663.9,211.5 665.1,211.0 666.3,210.8 667.5,210.9 668.7,211.3 669.9,212.0 671.1,212.9 672.3,214.0 673.4,215.2 674.6,216.6 675.8,218.2 677.0,219.7 678.2,221.3 679.4,223.0 680.6,224.5 681.7,226.1 682.9,227.6 684.1,229.0 685.3,230.3 686.5,231.5 687.7,232.5 688.9,233.5 690.1,234.4 691.2,235.1 692.4,235.7 693.6,236.2 694.8,236.5 696.0,236.7 697.2,236.8 698.4,236.8 699.5,236.7 700.7,236.5 701.9,236.2 703.1,235.8 704.3,235.3 705.5,234.7 706.7,234.2 707.9,233.5 709.0,232.9 710.2,232.2 711.4,231.6 712.6,230.9 713.8,230.2 715.0,229.6 716.2,229.0 717.3,228.5 718.5,227.9 719.7,227.5 720.9,227.1 722.1,226.7 723.3,226.5 724.5,226.3 725.7,226.0 726.8,225.6 728.0,224.9 729.2,223.7 730.4,222.0 731.6,219.8 732.8,217.2 734.0,214.2 735.1,211.0 736.3,207.8 737.5,204.6 738.7,201.5 739.9,198.6 741.1,196.0 742.3,193.7 743.5,191.5 744.6,189.5 745.8,187.5 747.0,185.5 748.2,183.5 749.4,181.5 750.6,179.5 751.8,177.5 752.9,175.5 754.1,173.5 755.3,171.4 756.5,169.4 757.7,167.4 758.9,165.3 760.1,163.2 761.3,161.1 762.4,159.0 763.6,156.9 764.8,154.7 766.0,152.5"/>
<line x1="606" y1="60" x2="628" y2="60" stroke="#24a148" stroke-width="2.2"/>
<text x="634" y="64" font-family="Arial" font-size="12">beta_deg</text>
</svg>