<svg xmlns="http://www.w3.org/2000/svg" width="820" height="320" viewBox="0 0 820 320">
<rect width="100%" height="100%" fill="#ffffff"/>
<text x="54" y="28" font-family="Arial" font-size="18" font-weight="700">Load Factor</text>
<line x1="54" y1="266" x2="766" y2="266" stroke="#1f2933"/>
<line x1="54" y1="54" x2="54" y2="266" stroke="#1f2933"/>
<text x="54" y="306" font-family="Arial" font-size="12">time (s)</text>
<text x="596" y="306" font-family="Arial" font-size="12">g</text>
<text x="58" y="68" font-family="Arial" font-size="11">6.05</text>
<text x="58" y="260" font-family="Arial" font-size="11">0.303</text>
<polyline fill="none" stroke="#0f62fe" stroke-width="2.2" points="54.0,211.4 55.2,210.3 56.4,209.3 57.6,208.1 58.7,207.0 59.9,205.9 61.1,204.7 62.3,203.5 63.5,202.3 64.7,201.2 65.9,200.0 67.1,198.8 68.2,197.6 69.4,196.4 70.6,196.0 71.8,196.1 73.0,196.1 74.2,196.1 75.4,196.2 76.5,196.2 77.7,196.2 78.9,196.3 80.1,196.3 81.3,196.3 82.5,196.3 83.7,196.4 84.9,196.4 86.0,196.4 87.2,196.4 88.4,196.5 89.6,196.5 90.8,196.5 92.0,196.5 93.2,196.6 94.3,196.6 95.5,196.6 96.7,196.6 97.9,196.6 99.1,196.7 100.3,196.7 101.5,196.7 102.7,196.7 103.8,196.7 105.0,196.8 106.2,196.8 107.4,196.8 108.6,196.8 109.8,196.8 111.0,196.8 112.1,196.8 113.3,196.9 114.5,196.9 115.7,196.9 116.9,196.9 118.1,196.9 119.3,196.9 120.5,196.9 121.6,197.0 122.8,197.0 124.0,197.0 125.2,197.0 126.4,197.0 127.6,197.0 128.8,197.0 129.9,197.0 131.1,197.0 132.3,197.0 133.5,197.0 134.7,197.1 135.9,197.1 137.1,197.1 138.3,197.1 139.4,197.1 140.6,197.1 141.8,197.1 143.0,197.1 144.2,197.1 145.4,197.1 146.6,197.1 147.7,197.1 148.9,197.1 150.1,197.1 151.3,197.1 152.5,197.1 153.7,197.1 154.9,197.1 156.1,197.1 157.2,197.1 158.4,197.0 159.6,197.0 160.8,197.0 162.0,197.0 163.2,196.9 164.4,196.9 165.5,196.9 166.7,196.8 167.9,196.8 169.1,196.8 170.3,196.7 171.5,196.7 172.7,196.7 173.9,196.6 175.0,196.6 176.2,196.6 177.4,196.5 178.6,196.5 179.8,196.5 181.0,196.4 182.2,196.4 183.3,196.3 184.5,196.3 185.7,196.3 186.9,196.2 188.1,196.2 189.3,196.1 190.5,196.1 191.7,196.1 192.8,196.0 194.0,196.0 195.2,196.0 196.4,195.9 197.6,195.9 198.8,195.9 200.0,195.7 201.1,196.0 202.3,195.4 203.5,196.5 204.7,194.1 205.9,198.1 207.1,193.7 208.3,196.6 209.5,192.8 210.6,198.1 211.8,196.3 213.0,196.1 214.2,196.6 215.4,195.0 216.6,198.1 217.8,192.4 218.9,195.6 220.1,192.4 221.3,197.8 222.5,192.9 223.7,197.3 224.9,191.3 226.1,195.9 227.3,190.2 228.4,196.0 229.6,190.9 230.8,196.9 232.0,191.4 233.2,196.9 234.4,190.8 235.6,196.2 236.7,189.8 237.9,195.8 239.1,189.5 240.3,195.9 241.5,189.6 242.7,196.0 243.9,189.3 245.1,195.7 246.2,188.7 247.4,195.3 248.6,188.2 249.8,195.0 251.0,187.8 252.2,194.9 253.4,187.4 254.5,194.5 255.7,186.8 256.9,194.0 258.1,186.2 259.3,193.4 260.5,185.1 261.7,191.8 262.9,181.8 264.0,189.0 265.2,180.7 266.4,186.7 267.6,174.4 268.8,181.0 270.0,169.8 271.2,178.5 272.3,171.2 273.5,175.9 274.7,159.9 275.9,165.1 277.1,153.5 278.3,164.5 279.5,159.6 280.7,159.1 281.8,154.0 283.0,162.1 284.2,147.2 285.4,152.5 286.6,141.8 287.8,155.1 289.0,149.3 290.1,159.8 291.3,146.9 292.5,152.1 293.7,150.7 294.9,160.2 296.1,146.6 297.3,155.0 298.5,144.1 299.6,157.7 300.8,148.2 302.0,162.5 303.2,153.9 304.4,156.4 305.6,141.1 306.8,151.0 307.9,144.3 309.1,152.7 310.3,136.2 311.5,143.2 312.7,133.6 313.9,150.0 315.1,143.3 316.3,157.2 317.4,145.8 318.6,155.1 319.8,139.4 321.0,149.7 322.2,135.9 323.4,148.7 324.6,136.7 325.7,151.1 326.9,140.1 328.1,151.2 329.3,136.0 330.5,147.0 331.7,131.5 332.9,143.1 334.1,127.7 335.2,140.0 336.4,124.7 337.6,137.1 338.8,124.7 340.0,140.2 341.2,127.9 342.4,143.4 343.5,130.9 344.7,146.1 345.9,133.7 347.1,147.6 348.3,134.7 349.5,143.2 350.7,123.8 351.9,133.0 353.0,113.8 354.2,123.2 355.4,112.5 356.6,130.0 357.8,118.5 359.0,135.8 360.2,124.1 361.3,140.0 362.5,127.0 363.7,140.2 364.9,124.5 366.1,137.3 367.3,120.9 368.5,133.9 369.7,117.4 370.8,130.5 372.0,114.7 373.2,128.0 374.4,112.1 375.6,125.8 376.8,109.6 378.0,123.6 379.1,107.6 380.3,121.9 381.5,106.1 382.7,120.7 383.9,104.8 385.1,119.5 386.3,103.6 387.5,118.3 388.6,102.4 389.8,117.1 391.0,102.3 392.2,115.2 393.4,97.9 394.6,110.0 395.8,91.2 396.9,103.8 398.1,87.9 399.3,98.4 400.5,85.7 401.7,95.2 402.9,85.5 404.1,97.0 405.3,87.3 406.4,99.5 407.6,89.5 408.8,101.0 410.0,89.7 411.2,97.6 412.4,84.7 413.6,93.5 414.7,80.9 415.9,89.9 417.1,77.8 418.3,87.2 419.5,74.7 420.7,84.4 421.9,72.0 423.1,81.7 424.2,73.9 425.4,84.0 426.6,72.5 427.8,83.2 429.0,73.4 430.2,84.7 431.4,74.8 432.5,80.3 433.7,72.4 434.9,77.7 436.1,68.2 437.3,74.2 438.5,64.1 439.7,70.1 440.9,61.3 442.0,66.2 443.2,60.3 444.4,63.5 445.6,60.8 446.8,62.4 448.0,61.8 449.2,62.2 450.3,62.4 451.5,62.2 452.7,62.0 453.9,61.4 455.1,60.4 456.3,59.2 457.5,57.6 458.7,55.9 459.8,54.6 461.0,54.3 462.2,54.1 463.4,54.0 464.6,54.1 465.8,54.3 467.0,55.4 468.1,58.1 469.3,60.7 470.5,63.3 471.7,66.0 472.9,68.7 474.1,71.4 475.3,74.2 476.5,77.1 477.6,80.0 478.8,83.1 480.0,86.3 481.2,89.6 482.4,93.0 483.6,96.5 484.8,100.1 485.9,103.7 487.1,107.3 488.3,110.9 489.5,114.4 490.7,117.8 491.9,118.0 493.1,117.3 494.3,116.6 495.4,115.9 496.6,115.2 497.8,114.5 499.0,114.0 500.2,113.6 501.4,113.2 502.6,112.9 503.7,112.6 504.9,112.4 506.1,112.3 507.3,112.2 508.5,112.1 509.7,112.1 510.9,112.2 512.1,112.3 513.2,112.4 514.4,112.6 515.6,112.8 516.8,113.1 518.0,113.4 519.2,113.7 520.4,114.1 521.5,114.5 522.7,114.9 523.9,115.4 525.1,115.8 526.3,116.3 527.5,116.9 528.7,117.4 529.9,118.0 531.0,118.6 532.2,119.3 533.4,119.9 534.6,120.5 535.8,121.1 537.0,121.7 538.2,122.2 539.3,122.4 540.5,123.1 541.7,124.3 542.9,126.0 544.1,128.1 545.3,130.3 546.5,132.5 547.7,134.5 548.8,136.4 550.0,138.2 551.2,139.9 552.4,141.6 553.6,143.4 554.8,145.2 556.0,146.8 557.1,148.6 558.3,150.4 559.5,152.1 560.7,153.8 561.9,155.1 563.1,155.0 564.3,154.3 565.5,153.8 566.6,153.7 567.8,153.8 569.0,194.2 570.2,195.3 571.4,196.4 572.6,197.2 573.8,197.9 574.9,198.5 576.1,199.0 577.3,199.5 578.5,199.9 579.7,200.2 580.9,200.4 582.1,200.4 583.3,200.4 584.4,200.3 585.6,200.8 586.8,201.6 588.0,202.4 589.2,203.2 590.4,204.0 591.6,204.8 592.7,205.6 593.9,205.7 595.1,205.8 596.3,206.0 597.5,206.3 598.7,207.3 599.9,210.2 601.1,213.0 602.2,216.1 603.4,218.7 604.6,217.6 605.8,211.7 607.0,212.7 608.2,230.9 609.4,239.1 610.5,228.3 611.7,212.6 612.9,212.7 614.1,216.1 615.3,218.0 616.5,219.2 617.7,219.9 618.9,220.0 620.0,219.5 621.2,220.3 622.4,220.6 623.6,222.6 624.8,242.7 626.0,264.9 627.2,263.9 628.3,244.7 629.5,232.7 630.7,224.5 631.9,219.1 633.1,217.7 634.3,219.0 635.5,220.1 636.7,221.8 637.8,223.3 639.0,224.5 640.2,225.5 641.4,226.2 642.6,226.6 643.8,226.7 645.0,226.1 646.1,224.6 647.3,225.4 648.5,234.9 649.7,243.5 650.9,255.3 652.1,262.2 653.3,263.8 654.5,263.2 655.6,263.4 656.8,264.8 658.0,266.0 659.2,264.4 660.4,259.4 661.6,252.4 662.8,245.1 663.9,240.3 665.1,235.5 666.3,230.9 667.5,227.4 668.7,226.0 669.9,227.0 671.1,227.9 672.3,228.7 673.4,229.3 674.6,229.9 675.8,230.4 677.0,230.8 678.2,231.3 679.4,231.7 680.6,232.1 681.7,232.6 682.9,233.0 684.1,233.5 685.3,233.9 686.5,234.2 687.7,234.5 688.9,234.3 690.1,234.1 691.2,234.0 692.4,233.9 693.6,233.9 694.8,233.9 696.0,233.9 697.2,233.9 698.4,233.9 699.5,234.0 700.7,234.1 701.9,234.1 703.1,234.2 704.3,234.4 705.5,234.5 706.7,234.6 707.9,234.7 709.0,234.9 710.2,235.0 711.4,235.1 712.6,235.3 713.8,235.4 715.0,235.6 716.2,235.7 717.3,235.8 718.5,236.0 719.7,236.1 720.9,236.2 722.1,236.3 723.3,236.5 724.5,236.6 725.7,236.7 726.8,236.8 728.0,237.0 729.2,237.1 730.4,237.3 731.6,237.6 732.8,237.8 734.0,238.0 735.1,238.2 736.3,238.2 737.5,238.2 738.7,238.3 739.9,238.5 741.1,238.7 742.3,238.9 743.5,239.0 744.6,239.1 745.8,239.2 747.0,239.2 748.2,239.3 749.4,239.4 750.6,239.5 751.8,239.6 752.9,239.7 754.1,239.8 755.3,239.9 756.5,240.0 757.7,240.1 758.9,240.2 760.1,240.3 761.3,240.4 762.4,240.5 763.6,240.6 764.8,240.7 766.0,240.7"/>
<line x1="606" y1="42" x2="628" y2="42" stroke="#0f62fe" stroke-width="2.2"/>
<text x="634" y="46" font-family="Arial" font-size="12">load_factor_g</text>
</svg>