<svg xmlns="http://www.w3.org/2000/svg" width="820" height="320" viewBox="0 0 820 320">
<rect width="100%" height="100%" fill="#ffffff"/>
<text x="54" y="28" font-family="Arial" font-size="18" font-weight="700">GPS Altitude vs Truth</text>
<line x1="54" y1="266" x2="766" y2="266" stroke="#1f2933"/>
<line x1="54" y1="54" x2="54" y2="266" stroke="#1f2933"/>
<text x="54" y="306" font-family="Arial" font-size="12">time (s)</text>
<text x="596" y="306" font-family="Arial" font-size="12">altitude (m)</text>
<text x="58" y="68" font-family="Arial" font-size="11">232</text>
<text x="58" y="260" font-family="Arial" font-size="11">19</text>
<polyline fill="none" stroke="#0f62fe" stroke-width="2.2" points="54.0,265.0 55.2,264.8 56.4,264.5 57.6,264.3 58.7,264.1 59.9,263.9 61.1,263.7 62.3,263.5 63.5,263.3 64.7,263.1 65.9,262.9 67.1,262.7 68.2,262.6 69.4,262.4 70.6,262.2 71.8,262.1 73.0,261.9 74.2,261.7 75.4,261.6 76.5,261.4 77.7,261.3 78.9,261.1 80.1,261.0 81.3,260.8 82.5,260.7 83.7,260.6 84.9,260.4 86.0,260.3 87.2,260.2 88.4,260.0 89.6,259.9 90.8,259.8 92.0,259.7 93.2,259.6 94.3,259.5 95.5,259.3 96.7,259.2 97.9,259.1 99.1,259.0 100.3,258.9 101.5,258.8 102.7,258.7 103.8,258.6 105.0,258.5 106.2,258.4 107.4,258.3 108.6,258.2 109.8,258.1 111.0,258.0 112.1,257.9 113.3,257.8 114.5,257.8 115.7,257.7 116.9,257.6 118.1,257.5 119.3,257.4 120.5,257.3 121.6,257.3 122.8,257.2 124.0,257.1 125.2,257.0 126.4,256.9 127.6,256.9 128.8,256.8 129.9,256.7 131.1,256.6 132.3,256.5 133.5,256.5 134.7,256.4 135.9,256.3 137.1,256.2 138.3,256.2 139.4,256.1 140.6,256.0 141.8,256.0 143.0,255.9 144.2,255.8 145.4,255.7 146.6,255.7 147.7,255.6 148.9,255.5 150.1,255.4 151.3,255.4 152.5,255.3 153.7,255.2 154.9,255.1 156.1,255.0 157.2,255.0 158.4,254.9 159.6,254.8 160.8,254.7 162.0,254.6 163.2,254.6 164.4,254.5 165.5,254.4 166.7,254.3 167.9,254.2 169.1,254.1 170.3,254.0 171.5,253.9 172.7,253.8 173.9,253.7 175.0,253.6 176.2,253.5 177.4,253.4 178.6,253.3 179.8,253.2 181.0,253.1 182.2,253.0 183.3,252.9 184.5,252.8 185.7,252.7 186.9,252.6 188.1,252.4 189.3,252.3 190.5,252.2 191.7,252.0 192.8,251.9 194.0,251.8 195.2,251.6 196.4,251.5 197.6,251.3 198.8,251.2 200.0,251.0 201.1,250.9 202.3,250.7 203.5,250.6 204.7,250.4 205.9,250.2 207.1,250.1 208.3,249.9 209.5,249.7 210.6,249.5 211.8,249.3 213.0,249.1 214.2,248.9 215.4,248.7 216.6,248.5 217.8,248.3 218.9,248.1 220.1,247.9 221.3,247.7 222.5,247.5 223.7,247.2 224.9,247.0 226.1,246.8 227.3,246.5 228.4,246.3 229.6,246.0 230.8,245.8 232.0,245.5 233.2,245.2 234.4,245.0 235.6,244.7 236.7,244.4 237.9,244.1 239.1,243.8 240.3,243.5 241.5,243.2 242.7,242.9 243.9,242.6 245.1,242.2 246.2,241.9 247.4,241.6 248.6,241.2 249.8,240.9 251.0,240.5 252.2,240.2 253.4,239.8 254.5,239.5 255.7,239.1 256.9,238.7 258.1,238.3 259.3,237.9 260.5,237.6 261.7,237.2 262.9,236.8 264.0,236.4 265.2,235.9 266.4,235.5 267.6,235.1 268.8,234.7 270.0,234.2 271.2,233.8 272.3,233.3 273.5,232.9 274.7,232.4 275.9,231.9 277.1,231.4 278.3,230.9 279.5,230.4 280.7,229.9 281.8,229.4 283.0,228.8 284.2,228.3 285.4,227.7 286.6,227.2 287.8,226.6 289.0,226.0 290.1,225.4 291.3,224.8 292.5,224.1 293.7,223.5 294.9,222.8 296.1,222.2 297.3,221.5 298.5,220.9 299.6,220.2 300.8,219.5 302.0,218.8 303.2,218.0 304.4,217.3 305.6,216.6 306.8,215.8 307.9,215.1 309.1,214.3 310.3,213.6 311.5,212.8 312.7,212.0 313.9,211.2 315.1,210.4 316.3,209.6 317.4,208.7 318.6,207.9 319.8,207.1 321.0,206.2 322.2,205.4 323.4,204.5 324.6,203.6 325.7,202.7 326.9,201.8 328.1,200.9 329.3,200.0 330.5,199.1 331.7,198.2 332.9,197.3 334.1,196.3 335.2,195.4 336.4,194.4 337.6,193.5 338.8,192.5 340.0,191.5 341.2,190.5 342.4,189.5 343.5,188.5 344.7,187.5 345.9,186.5 347.1,185.5 348.3,184.5 349.5,183.4 350.7,182.4 351.9,181.4 353.0,180.3 354.2,179.3 355.4,178.2 356.6,177.1 357.8,176.0 359.0,175.0 360.2,173.9 361.3,172.8 362.5,171.7 363.7,170.6 364.9,169.5 366.1,168.4 367.3,167.3 368.5,166.2 369.7,165.0 370.8,163.9 372.0,162.8 373.2,161.7 374.4,160.5 375.6,159.4 376.8,158.2 378.0,157.1 379.1,156.0 380.3,154.8 381.5,153.6 382.7,152.5 383.9,151.3 385.1,150.2 386.3,149.0 387.5,147.8 388.6,146.7 389.8,145.5 391.0,144.3 392.2,143.2 393.4,142.0 394.6,140.8 395.8,139.6 396.9,138.4 398.1,137.3 399.3,136.1 400.5,134.9 401.7,133.7 402.9,132.5 404.1,131.3 405.3,130.2 406.4,129.0 407.6,127.8 408.8,126.6 410.0,125.4 411.2,124.2 412.4,123.0 413.6,121.9 414.7,120.7 415.9,119.5 417.1,118.3 418.3,117.1 419.5,116.0 420.7,114.8 421.9,113.6 423.1,112.5 424.2,111.3 425.4,110.2 426.6,109.0 427.8,107.9 429.0,106.7 430.2,105.6 431.4,104.4 432.5,103.3 433.7,102.2 434.9,101.1 436.1,100.0 437.3,98.9 438.5,97.8 439.7,96.7 440.9,95.6 442.0,94.6 443.2,93.5 444.4,92.4 445.6,91.4 446.8,90.4 448.0,89.3 449.2,88.3 450.3,87.3 451.5,86.3 452.7,85.3 453.9,84.4 455.1,83.4 456.3,82.4 457.5,81.5 458.7,80.6 459.8,79.6 461.0,78.7 462.2,77.8 463.4,77.0 464.6,76.1 465.8,75.2 467.0,74.4 468.1,73.6 469.3,72.8 470.5,72.0 471.7,71.2 472.9,70.4 474.1,69.7 475.3,69.0 476.5,68.2 477.6,67.5 478.8,66.9 480.0,66.2 481.2,65.5 482.4,64.9 483.6,64.3 484.8,63.7 485.9,63.1 487.1,62.5 488.3,62.0 489.5,61.5 490.7,61.0 491.9,60.5 493.1,60.0 494.3,59.5 495.4,59.1 496.6,58.7 497.8,58.3 499.0,57.9 500.2,57.5 501.4,57.2 502.6,56.9 503.7,56.5 504.9,56.3 506.1,56.0 507.3,55.7 508.5,55.5 509.7,55.3 510.9,55.1 512.1,54.9 513.2,54.7 514.4,54.6 515.6,54.4 516.8,54.3 518.0,54.2 519.2,54.1 520.4,54.1 521.5,54.0 522.7,54.0 523.9,54.0 525.1,54.0 526.3,54.0 527.5,54.1 528.7,54.1 529.9,54.2 531.0,54.3 532.2,54.4 533.4,54.5 534.6,54.6 535.8,54.8 537.0,55.0 538.2,55.1 539.3,55.3 540.5,55.6 541.7,55.8 542.9,56.0 544.1,56.3 545.3,56.6 546.5,56.9 547.7,57.2 548.8,57.5 550.0,57.8 551.2,58.2 552.4,58.5 553.6,58.9 554.8,59.3 556.0,59.7 557.1,60.1 558.3,60.5 559.5,60.9 560.7,61.3 561.9,61.8 563.1,62.2 564.3,62.7 565.5,63.2 566.6,63.7 567.8,64.2 569.0,64.7 570.2,65.2 571.4,65.7 572.6,66.3 573.8,66.8 574.9,67.3 576.1,67.9 577.3,68.4 578.5,69.0 579.7,69.6 580.9,70.1 582.1,70.7 583.3,71.3 584.4,71.9 585.6,72.4 586.8,73.0 588.0,73.6 589.2,74.2 590.4,74.8 591.6,75.4 592.7,76.0 593.9,76.6 595.1,77.3 596.3,77.9 597.5,78.5 598.7,79.2 599.9,79.8 601.1,80.5 602.2,81.1 603.4,81.8 604.6,82.4 605.8,83.1 607.0,83.8 608.2,84.5 609.4,85.1 610.5,85.8 611.7,86.5 612.9,87.2 614.1,87.8 615.3,88.5 616.5,89.2 617.7,89.9 618.9,90.6 620.0,91.3 621.2,91.9 622.4,92.6 623.6,93.3 624.8,94.0 626.0,94.7 627.2,95.5 628.3,96.2 629.5,96.9 630.7,97.7 631.9,98.4 633.1,99.2 634.3,100.0 635.5,100.8 636.7,101.6 637.8,102.4 639.0,103.2 640.2,104.0 641.4,104.9 642.6,105.7 643.8,106.6 645.0,107.4 646.1,108.3 647.3,109.2 648.5,110.1 649.7,110.9 650.9,111.8 652.1,112.7 653.3,113.6 654.5,114.5 655.6,115.4 656.8,116.4 658.0,117.3 659.2,118.2 660.4,119.1 661.6,120.1 662.8,121.0 663.9,122.0 665.1,123.0 666.3,123.9 667.5,124.9 668.7,125.9 669.9,126.9 671.1,127.9 672.3,128.9 673.4,130.0 674.6,131.0 675.8,132.0 677.0,133.1 678.2,134.1 679.4,135.2 680.6,136.2 681.7,137.3 682.9,138.4 684.1,139.5 685.3,140.5 686.5,141.6 687.7,142.7 688.9,143.8 690.1,145.0 691.2,146.1 692.4,147.2 693.6,148.3 694.8,149.5 696.0,150.6 697.2,151.8 698.4,152.9 699.5,154.1 700.7,155.2 701.9,156.4 703.1,157.6 704.3,158.7 705.5,159.9 706.7,161.1 707.9,162.3 709.0,163.5 710.2,164.7 711.4,165.9 712.6,167.2 713.8,168.4 715.0,169.6 716.2,170.9 717.3,172.1 718.5,173.3 719.7,174.6 720.9,175.9 722.1,177.1 723.3,178.4 724.5,179.7 725.7,180.9 726.8,182.2 728.0,183.5 729.2,184.8 730.4,186.1 731.6,187.4 732.8,188.7 734.0,190.0 735.1,191.3 736.3,192.6 737.5,193.9 738.7,195.3 739.9,196.6 741.1,197.9 742.3,199.2 743.5,200.6 744.6,201.9 745.8,203.3 747.0,204.6 748.2,206.0 749.4,207.3 750.6,208.7 751.8,210.0 752.9,211.4 754.1,212.7 755.3,214.1 756.5,215.5 757.7,216.9 758.9,218.2 760.1,219.6 761.3,221.0 762.4,222.4 763.6,223.8 764.8,225.2 766.0,226.6"/>
<line x1="606" y1="42" x2="628" y2="42" stroke="#0f62fe" stroke-width="2.2"/>
<text x="634" y="46" font-family="Arial" font-size="12">altitude_m</text>
<polyline fill="none" stroke="#24a148" stroke-width="2.2" points="54.0,266.0 55.2,266.0 56.4,266.0 57.6,266.0 58.7,266.0 59.9,266.0 61.1,266.0 62.3,262.1 63.5,262.1 64.7,262.1 65.9,262.1 67.1,262.1 68.2,262.1 69.4,262.1 70.6,261.8 71.8,261.8 73.0,261.8 74.2,261.8 75.4,261.8 76.5,261.8 77.7,261.8 78.9,261.5 80.1,261.5 81.3,261.5 82.5,261.5 83.7,261.5 84.9,261.5 86.0,261.5 87.2,263.1 88.4,263.1 89.6,263.1 90.8,263.1 92.0,263.1 93.2,263.1 94.3,263.1 95.5,259.7 96.7,259.7 97.9,259.7 99.1,259.7 100.3,259.7 101.5,259.7 102.7,259.7 103.8,257.7 105.0,257.7 106.2,257.7 107.4,257.7 108.6,257.7 109.8,257.7 111.0,257.7 112.1,258.3 113.3,258.3 114.5,258.3 115.7,258.3 116.9,258.3 118.1,258.3 119.3,258.3 120.5,260.3 121.6,260.3 122.8,260.3 124.0,260.3 125.2,260.3 126.4,260.3 127.6,260.3 128.8,257.5 129.9,257.5 131.1,257.5 132.3,257.5 133.5,257.5 134.7,257.5 135.9,257.5 137.1,256.9 138.3,256.9 139.4,256.9 140.6,256.9 141.8,256.9 143.0,256.9 144.2,256.9 145.4,254.3 146.6,254.3 147.7,254.3 148.9,254.3 150.1,254.3 151.3,254.3 152.5,254.3 153.7,252.7 154.9,252.7 156.1,252.7 157.2,252.7 158.4,252.7 159.6,252.7 160.8,252.7 162.0,253.4 163.2,253.4 164.4,253.4 165.5,253.4 166.7,253.4 167.9,253.4 169.1,253.4 170.3,255.8 171.5,255.8 172.7,255.8 173.9,255.8 175.0,255.8 176.2,255.8 177.4,255.8 178.6,252.7 179.8,252.7 181.0,252.7 182.2,252.7 183.3,252.7 184.5,252.7 185.7,252.7 186.9,253.5 188.1,253.5 189.3,253.5 190.5,253.5 191.7,253.5 192.8,253.5 194.0,253.5 195.2,251.7 196.4,251.7 197.6,251.7 198.8,251.7 200.0,251.7 201.1,251.7 202.3,251.7 203.5,250.5 204.7,250.5 205.9,250.5 207.1,250.5 208.3,250.5 209.5,250.5 210.6,250.5 211.8,249.7 213.0,249.7 214.2,249.7 215.4,249.7 216.6,249.7 217.8,249.7 218.9,249.7 220.1,247.7 221.3,247.7 222.5,247.7 223.7,247.7 224.9,247.7 226.1,247.7 227.3,247.7 228.4,246.7 229.6,246.7 230.8,246.7 232.0,246.7 233.2,246.7 234.4,246.7 235.6,246.7 236.7,244.1 237.9,244.1 239.1,244.1 240.3,244.1 241.5,244.1 242.7,244.1 243.9,244.1 245.1,243.8 246.2,243.8 247.4,243.8 248.6,243.8 249.8,243.8 251.0,243.8 252.2,243.8 253.4,240.0 254.5,240.0 255.7,240.0 256.9,240.0 258.1,240.0 259.3,240.0 260.5,240.0 261.7,237.6 262.9,237.6 264.0,237.6 265.2,237.6 266.4,237.6 267.6,237.6 268.8,237.6 270.0,234.3 271.2,234.3 272.3,234.3 273.5,234.3 274.7,234.3 275.9,234.3 277.1,234.3 278.3,231.9 279.5,231.9 280.7,231.9 281.8,231.9 283.0,231.9 284.2,231.9 285.4,231.9 286.6,227.9 287.8,227.9 289.0,227.9 290.1,227.9 291.3,227.9 292.5,227.9 293.7,227.9 294.9,220.9 296.1,220.9 297.3,220.9 298.5,220.9 299.6,220.9 300.8,220.9 302.0,220.9 303.2,218.4 304.4,218.4 305.6,218.4 306.8,218.4 307.9,218.4 309.1,218.4 310.3,218.4 311.5,212.8 312.7,212.8 313.9,212.8 315.1,212.8 316.3,212.8 317.4,212.8 318.6,212.8 319.8,207.8 321.0,207.8 322.2,207.8 323.4,207.8 324.6,207.8 325.7,207.8 326.9,207.8 328.1,200.9 329.3,200.9 330.5,200.9 331.7,200.9 332.9,200.9 334.1,200.9 335.2,200.9 336.4,194.5 337.6,194.5 338.8,194.5 340.0,194.5 341.2,194.5 342.4,194.5 343.5,194.5 344.7,187.0 345.9,187.0 347.1,187.0 348.3,187.0 349.5,187.0 350.7,187.0 351.9,187.0 353.0,180.2 354.2,180.2 355.4,180.2 356.6,180.2 357.8,180.2 359.0,180.2 360.2,180.2 361.3,170.6 362.5,170.6 363.7,170.6 364.9,170.6 366.1,170.6 367.3,170.6 368.5,170.6 369.7,163.3 370.8,163.3 372.0,163.3 373.2,163.3 374.4,163.3 375.6,163.3 376.8,163.3 378.0,157.1 379.1,157.1 380.3,157.1 381.5,157.1 382.7,157.1 383.9,157.1 385.1,157.1 386.3,149.1 387.5,149.1 388.6,149.1 389.8,149.1 391.0,149.1 392.2,149.1 393.4,149.1 394.6,142.2 395.8,142.2 396.9,142.2 398.1,142.2 399.3,142.2 400.5,142.2 401.7,142.2 402.9,133.2 404.1,133.2 405.3,133.2 406.4,133.2 407.6,133.2 408.8,133.2 410.0,133.2 411.2,123.0 412.4,123.0 413.6,123.0 414.7,123.0 415.9,123.0 417.1,123.0 418.3,123.0 419.5,113.3 420.7,113.3 421.9,113.3 423.1,113.3 424.2,113.3 425.4,113.3 426.6,113.3 427.8,107.0 429.0,107.0 430.2,107.0 431.4,107.0 432.5,107.0 433.7,107.0 434.9,107.0 436.1,99.8 437.3,99.8 438.5,99.8 439.7,99.8 440.9,99.8 442.0,99.8 443.2,99.8 444.4,91.1 445.6,91.1 446.8,91.1 448.0,91.1 449.2,91.1 450.3,91.1 451.5,91.1 452.7,86.0 453.9,86.0 455.1,86.0 456.3,86.0 457.5,86.0 458.7,86.0 459.8,86.0 461.0,77.0 462.2,77.0 463.4,77.0 464.6,77.0 465.8,77.0 467.0,77.0 468.1,77.0 469.3,73.4 470.5,73.4 471.7,73.4 472.9,73.4 474.1,73.4 475.3,73.4 476.5,73.4 477.6,67.0 478.8,67.0 480.0,67.0 481.2,67.0 482.4,67.0 483.6,67.0 484.8,67.0 485.9,62.9 487.1,62.9 488.3,62.9 489.5,62.9 490.7,62.9 491.9,62.9 493.1,62.9 494.3,58.4 495.4,58.4 496.6,58.4 497.8,58.4 499.0,58.4 500.2,58.4 501.4,58.4 502.6,57.0 503.7,57.0 504.9,57.0 506.1,57.0 507.3,57.0 508.5,57.0 509.7,57.0 510.9,54.0 512.1,54.0 513.2,54.0 514.4,54.0 515.6,54.0 516.8,54.0 518.0,54.0 519.2,55.2 520.4,55.2 521.5,55.2 522.7,55.2 523.9,55.2 525.1,55.2 526.3,55.2 527.5,54.3 528.7,54.3 529.9,54.3 531.0,54.3 532.2,54.3 533.4,54.3 534.6,54.3 535.8,55.7 537.0,55.7 538.2,55.7 539.3,55.7 540.5,55.7 541.7,55.7 542.9,55.7 544.1,58.9 545.3,58.9 546.5,58.9 547.7,58.9 548.8,58.9 550.0,58.9 551.2,58.9 552.4,58.9 553.6,58.9 554.8,58.9 556.0,58.9 557.1,58.9 558.3,58.9 559.5,58.9 560.7,61.5 561.9,61.5 563.1,61.5 564.3,61.5 565.5,61.5 566.6,61.5 567.8,61.5 569.0,67.9 570.2,67.9 571.4,67.9 572.6,67.9 573.8,67.9 574.9,67.9 576.1,67.9 577.3,68.2 578.5,68.2 579.7,68.2 580.9,68.2 582.1,68.2 583.3,68.2 584.4,68.2 585.6,72.4 586.8,72.4 588.0,72.4 589.2,72.4 590.4,72.4 591.6,72.4 592.7,72.4 593.9,76.7 595.1,76.7 596.3,76.7 597.5,76.7 598.7,76.7 599.9,76.7 601.1,76.7 602.2,80.7 603.4,80.7 604.6,80.7 605.8,80.7 607.0,80.7 608.2,80.7 609.4,80.7 610.5,84.9 611.7,84.9 612.9,84.9 614.1,84.9 615.3,84.9 616.5,84.9 617.7,84.9 618.9,90.7 620.0,90.7 621.2,90.7 622.4,90.7 623.6,90.7 624.8,90.7 626.0,90.7 627.2,97.4 628.3,97.4 629.5,97.4 630.7,97.4 631.9,97.4 633.1,97.4 634.3,97.4 635.5,101.6 636.7,101.6 637.8,101.6 639.0,101.6 640.2,101.6 641.4,101.6 642.6,101.6 643.8,108.5 645.0,108.5 646.1,108.5 647.3,108.5 648.5,108.5 649.7,108.5 650.9,108.5 652.1,111.6 653.3,111.6 654.5,111.6 655.6,111.6 656.8,111.6 658.0,111.6 659.2,111.6 660.4,118.1 661.6,118.1 662.8,118.1 663.9,118.1 665.1,118.1 666.3,118.1 667.5,118.1 668.7,124.8 669.9,124.8 671.1,124.8 672.3,124.8 673.4,124.8 674.6,124.8 675.8,124.8 677.0,133.6 678.2,133.6 679.4,133.6 680.6,133.6 681.7,133.6 682.9,133.6 684.1,133.6 685.3,138.9 686.5,138.9 687.7,138.9 688.9,138.9 690.1,138.9 691.2,138.9 692.4,138.9 693.6,146.8 694.8,146.8 696.0,146.8 697.2,146.8 698.4,146.8 699.5,146.8 700.7,146.8 701.9,154.9 703.1,154.9 704.3,154.9 705.5,154.9 706.7,154.9 707.9,154.9 709.0,154.9 710.2,163.2 711.4,163.2 712.6,163.2 713.8,163.2 715.0,163.2 716.2,163.2 717.3,163.2 718.5,173.7 719.7,173.7 720.9,173.7 722.1,173.7 723.3,173.7 724.5,173.7 725.7,173.7 726.8,182.3 728.0,182.3 729.2,182.3 730.4,182.3 731.6,182.3 732.8,182.3 734.0,182.3 735.1,191.6 736.3,191.6 737.5,191.6 738.7,191.6 739.9,191.6 741.1,191.6 742.3,191.6 743.5,200.3 744.6,200.3 745.8,200.3 747.0,200.3 748.2,200.3 749.4,200.3 750.6,200.3 751.8,208.5 752.9,208.5 754.1,208.5 755.3,208.5 756.5,208.5 757.7,208.5 758.9,208.5 760.1,219.8 761.3,219.8 762.4,219.8 763.6,219.8 764.8,219.8 766.0,219.8"/>
<line x1="606" y1="60" x2="628" y2="60" stroke="#24a148" stroke-width="2.2"/>
<text x="634" y="64" font-family="Arial" font-size="12">gps_z_m</text>
</svg>