<svg xmlns="http://www.w3.org/2000/svg" width="820" height="320" viewBox="0 0 820 320">
<rect width="100%" height="100%" fill="#ffffff"/>
<text x="54" y="28" font-family="Arial" font-size="18" font-weight="700">Qbar/Load Envelope</text>
<line x1="54" y1="266" x2="766" y2="266" stroke="#1f2933"/>
<line x1="54" y1="54" x2="54" y2="266" stroke="#1f2933"/>
<text x="54" y="306" font-family="Arial" font-size="12">qbar (Pa)</text>
<text x="596" y="306" font-family="Arial" font-size="12">load factor (g)</text>
<text x="58" y="68" font-family="Arial" font-size="11">6.05</text>
<text x="58" y="260" font-family="Arial" font-size="11">0.303</text>
<polyline fill="none" stroke="#0f62fe" stroke-width="2.2" points="102.3,211.4 104.1,210.3 106.0,209.3 107.9,208.1 109.8,207.0 111.8,205.9 113.8,204.7 115.9,203.5 118.0,202.3 120.2,201.2 122.4,200.0 124.6,198.8 126.9,197.6 129.3,196.4 131.7,196.0 134.1,196.1 136.6,196.1 139.1,196.1 141.5,196.2 144.0,196.2 146.5,196.2 149.0,196.3 151.6,196.3 154.1,196.3 156.7,196.3 159.2,196.4 161.8,196.4 164.4,196.4 167.0,196.4 169.6,196.5 172.2,196.5 174.9,196.5 177.5,196.5 180.2,196.6 182.8,196.6 185.5,196.6 188.2,196.6 190.9,196.6 193.7,196.7 196.4,196.7 199.1,196.7 201.9,196.7 204.7,196.7 207.4,196.8 210.2,196.8 213.0,196.8 215.8,196.8 218.7,196.8 221.5,196.8 224.3,196.8 227.2,196.9 230.1,196.9 232.9,196.9 235.8,196.9 238.7,196.9 241.6,196.9 244.6,196.9 247.5,197.0 250.4,197.0 253.4,197.0 256.3,197.0 259.3,197.0 262.3,197.0 265.3,197.0 268.3,197.0 271.3,197.0 274.3,197.0 277.3,197.0 280.4,197.1 283.4,197.1 286.5,197.1 289.6,197.1 292.6,197.1 295.7,197.1 298.8,197.1 301.9,197.1 305.0,197.1 308.1,197.1 311.3,197.1 314.4,197.1 317.5,197.1 320.7,197.1 323.8,197.1 327.0,197.1 330.2,197.1 333.4,197.1 336.6,197.1 339.8,197.1 343.0,197.0 346.2,197.0 349.4,197.0 352.6,197.0 355.8,196.9 359.0,196.9 362.3,196.9 365.5,196.8 368.8,196.8 372.0,196.8 375.3,196.7 378.5,196.7 381.8,196.7 385.1,196.6 388.3,196.6 391.6,196.6 394.9,196.5 398.2,196.5 401.5,196.5 404.8,196.4 408.1,196.4 411.4,196.3 414.7,196.3 418.0,196.3 421.3,196.2 424.6,196.2 427.9,196.1 431.3,196.1 434.6,196.1 437.9,196.0 441.3,196.0 444.6,196.0 447.9,195.9 451.3,195.9 454.6,195.9 458.0,195.7 461.3,196.0 464.7,195.4 468.0,196.5 471.4,194.1 474.7,198.1 478.2,193.7 481.5,196.6 484.9,192.8 488.2,198.1 491.6,196.3 495.0,196.1 498.4,196.6 501.9,195.0 505.2,198.1 508.7,192.4 512.0,195.6 515.4,192.4 518.7,197.8 522.1,192.9 525.5,197.3 528.9,191.3 532.2,195.9 535.6,190.2 538.8,196.0 542.2,190.9 545.5,196.9 548.9,191.4 552.2,196.9 555.6,190.8 558.9,196.2 562.3,189.8 565.6,195.8 569.0,189.5 572.2,195.9 575.6,189.6 578.8,196.0 582.2,189.3 585.4,195.7 588.8,188.7 592.0,195.3 595.4,188.2 598.6,195.0 601.9,187.8 605.1,194.9 608.4,187.4 611.5,194.5 614.8,186.8 617.9,194.0 621.2,186.2 624.3,193.4 627.5,185.1 630.5,191.8 633.6,181.8 636.5,189.0 639.5,180.7 642.3,186.7 645.2,174.4 647.8,181.0 650.5,169.8 652.9,178.5 655.5,171.2 657.9,175.9 660.3,159.9 662.4,165.1 664.5,153.5 666.3,164.5 668.3,159.6 670.3,159.1 672.1,154.0 673.9,162.1 675.7,147.2 677.2,152.5 678.8,141.8 680.1,155.1 681.7,149.3 683.3,159.8 685.0,146.9 686.5,152.1 688.1,150.7 689.7,160.2 691.5,146.6 693.0,155.0 694.7,144.1 696.2,157.7 697.9,148.2 699.5,162.5 701.4,153.9 703.1,156.4 704.7,141.1 706.0,151.0 707.5,144.3 708.8,152.7 710.3,136.2 711.4,143.2 712.6,133.6 713.6,150.0 715.0,143.3 716.3,157.2 717.9,145.8 719.4,155.1 720.9,139.4 722.2,149.7 723.7,135.9 724.8,148.7 726.2,136.7 727.4,151.1 728.8,140.1 730.0,151.2 731.4,136.0 732.5,147.0 733.7,131.5 734.6,143.1 735.7,127.7 736.5,140.0 737.5,124.7 738.3,137.1 739.2,124.7 740.0,140.2 741.1,127.9 741.9,143.4 743.1,130.9 744.0,146.1 745.3,133.7 746.3,147.6 747.6,134.7 748.6,143.2 749.7,123.8 750.3,133.0 751.1,113.8 751.4,123.2 751.9,112.5 752.2,130.0 752.9,118.5 753.3,135.8 754.2,124.1 754.8,140.0 755.8,127.0 756.6,140.2 757.6,124.5 758.3,137.3 759.3,120.9 759.8,133.9 760.7,117.4 761.1,130.5 761.9,114.7 762.2,128.0 762.8,112.1 763.0,125.8 763.5,109.6 763.7,123.6 764.1,107.6 764.2,121.9 764.6,106.1 764.6,120.7 765.0,104.8 765.0,119.5 765.4,103.6 765.4,118.3 765.7,102.4 765.7,117.1 765.9,102.3 765.8,115.2 766.0,97.9 765.7,110.0 765.7,91.2 765.2,103.8 765.0,87.9 764.2,98.4 763.8,85.7 762.9,95.2 762.3,85.5 761.3,97.0 760.9,87.3 760.1,99.5 759.7,89.5 759.0,101.0 758.7,89.7 757.9,97.6 757.5,84.7 756.3,93.5 755.4,80.9 753.9,89.9 752.7,77.8 750.8,87.2 749.2,74.7 747.1,84.4 745.3,72.0 742.8,81.7 740.8,73.9 738.4,84.0 736.5,72.5 734.0,83.2 732.0,73.4 729.5,84.7 727.5,74.8 725.0,80.3 722.7,72.4 720.0,77.7 717.4,68.2 714.3,74.2 711.3,64.1 707.8,70.1 704.5,61.3 700.7,66.2 697.0,60.3 693.1,63.5 689.2,60.8 685.2,62.4 681.2,61.8 677.2,62.2 673.2,62.4 669.1,62.2 665.0,62.0 660.9,61.4 656.7,60.4 652.4,59.2 648.0,57.6 643.5,55.9 638.7,54.6 633.9,54.3 628.9,54.1 623.8,54.0 618.5,54.1 613.2,54.3 607.8,55.4 602.4,58.1 597.1,60.7 591.8,63.3 586.6,66.0 581.5,68.7 576.4,71.4 571.4,74.2 566.5,77.1 561.6,80.0 556.8,83.1 552.0,86.3 547.2,89.6 542.4,93.0 537.7,96.5 532.9,100.1 528.1,103.7 523.3,107.3 518.5,110.9 513.6,114.4 508.7,117.8 503.8,118.0 498.9,117.3 493.8,116.6 488.7,115.9 483.5,115.2 478.3,114.5 473.0,114.0 467.6,113.6 462.1,113.2 456.6,112.9 451.1,112.6 445.5,112.4 439.9,112.3 434.2,112.2 428.5,112.1 422.8,112.1 417.0,112.2 411.3,112.3 405.5,112.4 399.7,112.6 393.9,112.8 388.0,113.1 382.2,113.4 376.4,113.7 370.6,114.1 364.7,114.5 358.9,114.9 353.1,115.4 347.3,115.8 341.6,116.3 335.8,116.9 330.1,117.4 324.3,118.0 318.6,118.6 313.0,119.3 307.3,119.9 301.7,120.5 296.1,121.1 290.6,121.7 285.1,122.2 279.6,122.4 274.1,123.1 268.7,124.3 263.4,126.0 258.2,128.1 253.2,130.3 248.3,132.5 243.7,134.5 239.3,136.4 235.0,138.2 230.9,139.9 227.0,141.6 223.2,143.4 219.6,145.2 216.2,146.8 212.9,148.6 209.8,150.4 206.8,152.1 204.1,153.8 201.4,155.1 198.9,155.0 196.3,154.3 193.7,153.8 191.0,153.7 188.3,153.8 185.6,194.2 182.9,195.3 180.3,196.4 177.7,197.2 175.1,197.9 172.6,198.5 170.1,199.0 167.7,199.5 165.3,199.9 162.9,200.2 160.5,200.4 158.2,200.4 155.9,200.4 153.6,200.3 151.3,200.8 149.1,201.6 146.9,202.4 144.7,203.2 142.6,204.0 140.5,204.8 138.4,205.6 136.4,205.7 134.4,205.8 132.5,206.0 130.5,206.3 128.6,207.3 126.8,210.2 125.1,213.0 123.5,216.1 122.1,218.7 120.8,217.6 119.6,211.7 118.5,212.7 117.5,230.9 117.0,239.1 116.7,228.3 116.0,212.6 115.0,212.7 113.9,216.1 112.7,218.0 111.6,219.2 110.4,219.9 109.3,220.0 108.3,219.5 107.3,220.3 106.4,220.6 105.6,222.6 105.1,242.7 104.9,264.9 105.0,263.9 105.2,244.7 105.1,232.7 104.7,224.5 104.1,219.1 103.4,217.7 102.5,219.0 101.6,220.1 100.7,221.8 99.8,223.3 99.0,224.5 98.1,225.5 97.3,226.2 96.4,226.6 95.6,226.7 94.9,226.1 94.2,224.6 93.5,225.4 93.0,234.9 92.7,243.5 92.6,255.3 92.7,262.2 92.9,263.8 93.1,263.2 93.2,263.4 93.4,264.8 93.6,266.0 93.8,264.4 94.0,259.4 94.1,252.4 94.2,245.1 94.2,240.3 94.0,235.5 93.8,230.9 93.4,227.4 92.9,226.0 92.3,227.0 91.8,227.9 91.2,228.7 90.6,229.3 90.1,229.9 89.5,230.4 89.0,230.8 88.4,231.3 87.8,231.7 87.3,232.1 86.7,232.6 86.2,233.0 85.6,233.5 85.1,233.9 84.5,234.2 83.9,234.5 83.4,234.3 82.8,234.1 82.2,234.0 81.6,233.9 81.1,233.9 80.5,233.9 79.9,233.9 79.3,233.9 78.7,233.9 78.1,234.0 77.6,234.1 77.0,234.1 76.4,234.2 75.8,234.4 75.3,234.5 74.7,234.6 74.1,234.7 73.6,234.9 73.0,235.0 72.5,235.1 72.0,235.3 71.4,235.4 70.9,235.6 70.4,235.7 69.9,235.8 69.4,236.0 68.9,236.1 68.4,236.2 67.9,236.3 67.4,236.5 66.9,236.6 66.5,236.7 66.0,236.8 65.6,237.0 65.1,237.1 64.7,237.3 64.2,237.6 63.8,237.8 63.4,238.0 62.9,238.2 62.5,238.2 62.1,238.2 61.7,238.3 61.3,238.5 60.9,238.7 60.6,238.9 60.2,239.0 59.8,239.1 59.5,239.2 59.1,239.2 58.8,239.3 58.4,239.4 58.1,239.5 57.7,239.6 57.4,239.7 57.0,239.8 56.7,239.9 56.4,240.0 56.1,240.1 55.8,240.2 55.5,240.3 55.2,240.4 54.9,240.5 54.6,240.6 54.3,240.7 54.0,240.7"/>
<line x1="606" y1="42" x2="628" y2="42" stroke="#0f62fe" stroke-width="2.2"/>
<text x="634" y="46" font-family="Arial" font-size="12">load_factor_g</text>
</svg>