<svg xmlns="http://www.w3.org/2000/svg" width="820" height="320" viewBox="0 0 820 320">
<rect width="100%" height="100%" fill="#ffffff"/>
<text x="54" y="28" font-family="Arial" font-size="18" font-weight="700">Downrange/Crossrange</text>
<line x1="54" y1="266" x2="766" y2="266" stroke="#1f2933"/>
<line x1="54" y1="54" x2="54" y2="266" stroke="#1f2933"/>
<text x="54" y="306" font-family="Arial" font-size="12">downrange (m)</text>
<text x="596" y="306" font-family="Arial" font-size="12">crossrange (m)</text>
<text x="58" y="68" font-family="Arial" font-size="11">0</text>
<text x="58" y="260" font-family="Arial" font-size="11">-1.12e+03</text>
<polyline fill="none" stroke="#0f62fe" stroke-width="2.2" points="54.0,54.0 55.7,54.0 57.5,54.0 59.2,54.0 61.0,54.0 62.8,54.0 64.5,54.0 66.3,54.0 68.1,54.0 70.0,54.0 71.8,54.1 73.6,54.1 75.5,54.1 77.3,54.1 79.2,54.1 81.1,54.1 83.0,54.1 84.9,54.1 86.8,54.1 88.8,54.1 90.7,54.1 92.7,54.1 94.7,54.1 96.7,54.1 98.6,54.1 100.7,54.1 102.7,54.1 104.7,54.1 106.8,54.2 108.8,54.2 110.9,54.2 113.0,54.2 115.1,54.2 117.2,54.2 119.3,54.2 121.4,54.2 123.6,54.2 125.7,54.2 127.9,54.3 130.1,54.3 132.3,54.3 134.5,54.3 136.7,54.3 138.9,54.3 141.1,54.3 143.4,54.3 145.7,54.4 147.9,54.4 150.2,54.4 152.5,54.4 154.8,54.4 157.1,54.5 159.5,54.5 161.8,54.5 164.2,54.5 166.5,54.5 168.9,54.6 171.3,54.6 173.7,54.6 176.1,54.6 178.5,54.7 181.0,54.7 183.4,54.7 185.9,54.7 188.3,54.8 190.8,54.8 193.3,54.8 195.8,54.9 198.3,54.9 200.8,54.9 203.4,55.0 205.9,55.0 208.5,55.0 211.0,55.1 213.6,55.1 216.2,55.1 218.8,55.2 221.4,55.2 224.0,55.3 226.7,55.3 229.3,55.3 232.0,55.4 234.6,55.4 237.3,55.5 240.0,55.5 242.7,55.6 245.4,55.6 248.1,55.7 250.8,55.8 253.6,55.8 256.3,55.9 259.1,55.9 261.8,56.0 264.6,56.1 267.4,56.1 270.2,56.2 273.0,56.3 275.8,56.3 278.6,56.4 281.5,56.5 284.3,56.5 287.1,56.6 290.0,56.7 292.9,56.8 295.7,56.9 298.6,57.0 301.5,57.1 304.4,57.2 307.3,57.3 310.2,57.4 313.1,57.5 316.1,57.6 319.0,57.7 321.9,57.8 324.9,57.9 327.8,58.0 330.8,58.2 333.7,58.3 336.7,58.4 339.6,58.6 342.6,58.7 345.6,58.8 348.6,59.0 351.5,59.1 354.5,59.3 357.5,59.5 360.5,59.6 363.5,59.8 366.4,60.0 369.4,60.1 372.4,60.3 375.4,60.5 378.4,60.7 381.4,60.9 384.4,61.1 387.4,61.3 390.4,61.5 393.4,61.8 396.4,62.0 399.4,62.2 402.4,62.4 405.4,62.7 408.4,62.9 411.4,63.1 414.4,63.4 417.4,63.7 420.4,63.9 423.4,64.2 426.4,64.4 429.4,64.7 432.4,65.0 435.4,65.3 438.4,65.6 441.4,65.9 444.3,66.2 447.3,66.5 450.3,66.8 453.3,67.1 456.2,67.4 459.2,67.7 462.2,68.1 465.1,68.4 468.1,68.7 471.0,69.1 474.0,69.4 476.9,69.8 479.9,70.2 482.8,70.5 485.7,70.9 488.7,71.3 491.6,71.6 494.5,72.0 497.4,72.4 500.3,72.8 503.2,73.2 506.1,73.6 508.9,74.0 511.8,74.5 514.6,74.9 517.5,75.3 520.3,75.8 523.1,76.2 525.9,76.6 528.7,77.1 531.5,77.5 534.3,78.0 537.0,78.5 539.8,78.9 542.5,79.4 545.2,79.9 548.0,80.4 550.7,80.9 553.3,81.4 556.0,81.9 558.7,82.4 561.3,82.9 563.9,83.4 566.6,83.9 569.2,84.5 571.7,85.0 574.3,85.5 576.9,86.1 579.4,86.6 581.9,87.2 584.4,87.7 586.9,88.3 589.3,88.8 591.8,89.4 594.2,90.0 596.6,90.6 599.0,91.1 601.3,91.7 603.7,92.3 606.0,92.9 608.3,93.5 610.6,94.1 612.9,94.7 615.1,95.3 617.4,95.9 619.6,96.6 621.8,97.2 623.9,97.8 626.1,98.4 628.2,99.1 630.3,99.7 632.4,100.3 634.4,101.0 636.5,101.6 638.5,102.3 640.5,102.9 642.4,103.6 644.4,104.3 646.3,104.9 648.2,105.6 650.1,106.3 651.9,106.9 653.8,107.6 655.6,108.3 657.4,109.0 659.2,109.6 660.9,110.3 662.7,111.0 664.4,111.7 666.1,112.4 667.7,113.1 669.4,113.8 671.0,114.5 672.6,115.2 674.2,115.9 675.8,116.6 677.3,117.3 678.9,118.0 680.4,118.7 681.9,119.4 683.3,120.1 684.8,120.8 686.2,121.5 687.6,122.3 689.0,123.0 690.4,123.7 691.8,124.4 693.1,125.1 694.4,125.8 695.8,126.5 697.0,127.3 698.3,128.0 699.5,128.7 700.8,129.4 702.0,130.1 703.2,130.8 704.3,131.6 705.5,132.3 706.6,133.0 707.7,133.7 708.8,134.4 709.8,135.1 710.9,135.8 711.9,136.6 712.9,137.3 713.9,138.0 714.9,138.7 715.8,139.4 716.7,140.1 717.6,140.8 718.5,141.5 719.3,142.2 720.2,142.9 721.0,143.6 721.8,144.3 722.6,144.9 723.3,145.6 724.1,146.3 724.8,147.0 725.5,147.7 726.2,148.3 726.8,149.0 727.5,149.7 728.1,150.3 728.7,151.0 729.3,151.7 729.8,152.3 730.4,153.0 730.9,153.6 731.4,154.2 731.9,154.9 732.4,155.5 732.9,156.1 733.3,156.8 733.8,157.4 734.2,158.0 734.6,158.6 735.0,159.2 735.3,159.8 735.7,160.4 736.0,161.0 736.4,161.6 736.7,162.2 737.0,162.8 737.3,163.3 737.5,163.9 737.8,164.5 738.1,165.0 738.3,165.6 738.5,166.2 738.7,166.7 738.9,167.2 739.1,167.8 739.3,168.3 739.4,168.9 739.6,169.4 739.7,169.9 739.8,170.4 739.9,171.0 740.0,171.5 740.0,172.0 740.1,172.5 740.1,173.0 740.2,173.5 740.2,174.0 740.2,174.5 740.1,175.0 740.1,175.5 740.1,176.0 740.0,176.5 739.9,177.0 739.8,177.4 739.7,177.9 739.6,178.4 739.5,178.9 739.3,179.3 739.2,179.8 739.0,180.3 738.9,180.7 738.7,181.2 738.5,181.6 738.3,182.1 738.1,182.5 737.9,182.9 737.7,183.4 737.5,183.8 737.3,184.2 737.1,184.7 736.9,185.1 736.7,185.5 736.6,185.9 736.4,186.3 736.2,186.7 736.1,187.2 736.0,187.6 735.9,188.0 735.8,188.4 735.7,188.8 735.6,189.2 735.6,189.6 735.5,190.1 735.5,190.5 735.4,190.9 735.4,191.4 735.3,191.8 735.3,192.2 735.2,192.7 735.1,193.1 735.0,193.6 734.9,194.0 734.7,194.5 734.6,194.9 734.4,195.4 734.3,195.8 734.1,196.3 733.9,196.7 733.7,197.2 733.5,197.7 733.3,198.1 733.1,198.6 733.0,199.0 732.9,199.5 732.7,200.0 732.6,200.4 732.5,200.9 732.5,201.4 732.4,201.8 732.3,202.3 732.3,202.8 732.2,203.3 732.1,203.8 732.1,204.2 732.0,204.7 731.9,205.2 731.8,205.7 731.8,206.2 731.7,206.7 731.6,207.3 731.6,207.8 731.5,208.3 731.5,208.8 731.5,209.3 731.5,209.8 731.5,210.3 731.5,210.8 731.6,211.3 731.6,211.8 731.7,212.3 731.8,212.8 731.9,213.3 732.0,213.8 732.1,214.3 732.3,214.7 732.4,215.2 732.6,215.7 732.8,216.2 733.0,216.7 733.2,217.2 733.4,217.6 733.6,218.1 733.9,218.6 734.1,219.1 734.4,219.5 734.6,220.0 734.9,220.4 735.1,220.9 735.4,221.3 735.7,221.8 735.9,222.2 736.2,222.7 736.4,223.1 736.7,223.5 737.0,224.0 737.2,224.4 737.5,224.8 737.7,225.2 738.0,225.6 738.2,226.1 738.5,226.5 738.7,226.9 738.9,227.3 739.2,227.7 739.4,228.1 739.7,228.5 739.9,228.9 740.1,229.2 740.3,229.6 740.6,230.0 740.8,230.4 741.0,230.8 741.2,231.1 741.4,231.5 741.6,231.9 741.9,232.3 742.1,232.6 742.3,233.0 742.5,233.3 742.7,233.7 742.9,234.1 743.1,234.4 743.3,234.8 743.5,235.1 743.7,235.5 743.9,235.8 744.1,236.1 744.2,236.5 744.4,236.8 744.6,237.1 744.8,237.5 745.0,237.8 745.2,238.1 745.4,238.5 745.6,238.8 745.7,239.1 745.9,239.4 746.1,239.8 746.3,240.1 746.5,240.4 746.7,240.7 746.8,241.0 747.0,241.3 747.2,241.6 747.4,241.9 747.5,242.2 747.7,242.5 747.9,242.8 748.1,243.1 748.2,243.4 748.4,243.7 748.6,244.0 748.8,244.3 748.9,244.6 749.1,244.9 749.3,245.2 749.5,245.5 749.6,245.7 749.8,246.0 750.0,246.3 750.1,246.6 750.3,246.8 750.5,247.1 750.6,247.4 750.8,247.7 751.0,247.9 751.1,248.2 751.3,248.5 751.5,248.7 751.6,249.0 751.8,249.3 752.0,249.5 752.1,249.8 752.3,250.0 752.4,250.3 752.6,250.6 752.8,250.8 752.9,251.1 753.1,251.3 753.2,251.6 753.4,251.8 753.5,252.1 753.7,252.3 753.8,252.5 754.0,252.8 754.1,253.0 754.3,253.3 754.4,253.5 754.6,253.8 754.7,254.0 754.9,254.2 755.0,254.5 755.2,254.7 755.3,254.9 755.5,255.2 755.6,255.4 755.8,255.6 755.9,255.8 756.1,256.1 756.2,256.3 756.3,256.5 756.5,256.7 756.6,256.9 756.8,257.2 756.9,257.4 757.1,257.6 757.2,257.8 757.4,258.0 757.6,258.2 757.7,258.4 757.9,258.6 758.0,258.9 758.2,259.1 758.4,259.3 758.5,259.5 758.7,259.7 758.9,259.9 759.1,260.1 759.2,260.3 759.4,260.5 759.6,260.7 759.8,260.9 760.0,261.2 760.2,261.4 760.4,261.6 760.6,261.8 760.8,262.0 761.1,262.2 761.3,262.4 761.5,262.6 761.7,262.8 762.0,263.0 762.2,263.2 762.4,263.4 762.7,263.5 762.9,263.7 763.1,263.9 763.4,264.1 763.6,264.3 763.8,264.5 764.1,264.6 764.3,264.8 764.6,265.0 764.8,265.2 765.0,265.3 765.3,265.5 765.5,265.7 765.8,265.8 766.0,266.0"/>
<line x1="606" y1="42" x2="628" y2="42" stroke="#0f62fe" stroke-width="2.2"/>
<text x="634" y="46" font-family="Arial" font-size="12">y_m</text>
</svg>