<svg xmlns="http://www.w3.org/2000/svg" width="820" height="320" viewBox="0 0 820 320">
<rect width="100%" height="100%" fill="#ffffff"/>
<text x="54" y="28" font-family="Arial" font-size="18" font-weight="700">Velocity X</text>
<line x1="54" y1="266" x2="766" y2="266" stroke="#1f2933"/>
<line x1="54" y1="54" x2="54" y2="266" stroke="#1f2933"/>
<text x="54" y="306" font-family="Arial" font-size="12">time (s)</text>
<text x="596" y="306" font-family="Arial" font-size="12">vx (m/s)</text>
<text x="58" y="68" font-family="Arial" font-size="11">150</text>
<text x="58" y="260" font-family="Arial" font-size="11">-10.1</text>
<polyline fill="none" stroke="#0f62fe" stroke-width="2.2" points="54.0,138.8 55.2,138.1 56.4,137.5 57.6,136.8 58.7,136.1 59.9,135.4 61.1,134.7 62.3,134.0 63.5,133.2 64.7,132.5 65.9,131.7 67.1,130.9 68.2,130.2 69.4,129.4 70.6,128.5 71.8,127.7 73.0,126.9 74.2,126.1 75.4,125.3 76.5,124.5 77.7,123.7 78.9,122.9 80.1,122.1 81.3,121.3 82.5,120.4 83.7,119.6 84.9,118.8 86.0,118.0 87.2,117.2 88.4,116.4 89.6,115.6 90.8,114.9 92.0,114.1 93.2,113.3 94.3,112.5 95.5,111.7 96.7,110.9 97.9,110.1 99.1,109.3 100.3,108.5 101.5,107.8 102.7,107.0 103.8,106.2 105.0,105.4 106.2,104.6 107.4,103.9 108.6,103.1 109.8,102.3 111.0,101.5 112.1,100.8 113.3,100.0 114.5,99.2 115.7,98.5 116.9,97.7 118.1,97.0 119.3,96.2 120.5,95.4 121.6,94.7 122.8,93.9 124.0,93.2 125.2,92.4 126.4,91.7 127.6,90.9 128.8,90.2 129.9,89.5 131.1,88.7 132.3,88.0 133.5,87.2 134.7,86.5 135.9,85.8 137.1,85.0 138.3,84.3 139.4,83.6 140.6,82.9 141.8,82.1 143.0,81.4 144.2,80.7 145.4,80.0 146.6,79.3 147.7,78.6 148.9,77.9 150.1,77.2 151.3,76.5 152.5,75.8 153.7,75.1 154.9,74.4 156.1,73.7 157.2,73.0 158.4,72.3 159.6,71.7 160.8,71.0 162.0,70.4 163.2,69.7 164.4,69.1 165.5,68.4 166.7,67.8 167.9,67.2 169.1,66.5 170.3,65.9 171.5,65.3 172.7,64.8 173.9,64.2 175.0,63.6 176.2,63.1 177.4,62.5 178.6,62.0 179.8,61.5 181.0,61.0 182.2,60.6 183.3,60.1 184.5,59.7 185.7,59.3 186.9,58.9 188.1,58.5 189.3,58.2 190.5,57.8 191.7,57.5 192.8,57.2 194.0,56.9 195.2,56.7 196.4,56.4 197.6,56.2 198.8,56.0 200.0,55.8 201.1,55.6 202.3,55.5 203.5,55.4 204.7,55.3 205.9,55.2 207.1,55.1 208.3,55.0 209.5,55.0 210.6,54.9 211.8,54.9 213.0,54.8 214.2,54.7 215.4,54.6 216.6,54.5 217.8,54.5 218.9,54.4 220.1,54.3 221.3,54.2 222.5,54.1 223.7,54.1 224.9,54.0 226.1,54.0 227.3,54.0 228.4,54.1 229.6,54.1 230.8,54.2 232.0,54.4 233.2,54.5 234.4,54.7 235.6,54.9 236.7,55.2 237.9,55.4 239.1,55.7 240.3,55.9 241.5,56.1 242.7,56.4 243.9,56.6 245.1,56.9 246.2,57.1 247.4,57.4 248.6,57.6 249.8,57.9 251.0,58.2 252.2,58.5 253.4,58.8 254.5,59.2 255.7,59.7 256.9,60.1 258.1,60.6 259.3,61.1 260.5,61.7 261.7,62.3 262.9,62.9 264.0,63.6 265.2,64.3 266.4,65.0 267.6,65.7 268.8,66.4 270.0,67.1 271.2,67.8 272.3,68.6 273.5,69.3 274.7,70.0 275.9,70.8 277.1,71.6 278.3,72.4 279.5,73.2 280.7,74.0 281.8,74.9 283.0,75.8 284.2,76.8 285.4,77.7 286.6,78.8 287.8,79.8 289.0,80.9 290.1,82.0 291.3,83.1 292.5,84.2 293.7,85.4 294.9,86.5 296.1,87.7 297.3,88.9 298.5,90.1 299.6,91.3 300.8,92.5 302.0,93.7 303.2,94.9 304.4,96.1 305.6,97.3 306.8,98.5 307.9,99.8 309.1,101.1 310.3,102.4 311.5,103.8 312.7,105.1 313.9,106.5 315.1,107.9 316.3,109.3 317.4,110.8 318.6,112.2 319.8,113.7 321.0,115.2 322.2,116.6 323.4,118.1 324.6,119.6 325.7,121.0 326.9,122.5 328.1,123.9 329.3,125.4 330.5,126.8 331.7,128.2 332.9,129.6 334.1,131.0 335.2,132.5 336.4,133.9 337.6,135.2 338.8,136.6 340.0,138.0 341.2,139.4 342.4,140.7 343.5,142.1 344.7,143.4 345.9,144.8 347.1,146.1 348.3,147.4 349.5,148.8 350.7,150.1 351.9,151.4 353.0,152.6 354.2,153.9 355.4,155.2 356.6,156.5 357.8,157.7 359.0,158.9 360.2,160.2 361.3,161.4 362.5,162.7 363.7,163.9 364.9,165.2 366.1,166.4 367.3,167.7 368.5,169.0 369.7,170.3 370.8,171.6 372.0,172.9 373.2,174.2 374.4,175.6 375.6,176.9 376.8,178.2 378.0,179.6 379.1,180.9 380.3,182.3 381.5,183.6 382.7,185.0 383.9,186.3 385.1,187.7 386.3,189.1 387.5,190.4 388.6,191.8 389.8,193.1 391.0,194.5 392.2,195.9 393.4,197.2 394.6,198.5 395.8,199.9 396.9,201.2 398.1,202.5 399.3,203.8 400.5,205.1 401.7,206.4 402.9,207.7 404.1,209.0 405.3,210.2 406.4,211.5 407.6,212.7 408.8,213.9 410.0,215.1 411.2,216.3 412.4,217.5 413.6,218.6 414.7,219.8 415.9,220.9 417.1,222.0 418.3,223.0 419.5,224.1 420.7,225.1 421.9,226.1 423.1,227.1 424.2,228.1 425.4,229.0 426.6,229.9 427.8,230.8 429.0,231.6 430.2,232.5 431.4,233.4 432.5,234.2 433.7,235.1 434.9,236.0 436.1,236.9 437.3,237.8 438.5,238.8 439.7,239.7 440.9,240.6 442.0,241.5 443.2,242.4 444.4,243.4 445.6,244.3 446.8,245.2 448.0,246.2 449.2,247.1 450.3,248.1 451.5,249.0 452.7,250.0 453.9,250.9 455.1,251.9 456.3,252.9 457.5,253.8 458.7,254.8 459.8,255.8 461.0,256.7 462.2,257.6 463.4,258.5 464.6,259.4 465.8,260.2 467.0,261.0 468.1,261.8 469.3,262.5 470.5,263.2 471.7,263.8 472.9,264.4 474.1,264.9 475.3,265.3 476.5,265.6 477.6,265.9 478.8,266.0 480.0,266.0 481.2,265.9 482.4,265.7 483.6,265.3 484.8,264.8 485.9,264.1 487.1,263.4 488.3,262.6 489.5,261.7 490.7,260.7 491.9,259.8 493.1,258.9 494.3,257.9 495.4,257.0 496.6,256.0 497.8,255.5 499.0,255.4 500.2,255.7 501.4,256.2 502.6,256.7 503.7,257.3 504.9,257.9 506.1,258.6 507.3,259.4 508.5,260.2 509.7,261.1 510.9,262.1 512.1,263.1 513.2,264.2 514.4,265.0 515.6,265.4 516.8,265.4 518.0,265.1 519.2,264.4 520.4,263.6 521.5,262.7 522.7,261.7 523.9,260.6 525.1,259.6 526.3,258.6 527.5,257.7 528.7,257.0 529.9,256.6 531.0,256.5 532.2,256.6 533.4,256.9 534.6,257.2 535.8,257.6 537.0,257.8 538.2,257.9 539.3,257.7 540.5,257.3 541.7,256.6 542.9,255.9 544.1,255.1 545.3,254.3 546.5,253.5 547.7,252.6 548.8,251.6 550.0,250.7 551.2,249.8 552.4,248.8 553.6,247.9 554.8,247.0 556.0,246.1 557.1,245.2 558.3,244.3 559.5,243.4 560.7,242.5 561.9,241.6 563.1,240.7 564.3,239.8 565.5,238.8 566.6,238.0 567.8,237.1 569.0,236.2 570.2,236.0 571.4,235.9 572.6,235.8 573.8,235.7 574.9,235.6 576.1,235.5 577.3,235.5 578.5,235.4 579.7,235.4 580.9,235.5 582.1,235.5 583.3,235.6 584.4,235.6 585.6,235.7 586.8,235.8 588.0,236.0 589.2,236.1 590.4,236.3 591.6,236.5 592.7,236.6 593.9,236.8 595.1,237.0 596.3,237.2 597.5,237.3 598.7,237.5 599.9,237.7 601.1,237.8 602.2,238.0 603.4,238.1 604.6,238.2 605.8,238.4 607.0,238.5 608.2,238.7 609.4,238.8 610.5,238.9 611.7,239.0 612.9,239.1 614.1,239.3 615.3,239.4 616.5,239.5 617.7,239.6 618.9,239.7 620.0,239.7 621.2,239.8 622.4,239.9 623.6,240.0 624.8,240.1 626.0,240.1 627.2,240.2 628.3,240.3 629.5,240.3 630.7,240.4 631.9,240.4 633.1,240.5 634.3,240.5 635.5,240.6 636.7,240.6 637.8,240.7 639.0,240.7 640.2,240.7 641.4,240.8 642.6,240.8 643.8,240.8 645.0,240.9 646.1,240.9 647.3,241.0 648.5,241.0 649.7,241.0 650.9,241.1 652.1,241.1 653.3,241.1 654.5,241.2 655.6,241.2 656.8,241.2 658.0,241.3 659.2,241.3 660.4,241.3 661.6,241.4 662.8,241.4 663.9,241.5 665.1,241.5 666.3,241.5 667.5,241.6 668.7,241.6 669.9,241.7 671.1,241.7 672.3,241.8 673.4,241.8 674.6,241.9 675.8,241.9 677.0,242.0 678.2,242.0 679.4,242.1 680.6,242.1 681.7,242.2 682.9,242.3 684.1,242.3 685.3,242.4 686.5,242.4 687.7,242.5 688.9,242.5 690.1,242.6 691.2,242.6 692.4,242.7 693.6,242.7 694.8,242.8 696.0,242.8 697.2,242.8 698.4,242.8 699.5,242.9 700.7,242.9 701.9,242.9 703.1,242.9 704.3,242.9 705.5,242.9 706.7,242.9 707.9,242.9 709.0,242.9 710.2,242.9 711.4,242.8 712.6,242.8 713.8,242.7 715.0,242.5 716.2,242.4 717.3,242.3 718.5,242.2 719.7,242.1 720.9,242.0 722.1,241.9 723.3,241.8 724.5,241.7 725.7,241.5 726.8,241.2 728.0,241.0 729.2,240.8 730.4,240.6 731.6,240.4 732.8,240.1 734.0,239.8 735.1,239.5 736.3,239.2 737.5,238.9 738.7,238.5 739.9,238.2 741.1,237.9 742.3,237.7 743.5,237.5 744.6,237.4 745.8,237.2 747.0,237.2 748.2,237.1 749.4,237.1 750.6,237.1 751.8,237.1 752.9,237.1 754.1,237.1 755.3,237.0 756.5,237.0 757.7,237.0 758.9,236.9 760.1,236.9 761.3,236.8 762.4,236.7 763.6,236.6 764.8,236.6 766.0,236.5"/>
<line x1="606" y1="42" x2="628" y2="42" stroke="#0f62fe" stroke-width="2.2"/>
<text x="634" y="46" font-family="Arial" font-size="12">vx_mps</text>
</svg>