<svg xmlns="http://www.w3.org/2000/svg" width="820" height="320" viewBox="0 0 820 320">
<rect width="100%" height="100%" fill="#ffffff"/>
<text x="54" y="28" font-family="Arial" font-size="18" font-weight="700">Velocity Y</text>
<line x1="54" y1="266" x2="766" y2="266" stroke="#1f2933"/>
<line x1="54" y1="54" x2="54" y2="266" stroke="#1f2933"/>
<text x="54" y="306" font-family="Arial" font-size="12">time (s)</text>
<text x="596" y="306" font-family="Arial" font-size="12">vy (m/s)</text>
<text x="58" y="68" font-family="Arial" font-size="11">-0.854</text>
<text x="58" y="260" font-family="Arial" font-size="11">-126</text>
<polyline fill="none" stroke="#0f62fe" stroke-width="2.2" points="54.0,54.2 55.2,54.2 56.4,54.1 57.6,54.1 58.7,54.1 59.9,54.0 61.1,54.0 62.3,54.0 63.5,54.0 64.7,54.0 65.9,54.0 67.1,54.0 68.2,54.0 69.4,54.0 70.6,54.0 71.8,54.1 73.0,54.1 74.2,54.1 75.4,54.2 76.5,54.2 77.7,54.3 78.9,54.3 80.1,54.4 81.3,54.4 82.5,54.5 83.7,54.6 84.9,54.6 86.0,54.7 87.2,54.8 88.4,54.9 89.6,55.0 90.8,55.1 92.0,55.2 93.2,55.3 94.3,55.5 95.5,55.6 96.7,55.7 97.9,55.8 99.1,56.0 100.3,56.1 101.5,56.3 102.7,56.4 103.8,56.6 105.0,56.7 106.2,56.9 107.4,57.1 108.6,57.2 109.8,57.4 111.0,57.6 112.1,57.8 113.3,58.0 114.5,58.2 115.7,58.4 116.9,58.6 118.1,58.8 119.3,59.0 120.5,59.2 121.6,59.4 122.8,59.6 124.0,59.9 125.2,60.1 126.4,60.3 127.6,60.6 128.8,60.8 129.9,61.1 131.1,61.3 132.3,61.6 133.5,61.8 134.7,62.1 135.9,62.4 137.1,62.7 138.3,63.0 139.4,63.2 140.6,63.5 141.8,63.9 143.0,64.2 144.2,64.5 145.4,64.8 146.6,65.2 147.7,65.5 148.9,65.8 150.1,66.2 151.3,66.6 152.5,67.0 153.7,67.4 154.9,67.8 156.1,68.2 157.2,68.6 158.4,69.0 159.6,69.5 160.8,69.9 162.0,70.4 163.2,70.9 164.4,71.4 165.5,71.9 166.7,72.5 167.9,73.1 169.1,73.6 170.3,74.2 171.5,74.9 172.7,75.5 173.9,76.2 175.0,76.9 176.2,77.6 177.4,78.4 178.6,79.1 179.8,79.9 181.0,80.8 182.2,81.7 183.3,82.6 184.5,83.5 185.7,84.5 186.9,85.5 188.1,86.5 189.3,87.5 190.5,88.6 191.7,89.7 192.8,90.8 194.0,92.0 195.2,93.1 196.4,94.3 197.6,95.6 198.8,96.8 200.0,98.1 201.1,99.4 202.3,100.7 203.5,102.0 204.7,103.3 205.9,104.7 207.1,106.1 208.3,107.5 209.5,108.8 210.6,110.2 211.8,111.6 213.0,113.0 214.2,114.4 215.4,115.7 216.6,117.1 217.8,118.5 218.9,119.8 220.1,121.2 221.3,122.6 222.5,123.9 223.7,125.3 224.9,126.7 226.1,128.1 227.3,129.6 228.4,131.0 229.6,132.5 230.8,134.0 232.0,135.5 233.2,137.0 234.4,138.5 235.6,140.1 236.7,141.6 237.9,143.1 239.1,144.7 240.3,146.2 241.5,147.8 242.7,149.3 243.9,150.8 245.1,152.4 246.2,153.9 247.4,155.4 248.6,157.0 249.8,158.5 251.0,160.0 252.2,161.6 253.4,163.1 254.5,164.7 255.7,166.2 256.9,167.8 258.1,169.4 259.3,171.0 260.5,172.5 261.7,174.1 262.9,175.7 264.0,177.3 265.2,178.9 266.4,180.4 267.6,182.0 268.8,183.6 270.0,185.1 271.2,186.7 272.3,188.2 273.5,189.7 274.7,191.3 275.9,192.8 277.1,194.3 278.3,195.9 279.5,197.4 280.7,198.9 281.8,200.4 283.0,201.9 284.2,203.4 285.4,204.8 286.6,206.3 287.8,207.8 289.0,209.2 290.1,210.6 291.3,212.1 292.5,213.5 293.7,214.9 294.9,216.3 296.1,217.6 297.3,219.0 298.5,220.4 299.6,221.7 300.8,223.1 302.0,224.4 303.2,225.7 304.4,227.0 305.6,228.3 306.8,229.6 307.9,230.8 309.1,232.1 310.3,233.3 311.5,234.5 312.7,235.7 313.9,236.8 315.1,238.0 316.3,239.1 317.4,240.1 318.6,241.2 319.8,242.2 321.0,243.2 322.2,244.2 323.4,245.2 324.6,246.1 325.7,247.1 326.9,248.0 328.1,248.9 329.3,249.8 330.5,250.7 331.7,251.6 332.9,252.4 334.1,253.3 335.2,254.1 336.4,254.9 337.6,255.7 338.8,256.4 340.0,257.1 341.2,257.8 342.4,258.5 343.5,259.1 344.7,259.8 345.9,260.3 347.1,260.9 348.3,261.4 349.5,261.9 350.7,262.4 351.9,262.8 353.0,263.2 354.2,263.6 355.4,263.9 356.6,264.3 357.8,264.6 359.0,264.8 360.2,265.1 361.3,265.3 362.5,265.4 363.7,265.6 364.9,265.7 366.1,265.9 367.3,265.9 368.5,266.0 369.7,266.0 370.8,266.0 372.0,265.9 373.2,265.9 374.4,265.8 375.6,265.6 376.8,265.5 378.0,265.3 379.1,265.0 380.3,264.7 381.5,264.4 382.7,264.1 383.9,263.7 385.1,263.3 386.3,262.9 387.5,262.4 388.6,261.9 389.8,261.3 391.0,260.7 392.2,260.1 393.4,259.4 394.6,258.8 395.8,258.0 396.9,257.3 398.1,256.5 399.3,255.7 400.5,254.8 401.7,253.9 402.9,253.0 404.1,252.1 405.3,251.1 406.4,250.1 407.6,249.1 408.8,248.1 410.0,247.0 411.2,245.9 412.4,244.8 413.6,243.6 414.7,242.4 415.9,241.2 417.1,240.0 418.3,238.7 419.5,237.5 420.7,236.2 421.9,234.8 423.1,233.5 424.2,232.1 425.4,230.7 426.6,229.3 427.8,227.9 429.0,226.5 430.2,225.0 431.4,223.6 432.5,222.3 433.7,221.0 434.9,219.7 436.1,218.4 437.3,217.2 438.5,216.0 439.7,214.8 440.9,213.6 442.0,212.5 443.2,211.4 444.4,210.4 445.6,209.3 446.8,208.3 448.0,207.3 449.2,206.3 450.3,205.4 451.5,204.5 452.7,203.6 453.9,202.7 455.1,201.9 456.3,201.1 457.5,200.3 458.7,199.5 459.8,198.7 461.0,197.8 462.2,196.9 463.4,196.0 464.6,195.0 465.8,194.0 467.0,193.0 468.1,191.9 469.3,190.8 470.5,189.7 471.7,188.6 472.9,187.5 474.1,186.3 475.3,185.2 476.5,184.1 477.6,182.9 478.8,181.9 480.0,180.8 481.2,179.8 482.4,178.9 483.6,178.0 484.8,177.3 485.9,176.6 487.1,176.1 488.3,175.7 489.5,175.5 490.7,175.4 491.9,175.4 493.1,175.7 494.3,176.0 495.4,176.4 496.6,177.0 497.8,178.0 499.0,179.2 500.2,180.3 501.4,181.3 502.6,182.3 503.7,183.2 504.9,184.0 506.1,184.8 507.3,185.5 508.5,186.1 509.7,186.6 510.9,187.1 512.1,187.6 513.2,188.0 514.4,188.4 515.6,188.9 516.8,189.3 518.0,189.6 519.2,189.8 520.4,189.9 521.5,190.1 522.7,190.2 523.9,190.5 525.1,190.9 526.3,191.4 527.5,192.1 528.7,193.0 529.9,194.0 531.0,195.2 532.2,196.3 533.4,197.4 534.6,198.5 535.8,199.6 537.0,200.7 538.2,201.8 539.3,202.6 540.5,203.2 541.7,203.5 542.9,203.6 544.1,203.4 545.3,203.2 546.5,202.9 547.7,202.5 548.8,202.2 550.0,201.8 551.2,201.4 552.4,201.0 553.6,200.6 554.8,200.2 556.0,199.8 557.1,199.3 558.3,198.9 559.5,198.4 560.7,197.9 561.9,197.3 563.1,196.7 564.3,196.1 565.5,195.4 566.6,194.7 567.8,193.9 569.0,193.0 570.2,191.9 571.4,190.8 572.6,189.7 573.8,188.6 574.9,187.5 576.1,186.5 577.3,185.4 578.5,184.3 579.7,183.3 580.9,182.2 582.1,181.2 583.3,180.2 584.4,179.2 585.6,178.2 586.8,177.2 588.0,176.2 589.2,175.3 590.4,174.4 591.6,173.4 592.7,172.5 593.9,171.6 595.1,170.7 596.3,169.9 597.5,169.0 598.7,168.2 599.9,167.3 601.1,166.5 602.2,165.7 603.4,164.9 604.6,164.1 605.8,163.3 607.0,162.6 608.2,161.8 609.4,161.1 610.5,160.4 611.7,159.7 612.9,159.0 614.1,158.3 615.3,157.6 616.5,156.9 617.7,156.2 618.9,155.6 620.0,154.9 621.2,154.3 622.4,153.6 623.6,153.0 624.8,152.3 626.0,151.7 627.2,151.1 628.3,150.5 629.5,149.9 630.7,149.3 631.9,148.7 633.1,148.1 634.3,147.5 635.5,146.9 636.7,146.3 637.8,145.7 639.0,145.1 640.2,144.6 641.4,144.0 642.6,143.4 643.8,142.9 645.0,142.3 646.1,141.8 647.3,141.3 648.5,140.7 649.7,140.2 650.9,139.7 652.1,139.1 653.3,138.6 654.5,138.1 655.6,137.6 656.8,137.1 658.0,136.6 659.2,136.1 660.4,135.6 661.6,135.2 662.8,134.7 663.9,134.2 665.1,133.7 666.3,133.3 667.5,132.8 668.7,132.4 669.9,131.9 671.1,131.5 672.3,131.0 673.4,130.6 674.6,130.2 675.8,129.8 677.0,129.3 678.2,128.9 679.4,128.5 680.6,128.2 681.7,127.8 682.9,127.4 684.1,127.0 685.3,126.6 686.5,126.3 687.7,125.9 688.9,125.5 690.1,125.1 691.2,124.7 692.4,124.4 693.6,124.0 694.8,123.6 696.0,123.2 697.2,122.8 698.4,122.4 699.5,121.9 700.7,121.5 701.9,121.1 703.1,120.7 704.3,120.2 705.5,119.8 706.7,119.3 707.9,118.9 709.0,118.4 710.2,117.9 711.4,117.5 712.6,117.0 713.8,116.7 715.0,116.3 716.2,116.0 717.3,115.8 718.5,115.6 719.7,115.5 720.9,115.4 722.1,115.3 723.3,115.2 724.5,115.1 725.7,115.0 726.8,114.9 728.0,114.8 729.2,114.8 730.4,114.7 731.6,114.7 732.8,114.6 734.0,114.5 735.1,114.3 736.3,114.1 737.5,113.8 738.7,113.5 739.9,113.1 741.1,112.6 742.3,112.1 743.5,111.6 744.6,111.0 745.8,110.4 747.0,109.9 748.2,109.3 749.4,108.7 750.6,108.1 751.8,107.6 752.9,107.0 754.1,106.5 755.3,105.9 756.5,105.4 757.7,104.9 758.9,104.5 760.1,104.0 761.3,103.6 762.4,103.3 763.6,102.9 764.8,102.6 766.0,102.3"/>
<line x1="606" y1="42" x2="628" y2="42" stroke="#0f62fe" stroke-width="2.2"/>
<text x="634" y="46" font-family="Arial" font-size="12">vy_mps</text>
</svg>