<svg xmlns="http://www.w3.org/2000/svg" width="820" height="320" viewBox="0 0 820 320">
<rect width="100%" height="100%" fill="#ffffff"/>
<text x="54" y="28" font-family="Arial" font-size="18" font-weight="700">Velocity Z</text>
<line x1="54" y1="266" x2="766" y2="266" stroke="#1f2933"/>
<line x1="54" y1="54" x2="54" y2="266" stroke="#1f2933"/>
<text x="54" y="306" font-family="Arial" font-size="12">time (s)</text>
<text x="596" y="306" font-family="Arial" font-size="12">vz (m/s)</text>
<text x="58" y="68" font-family="Arial" font-size="11">9</text>
<text x="58" y="260" font-family="Arial" font-size="11">-82.4</text>
<polyline fill="none" stroke="#0f62fe" stroke-width="2.2" points="54.0,54.0 55.2,54.5 56.4,54.9 57.6,55.3 58.7,55.8 59.9,56.2 61.1,56.7 62.3,57.1 63.5,57.5 64.7,57.9 65.9,58.3 67.1,58.7 68.2,59.2 69.4,59.6 70.6,60.0 71.8,60.3 73.0,60.7 74.2,61.1 75.4,61.5 76.5,61.9 77.7,62.3 78.9,62.7 80.1,63.1 81.3,63.4 82.5,63.8 83.7,64.2 84.9,64.6 86.0,64.9 87.2,65.3 88.4,65.7 89.6,66.0 90.8,66.4 92.0,66.7 93.2,67.1 94.3,67.4 95.5,67.8 96.7,68.1 97.9,68.5 99.1,68.8 100.3,69.1 101.5,69.5 102.7,69.8 103.8,70.1 105.0,70.4 106.2,70.7 107.4,71.0 108.6,71.3 109.8,71.6 111.0,71.9 112.1,72.2 113.3,72.5 114.5,72.8 115.7,73.1 116.9,73.3 118.1,73.6 119.3,73.9 120.5,74.1 121.6,74.4 122.8,74.6 124.0,74.9 125.2,75.1 126.4,75.4 127.6,75.6 128.8,75.8 129.9,76.1 131.1,76.3 132.3,76.5 133.5,76.7 134.7,76.9 135.9,77.1 137.1,77.3 138.3,77.5 139.4,77.7 140.6,77.9 141.8,78.1 143.0,78.2 144.2,78.4 145.4,78.6 146.6,78.7 147.7,78.9 148.9,79.1 150.1,79.2 151.3,79.4 152.5,79.5 153.7,79.6 154.9,79.8 156.1,79.9 157.2,80.0 158.4,80.1 159.6,80.2 160.8,80.3 162.0,80.4 163.2,80.5 164.4,80.6 165.5,80.6 166.7,80.7 167.9,80.7 169.1,80.8 170.3,80.8 171.5,80.8 172.7,80.8 173.9,80.8 175.0,80.8 176.2,80.7 177.4,80.7 178.6,80.6 179.8,80.5 181.0,80.4 182.2,80.3 183.3,80.2 184.5,80.0 185.7,79.9 186.9,79.7 188.1,79.5 189.3,79.3 190.5,79.1 191.7,78.9 192.8,78.6 194.0,78.4 195.2,78.1 196.4,77.8 197.6,77.6 198.8,77.3 200.0,77.0 201.1,76.7 202.3,76.4 203.5,76.1 204.7,75.8 205.9,75.5 207.1,75.2 208.3,74.9 209.5,74.6 210.6,74.3 211.8,74.1 213.0,73.8 214.2,73.5 215.4,73.3 216.6,73.0 217.8,72.7 218.9,72.5 220.1,72.3 221.3,72.0 222.5,71.8 223.7,71.5 224.9,71.3 226.1,71.0 227.3,70.8 228.4,70.5 229.6,70.3 230.8,70.1 232.0,69.8 233.2,69.6 234.4,69.4 235.6,69.2 236.7,69.0 237.9,68.8 239.1,68.6 240.3,68.4 241.5,68.2 242.7,68.0 243.9,67.8 245.1,67.6 246.2,67.4 247.4,67.3 248.6,67.1 249.8,66.9 251.0,66.8 252.2,66.6 253.4,66.5 254.5,66.3 255.7,66.2 256.9,66.1 258.1,66.0 259.3,65.9 260.5,65.7 261.7,65.6 262.9,65.5 264.0,65.4 265.2,65.4 266.4,65.3 267.6,65.2 268.8,65.1 270.0,65.1 271.2,65.0 272.3,65.0 273.5,64.9 274.7,64.9 275.9,64.9 277.1,64.9 278.3,64.8 279.5,64.8 280.7,64.8 281.8,64.9 283.0,64.9 284.2,64.9 285.4,65.0 286.6,65.0 287.8,65.1 289.0,65.2 290.1,65.3 291.3,65.4 292.5,65.5 293.7,65.6 294.9,65.7 296.1,65.9 297.3,66.0 298.5,66.2 299.6,66.4 300.8,66.6 302.0,66.8 303.2,67.0 304.4,67.2 305.6,67.4 306.8,67.6 307.9,67.9 309.1,68.2 310.3,68.4 311.5,68.7 312.7,69.0 313.9,69.4 315.1,69.7 316.3,70.1 317.4,70.5 318.6,70.9 319.8,71.3 321.0,71.7 322.2,72.2 323.4,72.6 324.6,73.1 325.7,73.6 326.9,74.1 328.1,74.6 329.3,75.1 330.5,75.7 331.7,76.2 332.9,76.8 334.1,77.4 335.2,78.0 336.4,78.6 337.6,79.3 338.8,79.9 340.0,80.6 341.2,81.3 342.4,82.1 343.5,82.8 344.7,83.6 345.9,84.4 347.1,85.2 348.3,86.0 349.5,86.9 350.7,87.7 351.9,88.6 353.0,89.5 354.2,90.4 355.4,91.3 356.6,92.2 357.8,93.2 359.0,94.1 360.2,95.0 361.3,96.0 362.5,96.9 363.7,97.9 364.9,98.9 366.1,99.8 367.3,100.8 368.5,101.8 369.7,102.8 370.8,103.7 372.0,104.7 373.2,105.7 374.4,106.7 375.6,107.6 376.8,108.6 378.0,109.6 379.1,110.6 380.3,111.5 381.5,112.5 382.7,113.5 383.9,114.4 385.1,115.4 386.3,116.3 387.5,117.3 388.6,118.3 389.8,119.2 391.0,120.1 392.2,121.1 393.4,122.0 394.6,123.0 395.8,123.9 396.9,124.8 398.1,125.7 399.3,126.7 400.5,127.6 401.7,128.5 402.9,129.4 404.1,130.3 405.3,131.2 406.4,132.1 407.6,133.0 408.8,133.9 410.0,134.8 411.2,135.7 412.4,136.6 413.6,137.4 414.7,138.3 415.9,139.2 417.1,140.0 418.3,140.9 419.5,141.8 420.7,142.6 421.9,143.5 423.1,144.3 424.2,145.2 425.4,146.1 426.6,147.0 427.8,147.9 429.0,148.8 430.2,149.7 431.4,150.5 432.5,151.3 433.7,152.0 434.9,152.8 436.1,153.5 437.3,154.2 438.5,154.9 439.7,155.6 440.9,156.3 442.0,157.0 443.2,157.7 444.4,158.4 445.6,159.0 446.8,159.7 448.0,160.3 449.2,161.0 450.3,161.6 451.5,162.2 452.7,162.8 453.9,163.4 455.1,163.9 456.3,164.5 457.5,165.0 458.7,165.5 459.8,166.1 461.0,166.7 462.2,167.4 463.4,168.1 464.6,168.9 465.8,169.8 467.0,170.7 468.1,171.7 469.3,172.8 470.5,174.0 471.7,175.3 472.9,176.6 474.1,178.1 475.3,179.7 476.5,181.4 477.6,183.2 478.8,185.0 480.0,186.8 481.2,188.7 482.4,190.6 483.6,192.5 484.8,194.3 485.9,196.0 487.1,197.5 488.3,198.9 489.5,200.2 490.7,201.2 491.9,202.0 493.1,202.7 494.3,203.2 495.4,203.6 496.6,203.9 497.8,204.3 499.0,204.4 500.2,204.1 501.4,203.7 502.6,203.4 503.7,203.1 504.9,203.0 506.1,203.0 507.3,203.2 508.5,203.6 509.7,204.1 510.9,204.8 512.1,205.6 513.2,206.7 514.4,208.2 515.6,210.2 516.8,212.4 518.0,214.6 519.2,216.6 520.4,218.4 521.5,220.0 522.7,221.4 523.9,222.6 525.1,223.6 526.3,224.4 527.5,225.2 528.7,226.0 529.9,226.8 531.0,227.5 532.2,228.3 533.4,229.0 534.6,229.8 535.8,230.6 537.0,231.6 538.2,232.8 539.3,234.2 540.5,235.9 541.7,237.8 542.9,239.8 544.1,241.7 545.3,243.6 546.5,245.4 547.7,247.0 548.8,248.6 550.0,250.1 551.2,251.4 552.4,252.8 553.6,254.0 554.8,255.2 556.0,256.3 557.1,257.4 558.3,258.4 559.5,259.3 560.7,260.2 561.9,261.1 563.1,261.9 564.3,262.7 565.5,263.6 566.6,264.4 567.8,265.2 569.0,266.0 570.2,265.8 571.4,265.6 572.6,265.4 573.8,265.2 574.9,265.0 576.1,264.8 577.3,264.6 578.5,264.5 579.7,264.3 580.9,264.2 582.1,264.1 583.3,264.0 584.4,263.9 585.6,263.7 586.8,263.6 588.0,263.5 589.2,263.3 590.4,263.2 591.6,263.0 592.7,262.8 593.9,262.6 595.1,262.4 596.3,262.2 597.5,261.9 598.7,261.6 599.9,261.4 601.1,261.0 602.2,260.7 603.4,260.4 604.6,260.0 605.8,259.7 607.0,259.3 608.2,258.9 609.4,258.5 610.5,258.1 611.7,257.7 612.9,257.3 614.1,256.9 615.3,256.5 616.5,256.0 617.7,255.6 618.9,255.2 620.0,254.8 621.2,254.4 622.4,254.0 623.6,253.5 624.8,253.1 626.0,252.7 627.2,252.3 628.3,251.9 629.5,251.6 630.7,251.2 631.9,250.8 633.1,250.4 634.3,250.1 635.5,249.7 636.7,249.3 637.8,249.0 639.0,248.7 640.2,248.3 641.4,248.0 642.6,247.7 643.8,247.4 645.0,247.1 646.1,246.8 647.3,246.5 648.5,246.2 649.7,246.0 650.9,245.7 652.1,245.5 653.3,245.2 654.5,245.0 655.6,244.8 656.8,244.5 658.0,244.3 659.2,244.1 660.4,243.9 661.6,243.7 662.8,243.5 663.9,243.4 665.1,243.2 666.3,243.0 667.5,242.8 668.7,242.7 669.9,242.5 671.1,242.4 672.3,242.2 673.4,242.1 674.6,241.9 675.8,241.8 677.0,241.6 678.2,241.5 679.4,241.3 680.6,241.1 681.7,241.0 682.9,240.8 684.1,240.6 685.3,240.4 686.5,240.2 687.7,240.0 688.9,239.9 690.1,239.7 691.2,239.5 692.4,239.4 693.6,239.2 694.8,239.1 696.0,239.0 697.2,238.8 698.4,238.7 699.5,238.6 700.7,238.5 701.9,238.4 703.1,238.3 704.3,238.3 705.5,238.2 706.7,238.2 707.9,238.1 709.0,238.1 710.2,238.1 711.4,238.1 712.6,238.1 713.8,238.1 715.0,238.1 716.2,238.0 717.3,237.9 718.5,237.8 719.7,237.6 720.9,237.4 722.1,237.1 723.3,236.8 724.5,236.4 725.7,236.0 726.8,235.6 728.0,235.4 729.2,235.2 730.4,235.2 731.6,235.1 732.8,235.1 734.0,235.1 735.1,235.1 736.3,235.2 737.5,235.3 738.7,235.4 739.9,235.6 741.1,235.8 742.3,236.0 743.5,236.3 744.6,236.6 745.8,236.9 747.0,237.1 748.2,237.4 749.4,237.6 750.6,237.8 751.8,238.0 752.9,238.1 754.1,238.3 755.3,238.4 756.5,238.5 757.7,238.6 758.9,238.7 760.1,238.7 761.3,238.8 762.4,238.8 763.6,238.9 764.8,238.9 766.0,238.9"/>
<line x1="606" y1="42" x2="628" y2="42" stroke="#0f62fe" stroke-width="2.2"/>
<text x="634" y="46" font-family="Arial" font-size="12">vz_mps</text>
</svg>