<svg xmlns="http://www.w3.org/2000/svg" width="820" height="320" viewBox="0 0 820 320">
<rect width="100%" height="100%" fill="#ffffff"/>
<text x="54" y="28" font-family="Arial" font-size="18" font-weight="700">Euler Angles</text>
<line x1="54" y1="266" x2="766" y2="266" stroke="#1f2933"/>
<line x1="54" y1="54" x2="54" y2="266" stroke="#1f2933"/>
<text x="54" y="306" font-family="Arial" font-size="12">time (s)</text>
<text x="596" y="306" font-family="Arial" font-size="12">angle (deg)</text>
<text x="58" y="68" font-family="Arial" font-size="11">180</text>
<text x="58" y="260" font-family="Arial" font-size="11">-178</text>
<polyline fill="none" stroke="#0f62fe" stroke-width="2.2" points="54.0,160.4 55.2,160.4 56.4,160.3 57.6,160.2 58.7,160.2 59.9,160.1 61.1,160.0 62.3,159.9 63.5,159.8 64.7,159.7 65.9,159.7 67.1,159.6 68.2,159.5 69.4,159.4 70.6,159.3 71.8,159.2 73.0,159.1 74.2,159.0 75.4,159.0 76.5,158.9 77.7,158.8 78.9,158.7 80.1,158.6 81.3,158.5 82.5,158.4 83.7,158.3 84.9,158.2 86.0,158.1 87.2,158.0 88.4,157.9 89.6,157.8 90.8,157.7 92.0,157.6 93.2,157.5 94.3,157.4 95.5,157.3 96.7,157.2 97.9,157.1 99.1,157.0 100.3,156.9 101.5,156.8 102.7,156.7 103.8,156.6 105.0,156.5 106.2,156.3 107.4,156.2 108.6,156.1 109.8,156.0 111.0,155.9 112.1,155.7 113.3,155.6 114.5,155.4 115.7,155.3 116.9,155.2 118.1,155.0 119.3,154.9 120.5,154.7 121.6,154.5 122.8,154.4 124.0,154.2 125.2,154.0 126.4,153.8 127.6,153.6 128.8,153.4 129.9,153.2 131.1,153.0 132.3,152.8 133.5,152.6 134.7,152.3 135.9,152.1 137.1,151.8 138.3,151.6 139.4,151.3 140.6,151.0 141.8,150.7 143.0,150.4 144.2,150.1 145.4,149.8 146.6,149.5 147.7,149.2 148.9,148.9 150.1,148.6 151.3,148.3 152.5,148.0 153.7,147.7 154.9,147.4 156.1,147.1 157.2,146.8 158.4,146.5 159.6,146.3 160.8,146.0 162.0,145.7 163.2,145.4 164.4,145.1 165.5,144.8 166.7,144.5 167.9,144.2 169.1,144.0 170.3,143.7 171.5,143.4 172.7,143.1 173.9,142.9 175.0,142.6 176.2,142.3 177.4,142.1 178.6,141.8 179.8,141.6 181.0,141.3 182.2,141.1 183.3,140.8 184.5,140.6 185.7,140.4 186.9,140.1 188.1,139.9 189.3,139.7 190.5,139.5 191.7,139.3 192.8,139.0 194.0,138.8 195.2,138.6 196.4,138.4 197.6,138.2 198.8,138.0 200.0,137.8 201.1,137.6 202.3,137.5 203.5,137.3 204.7,137.1 205.9,136.9 207.1,136.7 208.3,136.5 209.5,136.3 210.6,136.1 211.8,135.9 213.0,135.7 214.2,135.4 215.4,135.2 216.6,135.0 217.8,134.8 218.9,134.6 220.1,134.4 221.3,134.2 222.5,133.9 223.7,133.7 224.9,133.5 226.1,133.3 227.3,133.2 228.4,133.0 229.6,132.8 230.8,132.6 232.0,132.4 233.2,132.2 234.4,132.0 235.6,131.8 236.7,131.7 237.9,131.5 239.1,131.3 240.3,131.1 241.5,130.8 242.7,130.6 243.9,130.4 245.1,130.2 246.2,130.0 247.4,129.8 248.6,129.6 249.8,129.4 251.0,129.2 252.2,129.0 253.4,128.8 254.5,128.7 255.7,128.5 256.9,128.3 258.1,128.1 259.3,127.9 260.5,127.8 261.7,127.6 262.9,127.4 264.0,127.2 265.2,127.0 266.4,126.9 267.6,126.7 268.8,126.5 270.0,126.3 271.2,126.1 272.3,125.9 273.5,125.7 274.7,125.5 275.9,125.3 277.1,125.1 278.3,124.9 279.5,124.7 280.7,124.6 281.8,124.4 283.0,124.2 284.2,124.0 285.4,123.9 286.6,123.7 287.8,123.5 289.0,123.4 290.1,123.2 291.3,123.0 292.5,122.9 293.7,122.7 294.9,122.5 296.1,122.3 297.3,122.1 298.5,121.9 299.6,121.8 300.8,121.6 302.0,121.4 303.2,121.2 304.4,121.0 305.6,120.9 306.8,120.7 307.9,120.5 309.1,120.4 310.3,120.2 311.5,120.0 312.7,119.9 313.9,119.7 315.1,119.6 316.3,119.4 317.4,119.3 318.6,119.1 319.8,118.9 321.0,118.8 322.2,118.6 323.4,118.4 324.6,118.3 325.7,118.1 326.9,117.9 328.1,117.8 329.3,117.6 330.5,117.4 331.7,117.3 332.9,117.1 334.1,117.0 335.2,116.8 336.4,116.7 337.6,116.5 338.8,116.4 340.0,116.3 341.2,116.2 342.4,116.1 343.5,116.0 344.7,115.9 345.9,115.8 347.1,115.7 348.3,115.6 349.5,115.5 350.7,115.4 351.9,115.3 353.0,115.2 354.2,115.2 355.4,115.1 356.6,115.0 357.8,114.9 359.0,114.9 360.2,114.8 361.3,114.7 362.5,114.7 363.7,114.7 364.9,114.7 366.1,114.6 367.3,114.6 368.5,114.6 369.7,114.6 370.8,114.6 372.0,114.6 373.2,114.7 374.4,114.7 375.6,114.7 376.8,114.7 378.0,114.8 379.1,114.8 380.3,114.9 381.5,114.9 382.7,115.0 383.9,115.0 385.1,115.1 386.3,115.2 387.5,115.2 388.6,115.3 389.8,115.4 391.0,115.5 392.2,115.5 393.4,115.6 394.6,115.7 395.8,115.8 396.9,115.9 398.1,116.0 399.3,116.1 400.5,116.2 401.7,116.3 402.9,116.4 404.1,116.5 405.3,116.7 406.4,116.8 407.6,116.9 408.8,117.1 410.0,117.2 411.2,117.4 412.4,117.5 413.6,117.7 414.7,117.9 415.9,118.1 417.1,118.3 418.3,118.5 419.5,118.7 420.7,118.9 421.9,119.1 423.1,119.3 424.2,119.5 425.4,119.6 426.6,119.6 427.8,119.5 429.0,119.2 430.2,118.9 431.4,118.5 432.5,118.0 433.7,117.5 434.9,117.0 436.1,116.5 437.3,116.0 438.5,115.5 439.7,115.0 440.9,114.5 442.0,114.0 443.2,113.5 444.4,113.0 445.6,112.4 446.8,111.9 448.0,111.4 449.2,110.9 450.3,110.3 451.5,109.8 452.7,109.2 453.9,108.7 455.1,108.2 456.3,107.7 457.5,107.2 458.7,106.9 459.8,106.7 461.0,106.5 462.2,106.4 463.4,106.4 464.6,106.3 465.8,106.4 467.0,106.5 468.1,106.6 469.3,106.9 470.5,107.4 471.7,108.0 472.9,109.0 474.1,110.4 475.3,112.4 476.5,115.7 477.6,121.3 478.8,131.5 480.0,148.7 481.2,167.6 482.4,179.9 483.6,187.1 484.8,192.1 485.9,196.1 487.1,199.6 488.3,202.8 489.5,205.8 490.7,208.6 491.9,211.5 493.1,214.3 494.3,217.1 495.4,219.8 496.6,222.4 497.8,224.8 499.0,227.0 500.2,229.1 501.4,231.1 502.6,232.9 503.7,234.6 504.9,236.1 506.1,237.3 507.3,238.3 508.5,238.8 509.7,239.0 510.9,238.6 512.1,237.4 513.2,235.1 514.4,231.5 515.6,226.7 516.8,221.7 518.0,217.1 519.2,213.3 520.4,210.5 521.5,208.6 522.7,207.5 523.9,207.2 525.1,207.5 526.3,208.5 527.5,210.1 528.7,212.1 529.9,214.1 531.0,216.3 532.2,218.5 533.4,220.7 534.6,222.8 535.8,224.8 537.0,226.5 538.2,227.8 539.3,228.5 540.5,228.8 541.7,229.0 542.9,229.1 544.1,228.9 545.3,228.2 546.5,227.1 547.7,225.8 548.8,224.2 550.0,222.5 551.2,220.8 552.4,219.1 553.6,217.4 554.8,215.9 556.0,214.5 557.1,213.5 558.3,212.7 559.5,212.3 560.7,212.1 561.9,212.2 563.1,212.5 564.3,212.9 565.5,213.3 566.6,213.8 567.8,214.2 569.0,214.6 570.2,214.9 571.4,214.9 572.6,214.7 573.8,214.2 574.9,213.5 576.1,212.5 577.3,211.4 578.5,210.0 579.7,208.4 580.9,206.7 582.1,204.8 583.3,202.6 584.4,200.1 585.6,197.2 586.8,194.1 588.0,190.8 589.2,187.4 590.4,184.0 591.6,180.8 592.7,177.8 593.9,175.0 595.1,172.7 596.3,170.7 597.5,169.0 598.7,167.5 599.9,166.2 601.1,164.9 602.2,163.8 603.4,162.8 604.6,161.8 605.8,161.0 607.0,160.2 608.2,159.4 609.4,158.7 610.5,158.0 611.7,157.3 612.9,156.6 614.1,156.0 615.3,155.4 616.5,154.7 617.7,154.1 618.9,153.5 620.0,152.9 621.2,152.3 622.4,151.7 623.6,151.1 624.8,150.5 626.0,149.9 627.2,149.4 628.3,148.8 629.5,148.3 630.7,147.8 631.9,147.2 633.1,146.7 634.3,146.2 635.5,145.7 636.7,145.2 637.8,144.7 639.0,144.2 640.2,143.7 641.4,143.2 642.6,142.7 643.8,142.2 645.0,141.7 646.1,141.2 647.3,140.7 648.5,140.3 649.7,139.8 650.9,139.3 652.1,138.8 653.3,138.3 654.5,137.8 655.6,137.4 656.8,136.9 658.0,136.4 659.2,135.9 660.4,135.4 661.6,134.9 662.8,134.4 663.9,133.9 665.1,133.4 666.3,132.9 667.5,132.4 668.7,131.9 669.9,131.4 671.1,130.9 672.3,130.4 673.4,129.9 674.6,129.4 675.8,128.9 677.0,128.5 678.2,128.0 679.4,127.6 680.6,127.2 681.7,126.8 682.9,126.5 684.1,126.2 685.3,126.0 686.5,125.9 687.7,125.8 688.9,125.9 690.1,126.0 691.2,126.2 692.4,126.6 693.6,127.0 694.8,127.6 696.0,128.4 697.2,129.5 698.4,130.7 699.5,132.3 700.7,134.3 701.9,136.6 703.1,139.4 704.3,142.7 705.5,146.4 706.7,150.6 707.9,155.0 709.0,159.4 710.2,163.7 711.4,167.6 712.6,171.2 713.8,174.6 715.0,177.9 716.2,181.0 717.3,183.9 718.5,186.7 719.7,189.2 720.9,191.7 722.1,194.0 723.3,196.2 724.5,198.2 725.7,200.2 726.8,202.0 728.0,203.6 729.2,205.0 730.4,206.1 731.6,206.9 732.8,207.4 734.0,207.6 735.1,207.6 736.3,207.3 737.5,206.7 738.7,205.8 739.9,204.4 741.1,202.5 742.3,200.1 743.5,197.0 744.6,193.5 745.8,189.6 747.0,185.8 748.2,182.3 749.4,179.3 750.6,177.0 751.8,175.3 752.9,174.2 754.1,173.5 755.3,173.4 756.5,173.6 757.7,174.2 758.9,175.1 760.1,176.2 761.3,177.5 762.4,178.8 763.6,180.2 764.8,181.6 766.0,182.9"/>
<line x1="606" y1="42" x2="628" y2="42" stroke="#0f62fe" stroke-width="2.2"/>
<text x="634" y="46" font-family="Arial" font-size="12">roll_deg</text>
<polyline fill="none" stroke="#24a148" stroke-width="2.2" points="54.0,156.3 55.2,156.2 56.4,156.2 57.6,156.3 58.7,156.4 59.9,156.4 61.1,156.5 62.3,156.5 63.5,156.6 64.7,156.6 65.9,156.7 67.1,156.7 68.2,156.8 69.4,156.8 70.6,156.9 71.8,156.9 73.0,157.0 74.2,157.0 75.4,157.1 76.5,157.1 77.7,157.2 78.9,157.2 80.1,157.2 81.3,157.3 82.5,157.3 83.7,157.4 84.9,157.4 86.0,157.4 87.2,157.5 88.4,157.5 89.6,157.6 90.8,157.6 92.0,157.6 93.2,157.7 94.3,157.7 95.5,157.8 96.7,157.8 97.9,157.8 99.1,157.9 100.3,157.9 101.5,157.9 102.7,158.0 103.8,158.0 105.0,158.0 106.2,158.1 107.4,158.1 108.6,158.1 109.8,158.2 111.0,158.2 112.1,158.2 113.3,158.3 114.5,158.3 115.7,158.3 116.9,158.4 118.1,158.4 119.3,158.4 120.5,158.5 121.6,158.5 122.8,158.5 124.0,158.5 125.2,158.6 126.4,158.6 127.6,158.6 128.8,158.7 129.9,158.7 131.1,158.7 132.3,158.8 133.5,158.8 134.7,158.8 135.9,158.8 137.1,158.9 138.3,158.9 139.4,158.9 140.6,159.0 141.8,159.0 143.0,159.0 144.2,159.1 145.4,159.1 146.6,159.1 147.7,159.2 148.9,159.2 150.1,159.2 151.3,159.3 152.5,159.3 153.7,159.4 154.9,159.4 156.1,159.4 157.2,159.5 158.4,159.5 159.6,159.5 160.8,159.6 162.0,159.6 163.2,159.7 164.4,159.7 165.5,159.8 166.7,159.8 167.9,159.9 169.1,159.9 170.3,160.0 171.5,160.1 172.7,160.1 173.9,160.2 175.0,160.3 176.2,160.4 177.4,160.4 178.6,160.5 179.8,160.6 181.0,160.7 182.2,160.8 183.3,160.9 184.5,161.0 185.7,161.1 186.9,161.2 188.1,161.3 189.3,161.3 190.5,161.4 191.7,161.5 192.8,161.6 194.0,161.7 195.2,161.8 196.4,161.9 197.6,161.9 198.8,162.0 200.0,162.1 201.1,162.2 202.3,162.2 203.5,162.3 204.7,162.4 205.9,162.4 207.1,162.4 208.3,162.4 209.5,162.4 210.6,162.4 211.8,162.4 213.0,162.4 214.2,162.3 215.4,162.3 216.6,162.3 217.8,162.3 218.9,162.2 220.1,162.2 221.3,162.2 222.5,162.3 223.7,162.3 224.9,162.3 226.1,162.4 227.3,162.5 228.4,162.5 229.6,162.6 230.8,162.6 232.0,162.7 233.2,162.7 234.4,162.7 235.6,162.8 236.7,162.8 237.9,162.8 239.1,162.8 240.3,162.8 241.5,162.7 242.7,162.7 243.9,162.7 245.1,162.7 246.2,162.7 247.4,162.7 248.6,162.7 249.8,162.7 251.0,162.8 252.2,162.8 253.4,162.9 254.5,162.9 255.7,163.0 256.9,163.1 258.1,163.1 259.3,163.2 260.5,163.3 261.7,163.3 262.9,163.3 264.0,163.4 265.2,163.4 266.4,163.4 267.6,163.4 268.8,163.4 270.0,163.4 271.2,163.4 272.3,163.4 273.5,163.5 274.7,163.5 275.9,163.5 277.1,163.6 278.3,163.6 279.5,163.7 280.7,163.7 281.8,163.8 283.0,163.9 284.2,164.0 285.4,164.0 286.6,164.1 287.8,164.2 289.0,164.3 290.1,164.3 291.3,164.4 292.5,164.4 293.7,164.5 294.9,164.5 296.1,164.5 297.3,164.5 298.5,164.5 299.6,164.6 300.8,164.6 302.0,164.6 303.2,164.7 304.4,164.7 305.6,164.8 306.8,164.8 307.9,164.9 309.1,165.0 310.3,165.0 311.5,165.1 312.7,165.2 313.9,165.3 315.1,165.4 316.3,165.5 317.4,165.5 318.6,165.6 319.8,165.7 321.0,165.7 322.2,165.8 323.4,165.8 324.6,165.9 325.7,165.9 326.9,165.9 328.1,166.0 329.3,166.0 330.5,166.1 331.7,166.2 332.9,166.2 334.1,166.3 335.2,166.4 336.4,166.5 337.6,166.6 338.8,166.7 340.0,166.8 341.2,167.0 342.4,167.1 343.5,167.2 344.7,167.3 345.9,167.4 347.1,167.5 348.3,167.6 349.5,167.7 350.7,167.8 351.9,167.9 353.0,168.0 354.2,168.1 355.4,168.2 356.6,168.3 357.8,168.4 359.0,168.5 360.2,168.6 361.3,168.7 362.5,168.8 363.7,168.9 364.9,169.0 366.1,169.2 367.3,169.3 368.5,169.4 369.7,169.5 370.8,169.6 372.0,169.7 373.2,169.9 374.4,170.0 375.6,170.1 376.8,170.2 378.0,170.3 379.1,170.4 380.3,170.5 381.5,170.6 382.7,170.7 383.9,170.8 385.1,170.9 386.3,171.0 387.5,171.2 388.6,171.3 389.8,171.4 391.0,171.5 392.2,171.6 393.4,171.7 394.6,171.8 395.8,171.9 396.9,172.0 398.1,172.1 399.3,172.2 400.5,172.4 401.7,172.5 402.9,172.6 404.1,172.7 405.3,172.8 406.4,173.0 407.6,173.1 408.8,173.2 410.0,173.3 411.2,173.4 412.4,173.5 413.6,173.7 414.7,173.8 415.9,173.9 417.1,174.0 418.3,174.1 419.5,174.2 420.7,174.3 421.9,174.4 423.1,174.4 424.2,174.4 425.4,174.3 426.6,174.2 427.8,173.9 429.0,173.6 430.2,173.2 431.4,172.8 432.5,172.4 433.7,172.0 434.9,171.7 436.1,171.3 437.3,171.0 438.5,170.6 439.7,170.3 440.9,170.0 442.0,169.7 443.2,169.5 444.4,169.2 445.6,168.9 446.8,168.7 448.0,168.5 449.2,168.2 450.3,168.0 451.5,167.8 452.7,167.7 453.9,167.6 455.1,167.6 456.3,167.9 457.5,168.3 458.7,169.0 459.8,169.9 461.0,170.9 462.2,172.1 463.4,173.4 464.6,174.9 465.8,176.6 467.0,178.5 468.1,180.6 469.3,182.9 470.5,185.3 471.7,188.0 472.9,190.8 474.1,193.7 475.3,196.8 476.5,199.9 477.6,202.9 478.8,205.5 480.0,206.8 481.2,205.8 482.4,203.0 483.6,199.5 484.8,195.7 485.9,192.0 487.1,188.4 488.3,184.9 489.5,181.5 490.7,178.3 491.9,175.3 493.1,172.6 494.3,170.2 495.4,168.0 496.6,165.9 497.8,164.2 499.0,163.1 500.2,162.4 501.4,162.4 502.6,163.0 503.7,164.1 504.9,165.7 506.1,167.6 507.3,169.9 508.5,172.5 509.7,175.2 510.9,178.2 512.1,181.1 513.2,184.0 514.4,186.6 515.6,188.4 516.8,189.1 518.0,188.7 519.2,187.6 520.4,185.9 521.5,184.0 522.7,181.9 523.9,179.9 525.1,178.0 526.3,176.3 527.5,174.9 528.7,173.7 529.9,173.0 531.0,172.6 532.2,172.7 533.4,173.2 534.6,174.2 535.8,175.5 537.0,177.1 538.2,179.0 539.3,181.0 540.5,182.8 541.7,184.1 542.9,184.9 544.1,185.2 545.3,185.3 546.5,185.2 547.7,185.1 548.8,184.9 550.0,184.7 551.2,184.6 552.4,184.5 553.6,184.3 554.8,184.0 556.0,183.8 557.1,183.5 558.3,183.2 559.5,183.0 560.7,182.8 561.9,182.6 563.1,182.5 564.3,182.5 565.5,182.6 566.6,182.8 567.8,183.1 569.0,183.4 570.2,183.9 571.4,184.6 572.6,185.3 573.8,186.3 574.9,187.4 576.1,188.6 577.3,189.8 578.5,191.2 579.7,192.5 580.9,193.8 582.1,195.1 583.3,196.2 584.4,197.2 585.6,198.1 586.8,198.7 588.0,199.1 589.2,199.3 590.4,199.3 591.6,199.0 592.7,198.6 593.9,198.0 595.1,197.2 596.3,196.4 597.5,195.5 598.7,194.5 599.9,193.5 601.1,192.5 602.2,191.4 603.4,190.3 604.6,189.4 605.8,188.4 607.0,187.5 608.2,186.6 609.4,185.8 610.5,185.0 611.7,184.2 612.9,183.4 614.1,182.7 615.3,182.0 616.5,181.3 617.7,180.7 618.9,180.1 620.0,179.5 621.2,178.9 622.4,178.4 623.6,177.9 624.8,177.4 626.0,176.9 627.2,176.4 628.3,176.0 629.5,175.5 630.7,175.1 631.9,174.7 633.1,174.3 634.3,174.0 635.5,173.6 636.7,173.3 637.8,173.0 639.0,172.6 640.2,172.3 641.4,172.0 642.6,171.8 643.8,171.5 645.0,171.2 646.1,171.0 647.3,170.8 648.5,170.5 649.7,170.3 650.9,170.1 652.1,169.9 653.3,169.7 654.5,169.5 655.6,169.3 656.8,169.2 658.0,169.0 659.2,168.8 660.4,168.7 661.6,168.6 662.8,168.4 663.9,168.3 665.1,168.2 666.3,168.1 667.5,168.0 668.7,167.9 669.9,167.8 671.1,167.7 672.3,167.6 673.4,167.6 674.6,167.6 675.8,167.6 677.0,167.7 678.2,167.8 679.4,167.9 680.6,168.1 681.7,168.4 682.9,168.7 684.1,169.1 685.3,169.5 686.5,170.1 687.7,170.7 688.9,171.4 690.1,172.2 691.2,173.2 692.4,174.3 693.6,175.5 694.8,176.8 696.0,178.2 697.2,179.7 698.4,181.2 699.5,182.7 700.7,184.1 701.9,185.5 703.1,186.7 704.3,187.7 705.5,188.3 706.7,188.6 707.9,188.3 709.0,187.6 710.2,186.2 711.4,184.5 712.6,182.8 713.8,181.1 715.0,179.5 716.2,178.0 717.3,176.6 718.5,175.1 719.7,173.7 720.9,172.4 722.1,171.3 723.3,170.5 724.5,169.9 725.7,169.5 726.8,169.4 728.0,169.6 729.2,170.1 730.4,170.9 731.6,172.1 732.8,173.5 734.0,175.4 735.1,177.5 736.3,179.8 737.5,182.3 738.7,184.9 739.9,187.5 741.1,189.9 742.3,192.1 743.5,193.9 744.6,195.3 745.8,196.2 747.0,196.6 748.2,196.5 749.4,196.1 750.6,195.4 751.8,194.5 752.9,193.4 754.1,192.2 755.3,190.9 756.5,189.7 757.7,188.6 758.9,187.4 760.1,186.3 761.3,185.3 762.4,184.2 763.6,183.2 764.8,182.3 766.0,181.4"/>
<line x1="606" y1="60" x2="628" y2="60" stroke="#24a148" stroke-width="2.2"/>
<text x="634" y="64" font-family="Arial" font-size="12">pitch_deg</text>
<polyline fill="none" stroke="#da1e28" stroke-width="2.2" points="54.0,160.4 55.2,160.5 56.4,160.6 57.6,160.7 58.7,160.8 59.9,161.0 61.1,161.1 62.3,161.2 63.5,161.3 64.7,161.4 65.9,161.5 67.1,161.6 68.2,161.7 69.4,161.9 70.6,162.0 71.8,162.1 73.0,162.2 74.2,162.3 75.4,162.4 76.5,162.5 77.7,162.6 78.9,162.7 80.1,162.8 81.3,162.9 82.5,163.0 83.7,163.1 84.9,163.2 86.0,163.3 87.2,163.4 88.4,163.4 89.6,163.5 90.8,163.6 92.0,163.7 93.2,163.8 94.3,163.8 95.5,163.9 96.7,164.0 97.9,164.0 99.1,164.1 100.3,164.2 101.5,164.2 102.7,164.3 103.8,164.4 105.0,164.4 106.2,164.5 107.4,164.5 108.6,164.6 109.8,164.6 111.0,164.7 112.1,164.7 113.3,164.8 114.5,164.8 115.7,164.9 116.9,164.9 118.1,165.0 119.3,165.0 120.5,165.1 121.6,165.2 122.8,165.2 124.0,165.3 125.2,165.3 126.4,165.4 127.6,165.4 128.8,165.5 129.9,165.6 131.1,165.6 132.3,165.7 133.5,165.8 134.7,165.9 135.9,165.9 137.1,166.0 138.3,166.1 139.4,166.2 140.6,166.3 141.8,166.4 143.0,166.5 144.2,166.6 145.4,166.8 146.6,166.9 147.7,167.0 148.9,167.1 150.1,167.3 151.3,167.4 152.5,167.6 153.7,167.7 154.9,167.9 156.1,168.1 157.2,168.3 158.4,168.5 159.6,168.7 160.8,168.9 162.0,169.1 163.2,169.3 164.4,169.6 165.5,169.8 166.7,170.1 167.9,170.4 169.1,170.6 170.3,170.9 171.5,171.2 172.7,171.6 173.9,171.9 175.0,172.2 176.2,172.6 177.4,173.0 178.6,173.3 179.8,173.7 181.0,174.1 182.2,174.5 183.3,174.9 184.5,175.2 185.7,175.6 186.9,175.9 188.1,176.3 189.3,176.6 190.5,176.9 191.7,177.2 192.8,177.6 194.0,177.9 195.2,178.2 196.4,178.5 197.6,178.8 198.8,179.1 200.0,179.3 201.1,179.6 202.3,179.9 203.5,180.1 204.7,180.3 205.9,180.5 207.1,180.6 208.3,180.6 209.5,180.6 210.6,180.6 211.8,180.6 213.0,180.5 214.2,180.4 215.4,180.4 216.6,180.3 217.8,180.3 218.9,180.3 220.1,180.4 221.3,180.5 222.5,180.7 223.7,180.9 224.9,181.1 226.1,181.4 227.3,181.7 228.4,182.0 229.6,182.4 230.8,182.7 232.0,183.0 233.2,183.3 234.4,183.5 235.6,183.7 236.7,183.9 237.9,184.0 239.1,184.1 240.3,184.2 241.5,184.2 242.7,184.3 243.9,184.4 245.1,184.5 246.2,184.6 247.4,184.7 248.6,184.9 249.8,185.2 251.0,185.5 252.2,185.8 253.4,186.2 254.5,186.6 255.7,187.0 256.9,187.4 258.1,187.8 259.3,188.1 260.5,188.5 261.7,188.8 262.9,189.1 264.0,189.4 265.2,189.6 266.4,189.8 267.6,190.0 268.8,190.2 270.0,190.4 271.2,190.6 272.3,190.7 273.5,190.9 274.7,191.1 275.9,191.4 277.1,191.6 278.3,191.9 279.5,192.2 280.7,192.6 281.8,193.0 283.0,193.3 284.2,193.7 285.4,194.1 286.6,194.5 287.8,194.8 289.0,195.2 290.1,195.5 291.3,195.8 292.5,196.0 293.7,196.3 294.9,196.5 296.1,196.7 297.3,196.9 298.5,197.1 299.6,197.3 300.8,197.6 302.0,197.8 303.2,198.0 304.4,198.3 305.6,198.6 306.8,198.9 307.9,199.3 309.1,199.6 310.3,200.0 311.5,200.4 312.7,200.8 313.9,201.1 315.1,201.5 316.3,201.9 317.4,202.2 318.6,202.5 319.8,202.8 321.0,203.1 322.2,203.4 323.4,203.6 324.6,203.9 325.7,204.1 326.9,204.4 328.1,204.6 329.3,204.9 330.5,205.2 331.7,205.5 332.9,205.8 334.1,206.1 335.2,206.5 336.4,206.9 337.6,207.4 338.8,207.8 340.0,208.3 341.2,208.9 342.4,209.4 343.5,209.9 344.7,210.5 345.9,211.1 347.1,211.6 348.3,212.2 349.5,212.8 350.7,213.3 351.9,213.9 353.0,214.5 354.2,215.0 355.4,215.6 356.6,216.2 357.8,216.8 359.0,217.4 360.2,218.1 361.3,218.7 362.5,219.4 363.7,220.2 364.9,220.9 366.1,221.7 367.3,222.5 368.5,223.4 369.7,224.2 370.8,225.0 372.0,225.8 373.2,226.7 374.4,227.6 375.6,228.4 376.8,229.3 378.0,230.2 379.1,231.1 380.3,232.0 381.5,233.0 382.7,233.9 383.9,234.8 385.1,235.8 386.3,236.8 387.5,237.7 388.6,238.7 389.8,239.7 391.0,240.7 392.2,241.7 393.4,242.7 394.6,243.7 395.8,244.7 396.9,245.7 398.1,246.7 399.3,247.7 400.5,248.8 401.7,249.8 402.9,250.8 404.1,251.9 405.3,252.9 406.4,254.0 407.6,255.1 408.8,256.3 410.0,257.4 411.2,258.6 412.4,259.8 413.6,261.0 414.7,262.2 415.9,263.4 417.1,264.7 418.3,266.0 419.5,54.1 420.7,55.5 421.9,56.8 423.1,58.1 424.2,59.3 425.4,60.3 426.6,61.2 427.8,61.8 429.0,62.2 430.2,62.2 431.4,62.1 432.5,61.7 433.7,61.3 434.9,60.9 436.1,60.5 437.3,60.1 438.5,59.8 439.7,59.4 440.9,59.0 442.0,58.6 443.2,58.2 444.4,57.8 445.6,57.4 446.8,56.9 448.0,56.5 449.2,56.1 450.3,55.6 451.5,55.2 452.7,54.8 453.9,54.4 455.1,54.1 456.3,54.0 457.5,54.2 458.7,54.9 459.8,55.9 461.0,57.2 462.2,58.5 463.4,59.8 464.6,61.0 465.8,62.3 467.0,63.6 468.1,65.0 469.3,66.4 470.5,68.0 471.7,69.7 472.9,71.7 474.1,74.1 475.3,77.2 476.5,81.5 477.6,88.0 478.8,99.1 480.0,117.2 481.2,137.0 482.4,150.0 483.6,157.9 484.8,163.5 485.9,168.1 487.1,172.2 488.3,176.0 489.5,179.7 490.7,183.4 491.9,187.2 493.1,191.2 494.3,195.5 495.4,200.2 496.6,204.9 497.8,208.9 499.0,212.5 500.2,215.8 501.4,218.7 502.6,221.4 503.7,223.9 504.9,226.1 506.1,228.0 507.3,229.6 508.5,230.7 509.7,231.3 510.9,231.0 512.1,229.9 513.2,227.5 514.4,223.6 515.6,218.5 516.8,213.4 518.0,209.0 519.2,205.6 520.4,203.3 521.5,202.2 522.7,202.0 523.9,202.5 525.1,203.7 526.3,205.5 527.5,207.7 528.7,210.3 529.9,212.4 531.0,213.8 532.2,214.6 533.4,214.9 534.6,214.6 535.8,213.9 537.0,212.7 538.2,210.8 539.3,208.3 540.5,205.6 541.7,203.4 542.9,201.7 544.1,200.2 545.3,198.6 546.5,196.9 547.7,195.2 548.8,193.5 550.0,191.9 551.2,190.2 552.4,188.7 553.6,187.1 554.8,185.6 556.0,184.0 557.1,182.6 558.3,181.1 559.5,179.7 560.7,178.2 561.9,176.8 563.1,175.3 564.3,173.9 565.5,172.4 566.6,171.0 567.8,169.5 569.0,168.1 570.2,166.6 571.4,165.1 572.6,163.6 573.8,162.0 574.9,160.4 576.1,158.7 577.3,156.8 578.5,154.8 579.7,152.6 580.9,150.1 582.1,147.3 583.3,144.2 584.4,140.8 585.6,137.1 586.8,133.2 588.0,129.0 589.2,124.9 590.4,120.8 591.6,117.0 592.7,113.5 593.9,110.4 595.1,107.7 596.3,105.4 597.5,103.4 598.7,101.6 599.9,99.9 601.1,98.4 602.2,97.0 603.4,95.7 604.6,94.5 605.8,93.4 607.0,92.4 608.2,91.4 609.4,90.5 610.5,89.6 611.7,88.7 612.9,87.9 614.1,87.1 615.3,86.4 616.5,85.7 617.7,84.9 618.9,84.2 620.0,83.6 621.2,82.9 622.4,82.3 623.6,81.6 624.8,81.0 626.0,80.4 627.2,79.8 628.3,79.2 629.5,78.7 630.7,78.1 631.9,77.5 633.1,77.0 634.3,76.4 635.5,75.9 636.7,75.4 637.8,74.8 639.0,74.3 640.2,73.8 641.4,73.3 642.6,72.8 643.8,72.3 645.0,71.8 646.1,71.3 647.3,70.8 648.5,70.3 649.7,69.9 650.9,69.4 652.1,68.9 653.3,68.5 654.5,68.1 655.6,67.6 656.8,67.2 658.0,66.8 659.2,66.4 660.4,66.0 661.6,65.6 662.8,65.2 663.9,64.9 665.1,64.5 666.3,64.2 667.5,63.8 668.7,63.5 669.9,63.2 671.1,62.9 672.3,62.7 673.4,62.5 674.6,62.3 675.8,62.3 677.0,62.3 678.2,62.5 679.4,62.8 680.6,63.2 681.7,63.9 682.9,64.7 684.1,65.7 685.3,67.0 686.5,68.6 687.7,70.4 688.9,72.3 690.1,74.3 691.2,76.5 692.4,78.8 693.6,81.3 694.8,83.9 696.0,86.7 697.2,89.7 698.4,93.0 699.5,96.7 700.7,100.6 701.9,105.0 703.1,109.9 704.3,115.2 705.5,121.0 706.7,127.2 707.9,133.6 709.0,140.1 710.2,146.3 711.4,152.3 712.6,158.0 713.8,163.5 715.0,168.8 716.2,174.1 717.3,179.1 718.5,183.8 719.7,188.1 720.9,192.1 722.1,195.6 723.3,198.6 724.5,201.1 725.7,202.9 726.8,204.1 728.0,204.5 729.2,204.2 730.4,203.2 731.6,201.5 732.8,199.4 734.0,197.0 735.1,194.6 736.3,192.2 737.5,189.7 738.7,187.1 739.9,184.4 741.1,181.4 742.3,178.0 743.5,174.3 744.6,170.2 745.8,166.0 747.0,161.9 748.2,158.4 749.4,155.5 750.6,153.4 751.8,152.0 752.9,151.3 754.1,151.2 755.3,151.6 756.5,152.4 757.7,153.5 758.9,154.9 760.1,156.3 761.3,157.9 762.4,159.4 763.6,160.9 764.8,162.3 766.0,163.5"/>
<line x1="606" y1="78" x2="628" y2="78" stroke="#da1e28" stroke-width="2.2"/>
<text x="634" y="82" font-family="Arial" font-size="12">yaw_deg</text>
</svg>