<svg xmlns="http://www.w3.org/2000/svg" width="820" height="320" viewBox="0 0 820 320">
<rect width="100%" height="100%" fill="#ffffff"/>
<text x="54" y="28" font-family="Arial" font-size="18" font-weight="700">Body Rates</text>
<line x1="54" y1="266" x2="766" y2="266" stroke="#1f2933"/>
<line x1="54" y1="54" x2="54" y2="266" stroke="#1f2933"/>
<text x="54" y="306" font-family="Arial" font-size="12">time (s)</text>
<text x="596" y="306" font-family="Arial" font-size="12">rate (deg/s)</text>
<text x="58" y="68" font-family="Arial" font-size="11">278</text>
<text x="58" y="260" font-family="Arial" font-size="11">-268</text>
<polyline fill="none" stroke="#0f62fe" stroke-width="2.2" points="54.0,162.1 55.2,161.4 56.4,160.9 57.6,160.6 58.7,160.5 59.9,160.5 61.1,160.6 62.3,160.6 63.5,160.6 64.7,160.6 65.9,160.5 67.1,160.5 68.2,160.5 69.4,160.5 70.6,160.4 71.8,160.4 73.0,160.4 74.2,160.4 75.4,160.3 76.5,160.3 77.7,160.3 78.9,160.3 80.1,160.3 81.3,160.3 82.5,160.2 83.7,160.2 84.9,160.2 86.0,160.2 87.2,160.2 88.4,160.1 89.6,160.1 90.8,160.1 92.0,160.1 93.2,160.1 94.3,160.0 95.5,160.0 96.7,160.0 97.9,159.9 99.1,159.9 100.3,159.9 101.5,159.8 102.7,159.8 103.8,159.7 105.0,159.7 106.2,159.6 107.4,159.6 108.6,159.5 109.8,159.5 111.0,159.4 112.1,159.3 113.3,159.2 114.5,159.2 115.7,159.1 116.9,159.0 118.1,158.9 119.3,158.8 120.5,158.7 121.6,158.6 122.8,158.5 124.0,158.3 125.2,158.2 126.4,158.1 127.6,157.9 128.8,157.8 129.9,157.7 131.1,157.5 132.3,157.3 133.5,157.2 134.7,157.0 135.9,156.8 137.1,156.6 138.3,156.4 139.4,156.2 140.6,156.0 141.8,155.8 143.0,155.6 144.2,155.6 145.4,155.7 146.6,155.7 147.7,155.7 148.9,155.7 150.1,155.7 151.3,155.7 152.5,155.7 153.7,155.7 154.9,155.7 156.1,155.7 157.2,155.8 158.4,155.8 159.6,155.8 160.8,155.8 162.0,155.8 163.2,155.9 164.4,155.9 165.5,155.9 166.7,156.0 167.9,156.0 169.1,156.0 170.3,156.1 171.5,156.1 172.7,156.2 173.9,156.2 175.0,156.3 176.2,156.4 177.4,156.4 178.6,156.5 179.8,156.6 181.0,156.6 182.2,156.7 183.3,156.8 184.5,156.8 185.7,156.9 186.9,157.0 188.1,157.0 189.3,157.1 190.5,157.1 191.7,157.2 192.8,157.3 194.0,157.3 195.2,157.4 196.4,157.4 197.6,157.5 198.8,157.5 200.0,157.6 201.1,157.6 202.3,157.6 203.5,157.7 204.7,157.7 205.9,157.7 207.1,157.7 208.3,157.7 209.5,157.7 210.6,157.6 211.8,157.6 213.0,157.5 214.2,157.5 215.4,157.5 216.6,157.4 217.8,157.4 218.9,157.4 220.1,157.3 221.3,157.3 222.5,157.4 223.7,157.4 224.9,157.4 226.1,157.4 227.3,157.5 228.4,157.5 229.6,157.6 230.8,157.6 232.0,157.6 233.2,157.6 234.4,157.7 235.6,157.7 236.7,157.6 237.9,157.6 239.1,157.6 240.3,157.6 241.5,157.5 242.7,157.5 243.9,157.5 245.1,157.4 246.2,157.4 247.4,157.4 248.6,157.4 249.8,157.4 251.0,157.4 252.2,157.4 253.4,157.4 254.5,157.5 255.7,157.5 256.9,157.5 258.1,157.6 259.3,157.6 260.5,157.6 261.7,157.6 262.9,157.6 264.0,157.6 265.2,157.6 266.4,157.6 267.6,157.6 268.8,157.5 270.0,157.5 271.2,157.5 272.3,157.5 273.5,157.5 274.7,157.4 275.9,157.4 277.1,157.4 278.3,157.4 279.5,157.5 280.7,157.5 281.8,157.5 283.0,157.5 284.2,157.5 285.4,157.5 286.6,157.6 287.8,157.6 289.0,157.6 290.1,157.6 291.3,157.6 292.5,157.6 293.7,157.6 294.9,157.6 296.1,157.5 297.3,157.5 298.5,157.5 299.6,157.5 300.8,157.5 302.0,157.5 303.2,157.5 304.4,157.5 305.6,157.5 306.8,157.5 307.9,157.5 309.1,157.5 310.3,157.5 311.5,157.5 312.7,157.5 313.9,157.5 315.1,157.6 316.3,157.6 317.4,157.6 318.6,157.6 319.8,157.6 321.0,157.6 322.2,157.6 323.4,157.5 324.6,157.5 325.7,157.5 326.9,157.5 328.1,157.5 329.3,157.5 330.5,157.5 331.7,157.5 332.9,157.5 334.1,157.5 335.2,157.5 336.4,157.5 337.6,157.5 338.8,157.5 340.0,157.5 341.2,157.5 342.4,157.5 343.5,157.5 344.7,157.5 345.9,157.5 347.1,157.5 348.3,157.5 349.5,157.5 350.7,157.5 351.9,157.5 353.0,157.5 354.2,157.5 355.4,157.5 356.6,157.5 357.8,157.5 359.0,157.5 360.2,157.5 361.3,157.4 362.5,157.4 363.7,157.4 364.9,157.4 366.1,157.4 367.3,157.4 368.5,157.4 369.7,157.4 370.8,157.4 372.0,157.4 373.2,157.4 374.4,157.4 375.6,157.3 376.8,157.3 378.0,157.3 379.1,157.3 380.3,157.3 381.5,157.2 382.7,157.2 383.9,157.2 385.1,157.2 386.3,157.1 387.5,157.1 388.6,157.1 389.8,157.0 391.0,157.0 392.2,157.0 393.4,156.9 394.6,156.9 395.8,156.9 396.9,156.8 398.1,156.8 399.3,156.7 400.5,156.7 401.7,156.6 402.9,156.6 404.1,156.5 405.3,156.4 406.4,156.4 407.6,156.3 408.8,156.2 410.0,156.2 411.2,156.1 412.4,156.0 413.6,155.9 414.7,155.8 415.9,155.7 417.1,155.6 418.3,155.5 419.5,155.4 420.7,155.3 421.9,155.2 423.1,155.0 424.2,154.9 425.4,154.8 426.6,154.7 427.8,154.6 429.0,154.5 430.2,154.4 431.4,154.3 432.5,154.2 433.7,154.1 434.9,154.0 436.1,153.9 437.3,153.8 438.5,153.7 439.7,153.6 440.9,153.5 442.0,153.4 443.2,153.2 444.4,153.1 445.6,153.0 446.8,152.9 448.0,152.7 449.2,152.6 450.3,152.4 451.5,152.3 452.7,152.2 453.9,152.0 455.1,151.9 456.3,151.7 457.5,151.6 458.7,151.4 459.8,151.3 461.0,151.1 462.2,150.9 463.4,150.7 464.6,150.5 465.8,150.3 467.0,150.2 468.1,150.0 469.3,150.0 470.5,150.0 471.7,150.0 472.9,150.0 474.1,150.0 475.3,149.9 476.5,149.9 477.6,149.9 478.8,150.6 480.0,152.0 481.2,153.9 482.4,156.2 483.6,158.9 484.8,162.2 485.9,165.8 487.1,169.4 488.3,173.2 489.5,177.1 490.7,181.1 491.9,185.1 493.1,189.2 494.3,193.1 495.4,196.7 496.6,199.8 497.8,202.0 499.0,203.2 500.2,203.0 501.4,201.5 502.6,198.5 503.7,193.8 504.9,188.0 506.1,181.4 507.3,174.1 508.5,167.2 509.7,160.7 510.9,154.8 512.1,149.4 513.2,144.7 514.4,140.7 515.6,137.4 516.8,135.1 518.0,133.7 519.2,133.5 520.4,134.7 521.5,137.4 522.7,141.8 523.9,147.9 525.1,155.9 526.3,165.4 527.5,174.5 528.7,183.1 529.9,191.0 531.0,197.9 532.2,203.6 533.4,208.0 534.6,211.0 535.8,212.4 537.0,212.4 538.2,210.7 539.3,207.5 540.5,202.8 541.7,196.5 542.9,188.9 544.1,180.1 545.3,170.8 546.5,163.0 547.7,156.8 548.8,152.2 550.0,149.0 551.2,147.3 552.4,146.9 553.6,147.9 554.8,150.3 556.0,153.9 557.1,158.9 558.3,165.2 559.5,172.4 560.7,178.4 561.9,183.2 563.1,187.0 564.3,189.6 565.5,191.3 566.6,192.0 567.8,191.6 569.0,190.2 570.2,187.8 571.4,184.3 572.6,179.8 573.8,174.7 574.9,170.9 576.1,168.4 577.3,166.9 578.5,166.5 579.7,167.1 580.9,168.6 582.1,171.1 583.3,172.6 584.4,172.6 585.6,171.8 586.8,171.2 588.0,171.0 589.2,171.1 590.4,170.0 591.6,167.6 592.7,165.0 593.9,163.2 595.1,162.5 596.3,162.7 597.5,163.0 598.7,163.1 599.9,162.9 601.1,162.5 602.2,162.1 603.4,161.7 604.6,161.3 605.8,161.1 607.0,160.8 608.2,160.5 609.4,160.1 610.5,159.8 611.7,159.4 612.9,159.1 614.1,158.7 615.3,158.3 616.5,157.9 617.7,157.5 618.9,157.1 620.0,156.7 621.2,156.3 622.4,156.0 623.6,155.9 624.8,155.9 626.0,155.9 627.2,155.9 628.3,155.9 629.5,155.8 630.7,155.7 631.9,155.7 633.1,155.6 634.3,155.5 635.5,155.5 636.7,155.4 637.8,155.3 639.0,155.3 640.2,155.2 641.4,155.1 642.6,155.0 643.8,155.0 645.0,154.9 646.1,154.8 647.3,154.7 648.5,154.6 649.7,154.5 650.9,154.4 652.1,154.3 653.3,154.2 654.5,154.1 655.6,154.0 656.8,153.9 658.0,153.8 659.2,153.6 660.4,153.5 661.6,153.4 662.8,153.3 663.9,153.1 665.1,153.0 666.3,152.9 667.5,152.7 668.7,152.6 669.9,152.5 671.1,152.3 672.3,152.2 673.4,152.0 674.6,151.9 675.8,151.7 677.0,151.6 678.2,151.4 679.4,151.3 680.6,151.1 681.7,150.9 682.9,150.7 684.1,150.5 685.3,150.3 686.5,150.2 687.7,150.2 688.9,150.1 690.1,150.1 691.2,150.1 692.4,150.1 693.6,150.0 694.8,150.0 696.0,150.0 697.2,150.0 698.4,149.9 699.5,149.9 700.7,149.9 701.9,149.8 703.1,150.0 704.3,150.8 705.5,152.2 706.7,153.7 707.9,155.3 709.0,156.9 710.2,158.4 711.4,160.2 712.6,162.5 713.8,165.1 715.0,167.9 716.2,170.8 717.3,174.0 718.5,177.3 719.7,180.6 720.9,183.9 722.1,187.0 723.3,189.9 724.5,192.4 725.7,194.0 726.8,194.9 728.0,195.0 729.2,194.4 730.4,193.1 731.6,191.3 732.8,189.4 734.0,187.5 735.1,185.4 736.3,183.0 737.5,180.2 738.7,176.9 739.9,173.1 741.1,169.6 742.3,166.2 743.5,163.0 744.6,160.1 745.8,157.5 747.0,155.2 748.2,153.3 749.4,151.8 750.6,150.8 751.8,150.2 752.9,150.3 754.1,150.9 755.3,152.2 756.5,154.1 757.7,156.8 758.9,160.0 760.1,163.6 761.3,166.7 762.4,169.4 763.6,171.7 764.8,173.6 766.0,175.1"/>
<line x1="606" y1="42" x2="628" y2="42" stroke="#0f62fe" stroke-width="2.2"/>
<text x="634" y="46" font-family="Arial" font-size="12">p_dps</text>
<polyline fill="none" stroke="#24a148" stroke-width="2.2" points="54.0,162.1 55.2,164.6 56.4,162.2 57.6,159.9 58.7,160.0 59.9,161.0 61.1,161.3 62.3,161.1 63.5,160.9 64.7,160.9 65.9,161.0 67.1,161.1 68.2,161.1 69.4,161.1 70.6,161.1 71.8,161.1 73.0,161.2 74.2,161.2 75.4,161.2 76.5,161.2 77.7,161.2 78.9,161.3 80.1,161.3 81.3,161.3 82.5,161.3 83.7,161.3 84.9,161.3 86.0,161.3 87.2,161.4 88.4,161.4 89.6,161.4 90.8,161.4 92.0,161.4 93.2,161.4 94.3,161.4 95.5,161.4 96.7,161.5 97.9,161.5 99.1,161.5 100.3,161.5 101.5,161.5 102.7,161.5 103.8,161.5 105.0,161.5 106.2,161.5 107.4,161.5 108.6,161.5 109.8,161.5 111.0,161.5 112.1,161.6 113.3,161.6 114.5,161.6 115.7,161.6 116.9,161.6 118.1,161.6 119.3,161.6 120.5,161.6 121.6,161.6 122.8,161.6 124.0,161.7 125.2,161.7 126.4,161.7 127.6,161.7 128.8,161.7 129.9,161.7 131.1,161.8 132.3,161.8 133.5,161.8 134.7,161.8 135.9,161.9 137.1,161.9 138.3,161.9 139.4,162.0 140.6,162.0 141.8,162.0 143.0,162.1 144.2,162.1 145.4,162.2 146.6,162.2 147.7,162.3 148.9,162.3 150.1,162.4 151.3,162.5 152.5,162.5 153.7,162.6 154.9,162.7 156.1,162.8 157.2,162.9 158.4,163.0 159.6,163.1 160.8,163.2 162.0,163.3 163.2,163.4 164.4,163.5 165.5,163.6 166.7,163.7 167.9,163.8 169.1,163.9 170.3,164.0 171.5,164.1 172.7,164.2 173.9,164.3 175.0,164.4 176.2,164.5 177.4,164.6 178.6,164.8 179.8,164.9 181.0,164.9 182.2,164.9 183.3,164.8 184.5,164.7 185.7,164.7 186.9,164.7 188.1,164.7 189.3,164.6 190.5,164.6 191.7,164.6 192.8,164.6 194.0,164.6 195.2,164.6 196.4,164.5 197.6,164.5 198.8,164.5 200.0,164.5 201.1,164.5 202.3,164.5 203.5,164.2 204.7,164.0 205.9,163.6 207.1,163.3 208.3,162.8 209.5,162.4 210.6,162.0 211.8,161.8 213.0,161.6 214.2,161.5 215.4,161.6 216.6,161.9 217.8,162.2 218.9,162.6 220.1,163.1 221.3,163.7 222.5,164.2 223.7,164.7 224.9,165.3 226.1,165.8 227.3,166.1 228.4,166.4 229.6,166.4 230.8,166.4 232.0,166.1 233.2,165.9 234.4,165.5 235.6,165.1 236.7,164.6 237.9,164.2 239.1,163.8 240.3,163.6 241.5,163.4 242.7,163.4 243.9,163.5 245.1,163.8 246.2,164.2 247.4,164.8 248.6,165.4 249.8,166.0 251.0,166.7 252.2,167.3 253.4,167.8 254.5,168.3 255.7,168.3 256.9,168.1 258.1,168.0 259.3,167.9 260.5,167.6 261.7,167.4 262.9,167.0 264.0,166.6 265.2,166.2 266.4,165.8 267.6,165.5 268.8,165.3 270.0,165.2 271.2,165.2 272.3,165.3 273.5,165.5 274.7,165.8 275.9,166.2 277.1,166.6 278.3,167.0 279.5,167.5 280.7,167.8 281.8,168.2 283.0,168.4 284.2,168.5 285.4,168.5 286.6,168.4 287.8,168.3 289.0,168.0 290.1,167.7 291.3,167.3 292.5,166.9 293.7,166.6 294.9,166.3 296.1,166.0 297.3,165.9 298.5,165.9 299.6,165.9 300.8,166.1 302.0,166.4 303.2,166.7 304.4,167.1 305.6,167.5 306.8,167.9 307.9,168.3 309.1,168.6 310.3,168.9 311.5,169.1 312.7,169.1 313.9,169.1 315.1,168.9 316.3,168.7 317.4,168.4 318.6,168.0 319.8,167.7 321.0,167.6 322.2,167.4 323.4,167.1 324.6,166.9 325.7,166.8 326.9,166.8 328.1,166.9 329.3,167.1 330.5,167.4 331.7,167.8 332.9,168.3 334.1,168.8 335.2,169.4 336.4,170.0 337.6,170.6 338.8,171.2 340.0,171.7 341.2,172.2 342.4,172.6 343.5,172.8 344.7,173.1 345.9,173.2 347.1,173.3 348.3,173.3 349.5,173.3 350.7,173.3 351.9,173.3 353.0,173.3 354.2,173.4 355.4,173.5 356.6,173.8 357.8,174.1 359.0,174.4 360.2,174.9 361.3,175.5 362.5,176.1 363.7,176.8 364.9,177.5 366.1,178.0 367.3,178.1 368.5,178.2 369.7,178.4 370.8,178.6 372.0,178.8 373.2,179.1 374.4,179.3 375.6,179.5 376.8,179.7 378.0,179.9 379.1,180.1 380.3,180.2 381.5,180.4 382.7,180.6 383.9,180.7 385.1,180.8 386.3,181.0 387.5,181.1 388.6,181.2 389.8,181.3 391.0,181.4 392.2,181.5 393.4,181.5 394.6,181.6 395.8,181.7 396.9,181.7 398.1,181.8 399.3,181.8 400.5,181.9 401.7,181.9 402.9,181.9 404.1,181.9 405.3,182.2 406.4,182.6 407.6,183.0 408.8,183.3 410.0,183.6 411.2,184.0 412.4,184.3 413.6,184.6 414.7,184.9 415.9,185.2 417.1,185.6 418.3,185.9 419.5,186.2 420.7,186.5 421.9,186.8 423.1,186.2 424.2,184.6 425.4,182.2 426.6,179.2 427.8,175.6 429.0,171.4 430.2,166.4 431.4,161.6 432.5,158.4 433.7,156.9 434.9,156.5 436.1,156.5 437.3,156.4 438.5,156.2 439.7,155.9 440.9,155.6 442.0,155.3 443.2,154.9 444.4,154.6 445.6,154.2 446.8,154.0 448.0,153.7 449.2,153.4 450.3,153.2 451.5,153.1 452.7,153.3 453.9,154.0 455.1,156.0 456.3,160.2 457.5,166.8 458.7,176.3 459.8,184.1 461.0,188.2 462.2,189.5 463.4,189.3 464.6,188.7 465.8,188.2 467.0,188.0 468.1,187.9 469.3,188.0 470.5,188.1 471.7,188.2 472.9,188.3 474.1,188.4 475.3,188.5 476.5,188.5 477.6,188.6 478.8,188.7 480.0,188.7 481.2,188.6 482.4,188.5 483.6,183.0 484.8,172.6 485.9,159.8 487.1,147.0 488.3,134.1 489.5,121.3 490.7,108.5 491.9,95.7 493.1,82.9 494.3,70.1 495.4,57.2 496.6,54.0 497.8,66.8 499.0,79.6 500.2,92.4 501.4,105.3 502.6,118.1 503.7,130.9 504.9,143.7 506.1,156.5 507.3,169.3 508.5,182.2 509.7,195.0 510.9,207.8 512.1,220.6 513.2,233.4 514.4,246.2 515.6,250.3 516.8,237.4 518.0,224.6 519.2,211.8 520.4,199.0 521.5,186.2 522.7,173.4 523.9,160.5 525.1,147.7 526.3,134.9 527.5,122.1 528.7,111.9 529.9,120.4 531.0,133.2 532.2,146.0 533.4,158.8 534.6,171.6 535.8,184.5 537.0,197.3 538.2,210.1 539.3,222.9 540.5,220.9 541.7,208.1 542.9,195.3 544.1,187.9 545.3,186.4 546.5,186.7 547.7,186.3 548.8,186.7 550.0,187.2 551.2,187.4 552.4,187.4 553.6,187.3 554.8,187.2 556.0,187.2 557.1,187.2 558.3,187.2 559.5,187.2 560.7,187.1 561.9,187.1 563.1,187.2 564.3,187.2 565.5,187.2 566.6,187.3 567.8,187.3 569.0,187.4 570.2,187.4 571.4,187.4 572.6,187.5 573.8,187.5 574.9,187.5 576.1,187.4 577.3,187.4 578.5,187.4 579.7,187.4 580.9,187.4 582.1,187.5 583.3,187.6 584.4,187.6 585.6,187.6 586.8,187.6 588.0,187.6 589.2,187.5 590.4,187.5 591.6,187.5 592.7,187.5 593.9,187.4 595.1,187.3 596.3,187.3 597.5,187.4 598.7,187.4 599.9,187.4 601.1,187.4 602.2,187.4 603.4,186.7 604.6,184.6 605.8,183.2 607.0,182.3 608.2,181.1 609.4,179.9 610.5,178.9 611.7,178.0 612.9,177.0 614.1,176.1 615.3,175.2 616.5,174.4 617.7,173.6 618.9,172.8 620.0,172.1 621.2,171.3 622.4,170.7 623.6,170.0 624.8,169.3 626.0,168.7 627.2,168.1 628.3,167.6 629.5,167.0 630.7,166.5 631.9,166.0 633.1,165.5 634.3,165.1 635.5,164.6 636.7,164.2 637.8,163.8 639.0,163.4 640.2,163.0 641.4,162.6 642.6,162.3 643.8,161.9 645.0,161.6 646.1,161.3 647.3,161.0 648.5,160.8 649.7,160.5 650.9,160.3 652.1,160.0 653.3,159.8 654.5,159.6 655.6,159.5 656.8,159.3 658.0,159.1 659.2,159.0 660.4,158.9 661.6,158.8 662.8,158.7 663.9,158.6 665.1,158.6 666.3,158.5 667.5,158.5 668.7,158.5 669.9,158.5 671.1,158.6 672.3,158.8 673.4,159.2 674.6,159.9 675.8,160.8 677.0,162.1 678.2,163.6 679.4,165.5 680.6,167.7 681.7,170.3 682.9,173.2 684.1,176.5 685.3,180.2 686.5,184.0 687.7,186.6 688.9,188.0 690.1,188.5 691.2,188.6 692.4,188.5 693.6,188.4 694.8,188.3 696.0,188.3 697.2,188.3 698.4,188.4 699.5,188.5 700.7,188.5 701.9,188.6 703.1,188.7 704.3,188.7 705.5,188.7 706.7,188.7 707.9,188.6 709.0,188.4 710.2,188.1 711.4,183.3 712.6,174.4 713.8,161.8 715.0,149.0 716.2,136.3 717.3,129.1 718.5,124.5 719.7,120.6 720.9,117.5 722.1,116.4 723.3,118.2 724.5,123.1 725.7,130.4 726.8,139.7 728.0,152.5 729.2,165.3 730.4,178.1 731.6,191.0 732.8,198.5 734.0,201.0 735.1,200.2 736.3,197.9 737.5,195.1 738.7,192.3 739.9,189.7 741.1,188.3 742.3,187.7 743.5,187.4 744.6,187.3 745.8,187.2 747.0,187.2 748.2,187.1 749.4,187.1 750.6,187.1 751.8,187.2 752.9,187.3 754.1,187.4 755.3,185.6 756.5,182.2 757.7,178.8 758.9,176.2 760.1,173.9 761.3,171.6 762.4,169.2 763.6,167.1 764.8,165.4 766.0,164.4"/>
<line x1="606" y1="60" x2="628" y2="60" stroke="#24a148" stroke-width="2.2"/>
<text x="634" y="64" font-family="Arial" font-size="12">q_dps</text>
<polyline fill="none" stroke="#da1e28" stroke-width="2.2" points="54.0,162.1 55.2,163.5 56.4,164.3 57.6,164.6 58.7,164.7 59.9,164.7 61.1,164.7 62.3,164.6 63.5,164.6 64.7,164.5 65.9,164.5 67.1,164.5 68.2,164.5 69.4,164.5 70.6,164.5 71.8,164.5 73.0,164.4 74.2,164.4 75.4,164.4 76.5,164.4 77.7,164.4 78.9,164.3 80.1,164.3 81.3,164.3 82.5,164.2 83.7,164.2 84.9,164.2 86.0,164.1 87.2,164.1 88.4,164.0 89.6,164.0 90.8,163.9 92.0,163.9 93.2,163.9 94.3,163.8 95.5,163.8 96.7,163.7 97.9,163.7 99.1,163.6 100.3,163.6 101.5,163.5 102.7,163.5 103.8,163.5 105.0,163.4 106.2,163.4 107.4,163.4 108.6,163.4 109.8,163.3 111.0,163.3 112.1,163.3 113.3,163.3 114.5,163.3 115.7,163.3 116.9,163.3 118.1,163.3 119.3,163.3 120.5,163.3 121.6,163.4 122.8,163.4 124.0,163.4 125.2,163.5 126.4,163.5 127.6,163.5 128.8,163.6 129.9,163.6 131.1,163.7 132.3,163.8 133.5,163.8 134.7,163.9 135.9,164.0 137.1,164.1 138.3,164.2 139.4,164.3 140.6,164.3 141.8,164.4 143.0,164.5 144.2,164.6 145.4,164.8 146.6,164.9 147.7,165.0 148.9,165.1 150.1,165.2 151.3,165.3 152.5,165.5 153.7,165.6 154.9,165.8 156.1,166.0 157.2,166.2 158.4,166.4 159.6,166.5 160.8,166.7 162.0,166.9 163.2,167.1 164.4,167.3 165.5,167.5 166.7,167.7 167.9,168.0 169.1,168.2 170.3,168.4 171.5,168.7 172.7,168.9 173.9,169.1 175.0,169.4 176.2,169.7 177.4,169.9 178.6,170.2 179.8,170.4 181.0,170.4 182.2,170.2 183.3,170.0 184.5,169.8 185.7,169.6 186.9,169.4 188.1,169.3 189.3,169.2 190.5,169.0 191.7,168.9 192.8,168.8 194.0,168.6 195.2,168.5 196.4,168.4 197.6,168.3 198.8,168.2 200.0,168.1 201.1,167.8 202.3,167.4 203.5,166.8 204.7,166.1 205.9,165.2 207.1,164.2 208.3,163.3 209.5,162.4 210.6,161.7 211.8,161.1 213.0,160.7 214.2,160.5 215.4,160.6 216.6,160.9 217.8,161.5 218.9,162.2 220.1,163.0 221.3,164.0 222.5,164.9 223.7,165.8 224.9,166.6 226.1,167.3 227.3,167.7 228.4,168.0 229.6,168.0 230.8,167.8 232.0,167.4 233.2,166.8 234.4,166.1 235.6,165.4 236.7,164.6 237.9,163.9 239.1,163.3 240.3,162.9 241.5,162.6 242.7,162.6 243.9,162.7 245.1,163.1 246.2,163.7 247.4,164.3 248.6,165.1 249.8,165.9 251.0,166.7 252.2,167.5 253.4,168.1 254.5,168.4 255.7,168.4 256.9,168.2 258.1,168.0 259.3,167.8 260.5,167.4 261.7,167.0 262.9,166.5 264.0,166.0 265.2,165.5 266.4,165.0 267.6,164.6 268.8,164.3 270.0,164.2 271.2,164.2 272.3,164.3 273.5,164.5 274.7,164.9 275.9,165.3 277.1,165.8 278.3,166.2 279.5,166.7 280.7,167.1 281.8,167.4 283.0,167.6 284.2,167.6 285.4,167.6 286.6,167.4 287.8,167.2 289.0,166.8 290.1,166.4 291.3,166.0 292.5,165.6 293.7,165.2 294.9,164.8 296.1,164.6 297.3,164.4 298.5,164.3 299.6,164.4 300.8,164.5 302.0,164.7 303.2,165.0 304.4,165.3 305.6,165.7 306.8,166.0 307.9,166.4 309.1,166.6 310.3,166.8 311.5,166.9 312.7,166.9 313.9,166.9 315.1,166.7 316.3,166.5 317.4,166.2 318.6,165.9 319.8,165.6 321.0,165.3 322.2,165.0 323.4,164.8 324.6,164.7 325.7,164.6 326.9,164.6 328.1,164.7 329.3,164.8 330.5,165.1 331.7,165.4 332.9,165.7 334.1,166.0 335.2,166.4 336.4,166.7 337.6,167.0 338.8,167.2 340.0,167.4 341.2,167.5 342.4,167.6 343.5,167.6 344.7,167.6 345.9,167.5 347.1,167.4 348.3,167.3 349.5,167.1 350.7,167.0 351.9,166.9 353.0,166.8 354.2,166.8 355.4,166.8 356.6,166.9 357.8,167.0 359.0,167.2 360.2,167.4 361.3,167.6 362.5,167.9 363.7,168.2 364.9,168.4 366.1,168.4 367.3,168.4 368.5,168.4 369.7,168.4 370.8,168.4 372.0,168.4 373.2,168.5 374.4,168.5 375.6,168.5 376.8,168.6 378.0,168.6 379.1,168.7 380.3,168.7 381.5,168.8 382.7,168.8 383.9,168.9 385.1,168.9 386.3,169.0 387.5,169.1 388.6,169.1 389.8,169.2 391.0,169.3 392.2,169.4 393.4,169.5 394.6,169.6 395.8,169.7 396.9,169.8 398.1,169.9 399.3,170.0 400.5,170.1 401.7,170.2 402.9,170.4 404.1,170.5 405.3,170.7 406.4,170.8 407.6,171.0 408.8,171.1 410.0,171.3 411.2,171.5 412.4,171.7 413.6,171.9 414.7,172.1 415.9,172.3 417.1,172.5 418.3,172.8 419.5,173.0 420.7,173.3 421.9,172.9 423.1,171.8 424.2,170.2 425.4,167.9 426.6,165.2 427.8,161.9 429.0,158.0 430.2,154.6 431.4,152.5 432.5,151.7 433.7,151.6 434.9,151.9 436.1,152.4 437.3,152.8 438.5,153.2 439.7,153.6 440.9,153.9 442.0,154.2 443.2,154.5 444.4,154.8 445.6,155.1 446.8,155.4 448.0,155.7 449.2,156.0 450.3,156.5 451.5,157.1 452.7,158.1 453.9,160.1 455.1,163.1 456.3,167.2 457.5,172.2 458.7,176.7 459.8,180.7 461.0,184.2 462.2,187.5 463.4,191.0 464.6,194.6 465.8,198.6 467.0,202.8 468.1,207.2 469.3,211.5 470.5,215.8 471.7,220.1 472.9,224.3 474.1,228.6 475.3,232.8 476.5,236.9 477.6,241.1 478.8,245.3 480.0,249.4 481.2,253.3 482.4,256.5 483.6,258.9 484.8,260.1 485.9,260.2 487.1,258.9 488.3,255.8 489.5,250.9 490.7,243.8 491.9,234.5 493.1,222.8 494.3,209.9 495.4,197.1 496.6,184.3 497.8,171.5 499.0,158.7 500.2,145.9 501.4,133.0 502.6,120.9 503.7,111.7 504.9,105.5 506.1,102.4 507.3,102.4 508.5,105.1 509.7,110.3 510.9,117.7 512.1,126.9 513.2,137.5 514.4,149.1 515.6,160.7 516.8,171.3 518.0,180.8 519.2,189.2 520.4,196.3 521.5,201.9 522.7,205.7 523.9,207.6 525.1,207.3 526.3,204.5 527.5,199.0 528.7,190.6 529.9,179.6 531.0,168.7 532.2,158.5 533.4,149.7 534.6,143.0 535.8,138.6 537.0,136.8 538.2,137.7 539.3,141.0 540.5,146.4 541.7,152.9 542.9,159.8 544.1,166.5 545.3,171.3 546.5,174.3 547.7,175.5 548.8,174.9 550.0,173.0 551.2,171.2 552.4,170.0 553.6,169.6 554.8,169.4 556.0,169.1 557.1,168.5 558.3,167.6 559.5,166.6 560.7,165.5 561.9,164.2 563.1,162.8 564.3,161.3 565.5,159.7 566.6,158.1 567.8,156.5 569.0,154.5 570.2,152.0 571.4,149.0 572.6,145.6 573.8,142.1 574.9,138.7 576.1,135.5 577.3,132.8 578.5,130.7 579.7,129.1 580.9,128.2 582.1,127.9 583.3,128.1 584.4,128.7 585.6,129.6 586.8,130.8 588.0,132.2 589.2,133.9 590.4,135.7 591.6,137.6 592.7,139.6 593.9,141.7 595.1,143.9 596.3,145.4 597.5,146.2 598.7,146.6 599.9,146.7 601.1,146.6 602.2,146.6 603.4,146.5 604.6,146.5 605.8,146.5 607.0,146.5 608.2,146.6 609.4,146.6 610.5,146.7 611.7,146.7 612.9,146.8 614.1,146.8 615.3,146.9 616.5,146.9 617.7,147.0 618.9,147.1 620.0,147.2 621.2,147.3 622.4,147.4 623.6,147.6 624.8,147.7 626.0,147.8 627.2,148.0 628.3,148.1 629.5,148.2 630.7,148.4 631.9,148.5 633.1,148.7 634.3,148.8 635.5,149.0 636.7,149.1 637.8,149.3 639.0,149.5 640.2,149.6 641.4,149.8 642.6,150.0 643.8,150.2 645.0,150.4 646.1,150.6 647.3,150.8 648.5,151.1 649.7,151.3 650.9,151.5 652.1,151.8 653.3,152.0 654.5,152.3 655.6,152.6 656.8,152.8 658.0,153.1 659.2,153.4 660.4,153.7 661.6,154.0 662.8,154.3 663.9,154.6 665.1,154.9 666.3,155.2 667.5,155.6 668.7,155.9 669.9,156.3 671.1,156.9 672.3,157.7 673.4,158.8 674.6,160.2 675.8,161.8 677.0,163.7 678.2,165.9 679.4,168.4 680.6,171.2 681.7,174.2 682.9,177.5 684.1,181.1 685.3,185.0 686.5,188.9 687.7,192.7 688.9,196.4 690.1,200.1 691.2,203.8 692.4,207.4 693.6,211.0 694.8,214.6 696.0,218.2 697.2,221.8 698.4,225.3 699.5,228.9 700.7,232.4 701.9,235.9 703.1,239.4 704.3,242.8 705.5,246.3 706.7,249.8 707.9,253.4 709.0,256.9 710.2,260.5 711.4,263.6 712.6,265.5 713.8,266.0 715.0,265.1 716.2,262.6 717.3,258.3 718.5,252.3 719.7,244.4 720.9,234.8 722.1,223.6 723.3,210.8 724.5,198.0 725.7,185.2 726.8,172.5 728.0,160.7 729.2,149.7 730.4,139.7 731.6,130.6 732.8,122.3 734.0,114.7 735.1,108.1 736.3,102.9 737.5,99.3 738.7,97.4 739.9,97.1 741.1,98.4 742.3,101.4 743.5,106.0 744.6,111.6 745.8,118.3 747.0,125.7 748.2,133.8 749.4,141.8 750.6,149.6 751.8,157.2 752.9,164.3 754.1,170.9 755.3,176.9 756.5,182.3 757.7,186.8 758.9,190.6 760.1,193.3 761.3,195.1 762.4,195.7 763.6,195.1 764.8,193.3 766.0,190.3"/>
<line x1="606" y1="78" x2="628" y2="78" stroke="#da1e28" stroke-width="2.2"/>
<text x="634" y="82" font-family="Arial" font-size="12">r_dps</text>
</svg>