<svg xmlns="http://www.w3.org/2000/svg" width="820" height="320" viewBox="0 0 820 320">
<rect width="100%" height="100%" fill="#ffffff"/>
<text x="54" y="28" font-family="Arial" font-size="18" font-weight="700">Alpha/Beta</text>
<line x1="54" y1="266" x2="766" y2="266" stroke="#1f2933"/>
<line x1="54" y1="54" x2="54" y2="266" stroke="#1f2933"/>
<text x="54" y="306" font-family="Arial" font-size="12">time (s)</text>
<text x="596" y="306" font-family="Arial" font-size="12">angle (deg)</text>
<text x="58" y="68" font-family="Arial" font-size="11">35</text>
<text x="58" y="260" font-family="Arial" font-size="11">-30</text>
<polyline fill="none" stroke="#0f62fe" stroke-width="2.2" points="54.0,163.6 55.2,162.4 56.4,161.9 57.6,162.0 58.7,162.1 59.9,161.9 61.1,161.6 62.3,161.5 63.5,161.3 64.7,161.2 65.9,161.1 67.1,160.9 68.2,160.8 69.4,160.7 70.6,160.6 71.8,160.4 73.0,160.3 74.2,160.2 75.4,160.1 76.5,160.0 77.7,159.9 78.9,159.8 80.1,159.7 81.3,159.5 82.5,159.4 83.7,159.3 84.9,159.2 86.0,159.1 87.2,159.0 88.4,158.9 89.6,158.8 90.8,158.7 92.0,158.6 93.2,158.5 94.3,158.3 95.5,158.2 96.7,158.1 97.9,158.0 99.1,157.9 100.3,157.8 101.5,157.7 102.7,157.6 103.8,157.5 105.0,157.4 106.2,157.3 107.4,157.2 108.6,157.1 109.8,157.0 111.0,156.9 112.1,156.8 113.3,156.7 114.5,156.6 115.7,156.5 116.9,156.4 118.1,156.3 119.3,156.2 120.5,156.1 121.6,156.0 122.8,155.9 124.0,155.8 125.2,155.7 126.4,155.6 127.6,155.5 128.8,155.4 129.9,155.3 131.1,155.2 132.3,155.1 133.5,155.0 134.7,154.9 135.9,154.8 137.1,154.7 138.3,154.6 139.4,154.5 140.6,154.4 141.8,154.3 143.0,154.2 144.2,154.1 145.4,154.0 146.6,153.9 147.7,153.8 148.9,153.7 150.1,153.6 151.3,153.5 152.5,153.3 153.7,153.2 154.9,153.0 156.1,152.8 157.2,152.6 158.4,152.4 159.6,152.2 160.8,152.0 162.0,151.7 163.2,151.4 164.4,151.1 165.5,150.8 166.7,150.5 167.9,150.1 169.1,149.7 170.3,149.3 171.5,148.9 172.7,148.4 173.9,147.9 175.0,147.4 176.2,146.8 177.4,146.3 178.6,145.7 179.8,145.0 181.0,144.4 182.2,143.7 183.3,143.1 184.5,142.5 185.7,141.9 186.9,141.4 188.1,140.8 189.3,140.3 190.5,139.7 191.7,139.2 192.8,138.7 194.0,138.1 195.2,137.6 196.4,137.1 197.6,136.6 198.8,136.1 200.0,135.7 201.1,135.2 202.3,134.7 203.5,134.4 204.7,134.0 205.9,133.8 207.1,133.7 208.3,133.8 209.5,133.9 210.6,134.2 211.8,134.5 213.0,134.9 214.2,135.3 215.4,135.7 216.6,136.0 217.8,136.2 218.9,136.3 220.1,136.3 221.3,136.2 222.5,135.9 223.7,135.5 224.9,134.9 226.1,134.3 227.3,133.6 228.4,132.8 229.6,132.0 230.8,131.3 232.0,130.7 233.2,130.2 234.4,129.8 235.6,129.5 236.7,129.4 237.9,129.4 239.1,129.6 240.3,129.8 241.5,130.1 242.7,130.4 243.9,130.7 245.1,131.0 246.2,131.1 247.4,131.1 248.6,131.0 249.8,130.7 251.0,130.2 252.2,129.6 253.4,128.9 254.5,128.0 255.7,127.1 256.9,126.3 258.1,125.5 259.3,124.8 260.5,124.1 261.7,123.5 262.9,123.0 264.0,122.6 265.2,122.3 266.4,122.1 267.6,122.0 268.8,122.0 270.0,121.9 271.2,121.9 272.3,121.9 273.5,121.7 274.7,121.6 275.9,121.3 277.1,120.9 278.3,120.4 279.5,119.8 280.7,119.1 281.8,118.3 283.0,117.4 284.2,116.6 285.4,115.8 286.6,115.0 287.8,114.3 289.0,113.6 290.1,113.1 291.3,112.7 292.5,112.4 293.7,112.2 294.9,112.1 296.1,112.1 297.3,112.1 298.5,112.1 299.6,112.1 300.8,112.1 302.0,112.0 303.2,111.8 304.4,111.5 305.6,111.1 306.8,110.6 307.9,110.0 309.1,109.3 310.3,108.5 311.5,107.7 312.7,106.8 313.9,106.0 315.1,105.2 316.3,104.4 317.4,103.7 318.6,103.1 319.8,102.6 321.0,102.1 322.2,101.7 323.4,101.3 324.6,100.9 325.7,100.5 326.9,100.2 328.1,99.8 329.3,99.3 330.5,98.7 331.7,98.0 332.9,97.2 334.1,96.2 335.2,95.1 336.4,93.8 337.6,92.4 338.8,90.8 340.0,89.1 341.2,87.3 342.4,85.3 343.5,83.3 344.7,81.3 345.9,79.2 347.1,77.1 348.3,75.0 349.5,72.9 350.7,70.8 351.9,68.7 353.0,66.7 354.2,64.6 355.4,62.5 356.6,60.3 357.8,58.1 359.0,55.7 360.2,54.0 361.3,54.0 362.5,54.0 363.7,54.0 364.9,54.0 366.1,54.0 367.3,54.0 368.5,54.0 369.7,54.0 370.8,54.0 372.0,54.0 373.2,54.0 374.4,54.0 375.6,54.0 376.8,54.0 378.0,54.0 379.1,54.0 380.3,54.0 381.5,54.0 382.7,54.0 383.9,54.0 385.1,54.0 386.3,54.0 387.5,54.0 388.6,54.0 389.8,54.0 391.0,54.0 392.2,54.0 393.4,54.0 394.6,54.0 395.8,54.0 396.9,54.0 398.1,54.0 399.3,54.0 400.5,54.0 401.7,54.0 402.9,54.0 404.1,54.0 405.3,54.0 406.4,54.0 407.6,54.0 408.8,54.0 410.0,54.0 411.2,54.0 412.4,54.0 413.6,54.0 414.7,54.0 415.9,54.0 417.1,54.0 418.3,54.0 419.5,54.0 420.7,54.0 421.9,54.0 423.1,54.0 424.2,54.0 425.4,54.0 426.6,54.0 427.8,54.0 429.0,54.0 430.2,54.0 431.4,54.0 432.5,54.0 433.7,54.0 434.9,54.0 436.1,54.0 437.3,54.0 438.5,54.0 439.7,54.0 440.9,54.0 442.0,54.0 443.2,54.0 444.4,54.0 445.6,54.0 446.8,54.0 448.0,54.0 449.2,54.0 450.3,54.0 451.5,54.0 452.7,54.0 453.9,54.0 455.1,54.0 456.3,54.0 457.5,54.0 458.7,54.0 459.8,54.0 461.0,54.0 462.2,54.0 463.4,54.0 464.6,54.0 465.8,54.0 467.0,54.0 468.1,54.0 469.3,54.0 470.5,54.0 471.7,54.0 472.9,54.0 474.1,54.0 475.3,54.0 476.5,54.0 477.6,54.0 478.8,54.0 480.0,54.0 481.2,54.0 482.4,54.0 483.6,54.0 484.8,54.0 485.9,54.0 487.1,54.0 488.3,54.0 489.5,54.0 490.7,54.0 491.9,54.0 493.1,60.6 494.3,85.4 495.4,115.3 496.6,147.8 497.8,177.7 499.0,203.5 500.2,224.5 501.4,240.5 502.6,251.8 503.7,258.8 504.9,262.1 506.1,262.0 507.3,258.9 508.5,252.9 509.7,244.1 510.9,232.4 512.1,217.7 513.2,199.9 514.4,179.5 515.6,158.7 516.8,141.8 518.0,128.7 519.2,119.0 520.4,112.5 521.5,108.8 522.7,108.0 523.9,109.9 525.1,114.7 526.3,122.7 527.5,134.1 528.7,148.5 529.9,161.3 531.0,171.0 532.2,177.6 533.4,180.9 534.6,180.8 535.8,177.0 537.0,169.8 538.2,159.2 539.3,145.4 540.5,132.3 541.7,122.7 542.9,116.3 544.1,111.7 545.3,107.3 546.5,102.7 547.7,98.1 548.8,93.1 550.0,87.8 551.2,82.4 552.4,76.9 553.6,71.5 554.8,66.2 556.0,61.0 557.1,55.9 558.3,54.0 559.5,54.0 560.7,54.0 561.9,54.0 563.1,54.0 564.3,54.0 565.5,54.0 566.6,54.0 567.8,54.0 569.0,54.0 570.2,54.0 571.4,54.0 572.6,54.0 573.8,54.0 574.9,54.0 576.1,54.0 577.3,54.0 578.5,54.0 579.7,54.0 580.9,54.0 582.1,54.0 583.3,54.0 584.4,54.0 585.6,54.0 586.8,54.0 588.0,54.0 589.2,54.0 590.4,54.0 591.6,54.0 592.7,54.0 593.9,54.0 595.1,54.0 596.3,54.0 597.5,54.0 598.7,54.0 599.9,54.0 601.1,54.0 602.2,54.0 603.4,54.0 604.6,54.0 605.8,54.0 607.0,54.0 608.2,54.0 609.4,54.0 610.5,54.0 611.7,54.0 612.9,54.0 614.1,54.0 615.3,54.0 616.5,54.0 617.7,54.0 618.9,54.0 620.0,54.0 621.2,54.0 622.4,54.0 623.6,54.0 624.8,54.0 626.0,54.0 627.2,54.0 628.3,54.0 629.5,54.0 630.7,54.0 631.9,54.0 633.1,54.0 634.3,54.0 635.5,54.0 636.7,54.0 637.8,54.0 639.0,54.0 640.2,54.0 641.4,54.0 642.6,54.0 643.8,54.0 645.0,54.0 646.1,54.0 647.3,54.0 648.5,54.0 649.7,54.0 650.9,54.0 652.1,54.0 653.3,54.0 654.5,54.0 655.6,54.0 656.8,54.0 658.0,54.0 659.2,54.0 660.4,54.0 661.6,54.0 662.8,54.0 663.9,54.0 665.1,54.0 666.3,54.0 667.5,54.0 668.7,54.0 669.9,54.0 671.1,54.0 672.3,54.0 673.4,54.0 674.6,54.0 675.8,54.0 677.0,54.0 678.2,54.0 679.4,54.0 680.6,54.0 681.7,54.0 682.9,54.0 684.1,54.0 685.3,54.0 686.5,54.0 687.7,54.0 688.9,54.0 690.1,54.0 691.2,54.0 692.4,54.0 693.6,54.0 694.8,54.0 696.0,54.0 697.2,54.0 698.4,54.0 699.5,54.0 700.7,54.0 701.9,54.0 703.1,54.0 704.3,54.0 705.5,54.0 706.7,54.0 707.9,54.0 709.0,54.0 710.2,54.0 711.4,54.0 712.6,54.0 713.8,54.0 715.0,54.0 716.2,54.0 717.3,54.0 718.5,54.0 719.7,54.0 720.9,54.6 722.1,64.8 723.3,76.1 724.5,87.9 725.7,99.9 726.8,111.1 728.0,120.2 729.2,126.4 730.4,129.3 731.6,128.5 732.8,125.4 734.0,121.2 735.1,116.7 736.3,112.0 737.5,107.4 738.7,102.7 739.9,97.8 741.1,92.6 742.3,87.0 743.5,81.0 744.6,74.6 745.8,68.2 747.0,61.8 748.2,55.5 749.4,54.0 750.6,54.0 751.8,54.0 752.9,54.0 754.1,54.0 755.3,54.0 756.5,54.0 757.7,54.0 758.9,54.0 760.1,54.0 761.3,54.0 762.4,54.0 763.6,54.0 764.8,54.0 766.0,54.0"/>
<line x1="606" y1="42" x2="628" y2="42" stroke="#0f62fe" stroke-width="2.2"/>
<text x="634" y="46" font-family="Arial" font-size="12">alpha_deg</text>
<polyline fill="none" stroke="#24a148" stroke-width="2.2" points="54.0,191.0 55.2,190.8 56.4,190.4 57.6,190.0 58.7,189.4 59.9,188.9 61.1,188.3 62.3,187.7 63.5,187.1 64.7,186.5 65.9,185.9 67.1,185.2 68.2,184.5 69.4,183.8 70.6,183.0 71.8,182.2 73.0,181.4 74.2,180.6 75.4,179.8 76.5,178.9 77.7,178.1 78.9,177.2 80.1,176.3 81.3,175.4 82.5,174.5 83.7,173.6 84.9,172.8 86.0,171.9 87.2,171.0 88.4,170.1 89.6,169.2 90.8,168.4 92.0,167.5 93.2,166.7 94.3,165.9 95.5,165.1 96.7,164.4 97.9,163.6 99.1,162.9 100.3,162.2 101.5,161.5 102.7,160.9 103.8,160.3 105.0,159.7 106.2,159.2 107.4,158.7 108.6,158.2 109.8,157.7 111.0,157.3 112.1,156.9 113.3,156.5 114.5,156.2 115.7,155.9 116.9,155.6 118.1,155.4 119.3,155.2 120.5,155.0 121.6,154.8 122.8,154.7 124.0,154.6 125.2,154.5 126.4,154.4 127.6,154.4 128.8,154.3 129.9,154.3 131.1,154.3 132.3,154.3 133.5,154.3 134.7,154.4 135.9,154.4 137.1,154.5 138.3,154.5 139.4,154.5 140.6,154.6 141.8,154.6 143.0,154.7 144.2,154.7 145.4,154.7 146.6,154.7 147.7,154.7 148.9,154.6 150.1,154.5 151.3,154.4 152.5,154.3 153.7,154.2 154.9,153.9 156.1,153.7 157.2,153.4 158.4,153.0 159.6,152.6 160.8,152.2 162.0,151.7 163.2,151.1 164.4,150.5 165.5,149.9 166.7,149.1 167.9,148.3 169.1,147.5 170.3,146.5 171.5,145.5 172.7,144.5 173.9,143.4 175.0,142.1 176.2,140.9 177.4,139.5 178.6,138.1 179.8,136.6 181.0,135.1 182.2,133.7 183.3,132.3 184.5,130.9 185.7,129.6 186.9,128.3 188.1,127.1 189.3,125.9 190.5,124.7 191.7,123.5 192.8,122.4 194.0,121.2 195.2,120.2 196.4,119.1 197.6,118.1 198.8,117.1 200.0,116.1 201.1,115.2 202.3,114.3 203.5,113.7 204.7,113.2 205.9,113.0 207.1,112.9 208.3,113.2 209.5,113.6 210.6,114.2 211.8,115.0 213.0,115.9 214.2,116.8 215.4,117.7 216.6,118.5 217.8,119.1 218.9,119.6 220.1,119.9 221.3,120.0 222.5,119.8 223.7,119.5 224.9,118.9 226.1,118.3 227.3,117.5 228.4,116.7 229.6,115.9 230.8,115.2 232.0,114.6 233.2,114.2 234.4,113.9 235.6,113.9 236.7,114.1 237.9,114.5 239.1,115.0 240.3,115.6 241.5,116.3 242.7,117.1 243.9,117.8 245.1,118.4 246.2,118.9 247.4,119.2 248.6,119.4 249.8,119.4 251.0,119.1 252.2,118.7 253.4,118.2 254.5,117.6 255.7,117.0 256.9,116.4 258.1,115.9 259.3,115.5 260.5,115.2 261.7,114.9 262.9,114.8 264.0,114.9 265.2,115.0 266.4,115.3 267.6,115.6 268.8,116.1 270.0,116.5 271.2,117.0 272.3,117.4 273.5,117.7 274.7,118.0 275.9,118.1 277.1,118.2 278.3,118.1 279.5,117.9 280.7,117.6 281.8,117.3 283.0,116.9 284.2,116.5 285.4,116.1 286.6,115.8 287.8,115.5 289.0,115.3 290.1,115.1 291.3,115.1 292.5,115.2 293.7,115.4 294.9,115.7 296.1,116.0 297.3,116.3 298.5,116.7 299.6,117.0 300.8,117.3 302.0,117.6 303.2,117.7 304.4,117.8 305.6,117.8 306.8,117.7 307.9,117.5 309.1,117.3 310.3,117.0 311.5,116.7 312.7,116.4 313.9,116.1 315.1,115.9 316.3,115.7 317.4,115.6 318.6,115.5 319.8,115.5 321.0,115.6 322.2,115.8 323.4,116.0 324.6,116.3 325.7,116.6 326.9,116.9 328.1,117.2 329.3,117.5 330.5,117.7 331.7,117.8 332.9,117.9 334.1,117.9 335.2,117.9 336.4,117.8 337.6,117.6 338.8,117.4 340.0,117.2 341.2,117.0 342.4,116.8 343.5,116.6 344.7,116.4 345.9,116.3 347.1,116.2 348.3,116.2 349.5,116.2 350.7,116.3 351.9,116.4 353.0,116.6 354.2,116.8 355.4,117.0 356.6,117.2 357.8,117.4 359.0,117.6 360.2,117.8 361.3,118.0 362.5,118.1 363.7,118.2 364.9,118.2 366.1,118.3 367.3,118.5 368.5,118.6 369.7,118.8 370.8,119.0 372.0,119.3 373.2,119.5 374.4,119.8 375.6,120.2 376.8,120.5 378.0,120.9 379.1,121.3 380.3,121.7 381.5,122.1 382.7,122.6 383.9,123.1 385.1,123.6 386.3,124.2 387.5,124.8 388.6,125.5 389.8,126.1 391.0,126.8 392.2,127.6 393.4,128.4 394.6,129.2 395.8,130.1 396.9,131.0 398.1,132.0 399.3,133.0 400.5,134.0 401.7,135.2 402.9,136.3 404.1,137.6 405.3,138.8 406.4,140.2 407.6,141.6 408.8,143.1 410.0,144.7 411.2,146.3 412.4,148.0 413.6,149.9 414.7,151.8 415.9,153.8 417.1,155.9 418.3,158.1 419.5,160.4 420.7,162.8 421.9,165.4 423.1,168.0 424.2,170.7 425.4,173.3 426.6,175.9 427.8,178.3 429.0,180.5 430.2,182.6 431.4,184.5 432.5,186.4 433.7,188.3 434.9,190.4 436.1,192.5 437.3,194.7 438.5,197.0 439.7,199.4 440.9,201.8 442.0,204.4 443.2,207.0 444.4,209.7 445.6,212.4 446.8,215.2 448.0,218.1 449.2,221.1 450.3,224.1 451.5,227.2 452.7,230.3 453.9,233.4 455.1,236.5 456.3,239.6 457.5,242.6 458.7,245.5 459.8,248.4 461.0,251.4 462.2,254.5 463.4,257.7 464.6,260.9 465.8,264.1 467.0,266.0 468.1,266.0 469.3,266.0 470.5,266.0 471.7,266.0 472.9,266.0 474.1,266.0 475.3,266.0 476.5,266.0 477.6,266.0 478.8,266.0 480.0,263.3 481.2,255.5 482.4,246.1 483.6,235.1 484.8,222.6 485.9,208.6 487.1,193.1 488.3,176.5 489.5,159.1 490.7,141.4 491.9,124.0 493.1,107.9 494.3,94.0 495.4,83.3 496.6,76.7 497.8,74.8 499.0,77.7 500.2,84.9 501.4,95.6 502.6,109.2 503.7,124.4 504.9,140.1 506.1,155.6 507.3,170.1 508.5,183.1 509.7,194.3 510.9,203.4 512.1,210.2 513.2,214.4 514.4,216.1 515.6,215.3 516.8,212.7 518.0,208.3 519.2,202.4 520.4,195.2 521.5,186.8 522.7,177.3 523.9,166.9 525.1,156.0 526.3,145.2 527.5,135.3 528.7,127.3 529.9,122.5 531.0,120.8 532.2,122.1 533.4,126.0 534.6,131.6 535.8,138.1 537.0,144.6 538.2,150.3 539.3,154.3 540.5,156.2 541.7,156.2 542.9,154.7 544.1,151.9 545.3,148.7 546.5,145.4 547.7,142.4 548.8,140.2 550.0,138.8 551.2,138.1 552.4,137.9 553.6,137.7 554.8,137.3 556.0,136.7 557.1,135.5 558.3,133.7 559.5,131.1 560.7,127.7 561.9,123.8 563.1,119.5 564.3,115.0 565.5,110.4 566.6,106.0 567.8,101.8 569.0,98.3 570.2,95.2 571.4,93.3 572.6,92.6 573.8,93.4 574.9,95.4 576.1,98.3 577.3,101.8 578.5,105.7 579.7,109.5 580.9,113.0 582.1,115.8 583.3,118.2 584.4,120.3 585.6,122.3 586.8,124.2 588.0,125.6 589.2,126.7 590.4,127.7 591.6,128.8 592.7,130.2 593.9,131.7 595.1,132.9 596.3,133.9 597.5,134.7 598.7,135.3 599.9,135.8 601.1,136.3 602.2,136.8 603.4,137.3 604.6,137.8 605.8,138.2 607.0,138.7 608.2,139.1 609.4,139.6 610.5,140.0 611.7,140.5 612.9,141.0 614.1,141.6 615.3,142.2 616.5,142.9 617.7,143.6 618.9,144.5 620.0,145.4 621.2,146.4 622.4,147.4 623.6,148.5 624.8,149.6 626.0,150.7 627.2,151.7 628.3,152.9 629.5,154.0 630.7,155.2 631.9,156.4 633.1,157.7 634.3,159.0 635.5,160.4 636.7,161.8 637.8,163.2 639.0,164.7 640.2,166.3 641.4,167.9 642.6,169.6 643.8,171.3 645.0,173.1 646.1,175.0 647.3,176.9 648.5,178.9 649.7,180.9 650.9,183.0 652.1,185.2 653.3,187.4 654.5,189.7 655.6,192.1 656.8,194.5 658.0,197.0 659.2,199.5 660.4,202.1 661.6,204.8 662.8,207.5 663.9,210.3 665.1,213.1 666.3,215.9 667.5,218.8 668.7,221.8 669.9,224.8 671.1,227.8 672.3,230.9 673.4,234.0 674.6,237.2 675.8,240.4 677.0,243.7 678.2,247.1 679.4,250.6 680.6,254.1 681.7,257.7 682.9,261.5 684.1,265.4 685.3,266.0 686.5,266.0 687.7,266.0 688.9,266.0 690.1,266.0 691.2,266.0 692.4,266.0 693.6,266.0 694.8,266.0 696.0,266.0 697.2,266.0 698.4,266.0 699.5,266.0 700.7,266.0 701.9,266.0 703.1,266.0 704.3,266.0 705.5,266.0 706.7,266.0 707.9,266.0 709.0,266.0 710.2,259.4 711.4,244.5 712.6,228.4 713.8,211.2 715.0,193.1 716.2,174.3 717.3,155.0 718.5,135.8 719.7,117.1 720.9,99.5 722.1,83.6 723.3,70.3 724.5,70.3 725.7,70.3 726.8,70.3 728.0,70.3 729.2,70.3 730.4,70.3 731.6,70.3 732.8,70.3 734.0,75.6 735.1,87.3 736.3,100.2 737.5,113.8 738.7,127.8 739.9,142.0 741.1,155.8 742.3,169.0 743.5,181.2 744.6,192.2 745.8,201.9 747.0,210.0 748.2,216.6 749.4,221.6 750.6,225.2 751.8,227.4 752.9,228.3 754.1,227.8 755.3,226.1 756.5,223.2 757.7,219.1 758.9,213.8 760.1,207.4 761.3,200.1 762.4,192.3 763.6,184.2 764.8,176.1 766.0,168.2"/>
<line x1="606" y1="60" x2="628" y2="60" stroke="#24a148" stroke-width="2.2"/>
<text x="634" y="64" font-family="Arial" font-size="12">beta_deg</text>
</svg>