<svg xmlns="http://www.w3.org/2000/svg" width="820" height="320" viewBox="0 0 820 320">
<rect width="100%" height="100%" fill="#ffffff"/>
<text x="54" y="28" font-family="Arial" font-size="18" font-weight="700">Load Factor</text>
<line x1="54" y1="266" x2="766" y2="266" stroke="#1f2933"/>
<line x1="54" y1="54" x2="54" y2="266" stroke="#1f2933"/>
<text x="54" y="306" font-family="Arial" font-size="12">time (s)</text>
<text x="596" y="306" font-family="Arial" font-size="12">g</text>
<text x="58" y="68" font-family="Arial" font-size="11">4.31</text>
<text x="58" y="260" font-family="Arial" font-size="11">1.18</text>
<polyline fill="none" stroke="#0f62fe" stroke-width="2.2" points="54.0,229.5 55.2,227.4 56.4,225.4 57.6,223.4 58.7,221.3 59.9,219.1 61.1,217.0 62.3,214.9 63.5,212.8 64.7,210.6 65.9,208.5 67.1,206.4 68.2,204.3 69.4,202.2 70.6,201.5 71.8,201.6 73.0,201.7 74.2,201.8 75.4,201.9 76.5,202.0 77.7,202.1 78.9,202.2 80.1,202.3 81.3,202.4 82.5,202.5 83.7,202.6 84.9,202.7 86.0,202.8 87.2,202.9 88.4,203.0 89.6,203.1 90.8,203.2 92.0,203.3 93.2,203.4 94.3,203.5 95.5,203.6 96.7,203.6 97.9,203.7 99.1,203.8 100.3,203.9 101.5,204.0 102.7,204.0 103.8,204.1 105.0,204.2 106.2,204.2 107.4,204.3 108.6,204.4 109.8,204.4 111.0,204.5 112.1,204.5 113.3,204.6 114.5,204.6 115.7,204.7 116.9,204.7 118.1,204.7 119.3,204.8 120.5,204.8 121.6,204.8 122.8,204.8 124.0,204.8 125.2,204.9 126.4,204.9 127.6,204.9 128.8,204.9 129.9,204.9 131.1,204.9 132.3,204.9 133.5,204.8 134.7,204.8 135.9,204.8 137.1,204.8 138.3,204.7 139.4,204.7 140.6,204.6 141.8,204.6 143.0,204.5 144.2,204.4 145.4,204.4 146.6,204.3 147.7,204.2 148.9,204.1 150.1,204.0 151.3,203.8 152.5,203.7 153.7,203.5 154.9,203.3 156.1,203.1 157.2,202.8 158.4,202.5 159.6,202.2 160.8,201.8 162.0,201.3 163.2,200.9 164.4,200.3 165.5,199.7 166.7,199.0 167.9,198.3 169.1,197.4 170.3,196.5 171.5,195.4 172.7,194.3 173.9,193.0 175.0,191.6 176.2,190.0 177.4,188.3 178.6,186.4 179.8,184.3 181.0,182.0 182.2,179.7 183.3,177.5 184.5,175.3 185.7,173.0 186.9,170.6 188.1,168.2 189.3,165.8 190.5,163.4 191.7,160.9 192.8,158.4 194.0,155.9 195.2,153.4 196.4,150.8 197.6,148.3 198.8,145.8 200.0,143.2 201.1,141.5 202.3,139.9 203.5,138.7 204.7,137.4 205.9,136.5 207.1,135.8 208.3,135.5 209.5,135.3 210.6,135.5 211.8,135.7 213.0,136.1 214.2,136.5 215.4,137.4 216.6,138.4 217.8,139.1 218.9,139.3 220.1,138.8 221.3,137.7 222.5,135.8 223.7,133.7 224.9,132.3 226.1,130.4 227.3,128.5 228.4,126.3 229.6,124.2 230.8,122.0 232.0,120.2 233.2,118.4 234.4,117.1 235.6,116.1 236.7,115.6 237.9,115.4 239.1,115.6 240.3,116.0 241.5,116.5 242.7,117.1 243.9,117.6 245.1,117.9 246.2,117.9 247.4,117.6 248.6,117.0 249.8,115.9 251.0,114.4 252.2,112.5 253.4,110.1 254.5,107.3 255.7,104.5 256.9,102.1 258.1,99.8 259.3,97.3 260.5,95.3 261.7,93.3 262.9,91.9 264.0,90.7 265.2,90.0 266.4,89.6 267.6,89.5 268.8,89.6 270.0,89.8 271.2,90.0 272.3,90.2 273.5,90.2 274.7,89.9 275.9,89.2 277.1,88.3 278.3,86.9 279.5,85.2 280.7,83.2 281.8,80.9 283.0,78.4 284.2,75.9 285.4,73.4 286.6,71.0 287.8,68.9 289.0,67.1 290.1,65.7 291.3,64.7 292.5,64.2 293.7,64.1 294.9,64.2 296.1,64.6 297.3,65.2 298.5,65.8 299.6,66.3 300.8,66.6 302.0,66.7 303.2,66.4 304.4,65.8 305.6,64.8 306.8,63.3 307.9,61.6 309.1,59.8 310.3,58.8 311.5,57.8 312.7,56.8 313.9,55.9 315.1,55.1 316.3,54.5 317.4,54.1 318.6,54.0 319.8,55.1 321.0,56.7 322.2,58.3 323.4,59.9 324.6,61.6 325.7,63.2 326.9,65.0 328.1,66.8 329.3,68.7 330.5,70.7 331.7,72.8 332.9,74.9 334.1,77.2 335.2,79.5 336.4,81.8 337.6,84.3 338.8,86.8 340.0,89.3 341.2,91.9 342.4,94.5 343.5,97.1 344.7,99.7 345.9,102.2 347.1,104.7 348.3,107.2 349.5,109.6 350.7,112.0 351.9,114.2 353.0,116.5 354.2,118.7 355.4,120.8 356.6,122.9 357.8,125.0 359.0,127.1 360.2,128.2 361.3,127.2 362.5,126.0 363.7,124.6 364.9,123.0 366.1,121.4 367.3,119.9 368.5,118.4 369.7,117.0 370.8,115.6 372.0,114.2 373.2,112.8 374.4,111.4 375.6,110.0 376.8,108.6 378.0,107.2 379.1,105.9 380.3,104.6 381.5,103.3 382.7,102.1 383.9,100.9 385.1,99.8 386.3,98.7 387.5,97.6 388.6,96.7 389.8,95.7 391.0,94.9 392.2,94.1 393.4,93.3 394.6,92.7 395.8,92.1 396.9,91.6 398.1,91.1 399.3,90.8 400.5,90.5 401.7,90.3 402.9,90.1 404.1,90.1 405.3,90.2 406.4,90.2 407.6,90.3 408.8,90.4 410.0,90.6 411.2,90.9 412.4,91.2 413.6,91.5 414.7,91.9 415.9,92.3 417.1,92.8 418.3,93.3 419.5,93.9 420.7,94.5 421.9,95.0 423.1,95.5 424.2,96.3 425.4,97.3 426.6,98.5 427.8,99.9 429.0,101.6 430.2,103.6 431.4,106.0 432.5,108.6 433.7,111.2 434.9,113.6 436.1,116.0 437.3,118.2 438.5,120.4 439.7,122.5 440.9,124.6 442.0,126.6 443.2,128.6 444.4,130.5 445.6,132.4 446.8,134.2 448.0,136.0 449.2,137.7 450.3,139.3 451.5,140.8 452.7,141.8 453.9,142.9 455.1,143.8 456.3,144.7 457.5,146.3 458.7,146.8 459.8,146.6 461.0,146.2 462.2,145.8 463.4,145.5 464.6,145.4 465.8,145.5 467.0,146.0 468.1,146.9 469.3,147.9 470.5,149.1 471.7,150.4 472.9,151.9 474.1,153.5 475.3,155.2 476.5,157.0 477.6,158.9 478.8,160.9 480.0,163.3 481.2,166.4 482.4,168.6 483.6,170.8 484.8,173.0 485.9,175.2 487.1,177.2 488.3,178.6 489.5,179.2 490.7,179.9 491.9,180.7 493.1,177.9 494.3,166.3 495.4,163.0 496.6,175.8 497.8,175.7 499.0,164.4 500.2,151.0 501.4,157.4 502.6,164.1 503.7,169.4 504.9,172.7 506.1,173.4 507.3,172.3 508.5,169.1 509.7,163.9 510.9,157.2 512.1,155.3 513.2,174.0 514.4,184.1 515.6,187.0 516.8,177.2 518.0,169.8 519.2,165.5 520.4,158.3 521.5,153.0 522.7,151.2 523.9,152.2 525.1,158.6 526.3,166.2 527.5,171.6 528.7,187.6 529.9,192.2 531.0,189.0 532.2,186.3 533.4,183.7 534.6,185.1 535.8,190.8 537.0,196.5 538.2,202.4 539.3,193.0 540.5,173.1 541.7,167.2 542.9,163.2 544.1,159.9 545.3,156.4 546.5,153.5 547.7,155.7 548.8,157.8 550.0,160.5 551.2,163.6 552.4,166.7 553.6,169.6 554.8,172.1 556.0,174.4 557.1,176.3 558.3,175.3 559.5,172.6 560.7,169.9 561.9,167.3 563.1,164.8 564.3,162.4 565.5,160.1 566.6,158.1 567.8,155.8 569.0,170.8 570.2,171.0 571.4,171.5 572.6,172.5 573.8,174.0 574.9,175.8 576.1,177.8 577.3,179.9 578.5,181.9 579.7,183.8 580.9,185.4 582.1,186.7 583.3,187.8 584.4,188.7 585.6,189.6 586.8,190.4 588.0,191.0 589.2,191.6 590.4,192.2 591.6,192.7 592.7,193.2 593.9,193.6 595.1,193.8 596.3,193.9 597.5,194.1 598.7,194.4 599.9,194.8 601.1,195.3 602.2,195.6 603.4,195.7 604.6,196.4 605.8,197.1 607.0,197.6 608.2,198.2 609.4,198.8 610.5,199.4 611.7,200.1 612.9,200.7 614.1,201.4 615.3,202.1 616.5,202.8 617.7,203.5 618.9,204.3 620.0,205.0 621.2,205.8 622.4,206.6 623.6,207.4 624.8,208.2 626.0,209.0 627.2,209.8 628.3,210.7 629.5,211.6 630.7,212.5 631.9,213.4 633.1,214.3 634.3,215.2 635.5,216.2 636.7,217.2 637.8,218.1 639.0,219.1 640.2,220.1 641.4,221.1 642.6,222.2 643.8,223.2 645.0,224.2 646.1,225.2 647.3,226.3 648.5,227.3 649.7,228.3 650.9,229.4 652.1,230.4 653.3,231.4 654.5,232.4 655.6,233.4 656.8,234.3 658.0,235.3 659.2,236.2 660.4,237.1 661.6,238.0 662.8,238.9 663.9,239.7 665.1,240.6 666.3,241.4 667.5,242.1 668.7,242.8 669.9,243.4 671.1,243.9 672.3,244.3 673.4,244.7 674.6,245.0 675.8,245.3 677.0,245.5 678.2,245.6 679.4,245.7 680.6,245.7 681.7,245.7 682.9,245.6 684.1,245.4 685.3,245.9 686.5,246.2 687.7,246.4 688.9,246.7 690.1,247.0 691.2,247.4 692.4,247.8 693.6,248.1 694.8,248.5 696.0,248.8 697.2,249.1 698.4,249.4 699.5,249.7 700.7,250.0 701.9,250.3 703.1,250.6 704.3,251.0 705.5,251.3 706.7,251.7 707.9,252.2 709.0,252.6 710.2,253.6 711.4,255.9 712.6,257.5 713.8,258.5 715.0,260.1 716.2,261.1 717.3,260.0 718.5,257.0 719.7,252.9 720.9,248.3 722.1,242.0 723.3,236.3 724.5,235.4 725.7,234.1 726.8,242.6 728.0,254.6 729.2,262.7 730.4,266.0 731.6,264.9 732.8,261.3 734.0,258.2 735.1,256.4 736.3,254.2 737.5,252.2 738.7,251.0 739.9,254.2 741.1,256.1 742.3,257.0 743.5,257.2 744.6,256.8 745.8,256.1 747.0,255.2 748.2,255.2 749.4,254.6 750.6,254.2 751.8,254.3 752.9,254.8 754.1,255.2 755.3,256.0 756.5,257.5 757.7,259.3 758.9,261.0 760.1,262.6 761.3,264.0 762.4,265.0 763.6,265.6 764.8,265.8 766.0,265.6"/>
<line x1="606" y1="42" x2="628" y2="42" stroke="#0f62fe" stroke-width="2.2"/>
<text x="634" y="46" font-family="Arial" font-size="12">load_factor_g</text>
</svg>