<svg xmlns="http://www.w3.org/2000/svg" width="820" height="320" viewBox="0 0 820 320">
<rect width="100%" height="100%" fill="#ffffff"/>
<text x="54" y="28" font-family="Arial" font-size="18" font-weight="700">Downrange/Crossrange</text>
<line x1="54" y1="266" x2="766" y2="266" stroke="#1f2933"/>
<line x1="54" y1="54" x2="54" y2="266" stroke="#1f2933"/>
<text x="54" y="306" font-family="Arial" font-size="12">downrange (m)</text>
<text x="596" y="306" font-family="Arial" font-size="12">crossrange (m)</text>
<text x="58" y="68" font-family="Arial" font-size="11">226</text>
<text x="58" y="260" font-family="Arial" font-size="11">-23.3</text>
<polyline fill="none" stroke="#0f62fe" stroke-width="2.2" points="54.0,246.2 55.6,246.2 57.3,246.2 58.9,246.2 60.5,246.3 62.2,246.3 63.9,246.3 65.5,246.3 67.2,246.3 68.9,246.4 70.6,246.4 72.4,246.4 74.1,246.4 75.9,246.5 77.6,246.5 79.4,246.5 81.2,246.6 82.9,246.6 84.7,246.7 86.5,246.7 88.4,246.8 90.2,246.9 92.0,246.9 93.9,247.0 95.7,247.1 97.6,247.2 99.5,247.4 101.4,247.5 103.3,247.6 105.2,247.8 107.1,247.9 109.0,248.1 110.9,248.3 112.9,248.5 114.8,248.7 116.8,248.9 118.8,249.1 120.7,249.3 122.7,249.5 124.7,249.7 126.8,249.9 128.8,250.1 130.8,250.4 132.9,250.6 134.9,250.8 137.0,251.0 139.1,251.2 141.2,251.3 143.3,251.5 145.4,251.7 147.5,251.8 149.7,252.0 151.8,252.1 153.9,252.2 156.1,252.4 158.3,252.5 160.5,252.6 162.7,252.8 164.8,253.0 167.0,253.2 169.2,253.4 171.4,253.5 173.6,253.7 175.8,253.9 177.9,254.1 180.1,254.2 182.3,254.4 184.4,254.5 186.6,254.6 188.8,254.7 190.9,254.8 193.1,254.9 195.2,254.9 197.4,254.9 199.5,255.0 201.7,255.0 203.8,255.1 206.0,255.1 208.1,255.2 210.3,255.4 212.4,255.5 214.5,255.6 216.6,255.8 218.8,255.9 220.9,256.0 223.0,256.1 225.1,256.2 227.2,256.2 229.4,256.3 231.5,256.3 233.6,256.4 235.7,256.4 237.8,256.5 239.9,256.6 242.0,256.7 244.0,256.9 246.1,257.0 248.2,257.2 250.3,257.3 252.4,257.4 254.5,257.5 256.6,257.6 258.7,257.7 260.7,257.7 262.8,257.8 264.9,257.9 266.9,257.9 269.0,258.0 271.0,258.2 273.0,258.3 275.1,258.4 277.1,258.6 279.1,258.8 281.2,258.9 283.2,259.0 285.3,259.2 287.3,259.3 289.4,259.4 291.4,259.4 293.5,259.5 295.5,259.6 297.5,259.7 299.5,259.8 301.5,259.9 303.4,260.0 305.4,260.2 307.4,260.3 309.3,260.5 311.3,260.7 313.3,260.9 315.3,261.1 317.3,261.2 319.3,261.4 321.3,261.5 323.2,261.6 325.2,261.7 327.1,261.8 329.1,261.9 331.0,262.0 332.9,262.1 334.8,262.2 336.6,262.3 338.5,262.4 340.3,262.6 342.1,262.7 344.0,262.9 345.8,263.1 347.7,263.3 349.5,263.5 351.4,263.7 353.3,263.8 355.1,264.0 356.9,264.1 358.8,264.2 360.6,264.3 362.4,264.3 364.1,264.4 365.9,264.5 367.6,264.5 369.4,264.6 371.1,264.7 372.7,264.7 374.4,264.8 376.1,264.9 377.7,265.0 379.4,265.1 381.0,265.2 382.6,265.4 384.3,265.5 386.0,265.6 387.6,265.7 389.3,265.8 390.9,265.9 392.6,265.9 394.2,266.0 395.9,266.0 397.5,266.0 399.1,266.0 400.7,266.0 402.2,265.9 403.8,265.9 405.3,265.9 406.9,265.8 408.4,265.8 409.9,265.8 411.4,265.8 412.9,265.8 414.5,265.8 416.0,265.8 417.6,265.7 419.1,265.6 420.6,265.6 422.2,265.5 423.7,265.3 425.2,265.2 426.7,265.1 428.2,265.0 429.6,264.8 431.1,264.7 432.5,264.5 433.9,264.4 435.3,264.2 436.8,264.1 438.2,263.9 439.6,263.8 441.1,263.6 442.5,263.4 444.0,263.2 445.4,263.0 446.9,262.7 448.3,262.5 449.7,262.3 451.1,262.0 452.5,261.8 453.9,261.5 455.3,261.3 456.6,261.0 457.9,260.8 459.3,260.5 460.6,260.2 461.9,259.9 463.2,259.6 464.5,259.3 465.8,259.0 467.1,258.7 468.4,258.3 469.7,258.0 471.1,257.6 472.4,257.2 473.7,256.9 475.1,256.5 476.4,256.2 477.7,255.9 479.1,255.5 480.4,255.2 481.7,254.9 483.0,254.5 484.2,254.2 485.5,253.9 486.7,253.6 488.0,253.3 489.2,252.9 490.4,252.6 491.6,252.3 492.7,251.9 493.9,251.5 495.0,251.2 496.2,250.8 497.3,250.4 498.4,249.9 499.5,249.5 500.7,249.0 501.8,248.5 502.9,248.0 504.0,247.5 505.1,247.0 506.2,246.4 507.4,245.8 508.5,245.3 509.6,244.7 510.8,244.1 511.9,243.5 513.0,242.9 514.2,242.3 515.3,241.6 516.4,241.0 517.5,240.4 518.7,239.7 519.8,239.1 520.9,238.4 522.0,237.7 523.1,237.1 524.2,236.3 525.2,235.6 526.3,234.9 527.4,234.1 528.5,233.3 529.6,232.5 530.7,231.8 531.8,231.0 532.9,230.2 534.1,229.5 535.2,228.8 536.3,228.1 537.5,227.4 538.6,226.7 539.8,226.0 540.9,225.4 542.1,224.7 543.2,224.0 544.4,223.4 545.6,222.7 546.7,222.0 547.9,221.3 549.1,220.6 550.3,219.9 551.5,219.2 552.7,218.5 553.9,217.7 555.1,217.0 556.3,216.2 557.4,215.5 558.6,214.8 559.8,214.1 560.9,213.4 562.1,212.8 563.2,212.1 564.3,211.5 565.4,210.9 566.6,210.3 567.7,209.8 568.8,209.2 569.9,208.7 571.0,208.1 572.2,207.6 573.3,207.1 574.5,206.6 575.7,206.0 576.9,205.5 578.0,205.0 579.2,204.4 580.4,203.8 581.6,203.3 582.7,202.7 583.8,202.1 584.9,201.5 586.0,200.9 587.1,200.3 588.2,199.8 589.3,199.2 590.3,198.7 591.3,198.1 592.3,197.6 593.4,197.1 594.4,196.7 595.4,196.2 596.4,195.8 597.4,195.3 598.4,194.9 599.5,194.5 600.5,194.1 601.6,193.7 602.7,193.3 603.7,192.8 604.8,192.3 605.9,191.8 606.9,191.3 608.0,190.8 609.0,190.3 610.1,189.7 611.1,189.2 612.1,188.7 613.0,188.1 614.0,187.6 614.9,187.0 615.9,186.5 616.8,186.0 617.7,185.5 618.6,185.1 619.5,184.6 620.4,184.2 621.3,183.7 622.2,183.3 623.1,183.0 624.0,182.6 624.9,182.2 625.8,181.9 626.8,181.6 627.7,181.2 628.7,180.9 629.6,180.5 630.6,180.1 631.6,179.8 632.5,179.4 633.5,178.9 634.5,178.5 635.4,178.0 636.4,177.6 637.4,177.1 638.3,176.6 639.2,176.1 640.2,175.6 641.1,175.1 642.0,174.6 642.9,174.1 643.7,173.6 644.6,173.1 645.5,172.6 646.3,172.1 647.2,171.6 648.0,171.1 648.9,170.7 649.7,170.2 650.6,169.8 651.5,169.3 652.3,168.8 653.2,168.3 654.1,167.8 655.0,167.3 655.9,166.7 656.8,166.2 657.6,165.6 658.5,165.0 659.3,164.4 660.1,163.8 660.9,163.3 661.7,162.7 662.5,162.1 663.3,161.5 664.0,161.0 664.8,160.4 665.5,159.9 666.3,159.3 667.1,158.8 667.8,158.3 668.6,157.8 669.4,157.2 670.2,156.7 671.0,156.2 671.8,155.6 672.6,155.1 673.4,154.5 674.2,153.9 675.0,153.2 675.8,152.6 676.6,152.0 677.4,151.3 678.2,150.6 678.9,150.0 679.7,149.3 680.4,148.6 681.1,147.9 681.8,147.3 682.5,146.6 683.1,146.0 683.8,145.3 684.5,144.6 685.1,144.0 685.8,143.3 686.4,142.7 687.1,142.0 687.8,141.4 688.4,140.7 689.1,140.1 689.7,139.4 690.4,138.8 691.0,138.1 691.7,137.5 692.3,136.9 692.9,136.2 693.6,135.6 694.2,134.9 694.8,134.3 695.5,133.7 696.1,133.0 696.7,132.4 697.3,131.8 697.9,131.1 698.5,130.5 699.2,129.9 699.8,129.3 700.4,128.7 701.0,128.1 701.6,127.5 702.2,126.9 702.8,126.3 703.4,125.7 704.0,125.1 704.6,124.5 705.2,123.9 705.8,123.3 706.4,122.7 707.0,122.2 707.6,121.6 708.2,121.0 708.8,120.4 709.4,119.8 709.9,119.2 710.5,118.7 711.1,118.1 711.7,117.5 712.3,116.9 712.8,116.4 713.4,115.8 714.0,115.2 714.5,114.6 715.1,114.1 715.7,113.5 716.2,112.9 716.8,112.3 717.3,111.8 717.9,111.2 718.4,110.6 719.0,110.1 719.5,109.5 720.1,108.9 720.6,108.4 721.2,107.8 721.7,107.3 722.3,106.7 722.8,106.2 723.4,105.6 723.9,105.1 724.5,104.5 725.1,104.0 725.6,103.4 726.2,102.9 726.7,102.3 727.3,101.8 727.8,101.2 728.4,100.6 728.9,100.1 729.5,99.5 730.0,99.0 730.6,98.4 731.1,97.9 731.7,97.3 732.2,96.8 732.7,96.2 733.3,95.6 733.8,95.1 734.4,94.5 734.9,93.9 735.5,93.3 736.0,92.8 736.5,92.2 737.1,91.6 737.6,91.0 738.1,90.4 738.6,89.8 739.2,89.3 739.7,88.7 740.2,88.1 740.7,87.5 741.2,86.9 741.7,86.4 742.2,85.8 742.7,85.2 743.2,84.7 743.7,84.1 744.2,83.5 744.7,83.0 745.2,82.4 745.7,81.8 746.1,81.3 746.6,80.7 747.1,80.1 747.6,79.6 748.1,79.0 748.5,78.4 749.0,77.8 749.5,77.3 750.0,76.7 750.4,76.1 750.9,75.5 751.3,75.0 751.8,74.4 752.2,73.8 752.7,73.3 753.1,72.7 753.5,72.1 754.0,71.5 754.4,71.0 754.8,70.4 755.2,69.8 755.6,69.2 756.1,68.7 756.5,68.1 756.9,67.5 757.2,67.0 757.6,66.4 758.0,65.9 758.4,65.3 758.8,64.8 759.2,64.2 759.6,63.7 759.9,63.1 760.3,62.6 760.7,62.0 761.0,61.5 761.4,60.9 761.8,60.4 762.1,59.8 762.5,59.3 762.8,58.7 763.2,58.2 763.5,57.7 763.9,57.1 764.3,56.6 764.6,56.1 765.0,55.6 765.3,55.0 765.7,54.5 766.0,54.0"/>
<line x1="606" y1="42" x2="628" y2="42" stroke="#0f62fe" stroke-width="2.2"/>
<text x="634" y="46" font-family="Arial" font-size="12">y_m</text>
</svg>