<svg xmlns="http://www.w3.org/2000/svg" width="820" height="320" viewBox="0 0 820 320">
<rect width="100%" height="100%" fill="#ffffff"/>
<text x="54" y="28" font-family="Arial" font-size="18" font-weight="700">Velocity X</text>
<line x1="54" y1="266" x2="766" y2="266" stroke="#1f2933"/>
<line x1="54" y1="54" x2="54" y2="266" stroke="#1f2933"/>
<text x="54" y="306" font-family="Arial" font-size="12">time (s)</text>
<text x="596" y="306" font-family="Arial" font-size="12">vx (m/s)</text>
<text x="58" y="68" font-family="Arial" font-size="11">117</text>
<text x="58" y="260" font-family="Arial" font-size="11">18.4</text>
<polyline fill="none" stroke="#0f62fe" stroke-width="2.2" points="54.0,120.4 55.2,119.4 56.4,118.3 57.6,117.2 58.8,116.1 60.0,114.9 61.2,113.7 62.4,112.6 63.6,111.3 64.8,110.1 66.0,108.9 67.2,107.6 68.4,106.4 69.6,105.1 70.8,103.8 72.0,102.5 73.2,101.3 74.4,100.0 75.6,98.8 76.8,97.6 78.0,96.4 79.2,95.3 80.4,94.2 81.6,93.1 82.8,92.0 84.0,91.0 85.2,89.9 86.4,88.9 87.6,87.9 88.8,86.8 90.0,85.8 91.2,84.7 92.4,83.6 93.6,82.5 94.8,81.4 96.0,80.2 97.2,79.0 98.4,77.7 99.6,76.4 100.8,75.1 102.0,73.8 103.2,72.5 104.4,71.1 105.6,69.8 106.8,68.5 108.0,67.3 109.2,66.1 110.4,65.0 111.6,63.9 112.8,62.9 114.0,61.8 115.2,60.7 116.4,59.6 117.6,58.3 118.8,57.0 120.0,55.8 121.2,54.9 122.4,54.3 123.6,54.0 124.8,54.0 126.0,54.1 127.2,54.5 128.4,54.9 129.6,55.4 130.8,55.9 132.0,56.2 133.2,56.1 134.4,56.5 135.6,57.0 136.8,57.4 138.0,57.8 139.2,58.1 140.4,58.3 141.6,58.4 142.8,58.4 144.1,58.5 145.3,58.7 146.5,58.9 147.7,59.3 148.9,59.7 150.1,60.2 151.3,60.7 152.5,61.2 153.7,61.6 154.9,61.8 156.1,62.0 157.3,62.1 158.5,62.3 159.7,62.6 160.9,63.0 162.1,63.5 163.3,64.0 164.5,64.6 165.7,65.1 166.9,65.5 168.1,65.8 169.3,65.9 170.5,65.9 171.7,65.8 172.9,65.7 174.1,65.5 175.3,65.5 176.5,65.7 177.7,66.3 178.9,67.2 180.1,68.3 181.3,69.4 182.5,70.5 183.7,71.4 184.9,72.0 186.1,72.3 187.3,72.3 188.5,72.1 189.7,71.3 190.9,70.4 192.1,69.8 193.3,69.5 194.5,70.0 195.7,70.9 196.9,72.1 198.1,73.5 199.3,75.0 200.5,76.3 201.7,77.5 202.9,78.5 204.1,79.2 205.3,79.4 206.5,79.3 207.7,78.4 208.9,77.1 210.1,76.5 211.3,76.4 212.5,76.9 213.7,77.7 214.9,79.0 216.1,80.4 217.3,82.1 218.5,84.0 219.7,85.9 220.9,87.7 222.1,89.6 223.3,91.4 224.5,92.8 225.7,93.9 226.9,94.5 228.1,94.5 229.3,94.1 230.5,92.9 231.7,91.9 232.9,91.6 234.1,92.0 235.3,92.9 236.5,94.3 237.7,95.9 238.9,97.8 240.1,99.7 241.3,101.7 242.5,103.9 243.7,106.0 244.9,108.2 246.1,110.2 247.3,112.1 248.5,113.8 249.7,115.2 250.9,116.1 252.1,116.5 253.3,116.5 254.5,116.3 255.7,115.4 256.9,114.9 258.1,114.6 259.3,114.7 260.5,115.1 261.7,115.9 262.9,117.1 264.1,118.6 265.3,120.3 266.5,121.6 267.7,123.3 268.9,125.1 270.1,126.9 271.3,128.5 272.5,129.8 273.7,130.7 274.9,131.1 276.1,131.0 277.3,130.0 278.5,128.9 279.7,128.2 280.9,128.0 282.1,128.3 283.3,129.1 284.5,129.9 285.7,131.2 286.9,132.9 288.1,134.7 289.3,136.5 290.5,138.2 291.7,139.8 292.9,141.1 294.1,141.9 295.3,142.1 296.5,141.4 297.7,140.5 298.9,139.7 300.1,139.0 301.3,138.7 302.5,138.8 303.7,139.4 304.9,140.4 306.1,141.3 307.3,142.5 308.5,144.0 309.7,145.6 310.9,147.3 312.1,149.0 313.3,150.9 314.5,152.7 315.7,154.3 316.9,155.6 318.1,156.5 319.3,156.5 320.5,156.3 321.8,155.7 323.0,154.8 324.2,153.8 325.4,152.8 326.6,152.1 327.8,151.6 329.0,151.4 330.2,151.6 331.4,152.0 332.6,152.7 333.8,153.7 335.0,154.9 336.2,156.2 337.4,157.7 338.6,159.2 339.8,160.9 341.0,162.8 342.2,164.7 343.4,166.5 344.6,168.3 345.8,169.8 347.0,171.2 348.2,172.5 349.4,173.6 350.6,174.6 351.8,175.6 353.0,176.5 354.2,177.1 355.4,177.2 356.6,177.4 357.8,177.5 359.0,177.5 360.2,177.3 361.4,176.9 362.6,176.5 363.8,176.0 365.0,175.6 366.2,175.4 367.4,175.2 368.6,175.2 369.8,175.2 371.0,175.5 372.2,175.9 373.4,176.6 374.6,177.4 375.8,178.1 377.0,178.8 378.2,179.4 379.4,180.0 380.6,180.4 381.8,180.6 383.0,180.8 384.2,180.8 385.4,180.4 386.6,179.6 387.8,178.5 389.0,177.5 390.2,176.6 391.4,175.9 392.6,175.3 393.8,174.8 395.0,174.4 396.2,174.1 397.4,173.8 398.6,173.5 399.8,173.1 401.0,172.7 402.2,172.2 403.4,171.6 404.6,170.9 405.8,170.1 407.0,169.3 408.2,168.6 409.4,168.1 410.6,167.9 411.8,168.2 413.0,168.7 414.2,169.4 415.4,170.3 416.6,171.4 417.8,172.4 419.0,173.5 420.2,174.5 421.4,175.4 422.6,176.1 423.8,176.7 425.0,177.1 426.2,177.3 427.4,177.2 428.6,176.7 429.8,175.9 431.0,174.9 432.2,173.5 433.4,172.0 434.6,170.8 435.8,170.0 437.0,169.7 438.2,169.9 439.4,170.7 440.6,172.0 441.8,173.6 443.0,175.4 444.2,177.3 445.4,179.2 446.6,181.1 447.8,182.8 449.0,184.4 450.2,185.9 451.4,187.2 452.6,188.3 453.8,189.1 455.0,189.6 456.2,189.6 457.4,189.2 458.6,188.5 459.8,187.3 461.0,185.9 462.2,184.6 463.4,183.5 464.6,182.7 465.8,182.3 467.0,182.4 468.2,182.9 469.4,183.8 470.6,184.9 471.8,186.3 473.0,187.9 474.2,189.6 475.4,191.4 476.6,193.2 477.8,195.0 479.0,196.7 480.2,198.2 481.4,199.7 482.6,200.9 483.8,201.8 485.0,202.5 486.2,203.0 487.4,203.1 488.6,202.9 489.8,202.5 491.0,201.8 492.2,200.8 493.4,199.8 494.6,198.6 495.8,197.3 497.0,195.9 498.2,195.1 499.5,194.5 500.7,194.1 501.9,193.9 503.1,193.8 504.3,194.0 505.5,194.4 506.7,195.0 507.9,195.9 509.1,197.0 510.3,198.3 511.5,199.6 512.7,200.9 513.9,202.1 515.1,203.1 516.3,204.6 517.5,206.0 518.7,207.2 519.9,208.1 521.1,208.6 522.3,208.6 523.5,208.1 524.7,207.2 525.9,206.1 527.1,205.0 528.3,204.0 529.5,203.4 530.7,203.2 531.9,203.7 533.1,204.6 534.3,205.8 535.5,207.3 536.7,208.8 537.9,210.4 539.1,211.9 540.3,213.2 541.5,214.5 542.7,215.6 543.9,216.6 545.1,217.4 546.3,218.0 547.5,218.4 548.7,218.4 549.9,218.1 551.1,217.6 552.3,216.9 553.5,216.0 554.7,215.0 555.9,214.1 557.1,213.3 558.3,212.8 559.5,212.6 560.7,212.5 561.9,212.6 563.1,213.1 564.3,214.2 565.5,215.6 566.7,217.1 567.9,218.8 569.1,220.5 570.3,222.3 571.5,224.1 572.7,225.8 573.9,227.4 575.1,229.0 576.3,229.2 577.5,229.3 578.7,229.5 579.9,229.6 581.1,229.8 582.3,230.0 583.5,230.2 584.7,230.4 585.9,230.7 587.1,230.9 588.3,231.2 589.5,231.4 590.7,231.7 591.9,231.9 593.1,232.2 594.3,232.5 595.5,232.9 596.7,233.3 597.9,233.8 599.1,234.3 600.3,234.8 601.5,234.8 602.7,234.9 603.9,235.0 605.1,235.3 606.3,235.6 607.5,235.9 608.7,236.1 609.9,236.3 611.1,236.5 612.3,236.6 613.5,236.5 614.7,236.5 615.9,236.5 617.1,236.6 618.3,236.7 619.5,236.9 620.7,237.0 621.9,237.2 623.1,237.3 624.3,237.6 625.5,237.9 626.7,238.3 627.9,238.6 629.1,238.9 630.3,239.1 631.5,239.4 632.7,239.7 633.9,240.1 635.1,240.5 636.3,240.8 637.5,241.0 638.7,241.2 639.9,241.5 641.1,241.8 642.3,242.1 643.5,242.3 644.7,242.4 645.9,242.6 647.1,242.7 648.3,242.9 649.5,243.0 650.7,242.8 651.9,242.5 653.1,242.2 654.3,241.9 655.5,241.6 656.7,241.4 657.9,241.3 659.1,241.6 660.3,241.8 661.5,241.9 662.7,242.0 663.9,242.1 665.1,242.3 666.3,242.4 667.5,242.6 668.7,242.7 669.9,242.7 671.1,242.6 672.3,242.6 673.5,242.8 674.7,243.0 675.9,243.1 677.2,243.2 678.4,243.2 679.6,243.1 680.8,243.0 682.0,243.2 683.2,243.7 684.4,244.2 685.6,244.5 686.8,245.0 688.0,245.4 689.2,245.8 690.4,246.2 691.6,246.3 692.8,246.8 694.0,247.1 695.2,247.5 696.4,247.7 697.6,247.9 698.8,248.1 700.0,248.4 701.2,248.8 702.4,249.2 703.6,249.5 704.8,249.6 706.0,249.5 707.2,250.0 708.4,250.4 709.6,250.7 710.8,250.8 712.0,250.9 713.2,250.8 714.4,250.7 715.6,250.9 716.8,251.5 718.0,252.1 719.2,252.7 720.4,253.3 721.6,253.9 722.8,254.5 724.0,255.1 725.2,255.6 726.4,256.0 727.6,256.5 728.8,257.1 730.0,257.6 731.2,258.0 732.4,258.4 733.6,258.8 734.8,259.2 736.0,259.7 737.2,260.3 738.4,260.5 739.6,260.7 740.8,261.0 742.0,261.4 743.2,261.8 744.4,262.2 745.6,262.5 746.8,262.9 748.0,263.3 749.2,263.8 750.4,264.4 751.6,264.5 752.8,264.5 754.0,264.4 755.2,264.5 756.4,264.7 757.6,265.1 758.8,264.9 760.0,264.9 761.2,265.1 762.4,265.4 763.6,265.7 764.8,265.9 766.0,266.0"/>
<line x1="606" y1="42" x2="628" y2="42" stroke="#0f62fe" stroke-width="2.2"/>
<text x="634" y="46" font-family="Arial" font-size="12">vx_mps</text>
</svg>