<svg xmlns="http://www.w3.org/2000/svg" width="820" height="320" viewBox="0 0 820 320">
<rect width="100%" height="100%" fill="#ffffff"/>
<text x="54" y="28" font-family="Arial" font-size="18" font-weight="700">Actuator Saturation</text>
<line x1="54" y1="266" x2="766" y2="266" stroke="#1f2933"/>
<line x1="54" y1="54" x2="54" y2="266" stroke="#1f2933"/>
<text x="54" y="306" font-family="Arial" font-size="12">time (s)</text>
<text x="596" y="306" font-family="Arial" font-size="12">flag</text>
<text x="58" y="68" font-family="Arial" font-size="11">1</text>
<text x="58" y="260" font-family="Arial" font-size="11">-1</text>
<polyline fill="none" stroke="#0f62fe" stroke-width="2.2" points="54.0,160.0 55.2,160.0 56.4,160.0 57.6,160.0 58.8,160.0 60.0,160.0 61.2,160.0 62.4,160.0 63.6,160.0 64.8,160.0 66.0,160.0 67.2,160.0 68.4,160.0 69.6,160.0 70.8,160.0 72.0,160.0 73.2,160.0 74.4,160.0 75.6,160.0 76.8,160.0 78.0,160.0 79.2,160.0 80.4,160.0 81.6,160.0 82.8,160.0 84.0,160.0 85.2,160.0 86.4,160.0 87.6,160.0 88.8,160.0 90.0,160.0 91.2,160.0 92.4,160.0 93.6,160.0 94.8,160.0 96.0,160.0 97.2,160.0 98.4,160.0 99.6,160.0 100.8,160.0 102.0,160.0 103.2,160.0 104.4,160.0 105.6,160.0 106.8,160.0 108.0,160.0 109.2,160.0 110.4,160.0 111.6,160.0 112.8,160.0 114.0,160.0 115.2,160.0 116.4,160.0 117.6,160.0 118.8,160.0 120.0,160.0 121.2,160.0 122.4,160.0 123.6,160.0 124.8,160.0 126.0,160.0 127.2,160.0 128.4,160.0 129.6,160.0 130.8,160.0 132.0,160.0 133.2,160.0 134.4,160.0 135.6,160.0 136.8,160.0 138.0,160.0 139.2,160.0 140.4,160.0 141.6,160.0 142.8,160.0 144.1,160.0 145.3,160.0 146.5,160.0 147.7,160.0 148.9,160.0 150.1,160.0 151.3,160.0 152.5,160.0 153.7,160.0 154.9,160.0 156.1,160.0 157.3,160.0 158.5,160.0 159.7,160.0 160.9,160.0 162.1,160.0 163.3,160.0 164.5,160.0 165.7,160.0 166.9,160.0 168.1,160.0 169.3,160.0 170.5,160.0 171.7,160.0 172.9,160.0 174.1,160.0 175.3,160.0 176.5,160.0 177.7,160.0 178.9,160.0 180.1,160.0 181.3,160.0 182.5,160.0 183.7,160.0 184.9,160.0 186.1,160.0 187.3,160.0 188.5,160.0 189.7,160.0 190.9,160.0 192.1,160.0 193.3,160.0 194.5,160.0 195.7,160.0 196.9,160.0 198.1,160.0 199.3,160.0 200.5,160.0 201.7,160.0 202.9,160.0 204.1,160.0 205.3,160.0 206.5,160.0 207.7,160.0 208.9,160.0 210.1,160.0 211.3,160.0 212.5,160.0 213.7,160.0 214.9,160.0 216.1,160.0 217.3,160.0 218.5,160.0 219.7,160.0 220.9,160.0 222.1,160.0 223.3,160.0 224.5,160.0 225.7,160.0 226.9,160.0 228.1,160.0 229.3,160.0 230.5,160.0 231.7,160.0 232.9,160.0 234.1,160.0 235.3,160.0 236.5,160.0 237.7,160.0 238.9,160.0 240.1,160.0 241.3,160.0 242.5,160.0 243.7,160.0 244.9,160.0 246.1,160.0 247.3,160.0 248.5,160.0 249.7,160.0 250.9,160.0 252.1,160.0 253.3,160.0 254.5,160.0 255.7,160.0 256.9,160.0 258.1,160.0 259.3,160.0 260.5,160.0 261.7,160.0 262.9,160.0 264.1,160.0 265.3,160.0 266.5,160.0 267.7,160.0 268.9,160.0 270.1,160.0 271.3,160.0 272.5,160.0 273.7,160.0 274.9,160.0 276.1,160.0 277.3,160.0 278.5,160.0 279.7,160.0 280.9,160.0 282.1,160.0 283.3,160.0 284.5,160.0 285.7,160.0 286.9,160.0 288.1,160.0 289.3,160.0 290.5,160.0 291.7,160.0 292.9,160.0 294.1,160.0 295.3,160.0 296.5,160.0 297.7,160.0 298.9,160.0 300.1,160.0 301.3,160.0 302.5,160.0 303.7,160.0 304.9,160.0 306.1,160.0 307.3,160.0 308.5,160.0 309.7,160.0 310.9,160.0 312.1,160.0 313.3,160.0 314.5,160.0 315.7,160.0 316.9,160.0 318.1,160.0 319.3,160.0 320.5,160.0 321.8,160.0 323.0,160.0 324.2,160.0 325.4,160.0 326.6,160.0 327.8,160.0 329.0,160.0 330.2,160.0 331.4,160.0 332.6,160.0 333.8,160.0 335.0,160.0 336.2,160.0 337.4,160.0 338.6,160.0 339.8,160.0 341.0,160.0 342.2,160.0 343.4,160.0 344.6,160.0 345.8,160.0 347.0,160.0 348.2,160.0 349.4,160.0 350.6,160.0 351.8,160.0 353.0,160.0 354.2,160.0 355.4,160.0 356.6,160.0 357.8,160.0 359.0,160.0 360.2,160.0 361.4,160.0 362.6,160.0 363.8,160.0 365.0,160.0 366.2,160.0 367.4,160.0 368.6,160.0 369.8,160.0 371.0,160.0 372.2,160.0 373.4,160.0 374.6,160.0 375.8,160.0 377.0,160.0 378.2,160.0 379.4,160.0 380.6,160.0 381.8,160.0 383.0,160.0 384.2,160.0 385.4,160.0 386.6,160.0 387.8,160.0 389.0,160.0 390.2,160.0 391.4,160.0 392.6,160.0 393.8,160.0 395.0,160.0 396.2,160.0 397.4,160.0 398.6,160.0 399.8,160.0 401.0,160.0 402.2,160.0 403.4,160.0 404.6,160.0 405.8,160.0 407.0,160.0 408.2,160.0 409.4,160.0 410.6,160.0 411.8,160.0 413.0,160.0 414.2,160.0 415.4,160.0 416.6,160.0 417.8,160.0 419.0,160.0 420.2,160.0 421.4,160.0 422.6,160.0 423.8,160.0 425.0,160.0 426.2,160.0 427.4,160.0 428.6,160.0 429.8,160.0 431.0,160.0 432.2,160.0 433.4,160.0 434.6,160.0 435.8,160.0 437.0,160.0 438.2,160.0 439.4,160.0 440.6,160.0 441.8,160.0 443.0,160.0 444.2,160.0 445.4,160.0 446.6,160.0 447.8,160.0 449.0,160.0 450.2,160.0 451.4,160.0 452.6,160.0 453.8,160.0 455.0,160.0 456.2,160.0 457.4,160.0 458.6,160.0 459.8,160.0 461.0,160.0 462.2,160.0 463.4,160.0 464.6,160.0 465.8,160.0 467.0,160.0 468.2,160.0 469.4,160.0 470.6,160.0 471.8,160.0 473.0,160.0 474.2,160.0 475.4,160.0 476.6,160.0 477.8,160.0 479.0,160.0 480.2,160.0 481.4,160.0 482.6,160.0 483.8,160.0 485.0,160.0 486.2,160.0 487.4,160.0 488.6,160.0 489.8,160.0 491.0,160.0 492.2,160.0 493.4,160.0 494.6,160.0 495.8,160.0 497.0,160.0 498.2,160.0 499.5,160.0 500.7,160.0 501.9,160.0 503.1,160.0 504.3,160.0 505.5,160.0 506.7,160.0 507.9,160.0 509.1,160.0 510.3,160.0 511.5,160.0 512.7,160.0 513.9,160.0 515.1,160.0 516.3,160.0 517.5,160.0 518.7,160.0 519.9,160.0 521.1,160.0 522.3,160.0 523.5,160.0 524.7,160.0 525.9,160.0 527.1,160.0 528.3,160.0 529.5,160.0 530.7,160.0 531.9,160.0 533.1,160.0 534.3,160.0 535.5,160.0 536.7,160.0 537.9,160.0 539.1,160.0 540.3,160.0 541.5,160.0 542.7,160.0 543.9,160.0 545.1,160.0 546.3,160.0 547.5,160.0 548.7,160.0 549.9,160.0 551.1,160.0 552.3,160.0 553.5,160.0 554.7,160.0 555.9,160.0 557.1,160.0 558.3,160.0 559.5,160.0 560.7,160.0 561.9,160.0 563.1,160.0 564.3,160.0 565.5,160.0 566.7,160.0 567.9,160.0 569.1,160.0 570.3,160.0 571.5,160.0 572.7,160.0 573.9,160.0 575.1,160.0 576.3,160.0 577.5,160.0 578.7,160.0 579.9,160.0 581.1,160.0 582.3,160.0 583.5,160.0 584.7,160.0 585.9,160.0 587.1,160.0 588.3,160.0 589.5,160.0 590.7,160.0 591.9,160.0 593.1,160.0 594.3,160.0 595.5,160.0 596.7,160.0 597.9,160.0 599.1,160.0 600.3,160.0 601.5,160.0 602.7,160.0 603.9,160.0 605.1,160.0 606.3,160.0 607.5,160.0 608.7,160.0 609.9,160.0 611.1,160.0 612.3,160.0 613.5,160.0 614.7,160.0 615.9,160.0 617.1,160.0 618.3,160.0 619.5,160.0 620.7,160.0 621.9,160.0 623.1,160.0 624.3,160.0 625.5,160.0 626.7,160.0 627.9,160.0 629.1,160.0 630.3,160.0 631.5,160.0 632.7,160.0 633.9,160.0 635.1,160.0 636.3,160.0 637.5,160.0 638.7,160.0 639.9,160.0 641.1,160.0 642.3,160.0 643.5,160.0 644.7,160.0 645.9,160.0 647.1,160.0 648.3,160.0 649.5,160.0 650.7,160.0 651.9,160.0 653.1,160.0 654.3,160.0 655.5,160.0 656.7,160.0 657.9,160.0 659.1,160.0 660.3,160.0 661.5,160.0 662.7,160.0 663.9,160.0 665.1,160.0 666.3,160.0 667.5,160.0 668.7,160.0 669.9,160.0 671.1,160.0 672.3,160.0 673.5,160.0 674.7,160.0 675.9,160.0 677.2,160.0 678.4,160.0 679.6,160.0 680.8,160.0 682.0,160.0 683.2,160.0 684.4,160.0 685.6,160.0 686.8,160.0 688.0,160.0 689.2,160.0 690.4,160.0 691.6,160.0 692.8,160.0 694.0,160.0 695.2,160.0 696.4,160.0 697.6,160.0 698.8,160.0 700.0,160.0 701.2,160.0 702.4,160.0 703.6,160.0 704.8,160.0 706.0,160.0 707.2,160.0 708.4,160.0 709.6,160.0 710.8,160.0 712.0,160.0 713.2,160.0 714.4,160.0 715.6,160.0 716.8,160.0 718.0,160.0 719.2,160.0 720.4,160.0 721.6,160.0 722.8,160.0 724.0,160.0 725.2,160.0 726.4,160.0 727.6,160.0 728.8,160.0 730.0,160.0 731.2,160.0 732.4,160.0 733.6,160.0 734.8,160.0 736.0,160.0 737.2,160.0 738.4,160.0 739.6,160.0 740.8,160.0 742.0,160.0 743.2,160.0 744.4,160.0 745.6,160.0 746.8,160.0 748.0,160.0 749.2,160.0 750.4,160.0 751.6,160.0 752.8,160.0 754.0,160.0 755.2,160.0 756.4,160.0 757.6,160.0 758.8,160.0 760.0,160.0 761.2,160.0 762.4,160.0 763.6,160.0 764.8,160.0 766.0,160.0"/>
<line x1="606" y1="42" x2="628" y2="42" stroke="#0f62fe" stroke-width="2.2"/>
<text x="634" y="46" font-family="Arial" font-size="12">elevator_saturated</text>
<polyline fill="none" stroke="#24a148" stroke-width="2.2" points="54.0,160.0 55.2,160.0 56.4,160.0 57.6,160.0 58.8,160.0 60.0,160.0 61.2,160.0 62.4,160.0 63.6,160.0 64.8,160.0 66.0,160.0 67.2,160.0 68.4,160.0 69.6,160.0 70.8,160.0 72.0,160.0 73.2,160.0 74.4,160.0 75.6,160.0 76.8,160.0 78.0,160.0 79.2,160.0 80.4,160.0 81.6,160.0 82.8,160.0 84.0,160.0 85.2,160.0 86.4,160.0 87.6,160.0 88.8,160.0 90.0,160.0 91.2,160.0 92.4,160.0 93.6,160.0 94.8,160.0 96.0,160.0 97.2,160.0 98.4,160.0 99.6,160.0 100.8,160.0 102.0,160.0 103.2,160.0 104.4,160.0 105.6,160.0 106.8,160.0 108.0,160.0 109.2,160.0 110.4,160.0 111.6,160.0 112.8,160.0 114.0,160.0 115.2,160.0 116.4,160.0 117.6,160.0 118.8,160.0 120.0,160.0 121.2,160.0 122.4,160.0 123.6,160.0 124.8,160.0 126.0,160.0 127.2,160.0 128.4,160.0 129.6,160.0 130.8,160.0 132.0,160.0 133.2,160.0 134.4,160.0 135.6,160.0 136.8,160.0 138.0,160.0 139.2,160.0 140.4,160.0 141.6,160.0 142.8,160.0 144.1,160.0 145.3,160.0 146.5,160.0 147.7,160.0 148.9,160.0 150.1,160.0 151.3,160.0 152.5,160.0 153.7,160.0 154.9,160.0 156.1,160.0 157.3,160.0 158.5,160.0 159.7,160.0 160.9,160.0 162.1,160.0 163.3,160.0 164.5,160.0 165.7,160.0 166.9,160.0 168.1,160.0 169.3,160.0 170.5,160.0 171.7,160.0 172.9,160.0 174.1,160.0 175.3,160.0 176.5,160.0 177.7,160.0 178.9,160.0 180.1,160.0 181.3,160.0 182.5,160.0 183.7,160.0 184.9,160.0 186.1,160.0 187.3,160.0 188.5,160.0 189.7,160.0 190.9,160.0 192.1,160.0 193.3,160.0 194.5,160.0 195.7,160.0 196.9,160.0 198.1,160.0 199.3,160.0 200.5,160.0 201.7,160.0 202.9,160.0 204.1,160.0 205.3,160.0 206.5,160.0 207.7,160.0 208.9,160.0 210.1,160.0 211.3,160.0 212.5,160.0 213.7,160.0 214.9,160.0 216.1,160.0 217.3,160.0 218.5,160.0 219.7,160.0 220.9,160.0 222.1,160.0 223.3,160.0 224.5,160.0 225.7,160.0 226.9,160.0 228.1,160.0 229.3,160.0 230.5,160.0 231.7,160.0 232.9,160.0 234.1,160.0 235.3,160.0 236.5,160.0 237.7,160.0 238.9,160.0 240.1,160.0 241.3,160.0 242.5,160.0 243.7,160.0 244.9,160.0 246.1,160.0 247.3,160.0 248.5,160.0 249.7,160.0 250.9,160.0 252.1,160.0 253.3,160.0 254.5,160.0 255.7,160.0 256.9,160.0 258.1,160.0 259.3,160.0 260.5,160.0 261.7,160.0 262.9,160.0 264.1,160.0 265.3,160.0 266.5,160.0 267.7,160.0 268.9,160.0 270.1,160.0 271.3,160.0 272.5,160.0 273.7,160.0 274.9,160.0 276.1,160.0 277.3,160.0 278.5,160.0 279.7,160.0 280.9,160.0 282.1,160.0 283.3,160.0 284.5,160.0 285.7,160.0 286.9,160.0 288.1,160.0 289.3,160.0 290.5,160.0 291.7,160.0 292.9,160.0 294.1,160.0 295.3,160.0 296.5,160.0 297.7,160.0 298.9,160.0 300.1,160.0 301.3,160.0 302.5,160.0 303.7,160.0 304.9,160.0 306.1,160.0 307.3,160.0 308.5,160.0 309.7,160.0 310.9,160.0 312.1,160.0 313.3,160.0 314.5,160.0 315.7,160.0 316.9,160.0 318.1,160.0 319.3,160.0 320.5,160.0 321.8,160.0 323.0,160.0 324.2,160.0 325.4,160.0 326.6,160.0 327.8,160.0 329.0,160.0 330.2,160.0 331.4,160.0 332.6,160.0 333.8,160.0 335.0,160.0 336.2,160.0 337.4,160.0 338.6,160.0 339.8,160.0 341.0,160.0 342.2,160.0 343.4,160.0 344.6,160.0 345.8,160.0 347.0,160.0 348.2,160.0 349.4,160.0 350.6,160.0 351.8,160.0 353.0,160.0 354.2,160.0 355.4,160.0 356.6,160.0 357.8,160.0 359.0,160.0 360.2,160.0 361.4,160.0 362.6,160.0 363.8,160.0 365.0,160.0 366.2,160.0 367.4,160.0 368.6,160.0 369.8,160.0 371.0,160.0 372.2,160.0 373.4,160.0 374.6,160.0 375.8,160.0 377.0,160.0 378.2,160.0 379.4,160.0 380.6,160.0 381.8,160.0 383.0,160.0 384.2,160.0 385.4,160.0 386.6,160.0 387.8,160.0 389.0,160.0 390.2,160.0 391.4,160.0 392.6,160.0 393.8,160.0 395.0,160.0 396.2,160.0 397.4,160.0 398.6,160.0 399.8,160.0 401.0,160.0 402.2,160.0 403.4,160.0 404.6,160.0 405.8,160.0 407.0,160.0 408.2,160.0 409.4,160.0 410.6,160.0 411.8,160.0 413.0,160.0 414.2,160.0 415.4,160.0 416.6,160.0 417.8,160.0 419.0,160.0 420.2,160.0 421.4,160.0 422.6,160.0 423.8,160.0 425.0,160.0 426.2,160.0 427.4,160.0 428.6,160.0 429.8,160.0 431.0,160.0 432.2,160.0 433.4,160.0 434.6,160.0 435.8,160.0 437.0,160.0 438.2,160.0 439.4,160.0 440.6,160.0 441.8,160.0 443.0,160.0 444.2,160.0 445.4,160.0 446.6,160.0 447.8,160.0 449.0,160.0 450.2,160.0 451.4,160.0 452.6,160.0 453.8,160.0 455.0,160.0 456.2,160.0 457.4,160.0 458.6,160.0 459.8,160.0 461.0,160.0 462.2,160.0 463.4,160.0 464.6,160.0 465.8,160.0 467.0,160.0 468.2,160.0 469.4,160.0 470.6,160.0 471.8,160.0 473.0,160.0 474.2,160.0 475.4,160.0 476.6,160.0 477.8,160.0 479.0,160.0 480.2,160.0 481.4,160.0 482.6,160.0 483.8,160.0 485.0,160.0 486.2,160.0 487.4,160.0 488.6,160.0 489.8,160.0 491.0,160.0 492.2,160.0 493.4,160.0 494.6,160.0 495.8,160.0 497.0,160.0 498.2,160.0 499.5,160.0 500.7,160.0 501.9,160.0 503.1,160.0 504.3,160.0 505.5,160.0 506.7,160.0 507.9,160.0 509.1,160.0 510.3,160.0 511.5,160.0 512.7,160.0 513.9,160.0 515.1,160.0 516.3,160.0 517.5,160.0 518.7,160.0 519.9,160.0 521.1,160.0 522.3,160.0 523.5,160.0 524.7,160.0 525.9,160.0 527.1,160.0 528.3,160.0 529.5,160.0 530.7,160.0 531.9,160.0 533.1,160.0 534.3,160.0 535.5,160.0 536.7,160.0 537.9,160.0 539.1,160.0 540.3,160.0 541.5,160.0 542.7,160.0 543.9,160.0 545.1,160.0 546.3,160.0 547.5,160.0 548.7,160.0 549.9,160.0 551.1,160.0 552.3,160.0 553.5,160.0 554.7,160.0 555.9,160.0 557.1,160.0 558.3,160.0 559.5,160.0 560.7,160.0 561.9,160.0 563.1,160.0 564.3,160.0 565.5,160.0 566.7,160.0 567.9,160.0 569.1,160.0 570.3,160.0 571.5,160.0 572.7,160.0 573.9,160.0 575.1,160.0 576.3,160.0 577.5,160.0 578.7,160.0 579.9,160.0 581.1,160.0 582.3,160.0 583.5,160.0 584.7,160.0 585.9,160.0 587.1,160.0 588.3,160.0 589.5,160.0 590.7,160.0 591.9,160.0 593.1,160.0 594.3,160.0 595.5,160.0 596.7,160.0 597.9,160.0 599.1,160.0 600.3,160.0 601.5,160.0 602.7,160.0 603.9,160.0 605.1,160.0 606.3,160.0 607.5,160.0 608.7,160.0 609.9,160.0 611.1,160.0 612.3,160.0 613.5,160.0 614.7,160.0 615.9,160.0 617.1,160.0 618.3,160.0 619.5,160.0 620.7,160.0 621.9,160.0 623.1,160.0 624.3,160.0 625.5,160.0 626.7,160.0 627.9,160.0 629.1,160.0 630.3,160.0 631.5,160.0 632.7,160.0 633.9,160.0 635.1,160.0 636.3,160.0 637.5,160.0 638.7,160.0 639.9,160.0 641.1,160.0 642.3,160.0 643.5,160.0 644.7,160.0 645.9,160.0 647.1,160.0 648.3,160.0 649.5,160.0 650.7,160.0 651.9,160.0 653.1,160.0 654.3,160.0 655.5,160.0 656.7,160.0 657.9,160.0 659.1,160.0 660.3,160.0 661.5,160.0 662.7,160.0 663.9,160.0 665.1,160.0 666.3,160.0 667.5,160.0 668.7,160.0 669.9,160.0 671.1,160.0 672.3,160.0 673.5,160.0 674.7,160.0 675.9,160.0 677.2,160.0 678.4,160.0 679.6,160.0 680.8,160.0 682.0,160.0 683.2,160.0 684.4,160.0 685.6,160.0 686.8,160.0 688.0,160.0 689.2,160.0 690.4,160.0 691.6,160.0 692.8,160.0 694.0,160.0 695.2,160.0 696.4,160.0 697.6,160.0 698.8,160.0 700.0,160.0 701.2,160.0 702.4,160.0 703.6,160.0 704.8,160.0 706.0,160.0 707.2,160.0 708.4,160.0 709.6,160.0 710.8,160.0 712.0,160.0 713.2,160.0 714.4,160.0 715.6,160.0 716.8,160.0 718.0,160.0 719.2,160.0 720.4,160.0 721.6,160.0 722.8,160.0 724.0,160.0 725.2,160.0 726.4,160.0 727.6,160.0 728.8,160.0 730.0,160.0 731.2,160.0 732.4,160.0 733.6,160.0 734.8,160.0 736.0,160.0 737.2,160.0 738.4,160.0 739.6,160.0 740.8,160.0 742.0,160.0 743.2,160.0 744.4,160.0 745.6,160.0 746.8,160.0 748.0,160.0 749.2,160.0 750.4,160.0 751.6,160.0 752.8,160.0 754.0,160.0 755.2,160.0 756.4,160.0 757.6,160.0 758.8,160.0 760.0,160.0 761.2,160.0 762.4,160.0 763.6,160.0 764.8,160.0 766.0,160.0"/>
<line x1="606" y1="60" x2="628" y2="60" stroke="#24a148" stroke-width="2.2"/>
<text x="634" y="64" font-family="Arial" font-size="12">aileron_saturated</text>
<polyline fill="none" stroke="#da1e28" stroke-width="2.2" points="54.0,160.0 55.2,160.0 56.4,160.0 57.6,160.0 58.8,160.0 60.0,160.0 61.2,160.0 62.4,160.0 63.6,160.0 64.8,160.0 66.0,160.0 67.2,160.0 68.4,160.0 69.6,160.0 70.8,160.0 72.0,160.0 73.2,160.0 74.4,160.0 75.6,160.0 76.8,160.0 78.0,160.0 79.2,160.0 80.4,160.0 81.6,160.0 82.8,160.0 84.0,160.0 85.2,160.0 86.4,160.0 87.6,160.0 88.8,160.0 90.0,160.0 91.2,160.0 92.4,160.0 93.6,160.0 94.8,160.0 96.0,160.0 97.2,160.0 98.4,160.0 99.6,160.0 100.8,160.0 102.0,160.0 103.2,160.0 104.4,160.0 105.6,160.0 106.8,160.0 108.0,160.0 109.2,160.0 110.4,160.0 111.6,160.0 112.8,160.0 114.0,160.0 115.2,160.0 116.4,160.0 117.6,160.0 118.8,160.0 120.0,160.0 121.2,160.0 122.4,160.0 123.6,160.0 124.8,160.0 126.0,160.0 127.2,160.0 128.4,160.0 129.6,160.0 130.8,160.0 132.0,160.0 133.2,160.0 134.4,160.0 135.6,160.0 136.8,160.0 138.0,160.0 139.2,160.0 140.4,160.0 141.6,160.0 142.8,160.0 144.1,160.0 145.3,160.0 146.5,160.0 147.7,160.0 148.9,160.0 150.1,160.0 151.3,160.0 152.5,160.0 153.7,160.0 154.9,160.0 156.1,160.0 157.3,160.0 158.5,160.0 159.7,160.0 160.9,160.0 162.1,160.0 163.3,160.0 164.5,160.0 165.7,160.0 166.9,160.0 168.1,160.0 169.3,160.0 170.5,160.0 171.7,160.0 172.9,160.0 174.1,160.0 175.3,160.0 176.5,160.0 177.7,160.0 178.9,160.0 180.1,160.0 181.3,160.0 182.5,160.0 183.7,160.0 184.9,160.0 186.1,160.0 187.3,160.0 188.5,160.0 189.7,160.0 190.9,160.0 192.1,160.0 193.3,160.0 194.5,160.0 195.7,160.0 196.9,160.0 198.1,160.0 199.3,160.0 200.5,160.0 201.7,160.0 202.9,160.0 204.1,160.0 205.3,160.0 206.5,160.0 207.7,160.0 208.9,160.0 210.1,160.0 211.3,160.0 212.5,160.0 213.7,160.0 214.9,160.0 216.1,160.0 217.3,160.0 218.5,160.0 219.7,160.0 220.9,160.0 222.1,160.0 223.3,160.0 224.5,160.0 225.7,160.0 226.9,160.0 228.1,160.0 229.3,160.0 230.5,160.0 231.7,160.0 232.9,160.0 234.1,160.0 235.3,160.0 236.5,160.0 237.7,160.0 238.9,160.0 240.1,160.0 241.3,160.0 242.5,160.0 243.7,160.0 244.9,160.0 246.1,160.0 247.3,160.0 248.5,160.0 249.7,160.0 250.9,160.0 252.1,160.0 253.3,160.0 254.5,160.0 255.7,160.0 256.9,160.0 258.1,160.0 259.3,160.0 260.5,160.0 261.7,160.0 262.9,160.0 264.1,160.0 265.3,160.0 266.5,160.0 267.7,160.0 268.9,160.0 270.1,160.0 271.3,160.0 272.5,160.0 273.7,160.0 274.9,160.0 276.1,160.0 277.3,160.0 278.5,160.0 279.7,160.0 280.9,160.0 282.1,160.0 283.3,160.0 284.5,160.0 285.7,160.0 286.9,160.0 288.1,160.0 289.3,160.0 290.5,160.0 291.7,160.0 292.9,160.0 294.1,160.0 295.3,160.0 296.5,160.0 297.7,160.0 298.9,160.0 300.1,160.0 301.3,160.0 302.5,160.0 303.7,160.0 304.9,160.0 306.1,160.0 307.3,160.0 308.5,160.0 309.7,160.0 310.9,160.0 312.1,160.0 313.3,160.0 314.5,160.0 315.7,160.0 316.9,160.0 318.1,160.0 319.3,160.0 320.5,160.0 321.8,160.0 323.0,160.0 324.2,160.0 325.4,160.0 326.6,160.0 327.8,160.0 329.0,160.0 330.2,160.0 331.4,160.0 332.6,160.0 333.8,160.0 335.0,160.0 336.2,160.0 337.4,160.0 338.6,160.0 339.8,160.0 341.0,160.0 342.2,160.0 343.4,160.0 344.6,160.0 345.8,160.0 347.0,160.0 348.2,160.0 349.4,160.0 350.6,160.0 351.8,160.0 353.0,160.0 354.2,160.0 355.4,160.0 356.6,160.0 357.8,160.0 359.0,160.0 360.2,160.0 361.4,160.0 362.6,160.0 363.8,160.0 365.0,160.0 366.2,160.0 367.4,160.0 368.6,160.0 369.8,160.0 371.0,160.0 372.2,160.0 373.4,160.0 374.6,160.0 375.8,160.0 377.0,160.0 378.2,160.0 379.4,160.0 380.6,160.0 381.8,160.0 383.0,160.0 384.2,160.0 385.4,160.0 386.6,160.0 387.8,160.0 389.0,160.0 390.2,160.0 391.4,160.0 392.6,160.0 393.8,160.0 395.0,160.0 396.2,160.0 397.4,160.0 398.6,160.0 399.8,160.0 401.0,160.0 402.2,160.0 403.4,160.0 404.6,160.0 405.8,160.0 407.0,160.0 408.2,160.0 409.4,160.0 410.6,160.0 411.8,160.0 413.0,160.0 414.2,160.0 415.4,160.0 416.6,160.0 417.8,160.0 419.0,160.0 420.2,160.0 421.4,160.0 422.6,160.0 423.8,160.0 425.0,160.0 426.2,160.0 427.4,160.0 428.6,160.0 429.8,160.0 431.0,160.0 432.2,160.0 433.4,160.0 434.6,160.0 435.8,160.0 437.0,160.0 438.2,160.0 439.4,160.0 440.6,160.0 441.8,160.0 443.0,160.0 444.2,160.0 445.4,160.0 446.6,160.0 447.8,160.0 449.0,160.0 450.2,160.0 451.4,160.0 452.6,160.0 453.8,160.0 455.0,160.0 456.2,160.0 457.4,160.0 458.6,160.0 459.8,160.0 461.0,160.0 462.2,160.0 463.4,160.0 464.6,160.0 465.8,160.0 467.0,160.0 468.2,160.0 469.4,160.0 470.6,160.0 471.8,160.0 473.0,160.0 474.2,160.0 475.4,160.0 476.6,160.0 477.8,160.0 479.0,160.0 480.2,160.0 481.4,160.0 482.6,160.0 483.8,160.0 485.0,160.0 486.2,160.0 487.4,160.0 488.6,160.0 489.8,160.0 491.0,160.0 492.2,160.0 493.4,160.0 494.6,160.0 495.8,160.0 497.0,160.0 498.2,160.0 499.5,160.0 500.7,160.0 501.9,160.0 503.1,160.0 504.3,160.0 505.5,160.0 506.7,160.0 507.9,160.0 509.1,160.0 510.3,160.0 511.5,160.0 512.7,160.0 513.9,160.0 515.1,160.0 516.3,160.0 517.5,160.0 518.7,160.0 519.9,160.0 521.1,160.0 522.3,160.0 523.5,160.0 524.7,160.0 525.9,160.0 527.1,160.0 528.3,160.0 529.5,160.0 530.7,160.0 531.9,160.0 533.1,160.0 534.3,160.0 535.5,160.0 536.7,160.0 537.9,160.0 539.1,160.0 540.3,160.0 541.5,160.0 542.7,160.0 543.9,160.0 545.1,160.0 546.3,160.0 547.5,160.0 548.7,160.0 549.9,160.0 551.1,160.0 552.3,160.0 553.5,160.0 554.7,160.0 555.9,160.0 557.1,160.0 558.3,160.0 559.5,160.0 560.7,160.0 561.9,160.0 563.1,160.0 564.3,160.0 565.5,160.0 566.7,160.0 567.9,160.0 569.1,160.0 570.3,160.0 571.5,160.0 572.7,160.0 573.9,160.0 575.1,160.0 576.3,160.0 577.5,160.0 578.7,160.0 579.9,160.0 581.1,160.0 582.3,160.0 583.5,160.0 584.7,160.0 585.9,160.0 587.1,160.0 588.3,160.0 589.5,160.0 590.7,160.0 591.9,160.0 593.1,160.0 594.3,160.0 595.5,160.0 596.7,160.0 597.9,160.0 599.1,160.0 600.3,160.0 601.5,160.0 602.7,160.0 603.9,160.0 605.1,160.0 606.3,160.0 607.5,160.0 608.7,160.0 609.9,160.0 611.1,160.0 612.3,160.0 613.5,160.0 614.7,160.0 615.9,160.0 617.1,160.0 618.3,160.0 619.5,160.0 620.7,160.0 621.9,160.0 623.1,160.0 624.3,160.0 625.5,160.0 626.7,160.0 627.9,160.0 629.1,160.0 630.3,160.0 631.5,160.0 632.7,160.0 633.9,160.0 635.1,160.0 636.3,160.0 637.5,160.0 638.7,160.0 639.9,160.0 641.1,160.0 642.3,160.0 643.5,160.0 644.7,160.0 645.9,160.0 647.1,160.0 648.3,160.0 649.5,160.0 650.7,160.0 651.9,160.0 653.1,160.0 654.3,160.0 655.5,160.0 656.7,160.0 657.9,160.0 659.1,160.0 660.3,160.0 661.5,160.0 662.7,160.0 663.9,160.0 665.1,160.0 666.3,160.0 667.5,160.0 668.7,160.0 669.9,160.0 671.1,160.0 672.3,160.0 673.5,160.0 674.7,160.0 675.9,160.0 677.2,160.0 678.4,160.0 679.6,160.0 680.8,160.0 682.0,160.0 683.2,160.0 684.4,160.0 685.6,160.0 686.8,160.0 688.0,160.0 689.2,160.0 690.4,160.0 691.6,160.0 692.8,160.0 694.0,160.0 695.2,160.0 696.4,160.0 697.6,160.0 698.8,160.0 700.0,160.0 701.2,160.0 702.4,160.0 703.6,160.0 704.8,160.0 706.0,160.0 707.2,160.0 708.4,160.0 709.6,160.0 710.8,160.0 712.0,160.0 713.2,160.0 714.4,160.0 715.6,160.0 716.8,160.0 718.0,160.0 719.2,160.0 720.4,160.0 721.6,160.0 722.8,160.0 724.0,160.0 725.2,160.0 726.4,160.0 727.6,160.0 728.8,160.0 730.0,160.0 731.2,160.0 732.4,160.0 733.6,160.0 734.8,160.0 736.0,160.0 737.2,160.0 738.4,160.0 739.6,160.0 740.8,160.0 742.0,160.0 743.2,160.0 744.4,160.0 745.6,160.0 746.8,160.0 748.0,160.0 749.2,160.0 750.4,160.0 751.6,160.0 752.8,160.0 754.0,160.0 755.2,160.0 756.4,160.0 757.6,160.0 758.8,160.0 760.0,160.0 761.2,160.0 762.4,160.0 763.6,160.0 764.8,160.0 766.0,160.0"/>
<line x1="606" y1="78" x2="628" y2="78" stroke="#da1e28" stroke-width="2.2"/>
<text x="634" y="82" font-family="Arial" font-size="12">rudder_saturated</text>
</svg>