<svg xmlns="http://www.w3.org/2000/svg" width="820" height="320" viewBox="0 0 820 320">
<rect width="100%" height="100%" fill="#ffffff"/>
<text x="54" y="28" font-family="Arial" font-size="18" font-weight="700">Dynamic Pressure</text>
<line x1="54" y1="266" x2="766" y2="266" stroke="#1f2933"/>
<line x1="54" y1="54" x2="54" y2="266" stroke="#1f2933"/>
<text x="54" y="306" font-family="Arial" font-size="12">time (s)</text>
<text x="596" y="306" font-family="Arial" font-size="12">qbar (Pa)</text>
<text x="58" y="68" font-family="Arial" font-size="11">4.17e+04</text>
<text x="58" y="260" font-family="Arial" font-size="11">4.46e+03</text>
<polyline fill="none" stroke="#0f62fe" stroke-width="2.2" points="54.0,266.0 55.2,265.7 56.4,265.4 57.6,265.1 58.7,264.8 59.9,264.5 61.1,264.2 62.3,263.8 63.5,263.5 64.7,263.1 65.9,262.8 67.1,262.4 68.2,262.1 69.4,261.7 70.6,261.3 71.8,260.9 73.0,260.5 74.2,260.1 75.4,259.7 76.5,259.3 77.7,258.9 78.9,258.5 80.1,258.1 81.3,257.7 82.5,257.3 83.7,256.9 84.9,256.5 86.0,256.1 87.2,255.7 88.4,255.2 89.6,254.8 90.8,254.4 92.0,254.0 93.2,253.5 94.3,253.1 95.5,252.7 96.7,252.3 97.9,251.8 99.1,251.4 100.3,251.0 101.5,250.5 102.7,250.1 103.8,249.6 105.0,249.2 106.2,248.7 107.4,248.3 108.6,247.8 109.8,247.4 111.0,246.9 112.1,246.5 113.3,246.0 114.5,245.6 115.7,245.1 116.9,244.7 118.1,244.2 119.3,243.7 120.5,243.3 121.6,242.8 122.8,242.3 124.0,241.8 125.2,241.4 126.4,240.9 127.6,240.4 128.8,239.9 129.9,239.5 131.1,239.0 132.3,238.5 133.5,238.0 134.7,237.5 135.9,237.1 137.1,236.6 138.3,236.1 139.4,235.6 140.6,235.1 141.8,234.6 143.0,234.1 144.2,233.6 145.4,233.1 146.6,232.6 147.7,232.1 148.9,231.6 150.1,231.1 151.3,230.6 152.5,230.1 153.7,229.6 154.9,229.1 156.1,228.6 157.2,228.1 158.4,227.6 159.6,227.0 160.8,226.5 162.0,226.0 163.2,225.5 164.4,225.0 165.5,224.5 166.7,223.9 167.9,223.4 169.1,222.9 170.3,222.4 171.5,221.9 172.7,221.3 173.9,220.8 175.0,220.3 176.2,219.8 177.4,219.3 178.6,218.7 179.8,218.2 181.0,217.7 182.2,217.2 183.3,216.6 184.5,216.1 185.7,215.6 186.9,215.0 188.1,214.5 189.3,214.0 190.5,213.4 191.7,212.9 192.8,212.4 194.0,211.8 195.2,211.3 196.4,210.8 197.6,210.2 198.8,209.7 200.0,209.2 201.1,208.6 202.3,208.1 203.5,207.6 204.7,207.0 205.9,206.5 207.1,206.0 208.3,205.4 209.5,204.9 210.6,204.3 211.8,203.8 213.0,203.3 214.2,202.7 215.4,202.2 216.6,201.6 217.8,201.1 218.9,200.5 220.1,200.0 221.3,199.4 222.5,198.9 223.7,198.4 224.9,197.8 226.1,197.3 227.3,196.7 228.4,196.2 229.6,195.6 230.8,195.1 232.0,194.6 233.2,194.0 234.4,193.5 235.6,192.9 236.7,192.4 237.9,191.8 239.1,191.3 240.3,190.8 241.5,190.2 242.7,189.7 243.9,189.1 245.1,188.6 246.2,188.1 247.4,187.5 248.6,187.0 249.8,186.4 251.0,185.9 252.2,185.3 253.4,184.8 254.5,184.3 255.7,183.7 256.9,183.2 258.1,182.7 259.3,182.1 260.5,181.6 261.7,181.1 262.9,180.5 264.0,180.0 265.2,179.5 266.4,178.9 267.6,178.4 268.8,177.9 270.0,177.3 271.2,176.8 272.3,176.3 273.5,175.7 274.7,175.2 275.9,174.7 277.1,174.2 278.3,173.6 279.5,173.1 280.7,172.6 281.8,172.1 283.0,171.5 284.2,171.0 285.4,170.5 286.6,170.0 287.8,169.4 289.0,168.9 290.1,168.4 291.3,167.9 292.5,167.3 293.7,166.8 294.9,166.3 296.1,165.8 297.3,165.2 298.5,164.7 299.6,164.1 300.8,163.6 302.0,163.1 303.2,162.6 304.4,162.0 305.6,161.5 306.8,160.9 307.9,160.4 309.1,159.9 310.3,159.4 311.5,158.8 312.7,158.3 313.9,157.7 315.1,157.2 316.3,156.7 317.4,156.1 318.6,155.6 319.8,155.0 321.0,154.5 322.2,153.9 323.4,153.4 324.6,152.8 325.7,152.3 326.9,151.7 328.1,151.2 329.3,150.6 330.5,150.1 331.7,149.5 332.9,148.9 334.1,148.4 335.2,147.8 336.4,147.3 337.6,146.7 338.8,146.2 340.0,145.6 341.2,145.1 342.4,144.5 343.5,144.0 344.7,143.4 345.9,142.9 347.1,142.4 348.3,141.8 349.5,141.3 350.7,140.7 351.9,140.2 353.0,139.6 354.2,139.1 355.4,138.5 356.6,137.9 357.8,137.4 359.0,136.8 360.2,136.3 361.3,135.7 362.5,135.2 363.7,134.6 364.9,134.1 366.1,133.5 367.3,132.9 368.5,132.4 369.7,131.8 370.8,131.2 372.0,130.7 373.2,130.1 374.4,129.6 375.6,129.0 376.8,128.4 378.0,127.9 379.1,127.3 380.3,126.7 381.5,126.2 382.7,125.6 383.9,125.1 385.1,124.5 386.3,124.0 387.5,123.4 388.6,122.9 389.8,122.3 391.0,121.7 392.2,121.2 393.4,120.6 394.6,120.1 395.8,119.5 396.9,119.0 398.1,118.4 399.3,117.9 400.5,117.3 401.7,116.8 402.9,116.2 404.1,115.7 405.3,115.2 406.4,114.6 407.6,114.1 408.8,113.5 410.0,113.0 411.2,112.4 412.4,111.9 413.6,111.4 414.7,110.8 415.9,110.3 417.1,109.8 418.3,109.2 419.5,108.7 420.7,108.2 421.9,107.6 423.1,107.1 424.2,106.6 425.4,106.1 426.6,105.5 427.8,105.0 429.0,104.5 430.2,104.0 431.4,103.5 432.5,102.9 433.7,102.4 434.9,101.9 436.1,101.4 437.3,100.9 438.5,100.4 439.7,99.9 440.9,99.4 442.0,98.8 443.2,98.4 444.4,97.8 445.6,97.3 446.8,96.8 448.0,96.3 449.2,95.8 450.3,95.4 451.5,94.8 452.7,94.4 453.9,93.9 455.1,93.4 456.3,92.9 457.5,92.4 458.7,91.9 459.8,91.4 461.0,90.9 462.2,90.5 463.4,90.0 464.6,89.5 465.8,89.0 467.0,88.6 468.1,88.1 469.3,87.6 470.5,87.1 471.7,86.7 472.9,86.2 474.1,85.7 475.3,85.3 476.5,84.8 477.6,84.3 478.8,83.9 480.0,83.4 481.2,83.0 482.4,82.5 483.6,82.1 484.8,81.6 485.9,81.2 487.1,80.7 488.3,80.3 489.5,79.8 490.7,79.4 491.9,78.9 493.1,78.5 494.3,78.1 495.4,77.7 496.6,77.2 497.8,76.8 499.0,76.3 500.2,75.9 501.4,75.5 502.6,75.1 503.7,74.6 504.9,74.2 506.1,73.8 507.3,73.4 508.5,73.0 509.7,72.6 510.9,72.1 512.1,71.7 513.2,71.3 514.4,70.9 515.6,70.5 516.8,70.1 518.0,69.7 519.2,69.3 520.4,68.9 521.5,68.5 522.7,68.1 523.9,67.7 525.1,67.3 526.3,66.9 527.5,66.5 528.7,66.2 529.9,65.7 531.0,65.4 532.2,65.0 533.4,64.6 534.6,64.2 535.8,63.9 537.0,63.5 538.2,63.1 539.3,62.7 540.5,62.4 541.7,62.0 542.9,61.6 544.1,61.2 545.3,60.9 546.5,60.5 547.7,60.2 548.8,59.8 550.0,59.5 551.2,59.1 552.4,58.8 553.6,58.4 554.8,58.1 556.0,57.7 557.1,57.4 558.3,57.0 559.5,56.7 560.7,56.3 561.9,56.0 563.1,55.6 564.3,55.3 565.5,55.0 566.6,54.7 567.8,54.3 569.0,54.0 570.2,54.9 571.4,55.9 572.6,56.8 573.8,57.7 574.9,58.6 576.1,59.6 577.3,60.5 578.5,61.4 579.7,62.3 580.9,63.2 582.1,64.0 583.3,65.0 584.4,65.8 585.6,66.7 586.8,67.5 588.0,68.4 589.2,69.2 590.4,70.1 591.6,70.9 592.7,71.8 593.9,72.6 595.1,73.5 596.3,74.3 597.5,75.1 598.7,75.9 599.9,76.7 601.1,77.5 602.2,78.3 603.4,79.1 604.6,79.9 605.8,80.7 607.0,81.5 608.2,82.2 609.4,83.0 610.5,83.7 611.7,84.5 612.9,85.2 614.1,86.0 615.3,86.7 616.5,87.5 617.7,88.2 618.9,89.0 620.0,89.7 621.2,90.4 622.4,91.1 623.6,91.9 624.8,92.6 626.0,93.3 627.2,94.0 628.3,94.7 629.5,95.4 630.7,96.1 631.9,96.7 633.1,97.4 634.3,98.1 635.5,98.8 636.7,99.4 637.8,100.1 639.0,100.8 640.2,101.5 641.4,102.1 642.6,102.8 643.8,103.4 645.0,104.1 646.1,104.7 647.3,105.3 648.5,105.9 649.7,106.6 650.9,107.2 652.1,107.8 653.3,108.4 654.5,109.1 655.6,109.7 656.8,110.3 658.0,110.9 659.2,111.5 660.4,112.1 661.6,112.7 662.8,113.3 663.9,113.9 665.1,114.5 666.3,115.1 667.5,115.6 668.7,116.2 669.9,116.8 671.1,117.4 672.3,117.9 673.4,118.5 674.6,119.1 675.8,119.6 677.0,120.2 678.2,120.7 679.4,121.3 680.6,121.8 681.7,122.4 682.9,122.9 684.1,123.5 685.3,124.0 686.5,124.5 687.7,125.1 688.9,125.6 690.1,126.1 691.2,126.6 692.4,127.2 693.6,127.7 694.8,128.2 696.0,128.7 697.2,129.2 698.4,129.7 699.5,130.2 700.7,130.7 701.9,131.2 703.1,131.7 704.3,132.2 705.5,132.7 706.7,133.2 707.9,133.7 709.0,134.2 710.2,134.7 711.4,135.2 712.6,135.6 713.8,136.1 715.0,136.6 716.2,137.1 717.3,137.5 718.5,138.0 719.7,138.4 720.9,138.9 722.1,139.4 723.3,139.8 724.5,140.3 725.7,140.7 726.8,141.2 728.0,141.6 729.2,142.1 730.4,142.5 731.6,143.0 732.8,143.4 734.0,143.8 735.1,144.3 736.3,144.7 737.5,145.2 738.7,145.6 739.9,146.0 741.1,146.4 742.3,146.9 743.5,147.3 744.6,147.7 745.8,148.1 747.0,148.5 748.2,148.9 749.4,149.4 750.6,149.8 751.8,150.2 752.9,150.6 754.1,151.0 755.3,151.4 756.5,151.8 757.7,152.2 758.9,152.6 760.1,153.0 761.3,153.4 762.4,153.8 763.6,154.2 764.8,154.6 766.0,155.0"/>
<line x1="606" y1="42" x2="628" y2="42" stroke="#0f62fe" stroke-width="2.2"/>
<text x="634" y="46" font-family="Arial" font-size="12">qbar_pa</text>
</svg>