<svg xmlns="http://www.w3.org/2000/svg" width="820" height="320" viewBox="0 0 820 320">
<rect width="100%" height="100%" fill="#ffffff"/>
<text x="54" y="28" font-family="Arial" font-size="18" font-weight="700">Altitude</text>
<line x1="54" y1="266" x2="766" y2="266" stroke="#1f2933"/>
<line x1="54" y1="54" x2="54" y2="266" stroke="#1f2933"/>
<text x="54" y="306" font-family="Arial" font-size="12">time (s)</text>
<text x="596" y="306" font-family="Arial" font-size="12">altitude (m)</text>
<text x="58" y="68" font-family="Arial" font-size="11">985</text>
<text x="58" y="260" font-family="Arial" font-size="11">436</text>
<polyline fill="none" stroke="#0f62fe" stroke-width="2.2" points="54.0,87.0 55.2,86.9 56.4,86.8 57.6,86.6 58.7,86.5 59.9,86.4 61.1,86.3 62.3,86.2 63.5,86.1 64.7,86.0 65.9,85.9 67.1,85.8 68.2,85.7 69.4,85.7 70.6,85.6 71.8,85.5 73.0,85.4 74.2,85.3 75.4,85.2 76.5,85.1 77.7,85.0 78.9,85.0 80.1,84.9 81.3,84.8 82.5,84.7 83.7,84.6 84.9,84.6 86.0,84.5 87.2,84.4 88.4,84.3 89.6,84.2 90.8,84.2 92.0,84.1 93.2,84.0 94.3,83.9 95.5,83.9 96.7,83.8 97.9,83.7 99.1,83.6 100.3,83.6 101.5,83.5 102.7,83.4 103.8,83.4 105.0,83.3 106.2,83.2 107.4,83.1 108.6,83.1 109.8,83.0 111.0,82.9 112.1,82.8 113.3,82.8 114.5,82.7 115.7,82.6 116.9,82.6 118.1,82.5 119.3,82.4 120.5,82.3 121.6,82.3 122.8,82.2 124.0,82.1 125.2,82.1 126.4,82.0 127.6,81.9 128.8,81.8 129.9,81.8 131.1,81.7 132.3,81.6 133.5,81.5 134.7,81.5 135.9,81.4 137.1,81.3 138.3,81.2 139.4,81.2 140.6,81.1 141.8,81.0 143.0,80.9 144.2,80.8 145.4,80.8 146.6,80.7 147.7,80.6 148.9,80.5 150.1,80.4 151.3,80.4 152.5,80.3 153.7,80.2 154.9,80.1 156.1,80.0 157.2,79.9 158.4,79.8 159.6,79.8 160.8,79.7 162.0,79.6 163.2,79.5 164.4,79.4 165.5,79.3 166.7,79.2 167.9,79.1 169.1,79.0 170.3,78.9 171.5,78.8 172.7,78.7 173.9,78.6 175.0,78.5 176.2,78.4 177.4,78.3 178.6,78.2 179.8,78.1 181.0,78.0 182.2,77.9 183.3,77.8 184.5,77.7 185.7,77.6 186.9,77.5 188.1,77.4 189.3,77.2 190.5,77.1 191.7,77.0 192.8,76.9 194.0,76.8 195.2,76.6 196.4,76.5 197.6,76.4 198.8,76.3 200.0,76.1 201.1,76.0 202.3,75.9 203.5,75.7 204.7,75.6 205.9,75.5 207.1,75.3 208.3,75.2 209.5,75.1 210.6,74.9 211.8,74.8 213.0,74.6 214.2,74.5 215.4,74.3 216.6,74.2 217.8,74.1 218.9,73.9 220.1,73.7 221.3,73.6 222.5,73.4 223.7,73.3 224.9,73.1 226.1,73.0 227.3,72.8 228.4,72.6 229.6,72.5 230.8,72.3 232.0,72.1 233.2,72.0 234.4,71.8 235.6,71.6 236.7,71.5 237.9,71.3 239.1,71.1 240.3,70.9 241.5,70.7 242.7,70.6 243.9,70.4 245.1,70.2 246.2,70.0 247.4,69.8 248.6,69.7 249.8,69.5 251.0,69.3 252.2,69.1 253.4,68.9 254.5,68.7 255.7,68.5 256.9,68.3 258.1,68.1 259.3,68.0 260.5,67.8 261.7,67.6 262.9,67.4 264.0,67.2 265.2,67.0 266.4,66.8 267.6,66.6 268.8,66.4 270.0,66.2 271.2,66.0 272.3,65.8 273.5,65.6 274.7,65.4 275.9,65.2 277.1,65.0 278.3,64.8 279.5,64.6 280.7,64.4 281.8,64.2 283.0,64.0 284.2,63.8 285.4,63.6 286.6,63.4 287.8,63.2 289.0,63.0 290.1,62.8 291.3,62.6 292.5,62.4 293.7,62.2 294.9,62.0 296.1,61.8 297.3,61.6 298.5,61.4 299.6,61.2 300.8,61.0 302.0,60.8 303.2,60.7 304.4,60.5 305.6,60.3 306.8,60.1 307.9,59.9 309.1,59.7 310.3,59.5 311.5,59.3 312.7,59.2 313.9,59.0 315.1,58.8 316.3,58.6 317.4,58.5 318.6,58.3 319.8,58.1 321.0,58.0 322.2,57.8 323.4,57.6 324.6,57.5 325.7,57.3 326.9,57.2 328.1,57.0 329.3,56.9 330.5,56.7 331.7,56.6 332.9,56.4 334.1,56.3 335.2,56.1 336.4,56.0 337.6,55.9 338.8,55.8 340.0,55.6 341.2,55.5 342.4,55.4 343.5,55.3 344.7,55.2 345.9,55.1 347.1,55.0 348.3,54.9 349.5,54.8 350.7,54.7 351.9,54.6 353.0,54.6 354.2,54.5 355.4,54.4 356.6,54.4 357.8,54.3 359.0,54.3 360.2,54.2 361.3,54.2 362.5,54.1 363.7,54.1 364.9,54.1 366.1,54.0 367.3,54.0 368.5,54.0 369.7,54.0 370.8,54.0 372.0,54.0 373.2,54.0 374.4,54.0 375.6,54.0 376.8,54.1 378.0,54.1 379.1,54.1 380.3,54.2 381.5,54.2 382.7,54.3 383.9,54.3 385.1,54.4 386.3,54.4 387.5,54.5 388.6,54.6 389.8,54.7 391.0,54.7 392.2,54.8 393.4,54.9 394.6,55.0 395.8,55.1 396.9,55.3 398.1,55.4 399.3,55.5 400.5,55.6 401.7,55.7 402.9,55.9 404.1,56.0 405.3,56.2 406.4,56.3 407.6,56.5 408.8,56.6 410.0,56.8 411.2,57.0 412.4,57.1 413.6,57.3 414.7,57.5 415.9,57.7 417.1,57.9 418.3,58.1 419.5,58.3 420.7,58.5 421.9,58.7 423.1,58.9 424.2,59.2 425.4,59.4 426.6,59.6 427.8,59.9 429.0,60.1 430.2,60.3 431.4,60.6 432.5,60.8 433.7,61.1 434.9,61.3 436.1,61.6 437.3,61.9 438.5,62.1 439.7,62.4 440.9,62.7 442.0,62.9 443.2,63.2 444.4,63.5 445.6,63.8 446.8,64.0 448.0,64.3 449.2,64.6 450.3,64.9 451.5,65.2 452.7,65.5 453.9,65.8 455.1,66.1 456.3,66.4 457.5,66.7 458.7,67.0 459.8,67.4 461.0,67.7 462.2,68.0 463.4,68.4 464.6,68.7 465.8,69.1 467.0,69.4 468.1,69.8 469.3,70.2 470.5,70.6 471.7,71.0 472.9,71.4 474.1,71.8 475.3,72.3 476.5,72.7 477.6,73.1 478.8,73.6 480.0,74.1 481.2,74.6 482.4,75.0 483.6,75.5 484.8,76.0 485.9,76.6 487.1,77.1 488.3,77.6 489.5,78.1 490.7,78.7 491.9,79.2 493.1,79.7 494.3,80.3 495.4,80.8 496.6,81.3 497.8,81.9 499.0,82.4 500.2,82.9 501.4,83.5 502.6,84.0 503.7,84.5 504.9,85.1 506.1,85.6 507.3,86.2 508.5,86.7 509.7,87.3 510.9,87.9 512.1,88.5 513.2,89.1 514.4,89.7 515.6,90.3 516.8,90.9 518.0,91.5 519.2,92.2 520.4,92.8 521.5,93.5 522.7,94.1 523.9,94.8 525.1,95.4 526.3,96.1 527.5,96.8 528.7,97.5 529.9,98.1 531.0,98.8 532.2,99.5 533.4,100.2 534.6,101.0 535.8,101.7 537.0,102.4 538.2,103.2 539.3,103.9 540.5,104.7 541.7,105.5 542.9,106.3 544.1,107.1 545.3,107.9 546.5,108.7 547.7,109.5 548.8,110.4 550.0,111.2 551.2,112.0 552.4,112.9 553.6,113.8 554.8,114.6 556.0,115.5 557.1,116.4 558.3,117.3 559.5,118.2 560.7,119.1 561.9,120.0 563.1,120.9 564.3,121.8 565.5,122.8 566.6,123.7 567.8,124.6 569.0,125.6 570.2,126.5 571.4,127.5 572.6,128.5 573.8,129.4 574.9,130.4 576.1,131.3 577.3,132.3 578.5,133.2 579.7,134.2 580.9,135.1 582.1,136.1 583.3,137.0 584.4,138.0 585.6,138.9 586.8,139.9 588.0,140.8 589.2,141.7 590.4,142.7 591.6,143.6 592.7,144.6 593.9,145.5 595.1,146.4 596.3,147.4 597.5,148.3 598.7,149.2 599.9,150.2 601.1,151.1 602.2,152.0 603.4,152.9 604.6,153.8 605.8,154.8 607.0,155.7 608.2,156.6 609.4,157.5 610.5,158.4 611.7,159.3 612.9,160.2 614.1,161.1 615.3,162.0 616.5,162.9 617.7,163.8 618.9,164.7 620.0,165.6 621.2,166.5 622.4,167.4 623.6,168.3 624.8,169.1 626.0,170.0 627.2,170.9 628.3,171.8 629.5,172.6 630.7,173.5 631.9,174.4 633.1,175.2 634.3,176.1 635.5,177.0 636.7,177.8 637.8,178.7 639.0,179.5 640.2,180.4 641.4,181.2 642.6,182.1 643.8,182.9 645.0,183.8 646.1,184.6 647.3,185.5 648.5,186.3 649.7,187.1 650.9,188.0 652.1,188.8 653.3,189.6 654.5,190.5 655.6,191.3 656.8,192.1 658.0,192.9 659.2,193.8 660.4,194.6 661.6,195.4 662.8,196.2 663.9,197.1 665.1,197.9 666.3,198.7 667.5,199.5 668.7,200.3 669.9,201.1 671.1,201.9 672.3,202.7 673.4,203.6 674.6,204.4 675.8,205.1 677.0,205.9 678.2,206.7 679.4,207.5 680.6,208.3 681.7,209.1 682.9,209.9 684.1,210.7 685.3,211.5 686.5,212.3 687.7,213.1 688.9,213.9 690.1,214.7 691.2,215.5 692.4,216.3 693.6,217.1 694.8,217.9 696.0,218.7 697.2,219.5 698.4,220.3 699.5,221.1 700.7,222.0 701.9,222.8 703.1,223.6 704.3,224.4 705.5,225.2 706.7,226.0 707.9,226.8 709.0,227.6 710.2,228.4 711.4,229.2 712.6,230.0 713.8,230.8 715.0,231.7 716.2,232.5 717.3,233.3 718.5,234.1 719.7,234.9 720.9,235.7 722.1,236.5 723.3,237.3 724.5,238.1 725.7,238.9 726.8,239.7 728.0,240.5 729.2,241.3 730.4,242.1 731.6,242.9 732.8,243.7 734.0,244.5 735.1,245.3 736.3,246.1 737.5,246.9 738.7,247.7 739.9,248.5 741.1,249.3 742.3,250.1 743.5,250.9 744.6,251.7 745.8,252.5 747.0,253.3 748.2,254.1 749.4,254.9 750.6,255.7 751.8,256.5 752.9,257.3 754.1,258.0 755.3,258.8 756.5,259.6 757.7,260.4 758.9,261.2 760.1,262.0 761.3,262.8 762.4,263.6 763.6,264.4 764.8,265.2 766.0,266.0"/>
<line x1="606" y1="42" x2="628" y2="42" stroke="#0f62fe" stroke-width="2.2"/>
<text x="634" y="46" font-family="Arial" font-size="12">altitude_m</text>
</svg>