<svg xmlns="http://www.w3.org/2000/svg" width="820" height="320" viewBox="0 0 820 320">
<rect width="100%" height="100%" fill="#ffffff"/>
<text x="54" y="28" font-family="Arial" font-size="18" font-weight="700">Velocity X</text>
<line x1="54" y1="266" x2="766" y2="266" stroke="#1f2933"/>
<line x1="54" y1="54" x2="54" y2="266" stroke="#1f2933"/>
<text x="54" y="306" font-family="Arial" font-size="12">time (s)</text>
<text x="596" y="306" font-family="Arial" font-size="12">vx (m/s)</text>
<text x="58" y="68" font-family="Arial" font-size="11">135</text>
<text x="58" y="260" font-family="Arial" font-size="11">-13.1</text>
<polyline fill="none" stroke="#0f62fe" stroke-width="2.2" points="54.0,126.6 55.2,125.9 56.4,125.1 57.6,124.4 58.7,123.7 59.9,122.9 61.1,122.1 62.3,121.4 63.5,120.6 64.7,119.8 65.9,119.0 67.1,118.2 68.2,117.4 69.4,116.6 70.6,115.7 71.8,114.9 73.0,114.0 74.2,113.2 75.4,112.4 76.5,111.5 77.7,110.7 78.9,109.9 80.1,109.1 81.3,108.3 82.5,107.4 83.7,106.6 84.9,105.8 86.0,105.0 87.2,104.2 88.4,103.4 89.6,102.6 90.8,101.9 92.0,101.1 93.2,100.3 94.3,99.6 95.5,98.8 96.7,98.0 97.9,97.3 99.1,96.5 100.3,95.8 101.5,95.1 102.7,94.3 103.8,93.6 105.0,92.9 106.2,92.2 107.4,91.5 108.6,90.8 109.8,90.1 111.0,89.4 112.1,88.7 113.3,88.1 114.5,87.4 115.7,86.8 116.9,86.1 118.1,85.5 119.3,84.8 120.5,84.2 121.6,83.6 122.8,83.0 124.0,82.4 125.2,81.8 126.4,81.2 127.6,80.6 128.8,80.0 129.9,79.4 131.1,78.8 132.3,78.1 133.5,77.5 134.7,76.9 135.9,76.3 137.1,75.7 138.3,75.1 139.4,74.5 140.6,73.9 141.8,73.3 143.0,72.7 144.2,72.1 145.4,71.5 146.6,71.0 147.7,70.4 148.9,69.9 150.1,69.3 151.3,68.8 152.5,68.3 153.7,67.8 154.9,67.3 156.1,66.8 157.2,66.4 158.4,65.9 159.6,65.5 160.8,65.0 162.0,64.6 163.2,64.2 164.4,63.8 165.5,63.4 166.7,63.0 167.9,62.6 169.1,62.2 170.3,61.8 171.5,61.4 172.7,61.0 173.9,60.6 175.0,60.2 176.2,59.8 177.4,59.5 178.6,59.1 179.8,58.8 181.0,58.5 182.2,58.2 183.3,57.9 184.5,57.7 185.7,57.4 186.9,57.2 188.1,57.0 189.3,56.9 190.5,56.7 191.7,56.5 192.8,56.3 194.0,56.1 195.2,55.9 196.4,55.7 197.6,55.5 198.8,55.3 200.0,55.1 201.1,55.0 202.3,54.8 203.5,54.6 204.7,54.5 205.9,54.4 207.1,54.2 208.3,54.2 209.5,54.1 210.6,54.0 211.8,54.0 213.0,54.0 214.2,54.0 215.4,54.1 216.6,54.2 217.8,54.2 218.9,54.3 220.1,54.4 221.3,54.6 222.5,54.6 223.7,54.7 224.9,54.8 226.1,54.9 227.3,54.9 228.4,55.0 229.6,55.0 230.8,55.1 232.0,55.1 233.2,55.2 234.4,55.3 235.6,55.4 236.7,55.5 237.9,55.7 239.1,55.8 240.3,56.1 241.5,56.3 242.7,56.6 243.9,56.9 245.1,57.2 246.2,57.5 247.4,57.9 248.6,58.3 249.8,58.7 251.0,59.1 252.2,59.6 253.4,60.0 254.5,60.5 255.7,61.0 256.9,61.5 258.1,62.0 259.3,62.5 260.5,63.1 261.7,63.6 262.9,64.1 264.0,64.7 265.2,65.2 266.4,65.8 267.6,66.3 268.8,66.9 270.0,67.6 271.2,68.2 272.3,68.9 273.5,69.6 274.7,70.4 275.9,71.2 277.1,72.1 278.3,73.0 279.5,74.0 280.7,74.9 281.8,75.9 283.0,76.9 284.2,77.9 285.4,78.9 286.6,80.0 287.8,81.0 289.0,82.0 290.1,82.9 291.3,83.9 292.5,84.9 293.7,85.8 294.9,86.8 296.1,87.8 297.3,88.9 298.5,89.9 299.6,91.0 300.8,92.2 302.0,93.4 303.2,94.7 304.4,96.0 305.6,97.3 306.8,98.7 307.9,100.1 309.1,101.5 310.3,102.9 311.5,104.4 312.7,105.8 313.9,107.2 315.1,108.6 316.3,110.0 317.4,111.4 318.6,112.8 319.8,114.2 321.0,115.6 322.2,116.9 323.4,118.3 324.6,119.7 325.7,121.1 326.9,122.5 328.1,123.9 329.3,125.3 330.5,126.7 331.7,128.2 332.9,129.6 334.1,131.0 335.2,132.4 336.4,133.9 337.6,135.3 338.8,136.7 340.0,138.1 341.2,139.6 342.4,141.0 343.5,142.4 344.7,143.7 345.9,145.1 347.1,146.5 348.3,147.8 349.5,149.2 350.7,150.5 351.9,151.9 353.0,153.2 354.2,154.5 355.4,155.8 356.6,157.1 357.8,158.4 359.0,159.7 360.2,161.0 361.3,162.3 362.5,163.6 363.7,164.9 364.9,166.2 366.1,167.5 367.3,168.9 368.5,170.3 369.7,171.6 370.8,173.0 372.0,174.4 373.2,175.8 374.4,177.2 375.6,178.6 376.8,180.0 378.0,181.4 379.1,182.8 380.3,184.2 381.5,185.6 382.7,187.0 383.9,188.4 385.1,189.8 386.3,191.2 387.5,192.6 388.6,194.0 389.8,195.4 391.0,196.8 392.2,198.2 393.4,199.5 394.6,200.9 395.8,202.2 396.9,203.5 398.1,204.8 399.3,206.1 400.5,207.4 401.7,208.7 402.9,209.9 404.1,211.1 405.3,212.4 406.4,213.5 407.6,214.7 408.8,215.8 410.0,216.9 411.2,218.0 412.4,219.1 413.6,220.1 414.7,221.1 415.9,222.1 417.1,223.0 418.3,224.0 419.5,224.9 420.7,225.9 421.9,226.9 423.1,227.9 424.2,228.8 425.4,229.8 426.6,230.8 427.8,231.8 429.0,232.8 430.2,233.9 431.4,234.9 432.5,235.9 433.7,236.9 434.9,237.9 436.1,239.0 437.3,240.0 438.5,241.1 439.7,242.1 440.9,243.2 442.0,244.2 443.2,245.3 444.4,246.3 445.6,247.4 446.8,248.5 448.0,249.5 449.2,250.6 450.3,251.6 451.5,252.7 452.7,253.7 453.9,254.7 455.1,255.7 456.3,256.7 457.5,257.6 458.7,258.6 459.8,259.5 461.0,260.3 462.2,261.2 463.4,262.0 464.6,262.7 465.8,263.4 467.0,264.0 468.1,264.6 469.3,265.1 470.5,265.5 471.7,265.7 472.9,265.9 474.1,266.0 475.3,265.9 476.5,265.8 477.6,265.5 478.8,265.0 480.0,264.4 481.2,263.8 482.4,263.0 483.6,262.2 484.8,261.3 485.9,260.4 487.1,259.4 488.3,258.5 489.5,257.6 490.7,256.6 491.9,255.8 493.1,255.3 494.3,255.3 495.4,255.5 496.6,256.0 497.8,256.7 499.0,257.3 500.2,258.1 501.4,258.9 502.6,259.8 503.7,260.8 504.9,261.8 506.1,262.8 507.3,263.6 508.5,264.1 509.7,264.2 510.9,263.9 512.1,263.4 513.2,262.6 514.4,261.8 515.6,260.9 516.8,259.9 518.0,258.8 519.2,257.8 520.4,256.9 521.5,256.1 522.7,255.5 523.9,255.0 525.1,254.6 526.3,254.3 527.5,253.9 528.7,253.3 529.9,252.6 531.0,251.8 532.2,250.9 533.4,250.0 534.6,249.2 535.8,248.4 537.0,247.7 538.2,246.9 539.3,246.2 540.5,245.5 541.7,244.8 542.9,244.0 544.1,243.3 545.3,242.6 546.5,241.8 547.7,241.1 548.8,240.4 550.0,239.6 551.2,238.9 552.4,238.2 553.6,237.4 554.8,236.7 556.0,236.0 557.1,235.3 558.3,234.6 559.5,234.0 560.7,233.4 561.9,232.8 563.1,232.2 564.3,231.7 565.5,231.2 566.6,230.9 567.8,230.5 569.0,230.2 570.2,230.3 571.4,230.4 572.6,230.6 573.8,230.7 574.9,230.9 576.1,231.1 577.3,231.3 578.5,231.5 579.7,231.7 580.9,231.9 582.1,232.1 583.3,232.3 584.4,232.5 585.6,232.6 586.8,232.8 588.0,233.0 589.2,233.1 590.4,233.3 591.6,233.4 592.7,233.6 593.9,233.7 595.1,233.8 596.3,233.9 597.5,234.0 598.7,234.1 599.9,234.2 601.1,234.3 602.2,234.4 603.4,234.5 604.6,234.6 605.8,234.6 607.0,234.7 608.2,234.7 609.4,234.8 610.5,234.8 611.7,234.8 612.9,234.9 614.1,234.9 615.3,234.9 616.5,234.9 617.7,234.9 618.9,234.9 620.0,234.9 621.2,234.8 622.4,234.8 623.6,234.8 624.8,234.8 626.0,234.7 627.2,234.7 628.3,234.7 629.5,234.7 630.7,234.7 631.9,234.6 633.1,234.6 634.3,234.6 635.5,234.6 636.7,234.6 637.8,234.6 639.0,234.6 640.2,234.6 641.4,234.6 642.6,234.6 643.8,234.6 645.0,234.6 646.1,234.5 647.3,234.5 648.5,234.4 649.7,234.4 650.9,234.3 652.1,234.2 653.3,234.2 654.5,234.1 655.6,233.9 656.8,233.8 658.0,233.7 659.2,233.5 660.4,233.4 661.6,233.2 662.8,233.0 663.9,232.8 665.1,232.7 666.3,232.7 667.5,232.7 668.7,232.8 669.9,232.9 671.1,233.0 672.3,233.1 673.4,233.1 674.6,233.1 675.8,233.1 677.0,233.1 678.2,233.1 679.4,233.2 680.6,233.2 681.7,233.3 682.9,233.3 684.1,233.2 685.3,233.1 686.5,232.9 687.7,232.6 688.9,232.3 690.1,232.0 691.2,231.6 692.4,231.3 693.6,230.9 694.8,230.6 696.0,230.3 697.2,230.1 698.4,229.9 699.5,229.7 700.7,229.6 701.9,229.5 703.1,229.4 704.3,229.4 705.5,229.3 706.7,229.2 707.9,229.1 709.0,229.0 710.2,229.0 711.4,228.9 712.6,228.8 713.8,228.6 715.0,228.5 716.2,228.4 717.3,228.3 718.5,228.3 719.7,228.2 720.9,228.1 722.1,228.0 723.3,228.0 724.5,227.9 725.7,227.8 726.8,227.8 728.0,227.7 729.2,227.6 730.4,227.6 731.6,227.5 732.8,227.4 734.0,227.3 735.1,227.3 736.3,227.2 737.5,227.2 738.7,227.2 739.9,227.1 741.1,227.1 742.3,227.1 743.5,227.1 744.6,227.2 745.8,227.2 747.0,227.2 748.2,227.3 749.4,227.3 750.6,227.4 751.8,227.4 752.9,227.5 754.1,227.5 755.3,227.6 756.5,227.7 757.7,227.7 758.9,227.8 760.1,227.9 761.3,228.0 762.4,228.1 763.6,228.2 764.8,228.3 766.0,228.5"/>
<line x1="606" y1="42" x2="628" y2="42" stroke="#0f62fe" stroke-width="2.2"/>
<text x="634" y="46" font-family="Arial" font-size="12">vx_mps</text>
</svg>