<svg xmlns="http://www.w3.org/2000/svg" width="820" height="320" viewBox="0 0 820 320">
<rect width="100%" height="100%" fill="#ffffff"/>
<text x="54" y="28" font-family="Arial" font-size="18" font-weight="700">Velocity Y</text>
<line x1="54" y1="266" x2="766" y2="266" stroke="#1f2933"/>
<line x1="54" y1="54" x2="54" y2="266" stroke="#1f2933"/>
<text x="54" y="306" font-family="Arial" font-size="12">time (s)</text>
<text x="596" y="306" font-family="Arial" font-size="12">vy (m/s)</text>
<text x="58" y="68" font-family="Arial" font-size="11">1.15</text>
<text x="58" y="260" font-family="Arial" font-size="11">-126</text>
<polyline fill="none" stroke="#0f62fe" stroke-width="2.2" points="54.0,54.2 55.2,54.2 56.4,54.1 57.6,54.1 58.7,54.0 59.9,54.0 61.1,54.0 62.3,54.0 63.5,54.0 64.7,54.0 65.9,54.1 67.1,54.1 68.2,54.2 69.4,54.2 70.6,54.3 71.8,54.4 73.0,54.5 74.2,54.6 75.4,54.7 76.5,54.8 77.7,55.0 78.9,55.1 80.1,55.3 81.3,55.4 82.5,55.6 83.7,55.8 84.9,56.0 86.0,56.2 87.2,56.5 88.4,56.7 89.6,57.0 90.8,57.3 92.0,57.5 93.2,57.9 94.3,58.2 95.5,58.5 96.7,58.8 97.9,59.2 99.1,59.6 100.3,59.9 101.5,60.3 102.7,60.7 103.8,61.2 105.0,61.6 106.2,62.0 107.4,62.5 108.6,62.9 109.8,63.4 111.0,63.9 112.1,64.4 113.3,64.9 114.5,65.5 115.7,66.0 116.9,66.6 118.1,67.2 119.3,67.8 120.5,68.4 121.6,69.0 122.8,69.6 124.0,70.3 125.2,70.9 126.4,71.5 127.6,72.2 128.8,72.8 129.9,73.4 131.1,74.0 132.3,74.6 133.5,75.2 134.7,75.9 135.9,76.5 137.1,77.1 138.3,77.7 139.4,78.3 140.6,78.9 141.8,79.5 143.0,80.2 144.2,80.8 145.4,81.4 146.6,82.1 147.7,82.8 148.9,83.5 150.1,84.2 151.3,84.9 152.5,85.7 153.7,86.4 154.9,87.2 156.1,88.0 157.2,88.8 158.4,89.6 159.6,90.4 160.8,91.2 162.0,92.1 163.2,92.9 164.4,93.8 165.5,94.7 166.7,95.5 167.9,96.4 169.1,97.3 170.3,98.1 171.5,99.0 172.7,99.9 173.9,100.7 175.0,101.6 176.2,102.5 177.4,103.4 178.6,104.3 179.8,105.2 181.0,106.2 182.2,107.1 183.3,108.1 184.5,109.1 185.7,110.2 186.9,111.2 188.1,112.3 189.3,113.4 190.5,114.4 191.7,115.5 192.8,116.6 194.0,117.6 195.2,118.7 196.4,119.7 197.6,120.8 198.8,121.8 200.0,122.9 201.1,123.9 202.3,125.0 203.5,126.1 204.7,127.2 205.9,128.3 207.1,129.4 208.3,130.5 209.5,131.6 210.6,132.8 211.8,134.0 213.0,135.2 214.2,136.4 215.4,137.6 216.6,138.8 217.8,140.0 218.9,141.3 220.1,142.5 221.3,143.7 222.5,145.0 223.7,146.2 224.9,147.4 226.1,148.7 227.3,149.9 228.4,151.1 229.6,152.3 230.8,153.5 232.0,154.8 233.2,156.0 234.4,157.2 235.6,158.5 236.7,159.7 237.9,161.0 239.1,162.3 240.3,163.6 241.5,164.9 242.7,166.2 243.9,167.5 245.1,168.8 246.2,170.1 247.4,171.4 248.6,172.7 249.8,174.1 251.0,175.4 252.2,176.7 253.4,178.0 254.5,179.4 255.7,180.7 256.9,182.0 258.1,183.4 259.3,184.7 260.5,186.0 261.7,187.4 262.9,188.7 264.0,190.0 265.2,191.3 266.4,192.6 267.6,193.9 268.8,195.2 270.0,196.6 271.2,197.9 272.3,199.2 273.5,200.5 274.7,201.8 275.9,203.1 277.1,204.4 278.3,205.6 279.5,206.9 280.7,208.2 281.8,209.5 283.0,210.7 284.2,212.0 285.4,213.2 286.6,214.5 287.8,215.7 289.0,217.0 290.1,218.2 291.3,219.5 292.5,220.7 293.7,221.9 294.9,223.1 296.1,224.3 297.3,225.5 298.5,226.7 299.6,227.9 300.8,229.0 302.0,230.2 303.2,231.3 304.4,232.4 305.6,233.5 306.8,234.5 307.9,235.5 309.1,236.5 310.3,237.5 311.5,238.5 312.7,239.5 313.9,240.4 315.1,241.4 316.3,242.3 317.4,243.2 318.6,244.2 319.8,245.1 321.0,246.1 322.2,247.0 323.4,247.9 324.6,248.8 325.7,249.7 326.9,250.6 328.1,251.4 329.3,252.3 330.5,253.1 331.7,253.9 332.9,254.7 334.1,255.4 335.2,256.1 336.4,256.8 337.6,257.5 338.8,258.1 340.0,258.8 341.2,259.3 342.4,259.9 343.5,260.5 344.7,261.0 345.9,261.5 347.1,262.0 348.3,262.4 349.5,262.9 350.7,263.3 351.9,263.7 353.0,264.0 354.2,264.4 355.4,264.7 356.6,264.9 357.8,265.2 359.0,265.4 360.2,265.6 361.3,265.7 362.5,265.8 363.7,265.9 364.9,266.0 366.1,266.0 367.3,266.0 368.5,266.0 369.7,265.9 370.8,265.8 372.0,265.7 373.2,265.5 374.4,265.3 375.6,265.0 376.8,264.8 378.0,264.5 379.1,264.1 380.3,263.8 381.5,263.4 382.7,262.9 383.9,262.4 385.1,261.9 386.3,261.3 387.5,260.7 388.6,260.1 389.8,259.4 391.0,258.6 392.2,257.9 393.4,257.1 394.6,256.2 395.8,255.3 396.9,254.4 398.1,253.4 399.3,252.4 400.5,251.4 401.7,250.4 402.9,249.3 404.1,248.1 405.3,246.9 406.4,245.7 407.6,244.5 408.8,243.2 410.0,241.9 411.2,240.6 412.4,239.3 413.6,237.9 414.7,236.6 415.9,235.2 417.1,233.8 418.3,232.4 419.5,231.1 420.7,229.7 421.9,228.4 423.1,227.1 424.2,225.8 425.4,224.6 426.6,223.4 427.8,222.2 429.0,221.1 430.2,220.0 431.4,218.9 432.5,217.9 433.7,216.8 434.9,215.8 436.1,214.9 437.3,213.9 438.5,213.0 439.7,212.2 440.9,211.3 442.0,210.5 443.2,209.8 444.4,209.0 445.6,208.3 446.8,207.7 448.0,207.0 449.2,206.4 450.3,205.8 451.5,205.2 452.7,204.5 453.9,203.8 455.1,203.1 456.3,202.3 457.5,201.5 458.7,200.7 459.8,199.8 461.0,199.0 462.2,198.1 463.4,197.2 464.6,196.3 465.8,195.4 467.0,194.5 468.1,193.5 469.3,192.6 470.5,191.7 471.7,190.8 472.9,190.0 474.1,189.1 475.3,188.3 476.5,187.5 477.6,186.8 478.8,186.2 480.0,185.6 481.2,185.1 482.4,184.7 483.6,184.4 484.8,184.3 485.9,184.2 487.1,184.4 488.3,184.6 489.5,185.0 490.7,185.5 491.9,186.2 493.1,187.3 494.3,188.4 495.4,189.5 496.6,190.4 497.8,191.3 499.0,192.2 500.2,193.0 501.4,193.8 502.6,194.5 503.7,195.1 504.9,195.7 506.1,196.3 507.3,197.0 508.5,197.6 509.7,198.2 510.9,198.6 512.1,198.9 513.2,199.1 514.4,199.2 515.6,199.4 516.8,199.6 518.0,199.8 519.2,200.2 520.4,200.8 521.5,201.5 522.7,202.4 523.9,203.3 525.1,204.3 526.3,205.3 527.5,206.2 528.7,207.0 529.9,207.6 531.0,208.0 532.2,208.2 533.4,208.2 534.6,208.1 535.8,207.9 537.0,207.6 538.2,207.3 539.3,206.8 540.5,206.4 541.7,205.9 542.9,205.4 544.1,204.9 545.3,204.3 546.5,203.8 547.7,203.2 548.8,202.6 550.0,201.9 551.2,201.3 552.4,200.6 553.6,199.9 554.8,199.1 556.0,198.3 557.1,197.4 558.3,196.5 559.5,195.6 560.7,194.6 561.9,193.6 563.1,192.5 564.3,191.5 565.5,190.3 566.6,189.2 567.8,188.1 569.0,186.9 570.2,185.8 571.4,184.8 572.6,183.7 573.8,182.7 574.9,181.7 576.1,180.7 577.3,179.7 578.5,178.8 579.7,177.9 580.9,177.0 582.1,176.1 583.3,175.2 584.4,174.3 585.6,173.5 586.8,172.6 588.0,171.8 589.2,171.0 590.4,170.2 591.6,169.4 592.7,168.6 593.9,167.8 595.1,167.1 596.3,166.4 597.5,165.6 598.7,164.9 599.9,164.2 601.1,163.5 602.2,162.9 603.4,162.2 604.6,161.5 605.8,160.9 607.0,160.3 608.2,159.6 609.4,159.0 610.5,158.4 611.7,157.8 612.9,157.2 614.1,156.6 615.3,156.0 616.5,155.4 617.7,154.9 618.9,154.3 620.0,153.8 621.2,153.3 622.4,152.8 623.6,152.2 624.8,151.7 626.0,151.2 627.2,150.8 628.3,150.3 629.5,149.8 630.7,149.3 631.9,148.9 633.1,148.4 634.3,147.9 635.5,147.5 636.7,147.1 637.8,146.6 639.0,146.2 640.2,145.8 641.4,145.3 642.6,144.9 643.8,144.5 645.0,144.1 646.1,143.7 647.3,143.2 648.5,142.8 649.7,142.4 650.9,141.9 652.1,141.5 653.3,141.1 654.5,140.6 655.6,140.2 656.8,139.8 658.0,139.4 659.2,139.0 660.4,138.6 661.6,138.2 662.8,138.0 663.9,137.8 665.1,137.7 666.3,137.6 667.5,137.6 668.7,137.6 669.9,137.6 671.1,137.5 672.3,137.5 673.4,137.5 674.6,137.5 675.8,137.5 677.0,137.5 678.2,137.5 679.4,137.5 680.6,137.5 681.7,137.5 682.9,137.5 684.1,137.5 685.3,137.5 686.5,137.5 687.7,137.5 688.9,137.4 690.1,137.2 691.2,137.0 692.4,136.7 693.6,136.3 694.8,135.9 696.0,135.4 697.2,134.8 698.4,134.3 699.5,133.7 700.7,133.1 701.9,132.5 703.1,131.8 704.3,131.2 705.5,130.7 706.7,130.1 707.9,129.6 709.0,129.1 710.2,128.6 711.4,128.1 712.6,127.7 713.8,127.3 715.0,127.0 716.2,126.7 717.3,126.4 718.5,126.2 719.7,126.0 720.9,125.8 722.1,125.6 723.3,125.4 724.5,125.1 725.7,124.9 726.8,124.7 728.0,124.4 729.2,124.2 730.4,123.9 731.6,123.6 732.8,123.2 734.0,122.9 735.1,122.5 736.3,122.1 737.5,121.7 738.7,121.3 739.9,120.8 741.1,120.4 742.3,119.9 743.5,119.5 744.6,119.0 745.8,118.6 747.0,118.1 748.2,117.7 749.4,117.3 750.6,116.9 751.8,116.5 752.9,116.1 754.1,115.7 755.3,115.3 756.5,115.0 757.7,114.6 758.9,114.2 760.1,113.8 761.3,113.5 762.4,113.1 763.6,112.8 764.8,112.5 766.0,112.1"/>
<line x1="606" y1="42" x2="628" y2="42" stroke="#0f62fe" stroke-width="2.2"/>
<text x="634" y="46" font-family="Arial" font-size="12">vy_mps</text>
</svg>