<svg xmlns="http://www.w3.org/2000/svg" width="820" height="320" viewBox="0 0 820 320">
<rect width="100%" height="100%" fill="#ffffff"/>
<text x="54" y="28" font-family="Arial" font-size="18" font-weight="700">Speed</text>
<line x1="54" y1="266" x2="766" y2="266" stroke="#1f2933"/>
<line x1="54" y1="54" x2="54" y2="266" stroke="#1f2933"/>
<text x="54" y="306" font-family="Arial" font-size="12">time (s)</text>
<text x="596" y="306" font-family="Arial" font-size="12">speed (m/s)</text>
<text x="58" y="68" font-family="Arial" font-size="11">157</text>
<text x="58" y="260" font-family="Arial" font-size="11">77.5</text>
<polyline fill="none" stroke="#0f62fe" stroke-width="2.2" points="54.0,247.0 55.2,245.8 56.4,244.5 57.6,243.2 58.7,241.9 59.9,240.6 61.1,239.2 62.3,237.8 63.5,236.4 64.7,235.0 65.9,233.5 67.1,232.1 68.2,230.6 69.4,229.0 70.6,227.5 71.8,226.0 73.0,224.4 74.2,222.9 75.4,221.4 76.5,219.9 77.7,218.3 78.9,216.8 80.1,215.3 81.3,213.8 82.5,212.3 83.7,210.9 84.9,209.4 86.0,207.9 87.2,206.4 88.4,205.0 89.6,203.5 90.8,202.1 92.0,200.6 93.2,199.2 94.3,197.8 95.5,196.3 96.7,194.9 97.9,193.5 99.1,192.2 100.3,190.8 101.5,189.4 102.7,188.0 103.8,186.7 105.0,185.3 106.2,184.0 107.4,182.6 108.6,181.3 109.8,180.0 111.0,178.7 112.1,177.4 113.3,176.1 114.5,174.9 115.7,173.6 116.9,172.4 118.1,171.1 119.3,169.9 120.5,168.7 121.6,167.5 122.8,166.3 124.0,165.1 125.2,163.9 126.4,162.7 127.6,161.5 128.8,160.2 129.9,159.0 131.1,157.8 132.3,156.6 133.5,155.3 134.7,154.1 135.9,152.9 137.1,151.6 138.3,150.4 139.4,149.2 140.6,148.0 141.8,146.7 143.0,145.5 144.2,144.3 145.4,143.1 146.6,141.9 147.7,140.7 148.9,139.6 150.1,138.4 151.3,137.3 152.5,136.2 153.7,135.1 154.9,134.0 156.1,132.9 157.2,131.8 158.4,130.8 159.6,129.8 160.8,128.7 162.0,127.7 163.2,126.7 164.4,125.7 165.5,124.7 166.7,123.7 167.9,122.7 169.1,121.7 170.3,120.7 171.5,119.7 172.7,118.7 173.9,117.7 175.0,116.7 176.2,115.7 177.4,114.7 178.6,113.8 179.8,112.8 181.0,111.9 182.2,111.0 183.3,110.1 184.5,109.3 185.7,108.5 186.9,107.7 188.1,106.9 189.3,106.1 190.5,105.3 191.7,104.5 192.8,103.7 194.0,102.9 195.2,102.1 196.4,101.2 197.6,100.4 198.8,99.5 200.0,98.7 201.1,97.8 202.3,97.0 203.5,96.2 204.7,95.4 205.9,94.6 207.1,93.8 208.3,93.1 209.5,92.3 210.6,91.6 211.8,90.9 213.0,90.3 214.2,89.6 215.4,89.0 216.6,88.4 217.8,87.9 218.9,87.3 220.1,86.8 221.3,86.2 222.5,85.6 223.7,85.0 224.9,84.4 226.1,83.7 227.3,83.0 228.4,82.3 229.6,81.6 230.8,80.8 232.0,80.1 233.2,79.4 234.4,78.7 235.6,78.0 236.7,77.3 237.9,76.7 239.1,76.1 240.3,75.5 241.5,75.0 242.7,74.5 243.9,74.0 245.1,73.6 246.2,73.1 247.4,72.7 248.6,72.3 249.8,72.0 251.0,71.7 252.2,71.4 253.4,71.1 254.5,70.7 255.7,70.5 256.9,70.2 258.1,69.9 259.3,69.6 260.5,69.3 261.7,69.0 262.9,68.8 264.0,68.5 265.2,68.2 266.4,67.9 267.6,67.6 268.8,67.4 270.0,67.2 271.2,67.0 272.3,66.8 273.5,66.7 274.7,66.7 275.9,66.8 277.1,66.8 278.3,67.0 279.5,67.2 280.7,67.4 281.8,67.6 283.0,67.8 284.2,68.0 285.4,68.2 286.6,68.5 287.8,68.6 289.0,68.8 290.1,68.9 291.3,69.0 292.5,69.1 293.7,69.1 294.9,69.2 296.1,69.3 297.3,69.4 298.5,69.6 299.6,69.9 300.8,70.2 302.0,70.5 303.2,71.0 304.4,71.4 305.6,72.0 306.8,72.6 307.9,73.2 309.1,73.9 310.3,74.6 311.5,75.3 312.7,76.0 313.9,76.6 315.1,77.3 316.3,77.9 317.4,78.5 318.6,79.0 319.8,79.5 321.0,80.0 322.2,80.5 323.4,81.0 324.6,81.4 325.7,81.9 326.9,82.4 328.1,82.8 329.3,83.3 330.5,83.9 331.7,84.4 332.9,85.0 334.1,85.5 335.2,86.1 336.4,86.7 337.6,87.3 338.8,87.9 340.0,88.6 341.2,89.2 342.4,89.9 343.5,90.5 344.7,91.2 345.9,91.8 347.1,92.4 348.3,93.1 349.5,93.7 350.7,94.4 351.9,95.1 353.0,95.8 354.2,96.5 355.4,97.2 356.6,98.0 357.8,98.7 359.0,99.5 360.2,100.3 361.3,101.2 362.5,102.0 363.7,103.0 364.9,103.9 366.1,104.9 367.3,105.9 368.5,107.0 369.7,108.1 370.8,109.2 372.0,110.4 373.2,111.6 374.4,112.8 375.6,114.1 376.8,115.5 378.0,116.8 379.1,118.2 380.3,119.6 381.5,121.0 382.7,122.5 383.9,124.0 385.1,125.6 386.3,127.2 387.5,128.9 388.6,130.6 389.8,132.3 391.0,134.1 392.2,135.9 393.4,137.7 394.6,139.6 395.8,141.5 396.9,143.5 398.1,145.5 399.3,147.5 400.5,149.6 401.7,151.7 402.9,153.8 404.1,155.9 405.3,158.1 406.4,160.3 407.6,162.5 408.8,164.8 410.0,167.1 411.2,169.3 412.4,171.6 413.6,173.9 414.7,176.1 415.9,178.4 417.1,180.7 418.3,183.0 419.5,185.2 420.7,187.4 421.9,189.5 423.1,191.6 424.2,193.6 425.4,195.6 426.6,197.5 427.8,199.4 429.0,201.2 430.2,203.0 431.4,204.7 432.5,206.3 433.7,207.8 434.9,209.4 436.1,210.8 437.3,212.2 438.5,213.6 439.7,214.8 440.9,216.0 442.0,217.1 443.2,218.2 444.4,219.2 445.6,220.2 446.8,221.1 448.0,221.9 449.2,222.7 450.3,223.4 451.5,224.1 452.7,224.8 453.9,225.6 455.1,226.4 456.3,227.1 457.5,227.9 458.7,228.7 459.8,229.4 461.0,230.1 462.2,230.8 463.4,231.5 464.6,232.2 465.8,232.8 467.0,233.4 468.1,233.9 469.3,234.4 470.5,234.9 471.7,235.2 472.9,235.5 474.1,235.8 475.3,236.0 476.5,236.1 477.6,236.2 478.8,236.3 480.0,236.2 481.2,236.1 482.4,236.0 483.6,235.7 484.8,235.2 485.9,234.7 487.1,234.0 488.3,233.3 489.5,232.4 490.7,231.4 491.9,230.1 493.1,228.4 494.3,226.6 495.4,225.1 496.6,223.9 497.8,222.7 499.0,221.5 500.2,220.2 501.4,219.0 502.6,217.8 503.7,216.5 504.9,215.2 506.1,213.7 507.3,211.9 508.5,209.9 509.7,208.0 510.9,206.2 512.1,204.7 513.2,203.5 514.4,202.4 515.6,201.3 516.8,200.4 518.0,199.3 519.2,198.2 520.4,196.9 521.5,195.3 522.7,193.6 523.9,191.9 525.1,190.0 526.3,188.2 527.5,186.4 528.7,184.6 529.9,182.9 531.0,181.4 532.2,180.1 533.4,178.9 534.6,177.8 535.8,176.8 537.0,175.9 538.2,175.0 539.3,174.2 540.5,173.4 541.7,172.7 542.9,172.0 544.1,171.4 545.3,170.8 546.5,170.3 547.7,169.8 548.8,169.3 550.0,168.9 551.2,168.6 552.4,168.3 553.6,168.0 554.8,167.7 556.0,167.6 557.1,167.4 558.3,167.3 559.5,167.2 560.7,167.2 561.9,167.2 563.1,167.2 564.3,167.2 565.5,167.2 566.6,167.2 567.8,167.2 569.0,167.2 570.2,168.4 571.4,169.6 572.6,170.8 573.8,172.0 574.9,173.2 576.1,174.3 577.3,175.5 578.5,176.6 579.7,177.7 580.9,178.8 582.1,179.9 583.3,181.0 584.4,182.1 585.6,183.2 586.8,184.4 588.0,185.5 589.2,186.6 590.4,187.7 591.6,188.8 592.7,189.9 593.9,191.0 595.1,192.1 596.3,193.2 597.5,194.3 598.7,195.4 599.9,196.4 601.1,197.5 602.2,198.6 603.4,199.6 604.6,200.7 605.8,201.7 607.0,202.8 608.2,203.8 609.4,204.8 610.5,205.8 611.7,206.8 612.9,207.8 614.1,208.9 615.3,209.8 616.5,210.8 617.7,211.8 618.9,212.7 620.0,213.6 621.2,214.5 622.4,215.3 623.6,216.2 624.8,217.1 626.0,217.9 627.2,218.8 628.3,219.6 629.5,220.5 630.7,221.3 631.9,222.2 633.1,223.0 634.3,223.9 635.5,224.7 636.7,225.6 637.8,226.5 639.0,227.3 640.2,228.2 641.4,229.0 642.6,229.8 643.8,230.6 645.0,231.4 646.1,232.2 647.3,233.0 648.5,233.7 649.7,234.5 650.9,235.2 652.1,235.9 653.3,236.6 654.5,237.2 655.6,237.8 656.8,238.4 658.0,239.0 659.2,239.5 660.4,240.0 661.6,240.5 662.8,240.9 663.9,241.2 665.1,241.5 666.3,241.8 667.5,242.2 668.7,242.6 669.9,243.1 671.1,243.7 672.3,244.2 673.4,244.8 674.6,245.3 675.8,245.6 677.0,245.8 678.2,245.9 679.4,245.9 680.6,245.8 681.7,245.8 682.9,245.7 684.1,245.6 685.3,245.6 686.5,245.5 687.7,245.5 688.9,245.5 690.1,245.6 691.2,245.6 692.4,245.7 693.6,245.8 694.8,246.0 696.0,246.2 697.2,246.5 698.4,246.7 699.5,247.0 700.7,247.4 701.9,247.7 703.1,248.1 704.3,248.5 705.5,248.9 706.7,249.2 707.9,249.6 709.0,250.0 710.2,250.3 711.4,250.7 712.6,251.0 713.8,251.3 715.0,251.6 716.2,251.9 717.3,252.2 718.5,252.5 719.7,252.8 720.9,253.2 722.1,253.5 723.3,253.8 724.5,254.2 725.7,254.5 726.8,254.9 728.0,255.2 729.2,255.6 730.4,255.9 731.6,256.3 732.8,256.6 734.0,257.0 735.1,257.3 736.3,257.6 737.5,257.9 738.7,258.3 739.9,258.6 741.1,258.9 742.3,259.2 743.5,259.6 744.6,259.9 745.8,260.2 747.0,260.6 748.2,260.9 749.4,261.3 750.6,261.7 751.8,262.0 752.9,262.4 754.1,262.7 755.3,263.1 756.5,263.4 757.7,263.7 758.9,264.1 760.1,264.4 761.3,264.7 762.4,265.1 763.6,265.4 764.8,265.7 766.0,266.0"/>
<line x1="606" y1="42" x2="628" y2="42" stroke="#0f62fe" stroke-width="2.2"/>
<text x="634" y="46" font-family="Arial" font-size="12">speed_mps</text>
<polyline fill="none" stroke="#24a148" stroke-width="2.2" points="54.0,240.7 55.2,238.5 56.4,238.9 57.6,237.4 58.7,235.9 59.9,235.0 61.1,233.2 62.3,232.8 63.5,231.0 64.7,229.7 65.9,228.2 67.1,226.0 68.2,223.6 69.4,222.8 70.6,219.5 71.8,218.2 73.0,217.2 74.2,215.2 75.4,213.1 76.5,212.1 77.7,209.9 78.9,206.8 80.1,205.5 81.3,205.0 82.5,203.0 83.7,201.5 84.9,199.2 86.0,196.8 87.2,195.4 88.4,193.7 89.6,191.3 90.8,189.2 92.0,187.6 93.2,186.7 94.3,184.6 95.5,183.2 96.7,181.1 97.9,178.9 99.1,176.7 100.3,175.0 101.5,174.1 102.7,173.2 103.8,173.3 105.0,171.6 106.2,169.1 107.4,167.8 108.6,166.7 109.8,164.9 111.0,163.3 112.1,162.0 113.3,160.5 114.5,158.6 115.7,156.9 116.9,156.8 118.1,155.1 119.3,153.3 120.5,152.4 121.6,151.1 122.8,149.2 124.0,148.3 125.2,149.2 126.4,148.8 127.6,147.8 128.8,147.8 129.9,146.4 131.1,145.9 132.3,144.2 133.5,142.3 134.7,141.4 135.9,140.1 137.1,139.8 138.3,138.7 139.4,136.9 140.6,136.8 141.8,135.5 143.0,134.1 144.2,132.6 145.4,130.8 146.6,129.1 147.7,127.2 148.9,127.0 150.1,126.6 151.3,126.1 152.5,124.9 153.7,122.8 154.9,120.6 156.1,118.5 157.2,118.0 158.4,117.1 159.6,115.6 160.8,115.8 162.0,114.9 163.2,112.1 164.4,110.5 165.5,109.5 166.7,108.7 167.9,107.5 169.1,107.3 170.3,106.6 171.5,104.6 172.7,105.1 173.9,105.3 175.0,103.8 176.2,102.9 177.4,102.2 178.6,99.1 179.8,98.2 181.0,97.5 182.2,96.2 183.3,96.7 184.5,96.5 185.7,95.6 186.9,94.1 188.1,93.2 189.3,92.8 190.5,92.1 191.7,92.3 192.8,92.0 194.0,92.7 195.2,92.3 196.4,92.9 197.6,91.1 198.8,89.0 200.0,86.5 201.1,84.7 202.3,82.0 203.5,82.1 204.7,81.1 205.9,79.9 207.1,79.9 208.3,79.3 209.5,78.3 210.6,76.0 211.8,74.8 213.0,75.1 214.2,75.8 215.4,73.7 216.6,73.2 217.8,72.2 218.9,72.4 220.1,72.3 221.3,72.5 222.5,71.7 223.7,72.8 224.9,72.8 226.1,72.0 227.3,70.6 228.4,70.9 229.6,70.7 230.8,69.6 232.0,69.2 233.2,69.7 234.4,67.6 235.6,67.0 236.7,66.2 237.9,65.5 239.1,64.2 240.3,64.1 241.5,63.5 242.7,62.9 243.9,63.3 245.1,64.5 246.2,63.7 247.4,63.9 248.6,61.5 249.8,62.1 251.0,62.3 252.2,61.6 253.4,60.0 254.5,59.4 255.7,59.2 256.9,58.8 258.1,57.5 259.3,58.1 260.5,59.4 261.7,58.6 262.9,59.8 264.0,60.5 265.2,59.8 266.4,59.5 267.6,60.5 268.8,58.8 270.0,58.1 271.2,58.5 272.3,58.2 273.5,58.2 274.7,56.7 275.9,57.6 277.1,56.0 278.3,54.8 279.5,56.4 280.7,57.6 281.8,57.0 283.0,56.6 284.2,56.1 285.4,56.4 286.6,56.5 287.8,58.0 289.0,59.2 290.1,58.2 291.3,57.2 292.5,57.3 293.7,57.4 294.9,57.0 296.1,57.0 297.3,57.5 298.5,55.9 299.6,55.4 300.8,54.7 302.0,54.0 303.2,54.0 304.4,54.4 305.6,54.6 306.8,55.5 307.9,55.8 309.1,55.7 310.3,58.0 311.5,59.8 312.7,61.8 313.9,61.2 315.1,61.3 316.3,62.3 317.4,63.3 318.6,64.7 319.8,63.7 321.0,65.0 322.2,66.4 323.4,67.2 324.6,66.4 325.7,66.6 326.9,68.0 328.1,67.6 329.3,69.8 330.5,68.9 331.7,70.0 332.9,71.5 334.1,71.9 335.2,71.1 336.4,72.2 337.6,71.3 338.8,70.9 340.0,69.9 341.2,73.0 342.4,73.8 343.5,75.0 344.7,76.7 345.9,78.1 347.1,78.6 348.3,79.2 349.5,79.6 350.7,78.6 351.9,78.3 353.0,80.3 354.2,80.5 355.4,80.2 356.6,80.4 357.8,82.6 359.0,82.7 360.2,83.5 361.3,84.9 362.5,85.0 363.7,84.3 364.9,84.8 366.1,85.0 367.3,86.1 368.5,86.7 369.7,88.0 370.8,88.9 372.0,89.6 373.2,90.3 374.4,89.1 375.6,91.0 376.8,94.4 378.0,95.7 379.1,97.5 380.3,98.9 381.5,99.5 382.7,99.2 383.9,99.1 385.1,100.2 386.3,101.2 387.5,102.7 388.6,103.8 389.8,105.2 391.0,108.2 392.2,109.0 393.4,110.6 394.6,111.2 395.8,111.5 396.9,113.4 398.1,116.2 399.3,118.8 400.5,119.8 401.7,120.3 402.9,121.2 404.1,123.4 405.3,126.0 406.4,126.9 407.6,128.9 408.8,131.7 410.0,134.5 411.2,138.7 412.4,140.6 413.6,144.9 414.7,148.3 415.9,151.7 417.1,152.5 418.3,155.0 419.5,157.1 420.7,160.6 421.9,162.2 423.1,165.0 424.2,167.6 425.4,168.8 426.6,172.0 427.8,174.1 429.0,176.6 430.2,180.0 431.4,182.5 432.5,184.4 433.7,185.3 434.9,186.6 436.1,188.1 437.3,190.8 438.5,193.1 439.7,195.9 440.9,198.8 442.0,199.1 443.2,199.3 444.4,202.4 445.6,204.6 446.8,206.6 448.0,207.7 449.2,210.8 450.3,212.2 451.5,213.9 452.7,215.9 453.9,216.2 455.1,217.2 456.3,219.2 457.5,220.4 458.7,221.7 459.8,223.6 461.0,225.6 462.2,226.9 463.4,226.9 464.6,227.6 465.8,229.0 467.0,229.5 468.1,231.1 469.3,232.2 470.5,231.6 471.7,230.8 472.9,230.6 474.1,229.8 475.3,229.5 476.5,229.5 477.6,229.8 478.8,228.7 480.0,227.7 481.2,227.3 482.4,226.6 483.6,226.8 484.8,225.9 485.9,224.2 487.1,221.8 488.3,220.4 489.5,218.3 490.7,216.8 491.9,214.6 493.1,211.0 494.3,207.6 495.4,204.8 496.6,204.3 497.8,202.9 499.0,201.1 500.2,199.6 501.4,197.4 502.6,194.6 503.7,191.9 504.9,189.4 506.1,185.9 507.3,184.4 508.5,184.4 509.7,181.2 510.9,178.4 512.1,176.3 513.2,174.8 514.4,172.8 515.6,173.1 516.8,171.7 518.0,169.3 519.2,168.7 520.4,167.2 521.5,165.8 522.7,163.3 523.9,161.9 525.1,160.0 526.3,158.4 527.5,156.1 528.7,154.5 529.9,153.8 531.0,152.8 532.2,150.6 533.4,150.5 534.6,151.5 535.8,152.0 537.0,152.6 538.2,152.4 539.3,152.6 540.5,152.7 541.7,152.8 542.9,153.1 544.1,152.4 545.3,151.9 546.5,151.9 547.7,151.7 548.8,152.0 550.0,152.6 551.2,152.1 552.4,153.5 553.6,154.6 554.8,154.6 556.0,154.5 557.1,155.0 558.3,155.1 559.5,154.4 560.7,154.2 561.9,153.8 563.1,154.9 564.3,154.6 565.5,155.9 566.6,156.0 567.8,155.2 569.0,155.6 570.2,156.6 571.4,157.6 572.6,159.7 573.8,160.8 574.9,163.1 576.1,165.6 577.3,167.4 578.5,169.8 579.7,168.9 580.9,169.4 582.1,170.5 583.3,172.6 584.4,173.3 585.6,173.8 586.8,174.1 588.0,174.5 589.2,176.2 590.4,177.5 591.6,178.2 592.7,179.1 593.9,179.3 595.1,179.2 596.3,180.2 597.5,182.3 598.7,182.1 599.9,183.5 601.1,183.7 602.2,184.8 603.4,184.4 604.6,184.1 605.8,184.1 607.0,185.0 608.2,185.6 609.4,187.2 610.5,187.6 611.7,186.6 612.9,187.8 614.1,188.5 615.3,190.0 616.5,190.7 617.7,193.0 618.9,195.2 620.0,196.0 621.2,196.7 622.4,197.4 623.6,198.4 624.8,199.4 626.0,199.5 627.2,199.6 628.3,199.1 629.5,200.1 630.7,200.5 631.9,201.6 633.1,202.2 634.3,203.0 635.5,203.4 636.7,203.2 637.8,203.9 639.0,205.4 640.2,206.2 641.4,207.9 642.6,210.2 643.8,211.1 645.0,211.5 646.1,212.3 647.3,213.6 648.5,214.4 649.7,215.5 650.9,217.1 652.1,219.0 653.3,220.3 654.5,222.6 655.6,223.9 656.8,225.3 658.0,225.3 659.2,227.2 660.4,227.8 661.6,228.8 662.8,229.7 663.9,231.0 665.1,231.8 666.3,232.9 667.5,232.5 668.7,232.9 669.9,233.9 671.1,234.8 672.3,235.6 673.4,236.9 674.6,238.0 675.8,237.8 677.0,237.7 678.2,238.3 679.4,237.9 680.6,238.0 681.7,237.7 682.9,237.7 684.1,237.3 685.3,237.1 686.5,237.6 687.7,238.6 688.9,238.4 690.1,239.1 691.2,240.2 692.4,239.1 693.6,238.1 694.8,237.8 696.0,238.3 697.2,238.0 698.4,239.0 699.5,238.3 700.7,237.4 701.9,238.5 703.1,238.2 704.3,238.7 705.5,239.3 706.7,239.6 707.9,239.0 709.0,238.5 710.2,238.2 711.4,238.0 712.6,237.6 713.8,238.4 715.0,238.4 716.2,237.9 717.3,238.1 718.5,238.7 719.7,239.1 720.9,239.9 722.1,239.4 723.3,240.1 724.5,239.0 725.7,239.1 726.8,238.7 728.0,238.5 729.2,238.9 730.4,239.1 731.6,239.8 732.8,239.4 734.0,239.6 735.1,239.7 736.3,239.2 737.5,239.5 738.7,238.8 739.9,238.7 741.1,239.3 742.3,239.8 743.5,240.2 744.6,239.9 745.8,240.7 747.0,242.1 748.2,242.1 749.4,242.8 750.6,243.2 751.8,243.9 752.9,244.2 754.1,245.6 755.3,245.2 756.5,245.6 757.7,246.3 758.9,247.4 760.1,248.0 761.3,249.0 762.4,249.7 763.6,250.8 764.8,250.6 766.0,252.0"/>
<line x1="606" y1="60" x2="628" y2="60" stroke="#24a148" stroke-width="2.2"/>
<text x="634" y="64" font-family="Arial" font-size="12">airspeed_mps</text>
</svg>