<svg xmlns="http://www.w3.org/2000/svg" width="820" height="320" viewBox="0 0 820 320">
<rect width="100%" height="100%" fill="#ffffff"/>
<text x="54" y="28" font-family="Arial" font-size="18" font-weight="700">Euler Angles</text>
<line x1="54" y1="266" x2="766" y2="266" stroke="#1f2933"/>
<line x1="54" y1="54" x2="54" y2="266" stroke="#1f2933"/>
<text x="54" y="306" font-family="Arial" font-size="12">time (s)</text>
<text x="596" y="306" font-family="Arial" font-size="12">angle (deg)</text>
<text x="58" y="68" font-family="Arial" font-size="11">180</text>
<text x="58" y="260" font-family="Arial" font-size="11">-180</text>
<polyline fill="none" stroke="#0f62fe" stroke-width="2.2" points="54.0,159.6 55.2,159.6 56.4,159.5 57.6,159.4 58.7,159.2 59.9,159.1 61.1,159.0 62.3,158.9 63.5,158.8 64.7,158.7 65.9,158.6 67.1,158.4 68.2,158.3 69.4,158.2 70.6,158.1 71.8,158.0 73.0,157.8 74.2,157.7 75.4,157.6 76.5,157.5 77.7,157.3 78.9,157.2 80.1,157.1 81.3,156.9 82.5,156.8 83.7,156.7 84.9,156.5 86.0,156.4 87.2,156.3 88.4,156.2 89.6,156.0 90.8,155.9 92.0,155.8 93.2,155.7 94.3,155.5 95.5,155.4 96.7,155.3 97.9,155.2 99.1,155.1 100.3,155.0 101.5,154.8 102.7,154.7 103.8,154.6 105.0,154.5 106.2,154.4 107.4,154.2 108.6,154.1 109.8,154.0 111.0,153.9 112.1,153.7 113.3,153.6 114.5,153.5 115.7,153.4 116.9,153.3 118.1,153.2 119.3,153.0 120.5,152.9 121.6,152.8 122.8,152.7 124.0,152.6 125.2,152.5 126.4,152.4 127.6,152.3 128.8,152.2 129.9,152.0 131.1,151.9 132.3,151.8 133.5,151.6 134.7,151.5 135.9,151.3 137.1,151.2 138.3,151.0 139.4,150.8 140.6,150.6 141.8,150.4 143.0,150.2 144.2,149.9 145.4,149.7 146.6,149.5 147.7,149.2 148.9,149.0 150.1,148.7 151.3,148.5 152.5,148.3 153.7,148.0 154.9,147.8 156.1,147.6 157.2,147.4 158.4,147.1 159.6,146.9 160.8,146.7 162.0,146.5 163.2,146.3 164.4,146.1 165.5,145.8 166.7,145.6 167.9,145.4 169.1,145.2 170.3,145.0 171.5,144.8 172.7,144.5 173.9,144.3 175.0,144.1 176.2,143.9 177.4,143.6 178.6,143.4 179.8,143.2 181.0,142.9 182.2,142.7 183.3,142.5 184.5,142.3 185.7,142.0 186.9,141.8 188.1,141.6 189.3,141.4 190.5,141.2 191.7,141.0 192.8,140.8 194.0,140.6 195.2,140.4 196.4,140.2 197.6,140.0 198.8,139.8 200.0,139.6 201.1,139.3 202.3,139.1 203.5,138.9 204.7,138.7 205.9,138.4 207.1,138.2 208.3,138.0 209.5,137.8 210.6,137.5 211.8,137.3 213.0,137.1 214.2,136.9 215.4,136.7 216.6,136.5 217.8,136.3 218.9,136.1 220.1,135.9 221.3,135.7 222.5,135.5 223.7,135.3 224.9,135.1 226.1,134.9 227.3,134.7 228.4,134.4 229.6,134.2 230.8,134.0 232.0,133.8 233.2,133.6 234.4,133.3 235.6,133.1 236.7,132.9 237.9,132.7 239.1,132.4 240.3,132.2 241.5,132.0 242.7,131.8 243.9,131.6 245.1,131.3 246.2,131.1 247.4,130.9 248.6,130.7 249.8,130.5 251.0,130.3 252.2,130.1 253.4,129.8 254.5,129.6 255.7,129.4 256.9,129.2 258.1,129.0 259.3,128.8 260.5,128.6 261.7,128.4 262.9,128.1 264.0,127.9 265.2,127.7 266.4,127.5 267.6,127.3 268.8,127.0 270.0,126.8 271.2,126.6 272.3,126.4 273.5,126.2 274.7,126.0 275.9,125.8 277.1,125.6 278.3,125.4 279.5,125.2 280.7,125.0 281.8,124.8 283.0,124.5 284.2,124.3 285.4,124.1 286.6,123.9 287.8,123.7 289.0,123.5 290.1,123.3 291.3,123.1 292.5,122.9 293.7,122.7 294.9,122.4 296.1,122.2 297.3,122.0 298.5,121.8 299.6,121.6 300.8,121.4 302.0,121.2 303.2,121.0 304.4,120.8 305.6,120.6 306.8,120.4 307.9,120.2 309.1,120.1 310.3,119.9 311.5,119.7 312.7,119.5 313.9,119.3 315.1,119.1 316.3,118.9 317.4,118.7 318.6,118.5 319.8,118.3 321.0,118.1 322.2,117.9 323.4,117.7 324.6,117.5 325.7,117.3 326.9,117.1 328.1,116.9 329.3,116.7 330.5,116.5 331.7,116.3 332.9,116.2 334.1,116.0 335.2,115.8 336.4,115.7 337.6,115.5 338.8,115.3 340.0,115.2 341.2,115.0 342.4,114.9 343.5,114.7 344.7,114.6 345.9,114.4 347.1,114.3 348.3,114.1 349.5,114.0 350.7,113.8 351.9,113.7 353.0,113.5 354.2,113.4 355.4,113.3 356.6,113.2 357.8,113.1 359.0,113.0 360.2,112.9 361.3,112.8 362.5,112.8 363.7,112.7 364.9,112.6 366.1,112.6 367.3,112.5 368.5,112.5 369.7,112.4 370.8,112.4 372.0,112.4 373.2,112.3 374.4,112.3 375.6,112.3 376.8,112.3 378.0,112.3 379.1,112.3 380.3,112.3 381.5,112.3 382.7,112.4 383.9,112.4 385.1,112.5 386.3,112.5 387.5,112.6 388.6,112.6 389.8,112.7 391.0,112.8 392.2,112.8 393.4,112.9 394.6,113.0 395.8,113.1 396.9,113.2 398.1,113.3 399.3,113.4 400.5,113.5 401.7,113.7 402.9,113.8 404.1,113.9 405.3,114.0 406.4,114.2 407.6,114.3 408.8,114.5 410.0,114.6 411.2,114.8 412.4,114.9 413.6,115.0 414.7,115.1 415.9,115.1 417.1,114.9 418.3,114.6 419.5,114.3 420.7,113.8 421.9,113.4 423.1,113.0 424.2,112.5 425.4,112.1 426.6,111.7 427.8,111.2 429.0,110.8 430.2,110.3 431.4,109.9 432.5,109.4 433.7,108.9 434.9,108.5 436.1,108.0 437.3,107.5 438.5,107.1 439.7,106.6 440.9,106.1 442.0,105.6 443.2,105.1 444.4,104.7 445.6,104.2 446.8,103.7 448.0,103.2 449.2,102.8 450.3,102.5 451.5,102.1 452.7,101.9 453.9,101.6 455.1,101.4 456.3,101.2 457.5,101.1 458.7,100.9 459.8,100.9 461.0,100.8 462.2,100.8 463.4,100.9 464.6,101.1 465.8,101.3 467.0,101.7 468.1,102.3 469.3,103.2 470.5,104.7 471.7,107.5 472.9,113.8 474.1,132.7 475.3,170.1 476.5,186.3 477.6,192.6 478.8,196.5 480.0,199.9 481.2,203.0 482.4,206.0 483.6,209.0 484.8,212.0 485.9,214.9 487.1,217.8 488.3,220.6 489.5,223.3 490.7,225.9 491.9,228.1 493.1,230.1 494.3,231.9 495.4,233.5 496.6,234.9 497.8,236.2 499.0,237.2 500.2,237.9 501.4,238.4 502.6,238.5 503.7,238.3 504.9,237.6 506.1,236.3 507.3,234.1 508.5,231.0 509.7,227.4 510.9,223.8 512.1,220.6 513.2,218.0 514.4,216.1 515.6,214.9 516.8,214.5 518.0,214.8 519.2,215.7 520.4,217.2 521.5,218.8 522.7,220.5 523.9,222.3 525.1,224.2 526.3,226.1 527.5,227.9 528.7,229.6 529.9,231.2 531.0,232.8 532.2,234.4 533.4,236.0 534.6,237.4 535.8,238.4 537.0,239.0 538.2,239.2 539.3,238.9 540.5,238.3 541.7,237.4 542.9,236.2 544.1,234.8 545.3,233.4 546.5,232.0 547.7,230.6 548.8,229.3 550.0,228.2 551.2,227.3 552.4,226.7 553.6,226.2 554.8,225.8 556.0,225.4 557.1,225.1 558.3,224.7 559.5,224.1 560.7,223.4 561.9,222.5 563.1,221.3 564.3,219.9 565.5,218.3 566.6,216.3 567.8,214.1 569.0,211.5 570.2,208.3 571.4,204.4 572.6,199.8 573.8,194.5 574.9,188.7 576.1,183.0 577.3,177.7 578.5,172.9 579.7,168.9 580.9,165.4 582.1,162.5 583.3,159.9 584.4,157.7 585.6,155.8 586.8,154.2 588.0,152.8 589.2,151.7 590.4,150.9 591.6,150.4 592.7,150.0 593.9,149.6 595.1,149.3 596.3,148.9 597.5,148.5 598.7,148.0 599.9,147.6 601.1,147.1 602.2,146.7 603.4,146.3 604.6,145.8 605.8,145.4 607.0,145.0 608.2,144.5 609.4,144.1 610.5,143.7 611.7,143.3 612.9,142.9 614.1,142.5 615.3,142.0 616.5,141.6 617.7,141.1 618.9,140.7 620.0,140.3 621.2,139.8 622.4,139.4 623.6,138.9 624.8,138.5 626.0,138.1 627.2,137.7 628.3,137.3 629.5,136.9 630.7,136.5 631.9,136.2 633.1,135.8 634.3,135.5 635.5,135.3 636.7,135.0 637.8,134.9 639.0,134.8 640.2,134.7 641.4,134.7 642.6,134.9 643.8,135.1 645.0,135.4 646.1,135.9 647.3,136.5 648.5,137.4 649.7,138.4 650.9,139.8 652.1,141.4 653.3,143.3 654.5,145.6 655.6,148.2 656.8,151.2 658.0,154.3 659.2,157.6 660.4,160.9 661.6,164.0 662.8,167.0 663.9,169.8 665.1,172.4 666.3,174.9 667.5,177.3 668.7,179.5 669.9,181.6 671.1,183.7 672.3,185.7 673.4,187.7 674.6,189.6 675.8,191.4 677.0,193.1 678.2,194.6 679.4,195.9 680.6,197.1 681.7,198.0 682.9,198.8 684.1,199.3 685.3,199.6 686.5,199.7 687.7,199.6 688.9,199.1 690.1,198.2 691.2,196.9 692.4,195.2 693.6,193.0 694.8,190.5 696.0,187.7 697.2,184.7 698.4,181.8 699.5,179.2 700.7,177.0 701.9,175.2 703.1,173.9 704.3,173.1 705.5,172.7 706.7,172.6 707.9,172.8 709.0,173.4 710.2,174.2 711.4,175.1 712.6,176.3 713.8,177.6 715.0,179.0 716.2,180.3 717.3,181.7 718.5,183.1 719.7,184.3 720.9,185.5 722.1,186.7 723.3,187.7 724.5,188.6 725.7,189.3 726.8,189.9 728.0,190.4 729.2,190.7 730.4,190.7 731.6,190.7 732.8,190.5 734.0,190.3 735.1,190.0 736.3,189.7 737.5,189.5 738.7,189.3 739.9,189.1 741.1,189.0 742.3,188.8 743.5,188.7 744.6,188.7 745.8,188.6 747.0,188.6 748.2,188.6 749.4,188.7 750.6,188.7 751.8,188.8 752.9,188.8 754.1,188.9 755.3,189.0 756.5,189.0 757.7,189.1 758.9,189.2 760.1,189.3 761.3,189.4 762.4,189.5 763.6,189.6 764.8,189.7 766.0,189.9"/>
<line x1="606" y1="42" x2="628" y2="42" stroke="#0f62fe" stroke-width="2.2"/>
<text x="634" y="46" font-family="Arial" font-size="12">roll_deg</text>
<polyline fill="none" stroke="#24a148" stroke-width="2.2" points="54.0,155.8 55.2,155.7 56.4,155.5 57.6,155.3 58.7,155.2 59.9,155.1 61.1,155.0 62.3,155.0 63.5,154.9 64.7,154.9 65.9,154.8 67.1,154.8 68.2,154.8 69.4,154.8 70.6,154.7 71.8,154.7 73.0,154.7 74.2,154.7 75.4,154.7 76.5,154.7 77.7,154.8 78.9,154.8 80.1,154.8 81.3,154.8 82.5,154.8 83.7,154.9 84.9,154.9 86.0,155.0 87.2,155.0 88.4,155.0 89.6,155.0 90.8,155.0 92.0,155.1 93.2,155.1 94.3,155.1 95.5,155.2 96.7,155.2 97.9,155.2 99.1,155.3 100.3,155.3 101.5,155.4 102.7,155.4 103.8,155.4 105.0,155.5 106.2,155.5 107.4,155.6 108.6,155.6 109.8,155.6 111.0,155.7 112.1,155.7 113.3,155.8 114.5,155.8 115.7,155.9 116.9,155.9 118.1,156.0 119.3,156.0 120.5,156.0 121.6,156.1 122.8,156.1 124.0,156.1 125.2,156.1 126.4,156.2 127.6,156.2 128.8,156.2 129.9,156.2 131.1,156.2 132.3,156.2 133.5,156.2 134.7,156.2 135.9,156.3 137.1,156.3 138.3,156.3 139.4,156.3 140.6,156.3 141.8,156.4 143.0,156.4 144.2,156.4 145.4,156.5 146.6,156.5 147.7,156.6 148.9,156.6 150.1,156.7 151.3,156.7 152.5,156.8 153.7,156.8 154.9,156.9 156.1,157.0 157.2,157.0 158.4,157.1 159.6,157.1 160.8,157.1 162.0,157.2 163.2,157.2 164.4,157.2 165.5,157.3 166.7,157.3 167.9,157.3 169.1,157.3 170.3,157.3 171.5,157.4 172.7,157.4 173.9,157.4 175.0,157.5 176.2,157.5 177.4,157.5 178.6,157.6 179.8,157.6 181.0,157.7 182.2,157.7 183.3,157.8 184.5,157.9 185.7,157.9 186.9,158.0 188.1,158.0 189.3,158.0 190.5,158.0 191.7,158.0 192.8,158.0 194.0,158.0 195.2,158.0 196.4,158.0 197.6,158.0 198.8,158.0 200.0,157.9 201.1,158.0 202.3,158.0 203.5,158.0 204.7,158.0 205.9,158.0 207.1,158.0 208.3,158.1 209.5,158.1 210.6,158.2 211.8,158.2 213.0,158.2 214.2,158.3 215.4,158.3 216.6,158.3 217.8,158.3 218.9,158.3 220.1,158.3 221.3,158.3 222.5,158.2 223.7,158.2 224.9,158.2 226.1,158.1 227.3,158.2 228.4,158.1 229.6,158.2 230.8,158.1 232.0,158.1 233.2,158.2 234.4,158.2 235.6,158.2 236.7,158.3 237.9,158.3 239.1,158.4 240.3,158.5 241.5,158.6 242.7,158.6 243.9,158.6 245.1,158.7 246.2,158.7 247.4,158.8 248.6,158.8 249.8,158.9 251.0,158.9 252.2,158.9 253.4,158.9 254.5,158.9 255.7,159.0 256.9,159.0 258.1,159.0 259.3,159.0 260.5,159.0 261.7,159.0 262.9,159.1 264.0,159.1 265.2,159.1 266.4,159.2 267.6,159.2 268.8,159.3 270.0,159.4 271.2,159.5 272.3,159.6 273.5,159.7 274.7,159.7 275.9,159.8 277.1,159.9 278.3,160.0 279.5,160.0 280.7,160.1 281.8,160.1 283.0,160.1 284.2,160.2 285.4,160.1 286.6,160.1 287.8,160.1 289.0,160.1 290.1,160.1 291.3,160.1 292.5,160.1 293.7,160.2 294.9,160.2 296.1,160.3 297.3,160.4 298.5,160.5 299.6,160.6 300.8,160.7 302.0,160.8 303.2,160.9 304.4,161.0 305.6,161.1 306.8,161.2 307.9,161.3 309.1,161.4 310.3,161.5 311.5,161.5 312.7,161.6 313.9,161.6 315.1,161.6 316.3,161.6 317.4,161.7 318.6,161.7 319.8,161.7 321.0,161.7 322.2,161.7 323.4,161.8 324.6,161.8 325.7,161.9 326.9,162.0 328.1,162.1 329.3,162.3 330.5,162.4 331.7,162.5 332.9,162.7 334.1,162.8 335.2,162.9 336.4,163.1 337.6,163.2 338.8,163.3 340.0,163.4 341.2,163.5 342.4,163.6 343.5,163.7 344.7,163.8 345.9,163.9 347.1,163.9 348.3,164.0 349.5,164.1 350.7,164.2 351.9,164.3 353.0,164.5 354.2,164.6 355.4,164.7 356.6,164.9 357.8,165.0 359.0,165.2 360.2,165.3 361.3,165.5 362.5,165.6 363.7,165.7 364.9,165.9 366.1,166.0 367.3,166.2 368.5,166.3 369.7,166.4 370.8,166.6 372.0,166.7 373.2,166.9 374.4,167.0 375.6,167.1 376.8,167.3 378.0,167.4 379.1,167.6 380.3,167.7 381.5,167.9 382.7,168.1 383.9,168.2 385.1,168.4 386.3,168.5 387.5,168.7 388.6,168.8 389.8,169.0 391.0,169.1 392.2,169.3 393.4,169.4 394.6,169.6 395.8,169.8 396.9,169.9 398.1,170.1 399.3,170.3 400.5,170.4 401.7,170.6 402.9,170.8 404.1,171.0 405.3,171.2 406.4,171.3 407.6,171.5 408.8,171.7 410.0,171.9 411.2,172.0 412.4,172.1 413.6,172.0 414.7,171.8 415.9,171.5 417.1,171.0 418.3,170.5 419.5,170.0 420.7,169.5 421.9,169.0 423.1,168.5 424.2,168.1 425.4,167.7 426.6,167.2 427.8,166.8 429.0,166.4 430.2,166.0 431.4,165.7 432.5,165.3 433.7,164.9 434.9,164.6 436.1,164.2 437.3,163.9 438.5,163.6 439.7,163.3 440.9,162.9 442.0,162.6 443.2,162.4 444.4,162.2 445.6,162.2 446.8,162.4 448.0,162.9 449.2,163.6 450.3,164.5 451.5,165.7 452.7,166.9 453.9,168.3 455.1,169.8 456.3,171.3 457.5,173.0 458.7,174.8 459.8,176.7 461.0,178.8 462.2,181.0 463.4,183.3 464.6,185.8 465.8,188.4 467.0,191.2 468.1,194.1 469.3,197.2 470.5,200.4 471.7,203.6 472.9,206.9 474.1,209.6 475.3,209.2 476.5,206.2 477.6,202.7 478.8,199.1 480.0,195.6 481.2,192.2 482.4,188.9 483.6,185.7 484.8,182.5 485.9,179.4 487.1,176.4 488.3,173.5 489.5,170.8 490.7,168.2 491.9,166.0 493.1,164.4 494.3,163.3 495.4,162.9 496.6,163.0 497.8,163.6 499.0,164.7 500.2,166.2 501.4,168.0 502.6,170.2 503.7,172.5 504.9,175.1 506.1,177.7 507.3,180.3 508.5,182.7 509.7,184.2 510.9,184.7 512.1,184.5 513.2,183.7 514.4,182.4 515.6,180.9 516.8,179.1 518.0,177.4 519.2,175.7 520.4,174.1 521.5,172.7 522.7,171.9 523.9,171.4 525.1,171.5 526.3,172.1 527.5,173.1 528.7,174.6 529.9,176.3 531.0,177.9 532.2,179.3 533.4,180.5 534.6,181.6 535.8,182.7 537.0,183.6 538.2,184.4 539.3,185.1 540.5,185.7 541.7,186.2 542.9,186.7 544.1,187.2 545.3,187.6 546.5,188.0 547.7,188.3 548.8,188.6 550.0,188.9 551.2,189.2 552.4,189.6 553.6,189.9 554.8,190.4 556.0,190.8 557.1,191.4 558.3,192.0 559.5,192.8 560.7,193.6 561.9,194.6 563.1,195.6 564.3,196.7 565.5,197.8 566.6,199.0 567.8,200.2 569.0,201.3 570.2,202.3 571.4,203.2 572.6,203.9 573.8,204.4 574.9,204.6 576.1,204.4 577.3,204.0 578.5,203.4 579.7,202.5 580.9,201.6 582.1,200.5 583.3,199.4 584.4,198.3 585.6,197.1 586.8,195.8 588.0,194.6 589.2,193.4 590.4,192.1 591.6,190.9 592.7,189.7 593.9,188.4 595.1,187.2 596.3,186.0 597.5,184.9 598.7,183.8 599.9,182.8 601.1,181.8 602.2,180.9 603.4,180.0 604.6,179.2 605.8,178.4 607.0,177.6 608.2,176.9 609.4,176.2 610.5,175.5 611.7,174.6 612.9,173.8 614.1,173.3 615.3,172.8 616.5,172.2 617.7,171.7 618.9,171.2 620.0,170.8 621.2,170.3 622.4,169.9 623.6,169.5 624.8,169.1 626.0,168.6 627.2,168.2 628.3,168.0 629.5,167.8 630.7,167.6 631.9,167.5 633.1,167.4 634.3,167.3 635.5,167.3 636.7,167.4 637.8,167.6 639.0,167.8 640.2,168.1 641.4,168.6 642.6,169.2 643.8,169.9 645.0,170.8 646.1,171.8 647.3,172.8 648.5,174.0 649.7,175.2 650.9,176.3 652.1,177.4 653.3,178.4 654.5,179.2 655.6,179.8 656.8,180.0 658.0,179.9 659.2,179.3 660.4,178.2 661.6,176.9 662.8,175.5 663.9,174.3 665.1,173.1 666.3,171.8 667.5,170.6 668.7,169.3 669.9,168.2 671.1,167.4 672.3,166.6 673.4,166.1 674.6,165.6 675.8,165.3 677.0,165.1 678.2,165.1 679.4,165.2 680.6,165.5 681.7,166.0 682.9,166.9 684.1,168.1 685.3,169.7 686.5,171.7 687.7,173.9 688.9,176.3 690.1,178.8 691.2,181.3 692.4,183.5 693.6,185.6 694.8,187.2 696.0,188.5 697.2,189.3 698.4,189.7 699.5,189.6 700.7,189.2 701.9,188.5 703.1,187.5 704.3,186.4 705.5,185.1 706.7,183.8 707.9,182.5 709.0,181.3 710.2,180.1 711.4,178.7 712.6,177.4 713.8,176.3 715.0,175.2 716.2,174.2 717.3,173.2 718.5,172.3 719.7,171.5 720.9,170.8 722.1,170.2 723.3,169.8 724.5,169.4 725.7,169.1 726.8,168.8 728.0,168.8 729.2,168.8 730.4,168.9 731.6,169.1 732.8,169.4 734.0,169.7 735.1,170.1 736.3,170.4 737.5,170.7 738.7,170.9 739.9,171.1 741.1,171.2 742.3,171.1 743.5,171.0 744.6,170.8 745.8,170.6 747.0,170.3 748.2,170.0 749.4,169.8 750.6,169.6 751.8,169.4 752.9,169.2 754.1,169.0 755.3,168.9 756.5,168.7 757.7,168.6 758.9,168.5 760.1,168.4 761.3,168.3 762.4,168.2 763.6,168.1 764.8,168.1 766.0,168.1"/>
<line x1="606" y1="60" x2="628" y2="60" stroke="#24a148" stroke-width="2.2"/>
<text x="634" y="64" font-family="Arial" font-size="12">pitch_deg</text>
<polyline fill="none" stroke="#da1e28" stroke-width="2.2" points="54.0,159.6 55.2,159.7 56.4,159.9 57.6,160.1 58.7,160.4 59.9,160.6 61.1,160.9 62.3,161.1 63.5,161.4 64.7,161.6 65.9,161.9 67.1,162.1 68.2,162.4 69.4,162.6 70.6,162.9 71.8,163.1 73.0,163.4 74.2,163.6 75.4,163.9 76.5,164.2 77.7,164.5 78.9,164.7 80.1,165.0 81.3,165.3 82.5,165.6 83.7,165.8 84.9,166.1 86.0,166.4 87.2,166.6 88.4,166.9 89.6,167.2 90.8,167.5 92.0,167.7 93.2,168.0 94.3,168.3 95.5,168.5 96.7,168.8 97.9,169.0 99.1,169.3 100.3,169.6 101.5,169.8 102.7,170.1 103.8,170.4 105.0,170.6 106.2,170.9 107.4,171.2 108.6,171.5 109.8,171.8 111.0,172.0 112.1,172.3 113.3,172.6 114.5,172.9 115.7,173.1 116.9,173.4 118.1,173.6 119.3,173.8 120.5,174.0 121.6,174.2 122.8,174.3 124.0,174.3 125.2,174.4 126.4,174.4 127.6,174.4 128.8,174.3 129.9,174.3 131.1,174.3 132.3,174.2 133.5,174.2 134.7,174.2 135.9,174.1 137.1,174.2 138.3,174.2 139.4,174.2 140.6,174.3 141.8,174.4 143.0,174.6 144.2,174.8 145.4,175.0 146.6,175.3 147.7,175.5 148.9,175.8 150.1,176.1 151.3,176.4 152.5,176.7 153.7,176.9 154.9,177.2 156.1,177.4 157.2,177.7 158.4,177.9 159.6,178.1 160.8,178.3 162.0,178.4 163.2,178.5 164.4,178.7 165.5,178.8 166.7,178.8 167.9,178.9 169.1,179.0 170.3,179.1 171.5,179.2 172.7,179.3 173.9,179.5 175.0,179.7 176.2,179.9 177.4,180.1 178.6,180.4 179.8,180.7 181.0,181.0 182.2,181.3 183.3,181.6 184.5,181.8 185.7,182.1 186.9,182.2 188.1,182.4 189.3,182.5 190.5,182.5 191.7,182.6 192.8,182.6 194.0,182.5 195.2,182.5 196.4,182.5 197.6,182.5 198.8,182.5 200.0,182.6 201.1,182.6 202.3,182.7 203.5,182.9 204.7,183.0 205.9,183.2 207.1,183.5 208.3,183.7 209.5,184.0 210.6,184.3 211.8,184.5 213.0,184.7 214.2,184.9 215.4,185.1 216.6,185.2 217.8,185.3 218.9,185.3 220.1,185.3 221.3,185.2 222.5,185.2 223.7,185.1 224.9,185.0 226.1,184.9 227.3,184.7 228.4,184.8 229.6,184.8 230.8,184.9 232.0,185.0 233.2,185.1 234.4,185.3 235.6,185.5 236.7,185.8 237.9,186.1 239.1,186.4 240.3,186.7 241.5,187.0 242.7,187.3 243.9,187.6 245.1,187.9 246.2,188.2 247.4,188.4 248.6,188.7 249.8,188.9 251.0,189.1 252.2,189.3 253.4,189.4 254.5,189.6 255.7,189.7 256.9,189.9 258.1,190.0 259.3,190.1 260.5,190.3 261.7,190.5 262.9,190.6 264.0,190.9 265.2,191.1 266.4,191.4 267.6,191.7 268.8,192.0 270.0,192.2 271.2,192.7 272.3,193.1 273.5,193.5 274.7,193.9 275.9,194.2 277.1,194.6 278.3,194.9 279.5,195.2 280.7,195.5 281.8,195.7 283.0,195.8 284.2,195.9 285.4,196.0 286.6,196.1 287.8,196.2 289.0,196.3 290.1,196.4 291.3,196.5 292.5,196.7 293.7,196.9 294.9,197.1 296.1,197.5 297.3,197.9 298.5,198.3 299.6,198.8 300.8,199.3 302.0,199.7 303.2,200.1 304.4,200.6 305.6,201.0 306.8,201.4 307.9,201.7 309.1,202.0 310.3,202.3 311.5,202.6 312.7,202.6 313.9,202.8 315.1,203.0 316.3,203.2 317.4,203.3 318.6,203.4 319.8,203.6 321.0,203.7 322.2,203.9 323.4,204.0 324.6,204.3 325.7,204.6 326.9,204.7 328.1,205.1 329.3,205.5 330.5,205.9 331.7,206.3 332.9,206.8 334.1,207.3 335.2,207.8 336.4,208.3 337.6,208.9 338.8,209.4 340.0,209.9 341.2,210.3 342.4,210.8 343.5,211.3 344.7,211.8 345.9,212.3 347.1,212.8 348.3,213.3 349.5,213.8 350.7,214.3 351.9,214.9 353.0,215.5 354.2,216.1 355.4,216.8 356.6,217.5 357.8,218.3 359.0,219.1 360.2,219.9 361.3,220.7 362.5,221.5 363.7,222.4 364.9,223.2 366.1,224.1 367.3,225.0 368.5,226.0 369.7,226.9 370.8,227.8 372.0,228.8 373.2,229.7 374.4,230.7 375.6,231.8 376.8,232.8 378.0,233.8 379.1,234.8 380.3,235.8 381.5,236.9 382.7,238.0 383.9,239.1 385.1,240.2 386.3,241.4 387.5,242.5 388.6,243.7 389.8,244.8 391.0,246.0 392.2,247.2 393.4,248.4 394.6,249.6 395.8,250.9 396.9,252.1 398.1,253.3 399.3,254.6 400.5,255.8 401.7,257.1 402.9,258.3 404.1,259.6 405.3,260.9 406.4,262.1 407.6,263.4 408.8,264.7 410.0,266.0 411.2,55.0 412.4,56.3 413.6,57.5 414.7,58.6 415.9,59.5 417.1,60.0 418.3,60.2 419.5,60.0 420.7,59.7 421.9,59.3 423.1,59.0 424.2,58.6 425.4,58.2 426.6,57.8 427.8,57.4 429.0,57.0 430.2,56.6 431.4,56.1 432.5,55.6 433.7,55.1 434.9,54.6 436.1,54.0 437.3,265.7 438.5,265.1 439.7,264.5 440.9,263.9 442.0,263.2 443.2,262.5 444.4,261.8 445.6,261.2 446.8,260.8 448.0,260.8 449.2,261.2 450.3,262.0 451.5,263.0 452.7,264.1 453.9,265.2 455.1,54.0 456.3,55.0 457.5,56.0 458.7,56.9 459.8,57.9 461.0,58.8 462.2,59.8 463.4,60.8 464.6,61.8 465.8,62.9 467.0,64.1 468.1,65.5 469.3,67.2 470.5,69.5 471.7,73.0 472.9,80.0 474.1,99.6 475.3,137.6 476.5,154.3 477.6,161.1 478.8,165.4 480.0,169.1 481.2,172.6 482.4,175.9 483.6,179.3 484.8,182.8 485.9,186.3 487.1,190.1 488.3,194.1 489.5,198.3 490.7,202.5 491.9,206.4 493.1,209.9 494.3,213.0 495.4,215.9 496.6,218.5 497.8,220.9 499.0,223.0 500.2,224.7 501.4,226.1 502.6,226.9 503.7,227.2 504.9,226.7 506.1,225.4 507.3,223.0 508.5,219.3 509.7,215.3 510.9,211.5 512.1,208.3 513.2,205.8 514.4,204.2 515.6,203.3 516.8,203.3 518.0,203.9 519.2,205.2 520.4,206.7 521.5,208.1 522.7,208.9 523.9,209.1 525.1,208.8 526.3,208.1 527.5,206.8 528.7,205.2 529.9,203.4 531.0,201.9 532.2,200.8 533.4,199.9 534.6,199.1 535.8,198.1 537.0,197.1 538.2,196.0 539.3,194.8 540.5,193.5 541.7,192.1 542.9,190.6 544.1,189.0 545.3,187.4 546.5,185.7 547.7,184.0 548.8,182.3 550.0,180.6 551.2,178.9 552.4,177.2 553.6,175.5 554.8,173.8 556.0,172.1 557.1,170.4 558.3,168.7 559.5,167.1 560.7,165.4 561.9,163.6 563.1,161.8 564.3,159.9 565.5,157.8 566.6,155.4 567.8,152.6 569.0,149.3 570.2,145.5 571.4,140.9 572.6,135.6 573.8,129.7 574.9,123.4 576.1,117.3 577.3,111.8 578.5,107.1 579.7,103.4 580.9,100.3 582.1,97.9 583.3,96.0 584.4,94.5 585.6,93.3 586.8,92.4 588.0,91.7 589.2,91.2 590.4,90.8 591.6,90.5 592.7,90.3 593.9,90.1 595.1,90.0 596.3,89.8 597.5,89.7 598.7,89.6 599.9,89.5 601.1,89.4 602.2,89.3 603.4,89.2 604.6,89.2 605.8,89.1 607.0,89.0 608.2,89.0 609.4,88.9 610.5,88.9 611.7,89.0 612.9,89.0 614.1,89.0 615.3,88.9 616.5,88.8 617.7,88.8 618.9,88.8 620.0,88.7 621.2,88.7 622.4,88.7 623.6,88.8 624.8,88.8 626.0,89.1 627.2,89.3 628.3,89.6 629.5,89.9 630.7,90.4 631.9,91.0 633.1,91.8 634.3,92.7 635.5,93.8 636.7,95.2 637.8,96.9 639.0,98.8 640.2,101.0 641.4,103.3 642.6,105.8 643.8,108.5 645.0,111.4 646.1,114.5 647.3,117.9 648.5,121.5 649.7,125.3 650.9,129.5 652.1,134.0 653.3,138.8 654.5,144.0 655.6,149.5 656.8,155.3 658.0,161.4 659.2,167.6 660.4,173.9 661.6,180.0 662.8,186.1 663.9,192.0 665.1,197.6 666.3,202.9 667.5,207.7 668.7,211.9 669.9,215.5 671.1,218.6 672.3,221.2 673.4,223.1 674.6,224.4 675.8,224.9 677.0,224.8 678.2,223.8 679.4,222.1 680.6,219.8 681.7,217.0 682.9,213.8 684.1,210.6 685.3,207.4 686.5,204.3 687.7,201.2 688.9,198.0 690.1,194.8 691.2,191.4 692.4,187.8 693.6,184.2 694.8,180.4 696.0,176.6 697.2,172.8 698.4,169.4 699.5,166.4 700.7,164.0 701.9,162.4 703.1,161.4 704.3,161.0 705.5,161.1 706.7,161.8 707.9,162.8 709.0,164.3 710.2,166.0 711.4,167.7 712.6,169.7 713.8,171.7 715.0,173.7 716.2,175.6 717.3,177.4 718.5,178.9 719.7,180.2 720.9,181.1 722.1,181.7 723.3,182.0 724.5,181.9 725.7,181.3 726.8,180.5 728.0,179.4 729.2,178.1 730.4,176.6 731.6,174.9 732.8,173.1 734.0,171.2 735.1,169.4 736.3,167.5 737.5,165.6 738.7,163.8 739.9,162.1 741.1,160.4 742.3,158.8 743.5,157.2 744.6,155.8 745.8,154.4 747.0,153.0 748.2,151.8 749.4,150.6 750.6,149.4 751.8,148.2 752.9,146.9 754.1,145.6 755.3,144.2 756.5,142.9 757.7,141.6 758.9,140.2 760.1,138.8 761.3,137.4 762.4,136.0 763.6,134.6 764.8,133.1 766.0,131.6"/>
<line x1="606" y1="78" x2="628" y2="78" stroke="#da1e28" stroke-width="2.2"/>
<text x="634" y="82" font-family="Arial" font-size="12">yaw_deg</text>
</svg>