<svg xmlns="http://www.w3.org/2000/svg" width="820" height="320" viewBox="0 0 820 320">
<rect width="100%" height="100%" fill="#ffffff"/>
<text x="54" y="28" font-family="Arial" font-size="18" font-weight="700">Body Rates</text>
<line x1="54" y1="266" x2="766" y2="266" stroke="#1f2933"/>
<line x1="54" y1="54" x2="54" y2="266" stroke="#1f2933"/>
<text x="54" y="306" font-family="Arial" font-size="12">time (s)</text>
<text x="596" y="306" font-family="Arial" font-size="12">rate (deg/s)</text>
<text x="58" y="68" font-family="Arial" font-size="11">263</text>
<text x="58" y="260" font-family="Arial" font-size="11">-313</text>
<polyline fill="none" stroke="#0f62fe" stroke-width="2.2" points="54.0,150.9 55.2,149.9 56.4,149.3 57.6,149.2 58.7,149.2 59.9,149.3 61.1,149.3 62.3,149.3 63.5,149.4 64.7,149.4 65.9,149.4 67.1,149.3 68.2,149.3 69.4,149.3 70.6,149.2 71.8,149.2 73.0,149.2 74.2,149.1 75.4,149.0 76.5,149.0 77.7,149.0 78.9,149.0 80.1,149.0 81.3,149.0 82.5,149.1 83.7,149.1 84.9,149.1 86.0,149.1 87.2,149.1 88.4,149.1 89.6,149.1 90.8,149.1 92.0,149.2 93.2,149.2 94.3,149.2 95.5,149.3 96.7,149.3 97.9,149.3 99.1,149.3 100.3,149.3 101.5,149.2 102.7,149.2 103.8,149.2 105.0,149.2 106.2,149.2 107.4,149.2 108.6,149.1 109.8,149.2 111.0,149.1 112.1,149.1 113.3,149.1 114.5,149.2 115.7,149.2 116.9,149.1 118.1,149.1 119.3,149.1 120.5,149.0 121.6,149.0 122.8,148.9 124.0,148.8 125.2,148.8 126.4,148.7 127.6,148.6 128.8,148.5 129.9,148.3 131.1,148.1 132.3,148.0 133.5,147.9 134.7,147.8 135.9,147.7 137.1,147.5 138.3,147.3 139.4,147.2 140.6,147.0 141.8,146.8 143.0,146.7 144.2,146.5 145.4,146.4 146.6,146.4 147.7,146.5 148.9,146.6 150.1,146.6 151.3,146.6 152.5,146.6 153.7,146.6 154.9,146.6 156.1,146.7 157.2,146.7 158.4,146.8 159.6,146.8 160.8,146.7 162.0,146.7 163.2,146.7 164.4,146.6 165.5,146.6 166.7,146.6 167.9,146.6 169.1,146.6 170.3,146.5 171.5,146.5 172.7,146.5 173.9,146.5 175.0,146.4 176.2,146.4 177.4,146.4 178.6,146.5 179.8,146.5 181.0,146.6 182.2,146.6 183.3,146.6 184.5,146.7 185.7,146.8 186.9,146.8 188.1,146.8 189.3,146.8 190.5,146.8 191.7,146.7 192.8,146.7 194.0,146.6 195.2,146.5 196.4,146.6 197.6,146.5 198.8,146.5 200.0,146.4 201.1,146.4 202.3,146.4 203.5,146.5 204.7,146.5 205.9,146.5 207.1,146.5 208.3,146.6 209.5,146.6 210.6,146.6 211.8,146.7 213.0,146.8 214.2,146.7 215.4,146.7 216.6,146.8 217.8,146.7 218.9,146.8 220.1,146.8 221.3,146.7 222.5,146.6 223.7,146.6 224.9,146.5 226.1,146.5 227.3,146.4 228.4,146.4 229.6,146.4 230.8,146.5 232.0,146.4 233.2,146.5 234.4,146.5 235.6,146.4 236.7,146.4 237.9,146.6 239.1,146.6 240.3,146.6 241.5,146.6 242.7,146.6 243.9,146.6 245.1,146.7 246.2,146.6 247.4,146.6 248.6,146.6 249.8,146.7 251.0,146.7 252.2,146.7 253.4,146.6 254.5,146.6 255.7,146.6 256.9,146.7 258.1,146.6 259.3,146.6 260.5,146.5 261.7,146.5 262.9,146.6 264.0,146.5 265.2,146.4 266.4,146.5 267.6,146.5 268.8,146.5 270.0,146.5 271.2,146.5 272.3,146.5 273.5,146.6 274.7,146.6 275.9,146.7 277.1,146.7 278.3,146.7 279.5,146.7 280.7,146.7 281.8,146.7 283.0,146.7 284.2,146.7 285.4,146.7 286.6,146.6 287.8,146.6 289.0,146.6 290.1,146.5 291.3,146.4 292.5,146.4 293.7,146.4 294.9,146.4 296.1,146.4 297.3,146.4 298.5,146.5 299.6,146.5 300.8,146.5 302.0,146.6 303.2,146.6 304.4,146.6 305.6,146.6 306.8,146.6 307.9,146.7 309.1,146.7 310.3,146.7 311.5,146.7 312.7,146.7 313.9,146.7 315.1,146.6 316.3,146.6 317.4,146.6 318.6,146.6 319.8,146.5 321.0,146.5 322.2,146.5 323.4,146.5 324.6,146.5 325.7,146.5 326.9,146.5 328.1,146.5 329.3,146.5 330.5,146.5 331.7,146.5 332.9,146.6 334.1,146.6 335.2,146.6 336.4,146.6 337.6,146.6 338.8,146.7 340.0,146.6 341.2,146.6 342.4,146.6 343.5,146.6 344.7,146.6 345.9,146.6 347.1,146.6 348.3,146.6 349.5,146.5 350.7,146.5 351.9,146.5 353.0,146.5 354.2,146.5 355.4,146.5 356.6,146.5 357.8,146.5 359.0,146.5 360.2,146.5 361.3,146.5 362.5,146.5 363.7,146.5 364.9,146.5 366.1,146.5 367.3,146.5 368.5,146.4 369.7,146.5 370.8,146.4 372.0,146.4 373.2,146.4 374.4,146.4 375.6,146.4 376.8,146.3 378.0,146.3 379.1,146.3 380.3,146.2 381.5,146.2 382.7,146.1 383.9,146.1 385.1,146.1 386.3,146.0 387.5,146.0 388.6,146.0 389.8,145.9 391.0,145.9 392.2,145.8 393.4,145.7 394.6,145.7 395.8,145.7 396.9,145.6 398.1,145.6 399.3,145.5 400.5,145.5 401.7,145.4 402.9,145.3 404.1,145.2 405.3,145.1 406.4,145.1 407.6,145.0 408.8,144.9 410.0,144.8 411.2,144.6 412.4,144.6 413.6,144.4 414.7,144.4 415.9,144.3 417.1,144.2 418.3,144.1 419.5,144.0 420.7,144.0 421.9,143.9 423.1,143.8 424.2,143.7 425.4,143.7 426.6,143.6 427.8,143.5 429.0,143.4 430.2,143.2 431.4,143.1 432.5,143.0 433.7,142.9 434.9,142.8 436.1,142.7 437.3,142.6 438.5,142.5 439.7,142.4 440.9,142.2 442.0,142.1 443.2,142.0 444.4,141.8 445.6,141.7 446.8,141.6 448.0,141.5 449.2,141.4 450.3,141.2 451.5,141.1 452.7,140.9 453.9,140.8 455.1,140.7 456.3,140.6 457.5,140.5 458.7,140.3 459.8,140.2 461.0,140.1 462.2,140.0 463.4,139.9 464.6,139.8 465.8,139.7 467.0,139.6 468.1,139.5 469.3,139.4 470.5,139.5 471.7,139.5 472.9,139.7 474.1,140.1 475.3,141.3 476.5,143.3 477.6,145.7 478.8,148.7 480.0,152.1 481.2,155.4 482.4,158.5 483.6,161.7 484.8,164.9 485.9,168.0 487.1,171.1 488.3,174.1 489.5,176.8 490.7,179.0 491.9,180.5 493.1,181.1 494.3,180.6 495.4,178.9 496.6,176.0 497.8,171.7 499.0,166.4 500.2,160.3 501.4,154.6 502.6,149.3 503.7,144.5 504.9,140.2 506.1,136.6 507.3,133.5 508.5,131.1 509.7,129.5 510.9,128.7 512.1,129.0 513.2,130.3 514.4,133.0 515.6,137.1 516.8,142.7 518.0,149.9 519.2,158.4 520.4,166.5 521.5,174.1 522.7,180.9 523.9,186.8 525.1,191.7 526.3,195.6 527.5,198.4 528.7,199.9 529.9,200.3 531.0,199.5 532.2,197.4 533.4,194.1 534.6,189.5 535.8,183.8 537.0,177.1 538.2,169.8 539.3,162.5 540.5,156.6 541.7,152.0 542.9,148.6 544.1,146.6 545.3,145.8 546.5,146.3 547.7,147.9 548.8,150.8 550.0,154.9 551.2,160.3 552.4,164.6 553.6,167.8 554.8,170.0 556.0,171.3 557.1,171.5 558.3,170.7 559.5,168.8 560.7,165.8 561.9,161.7 563.1,158.7 564.3,156.9 565.5,156.2 566.6,156.5 567.8,157.7 569.0,160.1 570.2,161.0 571.4,160.8 572.6,160.0 573.8,159.6 574.9,157.9 576.1,155.0 577.3,151.0 578.5,145.8 579.7,141.6 580.9,138.3 582.1,135.9 583.3,134.3 584.4,133.5 585.6,133.4 586.8,134.2 588.0,135.6 589.2,137.9 590.4,140.9 591.6,144.0 592.7,146.0 593.9,146.9 595.1,146.6 596.3,145.3 597.5,143.4 598.7,142.5 599.9,142.5 601.1,142.8 602.2,143.1 603.4,143.0 604.6,142.9 605.8,142.7 607.0,142.6 608.2,142.5 609.4,142.4 610.5,142.4 611.7,142.3 612.9,142.3 614.1,142.2 615.3,142.1 616.5,142.1 617.7,142.1 618.9,142.0 620.0,141.8 621.2,141.7 622.4,141.7 623.6,141.6 624.8,141.5 626.0,141.4 627.2,141.3 628.3,141.2 629.5,141.1 630.7,140.9 631.9,140.8 633.1,140.6 634.3,140.4 635.5,140.2 636.7,139.9 637.8,139.6 639.0,139.5 640.2,139.6 641.4,139.6 642.6,139.6 643.8,139.6 645.0,139.5 646.1,139.5 647.3,139.4 648.5,139.4 649.7,139.4 650.9,139.4 652.1,139.3 653.3,139.8 654.5,141.1 655.6,142.7 656.8,144.5 658.0,146.3 659.2,148.1 660.4,149.8 661.6,151.6 662.8,153.8 663.9,156.4 665.1,159.6 666.3,163.3 667.5,167.2 668.7,171.3 669.9,175.4 671.1,179.2 672.3,182.2 673.4,184.4 674.6,185.9 675.8,186.5 677.0,186.5 678.2,185.7 679.4,184.4 680.6,182.6 681.7,180.7 682.9,178.8 684.1,177.0 685.3,175.3 686.5,173.6 687.7,171.8 688.9,169.5 690.1,166.8 691.2,163.4 692.4,160.3 693.6,157.1 694.8,154.0 696.0,151.1 697.2,148.4 698.4,145.9 699.5,143.7 700.7,141.9 701.9,140.5 703.1,139.6 704.3,139.3 705.5,139.5 706.7,140.4 707.9,142.0 709.0,144.4 710.2,147.4 711.4,150.9 712.6,154.4 713.8,157.6 715.0,160.4 716.2,163.0 717.3,165.2 718.5,167.0 719.7,168.5 720.9,169.6 722.1,170.2 723.3,170.5 724.5,170.2 725.7,169.5 726.8,168.2 728.0,166.2 729.2,163.7 730.4,161.1 731.6,159.1 732.8,157.7 734.0,156.9 735.1,156.6 736.3,156.9 737.5,157.8 738.7,158.7 739.9,159.2 741.1,159.3 742.3,159.2 743.5,159.1 744.6,159.0 745.8,159.0 747.0,159.0 748.2,159.1 749.4,159.2 750.6,159.3 751.8,159.4 752.9,159.4 754.1,159.5 755.3,159.6 756.5,159.8 757.7,159.9 758.9,160.0 760.1,160.1 761.3,160.2 762.4,160.4 763.6,160.5 764.8,160.6 766.0,160.7"/>
<line x1="606" y1="42" x2="628" y2="42" stroke="#0f62fe" stroke-width="2.2"/>
<text x="634" y="46" font-family="Arial" font-size="12">p_dps</text>
<polyline fill="none" stroke="#24a148" stroke-width="2.2" points="54.0,150.9 55.2,153.9 56.4,155.1 57.6,154.3 58.7,153.2 59.9,152.7 61.1,152.6 62.3,152.4 63.5,152.3 64.7,152.1 65.9,151.9 67.1,151.6 68.2,151.6 69.4,151.3 70.6,152.0 71.8,151.7 73.0,151.1 74.2,150.9 75.4,151.2 76.5,151.4 77.7,151.0 78.9,150.8 80.1,151.0 81.3,151.1 82.5,151.1 83.7,151.0 84.9,150.1 86.0,151.0 87.2,151.5 88.4,151.0 89.6,150.9 90.8,151.2 92.0,150.9 93.2,150.5 94.3,151.0 95.5,151.2 96.7,151.0 97.9,150.6 99.1,150.8 100.3,151.0 101.5,150.8 102.7,150.8 103.8,151.3 105.0,151.2 106.2,150.9 107.4,151.1 108.6,151.2 109.8,151.1 111.0,151.0 112.1,150.9 113.3,151.2 114.5,150.8 115.7,151.1 116.9,151.0 118.1,151.0 119.3,151.2 120.5,150.9 121.6,150.7 122.8,150.6 124.0,150.5 125.2,151.1 126.4,150.6 127.6,149.6 128.8,151.1 129.9,150.9 131.1,150.4 132.3,150.7 133.5,150.9 134.7,150.3 135.9,150.7 137.1,150.7 138.3,150.7 139.4,150.8 140.6,151.2 141.8,150.2 143.0,152.1 144.2,151.2 145.4,151.3 146.6,151.5 147.7,151.8 148.9,151.6 150.1,151.6 151.3,152.0 152.5,152.0 153.7,151.8 154.9,151.9 156.1,150.2 157.2,152.9 158.4,151.3 159.6,151.5 160.8,151.5 162.0,151.1 163.2,151.3 164.4,151.5 165.5,151.1 166.7,151.3 167.9,150.9 169.1,151.6 170.3,151.5 171.5,151.2 172.7,151.5 173.9,152.2 175.0,152.0 176.2,152.4 177.4,152.5 178.6,152.5 179.8,153.3 181.0,152.6 182.2,153.3 183.3,153.0 184.5,150.8 185.7,153.9 186.9,151.3 188.1,152.2 189.3,151.5 190.5,151.4 191.7,151.3 192.8,150.9 194.0,151.0 195.2,150.9 196.4,150.7 197.6,151.5 198.8,150.3 200.0,152.7 201.1,151.1 202.3,152.0 203.5,152.5 204.7,153.0 205.9,152.8 207.1,153.9 208.3,153.0 209.5,153.9 210.6,153.0 211.8,154.0 213.0,152.7 214.2,153.4 215.4,152.6 216.6,152.4 217.8,151.9 218.9,151.3 220.1,150.9 221.3,150.7 222.5,150.6 223.7,149.9 224.9,150.4 226.1,150.3 227.3,146.7 228.4,154.7 229.6,149.2 230.8,152.3 232.0,152.4 233.2,152.4 234.4,153.5 235.6,153.9 236.7,153.8 237.9,154.4 239.1,154.8 240.3,154.7 241.5,153.9 242.7,155.9 243.9,154.5 245.1,154.7 246.2,154.7 247.4,154.0 248.6,154.4 249.8,153.5 251.0,154.3 252.2,153.1 253.4,153.6 254.5,153.5 255.7,150.9 256.9,155.2 258.1,152.3 259.3,153.3 260.5,153.8 261.7,153.1 262.9,153.7 264.0,154.2 265.2,154.3 266.4,155.2 267.6,155.5 268.8,155.4 270.0,153.7 271.2,158.9 272.3,156.7 273.5,156.4 274.7,157.1 275.9,156.4 277.1,156.2 278.3,156.0 279.5,156.0 280.7,154.5 281.8,154.3 283.0,153.8 284.2,150.9 285.4,154.2 286.6,152.6 287.8,152.1 289.0,152.7 290.1,152.7 291.3,153.0 292.5,154.2 293.7,154.6 294.9,155.3 296.1,156.8 297.3,157.3 298.5,157.3 299.6,159.4 300.8,159.4 302.0,158.2 303.2,158.3 304.4,158.5 305.6,157.4 306.8,157.6 307.9,157.1 309.1,156.5 310.3,155.4 311.5,155.6 312.7,151.6 313.9,154.8 315.1,154.7 316.3,153.2 317.4,153.5 318.6,153.5 319.8,153.5 321.0,153.7 322.2,153.9 323.4,153.8 324.6,155.0 325.7,156.3 326.9,153.1 328.1,157.3 329.3,158.9 330.5,157.8 331.7,158.9 332.9,160.1 334.1,160.2 335.2,160.2 336.4,160.6 337.6,160.7 338.8,160.8 340.0,160.8 341.2,158.5 342.4,160.1 343.5,161.0 344.7,160.2 345.9,160.2 347.1,160.5 348.3,160.4 349.5,160.7 350.7,161.4 351.9,162.0 353.0,162.9 354.2,163.3 355.4,163.9 356.6,165.0 357.8,166.2 359.0,166.4 360.2,166.7 361.3,166.9 362.5,166.9 363.7,167.3 364.9,168.0 366.1,168.4 367.3,168.7 368.5,168.9 369.7,169.1 370.8,169.4 372.0,169.6 373.2,170.1 374.4,170.4 375.6,170.9 376.8,170.9 378.0,170.7 379.1,170.9 380.3,171.1 381.5,171.4 382.7,171.8 383.9,172.7 385.1,173.0 386.3,173.1 387.5,173.2 388.6,173.2 389.8,173.4 391.0,173.7 392.2,174.0 393.4,174.3 394.6,174.5 395.8,174.5 396.9,174.4 398.1,174.4 399.3,174.4 400.5,174.5 401.7,174.5 402.9,174.5 404.1,174.5 405.3,174.5 406.4,174.6 407.6,174.6 408.8,174.6 410.0,174.6 411.2,174.6 412.4,174.7 413.6,174.7 414.7,173.3 415.9,169.2 417.1,163.0 418.3,156.1 419.5,150.8 420.7,147.1 421.9,145.3 423.1,145.2 424.2,145.0 425.4,144.8 426.6,144.6 427.8,144.1 429.0,143.3 430.2,143.0 431.4,142.3 432.5,141.6 433.7,141.3 434.9,140.6 436.1,139.8 437.3,139.2 438.5,138.5 439.7,137.8 440.9,137.5 442.0,136.9 443.2,136.1 444.4,136.5 445.6,138.6 446.8,143.2 448.0,150.9 449.2,161.3 450.3,170.2 451.5,175.2 452.7,177.0 453.9,177.0 455.1,176.4 456.3,175.8 457.5,175.4 458.7,175.3 459.8,175.3 461.0,175.4 462.2,175.5 463.4,175.6 464.6,175.6 465.8,175.7 467.0,175.8 468.1,175.8 469.3,175.9 470.5,176.0 471.7,176.0 472.9,176.1 474.1,176.1 475.3,176.1 476.5,176.1 477.6,171.4 478.8,162.5 480.0,150.3 481.2,138.2 482.4,126.0 483.6,113.9 484.8,101.7 485.9,89.6 487.1,77.4 488.3,65.5 489.5,57.5 490.7,54.0 491.9,59.6 493.1,71.7 494.3,83.9 495.4,96.0 496.6,108.2 497.8,120.3 499.0,132.5 500.2,144.6 501.4,156.8 502.6,168.9 503.7,181.1 504.9,193.2 506.1,205.4 507.3,217.5 508.5,228.9 509.7,222.2 510.9,210.1 512.1,197.9 513.2,185.8 514.4,174.2 515.6,162.1 516.8,149.9 518.0,137.8 519.2,125.6 520.4,118.4 521.5,120.5 522.7,132.6 523.9,144.8 525.1,156.9 526.3,169.1 527.5,181.2 528.7,193.4 529.9,197.5 531.0,191.1 532.2,183.4 533.4,178.7 534.6,177.1 535.8,176.7 537.0,176.0 538.2,174.9 539.3,174.1 540.5,174.2 541.7,174.5 542.9,174.7 544.1,174.8 545.3,174.8 546.5,174.8 547.7,174.7 548.8,174.7 550.0,174.7 551.2,174.7 552.4,174.7 553.6,174.7 554.8,174.7 556.0,174.7 557.1,174.8 558.3,174.8 559.5,174.8 560.7,174.9 561.9,174.9 563.1,174.8 564.3,174.8 565.5,174.8 566.6,174.8 567.8,174.8 569.0,174.9 570.2,174.9 571.4,175.0 572.6,175.0 573.8,175.0 574.9,174.9 576.1,174.9 577.3,174.9 578.5,174.8 579.7,174.7 580.9,174.6 582.1,174.6 583.3,174.6 584.4,174.6 585.6,174.6 586.8,174.6 588.0,174.6 589.2,174.7 590.4,174.7 591.6,174.8 592.7,174.8 593.9,174.8 595.1,174.8 596.3,173.1 597.5,173.3 598.7,171.0 599.9,169.6 601.1,169.2 602.2,168.4 603.4,167.4 604.6,166.5 605.8,165.8 607.0,165.1 608.2,164.3 609.4,163.7 610.5,163.1 611.7,168.1 612.9,165.9 614.1,159.1 615.3,159.1 616.5,160.9 617.7,160.3 618.9,159.0 620.0,158.5 621.2,158.4 622.4,158.2 623.6,157.9 624.8,157.8 626.0,162.6 627.2,160.9 628.3,157.4 629.5,158.0 630.7,160.3 631.9,161.7 633.1,162.6 634.3,164.0 635.5,166.1 636.7,168.6 637.8,171.4 639.0,174.0 640.2,175.5 641.4,176.0 642.6,176.0 643.8,175.9 645.0,175.7 646.1,175.7 647.3,175.7 648.5,175.8 649.7,175.9 650.9,176.0 652.1,176.1 653.3,176.2 654.5,176.2 655.6,176.2 656.8,176.0 658.0,175.9 659.2,175.7 660.4,175.4 661.6,170.3 662.8,160.7 663.9,148.5 665.1,140.1 666.3,134.8 667.5,130.4 668.7,130.3 669.9,126.8 671.1,125.5 672.3,127.5 673.4,131.3 674.6,137.7 675.8,146.1 677.0,156.1 678.2,168.0 679.4,179.7 680.6,190.4 681.7,198.0 682.9,201.2 684.1,200.4 685.3,197.0 686.5,192.5 687.7,188.6 688.9,185.6 690.1,183.3 691.2,181.2 692.4,179.2 693.6,176.8 694.8,175.4 696.0,174.8 697.2,174.6 698.4,174.5 699.5,174.5 700.7,174.6 701.9,174.6 703.1,174.7 704.3,174.8 705.5,175.0 706.7,173.1 707.9,169.3 709.0,165.6 710.2,162.6 711.4,163.4 712.6,159.6 713.8,154.0 715.0,150.6 716.2,149.1 717.3,148.1 718.5,147.4 719.7,147.5 720.9,148.8 722.1,151.0 723.3,153.9 724.5,157.1 725.7,164.2 726.8,166.7 728.0,168.5 729.2,171.4 730.4,173.8 731.6,175.1 732.8,175.6 734.0,175.7 735.1,175.5 736.3,175.4 737.5,175.3 738.7,175.2 739.9,175.2 741.1,175.3 742.3,175.3 743.5,175.2 744.6,175.2 745.8,175.2 747.0,174.5 748.2,173.2 749.4,172.2 750.6,171.9 751.8,172.0 752.9,172.3 754.1,173.3 755.3,173.5 756.5,173.4 757.7,173.3 758.9,173.5 760.1,173.7 761.3,173.9 762.4,174.0 763.6,174.2 764.8,174.5 766.0,174.8"/>
<line x1="606" y1="60" x2="628" y2="60" stroke="#24a148" stroke-width="2.2"/>
<text x="634" y="64" font-family="Arial" font-size="12">q_dps</text>
<polyline fill="none" stroke="#da1e28" stroke-width="2.2" points="54.0,150.9 55.2,153.0 56.4,154.5 57.6,155.5 58.7,155.9 59.9,156.1 61.1,156.1 62.3,156.1 63.5,156.0 64.7,155.9 65.9,155.9 67.1,155.9 68.2,156.0 69.4,156.0 70.6,156.1 71.8,156.1 73.0,156.2 74.2,156.3 75.4,156.5 76.5,156.5 77.7,156.6 78.9,156.6 80.1,156.6 81.3,156.6 82.5,156.6 83.7,156.6 84.9,156.6 86.0,156.6 87.2,156.6 88.4,156.6 89.6,156.6 90.8,156.5 92.0,156.5 93.2,156.4 94.3,156.4 95.5,156.3 96.7,156.3 97.9,156.3 99.1,156.3 100.3,156.3 101.5,156.4 102.7,156.5 103.8,156.6 105.0,156.7 106.2,156.7 107.4,156.7 108.6,156.8 109.8,156.8 111.0,156.9 112.1,156.9 113.3,156.8 114.5,156.7 115.7,156.5 116.9,156.2 118.1,155.8 119.3,155.2 120.5,154.6 121.6,154.0 122.8,153.3 124.0,152.6 125.2,151.9 126.4,151.3 127.6,150.6 128.8,150.3 129.9,150.1 131.1,150.1 132.3,150.2 133.5,150.3 134.7,150.4 135.9,150.7 137.1,151.1 138.3,151.6 139.4,152.1 140.6,152.8 141.8,153.6 143.0,154.3 144.2,154.9 145.4,155.5 146.6,156.0 147.7,156.5 148.9,156.7 150.1,156.8 151.3,156.8 152.5,156.8 153.7,156.7 154.9,156.6 156.1,156.4 157.2,156.0 158.4,155.5 159.6,155.0 160.8,154.5 162.0,154.0 163.2,153.6 164.4,153.3 165.5,153.0 166.7,152.8 167.9,152.6 169.1,152.6 170.3,152.7 171.5,153.1 172.7,153.5 173.9,154.0 175.0,154.6 176.2,155.2 177.4,155.8 178.6,156.3 179.8,156.7 181.0,156.8 182.2,156.8 183.3,156.7 184.5,156.3 185.7,155.6 186.9,154.8 188.1,153.9 189.3,152.9 190.5,152.1 191.7,151.3 192.8,150.8 194.0,150.5 195.2,150.5 196.4,150.5 197.6,150.7 198.8,151.0 200.0,151.6 201.1,152.2 202.3,152.9 203.5,153.5 204.7,154.1 205.9,154.7 207.1,155.2 208.3,155.5 209.5,155.8 210.6,155.7 211.8,155.5 213.0,155.0 214.2,154.4 215.4,153.7 216.6,152.9 217.8,152.2 218.9,151.3 220.1,150.5 221.3,149.8 222.5,149.4 223.7,149.1 224.9,149.1 226.1,149.3 227.3,149.8 228.4,150.5 229.6,151.2 230.8,151.9 232.0,152.7 233.2,153.3 234.4,154.0 235.6,154.8 236.7,155.5 237.9,155.9 239.1,156.2 240.3,156.3 241.5,156.3 242.7,156.2 243.9,155.9 245.1,155.7 246.2,155.4 247.4,155.1 248.6,154.8 249.8,154.5 251.0,154.1 252.2,153.7 253.4,153.4 254.5,153.3 255.7,153.1 256.9,152.9 258.1,152.8 259.3,152.8 260.5,153.1 261.7,153.3 262.9,153.5 264.0,153.9 265.2,154.4 266.4,154.9 267.6,155.5 268.8,156.0 270.0,156.4 271.2,156.9 272.3,157.0 273.5,156.9 274.7,156.7 275.9,156.5 277.1,156.1 278.3,155.6 279.5,155.0 280.7,154.3 281.8,153.6 283.0,152.9 284.2,152.4 285.4,152.0 286.6,151.7 287.8,151.6 289.0,151.6 290.1,151.8 291.3,152.2 292.5,152.9 293.7,153.7 294.9,154.6 296.1,155.5 297.3,156.4 298.5,157.0 299.6,157.2 300.8,157.1 302.0,156.8 303.2,156.6 304.4,156.4 305.6,156.2 306.8,155.9 307.9,155.5 309.1,155.0 310.3,154.3 311.5,153.8 312.7,153.2 313.9,152.8 315.1,152.5 316.3,152.2 317.4,152.0 318.6,152.0 319.8,152.1 321.0,152.3 322.2,152.6 323.4,153.1 324.6,153.6 325.7,154.1 326.9,154.6 328.1,155.2 329.3,155.7 330.5,156.0 331.7,156.3 332.9,156.4 334.1,156.4 335.2,156.3 336.4,156.2 337.6,156.0 338.8,155.8 340.0,155.5 341.2,155.3 342.4,155.1 343.5,155.1 344.7,155.0 345.9,155.1 347.1,155.0 348.3,155.0 349.5,155.1 350.7,155.3 351.9,155.5 353.0,155.7 354.2,156.1 355.4,156.4 356.6,156.7 357.8,156.9 359.0,157.0 360.2,156.9 361.3,156.9 362.5,156.9 363.7,156.9 364.9,156.9 366.1,156.9 367.3,156.9 368.5,156.9 369.7,156.9 370.8,156.9 372.0,157.0 373.2,157.0 374.4,157.0 375.6,157.1 376.8,157.2 378.0,157.3 379.1,157.4 380.3,157.5 381.5,157.5 382.7,157.6 383.9,157.7 385.1,157.8 386.3,157.9 387.5,157.9 388.6,158.0 389.8,158.1 391.0,158.2 392.2,158.4 393.4,158.5 394.6,158.6 395.8,158.8 396.9,158.9 398.1,159.0 399.3,159.1 400.5,159.2 401.7,159.4 402.9,159.6 404.1,159.8 405.3,160.0 406.4,160.1 407.6,160.3 408.8,160.5 410.0,160.1 411.2,159.0 412.4,157.3 413.6,155.0 414.7,152.1 415.9,148.7 417.1,144.8 418.3,141.7 419.5,139.9 420.7,139.2 421.9,139.3 423.1,139.8 424.2,140.3 425.4,140.7 426.6,141.1 427.8,141.4 429.0,141.7 430.2,142.0 431.4,142.3 432.5,142.5 433.7,142.8 434.9,143.1 436.1,143.3 437.3,143.6 438.5,143.9 439.7,144.2 440.9,144.5 442.0,144.8 443.2,146.1 444.4,148.5 445.6,151.8 446.8,156.0 448.0,160.7 449.2,164.8 450.3,168.3 451.5,171.2 452.7,173.7 453.9,175.8 455.1,177.8 456.3,179.9 457.5,182.1 458.7,184.6 459.8,187.2 461.0,189.9 462.2,192.8 463.4,195.8 464.6,198.9 465.8,202.1 467.0,205.5 468.1,209.0 469.3,212.4 470.5,215.6 471.7,218.7 472.9,221.7 474.1,224.3 475.3,226.7 476.5,228.6 477.6,230.0 478.8,230.7 480.0,230.8 481.2,230.1 482.4,228.3 483.6,225.2 484.8,220.7 485.9,214.5 487.1,206.6 488.3,196.7 489.5,185.0 490.7,172.9 491.9,160.8 493.1,148.6 494.3,136.5 495.4,125.8 496.6,116.9 497.8,110.2 499.0,105.9 500.2,103.9 501.4,104.4 502.6,106.9 503.7,111.4 504.9,117.5 506.1,125.1 507.3,134.2 508.5,143.9 509.7,152.8 510.9,161.1 512.1,168.6 513.2,175.2 514.4,180.5 515.6,184.5 516.8,186.7 518.0,187.0 519.2,185.2 520.4,180.9 521.5,174.3 522.7,166.1 523.9,158.2 525.1,151.1 526.3,145.1 527.5,140.7 528.7,137.9 529.9,136.9 531.0,137.1 532.2,138.1 533.4,139.9 534.6,142.3 535.8,145.3 537.0,148.3 538.2,151.1 539.3,153.5 540.5,155.3 541.7,156.7 542.9,157.4 544.1,157.6 545.3,157.4 546.5,157.1 547.7,156.9 548.8,156.8 550.0,156.2 551.2,155.2 552.4,153.9 553.6,152.5 554.8,151.0 556.0,149.4 557.1,147.5 558.3,145.4 559.5,143.1 560.7,140.5 561.9,137.9 563.1,135.4 564.3,132.9 565.5,130.9 566.6,129.3 567.8,128.1 569.0,127.4 570.2,127.2 571.4,127.1 572.6,127.3 573.8,128.0 574.9,129.0 576.1,130.2 577.3,131.6 578.5,133.3 579.7,134.7 580.9,135.7 582.1,136.3 583.3,136.8 584.4,137.4 585.6,137.8 586.8,138.3 588.0,138.9 589.2,139.5 590.4,140.0 591.6,140.5 592.7,140.7 593.9,141.0 595.1,141.2 596.3,141.4 597.5,141.6 598.7,141.7 599.9,141.9 601.1,142.1 602.2,142.4 603.4,142.6 604.6,142.8 605.8,142.9 607.0,143.2 608.2,143.4 609.4,143.6 610.5,143.8 611.7,144.0 612.9,144.1 614.1,144.2 615.3,144.4 616.5,144.6 617.7,144.7 618.9,144.9 620.0,145.1 621.2,145.5 622.4,146.0 623.6,146.6 624.8,147.5 626.0,148.7 627.2,150.0 628.3,151.7 629.5,153.7 630.7,155.8 631.9,158.4 633.1,161.3 634.3,164.7 635.5,168.5 636.7,172.9 637.8,177.8 639.0,182.7 640.2,187.5 641.4,192.2 642.6,196.9 643.8,201.5 645.0,206.0 646.1,210.5 647.3,214.9 648.5,219.3 649.7,223.7 650.9,228.0 652.1,232.3 653.3,236.4 654.5,240.5 655.6,244.6 656.8,248.7 658.0,252.7 659.2,256.8 660.4,260.8 661.6,264.6 662.8,266.0 663.9,264.9 665.1,261.3 666.3,255.1 667.5,246.7 668.7,236.0 669.9,223.8 671.1,211.7 672.3,199.5 673.4,187.4 674.6,175.2 675.8,163.1 677.0,151.7 678.2,141.1 679.4,131.6 680.6,123.0 681.7,115.2 682.9,108.0 684.1,101.5 685.3,95.3 686.5,89.5 687.7,84.5 688.9,81.1 690.1,79.5 691.2,79.8 692.4,81.6 693.6,85.0 694.8,89.8 696.0,95.7 697.2,102.7 698.4,110.6 699.5,119.2 700.7,128.5 701.9,137.7 703.1,146.6 704.3,155.1 705.5,163.0 706.7,170.3 707.9,176.8 709.0,182.5 710.2,187.3 711.4,191.0 712.6,193.6 713.8,194.8 715.0,194.7 716.2,193.1 717.3,190.2 718.5,185.8 719.7,180.3 720.9,174.1 722.1,167.7 723.3,161.4 724.5,155.2 725.7,149.3 726.8,143.7 728.0,138.7 729.2,134.1 730.4,130.2 731.6,126.9 732.8,124.4 734.0,122.7 735.1,121.8 736.3,121.8 737.5,122.6 738.7,124.1 739.9,126.0 741.1,128.3 742.3,130.6 743.5,132.8 744.6,135.0 745.8,136.9 747.0,138.1 748.2,138.5 749.4,138.6 750.6,138.3 751.8,137.8 752.9,137.2 754.1,136.6 755.3,136.1 756.5,135.6 757.7,135.3 758.9,134.9 760.1,134.6 761.3,134.3 762.4,134.0 763.6,133.5 764.8,132.8 766.0,131.9"/>
<line x1="606" y1="78" x2="628" y2="78" stroke="#da1e28" stroke-width="2.2"/>
<text x="634" y="82" font-family="Arial" font-size="12">r_dps</text>
</svg>