<svg xmlns="http://www.w3.org/2000/svg" width="820" height="320" viewBox="0 0 820 320">
<rect width="100%" height="100%" fill="#ffffff"/>
<text x="54" y="28" font-family="Arial" font-size="18" font-weight="700">Alpha/Beta</text>
<line x1="54" y1="266" x2="766" y2="266" stroke="#1f2933"/>
<line x1="54" y1="54" x2="54" y2="266" stroke="#1f2933"/>
<text x="54" y="306" font-family="Arial" font-size="12">time (s)</text>
<text x="596" y="306" font-family="Arial" font-size="12">angle (deg)</text>
<text x="58" y="68" font-family="Arial" font-size="11">35</text>
<text x="58" y="260" font-family="Arial" font-size="11">-30</text>
<polyline fill="none" stroke="#0f62fe" stroke-width="2.2" points="54.0,165.9 55.2,164.3 56.4,162.7 57.6,161.6 58.7,160.5 59.9,159.8 61.1,158.4 62.3,157.9 63.5,157.2 64.7,156.5 65.9,155.7 67.1,155.4 68.2,154.3 69.4,154.9 70.6,154.3 71.8,153.5 73.0,153.0 74.2,152.9 75.4,152.9 76.5,152.2 77.7,151.7 78.9,151.6 80.1,151.5 81.3,151.3 82.5,151.1 83.7,151.4 84.9,151.4 86.0,151.3 87.2,150.8 88.4,150.7 89.6,150.9 90.8,150.2 92.0,149.2 93.2,149.5 94.3,149.5 95.5,149.5 96.7,148.6 97.9,148.5 99.1,148.4 100.3,148.0 101.5,147.8 102.7,148.3 103.8,148.2 105.0,147.9 106.2,147.8 107.4,147.6 108.6,147.3 109.8,147.1 111.0,146.4 112.1,146.6 113.3,145.9 114.5,146.0 115.7,145.7 116.9,145.7 118.1,145.9 119.3,145.6 120.5,145.3 121.6,144.9 122.8,144.5 124.0,145.3 125.2,145.3 126.4,145.1 127.6,145.8 128.8,146.0 129.9,146.2 131.1,146.3 132.3,146.4 133.5,145.8 134.7,145.9 135.9,145.7 137.1,145.5 138.3,145.4 139.4,145.6 140.6,145.6 141.8,146.0 143.0,145.2 144.2,145.0 145.4,144.5 146.6,144.3 147.7,143.9 148.9,143.3 150.1,143.3 151.3,143.3 152.5,143.1 153.7,142.9 154.9,142.3 156.1,142.5 157.2,141.8 158.4,141.9 159.6,141.6 160.8,141.3 162.0,141.3 163.2,141.7 164.4,141.7 165.5,141.8 166.7,141.4 167.9,141.7 169.1,141.6 170.3,141.7 171.5,141.3 172.7,141.7 173.9,141.8 175.0,141.8 176.2,141.5 177.4,140.9 178.6,140.8 179.8,140.1 181.0,139.9 182.2,139.5 183.3,138.5 184.5,138.1 185.7,137.1 186.9,137.2 188.1,136.9 189.3,137.1 190.5,137.4 191.7,137.6 192.8,137.8 194.0,138.0 195.2,137.9 196.4,138.5 197.6,138.3 198.8,139.0 200.0,138.5 201.1,138.0 202.3,137.5 203.5,137.7 204.7,137.4 205.9,137.6 207.1,137.0 208.3,136.8 209.5,135.7 210.6,135.4 211.8,134.5 213.0,134.1 214.2,133.8 215.4,133.4 216.6,133.0 217.8,132.3 218.9,131.9 220.1,131.9 221.3,132.7 222.5,132.5 223.7,133.2 224.9,133.8 226.1,134.1 227.3,135.4 228.4,134.1 229.6,134.6 230.8,134.2 232.0,134.1 233.2,134.3 234.4,134.5 235.6,133.7 236.7,132.5 237.9,131.7 239.1,130.8 240.3,130.1 241.5,129.9 242.7,129.5 243.9,129.1 245.1,128.9 246.2,128.0 247.4,127.6 248.6,126.1 249.8,126.4 251.0,125.8 252.2,126.1 253.4,126.0 254.5,125.3 255.7,125.6 256.9,125.1 258.1,125.3 259.3,125.7 260.5,125.4 261.7,124.9 262.9,125.2 264.0,125.3 265.2,125.5 266.4,125.3 267.6,124.3 268.8,123.5 270.0,123.5 271.2,122.7 272.3,121.5 273.5,120.3 274.7,118.9 275.9,117.9 277.1,116.8 278.3,116.5 279.5,115.7 280.7,115.3 281.8,115.0 283.0,114.6 284.2,114.9 285.4,114.9 286.6,115.3 287.8,115.7 289.0,116.3 290.1,116.6 291.3,117.3 292.5,117.3 293.7,116.9 294.9,116.7 296.1,115.9 297.3,114.7 298.5,114.1 299.6,113.6 300.8,112.2 302.0,111.0 303.2,110.1 304.4,108.3 305.6,107.3 306.8,106.1 307.9,105.0 309.1,103.6 310.3,104.1 311.5,103.7 312.7,104.5 313.9,104.6 315.1,104.7 316.3,105.7 317.4,106.1 318.6,106.6 319.8,106.6 321.0,106.3 322.2,105.6 323.4,105.9 324.6,106.2 325.7,105.0 326.9,105.1 328.1,104.3 329.3,102.7 330.5,101.8 331.7,100.3 332.9,99.2 334.1,97.5 335.2,95.9 336.4,93.5 337.6,91.5 338.8,90.0 340.0,88.3 341.2,86.7 342.4,85.1 343.5,84.1 344.7,82.8 345.9,81.0 347.1,79.2 348.3,77.9 349.5,75.7 350.7,72.6 351.9,70.1 353.0,67.7 354.2,64.8 355.4,61.9 356.6,59.7 357.8,55.7 359.0,54.0 360.2,54.0 361.3,54.0 362.5,54.0 363.7,54.0 364.9,54.0 366.1,54.0 367.3,54.0 368.5,54.0 369.7,54.0 370.8,54.0 372.0,54.0 373.2,54.0 374.4,54.0 375.6,54.0 376.8,54.0 378.0,54.0 379.1,54.0 380.3,54.0 381.5,54.0 382.7,54.0 383.9,54.0 385.1,54.0 386.3,54.0 387.5,54.0 388.6,54.0 389.8,54.0 391.0,54.0 392.2,54.0 393.4,54.0 394.6,54.0 395.8,54.0 396.9,54.0 398.1,54.0 399.3,54.0 400.5,54.0 401.7,54.0 402.9,54.0 404.1,54.0 405.3,54.0 406.4,54.0 407.6,54.0 408.8,54.0 410.0,54.0 411.2,54.0 412.4,54.0 413.6,54.0 414.7,54.0 415.9,54.0 417.1,54.0 418.3,54.0 419.5,54.0 420.7,54.0 421.9,54.0 423.1,54.0 424.2,54.0 425.4,54.0 426.6,54.0 427.8,54.0 429.0,54.0 430.2,54.0 431.4,54.0 432.5,54.0 433.7,54.0 434.9,54.0 436.1,54.0 437.3,54.0 438.5,54.0 439.7,54.0 440.9,54.0 442.0,54.0 443.2,54.0 444.4,54.0 445.6,54.0 446.8,54.0 448.0,54.0 449.2,54.0 450.3,54.0 451.5,54.0 452.7,54.0 453.9,54.0 455.1,54.0 456.3,54.0 457.5,54.0 458.7,54.0 459.8,54.0 461.0,54.0 462.2,54.0 463.4,54.0 464.6,54.0 465.8,54.0 467.0,54.0 468.1,54.0 469.3,54.0 470.5,54.0 471.7,54.0 472.9,54.0 474.1,54.0 475.3,54.0 476.5,54.0 477.6,54.0 478.8,54.0 480.0,54.0 481.2,54.0 482.4,54.0 483.6,54.0 484.8,54.0 485.9,54.0 487.1,54.0 488.3,71.4 489.5,98.3 490.7,127.4 491.9,155.7 493.1,180.3 494.3,200.6 495.4,216.6 496.6,228.7 497.8,236.7 499.0,240.3 500.2,240.2 501.4,237.0 502.6,231.0 503.7,222.0 504.9,209.6 506.1,194.9 507.3,177.8 508.5,158.4 509.7,141.2 510.9,127.3 512.1,118.1 513.2,110.9 514.4,107.5 515.6,106.3 516.8,108.4 518.0,113.0 519.2,120.8 520.4,130.2 521.5,140.2 522.7,146.9 523.9,151.0 525.1,152.4 526.3,151.1 527.5,144.9 528.7,137.3 529.9,128.5 531.0,121.6 532.2,117.0 533.4,113.6 534.6,110.5 535.8,107.2 537.0,104.3 538.2,100.6 539.3,96.7 540.5,92.9 541.7,89.0 542.9,84.2 544.1,79.4 545.3,73.7 546.5,67.9 547.7,63.2 548.8,58.5 550.0,54.5 551.2,54.0 552.4,54.0 553.6,54.0 554.8,54.0 556.0,54.0 557.1,54.0 558.3,54.0 559.5,54.0 560.7,54.0 561.9,54.0 563.1,54.0 564.3,54.0 565.5,54.0 566.6,54.0 567.8,54.0 569.0,54.0 570.2,54.0 571.4,54.0 572.6,54.0 573.8,54.0 574.9,54.0 576.1,54.0 577.3,54.0 578.5,54.0 579.7,54.0 580.9,54.0 582.1,54.0 583.3,54.0 584.4,54.0 585.6,54.0 586.8,54.0 588.0,54.0 589.2,54.0 590.4,54.0 591.6,54.0 592.7,54.0 593.9,54.0 595.1,54.0 596.3,54.0 597.5,54.0 598.7,54.0 599.9,54.0 601.1,54.0 602.2,54.0 603.4,54.0 604.6,54.0 605.8,54.0 607.0,54.0 608.2,54.0 609.4,54.0 610.5,54.0 611.7,54.0 612.9,54.0 614.1,54.0 615.3,54.0 616.5,54.0 617.7,54.0 618.9,54.0 620.0,54.0 621.2,54.0 622.4,54.0 623.6,54.0 624.8,54.0 626.0,54.0 627.2,54.0 628.3,54.0 629.5,54.0 630.7,54.0 631.9,54.0 633.1,54.0 634.3,54.0 635.5,54.0 636.7,54.0 637.8,54.0 639.0,54.0 640.2,54.0 641.4,54.0 642.6,54.0 643.8,54.0 645.0,54.0 646.1,54.0 647.3,54.0 648.5,54.0 649.7,54.0 650.9,54.0 652.1,54.0 653.3,54.0 654.5,54.0 655.6,54.0 656.8,54.0 658.0,54.0 659.2,55.0 660.4,59.1 661.6,61.7 662.8,64.5 663.9,67.5 665.1,70.8 666.3,73.2 667.5,77.0 668.7,80.0 669.9,85.3 671.1,91.6 672.3,98.8 673.4,109.7 674.6,120.3 675.8,132.1 677.0,143.0 678.2,149.8 679.4,153.9 680.6,153.0 681.7,150.8 682.9,146.0 684.1,140.7 685.3,134.4 686.5,128.5 687.7,123.1 688.9,118.6 690.1,113.7 691.2,109.1 692.4,102.5 693.6,97.5 694.8,90.7 696.0,84.8 697.2,77.9 698.4,70.6 699.5,64.1 700.7,58.0 701.9,54.0 703.1,54.0 704.3,54.0 705.5,54.0 706.7,54.0 707.9,54.0 709.0,54.0 710.2,54.0 711.4,54.0 712.6,54.0 713.8,54.0 715.0,54.0 716.2,54.0 717.3,54.0 718.5,54.0 719.7,54.0 720.9,54.0 722.1,54.0 723.3,54.0 724.5,54.0 725.7,54.0 726.8,54.0 728.0,54.0 729.2,54.0 730.4,54.0 731.6,54.0 732.8,54.0 734.0,54.0 735.1,54.0 736.3,54.0 737.5,54.0 738.7,54.0 739.9,54.0 741.1,54.0 742.3,54.0 743.5,54.0 744.6,54.0 745.8,54.0 747.0,54.0 748.2,54.0 749.4,54.0 750.6,54.0 751.8,54.0 752.9,54.0 754.1,54.0 755.3,54.0 756.5,54.0 757.7,54.0 758.9,54.0 760.1,54.0 761.3,54.0 762.4,54.0 763.6,54.0 764.8,54.0 766.0,54.0"/>
<line x1="606" y1="42" x2="628" y2="42" stroke="#0f62fe" stroke-width="2.2"/>
<text x="634" y="46" font-family="Arial" font-size="12">alpha_deg</text>
<polyline fill="none" stroke="#24a148" stroke-width="2.2" points="54.0,189.6 55.2,189.1 56.4,188.4 57.6,186.5 58.7,185.7 59.9,184.7 61.1,183.7 62.3,181.9 63.5,180.0 64.7,179.6 65.9,178.2 67.1,177.2 68.2,176.8 69.4,175.5 70.6,173.8 71.8,173.0 73.0,173.1 74.2,172.5 75.4,170.1 76.5,168.6 77.7,167.3 78.9,164.9 80.1,163.7 81.3,161.3 82.5,159.6 83.7,157.9 84.9,155.9 86.0,154.5 87.2,153.0 88.4,150.8 89.6,148.2 90.8,145.9 92.0,144.5 93.2,142.0 94.3,140.0 95.5,138.4 96.7,136.9 97.9,135.5 99.1,133.6 100.3,133.1 101.5,131.9 102.7,131.2 103.8,129.0 105.0,128.0 106.2,126.1 107.4,125.3 108.6,123.1 109.8,122.7 111.0,120.8 112.1,118.7 113.3,117.1 114.5,115.6 115.7,114.6 116.9,114.1 118.1,112.5 119.3,112.3 120.5,112.0 121.6,111.9 122.8,111.6 124.0,111.8 125.2,111.9 126.4,112.1 127.6,113.9 128.8,115.6 129.9,116.5 131.1,116.8 132.3,117.1 133.5,117.4 134.7,118.3 135.9,119.1 137.1,119.6 138.3,120.1 139.4,120.9 140.6,121.8 141.8,120.9 143.0,120.4 144.2,120.1 145.4,119.9 146.6,119.3 147.7,118.0 148.9,117.7 150.1,117.5 151.3,117.1 152.5,116.7 153.7,116.1 154.9,115.4 156.1,114.5 157.2,113.8 158.4,113.4 159.6,113.8 160.8,113.8 162.0,114.4 163.2,114.8 164.4,115.0 165.5,115.2 166.7,115.7 167.9,116.5 169.1,117.0 170.3,118.5 171.5,118.7 172.7,119.2 173.9,119.6 175.0,119.7 176.2,119.9 177.4,119.1 178.6,118.5 179.8,117.5 181.0,116.9 182.2,116.2 183.3,114.9 184.5,113.2 185.7,112.4 186.9,111.9 188.1,111.6 189.3,112.3 190.5,112.8 191.7,113.7 192.8,115.2 194.0,116.3 195.2,116.6 196.4,117.4 197.6,118.0 198.8,119.2 200.0,119.8 201.1,119.7 202.3,119.5 203.5,119.4 204.7,119.3 205.9,118.9 207.1,118.1 208.3,117.6 209.5,116.5 210.6,115.5 211.8,114.3 213.0,113.9 214.2,113.4 215.4,113.1 216.6,113.2 217.8,112.8 218.9,112.9 220.1,113.2 221.3,114.5 222.5,115.2 223.7,116.4 224.9,117.4 226.1,118.5 227.3,119.7 228.4,119.5 229.6,119.6 230.8,119.9 232.0,119.5 233.2,119.5 234.4,119.8 235.6,119.8 236.7,118.6 237.9,117.7 239.1,117.1 240.3,116.5 241.5,116.1 242.7,115.8 243.9,115.4 245.1,115.4 246.2,115.4 247.4,115.5 248.6,115.0 249.8,115.0 251.0,114.8 252.2,115.5 253.4,116.0 254.5,116.0 255.7,115.7 256.9,116.2 258.1,116.5 259.3,117.6 260.5,117.5 261.7,117.5 262.9,118.0 264.0,118.6 265.2,118.8 266.4,119.1 267.6,118.7 268.8,118.5 270.0,118.4 271.2,118.4 272.3,117.7 273.5,117.0 274.7,116.2 275.9,115.3 277.1,114.8 278.3,114.0 279.5,113.9 280.7,113.6 281.8,114.0 283.0,114.5 284.2,114.6 285.4,115.4 286.6,116.1 287.8,116.5 289.0,117.3 290.1,118.4 291.3,119.2 292.5,119.8 293.7,120.5 294.9,120.2 296.1,120.1 297.3,119.6 298.5,119.3 299.6,118.9 300.8,118.0 302.0,117.3 303.2,116.5 304.4,116.1 305.6,115.6 306.8,115.2 307.9,114.3 309.1,114.0 310.3,114.3 311.5,114.4 312.7,114.7 313.9,115.2 315.1,115.3 316.3,115.8 317.4,116.4 318.6,117.0 319.8,117.6 321.0,117.9 322.2,118.3 323.4,118.8 324.6,118.9 325.7,118.8 326.9,118.8 328.1,118.8 329.3,118.3 330.5,118.0 331.7,117.2 332.9,116.6 334.1,116.4 335.2,116.2 336.4,115.9 337.6,115.6 338.8,115.6 340.0,115.9 341.2,116.0 342.4,116.5 343.5,116.6 344.7,116.8 345.9,116.5 347.1,116.4 348.3,117.4 349.5,117.7 350.7,117.5 351.9,117.7 353.0,118.3 354.2,118.1 355.4,118.4 356.6,118.5 357.8,118.4 359.0,118.5 360.2,118.6 361.3,118.7 362.5,118.8 363.7,118.9 364.9,118.9 366.1,119.1 367.3,119.4 368.5,119.2 369.7,119.4 370.8,119.9 372.0,120.2 373.2,120.2 374.4,120.6 375.6,121.5 376.8,122.2 378.0,122.7 379.1,123.7 380.3,124.2 381.5,125.3 382.7,125.9 383.9,126.7 385.1,127.4 386.3,127.9 387.5,128.7 388.6,129.6 389.8,130.5 391.0,131.9 392.2,133.2 393.4,134.1 394.6,135.3 395.8,136.3 396.9,137.3 398.1,138.7 399.3,139.7 400.5,141.3 401.7,143.0 402.9,144.8 404.1,146.4 405.3,147.6 406.4,149.6 407.6,151.5 408.8,154.1 410.0,156.4 411.2,158.6 412.4,161.4 413.6,163.5 414.7,166.1 415.9,168.4 417.1,170.3 418.3,171.6 419.5,172.9 420.7,174.2 421.9,175.8 423.1,177.8 424.2,179.3 425.4,181.4 426.6,183.5 427.8,185.9 429.0,188.4 430.2,191.1 431.4,193.1 432.5,195.8 433.7,198.3 434.9,200.4 436.1,203.2 437.3,205.5 438.5,208.2 439.7,210.9 440.9,213.9 442.0,216.8 443.2,219.7 444.4,222.9 445.6,225.6 446.8,228.2 448.0,230.7 449.2,232.8 450.3,235.1 451.5,237.5 452.7,239.8 453.9,241.8 455.1,244.2 456.3,246.6 457.5,249.1 458.7,251.3 459.8,253.6 461.0,255.5 462.2,256.8 463.4,258.3 464.6,260.5 465.8,262.2 467.0,264.1 468.1,263.8 469.3,262.6 470.5,260.7 471.7,258.2 472.9,255.3 474.1,251.2 475.3,246.0 476.5,239.3 477.6,231.4 478.8,222.7 480.0,213.6 481.2,202.4 482.4,188.9 483.6,174.9 484.8,159.9 485.9,144.8 487.1,130.0 488.3,116.8 489.5,106.3 490.7,98.9 491.9,95.7 493.1,97.5 494.3,102.9 495.4,111.4 496.6,121.7 497.8,134.3 499.0,147.0 500.2,160.3 501.4,171.7 502.6,182.0 503.7,191.0 504.9,197.6 506.1,204.0 507.3,207.2 508.5,207.8 509.7,207.0 510.9,204.8 512.1,201.3 513.2,195.7 514.4,188.9 515.6,180.5 516.8,171.8 518.0,162.6 519.2,152.7 520.4,143.9 521.5,136.9 522.7,131.9 523.9,128.6 525.1,128.3 526.3,129.0 527.5,130.4 528.7,131.8 529.9,132.6 531.0,133.3 532.2,134.1 533.4,134.3 534.6,133.7 535.8,132.4 537.0,131.1 538.2,129.3 539.3,127.1 540.5,124.9 541.7,123.9 542.9,122.6 544.1,121.6 545.3,121.1 546.5,120.5 547.7,119.8 548.8,118.8 550.0,116.8 551.2,115.0 552.4,112.2 553.6,108.8 554.8,104.8 556.0,102.5 557.1,99.5 558.3,98.9 559.5,97.2 560.7,97.3 561.9,98.1 563.1,99.3 564.3,101.9 565.5,105.2 566.6,107.8 567.8,110.4 569.0,113.0 570.2,114.0 571.4,116.5 572.6,118.9 573.8,121.6 574.9,123.1 576.1,125.6 577.3,128.2 578.5,131.7 579.7,135.3 580.9,140.0 582.1,145.0 583.3,151.2 584.4,156.3 585.6,161.3 586.8,166.9 588.0,171.7 589.2,175.8 590.4,178.9 591.6,180.1 592.7,182.4 593.9,184.1 595.1,185.6 596.3,187.9 597.5,190.0 598.7,191.6 599.9,194.6 601.1,196.0 602.2,197.8 603.4,199.8 604.6,200.9 605.8,203.0 607.0,205.1 608.2,207.2 609.4,208.6 610.5,209.8 611.7,211.5 612.9,212.8 614.1,214.4 615.3,215.0 616.5,216.5 617.7,218.3 618.9,221.1 620.0,222.8 621.2,224.0 622.4,225.4 623.6,228.3 624.8,230.3 626.0,232.4 627.2,234.7 628.3,237.5 629.5,239.6 630.7,242.9 631.9,246.9 633.1,250.7 634.3,255.1 635.5,260.5 636.7,266.0 637.8,266.0 639.0,266.0 640.2,266.0 641.4,266.0 642.6,266.0 643.8,266.0 645.0,266.0 646.1,266.0 647.3,266.0 648.5,266.0 649.7,266.0 650.9,266.0 652.1,266.0 653.3,266.0 654.5,266.0 655.6,266.0 656.8,266.0 658.0,266.0 659.2,266.0 660.4,263.4 661.6,236.9 662.8,210.2 663.9,182.8 665.1,154.8 666.3,129.8 667.5,105.5 668.7,82.0 669.9,70.3 671.1,70.3 672.3,70.3 673.4,70.3 674.6,70.3 675.8,70.3 677.0,70.3 678.2,70.3 679.4,70.3 680.6,70.3 681.7,70.3 682.9,70.3 684.1,70.3 685.3,70.3 686.5,73.3 687.7,88.2 688.9,103.9 690.1,120.5 691.2,135.6 692.4,152.8 693.6,169.7 694.8,183.7 696.0,196.2 697.2,208.3 698.4,218.0 699.5,226.0 700.7,232.3 701.9,235.7 703.1,237.6 704.3,238.0 705.5,237.4 706.7,234.6 707.9,231.5 709.0,225.6 710.2,218.5 711.4,211.0 712.6,202.3 713.8,192.3 715.0,182.6 716.2,173.2 717.3,163.1 718.5,153.9 719.7,145.6 720.9,137.2 722.1,130.8 723.3,124.6 724.5,120.7 725.7,118.1 726.8,116.8 728.0,116.2 729.2,117.2 730.4,118.5 731.6,121.6 732.8,125.1 734.0,128.8 735.1,131.3 736.3,135.2 737.5,137.5 738.7,138.4 739.9,140.3 741.1,140.9 742.3,140.5 743.5,139.9 744.6,139.7 745.8,137.5 747.0,135.0 748.2,134.1 749.4,132.9 750.6,131.3 751.8,129.2 752.9,127.6 754.1,125.0 755.3,122.9 756.5,120.9 757.7,118.0 758.9,114.8 760.1,112.8 761.3,110.2 762.4,108.0 763.6,104.5 764.8,101.6 766.0,97.8"/>
<line x1="606" y1="60" x2="628" y2="60" stroke="#24a148" stroke-width="2.2"/>
<text x="634" y="64" font-family="Arial" font-size="12">beta_deg</text>
</svg>