<svg xmlns="http://www.w3.org/2000/svg" width="820" height="320" viewBox="0 0 820 320">
<rect width="100%" height="100%" fill="#ffffff"/>
<text x="54" y="28" font-family="Arial" font-size="18" font-weight="700">Barometer vs Truth</text>
<line x1="54" y1="266" x2="766" y2="266" stroke="#1f2933"/>
<line x1="54" y1="54" x2="54" y2="266" stroke="#1f2933"/>
<text x="54" y="306" font-family="Arial" font-size="12">time (s)</text>
<text x="596" y="306" font-family="Arial" font-size="12">altitude (m)</text>
<text x="58" y="68" font-family="Arial" font-size="11">989</text>
<text x="58" y="260" font-family="Arial" font-size="11">435</text>
<polyline fill="none" stroke="#0f62fe" stroke-width="2.2" points="54.0,88.1 55.2,88.0 56.4,87.9 57.6,87.8 58.7,87.7 59.9,87.6 61.1,87.5 62.3,87.4 63.5,87.3 64.7,87.2 65.9,87.1 67.1,87.0 68.2,86.9 69.4,86.8 70.6,86.7 71.8,86.6 73.0,86.6 74.2,86.5 75.4,86.4 76.5,86.3 77.7,86.2 78.9,86.1 80.1,86.1 81.3,86.0 82.5,85.9 83.7,85.8 84.9,85.7 86.0,85.7 87.2,85.6 88.4,85.5 89.6,85.4 90.8,85.4 92.0,85.3 93.2,85.2 94.3,85.1 95.5,85.1 96.7,85.0 97.9,84.9 99.1,84.8 100.3,84.8 101.5,84.7 102.7,84.6 103.8,84.5 105.0,84.5 106.2,84.4 107.4,84.3 108.6,84.3 109.8,84.2 111.0,84.1 112.1,84.0 113.3,84.0 114.5,83.9 115.7,83.8 116.9,83.8 118.1,83.7 119.3,83.6 120.5,83.5 121.6,83.5 122.8,83.4 124.0,83.3 125.2,83.3 126.4,83.2 127.6,83.1 128.8,83.0 129.9,83.0 131.1,82.9 132.3,82.8 133.5,82.7 134.7,82.7 135.9,82.6 137.1,82.5 138.3,82.4 139.4,82.4 140.6,82.3 141.8,82.2 143.0,82.1 144.2,82.1 145.4,82.0 146.6,81.9 147.7,81.8 148.9,81.7 150.1,81.7 151.3,81.6 152.5,81.5 153.7,81.4 154.9,81.3 156.1,81.2 157.2,81.2 158.4,81.1 159.6,81.0 160.8,80.9 162.0,80.8 163.2,80.7 164.4,80.6 165.5,80.5 166.7,80.4 167.9,80.4 169.1,80.3 170.3,80.2 171.5,80.1 172.7,80.0 173.9,79.9 175.0,79.8 176.2,79.7 177.4,79.6 178.6,79.5 179.8,79.4 181.0,79.3 182.2,79.2 183.3,79.0 184.5,78.9 185.7,78.8 186.9,78.7 188.1,78.6 189.3,78.5 190.5,78.4 191.7,78.3 192.8,78.1 194.0,78.0 195.2,77.9 196.4,77.8 197.6,77.7 198.8,77.5 200.0,77.4 201.1,77.3 202.3,77.1 203.5,77.0 204.7,76.9 205.9,76.7 207.1,76.6 208.3,76.5 209.5,76.3 210.6,76.2 211.8,76.1 213.0,75.9 214.2,75.8 215.4,75.6 216.6,75.5 217.8,75.3 218.9,75.2 220.1,75.0 221.3,74.9 222.5,74.7 223.7,74.6 224.9,74.4 226.1,74.3 227.3,74.1 228.4,73.9 229.6,73.8 230.8,73.6 232.0,73.4 233.2,73.3 234.4,73.1 235.6,72.9 236.7,72.8 237.9,72.6 239.1,72.4 240.3,72.2 241.5,72.1 242.7,71.9 243.9,71.7 245.1,71.5 246.2,71.3 247.4,71.2 248.6,71.0 249.8,70.8 251.0,70.6 252.2,70.4 253.4,70.2 254.5,70.1 255.7,69.9 256.9,69.7 258.1,69.5 259.3,69.3 260.5,69.1 261.7,68.9 262.9,68.7 264.0,68.5 265.2,68.3 266.4,68.1 267.6,67.9 268.8,67.8 270.0,67.6 271.2,67.4 272.3,67.2 273.5,67.0 274.7,66.8 275.9,66.6 277.1,66.4 278.3,66.2 279.5,66.0 280.7,65.8 281.8,65.6 283.0,65.4 284.2,65.2 285.4,65.0 286.6,64.8 287.8,64.6 289.0,64.4 290.1,64.2 291.3,64.0 292.5,63.8 293.7,63.6 294.9,63.4 296.1,63.2 297.3,63.0 298.5,62.8 299.6,62.6 300.8,62.5 302.0,62.3 303.2,62.1 304.4,61.9 305.6,61.7 306.8,61.5 307.9,61.3 309.1,61.1 310.3,61.0 311.5,60.8 312.7,60.6 313.9,60.4 315.1,60.2 316.3,60.1 317.4,59.9 318.6,59.7 319.8,59.6 321.0,59.4 322.2,59.2 323.4,59.1 324.6,58.9 325.7,58.8 326.9,58.6 328.1,58.5 329.3,58.3 330.5,58.2 331.7,58.0 332.9,57.9 334.1,57.7 335.2,57.6 336.4,57.5 337.6,57.3 338.8,57.2 340.0,57.1 341.2,57.0 342.4,56.9 343.5,56.8 344.7,56.7 345.9,56.6 347.1,56.5 348.3,56.4 349.5,56.3 350.7,56.2 351.9,56.1 353.0,56.0 354.2,56.0 355.4,55.9 356.6,55.8 357.8,55.8 359.0,55.7 360.2,55.7 361.3,55.6 362.5,55.6 363.7,55.6 364.9,55.5 366.1,55.5 367.3,55.5 368.5,55.5 369.7,55.5 370.8,55.5 372.0,55.5 373.2,55.5 374.4,55.5 375.6,55.5 376.8,55.5 378.0,55.6 379.1,55.6 380.3,55.6 381.5,55.7 382.7,55.7 383.9,55.8 385.1,55.9 386.3,55.9 387.5,56.0 388.6,56.1 389.8,56.1 391.0,56.2 392.2,56.3 393.4,56.4 394.6,56.5 395.8,56.6 396.9,56.7 398.1,56.8 399.3,57.0 400.5,57.1 401.7,57.2 402.9,57.3 404.1,57.5 405.3,57.6 406.4,57.8 407.6,57.9 408.8,58.1 410.0,58.3 411.2,58.4 412.4,58.6 413.6,58.8 414.7,59.0 415.9,59.1 417.1,59.3 418.3,59.5 419.5,59.7 420.7,59.9 421.9,60.2 423.1,60.4 424.2,60.6 425.4,60.8 426.6,61.0 427.8,61.3 429.0,61.5 430.2,61.8 431.4,62.0 432.5,62.2 433.7,62.5 434.9,62.7 436.1,63.0 437.3,63.3 438.5,63.5 439.7,63.8 440.9,64.1 442.0,64.3 443.2,64.6 444.4,64.9 445.6,65.1 446.8,65.4 448.0,65.7 449.2,66.0 450.3,66.3 451.5,66.6 452.7,66.9 453.9,67.2 455.1,67.5 456.3,67.8 457.5,68.1 458.7,68.4 459.8,68.7 461.0,69.0 462.2,69.4 463.4,69.7 464.6,70.1 465.8,70.4 467.0,70.8 468.1,71.1 469.3,71.5 470.5,71.9 471.7,72.3 472.9,72.7 474.1,73.1 475.3,73.6 476.5,74.0 477.6,74.4 478.8,74.9 480.0,75.4 481.2,75.8 482.4,76.3 483.6,76.8 484.8,77.3 485.9,77.8 487.1,78.3 488.3,78.8 489.5,79.4 490.7,79.9 491.9,80.4 493.1,80.9 494.3,81.5 495.4,82.0 496.6,82.5 497.8,83.1 499.0,83.6 500.2,84.1 501.4,84.7 502.6,85.2 503.7,85.7 504.9,86.3 506.1,86.8 507.3,87.3 508.5,87.9 509.7,88.5 510.9,89.0 512.1,89.6 513.2,90.2 514.4,90.8 515.6,91.4 516.8,92.0 518.0,92.7 519.2,93.3 520.4,93.9 521.5,94.6 522.7,95.2 523.9,95.9 525.1,96.5 526.3,97.2 527.5,97.8 528.7,98.5 529.9,99.2 531.0,99.9 532.2,100.6 533.4,101.3 534.6,102.0 535.8,102.7 537.0,103.4 538.2,104.2 539.3,104.9 540.5,105.7 541.7,106.5 542.9,107.2 544.1,108.0 545.3,108.8 546.5,109.6 547.7,110.5 548.8,111.3 550.0,112.1 551.2,113.0 552.4,113.8 553.6,114.6 554.8,115.5 556.0,116.4 557.1,117.2 558.3,118.1 559.5,119.0 560.7,119.9 561.9,120.8 563.1,121.7 564.3,122.6 565.5,123.6 566.6,124.5 567.8,125.4 569.0,126.4 570.2,127.3 571.4,128.3 572.6,129.2 573.8,130.1 574.9,131.1 576.1,132.0 577.3,133.0 578.5,133.9 579.7,134.9 580.9,135.8 582.1,136.7 583.3,137.7 584.4,138.6 585.6,139.6 586.8,140.5 588.0,141.4 589.2,142.4 590.4,143.3 591.6,144.2 592.7,145.2 593.9,146.1 595.1,147.0 596.3,147.9 597.5,148.9 598.7,149.8 599.9,150.7 601.1,151.6 602.2,152.5 603.4,153.4 604.6,154.3 605.8,155.3 607.0,156.2 608.2,157.1 609.4,158.0 610.5,158.9 611.7,159.8 612.9,160.7 614.1,161.5 615.3,162.4 616.5,163.3 617.7,164.2 618.9,165.1 620.0,166.0 621.2,166.9 622.4,167.7 623.6,168.6 624.8,169.5 626.0,170.4 627.2,171.2 628.3,172.1 629.5,173.0 630.7,173.8 631.9,174.7 633.1,175.5 634.3,176.4 635.5,177.2 636.7,178.1 637.8,178.9 639.0,179.8 640.2,180.6 641.4,181.5 642.6,182.3 643.8,183.2 645.0,184.0 646.1,184.8 647.3,185.7 648.5,186.5 649.7,187.3 650.9,188.1 652.1,189.0 653.3,189.8 654.5,190.6 655.6,191.4 656.8,192.2 658.0,193.1 659.2,193.9 660.4,194.7 661.6,195.5 662.8,196.3 663.9,197.1 665.1,197.9 666.3,198.7 667.5,199.6 668.7,200.4 669.9,201.2 671.1,202.0 672.3,202.8 673.4,203.6 674.6,204.3 675.8,205.1 677.0,205.9 678.2,206.7 679.4,207.5 680.6,208.3 681.7,209.1 682.9,209.9 684.1,210.7 685.3,211.5 686.5,212.3 687.7,213.0 688.9,213.8 690.1,214.6 691.2,215.4 692.4,216.2 693.6,217.0 694.8,217.8 696.0,218.6 697.2,219.4 698.4,220.2 699.5,221.0 700.7,221.8 701.9,222.6 703.1,223.4 704.3,224.2 705.5,225.0 706.7,225.8 707.9,226.6 709.0,227.4 710.2,228.2 711.4,229.0 712.6,229.8 713.8,230.6 715.0,231.4 716.2,232.2 717.3,233.0 718.5,233.8 719.7,234.6 720.9,235.4 722.1,236.2 723.3,237.0 724.5,237.8 725.7,238.6 726.8,239.4 728.0,240.2 729.2,240.9 730.4,241.7 731.6,242.5 732.8,243.3 734.0,244.1 735.1,244.9 736.3,245.7 737.5,246.5 738.7,247.3 739.9,248.0 741.1,248.8 742.3,249.6 743.5,250.4 744.6,251.2 745.8,252.0 747.0,252.8 748.2,253.6 749.4,254.4 750.6,255.2 751.8,255.9 752.9,256.7 754.1,257.5 755.3,258.3 756.5,259.1 757.7,259.9 758.9,260.7 760.1,261.5 761.3,262.2 762.4,263.0 763.6,263.8 764.8,264.6 766.0,265.4"/>
<line x1="606" y1="42" x2="628" y2="42" stroke="#0f62fe" stroke-width="2.2"/>
<text x="634" y="46" font-family="Arial" font-size="12">altitude_m</text>
<polyline fill="none" stroke="#24a148" stroke-width="2.2" points="54.0,88.8 55.2,88.8 56.4,87.3 57.6,87.3 58.7,87.9 59.9,87.9 61.1,87.2 62.3,87.2 63.5,86.9 64.7,86.9 65.9,87.4 67.1,87.4 68.2,87.8 69.4,87.8 70.6,85.9 71.8,85.9 73.0,87.0 74.2,87.0 75.4,88.0 76.5,88.0 77.7,86.0 78.9,86.0 80.1,86.6 81.3,86.6 82.5,85.8 83.7,85.8 84.9,86.2 86.0,86.2 87.2,84.9 88.4,84.9 89.6,84.5 90.8,84.5 92.0,84.1 93.2,84.1 94.3,84.2 95.5,84.2 96.7,85.3 97.9,85.3 99.1,84.5 100.3,84.5 101.5,84.8 102.7,84.8 103.8,81.9 105.0,81.9 106.2,82.8 107.4,82.8 108.6,83.7 109.8,83.7 111.0,84.4 112.1,84.4 113.3,82.3 114.5,82.3 115.7,84.1 116.9,84.1 118.1,84.9 119.3,84.9 120.5,84.3 121.6,84.3 122.8,82.4 124.0,82.4 125.2,83.6 126.4,83.6 127.6,84.0 128.8,84.0 129.9,85.6 131.1,85.6 132.3,83.2 133.5,83.2 134.7,82.8 135.9,82.8 137.1,82.0 138.3,82.0 139.4,82.9 140.6,82.9 141.8,82.6 143.0,82.6 144.2,82.2 145.4,82.2 146.6,81.4 147.7,81.4 148.9,82.1 150.1,82.1 151.3,80.6 152.5,80.6 153.7,80.6 154.9,80.6 156.1,81.1 157.2,81.1 158.4,80.6 159.6,80.6 160.8,80.1 162.0,80.1 163.2,81.2 164.4,81.2 165.5,80.5 166.7,80.5 167.9,81.0 169.1,81.0 170.3,77.7 171.5,77.7 172.7,79.4 173.9,79.4 175.0,78.7 176.2,78.7 177.4,79.8 178.6,79.8 179.8,80.8 181.0,80.8 182.2,79.0 183.3,79.0 184.5,79.5 185.7,79.5 186.9,80.3 188.1,80.3 189.3,77.4 190.5,77.4 191.7,78.5 192.8,78.5 194.0,78.2 195.2,78.2 196.4,78.3 197.6,78.3 198.8,77.0 200.0,77.0 201.1,77.7 202.3,77.7 203.5,76.7 204.7,76.7 205.9,75.7 207.1,75.7 208.3,76.2 209.5,76.2 210.6,76.4 211.8,76.4 213.0,76.7 214.2,76.7 215.4,76.3 216.6,76.3 217.8,74.6 218.9,74.6 220.1,74.2 221.3,74.2 222.5,74.5 223.7,74.5 224.9,74.0 226.1,74.0 227.3,74.7 228.4,74.7 229.6,73.3 230.8,73.3 232.0,72.5 233.2,72.5 234.4,72.4 235.6,72.4 236.7,71.4 237.9,71.4 239.1,71.4 240.3,71.4 241.5,70.9 242.7,70.9 243.9,72.1 245.1,72.1 246.2,71.5 247.4,71.5 248.6,70.2 249.8,70.2 251.0,70.5 252.2,70.5 253.4,70.4 254.5,70.4 255.7,69.0 256.9,69.0 258.1,69.1 259.3,69.1 260.5,67.3 261.7,67.3 262.9,67.7 264.0,67.7 265.2,67.0 266.4,67.0 267.6,69.0 268.8,69.0 270.0,67.5 271.2,67.5 272.3,66.1 273.5,66.1 274.7,66.1 275.9,66.1 277.1,65.3 278.3,65.3 279.5,66.1 280.7,66.1 281.8,65.3 283.0,65.3 284.2,64.4 285.4,64.4 286.6,64.6 287.8,64.6 289.0,64.4 290.1,64.4 291.3,63.6 292.5,63.6 293.7,63.2 294.9,63.2 296.1,63.1 297.3,63.1 298.5,62.2 299.6,62.2 300.8,62.8 302.0,62.8 303.2,62.1 304.4,62.1 305.6,61.6 306.8,61.6 307.9,60.1 309.1,60.1 310.3,60.4 311.5,60.4 312.7,60.2 313.9,60.2 315.1,60.3 316.3,60.3 317.4,58.7 318.6,58.7 319.8,59.8 321.0,59.8 322.2,58.5 323.4,58.5 324.6,59.6 325.7,59.6 326.9,59.5 328.1,59.5 329.3,58.3 330.5,58.3 331.7,59.1 332.9,59.1 334.1,56.9 335.2,56.9 336.4,58.0 337.6,58.0 338.8,56.9 340.0,56.9 341.2,57.6 342.4,57.6 343.5,57.6 344.7,57.6 345.9,56.5 347.1,56.5 348.3,55.7 349.5,55.7 350.7,55.4 351.9,55.4 353.0,55.0 354.2,55.0 355.4,55.6 356.6,55.6 357.8,56.5 359.0,56.5 360.2,54.0 361.3,54.0 362.5,55.0 363.7,55.0 364.9,55.4 366.1,55.4 367.3,55.3 368.5,55.3 369.7,56.5 370.8,56.5 372.0,55.2 373.2,55.2 374.4,56.1 375.6,56.1 376.8,55.3 378.0,55.3 379.1,55.7 380.3,55.7 381.5,56.8 382.7,56.8 383.9,57.2 385.1,57.2 386.3,55.1 387.5,55.1 388.6,55.6 389.8,55.6 391.0,57.6 392.2,57.6 393.4,57.4 394.6,57.4 395.8,56.7 396.9,56.7 398.1,57.3 399.3,57.3 400.5,56.7 401.7,56.7 402.9,57.8 404.1,57.8 405.3,55.0 406.4,55.0 407.6,59.2 408.8,59.2 410.0,59.3 411.2,59.3 412.4,57.8 413.6,57.8 414.7,57.8 415.9,57.8 417.1,59.4 418.3,59.4 419.5,60.7 420.7,60.7 421.9,60.2 423.1,60.2 424.2,60.9 425.4,60.9 426.6,62.2 427.8,62.2 429.0,60.4 430.2,60.4 431.4,62.1 432.5,62.1 433.7,61.6 434.9,61.6 436.1,63.3 437.3,63.3 438.5,63.7 439.7,63.7 440.9,64.7 442.0,64.7 443.2,65.4 444.4,65.4 445.6,65.1 446.8,65.1 448.0,66.2 449.2,66.2 450.3,68.0 451.5,68.0 452.7,66.7 453.9,66.7 455.1,67.1 456.3,67.1 457.5,66.8 458.7,66.8 459.8,69.8 461.0,69.8 462.2,69.2 463.4,69.2 464.6,69.3 465.8,69.3 467.0,71.1 468.1,71.1 469.3,71.3 470.5,71.3 471.7,71.1 472.9,71.1 474.1,74.3 475.3,74.3 476.5,73.6 477.6,73.6 478.8,75.5 480.0,75.5 481.2,75.6 482.4,75.6 483.6,76.0 484.8,76.0 485.9,77.9 487.1,77.9 488.3,78.9 489.5,78.9 490.7,80.0 491.9,80.0 493.1,81.5 494.3,81.5 495.4,81.8 496.6,81.8 497.8,82.2 499.0,82.2 500.2,84.1 501.4,84.1 502.6,85.2 503.7,85.2 504.9,86.7 506.1,86.7 507.3,86.9 508.5,86.9 509.7,88.0 510.9,88.0 512.1,89.9 513.2,89.9 514.4,90.1 515.6,90.1 516.8,92.9 518.0,92.9 519.2,92.4 520.4,92.4 521.5,94.1 522.7,94.1 523.9,96.0 525.1,96.0 526.3,96.8 527.5,96.8 528.7,98.3 529.9,98.3 531.0,99.0 532.2,99.0 533.4,100.7 534.6,100.7 535.8,102.5 537.0,102.5 538.2,103.8 539.3,103.8 540.5,105.7 541.7,105.7 542.9,107.3 544.1,107.3 545.3,108.4 546.5,108.4 547.7,110.4 548.8,110.4 550.0,112.9 551.2,112.9 552.4,113.1 553.6,113.1 554.8,114.4 556.0,114.4 557.1,115.8 558.3,115.8 559.5,120.0 560.7,120.0 561.9,120.1 563.1,120.1 564.3,122.1 565.5,122.1 566.6,124.5 567.8,124.5 569.0,125.0 570.2,125.0 571.4,128.7 572.6,128.7 573.8,131.0 574.9,131.0 576.1,132.4 577.3,132.4 578.5,133.6 579.7,133.6 580.9,136.6 582.1,136.6 583.3,134.8 584.4,134.8 585.6,139.3 586.8,139.3 588.0,140.5 589.2,140.5 590.4,144.2 591.6,144.2 592.7,145.3 593.9,145.3 595.1,145.5 596.3,145.5 597.5,147.6 598.7,147.6 599.9,149.8 601.1,149.8 602.2,152.1 603.4,152.1 604.6,153.5 605.8,153.5 607.0,156.3 608.2,156.3 609.4,159.0 610.5,159.0 611.7,160.4 612.9,160.4 614.1,160.3 615.3,160.3 616.5,163.0 617.7,163.0 618.9,163.5 620.0,163.5 621.2,167.7 622.4,167.7 623.6,168.8 624.8,168.8 626.0,169.8 627.2,169.8 628.3,171.2 629.5,171.2 630.7,173.0 631.9,173.0 633.1,175.9 634.3,175.9 635.5,178.1 636.7,178.1 637.8,179.3 639.0,179.3 640.2,180.7 641.4,180.7 642.6,181.6 643.8,181.6 645.0,184.5 646.1,184.5 647.3,184.9 648.5,184.9 649.7,185.9 650.9,185.9 652.1,188.2 653.3,188.2 654.5,188.8 655.6,188.8 656.8,191.1 658.0,191.1 659.2,192.6 660.4,192.6 661.6,195.1 662.8,195.1 663.9,197.1 665.1,197.1 666.3,197.8 667.5,197.8 668.7,201.3 669.9,201.3 671.1,202.2 672.3,202.2 673.4,203.9 674.6,203.9 675.8,204.8 677.0,204.8 678.2,206.4 679.4,206.4 680.6,208.0 681.7,208.0 682.9,210.1 684.1,210.1 685.3,210.5 686.5,210.5 687.7,213.0 688.9,213.0 690.1,214.3 691.2,214.3 692.4,215.6 693.6,215.6 694.8,216.4 696.0,216.4 697.2,219.9 698.4,219.9 699.5,220.7 700.7,220.7 701.9,223.0 703.1,223.0 704.3,223.9 705.5,223.9 706.7,226.3 707.9,226.3 709.0,227.3 710.2,227.3 711.4,227.8 712.6,227.8 713.8,231.4 715.0,231.4 716.2,231.9 717.3,231.9 718.5,234.2 719.7,234.2 720.9,233.7 722.1,233.7 723.3,236.4 724.5,236.4 725.7,239.4 726.8,239.4 728.0,239.0 729.2,239.0 730.4,242.1 731.6,242.1 732.8,243.8 734.0,243.8 735.1,244.6 736.3,244.6 737.5,247.2 738.7,247.2 739.9,248.0 741.1,248.0 742.3,248.7 743.5,248.7 744.6,251.5 745.8,251.5 747.0,252.8 748.2,252.8 749.4,254.9 750.6,254.9 751.8,256.6 752.9,256.6 754.1,258.0 755.3,258.0 756.5,258.7 757.7,258.7 758.9,260.4 760.1,260.4 761.3,263.2 762.4,263.2 763.6,263.6 764.8,263.6 766.0,266.0"/>
<line x1="606" y1="60" x2="628" y2="60" stroke="#24a148" stroke-width="2.2"/>
<text x="634" y="64" font-family="Arial" font-size="12">baro_alt_m</text>
</svg>