<svg xmlns="http://www.w3.org/2000/svg" width="820" height="320" viewBox="0 0 820 320">
<rect width="100%" height="100%" fill="#ffffff"/>
<text x="54" y="28" font-family="Arial" font-size="18" font-weight="700">Pitch Command Tracking</text>
<line x1="54" y1="266" x2="766" y2="266" stroke="#1f2933"/>
<line x1="54" y1="54" x2="54" y2="266" stroke="#1f2933"/>
<text x="54" y="306" font-family="Arial" font-size="12">time (s)</text>
<text x="596" y="306" font-family="Arial" font-size="12">pitch (deg)</text>
<text x="58" y="68" font-family="Arial" font-size="11">21.5</text>
<text x="58" y="260" font-family="Arial" font-size="11">-84.2</text>
<polyline fill="none" stroke="#0f62fe" stroke-width="2.2" points="54.0,66.4 55.2,66.5 56.4,66.5 57.6,66.5 58.7,66.5 59.9,66.5 61.1,66.5 62.3,66.5 63.5,66.5 64.7,66.5 65.9,66.5 67.1,66.5 68.2,66.5 69.4,66.4 70.6,66.4 71.8,66.4 73.0,66.4 74.2,66.4 75.4,66.4 76.5,66.4 77.7,66.4 78.9,66.4 80.1,66.4 81.3,66.4 82.5,66.4 83.7,66.6 84.9,66.6 86.0,66.6 87.2,66.6 88.4,66.6 89.6,66.6 90.8,66.6 92.0,66.6 93.2,66.6 94.3,66.6 95.5,66.6 96.7,66.6 97.9,66.6 99.1,66.6 100.3,66.6 101.5,66.6 102.7,66.6 103.8,66.6 105.0,66.6 106.2,66.6 107.4,66.6 108.6,66.6 109.8,66.6 111.0,66.6 112.1,66.6 113.3,66.6 114.5,66.6 115.7,66.6 116.9,66.6 118.1,66.6 119.3,66.6 120.5,66.6 121.6,66.6 122.8,66.6 124.0,66.6 125.2,66.6 126.4,66.7 127.6,66.7 128.8,66.7 129.9,66.7 131.1,66.7 132.3,66.7 133.5,66.7 134.7,66.7 135.9,66.7 137.1,66.7 138.3,66.7 139.4,66.7 140.6,66.9 141.8,66.9 143.0,66.9 144.2,66.9 145.4,66.9 146.6,66.9 147.7,66.9 148.9,66.9 150.1,66.9 151.3,66.9 152.5,66.9 153.7,66.9 154.9,67.0 156.1,67.0 157.2,67.0 158.4,67.0 159.6,67.0 160.8,67.0 162.0,67.0 163.2,67.0 164.4,67.0 165.5,67.0 166.7,67.0 167.9,67.0 169.1,67.0 170.3,67.0 171.5,67.0 172.7,67.0 173.9,67.0 175.0,67.0 176.2,67.0 177.4,67.0 178.6,67.0 179.8,67.0 181.0,67.0 182.2,67.0 183.3,67.1 184.5,67.1 185.7,67.1 186.9,67.1 188.1,67.1 189.3,67.1 190.5,67.1 191.7,67.1 192.8,67.1 194.0,67.1 195.2,67.1 196.4,67.1 197.6,67.2 198.8,67.2 200.0,67.2 201.1,67.2 202.3,67.2 203.5,67.2 204.7,67.2 205.9,67.2 207.1,67.2 208.3,67.2 209.5,67.2 210.6,67.2 211.8,67.2 213.0,67.2 214.2,67.2 215.4,67.2 216.6,67.2 217.8,67.2 218.9,67.2 220.1,67.2 221.3,67.2 222.5,67.2 223.7,67.2 224.9,67.2 226.1,67.5 227.3,67.5 228.4,67.5 229.6,67.5 230.8,67.5 232.0,67.5 233.2,67.5 234.4,67.5 235.6,67.5 236.7,67.5 237.9,67.5 239.1,67.5 240.3,67.6 241.5,67.6 242.7,67.6 243.9,67.6 245.1,67.6 246.2,67.6 247.4,67.6 248.6,67.6 249.8,67.6 251.0,67.6 252.2,67.6 253.4,67.6 254.5,67.8 255.7,67.8 256.9,67.8 258.1,67.8 259.3,67.8 260.5,67.8 261.7,67.8 262.9,67.8 264.0,67.8 265.2,67.8 266.4,67.8 267.6,67.8 268.8,68.0 270.0,68.0 271.2,68.0 272.3,68.0 273.5,68.0 274.7,68.0 275.9,68.0 277.1,68.0 278.3,68.0 279.5,68.0 280.7,68.0 281.8,68.0 283.0,68.2 284.2,68.2 285.4,68.2 286.6,68.2 287.8,68.2 289.0,68.2 290.1,68.2 291.3,68.2 292.5,68.2 293.7,68.2 294.9,68.2 296.1,68.2 297.3,68.2 298.5,68.2 299.6,68.2 300.8,68.2 302.0,68.2 303.2,68.2 304.4,68.2 305.6,68.2 306.8,68.2 307.9,68.2 309.1,68.2 310.3,68.2 311.5,68.4 312.7,68.4 313.9,68.4 315.1,68.4 316.3,68.4 317.4,68.4 318.6,68.4 319.8,68.4 321.0,68.4 322.2,68.4 323.4,68.4 324.6,68.4 325.7,68.7 326.9,68.7 328.1,68.7 329.3,68.7 330.5,68.7 331.7,68.7 332.9,68.7 334.1,68.7 335.2,68.7 336.4,68.7 337.6,68.7 338.8,68.7 340.0,68.9 341.2,68.9 342.4,68.9 343.5,68.9 344.7,68.9 345.9,68.9 347.1,68.9 348.3,68.9 349.5,68.9 350.7,69.0 351.9,69.0 353.0,69.0 354.2,69.0 355.4,69.0 356.6,69.0 357.8,69.0 359.0,69.0 360.2,69.0 361.3,69.0 362.5,69.0 363.7,69.0 364.9,69.0 366.1,69.0 367.3,69.0 368.5,69.0 369.7,69.0 370.8,69.0 372.0,69.0 373.2,69.0 374.4,69.0 375.6,69.0 376.8,69.0 378.0,69.0 379.1,69.0 380.3,69.0 381.5,69.0 382.7,69.0 383.9,69.0 385.1,69.0 386.3,69.0 387.5,69.0 388.6,69.0 389.8,69.0 391.0,69.0 392.2,69.0 393.4,68.9 394.6,68.9 395.8,68.9 396.9,68.9 398.1,68.9 399.3,68.9 400.5,68.9 401.7,68.9 402.9,68.9 404.1,68.9 405.3,68.9 406.4,68.9 407.6,68.8 408.8,68.8 410.0,68.8 411.2,68.8 412.4,68.8 413.6,68.8 414.7,68.8 415.9,68.8 417.1,68.8 418.3,68.7 419.5,68.7 420.7,68.7 421.9,68.7 423.1,68.7 424.2,68.7 425.4,68.6 426.6,68.6 427.8,68.6 429.0,68.6 430.2,68.6 431.4,68.6 432.5,68.5 433.7,68.5 434.9,68.5 436.1,68.5 437.3,68.5 438.5,68.5 439.7,68.4 440.9,68.4 442.0,68.4 443.2,68.3 444.4,68.3 445.6,68.3 446.8,68.3 448.0,68.3 449.2,68.3 450.3,68.2 451.5,68.2 452.7,68.2 453.9,68.1 455.1,68.1 456.3,68.1 457.5,68.1 458.7,68.1 459.8,68.1 461.0,68.0 462.2,68.0 463.4,68.0 464.6,67.9 465.8,67.9 467.0,67.9 468.1,67.8 469.3,67.8 470.5,67.8 471.7,67.7 472.9,67.7 474.1,67.7 475.3,67.6 476.5,67.6 477.6,67.6 478.8,67.5 480.0,67.5 481.2,67.5 482.4,67.4 483.6,67.4 484.8,67.4 485.9,67.3 487.1,67.3 488.3,67.3 489.5,67.2 490.7,67.2 491.9,67.2 493.1,67.1 494.3,67.1 495.4,67.1 496.6,67.3 497.8,67.3 499.0,67.3 500.2,67.3 501.4,67.3 502.6,67.3 503.7,67.3 504.9,67.3 506.1,67.3 507.3,67.3 508.5,67.3 509.7,67.3 510.9,66.9 512.1,66.9 513.2,66.9 514.4,66.9 515.6,66.9 516.8,66.9 518.0,66.9 519.2,66.9 520.4,66.9 521.5,66.9 522.7,66.9 523.9,66.9 525.1,66.2 526.3,66.2 527.5,66.2 528.7,66.2 529.9,66.2 531.0,66.2 532.2,66.2 533.4,66.2 534.6,66.2 535.8,66.2 537.0,66.2 538.2,66.2 539.3,65.7 540.5,65.7 541.7,65.7 542.9,65.7 544.1,65.7 545.3,65.7 546.5,65.7 547.7,65.7 548.8,65.7 550.0,65.7 551.2,65.7 552.4,65.7 553.6,65.0 554.8,65.0 556.0,65.0 557.1,65.0 558.3,65.0 559.5,65.0 560.7,65.0 561.9,65.0 563.1,65.0 564.3,65.0 565.5,65.0 566.6,65.0 567.8,64.4 569.0,64.4 570.2,64.4 571.4,64.4 572.6,64.4 573.8,64.4 574.9,64.4 576.1,64.4 577.3,64.4 578.5,64.4 579.7,64.4 580.9,64.4 582.1,63.5 583.3,63.5 584.4,63.5 585.6,63.5 586.8,63.5 588.0,63.5 589.2,63.5 590.4,63.5 591.6,63.5 592.7,63.5 593.9,63.5 595.1,63.5 596.3,62.7 597.5,62.7 598.7,62.7 599.9,62.7 601.1,62.7 602.2,62.7 603.4,62.7 604.6,62.7 605.8,62.7 607.0,62.7 608.2,62.7 609.4,62.7 610.5,61.8 611.7,61.8 612.9,61.8 614.1,61.8 615.3,61.8 616.5,61.8 617.7,61.8 618.9,61.8 620.0,61.8 621.2,61.8 622.4,61.8 623.6,61.8 624.8,61.0 626.0,61.0 627.2,61.0 628.3,61.0 629.5,61.0 630.7,61.0 631.9,61.0 633.1,61.0 634.3,61.0 635.5,61.0 636.7,61.0 637.8,61.0 639.0,60.1 640.2,60.1 641.4,60.1 642.6,60.1 643.8,60.1 645.0,60.1 646.1,60.1 647.3,60.1 648.5,60.1 649.7,60.1 650.9,60.1 652.1,60.1 653.3,59.3 654.5,59.3 655.6,59.3 656.8,59.3 658.0,59.3 659.2,59.3 660.4,59.3 661.6,59.3 662.8,59.3 663.9,59.3 665.1,59.3 666.3,59.3 667.5,58.6 668.7,58.6 669.9,58.6 671.1,58.6 672.3,58.6 673.4,58.6 674.6,58.6 675.8,58.6 677.0,58.6 678.2,58.6 679.4,58.6 680.6,58.6 681.7,57.8 682.9,57.8 684.1,57.8 685.3,57.8 686.5,57.8 687.7,57.8 688.9,57.8 690.1,57.8 691.2,57.8 692.4,57.8 693.6,57.8 694.8,57.8 696.0,57.0 697.2,57.0 698.4,57.0 699.5,57.0 700.7,57.0 701.9,57.0 703.1,57.0 704.3,57.0 705.5,57.0 706.7,57.0 707.9,57.0 709.0,57.0 710.2,56.2 711.4,56.2 712.6,56.2 713.8,56.2 715.0,56.2 716.2,56.2 717.3,56.2 718.5,56.2 719.7,56.2 720.9,56.2 722.1,56.2 723.3,56.2 724.5,55.4 725.7,55.4 726.8,55.4 728.0,55.4 729.2,55.4 730.4,55.4 731.6,55.4 732.8,55.4 734.0,55.4 735.1,55.4 736.3,55.4 737.5,55.4 738.7,54.7 739.9,54.7 741.1,54.7 742.3,54.7 743.5,54.7 744.6,54.7 745.8,54.7 747.0,54.7 748.2,54.7 749.4,54.7 750.6,54.7 751.8,54.7 752.9,54.0 754.1,54.0 755.3,54.0 756.5,54.0 757.7,54.0 758.9,54.0 760.1,54.0 761.3,54.0 762.4,54.0 763.6,54.0 764.8,54.0 766.0,54.0"/>
<line x1="606" y1="42" x2="628" y2="42" stroke="#0f62fe" stroke-width="2.2"/>
<text x="634" y="46" font-family="Arial" font-size="12">pitch_command_deg</text>
<polyline fill="none" stroke="#24a148" stroke-width="2.2" points="54.0,83.0 55.2,82.5 56.4,81.8 57.6,81.3 58.7,80.9 59.9,80.7 61.1,80.4 62.3,80.2 63.5,80.0 64.7,79.8 65.9,79.7 67.1,79.6 68.2,79.6 69.4,79.5 70.6,79.4 71.8,79.3 73.0,79.4 74.2,79.4 75.4,79.4 76.5,79.4 77.7,79.5 78.9,79.6 80.1,79.6 81.3,79.7 82.5,79.7 83.7,79.8 84.9,80.1 86.0,80.1 87.2,80.1 88.4,80.2 89.6,80.3 90.8,80.4 92.0,80.5 93.2,80.7 94.3,80.8 95.5,80.9 96.7,81.0 97.9,81.1 99.1,81.3 100.3,81.4 101.5,81.5 102.7,81.7 103.8,81.8 105.0,81.9 106.2,82.1 107.4,82.2 108.6,82.3 109.8,82.5 111.0,82.6 112.1,82.8 113.3,82.9 114.5,83.1 115.7,83.3 116.9,83.4 118.1,83.6 119.3,83.7 120.5,83.8 121.6,83.9 122.8,84.1 124.0,84.2 125.2,84.2 126.4,84.3 127.6,84.5 128.8,84.4 129.9,84.4 131.1,84.5 132.3,84.5 133.5,84.4 134.7,84.5 135.9,84.6 137.1,84.6 138.3,84.7 139.4,84.7 140.6,84.8 141.8,85.0 143.0,85.0 144.2,85.1 145.4,85.3 146.6,85.5 147.7,85.6 148.9,85.8 150.1,86.0 151.3,86.2 152.5,86.3 153.7,86.5 154.9,86.7 156.1,87.1 157.2,87.1 158.4,87.3 159.6,87.5 160.8,87.6 162.0,87.8 163.2,87.9 164.4,87.9 165.5,88.0 166.7,88.1 167.9,88.2 169.1,88.2 170.3,88.3 171.5,88.4 172.7,88.5 173.9,88.5 175.0,88.6 176.2,88.8 177.4,88.9 178.6,89.1 179.8,89.2 181.0,89.4 182.2,89.5 183.3,89.7 184.5,90.1 185.7,90.1 186.9,90.4 188.1,90.4 189.3,90.5 190.5,90.5 191.7,90.5 192.8,90.5 194.0,90.5 195.2,90.4 196.4,90.4 197.6,90.3 198.8,90.4 200.0,90.3 201.1,90.4 202.3,90.4 203.5,90.4 204.7,90.5 205.9,90.6 207.1,90.6 208.3,90.8 209.5,90.9 210.6,91.1 211.8,91.2 213.0,91.4 214.2,91.4 215.4,91.5 216.6,91.5 217.8,91.5 218.9,91.5 220.1,91.5 221.3,91.4 222.5,91.3 223.7,91.2 224.9,91.0 226.1,90.9 227.3,91.3 228.4,90.8 229.6,91.1 230.8,91.0 232.0,91.0 233.2,91.1 234.4,91.2 235.6,91.3 236.7,91.5 237.9,91.7 239.1,91.9 240.3,92.1 241.5,92.4 242.7,92.5 243.9,92.7 245.1,92.9 246.2,93.0 247.4,93.2 248.6,93.3 249.8,93.5 251.0,93.5 252.2,93.6 253.4,93.7 254.5,93.7 255.7,94.0 256.9,93.8 258.1,94.0 259.3,94.0 260.5,94.0 261.7,94.1 262.9,94.2 264.0,94.2 265.2,94.4 266.4,94.5 267.6,94.7 268.8,94.9 270.0,95.4 271.2,95.5 272.3,95.8 273.5,96.2 274.7,96.4 275.9,96.7 277.1,97.0 278.3,97.2 279.5,97.3 280.7,97.5 281.8,97.6 283.0,97.6 284.2,97.9 285.4,97.7 286.6,97.7 287.8,97.7 289.0,97.7 290.1,97.7 291.3,97.7 292.5,97.7 293.7,97.9 294.9,98.1 296.1,98.3 297.3,98.7 298.5,99.1 299.6,99.5 300.8,99.8 302.0,100.2 303.2,100.5 304.4,100.9 305.6,101.2 306.8,101.5 307.9,101.8 309.1,102.1 310.3,102.3 311.5,102.5 312.7,102.8 313.9,102.9 315.1,102.9 316.3,102.9 317.4,102.9 318.6,103.0 319.8,103.0 321.0,103.1 322.2,103.2 323.4,103.4 324.6,103.6 325.7,103.8 326.9,104.3 328.1,104.6 329.3,105.0 330.5,105.5 331.7,106.0 332.9,106.4 334.1,106.9 335.2,107.3 336.4,107.7 337.6,108.1 338.8,108.5 340.0,108.8 341.2,109.2 342.4,109.5 343.5,109.8 344.7,110.1 345.9,110.4 347.1,110.7 348.3,111.0 349.5,111.4 350.7,111.7 351.9,112.1 353.0,112.5 354.2,112.9 355.4,113.4 356.6,113.9 357.8,114.4 359.0,114.9 360.2,115.4 361.3,115.9 362.5,116.4 363.7,116.9 364.9,117.3 366.1,117.8 367.3,118.3 368.5,118.8 369.7,119.3 370.8,119.7 372.0,120.2 373.2,120.7 374.4,121.2 375.6,121.6 376.8,122.1 378.0,122.6 379.1,123.1 380.3,123.7 381.5,124.2 382.7,124.7 383.9,125.2 385.1,125.7 386.3,126.3 387.5,126.8 388.6,127.3 389.8,127.8 391.0,128.4 392.2,128.9 393.4,129.4 394.6,130.0 395.8,130.5 396.9,131.1 398.1,131.7 399.3,132.2 400.5,132.8 401.7,133.4 402.9,134.0 404.1,134.6 405.3,135.3 406.4,135.9 407.6,136.6 408.8,137.3 410.0,137.9 411.2,138.2 412.4,138.3 413.6,138.1 414.7,137.4 415.9,136.3 417.1,134.8 418.3,133.2 419.5,131.4 420.7,129.7 421.9,128.0 423.1,126.4 424.2,124.8 425.4,123.4 426.6,121.9 427.8,120.5 429.0,119.2 430.2,117.9 431.4,116.6 432.5,115.3 433.7,114.1 434.9,112.9 436.1,111.8 437.3,110.6 438.5,109.5 439.7,108.4 440.9,107.3 442.0,106.2 443.2,105.3 444.4,104.8 445.6,104.8 446.8,105.5 448.0,107.1 449.2,109.5 450.3,112.8 451.5,116.6 452.7,120.9 453.9,125.5 455.1,130.5 456.3,135.9 457.5,141.6 458.7,147.7 459.8,154.2 461.0,161.2 462.2,168.6 463.4,176.6 464.6,185.0 465.8,193.9 467.0,203.4 468.1,213.3 469.3,223.8 470.5,234.7 471.7,245.9 472.9,256.9 474.1,266.0 475.3,265.0 476.5,254.6 477.6,242.5 478.8,230.4 480.0,218.6 481.2,207.1 482.4,195.8 483.6,184.8 484.8,174.0 485.9,163.5 487.1,153.3 488.3,143.4 489.5,134.0 490.7,125.2 491.9,117.8 493.1,112.2 494.3,108.6 495.4,107.1 496.6,107.5 497.8,109.7 499.0,113.3 500.2,118.4 501.4,124.6 502.6,131.9 503.7,140.0 504.9,148.7 506.1,157.7 507.3,166.5 508.5,174.4 509.7,179.6 510.9,181.5 512.1,180.8 513.2,178.0 514.4,173.7 515.6,168.3 516.8,162.5 518.0,156.5 519.2,150.6 520.4,145.2 521.5,140.7 522.7,137.7 523.9,136.3 525.1,136.5 526.3,138.5 527.5,142.0 528.7,147.0 529.9,152.8 531.0,158.2 532.2,162.9 533.4,167.1 534.6,171.0 535.8,174.5 537.0,177.6 538.2,180.3 539.3,182.7 540.5,184.7 541.7,186.6 542.9,188.3 544.1,189.9 545.3,191.3 546.5,192.6 547.7,193.8 548.8,194.8 550.0,195.8 551.2,196.8 552.4,197.9 553.6,199.2 554.8,200.6 556.0,202.3 557.1,204.2 558.3,206.4 559.5,208.9 560.7,211.8 561.9,214.9 563.1,218.4 564.3,222.1 565.5,226.1 566.6,230.1 567.8,234.1 569.0,237.9 570.2,241.4 571.4,244.5 572.6,246.9 573.8,248.5 574.9,249.1 576.1,248.6 577.3,247.2 578.5,244.9 579.7,242.1 580.9,238.8 582.1,235.3 583.3,231.5 584.4,227.5 585.6,223.5 586.8,219.3 588.0,215.1 589.2,210.9 590.4,206.7 591.6,202.5 592.7,198.3 593.9,194.1 595.1,189.9 596.3,185.9 597.5,182.0 598.7,178.4 599.9,175.0 601.1,171.7 602.2,168.5 603.4,165.5 604.6,162.6 605.8,159.9 607.0,157.2 608.2,154.7 609.4,152.3 610.5,150.0 611.7,147.0 612.9,144.3 614.1,142.6 615.3,140.9 616.5,139.0 617.7,137.2 618.9,135.5 620.0,134.0 621.2,132.5 622.4,131.0 623.6,129.7 624.8,128.4 626.0,126.7 627.2,125.3 628.3,124.6 629.5,123.9 630.7,123.3 631.9,122.7 633.1,122.4 634.3,122.2 635.5,122.3 636.7,122.5 637.8,123.0 639.0,123.8 640.2,124.9 641.4,126.4 642.6,128.5 643.8,131.0 645.0,134.0 646.1,137.4 647.3,141.1 648.5,144.9 649.7,148.9 650.9,152.8 652.1,156.6 653.3,160.0 654.5,162.8 655.6,164.7 656.8,165.6 658.0,165.1 659.2,163.1 660.4,159.4 661.6,154.9 662.8,150.2 663.9,146.0 665.1,141.8 666.3,137.5 667.5,133.3 668.7,128.9 669.9,125.3 671.1,122.4 672.3,119.9 673.4,117.9 674.6,116.4 675.8,115.3 677.0,114.8 678.2,114.6 679.4,115.0 680.6,116.0 681.7,117.8 682.9,120.8 684.1,124.9 685.3,130.4 686.5,137.0 687.7,144.7 688.9,152.9 690.1,161.4 691.2,169.7 692.4,177.4 693.6,184.3 694.8,190.1 696.0,194.4 697.2,197.2 698.4,198.4 699.5,198.2 700.7,196.8 701.9,194.3 703.1,191.1 704.3,187.2 705.5,182.8 706.7,178.3 707.9,173.9 709.0,169.8 710.2,165.6 711.4,161.0 712.6,156.6 713.8,152.7 715.0,149.0 716.2,145.5 717.3,142.1 718.5,139.0 719.7,136.3 720.9,134.1 722.1,132.1 723.3,130.5 724.5,129.3 725.7,128.1 726.8,127.4 728.0,127.1 729.2,127.2 730.4,127.6 731.6,128.3 732.8,129.3 734.0,130.4 735.1,131.6 736.3,132.7 737.5,133.8 738.7,134.6 739.9,135.1 741.1,135.3 742.3,135.2 743.5,134.9 744.6,134.2 745.8,133.3 747.0,132.3 748.2,131.5 749.4,130.7 750.6,130.0 751.8,129.3 752.9,128.7 754.1,128.1 755.3,127.5 756.5,127.0 757.7,126.6 758.9,126.2 760.1,125.8 761.3,125.5 762.4,125.2 763.6,125.0 764.8,124.8 766.0,124.8"/>
<line x1="606" y1="60" x2="628" y2="60" stroke="#24a148" stroke-width="2.2"/>
<text x="634" y="64" font-family="Arial" font-size="12">pitch_deg</text>
</svg>