<svg xmlns="http://www.w3.org/2000/svg" width="820" height="320" viewBox="0 0 820 320">
<rect width="100%" height="100%" fill="#ffffff"/>
<text x="54" y="28" font-family="Arial" font-size="18" font-weight="700">Heading Command Tracking</text>
<line x1="54" y1="266" x2="766" y2="266" stroke="#1f2933"/>
<line x1="54" y1="54" x2="54" y2="266" stroke="#1f2933"/>
<text x="54" y="306" font-family="Arial" font-size="12">time (s)</text>
<text x="596" y="306" font-family="Arial" font-size="12">heading (deg)</text>
<text x="58" y="68" font-family="Arial" font-size="11">180</text>
<text x="58" y="260" font-family="Arial" font-size="11">-180</text>
<polyline fill="none" stroke="#0f62fe" stroke-width="2.2" points="54.0,157.6 55.2,157.6 56.4,157.6 57.6,157.6 58.7,157.6 59.9,157.6 61.1,157.6 62.3,157.6 63.5,157.6 64.7,157.6 65.9,157.6 67.1,157.6 68.2,157.6 69.4,157.6 70.6,157.6 71.8,157.6 73.0,157.6 74.2,157.6 75.4,157.6 76.5,157.6 77.7,157.6 78.9,157.6 80.1,157.6 81.3,157.6 82.5,157.6 83.7,157.6 84.9,157.6 86.0,157.6 87.2,157.6 88.4,157.6 89.6,157.6 90.8,157.6 92.0,157.6 93.2,157.6 94.3,157.6 95.5,157.6 96.7,157.6 97.9,157.6 99.1,157.6 100.3,157.6 101.5,157.6 102.7,157.6 103.8,157.6 105.0,157.6 106.2,157.6 107.4,157.6 108.6,157.6 109.8,157.6 111.0,157.6 112.1,157.6 113.3,157.6 114.5,157.6 115.7,157.6 116.9,157.6 118.1,157.6 119.3,157.6 120.5,157.6 121.6,157.6 122.8,157.6 124.0,157.6 125.2,157.6 126.4,157.6 127.6,157.6 128.8,157.6 129.9,157.6 131.1,157.6 132.3,157.6 133.5,157.6 134.7,157.6 135.9,157.6 137.1,157.6 138.3,157.6 139.4,157.6 140.6,157.6 141.8,157.6 143.0,157.6 144.2,157.6 145.4,157.6 146.6,157.6 147.7,157.6 148.9,157.6 150.1,157.6 151.3,157.6 152.5,157.6 153.7,157.6 154.9,157.6 156.1,157.6 157.2,157.6 158.4,157.6 159.6,157.6 160.8,157.6 162.0,157.6 163.2,157.6 164.4,157.6 165.5,157.6 166.7,157.6 167.9,157.6 169.1,157.6 170.3,157.6 171.5,157.6 172.7,157.6 173.9,157.6 175.0,157.6 176.2,157.6 177.4,157.6 178.6,157.6 179.8,157.6 181.0,157.6 182.2,157.6 183.3,157.6 184.5,157.6 185.7,157.6 186.9,157.6 188.1,157.6 189.3,157.6 190.5,157.6 191.7,157.6 192.8,157.6 194.0,157.6 195.2,157.6 196.4,157.6 197.6,157.6 198.8,157.6 200.0,157.6 201.1,157.6 202.3,157.6 203.5,157.6 204.7,157.6 205.9,157.6 207.1,157.6 208.3,157.6 209.5,157.6 210.6,157.6 211.8,157.6 213.0,157.6 214.2,157.6 215.4,157.6 216.6,157.6 217.8,157.6 218.9,157.6 220.1,157.6 221.3,157.6 222.5,157.6 223.7,157.6 224.9,157.6 226.1,157.6 227.3,157.6 228.4,157.6 229.6,157.6 230.8,157.6 232.0,157.6 233.2,157.6 234.4,157.6 235.6,157.6 236.7,157.6 237.9,157.6 239.1,157.6 240.3,157.6 241.5,157.6 242.7,157.6 243.9,157.6 245.1,157.6 246.2,157.6 247.4,157.6 248.6,157.6 249.8,157.6 251.0,157.6 252.2,157.6 253.4,157.6 254.5,157.6 255.7,157.6 256.9,157.6 258.1,157.6 259.3,157.6 260.5,157.6 261.7,157.6 262.9,157.6 264.0,157.6 265.2,157.6 266.4,157.6 267.6,157.6 268.8,157.6 270.0,157.6 271.2,157.6 272.3,157.6 273.5,157.6 274.7,157.6 275.9,157.6 277.1,157.6 278.3,157.6 279.5,157.6 280.7,157.6 281.8,157.6 283.0,157.6 284.2,157.6 285.4,157.6 286.6,157.6 287.8,157.6 289.0,157.6 290.1,157.6 291.3,157.6 292.5,157.6 293.7,157.6 294.9,157.6 296.1,157.6 297.3,157.6 298.5,157.6 299.6,157.6 300.8,157.6 302.0,157.6 303.2,157.6 304.4,157.6 305.6,157.6 306.8,157.6 307.9,157.6 309.1,157.6 310.3,157.6 311.5,157.6 312.7,157.6 313.9,157.6 315.1,157.6 316.3,157.6 317.4,157.6 318.6,157.6 319.8,157.6 321.0,157.6 322.2,157.6 323.4,157.6 324.6,157.6 325.7,157.6 326.9,157.6 328.1,157.6 329.3,157.6 330.5,157.6 331.7,157.6 332.9,157.6 334.1,157.6 335.2,157.6 336.4,157.6 337.6,157.6 338.8,157.6 340.0,157.6 341.2,157.6 342.4,157.6 343.5,157.6 344.7,157.6 345.9,157.6 347.1,157.6 348.3,157.6 349.5,157.6 350.7,157.6 351.9,157.6 353.0,157.6 354.2,157.6 355.4,157.6 356.6,157.6 357.8,157.6 359.0,157.6 360.2,157.6 361.3,157.6 362.5,157.6 363.7,157.6 364.9,157.6 366.1,157.6 367.3,157.6 368.5,157.6 369.7,157.6 370.8,157.6 372.0,157.6 373.2,157.6 374.4,157.6 375.6,157.6 376.8,157.6 378.0,157.6 379.1,157.6 380.3,157.6 381.5,157.6 382.7,157.6 383.9,157.6 385.1,157.6 386.3,157.6 387.5,157.6 388.6,157.6 389.8,157.6 391.0,157.6 392.2,157.6 393.4,157.6 394.6,157.6 395.8,157.6 396.9,157.6 398.1,157.6 399.3,157.6 400.5,157.6 401.7,157.6 402.9,157.6 404.1,157.6 405.3,157.6 406.4,157.6 407.6,157.6 408.8,157.6 410.0,157.6 411.2,157.6 412.4,157.6 413.6,157.6 414.7,157.6 415.9,157.6 417.1,157.6 418.3,157.6 419.5,157.6 420.7,157.6 421.9,157.6 423.1,157.6 424.2,157.6 425.4,157.6 426.6,157.6 427.8,157.6 429.0,157.6 430.2,157.6 431.4,157.6 432.5,157.6 433.7,157.6 434.9,157.6 436.1,157.6 437.3,157.6 438.5,157.6 439.7,157.6 440.9,157.6 442.0,157.6 443.2,157.6 444.4,157.6 445.6,157.6 446.8,157.6 448.0,157.6 449.2,157.6 450.3,157.6 451.5,157.6 452.7,157.6 453.9,157.6 455.1,157.6 456.3,157.6 457.5,157.6 458.7,157.6 459.8,157.6 461.0,157.6 462.2,157.6 463.4,157.6 464.6,157.6 465.8,157.6 467.0,157.6 468.1,157.6 469.3,157.6 470.5,157.6 471.7,157.6 472.9,157.6 474.1,157.6 475.3,157.6 476.5,157.6 477.6,157.6 478.8,157.6 480.0,157.6 481.2,157.6 482.4,157.6 483.6,157.6 484.8,157.6 485.9,157.6 487.1,157.6 488.3,157.6 489.5,157.6 490.7,157.6 491.9,157.6 493.1,157.6 494.3,157.6 495.4,157.6 496.6,157.6 497.8,157.6 499.0,157.6 500.2,157.6 501.4,157.6 502.6,157.6 503.7,157.6 504.9,157.6 506.1,157.6 507.3,157.6 508.5,157.6 509.7,157.6 510.9,157.6 512.1,157.6 513.2,157.6 514.4,157.6 515.6,157.6 516.8,157.6 518.0,157.6 519.2,157.6 520.4,157.6 521.5,157.6 522.7,157.6 523.9,157.6 525.1,157.6 526.3,157.6 527.5,157.6 528.7,157.6 529.9,157.6 531.0,157.6 532.2,157.6 533.4,157.6 534.6,157.6 535.8,157.6 537.0,157.6 538.2,157.6 539.3,157.6 540.5,157.6 541.7,157.6 542.9,157.6 544.1,157.6 545.3,157.6 546.5,157.6 547.7,157.6 548.8,157.6 550.0,157.6 551.2,157.6 552.4,157.6 553.6,157.6 554.8,157.6 556.0,157.6 557.1,157.6 558.3,157.6 559.5,157.6 560.7,157.6 561.9,157.6 563.1,157.6 564.3,157.6 565.5,157.6 566.6,157.6 567.8,157.6 569.0,157.6 570.2,157.6 571.4,157.6 572.6,157.6 573.8,157.6 574.9,157.6 576.1,157.6 577.3,157.6 578.5,157.6 579.7,157.6 580.9,157.6 582.1,157.6 583.3,157.6 584.4,157.6 585.6,157.6 586.8,157.6 588.0,157.6 589.2,157.6 590.4,157.6 591.6,157.6 592.7,157.6 593.9,157.6 595.1,157.6 596.3,157.6 597.5,157.6 598.7,157.6 599.9,157.6 601.1,157.6 602.2,157.6 603.4,157.6 604.6,157.6 605.8,157.6 607.0,157.6 608.2,157.6 609.4,157.6 610.5,157.6 611.7,157.6 612.9,157.6 614.1,157.6 615.3,157.6 616.5,157.6 617.7,157.6 618.9,157.6 620.0,157.6 621.2,157.6 622.4,157.6 623.6,157.6 624.8,157.6 626.0,157.6 627.2,157.6 628.3,157.6 629.5,157.6 630.7,157.6 631.9,157.6 633.1,157.6 634.3,157.6 635.5,157.6 636.7,157.6 637.8,157.6 639.0,157.6 640.2,157.6 641.4,157.6 642.6,157.6 643.8,157.6 645.0,157.6 646.1,157.6 647.3,157.6 648.5,157.6 649.7,157.6 650.9,157.6 652.1,157.6 653.3,157.6 654.5,157.6 655.6,157.6 656.8,157.6 658.0,157.6 659.2,157.6 660.4,157.6 661.6,157.6 662.8,157.6 663.9,157.6 665.1,157.6 666.3,157.6 667.5,157.6 668.7,157.6 669.9,157.6 671.1,157.6 672.3,157.6 673.4,157.6 674.6,157.6 675.8,157.6 677.0,157.6 678.2,157.6 679.4,157.6 680.6,157.6 681.7,157.6 682.9,157.6 684.1,157.6 685.3,157.6 686.5,157.6 687.7,157.6 688.9,157.6 690.1,157.6 691.2,157.6 692.4,157.6 693.6,157.6 694.8,157.6 696.0,157.6 697.2,157.6 698.4,157.6 699.5,157.6 700.7,157.6 701.9,157.6 703.1,157.6 704.3,157.6 705.5,157.6 706.7,157.6 707.9,157.6 709.0,157.6 710.2,157.6 711.4,157.6 712.6,157.6 713.8,157.6 715.0,157.6 716.2,157.6 717.3,157.6 718.5,157.6 719.7,157.6 720.9,157.6 722.1,157.6 723.3,157.6 724.5,157.6 725.7,157.6 726.8,157.6 728.0,157.6 729.2,157.6 730.4,157.6 731.6,157.6 732.8,157.6 734.0,157.6 735.1,157.6 736.3,157.6 737.5,157.6 738.7,157.6 739.9,157.6 741.1,157.6 742.3,157.6 743.5,157.6 744.6,157.6 745.8,157.6 747.0,157.6 748.2,157.6 749.4,157.6 750.6,157.6 751.8,157.6 752.9,157.6 754.1,157.6 755.3,157.6 756.5,157.6 757.7,157.6 758.9,157.6 760.1,157.6 761.3,157.6 762.4,157.6 763.6,157.6 764.8,157.6 766.0,157.6"/>
<line x1="606" y1="42" x2="628" y2="42" stroke="#0f62fe" stroke-width="2.2"/>
<text x="634" y="46" font-family="Arial" font-size="12">heading_command_deg</text>
<polyline fill="none" stroke="#24a148" stroke-width="2.2" points="54.0,159.6 55.2,159.7 56.4,159.9 57.6,160.1 58.7,160.4 59.9,160.6 61.1,160.9 62.3,161.1 63.5,161.4 64.7,161.6 65.9,161.9 67.1,162.1 68.2,162.4 69.4,162.6 70.6,162.9 71.8,163.1 73.0,163.4 74.2,163.6 75.4,163.9 76.5,164.2 77.7,164.5 78.9,164.7 80.1,165.0 81.3,165.3 82.5,165.6 83.7,165.8 84.9,166.1 86.0,166.4 87.2,166.6 88.4,166.9 89.6,167.2 90.8,167.5 92.0,167.7 93.2,168.0 94.3,168.3 95.5,168.5 96.7,168.8 97.9,169.0 99.1,169.3 100.3,169.6 101.5,169.8 102.7,170.1 103.8,170.4 105.0,170.6 106.2,170.9 107.4,171.2 108.6,171.5 109.8,171.8 111.0,172.0 112.1,172.3 113.3,172.6 114.5,172.9 115.7,173.1 116.9,173.4 118.1,173.6 119.3,173.8 120.5,174.0 121.6,174.2 122.8,174.3 124.0,174.3 125.2,174.4 126.4,174.4 127.6,174.4 128.8,174.3 129.9,174.3 131.1,174.3 132.3,174.2 133.5,174.2 134.7,174.2 135.9,174.1 137.1,174.2 138.3,174.2 139.4,174.2 140.6,174.3 141.8,174.4 143.0,174.6 144.2,174.8 145.4,175.0 146.6,175.3 147.7,175.5 148.9,175.8 150.1,176.1 151.3,176.4 152.5,176.7 153.7,176.9 154.9,177.2 156.1,177.4 157.2,177.7 158.4,177.9 159.6,178.1 160.8,178.3 162.0,178.4 163.2,178.5 164.4,178.7 165.5,178.8 166.7,178.8 167.9,178.9 169.1,179.0 170.3,179.1 171.5,179.2 172.7,179.3 173.9,179.5 175.0,179.7 176.2,179.9 177.4,180.1 178.6,180.4 179.8,180.7 181.0,181.0 182.2,181.3 183.3,181.6 184.5,181.8 185.7,182.1 186.9,182.2 188.1,182.4 189.3,182.5 190.5,182.5 191.7,182.6 192.8,182.6 194.0,182.5 195.2,182.5 196.4,182.5 197.6,182.5 198.8,182.5 200.0,182.6 201.1,182.6 202.3,182.7 203.5,182.9 204.7,183.0 205.9,183.2 207.1,183.5 208.3,183.7 209.5,184.0 210.6,184.3 211.8,184.5 213.0,184.7 214.2,184.9 215.4,185.1 216.6,185.2 217.8,185.3 218.9,185.3 220.1,185.3 221.3,185.2 222.5,185.2 223.7,185.1 224.9,185.0 226.1,184.9 227.3,184.7 228.4,184.8 229.6,184.8 230.8,184.9 232.0,185.0 233.2,185.1 234.4,185.3 235.6,185.5 236.7,185.8 237.9,186.1 239.1,186.4 240.3,186.7 241.5,187.0 242.7,187.3 243.9,187.6 245.1,187.9 246.2,188.2 247.4,188.4 248.6,188.7 249.8,188.9 251.0,189.1 252.2,189.3 253.4,189.4 254.5,189.6 255.7,189.7 256.9,189.9 258.1,190.0 259.3,190.1 260.5,190.3 261.7,190.5 262.9,190.6 264.0,190.9 265.2,191.1 266.4,191.4 267.6,191.7 268.8,192.0 270.0,192.2 271.2,192.7 272.3,193.1 273.5,193.5 274.7,193.9 275.9,194.2 277.1,194.6 278.3,194.9 279.5,195.2 280.7,195.5 281.8,195.7 283.0,195.8 284.2,195.9 285.4,196.0 286.6,196.1 287.8,196.2 289.0,196.3 290.1,196.4 291.3,196.5 292.5,196.7 293.7,196.9 294.9,197.1 296.1,197.5 297.3,197.9 298.5,198.3 299.6,198.8 300.8,199.3 302.0,199.7 303.2,200.1 304.4,200.6 305.6,201.0 306.8,201.4 307.9,201.7 309.1,202.0 310.3,202.3 311.5,202.6 312.7,202.6 313.9,202.8 315.1,203.0 316.3,203.2 317.4,203.3 318.6,203.4 319.8,203.6 321.0,203.7 322.2,203.9 323.4,204.0 324.6,204.3 325.7,204.6 326.9,204.7 328.1,205.1 329.3,205.5 330.5,205.9 331.7,206.3 332.9,206.8 334.1,207.3 335.2,207.8 336.4,208.3 337.6,208.9 338.8,209.4 340.0,209.9 341.2,210.3 342.4,210.8 343.5,211.3 344.7,211.8 345.9,212.3 347.1,212.8 348.3,213.3 349.5,213.8 350.7,214.3 351.9,214.9 353.0,215.5 354.2,216.1 355.4,216.8 356.6,217.5 357.8,218.3 359.0,219.1 360.2,219.9 361.3,220.7 362.5,221.5 363.7,222.4 364.9,223.2 366.1,224.1 367.3,225.0 368.5,226.0 369.7,226.9 370.8,227.8 372.0,228.8 373.2,229.7 374.4,230.7 375.6,231.8 376.8,232.8 378.0,233.8 379.1,234.8 380.3,235.8 381.5,236.9 382.7,238.0 383.9,239.1 385.1,240.2 386.3,241.4 387.5,242.5 388.6,243.7 389.8,244.8 391.0,246.0 392.2,247.2 393.4,248.4 394.6,249.6 395.8,250.9 396.9,252.1 398.1,253.3 399.3,254.6 400.5,255.8 401.7,257.1 402.9,258.3 404.1,259.6 405.3,260.9 406.4,262.1 407.6,263.4 408.8,264.7 410.0,266.0 411.2,55.0 412.4,56.3 413.6,57.5 414.7,58.6 415.9,59.5 417.1,60.0 418.3,60.2 419.5,60.0 420.7,59.7 421.9,59.3 423.1,59.0 424.2,58.6 425.4,58.2 426.6,57.8 427.8,57.4 429.0,57.0 430.2,56.6 431.4,56.1 432.5,55.6 433.7,55.1 434.9,54.6 436.1,54.0 437.3,265.7 438.5,265.1 439.7,264.5 440.9,263.9 442.0,263.2 443.2,262.5 444.4,261.8 445.6,261.2 446.8,260.8 448.0,260.8 449.2,261.2 450.3,262.0 451.5,263.0 452.7,264.1 453.9,265.2 455.1,54.0 456.3,55.0 457.5,56.0 458.7,56.9 459.8,57.9 461.0,58.8 462.2,59.8 463.4,60.8 464.6,61.8 465.8,62.9 467.0,64.1 468.1,65.5 469.3,67.2 470.5,69.5 471.7,73.0 472.9,80.0 474.1,99.6 475.3,137.6 476.5,154.3 477.6,161.1 478.8,165.4 480.0,169.1 481.2,172.6 482.4,175.9 483.6,179.3 484.8,182.8 485.9,186.3 487.1,190.1 488.3,194.1 489.5,198.3 490.7,202.5 491.9,206.4 493.1,209.9 494.3,213.0 495.4,215.9 496.6,218.5 497.8,220.9 499.0,223.0 500.2,224.7 501.4,226.1 502.6,226.9 503.7,227.2 504.9,226.7 506.1,225.4 507.3,223.0 508.5,219.3 509.7,215.3 510.9,211.5 512.1,208.3 513.2,205.8 514.4,204.2 515.6,203.3 516.8,203.3 518.0,203.9 519.2,205.2 520.4,206.7 521.5,208.1 522.7,208.9 523.9,209.1 525.1,208.8 526.3,208.1 527.5,206.8 528.7,205.2 529.9,203.4 531.0,201.9 532.2,200.8 533.4,199.9 534.6,199.1 535.8,198.1 537.0,197.1 538.2,196.0 539.3,194.8 540.5,193.5 541.7,192.1 542.9,190.6 544.1,189.0 545.3,187.4 546.5,185.7 547.7,184.0 548.8,182.3 550.0,180.6 551.2,178.9 552.4,177.2 553.6,175.5 554.8,173.8 556.0,172.1 557.1,170.4 558.3,168.7 559.5,167.1 560.7,165.4 561.9,163.6 563.1,161.8 564.3,159.9 565.5,157.8 566.6,155.4 567.8,152.6 569.0,149.3 570.2,145.5 571.4,140.9 572.6,135.6 573.8,129.7 574.9,123.4 576.1,117.3 577.3,111.8 578.5,107.1 579.7,103.4 580.9,100.3 582.1,97.9 583.3,96.0 584.4,94.5 585.6,93.3 586.8,92.4 588.0,91.7 589.2,91.2 590.4,90.8 591.6,90.5 592.7,90.3 593.9,90.1 595.1,90.0 596.3,89.8 597.5,89.7 598.7,89.6 599.9,89.5 601.1,89.4 602.2,89.3 603.4,89.2 604.6,89.2 605.8,89.1 607.0,89.0 608.2,89.0 609.4,88.9 610.5,88.9 611.7,89.0 612.9,89.0 614.1,89.0 615.3,88.9 616.5,88.8 617.7,88.8 618.9,88.8 620.0,88.7 621.2,88.7 622.4,88.7 623.6,88.8 624.8,88.8 626.0,89.1 627.2,89.3 628.3,89.6 629.5,89.9 630.7,90.4 631.9,91.0 633.1,91.8 634.3,92.7 635.5,93.8 636.7,95.2 637.8,96.9 639.0,98.8 640.2,101.0 641.4,103.3 642.6,105.8 643.8,108.5 645.0,111.4 646.1,114.5 647.3,117.9 648.5,121.5 649.7,125.3 650.9,129.5 652.1,134.0 653.3,138.8 654.5,144.0 655.6,149.5 656.8,155.3 658.0,161.4 659.2,167.6 660.4,173.9 661.6,180.0 662.8,186.1 663.9,192.0 665.1,197.6 666.3,202.9 667.5,207.7 668.7,211.9 669.9,215.5 671.1,218.6 672.3,221.2 673.4,223.1 674.6,224.4 675.8,224.9 677.0,224.8 678.2,223.8 679.4,222.1 680.6,219.8 681.7,217.0 682.9,213.8 684.1,210.6 685.3,207.4 686.5,204.3 687.7,201.2 688.9,198.0 690.1,194.8 691.2,191.4 692.4,187.8 693.6,184.2 694.8,180.4 696.0,176.6 697.2,172.8 698.4,169.4 699.5,166.4 700.7,164.0 701.9,162.4 703.1,161.4 704.3,161.0 705.5,161.1 706.7,161.8 707.9,162.8 709.0,164.3 710.2,166.0 711.4,167.7 712.6,169.7 713.8,171.7 715.0,173.7 716.2,175.6 717.3,177.4 718.5,178.9 719.7,180.2 720.9,181.1 722.1,181.7 723.3,182.0 724.5,181.9 725.7,181.3 726.8,180.5 728.0,179.4 729.2,178.1 730.4,176.6 731.6,174.9 732.8,173.1 734.0,171.2 735.1,169.4 736.3,167.5 737.5,165.6 738.7,163.8 739.9,162.1 741.1,160.4 742.3,158.8 743.5,157.2 744.6,155.8 745.8,154.4 747.0,153.0 748.2,151.8 749.4,150.6 750.6,149.4 751.8,148.2 752.9,146.9 754.1,145.6 755.3,144.2 756.5,142.9 757.7,141.6 758.9,140.2 760.1,138.8 761.3,137.4 762.4,136.0 763.6,134.6 764.8,133.1 766.0,131.6"/>
<line x1="606" y1="60" x2="628" y2="60" stroke="#24a148" stroke-width="2.2"/>
<text x="634" y="64" font-family="Arial" font-size="12">yaw_deg</text>
</svg>