<svg xmlns="http://www.w3.org/2000/svg" width="820" height="320" viewBox="0 0 820 320">
<rect width="100%" height="100%" fill="#ffffff"/>
<text x="54" y="28" font-family="Arial" font-size="18" font-weight="700">Pitch Command Tracking</text>
<line x1="54" y1="266" x2="766" y2="266" stroke="#1f2933"/>
<line x1="54" y1="54" x2="54" y2="266" stroke="#1f2933"/>
<text x="54" y="306" font-family="Arial" font-size="12">time (s)</text>
<text x="596" y="306" font-family="Arial" font-size="12">pitch (deg)</text>
<text x="58" y="68" font-family="Arial" font-size="11">63</text>
<text x="58" y="260" font-family="Arial" font-size="11">-69.3</text>
<polyline fill="none" stroke="#0f62fe" stroke-width="2.2" points="54.0,134.1 58.6,134.1 63.1,134.2 67.7,134.2 72.3,134.2 76.8,134.2 81.4,134.3 85.9,134.3 90.5,134.3 95.1,134.3 99.6,134.3 104.2,134.4 108.8,134.4 113.3,134.4 117.9,134.4 122.5,134.5 127.0,134.5 131.6,134.5 136.2,134.5 140.7,134.6 145.3,134.6 149.8,134.6 154.4,134.6 159.0,134.7 163.5,134.7 168.1,134.7 172.7,134.7 177.2,134.8 181.8,134.8 186.4,134.8 190.9,134.8 195.5,134.9 200.1,134.9 204.6,134.9 209.2,134.9 213.7,134.9 218.3,135.0 222.9,135.0 227.4,135.0 232.0,135.0 236.6,135.1 241.1,135.1 245.7,135.1 250.3,135.1 254.8,135.2 259.4,135.2 263.9,135.2 268.5,135.2 273.1,135.3 277.6,135.3 282.2,135.3 286.8,135.3 291.3,135.4 295.9,135.4 300.5,135.4 305.0,135.4 309.6,135.5 314.2,135.5 318.7,135.5 323.3,135.5 327.8,135.5 332.4,135.6 337.0,135.6 341.5,135.6 346.1,135.6 350.7,135.7 355.2,135.7 359.8,135.7 364.4,135.7 368.9,135.8 373.5,135.8 378.1,135.8 382.6,135.8 387.2,135.9 391.7,135.9 396.3,135.9 400.9,135.9 405.4,136.0 410.0,136.0 414.6,136.0 419.1,136.0 423.7,136.1 428.3,136.1 432.8,136.1 437.4,136.1 441.9,136.1 446.5,136.2 451.1,136.2 455.6,136.2 460.2,136.2 464.8,136.3 469.3,136.3 473.9,136.3 478.5,136.3 483.0,136.4 487.6,136.4 492.2,136.4 496.7,136.4 501.3,136.5 505.8,136.5 510.4,136.5 515.0,136.5 519.5,136.6 524.1,136.6 528.7,136.6 533.2,136.6 537.8,136.7 542.4,136.7 546.9,136.7 551.5,136.7 556.1,136.8 560.6,136.8 565.2,136.8 569.7,136.8 574.3,136.8 578.9,136.9 583.4,136.9 588.0,136.9 592.6,136.9 597.1,137.0 601.7,137.0 606.3,137.0 610.8,137.0 615.4,137.1 619.9,137.1 624.5,137.1 629.1,137.1 633.6,137.2 638.2,137.2 642.8,137.2 647.3,137.2 651.9,137.3 656.5,137.3 661.0,137.3 665.6,137.3 670.2,137.4 674.7,137.4 679.3,137.4 683.8,137.4 688.4,137.4 693.0,137.5 697.5,137.5 702.1,137.5 706.7,137.5 711.2,137.6 715.8,137.6 720.4,137.6 724.9,137.6 729.5,137.7 734.1,137.7 738.6,137.7 743.2,137.7 747.7,137.8 752.3,137.8 756.9,137.8 761.4,137.8 766.0,137.9"/>
<line x1="606" y1="42" x2="628" y2="42" stroke="#0f62fe" stroke-width="2.2"/>
<text x="634" y="46" font-family="Arial" font-size="12">pitch_command_deg</text>
<polyline fill="none" stroke="#24a148" stroke-width="2.2" points="54.0,145.3 58.6,144.9 63.1,144.3 67.7,143.8 72.3,143.5 76.8,143.4 81.4,143.2 85.9,143.1 90.5,143.0 95.1,143.0 99.6,142.9 104.2,142.9 108.8,142.9 113.3,142.9 117.9,142.9 122.5,143.0 127.0,143.0 131.6,143.1 136.2,143.1 140.7,143.2 145.3,143.2 149.8,143.3 154.4,143.4 159.0,143.4 163.5,143.5 168.1,143.6 172.7,143.7 177.2,143.7 181.8,143.8 186.4,143.9 190.9,143.9 195.5,144.0 200.1,144.1 204.6,144.1 209.2,144.2 213.7,144.3 218.3,144.3 222.9,144.4 227.4,144.5 232.0,144.5 236.6,144.6 241.1,144.6 245.7,144.7 250.3,144.8 254.8,144.8 259.4,144.9 263.9,144.9 268.5,145.0 273.1,145.0 277.6,145.1 282.2,145.1 286.8,145.2 291.3,145.2 295.9,145.2 300.5,145.3 305.0,145.3 309.6,145.4 314.2,145.4 318.7,145.5 323.3,145.5 327.8,145.5 332.4,145.6 337.0,145.6 341.5,145.6 346.1,145.7 350.7,145.7 355.2,145.7 359.8,145.8 364.4,145.8 368.9,145.9 373.5,145.9 378.1,146.0 382.6,146.1 387.2,146.2 391.7,146.3 396.3,146.5 400.9,146.7 405.4,147.0 410.0,147.4 414.6,147.9 419.1,148.6 423.7,149.6 428.3,150.9 432.8,152.9 437.4,155.9 441.9,160.4 446.5,166.6 451.1,175.0 455.6,185.5 460.2,198.5 464.8,213.6 469.3,230.3 473.9,246.9 478.5,259.6 483.0,260.9 487.6,248.9 492.2,231.1 496.7,209.6 501.3,186.0 505.8,161.7 510.4,138.6 515.0,118.3 519.5,103.3 524.1,96.7 528.7,100.0 533.2,112.3 537.8,132.1 542.4,157.6 546.9,187.0 551.5,217.6 556.1,247.1 560.6,266.0 565.2,253.7 569.7,222.8 574.3,188.3 578.9,154.3 583.4,123.2 588.0,99.2 592.6,88.3 597.1,94.1 601.7,112.9 606.3,139.3 610.8,169.9 615.4,202.2 619.9,232.2 624.5,249.7 629.1,240.3 633.6,212.4 638.2,178.8 642.8,144.2 647.3,111.4 651.9,84.8 656.5,72.0 661.0,79.3 665.6,100.9 670.2,128.9 674.7,159.7 679.3,190.9 683.8,218.2 688.4,233.5 693.0,226.7 697.5,202.6 702.1,170.9 706.7,136.6 711.2,102.3 715.8,72.0 720.4,54.0 724.9,61.4 729.5,85.6 734.1,114.9 738.6,145.6 743.2,175.2 747.7,200.5 752.3,215.3 756.9,212.5 761.4,193.9 766.0,166.1"/>
<line x1="606" y1="60" x2="628" y2="60" stroke="#24a148" stroke-width="2.2"/>
<text x="634" y="64" font-family="Arial" font-size="12">pitch_deg</text>
</svg>