<svg xmlns="http://www.w3.org/2000/svg" width="820" height="320" viewBox="0 0 820 320">
<rect width="100%" height="100%" fill="#ffffff"/>
<text x="54" y="28" font-family="Arial" font-size="18" font-weight="700">Specific Energy</text>
<line x1="54" y1="266" x2="766" y2="266" stroke="#1f2933"/>
<line x1="54" y1="54" x2="54" y2="266" stroke="#1f2933"/>
<text x="54" y="306" font-family="Arial" font-size="12">time (s)</text>
<text x="596" y="306" font-family="Arial" font-size="12">J/kg</text>
<text x="58" y="68" font-family="Arial" font-size="11">9.13e+03</text>
<text x="58" y="260" font-family="Arial" font-size="11">3.84e+03</text>
<polyline fill="none" stroke="#0f62fe" stroke-width="2.2" points="54.0,266.0 58.6,264.2 63.1,262.4 67.7,260.6 72.3,258.7 76.8,256.8 81.4,254.9 85.9,252.9 90.5,250.9 95.1,248.8 99.6,246.7 104.2,244.6 108.8,242.4 113.3,240.1 117.9,237.8 122.5,235.5 127.0,233.2 131.6,230.9 136.2,228.5 140.7,226.2 145.3,223.8 149.8,221.5 154.4,219.1 159.0,216.7 163.5,214.3 168.1,211.9 172.7,209.4 177.2,207.0 181.8,204.5 186.4,202.1 190.9,199.6 195.5,197.1 200.1,194.7 204.6,192.2 209.2,189.6 213.7,187.1 218.3,184.6 222.9,182.1 227.4,179.5 232.0,176.9 236.6,174.4 241.1,171.8 245.7,169.2 250.3,166.6 254.8,164.0 259.4,161.4 263.9,158.8 268.5,156.1 273.1,153.5 277.6,150.8 282.2,148.2 286.8,145.5 291.3,142.8 295.9,140.1 300.5,137.4 305.0,134.7 309.6,132.0 314.2,129.2 318.7,126.5 323.3,123.8 327.8,121.0 332.4,118.2 337.0,115.5 341.5,112.7 346.1,109.9 350.7,107.1 355.2,104.3 359.8,101.5 364.4,98.7 368.9,95.8 373.5,93.0 378.1,90.2 382.6,87.3 387.2,84.5 391.7,81.6 396.3,78.8 400.9,75.9 405.4,73.1 410.0,70.3 414.6,67.6 419.1,64.9 423.7,62.3 428.3,59.8 432.8,57.5 437.4,55.6 441.9,54.4 446.5,54.0 451.1,54.1 455.6,54.4 460.2,55.3 464.8,56.7 469.3,58.8 473.9,61.6 478.5,64.8 483.0,68.2 487.6,71.6 492.2,74.7 496.7,75.6 501.3,77.7 505.8,79.8 510.4,81.7 515.0,83.4 519.5,84.7 524.1,85.7 528.7,86.3 533.2,86.9 537.8,87.4 542.4,88.1 546.9,89.0 551.5,90.3 556.1,91.9 560.6,94.0 565.2,96.5 569.7,99.3 574.3,102.2 578.9,105.0 583.4,107.4 588.0,109.2 592.6,110.4 597.1,111.1 601.7,111.6 606.3,112.0 610.8,112.4 615.4,113.1 619.9,114.0 624.5,115.1 629.1,116.5 633.6,118.1 638.2,119.9 642.8,121.9 647.3,124.0 651.9,125.9 656.5,127.8 661.0,129.3 665.6,130.5 670.2,131.4 674.7,132.1 679.3,132.5 683.8,132.7 688.4,132.9 693.0,133.2 697.5,133.7 702.1,134.5 706.7,135.7 711.2,137.4 715.8,139.4 720.4,141.7 724.9,144.0 729.5,146.1 734.1,147.6 738.6,148.7 743.2,149.2 747.7,149.1 752.3,148.5 756.9,147.7 761.4,146.9 766.0,146.1"/>
<line x1="606" y1="42" x2="628" y2="42" stroke="#0f62fe" stroke-width="2.2"/>
<text x="634" y="46" font-family="Arial" font-size="12">energy_j_per_kg</text>
</svg>