<svg xmlns="http://www.w3.org/2000/svg" width="820" height="320" viewBox="0 0 820 320">
<rect width="100%" height="100%" fill="#ffffff"/>
<text x="54" y="28" font-family="Arial" font-size="18" font-weight="700">Qbar/Load Envelope</text>
<line x1="54" y1="266" x2="766" y2="266" stroke="#1f2933"/>
<line x1="54" y1="54" x2="54" y2="266" stroke="#1f2933"/>
<text x="54" y="306" font-family="Arial" font-size="12">qbar (Pa)</text>
<text x="596" y="306" font-family="Arial" font-size="12">load factor (g)</text>
<text x="58" y="68" font-family="Arial" font-size="11">3.82</text>
<text x="58" y="260" font-family="Arial" font-size="11">1.74</text>
<polyline fill="none" stroke="#0f62fe" stroke-width="2.2" points="54.0,266.0 59.7,263.1 65.5,260.2 71.5,257.2 77.6,254.1 83.8,251.0 90.2,247.8 96.7,244.6 103.3,241.4 110.1,238.2 117.1,234.9 124.2,231.7 131.5,228.4 138.9,225.2 146.5,224.2 154.2,224.3 161.9,224.4 169.6,224.5 177.4,224.6 185.2,224.6 193.1,224.7 201.0,224.8 209.0,224.9 216.9,225.0 225.0,225.0 233.0,225.1 241.2,225.2 249.3,225.3 257.5,225.3 265.7,225.4 274.0,225.5 282.3,225.5 290.7,225.6 299.0,225.7 307.5,225.7 315.9,225.8 324.4,225.8 333.0,225.9 341.5,226.0 350.1,226.0 358.8,226.1 367.5,226.1 376.2,226.2 385.0,226.2 393.8,226.2 402.6,226.3 411.4,226.3 420.3,226.4 429.3,226.4 438.2,226.4 447.2,226.5 456.3,226.5 465.3,226.5 474.4,226.6 483.6,226.6 492.7,226.6 501.9,226.7 511.2,226.7 520.4,226.7 529.7,226.7 539.1,226.8 548.4,226.8 557.8,226.8 567.2,226.8 576.7,226.8 586.1,226.8 595.6,226.8 605.2,226.8 614.7,226.8 624.3,226.7 633.9,226.6 643.5,226.4 653.2,226.2 662.8,225.8 672.5,225.3 682.1,224.5 691.7,223.3 701.3,221.5 710.7,218.8 720.1,214.8 729.2,208.7 738.1,199.2 746.5,186.6 754.2,183.2 760.5,170.5 764.7,146.4 766.0,149.2 765.8,157.2 764.4,158.1 761.6,137.5 756.9,102.3 749.8,71.4 740.3,64.1 729.6,61.9 718.2,65.1 707.0,55.8 696.9,163.6 693.9,54.0 687.4,99.9 680.6,113.9 674.6,119.4 669.4,126.8 665.3,126.9 662.6,121.6 660.8,108.3 659.5,94.6 658.0,81.4 656.0,70.0 653.2,64.5 649.4,70.2 644.1,87.8 637.5,85.5 629.4,84.9 620.4,87.2 611.1,94.0 602.2,105.2 594.6,123.8 589.0,142.5 585.5,156.0 583.6,158.4 582.6,153.7 581.8,143.2 580.7,124.1 578.9,113.7 576.4,111.3 573.3,112.4 569.3,113.0 564.6,112.2 559.0,112.7 552.9,115.6 546.7,119.4 540.8,122.7 535.3,131.5 530.9,140.7 527.4,147.7 524.9,152.6 523.3,155.1 522.5,157.3 522.5,142.2 522.7,115.6 522.4,109.4 521.7,114.1 520.0,129.0 516.7,126.6 511.8,123.1 505.8,118.7 499.0,118.8 492.1,123.7 485.9,140.5 481.3,154.9 478.5,167.8 477.7,181.0 478.9,175.9 481.8,132.4 485.4,126.2 489.3,155.7 493.2,145.6"/>
<line x1="606" y1="42" x2="628" y2="42" stroke="#0f62fe" stroke-width="2.2"/>
<text x="634" y="46" font-family="Arial" font-size="12">load_factor_g</text>
</svg>