<svg xmlns="http://www.w3.org/2000/svg" width="820" height="320" viewBox="0 0 820 320">
<rect width="100%" height="100%" fill="#ffffff"/>
<text x="54" y="28" font-family="Arial" font-size="18" font-weight="700">Downrange Position</text>
<line x1="54" y1="266" x2="766" y2="266" stroke="#1f2933"/>
<line x1="54" y1="54" x2="54" y2="266" stroke="#1f2933"/>
<text x="54" y="306" font-family="Arial" font-size="12">time (s)</text>
<text x="596" y="306" font-family="Arial" font-size="12">x (m)</text>
<text x="58" y="68" font-family="Arial" font-size="11">3.59e+03</text>
<text x="58" y="260" font-family="Arial" font-size="11">0</text>
<polyline fill="none" stroke="#0f62fe" stroke-width="2.2" points="54.0,266.0 55.2,265.8 56.4,265.7 57.6,265.5 58.7,265.4 59.9,265.2 61.1,265.1 62.3,264.9 63.5,264.8 64.7,264.6 65.9,264.4 67.1,264.3 68.2,264.1 69.4,264.0 70.6,263.8 71.8,263.6 73.0,263.5 74.2,263.3 75.4,263.1 76.5,263.0 77.7,262.8 78.9,262.6 80.1,262.4 81.3,262.3 82.5,262.1 83.7,261.9 84.9,261.7 86.0,261.6 87.2,261.4 88.4,261.2 89.6,261.0 90.8,260.8 92.0,260.7 93.2,260.5 94.3,260.3 95.5,260.1 96.7,259.9 97.9,259.7 99.1,259.5 100.3,259.3 101.5,259.1 102.7,259.0 103.8,258.8 105.0,258.6 106.2,258.4 107.4,258.2 108.6,258.0 109.8,257.8 111.0,257.6 112.1,257.4 113.3,257.2 114.5,257.0 115.7,256.8 116.9,256.6 118.1,256.4 119.3,256.1 120.5,255.9 121.6,255.7 122.8,255.5 124.0,255.3 125.2,255.1 126.4,254.9 127.6,254.7 128.8,254.5 129.9,254.2 131.1,254.0 132.3,253.8 133.5,253.6 134.7,253.4 135.9,253.1 137.1,252.9 138.3,252.7 139.4,252.5 140.6,252.3 141.8,252.0 143.0,251.8 144.2,251.6 145.4,251.3 146.6,251.1 147.7,250.9 148.9,250.7 150.1,250.4 151.3,250.2 152.5,249.9 153.7,249.7 154.9,249.5 156.1,249.2 157.2,249.0 158.4,248.8 159.6,248.5 160.8,248.3 162.0,248.0 163.2,247.8 164.4,247.6 165.5,247.3 166.7,247.1 167.9,246.8 169.1,246.6 170.3,246.3 171.5,246.1 172.7,245.8 173.9,245.6 175.0,245.3 176.2,245.1 177.4,244.8 178.6,244.5 179.8,244.3 181.0,244.0 182.2,243.8 183.3,243.5 184.5,243.3 185.7,243.0 186.9,242.7 188.1,242.5 189.3,242.2 190.5,241.9 191.7,241.7 192.8,241.4 194.0,241.1 195.2,240.9 196.4,240.6 197.6,240.3 198.8,240.1 200.0,239.8 201.1,239.5 202.3,239.2 203.5,239.0 204.7,238.7 205.9,238.4 207.1,238.1 208.3,237.9 209.5,237.6 210.6,237.3 211.8,237.0 213.0,236.7 214.2,236.5 215.4,236.2 216.6,235.9 217.8,235.6 218.9,235.3 220.1,235.0 221.3,234.8 222.5,234.5 223.7,234.2 224.9,233.9 226.1,233.6 227.3,233.3 228.4,233.0 229.6,232.7 230.8,232.4 232.0,232.1 233.2,231.8 234.4,231.5 235.6,231.2 236.7,231.0 237.9,230.7 239.1,230.4 240.3,230.1 241.5,229.8 242.7,229.5 243.9,229.1 245.1,228.8 246.2,228.5 247.4,228.2 248.6,227.9 249.8,227.6 251.0,227.3 252.2,227.0 253.4,226.7 254.5,226.4 255.7,226.1 256.9,225.8 258.1,225.5 259.3,225.1 260.5,224.8 261.7,224.5 262.9,224.2 264.0,223.9 265.2,223.6 266.4,223.2 267.6,222.9 268.8,222.6 270.0,222.3 271.2,222.0 272.3,221.6 273.5,221.3 274.7,221.0 275.9,220.7 277.1,220.4 278.3,220.0 279.5,219.7 280.7,219.4 281.8,219.0 283.0,218.7 284.2,218.4 285.4,218.1 286.6,217.7 287.8,217.4 289.0,217.1 290.1,216.7 291.3,216.4 292.5,216.1 293.7,215.7 294.9,215.4 296.1,215.1 297.3,214.7 298.5,214.4 299.6,214.0 300.8,213.7 302.0,213.4 303.2,213.0 304.4,212.7 305.6,212.3 306.8,212.0 307.9,211.7 309.1,211.3 310.3,211.0 311.5,210.6 312.7,210.3 313.9,209.9 315.1,209.6 316.3,209.2 317.4,208.9 318.6,208.5 319.8,208.2 321.0,207.8 322.2,207.5 323.4,207.1 324.6,206.8 325.7,206.4 326.9,206.1 328.1,205.7 329.3,205.3 330.5,205.0 331.7,204.6 332.9,204.3 334.1,203.9 335.2,203.5 336.4,203.2 337.6,202.8 338.8,202.5 340.0,202.1 341.2,201.7 342.4,201.4 343.5,201.0 344.7,200.6 345.9,200.3 347.1,199.9 348.3,199.5 349.5,199.2 350.7,198.8 351.9,198.4 353.0,198.1 354.2,197.7 355.4,197.3 356.6,196.9 357.8,196.6 359.0,196.2 360.2,195.8 361.3,195.5 362.5,195.1 363.7,194.7 364.9,194.3 366.1,193.9 367.3,193.6 368.5,193.2 369.7,192.8 370.8,192.4 372.0,192.1 373.2,191.7 374.4,191.3 375.6,190.9 376.8,190.5 378.0,190.1 379.1,189.8 380.3,189.4 381.5,189.0 382.7,188.6 383.9,188.2 385.1,187.8 386.3,187.4 387.5,187.0 388.6,186.7 389.8,186.3 391.0,185.9 392.2,185.5 393.4,185.1 394.6,184.7 395.8,184.3 396.9,183.9 398.1,183.5 399.3,183.1 400.5,182.7 401.7,182.3 402.9,181.9 404.1,181.5 405.3,181.1 406.4,180.8 407.6,180.4 408.8,180.0 410.0,179.6 411.2,179.2 412.4,178.8 413.6,178.3 414.7,177.9 415.9,177.5 417.1,177.1 418.3,176.7 419.5,176.3 420.7,175.9 421.9,175.5 423.1,175.1 424.2,174.7 425.4,174.3 426.6,173.9 427.8,173.5 429.0,173.1 430.2,172.7 431.4,172.3 432.5,171.8 433.7,171.4 434.9,171.0 436.1,170.6 437.3,170.2 438.5,169.8 439.7,169.4 440.9,169.0 442.0,168.5 443.2,168.1 444.4,167.7 445.6,167.3 446.8,166.9 448.0,166.5 449.2,166.0 450.3,165.6 451.5,165.2 452.7,164.8 453.9,164.4 455.1,163.9 456.3,163.5 457.5,163.1 458.7,162.7 459.8,162.3 461.0,161.8 462.2,161.4 463.4,161.0 464.6,160.6 465.8,160.1 467.0,159.7 468.1,159.3 469.3,158.8 470.5,158.4 471.7,158.0 472.9,157.6 474.1,157.1 475.3,156.7 476.5,156.3 477.6,155.8 478.8,155.4 480.0,155.0 481.2,154.5 482.4,154.1 483.6,153.7 484.8,153.2 485.9,152.8 487.1,152.4 488.3,151.9 489.5,151.5 490.7,151.1 491.9,150.6 493.1,150.2 494.3,149.8 495.4,149.3 496.6,148.9 497.8,148.4 499.0,148.0 500.2,147.6 501.4,147.1 502.6,146.7 503.7,146.2 504.9,145.8 506.1,145.3 507.3,144.9 508.5,144.5 509.7,144.0 510.9,143.6 512.1,143.1 513.2,142.7 514.4,142.2 515.6,141.8 516.8,141.3 518.0,140.9 519.2,140.4 520.4,140.0 521.5,139.6 522.7,139.1 523.9,138.7 525.1,138.2 526.3,137.8 527.5,137.3 528.7,136.9 529.9,136.4 531.0,136.0 532.2,135.5 533.4,135.0 534.6,134.6 535.8,134.1 537.0,133.7 538.2,133.2 539.3,132.8 540.5,132.3 541.7,131.9 542.9,131.4 544.1,131.0 545.3,130.5 546.5,130.0 547.7,129.6 548.8,129.1 550.0,128.7 551.2,128.2 552.4,127.7 553.6,127.3 554.8,126.8 556.0,126.4 557.1,125.9 558.3,125.4 559.5,125.0 560.7,124.5 561.9,124.1 563.1,123.6 564.3,123.1 565.5,122.7 566.6,122.2 567.8,121.7 569.0,121.3 570.2,120.8 571.4,120.4 572.6,119.9 573.8,119.4 574.9,119.0 576.1,118.5 577.3,118.1 578.5,117.6 579.7,117.1 580.9,116.7 582.1,116.2 583.3,115.8 584.4,115.3 585.6,114.9 586.8,114.4 588.0,114.0 589.2,113.5 590.4,113.1 591.6,112.6 592.7,112.2 593.9,111.7 595.1,111.3 596.3,110.8 597.5,110.4 598.7,110.0 599.9,109.5 601.1,109.1 602.2,108.6 603.4,108.2 604.6,107.7 605.8,107.3 607.0,106.9 608.2,106.4 609.4,106.0 610.5,105.6 611.7,105.1 612.9,104.7 614.1,104.3 615.3,103.8 616.5,103.4 617.7,103.0 618.9,102.5 620.0,102.1 621.2,101.7 622.4,101.2 623.6,100.8 624.8,100.4 626.0,100.0 627.2,99.5 628.3,99.1 629.5,98.7 630.7,98.3 631.9,97.8 633.1,97.4 634.3,97.0 635.5,96.6 636.7,96.2 637.8,95.7 639.0,95.3 640.2,94.9 641.4,94.5 642.6,94.1 643.8,93.6 645.0,93.2 646.1,92.8 647.3,92.4 648.5,92.0 649.7,91.6 650.9,91.2 652.1,90.8 653.3,90.3 654.5,89.9 655.6,89.5 656.8,89.1 658.0,88.7 659.2,88.3 660.4,87.9 661.6,87.5 662.8,87.1 663.9,86.7 665.1,86.3 666.3,85.9 667.5,85.5 668.7,85.1 669.9,84.7 671.1,84.3 672.3,83.9 673.4,83.5 674.6,83.1 675.8,82.7 677.0,82.3 678.2,81.9 679.4,81.5 680.6,81.1 681.7,80.7 682.9,80.3 684.1,79.9 685.3,79.5 686.5,79.1 687.7,78.7 688.9,78.3 690.1,77.9 691.2,77.5 692.4,77.1 693.6,76.8 694.8,76.4 696.0,76.0 697.2,75.6 698.4,75.2 699.5,74.8 700.7,74.4 701.9,74.0 703.1,73.7 704.3,73.3 705.5,72.9 706.7,72.5 707.9,72.1 709.0,71.7 710.2,71.4 711.4,71.0 712.6,70.6 713.8,70.2 715.0,69.8 716.2,69.5 717.3,69.1 718.5,68.7 719.7,68.3 720.9,67.9 722.1,67.6 723.3,67.2 724.5,66.8 725.7,66.4 726.8,66.1 728.0,65.7 729.2,65.3 730.4,64.9 731.6,64.6 732.8,64.2 734.0,63.8 735.1,63.5 736.3,63.1 737.5,62.7 738.7,62.4 739.9,62.0 741.1,61.6 742.3,61.3 743.5,60.9 744.6,60.5 745.8,60.2 747.0,59.8 748.2,59.4 749.4,59.1 750.6,58.7 751.8,58.3 752.9,58.0 754.1,57.6 755.3,57.2 756.5,56.9 757.7,56.5 758.9,56.2 760.1,55.8 761.3,55.4 762.4,55.1 763.6,54.7 764.8,54.4 766.0,54.0"/>
<line x1="606" y1="42" x2="628" y2="42" stroke="#0f62fe" stroke-width="2.2"/>
<text x="634" y="46" font-family="Arial" font-size="12">x_m</text>
</svg>