<svg xmlns="http://www.w3.org/2000/svg" width="820" height="320" viewBox="0 0 820 320">
<rect width="100%" height="100%" fill="#ffffff"/>
<text x="54" y="28" font-family="Arial" font-size="18" font-weight="700">Alpha/Beta</text>
<line x1="54" y1="266" x2="766" y2="266" stroke="#1f2933"/>
<line x1="54" y1="54" x2="54" y2="266" stroke="#1f2933"/>
<text x="54" y="306" font-family="Arial" font-size="12">time (s)</text>
<text x="596" y="306" font-family="Arial" font-size="12">angle (deg)</text>
<text x="58" y="68" font-family="Arial" font-size="11">4.75</text>
<text x="58" y="260" font-family="Arial" font-size="11">0</text>
<polyline fill="none" stroke="#0f62fe" stroke-width="2.2" points="54.0,238.2 55.2,218.0 56.4,193.4 57.6,172.6 58.7,158.0 59.9,147.5 61.1,138.3 62.3,129.4 63.5,121.0 64.7,113.7 65.9,107.6 67.1,102.4 68.2,97.8 69.4,93.6 70.6,90.0 71.8,86.7 73.0,83.8 74.2,81.2 75.4,78.9 76.5,76.8 77.7,75.0 78.9,73.2 80.1,71.7 81.3,70.3 82.5,69.0 83.7,67.8 84.9,66.7 86.0,65.6 87.2,64.7 88.4,63.8 89.6,63.0 90.8,62.3 92.0,61.6 93.2,60.9 94.3,60.3 95.5,59.7 96.7,59.2 97.9,58.7 99.1,58.2 100.3,57.7 101.5,57.3 102.7,57.0 103.8,56.6 105.0,56.3 106.2,56.0 107.4,55.7 108.6,55.4 109.8,55.2 111.0,55.0 112.1,54.8 113.3,54.6 114.5,54.5 115.7,54.4 116.9,54.3 118.1,54.2 119.3,54.1 120.5,54.1 121.6,54.0 122.8,54.0 124.0,54.0 125.2,54.0 126.4,54.1 127.6,54.1 128.8,54.2 129.9,54.2 131.1,54.3 132.3,54.5 133.5,54.6 134.7,54.7 135.9,54.9 137.1,55.0 138.3,55.2 139.4,55.4 140.6,55.6 141.8,55.9 143.0,56.1 144.2,56.4 145.4,56.6 146.6,56.9 147.7,57.2 148.9,57.5 150.1,57.8 151.3,58.0 152.5,58.1 153.7,58.1 154.9,58.0 156.1,57.9 157.2,57.8 158.4,57.6 159.6,57.4 160.8,57.2 162.0,57.0 163.2,56.8 164.4,56.6 165.5,56.3 166.7,56.1 167.9,55.9 169.1,55.7 170.3,55.5 171.5,55.4 172.7,55.2 173.9,55.1 175.0,55.0 176.2,54.9 177.4,54.8 178.6,54.8 179.8,54.8 181.0,54.8 182.2,54.8 183.3,54.8 184.5,54.9 185.7,54.9 186.9,55.0 188.1,55.2 189.3,55.3 190.5,55.5 191.7,55.7 192.8,55.9 194.0,56.1 195.2,56.4 196.4,56.6 197.6,56.9 198.8,57.2 200.0,57.6 201.1,57.9 202.3,58.3 203.5,58.7 204.7,59.1 205.9,59.6 207.1,60.0 208.3,60.5 209.5,61.0 210.6,61.5 211.8,62.0 213.0,62.5 214.2,63.1 215.4,63.7 216.6,64.2 217.8,64.9 218.9,65.5 220.1,66.1 221.3,66.8 222.5,67.4 223.7,68.1 224.9,68.8 226.1,69.5 227.3,70.2 228.4,71.0 229.6,71.7 230.8,72.5 232.0,73.2 233.2,74.0 234.4,74.8 235.6,75.6 236.7,76.4 237.9,77.2 239.1,78.1 240.3,78.9 241.5,79.8 242.7,80.6 243.9,81.5 245.1,82.4 246.2,83.3 247.4,84.2 248.6,85.1 249.8,86.0 251.0,86.9 252.2,87.8 253.4,88.7 254.5,89.7 255.7,90.6 256.9,91.6 258.1,92.5 259.3,93.5 260.5,94.4 261.7,95.4 262.9,96.3 264.0,97.3 265.2,98.3 266.4,99.3 267.6,100.2 268.8,101.2 270.0,102.2 271.2,103.2 272.3,104.2 273.5,105.2 274.7,106.2 275.9,107.1 277.1,108.2 278.3,109.0 279.5,110.5 280.7,110.3 281.8,114.1 283.0,108.5 284.2,125.1 285.4,96.5 286.6,113.8 287.8,94.2 289.0,120.2 290.1,103.3 291.3,131.9 292.5,114.5 293.7,142.7 294.9,124.9 296.1,148.7 297.3,126.6 298.5,146.8 299.6,121.3 300.8,141.7 302.0,116.5 303.2,137.2 304.4,112.2 305.6,133.1 306.8,108.3 307.9,129.4 309.1,104.9 310.3,126.2 311.5,101.8 312.7,123.3 313.9,104.5 315.1,131.4 316.3,112.2 317.4,138.8 318.6,119.4 319.8,145.7 321.0,126.0 322.2,152.0 323.4,132.1 324.6,157.9 325.7,137.7 326.9,163.3 328.1,142.9 329.3,166.5 330.5,144.2 331.7,166.1 332.9,142.1 334.1,164.1 335.2,140.2 336.4,162.3 337.6,138.6 338.8,160.8 340.0,137.1 341.2,159.5 342.4,135.9 343.5,158.4 344.7,134.9 345.9,157.4 347.1,134.0 348.3,156.6 349.5,133.4 350.7,156.1 351.9,132.9 353.0,155.7 354.2,132.5 355.4,155.4 356.6,132.4 357.8,155.4 359.0,133.4 360.2,157.3 361.3,135.2 362.5,159.1 363.7,137.0 364.9,160.9 366.1,139.5 367.3,164.1 368.5,142.7 369.7,167.1 370.8,145.6 372.0,169.9 373.2,148.2 374.4,172.5 375.6,150.7 376.8,174.9 378.0,153.1 379.1,177.2 380.3,155.3 381.5,179.3 382.7,157.3 383.9,181.3 385.1,159.2 386.3,183.2 387.5,161.1 388.6,185.0 389.8,162.8 391.0,186.6 392.2,164.4 393.4,188.2 394.6,165.9 395.8,189.7 396.9,167.4 398.1,191.1 399.3,168.8 400.5,192.5 401.7,170.1 402.9,193.8 404.1,171.4 405.3,195.0 406.4,172.6 407.6,196.2 408.8,173.7 410.0,197.4 411.2,174.8 412.4,198.5 413.6,175.9 414.7,199.5 415.9,177.0 417.1,200.5 418.3,178.0 419.5,201.5 420.7,178.9 421.9,202.5 423.1,179.9 424.2,203.4 425.4,180.8 426.6,204.3 427.8,181.7 429.0,205.2 430.2,183.2 431.4,207.3 432.5,185.1 433.7,209.2 434.9,186.9 436.1,210.9 437.3,188.6 438.5,212.5 439.7,190.1 440.9,213.9 442.0,191.5 443.2,215.3 444.4,192.8 445.6,216.5 446.8,194.0 448.0,217.6 449.2,195.0 450.3,218.7 451.5,196.1 452.7,219.7 453.9,197.0 455.1,220.6 456.3,197.9 457.5,221.4 458.7,198.7 459.8,222.2 461.0,199.4 462.2,222.9 463.4,200.1 464.6,223.6 465.8,200.8 467.0,224.2 468.1,201.4 469.3,224.8 470.5,202.0 471.7,225.4 472.9,202.5 474.1,225.9 475.3,203.0 476.5,226.4 477.6,203.5 478.8,226.9 480.0,204.0 481.2,227.4 482.4,204.4 483.6,227.8 484.8,204.8 485.9,228.2 487.1,205.2 488.3,228.6 489.5,205.6 490.7,229.0 491.9,206.0 493.1,229.3 494.3,206.3 495.4,229.7 496.6,206.7 497.8,230.0 499.0,207.0 500.2,230.4 501.4,207.3 502.6,230.7 503.7,207.6 504.9,231.0 506.1,207.9 507.3,231.3 508.5,208.2 509.7,231.5 510.9,208.5 512.1,231.8 513.2,208.7 514.4,232.1 515.6,209.0 516.8,232.4 518.0,209.3 519.2,232.6 520.4,209.5 521.5,232.9 522.7,209.7 523.9,233.1 525.1,210.0 526.3,233.3 527.5,210.2 528.7,233.6 529.9,210.4 531.0,233.8 532.2,210.7 533.4,234.0 534.6,210.9 535.8,234.2 537.0,211.1 538.2,234.5 539.3,211.3 540.5,234.7 541.7,211.5 542.9,234.9 544.1,211.7 545.3,235.1 546.5,211.9 547.7,235.3 548.8,212.1 550.0,235.5 551.2,212.3 552.4,235.7 553.6,212.5 554.8,235.8 556.0,212.7 557.1,236.0 558.3,212.8 559.5,236.2 560.7,213.0 561.9,236.4 563.1,213.2 564.3,236.6 565.5,213.4 566.6,236.7 567.8,213.5 569.0,236.9 570.2,213.6 571.4,236.8 572.6,213.5 573.8,236.7 574.9,213.4 576.1,236.6 577.3,213.3 578.5,236.4 579.7,213.1 580.9,236.3 582.1,212.9 583.3,236.1 584.4,212.7 585.6,235.8 586.8,212.5 588.0,235.6 589.2,212.2 590.4,235.3 591.6,212.0 592.7,235.1 593.9,211.7 595.1,234.8 596.3,211.4 597.5,234.5 598.7,211.1 599.9,234.2 601.1,210.8 602.2,233.9 603.4,210.5 604.6,233.6 605.8,210.2 607.0,233.3 608.2,209.9 609.4,232.9 610.5,209.6 611.7,232.6 612.9,209.3 614.1,232.3 615.3,208.9 616.5,231.9 617.7,208.6 618.9,231.6 620.0,208.2 621.2,231.2 622.4,207.9 623.6,230.9 624.8,207.5 626.0,230.5 627.2,207.2 628.3,230.2 629.5,206.8 630.7,229.8 631.9,206.5 633.1,229.4 634.3,206.1 635.5,229.1 636.7,205.8 637.8,228.7 639.0,205.4 640.2,228.3 641.4,205.0 642.6,228.0 643.8,204.7 645.0,227.6 646.1,204.3 647.3,227.2 648.5,203.9 649.7,226.8 650.9,203.5 652.1,226.5 653.3,203.2 654.5,226.1 655.6,202.8 656.8,225.7 658.0,202.4 659.2,225.3 660.4,202.0 661.6,224.9 662.8,201.7 663.9,224.5 665.1,201.3 666.3,224.2 667.5,200.9 668.7,223.8 669.9,200.5 671.1,223.4 672.3,200.1 673.4,223.0 674.6,199.7 675.8,222.6 677.0,199.3 678.2,222.2 679.4,198.9 680.6,221.8 681.7,198.5 682.9,221.4 684.1,198.1 685.3,221.0 686.5,197.8 687.7,220.6 688.9,197.4 690.1,220.2 691.2,197.0 692.4,219.8 693.6,196.6 694.8,219.4 696.0,196.2 697.2,219.0 698.4,195.8 699.5,218.6 700.7,195.3 701.9,218.2 703.1,194.9 704.3,217.8 705.5,194.5 706.7,217.4 707.9,194.1 709.0,216.9 710.2,193.7 711.4,216.5 712.6,193.3 713.8,216.1 715.0,192.9 716.2,215.7 717.3,192.5 718.5,215.3 719.7,192.1 720.9,214.9 722.1,191.7 723.3,214.4 724.5,191.2 725.7,214.0 726.8,190.8 728.0,213.6 729.2,190.7 730.4,213.7 731.6,191.1 732.8,214.4 734.0,191.8 735.1,215.0 736.3,192.3 737.5,215.6 738.7,192.8 739.9,216.0 741.1,193.2 742.3,216.4 743.5,193.5 744.6,216.6 745.8,193.8 747.0,216.8 748.2,193.9 749.4,216.9 750.6,194.0 751.8,217.0 752.9,194.0 754.1,217.0 755.3,194.0 756.5,216.9 757.7,193.8 758.9,216.7 760.1,193.6 761.3,216.5 762.4,193.4 763.6,216.2 764.8,193.1 766.0,215.9"/>
<line x1="606" y1="42" x2="628" y2="42" stroke="#0f62fe" stroke-width="2.2"/>
<text x="634" y="46" font-family="Arial" font-size="12">alpha_deg</text>
<polyline fill="none" stroke="#24a148" stroke-width="2.2" points="54.0,266.0 55.2,266.0 56.4,266.0 57.6,266.0 58.7,266.0 59.9,266.0 61.1,266.0 62.3,266.0 63.5,266.0 64.7,266.0 65.9,266.0 67.1,266.0 68.2,266.0 69.4,266.0 70.6,266.0 71.8,266.0 73.0,266.0 74.2,266.0 75.4,266.0 76.5,266.0 77.7,266.0 78.9,266.0 80.1,266.0 81.3,266.0 82.5,266.0 83.7,266.0 84.9,266.0 86.0,266.0 87.2,266.0 88.4,266.0 89.6,266.0 90.8,266.0 92.0,266.0 93.2,266.0 94.3,266.0 95.5,266.0 96.7,266.0 97.9,266.0 99.1,266.0 100.3,266.0 101.5,266.0 102.7,266.0 103.8,266.0 105.0,266.0 106.2,266.0 107.4,266.0 108.6,266.0 109.8,266.0 111.0,266.0 112.1,266.0 113.3,266.0 114.5,266.0 115.7,266.0 116.9,266.0 118.1,266.0 119.3,266.0 120.5,266.0 121.6,266.0 122.8,266.0 124.0,266.0 125.2,266.0 126.4,266.0 127.6,266.0 128.8,266.0 129.9,266.0 131.1,266.0 132.3,266.0 133.5,266.0 134.7,266.0 135.9,266.0 137.1,266.0 138.3,266.0 139.4,266.0 140.6,266.0 141.8,266.0 143.0,266.0 144.2,266.0 145.4,266.0 146.6,266.0 147.7,266.0 148.9,266.0 150.1,266.0 151.3,266.0 152.5,266.0 153.7,266.0 154.9,266.0 156.1,266.0 157.2,266.0 158.4,266.0 159.6,266.0 160.8,266.0 162.0,266.0 163.2,266.0 164.4,266.0 165.5,266.0 166.7,266.0 167.9,266.0 169.1,266.0 170.3,266.0 171.5,266.0 172.7,266.0 173.9,266.0 175.0,266.0 176.2,266.0 177.4,266.0 178.6,266.0 179.8,266.0 181.0,266.0 182.2,266.0 183.3,266.0 184.5,266.0 185.7,266.0 186.9,266.0 188.1,266.0 189.3,266.0 190.5,266.0 191.7,266.0 192.8,266.0 194.0,266.0 195.2,266.0 196.4,266.0 197.6,266.0 198.8,266.0 200.0,266.0 201.1,266.0 202.3,266.0 203.5,266.0 204.7,266.0 205.9,266.0 207.1,266.0 208.3,266.0 209.5,266.0 210.6,266.0 211.8,266.0 213.0,266.0 214.2,266.0 215.4,266.0 216.6,266.0 217.8,266.0 218.9,266.0 220.1,266.0 221.3,266.0 222.5,266.0 223.7,266.0 224.9,266.0 226.1,266.0 227.3,266.0 228.4,266.0 229.6,266.0 230.8,266.0 232.0,266.0 233.2,266.0 234.4,266.0 235.6,266.0 236.7,266.0 237.9,266.0 239.1,266.0 240.3,266.0 241.5,266.0 242.7,266.0 243.9,266.0 245.1,266.0 246.2,266.0 247.4,266.0 248.6,266.0 249.8,266.0 251.0,266.0 252.2,266.0 253.4,266.0 254.5,266.0 255.7,266.0 256.9,266.0 258.1,266.0 259.3,266.0 260.5,266.0 261.7,266.0 262.9,266.0 264.0,266.0 265.2,266.0 266.4,266.0 267.6,266.0 268.8,266.0 270.0,266.0 271.2,266.0 272.3,266.0 273.5,266.0 274.7,266.0 275.9,266.0 277.1,266.0 278.3,266.0 279.5,266.0 280.7,266.0 281.8,266.0 283.0,266.0 284.2,266.0 285.4,266.0 286.6,266.0 287.8,266.0 289.0,266.0 290.1,266.0 291.3,266.0 292.5,266.0 293.7,266.0 294.9,266.0 296.1,266.0 297.3,266.0 298.5,266.0 299.6,266.0 300.8,266.0 302.0,266.0 303.2,266.0 304.4,266.0 305.6,266.0 306.8,266.0 307.9,266.0 309.1,266.0 310.3,266.0 311.5,266.0 312.7,266.0 313.9,266.0 315.1,266.0 316.3,266.0 317.4,266.0 318.6,266.0 319.8,266.0 321.0,266.0 322.2,266.0 323.4,266.0 324.6,266.0 325.7,266.0 326.9,266.0 328.1,266.0 329.3,266.0 330.5,266.0 331.7,266.0 332.9,266.0 334.1,266.0 335.2,266.0 336.4,266.0 337.6,266.0 338.8,266.0 340.0,266.0 341.2,266.0 342.4,266.0 343.5,266.0 344.7,266.0 345.9,266.0 347.1,266.0 348.3,266.0 349.5,266.0 350.7,266.0 351.9,266.0 353.0,266.0 354.2,266.0 355.4,266.0 356.6,266.0 357.8,266.0 359.0,266.0 360.2,266.0 361.3,266.0 362.5,266.0 363.7,266.0 364.9,266.0 366.1,266.0 367.3,266.0 368.5,266.0 369.7,266.0 370.8,266.0 372.0,266.0 373.2,266.0 374.4,266.0 375.6,266.0 376.8,266.0 378.0,266.0 379.1,266.0 380.3,266.0 381.5,266.0 382.7,266.0 383.9,266.0 385.1,266.0 386.3,266.0 387.5,266.0 388.6,266.0 389.8,266.0 391.0,266.0 392.2,266.0 393.4,266.0 394.6,266.0 395.8,266.0 396.9,266.0 398.1,266.0 399.3,266.0 400.5,266.0 401.7,266.0 402.9,266.0 404.1,266.0 405.3,266.0 406.4,266.0 407.6,266.0 408.8,266.0 410.0,266.0 411.2,266.0 412.4,266.0 413.6,266.0 414.7,266.0 415.9,266.0 417.1,266.0 418.3,266.0 419.5,266.0 420.7,266.0 421.9,266.0 423.1,266.0 424.2,266.0 425.4,266.0 426.6,266.0 427.8,266.0 429.0,266.0 430.2,266.0 431.4,266.0 432.5,266.0 433.7,266.0 434.9,266.0 436.1,266.0 437.3,266.0 438.5,266.0 439.7,266.0 440.9,266.0 442.0,266.0 443.2,266.0 444.4,266.0 445.6,266.0 446.8,266.0 448.0,266.0 449.2,266.0 450.3,266.0 451.5,266.0 452.7,266.0 453.9,266.0 455.1,266.0 456.3,266.0 457.5,266.0 458.7,266.0 459.8,266.0 461.0,266.0 462.2,266.0 463.4,266.0 464.6,266.0 465.8,266.0 467.0,266.0 468.1,266.0 469.3,266.0 470.5,266.0 471.7,266.0 472.9,266.0 474.1,266.0 475.3,266.0 476.5,266.0 477.6,266.0 478.8,266.0 480.0,266.0 481.2,266.0 482.4,266.0 483.6,266.0 484.8,266.0 485.9,266.0 487.1,266.0 488.3,266.0 489.5,266.0 490.7,266.0 491.9,266.0 493.1,266.0 494.3,266.0 495.4,266.0 496.6,266.0 497.8,266.0 499.0,266.0 500.2,266.0 501.4,266.0 502.6,266.0 503.7,266.0 504.9,266.0 506.1,266.0 507.3,266.0 508.5,266.0 509.7,266.0 510.9,266.0 512.1,266.0 513.2,266.0 514.4,266.0 515.6,266.0 516.8,266.0 518.0,266.0 519.2,266.0 520.4,266.0 521.5,266.0 522.7,266.0 523.9,266.0 525.1,266.0 526.3,266.0 527.5,266.0 528.7,266.0 529.9,266.0 531.0,266.0 532.2,266.0 533.4,266.0 534.6,266.0 535.8,266.0 537.0,266.0 538.2,266.0 539.3,266.0 540.5,266.0 541.7,266.0 542.9,266.0 544.1,266.0 545.3,266.0 546.5,266.0 547.7,266.0 548.8,266.0 550.0,266.0 551.2,266.0 552.4,266.0 553.6,266.0 554.8,266.0 556.0,266.0 557.1,266.0 558.3,266.0 559.5,266.0 560.7,266.0 561.9,266.0 563.1,266.0 564.3,266.0 565.5,266.0 566.6,266.0 567.8,266.0 569.0,266.0 570.2,266.0 571.4,266.0 572.6,266.0 573.8,266.0 574.9,266.0 576.1,266.0 577.3,266.0 578.5,266.0 579.7,266.0 580.9,266.0 582.1,266.0 583.3,266.0 584.4,266.0 585.6,266.0 586.8,266.0 588.0,266.0 589.2,266.0 590.4,266.0 591.6,266.0 592.7,266.0 593.9,266.0 595.1,266.0 596.3,266.0 597.5,266.0 598.7,266.0 599.9,266.0 601.1,266.0 602.2,266.0 603.4,266.0 604.6,266.0 605.8,266.0 607.0,266.0 608.2,266.0 609.4,266.0 610.5,266.0 611.7,266.0 612.9,266.0 614.1,266.0 615.3,266.0 616.5,266.0 617.7,266.0 618.9,266.0 620.0,266.0 621.2,266.0 622.4,266.0 623.6,266.0 624.8,266.0 626.0,266.0 627.2,266.0 628.3,266.0 629.5,266.0 630.7,266.0 631.9,266.0 633.1,266.0 634.3,266.0 635.5,266.0 636.7,266.0 637.8,266.0 639.0,266.0 640.2,266.0 641.4,266.0 642.6,266.0 643.8,266.0 645.0,266.0 646.1,266.0 647.3,266.0 648.5,266.0 649.7,266.0 650.9,266.0 652.1,266.0 653.3,266.0 654.5,266.0 655.6,266.0 656.8,266.0 658.0,266.0 659.2,266.0 660.4,266.0 661.6,266.0 662.8,266.0 663.9,266.0 665.1,266.0 666.3,266.0 667.5,266.0 668.7,266.0 669.9,266.0 671.1,266.0 672.3,266.0 673.4,266.0 674.6,266.0 675.8,266.0 677.0,266.0 678.2,266.0 679.4,266.0 680.6,266.0 681.7,266.0 682.9,266.0 684.1,266.0 685.3,266.0 686.5,266.0 687.7,266.0 688.9,266.0 690.1,266.0 691.2,266.0 692.4,266.0 693.6,266.0 694.8,266.0 696.0,266.0 697.2,266.0 698.4,266.0 699.5,266.0 700.7,266.0 701.9,266.0 703.1,266.0 704.3,266.0 705.5,266.0 706.7,266.0 707.9,266.0 709.0,266.0 710.2,266.0 711.4,266.0 712.6,266.0 713.8,266.0 715.0,266.0 716.2,266.0 717.3,266.0 718.5,266.0 719.7,266.0 720.9,266.0 722.1,266.0 723.3,266.0 724.5,266.0 725.7,266.0 726.8,266.0 728.0,266.0 729.2,266.0 730.4,266.0 731.6,266.0 732.8,266.0 734.0,266.0 735.1,266.0 736.3,266.0 737.5,266.0 738.7,266.0 739.9,266.0 741.1,266.0 742.3,266.0 743.5,266.0 744.6,266.0 745.8,266.0 747.0,266.0 748.2,266.0 749.4,266.0 750.6,266.0 751.8,266.0 752.9,266.0 754.1,266.0 755.3,266.0 756.5,266.0 757.7,266.0 758.9,266.0 760.1,266.0 761.3,266.0 762.4,266.0 763.6,266.0 764.8,266.0 766.0,266.0"/>
<line x1="606" y1="60" x2="628" y2="60" stroke="#24a148" stroke-width="2.2"/>
<text x="634" y="64" font-family="Arial" font-size="12">beta_deg</text>
</svg>