<svg xmlns="http://www.w3.org/2000/svg" width="820" height="320" viewBox="0 0 820 320">
<rect width="100%" height="100%" fill="#ffffff"/>
<text x="54" y="28" font-family="Arial" font-size="18" font-weight="700">Dynamic Pressure</text>
<line x1="54" y1="266" x2="766" y2="266" stroke="#1f2933"/>
<line x1="54" y1="54" x2="54" y2="266" stroke="#1f2933"/>
<text x="54" y="306" font-family="Arial" font-size="12">time (s)</text>
<text x="596" y="306" font-family="Arial" font-size="12">qbar (Pa)</text>
<text x="58" y="68" font-family="Arial" font-size="11">4.16e+04</text>
<text x="58" y="260" font-family="Arial" font-size="11">4.46e+03</text>
<polyline fill="none" stroke="#0f62fe" stroke-width="2.2" points="54.0,266.0 55.2,265.7 56.4,265.4 57.6,265.1 58.7,264.8 59.9,264.5 61.1,264.2 62.3,263.8 63.5,263.5 64.7,263.2 65.9,262.8 67.1,262.5 68.2,262.1 69.4,261.7 70.6,261.3 71.8,260.9 73.0,260.6 74.2,260.2 75.4,259.8 76.5,259.4 77.7,259.0 78.9,258.6 80.1,258.2 81.3,257.8 82.5,257.4 83.7,257.0 84.9,256.6 86.0,256.1 87.2,255.7 88.4,255.3 89.6,254.9 90.8,254.5 92.0,254.1 93.2,253.6 94.3,253.2 95.5,252.8 96.7,252.4 97.9,251.9 99.1,251.5 100.3,251.1 101.5,250.6 102.7,250.2 103.8,249.8 105.0,249.3 106.2,248.9 107.4,248.4 108.6,248.0 109.8,247.5 111.0,247.1 112.1,246.6 113.3,246.2 114.5,245.7 115.7,245.3 116.9,244.8 118.1,244.3 119.3,243.9 120.5,243.4 121.6,242.9 122.8,242.5 124.0,242.0 125.2,241.5 126.4,241.1 127.6,240.6 128.8,240.1 129.9,239.6 131.1,239.2 132.3,238.7 133.5,238.2 134.7,237.7 135.9,237.2 137.1,236.8 138.3,236.3 139.4,235.8 140.6,235.3 141.8,234.8 143.0,234.3 144.2,233.8 145.4,233.3 146.6,232.8 147.7,232.3 148.9,231.8 150.1,231.3 151.3,230.8 152.5,230.3 153.7,229.8 154.9,229.3 156.1,228.8 157.2,228.3 158.4,227.8 159.6,227.3 160.8,226.8 162.0,226.3 163.2,225.8 164.4,225.3 165.5,224.7 166.7,224.2 167.9,223.7 169.1,223.2 170.3,222.7 171.5,222.2 172.7,221.7 173.9,221.1 175.0,220.6 176.2,220.1 177.4,219.6 178.6,219.1 179.8,218.5 181.0,218.0 182.2,217.5 183.3,217.0 184.5,216.4 185.7,215.9 186.9,215.4 188.1,214.9 189.3,214.3 190.5,213.8 191.7,213.3 192.8,212.8 194.0,212.2 195.2,211.7 196.4,211.2 197.6,210.7 198.8,210.1 200.0,209.6 201.1,209.1 202.3,208.5 203.5,208.0 204.7,207.5 205.9,206.9 207.1,206.4 208.3,205.9 209.5,205.3 210.6,204.8 211.8,204.3 213.0,203.7 214.2,203.2 215.4,202.7 216.6,202.1 217.8,201.6 218.9,201.1 220.1,200.5 221.3,200.0 222.5,199.4 223.7,198.9 224.9,198.4 226.1,197.8 227.3,197.3 228.4,196.7 229.6,196.2 230.8,195.7 232.0,195.1 233.2,194.6 234.4,194.0 235.6,193.5 236.7,193.0 237.9,192.4 239.1,191.9 240.3,191.3 241.5,190.8 242.7,190.2 243.9,189.7 245.1,189.1 246.2,188.6 247.4,188.0 248.6,187.5 249.8,187.0 251.0,186.4 252.2,185.9 253.4,185.3 254.5,184.8 255.7,184.2 256.9,183.7 258.1,183.1 259.3,182.6 260.5,182.0 261.7,181.5 262.9,180.9 264.0,180.3 265.2,179.8 266.4,179.2 267.6,178.7 268.8,178.1 270.0,177.6 271.2,177.0 272.3,176.5 273.5,175.9 274.7,175.4 275.9,174.8 277.1,174.2 278.3,173.7 279.5,173.1 280.7,172.6 281.8,172.0 283.0,171.4 284.2,170.9 285.4,170.3 286.6,169.8 287.8,169.2 289.0,168.7 290.1,168.1 291.3,167.6 292.5,167.0 293.7,166.4 294.9,165.9 296.1,165.3 297.3,164.7 298.5,164.1 299.6,163.5 300.8,163.0 302.0,162.4 303.2,161.9 304.4,161.3 305.6,160.7 306.8,160.2 307.9,159.6 309.1,159.1 310.3,158.5 311.5,158.0 312.7,157.4 313.9,156.9 315.1,156.3 316.3,155.8 317.4,155.2 318.6,154.7 319.8,154.1 321.0,153.6 322.2,153.0 323.4,152.4 324.6,151.9 325.7,151.3 326.9,150.7 328.1,150.1 329.3,149.6 330.5,149.0 331.7,148.4 332.9,147.8 334.1,147.3 335.2,146.7 336.4,146.1 337.6,145.5 338.8,145.0 340.0,144.4 341.2,143.8 342.4,143.3 343.5,142.7 344.7,142.1 345.9,141.6 347.1,141.0 348.3,140.5 349.5,139.9 350.7,139.4 351.9,138.8 353.0,138.3 354.2,137.7 355.4,137.2 356.6,136.6 357.8,136.1 359.0,135.6 360.2,135.1 361.3,134.5 362.5,134.0 363.7,133.4 364.9,132.9 366.1,132.3 367.3,131.8 368.5,131.3 369.7,130.7 370.8,130.2 372.0,129.7 373.2,129.1 374.4,128.6 375.6,128.0 376.8,127.5 378.0,127.0 379.1,126.4 380.3,125.9 381.5,125.4 382.7,124.8 383.9,124.3 385.1,123.7 386.3,123.2 387.5,122.7 388.6,122.1 389.8,121.6 391.0,121.1 392.2,120.5 393.4,120.0 394.6,119.4 395.8,118.9 396.9,118.4 398.1,117.9 399.3,117.3 400.5,116.8 401.7,116.3 402.9,115.8 404.1,115.2 405.3,114.7 406.4,114.2 407.6,113.7 408.8,113.1 410.0,112.6 411.2,112.1 412.4,111.6 413.6,111.1 414.7,110.6 415.9,110.0 417.1,109.5 418.3,109.0 419.5,108.5 420.7,108.0 421.9,107.5 423.1,107.0 424.2,106.5 425.4,106.0 426.6,105.5 427.8,104.9 429.0,104.5 430.2,103.9 431.4,103.5 432.5,102.9 433.7,102.5 434.9,101.9 436.1,101.5 437.3,101.0 438.5,100.5 439.7,100.0 440.9,99.5 442.0,99.0 443.2,98.5 444.4,98.0 445.6,97.5 446.8,97.0 448.0,96.5 449.2,96.0 450.3,95.5 451.5,95.0 452.7,94.6 453.9,94.1 455.1,93.6 456.3,93.1 457.5,92.6 458.7,92.1 459.8,91.7 461.0,91.2 462.2,90.7 463.4,90.2 464.6,89.8 465.8,89.3 467.0,88.8 468.1,88.3 469.3,87.9 470.5,87.4 471.7,86.9 472.9,86.5 474.1,86.0 475.3,85.5 476.5,85.1 477.6,84.6 478.8,84.2 480.0,83.7 481.2,83.3 482.4,82.8 483.6,82.3 484.8,81.9 485.9,81.4 487.1,81.0 488.3,80.6 489.5,80.1 490.7,79.7 491.9,79.2 493.1,78.8 494.3,78.3 495.4,77.9 496.6,77.4 497.8,77.0 499.0,76.6 500.2,76.2 501.4,75.7 502.6,75.3 503.7,74.9 504.9,74.5 506.1,74.0 507.3,73.6 508.5,73.2 509.7,72.8 510.9,72.3 512.1,72.0 513.2,71.5 514.4,71.1 515.6,70.7 516.8,70.3 518.0,69.9 519.2,69.5 520.4,69.1 521.5,68.7 522.7,68.3 523.9,67.9 525.1,67.5 526.3,67.1 527.5,66.7 528.7,66.3 529.9,65.9 531.0,65.5 532.2,65.1 533.4,64.8 534.6,64.4 535.8,64.0 537.0,63.6 538.2,63.2 539.3,62.8 540.5,62.5 541.7,62.1 542.9,61.7 544.1,61.4 545.3,61.0 546.5,60.6 547.7,60.3 548.8,59.9 550.0,59.6 551.2,59.2 552.4,58.8 553.6,58.5 554.8,58.1 556.0,57.7 557.1,57.4 558.3,57.0 559.5,56.7 560.7,56.3 561.9,56.0 563.1,55.7 564.3,55.3 565.5,55.0 566.6,54.7 567.8,54.3 569.0,54.0 570.2,54.9 571.4,55.9 572.6,56.7 573.8,57.7 574.9,58.6 576.1,59.5 577.3,60.4 578.5,61.3 579.7,62.1 580.9,63.0 582.1,63.9 583.3,64.8 584.4,65.6 585.6,66.5 586.8,67.3 588.0,68.2 589.2,69.0 590.4,69.9 591.6,70.7 592.7,71.5 593.9,72.3 595.1,73.1 596.3,73.9 597.5,74.7 598.7,75.5 599.9,76.3 601.1,77.1 602.2,77.9 603.4,78.6 604.6,79.4 605.8,80.2 607.0,81.0 608.2,81.7 609.4,82.5 610.5,83.2 611.7,84.0 612.9,84.7 614.1,85.5 615.3,86.2 616.5,86.9 617.7,87.6 618.9,88.4 620.0,89.1 621.2,89.8 622.4,90.5 623.6,91.2 624.8,91.9 626.0,92.6 627.2,93.3 628.3,94.0 629.5,94.6 630.7,95.3 631.9,96.0 633.1,96.7 634.3,97.3 635.5,98.0 636.7,98.6 637.8,99.3 639.0,99.9 640.2,100.6 641.4,101.2 642.6,101.9 643.8,102.5 645.0,103.2 646.1,103.8 647.3,104.4 648.5,105.0 649.7,105.7 650.9,106.3 652.1,106.9 653.3,107.5 654.5,108.1 655.6,108.7 656.8,109.3 658.0,109.9 659.2,110.5 660.4,111.1 661.6,111.7 662.8,112.3 663.9,112.9 665.1,113.4 666.3,114.0 667.5,114.6 668.7,115.2 669.9,115.7 671.1,116.3 672.3,116.8 673.4,117.4 674.6,117.9 675.8,118.5 677.0,119.0 678.2,119.6 679.4,120.1 680.6,120.7 681.7,121.2 682.9,121.7 684.1,122.3 685.3,122.8 686.5,123.3 687.7,123.9 688.9,124.4 690.1,124.9 691.2,125.4 692.4,125.9 693.6,126.4 694.8,126.9 696.0,127.4 697.2,128.0 698.4,128.4 699.5,128.9 700.7,129.4 701.9,129.9 703.1,130.4 704.3,130.9 705.5,131.4 706.7,131.9 707.9,132.3 709.0,132.8 710.2,133.3 711.4,133.8 712.6,134.2 713.8,134.7 715.0,135.2 716.2,135.7 717.3,136.1 718.5,136.6 719.7,137.0 720.9,137.5 722.1,137.9 723.3,138.4 724.5,138.8 725.7,139.3 726.8,139.7 728.0,140.2 729.2,140.6 730.4,141.1 731.6,141.5 732.8,141.9 734.0,142.4 735.1,142.8 736.3,143.2 737.5,143.6 738.7,144.0 739.9,144.5 741.1,144.9 742.3,145.3 743.5,145.7 744.6,146.1 745.8,146.5 747.0,146.9 748.2,147.3 749.4,147.7 750.6,148.1 751.8,148.5 752.9,148.9 754.1,149.3 755.3,149.7 756.5,150.1 757.7,150.5 758.9,150.9 760.1,151.2 761.3,151.6 762.4,152.0 763.6,152.4 764.8,152.7 766.0,153.1"/>
<line x1="606" y1="42" x2="628" y2="42" stroke="#0f62fe" stroke-width="2.2"/>
<text x="634" y="46" font-family="Arial" font-size="12">qbar_pa</text>
</svg>