<svg xmlns="http://www.w3.org/2000/svg" width="820" height="320" viewBox="0 0 820 320">
<rect width="100%" height="100%" fill="#ffffff"/>
<text x="54" y="28" font-family="Arial" font-size="18" font-weight="700">Velocity X</text>
<line x1="54" y1="266" x2="766" y2="266" stroke="#1f2933"/>
<line x1="54" y1="54" x2="54" y2="266" stroke="#1f2933"/>
<text x="54" y="306" font-family="Arial" font-size="12">time (s)</text>
<text x="596" y="306" font-family="Arial" font-size="12">vx (m/s)</text>
<text x="58" y="68" font-family="Arial" font-size="11">200</text>
<text x="58" y="260" font-family="Arial" font-size="11">85</text>
<polyline fill="none" stroke="#0f62fe" stroke-width="2.2" points="54.0,266.0 55.2,265.1 56.4,264.1 57.6,263.2 58.7,262.2 59.9,261.2 61.1,260.2 62.3,259.2 63.5,258.2 64.7,257.1 65.9,256.1 67.1,255.0 68.2,253.9 69.4,252.8 70.6,251.7 71.8,250.6 73.0,249.5 74.2,248.4 75.4,247.3 76.5,246.1 77.7,245.0 78.9,243.9 80.1,242.8 81.3,241.7 82.5,240.6 83.7,239.5 84.9,238.4 86.0,237.3 87.2,236.2 88.4,235.1 89.6,234.0 90.8,232.9 92.0,231.9 93.2,230.8 94.3,229.7 95.5,228.6 96.7,227.5 97.9,226.4 99.1,225.3 100.3,224.3 101.5,223.2 102.7,222.1 103.8,221.0 105.0,220.0 106.2,218.9 107.4,217.8 108.6,216.7 109.8,215.7 111.0,214.6 112.1,213.5 113.3,212.5 114.5,211.4 115.7,210.4 116.9,209.3 118.1,208.2 119.3,207.2 120.5,206.1 121.6,205.1 122.8,204.0 124.0,203.0 125.2,201.9 126.4,200.9 127.6,199.8 128.8,198.8 129.9,197.8 131.1,196.7 132.3,195.7 133.5,194.7 134.7,193.6 135.9,192.6 137.1,191.6 138.3,190.5 139.4,189.5 140.6,188.5 141.8,187.4 143.0,186.4 144.2,185.4 145.4,184.4 146.6,183.4 147.7,182.3 148.9,181.3 150.1,180.3 151.3,179.3 152.5,178.3 153.7,177.3 154.9,176.3 156.1,175.3 157.2,174.3 158.4,173.3 159.6,172.3 160.8,171.3 162.0,170.3 163.2,169.3 164.4,168.3 165.5,167.3 166.7,166.4 167.9,165.4 169.1,164.4 170.3,163.4 171.5,162.4 172.7,161.5 173.9,160.5 175.0,159.5 176.2,158.6 177.4,157.6 178.6,156.7 179.8,155.7 181.0,154.7 182.2,153.8 183.3,152.8 184.5,151.9 185.7,151.0 186.9,150.0 188.1,149.1 189.3,148.1 190.5,147.2 191.7,146.3 192.8,145.3 194.0,144.4 195.2,143.5 196.4,142.6 197.6,141.6 198.8,140.7 200.0,139.8 201.1,138.9 202.3,138.0 203.5,137.1 204.7,136.2 205.9,135.3 207.1,134.4 208.3,133.5 209.5,132.6 210.6,131.7 211.8,130.8 213.0,129.9 214.2,129.0 215.4,128.1 216.6,127.2 217.8,126.3 218.9,125.5 220.1,124.6 221.3,123.7 222.5,122.8 223.7,122.0 224.9,121.1 226.1,120.2 227.3,119.4 228.4,118.5 229.6,117.6 230.8,116.8 232.0,115.9 233.2,115.1 234.4,114.2 235.6,113.4 236.7,112.5 237.9,111.7 239.1,110.8 240.3,110.0 241.5,109.1 242.7,108.3 243.9,107.4 245.1,106.6 246.2,105.8 247.4,104.9 248.6,104.1 249.8,103.3 251.0,102.5 252.2,101.6 253.4,100.8 254.5,100.0 255.7,99.2 256.9,98.3 258.1,97.5 259.3,96.7 260.5,95.9 261.7,95.1 262.9,94.3 264.0,93.4 265.2,92.6 266.4,91.8 267.6,91.0 268.8,90.2 270.0,89.4 271.2,88.6 272.3,87.8 273.5,87.0 274.7,86.2 275.9,85.4 277.1,84.6 278.3,83.8 279.5,83.0 280.7,82.2 281.8,81.5 283.0,80.6 284.2,79.9 285.4,79.1 286.6,78.3 287.8,77.5 289.0,76.7 290.1,76.0 291.3,75.2 292.5,74.4 293.7,73.7 294.9,72.8 296.1,72.1 297.3,71.2 298.5,70.5 299.6,69.7 300.8,68.9 302.0,68.2 303.2,67.4 304.4,66.7 305.6,66.0 306.8,65.2 307.9,64.5 309.1,63.7 310.3,62.9 311.5,62.1 312.7,62.6 313.9,63.1 315.1,63.7 316.3,64.2 317.4,64.7 318.6,65.2 319.8,65.8 321.0,66.3 322.2,66.9 323.4,67.4 324.6,68.0 325.7,68.5 326.9,69.1 328.1,69.6 329.3,70.2 330.5,70.7 331.7,71.2 332.9,71.7 334.1,72.2 335.2,72.7 336.4,73.2 337.6,73.7 338.8,74.2 340.0,74.7 341.2,75.2 342.4,75.6 343.5,76.2 344.7,76.6 345.9,77.1 347.1,77.6 348.3,78.1 349.5,78.6 350.7,79.1 351.9,79.6 353.0,80.1 354.2,80.5 355.4,81.1 356.6,81.5 357.8,82.0 359.0,82.5 360.2,83.0 361.3,83.5 362.5,84.0 363.7,84.5 364.9,85.0 366.1,85.4 367.3,85.9 368.5,86.3 369.7,86.8 370.8,87.3 372.0,87.7 373.2,88.2 374.4,88.7 375.6,89.1 376.8,89.6 378.0,90.0 379.1,90.5 380.3,90.9 381.5,91.4 382.7,91.8 383.9,92.3 385.1,92.7 386.3,93.2 387.5,93.6 388.6,94.0 389.8,94.5 391.0,94.9 392.2,95.3 393.4,95.8 394.6,96.2 395.8,96.6 396.9,97.0 398.1,97.5 399.3,97.9 400.5,98.3 401.7,98.7 402.9,99.2 404.1,99.6 405.3,100.0 406.4,100.4 407.6,100.8 408.8,101.2 410.0,101.7 411.2,102.1 412.4,102.5 413.6,102.9 414.7,103.3 415.9,103.7 417.1,104.1 418.3,104.5 419.5,104.9 420.7,105.3 421.9,105.7 423.1,106.1 424.2,106.5 425.4,106.8 426.6,107.2 427.8,107.6 429.0,108.0 430.2,108.4 431.4,108.8 432.5,109.1 433.7,109.5 434.9,109.9 436.1,110.3 437.3,110.6 438.5,111.0 439.7,111.4 440.9,111.8 442.0,112.1 443.2,112.5 444.4,112.9 445.6,113.3 446.8,113.6 448.0,114.0 449.2,114.3 450.3,114.7 451.5,115.1 452.7,115.5 453.9,115.8 455.1,116.2 456.3,116.5 457.5,116.9 458.7,117.2 459.8,117.6 461.0,117.9 462.2,118.3 463.4,118.6 464.6,119.0 465.8,119.3 467.0,119.7 468.1,120.0 469.3,120.4 470.5,120.7 471.7,119.8 472.9,118.9 474.1,118.0 475.3,117.1 476.5,116.3 477.6,115.4 478.8,114.5 480.0,113.6 481.2,112.7 482.4,111.8 483.6,111.0 484.8,110.1 485.9,109.2 487.1,108.3 488.3,107.5 489.5,106.6 490.7,105.7 491.9,104.9 493.1,104.0 494.3,103.1 495.4,102.3 496.6,101.4 497.8,100.6 499.0,99.7 500.2,98.9 501.4,98.0 502.6,97.2 503.7,96.4 504.9,95.6 506.1,94.7 507.3,93.9 508.5,93.0 509.7,92.2 510.9,91.4 512.1,90.6 513.2,89.8 514.4,89.0 515.6,88.1 516.8,87.4 518.0,86.5 519.2,85.7 520.4,84.9 521.5,84.1 522.7,83.3 523.9,82.5 525.1,81.7 526.3,81.0 527.5,80.2 528.7,79.4 529.9,78.6 531.0,77.8 532.2,77.0 533.4,76.3 534.6,75.5 535.8,74.7 537.0,73.9 538.2,73.2 539.3,72.4 540.5,71.7 541.7,70.9 542.9,70.2 544.1,69.4 545.3,68.6 546.5,67.9 547.7,67.1 548.8,66.4 550.0,65.6 551.2,64.9 552.4,64.2 553.6,63.4 554.8,62.7 556.0,61.9 557.1,61.2 558.3,60.5 559.5,59.8 560.7,59.0 561.9,58.3 563.1,57.6 564.3,56.9 565.5,56.1 566.6,55.4 567.8,54.7 569.0,54.0 570.2,54.5 571.4,55.0 572.6,55.5 573.8,56.1 574.9,56.5 576.1,57.1 577.3,57.6 578.5,58.1 579.7,58.6 580.9,59.1 582.1,59.6 583.3,60.1 584.4,60.6 585.6,61.1 586.8,61.6 588.0,62.1 589.2,62.5 590.4,63.1 591.6,63.5 592.7,64.0 593.9,64.5 595.1,65.0 596.3,65.5 597.5,66.0 598.7,66.4 599.9,66.9 601.1,67.4 602.2,67.9 603.4,68.4 604.6,68.9 605.8,69.3 607.0,69.8 608.2,70.3 609.4,70.8 610.5,71.2 611.7,71.7 612.9,72.1 614.1,72.6 615.3,73.1 616.5,73.6 617.7,74.0 618.9,74.5 620.0,74.9 621.2,75.4 622.4,75.8 623.6,76.3 624.8,76.8 626.0,77.2 627.2,77.7 628.3,78.2 629.5,78.6 630.7,79.1 631.9,79.5 633.1,80.0 634.3,80.4 635.5,80.9 636.7,81.3 637.8,81.8 639.0,82.2 640.2,82.6 641.4,83.1 642.6,83.5 643.8,83.9 645.0,84.4 646.1,84.8 647.3,85.3 648.5,85.7 649.7,86.2 650.9,86.6 652.1,87.0 653.3,87.4 654.5,87.9 655.6,88.3 656.8,88.8 658.0,89.2 659.2,89.6 660.4,90.0 661.6,90.5 662.8,90.9 663.9,91.3 665.1,91.7 666.3,92.2 667.5,92.6 668.7,93.0 669.9,93.4 671.1,93.9 672.3,94.3 673.4,94.7 674.6,95.1 675.8,95.5 677.0,95.9 678.2,96.3 679.4,96.7 680.6,97.2 681.7,97.5 682.9,98.0 684.1,98.3 685.3,98.8 686.5,99.1 687.7,99.6 688.9,99.9 690.1,100.4 691.2,100.7 692.4,101.2 693.6,101.5 694.8,101.9 696.0,102.3 697.2,102.7 698.4,103.1 699.5,103.5 700.7,103.9 701.9,104.3 703.1,104.6 704.3,105.0 705.5,105.4 706.7,105.8 707.9,106.2 709.0,106.6 710.2,106.9 711.4,107.3 712.6,107.7 713.8,108.1 715.0,108.4 716.2,108.8 717.3,109.2 718.5,109.6 719.7,109.9 720.9,110.3 722.1,110.7 723.3,111.0 724.5,111.4 725.7,111.8 726.8,112.1 728.0,112.5 729.2,112.8 730.4,113.2 731.6,113.6 732.8,113.9 734.0,114.3 735.1,114.6 736.3,115.0 737.5,115.3 738.7,115.7 739.9,116.0 741.1,116.4 742.3,116.7 743.5,117.1 744.6,117.4 745.8,117.8 747.0,118.1 748.2,118.5 749.4,118.8 750.6,119.2 751.8,119.5 752.9,119.8 754.1,120.2 755.3,120.5 756.5,120.9 757.7,121.2 758.9,121.6 760.1,121.9 761.3,122.3 762.4,122.6 763.6,122.9 764.8,123.3 766.0,123.6"/>
<line x1="606" y1="42" x2="628" y2="42" stroke="#0f62fe" stroke-width="2.2"/>
<text x="634" y="46" font-family="Arial" font-size="12">vx_mps</text>
</svg>