<svg xmlns="http://www.w3.org/2000/svg" width="820" height="320" viewBox="0 0 820 320">
<rect width="100%" height="100%" fill="#ffffff"/>
<text x="54" y="28" font-family="Arial" font-size="18" font-weight="700">Dynamic Pressure</text>
<line x1="54" y1="266" x2="766" y2="266" stroke="#1f2933"/>
<line x1="54" y1="54" x2="54" y2="266" stroke="#1f2933"/>
<text x="54" y="306" font-family="Arial" font-size="12">time (s)</text>
<text x="596" y="306" font-family="Arial" font-size="12">qbar (Pa)</text>
<text x="58" y="68" font-family="Arial" font-size="11">2.43e+04</text>
<text x="58" y="260" font-family="Arial" font-size="11">4.46e+03</text>
<polyline fill="none" stroke="#0f62fe" stroke-width="2.2" points="54.0,266.0 55.2,265.5 56.4,264.9 57.6,264.3 58.7,263.8 59.9,263.2 61.1,262.6 62.3,261.9 63.5,261.3 64.7,260.7 65.9,260.0 67.1,259.3 68.2,258.6 69.4,257.9 70.6,257.2 71.8,256.5 73.0,255.7 74.2,255.0 75.4,254.3 76.5,253.5 77.7,252.8 78.9,252.0 80.1,251.3 81.3,250.5 82.5,249.8 83.7,249.0 84.9,248.2 86.0,247.4 87.2,246.7 88.4,245.9 89.6,245.1 90.8,244.3 92.0,243.5 93.2,242.7 94.3,241.9 95.5,241.1 96.7,240.3 97.9,239.5 99.1,238.7 100.3,237.9 101.5,237.0 102.7,236.2 103.8,235.4 105.0,234.5 106.2,233.7 107.4,232.9 108.6,232.0 109.8,231.2 111.0,230.3 112.1,229.5 113.3,228.6 114.5,227.8 115.7,226.9 116.9,226.0 118.1,225.2 119.3,224.3 120.5,223.4 121.6,222.6 122.8,221.7 124.0,220.8 125.2,219.9 126.4,219.0 127.6,218.1 128.8,217.2 129.9,216.3 131.1,215.4 132.3,214.5 133.5,213.6 134.7,212.7 135.9,211.8 137.1,210.9 138.3,210.0 139.4,209.1 140.6,208.1 141.8,207.2 143.0,206.3 144.2,205.3 145.4,204.4 146.6,203.5 147.7,202.5 148.9,201.6 150.1,200.7 151.3,199.7 152.5,198.8 153.7,197.8 154.9,196.9 156.1,195.9 157.2,195.0 158.4,194.0 159.6,193.0 160.8,192.1 162.0,191.1 163.2,190.2 164.4,189.2 165.5,188.2 166.7,187.3 167.9,186.3 169.1,185.3 170.3,184.3 171.5,183.4 172.7,182.4 173.9,181.4 175.0,180.4 176.2,179.5 177.4,178.5 178.6,177.5 179.8,176.5 181.0,175.5 182.2,174.6 183.3,173.6 184.5,172.6 185.7,171.6 186.9,170.6 188.1,169.6 189.3,168.6 190.5,167.6 191.7,166.6 192.8,165.6 194.0,164.6 195.2,163.7 196.4,162.7 197.6,161.7 198.8,160.7 200.0,159.7 201.1,158.7 202.3,157.7 203.5,156.7 204.7,155.7 205.9,154.6 207.1,153.6 208.3,152.6 209.5,151.6 210.6,150.6 211.8,149.6 213.0,148.6 214.2,147.6 215.4,146.6 216.6,145.6 217.8,144.6 218.9,143.6 220.1,142.5 221.3,141.5 222.5,140.5 223.7,139.5 224.9,138.5 226.1,137.5 227.3,136.4 228.4,135.4 229.6,134.4 230.8,133.4 232.0,132.4 233.2,131.3 234.4,130.3 235.6,129.3 236.7,128.3 237.9,127.2 239.1,126.2 240.3,125.2 241.5,124.2 242.7,123.1 243.9,122.1 245.1,121.1 246.2,120.0 247.4,119.0 248.6,118.0 249.8,116.9 251.0,115.9 252.2,114.9 253.4,113.8 254.5,112.8 255.7,111.8 256.9,110.7 258.1,109.7 259.3,108.7 260.5,107.6 261.7,106.6 262.9,105.5 264.0,104.5 265.2,103.4 266.4,102.4 267.6,101.4 268.8,100.3 270.0,99.3 271.2,98.2 272.3,97.2 273.5,96.1 274.7,95.1 275.9,94.0 277.1,93.0 278.3,91.9 279.5,90.9 280.7,89.8 281.8,88.8 283.0,87.7 284.2,86.6 285.4,85.6 286.6,84.5 287.8,83.5 289.0,82.4 290.1,81.4 291.3,80.3 292.5,79.3 293.7,78.2 294.9,77.1 296.1,76.0 297.3,74.9 298.5,73.9 299.6,72.8 300.8,71.7 302.0,70.7 303.2,69.7 304.4,68.6 305.6,67.6 306.8,66.5 307.9,65.5 309.1,64.4 310.3,63.3 311.5,62.2 312.7,62.9 313.9,63.6 315.1,64.4 316.3,65.1 317.4,65.8 318.6,66.6 319.8,67.3 321.0,68.1 322.2,68.8 323.4,69.6 324.6,70.3 325.7,71.1 326.9,71.8 328.1,72.5 329.3,73.3 330.5,74.0 331.7,74.7 332.9,75.4 334.1,76.1 335.2,76.8 336.4,77.5 337.6,78.1 338.8,78.8 340.0,79.5 341.2,80.2 342.4,80.8 343.5,81.5 344.7,82.1 345.9,82.8 347.1,83.4 348.3,84.1 349.5,84.8 350.7,85.4 351.9,86.1 353.0,86.8 354.2,87.4 355.4,88.1 356.6,88.7 357.8,89.4 359.0,90.0 360.2,90.7 361.3,91.3 362.5,92.0 363.7,92.6 364.9,93.2 366.1,93.8 367.3,94.5 368.5,95.1 369.7,95.7 370.8,96.3 372.0,96.9 373.2,97.5 374.4,98.1 375.6,98.7 376.8,99.3 378.0,99.9 379.1,100.5 380.3,101.1 381.5,101.7 382.7,102.3 383.9,102.9 385.1,103.4 386.3,104.0 387.5,104.6 388.6,105.2 389.8,105.7 391.0,106.3 392.2,106.9 393.4,107.4 394.6,108.0 395.8,108.6 396.9,109.1 398.1,109.7 399.3,110.2 400.5,110.8 401.7,111.3 402.9,111.8 404.1,112.4 405.3,112.9 406.4,113.4 407.6,114.0 408.8,114.5 410.0,115.0 411.2,115.6 412.4,116.1 413.6,116.6 414.7,117.1 415.9,117.6 417.1,118.2 418.3,118.7 419.5,119.2 420.7,119.7 421.9,120.2 423.1,120.7 424.2,121.2 425.4,121.6 426.6,122.2 427.8,122.6 429.0,123.1 430.2,123.6 431.4,124.1 432.5,124.6 433.7,125.1 434.9,125.5 436.1,126.0 437.3,126.5 438.5,126.9 439.7,127.4 440.9,127.9 442.0,128.3 443.2,128.8 444.4,129.3 445.6,129.7 446.8,130.2 448.0,130.6 449.2,131.1 450.3,131.5 451.5,132.0 452.7,132.4 453.9,132.9 455.1,133.3 456.3,133.8 457.5,134.2 458.7,134.6 459.8,135.1 461.0,135.5 462.2,136.0 463.4,136.4 464.6,136.8 465.8,137.2 467.0,137.7 468.1,138.1 469.3,138.5 470.5,138.9 471.7,137.9 472.9,136.9 474.1,135.8 475.3,134.8 476.5,133.8 477.6,132.7 478.8,131.7 480.0,130.7 481.2,129.6 482.4,128.6 483.6,127.6 484.8,126.5 485.9,125.5 487.1,124.4 488.3,123.4 489.5,122.4 490.7,121.3 491.9,120.3 493.1,119.3 494.3,118.2 495.4,117.2 496.6,116.2 497.8,115.1 499.0,114.1 500.2,113.1 501.4,112.0 502.6,111.0 503.7,109.9 504.9,108.9 506.1,107.9 507.3,106.9 508.5,105.8 509.7,104.8 510.9,103.7 512.1,102.7 513.2,101.7 514.4,100.7 515.6,99.6 516.8,98.6 518.0,97.6 519.2,96.5 520.4,95.5 521.5,94.5 522.7,93.4 523.9,92.4 525.1,91.4 526.3,90.4 527.5,89.3 528.7,88.3 529.9,87.3 531.0,86.3 532.2,85.3 533.4,84.3 534.6,83.2 535.8,82.2 537.0,81.2 538.2,80.2 539.3,79.1 540.5,78.2 541.7,77.1 542.9,76.1 544.1,75.1 545.3,74.1 546.5,73.1 547.7,72.1 548.8,71.0 550.0,70.0 551.2,69.0 552.4,68.0 553.6,67.0 554.8,66.0 556.0,65.0 557.1,64.0 558.3,63.0 559.5,62.0 560.7,61.0 561.9,60.0 563.1,59.0 564.3,58.0 565.5,57.0 566.6,56.0 567.8,55.0 569.0,54.0 570.2,54.7 571.4,55.5 572.6,56.2 573.8,56.9 574.9,57.6 576.1,58.4 577.3,59.1 578.5,59.8 579.7,60.5 580.9,61.3 582.1,61.9 583.3,62.7 584.4,63.4 585.6,64.1 586.8,64.8 588.0,65.5 589.2,66.1 590.4,66.9 591.6,67.5 592.7,68.2 593.9,68.9 595.1,69.6 596.3,70.2 597.5,70.9 598.7,71.6 599.9,72.3 601.1,72.9 602.2,73.6 603.4,74.2 604.6,74.9 605.8,75.5 607.0,76.2 608.2,76.8 609.4,77.5 610.5,78.1 611.7,78.8 612.9,79.4 614.1,80.1 615.3,80.7 616.5,81.4 617.7,82.0 618.9,82.6 620.0,83.2 621.2,83.9 622.4,84.5 623.6,85.1 624.8,85.7 626.0,86.3 627.2,86.9 628.3,87.6 629.5,88.1 630.7,88.8 631.9,89.4 633.1,90.0 634.3,90.6 635.5,91.2 636.7,91.7 637.8,92.4 639.0,92.9 640.2,93.5 641.4,94.1 642.6,94.7 643.8,95.3 645.0,95.9 646.1,96.4 647.3,97.0 648.5,97.6 649.7,98.2 650.9,98.7 652.1,99.3 653.3,99.9 654.5,100.4 655.6,101.0 656.8,101.6 658.0,102.1 659.2,102.7 660.4,103.2 661.6,103.8 662.8,104.3 663.9,104.9 665.1,105.4 666.3,106.0 667.5,106.5 668.7,107.1 669.9,107.6 671.1,108.1 672.3,108.7 673.4,109.2 674.6,109.7 675.8,110.2 677.0,110.8 678.2,111.3 679.4,111.8 680.6,112.3 681.7,112.8 682.9,113.4 684.1,113.8 685.3,114.4 686.5,114.9 687.7,115.4 688.9,115.9 690.1,116.4 691.2,116.9 692.4,117.4 693.6,117.9 694.8,118.4 696.0,118.8 697.2,119.3 698.4,119.8 699.5,120.3 700.7,120.8 701.9,121.3 703.1,121.7 704.3,122.2 705.5,122.7 706.7,123.2 707.9,123.6 709.0,124.1 710.2,124.6 711.4,125.0 712.6,125.5 713.8,126.0 715.0,126.4 716.2,126.9 717.3,127.3 718.5,127.8 719.7,128.2 720.9,128.7 722.1,129.1 723.3,129.6 724.5,130.0 725.7,130.5 726.8,130.9 728.0,131.3 729.2,131.8 730.4,132.2 731.6,132.6 732.8,133.1 734.0,133.5 735.1,133.9 736.3,134.3 737.5,134.8 738.7,135.2 739.9,135.6 741.1,136.0 742.3,136.5 743.5,136.9 744.6,137.3 745.8,137.7 747.0,138.1 748.2,138.5 749.4,138.9 750.6,139.3 751.8,139.7 752.9,140.1 754.1,140.5 755.3,140.9 756.5,141.3 757.7,141.7 758.9,142.1 760.1,142.5 761.3,142.9 762.4,143.3 763.6,143.7 764.8,144.1 766.0,144.5"/>
<line x1="606" y1="42" x2="628" y2="42" stroke="#0f62fe" stroke-width="2.2"/>
<text x="634" y="46" font-family="Arial" font-size="12">qbar_pa</text>
</svg>