<svg xmlns="http://www.w3.org/2000/svg" width="820" height="320" viewBox="0 0 820 320">
<rect width="100%" height="100%" fill="#ffffff"/>
<text x="54" y="28" font-family="Arial" font-size="18" font-weight="700">Control Surfaces</text>
<line x1="54" y1="266" x2="766" y2="266" stroke="#1f2933"/>
<line x1="54" y1="54" x2="54" y2="266" stroke="#1f2933"/>
<text x="54" y="306" font-family="Arial" font-size="12">time (s)</text>
<text x="596" y="306" font-family="Arial" font-size="12">deflection (deg)</text>
<text x="58" y="68" font-family="Arial" font-size="11">0</text>
<text x="58" y="260" font-family="Arial" font-size="11">-4.78</text>
<polyline fill="none" stroke="#0f62fe" stroke-width="2.2" points="54.0,173.7 55.2,140.0 56.4,96.3 57.6,89.8 58.7,112.6 59.9,138.7 61.1,153.5 62.3,158.3 63.5,160.6 64.7,164.7 65.9,170.5 67.1,176.2 68.2,180.5 69.4,183.7 70.6,186.4 71.8,189.1 73.0,191.6 74.2,193.8 75.4,195.8 76.5,197.6 77.7,199.2 78.9,200.7 80.1,202.0 81.3,203.3 82.5,204.4 83.7,205.5 84.9,206.5 86.0,207.4 87.2,208.3 88.4,209.1 89.6,209.9 90.8,210.6 92.0,211.3 93.2,211.9 94.3,212.5 95.5,213.1 96.7,213.7 97.9,214.2 99.1,214.7 100.3,215.1 101.5,215.6 102.7,216.0 103.8,216.4 105.0,216.8 106.2,217.1 107.4,217.5 108.6,217.8 109.8,218.1 111.0,218.4 112.1,218.7 113.3,218.9 114.5,219.1 115.7,219.4 116.9,219.6 118.1,219.7 119.3,219.9 120.5,220.1 121.6,220.2 122.8,220.4 124.0,220.5 125.2,220.6 126.4,220.7 127.6,220.7 128.8,220.8 129.9,220.8 131.1,220.9 132.3,220.9 133.5,220.9 134.7,220.9 135.9,220.9 137.1,220.9 138.3,220.8 139.4,220.8 140.6,220.7 141.8,220.7 143.0,220.6 144.2,220.5 145.4,220.4 146.6,220.3 147.7,220.1 148.9,220.0 150.1,220.6 151.3,220.4 152.5,220.3 153.7,220.6 154.9,220.8 156.1,220.9 157.2,221.2 158.4,221.5 159.6,221.7 160.8,222.0 162.0,222.3 163.2,222.6 164.4,222.9 165.5,223.1 166.7,223.4 167.9,223.7 169.1,223.9 170.3,224.2 171.5,224.4 172.7,224.6 173.9,224.8 175.0,225.0 176.2,225.2 177.4,225.3 178.6,225.4 179.8,225.5 181.0,225.6 182.2,225.7 183.3,225.8 184.5,225.8 185.7,225.8 186.9,225.8 188.1,225.8 189.3,225.8 190.5,225.7 191.7,225.7 192.8,225.6 194.0,225.5 195.2,225.3 196.4,225.2 197.6,225.0 198.8,224.8 200.0,224.6 201.1,224.4 202.3,224.2 203.5,223.9 204.7,223.7 205.9,223.4 207.1,223.1 208.3,222.8 209.5,222.5 210.6,222.1 211.8,221.8 213.0,221.4 214.2,221.0 215.4,220.6 216.6,220.2 217.8,219.7 218.9,219.3 220.1,218.8 221.3,218.4 222.5,217.9 223.7,217.4 224.9,216.9 226.1,216.4 227.3,215.8 228.4,215.3 229.6,214.7 230.8,214.2 232.0,213.6 233.2,213.0 234.4,212.4 235.6,211.8 236.7,211.2 237.9,210.6 239.1,209.9 240.3,209.3 241.5,208.6 242.7,208.0 243.9,207.3 245.1,206.6 246.2,206.0 247.4,205.3 248.6,204.6 249.8,203.9 251.0,203.2 252.2,202.5 253.4,201.7 254.5,201.0 255.7,200.3 256.9,199.5 258.1,198.8 259.3,198.0 260.5,197.3 261.7,196.5 262.9,195.8 264.0,195.0 265.2,194.3 266.4,193.5 267.6,192.7 268.8,191.9 270.0,191.2 271.2,190.3 272.3,189.7 273.5,188.6 274.7,188.6 275.9,185.9 277.1,189.5 278.3,178.7 279.5,201.1 280.7,146.3 281.8,266.0 283.0,146.3 284.2,209.2 285.4,142.2 286.6,262.0 287.8,142.2 289.0,222.6 290.1,102.8 291.3,222.6 292.5,121.4 293.7,241.2 294.9,121.4 296.1,241.2 297.3,121.4 298.5,241.2 299.6,121.4 300.8,233.6 302.0,113.9 303.2,221.2 304.4,101.5 305.6,221.2 306.8,101.5 307.9,221.2 309.1,109.1 310.3,228.8 311.5,109.1 312.7,228.8 313.9,109.1 315.1,228.8 316.3,109.1 317.4,228.8 318.6,109.1 319.8,228.8 321.0,109.1 322.2,221.3 323.4,101.5 324.6,221.3 325.7,101.5 326.9,221.3 328.1,101.5 329.3,221.3 330.5,101.5 331.7,221.3 332.9,101.5 334.1,221.3 335.2,101.5 336.4,221.3 337.6,101.5 338.8,221.3 340.0,101.5 341.2,221.3 342.4,101.5 343.5,221.3 344.7,101.5 345.9,221.3 347.1,101.5 348.3,221.3 349.5,101.5 350.7,221.3 351.9,101.5 353.0,221.3 354.2,101.5 355.4,220.3 356.6,100.6 357.8,219.8 359.0,100.1 360.2,219.8 361.3,100.1 362.5,219.8 363.7,100.1 364.9,219.8 366.1,100.1 367.3,219.8 368.5,100.1 369.7,219.8 370.8,100.1 372.0,219.8 373.2,100.1 374.4,219.8 375.6,100.1 376.8,218.6 378.0,98.9 379.1,216.3 380.3,96.5 381.5,216.3 382.7,96.5 383.9,216.3 385.1,96.5 386.3,216.3 387.5,96.5 388.6,214.6 389.8,94.8 391.0,214.6 392.2,94.8 393.4,214.6 394.6,94.8 395.8,214.6 396.9,94.8 398.1,214.1 399.3,94.3 400.5,214.1 401.7,94.3 402.9,214.1 404.1,94.3 405.3,213.4 406.4,93.6 407.6,213.4 408.8,93.6 410.0,213.4 411.2,93.6 412.4,211.4 413.6,91.6 414.7,211.4 415.9,91.6 417.1,211.4 418.3,91.6 419.5,208.2 420.7,88.4 421.9,208.2 423.1,88.4 424.2,208.2 425.4,88.4 426.6,207.8 427.8,88.0 429.0,207.8 430.2,88.0 431.4,207.8 432.5,88.0 433.7,207.8 434.9,88.0 436.1,207.8 437.3,88.0 438.5,207.8 439.7,88.0 440.9,207.8 442.0,88.0 443.2,207.8 444.4,88.0 445.6,207.8 446.8,88.0 448.0,207.8 449.2,88.0 450.3,207.8 451.5,88.0 452.7,207.8 453.9,88.0 455.1,207.8 456.3,88.0 457.5,207.8 458.7,88.0 459.8,207.8 461.0,88.0 462.2,207.8 463.4,88.0 464.6,207.8 465.8,88.0 467.0,207.8 468.1,88.0 469.3,207.8 470.5,88.0 471.7,207.8 472.9,88.0 474.1,207.8 475.3,88.0 476.5,207.8 477.6,88.0 478.8,207.8 480.0,88.0 481.2,207.8 482.4,88.0 483.6,207.8 484.8,88.0 485.9,207.8 487.1,88.0 488.3,207.8 489.5,88.0 490.7,207.8 491.9,88.0 493.1,207.8 494.3,88.0 495.4,207.8 496.6,88.0 497.8,207.8 499.0,88.0 500.2,207.8 501.4,88.0 502.6,207.8 503.7,88.0 504.9,207.8 506.1,88.0 507.3,207.8 508.5,88.0 509.7,207.8 510.9,88.0 512.1,207.8 513.2,88.0 514.4,207.8 515.6,88.0 516.8,207.8 518.0,88.0 519.2,207.8 520.4,88.0 521.5,207.8 522.7,88.0 523.9,207.8 525.1,88.0 526.3,207.8 527.5,88.0 528.7,207.8 529.9,88.0 531.0,207.8 532.2,88.0 533.4,207.8 534.6,88.0 535.8,207.8 537.0,88.0 538.2,207.8 539.3,88.0 540.5,207.8 541.7,88.0 542.9,207.8 544.1,88.0 545.3,207.8 546.5,88.0 547.7,207.8 548.8,88.0 550.0,207.8 551.2,88.0 552.4,207.8 553.6,88.0 554.8,207.8 556.0,88.0 557.1,207.8 558.3,88.0 559.5,207.8 560.7,88.0 561.9,207.8 563.1,88.0 564.3,207.8 565.5,88.0 566.6,207.8 567.8,88.0 569.0,207.8 570.2,88.0 571.4,207.8 572.6,88.0 573.8,207.8 574.9,88.0 576.1,207.8 577.3,88.0 578.5,207.8 579.7,88.0 580.9,207.8 582.1,88.0 583.3,207.8 584.4,88.0 585.6,207.8 586.8,88.0 588.0,207.8 589.2,88.0 590.4,207.8 591.6,88.0 592.7,207.8 593.9,88.0 595.1,207.8 596.3,88.0 597.5,207.8 598.7,88.0 599.9,207.8 601.1,88.0 602.2,207.8 603.4,88.0 604.6,207.8 605.8,88.0 607.0,207.8 608.2,88.0 609.4,207.8 610.5,88.0 611.7,207.8 612.9,88.0 614.1,207.8 615.3,88.0 616.5,207.8 617.7,88.0 618.9,207.8 620.0,88.0 621.2,207.8 622.4,88.0 623.6,207.8 624.8,88.0 626.0,207.8 627.2,88.0 628.3,207.8 629.5,88.0 630.7,207.8 631.9,88.0 633.1,207.8 634.3,88.0 635.5,207.8 636.7,88.0 637.8,207.8 639.0,88.0 640.2,207.8 641.4,88.0 642.6,207.8 643.8,88.0 645.0,207.8 646.1,88.0 647.3,207.8 648.5,88.0 649.7,207.8 650.9,88.0 652.1,207.8 653.3,88.0 654.5,207.8 655.6,88.0 656.8,207.8 658.0,88.0 659.2,207.8 660.4,88.0 661.6,207.8 662.8,88.0 663.9,207.8 665.1,88.0 666.3,207.8 667.5,88.0 668.7,207.8 669.9,88.0 671.1,207.8 672.3,88.0 673.4,207.8 674.6,88.0 675.8,207.8 677.0,88.0 678.2,207.8 679.4,88.0 680.6,207.8 681.7,88.0 682.9,207.8 684.1,88.0 685.3,207.8 686.5,88.0 687.7,207.8 688.9,88.0 690.1,207.8 691.2,88.0 692.4,207.8 693.6,88.0 694.8,207.8 696.0,88.0 697.2,207.8 698.4,88.0 699.5,207.8 700.7,88.0 701.9,207.8 703.1,88.0 704.3,207.8 705.5,88.0 706.7,207.8 707.9,88.0 709.0,207.8 710.2,88.0 711.4,207.8 712.6,88.0 713.8,207.8 715.0,88.0 716.2,207.8 717.3,88.0 718.5,207.8 719.7,88.0 720.9,207.8 722.1,88.0 723.3,207.8 724.5,88.0 725.7,207.8 726.8,88.0 728.0,207.8 729.2,88.0 730.4,207.8 731.6,88.0 732.8,207.8 734.0,88.0 735.1,207.8 736.3,88.0 737.5,207.8 738.7,88.0 739.9,207.8 741.1,88.0 742.3,207.8 743.5,88.0 744.6,207.8 745.8,89.3 747.0,209.1 748.2,89.3 749.4,209.1 750.6,90.1 751.8,209.8 752.9,92.7 754.1,212.4 755.3,92.7 756.5,212.4 757.7,92.7 758.9,212.4 760.1,100.0 761.3,219.8 762.4,100.0 763.6,210.6 764.8,104.1 766.0,223.9"/>
<line x1="606" y1="42" x2="628" y2="42" stroke="#0f62fe" stroke-width="2.2"/>
<text x="634" y="46" font-family="Arial" font-size="12">elevator_deg</text>
<polyline fill="none" stroke="#24a148" stroke-width="2.2" points="54.0,54.0 55.2,54.0 56.4,54.0 57.6,54.0 58.7,54.0 59.9,54.0 61.1,54.0 62.3,54.0 63.5,54.0 64.7,54.0 65.9,54.0 67.1,54.0 68.2,54.0 69.4,54.0 70.6,54.0 71.8,54.0 73.0,54.0 74.2,54.0 75.4,54.0 76.5,54.0 77.7,54.0 78.9,54.0 80.1,54.0 81.3,54.0 82.5,54.0 83.7,54.0 84.9,54.0 86.0,54.0 87.2,54.0 88.4,54.0 89.6,54.0 90.8,54.0 92.0,54.0 93.2,54.0 94.3,54.0 95.5,54.0 96.7,54.0 97.9,54.0 99.1,54.0 100.3,54.0 101.5,54.0 102.7,54.0 103.8,54.0 105.0,54.0 106.2,54.0 107.4,54.0 108.6,54.0 109.8,54.0 111.0,54.0 112.1,54.0 113.3,54.0 114.5,54.0 115.7,54.0 116.9,54.0 118.1,54.0 119.3,54.0 120.5,54.0 121.6,54.0 122.8,54.0 124.0,54.0 125.2,54.0 126.4,54.0 127.6,54.0 128.8,54.0 129.9,54.0 131.1,54.0 132.3,54.0 133.5,54.0 134.7,54.0 135.9,54.0 137.1,54.0 138.3,54.0 139.4,54.0 140.6,54.0 141.8,54.0 143.0,54.0 144.2,54.0 145.4,54.0 146.6,54.0 147.7,54.0 148.9,54.0 150.1,54.0 151.3,54.0 152.5,54.0 153.7,54.0 154.9,54.0 156.1,54.0 157.2,54.0 158.4,54.0 159.6,54.0 160.8,54.0 162.0,54.0 163.2,54.0 164.4,54.0 165.5,54.0 166.7,54.0 167.9,54.0 169.1,54.0 170.3,54.0 171.5,54.0 172.7,54.0 173.9,54.0 175.0,54.0 176.2,54.0 177.4,54.0 178.6,54.0 179.8,54.0 181.0,54.0 182.2,54.0 183.3,54.0 184.5,54.0 185.7,54.0 186.9,54.0 188.1,54.0 189.3,54.0 190.5,54.0 191.7,54.0 192.8,54.0 194.0,54.0 195.2,54.0 196.4,54.0 197.6,54.0 198.8,54.0 200.0,54.0 201.1,54.0 202.3,54.0 203.5,54.0 204.7,54.0 205.9,54.0 207.1,54.0 208.3,54.0 209.5,54.0 210.6,54.0 211.8,54.0 213.0,54.0 214.2,54.0 215.4,54.0 216.6,54.0 217.8,54.0 218.9,54.0 220.1,54.0 221.3,54.0 222.5,54.0 223.7,54.0 224.9,54.0 226.1,54.0 227.3,54.0 228.4,54.0 229.6,54.0 230.8,54.0 232.0,54.0 233.2,54.0 234.4,54.0 235.6,54.0 236.7,54.0 237.9,54.0 239.1,54.0 240.3,54.0 241.5,54.0 242.7,54.0 243.9,54.0 245.1,54.0 246.2,54.0 247.4,54.0 248.6,54.0 249.8,54.0 251.0,54.0 252.2,54.0 253.4,54.0 254.5,54.0 255.7,54.0 256.9,54.0 258.1,54.0 259.3,54.0 260.5,54.0 261.7,54.0 262.9,54.0 264.0,54.0 265.2,54.0 266.4,54.0 267.6,54.0 268.8,54.0 270.0,54.0 271.2,54.0 272.3,54.0 273.5,54.0 274.7,54.0 275.9,54.0 277.1,54.0 278.3,54.0 279.5,54.0 280.7,54.0 281.8,54.0 283.0,54.0 284.2,54.0 285.4,54.0 286.6,54.0 287.8,54.0 289.0,54.0 290.1,54.0 291.3,54.0 292.5,54.0 293.7,54.0 294.9,54.0 296.1,54.0 297.3,54.0 298.5,54.0 299.6,54.0 300.8,54.0 302.0,54.0 303.2,54.0 304.4,54.0 305.6,54.0 306.8,54.0 307.9,54.0 309.1,54.0 310.3,54.0 311.5,54.0 312.7,54.0 313.9,54.0 315.1,54.0 316.3,54.0 317.4,54.0 318.6,54.0 319.8,54.0 321.0,54.0 322.2,54.0 323.4,54.0 324.6,54.0 325.7,54.0 326.9,54.0 328.1,54.0 329.3,54.0 330.5,54.0 331.7,54.0 332.9,54.0 334.1,54.0 335.2,54.0 336.4,54.0 337.6,54.0 338.8,54.0 340.0,54.0 341.2,54.0 342.4,54.0 343.5,54.0 344.7,54.0 345.9,54.0 347.1,54.0 348.3,54.0 349.5,54.0 350.7,54.0 351.9,54.0 353.0,54.0 354.2,54.0 355.4,54.0 356.6,54.0 357.8,54.0 359.0,54.0 360.2,54.0 361.3,54.0 362.5,54.0 363.7,54.0 364.9,54.0 366.1,54.0 367.3,54.0 368.5,54.0 369.7,54.0 370.8,54.0 372.0,54.0 373.2,54.0 374.4,54.0 375.6,54.0 376.8,54.0 378.0,54.0 379.1,54.0 380.3,54.0 381.5,54.0 382.7,54.0 383.9,54.0 385.1,54.0 386.3,54.0 387.5,54.0 388.6,54.0 389.8,54.0 391.0,54.0 392.2,54.0 393.4,54.0 394.6,54.0 395.8,54.0 396.9,54.0 398.1,54.0 399.3,54.0 400.5,54.0 401.7,54.0 402.9,54.0 404.1,54.0 405.3,54.0 406.4,54.0 407.6,54.0 408.8,54.0 410.0,54.0 411.2,54.0 412.4,54.0 413.6,54.0 414.7,54.0 415.9,54.0 417.1,54.0 418.3,54.0 419.5,54.0 420.7,54.0 421.9,54.0 423.1,54.0 424.2,54.0 425.4,54.0 426.6,54.0 427.8,54.0 429.0,54.0 430.2,54.0 431.4,54.0 432.5,54.0 433.7,54.0 434.9,54.0 436.1,54.0 437.3,54.0 438.5,54.0 439.7,54.0 440.9,54.0 442.0,54.0 443.2,54.0 444.4,54.0 445.6,54.0 446.8,54.0 448.0,54.0 449.2,54.0 450.3,54.0 451.5,54.0 452.7,54.0 453.9,54.0 455.1,54.0 456.3,54.0 457.5,54.0 458.7,54.0 459.8,54.0 461.0,54.0 462.2,54.0 463.4,54.0 464.6,54.0 465.8,54.0 467.0,54.0 468.1,54.0 469.3,54.0 470.5,54.0 471.7,54.0 472.9,54.0 474.1,54.0 475.3,54.0 476.5,54.0 477.6,54.0 478.8,54.0 480.0,54.0 481.2,54.0 482.4,54.0 483.6,54.0 484.8,54.0 485.9,54.0 487.1,54.0 488.3,54.0 489.5,54.0 490.7,54.0 491.9,54.0 493.1,54.0 494.3,54.0 495.4,54.0 496.6,54.0 497.8,54.0 499.0,54.0 500.2,54.0 501.4,54.0 502.6,54.0 503.7,54.0 504.9,54.0 506.1,54.0 507.3,54.0 508.5,54.0 509.7,54.0 510.9,54.0 512.1,54.0 513.2,54.0 514.4,54.0 515.6,54.0 516.8,54.0 518.0,54.0 519.2,54.0 520.4,54.0 521.5,54.0 522.7,54.0 523.9,54.0 525.1,54.0 526.3,54.0 527.5,54.0 528.7,54.0 529.9,54.0 531.0,54.0 532.2,54.0 533.4,54.0 534.6,54.0 535.8,54.0 537.0,54.0 538.2,54.0 539.3,54.0 540.5,54.0 541.7,54.0 542.9,54.0 544.1,54.0 545.3,54.0 546.5,54.0 547.7,54.0 548.8,54.0 550.0,54.0 551.2,54.0 552.4,54.0 553.6,54.0 554.8,54.0 556.0,54.0 557.1,54.0 558.3,54.0 559.5,54.0 560.7,54.0 561.9,54.0 563.1,54.0 564.3,54.0 565.5,54.0 566.6,54.0 567.8,54.0 569.0,54.0 570.2,54.0 571.4,54.0 572.6,54.0 573.8,54.0 574.9,54.0 576.1,54.0 577.3,54.0 578.5,54.0 579.7,54.0 580.9,54.0 582.1,54.0 583.3,54.0 584.4,54.0 585.6,54.0 586.8,54.0 588.0,54.0 589.2,54.0 590.4,54.0 591.6,54.0 592.7,54.0 593.9,54.0 595.1,54.0 596.3,54.0 597.5,54.0 598.7,54.0 599.9,54.0 601.1,54.0 602.2,54.0 603.4,54.0 604.6,54.0 605.8,54.0 607.0,54.0 608.2,54.0 609.4,54.0 610.5,54.0 611.7,54.0 612.9,54.0 614.1,54.0 615.3,54.0 616.5,54.0 617.7,54.0 618.9,54.0 620.0,54.0 621.2,54.0 622.4,54.0 623.6,54.0 624.8,54.0 626.0,54.0 627.2,54.0 628.3,54.0 629.5,54.0 630.7,54.0 631.9,54.0 633.1,54.0 634.3,54.0 635.5,54.0 636.7,54.0 637.8,54.0 639.0,54.0 640.2,54.0 641.4,54.0 642.6,54.0 643.8,54.0 645.0,54.0 646.1,54.0 647.3,54.0 648.5,54.0 649.7,54.0 650.9,54.0 652.1,54.0 653.3,54.0 654.5,54.0 655.6,54.0 656.8,54.0 658.0,54.0 659.2,54.0 660.4,54.0 661.6,54.0 662.8,54.0 663.9,54.0 665.1,54.0 666.3,54.0 667.5,54.0 668.7,54.0 669.9,54.0 671.1,54.0 672.3,54.0 673.4,54.0 674.6,54.0 675.8,54.0 677.0,54.0 678.2,54.0 679.4,54.0 680.6,54.0 681.7,54.0 682.9,54.0 684.1,54.0 685.3,54.0 686.5,54.0 687.7,54.0 688.9,54.0 690.1,54.0 691.2,54.0 692.4,54.0 693.6,54.0 694.8,54.0 696.0,54.0 697.2,54.0 698.4,54.0 699.5,54.0 700.7,54.0 701.9,54.0 703.1,54.0 704.3,54.0 705.5,54.0 706.7,54.0 707.9,54.0 709.0,54.0 710.2,54.0 711.4,54.0 712.6,54.0 713.8,54.0 715.0,54.0 716.2,54.0 717.3,54.0 718.5,54.0 719.7,54.0 720.9,54.0 722.1,54.0 723.3,54.0 724.5,54.0 725.7,54.0 726.8,54.0 728.0,54.0 729.2,54.0 730.4,54.0 731.6,54.0 732.8,54.0 734.0,54.0 735.1,54.0 736.3,54.0 737.5,54.0 738.7,54.0 739.9,54.0 741.1,54.0 742.3,54.0 743.5,54.0 744.6,54.0 745.8,54.0 747.0,54.0 748.2,54.0 749.4,54.0 750.6,54.0 751.8,54.0 752.9,54.0 754.1,54.0 755.3,54.0 756.5,54.0 757.7,54.0 758.9,54.0 760.1,54.0 761.3,54.0 762.4,54.0 763.6,54.0 764.8,54.0 766.0,54.0"/>
<line x1="606" y1="60" x2="628" y2="60" stroke="#24a148" stroke-width="2.2"/>
<text x="634" y="64" font-family="Arial" font-size="12">aileron_deg</text>
<polyline fill="none" stroke="#da1e28" stroke-width="2.2" points="54.0,54.0 55.2,54.0 56.4,54.0 57.6,54.0 58.7,54.0 59.9,54.0 61.1,54.0 62.3,54.0 63.5,54.0 64.7,54.0 65.9,54.0 67.1,54.0 68.2,54.0 69.4,54.0 70.6,54.0 71.8,54.0 73.0,54.0 74.2,54.0 75.4,54.0 76.5,54.0 77.7,54.0 78.9,54.0 80.1,54.0 81.3,54.0 82.5,54.0 83.7,54.0 84.9,54.0 86.0,54.0 87.2,54.0 88.4,54.0 89.6,54.0 90.8,54.0 92.0,54.0 93.2,54.0 94.3,54.0 95.5,54.0 96.7,54.0 97.9,54.0 99.1,54.0 100.3,54.0 101.5,54.0 102.7,54.0 103.8,54.0 105.0,54.0 106.2,54.0 107.4,54.0 108.6,54.0 109.8,54.0 111.0,54.0 112.1,54.0 113.3,54.0 114.5,54.0 115.7,54.0 116.9,54.0 118.1,54.0 119.3,54.0 120.5,54.0 121.6,54.0 122.8,54.0 124.0,54.0 125.2,54.0 126.4,54.0 127.6,54.0 128.8,54.0 129.9,54.0 131.1,54.0 132.3,54.0 133.5,54.0 134.7,54.0 135.9,54.0 137.1,54.0 138.3,54.0 139.4,54.0 140.6,54.0 141.8,54.0 143.0,54.0 144.2,54.0 145.4,54.0 146.6,54.0 147.7,54.0 148.9,54.0 150.1,54.0 151.3,54.0 152.5,54.0 153.7,54.0 154.9,54.0 156.1,54.0 157.2,54.0 158.4,54.0 159.6,54.0 160.8,54.0 162.0,54.0 163.2,54.0 164.4,54.0 165.5,54.0 166.7,54.0 167.9,54.0 169.1,54.0 170.3,54.0 171.5,54.0 172.7,54.0 173.9,54.0 175.0,54.0 176.2,54.0 177.4,54.0 178.6,54.0 179.8,54.0 181.0,54.0 182.2,54.0 183.3,54.0 184.5,54.0 185.7,54.0 186.9,54.0 188.1,54.0 189.3,54.0 190.5,54.0 191.7,54.0 192.8,54.0 194.0,54.0 195.2,54.0 196.4,54.0 197.6,54.0 198.8,54.0 200.0,54.0 201.1,54.0 202.3,54.0 203.5,54.0 204.7,54.0 205.9,54.0 207.1,54.0 208.3,54.0 209.5,54.0 210.6,54.0 211.8,54.0 213.0,54.0 214.2,54.0 215.4,54.0 216.6,54.0 217.8,54.0 218.9,54.0 220.1,54.0 221.3,54.0 222.5,54.0 223.7,54.0 224.9,54.0 226.1,54.0 227.3,54.0 228.4,54.0 229.6,54.0 230.8,54.0 232.0,54.0 233.2,54.0 234.4,54.0 235.6,54.0 236.7,54.0 237.9,54.0 239.1,54.0 240.3,54.0 241.5,54.0 242.7,54.0 243.9,54.0 245.1,54.0 246.2,54.0 247.4,54.0 248.6,54.0 249.8,54.0 251.0,54.0 252.2,54.0 253.4,54.0 254.5,54.0 255.7,54.0 256.9,54.0 258.1,54.0 259.3,54.0 260.5,54.0 261.7,54.0 262.9,54.0 264.0,54.0 265.2,54.0 266.4,54.0 267.6,54.0 268.8,54.0 270.0,54.0 271.2,54.0 272.3,54.0 273.5,54.0 274.7,54.0 275.9,54.0 277.1,54.0 278.3,54.0 279.5,54.0 280.7,54.0 281.8,54.0 283.0,54.0 284.2,54.0 285.4,54.0 286.6,54.0 287.8,54.0 289.0,54.0 290.1,54.0 291.3,54.0 292.5,54.0 293.7,54.0 294.9,54.0 296.1,54.0 297.3,54.0 298.5,54.0 299.6,54.0 300.8,54.0 302.0,54.0 303.2,54.0 304.4,54.0 305.6,54.0 306.8,54.0 307.9,54.0 309.1,54.0 310.3,54.0 311.5,54.0 312.7,54.0 313.9,54.0 315.1,54.0 316.3,54.0 317.4,54.0 318.6,54.0 319.8,54.0 321.0,54.0 322.2,54.0 323.4,54.0 324.6,54.0 325.7,54.0 326.9,54.0 328.1,54.0 329.3,54.0 330.5,54.0 331.7,54.0 332.9,54.0 334.1,54.0 335.2,54.0 336.4,54.0 337.6,54.0 338.8,54.0 340.0,54.0 341.2,54.0 342.4,54.0 343.5,54.0 344.7,54.0 345.9,54.0 347.1,54.0 348.3,54.0 349.5,54.0 350.7,54.0 351.9,54.0 353.0,54.0 354.2,54.0 355.4,54.0 356.6,54.0 357.8,54.0 359.0,54.0 360.2,54.0 361.3,54.0 362.5,54.0 363.7,54.0 364.9,54.0 366.1,54.0 367.3,54.0 368.5,54.0 369.7,54.0 370.8,54.0 372.0,54.0 373.2,54.0 374.4,54.0 375.6,54.0 376.8,54.0 378.0,54.0 379.1,54.0 380.3,54.0 381.5,54.0 382.7,54.0 383.9,54.0 385.1,54.0 386.3,54.0 387.5,54.0 388.6,54.0 389.8,54.0 391.0,54.0 392.2,54.0 393.4,54.0 394.6,54.0 395.8,54.0 396.9,54.0 398.1,54.0 399.3,54.0 400.5,54.0 401.7,54.0 402.9,54.0 404.1,54.0 405.3,54.0 406.4,54.0 407.6,54.0 408.8,54.0 410.0,54.0 411.2,54.0 412.4,54.0 413.6,54.0 414.7,54.0 415.9,54.0 417.1,54.0 418.3,54.0 419.5,54.0 420.7,54.0 421.9,54.0 423.1,54.0 424.2,54.0 425.4,54.0 426.6,54.0 427.8,54.0 429.0,54.0 430.2,54.0 431.4,54.0 432.5,54.0 433.7,54.0 434.9,54.0 436.1,54.0 437.3,54.0 438.5,54.0 439.7,54.0 440.9,54.0 442.0,54.0 443.2,54.0 444.4,54.0 445.6,54.0 446.8,54.0 448.0,54.0 449.2,54.0 450.3,54.0 451.5,54.0 452.7,54.0 453.9,54.0 455.1,54.0 456.3,54.0 457.5,54.0 458.7,54.0 459.8,54.0 461.0,54.0 462.2,54.0 463.4,54.0 464.6,54.0 465.8,54.0 467.0,54.0 468.1,54.0 469.3,54.0 470.5,54.0 471.7,54.0 472.9,54.0 474.1,54.0 475.3,54.0 476.5,54.0 477.6,54.0 478.8,54.0 480.0,54.0 481.2,54.0 482.4,54.0 483.6,54.0 484.8,54.0 485.9,54.0 487.1,54.0 488.3,54.0 489.5,54.0 490.7,54.0 491.9,54.0 493.1,54.0 494.3,54.0 495.4,54.0 496.6,54.0 497.8,54.0 499.0,54.0 500.2,54.0 501.4,54.0 502.6,54.0 503.7,54.0 504.9,54.0 506.1,54.0 507.3,54.0 508.5,54.0 509.7,54.0 510.9,54.0 512.1,54.0 513.2,54.0 514.4,54.0 515.6,54.0 516.8,54.0 518.0,54.0 519.2,54.0 520.4,54.0 521.5,54.0 522.7,54.0 523.9,54.0 525.1,54.0 526.3,54.0 527.5,54.0 528.7,54.0 529.9,54.0 531.0,54.0 532.2,54.0 533.4,54.0 534.6,54.0 535.8,54.0 537.0,54.0 538.2,54.0 539.3,54.0 540.5,54.0 541.7,54.0 542.9,54.0 544.1,54.0 545.3,54.0 546.5,54.0 547.7,54.0 548.8,54.0 550.0,54.0 551.2,54.0 552.4,54.0 553.6,54.0 554.8,54.0 556.0,54.0 557.1,54.0 558.3,54.0 559.5,54.0 560.7,54.0 561.9,54.0 563.1,54.0 564.3,54.0 565.5,54.0 566.6,54.0 567.8,54.0 569.0,54.0 570.2,54.0 571.4,54.0 572.6,54.0 573.8,54.0 574.9,54.0 576.1,54.0 577.3,54.0 578.5,54.0 579.7,54.0 580.9,54.0 582.1,54.0 583.3,54.0 584.4,54.0 585.6,54.0 586.8,54.0 588.0,54.0 589.2,54.0 590.4,54.0 591.6,54.0 592.7,54.0 593.9,54.0 595.1,54.0 596.3,54.0 597.5,54.0 598.7,54.0 599.9,54.0 601.1,54.0 602.2,54.0 603.4,54.0 604.6,54.0 605.8,54.0 607.0,54.0 608.2,54.0 609.4,54.0 610.5,54.0 611.7,54.0 612.9,54.0 614.1,54.0 615.3,54.0 616.5,54.0 617.7,54.0 618.9,54.0 620.0,54.0 621.2,54.0 622.4,54.0 623.6,54.0 624.8,54.0 626.0,54.0 627.2,54.0 628.3,54.0 629.5,54.0 630.7,54.0 631.9,54.0 633.1,54.0 634.3,54.0 635.5,54.0 636.7,54.0 637.8,54.0 639.0,54.0 640.2,54.0 641.4,54.0 642.6,54.0 643.8,54.0 645.0,54.0 646.1,54.0 647.3,54.0 648.5,54.0 649.7,54.0 650.9,54.0 652.1,54.0 653.3,54.0 654.5,54.0 655.6,54.0 656.8,54.0 658.0,54.0 659.2,54.0 660.4,54.0 661.6,54.0 662.8,54.0 663.9,54.0 665.1,54.0 666.3,54.0 667.5,54.0 668.7,54.0 669.9,54.0 671.1,54.0 672.3,54.0 673.4,54.0 674.6,54.0 675.8,54.0 677.0,54.0 678.2,54.0 679.4,54.0 680.6,54.0 681.7,54.0 682.9,54.0 684.1,54.0 685.3,54.0 686.5,54.0 687.7,54.0 688.9,54.0 690.1,54.0 691.2,54.0 692.4,54.0 693.6,54.0 694.8,54.0 696.0,54.0 697.2,54.0 698.4,54.0 699.5,54.0 700.7,54.0 701.9,54.0 703.1,54.0 704.3,54.0 705.5,54.0 706.7,54.0 707.9,54.0 709.0,54.0 710.2,54.0 711.4,54.0 712.6,54.0 713.8,54.0 715.0,54.0 716.2,54.0 717.3,54.0 718.5,54.0 719.7,54.0 720.9,54.0 722.1,54.0 723.3,54.0 724.5,54.0 725.7,54.0 726.8,54.0 728.0,54.0 729.2,54.0 730.4,54.0 731.6,54.0 732.8,54.0 734.0,54.0 735.1,54.0 736.3,54.0 737.5,54.0 738.7,54.0 739.9,54.0 741.1,54.0 742.3,54.0 743.5,54.0 744.6,54.0 745.8,54.0 747.0,54.0 748.2,54.0 749.4,54.0 750.6,54.0 751.8,54.0 752.9,54.0 754.1,54.0 755.3,54.0 756.5,54.0 757.7,54.0 758.9,54.0 760.1,54.0 761.3,54.0 762.4,54.0 763.6,54.0 764.8,54.0 766.0,54.0"/>
<line x1="606" y1="78" x2="628" y2="78" stroke="#da1e28" stroke-width="2.2"/>
<text x="634" y="82" font-family="Arial" font-size="12">rudder_deg</text>
</svg>