<svg xmlns="http://www.w3.org/2000/svg" width="820" height="320" viewBox="0 0 820 320">
<rect width="100%" height="100%" fill="#ffffff"/>
<text x="54" y="28" font-family="Arial" font-size="18" font-weight="700">Downrange/Crossrange</text>
<line x1="54" y1="266" x2="766" y2="266" stroke="#1f2933"/>
<line x1="54" y1="54" x2="54" y2="266" stroke="#1f2933"/>
<text x="54" y="306" font-family="Arial" font-size="12">downrange (m)</text>
<text x="596" y="306" font-family="Arial" font-size="12">crossrange (m)</text>
<text x="58" y="68" font-family="Arial" font-size="11">1</text>
<text x="58" y="260" font-family="Arial" font-size="11">-1</text>
<polyline fill="none" stroke="#0f62fe" stroke-width="2.2" points="54.0,160.0 54.7,160.0 55.5,160.0 56.3,160.0 57.0,160.0 57.8,160.0 58.5,160.0 59.3,160.0 60.1,160.0 60.8,160.0 61.6,160.0 62.4,160.0 63.2,160.0 64.0,160.0 64.8,160.0 65.6,160.0 66.4,160.0 67.2,160.0 68.0,160.0 68.8,160.0 69.6,160.0 70.5,160.0 71.3,160.0 72.1,160.0 73.0,160.0 73.8,160.0 74.6,160.0 75.5,160.0 76.3,160.0 77.2,160.0 78.1,160.0 78.9,160.0 79.8,160.0 80.7,160.0 81.5,160.0 82.4,160.0 83.3,160.0 84.2,160.0 85.1,160.0 86.0,160.0 86.9,160.0 87.8,160.0 88.7,160.0 89.6,160.0 90.5,160.0 91.5,160.0 92.4,160.0 93.3,160.0 94.2,160.0 95.2,160.0 96.1,160.0 97.1,160.0 98.0,160.0 99.0,160.0 99.9,160.0 100.9,160.0 101.9,160.0 102.8,160.0 103.8,160.0 104.8,160.0 105.8,160.0 106.7,160.0 107.7,160.0 108.7,160.0 109.7,160.0 110.7,160.0 111.7,160.0 112.7,160.0 113.7,160.0 114.8,160.0 115.8,160.0 116.8,160.0 117.8,160.0 118.9,160.0 119.9,160.0 120.9,160.0 122.0,160.0 123.0,160.0 124.1,160.0 125.1,160.0 126.2,160.0 127.2,160.0 128.3,160.0 129.4,160.0 130.4,160.0 131.5,160.0 132.6,160.0 133.7,160.0 134.8,160.0 135.9,160.0 137.0,160.0 138.1,160.0 139.2,160.0 140.3,160.0 141.4,160.0 142.5,160.0 143.6,160.0 144.7,160.0 145.8,160.0 147.0,160.0 148.1,160.0 149.2,160.0 150.4,160.0 151.5,160.0 152.7,160.0 153.8,160.0 155.0,160.0 156.1,160.0 157.3,160.0 158.4,160.0 159.6,160.0 160.8,160.0 161.9,160.0 163.1,160.0 164.3,160.0 165.5,160.0 166.7,160.0 167.9,160.0 169.0,160.0 170.2,160.0 171.4,160.0 172.7,160.0 173.9,160.0 175.1,160.0 176.3,160.0 177.5,160.0 178.7,160.0 179.9,160.0 181.2,160.0 182.4,160.0 183.6,160.0 184.9,160.0 186.1,160.0 187.4,160.0 188.6,160.0 189.9,160.0 191.1,160.0 192.4,160.0 193.6,160.0 194.9,160.0 196.2,160.0 197.4,160.0 198.7,160.0 200.0,160.0 201.3,160.0 202.5,160.0 203.8,160.0 205.1,160.0 206.4,160.0 207.7,160.0 209.0,160.0 210.3,160.0 211.6,160.0 212.9,160.0 214.2,160.0 215.5,160.0 216.9,160.0 218.2,160.0 219.5,160.0 220.8,160.0 222.2,160.0 223.5,160.0 224.8,160.0 226.2,160.0 227.5,160.0 228.9,160.0 230.2,160.0 231.6,160.0 232.9,160.0 234.3,160.0 235.6,160.0 237.0,160.0 238.4,160.0 239.7,160.0 241.1,160.0 242.5,160.0 243.9,160.0 245.2,160.0 246.6,160.0 248.0,160.0 249.4,160.0 250.8,160.0 252.2,160.0 253.6,160.0 255.0,160.0 256.4,160.0 257.8,160.0 259.2,160.0 260.6,160.0 262.0,160.0 263.5,160.0 264.9,160.0 266.3,160.0 267.7,160.0 269.2,160.0 270.6,160.0 272.0,160.0 273.5,160.0 274.9,160.0 276.4,160.0 277.8,160.0 279.2,160.0 280.7,160.0 282.2,160.0 283.6,160.0 285.1,160.0 286.5,160.0 288.0,160.0 289.5,160.0 290.9,160.0 292.4,160.0 293.9,160.0 295.4,160.0 296.9,160.0 298.3,160.0 299.8,160.0 301.3,160.0 302.8,160.0 304.3,160.0 305.8,160.0 307.3,160.0 308.8,160.0 310.3,160.0 311.8,160.0 313.3,160.0 314.8,160.0 316.3,160.0 317.9,160.0 319.4,160.0 320.9,160.0 322.4,160.0 324.0,160.0 325.5,160.0 327.0,160.0 328.6,160.0 330.1,160.0 331.6,160.0 333.2,160.0 334.7,160.0 336.3,160.0 337.8,160.0 339.4,160.0 340.9,160.0 342.5,160.0 344.0,160.0 345.6,160.0 347.2,160.0 348.7,160.0 350.3,160.0 351.9,160.0 353.4,160.0 355.0,160.0 356.6,160.0 358.2,160.0 359.8,160.0 361.3,160.0 362.9,160.0 364.5,160.0 366.1,160.0 367.7,160.0 369.3,160.0 370.9,160.0 372.5,160.0 374.1,160.0 375.7,160.0 377.3,160.0 378.9,160.0 380.5,160.0 382.1,160.0 383.7,160.0 385.4,160.0 387.0,160.0 388.6,160.0 390.2,160.0 391.9,160.0 393.5,160.0 395.1,160.0 396.7,160.0 398.4,160.0 400.0,160.0 401.6,160.0 403.3,160.0 404.9,160.0 406.6,160.0 408.2,160.0 409.9,160.0 411.5,160.0 413.2,160.0 414.8,160.0 416.5,160.0 418.1,160.0 419.8,160.0 421.5,160.0 423.1,160.0 424.8,160.0 426.5,160.0 428.1,160.0 429.8,160.0 431.5,160.0 433.2,160.0 434.8,160.0 436.5,160.0 438.2,160.0 439.9,160.0 441.6,160.0 443.3,160.0 445.0,160.0 446.7,160.0 448.3,160.0 450.0,160.0 451.7,160.0 453.4,160.0 455.1,160.0 456.8,160.0 458.6,160.0 460.3,160.0 462.0,160.0 463.7,160.0 465.4,160.0 467.1,160.0 468.8,160.0 470.6,160.0 472.3,160.0 474.0,160.0 475.7,160.0 477.5,160.0 479.2,160.0 480.9,160.0 482.6,160.0 484.4,160.0 486.1,160.0 487.9,160.0 489.6,160.0 491.3,160.0 493.1,160.0 494.8,160.0 496.6,160.0 498.3,160.0 500.1,160.0 501.8,160.0 503.6,160.0 505.3,160.0 507.1,160.0 508.9,160.0 510.6,160.0 512.4,160.0 514.2,160.0 515.9,160.0 517.7,160.0 519.5,160.0 521.2,160.0 523.0,160.0 524.8,160.0 526.6,160.0 528.3,160.0 530.1,160.0 531.9,160.0 533.7,160.0 535.5,160.0 537.3,160.0 539.1,160.0 540.9,160.0 542.6,160.0 544.4,160.0 546.2,160.0 548.0,160.0 549.8,160.0 551.6,160.0 553.4,160.0 555.3,160.0 557.1,160.0 558.9,160.0 560.7,160.0 562.5,160.0 564.3,160.0 566.1,160.0 567.9,160.0 569.8,160.0 571.6,160.0 573.4,160.0 575.2,160.0 577.1,160.0 578.9,160.0 580.7,160.0 582.6,160.0 584.4,160.0 586.2,160.0 588.1,160.0 589.9,160.0 591.7,160.0 593.6,160.0 595.4,160.0 597.3,160.0 599.1,160.0 601.0,160.0 602.8,160.0 604.7,160.0 606.5,160.0 608.4,160.0 610.2,160.0 612.1,160.0 614.0,160.0 615.8,160.0 617.7,160.0 619.5,160.0 621.4,160.0 623.3,160.0 625.2,160.0 627.0,160.0 628.9,160.0 630.8,160.0 632.6,160.0 634.5,160.0 636.4,160.0 638.3,160.0 640.2,160.0 642.1,160.0 643.9,160.0 645.8,160.0 647.7,160.0 649.6,160.0 651.5,160.0 653.4,160.0 655.3,160.0 657.2,160.0 659.1,160.0 661.0,160.0 662.9,160.0 664.8,160.0 666.7,160.0 668.6,160.0 670.5,160.0 672.4,160.0 674.3,160.0 676.3,160.0 678.2,160.0 680.1,160.0 682.0,160.0 683.9,160.0 685.9,160.0 687.8,160.0 689.7,160.0 691.6,160.0 693.6,160.0 695.5,160.0 697.4,160.0 699.4,160.0 701.3,160.0 703.2,160.0 705.2,160.0 707.1,160.0 709.0,160.0 711.0,160.0 712.9,160.0 714.9,160.0 716.8,160.0 718.8,160.0 720.7,160.0 722.7,160.0 724.6,160.0 726.6,160.0 728.5,160.0 730.5,160.0 732.5,160.0 734.4,160.0 736.4,160.0 738.3,160.0 740.3,160.0 742.3,160.0 744.2,160.0 746.2,160.0 748.2,160.0 750.2,160.0 752.1,160.0 754.1,160.0 756.1,160.0 758.1,160.0 760.0,160.0 762.0,160.0 764.0,160.0 766.0,160.0"/>
<line x1="606" y1="42" x2="628" y2="42" stroke="#0f62fe" stroke-width="2.2"/>
<text x="634" y="46" font-family="Arial" font-size="12">y_m</text>
</svg>