<svg xmlns="http://www.w3.org/2000/svg" width="820" height="320" viewBox="0 0 820 320">
<rect width="100%" height="100%" fill="#ffffff"/>
<text x="54" y="28" font-family="Arial" font-size="18" font-weight="700">Velocity Z</text>
<line x1="54" y1="266" x2="766" y2="266" stroke="#1f2933"/>
<line x1="54" y1="54" x2="54" y2="266" stroke="#1f2933"/>
<text x="54" y="306" font-family="Arial" font-size="12">time (s)</text>
<text x="596" y="306" font-family="Arial" font-size="12">vz (m/s)</text>
<text x="58" y="68" font-family="Arial" font-size="11">76.3</text>
<text x="58" y="260" font-family="Arial" font-size="11">3.35</text>
<polyline fill="none" stroke="#0f62fe" stroke-width="2.2" points="54.0,264.1 55.5,264.1 57.0,264.1 58.5,264.1 59.9,264.2 61.4,264.3 62.9,264.4 64.4,264.5 65.9,264.7 67.3,264.8 68.8,264.9 70.3,265.0 71.8,265.1 73.3,265.2 74.8,265.2 76.2,265.3 77.7,265.4 79.2,265.4 80.7,265.5 82.2,265.5 83.7,265.6 85.2,265.6 86.6,265.7 88.1,265.7 89.6,265.8 91.1,265.8 92.6,265.8 94.1,265.9 95.5,265.9 97.0,265.9 98.5,265.9 100.0,266.0 101.5,266.0 103.0,266.0 104.4,266.0 105.9,266.0 107.4,266.0 108.9,266.0 110.4,266.0 111.8,266.0 113.3,266.0 114.8,265.9 116.3,265.9 117.8,265.9 119.3,265.9 120.8,265.8 122.2,265.8 123.7,265.7 125.2,265.7 126.7,265.6 128.2,265.6 129.7,265.5 131.1,265.4 132.6,265.4 134.1,265.3 135.6,265.2 137.1,265.1 138.6,265.0 140.0,265.0 141.5,264.9 143.0,264.8 144.5,264.7 146.0,264.5 147.4,264.4 148.9,264.3 150.4,264.2 151.9,264.1 153.4,263.9 154.9,263.8 156.4,263.7 157.8,263.5 159.3,263.4 160.8,263.2 162.3,263.1 163.8,262.9 165.2,262.7 166.7,262.6 168.2,262.4 169.7,262.2 171.2,262.0 172.7,261.8 174.1,261.7 175.6,261.5 177.1,261.3 178.6,261.1 180.1,260.9 181.6,260.6 183.1,260.4 184.5,260.2 186.0,260.0 187.5,259.8 189.0,259.5 190.5,259.3 192.0,259.0 193.4,258.8 194.9,258.6 196.4,258.3 197.9,258.1 199.4,257.8 200.9,257.5 202.3,257.3 203.8,257.0 205.3,256.7 206.8,256.4 208.3,256.2 209.8,255.9 211.2,255.6 212.7,255.3 214.2,255.0 215.7,254.7 217.2,254.4 218.7,254.1 220.1,253.8 221.6,253.5 223.1,253.1 224.6,252.8 226.1,252.5 227.6,252.2 229.0,251.8 230.5,251.5 232.0,251.1 233.5,250.8 235.0,250.4 236.5,250.1 237.9,249.7 239.4,249.4 240.9,249.0 242.4,248.7 243.9,248.3 245.3,247.9 246.8,247.5 248.3,247.2 249.8,246.8 251.3,246.4 252.8,246.0 254.2,245.6 255.7,245.2 257.2,244.8 258.7,244.4 260.2,244.0 261.7,243.6 263.1,243.2 264.6,242.8 266.1,242.4 267.6,241.9 269.1,241.5 270.6,241.1 272.1,240.7 273.5,240.2 275.0,239.8 276.5,239.4 278.0,238.9 279.5,238.5 281.0,238.0 282.4,237.6 283.9,237.1 285.4,236.7 286.9,236.2 288.4,235.8 289.9,235.3 291.3,234.8 292.8,234.4 294.3,233.9 295.8,233.4 297.3,232.9 298.8,232.5 300.2,232.0 301.7,231.5 303.2,231.0 304.7,230.5 306.2,230.0 307.6,229.5 309.1,229.0 310.6,228.5 312.1,228.0 313.6,227.5 315.1,227.0 316.5,226.5 318.0,226.0 319.5,225.5 321.0,225.0 322.5,224.5 324.0,224.0 325.5,223.4 326.9,222.9 328.4,222.4 329.9,221.9 331.4,221.3 332.9,220.8 334.4,220.3 335.8,219.7 337.3,219.2 338.8,218.7 340.3,218.1 341.8,217.6 343.2,217.1 344.7,216.5 346.2,216.0 347.7,215.4 349.2,214.9 350.7,214.3 352.2,213.8 353.6,213.2 355.1,212.7 356.6,212.1 358.1,211.6 359.6,211.0 361.1,210.4 362.5,209.9 364.0,209.3 365.5,208.7 367.0,208.2 368.5,207.6 370.0,207.0 371.4,206.4 372.9,205.8 374.4,205.3 375.9,204.7 377.4,204.1 378.9,203.5 380.3,202.9 381.8,202.3 383.3,201.7 384.8,201.1 386.3,200.5 387.8,199.9 389.2,199.3 390.7,198.7 392.2,198.0 393.7,197.4 395.2,196.8 396.7,196.2 398.1,195.6 399.6,194.9 401.1,194.3 402.6,193.7 404.1,193.1 405.6,192.4 407.0,191.8 408.5,191.2 410.0,190.5 411.5,189.9 413.0,189.2 414.4,188.6 415.9,188.0 417.4,187.3 418.9,186.7 420.4,186.0 421.9,185.4 423.4,184.7 424.8,184.1 426.3,183.4 427.8,182.8 429.3,182.1 430.8,181.4 432.2,180.8 433.7,180.1 435.2,179.5 436.7,178.8 438.2,178.2 439.7,177.5 441.2,176.8 442.6,176.2 444.1,175.5 445.6,174.8 447.1,174.2 448.6,173.5 450.1,172.8 451.5,172.2 453.0,171.5 454.5,170.8 456.0,170.2 457.5,169.5 458.9,168.8 460.4,168.1 461.9,167.5 463.4,166.8 464.9,166.1 466.4,165.5 467.9,164.8 469.3,164.1 470.8,163.4 472.3,162.8 473.8,162.1 475.3,161.4 476.8,160.8 478.2,160.1 479.7,159.4 481.2,158.7 482.7,158.1 484.2,157.4 485.7,156.7 487.1,156.1 488.6,155.4 490.1,154.7 491.6,154.0 493.1,153.4 494.6,152.7 496.0,152.0 497.5,151.4 499.0,150.7 500.5,150.0 502.0,149.4 503.4,148.7 504.9,148.0 506.4,147.4 507.9,146.7 509.4,146.0 510.9,145.4 512.4,144.7 513.8,144.0 515.3,143.4 516.8,142.7 518.3,142.1 519.8,141.4 521.2,140.7 522.7,140.1 524.2,139.4 525.7,138.8 527.2,138.1 528.7,137.5 530.2,136.8 531.6,136.2 533.1,135.5 534.6,134.8 536.1,134.2 537.6,133.6 539.0,132.9 540.5,132.3 542.0,131.6 543.5,131.0 545.0,130.3 546.5,129.7 548.0,129.0 549.4,128.4 550.9,127.8 552.4,127.1 553.9,126.5 555.4,125.9 556.8,125.2 558.3,124.6 559.8,124.0 561.3,123.4 562.8,122.7 564.3,122.1 565.8,121.5 567.2,120.9 568.7,120.3 570.2,119.6 571.7,119.0 573.2,118.4 574.7,117.8 576.1,117.2 577.6,116.6 579.1,116.0 580.6,115.4 582.1,114.8 583.6,114.2 585.0,113.6 586.5,113.0 588.0,112.4 589.5,111.8 591.0,111.2 592.5,110.6 593.9,110.0 595.4,109.4 596.9,108.8 598.4,108.2 599.9,107.6 601.3,107.1 602.8,106.5 604.3,105.9 605.8,105.3 607.3,104.8 608.8,104.2 610.2,103.6 611.7,103.0 613.2,102.5 614.7,101.9 616.2,101.3 617.7,100.8 619.2,100.2 620.6,99.7 622.1,99.1 623.6,98.6 625.1,98.0 626.6,97.5 628.1,96.9 629.5,96.4 631.0,95.8 632.5,95.3 634.0,94.7 635.5,94.2 637.0,93.7 638.4,93.1 639.9,92.6 641.4,92.1 642.9,91.5 644.4,91.0 645.9,90.5 647.3,89.9 648.8,89.4 650.3,88.9 651.8,88.4 653.3,87.9 654.8,87.4 656.2,86.8 657.7,86.3 659.2,85.8 660.7,85.3 662.2,84.8 663.7,84.3 665.1,83.8 666.6,83.3 668.1,82.8 669.6,82.3 671.1,81.8 672.6,81.3 674.0,80.8 675.5,80.4 677.0,79.9 678.5,79.4 680.0,78.9 681.5,78.4 682.9,77.9 684.4,77.5 685.9,77.0 687.4,76.5 688.9,76.0 690.4,75.6 691.8,75.1 693.3,74.6 694.8,74.2 696.3,73.7 697.8,73.3 699.2,72.8 700.7,72.3 702.2,71.9 703.7,71.4 705.2,71.0 706.7,70.5 708.2,70.1 709.6,69.6 711.1,69.2 712.6,68.8 714.1,68.3 715.6,67.9 717.1,67.4 718.5,67.0 720.0,66.6 721.5,66.1 723.0,65.7 724.5,65.3 726.0,64.9 727.4,64.4 728.9,64.0 730.4,63.6 731.9,63.2 733.4,62.8 734.9,62.3 736.3,61.9 737.8,61.5 739.3,61.1 740.8,60.7 742.3,60.3 743.8,59.9 745.2,59.5 746.7,59.1 748.2,58.7 749.7,58.3 751.2,57.9 752.7,57.5 754.1,57.1 755.6,56.7 757.1,56.3 758.6,55.9 760.1,55.5 761.6,55.1 763.0,54.8 764.5,54.4 766.0,54.0"/>
<line x1="606" y1="42" x2="628" y2="42" stroke="#0f62fe" stroke-width="2.2"/>
<text x="634" y="46" font-family="Arial" font-size="12">vz_mps</text>
</svg>