<svg xmlns="http://www.w3.org/2000/svg" width="820" height="320" viewBox="0 0 820 320">
<rect width="100%" height="100%" fill="#ffffff"/>
<text x="54" y="28" font-family="Arial" font-size="18" font-weight="700">Control Surfaces</text>
<line x1="54" y1="266" x2="766" y2="266" stroke="#1f2933"/>
<line x1="54" y1="54" x2="54" y2="266" stroke="#1f2933"/>
<text x="54" y="306" font-family="Arial" font-size="12">time (s)</text>
<text x="596" y="306" font-family="Arial" font-size="12">deflection (deg)</text>
<text x="58" y="68" font-family="Arial" font-size="11">0</text>
<text x="58" y="260" font-family="Arial" font-size="11">-11.8</text>
<polyline fill="none" stroke="#0f62fe" stroke-width="2.2" points="54.0,87.7 55.5,121.5 57.0,155.2 58.5,188.9 59.9,222.6 61.4,256.4 62.9,266.0 64.4,251.1 65.9,227.6 67.3,206.4 68.8,192.6 70.3,186.7 71.8,186.6 73.3,189.5 74.8,193.0 76.2,195.6 77.7,196.8 79.2,196.8 80.7,196.2 82.2,195.4 83.7,194.7 85.2,194.3 86.6,194.1 88.1,194.1 89.6,194.2 91.1,194.3 92.6,194.3 94.1,194.3 95.5,194.2 97.0,194.2 98.5,194.2 100.0,194.2 101.5,194.2 103.0,194.2 104.4,194.2 105.9,194.2 107.4,194.2 108.9,194.2 110.4,194.2 111.8,194.3 113.3,194.3 114.8,194.3 116.3,194.4 117.8,194.5 119.3,194.6 120.8,194.6 122.2,194.7 123.7,194.7 125.2,194.8 126.7,194.8 128.2,194.9 129.7,194.9 131.1,194.9 132.6,194.9 134.1,195.0 135.6,195.0 137.1,195.0 138.6,195.0 140.0,195.0 141.5,195.0 143.0,195.0 144.5,195.0 146.0,195.0 147.4,195.0 148.9,195.0 150.4,195.0 151.9,195.0 153.4,195.0 154.9,195.0 156.4,194.9 157.8,194.9 159.3,194.9 160.8,194.8 162.3,194.8 163.8,194.8 165.2,194.7 166.7,194.7 168.2,194.6 169.7,194.6 171.2,194.5 172.7,194.4 174.1,194.4 175.6,194.3 177.1,194.2 178.6,194.1 180.1,193.9 181.6,193.7 183.1,193.6 184.5,193.4 186.0,193.3 187.5,193.1 189.0,193.0 190.5,192.8 192.0,192.6 193.4,192.5 194.9,192.3 196.4,192.1 197.9,192.0 199.4,191.8 200.9,191.6 202.3,191.5 203.8,191.3 205.3,191.1 206.8,190.9 208.3,190.7 209.8,190.6 211.2,190.4 212.7,190.2 214.2,190.0 215.7,189.8 217.2,189.6 218.7,189.4 220.1,189.2 221.6,189.0 223.1,188.8 224.6,188.6 226.1,188.4 227.6,188.2 229.0,188.0 230.5,187.8 232.0,187.5 233.5,187.3 235.0,187.1 236.5,186.9 237.9,186.6 239.4,186.4 240.9,186.2 242.4,186.0 243.9,185.7 245.3,185.5 246.8,185.3 248.3,185.0 249.8,184.8 251.3,184.5 252.8,184.3 254.2,184.0 255.7,183.8 257.2,183.6 258.7,183.3 260.2,183.0 261.7,182.8 263.1,182.5 264.6,182.3 266.1,182.0 267.6,181.8 269.1,181.5 270.6,181.2 272.1,181.0 273.5,180.7 275.0,180.4 276.5,180.2 278.0,179.9 279.5,179.6 281.0,179.4 282.4,179.1 283.9,178.8 285.4,178.5 286.9,178.3 288.4,178.0 289.9,177.7 291.3,177.4 292.8,177.2 294.3,176.9 295.8,176.6 297.3,176.3 298.8,176.0 300.2,175.7 301.7,175.5 303.2,175.2 304.7,174.9 306.2,174.6 307.6,174.3 309.1,174.0 310.6,173.7 312.1,173.4 313.6,173.1 315.1,172.8 316.5,172.5 318.0,172.2 319.5,172.0 321.0,171.7 322.5,171.4 324.0,171.1 325.5,170.8 326.9,170.5 328.4,170.2 329.9,169.8 331.4,169.5 332.9,169.2 334.4,168.9 335.8,168.6 337.3,168.2 338.8,167.9 340.3,167.6 341.8,167.2 343.2,166.9 344.7,166.6 346.2,166.2 347.7,165.9 349.2,165.7 350.7,165.5 352.2,165.1 353.6,164.8 355.1,164.6 356.6,164.3 358.1,164.1 359.6,163.9 361.1,163.7 362.5,163.5 364.0,163.3 365.5,163.1 367.0,162.9 368.5,162.7 370.0,162.5 371.4,162.3 372.9,162.1 374.4,161.9 375.9,161.7 377.4,161.6 378.9,161.4 380.3,161.2 381.8,161.0 383.3,160.8 384.8,160.6 386.3,160.4 387.8,160.2 389.2,160.0 390.7,159.8 392.2,159.6 393.7,159.4 395.2,159.2 396.7,159.0 398.1,158.7 399.6,158.5 401.1,158.3 402.6,158.1 404.1,157.9 405.6,157.6 407.0,157.4 408.5,157.2 410.0,156.9 411.5,156.7 413.0,156.5 414.4,156.2 415.9,156.0 417.4,155.7 418.9,155.5 420.4,155.2 421.9,155.0 423.4,154.7 424.8,154.5 426.3,154.2 427.8,154.0 429.3,153.7 430.8,153.4 432.2,153.2 433.7,152.9 435.2,152.6 436.7,152.4 438.2,152.1 439.7,151.8 441.2,151.6 442.6,151.3 444.1,151.0 445.6,150.7 447.1,150.4 448.6,150.2 450.1,149.9 451.5,149.6 453.0,149.3 454.5,149.0 456.0,148.7 457.5,148.4 458.9,148.1 460.4,147.9 461.9,147.6 463.4,147.3 464.9,147.0 466.4,146.7 467.9,146.4 469.3,146.1 470.8,145.8 472.3,145.5 473.8,145.2 475.3,144.9 476.8,144.6 478.2,144.3 479.7,144.0 481.2,143.7 482.7,143.4 484.2,143.1 485.7,142.7 487.1,142.4 488.6,142.1 490.1,141.8 491.6,141.5 493.1,141.2 494.6,140.9 496.0,140.6 497.5,140.3 499.0,140.0 500.5,139.7 502.0,139.4 503.4,139.0 504.9,138.7 506.4,138.4 507.9,138.1 509.4,137.8 510.9,137.5 512.4,137.2 513.8,136.9 515.3,136.6 516.8,136.3 518.3,135.9 519.8,135.6 521.2,135.3 522.7,135.0 524.2,134.7 525.7,134.4 527.2,134.1 528.7,133.8 530.2,133.5 531.6,133.2 533.1,132.8 534.6,132.5 536.1,132.2 537.6,131.9 539.0,131.6 540.5,131.3 542.0,131.0 543.5,130.7 545.0,130.4 546.5,130.1 548.0,129.8 549.4,129.5 550.9,129.2 552.4,128.9 553.9,128.6 555.4,128.3 556.8,128.0 558.3,127.7 559.8,127.4 561.3,127.1 562.8,126.8 564.3,126.5 565.8,126.2 567.2,125.9 568.7,125.6 570.2,125.3 571.7,125.0 573.2,124.7 574.7,124.4 576.1,124.1 577.6,123.8 579.1,123.5 580.6,123.2 582.1,122.9 583.6,122.7 585.0,122.4 586.5,122.1 588.0,121.8 589.5,121.5 591.0,121.2 592.5,121.0 593.9,120.7 595.4,120.4 596.9,120.1 598.4,119.8 599.9,119.6 601.3,119.3 602.8,119.0 604.3,118.7 605.8,118.5 607.3,118.2 608.8,117.9 610.2,117.7 611.7,117.4 613.2,117.1 614.7,116.9 616.2,116.6 617.7,116.3 619.2,116.1 620.6,115.8 622.1,115.5 623.6,115.3 625.1,115.0 626.6,114.8 628.1,114.5 629.5,114.3 631.0,114.0 632.5,113.7 634.0,113.5 635.5,113.2 637.0,113.0 638.4,112.8 639.9,112.5 641.4,112.3 642.9,112.0 644.4,111.8 645.9,111.5 647.3,111.3 648.8,111.1 650.3,110.8 651.8,110.6 653.3,110.3 654.8,110.1 656.2,109.9 657.7,109.6 659.2,109.4 660.7,109.2 662.2,109.0 663.7,108.7 665.1,108.5 666.6,108.3 668.1,108.1 669.6,107.8 671.1,107.6 672.6,107.4 674.0,107.2 675.5,107.0 677.0,106.7 678.5,106.5 680.0,106.3 681.5,106.1 682.9,105.9 684.4,105.7 685.9,105.5 687.4,105.3 688.9,105.1 690.4,104.9 691.8,104.7 693.3,104.5 694.8,104.3 696.3,104.1 697.8,103.9 699.2,103.7 700.7,103.5 702.2,103.3 703.7,103.1 705.2,102.9 706.7,102.7 708.2,102.5 709.6,102.3 711.1,102.1 712.6,101.9 714.1,101.8 715.6,101.6 717.1,101.4 718.5,101.2 720.0,101.0 721.5,100.9 723.0,100.7 724.5,100.5 726.0,100.3 727.4,100.1 728.9,100.0 730.4,99.8 731.9,99.6 733.4,99.5 734.9,99.3 736.3,99.1 737.8,99.0 739.3,98.8 740.8,98.6 742.3,98.5 743.8,98.3 745.2,98.1 746.7,98.0 748.2,97.8 749.7,97.7 751.2,97.5 752.7,97.4 754.1,97.2 755.6,97.1 757.1,96.9 758.6,96.7 760.1,96.6 761.6,96.4 763.0,96.3 764.5,96.2 766.0,96.0"/>
<line x1="606" y1="42" x2="628" y2="42" stroke="#0f62fe" stroke-width="2.2"/>
<text x="634" y="46" font-family="Arial" font-size="12">elevator_deg</text>
<polyline fill="none" stroke="#24a148" stroke-width="2.2" points="54.0,54.0 55.5,54.0 57.0,54.0 58.5,54.0 59.9,54.0 61.4,54.0 62.9,54.0 64.4,54.0 65.9,54.0 67.3,54.0 68.8,54.0 70.3,54.0 71.8,54.0 73.3,54.0 74.8,54.0 76.2,54.0 77.7,54.0 79.2,54.0 80.7,54.0 82.2,54.0 83.7,54.0 85.2,54.0 86.6,54.0 88.1,54.0 89.6,54.0 91.1,54.0 92.6,54.0 94.1,54.0 95.5,54.0 97.0,54.0 98.5,54.0 100.0,54.0 101.5,54.0 103.0,54.0 104.4,54.0 105.9,54.0 107.4,54.0 108.9,54.0 110.4,54.0 111.8,54.0 113.3,54.0 114.8,54.0 116.3,54.0 117.8,54.0 119.3,54.0 120.8,54.0 122.2,54.0 123.7,54.0 125.2,54.0 126.7,54.0 128.2,54.0 129.7,54.0 131.1,54.0 132.6,54.0 134.1,54.0 135.6,54.0 137.1,54.0 138.6,54.0 140.0,54.0 141.5,54.0 143.0,54.0 144.5,54.0 146.0,54.0 147.4,54.0 148.9,54.0 150.4,54.0 151.9,54.0 153.4,54.0 154.9,54.0 156.4,54.0 157.8,54.0 159.3,54.0 160.8,54.0 162.3,54.0 163.8,54.0 165.2,54.0 166.7,54.0 168.2,54.0 169.7,54.0 171.2,54.0 172.7,54.0 174.1,54.0 175.6,54.0 177.1,54.0 178.6,54.0 180.1,54.0 181.6,54.0 183.1,54.0 184.5,54.0 186.0,54.0 187.5,54.0 189.0,54.0 190.5,54.0 192.0,54.0 193.4,54.0 194.9,54.0 196.4,54.0 197.9,54.0 199.4,54.0 200.9,54.0 202.3,54.0 203.8,54.0 205.3,54.0 206.8,54.0 208.3,54.0 209.8,54.0 211.2,54.0 212.7,54.0 214.2,54.0 215.7,54.0 217.2,54.0 218.7,54.0 220.1,54.0 221.6,54.0 223.1,54.0 224.6,54.0 226.1,54.0 227.6,54.0 229.0,54.0 230.5,54.0 232.0,54.0 233.5,54.0 235.0,54.0 236.5,54.0 237.9,54.0 239.4,54.0 240.9,54.0 242.4,54.0 243.9,54.0 245.3,54.0 246.8,54.0 248.3,54.0 249.8,54.0 251.3,54.0 252.8,54.0 254.2,54.0 255.7,54.0 257.2,54.0 258.7,54.0 260.2,54.0 261.7,54.0 263.1,54.0 264.6,54.0 266.1,54.0 267.6,54.0 269.1,54.0 270.6,54.0 272.1,54.0 273.5,54.0 275.0,54.0 276.5,54.0 278.0,54.0 279.5,54.0 281.0,54.0 282.4,54.0 283.9,54.0 285.4,54.0 286.9,54.0 288.4,54.0 289.9,54.0 291.3,54.0 292.8,54.0 294.3,54.0 295.8,54.0 297.3,54.0 298.8,54.0 300.2,54.0 301.7,54.0 303.2,54.0 304.7,54.0 306.2,54.0 307.6,54.0 309.1,54.0 310.6,54.0 312.1,54.0 313.6,54.0 315.1,54.0 316.5,54.0 318.0,54.0 319.5,54.0 321.0,54.0 322.5,54.0 324.0,54.0 325.5,54.0 326.9,54.0 328.4,54.0 329.9,54.0 331.4,54.0 332.9,54.0 334.4,54.0 335.8,54.0 337.3,54.0 338.8,54.0 340.3,54.0 341.8,54.0 343.2,54.0 344.7,54.0 346.2,54.0 347.7,54.0 349.2,54.0 350.7,54.0 352.2,54.0 353.6,54.0 355.1,54.0 356.6,54.0 358.1,54.0 359.6,54.0 361.1,54.0 362.5,54.0 364.0,54.0 365.5,54.0 367.0,54.0 368.5,54.0 370.0,54.0 371.4,54.0 372.9,54.0 374.4,54.0 375.9,54.0 377.4,54.0 378.9,54.0 380.3,54.0 381.8,54.0 383.3,54.0 384.8,54.0 386.3,54.0 387.8,54.0 389.2,54.0 390.7,54.0 392.2,54.0 393.7,54.0 395.2,54.0 396.7,54.0 398.1,54.0 399.6,54.0 401.1,54.0 402.6,54.0 404.1,54.0 405.6,54.0 407.0,54.0 408.5,54.0 410.0,54.0 411.5,54.0 413.0,54.0 414.4,54.0 415.9,54.0 417.4,54.0 418.9,54.0 420.4,54.0 421.9,54.0 423.4,54.0 424.8,54.0 426.3,54.0 427.8,54.0 429.3,54.0 430.8,54.0 432.2,54.0 433.7,54.0 435.2,54.0 436.7,54.0 438.2,54.0 439.7,54.0 441.2,54.0 442.6,54.0 444.1,54.0 445.6,54.0 447.1,54.0 448.6,54.0 450.1,54.0 451.5,54.0 453.0,54.0 454.5,54.0 456.0,54.0 457.5,54.0 458.9,54.0 460.4,54.0 461.9,54.0 463.4,54.0 464.9,54.0 466.4,54.0 467.9,54.0 469.3,54.0 470.8,54.0 472.3,54.0 473.8,54.0 475.3,54.0 476.8,54.0 478.2,54.0 479.7,54.0 481.2,54.0 482.7,54.0 484.2,54.0 485.7,54.0 487.1,54.0 488.6,54.0 490.1,54.0 491.6,54.0 493.1,54.0 494.6,54.0 496.0,54.0 497.5,54.0 499.0,54.0 500.5,54.0 502.0,54.0 503.4,54.0 504.9,54.0 506.4,54.0 507.9,54.0 509.4,54.0 510.9,54.0 512.4,54.0 513.8,54.0 515.3,54.0 516.8,54.0 518.3,54.0 519.8,54.0 521.2,54.0 522.7,54.0 524.2,54.0 525.7,54.0 527.2,54.0 528.7,54.0 530.2,54.0 531.6,54.0 533.1,54.0 534.6,54.0 536.1,54.0 537.6,54.0 539.0,54.0 540.5,54.0 542.0,54.0 543.5,54.0 545.0,54.0 546.5,54.0 548.0,54.0 549.4,54.0 550.9,54.0 552.4,54.0 553.9,54.0 555.4,54.0 556.8,54.0 558.3,54.0 559.8,54.0 561.3,54.0 562.8,54.0 564.3,54.0 565.8,54.0 567.2,54.0 568.7,54.0 570.2,54.0 571.7,54.0 573.2,54.0 574.7,54.0 576.1,54.0 577.6,54.0 579.1,54.0 580.6,54.0 582.1,54.0 583.6,54.0 585.0,54.0 586.5,54.0 588.0,54.0 589.5,54.0 591.0,54.0 592.5,54.0 593.9,54.0 595.4,54.0 596.9,54.0 598.4,54.0 599.9,54.0 601.3,54.0 602.8,54.0 604.3,54.0 605.8,54.0 607.3,54.0 608.8,54.0 610.2,54.0 611.7,54.0 613.2,54.0 614.7,54.0 616.2,54.0 617.7,54.0 619.2,54.0 620.6,54.0 622.1,54.0 623.6,54.0 625.1,54.0 626.6,54.0 628.1,54.0 629.5,54.0 631.0,54.0 632.5,54.0 634.0,54.0 635.5,54.0 637.0,54.0 638.4,54.0 639.9,54.0 641.4,54.0 642.9,54.0 644.4,54.0 645.9,54.0 647.3,54.0 648.8,54.0 650.3,54.0 651.8,54.0 653.3,54.0 654.8,54.0 656.2,54.0 657.7,54.0 659.2,54.0 660.7,54.0 662.2,54.0 663.7,54.0 665.1,54.0 666.6,54.0 668.1,54.0 669.6,54.0 671.1,54.0 672.6,54.0 674.0,54.0 675.5,54.0 677.0,54.0 678.5,54.0 680.0,54.0 681.5,54.0 682.9,54.0 684.4,54.0 685.9,54.0 687.4,54.0 688.9,54.0 690.4,54.0 691.8,54.0 693.3,54.0 694.8,54.0 696.3,54.0 697.8,54.0 699.2,54.0 700.7,54.0 702.2,54.0 703.7,54.0 705.2,54.0 706.7,54.0 708.2,54.0 709.6,54.0 711.1,54.0 712.6,54.0 714.1,54.0 715.6,54.0 717.1,54.0 718.5,54.0 720.0,54.0 721.5,54.0 723.0,54.0 724.5,54.0 726.0,54.0 727.4,54.0 728.9,54.0 730.4,54.0 731.9,54.0 733.4,54.0 734.9,54.0 736.3,54.0 737.8,54.0 739.3,54.0 740.8,54.0 742.3,54.0 743.8,54.0 745.2,54.0 746.7,54.0 748.2,54.0 749.7,54.0 751.2,54.0 752.7,54.0 754.1,54.0 755.6,54.0 757.1,54.0 758.6,54.0 760.1,54.0 761.6,54.0 763.0,54.0 764.5,54.0 766.0,54.0"/>
<line x1="606" y1="60" x2="628" y2="60" stroke="#24a148" stroke-width="2.2"/>
<text x="634" y="64" font-family="Arial" font-size="12">aileron_deg</text>
<polyline fill="none" stroke="#da1e28" stroke-width="2.2" points="54.0,54.0 55.5,54.0 57.0,54.0 58.5,54.0 59.9,54.0 61.4,54.0 62.9,54.0 64.4,54.0 65.9,54.0 67.3,54.0 68.8,54.0 70.3,54.0 71.8,54.0 73.3,54.0 74.8,54.0 76.2,54.0 77.7,54.0 79.2,54.0 80.7,54.0 82.2,54.0 83.7,54.0 85.2,54.0 86.6,54.0 88.1,54.0 89.6,54.0 91.1,54.0 92.6,54.0 94.1,54.0 95.5,54.0 97.0,54.0 98.5,54.0 100.0,54.0 101.5,54.0 103.0,54.0 104.4,54.0 105.9,54.0 107.4,54.0 108.9,54.0 110.4,54.0 111.8,54.0 113.3,54.0 114.8,54.0 116.3,54.0 117.8,54.0 119.3,54.0 120.8,54.0 122.2,54.0 123.7,54.0 125.2,54.0 126.7,54.0 128.2,54.0 129.7,54.0 131.1,54.0 132.6,54.0 134.1,54.0 135.6,54.0 137.1,54.0 138.6,54.0 140.0,54.0 141.5,54.0 143.0,54.0 144.5,54.0 146.0,54.0 147.4,54.0 148.9,54.0 150.4,54.0 151.9,54.0 153.4,54.0 154.9,54.0 156.4,54.0 157.8,54.0 159.3,54.0 160.8,54.0 162.3,54.0 163.8,54.0 165.2,54.0 166.7,54.0 168.2,54.0 169.7,54.0 171.2,54.0 172.7,54.0 174.1,54.0 175.6,54.0 177.1,54.0 178.6,54.0 180.1,54.0 181.6,54.0 183.1,54.0 184.5,54.0 186.0,54.0 187.5,54.0 189.0,54.0 190.5,54.0 192.0,54.0 193.4,54.0 194.9,54.0 196.4,54.0 197.9,54.0 199.4,54.0 200.9,54.0 202.3,54.0 203.8,54.0 205.3,54.0 206.8,54.0 208.3,54.0 209.8,54.0 211.2,54.0 212.7,54.0 214.2,54.0 215.7,54.0 217.2,54.0 218.7,54.0 220.1,54.0 221.6,54.0 223.1,54.0 224.6,54.0 226.1,54.0 227.6,54.0 229.0,54.0 230.5,54.0 232.0,54.0 233.5,54.0 235.0,54.0 236.5,54.0 237.9,54.0 239.4,54.0 240.9,54.0 242.4,54.0 243.9,54.0 245.3,54.0 246.8,54.0 248.3,54.0 249.8,54.0 251.3,54.0 252.8,54.0 254.2,54.0 255.7,54.0 257.2,54.0 258.7,54.0 260.2,54.0 261.7,54.0 263.1,54.0 264.6,54.0 266.1,54.0 267.6,54.0 269.1,54.0 270.6,54.0 272.1,54.0 273.5,54.0 275.0,54.0 276.5,54.0 278.0,54.0 279.5,54.0 281.0,54.0 282.4,54.0 283.9,54.0 285.4,54.0 286.9,54.0 288.4,54.0 289.9,54.0 291.3,54.0 292.8,54.0 294.3,54.0 295.8,54.0 297.3,54.0 298.8,54.0 300.2,54.0 301.7,54.0 303.2,54.0 304.7,54.0 306.2,54.0 307.6,54.0 309.1,54.0 310.6,54.0 312.1,54.0 313.6,54.0 315.1,54.0 316.5,54.0 318.0,54.0 319.5,54.0 321.0,54.0 322.5,54.0 324.0,54.0 325.5,54.0 326.9,54.0 328.4,54.0 329.9,54.0 331.4,54.0 332.9,54.0 334.4,54.0 335.8,54.0 337.3,54.0 338.8,54.0 340.3,54.0 341.8,54.0 343.2,54.0 344.7,54.0 346.2,54.0 347.7,54.0 349.2,54.0 350.7,54.0 352.2,54.0 353.6,54.0 355.1,54.0 356.6,54.0 358.1,54.0 359.6,54.0 361.1,54.0 362.5,54.0 364.0,54.0 365.5,54.0 367.0,54.0 368.5,54.0 370.0,54.0 371.4,54.0 372.9,54.0 374.4,54.0 375.9,54.0 377.4,54.0 378.9,54.0 380.3,54.0 381.8,54.0 383.3,54.0 384.8,54.0 386.3,54.0 387.8,54.0 389.2,54.0 390.7,54.0 392.2,54.0 393.7,54.0 395.2,54.0 396.7,54.0 398.1,54.0 399.6,54.0 401.1,54.0 402.6,54.0 404.1,54.0 405.6,54.0 407.0,54.0 408.5,54.0 410.0,54.0 411.5,54.0 413.0,54.0 414.4,54.0 415.9,54.0 417.4,54.0 418.9,54.0 420.4,54.0 421.9,54.0 423.4,54.0 424.8,54.0 426.3,54.0 427.8,54.0 429.3,54.0 430.8,54.0 432.2,54.0 433.7,54.0 435.2,54.0 436.7,54.0 438.2,54.0 439.7,54.0 441.2,54.0 442.6,54.0 444.1,54.0 445.6,54.0 447.1,54.0 448.6,54.0 450.1,54.0 451.5,54.0 453.0,54.0 454.5,54.0 456.0,54.0 457.5,54.0 458.9,54.0 460.4,54.0 461.9,54.0 463.4,54.0 464.9,54.0 466.4,54.0 467.9,54.0 469.3,54.0 470.8,54.0 472.3,54.0 473.8,54.0 475.3,54.0 476.8,54.0 478.2,54.0 479.7,54.0 481.2,54.0 482.7,54.0 484.2,54.0 485.7,54.0 487.1,54.0 488.6,54.0 490.1,54.0 491.6,54.0 493.1,54.0 494.6,54.0 496.0,54.0 497.5,54.0 499.0,54.0 500.5,54.0 502.0,54.0 503.4,54.0 504.9,54.0 506.4,54.0 507.9,54.0 509.4,54.0 510.9,54.0 512.4,54.0 513.8,54.0 515.3,54.0 516.8,54.0 518.3,54.0 519.8,54.0 521.2,54.0 522.7,54.0 524.2,54.0 525.7,54.0 527.2,54.0 528.7,54.0 530.2,54.0 531.6,54.0 533.1,54.0 534.6,54.0 536.1,54.0 537.6,54.0 539.0,54.0 540.5,54.0 542.0,54.0 543.5,54.0 545.0,54.0 546.5,54.0 548.0,54.0 549.4,54.0 550.9,54.0 552.4,54.0 553.9,54.0 555.4,54.0 556.8,54.0 558.3,54.0 559.8,54.0 561.3,54.0 562.8,54.0 564.3,54.0 565.8,54.0 567.2,54.0 568.7,54.0 570.2,54.0 571.7,54.0 573.2,54.0 574.7,54.0 576.1,54.0 577.6,54.0 579.1,54.0 580.6,54.0 582.1,54.0 583.6,54.0 585.0,54.0 586.5,54.0 588.0,54.0 589.5,54.0 591.0,54.0 592.5,54.0 593.9,54.0 595.4,54.0 596.9,54.0 598.4,54.0 599.9,54.0 601.3,54.0 602.8,54.0 604.3,54.0 605.8,54.0 607.3,54.0 608.8,54.0 610.2,54.0 611.7,54.0 613.2,54.0 614.7,54.0 616.2,54.0 617.7,54.0 619.2,54.0 620.6,54.0 622.1,54.0 623.6,54.0 625.1,54.0 626.6,54.0 628.1,54.0 629.5,54.0 631.0,54.0 632.5,54.0 634.0,54.0 635.5,54.0 637.0,54.0 638.4,54.0 639.9,54.0 641.4,54.0 642.9,54.0 644.4,54.0 645.9,54.0 647.3,54.0 648.8,54.0 650.3,54.0 651.8,54.0 653.3,54.0 654.8,54.0 656.2,54.0 657.7,54.0 659.2,54.0 660.7,54.0 662.2,54.0 663.7,54.0 665.1,54.0 666.6,54.0 668.1,54.0 669.6,54.0 671.1,54.0 672.6,54.0 674.0,54.0 675.5,54.0 677.0,54.0 678.5,54.0 680.0,54.0 681.5,54.0 682.9,54.0 684.4,54.0 685.9,54.0 687.4,54.0 688.9,54.0 690.4,54.0 691.8,54.0 693.3,54.0 694.8,54.0 696.3,54.0 697.8,54.0 699.2,54.0 700.7,54.0 702.2,54.0 703.7,54.0 705.2,54.0 706.7,54.0 708.2,54.0 709.6,54.0 711.1,54.0 712.6,54.0 714.1,54.0 715.6,54.0 717.1,54.0 718.5,54.0 720.0,54.0 721.5,54.0 723.0,54.0 724.5,54.0 726.0,54.0 727.4,54.0 728.9,54.0 730.4,54.0 731.9,54.0 733.4,54.0 734.9,54.0 736.3,54.0 737.8,54.0 739.3,54.0 740.8,54.0 742.3,54.0 743.8,54.0 745.2,54.0 746.7,54.0 748.2,54.0 749.7,54.0 751.2,54.0 752.7,54.0 754.1,54.0 755.6,54.0 757.1,54.0 758.6,54.0 760.1,54.0 761.6,54.0 763.0,54.0 764.5,54.0 766.0,54.0"/>
<line x1="606" y1="78" x2="628" y2="78" stroke="#da1e28" stroke-width="2.2"/>
<text x="634" y="82" font-family="Arial" font-size="12">rudder_deg</text>
</svg>