<svg xmlns="http://www.w3.org/2000/svg" width="820" height="320" viewBox="0 0 820 320">
<rect width="100%" height="100%" fill="#ffffff"/>
<text x="54" y="28" font-family="Arial" font-size="18" font-weight="700">GPS Altitude vs Truth</text>
<line x1="54" y1="266" x2="766" y2="266" stroke="#1f2933"/>
<line x1="54" y1="54" x2="54" y2="266" stroke="#1f2933"/>
<text x="54" y="306" font-family="Arial" font-size="12">time (s)</text>
<text x="596" y="306" font-family="Arial" font-size="12">altitude (m)</text>
<text x="58" y="68" font-family="Arial" font-size="11">1.3e+03</text>
<text x="58" y="260" font-family="Arial" font-size="11">898</text>
<polyline fill="none" stroke="#0f62fe" stroke-width="2.2" points="54.0,264.8 55.5,264.7 57.0,264.7 58.5,264.6 59.9,264.6 61.4,264.5 62.9,264.4 64.4,264.4 65.9,264.3 67.3,264.3 68.8,264.2 70.3,264.2 71.8,264.1 73.3,264.1 74.8,264.1 76.2,264.0 77.7,264.0 79.2,263.9 80.7,263.9 82.2,263.8 83.7,263.8 85.2,263.7 86.6,263.7 88.1,263.6 89.6,263.6 91.1,263.5 92.6,263.5 94.1,263.5 95.5,263.4 97.0,263.4 98.5,263.3 100.0,263.3 101.5,263.2 103.0,263.2 104.4,263.1 105.9,263.1 107.4,263.1 108.9,263.0 110.4,263.0 111.8,262.9 113.3,262.9 114.8,262.8 116.3,262.8 117.8,262.7 119.3,262.7 120.8,262.7 122.2,262.6 123.7,262.6 125.2,262.5 126.7,262.5 128.2,262.4 129.7,262.4 131.1,262.3 132.6,262.3 134.1,262.2 135.6,262.2 137.1,262.1 138.6,262.1 140.0,262.0 141.5,262.0 143.0,261.9 144.5,261.9 146.0,261.8 147.4,261.8 148.9,261.7 150.4,261.7 151.9,261.6 153.4,261.6 154.9,261.5 156.4,261.5 157.8,261.4 159.3,261.4 160.8,261.3 162.3,261.2 163.8,261.2 165.2,261.1 166.7,261.1 168.2,261.0 169.7,260.9 171.2,260.9 172.7,260.8 174.1,260.8 175.6,260.7 177.1,260.6 178.6,260.6 180.1,260.5 181.6,260.4 183.1,260.3 184.5,260.3 186.0,260.2 187.5,260.1 189.0,260.1 190.5,260.0 192.0,259.9 193.4,259.8 194.9,259.8 196.4,259.7 197.9,259.6 199.4,259.5 200.9,259.4 202.3,259.3 203.8,259.3 205.3,259.2 206.8,259.1 208.3,259.0 209.8,258.9 211.2,258.8 212.7,258.7 214.2,258.6 215.7,258.5 217.2,258.4 218.7,258.3 220.1,258.2 221.6,258.1 223.1,258.0 224.6,257.9 226.1,257.8 227.6,257.7 229.0,257.6 230.5,257.5 232.0,257.4 233.5,257.3 235.0,257.2 236.5,257.0 237.9,256.9 239.4,256.8 240.9,256.7 242.4,256.6 243.9,256.4 245.3,256.3 246.8,256.2 248.3,256.0 249.8,255.9 251.3,255.8 252.8,255.6 254.2,255.5 255.7,255.4 257.2,255.2 258.7,255.1 260.2,254.9 261.7,254.8 263.1,254.6 264.6,254.5 266.1,254.3 267.6,254.2 269.1,254.0 270.6,253.9 272.1,253.7 273.5,253.6 275.0,253.4 276.5,253.2 278.0,253.1 279.5,252.9 281.0,252.7 282.4,252.5 283.9,252.4 285.4,252.2 286.9,252.0 288.4,251.8 289.9,251.6 291.3,251.5 292.8,251.3 294.3,251.1 295.8,250.9 297.3,250.7 298.8,250.5 300.2,250.3 301.7,250.1 303.2,249.9 304.7,249.7 306.2,249.5 307.6,249.3 309.1,249.1 310.6,248.8 312.1,248.6 313.6,248.4 315.1,248.2 316.5,248.0 318.0,247.7 319.5,247.5 321.0,247.3 322.5,247.0 324.0,246.8 325.5,246.6 326.9,246.3 328.4,246.1 329.9,245.8 331.4,245.6 332.9,245.3 334.4,245.1 335.8,244.8 337.3,244.6 338.8,244.3 340.3,244.1 341.8,243.8 343.2,243.5 344.7,243.3 346.2,243.0 347.7,242.7 349.2,242.4 350.7,242.2 352.2,241.9 353.6,241.6 355.1,241.3 356.6,241.0 358.1,240.7 359.6,240.4 361.1,240.1 362.5,239.8 364.0,239.5 365.5,239.2 367.0,238.9 368.5,238.6 370.0,238.3 371.4,238.0 372.9,237.7 374.4,237.3 375.9,237.0 377.4,236.7 378.9,236.4 380.3,236.0 381.8,235.7 383.3,235.4 384.8,235.0 386.3,234.7 387.8,234.3 389.2,234.0 390.7,233.6 392.2,233.3 393.7,232.9 395.2,232.6 396.7,232.2 398.1,231.8 399.6,231.5 401.1,231.1 402.6,230.7 404.1,230.3 405.6,230.0 407.0,229.6 408.5,229.2 410.0,228.8 411.5,228.4 413.0,228.0 414.4,227.6 415.9,227.2 417.4,226.8 418.9,226.4 420.4,226.0 421.9,225.6 423.4,225.2 424.8,224.8 426.3,224.3 427.8,223.9 429.3,223.5 430.8,223.1 432.2,222.6 433.7,222.2 435.2,221.8 436.7,221.3 438.2,220.9 439.7,220.4 441.2,220.0 442.6,219.5 444.1,219.1 445.6,218.6 447.1,218.2 448.6,217.7 450.1,217.2 451.5,216.7 453.0,216.3 454.5,215.8 456.0,215.3 457.5,214.8 458.9,214.3 460.4,213.9 461.9,213.4 463.4,212.9 464.9,212.4 466.4,211.9 467.9,211.4 469.3,210.9 470.8,210.3 472.3,209.8 473.8,209.3 475.3,208.8 476.8,208.3 478.2,207.7 479.7,207.2 481.2,206.7 482.7,206.1 484.2,205.6 485.7,205.1 487.1,204.5 488.6,204.0 490.1,203.4 491.6,202.9 493.1,202.3 494.6,201.7 496.0,201.2 497.5,200.6 499.0,200.1 500.5,199.5 502.0,198.9 503.4,198.3 504.9,197.7 506.4,197.2 507.9,196.6 509.4,196.0 510.9,195.4 512.4,194.8 513.8,194.2 515.3,193.6 516.8,193.0 518.3,192.4 519.8,191.8 521.2,191.2 522.7,190.5 524.2,189.9 525.7,189.3 527.2,188.7 528.7,188.0 530.2,187.4 531.6,186.8 533.1,186.1 534.6,185.5 536.1,184.8 537.6,184.2 539.0,183.5 540.5,182.9 542.0,182.2 543.5,181.6 545.0,180.9 546.5,180.3 548.0,179.6 549.4,178.9 550.9,178.2 552.4,177.6 553.9,176.9 555.4,176.2 556.8,175.5 558.3,174.8 559.8,174.1 561.3,173.4 562.8,172.8 564.3,172.1 565.8,171.4 567.2,170.6 568.7,169.9 570.2,169.2 571.7,168.5 573.2,167.8 574.7,167.1 576.1,166.4 577.6,165.6 579.1,164.9 580.6,164.2 582.1,163.4 583.6,162.7 585.0,162.0 586.5,161.2 588.0,160.5 589.5,159.7 591.0,159.0 592.5,158.2 593.9,157.5 595.4,156.7 596.9,156.0 598.4,155.2 599.9,154.4 601.3,153.7 602.8,152.9 604.3,152.1 605.8,151.4 607.3,150.6 608.8,149.8 610.2,149.0 611.7,148.2 613.2,147.4 614.7,146.6 616.2,145.9 617.7,145.1 619.2,144.3 620.6,143.5 622.1,142.7 623.6,141.8 625.1,141.0 626.6,140.2 628.1,139.4 629.5,138.6 631.0,137.8 632.5,137.0 634.0,136.1 635.5,135.3 637.0,134.5 638.4,133.6 639.9,132.8 641.4,132.0 642.9,131.1 644.4,130.3 645.9,129.5 647.3,128.6 648.8,127.8 650.3,126.9 651.8,126.1 653.3,125.2 654.8,124.3 656.2,123.5 657.7,122.6 659.2,121.8 660.7,120.9 662.2,120.0 663.7,119.2 665.1,118.3 666.6,117.4 668.1,116.5 669.6,115.6 671.1,114.8 672.6,113.9 674.0,113.0 675.5,112.1 677.0,111.2 678.5,110.3 680.0,109.4 681.5,108.5 682.9,107.6 684.4,106.7 685.9,105.8 687.4,104.9 688.9,104.0 690.4,103.1 691.8,102.2 693.3,101.3 694.8,100.3 696.3,99.4 697.8,98.5 699.2,97.6 700.7,96.7 702.2,95.7 703.7,94.8 705.2,93.9 706.7,92.9 708.2,92.0 709.6,91.1 711.1,90.1 712.6,89.2 714.1,88.2 715.6,87.3 717.1,86.3 718.5,85.4 720.0,84.4 721.5,83.5 723.0,82.5 724.5,81.6 726.0,80.6 727.4,79.7 728.9,78.7 730.4,77.7 731.9,76.8 733.4,75.8 734.9,74.8 736.3,73.8 737.8,72.9 739.3,71.9 740.8,70.9 742.3,69.9 743.8,69.0 745.2,68.0 746.7,67.0 748.2,66.0 749.7,65.0 751.2,64.0 752.7,63.0 754.1,62.0 755.6,61.0 757.1,60.0 758.6,59.0 760.1,58.0 761.6,57.0 763.0,56.0 764.5,55.0 766.0,54.0"/>
<line x1="606" y1="42" x2="628" y2="42" stroke="#0f62fe" stroke-width="2.2"/>
<text x="634" y="46" font-family="Arial" font-size="12">altitude_m</text>
<polyline fill="none" stroke="#24a148" stroke-width="2.2" points="54.0,266.0 55.5,266.0 57.0,266.0 58.5,266.0 59.9,266.0 61.4,266.0 62.9,266.0 64.4,266.0 65.9,264.6 67.3,264.6 68.8,264.6 70.3,264.6 71.8,264.6 73.3,264.6 74.8,264.6 76.2,264.6 77.7,264.2 79.2,264.2 80.7,264.2 82.2,264.2 83.7,264.2 85.2,264.2 86.6,264.2 88.1,264.2 89.6,262.9 91.1,262.9 92.6,262.9 94.1,262.9 95.5,262.9 97.0,262.9 98.5,262.9 100.0,262.9 101.5,262.7 103.0,262.7 104.4,262.7 105.9,262.7 107.4,262.7 108.9,262.7 110.4,262.7 111.8,262.7 113.3,262.5 114.8,262.5 116.3,262.5 117.8,262.5 119.3,262.5 120.8,262.5 122.2,262.5 123.7,262.5 125.2,261.6 126.7,261.6 128.2,261.6 129.7,261.6 131.1,261.6 132.6,261.6 134.1,261.6 135.6,261.6 137.1,261.9 138.6,261.9 140.0,261.9 141.5,261.9 143.0,261.9 144.5,261.9 146.0,261.9 147.4,261.9 148.9,261.4 150.4,261.4 151.9,261.4 153.4,261.4 154.9,261.4 156.4,261.4 157.8,261.4 159.3,261.4 160.8,260.2 162.3,260.2 163.8,260.2 165.2,260.2 166.7,260.2 168.2,260.2 169.7,260.2 171.2,260.2 172.7,261.7 174.1,261.7 175.6,261.7 177.1,261.7 178.6,261.7 180.1,261.7 181.6,261.7 183.1,261.7 184.5,260.8 186.0,260.8 187.5,260.8 189.0,260.8 190.5,260.8 192.0,260.8 193.4,260.8 194.9,260.8 196.4,260.3 197.9,260.3 199.4,260.3 200.9,260.3 202.3,260.3 203.8,260.3 205.3,260.3 206.8,260.3 208.3,258.9 209.8,258.9 211.2,258.9 212.7,258.9 214.2,258.9 215.7,258.9 217.2,258.9 218.7,258.9 220.1,256.9 221.6,256.9 223.1,256.9 224.6,256.9 226.1,256.9 227.6,256.9 229.0,256.9 230.5,256.9 232.0,257.2 233.5,257.2 235.0,257.2 236.5,257.2 237.9,257.2 239.4,257.2 240.9,257.2 242.4,257.2 243.9,254.6 245.3,254.6 246.8,254.6 248.3,254.6 249.8,254.6 251.3,254.6 252.8,254.6 254.2,254.6 255.7,256.4 257.2,256.4 258.7,256.4 260.2,256.4 261.7,256.4 263.1,256.4 264.6,256.4 266.1,256.4 267.6,254.1 269.1,254.1 270.6,254.1 272.1,254.1 273.5,254.1 275.0,254.1 276.5,254.1 278.0,254.1 279.5,253.4 281.0,253.4 282.4,253.4 283.9,253.4 285.4,253.4 286.9,253.4 288.4,253.4 289.9,253.4 291.3,250.2 292.8,250.2 294.3,250.2 295.8,250.2 297.3,250.2 298.8,250.2 300.2,250.2 301.7,250.2 303.2,249.8 304.7,249.8 306.2,249.8 307.6,249.8 309.1,249.8 310.6,249.8 312.1,249.8 313.6,249.8 315.1,246.2 316.5,246.2 318.0,246.2 319.5,246.2 321.0,246.2 322.5,246.2 324.0,246.2 325.5,246.2 326.9,245.5 328.4,245.5 329.9,245.5 331.4,245.5 332.9,245.5 334.4,245.5 335.8,245.5 337.3,245.5 338.8,245.1 340.3,245.1 341.8,245.1 343.2,245.1 344.7,245.1 346.2,245.1 347.7,245.1 349.2,245.1 350.7,242.3 352.2,242.3 353.6,242.3 355.1,242.3 356.6,242.3 358.1,242.3 359.6,242.3 361.1,242.3 362.5,239.6 364.0,239.6 365.5,239.6 367.0,239.6 368.5,239.6 370.0,239.6 371.4,239.6 372.9,239.6 374.4,237.1 375.9,237.1 377.4,237.1 378.9,237.1 380.3,237.1 381.8,237.1 383.3,237.1 384.8,237.1 386.3,234.7 387.8,234.7 389.2,234.7 390.7,234.7 392.2,234.7 393.7,234.7 395.2,234.7 396.7,234.7 398.1,232.0 399.6,232.0 401.1,232.0 402.6,232.0 404.1,232.0 405.6,232.0 407.0,232.0 408.5,232.0 410.0,228.2 411.5,228.2 413.0,228.2 414.4,228.2 415.9,228.2 417.4,228.2 418.9,228.2 420.4,228.2 421.9,225.9 423.4,225.9 424.8,225.9 426.3,225.9 427.8,225.9 429.3,225.9 430.8,225.9 432.2,225.9 433.7,221.5 435.2,221.5 436.7,221.5 438.2,221.5 439.7,221.5 441.2,221.5 442.6,221.5 444.1,221.5 445.6,218.7 447.1,218.7 448.6,218.7 450.1,218.7 451.5,218.7 453.0,218.7 454.5,218.7 456.0,218.7 457.5,213.2 458.9,213.2 460.4,213.2 461.9,213.2 463.4,213.2 464.9,213.2 466.4,213.2 467.9,213.2 469.3,210.7 470.8,210.7 472.3,210.7 473.8,210.7 475.3,210.7 476.8,210.7 478.2,210.7 479.7,210.7 481.2,205.7 482.7,205.7 484.2,205.7 485.7,205.7 487.1,205.7 488.6,205.7 490.1,205.7 491.6,205.7 493.1,202.5 494.6,202.5 496.0,202.5 497.5,202.5 499.0,202.5 500.5,202.5 502.0,202.5 503.4,202.5 504.9,198.0 506.4,198.0 507.9,198.0 509.4,198.0 510.9,198.0 512.4,198.0 513.8,198.0 515.3,198.0 516.8,192.7 518.3,192.7 519.8,192.7 521.2,192.7 522.7,192.7 524.2,192.7 525.7,192.7 527.2,192.7 528.7,187.3 530.2,187.3 531.6,187.3 533.1,187.3 534.6,187.3 536.1,187.3 537.6,187.3 539.0,187.3 540.5,182.3 542.0,182.3 543.5,182.3 545.0,182.3 546.5,182.3 548.0,182.3 549.4,182.3 550.9,182.3 552.4,177.4 553.9,177.4 555.4,177.4 556.8,177.4 558.3,177.4 559.8,177.4 561.3,177.4 562.8,177.4 564.3,171.7 565.8,171.7 567.2,171.7 568.7,171.7 570.2,171.7 571.7,171.7 573.2,171.7 574.7,171.7 576.1,167.1 577.6,167.1 579.1,167.1 580.6,167.1 582.1,167.1 583.6,167.1 585.0,167.1 586.5,167.1 588.0,161.8 589.5,161.8 591.0,161.8 592.5,161.8 593.9,161.8 595.4,161.8 596.9,161.8 598.4,161.8 599.9,156.3 601.3,156.3 602.8,156.3 604.3,156.3 605.8,156.3 607.3,156.3 608.8,156.3 610.2,156.3 611.7,148.2 613.2,148.2 614.7,148.2 616.2,148.2 617.7,148.2 619.2,148.2 620.6,148.2 622.1,148.2 623.6,141.9 625.1,141.9 626.6,141.9 628.1,141.9 629.5,141.9 631.0,141.9 632.5,141.9 634.0,141.9 635.5,133.3 637.0,133.3 638.4,133.3 639.9,133.3 641.4,133.3 642.9,133.3 644.4,133.3 645.9,133.3 647.3,127.3 648.8,127.3 650.3,127.3 651.8,127.3 653.3,127.3 654.8,127.3 656.2,127.3 657.7,127.3 659.2,121.0 660.7,121.0 662.2,121.0 663.7,121.0 665.1,121.0 666.6,121.0 668.1,121.0 669.6,121.0 671.1,114.0 672.6,114.0 674.0,114.0 675.5,114.0 677.0,114.0 678.5,114.0 680.0,114.0 681.5,114.0 682.9,107.3 684.4,107.3 685.9,107.3 687.4,107.3 688.9,107.3 690.4,107.3 691.8,107.3 693.3,107.3 694.8,102.0 696.3,102.0 697.8,102.0 699.2,102.0 700.7,102.0 702.2,102.0 703.7,102.0 705.2,102.0 706.7,92.5 708.2,92.5 709.6,92.5 711.1,92.5 712.6,92.5 714.1,92.5 715.6,92.5 717.1,92.5 718.5,85.2 720.0,85.2 721.5,85.2 723.0,85.2 724.5,85.2 726.0,85.2 727.4,85.2 728.9,85.2 730.4,76.7 731.9,76.7 733.4,76.7 734.9,76.7 736.3,76.7 737.8,76.7 739.3,76.7 740.8,76.7 742.3,70.8 743.8,70.8 745.2,70.8 746.7,70.8 748.2,70.8 749.7,70.8 751.2,70.8 752.7,70.8 754.1,61.8 755.6,61.8 757.1,61.8 758.6,61.8 760.1,61.8 761.6,61.8 763.0,61.8 764.5,61.8 766.0,54.6"/>
<line x1="606" y1="60" x2="628" y2="60" stroke="#24a148" stroke-width="2.2"/>
<text x="634" y="64" font-family="Arial" font-size="12">gps_z_m</text>
</svg>