<svg xmlns="http://www.w3.org/2000/svg" width="820" height="320" viewBox="0 0 820 320">
<rect width="100%" height="100%" fill="#ffffff"/>
<text x="54" y="28" font-family="Arial" font-size="18" font-weight="700">Pitch Command Tracking</text>
<line x1="54" y1="266" x2="766" y2="266" stroke="#1f2933"/>
<line x1="54" y1="54" x2="54" y2="266" stroke="#1f2933"/>
<text x="54" y="306" font-family="Arial" font-size="12">time (s)</text>
<text x="596" y="306" font-family="Arial" font-size="12">pitch (deg)</text>
<text x="58" y="68" font-family="Arial" font-size="11">26</text>
<text x="58" y="260" font-family="Arial" font-size="11">12.6</text>
<polyline fill="none" stroke="#0f62fe" stroke-width="2.2" points="54.0,54.0 55.5,54.0 57.0,54.0 58.5,54.0 59.9,54.0 61.4,54.0 62.9,54.0 64.4,54.0 65.9,54.0 67.3,54.0 68.8,54.0 70.3,54.0 71.8,54.0 73.3,54.0 74.8,54.0 76.2,54.0 77.7,54.0 79.2,54.0 80.7,54.0 82.2,54.0 83.7,54.0 85.2,54.0 86.6,54.0 88.1,54.0 89.6,54.0 91.1,54.0 92.6,54.0 94.1,54.0 95.5,54.0 97.0,54.0 98.5,54.0 100.0,54.0 101.5,54.0 103.0,54.0 104.4,54.0 105.9,54.0 107.4,54.0 108.9,54.0 110.4,54.0 111.8,54.0 113.3,54.0 114.8,54.0 116.3,54.0 117.8,54.0 119.3,54.0 120.8,54.0 122.2,54.0 123.7,54.0 125.2,54.0 126.7,54.0 128.2,54.0 129.7,54.0 131.1,54.0 132.6,54.0 134.1,54.0 135.6,54.0 137.1,54.0 138.6,54.0 140.0,54.0 141.5,54.0 143.0,54.0 144.5,54.0 146.0,54.0 147.4,54.0 148.9,54.0 150.4,54.0 151.9,54.0 153.4,54.0 154.9,54.0 156.4,54.0 157.8,54.0 159.3,54.0 160.8,54.0 162.3,54.0 163.8,54.0 165.2,54.0 166.7,54.0 168.2,54.0 169.7,54.0 171.2,54.0 172.7,54.0 174.1,54.0 175.6,54.0 177.1,54.0 178.6,54.0 180.1,54.0 181.6,54.0 183.1,54.0 184.5,54.0 186.0,54.0 187.5,54.0 189.0,54.0 190.5,54.0 192.0,54.0 193.4,54.0 194.9,54.0 196.4,54.0 197.9,54.0 199.4,54.0 200.9,54.0 202.3,54.0 203.8,54.0 205.3,54.0 206.8,54.0 208.3,54.0 209.8,54.0 211.2,54.0 212.7,54.0 214.2,54.0 215.7,54.0 217.2,54.0 218.7,54.0 220.1,54.0 221.6,54.0 223.1,54.0 224.6,54.0 226.1,54.0 227.6,54.0 229.0,54.0 230.5,54.0 232.0,54.0 233.5,54.0 235.0,54.0 236.5,54.0 237.9,54.0 239.4,54.0 240.9,54.0 242.4,54.0 243.9,54.0 245.3,54.0 246.8,54.0 248.3,54.0 249.8,54.0 251.3,54.0 252.8,54.0 254.2,54.0 255.7,54.0 257.2,54.0 258.7,54.0 260.2,54.0 261.7,54.0 263.1,54.0 264.6,54.0 266.1,54.0 267.6,54.0 269.1,54.0 270.6,54.0 272.1,54.0 273.5,54.0 275.0,54.0 276.5,54.0 278.0,54.0 279.5,54.0 281.0,54.0 282.4,54.0 283.9,54.0 285.4,54.0 286.9,54.0 288.4,54.0 289.9,54.0 291.3,54.0 292.8,54.0 294.3,54.0 295.8,54.0 297.3,54.0 298.8,54.0 300.2,54.0 301.7,54.0 303.2,54.0 304.7,54.0 306.2,54.0 307.6,54.0 309.1,54.0 310.6,54.0 312.1,54.0 313.6,54.0 315.1,54.0 316.5,54.0 318.0,54.0 319.5,54.0 321.0,54.0 322.5,54.0 324.0,54.0 325.5,54.0 326.9,54.0 328.4,54.0 329.9,54.0 331.4,54.0 332.9,54.0 334.4,54.0 335.8,54.0 337.3,54.0 338.8,54.0 340.3,54.0 341.8,54.0 343.2,54.0 344.7,54.0 346.2,54.0 347.7,54.0 349.2,54.0 350.7,54.0 352.2,54.0 353.6,54.0 355.1,54.0 356.6,54.0 358.1,54.0 359.6,54.0 361.1,54.0 362.5,54.0 364.0,54.0 365.5,54.0 367.0,54.0 368.5,54.0 370.0,54.0 371.4,54.0 372.9,54.0 374.4,54.0 375.9,54.0 377.4,54.0 378.9,54.0 380.3,54.0 381.8,54.0 383.3,54.0 384.8,54.0 386.3,54.0 387.8,54.0 389.2,54.0 390.7,54.0 392.2,54.0 393.7,54.0 395.2,54.0 396.7,54.0 398.1,54.0 399.6,54.0 401.1,54.0 402.6,54.0 404.1,54.0 405.6,54.0 407.0,54.0 408.5,54.0 410.0,54.0 411.5,54.0 413.0,54.0 414.4,54.0 415.9,54.0 417.4,54.0 418.9,54.0 420.4,54.0 421.9,54.0 423.4,54.0 424.8,54.0 426.3,54.0 427.8,54.0 429.3,54.0 430.8,54.0 432.2,54.0 433.7,54.0 435.2,54.0 436.7,54.0 438.2,54.0 439.7,54.0 441.2,54.0 442.6,54.0 444.1,54.0 445.6,54.0 447.1,54.0 448.6,54.0 450.1,54.0 451.5,54.0 453.0,54.0 454.5,54.0 456.0,54.0 457.5,54.0 458.9,54.0 460.4,54.0 461.9,54.0 463.4,54.0 464.9,54.0 466.4,54.0 467.9,54.0 469.3,54.0 470.8,54.0 472.3,54.0 473.8,54.0 475.3,54.0 476.8,54.0 478.2,54.0 479.7,54.0 481.2,54.0 482.7,54.0 484.2,54.0 485.7,54.0 487.1,54.0 488.6,54.0 490.1,54.0 491.6,54.0 493.1,54.0 494.6,54.0 496.0,54.0 497.5,54.0 499.0,54.0 500.5,54.0 502.0,54.0 503.4,54.0 504.9,54.0 506.4,54.0 507.9,54.0 509.4,54.0 510.9,54.0 512.4,54.0 513.8,54.0 515.3,54.0 516.8,54.0 518.3,54.0 519.8,54.0 521.2,54.0 522.7,54.0 524.2,54.0 525.7,54.0 527.2,54.0 528.7,54.0 530.2,54.0 531.6,54.0 533.1,54.0 534.6,54.0 536.1,54.0 537.6,54.0 539.0,54.0 540.5,54.0 542.0,54.0 543.5,54.0 545.0,54.0 546.5,54.0 548.0,54.0 549.4,54.0 550.9,54.0 552.4,54.0 553.9,54.0 555.4,54.0 556.8,54.0 558.3,54.0 559.8,54.0 561.3,54.0 562.8,54.0 564.3,54.0 565.8,54.0 567.2,54.0 568.7,54.0 570.2,54.0 571.7,54.0 573.2,54.0 574.7,54.0 576.1,54.0 577.6,54.0 579.1,54.0 580.6,54.0 582.1,54.0 583.6,54.0 585.0,54.0 586.5,54.0 588.0,54.0 589.5,54.0 591.0,54.0 592.5,54.0 593.9,54.0 595.4,54.0 596.9,54.0 598.4,54.0 599.9,54.0 601.3,54.0 602.8,54.0 604.3,54.0 605.8,54.0 607.3,54.0 608.8,54.0 610.2,54.0 611.7,54.0 613.2,54.0 614.7,54.0 616.2,54.0 617.7,54.0 619.2,54.0 620.6,54.0 622.1,54.0 623.6,54.0 625.1,54.0 626.6,54.0 628.1,54.0 629.5,54.0 631.0,54.0 632.5,54.0 634.0,54.0 635.5,54.0 637.0,54.0 638.4,54.0 639.9,54.0 641.4,54.0 642.9,54.0 644.4,54.0 645.9,54.0 647.3,54.0 648.8,54.0 650.3,54.0 651.8,54.0 653.3,54.0 654.8,54.0 656.2,54.0 657.7,54.0 659.2,54.0 660.7,54.0 662.2,54.0 663.7,54.0 665.1,54.0 666.6,54.0 668.1,54.0 669.6,54.0 671.1,54.0 672.6,54.0 674.0,54.0 675.5,54.0 677.0,54.0 678.5,54.0 680.0,54.0 681.5,54.0 682.9,54.0 684.4,54.0 685.9,54.0 687.4,54.0 688.9,54.0 690.4,54.0 691.8,54.0 693.3,54.0 694.8,54.0 696.3,54.0 697.8,54.0 699.2,54.0 700.7,54.0 702.2,54.0 703.7,54.0 705.2,54.0 706.7,54.0 708.2,54.0 709.6,54.0 711.1,54.0 712.6,54.0 714.1,54.0 715.6,54.0 717.1,54.0 718.5,54.0 720.0,54.0 721.5,54.0 723.0,54.0 724.5,54.0 726.0,54.0 727.4,54.0 728.9,54.0 730.4,54.0 731.9,54.0 733.4,54.0 734.9,54.0 736.3,54.0 737.8,54.0 739.3,54.0 740.8,54.0 742.3,54.0 743.8,54.0 745.2,54.0 746.7,54.0 748.2,54.0 749.7,54.0 751.2,54.0 752.7,54.0 754.1,54.0 755.6,54.0 757.1,54.0 758.6,54.0 760.1,54.0 761.6,54.0 763.0,54.0 764.5,54.0 766.0,54.0"/>
<line x1="606" y1="42" x2="628" y2="42" stroke="#0f62fe" stroke-width="2.2"/>
<text x="634" y="46" font-family="Arial" font-size="12">pitch_command_deg</text>
<polyline fill="none" stroke="#24a148" stroke-width="2.2" points="54.0,180.5 55.5,186.9 57.0,197.6 58.5,210.7 59.9,224.2 61.4,236.2 62.9,245.0 64.4,249.9 65.9,252.0 67.3,252.3 68.8,252.1 70.3,252.1 71.8,252.5 73.3,253.4 74.8,254.5 76.2,255.8 77.7,256.9 79.2,257.9 80.7,258.7 82.2,259.4 83.7,260.0 85.2,260.5 86.6,261.0 88.1,261.5 89.6,261.9 91.1,262.4 92.6,262.7 94.1,263.1 95.5,263.4 97.0,263.7 98.5,264.0 100.0,264.2 101.5,264.4 103.0,264.6 104.4,264.8 105.9,265.0 107.4,265.1 108.9,265.3 110.4,265.4 111.8,265.5 113.3,265.6 114.8,265.6 116.3,265.7 117.8,265.8 119.3,265.8 120.8,265.9 122.2,265.9 123.7,266.0 125.2,266.0 126.7,266.0 128.2,266.0 129.7,266.0 131.1,266.0 132.6,266.0 134.1,266.0 135.6,265.9 137.1,265.9 138.6,265.8 140.0,265.8 141.5,265.7 143.0,265.7 144.5,265.6 146.0,265.5 147.4,265.4 148.9,265.3 150.4,265.2 151.9,265.1 153.4,265.0 154.9,264.9 156.4,264.8 157.8,264.6 159.3,264.5 160.8,264.4 162.3,264.2 163.8,264.1 165.2,263.9 166.7,263.7 168.2,263.6 169.7,263.4 171.2,263.2 172.7,263.0 174.1,262.8 175.6,262.6 177.1,262.4 178.6,262.2 180.1,262.0 181.6,261.7 183.1,261.5 184.5,261.2 186.0,260.9 187.5,260.6 189.0,260.3 190.5,260.0 192.0,259.7 193.4,259.4 194.9,259.1 196.4,258.8 197.9,258.4 199.4,258.1 200.9,257.8 202.3,257.4 203.8,257.0 205.3,256.7 206.8,256.3 208.3,255.9 209.8,255.6 211.2,255.2 212.7,254.8 214.2,254.4 215.7,254.0 217.2,253.6 218.7,253.2 220.1,252.8 221.6,252.4 223.1,251.9 224.6,251.5 226.1,251.1 227.6,250.6 229.0,250.2 230.5,249.8 232.0,249.3 233.5,248.9 235.0,248.4 236.5,248.0 237.9,247.5 239.4,247.0 240.9,246.6 242.4,246.1 243.9,245.6 245.3,245.1 246.8,244.6 248.3,244.2 249.8,243.7 251.3,243.2 252.8,242.7 254.2,242.2 255.7,241.7 257.2,241.2 258.7,240.7 260.2,240.1 261.7,239.6 263.1,239.1 264.6,238.6 266.1,238.1 267.6,237.5 269.1,237.0 270.6,236.5 272.1,236.0 273.5,235.4 275.0,234.9 276.5,234.3 278.0,233.8 279.5,233.3 281.0,232.7 282.4,232.2 283.9,231.6 285.4,231.0 286.9,230.5 288.4,229.9 289.9,229.4 291.3,228.8 292.8,228.2 294.3,227.7 295.8,227.1 297.3,226.5 298.8,226.0 300.2,225.4 301.7,224.8 303.2,224.2 304.7,223.7 306.2,223.1 307.6,222.5 309.1,221.9 310.6,221.3 312.1,220.8 313.6,220.2 315.1,219.6 316.5,219.0 318.0,218.4 319.5,217.8 321.0,217.2 322.5,216.6 324.0,216.0 325.5,215.4 326.9,214.8 328.4,214.3 329.9,213.7 331.4,213.1 332.9,212.5 334.4,211.9 335.8,211.3 337.3,210.7 338.8,210.2 340.3,209.6 341.8,209.0 343.2,208.5 344.7,207.9 346.2,207.3 347.7,206.8 349.2,206.2 350.7,205.6 352.2,205.0 353.6,204.4 355.1,203.7 356.6,203.0 358.1,202.4 359.6,201.6 361.1,200.9 362.5,200.2 364.0,199.5 365.5,198.8 367.0,198.0 368.5,197.3 370.0,196.5 371.4,195.8 372.9,195.0 374.4,194.2 375.9,193.5 377.4,192.7 378.9,191.9 380.3,191.1 381.8,190.4 383.3,189.6 384.8,188.8 386.3,188.1 387.8,187.3 389.2,186.5 390.7,185.7 392.2,185.0 393.7,184.2 395.2,183.4 396.7,182.6 398.1,181.9 399.6,181.1 401.1,180.3 402.6,179.6 404.1,178.8 405.6,178.0 407.0,177.3 408.5,176.5 410.0,175.7 411.5,175.0 413.0,174.2 414.4,173.4 415.9,172.7 417.4,171.9 418.9,171.2 420.4,170.4 421.9,169.7 423.4,168.9 424.8,168.2 426.3,167.4 427.8,166.7 429.3,166.0 430.8,165.2 432.2,164.5 433.7,163.8 435.2,163.0 436.7,162.3 438.2,161.6 439.7,160.9 441.2,160.1 442.6,159.4 444.1,158.7 445.6,158.0 447.1,157.3 448.6,156.6 450.1,155.9 451.5,155.1 453.0,154.4 454.5,153.7 456.0,153.0 457.5,152.4 458.9,151.7 460.4,151.0 461.9,150.3 463.4,149.6 464.9,148.9 466.4,148.2 467.9,147.6 469.3,146.9 470.8,146.2 472.3,145.6 473.8,144.9 475.3,144.2 476.8,143.6 478.2,142.9 479.7,142.3 481.2,141.6 482.7,141.0 484.2,140.3 485.7,139.7 487.1,139.1 488.6,138.4 490.1,137.8 491.6,137.2 493.1,136.5 494.6,135.9 496.0,135.3 497.5,134.7 499.0,134.1 500.5,133.5 502.0,132.9 503.4,132.3 504.9,131.7 506.4,131.1 507.9,130.5 509.4,129.9 510.9,129.3 512.4,128.7 513.8,128.1 515.3,127.6 516.8,127.0 518.3,126.4 519.8,125.8 521.2,125.3 522.7,124.7 524.2,124.2 525.7,123.6 527.2,123.0 528.7,122.5 530.2,122.0 531.6,121.4 533.1,120.9 534.6,120.3 536.1,119.8 537.6,119.3 539.0,118.7 540.5,118.2 542.0,117.7 543.5,117.2 545.0,116.7 546.5,116.2 548.0,115.7 549.4,115.1 550.9,114.6 552.4,114.2 553.9,113.7 555.4,113.2 556.8,112.7 558.3,112.2 559.8,111.7 561.3,111.2 562.8,110.8 564.3,110.3 565.8,109.8 567.2,109.4 568.7,108.9 570.2,108.4 571.7,108.0 573.2,107.5 574.7,107.1 576.1,106.6 577.6,106.2 579.1,105.8 580.6,105.3 582.1,104.9 583.6,104.5 585.0,104.0 586.5,103.6 588.0,103.2 589.5,102.8 591.0,102.4 592.5,101.9 593.9,101.5 595.4,101.1 596.9,100.7 598.4,100.3 599.9,99.9 601.3,99.5 602.8,99.2 604.3,98.8 605.8,98.4 607.3,98.0 608.8,97.6 610.2,97.2 611.7,96.9 613.2,96.5 614.7,96.1 616.2,95.8 617.7,95.4 619.2,95.1 620.6,94.7 622.1,94.3 623.6,94.0 625.1,93.7 626.6,93.3 628.1,93.0 629.5,92.6 631.0,92.3 632.5,92.0 634.0,91.6 635.5,91.3 637.0,91.0 638.4,90.7 639.9,90.3 641.4,90.0 642.9,89.7 644.4,89.4 645.9,89.1 647.3,88.8 648.8,88.5 650.3,88.2 651.8,87.9 653.3,87.6 654.8,87.3 656.2,87.0 657.7,86.7 659.2,86.4 660.7,86.1 662.2,85.8 663.7,85.6 665.1,85.3 666.6,85.0 668.1,84.7 669.6,84.5 671.1,84.2 672.6,83.9 674.0,83.7 675.5,83.4 677.0,83.2 678.5,82.9 680.0,82.7 681.5,82.4 682.9,82.2 684.4,81.9 685.9,81.7 687.4,81.4 688.9,81.2 690.4,80.9 691.8,80.7 693.3,80.5 694.8,80.2 696.3,80.0 697.8,79.8 699.2,79.5 700.7,79.3 702.2,79.1 703.7,78.9 705.2,78.7 706.7,78.4 708.2,78.2 709.6,78.0 711.1,77.8 712.6,77.6 714.1,77.4 715.6,77.2 717.1,77.0 718.5,76.8 720.0,76.6 721.5,76.4 723.0,76.2 724.5,76.0 726.0,75.8 727.4,75.6 728.9,75.4 730.4,75.2 731.9,75.1 733.4,74.9 734.9,74.7 736.3,74.5 737.8,74.3 739.3,74.2 740.8,74.0 742.3,73.8 743.8,73.6 745.2,73.5 746.7,73.3 748.2,73.1 749.7,73.0 751.2,72.8 752.7,72.6 754.1,72.5 755.6,72.3 757.1,72.2 758.6,72.0 760.1,71.9 761.6,71.7 763.0,71.6 764.5,71.4 766.0,71.3"/>
<line x1="606" y1="60" x2="628" y2="60" stroke="#24a148" stroke-width="2.2"/>
<text x="634" y="64" font-family="Arial" font-size="12">pitch_deg</text>
</svg>