<svg xmlns="http://www.w3.org/2000/svg" width="820" height="320" viewBox="0 0 820 320">
<rect width="100%" height="100%" fill="#ffffff"/>
<text x="54" y="28" font-family="Arial" font-size="18" font-weight="700">Qbar/Load Envelope</text>
<line x1="54" y1="266" x2="766" y2="266" stroke="#1f2933"/>
<line x1="54" y1="54" x2="54" y2="266" stroke="#1f2933"/>
<text x="54" y="306" font-family="Arial" font-size="12">qbar (Pa)</text>
<text x="596" y="306" font-family="Arial" font-size="12">load factor (g)</text>
<text x="58" y="68" font-family="Arial" font-size="11">2.11</text>
<text x="58" y="260" font-family="Arial" font-size="11">1.48</text>
<polyline fill="none" stroke="#0f62fe" stroke-width="2.2" points="54.0,266.0 54.8,260.2 55.6,253.8 56.4,246.7 57.3,239.1 58.3,231.3 59.2,222.8 60.2,213.9 61.3,205.2 62.3,196.9 63.4,189.0 64.5,181.3 65.6,173.8 66.8,166.3 67.9,158.7 69.1,151.1 70.3,143.5 71.6,143.3 72.8,143.0 74.0,142.8 75.3,142.6 76.5,142.4 77.8,142.3 79.1,142.1 80.3,141.9 81.6,141.7 82.9,141.6 84.2,141.4 85.5,141.2 86.8,141.0 88.1,140.8 89.4,140.6 90.7,140.4 92.0,140.1 93.3,139.9 94.6,139.7 95.9,139.4 97.3,139.2 98.6,138.9 99.9,138.7 101.3,138.4 102.6,138.1 103.9,137.8 105.3,137.5 106.6,137.2 108.0,136.9 109.4,136.6 110.7,136.2 112.1,135.9 113.5,135.5 114.8,135.2 116.2,134.8 117.6,134.4 119.0,134.0 120.4,133.6 121.8,133.2 123.2,132.7 124.6,132.3 126.0,131.8 127.4,131.4 128.8,130.9 130.2,130.4 131.6,129.9 133.0,129.4 134.4,128.9 135.9,128.4 137.3,127.9 138.7,127.3 140.1,126.8 141.6,126.2 143.0,125.7 144.5,125.1 145.9,124.5 147.3,123.9 148.8,123.3 150.2,122.7 151.7,122.0 153.2,121.4 154.6,120.7 156.1,120.1 157.5,119.4 159.0,118.8 160.5,118.1 162.0,117.6 163.4,117.2 164.9,116.7 166.4,116.2 167.9,115.7 169.4,115.2 170.9,114.7 172.3,114.2 173.8,113.7 175.3,113.2 176.8,112.7 178.3,112.2 179.8,111.6 181.3,111.1 182.8,110.6 184.3,110.1 185.9,109.6 187.4,109.0 188.9,108.5 190.4,108.0 191.9,107.5 193.4,106.9 194.9,106.4 196.5,105.9 198.0,105.3 199.5,104.8 201.0,104.3 202.6,103.8 204.1,103.2 205.6,102.7 207.1,102.2 208.7,101.6 210.2,101.1 211.8,100.6 213.3,100.1 214.8,99.6 216.4,99.0 217.9,98.5 219.5,98.0 221.0,97.5 222.5,97.0 224.1,96.5 225.6,95.9 227.2,95.4 228.7,94.9 230.3,94.4 231.8,93.9 233.4,93.4 235.0,92.9 236.5,92.4 238.1,92.0 239.6,91.5 241.2,91.0 242.7,90.5 244.3,90.0 245.9,89.5 247.4,89.1 249.0,88.6 250.6,88.1 252.1,87.7 253.7,87.2 255.3,86.8 256.8,86.3 258.4,85.9 260.0,85.4 261.6,85.0 263.1,84.6 264.7,84.1 266.3,83.7 267.9,83.3 269.4,82.9 271.0,82.4 272.6,82.0 274.2,81.6 275.7,81.2 277.3,80.8 278.9,80.4 280.5,80.0 282.1,79.7 283.7,79.3 285.2,78.9 286.8,78.5 288.4,78.2 290.0,77.8 291.6,77.5 293.2,77.1 294.8,76.8 296.4,76.4 297.9,76.1 299.5,75.8 301.1,75.4 302.7,75.1 304.3,74.8 305.9,74.5 307.5,74.2 309.1,73.9 310.7,73.6 312.3,73.3 313.9,73.0 315.5,72.8 317.1,72.5 318.7,72.2 320.3,72.0 321.9,71.7 323.5,71.4 325.1,71.2 326.7,71.0 328.3,70.9 329.9,70.7 331.5,70.5 333.1,70.4 334.7,70.3 336.3,70.1 337.9,70.0 339.5,69.9 341.1,69.8 342.7,69.8 344.3,69.7 345.9,69.4 347.5,69.2 349.1,68.9 350.7,68.6 352.3,68.2 354.0,67.9 355.6,67.5 357.2,67.1 358.8,66.7 360.4,66.3 362.0,65.8 363.6,65.4 365.2,65.0 366.8,64.6 368.4,64.1 370.0,63.7 371.6,63.3 373.2,62.9 374.8,62.5 376.4,62.0 378.0,61.6 379.6,61.3 381.2,60.9 382.8,60.5 384.4,60.1 386.0,59.8 387.6,59.4 389.2,59.1 390.8,58.7 392.3,58.4 393.9,58.1 395.5,57.8 397.1,57.5 398.7,57.2 400.3,57.0 401.9,56.7 403.5,56.5 405.0,56.2 406.6,56.0 408.2,55.8 409.8,55.6 411.4,55.4 413.0,55.2 414.5,55.1 416.1,54.9 417.7,54.8 419.3,54.6 420.8,54.5 422.4,54.4 424.0,54.3 425.6,54.2 427.2,54.2 428.7,54.1 430.3,54.1 431.9,54.0 433.4,54.0 435.0,54.0 436.6,54.0 438.2,54.0 439.7,54.0 441.3,54.1 442.9,54.1 444.4,54.2 446.0,54.2 447.6,54.3 449.2,54.4 450.7,54.5 452.3,54.6 453.9,54.7 455.4,54.9 457.0,55.0 458.6,55.2 460.1,55.3 461.7,55.5 463.3,55.7 464.8,55.9 466.4,56.1 467.9,56.3 469.5,56.5 471.1,56.7 472.6,57.0 474.2,57.2 475.8,57.5 477.3,57.8 478.9,58.1 480.5,58.4 482.0,58.7 483.6,59.0 485.1,59.3 486.7,59.6 488.3,59.9 489.8,60.3 491.4,60.6 492.9,61.0 494.5,61.4 496.1,61.8 497.6,62.1 499.2,62.5 500.8,62.9 502.3,63.4 503.9,63.8 505.4,64.2 507.0,64.6 508.6,65.1 510.1,65.5 511.7,66.0 513.2,66.5 514.8,66.9 516.4,67.4 517.9,67.9 519.5,68.4 521.0,68.9 522.6,69.4 524.2,69.9 525.7,70.4 527.3,71.0 528.9,71.5 530.4,72.0 532.0,72.6 533.5,73.1 535.1,73.8 536.7,74.6 538.2,75.3 539.8,76.1 541.3,76.8 542.9,77.6 544.4,78.3 546.0,79.1 547.6,79.9 549.1,80.6 550.7,81.4 552.2,82.2 553.8,83.0 555.3,83.8 556.8,84.6 558.4,85.4 559.9,86.2 561.5,87.0 563.0,87.9 564.6,88.7 566.1,89.5 567.6,90.4 569.2,91.2 570.7,92.0 572.2,92.9 573.8,93.7 575.3,94.6 576.8,95.4 578.4,96.3 579.9,97.2 581.4,98.0 582.9,98.9 584.5,99.8 586.0,100.7 587.5,101.6 589.0,102.4 590.5,103.3 592.1,104.2 593.6,105.1 595.1,106.0 596.6,106.9 598.1,107.8 599.6,108.7 601.2,109.6 602.7,110.5 604.2,111.4 605.7,112.3 607.2,113.3 608.7,114.2 610.2,115.1 611.7,116.0 613.2,116.9 614.7,117.8 616.2,118.8 617.7,119.7 619.2,120.6 620.7,121.5 622.2,122.5 623.7,123.4 625.2,124.3 626.6,125.2 628.1,126.2 629.6,127.1 631.1,128.0 632.6,129.0 634.1,129.9 635.6,130.8 637.0,131.7 638.5,132.7 640.0,133.6 641.5,134.5 642.9,135.5 644.4,136.4 645.9,137.3 647.3,138.3 648.8,139.2 650.3,140.1 651.7,141.1 653.2,142.0 654.7,142.9 656.1,143.8 657.6,144.8 659.1,145.7 660.5,146.6 662.0,147.6 663.4,148.5 664.9,149.4 666.3,150.3 667.8,151.3 669.2,152.2 670.7,153.1 672.1,154.0 673.5,154.9 675.0,155.9 676.4,156.8 677.9,157.7 679.3,158.6 680.7,159.5 682.2,160.4 683.6,161.3 685.0,162.2 686.4,163.2 687.9,164.1 689.3,165.0 690.7,165.9 692.1,166.8 693.6,167.7 695.0,168.6 696.4,169.5 697.8,170.4 699.2,171.2 700.6,172.1 702.0,173.0 703.4,173.9 704.8,174.8 706.2,175.7 707.6,176.6 709.0,177.4 710.4,178.3 711.8,179.2 713.2,180.1 714.6,180.9 716.0,181.8 717.4,182.7 718.8,183.5 720.2,184.4 721.6,185.3 722.9,186.1 724.3,187.0 725.7,187.8 727.1,188.7 728.4,189.5 729.8,190.4 731.2,191.2 732.5,192.1 733.9,192.9 735.3,193.8 736.6,194.6 738.0,195.4 739.3,196.3 740.7,197.1 742.0,197.9 743.4,198.8 744.7,199.6 746.1,200.4 747.4,201.2 748.8,202.0 750.1,202.8 751.4,203.7 752.8,204.5 754.1,205.3 755.4,206.1 756.8,206.9 758.1,207.7 759.4,208.5 760.7,209.3 762.1,210.1 763.4,210.8 764.7,211.7 766.0,212.6"/>
<line x1="606" y1="42" x2="628" y2="42" stroke="#0f62fe" stroke-width="2.2"/>
<text x="634" y="46" font-family="Arial" font-size="12">load_factor_g</text>
</svg>