<svg xmlns="http://www.w3.org/2000/svg" width="820" height="320" viewBox="0 0 820 320">
<rect width="100%" height="100%" fill="#ffffff"/>
<text x="54" y="28" font-family="Arial" font-size="18" font-weight="700">Downrange Position</text>
<line x1="54" y1="266" x2="766" y2="266" stroke="#1f2933"/>
<line x1="54" y1="54" x2="54" y2="266" stroke="#1f2933"/>
<text x="54" y="306" font-family="Arial" font-size="12">time (s)</text>
<text x="596" y="306" font-family="Arial" font-size="12">x (m)</text>
<text x="58" y="68" font-family="Arial" font-size="11">1.77e+03</text>
<text x="58" y="260" font-family="Arial" font-size="11">0</text>
<polyline fill="none" stroke="#0f62fe" stroke-width="2.2" points="54.0,266.0 55.3,265.7 56.5,265.4 57.8,265.2 59.1,264.9 60.4,264.6 61.6,264.3 62.9,264.0 64.2,263.7 65.4,263.5 66.7,263.2 68.0,262.9 69.3,262.6 70.5,262.3 71.8,262.0 73.1,261.7 74.3,261.4 75.6,261.1 76.9,260.8 78.2,260.5 79.4,260.2 80.7,259.9 82.0,259.6 83.2,259.3 84.5,259.0 85.8,258.6 87.1,258.3 88.3,258.0 89.6,257.7 90.9,257.4 92.1,257.1 93.4,256.8 94.7,256.4 96.0,256.1 97.2,255.8 98.5,255.5 99.8,255.1 101.0,254.8 102.3,254.5 103.6,254.1 104.9,253.8 106.1,253.5 107.4,253.1 108.7,252.8 109.9,252.5 111.2,252.1 112.5,251.8 113.8,251.5 115.0,251.1 116.3,250.8 117.6,250.4 118.8,250.1 120.1,249.7 121.4,249.4 122.7,249.0 123.9,248.7 125.2,248.3 126.5,248.0 127.7,247.6 129.0,247.3 130.3,246.9 131.6,246.6 132.8,246.2 134.1,245.8 135.4,245.5 136.6,245.1 137.9,244.8 139.2,244.4 140.5,244.0 141.7,243.6 143.0,243.3 144.3,242.9 145.5,242.5 146.8,242.2 148.1,241.8 149.4,241.4 150.6,241.0 151.9,240.7 153.2,240.3 154.4,239.9 155.7,239.5 157.0,239.1 158.3,238.8 159.5,238.4 160.8,238.0 162.1,237.6 163.3,237.2 164.6,236.8 165.9,236.4 167.2,236.0 168.4,235.6 169.7,235.2 171.0,234.8 172.2,234.5 173.5,234.1 174.8,233.7 176.1,233.3 177.3,232.9 178.6,232.5 179.9,232.0 181.1,231.6 182.4,231.2 183.7,230.8 185.0,230.4 186.2,230.0 187.5,229.6 188.8,229.2 190.0,228.8 191.3,228.4 192.6,227.9 193.9,227.5 195.1,227.1 196.4,226.7 197.7,226.3 198.9,225.9 200.2,225.4 201.5,225.0 202.8,224.6 204.0,224.2 205.3,223.7 206.6,223.3 207.8,222.9 209.1,222.4 210.4,222.0 211.7,221.6 212.9,221.1 214.2,220.7 215.5,220.3 216.7,219.8 218.0,219.4 219.3,219.0 220.6,218.5 221.8,218.1 223.1,217.6 224.4,217.2 225.6,216.8 226.9,216.3 228.2,215.9 229.5,215.4 230.7,215.0 232.0,214.5 233.3,214.1 234.5,213.6 235.8,213.2 237.1,212.7 238.4,212.2 239.6,211.8 240.9,211.3 242.2,210.9 243.4,210.4 244.7,210.0 246.0,209.5 247.3,209.0 248.5,208.6 249.8,208.1 251.1,207.6 252.3,207.2 253.6,206.7 254.9,206.2 256.2,205.8 257.4,205.3 258.7,204.8 260.0,204.3 261.2,203.9 262.5,203.4 263.8,202.9 265.1,202.4 266.3,202.0 267.6,201.5 268.9,201.0 270.1,200.5 271.4,200.0 272.7,199.5 274.0,199.1 275.2,198.6 276.5,198.1 277.8,197.6 279.0,197.1 280.3,196.6 281.6,196.1 282.9,195.6 284.1,195.1 285.4,194.6 286.7,194.1 287.9,193.6 289.2,193.1 290.5,192.6 291.8,192.1 293.0,191.6 294.3,191.1 295.6,190.6 296.8,190.1 298.1,189.6 299.4,189.1 300.7,188.6 301.9,188.1 303.2,187.6 304.5,187.1 305.7,186.6 307.0,186.1 308.3,185.6 309.6,185.0 310.8,184.5 312.1,184.0 313.4,183.5 314.6,183.0 315.9,182.4 317.2,181.9 318.5,181.4 319.7,180.9 321.0,180.4 322.3,179.8 323.5,179.3 324.8,178.8 326.1,178.3 327.4,177.7 328.6,177.2 329.9,176.7 331.2,176.1 332.4,175.6 333.7,175.1 335.0,174.5 336.3,174.0 337.5,173.5 338.8,172.9 340.1,172.4 341.3,171.9 342.6,171.3 343.9,170.8 345.2,170.2 346.4,169.7 347.7,169.1 349.0,168.6 350.2,168.1 351.5,167.5 352.8,167.0 354.1,166.4 355.3,165.9 356.6,165.3 357.9,164.8 359.1,164.2 360.4,163.7 361.7,163.1 363.0,162.6 364.2,162.0 365.5,161.4 366.8,160.9 368.0,160.3 369.3,159.8 370.6,159.2 371.9,158.7 373.1,158.1 374.4,157.5 375.7,157.0 376.9,156.4 378.2,155.9 379.5,155.3 380.8,154.7 382.0,154.2 383.3,153.6 384.6,153.1 385.8,152.5 387.1,151.9 388.4,151.4 389.7,150.8 390.9,150.3 392.2,149.7 393.5,149.2 394.7,148.6 396.0,148.1 397.3,147.5 398.6,146.9 399.8,146.4 401.1,145.8 402.4,145.3 403.6,144.7 404.9,144.2 406.2,143.6 407.5,143.1 408.7,142.5 410.0,142.0 411.3,141.4 412.5,140.9 413.8,140.3 415.1,139.8 416.4,139.2 417.6,138.7 418.9,138.2 420.2,137.6 421.4,137.1 422.7,136.5 424.0,136.0 425.3,135.4 426.5,134.9 427.8,134.4 429.1,133.8 430.3,133.3 431.6,132.7 432.9,132.2 434.2,131.7 435.4,131.1 436.7,130.6 438.0,130.1 439.2,129.5 440.5,129.0 441.8,128.5 443.1,127.9 444.3,127.4 445.6,126.9 446.9,126.3 448.1,125.8 449.4,125.3 450.7,124.8 452.0,124.2 453.2,123.7 454.5,123.2 455.8,122.7 457.0,122.2 458.3,121.6 459.6,121.1 460.9,120.6 462.1,120.1 463.4,119.6 464.7,119.1 465.9,118.6 467.2,118.0 468.5,117.5 469.8,117.0 471.0,116.5 472.3,116.0 473.6,115.5 474.8,115.0 476.1,114.5 477.4,114.0 478.7,113.5 479.9,113.0 481.2,112.5 482.5,112.0 483.7,111.5 485.0,111.0 486.3,110.5 487.6,110.0 488.8,109.5 490.1,109.1 491.4,108.6 492.6,108.1 493.9,107.6 495.2,107.1 496.5,106.6 497.7,106.2 499.0,105.7 500.3,105.2 501.5,104.7 502.8,104.3 504.1,103.8 505.4,103.3 506.6,102.9 507.9,102.4 509.2,101.9 510.4,101.5 511.7,101.0 513.0,100.5 514.3,100.1 515.5,99.6 516.8,99.2 518.1,98.7 519.3,98.3 520.6,97.8 521.9,97.4 523.2,96.9 524.4,96.5 525.7,96.0 527.0,95.6 528.2,95.2 529.5,94.7 530.8,94.3 532.1,93.9 533.3,93.4 534.6,93.0 535.9,92.6 537.1,92.1 538.4,91.7 539.7,91.3 541.0,90.9 542.2,90.5 543.5,90.1 544.8,89.6 546.0,89.2 547.3,88.8 548.6,88.4 549.9,88.0 551.1,87.6 552.4,87.2 553.7,86.8 554.9,86.4 556.2,86.0 557.5,85.6 558.8,85.2 560.0,84.8 561.3,84.5 562.6,84.1 563.8,83.7 565.1,83.3 566.4,82.9 567.7,82.6 568.9,82.2 570.2,81.8 571.5,81.4 572.7,81.1 574.0,80.7 575.3,80.3 576.6,80.0 577.8,79.6 579.1,79.3 580.4,78.9 581.6,78.6 582.9,78.2 584.2,77.9 585.5,77.5 586.7,77.2 588.0,76.9 589.3,76.5 590.5,76.2 591.8,75.8 593.1,75.5 594.4,75.2 595.6,74.9 596.9,74.5 598.2,74.2 599.4,73.9 600.7,73.6 602.0,73.3 603.3,73.0 604.5,72.7 605.8,72.3 607.1,72.0 608.3,71.7 609.6,71.4 610.9,71.1 612.2,70.9 613.4,70.6 614.7,70.3 616.0,70.0 617.2,69.7 618.5,69.4 619.8,69.1 621.1,68.9 622.3,68.6 623.6,68.3 624.9,68.0 626.1,67.8 627.4,67.5 628.7,67.2 630.0,67.0 631.2,66.7 632.5,66.5 633.8,66.2 635.0,66.0 636.3,65.7 637.6,65.5 638.9,65.2 640.1,65.0 641.4,64.8 642.7,64.5 643.9,64.3 645.2,64.1 646.5,63.8 647.8,63.6 649.0,63.4 650.3,63.2 651.6,62.9 652.8,62.7 654.1,62.5 655.4,62.3 656.7,62.1 657.9,61.9 659.2,61.7 660.5,61.5 661.7,61.3 663.0,61.1 664.3,60.9 665.6,60.7 666.8,60.5 668.1,60.3 669.4,60.1 670.6,59.9 671.9,59.8 673.2,59.6 674.5,59.4 675.7,59.2 677.0,59.1 678.3,58.9 679.5,58.7 680.8,58.6 682.1,58.4 683.4,58.3 684.6,58.1 685.9,58.0 687.2,57.8 688.4,57.7 689.7,57.5 691.0,57.4 692.3,57.3 693.5,57.1 694.8,57.0 696.1,56.9 697.3,56.8 698.6,56.6 699.9,56.5 701.2,56.4 702.4,56.3 703.7,56.2 705.0,56.1 706.2,55.9 707.5,55.8 708.8,55.7 710.1,55.6 711.3,55.5 712.6,55.4 713.9,55.3 715.1,55.2 716.4,55.2 717.7,55.1 719.0,55.0 720.2,54.9 721.5,54.8 722.8,54.8 724.0,54.7 725.3,54.6 726.6,54.6 727.9,54.5 729.1,54.5 730.4,54.4 731.7,54.4 732.9,54.3 734.2,54.3 735.5,54.3 736.8,54.2 738.0,54.2 739.3,54.2 740.6,54.1 741.8,54.1 743.1,54.1 744.4,54.1 745.7,54.1 746.9,54.0 748.2,54.0 749.5,54.0 750.7,54.0 752.0,54.0 753.3,54.0 754.6,54.0 755.8,54.0 757.1,54.0 758.4,54.0 759.6,54.0 760.9,54.0 762.2,54.0 763.5,54.1 764.7,54.1 766.0,54.1"/>
<line x1="606" y1="42" x2="628" y2="42" stroke="#0f62fe" stroke-width="2.2"/>
<text x="634" y="46" font-family="Arial" font-size="12">x_m</text>
</svg>