<svg xmlns="http://www.w3.org/2000/svg" width="820" height="320" viewBox="0 0 820 320">
<rect width="100%" height="100%" fill="#ffffff"/>
<text x="54" y="28" font-family="Arial" font-size="18" font-weight="700">Crossrange Position</text>
<line x1="54" y1="266" x2="766" y2="266" stroke="#1f2933"/>
<line x1="54" y1="54" x2="54" y2="266" stroke="#1f2933"/>
<text x="54" y="306" font-family="Arial" font-size="12">time (s)</text>
<text x="596" y="306" font-family="Arial" font-size="12">y (m)</text>
<text x="58" y="68" font-family="Arial" font-size="11">599</text>
<text x="58" y="260" font-family="Arial" font-size="11">-32.2</text>
<polyline fill="none" stroke="#0f62fe" stroke-width="2.2" points="54.0,255.2 55.3,255.2 56.5,255.2 57.8,255.2 59.1,255.2 60.4,255.2 61.6,255.2 62.9,255.2 64.2,255.2 65.4,255.2 66.7,255.2 68.0,255.2 69.3,255.2 70.5,255.2 71.8,255.2 73.1,255.2 74.3,255.2 75.6,255.2 76.9,255.2 78.2,255.2 79.4,255.2 80.7,255.2 82.0,255.2 83.2,255.2 84.5,255.2 85.8,255.2 87.1,255.2 88.3,255.2 89.6,255.3 90.9,255.3 92.1,255.3 93.4,255.3 94.7,255.3 96.0,255.3 97.2,255.3 98.5,255.4 99.8,255.4 101.0,255.4 102.3,255.4 103.6,255.4 104.9,255.5 106.1,255.5 107.4,255.5 108.7,255.5 109.9,255.6 111.2,255.6 112.5,255.6 113.8,255.7 115.0,255.7 116.3,255.7 117.6,255.8 118.8,255.8 120.1,255.8 121.4,255.9 122.7,255.9 123.9,255.9 125.2,256.0 126.5,256.0 127.7,256.0 129.0,256.1 130.3,256.1 131.6,256.2 132.8,256.2 134.1,256.2 135.4,256.3 136.6,256.3 137.9,256.4 139.2,256.4 140.5,256.5 141.7,256.5 143.0,256.5 144.3,256.6 145.5,256.6 146.8,256.7 148.1,256.7 149.4,256.8 150.6,256.9 151.9,256.9 153.2,257.0 154.4,257.0 155.7,257.1 157.0,257.1 158.3,257.2 159.5,257.3 160.8,257.3 162.1,257.4 163.3,257.5 164.6,257.5 165.9,257.6 167.2,257.7 168.4,257.7 169.7,257.8 171.0,257.9 172.2,257.9 173.5,258.0 174.8,258.1 176.1,258.1 177.3,258.2 178.6,258.3 179.9,258.3 181.1,258.4 182.4,258.5 183.7,258.6 185.0,258.6 186.2,258.7 187.5,258.8 188.8,258.9 190.0,258.9 191.3,259.0 192.6,259.1 193.9,259.2 195.1,259.3 196.4,259.3 197.7,259.4 198.9,259.5 200.2,259.6 201.5,259.7 202.8,259.8 204.0,259.9 205.3,259.9 206.6,260.0 207.8,260.1 209.1,260.2 210.4,260.3 211.7,260.4 212.9,260.5 214.2,260.6 215.5,260.6 216.7,260.7 218.0,260.8 219.3,260.9 220.6,261.0 221.8,261.1 223.1,261.2 224.4,261.3 225.6,261.4 226.9,261.4 228.2,261.5 229.5,261.6 230.7,261.7 232.0,261.8 233.3,261.9 234.5,262.0 235.8,262.1 237.1,262.2 238.4,262.2 239.6,262.3 240.9,262.4 242.2,262.5 243.4,262.6 244.7,262.7 246.0,262.8 247.3,262.9 248.5,262.9 249.8,263.0 251.1,263.1 252.3,263.2 253.6,263.3 254.9,263.4 256.2,263.4 257.4,263.5 258.7,263.6 260.0,263.7 261.2,263.8 262.5,263.8 263.8,263.9 265.1,264.0 266.3,264.1 267.6,264.1 268.9,264.2 270.1,264.3 271.4,264.4 272.7,264.4 274.0,264.5 275.2,264.6 276.5,264.6 277.8,264.7 279.0,264.8 280.3,264.8 281.6,264.9 282.9,265.0 284.1,265.0 285.4,265.1 286.7,265.1 287.9,265.2 289.2,265.2 290.5,265.3 291.8,265.3 293.0,265.4 294.3,265.4 295.6,265.5 296.8,265.5 298.1,265.6 299.4,265.6 300.7,265.6 301.9,265.7 303.2,265.7 304.5,265.7 305.7,265.8 307.0,265.8 308.3,265.8 309.6,265.9 310.8,265.9 312.1,265.9 313.4,265.9 314.6,265.9 315.9,266.0 317.2,266.0 318.5,266.0 319.7,266.0 321.0,266.0 322.3,266.0 323.5,266.0 324.8,266.0 326.1,266.0 327.4,266.0 328.6,266.0 329.9,266.0 331.2,265.9 332.4,265.9 333.7,265.9 335.0,265.9 336.3,265.8 337.5,265.8 338.8,265.8 340.1,265.7 341.3,265.7 342.6,265.7 343.9,265.6 345.2,265.6 346.4,265.5 347.7,265.5 349.0,265.4 350.2,265.3 351.5,265.3 352.8,265.2 354.1,265.1 355.3,265.1 356.6,265.0 357.9,264.9 359.1,264.8 360.4,264.7 361.7,264.6 363.0,264.5 364.2,264.4 365.5,264.3 366.8,264.1 368.0,264.0 369.3,263.9 370.6,263.7 371.9,263.6 373.1,263.5 374.4,263.3 375.7,263.2 376.9,263.0 378.2,262.8 379.5,262.6 380.8,262.4 382.0,262.2 383.3,262.0 384.6,261.8 385.8,261.6 387.1,261.3 388.4,261.1 389.7,260.8 390.9,260.6 392.2,260.3 393.5,260.0 394.7,259.7 396.0,259.4 397.3,259.1 398.6,258.8 399.8,258.5 401.1,258.1 402.4,257.8 403.6,257.4 404.9,257.1 406.2,256.7 407.5,256.3 408.7,255.9 410.0,255.5 411.3,255.1 412.5,254.7 413.8,254.3 415.1,253.8 416.4,253.4 417.6,252.9 418.9,252.5 420.2,252.0 421.4,251.5 422.7,251.1 424.0,250.6 425.3,250.1 426.5,249.6 427.8,249.1 429.1,248.5 430.3,248.0 431.6,247.5 432.9,246.9 434.2,246.4 435.4,245.8 436.7,245.2 438.0,244.7 439.2,244.1 440.5,243.5 441.8,242.9 443.1,242.3 444.3,241.7 445.6,241.0 446.9,240.4 448.1,239.8 449.4,239.1 450.7,238.5 452.0,237.8 453.2,237.1 454.5,236.5 455.8,235.8 457.0,235.1 458.3,234.4 459.6,233.7 460.9,233.0 462.1,232.3 463.4,231.6 464.7,230.8 465.9,230.1 467.2,229.4 468.5,228.6 469.8,227.9 471.0,227.1 472.3,226.4 473.6,225.6 474.8,224.8 476.1,224.0 477.4,223.2 478.7,222.4 479.9,221.6 481.2,220.8 482.5,220.0 483.7,219.2 485.0,218.4 486.3,217.6 487.6,216.7 488.8,215.9 490.1,215.0 491.4,214.2 492.6,213.3 493.9,212.5 495.2,211.6 496.5,210.8 497.7,209.9 499.0,209.0 500.3,208.1 501.5,207.2 502.8,206.3 504.1,205.4 505.4,204.5 506.6,203.6 507.9,202.7 509.2,201.8 510.4,200.9 511.7,200.0 513.0,199.0 514.3,198.1 515.5,197.2 516.8,196.2 518.1,195.3 519.3,194.4 520.6,193.4 521.9,192.5 523.2,191.5 524.4,190.6 525.7,189.6 527.0,188.6 528.2,187.7 529.5,186.7 530.8,185.7 532.1,184.8 533.3,183.8 534.6,182.8 535.9,181.8 537.1,180.9 538.4,179.9 539.7,178.9 541.0,177.9 542.2,176.9 543.5,175.9 544.8,174.9 546.0,173.9 547.3,172.9 548.6,171.9 549.9,170.9 551.1,169.9 552.4,168.9 553.7,167.9 554.9,166.9 556.2,165.9 557.5,164.9 558.8,163.9 560.0,162.9 561.3,161.9 562.6,160.9 563.8,159.9 565.1,158.9 566.4,157.9 567.7,156.9 568.9,155.8 570.2,154.8 571.5,153.8 572.7,152.8 574.0,151.8 575.3,150.8 576.6,149.8 577.8,148.8 579.1,147.8 580.4,146.8 581.6,145.8 582.9,144.8 584.2,143.8 585.5,142.8 586.7,141.8 588.0,140.8 589.3,139.8 590.5,138.8 591.8,137.8 593.1,136.8 594.4,135.9 595.6,134.9 596.9,133.9 598.2,132.9 599.4,131.9 600.7,131.0 602.0,130.0 603.3,129.0 604.5,128.1 605.8,127.1 607.1,126.1 608.3,125.2 609.6,124.2 610.9,123.3 612.2,122.3 613.4,121.4 614.7,120.5 616.0,119.5 617.2,118.6 618.5,117.7 619.8,116.7 621.1,115.8 622.3,114.9 623.6,114.0 624.9,113.1 626.1,112.2 627.4,111.3 628.7,110.4 630.0,109.5 631.2,108.6 632.5,107.7 633.8,106.9 635.0,106.0 636.3,105.1 637.6,104.3 638.9,103.4 640.1,102.6 641.4,101.7 642.7,100.9 643.9,100.1 645.2,99.3 646.5,98.4 647.8,97.6 649.0,96.8 650.3,96.0 651.6,95.2 652.8,94.5 654.1,93.7 655.4,92.9 656.7,92.1 657.9,91.4 659.2,90.6 660.5,89.9 661.7,89.2 663.0,88.4 664.3,87.7 665.6,87.0 666.8,86.3 668.1,85.6 669.4,84.9 670.6,84.2 671.9,83.5 673.2,82.9 674.5,82.2 675.7,81.5 677.0,80.9 678.3,80.2 679.5,79.6 680.8,78.9 682.1,78.3 683.4,77.7 684.6,77.1 685.9,76.5 687.2,75.9 688.4,75.3 689.7,74.7 691.0,74.1 692.3,73.5 693.5,73.0 694.8,72.4 696.1,71.9 697.3,71.3 698.6,70.8 699.9,70.3 701.2,69.8 702.4,69.3 703.7,68.8 705.0,68.3 706.2,67.9 707.5,67.4 708.8,67.0 710.1,66.5 711.3,66.1 712.6,65.7 713.9,65.3 715.1,64.8 716.4,64.4 717.7,64.0 719.0,63.7 720.2,63.3 721.5,62.9 722.8,62.5 724.0,62.2 725.3,61.8 726.6,61.4 727.9,61.1 729.1,60.7 730.4,60.4 731.7,60.1 732.9,59.7 734.2,59.4 735.5,59.1 736.8,58.8 738.0,58.5 739.3,58.2 740.6,57.9 741.8,57.7 743.1,57.4 744.4,57.2 745.7,56.9 746.9,56.7 748.2,56.5 749.5,56.2 750.7,56.0 752.0,55.8 753.3,55.6 754.6,55.4 755.8,55.2 757.1,55.0 758.4,54.9 759.6,54.7 760.9,54.6 762.2,54.4 763.5,54.3 764.7,54.1 766.0,54.0"/>
<line x1="606" y1="42" x2="628" y2="42" stroke="#0f62fe" stroke-width="2.2"/>
<text x="634" y="46" font-family="Arial" font-size="12">y_m</text>
</svg>