<svg xmlns="http://www.w3.org/2000/svg" width="820" height="320" viewBox="0 0 820 320">
<rect width="100%" height="100%" fill="#ffffff"/>
<text x="54" y="28" font-family="Arial" font-size="18" font-weight="700">Velocity Y</text>
<line x1="54" y1="266" x2="766" y2="266" stroke="#1f2933"/>
<line x1="54" y1="54" x2="54" y2="266" stroke="#1f2933"/>
<text x="54" y="306" font-family="Arial" font-size="12">time (s)</text>
<text x="596" y="306" font-family="Arial" font-size="12">vy (m/s)</text>
<text x="58" y="68" font-family="Arial" font-size="11">120</text>
<text x="58" y="260" font-family="Arial" font-size="11">-10.6</text>
<polyline fill="none" stroke="#0f62fe" stroke-width="2.2" points="54.0,248.8 55.3,248.8 56.5,248.8 57.8,248.8 59.1,248.8 60.4,248.8 61.6,248.8 62.9,248.7 64.2,248.7 65.4,248.8 66.7,248.8 68.0,248.8 69.3,248.8 70.5,248.9 71.8,248.9 73.1,249.0 74.3,249.1 75.6,249.2 76.9,249.2 78.2,249.3 79.4,249.5 80.7,249.6 82.0,249.7 83.2,249.8 84.5,250.0 85.8,250.1 87.1,250.3 88.3,250.5 89.6,250.7 90.9,250.9 92.1,251.1 93.4,251.3 94.7,251.5 96.0,251.7 97.2,252.0 98.5,252.2 99.8,252.4 101.0,252.7 102.3,252.9 103.6,253.2 104.9,253.4 106.1,253.6 107.4,253.8 108.7,254.0 109.9,254.2 111.2,254.4 112.5,254.6 113.8,254.8 115.0,254.9 116.3,255.1 117.6,255.2 118.8,255.3 120.1,255.5 121.4,255.6 122.7,255.7 123.9,255.8 125.2,255.9 126.5,256.0 127.7,256.1 129.0,256.2 130.3,256.3 131.6,256.4 132.8,256.6 134.1,256.7 135.4,256.8 136.6,257.0 137.9,257.1 139.2,257.3 140.5,257.5 141.7,257.7 143.0,257.9 144.3,258.1 145.5,258.3 146.8,258.6 148.1,258.8 149.4,259.0 150.6,259.3 151.9,259.5 153.2,259.7 154.4,259.9 155.7,260.2 157.0,260.4 158.3,260.6 159.5,260.8 160.8,260.9 162.1,261.1 163.3,261.3 164.6,261.4 165.9,261.5 167.2,261.7 168.4,261.8 169.7,261.9 171.0,262.0 172.2,262.1 173.5,262.2 174.8,262.3 176.1,262.4 177.3,262.5 178.6,262.6 179.9,262.7 181.1,262.8 182.4,262.9 183.7,263.0 185.0,263.2 186.2,263.3 187.5,263.5 188.8,263.6 190.0,263.8 191.3,264.0 192.6,264.2 193.9,264.3 195.1,264.5 196.4,264.7 197.7,264.8 198.9,265.0 200.2,265.2 201.5,265.3 202.8,265.4 204.0,265.5 205.3,265.6 206.6,265.7 207.8,265.8 209.1,265.8 210.4,265.8 211.7,265.9 212.9,265.9 214.2,265.9 215.5,265.9 216.7,265.9 218.0,265.9 219.3,265.8 220.6,265.8 221.8,265.8 223.1,265.8 224.4,265.8 225.6,265.8 226.9,265.8 228.2,265.8 229.5,265.9 230.7,265.9 232.0,265.9 233.3,265.9 234.5,266.0 235.8,266.0 237.1,266.0 238.4,266.0 239.6,266.0 240.9,266.0 242.2,265.9 243.4,265.9 244.7,265.8 246.0,265.7 247.3,265.6 248.5,265.5 249.8,265.3 251.1,265.2 252.3,265.0 253.6,264.8 254.9,264.7 256.2,264.5 257.4,264.3 258.7,264.1 260.0,263.9 261.2,263.7 262.5,263.6 263.8,263.4 265.1,263.3 266.3,263.1 267.6,263.0 268.9,262.8 270.1,262.7 271.4,262.6 272.7,262.4 274.0,262.3 275.2,262.1 276.5,261.9 277.8,261.7 279.0,261.5 280.3,261.3 281.6,261.1 282.9,260.8 284.1,260.5 285.4,260.2 286.7,259.9 287.9,259.5 289.2,259.2 290.5,258.8 291.8,258.4 293.0,258.1 294.3,257.7 295.6,257.4 296.8,257.0 298.1,256.7 299.4,256.3 300.7,256.0 301.9,255.7 303.2,255.4 304.5,255.1 305.7,254.8 307.0,254.5 308.3,254.2 309.6,253.9 310.8,253.5 312.1,253.1 313.4,252.8 314.6,252.3 315.9,251.9 317.2,251.4 318.5,251.0 319.7,250.5 321.0,249.9 322.3,249.4 323.5,248.8 324.8,248.3 326.1,247.7 327.4,247.1 328.6,246.6 329.9,246.0 331.2,245.5 332.4,244.9 333.7,244.4 335.0,243.9 336.3,243.4 337.5,242.9 338.8,242.3 340.1,241.8 341.3,241.3 342.6,240.7 343.9,240.1 345.2,239.5 346.4,238.9 347.7,238.2 349.0,237.5 350.2,236.8 351.5,236.0 352.8,235.2 354.1,234.4 355.3,233.5 356.6,232.7 357.9,231.8 359.1,230.9 360.4,230.1 361.7,229.2 363.0,228.3 364.2,227.5 365.5,226.6 366.8,225.7 368.0,224.8 369.3,223.8 370.6,222.8 371.9,221.7 373.1,220.6 374.4,219.4 375.7,218.2 376.9,216.8 378.2,215.3 379.5,213.7 380.8,212.0 382.0,210.2 383.3,208.4 384.6,206.6 385.8,204.7 387.1,202.9 388.4,201.1 389.7,199.2 390.9,197.5 392.2,195.7 393.5,194.0 394.7,192.3 396.0,190.5 397.3,188.8 398.6,187.1 399.8,185.4 401.1,183.6 402.4,181.9 403.6,180.2 404.9,178.4 406.2,176.7 407.5,175.0 408.7,173.4 410.0,171.7 411.3,170.1 412.5,168.4 413.8,166.8 415.1,165.2 416.4,163.5 417.6,161.9 418.9,160.3 420.2,158.8 421.4,157.2 422.7,155.6 424.0,154.1 425.3,152.5 426.5,151.0 427.8,149.5 429.1,148.0 430.3,146.4 431.6,144.9 432.9,143.4 434.2,141.9 435.4,140.4 436.7,138.8 438.0,137.3 439.2,135.8 440.5,134.3 441.8,132.9 443.1,131.4 444.3,130.0 445.6,128.5 446.9,127.1 448.1,125.7 449.4,124.3 450.7,123.0 452.0,121.6 453.2,120.3 454.5,119.0 455.8,117.7 457.0,116.4 458.3,115.1 459.6,113.8 460.9,112.5 462.1,111.2 463.4,109.9 464.7,108.7 465.9,107.4 467.2,106.1 468.5,104.9 469.8,103.6 471.0,102.4 472.3,101.1 473.6,99.9 474.8,98.7 476.1,97.6 477.4,96.4 478.7,95.3 479.9,94.2 481.2,93.1 482.5,92.1 483.7,91.0 485.0,90.0 486.3,89.0 487.6,88.0 488.8,87.0 490.1,86.0 491.4,85.0 492.6,84.1 493.9,83.1 495.2,82.1 496.5,81.2 497.7,80.2 499.0,79.3 500.3,78.3 501.5,77.4 502.8,76.5 504.1,75.6 505.4,74.8 506.6,73.9 507.9,73.1 509.2,72.3 510.4,71.6 511.7,70.9 513.0,70.2 514.3,69.5 515.5,68.8 516.8,68.1 518.1,67.5 519.3,66.9 520.6,66.2 521.9,65.6 523.2,65.0 524.4,64.4 525.7,63.8 527.0,63.2 528.2,62.6 529.5,62.0 530.8,61.5 532.1,60.9 533.3,60.4 534.6,59.9 535.9,59.5 537.1,59.0 538.4,58.6 539.7,58.2 541.0,57.9 542.2,57.5 543.5,57.2 544.8,56.9 546.0,56.7 547.3,56.4 548.6,56.2 549.9,55.9 551.1,55.7 552.4,55.5 553.7,55.3 554.9,55.1 556.2,54.9 557.5,54.7 558.8,54.6 560.0,54.4 561.3,54.3 562.6,54.2 563.8,54.1 565.1,54.0 566.4,54.0 567.7,54.0 568.9,54.0 570.2,54.1 571.5,54.2 572.7,54.3 574.0,54.4 575.3,54.5 576.6,54.7 577.8,54.9 579.1,55.1 580.4,55.3 581.6,55.5 582.9,55.7 584.2,56.0 585.5,56.2 586.7,56.5 588.0,56.8 589.3,57.0 590.5,57.3 591.8,57.7 593.1,58.0 594.4,58.4 595.6,58.8 596.9,59.2 598.2,59.7 599.4,60.2 600.7,60.7 602.0,61.2 603.3,61.8 604.5,62.4 605.8,63.0 607.1,63.6 608.3,64.2 609.6,64.9 610.9,65.5 612.2,66.2 613.4,66.9 614.7,67.6 616.0,68.3 617.2,69.0 618.5,69.7 619.8,70.5 621.1,71.2 622.3,72.0 623.6,72.9 624.9,73.7 626.1,74.6 627.4,75.5 628.7,76.4 630.0,77.3 631.2,78.3 632.5,79.3 633.8,80.3 635.0,81.4 636.3,82.4 637.6,83.5 638.9,84.6 640.1,85.7 641.4,86.8 642.7,87.9 643.9,89.0 645.2,90.1 646.5,91.3 647.8,92.4 649.0,93.6 650.3,94.8 651.6,96.1 652.8,97.3 654.1,98.6 655.4,99.9 656.7,101.2 657.9,102.5 659.2,103.9 660.5,105.3 661.7,106.7 663.0,108.1 664.3,109.5 665.6,110.9 666.8,112.3 668.1,113.6 669.4,115.0 670.6,116.3 671.9,117.6 673.2,118.8 674.5,120.0 675.7,121.2 677.0,122.4 678.3,123.5 679.5,124.7 680.8,125.8 682.1,127.0 683.4,128.2 684.6,129.4 685.9,130.7 687.2,132.1 688.4,133.6 689.7,135.2 691.0,136.8 692.3,138.6 693.5,140.4 694.8,142.2 696.1,144.1 697.3,145.9 698.6,147.8 699.9,149.7 701.2,151.6 702.4,153.4 703.7,155.3 705.0,157.1 706.2,158.8 707.5,160.6 708.8,162.2 710.1,163.9 711.3,165.4 712.6,166.9 713.9,168.4 715.1,169.7 716.4,171.0 717.7,172.3 719.0,173.5 720.2,174.6 721.5,175.6 722.8,176.7 724.0,177.7 725.3,178.7 726.6,179.8 727.9,180.9 729.1,182.0 730.4,183.2 731.7,184.4 732.9,185.8 734.2,187.2 735.5,188.7 736.8,190.3 738.0,191.9 739.3,193.6 740.6,195.2 741.8,196.9 743.1,198.6 744.4,200.1 745.7,201.7 746.9,203.1 748.2,204.6 749.5,205.9 750.7,207.3 752.0,208.6 753.3,209.9 754.6,211.3 755.8,212.6 757.1,214.0 758.4,215.5 759.6,216.9 760.9,218.5 762.2,220.0 763.5,221.5 764.7,223.0 766.0,224.4"/>
<line x1="606" y1="42" x2="628" y2="42" stroke="#0f62fe" stroke-width="2.2"/>
<text x="634" y="46" font-family="Arial" font-size="12">vy_mps</text>
</svg>