<svg xmlns="http://www.w3.org/2000/svg" width="820" height="320" viewBox="0 0 820 320">
<rect width="100%" height="100%" fill="#ffffff"/>
<text x="54" y="28" font-family="Arial" font-size="18" font-weight="700">Alpha/Beta</text>
<line x1="54" y1="266" x2="766" y2="266" stroke="#1f2933"/>
<line x1="54" y1="54" x2="54" y2="266" stroke="#1f2933"/>
<text x="54" y="306" font-family="Arial" font-size="12">time (s)</text>
<text x="596" y="306" font-family="Arial" font-size="12">angle (deg)</text>
<text x="58" y="68" font-family="Arial" font-size="11">13.6</text>
<text x="58" y="260" font-family="Arial" font-size="11">-8.5</text>
<polyline fill="none" stroke="#0f62fe" stroke-width="2.2" points="54.0,190.6 55.3,187.9 56.5,183.6 57.8,177.3 59.1,169.8 60.4,162.3 61.6,156.4 62.9,151.9 64.2,148.4 65.4,145.1 66.7,141.6 68.0,138.1 69.3,134.8 70.5,132.1 71.8,129.8 73.1,127.7 74.3,125.7 75.6,123.8 76.9,122.1 78.2,120.6 79.4,119.3 80.7,118.1 82.0,116.9 83.2,115.9 84.5,115.0 85.8,114.1 87.1,113.4 88.3,112.7 89.6,112.1 90.9,111.5 92.1,111.1 93.4,110.7 94.7,110.4 96.0,110.1 97.2,109.9 98.5,109.8 99.8,109.7 101.0,109.7 102.3,109.7 103.6,109.7 104.9,109.8 106.1,109.9 107.4,110.1 108.7,110.2 109.9,110.4 111.2,110.5 112.5,110.6 113.8,110.8 115.0,110.9 116.3,111.0 117.6,111.1 118.8,111.2 120.1,111.3 121.4,111.4 122.7,111.5 123.9,111.6 125.2,111.7 126.5,111.8 127.7,111.9 129.0,112.0 130.3,112.2 131.6,112.3 132.8,112.4 134.1,112.6 135.4,112.7 136.6,112.9 137.9,113.0 139.2,113.2 140.5,113.4 141.7,113.6 143.0,113.8 144.3,114.0 145.5,114.2 146.8,114.5 148.1,114.8 149.4,115.0 150.6,115.3 151.9,115.6 153.2,115.9 154.4,116.2 155.7,116.5 157.0,116.8 158.3,117.0 159.5,117.3 160.8,117.5 162.1,117.7 163.3,117.9 164.6,118.1 165.9,118.2 167.2,118.4 168.4,118.6 169.7,118.8 171.0,119.0 172.2,119.2 173.5,119.5 174.8,119.8 176.1,120.1 177.3,120.4 178.6,120.8 179.9,121.2 181.1,121.7 182.4,122.1 183.7,122.6 185.0,123.1 186.2,123.5 187.5,124.0 188.8,124.4 190.0,124.8 191.3,125.2 192.6,125.6 193.9,125.9 195.1,126.2 196.4,126.5 197.7,126.7 198.9,126.9 200.2,127.0 201.5,127.0 202.8,127.1 204.0,127.0 205.3,127.0 206.6,126.9 207.8,126.9 209.1,126.8 210.4,126.8 211.7,126.8 212.9,126.8 214.2,126.9 215.5,127.2 216.7,127.5 218.0,127.9 219.3,128.4 220.6,128.9 221.8,129.6 223.1,130.3 224.4,131.1 225.6,131.9 226.9,132.6 228.2,133.4 229.5,134.1 230.7,134.7 232.0,135.2 233.3,135.6 234.5,135.9 235.8,136.0 237.1,136.0 238.4,135.9 239.6,135.6 240.9,135.3 242.2,134.8 243.4,134.3 244.7,133.8 246.0,133.3 247.3,132.8 248.5,132.4 249.8,132.1 251.1,131.9 252.3,131.9 253.6,132.0 254.9,132.4 256.2,132.9 257.4,133.6 258.7,134.4 260.0,135.3 261.2,136.3 262.5,137.3 263.8,138.4 265.1,139.3 266.3,140.2 267.6,141.0 268.9,141.6 270.1,142.1 271.4,142.3 272.7,142.3 274.0,142.1 275.2,141.8 276.5,141.2 277.8,140.5 279.0,139.7 280.3,138.9 281.6,138.1 282.9,137.3 284.1,136.6 285.4,136.0 286.7,135.7 287.9,135.5 289.2,135.6 290.5,135.9 291.8,136.4 293.0,137.2 294.3,138.1 295.6,139.1 296.8,140.2 298.1,141.4 299.4,142.5 300.7,143.5 301.9,144.3 303.2,145.0 304.5,145.4 305.7,145.6 307.0,145.5 308.3,145.2 309.6,144.6 310.8,143.8 312.1,142.8 313.4,141.7 314.6,140.6 315.9,139.5 317.2,138.4 318.5,137.5 319.7,136.8 321.0,136.3 322.3,136.1 323.5,136.1 324.8,136.5 326.1,137.0 327.4,137.8 328.6,138.7 329.9,139.7 331.2,140.7 332.4,141.7 333.7,142.5 335.0,143.2 336.3,143.7 337.5,143.8 338.8,143.7 340.1,143.2 341.3,142.4 342.6,141.4 343.9,140.2 345.2,138.7 346.4,137.2 347.7,135.7 349.0,134.2 350.2,132.8 351.5,131.6 352.8,130.6 354.1,129.9 355.3,129.5 356.6,129.3 357.9,129.4 359.1,129.8 360.4,130.2 361.7,130.6 363.0,130.7 364.2,130.5 365.5,129.7 366.8,128.5 368.0,126.8 369.3,124.5 370.6,121.7 371.9,118.2 373.1,114.0 374.4,109.0 375.7,102.9 376.9,95.7 378.2,87.1 379.5,78.0 380.8,69.2 382.0,61.7 383.3,56.5 384.6,54.0 385.8,54.1 387.1,56.3 388.4,59.7 389.7,63.3 390.9,66.5 392.2,68.6 393.5,69.5 394.7,69.2 396.0,67.9 397.3,66.2 398.6,64.4 399.8,62.8 401.1,61.9 402.4,61.5 403.6,61.7 404.9,62.4 406.2,63.2 407.5,64.0 408.7,64.7 410.0,65.1 411.3,65.2 412.5,65.0 413.8,64.6 415.1,64.2 416.4,63.8 417.6,63.5 418.9,63.3 420.2,63.3 421.4,63.5 422.7,63.7 424.0,64.0 425.3,64.3 426.5,64.5 427.8,64.6 429.1,64.7 430.3,64.6 431.6,64.5 432.9,64.4 434.2,64.3 435.4,64.1 436.7,64.1 438.0,64.0 439.2,64.0 440.5,64.0 441.8,64.0 443.1,64.0 444.3,64.0 445.6,64.0 446.9,63.9 448.1,63.9 449.4,63.9 450.7,63.9 452.0,64.0 453.2,64.1 454.5,64.1 455.8,64.2 457.0,64.3 458.3,64.4 459.6,64.4 460.9,64.5 462.1,64.5 463.4,64.4 464.7,64.4 465.9,64.4 467.2,64.3 468.5,64.3 469.8,64.2 471.0,64.2 472.3,64.1 473.6,64.1 474.8,64.1 476.1,64.1 477.4,64.1 478.7,64.1 479.9,64.1 481.2,64.1 482.5,64.2 483.7,64.2 485.0,64.3 486.3,64.4 487.6,64.5 488.8,64.5 490.1,64.6 491.4,64.6 492.6,64.6 493.9,64.6 495.2,64.6 496.5,64.5 497.7,64.5 499.0,64.5 500.3,64.4 501.5,64.4 502.8,64.4 504.1,64.3 505.4,64.3 506.6,64.3 507.9,64.3 509.2,64.3 510.4,64.3 511.7,64.4 513.0,64.4 514.3,64.5 515.5,64.6 516.8,64.6 518.1,64.7 519.3,64.8 520.6,64.8 521.9,64.8 523.2,64.8 524.4,64.8 525.7,64.8 527.0,64.8 528.2,64.8 529.5,64.7 530.8,64.7 532.1,64.7 533.3,64.7 534.6,64.6 535.9,64.6 537.1,64.6 538.4,64.6 539.7,64.6 541.0,64.7 542.2,64.7 543.5,64.8 544.8,64.8 546.0,64.9 547.3,65.0 548.6,65.0 549.9,65.1 551.1,65.1 552.4,65.1 553.7,65.1 554.9,65.1 556.2,65.1 557.5,65.1 558.8,65.1 560.0,65.1 561.3,65.0 562.6,65.0 563.8,65.0 565.1,65.0 566.4,65.0 567.7,65.0 568.9,65.0 570.2,65.0 571.5,65.1 572.7,65.1 574.0,65.2 575.3,65.2 576.6,65.3 577.8,65.3 579.1,65.4 580.4,65.4 581.6,65.5 582.9,65.5 584.2,65.5 585.5,65.5 586.7,65.5 588.0,65.5 589.3,65.4 590.5,65.4 591.8,65.4 593.1,65.4 594.4,65.4 595.6,65.4 596.9,65.4 598.2,65.4 599.4,65.4 600.7,65.4 602.0,65.5 603.3,65.5 604.5,65.6 605.8,65.7 607.1,65.7 608.3,65.8 609.6,65.8 610.9,65.8 612.2,65.8 613.4,65.8 614.7,65.8 616.0,65.8 617.2,65.8 618.5,65.8 619.8,65.8 621.1,65.8 622.3,65.8 623.6,65.8 624.9,65.8 626.1,65.8 627.4,65.8 628.7,65.8 630.0,65.8 631.2,65.9 632.5,65.9 633.8,66.0 635.0,66.0 636.3,66.1 637.6,66.1 638.9,66.2 640.1,66.2 641.4,66.2 642.7,66.2 643.9,66.2 645.2,66.2 646.5,66.2 647.8,66.2 649.0,66.2 650.3,66.2 651.6,66.1 652.8,66.1 654.1,66.1 655.4,66.2 656.7,66.2 657.9,66.2 659.2,66.3 660.5,66.6 661.7,67.0 663.0,67.7 664.3,68.5 665.6,69.2 666.8,69.8 668.1,70.0 669.4,69.8 670.6,69.4 671.9,68.6 673.2,67.8 674.5,66.9 675.7,66.1 677.0,65.4 678.3,64.8 679.5,64.5 680.8,64.3 682.1,64.5 683.4,64.7 684.6,65.0 685.9,65.1 687.2,65.1 688.4,64.8 689.7,64.5 691.0,64.3 692.3,64.4 693.5,64.8 694.8,65.6 696.1,66.6 697.3,67.6 698.6,68.7 699.9,69.7 701.2,70.6 702.4,71.2 703.7,71.5 705.0,71.5 706.2,71.4 707.5,71.1 708.8,70.8 710.1,70.5 711.3,70.3 712.6,69.9 713.9,69.5 715.1,69.0 716.4,68.4 717.7,67.3 719.0,66.2 720.2,65.2 721.5,64.3 722.8,63.8 724.0,63.6 725.3,63.7 726.6,63.9 727.9,64.2 729.1,64.3 730.4,64.1 731.7,63.7 732.9,63.0 734.2,62.4 735.5,62.1 736.8,62.2 738.0,62.8 739.3,63.8 740.6,65.1 741.8,66.4 743.1,67.3 744.4,67.7 745.7,67.3 746.9,66.3 748.2,65.0 749.5,63.7 750.7,62.8 752.0,62.4 753.3,62.4 754.6,62.8 755.8,63.1 757.1,63.3 758.4,63.4 759.6,63.5 760.9,63.8 762.2,64.4 763.5,65.2 764.7,66.0 766.0,66.3"/>
<line x1="606" y1="42" x2="628" y2="42" stroke="#0f62fe" stroke-width="2.2"/>
<text x="634" y="46" font-family="Arial" font-size="12">alpha_deg</text>
<polyline fill="none" stroke="#24a148" stroke-width="2.2" points="54.0,184.3 55.3,184.2 56.5,183.9 57.8,183.3 59.1,182.4 60.4,181.0 61.6,179.1 62.9,176.7 64.2,174.0 65.4,170.9 66.7,167.6 68.0,164.2 69.3,160.6 70.5,156.9 71.8,153.2 73.1,149.4 74.3,145.6 75.6,141.8 76.9,138.0 78.2,134.1 79.4,130.3 80.7,126.5 82.0,122.6 83.2,118.7 84.5,114.9 85.8,111.1 87.1,107.4 88.3,103.9 89.6,100.7 90.9,97.8 92.1,95.2 93.4,93.1 94.7,91.5 96.0,90.3 97.2,89.7 98.5,89.5 99.8,90.0 101.0,90.9 102.3,92.3 103.6,94.2 104.9,96.6 106.1,99.3 107.4,102.3 108.7,105.5 109.9,109.0 111.2,112.5 112.5,116.1 113.8,119.6 115.0,122.9 116.3,126.1 117.6,128.9 118.8,131.4 120.1,133.4 121.4,135.0 122.7,136.1 123.9,136.7 125.2,136.8 126.5,136.2 127.7,135.2 129.0,133.7 130.3,131.7 131.6,129.3 132.8,126.6 134.1,123.6 135.4,120.4 136.6,117.1 137.9,113.8 139.2,110.5 140.5,107.4 141.7,104.5 143.0,101.9 144.3,99.8 145.5,98.0 146.8,96.8 148.1,96.0 149.4,95.8 150.6,96.2 151.9,97.1 153.2,98.4 154.4,100.3 155.7,102.5 157.0,105.1 158.3,107.9 159.5,110.9 160.8,114.0 162.1,117.1 163.3,120.1 164.6,122.9 165.9,125.4 167.2,127.6 168.4,129.3 169.7,130.6 171.0,131.3 172.2,131.5 173.5,131.2 174.8,130.4 176.1,129.0 177.3,127.3 178.6,125.1 179.9,122.6 181.1,119.9 182.4,117.0 183.7,114.1 185.0,111.2 186.2,108.5 187.5,106.1 188.8,103.9 190.0,102.2 191.3,100.9 192.6,100.1 193.9,99.9 195.1,100.1 196.4,100.9 197.7,102.1 198.9,103.8 200.2,105.9 201.5,108.2 202.8,110.8 204.0,113.4 205.3,116.0 206.6,118.6 207.8,120.9 209.1,123.0 210.4,124.8 211.7,126.1 212.9,127.0 214.2,127.4 215.5,127.3 216.7,126.7 218.0,125.7 219.3,124.2 220.6,122.4 221.8,120.3 223.1,118.0 224.4,115.6 225.6,113.2 226.9,110.9 228.2,108.8 229.5,107.0 230.7,105.5 232.0,104.5 233.3,103.9 234.5,103.7 235.8,104.1 237.1,104.9 238.4,106.1 239.6,107.7 240.9,109.6 242.2,111.7 243.4,113.8 244.7,116.0 246.0,118.1 247.3,120.1 248.5,121.7 249.8,123.0 251.1,124.0 252.3,124.5 253.6,124.5 254.9,124.1 256.2,123.3 257.4,122.1 258.7,120.6 260.0,118.8 261.2,116.9 262.5,114.9 263.8,113.0 265.1,111.1 266.3,109.5 267.6,108.2 268.9,107.2 270.1,106.7 271.4,106.5 272.7,106.7 274.0,107.4 275.2,108.4 276.5,109.7 277.8,111.3 279.0,112.9 280.3,114.7 281.6,116.4 282.9,118.1 284.1,119.5 285.4,120.6 286.7,121.5 287.9,122.0 289.2,122.0 290.5,121.8 291.8,121.1 293.0,120.2 294.3,118.9 295.6,117.5 296.8,116.0 298.1,114.4 299.4,112.9 300.7,111.6 301.9,110.4 303.2,109.6 304.5,109.0 305.7,108.8 307.0,108.9 308.3,109.3 309.6,110.1 310.8,111.1 312.1,112.3 313.4,113.6 314.6,114.9 315.9,116.3 317.2,117.5 318.5,118.5 319.7,119.3 321.0,119.8 322.3,120.0 323.5,119.9 324.8,119.5 326.1,118.8 327.4,118.0 328.6,116.9 329.9,115.8 331.2,114.6 332.4,113.5 333.7,112.5 335.0,111.7 336.3,111.0 337.5,110.7 338.8,110.6 340.1,110.7 341.3,111.1 342.6,111.8 343.9,112.6 345.2,113.5 346.4,114.4 347.7,115.4 349.0,116.3 350.2,117.0 351.5,117.6 352.8,118.0 354.1,118.2 355.3,118.2 356.6,117.9 357.9,117.4 359.1,116.8 360.4,116.1 361.7,115.5 363.0,115.0 364.2,114.8 365.5,114.8 366.8,115.0 368.0,115.6 369.3,116.5 370.6,117.7 371.9,119.2 373.1,121.1 374.4,123.5 375.7,126.4 376.9,129.9 378.2,134.0 379.5,138.8 380.8,144.3 382.0,150.2 383.3,156.2 384.6,161.9 385.8,167.0 387.1,171.4 388.4,175.2 389.7,178.5 390.9,181.6 392.2,184.5 393.5,187.6 394.7,191.0 396.0,194.8 397.3,199.1 398.6,203.6 399.8,208.1 401.1,212.6 402.4,216.8 403.6,220.8 404.9,224.7 406.2,228.4 407.5,232.0 408.7,235.6 410.0,239.1 411.3,242.6 412.5,246.2 413.8,249.8 415.1,253.4 416.4,256.8 417.6,259.9 418.9,262.5 420.2,264.5 421.4,265.7 422.7,266.0 424.0,265.5 425.3,264.2 426.5,262.2 427.8,259.6 429.1,256.6 430.3,253.4 431.6,250.2 432.9,247.3 434.2,244.8 435.4,242.9 436.7,241.6 438.0,241.2 439.2,241.6 440.5,242.7 441.8,244.6 443.1,247.0 444.3,249.8 445.6,252.8 446.9,255.8 448.1,258.6 449.4,261.0 450.7,262.9 452.0,264.1 453.2,264.6 454.5,264.3 455.8,263.3 457.0,261.7 458.3,259.5 459.6,256.9 460.9,254.1 462.1,251.2 463.4,248.5 464.7,246.2 465.9,244.4 467.2,243.1 468.5,242.6 469.8,242.8 471.0,243.6 472.3,245.2 473.6,247.2 474.8,249.6 476.1,252.3 477.4,255.0 478.7,257.5 479.9,259.8 481.2,261.6 482.5,262.8 483.7,263.3 485.0,263.2 486.3,262.4 487.6,261.0 488.8,259.1 490.1,256.8 491.4,254.4 492.6,251.8 493.9,249.4 495.2,247.2 496.5,245.5 497.7,244.4 499.0,243.8 500.3,243.9 501.5,244.6 502.8,245.9 504.1,247.7 505.4,249.9 506.6,252.2 507.9,254.6 509.2,256.9 510.4,259.0 511.7,260.6 513.0,261.7 514.3,262.2 515.5,262.1 516.8,261.4 518.1,260.2 519.3,258.5 520.6,256.4 521.9,254.2 523.2,251.9 524.4,249.7 525.7,247.8 527.0,246.3 528.2,245.3 529.5,244.9 530.8,245.0 532.1,245.7 533.3,246.9 534.6,248.6 535.9,250.5 537.1,252.7 538.4,254.8 539.7,256.8 541.0,258.6 542.2,260.0 543.5,260.9 544.8,261.2 546.0,261.0 547.3,260.3 548.6,259.0 549.9,257.4 551.1,255.5 552.4,253.5 553.7,251.5 554.9,249.6 556.2,248.0 557.5,246.8 558.8,246.1 560.0,245.8 561.3,246.2 562.6,247.0 563.8,248.2 565.1,249.8 566.4,251.7 567.7,253.6 568.9,255.5 570.2,257.2 571.5,258.6 572.7,259.6 574.0,260.2 575.3,260.3 576.6,259.8 577.8,258.9 579.1,257.6 580.4,256.0 581.6,254.2 582.9,252.4 584.2,250.6 585.5,249.1 586.7,247.9 588.0,247.1 589.3,246.7 590.5,246.9 591.8,247.5 593.1,248.5 594.4,249.9 595.6,251.5 596.9,253.2 598.2,254.9 599.4,256.5 600.7,257.8 602.0,258.8 603.3,259.4 604.5,259.5 605.8,259.1 607.1,258.3 608.3,257.2 609.6,255.8 610.9,254.2 612.2,252.5 613.4,251.0 614.7,249.6 616.0,248.5 617.2,247.8 618.5,247.5 619.8,247.6 621.1,248.2 622.3,249.2 623.6,250.4 624.9,251.9 626.1,253.4 627.4,255.0 628.7,256.3 630.0,257.5 631.2,258.3 632.5,258.7 633.8,258.7 635.0,258.3 636.3,257.5 637.6,256.4 638.9,255.0 640.1,253.6 641.4,252.1 642.7,250.8 643.9,249.6 645.2,248.8 646.5,248.3 647.8,248.2 649.0,248.5 650.3,249.2 651.6,250.2 652.8,251.4 654.1,252.8 655.4,254.2 656.7,255.5 657.9,256.6 659.2,257.6 660.5,258.5 661.7,259.4 663.0,260.3 664.3,261.3 665.6,262.1 666.8,262.7 668.1,262.9 669.4,262.5 670.6,261.5 671.9,259.9 673.2,257.6 674.5,254.7 675.7,251.3 677.0,247.5 678.3,243.4 679.5,239.2 680.8,235.4 682.1,232.2 683.4,230.2 684.6,229.6 685.9,230.5 687.2,232.6 688.4,235.2 689.7,237.9 691.0,240.0 692.3,241.2 693.5,241.8 694.8,242.4 696.1,243.4 697.3,244.6 698.6,245.9 699.9,247.7 701.2,249.6 702.4,251.6 703.7,253.5 705.0,255.3 706.2,256.9 707.5,258.5 708.8,259.9 710.1,261.1 711.3,261.8 712.6,261.9 713.9,261.2 715.1,259.8 716.4,257.6 717.7,254.8 719.0,251.2 720.2,247.1 721.5,242.6 722.8,237.9 724.0,233.6 725.3,230.1 726.6,227.8 727.9,226.9 729.1,227.7 730.4,230.0 731.7,233.1 732.9,236.4 734.2,239.5 735.5,241.6 736.8,242.4 738.0,241.4 739.3,238.5 740.6,233.5 741.8,226.4 743.1,217.5 744.4,207.6 745.7,198.0 746.9,189.6 748.2,183.4 749.5,180.0 750.7,180.1 752.0,183.8 753.3,191.2 754.6,201.1 755.8,212.5 757.1,224.2 758.4,235.2 759.6,244.3 760.9,250.8 762.2,253.8 763.5,252.8 764.7,247.4 766.0,238.3"/>
<line x1="606" y1="60" x2="628" y2="60" stroke="#24a148" stroke-width="2.2"/>
<text x="634" y="64" font-family="Arial" font-size="12">beta_deg</text>
</svg>