<svg xmlns="http://www.w3.org/2000/svg" width="820" height="320" viewBox="0 0 820 320">
<rect width="100%" height="100%" fill="#ffffff"/>
<text x="54" y="28" font-family="Arial" font-size="18" font-weight="700">Load Factor</text>
<line x1="54" y1="266" x2="766" y2="266" stroke="#1f2933"/>
<line x1="54" y1="54" x2="54" y2="266" stroke="#1f2933"/>
<text x="54" y="306" font-family="Arial" font-size="12">time (s)</text>
<text x="596" y="306" font-family="Arial" font-size="12">g</text>
<text x="58" y="68" font-family="Arial" font-size="11">6.03</text>
<text x="58" y="260" font-family="Arial" font-size="11">1.83</text>
<polyline fill="none" stroke="#0f62fe" stroke-width="2.2" points="54.0,266.0 55.3,264.5 56.5,263.0 57.8,261.9 59.1,260.9 60.4,259.6 61.6,258.3 62.9,257.0 64.2,255.7 65.4,254.3 66.7,252.9 68.0,251.4 69.3,249.9 70.5,248.4 71.8,246.9 73.1,245.4 74.3,243.9 75.6,243.8 76.9,243.7 78.2,243.6 79.4,243.5 80.7,243.4 82.0,243.2 83.2,243.1 84.5,243.0 85.8,242.8 87.1,242.7 88.3,242.5 89.6,242.4 90.9,242.3 92.1,242.1 93.4,242.0 94.7,241.9 96.0,241.8 97.2,241.7 98.5,241.6 99.8,241.5 101.0,241.5 102.3,241.5 103.6,241.5 104.9,241.5 106.1,241.5 107.4,241.5 108.7,241.5 109.9,241.5 111.2,241.5 112.5,241.5 113.8,241.5 115.0,241.5 116.3,241.5 117.6,241.5 118.8,241.5 120.1,241.4 121.4,241.4 122.7,241.3 123.9,241.3 125.2,241.2 126.5,241.2 127.7,241.1 129.0,241.1 130.3,241.0 131.6,240.9 132.8,240.8 134.1,240.8 135.4,240.7 136.6,240.6 137.9,240.5 139.2,240.3 140.5,240.2 141.7,240.1 143.0,240.0 144.3,239.9 145.5,239.9 146.8,239.8 148.1,239.7 149.4,239.7 150.6,239.7 151.9,239.7 153.2,239.7 154.4,239.8 155.7,239.8 157.0,239.9 158.3,239.9 159.5,240.0 160.8,240.0 162.1,240.1 163.3,240.1 164.6,240.1 165.9,240.1 167.2,240.1 168.4,240.1 169.7,240.1 171.0,240.0 172.2,240.0 173.5,240.0 174.8,240.0 176.1,240.0 177.3,240.0 178.6,240.0 179.9,240.0 181.1,240.0 182.4,240.0 183.7,240.0 185.0,240.0 186.2,239.9 187.5,239.9 188.8,239.9 190.0,239.9 191.3,239.9 192.6,239.9 193.9,239.9 195.1,240.0 196.4,240.0 197.7,240.1 198.9,240.1 200.2,240.1 201.5,240.1 202.8,240.1 204.0,240.1 205.3,240.1 206.6,240.0 207.8,240.0 209.1,239.9 210.4,239.8 211.7,239.7 212.9,239.7 214.2,239.6 215.5,239.6 216.7,239.6 218.0,239.7 219.3,239.8 220.6,239.9 221.8,240.1 223.1,240.2 224.4,240.4 225.6,240.6 226.9,240.8 228.2,240.9 229.5,241.1 230.7,241.2 232.0,241.3 233.3,241.4 234.5,241.5 235.8,241.5 237.1,241.4 238.4,241.4 239.6,241.2 240.9,241.1 242.2,240.9 243.4,240.6 244.7,240.3 246.0,240.0 247.3,239.7 248.5,239.4 249.8,239.1 251.1,239.0 252.3,238.8 253.6,238.8 254.9,238.9 256.2,239.0 257.4,239.3 258.7,239.6 260.0,240.0 261.2,240.4 262.5,240.8 263.8,241.3 265.1,241.7 266.3,242.0 267.6,242.3 268.9,242.5 270.1,242.6 271.4,242.7 272.7,242.7 274.0,242.6 275.2,242.3 276.5,242.0 277.8,241.6 279.0,241.1 280.3,240.6 281.6,240.0 282.9,239.4 284.1,238.9 285.4,238.4 286.7,238.1 287.9,237.8 289.2,237.7 290.5,237.8 291.8,238.1 293.0,238.5 294.3,239.0 295.6,239.6 296.8,240.2 298.1,240.9 299.4,241.5 300.7,242.0 301.9,242.5 303.2,242.8 304.5,243.0 305.7,243.0 307.0,242.9 308.3,242.7 309.6,242.2 310.8,241.6 312.1,240.9 313.4,240.1 314.6,239.1 315.9,238.1 317.2,237.1 318.5,236.2 319.7,235.5 321.0,234.9 322.3,234.5 323.5,234.4 324.8,234.5 326.1,234.8 327.4,235.4 328.6,236.1 329.9,236.8 331.2,237.6 332.4,238.3 333.7,238.9 335.0,239.4 336.3,239.6 337.5,239.7 338.8,239.4 340.1,238.9 341.3,238.2 342.6,237.1 343.9,235.8 345.2,234.3 346.4,232.6 347.7,230.7 349.0,228.8 350.2,227.0 351.5,225.4 352.8,224.0 354.1,222.8 355.3,222.1 356.6,221.6 357.9,221.5 359.1,221.6 360.4,222.0 361.7,222.4 363.0,222.4 364.2,221.8 365.5,220.6 366.8,218.8 368.0,216.3 369.3,212.9 370.6,208.6 371.9,203.2 373.1,196.5 374.4,188.1 375.7,177.8 376.9,165.1 378.2,150.0 379.5,142.4 380.8,134.1 382.0,126.5 383.3,121.1 384.6,118.6 385.8,119.0 387.1,121.8 388.4,125.7 389.7,129.8 390.9,133.2 392.2,135.4 393.5,136.3 394.7,135.9 396.0,134.5 397.3,132.7 398.6,130.7 399.8,129.0 401.1,127.9 402.4,127.5 403.6,127.7 404.9,128.4 406.2,129.3 407.5,130.1 408.7,130.8 410.0,131.1 411.3,131.1 412.5,130.8 413.8,130.3 415.1,129.6 416.4,129.0 417.6,128.5 418.9,128.1 420.2,128.0 421.4,128.1 422.7,128.4 424.0,128.7 425.3,129.1 426.5,129.5 427.8,129.9 429.1,130.1 430.3,130.3 431.6,130.3 432.9,130.3 434.2,130.3 435.4,130.2 436.7,130.1 438.0,130.0 439.2,130.0 440.5,129.8 441.8,129.7 443.1,129.5 444.3,129.3 445.6,129.0 446.9,128.8 448.1,128.5 449.4,128.2 450.7,128.1 452.0,128.0 453.2,127.9 454.5,128.0 455.8,128.1 457.0,128.2 458.3,128.4 459.6,128.6 460.9,128.7 462.1,128.8 463.4,128.8 464.7,128.8 465.9,128.8 467.2,128.7 468.5,128.6 469.8,128.4 471.0,128.2 472.3,128.0 473.6,127.7 474.8,127.4 476.1,127.1 477.4,126.8 478.7,126.5 479.9,126.3 481.2,126.1 482.5,125.9 483.7,125.8 485.0,125.8 486.3,125.8 487.6,125.9 488.8,126.0 490.1,126.1 491.4,126.1 492.6,126.1 493.9,126.1 495.2,126.1 496.5,126.0 497.7,125.8 499.0,125.6 500.3,125.4 501.5,125.2 502.8,124.9 504.1,124.6 505.4,124.2 506.6,123.9 507.9,123.6 509.2,123.2 510.4,122.9 511.7,122.7 513.0,122.4 514.3,122.3 515.5,122.2 516.8,122.2 518.1,122.1 519.3,122.1 520.6,122.1 521.9,122.1 523.2,122.1 524.4,122.0 525.7,121.8 527.0,121.7 528.2,121.5 529.5,121.2 530.8,120.9 532.1,120.6 533.3,120.3 534.6,119.9 535.9,119.5 537.1,119.1 538.4,118.8 539.7,118.4 541.0,118.0 542.2,117.7 543.5,117.5 544.8,117.3 546.0,117.1 547.3,117.0 548.6,116.9 549.9,116.8 551.1,116.7 552.4,116.6 553.7,116.5 554.9,116.3 556.2,116.1 557.5,115.9 558.8,115.6 560.0,115.3 561.3,115.0 562.6,114.6 563.8,114.2 565.1,113.8 566.4,113.3 567.7,112.9 568.9,112.5 570.2,112.0 571.5,111.7 572.7,111.3 574.0,111.0 575.3,110.8 576.6,110.6 577.8,110.4 579.1,110.3 580.4,110.1 581.6,110.0 582.9,109.8 584.2,109.6 585.5,109.3 586.7,109.0 588.0,108.7 589.3,108.3 590.5,108.0 591.8,107.5 593.1,107.1 594.4,106.6 595.6,106.2 596.9,105.7 598.2,105.2 599.4,104.8 600.7,104.3 602.0,104.0 603.3,103.6 604.5,103.3 605.8,103.0 607.1,102.8 608.3,102.6 609.6,102.4 610.9,102.2 612.2,101.9 613.4,101.7 614.7,101.4 616.0,101.0 617.2,100.7 618.5,100.3 619.8,99.8 621.1,99.4 622.3,98.9 623.6,98.4 624.9,97.9 626.1,97.4 627.4,96.9 628.7,96.4 630.0,95.9 631.2,95.5 632.5,95.1 633.8,94.8 635.0,94.5 636.3,94.2 637.6,94.0 638.9,93.7 640.1,93.4 641.4,93.2 642.7,92.8 643.9,92.5 645.2,92.1 646.5,91.7 647.8,91.3 649.0,90.8 650.3,90.3 651.6,89.8 652.8,89.3 654.1,88.7 655.4,88.2 656.7,87.7 657.9,87.2 659.2,86.9 660.5,86.7 661.7,86.9 663.0,87.2 664.3,87.8 665.6,88.3 666.8,88.5 668.1,88.3 669.4,87.6 670.6,86.6 671.9,85.2 673.2,83.7 674.5,82.2 675.7,80.9 677.0,79.7 678.3,78.7 679.5,78.0 680.8,77.6 682.1,77.5 683.4,77.5 684.6,77.5 685.9,77.2 687.2,76.5 688.4,75.4 689.7,74.1 691.0,73.1 692.3,72.8 693.5,73.3 694.8,74.2 696.1,75.0 697.3,76.0 698.6,77.2 699.9,78.2 701.2,78.8 702.4,79.0 703.7,78.9 705.0,78.4 706.2,77.6 707.5,76.7 708.8,75.7 710.1,74.6 711.3,73.6 712.6,72.6 713.9,71.6 715.1,70.5 716.4,54.6 717.7,54.3 719.0,54.0 720.2,54.0 721.5,54.3 722.8,55.2 724.0,56.6 725.3,58.4 726.6,60.5 727.9,62.6 729.1,64.3 730.4,65.3 731.7,65.7 732.9,65.7 734.2,65.7 735.5,66.3 736.8,67.6 738.0,70.0 739.3,73.3 740.6,77.1 741.8,81.1 743.1,84.8 744.4,87.2 745.7,88.0 746.9,87.3 748.2,86.0 749.5,84.8 750.7,84.3 752.0,85.0 753.3,86.8 754.6,88.8 755.8,90.5 757.1,91.6 758.4,92.2 759.6,92.6 760.9,93.4 762.2,94.9 763.5,97.2 764.7,100.6 766.0,103.3"/>
<line x1="606" y1="42" x2="628" y2="42" stroke="#0f62fe" stroke-width="2.2"/>
<text x="634" y="46" font-family="Arial" font-size="12">load_factor_g</text>
</svg>