<svg xmlns="http://www.w3.org/2000/svg" width="820" height="320" viewBox="0 0 820 320">
<rect width="100%" height="100%" fill="#ffffff"/>
<text x="54" y="28" font-family="Arial" font-size="18" font-weight="700">Control Surfaces</text>
<line x1="54" y1="266" x2="766" y2="266" stroke="#1f2933"/>
<line x1="54" y1="54" x2="54" y2="266" stroke="#1f2933"/>
<text x="54" y="306" font-family="Arial" font-size="12">time (s)</text>
<text x="596" y="306" font-family="Arial" font-size="12">deflection (deg)</text>
<text x="58" y="68" font-family="Arial" font-size="11">10</text>
<text x="58" y="260" font-family="Arial" font-size="11">-10</text>
<polyline fill="none" stroke="#0f62fe" stroke-width="2.2" points="54.0,169.3 55.3,178.6 56.5,187.8 57.8,187.6 59.1,178.4 60.4,169.1 61.6,171.9 62.9,181.2 64.2,190.5 65.4,199.4 66.7,200.5 68.0,199.3 69.3,199.9 70.5,203.1 71.8,206.7 73.1,209.3 74.3,210.8 75.6,211.9 76.9,213.2 78.2,214.7 79.4,216.1 80.7,217.2 82.0,218.2 83.2,219.1 84.5,219.9 85.8,220.7 87.1,221.4 88.3,222.0 89.6,222.5 90.9,223.0 92.1,223.5 93.4,223.8 94.7,224.1 96.0,224.4 97.2,224.6 98.5,224.7 99.8,224.8 101.0,224.9 102.3,224.9 103.6,224.9 104.9,224.9 106.1,224.9 107.4,224.8 108.7,224.7 109.9,224.7 111.2,224.6 112.5,224.5 113.8,224.4 115.0,224.4 116.3,224.3 117.6,224.2 118.8,224.2 120.1,224.1 121.4,224.0 122.7,224.0 123.9,223.9 125.2,223.9 126.5,223.8 127.7,223.7 129.0,223.7 130.3,223.6 131.6,223.5 132.8,223.4 134.1,223.3 135.4,223.3 136.6,223.2 137.9,223.1 139.2,222.9 140.5,222.8 141.7,222.7 143.0,222.5 144.3,222.4 145.5,222.2 146.8,222.0 148.1,221.8 149.4,221.6 150.6,221.4 151.9,221.2 153.2,221.0 154.4,220.8 155.7,220.6 157.0,220.4 158.3,220.2 159.5,220.0 160.8,219.8 162.1,219.6 163.3,219.5 164.6,219.3 165.9,219.1 167.2,219.0 168.4,218.8 169.7,218.6 171.0,218.4 172.2,218.2 173.5,218.0 174.8,217.8 176.1,217.5 177.3,217.2 178.6,216.9 179.9,216.6 181.1,216.3 182.4,215.9 183.7,215.7 185.0,215.4 186.2,215.0 187.5,214.6 188.8,214.3 190.0,214.0 191.3,213.8 192.6,213.5 193.9,213.3 195.1,213.1 196.4,212.9 197.7,212.8 198.9,212.7 200.2,212.6 201.5,212.6 202.8,212.5 204.0,212.5 205.3,212.6 206.6,212.6 207.8,212.6 209.1,212.5 210.4,212.5 211.7,212.4 212.9,212.3 214.2,212.1 215.5,211.9 216.7,211.6 218.0,211.3 219.3,210.8 220.6,210.3 221.8,209.8 223.1,209.3 224.4,208.7 225.6,208.1 226.9,207.5 228.2,207.0 229.5,206.5 230.7,206.1 232.0,205.8 233.3,205.5 234.5,205.4 235.8,205.4 237.1,205.4 238.4,205.6 239.6,205.8 240.9,206.1 242.2,206.5 243.4,206.9 244.7,207.2 246.0,207.6 247.3,207.9 248.5,208.1 249.8,208.3 251.1,208.3 252.3,208.2 253.6,207.9 254.9,207.6 256.2,207.1 257.4,206.5 258.7,205.8 260.0,205.1 261.2,204.3 262.5,203.5 263.8,202.7 265.1,202.0 266.3,201.4 267.6,200.9 268.9,200.5 270.1,200.3 271.4,200.2 272.7,200.3 274.0,200.6 275.2,201.0 276.5,201.5 277.8,202.1 279.0,202.7 280.3,203.3 281.6,203.9 282.9,204.5 284.1,205.0 285.4,205.3 286.7,205.4 287.9,205.4 289.2,205.2 290.5,204.9 291.8,204.3 293.0,203.7 294.3,202.9 295.6,202.0 296.8,201.2 298.1,200.3 299.4,199.5 300.7,198.8 301.9,198.3 303.2,197.9 304.5,197.7 305.7,197.7 307.0,198.0 308.3,198.4 309.6,199.0 310.8,199.7 312.1,200.6 313.4,201.5 314.6,202.4 315.9,203.3 317.2,204.0 318.5,204.7 319.7,205.1 321.0,205.4 322.3,205.5 323.5,205.3 324.8,205.0 326.1,204.4 327.4,203.8 328.6,203.1 329.9,202.3 331.2,201.5 332.4,200.9 333.7,200.3 335.0,200.0 336.3,199.8 337.5,199.9 338.8,200.3 340.1,200.9 341.3,201.7 342.6,202.7 343.9,203.9 345.2,205.2 346.4,206.5 347.7,207.8 349.0,209.0 350.2,210.1 351.5,211.0 352.8,211.8 354.1,212.3 355.3,212.6 356.6,212.6 357.9,212.6 359.1,212.4 360.4,212.4 361.7,212.7 363.0,213.2 364.2,213.8 365.5,214.8 366.8,216.3 368.0,218.4 369.3,221.0 370.6,224.2 371.9,228.2 373.1,233.0 374.4,238.7 375.7,245.6 376.9,253.8 378.2,259.9 379.5,262.9 380.8,264.5 382.0,265.2 383.3,265.6 384.6,265.8 385.8,265.9 387.1,266.0 388.4,266.0 389.7,266.0 390.9,266.0 392.2,266.0 393.5,266.0 394.7,266.0 396.0,266.0 397.3,266.0 398.6,266.0 399.8,266.0 401.1,266.0 402.4,266.0 403.6,266.0 404.9,266.0 406.2,266.0 407.5,266.0 408.7,266.0 410.0,266.0 411.3,266.0 412.5,266.0 413.8,266.0 415.1,266.0 416.4,266.0 417.6,266.0 418.9,266.0 420.2,266.0 421.4,266.0 422.7,266.0 424.0,266.0 425.3,266.0 426.5,266.0 427.8,266.0 429.1,266.0 430.3,266.0 431.6,266.0 432.9,266.0 434.2,266.0 435.4,266.0 436.7,266.0 438.0,266.0 439.2,266.0 440.5,266.0 441.8,266.0 443.1,266.0 444.3,266.0 445.6,266.0 446.9,266.0 448.1,266.0 449.4,266.0 450.7,266.0 452.0,266.0 453.2,266.0 454.5,266.0 455.8,266.0 457.0,266.0 458.3,266.0 459.6,266.0 460.9,266.0 462.1,266.0 463.4,266.0 464.7,266.0 465.9,266.0 467.2,266.0 468.5,266.0 469.8,266.0 471.0,266.0 472.3,266.0 473.6,266.0 474.8,266.0 476.1,266.0 477.4,266.0 478.7,266.0 479.9,266.0 481.2,266.0 482.5,266.0 483.7,266.0 485.0,266.0 486.3,266.0 487.6,266.0 488.8,266.0 490.1,266.0 491.4,266.0 492.6,266.0 493.9,266.0 495.2,266.0 496.5,266.0 497.7,266.0 499.0,266.0 500.3,266.0 501.5,266.0 502.8,266.0 504.1,266.0 505.4,266.0 506.6,266.0 507.9,266.0 509.2,266.0 510.4,266.0 511.7,266.0 513.0,266.0 514.3,266.0 515.5,266.0 516.8,266.0 518.1,266.0 519.3,266.0 520.6,266.0 521.9,266.0 523.2,266.0 524.4,266.0 525.7,266.0 527.0,266.0 528.2,266.0 529.5,266.0 530.8,266.0 532.1,266.0 533.3,266.0 534.6,266.0 535.9,266.0 537.1,266.0 538.4,266.0 539.7,266.0 541.0,266.0 542.2,266.0 543.5,266.0 544.8,266.0 546.0,266.0 547.3,266.0 548.6,266.0 549.9,266.0 551.1,266.0 552.4,266.0 553.7,266.0 554.9,266.0 556.2,266.0 557.5,266.0 558.8,266.0 560.0,266.0 561.3,266.0 562.6,266.0 563.8,266.0 565.1,266.0 566.4,266.0 567.7,266.0 568.9,266.0 570.2,266.0 571.5,266.0 572.7,266.0 574.0,266.0 575.3,266.0 576.6,266.0 577.8,266.0 579.1,266.0 580.4,266.0 581.6,266.0 582.9,266.0 584.2,266.0 585.5,266.0 586.7,266.0 588.0,266.0 589.3,266.0 590.5,266.0 591.8,266.0 593.1,266.0 594.4,266.0 595.6,266.0 596.9,266.0 598.2,266.0 599.4,266.0 600.7,266.0 602.0,266.0 603.3,266.0 604.5,266.0 605.8,266.0 607.1,266.0 608.3,266.0 609.6,266.0 610.9,266.0 612.2,266.0 613.4,266.0 614.7,266.0 616.0,266.0 617.2,266.0 618.5,266.0 619.8,266.0 621.1,266.0 622.3,266.0 623.6,266.0 624.9,266.0 626.1,266.0 627.4,266.0 628.7,266.0 630.0,266.0 631.2,266.0 632.5,266.0 633.8,266.0 635.0,266.0 636.3,266.0 637.6,266.0 638.9,266.0 640.1,266.0 641.4,266.0 642.7,266.0 643.9,266.0 645.2,266.0 646.5,266.0 647.8,266.0 649.0,266.0 650.3,266.0 651.6,266.0 652.8,266.0 654.1,266.0 655.4,266.0 656.7,266.0 657.9,266.0 659.2,266.0 660.5,266.0 661.7,266.0 663.0,266.0 664.3,266.0 665.6,266.0 666.8,266.0 668.1,266.0 669.4,266.0 670.6,266.0 671.9,266.0 673.2,266.0 674.5,266.0 675.7,266.0 677.0,266.0 678.3,266.0 679.5,266.0 680.8,266.0 682.1,266.0 683.4,266.0 684.6,266.0 685.9,266.0 687.2,266.0 688.4,266.0 689.7,266.0 691.0,266.0 692.3,266.0 693.5,266.0 694.8,266.0 696.1,266.0 697.3,266.0 698.6,266.0 699.9,266.0 701.2,266.0 702.4,266.0 703.7,266.0 705.0,266.0 706.2,266.0 707.5,266.0 708.8,266.0 710.1,266.0 711.3,266.0 712.6,266.0 713.9,266.0 715.1,266.0 716.4,266.0 717.7,266.0 719.0,266.0 720.2,266.0 721.5,266.0 722.8,266.0 724.0,266.0 725.3,266.0 726.6,266.0 727.9,266.0 729.1,266.0 730.4,266.0 731.7,266.0 732.9,266.0 734.2,266.0 735.5,266.0 736.8,266.0 738.0,266.0 739.3,266.0 740.6,266.0 741.8,266.0 743.1,266.0 744.4,266.0 745.7,266.0 746.9,266.0 748.2,266.0 749.5,266.0 750.7,266.0 752.0,266.0 753.3,266.0 754.6,266.0 755.8,266.0 757.1,266.0 758.4,266.0 759.6,266.0 760.9,266.0 762.2,266.0 763.5,266.0 764.7,266.0 766.0,266.0"/>
<line x1="606" y1="42" x2="628" y2="42" stroke="#0f62fe" stroke-width="2.2"/>
<text x="634" y="46" font-family="Arial" font-size="12">elevator_deg</text>
<polyline fill="none" stroke="#24a148" stroke-width="2.2" points="54.0,160.0 55.3,160.0 56.5,160.0 57.8,159.5 59.1,159.0 60.4,158.3 61.6,157.4 62.9,156.3 64.2,155.1 65.4,153.8 66.7,152.4 68.0,150.9 69.3,149.3 70.5,147.7 71.8,146.0 73.1,144.2 74.3,142.4 75.6,140.5 76.9,138.6 78.2,136.8 79.4,134.9 80.7,133.0 82.0,131.1 83.2,129.2 84.5,127.3 85.8,125.5 87.1,123.8 88.3,122.2 89.6,120.8 90.9,119.5 92.1,118.3 93.4,117.4 94.7,116.6 96.0,116.0 97.2,115.7 98.5,115.6 99.8,115.7 101.0,116.1 102.3,116.7 103.6,117.5 104.9,118.5 106.1,119.7 107.4,121.0 108.7,122.4 109.9,124.0 111.2,125.5 112.5,127.1 113.8,128.7 115.0,130.2 116.3,131.6 117.6,132.9 118.8,134.0 120.1,135.0 121.4,135.8 122.7,136.3 123.9,136.6 125.2,136.7 126.5,136.5 127.7,136.1 129.0,135.5 130.3,134.7 131.6,133.7 132.8,132.6 134.1,131.3 135.4,130.0 136.6,128.5 137.9,127.1 139.2,125.7 140.5,124.4 141.7,123.1 143.0,122.0 144.3,121.1 145.5,120.4 146.8,119.8 148.1,119.5 149.4,119.5 150.6,119.6 151.9,120.0 153.2,120.6 154.4,121.5 155.7,122.5 157.0,123.6 158.3,124.9 159.5,126.3 160.8,127.7 162.1,129.1 163.3,130.4 164.6,131.7 165.9,132.9 167.2,133.9 168.4,134.7 169.7,135.3 171.0,135.7 172.2,135.9 173.5,135.8 174.8,135.5 176.1,135.0 177.3,134.3 178.6,133.5 179.9,132.5 181.1,131.4 182.4,130.2 183.7,129.1 185.0,128.2 186.2,127.3 187.5,126.4 188.8,125.5 190.0,124.9 191.3,124.5 192.6,124.3 193.9,124.4 195.1,124.7 196.4,125.2 197.7,126.0 198.9,126.9 200.2,128.0 201.5,129.3 202.8,130.6 204.0,132.0 205.3,133.4 206.6,134.7 207.8,132.3 209.1,129.5 210.4,129.3 211.7,131.2 212.9,133.2 214.2,134.1 215.5,133.9 216.7,133.3 218.0,132.7 219.3,132.2 220.6,131.6 221.8,130.7 223.1,129.6 224.4,128.3 225.6,127.1 226.9,125.9 228.2,124.8 229.5,123.8 230.7,122.9 232.0,122.2 233.3,121.8 234.5,121.5 235.8,121.6 237.1,121.8 238.4,122.3 239.6,123.0 240.9,123.8 242.2,124.8 243.4,125.9 244.7,127.0 246.0,128.1 247.3,129.1 248.5,130.0 249.8,130.8 251.1,131.4 252.3,131.8 253.6,131.9 254.9,131.9 256.2,131.6 257.4,131.1 258.7,130.4 260.0,129.6 261.2,128.6 262.5,127.6 263.8,126.6 265.1,125.7 266.3,124.8 267.6,124.1 268.9,123.5 270.1,123.1 271.4,122.9 272.7,122.9 274.0,123.1 275.2,123.5 276.5,124.1 277.8,124.8 279.0,125.6 280.3,126.5 281.6,127.3 282.9,128.2 284.1,129.0 285.4,129.6 286.7,130.1 287.9,130.5 289.2,130.6 290.5,130.6 291.8,130.3 293.0,129.9 294.3,129.4 295.6,128.7 296.8,128.0 298.1,127.2 299.4,126.4 300.7,125.7 301.9,125.0 303.2,124.5 304.5,124.1 305.7,123.9 307.0,123.9 308.3,124.1 309.6,124.4 310.8,124.8 312.1,125.4 313.4,126.0 314.6,126.7 315.9,127.3 317.2,128.0 318.5,128.5 319.7,129.0 321.0,129.3 322.3,129.5 323.5,129.5 324.8,129.4 326.1,129.1 327.4,128.7 328.6,128.2 329.9,127.7 331.2,127.1 332.4,126.5 333.7,126.0 335.0,125.5 336.3,125.1 337.5,124.9 338.8,124.8 340.1,124.8 341.3,124.9 342.6,125.2 343.9,125.6 345.2,126.0 346.4,126.5 347.7,127.0 349.0,127.4 350.2,127.8 351.5,128.2 352.8,128.4 354.1,128.6 355.3,128.6 356.6,128.5 357.9,128.3 359.1,128.0 360.4,127.7 361.7,127.3 363.0,127.0 364.2,126.8 365.5,126.8 366.8,126.8 368.0,127.0 369.3,127.4 370.6,127.9 371.9,128.5 373.1,129.4 374.4,130.4 375.7,131.7 376.9,133.2 378.2,135.0 379.5,137.1 380.8,139.5 382.0,142.4 383.3,145.5 384.6,148.6 385.8,151.4 387.1,153.9 388.4,155.8 389.7,157.5 390.9,158.7 392.2,160.5 393.5,161.9 394.7,163.2 396.0,164.9 397.3,166.9 398.6,169.2 399.8,171.4 401.1,173.7 402.4,175.8 403.6,177.8 404.9,179.8 406.2,181.6 407.5,183.4 408.7,185.1 410.0,186.8 411.3,188.5 412.5,190.3 413.8,192.0 415.1,193.8 416.4,195.5 417.6,197.2 418.9,198.6 420.2,199.7 421.4,200.5 422.7,200.9 424.0,200.8 425.3,200.3 426.5,199.4 427.8,198.2 429.1,196.8 430.3,195.2 431.6,193.6 432.9,192.0 434.2,190.7 435.4,189.6 436.7,188.8 438.0,188.4 439.2,188.4 440.5,188.8 441.8,189.6 443.1,190.7 444.3,192.1 445.6,193.5 446.9,195.1 448.1,196.5 449.4,197.9 450.7,198.9 452.0,199.7 453.2,200.1 454.5,200.1 455.8,199.8 457.0,199.1 458.3,198.1 459.6,196.8 460.9,195.5 462.1,194.0 463.4,192.6 464.7,191.4 465.9,190.3 467.2,189.6 468.5,189.1 469.8,189.1 471.0,189.4 472.3,190.0 473.6,190.9 474.8,192.1 476.1,193.4 477.4,194.7 478.7,196.1 479.9,197.3 481.2,198.3 482.5,199.0 483.7,199.4 485.0,199.5 486.3,199.3 487.6,198.7 488.8,197.8 490.1,196.8 491.4,195.5 492.6,194.2 493.9,193.0 495.2,191.8 496.5,190.9 497.7,190.2 499.0,189.8 500.3,189.7 501.5,189.9 502.8,190.4 504.1,191.2 505.4,192.3 506.6,193.4 507.9,194.6 509.2,195.8 510.4,196.9 511.7,197.8 513.0,198.5 514.3,198.9 515.5,199.0 516.8,198.7 518.1,198.2 519.3,197.4 520.6,196.5 521.9,195.4 523.2,194.2 524.4,193.1 525.7,192.1 527.0,191.2 528.2,190.6 529.5,190.3 530.8,190.2 532.1,190.5 533.3,191.0 534.6,191.7 535.9,192.6 537.1,193.7 538.4,194.8 539.7,195.8 541.0,196.8 542.2,197.6 543.5,198.1 544.8,198.4 546.0,198.4 547.3,198.2 548.6,197.6 549.9,196.9 551.1,196.0 552.4,195.0 553.7,193.9 554.9,193.0 556.2,192.1 557.5,191.4 558.8,190.9 560.0,190.7 561.3,190.8 562.6,191.1 563.8,191.6 565.1,192.4 566.4,193.2 567.7,194.2 568.9,195.2 570.2,196.1 571.5,196.9 572.7,197.5 574.0,197.9 575.3,198.0 576.6,197.9 577.8,197.5 579.1,196.9 580.4,196.2 581.6,195.3 582.9,194.4 584.2,193.4 585.5,192.6 586.7,191.9 588.0,191.4 589.3,191.2 590.5,191.1 591.8,191.4 593.1,191.8 594.4,192.4 595.6,193.2 596.9,194.1 598.2,194.9 599.4,195.8 600.7,196.5 602.0,197.1 603.3,197.4 604.5,197.6 605.8,197.5 607.1,197.2 608.3,196.7 609.6,196.0 610.9,195.2 612.2,194.4 613.4,193.6 614.7,192.8 616.0,192.2 617.2,191.8 618.5,191.5 619.8,191.5 621.1,191.7 622.3,192.2 623.6,192.7 624.9,193.4 626.1,194.2 627.4,195.0 628.7,195.7 630.0,196.4 631.2,196.8 632.5,197.1 633.8,197.2 635.0,197.1 636.3,196.7 637.6,196.2 638.9,195.6 640.1,194.9 641.4,194.1 642.7,193.4 643.9,192.8 645.2,192.3 646.5,192.0 647.8,191.9 649.0,191.9 650.3,192.2 651.6,192.7 652.8,193.3 654.1,193.9 655.4,194.6 656.7,195.3 657.9,186.0 659.2,176.8 660.5,167.5 661.7,158.2 663.0,148.9 664.3,158.2 665.6,167.5 666.8,176.8 668.1,186.0 669.4,195.3 670.6,204.6 671.9,213.9 673.2,223.1 674.5,232.4 675.7,241.7 677.0,251.0 678.3,258.5 679.5,249.2 680.8,239.9 682.1,230.7 683.4,221.4 684.6,212.1 685.9,202.8 687.2,193.6 688.4,184.3 689.7,175.0 691.0,165.7 692.3,156.5 693.5,147.2 694.8,137.9 696.1,128.6 697.3,119.4 698.6,110.1 699.9,119.4 701.2,128.6 702.4,137.9 703.7,147.2 705.0,156.5 706.2,165.7 707.5,175.0 708.8,184.3 710.1,193.6 711.3,202.8 712.6,212.1 713.9,221.4 715.1,230.7 716.4,239.9 717.7,249.2 719.0,257.6 720.2,261.8 721.5,263.9 722.8,255.1 724.0,245.8 725.3,236.6 726.6,227.3 727.9,218.0 729.1,208.7 730.4,199.5 731.7,190.2 732.9,180.9 734.2,171.6 735.5,162.4 736.8,153.1 738.0,143.8 739.3,134.5 740.6,125.3 741.8,116.0 743.1,125.3 744.4,134.5 745.7,143.8 746.9,153.1 748.2,162.4 749.5,171.6 750.7,180.9 752.0,190.2 753.3,199.5 754.6,190.2 755.8,180.9 757.1,171.6 758.4,162.4 759.6,153.1 760.9,143.8 762.2,142.0 763.5,151.3 764.7,160.6 766.0,169.9"/>
<line x1="606" y1="60" x2="628" y2="60" stroke="#24a148" stroke-width="2.2"/>
<text x="634" y="64" font-family="Arial" font-size="12">aileron_deg</text>
<polyline fill="none" stroke="#da1e28" stroke-width="2.2" points="54.0,150.7 55.3,141.4 56.5,132.2 57.8,122.9 59.1,113.6 60.4,106.9 61.6,106.7 62.9,109.1 64.2,112.0 65.4,114.1 66.7,114.9 68.0,114.4 69.3,112.6 70.5,109.7 71.8,105.9 73.1,101.4 74.3,96.4 75.6,91.1 76.9,85.5 78.2,79.7 79.4,73.8 80.7,67.9 82.0,61.9 83.2,58.0 84.5,56.0 85.8,55.0 87.1,54.5 88.3,54.2 89.6,54.1 90.9,54.1 92.1,54.0 93.4,54.0 94.7,54.0 96.0,54.0 97.2,54.0 98.5,54.0 99.8,54.0 101.0,54.0 102.3,54.0 103.6,54.0 104.9,54.0 106.1,54.0 107.4,54.0 108.7,54.0 109.9,54.0 111.2,54.0 112.5,54.0 113.8,54.0 115.0,54.0 116.3,54.0 117.6,54.0 118.8,54.0 120.1,54.0 121.4,54.0 122.7,54.0 123.9,54.0 125.2,54.0 126.5,54.0 127.7,54.0 129.0,54.0 130.3,54.0 131.6,54.0 132.8,54.0 134.1,54.0 135.4,54.0 136.6,54.0 137.9,54.0 139.2,54.0 140.5,54.0 141.7,54.0 143.0,54.0 144.3,54.0 145.5,54.0 146.8,54.0 148.1,54.0 149.4,54.0 150.6,54.0 151.9,54.0 153.2,54.0 154.4,54.0 155.7,54.0 157.0,54.0 158.3,54.0 159.5,54.0 160.8,54.0 162.1,54.0 163.3,54.0 164.6,54.0 165.9,54.0 167.2,54.0 168.4,54.0 169.7,54.0 171.0,54.0 172.2,54.0 173.5,54.0 174.8,54.0 176.1,54.0 177.3,54.0 178.6,54.0 179.9,54.0 181.1,54.0 182.4,54.0 183.7,54.0 185.0,54.0 186.2,54.0 187.5,54.0 188.8,54.0 190.0,54.0 191.3,54.0 192.6,54.0 193.9,54.0 195.1,54.0 196.4,54.0 197.7,54.0 198.9,54.0 200.2,54.0 201.5,54.0 202.8,54.0 204.0,54.0 205.3,54.0 206.6,54.0 207.8,54.0 209.1,54.0 210.4,54.0 211.7,54.0 212.9,54.0 214.2,54.0 215.5,54.0 216.7,54.0 218.0,54.0 219.3,54.0 220.6,54.0 221.8,54.0 223.1,54.0 224.4,54.0 225.6,54.0 226.9,54.0 228.2,54.0 229.5,54.0 230.7,54.0 232.0,54.0 233.3,54.0 234.5,54.0 235.8,54.0 237.1,54.0 238.4,54.0 239.6,54.0 240.9,54.0 242.2,54.0 243.4,54.0 244.7,54.0 246.0,54.0 247.3,54.0 248.5,54.0 249.8,54.0 251.1,54.0 252.3,54.0 253.6,54.0 254.9,54.0 256.2,54.0 257.4,54.0 258.7,54.0 260.0,54.0 261.2,54.0 262.5,54.0 263.8,54.0 265.1,54.0 266.3,54.0 267.6,54.0 268.9,54.0 270.1,54.0 271.4,54.0 272.7,54.0 274.0,54.0 275.2,54.0 276.5,54.0 277.8,54.0 279.0,54.0 280.3,54.0 281.6,54.0 282.9,54.0 284.1,54.0 285.4,54.0 286.7,54.0 287.9,54.0 289.2,54.0 290.5,54.0 291.8,54.0 293.0,54.0 294.3,54.0 295.6,54.0 296.8,54.0 298.1,54.0 299.4,54.0 300.7,54.0 301.9,54.0 303.2,54.0 304.5,54.0 305.7,54.0 307.0,54.0 308.3,54.0 309.6,54.0 310.8,54.0 312.1,54.0 313.4,54.0 314.6,54.0 315.9,54.0 317.2,54.0 318.5,54.0 319.7,54.0 321.0,54.0 322.3,54.0 323.5,54.0 324.8,54.0 326.1,54.0 327.4,54.0 328.6,54.0 329.9,54.0 331.2,54.0 332.4,54.0 333.7,54.0 335.0,54.0 336.3,54.0 337.5,54.0 338.8,54.0 340.1,54.0 341.3,54.0 342.6,54.0 343.9,54.0 345.2,54.0 346.4,54.0 347.7,54.0 349.0,54.0 350.2,54.0 351.5,54.0 352.8,54.0 354.1,54.0 355.3,54.0 356.6,54.0 357.9,54.0 359.1,55.1 360.4,57.0 361.7,58.2 363.0,59.1 364.2,59.7 365.5,60.4 366.8,61.3 368.0,62.8 369.3,64.9 370.6,67.7 371.9,71.3 373.1,75.7 374.4,81.0 375.7,87.3 376.9,94.8 378.2,103.6 379.5,109.9 380.8,113.4 382.0,114.1 383.3,113.7 384.6,114.6 385.8,118.6 387.1,125.9 388.4,135.2 389.7,144.4 390.9,153.7 392.2,163.0 393.5,172.3 394.7,181.5 396.0,187.6 397.3,190.1 398.6,192.1 399.8,195.4 401.1,200.4 402.4,206.4 403.6,212.8 404.9,219.3 406.2,225.8 407.5,232.2 408.7,238.6 410.0,244.9 411.3,250.8 412.5,256.3 413.8,261.2 415.1,263.6 416.4,264.8 417.6,265.4 418.9,265.7 420.2,265.8 421.4,265.9 422.7,266.0 424.0,266.0 425.3,266.0 426.5,266.0 427.8,266.0 429.1,266.0 430.3,266.0 431.6,266.0 432.9,266.0 434.2,266.0 435.4,266.0 436.7,266.0 438.0,266.0 439.2,266.0 440.5,266.0 441.8,266.0 443.1,266.0 444.3,266.0 445.6,266.0 446.9,266.0 448.1,266.0 449.4,266.0 450.7,266.0 452.0,266.0 453.2,266.0 454.5,266.0 455.8,266.0 457.0,266.0 458.3,266.0 459.6,266.0 460.9,266.0 462.1,266.0 463.4,266.0 464.7,266.0 465.9,266.0 467.2,266.0 468.5,266.0 469.8,266.0 471.0,266.0 472.3,266.0 473.6,266.0 474.8,266.0 476.1,266.0 477.4,266.0 478.7,266.0 479.9,266.0 481.2,266.0 482.5,266.0 483.7,266.0 485.0,266.0 486.3,266.0 487.6,266.0 488.8,266.0 490.1,266.0 491.4,266.0 492.6,266.0 493.9,266.0 495.2,266.0 496.5,266.0 497.7,266.0 499.0,266.0 500.3,266.0 501.5,266.0 502.8,266.0 504.1,266.0 505.4,266.0 506.6,266.0 507.9,266.0 509.2,266.0 510.4,266.0 511.7,266.0 513.0,266.0 514.3,266.0 515.5,266.0 516.8,266.0 518.1,266.0 519.3,266.0 520.6,266.0 521.9,266.0 523.2,266.0 524.4,266.0 525.7,266.0 527.0,266.0 528.2,266.0 529.5,266.0 530.8,266.0 532.1,266.0 533.3,266.0 534.6,266.0 535.9,266.0 537.1,266.0 538.4,266.0 539.7,266.0 541.0,266.0 542.2,266.0 543.5,266.0 544.8,266.0 546.0,266.0 547.3,266.0 548.6,266.0 549.9,266.0 551.1,266.0 552.4,266.0 553.7,266.0 554.9,266.0 556.2,266.0 557.5,266.0 558.8,266.0 560.0,266.0 561.3,266.0 562.6,266.0 563.8,266.0 565.1,266.0 566.4,266.0 567.7,266.0 568.9,266.0 570.2,266.0 571.5,266.0 572.7,266.0 574.0,266.0 575.3,266.0 576.6,266.0 577.8,266.0 579.1,266.0 580.4,266.0 581.6,266.0 582.9,266.0 584.2,266.0 585.5,266.0 586.7,266.0 588.0,266.0 589.3,266.0 590.5,266.0 591.8,266.0 593.1,266.0 594.4,266.0 595.6,266.0 596.9,266.0 598.2,266.0 599.4,266.0 600.7,266.0 602.0,266.0 603.3,266.0 604.5,266.0 605.8,266.0 607.1,266.0 608.3,266.0 609.6,266.0 610.9,266.0 612.2,266.0 613.4,266.0 614.7,266.0 616.0,266.0 617.2,266.0 618.5,266.0 619.8,266.0 621.1,266.0 622.3,266.0 623.6,266.0 624.9,266.0 626.1,266.0 627.4,266.0 628.7,266.0 630.0,266.0 631.2,266.0 632.5,266.0 633.8,266.0 635.0,266.0 636.3,266.0 637.6,266.0 638.9,266.0 640.1,266.0 641.4,266.0 642.7,266.0 643.9,266.0 645.2,266.0 646.5,266.0 647.8,266.0 649.0,266.0 650.3,266.0 651.6,266.0 652.8,266.0 654.1,266.0 655.4,266.0 656.7,266.0 657.9,266.0 659.2,266.0 660.5,266.0 661.7,266.0 663.0,266.0 664.3,266.0 665.6,266.0 666.8,266.0 668.1,266.0 669.4,266.0 670.6,266.0 671.9,266.0 673.2,266.0 674.5,266.0 675.7,266.0 677.0,266.0 678.3,266.0 679.5,266.0 680.8,266.0 682.1,266.0 683.4,266.0 684.6,266.0 685.9,258.3 687.2,249.0 688.4,239.7 689.7,230.5 691.0,223.0 692.3,227.8 693.5,237.0 694.8,243.1 696.1,238.6 697.3,237.0 698.6,241.2 699.9,244.4 701.2,245.0 702.4,246.8 703.7,251.3 705.0,255.9 706.2,259.8 707.5,262.9 708.8,264.4 710.1,265.2 711.3,265.6 712.6,265.8 713.9,265.9 715.1,266.0 716.4,266.0 717.7,266.0 719.0,266.0 720.2,266.0 721.5,266.0 722.8,266.0 724.0,266.0 725.3,266.0 726.6,266.0 727.9,266.0 729.1,261.8 730.4,252.5 731.7,243.2 732.9,234.0 734.2,224.7 735.5,215.4 736.8,206.1 738.0,196.9 739.3,187.6 740.6,178.3 741.8,169.0 743.1,178.3 744.4,187.6 745.7,196.9 746.9,206.1 748.2,215.4 749.5,224.7 750.7,234.0 752.0,243.2 753.3,234.0 754.6,224.7 755.8,215.4 757.1,206.1 758.4,196.9 759.6,187.6 760.9,178.3 762.2,169.0 763.5,159.8 764.7,169.0 766.0,178.3"/>
<line x1="606" y1="78" x2="628" y2="78" stroke="#da1e28" stroke-width="2.2"/>
<text x="634" y="82" font-family="Arial" font-size="12">rudder_deg</text>
</svg>