<svg xmlns="http://www.w3.org/2000/svg" width="820" height="320" viewBox="0 0 820 320">
<rect width="100%" height="100%" fill="#ffffff"/>
<text x="54" y="28" font-family="Arial" font-size="18" font-weight="700">Barometer vs Truth</text>
<line x1="54" y1="266" x2="766" y2="266" stroke="#1f2933"/>
<line x1="54" y1="54" x2="54" y2="266" stroke="#1f2933"/>
<text x="54" y="306" font-family="Arial" font-size="12">time (s)</text>
<text x="596" y="306" font-family="Arial" font-size="12">altitude (m)</text>
<text x="58" y="68" font-family="Arial" font-size="11">1.23e+03</text>
<text x="58" y="260" font-family="Arial" font-size="11">502</text>
<polyline fill="none" stroke="#0f62fe" stroke-width="2.2" points="54.0,120.0 55.3,119.9 56.5,119.8 57.8,119.7 59.1,119.6 60.4,119.5 61.6,119.4 62.9,119.3 64.2,119.2 65.4,119.1 66.7,119.0 68.0,118.9 69.3,118.8 70.5,118.7 71.8,118.6 73.1,118.6 74.3,118.5 75.6,118.4 76.9,118.3 78.2,118.2 79.4,118.1 80.7,118.0 82.0,117.9 83.2,117.8 84.5,117.7 85.8,117.6 87.1,117.5 88.3,117.4 89.6,117.3 90.9,117.2 92.1,117.1 93.4,117.0 94.7,117.0 96.0,116.9 97.2,116.8 98.5,116.7 99.8,116.6 101.0,116.5 102.3,116.4 103.6,116.3 104.9,116.2 106.1,116.0 107.4,115.9 108.7,115.8 109.9,115.7 111.2,115.6 112.5,115.5 113.8,115.4 115.0,115.3 116.3,115.2 117.6,115.1 118.8,115.0 120.1,114.9 121.4,114.7 122.7,114.6 123.9,114.5 125.2,114.4 126.5,114.3 127.7,114.2 129.0,114.1 130.3,113.9 131.6,113.8 132.8,113.7 134.1,113.6 135.4,113.5 136.6,113.3 137.9,113.2 139.2,113.1 140.5,113.0 141.7,112.8 143.0,112.7 144.3,112.6 145.5,112.4 146.8,112.3 148.1,112.2 149.4,112.0 150.6,111.9 151.9,111.8 153.2,111.6 154.4,111.5 155.7,111.4 157.0,111.2 158.3,111.1 159.5,110.9 160.8,110.8 162.1,110.6 163.3,110.5 164.6,110.3 165.9,110.2 167.2,110.0 168.4,109.9 169.7,109.7 171.0,109.6 172.2,109.4 173.5,109.3 174.8,109.1 176.1,109.0 177.3,108.8 178.6,108.6 179.9,108.5 181.1,108.3 182.4,108.2 183.7,108.0 185.0,107.8 186.2,107.6 187.5,107.5 188.8,107.3 190.0,107.1 191.3,107.0 192.6,106.8 193.9,106.6 195.1,106.4 196.4,106.3 197.7,106.1 198.9,105.9 200.2,105.7 201.5,105.5 202.8,105.3 204.0,105.2 205.3,105.0 206.6,104.8 207.8,104.6 209.1,104.4 210.4,104.2 211.7,104.0 212.9,103.8 214.2,103.6 215.5,103.4 216.7,103.2 218.0,103.0 219.3,102.8 220.6,102.6 221.8,102.4 223.1,102.2 224.4,102.0 225.6,101.8 226.9,101.6 228.2,101.3 229.5,101.1 230.7,100.9 232.0,100.7 233.3,100.5 234.5,100.3 235.8,100.0 237.1,99.8 238.4,99.6 239.6,99.4 240.9,99.1 242.2,98.9 243.4,98.7 244.7,98.4 246.0,98.2 247.3,98.0 248.5,97.7 249.8,97.5 251.1,97.3 252.3,97.0 253.6,96.8 254.9,96.5 256.2,96.3 257.4,96.0 258.7,95.8 260.0,95.6 261.2,95.3 262.5,95.1 263.8,94.8 265.1,94.5 266.3,94.3 267.6,94.0 268.9,93.8 270.1,93.5 271.4,93.3 272.7,93.0 274.0,92.7 275.2,92.5 276.5,92.2 277.8,91.9 279.0,91.7 280.3,91.4 281.6,91.1 282.9,90.8 284.1,90.6 285.4,90.3 286.7,90.0 287.9,89.7 289.2,89.5 290.5,89.2 291.8,88.9 293.0,88.6 294.3,88.3 295.6,88.0 296.8,87.8 298.1,87.5 299.4,87.2 300.7,86.9 301.9,86.6 303.2,86.3 304.5,86.0 305.7,85.7 307.0,85.4 308.3,85.1 309.6,84.8 310.8,84.5 312.1,84.2 313.4,83.9 314.6,83.6 315.9,83.3 317.2,83.0 318.5,82.7 319.7,82.4 321.0,82.1 322.3,81.8 323.5,81.5 324.8,81.2 326.1,80.9 327.4,80.5 328.6,80.2 329.9,79.9 331.2,79.6 332.4,79.3 333.7,79.0 335.0,78.7 336.3,78.3 337.5,78.0 338.8,77.7 340.1,77.4 341.3,77.1 342.6,76.7 343.9,76.4 345.2,76.1 346.4,75.8 347.7,75.4 349.0,75.1 350.2,74.8 351.5,74.5 352.8,74.1 354.1,73.8 355.3,73.5 356.6,73.1 357.9,72.8 359.1,72.5 360.4,72.2 361.7,71.8 363.0,71.5 364.2,71.2 365.5,70.8 366.8,70.5 368.0,70.2 369.3,69.8 370.6,69.5 371.9,69.2 373.1,68.9 374.4,68.5 375.7,68.2 376.9,67.9 378.2,67.5 379.5,67.2 380.8,66.9 382.0,66.5 383.3,66.2 384.6,65.9 385.8,65.6 387.1,65.3 388.4,64.9 389.7,64.6 390.9,64.3 392.2,64.0 393.5,63.7 394.7,63.4 396.0,63.1 397.3,62.8 398.6,62.5 399.8,62.2 401.1,61.9 402.4,61.7 403.6,61.4 404.9,61.1 406.2,60.8 407.5,60.6 408.7,60.3 410.0,60.1 411.3,59.8 412.5,59.6 413.8,59.3 415.1,59.1 416.4,58.8 417.6,58.6 418.9,58.4 420.2,58.2 421.4,58.0 422.7,57.8 424.0,57.6 425.3,57.4 426.5,57.2 427.8,57.0 429.1,56.8 430.3,56.7 431.6,56.5 432.9,56.3 434.2,56.2 435.4,56.0 436.7,55.9 438.0,55.8 439.2,55.6 440.5,55.5 441.8,55.4 443.1,55.3 444.3,55.2 445.6,55.1 446.9,55.0 448.1,54.9 449.4,54.8 450.7,54.7 452.0,54.7 453.2,54.6 454.5,54.6 455.8,54.5 457.0,54.5 458.3,54.4 459.6,54.4 460.9,54.4 462.1,54.4 463.4,54.4 464.7,54.4 465.9,54.4 467.2,54.4 468.5,54.4 469.8,54.4 471.0,54.5 472.3,54.5 473.6,54.6 474.8,54.6 476.1,54.7 477.4,54.8 478.7,54.9 479.9,54.9 481.2,55.0 482.5,55.1 483.7,55.2 485.0,55.4 486.3,55.5 487.6,55.6 488.8,55.8 490.1,55.9 491.4,56.1 492.6,56.2 493.9,56.4 495.2,56.6 496.5,56.8 497.7,57.0 499.0,57.2 500.3,57.4 501.5,57.6 502.8,57.8 504.1,58.1 505.4,58.3 506.6,58.6 507.9,58.8 509.2,59.1 510.4,59.4 511.7,59.7 513.0,59.9 514.3,60.2 515.5,60.6 516.8,60.9 518.1,61.2 519.3,61.5 520.6,61.9 521.9,62.2 523.2,62.6 524.4,63.0 525.7,63.3 527.0,63.7 528.2,64.1 529.5,64.5 530.8,64.9 532.1,65.4 533.3,65.8 534.6,66.2 535.9,66.7 537.1,67.1 538.4,67.6 539.7,68.0 541.0,68.5 542.2,69.0 543.5,69.5 544.8,70.0 546.0,70.5 547.3,71.1 548.6,71.6 549.9,72.1 551.1,72.7 552.4,73.2 553.7,73.8 554.9,74.4 556.2,75.0 557.5,75.6 558.8,76.2 560.0,76.8 561.3,77.4 562.6,78.0 563.8,78.6 565.1,79.3 566.4,79.9 567.7,80.6 568.9,81.3 570.2,82.0 571.5,82.6 572.7,83.3 574.0,84.0 575.3,84.8 576.6,85.5 577.8,86.2 579.1,87.0 580.4,87.7 581.6,88.5 582.9,89.2 584.2,90.0 585.5,90.8 586.7,91.6 588.0,92.4 589.3,93.2 590.5,94.0 591.8,94.8 593.1,95.7 594.4,96.5 595.6,97.3 596.9,98.2 598.2,99.1 599.4,100.0 600.7,100.8 602.0,101.7 603.3,102.6 604.5,103.5 605.8,104.5 607.1,105.4 608.3,106.3 609.6,107.3 610.9,108.2 612.2,109.2 613.4,110.1 614.7,111.1 616.0,112.1 617.2,113.1 618.5,114.1 619.8,115.1 621.1,116.1 622.3,117.1 623.6,118.1 624.9,119.2 626.1,120.2 627.4,121.3 628.7,122.3 630.0,123.4 631.2,124.5 632.5,125.6 633.8,126.7 635.0,127.7 636.3,128.9 637.6,130.0 638.9,131.1 640.1,132.2 641.4,133.3 642.7,134.5 643.9,135.6 645.2,136.8 646.5,138.0 647.8,139.1 649.0,140.3 650.3,141.5 651.6,142.7 652.8,143.9 654.1,145.1 655.4,146.3 656.7,147.5 657.9,148.7 659.2,149.9 660.5,151.2 661.7,152.4 663.0,153.7 664.3,154.9 665.6,156.2 666.8,157.5 668.1,158.7 669.4,160.0 670.6,161.3 671.9,162.6 673.2,163.9 674.5,165.2 675.7,166.5 677.0,167.8 678.3,169.1 679.5,170.4 680.8,171.8 682.1,173.1 683.4,174.4 684.6,175.8 685.9,177.1 687.2,178.5 688.4,179.9 689.7,181.2 691.0,182.6 692.3,184.0 693.5,185.3 694.8,186.7 696.1,188.1 697.3,189.5 698.6,190.9 699.9,192.3 701.2,193.7 702.4,195.1 703.7,196.5 705.0,197.9 706.2,199.4 707.5,200.8 708.8,202.2 710.1,203.7 711.3,205.1 712.6,206.5 713.9,208.0 715.1,209.4 716.4,210.9 717.7,212.3 719.0,213.8 720.2,215.2 721.5,216.7 722.8,218.1 724.0,219.6 725.3,221.0 726.6,222.4 727.9,223.9 729.1,225.3 730.4,226.7 731.7,228.2 732.9,229.6 734.2,231.0 735.5,232.4 736.8,233.9 738.0,235.3 739.3,236.7 740.6,238.1 741.8,239.5 743.1,240.9 744.4,242.3 745.7,243.8 746.9,245.2 748.2,246.6 749.5,248.0 750.7,249.4 752.0,250.8 753.3,252.1 754.6,253.5 755.8,254.9 757.1,256.3 758.4,257.7 759.6,259.1 760.9,260.4 762.2,261.8 763.5,263.2 764.7,264.6 766.0,265.9"/>
<line x1="606" y1="42" x2="628" y2="42" stroke="#0f62fe" stroke-width="2.2"/>
<text x="634" y="46" font-family="Arial" font-size="12">altitude_m</text>
<polyline fill="none" stroke="#24a148" stroke-width="2.2" points="54.0,120.2 55.3,120.2 56.5,120.0 57.8,120.0 59.1,119.9 60.4,119.9 61.6,119.6 62.9,119.6 64.2,119.4 65.4,119.4 66.7,118.6 68.0,118.6 69.3,118.7 70.5,118.7 71.8,118.4 73.1,118.4 74.3,118.1 75.6,118.1 76.9,118.5 78.2,118.5 79.4,118.3 80.7,118.3 82.0,118.1 83.2,118.1 84.5,117.4 85.8,117.4 87.1,117.9 88.3,117.9 89.6,117.6 90.9,117.6 92.1,116.8 93.4,116.8 94.7,116.5 96.0,116.5 97.2,116.9 98.5,116.9 99.8,116.4 101.0,116.4 102.3,116.5 103.6,116.5 104.9,115.9 106.1,115.9 107.4,115.9 108.7,115.9 109.9,116.0 111.2,116.0 112.5,115.4 113.8,115.4 115.0,115.3 116.3,115.3 117.6,115.1 118.8,115.1 120.1,114.7 121.4,114.7 122.7,114.5 123.9,114.5 125.2,114.5 126.5,114.5 127.7,114.2 129.0,114.2 130.3,113.9 131.6,113.9 132.8,113.9 134.1,113.9 135.4,113.2 136.6,113.2 137.9,113.4 139.2,113.4 140.5,113.0 141.7,113.0 143.0,112.8 144.3,112.8 145.5,112.5 146.8,112.5 148.1,112.2 149.4,112.2 150.6,111.4 151.9,111.4 153.2,111.8 154.4,111.8 155.7,111.6 157.0,111.6 158.3,111.0 159.5,111.0 160.8,111.0 162.1,111.0 163.3,110.6 164.6,110.6 165.9,110.6 167.2,110.6 168.4,110.2 169.7,110.2 171.0,109.5 172.2,109.5 173.5,109.7 174.8,109.7 176.1,109.2 177.3,109.2 178.6,108.3 179.9,108.3 181.1,108.1 182.4,108.1 183.7,108.1 185.0,108.1 186.2,107.3 187.5,107.3 188.8,107.1 190.0,107.1 191.3,107.1 192.6,107.1 193.9,106.5 195.1,106.5 196.4,106.3 197.7,106.3 198.9,106.1 200.2,106.1 201.5,105.9 202.8,105.9 204.0,105.5 205.3,105.5 206.6,105.0 207.8,105.0 209.1,104.4 210.4,104.4 211.7,103.9 212.9,103.9 214.2,103.7 215.5,103.7 216.7,103.2 218.0,103.2 219.3,103.1 220.6,103.1 221.8,102.6 223.1,102.6 224.4,101.9 225.6,101.9 226.9,101.3 228.2,101.3 229.5,101.1 230.7,101.1 232.0,100.9 233.3,100.9 234.5,100.1 235.8,100.1 237.1,99.6 238.4,99.6 239.6,99.4 240.9,99.4 242.2,99.0 243.4,99.0 244.7,98.2 246.0,98.2 247.3,98.2 248.5,98.2 249.8,97.7 251.1,97.7 252.3,97.1 253.6,97.1 254.9,96.5 256.2,96.5 257.4,95.9 258.7,95.9 260.0,95.2 261.2,95.2 262.5,94.8 263.8,94.8 265.1,94.3 266.3,94.3 267.6,93.7 268.9,93.7 270.1,93.4 271.4,93.4 272.7,93.0 274.0,93.0 275.2,92.0 276.5,92.0 277.8,92.3 279.0,92.3 280.3,91.7 281.6,91.7 282.9,91.2 284.1,91.2 285.4,90.4 286.7,90.4 287.9,89.3 289.2,89.3 290.5,89.2 291.8,89.2 293.0,88.6 294.3,88.6 295.6,87.8 296.8,87.8 298.1,87.8 299.4,87.8 300.7,86.9 301.9,86.9 303.2,86.4 304.5,86.4 305.7,85.7 307.0,85.7 308.3,85.0 309.6,85.0 310.8,84.6 312.1,84.6 313.4,83.6 314.6,83.6 315.9,83.2 317.2,83.2 318.5,82.5 319.7,82.5 321.0,82.1 322.3,82.1 323.5,81.7 324.8,81.7 326.1,80.7 327.4,80.7 328.6,80.4 329.9,80.4 331.2,79.8 332.4,79.8 333.7,78.9 335.0,78.9 336.3,78.3 337.5,78.3 338.8,77.8 340.1,77.8 341.3,77.0 342.6,77.0 343.9,76.4 345.2,76.4 346.4,75.4 347.7,75.4 349.0,75.2 350.2,75.2 351.5,74.5 352.8,74.5 354.1,73.7 355.3,73.7 356.6,73.4 357.9,73.4 359.1,72.5 360.4,72.5 361.7,72.2 363.0,72.2 364.2,71.2 365.5,71.2 366.8,70.5 368.0,70.5 369.3,70.0 370.6,70.0 371.9,69.1 373.1,69.1 374.4,68.4 375.7,68.4 376.9,68.0 378.2,68.0 379.5,67.1 380.8,67.1 382.0,66.6 383.3,66.6 384.6,65.9 385.8,65.9 387.1,65.3 388.4,65.3 389.7,64.3 390.9,64.3 392.2,63.7 393.5,63.7 394.7,63.5 396.0,63.5 397.3,62.7 398.6,62.7 399.8,62.2 401.1,62.2 402.4,61.4 403.6,61.4 404.9,61.2 406.2,61.2 407.5,60.7 408.7,60.7 410.0,60.5 411.3,60.5 412.5,59.9 413.8,59.9 415.1,59.3 416.4,59.3 417.6,59.0 418.9,59.0 420.2,58.1 421.4,58.1 422.7,57.8 424.0,57.8 425.3,57.3 426.5,57.3 427.8,56.9 429.1,56.9 430.3,56.5 431.6,56.5 432.9,56.2 434.2,56.2 435.4,56.2 436.7,56.2 438.0,55.9 439.2,55.9 440.5,54.9 441.8,54.9 443.1,55.3 444.3,55.3 445.6,55.1 446.9,55.1 448.1,55.0 449.4,55.0 450.7,54.9 452.0,54.9 453.2,54.8 454.5,54.8 455.8,54.4 457.0,54.4 458.3,54.3 459.6,54.3 460.9,54.0 462.1,54.0 463.4,54.0 464.7,54.0 465.9,54.6 467.2,54.6 468.5,54.8 469.8,54.8 471.0,54.6 472.3,54.6 473.6,54.5 474.8,54.5 476.1,54.8 477.4,54.8 478.7,54.8 479.9,54.8 481.2,54.9 482.5,54.9 483.7,55.4 485.0,55.4 486.3,55.5 487.6,55.5 488.8,56.1 490.1,56.1 491.4,56.2 492.6,56.2 493.9,56.1 495.2,56.1 496.5,56.6 497.7,56.6 499.0,56.8 500.3,56.8 501.5,57.8 502.8,57.8 504.1,57.9 505.4,57.9 506.6,58.7 507.9,58.7 509.2,59.4 510.4,59.4 511.7,60.2 513.0,60.2 514.3,60.3 515.5,60.3 516.8,61.2 518.1,61.2 519.3,61.8 520.6,61.8 521.9,62.3 523.2,62.3 524.4,62.5 525.7,62.5 527.0,63.7 528.2,63.7 529.5,64.6 530.8,64.6 532.1,66.0 533.3,66.0 534.6,66.1 535.9,66.1 537.1,66.9 538.4,66.9 539.7,68.1 541.0,68.1 542.2,69.1 543.5,69.1 544.8,70.1 546.0,70.1 547.3,71.3 548.6,71.3 549.9,71.9 551.1,71.9 552.4,72.9 553.7,72.9 554.9,74.1 556.2,74.1 557.5,75.8 558.8,75.8 560.0,76.7 561.3,76.7 562.6,78.0 563.8,78.0 565.1,79.1 566.4,79.1 567.7,80.6 568.9,80.6 570.2,81.8 571.5,81.8 572.7,83.2 574.0,83.2 575.3,84.8 576.6,84.8 577.8,86.3 579.1,86.3 580.4,87.6 581.6,87.6 582.9,89.1 584.2,89.1 585.5,90.8 586.7,90.8 588.0,92.4 589.3,92.4 590.5,93.7 591.8,93.7 593.1,95.8 594.4,95.8 595.6,97.4 596.9,97.4 598.2,98.9 599.4,98.9 600.7,100.7 602.0,100.7 603.3,102.6 604.5,102.6 605.8,104.3 607.1,104.3 608.3,106.2 609.6,106.2 610.9,108.1 612.2,108.1 613.4,110.0 614.7,110.0 616.0,112.3 617.2,112.3 618.5,113.8 619.8,113.8 621.1,116.2 622.3,116.2 623.6,118.4 624.9,118.4 626.1,120.2 627.4,120.2 628.7,122.5 630.0,122.5 631.2,124.6 632.5,124.6 633.8,126.4 635.0,126.4 636.3,129.0 637.6,129.0 638.9,131.1 640.1,131.1 641.4,133.2 642.7,133.2 643.9,135.5 645.2,135.5 646.5,138.4 647.8,138.4 649.0,140.2 650.3,140.2 651.6,143.0 652.8,143.0 654.1,145.1 655.4,145.1 656.7,147.5 657.9,147.5 659.2,150.0 660.5,150.0 661.7,152.7 663.0,152.7 664.3,155.3 665.6,155.3 666.8,157.0 668.1,157.0 669.4,160.2 670.6,160.2 671.9,162.5 673.2,162.5 674.5,165.6 675.7,165.6 677.0,167.5 678.3,167.5 679.5,170.4 680.8,170.4 682.1,172.8 683.4,172.8 684.6,175.6 685.9,175.6 687.2,178.6 688.4,178.6 689.7,181.5 691.0,181.5 692.3,184.2 693.5,184.2 694.8,186.4 696.1,186.4 697.3,189.8 698.6,189.8 699.9,192.1 701.2,192.1 702.4,195.0 703.7,195.0 705.0,198.3 706.2,198.3 707.5,200.8 708.8,200.8 710.1,203.6 711.3,203.6 712.6,206.5 713.9,206.5 715.1,209.3 716.4,209.3 717.7,211.9 719.0,211.9 720.2,215.5 721.5,215.5 722.8,218.4 724.0,218.4 725.3,221.2 726.6,221.2 727.9,223.8 729.1,223.8 730.4,226.5 731.7,226.5 732.9,229.7 734.2,229.7 735.5,232.3 736.8,232.3 738.0,235.0 739.3,235.0 740.6,238.0 741.8,238.0 743.1,240.8 744.4,240.8 745.7,244.0 746.9,244.0 748.2,246.6 749.5,246.6 750.7,249.2 752.0,249.2 753.3,252.3 754.6,252.3 755.8,254.9 757.1,254.9 758.4,257.8 759.6,257.8 760.9,260.6 762.2,260.6 763.5,263.1 764.7,263.1 766.0,266.0"/>
<line x1="606" y1="60" x2="628" y2="60" stroke="#24a148" stroke-width="2.2"/>
<text x="634" y="64" font-family="Arial" font-size="12">baro_alt_m</text>
</svg>