<svg xmlns="http://www.w3.org/2000/svg" width="820" height="320" viewBox="0 0 820 320">
<rect width="100%" height="100%" fill="#ffffff"/>
<text x="54" y="28" font-family="Arial" font-size="18" font-weight="700">Pitch Command Tracking</text>
<line x1="54" y1="266" x2="766" y2="266" stroke="#1f2933"/>
<line x1="54" y1="54" x2="54" y2="266" stroke="#1f2933"/>
<text x="54" y="306" font-family="Arial" font-size="12">time (s)</text>
<text x="596" y="306" font-family="Arial" font-size="12">pitch (deg)</text>
<text x="58" y="68" font-family="Arial" font-size="11">26</text>
<text x="58" y="260" font-family="Arial" font-size="11">-88.4</text>
<polyline fill="none" stroke="#0f62fe" stroke-width="2.2" points="54.0,54.0 55.3,54.0 56.5,54.0 57.8,54.0 59.1,54.0 60.4,54.0 61.6,54.0 62.9,54.0 64.2,54.0 65.4,54.0 66.7,54.0 68.0,54.0 69.3,54.0 70.5,54.0 71.8,54.0 73.1,54.0 74.3,54.0 75.6,54.0 76.9,54.0 78.2,54.0 79.4,54.0 80.7,54.0 82.0,54.0 83.2,54.0 84.5,54.0 85.8,54.0 87.1,54.0 88.3,54.0 89.6,54.0 90.9,54.0 92.1,54.0 93.4,54.0 94.7,54.0 96.0,54.0 97.2,54.0 98.5,54.0 99.8,54.0 101.0,54.0 102.3,54.0 103.6,54.0 104.9,54.0 106.1,54.0 107.4,54.0 108.7,54.0 109.9,54.0 111.2,54.0 112.5,54.0 113.8,54.0 115.0,54.0 116.3,54.0 117.6,54.0 118.8,54.0 120.1,54.0 121.4,54.0 122.7,54.0 123.9,54.0 125.2,54.0 126.5,54.0 127.7,54.0 129.0,54.0 130.3,54.0 131.6,54.0 132.8,54.0 134.1,54.0 135.4,54.0 136.6,54.0 137.9,54.0 139.2,54.0 140.5,54.0 141.7,54.0 143.0,54.0 144.3,54.0 145.5,54.0 146.8,54.0 148.1,54.0 149.4,54.0 150.6,54.0 151.9,54.0 153.2,54.0 154.4,54.0 155.7,54.0 157.0,54.0 158.3,54.0 159.5,54.0 160.8,54.0 162.1,54.0 163.3,54.0 164.6,54.0 165.9,54.0 167.2,54.0 168.4,54.0 169.7,54.0 171.0,54.0 172.2,54.0 173.5,54.0 174.8,54.0 176.1,54.0 177.3,54.0 178.6,54.0 179.9,54.0 181.1,54.0 182.4,54.0 183.7,54.0 185.0,54.0 186.2,54.0 187.5,54.0 188.8,54.0 190.0,54.0 191.3,54.0 192.6,54.0 193.9,54.0 195.1,54.0 196.4,54.0 197.7,54.0 198.9,54.0 200.2,54.0 201.5,54.0 202.8,54.0 204.0,54.0 205.3,54.0 206.6,54.0 207.8,54.0 209.1,54.0 210.4,54.0 211.7,54.0 212.9,54.0 214.2,54.0 215.5,54.0 216.7,54.0 218.0,54.0 219.3,54.0 220.6,54.0 221.8,54.0 223.1,54.0 224.4,54.0 225.6,54.0 226.9,54.0 228.2,54.0 229.5,54.0 230.7,54.0 232.0,54.0 233.3,54.0 234.5,54.0 235.8,54.0 237.1,54.0 238.4,54.0 239.6,54.0 240.9,54.0 242.2,54.0 243.4,54.0 244.7,54.0 246.0,54.0 247.3,54.0 248.5,54.0 249.8,54.0 251.1,54.0 252.3,54.0 253.6,54.0 254.9,54.0 256.2,54.0 257.4,54.0 258.7,54.0 260.0,54.0 261.2,54.0 262.5,54.0 263.8,54.0 265.1,54.0 266.3,54.0 267.6,54.0 268.9,54.0 270.1,54.0 271.4,54.0 272.7,54.0 274.0,54.0 275.2,54.0 276.5,54.0 277.8,54.0 279.0,54.0 280.3,54.0 281.6,54.0 282.9,54.0 284.1,54.0 285.4,54.0 286.7,54.0 287.9,54.0 289.2,54.0 290.5,54.0 291.8,54.0 293.0,54.0 294.3,54.0 295.6,54.0 296.8,54.0 298.1,54.0 299.4,54.0 300.7,54.0 301.9,54.0 303.2,54.0 304.5,54.0 305.7,54.0 307.0,54.0 308.3,54.0 309.6,54.0 310.8,54.0 312.1,54.0 313.4,54.0 314.6,54.0 315.9,54.0 317.2,54.0 318.5,54.0 319.7,54.0 321.0,54.0 322.3,54.0 323.5,54.0 324.8,54.0 326.1,54.0 327.4,54.0 328.6,54.0 329.9,54.0 331.2,54.0 332.4,54.0 333.7,54.0 335.0,54.0 336.3,54.0 337.5,54.0 338.8,54.0 340.1,54.0 341.3,54.0 342.6,54.0 343.9,54.0 345.2,54.0 346.4,54.0 347.7,54.0 349.0,54.0 350.2,54.0 351.5,54.0 352.8,54.0 354.1,54.0 355.3,54.0 356.6,54.0 357.9,54.0 359.1,54.0 360.4,54.0 361.7,54.0 363.0,54.0 364.2,54.0 365.5,54.0 366.8,54.0 368.0,54.0 369.3,54.0 370.6,54.0 371.9,54.0 373.1,54.0 374.4,54.0 375.7,54.0 376.9,54.0 378.2,54.0 379.5,54.0 380.8,54.0 382.0,54.0 383.3,54.0 384.6,54.0 385.8,54.0 387.1,54.0 388.4,54.0 389.7,54.0 390.9,54.0 392.2,54.0 393.5,54.0 394.7,54.0 396.0,54.0 397.3,54.0 398.6,54.0 399.8,54.0 401.1,54.0 402.4,54.0 403.6,54.0 404.9,54.0 406.2,54.0 407.5,54.0 408.7,54.0 410.0,54.0 411.3,54.0 412.5,54.0 413.8,54.0 415.1,54.0 416.4,54.0 417.6,54.0 418.9,54.0 420.2,54.0 421.4,54.0 422.7,54.0 424.0,54.0 425.3,54.0 426.5,54.0 427.8,54.0 429.1,54.0 430.3,54.0 431.6,54.0 432.9,54.0 434.2,54.0 435.4,54.0 436.7,54.0 438.0,54.0 439.2,54.0 440.5,54.0 441.8,54.0 443.1,54.0 444.3,54.0 445.6,54.0 446.9,54.0 448.1,54.0 449.4,54.0 450.7,54.0 452.0,54.0 453.2,54.0 454.5,54.0 455.8,54.0 457.0,54.0 458.3,54.0 459.6,54.0 460.9,54.0 462.1,54.0 463.4,54.0 464.7,54.0 465.9,54.0 467.2,54.0 468.5,54.0 469.8,54.0 471.0,54.0 472.3,54.0 473.6,54.0 474.8,54.0 476.1,54.0 477.4,54.0 478.7,54.0 479.9,54.0 481.2,54.0 482.5,54.0 483.7,54.0 485.0,54.0 486.3,54.0 487.6,54.0 488.8,54.0 490.1,54.0 491.4,54.0 492.6,54.0 493.9,54.0 495.2,54.0 496.5,54.0 497.7,54.0 499.0,54.0 500.3,54.0 501.5,54.0 502.8,54.0 504.1,54.0 505.4,54.0 506.6,54.0 507.9,54.0 509.2,54.0 510.4,54.0 511.7,54.0 513.0,54.0 514.3,54.0 515.5,54.0 516.8,54.0 518.1,54.0 519.3,54.0 520.6,54.0 521.9,54.0 523.2,54.0 524.4,54.0 525.7,54.0 527.0,54.0 528.2,54.0 529.5,54.0 530.8,54.0 532.1,54.0 533.3,54.0 534.6,54.0 535.9,54.0 537.1,54.0 538.4,54.0 539.7,54.0 541.0,54.0 542.2,54.0 543.5,54.0 544.8,54.0 546.0,54.0 547.3,54.0 548.6,54.0 549.9,54.0 551.1,54.0 552.4,54.0 553.7,54.0 554.9,54.0 556.2,54.0 557.5,54.0 558.8,54.0 560.0,54.0 561.3,54.0 562.6,54.0 563.8,54.0 565.1,54.0 566.4,54.0 567.7,54.0 568.9,54.0 570.2,54.0 571.5,54.0 572.7,54.0 574.0,54.0 575.3,54.0 576.6,54.0 577.8,54.0 579.1,54.0 580.4,54.0 581.6,54.0 582.9,54.0 584.2,54.0 585.5,54.0 586.7,54.0 588.0,54.0 589.3,54.0 590.5,54.0 591.8,54.0 593.1,54.0 594.4,54.0 595.6,54.0 596.9,54.0 598.2,54.0 599.4,54.0 600.7,54.0 602.0,54.0 603.3,54.0 604.5,54.0 605.8,54.0 607.1,54.0 608.3,54.0 609.6,54.0 610.9,54.0 612.2,54.0 613.4,54.0 614.7,54.0 616.0,54.0 617.2,54.0 618.5,54.0 619.8,54.0 621.1,54.0 622.3,54.0 623.6,54.0 624.9,54.0 626.1,54.0 627.4,54.0 628.7,54.0 630.0,54.0 631.2,54.0 632.5,54.0 633.8,54.0 635.0,54.0 636.3,54.0 637.6,54.0 638.9,54.0 640.1,54.0 641.4,54.0 642.7,54.0 643.9,54.0 645.2,54.0 646.5,54.0 647.8,54.0 649.0,54.0 650.3,54.0 651.6,54.0 652.8,54.0 654.1,54.0 655.4,54.0 656.7,54.0 657.9,54.0 659.2,54.0 660.5,54.0 661.7,54.0 663.0,54.0 664.3,54.0 665.6,54.0 666.8,54.0 668.1,54.0 669.4,54.0 670.6,54.0 671.9,54.0 673.2,54.0 674.5,54.0 675.7,54.0 677.0,54.0 678.3,54.0 679.5,54.0 680.8,54.0 682.1,54.0 683.4,54.0 684.6,54.0 685.9,54.0 687.2,54.0 688.4,54.0 689.7,54.0 691.0,54.0 692.3,54.0 693.5,54.0 694.8,54.0 696.1,54.0 697.3,54.0 698.6,54.0 699.9,54.0 701.2,54.0 702.4,54.0 703.7,54.0 705.0,54.0 706.2,54.0 707.5,54.0 708.8,54.0 710.1,54.0 711.3,54.0 712.6,54.0 713.9,54.0 715.1,54.0 716.4,54.0 717.7,54.0 719.0,54.0 720.2,54.0 721.5,54.0 722.8,54.0 724.0,54.0 725.3,54.0 726.6,54.0 727.9,54.0 729.1,54.0 730.4,54.0 731.7,54.0 732.9,54.0 734.2,54.0 735.5,54.0 736.8,54.0 738.0,54.0 739.3,54.0 740.6,54.0 741.8,54.0 743.1,54.0 744.4,54.0 745.7,54.0 746.9,54.0 748.2,54.0 749.5,54.0 750.7,54.0 752.0,54.0 753.3,54.0 754.6,54.0 755.8,54.0 757.1,54.0 758.4,54.0 759.6,54.0 760.9,54.0 762.2,54.0 763.5,54.0 764.7,54.0 766.0,54.0"/>
<line x1="606" y1="42" x2="628" y2="42" stroke="#0f62fe" stroke-width="2.2"/>
<text x="634" y="46" font-family="Arial" font-size="12">pitch_command_deg</text>
<polyline fill="none" stroke="#24a148" stroke-width="2.2" points="54.0,87.4 55.3,87.1 56.5,86.6 57.8,85.7 59.1,84.5 60.4,83.3 61.6,82.3 62.9,81.6 64.2,81.1 65.4,80.6 66.7,80.1 68.0,79.5 69.3,79.0 70.5,78.6 71.8,78.3 73.1,77.9 74.3,77.6 75.6,77.4 76.9,77.1 78.2,76.9 79.4,76.7 80.7,76.5 82.0,76.3 83.2,76.2 84.5,76.0 85.8,75.9 87.1,75.8 88.3,75.7 89.6,75.6 90.9,75.5 92.1,75.4 93.4,75.3 94.7,75.3 96.0,75.2 97.2,75.1 98.5,75.1 99.8,75.0 101.0,75.0 102.3,74.9 103.6,74.8 104.9,74.8 106.1,74.7 107.4,74.7 108.7,74.6 109.9,74.5 111.2,74.5 112.5,74.4 113.8,74.4 115.0,74.3 116.3,74.3 117.6,74.2 118.8,74.2 120.1,74.1 121.4,74.1 122.7,74.0 123.9,74.0 125.2,73.9 126.5,73.9 127.7,73.8 129.0,73.8 130.3,73.7 131.6,73.7 132.8,73.7 134.1,73.6 135.4,73.6 136.6,73.5 137.9,73.5 139.2,73.4 140.5,73.4 141.7,73.3 143.0,73.3 144.3,73.2 145.5,73.2 146.8,73.1 148.1,73.1 149.4,73.0 150.6,73.0 151.9,72.9 153.2,72.8 154.4,72.8 155.7,72.7 157.0,72.7 158.3,72.6 159.5,72.6 160.8,72.5 162.1,72.5 163.3,72.4 164.6,72.3 165.9,72.3 167.2,72.2 168.4,72.2 169.7,72.1 171.0,72.1 172.2,72.0 173.5,71.9 174.8,71.9 176.1,71.8 177.3,71.7 178.6,71.6 179.9,71.5 181.1,71.4 182.4,71.3 183.7,71.2 185.0,71.1 186.2,71.0 187.5,70.9 188.8,70.8 190.0,70.7 191.3,70.6 192.6,70.5 193.9,70.4 195.1,70.3 196.4,70.2 197.7,70.1 198.9,70.0 200.2,69.9 201.5,69.8 202.8,69.7 204.0,69.6 205.3,69.5 206.6,69.4 207.8,69.4 209.1,69.3 210.4,69.2 211.7,69.1 212.9,69.0 214.2,68.9 215.5,68.8 216.7,68.6 218.0,68.5 219.3,68.3 220.6,68.2 221.8,68.0 223.1,67.8 224.4,67.6 225.6,67.5 226.9,67.3 228.2,67.1 229.5,66.9 230.7,66.7 232.0,66.6 233.3,66.4 234.5,66.3 235.8,66.1 237.1,66.0 238.4,65.9 239.6,65.9 240.9,65.8 242.2,65.8 243.4,65.7 244.7,65.7 246.0,65.7 247.3,65.6 248.5,65.6 249.8,65.6 251.1,65.5 252.3,65.4 253.6,65.3 254.9,65.2 256.2,65.1 257.4,65.0 258.7,64.8 260.0,64.6 261.2,64.4 262.5,64.3 263.8,64.1 265.1,63.9 266.3,63.7 267.6,63.5 268.9,63.4 270.1,63.2 271.4,63.1 272.7,63.0 274.0,63.0 275.2,63.0 276.5,62.9 277.8,62.9 279.0,63.0 280.3,63.0 281.6,63.0 282.9,63.1 284.1,63.1 285.4,63.1 286.7,63.1 287.9,63.1 289.2,63.0 290.5,63.0 291.8,62.9 293.0,62.8 294.3,62.6 295.6,62.5 296.8,62.3 298.1,62.1 299.4,62.0 300.7,61.8 301.9,61.6 303.2,61.5 304.5,61.4 305.7,61.3 307.0,61.3 308.3,61.3 309.6,61.3 310.8,61.3 312.1,61.4 313.4,61.5 314.6,61.6 315.9,61.7 317.2,61.7 318.5,61.8 319.7,61.9 321.0,61.9 322.3,61.9 323.5,61.9 324.8,61.9 326.1,61.8 327.4,61.7 328.6,61.6 329.9,61.5 331.2,61.4 332.4,61.2 333.7,61.1 335.0,61.0 336.3,60.9 337.5,60.9 338.8,60.9 340.1,60.9 341.3,61.0 342.6,61.0 343.9,61.2 345.2,61.3 346.4,61.5 347.7,61.6 349.0,61.8 350.2,61.9 351.5,62.1 352.8,62.2 354.1,62.3 355.3,62.4 356.6,62.4 357.9,62.4 359.1,62.4 360.4,62.4 361.7,62.4 363.0,62.4 364.2,62.5 365.5,62.6 366.8,62.7 368.0,62.9 369.3,63.2 370.6,63.6 371.9,64.0 373.1,64.6 374.4,65.3 375.7,66.1 376.9,67.0 378.2,68.2 379.5,69.5 380.8,71.1 382.0,72.7 383.3,74.4 384.6,76.0 385.8,77.4 387.1,78.6 388.4,79.7 389.7,80.7 390.9,81.6 392.2,82.5 393.5,83.5 394.7,84.5 396.0,85.7 397.3,87.1 398.6,88.4 399.8,89.8 401.1,91.2 402.4,92.5 403.6,93.7 404.9,94.9 406.2,96.0 407.5,97.2 408.7,98.3 410.0,99.4 411.3,100.6 412.5,101.7 413.8,102.9 415.1,104.1 416.4,105.3 417.6,106.4 418.9,107.4 420.2,108.3 421.4,109.0 422.7,109.6 424.0,110.0 425.3,110.3 426.5,110.5 427.8,110.5 429.1,110.5 430.3,110.5 431.6,110.5 432.9,110.5 434.2,110.6 435.4,110.8 436.7,111.2 438.0,111.6 439.2,112.2 440.5,113.0 441.8,113.9 443.1,114.8 444.3,115.9 445.6,117.0 446.9,118.1 448.1,119.1 449.4,120.1 450.7,121.0 452.0,121.8 453.2,122.5 454.5,123.0 455.8,123.5 457.0,123.8 458.3,124.0 459.6,124.2 460.9,124.3 462.1,124.4 463.4,124.6 464.7,124.8 465.9,125.1 467.2,125.5 468.5,126.0 469.8,126.7 471.0,127.4 472.3,128.3 473.6,129.2 474.8,130.2 476.1,131.3 477.4,132.3 478.7,133.3 479.9,134.3 481.2,135.2 482.5,136.0 483.7,136.7 485.0,137.3 486.3,137.9 487.6,138.3 488.8,138.6 490.1,138.9 491.4,139.2 492.6,139.4 493.9,139.7 495.2,140.1 496.5,140.5 497.7,140.9 499.0,141.5 500.3,142.2 501.5,142.9 502.8,143.8 504.1,144.7 505.4,145.6 506.6,146.6 507.9,147.6 509.2,148.6 510.4,149.6 511.7,150.4 513.0,151.3 514.3,152.0 515.5,152.6 516.8,153.2 518.1,153.7 519.3,154.1 520.6,154.5 521.9,154.9 523.2,155.3 524.4,155.7 525.7,156.1 527.0,156.6 528.2,157.2 529.5,157.8 530.8,158.5 532.1,159.3 533.3,160.1 534.6,161.0 535.9,161.9 537.1,162.9 538.4,163.8 539.7,164.8 541.0,165.6 542.2,166.5 543.5,167.3 544.8,168.0 546.0,168.7 547.3,169.3 548.6,169.8 549.9,170.3 551.1,170.8 552.4,171.3 553.7,171.8 554.9,172.3 556.2,172.8 557.5,173.4 558.8,174.0 560.0,174.7 561.3,175.4 562.6,176.2 563.8,177.0 565.1,177.9 566.4,178.8 567.7,179.7 568.9,180.6 570.2,181.4 571.5,182.3 572.7,183.1 574.0,183.8 575.3,184.5 576.6,185.2 577.8,185.8 579.1,186.4 580.4,187.0 581.6,187.5 582.9,188.1 584.2,188.6 585.5,189.2 586.7,189.8 588.0,190.5 589.3,191.2 590.5,191.9 591.8,192.6 593.1,193.4 594.4,194.3 595.6,195.1 596.9,195.9 598.2,196.8 599.4,197.6 600.7,198.4 602.0,199.2 603.3,199.9 604.5,200.6 605.8,201.3 607.1,202.0 608.3,202.6 609.6,203.2 610.9,203.8 612.2,204.4 613.4,205.1 614.7,205.7 616.0,206.3 617.2,207.0 618.5,207.7 619.8,208.4 621.1,209.2 622.3,210.0 623.6,210.7 624.9,211.5 626.1,212.3 627.4,213.1 628.7,213.8 630.0,214.6 631.2,215.3 632.5,216.0 633.8,216.7 635.0,217.3 636.3,218.0 637.6,218.7 638.9,219.3 640.1,220.0 641.4,220.6 642.7,221.3 643.9,222.0 645.2,222.7 646.5,223.4 647.8,224.0 649.0,224.8 650.3,225.5 651.6,226.2 652.8,226.9 654.1,227.5 655.4,228.2 656.7,228.9 657.9,229.5 659.2,230.2 660.5,230.8 661.7,231.5 663.0,232.2 664.3,232.9 665.6,233.8 666.8,234.7 668.1,235.7 669.4,236.8 670.6,237.9 671.9,239.0 673.2,240.1 674.5,241.0 675.7,241.8 677.0,242.5 678.3,243.0 679.5,243.5 680.8,244.0 682.1,244.5 683.4,245.0 684.6,245.6 685.9,246.2 687.2,246.9 688.4,247.4 689.7,247.7 691.0,247.9 692.3,248.0 693.5,248.1 694.8,248.1 696.1,248.1 697.3,248.2 698.6,248.4 699.9,248.8 701.2,249.4 702.4,250.2 703.7,251.2 705.0,252.4 706.2,253.8 707.5,255.3 708.8,256.8 710.1,258.5 711.3,260.2 712.6,261.9 713.9,263.5 715.1,265.0 716.4,266.0 717.7,266.0 719.0,265.1 720.2,263.8 721.5,262.7 722.8,261.7 724.0,260.9 725.3,260.5 726.6,260.5 727.9,260.8 729.1,261.5 730.4,262.4 731.7,263.2 732.9,263.7 734.2,263.8 735.5,263.6 736.8,263.2 738.0,262.8 739.3,262.6 740.6,262.5 741.8,262.2 743.1,261.5 744.4,260.2 745.7,258.6 746.9,256.8 748.2,255.2 749.5,253.9 750.7,253.2 752.0,252.9 753.3,253.2 754.6,253.5 755.8,253.8 757.1,253.6 758.4,253.1 759.6,252.4 760.9,251.5 762.2,250.9 763.5,250.3 764.7,249.9 766.0,249.4"/>
<line x1="606" y1="60" x2="628" y2="60" stroke="#24a148" stroke-width="2.2"/>
<text x="634" y="64" font-family="Arial" font-size="12">pitch_deg</text>
</svg>