<svg xmlns="http://www.w3.org/2000/svg" width="820" height="320" viewBox="0 0 820 320">
<rect width="100%" height="100%" fill="#ffffff"/>
<text x="54" y="28" font-family="Arial" font-size="18" font-weight="700">Specific Energy</text>
<line x1="54" y1="266" x2="766" y2="266" stroke="#1f2933"/>
<line x1="54" y1="54" x2="54" y2="266" stroke="#1f2933"/>
<text x="54" y="306" font-family="Arial" font-size="12">time (s)</text>
<text x="596" y="306" font-family="Arial" font-size="12">J/kg</text>
<text x="58" y="68" font-family="Arial" font-size="11">3.04e+04</text>
<text x="58" y="260" font-family="Arial" font-size="11">1.41e+04</text>
<polyline fill="none" stroke="#0f62fe" stroke-width="2.2" points="54.0,266.0 55.3,265.5 56.5,264.9 57.8,264.3 59.1,263.8 60.4,263.2 61.6,262.6 62.9,262.0 64.2,261.4 65.4,260.8 66.7,260.2 68.0,259.5 69.3,258.9 70.5,258.3 71.8,257.6 73.1,256.9 74.3,256.3 75.6,255.6 76.9,254.9 78.2,254.2 79.4,253.6 80.7,252.9 82.0,252.2 83.2,251.5 84.5,250.8 85.8,250.2 87.1,249.5 88.3,248.8 89.6,248.1 90.9,247.5 92.1,246.8 93.4,246.1 94.7,245.4 96.0,244.8 97.2,244.1 98.5,243.4 99.8,242.7 101.0,242.1 102.3,241.4 103.6,240.7 104.9,240.0 106.1,239.3 107.4,238.6 108.7,237.9 109.9,237.2 111.2,236.5 112.5,235.8 113.8,235.1 115.0,234.4 116.3,233.7 117.6,232.9 118.8,232.2 120.1,231.5 121.4,230.8 122.7,230.0 123.9,229.3 125.2,228.6 126.5,227.8 127.7,227.1 129.0,226.4 130.3,225.6 131.6,224.9 132.8,224.1 134.1,223.4 135.4,222.7 136.6,221.9 137.9,221.2 139.2,220.4 140.5,219.7 141.7,218.9 143.0,218.2 144.3,217.4 145.5,216.7 146.8,216.0 148.1,215.2 149.4,214.5 150.6,213.7 151.9,213.0 153.2,212.2 154.4,211.4 155.7,210.7 157.0,209.9 158.3,209.1 159.5,208.4 160.8,207.6 162.1,206.8 163.3,206.0 164.6,205.3 165.9,204.5 167.2,203.7 168.4,202.9 169.7,202.1 171.0,201.3 172.2,200.5 173.5,199.7 174.8,198.9 176.1,198.1 177.3,197.3 178.6,196.5 179.9,195.6 181.1,194.8 182.4,194.0 183.7,193.2 185.0,192.4 186.2,191.6 187.5,190.8 188.8,189.9 190.0,189.1 191.3,188.3 192.6,187.5 193.9,186.7 195.1,185.8 196.4,185.0 197.7,184.2 198.9,183.4 200.2,182.5 201.5,181.7 202.8,180.9 204.0,180.0 205.3,179.2 206.6,178.3 207.8,177.5 209.1,176.6 210.4,175.8 211.7,174.9 212.9,174.1 214.2,173.2 215.5,172.3 216.7,171.5 218.0,170.6 219.3,169.8 220.6,168.9 221.8,168.0 223.1,167.2 224.4,166.3 225.6,165.4 226.9,164.5 228.2,163.7 229.5,162.8 230.7,161.9 232.0,161.0 233.3,160.1 234.5,159.2 235.8,158.3 237.1,157.5 238.4,156.6 239.6,155.7 240.9,154.8 242.2,153.9 243.4,153.0 244.7,152.1 246.0,151.2 247.3,150.3 248.5,149.4 249.8,148.5 251.1,147.6 252.3,146.7 253.6,145.8 254.9,144.9 256.2,144.0 257.4,143.1 258.7,142.2 260.0,141.3 261.2,140.4 262.5,139.4 263.8,138.5 265.1,137.6 266.3,136.7 267.6,135.7 268.9,134.8 270.1,133.9 271.4,132.9 272.7,132.0 274.0,131.0 275.2,130.1 276.5,129.2 277.8,128.2 279.0,127.3 280.3,126.3 281.6,125.4 282.9,124.5 284.1,123.5 285.4,122.6 286.7,121.7 287.9,120.8 289.2,119.8 290.5,118.9 291.8,118.0 293.0,117.0 294.3,116.1 295.6,115.2 296.8,114.2 298.1,113.3 299.4,112.3 300.7,111.4 301.9,110.4 303.2,109.4 304.5,108.5 305.7,107.5 307.0,106.5 308.3,105.5 309.6,104.6 310.8,103.6 312.1,102.6 313.4,101.7 314.6,100.7 315.9,99.8 317.2,98.8 318.5,97.9 319.7,96.9 321.0,96.0 322.3,95.1 323.5,94.1 324.8,93.2 326.1,92.3 327.4,91.3 328.6,90.4 329.9,89.5 331.2,88.5 332.4,87.5 333.7,86.6 335.0,85.6 336.3,84.7 337.5,83.7 338.8,82.7 340.1,81.7 341.3,80.8 342.6,79.8 343.9,78.9 345.2,77.9 346.4,77.0 347.7,76.0 349.0,75.1 350.2,74.2 351.5,73.3 352.8,72.4 354.1,71.6 355.3,70.7 356.6,69.8 357.9,68.9 359.1,68.1 360.4,67.2 361.7,66.3 363.0,65.5 364.2,64.6 365.5,63.7 366.8,62.9 368.0,62.0 369.3,61.2 370.6,60.3 371.9,59.6 373.1,58.8 374.4,58.1 375.7,57.4 376.9,56.8 378.2,56.3 379.5,55.9 380.8,55.6 382.0,55.5 383.3,55.5 384.6,55.7 385.8,55.8 387.1,56.0 388.4,56.1 389.7,56.1 390.9,56.1 392.2,56.0 393.5,55.9 394.7,55.8 396.0,55.7 397.3,55.5 398.6,55.5 399.8,55.4 401.1,55.4 402.4,55.4 403.6,55.4 404.9,55.5 406.2,55.5 407.5,55.4 408.7,55.4 410.0,55.4 411.3,55.3 412.5,55.3 413.8,55.2 415.1,55.2 416.4,55.2 417.6,55.2 418.9,55.2 420.2,55.2 421.4,55.2 422.7,55.2 424.0,55.2 425.3,55.2 426.5,55.2 427.8,55.2 429.1,55.2 430.3,55.1 431.6,55.1 432.9,55.1 434.2,55.0 435.4,55.0 436.7,54.9 438.0,54.9 439.2,54.9 440.5,54.8 441.8,54.8 443.1,54.8 444.3,54.7 445.6,54.7 446.9,54.7 448.1,54.7 449.4,54.6 450.7,54.6 452.0,54.6 453.2,54.6 454.5,54.6 455.8,54.6 457.0,54.6 458.3,54.6 459.6,54.5 460.9,54.5 462.1,54.5 463.4,54.4 464.7,54.4 465.9,54.4 467.2,54.3 468.5,54.3 469.8,54.3 471.0,54.2 472.3,54.2 473.6,54.2 474.8,54.1 476.1,54.1 477.4,54.1 478.7,54.1 479.9,54.1 481.2,54.1 482.5,54.1 483.7,54.1 485.0,54.1 486.3,54.1 487.6,54.1 488.8,54.1 490.1,54.1 491.4,54.1 492.6,54.1 493.9,54.1 495.2,54.1 496.5,54.1 497.7,54.0 499.0,54.0 500.3,54.0 501.5,54.0 502.8,54.0 504.1,54.0 505.4,54.0 506.6,54.0 507.9,54.0 509.2,54.0 510.4,54.1 511.7,54.1 513.0,54.1 514.3,54.1 515.5,54.2 516.8,54.2 518.1,54.2 519.3,54.3 520.6,54.3 521.9,54.3 523.2,54.3 524.4,54.4 525.7,54.4 527.0,54.4 528.2,54.4 529.5,54.5 530.8,54.5 532.1,54.5 533.3,54.5 534.6,54.6 535.9,54.6 537.1,54.7 538.4,54.7 539.7,54.8 541.0,54.8 542.2,54.9 543.5,54.9 544.8,55.0 546.0,55.1 547.3,55.2 548.6,55.2 549.9,55.3 551.1,55.4 552.4,55.4 553.7,55.5 554.9,55.6 556.2,55.6 557.5,55.7 558.8,55.8 560.0,55.8 561.3,55.9 562.6,56.0 563.8,56.1 565.1,56.1 566.4,56.2 567.7,56.3 568.9,56.4 570.2,56.5 571.5,56.6 572.7,56.8 574.0,56.9 575.3,57.0 576.6,57.1 577.8,57.2 579.1,57.3 580.4,57.5 581.6,57.6 582.9,57.7 584.2,57.8 585.5,57.9 586.7,58.1 588.0,58.2 589.3,58.3 590.5,58.4 591.8,58.6 593.1,58.7 594.4,58.8 595.6,59.0 596.9,59.1 598.2,59.3 599.4,59.4 600.7,59.6 602.0,59.8 603.3,60.0 604.5,60.1 605.8,60.3 607.1,60.5 608.3,60.7 609.6,60.8 610.9,61.0 612.2,61.2 613.4,61.4 614.7,61.6 616.0,61.7 617.2,61.9 618.5,62.1 619.8,62.3 621.1,62.5 622.3,62.7 623.6,62.9 624.9,63.1 626.1,63.3 627.4,63.5 628.7,63.8 630.0,64.0 631.2,64.2 632.5,64.5 633.8,64.7 635.0,65.0 636.3,65.2 637.6,65.5 638.9,65.7 640.1,65.9 641.4,66.2 642.7,66.4 643.9,66.7 645.2,66.9 646.5,67.2 647.8,67.5 649.0,67.7 650.3,68.0 651.6,68.3 652.8,68.5 654.1,68.8 655.4,69.1 656.7,69.4 657.9,69.7 659.2,70.0 660.5,70.3 661.7,70.6 663.0,70.9 664.3,71.2 665.6,71.5 666.8,71.7 668.1,72.0 669.4,72.2 670.6,72.5 671.9,72.8 673.2,73.1 674.5,73.4 675.7,73.7 677.0,74.1 678.3,74.5 679.5,74.8 680.8,75.2 682.1,75.6 683.4,76.0 684.6,76.4 685.9,76.8 687.2,77.2 688.4,77.5 689.7,78.0 691.0,78.4 692.3,78.8 693.5,79.3 694.8,79.7 696.1,80.1 697.3,80.5 698.6,80.9 699.9,81.2 701.2,81.6 702.4,81.9 703.7,82.2 705.0,82.5 706.2,82.9 707.5,83.2 708.8,83.5 710.1,83.9 711.3,84.2 712.6,84.6 713.9,85.0 715.1,85.4 716.4,85.8 717.7,87.9 719.0,90.0 720.2,92.0 721.5,94.1 722.8,96.2 724.0,98.2 725.3,100.3 726.6,102.3 727.9,104.3 729.1,106.2 730.4,108.2 731.7,110.2 732.9,112.1 734.2,114.1 735.5,116.0 736.8,118.0 738.0,119.9 739.3,121.8 740.6,123.7 741.8,125.5 743.1,127.3 744.4,129.1 745.7,130.8 746.9,132.5 748.2,134.2 749.5,136.0 750.7,137.7 752.0,139.5 753.3,141.2 754.6,143.0 755.8,144.7 757.1,146.4 758.4,148.1 759.6,149.8 760.9,151.5 762.2,153.1 763.5,154.8 764.7,156.5 766.0,158.1"/>
<line x1="606" y1="42" x2="628" y2="42" stroke="#0f62fe" stroke-width="2.2"/>
<text x="634" y="46" font-family="Arial" font-size="12">energy_j_per_kg</text>
</svg>