<svg xmlns="http://www.w3.org/2000/svg" width="820" height="320" viewBox="0 0 820 320">
<rect width="100%" height="100%" fill="#ffffff"/>
<text x="54" y="28" font-family="Arial" font-size="18" font-weight="700">Qbar/Load Envelope</text>
<line x1="54" y1="266" x2="766" y2="266" stroke="#1f2933"/>
<line x1="54" y1="54" x2="54" y2="266" stroke="#1f2933"/>
<text x="54" y="306" font-family="Arial" font-size="12">qbar (Pa)</text>
<text x="596" y="306" font-family="Arial" font-size="12">load factor (g)</text>
<text x="58" y="68" font-family="Arial" font-size="11">6.03</text>
<text x="58" y="260" font-family="Arial" font-size="11">1.83</text>
<polyline fill="none" stroke="#0f62fe" stroke-width="2.2" points="54.0,266.0 55.5,264.5 57.1,263.0 58.8,261.9 60.4,260.9 62.1,259.6 63.8,258.3 65.5,257.0 67.3,255.7 69.0,254.3 70.8,252.9 72.7,251.4 74.5,249.9 76.4,248.4 78.3,246.9 80.2,245.4 82.2,243.9 84.2,243.8 86.2,243.7 88.1,243.6 90.1,243.5 92.1,243.4 94.1,243.2 96.1,243.1 98.0,243.0 100.0,242.8 102.0,242.7 104.0,242.5 105.9,242.4 107.9,242.3 109.9,242.1 111.8,242.0 113.8,241.9 115.7,241.8 117.7,241.7 119.7,241.6 121.7,241.5 123.6,241.5 125.6,241.5 127.6,241.5 129.6,241.5 131.6,241.5 133.6,241.5 135.6,241.5 137.6,241.5 139.7,241.5 141.7,241.5 143.8,241.5 145.9,241.5 147.9,241.5 150.0,241.5 152.1,241.5 154.2,241.4 156.3,241.4 158.4,241.3 160.5,241.3 162.6,241.2 164.8,241.2 166.9,241.1 169.0,241.1 171.1,241.0 173.3,240.9 175.4,240.8 177.5,240.8 179.7,240.7 181.8,240.6 183.9,240.5 186.1,240.3 188.2,240.2 190.3,240.1 192.5,240.0 194.6,239.9 196.7,239.9 198.9,239.8 201.0,239.7 203.1,239.7 205.3,239.7 207.4,239.7 209.6,239.7 211.7,239.8 213.9,239.8 216.1,239.9 218.2,239.9 220.4,240.0 222.6,240.0 224.8,240.1 227.0,240.1 229.3,240.1 231.5,240.1 233.7,240.1 236.0,240.1 238.2,240.1 240.5,240.0 242.8,240.0 245.0,240.0 247.3,240.0 249.6,240.0 251.8,240.0 254.1,240.0 256.4,240.0 258.7,240.0 260.9,240.0 263.2,240.0 265.5,240.0 267.8,239.9 270.1,239.9 272.3,239.9 274.6,239.9 276.9,239.9 279.2,239.9 281.5,239.9 283.8,240.0 286.1,240.0 288.4,240.1 290.7,240.1 293.0,240.1 295.3,240.1 297.6,240.1 300.0,240.1 302.3,240.1 304.7,240.0 307.0,240.0 309.4,239.9 311.7,239.8 314.1,239.7 316.4,239.7 318.8,239.6 321.2,239.6 323.5,239.6 325.9,239.7 328.3,239.8 330.7,239.9 333.0,240.1 335.4,240.2 337.8,240.4 340.2,240.6 342.6,240.8 345.0,240.9 347.4,241.1 349.8,241.2 352.2,241.3 354.7,241.4 357.1,241.5 359.5,241.5 361.9,241.4 364.4,241.4 366.8,241.2 369.2,241.1 371.6,240.9 374.1,240.6 376.5,240.3 378.9,240.0 381.4,239.7 383.8,239.4 386.2,239.1 388.6,239.0 391.0,238.8 393.4,238.8 395.9,238.9 398.3,239.0 400.7,239.3 403.1,239.6 405.6,240.0 408.0,240.4 410.5,240.8 412.9,241.3 415.4,241.7 417.9,242.0 420.4,242.3 422.9,242.5 425.4,242.6 427.9,242.7 430.4,242.7 432.9,242.6 435.4,242.3 437.9,242.0 440.4,241.6 442.9,241.1 445.3,240.6 447.8,240.0 450.3,239.4 452.7,238.9 455.2,238.4 457.6,238.1 460.1,237.8 462.5,237.7 464.9,237.8 467.4,238.1 469.8,238.5 472.2,239.0 474.7,239.6 477.2,240.2 479.6,240.9 482.1,241.5 484.7,242.0 487.2,242.5 489.7,242.8 492.2,243.0 494.8,243.0 497.3,242.9 499.9,242.7 502.4,242.2 504.9,241.6 507.4,240.9 509.9,240.1 512.4,239.1 514.9,238.1 517.3,237.1 519.8,236.2 522.2,235.5 524.6,234.9 527.0,234.5 529.3,234.4 531.7,234.5 534.1,234.8 536.5,235.4 538.9,236.1 541.3,236.8 543.7,237.6 546.2,238.3 548.6,238.9 551.1,239.4 553.6,239.6 556.1,239.7 558.6,239.4 561.0,238.9 563.5,238.2 565.9,237.1 568.4,235.8 570.8,234.3 573.2,232.6 575.5,230.7 577.8,228.8 580.1,227.0 582.3,225.4 584.6,224.0 586.7,222.8 588.9,222.1 591.1,221.6 593.2,221.5 595.4,221.6 597.5,222.0 599.7,222.4 601.8,222.4 604.0,221.8 606.1,220.6 608.2,218.8 610.3,216.3 612.4,212.9 614.4,208.6 616.3,203.2 618.1,196.5 619.7,188.1 621.3,177.8 622.6,165.1 623.7,150.0 624.4,142.4 624.7,134.1 624.5,126.5 623.9,121.1 623.0,118.6 622.0,119.0 621.0,121.8 620.2,125.7 619.5,129.8 619.1,133.2 618.9,135.4 618.8,136.3 618.7,135.9 618.6,134.5 618.5,132.7 618.2,130.7 617.9,129.0 617.5,127.9 617.0,127.5 616.5,127.7 616.1,128.4 615.6,129.3 615.3,130.1 614.9,130.8 614.7,131.1 614.4,131.1 614.1,130.8 613.9,130.3 613.6,129.6 613.3,129.0 612.9,128.5 612.6,128.1 612.2,128.0 611.9,128.1 611.5,128.4 611.2,128.7 610.9,129.1 610.6,129.5 610.4,129.9 610.2,130.1 610.0,130.3 609.9,130.3 609.7,130.3 609.6,130.3 609.5,130.2 609.4,130.1 609.3,130.0 609.2,130.0 609.1,129.8 609.0,129.7 609.0,129.5 608.9,129.3 608.8,129.0 608.7,128.8 608.7,128.5 608.6,128.2 608.5,128.1 608.4,128.0 608.4,127.9 608.3,128.0 608.3,128.1 608.3,128.2 608.3,128.4 608.3,128.6 608.3,128.7 608.4,128.8 608.5,128.8 608.6,128.8 608.8,128.8 608.9,128.7 609.0,128.6 609.2,128.4 609.4,128.2 609.5,128.0 609.7,127.7 609.8,127.4 610.0,127.1 610.2,126.8 610.3,126.5 610.5,126.3 610.6,126.1 610.8,125.9 610.9,125.8 611.1,125.8 611.3,125.8 611.5,125.9 611.7,126.0 612.0,126.1 612.3,126.1 612.5,126.1 612.8,126.1 613.2,126.1 613.5,126.0 613.9,125.8 614.2,125.6 614.6,125.4 614.9,125.2 615.3,124.9 615.7,124.6 616.1,124.2 616.5,123.9 616.8,123.6 617.2,123.2 617.6,122.9 617.9,122.7 618.3,122.4 618.7,122.3 619.1,122.2 619.5,122.2 619.9,122.1 620.4,122.1 620.8,122.1 621.3,122.1 621.8,122.1 622.3,122.0 622.9,121.8 623.4,121.7 624.0,121.5 624.5,121.2 625.1,120.9 625.7,120.6 626.3,120.3 626.8,119.9 627.4,119.5 628.0,119.1 628.6,118.8 629.2,118.4 629.8,118.0 630.3,117.7 630.9,117.5 631.5,117.3 632.1,117.1 632.7,117.0 633.4,116.9 634.0,116.8 634.7,116.7 635.4,116.6 636.1,116.5 636.8,116.3 637.5,116.1 638.2,115.9 639.0,115.6 639.7,115.3 640.5,115.0 641.3,114.6 642.1,114.2 642.8,113.8 643.6,113.3 644.4,112.9 645.1,112.5 645.9,112.0 646.7,111.7 647.4,111.3 648.2,111.0 649.0,110.8 649.8,110.6 650.6,110.4 651.4,110.3 652.2,110.1 653.1,110.0 653.9,109.8 654.8,109.6 655.7,109.3 656.6,109.0 657.5,108.7 658.4,108.3 659.3,108.0 660.3,107.5 661.2,107.1 662.1,106.6 663.0,106.2 664.0,105.7 664.9,105.2 665.8,104.8 666.7,104.3 667.6,104.0 668.6,103.6 669.5,103.3 670.4,103.0 671.4,102.8 672.3,102.6 673.3,102.4 674.3,102.2 675.2,101.9 676.3,101.7 677.3,101.4 678.3,101.0 679.3,100.7 680.4,100.3 681.4,99.8 682.4,99.4 683.5,98.9 684.5,98.4 685.6,97.9 686.6,97.4 687.6,96.9 688.7,96.4 689.7,95.9 690.7,95.5 691.7,95.1 692.8,94.8 693.8,94.5 694.8,94.2 695.9,94.0 696.9,93.7 698.0,93.4 699.1,93.2 700.2,92.8 701.3,92.5 702.4,92.1 703.5,91.7 704.6,91.3 705.7,90.8 706.8,90.3 707.9,89.8 709.0,89.3 710.1,88.7 711.2,88.2 712.3,87.7 713.4,87.2 714.5,86.9 715.6,86.7 716.7,86.9 717.8,87.2 718.9,87.8 720.2,88.3 721.4,88.5 722.7,88.3 724.0,87.6 725.3,86.6 726.6,85.2 727.8,83.7 729.0,82.2 730.1,80.9 731.1,79.7 732.2,78.7 733.2,78.0 734.1,77.6 735.1,77.5 736.1,77.5 737.2,77.5 738.2,77.2 739.2,76.5 740.3,75.4 741.3,74.1 742.2,73.1 743.1,72.8 744.0,73.3 744.9,74.2 745.9,75.0 747.0,76.0 748.2,77.2 749.4,78.2 750.7,78.8 752.0,79.0 753.4,78.9 754.7,78.4 756.1,77.6 757.5,76.7 758.8,75.7 760.1,74.6 761.3,73.6 762.6,72.6 763.7,71.6 764.9,70.5 766.0,54.6 761.8,54.3 757.7,54.0 753.5,54.0 749.3,54.3 745.0,55.2 740.9,56.6 736.7,58.4 732.6,60.5 728.6,62.6 724.7,64.3 720.7,65.3 716.9,65.7 713.0,65.7 709.0,65.7 705.1,66.3 701.2,67.6 697.3,70.0 693.4,73.3 689.7,77.1 686.1,81.1 682.7,84.8 679.4,87.2 676.2,88.0 673.0,87.3 669.7,86.0 666.4,84.8 663.1,84.3 659.7,85.0 656.3,86.8 653.0,88.8 649.7,90.5 646.5,91.6 643.2,92.2 640.0,92.6 636.8,93.4 633.6,94.9 630.4,97.2 627.4,100.6 624.4,103.3"/>
<line x1="606" y1="42" x2="628" y2="42" stroke="#0f62fe" stroke-width="2.2"/>
<text x="634" y="46" font-family="Arial" font-size="12">load_factor_g</text>
</svg>