<svg xmlns="http://www.w3.org/2000/svg" width="820" height="320" viewBox="0 0 820 320">
<rect width="100%" height="100%" fill="#ffffff"/>
<text x="54" y="28" font-family="Arial" font-size="18" font-weight="700">Horizon Pitch</text>
<line x1="54" y1="266" x2="766" y2="266" stroke="#1f2933"/>
<line x1="54" y1="54" x2="54" y2="266" stroke="#1f2933"/>
<text x="54" y="306" font-family="Arial" font-size="12">time (s)</text>
<text x="596" y="306" font-family="Arial" font-size="12">pitch (deg)</text>
<text x="58" y="68" font-family="Arial" font-size="11">85.9</text>
<text x="58" y="260" font-family="Arial" font-size="11">-86.9</text>
<polyline fill="none" stroke="#0f62fe" stroke-width="2.2" points="54.0,150.8 55.2,150.5 56.4,150.0 57.6,149.6 58.7,149.2 59.9,149.0 61.1,148.9 62.3,148.8 63.5,148.7 64.7,148.6 65.9,148.5 67.1,148.6 68.2,148.6 69.4,148.7 70.6,148.7 71.8,148.8 73.0,148.9 74.2,149.1 75.4,149.4 76.5,149.6 77.7,149.8 78.9,150.1 80.1,150.4 81.3,150.6 82.5,150.9 83.7,151.2 84.9,151.5 86.0,151.7 87.2,151.8 88.4,151.9 89.6,152.0 90.8,152.0 92.0,152.0 93.2,152.0 94.3,151.9 95.5,151.7 96.7,151.5 97.9,151.2 99.1,151.0 100.3,150.7 101.5,150.4 102.7,150.1 103.8,149.7 105.0,149.3 106.2,148.9 107.4,148.4 108.6,148.0 109.8,147.5 111.0,147.1 112.1,146.6 113.3,146.3 114.5,146.0 115.7,145.8 116.9,145.9 118.1,146.3 119.3,147.2 120.5,148.8 121.6,151.3 122.8,155.0 124.0,159.8 125.2,165.8 126.4,173.2 127.6,182.0 128.8,192.3 129.9,204.0 131.1,216.9 132.3,230.5 133.5,243.8 134.7,253.5 135.9,250.8 137.1,237.5 138.3,220.6 139.4,201.9 140.6,182.9 141.8,164.8 143.0,148.4 144.2,135.2 145.4,127.2 146.6,125.9 147.7,131.2 148.9,141.9 150.1,156.8 151.3,174.9 152.5,195.8 153.7,218.5 154.9,241.2 156.1,249.9 157.2,229.8 158.4,203.6 159.6,177.3 160.8,152.4 162.0,131.1 163.2,116.3 164.4,111.7 165.5,118.4 166.7,133.2 167.9,152.5 169.1,174.4 170.3,197.6 171.5,220.0 172.7,235.7 173.9,231.6 175.0,210.8 176.2,185.0 177.4,158.4 178.6,133.0 179.8,110.8 181.0,96.1 182.2,95.0 183.3,107.2 184.5,126.0 185.7,147.2 186.9,169.3 188.1,191.3 189.3,211.1 190.5,223.9 191.7,221.7 192.8,205.4 194.0,182.1 195.2,155.9 196.4,129.3 197.6,104.1 198.8,82.8 200.0,75.8 201.1,89.5 202.3,110.8 203.5,134.1 204.7,157.8 205.9,181.1 207.1,202.1 208.3,216.7 209.5,218.0 210.6,205.6 211.8,185.4 213.0,161.9 214.2,137.5 215.4,113.3 216.6,89.8 217.8,67.8 218.9,59.8 220.1,79.2 221.3,100.8 222.5,122.4 223.7,143.6 224.9,164.2 226.1,183.0 227.3,198.2 228.4,206.8 229.6,206.3 230.8,197.2 232.0,182.5 233.2,165.2 234.4,148.1 235.6,132.7 236.7,120.2 237.9,112.0 239.1,109.0 240.3,111.3 241.5,117.5 242.7,125.5 243.9,135.2 245.1,146.5 246.2,159.1 247.4,172.7 248.6,186.7 249.8,199.9 251.0,210.8 252.2,217.7 253.4,219.2 254.5,215.5 255.7,208.0 256.9,198.4 258.1,188.9 259.3,180.2 260.5,172.6 261.7,166.3 262.9,161.1 264.0,157.2 265.2,154.7 266.4,153.6 267.6,153.8 268.8,155.3 270.0,157.6 271.2,160.2 272.3,164.9 273.5,171.2 274.7,179.2 275.9,188.3 277.1,198.3 278.3,208.9 279.5,219.1 280.7,226.5 281.8,227.6 283.0,220.1 284.2,205.5 285.4,187.9 286.6,169.5 287.8,150.9 289.0,132.1 290.1,113.2 291.3,94.6 292.5,77.3 293.7,64.7 294.9,68.4 296.1,82.6 297.3,98.3 298.5,114.0 299.6,129.5 300.8,144.7 302.0,159.4 303.2,173.0 304.4,184.3 305.6,193.1 306.8,197.7 307.9,197.3 309.1,191.9 310.3,182.9 311.5,171.3 312.7,158.0 313.9,143.9 315.1,129.6 316.3,115.6 317.4,102.5 318.6,90.7 319.8,80.7 321.0,74.0 322.2,72.7 323.4,77.1 324.6,84.2 325.7,91.9 326.9,98.7 328.1,104.1 329.3,107.7 330.5,111.4 331.7,114.7 332.9,117.5 334.1,119.8 335.2,121.9 336.4,123.6 337.6,125.1 338.8,126.2 340.0,126.9 341.2,127.0 342.4,126.3 343.5,125.3 344.7,123.9 345.9,122.0 347.1,119.5 348.3,116.1 349.5,112.1 350.7,107.7 351.9,103.1 353.0,98.2 354.2,93.4 355.4,88.0 356.6,82.2 357.8,76.6 359.0,71.9 360.2,69.4 361.3,70.8 362.5,76.1 363.7,84.8 364.9,95.8 366.1,108.4 367.3,121.9 368.5,135.6 369.7,149.2 370.8,162.2 372.0,174.5 373.2,185.1 374.4,192.6 375.6,196.1 376.8,195.5 378.0,191.2 379.1,184.4 380.3,176.1 381.5,167.0 382.7,157.5 383.9,148.3 385.1,139.5 386.3,131.6 387.5,125.1 388.6,120.3 389.8,118.3 391.0,119.6 392.2,124.9 393.4,133.4 394.6,144.6 395.8,157.0 396.9,170.5 398.1,184.9 399.3,199.9 400.5,214.8 401.7,229.0 402.9,241.3 404.1,250.1 405.3,251.7 406.4,245.7 407.6,236.2 408.8,225.8 410.0,215.5 411.2,205.9 412.4,197.6 413.6,190.9 414.7,186.0 415.9,182.7 417.1,181.0 418.3,180.8 419.5,181.5 420.7,182.5 421.9,183.9 423.1,186.1 424.2,189.3 425.4,193.7 426.6,199.4 427.8,206.8 429.0,216.1 430.2,227.5 431.4,240.9 432.5,256.1 433.7,266.0 434.9,252.0 436.1,237.0 437.3,222.0 438.5,207.0 439.7,192.3 440.9,178.4 442.0,165.6 443.2,154.5 444.4,145.7 445.6,139.9 446.8,137.3 448.0,138.0 449.2,141.8 450.3,148.3 451.5,157.2 452.7,168.0 453.9,179.9 455.1,192.6 456.3,205.8 457.5,219.1 458.7,232.1 459.8,243.9 461.0,252.7 462.2,255.0 463.4,250.3 464.6,243.6 465.8,237.5 467.0,232.7 468.1,228.9 469.3,225.9 470.5,223.3 471.7,221.0 472.9,219.0 474.1,217.0 475.3,214.9 476.5,212.2 477.6,208.2 478.8,203.7 480.0,199.0 481.2,194.3 482.4,189.6 483.6,185.1 484.8,180.9 485.9,177.3 487.1,174.4 488.3,171.9 489.5,169.7 490.7,168.6 491.9,168.6 493.1,169.5 494.3,170.8 495.4,172.2 496.6,173.6 497.8,175.4 499.0,177.2 500.2,178.5 501.4,178.7 502.6,177.3 503.7,174.6 504.9,171.0 506.1,166.9 507.3,162.1 508.5,156.6 509.7,150.5 510.9,144.1 512.1,137.4 513.2,130.7 514.4,124.0 515.6,117.5 516.8,111.4 518.0,105.5 519.2,99.2 520.4,92.1 521.5,84.3 522.7,76.2 523.9,69.2 525.1,66.1 526.3,70.4 527.5,80.4 528.7,93.6 529.9,108.8 531.0,124.8 532.2,140.9 533.4,156.1 534.6,169.6 535.8,180.7 537.0,188.7 538.2,192.8 539.3,192.1 540.5,186.6 541.7,176.9 542.9,164.4 544.1,150.2 545.3,135.2 546.5,119.9 547.7,104.7 548.8,90.7 550.0,80.2 551.2,78.0 552.4,86.8 553.6,102.4 554.8,121.0 556.0,141.0 557.1,160.9 558.3,179.7 559.5,196.8 560.7,210.6 561.9,218.9 563.1,219.1 564.3,211.9 565.5,200.5 566.6,187.4 567.8,173.9 569.0,160.7 570.2,148.8 571.4,139.0 572.6,131.7 573.8,127.3 574.9,126.3 576.1,129.2 577.3,136.2 578.5,146.7 579.7,159.9 580.9,175.0 582.1,191.3 583.3,209.0 584.4,227.5 585.6,245.8 586.8,260.1 588.0,253.2 589.2,238.0 590.4,222.9 591.6,208.7 592.7,195.7 593.9,184.5 595.1,175.7 596.3,169.7 597.5,166.5 598.7,166.4 599.9,169.1 601.1,174.2 602.2,181.1 603.4,189.5 604.6,199.0 605.8,209.4 607.0,220.5 608.2,232.0 609.4,243.2 610.5,253.9 611.7,262.5 612.9,259.1 614.1,248.2 615.3,236.5 616.5,225.2 617.7,215.0 618.9,206.4 620.0,199.0 621.2,192.8 622.4,187.9 623.6,184.2 624.8,181.7 626.0,180.0 627.2,180.1 628.3,182.2 629.5,186.3 630.7,192.5 631.9,200.3 633.1,210.0 634.3,221.3 635.5,233.5 636.7,244.2 637.8,246.5 639.0,236.6 640.2,222.0 641.4,206.0 642.6,189.6 643.8,172.9 645.0,156.8 646.1,141.6 647.3,128.2 648.5,117.4 649.7,110.6 650.9,108.7 652.1,111.6 653.3,118.3 654.5,127.9 655.6,139.7 656.8,152.9 658.0,166.4 659.2,179.9 660.4,192.8 661.6,204.4 662.8,213.4 663.9,217.8 665.1,216.9 666.3,211.8 667.5,204.4 668.7,195.8 669.9,186.8 671.1,178.8 672.3,172.5 673.4,168.0 674.6,165.2 675.8,163.6 677.0,162.9 678.2,163.0 679.4,163.9 680.6,165.2 681.7,166.6 682.9,167.5 684.1,167.2 685.3,166.2 686.5,164.6 687.7,162.6 688.9,159.9 690.1,156.4 691.2,152.1 692.4,147.3 693.6,142.3 694.8,137.2 696.0,132.1 697.2,127.0 698.4,121.9 699.5,116.7 700.7,111.0 701.9,104.7 703.1,97.7 704.3,90.0 705.5,81.6 706.7,72.7 707.9,63.4 709.0,54.0 710.2,55.4 711.4,67.6 712.6,81.3 713.8,96.2 715.0,111.6 716.2,127.0 717.3,141.6 718.5,154.9 719.7,166.3 720.9,174.9 722.1,179.8 723.3,179.9 724.5,174.6 725.7,165.0 726.8,152.4 728.0,137.9 729.2,122.6 730.4,107.1 731.6,91.4 732.8,75.7 734.0,60.5 735.1,56.7 736.3,72.1 737.5,89.5 738.7,107.9 739.9,126.7 741.1,144.4 742.3,160.7 743.5,174.9 744.6,186.2 745.8,193.5 747.0,195.4 748.2,191.9 749.4,184.2 750.6,174.1 751.8,162.7 752.9,150.3 754.1,138.0 755.3,126.4 756.5,116.5 757.7,109.0 758.9,104.4 760.1,103.3 761.3,106.1 762.4,112.8 763.6,122.9 764.8,135.8 766.0,150.4"/>
<line x1="606" y1="42" x2="628" y2="42" stroke="#0f62fe" stroke-width="2.2"/>
<text x="634" y="46" font-family="Arial" font-size="12">pitch_deg</text>
<polyline fill="none" stroke="#24a148" stroke-width="2.2" points="54.0,150.7 55.2,150.7 56.4,149.7 57.6,149.7 58.7,149.3 59.9,149.3 61.1,148.7 62.3,148.7 63.5,148.5 64.7,148.5 65.9,148.5 67.1,148.5 68.2,148.5 69.4,148.5 70.6,149.8 71.8,149.8 73.0,148.6 74.2,148.6 75.4,149.6 76.5,149.6 77.7,150.1 78.9,150.1 80.1,151.2 81.3,151.2 82.5,150.6 83.7,150.6 84.9,152.1 86.0,152.1 87.2,152.0 88.4,152.0 89.6,152.8 90.8,152.8 92.0,152.1 93.2,152.1 94.3,152.3 95.5,152.3 96.7,151.7 97.9,151.7 99.1,151.2 100.3,151.2 101.5,149.4 102.7,149.4 103.8,149.1 105.0,149.1 106.2,149.0 107.4,149.0 108.6,148.4 109.8,148.4 111.0,147.7 112.1,147.7 113.3,145.5 114.5,145.5 115.7,145.8 116.9,145.8 118.1,146.4 119.3,146.4 120.5,148.7 121.6,148.7 122.8,148.7 124.0,148.7 125.2,148.7 126.4,148.7 127.6,148.7 128.8,148.7 129.9,148.7 131.1,148.7 132.3,148.7 133.5,148.7 134.7,148.7 135.9,148.7 137.1,237.6 138.3,237.6 139.4,202.1 140.6,202.1 141.8,165.1 143.0,165.1 144.2,165.1 145.4,165.1 146.6,165.1 147.7,165.1 148.9,165.1 150.1,165.1 151.3,165.1 152.5,165.1 153.7,165.1 154.9,165.1 156.1,250.3 157.2,250.3 158.4,203.6 159.6,203.6 160.8,152.1 162.0,152.1 163.2,152.1 164.4,152.1 165.5,152.1 166.7,152.1 167.9,152.1 169.1,152.1 170.3,152.1 171.5,152.1 172.7,235.5 173.9,235.5 175.0,210.6 176.2,210.6 177.4,158.2 178.6,158.2 179.8,158.2 181.0,158.2 182.2,158.2 183.3,158.2 184.5,158.2 185.7,158.2 186.9,158.2 188.1,158.2 189.3,158.2 190.5,158.2 191.7,222.1 192.8,222.1 194.0,182.1 195.2,182.1 196.4,129.3 197.6,129.3 198.8,129.3 200.0,129.3 201.1,129.3 202.3,129.3 203.5,129.3 204.7,129.3 205.9,129.3 207.1,129.3 208.3,217.0 209.5,217.0 210.6,205.0 211.8,205.0 213.0,162.4 214.2,162.4 215.4,114.1 216.6,114.1 217.8,67.7 218.9,67.7 220.1,67.7 221.3,67.7 222.5,67.7 223.7,67.7 224.9,67.7 226.1,67.7 227.3,198.9 228.4,198.9 229.6,206.1 230.8,206.1 232.0,182.1 233.2,182.1 234.4,147.5 235.6,147.5 236.7,119.6 237.9,119.6 239.1,108.6 240.3,108.6 241.5,116.7 242.7,116.7 243.9,135.3 245.1,135.3 246.2,135.3 247.4,135.3 248.6,135.3 249.8,135.3 251.0,135.3 252.2,135.3 253.4,219.9 254.5,219.9 255.7,207.2 256.9,207.2 258.1,188.2 259.3,188.2 260.5,172.7 261.7,172.7 262.9,161.1 264.0,161.1 265.2,161.1 266.4,161.1 267.6,161.1 268.8,161.1 270.0,161.1 271.2,161.1 272.3,161.1 273.5,161.1 274.7,161.1 275.9,161.1 277.1,161.1 278.3,161.1 279.5,161.1 280.7,161.1 281.8,227.0 283.0,227.0 284.2,205.5 285.4,205.5 286.6,169.9 287.8,169.9 289.0,131.9 290.1,131.9 291.3,94.9 292.5,94.9 293.7,94.9 294.9,94.9 296.1,94.9 297.3,94.9 298.5,94.9 299.6,94.9 300.8,94.9 302.0,94.9 303.2,173.2 304.4,173.2 305.6,192.6 306.8,192.6 307.9,197.4 309.1,197.4 310.3,182.8 311.5,182.8 312.7,158.5 313.9,158.5 315.1,128.8 316.3,128.8 317.4,102.8 318.6,102.8 319.8,80.6 321.0,80.6 322.2,73.1 323.4,73.1 324.6,84.8 325.7,84.8 326.9,99.1 328.1,99.1 329.3,107.7 330.5,107.7 331.7,114.2 332.9,114.2 334.1,119.5 335.2,119.5 336.4,119.5 337.6,119.5 338.8,119.5 340.0,119.5 341.2,119.5 342.4,119.5 343.5,119.5 344.7,119.5 345.9,119.5 347.1,119.5 348.3,119.5 349.5,119.5 350.7,119.5 351.9,119.5 353.0,119.5 354.2,119.5 355.4,119.5 356.6,119.5 357.8,119.5 359.0,119.5 360.2,68.6 361.3,68.6 362.5,76.5 363.7,76.5 364.9,95.1 366.1,95.1 367.3,122.2 368.5,122.2 369.7,122.2 370.8,122.2 372.0,122.2 373.2,122.2 374.4,122.2 375.6,122.2 376.8,122.2 378.0,122.2 379.1,122.2 380.3,122.2 381.5,122.2 382.7,122.2 383.9,122.2 385.1,122.2 386.3,131.4 387.5,131.4 388.6,120.4 389.8,120.4 391.0,119.7 392.2,119.7 393.4,133.5 394.6,133.5 395.8,157.5 396.9,157.5 398.1,184.4 399.3,184.4 400.5,184.4 401.7,184.4 402.9,184.4 404.1,184.4 405.3,184.4 406.4,184.4 407.6,235.7 408.8,235.7 410.0,214.8 411.2,214.8 412.4,197.6 413.6,197.6 414.7,186.5 415.9,186.5 417.1,181.7 418.3,181.7 419.5,181.0 420.7,181.0 421.9,181.0 423.1,181.0 424.2,181.0 425.4,181.0 426.6,181.0 427.8,181.0 429.0,181.0 430.2,181.0 431.4,181.0 432.5,181.0 433.7,181.0 434.9,181.0 436.1,237.4 437.3,237.4 438.5,207.3 439.7,207.3 440.9,207.3 442.0,207.3 443.2,207.3 444.4,207.3 445.6,207.3 446.8,207.3 448.0,207.3 449.2,207.3 450.3,207.3 451.5,207.3 452.7,207.3 453.9,207.3 455.1,192.8 456.3,192.8 457.5,219.1 458.7,219.1 459.8,243.6 461.0,243.6 462.2,254.7 463.4,254.7 464.6,254.7 465.8,254.7 467.0,254.7 468.1,254.7 469.3,254.7 470.5,254.7 471.7,254.7 472.9,254.7 474.1,254.7 475.3,254.7 476.5,212.9 477.6,212.9 478.8,203.3 480.0,203.3 481.2,194.0 482.4,194.0 483.6,185.1 484.8,185.1 485.9,177.1 487.1,177.1 488.3,177.1 489.5,177.1 490.7,177.1 491.9,177.1 493.1,177.1 494.3,177.1 495.4,177.1 496.6,177.1 497.8,177.1 499.0,177.1 500.2,177.1 501.4,177.1 502.6,177.0 503.7,177.0 504.9,170.4 506.1,170.4 507.3,162.2 508.5,162.2 509.7,151.1 510.9,151.1 512.1,137.5 513.2,137.5 514.4,137.5 515.6,137.5 516.8,137.5 518.0,137.5 519.2,137.5 520.4,137.5 521.5,137.5 522.7,137.5 523.9,137.5 525.1,137.5 526.3,70.3 527.5,70.3 528.7,93.5 529.9,93.5 531.0,125.5 532.2,125.5 533.4,156.2 534.6,156.2 535.8,156.2 537.0,156.2 538.2,156.2 539.3,156.2 540.5,156.2 541.7,156.2 542.9,156.2 544.1,156.2 545.3,156.2 546.5,156.2 547.7,156.2 548.8,156.2 550.0,80.3 551.2,80.3 552.4,87.0 553.6,87.0 554.8,121.3 556.0,121.3 557.1,121.3 558.3,121.3 559.5,121.3 560.7,121.3 561.9,121.3 563.1,121.3 564.3,121.3 565.5,121.3 566.6,121.3 567.8,121.3 569.0,121.3 570.2,121.3 571.4,138.6 572.6,138.6 573.8,127.5 574.9,127.5 576.1,128.6 577.3,128.6 578.5,147.3 579.7,147.3 580.9,175.7 582.1,175.7 583.3,208.5 584.4,208.5 585.6,208.5 586.8,208.5 588.0,208.5 589.2,208.5 590.4,222.8 591.6,222.8 592.7,195.1 593.9,195.1 595.1,175.6 596.3,175.6 597.5,166.4 598.7,166.4 599.9,169.6 601.1,169.6 602.2,181.7 603.4,181.7 604.6,199.0 605.8,199.0 607.0,199.0 608.2,199.0 609.4,199.0 610.5,199.0 611.7,199.0 612.9,199.0 614.1,248.2 615.3,248.2 616.5,225.4 617.7,225.4 618.9,206.5 620.0,206.5 621.2,192.4 622.4,192.4 623.6,192.4 624.8,192.4 626.0,192.4 627.2,192.4 628.3,192.4 629.5,192.4 630.7,192.4 631.9,192.4 633.1,192.4 634.3,192.4 635.5,192.4 636.7,192.4 637.8,246.4 639.0,246.4 640.2,221.7 641.4,221.7 642.6,189.9 643.8,189.9 645.0,157.2 646.1,157.2 647.3,157.2 648.5,157.2 649.7,157.2 650.9,157.2 652.1,157.2 653.3,157.2 654.5,157.2 655.6,157.2 656.8,157.2 658.0,157.2 659.2,180.7 660.4,180.7 661.6,204.0 662.8,204.0 663.9,217.0 665.1,217.0 666.3,211.5 667.5,211.5 668.7,211.5 669.9,211.5 671.1,211.5 672.3,211.5 673.4,211.5 674.6,211.5 675.8,211.5 677.0,211.5 678.2,211.5 679.4,211.5 680.6,211.5 681.7,211.5 682.9,167.8 684.1,167.8 685.3,166.9 686.5,166.9 687.7,162.5 688.9,162.5 690.1,157.2 691.2,157.2 692.4,147.6 693.6,147.6 694.8,137.9 696.0,137.9 697.2,137.9 698.4,137.9 699.5,137.9 700.7,137.9 701.9,137.9 703.1,137.9 704.3,137.9 705.5,137.9 706.7,137.9 707.9,137.9 709.0,137.9 710.2,137.9 711.4,67.7 712.6,67.7 713.8,96.2 715.0,96.2 716.2,126.3 717.3,126.3 718.5,126.3 719.7,126.3 720.9,126.3 722.1,126.3 723.3,126.3 724.5,126.3 725.7,126.3 726.8,126.3 728.0,126.3 729.2,126.3 730.4,126.3 731.6,126.3 732.8,126.3 734.0,126.3 735.1,126.3 736.3,126.3 737.5,89.9 738.7,89.9 739.9,89.9 741.1,89.9 742.3,89.9 743.5,89.9 744.6,89.9 745.8,89.9 747.0,89.9 748.2,89.9 749.4,89.9 750.6,89.9 751.8,89.9 752.9,89.9 754.1,89.9 755.3,89.9 756.5,116.4 757.7,116.4 758.9,104.8 760.1,104.8 761.3,106.0 762.4,106.0 763.6,122.8 764.8,122.8 766.0,150.4"/>
<line x1="606" y1="60" x2="628" y2="60" stroke="#24a148" stroke-width="2.2"/>
<text x="634" y="64" font-family="Arial" font-size="12">horizon_pitch_deg</text>
</svg>