<svg xmlns="http://www.w3.org/2000/svg" width="820" height="320" viewBox="0 0 820 320">
<rect width="100%" height="100%" fill="#ffffff"/>
<text x="54" y="28" font-family="Arial" font-size="18" font-weight="700">Magnetometer Heading</text>
<line x1="54" y1="266" x2="766" y2="266" stroke="#1f2933"/>
<line x1="54" y1="54" x2="54" y2="266" stroke="#1f2933"/>
<text x="54" y="306" font-family="Arial" font-size="12">time (s)</text>
<text x="596" y="306" font-family="Arial" font-size="12">heading (deg)</text>
<text x="58" y="68" font-family="Arial" font-size="11">180</text>
<text x="58" y="260" font-family="Arial" font-size="11">-179</text>
<polyline fill="none" stroke="#0f62fe" stroke-width="2.2" points="54.0,159.8 55.2,159.9 56.4,160.1 57.6,160.4 58.7,160.7 59.9,161.2 61.1,161.8 62.3,162.4 63.5,163.1 64.7,163.9 65.9,164.8 67.1,165.7 68.2,166.6 69.4,167.6 70.6,168.7 71.8,169.7 73.0,170.8 74.2,171.8 75.4,172.9 76.5,173.9 77.7,174.8 78.9,175.6 80.1,176.3 81.3,176.9 82.5,177.4 83.7,177.7 84.9,177.9 86.0,177.8 87.2,177.7 88.4,177.4 89.6,176.9 90.8,176.2 92.0,175.4 93.2,174.4 94.3,173.3 95.5,172.1 96.7,170.7 97.9,169.2 99.1,167.6 100.3,166.0 101.5,164.4 102.7,162.8 103.8,161.2 105.0,159.7 106.2,158.4 107.4,157.2 108.6,156.2 109.8,155.5 111.0,155.0 112.1,154.8 113.3,155.0 114.5,155.6 115.7,156.5 116.9,157.9 118.1,159.8 119.3,162.2 120.5,165.1 121.6,168.4 122.8,171.8 124.0,175.3 125.2,178.6 126.4,181.9 127.6,185.0 128.8,187.9 129.9,190.3 131.1,191.6 132.3,191.2 133.5,186.2 134.7,168.1 135.9,139.4 137.1,126.9 138.3,124.0 139.4,124.6 140.6,127.2 141.8,131.3 143.0,137.1 144.2,145.1 145.4,155.2 146.6,166.2 147.7,176.6 148.9,185.2 150.1,191.9 151.3,196.7 152.5,199.5 153.7,199.5 154.9,191.5 156.1,155.1 157.2,133.6 158.4,130.5 159.6,132.1 160.8,136.5 162.0,144.0 163.2,155.4 164.4,170.0 165.5,183.6 166.7,193.3 167.9,199.3 169.1,202.3 170.3,202.2 171.5,197.0 172.7,180.4 173.9,155.5 175.0,143.2 176.2,139.6 177.4,139.9 178.6,143.2 179.8,150.6 181.0,164.6 182.2,183.7 183.3,198.1 184.5,205.7 185.7,209.2 186.9,210.0 188.1,207.8 189.3,201.1 190.5,186.8 191.7,167.8 192.8,154.9 194.0,148.7 195.2,146.5 196.4,147.0 197.6,150.7 198.8,162.7 200.0,191.0 201.1,212.4 202.3,219.9 203.5,221.9 204.7,221.1 205.9,217.6 207.1,210.1 208.3,196.4 209.5,177.4 210.6,161.8 211.8,152.0 213.0,145.8 214.2,141.2 215.4,137.0 216.6,131.7 217.8,120.1 218.9,59.4 220.1,248.0 221.3,241.2 222.5,236.2 223.7,231.1 224.9,224.9 226.1,216.8 227.3,205.8 228.4,190.9 229.6,174.5 230.8,159.7 232.0,147.8 233.2,138.0 234.4,129.0 235.6,119.8 236.7,109.4 237.9,97.6 239.1,85.0 240.3,73.1 241.5,63.1 242.7,54.0 243.9,258.0 245.1,250.0 246.2,242.1 247.4,234.1 248.6,225.2 249.8,214.9 251.0,202.8 252.2,188.5 253.4,173.0 254.5,158.4 255.7,145.9 256.9,135.5 258.1,127.0 259.3,119.5 260.5,112.8 261.7,106.7 262.9,101.1 264.0,95.8 265.2,90.9 266.4,86.5 267.6,82.5 268.8,79.3 270.0,76.8 271.2,75.1 272.3,73.6 273.5,72.5 274.7,72.1 275.9,72.6 277.1,74.1 278.3,77.1 279.5,82.8 280.7,92.7 281.8,106.4 283.0,119.2 284.2,127.7 285.4,132.5 286.6,135.3 287.8,136.9 289.0,137.7 290.1,137.7 291.3,136.1 292.5,130.2 293.7,109.2 294.9,74.7 296.1,62.5 297.3,59.1 298.5,58.3 299.6,59.2 300.8,61.5 302.0,65.1 303.2,70.5 304.4,78.0 305.6,87.2 306.8,97.5 307.9,108.3 309.1,118.3 310.3,127.0 311.5,134.5 312.7,141.1 313.9,147.2 315.1,153.0 316.3,159.2 317.4,166.2 318.6,175.2 319.8,186.8 321.0,203.1 322.2,223.1 323.4,240.6 324.6,252.7 325.7,261.4 326.9,55.6 328.1,61.2 329.3,66.0 330.5,71.1 331.7,76.2 332.9,81.1 334.1,85.9 335.2,90.4 336.4,94.9 337.6,99.4 338.8,104.0 340.0,108.7 341.2,113.7 342.4,119.0 343.5,124.4 344.7,130.1 345.9,136.1 347.1,142.7 348.3,149.5 349.5,156.5 350.7,163.3 351.9,169.9 353.0,176.2 354.2,181.9 355.4,186.3 356.6,188.9 357.8,188.9 359.0,185.2 360.2,176.9 361.3,166.3 362.5,158.0 363.7,153.7 364.9,152.3 366.1,152.9 367.3,154.8 368.5,157.5 369.7,160.8 370.8,164.8 372.0,169.7 373.2,176.0 374.4,183.5 375.6,191.9 376.8,200.3 378.0,207.8 379.1,214.1 380.3,219.2 381.5,223.1 382.7,225.8 383.9,227.5 385.1,228.0 386.3,227.2 387.5,225.1 388.6,221.6 389.8,216.7 391.0,211.3 392.2,205.9 393.4,201.4 394.6,198.0 395.8,195.1 396.9,192.9 398.1,191.4 399.3,190.7 400.5,191.2 401.7,193.6 402.9,199.7 404.1,213.5 405.3,235.8 406.4,252.5 407.6,260.7 408.8,264.2 410.0,265.6 411.2,265.6 412.4,265.0 413.6,263.9 414.7,262.7 415.9,261.3 417.1,260.0 418.3,258.9 419.5,258.1 420.7,256.9 421.9,255.1 423.1,253.0 424.2,250.5 425.4,247.6 426.6,244.3 427.8,240.7 429.0,236.7 430.2,232.5 431.4,227.7 432.5,220.5 433.7,151.1 434.9,122.7 436.1,117.5 437.3,114.0 438.5,110.7 439.7,107.2 440.9,103.2 442.0,98.7 443.2,93.4 444.4,87.4 445.6,80.6 446.8,73.5 448.0,66.5 449.2,59.9 450.3,54.0 451.5,261.6 452.7,257.7 453.9,254.7 455.1,252.2 456.3,250.4 457.5,249.5 458.7,250.1 459.8,254.0 461.0,265.5 462.2,74.9 463.4,90.9 464.6,97.2 465.8,99.3 467.0,100.0 468.1,100.5 469.3,101.3 470.5,102.3 471.7,103.5 472.9,104.9 474.1,106.6 475.3,108.7 476.5,111.2 477.6,114.1 478.8,116.6 480.0,118.8 481.2,120.7 482.4,122.5 483.6,124.0 484.8,125.1 485.9,126.2 487.1,127.2 488.3,128.6 489.5,129.9 490.7,130.8 491.9,131.8 493.1,133.1 494.3,134.8 495.4,136.8 496.6,139.1 497.8,141.6 499.0,144.6 500.2,148.3 501.4,152.7 502.6,157.4 503.7,161.8 504.9,166.0 506.1,170.0 507.3,173.8 508.5,177.3 509.7,180.4 510.9,183.1 512.1,185.4 513.2,187.4 514.4,188.6 515.6,189.4 516.8,190.0 518.0,190.5 519.2,191.1 520.4,191.3 521.5,190.5 522.7,187.2 523.9,178.4 525.1,161.2 526.3,143.0 527.5,133.6 528.7,130.2 529.9,129.9 531.0,131.5 532.2,134.3 533.4,138.3 534.6,143.3 535.8,149.6 537.0,157.1 538.2,165.7 539.3,174.9 540.5,183.5 541.7,190.8 542.9,196.5 544.1,200.7 545.3,203.8 546.5,205.5 547.7,205.3 548.8,201.7 550.0,191.7 551.2,174.1 552.4,159.4 553.6,152.4 554.8,149.9 556.0,149.8 557.1,151.3 558.3,154.3 559.5,159.3 560.7,167.2 561.9,179.0 563.1,192.5 564.3,203.7 565.5,211.1 566.6,215.8 567.8,218.4 569.0,219.3 570.2,218.7 571.4,216.6 572.6,213.2 573.8,208.6 574.9,203.1 576.1,197.2 577.3,191.6 578.5,186.8 579.7,183.0 580.9,180.0 582.1,177.6 583.3,175.9 584.4,175.5 585.6,178.7 586.8,203.6 588.0,248.2 589.2,255.7 590.4,256.9 591.6,256.3 592.7,254.6 593.9,252.2 595.1,249.2 596.3,245.8 597.5,242.0 598.7,238.0 599.9,234.1 601.1,230.5 602.2,227.2 603.4,224.3 604.6,221.7 605.8,219.4 607.0,217.7 608.2,216.9 609.4,217.5 610.5,221.7 611.7,243.6 612.9,75.1 614.1,84.9 615.3,86.1 616.5,85.2 617.7,83.4 618.9,81.4 620.0,79.4 621.2,77.4 622.4,75.4 623.6,73.6 624.8,71.9 626.0,70.7 627.2,68.9 628.3,66.8 629.5,64.7 630.7,63.0 631.9,61.6 633.1,60.8 634.3,61.4 635.5,64.9 636.7,76.0 637.8,98.9 639.0,116.0 640.2,123.0 641.4,125.7 642.6,126.5 643.8,126.0 645.0,124.4 646.1,121.5 647.3,117.1 648.5,110.9 649.7,102.8 650.9,93.7 652.1,85.2 653.3,78.3 654.5,73.3 655.6,70.0 656.8,68.6 658.0,68.9 659.2,70.4 660.4,73.3 661.6,78.0 662.8,84.9 663.9,93.9 665.1,103.0 666.3,110.3 667.5,115.2 668.7,118.4 669.9,120.4 671.1,120.9 672.3,120.6 673.4,119.9 674.6,119.2 675.8,119.0 677.0,119.0 678.2,119.5 679.4,120.3 680.6,121.8 681.7,123.9 682.9,126.9 684.1,130.7 685.3,134.5 686.5,138.5 687.7,142.5 688.9,146.7 690.1,150.8 691.2,154.7 692.4,158.2 693.6,161.4 694.8,164.4 696.0,167.3 697.2,169.8 698.4,172.2 699.5,174.6 700.7,177.1 701.9,179.9 703.1,182.9 704.3,186.0 705.5,189.1 706.7,192.0 707.9,194.1 709.0,191.2 710.2,109.4 711.4,107.7 712.6,110.7 713.8,114.6 715.0,119.2 716.2,124.2 717.3,129.7 718.5,135.9 719.7,142.9 720.9,151.0 722.1,160.3 723.3,170.3 724.5,179.8 725.7,188.1 726.8,195.1 728.0,201.0 729.2,206.1 730.4,210.9 731.6,214.9 732.8,217.3 734.0,212.9 735.1,151.2 736.3,138.5 737.5,139.7 738.7,142.8 739.9,146.7 741.1,151.4 742.3,156.7 743.5,163.0 744.6,170.8 745.8,180.1 747.0,190.4 748.2,200.2 749.4,208.4 750.6,214.9 751.8,220.0 752.9,223.6 754.1,225.5 755.3,225.8 756.5,224.4 757.7,221.3 758.9,216.6 760.1,210.7 761.3,204.7 762.4,199.6 763.6,195.9 764.8,193.7 766.0,192.9"/>
<line x1="606" y1="42" x2="628" y2="42" stroke="#0f62fe" stroke-width="2.2"/>
<text x="634" y="46" font-family="Arial" font-size="12">yaw_deg</text>
<polyline fill="none" stroke="#24a148" stroke-width="2.2" points="54.0,159.9 55.2,159.9 56.4,159.9 57.6,159.9 58.7,160.6 59.9,160.6 61.1,161.8 62.3,161.8 63.5,163.0 64.7,163.0 65.9,165.4 67.1,165.4 68.2,166.9 69.4,166.9 70.6,168.2 71.8,168.2 73.0,171.6 74.2,171.6 75.4,173.5 76.5,173.5 77.7,174.7 78.9,174.7 80.1,176.4 81.3,176.4 82.5,176.5 83.7,176.5 84.9,178.3 86.0,178.3 87.2,177.5 88.4,177.5 89.6,177.3 90.8,177.3 92.0,175.3 93.2,175.3 94.3,173.6 95.5,173.6 96.7,170.8 97.9,170.8 99.1,167.2 100.3,167.2 101.5,163.9 102.7,163.9 103.8,160.7 105.0,160.7 106.2,158.6 107.4,158.6 108.6,156.2 109.8,156.2 111.0,155.2 112.1,155.2 113.3,156.4 114.5,156.4 115.7,155.7 116.9,155.7 118.1,160.5 119.3,160.5 120.5,165.8 121.6,165.8 122.8,172.0 124.0,172.0 125.2,178.9 126.4,178.9 127.6,184.9 128.8,184.9 129.9,190.5 131.1,190.5 132.3,191.5 133.5,191.5 134.7,167.9 135.9,167.9 137.1,127.7 138.3,127.7 139.4,123.8 140.6,123.8 141.8,130.9 143.0,130.9 144.2,145.7 145.4,145.7 146.6,165.5 147.7,165.5 148.9,184.9 150.1,184.9 151.3,196.7 152.5,196.7 153.7,200.0 154.9,200.0 156.1,154.4 157.2,154.4 158.4,132.0 159.6,132.0 160.8,136.0 162.0,136.0 163.2,155.5 164.4,155.5 165.5,184.5 166.7,184.5 167.9,198.6 169.1,198.6 170.3,202.6 171.5,202.6 172.7,179.8 173.9,179.8 175.0,143.7 176.2,143.7 177.4,139.3 178.6,139.3 179.8,150.9 181.0,150.9 182.2,183.8 183.3,183.8 184.5,205.4 185.7,205.4 186.9,210.6 188.1,210.6 189.3,202.3 190.5,202.3 191.7,167.0 192.8,167.0 194.0,148.7 195.2,148.7 196.4,147.9 197.6,147.9 198.8,162.1 200.0,162.1 201.1,212.6 202.3,212.6 203.5,221.3 204.7,221.3 205.9,218.6 207.1,218.6 208.3,196.7 209.5,196.7 210.6,162.0 211.8,162.0 213.0,145.7 214.2,145.7 215.4,136.8 216.6,136.8 217.8,120.4 218.9,120.4 220.1,247.8 221.3,247.8 222.5,237.0 223.7,237.0 224.9,224.1 226.1,224.1 227.3,205.4 228.4,205.4 229.6,174.4 230.8,174.4 232.0,147.7 233.2,147.7 234.4,129.2 235.6,129.2 236.7,108.7 237.9,108.7 239.1,85.2 240.3,85.2 241.5,63.0 242.7,63.0 243.9,256.4 245.1,256.4 246.2,242.0 247.4,242.0 248.6,225.8 249.8,225.8 251.0,202.1 252.2,202.1 253.4,172.5 254.5,172.5 255.7,146.3 256.9,146.3 258.1,126.4 259.3,126.4 260.5,113.3 261.7,113.3 262.9,100.9 264.0,100.9 265.2,89.9 266.4,89.9 267.6,81.7 268.8,81.7 270.0,74.5 271.2,74.5 272.3,73.6 273.5,73.6 274.7,72.0 275.9,72.0 277.1,73.3 278.3,73.3 279.5,82.6 280.7,82.6 281.8,107.0 283.0,107.0 284.2,127.6 285.4,127.6 286.6,135.4 287.8,135.4 289.0,137.2 290.1,137.2 291.3,136.0 292.5,136.0 293.7,109.6 294.9,109.6 296.1,62.6 297.3,62.6 298.5,58.0 299.6,58.0 300.8,61.8 302.0,61.8 303.2,70.2 304.4,70.2 305.6,87.9 306.8,87.9 307.9,107.5 309.1,107.5 310.3,126.9 311.5,126.9 312.7,141.6 313.9,141.6 315.1,153.5 316.3,153.5 317.4,165.8 318.6,165.8 319.8,187.3 321.0,187.3 322.2,222.2 323.4,222.2 324.6,252.5 325.7,252.5 326.9,55.1 328.1,55.1 329.3,65.8 330.5,65.8 331.7,75.3 332.9,75.3 334.1,85.8 335.2,85.8 336.4,94.9 337.6,94.9 338.8,104.3 340.0,104.3 341.2,113.5 342.4,113.5 343.5,124.5 344.7,124.5 345.9,136.3 347.1,136.3 348.3,149.0 349.5,149.0 350.7,163.8 351.9,163.8 353.0,176.8 354.2,176.8 355.4,186.0 356.6,186.0 357.8,189.2 359.0,189.2 360.2,175.5 361.3,175.5 362.5,158.8 363.7,158.8 364.9,152.2 366.1,152.2 367.3,154.5 368.5,154.5 369.7,160.9 370.8,160.9 372.0,168.8 373.2,168.8 374.4,183.4 375.6,183.4 376.8,201.0 378.0,201.0 379.1,214.3 380.3,214.3 381.5,223.1 382.7,223.1 383.9,227.2 385.1,227.2 386.3,227.9 387.5,227.9 388.6,222.3 389.8,222.3 391.0,211.3 392.2,211.3 393.4,200.8 394.6,200.8 395.8,196.1 396.9,196.1 398.1,191.7 399.3,191.7 400.5,190.8 401.7,190.8 402.9,200.5 404.1,200.5 405.3,235.6 406.4,235.6 407.6,260.9 408.8,260.9 410.0,266.0 411.2,266.0 412.4,264.6 413.6,264.6 414.7,262.5 415.9,262.5 417.1,259.5 418.3,259.5 419.5,258.0 420.7,258.0 421.9,254.7 423.1,254.7 424.2,249.9 425.4,249.9 426.6,242.8 427.8,242.8 429.0,236.6 430.2,236.6 431.4,227.0 432.5,227.0 433.7,151.0 434.9,151.0 436.1,118.1 437.3,118.1 438.5,109.9 439.7,109.9 440.9,103.5 442.0,103.5 443.2,94.0 444.4,94.0 445.6,81.1 446.8,81.1 448.0,66.5 449.2,66.5 450.3,54.2 451.5,54.2 452.7,257.9 453.9,257.9 455.1,251.7 456.3,251.7 457.5,249.4 458.7,249.4 459.8,254.2 461.0,254.2 462.2,74.7 463.4,74.7 464.6,97.6 465.8,97.6 467.0,99.8 468.1,99.8 469.3,101.3 470.5,101.3 471.7,104.0 472.9,104.0 474.1,107.5 475.3,107.5 476.5,111.2 477.6,111.2 478.8,117.1 480.0,117.1 481.2,121.3 482.4,121.3 483.6,124.1 484.8,124.1 485.9,125.0 487.1,125.0 488.3,128.6 489.5,128.6 490.7,130.9 491.9,130.9 493.1,133.5 494.3,133.5 495.4,137.5 496.6,137.5 497.8,141.9 499.0,141.9 500.2,148.7 501.4,148.7 502.6,156.8 503.7,156.8 504.9,165.3 506.1,165.3 507.3,172.5 508.5,172.5 509.7,181.4 510.9,181.4 512.1,185.8 513.2,185.8 514.4,188.6 515.6,188.6 516.8,189.1 518.0,189.1 519.2,191.6 520.4,191.6 521.5,190.2 522.7,190.2 523.9,178.2 525.1,178.2 526.3,141.9 527.5,141.9 528.7,131.6 529.9,131.6 531.0,132.3 532.2,132.3 533.4,138.6 534.6,138.6 535.8,149.5 537.0,149.5 538.2,165.8 539.3,165.8 540.5,183.4 541.7,183.4 542.9,196.4 544.1,196.4 545.3,203.9 546.5,203.9 547.7,205.4 548.8,205.4 550.0,191.6 551.2,191.6 552.4,158.6 553.6,158.6 554.8,149.8 556.0,149.8 557.1,151.6 558.3,151.6 559.5,159.4 560.7,159.4 561.9,178.6 563.1,178.6 564.3,203.8 565.5,203.8 566.6,216.2 567.8,216.2 569.0,218.5 570.2,218.5 571.4,216.5 572.6,216.5 573.8,209.5 574.9,209.5 576.1,195.9 577.3,195.9 578.5,186.0 579.7,186.0 580.9,180.2 582.1,180.2 583.3,175.8 584.4,175.8 585.6,178.8 586.8,178.8 588.0,248.6 589.2,248.6 590.4,256.5 591.6,256.5 592.7,254.8 593.9,254.8 595.1,248.5 596.3,248.5 597.5,242.4 598.7,242.4 599.9,233.1 601.1,233.1 602.2,228.2 603.4,228.2 604.6,221.4 605.8,221.4 607.0,216.6 608.2,216.6 609.4,218.2 610.5,218.2 611.7,244.2 612.9,244.2 614.1,85.8 615.3,85.8 616.5,85.8 617.7,85.8 618.9,80.6 620.0,80.6 621.2,77.3 622.4,77.3 623.6,74.2 624.8,74.2 626.0,70.9 627.2,70.9 628.3,67.6 629.5,67.6 630.7,62.7 631.9,62.7 633.1,60.3 634.3,60.3 635.5,64.4 636.7,64.4 637.8,98.2 639.0,98.2 640.2,122.9 641.4,122.9 642.6,126.8 643.8,126.8 645.0,124.2 646.1,124.2 647.3,116.4 648.5,116.4 649.7,101.8 650.9,101.8 652.1,85.5 653.3,85.5 654.5,73.4 655.6,73.4 656.8,68.8 658.0,68.8 659.2,70.6 660.4,70.6 661.6,77.6 662.8,77.6 663.9,93.7 665.1,93.7 666.3,110.4 667.5,110.4 668.7,119.2 669.9,119.2 671.1,120.4 672.3,120.4 673.4,119.7 674.6,119.7 675.8,118.4 677.0,118.4 678.2,118.2 679.4,118.2 680.6,122.1 681.7,122.1 682.9,126.9 684.1,126.9 685.3,134.8 686.5,134.8 687.7,142.5 688.9,142.5 690.1,151.4 691.2,151.4 692.4,157.1 693.6,157.1 694.8,164.6 696.0,164.6 697.2,170.2 698.4,170.2 699.5,174.3 700.7,174.3 701.9,181.0 703.1,181.0 704.3,186.0 705.5,186.0 706.7,190.8 707.9,190.8 709.0,191.0 710.2,191.0 711.4,106.8 712.6,106.8 713.8,115.3 715.0,115.3 716.2,123.4 717.3,123.4 718.5,136.2 719.7,136.2 720.9,151.0 722.1,151.0 723.3,169.9 724.5,169.9 725.7,187.7 726.8,187.7 728.0,200.8 729.2,200.8 730.4,210.6 731.6,210.6 732.8,217.9 734.0,217.9 735.1,151.4 736.3,151.4 737.5,139.9 738.7,139.9 739.9,147.0 741.1,147.0 742.3,156.0 743.5,156.0 744.6,171.6 745.8,171.6 747.0,190.3 748.2,190.3 749.4,207.7 750.6,207.7 751.8,219.7 752.9,219.7 754.1,225.8 755.3,225.8 756.5,225.4 757.7,225.4 758.9,218.1 760.1,218.1 761.3,205.1 762.4,205.1 763.6,196.3 764.8,196.3 766.0,193.0"/>
<line x1="606" y1="60" x2="628" y2="60" stroke="#24a148" stroke-width="2.2"/>
<text x="634" y="64" font-family="Arial" font-size="12">mag_heading_deg</text>
</svg>