<svg xmlns="http://www.w3.org/2000/svg" width="820" height="320" viewBox="0 0 820 320">
<rect width="100%" height="100%" fill="#ffffff"/>
<text x="54" y="28" font-family="Arial" font-size="18" font-weight="700">Body Rates</text>
<line x1="54" y1="266" x2="766" y2="266" stroke="#1f2933"/>
<line x1="54" y1="54" x2="54" y2="266" stroke="#1f2933"/>
<text x="54" y="306" font-family="Arial" font-size="12">time (s)</text>
<text x="596" y="306" font-family="Arial" font-size="12">rate (deg/s)</text>
<text x="58" y="68" font-family="Arial" font-size="11">99.8</text>
<text x="58" y="260" font-family="Arial" font-size="11">-520</text>
<polyline fill="none" stroke="#0f62fe" stroke-width="2.2" points="54.0,88.1 58.4,88.1 62.7,88.1 67.1,88.1 71.5,88.1 75.8,88.1 80.2,88.1 84.6,88.1 88.9,88.1 93.3,88.1 97.7,88.1 102.0,88.1 106.4,88.1 110.8,88.1 115.2,88.1 119.5,88.1 123.9,88.1 128.3,88.1 132.6,88.1 137.0,88.1 141.4,88.1 145.7,88.1 150.1,88.2 154.5,88.2 158.8,88.2 163.2,88.2 167.6,88.2 171.9,88.2 176.3,88.2 180.7,88.2 185.0,88.3 189.4,88.3 193.8,88.3 198.1,88.3 202.5,88.3 206.9,88.3 211.3,88.3 215.6,88.4 220.0,88.4 224.4,88.4 228.7,88.4 233.1,88.5 237.5,88.5 241.8,88.5 246.2,88.6 250.6,88.6 254.9,88.7 259.3,88.7 263.7,88.8 268.0,88.9 272.4,89.0 276.8,89.1 281.1,89.2 285.5,89.4 289.9,89.5 294.2,89.7 298.6,89.9 303.0,90.2 307.3,90.5 311.7,90.9 316.1,91.3 320.5,91.7 324.8,92.3 329.2,92.9 333.6,93.6 337.9,94.4 342.3,95.4 346.7,96.5 351.0,97.7 355.4,99.2 359.8,100.9 364.1,102.8 368.5,105.1 372.9,107.6 377.2,110.6 381.6,114.1 386.0,118.2 390.3,122.8 394.7,128.3 399.1,134.3 403.4,140.6 407.8,146.9 412.2,153.3 416.6,159.7 420.9,166.1 425.3,172.6 429.7,179.0 434.0,185.5 438.4,192.1 442.8,198.9 447.1,205.9 451.5,213.3 455.9,221.3 460.2,230.1 464.6,240.0 469.0,251.3 473.3,262.6 477.7,266.0 482.1,266.0 486.4,266.0 490.8,266.0 495.2,266.0 499.5,266.0 503.9,266.0 508.3,266.0 512.7,266.0 517.0,266.0 521.4,266.0 525.8,266.0 530.1,266.0 534.5,266.0 538.9,266.0 543.2,266.0 547.6,266.0 552.0,266.0 556.3,266.0 560.7,266.0 565.1,266.0 569.4,266.0 573.8,266.0 578.2,266.0 582.5,266.0 586.9,266.0 591.3,266.0 595.6,266.0 600.0,266.0 604.4,266.0 608.7,266.0 613.1,265.7 617.5,264.3 621.9,261.7 626.2,260.3 630.6,260.2 635.0,261.7 639.3,264.2 643.7,266.0 648.1,266.0 652.4,266.0 656.8,266.0 661.2,266.0 665.5,266.0 669.9,266.0 674.3,266.0 678.6,264.9 683.0,261.9 687.4,257.2 691.7,253.1 696.1,250.2 700.5,249.1 704.8,250.2 709.2,253.6 713.6,257.8 718.0,262.2 722.3,266.0 726.7,266.0 731.1,266.0 735.4,266.0 739.8,266.0 744.2,265.8 748.5,262.1 752.9,255.3 757.3,247.3 761.6,240.0 766.0,234.5"/>
<line x1="606" y1="42" x2="628" y2="42" stroke="#0f62fe" stroke-width="2.2"/>
<text x="634" y="46" font-family="Arial" font-size="12">p_dps</text>
<polyline fill="none" stroke="#24a148" stroke-width="2.2" points="54.0,88.1 58.4,91.2 62.7,92.4 67.1,91.6 71.5,90.2 75.8,89.2 80.2,88.9 84.6,88.9 88.9,88.8 93.3,88.6 97.7,88.4 102.0,88.2 106.4,88.1 110.8,88.0 115.2,88.0 119.5,87.9 123.9,87.8 128.3,87.8 132.6,87.7 137.0,87.7 141.4,87.7 145.7,87.7 150.1,87.7 154.5,87.6 158.8,87.6 163.2,87.6 167.6,87.6 171.9,87.6 176.3,87.6 180.7,87.6 185.0,87.6 189.4,87.6 193.8,87.6 198.1,87.7 202.5,87.7 206.9,87.7 211.3,87.7 215.6,87.7 220.0,87.7 224.4,87.7 228.7,87.7 233.1,87.7 237.5,87.7 241.8,87.7 246.2,87.7 250.6,87.8 254.9,87.8 259.3,87.8 263.7,87.8 268.0,87.8 272.4,87.8 276.8,87.8 281.1,87.8 285.5,87.8 289.9,87.8 294.2,87.8 298.6,87.8 303.0,87.9 307.3,87.9 311.7,87.9 316.1,87.9 320.5,87.9 324.8,87.9 329.2,87.9 333.6,87.9 337.9,87.9 342.3,88.0 346.7,88.0 351.0,88.0 355.4,88.1 359.8,88.1 364.1,88.2 368.5,88.2 372.9,88.3 377.2,88.5 381.6,88.6 386.0,88.8 390.3,89.1 394.7,89.4 399.1,89.9 403.4,90.5 407.8,91.3 412.2,92.5 416.6,94.1 420.9,96.2 425.3,99.2 429.7,103.4 434.0,109.5 438.4,120.0 442.8,131.3 447.1,142.6 451.5,153.9 455.9,165.2 460.2,176.5 464.6,187.8 469.0,199.1 473.3,210.3 477.7,221.6 482.1,231.4 486.4,239.2 490.8,235.8 495.2,225.9 499.5,237.2 503.9,248.5 508.3,259.8 512.7,266.0 517.0,266.0 521.4,264.8 525.8,253.6 530.1,242.3 534.5,231.0 538.9,228.5 543.2,234.0 547.6,245.3 552.0,256.6 556.3,266.0 560.7,266.0 565.1,266.0 569.4,266.0 573.8,266.0 578.2,266.0 582.5,261.0 586.9,249.7 591.3,238.4 595.6,227.1 600.0,215.8 604.4,204.5 608.7,193.2 613.1,189.3 617.5,193.9 621.9,205.1 626.2,216.4 630.6,227.7 635.0,239.0 639.3,245.0 643.7,241.6 648.1,230.5 652.4,219.2 656.8,207.9 661.2,196.6 665.5,185.3 669.9,174.0 674.3,162.8 678.6,153.9 683.0,154.1 687.4,162.2 691.7,173.5 696.1,184.8 700.5,196.1 704.8,207.4 709.2,217.9 713.6,215.1 718.0,208.2 722.3,196.9 726.7,185.6 731.1,174.3 735.4,163.0 739.8,153.7 744.2,152.9 748.5,159.5 752.9,170.8 757.3,182.1 761.6,193.4 766.0,204.6"/>
<line x1="606" y1="60" x2="628" y2="60" stroke="#24a148" stroke-width="2.2"/>
<text x="634" y="64" font-family="Arial" font-size="12">q_dps</text>
<polyline fill="none" stroke="#da1e28" stroke-width="2.2" points="54.0,88.1 58.4,88.1 62.7,88.2 67.1,88.2 71.5,88.2 75.8,88.2 80.2,88.2 84.6,88.2 88.9,88.2 93.3,88.2 97.7,88.2 102.0,88.2 106.4,88.2 110.8,88.2 115.2,88.2 119.5,88.2 123.9,88.2 128.3,88.2 132.6,88.2 137.0,88.2 141.4,88.2 145.7,88.2 150.1,88.2 154.5,88.2 158.8,88.2 163.2,88.2 167.6,88.2 171.9,88.1 176.3,88.1 180.7,88.1 185.0,88.1 189.4,88.1 193.8,88.1 198.1,88.0 202.5,88.0 206.9,88.0 211.3,88.0 215.6,87.9 220.0,87.9 224.4,87.9 228.7,87.9 233.1,87.9 237.5,87.9 241.8,87.9 246.2,88.0 250.6,88.0 254.9,88.0 259.3,88.0 263.7,88.1 268.0,88.1 272.4,88.1 276.8,88.2 281.1,88.2 285.5,88.2 289.9,88.2 294.2,88.2 298.6,88.2 303.0,88.2 307.3,88.1 311.7,88.1 316.1,88.0 320.5,88.0 324.8,87.9 329.2,87.8 333.6,87.7 337.9,87.6 342.3,87.5 346.7,87.3 351.0,87.1 355.4,86.9 359.8,86.6 364.1,86.4 368.5,86.1 372.9,85.8 377.2,85.4 381.6,85.0 386.0,84.6 390.3,84.1 394.7,83.5 399.1,82.9 403.4,82.1 407.8,81.3 412.2,80.4 416.6,79.3 420.9,78.0 425.3,76.6 429.7,75.0 434.0,73.2 438.4,71.1 442.8,68.7 447.1,66.8 451.5,65.4 455.9,64.3 460.2,63.1 464.6,61.4 469.0,58.8 473.3,54.9 477.7,54.0 482.1,56.8 486.4,62.7 490.8,71.3 495.2,80.5 499.5,89.1 503.9,100.4 508.3,111.6 512.7,122.9 517.0,134.2 521.4,145.5 525.8,156.8 530.1,168.1 534.5,177.4 538.9,183.6 543.2,188.3 547.6,193.0 552.0,199.3 556.3,208.3 560.7,219.6 565.1,230.9 569.4,242.2 573.8,253.5 578.2,264.8 582.5,266.0 586.9,266.0 591.3,266.0 595.6,266.0 600.0,266.0 604.4,266.0 608.7,266.0 613.1,266.0 617.5,266.0 621.9,266.0 626.2,266.0 630.6,266.0 635.0,266.0 639.3,266.0 643.7,266.0 648.1,266.0 652.4,266.0 656.8,266.0 661.2,266.0 665.5,266.0 669.9,266.0 674.3,266.0 678.6,266.0 683.0,266.0 687.4,266.0 691.7,266.0 696.1,266.0 700.5,266.0 704.8,266.0 709.2,266.0 713.6,266.0 718.0,266.0 722.3,266.0 726.7,266.0 731.1,266.0 735.4,266.0 739.8,266.0 744.2,266.0 748.5,266.0 752.9,266.0 757.3,266.0 761.6,266.0 766.0,266.0"/>
<line x1="606" y1="78" x2="628" y2="78" stroke="#da1e28" stroke-width="2.2"/>
<text x="634" y="82" font-family="Arial" font-size="12">r_dps</text>
</svg>