<svg xmlns="http://www.w3.org/2000/svg" width="820" height="320" viewBox="0 0 820 320">
<rect width="100%" height="100%" fill="#ffffff"/>
<text x="54" y="28" font-family="Arial" font-size="18" font-weight="700">Load Factor</text>
<line x1="54" y1="266" x2="766" y2="266" stroke="#1f2933"/>
<line x1="54" y1="54" x2="54" y2="266" stroke="#1f2933"/>
<text x="54" y="306" font-family="Arial" font-size="12">time (s)</text>
<text x="596" y="306" font-family="Arial" font-size="12">g</text>
<text x="58" y="68" font-family="Arial" font-size="11">3.93</text>
<text x="58" y="260" font-family="Arial" font-size="11">1.75</text>
<polyline fill="none" stroke="#0f62fe" stroke-width="2.2" points="54.0,266.0 58.4,263.3 62.7,260.5 67.1,257.6 71.5,254.7 75.8,251.7 80.2,248.7 84.6,245.6 88.9,242.6 93.3,239.5 97.7,236.4 102.0,233.4 106.4,230.3 110.8,227.2 115.2,226.2 119.5,226.3 123.9,226.4 128.3,226.5 132.6,226.6 137.0,226.7 141.4,226.7 145.7,226.8 150.1,226.9 154.5,227.0 158.8,227.0 163.2,227.1 167.6,227.2 171.9,227.2 176.3,227.3 180.7,227.4 185.0,227.4 189.4,227.5 193.8,227.6 198.1,227.6 202.5,227.7 206.9,227.7 211.3,227.8 215.6,227.8 220.0,227.9 224.4,227.9 228.7,228.0 233.1,228.0 237.5,228.1 241.8,228.1 246.2,228.2 250.6,228.2 254.9,228.3 259.3,228.3 263.7,228.3 268.0,228.4 272.4,228.4 276.8,228.4 281.1,228.5 285.5,228.5 289.9,228.5 294.2,228.5 298.6,228.6 303.0,228.6 307.3,228.6 311.7,228.6 316.1,228.7 320.5,228.7 324.8,228.7 329.2,228.7 333.6,228.7 337.9,228.7 342.3,228.8 346.7,228.8 351.0,228.8 355.4,228.8 359.8,228.7 364.1,228.7 368.5,228.6 372.9,228.6 377.2,228.4 381.6,228.3 386.0,228.0 390.3,227.6 394.7,227.1 399.1,226.4 403.4,225.3 407.8,223.8 412.2,221.6 416.6,218.4 420.9,213.5 425.3,206.1 429.7,194.7 434.0,185.9 438.4,178.4 442.8,159.4 447.1,139.9 451.5,150.6 455.9,156.3 460.2,152.6 464.6,121.6 469.0,84.9 473.3,67.0 477.7,62.5 482.1,63.1 486.4,66.5 490.8,54.0 495.2,131.8 499.5,73.7 503.9,106.6 508.3,121.8 512.7,125.2 517.0,123.9 521.4,118.5 525.8,112.5 530.1,99.6 534.5,89.8 538.9,83.6 543.2,80.1 547.6,79.7 552.0,83.8 556.3,90.7 560.7,100.7 565.1,103.5 569.4,105.0 573.8,107.7 578.2,111.9 582.5,118.3 586.9,121.7 591.3,132.5 595.6,146.3 600.0,153.4 604.4,157.9 608.7,159.7 613.1,159.1 617.5,160.2 621.9,158.5 626.2,149.9 630.6,136.2 635.0,131.5 639.3,135.3 643.7,140.4 648.1,135.9 652.4,128.4 656.8,123.9 661.2,123.3 665.5,135.7 669.9,148.5 674.3,158.7 678.6,166.7 683.0,174.8 687.4,184.4 691.7,193.9 696.1,163.7 700.5,138.0 704.8,124.1 709.2,128.2 713.6,109.4 718.0,133.2 722.3,122.7 726.7,111.8 731.1,103.6 735.4,112.7 739.8,130.4 744.2,140.7 748.5,147.4 752.9,155.9 757.3,173.7 761.6,151.7 766.0,179.6"/>
<line x1="606" y1="42" x2="628" y2="42" stroke="#0f62fe" stroke-width="2.2"/>
<text x="634" y="46" font-family="Arial" font-size="12">load_factor_g</text>
</svg>