<svg xmlns="http://www.w3.org/2000/svg" width="820" height="320" viewBox="0 0 820 320">
<rect width="100%" height="100%" fill="#ffffff"/>
<text x="54" y="28" font-family="Arial" font-size="18" font-weight="700">Actuator Saturation</text>
<line x1="54" y1="266" x2="766" y2="266" stroke="#1f2933"/>
<line x1="54" y1="54" x2="54" y2="266" stroke="#1f2933"/>
<text x="54" y="306" font-family="Arial" font-size="12">time (s)</text>
<text x="596" y="306" font-family="Arial" font-size="12">flag</text>
<text x="58" y="68" font-family="Arial" font-size="11">1</text>
<text x="58" y="260" font-family="Arial" font-size="11">-1</text>
<polyline fill="none" stroke="#0f62fe" stroke-width="2.2" points="54.0,160.0 58.4,160.0 62.7,160.0 67.1,160.0 71.5,160.0 75.8,160.0 80.2,160.0 84.6,160.0 88.9,160.0 93.3,160.0 97.7,160.0 102.0,160.0 106.4,160.0 110.8,160.0 115.2,160.0 119.5,160.0 123.9,160.0 128.3,160.0 132.6,160.0 137.0,160.0 141.4,160.0 145.7,160.0 150.1,160.0 154.5,160.0 158.8,160.0 163.2,160.0 167.6,160.0 171.9,160.0 176.3,160.0 180.7,160.0 185.0,160.0 189.4,160.0 193.8,160.0 198.1,160.0 202.5,160.0 206.9,160.0 211.3,160.0 215.6,160.0 220.0,160.0 224.4,160.0 228.7,160.0 233.1,160.0 237.5,160.0 241.8,160.0 246.2,160.0 250.6,160.0 254.9,160.0 259.3,160.0 263.7,160.0 268.0,160.0 272.4,160.0 276.8,160.0 281.1,160.0 285.5,160.0 289.9,160.0 294.2,160.0 298.6,160.0 303.0,160.0 307.3,160.0 311.7,160.0 316.1,160.0 320.5,160.0 324.8,160.0 329.2,160.0 333.6,160.0 337.9,160.0 342.3,160.0 346.7,160.0 351.0,160.0 355.4,160.0 359.8,160.0 364.1,160.0 368.5,160.0 372.9,160.0 377.2,160.0 381.6,160.0 386.0,160.0 390.3,160.0 394.7,160.0 399.1,160.0 403.4,160.0 407.8,160.0 412.2,160.0 416.6,160.0 420.9,160.0 425.3,160.0 429.7,160.0 434.0,160.0 438.4,160.0 442.8,160.0 447.1,160.0 451.5,160.0 455.9,160.0 460.2,160.0 464.6,160.0 469.0,160.0 473.3,160.0 477.7,160.0 482.1,160.0 486.4,160.0 490.8,160.0 495.2,160.0 499.5,160.0 503.9,160.0 508.3,160.0 512.7,160.0 517.0,160.0 521.4,160.0 525.8,160.0 530.1,160.0 534.5,160.0 538.9,160.0 543.2,160.0 547.6,160.0 552.0,160.0 556.3,160.0 560.7,160.0 565.1,160.0 569.4,160.0 573.8,160.0 578.2,160.0 582.5,160.0 586.9,160.0 591.3,160.0 595.6,160.0 600.0,160.0 604.4,160.0 608.7,160.0 613.1,160.0 617.5,160.0 621.9,160.0 626.2,160.0 630.6,160.0 635.0,160.0 639.3,160.0 643.7,160.0 648.1,160.0 652.4,160.0 656.8,160.0 661.2,160.0 665.5,160.0 669.9,160.0 674.3,160.0 678.6,160.0 683.0,160.0 687.4,160.0 691.7,160.0 696.1,160.0 700.5,160.0 704.8,160.0 709.2,160.0 713.6,160.0 718.0,160.0 722.3,160.0 726.7,160.0 731.1,160.0 735.4,160.0 739.8,160.0 744.2,160.0 748.5,160.0 752.9,160.0 757.3,160.0 761.6,160.0 766.0,160.0"/>
<line x1="606" y1="42" x2="628" y2="42" stroke="#0f62fe" stroke-width="2.2"/>
<text x="634" y="46" font-family="Arial" font-size="12">elevator_saturated</text>
<polyline fill="none" stroke="#24a148" stroke-width="2.2" points="54.0,160.0 58.4,160.0 62.7,160.0 67.1,160.0 71.5,160.0 75.8,160.0 80.2,160.0 84.6,160.0 88.9,160.0 93.3,160.0 97.7,160.0 102.0,160.0 106.4,160.0 110.8,160.0 115.2,160.0 119.5,160.0 123.9,160.0 128.3,160.0 132.6,160.0 137.0,160.0 141.4,160.0 145.7,160.0 150.1,160.0 154.5,160.0 158.8,160.0 163.2,160.0 167.6,160.0 171.9,160.0 176.3,160.0 180.7,160.0 185.0,160.0 189.4,160.0 193.8,160.0 198.1,160.0 202.5,160.0 206.9,160.0 211.3,160.0 215.6,160.0 220.0,160.0 224.4,160.0 228.7,160.0 233.1,160.0 237.5,160.0 241.8,160.0 246.2,160.0 250.6,160.0 254.9,160.0 259.3,160.0 263.7,160.0 268.0,160.0 272.4,160.0 276.8,160.0 281.1,160.0 285.5,160.0 289.9,160.0 294.2,160.0 298.6,160.0 303.0,160.0 307.3,160.0 311.7,160.0 316.1,160.0 320.5,160.0 324.8,160.0 329.2,160.0 333.6,160.0 337.9,160.0 342.3,160.0 346.7,160.0 351.0,160.0 355.4,160.0 359.8,160.0 364.1,160.0 368.5,160.0 372.9,160.0 377.2,160.0 381.6,160.0 386.0,160.0 390.3,160.0 394.7,160.0 399.1,160.0 403.4,160.0 407.8,160.0 412.2,160.0 416.6,160.0 420.9,160.0 425.3,160.0 429.7,160.0 434.0,160.0 438.4,160.0 442.8,160.0 447.1,160.0 451.5,160.0 455.9,160.0 460.2,160.0 464.6,160.0 469.0,160.0 473.3,160.0 477.7,160.0 482.1,160.0 486.4,160.0 490.8,160.0 495.2,160.0 499.5,160.0 503.9,160.0 508.3,160.0 512.7,160.0 517.0,160.0 521.4,160.0 525.8,160.0 530.1,160.0 534.5,160.0 538.9,160.0 543.2,160.0 547.6,160.0 552.0,160.0 556.3,160.0 560.7,160.0 565.1,160.0 569.4,160.0 573.8,160.0 578.2,160.0 582.5,160.0 586.9,160.0 591.3,160.0 595.6,160.0 600.0,160.0 604.4,160.0 608.7,160.0 613.1,160.0 617.5,160.0 621.9,160.0 626.2,160.0 630.6,160.0 635.0,160.0 639.3,160.0 643.7,160.0 648.1,160.0 652.4,160.0 656.8,160.0 661.2,160.0 665.5,160.0 669.9,160.0 674.3,160.0 678.6,160.0 683.0,160.0 687.4,160.0 691.7,160.0 696.1,160.0 700.5,160.0 704.8,160.0 709.2,160.0 713.6,160.0 718.0,160.0 722.3,160.0 726.7,160.0 731.1,160.0 735.4,160.0 739.8,160.0 744.2,160.0 748.5,160.0 752.9,160.0 757.3,160.0 761.6,160.0 766.0,160.0"/>
<line x1="606" y1="60" x2="628" y2="60" stroke="#24a148" stroke-width="2.2"/>
<text x="634" y="64" font-family="Arial" font-size="12">aileron_saturated</text>
<polyline fill="none" stroke="#da1e28" stroke-width="2.2" points="54.0,160.0 58.4,160.0 62.7,160.0 67.1,160.0 71.5,160.0 75.8,160.0 80.2,160.0 84.6,160.0 88.9,160.0 93.3,160.0 97.7,160.0 102.0,160.0 106.4,160.0 110.8,160.0 115.2,160.0 119.5,160.0 123.9,160.0 128.3,160.0 132.6,160.0 137.0,160.0 141.4,160.0 145.7,160.0 150.1,160.0 154.5,160.0 158.8,160.0 163.2,160.0 167.6,160.0 171.9,160.0 176.3,160.0 180.7,160.0 185.0,160.0 189.4,160.0 193.8,160.0 198.1,160.0 202.5,160.0 206.9,160.0 211.3,160.0 215.6,160.0 220.0,160.0 224.4,160.0 228.7,160.0 233.1,160.0 237.5,160.0 241.8,160.0 246.2,160.0 250.6,160.0 254.9,160.0 259.3,160.0 263.7,160.0 268.0,160.0 272.4,160.0 276.8,160.0 281.1,160.0 285.5,160.0 289.9,160.0 294.2,160.0 298.6,160.0 303.0,160.0 307.3,160.0 311.7,160.0 316.1,160.0 320.5,160.0 324.8,160.0 329.2,160.0 333.6,160.0 337.9,160.0 342.3,160.0 346.7,160.0 351.0,160.0 355.4,160.0 359.8,160.0 364.1,160.0 368.5,160.0 372.9,160.0 377.2,160.0 381.6,160.0 386.0,160.0 390.3,160.0 394.7,160.0 399.1,160.0 403.4,160.0 407.8,160.0 412.2,160.0 416.6,160.0 420.9,160.0 425.3,160.0 429.7,160.0 434.0,160.0 438.4,160.0 442.8,160.0 447.1,160.0 451.5,160.0 455.9,160.0 460.2,160.0 464.6,160.0 469.0,160.0 473.3,160.0 477.7,160.0 482.1,160.0 486.4,160.0 490.8,160.0 495.2,160.0 499.5,160.0 503.9,160.0 508.3,160.0 512.7,160.0 517.0,160.0 521.4,160.0 525.8,160.0 530.1,160.0 534.5,160.0 538.9,160.0 543.2,160.0 547.6,160.0 552.0,160.0 556.3,160.0 560.7,160.0 565.1,160.0 569.4,160.0 573.8,160.0 578.2,160.0 582.5,160.0 586.9,160.0 591.3,160.0 595.6,160.0 600.0,160.0 604.4,160.0 608.7,160.0 613.1,160.0 617.5,160.0 621.9,160.0 626.2,160.0 630.6,160.0 635.0,160.0 639.3,160.0 643.7,160.0 648.1,160.0 652.4,160.0 656.8,160.0 661.2,160.0 665.5,160.0 669.9,160.0 674.3,160.0 678.6,160.0 683.0,160.0 687.4,160.0 691.7,160.0 696.1,160.0 700.5,160.0 704.8,160.0 709.2,160.0 713.6,160.0 718.0,160.0 722.3,160.0 726.7,160.0 731.1,160.0 735.4,160.0 739.8,160.0 744.2,160.0 748.5,160.0 752.9,160.0 757.3,160.0 761.6,160.0 766.0,160.0"/>
<line x1="606" y1="78" x2="628" y2="78" stroke="#da1e28" stroke-width="2.2"/>
<text x="634" y="82" font-family="Arial" font-size="12">rudder_saturated</text>
</svg>