<svg xmlns="http://www.w3.org/2000/svg" width="820" height="320" viewBox="0 0 820 320">
<rect width="100%" height="100%" fill="#ffffff"/>
<text x="54" y="28" font-family="Arial" font-size="18" font-weight="700">GPS Altitude vs Truth</text>
<line x1="54" y1="266" x2="766" y2="266" stroke="#1f2933"/>
<line x1="54" y1="54" x2="54" y2="266" stroke="#1f2933"/>
<text x="54" y="306" font-family="Arial" font-size="12">time (s)</text>
<text x="596" y="306" font-family="Arial" font-size="12">altitude (m)</text>
<text x="58" y="68" font-family="Arial" font-size="11">29.8</text>
<text x="58" y="260" font-family="Arial" font-size="11">-0.471</text>
<polyline fill="none" stroke="#0f62fe" stroke-width="2.2" points="54.0,122.5 58.4,120.8 62.7,119.2 67.1,117.7 71.5,116.2 75.8,114.7 80.2,113.3 84.6,111.9 88.9,110.5 93.3,109.2 97.7,107.8 102.0,106.6 106.4,105.3 110.8,104.1 115.2,102.9 119.5,101.7 123.9,100.5 128.3,99.4 132.6,98.3 137.0,97.2 141.4,96.1 145.7,95.1 150.1,94.1 154.5,93.1 158.8,92.1 163.2,91.1 167.6,90.2 171.9,89.3 176.3,88.3 180.7,87.5 185.0,86.6 189.4,85.7 193.8,84.9 198.1,84.1 202.5,83.3 206.9,82.5 211.3,81.7 215.6,81.0 220.0,80.2 224.4,79.5 228.7,78.8 233.1,78.1 237.5,77.4 241.8,76.7 246.2,76.1 250.6,75.4 254.9,74.8 259.3,74.2 263.7,73.5 268.0,72.9 272.4,72.4 276.8,71.8 281.1,71.2 285.5,70.7 289.9,70.1 294.2,69.6 298.6,69.0 303.0,68.5 307.3,68.0 311.7,67.5 316.1,67.0 320.5,66.5 324.8,66.0 329.2,65.5 333.6,65.0 337.9,64.5 342.3,64.1 346.7,63.6 351.0,63.2 355.4,62.7 359.8,62.3 364.1,61.8 368.5,61.4 372.9,60.9 377.2,60.5 381.6,60.0 386.0,59.6 390.3,59.2 394.7,58.7 399.1,58.3 403.4,57.9 407.8,57.4 412.2,57.0 416.6,56.6 420.9,56.2 425.3,55.8 429.7,55.4 434.0,55.0 438.4,54.6 442.8,54.3 447.1,54.1 451.5,54.0 455.9,54.0 460.2,54.2 464.6,54.5 469.0,54.9 473.3,55.6 477.7,56.6 482.1,57.8 486.4,59.2 490.8,60.8 495.2,62.6 499.5,64.5 503.9,66.8 508.3,69.2 512.7,71.7 517.0,74.2 521.4,76.7 525.8,79.1 530.1,81.3 534.5,83.4 538.9,85.4 543.2,87.2 547.6,89.1 552.0,90.9 556.3,93.0 560.7,95.2 565.1,97.7 569.4,100.4 573.8,103.3 578.2,106.4 582.5,109.5 586.9,112.6 591.3,115.6 595.6,118.4 600.0,121.2 604.4,123.8 608.7,126.5 613.1,129.1 617.5,131.9 621.9,134.8 626.2,137.9 630.6,141.3 635.0,144.9 639.3,148.7 643.7,152.6 648.1,156.5 652.4,160.3 656.8,164.1 661.2,167.7 665.5,171.3 669.9,174.7 674.3,178.1 678.6,181.5 683.0,185.0 687.4,188.5 691.7,192.3 696.1,196.2 700.5,200.3 704.8,204.7 709.2,209.3 713.6,213.9 718.0,218.5 722.3,223.1 726.7,227.6 731.1,231.9 735.4,236.1 739.8,240.3 744.2,244.4 748.5,248.6 752.9,252.7 757.3,257.0 761.6,261.4 766.0,266.0"/>
<line x1="606" y1="42" x2="628" y2="42" stroke="#0f62fe" stroke-width="2.2"/>
<text x="634" y="46" font-family="Arial" font-size="12">altitude_m</text>
<polyline fill="none" stroke="#24a148" stroke-width="2.2" points="54.0,114.3 58.4,114.3 62.7,114.3 67.1,114.3 71.5,114.3 75.8,114.3 80.2,114.3 84.6,104.7 88.9,104.7 93.3,104.7 97.7,104.7 102.0,104.7 106.4,104.7 110.8,104.7 115.2,100.6 119.5,100.6 123.9,100.6 128.3,100.6 132.6,100.6 137.0,100.6 141.4,100.6 145.7,91.8 150.1,91.8 154.5,91.8 158.8,91.8 163.2,91.8 167.6,91.8 171.9,91.8 176.3,87.6 180.7,87.6 185.0,87.6 189.4,87.6 193.8,87.6 198.1,87.6 202.5,87.6 206.9,86.3 211.3,86.3 215.6,86.3 220.0,86.3 224.4,86.3 228.7,86.3 233.1,86.3 237.5,64.0 241.8,64.0 246.2,64.0 250.6,64.0 254.9,64.0 259.3,64.0 263.7,64.0 268.0,74.4 272.4,74.4 276.8,74.4 281.1,74.4 285.5,74.4 289.9,74.4 294.2,74.4 298.6,81.8 303.0,81.8 307.3,81.8 311.7,81.8 316.1,81.8 320.5,81.8 324.8,81.8 329.2,63.4 333.6,63.4 337.9,63.4 342.3,63.4 346.7,63.4 351.0,63.4 355.4,63.4 359.8,67.8 364.1,67.8 368.5,67.8 372.9,67.8 377.2,67.8 381.6,67.8 386.0,67.8 390.3,56.5 394.7,56.5 399.1,56.5 403.4,56.5 407.8,56.5 412.2,56.5 416.6,56.5 420.9,55.9 425.3,55.9 429.7,55.9 434.0,55.9 438.4,55.9 442.8,55.9 447.1,55.9 451.5,57.9 455.9,57.9 460.2,57.9 464.6,57.9 469.0,57.9 473.3,57.9 477.7,57.9 482.1,55.2 486.4,55.2 490.8,55.2 495.2,55.2 499.5,55.2 503.9,55.2 508.3,55.2 512.7,63.9 517.0,63.9 521.4,63.9 525.8,63.9 530.1,63.9 534.5,63.9 538.9,63.9 543.2,84.4 547.6,84.4 552.0,84.4 556.3,84.4 560.7,84.4 565.1,84.4 569.4,84.4 573.8,122.2 578.2,122.2 582.5,122.2 586.9,122.2 591.3,122.2 595.6,122.2 600.0,122.2 604.4,149.6 608.7,149.6 613.1,149.6 617.5,149.6 621.9,149.6 626.2,149.6 630.6,149.6 635.0,136.7 639.3,136.7 643.7,136.7 648.1,136.7 652.4,136.7 656.8,136.7 661.2,136.7 665.5,167.4 669.9,167.4 674.3,167.4 678.6,167.4 683.0,167.4 687.4,167.4 691.7,167.4 696.1,217.3 700.5,217.3 704.8,217.3 709.2,217.3 713.6,217.3 718.0,217.3 722.3,217.3 726.7,228.6 731.1,228.6 735.4,228.6 739.8,228.6 744.2,228.6 748.5,228.6 752.9,228.6 757.3,251.1 761.6,251.1 766.0,251.1"/>
<line x1="606" y1="60" x2="628" y2="60" stroke="#24a148" stroke-width="2.2"/>
<text x="634" y="64" font-family="Arial" font-size="12">gps_z_m</text>
</svg>