<svg xmlns="http://www.w3.org/2000/svg" width="820" height="320" viewBox="0 0 820 320">
<rect width="100%" height="100%" fill="#ffffff"/>
<text x="54" y="28" font-family="Arial" font-size="18" font-weight="700">Specific Energy</text>
<line x1="54" y1="266" x2="766" y2="266" stroke="#1f2933"/>
<line x1="54" y1="54" x2="54" y2="266" stroke="#1f2933"/>
<text x="54" y="306" font-family="Arial" font-size="12">time (s)</text>
<text x="596" y="306" font-family="Arial" font-size="12">J/kg</text>
<text x="58" y="68" font-family="Arial" font-size="11">9.46e+03</text>
<text x="58" y="260" font-family="Arial" font-size="11">3.84e+03</text>
<polyline fill="none" stroke="#0f62fe" stroke-width="2.2" points="54.0,266.0 58.4,264.3 62.7,262.7 67.1,260.9 71.5,259.2 75.8,257.4 80.2,255.5 84.6,253.7 88.9,251.8 93.3,249.8 97.7,247.8 102.0,245.8 106.4,243.7 110.8,241.6 115.2,239.5 119.5,237.3 123.9,235.1 128.3,232.9 132.6,230.7 137.0,228.5 141.4,226.3 145.7,224.1 150.1,221.8 154.5,219.6 158.8,217.3 163.2,215.0 167.6,212.7 171.9,210.4 176.3,208.1 180.7,205.8 185.0,203.5 189.4,201.2 193.8,198.8 198.1,196.5 202.5,194.1 206.9,191.7 211.3,189.4 215.6,187.0 220.0,184.6 224.4,182.2 228.7,179.7 233.1,177.3 237.5,174.9 241.8,172.4 246.2,170.0 250.6,167.5 254.9,165.0 259.3,162.5 263.7,160.0 268.0,157.5 272.4,155.0 276.8,152.5 281.1,150.0 285.5,147.4 289.9,144.9 294.2,142.4 298.6,139.8 303.0,137.2 307.3,134.6 311.7,132.1 316.1,129.5 320.5,126.9 324.8,124.2 329.2,121.6 333.6,119.0 337.9,116.4 342.3,113.7 346.7,111.1 351.0,108.4 355.4,105.7 359.8,103.1 364.1,100.4 368.5,97.7 372.9,95.0 377.2,92.3 381.6,89.6 386.0,86.9 390.3,84.2 394.7,81.5 399.1,78.8 403.4,76.1 407.8,73.4 412.2,70.7 416.6,68.1 420.9,65.5 425.3,63.0 429.7,60.6 434.0,58.3 438.4,56.3 442.8,54.8 447.1,54.0 451.5,54.0 455.9,54.3 460.2,55.0 464.6,56.2 469.0,58.0 473.3,60.5 477.7,63.5 482.1,66.9 486.4,70.3 490.8,73.6 495.2,76.2 499.5,77.3 503.9,79.3 508.3,81.2 512.7,82.8 517.0,84.2 521.4,85.2 525.8,85.8 530.1,86.3 534.5,86.8 538.9,87.4 543.2,88.3 547.6,89.4 552.0,90.7 556.3,92.2 560.7,93.8 565.1,95.7 569.4,97.7 573.8,99.9 578.2,102.2 582.5,104.4 586.9,106.5 591.3,108.5 595.6,110.1 600.0,111.4 604.4,112.4 608.7,113.2 613.1,113.9 617.5,114.4 621.9,114.9 626.2,115.2 630.6,115.6 635.0,116.1 639.3,116.7 643.7,117.6 648.1,118.7 652.4,120.2 656.8,122.1 661.2,124.1 665.5,126.2 669.9,128.1 674.3,129.6 678.6,130.9 683.0,131.8 687.4,132.3 691.7,132.4 696.1,131.9 700.5,131.2 704.8,130.3 709.2,129.6 713.6,129.2 718.0,129.7 722.3,131.0 726.7,133.1 731.1,135.7 735.4,138.7 739.8,141.5 744.2,143.9 748.5,146.0 752.9,147.6 757.3,148.6 761.6,148.6 766.0,147.8"/>
<line x1="606" y1="42" x2="628" y2="42" stroke="#0f62fe" stroke-width="2.2"/>
<text x="634" y="46" font-family="Arial" font-size="12">energy_j_per_kg</text>
</svg>