<svg xmlns="http://www.w3.org/2000/svg" width="820" height="320" viewBox="0 0 820 320">
<rect width="100%" height="100%" fill="#ffffff"/>
<text x="54" y="28" font-family="Arial" font-size="18" font-weight="700">Barometer vs Truth</text>
<line x1="54" y1="266" x2="766" y2="266" stroke="#1f2933"/>
<line x1="54" y1="54" x2="54" y2="266" stroke="#1f2933"/>
<text x="54" y="306" font-family="Arial" font-size="12">time (s)</text>
<text x="596" y="306" font-family="Arial" font-size="12">altitude (m)</text>
<text x="58" y="68" font-family="Arial" font-size="11">377</text>
<text x="58" y="260" font-family="Arial" font-size="11">20</text>
<polyline fill="none" stroke="#0f62fe" stroke-width="2.2" points="54.0,266.0 55.2,265.9 56.4,265.7 57.6,265.6 58.7,265.5 59.9,265.3 61.1,265.2 62.3,265.1 63.5,265.0 64.7,264.9 65.9,264.8 67.1,264.7 68.2,264.5 69.4,264.4 70.6,264.3 71.8,264.2 73.0,264.1 74.2,264.0 75.4,264.0 76.5,263.9 77.7,263.8 78.9,263.7 80.1,263.6 81.3,263.5 82.5,263.4 83.7,263.3 84.9,263.3 86.0,263.2 87.2,263.1 88.4,263.0 89.6,263.0 90.8,262.9 92.0,262.8 93.2,262.7 94.3,262.7 95.5,262.6 96.7,262.5 97.9,262.5 99.1,262.4 100.3,262.4 101.5,262.3 102.7,262.2 103.8,262.2 105.0,262.1 106.2,262.1 107.4,262.0 108.6,262.0 109.8,261.9 111.0,261.9 112.1,261.8 113.3,261.8 114.5,261.7 115.7,261.7 116.9,261.6 118.1,261.6 119.3,261.5 120.5,261.5 121.6,261.4 122.8,261.4 124.0,261.3 125.2,261.3 126.4,261.3 127.6,261.2 128.8,261.2 129.9,261.1 131.1,261.1 132.3,261.1 133.5,261.0 134.7,261.0 135.9,260.9 137.1,260.9 138.3,260.9 139.4,260.8 140.6,260.8 141.8,260.7 143.0,260.7 144.2,260.7 145.4,260.6 146.6,260.6 147.7,260.6 148.9,260.5 150.1,260.5 151.3,260.4 152.5,260.4 153.7,260.4 154.9,260.3 156.1,260.3 157.2,260.3 158.4,260.2 159.6,260.2 160.8,260.1 162.0,260.1 163.2,260.1 164.4,260.0 165.5,260.0 166.7,259.9 167.9,259.9 169.1,259.8 170.3,259.8 171.5,259.8 172.7,259.7 173.9,259.7 175.0,259.6 176.2,259.6 177.4,259.5 178.6,259.5 179.8,259.4 181.0,259.4 182.2,259.3 183.3,259.3 184.5,259.2 185.7,259.1 186.9,259.1 188.1,259.0 189.3,259.0 190.5,258.9 191.7,258.8 192.8,258.8 194.0,258.7 195.2,258.6 196.4,258.5 197.6,258.5 198.8,258.4 200.0,258.3 201.1,258.2 202.3,258.1 203.5,258.1 204.7,258.0 205.9,257.9 207.1,257.8 208.3,257.7 209.5,257.6 210.6,257.5 211.8,257.4 213.0,257.3 214.2,257.2 215.4,257.1 216.6,257.0 217.8,256.9 218.9,256.8 220.1,256.7 221.3,256.5 222.5,256.4 223.7,256.3 224.9,256.2 226.1,256.0 227.3,255.9 228.4,255.8 229.6,255.6 230.8,255.5 232.0,255.4 233.2,255.2 234.4,255.1 235.6,254.9 236.7,254.8 237.9,254.6 239.1,254.5 240.3,254.3 241.5,254.2 242.7,254.0 243.9,253.8 245.1,253.7 246.2,253.5 247.4,253.3 248.6,253.1 249.8,252.9 251.0,252.8 252.2,252.6 253.4,252.4 254.5,252.2 255.7,252.0 256.9,251.8 258.1,251.6 259.3,251.4 260.5,251.2 261.7,251.0 262.9,250.8 264.0,250.6 265.2,250.3 266.4,250.1 267.6,249.9 268.8,249.7 270.0,249.4 271.2,249.2 272.3,249.0 273.5,248.7 274.7,248.5 275.9,248.3 277.1,248.0 278.3,247.8 279.5,247.5 280.7,247.3 281.8,247.0 283.0,246.8 284.2,246.5 285.4,246.2 286.6,246.0 287.8,245.7 289.0,245.4 290.1,245.1 291.3,244.9 292.5,244.6 293.7,244.3 294.9,244.0 296.1,243.7 297.3,243.4 298.5,243.1 299.6,242.8 300.8,242.5 302.0,242.2 303.2,241.9 304.4,241.6 305.6,241.3 306.8,241.0 307.9,240.7 309.1,240.4 310.3,240.1 311.5,239.7 312.7,239.4 313.9,239.1 315.1,238.8 316.3,238.4 317.4,238.1 318.6,237.8 319.8,237.4 321.0,237.1 322.2,236.7 323.4,236.4 324.6,236.0 325.7,235.7 326.9,235.3 328.1,235.0 329.3,234.6 330.5,234.2 331.7,233.9 332.9,233.5 334.1,233.1 335.2,232.7 336.4,232.3 337.6,232.0 338.8,231.6 340.0,231.2 341.2,230.8 342.4,230.4 343.5,230.0 344.7,229.6 345.9,229.1 347.1,228.7 348.3,228.3 349.5,227.9 350.7,227.5 351.9,227.1 353.0,226.6 354.2,226.2 355.4,225.8 356.6,225.3 357.8,224.9 359.0,224.4 360.2,224.0 361.3,223.5 362.5,223.1 363.7,222.6 364.9,222.2 366.1,221.7 367.3,221.3 368.5,220.8 369.7,220.3 370.8,219.9 372.0,219.4 373.2,218.9 374.4,218.4 375.6,218.0 376.8,217.5 378.0,217.0 379.1,216.5 380.3,216.0 381.5,215.5 382.7,215.0 383.9,214.5 385.1,214.0 386.3,213.5 387.5,213.0 388.6,212.5 389.8,212.0 391.0,211.5 392.2,211.0 393.4,210.4 394.6,209.9 395.8,209.4 396.9,208.9 398.1,208.3 399.3,207.8 400.5,207.3 401.7,206.8 402.9,206.2 404.1,205.7 405.3,205.2 406.4,204.6 407.6,204.1 408.8,203.5 410.0,203.0 411.2,202.5 412.4,201.9 413.6,201.4 414.7,200.8 415.9,200.3 417.1,199.7 418.3,199.2 419.5,198.6 420.7,198.1 421.9,197.5 423.1,197.0 424.2,196.4 425.4,195.9 426.6,195.3 427.8,194.8 429.0,194.2 430.2,193.7 431.4,193.1 432.5,192.5 433.7,192.0 434.9,191.4 436.1,190.9 437.3,190.3 438.5,189.7 439.7,189.2 440.9,188.6 442.0,188.0 443.2,187.5 444.4,186.9 445.6,186.3 446.8,185.8 448.0,185.2 449.2,184.6 450.3,184.1 451.5,183.5 452.7,182.9 453.9,182.4 455.1,181.8 456.3,181.2 457.5,180.7 458.7,180.1 459.8,179.5 461.0,178.9 462.2,178.4 463.4,177.8 464.6,177.2 465.8,176.6 467.0,176.1 468.1,175.5 469.3,174.9 470.5,174.3 471.7,173.8 472.9,173.2 474.1,172.6 475.3,172.0 476.5,171.5 477.6,170.9 478.8,170.3 480.0,169.7 481.2,169.1 482.4,168.6 483.6,168.0 484.8,167.4 485.9,166.8 487.1,166.3 488.3,165.7 489.5,165.1 490.7,164.5 491.9,163.9 493.1,163.3 494.3,162.8 495.4,162.2 496.6,161.6 497.8,161.0 499.0,160.4 500.2,159.8 501.4,159.3 502.6,158.7 503.7,158.1 504.9,157.5 506.1,156.9 507.3,156.3 508.5,155.8 509.7,155.2 510.9,154.6 512.1,154.0 513.2,153.4 514.4,152.8 515.6,152.3 516.8,151.7 518.0,151.1 519.2,150.5 520.4,149.9 521.5,149.3 522.7,148.7 523.9,148.2 525.1,147.6 526.3,147.0 527.5,146.4 528.7,145.8 529.9,145.2 531.0,144.6 532.2,144.0 533.4,143.5 534.6,142.9 535.8,142.3 537.0,141.7 538.2,141.1 539.3,140.5 540.5,139.9 541.7,139.3 542.9,138.8 544.1,138.2 545.3,137.6 546.5,137.0 547.7,136.4 548.8,135.8 550.0,135.2 551.2,134.7 552.4,134.1 553.6,133.5 554.8,132.9 556.0,132.3 557.1,131.7 558.3,131.1 559.5,130.5 560.7,130.0 561.9,129.4 563.1,128.8 564.3,128.2 565.5,127.6 566.6,127.0 567.8,126.4 569.0,125.8 570.2,125.3 571.4,124.7 572.6,124.1 573.8,123.5 574.9,122.9 576.1,122.4 577.3,121.8 578.5,121.2 579.7,120.6 580.9,120.1 582.1,119.5 583.3,118.9 584.4,118.4 585.6,117.8 586.8,117.3 588.0,116.7 589.2,116.2 590.4,115.6 591.6,115.0 592.7,114.5 593.9,114.0 595.1,113.4 596.3,112.9 597.5,112.3 598.7,111.8 599.9,111.2 601.1,110.7 602.2,110.2 603.4,109.6 604.6,109.1 605.8,108.6 607.0,108.1 608.2,107.5 609.4,107.0 610.5,106.5 611.7,106.0 612.9,105.5 614.1,104.9 615.3,104.4 616.5,103.9 617.7,103.4 618.9,102.9 620.0,102.4 621.2,101.9 622.4,101.4 623.6,100.9 624.8,100.4 626.0,99.9 627.2,99.4 628.3,98.9 629.5,98.4 630.7,97.9 631.9,97.4 633.1,97.0 634.3,96.5 635.5,96.0 636.7,95.5 637.8,95.0 639.0,94.6 640.2,94.1 641.4,93.6 642.6,93.1 643.8,92.7 645.0,92.2 646.1,91.7 647.3,91.3 648.5,90.8 649.7,90.3 650.9,89.9 652.1,89.4 653.3,89.0 654.5,88.5 655.6,88.1 656.8,87.6 658.0,87.2 659.2,86.7 660.4,86.3 661.6,85.8 662.8,85.4 663.9,84.9 665.1,84.5 666.3,84.1 667.5,83.6 668.7,83.2 669.9,82.8 671.1,82.3 672.3,81.9 673.4,81.5 674.6,81.0 675.8,80.6 677.0,80.2 678.2,79.8 679.4,79.4 680.6,78.9 681.7,78.5 682.9,78.1 684.1,77.7 685.3,77.3 686.5,76.9 687.7,76.5 688.9,76.1 690.1,75.7 691.2,75.3 692.4,74.9 693.6,74.5 694.8,74.1 696.0,73.7 697.2,73.3 698.4,72.9 699.5,72.5 700.7,72.1 701.9,71.7 703.1,71.3 704.3,71.0 705.5,70.6 706.7,70.2 707.9,69.8 709.0,69.5 710.2,69.1 711.4,68.7 712.6,68.4 713.8,68.0 715.0,67.6 716.2,67.3 717.3,66.9 718.5,66.6 719.7,66.2 720.9,65.9 722.1,65.5 723.3,65.2 724.5,64.8 725.7,64.5 726.8,64.2 728.0,63.8 729.2,63.5 730.4,63.2 731.6,62.8 732.8,62.5 734.0,62.2 735.1,61.9 736.3,61.6 737.5,61.2 738.7,60.9 739.9,60.6 741.1,60.3 742.3,60.0 743.5,59.7 744.6,59.4 745.8,59.1 747.0,58.8 748.2,58.5 749.4,58.2 750.6,58.0 751.8,57.7 752.9,57.4 754.1,57.1 755.3,56.8 756.5,56.6 757.7,56.3 758.9,56.0 760.1,55.8 761.3,55.5 762.4,55.3 763.6,55.0 764.8,54.7 766.0,54.5"/>
<line x1="606" y1="42" x2="628" y2="42" stroke="#0f62fe" stroke-width="2.2"/>
<text x="634" y="46" font-family="Arial" font-size="12">altitude_m</text>
<polyline fill="none" stroke="#24a148" stroke-width="2.2" points="54.0,265.5 55.2,265.5 56.4,265.7 57.6,265.7 58.7,265.5 59.9,265.5 61.1,266.0 62.3,266.0 63.5,264.7 64.7,264.7 65.9,264.8 67.1,264.8 68.2,264.2 69.4,264.2 70.6,264.1 71.8,264.1 73.0,263.3 74.2,263.3 75.4,263.8 76.5,263.8 77.7,263.6 78.9,263.6 80.1,263.6 81.3,263.6 82.5,263.9 83.7,263.9 84.9,263.9 86.0,263.9 87.2,262.4 88.4,262.4 89.6,263.0 90.8,263.0 92.0,263.0 93.2,263.0 94.3,262.8 95.5,262.8 96.7,262.3 97.9,262.3 99.1,262.0 100.3,262.0 101.5,261.9 102.7,261.9 103.8,262.6 105.0,262.6 106.2,262.2 107.4,262.2 108.6,262.1 109.8,262.1 111.0,261.7 112.1,261.7 113.3,261.8 114.5,261.8 115.7,261.7 116.9,261.7 118.1,261.2 119.3,261.2 120.5,261.1 121.6,261.1 122.8,261.4 124.0,261.4 125.2,261.1 126.4,261.1 127.6,261.1 128.8,261.1 129.9,261.6 131.1,261.6 132.3,260.6 133.5,260.6 134.7,261.6 135.9,261.6 137.1,260.7 138.3,260.7 139.4,260.6 140.6,260.6 141.8,260.7 143.0,260.7 144.2,260.3 145.4,260.3 146.6,260.5 147.7,260.5 148.9,259.8 150.1,259.8 151.3,260.8 152.5,260.8 153.7,260.2 154.9,260.2 156.1,260.4 157.2,260.4 158.4,260.4 159.6,260.4 160.8,259.9 162.0,259.9 163.2,260.1 164.4,260.1 165.5,259.8 166.7,259.8 167.9,260.1 169.1,260.1 170.3,258.9 171.5,258.9 172.7,259.3 173.9,259.3 175.0,259.6 176.2,259.6 177.4,259.8 178.6,259.8 179.8,259.0 181.0,259.0 182.2,259.2 183.3,259.2 184.5,259.3 185.7,259.3 186.9,258.6 188.1,258.6 189.3,258.6 190.5,258.6 191.7,257.9 192.8,257.9 194.0,258.7 195.2,258.7 196.4,258.2 197.6,258.2 198.8,258.3 200.0,258.3 201.1,257.9 202.3,257.9 203.5,257.6 204.7,257.6 205.9,258.5 207.1,258.5 208.3,257.9 209.5,257.9 210.6,258.0 211.8,258.0 213.0,256.9 214.2,256.9 215.4,256.6 216.6,256.6 217.8,257.7 218.9,257.7 220.1,256.6 221.3,256.6 222.5,256.4 223.7,256.4 224.9,255.8 226.1,255.8 227.3,255.9 228.4,255.9 229.6,255.4 230.8,255.4 232.0,255.0 233.2,255.0 234.4,255.2 235.6,255.2 236.7,255.3 237.9,255.3 239.1,254.8 240.3,254.8 241.5,253.6 242.7,253.6 243.9,253.6 245.1,253.6 246.2,253.6 247.4,253.6 248.6,253.3 249.8,253.3 251.0,252.7 252.2,252.7 253.4,252.2 254.5,252.2 255.7,252.3 256.9,252.3 258.1,251.5 259.3,251.5 260.5,250.9 261.7,250.9 262.9,250.3 264.0,250.3 265.2,250.0 266.4,250.0 267.6,249.8 268.8,249.8 270.0,250.0 271.2,250.0 272.3,248.8 273.5,248.8 274.7,247.3 275.9,247.3 277.1,247.9 278.3,247.9 279.5,247.5 280.7,247.5 281.8,247.3 283.0,247.3 284.2,247.3 285.4,247.3 286.6,246.0 287.8,246.0 289.0,244.8 290.1,244.8 291.3,244.2 292.5,244.2 293.7,243.7 294.9,243.7 296.1,243.8 297.3,243.8 298.5,243.1 299.6,243.1 300.8,243.0 302.0,243.0 303.2,242.2 304.4,242.2 305.6,241.4 306.8,241.4 307.9,240.6 309.1,240.6 310.3,239.8 311.5,239.8 312.7,239.4 313.9,239.4 315.1,238.9 316.3,238.9 317.4,238.8 318.6,238.8 319.8,237.3 321.0,237.3 322.2,236.8 323.4,236.8 324.6,236.3 325.7,236.3 326.9,235.6 328.1,235.6 329.3,234.7 330.5,234.7 331.7,233.7 332.9,233.7 334.1,232.7 335.2,232.7 336.4,232.6 337.6,232.6 338.8,231.6 340.0,231.6 341.2,230.8 342.4,230.8 343.5,229.9 344.7,229.9 345.9,229.5 347.1,229.5 348.3,228.1 349.5,228.1 350.7,227.7 351.9,227.7 353.0,226.9 354.2,226.9 355.4,225.1 356.6,225.1 357.8,224.9 359.0,224.9 360.2,223.9 361.3,223.9 362.5,223.4 363.7,223.4 364.9,222.3 366.1,222.3 367.3,221.3 368.5,221.3 369.7,219.7 370.8,219.7 372.0,219.5 373.2,219.5 374.4,218.6 375.6,218.6 376.8,218.1 378.0,218.1 379.1,216.4 380.3,216.4 381.5,215.6 382.7,215.6 383.9,214.2 385.1,214.2 386.3,213.4 387.5,213.4 388.6,212.6 389.8,212.6 391.0,211.3 392.2,211.3 393.4,210.5 394.6,210.5 395.8,209.3 396.9,209.3 398.1,208.7 399.3,208.7 400.5,206.8 401.7,206.8 402.9,206.5 404.1,206.5 405.3,204.9 406.4,204.9 407.6,204.4 408.8,204.4 410.0,202.8 411.2,202.8 412.4,201.3 413.6,201.3 414.7,201.3 415.9,201.3 417.1,200.1 418.3,200.1 419.5,199.0 420.7,199.0 421.9,197.5 423.1,197.5 424.2,196.7 425.4,196.7 426.6,195.4 427.8,195.4 429.0,194.4 430.2,194.4 431.4,193.6 432.5,193.6 433.7,191.9 434.9,191.9 436.1,191.2 437.3,191.2 438.5,189.7 439.7,189.7 440.9,188.7 442.0,188.7 443.2,187.8 444.4,187.8 445.6,186.6 446.8,186.6 448.0,185.6 449.2,185.6 450.3,184.5 451.5,184.5 452.7,183.3 453.9,183.3 455.1,181.7 456.3,181.7 457.5,180.5 458.7,180.5 459.8,179.5 461.0,179.5 462.2,178.5 463.4,178.5 464.6,177.5 465.8,177.5 467.0,175.6 468.1,175.6 469.3,174.6 470.5,174.6 471.7,173.3 472.9,173.3 474.1,172.4 475.3,172.4 476.5,170.9 477.6,170.9 478.8,170.7 480.0,170.7 481.2,169.0 482.4,169.0 483.6,167.9 484.8,167.9 485.9,167.1 487.1,167.1 488.3,165.4 489.5,165.4 490.7,165.2 491.9,165.2 493.1,163.8 494.3,163.8 495.4,162.2 496.6,162.2 497.8,161.0 499.0,161.0 500.2,159.8 501.4,159.8 502.6,157.8 503.7,157.8 504.9,157.8 506.1,157.8 507.3,156.4 508.5,156.4 509.7,155.3 510.9,155.3 512.1,154.2 513.2,154.2 514.4,152.8 515.6,152.8 516.8,152.0 518.0,152.0 519.2,150.4 520.4,150.4 521.5,148.8 522.7,148.8 523.9,148.5 525.1,148.5 526.3,146.7 527.5,146.7 528.7,146.0 529.9,146.0 531.0,144.6 532.2,144.6 533.4,143.5 534.6,143.5 535.8,142.1 537.0,142.1 538.2,141.2 539.3,141.2 540.5,140.1 541.7,140.1 542.9,138.5 544.1,138.5 545.3,137.9 546.5,137.9 547.7,136.2 548.8,136.2 550.0,135.8 551.2,135.8 552.4,134.6 553.6,134.6 554.8,133.0 556.0,133.0 557.1,131.4 558.3,131.4 559.5,131.0 560.7,131.0 561.9,129.1 563.1,129.1 564.3,128.2 565.5,128.2 566.6,127.7 567.8,127.7 569.0,126.0 570.2,126.0 571.4,124.3 572.6,124.3 573.8,123.7 574.9,123.7 576.1,121.9 577.3,121.9 578.5,120.9 579.7,120.9 580.9,120.2 582.1,120.2 583.3,118.4 584.4,118.4 585.6,118.3 586.8,118.3 588.0,116.6 589.2,116.6 590.4,115.2 591.6,115.2 592.7,114.9 593.9,114.9 595.1,112.7 596.3,112.7 597.5,112.4 598.7,112.4 599.9,111.7 601.1,111.7 602.2,110.5 603.4,110.5 604.6,109.1 605.8,109.1 607.0,108.1 608.2,108.1 609.4,106.8 610.5,106.8 611.7,105.6 612.9,105.6 614.1,104.5 615.3,104.5 616.5,104.1 617.7,104.1 618.9,103.0 620.0,103.0 621.2,102.0 622.4,102.0 623.6,100.9 624.8,100.9 626.0,99.4 627.2,99.4 628.3,100.0 629.5,100.0 630.7,98.0 631.9,98.0 633.1,97.2 634.3,97.2 635.5,96.0 636.7,96.0 637.8,95.5 639.0,95.5 640.2,94.3 641.4,94.3 642.6,93.5 643.8,93.5 645.0,92.6 646.1,92.6 647.3,91.4 648.5,91.4 649.7,90.3 650.9,90.3 652.1,89.6 653.3,89.6 654.5,88.8 655.6,88.8 656.8,87.2 658.0,87.2 659.2,86.8 660.4,86.8 661.6,85.8 662.8,85.8 663.9,84.5 665.1,84.5 666.3,84.4 667.5,84.4 668.7,83.0 669.9,83.0 671.1,81.6 672.3,81.6 673.4,81.0 674.6,81.0 675.8,81.4 677.0,81.4 678.2,79.6 679.4,79.6 680.6,79.0 681.7,79.0 682.9,77.9 684.1,77.9 685.3,77.1 686.5,77.1 687.7,77.2 688.9,77.2 690.1,75.5 691.2,75.5 692.4,74.6 693.6,74.6 694.8,74.3 696.0,74.3 697.2,73.0 698.4,73.0 699.5,72.3 700.7,72.3 701.9,71.5 703.1,71.5 704.3,71.5 705.5,71.5 706.7,70.0 707.9,70.0 709.0,69.7 710.2,69.7 711.4,69.2 712.6,69.2 713.8,67.7 715.0,67.7 716.2,67.7 717.3,67.7 718.5,65.9 719.7,65.9 720.9,65.9 722.1,65.9 723.3,65.5 724.5,65.5 725.7,63.9 726.8,63.9 728.0,63.4 729.2,63.4 730.4,62.9 731.6,62.9 732.8,62.6 734.0,62.6 735.1,61.9 736.3,61.9 737.5,60.3 738.7,60.3 739.9,60.9 741.1,60.9 742.3,60.2 743.5,60.2 744.6,60.1 745.8,60.1 747.0,58.7 748.2,58.7 749.4,57.8 750.6,57.8 751.8,57.5 752.9,57.5 754.1,57.8 755.3,57.8 756.5,56.6 757.7,56.6 758.9,56.1 760.1,56.1 761.3,55.5 762.4,55.5 763.6,55.3 764.8,55.3 766.0,54.0"/>
<line x1="606" y1="60" x2="628" y2="60" stroke="#24a148" stroke-width="2.2"/>
<text x="634" y="64" font-family="Arial" font-size="12">baro_alt_m</text>
</svg>