<svg xmlns="http://www.w3.org/2000/svg" width="820" height="320" viewBox="0 0 820 320">
<rect width="100%" height="100%" fill="#ffffff"/>
<text x="54" y="28" font-family="Arial" font-size="18" font-weight="700">Speed</text>
<line x1="54" y1="266" x2="766" y2="266" stroke="#1f2933"/>
<line x1="54" y1="54" x2="54" y2="266" stroke="#1f2933"/>
<text x="54" y="306" font-family="Arial" font-size="12">time (s)</text>
<text x="596" y="306" font-family="Arial" font-size="12">speed (m/s)</text>
<text x="58" y="68" font-family="Arial" font-size="11">194</text>
<text x="58" y="260" font-family="Arial" font-size="11">87.5</text>
<polyline fill="none" stroke="#0f62fe" stroke-width="2.2" points="54.0,266.0 55.2,265.1 56.4,264.1 57.6,263.1 58.7,262.1 59.9,261.1 61.1,260.0 62.3,259.0 63.5,257.9 64.7,256.8 65.9,255.7 67.1,254.6 68.2,253.4 69.4,252.3 70.6,251.1 71.8,249.9 73.0,248.7 74.2,247.5 75.4,246.3 76.5,245.1 77.7,243.9 78.9,242.7 80.1,241.5 81.3,240.3 82.5,239.2 83.7,238.0 84.9,236.8 86.0,235.6 87.2,234.4 88.4,233.2 89.6,232.0 90.8,230.9 92.0,229.7 93.2,228.5 94.3,227.3 95.5,226.1 96.7,225.0 97.9,223.8 99.1,222.6 100.3,221.4 101.5,220.3 102.7,219.1 103.8,217.9 105.0,216.7 106.2,215.6 107.4,214.4 108.6,213.2 109.8,212.1 111.0,210.9 112.1,209.7 113.3,208.6 114.5,207.4 115.7,206.3 116.9,205.1 118.1,203.9 119.3,202.8 120.5,201.6 121.6,200.5 122.8,199.3 124.0,198.2 125.2,197.0 126.4,195.9 127.6,194.7 128.8,193.6 129.9,192.4 131.1,191.3 132.3,190.2 133.5,189.0 134.7,187.9 135.9,186.7 137.1,185.6 138.3,184.5 139.4,183.3 140.6,182.2 141.8,181.1 143.0,179.9 144.2,178.8 145.4,177.7 146.6,176.6 147.7,175.4 148.9,174.3 150.1,173.2 151.3,172.1 152.5,171.0 153.7,169.8 154.9,168.7 156.1,167.6 157.2,166.5 158.4,165.4 159.6,164.3 160.8,163.2 162.0,162.1 163.2,161.0 164.4,159.9 165.5,158.8 166.7,157.7 167.9,156.6 169.1,155.5 170.3,154.4 171.5,153.4 172.7,152.3 173.9,151.2 175.0,150.1 176.2,149.0 177.4,148.0 178.6,146.9 179.8,145.8 181.0,144.8 182.2,143.7 183.3,142.6 184.5,141.6 185.7,140.5 186.9,139.5 188.1,138.4 189.3,137.4 190.5,136.3 191.7,135.3 192.8,134.2 194.0,133.2 195.2,132.1 196.4,131.1 197.6,130.1 198.8,129.0 200.0,128.0 201.1,127.0 202.3,125.9 203.5,124.9 204.7,123.9 205.9,122.9 207.1,121.9 208.3,120.8 209.5,119.8 210.6,118.8 211.8,117.8 213.0,116.8 214.2,115.8 215.4,114.8 216.6,113.8 217.8,112.8 218.9,111.8 220.1,110.8 221.3,109.8 222.5,108.8 223.7,107.8 224.9,106.8 226.1,105.8 227.3,104.8 228.4,103.8 229.6,102.9 230.8,101.9 232.0,100.9 233.2,99.9 234.4,98.9 235.6,98.0 236.7,97.0 237.9,96.0 239.1,95.0 240.3,94.1 241.5,93.1 242.7,92.2 243.9,91.2 245.1,90.2 246.2,89.3 247.4,88.3 248.6,87.4 249.8,86.4 251.0,85.4 252.2,84.5 253.4,83.5 254.5,82.6 255.7,81.6 256.9,80.7 258.1,79.8 259.3,78.8 260.5,77.9 261.7,76.9 262.9,76.0 264.0,75.1 265.2,74.1 266.4,73.2 267.6,72.3 268.8,71.3 270.0,70.4 271.2,69.5 272.3,68.5 273.5,67.6 274.7,66.7 275.9,65.8 277.1,64.8 278.3,63.9 279.5,63.0 280.7,62.1 281.8,61.2 283.0,60.3 284.2,59.4 285.4,58.5 286.6,57.6 287.8,56.7 289.0,55.8 290.1,54.9 291.3,54.0 292.5,54.6 293.7,55.1 294.9,55.6 296.1,56.2 297.3,56.7 298.5,57.2 299.6,57.8 300.8,58.3 302.0,58.9 303.2,59.4 304.4,60.0 305.6,60.5 306.8,61.1 307.9,61.6 309.1,62.2 310.3,62.7 311.5,63.3 312.7,63.8 313.9,64.3 315.1,64.8 316.3,65.4 317.4,65.8 318.6,66.4 319.8,66.9 321.0,67.4 322.2,67.9 323.4,68.4 324.6,68.9 325.7,69.4 326.9,69.9 328.1,70.5 329.3,71.0 330.5,71.5 331.7,72.0 332.9,72.5 334.1,73.0 335.2,73.5 336.4,74.0 337.6,74.5 338.8,74.9 340.0,75.4 341.2,75.9 342.4,76.4 343.5,76.9 344.7,77.4 345.9,77.9 347.1,78.4 348.3,78.8 349.5,79.3 350.7,79.8 351.9,80.3 353.0,80.7 354.2,81.2 355.4,81.7 356.6,82.2 357.8,82.6 359.0,83.1 360.2,83.5 361.3,84.0 362.5,84.5 363.7,84.9 364.9,85.4 366.1,85.9 367.3,86.3 368.5,86.7 369.7,87.2 370.8,87.6 372.0,88.1 373.2,88.5 374.4,89.0 375.6,89.4 376.8,89.8 378.0,90.3 379.1,90.7 380.3,91.2 381.5,91.6 382.7,92.0 383.9,92.4 385.1,92.9 386.3,93.3 387.5,93.7 388.6,94.2 389.8,94.6 391.0,95.0 392.2,95.4 393.4,95.8 394.6,96.3 395.8,96.7 396.9,97.1 398.1,97.5 399.3,97.9 400.5,98.3 401.7,98.8 402.9,99.2 404.1,99.6 405.3,100.0 406.4,100.4 407.6,100.8 408.8,101.2 410.0,101.6 411.2,102.0 412.4,102.4 413.6,102.8 414.7,103.2 415.9,103.6 417.1,104.0 418.3,104.4 419.5,104.8 420.7,105.2 421.9,105.6 423.1,106.0 424.2,106.4 425.4,106.8 426.6,107.2 427.8,107.5 429.0,107.9 430.2,108.3 431.4,108.7 432.5,109.1 433.7,109.5 434.9,109.8 436.1,110.2 437.3,110.6 438.5,111.0 439.7,111.4 440.9,111.7 442.0,112.1 443.2,112.5 444.4,112.8 445.6,113.2 446.8,113.6 448.0,113.9 449.2,114.3 450.3,114.7 451.5,115.0 452.7,115.4 453.9,115.8 455.1,116.1 456.3,116.5 457.5,116.8 458.7,117.2 459.8,117.6 461.0,117.9 462.2,118.3 463.4,118.6 464.6,119.0 465.8,119.3 467.0,119.7 468.1,120.0 469.3,120.4 470.5,120.7 471.7,121.1 472.9,121.4 474.1,121.7 475.3,122.1 476.5,122.4 477.6,122.8 478.8,123.1 480.0,123.5 481.2,123.8 482.4,124.1 483.6,124.5 484.8,124.8 485.9,125.1 487.1,125.5 488.3,125.8 489.5,126.2 490.7,126.5 491.9,126.8 493.1,127.2 494.3,127.5 495.4,127.8 496.6,128.1 497.8,128.5 499.0,128.8 500.2,129.1 501.4,129.5 502.6,129.8 503.7,130.1 504.9,130.4 506.1,130.7 507.3,131.1 508.5,131.4 509.7,131.7 510.9,132.0 512.1,132.4 513.2,132.7 514.4,133.0 515.6,133.3 516.8,133.6 518.0,133.9 519.2,134.3 520.4,134.6 521.5,134.9 522.7,135.2 523.9,135.5 525.1,135.8 526.3,136.1 527.5,136.4 528.7,136.7 529.9,137.1 531.0,137.4 532.2,137.7 533.4,138.0 534.6,138.3 535.8,138.6 537.0,138.9 538.2,139.2 539.3,139.5 540.5,139.8 541.7,140.1 542.9,140.4 544.1,140.7 545.3,141.0 546.5,141.3 547.7,141.6 548.8,141.9 550.0,142.2 551.2,142.5 552.4,142.8 553.6,143.1 554.8,143.4 556.0,143.6 557.1,143.9 558.3,144.2 559.5,144.5 560.7,144.8 561.9,145.1 563.1,145.4 564.3,145.7 565.5,146.0 566.6,146.2 567.8,146.5 569.0,146.8 570.2,147.1 571.4,147.4 572.6,147.7 573.8,147.9 574.9,148.2 576.1,148.5 577.3,148.8 578.5,149.1 579.7,149.3 580.9,149.6 582.1,149.9 583.3,150.2 584.4,150.4 585.6,150.7 586.8,151.0 588.0,151.3 589.2,151.5 590.4,151.8 591.6,152.1 592.7,152.4 593.9,152.6 595.1,152.9 596.3,153.2 597.5,153.4 598.7,153.7 599.9,154.0 601.1,154.2 602.2,154.5 603.4,154.8 604.6,155.0 605.8,155.3 607.0,155.5 608.2,155.8 609.4,156.1 610.5,156.3 611.7,156.6 612.9,156.9 614.1,157.1 615.3,157.4 616.5,157.6 617.7,157.9 618.9,158.1 620.0,158.4 621.2,158.6 622.4,158.9 623.6,159.2 624.8,159.4 626.0,159.7 627.2,159.9 628.3,160.2 629.5,160.4 630.7,160.7 631.9,160.9 633.1,161.2 634.3,161.4 635.5,161.7 636.7,161.9 637.8,162.1 639.0,162.4 640.2,162.6 641.4,162.9 642.6,163.1 643.8,163.4 645.0,163.6 646.1,163.8 647.3,164.1 648.5,164.3 649.7,164.6 650.9,164.8 652.1,165.0 653.3,165.3 654.5,165.5 655.6,165.8 656.8,166.0 658.0,166.2 659.2,166.5 660.4,166.7 661.6,166.9 662.8,167.2 663.9,167.4 665.1,167.6 666.3,167.9 667.5,168.1 668.7,168.3 669.9,168.5 671.1,168.8 672.3,169.0 673.4,169.2 674.6,169.5 675.8,169.7 677.0,169.9 678.2,170.1 679.4,170.4 680.6,170.6 681.7,170.8 682.9,171.0 684.1,171.2 685.3,171.5 686.5,171.7 687.7,171.9 688.9,172.1 690.1,172.3 691.2,172.6 692.4,172.8 693.6,173.0 694.8,173.2 696.0,173.4 697.2,173.7 698.4,173.9 699.5,174.1 700.7,174.3 701.9,174.5 703.1,174.7 704.3,175.0 705.5,175.2 706.7,175.4 707.9,175.6 709.0,175.8 710.2,176.0 711.4,176.3 712.6,176.5 713.8,176.7 715.0,176.9 716.2,177.1 717.3,177.3 718.5,177.5 719.7,177.7 720.9,178.0 722.1,178.2 723.3,178.4 724.5,178.6 725.7,178.8 726.8,179.0 728.0,179.2 729.2,179.4 730.4,179.6 731.6,179.9 732.8,180.1 734.0,180.3 735.1,180.5 736.3,180.7 737.5,180.9 738.7,181.1 739.9,181.3 741.1,181.5 742.3,181.7 743.5,181.9 744.6,182.1 745.8,182.3 747.0,182.6 748.2,182.8 749.4,183.0 750.6,183.2 751.8,183.4 752.9,183.6 754.1,183.8 755.3,184.0 756.5,184.2 757.7,184.4 758.9,184.6 760.1,184.8 761.3,185.0 762.4,185.2 763.6,185.4 764.8,185.6 766.0,185.8"/>
<line x1="606" y1="42" x2="628" y2="42" stroke="#0f62fe" stroke-width="2.2"/>
<text x="634" y="46" font-family="Arial" font-size="12">speed_mps</text>
<polyline fill="none" stroke="#24a148" stroke-width="2.2" points="54.0,266.0 55.2,265.1 56.4,264.1 57.6,263.1 58.7,262.1 59.9,261.1 61.1,260.0 62.3,259.0 63.5,257.9 64.7,256.8 65.9,255.7 67.1,254.6 68.2,253.4 69.4,252.3 70.6,251.1 71.8,249.9 73.0,248.7 74.2,247.5 75.4,246.3 76.5,245.1 77.7,243.9 78.9,242.7 80.1,241.5 81.3,240.3 82.5,239.2 83.7,238.0 84.9,236.8 86.0,235.6 87.2,234.4 88.4,233.2 89.6,232.0 90.8,230.9 92.0,229.7 93.2,228.5 94.3,227.3 95.5,226.1 96.7,225.0 97.9,223.8 99.1,222.6 100.3,221.4 101.5,220.3 102.7,219.1 103.8,217.9 105.0,216.7 106.2,215.6 107.4,214.4 108.6,213.2 109.8,212.1 111.0,210.9 112.1,209.7 113.3,208.6 114.5,207.4 115.7,206.3 116.9,205.1 118.1,203.9 119.3,202.8 120.5,201.6 121.6,200.5 122.8,199.3 124.0,198.2 125.2,197.0 126.4,195.9 127.6,194.7 128.8,193.6 129.9,192.4 131.1,191.3 132.3,190.2 133.5,189.0 134.7,187.9 135.9,186.7 137.1,185.6 138.3,184.5 139.4,183.3 140.6,182.2 141.8,181.1 143.0,179.9 144.2,178.8 145.4,177.7 146.6,176.6 147.7,175.4 148.9,174.3 150.1,173.2 151.3,172.1 152.5,171.0 153.7,169.8 154.9,168.7 156.1,167.6 157.2,166.5 158.4,165.4 159.6,164.3 160.8,163.2 162.0,162.1 163.2,161.0 164.4,159.9 165.5,158.8 166.7,157.7 167.9,156.6 169.1,155.5 170.3,154.4 171.5,153.4 172.7,152.3 173.9,151.2 175.0,150.1 176.2,149.0 177.4,148.0 178.6,146.9 179.8,145.8 181.0,144.8 182.2,143.7 183.3,142.6 184.5,141.6 185.7,140.5 186.9,139.5 188.1,138.4 189.3,137.4 190.5,136.3 191.7,135.3 192.8,134.2 194.0,133.2 195.2,132.1 196.4,131.1 197.6,130.1 198.8,129.0 200.0,128.0 201.1,127.0 202.3,125.9 203.5,124.9 204.7,123.9 205.9,122.9 207.1,121.9 208.3,120.8 209.5,119.8 210.6,118.8 211.8,117.8 213.0,116.8 214.2,115.8 215.4,114.8 216.6,113.8 217.8,112.8 218.9,111.8 220.1,110.8 221.3,109.8 222.5,108.8 223.7,107.8 224.9,106.8 226.1,105.8 227.3,104.8 228.4,103.8 229.6,102.9 230.8,101.9 232.0,100.9 233.2,99.9 234.4,98.9 235.6,98.0 236.7,97.0 237.9,96.0 239.1,95.0 240.3,94.1 241.5,93.1 242.7,92.2 243.9,91.2 245.1,90.2 246.2,89.3 247.4,88.3 248.6,87.4 249.8,86.4 251.0,85.4 252.2,84.5 253.4,83.5 254.5,82.6 255.7,81.6 256.9,80.7 258.1,79.8 259.3,78.8 260.5,77.9 261.7,76.9 262.9,76.0 264.0,75.1 265.2,74.1 266.4,73.2 267.6,72.3 268.8,71.3 270.0,70.4 271.2,69.5 272.3,68.5 273.5,67.6 274.7,66.7 275.9,65.8 277.1,64.8 278.3,63.9 279.5,63.0 280.7,62.1 281.8,61.2 283.0,60.3 284.2,59.4 285.4,58.5 286.6,57.6 287.8,56.7 289.0,55.8 290.1,54.9 291.3,54.0 292.5,54.6 293.7,55.1 294.9,55.6 296.1,56.2 297.3,56.7 298.5,57.2 299.6,57.8 300.8,58.3 302.0,58.9 303.2,59.4 304.4,60.0 305.6,60.5 306.8,61.1 307.9,61.6 309.1,62.2 310.3,62.7 311.5,63.3 312.7,63.8 313.9,64.3 315.1,64.8 316.3,65.4 317.4,65.8 318.6,66.4 319.8,66.9 321.0,67.4 322.2,67.9 323.4,68.4 324.6,68.9 325.7,69.4 326.9,69.9 328.1,70.5 329.3,71.0 330.5,71.5 331.7,72.0 332.9,72.5 334.1,73.0 335.2,73.5 336.4,74.0 337.6,74.5 338.8,74.9 340.0,75.4 341.2,75.9 342.4,76.4 343.5,76.9 344.7,77.4 345.9,77.9 347.1,78.4 348.3,78.8 349.5,79.3 350.7,79.8 351.9,80.3 353.0,80.7 354.2,81.2 355.4,81.7 356.6,82.2 357.8,82.6 359.0,83.1 360.2,83.5 361.3,84.0 362.5,84.5 363.7,84.9 364.9,85.4 366.1,85.9 367.3,86.3 368.5,86.7 369.7,87.2 370.8,87.6 372.0,88.1 373.2,88.5 374.4,89.0 375.6,89.4 376.8,89.8 378.0,90.3 379.1,90.7 380.3,91.2 381.5,91.6 382.7,92.0 383.9,92.4 385.1,92.9 386.3,93.3 387.5,93.7 388.6,94.2 389.8,94.6 391.0,95.0 392.2,95.4 393.4,95.8 394.6,96.3 395.8,96.7 396.9,97.1 398.1,97.5 399.3,97.9 400.5,98.3 401.7,98.8 402.9,99.2 404.1,99.6 405.3,100.0 406.4,100.4 407.6,100.8 408.8,101.2 410.0,101.6 411.2,102.0 412.4,102.4 413.6,102.8 414.7,103.2 415.9,103.6 417.1,104.0 418.3,104.4 419.5,104.8 420.7,105.2 421.9,105.6 423.1,106.0 424.2,106.4 425.4,106.8 426.6,107.2 427.8,107.5 429.0,107.9 430.2,108.3 431.4,108.7 432.5,109.1 433.7,109.5 434.9,109.8 436.1,110.2 437.3,110.6 438.5,111.0 439.7,111.4 440.9,111.7 442.0,112.1 443.2,112.5 444.4,112.8 445.6,113.2 446.8,113.6 448.0,113.9 449.2,114.3 450.3,114.7 451.5,115.0 452.7,115.4 453.9,115.8 455.1,116.1 456.3,116.5 457.5,116.8 458.7,117.2 459.8,117.6 461.0,117.9 462.2,118.3 463.4,118.6 464.6,119.0 465.8,119.3 467.0,119.7 468.1,120.0 469.3,120.4 470.5,120.7 471.7,121.1 472.9,121.4 474.1,121.7 475.3,122.1 476.5,122.4 477.6,122.8 478.8,123.1 480.0,123.5 481.2,123.8 482.4,124.1 483.6,124.5 484.8,124.8 485.9,125.1 487.1,125.5 488.3,125.8 489.5,126.2 490.7,126.5 491.9,126.8 493.1,127.2 494.3,127.5 495.4,127.8 496.6,128.1 497.8,128.5 499.0,128.8 500.2,129.1 501.4,129.5 502.6,129.8 503.7,130.1 504.9,130.4 506.1,130.7 507.3,131.1 508.5,131.4 509.7,131.7 510.9,132.0 512.1,132.4 513.2,132.7 514.4,133.0 515.6,133.3 516.8,133.6 518.0,133.9 519.2,134.3 520.4,134.6 521.5,134.9 522.7,135.2 523.9,135.5 525.1,135.8 526.3,136.1 527.5,136.4 528.7,136.7 529.9,137.1 531.0,137.4 532.2,137.7 533.4,138.0 534.6,138.3 535.8,138.6 537.0,138.9 538.2,139.2 539.3,139.5 540.5,139.8 541.7,140.1 542.9,140.4 544.1,140.7 545.3,141.0 546.5,141.3 547.7,141.6 548.8,141.9 550.0,142.2 551.2,142.5 552.4,142.8 553.6,143.1 554.8,143.4 556.0,143.6 557.1,143.9 558.3,144.2 559.5,144.5 560.7,144.8 561.9,145.1 563.1,145.4 564.3,145.7 565.5,146.0 566.6,146.2 567.8,146.5 569.0,146.8 570.2,147.1 571.4,147.4 572.6,147.7 573.8,147.9 574.9,148.2 576.1,148.5 577.3,148.8 578.5,149.1 579.7,149.3 580.9,149.6 582.1,149.9 583.3,150.2 584.4,150.4 585.6,150.7 586.8,151.0 588.0,151.3 589.2,151.5 590.4,151.8 591.6,152.1 592.7,152.4 593.9,152.6 595.1,152.9 596.3,153.2 597.5,153.4 598.7,153.7 599.9,154.0 601.1,154.2 602.2,154.5 603.4,154.8 604.6,155.0 605.8,155.3 607.0,155.5 608.2,155.8 609.4,156.1 610.5,156.3 611.7,156.6 612.9,156.9 614.1,157.1 615.3,157.4 616.5,157.6 617.7,157.9 618.9,158.1 620.0,158.4 621.2,158.6 622.4,158.9 623.6,159.2 624.8,159.4 626.0,159.7 627.2,159.9 628.3,160.2 629.5,160.4 630.7,160.7 631.9,160.9 633.1,161.2 634.3,161.4 635.5,161.7 636.7,161.9 637.8,162.1 639.0,162.4 640.2,162.6 641.4,162.9 642.6,163.1 643.8,163.4 645.0,163.6 646.1,163.8 647.3,164.1 648.5,164.3 649.7,164.6 650.9,164.8 652.1,165.0 653.3,165.3 654.5,165.5 655.6,165.8 656.8,166.0 658.0,166.2 659.2,166.5 660.4,166.7 661.6,166.9 662.8,167.2 663.9,167.4 665.1,167.6 666.3,167.9 667.5,168.1 668.7,168.3 669.9,168.5 671.1,168.8 672.3,169.0 673.4,169.2 674.6,169.5 675.8,169.7 677.0,169.9 678.2,170.1 679.4,170.4 680.6,170.6 681.7,170.8 682.9,171.0 684.1,171.2 685.3,171.5 686.5,171.7 687.7,171.9 688.9,172.1 690.1,172.3 691.2,172.6 692.4,172.8 693.6,173.0 694.8,173.2 696.0,173.4 697.2,173.7 698.4,173.9 699.5,174.1 700.7,174.3 701.9,174.5 703.1,174.7 704.3,175.0 705.5,175.2 706.7,175.4 707.9,175.6 709.0,175.8 710.2,176.0 711.4,176.3 712.6,176.5 713.8,176.7 715.0,176.9 716.2,177.1 717.3,177.3 718.5,177.5 719.7,177.7 720.9,178.0 722.1,178.2 723.3,178.4 724.5,178.6 725.7,178.8 726.8,179.0 728.0,179.2 729.2,179.4 730.4,179.6 731.6,179.9 732.8,180.1 734.0,180.3 735.1,180.5 736.3,180.7 737.5,180.9 738.7,181.1 739.9,181.3 741.1,181.5 742.3,181.7 743.5,181.9 744.6,182.1 745.8,182.3 747.0,182.6 748.2,182.8 749.4,183.0 750.6,183.2 751.8,183.4 752.9,183.6 754.1,183.8 755.3,184.0 756.5,184.2 757.7,184.4 758.9,184.6 760.1,184.8 761.3,185.0 762.4,185.2 763.6,185.4 764.8,185.6 766.0,185.8"/>
<line x1="606" y1="60" x2="628" y2="60" stroke="#24a148" stroke-width="2.2"/>
<text x="634" y="64" font-family="Arial" font-size="12">airspeed_mps</text>
</svg>