<svg xmlns="http://www.w3.org/2000/svg" width="820" height="320" viewBox="0 0 820 320">
<rect width="100%" height="100%" fill="#ffffff"/>
<text x="54" y="28" font-family="Arial" font-size="18" font-weight="700">Mach Number</text>
<line x1="54" y1="266" x2="766" y2="266" stroke="#1f2933"/>
<line x1="54" y1="54" x2="54" y2="266" stroke="#1f2933"/>
<text x="54" y="306" font-family="Arial" font-size="12">time (s)</text>
<text x="596" y="306" font-family="Arial" font-size="12">Mach</text>
<text x="58" y="68" font-family="Arial" font-size="11">0.57</text>
<text x="58" y="260" font-family="Arial" font-size="11">0.257</text>
<polyline fill="none" stroke="#0f62fe" stroke-width="2.2" points="54.0,266.0 55.2,265.1 56.4,264.1 57.6,263.1 58.7,262.1 59.9,261.1 61.1,260.0 62.3,259.0 63.5,257.9 64.7,256.8 65.9,255.7 67.1,254.6 68.2,253.4 69.4,252.3 70.6,251.1 71.8,249.9 73.0,248.7 74.2,247.5 75.4,246.3 76.5,245.1 77.7,243.9 78.9,242.7 80.1,241.5 81.3,240.4 82.5,239.2 83.7,238.0 84.9,236.8 86.0,235.6 87.2,234.4 88.4,233.3 89.6,232.1 90.8,230.9 92.0,229.7 93.2,228.5 94.3,227.4 95.5,226.2 96.7,225.0 97.9,223.8 99.1,222.6 100.3,221.5 101.5,220.3 102.7,219.1 103.8,218.0 105.0,216.8 106.2,215.6 107.4,214.5 108.6,213.3 109.8,212.1 111.0,211.0 112.1,209.8 113.3,208.6 114.5,207.5 115.7,206.3 116.9,205.1 118.1,204.0 119.3,202.8 120.5,201.7 121.6,200.5 122.8,199.4 124.0,198.2 125.2,197.1 126.4,195.9 127.6,194.8 128.8,193.6 129.9,192.5 131.1,191.3 132.3,190.2 133.5,189.1 134.7,187.9 135.9,186.8 137.1,185.7 138.3,184.5 139.4,183.4 140.6,182.3 141.8,181.1 143.0,180.0 144.2,178.9 145.4,177.7 146.6,176.6 147.7,175.5 148.9,174.4 150.1,173.3 151.3,172.1 152.5,171.0 153.7,169.9 154.9,168.8 156.1,167.7 157.2,166.6 158.4,165.5 159.6,164.4 160.8,163.3 162.0,162.2 163.2,161.1 164.4,160.0 165.5,158.9 166.7,157.8 167.9,156.7 169.1,155.6 170.3,154.5 171.5,153.4 172.7,152.4 173.9,151.3 175.0,150.2 176.2,149.1 177.4,148.0 178.6,147.0 179.8,145.9 181.0,144.8 182.2,143.8 183.3,142.7 184.5,141.7 185.7,140.6 186.9,139.5 188.1,138.5 189.3,137.4 190.5,136.4 191.7,135.3 192.8,134.3 194.0,133.3 195.2,132.2 196.4,131.2 197.6,130.1 198.8,129.1 200.0,128.1 201.1,127.0 202.3,126.0 203.5,125.0 204.7,124.0 205.9,122.9 207.1,121.9 208.3,120.9 209.5,119.9 210.6,118.9 211.8,117.9 213.0,116.9 214.2,115.9 215.4,114.8 216.6,113.8 217.8,112.8 218.9,111.8 220.1,110.8 221.3,109.8 222.5,108.9 223.7,107.9 224.9,106.9 226.1,105.9 227.3,104.9 228.4,103.9 229.6,102.9 230.8,101.9 232.0,101.0 233.2,100.0 234.4,99.0 235.6,98.0 236.7,97.1 237.9,96.1 239.1,95.1 240.3,94.1 241.5,93.2 242.7,92.2 243.9,91.2 245.1,90.3 246.2,89.3 247.4,88.4 248.6,87.4 249.8,86.5 251.0,85.5 252.2,84.5 253.4,83.6 254.5,82.6 255.7,81.7 256.9,80.7 258.1,79.8 259.3,78.9 260.5,77.9 261.7,77.0 262.9,76.0 264.0,75.1 265.2,74.2 266.4,73.2 267.6,72.3 268.8,71.4 270.0,70.4 271.2,69.5 272.3,68.6 273.5,67.6 274.7,66.7 275.9,65.8 277.1,64.8 278.3,63.9 279.5,63.0 280.7,62.1 281.8,61.2 283.0,60.3 284.2,59.4 285.4,58.5 286.6,57.6 287.8,56.7 289.0,55.8 290.1,54.9 291.3,54.0 292.5,54.6 293.7,55.1 294.9,55.6 296.1,56.2 297.3,56.7 298.5,57.2 299.6,57.8 300.8,58.3 302.0,58.8 303.2,59.4 304.4,59.9 305.6,60.5 306.8,61.0 307.9,61.6 309.1,62.1 310.3,62.7 311.5,63.2 312.7,63.7 313.9,64.3 315.1,64.8 316.3,65.3 317.4,65.8 318.6,66.3 319.8,66.8 321.0,67.3 322.2,67.8 323.4,68.3 324.6,68.8 325.7,69.3 326.9,69.8 328.1,70.4 329.3,70.9 330.5,71.4 331.7,71.9 332.9,72.4 334.1,72.9 335.2,73.4 336.4,73.8 337.6,74.3 338.8,74.8 340.0,75.3 341.2,75.8 342.4,76.3 343.5,76.8 344.7,77.3 345.9,77.7 347.1,78.2 348.3,78.7 349.5,79.2 350.7,79.6 351.9,80.1 353.0,80.6 354.2,81.1 355.4,81.5 356.6,82.0 357.8,82.5 359.0,82.9 360.2,83.4 361.3,83.9 362.5,84.3 363.7,84.8 364.9,85.2 366.1,85.7 367.3,86.1 368.5,86.6 369.7,87.0 370.8,87.5 372.0,87.9 373.2,88.3 374.4,88.8 375.6,89.2 376.8,89.6 378.0,90.1 379.1,90.5 380.3,91.0 381.5,91.4 382.7,91.8 383.9,92.2 385.1,92.7 386.3,93.1 387.5,93.5 388.6,93.9 389.8,94.4 391.0,94.8 392.2,95.2 393.4,95.6 394.6,96.0 395.8,96.5 396.9,96.9 398.1,97.3 399.3,97.7 400.5,98.1 401.7,98.5 402.9,98.9 404.1,99.4 405.3,99.7 406.4,100.2 407.6,100.6 408.8,101.0 410.0,101.4 411.2,101.8 412.4,102.2 413.6,102.6 414.7,103.0 415.9,103.4 417.1,103.8 418.3,104.2 419.5,104.5 420.7,104.9 421.9,105.3 423.1,105.7 424.2,106.1 425.4,106.5 426.6,106.9 427.8,107.3 429.0,107.6 430.2,108.0 431.4,108.4 432.5,108.8 433.7,109.2 434.9,109.6 436.1,109.9 437.3,110.3 438.5,110.7 439.7,111.1 440.9,111.4 442.0,111.8 443.2,112.2 444.4,112.6 445.6,112.9 446.8,113.3 448.0,113.6 449.2,114.0 450.3,114.4 451.5,114.7 452.7,115.1 453.9,115.5 455.1,115.8 456.3,116.2 457.5,116.5 458.7,116.9 459.8,117.2 461.0,117.6 462.2,118.0 463.4,118.3 464.6,118.7 465.8,119.0 467.0,119.4 468.1,119.7 469.3,120.0 470.5,120.4 471.7,120.7 472.9,121.1 474.1,121.4 475.3,121.8 476.5,122.1 477.6,122.5 478.8,122.8 480.0,123.1 481.2,123.5 482.4,123.8 483.6,124.1 484.8,124.5 485.9,124.8 487.1,125.2 488.3,125.5 489.5,125.8 490.7,126.2 491.9,126.5 493.1,126.8 494.3,127.1 495.4,127.5 496.6,127.8 497.8,128.1 499.0,128.5 500.2,128.8 501.4,129.1 502.6,129.4 503.7,129.8 504.9,130.1 506.1,130.4 507.3,130.7 508.5,131.0 509.7,131.4 510.9,131.7 512.1,132.0 513.2,132.3 514.4,132.6 515.6,133.0 516.8,133.3 518.0,133.6 519.2,133.9 520.4,134.2 521.5,134.5 522.7,134.8 523.9,135.2 525.1,135.5 526.3,135.8 527.5,136.1 528.7,136.4 529.9,136.7 531.0,137.0 532.2,137.3 533.4,137.6 534.6,137.9 535.8,138.2 537.0,138.5 538.2,138.8 539.3,139.1 540.5,139.4 541.7,139.7 542.9,140.0 544.1,140.3 545.3,140.6 546.5,140.9 547.7,141.2 548.8,141.5 550.0,141.8 551.2,142.1 552.4,142.4 553.6,142.7 554.8,143.0 556.0,143.3 557.1,143.6 558.3,143.9 559.5,144.2 560.7,144.5 561.9,144.7 563.1,145.0 564.3,145.3 565.5,145.6 566.6,145.9 567.8,146.2 569.0,146.5 570.2,146.7 571.4,147.0 572.6,147.3 573.8,147.6 574.9,147.9 576.1,148.1 577.3,148.4 578.5,148.7 579.7,149.0 580.9,149.3 582.1,149.5 583.3,149.8 584.4,150.1 585.6,150.4 586.8,150.6 588.0,150.9 589.2,151.2 590.4,151.5 591.6,151.7 592.7,152.0 593.9,152.3 595.1,152.5 596.3,152.8 597.5,153.1 598.7,153.3 599.9,153.6 601.1,153.9 602.2,154.1 603.4,154.4 604.6,154.7 605.8,154.9 607.0,155.2 608.2,155.5 609.4,155.7 610.5,156.0 611.7,156.2 612.9,156.5 614.1,156.8 615.3,157.0 616.5,157.3 617.7,157.5 618.9,157.8 620.0,158.0 621.2,158.3 622.4,158.6 623.6,158.8 624.8,159.1 626.0,159.3 627.2,159.6 628.3,159.8 629.5,160.1 630.7,160.3 631.9,160.6 633.1,160.8 634.3,161.1 635.5,161.3 636.7,161.6 637.8,161.8 639.0,162.0 640.2,162.3 641.4,162.5 642.6,162.8 643.8,163.0 645.0,163.3 646.1,163.5 647.3,163.8 648.5,164.0 649.7,164.2 650.9,164.5 652.1,164.7 653.3,164.9 654.5,165.2 655.6,165.4 656.8,165.7 658.0,165.9 659.2,166.1 660.4,166.4 661.6,166.6 662.8,166.8 663.9,167.1 665.1,167.3 666.3,167.5 667.5,167.8 668.7,168.0 669.9,168.2 671.1,168.4 672.3,168.7 673.4,168.9 674.6,169.1 675.8,169.4 677.0,169.6 678.2,169.8 679.4,170.0 680.6,170.3 681.7,170.5 682.9,170.7 684.1,170.9 685.3,171.1 686.5,171.4 687.7,171.6 688.9,171.8 690.1,172.0 691.2,172.3 692.4,172.5 693.6,172.7 694.8,172.9 696.0,173.1 697.2,173.3 698.4,173.6 699.5,173.8 700.7,174.0 701.9,174.2 703.1,174.4 704.3,174.7 705.5,174.9 706.7,175.1 707.9,175.3 709.0,175.5 710.2,175.7 711.4,176.0 712.6,176.2 713.8,176.4 715.0,176.6 716.2,176.8 717.3,177.0 718.5,177.2 719.7,177.5 720.9,177.7 722.1,177.9 723.3,178.1 724.5,178.3 725.7,178.5 726.8,178.7 728.0,178.9 729.2,179.2 730.4,179.4 731.6,179.6 732.8,179.8 734.0,180.0 735.1,180.2 736.3,180.4 737.5,180.6 738.7,180.8 739.9,181.0 741.1,181.2 742.3,181.5 743.5,181.7 744.6,181.9 745.8,182.1 747.0,182.3 748.2,182.5 749.4,182.7 750.6,182.9 751.8,183.1 752.9,183.3 754.1,183.5 755.3,183.7 756.5,183.9 757.7,184.1 758.9,184.3 760.1,184.5 761.3,184.7 762.4,184.9 763.6,185.1 764.8,185.3 766.0,185.6"/>
<line x1="606" y1="42" x2="628" y2="42" stroke="#0f62fe" stroke-width="2.2"/>
<text x="634" y="46" font-family="Arial" font-size="12">mach</text>
</svg>