<svg xmlns="http://www.w3.org/2000/svg" width="820" height="320" viewBox="0 0 820 320">
<rect width="100%" height="100%" fill="#ffffff"/>
<text x="54" y="28" font-family="Arial" font-size="18" font-weight="700">Velocity X</text>
<line x1="54" y1="266" x2="766" y2="266" stroke="#1f2933"/>
<line x1="54" y1="54" x2="54" y2="266" stroke="#1f2933"/>
<text x="54" y="306" font-family="Arial" font-size="12">time (s)</text>
<text x="596" y="306" font-family="Arial" font-size="12">vx (m/s)</text>
<text x="58" y="68" font-family="Arial" font-size="11">263</text>
<text x="58" y="260" font-family="Arial" font-size="11">85</text>
<polyline fill="none" stroke="#0f62fe" stroke-width="2.2" points="54.0,266.0 55.2,265.4 56.4,264.8 57.6,264.2 58.7,263.5 59.9,262.9 61.1,262.2 62.3,261.6 63.5,260.9 64.7,260.2 65.9,259.6 67.1,258.9 68.2,258.2 69.4,257.4 70.6,256.7 71.8,256.0 73.0,255.3 74.2,254.5 75.4,253.8 76.5,253.1 77.7,252.4 78.9,251.7 80.1,250.9 81.3,250.2 82.5,249.5 83.7,248.8 84.9,248.1 86.0,247.4 87.2,246.6 88.4,245.9 89.6,245.2 90.8,244.5 92.0,243.8 93.2,243.1 94.3,242.4 95.5,241.7 96.7,241.0 97.9,240.3 99.1,239.6 100.3,238.9 101.5,238.2 102.7,237.5 103.8,236.8 105.0,236.1 106.2,235.4 107.4,234.7 108.6,234.0 109.8,233.3 111.0,232.6 112.1,231.9 113.3,231.2 114.5,230.5 115.7,229.8 116.9,229.2 118.1,228.5 119.3,227.8 120.5,227.1 121.6,226.4 122.8,225.7 124.0,225.1 125.2,224.4 126.4,223.7 127.6,223.0 128.8,222.3 129.9,221.7 131.1,221.0 132.3,220.3 133.5,219.6 134.7,219.0 135.9,218.3 137.1,217.6 138.3,217.0 139.4,216.3 140.6,215.6 141.8,215.0 143.0,214.3 144.2,213.6 145.4,213.0 146.6,212.3 147.7,211.6 148.9,211.0 150.1,210.3 151.3,209.7 152.5,209.0 153.7,208.4 154.9,207.7 156.1,207.1 157.2,206.4 158.4,205.8 159.6,205.1 160.8,204.5 162.0,203.8 163.2,203.2 164.4,202.5 165.5,201.9 166.7,201.3 167.9,200.6 169.1,200.0 170.3,199.3 171.5,198.7 172.7,198.1 173.9,197.5 175.0,196.8 176.2,196.2 177.4,195.6 178.6,195.0 179.8,194.3 181.0,193.7 182.2,193.1 183.3,192.5 184.5,191.9 185.7,191.2 186.9,190.6 188.1,190.0 189.3,189.4 190.5,188.8 191.7,188.2 192.8,187.6 194.0,187.0 195.2,186.4 196.4,185.8 197.6,185.2 198.8,184.6 200.0,184.0 201.1,183.4 202.3,182.8 203.5,182.2 204.7,181.6 205.9,181.1 207.1,180.5 208.3,179.9 209.5,179.3 210.6,178.7 211.8,178.1 213.0,177.6 214.2,177.0 215.4,176.4 216.6,175.8 217.8,175.3 218.9,174.7 220.1,174.1 221.3,173.5 222.5,173.0 223.7,172.4 224.9,171.8 226.1,171.3 227.3,170.7 228.4,170.2 229.6,169.6 230.8,169.0 232.0,168.5 233.2,167.9 234.4,167.4 235.6,166.8 236.7,166.3 237.9,165.7 239.1,165.2 240.3,164.6 241.5,164.1 242.7,163.5 243.9,163.0 245.1,162.4 246.2,161.9 247.4,161.3 248.6,160.8 249.8,160.3 251.0,159.7 252.2,159.2 253.4,158.7 254.5,158.1 255.7,157.6 256.9,157.1 258.1,156.5 259.3,156.0 260.5,155.5 261.7,154.9 262.9,154.4 264.0,153.9 265.2,153.3 266.4,152.8 267.6,152.3 268.8,151.8 270.0,151.3 271.2,150.7 272.3,150.2 273.5,149.7 274.7,149.2 275.9,148.7 277.1,148.1 278.3,147.6 279.5,147.1 280.7,146.6 281.8,146.1 283.0,145.6 284.2,145.1 285.4,144.5 286.6,144.0 287.8,143.5 289.0,143.0 290.1,142.5 291.3,142.0 292.5,141.5 293.7,141.0 294.9,140.5 296.1,140.0 297.3,139.5 298.5,139.0 299.6,138.5 300.8,138.0 302.0,137.5 303.2,137.0 304.4,136.5 305.6,136.0 306.8,135.4 307.9,135.0 309.1,134.4 310.3,134.0 311.5,133.4 312.7,133.0 313.9,132.4 315.1,132.0 316.3,131.5 317.4,131.0 318.6,130.5 319.8,130.1 321.0,129.6 322.2,129.1 323.4,128.6 324.6,128.2 325.7,127.7 326.9,127.3 328.1,126.8 329.3,126.4 330.5,125.9 331.7,125.5 332.9,125.0 334.1,124.6 335.2,124.1 336.4,123.7 337.6,123.2 338.8,122.8 340.0,122.3 341.2,121.9 342.4,121.4 343.5,121.0 344.7,120.5 345.9,120.1 347.1,119.7 348.3,119.2 349.5,118.8 350.7,118.4 351.9,117.9 353.0,117.5 354.2,117.0 355.4,116.6 356.6,116.1 357.8,115.7 359.0,115.3 360.2,114.8 361.3,114.4 362.5,114.0 363.7,113.5 364.9,113.1 366.1,112.7 367.3,112.2 368.5,111.8 369.7,111.4 370.8,110.9 372.0,110.5 373.2,110.1 374.4,109.7 375.6,109.2 376.8,108.8 378.0,108.4 379.1,108.0 380.3,107.6 381.5,107.2 382.7,106.7 383.9,106.3 385.1,105.9 386.3,105.5 387.5,105.0 388.6,104.6 389.8,104.2 391.0,103.8 392.2,103.4 393.4,103.0 394.6,102.5 395.8,102.1 396.9,101.7 398.1,101.3 399.3,100.9 400.5,100.5 401.7,100.0 402.9,99.6 404.1,99.2 405.3,98.8 406.4,98.4 407.6,98.0 408.8,97.6 410.0,97.2 411.2,96.7 412.4,96.4 413.6,95.9 414.7,95.5 415.9,95.1 417.1,94.7 418.3,94.3 419.5,93.9 420.7,93.5 421.9,93.1 423.1,92.7 424.2,92.3 425.4,91.9 426.6,91.5 427.8,91.1 429.0,90.8 430.2,90.3 431.4,90.0 432.5,89.6 433.7,89.2 434.9,88.8 436.1,88.4 437.3,88.0 438.5,87.7 439.7,87.3 440.9,86.9 442.0,86.5 443.2,86.2 444.4,85.8 445.6,85.4 446.8,85.0 448.0,84.7 449.2,84.3 450.3,83.9 451.5,83.5 452.7,83.2 453.9,82.8 455.1,82.5 456.3,82.1 457.5,81.8 458.7,81.4 459.8,81.0 461.0,80.7 462.2,80.3 463.4,79.9 464.6,79.6 465.8,79.2 467.0,78.9 468.1,78.5 469.3,78.2 470.5,77.9 471.7,77.5 472.9,77.2 474.1,76.9 475.3,76.5 476.5,76.2 477.6,75.8 478.8,75.5 480.0,75.1 481.2,74.8 482.4,74.5 483.6,74.2 484.8,73.8 485.9,73.5 487.1,73.2 488.3,72.9 489.5,72.5 490.7,72.2 491.9,71.9 493.1,71.6 494.3,71.3 495.4,71.0 496.6,70.6 497.8,70.3 499.0,70.0 500.2,69.7 501.4,69.4 502.6,69.1 503.7,68.8 504.9,68.5 506.1,68.2 507.3,67.9 508.5,67.6 509.7,67.3 510.9,67.0 512.1,66.7 513.2,66.4 514.4,66.1 515.6,65.8 516.8,65.5 518.0,65.2 519.2,64.9 520.4,64.6 521.5,64.4 522.7,64.1 523.9,63.8 525.1,63.5 526.3,63.2 527.5,62.9 528.7,62.7 529.9,62.4 531.0,62.1 532.2,61.8 533.4,61.6 534.6,61.3 535.8,61.0 537.0,60.7 538.2,60.5 539.3,60.2 540.5,60.0 541.7,59.7 542.9,59.5 544.1,59.2 545.3,58.9 546.5,58.6 547.7,58.4 548.8,58.1 550.0,57.9 551.2,57.6 552.4,57.4 553.6,57.1 554.8,56.9 556.0,56.6 557.1,56.4 558.3,56.1 559.5,55.9 560.7,55.6 561.9,55.4 563.1,55.2 564.3,54.9 565.5,54.7 566.6,54.5 567.8,54.2 569.0,54.0 570.2,54.6 571.4,55.2 572.6,55.8 573.8,56.4 574.9,57.0 576.1,57.6 577.3,58.1 578.5,58.7 579.7,59.3 580.9,59.9 582.1,60.4 583.3,61.1 584.4,61.6 585.6,62.2 586.8,62.7 588.0,63.3 589.2,63.8 590.4,64.4 591.6,64.9 592.7,65.5 593.9,66.0 595.1,66.6 596.3,67.1 597.5,67.7 598.7,68.2 599.9,68.8 601.1,69.3 602.2,69.9 603.4,70.4 604.6,70.9 605.8,71.4 607.0,72.0 608.2,72.4 609.4,73.0 610.5,73.5 611.7,74.0 612.9,74.5 614.1,75.1 615.3,75.5 616.5,76.1 617.7,76.5 618.9,77.1 620.0,77.5 621.2,78.1 622.4,78.5 623.6,79.1 624.8,79.5 626.0,80.0 627.2,80.5 628.3,81.0 629.5,81.5 630.7,82.0 631.9,82.4 633.1,82.9 634.3,83.4 635.5,83.9 636.7,84.3 637.8,84.8 639.0,85.3 640.2,85.8 641.4,86.2 642.6,86.7 643.8,87.1 645.0,87.6 646.1,88.1 647.3,88.5 648.5,89.0 649.7,89.4 650.9,89.9 652.1,90.3 653.3,90.8 654.5,91.2 655.6,91.7 656.8,92.1 658.0,92.5 659.2,93.0 660.4,93.4 661.6,93.9 662.8,94.3 663.9,94.8 665.1,95.2 666.3,95.6 667.5,96.0 668.7,96.5 669.9,96.9 671.1,97.3 672.3,97.7 673.4,98.2 674.6,98.6 675.8,99.0 677.0,99.4 678.2,99.8 679.4,100.2 680.6,100.7 681.7,101.0 682.9,101.5 684.1,101.9 685.3,102.3 686.5,102.7 687.7,103.1 688.9,103.5 690.1,103.9 691.2,104.2 692.4,104.7 693.6,105.0 694.8,105.4 696.0,105.8 697.2,106.2 698.4,106.6 699.5,107.0 700.7,107.3 701.9,107.7 703.1,108.1 704.3,108.5 705.5,108.8 706.7,109.2 707.9,109.5 709.0,109.9 710.2,110.3 711.4,110.7 712.6,111.0 713.8,111.4 715.0,111.7 716.2,112.1 717.3,112.4 718.5,112.8 719.7,113.1 720.9,113.5 722.1,113.8 723.3,114.2 724.5,114.5 725.7,114.9 726.8,115.2 728.0,115.6 729.2,115.9 730.4,116.2 731.6,116.6 732.8,116.9 734.0,117.2 735.1,117.6 736.3,117.9 737.5,118.2 738.7,118.6 739.9,118.9 741.1,119.2 742.3,119.5 743.5,119.9 744.6,120.2 745.8,120.5 747.0,120.8 748.2,121.1 749.4,121.5 750.6,121.8 751.8,122.1 752.9,122.4 754.1,122.7 755.3,123.0 756.5,123.4 757.7,123.6 758.9,124.0 760.1,124.3 761.3,124.6 762.4,124.9 763.6,125.2 764.8,125.5 766.0,125.9"/>
<line x1="606" y1="42" x2="628" y2="42" stroke="#0f62fe" stroke-width="2.2"/>
<text x="634" y="46" font-family="Arial" font-size="12">vx_mps</text>
</svg>