<svg xmlns="http://www.w3.org/2000/svg" width="820" height="320" viewBox="0 0 820 320">
<rect width="100%" height="100%" fill="#ffffff"/>
<text x="54" y="28" font-family="Arial" font-size="18" font-weight="700">Euler Angles</text>
<line x1="54" y1="266" x2="766" y2="266" stroke="#1f2933"/>
<line x1="54" y1="54" x2="54" y2="266" stroke="#1f2933"/>
<text x="54" y="306" font-family="Arial" font-size="12">time (s)</text>
<text x="596" y="306" font-family="Arial" font-size="12">angle (deg)</text>
<text x="58" y="68" font-family="Arial" font-size="11">9.71</text>
<text x="58" y="260" font-family="Arial" font-size="11">0</text>
<polyline fill="none" stroke="#0f62fe" stroke-width="2.2" points="54.0,266.0 55.2,266.0 56.4,266.0 57.6,266.0 58.7,266.0 59.9,266.0 61.1,266.0 62.3,266.0 63.5,266.0 64.7,266.0 65.9,266.0 67.1,266.0 68.2,266.0 69.4,266.0 70.6,266.0 71.8,266.0 73.0,266.0 74.2,266.0 75.4,266.0 76.5,266.0 77.7,266.0 78.9,266.0 80.1,266.0 81.3,266.0 82.5,266.0 83.7,266.0 84.9,266.0 86.0,266.0 87.2,266.0 88.4,266.0 89.6,266.0 90.8,266.0 92.0,266.0 93.2,266.0 94.3,266.0 95.5,266.0 96.7,266.0 97.9,266.0 99.1,266.0 100.3,266.0 101.5,266.0 102.7,266.0 103.8,266.0 105.0,266.0 106.2,266.0 107.4,266.0 108.6,266.0 109.8,266.0 111.0,266.0 112.1,266.0 113.3,266.0 114.5,266.0 115.7,266.0 116.9,266.0 118.1,266.0 119.3,266.0 120.5,266.0 121.6,266.0 122.8,266.0 124.0,266.0 125.2,266.0 126.4,266.0 127.6,266.0 128.8,266.0 129.9,266.0 131.1,266.0 132.3,266.0 133.5,266.0 134.7,266.0 135.9,266.0 137.1,266.0 138.3,266.0 139.4,266.0 140.6,266.0 141.8,266.0 143.0,266.0 144.2,266.0 145.4,266.0 146.6,266.0 147.7,266.0 148.9,266.0 150.1,266.0 151.3,266.0 152.5,266.0 153.7,266.0 154.9,266.0 156.1,266.0 157.2,266.0 158.4,266.0 159.6,266.0 160.8,266.0 162.0,266.0 163.2,266.0 164.4,266.0 165.5,266.0 166.7,266.0 167.9,266.0 169.1,266.0 170.3,266.0 171.5,266.0 172.7,266.0 173.9,266.0 175.0,266.0 176.2,266.0 177.4,266.0 178.6,266.0 179.8,266.0 181.0,266.0 182.2,266.0 183.3,266.0 184.5,266.0 185.7,266.0 186.9,266.0 188.1,266.0 189.3,266.0 190.5,266.0 191.7,266.0 192.8,266.0 194.0,266.0 195.2,266.0 196.4,266.0 197.6,266.0 198.8,266.0 200.0,266.0 201.1,266.0 202.3,266.0 203.5,266.0 204.7,266.0 205.9,266.0 207.1,266.0 208.3,266.0 209.5,266.0 210.6,266.0 211.8,266.0 213.0,266.0 214.2,266.0 215.4,266.0 216.6,266.0 217.8,266.0 218.9,266.0 220.1,266.0 221.3,266.0 222.5,266.0 223.7,266.0 224.9,266.0 226.1,266.0 227.3,266.0 228.4,266.0 229.6,266.0 230.8,266.0 232.0,266.0 233.2,266.0 234.4,266.0 235.6,266.0 236.7,266.0 237.9,266.0 239.1,266.0 240.3,266.0 241.5,266.0 242.7,266.0 243.9,266.0 245.1,266.0 246.2,266.0 247.4,266.0 248.6,266.0 249.8,266.0 251.0,266.0 252.2,266.0 253.4,266.0 254.5,266.0 255.7,266.0 256.9,266.0 258.1,266.0 259.3,266.0 260.5,266.0 261.7,266.0 262.9,266.0 264.0,266.0 265.2,266.0 266.4,266.0 267.6,266.0 268.8,266.0 270.0,266.0 271.2,266.0 272.3,266.0 273.5,266.0 274.7,266.0 275.9,266.0 277.1,266.0 278.3,266.0 279.5,266.0 280.7,266.0 281.8,266.0 283.0,266.0 284.2,266.0 285.4,266.0 286.6,266.0 287.8,266.0 289.0,266.0 290.1,266.0 291.3,266.0 292.5,266.0 293.7,266.0 294.9,266.0 296.1,266.0 297.3,266.0 298.5,266.0 299.6,266.0 300.8,266.0 302.0,266.0 303.2,266.0 304.4,266.0 305.6,266.0 306.8,266.0 307.9,266.0 309.1,266.0 310.3,266.0 311.5,266.0 312.7,266.0 313.9,266.0 315.1,266.0 316.3,266.0 317.4,266.0 318.6,266.0 319.8,266.0 321.0,266.0 322.2,266.0 323.4,266.0 324.6,266.0 325.7,266.0 326.9,266.0 328.1,266.0 329.3,266.0 330.5,266.0 331.7,266.0 332.9,266.0 334.1,266.0 335.2,266.0 336.4,266.0 337.6,266.0 338.8,266.0 340.0,266.0 341.2,266.0 342.4,266.0 343.5,266.0 344.7,266.0 345.9,266.0 347.1,266.0 348.3,266.0 349.5,266.0 350.7,266.0 351.9,266.0 353.0,266.0 354.2,266.0 355.4,266.0 356.6,266.0 357.8,266.0 359.0,266.0 360.2,266.0 361.3,266.0 362.5,266.0 363.7,266.0 364.9,266.0 366.1,266.0 367.3,266.0 368.5,266.0 369.7,266.0 370.8,266.0 372.0,266.0 373.2,266.0 374.4,266.0 375.6,266.0 376.8,266.0 378.0,266.0 379.1,266.0 380.3,266.0 381.5,266.0 382.7,266.0 383.9,266.0 385.1,266.0 386.3,266.0 387.5,266.0 388.6,266.0 389.8,266.0 391.0,266.0 392.2,266.0 393.4,266.0 394.6,266.0 395.8,266.0 396.9,266.0 398.1,266.0 399.3,266.0 400.5,266.0 401.7,266.0 402.9,266.0 404.1,266.0 405.3,266.0 406.4,266.0 407.6,266.0 408.8,266.0 410.0,266.0 411.2,266.0 412.4,266.0 413.6,266.0 414.7,266.0 415.9,266.0 417.1,266.0 418.3,266.0 419.5,266.0 420.7,266.0 421.9,266.0 423.1,266.0 424.2,266.0 425.4,266.0 426.6,266.0 427.8,266.0 429.0,266.0 430.2,266.0 431.4,266.0 432.5,266.0 433.7,266.0 434.9,266.0 436.1,266.0 437.3,266.0 438.5,266.0 439.7,266.0 440.9,266.0 442.0,266.0 443.2,266.0 444.4,266.0 445.6,266.0 446.8,266.0 448.0,266.0 449.2,266.0 450.3,266.0 451.5,266.0 452.7,266.0 453.9,266.0 455.1,266.0 456.3,266.0 457.5,266.0 458.7,266.0 459.8,266.0 461.0,266.0 462.2,266.0 463.4,266.0 464.6,266.0 465.8,266.0 467.0,266.0 468.1,266.0 469.3,266.0 470.5,266.0 471.7,266.0 472.9,266.0 474.1,266.0 475.3,266.0 476.5,266.0 477.6,266.0 478.8,266.0 480.0,266.0 481.2,266.0 482.4,266.0 483.6,266.0 484.8,266.0 485.9,266.0 487.1,266.0 488.3,266.0 489.5,266.0 490.7,266.0 491.9,266.0 493.1,266.0 494.3,266.0 495.4,266.0 496.6,266.0 497.8,266.0 499.0,266.0 500.2,266.0 501.4,266.0 502.6,266.0 503.7,266.0 504.9,266.0 506.1,266.0 507.3,266.0 508.5,266.0 509.7,266.0 510.9,266.0 512.1,266.0 513.2,266.0 514.4,266.0 515.6,266.0 516.8,266.0 518.0,266.0 519.2,266.0 520.4,266.0 521.5,266.0 522.7,266.0 523.9,266.0 525.1,266.0 526.3,266.0 527.5,266.0 528.7,266.0 529.9,266.0 531.0,266.0 532.2,266.0 533.4,266.0 534.6,266.0 535.8,266.0 537.0,266.0 538.2,266.0 539.3,266.0 540.5,266.0 541.7,266.0 542.9,266.0 544.1,266.0 545.3,266.0 546.5,266.0 547.7,266.0 548.8,266.0 550.0,266.0 551.2,266.0 552.4,266.0 553.6,266.0 554.8,266.0 556.0,266.0 557.1,266.0 558.3,266.0 559.5,266.0 560.7,266.0 561.9,266.0 563.1,266.0 564.3,266.0 565.5,266.0 566.6,266.0 567.8,266.0 569.0,266.0 570.2,266.0 571.4,266.0 572.6,266.0 573.8,266.0 574.9,266.0 576.1,266.0 577.3,266.0 578.5,266.0 579.7,266.0 580.9,266.0 582.1,266.0 583.3,266.0 584.4,266.0 585.6,266.0 586.8,266.0 588.0,266.0 589.2,266.0 590.4,266.0 591.6,266.0 592.7,266.0 593.9,266.0 595.1,266.0 596.3,266.0 597.5,266.0 598.7,266.0 599.9,266.0 601.1,266.0 602.2,266.0 603.4,266.0 604.6,266.0 605.8,266.0 607.0,266.0 608.2,266.0 609.4,266.0 610.5,266.0 611.7,266.0 612.9,266.0 614.1,266.0 615.3,266.0 616.5,266.0 617.7,266.0 618.9,266.0 620.0,266.0 621.2,266.0 622.4,266.0 623.6,266.0 624.8,266.0 626.0,266.0 627.2,266.0 628.3,266.0 629.5,266.0 630.7,266.0 631.9,266.0 633.1,266.0 634.3,266.0 635.5,266.0 636.7,266.0 637.8,266.0 639.0,266.0 640.2,266.0 641.4,266.0 642.6,266.0 643.8,266.0 645.0,266.0 646.1,266.0 647.3,266.0 648.5,266.0 649.7,266.0 650.9,266.0 652.1,266.0 653.3,266.0 654.5,266.0 655.6,266.0 656.8,266.0 658.0,266.0 659.2,266.0 660.4,266.0 661.6,266.0 662.8,266.0 663.9,266.0 665.1,266.0 666.3,266.0 667.5,266.0 668.7,266.0 669.9,266.0 671.1,266.0 672.3,266.0 673.4,266.0 674.6,266.0 675.8,266.0 677.0,266.0 678.2,266.0 679.4,266.0 680.6,266.0 681.7,266.0 682.9,266.0 684.1,266.0 685.3,266.0 686.5,266.0 687.7,266.0 688.9,266.0 690.1,266.0 691.2,266.0 692.4,266.0 693.6,266.0 694.8,266.0 696.0,266.0 697.2,266.0 698.4,266.0 699.5,266.0 700.7,266.0 701.9,266.0 703.1,266.0 704.3,266.0 705.5,266.0 706.7,266.0 707.9,266.0 709.0,266.0 710.2,266.0 711.4,266.0 712.6,266.0 713.8,266.0 715.0,266.0 716.2,266.0 717.3,266.0 718.5,266.0 719.7,266.0 720.9,266.0 722.1,266.0 723.3,266.0 724.5,266.0 725.7,266.0 726.8,266.0 728.0,266.0 729.2,266.0 730.4,266.0 731.6,266.0 732.8,266.0 734.0,266.0 735.1,266.0 736.3,266.0 737.5,266.0 738.7,266.0 739.9,266.0 741.1,266.0 742.3,266.0 743.5,266.0 744.6,266.0 745.8,266.0 747.0,266.0 748.2,266.0 749.4,266.0 750.6,266.0 751.8,266.0 752.9,266.0 754.1,266.0 755.3,266.0 756.5,266.0 757.7,266.0 758.9,266.0 760.1,266.0 761.3,266.0 762.4,266.0 763.6,266.0 764.8,266.0 766.0,266.0"/>
<line x1="606" y1="42" x2="628" y2="42" stroke="#0f62fe" stroke-width="2.2"/>
<text x="634" y="46" font-family="Arial" font-size="12">roll_deg</text>
<polyline fill="none" stroke="#24a148" stroke-width="2.2" points="54.0,135.0 55.2,129.1 56.4,120.7 57.6,114.0 58.7,110.0 59.9,107.9 61.1,106.4 62.3,104.8 63.5,103.4 64.7,102.4 65.9,101.9 67.1,101.7 68.2,101.7 69.4,101.9 70.6,102.2 71.8,102.7 73.0,103.3 74.2,103.9 75.4,104.7 76.5,105.5 77.7,106.3 78.9,107.2 80.1,108.1 81.3,109.0 82.5,110.0 83.7,110.9 84.9,111.9 86.0,112.8 87.2,113.8 88.4,114.8 89.6,115.7 90.8,116.6 92.0,117.6 93.2,118.5 94.3,119.4 95.5,120.3 96.7,121.2 97.9,122.0 99.1,122.9 100.3,123.7 101.5,124.5 102.7,125.3 103.8,126.1 105.0,126.8 106.2,127.6 107.4,128.3 108.6,129.0 109.8,129.7 111.0,130.4 112.1,131.1 113.3,131.7 114.5,132.3 115.7,133.0 116.9,133.5 118.1,134.1 119.3,134.7 120.5,135.2 121.6,135.8 122.8,136.3 124.0,136.8 125.2,137.3 126.4,137.8 127.6,138.2 128.8,138.7 129.9,139.1 131.1,139.5 132.3,139.9 133.5,140.3 134.7,140.7 135.9,141.0 137.1,141.4 138.3,141.7 139.4,142.1 140.6,142.4 141.8,142.7 143.0,143.0 144.2,143.2 145.4,143.5 146.6,143.8 147.7,144.0 148.9,144.2 150.1,144.4 151.3,144.5 152.5,144.6 153.7,144.6 154.9,144.5 156.1,144.4 157.2,144.3 158.4,144.1 159.6,143.9 160.8,143.7 162.0,143.5 163.2,143.2 164.4,142.9 165.5,142.6 166.7,142.2 167.9,141.9 169.1,141.5 170.3,141.1 171.5,140.7 172.7,140.3 173.9,139.9 175.0,139.5 176.2,139.0 177.4,138.6 178.6,138.1 179.8,137.6 181.0,137.1 182.2,136.7 183.3,136.2 184.5,135.7 185.7,135.2 186.9,134.6 188.1,134.1 189.3,133.6 190.5,133.1 191.7,132.5 192.8,132.0 194.0,131.5 195.2,130.9 196.4,130.4 197.6,129.8 198.8,129.3 200.0,128.7 201.1,128.1 202.3,127.6 203.5,127.0 204.7,126.5 205.9,125.9 207.1,125.3 208.3,124.8 209.5,124.2 210.6,123.6 211.8,123.1 213.0,122.5 214.2,121.9 215.4,121.4 216.6,120.8 217.8,120.2 218.9,119.7 220.1,119.1 221.3,118.5 222.5,118.0 223.7,117.4 224.9,116.9 226.1,116.3 227.3,115.8 228.4,115.2 229.6,114.7 230.8,114.1 232.0,113.6 233.2,113.1 234.4,112.5 235.6,112.0 236.7,111.5 237.9,111.0 239.1,110.4 240.3,109.9 241.5,109.4 242.7,108.9 243.9,108.4 245.1,107.9 246.2,107.4 247.4,106.9 248.6,106.5 249.8,106.0 251.0,105.5 252.2,105.0 253.4,104.6 254.5,104.1 255.7,103.7 256.9,103.2 258.1,102.8 259.3,102.3 260.5,101.9 261.7,101.5 262.9,101.0 264.0,100.6 265.2,100.2 266.4,99.8 267.6,99.4 268.8,99.0 270.0,98.6 271.2,98.3 272.3,97.9 273.5,97.5 274.7,97.2 275.9,96.7 277.1,96.7 278.3,95.6 279.5,97.0 280.7,92.6 281.8,101.8 283.0,89.5 284.2,93.6 285.4,88.4 286.6,101.0 287.8,92.0 289.0,99.3 290.1,84.9 291.3,92.2 292.5,81.1 293.7,91.6 294.9,82.0 296.1,94.1 297.3,84.6 298.5,96.6 299.6,87.1 300.8,99.2 302.0,89.6 303.2,100.8 304.4,90.4 305.6,100.2 306.8,88.4 307.9,98.0 309.1,86.1 310.3,95.7 311.5,83.7 312.7,93.4 313.9,81.4 315.1,91.1 316.3,79.1 317.4,88.7 318.6,76.8 319.8,86.4 321.0,74.4 322.2,84.1 323.4,72.1 324.6,81.7 325.7,69.8 326.9,79.4 328.1,67.4 329.3,77.1 330.5,65.1 331.7,74.8 332.9,63.7 334.1,74.2 335.2,63.2 336.4,73.7 337.6,62.7 338.8,73.2 340.0,62.2 341.2,72.7 342.4,61.7 343.5,72.2 344.7,61.2 345.9,71.7 347.1,60.7 348.3,71.2 349.5,60.1 350.7,70.7 351.9,59.6 353.0,70.2 354.2,59.1 355.4,69.7 356.6,58.6 357.8,69.2 359.0,58.1 360.2,68.7 361.3,57.6 362.5,68.2 363.7,57.1 364.9,67.7 366.1,56.6 367.3,67.1 368.5,56.1 369.7,66.6 370.8,55.6 372.0,66.1 373.2,55.1 374.4,65.6 375.6,54.6 376.8,65.1 378.0,54.1 379.1,64.6 380.3,54.0 381.5,65.0 382.7,54.4 383.9,65.4 385.1,54.8 386.3,65.8 387.5,55.1 388.6,66.1 389.8,55.5 391.0,66.5 392.2,55.9 393.4,66.9 394.6,56.3 395.8,67.3 396.9,56.7 398.1,67.7 399.3,57.0 400.5,68.0 401.7,57.4 402.9,68.4 404.1,57.8 405.3,68.8 406.4,58.2 407.6,69.2 408.8,58.6 410.0,69.6 411.2,58.9 412.4,69.9 413.6,59.3 414.7,70.3 415.9,59.7 417.1,70.7 418.3,60.1 419.5,71.1 420.7,60.5 421.9,71.5 423.1,60.8 424.2,71.8 425.4,61.2 426.6,72.2 427.8,61.6 429.0,72.6 430.2,62.0 431.4,73.0 432.5,62.4 433.7,73.4 434.9,62.8 436.1,73.7 437.3,63.1 438.5,74.1 439.7,63.5 440.9,74.5 442.0,63.9 443.2,74.9 444.4,64.3 445.6,75.3 446.8,64.7 448.0,75.7 449.2,65.0 450.3,76.0 451.5,65.4 452.7,76.4 453.9,65.8 455.1,76.8 456.3,66.2 457.5,77.2 458.7,66.6 459.8,77.6 461.0,66.9 462.2,77.9 463.4,67.3 464.6,78.3 465.8,67.7 467.0,78.7 468.1,68.1 469.3,79.1 470.5,68.5 471.7,79.5 472.9,68.8 474.1,79.8 475.3,69.2 476.5,80.2 477.6,69.6 478.8,80.6 480.0,70.0 481.2,81.0 482.4,70.4 483.6,81.4 484.8,70.7 485.9,81.7 487.1,71.1 488.3,82.1 489.5,71.5 490.7,82.5 491.9,71.9 493.1,82.9 494.3,72.3 495.4,83.3 496.6,72.6 497.8,83.6 499.0,73.0 500.2,84.0 501.4,73.4 502.6,84.4 503.7,73.8 504.9,84.8 506.1,74.2 507.3,85.2 508.5,74.5 509.7,85.5 510.9,74.9 512.1,85.9 513.2,75.3 514.4,86.3 515.6,75.7 516.8,86.7 518.0,76.1 519.2,87.1 520.4,76.4 521.5,87.4 522.7,76.8 523.9,87.8 525.1,77.2 526.3,88.2 527.5,77.6 528.7,88.6 529.9,78.0 531.0,89.0 532.2,78.4 533.4,89.3 534.6,78.7 535.8,89.7 537.0,79.1 538.2,90.1 539.3,79.5 540.5,90.5 541.7,79.9 542.9,90.9 544.1,80.3 545.3,91.3 546.5,80.6 547.7,91.6 548.8,81.0 550.0,92.0 551.2,81.4 552.4,92.4 553.6,81.8 554.8,92.8 556.0,82.2 557.1,93.2 558.3,82.5 559.5,93.5 560.7,82.9 561.9,93.9 563.1,83.3 564.3,94.3 565.5,83.7 566.6,94.7 567.8,84.1 569.0,95.1 570.2,84.4 571.4,95.4 572.6,84.8 573.8,95.8 574.9,85.2 576.1,96.2 577.3,85.6 578.5,96.6 579.7,86.0 580.9,97.0 582.1,86.3 583.3,97.3 584.4,86.7 585.6,97.7 586.8,87.1 588.0,98.1 589.2,87.5 590.4,98.5 591.6,87.9 592.7,98.9 593.9,88.2 595.1,99.2 596.3,88.6 597.5,99.6 598.7,89.0 599.9,100.0 601.1,89.4 602.2,100.4 603.4,89.8 604.6,100.8 605.8,90.1 607.0,101.1 608.2,90.5 609.4,101.5 610.5,90.9 611.7,101.9 612.9,91.3 614.1,102.3 615.3,91.7 616.5,102.7 617.7,92.1 618.9,103.0 620.0,92.4 621.2,103.4 622.4,92.8 623.6,103.8 624.8,93.2 626.0,104.2 627.2,93.6 628.3,104.6 629.5,94.0 630.7,104.9 631.9,94.3 633.1,105.3 634.3,94.7 635.5,105.7 636.7,95.1 637.8,106.1 639.0,95.5 640.2,106.5 641.4,95.9 642.6,106.9 643.8,96.2 645.0,107.2 646.1,96.6 647.3,107.6 648.5,97.0 649.7,108.0 650.9,97.4 652.1,108.4 653.3,97.8 654.5,108.8 655.6,98.1 656.8,109.1 658.0,98.5 659.2,109.5 660.4,98.9 661.6,109.9 662.8,99.3 663.9,110.3 665.1,99.7 666.3,110.7 667.5,100.0 668.7,111.0 669.9,100.4 671.1,111.4 672.3,100.8 673.4,111.8 674.6,101.2 675.8,112.2 677.0,101.8 678.2,113.0 679.4,102.7 680.6,114.0 681.7,103.6 682.9,114.9 684.1,104.6 685.3,115.9 686.5,105.6 687.7,116.9 688.9,106.6 690.1,117.9 691.2,107.6 692.4,118.9 693.6,108.5 694.8,119.8 696.0,109.5 697.2,120.8 698.4,110.5 699.5,121.8 700.7,111.5 701.9,122.8 703.1,112.5 704.3,123.8 705.5,113.5 706.7,124.9 707.9,114.7 709.0,126.2 710.2,116.0 711.4,127.5 712.6,117.3 713.8,128.7 715.0,118.6 716.2,130.0 717.3,119.8 718.5,131.3 719.7,121.1 720.9,132.6 722.1,122.5 723.3,134.0 724.5,123.8 725.7,135.3 726.8,125.2 728.0,136.7 729.2,126.6 730.4,138.1 731.6,128.0 732.8,139.5 734.0,129.4 735.1,140.9 736.3,130.8 737.5,142.3 738.7,132.2 739.9,143.7 741.1,133.6 742.3,145.1 743.5,135.0 744.6,146.5 745.8,136.4 747.0,147.9 748.2,137.7 749.4,149.2 750.6,139.1 751.8,150.6 752.9,140.5 754.1,151.6 755.3,141.1 756.5,152.2 757.7,141.7 758.9,152.8 760.1,142.3 761.3,153.4 762.4,142.8 763.6,153.9 764.8,143.4 766.0,154.5"/>
<line x1="606" y1="60" x2="628" y2="60" stroke="#24a148" stroke-width="2.2"/>
<text x="634" y="64" font-family="Arial" font-size="12">pitch_deg</text>
<polyline fill="none" stroke="#da1e28" stroke-width="2.2" points="54.0,266.0 55.2,266.0 56.4,266.0 57.6,266.0 58.7,266.0 59.9,266.0 61.1,266.0 62.3,266.0 63.5,266.0 64.7,266.0 65.9,266.0 67.1,266.0 68.2,266.0 69.4,266.0 70.6,266.0 71.8,266.0 73.0,266.0 74.2,266.0 75.4,266.0 76.5,266.0 77.7,266.0 78.9,266.0 80.1,266.0 81.3,266.0 82.5,266.0 83.7,266.0 84.9,266.0 86.0,266.0 87.2,266.0 88.4,266.0 89.6,266.0 90.8,266.0 92.0,266.0 93.2,266.0 94.3,266.0 95.5,266.0 96.7,266.0 97.9,266.0 99.1,266.0 100.3,266.0 101.5,266.0 102.7,266.0 103.8,266.0 105.0,266.0 106.2,266.0 107.4,266.0 108.6,266.0 109.8,266.0 111.0,266.0 112.1,266.0 113.3,266.0 114.5,266.0 115.7,266.0 116.9,266.0 118.1,266.0 119.3,266.0 120.5,266.0 121.6,266.0 122.8,266.0 124.0,266.0 125.2,266.0 126.4,266.0 127.6,266.0 128.8,266.0 129.9,266.0 131.1,266.0 132.3,266.0 133.5,266.0 134.7,266.0 135.9,266.0 137.1,266.0 138.3,266.0 139.4,266.0 140.6,266.0 141.8,266.0 143.0,266.0 144.2,266.0 145.4,266.0 146.6,266.0 147.7,266.0 148.9,266.0 150.1,266.0 151.3,266.0 152.5,266.0 153.7,266.0 154.9,266.0 156.1,266.0 157.2,266.0 158.4,266.0 159.6,266.0 160.8,266.0 162.0,266.0 163.2,266.0 164.4,266.0 165.5,266.0 166.7,266.0 167.9,266.0 169.1,266.0 170.3,266.0 171.5,266.0 172.7,266.0 173.9,266.0 175.0,266.0 176.2,266.0 177.4,266.0 178.6,266.0 179.8,266.0 181.0,266.0 182.2,266.0 183.3,266.0 184.5,266.0 185.7,266.0 186.9,266.0 188.1,266.0 189.3,266.0 190.5,266.0 191.7,266.0 192.8,266.0 194.0,266.0 195.2,266.0 196.4,266.0 197.6,266.0 198.8,266.0 200.0,266.0 201.1,266.0 202.3,266.0 203.5,266.0 204.7,266.0 205.9,266.0 207.1,266.0 208.3,266.0 209.5,266.0 210.6,266.0 211.8,266.0 213.0,266.0 214.2,266.0 215.4,266.0 216.6,266.0 217.8,266.0 218.9,266.0 220.1,266.0 221.3,266.0 222.5,266.0 223.7,266.0 224.9,266.0 226.1,266.0 227.3,266.0 228.4,266.0 229.6,266.0 230.8,266.0 232.0,266.0 233.2,266.0 234.4,266.0 235.6,266.0 236.7,266.0 237.9,266.0 239.1,266.0 240.3,266.0 241.5,266.0 242.7,266.0 243.9,266.0 245.1,266.0 246.2,266.0 247.4,266.0 248.6,266.0 249.8,266.0 251.0,266.0 252.2,266.0 253.4,266.0 254.5,266.0 255.7,266.0 256.9,266.0 258.1,266.0 259.3,266.0 260.5,266.0 261.7,266.0 262.9,266.0 264.0,266.0 265.2,266.0 266.4,266.0 267.6,266.0 268.8,266.0 270.0,266.0 271.2,266.0 272.3,266.0 273.5,266.0 274.7,266.0 275.9,266.0 277.1,266.0 278.3,266.0 279.5,266.0 280.7,266.0 281.8,266.0 283.0,266.0 284.2,266.0 285.4,266.0 286.6,266.0 287.8,266.0 289.0,266.0 290.1,266.0 291.3,266.0 292.5,266.0 293.7,266.0 294.9,266.0 296.1,266.0 297.3,266.0 298.5,266.0 299.6,266.0 300.8,266.0 302.0,266.0 303.2,266.0 304.4,266.0 305.6,266.0 306.8,266.0 307.9,266.0 309.1,266.0 310.3,266.0 311.5,266.0 312.7,266.0 313.9,266.0 315.1,266.0 316.3,266.0 317.4,266.0 318.6,266.0 319.8,266.0 321.0,266.0 322.2,266.0 323.4,266.0 324.6,266.0 325.7,266.0 326.9,266.0 328.1,266.0 329.3,266.0 330.5,266.0 331.7,266.0 332.9,266.0 334.1,266.0 335.2,266.0 336.4,266.0 337.6,266.0 338.8,266.0 340.0,266.0 341.2,266.0 342.4,266.0 343.5,266.0 344.7,266.0 345.9,266.0 347.1,266.0 348.3,266.0 349.5,266.0 350.7,266.0 351.9,266.0 353.0,266.0 354.2,266.0 355.4,266.0 356.6,266.0 357.8,266.0 359.0,266.0 360.2,266.0 361.3,266.0 362.5,266.0 363.7,266.0 364.9,266.0 366.1,266.0 367.3,266.0 368.5,266.0 369.7,266.0 370.8,266.0 372.0,266.0 373.2,266.0 374.4,266.0 375.6,266.0 376.8,266.0 378.0,266.0 379.1,266.0 380.3,266.0 381.5,266.0 382.7,266.0 383.9,266.0 385.1,266.0 386.3,266.0 387.5,266.0 388.6,266.0 389.8,266.0 391.0,266.0 392.2,266.0 393.4,266.0 394.6,266.0 395.8,266.0 396.9,266.0 398.1,266.0 399.3,266.0 400.5,266.0 401.7,266.0 402.9,266.0 404.1,266.0 405.3,266.0 406.4,266.0 407.6,266.0 408.8,266.0 410.0,266.0 411.2,266.0 412.4,266.0 413.6,266.0 414.7,266.0 415.9,266.0 417.1,266.0 418.3,266.0 419.5,266.0 420.7,266.0 421.9,266.0 423.1,266.0 424.2,266.0 425.4,266.0 426.6,266.0 427.8,266.0 429.0,266.0 430.2,266.0 431.4,266.0 432.5,266.0 433.7,266.0 434.9,266.0 436.1,266.0 437.3,266.0 438.5,266.0 439.7,266.0 440.9,266.0 442.0,266.0 443.2,266.0 444.4,266.0 445.6,266.0 446.8,266.0 448.0,266.0 449.2,266.0 450.3,266.0 451.5,266.0 452.7,266.0 453.9,266.0 455.1,266.0 456.3,266.0 457.5,266.0 458.7,266.0 459.8,266.0 461.0,266.0 462.2,266.0 463.4,266.0 464.6,266.0 465.8,266.0 467.0,266.0 468.1,266.0 469.3,266.0 470.5,266.0 471.7,266.0 472.9,266.0 474.1,266.0 475.3,266.0 476.5,266.0 477.6,266.0 478.8,266.0 480.0,266.0 481.2,266.0 482.4,266.0 483.6,266.0 484.8,266.0 485.9,266.0 487.1,266.0 488.3,266.0 489.5,266.0 490.7,266.0 491.9,266.0 493.1,266.0 494.3,266.0 495.4,266.0 496.6,266.0 497.8,266.0 499.0,266.0 500.2,266.0 501.4,266.0 502.6,266.0 503.7,266.0 504.9,266.0 506.1,266.0 507.3,266.0 508.5,266.0 509.7,266.0 510.9,266.0 512.1,266.0 513.2,266.0 514.4,266.0 515.6,266.0 516.8,266.0 518.0,266.0 519.2,266.0 520.4,266.0 521.5,266.0 522.7,266.0 523.9,266.0 525.1,266.0 526.3,266.0 527.5,266.0 528.7,266.0 529.9,266.0 531.0,266.0 532.2,266.0 533.4,266.0 534.6,266.0 535.8,266.0 537.0,266.0 538.2,266.0 539.3,266.0 540.5,266.0 541.7,266.0 542.9,266.0 544.1,266.0 545.3,266.0 546.5,266.0 547.7,266.0 548.8,266.0 550.0,266.0 551.2,266.0 552.4,266.0 553.6,266.0 554.8,266.0 556.0,266.0 557.1,266.0 558.3,266.0 559.5,266.0 560.7,266.0 561.9,266.0 563.1,266.0 564.3,266.0 565.5,266.0 566.6,266.0 567.8,266.0 569.0,266.0 570.2,266.0 571.4,266.0 572.6,266.0 573.8,266.0 574.9,266.0 576.1,266.0 577.3,266.0 578.5,266.0 579.7,266.0 580.9,266.0 582.1,266.0 583.3,266.0 584.4,266.0 585.6,266.0 586.8,266.0 588.0,266.0 589.2,266.0 590.4,266.0 591.6,266.0 592.7,266.0 593.9,266.0 595.1,266.0 596.3,266.0 597.5,266.0 598.7,266.0 599.9,266.0 601.1,266.0 602.2,266.0 603.4,266.0 604.6,266.0 605.8,266.0 607.0,266.0 608.2,266.0 609.4,266.0 610.5,266.0 611.7,266.0 612.9,266.0 614.1,266.0 615.3,266.0 616.5,266.0 617.7,266.0 618.9,266.0 620.0,266.0 621.2,266.0 622.4,266.0 623.6,266.0 624.8,266.0 626.0,266.0 627.2,266.0 628.3,266.0 629.5,266.0 630.7,266.0 631.9,266.0 633.1,266.0 634.3,266.0 635.5,266.0 636.7,266.0 637.8,266.0 639.0,266.0 640.2,266.0 641.4,266.0 642.6,266.0 643.8,266.0 645.0,266.0 646.1,266.0 647.3,266.0 648.5,266.0 649.7,266.0 650.9,266.0 652.1,266.0 653.3,266.0 654.5,266.0 655.6,266.0 656.8,266.0 658.0,266.0 659.2,266.0 660.4,266.0 661.6,266.0 662.8,266.0 663.9,266.0 665.1,266.0 666.3,266.0 667.5,266.0 668.7,266.0 669.9,266.0 671.1,266.0 672.3,266.0 673.4,266.0 674.6,266.0 675.8,266.0 677.0,266.0 678.2,266.0 679.4,266.0 680.6,266.0 681.7,266.0 682.9,266.0 684.1,266.0 685.3,266.0 686.5,266.0 687.7,266.0 688.9,266.0 690.1,266.0 691.2,266.0 692.4,266.0 693.6,266.0 694.8,266.0 696.0,266.0 697.2,266.0 698.4,266.0 699.5,266.0 700.7,266.0 701.9,266.0 703.1,266.0 704.3,266.0 705.5,266.0 706.7,266.0 707.9,266.0 709.0,266.0 710.2,266.0 711.4,266.0 712.6,266.0 713.8,266.0 715.0,266.0 716.2,266.0 717.3,266.0 718.5,266.0 719.7,266.0 720.9,266.0 722.1,266.0 723.3,266.0 724.5,266.0 725.7,266.0 726.8,266.0 728.0,266.0 729.2,266.0 730.4,266.0 731.6,266.0 732.8,266.0 734.0,266.0 735.1,266.0 736.3,266.0 737.5,266.0 738.7,266.0 739.9,266.0 741.1,266.0 742.3,266.0 743.5,266.0 744.6,266.0 745.8,266.0 747.0,266.0 748.2,266.0 749.4,266.0 750.6,266.0 751.8,266.0 752.9,266.0 754.1,266.0 755.3,266.0 756.5,266.0 757.7,266.0 758.9,266.0 760.1,266.0 761.3,266.0 762.4,266.0 763.6,266.0 764.8,266.0 766.0,266.0"/>
<line x1="606" y1="78" x2="628" y2="78" stroke="#da1e28" stroke-width="2.2"/>
<text x="634" y="82" font-family="Arial" font-size="12">yaw_deg</text>
</svg>