<svg xmlns="http://www.w3.org/2000/svg" width="820" height="320" viewBox="0 0 820 320">
<rect width="100%" height="100%" fill="#ffffff"/>
<text x="54" y="28" font-family="Arial" font-size="18" font-weight="700">Altitude Position</text>
<line x1="54" y1="266" x2="766" y2="266" stroke="#1f2933"/>
<line x1="54" y1="54" x2="54" y2="266" stroke="#1f2933"/>
<text x="54" y="306" font-family="Arial" font-size="12">time (s)</text>
<text x="596" y="306" font-family="Arial" font-size="12">z (m)</text>
<text x="58" y="68" font-family="Arial" font-size="11">217</text>
<text x="58" y="260" font-family="Arial" font-size="11">20</text>
<polyline fill="none" stroke="#0f62fe" stroke-width="2.2" points="54.0,266.0 55.2,265.7 56.4,265.5 57.6,265.3 58.7,265.0 59.9,264.8 61.1,264.6 62.3,264.4 63.5,264.2 64.7,264.0 65.9,263.8 67.1,263.6 68.2,263.4 69.4,263.2 70.6,263.0 71.8,262.8 73.0,262.7 74.2,262.5 75.4,262.3 76.5,262.2 77.7,262.0 78.9,261.8 80.1,261.7 81.3,261.5 82.5,261.4 83.7,261.2 84.9,261.1 86.0,261.0 87.2,260.8 88.4,260.7 89.6,260.6 90.8,260.4 92.0,260.3 93.2,260.2 94.3,260.1 95.5,260.0 96.7,259.8 97.9,259.7 99.1,259.6 100.3,259.5 101.5,259.4 102.7,259.3 103.8,259.2 105.0,259.1 106.2,259.0 107.4,258.9 108.6,258.8 109.8,258.7 111.0,258.6 112.1,258.5 113.3,258.4 114.5,258.3 115.7,258.3 116.9,258.2 118.1,258.1 119.3,258.0 120.5,257.9 121.6,257.8 122.8,257.8 124.0,257.7 125.2,257.6 126.4,257.5 127.6,257.5 128.8,257.4 129.9,257.3 131.1,257.2 132.3,257.2 133.5,257.1 134.7,257.0 135.9,256.9 137.1,256.9 138.3,256.8 139.4,256.7 140.6,256.7 141.8,256.6 143.0,256.5 144.2,256.5 145.4,256.4 146.6,256.3 147.7,256.3 148.9,256.2 150.1,256.1 151.3,256.0 152.5,256.0 153.7,255.9 154.9,255.8 156.1,255.8 157.2,255.7 158.4,255.6 159.6,255.5 160.8,255.5 162.0,255.4 163.2,255.3 164.4,255.3 165.5,255.2 166.7,255.1 167.9,255.0 169.1,254.9 170.3,254.9 171.5,254.8 172.7,254.7 173.9,254.6 175.0,254.5 176.2,254.4 177.4,254.3 178.6,254.2 179.8,254.2 181.0,254.1 182.2,254.0 183.3,253.9 184.5,253.7 185.7,253.6 186.9,253.5 188.1,253.4 189.3,253.3 190.5,253.2 191.7,253.1 192.8,253.0 194.0,252.8 195.2,252.7 196.4,252.6 197.6,252.4 198.8,252.3 200.0,252.2 201.1,252.0 202.3,251.9 203.5,251.7 204.7,251.6 205.9,251.4 207.1,251.2 208.3,251.1 209.5,250.9 210.6,250.7 211.8,250.6 213.0,250.4 214.2,250.2 215.4,250.0 216.6,249.8 217.8,249.6 218.9,249.4 220.1,249.2 221.3,249.0 222.5,248.8 223.7,248.5 224.9,248.3 226.1,248.1 227.3,247.9 228.4,247.6 229.6,247.4 230.8,247.1 232.0,246.9 233.2,246.6 234.4,246.3 235.6,246.1 236.7,245.8 237.9,245.5 239.1,245.2 240.3,244.9 241.5,244.6 242.7,244.3 243.9,244.0 245.1,243.7 246.2,243.3 247.4,243.0 248.6,242.7 249.8,242.3 251.0,242.0 252.2,241.7 253.4,241.3 254.5,240.9 255.7,240.6 256.9,240.2 258.1,239.8 259.3,239.4 260.5,239.0 261.7,238.7 262.9,238.3 264.0,237.8 265.2,237.4 266.4,237.0 267.6,236.6 268.8,236.2 270.0,235.7 271.2,235.3 272.3,234.8 273.5,234.4 274.7,233.9 275.9,233.4 277.1,232.9 278.3,232.4 279.5,231.9 280.7,231.4 281.8,230.9 283.0,230.3 284.2,229.8 285.4,229.2 286.6,228.7 287.8,228.1 289.0,227.5 290.1,226.9 291.3,226.3 292.5,225.7 293.7,225.0 294.9,224.4 296.1,223.7 297.3,223.1 298.5,222.4 299.6,221.7 300.8,221.0 302.0,220.3 303.2,219.6 304.4,218.9 305.6,218.1 306.8,217.4 307.9,216.6 309.1,215.9 310.3,215.1 311.5,214.3 312.7,213.5 313.9,212.7 315.1,211.9 316.3,211.1 317.4,210.3 318.6,209.4 319.8,208.6 321.0,207.7 322.2,206.8 323.4,205.9 324.6,205.1 325.7,204.2 326.9,203.3 328.1,202.3 329.3,201.4 330.5,200.5 331.7,199.6 332.9,198.6 334.1,197.7 335.2,196.7 336.4,195.7 337.6,194.7 338.8,193.8 340.0,192.8 341.2,191.8 342.4,190.8 343.5,189.7 344.7,188.7 345.9,187.7 347.1,186.7 348.3,185.6 349.5,184.6 350.7,183.5 351.9,182.5 353.0,181.4 354.2,180.4 355.4,179.3 356.6,178.2 357.8,177.2 359.0,176.1 360.2,175.0 361.3,173.9 362.5,172.8 363.7,171.7 364.9,170.6 366.1,169.5 367.3,168.4 368.5,167.2 369.7,166.1 370.8,165.0 372.0,163.8 373.2,162.7 374.4,161.5 375.6,160.4 376.8,159.2 378.0,158.1 379.1,156.9 380.3,155.7 381.5,154.6 382.7,153.4 383.9,152.2 385.1,151.0 386.3,149.8 387.5,148.6 388.6,147.5 389.8,146.3 391.0,145.1 392.2,143.9 393.4,142.7 394.6,141.5 395.8,140.3 396.9,139.1 398.1,137.8 399.3,136.6 400.5,135.4 401.7,134.2 402.9,133.0 404.1,131.8 405.3,130.6 406.4,129.4 407.6,128.2 408.8,127.0 410.0,125.8 411.2,124.6 412.4,123.3 413.6,122.1 414.7,120.9 415.9,119.7 417.1,118.5 418.3,117.3 419.5,116.1 420.7,115.0 421.9,113.8 423.1,112.6 424.2,111.4 425.4,110.2 426.6,109.1 427.8,107.9 429.0,106.7 430.2,105.6 431.4,104.4 432.5,103.3 433.7,102.1 434.9,101.0 436.1,99.9 437.3,98.8 438.5,97.7 439.7,96.5 440.9,95.5 442.0,94.4 443.2,93.3 444.4,92.2 445.6,91.2 446.8,90.1 448.0,89.1 449.2,88.0 450.3,87.0 451.5,86.0 452.7,85.0 453.9,84.0 455.1,83.0 456.3,82.1 457.5,81.1 458.7,80.2 459.8,79.3 461.0,78.3 462.2,77.4 463.4,76.5 464.6,75.7 465.8,74.8 467.0,74.0 468.1,73.1 469.3,72.3 470.5,71.5 471.7,70.7 472.9,70.0 474.1,69.2 475.3,68.5 476.5,67.8 477.6,67.0 478.8,66.4 480.0,65.7 481.2,65.0 482.4,64.4 483.6,63.8 484.8,63.2 485.9,62.6 487.1,62.1 488.3,61.5 489.5,61.0 490.7,60.5 491.9,60.0 493.1,59.5 494.3,59.1 495.4,58.7 496.6,58.2 497.8,57.9 499.0,57.5 500.2,57.1 501.4,56.8 502.6,56.5 503.7,56.2 504.9,55.9 506.1,55.7 507.3,55.4 508.5,55.2 509.7,55.0 510.9,54.8 512.1,54.7 513.2,54.5 514.4,54.4 515.6,54.3 516.8,54.2 518.0,54.1 519.2,54.1 520.4,54.0 521.5,54.0 522.7,54.0 523.9,54.0 525.1,54.0 526.3,54.1 527.5,54.2 528.7,54.3 529.9,54.4 531.0,54.5 532.2,54.6 533.4,54.8 534.6,54.9 535.8,55.1 537.0,55.3 538.2,55.5 539.3,55.8 540.5,56.0 541.7,56.3 542.9,56.6 544.1,56.9 545.3,57.2 546.5,57.5 547.7,57.9 548.8,58.3 550.0,58.6 551.2,59.0 552.4,59.4 553.6,59.8 554.8,60.3 556.0,60.7 557.1,61.2 558.3,61.6 559.5,62.1 560.7,62.6 561.9,63.1 563.1,63.6 564.3,64.1 565.5,64.6 566.6,65.2 567.8,65.7 569.0,66.3 570.2,66.9 571.4,67.4 572.6,68.0 573.8,68.6 574.9,69.2 576.1,69.8 577.3,70.4 578.5,71.1 579.7,71.7 580.9,72.3 582.1,72.9 583.3,73.6 584.4,74.2 585.6,74.8 586.8,75.5 588.0,76.1 589.2,76.8 590.4,77.4 591.6,78.1 592.7,78.8 593.9,79.4 595.1,80.1 596.3,80.8 597.5,81.5 598.7,82.2 599.9,82.9 601.1,83.6 602.2,84.4 603.4,85.1 604.6,85.8 605.8,86.6 607.0,87.3 608.2,88.0 609.4,88.8 610.5,89.5 611.7,90.2 612.9,91.0 614.1,91.7 615.3,92.4 616.5,93.2 617.7,93.9 618.9,94.7 620.0,95.4 621.2,96.2 622.4,97.0 623.6,97.7 624.8,98.5 626.0,99.3 627.2,100.1 628.3,100.9 629.5,101.7 630.7,102.5 631.9,103.3 633.1,104.2 634.3,105.1 635.5,105.9 636.7,106.8 637.8,107.7 639.0,108.6 640.2,109.5 641.4,110.4 642.6,111.4 643.8,112.3 645.0,113.2 646.1,114.2 647.3,115.1 648.5,116.1 649.7,117.1 650.9,118.0 652.1,119.0 653.3,120.0 654.5,121.0 655.6,122.0 656.8,123.0 658.0,124.0 659.2,125.0 660.4,126.1 661.6,127.1 662.8,128.1 663.9,129.2 665.1,130.3 666.3,131.3 667.5,132.4 668.7,133.5 669.9,134.6 671.1,135.7 672.3,136.8 673.4,137.9 674.6,139.0 675.8,140.2 677.0,141.3 678.2,142.5 679.4,143.6 680.6,144.8 681.7,145.9 682.9,147.1 684.1,148.3 685.3,149.5 686.5,150.7 687.7,151.9 688.9,153.1 690.1,154.3 691.2,155.5 692.4,156.7 693.6,158.0 694.8,159.2 696.0,160.4 697.2,161.7 698.4,162.9 699.5,164.2 700.7,165.5 701.9,166.7 703.1,168.0 704.3,169.3 705.5,170.6 706.7,171.9 707.9,173.2 709.0,174.5 710.2,175.8 711.4,177.2 712.6,178.5 713.8,179.8 715.0,181.2 716.2,182.5 717.3,183.9 718.5,185.2 719.7,186.6 720.9,188.0 722.1,189.3 723.3,190.7 724.5,192.1 725.7,193.5 726.8,194.9 728.0,196.3 729.2,197.7 730.4,199.1 731.6,200.5 732.8,202.0 734.0,203.4 735.1,204.8 736.3,206.2 737.5,207.7 738.7,209.1 739.9,210.6 741.1,212.0 742.3,213.5 743.5,214.9 744.6,216.4 745.8,217.9 747.0,219.3 748.2,220.8 749.4,222.3 750.6,223.7 751.8,225.2 752.9,226.7 754.1,228.2 755.3,229.7 756.5,231.2 757.7,232.7 758.9,234.2 760.1,235.7 761.3,237.2 762.4,238.7 763.6,240.2 764.8,241.7 766.0,243.2"/>
<line x1="606" y1="42" x2="628" y2="42" stroke="#0f62fe" stroke-width="2.2"/>
<text x="634" y="46" font-family="Arial" font-size="12">altitude_m</text>
</svg>