<svg xmlns="http://www.w3.org/2000/svg" width="820" height="320" viewBox="0 0 820 320">
<rect width="100%" height="100%" fill="#ffffff"/>
<text x="54" y="28" font-family="Arial" font-size="18" font-weight="700">Body Rates</text>
<line x1="54" y1="266" x2="766" y2="266" stroke="#1f2933"/>
<line x1="54" y1="54" x2="54" y2="266" stroke="#1f2933"/>
<text x="54" y="306" font-family="Arial" font-size="12">time (s)</text>
<text x="596" y="306" font-family="Arial" font-size="12">rate (deg/s)</text>
<text x="58" y="68" font-family="Arial" font-size="11">301</text>
<text x="58" y="260" font-family="Arial" font-size="11">-217</text>
<polyline fill="none" stroke="#0f62fe" stroke-width="2.2" points="54.0,177.2 55.2,177.2 56.4,177.2 57.6,177.2 58.7,177.2 59.9,177.2 61.1,177.2 62.3,177.2 63.5,177.2 64.7,177.2 65.9,177.2 67.1,177.2 68.2,177.2 69.4,177.2 70.6,177.2 71.8,177.2 73.0,177.2 74.2,177.2 75.4,177.2 76.5,177.2 77.7,177.2 78.9,177.3 80.1,177.3 81.3,177.3 82.5,177.3 83.7,177.3 84.9,177.3 86.0,177.2 87.2,177.2 88.4,177.2 89.6,177.2 90.8,177.2 92.0,177.2 93.2,177.2 94.3,177.2 95.5,177.2 96.7,177.2 97.9,177.2 99.1,177.2 100.3,177.2 101.5,177.2 102.7,177.2 103.8,177.2 105.0,177.2 106.2,177.2 107.4,177.2 108.6,177.2 109.8,177.3 111.0,177.2 112.1,177.3 113.3,177.3 114.5,177.2 115.7,177.3 116.9,177.3 118.1,177.3 119.3,177.3 120.5,177.3 121.6,177.3 122.8,177.3 124.0,177.3 125.2,177.3 126.4,177.3 127.6,177.3 128.8,177.3 129.9,177.3 131.1,177.3 132.3,177.3 133.5,177.3 134.7,177.3 135.9,177.3 137.1,177.3 138.3,177.3 139.4,177.3 140.6,177.3 141.8,177.3 143.0,177.3 144.2,177.3 145.4,177.3 146.6,177.3 147.7,177.3 148.9,177.3 150.1,177.3 151.3,177.3 152.5,177.4 153.7,177.4 154.9,177.4 156.1,177.4 157.2,177.4 158.4,177.4 159.6,177.4 160.8,177.4 162.0,177.4 163.2,177.4 164.4,177.4 165.5,177.4 166.7,177.5 167.9,177.5 169.1,177.5 170.3,177.5 171.5,177.5 172.7,177.5 173.9,177.5 175.0,177.5 176.2,177.6 177.4,177.6 178.6,177.6 179.8,177.6 181.0,177.6 182.2,177.7 183.3,177.7 184.5,177.7 185.7,177.7 186.9,177.7 188.1,177.8 189.3,177.8 190.5,177.8 191.7,177.9 192.8,177.9 194.0,177.9 195.2,178.0 196.4,178.0 197.6,178.1 198.8,178.1 200.0,178.2 201.1,178.2 202.3,178.3 203.5,178.3 204.7,178.4 205.9,178.4 207.1,178.5 208.3,178.6 209.5,178.7 210.6,178.7 211.8,178.8 213.0,178.9 214.2,179.0 215.4,179.1 216.6,179.2 217.8,179.3 218.9,179.5 220.1,179.6 221.3,179.7 222.5,179.9 223.7,180.0 224.9,180.2 226.1,180.4 227.3,180.6 228.4,180.8 229.6,181.0 230.8,181.3 232.0,181.5 233.2,181.8 234.4,182.1 235.6,182.4 236.7,182.7 237.9,183.0 239.1,183.5 240.3,183.8 241.5,184.3 242.7,184.0 243.9,183.9 245.1,183.9 246.2,183.9 247.4,183.8 248.6,183.8 249.8,183.8 251.0,183.7 252.2,183.7 253.4,183.6 254.5,183.6 255.7,183.5 256.9,183.4 258.1,183.4 259.3,183.3 260.5,183.3 261.7,183.1 262.9,183.1 264.0,183.0 265.2,182.9 266.4,182.8 267.6,182.8 268.8,182.7 270.0,182.6 271.2,182.5 272.3,182.5 273.5,182.4 274.7,182.4 275.9,182.3 277.1,182.3 278.3,182.2 279.5,182.1 280.7,182.1 281.8,182.1 283.0,182.0 284.2,182.0 285.4,181.9 286.6,181.9 287.8,181.9 289.0,181.9 290.1,181.9 291.3,181.9 292.5,181.9 293.7,182.0 294.9,182.0 296.1,182.1 297.3,182.1 298.5,182.1 299.6,182.1 300.8,182.2 302.0,182.1 303.2,182.1 304.4,182.1 305.6,182.1 306.8,182.0 307.9,182.0 309.1,181.9 310.3,181.9 311.5,181.9 312.7,181.9 313.9,181.9 315.1,181.9 316.3,182.0 317.4,182.0 318.6,182.0 319.8,182.1 321.0,182.1 322.2,182.1 323.4,182.1 324.6,182.1 325.7,182.1 326.9,182.1 328.1,182.0 329.3,182.0 330.5,182.0 331.7,182.0 332.9,181.9 334.1,181.9 335.2,181.9 336.4,181.9 337.6,181.9 338.8,182.0 340.0,182.0 341.2,182.0 342.4,182.1 343.5,182.1 344.7,182.1 345.9,182.1 347.1,182.1 348.3,182.1 349.5,182.1 350.7,182.1 351.9,182.0 353.0,182.0 354.2,182.0 355.4,182.0 356.6,181.9 357.8,182.0 359.0,181.9 360.2,182.0 361.3,182.0 362.5,182.0 363.7,182.0 364.9,182.1 366.1,182.1 367.3,182.1 368.5,182.1 369.7,182.1 370.8,182.1 372.0,182.1 373.2,182.0 374.4,182.0 375.6,182.0 376.8,182.0 378.0,181.9 379.1,182.0 380.3,181.9 381.5,182.0 382.7,182.0 383.9,182.0 385.1,182.0 386.3,182.1 387.5,182.1 388.6,182.1 389.8,182.1 391.0,182.1 392.2,182.1 393.4,182.1 394.6,182.0 395.8,182.0 396.9,182.0 398.1,182.0 399.3,182.0 400.5,182.0 401.7,182.0 402.9,182.0 404.1,182.0 405.3,182.0 406.4,182.0 407.6,182.0 408.8,182.1 410.0,182.1 411.2,182.1 412.4,182.1 413.6,182.1 414.7,182.1 415.9,182.0 417.1,182.1 418.3,182.0 419.5,182.0 420.7,182.0 421.9,182.0 423.1,182.0 424.2,182.0 425.4,182.0 426.6,182.0 427.8,182.0 429.0,182.0 430.2,182.0 431.4,182.1 432.5,182.1 433.7,182.1 434.9,182.1 436.1,182.1 437.3,182.1 438.5,182.1 439.7,182.0 440.9,182.0 442.0,182.0 443.2,182.0 444.4,182.0 445.6,182.0 446.8,182.0 448.0,182.0 449.2,182.0 450.3,182.0 451.5,182.0 452.7,182.0 453.9,182.0 455.1,182.1 456.3,182.1 457.5,182.1 458.7,182.1 459.8,182.1 461.0,182.1 462.2,182.0 463.4,182.0 464.6,182.0 465.8,182.0 467.0,182.0 468.1,182.0 469.3,182.0 470.5,182.0 471.7,182.0 472.9,182.0 474.1,182.0 475.3,182.0 476.5,182.0 477.6,182.0 478.8,182.1 480.0,182.1 481.2,182.1 482.4,182.1 483.6,182.1 484.8,182.1 485.9,182.1 487.1,182.1 488.3,182.1 489.5,182.1 490.7,182.1 491.9,182.1 493.1,182.1 494.3,182.1 495.4,182.1 496.6,182.1 497.8,182.1 499.0,182.1 500.2,182.1 501.4,182.1 502.6,182.2 503.7,182.2 504.9,182.2 506.1,182.2 507.3,182.3 508.5,182.3 509.7,182.3 510.9,182.4 512.1,182.4 513.2,182.5 514.4,182.5 515.6,182.6 516.8,182.6 518.0,182.7 519.2,182.7 520.4,182.8 521.5,182.8 522.7,182.9 523.9,183.0 525.1,183.0 526.3,183.1 527.5,183.2 528.7,183.3 529.9,183.4 531.0,183.5 532.2,183.6 533.4,183.7 534.6,183.8 535.8,183.9 537.0,184.0 538.2,184.1 539.3,184.2 540.5,184.3 541.7,184.4 542.9,184.5 544.1,184.5 545.3,184.6 546.5,184.7 547.7,184.8 548.8,184.9 550.0,185.0 551.2,185.1 552.4,185.2 553.6,185.3 554.8,185.4 556.0,185.5 557.1,185.6 558.3,185.8 559.5,185.9 560.7,186.0 561.9,186.1 563.1,186.2 564.3,186.4 565.5,186.6 566.6,186.7 567.8,186.8 569.0,187.0 570.2,187.1 571.4,187.3 572.6,187.5 573.8,187.7 574.9,187.9 576.1,188.1 577.3,188.3 578.5,188.5 579.7,188.8 580.9,189.1 582.1,189.4 583.3,189.7 584.4,190.0 585.6,190.1 586.8,190.0 588.0,189.0 589.2,187.2 590.4,184.9 591.6,182.5 592.7,180.1 593.9,177.7 595.1,175.4 596.3,173.7 597.5,172.7 598.7,171.9 599.9,170.9 601.1,169.6 602.2,167.9 603.4,165.7 604.6,163.1 605.8,160.2 607.0,157.1 608.2,154.4 609.4,152.5 610.5,151.7 611.7,152.2 612.9,153.7 614.1,155.9 615.3,158.4 616.5,161.0 617.7,163.7 618.9,165.4 620.0,166.3 621.2,166.7 622.4,166.7 623.6,166.6 624.8,166.7 626.0,167.2 627.2,168.1 628.3,169.3 629.5,170.4 630.7,171.5 631.9,172.2 633.1,172.6 634.3,172.7 635.5,172.7 636.7,172.6 637.8,172.5 639.0,172.3 640.2,172.0 641.4,171.5 642.6,171.0 643.8,170.3 645.0,169.7 646.1,169.0 647.3,168.5 648.5,168.0 649.7,167.7 650.9,167.5 652.1,167.5 653.3,167.5 654.5,167.5 655.6,167.5 656.8,167.5 658.0,167.5 659.2,167.5 660.4,167.5 661.6,167.6 662.8,167.7 663.9,167.7 665.1,167.8 666.3,167.9 667.5,167.9 668.7,167.9 669.9,167.8 671.1,167.8 672.3,167.7 673.4,167.6 674.6,167.5 675.8,167.4 677.0,167.3 678.2,167.2 679.4,167.0 680.6,166.9 681.7,166.8 682.9,166.7 684.1,166.6 685.3,166.5 686.5,166.4 687.7,166.3 688.9,166.3 690.1,166.2 691.2,166.1 692.4,166.1 693.6,166.1 694.8,166.0 696.0,166.0 697.2,166.0 698.4,166.0 699.5,166.0 700.7,166.1 701.9,166.1 703.1,166.1 704.3,166.2 705.5,166.2 706.7,166.3 707.9,166.3 709.0,166.4 710.2,166.4 711.4,166.5 712.6,166.5 713.8,166.6 715.0,166.6 716.2,166.7 717.3,166.7 718.5,166.7 719.7,166.8 720.9,166.8 722.1,166.8 723.3,166.9 724.5,167.5 725.7,168.6 726.8,170.4 728.0,172.7 729.2,175.5 730.4,178.4 731.6,180.9 732.8,182.8 734.0,184.2 735.1,185.2 736.3,185.6 737.5,185.6 738.7,185.2 739.9,184.3 741.1,183.6 742.3,183.3 743.5,183.2 744.6,183.3 745.8,183.5 747.0,183.6 748.2,183.8 749.4,183.9 750.6,184.0 751.8,184.1 752.9,184.2 754.1,184.3 755.3,184.3 756.5,184.4 757.7,184.5 758.9,184.6 760.1,184.7 761.3,184.8 762.4,184.9 763.6,185.0 764.8,185.1 766.0,185.2"/>
<line x1="606" y1="42" x2="628" y2="42" stroke="#0f62fe" stroke-width="2.2"/>
<text x="634" y="46" font-family="Arial" font-size="12">p_dps</text>
<polyline fill="none" stroke="#24a148" stroke-width="2.2" points="54.0,177.2 55.2,180.9 56.4,181.5 57.6,179.9 58.7,178.5 59.9,178.4 61.1,178.5 62.3,178.4 63.5,178.1 64.7,177.8 65.9,177.7 67.1,177.6 68.2,177.4 69.4,177.3 70.6,177.2 71.8,177.1 73.0,177.1 74.2,177.0 75.4,176.9 76.5,176.9 77.7,176.9 78.9,176.8 80.1,176.8 81.3,176.8 82.5,176.7 83.7,176.7 84.9,176.7 86.0,176.7 87.2,176.7 88.4,176.7 89.6,176.7 90.8,176.7 92.0,176.7 93.2,176.7 94.3,176.7 95.5,176.7 96.7,176.7 97.9,176.7 99.1,176.7 100.3,176.7 101.5,176.7 102.7,176.7 103.8,176.7 105.0,176.7 106.2,176.7 107.4,176.8 108.6,176.8 109.8,176.8 111.0,176.8 112.1,176.8 113.3,176.8 114.5,176.8 115.7,176.8 116.9,176.8 118.1,176.8 119.3,176.8 120.5,176.9 121.6,176.9 122.8,176.9 124.0,176.9 125.2,176.9 126.4,176.9 127.6,176.9 128.8,176.9 129.9,176.9 131.1,176.9 132.3,176.9 133.5,176.9 134.7,177.0 135.9,177.0 137.1,177.0 138.3,177.0 139.4,177.0 140.6,177.0 141.8,177.0 143.0,177.0 144.2,177.0 145.4,177.0 146.6,177.0 147.7,177.0 148.9,177.0 150.1,177.1 151.3,177.1 152.5,177.1 153.7,177.2 154.9,177.2 156.1,177.2 157.2,177.2 158.4,177.3 159.6,177.3 160.8,177.3 162.0,177.3 163.2,177.3 164.4,177.3 165.5,177.4 166.7,177.4 167.9,177.4 169.1,177.4 170.3,177.4 171.5,177.4 172.7,177.4 173.9,177.4 175.0,177.4 176.2,177.4 177.4,177.5 178.6,177.5 179.8,177.5 181.0,177.5 182.2,177.5 183.3,177.5 184.5,177.5 185.7,177.5 186.9,177.5 188.1,177.5 189.3,177.5 190.5,177.5 191.7,177.5 192.8,177.5 194.0,177.5 195.2,177.5 196.4,177.5 197.6,177.6 198.8,177.5 200.0,177.6 201.1,177.5 202.3,177.7 203.5,177.3 204.7,178.1 205.9,176.6 207.1,179.4 208.3,173.9 209.5,184.7 210.6,175.5 211.8,178.2 213.0,175.7 214.2,180.4 215.4,170.9 216.6,181.6 217.8,172.8 218.9,183.6 220.1,173.8 221.3,183.8 222.5,173.0 223.7,182.7 224.9,171.9 226.1,182.3 227.3,171.9 228.4,182.9 229.6,172.5 230.8,183.4 232.0,172.6 233.2,183.4 234.4,172.2 235.6,183.1 236.7,171.8 237.9,183.1 239.1,171.9 240.3,183.3 241.5,171.9 242.7,183.4 243.9,171.7 245.1,183.3 246.2,171.5 247.4,183.4 248.6,171.4 249.8,183.5 251.0,171.4 252.2,183.5 253.4,171.3 254.5,183.6 255.7,171.1 256.9,183.6 258.1,171.0 259.3,183.6 260.5,172.0 261.7,185.1 262.9,171.8 264.0,184.0 265.2,174.2 266.4,187.7 267.6,174.2 268.8,184.9 270.0,171.4 271.2,182.3 272.3,178.5 273.5,185.7 274.7,172.2 275.9,179.7 277.1,185.9 278.3,172.4 279.5,179.1 280.7,187.8 281.8,174.3 283.0,181.2 284.2,178.0 285.4,185.6 286.6,172.1 287.8,180.6 289.0,178.9 290.1,179.5 291.3,176.3 292.5,184.9 293.7,171.4 294.9,181.7 296.1,168.2 297.3,181.7 298.5,172.2 299.6,185.7 300.8,174.5 302.0,188.0 303.2,174.5 304.4,187.2 305.6,173.7 306.8,184.7 307.9,171.2 309.1,183.6 310.3,172.7 311.5,186.1 312.7,173.7 313.9,187.2 315.1,173.7 316.3,187.2 317.4,173.7 318.6,183.8 319.8,170.3 321.0,183.6 322.2,170.1 323.4,183.6 324.6,170.4 325.7,183.9 326.9,174.0 328.1,187.5 329.3,174.4 330.5,187.9 331.7,174.4 332.9,187.8 334.1,174.3 335.2,185.6 336.4,172.1 337.6,184.5 338.8,171.0 340.0,184.5 341.2,171.0 342.4,184.5 343.5,171.0 344.7,184.5 345.9,172.0 347.1,185.5 348.3,173.0 349.5,186.5 350.7,173.8 351.9,187.3 353.0,173.8 354.2,187.3 355.4,174.2 356.6,187.7 357.8,174.2 359.0,187.7 360.2,174.2 361.3,187.7 362.5,174.2 363.7,186.8 364.9,173.3 366.1,186.0 367.3,172.5 368.5,186.0 369.7,172.5 370.8,186.0 372.0,174.9 373.2,188.4 374.4,174.9 375.6,188.4 376.8,174.9 378.0,188.4 379.1,174.9 380.3,188.4 381.5,174.9 382.7,187.0 383.9,173.5 385.1,186.2 386.3,172.7 387.5,186.2 388.6,172.7 389.8,186.2 391.0,175.2 392.2,188.7 393.4,175.2 394.6,188.7 395.8,176.2 396.9,189.7 398.1,176.2 399.3,189.7 400.5,176.2 401.7,189.7 402.9,176.2 404.1,189.7 405.3,176.2 406.4,188.5 407.6,175.1 408.8,187.3 410.0,173.8 411.2,187.3 412.4,175.7 413.6,189.2 414.7,176.7 415.9,190.2 417.1,177.8 418.3,191.3 419.5,177.8 420.7,191.3 421.9,177.8 423.1,191.3 424.2,177.8 425.4,189.9 426.6,176.4 427.8,189.9 429.0,176.4 430.2,188.0 431.4,176.6 432.5,189.3 433.7,176.3 434.9,189.8 436.1,179.3 437.3,189.3 438.5,181.5 439.7,189.0 440.9,183.4 442.0,188.0 443.2,184.8 444.4,186.6 445.6,185.2 446.8,185.4 448.0,184.9 449.2,184.5 450.3,184.3 451.5,184.0 452.7,184.0 453.9,184.0 455.1,184.2 456.3,184.5 457.5,185.0 458.7,185.4 459.8,185.9 461.0,186.4 462.2,186.9 463.4,187.2 464.6,187.4 465.8,187.5 467.0,187.5 468.1,188.3 469.3,188.7 470.5,188.6 471.7,188.7 472.9,188.8 474.1,188.8 475.3,188.9 476.5,189.1 477.6,189.4 478.8,189.9 480.0,190.4 481.2,191.2 482.4,192.1 483.6,193.0 484.8,194.1 485.9,195.2 487.1,196.4 488.3,197.5 489.5,198.7 490.7,199.8 491.9,200.8 493.1,201.6 494.3,202.1 495.4,202.5 496.6,202.7 497.8,202.7 499.0,202.6 500.2,202.7 501.4,202.7 502.6,202.7 503.7,202.8 504.9,202.8 506.1,202.8 507.3,202.8 508.5,202.9 509.7,202.9 510.9,202.9 512.1,203.0 513.2,203.0 514.4,203.0 515.6,203.0 516.8,203.1 518.0,203.1 519.2,203.1 520.4,203.1 521.5,203.2 522.7,203.2 523.9,203.2 525.1,203.3 526.3,203.3 527.5,203.3 528.7,203.3 529.9,203.4 531.0,203.4 532.2,203.4 533.4,203.5 534.6,203.5 535.8,203.5 537.0,203.5 538.2,203.5 539.3,202.2 540.5,196.8 541.7,189.3 542.9,181.1 544.1,173.4 545.3,167.9 546.5,165.1 547.7,164.5 548.8,164.9 550.0,165.2 551.2,164.9 552.4,164.1 553.6,162.9 554.8,161.7 556.0,160.4 557.1,159.2 558.3,159.7 559.5,163.3 560.7,170.8 561.9,182.5 563.1,196.0 564.3,205.1 565.5,207.7 566.6,206.8 567.8,205.1 569.0,204.0 570.2,203.7 571.4,203.8 572.6,204.0 573.8,204.2 574.9,204.2 576.1,204.3 577.3,204.3 578.5,204.3 579.7,204.3 580.9,204.4 582.1,204.4 583.3,204.5 584.4,204.6 585.6,204.7 586.8,204.8 588.0,204.9 589.2,204.9 590.4,204.8 591.6,204.7 592.7,204.0 593.9,197.2 595.1,184.9 596.3,171.4 597.5,157.9 598.7,144.5 599.9,131.0 601.1,117.5 602.2,104.0 603.4,90.5 604.6,77.0 605.8,65.7 607.0,65.2 608.2,77.7 609.4,91.2 610.5,104.7 611.7,118.2 612.9,131.7 614.1,145.2 615.3,158.7 616.5,172.2 617.7,185.7 618.9,199.2 620.0,212.7 621.2,226.2 622.4,239.7 623.6,253.2 624.8,266.0 626.0,263.2 627.2,249.7 628.3,236.2 629.5,222.7 630.7,210.8 631.9,203.1 633.1,200.4 634.3,200.7 635.5,201.8 636.7,203.0 637.8,200.9 639.0,194.2 640.2,183.2 641.4,169.7 642.6,156.2 643.8,143.0 645.0,132.9 646.1,125.4 647.3,122.0 648.5,123.1 649.7,128.6 650.9,139.2 652.1,152.7 653.3,166.2 654.5,179.7 655.6,192.9 656.8,203.9 658.0,212.1 659.2,217.5 660.4,220.1 661.6,219.1 662.8,216.5 663.9,213.1 665.1,209.5 666.3,206.2 667.5,204.1 668.7,202.6 669.9,201.2 671.1,199.5 672.3,197.5 673.4,195.4 674.6,193.2 675.8,191.1 677.0,189.3 678.2,187.8 679.4,186.7 680.6,186.1 681.7,186.1 682.9,186.7 684.1,188.1 685.3,190.3 686.5,193.3 687.7,197.1 688.9,200.5 690.1,202.7 691.2,203.8 692.4,204.2 693.6,204.2 694.8,204.1 696.0,204.0 697.2,203.9 698.4,203.9 699.5,203.9 700.7,203.9 701.9,203.9 703.1,203.9 704.3,203.9 705.5,203.9 706.7,203.9 707.9,203.9 709.0,203.9 710.2,203.9 711.4,203.9 712.6,203.9 713.8,203.9 715.0,203.9 716.2,203.9 717.3,203.9 718.5,203.9 719.7,203.9 720.9,203.9 722.1,203.9 723.3,203.9 724.5,203.9 725.7,203.8 726.8,203.8 728.0,203.7 729.2,203.6 730.4,203.5 731.6,203.4 732.8,203.3 734.0,203.2 735.1,203.1 736.3,203.0 737.5,202.5 738.7,201.0 739.9,199.2 741.1,197.6 742.3,196.5 743.5,195.6 744.6,194.6 745.8,193.6 747.0,192.6 748.2,191.6 749.4,190.7 750.6,189.8 751.8,189.0 752.9,188.1 754.1,187.3 755.3,186.6 756.5,185.8 757.7,185.1 758.9,184.4 760.1,183.8 761.3,183.2 762.4,182.6 763.6,182.0 764.8,181.4 766.0,180.9"/>
<line x1="606" y1="60" x2="628" y2="60" stroke="#24a148" stroke-width="2.2"/>
<text x="634" y="64" font-family="Arial" font-size="12">q_dps</text>
<polyline fill="none" stroke="#da1e28" stroke-width="2.2" points="54.0,177.2 55.2,177.2 56.4,177.2 57.6,177.2 58.7,177.2 59.9,177.2 61.1,177.2 62.3,177.2 63.5,177.2 64.7,177.2 65.9,177.2 67.1,177.2 68.2,177.2 69.4,177.2 70.6,177.2 71.8,177.2 73.0,177.1 74.2,177.1 75.4,177.1 76.5,177.1 77.7,177.1 78.9,177.1 80.1,177.1 81.3,177.1 82.5,177.1 83.7,177.1 84.9,177.1 86.0,177.1 87.2,177.1 88.4,177.1 89.6,177.2 90.8,177.2 92.0,177.2 93.2,177.2 94.3,177.2 95.5,177.2 96.7,177.1 97.9,177.1 99.1,177.1 100.3,177.1 101.5,177.1 102.7,177.1 103.8,177.1 105.0,177.1 106.2,177.1 107.4,177.1 108.6,177.1 109.8,177.1 111.0,177.1 112.1,177.1 113.3,177.1 114.5,177.1 115.7,177.1 116.9,177.1 118.1,177.1 119.3,177.1 120.5,177.1 121.6,177.1 122.8,177.1 124.0,177.1 125.2,177.1 126.4,177.1 127.6,177.1 128.8,177.1 129.9,177.1 131.1,177.1 132.3,177.1 133.5,177.1 134.7,177.1 135.9,177.1 137.1,177.1 138.3,177.1 139.4,177.1 140.6,177.1 141.8,177.1 143.0,177.1 144.2,177.1 145.4,177.1 146.6,177.1 147.7,177.1 148.9,177.1 150.1,177.1 151.3,177.1 152.5,177.1 153.7,177.1 154.9,177.1 156.1,177.1 157.2,177.1 158.4,177.1 159.6,177.0 160.8,177.0 162.0,177.0 163.2,177.0 164.4,177.0 165.5,177.0 166.7,177.0 167.9,177.0 169.1,177.0 170.3,177.0 171.5,177.0 172.7,177.0 173.9,177.0 175.0,177.0 176.2,176.9 177.4,176.9 178.6,176.9 179.8,176.9 181.0,176.9 182.2,176.9 183.3,176.9 184.5,176.9 185.7,176.8 186.9,176.8 188.1,176.8 189.3,176.8 190.5,176.8 191.7,176.8 192.8,176.7 194.0,176.7 195.2,176.7 196.4,176.7 197.6,176.7 198.8,176.6 200.0,176.6 201.1,176.6 202.3,176.5 203.5,176.5 204.7,176.5 205.9,176.5 207.1,176.4 208.3,176.4 209.5,176.4 210.6,176.3 211.8,176.2 213.0,176.2 214.2,176.2 215.4,176.1 216.6,176.1 217.8,176.0 218.9,176.0 220.1,175.9 221.3,175.8 222.5,175.7 223.7,175.7 224.9,175.5 226.1,175.5 227.3,175.4 228.4,175.4 229.6,175.2 230.8,175.1 232.0,175.0 233.2,174.9 234.4,174.7 235.6,174.6 236.7,174.4 237.9,174.4 239.1,174.1 240.3,174.1 241.5,173.8 242.7,173.7 243.9,173.4 245.1,173.3 246.2,173.0 247.4,172.9 248.6,172.5 249.8,172.4 251.0,172.0 252.2,171.9 253.4,171.4 254.5,171.4 255.7,170.8 256.9,170.8 258.1,170.2 259.3,170.1 260.5,169.4 261.7,169.3 262.9,168.5 264.0,168.4 265.2,168.6 266.4,168.9 267.6,169.2 268.8,169.3 270.0,169.5 271.2,169.5 272.3,169.7 273.5,169.9 274.7,170.1 275.9,170.1 277.1,170.3 278.3,170.4 279.5,170.5 280.7,170.6 281.8,170.8 283.0,170.8 284.2,170.9 285.4,171.3 286.6,171.9 287.8,172.6 289.0,173.6 290.1,174.7 291.3,175.7 292.5,176.6 293.7,177.3 294.9,177.7 296.1,177.8 297.3,177.5 298.5,177.0 299.6,176.2 300.8,175.2 302.0,174.2 303.2,173.3 304.4,172.5 305.6,171.9 306.8,171.5 307.9,171.5 309.1,171.8 310.3,172.3 311.5,173.1 312.7,174.0 313.9,174.9 315.1,175.8 316.3,176.5 317.4,177.0 318.6,177.2 319.8,177.1 321.0,176.7 322.2,176.1 323.4,175.3 324.6,174.4 325.7,173.5 326.9,172.8 328.1,172.2 329.3,171.9 330.5,171.8 331.7,172.0 332.9,172.4 334.1,173.1 335.2,173.9 336.4,174.7 337.6,175.4 338.8,176.1 340.0,176.4 341.2,176.7 342.4,176.6 343.5,176.3 344.7,175.7 345.9,175.1 347.1,174.3 348.3,173.6 349.5,172.9 350.7,172.4 351.9,172.1 353.0,172.1 354.2,172.3 355.4,172.7 356.6,173.3 357.8,174.0 359.0,174.6 360.2,175.3 361.3,175.7 362.5,176.1 363.7,176.2 364.9,176.1 366.1,175.7 367.3,175.2 368.5,174.6 369.7,173.9 370.8,173.3 372.0,172.8 373.2,172.4 374.4,172.3 375.6,172.3 376.8,172.6 378.0,173.0 379.1,173.5 380.3,174.1 381.5,174.7 382.7,175.2 383.9,175.6 385.1,175.7 386.3,175.7 387.5,175.5 388.6,175.2 389.8,174.7 391.0,174.2 392.2,173.6 393.4,173.1 394.6,172.7 395.8,172.5 396.9,172.4 398.1,172.6 399.3,172.8 400.5,173.2 401.7,173.7 402.9,174.2 404.1,174.6 405.3,175.0 406.4,175.2 407.6,175.3 408.8,175.2 410.0,175.0 411.2,174.6 412.4,174.2 413.6,173.7 414.7,173.3 415.9,172.9 417.1,172.7 418.3,172.5 419.5,172.5 420.7,172.7 421.9,173.0 423.1,173.3 424.2,173.7 425.4,174.1 426.6,174.4 427.8,174.6 429.0,174.8 430.2,174.8 431.4,174.7 432.5,174.5 433.7,174.2 434.9,173.8 436.1,173.5 437.3,173.1 438.5,172.8 439.7,172.6 440.9,172.5 442.0,172.5 443.2,172.6 444.4,172.8 445.6,173.0 446.8,173.3 448.0,173.6 449.2,173.9 450.3,174.1 451.5,174.2 452.7,174.3 453.9,174.2 455.1,174.1 456.3,173.9 457.5,173.7 458.7,173.4 459.8,173.1 461.0,172.8 462.2,172.6 463.4,172.5 464.6,172.4 465.8,172.3 467.0,172.4 468.1,172.5 469.3,172.6 470.5,172.8 471.7,173.0 472.9,173.2 474.1,173.3 475.3,173.4 476.5,173.4 477.6,173.4 478.8,173.3 480.0,173.1 481.2,172.9 482.4,172.7 483.6,172.4 484.8,172.1 485.9,171.8 487.1,171.5 488.3,171.3 489.5,171.1 490.7,170.9 491.9,170.7 493.1,170.7 494.3,170.7 495.4,170.8 496.6,170.8 497.8,170.7 499.0,170.7 500.2,170.6 501.4,170.6 502.6,170.5 503.7,170.5 504.9,170.4 506.1,170.4 507.3,170.3 508.5,170.2 509.7,170.1 510.9,170.1 512.1,170.0 513.2,169.9 514.4,169.8 515.6,169.6 516.8,169.5 518.0,169.4 519.2,169.3 520.4,169.1 521.5,169.0 522.7,168.8 523.9,168.6 525.1,168.5 526.3,168.3 527.5,168.1 528.7,167.9 529.9,167.7 531.0,167.5 532.2,167.2 533.4,167.0 534.6,166.7 535.8,167.4 537.0,168.9 538.2,171.3 539.3,174.4 540.5,178.3 541.7,183.0 542.9,187.5 544.1,190.3 545.3,191.6 546.5,191.4 547.7,190.5 548.8,189.7 550.0,189.1 551.2,188.6 552.4,188.4 553.6,188.1 554.8,187.9 556.0,187.6 557.1,185.9 558.3,182.8 559.5,178.2 560.7,172.4 561.9,166.6 563.1,161.5 564.3,157.3 565.5,153.8 566.6,151.0 567.8,148.8 569.0,147.1 570.2,145.9 571.4,145.3 572.6,145.0 573.8,144.6 574.9,143.8 576.1,142.5 577.3,140.7 578.5,138.4 579.7,135.4 580.9,131.9 582.1,127.7 583.3,122.9 584.4,117.4 585.6,112.0 586.8,106.7 588.0,101.4 589.2,96.2 590.4,91.0 591.6,85.8 592.7,80.6 593.9,75.5 595.1,70.3 596.3,65.2 597.5,60.2 598.7,56.1 599.9,54.0 601.1,54.2 602.2,57.0 603.4,62.6 604.6,71.0 605.8,82.3 607.0,95.8 608.2,109.3 609.4,122.8 610.5,136.3 611.7,149.8 612.9,163.3 614.1,176.8 615.3,190.2 616.5,202.5 617.7,213.9 618.9,224.3 620.0,233.6 621.2,240.7 622.4,245.6 623.6,248.2 624.8,248.3 626.0,246.1 627.2,241.8 628.3,235.6 629.5,227.9 630.7,219.1 631.9,209.5 633.1,199.5 634.3,189.2 635.5,179.2 636.7,170.0 637.8,161.8 639.0,154.6 640.2,148.7 641.4,144.2 642.6,141.1 643.8,139.5 645.0,139.5 646.1,141.1 647.3,144.1 648.5,148.5 649.7,154.2 650.9,159.9 652.1,165.2 653.3,170.2 654.5,174.7 655.6,178.6 656.8,181.8 658.0,184.3 659.2,186.1 660.4,187.0 661.6,187.3 662.8,186.8 663.9,185.7 665.1,184.3 666.3,182.9 667.5,181.4 668.7,180.0 669.9,178.7 671.1,177.5 672.3,176.5 673.4,175.6 674.6,174.9 675.8,174.5 677.0,174.3 678.2,174.3 679.4,174.5 680.6,174.9 681.7,175.5 682.9,176.3 684.1,177.3 685.3,178.4 686.5,179.6 687.7,181.0 688.9,182.3 690.1,183.7 691.2,185.2 692.4,186.6 693.6,188.1 694.8,189.6 696.0,191.1 697.2,192.6 698.4,194.0 699.5,195.4 700.7,196.7 701.9,198.0 703.1,199.1 704.3,200.2 705.5,201.2 706.7,202.1 707.9,202.9 709.0,203.6 710.2,204.2 711.4,204.7 712.6,205.2 713.8,205.5 715.0,205.7 716.2,205.9 717.3,206.0 718.5,206.1 719.7,206.0 720.9,206.0 722.1,205.9 723.3,205.7 724.5,205.6 725.7,205.4 726.8,205.3 728.0,205.1 729.2,204.9 730.4,204.6 731.6,204.3 732.8,203.8 734.0,203.1 735.1,202.3 736.3,201.2 737.5,200.0 738.7,198.6 739.9,197.4 741.1,196.2 742.3,195.3 743.5,194.5 744.6,193.9 745.8,193.4 747.0,193.0 748.2,192.6 749.4,192.3 750.6,192.0 751.8,191.8 752.9,191.5 754.1,191.3 755.3,191.0 756.5,190.8 757.7,190.6 758.9,190.3 760.1,190.1 761.3,189.9 762.4,189.6 763.6,189.4 764.8,189.2 766.0,189.0"/>
<line x1="606" y1="78" x2="628" y2="78" stroke="#da1e28" stroke-width="2.2"/>
<text x="634" y="82" font-family="Arial" font-size="12">r_dps</text>
</svg>