<svg xmlns="http://www.w3.org/2000/svg" width="820" height="320" viewBox="0 0 820 320">
<rect width="100%" height="100%" fill="#ffffff"/>
<text x="54" y="28" font-family="Arial" font-size="18" font-weight="700">Mach Number</text>
<line x1="54" y1="266" x2="766" y2="266" stroke="#1f2933"/>
<line x1="54" y1="54" x2="54" y2="266" stroke="#1f2933"/>
<text x="54" y="306" font-family="Arial" font-size="12">time (s)</text>
<text x="596" y="306" font-family="Arial" font-size="12">Mach</text>
<text x="58" y="68" font-family="Arial" font-size="11">0.576</text>
<text x="58" y="260" font-family="Arial" font-size="11">0.211</text>
<polyline fill="none" stroke="#0f62fe" stroke-width="2.2" points="54.0,242.8 55.2,242.0 56.4,241.1 57.6,240.3 58.7,239.4 59.9,238.5 61.1,237.6 62.3,236.7 63.5,235.8 64.7,234.8 65.9,233.9 67.1,232.9 68.2,231.9 69.4,230.9 70.6,229.9 71.8,228.8 73.0,227.8 74.2,226.8 75.4,225.8 76.5,224.7 77.7,223.7 78.9,222.7 80.1,221.7 81.3,220.7 82.5,219.6 83.7,218.6 84.9,217.6 86.0,216.6 87.2,215.6 88.4,214.6 89.6,213.6 90.8,212.6 92.0,211.6 93.2,210.6 94.3,209.6 95.5,208.6 96.7,207.6 97.9,206.6 99.1,205.6 100.3,204.6 101.5,203.6 102.7,202.6 103.8,201.6 105.0,200.6 106.2,199.6 107.4,198.6 108.6,197.6 109.8,196.6 111.0,195.6 112.1,194.7 113.3,193.7 114.5,192.7 115.7,191.7 116.9,190.7 118.1,189.7 119.3,188.8 120.5,187.8 121.6,186.8 122.8,185.8 124.0,184.9 125.2,183.9 126.4,182.9 127.6,182.0 128.8,181.0 129.9,180.0 131.1,179.1 132.3,178.1 133.5,177.1 134.7,176.2 135.9,175.2 137.1,174.3 138.3,173.3 139.4,172.4 140.6,171.4 141.8,170.5 143.0,169.5 144.2,168.6 145.4,167.6 146.6,166.7 147.7,165.7 148.9,164.8 150.1,163.8 151.3,162.9 152.5,162.0 153.7,161.0 154.9,160.1 156.1,159.2 157.2,158.2 158.4,157.3 159.6,156.4 160.8,155.5 162.0,154.5 163.2,153.6 164.4,152.7 165.5,151.8 166.7,150.9 167.9,149.9 169.1,149.0 170.3,148.1 171.5,147.2 172.7,146.3 173.9,145.4 175.0,144.5 176.2,143.6 177.4,142.7 178.6,141.8 179.8,140.9 181.0,140.0 182.2,139.1 183.3,138.3 184.5,137.4 185.7,136.5 186.9,135.6 188.1,134.7 189.3,133.9 190.5,133.0 191.7,132.1 192.8,131.2 194.0,130.4 195.2,129.5 196.4,128.6 197.6,127.8 198.8,126.9 200.0,126.1 201.1,125.2 202.3,124.4 203.5,123.5 204.7,122.7 205.9,121.8 207.1,121.0 208.3,120.1 209.5,119.3 210.6,118.4 211.8,117.6 213.0,116.8 214.2,116.0 215.4,115.1 216.6,114.3 217.8,113.5 218.9,112.6 220.1,111.8 221.3,111.0 222.5,110.2 223.7,109.4 224.9,108.6 226.1,107.8 227.3,107.0 228.4,106.2 229.6,105.4 230.8,104.6 232.0,103.8 233.2,103.0 234.4,102.2 235.6,101.4 236.7,100.6 237.9,99.9 239.1,99.1 240.3,98.3 241.5,97.5 242.7,96.8 243.9,96.0 245.1,95.2 246.2,94.5 247.4,93.7 248.6,93.0 249.8,92.2 251.0,91.5 252.2,90.7 253.4,90.0 254.5,89.3 255.7,88.5 256.9,87.8 258.1,87.1 259.3,86.4 260.5,85.7 261.7,85.0 262.9,84.3 264.0,83.6 265.2,82.9 266.4,82.3 267.6,81.7 268.8,81.1 270.0,80.5 271.2,79.9 272.3,79.3 273.5,78.8 274.7,78.3 275.9,77.8 277.1,77.3 278.3,76.8 279.5,76.3 280.7,75.8 281.8,75.4 283.0,75.0 284.2,74.6 285.4,74.2 286.6,73.9 287.8,73.5 289.0,73.2 290.1,72.8 291.3,72.5 292.5,72.1 293.7,71.8 294.9,71.5 296.1,71.1 297.3,70.7 298.5,70.3 299.6,69.9 300.8,69.5 302.0,69.1 303.2,68.8 304.4,68.4 305.6,68.1 306.8,67.8 307.9,67.5 309.1,67.1 310.3,66.9 311.5,66.5 312.7,66.3 313.9,66.0 315.1,65.7 316.3,65.5 317.4,65.2 318.6,65.0 319.8,64.7 321.0,64.4 322.2,64.2 323.4,63.9 324.6,63.6 325.7,63.2 326.9,62.9 328.1,62.6 329.3,62.3 330.5,62.0 331.7,61.8 332.9,61.5 334.1,61.3 335.2,61.1 336.4,60.9 337.6,60.7 338.8,60.5 340.0,60.3 341.2,60.1 342.4,59.8 343.5,59.6 344.7,59.3 345.9,59.0 347.1,58.7 348.3,58.5 349.5,58.2 350.7,57.9 351.9,57.7 353.0,57.4 354.2,57.2 355.4,57.0 356.6,56.8 357.8,56.7 359.0,56.5 360.2,56.4 361.3,56.2 362.5,56.1 363.7,55.9 364.9,55.8 366.1,55.7 367.3,55.6 368.5,55.4 369.7,55.3 370.8,55.1 372.0,55.0 373.2,54.8 374.4,54.7 375.6,54.6 376.8,54.6 378.0,54.5 379.1,54.5 380.3,54.4 381.5,54.4 382.7,54.4 383.9,54.4 385.1,54.3 386.3,54.3 387.5,54.3 388.6,54.3 389.8,54.2 391.0,54.1 392.2,54.1 393.4,54.1 394.6,54.0 395.8,54.0 396.9,54.0 398.1,54.1 399.3,54.1 400.5,54.3 401.7,54.3 402.9,54.5 404.1,54.6 405.3,54.8 406.4,55.0 407.6,55.2 408.8,55.4 410.0,55.6 411.2,55.8 412.4,56.0 413.6,56.1 414.7,56.4 415.9,56.6 417.1,56.9 418.3,57.1 419.5,57.5 420.7,57.8 421.9,58.2 423.1,58.6 424.2,59.2 425.4,59.6 426.6,60.2 427.8,60.6 429.0,61.2 430.2,61.7 431.4,62.3 432.5,62.8 433.7,63.3 434.9,63.8 436.1,64.4 437.3,65.0 438.5,65.6 439.7,66.3 440.9,67.0 442.0,67.7 443.2,68.5 444.4,69.3 445.6,70.1 446.8,71.0 448.0,71.9 449.2,72.8 450.3,73.7 451.5,74.6 452.7,75.5 453.9,76.5 455.1,77.4 456.3,78.4 457.5,79.3 458.7,80.3 459.8,81.2 461.0,82.3 462.2,83.3 463.4,84.3 464.6,85.4 465.8,86.5 467.0,87.7 468.1,88.8 469.3,90.0 470.5,91.1 471.7,92.3 472.9,93.4 474.1,94.5 475.3,95.6 476.5,96.8 477.6,97.9 478.8,99.0 480.0,100.1 481.2,101.2 482.4,102.3 483.6,103.4 484.8,104.5 485.9,105.6 487.1,106.7 488.3,107.8 489.5,108.9 490.7,110.1 491.9,111.3 493.1,112.5 494.3,113.7 495.4,114.9 496.6,116.2 497.8,117.5 499.0,118.8 500.2,120.1 501.4,121.5 502.6,122.9 503.7,124.3 504.9,125.7 506.1,127.2 507.3,128.6 508.5,130.1 509.7,131.6 510.9,133.1 512.1,134.7 513.2,136.2 514.4,137.8 515.6,139.4 516.8,140.9 518.0,142.6 519.2,144.2 520.4,145.8 521.5,147.4 522.7,149.1 523.9,150.8 525.1,152.4 526.3,154.1 527.5,155.8 528.7,157.5 529.9,159.2 531.0,160.9 532.2,162.6 533.4,164.3 534.6,166.0 535.8,167.8 537.0,169.5 538.2,171.3 539.3,173.0 540.5,174.7 541.7,176.5 542.9,178.2 544.1,179.9 545.3,181.6 546.5,183.2 547.7,184.8 548.8,186.3 550.0,187.8 551.2,189.2 552.4,190.6 553.6,191.9 554.8,193.2 556.0,194.5 557.1,195.7 558.3,196.8 559.5,197.9 560.7,198.9 561.9,199.9 563.1,200.9 564.3,201.9 565.5,202.9 566.6,203.9 567.8,205.0 569.0,206.0 570.2,207.0 571.4,208.0 572.6,209.0 573.8,210.0 574.9,211.0 576.1,211.9 577.3,212.9 578.5,213.8 579.7,214.8 580.9,215.7 582.1,216.6 583.3,217.6 584.4,218.5 585.6,219.4 586.8,220.3 588.0,221.2 589.2,222.1 590.4,223.0 591.6,223.9 592.7,224.7 593.9,225.6 595.1,226.4 596.3,227.3 597.5,228.1 598.7,228.9 599.9,229.6 601.1,230.3 602.2,230.9 603.4,231.5 604.6,232.0 605.8,232.5 607.0,232.9 608.2,233.2 609.4,233.3 610.5,233.7 611.7,234.2 612.9,234.7 614.1,235.2 615.3,235.8 616.5,236.3 617.7,236.8 618.9,237.3 620.0,237.8 621.2,238.2 622.4,238.5 623.6,238.8 624.8,238.8 626.0,238.8 627.2,238.7 628.3,238.8 629.5,239.0 630.7,239.3 631.9,239.7 633.1,240.1 634.3,240.5 635.5,240.9 636.7,241.4 637.8,241.8 639.0,242.2 640.2,242.6 641.4,243.0 642.6,243.4 643.8,243.8 645.0,244.1 646.1,244.4 647.3,244.7 648.5,244.8 649.7,244.8 650.9,244.8 652.1,244.7 653.3,244.6 654.5,244.5 655.6,244.4 656.8,244.3 658.0,244.2 659.2,244.2 660.4,244.1 661.6,244.1 662.8,244.2 663.9,244.4 665.1,244.6 666.3,244.8 667.5,245.1 668.7,245.4 669.9,245.6 671.1,245.9 672.3,246.2 673.4,246.5 674.6,246.8 675.8,247.1 677.0,247.4 678.2,247.7 679.4,248.0 680.6,248.3 681.7,248.6 682.9,248.8 684.1,249.1 685.3,249.4 686.5,249.7 687.7,250.0 688.9,250.3 690.1,250.6 691.2,250.9 692.4,251.2 693.6,251.5 694.8,251.8 696.0,252.1 697.2,252.4 698.4,252.7 699.5,253.0 700.7,253.3 701.9,253.5 703.1,253.8 704.3,254.1 705.5,254.4 706.7,254.7 707.9,255.0 709.0,255.3 710.2,255.6 711.4,255.8 712.6,256.1 713.8,256.4 715.0,256.7 716.2,256.9 717.3,257.2 718.5,257.4 719.7,257.7 720.9,258.0 722.1,258.2 723.3,258.5 724.5,258.7 725.7,259.0 726.8,259.2 728.0,259.5 729.2,259.7 730.4,260.0 731.6,260.2 732.8,260.4 734.0,260.7 735.1,260.9 736.3,261.1 737.5,261.3 738.7,261.6 739.9,261.8 741.1,262.0 742.3,262.2 743.5,262.4 744.6,262.6 745.8,262.8 747.0,263.1 748.2,263.3 749.4,263.5 750.6,263.7 751.8,263.9 752.9,264.0 754.1,264.2 755.3,264.4 756.5,264.6 757.7,264.8 758.9,265.0 760.1,265.2 761.3,265.3 762.4,265.5 763.6,265.7 764.8,265.8 766.0,266.0"/>
<line x1="606" y1="42" x2="628" y2="42" stroke="#0f62fe" stroke-width="2.2"/>
<text x="634" y="46" font-family="Arial" font-size="12">mach</text>
</svg>