<svg xmlns="http://www.w3.org/2000/svg" width="820" height="320" viewBox="0 0 820 320">
<rect width="100%" height="100%" fill="#ffffff"/>
<text x="54" y="28" font-family="Arial" font-size="18" font-weight="700">Load Factor</text>
<line x1="54" y1="266" x2="766" y2="266" stroke="#1f2933"/>
<line x1="54" y1="54" x2="54" y2="266" stroke="#1f2933"/>
<text x="54" y="306" font-family="Arial" font-size="12">time (s)</text>
<text x="596" y="306" font-family="Arial" font-size="12">g</text>
<text x="58" y="68" font-family="Arial" font-size="11">5.76</text>
<text x="58" y="260" font-family="Arial" font-size="11">0.291</text>
<polyline fill="none" stroke="#0f62fe" stroke-width="2.2" points="54.0,209.6 55.2,208.5 56.4,207.4 57.6,206.2 58.7,205.0 59.9,203.9 61.1,202.7 62.3,201.4 63.5,200.2 64.7,199.0 65.9,197.8 67.1,196.6 68.2,195.3 69.4,194.1 70.6,193.7 71.8,193.8 73.0,193.8 74.2,193.8 75.4,193.9 76.5,193.9 77.7,193.9 78.9,194.0 80.1,194.0 81.3,194.0 82.5,194.1 83.7,194.1 84.9,194.1 86.0,194.1 87.2,194.2 88.4,194.2 89.6,194.2 90.8,194.2 92.0,194.2 93.2,194.3 94.3,194.3 95.5,194.3 96.7,194.3 97.9,194.3 99.1,194.4 100.3,194.4 101.5,194.4 102.7,194.4 103.8,194.4 105.0,194.5 106.2,194.5 107.4,194.5 108.6,194.5 109.8,194.5 111.0,194.5 112.1,194.5 113.3,194.6 114.5,194.6 115.7,194.6 116.9,194.6 118.1,194.6 119.3,194.6 120.5,194.6 121.6,194.6 122.8,194.6 124.0,194.6 125.2,194.7 126.4,194.7 127.6,194.7 128.8,194.7 129.9,194.7 131.1,194.7 132.3,194.7 133.5,194.7 134.7,194.7 135.9,194.7 137.1,194.7 138.3,194.7 139.4,194.7 140.6,194.7 141.8,194.7 143.0,194.7 144.2,194.7 145.4,194.8 146.6,194.8 147.7,194.8 148.9,194.8 150.1,194.8 151.3,194.8 152.5,194.8 153.7,194.8 154.9,194.7 156.1,194.7 157.2,194.7 158.4,194.7 159.6,194.7 160.8,194.6 162.0,194.6 163.2,194.6 164.4,194.6 165.5,194.5 166.7,194.5 167.9,194.5 169.1,194.4 170.3,194.4 171.5,194.3 172.7,194.3 173.9,194.3 175.0,194.2 176.2,194.2 177.4,194.1 178.6,194.1 179.8,194.0 181.0,194.0 182.2,194.0 183.3,193.9 184.5,193.9 185.7,193.8 186.9,193.8 188.1,193.7 189.3,193.7 190.5,193.7 191.7,193.6 192.8,193.6 194.0,193.5 195.2,193.5 196.4,193.4 197.6,193.4 198.8,193.4 200.0,193.3 201.1,193.3 202.3,193.1 203.5,193.4 204.7,192.8 205.9,193.7 207.1,191.9 208.3,195.2 209.5,190.1 210.6,192.5 211.8,191.5 213.0,193.2 214.2,190.0 215.4,195.2 216.6,191.1 217.8,195.4 218.9,190.3 220.1,194.5 221.3,189.0 222.5,193.8 223.7,188.7 224.9,194.0 226.1,189.0 227.3,194.4 228.4,189.1 229.6,194.3 230.8,188.5 232.0,193.9 233.2,187.9 234.4,193.6 235.6,187.7 236.7,193.6 237.9,187.6 239.1,193.6 240.3,187.2 241.5,193.3 242.7,186.8 243.9,193.1 245.1,186.4 246.2,192.9 247.4,186.1 248.6,192.8 249.8,185.7 251.0,192.5 252.2,185.2 253.4,192.2 254.5,184.7 255.7,191.8 256.9,184.1 258.1,191.4 259.3,183.8 260.5,190.5 261.7,181.3 262.9,188.3 264.0,180.0 265.2,185.7 266.4,173.4 267.6,179.9 268.8,169.2 270.0,178.1 271.2,171.7 272.3,172.7 273.5,160.7 274.7,169.9 275.9,168.0 277.1,155.5 278.3,165.1 279.5,164.3 280.7,149.7 281.8,158.0 283.0,153.0 284.2,154.9 285.4,142.1 286.6,153.0 287.8,148.7 289.0,148.3 290.1,146.4 291.3,150.8 292.5,139.1 293.7,151.8 294.9,143.7 296.1,159.4 297.3,151.4 298.5,162.5 299.6,149.7 300.8,158.6 302.0,143.0 303.2,152.2 304.4,137.1 305.6,147.5 306.8,134.9 307.9,148.0 309.1,137.9 310.3,149.3 311.5,135.3 312.7,146.1 313.9,131.1 315.1,142.5 316.3,127.6 317.4,138.9 318.6,128.0 319.8,143.8 321.0,133.0 322.2,148.6 323.4,137.5 324.6,152.3 325.7,140.9 326.9,151.3 328.1,135.3 329.3,145.5 330.5,128.9 331.7,139.7 332.9,123.2 334.1,134.6 335.2,121.0 336.4,135.3 337.6,123.1 338.8,138.8 340.0,126.8 341.2,142.4 342.4,130.2 343.5,145.6 344.7,133.2 345.9,147.1 347.1,133.4 348.3,146.0 349.5,130.9 350.7,142.6 351.9,126.5 353.0,138.5 354.2,122.6 355.4,134.6 356.6,117.9 357.8,130.4 359.0,113.9 360.2,127.0 361.3,110.7 362.5,124.1 363.7,109.0 364.9,123.8 366.1,109.7 367.3,125.4 368.5,111.2 369.7,126.7 370.8,113.6 372.0,125.7 373.2,107.9 374.4,120.3 375.6,102.7 376.8,115.5 378.0,98.0 379.1,111.3 380.3,94.0 381.5,107.8 382.7,92.6 383.9,108.5 385.1,94.5 386.3,111.4 387.5,97.5 388.6,114.2 389.8,100.8 391.0,114.0 392.2,96.2 393.4,109.6 394.6,92.5 395.8,104.7 396.9,87.8 398.1,98.5 399.3,85.1 400.5,94.5 401.7,82.4 402.9,92.1 404.1,80.2 405.3,90.1 406.4,78.9 407.6,89.9 408.8,80.0 410.0,91.7 411.2,82.3 412.4,92.5 413.6,80.9 414.7,90.5 415.9,78.5 417.1,87.4 418.3,74.3 419.5,83.5 420.7,70.6 421.9,80.1 423.1,66.9 424.2,76.5 425.4,65.3 426.6,76.3 427.8,64.6 429.0,75.3 430.2,66.5 431.4,76.4 432.5,66.0 433.7,76.9 434.9,66.4 436.1,73.6 437.3,65.0 438.5,69.6 439.7,62.5 440.9,64.6 442.0,59.6 443.2,59.7 444.4,56.9 445.6,56.2 446.8,55.0 448.0,54.5 449.2,54.3 450.3,54.4 451.5,54.7 452.7,55.1 453.9,55.4 455.1,55.7 456.3,55.7 457.5,55.4 458.7,54.8 459.8,54.8 461.0,54.8 462.2,54.7 463.4,54.5 464.6,54.2 465.8,54.0 467.0,56.0 468.1,58.8 469.3,61.7 470.5,64.6 471.7,67.5 472.9,70.3 474.1,73.2 475.3,76.1 476.5,78.9 477.6,81.8 478.8,84.8 480.0,87.8 481.2,90.9 482.4,94.0 483.6,97.3 484.8,100.6 485.9,103.9 487.1,107.3 488.3,110.8 489.5,114.2 490.7,116.8 491.9,115.9 493.1,115.0 494.3,114.2 495.4,113.4 496.6,112.6 497.8,112.0 499.0,111.4 500.2,110.9 501.4,110.4 502.6,110.1 503.7,109.7 504.9,109.5 506.1,109.3 507.3,109.1 508.5,109.0 509.7,109.0 510.9,109.0 512.1,109.0 513.2,109.1 514.4,109.2 515.6,109.4 516.8,109.6 518.0,109.9 519.2,110.2 520.4,110.5 521.5,110.9 522.7,111.3 523.9,111.7 525.1,112.2 526.3,112.7 527.5,113.2 528.7,113.8 529.9,114.3 531.0,114.9 532.2,115.5 533.4,116.1 534.6,116.7 535.8,117.3 537.0,117.9 538.2,118.4 539.3,118.7 540.5,119.3 541.7,120.5 542.9,122.1 544.1,124.1 545.3,126.3 546.5,128.5 547.7,130.5 548.8,132.4 550.0,134.2 551.2,135.9 552.4,137.6 553.6,139.4 554.8,141.1 556.0,142.7 557.1,144.5 558.3,146.3 559.5,148.0 560.7,149.7 561.9,151.0 563.1,150.9 564.3,150.2 565.5,149.8 566.6,149.7 567.8,149.9 569.0,192.4 570.2,193.5 571.4,194.6 572.6,195.4 573.8,196.0 574.9,196.5 576.1,196.9 577.3,197.3 578.5,197.5 579.7,197.7 580.9,197.7 582.1,197.6 583.3,197.4 584.4,198.2 585.6,199.0 586.8,199.8 588.0,200.6 589.2,201.4 590.4,202.3 591.6,203.0 592.7,203.1 593.9,203.2 595.1,203.4 596.3,203.9 597.5,205.6 598.7,208.6 599.9,211.3 601.1,214.3 602.2,216.6 603.4,214.0 604.6,207.4 605.8,212.2 607.0,231.0 608.2,236.1 609.4,223.3 610.5,207.3 611.7,211.2 612.9,214.4 614.1,216.1 615.3,217.3 616.5,218.0 617.7,218.2 618.9,218.1 620.0,219.0 621.2,219.2 622.4,221.2 623.6,242.7 624.8,266.0 626.0,261.4 627.2,241.5 628.3,229.4 629.5,220.8 630.7,215.5 631.9,215.0 633.1,216.3 634.3,217.9 635.5,219.6 636.7,221.1 637.8,222.4 639.0,223.4 640.2,224.1 641.4,224.5 642.6,224.5 643.8,223.7 645.0,221.9 646.1,225.5 647.3,235.6 648.5,245.3 649.7,256.4 650.9,262.2 652.1,263.1 653.3,262.5 654.5,263.1 655.6,264.9 656.8,265.2 658.0,261.4 659.2,254.1 660.4,245.0 661.6,239.0 662.8,233.4 663.9,228.3 665.1,225.0 666.3,224.9 667.5,226.1 668.7,227.1 669.9,227.9 671.1,228.6 672.3,229.2 673.4,229.7 674.6,230.1 675.8,230.5 677.0,230.8 678.2,231.0 679.4,231.2 680.6,231.4 681.7,231.5 682.9,231.8 684.1,232.0 685.3,232.3 686.5,232.7 687.7,232.9 688.9,232.8 690.1,232.6 691.2,232.4 692.4,232.3 693.6,232.2 694.8,232.2 696.0,232.3 697.2,232.3 698.4,232.4 699.5,232.5 700.7,232.7 701.9,232.8 703.1,232.9 704.3,233.1 705.5,233.3 706.7,233.4 707.9,233.6 709.0,233.7 710.2,233.9 711.4,234.1 712.6,234.2 713.8,234.3 715.0,234.5 716.2,234.6 717.3,234.7 718.5,234.9 719.7,235.0 720.9,235.1 722.1,235.2 723.3,235.3 724.5,235.4 725.7,235.5 726.8,235.6 728.0,235.8 729.2,235.9 730.4,236.1 731.6,236.3 732.8,236.5 734.0,236.7 735.1,236.8 736.3,236.9 737.5,236.8 738.7,236.8 739.9,236.9 741.1,237.1 742.3,237.2 743.5,237.3 744.6,237.4 745.8,237.5 747.0,237.6 748.2,237.7 749.4,237.8 750.6,237.9 751.8,238.1 752.9,238.2 754.1,238.3 755.3,238.4 756.5,238.5 757.7,238.6 758.9,238.7 760.1,238.8 761.3,238.9 762.4,239.0 763.6,239.1 764.8,239.2 766.0,239.3"/>
<line x1="606" y1="42" x2="628" y2="42" stroke="#0f62fe" stroke-width="2.2"/>
<text x="634" y="46" font-family="Arial" font-size="12">load_factor_g</text>
</svg>