<svg xmlns="http://www.w3.org/2000/svg" width="820" height="320" viewBox="0 0 820 320">
<rect width="100%" height="100%" fill="#ffffff"/>
<text x="54" y="28" font-family="Arial" font-size="18" font-weight="700">Specific Energy</text>
<line x1="54" y1="266" x2="766" y2="266" stroke="#1f2933"/>
<line x1="54" y1="54" x2="54" y2="266" stroke="#1f2933"/>
<text x="54" y="306" font-family="Arial" font-size="12">time (s)</text>
<text x="596" y="306" font-family="Arial" font-size="12">J/kg</text>
<text x="58" y="68" font-family="Arial" font-size="11">2.05e+04</text>
<text x="58" y="260" font-family="Arial" font-size="11">2.97e+03</text>
<polyline fill="none" stroke="#0f62fe" stroke-width="2.2" points="54.0,255.5 55.2,255.0 56.4,254.4 57.6,253.9 58.7,253.3 59.9,252.7 61.1,252.1 62.3,251.5 63.5,250.9 64.7,250.3 65.9,249.7 67.1,249.0 68.2,248.3 69.4,247.7 70.6,247.0 71.8,246.3 73.0,245.6 74.2,244.9 75.4,244.2 76.5,243.4 77.7,242.7 78.9,242.0 80.1,241.3 81.3,240.6 82.5,239.8 83.7,239.1 84.9,238.4 86.0,237.6 87.2,236.9 88.4,236.2 89.6,235.4 90.8,234.7 92.0,233.9 93.2,233.2 94.3,232.4 95.5,231.7 96.7,230.9 97.9,230.1 99.1,229.4 100.3,228.6 101.5,227.8 102.7,227.0 103.8,226.3 105.0,225.5 106.2,224.7 107.4,223.9 108.6,223.1 109.8,222.3 111.0,221.5 112.1,220.7 113.3,219.9 114.5,219.1 115.7,218.3 116.9,217.5 118.1,216.7 119.3,215.8 120.5,215.0 121.6,214.2 122.8,213.4 124.0,212.5 125.2,211.7 126.4,210.9 127.6,210.0 128.8,209.2 129.9,208.4 131.1,207.5 132.3,206.7 133.5,205.8 134.7,205.0 135.9,204.1 137.1,203.3 138.3,202.4 139.4,201.5 140.6,200.7 141.8,199.8 143.0,198.9 144.2,198.1 145.4,197.2 146.6,196.3 147.7,195.4 148.9,194.6 150.1,193.7 151.3,192.8 152.5,191.9 153.7,191.0 154.9,190.1 156.1,189.2 157.2,188.3 158.4,187.4 159.6,186.5 160.8,185.6 162.0,184.7 163.2,183.8 164.4,182.9 165.5,182.0 166.7,181.1 167.9,180.2 169.1,179.3 170.3,178.4 171.5,177.5 172.7,176.5 173.9,175.6 175.0,174.7 176.2,173.8 177.4,172.9 178.6,171.9 179.8,171.0 181.0,170.1 182.2,169.2 183.3,168.2 184.5,167.3 185.7,166.4 186.9,165.4 188.1,164.5 189.3,163.6 190.5,162.6 191.7,161.7 192.8,160.7 194.0,159.8 195.2,158.9 196.4,157.9 197.6,157.0 198.8,156.0 200.0,155.1 201.1,154.1 202.3,153.2 203.5,152.2 204.7,151.3 205.9,150.3 207.1,149.4 208.3,148.4 209.5,147.4 210.6,146.5 211.8,145.6 213.0,144.6 214.2,143.7 215.4,142.7 216.6,141.7 217.8,140.8 218.9,139.8 220.1,138.8 221.3,137.9 222.5,136.9 223.7,136.0 224.9,135.0 226.1,134.0 227.3,133.1 228.4,132.1 229.6,131.2 230.8,130.2 232.0,129.2 233.2,128.2 234.4,127.3 235.6,126.3 236.7,125.4 237.9,124.4 239.1,123.5 240.3,122.5 241.5,121.5 242.7,120.5 243.9,119.6 245.1,118.6 246.2,117.7 247.4,116.7 248.6,115.8 249.8,114.8 251.0,113.9 252.2,112.9 253.4,112.0 254.5,111.0 255.7,110.1 256.9,109.1 258.1,108.2 259.3,107.2 260.5,106.3 261.7,105.4 262.9,104.5 264.0,103.6 265.2,102.7 266.4,101.8 267.6,101.0 268.8,100.2 270.0,99.4 271.2,98.6 272.3,97.8 273.5,97.1 274.7,96.4 275.9,95.7 277.1,95.0 278.3,94.3 279.5,93.6 280.7,93.0 281.8,92.4 283.0,91.8 284.2,91.2 285.4,90.7 286.6,90.2 287.8,89.6 289.0,89.1 290.1,88.6 291.3,88.1 292.5,87.5 293.7,87.1 294.9,86.5 296.1,86.0 297.3,85.4 298.5,84.8 299.6,84.2 300.8,83.6 302.0,83.0 303.2,82.5 304.4,81.9 305.6,81.4 306.8,80.9 307.9,80.4 309.1,79.9 310.3,79.5 311.5,79.0 312.7,78.5 313.9,78.0 315.1,77.6 316.3,77.2 317.4,76.8 318.6,76.4 319.8,76.0 321.0,75.5 322.2,75.0 323.4,74.5 324.6,74.0 325.7,73.4 326.9,72.9 328.1,72.4 329.3,71.9 330.5,71.4 331.7,71.0 332.9,70.6 334.1,70.2 335.2,69.8 336.4,69.5 337.6,69.1 338.8,68.7 340.0,68.3 341.2,67.9 342.4,67.4 343.5,67.0 344.7,66.5 345.9,66.0 347.1,65.5 348.3,65.1 349.5,64.5 350.7,64.1 351.9,63.6 353.0,63.2 354.2,62.8 355.4,62.4 356.6,62.0 357.8,61.7 359.0,61.4 360.2,61.1 361.3,60.7 362.5,60.5 363.7,60.2 364.9,59.9 366.1,59.6 367.3,59.3 368.5,59.0 369.7,58.7 370.8,58.3 372.0,58.0 373.2,57.7 374.4,57.4 375.6,57.2 376.8,57.0 378.0,56.7 379.1,56.6 380.3,56.4 381.5,56.3 382.7,56.1 383.9,56.0 385.1,55.8 386.3,55.7 387.5,55.5 388.6,55.3 389.8,55.1 391.0,54.9 392.2,54.7 393.4,54.5 394.6,54.3 395.8,54.3 396.9,54.1 398.1,54.1 399.3,54.0 400.5,54.1 401.7,54.0 402.9,54.2 404.1,54.2 405.3,54.4 406.4,54.5 407.6,54.7 408.8,54.8 410.0,55.0 411.2,55.0 412.4,55.2 413.6,55.3 414.7,55.5 415.9,55.6 417.1,55.9 418.3,56.1 419.5,56.5 420.7,56.8 421.9,57.3 423.1,57.7 424.2,58.3 425.4,58.8 426.6,59.4 427.8,60.0 429.0,60.6 430.2,61.2 431.4,61.8 432.5,62.3 433.7,63.0 434.9,63.6 436.1,64.3 437.3,64.9 438.5,65.6 439.7,66.3 440.9,67.2 442.0,68.0 443.2,68.9 444.4,69.9 445.6,70.9 446.8,71.9 448.0,73.0 449.2,74.0 450.3,75.1 451.5,76.2 452.7,77.3 453.9,78.4 455.1,79.5 456.3,80.6 457.5,81.8 458.7,82.9 459.8,84.0 461.0,85.2 462.2,86.4 463.4,87.7 464.6,88.9 465.8,90.2 467.0,91.6 468.1,92.9 469.3,94.2 470.5,95.6 471.7,96.9 472.9,98.2 474.1,99.5 475.3,100.8 476.5,102.0 477.6,103.3 478.8,104.5 480.0,105.8 481.2,107.0 482.4,108.3 483.6,109.5 484.8,110.7 485.9,112.0 487.1,113.2 488.3,114.5 489.5,115.7 490.7,117.0 491.9,118.3 493.1,119.6 494.3,120.9 495.4,122.3 496.6,123.7 497.8,125.1 499.0,126.5 500.2,127.9 501.4,129.4 502.6,130.9 503.7,132.4 504.9,133.9 506.1,135.5 507.3,137.0 508.5,138.6 509.7,140.2 510.9,141.8 512.1,143.4 513.2,145.0 514.4,146.6 515.6,148.2 516.8,149.8 518.0,151.4 519.2,153.1 520.4,154.7 521.5,156.3 522.7,158.0 523.9,159.6 525.1,161.3 526.3,162.9 527.5,164.5 528.7,166.2 529.9,167.8 531.0,169.4 532.2,171.0 533.4,172.6 534.6,174.2 535.8,175.9 537.0,177.4 538.2,179.0 539.3,180.6 540.5,182.2 541.7,183.8 542.9,185.3 544.1,186.8 545.3,188.3 546.5,189.7 547.7,191.1 548.8,192.4 550.0,193.6 551.2,194.9 552.4,196.0 553.6,197.2 554.8,198.3 556.0,199.3 557.1,200.3 558.3,201.3 559.5,202.2 560.7,203.1 561.9,203.9 563.1,204.7 564.3,205.5 565.5,206.3 566.6,207.2 567.8,208.0 569.0,208.9 570.2,209.7 571.4,210.5 572.6,211.3 573.8,212.1 574.9,212.9 576.1,213.6 577.3,214.4 578.5,215.2 579.7,215.9 580.9,216.6 582.1,217.4 583.3,218.1 584.4,218.8 585.6,219.5 586.8,220.2 588.0,220.9 589.2,221.6 590.4,222.3 591.6,223.0 592.7,223.6 593.9,224.3 595.1,224.9 596.3,225.5 597.5,226.2 598.7,226.8 599.9,227.3 601.1,227.8 602.2,228.3 603.4,228.8 604.6,229.2 605.8,229.6 607.0,229.9 608.2,230.2 609.4,230.4 610.5,230.7 611.7,231.1 612.9,231.5 614.1,231.9 615.3,232.3 616.5,232.7 617.7,233.1 618.9,233.5 620.0,233.9 621.2,234.2 622.4,234.5 623.6,234.8 624.8,234.9 626.0,234.9 627.2,235.0 628.3,235.1 629.5,235.3 630.7,235.6 631.9,235.9 633.1,236.3 634.3,236.6 635.5,237.0 636.7,237.4 637.8,237.7 639.0,238.1 640.2,238.4 641.4,238.7 642.6,239.1 643.8,239.4 645.0,239.7 646.1,240.0 647.3,240.2 648.5,240.4 649.7,240.5 650.9,240.6 652.1,240.7 653.3,240.7 654.5,240.8 655.6,240.8 656.8,240.9 658.0,241.0 659.2,241.0 660.4,241.1 661.6,241.2 662.8,241.4 663.9,241.6 665.1,241.8 666.3,242.1 667.5,242.4 668.7,242.7 669.9,242.9 671.1,243.2 672.3,243.5 673.4,243.8 674.6,244.1 675.8,244.4 677.0,244.7 678.2,245.0 679.4,245.3 680.6,245.6 681.7,245.9 682.9,246.2 684.1,246.5 685.3,246.8 686.5,247.1 687.7,247.4 688.9,247.7 690.1,248.0 691.2,248.3 692.4,248.6 693.6,248.9 694.8,249.2 696.0,249.5 697.2,249.8 698.4,250.1 699.5,250.4 700.7,250.7 701.9,251.0 703.1,251.3 704.3,251.6 705.5,251.9 706.7,252.2 707.9,252.5 709.0,252.8 710.2,253.1 711.4,253.4 712.6,253.7 713.8,254.0 715.0,254.3 716.2,254.6 717.3,254.9 718.5,255.2 719.7,255.4 720.9,255.7 722.1,256.0 723.3,256.3 724.5,256.6 725.7,256.9 726.8,257.2 728.0,257.5 729.2,257.7 730.4,258.0 731.6,258.3 732.8,258.6 734.0,258.9 735.1,259.1 736.3,259.4 737.5,259.7 738.7,260.0 739.9,260.2 741.1,260.5 742.3,260.8 743.5,261.1 744.6,261.3 745.8,261.6 747.0,261.9 748.2,262.1 749.4,262.4 750.6,262.7 751.8,262.9 752.9,263.2 754.1,263.5 755.3,263.7 756.5,264.0 757.7,264.2 758.9,264.5 760.1,264.7 761.3,265.0 762.4,265.2 763.6,265.5 764.8,265.7 766.0,266.0"/>
<line x1="606" y1="42" x2="628" y2="42" stroke="#0f62fe" stroke-width="2.2"/>
<text x="634" y="46" font-family="Arial" font-size="12">energy_j_per_kg</text>
</svg>