<svg xmlns="http://www.w3.org/2000/svg" width="820" height="320" viewBox="0 0 820 320">
<rect width="100%" height="100%" fill="#ffffff"/>
<text x="54" y="28" font-family="Arial" font-size="18" font-weight="700">Downrange Position</text>
<line x1="54" y1="266" x2="766" y2="266" stroke="#1f2933"/>
<line x1="54" y1="54" x2="54" y2="266" stroke="#1f2933"/>
<text x="54" y="306" font-family="Arial" font-size="12">time (s)</text>
<text x="596" y="306" font-family="Arial" font-size="12">x (m)</text>
<text x="58" y="68" font-family="Arial" font-size="11">3.62e+03</text>
<text x="58" y="260" font-family="Arial" font-size="11">0</text>
<polyline fill="none" stroke="#0f62fe" stroke-width="2.2" points="54.0,266.0 55.2,265.8 56.4,265.7 57.6,265.5 58.7,265.4 59.9,265.2 61.1,265.1 62.3,264.9 63.5,264.8 64.7,264.6 65.9,264.5 67.1,264.3 68.2,264.1 69.4,264.0 70.6,263.8 71.8,263.6 73.0,263.5 74.2,263.3 75.4,263.1 76.5,263.0 77.7,262.8 78.9,262.6 80.1,262.5 81.3,262.3 82.5,262.1 83.7,261.9 84.9,261.8 86.0,261.6 87.2,261.4 88.4,261.2 89.6,261.1 90.8,260.9 92.0,260.7 93.2,260.5 94.3,260.3 95.5,260.1 96.7,260.0 97.9,259.8 99.1,259.6 100.3,259.4 101.5,259.2 102.7,259.0 103.8,258.8 105.0,258.6 106.2,258.4 107.4,258.2 108.6,258.0 109.8,257.8 111.0,257.6 112.1,257.4 113.3,257.2 114.5,257.0 115.7,256.8 116.9,256.6 118.1,256.4 119.3,256.2 120.5,256.0 121.6,255.8 122.8,255.6 124.0,255.4 125.2,255.2 126.4,255.0 127.6,254.7 128.8,254.5 129.9,254.3 131.1,254.1 132.3,253.9 133.5,253.7 134.7,253.4 135.9,253.2 137.1,253.0 138.3,252.8 139.4,252.6 140.6,252.3 141.8,252.1 143.0,251.9 144.2,251.7 145.4,251.4 146.6,251.2 147.7,251.0 148.9,250.7 150.1,250.5 151.3,250.3 152.5,250.0 153.7,249.8 154.9,249.6 156.1,249.3 157.2,249.1 158.4,248.9 159.6,248.6 160.8,248.4 162.0,248.1 163.2,247.9 164.4,247.6 165.5,247.4 166.7,247.2 167.9,246.9 169.1,246.7 170.3,246.4 171.5,246.2 172.7,245.9 173.9,245.7 175.0,245.4 176.2,245.2 177.4,244.9 178.6,244.7 179.8,244.4 181.0,244.1 182.2,243.9 183.3,243.6 184.5,243.4 185.7,243.1 186.9,242.8 188.1,242.6 189.3,242.3 190.5,242.1 191.7,241.8 192.8,241.5 194.0,241.3 195.2,241.0 196.4,240.7 197.6,240.5 198.8,240.2 200.0,239.9 201.1,239.6 202.3,239.4 203.5,239.1 204.7,238.8 205.9,238.5 207.1,238.3 208.3,238.0 209.5,237.7 210.6,237.4 211.8,237.2 213.0,236.9 214.2,236.6 215.4,236.3 216.6,236.0 217.8,235.7 218.9,235.5 220.1,235.2 221.3,234.9 222.5,234.6 223.7,234.3 224.9,234.0 226.1,233.7 227.3,233.4 228.4,233.2 229.6,232.9 230.8,232.6 232.0,232.3 233.2,232.0 234.4,231.7 235.6,231.4 236.7,231.1 237.9,230.8 239.1,230.5 240.3,230.2 241.5,229.9 242.7,229.6 243.9,229.3 245.1,229.0 246.2,228.7 247.4,228.4 248.6,228.1 249.8,227.8 251.0,227.5 252.2,227.2 253.4,226.8 254.5,226.5 255.7,226.2 256.9,225.9 258.1,225.6 259.3,225.3 260.5,225.0 261.7,224.7 262.9,224.4 264.0,224.0 265.2,223.7 266.4,223.4 267.6,223.1 268.8,222.8 270.0,222.4 271.2,222.1 272.3,221.8 273.5,221.5 274.7,221.2 275.9,220.8 277.1,220.5 278.3,220.2 279.5,219.9 280.7,219.5 281.8,219.2 283.0,218.9 284.2,218.6 285.4,218.2 286.6,217.9 287.8,217.6 289.0,217.2 290.1,216.9 291.3,216.6 292.5,216.2 293.7,215.9 294.9,215.6 296.1,215.2 297.3,214.9 298.5,214.6 299.6,214.2 300.8,213.9 302.0,213.5 303.2,213.2 304.4,212.9 305.6,212.5 306.8,212.2 307.9,211.8 309.1,211.5 310.3,211.1 311.5,210.8 312.7,210.4 313.9,210.1 315.1,209.8 316.3,209.4 317.4,209.1 318.6,208.7 319.8,208.4 321.0,208.0 322.2,207.6 323.4,207.3 324.6,206.9 325.7,206.6 326.9,206.2 328.1,205.9 329.3,205.5 330.5,205.2 331.7,204.8 332.9,204.4 334.1,204.1 335.2,203.7 336.4,203.4 337.6,203.0 338.8,202.6 340.0,202.3 341.2,201.9 342.4,201.6 343.5,201.2 344.7,200.8 345.9,200.5 347.1,200.1 348.3,199.7 349.5,199.4 350.7,199.0 351.9,198.6 353.0,198.2 354.2,197.9 355.4,197.5 356.6,197.1 357.8,196.8 359.0,196.4 360.2,196.0 361.3,195.6 362.5,195.3 363.7,194.9 364.9,194.5 366.1,194.1 367.3,193.7 368.5,193.4 369.7,193.0 370.8,192.6 372.0,192.2 373.2,191.8 374.4,191.5 375.6,191.1 376.8,190.7 378.0,190.3 379.1,189.9 380.3,189.5 381.5,189.2 382.7,188.8 383.9,188.4 385.1,188.0 386.3,187.6 387.5,187.2 388.6,186.8 389.8,186.4 391.0,186.0 392.2,185.7 393.4,185.3 394.6,184.9 395.8,184.5 396.9,184.1 398.1,183.7 399.3,183.3 400.5,182.9 401.7,182.5 402.9,182.1 404.1,181.7 405.3,181.3 406.4,180.9 407.6,180.5 408.8,180.1 410.0,179.7 411.2,179.3 412.4,178.9 413.6,178.5 414.7,178.1 415.9,177.7 417.1,177.3 418.3,176.9 419.5,176.5 420.7,176.1 421.9,175.7 423.1,175.3 424.2,174.9 425.4,174.5 426.6,174.0 427.8,173.6 429.0,173.2 430.2,172.8 431.4,172.4 432.5,172.0 433.7,171.6 434.9,171.2 436.1,170.8 437.3,170.3 438.5,169.9 439.7,169.5 440.9,169.1 442.0,168.7 443.2,168.3 444.4,167.8 445.6,167.4 446.8,167.0 448.0,166.6 449.2,166.2 450.3,165.8 451.5,165.3 452.7,164.9 453.9,164.5 455.1,164.1 456.3,163.7 457.5,163.2 458.7,162.8 459.8,162.4 461.0,162.0 462.2,161.5 463.4,161.1 464.6,160.7 465.8,160.3 467.0,159.8 468.1,159.4 469.3,159.0 470.5,158.6 471.7,158.1 472.9,157.7 474.1,157.3 475.3,156.8 476.5,156.4 477.6,156.0 478.8,155.5 480.0,155.1 481.2,154.7 482.4,154.3 483.6,153.8 484.8,153.4 485.9,153.0 487.1,152.5 488.3,152.1 489.5,151.6 490.7,151.2 491.9,150.8 493.1,150.3 494.3,149.9 495.4,149.5 496.6,149.0 497.8,148.6 499.0,148.1 500.2,147.7 501.4,147.3 502.6,146.8 503.7,146.4 504.9,145.9 506.1,145.5 507.3,145.1 508.5,144.6 509.7,144.2 510.9,143.7 512.1,143.3 513.2,142.8 514.4,142.4 515.6,142.0 516.8,141.5 518.0,141.1 519.2,140.6 520.4,140.2 521.5,139.7 522.7,139.3 523.9,138.8 525.1,138.4 526.3,137.9 527.5,137.5 528.7,137.0 529.9,136.6 531.0,136.1 532.2,135.7 533.4,135.2 534.6,134.8 535.8,134.3 537.0,133.9 538.2,133.4 539.3,133.0 540.5,132.5 541.7,132.0 542.9,131.6 544.1,131.1 545.3,130.7 546.5,130.2 547.7,129.8 548.8,129.3 550.0,128.8 551.2,128.4 552.4,127.9 553.6,127.5 554.8,127.0 556.0,126.5 557.1,126.1 558.3,125.6 559.5,125.2 560.7,124.7 561.9,124.2 563.1,123.8 564.3,123.3 565.5,122.9 566.6,122.4 567.8,121.9 569.0,121.5 570.2,121.0 571.4,120.5 572.6,120.1 573.8,119.6 574.9,119.1 576.1,118.7 577.3,118.2 578.5,117.8 579.7,117.3 580.9,116.9 582.1,116.4 583.3,115.9 584.4,115.5 585.6,115.0 586.8,114.6 588.0,114.1 589.2,113.7 590.4,113.2 591.6,112.8 592.7,112.3 593.9,111.9 595.1,111.4 596.3,111.0 597.5,110.5 598.7,110.1 599.9,109.7 601.1,109.2 602.2,108.8 603.4,108.3 604.6,107.9 605.8,107.4 607.0,107.0 608.2,106.6 609.4,106.1 610.5,105.7 611.7,105.2 612.9,104.8 614.1,104.4 615.3,103.9 616.5,103.5 617.7,103.1 618.9,102.6 620.0,102.2 621.2,101.8 622.4,101.3 623.6,100.9 624.8,100.5 626.0,100.1 627.2,99.6 628.3,99.2 629.5,98.8 630.7,98.4 631.9,97.9 633.1,97.5 634.3,97.1 635.5,96.7 636.7,96.2 637.8,95.8 639.0,95.4 640.2,95.0 641.4,94.6 642.6,94.1 643.8,93.7 645.0,93.3 646.1,92.9 647.3,92.5 648.5,92.1 649.7,91.6 650.9,91.2 652.1,90.8 653.3,90.4 654.5,90.0 655.6,89.6 656.8,89.2 658.0,88.8 659.2,88.4 660.4,87.9 661.6,87.5 662.8,87.1 663.9,86.7 665.1,86.3 666.3,85.9 667.5,85.5 668.7,85.1 669.9,84.7 671.1,84.3 672.3,83.9 673.4,83.5 674.6,83.1 675.8,82.7 677.0,82.3 678.2,81.9 679.4,81.5 680.6,81.1 681.7,80.7 682.9,80.3 684.1,79.9 685.3,79.5 686.5,79.1 687.7,78.7 688.9,78.3 690.1,77.9 691.2,77.6 692.4,77.2 693.6,76.8 694.8,76.4 696.0,76.0 697.2,75.6 698.4,75.2 699.5,74.8 700.7,74.4 701.9,74.1 703.1,73.7 704.3,73.3 705.5,72.9 706.7,72.5 707.9,72.1 709.0,71.7 710.2,71.4 711.4,71.0 712.6,70.6 713.8,70.2 715.0,69.8 716.2,69.5 717.3,69.1 718.5,68.7 719.7,68.3 720.9,67.9 722.1,67.6 723.3,67.2 724.5,66.8 725.7,66.4 726.8,66.1 728.0,65.7 729.2,65.3 730.4,64.9 731.6,64.6 732.8,64.2 734.0,63.8 735.1,63.5 736.3,63.1 737.5,62.7 738.7,62.3 739.9,62.0 741.1,61.6 742.3,61.2 743.5,60.9 744.6,60.5 745.8,60.1 747.0,59.8 748.2,59.4 749.4,59.0 750.6,58.7 751.8,58.3 752.9,58.0 754.1,57.6 755.3,57.2 756.5,56.9 757.7,56.5 758.9,56.2 760.1,55.8 761.3,55.4 762.4,55.1 763.6,54.7 764.8,54.4 766.0,54.0"/>
<line x1="606" y1="42" x2="628" y2="42" stroke="#0f62fe" stroke-width="2.2"/>
<text x="634" y="46" font-family="Arial" font-size="12">x_m</text>
</svg>