<svg xmlns="http://www.w3.org/2000/svg" width="820" height="320" viewBox="0 0 820 320">
<rect width="100%" height="100%" fill="#ffffff"/>
<text x="54" y="28" font-family="Arial" font-size="18" font-weight="700">Velocity X</text>
<line x1="54" y1="266" x2="766" y2="266" stroke="#1f2933"/>
<line x1="54" y1="54" x2="54" y2="266" stroke="#1f2933"/>
<text x="54" y="306" font-family="Arial" font-size="12">time (s)</text>
<text x="596" y="306" font-family="Arial" font-size="12">vx (m/s)</text>
<text x="58" y="68" font-family="Arial" font-size="11">265</text>
<text x="58" y="260" font-family="Arial" font-size="11">85</text>
<polyline fill="none" stroke="#0f62fe" stroke-width="2.2" points="54.0,266.0 55.2,265.4 56.4,264.8 57.6,264.2 58.7,263.5 59.9,262.9 61.1,262.3 62.3,261.6 63.5,260.9 64.7,260.3 65.9,259.6 67.1,258.9 68.2,258.2 69.4,257.5 70.6,256.8 71.8,256.0 73.0,255.3 74.2,254.6 75.4,253.9 76.5,253.2 77.7,252.4 78.9,251.7 80.1,251.0 81.3,250.3 82.5,249.6 83.7,248.9 84.9,248.2 86.0,247.4 87.2,246.7 88.4,246.0 89.6,245.3 90.8,244.6 92.0,243.9 93.2,243.2 94.3,242.5 95.5,241.8 96.7,241.1 97.9,240.4 99.1,239.7 100.3,239.0 101.5,238.3 102.7,237.6 103.8,236.9 105.0,236.2 106.2,235.5 107.4,234.8 108.6,234.1 109.8,233.4 111.0,232.8 112.1,232.1 113.3,231.4 114.5,230.7 115.7,230.0 116.9,229.3 118.1,228.6 119.3,228.0 120.5,227.3 121.6,226.6 122.8,225.9 124.0,225.2 125.2,224.6 126.4,223.9 127.6,223.2 128.8,222.5 129.9,221.9 131.1,221.2 132.3,220.5 133.5,219.8 134.7,219.2 135.9,218.5 137.1,217.8 138.3,217.2 139.4,216.5 140.6,215.8 141.8,215.2 143.0,214.5 144.2,213.9 145.4,213.2 146.6,212.5 147.7,211.9 148.9,211.2 150.1,210.6 151.3,209.9 152.5,209.3 153.7,208.6 154.9,208.0 156.1,207.3 157.2,206.7 158.4,206.0 159.6,205.4 160.8,204.7 162.0,204.1 163.2,203.5 164.4,202.8 165.5,202.2 166.7,201.5 167.9,200.9 169.1,200.3 170.3,199.7 171.5,199.0 172.7,198.4 173.9,197.8 175.0,197.1 176.2,196.5 177.4,195.9 178.6,195.3 179.8,194.7 181.0,194.0 182.2,193.4 183.3,192.8 184.5,192.2 185.7,191.6 186.9,191.0 188.1,190.4 189.3,189.8 190.5,189.2 191.7,188.6 192.8,188.0 194.0,187.4 195.2,186.8 196.4,186.2 197.6,185.6 198.8,185.0 200.0,184.4 201.1,183.8 202.3,183.2 203.5,182.6 204.7,182.0 205.9,181.5 207.1,180.9 208.3,180.3 209.5,179.7 210.6,179.1 211.8,178.6 213.0,178.0 214.2,177.4 215.4,176.8 216.6,176.3 217.8,175.7 218.9,175.1 220.1,174.6 221.3,174.0 222.5,173.4 223.7,172.9 224.9,172.3 226.1,171.7 227.3,171.2 228.4,170.6 229.6,170.1 230.8,169.5 232.0,169.0 233.2,168.4 234.4,167.9 235.6,167.3 236.7,166.8 237.9,166.2 239.1,165.7 240.3,165.1 241.5,164.6 242.7,164.0 243.9,163.5 245.1,163.0 246.2,162.4 247.4,161.9 248.6,161.3 249.8,160.8 251.0,160.3 252.2,159.7 253.4,159.2 254.5,158.7 255.7,158.1 256.9,157.6 258.1,157.1 259.3,156.5 260.5,156.0 261.7,155.5 262.9,155.0 264.0,154.4 265.2,153.9 266.4,153.4 267.6,152.9 268.8,152.4 270.0,151.8 271.2,151.3 272.3,150.8 273.5,150.3 274.7,149.8 275.9,149.3 277.1,148.7 278.3,148.2 279.5,147.7 280.7,147.2 281.8,146.7 283.0,146.2 284.2,145.7 285.4,145.2 286.6,144.6 287.8,144.1 289.0,143.6 290.1,143.1 291.3,142.6 292.5,142.1 293.7,141.6 294.9,141.1 296.1,140.6 297.3,140.2 298.5,139.6 299.6,139.2 300.8,138.6 302.0,138.1 303.2,137.6 304.4,137.1 305.6,136.6 306.8,136.1 307.9,135.6 309.1,135.1 310.3,134.6 311.5,134.2 312.7,133.7 313.9,133.3 315.1,132.8 316.3,132.3 317.4,131.8 318.6,131.3 319.8,130.8 321.0,130.3 322.2,129.8 323.4,129.3 324.6,128.8 325.7,128.3 326.9,127.8 328.1,127.3 329.3,126.8 330.5,126.4 331.7,125.9 332.9,125.5 334.1,125.0 335.2,124.6 336.4,124.1 337.6,123.6 338.8,123.1 340.0,122.6 341.2,122.1 342.4,121.6 343.5,121.1 344.7,120.7 345.9,120.2 347.1,119.8 348.3,119.3 349.5,118.9 350.7,118.4 351.9,118.0 353.0,117.6 354.2,117.2 355.4,116.7 356.6,116.3 357.8,115.8 359.0,115.3 360.2,114.8 361.3,114.3 362.5,113.8 363.7,113.4 364.9,112.9 366.1,112.5 367.3,112.0 368.5,111.6 369.7,111.1 370.8,110.7 372.0,110.3 373.2,109.9 374.4,109.5 375.6,109.1 376.8,108.7 378.0,108.3 379.1,107.8 380.3,107.5 381.5,107.0 382.7,106.7 383.9,106.2 385.1,105.8 386.3,105.4 387.5,105.0 388.6,104.6 389.8,104.2 391.0,103.8 392.2,103.4 393.4,103.0 394.6,102.6 395.8,102.2 396.9,101.8 398.1,101.4 399.3,101.0 400.5,100.6 401.7,100.2 402.9,99.8 404.1,99.4 405.3,99.0 406.4,98.6 407.6,98.2 408.8,97.8 410.0,97.4 411.2,97.0 412.4,96.6 413.6,96.2 414.7,95.8 415.9,95.5 417.1,95.0 418.3,94.7 419.5,94.3 420.7,93.9 421.9,93.5 423.1,93.1 424.2,92.7 425.4,92.4 426.6,92.0 427.8,91.6 429.0,91.2 430.2,90.9 431.4,90.5 432.5,90.1 433.7,89.7 434.9,89.4 436.1,89.0 437.3,88.7 438.5,88.3 439.7,88.0 440.9,87.6 442.0,87.2 443.2,86.8 444.4,86.5 445.6,86.1 446.8,85.8 448.0,85.4 449.2,85.1 450.3,84.7 451.5,84.4 452.7,84.0 453.9,83.7 455.1,83.3 456.3,83.0 457.5,82.7 458.7,82.3 459.8,82.0 461.0,81.7 462.2,81.3 463.4,81.0 464.6,80.6 465.8,80.3 467.0,80.0 468.1,79.7 469.3,79.3 470.5,79.0 471.7,78.7 472.9,78.4 474.1,78.0 475.3,77.7 476.5,77.4 477.6,77.1 478.8,76.7 480.0,76.5 481.2,76.1 482.4,75.8 483.6,75.5 484.8,75.2 485.9,74.9 487.1,74.6 488.3,74.3 489.5,74.0 490.7,73.6 491.9,73.4 493.1,73.0 494.3,72.8 495.4,72.4 496.6,72.2 497.8,71.9 499.0,71.6 500.2,71.3 501.4,71.0 502.6,70.7 503.7,70.4 504.9,70.0 506.1,69.8 507.3,69.4 508.5,69.2 509.7,68.8 510.9,68.5 512.1,68.2 513.2,67.9 514.4,67.6 515.6,67.3 516.8,67.0 518.0,66.7 519.2,66.3 520.4,66.1 521.5,65.7 522.7,65.4 523.9,65.1 525.1,64.8 526.3,64.5 527.5,64.2 528.7,63.9 529.9,63.6 531.0,63.3 532.2,63.0 533.4,62.7 534.6,62.4 535.8,62.0 537.0,61.8 538.2,61.4 539.3,61.2 540.5,60.8 541.7,60.6 542.9,60.3 544.1,60.0 545.3,59.7 546.5,59.4 547.7,59.1 548.8,58.8 550.0,58.5 551.2,58.2 552.4,57.9 553.6,57.7 554.8,57.3 556.0,57.1 557.1,56.8 558.3,56.5 559.5,56.2 560.7,56.0 561.9,55.7 563.1,55.4 564.3,55.1 565.5,54.9 566.6,54.5 567.8,54.3 569.0,54.0 570.2,54.6 571.4,55.1 572.6,55.7 573.8,56.3 574.9,56.8 576.1,57.4 577.3,57.9 578.5,58.5 579.7,59.0 580.9,59.5 582.1,60.1 583.3,60.6 584.4,61.2 585.6,61.7 586.8,62.2 588.0,62.7 589.2,63.3 590.4,63.8 591.6,64.3 592.7,64.8 593.9,65.4 595.1,65.8 596.3,66.4 597.5,66.9 598.7,67.4 599.9,67.9 601.1,68.4 602.2,68.9 603.4,69.4 604.6,69.9 605.8,70.4 607.0,70.9 608.2,71.4 609.4,71.8 610.5,72.3 611.7,72.8 612.9,73.3 614.1,73.8 615.3,74.3 616.5,74.7 617.7,75.3 618.9,75.7 620.0,76.2 621.2,76.7 622.4,77.2 623.6,77.6 624.8,78.1 626.0,78.6 627.2,79.1 628.3,79.6 629.5,80.1 630.7,80.5 631.9,81.0 633.1,81.5 634.3,82.0 635.5,82.4 636.7,82.9 637.8,83.3 639.0,83.8 640.2,84.3 641.4,84.8 642.6,85.2 643.8,85.7 645.0,86.1 646.1,86.6 647.3,87.1 648.5,87.5 649.7,88.0 650.9,88.5 652.1,88.9 653.3,89.4 654.5,89.8 655.6,90.3 656.8,90.7 658.0,91.2 659.2,91.6 660.4,92.0 661.6,92.5 662.8,92.9 663.9,93.3 665.1,93.8 666.3,94.2 667.5,94.7 668.7,95.1 669.9,95.5 671.1,96.0 672.3,96.4 673.4,96.8 674.6,97.3 675.8,97.7 677.0,98.1 678.2,98.5 679.4,99.0 680.6,99.4 681.7,99.8 682.9,100.2 684.1,100.6 685.3,101.0 686.5,101.4 687.7,101.8 688.9,102.3 690.1,102.7 691.2,103.1 692.4,103.5 693.6,103.9 694.8,104.3 696.0,104.7 697.2,105.1 698.4,105.5 699.5,105.9 700.7,106.3 701.9,106.7 703.1,107.1 704.3,107.5 705.5,107.9 706.7,108.2 707.9,108.6 709.0,109.0 710.2,109.4 711.4,109.8 712.6,110.2 713.8,110.6 715.0,110.9 716.2,111.3 717.3,111.7 718.5,112.1 719.7,112.5 720.9,112.8 722.1,113.2 723.3,113.6 724.5,114.0 725.7,114.3 726.8,114.7 728.0,115.0 729.2,115.4 730.4,115.8 731.6,116.2 732.8,116.5 734.0,116.9 735.1,117.2 736.3,117.6 737.5,118.0 738.7,118.3 739.9,118.7 741.1,119.0 742.3,119.4 743.5,119.8 744.6,120.1 745.8,120.5 747.0,120.8 748.2,121.2 749.4,121.5 750.6,121.9 751.8,122.2 752.9,122.6 754.1,122.9 755.3,123.2 756.5,123.6 757.7,123.9 758.9,124.3 760.1,124.6 761.3,124.9 762.4,125.3 763.6,125.6 764.8,126.0 766.0,126.3"/>
<line x1="606" y1="42" x2="628" y2="42" stroke="#0f62fe" stroke-width="2.2"/>
<text x="634" y="46" font-family="Arial" font-size="12">vx_mps</text>
</svg>