<svg xmlns="http://www.w3.org/2000/svg" width="820" height="320" viewBox="0 0 820 320">
<rect width="100%" height="100%" fill="#ffffff"/>
<text x="54" y="28" font-family="Arial" font-size="18" font-weight="700">Euler Angles</text>
<line x1="54" y1="266" x2="766" y2="266" stroke="#1f2933"/>
<line x1="54" y1="54" x2="54" y2="266" stroke="#1f2933"/>
<text x="54" y="306" font-family="Arial" font-size="12">time (s)</text>
<text x="596" y="306" font-family="Arial" font-size="12">angle (deg)</text>
<text x="58" y="68" font-family="Arial" font-size="11">9.3</text>
<text x="58" y="260" font-family="Arial" font-size="11">0</text>
<polyline fill="none" stroke="#0f62fe" stroke-width="2.2" points="54.0,266.0 55.2,266.0 56.4,266.0 57.6,266.0 58.7,266.0 59.9,266.0 61.1,266.0 62.3,266.0 63.5,266.0 64.7,266.0 65.9,266.0 67.1,266.0 68.2,266.0 69.4,266.0 70.6,266.0 71.8,266.0 73.0,266.0 74.2,266.0 75.4,266.0 76.5,266.0 77.7,266.0 78.9,266.0 80.1,266.0 81.3,266.0 82.5,266.0 83.7,266.0 84.9,266.0 86.0,266.0 87.2,266.0 88.4,266.0 89.6,266.0 90.8,266.0 92.0,266.0 93.2,266.0 94.3,266.0 95.5,266.0 96.7,266.0 97.9,266.0 99.1,266.0 100.3,266.0 101.5,266.0 102.7,266.0 103.8,266.0 105.0,266.0 106.2,266.0 107.4,266.0 108.6,266.0 109.8,266.0 111.0,266.0 112.1,266.0 113.3,266.0 114.5,266.0 115.7,266.0 116.9,266.0 118.1,266.0 119.3,266.0 120.5,266.0 121.6,266.0 122.8,266.0 124.0,266.0 125.2,266.0 126.4,266.0 127.6,266.0 128.8,266.0 129.9,266.0 131.1,266.0 132.3,266.0 133.5,266.0 134.7,266.0 135.9,266.0 137.1,266.0 138.3,266.0 139.4,266.0 140.6,266.0 141.8,266.0 143.0,266.0 144.2,266.0 145.4,266.0 146.6,266.0 147.7,266.0 148.9,266.0 150.1,266.0 151.3,266.0 152.5,266.0 153.7,266.0 154.9,266.0 156.1,266.0 157.2,266.0 158.4,266.0 159.6,266.0 160.8,266.0 162.0,266.0 163.2,266.0 164.4,266.0 165.5,266.0 166.7,266.0 167.9,266.0 169.1,266.0 170.3,266.0 171.5,266.0 172.7,266.0 173.9,266.0 175.0,266.0 176.2,266.0 177.4,266.0 178.6,266.0 179.8,266.0 181.0,266.0 182.2,266.0 183.3,266.0 184.5,266.0 185.7,266.0 186.9,266.0 188.1,266.0 189.3,266.0 190.5,266.0 191.7,266.0 192.8,266.0 194.0,266.0 195.2,266.0 196.4,266.0 197.6,266.0 198.8,266.0 200.0,266.0 201.1,266.0 202.3,266.0 203.5,266.0 204.7,266.0 205.9,266.0 207.1,266.0 208.3,266.0 209.5,266.0 210.6,266.0 211.8,266.0 213.0,266.0 214.2,266.0 215.4,266.0 216.6,266.0 217.8,266.0 218.9,266.0 220.1,266.0 221.3,266.0 222.5,266.0 223.7,266.0 224.9,266.0 226.1,266.0 227.3,266.0 228.4,266.0 229.6,266.0 230.8,266.0 232.0,266.0 233.2,266.0 234.4,266.0 235.6,266.0 236.7,266.0 237.9,266.0 239.1,266.0 240.3,266.0 241.5,266.0 242.7,266.0 243.9,266.0 245.1,266.0 246.2,266.0 247.4,266.0 248.6,266.0 249.8,266.0 251.0,266.0 252.2,266.0 253.4,266.0 254.5,266.0 255.7,266.0 256.9,266.0 258.1,266.0 259.3,266.0 260.5,266.0 261.7,266.0 262.9,266.0 264.0,266.0 265.2,266.0 266.4,266.0 267.6,266.0 268.8,266.0 270.0,266.0 271.2,266.0 272.3,266.0 273.5,266.0 274.7,266.0 275.9,266.0 277.1,266.0 278.3,266.0 279.5,266.0 280.7,266.0 281.8,266.0 283.0,266.0 284.2,266.0 285.4,266.0 286.6,266.0 287.8,266.0 289.0,266.0 290.1,266.0 291.3,266.0 292.5,266.0 293.7,266.0 294.9,266.0 296.1,266.0 297.3,266.0 298.5,266.0 299.6,266.0 300.8,266.0 302.0,266.0 303.2,266.0 304.4,266.0 305.6,266.0 306.8,266.0 307.9,266.0 309.1,266.0 310.3,266.0 311.5,266.0 312.7,266.0 313.9,266.0 315.1,266.0 316.3,266.0 317.4,266.0 318.6,266.0 319.8,266.0 321.0,266.0 322.2,266.0 323.4,266.0 324.6,266.0 325.7,266.0 326.9,266.0 328.1,266.0 329.3,266.0 330.5,266.0 331.7,266.0 332.9,266.0 334.1,266.0 335.2,266.0 336.4,266.0 337.6,266.0 338.8,266.0 340.0,266.0 341.2,266.0 342.4,266.0 343.5,266.0 344.7,266.0 345.9,266.0 347.1,266.0 348.3,266.0 349.5,266.0 350.7,266.0 351.9,266.0 353.0,266.0 354.2,266.0 355.4,266.0 356.6,266.0 357.8,266.0 359.0,266.0 360.2,266.0 361.3,266.0 362.5,266.0 363.7,266.0 364.9,266.0 366.1,266.0 367.3,266.0 368.5,266.0 369.7,266.0 370.8,266.0 372.0,266.0 373.2,266.0 374.4,266.0 375.6,266.0 376.8,266.0 378.0,266.0 379.1,266.0 380.3,266.0 381.5,266.0 382.7,266.0 383.9,266.0 385.1,266.0 386.3,266.0 387.5,266.0 388.6,266.0 389.8,266.0 391.0,266.0 392.2,266.0 393.4,266.0 394.6,266.0 395.8,266.0 396.9,266.0 398.1,266.0 399.3,266.0 400.5,266.0 401.7,266.0 402.9,266.0 404.1,266.0 405.3,266.0 406.4,266.0 407.6,266.0 408.8,266.0 410.0,266.0 411.2,266.0 412.4,266.0 413.6,266.0 414.7,266.0 415.9,266.0 417.1,266.0 418.3,266.0 419.5,266.0 420.7,266.0 421.9,266.0 423.1,266.0 424.2,266.0 425.4,266.0 426.6,266.0 427.8,266.0 429.0,266.0 430.2,266.0 431.4,266.0 432.5,266.0 433.7,266.0 434.9,266.0 436.1,266.0 437.3,266.0 438.5,266.0 439.7,266.0 440.9,266.0 442.0,266.0 443.2,266.0 444.4,266.0 445.6,266.0 446.8,266.0 448.0,266.0 449.2,266.0 450.3,266.0 451.5,266.0 452.7,266.0 453.9,266.0 455.1,266.0 456.3,266.0 457.5,266.0 458.7,266.0 459.8,266.0 461.0,266.0 462.2,266.0 463.4,266.0 464.6,266.0 465.8,266.0 467.0,266.0 468.1,266.0 469.3,266.0 470.5,266.0 471.7,266.0 472.9,266.0 474.1,266.0 475.3,266.0 476.5,266.0 477.6,266.0 478.8,266.0 480.0,266.0 481.2,266.0 482.4,266.0 483.6,266.0 484.8,266.0 485.9,266.0 487.1,266.0 488.3,266.0 489.5,266.0 490.7,266.0 491.9,266.0 493.1,266.0 494.3,266.0 495.4,266.0 496.6,266.0 497.8,266.0 499.0,266.0 500.2,266.0 501.4,266.0 502.6,266.0 503.7,266.0 504.9,266.0 506.1,266.0 507.3,266.0 508.5,266.0 509.7,266.0 510.9,266.0 512.1,266.0 513.2,266.0 514.4,266.0 515.6,266.0 516.8,266.0 518.0,266.0 519.2,266.0 520.4,266.0 521.5,266.0 522.7,266.0 523.9,266.0 525.1,266.0 526.3,266.0 527.5,266.0 528.7,266.0 529.9,266.0 531.0,266.0 532.2,266.0 533.4,266.0 534.6,266.0 535.8,266.0 537.0,266.0 538.2,266.0 539.3,266.0 540.5,266.0 541.7,266.0 542.9,266.0 544.1,266.0 545.3,266.0 546.5,266.0 547.7,266.0 548.8,266.0 550.0,266.0 551.2,266.0 552.4,266.0 553.6,266.0 554.8,266.0 556.0,266.0 557.1,266.0 558.3,266.0 559.5,266.0 560.7,266.0 561.9,266.0 563.1,266.0 564.3,266.0 565.5,266.0 566.6,266.0 567.8,266.0 569.0,266.0 570.2,266.0 571.4,266.0 572.6,266.0 573.8,266.0 574.9,266.0 576.1,266.0 577.3,266.0 578.5,266.0 579.7,266.0 580.9,266.0 582.1,266.0 583.3,266.0 584.4,266.0 585.6,266.0 586.8,266.0 588.0,266.0 589.2,266.0 590.4,266.0 591.6,266.0 592.7,266.0 593.9,266.0 595.1,266.0 596.3,266.0 597.5,266.0 598.7,266.0 599.9,266.0 601.1,266.0 602.2,266.0 603.4,266.0 604.6,266.0 605.8,266.0 607.0,266.0 608.2,266.0 609.4,266.0 610.5,266.0 611.7,266.0 612.9,266.0 614.1,266.0 615.3,266.0 616.5,266.0 617.7,266.0 618.9,266.0 620.0,266.0 621.2,266.0 622.4,266.0 623.6,266.0 624.8,266.0 626.0,266.0 627.2,266.0 628.3,266.0 629.5,266.0 630.7,266.0 631.9,266.0 633.1,266.0 634.3,266.0 635.5,266.0 636.7,266.0 637.8,266.0 639.0,266.0 640.2,266.0 641.4,266.0 642.6,266.0 643.8,266.0 645.0,266.0 646.1,266.0 647.3,266.0 648.5,266.0 649.7,266.0 650.9,266.0 652.1,266.0 653.3,266.0 654.5,266.0 655.6,266.0 656.8,266.0 658.0,266.0 659.2,266.0 660.4,266.0 661.6,266.0 662.8,266.0 663.9,266.0 665.1,266.0 666.3,266.0 667.5,266.0 668.7,266.0 669.9,266.0 671.1,266.0 672.3,266.0 673.4,266.0 674.6,266.0 675.8,266.0 677.0,266.0 678.2,266.0 679.4,266.0 680.6,266.0 681.7,266.0 682.9,266.0 684.1,266.0 685.3,266.0 686.5,266.0 687.7,266.0 688.9,266.0 690.1,266.0 691.2,266.0 692.4,266.0 693.6,266.0 694.8,266.0 696.0,266.0 697.2,266.0 698.4,266.0 699.5,266.0 700.7,266.0 701.9,266.0 703.1,266.0 704.3,266.0 705.5,266.0 706.7,266.0 707.9,266.0 709.0,266.0 710.2,266.0 711.4,266.0 712.6,266.0 713.8,266.0 715.0,266.0 716.2,266.0 717.3,266.0 718.5,266.0 719.7,266.0 720.9,266.0 722.1,266.0 723.3,266.0 724.5,266.0 725.7,266.0 726.8,266.0 728.0,266.0 729.2,266.0 730.4,266.0 731.6,266.0 732.8,266.0 734.0,266.0 735.1,266.0 736.3,266.0 737.5,266.0 738.7,266.0 739.9,266.0 741.1,266.0 742.3,266.0 743.5,266.0 744.6,266.0 745.8,266.0 747.0,266.0 748.2,266.0 749.4,266.0 750.6,266.0 751.8,266.0 752.9,266.0 754.1,266.0 755.3,266.0 756.5,266.0 757.7,266.0 758.9,266.0 760.1,266.0 761.3,266.0 762.4,266.0 763.6,266.0 764.8,266.0 766.0,266.0"/>
<line x1="606" y1="42" x2="628" y2="42" stroke="#0f62fe" stroke-width="2.2"/>
<text x="634" y="46" font-family="Arial" font-size="12">roll_deg</text>
<polyline fill="none" stroke="#24a148" stroke-width="2.2" points="54.0,129.2 55.2,123.1 56.4,114.6 57.6,107.6 58.7,103.5 59.9,101.4 61.1,99.8 62.3,98.2 63.5,96.8 64.7,95.7 65.9,95.2 67.1,95.0 68.2,95.0 69.4,95.2 70.6,95.6 71.8,96.0 73.0,96.6 74.2,97.3 75.4,98.1 76.5,98.9 77.7,99.8 78.9,100.7 80.1,101.6 81.3,102.6 82.5,103.6 83.7,104.6 84.9,105.6 86.0,106.6 87.2,107.5 88.4,108.5 89.6,109.5 90.8,110.5 92.0,111.4 93.2,112.4 94.3,113.3 95.5,114.2 96.7,115.1 97.9,116.0 99.1,116.9 100.3,117.7 101.5,118.5 102.7,119.4 103.8,120.1 105.0,120.9 106.2,121.7 107.4,122.4 108.6,123.2 109.8,123.9 111.0,124.6 112.1,125.2 113.3,125.9 114.5,126.5 115.7,127.2 116.9,127.8 118.1,128.4 119.3,128.9 120.5,129.5 121.6,130.0 122.8,130.6 124.0,131.1 125.2,131.6 126.4,132.0 127.6,132.5 128.8,133.0 129.9,133.4 131.1,133.8 132.3,134.2 133.5,134.6 134.7,135.0 135.9,135.4 137.1,135.7 138.3,136.0 139.4,136.4 140.6,136.7 141.8,137.0 143.0,137.3 144.2,137.5 145.4,137.8 146.6,138.0 147.7,138.3 148.9,138.5 150.1,138.7 151.3,138.7 152.5,138.7 153.7,138.7 154.9,138.6 156.1,138.5 157.2,138.3 158.4,138.1 159.6,137.8 160.8,137.6 162.0,137.3 163.2,137.0 164.4,136.6 165.5,136.3 166.7,135.9 167.9,135.5 169.1,135.1 170.3,134.7 171.5,134.3 172.7,133.8 173.9,133.4 175.0,132.9 176.2,132.4 177.4,131.9 178.6,131.4 179.8,130.9 181.0,130.4 182.2,129.9 183.3,129.4 184.5,128.8 185.7,128.3 186.9,127.7 188.1,127.2 189.3,126.6 190.5,126.0 191.7,125.5 192.8,124.9 194.0,124.3 195.2,123.7 196.4,123.2 197.6,122.6 198.8,122.0 200.0,121.4 201.1,120.8 202.3,120.2 203.5,119.6 204.7,119.0 205.9,118.4 207.1,117.8 208.3,117.2 209.5,116.6 210.6,116.0 211.8,115.4 213.0,114.8 214.2,114.2 215.4,113.6 216.6,113.0 217.8,112.4 218.9,111.8 220.1,111.3 221.3,110.7 222.5,110.1 223.7,109.5 224.9,108.9 226.1,108.3 227.3,107.8 228.4,107.2 229.6,106.6 230.8,106.0 232.0,105.5 233.2,104.9 234.4,104.4 235.6,103.8 236.7,103.3 237.9,102.7 239.1,102.2 240.3,101.6 241.5,101.1 242.7,100.6 243.9,100.0 245.1,99.5 246.2,99.0 247.4,98.5 248.6,98.0 249.8,97.5 251.0,97.0 252.2,96.5 253.4,96.0 254.5,95.6 255.7,95.1 256.9,94.6 258.1,94.2 259.3,93.7 260.5,93.3 261.7,92.8 262.9,92.4 264.0,92.0 265.2,91.5 266.4,91.1 267.6,90.7 268.8,90.3 270.0,89.9 271.2,89.5 272.3,89.1 273.5,88.8 274.7,88.3 275.9,88.1 277.1,87.5 278.3,87.7 279.5,86.0 280.7,88.9 281.8,80.7 283.0,95.0 284.2,86.8 285.4,97.3 286.6,85.2 287.8,93.2 289.0,78.6 290.1,86.6 291.3,72.0 292.5,80.0 293.7,70.6 294.9,83.8 296.1,74.9 297.3,88.6 298.5,79.7 299.6,93.4 300.8,84.6 302.0,94.5 303.2,81.9 304.4,90.3 305.6,76.1 306.8,84.6 307.9,70.4 309.1,78.8 310.3,64.7 311.5,73.1 312.7,64.2 313.9,77.9 315.1,69.0 316.3,82.7 317.4,73.8 318.6,87.5 319.8,78.6 321.0,92.2 322.2,83.4 323.4,91.2 324.6,76.6 325.7,84.4 326.9,69.6 328.1,77.5 329.3,62.7 330.5,70.5 331.7,62.8 332.9,77.6 334.1,69.8 335.2,84.6 336.4,76.8 337.6,88.7 338.8,78.0 340.0,87.0 341.2,73.5 342.4,82.5 343.5,68.9 344.7,78.0 345.9,64.4 347.1,73.4 348.3,59.9 349.5,68.9 350.7,55.4 351.9,64.4 353.0,57.2 354.2,72.5 355.4,65.3 356.6,80.6 357.8,73.4 359.0,86.5 360.2,77.1 361.3,86.3 362.5,72.9 363.7,82.1 364.9,68.7 366.1,77.9 367.3,64.5 368.5,73.7 369.7,60.3 370.8,69.5 372.0,56.1 373.2,65.3 374.4,54.0 375.6,65.3 376.8,54.0 378.0,65.4 379.1,54.1 380.3,65.4 381.5,54.1 382.7,65.4 383.9,54.2 385.1,65.5 386.3,54.2 387.5,65.5 388.6,54.3 389.8,65.6 391.0,54.3 392.2,65.6 393.4,54.3 394.6,65.6 395.8,54.4 396.9,65.7 398.1,54.4 399.3,65.7 400.5,54.5 401.7,65.8 402.9,54.5 404.1,65.8 405.3,54.5 406.4,65.9 407.6,54.6 408.8,65.9 410.0,54.6 411.2,65.9 412.4,54.7 413.6,66.0 414.7,54.7 415.9,66.0 417.1,54.8 418.3,66.1 419.5,54.8 420.7,66.1 421.9,54.8 423.1,66.1 424.2,54.9 425.4,66.2 426.6,54.9 427.8,66.2 429.0,55.0 430.2,66.3 431.4,55.0 432.5,66.3 433.7,55.0 434.9,66.4 436.1,55.1 437.3,66.4 438.5,55.1 439.7,66.4 440.9,55.2 442.0,66.5 443.2,55.2 444.4,66.5 445.6,55.3 446.8,66.6 448.0,55.3 449.2,66.6 450.3,55.3 451.5,66.6 452.7,55.4 453.9,66.7 455.1,55.4 456.3,66.7 457.5,55.5 458.7,66.8 459.8,55.5 461.0,66.8 462.2,55.5 463.4,66.9 464.6,55.6 465.8,66.9 467.0,55.6 468.1,66.9 469.3,55.7 470.5,67.0 471.7,55.7 472.9,67.0 474.1,55.8 475.3,67.1 476.5,55.8 477.6,67.1 478.8,55.8 480.0,67.1 481.2,55.9 482.4,67.2 483.6,55.9 484.8,67.2 485.9,56.0 487.1,67.3 488.3,56.0 489.5,67.3 490.7,56.0 491.9,67.4 493.1,56.1 494.3,67.4 495.4,56.1 496.6,67.4 497.8,56.9 499.0,68.9 500.2,58.3 501.4,70.4 502.6,59.8 503.7,71.8 504.9,61.3 506.1,73.3 507.3,62.7 508.5,74.7 509.7,64.2 510.9,76.2 512.1,65.6 513.2,77.6 514.4,67.1 515.6,79.1 516.8,68.5 518.0,80.6 519.2,70.0 520.4,82.0 521.5,71.5 522.7,83.5 523.9,72.9 525.1,84.9 526.3,74.4 527.5,86.4 528.7,75.8 529.9,87.9 531.0,77.3 532.2,89.3 533.4,78.8 534.6,90.8 535.8,80.2 537.0,92.2 538.2,81.7 539.3,93.7 540.5,83.1 541.7,95.2 542.9,84.6 544.1,96.6 545.3,86.1 546.5,98.1 547.7,87.5 548.8,99.5 550.0,89.0 551.2,101.0 552.4,90.4 553.6,102.4 554.8,91.9 556.0,103.9 557.1,93.3 558.3,105.4 559.5,94.8 560.7,106.8 561.9,96.3 563.1,108.3 564.3,97.7 565.5,109.7 566.6,99.2 567.8,111.2 569.0,100.6 570.2,112.7 571.4,102.1 572.6,114.1 573.8,103.6 574.9,115.6 576.1,105.0 577.3,117.0 578.5,106.5 579.7,118.5 580.9,107.9 582.1,120.0 583.3,109.4 584.4,121.4 585.6,110.9 586.8,122.9 588.0,112.3 589.2,124.3 590.4,113.8 591.6,125.8 592.7,115.2 593.9,127.2 595.1,116.7 596.3,128.7 597.5,118.1 598.7,130.2 599.9,119.6 601.1,131.6 602.2,121.1 603.4,133.1 604.6,122.5 605.8,134.5 607.0,124.0 608.2,136.0 609.4,125.4 610.5,137.1 611.7,126.3 612.9,137.9 614.1,127.0 615.3,138.6 616.5,127.7 617.7,139.1 618.9,128.0 620.0,139.4 621.2,128.3 622.4,139.7 623.6,128.6 624.8,140.0 626.0,128.9 627.2,140.3 628.3,129.2 629.5,140.6 630.7,129.5 631.9,140.9 633.1,129.8 634.3,141.2 635.5,130.1 636.7,141.5 637.8,130.4 639.0,141.8 640.2,130.7 641.4,142.1 642.6,131.0 643.8,142.4 645.0,131.3 646.1,142.7 647.3,131.5 648.5,143.0 649.7,131.8 650.9,143.3 652.1,132.1 653.3,143.6 654.5,132.4 655.6,143.9 656.8,132.7 658.0,144.2 659.2,133.0 660.4,144.5 661.6,133.3 662.8,144.8 663.9,133.6 665.1,145.1 666.3,133.9 667.5,145.4 668.7,134.2 669.9,145.7 671.1,134.5 672.3,146.0 673.4,134.8 674.6,146.3 675.8,135.1 677.0,146.6 678.2,135.4 679.4,146.9 680.6,135.7 681.7,147.2 682.9,136.0 684.1,147.5 685.3,136.3 686.5,147.7 687.7,136.6 688.9,148.0 690.1,136.9 691.2,148.3 692.4,137.2 693.6,148.6 694.8,137.5 696.0,148.9 697.2,137.8 698.4,149.2 699.5,138.1 700.7,149.5 701.9,138.4 703.1,149.8 704.3,138.7 705.5,150.1 706.7,139.0 707.9,150.4 709.0,139.3 710.2,150.7 711.4,139.6 712.6,151.0 713.8,139.9 715.0,151.3 716.2,140.2 717.3,151.6 718.5,140.5 719.7,151.9 720.9,140.8 722.1,152.2 723.3,141.1 724.5,152.4 725.7,141.2 726.8,152.6 728.0,141.4 729.2,152.8 730.4,141.6 731.6,152.9 732.8,141.7 734.0,153.1 735.1,141.9 736.3,153.3 737.5,142.1 738.7,153.4 739.9,142.2 741.1,153.6 742.3,142.4 743.5,153.8 744.6,142.6 745.8,153.9 747.0,142.7 748.2,154.1 749.4,142.9 750.6,154.2 751.8,143.0 752.9,154.4 754.1,143.2 755.3,154.6 756.5,143.4 757.7,154.7 758.9,143.5 760.1,154.9 761.3,143.7 762.4,155.1 763.6,143.9 764.8,155.2 766.0,144.0"/>
<line x1="606" y1="60" x2="628" y2="60" stroke="#24a148" stroke-width="2.2"/>
<text x="634" y="64" font-family="Arial" font-size="12">pitch_deg</text>
<polyline fill="none" stroke="#da1e28" stroke-width="2.2" points="54.0,266.0 55.2,266.0 56.4,266.0 57.6,266.0 58.7,266.0 59.9,266.0 61.1,266.0 62.3,266.0 63.5,266.0 64.7,266.0 65.9,266.0 67.1,266.0 68.2,266.0 69.4,266.0 70.6,266.0 71.8,266.0 73.0,266.0 74.2,266.0 75.4,266.0 76.5,266.0 77.7,266.0 78.9,266.0 80.1,266.0 81.3,266.0 82.5,266.0 83.7,266.0 84.9,266.0 86.0,266.0 87.2,266.0 88.4,266.0 89.6,266.0 90.8,266.0 92.0,266.0 93.2,266.0 94.3,266.0 95.5,266.0 96.7,266.0 97.9,266.0 99.1,266.0 100.3,266.0 101.5,266.0 102.7,266.0 103.8,266.0 105.0,266.0 106.2,266.0 107.4,266.0 108.6,266.0 109.8,266.0 111.0,266.0 112.1,266.0 113.3,266.0 114.5,266.0 115.7,266.0 116.9,266.0 118.1,266.0 119.3,266.0 120.5,266.0 121.6,266.0 122.8,266.0 124.0,266.0 125.2,266.0 126.4,266.0 127.6,266.0 128.8,266.0 129.9,266.0 131.1,266.0 132.3,266.0 133.5,266.0 134.7,266.0 135.9,266.0 137.1,266.0 138.3,266.0 139.4,266.0 140.6,266.0 141.8,266.0 143.0,266.0 144.2,266.0 145.4,266.0 146.6,266.0 147.7,266.0 148.9,266.0 150.1,266.0 151.3,266.0 152.5,266.0 153.7,266.0 154.9,266.0 156.1,266.0 157.2,266.0 158.4,266.0 159.6,266.0 160.8,266.0 162.0,266.0 163.2,266.0 164.4,266.0 165.5,266.0 166.7,266.0 167.9,266.0 169.1,266.0 170.3,266.0 171.5,266.0 172.7,266.0 173.9,266.0 175.0,266.0 176.2,266.0 177.4,266.0 178.6,266.0 179.8,266.0 181.0,266.0 182.2,266.0 183.3,266.0 184.5,266.0 185.7,266.0 186.9,266.0 188.1,266.0 189.3,266.0 190.5,266.0 191.7,266.0 192.8,266.0 194.0,266.0 195.2,266.0 196.4,266.0 197.6,266.0 198.8,266.0 200.0,266.0 201.1,266.0 202.3,266.0 203.5,266.0 204.7,266.0 205.9,266.0 207.1,266.0 208.3,266.0 209.5,266.0 210.6,266.0 211.8,266.0 213.0,266.0 214.2,266.0 215.4,266.0 216.6,266.0 217.8,266.0 218.9,266.0 220.1,266.0 221.3,266.0 222.5,266.0 223.7,266.0 224.9,266.0 226.1,266.0 227.3,266.0 228.4,266.0 229.6,266.0 230.8,266.0 232.0,266.0 233.2,266.0 234.4,266.0 235.6,266.0 236.7,266.0 237.9,266.0 239.1,266.0 240.3,266.0 241.5,266.0 242.7,266.0 243.9,266.0 245.1,266.0 246.2,266.0 247.4,266.0 248.6,266.0 249.8,266.0 251.0,266.0 252.2,266.0 253.4,266.0 254.5,266.0 255.7,266.0 256.9,266.0 258.1,266.0 259.3,266.0 260.5,266.0 261.7,266.0 262.9,266.0 264.0,266.0 265.2,266.0 266.4,266.0 267.6,266.0 268.8,266.0 270.0,266.0 271.2,266.0 272.3,266.0 273.5,266.0 274.7,266.0 275.9,266.0 277.1,266.0 278.3,266.0 279.5,266.0 280.7,266.0 281.8,266.0 283.0,266.0 284.2,266.0 285.4,266.0 286.6,266.0 287.8,266.0 289.0,266.0 290.1,266.0 291.3,266.0 292.5,266.0 293.7,266.0 294.9,266.0 296.1,266.0 297.3,266.0 298.5,266.0 299.6,266.0 300.8,266.0 302.0,266.0 303.2,266.0 304.4,266.0 305.6,266.0 306.8,266.0 307.9,266.0 309.1,266.0 310.3,266.0 311.5,266.0 312.7,266.0 313.9,266.0 315.1,266.0 316.3,266.0 317.4,266.0 318.6,266.0 319.8,266.0 321.0,266.0 322.2,266.0 323.4,266.0 324.6,266.0 325.7,266.0 326.9,266.0 328.1,266.0 329.3,266.0 330.5,266.0 331.7,266.0 332.9,266.0 334.1,266.0 335.2,266.0 336.4,266.0 337.6,266.0 338.8,266.0 340.0,266.0 341.2,266.0 342.4,266.0 343.5,266.0 344.7,266.0 345.9,266.0 347.1,266.0 348.3,266.0 349.5,266.0 350.7,266.0 351.9,266.0 353.0,266.0 354.2,266.0 355.4,266.0 356.6,266.0 357.8,266.0 359.0,266.0 360.2,266.0 361.3,266.0 362.5,266.0 363.7,266.0 364.9,266.0 366.1,266.0 367.3,266.0 368.5,266.0 369.7,266.0 370.8,266.0 372.0,266.0 373.2,266.0 374.4,266.0 375.6,266.0 376.8,266.0 378.0,266.0 379.1,266.0 380.3,266.0 381.5,266.0 382.7,266.0 383.9,266.0 385.1,266.0 386.3,266.0 387.5,266.0 388.6,266.0 389.8,266.0 391.0,266.0 392.2,266.0 393.4,266.0 394.6,266.0 395.8,266.0 396.9,266.0 398.1,266.0 399.3,266.0 400.5,266.0 401.7,266.0 402.9,266.0 404.1,266.0 405.3,266.0 406.4,266.0 407.6,266.0 408.8,266.0 410.0,266.0 411.2,266.0 412.4,266.0 413.6,266.0 414.7,266.0 415.9,266.0 417.1,266.0 418.3,266.0 419.5,266.0 420.7,266.0 421.9,266.0 423.1,266.0 424.2,266.0 425.4,266.0 426.6,266.0 427.8,266.0 429.0,266.0 430.2,266.0 431.4,266.0 432.5,266.0 433.7,266.0 434.9,266.0 436.1,266.0 437.3,266.0 438.5,266.0 439.7,266.0 440.9,266.0 442.0,266.0 443.2,266.0 444.4,266.0 445.6,266.0 446.8,266.0 448.0,266.0 449.2,266.0 450.3,266.0 451.5,266.0 452.7,266.0 453.9,266.0 455.1,266.0 456.3,266.0 457.5,266.0 458.7,266.0 459.8,266.0 461.0,266.0 462.2,266.0 463.4,266.0 464.6,266.0 465.8,266.0 467.0,266.0 468.1,266.0 469.3,266.0 470.5,266.0 471.7,266.0 472.9,266.0 474.1,266.0 475.3,266.0 476.5,266.0 477.6,266.0 478.8,266.0 480.0,266.0 481.2,266.0 482.4,266.0 483.6,266.0 484.8,266.0 485.9,266.0 487.1,266.0 488.3,266.0 489.5,266.0 490.7,266.0 491.9,266.0 493.1,266.0 494.3,266.0 495.4,266.0 496.6,266.0 497.8,266.0 499.0,266.0 500.2,266.0 501.4,266.0 502.6,266.0 503.7,266.0 504.9,266.0 506.1,266.0 507.3,266.0 508.5,266.0 509.7,266.0 510.9,266.0 512.1,266.0 513.2,266.0 514.4,266.0 515.6,266.0 516.8,266.0 518.0,266.0 519.2,266.0 520.4,266.0 521.5,266.0 522.7,266.0 523.9,266.0 525.1,266.0 526.3,266.0 527.5,266.0 528.7,266.0 529.9,266.0 531.0,266.0 532.2,266.0 533.4,266.0 534.6,266.0 535.8,266.0 537.0,266.0 538.2,266.0 539.3,266.0 540.5,266.0 541.7,266.0 542.9,266.0 544.1,266.0 545.3,266.0 546.5,266.0 547.7,266.0 548.8,266.0 550.0,266.0 551.2,266.0 552.4,266.0 553.6,266.0 554.8,266.0 556.0,266.0 557.1,266.0 558.3,266.0 559.5,266.0 560.7,266.0 561.9,266.0 563.1,266.0 564.3,266.0 565.5,266.0 566.6,266.0 567.8,266.0 569.0,266.0 570.2,266.0 571.4,266.0 572.6,266.0 573.8,266.0 574.9,266.0 576.1,266.0 577.3,266.0 578.5,266.0 579.7,266.0 580.9,266.0 582.1,266.0 583.3,266.0 584.4,266.0 585.6,266.0 586.8,266.0 588.0,266.0 589.2,266.0 590.4,266.0 591.6,266.0 592.7,266.0 593.9,266.0 595.1,266.0 596.3,266.0 597.5,266.0 598.7,266.0 599.9,266.0 601.1,266.0 602.2,266.0 603.4,266.0 604.6,266.0 605.8,266.0 607.0,266.0 608.2,266.0 609.4,266.0 610.5,266.0 611.7,266.0 612.9,266.0 614.1,266.0 615.3,266.0 616.5,266.0 617.7,266.0 618.9,266.0 620.0,266.0 621.2,266.0 622.4,266.0 623.6,266.0 624.8,266.0 626.0,266.0 627.2,266.0 628.3,266.0 629.5,266.0 630.7,266.0 631.9,266.0 633.1,266.0 634.3,266.0 635.5,266.0 636.7,266.0 637.8,266.0 639.0,266.0 640.2,266.0 641.4,266.0 642.6,266.0 643.8,266.0 645.0,266.0 646.1,266.0 647.3,266.0 648.5,266.0 649.7,266.0 650.9,266.0 652.1,266.0 653.3,266.0 654.5,266.0 655.6,266.0 656.8,266.0 658.0,266.0 659.2,266.0 660.4,266.0 661.6,266.0 662.8,266.0 663.9,266.0 665.1,266.0 666.3,266.0 667.5,266.0 668.7,266.0 669.9,266.0 671.1,266.0 672.3,266.0 673.4,266.0 674.6,266.0 675.8,266.0 677.0,266.0 678.2,266.0 679.4,266.0 680.6,266.0 681.7,266.0 682.9,266.0 684.1,266.0 685.3,266.0 686.5,266.0 687.7,266.0 688.9,266.0 690.1,266.0 691.2,266.0 692.4,266.0 693.6,266.0 694.8,266.0 696.0,266.0 697.2,266.0 698.4,266.0 699.5,266.0 700.7,266.0 701.9,266.0 703.1,266.0 704.3,266.0 705.5,266.0 706.7,266.0 707.9,266.0 709.0,266.0 710.2,266.0 711.4,266.0 712.6,266.0 713.8,266.0 715.0,266.0 716.2,266.0 717.3,266.0 718.5,266.0 719.7,266.0 720.9,266.0 722.1,266.0 723.3,266.0 724.5,266.0 725.7,266.0 726.8,266.0 728.0,266.0 729.2,266.0 730.4,266.0 731.6,266.0 732.8,266.0 734.0,266.0 735.1,266.0 736.3,266.0 737.5,266.0 738.7,266.0 739.9,266.0 741.1,266.0 742.3,266.0 743.5,266.0 744.6,266.0 745.8,266.0 747.0,266.0 748.2,266.0 749.4,266.0 750.6,266.0 751.8,266.0 752.9,266.0 754.1,266.0 755.3,266.0 756.5,266.0 757.7,266.0 758.9,266.0 760.1,266.0 761.3,266.0 762.4,266.0 763.6,266.0 764.8,266.0 766.0,266.0"/>
<line x1="606" y1="78" x2="628" y2="78" stroke="#da1e28" stroke-width="2.2"/>
<text x="634" y="82" font-family="Arial" font-size="12">yaw_deg</text>
</svg>