<svg xmlns="http://www.w3.org/2000/svg" width="820" height="320" viewBox="0 0 820 320">
<rect width="100%" height="100%" fill="#ffffff"/>
<text x="54" y="28" font-family="Arial" font-size="18" font-weight="700">Dynamic Pressure</text>
<line x1="54" y1="266" x2="766" y2="266" stroke="#1f2933"/>
<line x1="54" y1="54" x2="54" y2="266" stroke="#1f2933"/>
<text x="54" y="306" font-family="Arial" font-size="12">time (s)</text>
<text x="596" y="306" font-family="Arial" font-size="12">qbar (Pa)</text>
<text x="58" y="68" font-family="Arial" font-size="11">4.24e+04</text>
<text x="58" y="260" font-family="Arial" font-size="11">4.46e+03</text>
<polyline fill="none" stroke="#0f62fe" stroke-width="2.2" points="54.0,266.0 55.2,265.7 56.4,265.4 57.6,265.1 58.7,264.8 59.9,264.5 61.1,264.2 62.3,263.9 63.5,263.5 64.7,263.2 65.9,262.8 67.1,262.5 68.2,262.1 69.4,261.7 70.6,261.4 71.8,261.0 73.0,260.6 74.2,260.2 75.4,259.8 76.5,259.4 77.7,259.0 78.9,258.6 80.1,258.2 81.3,257.8 82.5,257.4 83.7,257.0 84.9,256.6 86.0,256.2 87.2,255.8 88.4,255.4 89.6,254.9 90.8,254.5 92.0,254.1 93.2,253.7 94.3,253.3 95.5,252.8 96.7,252.4 97.9,252.0 99.1,251.6 100.3,251.1 101.5,250.7 102.7,250.3 103.8,249.8 105.0,249.4 106.2,248.9 107.4,248.5 108.6,248.0 109.8,247.6 111.0,247.1 112.1,246.7 113.3,246.2 114.5,245.8 115.7,245.3 116.9,244.9 118.1,244.4 119.3,244.0 120.5,243.5 121.6,243.0 122.8,242.6 124.0,242.1 125.2,241.6 126.4,241.2 127.6,240.7 128.8,240.2 129.9,239.7 131.1,239.3 132.3,238.8 133.5,238.3 134.7,237.8 135.9,237.3 137.1,236.9 138.3,236.4 139.4,235.9 140.6,235.4 141.8,234.9 143.0,234.4 144.2,233.9 145.4,233.4 146.6,232.9 147.7,232.4 148.9,231.9 150.1,231.4 151.3,230.9 152.5,230.4 153.7,229.9 154.9,229.4 156.1,228.9 157.2,228.4 158.4,227.9 159.6,227.4 160.8,226.9 162.0,226.4 163.2,225.9 164.4,225.4 165.5,224.9 166.7,224.4 167.9,223.8 169.1,223.3 170.3,222.8 171.5,222.3 172.7,221.8 173.9,221.3 175.0,220.8 176.2,220.2 177.4,219.7 178.6,219.2 179.8,218.7 181.0,218.2 182.2,217.6 183.3,217.1 184.5,216.6 185.7,216.1 186.9,215.5 188.1,215.0 189.3,214.5 190.5,214.0 191.7,213.4 192.8,212.9 194.0,212.4 195.2,211.9 196.4,211.3 197.6,210.8 198.8,210.3 200.0,209.8 201.1,209.2 202.3,208.7 203.5,208.2 204.7,207.6 205.9,207.1 207.1,206.6 208.3,206.0 209.5,205.5 210.6,205.0 211.8,204.4 213.0,203.9 214.2,203.4 215.4,202.8 216.6,202.3 217.8,201.8 218.9,201.2 220.1,200.7 221.3,200.2 222.5,199.6 223.7,199.1 224.9,198.6 226.1,198.0 227.3,197.5 228.4,196.9 229.6,196.4 230.8,195.9 232.0,195.3 233.2,194.8 234.4,194.2 235.6,193.7 236.7,193.2 237.9,192.6 239.1,192.1 240.3,191.5 241.5,191.0 242.7,190.4 243.9,189.9 245.1,189.3 246.2,188.8 247.4,188.3 248.6,187.7 249.8,187.2 251.0,186.6 252.2,186.1 253.4,185.5 254.5,185.0 255.7,184.4 256.9,183.9 258.1,183.3 259.3,182.8 260.5,182.2 261.7,181.7 262.9,181.1 264.0,180.6 265.2,180.0 266.4,179.5 267.6,178.9 268.8,178.3 270.0,177.8 271.2,177.2 272.3,176.7 273.5,176.1 274.7,175.6 275.9,175.0 277.1,174.5 278.3,173.9 279.5,173.3 280.7,172.8 281.8,172.2 283.0,171.7 284.2,171.1 285.4,170.5 286.6,170.0 287.8,169.4 289.0,168.8 290.1,168.3 291.3,167.7 292.5,167.2 293.7,166.6 294.9,166.1 296.1,165.5 297.3,165.0 298.5,164.4 299.6,163.8 300.8,163.2 302.0,162.7 303.2,162.1 304.4,161.5 305.6,160.9 306.8,160.4 307.9,159.8 309.1,159.2 310.3,158.7 311.5,158.1 312.7,157.6 313.9,157.1 315.1,156.5 316.3,155.9 317.4,155.4 318.6,154.8 319.8,154.2 321.0,153.6 322.2,153.0 323.4,152.4 324.6,151.8 325.7,151.3 326.9,150.7 328.1,150.1 329.3,149.6 330.5,149.0 331.7,148.5 332.9,147.9 334.1,147.4 335.2,146.8 336.4,146.2 337.6,145.6 338.8,145.0 340.0,144.5 341.2,143.9 342.4,143.3 343.5,142.7 344.7,142.2 345.9,141.6 347.1,141.0 348.3,140.5 349.5,139.9 350.7,139.4 351.9,138.9 353.0,138.3 354.2,137.8 355.4,137.2 356.6,136.7 357.8,136.1 359.0,135.5 360.2,134.9 361.3,134.3 362.5,133.7 363.7,133.2 364.9,132.6 366.1,132.0 367.3,131.5 368.5,130.9 369.7,130.3 370.8,129.8 372.0,129.3 373.2,128.8 374.4,128.2 375.6,127.7 376.8,127.2 378.0,126.6 379.1,126.1 380.3,125.6 381.5,125.0 382.7,124.5 383.9,124.0 385.1,123.5 386.3,122.9 387.5,122.4 388.6,121.9 389.8,121.4 391.0,120.8 392.2,120.3 393.4,119.8 394.6,119.2 395.8,118.7 396.9,118.2 398.1,117.6 399.3,117.1 400.5,116.6 401.7,116.1 402.9,115.6 404.1,115.1 405.3,114.5 406.4,114.0 407.6,113.5 408.8,113.0 410.0,112.4 411.2,111.9 412.4,111.4 413.6,110.9 414.7,110.4 415.9,109.9 417.1,109.4 418.3,108.9 419.5,108.3 420.7,107.9 421.9,107.3 423.1,106.8 424.2,106.3 425.4,105.8 426.6,105.3 427.8,104.8 429.0,104.3 430.2,103.8 431.4,103.3 432.5,102.9 433.7,102.3 434.9,101.9 436.1,101.4 437.3,100.9 438.5,100.4 439.7,99.9 440.9,99.4 442.0,98.9 443.2,98.4 444.4,98.0 445.6,97.5 446.8,97.0 448.0,96.5 449.2,96.1 450.3,95.6 451.5,95.1 452.7,94.6 453.9,94.2 455.1,93.7 456.3,93.3 457.5,92.8 458.7,92.3 459.8,91.9 461.0,91.4 462.2,90.9 463.4,90.5 464.6,90.0 465.8,89.6 467.0,89.1 468.1,88.7 469.3,88.2 470.5,87.8 471.7,87.3 472.9,86.9 474.1,86.4 475.3,86.0 476.5,85.6 477.6,85.2 478.8,84.7 480.0,84.3 481.2,83.8 482.4,83.4 483.6,83.0 484.8,82.6 485.9,82.1 487.1,81.7 488.3,81.3 489.5,80.9 490.7,80.4 491.9,80.0 493.1,79.6 494.3,79.2 495.4,78.8 496.6,78.4 497.8,77.9 499.0,77.5 500.2,77.1 501.4,76.7 502.6,76.3 503.7,75.9 504.9,75.4 506.1,75.0 507.3,74.6 508.5,74.2 509.7,73.8 510.9,73.4 512.1,72.9 513.2,72.5 514.4,72.1 515.6,71.7 516.8,71.3 518.0,70.9 519.2,70.4 520.4,70.1 521.5,69.6 522.7,69.2 523.9,68.8 525.1,68.4 526.3,68.0 527.5,67.6 528.7,67.2 529.9,66.8 531.0,66.3 532.2,66.0 533.4,65.5 534.6,65.2 535.8,64.7 537.0,64.4 538.2,63.9 539.3,63.6 540.5,63.1 541.7,62.8 542.9,62.3 544.1,62.0 545.3,61.6 546.5,61.2 547.7,60.8 548.8,60.4 550.0,60.0 551.2,59.6 552.4,59.2 553.6,58.9 554.8,58.5 556.0,58.1 557.1,57.7 558.3,57.4 559.5,57.0 560.7,56.6 561.9,56.2 563.1,55.9 564.3,55.5 565.5,55.1 566.6,54.7 567.8,54.4 569.0,54.0 570.2,54.9 571.4,55.8 572.6,56.7 573.8,57.6 574.9,58.5 576.1,59.4 577.3,60.3 578.5,61.1 579.7,62.0 580.9,62.8 582.1,63.7 583.3,64.5 584.4,65.4 585.6,66.2 586.8,67.0 588.0,67.8 589.2,68.7 590.4,69.4 591.6,70.3 592.7,71.1 593.9,71.9 595.1,72.6 596.3,73.4 597.5,74.2 598.7,75.0 599.9,75.7 601.1,76.5 602.2,77.3 603.4,78.1 604.6,78.8 605.8,79.6 607.0,80.3 608.2,81.0 609.4,81.7 610.5,82.5 611.7,83.2 612.9,84.0 614.1,84.6 615.3,85.4 616.5,86.1 617.7,86.8 618.9,87.5 620.0,88.2 621.2,88.9 622.4,89.6 623.6,90.3 624.8,91.0 626.0,91.7 627.2,92.4 628.3,93.1 629.5,93.8 630.7,94.4 631.9,95.1 633.1,95.8 634.3,96.5 635.5,97.1 636.7,97.8 637.8,98.4 639.0,99.1 640.2,99.8 641.4,100.4 642.6,101.1 643.8,101.7 645.0,102.3 646.1,103.0 647.3,103.6 648.5,104.3 649.7,104.9 650.9,105.5 652.1,106.1 653.3,106.8 654.5,107.4 655.6,108.0 656.8,108.6 658.0,109.2 659.2,109.8 660.4,110.4 661.6,111.0 662.8,111.6 663.9,112.2 665.1,112.8 666.3,113.4 667.5,114.0 668.7,114.5 669.9,115.1 671.1,115.7 672.3,116.3 673.4,116.8 674.6,117.4 675.8,117.9 677.0,118.5 678.2,119.1 679.4,119.6 680.6,120.2 681.7,120.7 682.9,121.2 684.1,121.8 685.3,122.3 686.5,122.9 687.7,123.4 688.9,123.9 690.1,124.5 691.2,125.0 692.4,125.5 693.6,126.0 694.8,126.5 696.0,127.1 697.2,127.6 698.4,128.1 699.5,128.6 700.7,129.1 701.9,129.6 703.1,130.1 704.3,130.6 705.5,131.1 706.7,131.6 707.9,132.1 709.0,132.6 710.2,133.1 711.4,133.5 712.6,134.0 713.8,134.5 715.0,135.0 716.2,135.4 717.3,135.9 718.5,136.4 719.7,136.9 720.9,137.3 722.1,137.8 723.3,138.2 724.5,138.7 725.7,139.2 726.8,139.6 728.0,140.1 729.2,140.5 730.4,141.0 731.6,141.4 732.8,141.9 734.0,142.3 735.1,142.7 736.3,143.2 737.5,143.6 738.7,144.1 739.9,144.5 741.1,144.9 742.3,145.3 743.5,145.8 744.6,146.2 745.8,146.6 747.0,147.0 748.2,147.5 749.4,147.9 750.6,148.3 751.8,148.7 752.9,149.1 754.1,149.5 755.3,149.9 756.5,150.3 757.7,150.7 758.9,151.1 760.1,151.5 761.3,151.9 762.4,152.3 763.6,152.7 764.8,153.1 766.0,153.5"/>
<line x1="606" y1="42" x2="628" y2="42" stroke="#0f62fe" stroke-width="2.2"/>
<text x="634" y="46" font-family="Arial" font-size="12">qbar_pa</text>
</svg>