<svg xmlns="http://www.w3.org/2000/svg" width="820" height="320" viewBox="0 0 820 320">
<rect width="100%" height="100%" fill="#ffffff"/>
<text x="54" y="28" font-family="Arial" font-size="18" font-weight="700">Load Factor</text>
<line x1="54" y1="266" x2="766" y2="266" stroke="#1f2933"/>
<line x1="54" y1="54" x2="54" y2="266" stroke="#1f2933"/>
<text x="54" y="306" font-family="Arial" font-size="12">time (s)</text>
<text x="596" y="306" font-family="Arial" font-size="12">g</text>
<text x="58" y="68" font-family="Arial" font-size="11">2.3</text>
<text x="58" y="260" font-family="Arial" font-size="11">0.904</text>
<polyline fill="none" stroke="#0f62fe" stroke-width="2.2" points="54.0,136.0 55.2,131.7 56.4,127.3 57.6,122.8 58.7,118.1 59.9,113.5 61.1,108.7 62.3,103.9 63.5,99.1 64.7,94.3 65.9,89.4 67.1,84.6 68.2,79.7 69.4,74.8 70.6,73.3 71.8,73.5 73.0,73.6 74.2,73.8 75.4,73.9 76.5,74.0 77.7,74.1 78.9,74.3 80.1,74.4 81.3,74.5 82.5,74.6 83.7,74.7 84.9,74.8 86.0,75.0 87.2,75.1 88.4,75.2 89.6,75.3 90.8,75.4 92.0,75.5 93.2,75.6 94.3,75.7 95.5,75.7 96.7,75.8 97.9,75.9 99.1,76.0 100.3,76.1 101.5,76.2 102.7,76.2 103.8,76.3 105.0,76.4 106.2,76.4 107.4,76.5 108.6,76.6 109.8,76.6 111.0,76.7 112.1,76.8 113.3,76.8 114.5,76.9 115.7,76.9 116.9,77.0 118.1,77.0 119.3,77.1 120.5,77.1 121.6,77.1 122.8,77.2 124.0,77.2 125.2,77.2 126.4,77.3 127.6,77.3 128.8,77.3 129.9,77.4 131.1,77.4 132.3,77.4 133.5,77.4 134.7,77.5 135.9,77.5 137.1,77.5 138.3,77.5 139.4,77.5 140.6,77.6 141.8,77.6 143.0,77.6 144.2,77.6 145.4,77.6 146.6,77.6 147.7,77.6 148.9,77.7 150.1,77.7 151.3,77.6 152.5,77.6 153.7,77.5 154.9,77.4 156.1,77.3 157.2,77.2 158.4,77.1 159.6,77.0 160.8,76.9 162.0,76.7 163.2,76.6 164.4,76.5 165.5,76.3 166.7,76.1 167.9,76.0 169.1,75.8 170.3,75.6 171.5,75.5 172.7,75.3 173.9,75.1 175.0,74.9 176.2,74.8 177.4,74.6 178.6,74.4 179.8,74.2 181.0,74.0 182.2,73.8 183.3,73.7 184.5,73.5 185.7,73.3 186.9,73.1 188.1,73.0 189.3,72.8 190.5,72.6 191.7,72.5 192.8,72.3 194.0,72.1 195.2,72.0 196.4,71.8 197.6,71.7 198.8,71.6 200.0,71.4 201.1,71.3 202.3,71.2 203.5,71.1 204.7,71.0 205.9,70.9 207.1,70.8 208.3,70.7 209.5,70.6 210.6,70.5 211.8,70.4 213.0,70.4 214.2,70.3 215.4,70.3 216.6,70.2 217.8,70.2 218.9,70.2 220.1,70.2 221.3,70.2 222.5,70.2 223.7,70.2 224.9,70.2 226.1,70.2 227.3,70.2 228.4,70.3 229.6,70.3 230.8,70.4 232.0,70.5 233.2,70.6 234.4,70.6 235.6,70.7 236.7,70.9 237.9,71.0 239.1,71.1 240.3,71.2 241.5,71.4 242.7,71.5 243.9,71.7 245.1,71.9 246.2,72.0 247.4,72.2 248.6,72.4 249.8,72.6 251.0,72.9 252.2,73.1 253.4,73.3 254.5,73.6 255.7,73.8 256.9,74.1 258.1,74.3 259.3,74.6 260.5,74.9 261.7,75.2 262.9,75.5 264.0,75.8 265.2,76.1 266.4,76.4 267.6,76.8 268.8,77.1 270.0,77.5 271.2,77.8 272.3,78.2 273.5,78.6 274.7,78.8 275.9,79.5 277.1,79.2 278.3,81.3 279.5,77.5 280.7,87.8 281.8,63.1 283.0,100.2 284.2,76.9 285.4,105.8 286.6,75.3 287.8,102.2 289.0,65.6 290.1,94.7 291.3,55.1 292.5,86.2 293.7,54.2 294.9,95.1 296.1,65.3 297.3,104.3 298.5,76.0 299.6,112.0 300.8,86.1 302.0,114.9 303.2,82.3 304.4,111.0 305.6,73.1 306.8,104.8 307.9,63.9 309.1,97.6 310.3,54.0 311.5,89.6 312.7,55.1 313.9,101.3 315.1,68.4 316.3,111.1 317.4,80.0 318.6,119.2 319.8,90.5 321.0,126.1 322.2,100.3 323.4,126.4 324.6,88.2 325.7,118.7 326.9,75.3 328.1,108.4 329.3,60.4 330.5,96.7 331.7,61.8 332.9,112.9 334.1,81.8 335.2,126.4 336.4,99.6 337.6,134.0 338.8,102.3 340.0,133.0 341.2,93.7 342.4,128.2 343.5,85.0 344.7,123.0 345.9,76.5 347.1,116.8 348.3,67.1 349.5,109.7 350.7,57.2 351.9,102.3 353.0,64.6 354.2,122.6 355.4,89.2 356.6,138.2 357.8,111.0 359.0,147.6 360.2,118.0 361.3,147.9 362.5,109.0 363.7,143.7 364.9,99.9 366.1,138.9 367.3,90.8 368.5,133.0 369.7,81.1 370.8,126.0 372.0,70.8 373.2,118.8 374.4,66.8 375.6,123.3 376.8,71.6 378.0,127.5 379.1,76.0 380.3,131.4 381.5,80.1 382.7,135.0 383.9,83.8 385.1,138.3 386.3,87.3 387.5,141.4 388.6,90.5 389.8,144.4 391.0,93.5 392.2,147.1 393.4,96.3 394.6,149.8 395.8,98.9 396.9,152.2 398.1,101.3 399.3,154.6 400.5,103.6 401.7,156.9 402.9,105.7 404.1,159.1 405.3,107.7 406.4,161.1 407.6,109.6 408.8,163.2 410.0,111.4 411.2,165.1 412.4,113.1 413.6,167.0 414.7,114.7 415.9,168.8 417.1,116.3 418.3,170.6 419.5,117.6 420.7,172.2 421.9,118.8 423.1,173.7 424.2,119.8 425.4,175.1 426.6,120.8 427.8,176.6 429.0,121.7 430.2,178.0 431.4,122.6 432.5,179.4 433.7,123.5 434.9,180.7 436.1,124.3 437.3,182.1 438.5,125.1 439.7,183.4 440.9,125.9 442.0,184.8 443.2,126.7 444.4,186.1 445.6,127.4 446.8,187.4 448.0,128.2 449.2,188.7 450.3,128.9 451.5,190.0 452.7,129.5 453.9,191.2 455.1,130.2 456.3,192.5 457.5,130.9 458.7,193.7 459.8,131.5 461.0,195.0 462.2,132.1 463.4,196.2 464.6,132.7 465.8,197.4 467.0,133.3 468.1,198.7 469.3,133.9 470.5,199.9 471.7,134.5 472.9,201.1 474.1,135.1 475.3,202.2 476.5,135.6 477.6,203.4 478.8,136.1 480.0,204.6 481.2,136.7 482.4,205.8 483.6,137.2 484.8,206.9 485.9,137.7 487.1,208.1 488.3,138.2 489.5,209.2 490.7,138.7 491.9,210.3 493.1,139.1 494.3,211.5 495.4,139.6 496.6,212.6 497.8,143.2 499.0,217.2 500.2,149.8 501.4,221.1 502.6,155.8 503.7,224.5 504.9,161.0 506.1,227.5 507.3,165.8 508.5,230.0 509.7,170.0 510.9,232.4 512.1,173.8 513.2,234.5 514.4,177.2 515.6,236.4 516.8,180.4 518.0,238.1 519.2,183.2 520.4,239.8 521.5,185.8 522.7,241.3 523.9,188.2 525.1,242.8 526.3,190.4 527.5,244.3 528.7,192.4 529.9,245.7 531.0,194.3 532.2,247.1 533.4,196.1 534.6,248.4 535.8,197.7 537.0,249.7 538.2,199.3 539.3,251.0 540.5,200.7 541.7,252.3 542.9,202.1 544.1,253.6 545.3,203.4 546.5,254.8 547.7,204.6 548.8,256.1 550.0,205.8 551.2,257.4 552.4,206.9 553.6,258.6 554.8,208.0 556.0,259.8 557.1,209.1 558.3,261.1 559.5,210.1 560.7,262.3 561.9,211.0 563.1,263.6 564.3,212.0 565.5,264.8 566.6,212.9 567.8,266.0 569.0,116.9 570.2,170.8 571.4,119.8 572.6,173.2 573.8,122.7 574.9,175.5 576.1,125.9 577.3,177.7 578.5,129.0 579.7,179.9 580.9,132.0 582.1,182.0 583.3,134.7 584.4,184.0 585.6,137.3 586.8,186.0 588.0,139.8 589.2,187.8 590.4,142.1 591.6,189.7 592.7,144.3 593.9,191.5 595.1,146.4 596.3,193.2 597.5,148.3 598.7,194.9 599.9,150.2 601.1,196.5 602.2,152.1 603.4,198.2 604.6,153.8 605.8,199.8 607.0,155.5 608.2,201.3 609.4,157.8 610.5,202.5 611.7,156.5 612.9,203.1 614.1,155.1 615.3,203.6 616.5,154.1 617.7,203.8 618.9,151.4 620.0,203.6 621.2,149.1 622.4,203.4 623.6,147.2 624.8,203.3 626.0,145.7 627.2,203.3 628.3,144.6 629.5,203.4 630.7,143.8 631.9,203.5 633.1,143.2 634.3,203.8 635.5,142.9 636.7,204.1 637.8,142.7 639.0,204.5 640.2,142.7 641.4,204.9 642.6,142.8 643.8,205.4 645.0,143.1 646.1,206.0 647.3,143.5 648.5,206.6 649.7,143.9 650.9,207.3 652.1,144.5 653.3,207.9 654.5,145.1 655.6,208.6 656.8,145.8 658.0,209.4 659.2,146.5 660.4,210.1 661.6,147.2 662.8,210.9 663.9,148.0 665.1,211.6 666.3,148.9 667.5,212.4 668.7,149.7 669.9,213.2 671.1,150.6 672.3,214.0 673.4,151.5 674.6,214.8 675.8,152.4 677.0,215.6 678.2,153.3 679.4,216.4 680.6,154.2 681.7,217.2 682.9,155.2 684.1,218.0 685.3,156.1 686.5,218.8 687.7,157.0 688.9,219.6 690.1,158.0 691.2,220.4 692.4,158.9 693.6,221.2 694.8,159.8 696.0,221.9 697.2,160.7 698.4,222.7 699.5,161.7 700.7,223.5 701.9,162.6 703.1,224.2 704.3,163.5 705.5,225.0 706.7,164.4 707.9,225.7 709.0,165.3 710.2,226.4 711.4,166.2 712.6,227.1 713.8,167.0 715.0,227.8 716.2,167.9 717.3,228.5 718.5,168.8 719.7,229.2 720.9,169.6 722.1,229.9 723.3,170.5 724.5,230.3 725.7,170.8 726.8,230.6 728.0,171.1 729.2,230.9 730.4,171.5 731.6,231.2 732.8,171.9 734.0,231.5 735.1,172.4 736.3,231.9 737.5,172.9 738.7,232.3 739.9,173.4 741.1,232.7 742.3,173.9 743.5,233.1 744.6,174.5 745.8,233.5 747.0,175.0 748.2,233.9 749.4,175.6 750.6,234.3 751.8,176.2 752.9,234.7 754.1,176.8 755.3,235.2 756.5,177.4 757.7,235.6 758.9,178.0 760.1,236.0 761.3,178.6 762.4,236.5 763.6,179.2 764.8,236.9 766.0,179.8"/>
<line x1="606" y1="42" x2="628" y2="42" stroke="#0f62fe" stroke-width="2.2"/>
<text x="634" y="46" font-family="Arial" font-size="12">load_factor_g</text>
</svg>