<svg xmlns="http://www.w3.org/2000/svg" width="820" height="320" viewBox="0 0 820 320">
<rect width="100%" height="100%" fill="#ffffff"/>
<text x="54" y="28" font-family="Arial" font-size="18" font-weight="700">Barometer vs Truth</text>
<line x1="54" y1="266" x2="766" y2="266" stroke="#1f2933"/>
<line x1="54" y1="54" x2="54" y2="266" stroke="#1f2933"/>
<text x="54" y="306" font-family="Arial" font-size="12">time (s)</text>
<text x="596" y="306" font-family="Arial" font-size="12">altitude (m)</text>
<text x="58" y="68" font-family="Arial" font-size="11">346</text>
<text x="58" y="260" font-family="Arial" font-size="11">19.8</text>
<polyline fill="none" stroke="#0f62fe" stroke-width="2.2" points="54.0,265.9 55.2,265.7 56.4,265.6 57.6,265.5 58.7,265.3 59.9,265.2 61.1,265.0 62.3,264.9 63.5,264.8 64.7,264.7 65.9,264.5 67.1,264.4 68.2,264.3 69.4,264.2 70.6,264.1 71.8,264.0 73.0,263.9 74.2,263.8 75.4,263.7 76.5,263.6 77.7,263.5 78.9,263.4 80.1,263.3 81.3,263.2 82.5,263.1 83.7,263.0 84.9,262.9 86.0,262.8 87.2,262.7 88.4,262.6 89.6,262.6 90.8,262.5 92.0,262.4 93.2,262.3 94.3,262.2 95.5,262.2 96.7,262.1 97.9,262.0 99.1,262.0 100.3,261.9 101.5,261.8 102.7,261.8 103.8,261.7 105.0,261.6 106.2,261.6 107.4,261.5 108.6,261.4 109.8,261.4 111.0,261.3 112.1,261.3 113.3,261.2 114.5,261.2 115.7,261.1 116.9,261.1 118.1,261.0 119.3,260.9 120.5,260.9 121.6,260.8 122.8,260.8 124.0,260.7 125.2,260.7 126.4,260.6 127.6,260.6 128.8,260.6 129.9,260.5 131.1,260.5 132.3,260.4 133.5,260.4 134.7,260.3 135.9,260.3 137.1,260.2 138.3,260.2 139.4,260.2 140.6,260.1 141.8,260.1 143.0,260.0 144.2,260.0 145.4,259.9 146.6,259.9 147.7,259.8 148.9,259.8 150.1,259.8 151.3,259.7 152.5,259.7 153.7,259.6 154.9,259.6 156.1,259.5 157.2,259.5 158.4,259.4 159.6,259.4 160.8,259.4 162.0,259.3 163.2,259.3 164.4,259.2 165.5,259.2 166.7,259.1 167.9,259.1 169.1,259.0 170.3,259.0 171.5,258.9 172.7,258.9 173.9,258.8 175.0,258.7 176.2,258.7 177.4,258.6 178.6,258.6 179.8,258.5 181.0,258.4 182.2,258.4 183.3,258.3 184.5,258.2 185.7,258.2 186.9,258.1 188.1,258.0 189.3,258.0 190.5,257.9 191.7,257.8 192.8,257.7 194.0,257.6 195.2,257.6 196.4,257.5 197.6,257.4 198.8,257.3 200.0,257.2 201.1,257.1 202.3,257.0 203.5,256.9 204.7,256.8 205.9,256.7 207.1,256.6 208.3,256.5 209.5,256.4 210.6,256.3 211.8,256.2 213.0,256.0 214.2,255.9 215.4,255.8 216.6,255.7 217.8,255.6 218.9,255.4 220.1,255.3 221.3,255.2 222.5,255.0 223.7,254.9 224.9,254.7 226.1,254.6 227.3,254.4 228.4,254.3 229.6,254.1 230.8,254.0 232.0,253.8 233.2,253.7 234.4,253.5 235.6,253.3 236.7,253.1 237.9,253.0 239.1,252.8 240.3,252.6 241.5,252.4 242.7,252.2 243.9,252.1 245.1,251.9 246.2,251.7 247.4,251.5 248.6,251.3 249.8,251.1 251.0,250.8 252.2,250.6 253.4,250.4 254.5,250.2 255.7,250.0 256.9,249.8 258.1,249.5 259.3,249.3 260.5,249.1 261.7,248.8 262.9,248.6 264.0,248.4 265.2,248.1 266.4,247.9 267.6,247.6 268.8,247.4 270.0,247.1 271.2,246.8 272.3,246.6 273.5,246.3 274.7,246.0 275.9,245.8 277.1,245.5 278.3,245.2 279.5,244.9 280.7,244.6 281.8,244.3 283.0,244.1 284.2,243.8 285.4,243.5 286.6,243.2 287.8,242.9 289.0,242.6 290.1,242.3 291.3,241.9 292.5,241.6 293.7,241.3 294.9,241.0 296.1,240.7 297.3,240.3 298.5,240.0 299.6,239.7 300.8,239.3 302.0,239.0 303.2,238.7 304.4,238.3 305.6,238.0 306.8,237.6 307.9,237.3 309.1,236.9 310.3,236.6 311.5,236.2 312.7,235.8 313.9,235.5 315.1,235.1 316.3,234.7 317.4,234.3 318.6,234.0 319.8,233.6 321.0,233.2 322.2,232.8 323.4,232.4 324.6,232.0 325.7,231.6 326.9,231.3 328.1,230.9 329.3,230.5 330.5,230.1 331.7,229.7 332.9,229.2 334.1,228.8 335.2,228.4 336.4,228.0 337.6,227.6 338.8,227.2 340.0,226.7 341.2,226.3 342.4,225.9 343.5,225.5 344.7,225.0 345.9,224.6 347.1,224.2 348.3,223.7 349.5,223.3 350.7,222.9 351.9,222.4 353.0,222.0 354.2,221.5 355.4,221.0 356.6,220.6 357.8,220.1 359.0,219.6 360.2,219.2 361.3,218.7 362.5,218.3 363.7,217.8 364.9,217.3 366.1,216.8 367.3,216.4 368.5,215.9 369.7,215.4 370.8,214.9 372.0,214.5 373.2,214.0 374.4,213.5 375.6,213.0 376.8,212.5 378.0,212.0 379.1,211.5 380.3,211.0 381.5,210.5 382.7,210.0 383.9,209.4 385.1,208.9 386.3,208.4 387.5,207.9 388.6,207.3 389.8,206.8 391.0,206.3 392.2,205.7 393.4,205.2 394.6,204.7 395.8,204.1 396.9,203.6 398.1,203.0 399.3,202.5 400.5,201.9 401.7,201.4 402.9,200.8 404.1,200.2 405.3,199.7 406.4,199.1 407.6,198.6 408.8,198.0 410.0,197.4 411.2,196.9 412.4,196.3 413.6,195.7 414.7,195.1 415.9,194.6 417.1,194.0 418.3,193.4 419.5,192.8 420.7,192.2 421.9,191.7 423.1,191.1 424.2,190.5 425.4,189.9 426.6,189.3 427.8,188.7 429.0,188.1 430.2,187.5 431.4,186.9 432.5,186.3 433.7,185.7 434.9,185.1 436.1,184.5 437.3,183.9 438.5,183.3 439.7,182.7 440.9,182.1 442.0,181.5 443.2,180.9 444.4,180.3 445.6,179.7 446.8,179.1 448.0,178.4 449.2,177.8 450.3,177.2 451.5,176.6 452.7,176.0 453.9,175.4 455.1,174.7 456.3,174.1 457.5,173.5 458.7,172.9 459.8,172.2 461.0,171.6 462.2,171.0 463.4,170.3 464.6,169.7 465.8,169.1 467.0,168.4 468.1,167.8 469.3,167.2 470.5,166.5 471.7,165.9 472.9,165.2 474.1,164.6 475.3,164.0 476.5,163.3 477.6,162.7 478.8,162.0 480.0,161.4 481.2,160.7 482.4,160.1 483.6,159.4 484.8,158.8 485.9,158.1 487.1,157.5 488.3,156.8 489.5,156.2 490.7,155.5 491.9,154.8 493.1,154.2 494.3,153.5 495.4,152.9 496.6,152.2 497.8,151.5 499.0,150.9 500.2,150.2 501.4,149.5 502.6,148.9 503.7,148.2 504.9,147.5 506.1,146.9 507.3,146.2 508.5,145.5 509.7,144.9 510.9,144.2 512.1,143.5 513.2,142.9 514.4,142.2 515.6,141.5 516.8,140.9 518.0,140.2 519.2,139.5 520.4,138.9 521.5,138.2 522.7,137.6 523.9,136.9 525.1,136.3 526.3,135.6 527.5,134.9 528.7,134.3 529.9,133.6 531.0,133.0 532.2,132.3 533.4,131.7 534.6,131.1 535.8,130.4 537.0,129.8 538.2,129.1 539.3,128.5 540.5,127.9 541.7,127.2 542.9,126.6 544.1,126.0 545.3,125.3 546.5,124.7 547.7,124.1 548.8,123.5 550.0,122.8 551.2,122.2 552.4,121.6 553.6,121.0 554.8,120.4 556.0,119.8 557.1,119.2 558.3,118.6 559.5,117.9 560.7,117.3 561.9,116.7 563.1,116.1 564.3,115.6 565.5,115.0 566.6,114.4 567.8,113.8 569.0,113.2 570.2,112.6 571.4,112.0 572.6,111.5 573.8,110.9 574.9,110.3 576.1,109.8 577.3,109.2 578.5,108.6 579.7,108.1 580.9,107.5 582.1,107.0 583.3,106.5 584.4,105.9 585.6,105.4 586.8,104.9 588.0,104.3 589.2,103.8 590.4,103.3 591.6,102.8 592.7,102.3 593.9,101.8 595.1,101.3 596.3,100.8 597.5,100.3 598.7,99.8 599.9,99.3 601.1,98.9 602.2,98.4 603.4,97.9 604.6,97.5 605.8,97.0 607.0,96.5 608.2,96.1 609.4,95.6 610.5,95.2 611.7,94.7 612.9,94.3 614.1,93.9 615.3,93.4 616.5,93.0 617.7,92.6 618.9,92.2 620.0,91.8 621.2,91.4 622.4,90.9 623.6,90.5 624.8,90.1 626.0,89.7 627.2,89.3 628.3,88.9 629.5,88.6 630.7,88.2 631.9,87.8 633.1,87.4 634.3,87.0 635.5,86.6 636.7,86.3 637.8,85.9 639.0,85.5 640.2,85.1 641.4,84.8 642.6,84.4 643.8,84.0 645.0,83.7 646.1,83.3 647.3,83.0 648.5,82.6 649.7,82.2 650.9,81.9 652.1,81.5 653.3,81.2 654.5,80.8 655.6,80.5 656.8,80.1 658.0,79.8 659.2,79.5 660.4,79.1 661.6,78.8 662.8,78.4 663.9,78.1 665.1,77.8 666.3,77.5 667.5,77.1 668.7,76.8 669.9,76.5 671.1,76.1 672.3,75.8 673.4,75.5 674.6,75.2 675.8,74.9 677.0,74.5 678.2,74.2 679.4,73.9 680.6,73.6 681.7,73.3 682.9,73.0 684.1,72.7 685.3,72.4 686.5,72.1 687.7,71.8 688.9,71.5 690.1,71.2 691.2,70.9 692.4,70.6 693.6,70.3 694.8,70.0 696.0,69.7 697.2,69.4 698.4,69.1 699.5,68.8 700.7,68.5 701.9,68.2 703.1,67.9 704.3,67.6 705.5,67.4 706.7,67.1 707.9,66.8 709.0,66.5 710.2,66.2 711.4,66.0 712.6,65.7 713.8,65.4 715.0,65.1 716.2,64.9 717.3,64.6 718.5,64.3 719.7,64.1 720.9,63.8 722.1,63.5 723.3,63.3 724.5,63.0 725.7,62.7 726.8,62.5 728.0,62.2 729.2,62.0 730.4,61.7 731.6,61.5 732.8,61.2 734.0,61.0 735.1,60.7 736.3,60.5 737.5,60.2 738.7,60.0 739.9,59.7 741.1,59.5 742.3,59.2 743.5,59.0 744.6,58.7 745.8,58.5 747.0,58.2 748.2,58.0 749.4,57.8 750.6,57.5 751.8,57.3 752.9,57.1 754.1,56.8 755.3,56.6 756.5,56.4 757.7,56.1 758.9,55.9 760.1,55.7 761.3,55.4 762.4,55.2 763.6,55.0 764.8,54.8 766.0,54.5"/>
<line x1="606" y1="42" x2="628" y2="42" stroke="#0f62fe" stroke-width="2.2"/>
<text x="634" y="46" font-family="Arial" font-size="12">altitude_m</text>
<polyline fill="none" stroke="#24a148" stroke-width="2.2" points="54.0,265.7 55.2,265.7 56.4,266.0 57.6,266.0 58.7,265.1 59.9,265.1 61.1,265.1 62.3,265.1 63.5,265.1 64.7,265.1 65.9,264.1 67.1,264.1 68.2,264.0 69.4,264.0 70.6,263.9 71.8,263.9 73.0,264.1 74.2,264.1 75.4,264.2 76.5,264.2 77.7,264.3 78.9,264.3 80.1,263.5 81.3,263.5 82.5,262.8 83.7,262.8 84.9,262.5 86.0,262.5 87.2,262.4 88.4,262.4 89.6,262.4 90.8,262.4 92.0,262.1 93.2,262.1 94.3,262.9 95.5,262.9 96.7,262.4 97.9,262.4 99.1,262.1 100.3,262.1 101.5,261.8 102.7,261.8 103.8,261.5 105.0,261.5 106.2,262.4 107.4,262.4 108.6,261.5 109.8,261.5 111.0,261.4 112.1,261.4 113.3,261.0 114.5,261.0 115.7,260.9 116.9,260.9 118.1,261.4 119.3,261.4 120.5,260.4 121.6,260.4 122.8,260.8 124.0,260.8 125.2,260.7 126.4,260.7 127.6,259.7 128.8,259.7 129.9,260.3 131.1,260.3 132.3,259.9 133.5,259.9 134.7,260.6 135.9,260.6 137.1,260.4 138.3,260.4 139.4,260.4 140.6,260.4 141.8,259.8 143.0,259.8 144.2,259.9 145.4,259.9 146.6,260.6 147.7,260.6 148.9,260.0 150.1,260.0 151.3,259.6 152.5,259.6 153.7,259.3 154.9,259.3 156.1,259.6 157.2,259.6 158.4,259.3 159.6,259.3 160.8,259.2 162.0,259.2 163.2,259.8 164.4,259.8 165.5,259.8 166.7,259.8 167.9,258.5 169.1,258.5 170.3,259.2 171.5,259.2 172.7,258.7 173.9,258.7 175.0,258.6 176.2,258.6 177.4,258.8 178.6,258.8 179.8,258.7 181.0,258.7 182.2,258.8 183.3,258.8 184.5,259.1 185.7,259.1 186.9,257.6 188.1,257.6 189.3,257.6 190.5,257.6 191.7,257.7 192.8,257.7 194.0,257.7 195.2,257.7 196.4,257.5 197.6,257.5 198.8,256.2 200.0,256.2 201.1,257.0 202.3,257.0 203.5,257.3 204.7,257.3 205.9,257.3 207.1,257.3 208.3,256.0 209.5,256.0 210.6,255.8 211.8,255.8 213.0,256.1 214.2,256.1 215.4,255.7 216.6,255.7 217.8,255.6 218.9,255.6 220.1,255.4 221.3,255.4 222.5,254.8 223.7,254.8 224.9,254.3 226.1,254.3 227.3,255.1 228.4,255.1 229.6,253.8 230.8,253.8 232.0,253.6 233.2,253.6 234.4,253.7 235.6,253.7 236.7,253.7 237.9,253.7 239.1,252.6 240.3,252.6 241.5,252.4 242.7,252.4 243.9,252.3 245.1,252.3 246.2,252.5 247.4,252.5 248.6,251.8 249.8,251.8 251.0,250.5 252.2,250.5 253.4,251.1 254.5,251.1 255.7,249.2 256.9,249.2 258.1,249.5 259.3,249.5 260.5,249.0 261.7,249.0 262.9,248.6 264.0,248.6 265.2,247.7 266.4,247.7 267.6,247.1 268.8,247.1 270.0,247.1 271.2,247.1 272.3,246.6 273.5,246.6 274.7,245.8 275.9,245.8 277.1,246.0 278.3,246.0 279.5,245.3 280.7,245.3 281.8,244.5 283.0,244.5 284.2,243.4 285.4,243.4 286.6,242.9 287.8,242.9 289.0,243.1 290.1,243.1 291.3,241.5 292.5,241.5 293.7,240.4 294.9,240.4 296.1,240.3 297.3,240.3 298.5,240.0 299.6,240.0 300.8,239.4 302.0,239.4 303.2,238.9 304.4,238.9 305.6,237.6 306.8,237.6 307.9,237.7 309.1,237.7 310.3,236.9 311.5,236.9 312.7,236.4 313.9,236.4 315.1,235.0 316.3,235.0 317.4,234.7 318.6,234.7 319.8,234.2 321.0,234.2 322.2,233.7 323.4,233.7 324.6,231.7 325.7,231.7 326.9,231.5 328.1,231.5 329.3,230.5 330.5,230.5 331.7,229.8 332.9,229.8 334.1,228.8 335.2,228.8 336.4,228.4 337.6,228.4 338.8,226.7 340.0,226.7 341.2,226.5 342.4,226.5 343.5,225.4 344.7,225.4 345.9,224.1 347.1,224.1 348.3,223.7 349.5,223.7 350.7,222.4 351.9,222.4 353.0,221.6 354.2,221.6 355.4,221.4 356.6,221.4 357.8,220.6 359.0,220.6 360.2,219.8 361.3,219.8 362.5,218.7 363.7,218.7 364.9,216.8 366.1,216.8 367.3,216.2 368.5,216.2 369.7,215.8 370.8,215.8 372.0,214.6 373.2,214.6 374.4,213.3 375.6,213.3 376.8,212.9 378.0,212.9 379.1,211.2 380.3,211.2 381.5,210.1 382.7,210.1 383.9,209.3 385.1,209.3 386.3,207.8 387.5,207.8 388.6,207.3 389.8,207.3 391.0,206.2 392.2,206.2 393.4,204.5 394.6,204.5 395.8,204.7 396.9,204.7 398.1,202.5 399.3,202.5 400.5,201.1 401.7,201.1 402.9,200.7 404.1,200.7 405.3,199.9 406.4,199.9 407.6,199.0 408.8,199.0 410.0,198.2 411.2,198.2 412.4,196.4 413.6,196.4 414.7,195.0 415.9,195.0 417.1,194.3 418.3,194.3 419.5,193.1 420.7,193.1 421.9,192.1 423.1,192.1 424.2,190.5 425.4,190.5 426.6,188.5 427.8,188.5 429.0,187.6 430.2,187.6 431.4,187.0 432.5,187.0 433.7,185.3 434.9,185.3 436.1,184.8 437.3,184.8 438.5,183.3 439.7,183.3 440.9,182.1 442.0,182.1 443.2,180.9 444.4,180.9 445.6,179.7 446.8,179.7 448.0,179.2 449.2,179.2 450.3,177.8 451.5,177.8 452.7,176.0 453.9,176.0 455.1,175.5 456.3,175.5 457.5,173.5 458.7,173.5 459.8,171.9 461.0,171.9 462.2,171.3 463.4,171.3 464.6,169.3 465.8,169.3 467.0,168.9 468.1,168.9 469.3,166.7 470.5,166.7 471.7,166.6 472.9,166.6 474.1,165.2 475.3,165.2 476.5,163.5 477.6,163.5 478.8,161.9 480.0,161.9 481.2,161.0 482.4,161.0 483.6,159.1 484.8,159.1 485.9,157.8 487.1,157.8 488.3,157.3 489.5,157.3 490.7,155.3 491.9,155.3 493.1,154.1 494.3,154.1 495.4,153.5 496.6,153.5 497.8,151.9 499.0,151.9 500.2,149.5 501.4,149.5 502.6,148.8 503.7,148.8 504.9,147.8 506.1,147.8 507.3,145.8 508.5,145.8 509.7,144.6 510.9,144.6 512.1,143.7 513.2,143.7 514.4,141.5 515.6,141.5 516.8,140.9 518.0,140.9 519.2,139.0 520.4,139.0 521.5,138.9 522.7,138.9 523.9,136.8 525.1,136.8 526.3,135.4 527.5,135.4 528.7,133.9 529.9,133.9 531.0,132.2 532.2,132.2 533.4,131.1 534.6,131.1 535.8,130.1 537.0,130.1 538.2,129.3 539.3,129.3 540.5,128.2 541.7,128.2 542.9,126.2 544.1,126.2 545.3,125.9 546.5,125.9 547.7,124.2 548.8,124.2 550.0,123.2 551.2,123.2 552.4,121.6 553.6,121.6 554.8,119.6 556.0,119.6 557.1,119.5 558.3,119.5 559.5,117.5 560.7,117.5 561.9,116.3 563.1,116.3 564.3,115.9 565.5,115.9 566.6,114.8 567.8,114.8 569.0,112.7 570.2,112.7 571.4,111.8 572.6,111.8 573.8,110.7 574.9,110.7 576.1,109.3 577.3,109.3 578.5,108.1 579.7,108.1 580.9,107.9 582.1,107.9 583.3,106.4 584.4,106.4 585.6,105.2 586.8,105.2 588.0,105.0 589.2,105.0 590.4,103.1 591.6,103.1 592.7,102.4 593.9,102.4 595.1,101.5 596.3,101.5 597.5,100.5 598.7,100.5 599.9,99.4 601.1,99.4 602.2,98.5 603.4,98.5 604.6,96.8 605.8,96.8 607.0,96.6 608.2,96.6 609.4,95.5 610.5,95.5 611.7,94.7 612.9,94.7 614.1,93.5 615.3,93.5 616.5,93.1 617.7,93.1 618.9,92.2 620.0,92.2 621.2,91.2 622.4,91.2 623.6,90.5 624.8,90.5 626.0,89.7 627.2,89.7 628.3,88.7 629.5,88.7 630.7,88.6 631.9,88.6 633.1,86.6 634.3,86.6 635.5,87.3 636.7,87.3 637.8,86.1 639.0,86.1 640.2,85.1 641.4,85.1 642.6,84.1 643.8,84.1 645.0,84.3 646.1,84.3 647.3,83.0 648.5,83.0 649.7,81.9 650.9,81.9 652.1,81.0 653.3,81.0 654.5,80.9 655.6,80.9 656.8,80.6 658.0,80.6 659.2,79.3 660.4,79.3 661.6,78.6 662.8,78.6 663.9,77.9 665.1,77.9 666.3,77.6 667.5,77.6 668.7,76.5 669.9,76.5 671.1,76.5 672.3,76.5 673.4,76.2 674.6,76.2 675.8,75.0 677.0,75.0 678.2,73.9 679.4,73.9 680.6,73.4 681.7,73.4 682.9,73.5 684.1,73.5 685.3,72.7 686.5,72.7 687.7,71.1 688.9,71.1 690.1,70.9 691.2,70.9 692.4,70.3 693.6,70.3 694.8,70.6 696.0,70.6 697.2,70.2 698.4,70.2 699.5,68.8 700.7,68.8 701.9,68.2 703.1,68.2 704.3,67.2 705.5,67.2 706.7,67.3 707.9,67.3 709.0,65.9 710.2,65.9 711.4,65.2 712.6,65.2 713.8,65.5 715.0,65.5 716.2,65.0 717.3,65.0 718.5,63.5 719.7,63.5 720.9,64.4 722.1,64.4 723.3,63.2 724.5,63.2 725.7,62.9 726.8,62.9 728.0,62.1 729.2,62.1 730.4,61.3 731.6,61.3 732.8,61.6 734.0,61.6 735.1,60.5 736.3,60.5 737.5,60.4 738.7,60.4 739.9,60.0 741.1,60.0 742.3,59.3 743.5,59.3 744.6,58.8 745.8,58.8 747.0,58.6 748.2,58.6 749.4,58.0 750.6,58.0 751.8,57.1 752.9,57.1 754.1,56.4 755.3,56.4 756.5,56.0 757.7,56.0 758.9,56.3 760.1,56.3 761.3,54.8 762.4,54.8 763.6,54.7 764.8,54.7 766.0,54.0"/>
<line x1="606" y1="60" x2="628" y2="60" stroke="#24a148" stroke-width="2.2"/>
<text x="634" y="64" font-family="Arial" font-size="12">baro_alt_m</text>
</svg>