<svg xmlns="http://www.w3.org/2000/svg" width="820" height="320" viewBox="0 0 820 320">
<rect width="100%" height="100%" fill="#ffffff"/>
<text x="54" y="28" font-family="Arial" font-size="18" font-weight="700">Pitch Command Tracking</text>
<line x1="54" y1="266" x2="766" y2="266" stroke="#1f2933"/>
<line x1="54" y1="54" x2="54" y2="266" stroke="#1f2933"/>
<text x="54" y="306" font-family="Arial" font-size="12">time (s)</text>
<text x="596" y="306" font-family="Arial" font-size="12">pitch (deg)</text>
<text x="58" y="68" font-family="Arial" font-size="11">13</text>
<text x="58" y="260" font-family="Arial" font-size="11">4.86</text>
<polyline fill="none" stroke="#0f62fe" stroke-width="2.2" points="54.0,54.0 55.2,54.4 56.4,54.8 57.6,55.2 58.7,55.6 59.9,56.0 61.1,56.3 62.3,56.7 63.5,57.1 64.7,57.5 65.9,57.9 67.1,58.3 68.2,58.7 69.4,59.1 70.6,59.5 71.8,59.9 73.0,60.2 74.2,60.6 75.4,61.0 76.5,61.4 77.7,61.8 78.9,62.2 80.1,62.6 81.3,63.0 82.5,63.4 83.7,63.8 84.9,64.2 86.0,64.5 87.2,64.9 88.4,65.3 89.6,65.7 90.8,66.1 92.0,66.5 93.2,66.9 94.3,67.3 95.5,67.7 96.7,68.1 97.9,68.5 99.1,68.8 100.3,69.2 101.5,69.6 102.7,70.0 103.8,70.4 105.0,70.8 106.2,71.2 107.4,71.6 108.6,72.0 109.8,72.4 111.0,72.7 112.1,73.1 113.3,73.5 114.5,73.9 115.7,74.3 116.9,74.7 118.1,75.1 119.3,75.5 120.5,75.9 121.6,76.3 122.8,76.7 124.0,77.0 125.2,77.4 126.4,77.8 127.6,78.2 128.8,78.6 129.9,79.0 131.1,79.4 132.3,79.8 133.5,80.2 134.7,80.6 135.9,80.9 137.1,81.3 138.3,81.7 139.4,82.1 140.6,82.5 141.8,82.9 143.0,83.3 144.2,83.7 145.4,84.1 146.6,84.5 147.7,84.9 148.9,85.2 150.1,85.6 151.3,86.0 152.5,86.4 153.7,86.8 154.9,87.2 156.1,87.6 157.2,88.0 158.4,88.4 159.6,88.8 160.8,89.1 162.0,89.5 163.2,89.9 164.4,90.3 165.5,90.7 166.7,91.1 167.9,91.5 169.1,91.9 170.3,92.3 171.5,92.7 172.7,93.1 173.9,93.4 175.0,93.8 176.2,94.2 177.4,94.6 178.6,95.0 179.8,95.4 181.0,95.8 182.2,96.2 183.3,96.6 184.5,97.0 185.7,97.4 186.9,97.7 188.1,98.1 189.3,98.5 190.5,98.9 191.7,99.3 192.8,99.7 194.0,100.1 195.2,100.5 196.4,100.9 197.6,101.3 198.8,101.6 200.0,102.0 201.1,102.4 202.3,102.8 203.5,103.2 204.7,103.6 205.9,104.0 207.1,104.4 208.3,104.8 209.5,105.2 210.6,105.6 211.8,105.9 213.0,106.3 214.2,106.7 215.4,107.1 216.6,107.5 217.8,107.9 218.9,108.3 220.1,108.7 221.3,109.1 222.5,109.5 223.7,109.8 224.9,110.2 226.1,110.6 227.3,111.0 228.4,111.4 229.6,111.8 230.8,112.2 232.0,112.6 233.2,113.0 234.4,113.4 235.6,113.8 236.7,114.1 237.9,114.5 239.1,114.9 240.3,115.3 241.5,115.7 242.7,116.1 243.9,116.5 245.1,116.9 246.2,117.3 247.4,117.7 248.6,118.1 249.8,118.4 251.0,118.8 252.2,119.2 253.4,119.6 254.5,120.0 255.7,120.4 256.9,120.8 258.1,121.2 259.3,121.6 260.5,122.0 261.7,122.3 262.9,122.7 264.0,123.1 265.2,123.5 266.4,123.9 267.6,124.3 268.8,124.7 270.0,125.1 271.2,125.5 272.3,125.9 273.5,126.3 274.7,126.6 275.9,127.0 277.1,127.4 278.3,127.8 279.5,128.2 280.7,128.6 281.8,129.0 283.0,129.4 284.2,129.8 285.4,130.2 286.6,130.5 287.8,130.9 289.0,131.3 290.1,131.7 291.3,132.1 292.5,132.4 293.7,132.7 294.9,133.0 296.1,133.3 297.3,133.6 298.5,133.9 299.6,134.2 300.8,134.5 302.0,134.7 303.2,135.0 304.4,135.3 305.6,135.6 306.8,135.9 307.9,136.2 309.1,136.5 310.3,136.8 311.5,137.1 312.7,137.4 313.9,137.7 315.1,138.0 316.3,138.3 317.4,138.6 318.6,138.8 319.8,139.1 321.0,139.4 322.2,139.7 323.4,140.0 324.6,140.3 325.7,140.6 326.9,140.9 328.1,141.2 329.3,141.5 330.5,141.8 331.7,142.1 332.9,142.4 334.1,142.7 335.2,142.9 336.4,143.2 337.6,143.5 338.8,143.8 340.0,144.1 341.2,144.4 342.4,144.7 343.5,145.0 344.7,145.3 345.9,145.6 347.1,145.9 348.3,146.2 349.5,146.5 350.7,146.8 351.9,147.0 353.0,147.3 354.2,147.6 355.4,147.9 356.6,148.2 357.8,148.5 359.0,148.8 360.2,149.1 361.3,149.4 362.5,149.7 363.7,150.0 364.9,150.3 366.1,150.6 367.3,150.9 368.5,151.2 369.7,151.4 370.8,151.7 372.0,152.0 373.2,152.3 374.4,152.6 375.6,152.9 376.8,153.2 378.0,153.5 379.1,153.8 380.3,154.1 381.5,154.4 382.7,154.7 383.9,155.0 385.1,155.3 386.3,155.5 387.5,155.8 388.6,156.1 389.8,156.4 391.0,156.7 392.2,157.0 393.4,157.3 394.6,157.6 395.8,157.9 396.9,158.2 398.1,158.5 399.3,158.8 400.5,159.1 401.7,159.4 402.9,159.6 404.1,159.9 405.3,160.2 406.4,160.5 407.6,160.8 408.8,161.1 410.0,161.4 411.2,161.7 412.4,162.0 413.6,162.3 414.7,162.6 415.9,162.9 417.1,163.2 418.3,163.5 419.5,163.7 420.7,164.0 421.9,164.3 423.1,164.6 424.2,164.9 425.4,165.2 426.6,165.5 427.8,165.8 429.0,166.1 430.2,166.4 431.4,166.7 432.5,167.0 433.7,167.3 434.9,167.6 436.1,167.8 437.3,168.1 438.5,168.4 439.7,168.7 440.9,169.0 442.0,169.3 443.2,169.6 444.4,169.9 445.6,170.2 446.8,170.5 448.0,170.8 449.2,171.1 450.3,171.4 451.5,171.7 452.7,171.9 453.9,172.2 455.1,172.5 456.3,172.8 457.5,173.1 458.7,173.4 459.8,173.7 461.0,174.0 462.2,174.3 463.4,174.6 464.6,174.9 465.8,175.2 467.0,175.5 468.1,175.8 469.3,176.0 470.5,176.3 471.7,176.6 472.9,176.9 474.1,177.2 475.3,177.5 476.5,177.8 477.6,178.1 478.8,178.4 480.0,178.7 481.2,179.0 482.4,179.3 483.6,179.6 484.8,179.9 485.9,180.1 487.1,180.4 488.3,180.7 489.5,181.0 490.7,181.3 491.9,181.6 493.1,181.9 494.3,182.2 495.4,182.5 496.6,182.8 497.8,183.1 499.0,183.4 500.2,183.7 501.4,184.0 502.6,184.2 503.7,184.5 504.9,184.8 506.1,185.1 507.3,185.4 508.5,185.7 509.7,186.0 510.9,186.3 512.1,186.6 513.2,186.9 514.4,187.2 515.6,187.5 516.8,187.8 518.0,188.1 519.2,188.4 520.4,188.6 521.5,188.9 522.7,189.2 523.9,189.5 525.1,189.8 526.3,190.1 527.5,190.4 528.7,190.7 529.9,191.0 531.0,191.3 532.2,191.6 533.4,191.9 534.6,192.2 535.8,192.5 537.0,192.7 538.2,193.0 539.3,193.3 540.5,193.6 541.7,193.9 542.9,194.2 544.1,194.5 545.3,194.8 546.5,195.1 547.7,195.4 548.8,195.7 550.0,196.0 551.2,196.3 552.4,196.6 553.6,196.8 554.8,197.1 556.0,197.4 557.1,197.7 558.3,198.0 559.5,198.3 560.7,198.6 561.9,198.9 563.1,199.2 564.3,199.5 565.5,199.8 566.6,200.1 567.8,200.4 569.0,200.7 570.2,200.9 571.4,201.2 572.6,201.5 573.8,201.8 574.9,202.1 576.1,202.4 577.3,202.7 578.5,203.0 579.7,203.3 580.9,203.6 582.1,203.9 583.3,204.2 584.4,204.5 585.6,204.8 586.8,205.0 588.0,205.3 589.2,205.6 590.4,205.9 591.6,206.2 592.7,206.5 593.9,206.8 595.1,207.1 596.3,207.4 597.5,207.7 598.7,208.0 599.9,208.3 601.1,208.6 602.2,208.9 603.4,209.1 604.6,209.4 605.8,209.7 607.0,210.0 608.2,210.2 609.4,210.2 610.5,210.2 611.7,210.2 612.9,210.2 614.1,210.2 615.3,210.2 616.5,210.2 617.7,210.2 618.9,210.2 620.0,210.2 621.2,210.2 622.4,210.2 623.6,210.2 624.8,210.2 626.0,210.2 627.2,210.2 628.3,210.2 629.5,210.2 630.7,210.2 631.9,210.2 633.1,210.2 634.3,210.2 635.5,210.2 636.7,210.2 637.8,210.2 639.0,210.2 640.2,210.2 641.4,210.2 642.6,210.2 643.8,210.2 645.0,210.2 646.1,210.2 647.3,210.2 648.5,210.2 649.7,210.2 650.9,210.2 652.1,210.2 653.3,210.2 654.5,210.2 655.6,210.2 656.8,210.2 658.0,210.2 659.2,210.2 660.4,210.2 661.6,210.2 662.8,210.2 663.9,210.2 665.1,210.2 666.3,210.2 667.5,210.2 668.7,210.2 669.9,210.2 671.1,210.2 672.3,210.2 673.4,210.2 674.6,210.2 675.8,210.2 677.0,210.2 678.2,210.2 679.4,210.2 680.6,210.2 681.7,210.2 682.9,210.2 684.1,210.2 685.3,210.2 686.5,210.2 687.7,210.2 688.9,210.2 690.1,210.2 691.2,210.2 692.4,210.2 693.6,210.2 694.8,210.2 696.0,210.2 697.2,210.2 698.4,210.2 699.5,210.2 700.7,210.2 701.9,210.2 703.1,210.2 704.3,210.2 705.5,210.2 706.7,210.2 707.9,210.2 709.0,210.2 710.2,210.2 711.4,210.2 712.6,210.2 713.8,210.2 715.0,210.2 716.2,210.2 717.3,210.2 718.5,210.2 719.7,210.2 720.9,210.2 722.1,210.2 723.3,210.2 724.5,210.2 725.7,210.2 726.8,210.2 728.0,210.2 729.2,210.2 730.4,210.2 731.6,210.2 732.8,210.2 734.0,210.2 735.1,210.2 736.3,210.2 737.5,210.2 738.7,210.2 739.9,210.2 741.1,210.2 742.3,210.2 743.5,210.2 744.6,210.2 745.8,210.2 747.0,210.2 748.2,210.2 749.4,210.2 750.6,210.2 751.8,210.2 752.9,210.2 754.1,210.2 755.3,210.2 756.5,210.2 757.7,210.2 758.9,210.2 760.1,210.2 761.3,210.2 762.4,210.2 763.6,210.2 764.8,210.2 766.0,210.2"/>
<line x1="606" y1="42" x2="628" y2="42" stroke="#0f62fe" stroke-width="2.2"/>
<text x="634" y="46" font-family="Arial" font-size="12">pitch_command_deg</text>
<polyline fill="none" stroke="#24a148" stroke-width="2.2" points="54.0,236.3 55.2,229.3 56.4,219.6 57.6,211.6 58.7,207.0 59.9,204.5 61.1,202.7 62.3,200.9 63.5,199.2 64.7,198.1 65.9,197.4 67.1,197.2 68.2,197.3 69.4,197.5 70.6,197.9 71.8,198.4 73.0,199.1 74.2,199.9 75.4,200.8 76.5,201.7 77.7,202.7 78.9,203.7 80.1,204.8 81.3,205.9 82.5,207.0 83.7,208.2 84.9,209.3 86.0,210.4 87.2,211.5 88.4,212.7 89.6,213.8 90.8,214.9 92.0,216.0 93.2,217.1 94.3,218.1 95.5,219.2 96.7,220.2 97.9,221.2 99.1,222.2 100.3,223.2 101.5,224.1 102.7,225.0 103.8,225.9 105.0,226.8 106.2,227.7 107.4,228.6 108.6,229.4 109.8,230.2 111.0,231.0 112.1,231.8 113.3,232.5 114.5,233.2 115.7,234.0 116.9,234.6 118.1,235.3 119.3,236.0 120.5,236.6 121.6,237.2 122.8,237.8 124.0,238.4 125.2,239.0 126.4,239.5 127.6,240.1 128.8,240.6 129.9,241.1 131.1,241.5 132.3,242.0 133.5,242.5 134.7,242.9 135.9,243.3 137.1,243.7 138.3,244.1 139.4,244.5 140.6,244.8 141.8,245.2 143.0,245.5 144.2,245.8 145.4,246.1 146.6,246.4 147.7,246.6 148.9,246.9 150.1,247.1 151.3,247.1 152.5,247.1 153.7,247.1 154.9,247.0 156.1,246.8 157.2,246.6 158.4,246.4 159.6,246.1 160.8,245.8 162.0,245.5 163.2,245.2 164.4,244.8 165.5,244.4 166.7,243.9 167.9,243.5 169.1,243.0 170.3,242.6 171.5,242.1 172.7,241.6 173.9,241.0 175.0,240.5 176.2,240.0 177.4,239.4 178.6,238.8 179.8,238.2 181.0,237.7 182.2,237.1 183.3,236.5 184.5,235.8 185.7,235.2 186.9,234.6 188.1,234.0 189.3,233.3 190.5,232.7 191.7,232.0 192.8,231.4 194.0,230.7 195.2,230.1 196.4,229.4 197.6,228.7 198.8,228.0 200.0,227.4 201.1,226.7 202.3,226.0 203.5,225.3 204.7,224.7 205.9,224.0 207.1,223.3 208.3,222.6 209.5,221.9 210.6,221.2 211.8,220.6 213.0,219.9 214.2,219.2 215.4,218.5 216.6,217.8 217.8,217.1 218.9,216.5 220.1,215.8 221.3,215.1 222.5,214.4 223.7,213.8 224.9,213.1 226.1,212.5 227.3,211.8 228.4,211.1 229.6,210.5 230.8,209.8 232.0,209.2 233.2,208.6 234.4,207.9 235.6,207.3 236.7,206.7 237.9,206.0 239.1,205.4 240.3,204.8 241.5,204.2 242.7,203.6 243.9,203.0 245.1,202.4 246.2,201.8 247.4,201.2 248.6,200.7 249.8,200.1 251.0,199.5 252.2,199.0 253.4,198.4 254.5,197.9 255.7,197.3 256.9,196.8 258.1,196.3 259.3,195.8 260.5,195.3 261.7,194.7 262.9,194.3 264.0,193.8 265.2,193.3 266.4,192.8 267.6,192.3 268.8,191.9 270.0,191.4 271.2,191.0 272.3,190.5 273.5,190.1 274.7,189.6 275.9,189.3 277.1,188.6 278.3,188.9 279.5,186.9 280.7,190.3 281.8,180.9 283.0,197.3 284.2,187.9 285.4,199.8 286.6,186.0 287.8,195.1 289.0,178.5 290.1,187.6 291.3,171.0 292.5,180.1 293.7,169.4 294.9,184.4 296.1,174.3 297.3,189.9 298.5,179.8 299.6,195.4 300.8,185.3 302.0,196.7 303.2,182.2 304.4,191.8 305.6,175.7 306.8,185.3 307.9,169.2 309.1,178.8 310.3,162.6 311.5,172.2 312.7,162.1 313.9,177.7 315.1,167.5 316.3,183.2 317.4,173.0 318.6,188.6 319.8,178.5 321.0,194.1 322.2,183.9 323.4,192.9 324.6,176.2 325.7,185.1 326.9,168.3 328.1,177.2 329.3,160.4 330.5,169.3 331.7,160.4 332.9,177.3 334.1,168.4 335.2,185.3 336.4,176.4 337.6,190.0 338.8,177.8 340.0,188.1 341.2,172.7 342.4,183.0 343.5,167.5 344.7,177.8 345.9,162.3 347.1,172.6 348.3,157.1 349.5,167.4 350.7,152.0 351.9,162.3 353.0,154.0 354.2,171.6 355.4,163.3 356.6,180.8 357.8,172.6 359.0,187.6 360.2,176.7 361.3,187.2 362.5,172.0 363.7,182.4 364.9,167.2 366.1,177.7 367.3,162.4 368.5,172.9 369.7,157.6 370.8,168.1 372.0,152.8 373.2,163.3 374.4,150.4 375.6,163.3 376.8,150.5 378.0,163.4 379.1,150.5 380.3,163.4 381.5,150.6 382.7,163.5 383.9,150.6 385.1,163.5 386.3,150.7 387.5,163.6 388.6,150.7 389.8,163.6 391.0,150.7 392.2,163.7 393.4,150.8 394.6,163.7 395.8,150.8 396.9,163.8 398.1,150.9 399.3,163.8 400.5,150.9 401.7,163.9 402.9,151.0 404.1,163.9 405.3,151.0 406.4,163.9 407.6,151.1 408.8,164.0 410.0,151.1 411.2,164.0 412.4,151.2 413.6,164.1 414.7,151.2 415.9,164.1 417.1,151.3 418.3,164.2 419.5,151.3 420.7,164.2 421.9,151.4 423.1,164.3 424.2,151.4 425.4,164.3 426.6,151.5 427.8,164.4 429.0,151.5 430.2,164.4 431.4,151.6 432.5,164.5 433.7,151.6 434.9,164.5 436.1,151.7 437.3,164.6 438.5,151.7 439.7,164.6 440.9,151.7 442.0,164.7 443.2,151.8 444.4,164.7 445.6,151.8 446.8,164.8 448.0,151.9 449.2,164.8 450.3,151.9 451.5,164.9 452.7,152.0 453.9,164.9 455.1,152.0 456.3,164.9 457.5,152.1 458.7,165.0 459.8,152.1 461.0,165.0 462.2,152.2 463.4,165.1 464.6,152.2 465.8,165.1 467.0,152.3 468.1,165.2 469.3,152.3 470.5,165.2 471.7,152.4 472.9,165.3 474.1,152.4 475.3,165.3 476.5,152.5 477.6,165.4 478.8,152.5 480.0,165.4 481.2,152.6 482.4,165.5 483.6,152.6 484.8,165.5 485.9,152.7 487.1,165.6 488.3,152.7 489.5,165.6 490.7,152.7 491.9,165.7 493.1,152.8 494.3,165.7 495.4,152.8 496.6,165.8 497.8,153.7 499.0,167.4 500.2,155.4 501.4,169.1 502.6,157.0 503.7,170.8 504.9,158.7 506.1,172.4 507.3,160.4 508.5,174.1 509.7,162.0 510.9,175.8 512.1,163.7 513.2,177.4 514.4,165.4 515.6,179.1 516.8,167.0 518.0,180.7 519.2,168.7 520.4,182.4 521.5,170.4 522.7,184.1 523.9,172.0 525.1,185.7 526.3,173.7 527.5,187.4 528.7,175.4 529.9,189.1 531.0,177.0 532.2,190.7 533.4,178.7 534.6,192.4 535.8,180.4 537.0,194.1 538.2,182.0 539.3,195.7 540.5,183.7 541.7,197.4 542.9,185.3 544.1,199.1 545.3,187.0 546.5,200.7 547.7,188.7 548.8,202.4 550.0,190.3 551.2,204.1 552.4,192.0 553.6,205.7 554.8,193.7 556.0,207.4 557.1,195.3 558.3,209.1 559.5,197.0 560.7,210.7 561.9,198.7 563.1,212.4 564.3,200.3 565.5,214.1 566.6,202.0 567.8,215.7 569.0,203.7 570.2,217.4 571.4,205.3 572.6,219.1 573.8,207.0 574.9,220.7 576.1,208.7 577.3,222.4 578.5,210.3 579.7,224.1 580.9,212.0 582.1,225.7 583.3,213.7 584.4,227.4 585.6,215.3 586.8,229.1 588.0,217.0 589.2,230.7 590.4,218.7 591.6,232.4 592.7,220.3 593.9,234.0 595.1,222.0 596.3,235.7 597.5,223.7 598.7,237.4 599.9,225.3 601.1,239.0 602.2,227.0 603.4,240.7 604.6,228.7 605.8,242.4 607.0,230.3 608.2,244.0 609.4,232.0 610.5,245.3 611.7,232.9 612.9,246.2 614.1,233.7 615.3,247.0 616.5,234.5 617.7,247.6 618.9,234.9 620.0,247.9 621.2,235.2 622.4,248.3 623.6,235.6 624.8,248.6 626.0,235.9 627.2,249.0 628.3,236.2 629.5,249.3 630.7,236.6 631.9,249.6 633.1,236.9 634.3,250.0 635.5,237.3 636.7,250.3 637.8,237.6 639.0,250.7 640.2,237.9 641.4,251.0 642.6,238.3 643.8,251.3 645.0,238.6 646.1,251.7 647.3,239.0 648.5,252.0 649.7,239.3 650.9,252.4 652.1,239.6 653.3,252.7 654.5,240.0 655.6,253.0 656.8,240.3 658.0,253.4 659.2,240.7 660.4,253.7 661.6,241.0 662.8,254.1 663.9,241.3 665.1,254.4 666.3,241.7 667.5,254.7 668.7,242.0 669.9,255.1 671.1,242.4 672.3,255.4 673.4,242.7 674.6,255.8 675.8,243.0 677.0,256.1 678.2,243.4 679.4,256.4 680.6,243.7 681.7,256.8 682.9,244.1 684.1,257.1 685.3,244.4 686.5,257.5 687.7,244.7 688.9,257.8 690.1,245.1 691.2,258.1 692.4,245.4 693.6,258.5 694.8,245.8 696.0,258.8 697.2,246.1 698.4,259.2 699.5,246.4 700.7,259.5 701.9,246.8 703.1,259.8 704.3,247.1 705.5,260.2 706.7,247.5 707.9,260.5 709.0,247.8 710.2,260.9 711.4,248.1 712.6,261.2 713.8,248.5 715.0,261.5 716.2,248.8 717.3,261.9 718.5,249.2 719.7,262.2 720.9,249.5 722.1,262.6 723.3,249.8 724.5,262.8 725.7,250.0 726.8,263.0 728.0,250.2 729.2,263.2 730.4,250.4 731.6,263.4 732.8,250.6 734.0,263.6 735.1,250.8 736.3,263.8 737.5,251.0 738.7,263.9 739.9,251.2 741.1,264.1 742.3,251.3 743.5,264.3 744.6,251.5 745.8,264.5 747.0,251.7 748.2,264.7 749.4,251.9 750.6,264.9 751.8,252.1 752.9,265.1 754.1,252.3 755.3,265.3 756.5,252.5 757.7,265.4 758.9,252.6 760.1,265.6 761.3,252.8 762.4,265.8 763.6,253.0 764.8,266.0 766.0,253.2"/>
<line x1="606" y1="60" x2="628" y2="60" stroke="#24a148" stroke-width="2.2"/>
<text x="634" y="64" font-family="Arial" font-size="12">pitch_deg</text>
</svg>